<svg width="400" height="524" viewBox="0 0 400 524" fill="none" xmlns="http://www.w3.org/2000/svg">
<path d="M0 10C0 4.47716 4.47715 0 10 0H390C395.523 0 400 4.47715 400 10V524H0V10Z" fill="white"/>
<path d="M106.01 52.4296H104.692V36.8039H106.01V52.4296ZM92.6215 48.0539C94.2831 47.0677 95.5573 45.8888 96.4441 44.5173C97.3349 43.1416 97.8508 41.6188 97.9917 39.9489H93.3177V38.7928H99.3591C99.3591 39.6091 99.2887 40.3964 99.1478 41.1547H101.522V37.2265H102.852V51.634H101.522V46.2141H98.6257V45.0704H101.522V42.2983H98.8805C98.4869 43.6657 97.8425 44.9192 96.9475 46.0587C96.0566 47.1941 94.8923 48.1906 93.4544 49.0483L92.6215 48.0539ZM113.673 39.6008C113.669 40.2555 113.83 40.8812 114.157 41.4779C114.489 42.0704 114.949 42.5905 115.537 43.038C116.13 43.4814 116.805 43.8191 117.564 44.0511L116.905 45.145C115.997 44.8591 115.202 44.4261 114.518 43.846C113.838 43.2659 113.329 42.5843 112.989 41.8011C112.645 42.6464 112.123 43.3819 111.423 44.0076C110.727 44.6291 109.91 45.0953 108.974 45.4061L108.265 44.3122C109.048 44.0677 109.742 43.7113 110.347 43.2431C110.952 42.7749 111.425 42.2279 111.765 41.6022C112.104 40.9724 112.276 40.3052 112.28 39.6008V39.4144H108.738V38.2583H117.191V39.4144H113.673V39.6008ZM107.992 47.9917C109.827 47.9917 111.261 47.9772 112.293 47.9482V44.7597H113.673V47.8985C115.33 47.8198 116.735 47.6975 117.887 47.5318L117.986 48.5511C116.95 48.7334 115.867 48.8681 114.736 48.9551C113.604 49.0421 112.552 49.096 111.578 49.1167C110.608 49.1374 109.483 49.1478 108.203 49.1478L107.992 47.9917ZM118.894 36.8039H120.261V43.2928H122.809V44.4738H120.261V52.4296H118.894V36.8039ZM141.143 52.4544H139.763V36.8039H141.143V52.4544ZM129.172 38.134H130.552V42.261H135.201V38.134H136.569V48.6754H129.172V38.134ZM135.201 47.5193V43.3674H130.552V47.5193H135.201ZM151.976 44.0387H144.642V37.674H151.976V44.0387ZM150.621 42.9448V38.8052H145.997V42.9448H150.621ZM146.556 45.6423H156.7V49.3715H147.949V51.1243H157.259V52.2555H146.581V48.3522H155.357V46.7486H146.556V45.6423ZM155.345 36.8039H156.7V44.8591H155.345V36.8039ZM172.331 48.3771H170.951V42.3605H167.259V45.7044H160.161V37.8481H161.541V40.6326H165.892V37.8481H167.259V41.2169H170.951V36.8163H172.331V48.3771ZM165.892 44.5732V41.7141H161.541V44.5732H165.892ZM162.225 47.2459H163.617V50.9378H172.692V52.0815H162.225V47.2459ZM188.435 40.2597H175.643V39.116H181.374V37.0649H182.729V39.116H188.435V40.2597ZM174.935 49.4461H181.374V47.2521C180.446 47.2065 179.646 47.0594 178.975 46.8108C178.308 46.558 177.796 46.2182 177.44 45.7914C177.083 45.3605 176.907 44.855 176.911 44.2749C176.907 43.6575 177.11 43.1271 177.52 42.6837C177.935 42.2403 178.527 41.9026 179.298 41.6706C180.073 41.4385 180.989 41.3246 182.045 41.3287C183.094 41.3246 184.005 41.4385 184.78 41.6706C185.555 41.9026 186.15 42.2424 186.564 42.6899C186.982 43.1333 187.192 43.6616 187.192 44.2749C187.192 44.8508 187.011 45.3543 186.651 45.7852C186.295 46.212 185.781 46.5518 185.109 46.8046C184.442 47.0532 183.649 47.2023 182.729 47.2521V49.4461H189.243V50.5898H174.935V49.4461ZM178.304 44.2749C178.299 44.6644 178.446 45 178.745 45.2818C179.047 45.5594 179.478 45.7728 180.038 45.922C180.601 46.0711 181.27 46.1478 182.045 46.1519C182.816 46.1478 183.481 46.0711 184.04 45.922C184.604 45.7728 185.035 45.5594 185.333 45.2818C185.636 45 185.787 44.6644 185.787 44.2749C185.787 43.8895 185.636 43.558 185.333 43.2804C185.035 43.0028 184.604 42.7914 184.04 42.6464C183.477 42.4972 182.812 42.4227 182.045 42.4227C181.275 42.4227 180.607 42.4972 180.044 42.6464C179.48 42.7914 179.047 43.0028 178.745 43.2804C178.446 43.558 178.299 43.8895 178.304 44.2749ZM204.775 45.145H190.467V44.0635H204.775V45.145ZM192.194 46.4006H202.984V49.7196H193.599V51.2113H203.494V52.2182H192.219V48.7624H201.617V47.4323H192.194V46.4006ZM192.281 37.2762H202.935V40.5083H193.699V41.8757H203.208V42.8826H192.331V39.5635H201.555V38.2707H192.281V37.2762ZM223.469 45.1823H222.089V36.8039H223.469V45.1823ZM210.926 41.1547C210.926 40.4544 211.102 39.8308 211.454 39.2838C211.807 38.7369 212.294 38.3122 212.915 38.0097C213.541 37.7072 214.245 37.558 215.028 37.5622C215.811 37.558 216.514 37.7072 217.135 38.0097C217.757 38.3122 218.242 38.7369 218.59 39.2838C218.942 39.8308 219.118 40.4544 219.118 41.1547C219.118 41.855 218.942 42.4765 218.59 43.0193C218.242 43.5622 217.757 43.9848 217.135 44.2873C216.514 44.5898 215.811 44.739 215.028 44.7348C214.245 44.739 213.541 44.5898 212.915 44.2873C212.294 43.9848 211.807 43.5622 211.454 43.0193C211.102 42.4724 210.926 41.8508 210.926 41.1547ZM212.281 41.1547C212.277 41.6229 212.391 42.0435 212.623 42.4164C212.859 42.7852 213.186 43.0732 213.605 43.2804C214.023 43.4876 214.498 43.5912 215.028 43.5912C215.555 43.5912 216.025 43.4876 216.439 43.2804C216.858 43.0732 217.185 42.7852 217.421 42.4164C217.657 42.0435 217.776 41.6229 217.776 41.1547C217.776 40.6865 217.657 40.268 217.421 39.8992C217.185 39.5262 216.858 39.2383 216.439 39.0352C216.025 38.828 215.555 38.7265 215.028 38.7307C214.498 38.7265 214.023 38.828 213.605 39.0352C213.186 39.2383 212.859 39.5262 212.623 39.8992C212.391 40.268 212.277 40.6865 212.281 41.1547ZM213.35 45.9779H214.705V47.8798H222.102V45.9779H223.469V52.2182H213.35V45.9779ZM222.102 51.087V48.9862H214.705V51.087H222.102ZM233.531 42.1492H228.161V44.5732C229.707 44.5732 230.921 44.5483 231.803 44.4986C232.69 44.4448 233.573 44.337 234.451 44.1754L234.588 45.3191C233.664 45.4724 232.738 45.5739 231.809 45.6236C230.885 45.6692 229.582 45.692 227.9 45.692H226.794V41.0801H232.164V38.8798H226.756V37.761H233.531V42.1492ZM228.546 47.2583H239.075V52.4544H237.695V48.3895H228.546V47.2583ZM234.575 42.3729H237.695V40.2597H234.575V39.1409H237.695V36.8163H239.075V46.413H237.695V43.5041H234.575V42.3729ZM249.486 40.6326H241.642V39.5014H244.886V37.2762H246.266V39.5014H249.486V40.6326ZM242.213 45.232C242.209 44.5483 242.35 43.9392 242.636 43.4047C242.926 42.866 243.326 42.4454 243.836 42.143C244.349 41.8405 244.928 41.6892 245.57 41.6892C246.216 41.6892 246.794 41.8405 247.304 42.143C247.818 42.4454 248.22 42.866 248.51 43.4047C248.8 43.9392 248.947 44.5483 248.951 45.232C248.947 45.924 248.8 46.5414 248.51 47.0843C248.22 47.6271 247.818 48.0518 247.304 48.3584C246.794 48.6609 246.216 48.8122 245.57 48.8122C244.928 48.8122 244.349 48.6609 243.836 48.3584C243.326 48.0518 242.926 47.6271 242.636 47.0843C242.35 46.5414 242.209 45.924 242.213 45.232ZM243.432 45.232C243.432 45.692 243.523 46.1022 243.705 46.4627C243.887 46.8232 244.14 47.105 244.463 47.308C244.791 47.511 245.16 47.6105 245.57 47.6064C245.98 47.6105 246.349 47.511 246.676 47.308C247.003 47.105 247.258 46.8232 247.441 46.4627C247.627 46.0981 247.72 45.6878 247.72 45.232C247.72 44.7804 247.627 44.3743 247.441 44.0138C247.258 43.6533 247.003 43.3695 246.676 43.1623C246.349 42.9551 245.98 42.8494 245.57 42.8453C245.16 42.8494 244.791 42.9551 244.463 43.1623C244.14 43.3695 243.887 43.6533 243.705 44.0138C243.523 44.3743 243.432 44.7804 243.432 45.232ZM250.294 37.1768H251.599V43.3923H253.675V36.8039H254.992V52.4296H253.675V44.5359H251.599V51.6588H250.294V37.1768ZM265.129 39.0041C265.125 39.6754 265.386 40.3156 265.912 40.9247C266.439 41.5297 267.126 42.0414 267.976 42.4599C268.825 42.8743 269.712 43.1478 270.636 43.2804L270.114 44.3743C269.289 44.2334 268.496 43.9993 267.733 43.672C266.971 43.3405 266.294 42.9282 265.701 42.4351C265.108 41.942 264.659 41.3909 264.352 40.7818C264.046 41.3909 263.596 41.942 263.003 42.4351C262.411 42.9282 261.736 43.3405 260.977 43.672C260.219 43.9993 259.432 44.2334 258.615 44.3743L258.081 43.2804C258.997 43.1478 259.877 42.8743 260.722 42.4599C261.572 42.0414 262.26 41.5297 262.786 40.9247C263.316 40.3156 263.584 39.6754 263.588 39.0041V38.9047H258.578V37.7859H270.114V38.9047H265.129V39.0041ZM257.236 45.7044H271.481V46.8481H265.005V52.4171H263.65V46.8481H257.236V45.7044ZM277.429 41.2417C277.429 42.0787 277.559 42.9137 277.82 43.7465C278.086 44.5753 278.467 45.3336 278.964 46.0214C279.461 46.7051 280.048 47.2459 280.723 47.6436L279.928 48.7127C279.194 48.2693 278.558 47.6581 278.019 46.8791C277.485 46.096 277.075 45.2155 276.789 44.2376C276.499 45.2942 276.07 46.2431 275.502 47.0843C274.934 47.9254 274.267 48.5801 273.501 49.0483L272.618 48.0166C273.323 47.6022 273.938 47.0407 274.464 46.3322C274.99 45.6195 275.394 44.826 275.676 43.9517C275.958 43.0773 276.099 42.1948 276.099 41.3039V38.2707H277.429V41.2417ZM278.995 42.4102H281.643V37.1395H282.948V51.634H281.643V43.5787H278.995V42.4102ZM284.85 36.8039H286.18V52.4296H284.85V36.8039ZM302.657 50.4157H288.349V49.2597H291.892V45.0456C291.216 44.6892 290.69 44.2355 290.313 43.6844C289.94 43.1291 289.754 42.5055 289.754 41.8135C289.754 41.018 289.996 40.3177 290.481 39.7127C290.966 39.1036 291.641 38.6312 292.507 38.2956C293.373 37.9599 294.357 37.7901 295.459 37.7859C296.566 37.7901 297.552 37.9599 298.418 38.2956C299.288 38.6312 299.966 39.1036 300.45 39.7127C300.935 40.3177 301.178 41.018 301.178 41.8135C301.178 42.4972 300.995 43.1126 300.631 43.6595C300.27 44.2023 299.76 44.6519 299.102 45.0083V49.2597H302.657V50.4157ZM291.084 41.8135C291.084 42.3854 291.268 42.893 291.637 43.3363C292.01 43.7756 292.528 44.1174 293.191 44.3619C293.858 44.6022 294.614 44.7224 295.459 44.7224C296.305 44.7224 297.059 44.6022 297.722 44.3619C298.389 44.1174 298.909 43.7756 299.282 43.3363C299.659 42.893 299.847 42.3854 299.847 41.8135C299.847 41.2376 299.659 40.73 299.282 40.2907C298.909 39.8515 298.389 39.5117 297.722 39.2714C297.059 39.0311 296.305 38.913 295.459 38.9171C294.614 38.913 293.858 39.0311 293.191 39.2714C292.528 39.5117 292.01 39.8515 291.637 40.2907C291.268 40.73 291.084 41.2376 291.084 41.8135ZM297.709 49.2597V45.549C297.017 45.7272 296.267 45.8163 295.459 45.8163C294.68 45.8163 293.943 45.7293 293.247 45.5552V49.2597H297.709ZM305.559 51.0994C305.356 51.0994 305.165 51.0497 304.987 50.9503C304.813 50.8467 304.674 50.7079 304.571 50.5338C304.471 50.3598 304.423 50.1713 304.428 49.9682C304.423 49.7652 304.471 49.5767 304.571 49.4026C304.674 49.2286 304.813 49.0919 304.987 48.9924C305.165 48.8888 305.356 48.837 305.559 48.837C305.762 48.837 305.95 48.8888 306.124 48.9924C306.298 49.0919 306.435 49.2286 306.535 49.4026C306.638 49.5767 306.69 49.7652 306.69 49.9682C306.69 50.1713 306.638 50.3598 306.535 50.5338C306.435 50.7079 306.298 50.8467 306.124 50.9503C305.95 51.0497 305.762 51.0994 305.559 51.0994Z" fill="#111827"/>
<circle cx="147.5" cy="93" r="10" fill="#00C18A"/>
<circle cx="182.5" cy="93" r="10" fill="#00C18A"/>
<circle cx="217.5" cy="93" r="10" fill="#00C18A"/>
<circle cx="252.5" cy="93" r="10" fill="#E5E7EB"/>
<path d="M83.332 180.29C81.861 180.29 80.5523 180.038 79.4059 179.534C78.2594 179.03 77.3686 178.329 76.7332 177.431C76.0978 176.526 75.7836 175.504 75.7905 174.365C75.7836 173.474 75.9701 172.642 76.3499 171.868C76.7297 171.088 77.2477 170.445 77.9038 169.941C78.5668 169.43 79.2988 169.109 80.0999 168.978V168.874C79.4093 168.709 78.7981 168.398 78.2663 167.942C77.7346 167.486 77.3237 166.927 77.0336 166.264C76.7436 165.601 76.5985 164.89 76.5985 164.13C76.5985 163.059 76.8886 162.096 77.4687 161.24C78.0488 160.383 78.8499 159.713 79.872 159.23C80.901 158.74 82.0543 158.494 83.332 158.494C84.6027 158.494 85.7456 158.74 86.7608 159.23C87.7829 159.713 88.584 160.383 89.1641 161.24C89.7442 162.096 90.0378 163.059 90.0447 164.13C90.0378 164.89 89.8858 165.601 89.5889 166.264C89.2988 166.927 88.8879 167.486 88.3561 167.942C87.8313 168.398 87.227 168.709 86.5433 168.874V168.978C87.3375 169.109 88.0626 169.43 88.7187 169.941C89.3817 170.445 89.9031 171.088 90.2829 171.868C90.6697 172.642 90.8665 173.474 90.8734 174.365C90.8665 175.504 90.5419 176.526 89.8996 177.431C89.2574 178.329 88.363 179.03 87.2166 179.534C86.0771 180.038 84.7822 180.29 83.332 180.29ZM78.4217 174.22C78.4079 174.965 78.5978 175.622 78.9915 176.188C79.3851 176.747 79.9549 177.186 80.7007 177.503C81.4466 177.814 82.3237 177.97 83.332 177.97C84.3264 177.97 85.1931 177.814 85.9321 177.503C86.671 177.186 87.2408 176.747 87.6413 176.188C88.0419 175.622 88.2422 174.965 88.2422 174.22C88.2422 173.446 88.0281 172.752 87.5999 172.137C87.1786 171.523 86.5951 171.039 85.8492 170.687C85.1034 170.335 84.2643 170.159 83.332 170.159C82.3927 170.159 81.5467 170.335 80.794 170.687C80.0412 171.039 79.4542 171.526 79.0329 172.148C78.6117 172.762 78.4079 173.453 78.4217 174.22ZM79.1676 164.316C79.1676 165.028 79.3437 165.656 79.6959 166.202C80.0481 166.747 80.5384 167.172 81.1669 167.476C81.8023 167.773 82.5239 167.921 83.332 167.921C84.1262 167.921 84.8375 167.773 85.4659 167.476C86.0944 167.172 86.5847 166.747 86.9369 166.202C87.296 165.649 87.4756 165.021 87.4756 164.316C87.4756 163.619 87.2995 163.004 86.9473 162.472C86.602 161.934 86.1151 161.516 85.4867 161.219C84.8651 160.922 84.1469 160.773 83.332 160.773C82.5032 160.773 81.7712 160.922 81.1358 161.219C80.5074 161.516 80.0205 161.934 79.6752 162.472C79.3368 163.004 79.1676 163.619 79.1676 164.316Z" fill="#222222"/>
<path d="M199.771 158.494C201.132 158.494 202.395 158.805 203.563 159.427C204.73 160.048 205.686 161.108 206.432 162.607C207.185 164.099 207.561 166.077 207.561 168.543C207.561 171.029 207.237 173.153 206.587 174.914C205.938 176.668 205.009 178.004 203.801 178.923C202.592 179.834 201.159 180.29 199.502 180.29C198.279 180.29 197.178 180.055 196.197 179.586C195.217 179.116 194.415 178.456 193.794 177.607C193.179 176.751 192.782 175.76 192.603 174.634H195.213C195.462 175.635 195.952 176.44 196.684 177.048C197.423 177.648 198.362 177.949 199.502 177.949C200.648 177.949 201.639 177.628 202.475 176.985C203.317 176.343 203.963 175.414 204.412 174.199C204.861 172.977 205.089 171.512 205.096 169.807H204.806C204.191 170.698 203.411 171.392 202.464 171.889C201.525 172.379 200.496 172.624 199.377 172.624C198.121 172.624 196.96 172.324 195.897 171.723C194.84 171.115 193.998 170.276 193.369 169.206C192.748 168.135 192.437 166.934 192.437 165.601C192.437 164.296 192.737 163.101 193.338 162.017C193.946 160.932 194.806 160.076 195.918 159.448C197.036 158.812 198.321 158.494 199.771 158.494ZM195.006 165.58C195.006 166.45 195.21 167.248 195.617 167.973C196.031 168.691 196.601 169.261 197.326 169.682C198.052 170.097 198.866 170.304 199.771 170.304C200.669 170.304 201.491 170.083 202.237 169.641C202.989 169.192 203.583 168.602 204.018 167.869C204.46 167.137 204.681 166.36 204.681 165.539C204.681 164.724 204.471 163.954 204.049 163.229C203.628 162.503 203.048 161.92 202.309 161.478C201.577 161.036 200.759 160.815 199.854 160.815C198.949 160.815 198.124 161.029 197.378 161.457C196.639 161.885 196.056 162.465 195.627 163.198C195.206 163.923 194.999 164.717 195.006 165.58Z" fill="#222222"/>
<path d="M316.733 180.29C315.338 180.29 314.088 180.055 312.983 179.586C311.878 179.116 311.004 178.456 310.362 177.607C309.726 176.758 309.385 175.78 309.336 174.675H312.009C312.057 175.331 312.292 175.908 312.713 176.405C313.135 176.896 313.691 177.276 314.381 177.545C315.079 177.814 315.849 177.949 316.691 177.949C317.617 177.949 318.445 177.794 319.177 177.483C319.91 177.165 320.483 176.723 320.897 176.157C321.311 175.59 321.519 174.945 321.519 174.22C321.519 173.446 321.315 172.762 320.907 172.169C320.507 171.575 319.92 171.112 319.146 170.78C318.373 170.449 317.444 170.283 316.36 170.283H314.64V167.963H316.36C317.216 167.963 317.976 167.811 318.639 167.507C319.309 167.203 319.827 166.778 320.193 166.233C320.566 165.68 320.752 165.041 320.752 164.316C320.752 163.619 320.59 163.004 320.265 162.472C319.941 161.941 319.478 161.53 318.877 161.24C318.276 160.943 317.575 160.794 316.774 160.794C316.014 160.794 315.3 160.929 314.63 161.198C313.967 161.468 313.428 161.854 313.014 162.358C312.599 162.856 312.375 163.439 312.34 164.109H309.792C309.834 163.018 310.172 162.048 310.807 161.198C311.443 160.342 312.289 159.679 313.345 159.209C314.402 158.733 315.559 158.494 316.816 158.494C318.121 158.494 319.264 158.753 320.244 159.271C321.232 159.789 321.988 160.483 322.513 161.354C323.045 162.224 323.307 163.17 323.3 164.192C323.307 164.979 323.166 165.698 322.876 166.347C322.586 166.996 322.168 167.545 321.622 167.994C321.077 168.443 320.434 168.771 319.695 168.978V169.144C320.607 169.282 321.394 169.582 322.057 170.045C322.727 170.501 323.238 171.091 323.59 171.816C323.943 172.535 324.115 173.343 324.108 174.24C324.115 175.38 323.798 176.412 323.155 177.338C322.52 178.256 321.636 178.978 320.503 179.503C319.378 180.028 318.121 180.29 316.733 180.29Z" fill="#222222"/>
<path d="M76.4979 251.073L83.7285 243.449C84.6816 242.434 85.4067 241.619 85.9039 241.004C86.4081 240.383 86.7914 239.785 87.0538 239.212C87.3162 238.632 87.4509 238.028 87.4578 237.399C87.4509 236.681 87.261 236.049 86.888 235.503C86.522 234.958 86.0179 234.537 85.3756 234.24C84.7403 233.943 84.0255 233.794 83.2313 233.794C82.4025 233.794 81.674 233.96 81.0455 234.291C80.424 234.623 79.944 235.089 79.6056 235.69C79.2741 236.291 79.1084 236.985 79.1084 237.772H76.6014C76.5945 236.543 76.8811 235.455 77.4613 234.509C78.0483 233.556 78.8528 232.817 79.8749 232.292C80.897 231.76 82.0434 231.494 83.3142 231.494C84.5711 231.494 85.7002 231.757 86.7016 232.282C87.7099 232.8 88.4972 233.508 89.0635 234.405C89.6298 235.303 89.9164 236.301 89.9233 237.399C89.9164 238.207 89.7644 238.981 89.4675 239.72C89.1774 240.452 88.6836 241.267 87.9861 242.164C87.2955 243.062 86.3114 244.167 85.0338 245.479L80.1857 250.493V250.659H90.2962V253H76.5186L76.4979 251.073Z" fill="#222222"/>
<path d="M200.248 253.29C198.88 253.29 197.61 252.983 196.435 252.368C195.268 251.747 194.308 250.686 193.556 249.188C192.81 247.682 192.437 245.686 192.437 243.2C192.437 240.728 192.761 238.615 193.411 236.86C194.06 235.106 194.989 233.773 196.197 232.862C197.406 231.95 198.839 231.494 200.496 231.494C201.719 231.494 202.817 231.733 203.79 232.209C204.771 232.679 205.569 233.338 206.183 234.188C206.798 235.03 207.195 236.004 207.375 237.109H204.764C204.516 236.128 204.025 235.338 203.293 234.737C202.561 234.136 201.629 233.836 200.496 233.836C199.343 233.836 198.348 234.157 197.513 234.799C196.677 235.434 196.035 236.36 195.586 237.575C195.144 238.791 194.923 240.244 194.923 241.936H195.192C195.807 241.039 196.584 240.345 197.523 239.854C198.469 239.364 199.509 239.119 200.641 239.119C201.891 239.119 203.045 239.423 204.101 240.03C205.158 240.631 205.997 241.467 206.619 242.537C207.247 243.608 207.561 244.809 207.561 246.142C207.561 247.468 207.257 248.677 206.65 249.768C206.042 250.852 205.182 251.712 204.07 252.347C202.965 252.976 201.691 253.29 200.248 253.29ZM195.296 246.204C195.296 247.033 195.507 247.814 195.928 248.546C196.349 249.278 196.929 249.865 197.668 250.307C198.414 250.749 199.246 250.97 200.165 250.97C201.063 250.97 201.881 250.756 202.62 250.327C203.359 249.899 203.939 249.319 204.36 248.587C204.788 247.848 205.006 247.04 205.013 246.163C205.006 245.307 204.795 244.519 204.381 243.801C203.973 243.076 203.407 242.503 202.682 242.081C201.957 241.653 201.145 241.439 200.248 241.439C199.343 241.439 198.511 241.66 197.751 242.102C196.998 242.544 196.401 243.131 195.959 243.863C195.524 244.595 195.303 245.376 195.296 246.204Z" fill="#222222"/>
<path d="M319.579 253H316.927V234.54H316.803L311.644 237.959V235.307L316.927 231.785H319.579V253Z" fill="#222222"/>
<path d="M75.444 319.494L84.9951 304.785H88.2271V319.349H91.2106V321.67H88.2271V326H85.7202V321.67H75.444V319.494ZM85.7202 319.349V308.12H85.4716L78.2824 319.184V319.349H85.7202Z" fill="#222222"/>
<path d="M204.112 307.291V307.126H192.904V304.785H206.847V307.25L197.151 326H194.375L204.112 307.291Z" fill="#222222"/>
<path d="M316.626 326.29C315.362 326.29 314.216 326.048 313.187 325.565C312.158 325.081 311.336 324.415 310.721 323.566C310.114 322.709 309.782 321.746 309.727 320.675H312.296C312.358 321.297 312.586 321.86 312.98 322.364C313.38 322.861 313.898 323.255 314.533 323.545C315.176 323.828 315.873 323.97 316.626 323.97C317.531 323.97 318.342 323.766 319.06 323.358C319.785 322.951 320.352 322.392 320.759 321.68C321.167 320.969 321.37 320.171 321.37 319.287C321.37 318.383 321.156 317.568 320.728 316.843C320.307 316.11 319.72 315.537 318.967 315.123C318.221 314.702 317.379 314.488 316.44 314.481C314.547 314.46 313.228 315.095 312.482 316.387H309.934L311.426 304.785H322.924V307.126H313.622L312.835 313.341H313.062C313.539 312.968 314.116 312.671 314.792 312.45C315.476 312.229 316.184 312.119 316.916 312.119C318.249 312.119 319.447 312.426 320.511 313.041C321.581 313.648 322.42 314.494 323.028 315.579C323.636 316.656 323.94 317.872 323.94 319.225C323.94 320.572 323.625 321.784 322.997 322.861C322.368 323.932 321.498 324.771 320.386 325.378C319.274 325.986 318.021 326.29 316.626 326.29Z" fill="#222222"/>
<path d="M74.0578 396.43H72.7277V388.3H70.5895V395.634H69.2843V381.14H70.5895V387.119H72.7277V380.804H74.0578V396.43ZM60.4707 392.141C61.2083 391.731 61.8361 391.175 62.354 390.475C62.872 389.771 63.2636 388.959 63.5288 388.039C63.794 387.119 63.9265 386.128 63.9265 385.068V383.812H60.8437V382.669H68.1531V383.812H65.2567V385.068C65.2567 386.029 65.3872 386.936 65.6482 387.79C65.9093 388.64 66.2946 389.394 66.8043 390.052C67.314 390.707 67.9335 391.221 68.6627 391.594L67.8423 392.663C67.0633 392.236 66.4024 391.654 65.8596 390.916C65.3167 390.179 64.9044 389.323 64.6227 388.349C64.3533 389.452 63.9411 390.415 63.3858 391.24C62.8347 392.064 62.1531 392.717 61.3409 393.198L60.4707 392.141ZM78.0785 386.112H81.4846V382.296H82.765V392.514H76.7608V382.296H78.0785V386.112ZM81.4846 391.37V387.231H78.0785V391.37H81.4846ZM84.7415 381.14H86.0592V386.994H88.247V380.804H89.5771V396.43H88.247V388.151H86.0592V395.634H84.7415V381.14ZM96.0467 381.351C96.7304 381.351 97.352 381.469 97.9114 381.705C98.4749 381.941 98.939 382.275 99.3036 382.706H103.319V380.804H104.686V388.822H103.319V387.032H99.3471C98.9908 387.479 98.5267 387.827 97.9549 388.076C97.3831 388.325 96.747 388.449 96.0467 388.449C95.2677 388.449 94.5695 388.3 93.9521 388.001C93.3389 387.703 92.8582 387.285 92.5101 386.746C92.1621 386.203 91.9901 385.586 91.9942 384.894C91.9901 384.206 92.1621 383.593 92.5101 383.054C92.8582 382.515 93.3409 382.097 93.9583 381.798C94.5757 381.5 95.2719 381.351 96.0467 381.351ZM93.3119 384.894C93.3119 385.358 93.4279 385.774 93.66 386.143C93.8962 386.512 94.2215 386.802 94.6358 387.013C95.0502 387.22 95.5205 387.326 96.0467 387.33C96.5605 387.326 97.0226 387.22 97.4328 387.013C97.8471 386.802 98.1704 386.512 98.4024 386.143C98.6386 385.774 98.7567 385.358 98.7567 384.894C98.7567 384.434 98.6386 384.021 98.4024 383.657C98.1704 383.288 97.8471 383.002 97.4328 382.799C97.0226 382.592 96.5605 382.49 96.0467 382.494C95.5246 382.49 95.0543 382.592 94.6358 382.799C94.2215 383.002 93.8962 383.286 93.66 383.651C93.4279 384.015 93.3119 384.43 93.3119 384.894ZM94.555 389.63H104.686V393.359H95.9597V395.099H105.283V396.218H94.5923V392.315H103.319V390.724H94.555V389.63ZM99.919 383.812C100.031 384.169 100.087 384.529 100.087 384.894C100.087 385.254 100.035 385.602 99.9314 385.938H103.319V383.812H99.919Z" fill="#222222"/>
<path d="M199.993 399.29C198.433 399.29 197.096 398.865 195.984 398.016C194.879 397.16 194.033 395.916 193.446 394.287C192.866 392.657 192.576 390.692 192.576 388.392C192.576 386.113 192.87 384.159 193.457 382.529C194.044 380.892 194.893 379.646 196.005 378.789C197.117 377.926 198.446 377.494 199.993 377.494C201.54 377.494 202.87 377.926 203.982 378.789C205.094 379.646 205.943 380.892 206.53 382.529C207.117 384.159 207.41 386.113 207.41 388.392C207.41 390.692 207.117 392.657 206.53 394.287C205.95 395.916 205.104 397.16 203.992 398.016C202.887 398.865 201.554 399.29 199.993 399.29ZM195.145 388.392C195.145 390.209 195.335 391.759 195.715 393.044C196.095 394.321 196.647 395.291 197.373 395.954C198.098 396.617 198.971 396.949 199.993 396.949C201.015 396.949 201.889 396.617 202.614 395.954C203.339 395.291 203.892 394.321 204.272 393.044C204.652 391.759 204.841 390.209 204.841 388.392C204.841 386.576 204.648 385.026 204.261 383.741C203.881 382.45 203.329 381.469 202.604 380.799C201.879 380.129 201.009 379.794 199.993 379.794C198.978 379.794 198.108 380.129 197.383 380.799C196.658 381.469 196.102 382.45 195.715 383.741C195.335 385.026 195.145 386.576 195.145 388.392Z" fill="#222222"/>
<mask id="mask0_522_4134" style="mask-type:alpha" maskUnits="userSpaceOnUse" x="296" y="368" width="41" height="41">
<rect x="296.668" y="368.5" width="40" height="40" fill="#D9D9D9"/>
</mask>
<g mask="url(#mask0_522_4134)">
<path d="M312.308 398.5C311.71 398.5 311.146 398.364 310.617 398.093C310.088 397.822 309.65 397.442 309.301 396.955L304.452 390.064C304.121 389.588 303.955 389.066 303.955 388.5C303.955 387.934 304.121 387.413 304.452 386.936L309.301 380.109C309.65 379.622 310.083 379.232 310.601 378.939C311.119 378.646 311.688 378.5 312.308 378.5H327.308C328.053 378.5 328.689 378.762 329.213 379.287C329.738 379.811 330 380.447 330 381.192V395.808C330 396.553 329.738 397.189 329.213 397.713C328.689 398.238 328.053 398.5 327.308 398.5H312.308ZM312.308 396.833H327.308C327.564 396.833 327.799 396.727 328.013 396.513C328.227 396.299 328.333 396.064 328.333 395.808V381.192C328.333 380.936 328.227 380.701 328.013 380.487C327.799 380.273 327.564 380.167 327.308 380.167H312.308C311.987 380.167 311.683 380.247 311.394 380.407C311.106 380.567 310.876 380.765 310.705 381L305.782 387.891C305.654 388.062 305.59 388.265 305.59 388.5C305.59 388.735 305.654 388.938 305.782 389.109L310.705 396C310.876 396.235 311.106 396.433 311.394 396.593C311.683 396.753 311.987 396.833 312.308 396.833ZM319.423 389.68L323.167 393.423C323.323 393.579 323.514 393.662 323.74 393.673C323.967 393.684 324.169 393.6 324.346 393.423C324.524 393.246 324.612 393.049 324.612 392.833C324.612 392.618 324.524 392.421 324.346 392.244L320.603 388.5L324.346 384.756C324.502 384.6 324.585 384.409 324.596 384.182C324.607 383.956 324.524 383.754 324.346 383.577C324.169 383.4 323.972 383.311 323.756 383.311C323.54 383.311 323.344 383.4 323.167 383.577L319.423 387.32L315.68 383.577C315.524 383.421 315.332 383.338 315.106 383.327C314.879 383.316 314.677 383.4 314.5 383.577C314.323 383.754 314.234 383.951 314.234 384.167C314.234 384.383 314.323 384.579 314.5 384.756L318.244 388.5L314.5 392.244C314.344 392.4 314.261 392.591 314.25 392.817C314.24 393.044 314.323 393.246 314.5 393.423C314.677 393.6 314.874 393.689 315.09 393.689C315.305 393.689 315.502 393.6 315.68 393.423L319.423 389.68Z" fill="#797378"/>
</g>
<rect x="25" y="455" width="350" height="49" rx="5" fill="#E5E7EB"/>
<path d="M190.734 472.875C192.797 472.875 194.266 474.016 194.281 475.719C194.266 477.117 193.211 478.172 191.641 478.469V479.609C192.812 479.547 193.992 479.438 195.094 479.281L195.234 480.547C192.297 481.078 189.016 481.125 186.625 481.125L186.438 479.734C187.453 479.742 188.641 479.734 189.891 479.688V478.469C188.273 478.203 187.188 477.141 187.203 475.719C187.188 474.016 188.656 472.875 190.734 472.875ZM190.734 474.203C189.609 474.203 188.812 474.766 188.828 475.719C188.812 476.641 189.609 477.219 190.734 477.234C191.859 477.219 192.625 476.641 192.641 475.719C192.625 474.766 191.859 474.203 190.734 474.203ZM197.656 472.281V476.844H199.562V478.281H197.656V483.062H195.922V472.281H197.656ZM198.156 484.688V486.094H188.375V482.109H190.109V484.688H198.156ZM213.203 483.312V484.75H200.297V483.312H203.719V480.984H201.828V476.375H209.953V474.641H201.797V473.234H211.672V477.766H203.562V479.578H212V480.984H209.938V483.312H213.203ZM205.406 483.312H208.234V480.984H205.406V483.312Z" fill="#9CA3AF"/>
</svg>
