<svg width="400" height="69" viewBox="0 0 400 69" fill="none" xmlns="http://www.w3.org/2000/svg">
<rect width="400" height="69" fill="white"/>
<path d="M25 5C25 2.23858 27.2386 0 30 0H200V49H30C27.2386 49 25 46.7614 25 44V5Z" fill="#6B7280"/>
<path d="M107.45 20.105H104.533C104.544 20.5175 104.675 20.9061 104.925 21.2707C105.176 21.6354 105.542 21.9521 106.025 22.221C106.507 22.4899 107.087 22.6906 107.765 22.8232L107.075 24.1657C106.283 24.0037 105.601 23.7422 105.03 23.3812C104.459 23.0166 104.014 22.5783 103.693 22.0663C103.377 22.6298 102.927 23.1105 102.345 23.5083C101.763 23.9024 101.064 24.1878 100.246 24.3646L99.5221 23.011C100.211 22.8748 100.798 22.663 101.285 22.3757C101.771 22.0847 102.139 21.744 102.39 21.3536C102.644 20.9632 102.776 20.547 102.787 20.105H99.8702V18.7569H102.798V17.3039H104.533V18.7569H107.45V20.105ZM98.9807 25.0994C100.8 25.0994 102.448 25.0755 103.925 25.0276C105.402 24.9761 106.809 24.8656 108.146 24.6961L108.268 25.9558C107.126 26.1473 105.885 26.2873 104.544 26.3757V30.9558H102.804V26.4696C101.846 26.5064 100.644 26.5249 99.1961 26.5249L98.9807 25.0994ZM109.058 17.2818H110.782V31.3812H109.058V17.2818ZM125.709 29.6409H112.798V28.2376H118.323V24.9613H120.046V28.2376H125.709V29.6409ZM113.168 23.8729C114.133 23.7182 115 23.4033 115.77 22.9282C116.544 22.453 117.149 21.8821 117.588 21.2155C118.026 20.5488 118.247 19.8637 118.251 19.1602V18.1271H120.096V19.1602C120.096 19.8637 120.315 20.5488 120.754 21.2155C121.192 21.8821 121.801 22.453 122.582 22.9282C123.363 23.4033 124.238 23.7182 125.207 23.8729L124.455 25.3204C123.667 25.1694 122.928 24.9227 122.24 24.5801C121.555 24.2339 120.951 23.8122 120.428 23.3149C119.905 22.814 119.487 22.2578 119.173 21.6464C118.864 22.2578 118.45 22.814 117.93 23.3149C117.411 23.8158 116.809 24.2394 116.124 24.5856C115.439 24.9282 114.704 25.1731 113.919 25.3204L113.168 23.8729Z" fill="white"/>
<path d="M200 0H370C372.761 0 375 2.23858 375 5V44C375 46.7614 372.761 49 370 49H200V0Z" fill="#00C18A"/>
<path d="M285.03 22.6243H287.207V24.0497H285.03V31.4144H283.29V17.2707H285.03V22.6243ZM274.55 18.6022H281.157V20.011H276.279V26.5083C277.454 26.5009 278.496 26.4641 279.406 26.3978C280.316 26.3278 281.235 26.2099 282.163 26.0442L282.362 27.5083C281.364 27.6814 280.378 27.7993 279.406 27.8619C278.437 27.9208 277.297 27.9503 275.986 27.9503H275.71H274.55V18.6022ZM294.223 17.547C295.258 17.547 296.157 17.6575 296.919 17.8785C297.685 18.0958 298.275 18.4107 298.687 18.8232C299.1 19.2357 299.306 19.7238 299.306 20.2873C299.306 20.8471 299.1 21.3315 298.687 21.7403C298.275 22.1455 297.685 22.4549 296.919 22.6685C296.157 22.8821 295.258 22.9889 294.223 22.9889C293.192 22.9889 292.293 22.8821 291.527 22.6685C290.761 22.4549 290.17 22.1455 289.754 21.7403C289.341 21.3315 289.135 20.8471 289.135 20.2873C289.135 19.7238 289.341 19.2357 289.754 18.8232C290.17 18.4107 290.761 18.0958 291.527 17.8785C292.297 17.6575 293.196 17.547 294.223 17.547ZM287.798 23.9392H300.665V25.337H287.798V23.9392ZM289.317 26.4586H299.107V31.2155H289.317V26.4586ZM290.936 20.2873C290.932 20.5709 291.059 20.814 291.317 21.0166C291.579 21.2155 291.956 21.3683 292.45 21.4751C292.943 21.582 293.534 21.6354 294.223 21.6354C294.908 21.6354 295.498 21.582 295.991 21.4751C296.485 21.3683 296.862 21.2155 297.124 21.0166C297.389 20.814 297.521 20.5709 297.521 20.2873C297.521 19.9926 297.389 19.744 297.124 19.5414C296.862 19.3352 296.485 19.1786 295.991 19.0718C295.498 18.965 294.908 18.9116 294.223 18.9116C293.531 18.9116 292.938 18.965 292.444 19.0718C291.954 19.1786 291.579 19.3352 291.317 19.5414C291.059 19.744 290.932 19.9926 290.936 20.2873ZM297.417 29.8122V27.8398H291.03V29.8122H297.417Z" fill="white"/>
</svg>
