<svg width="400" height="419" viewBox="0 0 400 419" fill="none" xmlns="http://www.w3.org/2000/svg">
<rect width="400" height="419" fill="white"/>
<path d="M25 10C25 4.47716 29.4772 0 35 0H365C370.523 0 375 4.47715 375 10V399H25V10Z" fill="white"/>
<path d="M30 0.5H94.5V45.5H30C27.5147 45.5 25.5 43.4853 25.5 41V5C25.5 2.51472 27.5147 0.5 30 0.5Z" stroke="#D1D5DB"/>
<path d="M58.0781 16.3906V26.5781H56.8438V21.25H53.9844V20.2344H56.8438V16.3906H58.0781ZM46.625 23.7969C48.6719 23.0781 50.1562 21.2422 50.1562 19.25V18.5312H47.0156V17.5156H54.5V18.5312H51.3906V19.25C51.3906 21.0469 52.7812 22.7891 54.8125 23.4844L54.1719 24.4688C52.6094 23.8984 51.3984 22.7344 50.7969 21.2969C50.1953 22.9062 48.9141 24.1797 47.2656 24.7969L46.625 23.7969ZM49.1562 29.9688V25.6562H50.3906V28.9375H58.4688V29.9688H49.1562ZM63.7188 17.25C65.5547 17.2578 66.8984 18.6016 66.9062 20.5312C66.8984 22.4688 65.5547 23.7812 63.7188 23.7812C61.8594 23.7812 60.5391 22.4688 60.5469 20.5312C60.5391 18.6016 61.8594 17.2578 63.7188 17.25ZM61.6562 20.5312C61.6406 21.8203 62.5234 22.7578 63.7188 22.75C64.8984 22.7578 65.7734 21.8203 65.7812 20.5312C65.7734 19.2422 64.8984 18.3125 63.7188 18.3125C62.5234 18.3125 61.6406 19.2422 61.6562 20.5312ZM62.8281 26.4219V25.4375H72.1875V30.2656H70.9844V26.4219H62.8281ZM68.0156 24.5625V16.6562H69.1719V19.9688H71.0156V16.3906H72.1875V24.6562H71.0156V20.9844H69.1719V24.5625H68.0156Z" fill="#6B7280"/>
<mask id="path-4-inside-1_562_1551" fill="white">
<path d="M95 0H165V46H95V0Z"/>
</mask>
<path d="M165 0H166V-1H165V0ZM165 46V47H166V46H165ZM95 1H165V-1H95V1ZM164 0V46H166V0H164ZM165 45H95V47H165V45Z" fill="#D1D5DB" mask="url(#path-4-inside-1_562_1551)"/>
<path d="M109.375 28.2344V25.2031H106.359V23.9375H109.375V20.9219H110.641V23.9375H113.672V25.2031H110.641V28.2344H109.375ZM120.094 17.6875V29H118.672V19.1562H118.609L115.859 20.9844V19.5625L118.672 17.6875H120.094ZM126.812 29.1562C124.305 29.1562 122.852 27.0469 122.859 23.3438C122.852 19.6719 124.32 17.5312 126.812 17.5312C129.297 17.5312 130.766 19.6719 130.766 23.3438C130.766 27.0469 129.32 29.1562 126.812 29.1562ZM124.219 23.3438C124.227 26.2734 125.172 27.9062 126.812 27.9062C128.445 27.9062 129.398 26.2734 129.391 23.3438C129.398 20.4141 128.438 18.7578 126.812 18.75C125.188 18.7578 124.227 20.4141 124.219 23.3438ZM136.344 29.1562C133.836 29.1562 132.383 27.0469 132.391 23.3438C132.383 19.6719 133.852 17.5312 136.344 17.5312C138.828 17.5312 140.297 19.6719 140.297 23.3438C140.297 27.0469 138.852 29.1562 136.344 29.1562ZM133.75 23.3438C133.758 26.2734 134.703 27.9062 136.344 27.9062C137.977 27.9062 138.93 26.2734 138.922 23.3438C138.93 20.4141 137.969 18.7578 136.344 18.75C134.719 18.7578 133.758 20.4141 133.75 23.3438ZM148.688 17.6406V24.0312H142.266V17.6406H148.688ZM143.469 23.0469H147.5V18.6406H143.469V23.0469ZM143.844 29.9688V25.5938H145.047V28.9375H153.172V29.9688H143.844ZM151.312 26.5625V16.375H152.531V20.6094H154.625V21.6406H152.531V26.5625H151.312Z" fill="#6B7280"/>
<mask id="path-7-inside-2_562_1551" fill="white">
<path d="M165 0H235V46H165V0Z"/>
</mask>
<path d="M235 0H236V-1H235V0ZM235 46V47H236V46H235ZM165 1H235V-1H165V1ZM234 0V46H236V0H234ZM235 45H165V47H235V45Z" fill="#D1D5DB" mask="url(#path-7-inside-2_562_1551)"/>
<path d="M183.875 28.2344V25.2031H180.859V23.9375H183.875V20.9219H185.141V23.9375H188.172V25.2031H185.141V28.2344H183.875ZM194.594 17.6875V29H193.172V19.1562H193.109L190.359 20.9844V19.5625L193.172 17.6875H194.594ZM201.312 29.1562C198.805 29.1562 197.352 27.0469 197.359 23.3438C197.352 19.6719 198.82 17.5312 201.312 17.5312C203.797 17.5312 205.266 19.6719 205.266 23.3438C205.266 27.0469 203.82 29.1562 201.312 29.1562ZM198.719 23.3438C198.727 26.2734 199.672 27.9062 201.312 27.9062C202.945 27.9062 203.898 26.2734 203.891 23.3438C203.898 20.4141 202.938 18.7578 201.312 18.75C199.688 18.7578 198.727 20.4141 198.719 23.3438ZM213.656 17.6406V24.0312H207.234V17.6406H213.656ZM208.438 23.0469H212.469V18.6406H208.438V23.0469ZM208.812 29.9688V25.5938H210.016V28.9375H218.141V29.9688H208.812ZM216.281 26.5625V16.375H217.5V20.6094H219.594V21.6406H217.5V26.5625H216.281Z" fill="#6B7280"/>
<mask id="path-10-inside-3_562_1551" fill="white">
<path d="M235 0H305V46H235V0Z"/>
</mask>
<path d="M305 0H306V-1H305V0ZM305 46V47H306V46H305ZM235 1H305V-1H235V1ZM304 0V46H306V0H304ZM305 45H235V47H305V45Z" fill="#D1D5DB" mask="url(#path-10-inside-3_562_1551)"/>
<path d="M257.375 28.2344V25.2031H254.359V23.9375H257.375V20.9219H258.641V23.9375H261.672V25.2031H258.641V28.2344H257.375ZM267.781 29.1562C265.742 29.1562 264.195 27.8984 264.109 26.1562H265.469C265.57 27.1641 266.555 27.9141 267.781 27.9219C269.25 27.9141 270.312 26.8438 270.312 25.4219C270.312 23.9531 269.211 22.8672 267.688 22.8594C266.734 22.8438 265.992 23.1406 265.578 23.875H264.219L265.016 17.6875H271.141V18.9375H266.188L265.766 22.25H265.875C266.383 21.8594 267.141 21.5938 267.938 21.5938C270.094 21.5938 271.68 23.1875 271.688 25.3906C271.68 27.5781 270.039 29.1562 267.781 29.1562ZM280.156 17.6406V24.0312H273.734V17.6406H280.156ZM274.938 23.0469H278.969V18.6406H274.938V23.0469ZM275.312 29.9688V25.5938H276.516V28.9375H284.641V29.9688H275.312ZM282.781 26.5625V16.375H284V20.6094H286.094V21.6406H284V26.5625H282.781Z" fill="#6B7280"/>
<mask id="path-13-inside-4_562_1551" fill="white">
<path d="M305 0H370C372.761 0 375 2.23858 375 5V41C375 43.7614 372.761 46 370 46H305V0Z"/>
</mask>
<path d="M305 -1H370C373.314 -1 376 1.68629 376 5H374C374 2.79086 372.209 1 370 1H305V-1ZM376 41C376 44.3137 373.314 47 370 47H305V45H370C372.209 45 374 43.2091 374 41H376ZM305 46V0V46ZM370 -1C373.314 -1 376 1.68629 376 5V41C376 44.3137 373.314 47 370 47V45C372.209 45 374 43.2091 374 41V5C374 2.79086 372.209 1 370 1V-1Z" fill="#D1D5DB" mask="url(#path-13-inside-4_562_1551)"/>
<path d="M328.875 28.2344V25.2031H325.859V23.9375H328.875V20.9219H330.141V23.9375H333.172V25.2031H330.141V28.2344H328.875ZM339.594 17.6875V29H338.172V19.1562H338.109L335.359 20.9844V19.5625L338.172 17.6875H339.594ZM349.125 17.6406V24.0312H342.703V17.6406H349.125ZM343.906 23.0469H347.938V18.6406H343.906V23.0469ZM344.281 29.9688V25.5938H345.484V28.9375H353.609V29.9688H344.281ZM351.75 26.5625V16.375H352.969V20.6094H355.062V21.6406H352.969V26.5625H351.75Z" fill="#6B7280"/>
<path d="M86.2484 77.7891V99H83.5824V80.543H83.4652L78.3089 83.9707V81.3047L83.5824 77.7891H86.2484Z" fill="#222222"/>
<path d="M193.188 99L193.159 97.0664L200.395 89.4492C202.9 86.7832 204.101 85.3477 204.116 83.3848C204.101 81.2021 202.285 79.7959 199.897 79.7812C197.363 79.7959 195.781 81.3926 195.766 83.7656H193.276C193.246 80.0156 196.147 77.4961 199.985 77.4961C203.837 77.4961 206.562 80.0889 206.576 83.3848C206.562 85.7578 205.463 87.6035 201.713 91.4707L196.85 96.4805V96.6562H206.957V99H193.188Z" fill="#222222"/>
<path d="M316.726 99.293C312.507 99.293 309.475 97.0371 309.343 93.668H312.009C312.156 95.6895 314.162 96.9492 316.697 96.9492C319.494 96.9492 321.516 95.4404 321.531 93.2285C321.516 90.9141 319.67 89.2881 316.374 89.2734H314.646V86.959H316.374C318.952 86.959 320.754 85.5088 320.74 83.3262C320.754 81.2021 319.201 79.7959 316.785 79.7812C314.514 79.7959 312.449 81.041 312.331 83.1211H309.783C309.914 79.752 313.049 77.4961 316.814 77.4961C320.857 77.4961 323.318 80.1475 323.288 83.1797C323.318 85.5967 321.911 87.3545 319.685 87.9844V88.1309C322.453 88.5557 324.123 90.5332 324.109 93.2285C324.123 96.7148 320.959 99.293 316.726 99.293Z" fill="#222222"/>
<path d="M75.4378 167.664V165.496L84.9886 150.789H88.2406V165.35H91.1995V167.664H88.2406V172H85.721V167.664H75.4378ZM78.2796 165.35H85.721V154.129H85.4574L78.2796 165.174V165.35Z" fill="#222222"/>
<path d="M199.955 172.293C196.132 172.293 193.232 169.935 193.071 166.668H195.619C195.81 168.558 197.656 169.964 199.955 169.979C202.709 169.964 204.701 167.957 204.701 165.291C204.701 162.537 202.636 160.501 199.78 160.486C197.993 160.457 196.601 161.014 195.825 162.391H193.276L194.77 150.789H206.254V153.133H196.967L196.176 159.344H196.381C197.333 158.611 198.754 158.113 200.248 158.113C204.291 158.113 207.265 161.102 207.28 165.232C207.265 169.334 204.189 172.293 199.955 172.293Z" fill="#222222"/>
<path d="M316.843 172.293C313.166 172.249 309.109 170.066 309.109 162.215C309.109 154.7 312.185 150.496 317.165 150.496C320.901 150.496 323.508 152.796 324.05 156.121H321.443C320.959 154.246 319.524 152.84 317.165 152.84C313.679 152.84 311.584 155.813 311.599 160.926H311.863C313.078 159.153 315.027 158.113 317.312 158.113C321.076 158.113 324.226 161.043 324.226 165.145C324.226 169.144 321.311 172.337 316.843 172.293ZM311.951 165.203C311.965 167.693 314.001 169.964 316.843 169.979C319.582 169.964 321.662 167.811 321.677 165.174C321.662 162.566 319.67 160.442 316.902 160.428C314.118 160.442 311.98 162.698 311.951 165.203Z" fill="#222222"/>
<path d="M77.723 245L87.4495 226.279V226.133H76.2288V223.789H90.1742V226.25L80.4769 245H77.723Z" fill="#222222"/>
<path d="M199.985 245.293C195.517 245.293 192.441 242.817 192.455 239.375C192.441 236.636 194.345 234.365 196.762 233.984V233.867C194.653 233.384 193.261 231.436 193.276 229.121C193.261 225.884 196.103 223.496 199.985 223.496C203.852 223.496 206.694 225.884 206.723 229.121C206.694 231.436 205.287 233.384 203.207 233.867V233.984C205.61 234.365 207.514 236.636 207.543 239.375C207.514 242.817 204.409 245.293 199.985 245.293ZM195.092 239.229C195.048 241.455 196.938 242.964 199.985 242.979C203.017 242.964 204.907 241.455 204.907 239.229C204.907 236.885 202.841 235.156 199.985 235.156C197.143 235.156 195.048 236.885 195.092 239.229ZM195.825 229.326C195.839 231.465 197.553 232.915 199.985 232.93C202.402 232.915 204.145 231.465 204.145 229.326C204.145 227.202 202.46 225.767 199.985 225.781C197.465 225.767 195.839 227.202 195.825 229.326Z" fill="#222222"/>
<path d="M316.521 223.496C320.168 223.54 324.226 225.737 324.226 233.545C324.226 241.089 321.135 245.293 316.169 245.293C312.434 245.293 309.812 243.008 309.285 239.639H311.892C312.361 241.543 313.811 242.949 316.169 242.949C319.626 242.949 321.736 239.961 321.765 234.805H321.472C320.256 236.562 318.308 237.617 316.052 237.617C312.258 237.617 309.109 234.702 309.109 230.615C309.109 226.66 312.009 223.452 316.521 223.496ZM311.687 230.586C311.672 233.208 313.664 235.303 316.433 235.303C319.201 235.303 321.355 233.018 321.355 230.527C321.355 228.096 319.319 225.811 316.521 225.811C313.752 225.811 311.658 227.964 311.687 230.586Z" fill="#222222"/>
<path d="M74.3918 318.29C72.831 318.29 71.4947 317.865 70.3828 317.016C69.2778 316.16 68.4319 314.916 67.8448 313.287C67.2647 311.657 66.9747 309.692 66.9747 307.392C66.9747 305.113 67.2682 303.159 67.8552 301.529C68.4422 299.892 69.2917 298.646 70.4035 297.789C71.5154 296.926 72.8448 296.494 74.3918 296.494C75.9388 296.494 77.2682 296.926 78.3801 297.789C79.4919 298.646 80.3414 299.892 80.9284 301.529C81.5154 303.159 81.8089 305.113 81.8089 307.392C81.8089 309.692 81.5154 311.657 80.9284 313.287C80.3483 314.916 79.5023 316.16 78.3904 317.016C77.2854 317.865 75.9526 318.29 74.3918 318.29ZM69.5437 307.392C69.5437 309.209 69.7336 310.759 70.1135 312.044C70.4933 313.321 71.0458 314.291 71.7709 314.954C72.4961 315.617 73.3697 315.949 74.3918 315.949C75.4139 315.949 76.2875 315.617 77.0127 314.954C77.7378 314.291 78.2903 313.321 78.6701 312.044C79.0499 310.759 79.2399 309.209 79.2399 307.392C79.2399 305.576 79.0465 304.026 78.6598 302.741C78.2799 301.45 77.7274 300.469 77.0023 299.799C76.2772 299.129 75.407 298.794 74.3918 298.794C73.3766 298.794 72.5064 299.129 71.7813 299.799C71.0562 300.469 70.5002 301.45 70.1135 302.741C69.7336 304.026 69.5437 305.576 69.5437 307.392ZM92.2629 318.29C90.7021 318.29 89.3658 317.865 88.2539 317.016C87.1489 316.16 86.3029 314.916 85.7159 313.287C85.1358 311.657 84.8458 309.692 84.8458 307.392C84.8458 305.113 85.1393 303.159 85.7263 301.529C86.3133 299.892 87.1628 298.646 88.2746 297.789C89.3865 296.926 90.7159 296.494 92.2629 296.494C93.8099 296.494 95.1393 296.926 96.2512 297.789C97.363 298.646 98.2125 299.892 98.7995 301.529C99.3865 303.159 99.68 305.113 99.68 307.392C99.68 309.692 99.3865 311.657 98.7995 313.287C98.2194 314.916 97.3734 316.16 96.2615 317.016C95.1565 317.865 93.8237 318.29 92.2629 318.29ZM87.4148 307.392C87.4148 309.209 87.6047 310.759 87.9846 312.044C88.3644 313.321 88.9169 314.291 89.642 314.954C90.3672 315.617 91.2408 315.949 92.2629 315.949C93.285 315.949 94.1586 315.617 94.8837 314.954C95.6089 314.291 96.1614 313.321 96.5412 312.044C96.921 310.759 97.111 309.209 97.111 307.392C97.111 305.576 96.9176 304.026 96.5308 302.741C96.151 301.45 95.5985 300.469 94.8734 299.799C94.1482 299.129 93.2781 298.794 92.2629 298.794C91.2477 298.794 90.3775 299.129 89.6524 299.799C88.9273 300.469 88.3713 301.45 87.9846 302.741C87.6047 304.026 87.4148 305.576 87.4148 307.392Z" fill="#222222"/>
<path d="M199.993 318.29C198.433 318.29 197.096 317.865 195.984 317.016C194.879 316.16 194.033 314.916 193.446 313.287C192.866 311.657 192.576 309.692 192.576 307.392C192.576 305.113 192.87 303.159 193.457 301.529C194.044 299.892 194.893 298.646 196.005 297.789C197.117 296.926 198.446 296.494 199.993 296.494C201.54 296.494 202.87 296.926 203.982 297.789C205.094 298.646 205.943 299.892 206.53 301.529C207.117 303.159 207.41 305.113 207.41 307.392C207.41 309.692 207.117 311.657 206.53 313.287C205.95 314.916 205.104 316.16 203.992 317.016C202.887 317.865 201.554 318.29 199.993 318.29ZM195.145 307.392C195.145 309.209 195.335 310.759 195.715 312.044C196.095 313.321 196.647 314.291 197.373 314.954C198.098 315.617 198.971 315.949 199.993 315.949C201.015 315.949 201.889 315.617 202.614 314.954C203.339 314.291 203.892 313.321 204.272 312.044C204.652 310.759 204.841 309.209 204.841 307.392C204.841 305.576 204.648 304.026 204.261 302.741C203.881 301.45 203.329 300.469 202.604 299.799C201.879 299.129 201.009 298.794 199.993 298.794C198.978 298.794 198.108 299.129 197.383 299.799C196.658 300.469 196.102 301.45 195.715 302.741C195.335 304.026 195.145 305.576 195.145 307.392Z" fill="#222222"/>
<mask id="mask0_562_1551" style="mask-type:alpha" maskUnits="userSpaceOnUse" x="296" y="287" width="41" height="41">
<rect x="296.668" y="287.5" width="40" height="40" fill="#D9D9D9"/>
</mask>
<g mask="url(#mask0_562_1551)">
<path d="M312.308 317.5C311.71 317.5 311.146 317.364 310.617 317.093C310.088 316.822 309.65 316.442 309.301 315.955L304.452 309.064C304.121 308.588 303.955 308.066 303.955 307.5C303.955 306.934 304.121 306.413 304.452 305.936L309.301 299.109C309.65 298.622 310.083 298.232 310.601 297.939C311.119 297.646 311.688 297.5 312.308 297.5H327.308C328.053 297.5 328.689 297.762 329.213 298.287C329.738 298.811 330 299.447 330 300.192V314.808C330 315.553 329.738 316.189 329.213 316.713C328.689 317.238 328.053 317.5 327.308 317.5H312.308ZM312.308 315.833H327.308C327.564 315.833 327.799 315.727 328.013 315.513C328.227 315.299 328.333 315.064 328.333 314.808V300.192C328.333 299.936 328.227 299.701 328.013 299.487C327.799 299.273 327.564 299.167 327.308 299.167H312.308C311.987 299.167 311.683 299.247 311.394 299.407C311.106 299.567 310.876 299.765 310.705 300L305.782 306.891C305.654 307.062 305.59 307.265 305.59 307.5C305.59 307.735 305.654 307.938 305.782 308.109L310.705 315C310.876 315.235 311.106 315.433 311.394 315.593C311.683 315.753 311.987 315.833 312.308 315.833ZM319.423 308.68L323.167 312.423C323.323 312.579 323.514 312.662 323.74 312.673C323.967 312.684 324.169 312.6 324.346 312.423C324.524 312.246 324.612 312.049 324.612 311.833C324.612 311.618 324.524 311.421 324.346 311.244L320.603 307.5L324.346 303.756C324.502 303.6 324.585 303.409 324.596 303.183C324.607 302.956 324.524 302.754 324.346 302.577C324.169 302.4 323.972 302.311 323.756 302.311C323.54 302.311 323.344 302.4 323.167 302.577L319.423 306.32L315.68 302.577C315.524 302.421 315.332 302.338 315.106 302.327C314.879 302.316 314.677 302.4 314.5 302.577C314.323 302.754 314.234 302.951 314.234 303.167C314.234 303.383 314.323 303.579 314.5 303.756L318.244 307.5L314.5 311.244C314.344 311.4 314.261 311.591 314.25 311.817C314.24 312.044 314.323 312.246 314.5 312.423C314.677 312.6 314.874 312.689 315.09 312.689C315.305 312.689 315.502 312.6 315.68 312.423L319.423 308.68Z" fill="#797378"/>
</g>
<rect x="25" y="350" width="350" height="49" rx="5" fill="#00C18A"/>
<path d="M197.656 367.281V371.391H199.562V372.828H197.656V376.828H195.922V367.281H197.656ZM186.344 375.141C187.406 375.141 188.633 375.133 189.906 375.102V374.234C188.336 374.039 187.336 373.281 187.344 372.172C187.336 370.867 188.703 370.07 190.75 370.078C192.805 370.07 194.156 370.867 194.156 372.172C194.156 373.273 193.188 374.023 191.641 374.227V375.039C192.844 374.977 194.055 374.883 195.188 374.734L195.328 375.938C192.32 376.469 189.016 376.5 186.531 376.5L186.344 375.141ZM186.703 369.672V368.391H189.906V367.156H191.641V368.391H194.812V369.672H186.703ZM188.125 378.797V377.438H197.656V381.391H195.922V378.797H188.125ZM189.016 372.172C189 372.758 189.656 373.125 190.75 373.109C191.844 373.125 192.5 372.758 192.5 372.172C192.5 371.555 191.844 371.242 190.75 371.25C189.656 371.242 189 371.555 189.016 372.172ZM212.062 367.281V377.484H210.312V367.281H212.062ZM200.547 371.734C200.547 369.68 202.211 368.211 204.359 368.203C206.508 368.211 208.164 369.68 208.156 371.734C208.164 373.82 206.508 375.281 204.359 375.281C202.211 375.281 200.547 373.82 200.547 371.734ZM202.25 371.734C202.242 372.984 203.148 373.766 204.359 373.766C205.539 373.766 206.453 372.984 206.453 371.734C206.453 370.516 205.539 369.719 204.359 369.719C203.148 369.719 202.242 370.516 202.25 371.734ZM202.719 381.109V376.453H204.469V379.703H212.453V381.109H202.719Z" fill="white"/>
</svg>
