<svg width="400" height="524" viewBox="0 0 400 524" fill="none" xmlns="http://www.w3.org/2000/svg">
<path d="M0 10C0 4.47716 4.47715 0 10 0H390C395.523 0 400 4.47715 400 10V524H0V10Z" fill="white"/>
<path d="M106.01 35.7969V51.4238H104.691V35.7969H106.01ZM92.6152 47.0469C96.0166 45.0342 97.7217 42.2129 97.9941 38.9434H93.3184V37.8008H99.3652C99.3652 38.6006 99.2949 39.3916 99.1543 40.1562H101.527V36.2188H102.846V50.6328H101.527V45.2188H98.627V44.0762H101.527V41.2988H98.8818C98.126 43.9443 96.4121 46.2822 93.459 48.0488L92.6152 47.0469ZM113.674 38.6094C113.656 40.6045 115.273 42.3535 117.559 43.0566L116.908 44.1465C115.089 43.5664 113.674 42.3623 112.988 40.7979C112.303 42.4941 110.835 43.7949 108.98 44.4102L108.26 43.3203C110.615 42.582 112.268 40.7539 112.285 38.6094V38.416H108.734V37.2559H117.189V38.416H113.674V38.6094ZM107.996 46.9941C109.262 46.9941 110.738 46.9941 112.285 46.9502V43.7598H113.674V46.8975C115.106 46.8359 116.548 46.7217 117.893 46.5371L117.98 47.5566C114.614 48.1455 110.923 48.1455 108.207 48.1543L107.996 46.9941ZM118.895 51.4238V35.7969H120.266V42.3008H122.814V43.4785H120.266V51.4238H118.895ZM141.148 35.7969V51.459H139.76V35.7969H141.148ZM129.178 47.6797V37.1328H130.549V41.2637H135.207V37.1328H136.561V47.6797H129.178ZM130.549 46.5195H135.207V42.3711H130.549V46.5195ZM151.977 36.6758V43.0391H144.646V36.6758H151.977ZM146 41.9492H150.623V37.8008H146V41.9492ZM146.562 45.7461V44.6387H156.705V48.3652H147.951V50.123H157.268V51.248H146.58V47.3457H155.352V45.7461H146.562ZM155.352 43.8652V35.7969H156.705V43.8652H155.352ZM172.332 35.8145V47.3809H170.943V41.3691H167.252V44.709H160.168V36.8516H161.539V39.6289H165.898V36.8516H167.252V40.209H170.943V35.8145H172.332ZM161.539 43.5664H165.898V40.7188H161.539V43.5664ZM162.225 51.0898V46.2383H163.613V49.9297H172.684V51.0898H162.225ZM188.434 38.1172V39.2598H175.637V38.1172H181.367V36.0605H182.721V38.1172H188.434ZM174.934 49.5957V48.4531H181.367V46.2559C178.581 46.1064 176.902 45.0254 176.92 43.2676C176.902 41.4131 178.862 40.3145 182.053 40.332C185.199 40.3145 187.194 41.4131 187.186 43.2676C187.194 45.0254 185.48 46.1064 182.721 46.2559V48.4531H189.242V49.5957H174.934ZM178.309 43.2676C178.291 44.4541 179.724 45.1396 182.053 45.1484C184.355 45.1396 185.788 44.4541 185.779 43.2676C185.788 42.1074 184.355 41.4219 182.053 41.4219C179.724 41.4219 178.291 42.1074 178.309 43.2676ZM204.781 43.0566V44.1465H190.473V43.0566H204.781ZM192.195 46.4316V45.3945H202.988V48.7168H193.602V50.2109H203.498V51.2129H192.213V47.7676H201.617V46.4316H192.195ZM192.283 37.2734V36.2715H202.936V39.5059H193.707V40.877H203.217V41.8789H192.336V38.5566H201.547V37.2734H192.283ZM223.467 35.7969V44.1816H222.096V35.7969H223.467ZM210.934 40.1562C210.925 38.0205 212.656 36.5527 215.029 36.5703C217.402 36.5527 219.116 38.0205 219.125 40.1562C219.116 42.2832 217.402 43.751 215.029 43.7422C212.656 43.751 210.925 42.2832 210.934 40.1562ZM212.287 40.1562C212.27 41.5801 213.421 42.5908 215.029 42.5996C216.62 42.5908 217.771 41.5801 217.771 40.1562C217.771 38.7236 216.62 37.7217 215.029 37.7305C213.421 37.7217 212.27 38.7236 212.287 40.1562ZM213.342 51.2129V44.9727H214.713V46.8711H222.096V44.9727H223.467V51.2129H213.342ZM214.713 50.0879H222.096V47.9785H214.713V50.0879ZM233.539 36.7637V41.1406H228.16V43.5664C231.096 43.5752 232.616 43.5137 234.453 43.1797L234.594 44.3223C232.651 44.6387 231.061 44.6914 227.896 44.6914H226.789V40.0859H232.168V37.8711H226.754V36.7637H233.539ZM228.547 47.3809V46.2559H239.076V51.459H237.688V47.3809H228.547ZM234.576 42.5117V41.3691H237.688V39.2598H234.576V38.1348H237.688V35.8145H239.076V45.4121H237.688V42.5117H234.576ZM249.482 38.5039V39.6289H241.643V38.5039H244.895V36.2715H246.266V38.5039H249.482ZM242.205 44.2344C242.205 42.1602 243.62 40.6924 245.562 40.6836C247.531 40.6924 248.938 42.1602 248.955 44.2344C248.938 46.335 247.531 47.8115 245.562 47.8203C243.62 47.8115 242.205 46.335 242.205 44.2344ZM243.436 44.2344C243.436 45.623 244.323 46.6162 245.562 46.6074C246.811 46.6162 247.725 45.623 247.725 44.2344C247.725 42.8633 246.811 41.8613 245.562 41.8438C244.323 41.8613 243.436 42.8633 243.436 44.2344ZM250.291 50.6504V36.1836H251.592V42.3887H253.666V35.7969H254.984V51.4238H253.666V43.5312H251.592V50.6504H250.291ZM265.127 38.0117C265.118 40.1035 267.904 41.8789 270.629 42.2832L270.119 43.373C267.685 42.96 265.303 41.6592 264.354 39.7783C263.404 41.6592 261.022 42.96 258.623 43.373L258.078 42.2832C260.794 41.8789 263.571 40.1035 263.58 38.0117V37.9062H258.57V36.7812H270.119V37.9062H265.127V38.0117ZM257.234 45.8516V44.709H271.473V45.8516H265.004V51.4238H263.65V45.8516H257.234ZM277.432 40.2441C277.432 42.7314 278.645 45.4121 280.719 46.6426L279.928 47.7148C278.416 46.8008 277.335 45.1309 276.79 43.2236C276.219 45.3066 275.059 47.0996 273.494 48.0488L272.615 47.0117C274.777 45.7461 276.096 42.9775 276.096 40.2969V37.2734H277.432V40.2441ZM278.996 42.582V41.4043H281.65V36.1309H282.951V50.6328H281.65V42.582H278.996ZM284.85 51.4238V35.7969H286.186V51.4238H284.85ZM302.656 48.2598V49.4199H288.348V48.2598H291.898V44.0498C290.562 43.3555 289.754 42.2305 289.754 40.8066C289.754 38.3896 292.127 36.7988 295.467 36.7812C298.807 36.7988 301.18 38.3896 301.18 40.8066C301.18 42.2041 300.397 43.3115 299.105 44.0059V48.2598H302.656ZM291.09 40.8066C291.081 42.5557 292.9 43.7246 295.467 43.7246C298.007 43.7246 299.844 42.5557 299.844 40.8066C299.844 39.0576 298.007 37.9062 295.467 37.9238C292.9 37.9062 291.081 39.0576 291.09 40.8066ZM293.252 48.2598H297.717V44.542C297.04 44.7178 296.284 44.8145 295.467 44.8145C294.667 44.8145 293.92 44.7266 293.252 44.5508V48.2598ZM305.557 50.1055C304.941 50.0967 304.414 49.5869 304.432 48.9629C304.414 48.3477 304.941 47.8379 305.557 47.8379C306.181 47.8379 306.69 48.3477 306.682 48.9629C306.69 49.5869 306.181 50.0967 305.557 50.1055Z" fill="#111827"/>
<circle cx="147.5" cy="93" r="10" fill="#E5E7EB"/>
<circle cx="182.5" cy="93" r="10" fill="#E5E7EB"/>
<circle cx="217.5" cy="93" r="10" fill="#E5E7EB"/>
<circle cx="252.5" cy="93" r="10" fill="#E5E7EB"/>
<path d="M83.3187 180.293C78.8509 180.293 75.7747 177.817 75.7894 174.375C75.7747 171.636 77.679 169.365 80.096 168.984V168.867C77.9867 168.384 76.5951 166.436 76.6097 164.121C76.5951 160.884 79.4368 158.496 83.3187 158.496C87.1859 158.496 90.0277 160.884 90.057 164.121C90.0277 166.436 88.6214 168.384 86.5413 168.867V168.984C88.9437 169.365 90.848 171.636 90.8773 174.375C90.848 177.817 87.7425 180.293 83.3187 180.293ZM78.4261 174.229C78.3822 176.455 80.2718 177.964 83.3187 177.979C86.3509 177.964 88.2406 176.455 88.2406 174.229C88.2406 171.885 86.1751 170.156 83.3187 170.156C80.4769 170.156 78.3822 171.885 78.4261 174.229ZM79.1585 164.326C79.1732 166.465 80.887 167.915 83.3187 167.93C85.7357 167.915 87.4788 166.465 87.4788 164.326C87.4788 162.202 85.7943 160.767 83.3187 160.781C80.7992 160.767 79.1732 162.202 79.1585 164.326Z" fill="#222222"/>
<path d="M199.853 158.496C203.5 158.54 207.558 160.737 207.558 168.545C207.558 176.089 204.467 180.293 199.501 180.293C195.766 180.293 193.144 178.008 192.617 174.639H195.224C195.693 176.543 197.143 177.949 199.501 177.949C202.958 177.949 205.068 174.961 205.097 169.805H204.804C203.588 171.562 201.64 172.617 199.384 172.617C195.59 172.617 192.441 169.702 192.441 165.615C192.441 161.66 195.341 158.452 199.853 158.496ZM195.019 165.586C195.004 168.208 196.996 170.303 199.765 170.303C202.534 170.303 204.687 168.018 204.687 165.527C204.687 163.096 202.651 160.811 199.853 160.811C197.084 160.811 194.99 162.964 195.019 165.586Z" fill="#222222"/>
<path d="M316.726 180.293C312.507 180.293 309.475 178.037 309.343 174.668H312.009C312.156 176.689 314.162 177.949 316.697 177.949C319.494 177.949 321.516 176.44 321.531 174.229C321.516 171.914 319.67 170.288 316.374 170.273H314.646V167.959H316.374C318.952 167.959 320.754 166.509 320.74 164.326C320.754 162.202 319.201 160.796 316.785 160.781C314.514 160.796 312.449 162.041 312.331 164.121H309.783C309.914 160.752 313.049 158.496 316.814 158.496C320.857 158.496 323.318 161.147 323.288 164.18C323.318 166.597 321.911 168.354 319.685 168.984V169.131C322.453 169.556 324.123 171.533 324.109 174.229C324.123 177.715 320.959 180.293 316.726 180.293Z" fill="#222222"/>
<path d="M76.5218 253L76.4925 251.066L83.7288 243.449C86.2337 240.783 87.4349 239.348 87.4495 237.385C87.4349 235.202 85.6185 233.796 83.2308 233.781C80.6966 233.796 79.1146 235.393 79.0999 237.766H76.6097C76.5804 234.016 79.4808 231.496 83.3187 231.496C87.1712 231.496 89.8958 234.089 89.9105 237.385C89.8958 239.758 88.7972 241.604 85.0472 245.471L80.1839 250.48V250.656H90.2913V253H76.5218Z" fill="#222222"/>
<path d="M200.175 253.293C196.498 253.249 192.441 251.066 192.441 243.215C192.441 235.7 195.517 231.496 200.497 231.496C204.233 231.496 206.84 233.796 207.382 237.121H204.775C204.291 235.246 202.856 233.84 200.497 233.84C197.011 233.84 194.916 236.813 194.931 241.926H195.195C196.41 240.153 198.359 239.113 200.644 239.113C204.409 239.113 207.558 242.043 207.558 246.145C207.558 250.144 204.643 253.337 200.175 253.293ZM195.283 246.203C195.297 248.693 197.333 250.964 200.175 250.979C202.914 250.964 204.994 248.811 205.009 246.174C204.994 243.566 203.002 241.442 200.234 241.428C197.451 241.442 195.312 243.698 195.283 246.203Z" fill="#222222"/>
<path d="M319.582 231.789V253H316.916V234.543H316.799L311.643 237.971V235.305L316.916 231.789H319.582Z" fill="#222222"/>
<path d="M75.4378 321.664V319.496L84.9886 304.789H88.2406V319.35H91.1995V321.664H88.2406V326H85.721V321.664H75.4378ZM78.2796 319.35H85.721V308.129H85.4574L78.2796 319.174V319.35Z" fill="#222222"/>
<path d="M194.389 326L204.116 307.279V307.133H192.895V304.789H206.84V307.25L197.143 326H194.389Z" fill="#222222"/>
<path d="M316.623 326.293C312.8 326.293 309.9 323.935 309.739 320.668H312.287C312.478 322.558 314.324 323.964 316.623 323.979C319.377 323.964 321.369 321.957 321.369 319.291C321.369 316.537 319.304 314.501 316.448 314.486C314.66 314.457 313.269 315.014 312.493 316.391H309.944L311.438 304.789H322.922V307.133H313.635L312.844 313.344H313.049C314.001 312.611 315.422 312.113 316.916 312.113C320.959 312.113 323.933 315.102 323.948 319.232C323.933 323.334 320.857 326.293 316.623 326.293Z" fill="#222222"/>
<path d="M74.0609 380.797V396.424H72.7249V388.303H70.598V395.633H69.2796V381.131H70.598V387.125H72.7249V380.797H74.0609ZM60.473 392.135C62.723 390.896 63.9271 388.241 63.9183 385.068V383.82H60.8421V382.66H68.1546V383.82H65.2542V385.068C65.2542 387.925 66.4408 390.447 68.6644 391.59L67.8382 392.662C66.265 391.801 65.1751 390.263 64.6214 388.355C64.0853 390.526 62.9779 392.231 61.3343 393.189L60.473 392.135ZM78.0863 382.291V386.105H81.4788V382.291H82.762V392.521H76.7679V382.291H78.0863ZM78.0863 391.379H81.4788V387.23H78.0863V391.379ZM84.7484 395.633V381.131H86.0667V387.002H88.2464V380.797H89.5824V396.424H88.2464V388.145H86.0667V395.633H84.7484ZM96.0511 381.359C97.431 381.351 98.5911 381.86 99.3118 382.713H103.311V380.797H104.682V388.83H103.311V387.037H99.347C98.6351 387.925 97.4574 388.452 96.0511 388.443C93.6956 388.452 91.9818 387.011 91.9906 384.893C91.9818 382.792 93.6956 381.351 96.0511 381.359ZM93.3089 384.893C93.3089 386.308 94.4515 387.318 96.0511 387.336C97.598 387.318 98.7581 386.308 98.7581 384.893C98.7581 383.486 97.598 382.484 96.0511 382.502C94.4515 382.484 93.3089 383.486 93.3089 384.893ZM94.557 390.729V389.621H104.682V393.365H95.9632V395.105H105.28V396.213H94.5921V392.311H103.311V390.729H94.557ZM99.9271 383.82C100.033 384.154 100.094 384.515 100.094 384.893C100.094 385.262 100.041 385.604 99.9359 385.93H103.311V383.82H99.9271Z" fill="#222222"/>
<path d="M199.999 399.293C195.297 399.293 192.573 395.338 192.587 388.395C192.573 381.51 195.326 377.496 199.999 377.496C204.658 377.496 207.411 381.51 207.411 388.395C207.411 395.338 204.701 399.293 199.999 399.293ZM195.136 388.395C195.151 393.888 196.923 396.949 199.999 396.949C203.061 396.949 204.848 393.888 204.833 388.395C204.848 382.901 203.046 379.796 199.999 379.781C196.952 379.796 195.151 382.901 195.136 388.395Z" fill="#222222"/>
<mask id="mask0_567_96" style="mask-type:alpha" maskUnits="userSpaceOnUse" x="296" y="368" width="41" height="41">
<rect x="296.668" y="368.5" width="40" height="40" fill="#D9D9D9"/>
</mask>
<g mask="url(#mask0_567_96)">
<path d="M312.308 398.5C311.71 398.5 311.146 398.364 310.617 398.093C310.088 397.822 309.65 397.442 309.301 396.955L304.452 390.064C304.121 389.588 303.955 389.066 303.955 388.5C303.955 387.934 304.121 387.413 304.452 386.936L309.301 380.109C309.65 379.622 310.083 379.232 310.601 378.939C311.119 378.646 311.688 378.5 312.308 378.5H327.308C328.053 378.5 328.689 378.762 329.213 379.287C329.738 379.811 330 380.447 330 381.192V395.808C330 396.553 329.738 397.189 329.213 397.713C328.689 398.238 328.053 398.5 327.308 398.5H312.308ZM312.308 396.833H327.308C327.564 396.833 327.799 396.727 328.013 396.513C328.227 396.299 328.333 396.064 328.333 395.808V381.192C328.333 380.936 328.227 380.701 328.013 380.487C327.799 380.273 327.564 380.167 327.308 380.167H312.308C311.987 380.167 311.683 380.247 311.394 380.407C311.106 380.567 310.876 380.765 310.705 381L305.782 387.891C305.654 388.062 305.59 388.265 305.59 388.5C305.59 388.735 305.654 388.938 305.782 389.109L310.705 396C310.876 396.235 311.106 396.433 311.394 396.593C311.683 396.753 311.987 396.833 312.308 396.833ZM319.423 389.68L323.167 393.423C323.323 393.579 323.514 393.662 323.74 393.673C323.967 393.684 324.169 393.6 324.346 393.423C324.524 393.246 324.612 393.049 324.612 392.833C324.612 392.618 324.524 392.421 324.346 392.244L320.603 388.5L324.346 384.756C324.502 384.6 324.585 384.409 324.596 384.183C324.607 383.956 324.524 383.754 324.346 383.577C324.169 383.4 323.972 383.311 323.756 383.311C323.54 383.311 323.344 383.4 323.167 383.577L319.423 387.32L315.68 383.577C315.524 383.421 315.332 383.338 315.106 383.327C314.879 383.316 314.677 383.4 314.5 383.577C314.323 383.754 314.234 383.951 314.234 384.167C314.234 384.383 314.323 384.579 314.5 384.756L318.244 388.5L314.5 392.244C314.344 392.4 314.261 392.591 314.25 392.817C314.24 393.044 314.323 393.246 314.5 393.423C314.677 393.6 314.874 393.689 315.09 393.689C315.305 393.689 315.502 393.6 315.68 393.423L319.423 389.68Z" fill="#797378"/>
</g>
<rect x="25" y="455" width="350" height="49" rx="5" fill="#E5E7EB"/>
<path d="M190.735 472.878C191.416 472.878 192.024 472.998 192.558 473.238C193.096 473.473 193.516 473.807 193.818 474.238C194.12 474.669 194.273 475.162 194.276 475.718C194.273 476.182 194.16 476.606 193.939 476.989C193.722 477.368 193.414 477.687 193.017 477.945C192.619 478.199 192.158 478.374 191.635 478.47V479.613C192.95 479.532 194.103 479.42 195.094 479.276L195.227 480.547C193.956 480.772 192.619 480.924 191.215 481.006C189.816 481.087 188.376 481.127 186.895 481.127H186.624L186.442 479.735H187.072C188.066 479.735 189.006 479.72 189.89 479.691V478.481C189.352 478.389 188.88 478.215 188.475 477.961C188.07 477.703 187.755 477.383 187.53 477C187.309 476.613 187.201 476.186 187.204 475.718C187.201 475.162 187.348 474.669 187.646 474.238C187.948 473.807 188.366 473.473 188.901 473.238C189.438 472.998 190.05 472.878 190.735 472.878ZM188.37 482.116H190.116V484.691H198.16V486.099H188.37V482.116ZM188.823 475.718C188.82 476.02 188.897 476.285 189.055 476.514C189.217 476.742 189.444 476.919 189.735 477.044C190.026 477.166 190.359 477.228 190.735 477.232C191.11 477.228 191.442 477.166 191.729 477.044C192.017 476.919 192.239 476.744 192.398 476.519C192.556 476.291 192.637 476.024 192.641 475.718C192.637 475.405 192.556 475.134 192.398 474.906C192.239 474.678 192.017 474.503 191.729 474.381C191.442 474.256 191.11 474.193 190.735 474.193C190.359 474.197 190.026 474.26 189.735 474.381C189.444 474.503 189.217 474.68 189.055 474.912C188.897 475.14 188.82 475.409 188.823 475.718ZM195.923 472.282H197.663V476.834H199.569V478.287H197.663V483.066H195.923V472.282ZM213.209 484.751H200.298V483.315H203.712V480.989H201.828V476.376H209.961V474.635H201.806V473.232H211.679V477.768H203.563V479.575H212.005V480.989H209.939V483.315H213.209V484.751ZM208.231 483.315V480.989H205.403V483.315H208.231Z" fill="#9CA3AF"/>
</svg>
