<svg width="400" height="419" viewBox="0 0 400 419" fill="none" xmlns="http://www.w3.org/2000/svg">
<rect width="400" height="419" fill="white"/>
<path d="M25 10C25 4.47716 29.4772 0 35 0H365C370.523 0 375 4.47715 375 10V399H25V10Z" fill="white"/>
<path d="M30 0.5H112V45.5H30C27.5147 45.5 25.5 43.4853 25.5 41V5C25.5 2.51472 27.5147 0.5 30 0.5Z" stroke="#D1D5DB"/>
<path d="M44.5781 23.7031V26.2656C45.9219 26.1953 47.2812 26.0859 48.5625 25.8906L48.6562 26.7969C45.4766 27.375 42.0625 27.3984 39.5625 27.3906L39.3906 26.375C40.5547 26.3672 41.9297 26.3594 43.375 26.3125V23.7031H44.5781ZM39.8125 23.2188C41.8672 22.6094 43.3125 21.0859 43.3438 19.2188H40.1562V18.2031H43.375V16.4844H44.5781V18.2031H47.8438V19.2188H44.5781C44.6172 21.0078 46.1016 22.4766 48.1562 23.0625L47.5781 24.0312C45.9141 23.5312 44.6016 22.4609 43.9766 21.0547C43.375 22.5391 42.0781 23.6484 40.4062 24.1562L39.8125 23.2188ZM49.4844 30.2969V16.375H50.7031V30.2969H49.4844ZM64.1875 17.2188V18.2969C64.1875 19.4688 64.1875 20.875 63.8203 22.7656H65.8594V23.7969H53.1406V22.7656H62.6016C62.9766 20.8438 62.9766 19.4766 62.9688 18.2969V18.2188H54.75V17.2188H64.1875ZM54.8281 29.9531V25.3594H56.0469V28.9219H64.6094V29.9531H54.8281ZM82.4375 16.375V30.2969H81.2031V16.375H82.4375ZM71.5 22.2969C71.5078 19.3438 72.9766 17.4609 75.0469 17.4531C77.1094 17.4609 78.6016 19.3438 78.5938 22.2969C78.6016 25.2578 77.1094 27.1328 75.0469 27.125C72.9766 27.1328 71.5078 25.2578 71.5 22.2969ZM72.6875 22.2969C72.6875 24.5547 73.6562 26.0391 75.0469 26.0312C76.4453 26.0391 77.4062 24.5547 77.4062 22.2969C77.4062 20.0391 76.4453 18.5547 75.0469 18.5469C73.6562 18.5547 72.6875 20.0391 72.6875 22.2969ZM88.875 20.6562C88.8828 22.8906 90.0156 25.1797 91.9062 26.1875L91.2031 27.1094C89.8203 26.3516 88.8203 24.9141 88.3125 23.2422C87.8203 25.0234 86.8281 26.5859 85.4375 27.4219L84.7031 26.4844C86.5938 25.3906 87.7109 22.9531 87.7188 20.6562V19.9688H85.0781V18.9531H87.7188V16.8906H88.8906V18.9531H91.4844V19.9688H88.875V20.6562ZM90.5312 22.9062V21.8594H92.7188V16.7188H93.875V29.5469H92.7188V22.9062H90.5312ZM95.5156 30.2656V16.375H96.6875V30.2656H95.5156Z" fill="#6B7280"/>
<mask id="path-4-inside-1_562_1601" fill="white">
<path d="M112.5 0H200V46H112.5V0Z"/>
</mask>
<path d="M200 0H201V-1H200V0ZM200 46V47H201V46H200ZM112.5 1H200V-1H112.5V1ZM199 0V46H201V0H199ZM200 45H112.5V47H200V45Z" fill="#D1D5DB" mask="url(#path-4-inside-1_562_1601)"/>
<path d="M131.516 20.6406C131.5 22.8672 133.109 25.3203 135.125 26.2812L134.422 27.25C132.859 26.4844 131.539 24.8438 130.914 22.9609C130.273 25 128.883 26.7969 127.328 27.5938L126.578 26.625C128.578 25.6484 130.297 23.0078 130.312 20.6406V18.8281H127.078V17.8125H134.641V18.8281H131.516V20.6406ZM136.344 30.2656V16.375H137.562V22H139.891V23.0469H137.562V30.2656H136.344ZM147.656 18.3438C147.648 20.2031 150.125 21.7812 152.547 22.1406L152.094 23.1094C149.93 22.7422 147.812 21.5859 146.969 19.9141C146.125 21.5859 144.008 22.7422 141.875 23.1094L141.391 22.1406C143.805 21.7812 146.273 20.2031 146.281 18.3438V18.25H141.828V17.25H152.094V18.25H147.656V18.3438ZM140.641 25.3125V24.2969H153.297V25.3125H147.547V30.2656H146.344V25.3125H140.641ZM169.938 16.375V30.2969H168.703V16.375H169.938ZM159 22.2969C159.008 19.3438 160.477 17.4609 162.547 17.4531C164.609 17.4609 166.102 19.3438 166.094 22.2969C166.102 25.2578 164.609 27.1328 162.547 27.125C160.477 27.1328 159.008 25.2578 159 22.2969ZM160.188 22.2969C160.188 24.5547 161.156 26.0391 162.547 26.0312C163.945 26.0391 164.906 24.5547 164.906 22.2969C164.906 20.0391 163.945 18.5547 162.547 18.5469C161.156 18.5547 160.188 20.0391 160.188 22.2969ZM176.375 20.6562C176.383 22.8906 177.516 25.1797 179.406 26.1875L178.703 27.1094C177.32 26.3516 176.32 24.9141 175.812 23.2422C175.32 25.0234 174.328 26.5859 172.938 27.4219L172.203 26.4844C174.094 25.3906 175.211 22.9531 175.219 20.6562V19.9688H172.578V18.9531H175.219V16.8906H176.391V18.9531H178.984V19.9688H176.375V20.6562ZM178.031 22.9062V21.8594H180.219V16.7188H181.375V29.5469H180.219V22.9062H178.031ZM183.016 30.2656V16.375H184.188V30.2656H183.016Z" fill="#6B7280"/>
<mask id="path-7-inside-2_562_1601" fill="white">
<path d="M200 0H287.5V46H200V0Z"/>
</mask>
<path d="M287.5 0H288.5V-1H287.5V0ZM287.5 46V47H288.5V46H287.5ZM200 1H287.5V-1H200V1ZM286.5 0V46H288.5V0H286.5ZM287.5 45H200V47H287.5V45Z" fill="#D1D5DB" mask="url(#path-7-inside-2_562_1601)"/>
<path d="M218.828 16.3906V26.6562H217.594V22.9062H214C213.359 23.7266 212.328 24.2188 211.141 24.2188C209.062 24.2188 207.523 22.7812 207.531 20.75C207.523 18.7109 209.062 17.2734 211.141 17.2656C212.32 17.2734 213.336 17.7578 213.984 18.5625H217.594V16.3906H218.828ZM208.703 20.75C208.703 22.1406 209.719 23.1328 211.141 23.125C212.508 23.1328 213.547 22.1406 213.547 20.75C213.547 19.3672 212.508 18.3672 211.141 18.3594C209.719 18.3672 208.703 19.3672 208.703 20.75ZM209.906 29.9688V25.5781H211.141V28.9375H219.219V29.9688H209.906ZM214.539 19.5781C214.664 19.9375 214.734 20.3281 214.734 20.75C214.734 21.1562 214.664 21.5391 214.547 21.8906H217.594V19.5781H214.539ZM228.031 17.2188V21.0469H222.969V23.0625C225.438 23.0547 227.227 22.9688 229.391 22.6094L229.516 23.625C227.289 23.9922 225.43 24.0859 222.844 24.0781H221.766V20.0781H226.828V18.2188H221.734V17.2188H228.031ZM222.906 26.5625V25.5625H232V30.2656H230.781V26.5625H222.906ZM230.781 24.8281V16.3906H232V19.9531H234.109V20.9844H232V24.8281H230.781ZM246.484 16.375V30.2969H245.25V22.9844H242.203V21.9688H245.25V16.375H246.484ZM235 26.625C237.039 25.6719 238.562 23.2969 238.562 20.9062V19.7969H235.375V18.7969H238.562V16.6406H239.781V18.7969H242.922V19.7969H239.766V20.9062C239.766 23.1953 241.336 25.4531 243.391 26.375L242.688 27.3281C241.102 26.6094 239.797 25.0859 239.18 23.2578C238.578 25.1953 237.289 26.8125 235.703 27.5781L235 26.625ZM259.734 21.2344V23.2812H265.469V24.2812H252.812V23.2812H258.531V21.2344H259.734ZM253.578 20.9844C256.031 20.6484 258.516 19.1016 258.516 17.25V16.5938H259.75V17.25C259.75 19.1016 262.25 20.6484 264.703 20.9844L264.203 21.9688C262.102 21.6016 260.008 20.4844 259.141 18.8828C258.266 20.5 256.18 21.6016 254.047 21.9688L253.578 20.9844ZM254.344 27.8438C254.336 26.3047 256.125 25.4453 259.141 25.4375C262.125 25.4453 263.906 26.3047 263.922 27.8438C263.906 29.3906 262.125 30.2344 259.141 30.2344C256.125 30.2344 254.336 29.3906 254.344 27.8438ZM255.594 27.8438C255.578 28.7578 256.891 29.2891 259.141 29.2812C261.367 29.2891 262.68 28.7578 262.688 27.8438C262.68 26.9219 261.367 26.4062 259.141 26.4062C256.891 26.4062 255.578 26.9219 255.594 27.8438ZM277.688 17.125V18.1562C277.688 19.2344 277.688 20.5 277.32 22.2344H279.359V23.25H266.641V22.2344H276.086C276.477 20.4844 276.477 19.2344 276.469 18.1562V18.1406H268.25V17.125H277.688ZM268.203 30.0781V25.1719H277.75V30.0781H268.203ZM269.422 29.0781H276.531V26.1406H269.422V29.0781Z" fill="#6B7280"/>
<mask id="path-10-inside-3_562_1601" fill="white">
<path d="M287.5 0H370C372.761 0 375 2.23858 375 5V41C375 43.7614 372.761 46 370 46H287.5V0Z"/>
</mask>
<path d="M287.5 -1H370C373.314 -1 376 1.68629 376 5H374C374 2.79086 372.209 1 370 1H287.5V-1ZM376 41C376 44.3137 373.314 47 370 47H287.5V45H370C372.209 45 374 43.2091 374 41H376ZM287.5 46V0V46ZM370 -1C373.314 -1 376 1.68629 376 5V41C376 44.3137 373.314 47 370 47V45C372.209 45 374 43.2091 374 41V5C374 2.79086 372.209 1 370 1V-1Z" fill="#D1D5DB" mask="url(#path-10-inside-3_562_1601)"/>
<path d="M320.672 16.375V30.2656H319.469V23.0781H317.469V29.5469H316.312V16.6875H317.469V22.0312H319.469V16.375H320.672ZM309.516 26.6719V18.0781H310.734V25.5781C312.109 25.5703 313.594 25.4688 315.281 25.125L315.438 26.2188C313.5 26.5703 311.906 26.6719 310.375 26.6719H309.516ZM338.547 16.375V30.2656H337.375V16.375H338.547ZM326.641 26.375C329.664 24.5859 331.18 22.0781 331.422 19.1719H327.266V18.1562H332.641C332.641 18.8672 332.578 19.5703 332.453 20.25H334.562V16.75H335.734V29.5625H334.562V24.75H331.984V23.7344H334.562V21.2656H332.211C331.539 23.6172 330.016 25.6953 327.391 27.2656L326.641 26.375ZM345.359 18.875C345.344 20.6484 346.781 22.2031 348.812 22.8281L348.234 23.7969C346.617 23.2812 345.359 22.2109 344.75 20.8203C344.141 22.3281 342.836 23.4844 341.188 24.0312L340.547 23.0625C342.641 22.4062 344.109 20.7812 344.125 18.875V18.7031H340.969V17.6719H348.484V18.7031H345.359V18.875ZM340.312 26.3281C341.438 26.3281 342.75 26.3281 344.125 26.2891V23.4531H345.359V26.2422C346.633 26.1875 347.914 26.0859 349.109 25.9219L349.188 26.8281C346.195 27.3516 342.914 27.3516 340.5 27.3594L340.312 26.3281ZM350 30.2656V16.375H351.219V22.1562H353.484V23.2031H351.219V30.2656H350Z" fill="#6B7280"/>
<path d="M86.2484 77.7891V99H83.5824V80.543H83.4652L78.3089 83.9707V81.3047L83.5824 77.7891H86.2484Z" fill="#222222"/>
<path d="M193.188 99L193.159 97.0664L200.395 89.4492C202.9 86.7832 204.101 85.3477 204.116 83.3848C204.101 81.2021 202.285 79.7959 199.897 79.7812C197.363 79.7959 195.781 81.3926 195.766 83.7656H193.276C193.246 80.0156 196.147 77.4961 199.985 77.4961C203.837 77.4961 206.562 80.0889 206.576 83.3848C206.562 85.7578 205.463 87.6035 201.713 91.4707L196.85 96.4805V96.6562H206.957V99H193.188Z" fill="#222222"/>
<path d="M316.726 99.293C312.507 99.293 309.475 97.0371 309.343 93.668H312.009C312.156 95.6895 314.162 96.9492 316.697 96.9492C319.494 96.9492 321.516 95.4404 321.531 93.2285C321.516 90.9141 319.67 89.2881 316.374 89.2734H314.646V86.959H316.374C318.952 86.959 320.754 85.5088 320.74 83.3262C320.754 81.2021 319.201 79.7959 316.785 79.7812C314.514 79.7959 312.449 81.041 312.331 83.1211H309.783C309.914 79.752 313.049 77.4961 316.814 77.4961C320.857 77.4961 323.318 80.1475 323.288 83.1797C323.318 85.5967 321.911 87.3545 319.685 87.9844V88.1309C322.453 88.5557 324.123 90.5332 324.109 93.2285C324.123 96.7148 320.959 99.293 316.726 99.293Z" fill="#222222"/>
<path d="M75.4378 167.664V165.496L84.9886 150.789H88.2406V165.35H91.1995V167.664H88.2406V172H85.721V167.664H75.4378ZM78.2796 165.35H85.721V154.129H85.4574L78.2796 165.174V165.35Z" fill="#222222"/>
<path d="M199.955 172.293C196.132 172.293 193.232 169.935 193.071 166.668H195.619C195.81 168.558 197.656 169.964 199.955 169.979C202.709 169.964 204.701 167.957 204.701 165.291C204.701 162.537 202.636 160.501 199.78 160.486C197.993 160.457 196.601 161.014 195.825 162.391H193.276L194.77 150.789H206.254V153.133H196.967L196.176 159.344H196.381C197.333 158.611 198.754 158.113 200.248 158.113C204.291 158.113 207.265 161.102 207.28 165.232C207.265 169.334 204.189 172.293 199.955 172.293Z" fill="#222222"/>
<path d="M316.843 172.293C313.166 172.249 309.109 170.066 309.109 162.215C309.109 154.7 312.185 150.496 317.165 150.496C320.901 150.496 323.508 152.796 324.05 156.121H321.443C320.959 154.246 319.524 152.84 317.165 152.84C313.679 152.84 311.584 155.813 311.599 160.926H311.863C313.078 159.153 315.027 158.113 317.312 158.113C321.076 158.113 324.226 161.043 324.226 165.145C324.226 169.144 321.311 172.337 316.843 172.293ZM311.951 165.203C311.965 167.693 314.001 169.964 316.843 169.979C319.582 169.964 321.662 167.811 321.677 165.174C321.662 162.566 319.67 160.442 316.902 160.428C314.118 160.442 311.98 162.698 311.951 165.203Z" fill="#222222"/>
<path d="M77.723 245L87.4495 226.279V226.133H76.2288V223.789H90.1742V226.25L80.4769 245H77.723Z" fill="#222222"/>
<path d="M199.985 245.293C195.517 245.293 192.441 242.817 192.455 239.375C192.441 236.636 194.345 234.365 196.762 233.984V233.867C194.653 233.384 193.261 231.436 193.276 229.121C193.261 225.884 196.103 223.496 199.985 223.496C203.852 223.496 206.694 225.884 206.723 229.121C206.694 231.436 205.287 233.384 203.207 233.867V233.984C205.61 234.365 207.514 236.636 207.543 239.375C207.514 242.817 204.409 245.293 199.985 245.293ZM195.092 239.229C195.048 241.455 196.938 242.964 199.985 242.979C203.017 242.964 204.907 241.455 204.907 239.229C204.907 236.885 202.841 235.156 199.985 235.156C197.143 235.156 195.048 236.885 195.092 239.229ZM195.825 229.326C195.839 231.465 197.553 232.915 199.985 232.93C202.402 232.915 204.145 231.465 204.145 229.326C204.145 227.202 202.46 225.767 199.985 225.781C197.465 225.767 195.839 227.202 195.825 229.326Z" fill="#222222"/>
<path d="M316.521 223.496C320.168 223.54 324.226 225.737 324.226 233.545C324.226 241.089 321.135 245.293 316.169 245.293C312.434 245.293 309.812 243.008 309.285 239.639H311.892C312.361 241.543 313.811 242.949 316.169 242.949C319.626 242.949 321.736 239.961 321.765 234.805H321.472C320.256 236.562 318.308 237.617 316.052 237.617C312.258 237.617 309.109 234.702 309.109 230.615C309.109 226.66 312.009 223.452 316.521 223.496ZM311.687 230.586C311.672 233.208 313.664 235.303 316.433 235.303C319.201 235.303 321.355 233.018 321.355 230.527C321.355 228.096 319.319 225.811 316.521 225.811C313.752 225.811 311.658 227.964 311.687 230.586Z" fill="#222222"/>
<path d="M74.0609 299.797V315.424H72.7249V307.303H70.598V314.633H69.2796V300.131H70.598V306.125H72.7249V299.797H74.0609ZM60.473 311.135C62.723 309.896 63.9271 307.241 63.9183 304.068V302.82H60.8421V301.66H68.1546V302.82H65.2542V304.068C65.2542 306.925 66.4408 309.447 68.6644 310.59L67.8382 311.662C66.265 310.801 65.1751 309.263 64.6214 307.355C64.0853 309.526 62.9779 311.231 61.3343 312.189L60.473 311.135ZM78.0863 301.291V305.105H81.4788V301.291H82.762V311.521H76.7679V301.291H78.0863ZM78.0863 310.379H81.4788V306.23H78.0863V310.379ZM84.7484 314.633V300.131H86.0667V306.002H88.2464V299.797H89.5824V315.424H88.2464V307.145H86.0667V314.633H84.7484ZM96.0511 300.359C97.431 300.351 98.5911 300.86 99.3118 301.713H103.311V299.797H104.682V307.83H103.311V306.037H99.347C98.6351 306.925 97.4574 307.452 96.0511 307.443C93.6956 307.452 91.9818 306.011 91.9906 303.893C91.9818 301.792 93.6956 300.351 96.0511 300.359ZM93.3089 303.893C93.3089 305.308 94.4515 306.318 96.0511 306.336C97.598 306.318 98.7581 305.308 98.7581 303.893C98.7581 302.486 97.598 301.484 96.0511 301.502C94.4515 301.484 93.3089 302.486 93.3089 303.893ZM94.557 309.729V308.621H104.682V312.365H95.9632V314.105H105.28V315.213H94.5921V311.311H103.311V309.729H94.557ZM99.9271 302.82C100.033 303.154 100.094 303.515 100.094 303.893C100.094 304.262 100.041 304.604 99.9359 304.93H103.311V302.82H99.9271Z" fill="#222222"/>
<path d="M199.999 318.293C195.297 318.293 192.573 314.338 192.587 307.395C192.573 300.51 195.326 296.496 199.999 296.496C204.658 296.496 207.411 300.51 207.411 307.395C207.411 314.338 204.701 318.293 199.999 318.293ZM195.136 307.395C195.151 312.888 196.923 315.949 199.999 315.949C203.061 315.949 204.848 312.888 204.833 307.395C204.848 301.901 203.046 298.796 199.999 298.781C196.952 298.796 195.151 301.901 195.136 307.395Z" fill="#222222"/>
<mask id="mask0_562_1601" style="mask-type:alpha" maskUnits="userSpaceOnUse" x="296" y="287" width="41" height="41">
<rect x="296.668" y="287.5" width="40" height="40" fill="#D9D9D9"/>
</mask>
<g mask="url(#mask0_562_1601)">
<path d="M312.308 317.5C311.71 317.5 311.146 317.364 310.617 317.093C310.088 316.822 309.65 316.442 309.301 315.955L304.452 309.064C304.121 308.588 303.955 308.066 303.955 307.5C303.955 306.934 304.121 306.413 304.452 305.936L309.301 299.109C309.65 298.622 310.083 298.232 310.601 297.939C311.119 297.646 311.688 297.5 312.308 297.5H327.308C328.053 297.5 328.689 297.762 329.213 298.287C329.738 298.811 330 299.447 330 300.192V314.808C330 315.553 329.738 316.189 329.213 316.713C328.689 317.238 328.053 317.5 327.308 317.5H312.308ZM312.308 315.833H327.308C327.564 315.833 327.799 315.727 328.013 315.513C328.227 315.299 328.333 315.064 328.333 314.808V300.192C328.333 299.936 328.227 299.701 328.013 299.487C327.799 299.273 327.564 299.167 327.308 299.167H312.308C311.987 299.167 311.683 299.247 311.394 299.407C311.106 299.567 310.876 299.765 310.705 300L305.782 306.891C305.654 307.062 305.59 307.265 305.59 307.5C305.59 307.735 305.654 307.938 305.782 308.109L310.705 315C310.876 315.235 311.106 315.433 311.394 315.593C311.683 315.753 311.987 315.833 312.308 315.833ZM319.423 308.68L323.167 312.423C323.323 312.579 323.514 312.662 323.74 312.673C323.967 312.684 324.169 312.6 324.346 312.423C324.524 312.246 324.612 312.049 324.612 311.833C324.612 311.618 324.524 311.421 324.346 311.244L320.603 307.5L324.346 303.756C324.502 303.6 324.585 303.409 324.596 303.183C324.607 302.956 324.524 302.754 324.346 302.577C324.169 302.4 323.972 302.311 323.756 302.311C323.54 302.311 323.344 302.4 323.167 302.577L319.423 306.32L315.68 302.577C315.524 302.421 315.332 302.338 315.106 302.327C314.879 302.316 314.677 302.4 314.5 302.577C314.323 302.754 314.234 302.951 314.234 303.167C314.234 303.383 314.323 303.579 314.5 303.756L318.244 307.5L314.5 311.244C314.344 311.4 314.261 311.591 314.25 311.817C314.24 312.044 314.323 312.246 314.5 312.423C314.677 312.6 314.874 312.689 315.09 312.689C315.305 312.689 315.502 312.6 315.68 312.423L319.423 308.68Z" fill="#797378"/>
</g>
<rect x="25" y="350" width="350" height="49" rx="5" fill="#E5E7EB"/>
<path d="M197.656 367.281V371.391H199.562V372.828H197.656V376.828H195.922V367.281H197.656ZM186.344 375.141C187.406 375.141 188.633 375.133 189.906 375.102V374.234C188.336 374.039 187.336 373.281 187.344 372.172C187.336 370.867 188.703 370.07 190.75 370.078C192.805 370.07 194.156 370.867 194.156 372.172C194.156 373.273 193.188 374.023 191.641 374.227V375.039C192.844 374.977 194.055 374.883 195.188 374.734L195.328 375.938C192.32 376.469 189.016 376.5 186.531 376.5L186.344 375.141ZM186.703 369.672V368.391H189.906V367.156H191.641V368.391H194.812V369.672H186.703ZM188.125 378.797V377.438H197.656V381.391H195.922V378.797H188.125ZM189.016 372.172C189 372.758 189.656 373.125 190.75 373.109C191.844 373.125 192.5 372.758 192.5 372.172C192.5 371.555 191.844 371.242 190.75 371.25C189.656 371.242 189 371.555 189.016 372.172ZM212.062 367.281V377.484H210.312V367.281H212.062ZM200.547 371.734C200.547 369.68 202.211 368.211 204.359 368.203C206.508 368.211 208.164 369.68 208.156 371.734C208.164 373.82 206.508 375.281 204.359 375.281C202.211 375.281 200.547 373.82 200.547 371.734ZM202.25 371.734C202.242 372.984 203.148 373.766 204.359 373.766C205.539 373.766 206.453 372.984 206.453 371.734C206.453 370.516 205.539 369.719 204.359 369.719C203.148 369.719 202.242 370.516 202.25 371.734ZM202.719 381.109V376.453H204.469V379.703H212.453V381.109H202.719Z" fill="#9CA3AF"/>
</svg>
