<svg width="400" height="69" viewBox="0 0 400 69" fill="none" xmlns="http://www.w3.org/2000/svg">
<rect width="400" height="69" fill="white"/>
<path d="M30 0.5H199.5V48.5H30C27.5147 48.5 25.5 46.4853 25.5 44V5C25.5 2.51472 27.5147 0.5 30 0.5Z" stroke="#00C18A"/>
<path d="M81.221 31.4144H79.4696V17.2707H81.221V31.4144ZM69.9227 23.2818C69.9227 22.2836 70.0792 21.4088 70.3923 20.6575C70.709 19.9024 71.1455 19.3204 71.7017 18.9116C72.2615 18.4991 72.8987 18.2928 73.6133 18.2928C74.3168 18.2928 74.9466 18.4991 75.5028 18.9116C76.0626 19.3204 76.4991 19.9024 76.8122 20.6575C77.1289 21.4088 77.2873 22.2836 77.2873 23.2818C77.2873 24.2873 77.1289 25.1694 76.8122 25.9282C76.4991 26.6832 76.0626 27.2652 75.5028 27.674C74.9466 28.0792 74.3168 28.2818 73.6133 28.2818C72.8987 28.2818 72.2615 28.0792 71.7017 27.674C71.1418 27.2652 70.7053 26.6832 70.3923 25.9282C70.0792 25.1694 69.9227 24.2873 69.9227 23.2818ZM71.5967 23.2818C71.5967 23.9926 71.6796 24.6077 71.8453 25.1271C72.0147 25.6427 72.2505 26.0368 72.5525 26.3094C72.8582 26.5783 73.2118 26.7127 73.6133 26.7127C74.0074 26.7127 74.3536 26.5764 74.6519 26.3039C74.954 26.0313 75.1878 25.6372 75.3536 25.1215C75.523 24.6059 75.6077 23.9926 75.6077 23.2818C75.6077 22.5746 75.523 21.965 75.3536 21.453C75.1878 20.9374 74.954 20.5433 74.6519 20.2707C74.3536 19.9982 74.0074 19.8619 73.6133 19.8619C73.2118 19.8619 72.8582 19.9982 72.5525 20.2707C72.2505 20.5433 72.0147 20.9374 71.8453 21.453C71.6796 21.965 71.5967 22.5746 71.5967 23.2818ZM87.6127 21.5801C87.6127 22.3315 87.7158 23.0571 87.922 23.7569C88.132 24.4567 88.4524 25.0921 88.8834 25.663C89.3143 26.2339 89.8484 26.6906 90.4856 27.0331L89.5187 28.3094C88.8778 27.9742 88.3309 27.5138 87.8778 26.9282C87.4248 26.3389 87.0675 25.6593 86.806 24.8895C86.5482 25.7219 86.1909 26.4622 85.7342 27.1105C85.2812 27.7551 84.7342 28.2652 84.0933 28.6409L83.0823 27.3315C83.7232 26.9595 84.2591 26.4696 84.69 25.8619C85.1209 25.2505 85.4414 24.5783 85.6513 23.8453C85.8613 23.1087 85.9681 22.3536 85.9718 21.5801V21.1381H83.5629V19.7348H85.9718V17.768H87.6071V19.7348H89.9718V21.1381H87.6127V21.5801ZM89.0933 22.6961H90.9441V17.5359H92.574V30.7017H90.9441V24.1271H89.0933V22.6961ZM93.8005 17.2707H95.4469V31.3812H93.8005V17.2707ZM113.1 31.3812H111.459V17.2707H113.1V31.3812ZM100.774 27.1768C102.21 26.326 103.291 25.3462 104.017 24.2376C104.746 23.1252 105.177 21.8453 105.309 20.3978H101.53V18.9889H107.039C107.039 19.6998 106.989 20.3904 106.89 21.0608H108.536V17.6133H110.188V30.7238H108.536V25.9945H106.332V24.5856H108.536V22.4751H106.586C106.239 23.6869 105.678 24.7882 104.901 25.779C104.123 26.7661 103.09 27.6427 101.801 28.4088L100.774 27.1768ZM127.635 25.6133H114.751V24.2099H120.309V22.2431H122.033V24.2099H127.635V25.6133ZM115.447 21.6851C116.397 21.5635 117.239 21.3223 117.972 20.9613C118.705 20.6004 119.272 20.1621 119.674 19.6464C120.079 19.1308 120.281 18.593 120.281 18.0331V17.4972H122.049V18.0331C122.049 18.6077 122.248 19.151 122.646 19.663C123.047 20.175 123.615 20.6096 124.348 20.9669C125.084 21.3241 125.933 21.5635 126.895 21.6851L126.22 23.0552C125.057 22.8711 124.033 22.5285 123.149 22.0276C122.268 21.523 121.604 20.9006 121.154 20.1602C120.705 20.9006 120.038 21.523 119.154 22.0276C118.27 22.5285 117.246 22.8711 116.082 23.0552L115.447 21.6851ZM116.176 26.7403H126.049V31.3812H124.303V28.0994H116.176V26.7403ZM139.64 22.895H141.817V24.326H139.64V31.3812H137.922V17.2707H139.64V22.895ZM128.502 19.4309H131.839V17.4696H133.573V19.4309H136.833V20.8343H128.502V19.4309ZM129.154 25.0718C129.15 24.4309 129.301 23.8582 129.607 23.3536C129.912 22.849 130.336 22.4549 130.877 22.1713C131.422 21.8877 132.036 21.7459 132.717 21.7459C133.387 21.7459 133.992 21.8877 134.529 22.1713C135.071 22.4549 135.494 22.849 135.8 23.3536C136.109 23.8582 136.266 24.4309 136.27 25.0718C136.266 25.7127 136.109 26.2855 135.8 26.7901C135.494 27.2947 135.071 27.6888 134.529 27.9724C133.992 28.2523 133.387 28.3923 132.717 28.3923C132.036 28.3923 131.422 28.2523 130.877 27.9724C130.336 27.6888 129.912 27.2947 129.607 26.7901C129.301 26.2855 129.15 25.7127 129.154 25.0718ZM130.817 25.0718C130.813 25.4512 130.892 25.7845 131.054 26.0718C131.216 26.3591 131.441 26.5801 131.728 26.7348C132.019 26.8858 132.349 26.9595 132.717 26.9558C133.078 26.9595 133.4 26.8858 133.684 26.7348C133.971 26.5801 134.196 26.3591 134.358 26.0718C134.52 25.7845 134.603 25.4512 134.607 25.0718C134.603 24.6961 134.52 24.3646 134.358 24.0773C134.196 23.7901 133.971 23.5672 133.684 23.4088C133.4 23.2505 133.078 23.1713 132.717 23.1713C132.352 23.1713 132.025 23.2505 131.734 23.4088C131.443 23.5672 131.216 23.7901 131.054 24.0773C130.892 24.3646 130.813 24.6961 130.817 25.0718ZM154.197 31.3812H152.446V17.2707H154.197V31.3812ZM142.501 27.4972C143.724 26.9153 144.739 26.2615 145.545 25.5359C146.356 24.8066 146.978 23.9982 147.413 23.1105C147.847 22.2192 148.116 21.2302 148.219 20.1436H143.219V18.768H149.987C149.984 20.2376 149.77 21.5893 149.346 22.8232C148.926 24.0534 148.23 25.1823 147.258 26.2099C146.289 27.2376 145.007 28.1308 143.413 28.8895L142.501 27.4972Z" fill="#00C18A"/>
<path d="M200 0H370C372.761 0 375 2.23858 375 5V44C375 46.7614 372.761 49 370 49H200V0Z" fill="#00C18A"/>
<path d="M278.235 17.8785C278.916 17.8785 279.524 17.9982 280.058 18.2376C280.596 18.4733 281.016 18.8066 281.318 19.2376C281.62 19.6685 281.773 20.1621 281.776 20.7182C281.773 21.1823 281.66 21.6059 281.439 21.9889C281.222 22.3683 280.914 22.6869 280.517 22.9448C280.119 23.1989 279.658 23.3738 279.135 23.4696V24.6133C280.45 24.5322 281.603 24.4199 282.594 24.2762L282.727 25.547C281.456 25.7716 280.119 25.9245 278.715 26.0055C277.316 26.0866 275.876 26.1271 274.395 26.1271H274.124L273.942 24.7348H274.572C275.566 24.7348 276.506 24.7201 277.39 24.6906V23.4807C276.852 23.3886 276.38 23.2155 275.975 22.9613C275.57 22.7035 275.255 22.3831 275.03 22C274.809 21.6133 274.701 21.186 274.704 20.7182C274.701 20.1621 274.848 19.6685 275.146 19.2376C275.448 18.8066 275.866 18.4733 276.401 18.2376C276.938 17.9982 277.55 17.8785 278.235 17.8785ZM275.87 27.116H277.616V29.6906H285.66V31.0994H275.87V27.116ZM276.323 20.7182C276.32 21.0203 276.397 21.2855 276.555 21.5138C276.717 21.7422 276.944 21.919 277.235 22.0442C277.526 22.1657 277.859 22.2284 278.235 22.232C278.61 22.2284 278.942 22.1657 279.229 22.0442C279.517 21.919 279.739 21.744 279.898 21.5193C280.056 21.291 280.137 21.0239 280.141 20.7182C280.137 20.4052 280.056 20.1344 279.898 19.9061C279.739 19.6777 279.517 19.5028 279.229 19.3812C278.942 19.256 278.61 19.1934 278.235 19.1934C277.859 19.1971 277.526 19.2597 277.235 19.3812C276.944 19.5028 276.717 19.6796 276.555 19.9116C276.397 20.14 276.32 20.4088 276.323 20.7182ZM283.423 17.2818H285.163V21.8343H287.069V23.2873H285.163V28.0663H283.423V17.2818ZM300.709 29.7514H287.798V28.3149H291.212V25.989H289.328V21.3757H297.461V19.6354H289.306V18.232H299.179V22.768H291.063V24.5746H299.505V25.989H297.439V28.3149H300.709V29.7514ZM295.731 28.3149V25.989H292.903V28.3149H295.731Z" fill="white"/>
</svg>
