<svg width="400" height="900" viewBox="0 0 400 900" fill="none" xmlns="http://www.w3.org/2000/svg">
<g clip-path="url(#clip0_514_3034)">
<rect width="400" height="900" fill="white"/>
<mask id="mask0_514_3034" style="mask-type:alpha" maskUnits="userSpaceOnUse" x="25" y="20" width="40" height="40">
<rect x="25" y="20" width="40" height="40" fill="#D9D9D9"/>
</mask>
<g mask="url(#mask0_514_3034)">
<path d="M28.375 39.972L35.4583 47.0553C35.7267 47.3239 35.8562 47.6481 35.8471 48.0278C35.8379 48.4073 35.699 48.7313 35.4304 48.9999C35.1618 49.2685 34.8331 49.4028 34.4442 49.4028C34.0553 49.4028 33.7267 49.2685 33.4583 48.9999L25.4025 40.9445C25.2544 40.7962 25.1503 40.6434 25.09 40.4862C25.03 40.3287 25 40.1573 25 39.972C25 39.787 25.03 39.6158 25.09 39.4583C25.1503 39.3008 25.2544 39.148 25.4025 38.9999L33.4858 30.9166C33.7544 30.648 34.0832 30.5137 34.4721 30.5137C34.861 30.5137 35.1897 30.648 35.4583 30.9166C35.7267 31.1852 35.8608 31.5139 35.8608 31.9028C35.8608 32.2917 35.7267 32.6203 35.4583 32.8887L28.375 39.972Z" fill="#111827"/>
</g>
<path d="M64.2383 31.6738V47.5645H62.375V31.6738H64.2383ZM60.9512 32.0605V46.8086H59.0879V41.5H56.6094V39.9004H59.0879V37.5449H56.8906C56.1436 40.1816 54.4824 42.4492 51.5117 44.207L50.3691 42.8184C53.665 40.876 55.1768 38.3887 55.4668 35.1895H51.2129V33.6074H57.4004C57.4004 34.4072 57.3477 35.1895 57.2422 35.9453H59.0879V32.0605H60.9512ZM75.2246 33.0273V34.627H71.9023C71.9551 36.3848 73.2471 38.0547 75.6641 38.7578L74.7324 40.2871C72.9219 39.751 71.6299 38.6436 70.9355 37.2285C70.2324 38.7842 68.8965 39.9971 67.0332 40.5684L66.0312 39.0391C68.501 38.3008 69.8369 36.543 69.916 34.627H66.5762V33.0273H75.2246ZM71.8848 39.9004V42.7305C73.1855 42.6689 74.4951 42.5635 75.7168 42.3965L75.8574 43.8027C72.5 44.4355 68.8613 44.418 66.1543 44.4355L65.8906 42.8359C67.0947 42.8359 68.4834 42.8359 69.9336 42.8008V39.9004H71.8848ZM80.8848 38.0547V39.6895H78.582V47.5645H76.6309V31.6738H78.582V38.0547H80.8848ZM94.8594 31.6738V47.582H92.8906V31.6738H94.8594ZM86.2988 32.834C88.6895 32.834 90.4297 35.0137 90.4473 38.4414C90.4297 41.9043 88.6895 44.0664 86.2988 44.0664C83.8906 44.0664 82.1504 41.9043 82.1504 38.4414C82.1504 35.0137 83.8906 32.834 86.2988 32.834ZM86.2988 34.5918C84.9453 34.5918 84.0312 36.0156 84.0312 38.4414C84.0312 40.8848 84.9453 42.3086 86.2988 42.3086C87.6348 42.3086 88.5488 40.8848 88.5488 38.4414C88.5488 36.0156 87.6348 34.5918 86.2988 34.5918ZM102.049 36.5254C102.049 38.9863 103.068 41.4648 105.283 42.6602L104.193 44.1016C102.717 43.3193 101.715 41.9219 101.152 40.252C100.59 42.0537 99.5879 43.5918 98.0938 44.4707L96.9512 42.9941C99.2012 41.6934 100.203 39.0391 100.203 36.5254V36.0332H97.4961V34.4512H100.203V32.2363H102.049V34.4512H104.703V36.0332H102.049V36.5254ZM110.873 31.6738V47.5645H109.01V31.6738H110.873ZM107.639 31.9727V46.791H105.793V39.3906H103.719V37.7734H105.793V31.9727H107.639Z" fill="#111827"/>
<path d="M343.258 38.0371V39.1973H340.727V47.4238H339.355V31.7969H340.727V38.0371H343.258ZM330.654 33.3438V42.291C332.939 42.2822 335.269 42.1064 337.844 41.5703L338.02 42.748C335.33 43.293 332.904 43.4512 330.531 43.4512H329.283V33.3438H330.654ZM356.283 31.7969V38.1602H358.814V39.3203H356.283V47.4238H354.912V31.7969H356.283ZM352.24 33.4844C352.24 37.9141 350.166 41.9395 345.068 44.4531L344.295 43.3633C348.338 41.3506 350.535 38.3447 350.852 34.6445H345.016V33.4844H352.24ZM372.666 31.7969V47.4238H371.277V31.7969H372.666ZM368.043 33.502C368.025 38.002 365.934 41.9746 360.695 44.4883L359.939 43.3633C364.167 41.3594 366.32 38.3623 366.637 34.627H360.66V33.502H368.043Z" fill="#EF403C"/>
<mask id="path-5-inside-1_514_3034" fill="white">
<path d="M25 110H375V198H25V110Z"/>
</mask>
<path d="M375 196H25V200H375V196Z" fill="#6B7280" mask="url(#path-5-inside-1_514_3034)"/>
<path d="M43.4922 111.828V133.203H40.4688V111.828H43.4922ZM31.9141 113.328C35.125 113.328 37.5156 116.281 37.5156 120.922C37.5156 125.609 35.125 128.539 31.9141 128.539C28.6328 128.539 26.2422 125.609 26.2656 120.922C26.2422 116.281 28.6328 113.328 31.9141 113.328ZM31.9141 116.023C30.25 116.023 29.1484 117.758 29.1484 120.922C29.1484 124.109 30.25 125.82 31.9141 125.82C33.5312 125.82 34.6328 124.109 34.6328 120.922C34.6328 117.758 33.5312 116.023 31.9141 116.023ZM52.1172 113.328C55.375 113.328 57.7188 116.281 57.7422 120.922C57.7188 125.609 55.375 128.539 52.1172 128.539C48.8594 128.539 46.4688 125.609 46.4922 120.922C46.4688 116.281 48.8594 113.328 52.1172 113.328ZM52.1172 116.023C50.4766 116.023 49.375 117.758 49.375 120.922C49.375 124.109 50.4766 125.82 52.1172 125.82C53.7812 125.82 54.8594 124.109 54.8828 120.922C54.8594 117.758 53.7812 116.023 52.1172 116.023ZM63.2031 111.828V119.867H66.3438V122.352H63.2031V133.156H60.2031V111.828H63.2031ZM86.6172 120.148V122.492H67.1172V120.148H86.6172ZM84.2969 116.633V118.977H69.5547V112.25H84.1328V114.641H72.5312V116.633H84.2969ZM84.2031 123.758V129.336H72.3203V130.648H84.7656V132.969H69.3906V127.203H81.25V126.008H69.3672V123.758H84.2031Z" fill="#111827"/>
<path d="M106.017 123.89H104.21V112.072H106.017V123.89ZM90.1547 113.298H92.011V120.724C93.8287 120.718 95.5249 120.644 97.0994 120.5C98.6796 120.356 100.265 120.116 101.856 119.779L102.138 121.32C100.431 121.663 98.7569 121.909 97.116 122.058C95.4751 122.207 93.7182 122.287 91.8453 122.298H90.1547V113.298ZM92.4917 124.867H106.017V132.608H92.4917V124.867ZM104.227 131.116V126.343H94.3149V131.116H104.227ZM127.438 132.906H125.665V112.072H127.438V132.906ZM109.853 121.055C109.853 119.597 110.035 118.323 110.4 117.235C110.77 116.141 111.289 115.301 111.958 114.715C112.632 114.124 113.416 113.829 114.311 113.829C115.151 113.829 115.894 114.086 116.541 114.599C117.192 115.113 117.712 115.851 118.099 116.812C118.485 117.768 118.717 118.895 118.795 120.193H121.488V112.519H123.262V131.845H121.488V121.718H118.803C118.742 123.061 118.518 124.229 118.132 125.224C117.75 126.213 117.231 126.975 116.574 127.511C115.916 128.041 115.162 128.304 114.311 128.298C113.416 128.304 112.632 128.011 111.958 127.42C111.289 126.829 110.77 125.986 110.4 124.892C110.035 123.798 109.853 122.519 109.853 121.055ZM111.576 121.055C111.571 122.171 111.679 123.146 111.9 123.981C112.126 124.809 112.447 125.448 112.861 125.895C113.275 126.343 113.759 126.564 114.311 126.558C114.875 126.564 115.366 126.343 115.786 125.895C116.206 125.448 116.529 124.809 116.756 123.981C116.983 123.146 117.096 122.171 117.096 121.055C117.096 119.939 116.983 118.967 116.756 118.138C116.529 117.309 116.206 116.671 115.786 116.224C115.366 115.776 114.875 115.552 114.311 115.552C113.759 115.552 113.275 115.776 112.861 116.224C112.447 116.671 112.126 117.309 111.9 118.138C111.679 118.967 111.571 119.939 111.576 121.055ZM148.164 132.906H146.407V112.072H148.164V132.906ZM130.346 127.072C132.567 125.757 134.269 124.185 135.451 122.356C136.634 120.522 137.313 118.492 137.49 116.265H131.241V114.724H139.33C139.319 116.867 138.971 118.834 138.285 120.624H142.031V112.635H143.788V131.845H142.031V122.116H137.606C136.285 124.652 134.225 126.746 131.424 128.398L130.346 127.072Z" fill="#111827"/>
<path d="M33.6484 148.031V165H30.1094V151.383H30.0156L26.125 153.82V150.703L30.3203 148.031H33.6484ZM44.1719 165.234C39.918 165.234 37.3516 162.07 37.3516 156.516C37.3516 150.973 39.9414 147.797 44.1719 147.797C48.4023 147.797 50.9922 150.973 50.9922 156.516C50.9922 162.094 48.4141 165.234 44.1719 165.234ZM40.9609 156.516C40.9375 160.43 42.2031 162.328 44.1719 162.328C46.1406 162.328 47.3945 160.43 47.3828 156.516C47.3945 152.637 46.1289 150.691 44.1719 150.68C42.2148 150.691 40.9609 152.637 40.9609 156.516ZM60.0156 165.234C55.7617 165.234 53.1953 162.07 53.1953 156.516C53.1953 150.973 55.7852 147.797 60.0156 147.797C64.2461 147.797 66.8359 150.973 66.8359 156.516C66.8359 162.094 64.2578 165.234 60.0156 165.234ZM56.8047 156.516C56.7812 160.43 58.0469 162.328 60.0156 162.328C61.9844 162.328 63.2383 160.43 63.2266 156.516C63.2383 152.637 61.9727 150.691 60.0156 150.68C58.0586 150.691 56.8047 152.637 56.8047 156.516ZM72.3672 163.266L70.3516 169.945H67.8672L69.0391 163.266H72.3672ZM81.3438 165.234C77.0898 165.234 74.5234 162.07 74.5234 156.516C74.5234 150.973 77.1133 147.797 81.3438 147.797C85.5742 147.797 88.1641 150.973 88.1641 156.516C88.1641 162.094 85.5859 165.234 81.3438 165.234ZM78.1328 156.516C78.1094 160.43 79.375 162.328 81.3438 162.328C83.3125 162.328 84.5664 160.43 84.5547 156.516C84.5664 152.637 83.3008 150.691 81.3438 150.68C79.3867 150.691 78.1328 152.637 78.1328 156.516ZM97.1875 165.234C92.9336 165.234 90.3672 162.07 90.3672 156.516C90.3672 150.973 92.957 147.797 97.1875 147.797C101.418 147.797 104.008 150.973 104.008 156.516C104.008 162.094 101.43 165.234 97.1875 165.234ZM93.9766 156.516C93.9531 160.43 95.2188 162.328 97.1875 162.328C99.1562 162.328 100.41 160.43 100.398 156.516C100.41 152.637 99.1445 150.691 97.1875 150.68C95.2305 150.691 93.9766 152.637 93.9766 156.516ZM113.031 165.234C108.777 165.234 106.211 162.07 106.211 156.516C106.211 150.973 108.801 147.797 113.031 147.797C117.262 147.797 119.852 150.973 119.852 156.516C119.852 162.094 117.273 165.234 113.031 165.234ZM109.82 156.516C109.797 160.43 111.062 162.328 113.031 162.328C115 162.328 116.254 160.43 116.242 156.516C116.254 152.637 114.988 150.691 113.031 150.68C111.074 150.691 109.82 152.637 109.82 156.516Z" fill="#00C18A"/>
<path d="M139.017 161.917H137.16V159.746H132.867V158.403H137.16V146.088H139.017V161.917ZM121.729 155.735C124.481 155.724 126.936 155.682 129.097 155.61C131.262 155.533 133.326 155.37 135.287 155.122L135.42 156.464C133.691 156.74 131.779 156.942 129.685 157.069V161.188H127.845V157.16C126.425 157.215 124.807 157.243 122.989 157.243H121.978L121.729 155.735ZM123.403 150.564C123.403 149.845 123.619 149.213 124.05 148.666C124.481 148.113 125.088 147.688 125.873 147.39C126.657 147.086 127.558 146.934 128.575 146.934C129.58 146.934 130.472 147.086 131.251 147.39C132.03 147.688 132.635 148.113 133.066 148.666C133.503 149.213 133.724 149.845 133.729 150.564C133.724 151.293 133.503 151.931 133.066 152.478C132.635 153.019 132.03 153.439 131.251 153.738C130.478 154.03 129.586 154.177 128.575 154.177C127.552 154.177 126.649 154.03 125.865 153.738C125.086 153.445 124.481 153.025 124.05 152.478C123.619 151.931 123.403 151.293 123.403 150.564ZM124.729 160.359H126.569V164.917H139.53V166.442H124.729V160.359ZM125.16 150.564C125.155 151.011 125.293 151.403 125.575 151.74C125.862 152.077 126.265 152.34 126.785 152.528C127.304 152.71 127.901 152.801 128.575 152.801C129.227 152.801 129.809 152.71 130.323 152.528C130.837 152.34 131.238 152.077 131.525 151.74C131.818 151.403 131.967 151.011 131.972 150.564C131.967 150.122 131.818 149.732 131.525 149.395C131.238 149.052 130.837 148.787 130.323 148.599C129.809 148.412 129.227 148.32 128.575 148.326C127.901 148.32 127.304 148.412 126.785 148.599C126.265 148.787 125.862 149.052 125.575 149.395C125.293 149.732 125.155 150.122 125.16 150.564ZM152.068 146.436C153.615 146.436 154.938 146.575 156.038 146.851C157.137 147.127 157.977 147.536 158.557 148.077C159.137 148.613 159.427 149.265 159.427 150.033C159.427 150.812 159.137 151.472 158.557 152.014C157.977 152.555 157.137 152.967 156.038 153.249C154.938 153.53 153.615 153.674 152.068 153.68C150.521 153.674 149.195 153.53 148.09 153.249C146.991 152.967 146.148 152.555 145.563 152.014C144.983 151.472 144.692 150.812 144.692 150.033C144.692 149.265 144.983 148.613 145.563 148.077C146.148 147.541 146.991 147.135 148.09 146.859C149.195 146.577 150.521 146.436 152.068 146.436ZM142.587 155.088H161.582V156.58H142.587V155.088ZM144.891 158.387H159.129V163.044H146.748V165.215H159.759V166.674H144.941V161.685H157.322V159.796H144.891V158.387ZM146.615 150.033C146.61 150.508 146.82 150.914 147.245 151.251C147.676 151.583 148.3 151.837 149.118 152.014C149.936 152.185 150.919 152.271 152.068 152.271C153.223 152.271 154.209 152.185 155.027 152.014C155.85 151.837 156.477 151.583 156.908 151.251C157.339 150.914 157.554 150.508 157.554 150.033C157.554 149.575 157.336 149.182 156.9 148.856C156.469 148.525 155.842 148.271 155.018 148.094C154.195 147.917 153.212 147.829 152.068 147.829C150.93 147.829 149.949 147.917 149.126 148.094C148.308 148.271 147.684 148.525 147.253 148.856C146.822 149.182 146.61 149.575 146.615 150.033ZM186.524 166.939H184.685V146.072H186.524V166.939ZM170.132 154.939C170.132 153.486 170.356 152.213 170.803 151.119C171.256 150.025 171.886 149.18 172.693 148.583C173.5 147.986 174.419 147.685 175.453 147.68C176.48 147.685 177.395 147.986 178.196 148.583C179.002 149.18 179.632 150.028 180.085 151.127C180.544 152.221 180.773 153.492 180.773 154.939C180.773 156.392 180.544 157.669 180.085 158.768C179.632 159.867 179.002 160.715 178.196 161.312C177.389 161.903 176.475 162.199 175.453 162.199C174.419 162.199 173.5 161.903 172.693 161.312C171.886 160.715 171.256 159.87 170.803 158.776C170.356 157.677 170.132 156.398 170.132 154.939ZM171.906 154.939C171.906 156.055 172.055 157.039 172.353 157.89C172.651 158.74 173.069 159.398 173.604 159.862C174.146 160.326 174.762 160.558 175.453 160.558C176.143 160.558 176.754 160.326 177.284 159.862C177.82 159.398 178.237 158.74 178.535 157.89C178.834 157.039 178.983 156.055 178.983 154.939C178.983 153.829 178.834 152.851 178.535 152.006C178.237 151.155 177.82 150.497 177.284 150.033C176.754 149.564 176.143 149.326 175.453 149.32C174.762 149.326 174.146 149.564 173.604 150.033C173.069 150.497 172.651 151.155 172.353 152.006C172.055 152.851 171.906 153.829 171.906 154.939ZM196.195 152.486C196.195 153.608 196.377 154.71 196.742 155.793C197.112 156.876 197.64 157.856 198.325 158.735C199.01 159.608 199.814 160.293 200.736 160.79L199.675 162.166C198.659 161.608 197.78 160.823 197.04 159.812C196.3 158.796 195.736 157.644 195.349 156.356C194.968 157.732 194.407 158.97 193.667 160.069C192.927 161.163 192.051 162.017 191.04 162.63L189.93 161.238C190.852 160.702 191.653 159.97 192.333 159.041C193.012 158.108 193.535 157.072 193.899 155.934C194.264 154.79 194.449 153.641 194.454 152.486V151.459H190.493V149.934H194.454V146.834H196.211V149.934H200.106V151.459H196.195V152.486ZM198.664 154.293H201.946V146.569H203.686V165.812H201.946V155.851H198.664V154.293ZM206.14 146.072H207.896V166.906H206.14V146.072ZM226.965 154.657H230.445V156.199H226.965V166.906H225.141V146.072H226.965V154.657ZM210.721 149.42H216.075V146.32H217.915V149.42H223.119V150.945H210.721V149.42ZM211.915 157.459C211.909 156.536 212.125 155.71 212.561 154.981C212.998 154.251 213.605 153.685 214.384 153.282C215.163 152.873 216.042 152.669 217.02 152.669C217.992 152.669 218.865 152.873 219.639 153.282C220.412 153.685 221.017 154.251 221.454 154.981C221.896 155.704 222.119 156.53 222.125 157.459C222.119 158.387 221.896 159.213 221.454 159.936C221.017 160.66 220.412 161.224 219.639 161.627C218.865 162.03 217.992 162.232 217.02 162.232C216.042 162.232 215.163 162.03 214.384 161.627C213.605 161.224 212.998 160.66 212.561 159.936C212.125 159.207 211.909 158.381 211.915 157.459ZM213.672 157.459C213.666 158.077 213.807 158.633 214.094 159.124C214.382 159.616 214.779 160 215.288 160.276C215.802 160.547 216.379 160.68 217.02 160.674C217.655 160.68 218.224 160.547 218.727 160.276C219.235 160 219.633 159.616 219.92 159.124C220.213 158.633 220.362 158.077 220.368 157.459C220.362 156.84 220.213 156.285 219.92 155.793C219.633 155.296 219.235 154.909 218.727 154.633C218.224 154.351 217.655 154.21 217.02 154.21C216.379 154.21 215.802 154.351 215.288 154.633C214.779 154.909 214.382 155.296 214.094 155.793C213.807 156.285 213.666 156.84 213.672 157.459ZM238.989 151.674C238.983 152.906 239.234 154.13 239.743 155.345C240.251 156.561 240.936 157.641 241.798 158.586C242.665 159.525 243.607 160.227 244.624 160.691L243.497 162.149C242.712 161.762 241.969 161.243 241.268 160.591C240.566 159.934 239.942 159.174 239.395 158.312C238.848 157.45 238.411 156.53 238.085 155.552C237.765 156.591 237.331 157.569 236.784 158.486C236.243 159.398 235.616 160.204 234.903 160.906C234.19 161.608 233.431 162.16 232.624 162.564L231.464 161.022C232.491 160.547 233.439 159.823 234.306 158.851C235.174 157.873 235.861 156.754 236.37 155.494C236.884 154.235 237.143 152.961 237.149 151.674V147.878H238.989V151.674ZM246.911 146.072H248.751V166.939H246.911V146.072ZM261.554 147.613C261.554 149.199 261.264 150.669 260.684 152.022H264.073V146.536H265.83V157.807H264.073V153.53H259.872C258.518 155.624 256.388 157.293 253.482 158.536L252.537 157.16C254.675 156.287 256.349 155.171 257.559 153.812C258.769 152.453 259.471 150.895 259.664 149.138H253.416V147.613H261.554ZM253.565 165.464C254.416 165.16 255.162 164.727 255.803 164.163C256.449 163.599 256.946 162.975 257.294 162.29C257.648 161.599 257.825 160.917 257.825 160.243V158.834H259.582V160.243C259.576 160.878 259.684 161.506 259.905 162.124C260.126 162.738 260.457 163.312 260.899 163.848C261.347 164.378 261.891 164.829 262.532 165.199C263.173 164.801 263.72 164.318 264.173 163.749C264.626 163.18 264.968 162.591 265.2 161.983C265.438 161.37 265.559 160.79 265.565 160.243V158.834H267.355V160.243C267.349 160.967 267.515 161.674 267.852 162.365C268.195 163.055 268.687 163.674 269.327 164.221C269.974 164.762 270.731 165.177 271.598 165.464L270.687 166.84C269.67 166.475 268.797 165.948 268.068 165.257C267.344 164.566 266.797 163.768 266.427 162.862C266.084 163.768 265.59 164.586 264.943 165.315C264.297 166.05 263.51 166.613 262.582 167.006C261.604 166.624 260.786 166.077 260.128 165.365C259.477 164.652 258.99 163.831 258.67 162.903C258.289 163.776 257.739 164.558 257.021 165.249C256.308 165.939 255.466 166.47 254.493 166.84L253.565 165.464ZM268.267 146.088H270.007V158.138H268.267V146.088ZM277.307 161.006H287.716V158.569H289.572V166.624H275.484V158.569H277.307V161.006ZM273.064 155.569H292.059V157.11H273.064V155.569ZM274.141 152.635C275.401 152.459 276.605 152.113 277.755 151.599C278.904 151.08 279.835 150.445 280.547 149.693C281.26 148.936 281.617 148.133 281.617 147.282V146.304H283.506V147.282C283.506 148.105 283.865 148.898 284.583 149.66C285.307 150.423 286.244 151.069 287.393 151.599C288.542 152.13 289.733 152.475 290.965 152.635L290.285 154.094C289.197 153.934 288.144 153.649 287.128 153.24C286.111 152.826 285.202 152.312 284.401 151.699C283.605 151.08 282.995 150.395 282.57 149.644C282.139 150.406 281.523 151.094 280.722 151.707C279.92 152.32 279.012 152.831 277.995 153.24C276.978 153.649 275.926 153.934 274.838 154.094L274.141 152.635ZM287.716 165.133V162.464H277.307V165.133H287.716ZM310.978 166.906H309.154V146.072H310.978V166.906ZM295.165 148.127H296.972V159.928C298.668 159.923 300.334 159.845 301.969 159.696C303.61 159.541 305.265 159.287 306.933 158.934L307.182 160.508C305.403 160.873 303.674 161.135 301.994 161.296C300.32 161.456 298.607 161.536 296.856 161.536H295.165V148.127ZM331.04 154.674H334.206V156.215H331.04V166.906H329.2V146.072H331.04V154.674ZM314.466 161.138C315.974 159.602 317.095 157.892 317.83 156.008C318.571 154.124 318.999 152.083 319.115 149.884H315.129V148.343H320.863C320.852 151.061 320.474 153.58 319.728 155.901C318.988 158.215 317.731 160.309 315.957 162.182L314.466 161.138ZM320.449 162.547C321.963 160.84 323.051 158.917 323.714 156.779C324.383 154.641 324.767 152.343 324.866 149.884H321.526V148.343H326.598C326.593 150.227 326.463 152.03 326.209 153.754C325.96 155.478 325.493 157.191 324.808 158.892C324.129 160.588 323.178 162.149 321.957 163.575L320.449 162.547ZM338.606 160.11C338.617 159.099 338.722 158.282 338.92 157.657C339.125 157.028 339.407 156.525 339.766 156.149C340.125 155.768 340.606 155.392 341.208 155.022C341.733 154.702 342.15 154.304 342.459 153.829C342.774 153.354 342.932 152.807 342.932 152.188C342.932 151.663 342.807 151.204 342.559 150.812C342.315 150.414 341.981 150.108 341.556 149.892C341.13 149.677 340.661 149.569 340.147 149.569C339.677 149.569 339.235 149.666 338.821 149.859C338.412 150.052 338.072 150.354 337.802 150.762C337.531 151.166 337.373 151.674 337.329 152.287H335.191C335.23 151.365 335.47 150.566 335.912 149.892C336.36 149.213 336.951 148.693 337.686 148.334C338.426 147.975 339.246 147.796 340.147 147.796C341.108 147.796 341.954 147.989 342.683 148.376C343.418 148.757 343.984 149.287 344.382 149.967C344.785 150.646 344.987 151.414 344.987 152.271C344.987 153.166 344.788 153.942 344.39 154.599C343.992 155.257 343.418 155.818 342.666 156.282C342.164 156.591 341.769 156.909 341.481 157.235C341.199 157.561 340.992 157.95 340.86 158.403C340.727 158.856 340.655 159.425 340.644 160.11V160.21H338.606V160.11ZM338.191 163.624C338.186 163.354 338.249 163.102 338.382 162.87C338.52 162.638 338.705 162.456 338.937 162.323C339.175 162.185 339.429 162.116 339.699 162.116C339.97 162.116 340.222 162.185 340.454 162.323C340.686 162.456 340.868 162.638 341.001 162.87C341.139 163.102 341.208 163.354 341.208 163.624C341.208 163.895 341.139 164.146 341.001 164.378C340.868 164.61 340.686 164.796 340.454 164.934C340.222 165.066 339.97 165.133 339.699 165.133C339.429 165.133 339.175 165.066 338.937 164.934C338.705 164.796 338.52 164.61 338.382 164.378C338.249 164.146 338.186 163.895 338.191 163.624Z" fill="#111827"/>
<mask id="path-11-inside-2_514_3034" fill="white">
<path d="M25 228H375V344H25V228Z"/>
</mask>
<path d="M375 343H25V345H375V343Z" fill="#D1D5DB" mask="url(#path-11-inside-2_514_3034)"/>
<path d="M38.2818 244.492H25.5635V243.464H31.2762V240.47H27.0663V233.365H28.2928V235.873H35.5083V233.365H36.7238V240.47H32.4917V243.464H38.2818V244.492ZM35.5083 239.464V236.878H28.2928V239.464H35.5083ZM51.248 246.271H50.0546V239.077H48.0436V245.541H46.8834V232.691H48.0436V238.039H50.0546V232.381H51.248V246.271ZM40.0878 234.072H41.3143V241.575C42.0657 241.571 42.8134 241.536 43.5574 241.47C44.3014 241.403 45.0712 241.291 45.8668 241.133L46.0104 242.215C45.097 242.381 44.2333 242.499 43.4193 242.569C42.609 242.635 41.7895 242.669 40.9607 242.669H40.0878V234.072ZM64.4463 237.586H54.9435V232.89H56.159V236.591H64.4463V237.586ZM53.1977 239.475H65.9159V240.47H53.1977V239.475ZM54.8551 241.884H56.0706V244.912H64.5347V245.928H54.8551V241.884ZM82.1133 234.149C82.1133 234.643 82.1059 235.076 82.0912 235.448C82.0801 235.82 82.047 236.243 81.9917 236.718C81.9401 237.193 81.8554 237.7 81.7376 238.238H83.7818V239.254H71.0635V238.238H80.5055C80.6271 237.696 80.7155 237.188 80.7707 236.713C80.8297 236.238 80.8646 235.816 80.8757 235.448C80.8904 235.079 80.8978 234.646 80.8978 234.149V234.138H72.6768V233.122H82.1133V234.149ZM72.6326 241.166H82.1685V246.083H72.6326V241.166ZM80.953 245.077V242.138H73.837V245.077H80.953ZM88.2176 233.254C88.8217 233.254 89.365 233.394 89.8475 233.674C90.3337 233.95 90.713 234.339 90.9856 234.84C91.2618 235.337 91.3999 235.902 91.3999 236.536C91.3999 237.169 91.2618 237.733 90.9856 238.227C90.713 238.72 90.3355 239.103 89.853 239.376C89.3705 239.648 88.8254 239.785 88.2176 239.785C87.6025 239.785 87.0537 239.648 86.5712 239.376C86.0887 239.103 85.713 238.72 85.4441 238.227C85.1753 237.733 85.0427 237.169 85.0464 236.536C85.0427 235.899 85.1753 235.331 85.4441 234.834C85.7167 234.337 86.0942 233.95 86.5767 233.674C87.0592 233.394 87.6062 233.254 88.2176 233.254ZM86.1513 236.536C86.1476 236.956 86.2342 237.335 86.411 237.674C86.5915 238.013 86.8383 238.278 87.1513 238.47C87.4681 238.657 87.8235 238.75 88.2176 238.746C88.6081 238.75 88.9598 238.657 89.2729 238.47C89.586 238.278 89.8309 238.015 90.0077 237.68C90.1882 237.341 90.2802 236.959 90.2839 236.536C90.2802 236.112 90.1882 235.731 90.0077 235.392C89.8309 235.053 89.586 234.79 89.2729 234.602C88.9598 234.411 88.6081 234.315 88.2176 234.315C87.8235 234.315 87.4681 234.411 87.1513 234.602C86.8383 234.79 86.5915 235.053 86.411 235.392C86.2342 235.731 86.1476 236.112 86.1513 236.536ZM87.3226 241.431H96.6817V246.271H95.4773V242.425H87.3226V241.431ZM92.516 232.657H93.6762V235.972H95.5215V232.392H96.6817V240.657H95.5215V236.978H93.6762V240.558H92.516V232.657Z" fill="#9CA3AF"/>
<path d="M299.693 246H298.102V234.924H298.028L294.932 236.975V235.384L298.102 233.271H299.693V246ZM307.25 246.174C306.314 246.174 305.512 245.919 304.845 245.41C304.182 244.896 303.674 244.15 303.322 243.172C302.974 242.194 302.8 241.015 302.8 239.635C302.8 238.268 302.976 237.095 303.328 236.117C303.681 235.135 304.19 234.387 304.857 233.874C305.524 233.356 306.322 233.097 307.25 233.097C308.178 233.097 308.976 233.356 309.643 233.874C310.31 234.387 310.82 235.135 311.172 236.117C311.524 237.095 311.701 238.268 311.701 239.635C311.701 241.015 311.524 242.194 311.172 243.172C310.824 244.15 310.317 244.896 309.649 245.41C308.987 245.919 308.187 246.174 307.25 246.174ZM304.341 239.635C304.341 240.725 304.455 241.655 304.683 242.426C304.911 243.193 305.243 243.775 305.678 244.173C306.113 244.57 306.637 244.769 307.25 244.769C307.864 244.769 308.388 244.57 308.823 244.173C309.258 243.775 309.589 243.193 309.817 242.426C310.045 241.655 310.159 240.725 310.159 239.635C310.159 238.546 310.043 237.615 309.811 236.845C309.583 236.07 309.252 235.481 308.817 235.079C308.382 234.677 307.859 234.477 307.25 234.477C306.641 234.477 306.119 234.677 305.684 235.079C305.249 235.481 304.915 236.07 304.683 236.845C304.455 237.615 304.341 238.546 304.341 239.635ZM317.973 246.174C317.037 246.174 316.235 245.919 315.568 245.41C314.905 244.896 314.397 244.15 314.045 243.172C313.697 242.194 313.523 241.015 313.523 239.635C313.523 238.268 313.699 237.095 314.051 236.117C314.403 235.135 314.913 234.387 315.58 233.874C316.247 233.356 317.045 233.097 317.973 233.097C318.901 233.097 319.699 233.356 320.366 233.874C321.033 234.387 321.543 235.135 321.895 236.117C322.247 237.095 322.423 238.268 322.423 239.635C322.423 241.015 322.247 242.194 321.895 243.172C321.547 244.15 321.039 244.896 320.372 245.41C319.709 245.919 318.909 246.174 317.973 246.174ZM315.064 239.635C315.064 240.725 315.178 241.655 315.406 242.426C315.634 243.193 315.965 243.775 316.4 244.173C316.836 244.57 317.36 244.769 317.973 244.769C318.586 244.769 319.11 244.57 319.545 244.173C319.981 243.775 320.312 243.193 320.54 242.426C320.768 241.655 320.882 240.725 320.882 239.635C320.882 238.546 320.766 237.615 320.534 236.845C320.306 236.07 319.974 235.481 319.539 235.079C319.104 234.677 318.582 234.477 317.973 234.477C317.364 234.477 316.842 234.677 316.407 235.079C315.972 235.481 315.638 236.07 315.406 236.845C315.178 237.615 315.064 238.546 315.064 239.635ZM324.738 249.593H323.433L324.403 244.807H326.093L324.738 249.593ZM332.457 246.174C331.521 246.174 330.719 245.919 330.052 245.41C329.389 244.896 328.881 244.15 328.529 243.172C328.181 242.194 328.007 241.015 328.007 239.635C328.007 238.268 328.183 237.095 328.535 236.117C328.888 235.135 329.397 234.387 330.064 233.874C330.732 233.356 331.529 233.097 332.457 233.097C333.386 233.097 334.183 233.356 334.85 233.874C335.517 234.387 336.027 235.135 336.379 236.117C336.732 237.095 336.908 238.268 336.908 239.635C336.908 241.015 336.732 242.194 336.379 243.172C336.031 244.15 335.524 244.896 334.857 245.41C334.194 245.919 333.394 246.174 332.457 246.174ZM329.549 239.635C329.549 240.725 329.662 241.655 329.89 242.426C330.118 243.193 330.45 243.775 330.885 244.173C331.32 244.57 331.844 244.769 332.457 244.769C333.071 244.769 333.595 244.57 334.03 244.173C334.465 243.775 334.796 243.193 335.024 242.426C335.252 241.655 335.366 240.725 335.366 239.635C335.366 238.546 335.25 237.615 335.018 236.845C334.79 236.07 334.459 235.481 334.024 235.079C333.589 234.677 333.066 234.477 332.457 234.477C331.848 234.477 331.326 234.677 330.891 235.079C330.456 235.481 330.122 236.07 329.89 236.845C329.662 237.615 329.549 238.546 329.549 239.635ZM343.18 246.174C342.244 246.174 341.442 245.919 340.775 245.41C340.112 244.896 339.604 244.15 339.252 243.172C338.904 242.194 338.73 241.015 338.73 239.635C338.73 238.268 338.906 237.095 339.258 236.117C339.61 235.135 340.12 234.387 340.787 233.874C341.454 233.356 342.252 233.097 343.18 233.097C344.108 233.097 344.906 233.356 345.573 233.874C346.24 234.387 346.75 235.135 347.102 236.117C347.454 237.095 347.63 238.268 347.63 239.635C347.63 241.015 347.454 242.194 347.102 243.172C346.754 244.15 346.246 244.896 345.579 245.41C344.916 245.919 344.116 246.174 343.18 246.174ZM340.271 239.635C340.271 240.725 340.385 241.655 340.613 242.426C340.841 243.193 341.172 243.775 341.607 244.173C342.043 244.57 342.567 244.769 343.18 244.769C343.793 244.769 344.317 244.57 344.753 244.173C345.188 243.775 345.519 243.193 345.747 242.426C345.975 241.655 346.089 240.725 346.089 239.635C346.089 238.546 345.973 237.615 345.741 236.845C345.513 236.07 345.181 235.481 344.746 235.079C344.311 234.677 343.789 234.477 343.18 234.477C342.571 234.477 342.049 234.677 341.614 235.079C341.179 235.481 340.845 236.07 340.613 236.845C340.385 237.615 340.271 238.546 340.271 239.635ZM353.903 246.174C352.966 246.174 352.164 245.919 351.497 245.41C350.834 244.896 350.327 244.15 349.974 243.172C349.626 242.194 349.452 241.015 349.452 239.635C349.452 238.268 349.628 237.095 349.981 236.117C350.333 235.135 350.843 234.387 351.51 233.874C352.177 233.356 352.974 233.097 353.903 233.097C354.831 233.097 355.628 233.356 356.296 233.874C356.963 234.387 357.472 235.135 357.825 236.117C358.177 237.095 358.353 238.268 358.353 239.635C358.353 241.015 358.177 242.194 357.825 243.172C357.477 244.15 356.969 244.896 356.302 245.41C355.639 245.919 354.839 246.174 353.903 246.174ZM350.994 239.635C350.994 240.725 351.108 241.655 351.336 242.426C351.564 243.193 351.895 243.775 352.33 244.173C352.765 244.57 353.289 244.769 353.903 244.769C354.516 244.769 355.04 244.57 355.475 244.173C355.91 243.775 356.242 243.193 356.47 242.426C356.698 241.655 356.811 240.725 356.811 239.635C356.811 238.546 356.695 237.615 356.463 236.845C356.236 236.07 355.904 235.481 355.469 235.079C355.034 234.677 354.512 234.477 353.903 234.477C353.294 234.477 352.771 234.677 352.336 235.079C351.901 235.481 351.568 236.07 351.336 236.845C351.108 237.615 350.994 238.546 350.994 239.635ZM372.78 243.688H371.388V242.059H368.168V241.052H371.388V231.816H372.78V243.688ZM359.815 239.051C361.878 239.043 363.72 239.012 365.34 238.958C366.964 238.9 368.512 238.778 369.983 238.591L370.082 239.598C368.786 239.805 367.352 239.956 365.781 240.052V243.141H364.402V240.12C363.337 240.162 362.123 240.182 360.759 240.182H360.001L359.815 239.051ZM361.07 235.173C361.07 234.634 361.232 234.16 361.555 233.749C361.878 233.335 362.334 233.016 362.922 232.792C363.511 232.564 364.186 232.45 364.949 232.45C365.703 232.45 366.372 232.564 366.956 232.792C367.54 233.016 367.994 233.335 368.317 233.749C368.645 234.16 368.81 234.634 368.815 235.173C368.81 235.72 368.645 236.198 368.317 236.608C367.994 237.015 367.54 237.329 366.956 237.553C366.376 237.773 365.707 237.883 364.949 237.883C364.182 237.883 363.504 237.773 362.916 237.553C362.332 237.334 361.878 237.019 361.555 236.608C361.232 236.198 361.07 235.72 361.07 235.173ZM362.065 242.519H363.444V245.938H373.165V247.081H362.065V242.519ZM362.388 235.173C362.384 235.508 362.487 235.802 362.699 236.055C362.914 236.308 363.216 236.505 363.606 236.646C363.995 236.782 364.443 236.851 364.949 236.851C365.437 236.851 365.875 236.782 366.26 236.646C366.645 236.505 366.946 236.308 367.161 236.055C367.381 235.802 367.493 235.508 367.497 235.173C367.493 234.841 367.381 234.549 367.161 234.296C366.946 234.039 366.645 233.84 366.26 233.7C365.875 233.559 365.437 233.49 364.949 233.494C364.443 233.49 363.995 233.559 363.606 233.7C363.216 233.84 362.914 234.039 362.699 234.296C362.487 234.549 362.384 234.841 362.388 235.173Z" fill="#111827"/>
<path d="M32.5359 265.674C32.5359 266.3 32.7772 266.899 33.2597 267.47C33.7459 268.041 34.3794 268.521 35.1602 268.912C35.9411 269.302 36.7532 269.556 37.5967 269.674L37.0994 270.68C36.3665 270.558 35.6575 270.346 34.9724 270.044C34.291 269.742 33.6814 269.366 33.1436 268.917C32.6059 268.464 32.1934 267.961 31.9061 267.409C31.6188 267.965 31.2063 268.47 30.6685 268.923C30.1344 269.372 29.5267 269.746 28.8453 270.044C28.1639 270.343 27.4567 270.554 26.7238 270.68L26.2155 269.674C27.0626 269.556 27.8748 269.304 28.6519 268.917C29.4291 268.53 30.0589 268.053 30.5414 267.486C31.0239 266.915 31.2652 266.311 31.2652 265.674V264.878H32.5359V265.674ZM25.5635 272.204H38.2265V273.232H32.4696V278.271H31.2652V273.232H25.5635V272.204ZM46.364 265.674C46.364 266.3 46.6053 266.899 47.0878 267.47C47.574 268.041 48.2075 268.521 48.9883 268.912C49.7692 269.302 50.5813 269.556 51.4248 269.674L50.9276 270.68C50.1946 270.558 49.4856 270.346 48.8005 270.044C48.1191 269.742 47.5095 269.366 46.9718 268.917C46.434 268.464 46.0215 267.961 45.7342 267.409C45.4469 267.965 45.0344 268.47 44.4966 268.923C43.9626 269.372 43.3548 269.746 42.6734 270.044C41.992 270.343 41.2848 270.554 40.5519 270.68L40.0436 269.674C40.8907 269.556 41.7029 269.304 42.4801 268.917C43.2572 268.53 43.8871 268.053 44.3696 267.486C44.8521 266.915 45.0933 266.311 45.0933 265.674V264.878H46.364V265.674ZM39.3917 272.204H52.0546V273.232H46.2977V278.271H45.0933V273.232H39.3917V272.204ZM65.938 276.547H53.2198V275.508H56.7999V272.878H54.8109V268.591H63.1203V266.425H54.7778V265.409H64.3358V269.608H56.0264V271.862H64.6562V272.878H62.4795V275.508H65.938V276.547ZM61.275 275.508V272.878H57.9933V275.508H61.275Z" fill="#9CA3AF"/>
<path d="M353.358 278.174C352.421 278.174 351.619 277.919 350.952 277.41C350.289 276.896 349.782 276.15 349.43 275.172C349.081 274.194 348.907 273.015 348.907 271.635C348.907 270.268 349.084 269.095 349.436 268.117C349.788 267.135 350.298 266.387 350.965 265.874C351.632 265.356 352.43 265.097 353.358 265.097C354.286 265.097 355.084 265.356 355.751 265.874C356.418 266.387 356.927 267.135 357.28 268.117C357.632 269.095 357.808 270.268 357.808 271.635C357.808 273.015 357.632 274.194 357.28 275.172C356.932 276.15 356.424 276.896 355.757 277.41C355.094 277.919 354.294 278.174 353.358 278.174ZM350.449 271.635C350.449 272.725 350.563 273.655 350.791 274.426C351.019 275.193 351.35 275.775 351.785 276.173C352.22 276.57 352.744 276.769 353.358 276.769C353.971 276.769 354.495 276.57 354.93 276.173C355.365 275.775 355.697 275.193 355.925 274.426C356.153 273.655 356.267 272.725 356.267 271.635C356.267 270.546 356.151 269.615 355.919 268.845C355.691 268.07 355.359 267.481 354.924 267.079C354.489 266.677 353.967 266.477 353.358 266.477C352.749 266.477 352.227 266.677 351.791 267.079C351.356 267.481 351.023 268.07 350.791 268.845C350.563 269.615 350.449 270.546 350.449 271.635ZM372.235 275.688H370.843V274.059H367.623V273.052H370.843V263.816H372.235V275.688ZM359.27 271.051C361.333 271.043 363.175 271.012 364.795 270.958C366.419 270.9 367.967 270.778 369.438 270.591L369.538 271.598C368.241 271.805 366.807 271.956 365.236 272.052V275.141H363.857V272.12C362.792 272.162 361.578 272.182 360.214 272.182H359.456L359.27 271.051ZM360.525 267.173C360.525 266.634 360.687 266.16 361.01 265.749C361.333 265.335 361.789 265.016 362.377 264.792C362.966 264.564 363.641 264.45 364.404 264.45C365.158 264.45 365.827 264.564 366.411 264.792C366.995 265.016 367.449 265.335 367.772 265.749C368.1 266.16 368.265 266.634 368.27 267.173C368.265 267.72 368.1 268.198 367.772 268.608C367.449 269.015 366.995 269.329 366.411 269.553C365.831 269.773 365.162 269.883 364.404 269.883C363.637 269.883 362.96 269.773 362.371 269.553C361.787 269.334 361.333 269.019 361.01 268.608C360.687 268.198 360.525 267.72 360.525 267.173ZM361.52 274.519H362.899V277.938H372.62V279.081H361.52V274.519ZM361.843 267.173C361.839 267.508 361.942 267.802 362.154 268.055C362.369 268.308 362.672 268.505 363.061 268.646C363.451 268.782 363.898 268.851 364.404 268.851C364.893 268.851 365.33 268.782 365.715 268.646C366.1 268.505 366.401 268.308 366.616 268.055C366.836 267.802 366.948 267.508 366.952 267.173C366.948 266.841 366.836 266.549 366.616 266.296C366.401 266.039 366.1 265.84 365.715 265.7C365.33 265.559 364.893 265.49 364.404 265.494C363.898 265.49 363.451 265.559 363.061 265.7C362.672 265.84 362.369 266.039 362.154 266.296C361.942 266.549 361.839 266.841 361.843 267.173Z" fill="#111827"/>
<path d="M37.0331 303.829H35.8066V296.381H37.0331V303.829ZM25.884 300.249C25.884 299.626 26.0405 299.072 26.3536 298.586C26.6667 298.099 27.0994 297.722 27.6519 297.453C28.2081 297.184 28.8343 297.052 29.5304 297.055C30.2265 297.052 30.8508 297.184 31.4033 297.453C31.9558 297.722 32.3867 298.099 32.6961 298.586C33.0092 299.072 33.1657 299.626 33.1657 300.249C33.1657 300.871 33.0092 301.424 32.6961 301.906C32.3867 302.389 31.9558 302.764 31.4033 303.033C30.8508 303.302 30.2265 303.435 29.5304 303.431C28.8343 303.435 28.2081 303.302 27.6519 303.033C27.0994 302.764 26.6667 302.389 26.3536 301.906C26.0405 301.42 25.884 300.867 25.884 300.249ZM27.0884 300.249C27.0847 300.665 27.186 301.039 27.3923 301.37C27.6022 301.698 27.8932 301.954 28.2652 302.138C28.6372 302.322 29.0589 302.414 29.5304 302.414C29.9982 302.414 30.4162 302.322 30.7845 302.138C31.1565 301.954 31.4475 301.698 31.6575 301.37C31.8674 301.039 31.9724 300.665 31.9724 300.249C31.9724 299.832 31.8674 299.46 31.6575 299.133C31.4475 298.801 31.1565 298.545 30.7845 298.365C30.4162 298.18 29.9982 298.09 29.5304 298.094C29.0589 298.09 28.6372 298.18 28.2652 298.365C27.8932 298.545 27.6022 298.801 27.3923 299.133C27.186 299.46 27.0847 299.832 27.0884 300.249ZM28.0387 304.536H29.2431V306.227H35.8177V304.536H37.0331V310.083H28.0387V304.536ZM35.8177 309.077V307.21H29.2431V309.077H35.8177ZM50.4414 298.149C50.4414 298.643 50.434 299.076 50.4193 299.448C50.4082 299.82 50.3751 300.243 50.3198 300.718C50.2683 301.193 50.1836 301.7 50.0657 302.238H52.1099V303.254H39.3917V302.238H48.8337C48.9552 301.696 49.0436 301.188 49.0988 300.713C49.1578 300.238 49.1928 299.816 49.2038 299.448C49.2185 299.079 49.2259 298.646 49.2259 298.149V298.138H41.0049V297.122H50.4414V298.149ZM40.9607 305.166H50.4966V310.083H40.9607V305.166ZM49.2812 309.077V306.138H42.1651V309.077H49.2812ZM65.1093 310.271H63.938V296.381H65.1093V310.271ZM53.2087 306.381C54.6857 305.505 55.8183 304.457 56.6065 303.238C57.3984 302.015 57.857 300.661 57.9822 299.177H53.8275V298.149H59.1977C59.1977 298.875 59.1351 299.575 59.0098 300.249H61.1203V296.757H62.3027V309.564H61.1203V304.746H58.5458V303.729H61.1203V301.265H58.7723C58.4224 302.481 57.8496 303.595 57.054 304.608C56.2621 305.617 55.2272 306.503 53.9491 307.265L53.2087 306.381ZM71.9208 298.867C71.9172 299.449 72.0608 300.006 72.3518 300.536C72.6464 301.063 73.0553 301.525 73.5783 301.923C74.105 302.317 74.7054 302.617 75.3794 302.823L74.7938 303.796C73.9871 303.541 73.28 303.157 72.6722 302.641C72.0682 302.125 71.6151 301.519 71.3131 300.823C71.0074 301.575 70.5433 302.228 69.9208 302.785C69.3021 303.337 68.5765 303.751 67.744 304.028L67.1142 303.055C67.8103 302.838 68.4273 302.521 68.965 302.105C69.5028 301.689 69.9227 301.203 70.2247 300.646C70.5267 300.087 70.6796 299.494 70.6833 298.867V298.702H67.5341V297.674H75.0479V298.702H71.9208V298.867ZM66.8711 306.326C68.5028 306.326 69.7772 306.313 70.6943 306.287V303.453H71.9208V306.243C73.3941 306.173 74.6428 306.064 75.6667 305.917L75.7551 306.823C74.8343 306.985 73.8711 307.105 72.8656 307.182C71.8601 307.26 70.9245 307.308 70.059 307.326C69.1971 307.344 68.1971 307.354 67.059 307.354L66.8711 306.326ZM76.5617 296.381H77.7772V302.149H80.0424V303.199H77.7772V310.271H76.5617V296.381Z" fill="#9CA3AF"/>
<path d="M173.66 299.421H177.141V296.985H178.434V304.17H172.355V296.985H173.66V299.421ZM177.141 303.051V300.528H173.66V303.051H177.141ZM174.493 308.583C174.489 307.99 174.696 307.483 175.115 307.06C175.537 306.637 176.142 306.316 176.93 306.097C177.721 305.873 178.657 305.761 179.739 305.761C180.812 305.761 181.742 305.873 182.53 306.097C183.321 306.316 183.928 306.64 184.351 307.066C184.773 307.489 184.985 307.994 184.985 308.583C184.985 309.167 184.773 309.671 184.351 310.093C183.928 310.516 183.321 310.837 182.53 311.057C181.742 311.28 180.812 311.392 179.739 311.392C178.657 311.392 177.721 311.28 176.93 311.057C176.142 310.837 175.537 310.516 175.115 310.093C174.696 309.675 174.489 309.171 174.493 308.583ZM175.86 308.583C175.856 308.939 176.01 309.246 176.32 309.503C176.635 309.76 177.085 309.956 177.669 310.093C178.253 310.23 178.943 310.298 179.739 310.298C180.526 310.298 181.21 310.23 181.79 310.093C182.374 309.956 182.824 309.76 183.139 309.503C183.454 309.246 183.613 308.939 183.617 308.583C183.613 308.222 183.454 307.912 183.139 307.651C182.824 307.39 182.374 307.191 181.79 307.054C181.21 306.913 180.526 306.843 179.739 306.843C178.943 306.843 178.253 306.913 177.669 307.054C177.085 307.191 176.635 307.39 176.32 307.651C176.01 307.912 175.856 308.222 175.86 308.583ZM180.211 296.115H181.504V299.981H183.593V295.816H184.898V305.388H183.593V301.124H181.504V304.916H180.211V296.115ZM195.507 296.885C195.499 298.916 194.892 300.64 193.686 302.057C192.48 303.474 190.642 304.547 188.173 305.276L187.651 304.145C190.224 303.412 192.024 302.291 193.052 300.782L187.762 301.186L187.526 300.043L193.605 299.769C193.829 299.222 193.97 298.634 194.028 298.004H188.309V296.885H195.507ZM189.615 308.409C189.615 307.783 189.826 307.247 190.249 306.799C190.675 306.352 191.287 306.012 192.082 305.78C192.878 305.544 193.82 305.425 194.91 305.425C195.983 305.425 196.916 305.544 197.707 305.78C198.499 306.016 199.106 306.358 199.528 306.805C199.955 307.253 200.169 307.787 200.169 308.409C200.169 309.035 199.955 309.571 199.528 310.019C199.106 310.466 198.499 310.806 197.707 311.038C196.92 311.274 195.988 311.392 194.91 311.392C193.816 311.392 192.872 311.274 192.076 311.038C191.285 310.806 190.675 310.466 190.249 310.019C189.826 309.571 189.615 309.035 189.615 308.409ZM190.994 308.409C190.994 308.794 191.152 309.13 191.467 309.416C191.782 309.702 192.233 309.919 192.822 310.068C193.41 310.222 194.106 310.298 194.91 310.298C195.702 310.298 196.39 310.222 196.974 310.068C197.558 309.915 198.008 309.698 198.323 309.416C198.642 309.13 198.801 308.794 198.801 308.409C198.801 308.023 198.642 307.69 198.323 307.408C198.008 307.122 197.558 306.903 196.974 306.749C196.39 306.596 195.702 306.519 194.91 306.519C194.106 306.519 193.41 306.596 192.822 306.749C192.233 306.898 191.782 307.116 191.467 307.402C191.152 307.688 190.994 308.023 190.994 308.409ZM198.714 295.816H200.094V305.214H198.714V295.816ZM216.993 305.164H202.747V304.046H216.993V305.164ZM204.326 299.446C204.326 298.804 204.55 298.249 204.997 297.78C205.449 297.312 206.091 296.956 206.924 296.711C207.757 296.467 208.735 296.347 209.858 296.351C210.977 296.347 211.95 296.467 212.779 296.711C213.612 296.956 214.252 297.312 214.7 297.78C215.151 298.249 215.377 298.804 215.377 299.446C215.377 300.088 215.151 300.646 214.7 301.118C214.252 301.586 213.612 301.945 212.779 302.193C211.95 302.442 210.977 302.566 209.858 302.566C208.735 302.566 207.757 302.442 206.924 302.193C206.091 301.945 205.449 301.586 204.997 301.118C204.55 300.646 204.326 300.088 204.326 299.446ZM204.587 306.544H205.979V309.938H215.402V311.081H204.587V306.544ZM205.756 299.446C205.751 299.856 205.915 300.211 206.247 300.509C206.582 300.807 207.059 301.037 207.676 301.199C208.298 301.356 209.025 301.435 209.858 301.435C210.691 301.435 211.416 301.356 212.033 301.199C212.655 301.037 213.133 300.807 213.469 300.509C213.805 300.211 213.972 299.856 213.972 299.446C213.972 299.044 213.805 298.694 213.469 298.396C213.133 298.097 212.655 297.869 212.033 297.712C211.416 297.55 210.691 297.47 209.858 297.47C209.025 297.47 208.298 297.55 207.676 297.712C207.059 297.869 206.582 298.097 206.247 298.396C205.915 298.694 205.751 299.044 205.756 299.446ZM231.568 305.699H230.262V301.211H228.162V305.14H226.869V296.115H228.162V300.068H230.262V295.804H231.568V305.699ZM218.217 297.681H221.561V295.916H222.928V297.681H226.235V298.787H218.217V297.681ZM218.901 302.293C218.896 301.758 219.035 301.29 219.317 300.888C219.599 300.482 219.992 300.169 220.498 299.95C221.003 299.73 221.582 299.62 222.232 299.62C222.891 299.62 223.473 299.73 223.979 299.95C224.488 300.169 224.884 300.482 225.166 300.888C225.452 301.29 225.597 301.758 225.601 302.293C225.597 302.823 225.452 303.289 225.166 303.691C224.884 304.093 224.488 304.404 223.979 304.624C223.473 304.843 222.891 304.953 222.232 304.953C221.582 304.953 221.003 304.843 220.498 304.624C219.992 304.404 219.599 304.093 219.317 303.691C219.035 303.289 218.896 302.823 218.901 302.293ZM220.131 302.293C220.131 302.612 220.218 302.896 220.392 303.144C220.57 303.389 220.819 303.579 221.138 303.716C221.457 303.853 221.822 303.921 222.232 303.921C222.646 303.921 223.013 303.853 223.332 303.716C223.651 303.579 223.9 303.389 224.078 303.144C224.256 302.896 224.345 302.612 224.345 302.293C224.345 301.97 224.256 301.684 224.078 301.435C223.9 301.186 223.651 300.994 223.332 300.857C223.013 300.72 222.646 300.652 222.232 300.652C221.822 300.652 221.457 300.72 221.138 300.857C220.819 300.994 220.57 301.186 220.392 301.435C220.218 301.684 220.131 301.97 220.131 302.293ZM221.163 308.695C221.159 308.115 221.364 307.622 221.778 307.215C222.197 306.805 222.798 306.494 223.581 306.283C224.368 306.068 225.311 305.96 226.409 305.96C227.503 305.96 228.441 306.068 229.224 306.283C230.012 306.494 230.613 306.805 231.027 307.215C231.445 307.622 231.655 308.115 231.655 308.695C231.655 309.262 231.445 309.747 231.027 310.149C230.613 310.555 230.012 310.864 229.224 311.075C228.437 311.287 227.499 311.392 226.409 311.392C225.315 311.392 224.374 311.287 223.587 311.075C222.8 310.864 222.197 310.555 221.778 310.149C221.364 309.747 221.159 309.262 221.163 308.695ZM222.53 308.695C222.526 309.03 222.678 309.32 222.984 309.565C223.295 309.809 223.74 309.996 224.32 310.124C224.905 310.253 225.601 310.315 226.409 310.311C227.213 310.315 227.905 310.253 228.485 310.124C229.065 309.996 229.508 309.811 229.815 309.571C230.126 309.327 230.283 309.035 230.287 308.695C230.283 308.343 230.126 308.042 229.815 307.794C229.508 307.545 229.065 307.356 228.485 307.228C227.905 307.099 227.213 307.037 226.409 307.041C225.597 307.037 224.899 307.099 224.314 307.228C223.734 307.356 223.291 307.545 222.984 307.794C222.678 308.042 222.526 308.343 222.53 308.695ZM238.627 306.097L244.357 297.271H246.297V306.01H248.087V307.402H246.297V310H244.792V307.402H238.627V306.097ZM244.792 306.01V299.272H244.643L240.33 305.91V306.01H244.792ZM254.322 310.174C253.564 310.174 252.876 310.029 252.258 309.739C251.641 309.449 251.148 309.049 250.779 308.539C250.414 308.026 250.216 307.448 250.182 306.805H251.724C251.761 307.178 251.898 307.516 252.134 307.818C252.374 308.117 252.685 308.353 253.066 308.527C253.452 308.697 253.87 308.782 254.322 308.782C254.865 308.782 255.352 308.66 255.783 308.415C256.218 308.171 256.557 307.835 256.802 307.408C257.046 306.981 257.169 306.503 257.169 305.972C257.169 305.43 257.04 304.941 256.783 304.506C256.53 304.066 256.178 303.722 255.727 303.474C255.279 303.221 254.774 303.093 254.21 303.088C253.075 303.076 252.283 303.457 251.836 304.232H250.307L251.202 297.271H258.101V298.675H252.519L252.047 302.405H252.184C252.47 302.181 252.816 302.003 253.222 301.87C253.632 301.738 254.057 301.671 254.496 301.671C255.296 301.671 256.015 301.856 256.653 302.224C257.295 302.589 257.798 303.097 258.163 303.747C258.528 304.394 258.71 305.123 258.71 305.935C258.71 306.743 258.521 307.47 258.144 308.117C257.767 308.759 257.245 309.262 256.578 309.627C255.911 309.992 255.159 310.174 254.322 310.174ZM265.385 310.174C264.565 310.174 263.802 309.99 263.098 309.621C262.398 309.248 261.822 308.612 261.37 307.713C260.923 306.809 260.699 305.612 260.699 304.12C260.699 302.637 260.894 301.369 261.283 300.316C261.673 299.264 262.23 298.464 262.955 297.917C263.68 297.37 264.54 297.097 265.534 297.097C266.268 297.097 266.927 297.24 267.511 297.526C268.099 297.807 268.578 298.203 268.947 298.713C269.316 299.218 269.554 299.802 269.662 300.465H268.095C267.946 299.877 267.652 299.403 267.213 299.042C266.773 298.682 266.214 298.501 265.534 298.501C264.842 298.501 264.246 298.694 263.744 299.079C263.243 299.461 262.858 300.016 262.588 300.745C262.323 301.474 262.191 302.347 262.191 303.362H262.352C262.721 302.823 263.187 302.407 263.751 302.113C264.318 301.818 264.942 301.671 265.621 301.671C266.371 301.671 267.063 301.854 267.697 302.218C268.331 302.579 268.835 303.08 269.208 303.722C269.585 304.365 269.773 305.086 269.773 305.885C269.773 306.681 269.591 307.406 269.226 308.061C268.862 308.711 268.346 309.227 267.679 309.608C267.016 309.985 266.251 310.174 265.385 310.174ZM262.414 305.923C262.414 306.42 262.541 306.888 262.793 307.327C263.046 307.767 263.394 308.119 263.838 308.384C264.285 308.649 264.784 308.782 265.336 308.782C265.874 308.782 266.365 308.653 266.809 308.396C267.252 308.14 267.6 307.791 267.853 307.352C268.11 306.909 268.24 306.424 268.244 305.898C268.24 305.384 268.114 304.912 267.865 304.481C267.621 304.046 267.281 303.702 266.846 303.449C266.411 303.192 265.924 303.064 265.385 303.064C264.842 303.064 264.343 303.196 263.887 303.461C263.436 303.727 263.077 304.079 262.812 304.518C262.551 304.957 262.418 305.425 262.414 305.923ZM278.19 298.775V298.675H271.464V297.271H279.83V298.75L274.013 310H272.347L278.19 298.775ZM285.899 310.174C285.016 310.174 284.231 310.023 283.543 309.72C282.855 309.418 282.321 308.997 281.939 308.459C281.558 307.916 281.37 307.302 281.374 306.619C281.37 306.084 281.481 305.585 281.709 305.121C281.937 304.653 282.248 304.267 282.642 303.965C283.039 303.658 283.479 303.465 283.959 303.387V303.325C283.545 303.225 283.178 303.039 282.859 302.765C282.54 302.492 282.294 302.156 282.12 301.758C281.946 301.36 281.859 300.934 281.859 300.478C281.859 299.836 282.033 299.258 282.381 298.744C282.729 298.23 283.209 297.828 283.823 297.538C284.44 297.244 285.132 297.097 285.899 297.097C286.661 297.097 287.347 297.244 287.956 297.538C288.569 297.828 289.05 298.23 289.398 298.744C289.746 299.258 289.922 299.836 289.926 300.478C289.922 300.934 289.831 301.36 289.653 301.758C289.479 302.156 289.232 302.492 288.913 302.765C288.598 303.039 288.236 303.225 287.825 303.325V303.387C288.302 303.465 288.737 303.658 289.131 303.965C289.528 304.267 289.841 304.653 290.069 305.121C290.301 305.585 290.419 306.084 290.423 306.619C290.419 307.302 290.225 307.916 289.839 308.459C289.454 308.997 288.917 309.418 288.229 309.72C287.546 310.023 286.769 310.174 285.899 310.174ZM282.952 306.532C282.944 306.979 283.058 307.373 283.294 307.713C283.53 308.048 283.872 308.311 284.32 308.502C284.767 308.689 285.294 308.782 285.899 308.782C286.495 308.782 287.015 308.689 287.459 308.502C287.902 308.311 288.244 308.048 288.484 307.713C288.725 307.373 288.845 306.979 288.845 306.532C288.845 306.068 288.716 305.651 288.459 305.282C288.207 304.914 287.856 304.624 287.409 304.412C286.961 304.201 286.458 304.095 285.899 304.095C285.335 304.095 284.827 304.201 284.376 304.412C283.924 304.624 283.572 304.916 283.319 305.289C283.066 305.657 282.944 306.072 282.952 306.532ZM283.4 300.59C283.4 301.017 283.506 301.394 283.717 301.721C283.928 302.048 284.222 302.303 284.6 302.485C284.981 302.664 285.414 302.753 285.899 302.753C286.375 302.753 286.802 302.664 287.179 302.485C287.556 302.303 287.85 302.048 288.062 301.721C288.277 301.39 288.385 301.012 288.385 300.59C288.385 300.171 288.279 299.802 288.068 299.483C287.861 299.16 287.568 298.91 287.191 298.731C286.818 298.553 286.388 298.464 285.899 298.464C285.401 298.464 284.962 298.553 284.581 298.731C284.204 298.91 283.912 299.16 283.705 299.483C283.501 299.802 283.4 300.171 283.4 300.59ZM296.74 297.097C297.556 297.097 298.315 297.283 299.015 297.656C299.715 298.029 300.289 298.665 300.737 299.564C301.188 300.459 301.414 301.646 301.414 303.126C301.414 304.617 301.219 305.892 300.83 306.948C300.44 308.001 299.883 308.802 299.158 309.354C298.433 309.901 297.573 310.174 296.578 310.174C295.845 310.174 295.184 310.033 294.596 309.751C294.007 309.47 293.527 309.074 293.154 308.564C292.785 308.05 292.547 307.456 292.439 306.78H294.005C294.154 307.381 294.449 307.864 294.888 308.229C295.331 308.589 295.895 308.769 296.578 308.769C297.266 308.769 297.861 308.577 298.362 308.191C298.868 307.806 299.255 307.249 299.525 306.519C299.794 305.786 299.931 304.907 299.935 303.884H299.761C299.392 304.419 298.924 304.835 298.356 305.133C297.793 305.427 297.175 305.575 296.504 305.575C295.75 305.575 295.054 305.394 294.415 305.034C293.781 304.669 293.276 304.166 292.899 303.523C292.526 302.881 292.339 302.16 292.339 301.36C292.339 300.577 292.52 299.86 292.88 299.21C293.245 298.559 293.761 298.046 294.428 297.669C295.099 297.287 295.87 297.097 296.74 297.097ZM293.881 301.348C293.881 301.87 294.003 302.349 294.248 302.784C294.496 303.215 294.838 303.557 295.273 303.809C295.708 304.058 296.197 304.182 296.74 304.182C297.279 304.182 297.772 304.05 298.219 303.785C298.671 303.515 299.027 303.161 299.288 302.722C299.554 302.282 299.686 301.816 299.686 301.323C299.686 300.834 299.56 300.372 299.307 299.937C299.054 299.502 298.706 299.152 298.263 298.887C297.824 298.622 297.333 298.489 296.79 298.489C296.247 298.489 295.752 298.617 295.304 298.874C294.861 299.131 294.511 299.479 294.254 299.919C294.001 300.354 293.877 300.83 293.881 301.348ZM307.754 310.174C306.818 310.174 306.016 309.919 305.349 309.41C304.686 308.896 304.178 308.15 303.826 307.172C303.478 306.194 303.304 305.015 303.304 303.635C303.304 302.268 303.48 301.095 303.832 300.117C304.184 299.135 304.694 298.387 305.361 297.874C306.028 297.356 306.826 297.097 307.754 297.097C308.682 297.097 309.48 297.356 310.147 297.874C310.814 298.387 311.324 299.135 311.676 300.117C312.028 301.095 312.204 302.268 312.204 303.635C312.204 305.015 312.028 306.194 311.676 307.172C311.328 308.15 310.821 308.896 310.153 309.41C309.49 309.919 308.691 310.174 307.754 310.174ZM304.845 303.635C304.845 304.725 304.959 305.655 305.187 306.426C305.415 307.193 305.747 307.775 306.182 308.173C306.617 308.57 307.141 308.769 307.754 308.769C308.367 308.769 308.892 308.57 309.327 308.173C309.762 307.775 310.093 307.193 310.321 306.426C310.549 305.655 310.663 304.725 310.663 303.635C310.663 302.546 310.547 301.615 310.315 300.845C310.087 300.07 309.756 299.481 309.321 299.079C308.885 298.677 308.363 298.477 307.754 298.477C307.145 298.477 306.623 298.677 306.188 299.079C305.753 299.481 305.419 300.07 305.187 300.845C304.959 301.615 304.845 302.546 304.845 303.635ZM318.813 310H317.221V298.924H317.147L314.051 300.975V299.384L317.221 297.271H318.813V310ZM322.193 308.844L326.531 304.269C327.103 303.66 327.538 303.171 327.836 302.802C328.139 302.43 328.369 302.071 328.526 301.727C328.684 301.379 328.764 301.017 328.769 300.64C328.764 300.209 328.651 299.829 328.427 299.502C328.207 299.175 327.905 298.922 327.519 298.744C327.138 298.566 326.709 298.477 326.233 298.477C325.735 298.477 325.298 298.576 324.921 298.775C324.548 298.974 324.26 299.253 324.057 299.614C323.858 299.974 323.759 300.391 323.759 300.863H322.255C322.251 300.126 322.423 299.473 322.771 298.905C323.123 298.334 323.606 297.89 324.219 297.575C324.832 297.256 325.52 297.097 326.282 297.097C327.037 297.097 327.714 297.254 328.315 297.569C328.92 297.88 329.392 298.305 329.732 298.843C330.072 299.382 330.244 299.981 330.248 300.64C330.244 301.124 330.153 301.588 329.974 302.032C329.8 302.471 329.504 302.96 329.086 303.499C328.671 304.037 328.081 304.7 327.314 305.488L324.405 308.496V308.595H330.472V310H322.205L322.193 308.844ZM337.17 310.174C336.333 310.174 335.583 310.033 334.92 309.751C334.257 309.47 333.733 309.074 333.348 308.564C332.966 308.055 332.761 307.468 332.732 306.805H334.336C334.365 307.199 334.506 307.545 334.758 307.843C335.011 308.137 335.345 308.365 335.759 308.527C336.178 308.689 336.64 308.769 337.145 308.769C337.7 308.769 338.198 308.676 338.637 308.49C339.076 308.299 339.42 308.034 339.669 307.694C339.917 307.354 340.042 306.967 340.042 306.532C340.042 306.068 339.919 305.657 339.675 305.301C339.435 304.945 339.082 304.667 338.618 304.468C338.154 304.269 337.597 304.17 336.946 304.17H335.915V302.778H336.946C337.46 302.778 337.916 302.686 338.314 302.504C338.716 302.322 339.026 302.067 339.246 301.74C339.47 301.408 339.582 301.025 339.582 300.59C339.582 300.171 339.484 299.802 339.29 299.483C339.095 299.164 338.817 298.918 338.457 298.744C338.096 298.566 337.676 298.477 337.195 298.477C336.739 298.477 336.31 298.557 335.908 298.719C335.511 298.881 335.187 299.113 334.939 299.415C334.69 299.713 334.555 300.064 334.535 300.465H333.006C333.031 299.811 333.234 299.229 333.615 298.719C333.996 298.205 334.504 297.807 335.138 297.526C335.772 297.24 336.466 297.097 337.22 297.097C338.003 297.097 338.689 297.252 339.277 297.563C339.87 297.874 340.323 298.29 340.638 298.812C340.957 299.334 341.115 299.902 341.111 300.515C341.115 300.988 341.03 301.419 340.856 301.808C340.682 302.198 340.431 302.527 340.104 302.796C339.776 303.066 339.391 303.262 338.948 303.387V303.486C339.495 303.569 339.967 303.749 340.365 304.027C340.767 304.3 341.073 304.655 341.285 305.09C341.496 305.521 341.6 306.006 341.596 306.544C341.6 307.228 341.409 307.847 341.024 308.403C340.642 308.954 340.112 309.387 339.433 309.702C338.757 310.017 338.003 310.174 337.17 310.174ZM348.043 310.174C347.107 310.174 346.305 309.919 345.638 309.41C344.975 308.896 344.467 308.15 344.115 307.172C343.767 306.194 343.593 305.015 343.593 303.635C343.593 302.268 343.769 301.095 344.121 300.117C344.474 299.135 344.983 298.387 345.65 297.874C346.317 297.356 347.115 297.097 348.043 297.097C348.971 297.097 349.769 297.356 350.436 297.874C351.103 298.387 351.613 299.135 351.965 300.117C352.317 301.095 352.494 302.268 352.494 303.635C352.494 305.015 352.317 306.194 351.965 307.172C351.617 308.15 351.11 308.896 350.442 309.41C349.779 309.919 348.98 310.174 348.043 310.174ZM345.134 303.635C345.134 304.725 345.248 305.655 345.476 306.426C345.704 307.193 346.036 307.775 346.471 308.173C346.906 308.57 347.43 308.769 348.043 308.769C348.657 308.769 349.181 308.57 349.616 308.173C350.051 307.775 350.382 307.193 350.61 306.426C350.838 305.655 350.952 304.725 350.952 303.635C350.952 302.546 350.836 301.615 350.604 300.845C350.376 300.07 350.045 299.481 349.61 299.079C349.174 298.677 348.652 298.477 348.043 298.477C347.434 298.477 346.912 298.677 346.477 299.079C346.042 299.481 345.708 300.07 345.476 300.845C345.248 301.615 345.134 302.546 345.134 303.635ZM358.766 310.174C357.829 310.174 357.028 309.919 356.361 309.41C355.698 308.896 355.19 308.15 354.838 307.172C354.49 306.194 354.316 305.015 354.316 303.635C354.316 302.268 354.492 301.095 354.844 300.117C355.196 299.135 355.706 298.387 356.373 297.874C357.04 297.356 357.838 297.097 358.766 297.097C359.694 297.097 360.492 297.356 361.159 297.874C361.826 298.387 362.336 299.135 362.688 300.117C363.04 301.095 363.216 302.268 363.216 303.635C363.216 305.015 363.04 306.194 362.688 307.172C362.34 308.15 361.832 308.896 361.165 309.41C360.502 309.919 359.702 310.174 358.766 310.174ZM355.857 303.635C355.857 304.725 355.971 305.655 356.199 306.426C356.427 307.193 356.758 307.775 357.193 308.173C357.629 308.57 358.153 308.769 358.766 308.769C359.379 308.769 359.903 308.57 360.338 308.173C360.774 307.775 361.105 307.193 361.333 306.426C361.561 305.655 361.675 304.725 361.675 303.635C361.675 302.546 361.559 301.615 361.327 300.845C361.099 300.07 360.767 299.481 360.332 299.079C359.897 298.677 359.375 298.477 358.766 298.477C358.157 298.477 357.635 298.677 357.2 299.079C356.765 299.481 356.431 300.07 356.199 300.845C355.971 301.615 355.857 302.546 355.857 303.635ZM369.489 310.174C368.552 310.174 367.75 309.919 367.083 309.41C366.42 308.896 365.913 308.15 365.56 307.172C365.212 306.194 365.038 305.015 365.038 303.635C365.038 302.268 365.214 301.095 365.567 300.117C365.919 299.135 366.429 298.387 367.096 297.874C367.763 297.356 368.56 297.097 369.489 297.097C370.417 297.097 371.214 297.356 371.882 297.874C372.549 298.387 373.058 299.135 373.411 300.117C373.763 301.095 373.939 302.268 373.939 303.635C373.939 305.015 373.763 306.194 373.411 307.172C373.062 308.15 372.555 308.896 371.888 309.41C371.225 309.919 370.425 310.174 369.489 310.174ZM366.58 303.635C366.58 304.725 366.694 305.655 366.922 306.426C367.15 307.193 367.481 307.775 367.916 308.173C368.351 308.57 368.875 308.769 369.489 308.769C370.102 308.769 370.626 308.57 371.061 308.173C371.496 307.775 371.828 307.193 372.056 306.426C372.283 305.655 372.397 304.725 372.397 303.635C372.397 302.546 372.281 301.615 372.049 300.845C371.821 300.07 371.49 299.481 371.055 299.079C370.62 298.677 370.098 298.477 369.489 298.477C368.879 298.477 368.357 298.677 367.922 299.079C367.487 299.481 367.154 300.07 366.922 300.845C366.694 301.615 366.58 302.546 366.58 303.635Z" fill="#111827"/>
<rect x="25.5" y="374.5" width="349" height="53" rx="4.5" stroke="#D1D5DB"/>
<path d="M53.9746 392.797V408.424H52.6211V400.338H50.3711V407.615H49.0703V393.148H50.3711V399.16H52.6211V392.797H53.9746ZM41.4238 404.381V394.713H42.7949V403.15C44.3418 403.142 46.0117 403.027 47.9102 402.641L48.0859 403.871C45.9062 404.267 44.1133 404.381 42.3906 404.381H41.4238ZM74.9453 401.094V402.219H60.6895V401.094H67.123V399.547H62.5879V393.254H73.1699V394.379H63.9766V395.838H72.748V396.893H63.9766V398.439H73.2578V399.547H68.4941V401.094H74.9453ZM62.4297 405.893C62.4209 404.267 64.3633 403.379 67.8262 403.396C71.2539 403.379 73.1875 404.267 73.2051 405.893C73.1875 407.536 71.2539 408.389 67.8262 408.389C64.3633 408.389 62.4209 407.536 62.4297 405.893ZM63.8184 405.893C63.8008 406.842 65.2422 407.334 67.8262 407.316C70.3838 407.334 71.8076 406.842 71.8164 405.893C71.8076 404.961 70.3838 404.442 67.8262 404.434C65.2422 404.442 63.8008 404.961 63.8184 405.893ZM81.5547 395.768C81.5635 397.815 83.0928 399.644 85.3867 400.391L84.7363 401.48C82.9346 400.883 81.5723 399.644 80.8955 398.07C80.2275 399.863 78.7861 401.261 76.9141 401.938L76.2109 400.83C78.5488 400.039 80.1836 398.026 80.2012 395.768V395.1H76.6328V393.957H85.0703V395.1H81.5547V395.768ZM78.2852 405.506C78.2939 403.704 80.2539 402.658 83.4707 402.658C86.6787 402.658 88.6211 403.704 88.6211 405.506C88.6211 407.334 86.6787 408.389 83.4707 408.389C80.2539 408.389 78.2939 407.334 78.2852 405.506ZM79.6738 405.506C79.6562 406.631 81.1152 407.29 83.4707 407.281C85.835 407.29 87.2764 406.631 87.2852 405.506C87.2764 404.416 85.835 403.766 83.4707 403.766C81.1152 403.766 79.6562 404.416 79.6738 405.506ZM87.1094 402.236V392.797H88.4805V396.787H90.8359V397.947H88.4805V402.236H87.1094ZM110.646 405.365V406.508H96.3379V405.365H100.328V401.639H97.6387V400.496H100.082V395.398H97.6035V394.256H109.275V395.398H106.797V400.496H109.24V401.639H106.551V405.365H110.646ZM101.453 400.496H105.443V395.398H101.453V400.496ZM101.717 405.365H105.18V401.639H101.717V405.365ZM117.449 396.998C117.44 399.854 119.383 402.72 121.686 403.766L120.842 404.855C119.058 403.994 117.52 402.14 116.772 399.916C116.052 402.271 114.514 404.249 112.686 405.172L111.807 404.012C114.136 402.948 116.061 399.96 116.078 396.998V394.15H117.449V396.998ZM123.391 408.459V392.797H124.779V408.459H123.391Z" fill="#6B7280"/>
<path d="M210.764 405.501H203.541V395.345H210.764V405.501ZM209.421 404.37V396.452H204.909V404.37H209.421ZM214.133 393.804H215.512V409.454H214.133V393.804ZM231.094 402.182H229.714V393.804H231.094V402.182ZM218.551 398.155C218.551 397.454 218.727 396.831 219.079 396.284C219.432 395.737 219.919 395.312 220.54 395.01C221.166 394.707 221.87 394.558 222.653 394.562C223.436 394.558 224.139 394.707 224.76 395.01C225.382 395.312 225.867 395.737 226.215 396.284C226.567 396.831 226.743 397.454 226.743 398.155C226.743 398.855 226.567 399.477 226.215 400.019C225.867 400.562 225.382 400.985 224.76 401.287C224.139 401.59 223.436 401.739 222.653 401.735C221.87 401.739 221.166 401.59 220.54 401.287C219.919 400.985 219.432 400.562 219.079 400.019C218.727 399.472 218.551 398.851 218.551 398.155ZM219.906 398.155C219.902 398.623 220.016 399.044 220.248 399.416C220.484 399.785 220.811 400.073 221.23 400.28C221.648 400.488 222.123 400.591 222.653 400.591C223.18 400.591 223.65 400.488 224.064 400.28C224.483 400.073 224.81 399.785 225.046 399.416C225.282 399.044 225.401 398.623 225.401 398.155C225.401 397.686 225.282 397.268 225.046 396.899C224.81 396.526 224.483 396.238 224.064 396.035C223.65 395.828 223.18 395.727 222.653 395.731C222.123 395.727 221.648 395.828 221.23 396.035C220.811 396.238 220.484 396.526 220.248 396.899C220.016 397.268 219.902 397.686 219.906 398.155ZM220.975 402.978H222.33V404.88H229.727V402.978H231.094V409.218H220.975V402.978ZM229.727 408.087V405.986H222.33V408.087H229.727ZM241.156 399.149H235.786V401.573C237.332 401.573 238.546 401.548 239.428 401.499C240.315 401.445 241.198 401.337 242.076 401.175L242.213 402.319C241.289 402.472 240.363 402.574 239.434 402.624C238.51 402.669 237.207 402.692 235.525 402.692H234.419V398.08H239.789V395.88H234.381V394.761H241.156V399.149ZM236.171 404.258H246.7V409.454H245.32V405.39H236.171V404.258ZM242.2 399.373H245.32V397.26H242.2V396.141H245.32V393.816H246.7V403.413H245.32V400.504H242.2V399.373ZM254.861 398.006C254.856 398.93 255.045 399.847 255.426 400.759C255.807 401.671 256.321 402.481 256.968 403.189C257.618 403.894 258.325 404.42 259.087 404.768L258.242 405.862C257.653 405.572 257.096 405.182 256.57 404.693C256.044 404.2 255.575 403.631 255.165 402.984C254.755 402.338 254.428 401.648 254.183 400.914C253.943 401.693 253.617 402.427 253.207 403.115C252.801 403.798 252.331 404.403 251.796 404.93C251.262 405.456 250.692 405.87 250.087 406.173L249.217 405.017C249.988 404.66 250.698 404.117 251.349 403.388C251.999 402.655 252.515 401.816 252.896 400.871C253.282 399.926 253.477 398.971 253.481 398.006V395.159H254.861V398.006ZM260.803 393.804H262.182V409.454H260.803V393.804ZM277.222 395.258C277.222 395.963 277.493 396.636 278.036 397.278C278.583 397.921 279.296 398.461 280.174 398.901C281.053 399.34 281.967 399.626 282.915 399.758L282.356 400.89C281.531 400.753 280.734 400.515 279.963 400.175C279.196 399.835 278.511 399.412 277.906 398.907C277.301 398.397 276.837 397.831 276.513 397.21C276.19 397.836 275.726 398.403 275.121 398.913C274.52 399.419 273.837 399.839 273.07 400.175C272.304 400.51 271.508 400.749 270.683 400.89L270.112 399.758C271.065 399.626 271.978 399.342 272.853 398.907C273.727 398.472 274.435 397.935 274.978 397.297C275.521 396.655 275.792 395.975 275.792 395.258V394.363H277.222V395.258ZM269.378 402.605H283.624V403.761H277.147V409.43H275.792V403.761H269.378V402.605ZM290.827 396.75C290.827 397.268 290.987 397.757 291.306 398.217C291.625 398.677 292.07 399.077 292.642 399.416C293.214 399.752 293.868 400.003 294.606 400.169L294.034 401.262C293.131 401.043 292.344 400.703 291.672 400.243C291.005 399.783 290.502 399.236 290.162 398.602C289.83 399.29 289.323 399.885 288.639 400.386C287.96 400.883 287.16 401.246 286.24 401.474L285.643 400.38C286.389 400.21 287.048 399.945 287.62 399.584C288.196 399.224 288.643 398.799 288.962 398.31C289.286 397.817 289.447 397.297 289.447 396.75V396.688H285.967V395.594H289.447V393.841H290.827V395.594H294.308V396.688H290.827V396.75ZM284.897 402.58C286.936 402.58 288.799 402.551 290.485 402.493C292.176 402.435 293.786 402.307 295.315 402.108L295.414 403.115C294.08 403.338 292.563 403.502 290.864 403.606V408.97H289.484V403.674C288.221 403.724 286.754 403.749 285.084 403.749L284.897 402.58ZM296.471 393.816H297.826V409.442H296.471V393.816ZM313.395 405.24H312.015V393.816H313.395V405.24ZM300.852 398.739C300.852 398.001 301.03 397.343 301.386 396.762C301.743 396.178 302.234 395.724 302.859 395.401C303.485 395.074 304.183 394.91 304.954 394.91C305.725 394.91 306.421 395.074 307.043 395.401C307.668 395.724 308.157 396.178 308.509 396.762C308.866 397.343 309.044 398.001 309.044 398.739C309.044 399.485 308.866 400.15 308.509 400.734C308.157 401.318 307.668 401.774 307.043 402.102C306.421 402.425 305.725 402.584 304.954 402.58C304.183 402.584 303.485 402.425 302.859 402.102C302.234 401.774 301.743 401.318 301.386 400.734C301.03 400.15 300.852 399.485 300.852 398.739ZM302.207 398.739C302.203 399.249 302.319 399.704 302.555 400.106C302.795 400.504 303.125 400.815 303.543 401.039C303.962 401.262 304.432 401.374 304.954 401.374C305.468 401.374 305.934 401.262 306.353 401.039C306.771 400.815 307.101 400.504 307.341 400.106C307.581 399.704 307.701 399.249 307.701 398.739C307.701 398.238 307.581 397.788 307.341 397.39C307.101 396.992 306.771 396.682 306.353 396.458C305.934 396.23 305.468 396.116 304.954 396.116C304.432 396.116 303.962 396.228 303.543 396.452C303.125 396.675 302.795 396.988 302.555 397.39C302.319 397.788 302.203 398.238 302.207 398.739ZM303.301 404.072H304.681V407.938H313.88V409.081H303.301V404.072ZM329.001 403.065H327.621V400.591H323.954V401.934H316.781V394.997H323.954V396.352H327.621V393.804H329.001V403.065ZM322.599 400.802V396.116H318.149V400.802H322.599ZM318.584 406.471C318.58 405.849 318.787 405.317 319.205 404.874C319.624 404.43 320.227 404.093 321.014 403.86C321.801 403.628 322.736 403.512 323.817 403.512C324.895 403.512 325.825 403.628 326.608 403.86C327.395 404.093 327.998 404.43 328.417 404.874C328.839 405.317 329.051 405.849 329.051 406.471C329.051 407.084 328.839 407.61 328.417 408.05C327.998 408.489 327.397 408.823 326.614 409.05C325.831 409.278 324.899 409.392 323.817 409.392C322.732 409.392 321.795 409.278 321.008 409.05C320.225 408.823 319.624 408.489 319.205 408.05C318.787 407.61 318.58 407.084 318.584 406.471ZM319.951 406.471C319.947 406.844 320.101 407.169 320.411 407.447C320.722 407.72 321.168 407.93 321.748 408.075C322.332 408.224 323.022 408.298 323.817 408.298C324.609 408.298 325.295 408.224 325.875 408.075C326.455 407.93 326.9 407.72 327.211 407.447C327.526 407.169 327.683 406.844 327.683 406.471C327.683 406.081 327.528 405.748 327.217 405.47C326.906 405.189 326.461 404.973 325.881 404.824C325.301 404.675 324.613 404.598 323.817 404.594C323.018 404.598 322.328 404.675 321.748 404.824C321.168 404.973 320.722 405.189 320.411 405.47C320.101 405.748 319.947 406.081 319.951 406.471ZM327.621 399.448V397.483H323.954V399.448H327.621Z" fill="#9CA3AF"/>
<mask id="mask1_514_3034" style="mask-type:alpha" maskUnits="userSpaceOnUse" x="336" y="389" width="24" height="24">
<rect x="336" y="389" width="24" height="24" fill="#D9D9D9"/>
</mask>
<g mask="url(#mask1_514_3034)">
<path d="M341 408H342.425L352.2 398.225L350.775 396.8L341 406.575V408ZM340 410C339.717 410 339.479 409.904 339.287 409.712C339.096 409.521 339 409.283 339 409V406.575C339 406.308 339.05 406.054 339.15 405.812C339.25 405.571 339.392 405.358 339.575 405.175L352.2 392.575C352.4 392.392 352.621 392.25 352.863 392.15C353.104 392.05 353.358 392 353.625 392C353.892 392 354.15 392.05 354.4 392.15C354.65 392.25 354.867 392.4 355.05 392.6L356.425 394C356.625 394.183 356.771 394.4 356.863 394.65C356.954 394.9 357 395.15 357 395.4C357 395.667 356.954 395.921 356.863 396.162C356.771 396.404 356.625 396.625 356.425 396.825L343.825 409.425C343.642 409.608 343.429 409.75 343.188 409.85C342.946 409.95 342.692 410 342.425 410H340ZM351.475 397.525L350.775 396.8L352.2 398.225L351.475 397.525Z" fill="#9CA3AF"/>
</g>
<rect x="25.5" y="438.5" width="349" height="53" rx="4.5" stroke="#D1D5DB"/>
<path d="M52.8496 456.797V460.576H55.2051V461.736H52.8496V465.938H51.4785V456.797H52.8496ZM41.3008 464.953V457.693H42.6543V460.084H47.207V457.693H48.5781V464.953H41.3008ZM42.6543 463.846H47.207V461.191H42.6543V463.846ZM43.041 472.213V466.816H52.9727V467.924H44.4121V471.088H53.2715V472.213H43.041ZM68.8281 461.543V462.65H58.123V457.377H59.4941V461.543H68.8281ZM56.1719 465.902V464.777H70.4805V465.902H56.1719ZM58.0352 472.037V467.502H59.4062V470.895H68.916V472.037H58.0352ZM90.5547 465.076V466.201H84.1914V469.26H82.8203V466.201H76.2461V465.076H90.5547ZM78.0742 472.09V467.818H79.4453V470.93H88.9551V472.09H78.0742ZM78.1621 463.547V457.307H79.5332V459.311H87.2676V457.307H88.6387V463.547H78.1621ZM79.5332 462.422H87.2676V460.365H79.5332V462.422ZM110.646 469.365V470.508H96.3379V469.365H100.328V465.639H97.6387V464.496H100.082V459.398H97.6035V458.256H109.275V459.398H106.797V464.496H109.24V465.639H106.551V469.365H110.646ZM101.453 464.496H105.443V459.398H101.453V464.496ZM101.717 469.365H105.18V465.639H101.717V469.365ZM117.449 460.998C117.44 463.854 119.383 466.72 121.686 467.766L120.842 468.855C119.058 467.994 117.52 466.14 116.772 463.916C116.052 466.271 114.514 468.249 112.686 469.172L111.807 468.012C114.136 466.948 116.061 463.96 116.078 460.998V458.15H117.449V460.998ZM123.391 472.459V456.797H124.779V472.459H123.391Z" fill="#6B7280"/>
<mask id="mask2_514_3034" style="mask-type:alpha" maskUnits="userSpaceOnUse" x="336" y="453" width="24" height="24">
<rect x="336" y="453" width="24" height="24" fill="#D9D9D9"/>
</mask>
<g mask="url(#mask2_514_3034)">
<path d="M341 472H342.425L352.2 462.225L350.775 460.8L341 470.575V472ZM340 474C339.717 474 339.479 473.904 339.287 473.712C339.096 473.521 339 473.283 339 473V470.575C339 470.308 339.05 470.054 339.15 469.812C339.25 469.571 339.392 469.358 339.575 469.175L352.2 456.575C352.4 456.392 352.621 456.25 352.863 456.15C353.104 456.05 353.358 456 353.625 456C353.892 456 354.15 456.05 354.4 456.15C354.65 456.25 354.867 456.4 355.05 456.6L356.425 458C356.625 458.183 356.771 458.4 356.863 458.65C356.954 458.9 357 459.15 357 459.4C357 459.667 356.954 459.921 356.863 460.162C356.771 460.404 356.625 460.625 356.425 460.825L343.825 473.425C343.642 473.608 343.429 473.75 343.188 473.85C342.946 473.95 342.692 474 342.425 474H340ZM351.475 461.525L350.775 460.8L352.2 462.225L351.475 461.525Z" fill="#9CA3AF"/>
</g>
<rect x="25.5" y="502.5" width="349" height="53" rx="4.5" stroke="#D1D5DB"/>
<path d="M53.5176 520.797V536.459H52.1289V520.797H53.5176ZM41.2129 527.459C41.2217 524.137 42.874 522.019 45.2031 522.01C47.5234 522.019 49.2021 524.137 49.1934 527.459C49.2021 530.79 47.5234 532.899 45.2031 532.891C42.874 532.899 41.2217 530.79 41.2129 527.459ZM42.5488 527.459C42.5488 529.999 43.6387 531.669 45.2031 531.66C46.7764 531.669 47.8574 529.999 47.8574 527.459C47.8574 524.919 46.7764 523.249 45.2031 523.24C43.6387 523.249 42.5488 524.919 42.5488 527.459ZM60.7598 525.613C60.7686 528.127 62.043 530.702 64.1699 531.836L63.3789 532.873C61.8232 532.021 60.6982 530.403 60.127 528.522C59.5732 530.526 58.457 532.284 56.8926 533.225L56.0664 532.17C58.1934 530.939 59.4502 528.197 59.459 525.613V524.84H56.4883V523.697H59.459V521.377H60.7773V523.697H63.6953V524.84H60.7598V525.613ZM62.623 528.145V526.967H65.084V521.184H66.3848V535.615H65.084V528.145H62.623ZM68.2305 536.424V520.797H69.5488V536.424H68.2305ZM82.8203 522.625V526.703H85.1934V521.131H86.5117V535.633H85.1934V527.846H82.8203V532.223H76.8438V522.625H82.8203ZM78.1445 531.115H81.5195V523.732H78.1445V531.115ZM88.3223 536.424V520.797H89.6582V536.424H88.3223ZM106.129 533.26V534.42H91.8203V533.26H98.2539V529.445H93.5078V522.115H104.354V529.445H99.6074V533.26H106.129ZM94.8613 528.338H103.018V523.223H94.8613V528.338Z" fill="#6B7280"/>
<mask id="mask3_514_3034" style="mask-type:alpha" maskUnits="userSpaceOnUse" x="336" y="517" width="24" height="24">
<rect x="336" y="517" width="24" height="24" fill="#D9D9D9"/>
</mask>
<g mask="url(#mask3_514_3034)">
<path d="M341 536H342.425L352.2 526.225L350.775 524.8L341 534.575V536ZM340 538C339.717 538 339.479 537.904 339.287 537.712C339.096 537.521 339 537.283 339 537V534.575C339 534.308 339.05 534.054 339.15 533.812C339.25 533.571 339.392 533.358 339.575 533.175L352.2 520.575C352.4 520.392 352.621 520.25 352.863 520.15C353.104 520.05 353.358 520 353.625 520C353.892 520 354.15 520.05 354.4 520.15C354.65 520.25 354.867 520.4 355.05 520.6L356.425 522C356.625 522.183 356.771 522.4 356.863 522.65C356.954 522.9 357 523.15 357 523.4C357 523.667 356.954 523.921 356.863 524.162C356.771 524.404 356.625 524.625 356.425 524.825L343.825 537.425C343.642 537.608 343.429 537.75 343.188 537.85C342.946 537.95 342.692 538 342.425 538H340ZM351.475 525.525L350.775 524.8L352.2 526.225L351.475 525.525Z" fill="#9CA3AF"/>
</g>
<path d="M25 741C25 738.239 27.2386 736 30 736H200V785H30C27.2386 785 25 782.761 25 780V741Z" fill="#6B7280"/>
<path d="M107.453 754.75V756.109H104.531C104.562 757.328 105.68 758.414 107.766 758.828L107.078 760.172C105.461 759.836 104.312 759.078 103.688 758.062C103.07 759.172 101.914 760.008 100.25 760.359L99.5156 759.016C101.633 758.602 102.758 757.406 102.781 756.109H99.875V754.75H102.797V753.297H104.531V754.75H107.453ZM110.781 753.281V767.375H109.062V753.281H110.781ZM98.9844 761.094C101.609 761.094 105.125 761.078 108.141 760.703L108.266 761.953C107.047 762.164 105.781 762.297 104.547 762.375V766.953H102.797V762.469C101.508 762.523 100.281 762.531 99.2031 762.531L98.9844 761.094ZM125.703 764.234V765.641H112.797V764.234H118.328V760.969H120.047V764.234H125.703ZM120.094 755.156C120.094 757.297 122.234 759.406 125.203 759.875L124.453 761.312C122.062 760.859 120.109 759.492 119.172 757.641C118.234 759.484 116.297 760.875 113.922 761.312L113.172 759.875C116.125 759.406 118.234 757.281 118.25 755.156V754.125H120.094V755.156Z" fill="white"/>
<path d="M200 736H370C372.761 736 375 738.239 375 741V780C375 782.761 372.761 785 370 785H200V736Z" fill="#00C18A"/>
<path d="M285.031 753.266V758.625H287.203V760.047H285.031V767.406H283.297V753.266H285.031ZM281.156 754.609V756.016H276.281V762.5C278.477 762.5 280.211 762.391 282.156 762.047L282.359 763.516C280.172 763.891 278.266 763.953 275.719 763.953H274.547V754.609H281.156ZM294.219 753.547C297.344 753.547 299.297 754.578 299.312 756.297C299.297 757.984 297.344 759 294.219 758.984C291.125 759 289.125 757.984 289.125 756.297C289.125 754.578 291.125 753.547 294.219 753.547ZM294.219 754.906C292.156 754.906 290.922 755.391 290.938 756.297C290.922 757.156 292.156 757.625 294.219 757.641C296.281 757.625 297.516 757.156 297.516 756.297C297.516 755.391 296.281 754.906 294.219 754.906ZM299.109 762.469V767.219H289.312V762.469H299.109ZM291.031 763.844V765.812H297.422V763.844H291.031ZM300.672 759.938V761.344H287.797V759.938H300.672Z" fill="white"/>
<rect opacity="0.4" y="80" width="400" height="820" fill="#0F172A"/>
</g>
<defs>
<clipPath id="clip0_514_3034">
<rect width="400" height="900" fill="white"/>
</clipPath>
</defs>
</svg>
