<svg width="450" height="851" viewBox="0 0 450 851" fill="none" xmlns="http://www.w3.org/2000/svg">
<rect width="450" height="851" fill="white"/>
<mask id="mask0_241_1586" style="mask-type:alpha" maskUnits="userSpaceOnUse" x="25" y="20" width="40" height="40">
<rect x="25" y="20" width="40" height="40" fill="#D9D9D9"/>
</mask>
<g mask="url(#mask0_241_1586)">
<path d="M28.375 39.972L35.4583 47.0553C35.7267 47.3239 35.8562 47.6481 35.8471 48.0278C35.8379 48.4073 35.699 48.7313 35.4304 48.9999C35.1618 49.2685 34.8331 49.4028 34.4442 49.4028C34.0553 49.4028 33.7267 49.2685 33.4583 48.9999L25.4025 40.9445C25.2544 40.7962 25.1503 40.6434 25.09 40.4862C25.03 40.3287 25 40.1573 25 39.972C25 39.787 25.03 39.6158 25.09 39.4583C25.1503 39.3008 25.2544 39.148 25.4025 38.9999L33.4858 30.9166C33.7544 30.648 34.0832 30.5137 34.4721 30.5137C34.861 30.5137 35.1897 30.648 35.4583 30.9166C35.7267 31.1852 35.8608 31.5139 35.8608 31.9028C35.8608 32.2917 35.7267 32.6203 35.4583 32.8887L28.375 39.972Z" fill="#111827"/>
</g>
<path d="M64.2383 31.6738V47.5645H62.375V31.6738H64.2383ZM60.9512 32.0605V46.8086H59.0879V41.5H56.6094V39.9004H59.0879V37.5449H56.8906C56.1436 40.1816 54.4824 42.4492 51.5117 44.207L50.3691 42.8184C53.665 40.876 55.1768 38.3887 55.4668 35.1895H51.2129V33.6074H57.4004C57.4004 34.4072 57.3477 35.1895 57.2422 35.9453H59.0879V32.0605H60.9512ZM75.2246 33.0273V34.627H71.9023C71.9551 36.3848 73.2471 38.0547 75.6641 38.7578L74.7324 40.2871C72.9219 39.751 71.6299 38.6436 70.9355 37.2285C70.2324 38.7842 68.8965 39.9971 67.0332 40.5684L66.0312 39.0391C68.501 38.3008 69.8369 36.543 69.916 34.627H66.5762V33.0273H75.2246ZM71.8848 39.9004V42.7305C73.1855 42.6689 74.4951 42.5635 75.7168 42.3965L75.8574 43.8027C72.5 44.4355 68.8613 44.418 66.1543 44.4355L65.8906 42.8359C67.0947 42.8359 68.4834 42.8359 69.9336 42.8008V39.9004H71.8848ZM80.8848 38.0547V39.6895H78.582V47.5645H76.6309V31.6738H78.582V38.0547H80.8848ZM94.8594 31.6738V47.582H92.8906V31.6738H94.8594ZM86.2988 32.834C88.6895 32.834 90.4297 35.0137 90.4473 38.4414C90.4297 41.9043 88.6895 44.0664 86.2988 44.0664C83.8906 44.0664 82.1504 41.9043 82.1504 38.4414C82.1504 35.0137 83.8906 32.834 86.2988 32.834ZM86.2988 34.5918C84.9453 34.5918 84.0312 36.0156 84.0312 38.4414C84.0312 40.8848 84.9453 42.3086 86.2988 42.3086C87.6348 42.3086 88.5488 40.8848 88.5488 38.4414C88.5488 36.0156 87.6348 34.5918 86.2988 34.5918ZM102.049 36.5254C102.049 38.9863 103.068 41.4648 105.283 42.6602L104.193 44.1016C102.717 43.3193 101.715 41.9219 101.152 40.252C100.59 42.0537 99.5879 43.5918 98.0938 44.4707L96.9512 42.9941C99.2012 41.6934 100.203 39.0391 100.203 36.5254V36.0332H97.4961V34.4512H100.203V32.2363H102.049V34.4512H104.703V36.0332H102.049V36.5254ZM110.873 31.6738V47.5645H109.01V31.6738H110.873ZM107.639 31.9727V46.791H105.793V39.3906H103.719V37.7734H105.793V31.9727H107.639Z" fill="#111827"/>
<path d="M393.258 38.0371V39.1973H390.727V47.4238H389.355V31.7969H390.727V38.0371H393.258ZM380.654 33.3438V42.291C382.939 42.2822 385.269 42.1064 387.844 41.5703L388.02 42.748C385.33 43.293 382.904 43.4512 380.531 43.4512H379.283V33.3438H380.654ZM406.283 31.7969V38.1602H408.814V39.3203H406.283V47.4238H404.912V31.7969H406.283ZM402.24 33.4844C402.24 37.9141 400.166 41.9395 395.068 44.4531L394.295 43.3633C398.338 41.3506 400.535 38.3447 400.852 34.6445H395.016V33.4844H402.24ZM422.666 31.7969V47.4238H421.277V31.7969H422.666ZM418.043 33.502C418.025 38.002 415.934 41.9746 410.695 44.4883L409.939 43.3633C414.167 41.3594 416.32 38.3623 416.637 34.627H410.66V33.502H418.043Z" fill="#EF403C"/>
<path d="M40.709 119.233V121.079H27.748V114.168H30.0244V119.233H40.709ZM42.5547 123.417V125.283H35.1514V131.825H32.8545V125.283H25.6152V123.417H42.5547ZM58.5918 114.414V116.075C58.5918 117.808 58.5918 119.705 58.0996 122.33H60.6631V124.176H53.3008V131.846H51.0039V124.176H43.7646V122.33H55.7822C56.2949 119.808 56.3154 117.921 56.3154 116.26H45.7539V114.414H58.5918ZM77.9102 113.286V131.825H75.7158V113.286H77.9102ZM74.0957 113.614V130.923H71.9219V122.104H70.1582C69.9429 125.714 68.3945 127.949 66.0977 127.929C63.6777 127.949 62.0986 125.386 62.0986 121.305C62.0986 117.224 63.6777 114.701 66.0977 114.701C68.3433 114.701 69.8711 116.793 70.1377 120.259H71.9219V113.614H74.0957ZM66.0977 116.854C64.9287 116.834 64.1904 118.413 64.2109 121.305C64.1904 124.196 64.9287 125.775 66.0977 125.755C67.3281 125.775 68.0664 124.196 68.0664 121.305C68.0664 118.413 67.3281 116.834 66.0977 116.854ZM96.0596 113.286V131.825H93.8857V113.286H96.0596ZM92.1221 113.737V130.943H89.9688V122.412H86.667C85.5801 124.545 83.8369 126.391 81.2119 127.908L79.9199 126.288C83.7651 124.022 85.5186 121.12 85.8672 117.388H80.8633V115.542H88.123C88.123 117.336 87.9077 119.018 87.4053 120.587H89.9688V113.737H92.1221ZM120.136 127.724V129.59H103.196V127.724H110.497V124.114H105.062V114.517H107.339V117.552H115.932V114.517H118.208V124.114H112.753V127.724H120.136ZM107.339 122.269H115.932V119.377H107.339V122.269ZM137.198 113.307V122.74H135.024V118.926H133.035V122.699H130.923V113.655H133.035V117.101H135.024V113.307H137.198ZM124.422 114.312V120.095C126.165 120.074 127.816 119.961 129.713 119.582L129.938 121.428C127.58 121.879 125.611 121.961 123.376 121.94H122.146V114.312H124.422ZM137.198 123.438V128.298H126.965V129.795H137.854V131.6H124.668V126.616H134.922V125.263H124.647V123.438H137.198ZM154.281 113.286V120.689H156.845V122.576H154.281V131.825H151.984V113.286H154.281ZM145.053 115.234C145.032 120.095 144.355 124.196 141.013 127.806L139.229 126.514C141.843 123.745 142.694 120.812 142.879 117.101H139.967V115.234H145.053ZM150.18 115.234C150.159 120.218 149.646 124.976 146.304 128.995L144.479 127.744C147.124 124.596 147.862 121.12 148.026 117.101H145.668V115.234H150.18ZM174.584 127.703V129.569H157.645V127.703H161.562V123.007C160.085 122.166 159.193 120.843 159.203 119.192C159.183 116.239 162.095 114.291 166.073 114.291C170.072 114.291 172.984 116.239 172.984 119.192C172.984 120.812 172.123 122.115 170.688 122.966V127.703H174.584ZM166.073 116.096C163.305 116.096 161.418 117.265 161.438 119.192C161.418 121.1 163.305 122.289 166.073 122.289C168.842 122.289 170.749 121.1 170.749 119.192C170.749 117.265 168.842 116.096 166.073 116.096ZM163.817 127.703H168.37V123.827C167.663 123.991 166.894 124.073 166.073 124.073C165.273 124.073 164.515 123.991 163.817 123.848V127.703ZM178.932 125.447C178.952 122.843 179.69 122.043 180.982 121.243C181.864 120.689 182.521 119.992 182.521 118.967C182.521 117.818 181.639 117.08 180.511 117.08C179.485 117.08 178.501 117.736 178.439 119.11H175.876C175.938 116.362 178.009 114.947 180.531 114.947C183.3 114.947 185.207 116.485 185.207 118.926C185.207 120.587 184.366 121.674 183.033 122.474C181.844 123.191 181.352 123.909 181.331 125.447V125.632H178.932V125.447ZM180.203 130.164C179.321 130.164 178.604 129.446 178.604 128.564C178.604 127.703 179.321 126.985 180.203 126.985C181.044 126.985 181.782 127.703 181.782 128.564C181.782 129.446 181.044 130.164 180.203 130.164Z" fill="#111827"/>
<mask id="path-6-inside-1_241_1586" fill="white">
<path d="M25 145H425V199H25V145Z"/>
</mask>
<path d="M425 198H25V200H425V198Z" fill="#D1D5DB" mask="url(#path-6-inside-1_241_1586)"/>
<rect x="24.5" y="153.5" width="37" height="37" rx="18.5" fill="white"/>
<rect x="24.5" y="153.5" width="37" height="37" rx="18.5" stroke="#D1D5DB"/>
<g clip-path="url(#clip0_241_1586)">
<path d="M37.5019 179.048C36.8889 179.048 36.3908 178.55 36.3908 177.937V170.037C36.3908 169.424 36.8889 168.926 37.5019 168.926C38.1149 168.926 38.613 169.424 38.613 170.037V177.937C38.613 178.55 38.1149 179.048 37.5019 179.048Z" fill="#A6F4C2"/>
<path d="M41.1669 179.048C40.5539 179.048 40.0558 178.55 40.0558 177.937V170.037C40.0558 169.424 40.5539 168.926 41.1669 168.926C41.7798 168.926 42.278 169.424 42.278 170.037V177.937C42.278 178.55 41.7798 179.048 41.1669 179.048Z" fill="#A6F4C2"/>
<path d="M44.8334 179.048C44.2205 179.048 43.7223 178.55 43.7223 177.937V170.037C43.7223 169.424 44.2205 168.926 44.8334 168.926C45.4464 168.926 45.9446 169.424 45.9446 170.037V177.937C45.9446 178.55 45.4464 179.048 44.8334 179.048Z" fill="#A6F4C2"/>
<path d="M48.498 179.048C47.885 179.048 47.3869 178.55 47.3869 177.937V170.037C47.3869 169.424 47.885 168.926 48.498 168.926C49.111 168.926 49.6091 169.424 49.6091 170.037V177.937C49.6091 178.55 49.111 179.048 48.498 179.048Z" fill="#A6F4C2"/>
<path d="M50.4648 170.095H35.5352C35.2389 170.095 35 169.854 35 169.56V168.684C35 168.489 35.1056 168.31 35.2759 168.215L42.7389 164.067C42.9 163.976 43.0981 163.976 43.2593 164.067L50.7241 168.213C50.8944 168.308 51 168.487 51 168.682V169.558C51 169.854 50.7593 170.093 50.4648 170.093V170.095Z" fill="#00C18A"/>
<path d="M50.0907 177.312H35.9093C35.4071 177.312 35 177.719 35 178.221V178.763C35 179.266 35.4071 179.673 35.9093 179.673H50.0907C50.5929 179.673 51 179.266 51 178.763V178.221C51 177.719 50.5929 177.312 50.0907 177.312Z" fill="#00C18A"/>
</g>
<path d="M78.3594 165.938V168.094H81.4531V165.938H82.6094V172.312H77.2031V165.938H78.3594ZM78.3594 171.328H81.4531V169.078H78.3594V171.328ZM79.1094 176.234C79.0938 174.648 80.875 173.734 83.7656 173.734C86.6406 173.734 88.4297 174.648 88.4375 176.234C88.4297 177.82 86.6406 178.734 83.7656 178.734C80.875 178.734 79.0938 177.82 79.1094 176.234ZM80.3281 176.234C80.3125 177.203 81.6328 177.766 83.7656 177.766C85.875 177.766 87.2031 177.203 87.2188 176.234C87.2031 175.266 85.875 174.695 83.7656 174.688C81.6328 174.695 80.3125 175.266 80.3281 176.234ZM84.1875 172.984V165.156H85.3438V168.594H87.1875V164.891H88.3594V173.406H87.1875V169.609H85.3438V172.984H84.1875ZM97.7812 165.844C97.7734 169.391 95.7266 171.984 91.2656 173.297L90.7969 172.297C93.1719 171.617 94.7266 170.594 95.6016 169.305L90.9062 169.672L90.6875 168.656L96.0938 168.398C96.2891 167.906 96.4141 167.391 96.4609 166.844H91.3906V165.844H97.7812ZM92.5469 176.078C92.5469 174.406 94.3359 173.438 97.25 173.438C100.125 173.438 101.93 174.406 101.922 176.078C101.93 177.773 100.125 178.734 97.25 178.734C94.3359 178.734 92.5469 177.773 92.5469 176.078ZM93.7656 176.078C93.7734 177.125 95.0859 177.766 97.25 177.766C99.375 177.766 100.711 177.125 100.719 176.078C100.711 175.047 99.375 174.406 97.25 174.406C95.0859 174.406 93.7734 175.047 93.7656 176.078ZM100.641 173.25V164.891H101.859V173.25H100.641ZM116.875 172.203V173.203H104.219V172.203H116.875ZM105.625 168.125C105.625 166.383 107.531 165.359 110.547 165.375C113.531 165.359 115.445 166.383 115.453 168.125C115.445 169.852 113.531 170.891 110.547 170.891C107.531 170.891 105.625 169.852 105.625 168.125ZM105.859 178.469V174.422H107.094V177.438H115.469V178.469H105.859ZM106.891 168.125C106.883 169.227 108.305 169.891 110.547 169.891C112.773 169.891 114.195 169.227 114.203 168.125C114.195 167.039 112.773 166.359 110.547 166.359C108.305 166.359 106.883 167.039 106.891 168.125ZM129.844 164.875V173.672H128.672V169.688H126.812V173.172H125.656V165.156H126.812V168.672H128.672V164.875H129.844ZM117.969 167.531V166.547H120.938V164.984H122.156V166.547H125.094V167.531H117.969ZM118.578 170.656C118.57 169.203 119.797 168.273 121.547 168.281C123.305 168.273 124.523 169.203 124.531 170.656C124.523 172.086 123.305 173.016 121.547 173.016C119.797 173.016 118.57 172.086 118.578 170.656ZM119.672 170.656C119.672 171.508 120.438 172.094 121.547 172.094C122.656 172.094 123.422 171.508 123.422 170.656C123.422 169.773 122.656 169.188 121.547 169.188C120.438 169.188 119.672 169.773 119.672 170.656ZM120.594 176.344C120.578 174.781 122.32 173.906 125.25 173.906C128.172 173.906 129.914 174.781 129.922 176.344C129.914 177.867 128.172 178.734 125.25 178.734C122.32 178.734 120.578 177.867 120.594 176.344ZM121.812 176.344C121.797 177.242 123.086 177.789 125.25 177.781C127.406 177.789 128.688 177.242 128.703 176.344C128.688 175.391 127.406 174.859 125.25 174.875C123.086 174.859 121.797 175.391 121.812 176.344Z" fill="#111827"/>
<mask id="mask1_241_1586" style="mask-type:alpha" maskUnits="userSpaceOnUse" x="401" y="160" width="24" height="24">
<rect x="401" y="160" width="24" height="24" fill="#D9D9D9"/>
</mask>
<g mask="url(#mask1_241_1586)">
<path d="M412.475 174.475L408.85 170.85C408.8 170.8 408.763 170.746 408.738 170.688C408.713 170.629 408.7 170.567 408.7 170.5C408.7 170.367 408.746 170.25 408.838 170.15C408.929 170.05 409.05 170 409.2 170H416.8C416.95 170 417.071 170.05 417.163 170.15C417.254 170.25 417.3 170.367 417.3 170.5C417.3 170.533 417.25 170.65 417.15 170.85L413.525 174.475C413.442 174.558 413.358 174.617 413.275 174.65C413.192 174.683 413.1 174.7 413 174.7C412.9 174.7 412.808 174.683 412.725 174.65C412.642 174.617 412.558 174.558 412.475 174.475Z" fill="#111827"/>
</g>
<mask id="path-18-inside-2_241_1586" fill="white">
<path d="M25 199H425V253H25V199Z"/>
</mask>
<path d="M425 252H25V254H425V252Z" fill="#D1D5DB" mask="url(#path-18-inside-2_241_1586)"/>
<path d="M25.8789 229.398V228.098L31.6094 219.273H33.5605V228.01H35.3359V229.398H33.5605V232H32.0488V229.398H25.8789ZM27.584 228.01H32.0488V221.277H31.8906L27.584 227.904V228.01ZM41.5762 232.176C39.2822 232.176 37.542 230.761 37.4453 228.801H38.9746C39.0889 229.935 40.1963 230.778 41.5762 230.787C43.2285 230.778 44.4238 229.574 44.4238 227.975C44.4238 226.322 43.1846 225.101 41.4707 225.092C40.3984 225.074 39.5635 225.408 39.0977 226.234H37.5684L38.4648 219.273H45.3555V220.68H39.7832L39.3086 224.406H39.4316C40.0029 223.967 40.8555 223.668 41.752 223.668C44.1777 223.668 45.9619 225.461 45.9707 227.939C45.9619 230.4 44.1162 232.176 41.5762 232.176ZM52.5977 232.176C50.3916 232.149 47.957 230.84 47.957 226.129C47.957 221.62 49.8027 219.098 52.791 219.098C55.0322 219.098 56.5967 220.478 56.9219 222.473H55.3574C55.0674 221.348 54.2061 220.504 52.791 220.504C50.6992 220.504 49.4424 222.288 49.4512 225.355H49.6094C50.3389 224.292 51.5078 223.668 52.8789 223.668C55.1377 223.668 57.0273 225.426 57.0273 227.887C57.0273 230.286 55.2783 232.202 52.5977 232.176ZM49.6621 227.922C49.6709 229.416 50.8926 230.778 52.5977 230.787C54.2412 230.778 55.4893 229.486 55.498 227.904C55.4893 226.34 54.2939 225.065 52.6328 225.057C50.9629 225.065 49.6797 226.419 49.6621 227.922ZM59.6113 232L65.4473 220.768V220.68H58.7148V219.273H67.082V220.75L61.2637 232H59.6113ZM73.1465 232.176C70.4658 232.176 68.6201 230.69 68.6289 228.625C68.6201 226.981 69.7627 225.619 71.2129 225.391V225.32C69.9473 225.03 69.1123 223.861 69.1211 222.473C69.1123 220.53 70.8174 219.098 73.1465 219.098C75.4668 219.098 77.1719 220.53 77.1895 222.473C77.1719 223.861 76.3281 225.03 75.0801 225.32V225.391C76.5215 225.619 77.6641 226.981 77.6816 228.625C77.6641 230.69 75.8008 232.176 73.1465 232.176ZM70.2109 228.537C70.1846 229.873 71.3184 230.778 73.1465 230.787C74.9658 230.778 76.0996 229.873 76.0996 228.537C76.0996 227.131 74.8604 226.094 73.1465 226.094C71.4414 226.094 70.1846 227.131 70.2109 228.537ZM70.6504 222.596C70.6592 223.879 71.6875 224.749 73.1465 224.758C74.5967 224.749 75.6426 223.879 75.6426 222.596C75.6426 221.321 74.6318 220.46 73.1465 220.469C71.6348 220.46 70.6592 221.321 70.6504 222.596ZM84.0449 219.098C86.2334 219.124 88.668 220.442 88.668 225.127C88.668 229.653 86.8135 232.176 83.834 232.176C81.5928 232.176 80.0195 230.805 79.7031 228.783H81.2676C81.5488 229.926 82.4189 230.77 83.834 230.77C85.9082 230.77 87.1738 228.977 87.1914 225.883H87.0156C86.2861 226.938 85.1172 227.57 83.7637 227.57C81.4873 227.57 79.5977 225.821 79.5977 223.369C79.5977 220.996 81.3379 219.071 84.0449 219.098ZM81.1445 223.352C81.1357 224.925 82.3311 226.182 83.9922 226.182C85.6533 226.182 86.9453 224.811 86.9453 223.316C86.9453 221.857 85.7236 220.486 84.0449 220.486C82.3838 220.486 81.127 221.778 81.1445 223.352ZM95.0137 232.176C92.1924 232.176 90.5576 229.803 90.5664 225.637C90.5576 221.506 92.21 219.098 95.0137 219.098C97.8086 219.098 99.4609 221.506 99.4609 225.637C99.4609 229.803 97.835 232.176 95.0137 232.176ZM92.0957 225.637C92.1045 228.933 93.168 230.77 95.0137 230.77C96.8506 230.77 97.9229 228.933 97.9141 225.637C97.9229 222.341 96.8418 220.478 95.0137 220.469C93.1855 220.478 92.1045 222.341 92.0957 225.637ZM106.07 219.273V232H104.471V220.926H104.4L101.307 222.982V221.383L104.471 219.273H106.07ZM109.463 232L109.445 230.84L113.787 226.27C115.29 224.67 116.011 223.809 116.02 222.631C116.011 221.321 114.921 220.478 113.488 220.469C111.968 220.478 111.019 221.436 111.01 222.859H109.516C109.498 220.609 111.238 219.098 113.541 219.098C115.853 219.098 117.487 220.653 117.496 222.631C117.487 224.055 116.828 225.162 114.578 227.482L111.66 230.488V230.594H117.725V232H109.463ZM124.422 232.176C121.891 232.176 120.071 230.822 119.992 228.801H121.592C121.68 230.014 122.884 230.77 124.404 230.77C126.083 230.77 127.296 229.864 127.305 228.537C127.296 227.148 126.188 226.173 124.211 226.164H123.174V224.775H124.211C125.758 224.775 126.839 223.905 126.83 222.596C126.839 221.321 125.907 220.478 124.457 220.469C123.095 220.478 121.855 221.225 121.785 222.473H120.256C120.335 220.451 122.216 219.098 124.475 219.098C126.9 219.098 128.377 220.688 128.359 222.508C128.377 223.958 127.533 225.013 126.197 225.391V225.479C127.858 225.733 128.86 226.92 128.852 228.537C128.86 230.629 126.962 232.176 124.422 232.176ZM135.303 232.176C132.481 232.176 130.847 229.803 130.855 225.637C130.847 221.506 132.499 219.098 135.303 219.098C138.098 219.098 139.75 221.506 139.75 225.637C139.75 229.803 138.124 232.176 135.303 232.176ZM132.385 225.637C132.394 228.933 133.457 230.77 135.303 230.77C137.14 230.77 138.212 228.933 138.203 225.637C138.212 222.341 137.131 220.478 135.303 220.469C133.475 220.478 132.394 222.341 132.385 225.637ZM146.025 232.176C143.204 232.176 141.569 229.803 141.578 225.637C141.569 221.506 143.222 219.098 146.025 219.098C148.82 219.098 150.473 221.506 150.473 225.637C150.473 229.803 148.847 232.176 146.025 232.176ZM143.107 225.637C143.116 228.933 144.18 230.77 146.025 230.77C147.862 230.77 148.935 228.933 148.926 225.637C148.935 222.341 147.854 220.478 146.025 220.469C144.197 220.478 143.116 222.341 143.107 225.637ZM156.748 232.176C153.927 232.176 152.292 229.803 152.301 225.637C152.292 221.506 153.944 219.098 156.748 219.098C159.543 219.098 161.195 221.506 161.195 225.637C161.195 229.803 159.569 232.176 156.748 232.176ZM153.83 225.637C153.839 228.933 154.902 230.77 156.748 230.77C158.585 230.77 159.657 228.933 159.648 225.637C159.657 222.341 158.576 220.478 156.748 220.469C154.92 220.478 153.839 222.341 153.83 225.637Z" fill="#111827"/>
<path d="M25 378C25 372.477 29.4772 368 35 368H415C420.523 368 425 372.477 425 378V785H25V378Z" fill="white"/>
<path d="M25.5 373C25.5 370.515 27.5147 368.5 30 368.5H124.5V413.5H30C27.5147 413.5 25.5 411.485 25.5 409V373Z" stroke="#D1D5DB"/>
<path d="M50.8343 394.26C52.3186 394.186 53.6446 394.061 54.8122 393.884L54.9116 394.801C53.9282 394.978 52.9079 395.11 51.8508 395.199C50.7937 395.287 49.8011 395.343 48.8729 395.365C47.9448 395.387 46.9227 395.398 45.8066 395.398L45.6409 394.37C47.3536 394.363 48.6796 394.343 49.6188 394.309V391.696H50.8343V394.26ZM46.0608 391.221C46.7459 391.015 47.3536 390.716 47.884 390.326C48.4144 389.936 48.8287 389.473 49.1271 388.939C49.4291 388.405 49.5856 387.832 49.5967 387.221H46.4033V386.204H49.6188V384.481H50.8343V386.204H54.0939V387.221H50.8343C50.8453 387.807 51.0037 388.355 51.3094 388.867C51.6188 389.379 52.0405 389.823 52.5746 390.199C53.1087 390.575 53.7182 390.86 54.4033 391.055L53.8287 392.028C52.989 391.773 52.256 391.389 51.6298 390.873C51.0037 390.357 50.5359 389.75 50.2265 389.05C49.9282 389.79 49.4678 390.431 48.8453 390.972C48.2228 391.51 47.4936 391.906 46.6575 392.16L46.0608 391.221ZM55.7293 384.381H56.9558V398.293H55.7293V384.381ZM70.4414 386.293C70.4414 386.831 70.434 387.304 70.4193 387.713C70.4082 388.118 70.3769 388.582 70.3254 389.105C70.2738 389.628 70.1909 390.182 70.0767 390.768H72.1099V391.796H59.3917V390.768H68.8502C68.9681 390.175 69.0528 389.619 69.1044 389.099C69.1596 388.576 69.1928 388.114 69.2038 387.713C69.2185 387.308 69.2259 386.834 69.2259 386.293V386.227H61.0049V385.221H70.4414V386.293ZM61.0712 393.354H62.2977V396.923H70.8613V397.95H61.0712V393.354ZM88.6829 398.293H87.4564V384.381H88.6829V398.293ZM77.7547 390.293C77.7547 389.324 77.9039 388.475 78.2023 387.746C78.5043 387.017 78.9242 386.453 79.4619 386.055C79.9997 385.657 80.6129 385.457 81.3017 385.453C81.9868 385.457 82.5964 385.657 83.1304 386.055C83.6682 386.453 84.0881 387.018 84.3901 387.751C84.6958 388.481 84.8487 389.328 84.8487 390.293C84.8487 391.262 84.6958 392.112 84.3901 392.845C84.0881 393.578 83.6682 394.144 83.1304 394.541C82.5927 394.936 81.9831 395.133 81.3017 395.133C80.6129 395.133 79.9997 394.936 79.4619 394.541C78.9242 394.144 78.5043 393.58 78.2023 392.851C77.9039 392.118 77.7547 391.265 77.7547 390.293ZM78.9371 390.293C78.9371 391.037 79.0365 391.692 79.2354 392.26C79.4343 392.827 79.7124 393.265 80.0697 393.575C80.4306 393.884 80.8413 394.039 81.3017 394.039C81.7621 394.039 82.1691 393.884 82.5227 393.575C82.88 393.265 83.1581 392.827 83.357 392.26C83.5559 391.692 83.6553 391.037 83.6553 390.293C83.6553 389.552 83.5559 388.901 83.357 388.337C83.1581 387.77 82.88 387.331 82.5227 387.022C82.1691 386.709 81.7621 386.551 81.3017 386.547C80.8413 386.551 80.4306 386.709 80.0697 387.022C79.7124 387.331 79.4343 387.77 79.2354 388.337C79.0365 388.901 78.9371 389.552 78.9371 390.293ZM95.1298 388.657C95.1298 389.405 95.2514 390.14 95.4945 390.862C95.7413 391.584 96.093 392.238 96.5497 392.823C97.0064 393.405 97.5424 393.862 98.1575 394.193L97.4503 395.11C96.7726 394.738 96.1869 394.215 95.6934 393.541C95.1998 392.864 94.8241 392.096 94.5663 391.238C94.3122 392.155 93.9383 392.98 93.4448 393.713C92.9512 394.442 92.3674 395.011 91.6934 395.42L90.953 394.492C91.5681 394.134 92.1022 393.646 92.5552 393.028C93.0083 392.405 93.3564 391.715 93.5994 390.956C93.8425 390.193 93.9659 389.427 93.9696 388.657V387.972H91.3287V386.956H93.9696V384.89H95.1409V386.956H97.7376V387.972H95.1298V388.657ZM96.7762 389.862H98.9641V384.713H100.124V397.541H98.9641V390.901H96.7762V389.862ZM101.76 384.381H102.931V398.271H101.76V384.381Z" fill="#4B5563"/>
<mask id="path-24-inside-3_241_1586" fill="white">
<path d="M125 368H225V414H125V368Z"/>
</mask>
<path d="M225 368H226V367H225V368ZM225 414V415H226V414H225ZM125 369H225V367H125V369ZM224 368V414H226V368H224ZM225 413H125V415H225V413Z" fill="#D1D5DB" mask="url(#path-24-inside-3_241_1586)"/>
<path d="M150.26 388.646C150.256 389.372 150.414 390.11 150.735 390.862C151.055 391.613 151.492 392.293 152.044 392.901C152.6 393.505 153.21 393.965 153.873 394.282L153.166 395.254C152.654 395 152.169 394.657 151.713 394.227C151.26 393.796 150.856 393.302 150.503 392.746C150.153 392.186 149.875 391.595 149.669 390.972C149.455 391.646 149.164 392.287 148.796 392.895C148.431 393.499 148.015 394.035 147.547 394.503C147.079 394.971 146.587 395.335 146.072 395.597L145.331 394.624C145.991 394.304 146.604 393.821 147.171 393.177C147.742 392.532 148.197 391.808 148.536 391.006C148.878 390.203 149.052 389.416 149.055 388.646V386.834H145.829V385.807H153.387V386.834H150.26V388.646ZM155.088 384.381H156.315V389.994H158.635V391.044H156.315V398.271H155.088V384.381ZM166.408 386.337C166.405 386.934 166.637 387.503 167.104 388.044C167.572 388.582 168.184 389.037 168.939 389.409C169.694 389.777 170.482 390.02 171.303 390.138L170.839 391.11C170.106 390.985 169.401 390.777 168.723 390.486C168.045 390.192 167.443 389.825 166.917 389.387C166.39 388.948 165.99 388.459 165.718 387.917C165.445 388.459 165.045 388.948 164.519 389.387C163.992 389.825 163.392 390.192 162.718 390.486C162.044 390.777 161.344 390.985 160.618 391.11L160.143 390.138C160.957 390.02 161.74 389.777 162.491 389.409C163.246 389.037 163.858 388.582 164.325 388.044C164.797 387.503 165.034 386.934 165.038 386.337V386.249H160.585V385.254H170.839V386.249H166.408V386.337ZM159.392 392.293H172.055V393.309H166.298V398.26H165.093V393.309H159.392V392.293ZM188.683 398.293H187.456V384.381H188.683V398.293ZM177.755 390.293C177.755 389.324 177.904 388.475 178.202 387.746C178.504 387.017 178.924 386.453 179.462 386.055C180 385.657 180.613 385.457 181.302 385.453C181.987 385.457 182.596 385.657 183.13 386.055C183.668 386.453 184.088 387.018 184.39 387.751C184.696 388.481 184.849 389.328 184.849 390.293C184.849 391.262 184.696 392.112 184.39 392.845C184.088 393.578 183.668 394.144 183.13 394.541C182.593 394.936 181.983 395.133 181.302 395.133C180.613 395.133 180 394.936 179.462 394.541C178.924 394.144 178.504 393.58 178.202 392.851C177.904 392.118 177.755 391.265 177.755 390.293ZM178.937 390.293C178.937 391.037 179.037 391.692 179.235 392.26C179.434 392.827 179.712 393.265 180.07 393.575C180.431 393.884 180.841 394.039 181.302 394.039C181.762 394.039 182.169 393.884 182.523 393.575C182.88 393.265 183.158 392.827 183.357 392.26C183.556 391.692 183.655 391.037 183.655 390.293C183.655 389.552 183.556 388.901 183.357 388.337C183.158 387.77 182.88 387.331 182.523 387.022C182.169 386.709 181.762 386.551 181.302 386.547C180.841 386.551 180.431 386.709 180.07 387.022C179.712 387.331 179.434 387.77 179.235 388.337C179.037 388.901 178.937 389.552 178.937 390.293ZM195.13 388.657C195.13 389.405 195.251 390.14 195.494 390.862C195.741 391.584 196.093 392.238 196.55 392.823C197.006 393.405 197.542 393.862 198.157 394.193L197.45 395.11C196.773 394.738 196.187 394.215 195.693 393.541C195.2 392.864 194.824 392.096 194.566 391.238C194.312 392.155 193.938 392.98 193.445 393.713C192.951 394.442 192.367 395.011 191.693 395.42L190.953 394.492C191.568 394.134 192.102 393.646 192.555 393.028C193.008 392.405 193.356 391.715 193.599 390.956C193.843 390.193 193.966 389.427 193.97 388.657V387.972H191.329V386.956H193.97V384.89H195.141V386.956H197.738V387.972H195.13V388.657ZM196.776 389.862H198.964V384.713H200.124V397.541H198.964V390.901H196.776V389.862ZM201.76 384.381H202.931V398.271H201.76V384.381Z" fill="#4B5563"/>
<mask id="path-27-inside-4_241_1586" fill="white">
<path d="M225 368H325V414H225V368Z"/>
</mask>
<path d="M325 368H326V367H325V368ZM325 414V415H326V414H325ZM225 369H325V367H225V369ZM324 368V414H326V368H324ZM325 413H225V415H325V413Z" fill="#D1D5DB" mask="url(#path-27-inside-4_241_1586)"/>
<path d="M250.077 394.657H248.851V390.901H245.254C244.926 391.313 244.514 391.635 244.017 391.867C243.519 392.099 242.976 392.215 242.387 392.215C241.702 392.215 241.085 392.068 240.536 391.773C239.987 391.475 239.556 391.063 239.243 390.536C238.934 390.009 238.781 389.413 238.785 388.746C238.781 388.079 238.934 387.483 239.243 386.956C239.556 386.425 239.987 386.013 240.536 385.718C241.085 385.42 241.702 385.269 242.387 385.265C242.972 385.269 243.51 385.385 244 385.613C244.494 385.842 244.906 386.16 245.238 386.569H248.851V384.392H250.077V394.657ZM239.956 388.746C239.956 389.203 240.059 389.613 240.265 389.978C240.475 390.339 240.764 390.622 241.133 390.829C241.505 391.031 241.923 391.133 242.387 391.133C242.84 391.133 243.249 391.031 243.613 390.829C243.982 390.622 244.271 390.339 244.481 389.978C244.691 389.613 244.796 389.203 244.796 388.746C244.796 388.293 244.691 387.886 244.481 387.525C244.271 387.164 243.982 386.88 243.613 386.674C243.249 386.468 242.84 386.363 242.387 386.359C241.923 386.363 241.505 386.468 241.133 386.674C240.764 386.877 240.475 387.16 240.265 387.525C240.059 387.886 239.956 388.293 239.956 388.746ZM241.16 393.586H242.387V396.945H250.464V397.961H241.16V393.586ZM245.79 387.586C245.915 387.954 245.978 388.341 245.978 388.746C245.978 389.133 245.917 389.512 245.796 389.884H248.851V387.586H245.79ZM259.276 389.044H254.226V391.055C255.556 391.052 256.701 391.02 257.662 390.961C258.624 390.899 259.618 390.783 260.646 390.613L260.767 391.63C259.699 391.803 258.662 391.923 257.657 391.989C256.651 392.052 255.463 392.083 254.093 392.083H253.01V388.072H258.071V386.227H252.977V385.221H259.276V389.044ZM254.16 393.564H263.254V398.26H262.027V394.569H254.16V393.564ZM262.027 384.392H263.254V387.95H265.353V388.978H263.254V392.834H262.027V384.392ZM277.734 398.293H276.507V390.978H273.457V389.961H276.507V384.381H277.734V398.293ZM266.253 394.624C266.927 394.311 267.533 393.856 268.071 393.26C268.612 392.663 269.037 391.983 269.347 391.221C269.656 390.459 269.811 389.685 269.811 388.901V387.796H266.618V386.801H269.811V384.635H271.037V386.801H274.165V387.796H271.015V388.901C271.015 389.652 271.174 390.39 271.491 391.116C271.807 391.842 272.24 392.49 272.789 393.061C273.341 393.628 273.958 394.064 274.64 394.37L273.944 395.331C273.417 395.092 272.925 394.77 272.468 394.365C272.012 393.959 271.608 393.494 271.258 392.967C270.912 392.436 270.636 391.867 270.43 391.26C270.231 391.901 269.958 392.503 269.612 393.066C269.27 393.626 268.87 394.122 268.413 394.552C267.96 394.983 267.472 395.324 266.949 395.575L266.253 394.624ZM290.992 391.287H296.727V392.282H284.064V391.287H289.787V389.232H290.992V391.287ZM284.826 388.978C285.655 388.867 286.448 388.632 287.207 388.271C287.97 387.91 288.587 387.464 289.058 386.934C289.529 386.403 289.765 385.84 289.765 385.243V384.591H291.003V385.243C291.003 385.836 291.238 386.4 291.71 386.934C292.185 387.464 292.804 387.91 293.566 388.271C294.329 388.632 295.124 388.867 295.953 388.978L295.456 389.961C294.741 389.84 294.051 389.637 293.384 389.354C292.721 389.07 292.126 388.718 291.599 388.298C291.076 387.875 290.673 387.405 290.39 386.89C290.106 387.409 289.701 387.878 289.174 388.298C288.651 388.718 288.054 389.07 287.384 389.354C286.714 389.634 286.016 389.836 285.29 389.961L284.826 388.978ZM285.588 395.851C285.588 395.339 285.778 394.904 286.157 394.547C286.541 394.186 287.089 393.912 287.804 393.724C288.522 393.536 289.382 393.442 290.384 393.442C291.382 393.442 292.238 393.536 292.953 393.724C293.668 393.908 294.215 394.18 294.594 394.541C294.973 394.902 295.165 395.339 295.169 395.851C295.165 396.359 294.973 396.792 294.594 397.149C294.215 397.506 293.668 397.777 292.953 397.961C292.238 398.145 291.382 398.238 290.384 398.238C289.382 398.238 288.522 398.145 287.804 397.961C287.086 397.777 286.537 397.506 286.157 397.149C285.778 396.792 285.588 396.359 285.588 395.851ZM286.837 395.851C286.833 396.153 286.971 396.411 287.251 396.624C287.531 396.838 287.936 397 288.467 397.11C289.001 397.225 289.64 397.28 290.384 397.276C291.124 397.28 291.76 397.225 292.29 397.11C292.824 397 293.231 396.838 293.511 396.624C293.795 396.411 293.938 396.153 293.942 395.851C293.938 395.545 293.795 395.284 293.511 395.066C293.231 394.849 292.826 394.685 292.296 394.575C291.765 394.46 291.128 394.403 290.384 394.403C289.636 394.403 288.995 394.46 288.461 394.575C287.931 394.685 287.526 394.849 287.246 395.066C286.97 395.284 286.833 395.545 286.837 395.851ZM308.941 386.149C308.941 386.643 308.934 387.076 308.919 387.448C308.908 387.82 308.875 388.243 308.82 388.718C308.768 389.193 308.684 389.7 308.566 390.238H310.61V391.254H297.892V390.238H307.334C307.455 389.696 307.544 389.188 307.599 388.713C307.658 388.238 307.693 387.816 307.704 387.448C307.719 387.079 307.726 386.646 307.726 386.149V386.138H299.505V385.122H308.941V386.149ZM299.461 393.166H308.997V398.083H299.461V393.166ZM307.781 397.077V394.138H300.665V397.077H307.781Z" fill="#4B5563"/>
<mask id="path-30-inside-5_241_1586" fill="white">
<path d="M325 368H420C422.761 368 425 370.239 425 373V409C425 411.761 422.761 414 420 414H325V368Z"/>
</mask>
<path d="M325 367H420C423.314 367 426 369.686 426 373H424C424 370.791 422.209 369 420 369H325V367ZM426 409C426 412.314 423.314 415 420 415H325V413H420C422.209 413 424 411.209 424 409H426ZM325 414V368V414ZM420 367C423.314 367 426 369.686 426 373V409C426 412.314 423.314 415 420 415V413C422.209 413 424 411.209 424 409V373C424 370.791 422.209 369 420 369V367Z" fill="#D1D5DB" mask="url(#path-30-inside-5_241_1586)"/>
<path d="M364.42 398.271H363.227V391.077H361.215V397.541H360.055V384.691H361.215V390.039H363.227V384.381H364.42V398.271ZM353.26 386.072H354.486V393.575C355.238 393.571 355.985 393.536 356.729 393.47C357.473 393.403 358.243 393.291 359.039 393.133L359.182 394.215C358.269 394.381 357.405 394.499 356.591 394.569C355.781 394.635 354.961 394.669 354.133 394.669H353.26V386.072ZM382.297 398.271H381.126V384.381H382.297V398.271ZM370.396 394.381C371.873 393.505 373.006 392.457 373.794 391.238C374.586 390.015 375.044 388.661 375.17 387.177H371.015V386.149H376.385C376.385 386.875 376.323 387.575 376.197 388.249H378.308V384.757H379.49V397.564H378.308V392.746H375.733V391.729H378.308V389.265H375.96C375.61 390.481 375.037 391.595 374.242 392.608C373.45 393.617 372.415 394.503 371.137 395.265L370.396 394.381ZM389.108 386.867C389.105 387.449 389.248 388.006 389.539 388.536C389.834 389.063 390.243 389.525 390.766 389.923C391.293 390.317 391.893 390.617 392.567 390.823L391.981 391.796C391.175 391.541 390.467 391.157 389.86 390.641C389.256 390.125 388.803 389.519 388.501 388.823C388.195 389.575 387.731 390.228 387.108 390.785C386.49 391.337 385.764 391.751 384.932 392.028L384.302 391.055C384.998 390.838 385.615 390.521 386.153 390.105C386.69 389.689 387.11 389.203 387.412 388.646C387.714 388.087 387.867 387.494 387.871 386.867V386.702H384.722V385.674H392.235V386.702H389.108V386.867ZM384.059 394.326C385.69 394.326 386.965 394.313 387.882 394.287V391.453H389.108V394.243C390.582 394.173 391.83 394.064 392.854 393.917L392.943 394.823C392.022 394.985 391.059 395.105 390.053 395.182C389.048 395.26 388.112 395.308 387.246 395.326C386.385 395.344 385.385 395.354 384.246 395.354L384.059 394.326ZM393.749 384.381H394.965V390.149H397.23V391.199H394.965V398.271H393.749V384.381Z" fill="#4B5563"/>
<path d="M91.6653 476.29C90.1943 476.29 88.8856 476.038 87.7392 475.534C86.5928 475.03 85.7019 474.329 85.0665 473.431C84.4312 472.526 84.1169 471.504 84.1239 470.365C84.1169 469.474 84.3034 468.642 84.6832 467.868C85.0631 467.088 85.581 466.445 86.2371 465.941C86.9001 465.43 87.6321 465.109 88.4332 464.978V464.874C87.7426 464.709 87.1314 464.398 86.5997 463.942C86.0679 463.486 85.657 462.927 85.3669 462.264C85.0769 461.601 84.9319 460.89 84.9319 460.13C84.9319 459.059 85.2219 458.096 85.802 457.24C86.3821 456.383 87.1832 455.713 88.2053 455.23C89.2343 454.74 90.3877 454.494 91.6653 454.494C92.936 454.494 94.079 454.74 95.0942 455.23C96.1163 455.713 96.9174 456.383 97.4975 457.24C98.0776 458.096 98.3711 459.059 98.378 460.13C98.3711 460.89 98.2192 461.601 97.9222 462.264C97.6321 462.927 97.2212 463.486 96.6895 463.942C96.1646 464.398 95.5603 464.709 94.8766 464.874V464.978C95.6708 465.109 96.396 465.43 97.052 465.941C97.715 466.445 98.2364 467.088 98.6163 467.868C99.003 468.642 99.1998 469.474 99.2067 470.365C99.1998 471.504 98.8752 472.526 98.233 473.431C97.5907 474.329 96.6964 475.03 95.55 475.534C94.4105 476.038 93.1156 476.29 91.6653 476.29ZM86.7551 470.22C86.7413 470.965 86.9312 471.622 87.3248 472.188C87.7185 472.747 88.2882 473.186 89.0341 473.503C89.7799 473.814 90.657 473.97 91.6653 473.97C92.6598 473.97 93.5265 473.814 94.2654 473.503C95.0044 473.186 95.5741 472.747 95.9747 472.188C96.3752 471.622 96.5755 470.965 96.5755 470.22C96.5755 469.446 96.3614 468.752 95.9332 468.137C95.512 467.523 94.9284 467.039 94.1826 466.687C93.4367 466.335 92.5976 466.159 91.6653 466.159C90.7261 466.159 89.8801 466.335 89.1273 466.687C88.3745 467.039 87.7875 467.526 87.3663 468.148C86.945 468.762 86.7413 469.453 86.7551 470.22ZM87.5009 460.316C87.5009 461.028 87.677 461.656 88.0292 462.202C88.3814 462.747 88.8718 463.172 89.5002 463.476C90.1356 463.773 90.8573 463.921 91.6653 463.921C92.4595 463.921 93.1708 463.773 93.7993 463.476C94.4277 463.172 94.9181 462.747 95.2703 462.202C95.6294 461.649 95.8089 461.021 95.8089 460.316C95.8089 459.619 95.6328 459.004 95.2806 458.472C94.9353 457.934 94.4484 457.516 93.82 457.219C93.1984 456.922 92.4802 456.773 91.6653 456.773C90.8366 456.773 90.1045 456.922 89.4692 457.219C88.8407 457.516 88.3538 457.934 88.0085 458.472C87.6701 459.004 87.5009 459.619 87.5009 460.316Z" fill="#222222"/>
<path d="M224.772 454.494C226.132 454.494 227.396 454.805 228.563 455.427C229.73 456.048 230.687 457.108 231.433 458.607C232.185 460.099 232.562 462.077 232.562 464.543C232.562 467.029 232.237 469.153 231.588 470.914C230.939 472.668 230.01 474.004 228.801 474.923C227.593 475.834 226.16 476.29 224.502 476.29C223.28 476.29 222.179 476.055 221.198 475.586C220.217 475.116 219.416 474.456 218.795 473.607C218.18 472.751 217.783 471.76 217.603 470.634H220.214C220.462 471.635 220.953 472.44 221.685 473.048C222.424 473.648 223.363 473.949 224.502 473.949C225.649 473.949 226.64 473.628 227.475 472.985C228.318 472.343 228.964 471.414 229.413 470.199C229.862 468.977 230.089 467.512 230.096 465.807H229.806C229.192 466.698 228.411 467.392 227.465 467.889C226.526 468.379 225.497 468.624 224.378 468.624C223.121 468.624 221.961 468.324 220.897 467.723C219.841 467.115 218.998 466.276 218.37 465.206C217.748 464.135 217.438 462.934 217.438 461.601C217.438 460.296 217.738 459.101 218.339 458.017C218.946 456.932 219.806 456.076 220.918 455.448C222.037 454.812 223.321 454.494 224.772 454.494ZM220.007 461.58C220.007 462.45 220.21 463.248 220.618 463.973C221.032 464.691 221.602 465.261 222.327 465.682C223.052 466.097 223.867 466.304 224.772 466.304C225.67 466.304 226.491 466.083 227.237 465.641C227.99 465.192 228.584 464.602 229.019 463.869C229.461 463.137 229.682 462.36 229.682 461.539C229.682 460.724 229.471 459.954 229.05 459.229C228.629 458.503 228.049 457.92 227.31 457.478C226.578 457.036 225.759 456.815 224.855 456.815C223.95 456.815 223.125 457.029 222.379 457.457C221.64 457.885 221.056 458.465 220.628 459.198C220.207 459.923 220 460.717 220.007 461.58Z" fill="#222222"/>
<path d="M358.399 476.29C357.004 476.29 355.754 476.055 354.649 475.586C353.544 475.116 352.67 474.456 352.028 473.607C351.393 472.758 351.051 471.78 351.002 470.675H353.675C353.723 471.331 353.958 471.908 354.379 472.405C354.801 472.896 355.357 473.276 356.047 473.545C356.745 473.814 357.515 473.949 358.357 473.949C359.283 473.949 360.111 473.794 360.844 473.483C361.576 473.165 362.149 472.723 362.563 472.157C362.977 471.59 363.185 470.945 363.185 470.22C363.185 469.446 362.981 468.762 362.573 468.169C362.173 467.575 361.586 467.112 360.812 466.78C360.039 466.449 359.11 466.283 358.026 466.283H356.306V463.963H358.026C358.882 463.963 359.642 463.811 360.305 463.507C360.975 463.203 361.493 462.778 361.859 462.233C362.232 461.68 362.418 461.041 362.418 460.316C362.418 459.619 362.256 459.004 361.931 458.472C361.607 457.941 361.144 457.53 360.543 457.24C359.942 456.943 359.241 456.794 358.44 456.794C357.681 456.794 356.966 456.929 356.296 457.198C355.633 457.468 355.094 457.854 354.68 458.358C354.265 458.856 354.041 459.439 354.006 460.109H351.458C351.5 459.018 351.838 458.048 352.473 457.198C353.109 456.342 353.955 455.679 355.011 455.209C356.068 454.733 357.225 454.494 358.482 454.494C359.787 454.494 360.93 454.753 361.91 455.271C362.898 455.789 363.654 456.483 364.179 457.354C364.711 458.224 364.973 459.17 364.966 460.192C364.973 460.979 364.832 461.698 364.542 462.347C364.252 462.996 363.834 463.545 363.288 463.994C362.743 464.443 362.1 464.771 361.361 464.978V465.144C362.273 465.282 363.06 465.582 363.723 466.045C364.393 466.501 364.904 467.091 365.256 467.816C365.609 468.535 365.781 469.343 365.774 470.24C365.781 471.38 365.464 472.412 364.821 473.338C364.186 474.256 363.302 474.978 362.169 475.503C361.044 476.028 359.787 476.29 358.399 476.29Z" fill="#222222"/>
<path d="M84.8312 547.073L92.0618 539.449C93.0149 538.434 93.74 537.619 94.2373 537.004C94.7414 536.383 95.1247 535.785 95.3871 535.212C95.6496 534.632 95.7842 534.028 95.7911 533.399C95.7842 532.681 95.5943 532.049 95.2214 531.503C94.8554 530.958 94.3512 530.537 93.7089 530.24C93.0736 529.943 92.3588 529.794 91.5646 529.794C90.7359 529.794 90.0073 529.96 89.3788 530.291C88.7573 530.623 88.2773 531.089 87.9389 531.69C87.6074 532.291 87.4417 532.985 87.4417 533.772H84.9348C84.9279 532.543 85.2145 531.455 85.7946 530.509C86.3816 529.556 87.1862 528.817 88.2083 528.292C89.2304 527.76 90.3768 527.494 91.6475 527.494C92.9044 527.494 94.0335 527.757 95.0349 528.282C96.0432 528.8 96.8305 529.508 97.3968 530.405C97.9631 531.303 98.2497 532.301 98.2566 533.399C98.2497 534.207 98.0978 534.981 97.8008 535.72C97.5107 536.452 97.017 537.267 96.3194 538.164C95.6288 539.062 94.6447 540.167 93.3671 541.479L88.519 546.493V546.659H98.6295V549H84.8519L84.8312 547.073Z" fill="#222222"/>
<path d="M225.248 549.29C223.881 549.29 222.61 548.983 221.436 548.368C220.269 547.747 219.309 546.686 218.556 545.188C217.81 543.682 217.438 541.686 217.438 539.2C217.438 536.728 217.762 534.615 218.411 532.86C219.06 531.106 219.989 529.773 221.198 528.862C222.406 527.95 223.839 527.494 225.497 527.494C226.719 527.494 227.817 527.733 228.791 528.209C229.772 528.679 230.569 529.338 231.184 530.188C231.799 531.03 232.196 532.004 232.375 533.109H229.765C229.516 532.128 229.026 531.338 228.294 530.737C227.562 530.136 226.629 529.836 225.497 529.836C224.344 529.836 223.349 530.157 222.513 530.799C221.678 531.434 221.036 532.36 220.587 533.575C220.145 534.791 219.924 536.244 219.924 537.936H220.193C220.808 537.039 221.585 536.345 222.524 535.854C223.47 535.364 224.509 535.119 225.642 535.119C226.892 535.119 228.045 535.423 229.102 536.03C230.159 536.631 230.998 537.467 231.619 538.537C232.248 539.608 232.562 540.809 232.562 542.142C232.562 543.468 232.258 544.677 231.65 545.768C231.042 546.852 230.183 547.712 229.071 548.347C227.966 548.976 226.692 549.29 225.248 549.29ZM220.297 542.204C220.297 543.033 220.507 543.814 220.929 544.546C221.35 545.278 221.93 545.865 222.669 546.307C223.415 546.749 224.247 546.97 225.165 546.97C226.063 546.97 226.882 546.756 227.621 546.327C228.359 545.899 228.94 545.319 229.361 544.587C229.789 543.848 230.007 543.04 230.013 542.163C230.007 541.307 229.796 540.519 229.382 539.801C228.974 539.076 228.408 538.503 227.683 538.081C226.958 537.653 226.146 537.439 225.248 537.439C224.344 537.439 223.511 537.66 222.752 538.102C221.999 538.544 221.402 539.131 220.96 539.863C220.525 540.595 220.304 541.376 220.297 542.204Z" fill="#222222"/>
<path d="M361.245 549H358.593V530.54H358.469L353.31 533.959V531.307L358.593 527.785H361.245V549Z" fill="#222222"/>
<path d="M83.7773 615.494L93.3284 600.785H96.5605V615.349H99.5439V617.67H96.5605V622H94.0536V617.67H83.7773V615.494ZM94.0536 615.349V604.12H93.8049L86.6157 615.184V615.349H94.0536Z" fill="#222222"/>
<path d="M229.113 603.291V603.126H217.905V600.785H231.848V603.25L222.152 622H219.376L229.113 603.291Z" fill="#222222"/>
<path d="M358.292 622.29C357.028 622.29 355.882 622.048 354.853 621.565C353.824 621.081 353.002 620.415 352.387 619.566C351.78 618.709 351.448 617.746 351.393 616.675H353.962C354.024 617.297 354.252 617.86 354.646 618.364C355.046 618.861 355.564 619.255 356.199 619.545C356.842 619.828 357.539 619.97 358.292 619.97C359.197 619.97 360.008 619.766 360.726 619.358C361.452 618.951 362.018 618.392 362.425 617.68C362.833 616.969 363.036 616.171 363.036 615.287C363.036 614.383 362.822 613.568 362.394 612.843C361.973 612.11 361.386 611.537 360.633 611.123C359.887 610.702 359.045 610.488 358.106 610.481C356.213 610.46 354.894 611.095 354.148 612.387H351.6L353.092 600.785H364.59V603.126H355.288L354.501 609.341H354.728C355.205 608.968 355.782 608.671 356.458 608.45C357.142 608.229 357.85 608.119 358.582 608.119C359.915 608.119 361.113 608.426 362.177 609.041C363.247 609.648 364.086 610.494 364.694 611.579C365.302 612.656 365.606 613.872 365.606 615.225C365.606 616.572 365.291 617.784 364.663 618.861C364.034 619.932 363.164 620.771 362.052 621.378C360.94 621.986 359.687 622.29 358.292 622.29Z" fill="#222222"/>
<path d="M82.3942 676.797V692.424H81.0583V684.303H78.9313V691.633H77.613V677.131H78.9313V683.125H81.0583V676.797H82.3942ZM73.5876 681.068C73.5876 683.934 74.7653 686.447 76.9977 687.59L76.1716 688.662C74.5895 687.801 73.5085 686.254 72.9548 684.338C72.4186 686.518 71.32 688.223 69.6676 689.189L68.8063 688.135C71.0563 686.904 72.2516 684.232 72.2516 681.068V679.82H69.1755V678.66H76.488V679.82H73.5876V681.068ZM86.4196 678.291V682.105H89.8122V678.291H91.0954V688.521H85.1012V678.291H86.4196ZM86.4196 687.379H89.8122V683.23H86.4196V687.379ZM97.9157 676.797V692.424H96.5798V684.145H94.4001V691.633H93.0817V677.131H94.4001V683.002H96.5798V676.797H97.9157ZM104.384 677.359C105.756 677.359 106.916 677.869 107.636 678.713H111.644V676.797H113.015V684.83H111.644V683.037H107.689C106.96 683.916 105.782 684.443 104.384 684.443C102.029 684.443 100.324 683.002 100.324 680.893C100.324 678.801 102.029 677.359 104.384 677.359ZM104.384 678.502C102.785 678.484 101.642 679.486 101.642 680.893C101.642 682.316 102.785 683.318 104.384 683.336C105.931 683.318 107.091 682.316 107.091 680.893C107.091 679.486 105.931 678.484 104.384 678.502ZM113.015 685.621V689.365H104.297V691.105H113.613V692.213H102.925V688.311H111.644V686.729H102.89V685.621H113.015ZM108.269 679.82C108.366 680.154 108.427 680.515 108.427 680.893C108.427 681.262 108.366 681.604 108.269 681.93H111.644V679.82H108.269Z" fill="#222222"/>
<path d="M224.994 695.29C223.433 695.29 222.097 694.865 220.985 694.016C219.88 693.16 219.034 691.916 218.447 690.287C217.867 688.657 217.577 686.692 217.577 684.392C217.577 682.113 217.87 680.159 218.457 678.529C219.044 676.892 219.894 675.646 221.006 674.789C222.118 673.926 223.447 673.494 224.994 673.494C226.541 673.494 227.87 673.926 228.982 674.789C230.094 675.646 230.944 676.892 231.531 678.529C232.118 680.159 232.411 682.113 232.411 684.392C232.411 686.692 232.118 688.657 231.531 690.287C230.95 691.916 230.104 693.16 228.993 694.016C227.888 694.865 226.555 695.29 224.994 695.29ZM220.146 684.392C220.146 686.209 220.336 687.759 220.716 689.044C221.096 690.321 221.648 691.291 222.373 691.954C223.098 692.617 223.972 692.949 224.994 692.949C226.016 692.949 226.89 692.617 227.615 691.954C228.34 691.291 228.892 690.321 229.272 689.044C229.652 687.759 229.842 686.209 229.842 684.392C229.842 682.576 229.649 681.026 229.262 679.741C228.882 678.45 228.33 677.469 227.604 676.799C226.879 676.129 226.009 675.794 224.994 675.794C223.979 675.794 223.109 676.129 222.383 676.799C221.658 677.469 221.102 678.45 220.716 679.741C220.336 681.026 220.146 682.576 220.146 684.392Z" fill="#222222"/>
<mask id="mask2_241_1586" style="mask-type:alpha" maskUnits="userSpaceOnUse" x="338" y="664" width="41" height="41">
<rect x="338.333" y="664.5" width="40" height="40" fill="#D9D9D9"/>
</mask>
<g mask="url(#mask2_241_1586)">
<path d="M353.974 694.5C353.376 694.5 352.812 694.364 352.283 694.093C351.755 693.822 351.316 693.442 350.968 692.955L346.118 686.064C345.787 685.588 345.621 685.066 345.621 684.5C345.621 683.934 345.787 683.413 346.118 682.936L350.968 676.109C351.316 675.622 351.749 675.232 352.267 674.939C352.786 674.646 353.354 674.5 353.974 674.5H368.974C369.72 674.5 370.355 674.762 370.88 675.287C371.404 675.811 371.666 676.447 371.666 677.192V691.808C371.666 692.553 371.404 693.189 370.88 693.713C370.355 694.238 369.72 694.5 368.974 694.5H353.974ZM353.974 692.833H368.974C369.231 692.833 369.466 692.727 369.679 692.513C369.893 692.299 370 692.064 370 691.808V677.192C370 676.936 369.893 676.701 369.679 676.487C369.466 676.273 369.231 676.167 368.974 676.167H353.974C353.654 676.167 353.349 676.247 353.061 676.407C352.772 676.567 352.543 676.765 352.371 677L347.448 683.891C347.32 684.062 347.256 684.265 347.256 684.5C347.256 684.735 347.32 684.938 347.448 685.109L352.371 692C352.543 692.235 352.772 692.433 353.061 692.593C353.349 692.753 353.654 692.833 353.974 692.833ZM361.089 685.68L364.833 689.423C364.989 689.579 365.18 689.662 365.407 689.673C365.633 689.684 365.835 689.6 366.013 689.423C366.19 689.246 366.278 689.049 366.278 688.833C366.278 688.618 366.19 688.421 366.013 688.244L362.269 684.5L366.013 680.756C366.168 680.6 366.252 680.409 366.263 680.182C366.273 679.956 366.19 679.754 366.013 679.577C365.835 679.4 365.638 679.311 365.423 679.311C365.207 679.311 365.01 679.4 364.833 679.577L361.089 683.32L357.346 679.577C357.19 679.421 356.999 679.338 356.772 679.327C356.546 679.316 356.344 679.4 356.166 679.577C355.989 679.754 355.901 679.951 355.901 680.167C355.901 680.383 355.989 680.579 356.166 680.756L359.91 684.5L356.166 688.244C356.01 688.4 355.927 688.591 355.916 688.817C355.906 689.044 355.989 689.246 356.166 689.423C356.344 689.6 356.54 689.689 356.756 689.689C356.972 689.689 357.168 689.6 357.346 689.423L361.089 685.68Z" fill="#797378"/>
</g>
<rect x="25" y="736" width="400" height="49" rx="5" fill="#00C18A"/>
<path d="M222.656 753.281V757.391H224.562V758.828H222.656V762.828H220.922V753.281H222.656ZM211.344 761.141C212.406 761.141 213.633 761.133 214.906 761.094V760.234C213.336 760.039 212.344 759.281 212.344 758.172C212.344 756.875 213.703 756.062 215.75 756.078C217.812 756.062 219.156 756.875 219.156 758.172C219.156 759.273 218.188 760.023 216.641 760.219V761.031C217.844 760.977 219.055 760.883 220.188 760.734L220.328 761.938C217.312 762.469 214.016 762.5 211.531 762.5L211.344 761.141ZM222.656 763.438V767.391H220.922V764.797H213.125V763.438H222.656ZM219.812 754.391V755.672H211.703V754.391H214.906V753.156H216.641V754.391H219.812ZM215.75 757.25C214.656 757.234 214 757.562 214.016 758.172C214 758.75 214.656 759.125 215.75 759.109C216.844 759.125 217.5 758.75 217.5 758.172C217.5 757.562 216.844 757.234 215.75 757.25ZM237.062 753.281V763.484H235.312V753.281H237.062ZM237.453 765.703V767.109H227.719V762.453H229.469V765.703H237.453ZM229.359 754.203C231.5 754.203 233.156 755.688 233.156 757.734C233.156 759.828 231.5 761.281 229.359 761.281C227.203 761.281 225.547 759.828 225.547 757.734C225.547 755.688 227.203 754.203 229.359 754.203ZM229.359 755.719C228.156 755.719 227.234 756.516 227.25 757.734C227.234 758.984 228.156 759.766 229.359 759.766C230.531 759.766 231.453 758.984 231.453 757.734C231.453 756.516 230.531 755.719 229.359 755.719Z" fill="white"/>
<defs>
<clipPath id="clip0_241_1586">
<rect width="16" height="16" fill="white" transform="translate(35 164)"/>
</clipPath>
</defs>
</svg>
