<svg width="400" height="670" viewBox="0 0 400 670" fill="none" xmlns="http://www.w3.org/2000/svg">
<rect width="400" height="670" fill="white"/>
<mask id="mask0_514_2828" style="mask-type:alpha" maskUnits="userSpaceOnUse" x="25" y="20" width="40" height="40">
<rect x="25" y="20" width="40" height="40" fill="#D9D9D9"/>
</mask>
<g mask="url(#mask0_514_2828)">
<path d="M28.375 39.972L35.4583 47.0553C35.7267 47.3239 35.8562 47.6481 35.8471 48.0278C35.8379 48.4073 35.699 48.7313 35.4304 48.9999C35.1618 49.2685 34.8331 49.4028 34.4442 49.4028C34.0553 49.4028 33.7267 49.2685 33.4583 48.9999L25.4025 40.9445C25.2544 40.7962 25.1503 40.6434 25.09 40.4862C25.03 40.3287 25 40.1573 25 39.972C25 39.787 25.03 39.6158 25.09 39.4583C25.1503 39.3008 25.2544 39.148 25.4025 38.9999L33.4858 30.9166C33.7544 30.648 34.0832 30.5137 34.4721 30.5137C34.861 30.5137 35.1897 30.648 35.4583 30.9166C35.7267 31.1852 35.8608 31.5139 35.8608 31.9028C35.8608 32.2917 35.7267 32.6203 35.4583 32.8887L28.375 39.972Z" fill="#111827"/>
</g>
<path d="M64.2383 31.6738V47.5645H62.375V31.6738H64.2383ZM60.9512 32.0605V46.8086H59.0879V41.5H56.6094V39.9004H59.0879V37.5449H56.8906C56.1436 40.1816 54.4824 42.4492 51.5117 44.207L50.3691 42.8184C53.665 40.876 55.1768 38.3887 55.4668 35.1895H51.2129V33.6074H57.4004C57.4004 34.4072 57.3477 35.1895 57.2422 35.9453H59.0879V32.0605H60.9512ZM75.2246 33.0273V34.627H71.9023C71.9551 36.3848 73.2471 38.0547 75.6641 38.7578L74.7324 40.2871C72.9219 39.751 71.6299 38.6436 70.9355 37.2285C70.2324 38.7842 68.8965 39.9971 67.0332 40.5684L66.0312 39.0391C68.501 38.3008 69.8369 36.543 69.916 34.627H66.5762V33.0273H75.2246ZM71.8848 39.9004V42.7305C73.1855 42.6689 74.4951 42.5635 75.7168 42.3965L75.8574 43.8027C72.5 44.4355 68.8613 44.418 66.1543 44.4355L65.8906 42.8359C67.0947 42.8359 68.4834 42.8359 69.9336 42.8008V39.9004H71.8848ZM80.8848 38.0547V39.6895H78.582V47.5645H76.6309V31.6738H78.582V38.0547H80.8848ZM94.8594 31.6738V47.582H92.8906V31.6738H94.8594ZM86.2988 32.834C88.6895 32.834 90.4297 35.0137 90.4473 38.4414C90.4297 41.9043 88.6895 44.0664 86.2988 44.0664C83.8906 44.0664 82.1504 41.9043 82.1504 38.4414C82.1504 35.0137 83.8906 32.834 86.2988 32.834ZM86.2988 34.5918C84.9453 34.5918 84.0312 36.0156 84.0312 38.4414C84.0312 40.8848 84.9453 42.3086 86.2988 42.3086C87.6348 42.3086 88.5488 40.8848 88.5488 38.4414C88.5488 36.0156 87.6348 34.5918 86.2988 34.5918ZM102.049 36.5254C102.049 38.9863 103.068 41.4648 105.283 42.6602L104.193 44.1016C102.717 43.3193 101.715 41.9219 101.152 40.252C100.59 42.0537 99.5879 43.5918 98.0938 44.4707L96.9512 42.9941C99.2012 41.6934 100.203 39.0391 100.203 36.5254V36.0332H97.4961V34.4512H100.203V32.2363H102.049V34.4512H104.703V36.0332H102.049V36.5254ZM110.873 31.6738V47.5645H109.01V31.6738H110.873ZM107.639 31.9727V46.791H105.793V39.3906H103.719V37.7734H105.793V31.9727H107.639Z" fill="#111827"/>
<path d="M343.258 38.0371V39.1973H340.727V47.4238H339.355V31.7969H340.727V38.0371H343.258ZM330.654 33.3438V42.291C332.939 42.2822 335.269 42.1064 337.844 41.5703L338.02 42.748C335.33 43.293 332.904 43.4512 330.531 43.4512H329.283V33.3438H330.654ZM356.283 31.7969V38.1602H358.814V39.3203H356.283V47.4238H354.912V31.7969H356.283ZM352.24 33.4844C352.24 37.9141 350.166 41.9395 345.068 44.4531L344.295 43.3633C348.338 41.3506 350.535 38.3447 350.852 34.6445H345.016V33.4844H352.24ZM372.666 31.7969V47.4238H371.277V31.7969H372.666ZM368.043 33.502C368.025 38.002 365.934 41.9746 360.695 44.4883L359.939 43.3633C364.167 41.3594 366.32 38.3623 366.637 34.627H360.66V33.502H368.043Z" fill="#EF403C"/>
<path d="M40.709 97.2334V99.0791H27.748V92.168H30.0244V97.2334H40.709ZM42.5547 101.417V103.283H35.1514V109.825H32.8545V103.283H25.6152V101.417H42.5547ZM58.5918 92.4141V94.0752C58.5918 95.8081 58.5918 97.7051 58.0996 100.33H60.6631V102.176H53.3008V109.846H51.0039V102.176H43.7646V100.33H55.7822C56.2949 97.8076 56.3154 95.9209 56.3154 94.2598H45.7539V92.4141H58.5918ZM77.9102 91.2861V109.825H75.7158V91.2861H77.9102ZM74.0957 91.6143V108.923H71.9219V100.104H70.1582C69.9429 103.714 68.3945 105.949 66.0977 105.929C63.6777 105.949 62.0986 103.386 62.0986 99.3047C62.0986 95.2236 63.6777 92.7012 66.0977 92.7012C68.3433 92.7012 69.8711 94.793 70.1377 98.2588H71.9219V91.6143H74.0957ZM66.0977 94.8545C64.9287 94.834 64.1904 96.4131 64.2109 99.3047C64.1904 102.196 64.9287 103.775 66.0977 103.755C67.3281 103.775 68.0664 102.196 68.0664 99.3047C68.0664 96.4131 67.3281 94.834 66.0977 94.8545ZM96.0596 91.2861V109.825H93.8857V91.2861H96.0596ZM92.1221 91.7373V108.943H89.9688V100.412H86.667C85.5801 102.545 83.8369 104.391 81.2119 105.908L79.9199 104.288C83.7651 102.022 85.5186 99.1201 85.8672 95.3877H80.8633V93.542H88.123C88.123 95.3364 87.9077 97.0181 87.4053 98.5869H89.9688V91.7373H92.1221ZM120.136 105.724V107.59H103.196V105.724H110.497V102.114H105.062V92.5166H107.339V95.5518H115.932V92.5166H118.208V102.114H112.753V105.724H120.136ZM107.339 100.269H115.932V97.377H107.339V100.269ZM137.198 91.3066V100.74H135.024V96.9258H133.035V100.699H130.923V91.6553H133.035V95.1006H135.024V91.3066H137.198ZM124.422 92.3115V98.0947C126.165 98.0742 127.816 97.9614 129.713 97.582L129.938 99.4277C127.58 99.8789 125.611 99.9609 123.376 99.9404H122.146V92.3115H124.422ZM137.198 101.438V106.298H126.965V107.795H137.854V109.6H124.668V104.616H134.922V103.263H124.647V101.438H137.198ZM154.281 91.2861V98.6895H156.845V100.576H154.281V109.825H151.984V91.2861H154.281ZM145.053 93.2344C145.032 98.0947 144.355 102.196 141.013 105.806L139.229 104.514C141.843 101.745 142.694 98.8125 142.879 95.1006H139.967V93.2344H145.053ZM150.18 93.2344C150.159 98.2178 149.646 102.976 146.304 106.995L144.479 105.744C147.124 102.596 147.862 99.1201 148.026 95.1006H145.668V93.2344H150.18ZM174.584 105.703V107.569H157.645V105.703H161.562V101.007C160.085 100.166 159.193 98.8433 159.203 97.1924C159.183 94.2393 162.095 92.291 166.073 92.291C170.072 92.291 172.984 94.2393 172.984 97.1924C172.984 98.8125 172.123 100.115 170.688 100.966V105.703H174.584ZM166.073 94.0957C163.305 94.0957 161.418 95.2646 161.438 97.1924C161.418 99.0996 163.305 100.289 166.073 100.289C168.842 100.289 170.749 99.0996 170.749 97.1924C170.749 95.2646 168.842 94.0957 166.073 94.0957ZM163.817 105.703H168.37V101.827C167.663 101.991 166.894 102.073 166.073 102.073C165.273 102.073 164.515 101.991 163.817 101.848V105.703ZM178.932 103.447C178.952 100.843 179.69 100.043 180.982 99.2432C181.864 98.6895 182.521 97.9922 182.521 96.9668C182.521 95.8184 181.639 95.0801 180.511 95.0801C179.485 95.0801 178.501 95.7363 178.439 97.1104H175.876C175.938 94.3623 178.009 92.9473 180.531 92.9473C183.3 92.9473 185.207 94.4854 185.207 96.9258C185.207 98.5869 184.366 99.6738 183.033 100.474C181.844 101.191 181.352 101.909 181.331 103.447V103.632H178.932V103.447ZM180.203 108.164C179.321 108.164 178.604 107.446 178.604 106.564C178.604 105.703 179.321 104.985 180.203 104.985C181.044 104.985 181.782 105.703 181.782 106.564C181.782 107.446 181.044 108.164 180.203 108.164Z" fill="#111827"/>
<mask id="path-6-inside-1_514_2828" fill="white">
<path d="M25 123H375V177H25V123Z"/>
</mask>
<path d="M375 176H25V178H375V176Z" fill="#D1D5DB" mask="url(#path-6-inside-1_514_2828)"/>
<rect x="24.5" y="131.5" width="37" height="37" rx="18.5" fill="white"/>
<rect x="24.5" y="131.5" width="37" height="37" rx="18.5" stroke="#D1D5DB"/>
<g clip-path="url(#clip0_514_2828)">
<path d="M37.5017 157.048C36.8888 157.048 36.3906 156.55 36.3906 155.937V148.037C36.3906 147.424 36.8888 146.926 37.5017 146.926C38.1147 146.926 38.6128 147.424 38.6128 148.037V155.937C38.6128 156.55 38.1147 157.048 37.5017 157.048Z" fill="#A6F4C2"/>
<path d="M41.1658 157.048C40.5528 157.048 40.0547 156.55 40.0547 155.937V148.037C40.0547 147.424 40.5528 146.926 41.1658 146.926C41.7788 146.926 42.2769 147.424 42.2769 148.037V155.937C42.2769 156.55 41.7788 157.048 41.1658 157.048Z" fill="#A6F4C2"/>
<path d="M44.8338 157.048C44.2208 157.048 43.7227 156.55 43.7227 155.937V148.037C43.7227 147.424 44.2208 146.926 44.8338 146.926C45.4467 146.926 45.9449 147.424 45.9449 148.037V155.937C45.9449 156.55 45.4467 157.048 44.8338 157.048Z" fill="#A6F4C2"/>
<path d="M48.4978 157.048C47.8849 157.048 47.3867 156.55 47.3867 155.937V148.037C47.3867 147.424 47.8849 146.926 48.4978 146.926C49.1108 146.926 49.6089 147.424 49.6089 148.037V155.937C49.6089 156.55 49.1108 157.048 48.4978 157.048Z" fill="#A6F4C2"/>
<path d="M50.4648 148.094H35.5352C35.2389 148.094 35 147.854 35 147.559V146.683C35 146.489 35.1056 146.309 35.2759 146.215L42.7389 142.067C42.9 141.976 43.0981 141.976 43.2593 142.067L50.7241 146.213C50.8944 146.307 51 146.487 51 146.681V147.557C51 147.854 50.7593 148.093 50.4648 148.093V148.094Z" fill="#00C18A"/>
<path d="M50.0907 155.311H35.9093C35.4071 155.311 35 155.718 35 156.22V156.763C35 157.265 35.4071 157.672 35.9093 157.672H50.0907C50.5929 157.672 51 157.265 51 156.763V156.22C51 155.718 50.5929 155.311 50.0907 155.311Z" fill="#00C18A"/>
</g>
<path d="M78.3594 143.938V146.094H81.4531V143.938H82.6094V150.312H77.2031V143.938H78.3594ZM78.3594 149.328H81.4531V147.078H78.3594V149.328ZM79.1094 154.234C79.0938 152.648 80.875 151.734 83.7656 151.734C86.6406 151.734 88.4297 152.648 88.4375 154.234C88.4297 155.82 86.6406 156.734 83.7656 156.734C80.875 156.734 79.0938 155.82 79.1094 154.234ZM80.3281 154.234C80.3125 155.203 81.6328 155.766 83.7656 155.766C85.875 155.766 87.2031 155.203 87.2188 154.234C87.2031 153.266 85.875 152.695 83.7656 152.688C81.6328 152.695 80.3125 153.266 80.3281 154.234ZM84.1875 150.984V143.156H85.3438V146.594H87.1875V142.891H88.3594V151.406H87.1875V147.609H85.3438V150.984H84.1875ZM97.7812 143.844C97.7734 147.391 95.7266 149.984 91.2656 151.297L90.7969 150.297C93.1719 149.617 94.7266 148.594 95.6016 147.305L90.9062 147.672L90.6875 146.656L96.0938 146.398C96.2891 145.906 96.4141 145.391 96.4609 144.844H91.3906V143.844H97.7812ZM92.5469 154.078C92.5469 152.406 94.3359 151.438 97.25 151.438C100.125 151.438 101.93 152.406 101.922 154.078C101.93 155.773 100.125 156.734 97.25 156.734C94.3359 156.734 92.5469 155.773 92.5469 154.078ZM93.7656 154.078C93.7734 155.125 95.0859 155.766 97.25 155.766C99.375 155.766 100.711 155.125 100.719 154.078C100.711 153.047 99.375 152.406 97.25 152.406C95.0859 152.406 93.7734 153.047 93.7656 154.078ZM100.641 151.25V142.891H101.859V151.25H100.641ZM116.875 150.203V151.203H104.219V150.203H116.875ZM105.625 146.125C105.625 144.383 107.531 143.359 110.547 143.375C113.531 143.359 115.445 144.383 115.453 146.125C115.445 147.852 113.531 148.891 110.547 148.891C107.531 148.891 105.625 147.852 105.625 146.125ZM105.859 156.469V152.422H107.094V155.438H115.469V156.469H105.859ZM106.891 146.125C106.883 147.227 108.305 147.891 110.547 147.891C112.773 147.891 114.195 147.227 114.203 146.125C114.195 145.039 112.773 144.359 110.547 144.359C108.305 144.359 106.883 145.039 106.891 146.125ZM129.844 142.875V151.672H128.672V147.688H126.812V151.172H125.656V143.156H126.812V146.672H128.672V142.875H129.844ZM117.969 145.531V144.547H120.938V142.984H122.156V144.547H125.094V145.531H117.969ZM118.578 148.656C118.57 147.203 119.797 146.273 121.547 146.281C123.305 146.273 124.523 147.203 124.531 148.656C124.523 150.086 123.305 151.016 121.547 151.016C119.797 151.016 118.57 150.086 118.578 148.656ZM119.672 148.656C119.672 149.508 120.438 150.094 121.547 150.094C122.656 150.094 123.422 149.508 123.422 148.656C123.422 147.773 122.656 147.188 121.547 147.188C120.438 147.188 119.672 147.773 119.672 148.656ZM120.594 154.344C120.578 152.781 122.32 151.906 125.25 151.906C128.172 151.906 129.914 152.781 129.922 154.344C129.914 155.867 128.172 156.734 125.25 156.734C122.32 156.734 120.578 155.867 120.594 154.344ZM121.812 154.344C121.797 155.242 123.086 155.789 125.25 155.781C127.406 155.789 128.688 155.242 128.703 154.344C128.688 153.391 127.406 152.859 125.25 152.875C123.086 152.859 121.797 153.391 121.812 154.344Z" fill="#111827"/>
<mask id="mask1_514_2828" style="mask-type:alpha" maskUnits="userSpaceOnUse" x="351" y="138" width="24" height="24">
<rect x="351" y="138" width="24" height="24" fill="#D9D9D9"/>
</mask>
<g mask="url(#mask1_514_2828)">
<path d="M362.474 152.475L358.849 148.85C358.799 148.8 358.762 148.746 358.737 148.688C358.712 148.629 358.699 148.567 358.699 148.5C358.699 148.367 358.745 148.25 358.837 148.15C358.928 148.05 359.049 148 359.199 148H366.799C366.949 148 367.07 148.05 367.162 148.15C367.253 148.25 367.299 148.367 367.299 148.5C367.299 148.533 367.249 148.65 367.149 148.85L363.524 152.475C363.441 152.558 363.358 152.617 363.274 152.65C363.191 152.683 363.099 152.7 362.999 152.7C362.899 152.7 362.808 152.683 362.724 152.65C362.641 152.617 362.558 152.558 362.474 152.475Z" fill="#111827"/>
</g>
<mask id="path-18-inside-2_514_2828" fill="white">
<path d="M25 177H375V231H25V177Z"/>
</mask>
<path d="M375 230H25V232H375V230Z" fill="#D1D5DB" mask="url(#path-18-inside-2_514_2828)"/>
<path d="M39.0097 212.43H37.692V196.804H39.0097V212.43ZM25.6215 208.054C27.2831 207.068 28.5573 205.889 29.4441 204.517C30.3349 203.142 30.8508 201.619 30.9917 199.949H26.3177V198.793H32.3591C32.3591 199.609 32.2887 200.396 32.1478 201.155H34.5221V197.227H35.8522V211.634H34.5221V206.214H31.6257V205.07H34.5221V202.298H31.8805C31.4869 203.666 30.8425 204.919 29.9475 206.059C29.0566 207.194 27.8923 208.191 26.4544 209.048L25.6215 208.054ZM46.6727 199.601C46.6685 200.256 46.8301 200.881 47.1575 201.478C47.489 202.07 47.9489 202.59 48.5373 203.038C49.1298 203.481 49.8053 203.819 50.5635 204.051L49.9047 205.145C48.9972 204.859 48.2017 204.426 47.518 203.846C46.8384 203.266 46.3287 202.584 45.989 201.801C45.645 202.646 45.1229 203.382 44.4227 204.008C43.7265 204.629 42.9102 205.095 41.9738 205.406L41.2652 204.312C42.0484 204.068 42.7424 203.711 43.3474 203.243C43.9524 202.775 44.4247 202.228 44.7645 201.602C45.1043 200.972 45.2763 200.305 45.2804 199.601V199.414H41.7376V198.258H50.1906V199.414H46.6727V199.601ZM40.9917 207.992C42.8274 207.992 44.2611 207.977 45.2928 207.948V204.76H46.6727V207.898C48.3301 207.82 49.7348 207.698 50.8868 207.532L50.9862 208.551C49.9503 208.733 48.8667 208.868 47.7355 208.955C46.6043 209.042 45.5518 209.096 44.578 209.117C43.6084 209.137 42.4834 209.148 41.203 209.148L40.9917 207.992ZM51.8937 196.804H53.2611V203.293H55.8094V204.474H53.2611V212.43H51.8937V196.804ZM69.7003 208.377H68.3205V202.36H64.6285V205.704H57.5304V197.848H58.9102V200.633H63.2611V197.848H64.6285V201.217H68.3205V196.816H69.7003V208.377ZM63.2611 204.573V201.714H58.9102V204.573H63.2611ZM59.5939 207.246H60.9862V210.938H70.0608V212.081H59.5939V207.246ZM85.8039 200.26H73.0125V199.116H78.7431V197.065H80.0981V199.116H85.8039V200.26ZM72.3039 209.446H78.7431V207.252C77.8149 207.206 77.0152 207.059 76.344 206.811C75.6768 206.558 75.1651 206.218 74.8087 205.791C74.4524 205.36 74.2763 204.855 74.2804 204.275C74.2763 203.657 74.4793 203.127 74.8895 202.684C75.3039 202.24 75.8964 201.903 76.6672 201.671C77.442 201.439 78.3578 201.325 79.4144 201.329C80.4627 201.325 81.3743 201.439 82.1492 201.671C82.9241 201.903 83.5187 202.242 83.933 202.69C84.3516 203.133 84.5608 203.662 84.5608 204.275C84.5608 204.851 84.3806 205.354 84.0201 205.785C83.6637 206.212 83.1499 206.552 82.4786 206.805C81.8115 207.053 81.018 207.202 80.0981 207.252V209.446H86.6119V210.59H72.3039V209.446ZM75.6727 204.275C75.6685 204.664 75.8156 205 76.114 205.282C76.4165 205.559 76.8474 205.773 77.4068 205.922C77.9703 206.071 78.6395 206.148 79.4144 206.152C80.1851 206.148 80.8502 206.071 81.4096 205.922C81.9731 205.773 82.404 205.559 82.7024 205.282C83.0049 205 83.1561 204.664 83.1561 204.275C83.1561 203.89 83.0049 203.558 82.7024 203.28C82.404 203.003 81.9731 202.791 81.4096 202.646C80.846 202.497 80.181 202.423 79.4144 202.423C78.6437 202.423 77.9766 202.497 77.413 202.646C76.8495 202.791 76.4165 203.003 76.114 203.28C75.8156 203.558 75.6685 203.89 75.6727 204.275Z" fill="#9CA3AF"/>
<defs>
<clipPath id="clip0_514_2828">
<rect width="16" height="16" fill="white" transform="translate(35 142)"/>
</clipPath>
</defs>
</svg>
