<svg width="450" height="730" viewBox="0 0 450 730" fill="none" xmlns="http://www.w3.org/2000/svg">
<rect width="450" height="730" fill="white"/>
<mask id="mask0_241_1740" style="mask-type:alpha" maskUnits="userSpaceOnUse" x="25" y="20" width="40" height="40">
<rect x="25" y="20" width="40" height="40" fill="#D9D9D9"/>
</mask>
<g mask="url(#mask0_241_1740)">
<path d="M28.375 39.972L35.4583 47.0553C35.7267 47.3239 35.8562 47.6481 35.8471 48.0278C35.8379 48.4073 35.699 48.7313 35.4304 48.9999C35.1618 49.2685 34.8331 49.4028 34.4442 49.4028C34.0553 49.4028 33.7267 49.2685 33.4583 48.9999L25.4025 40.9445C25.2544 40.7962 25.1503 40.6434 25.09 40.4862C25.03 40.3287 25 40.1573 25 39.972C25 39.787 25.03 39.6158 25.09 39.4583C25.1503 39.3008 25.2544 39.148 25.4025 38.9999L33.4858 30.9166C33.7544 30.648 34.0832 30.5137 34.4721 30.5137C34.861 30.5137 35.1897 30.648 35.4583 30.9166C35.7267 31.1852 35.8608 31.5139 35.8608 31.9028C35.8608 32.2917 35.7267 32.6203 35.4583 32.8887L28.375 39.972Z" fill="#111827"/>
</g>
<path d="M64.2383 31.6738V47.5645H62.375V31.6738H64.2383ZM60.9512 32.0605V46.8086H59.0879V41.5H56.6094V39.9004H59.0879V37.5449H56.8906C56.1436 40.1816 54.4824 42.4492 51.5117 44.207L50.3691 42.8184C53.665 40.876 55.1768 38.3887 55.4668 35.1895H51.2129V33.6074H57.4004C57.4004 34.4072 57.3477 35.1895 57.2422 35.9453H59.0879V32.0605H60.9512ZM75.2246 33.0273V34.627H71.9023C71.9551 36.3848 73.2471 38.0547 75.6641 38.7578L74.7324 40.2871C72.9219 39.751 71.6299 38.6436 70.9355 37.2285C70.2324 38.7842 68.8965 39.9971 67.0332 40.5684L66.0312 39.0391C68.501 38.3008 69.8369 36.543 69.916 34.627H66.5762V33.0273H75.2246ZM71.8848 39.9004V42.7305C73.1855 42.6689 74.4951 42.5635 75.7168 42.3965L75.8574 43.8027C72.5 44.4355 68.8613 44.418 66.1543 44.4355L65.8906 42.8359C67.0947 42.8359 68.4834 42.8359 69.9336 42.8008V39.9004H71.8848ZM80.8848 38.0547V39.6895H78.582V47.5645H76.6309V31.6738H78.582V38.0547H80.8848ZM94.8594 31.6738V47.582H92.8906V31.6738H94.8594ZM86.2988 32.834C88.6895 32.834 90.4297 35.0137 90.4473 38.4414C90.4297 41.9043 88.6895 44.0664 86.2988 44.0664C83.8906 44.0664 82.1504 41.9043 82.1504 38.4414C82.1504 35.0137 83.8906 32.834 86.2988 32.834ZM86.2988 34.5918C84.9453 34.5918 84.0312 36.0156 84.0312 38.4414C84.0312 40.8848 84.9453 42.3086 86.2988 42.3086C87.6348 42.3086 88.5488 40.8848 88.5488 38.4414C88.5488 36.0156 87.6348 34.5918 86.2988 34.5918ZM102.049 36.5254C102.049 38.9863 103.068 41.4648 105.283 42.6602L104.193 44.1016C102.717 43.3193 101.715 41.9219 101.152 40.252C100.59 42.0537 99.5879 43.5918 98.0938 44.4707L96.9512 42.9941C99.2012 41.6934 100.203 39.0391 100.203 36.5254V36.0332H97.4961V34.4512H100.203V32.2363H102.049V34.4512H104.703V36.0332H102.049V36.5254ZM110.873 31.6738V47.5645H109.01V31.6738H110.873ZM107.639 31.9727V46.791H105.793V39.3906H103.719V37.7734H105.793V31.9727H107.639Z" fill="#111827"/>
<path d="M393.258 38.0371V39.1973H390.727V47.4238H389.355V31.7969H390.727V38.0371H393.258ZM380.654 33.3438V42.291C382.939 42.2822 385.269 42.1064 387.844 41.5703L388.02 42.748C385.33 43.293 382.904 43.4512 380.531 43.4512H379.283V33.3438H380.654ZM406.283 31.7969V38.1602H408.814V39.3203H406.283V47.4238H404.912V31.7969H406.283ZM402.24 33.4844C402.24 37.9141 400.166 41.9395 395.068 44.4531L394.295 43.3633C398.338 41.3506 400.535 38.3447 400.852 34.6445H395.016V33.4844H402.24ZM422.666 31.7969V47.4238H421.277V31.7969H422.666ZM418.043 33.502C418.025 38.002 415.934 41.9746 410.695 44.4883L409.939 43.3633C414.167 41.3594 416.32 38.3623 416.637 34.627H410.66V33.502H418.043Z" fill="#EF403C"/>
<mask id="path-5-inside-1_241_1740" fill="white">
<path d="M25 118H425V206H25V118Z"/>
</mask>
<path d="M425 204H25V208H425V204Z" fill="#6B7280" mask="url(#path-5-inside-1_241_1740)"/>
<path d="M43.4922 119.828V141.203H40.4688V119.828H43.4922ZM31.9141 121.328C35.125 121.328 37.5156 124.281 37.5156 128.922C37.5156 133.609 35.125 136.539 31.9141 136.539C28.6328 136.539 26.2422 133.609 26.2656 128.922C26.2422 124.281 28.6328 121.328 31.9141 121.328ZM31.9141 124.023C30.25 124.023 29.1484 125.758 29.1484 128.922C29.1484 132.109 30.25 133.82 31.9141 133.82C33.5312 133.82 34.6328 132.109 34.6328 128.922C34.6328 125.758 33.5312 124.023 31.9141 124.023ZM52.1172 121.328C55.375 121.328 57.7188 124.281 57.7422 128.922C57.7188 133.609 55.375 136.539 52.1172 136.539C48.8594 136.539 46.4688 133.609 46.4922 128.922C46.4688 124.281 48.8594 121.328 52.1172 121.328ZM52.1172 124.023C50.4766 124.023 49.375 125.758 49.375 128.922C49.375 132.109 50.4766 133.82 52.1172 133.82C53.7812 133.82 54.8594 132.109 54.8828 128.922C54.8594 125.758 53.7812 124.023 52.1172 124.023ZM63.2031 119.828V127.867H66.3438V130.352H63.2031V141.156H60.2031V119.828H63.2031ZM86.6172 128.148V130.492H67.1172V128.148H86.6172ZM84.2969 124.633V126.977H69.5547V120.25H84.1328V122.641H72.5312V124.633H84.2969ZM84.2031 131.758V137.336H72.3203V138.648H84.7656V140.969H69.3906V135.203H81.25V134.008H69.3672V131.758H84.2031Z" fill="#111827"/>
<path d="M106.017 131.89H104.21V120.072H106.017V131.89ZM90.1547 121.298H92.011V128.724C93.8287 128.718 95.5249 128.644 97.0994 128.5C98.6796 128.356 100.265 128.116 101.856 127.779L102.138 129.32C100.431 129.663 98.7569 129.909 97.116 130.058C95.4751 130.207 93.7182 130.287 91.8453 130.298H90.1547V121.298ZM92.4917 132.867H106.017V140.608H92.4917V132.867ZM104.227 139.116V134.343H94.3149V139.116H104.227ZM127.438 140.906H125.665V120.072H127.438V140.906ZM109.853 129.055C109.853 127.597 110.035 126.323 110.4 125.235C110.77 124.141 111.289 123.301 111.958 122.715C112.632 122.124 113.416 121.829 114.311 121.829C115.151 121.829 115.894 122.086 116.541 122.599C117.192 123.113 117.712 123.851 118.099 124.812C118.485 125.768 118.717 126.895 118.795 128.193H121.488V120.519H123.262V139.845H121.488V129.718H118.803C118.742 131.061 118.518 132.229 118.132 133.224C117.75 134.213 117.231 134.975 116.574 135.511C115.916 136.041 115.162 136.304 114.311 136.298C113.416 136.304 112.632 136.011 111.958 135.42C111.289 134.829 110.77 133.986 110.4 132.892C110.035 131.798 109.853 130.519 109.853 129.055ZM111.576 129.055C111.571 130.171 111.679 131.146 111.9 131.981C112.126 132.809 112.447 133.448 112.861 133.895C113.275 134.343 113.759 134.564 114.311 134.558C114.875 134.564 115.366 134.343 115.786 133.895C116.206 133.448 116.529 132.809 116.756 131.981C116.983 131.146 117.096 130.171 117.096 129.055C117.096 127.939 116.983 126.967 116.756 126.138C116.529 125.309 116.206 124.671 115.786 124.224C115.366 123.776 114.875 123.552 114.311 123.552C113.759 123.552 113.275 123.776 112.861 124.224C112.447 124.671 112.126 125.309 111.9 126.138C111.679 126.967 111.571 127.939 111.576 129.055ZM148.164 140.906H146.407V120.072H148.164V140.906ZM130.346 135.072C132.567 133.757 134.269 132.185 135.451 130.356C136.634 128.522 137.313 126.492 137.49 124.265H131.241V122.724H139.33C139.319 124.867 138.971 126.834 138.285 128.624H142.031V120.635H143.788V139.845H142.031V130.116H137.606C136.285 132.652 134.225 134.746 131.424 136.398L130.346 135.072Z" fill="#111827"/>
<path d="M33.6484 156.031V173H30.1094V159.383H30.0156L26.125 161.82V158.703L30.3203 156.031H33.6484ZM44.1719 173.234C39.918 173.234 37.3516 170.07 37.3516 164.516C37.3516 158.973 39.9414 155.797 44.1719 155.797C48.4023 155.797 50.9922 158.973 50.9922 164.516C50.9922 170.094 48.4141 173.234 44.1719 173.234ZM40.9609 164.516C40.9375 168.43 42.2031 170.328 44.1719 170.328C46.1406 170.328 47.3945 168.43 47.3828 164.516C47.3945 160.637 46.1289 158.691 44.1719 158.68C42.2148 158.691 40.9609 160.637 40.9609 164.516ZM60.0156 173.234C55.7617 173.234 53.1953 170.07 53.1953 164.516C53.1953 158.973 55.7852 155.797 60.0156 155.797C64.2461 155.797 66.8359 158.973 66.8359 164.516C66.8359 170.094 64.2578 173.234 60.0156 173.234ZM56.8047 164.516C56.7812 168.43 58.0469 170.328 60.0156 170.328C61.9844 170.328 63.2383 168.43 63.2266 164.516C63.2383 160.637 61.9727 158.691 60.0156 158.68C58.0586 158.691 56.8047 160.637 56.8047 164.516ZM72.3672 171.266L70.3516 177.945H67.8672L69.0391 171.266H72.3672ZM81.3438 173.234C77.0898 173.234 74.5234 170.07 74.5234 164.516C74.5234 158.973 77.1133 155.797 81.3438 155.797C85.5742 155.797 88.1641 158.973 88.1641 164.516C88.1641 170.094 85.5859 173.234 81.3438 173.234ZM78.1328 164.516C78.1094 168.43 79.375 170.328 81.3438 170.328C83.3125 170.328 84.5664 168.43 84.5547 164.516C84.5664 160.637 83.3008 158.691 81.3438 158.68C79.3867 158.691 78.1328 160.637 78.1328 164.516ZM97.1875 173.234C92.9336 173.234 90.3672 170.07 90.3672 164.516C90.3672 158.973 92.957 155.797 97.1875 155.797C101.418 155.797 104.008 158.973 104.008 164.516C104.008 170.094 101.43 173.234 97.1875 173.234ZM93.9766 164.516C93.9531 168.43 95.2188 170.328 97.1875 170.328C99.1562 170.328 100.41 168.43 100.398 164.516C100.41 160.637 99.1445 158.691 97.1875 158.68C95.2305 158.691 93.9766 160.637 93.9766 164.516ZM113.031 173.234C108.777 173.234 106.211 170.07 106.211 164.516C106.211 158.973 108.801 155.797 113.031 155.797C117.262 155.797 119.852 158.973 119.852 164.516C119.852 170.094 117.273 173.234 113.031 173.234ZM109.82 164.516C109.797 168.43 111.062 170.328 113.031 170.328C115 170.328 116.254 168.43 116.242 164.516C116.254 160.637 114.988 158.691 113.031 158.68C111.074 158.691 109.82 160.637 109.82 164.516Z" fill="#00C18A"/>
<path d="M139.017 169.917H137.16V167.746H132.867V166.403H137.16V154.088H139.017V169.917ZM121.729 163.735C124.481 163.724 126.936 163.682 129.097 163.61C131.262 163.533 133.326 163.37 135.287 163.122L135.42 164.464C133.691 164.74 131.779 164.942 129.685 165.069V169.188H127.845V165.16C126.425 165.215 124.807 165.243 122.989 165.243H121.978L121.729 163.735ZM123.403 158.564C123.403 157.845 123.619 157.213 124.05 156.666C124.481 156.113 125.088 155.688 125.873 155.39C126.657 155.086 127.558 154.934 128.575 154.934C129.58 154.934 130.472 155.086 131.251 155.39C132.03 155.688 132.635 156.113 133.066 156.666C133.503 157.213 133.724 157.845 133.729 158.564C133.724 159.293 133.503 159.931 133.066 160.478C132.635 161.019 132.03 161.439 131.251 161.738C130.478 162.03 129.586 162.177 128.575 162.177C127.552 162.177 126.649 162.03 125.865 161.738C125.086 161.445 124.481 161.025 124.05 160.478C123.619 159.931 123.403 159.293 123.403 158.564ZM124.729 168.359H126.569V172.917H139.53V174.442H124.729V168.359ZM125.16 158.564C125.155 159.011 125.293 159.403 125.575 159.74C125.862 160.077 126.265 160.34 126.785 160.528C127.304 160.71 127.901 160.801 128.575 160.801C129.227 160.801 129.809 160.71 130.323 160.528C130.837 160.34 131.238 160.077 131.525 159.74C131.818 159.403 131.967 159.011 131.972 158.564C131.967 158.122 131.818 157.732 131.525 157.395C131.238 157.052 130.837 156.787 130.323 156.599C129.809 156.412 129.227 156.32 128.575 156.326C127.901 156.32 127.304 156.412 126.785 156.599C126.265 156.787 125.862 157.052 125.575 157.395C125.293 157.732 125.155 158.122 125.16 158.564ZM152.068 154.436C153.615 154.436 154.938 154.575 156.038 154.851C157.137 155.127 157.977 155.536 158.557 156.077C159.137 156.613 159.427 157.265 159.427 158.033C159.427 158.812 159.137 159.472 158.557 160.014C157.977 160.555 157.137 160.967 156.038 161.249C154.938 161.53 153.615 161.674 152.068 161.68C150.521 161.674 149.195 161.53 148.09 161.249C146.991 160.967 146.148 160.555 145.563 160.014C144.983 159.472 144.692 158.812 144.692 158.033C144.692 157.265 144.983 156.613 145.563 156.077C146.148 155.541 146.991 155.135 148.09 154.859C149.195 154.577 150.521 154.436 152.068 154.436ZM142.587 163.088H161.582V164.58H142.587V163.088ZM144.891 166.387H159.129V171.044H146.748V173.215H159.759V174.674H144.941V169.685H157.322V167.796H144.891V166.387ZM146.615 158.033C146.61 158.508 146.82 158.914 147.245 159.251C147.676 159.583 148.3 159.837 149.118 160.014C149.936 160.185 150.919 160.271 152.068 160.271C153.223 160.271 154.209 160.185 155.027 160.014C155.85 159.837 156.477 159.583 156.908 159.251C157.339 158.914 157.554 158.508 157.554 158.033C157.554 157.575 157.336 157.182 156.9 156.856C156.469 156.525 155.842 156.271 155.018 156.094C154.195 155.917 153.212 155.829 152.068 155.829C150.93 155.829 149.949 155.917 149.126 156.094C148.308 156.271 147.684 156.525 147.253 156.856C146.822 157.182 146.61 157.575 146.615 158.033ZM186.524 174.939H184.685V154.072H186.524V174.939ZM170.132 162.939C170.132 161.486 170.356 160.213 170.803 159.119C171.256 158.025 171.886 157.18 172.693 156.583C173.5 155.986 174.419 155.685 175.453 155.68C176.48 155.685 177.395 155.986 178.196 156.583C179.002 157.18 179.632 158.028 180.085 159.127C180.544 160.221 180.773 161.492 180.773 162.939C180.773 164.392 180.544 165.669 180.085 166.768C179.632 167.867 179.002 168.715 178.196 169.312C177.389 169.903 176.475 170.199 175.453 170.199C174.419 170.199 173.5 169.903 172.693 169.312C171.886 168.715 171.256 167.87 170.803 166.776C170.356 165.677 170.132 164.398 170.132 162.939ZM171.906 162.939C171.906 164.055 172.055 165.039 172.353 165.89C172.651 166.74 173.069 167.398 173.604 167.862C174.146 168.326 174.762 168.558 175.453 168.558C176.143 168.558 176.754 168.326 177.284 167.862C177.82 167.398 178.237 166.74 178.535 165.89C178.834 165.039 178.983 164.055 178.983 162.939C178.983 161.829 178.834 160.851 178.535 160.006C178.237 159.155 177.82 158.497 177.284 158.033C176.754 157.564 176.143 157.326 175.453 157.32C174.762 157.326 174.146 157.564 173.604 158.033C173.069 158.497 172.651 159.155 172.353 160.006C172.055 160.851 171.906 161.829 171.906 162.939ZM196.195 160.486C196.195 161.608 196.377 162.71 196.742 163.793C197.112 164.876 197.64 165.856 198.325 166.735C199.01 167.608 199.814 168.293 200.736 168.79L199.675 170.166C198.659 169.608 197.78 168.823 197.04 167.812C196.3 166.796 195.736 165.644 195.349 164.356C194.968 165.732 194.407 166.97 193.667 168.069C192.927 169.163 192.051 170.017 191.04 170.63L189.93 169.238C190.852 168.702 191.653 167.97 192.333 167.041C193.012 166.108 193.535 165.072 193.899 163.934C194.264 162.79 194.449 161.641 194.454 160.486V159.459H190.493V157.934H194.454V154.834H196.211V157.934H200.106V159.459H196.195V160.486ZM198.664 162.293H201.946V154.569H203.686V173.812H201.946V163.851H198.664V162.293ZM206.14 154.072H207.896V174.906H206.14V154.072ZM226.965 162.657H230.445V164.199H226.965V174.906H225.141V154.072H226.965V162.657ZM210.721 157.42H216.075V154.32H217.915V157.42H223.119V158.945H210.721V157.42ZM211.915 165.459C211.909 164.536 212.125 163.71 212.561 162.981C212.998 162.251 213.605 161.685 214.384 161.282C215.163 160.873 216.042 160.669 217.02 160.669C217.992 160.669 218.865 160.873 219.639 161.282C220.412 161.685 221.017 162.251 221.454 162.981C221.896 163.704 222.119 164.53 222.125 165.459C222.119 166.387 221.896 167.213 221.454 167.936C221.017 168.66 220.412 169.224 219.639 169.627C218.865 170.03 217.992 170.232 217.02 170.232C216.042 170.232 215.163 170.03 214.384 169.627C213.605 169.224 212.998 168.66 212.561 167.936C212.125 167.207 211.909 166.381 211.915 165.459ZM213.672 165.459C213.666 166.077 213.807 166.633 214.094 167.124C214.382 167.616 214.779 168 215.288 168.276C215.802 168.547 216.379 168.68 217.02 168.674C217.655 168.68 218.224 168.547 218.727 168.276C219.235 168 219.633 167.616 219.92 167.124C220.213 166.633 220.362 166.077 220.368 165.459C220.362 164.84 220.213 164.285 219.92 163.793C219.633 163.296 219.235 162.909 218.727 162.633C218.224 162.351 217.655 162.21 217.02 162.21C216.379 162.21 215.802 162.351 215.288 162.633C214.779 162.909 214.382 163.296 214.094 163.793C213.807 164.285 213.666 164.84 213.672 165.459ZM238.989 159.674C238.983 160.906 239.234 162.13 239.743 163.345C240.251 164.561 240.936 165.641 241.798 166.586C242.665 167.525 243.607 168.227 244.624 168.691L243.497 170.149C242.712 169.762 241.969 169.243 241.268 168.591C240.566 167.934 239.942 167.174 239.395 166.312C238.848 165.45 238.411 164.53 238.085 163.552C237.765 164.591 237.331 165.569 236.784 166.486C236.243 167.398 235.616 168.204 234.903 168.906C234.19 169.608 233.431 170.16 232.624 170.564L231.464 169.022C232.491 168.547 233.439 167.823 234.306 166.851C235.174 165.873 235.861 164.754 236.37 163.494C236.884 162.235 237.143 160.961 237.149 159.674V155.878H238.989V159.674ZM246.911 154.072H248.751V174.939H246.911V154.072ZM261.554 155.613C261.554 157.199 261.264 158.669 260.684 160.022H264.073V154.536H265.83V165.807H264.073V161.53H259.872C258.518 163.624 256.388 165.293 253.482 166.536L252.537 165.16C254.675 164.287 256.349 163.171 257.559 161.812C258.769 160.453 259.471 158.895 259.664 157.138H253.416V155.613H261.554ZM253.565 173.464C254.416 173.16 255.162 172.727 255.803 172.163C256.449 171.599 256.946 170.975 257.294 170.29C257.648 169.599 257.825 168.917 257.825 168.243V166.834H259.582V168.243C259.576 168.878 259.684 169.506 259.905 170.124C260.126 170.738 260.457 171.312 260.899 171.848C261.347 172.378 261.891 172.829 262.532 173.199C263.173 172.801 263.72 172.318 264.173 171.749C264.626 171.18 264.968 170.591 265.2 169.983C265.438 169.37 265.559 168.79 265.565 168.243V166.834H267.355V168.243C267.349 168.967 267.515 169.674 267.852 170.365C268.195 171.055 268.687 171.674 269.327 172.221C269.974 172.762 270.731 173.177 271.598 173.464L270.687 174.84C269.67 174.475 268.797 173.948 268.068 173.257C267.344 172.566 266.797 171.768 266.427 170.862C266.084 171.768 265.59 172.586 264.943 173.315C264.297 174.05 263.51 174.613 262.582 175.006C261.604 174.624 260.786 174.077 260.128 173.365C259.477 172.652 258.99 171.831 258.67 170.903C258.289 171.776 257.739 172.558 257.021 173.249C256.308 173.939 255.466 174.47 254.493 174.84L253.565 173.464ZM268.267 154.088H270.007V166.138H268.267V154.088ZM277.307 169.006H287.716V166.569H289.572V174.624H275.484V166.569H277.307V169.006ZM273.064 163.569H292.059V165.11H273.064V163.569ZM274.141 160.635C275.401 160.459 276.605 160.113 277.755 159.599C278.904 159.08 279.835 158.445 280.547 157.693C281.26 156.936 281.617 156.133 281.617 155.282V154.304H283.506V155.282C283.506 156.105 283.865 156.898 284.583 157.66C285.307 158.423 286.244 159.069 287.393 159.599C288.542 160.13 289.733 160.475 290.965 160.635L290.285 162.094C289.197 161.934 288.144 161.649 287.128 161.24C286.111 160.826 285.202 160.312 284.401 159.699C283.605 159.08 282.995 158.395 282.57 157.644C282.139 158.406 281.523 159.094 280.722 159.707C279.92 160.32 279.012 160.831 277.995 161.24C276.978 161.649 275.926 161.934 274.838 162.094L274.141 160.635ZM287.716 173.133V170.464H277.307V173.133H287.716ZM310.978 174.906H309.154V154.072H310.978V174.906ZM295.165 156.127H296.972V167.928C298.668 167.923 300.334 167.845 301.969 167.696C303.61 167.541 305.265 167.287 306.933 166.934L307.182 168.508C305.403 168.873 303.674 169.135 301.994 169.296C300.32 169.456 298.607 169.536 296.856 169.536H295.165V156.127ZM331.04 162.674H334.206V164.215H331.04V174.906H329.2V154.072H331.04V162.674ZM314.466 169.138C315.974 167.602 317.095 165.892 317.83 164.008C318.571 162.124 318.999 160.083 319.115 157.884H315.129V156.343H320.863C320.852 159.061 320.474 161.58 319.728 163.901C318.988 166.215 317.731 168.309 315.957 170.182L314.466 169.138ZM320.449 170.547C321.963 168.84 323.051 166.917 323.714 164.779C324.383 162.641 324.767 160.343 324.866 157.884H321.526V156.343H326.598C326.593 158.227 326.463 160.03 326.209 161.754C325.96 163.478 325.493 165.191 324.808 166.892C324.129 168.588 323.178 170.149 321.957 171.575L320.449 170.547ZM338.606 168.11C338.617 167.099 338.722 166.282 338.92 165.657C339.125 165.028 339.407 164.525 339.766 164.149C340.125 163.768 340.606 163.392 341.208 163.022C341.733 162.702 342.15 162.304 342.459 161.829C342.774 161.354 342.932 160.807 342.932 160.188C342.932 159.663 342.807 159.204 342.559 158.812C342.315 158.414 341.981 158.108 341.556 157.892C341.13 157.677 340.661 157.569 340.147 157.569C339.677 157.569 339.235 157.666 338.821 157.859C338.412 158.052 338.072 158.354 337.802 158.762C337.531 159.166 337.373 159.674 337.329 160.287H335.191C335.23 159.365 335.47 158.566 335.912 157.892C336.36 157.213 336.951 156.693 337.686 156.334C338.426 155.975 339.246 155.796 340.147 155.796C341.108 155.796 341.954 155.989 342.683 156.376C343.418 156.757 343.984 157.287 344.382 157.967C344.785 158.646 344.987 159.414 344.987 160.271C344.987 161.166 344.788 161.942 344.39 162.599C343.992 163.257 343.418 163.818 342.666 164.282C342.164 164.591 341.769 164.909 341.481 165.235C341.199 165.561 340.992 165.95 340.86 166.403C340.727 166.856 340.655 167.425 340.644 168.11V168.21H338.606V168.11ZM338.191 171.624C338.186 171.354 338.249 171.102 338.382 170.87C338.52 170.638 338.705 170.456 338.937 170.323C339.175 170.185 339.429 170.116 339.699 170.116C339.97 170.116 340.222 170.185 340.454 170.323C340.686 170.456 340.868 170.638 341.001 170.87C341.139 171.102 341.208 171.354 341.208 171.624C341.208 171.895 341.139 172.146 341.001 172.378C340.868 172.61 340.686 172.796 340.454 172.934C340.222 173.066 339.97 173.133 339.699 173.133C339.429 173.133 339.175 173.066 338.937 172.934C338.705 172.796 338.52 172.61 338.382 172.378C338.249 172.146 338.186 171.895 338.191 171.624Z" fill="#111827"/>
<mask id="path-11-inside-2_241_1740" fill="white">
<path d="M25 244H425V360H25V244Z"/>
</mask>
<path d="M425 359H25V361H425V359Z" fill="#D1D5DB" mask="url(#path-11-inside-2_241_1740)"/>
<path d="M38.2818 260.492H25.5635V259.464H31.2762V256.47H27.0663V249.365H28.2928V251.873H35.5083V249.365H36.7238V256.47H32.4917V259.464H38.2818V260.492ZM35.5083 255.464V252.878H28.2928V255.464H35.5083ZM51.248 262.271H50.0546V255.077H48.0436V261.541H46.8834V248.691H48.0436V254.039H50.0546V248.381H51.248V262.271ZM40.0878 250.072H41.3143V257.575C42.0657 257.571 42.8134 257.536 43.5574 257.47C44.3014 257.403 45.0712 257.291 45.8668 257.133L46.0104 258.215C45.097 258.381 44.2333 258.499 43.4193 258.569C42.609 258.635 41.7895 258.669 40.9607 258.669H40.0878V250.072ZM64.4463 253.586H54.9435V248.89H56.159V252.591H64.4463V253.586ZM53.1977 255.475H65.9159V256.47H53.1977V255.475ZM54.8551 257.884H56.0706V260.912H64.5347V261.928H54.8551V257.884ZM82.1133 250.149C82.1133 250.643 82.1059 251.076 82.0912 251.448C82.0801 251.82 82.047 252.243 81.9917 252.718C81.9401 253.193 81.8554 253.7 81.7376 254.238H83.7818V255.254H71.0635V254.238H80.5055C80.6271 253.696 80.7155 253.188 80.7707 252.713C80.8297 252.238 80.8646 251.816 80.8757 251.448C80.8904 251.079 80.8978 250.646 80.8978 250.149V250.138H72.6768V249.122H82.1133V250.149ZM72.6326 257.166H82.1685V262.083H72.6326V257.166ZM80.953 261.077V258.138H73.837V261.077H80.953ZM88.2176 249.254C88.8217 249.254 89.365 249.394 89.8475 249.674C90.3337 249.95 90.713 250.339 90.9856 250.84C91.2618 251.337 91.3999 251.902 91.3999 252.536C91.3999 253.169 91.2618 253.733 90.9856 254.227C90.713 254.72 90.3355 255.103 89.853 255.376C89.3705 255.648 88.8254 255.785 88.2176 255.785C87.6025 255.785 87.0537 255.648 86.5712 255.376C86.0887 255.103 85.713 254.72 85.4441 254.227C85.1753 253.733 85.0427 253.169 85.0464 252.536C85.0427 251.899 85.1753 251.331 85.4441 250.834C85.7167 250.337 86.0942 249.95 86.5767 249.674C87.0592 249.394 87.6062 249.254 88.2176 249.254ZM86.1513 252.536C86.1476 252.956 86.2342 253.335 86.411 253.674C86.5915 254.013 86.8383 254.278 87.1513 254.47C87.4681 254.657 87.8235 254.75 88.2176 254.746C88.6081 254.75 88.9598 254.657 89.2729 254.47C89.586 254.278 89.8309 254.015 90.0077 253.68C90.1882 253.341 90.2802 252.959 90.2839 252.536C90.2802 252.112 90.1882 251.731 90.0077 251.392C89.8309 251.053 89.586 250.79 89.2729 250.602C88.9598 250.411 88.6081 250.315 88.2176 250.315C87.8235 250.315 87.4681 250.411 87.1513 250.602C86.8383 250.79 86.5915 251.053 86.411 251.392C86.2342 251.731 86.1476 252.112 86.1513 252.536ZM87.3226 257.431H96.6817V262.271H95.4773V258.425H87.3226V257.431ZM92.516 248.657H93.6762V251.972H95.5215V248.392H96.6817V256.657H95.5215V252.978H93.6762V256.558H92.516V248.657Z" fill="#9CA3AF"/>
<path d="M349.693 262H348.102V250.924H348.028L344.932 252.975V251.384L348.102 249.271H349.693V262ZM357.25 262.174C356.314 262.174 355.512 261.919 354.845 261.41C354.182 260.896 353.674 260.15 353.322 259.172C352.974 258.194 352.8 257.015 352.8 255.635C352.8 254.268 352.976 253.095 353.328 252.117C353.681 251.135 354.19 250.387 354.857 249.874C355.524 249.356 356.322 249.097 357.25 249.097C358.178 249.097 358.976 249.356 359.643 249.874C360.31 250.387 360.82 251.135 361.172 252.117C361.524 253.095 361.701 254.268 361.701 255.635C361.701 257.015 361.524 258.194 361.172 259.172C360.824 260.15 360.317 260.896 359.649 261.41C358.987 261.919 358.187 262.174 357.25 262.174ZM354.341 255.635C354.341 256.725 354.455 257.655 354.683 258.426C354.911 259.193 355.243 259.775 355.678 260.173C356.113 260.57 356.637 260.769 357.25 260.769C357.864 260.769 358.388 260.57 358.823 260.173C359.258 259.775 359.589 259.193 359.817 258.426C360.045 257.655 360.159 256.725 360.159 255.635C360.159 254.546 360.043 253.615 359.811 252.845C359.583 252.07 359.252 251.481 358.817 251.079C358.382 250.677 357.859 250.477 357.25 250.477C356.641 250.477 356.119 250.677 355.684 251.079C355.249 251.481 354.915 252.07 354.683 252.845C354.455 253.615 354.341 254.546 354.341 255.635ZM367.973 262.174C367.037 262.174 366.235 261.919 365.568 261.41C364.905 260.896 364.397 260.15 364.045 259.172C363.697 258.194 363.523 257.015 363.523 255.635C363.523 254.268 363.699 253.095 364.051 252.117C364.403 251.135 364.913 250.387 365.58 249.874C366.247 249.356 367.045 249.097 367.973 249.097C368.901 249.097 369.699 249.356 370.366 249.874C371.033 250.387 371.543 251.135 371.895 252.117C372.247 253.095 372.423 254.268 372.423 255.635C372.423 257.015 372.247 258.194 371.895 259.172C371.547 260.15 371.039 260.896 370.372 261.41C369.709 261.919 368.909 262.174 367.973 262.174ZM365.064 255.635C365.064 256.725 365.178 257.655 365.406 258.426C365.634 259.193 365.965 259.775 366.4 260.173C366.836 260.57 367.36 260.769 367.973 260.769C368.586 260.769 369.11 260.57 369.545 260.173C369.981 259.775 370.312 259.193 370.54 258.426C370.768 257.655 370.882 256.725 370.882 255.635C370.882 254.546 370.766 253.615 370.534 252.845C370.306 252.07 369.974 251.481 369.539 251.079C369.104 250.677 368.582 250.477 367.973 250.477C367.364 250.477 366.842 250.677 366.407 251.079C365.972 251.481 365.638 252.07 365.406 252.845C365.178 253.615 365.064 254.546 365.064 255.635ZM374.738 265.593H373.433L374.403 260.807H376.093L374.738 265.593ZM382.457 262.174C381.521 262.174 380.719 261.919 380.052 261.41C379.389 260.896 378.881 260.15 378.529 259.172C378.181 258.194 378.007 257.015 378.007 255.635C378.007 254.268 378.183 253.095 378.535 252.117C378.888 251.135 379.397 250.387 380.064 249.874C380.732 249.356 381.529 249.097 382.457 249.097C383.386 249.097 384.183 249.356 384.85 249.874C385.517 250.387 386.027 251.135 386.379 252.117C386.732 253.095 386.908 254.268 386.908 255.635C386.908 257.015 386.732 258.194 386.379 259.172C386.031 260.15 385.524 260.896 384.857 261.41C384.194 261.919 383.394 262.174 382.457 262.174ZM379.549 255.635C379.549 256.725 379.662 257.655 379.89 258.426C380.118 259.193 380.45 259.775 380.885 260.173C381.32 260.57 381.844 260.769 382.457 260.769C383.071 260.769 383.595 260.57 384.03 260.173C384.465 259.775 384.796 259.193 385.024 258.426C385.252 257.655 385.366 256.725 385.366 255.635C385.366 254.546 385.25 253.615 385.018 252.845C384.79 252.07 384.459 251.481 384.024 251.079C383.589 250.677 383.066 250.477 382.457 250.477C381.848 250.477 381.326 250.677 380.891 251.079C380.456 251.481 380.122 252.07 379.89 252.845C379.662 253.615 379.549 254.546 379.549 255.635ZM393.18 262.174C392.244 262.174 391.442 261.919 390.775 261.41C390.112 260.896 389.604 260.15 389.252 259.172C388.904 258.194 388.73 257.015 388.73 255.635C388.73 254.268 388.906 253.095 389.258 252.117C389.61 251.135 390.12 250.387 390.787 249.874C391.454 249.356 392.252 249.097 393.18 249.097C394.108 249.097 394.906 249.356 395.573 249.874C396.24 250.387 396.75 251.135 397.102 252.117C397.454 253.095 397.63 254.268 397.63 255.635C397.63 257.015 397.454 258.194 397.102 259.172C396.754 260.15 396.246 260.896 395.579 261.41C394.916 261.919 394.116 262.174 393.18 262.174ZM390.271 255.635C390.271 256.725 390.385 257.655 390.613 258.426C390.841 259.193 391.172 259.775 391.607 260.173C392.043 260.57 392.567 260.769 393.18 260.769C393.793 260.769 394.317 260.57 394.753 260.173C395.188 259.775 395.519 259.193 395.747 258.426C395.975 257.655 396.089 256.725 396.089 255.635C396.089 254.546 395.973 253.615 395.741 252.845C395.513 252.07 395.181 251.481 394.746 251.079C394.311 250.677 393.789 250.477 393.18 250.477C392.571 250.477 392.049 250.677 391.614 251.079C391.179 251.481 390.845 252.07 390.613 252.845C390.385 253.615 390.271 254.546 390.271 255.635ZM403.903 262.174C402.966 262.174 402.164 261.919 401.497 261.41C400.834 260.896 400.327 260.15 399.974 259.172C399.626 258.194 399.452 257.015 399.452 255.635C399.452 254.268 399.628 253.095 399.981 252.117C400.333 251.135 400.843 250.387 401.51 249.874C402.177 249.356 402.974 249.097 403.903 249.097C404.831 249.097 405.628 249.356 406.296 249.874C406.963 250.387 407.472 251.135 407.825 252.117C408.177 253.095 408.353 254.268 408.353 255.635C408.353 257.015 408.177 258.194 407.825 259.172C407.477 260.15 406.969 260.896 406.302 261.41C405.639 261.919 404.839 262.174 403.903 262.174ZM400.994 255.635C400.994 256.725 401.108 257.655 401.336 258.426C401.564 259.193 401.895 259.775 402.33 260.173C402.765 260.57 403.289 260.769 403.903 260.769C404.516 260.769 405.04 260.57 405.475 260.173C405.91 259.775 406.242 259.193 406.47 258.426C406.698 257.655 406.811 256.725 406.811 255.635C406.811 254.546 406.695 253.615 406.463 252.845C406.236 252.07 405.904 251.481 405.469 251.079C405.034 250.677 404.512 250.477 403.903 250.477C403.294 250.477 402.771 250.677 402.336 251.079C401.901 251.481 401.568 252.07 401.336 252.845C401.108 253.615 400.994 254.546 400.994 255.635ZM422.78 259.688H421.388V258.059H418.168V257.052H421.388V247.816H422.78V259.688ZM409.815 255.051C411.878 255.043 413.72 255.012 415.34 254.958C416.964 254.9 418.512 254.778 419.983 254.591L420.082 255.598C418.786 255.805 417.352 255.956 415.781 256.052V259.141H414.402V256.12C413.337 256.162 412.123 256.182 410.759 256.182H410.001L409.815 255.051ZM411.07 251.173C411.07 250.634 411.232 250.16 411.555 249.749C411.878 249.335 412.334 249.016 412.922 248.792C413.511 248.564 414.186 248.45 414.949 248.45C415.703 248.45 416.372 248.564 416.956 248.792C417.54 249.016 417.994 249.335 418.317 249.749C418.645 250.16 418.81 250.634 418.815 251.173C418.81 251.72 418.645 252.198 418.317 252.608C417.994 253.015 417.54 253.329 416.956 253.553C416.376 253.773 415.707 253.883 414.949 253.883C414.182 253.883 413.504 253.773 412.916 253.553C412.332 253.334 411.878 253.019 411.555 252.608C411.232 252.198 411.07 251.72 411.07 251.173ZM412.065 258.519H413.444V261.938H423.165V263.081H412.065V258.519ZM412.388 251.173C412.384 251.508 412.487 251.802 412.699 252.055C412.914 252.308 413.216 252.505 413.606 252.646C413.995 252.782 414.443 252.851 414.949 252.851C415.437 252.851 415.875 252.782 416.26 252.646C416.645 252.505 416.946 252.308 417.161 252.055C417.381 251.802 417.493 251.508 417.497 251.173C417.493 250.841 417.381 250.549 417.161 250.296C416.946 250.039 416.645 249.84 416.26 249.7C415.875 249.559 415.437 249.49 414.949 249.494C414.443 249.49 413.995 249.559 413.606 249.7C413.216 249.84 412.914 250.039 412.699 250.296C412.487 250.549 412.384 250.841 412.388 251.173Z" fill="#111827"/>
<path d="M32.5359 281.674C32.5359 282.3 32.7772 282.899 33.2597 283.47C33.7459 284.041 34.3794 284.521 35.1602 284.912C35.9411 285.302 36.7532 285.556 37.5967 285.674L37.0994 286.68C36.3665 286.558 35.6575 286.346 34.9724 286.044C34.291 285.742 33.6814 285.366 33.1436 284.917C32.6059 284.464 32.1934 283.961 31.9061 283.409C31.6188 283.965 31.2063 284.47 30.6685 284.923C30.1344 285.372 29.5267 285.746 28.8453 286.044C28.1639 286.343 27.4567 286.554 26.7238 286.68L26.2155 285.674C27.0626 285.556 27.8748 285.304 28.6519 284.917C29.4291 284.53 30.0589 284.053 30.5414 283.486C31.0239 282.915 31.2652 282.311 31.2652 281.674V280.878H32.5359V281.674ZM25.5635 288.204H38.2265V289.232H32.4696V294.271H31.2652V289.232H25.5635V288.204ZM46.364 281.674C46.364 282.3 46.6053 282.899 47.0878 283.47C47.574 284.041 48.2075 284.521 48.9883 284.912C49.7692 285.302 50.5813 285.556 51.4248 285.674L50.9276 286.68C50.1946 286.558 49.4856 286.346 48.8005 286.044C48.1191 285.742 47.5095 285.366 46.9718 284.917C46.434 284.464 46.0215 283.961 45.7342 283.409C45.4469 283.965 45.0344 284.47 44.4966 284.923C43.9626 285.372 43.3548 285.746 42.6734 286.044C41.992 286.343 41.2848 286.554 40.5519 286.68L40.0436 285.674C40.8907 285.556 41.7029 285.304 42.4801 284.917C43.2572 284.53 43.8871 284.053 44.3696 283.486C44.8521 282.915 45.0933 282.311 45.0933 281.674V280.878H46.364V281.674ZM39.3917 288.204H52.0546V289.232H46.2977V294.271H45.0933V289.232H39.3917V288.204ZM65.938 292.547H53.2198V291.508H56.7999V288.878H54.8109V284.591H63.1203V282.425H54.7778V281.409H64.3358V285.608H56.0264V287.862H64.6562V288.878H62.4795V291.508H65.938V292.547ZM61.275 291.508V288.878H57.9933V291.508H61.275Z" fill="#9CA3AF"/>
<path d="M403.358 294.174C402.421 294.174 401.619 293.919 400.952 293.41C400.289 292.896 399.782 292.15 399.43 291.172C399.081 290.194 398.907 289.015 398.907 287.635C398.907 286.268 399.084 285.095 399.436 284.117C399.788 283.135 400.298 282.387 400.965 281.874C401.632 281.356 402.43 281.097 403.358 281.097C404.286 281.097 405.084 281.356 405.751 281.874C406.418 282.387 406.927 283.135 407.28 284.117C407.632 285.095 407.808 286.268 407.808 287.635C407.808 289.015 407.632 290.194 407.28 291.172C406.932 292.15 406.424 292.896 405.757 293.41C405.094 293.919 404.294 294.174 403.358 294.174ZM400.449 287.635C400.449 288.725 400.563 289.655 400.791 290.426C401.019 291.193 401.35 291.775 401.785 292.173C402.22 292.57 402.744 292.769 403.358 292.769C403.971 292.769 404.495 292.57 404.93 292.173C405.365 291.775 405.697 291.193 405.925 290.426C406.153 289.655 406.267 288.725 406.267 287.635C406.267 286.546 406.151 285.615 405.919 284.845C405.691 284.07 405.359 283.481 404.924 283.079C404.489 282.677 403.967 282.477 403.358 282.477C402.749 282.477 402.227 282.677 401.791 283.079C401.356 283.481 401.023 284.07 400.791 284.845C400.563 285.615 400.449 286.546 400.449 287.635ZM422.235 291.688H420.843V290.059H417.623V289.052H420.843V279.816H422.235V291.688ZM409.27 287.051C411.333 287.043 413.175 287.012 414.795 286.958C416.419 286.9 417.967 286.778 419.438 286.591L419.538 287.598C418.241 287.805 416.807 287.956 415.236 288.052V291.141H413.857V288.12C412.792 288.162 411.578 288.182 410.214 288.182H409.456L409.27 287.051ZM410.525 283.173C410.525 282.634 410.687 282.16 411.01 281.749C411.333 281.335 411.789 281.016 412.377 280.792C412.966 280.564 413.641 280.45 414.404 280.45C415.158 280.45 415.827 280.564 416.411 280.792C416.995 281.016 417.449 281.335 417.772 281.749C418.1 282.16 418.265 282.634 418.27 283.173C418.265 283.72 418.1 284.198 417.772 284.608C417.449 285.015 416.995 285.329 416.411 285.553C415.831 285.773 415.162 285.883 414.404 285.883C413.637 285.883 412.96 285.773 412.371 285.553C411.787 285.334 411.333 285.019 411.01 284.608C410.687 284.198 410.525 283.72 410.525 283.173ZM411.52 290.519H412.899V293.938H422.62V295.081H411.52V290.519ZM411.843 283.173C411.839 283.508 411.942 283.802 412.154 284.055C412.369 284.308 412.672 284.505 413.061 284.646C413.451 284.782 413.898 284.851 414.404 284.851C414.893 284.851 415.33 284.782 415.715 284.646C416.1 284.505 416.401 284.308 416.616 284.055C416.836 283.802 416.948 283.508 416.952 283.173C416.948 282.841 416.836 282.549 416.616 282.296C416.401 282.039 416.1 281.84 415.715 281.7C415.33 281.559 414.893 281.49 414.404 281.494C413.898 281.49 413.451 281.559 413.061 281.7C412.672 281.84 412.369 282.039 412.154 282.296C411.942 282.549 411.839 282.841 411.843 283.173Z" fill="#111827"/>
<path d="M37.0331 319.829H35.8066V312.381H37.0331V319.829ZM25.884 316.249C25.884 315.626 26.0405 315.072 26.3536 314.586C26.6667 314.099 27.0994 313.722 27.6519 313.453C28.2081 313.184 28.8343 313.052 29.5304 313.055C30.2265 313.052 30.8508 313.184 31.4033 313.453C31.9558 313.722 32.3867 314.099 32.6961 314.586C33.0092 315.072 33.1657 315.626 33.1657 316.249C33.1657 316.871 33.0092 317.424 32.6961 317.906C32.3867 318.389 31.9558 318.764 31.4033 319.033C30.8508 319.302 30.2265 319.435 29.5304 319.431C28.8343 319.435 28.2081 319.302 27.6519 319.033C27.0994 318.764 26.6667 318.389 26.3536 317.906C26.0405 317.42 25.884 316.867 25.884 316.249ZM27.0884 316.249C27.0847 316.665 27.186 317.039 27.3923 317.37C27.6022 317.698 27.8932 317.954 28.2652 318.138C28.6372 318.322 29.0589 318.414 29.5304 318.414C29.9982 318.414 30.4162 318.322 30.7845 318.138C31.1565 317.954 31.4475 317.698 31.6575 317.37C31.8674 317.039 31.9724 316.665 31.9724 316.249C31.9724 315.832 31.8674 315.46 31.6575 315.133C31.4475 314.801 31.1565 314.545 30.7845 314.365C30.4162 314.18 29.9982 314.09 29.5304 314.094C29.0589 314.09 28.6372 314.18 28.2652 314.365C27.8932 314.545 27.6022 314.801 27.3923 315.133C27.186 315.46 27.0847 315.832 27.0884 316.249ZM28.0387 320.536H29.2431V322.227H35.8177V320.536H37.0331V326.083H28.0387V320.536ZM35.8177 325.077V323.21H29.2431V325.077H35.8177ZM50.4414 314.149C50.4414 314.643 50.434 315.076 50.4193 315.448C50.4082 315.82 50.3751 316.243 50.3198 316.718C50.2683 317.193 50.1836 317.7 50.0657 318.238H52.1099V319.254H39.3917V318.238H48.8337C48.9552 317.696 49.0436 317.188 49.0988 316.713C49.1578 316.238 49.1928 315.816 49.2038 315.448C49.2185 315.079 49.2259 314.646 49.2259 314.149V314.138H41.0049V313.122H50.4414V314.149ZM40.9607 321.166H50.4966V326.083H40.9607V321.166ZM49.2812 325.077V322.138H42.1651V325.077H49.2812ZM65.1093 326.271H63.938V312.381H65.1093V326.271ZM53.2087 322.381C54.6857 321.505 55.8183 320.457 56.6065 319.238C57.3984 318.015 57.857 316.661 57.9822 315.177H53.8275V314.149H59.1977C59.1977 314.875 59.1351 315.575 59.0098 316.249H61.1203V312.757H62.3027V325.564H61.1203V320.746H58.5458V319.729H61.1203V317.265H58.7723C58.4224 318.481 57.8496 319.595 57.054 320.608C56.2621 321.617 55.2272 322.503 53.9491 323.265L53.2087 322.381ZM71.9208 314.867C71.9172 315.449 72.0608 316.006 72.3518 316.536C72.6464 317.063 73.0553 317.525 73.5783 317.923C74.105 318.317 74.7054 318.617 75.3794 318.823L74.7938 319.796C73.9871 319.541 73.28 319.157 72.6722 318.641C72.0682 318.125 71.6151 317.519 71.3131 316.823C71.0074 317.575 70.5433 318.228 69.9208 318.785C69.3021 319.337 68.5765 319.751 67.744 320.028L67.1142 319.055C67.8103 318.838 68.4273 318.521 68.965 318.105C69.5028 317.689 69.9227 317.203 70.2247 316.646C70.5267 316.087 70.6796 315.494 70.6833 314.867V314.702H67.5341V313.674H75.0479V314.702H71.9208V314.867ZM66.8711 322.326C68.5028 322.326 69.7772 322.313 70.6943 322.287V319.453H71.9208V322.243C73.3941 322.173 74.6428 322.064 75.6667 321.917L75.7551 322.823C74.8343 322.985 73.8711 323.105 72.8656 323.182C71.8601 323.26 70.9245 323.308 70.059 323.326C69.1971 323.344 68.1971 323.354 67.059 323.354L66.8711 322.326ZM76.5617 312.381H77.7772V318.149H80.0424V319.199H77.7772V326.271H76.5617V312.381Z" fill="#9CA3AF"/>
<path d="M223.66 315.421H227.141V312.985H228.434V320.17H222.355V312.985H223.66V315.421ZM227.141 319.051V316.528H223.66V319.051H227.141ZM224.493 324.583C224.489 323.99 224.696 323.483 225.115 323.06C225.537 322.637 226.142 322.316 226.93 322.097C227.721 321.873 228.657 321.761 229.739 321.761C230.812 321.761 231.742 321.873 232.53 322.097C233.321 322.316 233.928 322.64 234.351 323.066C234.773 323.489 234.985 323.994 234.985 324.583C234.985 325.167 234.773 325.671 234.351 326.093C233.928 326.516 233.321 326.837 232.53 327.057C231.742 327.28 230.812 327.392 229.739 327.392C228.657 327.392 227.721 327.28 226.93 327.057C226.142 326.837 225.537 326.516 225.115 326.093C224.696 325.675 224.489 325.171 224.493 324.583ZM225.86 324.583C225.856 324.939 226.01 325.246 226.32 325.503C226.635 325.76 227.085 325.956 227.669 326.093C228.253 326.23 228.943 326.298 229.739 326.298C230.526 326.298 231.21 326.23 231.79 326.093C232.374 325.956 232.824 325.76 233.139 325.503C233.454 325.246 233.613 324.939 233.617 324.583C233.613 324.222 233.454 323.912 233.139 323.651C232.824 323.39 232.374 323.191 231.79 323.054C231.21 322.913 230.526 322.843 229.739 322.843C228.943 322.843 228.253 322.913 227.669 323.054C227.085 323.191 226.635 323.39 226.32 323.651C226.01 323.912 225.856 324.222 225.86 324.583ZM230.211 312.115H231.504V315.981H233.593V311.816H234.898V321.388H233.593V317.124H231.504V320.916H230.211V312.115ZM245.507 312.885C245.499 314.916 244.892 316.64 243.686 318.057C242.48 319.474 240.642 320.547 238.173 321.276L237.651 320.145C240.224 319.412 242.024 318.291 243.052 316.782L237.762 317.186L237.526 316.043L243.605 315.769C243.829 315.222 243.97 314.634 244.028 314.004H238.309V312.885H245.507ZM239.615 324.409C239.615 323.783 239.826 323.247 240.249 322.799C240.675 322.352 241.287 322.012 242.082 321.78C242.878 321.544 243.82 321.425 244.91 321.425C245.983 321.425 246.916 321.544 247.707 321.78C248.499 322.016 249.106 322.358 249.528 322.805C249.955 323.253 250.169 323.787 250.169 324.409C250.169 325.035 249.955 325.571 249.528 326.019C249.106 326.466 248.499 326.806 247.707 327.038C246.92 327.274 245.988 327.392 244.91 327.392C243.816 327.392 242.872 327.274 242.076 327.038C241.285 326.806 240.675 326.466 240.249 326.019C239.826 325.571 239.615 325.035 239.615 324.409ZM240.994 324.409C240.994 324.794 241.152 325.13 241.467 325.416C241.782 325.702 242.233 325.919 242.822 326.068C243.41 326.222 244.106 326.298 244.91 326.298C245.702 326.298 246.39 326.222 246.974 326.068C247.558 325.915 248.008 325.698 248.323 325.416C248.642 325.13 248.801 324.794 248.801 324.409C248.801 324.023 248.642 323.69 248.323 323.408C248.008 323.122 247.558 322.903 246.974 322.749C246.39 322.596 245.702 322.519 244.91 322.519C244.106 322.519 243.41 322.596 242.822 322.749C242.233 322.898 241.782 323.116 241.467 323.402C241.152 323.688 240.994 324.023 240.994 324.409ZM248.714 311.816H250.094V321.214H248.714V311.816ZM266.993 321.164H252.747V320.046H266.993V321.164ZM254.326 315.446C254.326 314.804 254.55 314.249 254.997 313.78C255.449 313.312 256.091 312.956 256.924 312.711C257.757 312.467 258.735 312.347 259.858 312.351C260.977 312.347 261.95 312.467 262.779 312.711C263.612 312.956 264.252 313.312 264.7 313.78C265.151 314.249 265.377 314.804 265.377 315.446C265.377 316.088 265.151 316.646 264.7 317.118C264.252 317.586 263.612 317.945 262.779 318.193C261.95 318.442 260.977 318.566 259.858 318.566C258.735 318.566 257.757 318.442 256.924 318.193C256.091 317.945 255.449 317.586 254.997 317.118C254.55 316.646 254.326 316.088 254.326 315.446ZM254.587 322.544H255.979V325.938H265.402V327.081H254.587V322.544ZM255.756 315.446C255.751 315.856 255.915 316.211 256.247 316.509C256.582 316.807 257.059 317.037 257.676 317.199C258.298 317.356 259.025 317.435 259.858 317.435C260.691 317.435 261.416 317.356 262.033 317.199C262.655 317.037 263.133 316.807 263.469 316.509C263.805 316.211 263.972 315.856 263.972 315.446C263.972 315.044 263.805 314.694 263.469 314.396C263.133 314.097 262.655 313.869 262.033 313.712C261.416 313.55 260.691 313.47 259.858 313.47C259.025 313.47 258.298 313.55 257.676 313.712C257.059 313.869 256.582 314.097 256.247 314.396C255.915 314.694 255.751 315.044 255.756 315.446ZM281.568 321.699H280.262V317.211H278.162V321.14H276.869V312.115H278.162V316.068H280.262V311.804H281.568V321.699ZM268.217 313.681H271.561V311.916H272.928V313.681H276.235V314.787H268.217V313.681ZM268.901 318.293C268.896 317.758 269.035 317.29 269.317 316.888C269.599 316.482 269.992 316.169 270.498 315.95C271.003 315.73 271.582 315.62 272.232 315.62C272.891 315.62 273.473 315.73 273.979 315.95C274.488 316.169 274.884 316.482 275.166 316.888C275.452 317.29 275.597 317.758 275.601 318.293C275.597 318.823 275.452 319.289 275.166 319.691C274.884 320.093 274.488 320.404 273.979 320.624C273.473 320.843 272.891 320.953 272.232 320.953C271.582 320.953 271.003 320.843 270.498 320.624C269.992 320.404 269.599 320.093 269.317 319.691C269.035 319.289 268.896 318.823 268.901 318.293ZM270.131 318.293C270.131 318.612 270.218 318.896 270.392 319.144C270.57 319.389 270.819 319.579 271.138 319.716C271.457 319.853 271.822 319.921 272.232 319.921C272.646 319.921 273.013 319.853 273.332 319.716C273.651 319.579 273.9 319.389 274.078 319.144C274.256 318.896 274.345 318.612 274.345 318.293C274.345 317.97 274.256 317.684 274.078 317.435C273.9 317.186 273.651 316.994 273.332 316.857C273.013 316.72 272.646 316.652 272.232 316.652C271.822 316.652 271.457 316.72 271.138 316.857C270.819 316.994 270.57 317.186 270.392 317.435C270.218 317.684 270.131 317.97 270.131 318.293ZM271.163 324.695C271.159 324.115 271.364 323.622 271.778 323.215C272.197 322.805 272.798 322.494 273.581 322.283C274.368 322.068 275.311 321.96 276.409 321.96C277.503 321.96 278.441 322.068 279.224 322.283C280.012 322.494 280.613 322.805 281.027 323.215C281.445 323.622 281.655 324.115 281.655 324.695C281.655 325.262 281.445 325.747 281.027 326.149C280.613 326.555 280.012 326.864 279.224 327.075C278.437 327.287 277.499 327.392 276.409 327.392C275.315 327.392 274.374 327.287 273.587 327.075C272.8 326.864 272.197 326.555 271.778 326.149C271.364 325.747 271.159 325.262 271.163 324.695ZM272.53 324.695C272.526 325.03 272.678 325.32 272.984 325.565C273.295 325.809 273.74 325.996 274.32 326.124C274.905 326.253 275.601 326.315 276.409 326.311C277.213 326.315 277.905 326.253 278.485 326.124C279.065 325.996 279.508 325.811 279.815 325.571C280.126 325.327 280.283 325.035 280.287 324.695C280.283 324.343 280.126 324.042 279.815 323.794C279.508 323.545 279.065 323.356 278.485 323.228C277.905 323.099 277.213 323.037 276.409 323.041C275.597 323.037 274.899 323.099 274.314 323.228C273.734 323.356 273.291 323.545 272.984 323.794C272.678 324.042 272.526 324.343 272.53 324.695ZM288.627 322.097L294.357 313.271H296.297V322.01H298.087V323.402H296.297V326H294.792V323.402H288.627V322.097ZM294.792 322.01V315.272H294.643L290.33 321.91V322.01H294.792ZM304.322 326.174C303.564 326.174 302.876 326.029 302.258 325.739C301.641 325.449 301.148 325.049 300.779 324.539C300.414 324.026 300.216 323.448 300.182 322.805H301.724C301.761 323.178 301.898 323.516 302.134 323.818C302.374 324.117 302.685 324.353 303.066 324.527C303.452 324.697 303.87 324.782 304.322 324.782C304.865 324.782 305.352 324.66 305.783 324.415C306.218 324.171 306.557 323.835 306.802 323.408C307.046 322.981 307.169 322.503 307.169 321.972C307.169 321.43 307.04 320.941 306.783 320.506C306.53 320.066 306.178 319.722 305.727 319.474C305.279 319.221 304.774 319.093 304.21 319.088C303.075 319.076 302.283 319.457 301.836 320.232H300.307L301.202 313.271H308.101V314.675H302.519L302.047 318.405H302.184C302.47 318.181 302.816 318.003 303.222 317.87C303.632 317.738 304.057 317.671 304.496 317.671C305.296 317.671 306.015 317.856 306.653 318.224C307.295 318.589 307.798 319.097 308.163 319.747C308.528 320.394 308.71 321.123 308.71 321.935C308.71 322.743 308.521 323.47 308.144 324.117C307.767 324.759 307.245 325.262 306.578 325.627C305.911 325.992 305.159 326.174 304.322 326.174ZM315.385 326.174C314.565 326.174 313.802 325.99 313.098 325.621C312.398 325.248 311.822 324.612 311.37 323.713C310.923 322.809 310.699 321.612 310.699 320.12C310.699 318.637 310.894 317.369 311.283 316.316C311.673 315.264 312.23 314.464 312.955 313.917C313.68 313.37 314.54 313.097 315.534 313.097C316.268 313.097 316.927 313.24 317.511 313.526C318.099 313.807 318.578 314.203 318.947 314.713C319.316 315.218 319.554 315.802 319.662 316.465H318.095C317.946 315.877 317.652 315.403 317.213 315.042C316.773 314.682 316.214 314.501 315.534 314.501C314.842 314.501 314.246 314.694 313.744 315.079C313.243 315.461 312.858 316.016 312.588 316.745C312.323 317.474 312.191 318.347 312.191 319.362H312.352C312.721 318.823 313.187 318.407 313.751 318.113C314.318 317.818 314.942 317.671 315.621 317.671C316.371 317.671 317.063 317.854 317.697 318.218C318.331 318.579 318.835 319.08 319.208 319.722C319.585 320.365 319.773 321.086 319.773 321.885C319.773 322.681 319.591 323.406 319.226 324.061C318.862 324.711 318.346 325.227 317.679 325.608C317.016 325.985 316.251 326.174 315.385 326.174ZM312.414 321.923C312.414 322.42 312.541 322.888 312.793 323.327C313.046 323.767 313.394 324.119 313.838 324.384C314.285 324.649 314.784 324.782 315.336 324.782C315.874 324.782 316.365 324.653 316.809 324.396C317.252 324.14 317.6 323.791 317.853 323.352C318.11 322.909 318.24 322.424 318.244 321.898C318.24 321.384 318.114 320.912 317.865 320.481C317.621 320.046 317.281 319.702 316.846 319.449C316.411 319.192 315.924 319.064 315.385 319.064C314.842 319.064 314.343 319.196 313.887 319.461C313.436 319.727 313.077 320.079 312.812 320.518C312.551 320.957 312.418 321.425 312.414 321.923ZM328.19 314.775V314.675H321.464V313.271H329.83V314.75L324.013 326H322.347L328.19 314.775ZM335.899 326.174C335.016 326.174 334.231 326.023 333.543 325.72C332.855 325.418 332.321 324.997 331.939 324.459C331.558 323.916 331.37 323.302 331.374 322.619C331.37 322.084 331.481 321.585 331.709 321.121C331.937 320.653 332.248 320.267 332.642 319.965C333.039 319.658 333.479 319.465 333.959 319.387V319.325C333.545 319.225 333.178 319.039 332.859 318.765C332.54 318.492 332.294 318.156 332.12 317.758C331.946 317.36 331.859 316.934 331.859 316.478C331.859 315.836 332.033 315.258 332.381 314.744C332.729 314.23 333.209 313.828 333.823 313.538C334.44 313.244 335.132 313.097 335.899 313.097C336.661 313.097 337.347 313.244 337.956 313.538C338.569 313.828 339.05 314.23 339.398 314.744C339.746 315.258 339.922 315.836 339.926 316.478C339.922 316.934 339.831 317.36 339.653 317.758C339.479 318.156 339.232 318.492 338.913 318.765C338.598 319.039 338.236 319.225 337.825 319.325V319.387C338.302 319.465 338.737 319.658 339.131 319.965C339.528 320.267 339.841 320.653 340.069 321.121C340.301 321.585 340.419 322.084 340.423 322.619C340.419 323.302 340.225 323.916 339.839 324.459C339.454 324.997 338.917 325.418 338.229 325.72C337.546 326.023 336.769 326.174 335.899 326.174ZM332.952 322.532C332.944 322.979 333.058 323.373 333.294 323.713C333.53 324.048 333.872 324.311 334.32 324.502C334.767 324.689 335.294 324.782 335.899 324.782C336.495 324.782 337.015 324.689 337.459 324.502C337.902 324.311 338.244 324.048 338.484 323.713C338.725 323.373 338.845 322.979 338.845 322.532C338.845 322.068 338.716 321.651 338.459 321.282C338.207 320.914 337.856 320.624 337.409 320.412C336.961 320.201 336.458 320.095 335.899 320.095C335.335 320.095 334.827 320.201 334.376 320.412C333.924 320.624 333.572 320.916 333.319 321.289C333.066 321.657 332.944 322.072 332.952 322.532ZM333.4 316.59C333.4 317.017 333.506 317.394 333.717 317.721C333.928 318.048 334.222 318.303 334.6 318.485C334.981 318.664 335.414 318.753 335.899 318.753C336.375 318.753 336.802 318.664 337.179 318.485C337.556 318.303 337.85 318.048 338.062 317.721C338.277 317.39 338.385 317.012 338.385 316.59C338.385 316.171 338.279 315.802 338.068 315.483C337.861 315.16 337.568 314.91 337.191 314.731C336.818 314.553 336.388 314.464 335.899 314.464C335.401 314.464 334.962 314.553 334.581 314.731C334.204 314.91 333.912 315.16 333.705 315.483C333.501 315.802 333.4 316.171 333.4 316.59ZM346.74 313.097C347.556 313.097 348.315 313.283 349.015 313.656C349.715 314.029 350.289 314.665 350.737 315.564C351.188 316.459 351.414 317.646 351.414 319.126C351.414 320.617 351.219 321.892 350.83 322.948C350.44 324.001 349.883 324.802 349.158 325.354C348.433 325.901 347.573 326.174 346.578 326.174C345.845 326.174 345.184 326.033 344.596 325.751C344.007 325.47 343.527 325.074 343.154 324.564C342.785 324.05 342.547 323.456 342.439 322.78H344.005C344.154 323.381 344.449 323.864 344.888 324.229C345.331 324.589 345.895 324.769 346.578 324.769C347.266 324.769 347.861 324.577 348.362 324.191C348.868 323.806 349.255 323.249 349.525 322.519C349.794 321.786 349.931 320.907 349.935 319.884H349.761C349.392 320.419 348.924 320.835 348.356 321.133C347.793 321.427 347.175 321.575 346.504 321.575C345.75 321.575 345.054 321.394 344.415 321.034C343.781 320.669 343.276 320.166 342.899 319.523C342.526 318.881 342.339 318.16 342.339 317.36C342.339 316.577 342.52 315.86 342.88 315.21C343.245 314.559 343.761 314.046 344.428 313.669C345.099 313.287 345.87 313.097 346.74 313.097ZM343.881 317.348C343.881 317.87 344.003 318.349 344.248 318.784C344.496 319.215 344.838 319.557 345.273 319.809C345.708 320.058 346.197 320.182 346.74 320.182C347.279 320.182 347.772 320.05 348.219 319.785C348.671 319.515 349.027 319.161 349.288 318.722C349.554 318.282 349.686 317.816 349.686 317.323C349.686 316.834 349.56 316.372 349.307 315.937C349.054 315.502 348.706 315.152 348.263 314.887C347.824 314.622 347.333 314.489 346.79 314.489C346.247 314.489 345.752 314.617 345.304 314.874C344.861 315.131 344.511 315.479 344.254 315.919C344.001 316.354 343.877 316.83 343.881 317.348ZM357.754 326.174C356.818 326.174 356.016 325.919 355.349 325.41C354.686 324.896 354.178 324.15 353.826 323.172C353.478 322.194 353.304 321.015 353.304 319.635C353.304 318.268 353.48 317.095 353.832 316.117C354.184 315.135 354.694 314.387 355.361 313.874C356.028 313.356 356.826 313.097 357.754 313.097C358.682 313.097 359.48 313.356 360.147 313.874C360.814 314.387 361.324 315.135 361.676 316.117C362.028 317.095 362.204 318.268 362.204 319.635C362.204 321.015 362.028 322.194 361.676 323.172C361.328 324.15 360.821 324.896 360.153 325.41C359.49 325.919 358.691 326.174 357.754 326.174ZM354.845 319.635C354.845 320.725 354.959 321.655 355.187 322.426C355.415 323.193 355.747 323.775 356.182 324.173C356.617 324.57 357.141 324.769 357.754 324.769C358.367 324.769 358.892 324.57 359.327 324.173C359.762 323.775 360.093 323.193 360.321 322.426C360.549 321.655 360.663 320.725 360.663 319.635C360.663 318.546 360.547 317.615 360.315 316.845C360.087 316.07 359.756 315.481 359.321 315.079C358.885 314.677 358.363 314.477 357.754 314.477C357.145 314.477 356.623 314.677 356.188 315.079C355.753 315.481 355.419 316.07 355.187 316.845C354.959 317.615 354.845 318.546 354.845 319.635ZM368.813 326H367.221V314.924H367.147L364.051 316.975V315.384L367.221 313.271H368.813V326ZM372.193 324.844L376.531 320.269C377.103 319.66 377.538 319.171 377.836 318.802C378.139 318.43 378.369 318.071 378.526 317.727C378.684 317.379 378.764 317.017 378.769 316.64C378.764 316.209 378.651 315.829 378.427 315.502C378.207 315.175 377.905 314.922 377.519 314.744C377.138 314.566 376.709 314.477 376.233 314.477C375.735 314.477 375.298 314.576 374.921 314.775C374.548 314.974 374.26 315.253 374.057 315.614C373.858 315.974 373.759 316.391 373.759 316.863H372.255C372.251 316.126 372.423 315.473 372.771 314.905C373.123 314.334 373.606 313.89 374.219 313.575C374.832 313.256 375.52 313.097 376.282 313.097C377.037 313.097 377.714 313.254 378.315 313.569C378.92 313.88 379.392 314.305 379.732 314.843C380.072 315.382 380.244 315.981 380.248 316.64C380.244 317.124 380.153 317.588 379.974 318.032C379.8 318.471 379.504 318.96 379.086 319.499C378.671 320.037 378.081 320.7 377.314 321.488L374.405 324.496V324.595H380.472V326H372.205L372.193 324.844ZM387.17 326.174C386.333 326.174 385.583 326.033 384.92 325.751C384.257 325.47 383.733 325.074 383.348 324.564C382.966 324.055 382.761 323.468 382.732 322.805H384.336C384.365 323.199 384.506 323.545 384.758 323.843C385.011 324.137 385.345 324.365 385.759 324.527C386.178 324.689 386.64 324.769 387.145 324.769C387.7 324.769 388.198 324.676 388.637 324.49C389.076 324.299 389.42 324.034 389.669 323.694C389.917 323.354 390.042 322.967 390.042 322.532C390.042 322.068 389.919 321.657 389.675 321.301C389.435 320.945 389.082 320.667 388.618 320.468C388.154 320.269 387.597 320.17 386.946 320.17H385.915V318.778H386.946C387.46 318.778 387.916 318.686 388.314 318.504C388.716 318.322 389.026 318.067 389.246 317.74C389.47 317.408 389.582 317.025 389.582 316.59C389.582 316.171 389.484 315.802 389.29 315.483C389.095 315.164 388.817 314.918 388.457 314.744C388.096 314.566 387.676 314.477 387.195 314.477C386.739 314.477 386.31 314.557 385.908 314.719C385.511 314.881 385.187 315.113 384.939 315.415C384.69 315.713 384.555 316.064 384.535 316.465H383.006C383.031 315.811 383.234 315.229 383.615 314.719C383.996 314.205 384.504 313.807 385.138 313.526C385.772 313.24 386.466 313.097 387.22 313.097C388.003 313.097 388.689 313.252 389.277 313.563C389.87 313.874 390.323 314.29 390.638 314.812C390.957 315.334 391.115 315.902 391.111 316.515C391.115 316.988 391.03 317.419 390.856 317.808C390.682 318.198 390.431 318.527 390.104 318.796C389.776 319.066 389.391 319.262 388.948 319.387V319.486C389.495 319.569 389.967 319.749 390.365 320.027C390.767 320.3 391.073 320.655 391.285 321.09C391.496 321.521 391.6 322.006 391.596 322.544C391.6 323.228 391.409 323.847 391.024 324.403C390.642 324.954 390.112 325.387 389.433 325.702C388.757 326.017 388.003 326.174 387.17 326.174ZM398.043 326.174C397.107 326.174 396.305 325.919 395.638 325.41C394.975 324.896 394.467 324.15 394.115 323.172C393.767 322.194 393.593 321.015 393.593 319.635C393.593 318.268 393.769 317.095 394.121 316.117C394.474 315.135 394.983 314.387 395.65 313.874C396.317 313.356 397.115 313.097 398.043 313.097C398.971 313.097 399.769 313.356 400.436 313.874C401.103 314.387 401.613 315.135 401.965 316.117C402.317 317.095 402.494 318.268 402.494 319.635C402.494 321.015 402.317 322.194 401.965 323.172C401.617 324.15 401.11 324.896 400.442 325.41C399.779 325.919 398.98 326.174 398.043 326.174ZM395.134 319.635C395.134 320.725 395.248 321.655 395.476 322.426C395.704 323.193 396.036 323.775 396.471 324.173C396.906 324.57 397.43 324.769 398.043 324.769C398.657 324.769 399.181 324.57 399.616 324.173C400.051 323.775 400.382 323.193 400.61 322.426C400.838 321.655 400.952 320.725 400.952 319.635C400.952 318.546 400.836 317.615 400.604 316.845C400.376 316.07 400.045 315.481 399.61 315.079C399.174 314.677 398.652 314.477 398.043 314.477C397.434 314.477 396.912 314.677 396.477 315.079C396.042 315.481 395.708 316.07 395.476 316.845C395.248 317.615 395.134 318.546 395.134 319.635ZM408.766 326.174C407.829 326.174 407.028 325.919 406.361 325.41C405.698 324.896 405.19 324.15 404.838 323.172C404.49 322.194 404.316 321.015 404.316 319.635C404.316 318.268 404.492 317.095 404.844 316.117C405.196 315.135 405.706 314.387 406.373 313.874C407.04 313.356 407.838 313.097 408.766 313.097C409.694 313.097 410.492 313.356 411.159 313.874C411.826 314.387 412.336 315.135 412.688 316.117C413.04 317.095 413.216 318.268 413.216 319.635C413.216 321.015 413.04 322.194 412.688 323.172C412.34 324.15 411.832 324.896 411.165 325.41C410.502 325.919 409.702 326.174 408.766 326.174ZM405.857 319.635C405.857 320.725 405.971 321.655 406.199 322.426C406.427 323.193 406.758 323.775 407.193 324.173C407.629 324.57 408.153 324.769 408.766 324.769C409.379 324.769 409.903 324.57 410.338 324.173C410.774 323.775 411.105 323.193 411.333 322.426C411.561 321.655 411.675 320.725 411.675 319.635C411.675 318.546 411.559 317.615 411.327 316.845C411.099 316.07 410.767 315.481 410.332 315.079C409.897 314.677 409.375 314.477 408.766 314.477C408.157 314.477 407.635 314.677 407.2 315.079C406.765 315.481 406.431 316.07 406.199 316.845C405.971 317.615 405.857 318.546 405.857 319.635ZM419.489 326.174C418.552 326.174 417.75 325.919 417.083 325.41C416.42 324.896 415.913 324.15 415.56 323.172C415.212 322.194 415.038 321.015 415.038 319.635C415.038 318.268 415.214 317.095 415.567 316.117C415.919 315.135 416.429 314.387 417.096 313.874C417.763 313.356 418.56 313.097 419.489 313.097C420.417 313.097 421.214 313.356 421.882 313.874C422.549 314.387 423.058 315.135 423.411 316.117C423.763 317.095 423.939 318.268 423.939 319.635C423.939 321.015 423.763 322.194 423.411 323.172C423.062 324.15 422.555 324.896 421.888 325.41C421.225 325.919 420.425 326.174 419.489 326.174ZM416.58 319.635C416.58 320.725 416.694 321.655 416.922 322.426C417.15 323.193 417.481 323.775 417.916 324.173C418.351 324.57 418.875 324.769 419.489 324.769C420.102 324.769 420.626 324.57 421.061 324.173C421.496 323.775 421.828 323.193 422.056 322.426C422.283 321.655 422.397 320.725 422.397 319.635C422.397 318.546 422.281 317.615 422.049 316.845C421.821 316.07 421.49 315.481 421.055 315.079C420.62 314.677 420.098 314.477 419.489 314.477C418.879 314.477 418.357 314.677 417.922 315.079C417.487 315.481 417.154 316.07 416.922 316.845C416.694 317.615 416.58 318.546 416.58 319.635Z" fill="#111827"/>
<rect x="25.5" y="398.5" width="399" height="53" rx="4.5" stroke="#D1D5DB"/>
<path d="M53.9746 416.797V432.424H52.6211V424.338H50.3711V431.615H49.0703V417.148H50.3711V423.16H52.6211V416.797H53.9746ZM41.4238 428.381V418.713H42.7949V427.15C44.3418 427.142 46.0117 427.027 47.9102 426.641L48.0859 427.871C45.9062 428.267 44.1133 428.381 42.3906 428.381H41.4238ZM74.9453 425.094V426.219H60.6895V425.094H67.123V423.547H62.5879V417.254H73.1699V418.379H63.9766V419.838H72.748V420.893H63.9766V422.439H73.2578V423.547H68.4941V425.094H74.9453ZM62.4297 429.893C62.4209 428.267 64.3633 427.379 67.8262 427.396C71.2539 427.379 73.1875 428.267 73.2051 429.893C73.1875 431.536 71.2539 432.389 67.8262 432.389C64.3633 432.389 62.4209 431.536 62.4297 429.893ZM63.8184 429.893C63.8008 430.842 65.2422 431.334 67.8262 431.316C70.3838 431.334 71.8076 430.842 71.8164 429.893C71.8076 428.961 70.3838 428.442 67.8262 428.434C65.2422 428.442 63.8008 428.961 63.8184 429.893ZM81.5547 419.768C81.5635 421.815 83.0928 423.644 85.3867 424.391L84.7363 425.48C82.9346 424.883 81.5723 423.644 80.8955 422.07C80.2275 423.863 78.7861 425.261 76.9141 425.938L76.2109 424.83C78.5488 424.039 80.1836 422.026 80.2012 419.768V419.1H76.6328V417.957H85.0703V419.1H81.5547V419.768ZM78.2852 429.506C78.2939 427.704 80.2539 426.658 83.4707 426.658C86.6787 426.658 88.6211 427.704 88.6211 429.506C88.6211 431.334 86.6787 432.389 83.4707 432.389C80.2539 432.389 78.2939 431.334 78.2852 429.506ZM79.6738 429.506C79.6562 430.631 81.1152 431.29 83.4707 431.281C85.835 431.29 87.2764 430.631 87.2852 429.506C87.2764 428.416 85.835 427.766 83.4707 427.766C81.1152 427.766 79.6562 428.416 79.6738 429.506ZM87.1094 426.236V416.797H88.4805V420.787H90.8359V421.947H88.4805V426.236H87.1094ZM110.646 429.365V430.508H96.3379V429.365H100.328V425.639H97.6387V424.496H100.082V419.398H97.6035V418.256H109.275V419.398H106.797V424.496H109.24V425.639H106.551V429.365H110.646ZM101.453 424.496H105.443V419.398H101.453V424.496ZM101.717 429.365H105.18V425.639H101.717V429.365ZM117.449 420.998C117.44 423.854 119.383 426.72 121.686 427.766L120.842 428.855C119.058 427.994 117.52 426.14 116.772 423.916C116.052 426.271 114.514 428.249 112.686 429.172L111.807 428.012C114.136 426.948 116.061 423.96 116.078 420.998V418.15H117.449V420.998ZM123.391 432.459V416.797H124.779V432.459H123.391Z" fill="#6B7280"/>
<path d="M260.764 429.501H253.541V419.345H260.764V429.501ZM259.421 428.37V420.452H254.909V428.37H259.421ZM264.133 417.804H265.512V433.454H264.133V417.804ZM281.094 426.182H279.714V417.804H281.094V426.182ZM268.551 422.155C268.551 421.454 268.727 420.831 269.079 420.284C269.432 419.737 269.919 419.312 270.54 419.01C271.166 418.707 271.87 418.558 272.653 418.562C273.436 418.558 274.139 418.707 274.76 419.01C275.382 419.312 275.867 419.737 276.215 420.284C276.567 420.831 276.743 421.454 276.743 422.155C276.743 422.855 276.567 423.477 276.215 424.019C275.867 424.562 275.382 424.985 274.76 425.287C274.139 425.59 273.436 425.739 272.653 425.735C271.87 425.739 271.166 425.59 270.54 425.287C269.919 424.985 269.432 424.562 269.079 424.019C268.727 423.472 268.551 422.851 268.551 422.155ZM269.906 422.155C269.902 422.623 270.016 423.044 270.248 423.416C270.484 423.785 270.811 424.073 271.23 424.28C271.648 424.488 272.123 424.591 272.653 424.591C273.18 424.591 273.65 424.488 274.064 424.28C274.483 424.073 274.81 423.785 275.046 423.416C275.282 423.044 275.401 422.623 275.401 422.155C275.401 421.686 275.282 421.268 275.046 420.899C274.81 420.526 274.483 420.238 274.064 420.035C273.65 419.828 273.18 419.727 272.653 419.731C272.123 419.727 271.648 419.828 271.23 420.035C270.811 420.238 270.484 420.526 270.248 420.899C270.016 421.268 269.902 421.686 269.906 422.155ZM270.975 426.978H272.33V428.88H279.727V426.978H281.094V433.218H270.975V426.978ZM279.727 432.087V429.986H272.33V432.087H279.727ZM291.156 423.149H285.786V425.573C287.332 425.573 288.546 425.548 289.428 425.499C290.315 425.445 291.198 425.337 292.076 425.175L292.213 426.319C291.289 426.472 290.363 426.574 289.434 426.624C288.51 426.669 287.207 426.692 285.525 426.692H284.419V422.08H289.789V419.88H284.381V418.761H291.156V423.149ZM286.171 428.258H296.7V433.454H295.32V429.39H286.171V428.258ZM292.2 423.373H295.32V421.26H292.2V420.141H295.32V417.816H296.7V427.413H295.32V424.504H292.2V423.373ZM304.861 422.006C304.856 422.93 305.045 423.847 305.426 424.759C305.807 425.671 306.321 426.481 306.968 427.189C307.618 427.894 308.325 428.42 309.087 428.768L308.242 429.862C307.653 429.572 307.096 429.182 306.57 428.693C306.044 428.2 305.575 427.631 305.165 426.984C304.755 426.338 304.428 425.648 304.183 424.914C303.943 425.693 303.617 426.427 303.207 427.115C302.801 427.798 302.331 428.403 301.796 428.93C301.262 429.456 300.692 429.87 300.087 430.173L299.217 429.017C299.988 428.66 300.698 428.117 301.349 427.388C301.999 426.655 302.515 425.816 302.896 424.871C303.282 423.926 303.477 422.971 303.481 422.006V419.159H304.861V422.006ZM310.803 417.804H312.182V433.454H310.803V417.804ZM327.222 419.258C327.222 419.963 327.493 420.636 328.036 421.278C328.583 421.921 329.296 422.461 330.174 422.901C331.053 423.34 331.967 423.626 332.915 423.758L332.356 424.89C331.531 424.753 330.734 424.515 329.963 424.175C329.196 423.835 328.511 423.412 327.906 422.907C327.301 422.397 326.837 421.831 326.513 421.21C326.19 421.836 325.726 422.403 325.121 422.913C324.52 423.419 323.837 423.839 323.07 424.175C322.304 424.51 321.508 424.749 320.683 424.89L320.112 423.758C321.065 423.626 321.978 423.342 322.853 422.907C323.727 422.472 324.435 421.935 324.978 421.297C325.521 420.655 325.792 419.975 325.792 419.258V418.363H327.222V419.258ZM319.378 426.605H333.624V427.761H327.147V433.43H325.792V427.761H319.378V426.605ZM340.827 420.75C340.827 421.268 340.987 421.757 341.306 422.217C341.625 422.677 342.07 423.077 342.642 423.416C343.214 423.752 343.868 424.003 344.606 424.169L344.034 425.262C343.131 425.043 342.344 424.703 341.672 424.243C341.005 423.783 340.502 423.236 340.162 422.602C339.83 423.29 339.323 423.885 338.639 424.386C337.96 424.883 337.16 425.246 336.24 425.474L335.643 424.38C336.389 424.21 337.048 423.945 337.62 423.584C338.196 423.224 338.643 422.799 338.962 422.31C339.286 421.817 339.447 421.297 339.447 420.75V420.688H335.967V419.594H339.447V417.841H340.827V419.594H344.308V420.688H340.827V420.75ZM334.897 426.58C336.936 426.58 338.799 426.551 340.485 426.493C342.176 426.435 343.786 426.307 345.315 426.108L345.414 427.115C344.08 427.338 342.563 427.502 340.864 427.606V432.97H339.484V427.674C338.221 427.724 336.754 427.749 335.084 427.749L334.897 426.58ZM346.471 417.816H347.826V433.442H346.471V417.816ZM363.395 429.24H362.015V417.816H363.395V429.24ZM350.852 422.739C350.852 422.001 351.03 421.343 351.386 420.762C351.743 420.178 352.234 419.724 352.859 419.401C353.485 419.074 354.183 418.91 354.954 418.91C355.725 418.91 356.421 419.074 357.043 419.401C357.668 419.724 358.157 420.178 358.509 420.762C358.866 421.343 359.044 422.001 359.044 422.739C359.044 423.485 358.866 424.15 358.509 424.734C358.157 425.318 357.668 425.774 357.043 426.102C356.421 426.425 355.725 426.584 354.954 426.58C354.183 426.584 353.485 426.425 352.859 426.102C352.234 425.774 351.743 425.318 351.386 424.734C351.03 424.15 350.852 423.485 350.852 422.739ZM352.207 422.739C352.203 423.249 352.319 423.704 352.555 424.106C352.795 424.504 353.125 424.815 353.543 425.039C353.962 425.262 354.432 425.374 354.954 425.374C355.468 425.374 355.934 425.262 356.353 425.039C356.771 424.815 357.101 424.504 357.341 424.106C357.581 423.704 357.701 423.249 357.701 422.739C357.701 422.238 357.581 421.788 357.341 421.39C357.101 420.992 356.771 420.682 356.353 420.458C355.934 420.23 355.468 420.116 354.954 420.116C354.432 420.116 353.962 420.228 353.543 420.452C353.125 420.675 352.795 420.988 352.555 421.39C352.319 421.788 352.203 422.238 352.207 422.739ZM353.301 428.072H354.681V431.938H363.88V433.081H353.301V428.072ZM379.001 427.065H377.621V424.591H373.954V425.934H366.781V418.997H373.954V420.352H377.621V417.804H379.001V427.065ZM372.599 424.802V420.116H368.149V424.802H372.599ZM368.584 430.471C368.58 429.849 368.787 429.317 369.205 428.874C369.624 428.43 370.227 428.093 371.014 427.86C371.801 427.628 372.736 427.512 373.817 427.512C374.895 427.512 375.825 427.628 376.608 427.86C377.395 428.093 377.998 428.43 378.417 428.874C378.839 429.317 379.051 429.849 379.051 430.471C379.051 431.084 378.839 431.61 378.417 432.05C377.998 432.489 377.397 432.823 376.614 433.05C375.831 433.278 374.899 433.392 373.817 433.392C372.732 433.392 371.795 433.278 371.008 433.05C370.225 432.823 369.624 432.489 369.205 432.05C368.787 431.61 368.58 431.084 368.584 430.471ZM369.951 430.471C369.947 430.844 370.101 431.169 370.411 431.447C370.722 431.72 371.168 431.93 371.748 432.075C372.332 432.224 373.022 432.298 373.817 432.298C374.609 432.298 375.295 432.224 375.875 432.075C376.455 431.93 376.9 431.72 377.211 431.447C377.526 431.169 377.683 430.844 377.683 430.471C377.683 430.081 377.528 429.748 377.217 429.47C376.906 429.189 376.461 428.973 375.881 428.824C375.301 428.675 374.613 428.598 373.817 428.594C373.018 428.598 372.328 428.675 371.748 428.824C371.168 428.973 370.722 429.189 370.411 429.47C370.101 429.748 369.947 430.081 369.951 430.471ZM377.621 423.448V421.483H373.954V423.448H377.621Z" fill="#9CA3AF"/>
<mask id="mask1_241_1740" style="mask-type:alpha" maskUnits="userSpaceOnUse" x="386" y="413" width="24" height="24">
<rect x="386" y="413" width="24" height="24" fill="#D9D9D9"/>
</mask>
<g mask="url(#mask1_241_1740)">
<path d="M391 432H392.425L402.2 422.225L400.775 420.8L391 430.575V432ZM390 434C389.717 434 389.479 433.904 389.287 433.712C389.096 433.521 389 433.283 389 433V430.575C389 430.308 389.05 430.054 389.15 429.812C389.25 429.571 389.392 429.358 389.575 429.175L402.2 416.575C402.4 416.392 402.621 416.25 402.863 416.15C403.104 416.05 403.358 416 403.625 416C403.892 416 404.15 416.05 404.4 416.15C404.65 416.25 404.867 416.4 405.05 416.6L406.425 418C406.625 418.183 406.771 418.4 406.863 418.65C406.954 418.9 407 419.15 407 419.4C407 419.667 406.954 419.921 406.863 420.162C406.771 420.404 406.625 420.625 406.425 420.825L393.825 433.425C393.642 433.608 393.429 433.75 393.188 433.85C392.946 433.95 392.692 434 392.425 434H390ZM401.475 421.525L400.775 420.8L402.2 422.225L401.475 421.525Z" fill="#9CA3AF"/>
</g>
<rect x="25.5" y="462.5" width="399" height="53" rx="4.5" stroke="#D1D5DB"/>
<path d="M52.8496 480.797V484.576H55.2051V485.736H52.8496V489.938H51.4785V480.797H52.8496ZM41.3008 488.953V481.693H42.6543V484.084H47.207V481.693H48.5781V488.953H41.3008ZM42.6543 487.846H47.207V485.191H42.6543V487.846ZM43.041 496.213V490.816H52.9727V491.924H44.4121V495.088H53.2715V496.213H43.041ZM68.8281 485.543V486.65H58.123V481.377H59.4941V485.543H68.8281ZM56.1719 489.902V488.777H70.4805V489.902H56.1719ZM58.0352 496.037V491.502H59.4062V494.895H68.916V496.037H58.0352ZM90.5547 489.076V490.201H84.1914V493.26H82.8203V490.201H76.2461V489.076H90.5547ZM78.0742 496.09V491.818H79.4453V494.93H88.9551V496.09H78.0742ZM78.1621 487.547V481.307H79.5332V483.311H87.2676V481.307H88.6387V487.547H78.1621ZM79.5332 486.422H87.2676V484.365H79.5332V486.422ZM110.646 493.365V494.508H96.3379V493.365H100.328V489.639H97.6387V488.496H100.082V483.398H97.6035V482.256H109.275V483.398H106.797V488.496H109.24V489.639H106.551V493.365H110.646ZM101.453 488.496H105.443V483.398H101.453V488.496ZM101.717 493.365H105.18V489.639H101.717V493.365ZM117.449 484.998C117.44 487.854 119.383 490.72 121.686 491.766L120.842 492.855C119.058 491.994 117.52 490.14 116.772 487.916C116.052 490.271 114.514 492.249 112.686 493.172L111.807 492.012C114.136 490.948 116.061 487.96 116.078 484.998V482.15H117.449V484.998ZM123.391 496.459V480.797H124.779V496.459H123.391Z" fill="#6B7280"/>
<mask id="mask2_241_1740" style="mask-type:alpha" maskUnits="userSpaceOnUse" x="386" y="477" width="24" height="24">
<rect x="386" y="477" width="24" height="24" fill="#D9D9D9"/>
</mask>
<g mask="url(#mask2_241_1740)">
<path d="M391 496H392.425L402.2 486.225L400.775 484.8L391 494.575V496ZM390 498C389.717 498 389.479 497.904 389.287 497.712C389.096 497.521 389 497.283 389 497V494.575C389 494.308 389.05 494.054 389.15 493.812C389.25 493.571 389.392 493.358 389.575 493.175L402.2 480.575C402.4 480.392 402.621 480.25 402.863 480.15C403.104 480.05 403.358 480 403.625 480C403.892 480 404.15 480.05 404.4 480.15C404.65 480.25 404.867 480.4 405.05 480.6L406.425 482C406.625 482.183 406.771 482.4 406.863 482.65C406.954 482.9 407 483.15 407 483.4C407 483.667 406.954 483.921 406.863 484.162C406.771 484.404 406.625 484.625 406.425 484.825L393.825 497.425C393.642 497.608 393.429 497.75 393.188 497.85C392.946 497.95 392.692 498 392.425 498H390ZM401.475 485.525L400.775 484.8L402.2 486.225L401.475 485.525Z" fill="#9CA3AF"/>
</g>
<rect x="25.5" y="526.5" width="399" height="53" rx="4.5" stroke="#D1D5DB"/>
<path d="M53.5176 544.797V560.459H52.1289V544.797H53.5176ZM41.2129 551.459C41.2217 548.137 42.874 546.019 45.2031 546.01C47.5234 546.019 49.2021 548.137 49.1934 551.459C49.2021 554.79 47.5234 556.899 45.2031 556.891C42.874 556.899 41.2217 554.79 41.2129 551.459ZM42.5488 551.459C42.5488 553.999 43.6387 555.669 45.2031 555.66C46.7764 555.669 47.8574 553.999 47.8574 551.459C47.8574 548.919 46.7764 547.249 45.2031 547.24C43.6387 547.249 42.5488 548.919 42.5488 551.459ZM60.7598 549.613C60.7686 552.127 62.043 554.702 64.1699 555.836L63.3789 556.873C61.8232 556.021 60.6982 554.403 60.127 552.522C59.5732 554.526 58.457 556.284 56.8926 557.225L56.0664 556.17C58.1934 554.939 59.4502 552.197 59.459 549.613V548.84H56.4883V547.697H59.459V545.377H60.7773V547.697H63.6953V548.84H60.7598V549.613ZM62.623 552.145V550.967H65.084V545.184H66.3848V559.615H65.084V552.145H62.623ZM68.2305 560.424V544.797H69.5488V560.424H68.2305ZM82.8203 546.625V550.703H85.1934V545.131H86.5117V559.633H85.1934V551.846H82.8203V556.223H76.8438V546.625H82.8203ZM78.1445 555.115H81.5195V547.732H78.1445V555.115ZM88.3223 560.424V544.797H89.6582V560.424H88.3223ZM106.129 557.26V558.42H91.8203V557.26H98.2539V553.445H93.5078V546.115H104.354V553.445H99.6074V557.26H106.129ZM94.8613 552.338H103.018V547.223H94.8613V552.338Z" fill="#6B7280"/>
<mask id="mask3_241_1740" style="mask-type:alpha" maskUnits="userSpaceOnUse" x="386" y="541" width="24" height="24">
<rect x="386" y="541" width="24" height="24" fill="#D9D9D9"/>
</mask>
<g mask="url(#mask3_241_1740)">
<path d="M391 560H392.425L402.2 550.225L400.775 548.8L391 558.575V560ZM390 562C389.717 562 389.479 561.904 389.287 561.712C389.096 561.521 389 561.283 389 561V558.575C389 558.308 389.05 558.054 389.15 557.812C389.25 557.571 389.392 557.358 389.575 557.175L402.2 544.575C402.4 544.392 402.621 544.25 402.863 544.15C403.104 544.05 403.358 544 403.625 544C403.892 544 404.15 544.05 404.4 544.15C404.65 544.25 404.867 544.4 405.05 544.6L406.425 546C406.625 546.183 406.771 546.4 406.863 546.65C406.954 546.9 407 547.15 407 547.4C407 547.667 406.954 547.921 406.863 548.162C406.771 548.404 406.625 548.625 406.425 548.825L393.825 561.425C393.642 561.608 393.429 561.75 393.188 561.85C392.946 561.95 392.692 562 392.425 562H390ZM401.475 549.525L400.775 548.8L402.2 550.225L401.475 549.525Z" fill="#9CA3AF"/>
</g>
<path d="M25 672C25 669.239 27.2386 667 30 667H225V716H30C27.2386 716 25 713.761 25 711V672Z" fill="#6B7280"/>
<path d="M119.953 685.75V687.109H117.031C117.062 688.328 118.18 689.414 120.266 689.828L119.578 691.172C117.961 690.836 116.812 690.078 116.188 689.062C115.57 690.172 114.414 691.008 112.75 691.359L112.016 690.016C114.133 689.602 115.258 688.406 115.281 687.109H112.375V685.75H115.297V684.297H117.031V685.75H119.953ZM123.281 684.281V698.375H121.562V684.281H123.281ZM111.484 692.094C114.109 692.094 117.625 692.078 120.641 691.703L120.766 692.953C119.547 693.164 118.281 693.297 117.047 693.375V697.953H115.297V693.469C114.008 693.523 112.781 693.531 111.703 693.531L111.484 692.094ZM138.203 695.234V696.641H125.297V695.234H130.828V691.969H132.547V695.234H138.203ZM132.594 686.156C132.594 688.297 134.734 690.406 137.703 690.875L136.953 692.312C134.562 691.859 132.609 690.492 131.672 688.641C130.734 690.484 128.797 691.875 126.422 692.312L125.672 690.875C128.625 690.406 130.734 688.281 130.75 686.156V685.125H132.594V686.156Z" fill="white"/>
<path d="M225 667H420C422.761 667 425 669.239 425 672V711C425 713.761 422.761 716 420 716H225V667Z" fill="#00C18A"/>
<path d="M322.531 684.266V689.625H324.703V691.047H322.531V698.406H320.797V684.266H322.531ZM318.656 685.609V687.016H313.781V693.5C315.977 693.5 317.711 693.391 319.656 693.047L319.859 694.516C317.672 694.891 315.766 694.953 313.219 694.953H312.047V685.609H318.656ZM331.719 684.547C334.844 684.547 336.797 685.578 336.812 687.297C336.797 688.984 334.844 690 331.719 689.984C328.625 690 326.625 688.984 326.625 687.297C326.625 685.578 328.625 684.547 331.719 684.547ZM331.719 685.906C329.656 685.906 328.422 686.391 328.438 687.297C328.422 688.156 329.656 688.625 331.719 688.641C333.781 688.625 335.016 688.156 335.016 687.297C335.016 686.391 333.781 685.906 331.719 685.906ZM336.609 693.469V698.219H326.812V693.469H336.609ZM328.531 694.844V696.812H334.922V694.844H328.531ZM338.172 690.938V692.344H325.297V690.938H338.172Z" fill="white"/>
</svg>
