<svg width="400" height="727" viewBox="0 0 400 727" fill="none" xmlns="http://www.w3.org/2000/svg">
<rect width="400" height="727" fill="white"/>
<mask id="mask0_514_2984" style="mask-type:alpha" maskUnits="userSpaceOnUse" x="25" y="20" width="40" height="40">
<rect x="25" y="20" width="40" height="40" fill="#D9D9D9"/>
</mask>
<g mask="url(#mask0_514_2984)">
<path d="M28.375 39.972L35.4583 47.0553C35.7267 47.3239 35.8562 47.6481 35.8471 48.0278C35.8379 48.4073 35.699 48.7313 35.4304 48.9999C35.1618 49.2685 34.8331 49.4028 34.4442 49.4028C34.0553 49.4028 33.7267 49.2685 33.4583 48.9999L25.4025 40.9445C25.2544 40.7962 25.1503 40.6434 25.09 40.4862C25.03 40.3287 25 40.1573 25 39.972C25 39.787 25.03 39.6158 25.09 39.4583C25.1503 39.3008 25.2544 39.148 25.4025 38.9999L33.4858 30.9166C33.7544 30.648 34.0832 30.5137 34.4721 30.5137C34.861 30.5137 35.1897 30.648 35.4583 30.9166C35.7267 31.1852 35.8608 31.5139 35.8608 31.9028C35.8608 32.2917 35.7267 32.6203 35.4583 32.8887L28.375 39.972Z" fill="#111827"/>
</g>
<path d="M64.2383 31.6738V47.5645H62.375V31.6738H64.2383ZM60.9512 32.0605V46.8086H59.0879V41.5H56.6094V39.9004H59.0879V37.5449H56.8906C56.1436 40.1816 54.4824 42.4492 51.5117 44.207L50.3691 42.8184C53.665 40.876 55.1768 38.3887 55.4668 35.1895H51.2129V33.6074H57.4004C57.4004 34.4072 57.3477 35.1895 57.2422 35.9453H59.0879V32.0605H60.9512ZM75.2246 33.0273V34.627H71.9023C71.9551 36.3848 73.2471 38.0547 75.6641 38.7578L74.7324 40.2871C72.9219 39.751 71.6299 38.6436 70.9355 37.2285C70.2324 38.7842 68.8965 39.9971 67.0332 40.5684L66.0312 39.0391C68.501 38.3008 69.8369 36.543 69.916 34.627H66.5762V33.0273H75.2246ZM71.8848 39.9004V42.7305C73.1855 42.6689 74.4951 42.5635 75.7168 42.3965L75.8574 43.8027C72.5 44.4355 68.8613 44.418 66.1543 44.4355L65.8906 42.8359C67.0947 42.8359 68.4834 42.8359 69.9336 42.8008V39.9004H71.8848ZM80.8848 38.0547V39.6895H78.582V47.5645H76.6309V31.6738H78.582V38.0547H80.8848ZM94.8594 31.6738V47.582H92.8906V31.6738H94.8594ZM86.2988 32.834C88.6895 32.834 90.4297 35.0137 90.4473 38.4414C90.4297 41.9043 88.6895 44.0664 86.2988 44.0664C83.8906 44.0664 82.1504 41.9043 82.1504 38.4414C82.1504 35.0137 83.8906 32.834 86.2988 32.834ZM86.2988 34.5918C84.9453 34.5918 84.0312 36.0156 84.0312 38.4414C84.0312 40.8848 84.9453 42.3086 86.2988 42.3086C87.6348 42.3086 88.5488 40.8848 88.5488 38.4414C88.5488 36.0156 87.6348 34.5918 86.2988 34.5918ZM102.049 36.5254C102.049 38.9863 103.068 41.4648 105.283 42.6602L104.193 44.1016C102.717 43.3193 101.715 41.9219 101.152 40.252C100.59 42.0537 99.5879 43.5918 98.0938 44.4707L96.9512 42.9941C99.2012 41.6934 100.203 39.0391 100.203 36.5254V36.0332H97.4961V34.4512H100.203V32.2363H102.049V34.4512H104.703V36.0332H102.049V36.5254ZM110.873 31.6738V47.5645H109.01V31.6738H110.873ZM107.639 31.9727V46.791H105.793V39.3906H103.719V37.7734H105.793V31.9727H107.639Z" fill="#111827"/>
<path d="M343.258 38.0371V39.1973H340.727V47.4238H339.355V31.7969H340.727V38.0371H343.258ZM330.654 33.3438V42.291C332.939 42.2822 335.269 42.1064 337.844 41.5703L338.02 42.748C335.33 43.293 332.904 43.4512 330.531 43.4512H329.283V33.3438H330.654ZM356.283 31.7969V38.1602H358.814V39.3203H356.283V47.4238H354.912V31.7969H356.283ZM352.24 33.4844C352.24 37.9141 350.166 41.9395 345.068 44.4531L344.295 43.3633C348.338 41.3506 350.535 38.3447 350.852 34.6445H345.016V33.4844H352.24ZM372.666 31.7969V47.4238H371.277V31.7969H372.666ZM368.043 33.502C368.025 38.002 365.934 41.9746 360.695 44.4883L359.939 43.3633C364.167 41.3594 366.32 38.3623 366.637 34.627H360.66V33.502H368.043Z" fill="#EF403C"/>
<mask id="path-5-inside-1_514_2984" fill="white">
<path d="M25 95H375V183H25V95Z"/>
</mask>
<path d="M375 181H25V185H375V181Z" fill="#6B7280" mask="url(#path-5-inside-1_514_2984)"/>
<path d="M43.4922 96.8281V118.203H40.4688V96.8281H43.4922ZM31.9141 98.3281C35.125 98.3281 37.5156 101.281 37.5156 105.922C37.5156 110.609 35.125 113.539 31.9141 113.539C28.6328 113.539 26.2422 110.609 26.2656 105.922C26.2422 101.281 28.6328 98.3281 31.9141 98.3281ZM31.9141 101.023C30.25 101.023 29.1484 102.758 29.1484 105.922C29.1484 109.109 30.25 110.82 31.9141 110.82C33.5312 110.82 34.6328 109.109 34.6328 105.922C34.6328 102.758 33.5312 101.023 31.9141 101.023ZM52.1172 98.3281C55.375 98.3281 57.7188 101.281 57.7422 105.922C57.7188 110.609 55.375 113.539 52.1172 113.539C48.8594 113.539 46.4688 110.609 46.4922 105.922C46.4688 101.281 48.8594 98.3281 52.1172 98.3281ZM52.1172 101.023C50.4766 101.023 49.375 102.758 49.375 105.922C49.375 109.109 50.4766 110.82 52.1172 110.82C53.7812 110.82 54.8594 109.109 54.8828 105.922C54.8594 102.758 53.7812 101.023 52.1172 101.023ZM63.2031 96.8281V104.867H66.3438V107.352H63.2031V118.156H60.2031V96.8281H63.2031ZM86.6172 105.148V107.492H67.1172V105.148H86.6172ZM84.2969 101.633V103.977H69.5547V97.25H84.1328V99.6406H72.5312V101.633H84.2969ZM84.2031 108.758V114.336H72.3203V115.648H84.7656V117.969H69.3906V112.203H81.25V111.008H69.3672V108.758H84.2031Z" fill="#111827"/>
<path d="M106.017 108.89H104.21V97.0718H106.017V108.89ZM90.1547 98.2983H92.011V105.724C93.8287 105.718 95.5249 105.644 97.0994 105.5C98.6796 105.356 100.265 105.116 101.856 104.779L102.138 106.32C100.431 106.663 98.7569 106.909 97.116 107.058C95.4751 107.207 93.7182 107.287 91.8453 107.298H90.1547V98.2983ZM92.4917 109.867H106.017V117.608H92.4917V109.867ZM104.227 116.116V111.343H94.3149V116.116H104.227ZM127.438 117.906H125.665V97.0718H127.438V117.906ZM109.853 106.055C109.853 104.597 110.035 103.323 110.4 102.235C110.77 101.141 111.289 100.301 111.958 99.7155C112.632 99.1243 113.416 98.8287 114.311 98.8287C115.151 98.8287 115.894 99.0856 116.541 99.5994C117.192 100.113 117.712 100.851 118.099 101.812C118.485 102.768 118.717 103.895 118.795 105.193H121.488V97.5193H123.262V116.845H121.488V106.718H118.803C118.742 108.061 118.518 109.229 118.132 110.224C117.75 111.213 117.231 111.975 116.574 112.511C115.916 113.041 115.162 113.304 114.311 113.298C113.416 113.304 112.632 113.011 111.958 112.42C111.289 111.829 110.77 110.986 110.4 109.892C110.035 108.798 109.853 107.519 109.853 106.055ZM111.576 106.055C111.571 107.171 111.679 108.146 111.9 108.981C112.126 109.809 112.447 110.448 112.861 110.895C113.275 111.343 113.759 111.564 114.311 111.558C114.875 111.564 115.366 111.343 115.786 110.895C116.206 110.448 116.529 109.809 116.756 108.981C116.983 108.146 117.096 107.171 117.096 106.055C117.096 104.939 116.983 103.967 116.756 103.138C116.529 102.309 116.206 101.671 115.786 101.224C115.366 100.776 114.875 100.552 114.311 100.552C113.759 100.552 113.275 100.776 112.861 101.224C112.447 101.671 112.126 102.309 111.9 103.138C111.679 103.967 111.571 104.939 111.576 106.055ZM148.164 117.906H146.407V97.0718H148.164V117.906ZM130.346 112.072C132.567 110.757 134.269 109.185 135.451 107.356C136.634 105.522 137.313 103.492 137.49 101.265H131.241V99.7238H139.33C139.319 101.867 138.971 103.834 138.285 105.624H142.031V97.6354H143.788V116.845H142.031V107.116H137.606C136.285 109.652 134.225 111.746 131.424 113.398L130.346 112.072Z" fill="#111827"/>
<path d="M33.6484 133.031V150H30.1094V136.383H30.0156L26.125 138.82V135.703L30.3203 133.031H33.6484ZM44.1719 150.234C39.918 150.234 37.3516 147.07 37.3516 141.516C37.3516 135.973 39.9414 132.797 44.1719 132.797C48.4023 132.797 50.9922 135.973 50.9922 141.516C50.9922 147.094 48.4141 150.234 44.1719 150.234ZM40.9609 141.516C40.9375 145.43 42.2031 147.328 44.1719 147.328C46.1406 147.328 47.3945 145.43 47.3828 141.516C47.3945 137.637 46.1289 135.691 44.1719 135.68C42.2148 135.691 40.9609 137.637 40.9609 141.516ZM60.0156 150.234C55.7617 150.234 53.1953 147.07 53.1953 141.516C53.1953 135.973 55.7852 132.797 60.0156 132.797C64.2461 132.797 66.8359 135.973 66.8359 141.516C66.8359 147.094 64.2578 150.234 60.0156 150.234ZM56.8047 141.516C56.7812 145.43 58.0469 147.328 60.0156 147.328C61.9844 147.328 63.2383 145.43 63.2266 141.516C63.2383 137.637 61.9727 135.691 60.0156 135.68C58.0586 135.691 56.8047 137.637 56.8047 141.516ZM72.3672 148.266L70.3516 154.945H67.8672L69.0391 148.266H72.3672ZM81.3438 150.234C77.0898 150.234 74.5234 147.07 74.5234 141.516C74.5234 135.973 77.1133 132.797 81.3438 132.797C85.5742 132.797 88.1641 135.973 88.1641 141.516C88.1641 147.094 85.5859 150.234 81.3438 150.234ZM78.1328 141.516C78.1094 145.43 79.375 147.328 81.3438 147.328C83.3125 147.328 84.5664 145.43 84.5547 141.516C84.5664 137.637 83.3008 135.691 81.3438 135.68C79.3867 135.691 78.1328 137.637 78.1328 141.516ZM97.1875 150.234C92.9336 150.234 90.3672 147.07 90.3672 141.516C90.3672 135.973 92.957 132.797 97.1875 132.797C101.418 132.797 104.008 135.973 104.008 141.516C104.008 147.094 101.43 150.234 97.1875 150.234ZM93.9766 141.516C93.9531 145.43 95.2188 147.328 97.1875 147.328C99.1562 147.328 100.41 145.43 100.398 141.516C100.41 137.637 99.1445 135.691 97.1875 135.68C95.2305 135.691 93.9766 137.637 93.9766 141.516ZM113.031 150.234C108.777 150.234 106.211 147.07 106.211 141.516C106.211 135.973 108.801 132.797 113.031 132.797C117.262 132.797 119.852 135.973 119.852 141.516C119.852 147.094 117.273 150.234 113.031 150.234ZM109.82 141.516C109.797 145.43 111.062 147.328 113.031 147.328C115 147.328 116.254 145.43 116.242 141.516C116.254 137.637 114.988 135.691 113.031 135.68C111.074 135.691 109.82 137.637 109.82 141.516Z" fill="#00C18A"/>
<path d="M139.017 146.917H137.16V144.746H132.867V143.403H137.16V131.088H139.017V146.917ZM121.729 140.735C124.481 140.724 126.936 140.682 129.097 140.61C131.262 140.533 133.326 140.37 135.287 140.122L135.42 141.464C133.691 141.74 131.779 141.942 129.685 142.069V146.188H127.845V142.16C126.425 142.215 124.807 142.243 122.989 142.243H121.978L121.729 140.735ZM123.403 135.564C123.403 134.845 123.619 134.213 124.05 133.666C124.481 133.113 125.088 132.688 125.873 132.39C126.657 132.086 127.558 131.934 128.575 131.934C129.58 131.934 130.472 132.086 131.251 132.39C132.03 132.688 132.635 133.113 133.066 133.666C133.503 134.213 133.724 134.845 133.729 135.564C133.724 136.293 133.503 136.931 133.066 137.478C132.635 138.019 132.03 138.439 131.251 138.738C130.478 139.03 129.586 139.177 128.575 139.177C127.552 139.177 126.649 139.03 125.865 138.738C125.086 138.445 124.481 138.025 124.05 137.478C123.619 136.931 123.403 136.293 123.403 135.564ZM124.729 145.359H126.569V149.917H139.53V151.442H124.729V145.359ZM125.16 135.564C125.155 136.011 125.293 136.403 125.575 136.74C125.862 137.077 126.265 137.34 126.785 137.528C127.304 137.71 127.901 137.801 128.575 137.801C129.227 137.801 129.809 137.71 130.323 137.528C130.837 137.34 131.238 137.077 131.525 136.74C131.818 136.403 131.967 136.011 131.972 135.564C131.967 135.122 131.818 134.732 131.525 134.395C131.238 134.052 130.837 133.787 130.323 133.599C129.809 133.412 129.227 133.32 128.575 133.326C127.901 133.32 127.304 133.412 126.785 133.599C126.265 133.787 125.862 134.052 125.575 134.395C125.293 134.732 125.155 135.122 125.16 135.564ZM152.068 131.436C153.615 131.436 154.938 131.575 156.038 131.851C157.137 132.127 157.977 132.536 158.557 133.077C159.137 133.613 159.427 134.265 159.427 135.033C159.427 135.812 159.137 136.472 158.557 137.014C157.977 137.555 157.137 137.967 156.038 138.249C154.938 138.53 153.615 138.674 152.068 138.68C150.521 138.674 149.195 138.53 148.09 138.249C146.991 137.967 146.148 137.555 145.563 137.014C144.983 136.472 144.692 135.812 144.692 135.033C144.692 134.265 144.983 133.613 145.563 133.077C146.148 132.541 146.991 132.135 148.09 131.859C149.195 131.577 150.521 131.436 152.068 131.436ZM142.587 140.088H161.582V141.58H142.587V140.088ZM144.891 143.387H159.129V148.044H146.748V150.215H159.759V151.674H144.941V146.685H157.322V144.796H144.891V143.387ZM146.615 135.033C146.61 135.508 146.82 135.914 147.245 136.251C147.676 136.583 148.3 136.837 149.118 137.014C149.936 137.185 150.919 137.271 152.068 137.271C153.223 137.271 154.209 137.185 155.027 137.014C155.85 136.837 156.477 136.583 156.908 136.251C157.339 135.914 157.554 135.508 157.554 135.033C157.554 134.575 157.336 134.182 156.9 133.856C156.469 133.525 155.842 133.271 155.018 133.094C154.195 132.917 153.212 132.829 152.068 132.829C150.93 132.829 149.949 132.917 149.126 133.094C148.308 133.271 147.684 133.525 147.253 133.856C146.822 134.182 146.61 134.575 146.615 135.033ZM186.524 151.939H184.685V131.072H186.524V151.939ZM170.132 139.939C170.132 138.486 170.356 137.213 170.803 136.119C171.256 135.025 171.886 134.18 172.693 133.583C173.5 132.986 174.419 132.685 175.453 132.68C176.48 132.685 177.395 132.986 178.196 133.583C179.002 134.18 179.632 135.028 180.085 136.127C180.544 137.221 180.773 138.492 180.773 139.939C180.773 141.392 180.544 142.669 180.085 143.768C179.632 144.867 179.002 145.715 178.196 146.312C177.389 146.903 176.475 147.199 175.453 147.199C174.419 147.199 173.5 146.903 172.693 146.312C171.886 145.715 171.256 144.87 170.803 143.776C170.356 142.677 170.132 141.398 170.132 139.939ZM171.906 139.939C171.906 141.055 172.055 142.039 172.353 142.89C172.651 143.74 173.069 144.398 173.604 144.862C174.146 145.326 174.762 145.558 175.453 145.558C176.143 145.558 176.754 145.326 177.284 144.862C177.82 144.398 178.237 143.74 178.535 142.89C178.834 142.039 178.983 141.055 178.983 139.939C178.983 138.829 178.834 137.851 178.535 137.006C178.237 136.155 177.82 135.497 177.284 135.033C176.754 134.564 176.143 134.326 175.453 134.32C174.762 134.326 174.146 134.564 173.604 135.033C173.069 135.497 172.651 136.155 172.353 137.006C172.055 137.851 171.906 138.829 171.906 139.939ZM196.195 137.486C196.195 138.608 196.377 139.71 196.742 140.793C197.112 141.876 197.64 142.856 198.325 143.735C199.01 144.608 199.814 145.293 200.736 145.79L199.675 147.166C198.659 146.608 197.78 145.823 197.04 144.812C196.3 143.796 195.736 142.644 195.349 141.356C194.968 142.732 194.407 143.97 193.667 145.069C192.927 146.163 192.051 147.017 191.04 147.63L189.93 146.238C190.852 145.702 191.653 144.97 192.333 144.041C193.012 143.108 193.535 142.072 193.899 140.934C194.264 139.79 194.449 138.641 194.454 137.486V136.459H190.493V134.934H194.454V131.834H196.211V134.934H200.106V136.459H196.195V137.486ZM198.664 139.293H201.946V131.569H203.686V150.812H201.946V140.851H198.664V139.293ZM206.14 131.072H207.896V151.906H206.14V131.072ZM226.965 139.657H230.445V141.199H226.965V151.906H225.141V131.072H226.965V139.657ZM210.721 134.42H216.075V131.32H217.915V134.42H223.119V135.945H210.721V134.42ZM211.915 142.459C211.909 141.536 212.125 140.71 212.561 139.981C212.998 139.251 213.605 138.685 214.384 138.282C215.163 137.873 216.042 137.669 217.02 137.669C217.992 137.669 218.865 137.873 219.639 138.282C220.412 138.685 221.017 139.251 221.454 139.981C221.896 140.704 222.119 141.53 222.125 142.459C222.119 143.387 221.896 144.213 221.454 144.936C221.017 145.66 220.412 146.224 219.639 146.627C218.865 147.03 217.992 147.232 217.02 147.232C216.042 147.232 215.163 147.03 214.384 146.627C213.605 146.224 212.998 145.66 212.561 144.936C212.125 144.207 211.909 143.381 211.915 142.459ZM213.672 142.459C213.666 143.077 213.807 143.633 214.094 144.124C214.382 144.616 214.779 145 215.288 145.276C215.802 145.547 216.379 145.68 217.02 145.674C217.655 145.68 218.224 145.547 218.727 145.276C219.235 145 219.633 144.616 219.92 144.124C220.213 143.633 220.362 143.077 220.368 142.459C220.362 141.84 220.213 141.285 219.92 140.793C219.633 140.296 219.235 139.909 218.727 139.633C218.224 139.351 217.655 139.21 217.02 139.21C216.379 139.21 215.802 139.351 215.288 139.633C214.779 139.909 214.382 140.296 214.094 140.793C213.807 141.285 213.666 141.84 213.672 142.459ZM238.989 136.674C238.983 137.906 239.234 139.13 239.743 140.345C240.251 141.561 240.936 142.641 241.798 143.586C242.665 144.525 243.607 145.227 244.624 145.691L243.497 147.149C242.712 146.762 241.969 146.243 241.268 145.591C240.566 144.934 239.942 144.174 239.395 143.312C238.848 142.45 238.411 141.53 238.085 140.552C237.765 141.591 237.331 142.569 236.784 143.486C236.243 144.398 235.616 145.204 234.903 145.906C234.19 146.608 233.431 147.16 232.624 147.564L231.464 146.022C232.491 145.547 233.439 144.823 234.306 143.851C235.174 142.873 235.861 141.754 236.37 140.494C236.884 139.235 237.143 137.961 237.149 136.674V132.878H238.989V136.674ZM246.911 131.072H248.751V151.939H246.911V131.072ZM261.554 132.613C261.554 134.199 261.264 135.669 260.684 137.022H264.073V131.536H265.83V142.807H264.073V138.53H259.872C258.518 140.624 256.388 142.293 253.482 143.536L252.537 142.16C254.675 141.287 256.349 140.171 257.559 138.812C258.769 137.453 259.471 135.895 259.664 134.138H253.416V132.613H261.554ZM253.565 150.464C254.416 150.16 255.162 149.727 255.803 149.163C256.449 148.599 256.946 147.975 257.294 147.29C257.648 146.599 257.825 145.917 257.825 145.243V143.834H259.582V145.243C259.576 145.878 259.684 146.506 259.905 147.124C260.126 147.738 260.457 148.312 260.899 148.848C261.347 149.378 261.891 149.829 262.532 150.199C263.173 149.801 263.72 149.318 264.173 148.749C264.626 148.18 264.968 147.591 265.2 146.983C265.438 146.37 265.559 145.79 265.565 145.243V143.834H267.355V145.243C267.349 145.967 267.515 146.674 267.852 147.365C268.195 148.055 268.687 148.674 269.327 149.221C269.974 149.762 270.731 150.177 271.598 150.464L270.687 151.84C269.67 151.475 268.797 150.948 268.068 150.257C267.344 149.566 266.797 148.768 266.427 147.862C266.084 148.768 265.59 149.586 264.943 150.315C264.297 151.05 263.51 151.613 262.582 152.006C261.604 151.624 260.786 151.077 260.128 150.365C259.477 149.652 258.99 148.831 258.67 147.903C258.289 148.776 257.739 149.558 257.021 150.249C256.308 150.939 255.466 151.47 254.493 151.84L253.565 150.464ZM268.267 131.088H270.007V143.138H268.267V131.088ZM277.307 146.006H287.716V143.569H289.572V151.624H275.484V143.569H277.307V146.006ZM273.064 140.569H292.059V142.11H273.064V140.569ZM274.141 137.635C275.401 137.459 276.605 137.113 277.755 136.599C278.904 136.08 279.835 135.445 280.547 134.693C281.26 133.936 281.617 133.133 281.617 132.282V131.304H283.506V132.282C283.506 133.105 283.865 133.898 284.583 134.66C285.307 135.423 286.244 136.069 287.393 136.599C288.542 137.13 289.733 137.475 290.965 137.635L290.285 139.094C289.197 138.934 288.144 138.649 287.128 138.24C286.111 137.826 285.202 137.312 284.401 136.699C283.605 136.08 282.995 135.395 282.57 134.644C282.139 135.406 281.523 136.094 280.722 136.707C279.92 137.32 279.012 137.831 277.995 138.24C276.978 138.649 275.926 138.934 274.838 139.094L274.141 137.635ZM287.716 150.133V147.464H277.307V150.133H287.716ZM310.978 151.906H309.154V131.072H310.978V151.906ZM295.165 133.127H296.972V144.928C298.668 144.923 300.334 144.845 301.969 144.696C303.61 144.541 305.265 144.287 306.933 143.934L307.182 145.508C305.403 145.873 303.674 146.135 301.994 146.296C300.32 146.456 298.607 146.536 296.856 146.536H295.165V133.127ZM331.04 139.674H334.206V141.215H331.04V151.906H329.2V131.072H331.04V139.674ZM314.466 146.138C315.974 144.602 317.095 142.892 317.83 141.008C318.571 139.124 318.999 137.083 319.115 134.884H315.129V133.343H320.863C320.852 136.061 320.474 138.58 319.728 140.901C318.988 143.215 317.731 145.309 315.957 147.182L314.466 146.138ZM320.449 147.547C321.963 145.84 323.051 143.917 323.714 141.779C324.383 139.641 324.767 137.343 324.866 134.884H321.526V133.343H326.598C326.593 135.227 326.463 137.03 326.209 138.754C325.96 140.478 325.493 142.191 324.808 143.892C324.129 145.588 323.178 147.149 321.957 148.575L320.449 147.547ZM338.606 145.11C338.617 144.099 338.722 143.282 338.92 142.657C339.125 142.028 339.407 141.525 339.766 141.149C340.125 140.768 340.606 140.392 341.208 140.022C341.733 139.702 342.15 139.304 342.459 138.829C342.774 138.354 342.932 137.807 342.932 137.188C342.932 136.663 342.807 136.204 342.559 135.812C342.315 135.414 341.981 135.108 341.556 134.892C341.13 134.677 340.661 134.569 340.147 134.569C339.677 134.569 339.235 134.666 338.821 134.859C338.412 135.052 338.072 135.354 337.802 135.762C337.531 136.166 337.373 136.674 337.329 137.287H335.191C335.23 136.365 335.47 135.566 335.912 134.892C336.36 134.213 336.951 133.693 337.686 133.334C338.426 132.975 339.246 132.796 340.147 132.796C341.108 132.796 341.954 132.989 342.683 133.376C343.418 133.757 343.984 134.287 344.382 134.967C344.785 135.646 344.987 136.414 344.987 137.271C344.987 138.166 344.788 138.942 344.39 139.599C343.992 140.257 343.418 140.818 342.666 141.282C342.164 141.591 341.769 141.909 341.481 142.235C341.199 142.561 340.992 142.95 340.86 143.403C340.727 143.856 340.655 144.425 340.644 145.11V145.21H338.606V145.11ZM338.191 148.624C338.186 148.354 338.249 148.102 338.382 147.87C338.52 147.638 338.705 147.456 338.937 147.323C339.175 147.185 339.429 147.116 339.699 147.116C339.97 147.116 340.222 147.185 340.454 147.323C340.686 147.456 340.868 147.638 341.001 147.87C341.139 148.102 341.208 148.354 341.208 148.624C341.208 148.895 341.139 149.146 341.001 149.378C340.868 149.61 340.686 149.796 340.454 149.934C340.222 150.066 339.97 150.133 339.699 150.133C339.429 150.133 339.175 150.066 338.937 149.934C338.705 149.796 338.52 149.61 338.382 149.378C338.249 149.146 338.186 148.895 338.191 148.624Z" fill="#111827"/>
<mask id="path-11-inside-2_514_2984" fill="white">
<path d="M25 209H375V325H25V209Z"/>
</mask>
<path d="M375 324H25V326H375V324Z" fill="#D1D5DB" mask="url(#path-11-inside-2_514_2984)"/>
<path d="M38.2818 225.492H25.5635V224.464H31.2762V221.47H27.0663V214.365H28.2928V216.873H35.5083V214.365H36.7238V221.47H32.4917V224.464H38.2818V225.492ZM35.5083 220.464V217.878H28.2928V220.464H35.5083ZM51.248 227.271H50.0546V220.077H48.0436V226.541H46.8834V213.691H48.0436V219.039H50.0546V213.381H51.248V227.271ZM40.0878 215.072H41.3143V222.575C42.0657 222.571 42.8134 222.536 43.5574 222.47C44.3014 222.403 45.0712 222.291 45.8668 222.133L46.0104 223.215C45.097 223.381 44.2333 223.499 43.4193 223.569C42.609 223.635 41.7895 223.669 40.9607 223.669H40.0878V215.072ZM64.4463 218.586H54.9435V213.89H56.159V217.591H64.4463V218.586ZM53.1977 220.475H65.9159V221.47H53.1977V220.475ZM54.8551 222.884H56.0706V225.912H64.5347V226.928H54.8551V222.884ZM82.1133 215.149C82.1133 215.643 82.1059 216.076 82.0912 216.448C82.0801 216.82 82.047 217.243 81.9917 217.718C81.9401 218.193 81.8554 218.7 81.7376 219.238H83.7818V220.254H71.0635V219.238H80.5055C80.6271 218.696 80.7155 218.188 80.7707 217.713C80.8297 217.238 80.8646 216.816 80.8757 216.448C80.8904 216.079 80.8978 215.646 80.8978 215.149V215.138H72.6768V214.122H82.1133V215.149ZM72.6326 222.166H82.1685V227.083H72.6326V222.166ZM80.953 226.077V223.138H73.837V226.077H80.953ZM88.2176 214.254C88.8217 214.254 89.365 214.394 89.8475 214.674C90.3337 214.95 90.713 215.339 90.9856 215.84C91.2618 216.337 91.3999 216.902 91.3999 217.536C91.3999 218.169 91.2618 218.733 90.9856 219.227C90.713 219.72 90.3355 220.103 89.853 220.376C89.3705 220.648 88.8254 220.785 88.2176 220.785C87.6025 220.785 87.0537 220.648 86.5712 220.376C86.0887 220.103 85.713 219.72 85.4441 219.227C85.1753 218.733 85.0427 218.169 85.0464 217.536C85.0427 216.899 85.1753 216.331 85.4441 215.834C85.7167 215.337 86.0942 214.95 86.5767 214.674C87.0592 214.394 87.6062 214.254 88.2176 214.254ZM86.1513 217.536C86.1476 217.956 86.2342 218.335 86.411 218.674C86.5915 219.013 86.8383 219.278 87.1513 219.47C87.4681 219.657 87.8235 219.75 88.2176 219.746C88.6081 219.75 88.9598 219.657 89.2729 219.47C89.586 219.278 89.8309 219.015 90.0077 218.68C90.1882 218.341 90.2802 217.959 90.2839 217.536C90.2802 217.112 90.1882 216.731 90.0077 216.392C89.8309 216.053 89.586 215.79 89.2729 215.602C88.9598 215.411 88.6081 215.315 88.2176 215.315C87.8235 215.315 87.4681 215.411 87.1513 215.602C86.8383 215.79 86.5915 216.053 86.411 216.392C86.2342 216.731 86.1476 217.112 86.1513 217.536ZM87.3226 222.431H96.6817V227.271H95.4773V223.425H87.3226V222.431ZM92.516 213.657H93.6762V216.972H95.5215V213.392H96.6817V221.657H95.5215V217.978H93.6762V221.558H92.516V213.657Z" fill="#9CA3AF"/>
<path d="M299.693 227H298.102V215.924H298.028L294.932 217.975V216.384L298.102 214.271H299.693V227ZM307.25 227.174C306.314 227.174 305.512 226.919 304.845 226.41C304.182 225.896 303.674 225.15 303.322 224.172C302.974 223.194 302.8 222.015 302.8 220.635C302.8 219.268 302.976 218.095 303.328 217.117C303.681 216.135 304.19 215.387 304.857 214.874C305.524 214.356 306.322 214.097 307.25 214.097C308.178 214.097 308.976 214.356 309.643 214.874C310.31 215.387 310.82 216.135 311.172 217.117C311.524 218.095 311.701 219.268 311.701 220.635C311.701 222.015 311.524 223.194 311.172 224.172C310.824 225.15 310.317 225.896 309.649 226.41C308.987 226.919 308.187 227.174 307.25 227.174ZM304.341 220.635C304.341 221.725 304.455 222.655 304.683 223.426C304.911 224.193 305.243 224.775 305.678 225.173C306.113 225.57 306.637 225.769 307.25 225.769C307.864 225.769 308.388 225.57 308.823 225.173C309.258 224.775 309.589 224.193 309.817 223.426C310.045 222.655 310.159 221.725 310.159 220.635C310.159 219.546 310.043 218.615 309.811 217.845C309.583 217.07 309.252 216.481 308.817 216.079C308.382 215.677 307.859 215.477 307.25 215.477C306.641 215.477 306.119 215.677 305.684 216.079C305.249 216.481 304.915 217.07 304.683 217.845C304.455 218.615 304.341 219.546 304.341 220.635ZM317.973 227.174C317.037 227.174 316.235 226.919 315.568 226.41C314.905 225.896 314.397 225.15 314.045 224.172C313.697 223.194 313.523 222.015 313.523 220.635C313.523 219.268 313.699 218.095 314.051 217.117C314.403 216.135 314.913 215.387 315.58 214.874C316.247 214.356 317.045 214.097 317.973 214.097C318.901 214.097 319.699 214.356 320.366 214.874C321.033 215.387 321.543 216.135 321.895 217.117C322.247 218.095 322.423 219.268 322.423 220.635C322.423 222.015 322.247 223.194 321.895 224.172C321.547 225.15 321.039 225.896 320.372 226.41C319.709 226.919 318.909 227.174 317.973 227.174ZM315.064 220.635C315.064 221.725 315.178 222.655 315.406 223.426C315.634 224.193 315.965 224.775 316.4 225.173C316.836 225.57 317.36 225.769 317.973 225.769C318.586 225.769 319.11 225.57 319.545 225.173C319.981 224.775 320.312 224.193 320.54 223.426C320.768 222.655 320.882 221.725 320.882 220.635C320.882 219.546 320.766 218.615 320.534 217.845C320.306 217.07 319.974 216.481 319.539 216.079C319.104 215.677 318.582 215.477 317.973 215.477C317.364 215.477 316.842 215.677 316.407 216.079C315.972 216.481 315.638 217.07 315.406 217.845C315.178 218.615 315.064 219.546 315.064 220.635ZM324.738 230.593H323.433L324.403 225.807H326.093L324.738 230.593ZM332.457 227.174C331.521 227.174 330.719 226.919 330.052 226.41C329.389 225.896 328.881 225.15 328.529 224.172C328.181 223.194 328.007 222.015 328.007 220.635C328.007 219.268 328.183 218.095 328.535 217.117C328.888 216.135 329.397 215.387 330.064 214.874C330.732 214.356 331.529 214.097 332.457 214.097C333.386 214.097 334.183 214.356 334.85 214.874C335.517 215.387 336.027 216.135 336.379 217.117C336.732 218.095 336.908 219.268 336.908 220.635C336.908 222.015 336.732 223.194 336.379 224.172C336.031 225.15 335.524 225.896 334.857 226.41C334.194 226.919 333.394 227.174 332.457 227.174ZM329.549 220.635C329.549 221.725 329.662 222.655 329.89 223.426C330.118 224.193 330.45 224.775 330.885 225.173C331.32 225.57 331.844 225.769 332.457 225.769C333.071 225.769 333.595 225.57 334.03 225.173C334.465 224.775 334.796 224.193 335.024 223.426C335.252 222.655 335.366 221.725 335.366 220.635C335.366 219.546 335.25 218.615 335.018 217.845C334.79 217.07 334.459 216.481 334.024 216.079C333.589 215.677 333.066 215.477 332.457 215.477C331.848 215.477 331.326 215.677 330.891 216.079C330.456 216.481 330.122 217.07 329.89 217.845C329.662 218.615 329.549 219.546 329.549 220.635ZM343.18 227.174C342.244 227.174 341.442 226.919 340.775 226.41C340.112 225.896 339.604 225.15 339.252 224.172C338.904 223.194 338.73 222.015 338.73 220.635C338.73 219.268 338.906 218.095 339.258 217.117C339.61 216.135 340.12 215.387 340.787 214.874C341.454 214.356 342.252 214.097 343.18 214.097C344.108 214.097 344.906 214.356 345.573 214.874C346.24 215.387 346.75 216.135 347.102 217.117C347.454 218.095 347.63 219.268 347.63 220.635C347.63 222.015 347.454 223.194 347.102 224.172C346.754 225.15 346.246 225.896 345.579 226.41C344.916 226.919 344.116 227.174 343.18 227.174ZM340.271 220.635C340.271 221.725 340.385 222.655 340.613 223.426C340.841 224.193 341.172 224.775 341.607 225.173C342.043 225.57 342.567 225.769 343.18 225.769C343.793 225.769 344.317 225.57 344.753 225.173C345.188 224.775 345.519 224.193 345.747 223.426C345.975 222.655 346.089 221.725 346.089 220.635C346.089 219.546 345.973 218.615 345.741 217.845C345.513 217.07 345.181 216.481 344.746 216.079C344.311 215.677 343.789 215.477 343.18 215.477C342.571 215.477 342.049 215.677 341.614 216.079C341.179 216.481 340.845 217.07 340.613 217.845C340.385 218.615 340.271 219.546 340.271 220.635ZM353.903 227.174C352.966 227.174 352.164 226.919 351.497 226.41C350.834 225.896 350.327 225.15 349.974 224.172C349.626 223.194 349.452 222.015 349.452 220.635C349.452 219.268 349.628 218.095 349.981 217.117C350.333 216.135 350.843 215.387 351.51 214.874C352.177 214.356 352.974 214.097 353.903 214.097C354.831 214.097 355.628 214.356 356.296 214.874C356.963 215.387 357.472 216.135 357.825 217.117C358.177 218.095 358.353 219.268 358.353 220.635C358.353 222.015 358.177 223.194 357.825 224.172C357.477 225.15 356.969 225.896 356.302 226.41C355.639 226.919 354.839 227.174 353.903 227.174ZM350.994 220.635C350.994 221.725 351.108 222.655 351.336 223.426C351.564 224.193 351.895 224.775 352.33 225.173C352.765 225.57 353.289 225.769 353.903 225.769C354.516 225.769 355.04 225.57 355.475 225.173C355.91 224.775 356.242 224.193 356.47 223.426C356.698 222.655 356.811 221.725 356.811 220.635C356.811 219.546 356.695 218.615 356.463 217.845C356.236 217.07 355.904 216.481 355.469 216.079C355.034 215.677 354.512 215.477 353.903 215.477C353.294 215.477 352.771 215.677 352.336 216.079C351.901 216.481 351.568 217.07 351.336 217.845C351.108 218.615 350.994 219.546 350.994 220.635ZM372.78 224.688H371.388V223.059H368.168V222.052H371.388V212.816H372.78V224.688ZM359.815 220.051C361.878 220.043 363.72 220.012 365.34 219.958C366.964 219.9 368.512 219.778 369.983 219.591L370.082 220.598C368.786 220.805 367.352 220.956 365.781 221.052V224.141H364.402V221.12C363.337 221.162 362.123 221.182 360.759 221.182H360.001L359.815 220.051ZM361.07 216.173C361.07 215.634 361.232 215.16 361.555 214.749C361.878 214.335 362.334 214.016 362.922 213.792C363.511 213.564 364.186 213.45 364.949 213.45C365.703 213.45 366.372 213.564 366.956 213.792C367.54 214.016 367.994 214.335 368.317 214.749C368.645 215.16 368.81 215.634 368.815 216.173C368.81 216.72 368.645 217.198 368.317 217.608C367.994 218.015 367.54 218.329 366.956 218.553C366.376 218.773 365.707 218.883 364.949 218.883C364.182 218.883 363.504 218.773 362.916 218.553C362.332 218.334 361.878 218.019 361.555 217.608C361.232 217.198 361.07 216.72 361.07 216.173ZM362.065 223.519H363.444V226.938H373.165V228.081H362.065V223.519ZM362.388 216.173C362.384 216.508 362.487 216.802 362.699 217.055C362.914 217.308 363.216 217.505 363.606 217.646C363.995 217.782 364.443 217.851 364.949 217.851C365.437 217.851 365.875 217.782 366.26 217.646C366.645 217.505 366.946 217.308 367.161 217.055C367.381 216.802 367.493 216.508 367.497 216.173C367.493 215.841 367.381 215.549 367.161 215.296C366.946 215.039 366.645 214.84 366.26 214.7C365.875 214.559 365.437 214.49 364.949 214.494C364.443 214.49 363.995 214.559 363.606 214.7C363.216 214.84 362.914 215.039 362.699 215.296C362.487 215.549 362.384 215.841 362.388 216.173Z" fill="#111827"/>
<path d="M32.5359 246.674C32.5359 247.3 32.7772 247.899 33.2597 248.47C33.7459 249.041 34.3794 249.521 35.1602 249.912C35.9411 250.302 36.7532 250.556 37.5967 250.674L37.0994 251.68C36.3665 251.558 35.6575 251.346 34.9724 251.044C34.291 250.742 33.6814 250.366 33.1436 249.917C32.6059 249.464 32.1934 248.961 31.9061 248.409C31.6188 248.965 31.2063 249.47 30.6685 249.923C30.1344 250.372 29.5267 250.746 28.8453 251.044C28.1639 251.343 27.4567 251.554 26.7238 251.68L26.2155 250.674C27.0626 250.556 27.8748 250.304 28.6519 249.917C29.4291 249.53 30.0589 249.053 30.5414 248.486C31.0239 247.915 31.2652 247.311 31.2652 246.674V245.878H32.5359V246.674ZM25.5635 253.204H38.2265V254.232H32.4696V259.271H31.2652V254.232H25.5635V253.204ZM46.364 246.674C46.364 247.3 46.6053 247.899 47.0878 248.47C47.574 249.041 48.2075 249.521 48.9883 249.912C49.7692 250.302 50.5813 250.556 51.4248 250.674L50.9276 251.68C50.1946 251.558 49.4856 251.346 48.8005 251.044C48.1191 250.742 47.5095 250.366 46.9718 249.917C46.434 249.464 46.0215 248.961 45.7342 248.409C45.4469 248.965 45.0344 249.47 44.4966 249.923C43.9626 250.372 43.3548 250.746 42.6734 251.044C41.992 251.343 41.2848 251.554 40.5519 251.68L40.0436 250.674C40.8907 250.556 41.7029 250.304 42.4801 249.917C43.2572 249.53 43.8871 249.053 44.3696 248.486C44.8521 247.915 45.0933 247.311 45.0933 246.674V245.878H46.364V246.674ZM39.3917 253.204H52.0546V254.232H46.2977V259.271H45.0933V254.232H39.3917V253.204ZM65.938 257.547H53.2198V256.508H56.7999V253.878H54.8109V249.591H63.1203V247.425H54.7778V246.409H64.3358V250.608H56.0264V252.862H64.6562V253.878H62.4795V256.508H65.938V257.547ZM61.275 256.508V253.878H57.9933V256.508H61.275Z" fill="#9CA3AF"/>
<path d="M353.358 259.174C352.421 259.174 351.619 258.919 350.952 258.41C350.289 257.896 349.782 257.15 349.43 256.172C349.081 255.194 348.907 254.015 348.907 252.635C348.907 251.268 349.084 250.095 349.436 249.117C349.788 248.135 350.298 247.387 350.965 246.874C351.632 246.356 352.43 246.097 353.358 246.097C354.286 246.097 355.084 246.356 355.751 246.874C356.418 247.387 356.927 248.135 357.28 249.117C357.632 250.095 357.808 251.268 357.808 252.635C357.808 254.015 357.632 255.194 357.28 256.172C356.932 257.15 356.424 257.896 355.757 258.41C355.094 258.919 354.294 259.174 353.358 259.174ZM350.449 252.635C350.449 253.725 350.563 254.655 350.791 255.426C351.019 256.193 351.35 256.775 351.785 257.173C352.22 257.57 352.744 257.769 353.358 257.769C353.971 257.769 354.495 257.57 354.93 257.173C355.365 256.775 355.697 256.193 355.925 255.426C356.153 254.655 356.267 253.725 356.267 252.635C356.267 251.546 356.151 250.615 355.919 249.845C355.691 249.07 355.359 248.481 354.924 248.079C354.489 247.677 353.967 247.477 353.358 247.477C352.749 247.477 352.227 247.677 351.791 248.079C351.356 248.481 351.023 249.07 350.791 249.845C350.563 250.615 350.449 251.546 350.449 252.635ZM372.235 256.688H370.843V255.059H367.623V254.052H370.843V244.816H372.235V256.688ZM359.27 252.051C361.333 252.043 363.175 252.012 364.795 251.958C366.419 251.9 367.967 251.778 369.438 251.591L369.538 252.598C368.241 252.805 366.807 252.956 365.236 253.052V256.141H363.857V253.12C362.792 253.162 361.578 253.182 360.214 253.182H359.456L359.27 252.051ZM360.525 248.173C360.525 247.634 360.687 247.16 361.01 246.749C361.333 246.335 361.789 246.016 362.377 245.792C362.966 245.564 363.641 245.45 364.404 245.45C365.158 245.45 365.827 245.564 366.411 245.792C366.995 246.016 367.449 246.335 367.772 246.749C368.1 247.16 368.265 247.634 368.27 248.173C368.265 248.72 368.1 249.198 367.772 249.608C367.449 250.015 366.995 250.329 366.411 250.553C365.831 250.773 365.162 250.883 364.404 250.883C363.637 250.883 362.96 250.773 362.371 250.553C361.787 250.334 361.333 250.019 361.01 249.608C360.687 249.198 360.525 248.72 360.525 248.173ZM361.52 255.519H362.899V258.938H372.62V260.081H361.52V255.519ZM361.843 248.173C361.839 248.508 361.942 248.802 362.154 249.055C362.369 249.308 362.672 249.505 363.061 249.646C363.451 249.782 363.898 249.851 364.404 249.851C364.893 249.851 365.33 249.782 365.715 249.646C366.1 249.505 366.401 249.308 366.616 249.055C366.836 248.802 366.948 248.508 366.952 248.173C366.948 247.841 366.836 247.549 366.616 247.296C366.401 247.039 366.1 246.84 365.715 246.7C365.33 246.559 364.893 246.49 364.404 246.494C363.898 246.49 363.451 246.559 363.061 246.7C362.672 246.84 362.369 247.039 362.154 247.296C361.942 247.549 361.839 247.841 361.843 248.173Z" fill="#111827"/>
<path d="M37.0331 284.829H35.8066V277.381H37.0331V284.829ZM25.884 281.249C25.884 280.626 26.0405 280.072 26.3536 279.586C26.6667 279.099 27.0994 278.722 27.6519 278.453C28.2081 278.184 28.8343 278.052 29.5304 278.055C30.2265 278.052 30.8508 278.184 31.4033 278.453C31.9558 278.722 32.3867 279.099 32.6961 279.586C33.0092 280.072 33.1657 280.626 33.1657 281.249C33.1657 281.871 33.0092 282.424 32.6961 282.906C32.3867 283.389 31.9558 283.764 31.4033 284.033C30.8508 284.302 30.2265 284.435 29.5304 284.431C28.8343 284.435 28.2081 284.302 27.6519 284.033C27.0994 283.764 26.6667 283.389 26.3536 282.906C26.0405 282.42 25.884 281.867 25.884 281.249ZM27.0884 281.249C27.0847 281.665 27.186 282.039 27.3923 282.37C27.6022 282.698 27.8932 282.954 28.2652 283.138C28.6372 283.322 29.0589 283.414 29.5304 283.414C29.9982 283.414 30.4162 283.322 30.7845 283.138C31.1565 282.954 31.4475 282.698 31.6575 282.37C31.8674 282.039 31.9724 281.665 31.9724 281.249C31.9724 280.832 31.8674 280.46 31.6575 280.133C31.4475 279.801 31.1565 279.545 30.7845 279.365C30.4162 279.18 29.9982 279.09 29.5304 279.094C29.0589 279.09 28.6372 279.18 28.2652 279.365C27.8932 279.545 27.6022 279.801 27.3923 280.133C27.186 280.46 27.0847 280.832 27.0884 281.249ZM28.0387 285.536H29.2431V287.227H35.8177V285.536H37.0331V291.083H28.0387V285.536ZM35.8177 290.077V288.21H29.2431V290.077H35.8177ZM50.4414 279.149C50.4414 279.643 50.434 280.076 50.4193 280.448C50.4082 280.82 50.3751 281.243 50.3198 281.718C50.2683 282.193 50.1836 282.7 50.0657 283.238H52.1099V284.254H39.3917V283.238H48.8337C48.9552 282.696 49.0436 282.188 49.0988 281.713C49.1578 281.238 49.1928 280.816 49.2038 280.448C49.2185 280.079 49.2259 279.646 49.2259 279.149V279.138H41.0049V278.122H50.4414V279.149ZM40.9607 286.166H50.4966V291.083H40.9607V286.166ZM49.2812 290.077V287.138H42.1651V290.077H49.2812ZM65.1093 291.271H63.938V277.381H65.1093V291.271ZM53.2087 287.381C54.6857 286.505 55.8183 285.457 56.6065 284.238C57.3984 283.015 57.857 281.661 57.9822 280.177H53.8275V279.149H59.1977C59.1977 279.875 59.1351 280.575 59.0098 281.249H61.1203V277.757H62.3027V290.564H61.1203V285.746H58.5458V284.729H61.1203V282.265H58.7723C58.4224 283.481 57.8496 284.595 57.054 285.608C56.2621 286.617 55.2272 287.503 53.9491 288.265L53.2087 287.381ZM71.9208 279.867C71.9172 280.449 72.0608 281.006 72.3518 281.536C72.6464 282.063 73.0553 282.525 73.5783 282.923C74.105 283.317 74.7054 283.617 75.3794 283.823L74.7938 284.796C73.9871 284.541 73.28 284.157 72.6722 283.641C72.0682 283.125 71.6151 282.519 71.3131 281.823C71.0074 282.575 70.5433 283.228 69.9208 283.785C69.3021 284.337 68.5765 284.751 67.744 285.028L67.1142 284.055C67.8103 283.838 68.4273 283.521 68.965 283.105C69.5028 282.689 69.9227 282.203 70.2247 281.646C70.5267 281.087 70.6796 280.494 70.6833 279.867V279.702H67.5341V278.674H75.0479V279.702H71.9208V279.867ZM66.8711 287.326C68.5028 287.326 69.7772 287.313 70.6943 287.287V284.453H71.9208V287.243C73.3941 287.173 74.6428 287.064 75.6667 286.917L75.7551 287.823C74.8343 287.985 73.8711 288.105 72.8656 288.182C71.8601 288.26 70.9245 288.308 70.059 288.326C69.1971 288.344 68.1971 288.354 67.059 288.354L66.8711 287.326ZM76.5617 277.381H77.7772V283.149H80.0424V284.199H77.7772V291.271H76.5617V277.381Z" fill="#9CA3AF"/>
<path d="M173.66 280.421H177.141V277.985H178.434V285.17H172.355V277.985H173.66V280.421ZM177.141 284.051V281.528H173.66V284.051H177.141ZM174.493 289.583C174.489 288.99 174.696 288.483 175.115 288.06C175.537 287.637 176.142 287.316 176.93 287.097C177.721 286.873 178.657 286.761 179.739 286.761C180.812 286.761 181.742 286.873 182.53 287.097C183.321 287.316 183.928 287.64 184.351 288.066C184.773 288.489 184.985 288.994 184.985 289.583C184.985 290.167 184.773 290.671 184.351 291.093C183.928 291.516 183.321 291.837 182.53 292.057C181.742 292.28 180.812 292.392 179.739 292.392C178.657 292.392 177.721 292.28 176.93 292.057C176.142 291.837 175.537 291.516 175.115 291.093C174.696 290.675 174.489 290.171 174.493 289.583ZM175.86 289.583C175.856 289.939 176.01 290.246 176.32 290.503C176.635 290.76 177.085 290.956 177.669 291.093C178.253 291.23 178.943 291.298 179.739 291.298C180.526 291.298 181.21 291.23 181.79 291.093C182.374 290.956 182.824 290.76 183.139 290.503C183.454 290.246 183.613 289.939 183.617 289.583C183.613 289.222 183.454 288.912 183.139 288.651C182.824 288.39 182.374 288.191 181.79 288.054C181.21 287.913 180.526 287.843 179.739 287.843C178.943 287.843 178.253 287.913 177.669 288.054C177.085 288.191 176.635 288.39 176.32 288.651C176.01 288.912 175.856 289.222 175.86 289.583ZM180.211 277.115H181.504V280.981H183.593V276.816H184.898V286.388H183.593V282.124H181.504V285.916H180.211V277.115ZM195.507 277.885C195.499 279.916 194.892 281.64 193.686 283.057C192.48 284.474 190.642 285.547 188.173 286.276L187.651 285.145C190.224 284.412 192.024 283.291 193.052 281.782L187.762 282.186L187.526 281.043L193.605 280.769C193.829 280.222 193.97 279.634 194.028 279.004H188.309V277.885H195.507ZM189.615 289.409C189.615 288.783 189.826 288.247 190.249 287.799C190.675 287.352 191.287 287.012 192.082 286.78C192.878 286.544 193.82 286.425 194.91 286.425C195.983 286.425 196.916 286.544 197.707 286.78C198.499 287.016 199.106 287.358 199.528 287.805C199.955 288.253 200.169 288.787 200.169 289.409C200.169 290.035 199.955 290.571 199.528 291.019C199.106 291.466 198.499 291.806 197.707 292.038C196.92 292.274 195.988 292.392 194.91 292.392C193.816 292.392 192.872 292.274 192.076 292.038C191.285 291.806 190.675 291.466 190.249 291.019C189.826 290.571 189.615 290.035 189.615 289.409ZM190.994 289.409C190.994 289.794 191.152 290.13 191.467 290.416C191.782 290.702 192.233 290.919 192.822 291.068C193.41 291.222 194.106 291.298 194.91 291.298C195.702 291.298 196.39 291.222 196.974 291.068C197.558 290.915 198.008 290.698 198.323 290.416C198.642 290.13 198.801 289.794 198.801 289.409C198.801 289.023 198.642 288.69 198.323 288.408C198.008 288.122 197.558 287.903 196.974 287.749C196.39 287.596 195.702 287.519 194.91 287.519C194.106 287.519 193.41 287.596 192.822 287.749C192.233 287.898 191.782 288.116 191.467 288.402C191.152 288.688 190.994 289.023 190.994 289.409ZM198.714 276.816H200.094V286.214H198.714V276.816ZM216.993 286.164H202.747V285.046H216.993V286.164ZM204.326 280.446C204.326 279.804 204.55 279.249 204.997 278.78C205.449 278.312 206.091 277.956 206.924 277.711C207.757 277.467 208.735 277.347 209.858 277.351C210.977 277.347 211.95 277.467 212.779 277.711C213.612 277.956 214.252 278.312 214.7 278.78C215.151 279.249 215.377 279.804 215.377 280.446C215.377 281.088 215.151 281.646 214.7 282.118C214.252 282.586 213.612 282.945 212.779 283.193C211.95 283.442 210.977 283.566 209.858 283.566C208.735 283.566 207.757 283.442 206.924 283.193C206.091 282.945 205.449 282.586 204.997 282.118C204.55 281.646 204.326 281.088 204.326 280.446ZM204.587 287.544H205.979V290.938H215.402V292.081H204.587V287.544ZM205.756 280.446C205.751 280.856 205.915 281.211 206.247 281.509C206.582 281.807 207.059 282.037 207.676 282.199C208.298 282.356 209.025 282.435 209.858 282.435C210.691 282.435 211.416 282.356 212.033 282.199C212.655 282.037 213.133 281.807 213.469 281.509C213.805 281.211 213.972 280.856 213.972 280.446C213.972 280.044 213.805 279.694 213.469 279.396C213.133 279.097 212.655 278.869 212.033 278.712C211.416 278.55 210.691 278.47 209.858 278.47C209.025 278.47 208.298 278.55 207.676 278.712C207.059 278.869 206.582 279.097 206.247 279.396C205.915 279.694 205.751 280.044 205.756 280.446ZM231.568 286.699H230.262V282.211H228.162V286.14H226.869V277.115H228.162V281.068H230.262V276.804H231.568V286.699ZM218.217 278.681H221.561V276.916H222.928V278.681H226.235V279.787H218.217V278.681ZM218.901 283.293C218.896 282.758 219.035 282.29 219.317 281.888C219.599 281.482 219.992 281.169 220.498 280.95C221.003 280.73 221.582 280.62 222.232 280.62C222.891 280.62 223.473 280.73 223.979 280.95C224.488 281.169 224.884 281.482 225.166 281.888C225.452 282.29 225.597 282.758 225.601 283.293C225.597 283.823 225.452 284.289 225.166 284.691C224.884 285.093 224.488 285.404 223.979 285.624C223.473 285.843 222.891 285.953 222.232 285.953C221.582 285.953 221.003 285.843 220.498 285.624C219.992 285.404 219.599 285.093 219.317 284.691C219.035 284.289 218.896 283.823 218.901 283.293ZM220.131 283.293C220.131 283.612 220.218 283.896 220.392 284.144C220.57 284.389 220.819 284.579 221.138 284.716C221.457 284.853 221.822 284.921 222.232 284.921C222.646 284.921 223.013 284.853 223.332 284.716C223.651 284.579 223.9 284.389 224.078 284.144C224.256 283.896 224.345 283.612 224.345 283.293C224.345 282.97 224.256 282.684 224.078 282.435C223.9 282.186 223.651 281.994 223.332 281.857C223.013 281.72 222.646 281.652 222.232 281.652C221.822 281.652 221.457 281.72 221.138 281.857C220.819 281.994 220.57 282.186 220.392 282.435C220.218 282.684 220.131 282.97 220.131 283.293ZM221.163 289.695C221.159 289.115 221.364 288.622 221.778 288.215C222.197 287.805 222.798 287.494 223.581 287.283C224.368 287.068 225.311 286.96 226.409 286.96C227.503 286.96 228.441 287.068 229.224 287.283C230.012 287.494 230.613 287.805 231.027 288.215C231.445 288.622 231.655 289.115 231.655 289.695C231.655 290.262 231.445 290.747 231.027 291.149C230.613 291.555 230.012 291.864 229.224 292.075C228.437 292.287 227.499 292.392 226.409 292.392C225.315 292.392 224.374 292.287 223.587 292.075C222.8 291.864 222.197 291.555 221.778 291.149C221.364 290.747 221.159 290.262 221.163 289.695ZM222.53 289.695C222.526 290.03 222.678 290.32 222.984 290.565C223.295 290.809 223.74 290.996 224.32 291.124C224.905 291.253 225.601 291.315 226.409 291.311C227.213 291.315 227.905 291.253 228.485 291.124C229.065 290.996 229.508 290.811 229.815 290.571C230.126 290.327 230.283 290.035 230.287 289.695C230.283 289.343 230.126 289.042 229.815 288.794C229.508 288.545 229.065 288.356 228.485 288.228C227.905 288.099 227.213 288.037 226.409 288.041C225.597 288.037 224.899 288.099 224.314 288.228C223.734 288.356 223.291 288.545 222.984 288.794C222.678 289.042 222.526 289.343 222.53 289.695ZM238.627 287.097L244.357 278.271H246.297V287.01H248.087V288.402H246.297V291H244.792V288.402H238.627V287.097ZM244.792 287.01V280.272H244.643L240.33 286.91V287.01H244.792ZM254.322 291.174C253.564 291.174 252.876 291.029 252.258 290.739C251.641 290.449 251.148 290.049 250.779 289.539C250.414 289.026 250.216 288.448 250.182 287.805H251.724C251.761 288.178 251.898 288.516 252.134 288.818C252.374 289.117 252.685 289.353 253.066 289.527C253.452 289.697 253.87 289.782 254.322 289.782C254.865 289.782 255.352 289.66 255.783 289.415C256.218 289.171 256.557 288.835 256.802 288.408C257.046 287.981 257.169 287.503 257.169 286.972C257.169 286.43 257.04 285.941 256.783 285.506C256.53 285.066 256.178 284.722 255.727 284.474C255.279 284.221 254.774 284.093 254.21 284.088C253.075 284.076 252.283 284.457 251.836 285.232H250.307L251.202 278.271H258.101V279.675H252.519L252.047 283.405H252.184C252.47 283.181 252.816 283.003 253.222 282.87C253.632 282.738 254.057 282.671 254.496 282.671C255.296 282.671 256.015 282.856 256.653 283.224C257.295 283.589 257.798 284.097 258.163 284.747C258.528 285.394 258.71 286.123 258.71 286.935C258.71 287.743 258.521 288.47 258.144 289.117C257.767 289.759 257.245 290.262 256.578 290.627C255.911 290.992 255.159 291.174 254.322 291.174ZM265.385 291.174C264.565 291.174 263.802 290.99 263.098 290.621C262.398 290.248 261.822 289.612 261.37 288.713C260.923 287.809 260.699 286.612 260.699 285.12C260.699 283.637 260.894 282.369 261.283 281.316C261.673 280.264 262.23 279.464 262.955 278.917C263.68 278.37 264.54 278.097 265.534 278.097C266.268 278.097 266.927 278.24 267.511 278.526C268.099 278.807 268.578 279.203 268.947 279.713C269.316 280.218 269.554 280.802 269.662 281.465H268.095C267.946 280.877 267.652 280.403 267.213 280.042C266.773 279.682 266.214 279.501 265.534 279.501C264.842 279.501 264.246 279.694 263.744 280.079C263.243 280.461 262.858 281.016 262.588 281.745C262.323 282.474 262.191 283.347 262.191 284.362H262.352C262.721 283.823 263.187 283.407 263.751 283.113C264.318 282.818 264.942 282.671 265.621 282.671C266.371 282.671 267.063 282.854 267.697 283.218C268.331 283.579 268.835 284.08 269.208 284.722C269.585 285.365 269.773 286.086 269.773 286.885C269.773 287.681 269.591 288.406 269.226 289.061C268.862 289.711 268.346 290.227 267.679 290.608C267.016 290.985 266.251 291.174 265.385 291.174ZM262.414 286.923C262.414 287.42 262.541 287.888 262.793 288.327C263.046 288.767 263.394 289.119 263.838 289.384C264.285 289.649 264.784 289.782 265.336 289.782C265.874 289.782 266.365 289.653 266.809 289.396C267.252 289.14 267.6 288.791 267.853 288.352C268.11 287.909 268.24 287.424 268.244 286.898C268.24 286.384 268.114 285.912 267.865 285.481C267.621 285.046 267.281 284.702 266.846 284.449C266.411 284.192 265.924 284.064 265.385 284.064C264.842 284.064 264.343 284.196 263.887 284.461C263.436 284.727 263.077 285.079 262.812 285.518C262.551 285.957 262.418 286.425 262.414 286.923ZM278.19 279.775V279.675H271.464V278.271H279.83V279.75L274.013 291H272.347L278.19 279.775ZM285.899 291.174C285.016 291.174 284.231 291.023 283.543 290.72C282.855 290.418 282.321 289.997 281.939 289.459C281.558 288.916 281.37 288.302 281.374 287.619C281.37 287.084 281.481 286.585 281.709 286.121C281.937 285.653 282.248 285.267 282.642 284.965C283.039 284.658 283.479 284.465 283.959 284.387V284.325C283.545 284.225 283.178 284.039 282.859 283.765C282.54 283.492 282.294 283.156 282.12 282.758C281.946 282.36 281.859 281.934 281.859 281.478C281.859 280.836 282.033 280.258 282.381 279.744C282.729 279.23 283.209 278.828 283.823 278.538C284.44 278.244 285.132 278.097 285.899 278.097C286.661 278.097 287.347 278.244 287.956 278.538C288.569 278.828 289.05 279.23 289.398 279.744C289.746 280.258 289.922 280.836 289.926 281.478C289.922 281.934 289.831 282.36 289.653 282.758C289.479 283.156 289.232 283.492 288.913 283.765C288.598 284.039 288.236 284.225 287.825 284.325V284.387C288.302 284.465 288.737 284.658 289.131 284.965C289.528 285.267 289.841 285.653 290.069 286.121C290.301 286.585 290.419 287.084 290.423 287.619C290.419 288.302 290.225 288.916 289.839 289.459C289.454 289.997 288.917 290.418 288.229 290.72C287.546 291.023 286.769 291.174 285.899 291.174ZM282.952 287.532C282.944 287.979 283.058 288.373 283.294 288.713C283.53 289.048 283.872 289.311 284.32 289.502C284.767 289.689 285.294 289.782 285.899 289.782C286.495 289.782 287.015 289.689 287.459 289.502C287.902 289.311 288.244 289.048 288.484 288.713C288.725 288.373 288.845 287.979 288.845 287.532C288.845 287.068 288.716 286.651 288.459 286.282C288.207 285.914 287.856 285.624 287.409 285.412C286.961 285.201 286.458 285.095 285.899 285.095C285.335 285.095 284.827 285.201 284.376 285.412C283.924 285.624 283.572 285.916 283.319 286.289C283.066 286.657 282.944 287.072 282.952 287.532ZM283.4 281.59C283.4 282.017 283.506 282.394 283.717 282.721C283.928 283.048 284.222 283.303 284.6 283.485C284.981 283.664 285.414 283.753 285.899 283.753C286.375 283.753 286.802 283.664 287.179 283.485C287.556 283.303 287.85 283.048 288.062 282.721C288.277 282.39 288.385 282.012 288.385 281.59C288.385 281.171 288.279 280.802 288.068 280.483C287.861 280.16 287.568 279.91 287.191 279.731C286.818 279.553 286.388 279.464 285.899 279.464C285.401 279.464 284.962 279.553 284.581 279.731C284.204 279.91 283.912 280.16 283.705 280.483C283.501 280.802 283.4 281.171 283.4 281.59ZM296.74 278.097C297.556 278.097 298.315 278.283 299.015 278.656C299.715 279.029 300.289 279.665 300.737 280.564C301.188 281.459 301.414 282.646 301.414 284.126C301.414 285.617 301.219 286.892 300.83 287.948C300.44 289.001 299.883 289.802 299.158 290.354C298.433 290.901 297.573 291.174 296.578 291.174C295.845 291.174 295.184 291.033 294.596 290.751C294.007 290.47 293.527 290.074 293.154 289.564C292.785 289.05 292.547 288.456 292.439 287.78H294.005C294.154 288.381 294.449 288.864 294.888 289.229C295.331 289.589 295.895 289.769 296.578 289.769C297.266 289.769 297.861 289.577 298.362 289.191C298.868 288.806 299.255 288.249 299.525 287.519C299.794 286.786 299.931 285.907 299.935 284.884H299.761C299.392 285.419 298.924 285.835 298.356 286.133C297.793 286.427 297.175 286.575 296.504 286.575C295.75 286.575 295.054 286.394 294.415 286.034C293.781 285.669 293.276 285.166 292.899 284.523C292.526 283.881 292.339 283.16 292.339 282.36C292.339 281.577 292.52 280.86 292.88 280.21C293.245 279.559 293.761 279.046 294.428 278.669C295.099 278.287 295.87 278.097 296.74 278.097ZM293.881 282.348C293.881 282.87 294.003 283.349 294.248 283.784C294.496 284.215 294.838 284.557 295.273 284.809C295.708 285.058 296.197 285.182 296.74 285.182C297.279 285.182 297.772 285.05 298.219 284.785C298.671 284.515 299.027 284.161 299.288 283.722C299.554 283.282 299.686 282.816 299.686 282.323C299.686 281.834 299.56 281.372 299.307 280.937C299.054 280.502 298.706 280.152 298.263 279.887C297.824 279.622 297.333 279.489 296.79 279.489C296.247 279.489 295.752 279.617 295.304 279.874C294.861 280.131 294.511 280.479 294.254 280.919C294.001 281.354 293.877 281.83 293.881 282.348ZM307.754 291.174C306.818 291.174 306.016 290.919 305.349 290.41C304.686 289.896 304.178 289.15 303.826 288.172C303.478 287.194 303.304 286.015 303.304 284.635C303.304 283.268 303.48 282.095 303.832 281.117C304.184 280.135 304.694 279.387 305.361 278.874C306.028 278.356 306.826 278.097 307.754 278.097C308.682 278.097 309.48 278.356 310.147 278.874C310.814 279.387 311.324 280.135 311.676 281.117C312.028 282.095 312.204 283.268 312.204 284.635C312.204 286.015 312.028 287.194 311.676 288.172C311.328 289.15 310.821 289.896 310.153 290.41C309.49 290.919 308.691 291.174 307.754 291.174ZM304.845 284.635C304.845 285.725 304.959 286.655 305.187 287.426C305.415 288.193 305.747 288.775 306.182 289.173C306.617 289.57 307.141 289.769 307.754 289.769C308.367 289.769 308.892 289.57 309.327 289.173C309.762 288.775 310.093 288.193 310.321 287.426C310.549 286.655 310.663 285.725 310.663 284.635C310.663 283.546 310.547 282.615 310.315 281.845C310.087 281.07 309.756 280.481 309.321 280.079C308.885 279.677 308.363 279.477 307.754 279.477C307.145 279.477 306.623 279.677 306.188 280.079C305.753 280.481 305.419 281.07 305.187 281.845C304.959 282.615 304.845 283.546 304.845 284.635ZM318.813 291H317.221V279.924H317.147L314.051 281.975V280.384L317.221 278.271H318.813V291ZM322.193 289.844L326.531 285.269C327.103 284.66 327.538 284.171 327.836 283.802C328.139 283.43 328.369 283.071 328.526 282.727C328.684 282.379 328.764 282.017 328.769 281.64C328.764 281.209 328.651 280.829 328.427 280.502C328.207 280.175 327.905 279.922 327.519 279.744C327.138 279.566 326.709 279.477 326.233 279.477C325.735 279.477 325.298 279.576 324.921 279.775C324.548 279.974 324.26 280.253 324.057 280.614C323.858 280.974 323.759 281.391 323.759 281.863H322.255C322.251 281.126 322.423 280.473 322.771 279.905C323.123 279.334 323.606 278.89 324.219 278.575C324.832 278.256 325.52 278.097 326.282 278.097C327.037 278.097 327.714 278.254 328.315 278.569C328.92 278.88 329.392 279.305 329.732 279.843C330.072 280.382 330.244 280.981 330.248 281.64C330.244 282.124 330.153 282.588 329.974 283.032C329.8 283.471 329.504 283.96 329.086 284.499C328.671 285.037 328.081 285.7 327.314 286.488L324.405 289.496V289.595H330.472V291H322.205L322.193 289.844ZM337.17 291.174C336.333 291.174 335.583 291.033 334.92 290.751C334.257 290.47 333.733 290.074 333.348 289.564C332.966 289.055 332.761 288.468 332.732 287.805H334.336C334.365 288.199 334.506 288.545 334.758 288.843C335.011 289.137 335.345 289.365 335.759 289.527C336.178 289.689 336.64 289.769 337.145 289.769C337.7 289.769 338.198 289.676 338.637 289.49C339.076 289.299 339.42 289.034 339.669 288.694C339.917 288.354 340.042 287.967 340.042 287.532C340.042 287.068 339.919 286.657 339.675 286.301C339.435 285.945 339.082 285.667 338.618 285.468C338.154 285.269 337.597 285.17 336.946 285.17H335.915V283.778H336.946C337.46 283.778 337.916 283.686 338.314 283.504C338.716 283.322 339.026 283.067 339.246 282.74C339.47 282.408 339.582 282.025 339.582 281.59C339.582 281.171 339.484 280.802 339.29 280.483C339.095 280.164 338.817 279.918 338.457 279.744C338.096 279.566 337.676 279.477 337.195 279.477C336.739 279.477 336.31 279.557 335.908 279.719C335.511 279.881 335.187 280.113 334.939 280.415C334.69 280.713 334.555 281.064 334.535 281.465H333.006C333.031 280.811 333.234 280.229 333.615 279.719C333.996 279.205 334.504 278.807 335.138 278.526C335.772 278.24 336.466 278.097 337.22 278.097C338.003 278.097 338.689 278.252 339.277 278.563C339.87 278.874 340.323 279.29 340.638 279.812C340.957 280.334 341.115 280.902 341.111 281.515C341.115 281.988 341.03 282.419 340.856 282.808C340.682 283.198 340.431 283.527 340.104 283.796C339.776 284.066 339.391 284.262 338.948 284.387V284.486C339.495 284.569 339.967 284.749 340.365 285.027C340.767 285.3 341.073 285.655 341.285 286.09C341.496 286.521 341.6 287.006 341.596 287.544C341.6 288.228 341.409 288.847 341.024 289.403C340.642 289.954 340.112 290.387 339.433 290.702C338.757 291.017 338.003 291.174 337.17 291.174ZM348.043 291.174C347.107 291.174 346.305 290.919 345.638 290.41C344.975 289.896 344.467 289.15 344.115 288.172C343.767 287.194 343.593 286.015 343.593 284.635C343.593 283.268 343.769 282.095 344.121 281.117C344.474 280.135 344.983 279.387 345.65 278.874C346.317 278.356 347.115 278.097 348.043 278.097C348.971 278.097 349.769 278.356 350.436 278.874C351.103 279.387 351.613 280.135 351.965 281.117C352.317 282.095 352.494 283.268 352.494 284.635C352.494 286.015 352.317 287.194 351.965 288.172C351.617 289.15 351.11 289.896 350.442 290.41C349.779 290.919 348.98 291.174 348.043 291.174ZM345.134 284.635C345.134 285.725 345.248 286.655 345.476 287.426C345.704 288.193 346.036 288.775 346.471 289.173C346.906 289.57 347.43 289.769 348.043 289.769C348.657 289.769 349.181 289.57 349.616 289.173C350.051 288.775 350.382 288.193 350.61 287.426C350.838 286.655 350.952 285.725 350.952 284.635C350.952 283.546 350.836 282.615 350.604 281.845C350.376 281.07 350.045 280.481 349.61 280.079C349.174 279.677 348.652 279.477 348.043 279.477C347.434 279.477 346.912 279.677 346.477 280.079C346.042 280.481 345.708 281.07 345.476 281.845C345.248 282.615 345.134 283.546 345.134 284.635ZM358.766 291.174C357.829 291.174 357.028 290.919 356.361 290.41C355.698 289.896 355.19 289.15 354.838 288.172C354.49 287.194 354.316 286.015 354.316 284.635C354.316 283.268 354.492 282.095 354.844 281.117C355.196 280.135 355.706 279.387 356.373 278.874C357.04 278.356 357.838 278.097 358.766 278.097C359.694 278.097 360.492 278.356 361.159 278.874C361.826 279.387 362.336 280.135 362.688 281.117C363.04 282.095 363.216 283.268 363.216 284.635C363.216 286.015 363.04 287.194 362.688 288.172C362.34 289.15 361.832 289.896 361.165 290.41C360.502 290.919 359.702 291.174 358.766 291.174ZM355.857 284.635C355.857 285.725 355.971 286.655 356.199 287.426C356.427 288.193 356.758 288.775 357.193 289.173C357.629 289.57 358.153 289.769 358.766 289.769C359.379 289.769 359.903 289.57 360.338 289.173C360.774 288.775 361.105 288.193 361.333 287.426C361.561 286.655 361.675 285.725 361.675 284.635C361.675 283.546 361.559 282.615 361.327 281.845C361.099 281.07 360.767 280.481 360.332 280.079C359.897 279.677 359.375 279.477 358.766 279.477C358.157 279.477 357.635 279.677 357.2 280.079C356.765 280.481 356.431 281.07 356.199 281.845C355.971 282.615 355.857 283.546 355.857 284.635ZM369.489 291.174C368.552 291.174 367.75 290.919 367.083 290.41C366.42 289.896 365.913 289.15 365.56 288.172C365.212 287.194 365.038 286.015 365.038 284.635C365.038 283.268 365.214 282.095 365.567 281.117C365.919 280.135 366.429 279.387 367.096 278.874C367.763 278.356 368.56 278.097 369.489 278.097C370.417 278.097 371.214 278.356 371.882 278.874C372.549 279.387 373.058 280.135 373.411 281.117C373.763 282.095 373.939 283.268 373.939 284.635C373.939 286.015 373.763 287.194 373.411 288.172C373.062 289.15 372.555 289.896 371.888 290.41C371.225 290.919 370.425 291.174 369.489 291.174ZM366.58 284.635C366.58 285.725 366.694 286.655 366.922 287.426C367.15 288.193 367.481 288.775 367.916 289.173C368.351 289.57 368.875 289.769 369.489 289.769C370.102 289.769 370.626 289.57 371.061 289.173C371.496 288.775 371.828 288.193 372.056 287.426C372.283 286.655 372.397 285.725 372.397 284.635C372.397 283.546 372.281 282.615 372.049 281.845C371.821 281.07 371.49 280.481 371.055 280.079C370.62 279.677 370.098 279.477 369.489 279.477C368.879 279.477 368.357 279.677 367.922 280.079C367.487 280.481 367.154 281.07 366.922 281.845C366.694 282.615 366.58 283.546 366.58 284.635Z" fill="#111827"/>
<rect x="25.5" y="351.5" width="349" height="53" rx="4.5" stroke="#D1D5DB"/>
<path d="M53.9746 369.797V385.424H52.6211V377.338H50.3711V384.615H49.0703V370.148H50.3711V376.16H52.6211V369.797H53.9746ZM41.4238 381.381V371.713H42.7949V380.15C44.3418 380.142 46.0117 380.027 47.9102 379.641L48.0859 380.871C45.9062 381.267 44.1133 381.381 42.3906 381.381H41.4238ZM74.9453 378.094V379.219H60.6895V378.094H67.123V376.547H62.5879V370.254H73.1699V371.379H63.9766V372.838H72.748V373.893H63.9766V375.439H73.2578V376.547H68.4941V378.094H74.9453ZM62.4297 382.893C62.4209 381.267 64.3633 380.379 67.8262 380.396C71.2539 380.379 73.1875 381.267 73.2051 382.893C73.1875 384.536 71.2539 385.389 67.8262 385.389C64.3633 385.389 62.4209 384.536 62.4297 382.893ZM63.8184 382.893C63.8008 383.842 65.2422 384.334 67.8262 384.316C70.3838 384.334 71.8076 383.842 71.8164 382.893C71.8076 381.961 70.3838 381.442 67.8262 381.434C65.2422 381.442 63.8008 381.961 63.8184 382.893ZM81.5547 372.768C81.5635 374.815 83.0928 376.644 85.3867 377.391L84.7363 378.48C82.9346 377.883 81.5723 376.644 80.8955 375.07C80.2275 376.863 78.7861 378.261 76.9141 378.938L76.2109 377.83C78.5488 377.039 80.1836 375.026 80.2012 372.768V372.1H76.6328V370.957H85.0703V372.1H81.5547V372.768ZM78.2852 382.506C78.2939 380.704 80.2539 379.658 83.4707 379.658C86.6787 379.658 88.6211 380.704 88.6211 382.506C88.6211 384.334 86.6787 385.389 83.4707 385.389C80.2539 385.389 78.2939 384.334 78.2852 382.506ZM79.6738 382.506C79.6562 383.631 81.1152 384.29 83.4707 384.281C85.835 384.29 87.2764 383.631 87.2852 382.506C87.2764 381.416 85.835 380.766 83.4707 380.766C81.1152 380.766 79.6562 381.416 79.6738 382.506ZM87.1094 379.236V369.797H88.4805V373.787H90.8359V374.947H88.4805V379.236H87.1094ZM110.646 382.365V383.508H96.3379V382.365H100.328V378.639H97.6387V377.496H100.082V372.398H97.6035V371.256H109.275V372.398H106.797V377.496H109.24V378.639H106.551V382.365H110.646ZM101.453 377.496H105.443V372.398H101.453V377.496ZM101.717 382.365H105.18V378.639H101.717V382.365ZM117.449 373.998C117.44 376.854 119.383 379.72 121.686 380.766L120.842 381.855C119.058 380.994 117.52 379.14 116.772 376.916C116.052 379.271 114.514 381.249 112.686 382.172L111.807 381.012C114.136 379.948 116.061 376.96 116.078 373.998V371.15H117.449V373.998ZM123.391 385.459V369.797H124.779V385.459H123.391Z" fill="#6B7280"/>
<path d="M210.764 382.501H203.541V372.345H210.764V382.501ZM209.421 381.37V373.452H204.909V381.37H209.421ZM214.133 370.804H215.512V386.454H214.133V370.804ZM231.094 379.182H229.714V370.804H231.094V379.182ZM218.551 375.155C218.551 374.454 218.727 373.831 219.079 373.284C219.432 372.737 219.919 372.312 220.54 372.01C221.166 371.707 221.87 371.558 222.653 371.562C223.436 371.558 224.139 371.707 224.76 372.01C225.382 372.312 225.867 372.737 226.215 373.284C226.567 373.831 226.743 374.454 226.743 375.155C226.743 375.855 226.567 376.477 226.215 377.019C225.867 377.562 225.382 377.985 224.76 378.287C224.139 378.59 223.436 378.739 222.653 378.735C221.87 378.739 221.166 378.59 220.54 378.287C219.919 377.985 219.432 377.562 219.079 377.019C218.727 376.472 218.551 375.851 218.551 375.155ZM219.906 375.155C219.902 375.623 220.016 376.044 220.248 376.416C220.484 376.785 220.811 377.073 221.23 377.28C221.648 377.488 222.123 377.591 222.653 377.591C223.18 377.591 223.65 377.488 224.064 377.28C224.483 377.073 224.81 376.785 225.046 376.416C225.282 376.044 225.401 375.623 225.401 375.155C225.401 374.686 225.282 374.268 225.046 373.899C224.81 373.526 224.483 373.238 224.064 373.035C223.65 372.828 223.18 372.727 222.653 372.731C222.123 372.727 221.648 372.828 221.23 373.035C220.811 373.238 220.484 373.526 220.248 373.899C220.016 374.268 219.902 374.686 219.906 375.155ZM220.975 379.978H222.33V381.88H229.727V379.978H231.094V386.218H220.975V379.978ZM229.727 385.087V382.986H222.33V385.087H229.727ZM241.156 376.149H235.786V378.573C237.332 378.573 238.546 378.548 239.428 378.499C240.315 378.445 241.198 378.337 242.076 378.175L242.213 379.319C241.289 379.472 240.363 379.574 239.434 379.624C238.51 379.669 237.207 379.692 235.525 379.692H234.419V375.08H239.789V372.88H234.381V371.761H241.156V376.149ZM236.171 381.258H246.7V386.454H245.32V382.39H236.171V381.258ZM242.2 376.373H245.32V374.26H242.2V373.141H245.32V370.816H246.7V380.413H245.32V377.504H242.2V376.373ZM254.861 375.006C254.856 375.93 255.045 376.847 255.426 377.759C255.807 378.671 256.321 379.481 256.968 380.189C257.618 380.894 258.325 381.42 259.087 381.768L258.242 382.862C257.653 382.572 257.096 382.182 256.57 381.693C256.044 381.2 255.575 380.631 255.165 379.984C254.755 379.338 254.428 378.648 254.183 377.914C253.943 378.693 253.617 379.427 253.207 380.115C252.801 380.798 252.331 381.403 251.796 381.93C251.262 382.456 250.692 382.87 250.087 383.173L249.217 382.017C249.988 381.66 250.698 381.117 251.349 380.388C251.999 379.655 252.515 378.816 252.896 377.871C253.282 376.926 253.477 375.971 253.481 375.006V372.159H254.861V375.006ZM260.803 370.804H262.182V386.454H260.803V370.804ZM277.222 372.258C277.222 372.963 277.493 373.636 278.036 374.278C278.583 374.921 279.296 375.461 280.174 375.901C281.053 376.34 281.967 376.626 282.915 376.758L282.356 377.89C281.531 377.753 280.734 377.515 279.963 377.175C279.196 376.835 278.511 376.412 277.906 375.907C277.301 375.397 276.837 374.831 276.513 374.21C276.19 374.836 275.726 375.403 275.121 375.913C274.52 376.419 273.837 376.839 273.07 377.175C272.304 377.51 271.508 377.749 270.683 377.89L270.112 376.758C271.065 376.626 271.978 376.342 272.853 375.907C273.727 375.472 274.435 374.935 274.978 374.297C275.521 373.655 275.792 372.975 275.792 372.258V371.363H277.222V372.258ZM269.378 379.605H283.624V380.761H277.147V386.43H275.792V380.761H269.378V379.605ZM290.827 373.75C290.827 374.268 290.987 374.757 291.306 375.217C291.625 375.677 292.07 376.077 292.642 376.416C293.214 376.752 293.868 377.003 294.606 377.169L294.034 378.262C293.131 378.043 292.344 377.703 291.672 377.243C291.005 376.783 290.502 376.236 290.162 375.602C289.83 376.29 289.323 376.885 288.639 377.386C287.96 377.883 287.16 378.246 286.24 378.474L285.643 377.38C286.389 377.21 287.048 376.945 287.62 376.584C288.196 376.224 288.643 375.799 288.962 375.31C289.286 374.817 289.447 374.297 289.447 373.75V373.688H285.967V372.594H289.447V370.841H290.827V372.594H294.308V373.688H290.827V373.75ZM284.897 379.58C286.936 379.58 288.799 379.551 290.485 379.493C292.176 379.435 293.786 379.307 295.315 379.108L295.414 380.115C294.08 380.338 292.563 380.502 290.864 380.606V385.97H289.484V380.674C288.221 380.724 286.754 380.749 285.084 380.749L284.897 379.58ZM296.471 370.816H297.826V386.442H296.471V370.816ZM313.395 382.24H312.015V370.816H313.395V382.24ZM300.852 375.739C300.852 375.001 301.03 374.343 301.386 373.762C301.743 373.178 302.234 372.724 302.859 372.401C303.485 372.074 304.183 371.91 304.954 371.91C305.725 371.91 306.421 372.074 307.043 372.401C307.668 372.724 308.157 373.178 308.509 373.762C308.866 374.343 309.044 375.001 309.044 375.739C309.044 376.485 308.866 377.15 308.509 377.734C308.157 378.318 307.668 378.774 307.043 379.102C306.421 379.425 305.725 379.584 304.954 379.58C304.183 379.584 303.485 379.425 302.859 379.102C302.234 378.774 301.743 378.318 301.386 377.734C301.03 377.15 300.852 376.485 300.852 375.739ZM302.207 375.739C302.203 376.249 302.319 376.704 302.555 377.106C302.795 377.504 303.125 377.815 303.543 378.039C303.962 378.262 304.432 378.374 304.954 378.374C305.468 378.374 305.934 378.262 306.353 378.039C306.771 377.815 307.101 377.504 307.341 377.106C307.581 376.704 307.701 376.249 307.701 375.739C307.701 375.238 307.581 374.788 307.341 374.39C307.101 373.992 306.771 373.682 306.353 373.458C305.934 373.23 305.468 373.116 304.954 373.116C304.432 373.116 303.962 373.228 303.543 373.452C303.125 373.675 302.795 373.988 302.555 374.39C302.319 374.788 302.203 375.238 302.207 375.739ZM303.301 381.072H304.681V384.938H313.88V386.081H303.301V381.072ZM329.001 380.065H327.621V377.591H323.954V378.934H316.781V371.997H323.954V373.352H327.621V370.804H329.001V380.065ZM322.599 377.802V373.116H318.149V377.802H322.599ZM318.584 383.471C318.58 382.849 318.787 382.317 319.205 381.874C319.624 381.43 320.227 381.093 321.014 380.86C321.801 380.628 322.736 380.512 323.817 380.512C324.895 380.512 325.825 380.628 326.608 380.86C327.395 381.093 327.998 381.43 328.417 381.874C328.839 382.317 329.051 382.849 329.051 383.471C329.051 384.084 328.839 384.61 328.417 385.05C327.998 385.489 327.397 385.823 326.614 386.05C325.831 386.278 324.899 386.392 323.817 386.392C322.732 386.392 321.795 386.278 321.008 386.05C320.225 385.823 319.624 385.489 319.205 385.05C318.787 384.61 318.58 384.084 318.584 383.471ZM319.951 383.471C319.947 383.844 320.101 384.169 320.411 384.447C320.722 384.72 321.168 384.93 321.748 385.075C322.332 385.224 323.022 385.298 323.817 385.298C324.609 385.298 325.295 385.224 325.875 385.075C326.455 384.93 326.9 384.72 327.211 384.447C327.526 384.169 327.683 383.844 327.683 383.471C327.683 383.081 327.528 382.748 327.217 382.47C326.906 382.189 326.461 381.973 325.881 381.824C325.301 381.675 324.613 381.598 323.817 381.594C323.018 381.598 322.328 381.675 321.748 381.824C321.168 381.973 320.722 382.189 320.411 382.47C320.101 382.748 319.947 383.081 319.951 383.471ZM327.621 376.448V374.483H323.954V376.448H327.621Z" fill="#9CA3AF"/>
<mask id="mask1_514_2984" style="mask-type:alpha" maskUnits="userSpaceOnUse" x="336" y="366" width="24" height="24">
<rect x="336" y="366" width="24" height="24" fill="#D9D9D9"/>
</mask>
<g mask="url(#mask1_514_2984)">
<path d="M341 385H342.425L352.2 375.225L350.775 373.8L341 383.575V385ZM340 387C339.717 387 339.479 386.904 339.287 386.712C339.096 386.521 339 386.283 339 386V383.575C339 383.308 339.05 383.054 339.15 382.812C339.25 382.571 339.392 382.358 339.575 382.175L352.2 369.575C352.4 369.392 352.621 369.25 352.863 369.15C353.104 369.05 353.358 369 353.625 369C353.892 369 354.15 369.05 354.4 369.15C354.65 369.25 354.867 369.4 355.05 369.6L356.425 371C356.625 371.183 356.771 371.4 356.863 371.65C356.954 371.9 357 372.15 357 372.4C357 372.667 356.954 372.921 356.863 373.162C356.771 373.404 356.625 373.625 356.425 373.825L343.825 386.425C343.642 386.608 343.429 386.75 343.188 386.85C342.946 386.95 342.692 387 342.425 387H340ZM351.475 374.525L350.775 373.8L352.2 375.225L351.475 374.525Z" fill="#9CA3AF"/>
</g>
<rect x="25.5" y="415.5" width="349" height="53" rx="4.5" stroke="#D1D5DB"/>
<path d="M52.8496 433.797V437.576H55.2051V438.736H52.8496V442.938H51.4785V433.797H52.8496ZM41.3008 441.953V434.693H42.6543V437.084H47.207V434.693H48.5781V441.953H41.3008ZM42.6543 440.846H47.207V438.191H42.6543V440.846ZM43.041 449.213V443.816H52.9727V444.924H44.4121V448.088H53.2715V449.213H43.041ZM68.8281 438.543V439.65H58.123V434.377H59.4941V438.543H68.8281ZM56.1719 442.902V441.777H70.4805V442.902H56.1719ZM58.0352 449.037V444.502H59.4062V447.895H68.916V449.037H58.0352ZM90.5547 442.076V443.201H84.1914V446.26H82.8203V443.201H76.2461V442.076H90.5547ZM78.0742 449.09V444.818H79.4453V447.93H88.9551V449.09H78.0742ZM78.1621 440.547V434.307H79.5332V436.311H87.2676V434.307H88.6387V440.547H78.1621ZM79.5332 439.422H87.2676V437.365H79.5332V439.422ZM110.646 446.365V447.508H96.3379V446.365H100.328V442.639H97.6387V441.496H100.082V436.398H97.6035V435.256H109.275V436.398H106.797V441.496H109.24V442.639H106.551V446.365H110.646ZM101.453 441.496H105.443V436.398H101.453V441.496ZM101.717 446.365H105.18V442.639H101.717V446.365ZM117.449 437.998C117.44 440.854 119.383 443.72 121.686 444.766L120.842 445.855C119.058 444.994 117.52 443.14 116.772 440.916C116.052 443.271 114.514 445.249 112.686 446.172L111.807 445.012C114.136 443.948 116.061 440.96 116.078 437.998V435.15H117.449V437.998ZM123.391 449.459V433.797H124.779V449.459H123.391Z" fill="#6B7280"/>
<mask id="mask2_514_2984" style="mask-type:alpha" maskUnits="userSpaceOnUse" x="336" y="430" width="24" height="24">
<rect x="336" y="430" width="24" height="24" fill="#D9D9D9"/>
</mask>
<g mask="url(#mask2_514_2984)">
<path d="M341 449H342.425L352.2 439.225L350.775 437.8L341 447.575V449ZM340 451C339.717 451 339.479 450.904 339.287 450.712C339.096 450.521 339 450.283 339 450V447.575C339 447.308 339.05 447.054 339.15 446.812C339.25 446.571 339.392 446.358 339.575 446.175L352.2 433.575C352.4 433.392 352.621 433.25 352.863 433.15C353.104 433.05 353.358 433 353.625 433C353.892 433 354.15 433.05 354.4 433.15C354.65 433.25 354.867 433.4 355.05 433.6L356.425 435C356.625 435.183 356.771 435.4 356.863 435.65C356.954 435.9 357 436.15 357 436.4C357 436.667 356.954 436.921 356.863 437.162C356.771 437.404 356.625 437.625 356.425 437.825L343.825 450.425C343.642 450.608 343.429 450.75 343.188 450.85C342.946 450.95 342.692 451 342.425 451H340ZM351.475 438.525L350.775 437.8L352.2 439.225L351.475 438.525Z" fill="#9CA3AF"/>
</g>
<rect x="25.5" y="479.5" width="349" height="53" rx="4.5" stroke="#D1D5DB"/>
<path d="M53.5176 497.797V513.459H52.1289V497.797H53.5176ZM41.2129 504.459C41.2217 501.137 42.874 499.019 45.2031 499.01C47.5234 499.019 49.2021 501.137 49.1934 504.459C49.2021 507.79 47.5234 509.899 45.2031 509.891C42.874 509.899 41.2217 507.79 41.2129 504.459ZM42.5488 504.459C42.5488 506.999 43.6387 508.669 45.2031 508.66C46.7764 508.669 47.8574 506.999 47.8574 504.459C47.8574 501.919 46.7764 500.249 45.2031 500.24C43.6387 500.249 42.5488 501.919 42.5488 504.459ZM60.7598 502.613C60.7686 505.127 62.043 507.702 64.1699 508.836L63.3789 509.873C61.8232 509.021 60.6982 507.403 60.127 505.522C59.5732 507.526 58.457 509.284 56.8926 510.225L56.0664 509.17C58.1934 507.939 59.4502 505.197 59.459 502.613V501.84H56.4883V500.697H59.459V498.377H60.7773V500.697H63.6953V501.84H60.7598V502.613ZM62.623 505.145V503.967H65.084V498.184H66.3848V512.615H65.084V505.145H62.623ZM68.2305 513.424V497.797H69.5488V513.424H68.2305ZM82.8203 499.625V503.703H85.1934V498.131H86.5117V512.633H85.1934V504.846H82.8203V509.223H76.8438V499.625H82.8203ZM78.1445 508.115H81.5195V500.732H78.1445V508.115ZM88.3223 513.424V497.797H89.6582V513.424H88.3223ZM106.129 510.26V511.42H91.8203V510.26H98.2539V506.445H93.5078V499.115H104.354V506.445H99.6074V510.26H106.129ZM94.8613 505.338H103.018V500.223H94.8613V505.338Z" fill="#6B7280"/>
<mask id="mask3_514_2984" style="mask-type:alpha" maskUnits="userSpaceOnUse" x="336" y="494" width="24" height="24">
<rect x="336" y="494" width="24" height="24" fill="#D9D9D9"/>
</mask>
<g mask="url(#mask3_514_2984)">
<path d="M341 513H342.425L352.2 503.225L350.775 501.8L341 511.575V513ZM340 515C339.717 515 339.479 514.904 339.287 514.712C339.096 514.521 339 514.283 339 514V511.575C339 511.308 339.05 511.054 339.15 510.812C339.25 510.571 339.392 510.358 339.575 510.175L352.2 497.575C352.4 497.392 352.621 497.25 352.863 497.15C353.104 497.05 353.358 497 353.625 497C353.892 497 354.15 497.05 354.4 497.15C354.65 497.25 354.867 497.4 355.05 497.6L356.425 499C356.625 499.183 356.771 499.4 356.863 499.65C356.954 499.9 357 500.15 357 500.4C357 500.667 356.954 500.921 356.863 501.162C356.771 501.404 356.625 501.625 356.425 501.825L343.825 514.425C343.642 514.608 343.429 514.75 343.188 514.85C342.946 514.95 342.692 515 342.425 515H340ZM351.475 502.525L350.775 501.8L352.2 503.225L351.475 502.525Z" fill="#9CA3AF"/>
</g>
</svg>
