<svg width="450" height="851" viewBox="0 0 450 851" fill="none" xmlns="http://www.w3.org/2000/svg">
<rect width="450" height="851" fill="white"/>
<mask id="mask0_241_275" style="mask-type:alpha" maskUnits="userSpaceOnUse" x="25" y="20" width="40" height="40">
<rect x="25" y="20" width="40" height="40" fill="#D9D9D9"/>
</mask>
<g mask="url(#mask0_241_275)">
<path d="M28.375 39.972L35.4583 47.0553C35.7267 47.3239 35.8562 47.6481 35.8471 48.0278C35.8379 48.4073 35.699 48.7313 35.4304 48.9999C35.1618 49.2685 34.8331 49.4028 34.4442 49.4028C34.0553 49.4028 33.7267 49.2685 33.4583 48.9999L25.4025 40.9445C25.2544 40.7962 25.1503 40.6434 25.09 40.4862C25.03 40.3287 25 40.1573 25 39.972C25 39.787 25.03 39.6158 25.09 39.4583C25.1503 39.3008 25.2544 39.148 25.4025 38.9999L33.4858 30.9166C33.7544 30.648 34.0832 30.5137 34.4721 30.5137C34.861 30.5137 35.1897 30.648 35.4583 30.9166C35.7267 31.1852 35.8608 31.5139 35.8608 31.9028C35.8608 32.2917 35.7267 32.6203 35.4583 32.8887L28.375 39.972Z" fill="#111827"/>
</g>
<path d="M64.2383 31.6738V47.5645H62.375V31.6738H64.2383ZM60.9512 32.0605V46.8086H59.0879V41.5H56.6094V39.9004H59.0879V37.5449H56.8906C56.1436 40.1816 54.4824 42.4492 51.5117 44.207L50.3691 42.8184C53.665 40.876 55.1768 38.3887 55.4668 35.1895H51.2129V33.6074H57.4004C57.4004 34.4072 57.3477 35.1895 57.2422 35.9453H59.0879V32.0605H60.9512ZM75.2246 33.0273V34.627H71.9023C71.9551 36.3848 73.2471 38.0547 75.6641 38.7578L74.7324 40.2871C72.9219 39.751 71.6299 38.6436 70.9355 37.2285C70.2324 38.7842 68.8965 39.9971 67.0332 40.5684L66.0312 39.0391C68.501 38.3008 69.8369 36.543 69.916 34.627H66.5762V33.0273H75.2246ZM71.8848 39.9004V42.7305C73.1855 42.6689 74.4951 42.5635 75.7168 42.3965L75.8574 43.8027C72.5 44.4355 68.8613 44.418 66.1543 44.4355L65.8906 42.8359C67.0947 42.8359 68.4834 42.8359 69.9336 42.8008V39.9004H71.8848ZM80.8848 38.0547V39.6895H78.582V47.5645H76.6309V31.6738H78.582V38.0547H80.8848ZM94.8594 31.6738V47.582H92.8906V31.6738H94.8594ZM86.2988 32.834C88.6895 32.834 90.4297 35.0137 90.4473 38.4414C90.4297 41.9043 88.6895 44.0664 86.2988 44.0664C83.8906 44.0664 82.1504 41.9043 82.1504 38.4414C82.1504 35.0137 83.8906 32.834 86.2988 32.834ZM86.2988 34.5918C84.9453 34.5918 84.0312 36.0156 84.0312 38.4414C84.0312 40.8848 84.9453 42.3086 86.2988 42.3086C87.6348 42.3086 88.5488 40.8848 88.5488 38.4414C88.5488 36.0156 87.6348 34.5918 86.2988 34.5918ZM102.049 36.5254C102.049 38.9863 103.068 41.4648 105.283 42.6602L104.193 44.1016C102.717 43.3193 101.715 41.9219 101.152 40.252C100.59 42.0537 99.5879 43.5918 98.0938 44.4707L96.9512 42.9941C99.2012 41.6934 100.203 39.0391 100.203 36.5254V36.0332H97.4961V34.4512H100.203V32.2363H102.049V34.4512H104.703V36.0332H102.049V36.5254ZM110.873 31.6738V47.5645H109.01V31.6738H110.873ZM107.639 31.9727V46.791H105.793V39.3906H103.719V37.7734H105.793V31.9727H107.639Z" fill="#111827"/>
<path d="M393.258 38.0371V39.1973H390.727V47.4238H389.355V31.7969H390.727V38.0371H393.258ZM380.654 33.3438V42.291C382.939 42.2822 385.269 42.1064 387.844 41.5703L388.02 42.748C385.33 43.293 382.904 43.4512 380.531 43.4512H379.283V33.3438H380.654ZM406.283 31.7969V38.1602H408.814V39.3203H406.283V47.4238H404.912V31.7969H406.283ZM402.24 33.4844C402.24 37.9141 400.166 41.9395 395.068 44.4531L394.295 43.3633C398.338 41.3506 400.535 38.3447 400.852 34.6445H395.016V33.4844H402.24ZM422.666 31.7969V47.4238H421.277V31.7969H422.666ZM418.043 33.502C418.025 38.002 415.934 41.9746 410.695 44.4883L409.939 43.3633C414.167 41.3594 416.32 38.3623 416.637 34.627H410.66V33.502H418.043Z" fill="#EF403C"/>
<mask id="path-5-inside-1_241_275" fill="white">
<path d="M25 110H425V186H25V110Z"/>
</mask>
<path d="M425 185H25V187H425V185Z" fill="#D1D5DB" mask="url(#path-5-inside-1_241_275)"/>
<path d="M28.1575 116.868H30.3391V114.662H32.4151V122.294H26.038V114.662H28.1575V116.868ZM30.3391 120.529V118.602H28.1575V120.529H30.3391ZM28.2196 126.62C28.2155 125.99 28.4372 125.445 28.8847 124.985C29.3363 124.526 29.9786 124.173 30.8115 123.929C31.6443 123.684 32.6243 123.562 33.7514 123.562C34.8743 123.562 35.8522 123.684 36.6851 123.929C37.518 124.173 38.1623 124.526 38.6181 124.985C39.0739 125.445 39.3018 125.99 39.3018 126.62C39.3018 127.242 39.0739 127.776 38.6181 128.224C38.1623 128.675 37.518 129.019 36.6851 129.256C35.8522 129.496 34.8743 129.616 33.7514 129.616C32.6243 129.616 31.6443 129.498 30.8115 129.262C29.9786 129.026 29.3363 128.682 28.8847 128.23C28.4372 127.778 28.2155 127.242 28.2196 126.62ZM30.4572 126.62C30.453 127.047 30.7348 127.368 31.3025 127.584C31.8702 127.799 32.6865 127.909 33.7514 127.913C34.808 127.909 35.6202 127.799 36.1878 127.584C36.7555 127.368 37.0414 127.047 37.0456 126.62C37.0414 126.185 36.7576 125.856 36.1941 125.632C35.6347 125.404 34.8349 125.29 33.7949 125.29C32.7217 125.29 31.895 125.402 31.3149 125.626C30.739 125.849 30.453 126.181 30.4572 126.62ZM33.6706 113.916H35.7528V117.508H37.0953V113.636H39.221V123.32H37.0953V119.323H35.7528V122.903H33.6706V113.916ZM49.6747 114.575C49.6706 116.079 49.4116 117.401 48.8978 118.54C48.3881 119.68 47.578 120.662 46.4676 121.486C45.3612 122.307 43.9192 122.972 42.1416 123.481L41.3274 121.704C42.4461 121.401 43.393 121.041 44.1678 120.622C44.9427 120.204 45.5684 119.727 46.0449 119.193L41.6133 119.51L41.2963 117.769L46.9959 117.577C47.1285 117.212 47.2217 116.802 47.2756 116.346H42.1043V114.575H49.6747ZM43.4593 126.465C43.4593 125.806 43.683 125.24 44.1305 124.768C44.578 124.291 45.2162 123.929 46.0449 123.68C46.8778 123.432 47.864 123.307 49.0035 123.307C50.114 123.307 51.0815 123.432 51.9061 123.68C52.7307 123.929 53.3667 124.291 53.8142 124.768C54.2618 125.24 54.4855 125.806 54.4855 126.465C54.4855 127.124 54.2618 127.687 53.8142 128.155C53.3667 128.628 52.7307 128.986 51.9061 129.231C51.0815 129.475 50.114 129.597 49.0035 129.597C47.864 129.597 46.8778 129.475 46.0449 129.231C45.212 128.986 44.5718 128.628 44.1243 128.155C43.681 127.687 43.4593 127.124 43.4593 126.465ZM45.7279 126.465C45.7238 126.929 45.9993 127.283 46.5546 127.528C47.1098 127.768 47.9261 127.888 49.0035 127.888C50.0518 127.888 50.8536 127.766 51.4089 127.521C51.9641 127.277 52.2438 126.925 52.2479 126.465C52.2438 126.001 51.9641 125.651 51.4089 125.414C50.8577 125.178 50.056 125.06 49.0035 125.06C47.9178 125.06 47.0995 125.178 46.5484 125.414C45.9972 125.651 45.7238 126.001 45.7279 126.465ZM52.1734 113.636H54.4234V123.065H52.1734V113.636ZM64.9765 121.275H71.1858V123.071H56.5919V121.275H62.7514V119.348H64.9765V121.275ZM57.2196 118.509C58.1727 118.418 59.0014 118.252 59.7058 118.012C60.4144 117.771 60.9779 117.483 61.3964 117.148C61.8191 116.812 62.1009 116.454 62.2417 116.073H57.9158V114.301H69.8681V116.073H65.5111C65.652 116.454 65.9317 116.812 66.3502 117.148C66.7728 117.483 67.3384 117.771 68.047 118.012C68.7555 118.252 69.5905 118.418 70.5518 118.509L69.7562 120.256C68.2811 120.11 67.038 119.779 66.027 119.261C65.02 118.743 64.2991 118.09 63.864 117.303C63.4289 118.095 62.712 118.749 61.7134 119.267C60.7148 119.785 59.4779 120.115 58.0028 120.256L57.2196 118.509ZM58.2576 126.782C58.2576 126.181 58.4793 125.671 58.9227 125.253C59.3702 124.83 60.0125 124.509 60.8495 124.289C61.6906 124.066 62.6934 123.954 63.8578 123.954C65.0221 123.954 66.0207 124.064 66.8536 124.283C67.6865 124.503 68.3225 124.824 68.7618 125.247C69.2051 125.669 69.4289 126.181 69.433 126.782C69.4289 127.387 69.2051 127.901 68.7618 128.323C68.3225 128.75 67.6865 129.071 66.8536 129.287C66.0207 129.506 65.0221 129.616 63.8578 129.616C62.6934 129.616 61.6906 129.506 60.8495 129.287C60.0125 129.071 59.3702 128.75 58.9227 128.323C58.4793 127.901 58.2576 127.387 58.2576 126.782ZM60.5449 126.782C60.5408 127.175 60.8122 127.468 61.3591 127.658C61.9061 127.849 62.739 127.944 63.8578 127.944C64.9641 127.944 65.7928 127.849 66.3439 127.658C66.8992 127.468 67.1789 127.175 67.183 126.782C67.1789 126.405 66.8992 126.125 66.3439 125.943C65.7887 125.756 64.96 125.663 63.8578 125.663C62.739 125.663 61.9061 125.756 61.3591 125.943C60.8122 126.125 60.5408 126.405 60.5449 126.782ZM84.8405 117.477H86.9911V119.342H84.8405V122.99H82.5905V113.611H84.8405V117.477ZM72.1423 115.028H75.7783V113.506H78.0159V115.028H81.6395V116.787H72.1423V115.028ZM72.9254 120.069C72.9254 119.51 73.0912 119.017 73.4227 118.59C73.7542 118.163 74.2203 117.831 74.8212 117.595C75.422 117.359 76.114 117.241 76.8971 117.241C77.6637 117.241 78.3453 117.359 78.942 117.595C79.5387 117.831 80.0028 118.163 80.3343 118.59C80.6658 119.017 80.8315 119.51 80.8315 120.069C80.8315 120.633 80.6658 121.128 80.3343 121.555C80.0028 121.981 79.5387 122.313 78.942 122.549C78.3453 122.781 77.6637 122.897 76.8971 122.897C76.1181 122.897 75.4261 122.781 74.8212 122.549C74.2203 122.317 73.7542 121.988 73.4227 121.561C73.0912 121.13 72.9254 120.633 72.9254 120.069ZM74.3674 123.599H76.5926V124.824H82.5905V123.599H84.8405V129.442H74.3674V123.599ZM75.1071 120.069C75.1071 120.45 75.2687 120.744 75.5919 120.952C75.9151 121.159 76.3502 121.262 76.8971 121.262C77.4441 121.262 77.8812 121.159 78.2086 120.952C78.5359 120.744 78.7017 120.45 78.7058 120.069C78.7058 119.825 78.6292 119.615 78.4759 119.441C78.3267 119.263 78.1174 119.126 77.8481 119.031C77.5829 118.936 77.2742 118.888 76.922 118.888C76.3709 118.888 75.9296 118.994 75.5981 119.205C75.2708 119.412 75.1071 119.7 75.1071 120.069ZM82.5905 127.677V126.546H76.5926V127.677H82.5905ZM102.299 123.624H87.6679V121.865H93.846V120.877H89.5014V114.003H100.59V115.737H91.739V116.626H100.217V118.254H91.739V119.168H100.727V120.877H96.096V121.865H102.299V123.624ZM89.3709 126.981C89.3709 126.421 89.5884 125.945 90.0235 125.551C90.4628 125.157 91.1009 124.859 91.9379 124.656C92.7749 124.453 93.786 124.352 94.971 124.352C96.1437 124.352 97.1465 124.453 97.9793 124.656C98.8122 124.859 99.4462 125.157 99.8813 125.551C100.32 125.945 100.542 126.421 100.546 126.981C100.542 127.552 100.32 128.035 99.8813 128.429C99.4462 128.823 98.8122 129.119 97.9793 129.318C97.1506 129.521 96.1478 129.62 94.971 129.616C93.7777 129.62 92.7625 129.521 91.9255 129.318C91.0926 129.119 90.4586 128.823 90.0235 128.429C89.5884 128.035 89.3709 127.552 89.3709 126.981ZM91.6147 126.981C91.6105 127.316 91.8757 127.563 92.4103 127.72C92.9448 127.878 93.7756 127.956 94.9027 127.956C96.0629 127.956 96.9165 127.88 97.4634 127.727C98.0145 127.569 98.2922 127.32 98.2963 126.981C98.2922 126.645 98.0187 126.401 97.4759 126.247C96.9372 126.09 96.1023 126.011 94.971 126.011C93.8191 126.011 92.9697 126.09 92.4227 126.247C91.8799 126.401 91.6105 126.645 91.6147 126.981ZM112.355 116.483H109.16C109.164 117.125 109.299 117.736 109.564 118.316C109.834 118.896 110.244 119.412 110.795 119.864C111.346 120.316 112.032 120.664 112.852 120.908L111.789 122.661C110.923 122.4 110.18 122.015 109.558 121.505C108.937 120.995 108.443 120.388 108.079 119.684C107.714 120.508 107.202 121.223 106.544 121.828C105.885 122.433 105.089 122.889 104.157 123.195L103.019 121.424C103.869 121.155 104.582 120.765 105.158 120.256C105.738 119.742 106.171 119.16 106.457 118.509C106.742 117.858 106.89 117.183 106.898 116.483H103.629V114.693H112.355V116.483ZM105.226 126.508C105.226 125.866 105.445 125.313 105.885 124.849C106.328 124.385 106.96 124.032 107.78 123.792C108.605 123.548 109.579 123.425 110.702 123.425C111.812 123.425 112.771 123.548 113.579 123.792C114.392 124.032 115.015 124.385 115.45 124.849C115.885 125.313 116.103 125.866 116.103 126.508C116.103 127.155 115.885 127.71 115.45 128.174C115.015 128.642 114.392 128.999 113.579 129.243C112.767 129.492 111.808 129.616 110.702 129.616C109.579 129.616 108.605 129.492 107.78 129.243C106.96 128.999 106.328 128.642 105.885 128.174C105.445 127.71 105.226 127.155 105.226 126.508ZM107.47 126.508C107.466 126.96 107.735 127.3 108.278 127.528C108.825 127.756 109.618 127.869 110.658 127.869C111.723 127.869 112.527 127.758 113.07 127.534C113.617 127.306 113.89 126.964 113.89 126.508C113.89 126.065 113.623 125.731 113.088 125.508C112.558 125.284 111.777 125.172 110.745 125.172C109.672 125.172 108.856 125.284 108.296 125.508C107.741 125.727 107.466 126.061 107.47 126.508ZM113.704 113.611H115.954V117.334H118.104V119.162H115.954V123.115H113.704V113.611ZM125.283 123.798H119.483V121.735H125.283V123.798ZM141.536 127.758H126.904V125.936H133.076V122.972H128.452V114.637H130.702V117.129H137.676V114.637H139.913V122.972H135.295V125.936H141.536V127.758ZM137.676 121.182V118.907H130.702V121.182H137.676ZM157.055 123.624H142.424V121.865H148.602V120.877H144.257V114.003H155.346V115.737H146.495V116.626H154.973V118.254H146.495V119.168H155.482V120.877H150.852V121.865H157.055V123.624ZM144.127 126.981C144.127 126.421 144.344 125.945 144.779 125.551C145.219 125.157 145.857 124.859 146.694 124.656C147.531 124.453 148.542 124.352 149.727 124.352C150.9 124.352 151.902 124.453 152.735 124.656C153.568 124.859 154.202 125.157 154.637 125.551C155.076 125.945 155.298 126.421 155.302 126.981C155.298 127.552 155.076 128.035 154.637 128.429C154.202 128.823 153.568 129.119 152.735 129.318C151.906 129.521 150.904 129.62 149.727 129.616C148.534 129.62 147.518 129.521 146.681 129.318C145.848 129.119 145.214 128.823 144.779 128.429C144.344 128.035 144.127 127.552 144.127 126.981ZM146.371 126.981C146.366 127.316 146.632 127.563 147.166 127.72C147.701 127.878 148.531 127.956 149.659 127.956C150.819 127.956 151.672 127.88 152.219 127.727C152.77 127.569 153.048 127.32 153.052 126.981C153.048 126.645 152.775 126.401 152.232 126.247C151.693 126.09 150.858 126.011 149.727 126.011C148.575 126.011 147.726 126.09 147.179 126.247C146.636 126.401 146.366 126.645 146.371 126.981ZM171.878 129.622H169.734V113.611H171.878V129.622ZM158.154 120.541C158.154 119.365 158.295 118.341 158.577 117.471C158.863 116.601 159.267 115.932 159.789 115.463C160.315 114.995 160.929 114.761 161.629 114.761C162.296 114.761 162.886 114.97 163.4 115.389C163.914 115.803 164.32 116.396 164.618 117.166H166.496V113.86H168.609V128.883H166.496V123.929H164.625C164.322 124.712 163.914 125.315 163.4 125.738C162.891 126.156 162.3 126.363 161.629 126.359C160.929 126.359 160.315 126.125 159.789 125.657C159.267 125.189 158.863 124.517 158.577 123.643C158.295 122.765 158.154 121.731 158.154 120.541ZM160.187 120.498C160.187 121.737 160.309 122.667 160.554 123.289C160.798 123.906 161.156 124.213 161.629 124.209C162.105 124.213 162.472 123.906 162.729 123.289C162.99 122.671 163.123 121.756 163.127 120.541C163.123 119.34 162.99 118.428 162.729 117.807C162.468 117.185 162.101 116.876 161.629 116.881C161.161 116.876 160.802 117.179 160.554 117.788C160.309 118.397 160.187 119.3 160.187 120.498ZM165.06 118.963C165.13 119.468 165.165 119.994 165.165 120.541C165.165 121.068 165.132 121.59 165.066 122.108H166.496V118.963H165.06ZM186.478 115.625C186.478 116.479 186.455 117.233 186.409 117.887C186.368 118.542 186.262 119.276 186.092 120.088H188.206V121.896H173.574V120.088H183.83C183.987 119.371 184.093 118.706 184.147 118.093C184.201 117.479 184.232 116.829 184.24 116.141H175.364V114.351H186.478V115.625ZM175.302 123.593H186.415V129.442H175.302V123.593ZM184.184 127.646V125.346H177.502V127.646H184.184Z" fill="#111827"/>
<path d="M30.0608 152H28.6464V142.155H28.5801L25.8287 143.978V142.564L28.6464 140.685H30.0608V152ZM33.0653 150.972L36.9217 146.906C37.43 146.365 37.8167 145.93 38.0819 145.602C38.3508 145.271 38.5552 144.952 38.6952 144.646C38.8351 144.337 38.907 144.015 38.9107 143.68C38.907 143.297 38.8057 142.959 38.6068 142.669C38.4116 142.378 38.1427 142.153 37.8002 141.994C37.4613 141.836 37.0801 141.757 36.6565 141.757C36.2145 141.757 35.8259 141.845 35.4908 142.022C35.1593 142.199 34.9033 142.448 34.7228 142.768C34.546 143.088 34.4576 143.459 34.4576 143.878H33.1206C33.1169 143.223 33.2698 142.643 33.5792 142.138C33.8922 141.63 34.3213 141.236 34.8665 140.956C35.4116 140.672 36.023 140.53 36.7007 140.53C37.3711 140.53 37.9733 140.67 38.5073 140.95C39.0451 141.227 39.465 141.604 39.767 142.083C40.069 142.562 40.2219 143.094 40.2256 143.68C40.2219 144.11 40.1409 144.523 39.9825 144.917C39.8278 145.308 39.5644 145.742 39.1924 146.221C38.8241 146.7 38.2992 147.289 37.6178 147.989L35.0322 150.663V150.751H40.4245V152H33.0764L33.0653 150.972ZM46.3786 152.155C45.6346 152.155 44.9679 152.029 44.3786 151.779C43.7893 151.529 43.3234 151.177 42.9808 150.724C42.642 150.271 42.4597 149.75 42.4339 149.16H43.8593C43.8851 149.51 44.0103 149.818 44.235 150.083C44.4597 150.344 44.7562 150.547 45.1245 150.691C45.4965 150.834 45.9072 150.906 46.3565 150.906C46.8501 150.906 47.2921 150.823 47.6825 150.657C48.0729 150.488 48.3786 150.252 48.5996 149.95C48.8206 149.648 48.9311 149.304 48.9311 148.917C48.9311 148.505 48.8225 148.14 48.6051 147.823C48.3915 147.506 48.0784 147.26 47.6659 147.083C47.2534 146.906 46.758 146.818 46.1797 146.818H45.2626V145.58H46.1797C46.6365 145.58 47.0416 145.499 47.3952 145.337C47.7525 145.175 48.0287 144.948 48.2239 144.657C48.4228 144.363 48.5223 144.022 48.5223 143.635C48.5223 143.263 48.4357 142.936 48.2626 142.652C48.0895 142.368 47.8427 142.149 47.5223 141.994C47.2018 141.836 46.828 141.757 46.4007 141.757C45.9956 141.757 45.6144 141.829 45.2571 141.972C44.9035 142.116 44.6162 142.322 44.3952 142.591C44.1742 142.856 44.0545 143.168 44.0361 143.525H42.677C42.6991 142.943 42.8795 142.425 43.2184 141.972C43.5573 141.516 44.0085 141.162 44.572 140.912C45.1355 140.657 45.7525 140.53 46.4228 140.53C47.119 140.53 47.7285 140.669 48.2516 140.945C48.7783 141.221 49.1816 141.591 49.4615 142.055C49.7451 142.519 49.8851 143.024 49.8814 143.569C49.8851 143.989 49.8096 144.372 49.6549 144.718C49.5002 145.064 49.2773 145.357 48.9864 145.597C48.6954 145.836 48.3528 146.011 47.9587 146.122V146.21C48.4449 146.284 48.8648 146.444 49.2184 146.691C49.5757 146.934 49.8482 147.249 50.0361 147.635C50.2239 148.018 50.316 148.449 50.3123 148.928C50.316 149.536 50.1466 150.087 49.804 150.58C49.4652 151.07 48.9937 151.455 48.3897 151.735C47.7893 152.015 47.119 152.155 46.3786 152.155ZM52.0658 148.53L57.1597 140.685H58.8835V148.453H60.4746V149.691H58.8835V152H57.5464V149.691H52.0658V148.53ZM57.5464 148.453V142.464H57.4138L53.5796 148.365V148.453H57.5464ZM66.017 152.155C65.343 152.155 64.7316 152.026 64.1828 151.768C63.6339 151.51 63.1956 151.155 62.8678 150.702C62.5437 150.245 62.3669 149.731 62.3374 149.16H63.7076C63.7408 149.492 63.8623 149.792 64.0723 150.061C64.2859 150.326 64.5621 150.536 64.901 150.691C65.2435 150.842 65.6155 150.917 66.017 150.917C66.4995 150.917 66.9323 150.808 67.3153 150.591C67.7021 150.374 68.0041 150.076 68.2214 149.696C68.4387 149.317 68.5474 148.891 68.5474 148.42C68.5474 147.937 68.4332 147.503 68.2049 147.116C67.9802 146.726 67.6671 146.42 67.2656 146.199C66.8678 145.974 66.4185 145.86 65.9176 145.856C64.9084 145.845 64.2049 146.184 63.8071 146.873H62.4479L63.2435 140.685H69.3761V141.934H64.4148L63.9949 145.249H64.1165C64.3706 145.05 64.6781 144.891 65.0391 144.773C65.4037 144.656 65.7813 144.597 66.1717 144.597C66.8826 144.597 67.5216 144.761 68.0888 145.088C68.6597 145.413 69.1072 145.864 69.4314 146.442C69.7555 147.017 69.9176 147.665 69.9176 148.387C69.9176 149.105 69.75 149.751 69.4148 150.326C69.0796 150.897 68.6155 151.344 68.0225 151.669C67.4295 151.993 66.761 152.155 66.017 152.155ZM75.8512 152.155C75.1219 152.155 74.4442 151.991 73.818 151.663C73.1956 151.331 72.6836 150.766 72.2821 149.967C71.8843 149.164 71.6854 148.099 71.6854 146.773C71.6854 145.455 71.8585 144.328 72.2048 143.392C72.551 142.457 73.0464 141.746 73.691 141.26C74.3355 140.773 75.0998 140.53 75.9838 140.53C76.6357 140.53 77.2213 140.657 77.7407 140.912C78.2637 141.162 78.6891 141.514 79.0169 141.967C79.3447 142.416 79.5565 142.936 79.6523 143.525H78.26C78.1274 143.002 77.8659 142.58 77.4755 142.26C77.0851 141.939 76.5878 141.779 75.9838 141.779C75.3687 141.779 74.8383 141.95 74.3926 142.293C73.9469 142.632 73.6044 143.125 73.365 143.773C73.1293 144.422 73.0114 145.197 73.0114 146.099H73.155C73.4828 145.621 73.8972 145.25 74.3981 144.989C74.9027 144.727 75.4571 144.597 76.0611 144.597C76.7278 144.597 77.3429 144.759 77.9064 145.083C78.47 145.403 78.9175 145.849 79.249 146.42C79.5841 146.991 79.7517 147.632 79.7517 148.343C79.7517 149.05 79.5897 149.694 79.2655 150.276C78.9414 150.855 78.4829 151.313 77.8898 151.652C77.3005 151.987 76.621 152.155 75.8512 152.155ZM73.2103 148.376C73.2103 148.818 73.3226 149.234 73.5473 149.624C73.772 150.015 74.0814 150.328 74.4755 150.564C74.8733 150.799 75.3171 150.917 75.807 150.917C76.2858 150.917 76.7223 150.803 77.1164 150.575C77.5105 150.346 77.8199 150.037 78.0445 149.646C78.2729 149.252 78.3889 148.821 78.3926 148.354C78.3889 147.897 78.2766 147.477 78.0556 147.094C77.8383 146.707 77.5363 146.401 77.1495 146.177C76.7628 145.948 76.33 145.834 75.8512 145.834C75.3687 145.834 74.9248 145.952 74.5197 146.188C74.1182 146.424 73.7996 146.737 73.5639 147.127C73.3318 147.517 73.214 147.934 73.2103 148.376ZM86.5698 146.961H81.6084V145.724H86.5698V146.961ZM93.7952 142.022V141.934H87.8173V140.685H95.2538V142L90.0825 152H88.6019L93.7952 142.022ZM100.648 152.155C99.8632 152.155 99.1652 152.02 98.5538 151.751C97.9424 151.483 97.4672 151.109 97.1284 150.63C96.7895 150.147 96.6219 149.602 96.6256 148.994C96.6219 148.519 96.7214 148.076 96.9239 147.663C97.1265 147.247 97.4028 146.904 97.7527 146.635C98.1063 146.363 98.4967 146.192 98.9239 146.122V146.066C98.5556 145.978 98.2297 145.812 97.946 145.569C97.6624 145.326 97.4433 145.028 97.2886 144.674C97.1339 144.32 97.0565 143.941 97.0565 143.536C97.0565 142.965 97.2112 142.451 97.5206 141.994C97.83 141.538 98.2573 141.18 98.8024 140.923C99.3512 140.661 99.9663 140.53 100.648 140.53C101.325 140.53 101.935 140.661 102.476 140.923C103.022 141.18 103.449 141.538 103.758 141.994C104.068 142.451 104.224 142.965 104.228 143.536C104.224 143.941 104.143 144.32 103.985 144.674C103.83 145.028 103.611 145.326 103.327 145.569C103.047 145.812 102.725 145.978 102.36 146.066V146.122C102.784 146.192 103.171 146.363 103.521 146.635C103.874 146.904 104.152 147.247 104.355 147.663C104.561 148.076 104.666 148.519 104.67 148.994C104.666 149.602 104.493 150.147 104.15 150.63C103.808 151.109 103.331 151.483 102.72 151.751C102.112 152.02 101.421 152.155 100.648 152.155ZM98.0289 148.917C98.0216 149.315 98.1228 149.665 98.3328 149.967C98.5427 150.265 98.8466 150.499 99.2444 150.669C99.6422 150.834 100.11 150.917 100.648 150.917C101.178 150.917 101.64 150.834 102.034 150.669C102.429 150.499 102.732 150.265 102.946 149.967C103.16 149.665 103.266 149.315 103.266 148.917C103.266 148.505 103.152 148.134 102.924 147.807C102.699 147.479 102.388 147.221 101.99 147.033C101.592 146.845 101.145 146.751 100.648 146.751C100.147 146.751 99.6956 146.845 99.2941 147.033C98.8926 147.221 98.5796 147.481 98.3549 147.812C98.1302 148.14 98.0216 148.508 98.0289 148.917ZM98.4267 143.635C98.4267 144.015 98.5206 144.35 98.7085 144.641C98.8963 144.932 99.1578 145.158 99.493 145.32C99.8319 145.479 100.217 145.558 100.648 145.558C101.071 145.558 101.451 145.479 101.786 145.32C102.121 145.158 102.383 144.932 102.57 144.641C102.762 144.346 102.858 144.011 102.858 143.635C102.858 143.263 102.764 142.936 102.576 142.652C102.392 142.365 102.132 142.142 101.797 141.983C101.465 141.825 101.082 141.746 100.648 141.746C100.206 141.746 99.8153 141.825 99.4764 141.983C99.1413 142.142 98.8816 142.365 98.6974 142.652C98.5169 142.936 98.4267 143.263 98.4267 143.635ZM111.445 146.961H106.483V145.724H111.445V146.961ZM117.206 140.53C117.932 140.53 118.606 140.696 119.229 141.028C119.851 141.359 120.361 141.924 120.759 142.724C121.16 143.519 121.361 144.575 121.361 145.89C121.361 147.215 121.188 148.348 120.842 149.287C120.496 150.223 120 150.936 119.356 151.425C118.711 151.912 117.947 152.155 117.063 152.155C116.411 152.155 115.823 152.029 115.3 151.779C114.777 151.529 114.35 151.177 114.019 150.724C113.691 150.267 113.479 149.738 113.383 149.138H114.775C114.908 149.672 115.17 150.101 115.56 150.425C115.954 150.746 116.455 150.906 117.063 150.906C117.674 150.906 118.203 150.735 118.648 150.392C119.098 150.05 119.442 149.554 119.682 148.906C119.921 148.254 120.043 147.473 120.046 146.564H119.891C119.564 147.039 119.147 147.409 118.643 147.674C118.142 147.936 117.593 148.066 116.996 148.066C116.326 148.066 115.707 147.906 115.14 147.586C114.577 147.262 114.127 146.814 113.792 146.243C113.461 145.672 113.295 145.031 113.295 144.32C113.295 143.624 113.455 142.987 113.775 142.409C114.1 141.831 114.558 141.374 115.151 141.039C115.748 140.7 116.433 140.53 117.206 140.53ZM114.665 144.309C114.665 144.773 114.774 145.199 114.991 145.586C115.212 145.969 115.516 146.273 115.903 146.497C116.289 146.718 116.724 146.829 117.206 146.829C117.685 146.829 118.124 146.711 118.521 146.475C118.923 146.236 119.24 145.921 119.472 145.53C119.707 145.14 119.825 144.726 119.825 144.287C119.825 143.853 119.713 143.442 119.488 143.055C119.263 142.669 118.954 142.357 118.56 142.122C118.17 141.886 117.733 141.768 117.251 141.768C116.768 141.768 116.328 141.882 115.93 142.11C115.536 142.339 115.225 142.648 114.996 143.039C114.772 143.425 114.661 143.849 114.665 144.309ZM126.997 152.155C126.164 152.155 125.452 151.928 124.859 151.475C124.269 151.018 123.818 150.355 123.505 149.486C123.196 148.617 123.041 147.569 123.041 146.343C123.041 145.127 123.198 144.085 123.511 143.215C123.824 142.343 124.277 141.678 124.87 141.221C125.463 140.761 126.172 140.53 126.997 140.53C127.822 140.53 128.531 140.761 129.124 141.221C129.717 141.678 130.17 142.343 130.483 143.215C130.796 144.085 130.953 145.127 130.953 146.343C130.953 147.569 130.796 148.617 130.483 149.486C130.174 150.355 129.722 151.018 129.129 151.475C128.54 151.928 127.829 152.155 126.997 152.155ZM124.411 146.343C124.411 147.311 124.512 148.138 124.715 148.823C124.918 149.505 125.212 150.022 125.599 150.376C125.986 150.729 126.452 150.906 126.997 150.906C127.542 150.906 128.008 150.729 128.395 150.376C128.781 150.022 129.076 149.505 129.279 148.823C129.481 148.138 129.582 147.311 129.582 146.343C129.582 145.374 129.479 144.547 129.273 143.862C129.07 143.173 128.776 142.65 128.389 142.293C128.002 141.936 127.538 141.757 126.997 141.757C126.455 141.757 125.991 141.936 125.605 142.293C125.218 142.65 124.921 143.173 124.715 143.862C124.512 144.547 124.411 145.374 124.411 146.343ZM136.528 152.155C135.696 152.155 134.983 151.928 134.39 151.475C133.801 151.018 133.349 150.355 133.036 149.486C132.727 148.617 132.572 147.569 132.572 146.343C132.572 145.127 132.729 144.085 133.042 143.215C133.355 142.343 133.808 141.678 134.401 141.221C134.994 140.761 135.703 140.53 136.528 140.53C137.353 140.53 138.062 140.761 138.655 141.221C139.248 141.678 139.701 142.343 140.014 143.215C140.327 144.085 140.484 145.127 140.484 146.343C140.484 147.569 140.327 148.617 140.014 149.486C139.705 150.355 139.254 151.018 138.661 151.475C138.071 151.928 137.36 152.155 136.528 152.155ZM133.942 146.343C133.942 147.311 134.044 148.138 134.246 148.823C134.449 149.505 134.744 150.022 135.13 150.376C135.517 150.729 135.983 150.906 136.528 150.906C137.073 150.906 137.539 150.729 137.926 150.376C138.313 150.022 138.607 149.505 138.81 148.823C139.012 148.138 139.114 147.311 139.114 146.343C139.114 145.374 139.011 144.547 138.804 143.862C138.602 143.173 138.307 142.65 137.92 142.293C137.534 141.936 137.069 141.757 136.528 141.757C135.987 141.757 135.523 141.936 135.136 142.293C134.749 142.65 134.453 143.173 134.246 143.862C134.044 144.547 133.942 145.374 133.942 146.343ZM146.059 152.155C145.227 152.155 144.514 151.928 143.921 151.475C143.332 151.018 142.881 150.355 142.568 149.486C142.258 148.617 142.104 147.569 142.104 146.343C142.104 145.127 142.26 144.085 142.573 143.215C142.886 142.343 143.339 141.678 143.932 141.221C144.525 140.761 145.234 140.53 146.059 140.53C146.884 140.53 147.593 140.761 148.186 141.221C148.779 141.678 149.232 142.343 149.545 143.215C149.859 144.085 150.015 145.127 150.015 146.343C150.015 147.569 149.859 148.617 149.545 149.486C149.236 150.355 148.785 151.018 148.192 151.475C147.603 151.928 146.892 152.155 146.059 152.155ZM143.474 146.343C143.474 147.311 143.575 148.138 143.778 148.823C143.98 149.505 144.275 150.022 144.662 150.376C145.048 150.729 145.514 150.906 146.059 150.906C146.604 150.906 147.07 150.729 147.457 150.376C147.844 150.022 148.138 149.505 148.341 148.823C148.544 148.138 148.645 147.311 148.645 146.343C148.645 145.374 148.542 144.547 148.336 143.862C148.133 143.173 147.838 142.65 147.452 142.293C147.065 141.936 146.601 141.757 146.059 141.757C145.518 141.757 145.054 141.936 144.667 142.293C144.28 142.65 143.984 143.173 143.778 143.862C143.575 144.547 143.474 145.374 143.474 146.343ZM155.591 152.155C154.758 152.155 154.045 151.928 153.452 151.475C152.863 151.018 152.412 150.355 152.099 149.486C151.789 148.617 151.635 147.569 151.635 146.343C151.635 145.127 151.791 144.085 152.104 143.215C152.417 142.343 152.87 141.678 153.463 141.221C154.056 140.761 154.766 140.53 155.591 140.53C156.416 140.53 157.125 140.761 157.718 141.221C158.311 141.678 158.764 142.343 159.077 143.215C159.39 144.085 159.546 145.127 159.546 146.343C159.546 147.569 159.39 148.617 159.077 149.486C158.767 150.355 158.316 151.018 157.723 151.475C157.134 151.928 156.423 152.155 155.591 152.155ZM153.005 146.343C153.005 147.311 153.106 148.138 153.309 148.823C153.511 149.505 153.806 150.022 154.193 150.376C154.58 150.729 155.045 150.906 155.591 150.906C156.136 150.906 156.602 150.729 156.988 150.376C157.375 150.022 157.67 149.505 157.872 148.823C158.075 148.138 158.176 147.311 158.176 146.343C158.176 145.374 158.073 144.547 157.867 143.862C157.664 143.173 157.37 142.65 156.983 142.293C156.596 141.936 156.132 141.757 155.591 141.757C155.049 141.757 154.585 141.936 154.198 142.293C153.812 142.65 153.515 143.173 153.309 143.862C153.106 144.547 153.005 145.374 153.005 146.343ZM165.122 152.155C164.289 152.155 163.577 151.928 162.984 151.475C162.394 151.018 161.943 150.355 161.63 149.486C161.321 148.617 161.166 147.569 161.166 146.343C161.166 145.127 161.323 144.085 161.636 143.215C161.949 142.343 162.402 141.678 162.995 141.221C163.588 140.761 164.297 140.53 165.122 140.53C165.947 140.53 166.656 140.761 167.249 141.221C167.842 141.678 168.295 142.343 168.608 143.215C168.921 144.085 169.078 145.127 169.078 146.343C169.078 147.569 168.921 148.617 168.608 149.486C168.299 150.355 167.847 151.018 167.254 151.475C166.665 151.928 165.954 152.155 165.122 152.155ZM162.536 146.343C162.536 147.311 162.637 148.138 162.84 148.823C163.043 149.505 163.337 150.022 163.724 150.376C164.111 150.729 164.577 150.906 165.122 150.906C165.667 150.906 166.133 150.729 166.52 150.376C166.906 150.022 167.201 149.505 167.404 148.823C167.606 148.138 167.707 147.311 167.707 146.343C167.707 145.374 167.604 144.547 167.398 143.862C167.195 143.173 166.901 142.65 166.514 142.293C166.127 141.936 165.663 141.757 165.122 141.757C164.58 141.757 164.116 141.936 163.73 142.293C163.343 142.65 163.046 143.173 162.84 143.862C162.637 144.547 162.536 145.374 162.536 146.343Z" fill="#111827"/>
<mask id="mask1_241_275" style="mask-type:alpha" maskUnits="userSpaceOnUse" x="405" y="123" width="20" height="20">
<rect x="405" y="123" width="20" height="20" fill="#D9D9D9"/>
</mask>
<g mask="url(#mask1_241_275)">
<path d="M414.996 139C414.582 139 414.229 138.853 413.938 138.558C413.646 138.264 413.5 137.909 413.5 137.496C413.5 137.082 413.647 136.729 413.942 136.438C414.236 136.146 414.591 136 415.004 136C415.418 136 415.771 136.147 416.062 136.442C416.354 136.736 416.5 137.091 416.5 137.504C416.5 137.918 416.353 138.271 416.058 138.562C415.764 138.854 415.409 139 414.996 139ZM414.996 134.5C414.582 134.5 414.229 134.353 413.938 134.058C413.646 133.764 413.5 133.409 413.5 132.996C413.5 132.582 413.647 132.229 413.942 131.938C414.236 131.646 414.591 131.5 415.004 131.5C415.418 131.5 415.771 131.647 416.062 131.942C416.354 132.236 416.5 132.591 416.5 133.004C416.5 133.418 416.353 133.771 416.058 134.062C415.764 134.354 415.409 134.5 414.996 134.5ZM414.996 130C414.582 130 414.229 129.853 413.938 129.558C413.646 129.264 413.5 128.909 413.5 128.496C413.5 128.082 413.647 127.729 413.942 127.438C414.236 127.146 414.591 127 415.004 127C415.418 127 415.771 127.147 416.062 127.442C416.354 127.736 416.5 128.091 416.5 128.504C416.5 128.918 416.353 129.271 416.058 129.562C415.764 129.854 415.409 130 414.996 130Z" fill="#9CA3AF"/>
</g>
<path d="M187.445 246.547V272H182.84V251.012H182.699L176.758 254.809V250.625L183.051 246.547H187.445ZM203.02 272.352C196.902 272.352 193.246 267.605 193.246 259.273C193.246 250.977 196.902 246.195 203.02 246.195C209.102 246.195 212.793 250.977 212.793 259.273C212.793 267.605 209.137 272.352 203.02 272.352ZM203.02 268.52C206.219 268.52 208.188 265.391 208.188 259.273C208.188 253.191 206.184 249.992 203.02 249.992C199.855 249.992 197.852 253.191 197.852 259.273C197.852 265.391 199.82 268.52 203.02 268.52ZM226.012 272.352C219.895 272.352 216.238 267.605 216.238 259.273C216.238 250.977 219.895 246.195 226.012 246.195C232.094 246.195 235.785 250.977 235.785 259.273C235.785 267.605 232.129 272.352 226.012 272.352ZM226.012 268.52C229.211 268.52 231.18 265.391 231.18 259.273C231.18 253.191 229.176 249.992 226.012 249.992C222.848 249.992 220.844 253.191 220.844 259.273C220.844 265.391 222.812 268.52 226.012 268.52Z" fill="#111827"/>
<path d="M270.035 243.629V267.359H267.258V264.125H260.789V262.121H267.258V243.629H270.035ZM244.09 258.113C249.908 258.078 257.748 258.025 264.445 257.199L264.621 259.203C261.844 259.643 258.908 259.924 256.043 260.1V266.27H253.266V260.24C250.102 260.363 247.096 260.363 244.477 260.363L244.09 258.113ZM246.621 250.344C246.604 247.057 249.732 244.895 254.355 244.895C258.943 244.895 262.072 247.057 262.09 250.344C262.072 253.684 258.943 255.758 254.355 255.758C249.732 255.758 246.604 253.684 246.621 250.344ZM248.59 274.18V265.039H251.367V271.859H270.809V274.18H248.59ZM249.258 250.344C249.223 252.383 251.297 253.701 254.355 253.719C257.326 253.701 259.436 252.383 259.453 250.344C259.436 248.34 257.326 246.969 254.355 247.004C251.297 246.969 249.223 248.34 249.258 250.344Z" fill="#111827"/>
<path d="M208.497 298.89C209.182 298.893 209.797 299.026 210.343 299.287C210.891 299.549 211.32 299.913 211.63 300.381C211.939 300.845 212.096 301.376 212.099 301.972C212.096 302.569 211.939 303.099 211.63 303.564C211.32 304.028 210.891 304.389 210.343 304.646C209.797 304.904 209.182 305.033 208.497 305.033C207.805 305.033 207.184 304.904 206.635 304.646C206.087 304.389 205.657 304.028 205.348 303.564C205.039 303.099 204.884 302.569 204.884 301.972C204.884 301.376 205.039 300.845 205.348 300.381C205.657 299.913 206.087 299.549 206.635 299.287C207.184 299.026 207.805 298.893 208.497 298.89ZM206.088 301.972C206.085 302.37 206.186 302.726 206.392 303.039C206.602 303.352 206.89 303.595 207.254 303.768C207.622 303.941 208.037 304.028 208.497 304.028C208.954 304.028 209.365 303.941 209.729 303.768C210.098 303.595 210.385 303.352 210.591 303.039C210.801 302.726 210.906 302.37 210.906 301.972C210.906 301.578 210.801 301.225 210.591 300.912C210.385 300.599 210.098 300.355 209.729 300.182C209.365 300.009 208.954 299.924 208.497 299.928C208.037 299.924 207.622 300.009 207.254 300.182C206.89 300.355 206.602 300.599 206.392 300.912C206.186 301.225 206.085 301.578 206.088 301.972ZM206.994 306.182H216.033V309.53H208.232V311.088H216.53V312.083H207.039V308.602H214.818V307.177H206.994V306.182ZM214.807 298.381H216.033V305.508H214.807V298.381ZM220.193 301.475H223.287V299.265H224.436V305.74H219.033V299.265H220.193V301.475ZM223.287 304.724V302.448H220.193V304.724H223.287ZM220.823 307.564H230.182V312.271H228.977V308.58H220.823V307.564ZM226.016 298.657H227.165V302.006H229.021V298.392H230.182V306.724H229.021V303.022H227.165V306.635H226.016V298.657ZM243.667 308.945H242.43V307.497H239.568V306.602H242.43V298.392H243.667V308.945ZM232.142 304.823C233.977 304.816 235.614 304.788 237.054 304.74C238.498 304.689 239.874 304.58 241.181 304.414L241.27 305.309C240.117 305.494 238.842 305.628 237.446 305.713V308.459H236.22V305.773C235.273 305.81 234.194 305.829 232.982 305.829H232.308L232.142 304.823ZM233.258 301.376C233.258 300.897 233.402 300.475 233.689 300.11C233.977 299.742 234.382 299.459 234.905 299.26C235.428 299.057 236.028 298.956 236.706 298.956C237.376 298.956 237.971 299.057 238.491 299.26C239.01 299.459 239.413 299.742 239.7 300.11C239.991 300.475 240.139 300.897 240.142 301.376C240.139 301.862 239.991 302.287 239.7 302.652C239.413 303.013 239.01 303.293 238.491 303.492C237.975 303.687 237.38 303.785 236.706 303.785C236.025 303.785 235.422 303.687 234.899 303.492C234.38 303.297 233.977 303.017 233.689 302.652C233.402 302.287 233.258 301.862 233.258 301.376ZM234.142 307.906H235.369V310.945H244.01V311.961H234.142V307.906ZM234.43 301.376C234.426 301.674 234.518 301.936 234.706 302.16C234.898 302.385 235.166 302.56 235.513 302.685C235.859 302.807 236.257 302.867 236.706 302.867C237.141 302.867 237.529 302.807 237.872 302.685C238.214 302.56 238.481 302.385 238.673 302.16C238.868 301.936 238.967 301.674 238.971 301.376C238.967 301.081 238.868 300.821 238.673 300.597C238.481 300.368 238.214 300.192 237.872 300.066C237.529 299.941 237.141 299.88 236.706 299.884C236.257 299.88 235.859 299.941 235.513 300.066C235.166 300.192 234.898 300.368 234.706 300.597C234.518 300.821 234.426 301.081 234.43 301.376Z" fill="#9CA3AF"/>
<path d="M25 378C25 372.477 29.4772 368 35 368H415C420.523 368 425 372.477 425 378V785H25V378Z" fill="white"/>
<path d="M25.5 373C25.5 370.515 27.5147 368.5 30 368.5H104.5V413.5H30C27.5147 413.5 25.5 411.485 25.5 409V373Z" stroke="#D1D5DB"/>
<path d="M63.0773 394.58H61.8508V389.243H58.989V388.238H61.8508V384.392H63.0773V394.58ZM51.6188 391.796C52.3002 391.556 52.9079 391.206 53.442 390.746C53.9797 390.282 54.3996 389.748 54.7017 389.144C55.0037 388.536 55.1547 387.906 55.1547 387.254V386.536H52.0166V385.519H59.4972V386.536H56.3923V387.254C56.3923 387.843 56.5359 388.42 56.8232 388.983C57.1142 389.547 57.5175 390.048 58.0331 390.486C58.5525 390.924 59.1473 391.258 59.8177 391.486L59.1768 392.47C58.3996 392.19 57.7182 391.773 57.1326 391.221C56.547 390.669 56.1013 390.029 55.7956 389.304C55.4936 390.107 55.035 390.814 54.4199 391.425C53.8048 392.033 53.0847 392.492 52.2597 392.801L51.6188 391.796ZM54.1602 393.663H55.3867V396.945H63.4641V397.961H54.1602V393.663ZM68.7176 385.254C69.3217 385.254 69.865 385.394 70.3475 385.674C70.8337 385.95 71.213 386.339 71.4856 386.84C71.7618 387.337 71.8999 387.902 71.8999 388.536C71.8999 389.169 71.7618 389.733 71.4856 390.227C71.213 390.72 70.8355 391.103 70.353 391.376C69.8705 391.648 69.3254 391.785 68.7176 391.785C68.1025 391.785 67.5537 391.648 67.0712 391.376C66.5887 391.103 66.213 390.72 65.9441 390.227C65.6753 389.733 65.5427 389.169 65.5464 388.536C65.5427 387.899 65.6753 387.331 65.9441 386.834C66.2167 386.337 66.5942 385.95 67.0767 385.674C67.5592 385.394 68.1062 385.254 68.7176 385.254ZM66.6513 388.536C66.6476 388.956 66.7342 389.335 66.911 389.674C67.0915 390.013 67.3383 390.278 67.6513 390.47C67.9681 390.657 68.3235 390.75 68.7176 390.746C69.1081 390.75 69.4598 390.657 69.7729 390.47C70.086 390.278 70.3309 390.015 70.5077 389.68C70.6882 389.341 70.7802 388.959 70.7839 388.536C70.7802 388.112 70.6882 387.731 70.5077 387.392C70.3309 387.053 70.086 386.79 69.7729 386.602C69.4598 386.411 69.1081 386.315 68.7176 386.315C68.3235 386.315 67.9681 386.411 67.6513 386.602C67.3383 386.79 67.0915 387.053 66.911 387.392C66.7342 387.731 66.6476 388.112 66.6513 388.536ZM67.8226 393.431H77.1817V398.271H75.9773V394.425H67.8226V393.431ZM73.016 384.657H74.1762V387.972H76.0215V384.392H77.1817V392.657H76.0215V388.978H74.1762V392.558H73.016V384.657Z" fill="#4B5563"/>
<mask id="path-17-inside-2_241_275" fill="white">
<path d="M105 368H185V414H105V368Z"/>
</mask>
<path d="M185 368H186V367H185V368ZM185 414V415H186V414H185ZM105 369H185V367H105V369ZM184 368V414H186V368H184ZM185 413H105V415H185V413Z" fill="#D1D5DB" mask="url(#path-17-inside-2_241_275)"/>
<path d="M124.376 393.21H121.359V391.939H124.376V388.923H125.646V391.939H128.674V393.21H125.646V396.238H124.376V393.21ZM135.092 397H133.678V387.155H133.611L130.86 388.978V387.564L133.678 385.685H135.092V397ZM141.809 397.155C140.977 397.155 140.264 396.928 139.671 396.475C139.082 396.018 138.631 395.355 138.318 394.486C138.008 393.617 137.854 392.569 137.854 391.343C137.854 390.127 138.01 389.085 138.323 388.215C138.636 387.343 139.089 386.678 139.682 386.221C140.275 385.761 140.984 385.53 141.809 385.53C142.634 385.53 143.343 385.761 143.936 386.221C144.529 386.678 144.982 387.343 145.295 388.215C145.609 389.085 145.765 390.127 145.765 391.343C145.765 392.569 145.609 393.617 145.295 394.486C144.986 395.355 144.535 396.018 143.942 396.475C143.353 396.928 142.642 397.155 141.809 397.155ZM139.224 391.343C139.224 392.311 139.325 393.138 139.528 393.823C139.73 394.505 140.025 395.022 140.412 395.376C140.798 395.729 141.264 395.906 141.809 395.906C142.354 395.906 142.82 395.729 143.207 395.376C143.594 395.022 143.888 394.505 144.091 393.823C144.294 393.138 144.395 392.311 144.395 391.343C144.395 390.374 144.292 389.547 144.086 388.862C143.883 388.173 143.588 387.65 143.202 387.293C142.815 386.936 142.351 386.757 141.809 386.757C141.268 386.757 140.804 386.936 140.417 387.293C140.03 387.65 139.734 388.173 139.528 388.862C139.325 389.547 139.224 390.374 139.224 391.343ZM151.341 397.155C150.508 397.155 149.795 396.928 149.202 396.475C148.613 396.018 148.162 395.355 147.849 394.486C147.539 393.617 147.385 392.569 147.385 391.343C147.385 390.127 147.541 389.085 147.854 388.215C148.167 387.343 148.62 386.678 149.213 386.221C149.806 385.761 150.516 385.53 151.341 385.53C152.166 385.53 152.875 385.761 153.468 386.221C154.061 386.678 154.514 387.343 154.827 388.215C155.14 389.085 155.296 390.127 155.296 391.343C155.296 392.569 155.14 393.617 154.827 394.486C154.517 395.355 154.066 396.018 153.473 396.475C152.884 396.928 152.173 397.155 151.341 397.155ZM148.755 391.343C148.755 392.311 148.856 393.138 149.059 393.823C149.261 394.505 149.556 395.022 149.943 395.376C150.33 395.729 150.795 395.906 151.341 395.906C151.886 395.906 152.352 395.729 152.738 395.376C153.125 395.022 153.42 394.505 153.622 393.823C153.825 393.138 153.926 392.311 153.926 391.343C153.926 390.374 153.823 389.547 153.617 388.862C153.414 388.173 153.12 387.65 152.733 387.293C152.346 386.936 151.882 386.757 151.341 386.757C150.799 386.757 150.335 386.936 149.948 387.293C149.562 387.65 149.265 388.173 149.059 388.862C148.856 389.547 148.755 390.374 148.755 391.343ZM163.689 392.039H157.27V385.641H163.689V392.039ZM162.496 391.044V386.646H158.463V391.044H162.496ZM158.839 393.597H160.054V396.945H168.176V397.961H158.839V393.597ZM166.308 384.37H167.535V388.602H169.623V389.641H167.535V394.558H166.308V384.37Z" fill="#4B5563"/>
<mask id="path-20-inside-3_241_275" fill="white">
<path d="M185 368H265V414H185V368Z"/>
</mask>
<path d="M265 368H266V367H265V368ZM265 414V415H266V414H265ZM185 369H265V367H185V369ZM264 368V414H266V368H264ZM265 413H185V415H265V413Z" fill="#D1D5DB" mask="url(#path-20-inside-3_241_275)"/>
<path d="M208.876 393.21H205.859V391.939H208.876V388.923H210.146V391.939H213.174V393.21H210.146V396.238H208.876V393.21ZM219.592 397H218.178V387.155H218.111L215.36 388.978V387.564L218.178 385.685H219.592V397ZM226.309 397.155C225.477 397.155 224.764 396.928 224.171 396.475C223.582 396.018 223.131 395.355 222.818 394.486C222.508 393.617 222.354 392.569 222.354 391.343C222.354 390.127 222.51 389.085 222.823 388.215C223.136 387.343 223.589 386.678 224.182 386.221C224.775 385.761 225.484 385.53 226.309 385.53C227.134 385.53 227.843 385.761 228.436 386.221C229.029 386.678 229.482 387.343 229.795 388.215C230.109 389.085 230.265 390.127 230.265 391.343C230.265 392.569 230.109 393.617 229.795 394.486C229.486 395.355 229.035 396.018 228.442 396.475C227.853 396.928 227.142 397.155 226.309 397.155ZM223.724 391.343C223.724 392.311 223.825 393.138 224.028 393.823C224.23 394.505 224.525 395.022 224.912 395.376C225.298 395.729 225.764 395.906 226.309 395.906C226.854 395.906 227.32 395.729 227.707 395.376C228.094 395.022 228.388 394.505 228.591 393.823C228.794 393.138 228.895 392.311 228.895 391.343C228.895 390.374 228.792 389.547 228.586 388.862C228.383 388.173 228.088 387.65 227.702 387.293C227.315 386.936 226.851 386.757 226.309 386.757C225.768 386.757 225.304 386.936 224.917 387.293C224.53 387.65 224.234 388.173 224.028 388.862C223.825 389.547 223.724 390.374 223.724 391.343ZM238.658 392.039H232.238V385.641H238.658V392.039ZM237.465 391.044V386.646H233.432V391.044H237.465ZM233.807 393.597H235.023V396.945H243.144V397.961H233.807V393.597ZM241.277 384.37H242.504V388.602H244.592V389.641H242.504V394.558H241.277V384.37Z" fill="#4B5563"/>
<mask id="path-23-inside-4_241_275" fill="white">
<path d="M265 368H345V414H265V368Z"/>
</mask>
<path d="M345 368H346V367H345V368ZM345 414V415H346V414H345ZM265 369H345V367H265V369ZM344 368V414H346V368H344ZM345 413H265V415H345V413Z" fill="#D1D5DB" mask="url(#path-23-inside-4_241_275)"/>
<path d="M292.376 393.21H289.359V391.939H292.376V388.923H293.646V391.939H296.674V393.21H293.646V396.238H292.376V393.21ZM302.783 397.155C302.109 397.155 301.497 397.026 300.948 396.768C300.4 396.51 299.961 396.155 299.633 395.702C299.309 395.245 299.133 394.731 299.103 394.16H300.473C300.506 394.492 300.628 394.792 300.838 395.061C301.052 395.326 301.328 395.536 301.667 395.691C302.009 395.842 302.381 395.917 302.783 395.917C303.265 395.917 303.698 395.808 304.081 395.591C304.468 395.374 304.77 395.076 304.987 394.696C305.204 394.317 305.313 393.891 305.313 393.42C305.313 392.937 305.199 392.503 304.97 392.116C304.746 391.726 304.433 391.42 304.031 391.199C303.633 390.974 303.184 390.86 302.683 390.856C301.674 390.845 300.97 391.184 300.573 391.873H299.214L300.009 385.685H306.142V386.934H301.18L300.761 390.249H300.882C301.136 390.05 301.444 389.891 301.805 389.773C302.169 389.656 302.547 389.597 302.937 389.597C303.648 389.597 304.287 389.761 304.854 390.088C305.425 390.413 305.873 390.864 306.197 391.442C306.521 392.017 306.683 392.665 306.683 393.387C306.683 394.105 306.516 394.751 306.18 395.326C305.845 395.897 305.381 396.344 304.788 396.669C304.195 396.993 303.527 397.155 302.783 397.155ZM315.158 392.039H308.738V385.641H315.158V392.039ZM313.965 391.044V386.646H309.932V391.044H313.965ZM310.307 393.597H311.523V396.945H319.644V397.961H310.307V393.597ZM317.777 384.37H319.004V388.602H321.092V389.641H319.004V394.558H317.777V384.37Z" fill="#4B5563"/>
<mask id="path-26-inside-5_241_275" fill="white">
<path d="M345 368H420C422.761 368 425 370.239 425 373V409C425 411.761 422.761 414 420 414H345V368Z"/>
</mask>
<path d="M345 367H420C423.314 367 426 369.686 426 373H424C424 370.791 422.209 369 420 369H345V367ZM426 409C426 412.314 423.314 415 420 415H345V413H420C422.209 413 424 411.209 424 409H426ZM345 414V368V414ZM420 367C423.314 367 426 369.686 426 373V409C426 412.314 423.314 415 420 415V413C422.209 413 424 411.209 424 409V373C424 370.791 422.209 369 420 369V367Z" fill="#D1D5DB" mask="url(#path-26-inside-5_241_275)"/>
<path d="M373.876 393.21H370.859V391.939H373.876V388.923H375.146V391.939H378.174V393.21H375.146V396.238H373.876V393.21ZM384.592 397H383.178V387.155H383.111L380.36 388.978V387.564L383.178 385.685H384.592V397ZM394.127 392.039H387.707V385.641H394.127V392.039ZM392.934 391.044V386.646H388.9V391.044H392.934ZM389.276 393.597H390.492V396.945H398.613V397.961H389.276V393.597ZM396.746 384.37H397.972V388.602H400.061V389.641H397.972V394.558H396.746V384.37Z" fill="#4B5563"/>
<path d="M91.6653 476.29C90.1943 476.29 88.8856 476.038 87.7392 475.534C86.5928 475.03 85.7019 474.329 85.0665 473.431C84.4312 472.526 84.1169 471.504 84.1239 470.365C84.1169 469.474 84.3034 468.642 84.6832 467.868C85.0631 467.088 85.581 466.445 86.2371 465.941C86.9001 465.43 87.6321 465.109 88.4332 464.978V464.874C87.7426 464.709 87.1314 464.398 86.5997 463.942C86.0679 463.486 85.657 462.927 85.3669 462.264C85.0769 461.601 84.9319 460.89 84.9319 460.13C84.9319 459.059 85.2219 458.096 85.802 457.24C86.3821 456.383 87.1832 455.713 88.2053 455.23C89.2343 454.74 90.3877 454.494 91.6653 454.494C92.936 454.494 94.079 454.74 95.0942 455.23C96.1163 455.713 96.9174 456.383 97.4975 457.24C98.0776 458.096 98.3711 459.059 98.378 460.13C98.3711 460.89 98.2192 461.601 97.9222 462.264C97.6321 462.927 97.2212 463.486 96.6895 463.942C96.1646 464.398 95.5603 464.709 94.8766 464.874V464.978C95.6708 465.109 96.396 465.43 97.052 465.941C97.715 466.445 98.2364 467.088 98.6163 467.868C99.003 468.642 99.1998 469.474 99.2067 470.365C99.1998 471.504 98.8752 472.526 98.233 473.431C97.5907 474.329 96.6964 475.03 95.55 475.534C94.4105 476.038 93.1156 476.29 91.6653 476.29ZM86.7551 470.22C86.7413 470.965 86.9312 471.622 87.3248 472.188C87.7185 472.747 88.2882 473.186 89.0341 473.503C89.7799 473.814 90.657 473.97 91.6653 473.97C92.6598 473.97 93.5265 473.814 94.2654 473.503C95.0044 473.186 95.5741 472.747 95.9747 472.188C96.3752 471.622 96.5755 470.965 96.5755 470.22C96.5755 469.446 96.3614 468.752 95.9332 468.137C95.512 467.523 94.9284 467.039 94.1826 466.687C93.4367 466.335 92.5976 466.159 91.6653 466.159C90.7261 466.159 89.8801 466.335 89.1273 466.687C88.3745 467.039 87.7875 467.526 87.3663 468.148C86.945 468.762 86.7413 469.453 86.7551 470.22ZM87.5009 460.316C87.5009 461.028 87.677 461.656 88.0292 462.202C88.3814 462.747 88.8718 463.172 89.5002 463.476C90.1356 463.773 90.8573 463.921 91.6653 463.921C92.4595 463.921 93.1708 463.773 93.7993 463.476C94.4277 463.172 94.9181 462.747 95.2703 462.202C95.6294 461.649 95.8089 461.021 95.8089 460.316C95.8089 459.619 95.6328 459.004 95.2806 458.472C94.9353 457.934 94.4484 457.516 93.82 457.219C93.1984 456.922 92.4802 456.773 91.6653 456.773C90.8366 456.773 90.1045 456.922 89.4692 457.219C88.8407 457.516 88.3538 457.934 88.0085 458.472C87.6701 459.004 87.5009 459.619 87.5009 460.316Z" fill="#222222"/>
<path d="M224.772 454.494C226.132 454.494 227.396 454.805 228.563 455.427C229.73 456.048 230.687 457.108 231.433 458.607C232.185 460.099 232.562 462.077 232.562 464.543C232.562 467.029 232.237 469.153 231.588 470.914C230.939 472.668 230.01 474.004 228.801 474.923C227.593 475.834 226.16 476.29 224.502 476.29C223.28 476.29 222.178 476.055 221.198 475.586C220.217 475.116 219.416 474.456 218.794 473.607C218.18 472.751 217.783 471.76 217.603 470.634H220.214C220.462 471.635 220.953 472.44 221.685 473.048C222.424 473.648 223.363 473.949 224.502 473.949C225.649 473.949 226.64 473.628 227.475 472.985C228.318 472.343 228.964 471.414 229.413 470.199C229.861 468.977 230.089 467.512 230.096 465.807H229.806C229.192 466.698 228.411 467.392 227.465 467.889C226.526 468.379 225.497 468.624 224.378 468.624C223.121 468.624 221.961 468.324 220.897 467.723C219.841 467.115 218.998 466.276 218.37 465.206C217.748 464.135 217.437 462.934 217.437 461.601C217.437 460.296 217.738 459.101 218.339 458.017C218.946 456.932 219.806 456.076 220.918 455.448C222.037 454.812 223.321 454.494 224.772 454.494ZM220.007 461.58C220.007 462.45 220.21 463.248 220.618 463.973C221.032 464.691 221.602 465.261 222.327 465.682C223.052 466.097 223.867 466.304 224.772 466.304C225.669 466.304 226.491 466.083 227.237 465.641C227.99 465.192 228.584 464.602 229.019 463.869C229.461 463.137 229.682 462.36 229.682 461.539C229.682 460.724 229.471 459.954 229.05 459.229C228.629 458.503 228.049 457.92 227.31 457.478C226.578 457.036 225.759 456.815 224.855 456.815C223.95 456.815 223.125 457.029 222.379 457.457C221.64 457.885 221.056 458.465 220.628 459.198C220.207 459.923 220 460.717 220.007 461.58Z" fill="#222222"/>
<path d="M358.399 476.29C357.004 476.29 355.754 476.055 354.649 475.586C353.544 475.116 352.67 474.456 352.028 473.607C351.393 472.758 351.051 471.78 351.002 470.675H353.675C353.723 471.331 353.958 471.908 354.379 472.405C354.801 472.896 355.357 473.276 356.047 473.545C356.745 473.814 357.515 473.949 358.357 473.949C359.283 473.949 360.112 473.794 360.844 473.483C361.576 473.165 362.149 472.723 362.563 472.157C362.978 471.59 363.185 470.945 363.185 470.22C363.185 469.446 362.981 468.762 362.574 468.169C362.173 467.575 361.586 467.112 360.812 466.78C360.039 466.449 359.11 466.283 358.026 466.283H356.306V463.963H358.026C358.882 463.963 359.642 463.811 360.305 463.507C360.975 463.203 361.493 462.778 361.859 462.233C362.232 461.68 362.418 461.041 362.418 460.316C362.418 459.619 362.256 459.004 361.931 458.472C361.607 457.941 361.144 457.53 360.543 457.24C359.942 456.943 359.241 456.794 358.44 456.794C357.681 456.794 356.966 456.929 356.296 457.198C355.633 457.468 355.094 457.854 354.68 458.358C354.266 458.856 354.041 459.439 354.007 460.109H351.458C351.5 459.018 351.838 458.048 352.473 457.198C353.109 456.342 353.955 455.679 355.011 455.209C356.068 454.733 357.225 454.494 358.482 454.494C359.787 454.494 360.93 454.753 361.911 455.271C362.898 455.789 363.654 456.483 364.179 457.354C364.711 458.224 364.973 459.17 364.966 460.192C364.973 460.979 364.832 461.698 364.542 462.347C364.252 462.996 363.834 463.545 363.288 463.994C362.743 464.443 362.1 464.771 361.362 464.978V465.144C362.273 465.282 363.06 465.582 363.723 466.045C364.393 466.501 364.904 467.091 365.257 467.816C365.609 468.535 365.781 469.343 365.775 470.24C365.781 471.38 365.464 472.412 364.821 473.338C364.186 474.256 363.302 474.978 362.17 475.503C361.044 476.028 359.787 476.29 358.399 476.29Z" fill="#222222"/>
<path d="M84.8312 547.073L92.0618 539.449C93.0149 538.434 93.74 537.619 94.2373 537.004C94.7414 536.383 95.1247 535.785 95.3871 535.212C95.6496 534.632 95.7842 534.028 95.7911 533.399C95.7842 532.681 95.5943 532.049 95.2214 531.503C94.8554 530.958 94.3512 530.537 93.7089 530.24C93.0736 529.943 92.3588 529.794 91.5646 529.794C90.7359 529.794 90.0073 529.96 89.3788 530.291C88.7573 530.623 88.2773 531.089 87.9389 531.69C87.6074 532.291 87.4417 532.985 87.4417 533.772H84.9348C84.9279 532.543 85.2145 531.455 85.7946 530.509C86.3816 529.556 87.1862 528.817 88.2083 528.292C89.2304 527.76 90.3768 527.494 91.6475 527.494C92.9044 527.494 94.0335 527.757 95.0349 528.282C96.0432 528.8 96.8305 529.508 97.3968 530.405C97.9631 531.303 98.2497 532.301 98.2566 533.399C98.2497 534.207 98.0978 534.981 97.8008 535.72C97.5107 536.452 97.017 537.267 96.3194 538.164C95.6288 539.062 94.6447 540.167 93.3671 541.479L88.519 546.493V546.659H98.6295V549H84.8519L84.8312 547.073Z" fill="#222222"/>
<path d="M225.248 549.29C223.881 549.29 222.61 548.983 221.436 548.368C220.269 547.747 219.309 546.686 218.556 545.188C217.81 543.682 217.437 541.686 217.437 539.2C217.437 536.728 217.762 534.615 218.411 532.86C219.06 531.106 219.989 529.773 221.198 528.862C222.406 527.95 223.839 527.494 225.497 527.494C226.719 527.494 227.817 527.733 228.791 528.209C229.772 528.679 230.569 529.338 231.184 530.188C231.799 531.03 232.196 532.004 232.375 533.109H229.765C229.516 532.128 229.026 531.338 228.294 530.737C227.562 530.136 226.629 529.836 225.497 529.836C224.344 529.836 223.349 530.157 222.513 530.799C221.678 531.434 221.036 532.36 220.587 533.575C220.145 534.791 219.924 536.244 219.924 537.936H220.193C220.808 537.039 221.585 536.345 222.524 535.854C223.47 535.364 224.509 535.119 225.642 535.119C226.892 535.119 228.045 535.423 229.102 536.03C230.158 536.631 230.998 537.467 231.619 538.537C232.248 539.608 232.562 540.809 232.562 542.142C232.562 543.468 232.258 544.677 231.65 545.768C231.042 546.852 230.183 547.712 229.071 548.347C227.966 548.976 226.692 549.29 225.248 549.29ZM220.297 542.204C220.297 543.033 220.507 543.814 220.928 544.546C221.35 545.278 221.93 545.865 222.669 546.307C223.415 546.749 224.247 546.97 225.165 546.97C226.063 546.97 226.882 546.756 227.62 546.327C228.359 545.899 228.94 545.319 229.361 544.587C229.789 543.848 230.007 543.04 230.013 542.163C230.007 541.307 229.796 540.519 229.382 539.801C228.974 539.076 228.408 538.503 227.683 538.081C226.957 537.653 226.146 537.439 225.248 537.439C224.344 537.439 223.511 537.66 222.752 538.102C221.999 538.544 221.402 539.131 220.96 539.863C220.524 540.595 220.303 541.376 220.297 542.204Z" fill="#222222"/>
<path d="M361.245 549H358.593V530.54H358.469L353.31 533.959V531.307L358.593 527.785H361.245V549Z" fill="#222222"/>
<path d="M83.7773 615.494L93.3284 600.785H96.5605V615.349H99.5439V617.67H96.5605V622H94.0536V617.67H83.7773V615.494ZM94.0536 615.349V604.12H93.8049L86.6157 615.184V615.349H94.0536Z" fill="#222222"/>
<path d="M229.113 603.291V603.126H217.904V600.785H231.848V603.25L222.152 622H219.375L229.113 603.291Z" fill="#222222"/>
<path d="M358.292 622.29C357.028 622.29 355.882 622.048 354.853 621.565C353.824 621.081 353.002 620.415 352.387 619.566C351.78 618.709 351.448 617.746 351.393 616.675H353.962C354.024 617.297 354.252 617.86 354.646 618.364C355.046 618.861 355.564 619.255 356.2 619.545C356.842 619.828 357.539 619.97 358.292 619.97C359.197 619.97 360.008 619.766 360.726 619.358C361.452 618.951 362.018 618.392 362.425 617.68C362.833 616.969 363.037 616.171 363.037 615.287C363.037 614.383 362.822 613.568 362.394 612.843C361.973 612.11 361.386 611.537 360.633 611.123C359.887 610.702 359.045 610.488 358.106 610.481C356.213 610.46 354.894 611.095 354.148 612.387H351.6L353.092 600.785H364.59V603.126H355.288L354.501 609.341H354.729C355.205 608.968 355.782 608.671 356.459 608.45C357.142 608.229 357.85 608.119 358.582 608.119C359.915 608.119 361.113 608.426 362.177 609.041C363.247 609.648 364.086 610.494 364.694 611.579C365.302 612.656 365.606 613.872 365.606 615.225C365.606 616.572 365.291 617.784 364.663 618.861C364.034 619.932 363.164 620.771 362.052 621.378C360.941 621.986 359.687 622.29 358.292 622.29Z" fill="#222222"/>
<path d="M82.7251 695.29C81.1644 695.29 79.828 694.865 78.7162 694.016C77.6112 693.16 76.7652 691.916 76.1782 690.287C75.5981 688.657 75.308 686.692 75.308 684.392C75.308 682.113 75.6015 680.159 76.1885 678.529C76.7755 676.892 77.625 675.646 78.7369 674.789C79.8487 673.926 81.1782 673.494 82.7251 673.494C84.2721 673.494 85.6015 673.926 86.7134 674.789C87.8253 675.646 88.6747 676.892 89.2617 678.529C89.8487 680.159 90.1423 682.113 90.1423 684.392C90.1423 686.692 89.8487 688.657 89.2617 690.287C88.6816 691.916 87.8356 693.16 86.7237 694.016C85.6188 694.865 84.2859 695.29 82.7251 695.29ZM77.8771 684.392C77.8771 686.209 78.067 687.759 78.4468 689.044C78.8266 690.321 79.3791 691.291 80.1043 691.954C80.8294 692.617 81.703 692.949 82.7251 692.949C83.7472 692.949 84.6208 692.617 85.346 691.954C86.0711 691.291 86.6236 690.321 87.0034 689.044C87.3833 687.759 87.5732 686.209 87.5732 684.392C87.5732 682.576 87.3798 681.026 86.9931 679.741C86.6133 678.45 86.0608 677.469 85.3356 676.799C84.6105 676.129 83.7403 675.794 82.7251 675.794C81.7099 675.794 80.8398 676.129 80.1146 676.799C79.3895 677.469 78.8336 678.45 78.4468 679.741C78.067 681.026 77.8771 682.576 77.8771 684.392ZM100.596 695.29C99.0354 695.29 97.6991 694.865 96.5872 694.016C95.4823 693.16 94.6363 691.916 94.0493 690.287C93.4692 688.657 93.1791 686.692 93.1791 684.392C93.1791 682.113 93.4726 680.159 94.0596 678.529C94.6466 676.892 95.4961 675.646 96.608 674.789C97.7198 673.926 99.0493 673.494 100.596 673.494C102.143 673.494 103.473 673.926 104.584 674.789C105.696 675.646 106.546 676.892 107.133 678.529C107.72 680.159 108.013 682.113 108.013 684.392C108.013 686.692 107.72 688.657 107.133 690.287C106.553 691.916 105.707 693.16 104.595 694.016C103.49 694.865 102.157 695.29 100.596 695.29ZM95.7482 684.392C95.7482 686.209 95.9381 687.759 96.3179 689.044C96.6977 690.321 97.2502 691.291 97.9754 691.954C98.7005 692.617 99.5741 692.949 100.596 692.949C101.618 692.949 102.492 692.617 103.217 691.954C103.942 691.291 104.495 690.321 104.875 689.044C105.254 687.759 105.444 686.209 105.444 684.392C105.444 682.576 105.251 681.026 104.864 679.741C104.484 678.45 103.932 677.469 103.207 676.799C102.482 676.129 101.611 675.794 100.596 675.794C99.581 675.794 98.7109 676.129 97.9857 676.799C97.2606 677.469 96.7046 678.45 96.3179 679.741C95.9381 681.026 95.7482 682.576 95.7482 684.392Z" fill="#222222"/>
<path d="M224.994 695.29C223.433 695.29 222.097 694.865 220.985 694.016C219.88 693.16 219.034 691.916 218.447 690.287C217.867 688.657 217.577 686.692 217.577 684.392C217.577 682.113 217.87 680.159 218.457 678.529C219.044 676.892 219.894 675.646 221.006 674.789C222.118 673.926 223.447 673.494 224.994 673.494C226.541 673.494 227.87 673.926 228.982 674.789C230.094 675.646 230.944 676.892 231.531 678.529C232.118 680.159 232.411 682.113 232.411 684.392C232.411 686.692 232.118 688.657 231.531 690.287C230.95 691.916 230.104 693.16 228.993 694.016C227.888 694.865 226.555 695.29 224.994 695.29ZM220.146 684.392C220.146 686.209 220.336 687.759 220.716 689.044C221.095 690.321 221.648 691.291 222.373 691.954C223.098 692.617 223.972 692.949 224.994 692.949C226.016 692.949 226.89 692.617 227.615 691.954C228.34 691.291 228.892 690.321 229.272 689.044C229.652 687.759 229.842 686.209 229.842 684.392C229.842 682.576 229.649 681.026 229.262 679.741C228.882 678.45 228.33 677.469 227.604 676.799C226.879 676.129 226.009 675.794 224.994 675.794C223.979 675.794 223.109 676.129 222.383 676.799C221.658 677.469 221.102 678.45 220.716 679.741C220.336 681.026 220.146 682.576 220.146 684.392Z" fill="#222222"/>
<mask id="mask2_241_275" style="mask-type:alpha" maskUnits="userSpaceOnUse" x="338" y="664" width="41" height="41">
<rect x="338.333" y="664.5" width="40" height="40" fill="#D9D9D9"/>
</mask>
<g mask="url(#mask2_241_275)">
<path d="M353.974 694.5C353.376 694.5 352.813 694.364 352.284 694.093C351.755 693.822 351.316 693.442 350.968 692.955L346.119 686.064C345.787 685.588 345.622 685.066 345.622 684.5C345.622 683.934 345.787 683.413 346.119 682.936L350.968 676.109C351.316 675.622 351.749 675.232 352.267 674.939C352.786 674.646 353.355 674.5 353.974 674.5H368.974C369.72 674.5 370.355 674.762 370.88 675.287C371.404 675.811 371.667 676.447 371.667 677.192V691.808C371.667 692.553 371.404 693.189 370.88 693.713C370.355 694.238 369.72 694.5 368.974 694.5H353.974ZM353.974 692.833H368.974C369.231 692.833 369.466 692.727 369.68 692.513C369.893 692.299 370 692.064 370 691.808V677.192C370 676.936 369.893 676.701 369.68 676.487C369.466 676.273 369.231 676.167 368.974 676.167H353.974C353.654 676.167 353.349 676.247 353.061 676.407C352.772 676.567 352.543 676.765 352.372 677L347.449 683.891C347.32 684.062 347.256 684.265 347.256 684.5C347.256 684.735 347.32 684.938 347.449 685.109L352.372 692C352.543 692.235 352.772 692.433 353.061 692.593C353.349 692.753 353.654 692.833 353.974 692.833ZM361.09 685.68L364.833 689.423C364.989 689.579 365.181 689.662 365.407 689.673C365.633 689.684 365.835 689.6 366.013 689.423C366.19 689.246 366.279 689.049 366.279 688.833C366.279 688.618 366.19 688.421 366.013 688.244L362.269 684.5L366.013 680.756C366.169 680.6 366.252 680.409 366.263 680.182C366.273 679.956 366.19 679.754 366.013 679.577C365.835 679.4 365.639 679.311 365.423 679.311C365.207 679.311 365.01 679.4 364.833 679.577L361.09 683.32L357.346 679.577C357.19 679.421 356.999 679.338 356.772 679.327C356.546 679.316 356.344 679.4 356.167 679.577C355.989 679.754 355.901 679.951 355.901 680.167C355.901 680.383 355.989 680.579 356.167 680.756L359.91 684.5L356.167 688.244C356.01 688.4 355.927 688.591 355.917 688.817C355.906 689.044 355.989 689.246 356.167 689.423C356.344 689.6 356.54 689.689 356.756 689.689C356.972 689.689 357.169 689.6 357.346 689.423L361.09 685.68Z" fill="#797378"/>
</g>
<rect x="25" y="736" width="400" height="49" rx="5" fill="#00C18A"/>
<path d="M222.656 753.281V757.391H224.562V758.828H222.656V762.828H220.922V753.281H222.656ZM211.344 761.141C212.406 761.141 213.633 761.133 214.906 761.094V760.234C213.336 760.039 212.344 759.281 212.344 758.172C212.344 756.875 213.703 756.062 215.75 756.078C217.812 756.062 219.156 756.875 219.156 758.172C219.156 759.273 218.188 760.023 216.641 760.219V761.031C217.844 760.977 219.055 760.883 220.188 760.734L220.328 761.938C217.312 762.469 214.016 762.5 211.531 762.5L211.344 761.141ZM222.656 763.438V767.391H220.922V764.797H213.125V763.438H222.656ZM219.812 754.391V755.672H211.703V754.391H214.906V753.156H216.641V754.391H219.812ZM215.75 757.25C214.656 757.234 214 757.562 214.016 758.172C214 758.75 214.656 759.125 215.75 759.109C216.844 759.125 217.5 758.75 217.5 758.172C217.5 757.562 216.844 757.234 215.75 757.25ZM237.062 753.281V763.484H235.312V753.281H237.062ZM237.453 765.703V767.109H227.719V762.453H229.469V765.703H237.453ZM229.359 754.203C231.5 754.203 233.156 755.688 233.156 757.734C233.156 759.828 231.5 761.281 229.359 761.281C227.203 761.281 225.547 759.828 225.547 757.734C225.547 755.688 227.203 754.203 229.359 754.203ZM229.359 755.719C228.156 755.719 227.234 756.516 227.25 757.734C227.234 758.984 228.156 759.766 229.359 759.766C230.531 759.766 231.453 758.984 231.453 757.734C231.453 756.516 230.531 755.719 229.359 755.719Z" fill="white"/>
</svg>
