<svg width="400" height="670" viewBox="0 0 400 670" fill="none" xmlns="http://www.w3.org/2000/svg">
<rect width="400" height="670" fill="white"/>
<mask id="mask0_514_2497" style="mask-type:alpha" maskUnits="userSpaceOnUse" x="25" y="20" width="40" height="40">
<rect x="25" y="20" width="40" height="40" fill="#D9D9D9"/>
</mask>
<g mask="url(#mask0_514_2497)">
<path d="M28.375 39.972L35.4583 47.0553C35.7267 47.3239 35.8562 47.6481 35.8471 48.0278C35.8379 48.4073 35.699 48.7313 35.4304 48.9999C35.1618 49.2685 34.8331 49.4028 34.4442 49.4028C34.0553 49.4028 33.7267 49.2685 33.4583 48.9999L25.4025 40.9445C25.2544 40.7962 25.1503 40.6434 25.09 40.4862C25.03 40.3287 25 40.1573 25 39.972C25 39.787 25.03 39.6158 25.09 39.4583C25.1503 39.3008 25.2544 39.148 25.4025 38.9999L33.4858 30.9166C33.7544 30.648 34.0832 30.5137 34.4721 30.5137C34.861 30.5137 35.1897 30.648 35.4583 30.9166C35.7267 31.1852 35.8608 31.5139 35.8608 31.9028C35.8608 32.2917 35.7267 32.6203 35.4583 32.8887L28.375 39.972Z" fill="#111827"/>
</g>
<path d="M64.2383 31.6738V47.5645H62.375V31.6738H64.2383ZM60.9512 32.0605V46.8086H59.0879V41.5H56.6094V39.9004H59.0879V37.5449H56.8906C56.1436 40.1816 54.4824 42.4492 51.5117 44.207L50.3691 42.8184C53.665 40.876 55.1768 38.3887 55.4668 35.1895H51.2129V33.6074H57.4004C57.4004 34.4072 57.3477 35.1895 57.2422 35.9453H59.0879V32.0605H60.9512ZM75.2246 33.0273V34.627H71.9023C71.9551 36.3848 73.2471 38.0547 75.6641 38.7578L74.7324 40.2871C72.9219 39.751 71.6299 38.6436 70.9355 37.2285C70.2324 38.7842 68.8965 39.9971 67.0332 40.5684L66.0312 39.0391C68.501 38.3008 69.8369 36.543 69.916 34.627H66.5762V33.0273H75.2246ZM71.8848 39.9004V42.7305C73.1855 42.6689 74.4951 42.5635 75.7168 42.3965L75.8574 43.8027C72.5 44.4355 68.8613 44.418 66.1543 44.4355L65.8906 42.8359C67.0947 42.8359 68.4834 42.8359 69.9336 42.8008V39.9004H71.8848ZM80.8848 38.0547V39.6895H78.582V47.5645H76.6309V31.6738H78.582V38.0547H80.8848ZM94.8594 31.6738V47.582H92.8906V31.6738H94.8594ZM86.2988 32.834C88.6895 32.834 90.4297 35.0137 90.4473 38.4414C90.4297 41.9043 88.6895 44.0664 86.2988 44.0664C83.8906 44.0664 82.1504 41.9043 82.1504 38.4414C82.1504 35.0137 83.8906 32.834 86.2988 32.834ZM86.2988 34.5918C84.9453 34.5918 84.0312 36.0156 84.0312 38.4414C84.0312 40.8848 84.9453 42.3086 86.2988 42.3086C87.6348 42.3086 88.5488 40.8848 88.5488 38.4414C88.5488 36.0156 87.6348 34.5918 86.2988 34.5918ZM102.049 36.5254C102.049 38.9863 103.068 41.4648 105.283 42.6602L104.193 44.1016C102.717 43.3193 101.715 41.9219 101.152 40.252C100.59 42.0537 99.5879 43.5918 98.0938 44.4707L96.9512 42.9941C99.2012 41.6934 100.203 39.0391 100.203 36.5254V36.0332H97.4961V34.4512H100.203V32.2363H102.049V34.4512H104.703V36.0332H102.049V36.5254ZM110.873 31.6738V47.5645H109.01V31.6738H110.873ZM107.639 31.9727V46.791H105.793V39.3906H103.719V37.7734H105.793V31.9727H107.639Z" fill="#111827"/>
<path d="M343.258 38.0371V39.1973H340.727V47.4238H339.355V31.7969H340.727V38.0371H343.258ZM330.654 33.3438V42.291C332.939 42.2822 335.269 42.1064 337.844 41.5703L338.02 42.748C335.33 43.293 332.904 43.4512 330.531 43.4512H329.283V33.3438H330.654ZM356.283 31.7969V38.1602H358.814V39.3203H356.283V47.4238H354.912V31.7969H356.283ZM352.24 33.4844C352.24 37.9141 350.166 41.9395 345.068 44.4531L344.295 43.3633C348.338 41.3506 350.535 38.3447 350.852 34.6445H345.016V33.4844H352.24ZM372.666 31.7969V47.4238H371.277V31.7969H372.666ZM368.043 33.502C368.025 38.002 365.934 41.9746 360.695 44.4883L359.939 43.3633C364.167 41.3594 366.32 38.3623 366.637 34.627H360.66V33.502H368.043Z" fill="#EF403C"/>
<mask id="path-5-inside-1_514_2497" fill="white">
<path d="M25 80H375V150H25V80Z"/>
</mask>
<path d="M375 149H25V151H375V149Z" fill="#D1D5DB" mask="url(#path-5-inside-1_514_2497)"/>
<path d="M28.1575 86.8681H30.3391V84.6616H32.4151V92.2942H26.038V84.6616H28.1575V86.8681ZM30.3391 90.529V88.6022H28.1575V90.529H30.3391ZM28.2196 96.6202C28.2155 95.9903 28.4372 95.4454 28.8847 94.9855C29.3363 94.5256 29.9786 94.1733 30.8115 93.9289C31.6443 93.6844 32.6243 93.5622 33.7514 93.5622C34.8743 93.5622 35.8522 93.6844 36.6851 93.9289C37.518 94.1733 38.1623 94.5256 38.6181 94.9855C39.0739 95.4454 39.3018 95.9903 39.3018 96.6202C39.3018 97.2417 39.0739 97.7762 38.6181 98.2238C38.1623 98.6754 37.518 99.0193 36.6851 99.2555C35.8522 99.4959 34.8743 99.616 33.7514 99.616C32.6243 99.616 31.6443 99.4979 30.8115 99.2617C29.9786 99.0256 29.3363 98.6816 28.8847 98.23C28.4372 97.7783 28.2155 97.2417 28.2196 96.6202ZM30.4572 96.6202C30.453 97.047 30.7348 97.3681 31.3025 97.5836C31.8702 97.799 32.6865 97.9088 33.7514 97.913C34.808 97.9088 35.6202 97.799 36.1878 97.5836C36.7555 97.3681 37.0414 97.047 37.0456 96.6202C37.0414 96.1851 36.7576 95.8557 36.1941 95.6319C35.6347 95.404 34.8349 95.2901 33.7949 95.2901C32.7217 95.2901 31.895 95.4019 31.3149 95.6257C30.739 95.8494 30.453 96.1809 30.4572 96.6202ZM33.6706 83.9157H35.7528V87.5083H37.0953V83.636H39.221V93.3198H37.0953V89.3232H35.7528V92.9033H33.6706V83.9157ZM49.6747 84.5746C49.6706 86.0787 49.4116 87.4006 48.8978 88.5401C48.3881 89.6796 47.578 90.6616 46.4676 91.4862C45.3612 92.3066 43.9192 92.9717 42.1416 93.4814L41.3274 91.7037C42.4461 91.4012 43.393 91.0407 44.1678 90.6222C44.9427 90.2037 45.5684 89.7272 46.0449 89.1927L41.6133 89.5097L41.2963 87.7693L46.9959 87.5767C47.1285 87.212 47.2217 86.8018 47.2756 86.346H42.1043V84.5746H49.6747ZM43.4593 96.4648C43.4593 95.8059 43.683 95.2403 44.1305 94.768C44.578 94.2914 45.2162 93.9289 46.0449 93.6802C46.8778 93.4316 47.864 93.3073 49.0035 93.3073C50.114 93.3073 51.0815 93.4316 51.9061 93.6802C52.7307 93.9289 53.3667 94.2914 53.8142 94.768C54.2618 95.2403 54.4855 95.8059 54.4855 96.4648C54.4855 97.1236 54.2618 97.6872 53.8142 98.1554C53.3667 98.6278 52.7307 98.9862 51.9061 99.2307C51.0815 99.4751 50.114 99.5974 49.0035 99.5974C47.864 99.5974 46.8778 99.4751 46.0449 99.2307C45.212 98.9862 44.5718 98.6278 44.1243 98.1554C43.681 97.6872 43.4593 97.1236 43.4593 96.4648ZM45.7279 96.4648C45.7238 96.9289 45.9993 97.2831 46.5546 97.5276C47.1098 97.768 47.9261 97.8881 49.0035 97.8881C50.0518 97.8881 50.8536 97.7659 51.4089 97.5214C51.9641 97.2769 52.2438 96.9247 52.2479 96.4648C52.2438 96.0007 51.9641 95.6506 51.4089 95.4144C50.8577 95.1782 50.056 95.0601 49.0035 95.0601C47.9178 95.0601 47.0995 95.1782 46.5484 95.4144C45.9972 95.6506 45.7238 96.0007 45.7279 96.4648ZM52.1734 83.636H54.4234V93.0649H52.1734V83.636ZM64.9765 91.2749H71.1858V93.0711H56.5919V91.2749H62.7514V89.3481H64.9765V91.2749ZM57.2196 88.509C58.1727 88.4178 59.0014 88.2521 59.7058 88.0117C60.4144 87.7714 60.9779 87.4834 61.3964 87.1478C61.8191 86.8122 62.1009 86.4537 62.2417 86.0725H57.9158V84.3011H69.8681V86.0725H65.5111C65.652 86.4537 65.9317 86.8122 66.3502 87.1478C66.7728 87.4834 67.3384 87.7714 68.047 88.0117C68.7555 88.2521 69.5905 88.4178 70.5518 88.509L69.7562 90.2555C68.2811 90.1105 67.038 89.779 66.027 89.261C65.02 88.7431 64.2991 88.0905 63.864 87.3032C63.4289 88.0946 62.712 88.7493 61.7134 89.2673C60.7148 89.7852 59.4779 90.1146 58.0028 90.2555L57.2196 88.509ZM58.2576 96.7818C58.2576 96.1809 58.4793 95.6713 58.9227 95.2528C59.3702 94.8301 60.0125 94.509 60.8495 94.2894C61.6906 94.0656 62.6934 93.9537 63.8578 93.9537C65.0221 93.9537 66.0207 94.0635 66.8536 94.2831C67.6865 94.5028 68.3225 94.8239 68.7618 95.2465C69.2051 95.6692 69.4289 96.1809 69.433 96.7818C69.4289 97.3867 69.2051 97.9006 68.7618 98.3232C68.3225 98.75 67.6865 99.0711 66.8536 99.2866C66.0207 99.5062 65.0221 99.616 63.8578 99.616C62.6934 99.616 61.6906 99.5062 60.8495 99.2866C60.0125 99.0711 59.3702 98.75 58.9227 98.3232C58.4793 97.9006 58.2576 97.3867 58.2576 96.7818ZM60.5449 96.7818C60.5408 97.1754 60.8122 97.4675 61.3591 97.6581C61.9061 97.8488 62.739 97.9441 63.8578 97.9441C64.9641 97.9441 65.7928 97.8488 66.3439 97.6581C66.8992 97.4675 67.1789 97.1754 67.183 96.7818C67.1789 96.4047 66.8992 96.125 66.3439 95.9427C65.7887 95.7562 64.96 95.663 63.8578 95.663C62.739 95.663 61.9061 95.7562 61.3591 95.9427C60.8122 96.125 60.5408 96.4047 60.5449 96.7818ZM84.8405 87.4772H86.9911V89.3419H84.8405V92.9903H82.5905V83.6112H84.8405V87.4772ZM72.1423 85.0283H75.7783V83.5055H78.0159V85.0283H81.6395V86.7873H72.1423V85.0283ZM72.9254 90.0691C72.9254 89.5097 73.0912 89.0166 73.4227 88.5898C73.7542 88.163 74.2203 87.8315 74.8212 87.5953C75.422 87.3591 76.114 87.241 76.8971 87.241C77.6637 87.241 78.3453 87.3591 78.942 87.5953C79.5387 87.8315 80.0028 88.163 80.3343 88.5898C80.6658 89.0166 80.8315 89.5097 80.8315 90.0691C80.8315 90.6326 80.6658 91.1278 80.3343 91.5546C80.0028 91.9814 79.5387 92.3128 78.942 92.549C78.3453 92.7811 77.6637 92.8971 76.8971 92.8971C76.1181 92.8971 75.4261 92.7811 74.8212 92.549C74.2203 92.317 73.7542 91.9876 73.4227 91.5608C73.0912 91.1298 72.9254 90.6326 72.9254 90.0691ZM74.3674 93.5994H76.5926V94.8239H82.5905V93.5994H84.8405V99.442H74.3674V93.5994ZM75.1071 90.0691C75.1071 90.4503 75.2687 90.7445 75.5919 90.9517C75.9151 91.1588 76.3502 91.2624 76.8971 91.2624C77.4441 91.2624 77.8812 91.1588 78.2086 90.9517C78.5359 90.7445 78.7017 90.4503 78.7058 90.0691C78.7058 89.8246 78.6292 89.6153 78.4759 89.4413C78.3267 89.2631 78.1174 89.1264 77.8481 89.0311C77.5829 88.9358 77.2742 88.8881 76.922 88.8881C76.3709 88.8881 75.9296 88.9938 75.5981 89.2051C75.2708 89.4123 75.1071 89.7003 75.1071 90.0691ZM82.5905 97.6768V96.5456H76.5926V97.6768H82.5905ZM102.299 93.6243H87.6679V91.8653H93.846V90.8771H89.5014V84.0028H100.59V85.7369H91.739V86.6257H100.217V88.2541H91.739V89.1678H100.727V90.8771H96.096V91.8653H102.299V93.6243ZM89.3709 96.9807C89.3709 96.4213 89.5884 95.9448 90.0235 95.5511C90.4628 95.1575 91.1009 94.8591 91.9379 94.6561C92.7749 94.453 93.786 94.3515 94.971 94.3515C96.1437 94.3515 97.1465 94.453 97.9793 94.6561C98.8122 94.8591 99.4462 95.1575 99.8813 95.5511C100.32 95.9448 100.542 96.4213 100.546 96.9807C100.542 97.5525 100.32 98.0352 99.8813 98.4289C99.4462 98.8225 98.8122 99.1188 97.9793 99.3177C97.1506 99.5207 96.1478 99.6202 94.971 99.616C93.7777 99.6202 92.7625 99.5207 91.9255 99.3177C91.0926 99.1188 90.4586 98.8225 90.0235 98.4289C89.5884 98.0352 89.3709 97.5525 89.3709 96.9807ZM91.6147 96.9807C91.6105 97.3163 91.8757 97.5628 92.4103 97.7203C92.9448 97.8778 93.7756 97.9565 94.9027 97.9565C96.0629 97.9565 96.9165 97.8798 97.4634 97.7265C98.0145 97.5691 98.2922 97.3204 98.2963 96.9807C98.2922 96.645 98.0187 96.4006 97.4759 96.2472C96.9372 96.0898 96.1023 96.011 94.971 96.011C93.8191 96.011 92.9697 96.0898 92.4227 96.2472C91.8799 96.4006 91.6105 96.645 91.6147 96.9807ZM112.355 86.4827H109.16C109.164 87.125 109.299 87.7362 109.564 88.3163C109.834 88.8964 110.244 89.4123 110.795 89.8639C111.346 90.3156 112.032 90.6637 112.852 90.9081L111.789 92.6609C110.923 92.3999 110.18 92.0145 109.558 91.5048C108.937 90.9952 108.443 90.3881 108.079 89.6837C107.714 90.5083 107.202 91.2231 106.544 91.828C105.885 92.433 105.089 92.8888 104.157 93.1954L103.019 91.424C103.869 91.1547 104.582 90.7652 105.158 90.2555C105.738 89.7417 106.171 89.1595 106.457 88.509C106.742 87.8584 106.89 87.183 106.898 86.4827H103.629V84.6927H112.355V86.4827ZM105.226 96.5083C105.226 95.866 105.445 95.3128 105.885 94.8488C106.328 94.3847 106.96 94.0325 107.78 93.7921C108.605 93.5477 109.579 93.4254 110.702 93.4254C111.812 93.4254 112.771 93.5477 113.579 93.7921C114.392 94.0325 115.015 94.3847 115.45 94.8488C115.885 95.3128 116.103 95.866 116.103 96.5083C116.103 97.1547 115.885 97.7099 115.45 98.174C115.015 98.6423 114.392 98.9986 113.579 99.2431C112.767 99.4917 111.808 99.616 110.702 99.616C109.579 99.616 108.605 99.4917 107.78 99.2431C106.96 98.9986 106.328 98.6423 105.885 98.174C105.445 97.7099 105.226 97.1547 105.226 96.5083ZM107.47 96.5083C107.466 96.9599 107.735 97.2997 108.278 97.5276C108.825 97.7555 109.618 97.8695 110.658 97.8695C111.723 97.8695 112.527 97.7576 113.07 97.5338C113.617 97.3059 113.89 96.9641 113.89 96.5083C113.89 96.0649 113.623 95.7314 113.088 95.5076C112.558 95.2838 111.777 95.172 110.745 95.172C109.672 95.172 108.856 95.2838 108.296 95.5076C107.741 95.7272 107.466 96.0608 107.47 96.5083ZM113.704 83.6112H115.954V87.3343H118.104V89.1616H115.954V93.1146H113.704V83.6112ZM125.283 93.7983H119.483V91.7348H125.283V93.7983ZM141.536 97.7576H126.904V95.9365H133.076V92.9717H128.452V84.6367H130.702V87.1291H137.676V84.6367H139.913V92.9717H135.295V95.9365H141.536V97.7576ZM137.676 91.1816V88.9068H130.702V91.1816H137.676ZM157.055 93.6243H142.424V91.8653H148.602V90.8771H144.257V84.0028H155.346V85.7369H146.495V86.6257H154.973V88.2541H146.495V89.1678H155.482V90.8771H150.852V91.8653H157.055V93.6243ZM144.127 96.9807C144.127 96.4213 144.344 95.9448 144.779 95.5511C145.219 95.1575 145.857 94.8591 146.694 94.6561C147.531 94.453 148.542 94.3515 149.727 94.3515C150.9 94.3515 151.902 94.453 152.735 94.6561C153.568 94.8591 154.202 95.1575 154.637 95.5511C155.076 95.9448 155.298 96.4213 155.302 96.9807C155.298 97.5525 155.076 98.0352 154.637 98.4289C154.202 98.8225 153.568 99.1188 152.735 99.3177C151.906 99.5207 150.904 99.6202 149.727 99.616C148.534 99.6202 147.518 99.5207 146.681 99.3177C145.848 99.1188 145.214 98.8225 144.779 98.4289C144.344 98.0352 144.127 97.5525 144.127 96.9807ZM146.371 96.9807C146.366 97.3163 146.632 97.5628 147.166 97.7203C147.701 97.8778 148.531 97.9565 149.659 97.9565C150.819 97.9565 151.672 97.8798 152.219 97.7265C152.77 97.5691 153.048 97.3204 153.052 96.9807C153.048 96.645 152.775 96.4006 152.232 96.2472C151.693 96.0898 150.858 96.011 149.727 96.011C148.575 96.011 147.726 96.0898 147.179 96.2472C146.636 96.4006 146.366 96.645 146.371 96.9807ZM171.878 99.6222H169.734V83.6112H171.878V99.6222ZM158.154 90.5414C158.154 89.3646 158.295 88.3412 158.577 87.471C158.863 86.6008 159.267 85.9316 159.789 85.4634C160.315 84.9952 160.929 84.761 161.629 84.761C162.296 84.761 162.886 84.9703 163.4 85.3888C163.914 85.8032 164.32 86.3957 164.618 87.1664H166.496V83.8598H168.609V98.8826H166.496V93.9289H164.625C164.322 94.712 163.914 95.3149 163.4 95.7376C162.891 96.1561 162.3 96.3633 161.629 96.3591C160.929 96.3591 160.315 96.125 159.789 95.6568C159.267 95.1885 158.863 94.5173 158.577 93.643C158.295 92.7645 158.154 91.7307 158.154 90.5414ZM160.187 90.4979C160.187 91.7369 160.309 92.6671 160.554 93.2887C160.798 93.9061 161.156 94.2127 161.629 94.2086C162.105 94.2127 162.472 93.9061 162.729 93.2887C162.99 92.6713 163.123 91.7555 163.127 90.5414C163.123 89.3398 162.99 88.4282 162.729 87.8066C162.468 87.1851 162.101 86.8764 161.629 86.8805C161.161 86.8764 160.802 87.1789 160.554 87.788C160.309 88.3971 160.187 89.3004 160.187 90.4979ZM165.06 88.9627C165.13 89.4682 165.165 89.9945 165.165 90.5414C165.165 91.0677 165.132 91.5898 165.066 92.1077H166.496V88.9627H165.06ZM186.478 85.625C186.478 86.4786 186.455 87.2327 186.409 87.8874C186.368 88.5421 186.262 89.2756 186.092 90.0877H188.206V91.8964H173.574V90.0877H183.83C183.987 89.3709 184.093 88.7058 184.147 88.0925C184.201 87.4793 184.232 86.8287 184.24 86.1409H175.364V84.3508H186.478V85.625ZM175.302 93.5932H186.415V99.442H175.302V93.5932ZM184.184 97.6457V95.346H177.502V97.6457H184.184Z" fill="#111827"/>
<path d="M30.0608 122H28.6464V112.155H28.5801L25.8287 113.978V112.564L28.6464 110.685H30.0608V122ZM33.0653 120.972L36.9217 116.906C37.43 116.365 37.8167 115.93 38.0819 115.602C38.3508 115.271 38.5552 114.952 38.6952 114.646C38.8351 114.337 38.907 114.015 38.9107 113.68C38.907 113.297 38.8057 112.959 38.6068 112.669C38.4116 112.378 38.1427 112.153 37.8002 111.994C37.4613 111.836 37.0801 111.757 36.6565 111.757C36.2145 111.757 35.8259 111.845 35.4908 112.022C35.1593 112.199 34.9033 112.448 34.7228 112.768C34.546 113.088 34.4576 113.459 34.4576 113.878H33.1206C33.1169 113.223 33.2698 112.643 33.5792 112.138C33.8922 111.63 34.3213 111.236 34.8665 110.956C35.4116 110.672 36.023 110.53 36.7007 110.53C37.3711 110.53 37.9733 110.67 38.5073 110.95C39.0451 111.227 39.465 111.604 39.767 112.083C40.069 112.562 40.2219 113.094 40.2256 113.68C40.2219 114.11 40.1409 114.523 39.9825 114.917C39.8278 115.308 39.5644 115.742 39.1924 116.221C38.8241 116.7 38.2992 117.289 37.6178 117.989L35.0322 120.663V120.751H40.4245V122H33.0764L33.0653 120.972ZM46.3786 122.155C45.6346 122.155 44.9679 122.029 44.3786 121.779C43.7893 121.529 43.3234 121.177 42.9808 120.724C42.642 120.271 42.4597 119.75 42.4339 119.16H43.8593C43.8851 119.51 44.0103 119.818 44.235 120.083C44.4597 120.344 44.7562 120.547 45.1245 120.691C45.4965 120.834 45.9072 120.906 46.3565 120.906C46.8501 120.906 47.2921 120.823 47.6825 120.657C48.0729 120.488 48.3786 120.252 48.5996 119.95C48.8206 119.648 48.9311 119.304 48.9311 118.917C48.9311 118.505 48.8225 118.14 48.6051 117.823C48.3915 117.506 48.0784 117.26 47.6659 117.083C47.2534 116.906 46.758 116.818 46.1797 116.818H45.2626V115.58H46.1797C46.6365 115.58 47.0416 115.499 47.3952 115.337C47.7525 115.175 48.0287 114.948 48.2239 114.657C48.4228 114.363 48.5223 114.022 48.5223 113.635C48.5223 113.263 48.4357 112.936 48.2626 112.652C48.0895 112.368 47.8427 112.149 47.5223 111.994C47.2018 111.836 46.828 111.757 46.4007 111.757C45.9956 111.757 45.6144 111.829 45.2571 111.972C44.9035 112.116 44.6162 112.322 44.3952 112.591C44.1742 112.856 44.0545 113.168 44.0361 113.525H42.677C42.6991 112.943 42.8795 112.425 43.2184 111.972C43.5573 111.516 44.0085 111.162 44.572 110.912C45.1355 110.657 45.7525 110.53 46.4228 110.53C47.119 110.53 47.7285 110.669 48.2516 110.945C48.7783 111.221 49.1816 111.591 49.4615 112.055C49.7451 112.519 49.8851 113.024 49.8814 113.569C49.8851 113.989 49.8096 114.372 49.6549 114.718C49.5002 115.064 49.2773 115.357 48.9864 115.597C48.6954 115.836 48.3528 116.011 47.9587 116.122V116.21C48.4449 116.284 48.8648 116.444 49.2184 116.691C49.5757 116.934 49.8482 117.249 50.0361 117.635C50.2239 118.018 50.316 118.449 50.3123 118.928C50.316 119.536 50.1466 120.087 49.804 120.58C49.4652 121.07 48.9937 121.455 48.3897 121.735C47.7893 122.015 47.119 122.155 46.3786 122.155ZM52.0658 118.53L57.1597 110.685H58.8835V118.453H60.4746V119.691H58.8835V122H57.5464V119.691H52.0658V118.53ZM57.5464 118.453V112.464H57.4138L53.5796 118.365V118.453H57.5464ZM66.017 122.155C65.343 122.155 64.7316 122.026 64.1828 121.768C63.6339 121.51 63.1956 121.155 62.8678 120.702C62.5437 120.245 62.3669 119.731 62.3374 119.16H63.7076C63.7408 119.492 63.8623 119.792 64.0723 120.061C64.2859 120.326 64.5621 120.536 64.901 120.691C65.2435 120.842 65.6155 120.917 66.017 120.917C66.4995 120.917 66.9323 120.808 67.3153 120.591C67.7021 120.374 68.0041 120.076 68.2214 119.696C68.4387 119.317 68.5474 118.891 68.5474 118.42C68.5474 117.937 68.4332 117.503 68.2049 117.116C67.9802 116.726 67.6671 116.42 67.2656 116.199C66.8678 115.974 66.4185 115.86 65.9176 115.856C64.9084 115.845 64.2049 116.184 63.8071 116.873H62.4479L63.2435 110.685H69.3761V111.934H64.4148L63.9949 115.249H64.1165C64.3706 115.05 64.6781 114.891 65.0391 114.773C65.4037 114.656 65.7813 114.597 66.1717 114.597C66.8826 114.597 67.5216 114.761 68.0888 115.088C68.6597 115.413 69.1072 115.864 69.4314 116.442C69.7555 117.017 69.9176 117.665 69.9176 118.387C69.9176 119.105 69.75 119.751 69.4148 120.326C69.0796 120.897 68.6155 121.344 68.0225 121.669C67.4295 121.993 66.761 122.155 66.017 122.155ZM75.8512 122.155C75.1219 122.155 74.4442 121.991 73.818 121.663C73.1956 121.331 72.6836 120.766 72.2821 119.967C71.8843 119.164 71.6854 118.099 71.6854 116.773C71.6854 115.455 71.8585 114.328 72.2048 113.392C72.551 112.457 73.0464 111.746 73.691 111.26C74.3355 110.773 75.0998 110.53 75.9838 110.53C76.6357 110.53 77.2213 110.657 77.7407 110.912C78.2637 111.162 78.6891 111.514 79.0169 111.967C79.3447 112.416 79.5565 112.936 79.6523 113.525H78.26C78.1274 113.002 77.8659 112.58 77.4755 112.26C77.0851 111.939 76.5878 111.779 75.9838 111.779C75.3687 111.779 74.8383 111.95 74.3926 112.293C73.9469 112.632 73.6044 113.125 73.365 113.773C73.1293 114.422 73.0114 115.197 73.0114 116.099H73.155C73.4828 115.621 73.8972 115.25 74.3981 114.989C74.9027 114.727 75.4571 114.597 76.0611 114.597C76.7278 114.597 77.3429 114.759 77.9064 115.083C78.47 115.403 78.9175 115.849 79.249 116.42C79.5841 116.991 79.7517 117.632 79.7517 118.343C79.7517 119.05 79.5897 119.694 79.2655 120.276C78.9414 120.855 78.4829 121.313 77.8898 121.652C77.3005 121.987 76.621 122.155 75.8512 122.155ZM73.2103 118.376C73.2103 118.818 73.3226 119.234 73.5473 119.624C73.772 120.015 74.0814 120.328 74.4755 120.564C74.8733 120.799 75.3171 120.917 75.807 120.917C76.2858 120.917 76.7223 120.803 77.1164 120.575C77.5105 120.346 77.8199 120.037 78.0445 119.646C78.2729 119.252 78.3889 118.821 78.3926 118.354C78.3889 117.897 78.2766 117.477 78.0556 117.094C77.8383 116.707 77.5363 116.401 77.1495 116.177C76.7628 115.948 76.33 115.834 75.8512 115.834C75.3687 115.834 74.9248 115.952 74.5197 116.188C74.1182 116.424 73.7996 116.737 73.5639 117.127C73.3318 117.517 73.214 117.934 73.2103 118.376ZM86.5698 116.961H81.6084V115.724H86.5698V116.961ZM93.7952 112.022V111.934H87.8173V110.685H95.2538V112L90.0825 122H88.6019L93.7952 112.022ZM100.648 122.155C99.8632 122.155 99.1652 122.02 98.5538 121.751C97.9424 121.483 97.4672 121.109 97.1284 120.63C96.7895 120.147 96.6219 119.602 96.6256 118.994C96.6219 118.519 96.7214 118.076 96.9239 117.663C97.1265 117.247 97.4028 116.904 97.7527 116.635C98.1063 116.363 98.4967 116.192 98.9239 116.122V116.066C98.5556 115.978 98.2297 115.812 97.946 115.569C97.6624 115.326 97.4433 115.028 97.2886 114.674C97.1339 114.32 97.0565 113.941 97.0565 113.536C97.0565 112.965 97.2112 112.451 97.5206 111.994C97.83 111.538 98.2573 111.18 98.8024 110.923C99.3512 110.661 99.9663 110.53 100.648 110.53C101.325 110.53 101.935 110.661 102.476 110.923C103.022 111.18 103.449 111.538 103.758 111.994C104.068 112.451 104.224 112.965 104.228 113.536C104.224 113.941 104.143 114.32 103.985 114.674C103.83 115.028 103.611 115.326 103.327 115.569C103.047 115.812 102.725 115.978 102.36 116.066V116.122C102.784 116.192 103.171 116.363 103.521 116.635C103.874 116.904 104.152 117.247 104.355 117.663C104.561 118.076 104.666 118.519 104.67 118.994C104.666 119.602 104.493 120.147 104.15 120.63C103.808 121.109 103.331 121.483 102.72 121.751C102.112 122.02 101.421 122.155 100.648 122.155ZM98.0289 118.917C98.0216 119.315 98.1228 119.665 98.3328 119.967C98.5427 120.265 98.8466 120.499 99.2444 120.669C99.6422 120.834 100.11 120.917 100.648 120.917C101.178 120.917 101.64 120.834 102.034 120.669C102.429 120.499 102.732 120.265 102.946 119.967C103.16 119.665 103.266 119.315 103.266 118.917C103.266 118.505 103.152 118.134 102.924 117.807C102.699 117.479 102.388 117.221 101.99 117.033C101.592 116.845 101.145 116.751 100.648 116.751C100.147 116.751 99.6956 116.845 99.2941 117.033C98.8926 117.221 98.5796 117.481 98.3549 117.812C98.1302 118.14 98.0216 118.508 98.0289 118.917ZM98.4267 113.635C98.4267 114.015 98.5206 114.35 98.7085 114.641C98.8963 114.932 99.1578 115.158 99.493 115.32C99.8319 115.479 100.217 115.558 100.648 115.558C101.071 115.558 101.451 115.479 101.786 115.32C102.121 115.158 102.383 114.932 102.57 114.641C102.762 114.346 102.858 114.011 102.858 113.635C102.858 113.263 102.764 112.936 102.576 112.652C102.392 112.365 102.132 112.142 101.797 111.983C101.465 111.825 101.082 111.746 100.648 111.746C100.206 111.746 99.8153 111.825 99.4764 111.983C99.1413 112.142 98.8816 112.365 98.6974 112.652C98.5169 112.936 98.4267 113.263 98.4267 113.635ZM111.445 116.961H106.483V115.724H111.445V116.961ZM117.206 110.53C117.932 110.53 118.606 110.696 119.229 111.028C119.851 111.359 120.361 111.924 120.759 112.724C121.16 113.519 121.361 114.575 121.361 115.89C121.361 117.215 121.188 118.348 120.842 119.287C120.496 120.223 120 120.936 119.356 121.425C118.711 121.912 117.947 122.155 117.063 122.155C116.411 122.155 115.823 122.029 115.3 121.779C114.777 121.529 114.35 121.177 114.019 120.724C113.691 120.267 113.479 119.738 113.383 119.138H114.775C114.908 119.672 115.17 120.101 115.56 120.425C115.954 120.746 116.455 120.906 117.063 120.906C117.674 120.906 118.203 120.735 118.648 120.392C119.098 120.05 119.442 119.554 119.682 118.906C119.921 118.254 120.043 117.473 120.046 116.564H119.891C119.564 117.039 119.147 117.409 118.643 117.674C118.142 117.936 117.593 118.066 116.996 118.066C116.326 118.066 115.707 117.906 115.14 117.586C114.577 117.262 114.127 116.814 113.792 116.243C113.461 115.672 113.295 115.031 113.295 114.32C113.295 113.624 113.455 112.987 113.775 112.409C114.1 111.831 114.558 111.374 115.151 111.039C115.748 110.7 116.433 110.53 117.206 110.53ZM114.665 114.309C114.665 114.773 114.774 115.199 114.991 115.586C115.212 115.969 115.516 116.273 115.903 116.497C116.289 116.718 116.724 116.829 117.206 116.829C117.685 116.829 118.124 116.711 118.521 116.475C118.923 116.236 119.24 115.921 119.472 115.53C119.707 115.14 119.825 114.726 119.825 114.287C119.825 113.853 119.713 113.442 119.488 113.055C119.263 112.669 118.954 112.357 118.56 112.122C118.17 111.886 117.733 111.768 117.251 111.768C116.768 111.768 116.328 111.882 115.93 112.11C115.536 112.339 115.225 112.648 114.996 113.039C114.772 113.425 114.661 113.849 114.665 114.309ZM126.997 122.155C126.164 122.155 125.452 121.928 124.859 121.475C124.269 121.018 123.818 120.355 123.505 119.486C123.196 118.617 123.041 117.569 123.041 116.343C123.041 115.127 123.198 114.085 123.511 113.215C123.824 112.343 124.277 111.678 124.87 111.221C125.463 110.761 126.172 110.53 126.997 110.53C127.822 110.53 128.531 110.761 129.124 111.221C129.717 111.678 130.17 112.343 130.483 113.215C130.796 114.085 130.953 115.127 130.953 116.343C130.953 117.569 130.796 118.617 130.483 119.486C130.174 120.355 129.722 121.018 129.129 121.475C128.54 121.928 127.829 122.155 126.997 122.155ZM124.411 116.343C124.411 117.311 124.512 118.138 124.715 118.823C124.918 119.505 125.212 120.022 125.599 120.376C125.986 120.729 126.452 120.906 126.997 120.906C127.542 120.906 128.008 120.729 128.395 120.376C128.781 120.022 129.076 119.505 129.279 118.823C129.481 118.138 129.582 117.311 129.582 116.343C129.582 115.374 129.479 114.547 129.273 113.862C129.07 113.173 128.776 112.65 128.389 112.293C128.002 111.936 127.538 111.757 126.997 111.757C126.455 111.757 125.991 111.936 125.605 112.293C125.218 112.65 124.921 113.173 124.715 113.862C124.512 114.547 124.411 115.374 124.411 116.343ZM136.528 122.155C135.696 122.155 134.983 121.928 134.39 121.475C133.801 121.018 133.349 120.355 133.036 119.486C132.727 118.617 132.572 117.569 132.572 116.343C132.572 115.127 132.729 114.085 133.042 113.215C133.355 112.343 133.808 111.678 134.401 111.221C134.994 110.761 135.703 110.53 136.528 110.53C137.353 110.53 138.062 110.761 138.655 111.221C139.248 111.678 139.701 112.343 140.014 113.215C140.327 114.085 140.484 115.127 140.484 116.343C140.484 117.569 140.327 118.617 140.014 119.486C139.705 120.355 139.254 121.018 138.661 121.475C138.071 121.928 137.36 122.155 136.528 122.155ZM133.942 116.343C133.942 117.311 134.044 118.138 134.246 118.823C134.449 119.505 134.744 120.022 135.13 120.376C135.517 120.729 135.983 120.906 136.528 120.906C137.073 120.906 137.539 120.729 137.926 120.376C138.313 120.022 138.607 119.505 138.81 118.823C139.012 118.138 139.114 117.311 139.114 116.343C139.114 115.374 139.011 114.547 138.804 113.862C138.602 113.173 138.307 112.65 137.92 112.293C137.534 111.936 137.069 111.757 136.528 111.757C135.987 111.757 135.523 111.936 135.136 112.293C134.749 112.65 134.453 113.173 134.246 113.862C134.044 114.547 133.942 115.374 133.942 116.343ZM146.059 122.155C145.227 122.155 144.514 121.928 143.921 121.475C143.332 121.018 142.881 120.355 142.568 119.486C142.258 118.617 142.104 117.569 142.104 116.343C142.104 115.127 142.26 114.085 142.573 113.215C142.886 112.343 143.339 111.678 143.932 111.221C144.525 110.761 145.234 110.53 146.059 110.53C146.884 110.53 147.593 110.761 148.186 111.221C148.779 111.678 149.232 112.343 149.545 113.215C149.859 114.085 150.015 115.127 150.015 116.343C150.015 117.569 149.859 118.617 149.545 119.486C149.236 120.355 148.785 121.018 148.192 121.475C147.603 121.928 146.892 122.155 146.059 122.155ZM143.474 116.343C143.474 117.311 143.575 118.138 143.778 118.823C143.98 119.505 144.275 120.022 144.662 120.376C145.048 120.729 145.514 120.906 146.059 120.906C146.604 120.906 147.07 120.729 147.457 120.376C147.844 120.022 148.138 119.505 148.341 118.823C148.544 118.138 148.645 117.311 148.645 116.343C148.645 115.374 148.542 114.547 148.336 113.862C148.133 113.173 147.838 112.65 147.452 112.293C147.065 111.936 146.601 111.757 146.059 111.757C145.518 111.757 145.054 111.936 144.667 112.293C144.28 112.65 143.984 113.173 143.778 113.862C143.575 114.547 143.474 115.374 143.474 116.343ZM155.591 122.155C154.758 122.155 154.045 121.928 153.452 121.475C152.863 121.018 152.412 120.355 152.099 119.486C151.789 118.617 151.635 117.569 151.635 116.343C151.635 115.127 151.791 114.085 152.104 113.215C152.417 112.343 152.87 111.678 153.463 111.221C154.056 110.761 154.766 110.53 155.591 110.53C156.416 110.53 157.125 110.761 157.718 111.221C158.311 111.678 158.764 112.343 159.077 113.215C159.39 114.085 159.546 115.127 159.546 116.343C159.546 117.569 159.39 118.617 159.077 119.486C158.767 120.355 158.316 121.018 157.723 121.475C157.134 121.928 156.423 122.155 155.591 122.155ZM153.005 116.343C153.005 117.311 153.106 118.138 153.309 118.823C153.511 119.505 153.806 120.022 154.193 120.376C154.58 120.729 155.045 120.906 155.591 120.906C156.136 120.906 156.602 120.729 156.988 120.376C157.375 120.022 157.67 119.505 157.872 118.823C158.075 118.138 158.176 117.311 158.176 116.343C158.176 115.374 158.073 114.547 157.867 113.862C157.664 113.173 157.37 112.65 156.983 112.293C156.596 111.936 156.132 111.757 155.591 111.757C155.049 111.757 154.585 111.936 154.198 112.293C153.812 112.65 153.515 113.173 153.309 113.862C153.106 114.547 153.005 115.374 153.005 116.343ZM165.122 122.155C164.289 122.155 163.577 121.928 162.984 121.475C162.394 121.018 161.943 120.355 161.63 119.486C161.321 118.617 161.166 117.569 161.166 116.343C161.166 115.127 161.323 114.085 161.636 113.215C161.949 112.343 162.402 111.678 162.995 111.221C163.588 110.761 164.297 110.53 165.122 110.53C165.947 110.53 166.656 110.761 167.249 111.221C167.842 111.678 168.295 112.343 168.608 113.215C168.921 114.085 169.078 115.127 169.078 116.343C169.078 117.569 168.921 118.617 168.608 119.486C168.299 120.355 167.847 121.018 167.254 121.475C166.665 121.928 165.954 122.155 165.122 122.155ZM162.536 116.343C162.536 117.311 162.637 118.138 162.84 118.823C163.043 119.505 163.337 120.022 163.724 120.376C164.111 120.729 164.577 120.906 165.122 120.906C165.667 120.906 166.133 120.729 166.52 120.376C166.906 120.022 167.201 119.505 167.404 118.823C167.606 118.138 167.707 117.311 167.707 116.343C167.707 115.374 167.604 114.547 167.398 113.862C167.195 113.173 166.901 112.65 166.514 112.293C166.127 111.936 165.663 111.757 165.122 111.757C164.58 111.757 164.116 111.936 163.73 112.293C163.343 112.65 163.046 113.173 162.84 113.862C162.637 114.547 162.536 115.374 162.536 116.343Z" fill="#111827"/>
<mask id="mask1_514_2497" style="mask-type:alpha" maskUnits="userSpaceOnUse" x="355" y="93" width="20" height="20">
<rect x="355" y="93" width="20" height="20" fill="#D9D9D9"/>
</mask>
<g mask="url(#mask1_514_2497)">
<path d="M364.996 109C364.582 109 364.229 108.853 363.938 108.558C363.646 108.264 363.5 107.909 363.5 107.496C363.5 107.082 363.647 106.729 363.942 106.438C364.236 106.146 364.591 106 365.004 106C365.418 106 365.771 106.147 366.062 106.442C366.354 106.736 366.5 107.091 366.5 107.504C366.5 107.918 366.353 108.271 366.058 108.562C365.764 108.854 365.409 109 364.996 109ZM364.996 104.5C364.582 104.5 364.229 104.353 363.938 104.058C363.646 103.764 363.5 103.409 363.5 102.996C363.5 102.582 363.647 102.229 363.942 101.938C364.236 101.646 364.591 101.5 365.004 101.5C365.418 101.5 365.771 101.647 366.062 101.942C366.354 102.236 366.5 102.591 366.5 103.004C366.5 103.418 366.353 103.771 366.058 104.062C365.764 104.354 365.409 104.5 364.996 104.5ZM364.996 100C364.582 100 364.229 99.8527 363.938 99.5581C363.646 99.2635 363.5 98.9094 363.5 98.4956C363.5 98.0819 363.647 97.7292 363.942 97.4375C364.236 97.1458 364.591 97 365.004 97C365.418 97 365.771 97.1473 366.062 97.4419C366.354 97.7365 366.5 98.0906 366.5 98.5044C366.5 98.9181 366.353 99.2708 366.058 99.5625C365.764 99.8542 365.409 100 364.996 100Z" fill="#9CA3AF"/>
</g>
<path d="M135.445 179.547V205H130.84V184.012H130.699L124.758 187.809V183.625L131.051 179.547H135.445ZM151.02 205.352C144.902 205.352 141.246 200.605 141.246 192.273C141.246 183.977 144.902 179.195 151.02 179.195C157.102 179.195 160.793 183.977 160.793 192.273C160.793 200.605 157.137 205.352 151.02 205.352ZM151.02 201.52C154.219 201.52 156.188 198.391 156.188 192.273C156.188 186.191 154.184 182.992 151.02 182.992C147.855 182.992 145.852 186.191 145.852 192.273C145.852 198.391 147.82 201.52 151.02 201.52ZM168.738 202.504L165.785 212.348H162.445L164.273 202.504H168.738ZM181.957 205.352C175.84 205.352 172.184 200.605 172.184 192.273C172.184 183.977 175.84 179.195 181.957 179.195C188.039 179.195 191.73 183.977 191.73 192.273C191.73 200.605 188.074 205.352 181.957 205.352ZM181.957 201.52C185.156 201.52 187.125 198.391 187.125 192.273C187.125 186.191 185.121 182.992 181.957 182.992C178.793 182.992 176.789 186.191 176.789 192.273C176.789 198.391 178.758 201.52 181.957 201.52ZM204.949 205.352C198.832 205.352 195.176 200.605 195.176 192.273C195.176 183.977 198.832 179.195 204.949 179.195C211.031 179.195 214.723 183.977 214.723 192.273C214.723 200.605 211.066 205.352 204.949 205.352ZM204.949 201.52C208.148 201.52 210.117 198.391 210.117 192.273C210.117 186.191 208.113 182.992 204.949 182.992C201.785 182.992 199.781 186.191 199.781 192.273C199.781 198.391 201.75 201.52 204.949 201.52ZM227.941 205.352C221.824 205.352 218.168 200.605 218.168 192.273C218.168 183.977 221.824 179.195 227.941 179.195C234.023 179.195 237.715 183.977 237.715 192.273C237.715 200.605 234.059 205.352 227.941 205.352ZM227.941 201.52C231.141 201.52 233.109 198.391 233.109 192.273C233.109 186.191 231.105 182.992 227.941 182.992C224.777 182.992 222.773 186.191 222.773 192.273C222.773 198.391 224.742 201.52 227.941 201.52Z" fill="#111827"/>
<path d="M272.035 176.629V200.359H269.258V197.125H262.789V195.121H269.258V176.629H272.035ZM246.09 191.113C251.908 191.078 259.748 191.025 266.445 190.199L266.621 192.203C263.844 192.643 260.908 192.924 258.043 193.1V199.27H255.266V193.24C252.102 193.363 249.096 193.363 246.477 193.363L246.09 191.113ZM248.621 183.344C248.604 180.057 251.732 177.895 256.355 177.895C260.943 177.895 264.072 180.057 264.09 183.344C264.072 186.684 260.943 188.758 256.355 188.758C251.732 188.758 248.604 186.684 248.621 183.344ZM250.59 207.18V198.039H253.367V204.859H272.809V207.18H250.59ZM251.258 183.344C251.223 185.383 253.297 186.701 256.355 186.719C259.326 186.701 261.436 185.383 261.453 183.344C261.436 181.34 259.326 179.969 256.355 180.004C253.297 179.969 251.223 181.34 251.258 183.344Z" fill="#111827"/>
<path d="M183.497 221.89C184.182 221.893 184.797 222.026 185.343 222.287C185.891 222.549 186.32 222.913 186.63 223.381C186.939 223.845 187.096 224.376 187.099 224.972C187.096 225.569 186.939 226.099 186.63 226.564C186.32 227.028 185.891 227.389 185.343 227.646C184.797 227.904 184.182 228.033 183.497 228.033C182.805 228.033 182.184 227.904 181.635 227.646C181.087 227.389 180.657 227.028 180.348 226.564C180.039 226.099 179.884 225.569 179.884 224.972C179.884 224.376 180.039 223.845 180.348 223.381C180.657 222.913 181.087 222.549 181.635 222.287C182.184 222.026 182.805 221.893 183.497 221.89ZM181.088 224.972C181.085 225.37 181.186 225.726 181.392 226.039C181.602 226.352 181.89 226.595 182.254 226.768C182.622 226.941 183.037 227.028 183.497 227.028C183.954 227.028 184.365 226.941 184.729 226.768C185.098 226.595 185.385 226.352 185.591 226.039C185.801 225.726 185.906 225.37 185.906 224.972C185.906 224.578 185.801 224.225 185.591 223.912C185.385 223.599 185.098 223.355 184.729 223.182C184.365 223.009 183.954 222.924 183.497 222.928C183.037 222.924 182.622 223.009 182.254 223.182C181.89 223.355 181.602 223.599 181.392 223.912C181.186 224.225 181.085 224.578 181.088 224.972ZM181.994 229.182H191.033V232.53H183.232V234.088H191.53V235.083H182.039V231.602H189.818V230.177H181.994V229.182ZM189.807 221.381H191.033V228.508H189.807V221.381ZM200.408 229.039H193.988V222.641H200.408V229.039ZM199.215 228.044V223.646H195.182V228.044H199.215ZM195.557 230.597H196.773V233.945H204.894V234.961H195.557V230.597ZM203.027 221.37H204.254V225.602H206.342V226.641H204.254V231.558H203.027V221.37ZM218.667 231.945H217.43V230.497H214.568V229.602H217.43V221.392H218.667V231.945ZM207.142 227.823C208.977 227.816 210.614 227.788 212.054 227.74C213.498 227.689 214.874 227.58 216.181 227.414L216.27 228.309C215.117 228.494 213.842 228.628 212.446 228.713V231.459H211.22V228.773C210.273 228.81 209.194 228.829 207.982 228.829H207.308L207.142 227.823ZM208.258 224.376C208.258 223.897 208.402 223.475 208.689 223.11C208.977 222.742 209.382 222.459 209.905 222.26C210.428 222.057 211.028 221.956 211.706 221.956C212.376 221.956 212.971 222.057 213.491 222.26C214.01 222.459 214.413 222.742 214.7 223.11C214.991 223.475 215.139 223.897 215.142 224.376C215.139 224.862 214.991 225.287 214.7 225.652C214.413 226.013 214.01 226.293 213.491 226.492C212.975 226.687 212.38 226.785 211.706 226.785C211.025 226.785 210.422 226.687 209.899 226.492C209.38 226.297 208.977 226.017 208.689 225.652C208.402 225.287 208.258 224.862 208.258 224.376ZM209.142 230.906H210.369V233.945H219.01V234.961H209.142V230.906ZM209.43 224.376C209.426 224.674 209.518 224.936 209.706 225.16C209.898 225.385 210.166 225.56 210.513 225.685C210.859 225.807 211.257 225.867 211.706 225.867C212.141 225.867 212.529 225.807 212.872 225.685C213.214 225.56 213.481 225.385 213.673 225.16C213.868 224.936 213.967 224.674 213.971 224.376C213.967 224.081 213.868 223.821 213.673 223.597C213.481 223.368 213.214 223.192 212.872 223.066C212.529 222.941 212.141 222.88 211.706 222.884C211.257 222.88 210.859 222.941 210.513 223.066C210.166 223.192 209.898 223.368 209.706 223.597C209.518 223.821 209.426 224.081 209.43 224.376Z" fill="#9CA3AF"/>
</svg>
