<svg width="400" height="670" viewBox="0 0 400 670" fill="none" xmlns="http://www.w3.org/2000/svg">
<rect width="400" height="670" fill="white"/>
<mask id="mask0_514_2647" style="mask-type:alpha" maskUnits="userSpaceOnUse" x="25" y="20" width="40" height="40">
<rect x="25" y="20" width="40" height="40" fill="#D9D9D9"/>
</mask>
<g mask="url(#mask0_514_2647)">
<path d="M28.375 39.972L35.4583 47.0553C35.7267 47.3239 35.8562 47.6481 35.8471 48.0278C35.8379 48.4073 35.699 48.7313 35.4304 48.9999C35.1618 49.2685 34.8331 49.4028 34.4442 49.4028C34.0553 49.4028 33.7267 49.2685 33.4583 48.9999L25.4025 40.9445C25.2544 40.7962 25.1503 40.6434 25.09 40.4862C25.03 40.3287 25 40.1573 25 39.972C25 39.787 25.03 39.6158 25.09 39.4583C25.1503 39.3008 25.2544 39.148 25.4025 38.9999L33.4858 30.9166C33.7544 30.648 34.0832 30.5137 34.4721 30.5137C34.861 30.5137 35.1897 30.648 35.4583 30.9166C35.7267 31.1852 35.8608 31.5139 35.8608 31.9028C35.8608 32.2917 35.7267 32.6203 35.4583 32.8887L28.375 39.972Z" fill="#111827"/>
</g>
<path d="M64.2383 31.6738V47.5645H62.375V31.6738H64.2383ZM50.3691 42.8184C53.6562 40.876 55.168 38.3887 55.4668 35.1895H51.2129V33.6074H57.4004C57.4004 34.4072 57.3477 35.1895 57.2334 35.9453H59.0879V32.0605H60.9512V46.8086H59.0879V41.5H56.6094V39.9004H59.0879V37.5449H56.8994C56.1436 40.1816 54.4912 42.4492 51.5117 44.207L50.3691 42.8184ZM75.2246 33.0273V34.627H71.9023C71.9639 36.3848 73.2559 38.0547 75.6641 38.7578L74.7324 40.2871C72.9219 39.751 71.6299 38.6436 70.9268 37.2285C70.2236 38.7842 68.8965 39.9883 67.0332 40.5684L66.0312 39.0391C68.501 38.3008 69.8369 36.543 69.916 34.627H66.5762V33.0273H75.2246ZM65.8906 42.8359C67.0947 42.8359 68.4834 42.8359 69.9336 42.8008V39.9004H71.8848V42.7305C73.1855 42.6689 74.4951 42.5635 75.7168 42.3965L75.8574 43.8027C72.4912 44.4355 68.8613 44.4268 66.1543 44.4355L65.8906 42.8359ZM76.6309 47.5645V31.6738H78.582V38.0547H80.8848V39.6895H78.582V47.5645H76.6309ZM94.8594 31.6738V47.582H92.8906V31.6738H94.8594ZM82.1504 38.4414C82.1416 35.0137 83.8906 32.834 86.2988 32.834C88.6807 32.834 90.4385 35.0137 90.4473 38.4414C90.4385 41.8955 88.6807 44.0664 86.2988 44.0664C83.8906 44.0664 82.1416 41.8955 82.1504 38.4414ZM84.0312 38.4414C84.0312 40.8848 84.9541 42.2998 86.2988 42.3086C87.6348 42.2998 88.5488 40.8848 88.5488 38.4414C88.5488 36.0156 87.6348 34.5918 86.2988 34.5918C84.9541 34.5918 84.0312 36.0156 84.0312 38.4414ZM102.049 36.5254C102.049 38.9863 103.06 41.4648 105.283 42.6602L104.193 44.1016C102.717 43.3193 101.715 41.9219 101.144 40.252C100.581 42.0537 99.5791 43.6006 98.0938 44.4707L96.9512 42.9941C99.2012 41.6934 100.194 39.0391 100.203 36.5254V36.0332H97.4961V34.4512H100.203V32.2363H102.049V34.4512H104.703V36.0332H102.049V36.5254ZM103.719 39.3906V37.7734H105.793V31.9727H107.639V46.791H105.793V39.3906H103.719ZM109.01 47.5645V31.6738H110.873V47.5645H109.01Z" fill="#111827"/>
<path d="M343.265 40.2003H340.729V48.4171H339.349V32.8039H340.729V39.0442H343.265V40.2003ZM329.28 34.3453H330.648V43.2956C331.866 43.2914 333.064 43.2334 334.24 43.1215C335.417 43.0097 336.619 42.8273 337.845 42.5746L338.019 43.7555C336.743 44.0083 335.494 44.1885 334.271 44.2963C333.053 44.3999 331.804 44.4517 330.523 44.4517H329.28V34.3453ZM356.286 39.1561H358.822V40.3246H356.286V48.4171H354.906V32.8039H356.286V39.1561ZM344.29 44.3646C346.3 43.366 347.854 42.1291 348.952 40.654C350.054 39.1747 350.684 37.5028 350.841 35.6381H345.023V34.482H352.246C352.242 36.0028 351.989 37.4385 351.488 38.7894C350.99 40.1402 350.207 41.3833 349.138 42.5186C348.073 43.654 346.714 44.6298 345.061 45.4461L344.29 44.3646ZM372.663 48.4296H371.283V32.8039H372.663V48.4296ZM359.946 44.3646C362.03 43.3785 363.628 42.1478 364.738 40.6727C365.849 39.1975 366.481 37.5152 366.634 35.6257H360.667V34.5069H368.039C368.03 36.8605 367.434 38.9779 366.249 40.8591C365.068 42.7362 363.215 44.2818 360.692 45.4959L359.946 44.3646Z" fill="#EF403C"/>
<path d="M40.709 97.2334V99.0791H27.748V92.168H30.0244V97.2334H40.709ZM42.5547 101.417V103.283H35.1514V109.825H32.8545V103.283H25.6152V101.417H42.5547ZM58.5918 92.4141V94.0752C58.5918 95.8081 58.5918 97.7051 58.0996 100.33H60.6631V102.176H53.3008V109.846H51.0039V102.176H43.7646V100.33H55.7822C56.2949 97.8076 56.3154 95.9209 56.3154 94.2598H45.7539V92.4141H58.5918ZM77.9102 91.2861V109.825H75.7158V91.2861H77.9102ZM74.0957 91.6143V108.923H71.9219V100.104H70.1582C69.9429 103.714 68.3945 105.949 66.0977 105.929C63.6777 105.949 62.0986 103.386 62.0986 99.3047C62.0986 95.2236 63.6777 92.7012 66.0977 92.7012C68.3433 92.7012 69.8711 94.793 70.1377 98.2588H71.9219V91.6143H74.0957ZM66.0977 94.8545C64.9287 94.834 64.1904 96.4131 64.2109 99.3047C64.1904 102.196 64.9287 103.775 66.0977 103.755C67.3281 103.775 68.0664 102.196 68.0664 99.3047C68.0664 96.4131 67.3281 94.834 66.0977 94.8545ZM96.0596 91.2861V109.825H93.8857V91.2861H96.0596ZM92.1221 91.7373V108.943H89.9688V100.412H86.667C85.5801 102.545 83.8369 104.391 81.2119 105.908L79.9199 104.288C83.7651 102.022 85.5186 99.1201 85.8672 95.3877H80.8633V93.542H88.123C88.123 95.3364 87.9077 97.0181 87.4053 98.5869H89.9688V91.7373H92.1221ZM120.136 105.724V107.59H103.196V105.724H110.497V102.114H105.062V92.5166H107.339V95.5518H115.932V92.5166H118.208V102.114H112.753V105.724H120.136ZM107.339 100.269H115.932V97.377H107.339V100.269ZM137.198 91.3066V100.74H135.024V96.9258H133.035V100.699H130.923V91.6553H133.035V95.1006H135.024V91.3066H137.198ZM124.422 92.3115V98.0947C126.165 98.0742 127.816 97.9614 129.713 97.582L129.938 99.4277C127.58 99.8789 125.611 99.9609 123.376 99.9404H122.146V92.3115H124.422ZM137.198 101.438V106.298H126.965V107.795H137.854V109.6H124.668V104.616H134.922V103.263H124.647V101.438H137.198ZM154.281 91.2861V98.6895H156.845V100.576H154.281V109.825H151.984V91.2861H154.281ZM145.053 93.2344C145.032 98.0947 144.355 102.196 141.013 105.806L139.229 104.514C141.843 101.745 142.694 98.8125 142.879 95.1006H139.967V93.2344H145.053ZM150.18 93.2344C150.159 98.2178 149.646 102.976 146.304 106.995L144.479 105.744C147.124 102.596 147.862 99.1201 148.026 95.1006H145.668V93.2344H150.18ZM174.584 105.703V107.569H157.645V105.703H161.562V101.007C160.085 100.166 159.193 98.8433 159.203 97.1924C159.183 94.2393 162.095 92.291 166.073 92.291C170.072 92.291 172.984 94.2393 172.984 97.1924C172.984 98.8125 172.123 100.115 170.688 100.966V105.703H174.584ZM166.073 94.0957C163.305 94.0957 161.418 95.2646 161.438 97.1924C161.418 99.0996 163.305 100.289 166.073 100.289C168.842 100.289 170.749 99.0996 170.749 97.1924C170.749 95.2646 168.842 94.0957 166.073 94.0957ZM163.817 105.703H168.37V101.827C167.663 101.991 166.894 102.073 166.073 102.073C165.273 102.073 164.515 101.991 163.817 101.848V105.703ZM178.932 103.447C178.952 100.843 179.69 100.043 180.982 99.2432C181.864 98.6895 182.521 97.9922 182.521 96.9668C182.521 95.8184 181.639 95.0801 180.511 95.0801C179.485 95.0801 178.501 95.7363 178.439 97.1104H175.876C175.938 94.3623 178.009 92.9473 180.531 92.9473C183.3 92.9473 185.207 94.4854 185.207 96.9258C185.207 98.5869 184.366 99.6738 183.033 100.474C181.844 101.191 181.352 101.909 181.331 103.447V103.632H178.932V103.447ZM180.203 108.164C179.321 108.164 178.604 107.446 178.604 106.564C178.604 105.703 179.321 104.985 180.203 104.985C181.044 104.985 181.782 105.703 181.782 106.564C181.782 107.446 181.044 108.164 180.203 108.164Z" fill="#111827"/>
<mask id="path-6-inside-1_514_2647" fill="white">
<path d="M25 123H375V177H25V123Z"/>
</mask>
<path d="M375 176H25V178H375V176Z" fill="#D1D5DB" mask="url(#path-6-inside-1_514_2647)"/>
<path d="M39.8711 150.041V151.166H25.6328V150.041H39.8711ZM27.2148 145.453C27.2148 143.493 29.3594 142.342 32.752 142.359C36.1094 142.342 38.2627 143.493 38.2715 145.453C38.2627 147.396 36.1094 148.564 32.752 148.564C29.3594 148.564 27.2148 147.396 27.2148 145.453ZM27.4785 157.09V152.537H28.8672V155.93H38.2891V157.09H27.4785ZM28.6387 145.453C28.6299 146.692 30.2295 147.439 32.752 147.439C35.2568 147.439 36.8564 146.692 36.8652 145.453C36.8564 144.231 35.2568 143.467 32.752 143.467C30.2295 143.467 28.6299 144.231 28.6387 145.453ZM54.4609 141.797V151.693H53.1426V147.211H51.0508V151.131H49.75V142.113H51.0508V146.068H53.1426V141.797H54.4609ZM41.1016 144.785V143.678H44.4414V141.92H45.8125V143.678H49.1172V144.785H41.1016ZM41.7871 148.301C41.7783 146.666 43.1582 145.62 45.127 145.629C47.1045 145.62 48.4756 146.666 48.4844 148.301C48.4756 149.909 47.1045 150.955 45.127 150.955C43.1582 150.955 41.7783 149.909 41.7871 148.301ZM43.0176 148.301C43.0176 149.259 43.8789 149.918 45.127 149.918C46.375 149.918 47.2363 149.259 47.2363 148.301C47.2363 147.308 46.375 146.648 45.127 146.648C43.8789 146.648 43.0176 147.308 43.0176 148.301ZM44.0547 154.699C44.0371 152.941 45.9971 151.957 49.293 151.957C52.5801 151.957 54.54 152.941 54.5488 154.699C54.54 156.413 52.5801 157.389 49.293 157.389C45.9971 157.389 44.0371 156.413 44.0547 154.699ZM45.4258 154.699C45.4082 155.71 46.8584 156.325 49.293 156.316C51.7188 156.325 53.1602 155.71 53.1777 154.699C53.1602 153.627 51.7188 153.029 49.293 153.047C46.8584 153.029 45.4082 153.627 45.4258 154.699ZM61.8613 142.676L57.748 157.916H56.377L60.4727 142.676H61.8613ZM76.9961 149.232V150.375H62.7578V149.232H76.9961ZM63.5664 147.193C66.291 146.877 68.9189 145.532 68.9805 143.748H64.0586V142.605H75.7305V143.748H70.7734C70.835 145.515 73.4365 146.877 76.2051 147.193L75.6953 148.301C73.1377 147.976 70.7383 146.824 69.877 145.093C69.0156 146.824 66.6338 147.976 64.0586 148.301L63.5664 147.193ZM64.4805 154.576C64.4717 152.783 66.502 151.746 69.877 151.746C73.2256 151.746 75.2383 152.783 75.2559 154.576C75.2383 156.387 73.2256 157.389 69.877 157.389C66.502 157.389 64.4717 156.387 64.4805 154.576ZM65.8867 154.576C65.8691 155.666 67.3721 156.29 69.877 156.281C72.3555 156.29 73.8584 155.666 73.8672 154.576C73.8584 153.478 72.3555 152.854 69.877 152.836C67.3721 152.854 65.8691 153.478 65.8867 154.576ZM91.252 141.814V153.627H89.8457V151.43H86.4004V150.305H89.8457V141.814H91.252ZM78.209 148.002C80.2217 147.993 82.7441 147.976 85.2227 147.809C85.5303 146.086 85.583 144.785 85.5918 143.889H79.6152V142.764H86.9629V143.379C86.9717 144.24 86.9717 145.699 86.6377 147.694C87.2441 147.642 87.8418 147.571 88.4219 147.492L88.5273 148.494C87.0684 148.74 85.5391 148.89 84.0449 148.986V152.59H82.6738V149.057C81.1357 149.127 79.668 149.145 78.4023 149.145L78.209 148.002ZM80.5469 157.09V152.309H81.9355V155.93H91.6387V157.09H80.5469ZM99.1094 145.998C99.1094 148.749 100.929 151.588 103.152 152.678L102.309 153.785C100.586 152.889 99.1445 151.034 98.4502 148.863C97.7559 151.166 96.2793 153.144 94.5215 154.084L93.6426 152.977C95.9277 151.852 97.7383 148.854 97.7559 145.998V143.15H99.1094V145.998ZM104.594 157.424V141.797H105.965V148.143H108.584V149.338H105.965V157.424H104.594Z" fill="#9CA3AF"/>
<mask id="mask1_514_2647" style="mask-type:alpha" maskUnits="userSpaceOnUse" x="351" y="138" width="24" height="24">
<rect x="351" y="138" width="24" height="24" fill="#D9D9D9"/>
</mask>
<g mask="url(#mask1_514_2647)">
<path d="M362.474 152.475L358.849 148.85C358.799 148.8 358.762 148.746 358.737 148.688C358.712 148.629 358.699 148.567 358.699 148.5C358.699 148.367 358.745 148.25 358.837 148.15C358.928 148.05 359.049 148 359.199 148H366.799C366.949 148 367.07 148.05 367.162 148.15C367.253 148.25 367.299 148.367 367.299 148.5C367.299 148.533 367.249 148.65 367.149 148.85L363.524 152.475C363.441 152.558 363.358 152.617 363.274 152.65C363.191 152.683 363.099 152.7 362.999 152.7C362.899 152.7 362.808 152.683 362.724 152.65C362.641 152.617 362.558 152.558 362.474 152.475Z" fill="#111827"/>
</g>
<mask id="path-11-inside-2_514_2647" fill="white">
<path d="M25 177H375V231H25V177Z"/>
</mask>
<path d="M375 230H25V232H375V230Z" fill="#D1D5DB" mask="url(#path-11-inside-2_514_2647)"/>
<path d="M39.0097 212.43H37.692V196.804H39.0097V212.43ZM25.6215 208.054C27.2831 207.068 28.5573 205.889 29.4441 204.517C30.3349 203.142 30.8508 201.619 30.9917 199.949H26.3177V198.793H32.3591C32.3591 199.609 32.2887 200.396 32.1478 201.155H34.5221V197.227H35.8522V211.634H34.5221V206.214H31.6257V205.07H34.5221V202.298H31.8805C31.4869 203.666 30.8425 204.919 29.9475 206.059C29.0566 207.194 27.8923 208.191 26.4544 209.048L25.6215 208.054ZM46.6727 199.601C46.6685 200.256 46.8301 200.881 47.1575 201.478C47.489 202.07 47.9489 202.59 48.5373 203.038C49.1298 203.481 49.8053 203.819 50.5635 204.051L49.9047 205.145C48.9972 204.859 48.2017 204.426 47.518 203.846C46.8384 203.266 46.3287 202.584 45.989 201.801C45.645 202.646 45.1229 203.382 44.4227 204.008C43.7265 204.629 42.9102 205.095 41.9738 205.406L41.2652 204.312C42.0484 204.068 42.7424 203.711 43.3474 203.243C43.9524 202.775 44.4247 202.228 44.7645 201.602C45.1043 200.972 45.2763 200.305 45.2804 199.601V199.414H41.7376V198.258H50.1906V199.414H46.6727V199.601ZM40.9917 207.992C42.8274 207.992 44.2611 207.977 45.2928 207.948V204.76H46.6727V207.898C48.3301 207.82 49.7348 207.698 50.8868 207.532L50.9862 208.551C49.9503 208.733 48.8667 208.868 47.7355 208.955C46.6043 209.042 45.5518 209.096 44.578 209.117C43.6084 209.137 42.4834 209.148 41.203 209.148L40.9917 207.992ZM51.8937 196.804H53.2611V203.293H55.8094V204.474H53.2611V212.43H51.8937V196.804ZM69.7003 208.377H68.3205V202.36H64.6285V205.704H57.5304V197.848H58.9102V200.633H63.2611V197.848H64.6285V201.217H68.3205V196.816H69.7003V208.377ZM63.2611 204.573V201.714H58.9102V204.573H63.2611ZM59.5939 207.246H60.9862V210.938H70.0608V212.081H59.5939V207.246ZM85.8039 200.26H73.0125V199.116H78.7431V197.065H80.0981V199.116H85.8039V200.26ZM72.3039 209.446H78.7431V207.252C77.8149 207.206 77.0152 207.059 76.344 206.811C75.6768 206.558 75.1651 206.218 74.8087 205.791C74.4524 205.36 74.2763 204.855 74.2804 204.275C74.2763 203.657 74.4793 203.127 74.8895 202.684C75.3039 202.24 75.8964 201.903 76.6672 201.671C77.442 201.439 78.3578 201.325 79.4144 201.329C80.4627 201.325 81.3743 201.439 82.1492 201.671C82.9241 201.903 83.5187 202.242 83.933 202.69C84.3516 203.133 84.5608 203.662 84.5608 204.275C84.5608 204.851 84.3806 205.354 84.0201 205.785C83.6637 206.212 83.1499 206.552 82.4786 206.805C81.8115 207.053 81.018 207.202 80.0981 207.252V209.446H86.6119V210.59H72.3039V209.446ZM75.6727 204.275C75.6685 204.664 75.8156 205 76.114 205.282C76.4165 205.559 76.8474 205.773 77.4068 205.922C77.9703 206.071 78.6395 206.148 79.4144 206.152C80.1851 206.148 80.8502 206.071 81.4096 205.922C81.9731 205.773 82.404 205.559 82.7024 205.282C83.0049 205 83.1561 204.664 83.1561 204.275C83.1561 203.89 83.0049 203.558 82.7024 203.28C82.404 203.003 81.9731 202.791 81.4096 202.646C80.846 202.497 80.181 202.423 79.4144 202.423C78.6437 202.423 77.9766 202.497 77.413 202.646C76.8495 202.791 76.4165 203.003 76.114 203.28C75.8156 203.558 75.6685 203.89 75.6727 204.275Z" fill="#9CA3AF"/>
</svg>
