<svg width="400" height="727" viewBox="0 0 400 727" fill="none" xmlns="http://www.w3.org/2000/svg">
<rect width="400" height="727" fill="white"/>
<mask id="mask0_514_3504" style="mask-type:alpha" maskUnits="userSpaceOnUse" x="25" y="20" width="40" height="40">
<rect x="25" y="20" width="40" height="40" fill="#D9D9D9"/>
</mask>
<g mask="url(#mask0_514_3504)">
<path d="M28.375 39.972L35.4583 47.0553C35.7267 47.3239 35.8562 47.6481 35.8471 48.0278C35.8379 48.4073 35.699 48.7313 35.4304 48.9999C35.1618 49.2685 34.8331 49.4028 34.4442 49.4028C34.0553 49.4028 33.7267 49.2685 33.4583 48.9999L25.4025 40.9445C25.2544 40.7962 25.1503 40.6434 25.09 40.4862C25.03 40.3287 25 40.1573 25 39.972C25 39.787 25.03 39.6158 25.09 39.4583C25.1503 39.3008 25.2544 39.148 25.4025 38.9999L33.4858 30.9166C33.7544 30.648 34.0832 30.5137 34.4721 30.5137C34.861 30.5137 35.1897 30.648 35.4583 30.9166C35.7267 31.1852 35.8608 31.5139 35.8608 31.9028C35.8608 32.2917 35.7267 32.6203 35.4583 32.8887L28.375 39.972Z" fill="#111827"/>
</g>
<path d="M64.2272 48.5539H62.3812V32.6796H64.2272V48.5539ZM50.3605 43.8239C51.9765 42.8667 53.1927 41.7645 54.009 40.5173C54.8294 39.2659 55.3142 37.826 55.4634 36.1975H51.212V34.6126H57.4088C57.4088 35.4123 57.3529 36.1892 57.241 36.9434H59.0932V33.0649H60.9517V47.8142H59.0932V42.4938H56.6133V40.9088H59.0932V38.5345H56.8992C56.5097 39.8978 55.8778 41.1367 55.0035 42.2514C54.1291 43.3619 52.9669 44.3481 51.5166 45.2099L50.3605 43.8239ZM75.2217 35.6257H71.9026C71.9234 36.2224 72.0808 36.7921 72.375 37.3349C72.6734 37.8778 73.1001 38.3605 73.6554 38.7831C74.2106 39.2017 74.8778 39.5249 75.6568 39.7528L74.7307 41.2818C73.8398 41.0207 73.0711 40.6291 72.4247 40.107C71.7825 39.5808 71.2832 38.9572 70.9268 38.2362C70.5705 39.0235 70.0587 39.7051 69.3916 40.2811C68.7286 40.857 67.9392 41.2859 67.0235 41.5677L66.0352 40.0387C66.8391 39.7983 67.5269 39.4565 68.0988 39.0131C68.6706 38.5656 69.1077 38.0518 69.4102 37.4717C69.7169 36.8874 69.8826 36.2721 69.9075 35.6257H66.576V34.0221H75.2217V35.6257ZM65.8923 43.8301C67.6202 43.8301 68.9689 43.8198 69.9385 43.799V40.8964H71.8902V43.7307C73.3239 43.6644 74.6022 43.5504 75.7251 43.3888L75.8619 44.8122C74.826 45.0028 73.7486 45.1436 72.6298 45.2348C71.5111 45.3218 70.4751 45.3757 69.5221 45.3964C68.5732 45.4171 67.4524 45.4275 66.1595 45.4275L65.8923 43.8301ZM76.6264 32.6796H78.578V39.0566H80.8778V40.6913H78.578V48.5539H76.6264V32.6796ZM94.8619 48.5912H92.8916V32.6796H94.8619V48.5912ZM82.1513 39.442C82.1513 38.3191 82.3274 37.3349 82.6796 36.4896C83.0359 35.6402 83.527 34.9855 84.1526 34.5256C84.7825 34.0615 85.4993 33.8294 86.3032 33.8294C87.0946 33.8294 87.8032 34.0615 88.4289 34.5256C89.0587 34.9855 89.5497 35.6402 89.902 36.4896C90.2583 37.3349 90.4365 38.3191 90.4365 39.442C90.4365 40.5732 90.2583 41.5656 89.902 42.4192C89.5497 43.2686 89.0587 43.9233 88.4289 44.3833C87.8032 44.8391 87.0946 45.067 86.3032 45.067C85.4993 45.067 84.7825 44.8391 84.1526 44.3833C83.5228 43.9233 83.0318 43.2686 82.6796 42.4192C82.3274 41.5656 82.1513 40.5732 82.1513 39.442ZM84.0346 39.442C84.0346 40.2417 84.1278 40.9337 84.3142 41.518C84.5049 42.0981 84.77 42.5414 85.1098 42.8481C85.4538 43.1506 85.8515 43.3018 86.3032 43.3018C86.7466 43.3018 87.1361 43.1485 87.4717 42.8419C87.8115 42.5352 88.0746 42.0919 88.2611 41.5117C88.4517 40.9316 88.547 40.2417 88.547 39.442C88.547 38.6464 88.4517 37.9606 88.2611 37.3847C88.0746 36.8046 87.8115 36.3612 87.4717 36.0546C87.1361 35.7479 86.7466 35.5946 86.3032 35.5946C85.8515 35.5946 85.4538 35.7479 85.1098 36.0546C84.77 36.3612 84.5049 36.8046 84.3142 37.3847C84.1278 37.9606 84.0346 38.6464 84.0346 39.442ZM102.053 37.5276C102.053 38.3729 102.169 39.1892 102.401 39.9765C102.637 40.7638 102.997 41.4786 103.482 42.1209C103.967 42.7631 104.568 43.2769 105.285 43.6623L104.197 45.0981C103.476 44.721 102.861 44.203 102.351 43.5442C101.841 42.8812 101.439 42.1167 101.145 41.2507C100.855 42.1872 100.453 43.02 99.9393 43.7493C99.4296 44.4744 98.8143 45.0483 98.0933 45.471L96.9558 43.9979C97.6768 43.5794 98.2797 43.0283 98.7645 42.3446C99.2493 41.6568 99.6098 40.9006 99.846 40.076C100.082 39.2472 100.202 38.3978 100.207 37.5276V37.0304H97.4966V35.4517H100.207V33.239H102.046V35.4517H104.707V37.0304H102.053V37.5276ZM103.718 38.7831H105.8V32.9779H107.634V47.7894H105.8V40.393H103.718V38.7831ZM109.014 32.6796H110.866V48.5539H109.014V32.6796Z" fill="#111827"/>
<mask id="mask1_514_3504" style="mask-type:alpha" maskUnits="userSpaceOnUse" x="276" y="20" width="40" height="40">
<rect x="276" y="20" width="40" height="40" fill="#D9D9D9"/>
</mask>
<g mask="url(#mask1_514_3504)">
<path d="M287.139 53.3334C286.375 53.3334 285.722 53.0614 285.178 52.5175C284.634 51.9734 284.362 51.3193 284.362 50.5555V37.3613L280.417 40.3471C280.102 40.588 279.763 40.6875 279.403 40.6459C279.042 40.6042 278.741 40.426 278.501 40.1113C278.26 39.7963 278.167 39.4537 278.223 39.0834C278.278 38.7131 278.463 38.4075 278.778 38.1667L294.32 26.2917C294.57 26.1064 294.838 25.963 295.124 25.8613C295.411 25.7593 295.703 25.7084 296.001 25.7084C296.298 25.7084 296.59 25.7593 296.877 25.8613C297.163 25.963 297.431 26.1064 297.681 26.2917L303.167 30.4721V28.8888C303.167 28.2716 303.384 27.747 303.816 27.315C304.249 26.8828 304.775 26.6667 305.393 26.6667C306.011 26.6667 306.535 26.8828 306.966 27.315C307.397 27.747 307.612 28.2716 307.612 28.8888V33.8613L313.223 38.1667C313.528 38.4075 313.707 38.7131 313.758 39.0834C313.808 39.4537 313.713 39.7963 313.473 40.1113C313.232 40.426 312.931 40.6042 312.571 40.6459C312.21 40.6875 311.872 40.588 311.556 40.3471L307.612 37.3334V50.5555C307.612 51.3193 307.34 51.9734 306.796 52.5175C306.252 53.0614 305.598 53.3334 304.834 53.3334H300.723C299.959 53.3334 299.305 53.0614 298.761 52.5175C298.217 51.9734 297.945 51.3193 297.945 50.5555V43.3334H294.056V50.5555C294.056 51.3193 293.784 51.9734 293.24 52.5175C292.696 53.0614 292.042 53.3334 291.278 53.3334H287.139ZM287.139 50.5555H291.278V43.3334C291.278 42.5695 291.55 41.9156 292.094 41.3717C292.638 40.8275 293.292 40.5555 294.056 40.5555H297.945C298.709 40.5555 299.363 40.8275 299.907 41.3717C300.451 41.9156 300.723 42.5695 300.723 43.3334V50.5555H304.834V35.2363L296.001 28.4863L287.139 35.2363V50.5555ZM292.528 36.403H299.473C299.473 35.4955 299.125 34.7477 298.431 34.1596C297.737 33.5718 296.926 33.278 296.001 33.278C295.075 33.278 294.265 33.5705 293.57 34.1555C292.876 34.7405 292.528 35.4896 292.528 36.403Z" fill="#0F172A"/>
</g>
<mask id="mask2_514_3504" style="mask-type:alpha" maskUnits="userSpaceOnUse" x="335" y="20" width="40" height="40">
<rect x="335" y="20" width="40" height="40" fill="#D9D9D9"/>
</mask>
<g mask="url(#mask2_514_3504)">
<path d="M341.389 50C340.995 50 340.666 49.8664 340.399 49.5992C340.133 49.3322 340 49.0013 340 48.6063C340 48.2113 340.133 47.8818 340.399 47.6179C340.666 47.354 340.995 47.2221 341.389 47.2221H368.611C369.005 47.2221 369.334 47.3557 369.601 47.6229C369.867 47.8901 370 48.2211 370 48.6158C370 49.0108 369.867 49.3403 369.601 49.6042C369.334 49.8681 369.005 50 368.611 50H341.389ZM341.389 41.3888C340.995 41.3888 340.666 41.2553 340.399 40.9883C340.133 40.7211 340 40.39 340 39.995C340 39.6003 340.133 39.271 340.399 39.0071C340.666 38.7432 340.995 38.6112 341.389 38.6112H368.611C369.005 38.6112 369.334 38.7447 369.601 39.0117C369.867 39.2789 370 39.61 370 40.005C370 40.3997 369.867 40.729 369.601 40.9929C369.334 41.2568 369.005 41.3888 368.611 41.3888H341.389ZM341.389 32.7779C340.995 32.7779 340.666 32.6443 340.399 32.3771C340.133 32.1099 340 31.7789 340 31.3842C340 30.9892 340.133 30.6597 340.399 30.3958C340.666 30.1319 340.995 30 341.389 30H368.611C369.005 30 369.334 30.1336 369.601 30.4008C369.867 30.6678 370 30.9988 370 31.3938C370 31.7888 369.867 32.1182 369.601 32.3821C369.334 32.646 369.005 32.7779 368.611 32.7779H341.389Z" fill="#111827"/>
</g>
<mask id="path-8-inside-1_514_3504" fill="white">
<path d="M25 100H375V217H25V100Z"/>
</mask>
<path d="M375 215H25V219H375V215Z" fill="#6B7280" mask="url(#path-8-inside-1_514_3504)"/>
<mask id="mask3_514_3504" style="mask-type:alpha" maskUnits="userSpaceOnUse" x="176" y="100" width="48" height="48">
<rect x="176" y="100" width="48" height="48" fill="#D9D9D9"/>
</mask>
<g mask="url(#mask3_514_3504)">
<path d="M197.05 128.55L192.15 123.65C191.85 123.35 191.483 123.2 191.05 123.2C190.617 123.2 190.233 123.367 189.9 123.7C189.6 124 189.45 124.367 189.45 124.8C189.45 125.233 189.6 125.6 189.9 125.9L196 132.05C196.3 132.35 196.65 132.5 197.05 132.5C197.45 132.5 197.8 132.35 198.1 132.05L210.05 120.1C210.383 119.767 210.55 119.383 210.55 118.95C210.55 118.517 210.383 118.133 210.05 117.8C209.717 117.5 209.325 117.358 208.875 117.375C208.425 117.392 208.05 117.55 207.75 117.85L197.05 128.55ZM200 144C197.267 144 194.683 143.475 192.25 142.425C189.817 141.375 187.692 139.942 185.875 138.125C184.058 136.308 182.625 134.183 181.575 131.75C180.525 129.317 180 126.733 180 124C180 121.233 180.525 118.633 181.575 116.2C182.625 113.767 184.058 111.65 185.875 109.85C187.692 108.05 189.817 106.625 192.25 105.575C194.683 104.525 197.267 104 200 104C202.767 104 205.367 104.525 207.8 105.575C210.233 106.625 212.35 108.05 214.15 109.85C215.95 111.65 217.375 113.767 218.425 116.2C219.475 118.633 220 121.233 220 124C220 126.733 219.475 129.317 218.425 131.75C217.375 134.183 215.95 136.308 214.15 138.125C212.35 139.942 210.233 141.375 207.8 142.425C205.367 143.475 202.767 144 200 144Z" fill="#00C18A"/>
</g>
<path d="M173.992 164.828V186.203H170.969V164.828H173.992ZM162.414 166.328C165.625 166.328 168.016 169.281 168.016 173.922C168.016 178.609 165.625 181.539 162.414 181.539C159.133 181.539 156.742 178.609 156.766 173.922C156.742 169.281 159.133 166.328 162.414 166.328ZM162.414 169.023C160.75 169.023 159.648 170.758 159.648 173.922C159.648 177.109 160.75 178.82 162.414 178.82C164.031 178.82 165.133 177.109 165.133 173.922C165.133 170.758 164.031 169.023 162.414 169.023ZM183.531 171.32C183.531 174.555 184.703 177.789 187.727 179.43L186.086 181.609C184.164 180.625 182.887 178.891 182.148 176.805C181.398 179.078 180.121 181 178.188 182.125L176.477 179.875C179.547 178.094 180.695 174.625 180.719 171.32V170.828H177.273V168.438H180.719V165.555H183.508V168.438H186.883V170.828H183.531V171.32ZM195.32 164.828V186.156H192.484V164.828H195.32ZM190.961 165.18V185.172H188.148V175.352H185.641V172.914H188.148V165.18H190.961ZM209.57 165.695C212.688 165.695 214.938 167.453 214.938 170.031C214.938 172.117 213.402 173.711 211.117 174.203V175.75C212.781 175.656 214.457 175.504 216.016 175.281L216.25 177.461C211.867 178.234 206.969 178.328 203.406 178.328L203.102 175.961C204.578 175.961 206.301 175.949 208.117 175.891V174.227C205.762 173.758 204.18 172.152 204.203 170.031C204.18 167.453 206.43 165.695 209.57 165.695ZM209.57 167.945C208.047 167.969 206.969 168.695 206.992 170.031C206.969 171.32 208.047 172.094 209.57 172.094C211.094 172.094 212.125 171.32 212.125 170.031C212.125 168.695 211.094 167.969 209.57 167.945ZM220.211 164.852V171.555H222.93V174.039H220.211V181.117H217.211V164.852H220.211ZM220.938 183.367V185.758H205.914V179.688H208.914V183.367H220.938ZM243.414 181.328V183.789H223.891V181.328H228.883V178.07H226.141V170.898H238.211V168.602H226.117V166.211H241.164V173.289H229.141V175.656H241.656V178.07H238.633V181.328H243.414ZM231.789 181.328H235.703V178.07H231.789V181.328Z" fill="#111827"/>
<path d="M38.2818 263.492H25.5635V262.464H31.2762V259.47H27.0663V252.365H28.2928V254.873H35.5083V252.365H36.7238V259.47H32.4917V262.464H38.2818V263.492ZM35.5083 258.464V255.878H28.2928V258.464H35.5083ZM51.248 265.271H50.0546V258.077H48.0436V264.541H46.8834V251.691H48.0436V257.039H50.0546V251.381H51.248V265.271ZM40.0878 253.072H41.3143V260.575C42.0657 260.571 42.8134 260.536 43.5574 260.47C44.3014 260.403 45.0712 260.291 45.8668 260.133L46.0104 261.215C45.097 261.381 44.2333 261.499 43.4193 261.569C42.609 261.635 41.7895 261.669 40.9607 261.669H40.0878V253.072ZM64.4463 256.586H54.9435V251.89H56.159V255.591H64.4463V256.586ZM53.1977 258.475H65.9159V259.47H53.1977V258.475ZM54.8551 260.884H56.0706V263.912H64.5347V264.928H54.8551V260.884ZM82.1133 253.149C82.1133 253.643 82.1059 254.076 82.0912 254.448C82.0801 254.82 82.047 255.243 81.9917 255.718C81.9401 256.193 81.8554 256.7 81.7376 257.238H83.7818V258.254H71.0635V257.238H80.5055C80.6271 256.696 80.7155 256.188 80.7707 255.713C80.8297 255.238 80.8646 254.816 80.8757 254.448C80.8904 254.079 80.8978 253.646 80.8978 253.149V253.138H72.6768V252.122H82.1133V253.149ZM72.6326 260.166H82.1685V265.083H72.6326V260.166ZM80.953 264.077V261.138H73.837V264.077H80.953ZM88.2176 252.254C88.8217 252.254 89.365 252.394 89.8475 252.674C90.3337 252.95 90.713 253.339 90.9856 253.84C91.2618 254.337 91.3999 254.902 91.3999 255.536C91.3999 256.169 91.2618 256.733 90.9856 257.227C90.713 257.72 90.3355 258.103 89.853 258.376C89.3705 258.648 88.8254 258.785 88.2176 258.785C87.6025 258.785 87.0537 258.648 86.5712 258.376C86.0887 258.103 85.713 257.72 85.4441 257.227C85.1753 256.733 85.0427 256.169 85.0464 255.536C85.0427 254.899 85.1753 254.331 85.4441 253.834C85.7167 253.337 86.0942 252.95 86.5767 252.674C87.0592 252.394 87.6062 252.254 88.2176 252.254ZM86.1513 255.536C86.1476 255.956 86.2342 256.335 86.411 256.674C86.5915 257.013 86.8383 257.278 87.1513 257.47C87.4681 257.657 87.8235 257.75 88.2176 257.746C88.6081 257.75 88.9598 257.657 89.2729 257.47C89.586 257.278 89.8309 257.015 90.0077 256.68C90.1882 256.341 90.2802 255.959 90.2839 255.536C90.2802 255.112 90.1882 254.731 90.0077 254.392C89.8309 254.053 89.586 253.79 89.2729 253.602C88.9598 253.411 88.6081 253.315 88.2176 253.315C87.8235 253.315 87.4681 253.411 87.1513 253.602C86.8383 253.79 86.5915 254.053 86.411 254.392C86.2342 254.731 86.1476 255.112 86.1513 255.536ZM87.3226 260.431H96.6817V265.271H95.4773V261.425H87.3226V260.431ZM92.516 251.657H93.6762V254.972H95.5215V251.392H96.6817V259.657H95.5215V255.978H93.6762V259.558H92.516V251.657Z" fill="#9CA3AF"/>
<path d="M299.693 265H298.102V253.924H298.028L294.932 255.975V254.384L298.102 252.271H299.693V265ZM307.25 265.174C306.314 265.174 305.512 264.919 304.845 264.41C304.182 263.896 303.674 263.15 303.322 262.172C302.974 261.194 302.8 260.015 302.8 258.635C302.8 257.268 302.976 256.095 303.328 255.117C303.681 254.135 304.19 253.387 304.857 252.874C305.524 252.356 306.322 252.097 307.25 252.097C308.178 252.097 308.976 252.356 309.643 252.874C310.31 253.387 310.82 254.135 311.172 255.117C311.524 256.095 311.701 257.268 311.701 258.635C311.701 260.015 311.524 261.194 311.172 262.172C310.824 263.15 310.317 263.896 309.649 264.41C308.987 264.919 308.187 265.174 307.25 265.174ZM304.341 258.635C304.341 259.725 304.455 260.655 304.683 261.426C304.911 262.193 305.243 262.775 305.678 263.173C306.113 263.57 306.637 263.769 307.25 263.769C307.864 263.769 308.388 263.57 308.823 263.173C309.258 262.775 309.589 262.193 309.817 261.426C310.045 260.655 310.159 259.725 310.159 258.635C310.159 257.546 310.043 256.615 309.811 255.845C309.583 255.07 309.252 254.481 308.817 254.079C308.382 253.677 307.859 253.477 307.25 253.477C306.641 253.477 306.119 253.677 305.684 254.079C305.249 254.481 304.915 255.07 304.683 255.845C304.455 256.615 304.341 257.546 304.341 258.635ZM317.973 265.174C317.037 265.174 316.235 264.919 315.568 264.41C314.905 263.896 314.397 263.15 314.045 262.172C313.697 261.194 313.523 260.015 313.523 258.635C313.523 257.268 313.699 256.095 314.051 255.117C314.403 254.135 314.913 253.387 315.58 252.874C316.247 252.356 317.045 252.097 317.973 252.097C318.901 252.097 319.699 252.356 320.366 252.874C321.033 253.387 321.543 254.135 321.895 255.117C322.247 256.095 322.423 257.268 322.423 258.635C322.423 260.015 322.247 261.194 321.895 262.172C321.547 263.15 321.039 263.896 320.372 264.41C319.709 264.919 318.909 265.174 317.973 265.174ZM315.064 258.635C315.064 259.725 315.178 260.655 315.406 261.426C315.634 262.193 315.965 262.775 316.4 263.173C316.836 263.57 317.36 263.769 317.973 263.769C318.586 263.769 319.11 263.57 319.545 263.173C319.981 262.775 320.312 262.193 320.54 261.426C320.768 260.655 320.882 259.725 320.882 258.635C320.882 257.546 320.766 256.615 320.534 255.845C320.306 255.07 319.974 254.481 319.539 254.079C319.104 253.677 318.582 253.477 317.973 253.477C317.364 253.477 316.842 253.677 316.407 254.079C315.972 254.481 315.638 255.07 315.406 255.845C315.178 256.615 315.064 257.546 315.064 258.635ZM324.738 268.593H323.433L324.403 263.807H326.093L324.738 268.593ZM332.457 265.174C331.521 265.174 330.719 264.919 330.052 264.41C329.389 263.896 328.881 263.15 328.529 262.172C328.181 261.194 328.007 260.015 328.007 258.635C328.007 257.268 328.183 256.095 328.535 255.117C328.888 254.135 329.397 253.387 330.064 252.874C330.732 252.356 331.529 252.097 332.457 252.097C333.386 252.097 334.183 252.356 334.85 252.874C335.517 253.387 336.027 254.135 336.379 255.117C336.732 256.095 336.908 257.268 336.908 258.635C336.908 260.015 336.732 261.194 336.379 262.172C336.031 263.15 335.524 263.896 334.857 264.41C334.194 264.919 333.394 265.174 332.457 265.174ZM329.549 258.635C329.549 259.725 329.662 260.655 329.89 261.426C330.118 262.193 330.45 262.775 330.885 263.173C331.32 263.57 331.844 263.769 332.457 263.769C333.071 263.769 333.595 263.57 334.03 263.173C334.465 262.775 334.796 262.193 335.024 261.426C335.252 260.655 335.366 259.725 335.366 258.635C335.366 257.546 335.25 256.615 335.018 255.845C334.79 255.07 334.459 254.481 334.024 254.079C333.589 253.677 333.066 253.477 332.457 253.477C331.848 253.477 331.326 253.677 330.891 254.079C330.456 254.481 330.122 255.07 329.89 255.845C329.662 256.615 329.549 257.546 329.549 258.635ZM343.18 265.174C342.244 265.174 341.442 264.919 340.775 264.41C340.112 263.896 339.604 263.15 339.252 262.172C338.904 261.194 338.73 260.015 338.73 258.635C338.73 257.268 338.906 256.095 339.258 255.117C339.61 254.135 340.12 253.387 340.787 252.874C341.454 252.356 342.252 252.097 343.18 252.097C344.108 252.097 344.906 252.356 345.573 252.874C346.24 253.387 346.75 254.135 347.102 255.117C347.454 256.095 347.63 257.268 347.63 258.635C347.63 260.015 347.454 261.194 347.102 262.172C346.754 263.15 346.246 263.896 345.579 264.41C344.916 264.919 344.116 265.174 343.18 265.174ZM340.271 258.635C340.271 259.725 340.385 260.655 340.613 261.426C340.841 262.193 341.172 262.775 341.607 263.173C342.043 263.57 342.567 263.769 343.18 263.769C343.793 263.769 344.317 263.57 344.753 263.173C345.188 262.775 345.519 262.193 345.747 261.426C345.975 260.655 346.089 259.725 346.089 258.635C346.089 257.546 345.973 256.615 345.741 255.845C345.513 255.07 345.181 254.481 344.746 254.079C344.311 253.677 343.789 253.477 343.18 253.477C342.571 253.477 342.049 253.677 341.614 254.079C341.179 254.481 340.845 255.07 340.613 255.845C340.385 256.615 340.271 257.546 340.271 258.635ZM353.903 265.174C352.966 265.174 352.164 264.919 351.497 264.41C350.834 263.896 350.327 263.15 349.974 262.172C349.626 261.194 349.452 260.015 349.452 258.635C349.452 257.268 349.628 256.095 349.981 255.117C350.333 254.135 350.843 253.387 351.51 252.874C352.177 252.356 352.974 252.097 353.903 252.097C354.831 252.097 355.628 252.356 356.296 252.874C356.963 253.387 357.472 254.135 357.825 255.117C358.177 256.095 358.353 257.268 358.353 258.635C358.353 260.015 358.177 261.194 357.825 262.172C357.477 263.15 356.969 263.896 356.302 264.41C355.639 264.919 354.839 265.174 353.903 265.174ZM350.994 258.635C350.994 259.725 351.108 260.655 351.336 261.426C351.564 262.193 351.895 262.775 352.33 263.173C352.765 263.57 353.289 263.769 353.903 263.769C354.516 263.769 355.04 263.57 355.475 263.173C355.91 262.775 356.242 262.193 356.47 261.426C356.698 260.655 356.811 259.725 356.811 258.635C356.811 257.546 356.695 256.615 356.463 255.845C356.236 255.07 355.904 254.481 355.469 254.079C355.034 253.677 354.512 253.477 353.903 253.477C353.294 253.477 352.771 253.677 352.336 254.079C351.901 254.481 351.568 255.07 351.336 255.845C351.108 256.615 350.994 257.546 350.994 258.635ZM372.78 262.688H371.388V261.059H368.168V260.052H371.388V250.816H372.78V262.688ZM359.815 258.051C361.878 258.043 363.72 258.012 365.34 257.958C366.964 257.9 368.512 257.778 369.983 257.591L370.082 258.598C368.786 258.805 367.352 258.956 365.781 259.052V262.141H364.402V259.12C363.337 259.162 362.123 259.182 360.759 259.182H360.001L359.815 258.051ZM361.07 254.173C361.07 253.634 361.232 253.16 361.555 252.749C361.878 252.335 362.334 252.016 362.922 251.792C363.511 251.564 364.186 251.45 364.949 251.45C365.703 251.45 366.372 251.564 366.956 251.792C367.54 252.016 367.994 252.335 368.317 252.749C368.645 253.16 368.81 253.634 368.815 254.173C368.81 254.72 368.645 255.198 368.317 255.608C367.994 256.015 367.54 256.329 366.956 256.553C366.376 256.773 365.707 256.883 364.949 256.883C364.182 256.883 363.504 256.773 362.916 256.553C362.332 256.334 361.878 256.019 361.555 255.608C361.232 255.198 361.07 254.72 361.07 254.173ZM362.065 261.519H363.444V264.938H373.165V266.081H362.065V261.519ZM362.388 254.173C362.384 254.508 362.487 254.802 362.699 255.055C362.914 255.308 363.216 255.505 363.606 255.646C363.995 255.782 364.443 255.851 364.949 255.851C365.437 255.851 365.875 255.782 366.26 255.646C366.645 255.505 366.946 255.308 367.161 255.055C367.381 254.802 367.493 254.508 367.497 254.173C367.493 253.841 367.381 253.549 367.161 253.296C366.946 253.039 366.645 252.84 366.26 252.7C365.875 252.559 365.437 252.49 364.949 252.494C364.443 252.49 363.995 252.559 363.606 252.7C363.216 252.84 362.914 253.039 362.699 253.296C362.487 253.549 362.384 253.841 362.388 254.173Z" fill="#111827"/>
<path d="M32.5359 284.674C32.5359 285.3 32.7772 285.899 33.2597 286.47C33.7459 287.041 34.3794 287.521 35.1602 287.912C35.9411 288.302 36.7532 288.556 37.5967 288.674L37.0994 289.68C36.3665 289.558 35.6575 289.346 34.9724 289.044C34.291 288.742 33.6814 288.366 33.1436 287.917C32.6059 287.464 32.1934 286.961 31.9061 286.409C31.6188 286.965 31.2063 287.47 30.6685 287.923C30.1344 288.372 29.5267 288.746 28.8453 289.044C28.1639 289.343 27.4567 289.554 26.7238 289.68L26.2155 288.674C27.0626 288.556 27.8748 288.304 28.6519 287.917C29.4291 287.53 30.0589 287.053 30.5414 286.486C31.0239 285.915 31.2652 285.311 31.2652 284.674V283.878H32.5359V284.674ZM25.5635 291.204H38.2265V292.232H32.4696V297.271H31.2652V292.232H25.5635V291.204ZM46.364 284.674C46.364 285.3 46.6053 285.899 47.0878 286.47C47.574 287.041 48.2075 287.521 48.9883 287.912C49.7692 288.302 50.5813 288.556 51.4248 288.674L50.9276 289.68C50.1946 289.558 49.4856 289.346 48.8005 289.044C48.1191 288.742 47.5095 288.366 46.9718 287.917C46.434 287.464 46.0215 286.961 45.7342 286.409C45.4469 286.965 45.0344 287.47 44.4966 287.923C43.9626 288.372 43.3548 288.746 42.6734 289.044C41.992 289.343 41.2848 289.554 40.5519 289.68L40.0436 288.674C40.8907 288.556 41.7029 288.304 42.4801 287.917C43.2572 287.53 43.8871 287.053 44.3696 286.486C44.8521 285.915 45.0933 285.311 45.0933 284.674V283.878H46.364V284.674ZM39.3917 291.204H52.0546V292.232H46.2977V297.271H45.0933V292.232H39.3917V291.204ZM65.938 295.547H53.2198V294.508H56.7999V291.878H54.8109V287.591H63.1203V285.425H54.7778V284.409H64.3358V288.608H56.0264V290.862H64.6562V291.878H62.4795V294.508H65.938V295.547ZM61.275 294.508V291.878H57.9933V294.508H61.275Z" fill="#9CA3AF"/>
<path d="M353.358 297.174C352.421 297.174 351.619 296.919 350.952 296.41C350.289 295.896 349.782 295.15 349.43 294.172C349.081 293.194 348.907 292.015 348.907 290.635C348.907 289.268 349.084 288.095 349.436 287.117C349.788 286.135 350.298 285.387 350.965 284.874C351.632 284.356 352.43 284.097 353.358 284.097C354.286 284.097 355.084 284.356 355.751 284.874C356.418 285.387 356.927 286.135 357.28 287.117C357.632 288.095 357.808 289.268 357.808 290.635C357.808 292.015 357.632 293.194 357.28 294.172C356.932 295.15 356.424 295.896 355.757 296.41C355.094 296.919 354.294 297.174 353.358 297.174ZM350.449 290.635C350.449 291.725 350.563 292.655 350.791 293.426C351.019 294.193 351.35 294.775 351.785 295.173C352.22 295.57 352.744 295.769 353.358 295.769C353.971 295.769 354.495 295.57 354.93 295.173C355.365 294.775 355.697 294.193 355.925 293.426C356.153 292.655 356.267 291.725 356.267 290.635C356.267 289.546 356.151 288.615 355.919 287.845C355.691 287.07 355.359 286.481 354.924 286.079C354.489 285.677 353.967 285.477 353.358 285.477C352.749 285.477 352.227 285.677 351.791 286.079C351.356 286.481 351.023 287.07 350.791 287.845C350.563 288.615 350.449 289.546 350.449 290.635ZM372.235 294.688H370.843V293.059H367.623V292.052H370.843V282.816H372.235V294.688ZM359.27 290.051C361.333 290.043 363.175 290.012 364.795 289.958C366.419 289.9 367.967 289.778 369.438 289.591L369.538 290.598C368.241 290.805 366.807 290.956 365.236 291.052V294.141H363.857V291.12C362.792 291.162 361.578 291.182 360.214 291.182H359.456L359.27 290.051ZM360.525 286.173C360.525 285.634 360.687 285.16 361.01 284.749C361.333 284.335 361.789 284.016 362.377 283.792C362.966 283.564 363.641 283.45 364.404 283.45C365.158 283.45 365.827 283.564 366.411 283.792C366.995 284.016 367.449 284.335 367.772 284.749C368.1 285.16 368.265 285.634 368.27 286.173C368.265 286.72 368.1 287.198 367.772 287.608C367.449 288.015 366.995 288.329 366.411 288.553C365.831 288.773 365.162 288.883 364.404 288.883C363.637 288.883 362.96 288.773 362.371 288.553C361.787 288.334 361.333 288.019 361.01 287.608C360.687 287.198 360.525 286.72 360.525 286.173ZM361.52 293.519H362.899V296.938H372.62V298.081H361.52V293.519ZM361.843 286.173C361.839 286.508 361.942 286.802 362.154 287.055C362.369 287.308 362.672 287.505 363.061 287.646C363.451 287.782 363.898 287.851 364.404 287.851C364.893 287.851 365.33 287.782 365.715 287.646C366.1 287.505 366.401 287.308 366.616 287.055C366.836 286.802 366.948 286.508 366.952 286.173C366.948 285.841 366.836 285.549 366.616 285.296C366.401 285.039 366.1 284.84 365.715 284.7C365.33 284.559 364.893 284.49 364.404 284.494C363.898 284.49 363.451 284.559 363.061 284.7C362.672 284.84 362.369 285.039 362.154 285.296C361.942 285.549 361.839 285.841 361.843 286.173Z" fill="#111827"/>
<path d="M32.5359 316.674C32.5359 317.3 32.7772 317.899 33.2597 318.47C33.7459 319.041 34.3794 319.521 35.1602 319.912C35.9411 320.302 36.7532 320.556 37.5967 320.674L37.0994 321.68C36.3665 321.558 35.6575 321.346 34.9724 321.044C34.291 320.742 33.6814 320.366 33.1436 319.917C32.6059 319.464 32.1934 318.961 31.9061 318.409C31.6188 318.965 31.2063 319.47 30.6685 319.923C30.1344 320.372 29.5267 320.746 28.8453 321.044C28.1639 321.343 27.4567 321.554 26.7238 321.68L26.2155 320.674C27.0626 320.556 27.8748 320.304 28.6519 319.917C29.4291 319.53 30.0589 319.053 30.5414 318.486C31.0239 317.915 31.2652 317.311 31.2652 316.674V315.878H32.5359V316.674ZM25.5635 323.204H38.2265V324.232H32.4696V329.271H31.2652V324.232H25.5635V323.204ZM44.6292 318C44.6292 318.46 44.771 318.895 45.0546 319.304C45.3383 319.713 45.7342 320.068 46.2425 320.37C46.7508 320.669 47.3327 320.891 47.9883 321.039L47.4801 322.011C46.6771 321.816 45.9773 321.514 45.3806 321.105C44.7876 320.696 44.3401 320.21 44.0381 319.646C43.7434 320.258 43.2922 320.786 42.6845 321.232C42.0804 321.674 41.3696 321.996 40.5519 322.199L40.0215 321.227C40.6845 321.076 41.2701 320.84 41.7784 320.519C42.2904 320.199 42.6882 319.821 42.9718 319.387C43.2591 318.948 43.4027 318.486 43.4027 318V317.945H40.3088V316.972H43.4027V315.414H44.6292V316.972H47.7232V317.945H44.6292V318ZM39.3585 323.182C41.1707 323.182 42.8263 323.157 44.3254 323.105C45.8281 323.053 47.2591 322.939 48.6182 322.762L48.7066 323.657C47.5206 323.856 46.1725 324.002 44.6624 324.094V328.862H43.4359V324.155C42.3125 324.199 41.0086 324.221 39.5243 324.221L39.3585 323.182ZM49.6458 315.392H50.8502V329.282H49.6458V315.392ZM64.6894 325.547H63.4629V315.392H64.6894V325.547ZM53.5402 319.768C53.5402 319.112 53.6986 318.527 54.0154 318.011C54.3321 317.492 54.7686 317.088 55.3248 316.801C55.8809 316.51 56.5016 316.365 57.1866 316.365C57.8717 316.365 58.4905 316.51 59.043 316.801C59.5992 317.088 60.0338 317.492 60.3469 318.011C60.6636 318.527 60.822 319.112 60.822 319.768C60.822 320.431 60.6636 321.022 60.3469 321.541C60.0338 322.061 59.5992 322.466 59.043 322.757C58.4905 323.044 57.8717 323.186 57.1866 323.182C56.5016 323.186 55.8809 323.044 55.3248 322.757C54.7686 322.466 54.3321 322.061 54.0154 321.541C53.6986 321.022 53.5402 320.431 53.5402 319.768ZM54.7446 319.768C54.741 320.221 54.8441 320.626 55.054 320.983C55.2677 321.337 55.5605 321.613 55.9325 321.812C56.3045 322.011 56.7225 322.11 57.1866 322.11C57.6434 322.11 58.0577 322.011 58.4297 321.812C58.8017 321.613 59.0946 321.337 59.3082 320.983C59.5218 320.626 59.6286 320.221 59.6286 319.768C59.6286 319.322 59.5218 318.923 59.3082 318.569C59.0946 318.215 58.8017 317.939 58.4297 317.74C58.0577 317.538 57.6434 317.436 57.1866 317.436C56.7225 317.436 56.3045 317.536 55.9325 317.735C55.5605 317.934 55.2677 318.212 55.054 318.569C54.8441 318.923 54.741 319.322 54.7446 319.768ZM55.717 324.508H56.9435V327.945H65.1203V328.961H55.717V324.508Z" fill="#9CA3AF"/>
<path d="M341.512 330.454H340.133V314.804H341.512V330.454ZM329.218 321.454C329.218 320.365 329.386 319.41 329.722 318.589C330.061 317.769 330.534 317.135 331.139 316.687C331.744 316.24 332.434 316.014 333.209 316.01C333.979 316.014 334.665 316.24 335.266 316.687C335.871 317.135 336.343 317.771 336.683 318.595C337.027 319.416 337.199 320.369 337.199 321.454C337.199 322.544 337.027 323.501 336.683 324.326C336.343 325.151 335.871 325.787 335.266 326.234C334.661 326.677 333.975 326.899 333.209 326.899C332.434 326.899 331.744 326.677 331.139 326.234C330.534 325.787 330.061 325.153 329.722 324.332C329.386 323.508 329.218 322.548 329.218 321.454ZM330.548 321.454C330.548 322.291 330.66 323.029 330.884 323.667C331.108 324.305 331.421 324.798 331.823 325.146C332.229 325.494 332.691 325.669 333.209 325.669C333.727 325.669 334.184 325.494 334.582 325.146C334.984 324.798 335.297 324.305 335.521 323.667C335.744 323.029 335.856 322.291 335.856 321.454C335.856 320.622 335.744 319.888 335.521 319.254C335.297 318.616 334.984 318.123 334.582 317.775C334.184 317.423 333.727 317.244 333.209 317.24C332.691 317.244 332.229 317.423 331.823 317.775C331.421 318.123 331.108 318.616 330.884 319.254C330.66 319.888 330.548 320.622 330.548 321.454ZM348.367 316.01C349.134 316.014 349.816 316.24 350.412 316.687C351.009 317.135 351.475 317.769 351.811 318.589C352.146 319.41 352.316 320.365 352.32 321.454C352.316 322.548 352.146 323.508 351.811 324.332C351.475 325.153 351.009 325.787 350.412 326.234C349.816 326.677 349.134 326.899 348.367 326.899C347.601 326.899 346.919 326.677 346.323 326.234C345.726 325.787 345.262 325.153 344.93 324.332C344.599 323.508 344.435 322.548 344.439 321.454C344.435 320.365 344.599 319.41 344.93 318.589C345.262 317.769 345.726 317.135 346.323 316.687C346.919 316.24 347.601 316.014 348.367 316.01ZM345.744 321.454C345.744 322.291 345.854 323.029 346.074 323.667C346.298 324.305 346.608 324.798 347.006 325.146C347.404 325.494 347.858 325.669 348.367 325.669C348.885 325.669 349.341 325.494 349.735 325.146C350.133 324.798 350.441 324.307 350.661 323.673C350.881 323.035 350.99 322.296 350.99 321.454C350.99 320.617 350.881 319.882 350.661 319.248C350.441 318.614 350.133 318.123 349.735 317.775C349.341 317.423 348.885 317.244 348.367 317.24C347.858 317.244 347.404 317.423 347.006 317.775C346.608 318.123 346.298 318.616 346.074 319.254C345.854 319.888 345.744 320.622 345.744 321.454ZM354.906 314.804H356.286V321.044H358.896V322.225H356.286V330.43H354.906V314.804ZM374.006 322.486H359.747V321.367H374.006V322.486ZM361.475 323.878H372.153V327.508H362.867V329.124H372.626V330.243H361.512V326.464H370.798V324.96H361.475V323.878ZM361.649 315.338H372.141V316.457H363.029V318.956H372.303V320.087H361.649V315.338Z" fill="#111827"/>
<mask id="path-19-inside-2_514_3504" fill="white">
<path d="M25 343H375V395H25V343Z"/>
</mask>
<path d="M375 394H25V396H375V394Z" fill="#D1D5DB" mask="url(#path-19-inside-2_514_3504)"/>
<path d="M37.0331 354.829H35.8066V347.381H37.0331V354.829ZM25.884 351.249C25.884 350.626 26.0405 350.072 26.3536 349.586C26.6667 349.099 27.0994 348.722 27.6519 348.453C28.2081 348.184 28.8343 348.052 29.5304 348.055C30.2265 348.052 30.8508 348.184 31.4033 348.453C31.9558 348.722 32.3867 349.099 32.6961 349.586C33.0092 350.072 33.1657 350.626 33.1657 351.249C33.1657 351.871 33.0092 352.424 32.6961 352.906C32.3867 353.389 31.9558 353.764 31.4033 354.033C30.8508 354.302 30.2265 354.435 29.5304 354.431C28.8343 354.435 28.2081 354.302 27.6519 354.033C27.0994 353.764 26.6667 353.389 26.3536 352.906C26.0405 352.42 25.884 351.867 25.884 351.249ZM27.0884 351.249C27.0847 351.665 27.186 352.039 27.3923 352.37C27.6022 352.698 27.8932 352.954 28.2652 353.138C28.6372 353.322 29.0589 353.414 29.5304 353.414C29.9982 353.414 30.4162 353.322 30.7845 353.138C31.1565 352.954 31.4475 352.698 31.6575 352.37C31.8674 352.039 31.9724 351.665 31.9724 351.249C31.9724 350.832 31.8674 350.46 31.6575 350.133C31.4475 349.801 31.1565 349.545 30.7845 349.365C30.4162 349.18 29.9982 349.09 29.5304 349.094C29.0589 349.09 28.6372 349.18 28.2652 349.365C27.8932 349.545 27.6022 349.801 27.3923 350.133C27.186 350.46 27.0847 350.832 27.0884 351.249ZM28.0387 355.536H29.2431V357.227H35.8177V355.536H37.0331V361.083H28.0387V355.536ZM35.8177 360.077V358.21H29.2431V360.077H35.8177ZM50.4414 349.149C50.4414 349.643 50.434 350.076 50.4193 350.448C50.4082 350.82 50.3751 351.243 50.3198 351.718C50.2683 352.193 50.1836 352.7 50.0657 353.238H52.1099V354.254H39.3917V353.238H48.8337C48.9552 352.696 49.0436 352.188 49.0988 351.713C49.1578 351.238 49.1928 350.816 49.2038 350.448C49.2185 350.079 49.2259 349.646 49.2259 349.149V349.138H41.0049V348.122H50.4414V349.149ZM40.9607 356.166H50.4966V361.083H40.9607V356.166ZM49.2812 360.077V357.138H42.1651V360.077H49.2812ZM65.1093 361.271H63.938V347.381H65.1093V361.271ZM53.2087 357.381C54.6857 356.505 55.8183 355.457 56.6065 354.238C57.3984 353.015 57.857 351.661 57.9822 350.177H53.8275V349.149H59.1977C59.1977 349.875 59.1351 350.575 59.0098 351.249H61.1203V347.757H62.3027V360.564H61.1203V355.746H58.5458V354.729H61.1203V352.265H58.7723C58.4224 353.481 57.8496 354.595 57.054 355.608C56.2621 356.617 55.2272 357.503 53.9491 358.265L53.2087 357.381ZM71.9208 349.867C71.9172 350.449 72.0608 351.006 72.3518 351.536C72.6464 352.063 73.0553 352.525 73.5783 352.923C74.105 353.317 74.7054 353.617 75.3794 353.823L74.7938 354.796C73.9871 354.541 73.28 354.157 72.6722 353.641C72.0682 353.125 71.6151 352.519 71.3131 351.823C71.0074 352.575 70.5433 353.228 69.9208 353.785C69.3021 354.337 68.5765 354.751 67.744 355.028L67.1142 354.055C67.8103 353.838 68.4273 353.521 68.965 353.105C69.5028 352.689 69.9227 352.203 70.2247 351.646C70.5267 351.087 70.6796 350.494 70.6833 349.867V349.702H67.5341V348.674H75.0479V349.702H71.9208V349.867ZM66.8711 357.326C68.5028 357.326 69.7772 357.313 70.6943 357.287V354.453H71.9208V357.243C73.3941 357.173 74.6428 357.064 75.6667 356.917L75.7551 357.823C74.8343 357.985 73.8711 358.105 72.8656 358.182C71.8601 358.26 70.9245 358.308 70.059 358.326C69.1971 358.344 68.1971 358.354 67.059 358.354L66.8711 357.326ZM76.5617 347.381H77.7772V353.149H80.0424V354.199H77.7772V361.271H76.5617V347.381Z" fill="#9CA3AF"/>
<path d="M173.66 350.421H177.141V347.985H178.434V355.17H172.355V347.985H173.66V350.421ZM177.141 354.051V351.528H173.66V354.051H177.141ZM174.493 359.583C174.489 358.99 174.696 358.483 175.115 358.06C175.537 357.637 176.142 357.316 176.93 357.097C177.721 356.873 178.657 356.761 179.739 356.761C180.812 356.761 181.742 356.873 182.53 357.097C183.321 357.316 183.928 357.64 184.351 358.066C184.773 358.489 184.985 358.994 184.985 359.583C184.985 360.167 184.773 360.671 184.351 361.093C183.928 361.516 183.321 361.837 182.53 362.057C181.742 362.28 180.812 362.392 179.739 362.392C178.657 362.392 177.721 362.28 176.93 362.057C176.142 361.837 175.537 361.516 175.115 361.093C174.696 360.675 174.489 360.171 174.493 359.583ZM175.86 359.583C175.856 359.939 176.01 360.246 176.32 360.503C176.635 360.76 177.085 360.956 177.669 361.093C178.253 361.23 178.943 361.298 179.739 361.298C180.526 361.298 181.21 361.23 181.79 361.093C182.374 360.956 182.824 360.76 183.139 360.503C183.454 360.246 183.613 359.939 183.617 359.583C183.613 359.222 183.454 358.912 183.139 358.651C182.824 358.39 182.374 358.191 181.79 358.054C181.21 357.913 180.526 357.843 179.739 357.843C178.943 357.843 178.253 357.913 177.669 358.054C177.085 358.191 176.635 358.39 176.32 358.651C176.01 358.912 175.856 359.222 175.86 359.583ZM180.211 347.115H181.504V350.981H183.593V346.816H184.898V356.388H183.593V352.124H181.504V355.916H180.211V347.115ZM195.507 347.885C195.499 349.916 194.892 351.64 193.686 353.057C192.48 354.474 190.642 355.547 188.173 356.276L187.651 355.145C190.224 354.412 192.024 353.291 193.052 351.782L187.762 352.186L187.526 351.043L193.605 350.769C193.829 350.222 193.97 349.634 194.028 349.004H188.309V347.885H195.507ZM189.615 359.409C189.615 358.783 189.826 358.247 190.249 357.799C190.675 357.352 191.287 357.012 192.082 356.78C192.878 356.544 193.82 356.425 194.91 356.425C195.983 356.425 196.916 356.544 197.707 356.78C198.499 357.016 199.106 357.358 199.528 357.805C199.955 358.253 200.169 358.787 200.169 359.409C200.169 360.035 199.955 360.571 199.528 361.019C199.106 361.466 198.499 361.806 197.707 362.038C196.92 362.274 195.988 362.392 194.91 362.392C193.816 362.392 192.872 362.274 192.076 362.038C191.285 361.806 190.675 361.466 190.249 361.019C189.826 360.571 189.615 360.035 189.615 359.409ZM190.994 359.409C190.994 359.794 191.152 360.13 191.467 360.416C191.782 360.702 192.233 360.919 192.822 361.068C193.41 361.222 194.106 361.298 194.91 361.298C195.702 361.298 196.39 361.222 196.974 361.068C197.558 360.915 198.008 360.698 198.323 360.416C198.642 360.13 198.801 359.794 198.801 359.409C198.801 359.023 198.642 358.69 198.323 358.408C198.008 358.122 197.558 357.903 196.974 357.749C196.39 357.596 195.702 357.519 194.91 357.519C194.106 357.519 193.41 357.596 192.822 357.749C192.233 357.898 191.782 358.116 191.467 358.402C191.152 358.688 190.994 359.023 190.994 359.409ZM198.714 346.816H200.094V356.214H198.714V346.816ZM216.993 356.164H202.747V355.046H216.993V356.164ZM204.326 350.446C204.326 349.804 204.55 349.249 204.997 348.78C205.449 348.312 206.091 347.956 206.924 347.711C207.757 347.467 208.735 347.347 209.858 347.351C210.977 347.347 211.95 347.467 212.779 347.711C213.612 347.956 214.252 348.312 214.7 348.78C215.151 349.249 215.377 349.804 215.377 350.446C215.377 351.088 215.151 351.646 214.7 352.118C214.252 352.586 213.612 352.945 212.779 353.193C211.95 353.442 210.977 353.566 209.858 353.566C208.735 353.566 207.757 353.442 206.924 353.193C206.091 352.945 205.449 352.586 204.997 352.118C204.55 351.646 204.326 351.088 204.326 350.446ZM204.587 357.544H205.979V360.938H215.402V362.081H204.587V357.544ZM205.756 350.446C205.751 350.856 205.915 351.211 206.247 351.509C206.582 351.807 207.059 352.037 207.676 352.199C208.298 352.356 209.025 352.435 209.858 352.435C210.691 352.435 211.416 352.356 212.033 352.199C212.655 352.037 213.133 351.807 213.469 351.509C213.805 351.211 213.972 350.856 213.972 350.446C213.972 350.044 213.805 349.694 213.469 349.396C213.133 349.097 212.655 348.869 212.033 348.712C211.416 348.55 210.691 348.47 209.858 348.47C209.025 348.47 208.298 348.55 207.676 348.712C207.059 348.869 206.582 349.097 206.247 349.396C205.915 349.694 205.751 350.044 205.756 350.446ZM231.568 356.699H230.262V352.211H228.162V356.14H226.869V347.115H228.162V351.068H230.262V346.804H231.568V356.699ZM218.217 348.681H221.561V346.916H222.928V348.681H226.235V349.787H218.217V348.681ZM218.901 353.293C218.896 352.758 219.035 352.29 219.317 351.888C219.599 351.482 219.992 351.169 220.498 350.95C221.003 350.73 221.582 350.62 222.232 350.62C222.891 350.62 223.473 350.73 223.979 350.95C224.488 351.169 224.884 351.482 225.166 351.888C225.452 352.29 225.597 352.758 225.601 353.293C225.597 353.823 225.452 354.289 225.166 354.691C224.884 355.093 224.488 355.404 223.979 355.624C223.473 355.843 222.891 355.953 222.232 355.953C221.582 355.953 221.003 355.843 220.498 355.624C219.992 355.404 219.599 355.093 219.317 354.691C219.035 354.289 218.896 353.823 218.901 353.293ZM220.131 353.293C220.131 353.612 220.218 353.896 220.392 354.144C220.57 354.389 220.819 354.579 221.138 354.716C221.457 354.853 221.822 354.921 222.232 354.921C222.646 354.921 223.013 354.853 223.332 354.716C223.651 354.579 223.9 354.389 224.078 354.144C224.256 353.896 224.345 353.612 224.345 353.293C224.345 352.97 224.256 352.684 224.078 352.435C223.9 352.186 223.651 351.994 223.332 351.857C223.013 351.72 222.646 351.652 222.232 351.652C221.822 351.652 221.457 351.72 221.138 351.857C220.819 351.994 220.57 352.186 220.392 352.435C220.218 352.684 220.131 352.97 220.131 353.293ZM221.163 359.695C221.159 359.115 221.364 358.622 221.778 358.215C222.197 357.805 222.798 357.494 223.581 357.283C224.368 357.068 225.311 356.96 226.409 356.96C227.503 356.96 228.441 357.068 229.224 357.283C230.012 357.494 230.613 357.805 231.027 358.215C231.445 358.622 231.655 359.115 231.655 359.695C231.655 360.262 231.445 360.747 231.027 361.149C230.613 361.555 230.012 361.864 229.224 362.075C228.437 362.287 227.499 362.392 226.409 362.392C225.315 362.392 224.374 362.287 223.587 362.075C222.8 361.864 222.197 361.555 221.778 361.149C221.364 360.747 221.159 360.262 221.163 359.695ZM222.53 359.695C222.526 360.03 222.678 360.32 222.984 360.565C223.295 360.809 223.74 360.996 224.32 361.124C224.905 361.253 225.601 361.315 226.409 361.311C227.213 361.315 227.905 361.253 228.485 361.124C229.065 360.996 229.508 360.811 229.815 360.571C230.126 360.327 230.283 360.035 230.287 359.695C230.283 359.343 230.126 359.042 229.815 358.794C229.508 358.545 229.065 358.356 228.485 358.228C227.905 358.099 227.213 358.037 226.409 358.041C225.597 358.037 224.899 358.099 224.314 358.228C223.734 358.356 223.291 358.545 222.984 358.794C222.678 359.042 222.526 359.343 222.53 359.695ZM238.627 357.097L244.357 348.271H246.297V357.01H248.087V358.402H246.297V361H244.792V358.402H238.627V357.097ZM244.792 357.01V350.272H244.643L240.33 356.91V357.01H244.792ZM254.322 361.174C253.564 361.174 252.876 361.029 252.258 360.739C251.641 360.449 251.148 360.049 250.779 359.539C250.414 359.026 250.216 358.448 250.182 357.805H251.724C251.761 358.178 251.898 358.516 252.134 358.818C252.374 359.117 252.685 359.353 253.066 359.527C253.452 359.697 253.87 359.782 254.322 359.782C254.865 359.782 255.352 359.66 255.783 359.415C256.218 359.171 256.557 358.835 256.802 358.408C257.046 357.981 257.169 357.503 257.169 356.972C257.169 356.43 257.04 355.941 256.783 355.506C256.53 355.066 256.178 354.722 255.727 354.474C255.279 354.221 254.774 354.093 254.21 354.088C253.075 354.076 252.283 354.457 251.836 355.232H250.307L251.202 348.271H258.101V349.675H252.519L252.047 353.405H252.184C252.47 353.181 252.816 353.003 253.222 352.87C253.632 352.738 254.057 352.671 254.496 352.671C255.296 352.671 256.015 352.856 256.653 353.224C257.295 353.589 257.798 354.097 258.163 354.747C258.528 355.394 258.71 356.123 258.71 356.935C258.71 357.743 258.521 358.47 258.144 359.117C257.767 359.759 257.245 360.262 256.578 360.627C255.911 360.992 255.159 361.174 254.322 361.174ZM265.385 361.174C264.565 361.174 263.802 360.99 263.098 360.621C262.398 360.248 261.822 359.612 261.37 358.713C260.923 357.809 260.699 356.612 260.699 355.12C260.699 353.637 260.894 352.369 261.283 351.316C261.673 350.264 262.23 349.464 262.955 348.917C263.68 348.37 264.54 348.097 265.534 348.097C266.268 348.097 266.927 348.24 267.511 348.526C268.099 348.807 268.578 349.203 268.947 349.713C269.316 350.218 269.554 350.802 269.662 351.465H268.095C267.946 350.877 267.652 350.403 267.213 350.042C266.773 349.682 266.214 349.501 265.534 349.501C264.842 349.501 264.246 349.694 263.744 350.079C263.243 350.461 262.858 351.016 262.588 351.745C262.323 352.474 262.191 353.347 262.191 354.362H262.352C262.721 353.823 263.187 353.407 263.751 353.113C264.318 352.818 264.942 352.671 265.621 352.671C266.371 352.671 267.063 352.854 267.697 353.218C268.331 353.579 268.835 354.08 269.208 354.722C269.585 355.365 269.773 356.086 269.773 356.885C269.773 357.681 269.591 358.406 269.226 359.061C268.862 359.711 268.346 360.227 267.679 360.608C267.016 360.985 266.251 361.174 265.385 361.174ZM262.414 356.923C262.414 357.42 262.541 357.888 262.793 358.327C263.046 358.767 263.394 359.119 263.838 359.384C264.285 359.649 264.784 359.782 265.336 359.782C265.874 359.782 266.365 359.653 266.809 359.396C267.252 359.14 267.6 358.791 267.853 358.352C268.11 357.909 268.24 357.424 268.244 356.898C268.24 356.384 268.114 355.912 267.865 355.481C267.621 355.046 267.281 354.702 266.846 354.449C266.411 354.192 265.924 354.064 265.385 354.064C264.842 354.064 264.343 354.196 263.887 354.461C263.436 354.727 263.077 355.079 262.812 355.518C262.551 355.957 262.418 356.425 262.414 356.923ZM278.19 349.775V349.675H271.464V348.271H279.83V349.75L274.013 361H272.347L278.19 349.775ZM285.899 361.174C285.016 361.174 284.231 361.023 283.543 360.72C282.855 360.418 282.321 359.997 281.939 359.459C281.558 358.916 281.37 358.302 281.374 357.619C281.37 357.084 281.481 356.585 281.709 356.121C281.937 355.653 282.248 355.267 282.642 354.965C283.039 354.658 283.479 354.465 283.959 354.387V354.325C283.545 354.225 283.178 354.039 282.859 353.765C282.54 353.492 282.294 353.156 282.12 352.758C281.946 352.36 281.859 351.934 281.859 351.478C281.859 350.836 282.033 350.258 282.381 349.744C282.729 349.23 283.209 348.828 283.823 348.538C284.44 348.244 285.132 348.097 285.899 348.097C286.661 348.097 287.347 348.244 287.956 348.538C288.569 348.828 289.05 349.23 289.398 349.744C289.746 350.258 289.922 350.836 289.926 351.478C289.922 351.934 289.831 352.36 289.653 352.758C289.479 353.156 289.232 353.492 288.913 353.765C288.598 354.039 288.236 354.225 287.825 354.325V354.387C288.302 354.465 288.737 354.658 289.131 354.965C289.528 355.267 289.841 355.653 290.069 356.121C290.301 356.585 290.419 357.084 290.423 357.619C290.419 358.302 290.225 358.916 289.839 359.459C289.454 359.997 288.917 360.418 288.229 360.72C287.546 361.023 286.769 361.174 285.899 361.174ZM282.952 357.532C282.944 357.979 283.058 358.373 283.294 358.713C283.53 359.048 283.872 359.311 284.32 359.502C284.767 359.689 285.294 359.782 285.899 359.782C286.495 359.782 287.015 359.689 287.459 359.502C287.902 359.311 288.244 359.048 288.484 358.713C288.725 358.373 288.845 357.979 288.845 357.532C288.845 357.068 288.716 356.651 288.459 356.282C288.207 355.914 287.856 355.624 287.409 355.412C286.961 355.201 286.458 355.095 285.899 355.095C285.335 355.095 284.827 355.201 284.376 355.412C283.924 355.624 283.572 355.916 283.319 356.289C283.066 356.657 282.944 357.072 282.952 357.532ZM283.4 351.59C283.4 352.017 283.506 352.394 283.717 352.721C283.928 353.048 284.222 353.303 284.6 353.485C284.981 353.664 285.414 353.753 285.899 353.753C286.375 353.753 286.802 353.664 287.179 353.485C287.556 353.303 287.85 353.048 288.062 352.721C288.277 352.39 288.385 352.012 288.385 351.59C288.385 351.171 288.279 350.802 288.068 350.483C287.861 350.16 287.568 349.91 287.191 349.731C286.818 349.553 286.388 349.464 285.899 349.464C285.401 349.464 284.962 349.553 284.581 349.731C284.204 349.91 283.912 350.16 283.705 350.483C283.501 350.802 283.4 351.171 283.4 351.59ZM296.74 348.097C297.556 348.097 298.315 348.283 299.015 348.656C299.715 349.029 300.289 349.665 300.737 350.564C301.188 351.459 301.414 352.646 301.414 354.126C301.414 355.617 301.219 356.892 300.83 357.948C300.44 359.001 299.883 359.802 299.158 360.354C298.433 360.901 297.573 361.174 296.578 361.174C295.845 361.174 295.184 361.033 294.596 360.751C294.007 360.47 293.527 360.074 293.154 359.564C292.785 359.05 292.547 358.456 292.439 357.78H294.005C294.154 358.381 294.449 358.864 294.888 359.229C295.331 359.589 295.895 359.769 296.578 359.769C297.266 359.769 297.861 359.577 298.362 359.191C298.868 358.806 299.255 358.249 299.525 357.519C299.794 356.786 299.931 355.907 299.935 354.884H299.761C299.392 355.419 298.924 355.835 298.356 356.133C297.793 356.427 297.175 356.575 296.504 356.575C295.75 356.575 295.054 356.394 294.415 356.034C293.781 355.669 293.276 355.166 292.899 354.523C292.526 353.881 292.339 353.16 292.339 352.36C292.339 351.577 292.52 350.86 292.88 350.21C293.245 349.559 293.761 349.046 294.428 348.669C295.099 348.287 295.87 348.097 296.74 348.097ZM293.881 352.348C293.881 352.87 294.003 353.349 294.248 353.784C294.496 354.215 294.838 354.557 295.273 354.809C295.708 355.058 296.197 355.182 296.74 355.182C297.279 355.182 297.772 355.05 298.219 354.785C298.671 354.515 299.027 354.161 299.288 353.722C299.554 353.282 299.686 352.816 299.686 352.323C299.686 351.834 299.56 351.372 299.307 350.937C299.054 350.502 298.706 350.152 298.263 349.887C297.824 349.622 297.333 349.489 296.79 349.489C296.247 349.489 295.752 349.617 295.304 349.874C294.861 350.131 294.511 350.479 294.254 350.919C294.001 351.354 293.877 351.83 293.881 352.348ZM307.754 361.174C306.818 361.174 306.016 360.919 305.349 360.41C304.686 359.896 304.178 359.15 303.826 358.172C303.478 357.194 303.304 356.015 303.304 354.635C303.304 353.268 303.48 352.095 303.832 351.117C304.184 350.135 304.694 349.387 305.361 348.874C306.028 348.356 306.826 348.097 307.754 348.097C308.682 348.097 309.48 348.356 310.147 348.874C310.814 349.387 311.324 350.135 311.676 351.117C312.028 352.095 312.204 353.268 312.204 354.635C312.204 356.015 312.028 357.194 311.676 358.172C311.328 359.15 310.821 359.896 310.153 360.41C309.49 360.919 308.691 361.174 307.754 361.174ZM304.845 354.635C304.845 355.725 304.959 356.655 305.187 357.426C305.415 358.193 305.747 358.775 306.182 359.173C306.617 359.57 307.141 359.769 307.754 359.769C308.367 359.769 308.892 359.57 309.327 359.173C309.762 358.775 310.093 358.193 310.321 357.426C310.549 356.655 310.663 355.725 310.663 354.635C310.663 353.546 310.547 352.615 310.315 351.845C310.087 351.07 309.756 350.481 309.321 350.079C308.885 349.677 308.363 349.477 307.754 349.477C307.145 349.477 306.623 349.677 306.188 350.079C305.753 350.481 305.419 351.07 305.187 351.845C304.959 352.615 304.845 353.546 304.845 354.635ZM318.813 361H317.221V349.924H317.147L314.051 351.975V350.384L317.221 348.271H318.813V361ZM322.193 359.844L326.531 355.269C327.103 354.66 327.538 354.171 327.836 353.802C328.139 353.43 328.369 353.071 328.526 352.727C328.684 352.379 328.764 352.017 328.769 351.64C328.764 351.209 328.651 350.829 328.427 350.502C328.207 350.175 327.905 349.922 327.519 349.744C327.138 349.566 326.709 349.477 326.233 349.477C325.735 349.477 325.298 349.576 324.921 349.775C324.548 349.974 324.26 350.253 324.057 350.614C323.858 350.974 323.759 351.391 323.759 351.863H322.255C322.251 351.126 322.423 350.473 322.771 349.905C323.123 349.334 323.606 348.89 324.219 348.575C324.832 348.256 325.52 348.097 326.282 348.097C327.037 348.097 327.714 348.254 328.315 348.569C328.92 348.88 329.392 349.305 329.732 349.843C330.072 350.382 330.244 350.981 330.248 351.64C330.244 352.124 330.153 352.588 329.974 353.032C329.8 353.471 329.504 353.96 329.086 354.499C328.671 355.037 328.081 355.7 327.314 356.488L324.405 359.496V359.595H330.472V361H322.205L322.193 359.844ZM337.17 361.174C336.333 361.174 335.583 361.033 334.92 360.751C334.257 360.47 333.733 360.074 333.348 359.564C332.966 359.055 332.761 358.468 332.732 357.805H334.336C334.365 358.199 334.506 358.545 334.758 358.843C335.011 359.137 335.345 359.365 335.759 359.527C336.178 359.689 336.64 359.769 337.145 359.769C337.7 359.769 338.198 359.676 338.637 359.49C339.076 359.299 339.42 359.034 339.669 358.694C339.917 358.354 340.042 357.967 340.042 357.532C340.042 357.068 339.919 356.657 339.675 356.301C339.435 355.945 339.082 355.667 338.618 355.468C338.154 355.269 337.597 355.17 336.946 355.17H335.915V353.778H336.946C337.46 353.778 337.916 353.686 338.314 353.504C338.716 353.322 339.026 353.067 339.246 352.74C339.47 352.408 339.582 352.025 339.582 351.59C339.582 351.171 339.484 350.802 339.29 350.483C339.095 350.164 338.817 349.918 338.457 349.744C338.096 349.566 337.676 349.477 337.195 349.477C336.739 349.477 336.31 349.557 335.908 349.719C335.511 349.881 335.187 350.113 334.939 350.415C334.69 350.713 334.555 351.064 334.535 351.465H333.006C333.031 350.811 333.234 350.229 333.615 349.719C333.996 349.205 334.504 348.807 335.138 348.526C335.772 348.24 336.466 348.097 337.22 348.097C338.003 348.097 338.689 348.252 339.277 348.563C339.87 348.874 340.323 349.29 340.638 349.812C340.957 350.334 341.115 350.902 341.111 351.515C341.115 351.988 341.03 352.419 340.856 352.808C340.682 353.198 340.431 353.527 340.104 353.796C339.776 354.066 339.391 354.262 338.948 354.387V354.486C339.495 354.569 339.967 354.749 340.365 355.027C340.767 355.3 341.073 355.655 341.285 356.09C341.496 356.521 341.6 357.006 341.596 357.544C341.6 358.228 341.409 358.847 341.024 359.403C340.642 359.954 340.112 360.387 339.433 360.702C338.757 361.017 338.003 361.174 337.17 361.174ZM348.043 361.174C347.107 361.174 346.305 360.919 345.638 360.41C344.975 359.896 344.467 359.15 344.115 358.172C343.767 357.194 343.593 356.015 343.593 354.635C343.593 353.268 343.769 352.095 344.121 351.117C344.474 350.135 344.983 349.387 345.65 348.874C346.317 348.356 347.115 348.097 348.043 348.097C348.971 348.097 349.769 348.356 350.436 348.874C351.103 349.387 351.613 350.135 351.965 351.117C352.317 352.095 352.494 353.268 352.494 354.635C352.494 356.015 352.317 357.194 351.965 358.172C351.617 359.15 351.11 359.896 350.442 360.41C349.779 360.919 348.98 361.174 348.043 361.174ZM345.134 354.635C345.134 355.725 345.248 356.655 345.476 357.426C345.704 358.193 346.036 358.775 346.471 359.173C346.906 359.57 347.43 359.769 348.043 359.769C348.657 359.769 349.181 359.57 349.616 359.173C350.051 358.775 350.382 358.193 350.61 357.426C350.838 356.655 350.952 355.725 350.952 354.635C350.952 353.546 350.836 352.615 350.604 351.845C350.376 351.07 350.045 350.481 349.61 350.079C349.174 349.677 348.652 349.477 348.043 349.477C347.434 349.477 346.912 349.677 346.477 350.079C346.042 350.481 345.708 351.07 345.476 351.845C345.248 352.615 345.134 353.546 345.134 354.635ZM358.766 361.174C357.829 361.174 357.028 360.919 356.361 360.41C355.698 359.896 355.19 359.15 354.838 358.172C354.49 357.194 354.316 356.015 354.316 354.635C354.316 353.268 354.492 352.095 354.844 351.117C355.196 350.135 355.706 349.387 356.373 348.874C357.04 348.356 357.838 348.097 358.766 348.097C359.694 348.097 360.492 348.356 361.159 348.874C361.826 349.387 362.336 350.135 362.688 351.117C363.04 352.095 363.216 353.268 363.216 354.635C363.216 356.015 363.04 357.194 362.688 358.172C362.34 359.15 361.832 359.896 361.165 360.41C360.502 360.919 359.702 361.174 358.766 361.174ZM355.857 354.635C355.857 355.725 355.971 356.655 356.199 357.426C356.427 358.193 356.758 358.775 357.193 359.173C357.629 359.57 358.153 359.769 358.766 359.769C359.379 359.769 359.903 359.57 360.338 359.173C360.774 358.775 361.105 358.193 361.333 357.426C361.561 356.655 361.675 355.725 361.675 354.635C361.675 353.546 361.559 352.615 361.327 351.845C361.099 351.07 360.767 350.481 360.332 350.079C359.897 349.677 359.375 349.477 358.766 349.477C358.157 349.477 357.635 349.677 357.2 350.079C356.765 350.481 356.431 351.07 356.199 351.845C355.971 352.615 355.857 353.546 355.857 354.635ZM369.489 361.174C368.552 361.174 367.75 360.919 367.083 360.41C366.42 359.896 365.913 359.15 365.56 358.172C365.212 357.194 365.038 356.015 365.038 354.635C365.038 353.268 365.214 352.095 365.567 351.117C365.919 350.135 366.429 349.387 367.096 348.874C367.763 348.356 368.56 348.097 369.489 348.097C370.417 348.097 371.214 348.356 371.882 348.874C372.549 349.387 373.058 350.135 373.411 351.117C373.763 352.095 373.939 353.268 373.939 354.635C373.939 356.015 373.763 357.194 373.411 358.172C373.062 359.15 372.555 359.896 371.888 360.41C371.225 360.919 370.425 361.174 369.489 361.174ZM366.58 354.635C366.58 355.725 366.694 356.655 366.922 357.426C367.15 358.193 367.481 358.775 367.916 359.173C368.351 359.57 368.875 359.769 369.489 359.769C370.102 359.769 370.626 359.57 371.061 359.173C371.496 358.775 371.828 358.193 372.056 357.426C372.283 356.655 372.397 355.725 372.397 354.635C372.397 353.546 372.281 352.615 372.049 351.845C371.821 351.07 371.49 350.481 371.055 350.079C370.62 349.677 370.098 349.477 369.489 349.477C368.879 349.477 368.357 349.677 367.922 350.079C367.487 350.481 367.154 351.07 366.922 351.845C366.694 352.615 366.58 353.546 366.58 354.635Z" fill="#111827"/>
<rect x="305" y="410" width="30" height="30" rx="15" fill="#6B7280"/>
<mask id="mask4_514_3504" style="mask-type:alpha" maskUnits="userSpaceOnUse" x="310" y="415" width="20" height="20">
<rect x="310" y="415" width="20" height="20" fill="#D9D9D9"/>
</mask>
<g mask="url(#mask4_514_3504)">
<path d="M313.5 431C313.097 431 312.747 430.851 312.448 430.552C312.149 430.253 312 429.903 312 429.5V420.5C312 420.097 312.149 419.747 312.448 419.448C312.747 419.149 313.097 419 313.5 419H326.5C326.913 419 327.266 419.149 327.559 419.448C327.853 419.747 328 420.097 328 420.5V429.5C328 429.903 327.853 430.253 327.559 430.552C327.266 430.851 326.913 431 326.5 431H313.5ZM326.5 422.271L320.396 425.771C320.333 425.812 320.267 425.844 320.198 425.865C320.129 425.885 320.063 425.896 320 425.896C319.931 425.896 319.868 425.885 319.812 425.865C319.757 425.844 319.695 425.815 319.627 425.777L313.5 422.271V429.5H326.5V422.271ZM320 424.229L326.479 420.5H313.542L320 424.229ZM313.5 422.002V422.189V421.094V421.104V420.5V421.103V421.094V422.191V422.004V429.5V422.002Z" fill="white"/>
</g>
<rect x="345" y="410" width="30" height="30" rx="15" fill="#00C18A"/>
<mask id="mask5_514_3504" style="mask-type:alpha" maskUnits="userSpaceOnUse" x="350" y="415" width="20" height="20">
<rect x="350" y="415" width="20" height="20" fill="#D9D9D9"/>
</mask>
<g mask="url(#mask5_514_3504)">
<path d="M365.125 425.75H361.75C361.537 425.75 361.359 425.679 361.216 425.536C361.072 425.393 361 425.216 361 425.004C361 424.793 361.072 424.615 361.216 424.469C361.359 424.323 361.537 424.25 361.75 424.25H365.125L364.458 423.583C364.306 423.431 364.229 423.252 364.229 423.049C364.229 422.845 364.306 422.669 364.458 422.521C364.611 422.368 364.788 422.292 364.99 422.292C365.191 422.292 365.368 422.368 365.521 422.521L367.482 424.482C367.633 424.633 367.708 424.807 367.708 425.004C367.708 425.201 367.632 425.373 367.479 425.521L365.521 427.479C365.368 427.632 365.194 427.705 365 427.698C364.806 427.691 364.632 427.611 364.479 427.458C364.326 427.306 364.25 427.128 364.25 426.927C364.25 426.726 364.326 426.549 364.479 426.396L365.125 425.75ZM355.5 431.5V432.5H364.5V431.5H355.5ZM355.5 418.5H364.5V417.5H355.5V418.5ZM355.5 434C355.087 434 354.734 433.853 354.441 433.559C354.147 433.266 354 432.913 354 432.5V417.5C354 417.087 354.147 416.734 354.441 416.441C354.734 416.147 355.087 416 355.5 416H364.5C364.913 416 365.266 416.147 365.559 416.441C365.853 416.734 366 417.087 366 417.5V420.25C366 420.463 365.929 420.641 365.786 420.784C365.643 420.928 365.466 421 365.254 421C365.043 421 364.865 420.928 364.719 420.784C364.573 420.641 364.5 420.463 364.5 420.25V420H355.5V430H364.5V429.75C364.5 429.538 364.571 429.359 364.714 429.216C364.857 429.072 365.034 429 365.246 429C365.457 429 365.635 429.072 365.781 429.216C365.927 429.359 366 429.538 366 429.75V432.5C366 432.913 365.853 433.266 365.559 433.559C365.266 433.853 364.913 434 364.5 434H355.5Z" fill="white"/>
</g>
</svg>
