<svg width="400" height="670" viewBox="0 0 400 670" fill="none" xmlns="http://www.w3.org/2000/svg">
<rect width="400" height="670" fill="white"/>
<mask id="mask0_514_2906" style="mask-type:alpha" maskUnits="userSpaceOnUse" x="25" y="20" width="40" height="40">
<rect x="25" y="20" width="40" height="40" fill="#D9D9D9"/>
</mask>
<g mask="url(#mask0_514_2906)">
<path d="M28.375 39.972L35.4583 47.0553C35.7267 47.3239 35.8562 47.6481 35.8471 48.0278C35.8379 48.4073 35.699 48.7313 35.4304 48.9999C35.1618 49.2685 34.8331 49.4028 34.4442 49.4028C34.0553 49.4028 33.7267 49.2685 33.4583 48.9999L25.4025 40.9445C25.2544 40.7962 25.1503 40.6434 25.09 40.4862C25.03 40.3287 25 40.1573 25 39.972C25 39.787 25.03 39.6158 25.09 39.4583C25.1503 39.3008 25.2544 39.148 25.4025 38.9999L33.4858 30.9166C33.7544 30.648 34.0832 30.5137 34.4721 30.5137C34.861 30.5137 35.1897 30.648 35.4583 30.9166C35.7267 31.1852 35.8608 31.5139 35.8608 31.9028C35.8608 32.2917 35.7267 32.6203 35.4583 32.8887L28.375 39.972Z" fill="#111827"/>
</g>
<path d="M64.2383 31.6738V47.5645H62.375V31.6738H64.2383ZM60.9512 32.0605V46.8086H59.0879V41.5H56.6094V39.9004H59.0879V37.5449H56.8906C56.1436 40.1816 54.4824 42.4492 51.5117 44.207L50.3691 42.8184C53.665 40.876 55.1768 38.3887 55.4668 35.1895H51.2129V33.6074H57.4004C57.4004 34.4072 57.3477 35.1895 57.2422 35.9453H59.0879V32.0605H60.9512ZM75.2246 33.0273V34.627H71.9023C71.9551 36.3848 73.2471 38.0547 75.6641 38.7578L74.7324 40.2871C72.9219 39.751 71.6299 38.6436 70.9355 37.2285C70.2324 38.7842 68.8965 39.9971 67.0332 40.5684L66.0312 39.0391C68.501 38.3008 69.8369 36.543 69.916 34.627H66.5762V33.0273H75.2246ZM71.8848 39.9004V42.7305C73.1855 42.6689 74.4951 42.5635 75.7168 42.3965L75.8574 43.8027C72.5 44.4355 68.8613 44.418 66.1543 44.4355L65.8906 42.8359C67.0947 42.8359 68.4834 42.8359 69.9336 42.8008V39.9004H71.8848ZM80.8848 38.0547V39.6895H78.582V47.5645H76.6309V31.6738H78.582V38.0547H80.8848ZM94.8594 31.6738V47.582H92.8906V31.6738H94.8594ZM86.2988 32.834C88.6895 32.834 90.4297 35.0137 90.4473 38.4414C90.4297 41.9043 88.6895 44.0664 86.2988 44.0664C83.8906 44.0664 82.1504 41.9043 82.1504 38.4414C82.1504 35.0137 83.8906 32.834 86.2988 32.834ZM86.2988 34.5918C84.9453 34.5918 84.0312 36.0156 84.0312 38.4414C84.0312 40.8848 84.9453 42.3086 86.2988 42.3086C87.6348 42.3086 88.5488 40.8848 88.5488 38.4414C88.5488 36.0156 87.6348 34.5918 86.2988 34.5918ZM102.049 36.5254C102.049 38.9863 103.068 41.4648 105.283 42.6602L104.193 44.1016C102.717 43.3193 101.715 41.9219 101.152 40.252C100.59 42.0537 99.5879 43.5918 98.0938 44.4707L96.9512 42.9941C99.2012 41.6934 100.203 39.0391 100.203 36.5254V36.0332H97.4961V34.4512H100.203V32.2363H102.049V34.4512H104.703V36.0332H102.049V36.5254ZM110.873 31.6738V47.5645H109.01V31.6738H110.873ZM107.639 31.9727V46.791H105.793V39.3906H103.719V37.7734H105.793V31.9727H107.639Z" fill="#111827"/>
<path d="M343.258 38.0371V39.1973H340.727V47.4238H339.355V31.7969H340.727V38.0371H343.258ZM330.654 33.3438V42.291C332.939 42.2822 335.269 42.1064 337.844 41.5703L338.02 42.748C335.33 43.293 332.904 43.4512 330.531 43.4512H329.283V33.3438H330.654ZM356.283 31.7969V38.1602H358.814V39.3203H356.283V47.4238H354.912V31.7969H356.283ZM352.24 33.4844C352.24 37.9141 350.166 41.9395 345.068 44.4531L344.295 43.3633C348.338 41.3506 350.535 38.3447 350.852 34.6445H345.016V33.4844H352.24ZM372.666 31.7969V47.4238H371.277V31.7969H372.666ZM368.043 33.502C368.025 38.002 365.934 41.9746 360.695 44.4883L359.939 43.3633C364.167 41.3594 366.32 38.3623 366.637 34.627H360.66V33.502H368.043Z" fill="#EF403C"/>
<path d="M40.709 97.2334V99.0791H27.748V92.168H30.0244V97.2334H40.709ZM42.5547 101.417V103.283H35.1514V109.825H32.8545V103.283H25.6152V101.417H42.5547ZM58.5918 92.4141V94.0752C58.5918 95.8081 58.5918 97.7051 58.0996 100.33H60.6631V102.176H53.3008V109.846H51.0039V102.176H43.7646V100.33H55.7822C56.2949 97.8076 56.3154 95.9209 56.3154 94.2598H45.7539V92.4141H58.5918ZM77.9102 91.2861V109.825H75.7158V91.2861H77.9102ZM74.0957 91.6143V108.923H71.9219V100.104H70.1582C69.9429 103.714 68.3945 105.949 66.0977 105.929C63.6777 105.949 62.0986 103.386 62.0986 99.3047C62.0986 95.2236 63.6777 92.7012 66.0977 92.7012C68.3433 92.7012 69.8711 94.793 70.1377 98.2588H71.9219V91.6143H74.0957ZM66.0977 94.8545C64.9287 94.834 64.1904 96.4131 64.2109 99.3047C64.1904 102.196 64.9287 103.775 66.0977 103.755C67.3281 103.775 68.0664 102.196 68.0664 99.3047C68.0664 96.4131 67.3281 94.834 66.0977 94.8545ZM96.0596 91.2861V109.825H93.8857V91.2861H96.0596ZM92.1221 91.7373V108.943H89.9688V100.412H86.667C85.5801 102.545 83.8369 104.391 81.2119 105.908L79.9199 104.288C83.7651 102.022 85.5186 99.1201 85.8672 95.3877H80.8633V93.542H88.123C88.123 95.3364 87.9077 97.0181 87.4053 98.5869H89.9688V91.7373H92.1221ZM120.136 105.724V107.59H103.196V105.724H110.497V102.114H105.062V92.5166H107.339V95.5518H115.932V92.5166H118.208V102.114H112.753V105.724H120.136ZM107.339 100.269H115.932V97.377H107.339V100.269ZM137.198 91.3066V100.74H135.024V96.9258H133.035V100.699H130.923V91.6553H133.035V95.1006H135.024V91.3066H137.198ZM124.422 92.3115V98.0947C126.165 98.0742 127.816 97.9614 129.713 97.582L129.938 99.4277C127.58 99.8789 125.611 99.9609 123.376 99.9404H122.146V92.3115H124.422ZM137.198 101.438V106.298H126.965V107.795H137.854V109.6H124.668V104.616H134.922V103.263H124.647V101.438H137.198ZM154.281 91.2861V98.6895H156.845V100.576H154.281V109.825H151.984V91.2861H154.281ZM145.053 93.2344C145.032 98.0947 144.355 102.196 141.013 105.806L139.229 104.514C141.843 101.745 142.694 98.8125 142.879 95.1006H139.967V93.2344H145.053ZM150.18 93.2344C150.159 98.2178 149.646 102.976 146.304 106.995L144.479 105.744C147.124 102.596 147.862 99.1201 148.026 95.1006H145.668V93.2344H150.18ZM174.584 105.703V107.569H157.645V105.703H161.562V101.007C160.085 100.166 159.193 98.8433 159.203 97.1924C159.183 94.2393 162.095 92.291 166.073 92.291C170.072 92.291 172.984 94.2393 172.984 97.1924C172.984 98.8125 172.123 100.115 170.688 100.966V105.703H174.584ZM166.073 94.0957C163.305 94.0957 161.418 95.2646 161.438 97.1924C161.418 99.0996 163.305 100.289 166.073 100.289C168.842 100.289 170.749 99.0996 170.749 97.1924C170.749 95.2646 168.842 94.0957 166.073 94.0957ZM163.817 105.703H168.37V101.827C167.663 101.991 166.894 102.073 166.073 102.073C165.273 102.073 164.515 101.991 163.817 101.848V105.703ZM178.932 103.447C178.952 100.843 179.69 100.043 180.982 99.2432C181.864 98.6895 182.521 97.9922 182.521 96.9668C182.521 95.8184 181.639 95.0801 180.511 95.0801C179.485 95.0801 178.501 95.7363 178.439 97.1104H175.876C175.938 94.3623 178.009 92.9473 180.531 92.9473C183.3 92.9473 185.207 94.4854 185.207 96.9258C185.207 98.5869 184.366 99.6738 183.033 100.474C181.844 101.191 181.352 101.909 181.331 103.447V103.632H178.932V103.447ZM180.203 108.164C179.321 108.164 178.604 107.446 178.604 106.564C178.604 105.703 179.321 104.985 180.203 104.985C181.044 104.985 181.782 105.703 181.782 106.564C181.782 107.446 181.044 108.164 180.203 108.164Z" fill="#111827"/>
<mask id="path-6-inside-1_514_2906" fill="white">
<path d="M25 123H375V177H25V123Z"/>
</mask>
<path d="M375 176H25V178H375V176Z" fill="#D1D5DB" mask="url(#path-6-inside-1_514_2906)"/>
<rect x="24.5" y="131.5" width="37" height="37" rx="18.5" fill="white"/>
<rect x="24.5" y="131.5" width="37" height="37" rx="18.5" stroke="#D1D5DB"/>
<g clip-path="url(#clip0_514_2906)">
<path d="M37.5017 157.048C36.8888 157.048 36.3906 156.55 36.3906 155.937V148.037C36.3906 147.424 36.8888 146.926 37.5017 146.926C38.1147 146.926 38.6128 147.424 38.6128 148.037V155.937C38.6128 156.55 38.1147 157.048 37.5017 157.048Z" fill="#A6F4C2"/>
<path d="M41.1658 157.048C40.5528 157.048 40.0547 156.55 40.0547 155.937V148.037C40.0547 147.424 40.5528 146.926 41.1658 146.926C41.7788 146.926 42.2769 147.424 42.2769 148.037V155.937C42.2769 156.55 41.7788 157.048 41.1658 157.048Z" fill="#A6F4C2"/>
<path d="M44.8338 157.048C44.2208 157.048 43.7227 156.55 43.7227 155.937V148.037C43.7227 147.424 44.2208 146.926 44.8338 146.926C45.4467 146.926 45.9449 147.424 45.9449 148.037V155.937C45.9449 156.55 45.4467 157.048 44.8338 157.048Z" fill="#A6F4C2"/>
<path d="M48.4978 157.048C47.8849 157.048 47.3867 156.55 47.3867 155.937V148.037C47.3867 147.424 47.8849 146.926 48.4978 146.926C49.1108 146.926 49.6089 147.424 49.6089 148.037V155.937C49.6089 156.55 49.1108 157.048 48.4978 157.048Z" fill="#A6F4C2"/>
<path d="M50.4648 148.094H35.5352C35.2389 148.094 35 147.854 35 147.559V146.683C35 146.489 35.1056 146.309 35.2759 146.215L42.7389 142.067C42.9 141.976 43.0981 141.976 43.2593 142.067L50.7241 146.213C50.8944 146.307 51 146.487 51 146.681V147.557C51 147.854 50.7593 148.093 50.4648 148.093V148.094Z" fill="#00C18A"/>
<path d="M50.0907 155.311H35.9093C35.4071 155.311 35 155.718 35 156.22V156.763C35 157.265 35.4071 157.672 35.9093 157.672H50.0907C50.5929 157.672 51 157.265 51 156.763V156.22C51 155.718 50.5929 155.311 50.0907 155.311Z" fill="#00C18A"/>
</g>
<path d="M78.3594 143.938V146.094H81.4531V143.938H82.6094V150.312H77.2031V143.938H78.3594ZM78.3594 149.328H81.4531V147.078H78.3594V149.328ZM79.1094 154.234C79.0938 152.648 80.875 151.734 83.7656 151.734C86.6406 151.734 88.4297 152.648 88.4375 154.234C88.4297 155.82 86.6406 156.734 83.7656 156.734C80.875 156.734 79.0938 155.82 79.1094 154.234ZM80.3281 154.234C80.3125 155.203 81.6328 155.766 83.7656 155.766C85.875 155.766 87.2031 155.203 87.2188 154.234C87.2031 153.266 85.875 152.695 83.7656 152.688C81.6328 152.695 80.3125 153.266 80.3281 154.234ZM84.1875 150.984V143.156H85.3438V146.594H87.1875V142.891H88.3594V151.406H87.1875V147.609H85.3438V150.984H84.1875ZM97.7812 143.844C97.7734 147.391 95.7266 149.984 91.2656 151.297L90.7969 150.297C93.1719 149.617 94.7266 148.594 95.6016 147.305L90.9062 147.672L90.6875 146.656L96.0938 146.398C96.2891 145.906 96.4141 145.391 96.4609 144.844H91.3906V143.844H97.7812ZM92.5469 154.078C92.5469 152.406 94.3359 151.438 97.25 151.438C100.125 151.438 101.93 152.406 101.922 154.078C101.93 155.773 100.125 156.734 97.25 156.734C94.3359 156.734 92.5469 155.773 92.5469 154.078ZM93.7656 154.078C93.7734 155.125 95.0859 155.766 97.25 155.766C99.375 155.766 100.711 155.125 100.719 154.078C100.711 153.047 99.375 152.406 97.25 152.406C95.0859 152.406 93.7734 153.047 93.7656 154.078ZM100.641 151.25V142.891H101.859V151.25H100.641ZM116.875 150.203V151.203H104.219V150.203H116.875ZM105.625 146.125C105.625 144.383 107.531 143.359 110.547 143.375C113.531 143.359 115.445 144.383 115.453 146.125C115.445 147.852 113.531 148.891 110.547 148.891C107.531 148.891 105.625 147.852 105.625 146.125ZM105.859 156.469V152.422H107.094V155.438H115.469V156.469H105.859ZM106.891 146.125C106.883 147.227 108.305 147.891 110.547 147.891C112.773 147.891 114.195 147.227 114.203 146.125C114.195 145.039 112.773 144.359 110.547 144.359C108.305 144.359 106.883 145.039 106.891 146.125ZM129.844 142.875V151.672H128.672V147.688H126.812V151.172H125.656V143.156H126.812V146.672H128.672V142.875H129.844ZM117.969 145.531V144.547H120.938V142.984H122.156V144.547H125.094V145.531H117.969ZM118.578 148.656C118.57 147.203 119.797 146.273 121.547 146.281C123.305 146.273 124.523 147.203 124.531 148.656C124.523 150.086 123.305 151.016 121.547 151.016C119.797 151.016 118.57 150.086 118.578 148.656ZM119.672 148.656C119.672 149.508 120.438 150.094 121.547 150.094C122.656 150.094 123.422 149.508 123.422 148.656C123.422 147.773 122.656 147.188 121.547 147.188C120.438 147.188 119.672 147.773 119.672 148.656ZM120.594 154.344C120.578 152.781 122.32 151.906 125.25 151.906C128.172 151.906 129.914 152.781 129.922 154.344C129.914 155.867 128.172 156.734 125.25 156.734C122.32 156.734 120.578 155.867 120.594 154.344ZM121.812 154.344C121.797 155.242 123.086 155.789 125.25 155.781C127.406 155.789 128.688 155.242 128.703 154.344C128.688 153.391 127.406 152.859 125.25 152.875C123.086 152.859 121.797 153.391 121.812 154.344Z" fill="#111827"/>
<mask id="mask1_514_2906" style="mask-type:alpha" maskUnits="userSpaceOnUse" x="351" y="138" width="24" height="24">
<rect x="351" y="138" width="24" height="24" fill="#D9D9D9"/>
</mask>
<g mask="url(#mask1_514_2906)">
<path d="M362.474 152.475L358.849 148.85C358.799 148.8 358.762 148.746 358.737 148.688C358.712 148.629 358.699 148.567 358.699 148.5C358.699 148.367 358.745 148.25 358.837 148.15C358.928 148.05 359.049 148 359.199 148H366.799C366.949 148 367.07 148.05 367.162 148.15C367.253 148.25 367.299 148.367 367.299 148.5C367.299 148.533 367.249 148.65 367.149 148.85L363.524 152.475C363.441 152.558 363.358 152.617 363.274 152.65C363.191 152.683 363.099 152.7 362.999 152.7C362.899 152.7 362.808 152.683 362.724 152.65C362.641 152.617 362.558 152.558 362.474 152.475Z" fill="#111827"/>
</g>
<mask id="path-18-inside-2_514_2906" fill="white">
<path d="M25 177H375V231H25V177Z"/>
</mask>
<path d="M375 230H25V232H375V230Z" fill="#D1D5DB" mask="url(#path-18-inside-2_514_2906)"/>
<path d="M25.8789 207.398V206.098L31.6094 197.273H33.5605V206.01H35.3359V207.398H33.5605V210H32.0488V207.398H25.8789ZM27.584 206.01H32.0488V199.277H31.8906L27.584 205.904V206.01ZM41.5762 210.176C39.2822 210.176 37.542 208.761 37.4453 206.801H38.9746C39.0889 207.935 40.1963 208.778 41.5762 208.787C43.2285 208.778 44.4238 207.574 44.4238 205.975C44.4238 204.322 43.1846 203.101 41.4707 203.092C40.3984 203.074 39.5635 203.408 39.0977 204.234H37.5684L38.4648 197.273H45.3555V198.68H39.7832L39.3086 202.406H39.4316C40.0029 201.967 40.8555 201.668 41.752 201.668C44.1777 201.668 45.9619 203.461 45.9707 205.939C45.9619 208.4 44.1162 210.176 41.5762 210.176ZM52.5977 210.176C50.3916 210.149 47.957 208.84 47.957 204.129C47.957 199.62 49.8027 197.098 52.791 197.098C55.0322 197.098 56.5967 198.478 56.9219 200.473H55.3574C55.0674 199.348 54.2061 198.504 52.791 198.504C50.6992 198.504 49.4424 200.288 49.4512 203.355H49.6094C50.3389 202.292 51.5078 201.668 52.8789 201.668C55.1377 201.668 57.0273 203.426 57.0273 205.887C57.0273 208.286 55.2783 210.202 52.5977 210.176ZM49.6621 205.922C49.6709 207.416 50.8926 208.778 52.5977 208.787C54.2412 208.778 55.4893 207.486 55.498 205.904C55.4893 204.34 54.2939 203.065 52.6328 203.057C50.9629 203.065 49.6797 204.419 49.6621 205.922ZM59.6113 210L65.4473 198.768V198.68H58.7148V197.273H67.082V198.75L61.2637 210H59.6113ZM73.1465 210.176C70.4658 210.176 68.6201 208.69 68.6289 206.625C68.6201 204.981 69.7627 203.619 71.2129 203.391V203.32C69.9473 203.03 69.1123 201.861 69.1211 200.473C69.1123 198.53 70.8174 197.098 73.1465 197.098C75.4668 197.098 77.1719 198.53 77.1895 200.473C77.1719 201.861 76.3281 203.03 75.0801 203.32V203.391C76.5215 203.619 77.6641 204.981 77.6816 206.625C77.6641 208.69 75.8008 210.176 73.1465 210.176ZM70.2109 206.537C70.1846 207.873 71.3184 208.778 73.1465 208.787C74.9658 208.778 76.0996 207.873 76.0996 206.537C76.0996 205.131 74.8604 204.094 73.1465 204.094C71.4414 204.094 70.1846 205.131 70.2109 206.537ZM70.6504 200.596C70.6592 201.879 71.6875 202.749 73.1465 202.758C74.5967 202.749 75.6426 201.879 75.6426 200.596C75.6426 199.321 74.6318 198.46 73.1465 198.469C71.6348 198.46 70.6592 199.321 70.6504 200.596ZM84.0449 197.098C86.2334 197.124 88.668 198.442 88.668 203.127C88.668 207.653 86.8135 210.176 83.834 210.176C81.5928 210.176 80.0195 208.805 79.7031 206.783H81.2676C81.5488 207.926 82.4189 208.77 83.834 208.77C85.9082 208.77 87.1738 206.977 87.1914 203.883H87.0156C86.2861 204.938 85.1172 205.57 83.7637 205.57C81.4873 205.57 79.5977 203.821 79.5977 201.369C79.5977 198.996 81.3379 197.071 84.0449 197.098ZM81.1445 201.352C81.1357 202.925 82.3311 204.182 83.9922 204.182C85.6533 204.182 86.9453 202.811 86.9453 201.316C86.9453 199.857 85.7236 198.486 84.0449 198.486C82.3838 198.486 81.127 199.778 81.1445 201.352ZM95.0137 210.176C92.1924 210.176 90.5576 207.803 90.5664 203.637C90.5576 199.506 92.21 197.098 95.0137 197.098C97.8086 197.098 99.4609 199.506 99.4609 203.637C99.4609 207.803 97.835 210.176 95.0137 210.176ZM92.0957 203.637C92.1045 206.933 93.168 208.77 95.0137 208.77C96.8506 208.77 97.9229 206.933 97.9141 203.637C97.9229 200.341 96.8418 198.478 95.0137 198.469C93.1855 198.478 92.1045 200.341 92.0957 203.637ZM106.07 197.273V210H104.471V198.926H104.4L101.307 200.982V199.383L104.471 197.273H106.07ZM109.463 210L109.445 208.84L113.787 204.27C115.29 202.67 116.011 201.809 116.02 200.631C116.011 199.321 114.921 198.478 113.488 198.469C111.968 198.478 111.019 199.436 111.01 200.859H109.516C109.498 198.609 111.238 197.098 113.541 197.098C115.853 197.098 117.487 198.653 117.496 200.631C117.487 202.055 116.828 203.162 114.578 205.482L111.66 208.488V208.594H117.725V210H109.463ZM124.422 210.176C121.891 210.176 120.071 208.822 119.992 206.801H121.592C121.68 208.014 122.884 208.77 124.404 208.77C126.083 208.77 127.296 207.864 127.305 206.537C127.296 205.148 126.188 204.173 124.211 204.164H123.174V202.775H124.211C125.758 202.775 126.839 201.905 126.83 200.596C126.839 199.321 125.907 198.478 124.457 198.469C123.095 198.478 121.855 199.225 121.785 200.473H120.256C120.335 198.451 122.216 197.098 124.475 197.098C126.9 197.098 128.377 198.688 128.359 200.508C128.377 201.958 127.533 203.013 126.197 203.391V203.479C127.858 203.733 128.86 204.92 128.852 206.537C128.86 208.629 126.962 210.176 124.422 210.176ZM135.303 210.176C132.481 210.176 130.847 207.803 130.855 203.637C130.847 199.506 132.499 197.098 135.303 197.098C138.098 197.098 139.75 199.506 139.75 203.637C139.75 207.803 138.124 210.176 135.303 210.176ZM132.385 203.637C132.394 206.933 133.457 208.77 135.303 208.77C137.14 208.77 138.212 206.933 138.203 203.637C138.212 200.341 137.131 198.478 135.303 198.469C133.475 198.478 132.394 200.341 132.385 203.637ZM146.025 210.176C143.204 210.176 141.569 207.803 141.578 203.637C141.569 199.506 143.222 197.098 146.025 197.098C148.82 197.098 150.473 199.506 150.473 203.637C150.473 207.803 148.847 210.176 146.025 210.176ZM143.107 203.637C143.116 206.933 144.18 208.77 146.025 208.77C147.862 208.77 148.935 206.933 148.926 203.637C148.935 200.341 147.854 198.478 146.025 198.469C144.197 198.478 143.116 200.341 143.107 203.637ZM156.748 210.176C153.927 210.176 152.292 207.803 152.301 203.637C152.292 199.506 153.944 197.098 156.748 197.098C159.543 197.098 161.195 199.506 161.195 203.637C161.195 207.803 159.569 210.176 156.748 210.176ZM153.83 203.637C153.839 206.933 154.902 208.77 156.748 208.77C158.585 208.77 159.657 206.933 159.648 203.637C159.657 200.341 158.576 198.478 156.748 198.469C154.92 198.478 153.839 200.341 153.83 203.637Z" fill="#111827"/>
<defs>
<clipPath id="clip0_514_2906">
<rect width="16" height="16" fill="white" transform="translate(35 142)"/>
</clipPath>
</defs>
</svg>
