<svg width="450" height="851" viewBox="0 0 450 851" fill="none" xmlns="http://www.w3.org/2000/svg">
<rect width="450" height="851" fill="white"/>
<mask id="mask0_241_1154" style="mask-type:alpha" maskUnits="userSpaceOnUse" x="25" y="20" width="40" height="40">
<rect x="25" y="20" width="40" height="40" fill="#D9D9D9"/>
</mask>
<g mask="url(#mask0_241_1154)">
<path d="M28.375 39.972L35.4583 47.0553C35.7267 47.3239 35.8562 47.6481 35.8471 48.0278C35.8379 48.4073 35.699 48.7313 35.4304 48.9999C35.1618 49.2685 34.8331 49.4028 34.4442 49.4028C34.0553 49.4028 33.7267 49.2685 33.4583 48.9999L25.4025 40.9445C25.2544 40.7962 25.1503 40.6434 25.09 40.4862C25.03 40.3287 25 40.1573 25 39.972C25 39.787 25.03 39.6158 25.09 39.4583C25.1503 39.3008 25.2544 39.148 25.4025 38.9999L33.4858 30.9166C33.7544 30.648 34.0832 30.5137 34.4721 30.5137C34.861 30.5137 35.1897 30.648 35.4583 30.9166C35.7267 31.1852 35.8608 31.5139 35.8608 31.9028C35.8608 32.2917 35.7267 32.6203 35.4583 32.8887L28.375 39.972Z" fill="#111827"/>
</g>
<path d="M64.2383 31.6738V47.5645H62.375V31.6738H64.2383ZM50.3691 42.8184C53.6562 40.876 55.168 38.3887 55.4668 35.1895H51.2129V33.6074H57.4004C57.4004 34.4072 57.3477 35.1895 57.2334 35.9453H59.0879V32.0605H60.9512V46.8086H59.0879V41.5H56.6094V39.9004H59.0879V37.5449H56.8994C56.1436 40.1816 54.4912 42.4492 51.5117 44.207L50.3691 42.8184ZM75.2246 33.0273V34.627H71.9023C71.9639 36.3848 73.2559 38.0547 75.6641 38.7578L74.7324 40.2871C72.9219 39.751 71.6299 38.6436 70.9268 37.2285C70.2236 38.7842 68.8965 39.9883 67.0332 40.5684L66.0312 39.0391C68.501 38.3008 69.8369 36.543 69.916 34.627H66.5762V33.0273H75.2246ZM65.8906 42.8359C67.0947 42.8359 68.4834 42.8359 69.9336 42.8008V39.9004H71.8848V42.7305C73.1855 42.6689 74.4951 42.5635 75.7168 42.3965L75.8574 43.8027C72.4912 44.4355 68.8613 44.4268 66.1543 44.4355L65.8906 42.8359ZM76.6309 47.5645V31.6738H78.582V38.0547H80.8848V39.6895H78.582V47.5645H76.6309ZM94.8594 31.6738V47.582H92.8906V31.6738H94.8594ZM82.1504 38.4414C82.1416 35.0137 83.8906 32.834 86.2988 32.834C88.6807 32.834 90.4385 35.0137 90.4473 38.4414C90.4385 41.8955 88.6807 44.0664 86.2988 44.0664C83.8906 44.0664 82.1416 41.8955 82.1504 38.4414ZM84.0312 38.4414C84.0312 40.8848 84.9541 42.2998 86.2988 42.3086C87.6348 42.2998 88.5488 40.8848 88.5488 38.4414C88.5488 36.0156 87.6348 34.5918 86.2988 34.5918C84.9541 34.5918 84.0312 36.0156 84.0312 38.4414ZM102.049 36.5254C102.049 38.9863 103.06 41.4648 105.283 42.6602L104.193 44.1016C102.717 43.3193 101.715 41.9219 101.144 40.252C100.581 42.0537 99.5791 43.6006 98.0938 44.4707L96.9512 42.9941C99.2012 41.6934 100.194 39.0391 100.203 36.5254V36.0332H97.4961V34.4512H100.203V32.2363H102.049V34.4512H104.703V36.0332H102.049V36.5254ZM103.719 39.3906V37.7734H105.793V31.9727H107.639V46.791H105.793V39.3906H103.719ZM109.01 47.5645V31.6738H110.873V47.5645H109.01Z" fill="#111827"/>
<path d="M393.265 40.2003H390.729V48.4171H389.349V32.8039H390.729V39.0442H393.265V40.2003ZM379.28 34.3453H380.648V43.2956C381.866 43.2914 383.064 43.2334 384.24 43.1215C385.417 43.0097 386.619 42.8273 387.845 42.5746L388.019 43.7555C386.743 44.0083 385.494 44.1885 384.271 44.2963C383.053 44.3999 381.804 44.4517 380.523 44.4517H379.28V34.3453ZM406.286 39.1561H408.822V40.3246H406.286V48.4171H404.906V32.8039H406.286V39.1561ZM394.29 44.3646C396.3 43.366 397.854 42.1291 398.952 40.654C400.054 39.1747 400.684 37.5028 400.841 35.6381H395.023V34.482H402.246C402.242 36.0028 401.989 37.4385 401.488 38.7894C400.99 40.1402 400.207 41.3833 399.138 42.5186C398.073 43.654 396.714 44.6298 395.061 45.4461L394.29 44.3646ZM422.663 48.4296H421.283V32.8039H422.663V48.4296ZM409.946 44.3646C412.03 43.3785 413.628 42.1478 414.738 40.6727C415.849 39.1975 416.481 37.5152 416.634 35.6257H410.667V34.5069H418.039C418.03 36.8605 417.434 38.9779 416.249 40.8591C415.068 42.7362 413.215 44.2818 410.692 45.4959L409.946 44.3646Z" fill="#EF403C"/>
<path d="M40.709 119.233V121.079H27.748V114.168H30.0244V119.233H40.709ZM42.5547 123.417V125.283H35.1514V131.825H32.8545V125.283H25.6152V123.417H42.5547ZM58.5918 114.414V116.075C58.5918 117.808 58.5918 119.705 58.0996 122.33H60.6631V124.176H53.3008V131.846H51.0039V124.176H43.7646V122.33H55.7822C56.2949 119.808 56.3154 117.921 56.3154 116.26H45.7539V114.414H58.5918ZM77.9102 113.286V131.825H75.7158V113.286H77.9102ZM74.0957 113.614V130.923H71.9219V122.104H70.1582C69.9429 125.714 68.3945 127.949 66.0977 127.929C63.6777 127.949 62.0986 125.386 62.0986 121.305C62.0986 117.224 63.6777 114.701 66.0977 114.701C68.3433 114.701 69.8711 116.793 70.1377 120.259H71.9219V113.614H74.0957ZM66.0977 116.854C64.9287 116.834 64.1904 118.413 64.2109 121.305C64.1904 124.196 64.9287 125.775 66.0977 125.755C67.3281 125.775 68.0664 124.196 68.0664 121.305C68.0664 118.413 67.3281 116.834 66.0977 116.854ZM96.0596 113.286V131.825H93.8857V113.286H96.0596ZM92.1221 113.737V130.943H89.9688V122.412H86.667C85.5801 124.545 83.8369 126.391 81.2119 127.908L79.9199 126.288C83.7651 124.022 85.5186 121.12 85.8672 117.388H80.8633V115.542H88.123C88.123 117.336 87.9077 119.018 87.4053 120.587H89.9688V113.737H92.1221ZM120.136 127.724V129.59H103.196V127.724H110.497V124.114H105.062V114.517H107.339V117.552H115.932V114.517H118.208V124.114H112.753V127.724H120.136ZM107.339 122.269H115.932V119.377H107.339V122.269ZM137.198 113.307V122.74H135.024V118.926H133.035V122.699H130.923V113.655H133.035V117.101H135.024V113.307H137.198ZM124.422 114.312V120.095C126.165 120.074 127.816 119.961 129.713 119.582L129.938 121.428C127.58 121.879 125.611 121.961 123.376 121.94H122.146V114.312H124.422ZM137.198 123.438V128.298H126.965V129.795H137.854V131.6H124.668V126.616H134.922V125.263H124.647V123.438H137.198ZM154.281 113.286V120.689H156.845V122.576H154.281V131.825H151.984V113.286H154.281ZM145.053 115.234C145.032 120.095 144.355 124.196 141.013 127.806L139.229 126.514C141.843 123.745 142.694 120.812 142.879 117.101H139.967V115.234H145.053ZM150.18 115.234C150.159 120.218 149.646 124.976 146.304 128.995L144.479 127.744C147.124 124.596 147.862 121.12 148.026 117.101H145.668V115.234H150.18ZM174.584 127.703V129.569H157.645V127.703H161.562V123.007C160.085 122.166 159.193 120.843 159.203 119.192C159.183 116.239 162.095 114.291 166.073 114.291C170.072 114.291 172.984 116.239 172.984 119.192C172.984 120.812 172.123 122.115 170.688 122.966V127.703H174.584ZM166.073 116.096C163.305 116.096 161.418 117.265 161.438 119.192C161.418 121.1 163.305 122.289 166.073 122.289C168.842 122.289 170.749 121.1 170.749 119.192C170.749 117.265 168.842 116.096 166.073 116.096ZM163.817 127.703H168.37V123.827C167.663 123.991 166.894 124.073 166.073 124.073C165.273 124.073 164.515 123.991 163.817 123.848V127.703ZM178.932 125.447C178.952 122.843 179.69 122.043 180.982 121.243C181.864 120.689 182.521 119.992 182.521 118.967C182.521 117.818 181.639 117.08 180.511 117.08C179.485 117.08 178.501 117.736 178.439 119.11H175.876C175.938 116.362 178.009 114.947 180.531 114.947C183.3 114.947 185.207 116.485 185.207 118.926C185.207 120.587 184.366 121.674 183.033 122.474C181.844 123.191 181.352 123.909 181.331 125.447V125.632H178.932V125.447ZM180.203 130.164C179.321 130.164 178.604 129.446 178.604 128.564C178.604 127.703 179.321 126.985 180.203 126.985C181.044 126.985 181.782 127.703 181.782 128.564C181.782 129.446 181.044 130.164 180.203 130.164Z" fill="#111827"/>
<mask id="path-6-inside-1_241_1154" fill="white">
<path d="M25 145H425V199H25V145Z"/>
</mask>
<path d="M425 198H25V200H425V198Z" fill="#D1D5DB" mask="url(#path-6-inside-1_241_1154)"/>
<path d="M39.8711 172.041V173.166H25.6328V172.041H39.8711ZM27.2148 167.453C27.2148 165.493 29.3594 164.342 32.752 164.359C36.1094 164.342 38.2627 165.493 38.2715 167.453C38.2627 169.396 36.1094 170.564 32.752 170.564C29.3594 170.564 27.2148 169.396 27.2148 167.453ZM27.4785 179.09V174.537H28.8672V177.93H38.2891V179.09H27.4785ZM28.6387 167.453C28.6299 168.692 30.2295 169.439 32.752 169.439C35.2568 169.439 36.8564 168.692 36.8652 167.453C36.8564 166.231 35.2568 165.467 32.752 165.467C30.2295 165.467 28.6299 166.231 28.6387 167.453ZM54.4609 163.797V173.693H53.1426V169.211H51.0508V173.131H49.75V164.113H51.0508V168.068H53.1426V163.797H54.4609ZM41.1016 166.785V165.678H44.4414V163.92H45.8125V165.678H49.1172V166.785H41.1016ZM41.7871 170.301C41.7783 168.666 43.1582 167.62 45.127 167.629C47.1045 167.62 48.4756 168.666 48.4844 170.301C48.4756 171.909 47.1045 172.955 45.127 172.955C43.1582 172.955 41.7783 171.909 41.7871 170.301ZM43.0176 170.301C43.0176 171.259 43.8789 171.918 45.127 171.918C46.375 171.918 47.2363 171.259 47.2363 170.301C47.2363 169.308 46.375 168.648 45.127 168.648C43.8789 168.648 43.0176 169.308 43.0176 170.301ZM44.0547 176.699C44.0371 174.941 45.9971 173.957 49.293 173.957C52.5801 173.957 54.54 174.941 54.5488 176.699C54.54 178.413 52.5801 179.389 49.293 179.389C45.9971 179.389 44.0371 178.413 44.0547 176.699ZM45.4258 176.699C45.4082 177.71 46.8584 178.325 49.293 178.316C51.7188 178.325 53.1602 177.71 53.1777 176.699C53.1602 175.627 51.7188 175.029 49.293 175.047C46.8584 175.029 45.4082 175.627 45.4258 176.699ZM61.8613 164.676L57.748 179.916H56.377L60.4727 164.676H61.8613ZM76.9961 171.232V172.375H62.7578V171.232H76.9961ZM63.5664 169.193C66.291 168.877 68.9189 167.532 68.9805 165.748H64.0586V164.605H75.7305V165.748H70.7734C70.835 167.515 73.4365 168.877 76.2051 169.193L75.6953 170.301C73.1377 169.976 70.7383 168.824 69.877 167.093C69.0156 168.824 66.6338 169.976 64.0586 170.301L63.5664 169.193ZM64.4805 176.576C64.4717 174.783 66.502 173.746 69.877 173.746C73.2256 173.746 75.2383 174.783 75.2559 176.576C75.2383 178.387 73.2256 179.389 69.877 179.389C66.502 179.389 64.4717 178.387 64.4805 176.576ZM65.8867 176.576C65.8691 177.666 67.3721 178.29 69.877 178.281C72.3555 178.29 73.8584 177.666 73.8672 176.576C73.8584 175.478 72.3555 174.854 69.877 174.836C67.3721 174.854 65.8691 175.478 65.8867 176.576ZM91.252 163.814V175.627H89.8457V173.43H86.4004V172.305H89.8457V163.814H91.252ZM78.209 170.002C80.2217 169.993 82.7441 169.976 85.2227 169.809C85.5303 168.086 85.583 166.785 85.5918 165.889H79.6152V164.764H86.9629V165.379C86.9717 166.24 86.9717 167.699 86.6377 169.694C87.2441 169.642 87.8418 169.571 88.4219 169.492L88.5273 170.494C87.0684 170.74 85.5391 170.89 84.0449 170.986V174.59H82.6738V171.057C81.1357 171.127 79.668 171.145 78.4023 171.145L78.209 170.002ZM80.5469 179.09V174.309H81.9355V177.93H91.6387V179.09H80.5469ZM99.1094 167.998C99.1094 170.749 100.929 173.588 103.152 174.678L102.309 175.785C100.586 174.889 99.1445 173.034 98.4502 170.863C97.7559 173.166 96.2793 175.144 94.5215 176.084L93.6426 174.977C95.9277 173.852 97.7383 170.854 97.7559 167.998V165.15H99.1094V167.998ZM104.594 179.424V163.797H105.965V170.143H108.584V171.338H105.965V179.424H104.594Z" fill="#9CA3AF"/>
<mask id="mask1_241_1154" style="mask-type:alpha" maskUnits="userSpaceOnUse" x="401" y="160" width="24" height="24">
<rect x="401" y="160" width="24" height="24" fill="#D9D9D9"/>
</mask>
<g mask="url(#mask1_241_1154)">
<path d="M412.475 174.475L408.85 170.85C408.8 170.8 408.762 170.746 408.737 170.688C408.712 170.629 408.7 170.567 408.7 170.5C408.7 170.367 408.746 170.25 408.837 170.15C408.929 170.05 409.05 170 409.2 170H416.8C416.95 170 417.071 170.05 417.162 170.15C417.254 170.25 417.3 170.367 417.3 170.5C417.3 170.533 417.25 170.65 417.15 170.85L413.525 174.475C413.442 174.558 413.358 174.617 413.275 174.65C413.192 174.683 413.1 174.7 413 174.7C412.9 174.7 412.808 174.683 412.725 174.65C412.642 174.617 412.558 174.558 412.475 174.475Z" fill="#111827"/>
</g>
<mask id="path-11-inside-2_241_1154" fill="white">
<path d="M25 199H425V253H25V199Z"/>
</mask>
<path d="M425 252H25V254H425V252Z" fill="#D1D5DB" mask="url(#path-11-inside-2_241_1154)"/>
<path d="M39.0097 234.43H37.692V218.804H39.0097V234.43ZM25.6215 230.054C27.2831 229.068 28.5573 227.889 29.4441 226.517C30.3349 225.142 30.8508 223.619 30.9917 221.949H26.3177V220.793H32.3591C32.3591 221.609 32.2887 222.396 32.1478 223.155H34.5221V219.227H35.8522V233.634H34.5221V228.214H31.6257V227.07H34.5221V224.298H31.8805C31.4869 225.666 30.8425 226.919 29.9475 228.059C29.0566 229.194 27.8923 230.191 26.4544 231.048L25.6215 230.054ZM46.6727 221.601C46.6685 222.256 46.8301 222.881 47.1575 223.478C47.489 224.07 47.9489 224.59 48.5373 225.038C49.1298 225.481 49.8053 225.819 50.5635 226.051L49.9047 227.145C48.9972 226.859 48.2017 226.426 47.518 225.846C46.8384 225.266 46.3287 224.584 45.989 223.801C45.645 224.646 45.1229 225.382 44.4227 226.008C43.7265 226.629 42.9102 227.095 41.9738 227.406L41.2652 226.312C42.0484 226.068 42.7424 225.711 43.3474 225.243C43.9524 224.775 44.4247 224.228 44.7645 223.602C45.1043 222.972 45.2763 222.305 45.2804 221.601V221.414H41.7376V220.258H50.1906V221.414H46.6727V221.601ZM40.9917 229.992C42.8274 229.992 44.2611 229.977 45.2928 229.948V226.76H46.6727V229.898C48.3301 229.82 49.7348 229.698 50.8868 229.532L50.9862 230.551C49.9503 230.733 48.8667 230.868 47.7355 230.955C46.6043 231.042 45.5518 231.096 44.578 231.117C43.6084 231.137 42.4834 231.148 41.203 231.148L40.9917 229.992ZM51.8937 218.804H53.2611V225.293H55.8094V226.474H53.2611V234.43H51.8937V218.804ZM69.7003 230.377H68.3205V224.36H64.6285V227.704H57.5304V219.848H58.9102V222.633H63.2611V219.848H64.6285V223.217H68.3205V218.816H69.7003V230.377ZM63.2611 226.573V223.714H58.9102V226.573H63.2611ZM59.5939 229.246H60.9862V232.938H70.0608V234.081H59.5939V229.246ZM85.8039 222.26H73.0125V221.116H78.7431V219.065H80.0981V221.116H85.8039V222.26ZM72.3039 231.446H78.7431V229.252C77.8149 229.206 77.0152 229.059 76.344 228.811C75.6768 228.558 75.1651 228.218 74.8087 227.791C74.4524 227.36 74.2763 226.855 74.2804 226.275C74.2763 225.657 74.4793 225.127 74.8895 224.684C75.3039 224.24 75.8964 223.903 76.6672 223.671C77.442 223.439 78.3578 223.325 79.4144 223.329C80.4627 223.325 81.3743 223.439 82.1492 223.671C82.9241 223.903 83.5187 224.242 83.933 224.69C84.3516 225.133 84.5608 225.662 84.5608 226.275C84.5608 226.851 84.3806 227.354 84.0201 227.785C83.6637 228.212 83.1499 228.552 82.4786 228.805C81.8115 229.053 81.018 229.202 80.0981 229.252V231.446H86.6119V232.59H72.3039V231.446ZM75.6727 226.275C75.6685 226.664 75.8156 227 76.114 227.282C76.4165 227.559 76.8474 227.773 77.4068 227.922C77.9703 228.071 78.6395 228.148 79.4144 228.152C80.1851 228.148 80.8502 228.071 81.4096 227.922C81.9731 227.773 82.404 227.559 82.7024 227.282C83.0049 227 83.1561 226.664 83.1561 226.275C83.1561 225.89 83.0049 225.558 82.7024 225.28C82.404 225.003 81.9731 224.791 81.4096 224.646C80.846 224.497 80.181 224.423 79.4144 224.423C78.6437 224.423 77.9766 224.497 77.413 224.646C76.8495 224.791 76.4165 225.003 76.114 225.28C75.8156 225.558 75.6685 225.89 75.6727 226.275Z" fill="#9CA3AF"/>
<path d="M25 378C25 372.477 29.4772 368 35 368H415C420.523 368 425 372.477 425 378V785H25V378Z" fill="white"/>
<path d="M25.5 373C25.5 370.515 27.5147 368.5 30 368.5H124.5V413.5H30C27.5147 413.5 25.5 411.485 25.5 409V373Z" stroke="#D1D5DB"/>
<path d="M50.8343 394.26C52.3186 394.186 53.6446 394.061 54.8122 393.884L54.9116 394.801C53.9282 394.978 52.9079 395.11 51.8508 395.199C50.7937 395.287 49.8011 395.343 48.8729 395.365C47.9448 395.387 46.9227 395.398 45.8066 395.398L45.6409 394.37C47.3536 394.363 48.6796 394.343 49.6188 394.309V391.696H50.8343V394.26ZM46.0608 391.221C46.7459 391.015 47.3536 390.716 47.884 390.326C48.4144 389.936 48.8287 389.473 49.1271 388.939C49.4291 388.405 49.5856 387.832 49.5967 387.221H46.4033V386.204H49.6188V384.481H50.8343V386.204H54.0939V387.221H50.8343C50.8453 387.807 51.0037 388.355 51.3094 388.867C51.6188 389.379 52.0405 389.823 52.5746 390.199C53.1087 390.575 53.7182 390.86 54.4033 391.055L53.8287 392.028C52.989 391.773 52.256 391.389 51.6298 390.873C51.0037 390.357 50.5359 389.75 50.2265 389.05C49.9282 389.79 49.4678 390.431 48.8453 390.972C48.2228 391.51 47.4936 391.906 46.6575 392.16L46.0608 391.221ZM55.7293 384.381H56.9558V398.293H55.7293V384.381ZM70.4414 386.293C70.4414 386.831 70.434 387.304 70.4193 387.713C70.4082 388.118 70.3769 388.582 70.3254 389.105C70.2738 389.628 70.1909 390.182 70.0767 390.768H72.1099V391.796H59.3917V390.768H68.8502C68.9681 390.175 69.0528 389.619 69.1044 389.099C69.1596 388.576 69.1928 388.114 69.2038 387.713C69.2185 387.308 69.2259 386.834 69.2259 386.293V386.227H61.0049V385.221H70.4414V386.293ZM61.0712 393.354H62.2977V396.923H70.8613V397.95H61.0712V393.354ZM88.6829 398.293H87.4564V384.381H88.6829V398.293ZM77.7547 390.293C77.7547 389.324 77.9039 388.475 78.2023 387.746C78.5043 387.017 78.9242 386.453 79.4619 386.055C79.9997 385.657 80.6129 385.457 81.3017 385.453C81.9868 385.457 82.5964 385.657 83.1304 386.055C83.6682 386.453 84.0881 387.018 84.3901 387.751C84.6958 388.481 84.8487 389.328 84.8487 390.293C84.8487 391.262 84.6958 392.112 84.3901 392.845C84.0881 393.578 83.6682 394.144 83.1304 394.541C82.5927 394.936 81.9831 395.133 81.3017 395.133C80.6129 395.133 79.9997 394.936 79.4619 394.541C78.9242 394.144 78.5043 393.58 78.2023 392.851C77.9039 392.118 77.7547 391.265 77.7547 390.293ZM78.9371 390.293C78.9371 391.037 79.0365 391.692 79.2354 392.26C79.4343 392.827 79.7124 393.265 80.0697 393.575C80.4306 393.884 80.8413 394.039 81.3017 394.039C81.7621 394.039 82.1691 393.884 82.5227 393.575C82.88 393.265 83.1581 392.827 83.357 392.26C83.5559 391.692 83.6553 391.037 83.6553 390.293C83.6553 389.552 83.5559 388.901 83.357 388.337C83.1581 387.77 82.88 387.331 82.5227 387.022C82.1691 386.709 81.7621 386.551 81.3017 386.547C80.8413 386.551 80.4306 386.709 80.0697 387.022C79.7124 387.331 79.4343 387.77 79.2354 388.337C79.0365 388.901 78.9371 389.552 78.9371 390.293ZM95.1298 388.657C95.1298 389.405 95.2514 390.14 95.4945 390.862C95.7413 391.584 96.093 392.238 96.5497 392.823C97.0064 393.405 97.5424 393.862 98.1575 394.193L97.4503 395.11C96.7726 394.738 96.1869 394.215 95.6934 393.541C95.1998 392.864 94.8241 392.096 94.5663 391.238C94.3122 392.155 93.9383 392.98 93.4448 393.713C92.9512 394.442 92.3674 395.011 91.6934 395.42L90.953 394.492C91.5681 394.134 92.1022 393.646 92.5552 393.028C93.0083 392.405 93.3564 391.715 93.5994 390.956C93.8425 390.193 93.9659 389.427 93.9696 388.657V387.972H91.3287V386.956H93.9696V384.89H95.1409V386.956H97.7376V387.972H95.1298V388.657ZM96.7762 389.862H98.9641V384.713H100.124V397.541H98.9641V390.901H96.7762V389.862ZM101.76 384.381H102.931V398.271H101.76V384.381Z" fill="#4B5563"/>
<mask id="path-17-inside-3_241_1154" fill="white">
<path d="M125 368H225V414H125V368Z"/>
</mask>
<path d="M225 368H226V367H225V368ZM225 414V415H226V414H225ZM125 369H225V367H125V369ZM224 368V414H226V368H224ZM225 413H125V415H225V413Z" fill="#D1D5DB" mask="url(#path-17-inside-3_241_1154)"/>
<path d="M150.26 388.646C150.256 389.372 150.414 390.11 150.735 390.862C151.055 391.613 151.492 392.293 152.044 392.901C152.6 393.505 153.21 393.965 153.873 394.282L153.166 395.254C152.654 395 152.169 394.657 151.713 394.227C151.26 393.796 150.856 393.302 150.503 392.746C150.153 392.186 149.875 391.595 149.669 390.972C149.455 391.646 149.164 392.287 148.796 392.895C148.431 393.499 148.015 394.035 147.547 394.503C147.079 394.971 146.587 395.335 146.072 395.597L145.331 394.624C145.991 394.304 146.604 393.821 147.171 393.177C147.742 392.532 148.197 391.808 148.536 391.006C148.878 390.203 149.052 389.416 149.055 388.646V386.834H145.829V385.807H153.387V386.834H150.26V388.646ZM155.088 384.381H156.315V389.994H158.635V391.044H156.315V398.271H155.088V384.381ZM166.408 386.337C166.405 386.934 166.637 387.503 167.104 388.044C167.572 388.582 168.184 389.037 168.939 389.409C169.694 389.777 170.482 390.02 171.303 390.138L170.839 391.11C170.106 390.985 169.401 390.777 168.723 390.486C168.045 390.192 167.443 389.825 166.917 389.387C166.39 388.948 165.99 388.459 165.718 387.917C165.445 388.459 165.045 388.948 164.519 389.387C163.992 389.825 163.392 390.192 162.718 390.486C162.044 390.777 161.344 390.985 160.618 391.11L160.143 390.138C160.957 390.02 161.74 389.777 162.491 389.409C163.246 389.037 163.858 388.582 164.325 388.044C164.797 387.503 165.034 386.934 165.038 386.337V386.249H160.585V385.254H170.839V386.249H166.408V386.337ZM159.392 392.293H172.055V393.309H166.298V398.26H165.093V393.309H159.392V392.293ZM188.683 398.293H187.456V384.381H188.683V398.293ZM177.755 390.293C177.755 389.324 177.904 388.475 178.202 387.746C178.504 387.017 178.924 386.453 179.462 386.055C180 385.657 180.613 385.457 181.302 385.453C181.987 385.457 182.596 385.657 183.13 386.055C183.668 386.453 184.088 387.018 184.39 387.751C184.696 388.481 184.849 389.328 184.849 390.293C184.849 391.262 184.696 392.112 184.39 392.845C184.088 393.578 183.668 394.144 183.13 394.541C182.593 394.936 181.983 395.133 181.302 395.133C180.613 395.133 180 394.936 179.462 394.541C178.924 394.144 178.504 393.58 178.202 392.851C177.904 392.118 177.755 391.265 177.755 390.293ZM178.937 390.293C178.937 391.037 179.037 391.692 179.235 392.26C179.434 392.827 179.712 393.265 180.07 393.575C180.431 393.884 180.841 394.039 181.302 394.039C181.762 394.039 182.169 393.884 182.523 393.575C182.88 393.265 183.158 392.827 183.357 392.26C183.556 391.692 183.655 391.037 183.655 390.293C183.655 389.552 183.556 388.901 183.357 388.337C183.158 387.77 182.88 387.331 182.523 387.022C182.169 386.709 181.762 386.551 181.302 386.547C180.841 386.551 180.431 386.709 180.07 387.022C179.712 387.331 179.434 387.77 179.235 388.337C179.037 388.901 178.937 389.552 178.937 390.293ZM195.13 388.657C195.13 389.405 195.251 390.14 195.494 390.862C195.741 391.584 196.093 392.238 196.55 392.823C197.006 393.405 197.542 393.862 198.157 394.193L197.45 395.11C196.773 394.738 196.187 394.215 195.693 393.541C195.2 392.864 194.824 392.096 194.566 391.238C194.312 392.155 193.938 392.98 193.445 393.713C192.951 394.442 192.367 395.011 191.693 395.42L190.953 394.492C191.568 394.134 192.102 393.646 192.555 393.028C193.008 392.405 193.356 391.715 193.599 390.956C193.843 390.193 193.966 389.427 193.97 388.657V387.972H191.329V386.956H193.97V384.89H195.141V386.956H197.738V387.972H195.13V388.657ZM196.776 389.862H198.964V384.713H200.124V397.541H198.964V390.901H196.776V389.862ZM201.76 384.381H202.931V398.271H201.76V384.381Z" fill="#4B5563"/>
<mask id="path-20-inside-4_241_1154" fill="white">
<path d="M225 368H325V414H225V368Z"/>
</mask>
<path d="M325 368H326V367H325V368ZM325 414V415H326V414H325ZM225 369H325V367H225V369ZM324 368V414H326V368H324ZM325 413H225V415H325V413Z" fill="#D1D5DB" mask="url(#path-20-inside-4_241_1154)"/>
<path d="M250.077 394.657H248.851V390.901H245.254C244.926 391.313 244.514 391.635 244.017 391.867C243.519 392.099 242.976 392.215 242.387 392.215C241.702 392.215 241.085 392.068 240.536 391.773C239.987 391.475 239.556 391.063 239.243 390.536C238.934 390.009 238.781 389.413 238.785 388.746C238.781 388.079 238.934 387.483 239.243 386.956C239.556 386.425 239.987 386.013 240.536 385.718C241.085 385.42 241.702 385.269 242.387 385.265C242.972 385.269 243.51 385.385 244 385.613C244.494 385.842 244.906 386.16 245.238 386.569H248.851V384.392H250.077V394.657ZM239.956 388.746C239.956 389.203 240.059 389.613 240.265 389.978C240.475 390.339 240.764 390.622 241.133 390.829C241.505 391.031 241.923 391.133 242.387 391.133C242.84 391.133 243.249 391.031 243.613 390.829C243.982 390.622 244.271 390.339 244.481 389.978C244.691 389.613 244.796 389.203 244.796 388.746C244.796 388.293 244.691 387.886 244.481 387.525C244.271 387.164 243.982 386.88 243.613 386.674C243.249 386.468 242.84 386.363 242.387 386.359C241.923 386.363 241.505 386.468 241.133 386.674C240.764 386.877 240.475 387.16 240.265 387.525C240.059 387.886 239.956 388.293 239.956 388.746ZM241.16 393.586H242.387V396.945H250.464V397.961H241.16V393.586ZM245.79 387.586C245.915 387.954 245.978 388.341 245.978 388.746C245.978 389.133 245.917 389.512 245.796 389.884H248.851V387.586H245.79ZM259.276 389.044H254.226V391.055C255.556 391.052 256.701 391.02 257.662 390.961C258.624 390.899 259.618 390.783 260.646 390.613L260.767 391.63C259.699 391.803 258.662 391.923 257.657 391.989C256.651 392.052 255.463 392.083 254.093 392.083H253.01V388.072H258.071V386.227H252.977V385.221H259.276V389.044ZM254.16 393.564H263.254V398.26H262.027V394.569H254.16V393.564ZM262.027 384.392H263.254V387.95H265.353V388.978H263.254V392.834H262.027V384.392ZM277.734 398.293H276.507V390.978H273.457V389.961H276.507V384.381H277.734V398.293ZM266.253 394.624C266.927 394.311 267.533 393.856 268.071 393.26C268.612 392.663 269.037 391.983 269.347 391.221C269.656 390.459 269.811 389.685 269.811 388.901V387.796H266.618V386.801H269.811V384.635H271.037V386.801H274.165V387.796H271.015V388.901C271.015 389.652 271.174 390.39 271.491 391.116C271.807 391.842 272.24 392.49 272.789 393.061C273.341 393.628 273.958 394.064 274.64 394.37L273.944 395.331C273.417 395.092 272.925 394.77 272.468 394.365C272.012 393.959 271.608 393.494 271.258 392.967C270.912 392.436 270.636 391.867 270.43 391.26C270.231 391.901 269.958 392.503 269.612 393.066C269.27 393.626 268.87 394.122 268.413 394.552C267.96 394.983 267.472 395.324 266.949 395.575L266.253 394.624ZM290.992 391.287H296.727V392.282H284.064V391.287H289.787V389.232H290.992V391.287ZM284.826 388.978C285.655 388.867 286.448 388.632 287.207 388.271C287.97 387.91 288.587 387.464 289.058 386.934C289.529 386.403 289.765 385.84 289.765 385.243V384.591H291.003V385.243C291.003 385.836 291.238 386.4 291.71 386.934C292.185 387.464 292.804 387.91 293.566 388.271C294.329 388.632 295.124 388.867 295.953 388.978L295.456 389.961C294.741 389.84 294.051 389.637 293.384 389.354C292.721 389.07 292.126 388.718 291.599 388.298C291.076 387.875 290.673 387.405 290.39 386.89C290.106 387.409 289.701 387.878 289.174 388.298C288.651 388.718 288.054 389.07 287.384 389.354C286.714 389.634 286.016 389.836 285.29 389.961L284.826 388.978ZM285.588 395.851C285.588 395.339 285.778 394.904 286.157 394.547C286.541 394.186 287.089 393.912 287.804 393.724C288.522 393.536 289.382 393.442 290.384 393.442C291.382 393.442 292.238 393.536 292.953 393.724C293.668 393.908 294.215 394.18 294.594 394.541C294.973 394.902 295.165 395.339 295.169 395.851C295.165 396.359 294.973 396.792 294.594 397.149C294.215 397.506 293.668 397.777 292.953 397.961C292.238 398.145 291.382 398.238 290.384 398.238C289.382 398.238 288.522 398.145 287.804 397.961C287.086 397.777 286.537 397.506 286.157 397.149C285.778 396.792 285.588 396.359 285.588 395.851ZM286.837 395.851C286.833 396.153 286.971 396.411 287.251 396.624C287.531 396.838 287.936 397 288.467 397.11C289.001 397.225 289.64 397.28 290.384 397.276C291.124 397.28 291.76 397.225 292.29 397.11C292.824 397 293.231 396.838 293.511 396.624C293.795 396.411 293.938 396.153 293.942 395.851C293.938 395.545 293.795 395.284 293.511 395.066C293.231 394.849 292.826 394.685 292.296 394.575C291.765 394.46 291.128 394.403 290.384 394.403C289.636 394.403 288.995 394.46 288.461 394.575C287.931 394.685 287.526 394.849 287.246 395.066C286.97 395.284 286.833 395.545 286.837 395.851ZM308.941 386.149C308.941 386.643 308.934 387.076 308.919 387.448C308.908 387.82 308.875 388.243 308.82 388.718C308.768 389.193 308.684 389.7 308.566 390.238H310.61V391.254H297.892V390.238H307.334C307.455 389.696 307.544 389.188 307.599 388.713C307.658 388.238 307.693 387.816 307.704 387.448C307.719 387.079 307.726 386.646 307.726 386.149V386.138H299.505V385.122H308.941V386.149ZM299.461 393.166H308.997V398.083H299.461V393.166ZM307.781 397.077V394.138H300.665V397.077H307.781Z" fill="#4B5563"/>
<mask id="path-23-inside-5_241_1154" fill="white">
<path d="M325 368H420C422.761 368 425 370.239 425 373V409C425 411.761 422.761 414 420 414H325V368Z"/>
</mask>
<path d="M325 367H420C423.314 367 426 369.686 426 373H424C424 370.791 422.209 369 420 369H325V367ZM426 409C426 412.314 423.314 415 420 415H325V413H420C422.209 413 424 411.209 424 409H426ZM325 414V368V414ZM420 367C423.314 367 426 369.686 426 373V409C426 412.314 423.314 415 420 415V413C422.209 413 424 411.209 424 409V373C424 370.791 422.209 369 420 369V367Z" fill="#D1D5DB" mask="url(#path-23-inside-5_241_1154)"/>
<path d="M364.42 398.271H363.227V391.077H361.215V397.541H360.055V384.691H361.215V390.039H363.227V384.381H364.42V398.271ZM353.26 386.072H354.486V393.575C355.238 393.571 355.985 393.536 356.729 393.47C357.473 393.403 358.243 393.291 359.039 393.133L359.182 394.215C358.269 394.381 357.405 394.499 356.591 394.569C355.781 394.635 354.961 394.669 354.133 394.669H353.26V386.072ZM382.297 398.271H381.126V384.381H382.297V398.271ZM370.396 394.381C371.873 393.505 373.006 392.457 373.794 391.238C374.586 390.015 375.044 388.661 375.17 387.177H371.015V386.149H376.385C376.385 386.875 376.323 387.575 376.197 388.249H378.308V384.757H379.49V397.564H378.308V392.746H375.733V391.729H378.308V389.265H375.96C375.61 390.481 375.037 391.595 374.242 392.608C373.45 393.617 372.415 394.503 371.137 395.265L370.396 394.381ZM389.108 386.867C389.105 387.449 389.248 388.006 389.539 388.536C389.834 389.063 390.243 389.525 390.766 389.923C391.293 390.317 391.893 390.617 392.567 390.823L391.981 391.796C391.175 391.541 390.467 391.157 389.86 390.641C389.256 390.125 388.803 389.519 388.501 388.823C388.195 389.575 387.731 390.228 387.108 390.785C386.49 391.337 385.764 391.751 384.932 392.028L384.302 391.055C384.998 390.838 385.615 390.521 386.153 390.105C386.69 389.689 387.11 389.203 387.412 388.646C387.714 388.087 387.867 387.494 387.871 386.867V386.702H384.722V385.674H392.235V386.702H389.108V386.867ZM384.059 394.326C385.69 394.326 386.965 394.313 387.882 394.287V391.453H389.108V394.243C390.582 394.173 391.83 394.064 392.854 393.917L392.943 394.823C392.022 394.985 391.059 395.105 390.053 395.182C389.048 395.26 388.112 395.308 387.246 395.326C386.385 395.344 385.385 395.354 384.246 395.354L384.059 394.326ZM393.749 384.381H394.965V390.149H397.23V391.199H394.965V398.271H393.749V384.381Z" fill="#4B5563"/>
<path d="M91.6653 476.29C90.1943 476.29 88.8856 476.038 87.7392 475.534C86.5928 475.03 85.7019 474.329 85.0665 473.431C84.4312 472.526 84.1169 471.504 84.1239 470.365C84.1169 469.474 84.3034 468.642 84.6832 467.868C85.0631 467.088 85.581 466.445 86.2371 465.941C86.9001 465.43 87.6321 465.109 88.4332 464.978V464.874C87.7426 464.709 87.1314 464.398 86.5997 463.942C86.0679 463.486 85.657 462.927 85.3669 462.264C85.0769 461.601 84.9319 460.89 84.9319 460.13C84.9319 459.059 85.2219 458.096 85.802 457.24C86.3821 456.383 87.1832 455.713 88.2053 455.23C89.2343 454.74 90.3877 454.494 91.6653 454.494C92.936 454.494 94.079 454.74 95.0942 455.23C96.1163 455.713 96.9174 456.383 97.4975 457.24C98.0776 458.096 98.3711 459.059 98.378 460.13C98.3711 460.89 98.2192 461.601 97.9222 462.264C97.6321 462.927 97.2212 463.486 96.6895 463.942C96.1646 464.398 95.5603 464.709 94.8766 464.874V464.978C95.6708 465.109 96.396 465.43 97.052 465.941C97.715 466.445 98.2364 467.088 98.6163 467.868C99.003 468.642 99.1998 469.474 99.2067 470.365C99.1998 471.504 98.8752 472.526 98.233 473.431C97.5907 474.329 96.6964 475.03 95.55 475.534C94.4105 476.038 93.1156 476.29 91.6653 476.29ZM86.7551 470.22C86.7413 470.965 86.9312 471.622 87.3248 472.188C87.7185 472.747 88.2882 473.186 89.0341 473.503C89.7799 473.814 90.657 473.97 91.6653 473.97C92.6598 473.97 93.5265 473.814 94.2654 473.503C95.0044 473.186 95.5741 472.747 95.9747 472.188C96.3752 471.622 96.5755 470.965 96.5755 470.22C96.5755 469.446 96.3614 468.752 95.9332 468.137C95.512 467.523 94.9284 467.039 94.1826 466.687C93.4367 466.335 92.5976 466.159 91.6653 466.159C90.7261 466.159 89.8801 466.335 89.1273 466.687C88.3745 467.039 87.7875 467.526 87.3663 468.148C86.945 468.762 86.7413 469.453 86.7551 470.22ZM87.5009 460.316C87.5009 461.028 87.677 461.656 88.0292 462.202C88.3814 462.747 88.8718 463.172 89.5002 463.476C90.1356 463.773 90.8573 463.921 91.6653 463.921C92.4595 463.921 93.1708 463.773 93.7993 463.476C94.4277 463.172 94.9181 462.747 95.2703 462.202C95.6294 461.649 95.8089 461.021 95.8089 460.316C95.8089 459.619 95.6328 459.004 95.2806 458.472C94.9353 457.934 94.4484 457.516 93.82 457.219C93.1984 456.922 92.4802 456.773 91.6653 456.773C90.8366 456.773 90.1045 456.922 89.4692 457.219C88.8407 457.516 88.3538 457.934 88.0085 458.472C87.6701 459.004 87.5009 459.619 87.5009 460.316Z" fill="#222222"/>
<path d="M224.772 454.494C226.132 454.494 227.396 454.805 228.563 455.427C229.73 456.048 230.687 457.108 231.433 458.607C232.185 460.099 232.562 462.077 232.562 464.543C232.562 467.029 232.237 469.153 231.588 470.914C230.939 472.668 230.01 474.004 228.802 474.923C227.593 475.834 226.16 476.29 224.502 476.29C223.28 476.29 222.179 476.055 221.198 475.586C220.217 475.116 219.416 474.456 218.795 473.607C218.18 472.751 217.783 471.76 217.603 470.634H220.214C220.462 471.635 220.953 472.44 221.685 473.048C222.424 473.648 223.363 473.949 224.502 473.949C225.649 473.949 226.64 473.628 227.476 472.985C228.318 472.343 228.964 471.414 229.413 470.199C229.862 468.977 230.09 467.512 230.096 465.807H229.806C229.192 466.698 228.411 467.392 227.465 467.889C226.526 468.379 225.497 468.624 224.378 468.624C223.121 468.624 221.961 468.324 220.898 467.723C219.841 467.115 218.998 466.276 218.37 465.206C217.748 464.135 217.438 462.934 217.438 461.601C217.438 460.296 217.738 459.101 218.339 458.017C218.947 456.932 219.806 456.076 220.918 455.448C222.037 454.812 223.322 454.494 224.772 454.494ZM220.007 461.58C220.007 462.45 220.21 463.248 220.618 463.973C221.032 464.691 221.602 465.261 222.327 465.682C223.052 466.097 223.867 466.304 224.772 466.304C225.67 466.304 226.491 466.083 227.237 465.641C227.99 465.192 228.584 464.602 229.019 463.869C229.461 463.137 229.682 462.36 229.682 461.539C229.682 460.724 229.471 459.954 229.05 459.229C228.629 458.503 228.049 457.92 227.31 457.478C226.578 457.036 225.759 456.815 224.855 456.815C223.95 456.815 223.125 457.029 222.379 457.457C221.64 457.885 221.056 458.465 220.628 459.198C220.207 459.923 220 460.717 220.007 461.58Z" fill="#222222"/>
<path d="M358.399 476.29C357.004 476.29 355.754 476.055 354.649 475.586C353.544 475.116 352.67 474.456 352.028 473.607C351.393 472.758 351.051 471.78 351.002 470.675H353.675C353.723 471.331 353.958 471.908 354.379 472.405C354.801 472.896 355.357 473.276 356.047 473.545C356.745 473.814 357.515 473.949 358.357 473.949C359.283 473.949 360.112 473.794 360.844 473.483C361.576 473.165 362.149 472.723 362.563 472.157C362.978 471.59 363.185 470.945 363.185 470.22C363.185 469.446 362.981 468.762 362.574 468.169C362.173 467.575 361.586 467.112 360.812 466.78C360.039 466.449 359.11 466.283 358.026 466.283H356.306V463.963H358.026C358.882 463.963 359.642 463.811 360.305 463.507C360.975 463.203 361.493 462.778 361.859 462.233C362.232 461.68 362.418 461.041 362.418 460.316C362.418 459.619 362.256 459.004 361.931 458.472C361.607 457.941 361.144 457.53 360.543 457.24C359.942 456.943 359.241 456.794 358.44 456.794C357.681 456.794 356.966 456.929 356.296 457.198C355.633 457.468 355.094 457.854 354.68 458.358C354.266 458.856 354.041 459.439 354.007 460.109H351.458C351.5 459.018 351.838 458.048 352.473 457.198C353.109 456.342 353.955 455.679 355.011 455.209C356.068 454.733 357.225 454.494 358.482 454.494C359.787 454.494 360.93 454.753 361.911 455.271C362.898 455.789 363.654 456.483 364.179 457.354C364.711 458.224 364.973 459.17 364.966 460.192C364.973 460.979 364.832 461.698 364.542 462.347C364.252 462.996 363.834 463.545 363.288 463.994C362.743 464.443 362.1 464.771 361.362 464.978V465.144C362.273 465.282 363.06 465.582 363.723 466.045C364.393 466.501 364.904 467.091 365.257 467.816C365.609 468.535 365.781 469.343 365.775 470.24C365.781 471.38 365.464 472.412 364.821 473.338C364.186 474.256 363.302 474.978 362.17 475.503C361.044 476.028 359.787 476.29 358.399 476.29Z" fill="#222222"/>
<path d="M84.8312 547.073L92.0618 539.449C93.0149 538.434 93.74 537.619 94.2373 537.004C94.7414 536.383 95.1247 535.785 95.3871 535.212C95.6496 534.632 95.7842 534.028 95.7911 533.399C95.7842 532.681 95.5943 532.049 95.2214 531.503C94.8554 530.958 94.3512 530.537 93.7089 530.24C93.0736 529.943 92.3588 529.794 91.5646 529.794C90.7359 529.794 90.0073 529.96 89.3788 530.291C88.7573 530.623 88.2773 531.089 87.9389 531.69C87.6074 532.291 87.4417 532.985 87.4417 533.772H84.9348C84.9279 532.543 85.2145 531.455 85.7946 530.509C86.3816 529.556 87.1862 528.817 88.2083 528.292C89.2304 527.76 90.3768 527.494 91.6475 527.494C92.9044 527.494 94.0335 527.757 95.0349 528.282C96.0432 528.8 96.8305 529.508 97.3968 530.405C97.9631 531.303 98.2497 532.301 98.2566 533.399C98.2497 534.207 98.0978 534.981 97.8008 535.72C97.5107 536.452 97.017 537.267 96.3194 538.164C95.6288 539.062 94.6447 540.167 93.3671 541.479L88.519 546.493V546.659H98.6295V549H84.8519L84.8312 547.073Z" fill="#222222"/>
<path d="M225.248 549.29C223.881 549.29 222.61 548.983 221.436 548.368C220.269 547.747 219.309 546.686 218.556 545.188C217.81 543.682 217.438 541.686 217.438 539.2C217.438 536.728 217.762 534.615 218.411 532.86C219.06 531.106 219.989 529.773 221.198 528.862C222.406 527.95 223.84 527.494 225.497 527.494C226.719 527.494 227.817 527.733 228.791 528.209C229.772 528.679 230.569 529.338 231.184 530.188C231.799 531.03 232.196 532.004 232.375 533.109H229.765C229.516 532.128 229.026 531.338 228.294 530.737C227.562 530.136 226.63 529.836 225.497 529.836C224.344 529.836 223.349 530.157 222.514 530.799C221.678 531.434 221.036 532.36 220.587 533.575C220.145 534.791 219.924 536.244 219.924 537.936H220.193C220.808 537.039 221.585 536.345 222.524 535.854C223.47 535.364 224.509 535.119 225.642 535.119C226.892 535.119 228.045 535.423 229.102 536.03C230.159 536.631 230.998 537.467 231.619 538.537C232.248 539.608 232.562 540.809 232.562 542.142C232.562 543.468 232.258 544.677 231.65 545.768C231.043 546.852 230.183 547.712 229.071 548.347C227.966 548.976 226.692 549.29 225.248 549.29ZM220.297 542.204C220.297 543.033 220.507 543.814 220.929 544.546C221.35 545.278 221.93 545.865 222.669 546.307C223.415 546.749 224.247 546.97 225.165 546.97C226.063 546.97 226.882 546.756 227.621 546.327C228.36 545.899 228.94 545.319 229.361 544.587C229.789 543.848 230.007 543.04 230.014 542.163C230.007 541.307 229.796 540.519 229.382 539.801C228.974 539.076 228.408 538.503 227.683 538.081C226.958 537.653 226.146 537.439 225.248 537.439C224.344 537.439 223.511 537.66 222.752 538.102C221.999 538.544 221.402 539.131 220.96 539.863C220.525 540.595 220.304 541.376 220.297 542.204Z" fill="#222222"/>
<path d="M361.245 549H358.593V530.54H358.469L353.31 533.959V531.307L358.593 527.785H361.245V549Z" fill="#222222"/>
<path d="M83.7773 615.494L93.3284 600.785H96.5605V615.349H99.5439V617.67H96.5605V622H94.0536V617.67H83.7773V615.494ZM94.0536 615.349V604.12H93.8049L86.6157 615.184V615.349H94.0536Z" fill="#222222"/>
<path d="M229.113 603.291V603.126H217.905V600.785H231.848V603.25L222.152 622H219.376L229.113 603.291Z" fill="#222222"/>
<path d="M358.292 622.29C357.028 622.29 355.882 622.048 354.853 621.565C353.824 621.081 353.002 620.415 352.387 619.566C351.78 618.709 351.448 617.746 351.393 616.675H353.962C354.024 617.297 354.252 617.86 354.646 618.364C355.046 618.861 355.564 619.255 356.2 619.545C356.842 619.828 357.539 619.97 358.292 619.97C359.197 619.97 360.008 619.766 360.726 619.358C361.452 618.951 362.018 618.392 362.425 617.68C362.833 616.969 363.037 616.171 363.037 615.287C363.037 614.383 362.822 613.568 362.394 612.843C361.973 612.11 361.386 611.537 360.633 611.123C359.887 610.702 359.045 610.488 358.106 610.481C356.213 610.46 354.894 611.095 354.148 612.387H351.6L353.092 600.785H364.59V603.126H355.288L354.501 609.341H354.729C355.205 608.968 355.782 608.671 356.459 608.45C357.142 608.229 357.85 608.119 358.582 608.119C359.915 608.119 361.113 608.426 362.177 609.041C363.247 609.648 364.086 610.494 364.694 611.579C365.302 612.656 365.606 613.872 365.606 615.225C365.606 616.572 365.291 617.784 364.663 618.861C364.034 619.932 363.164 620.771 362.052 621.378C360.941 621.986 359.687 622.29 358.292 622.29Z" fill="#222222"/>
<path d="M82.3942 676.797V692.424H81.0583V684.303H78.9313V691.633H77.613V677.131H78.9313V683.125H81.0583V676.797H82.3942ZM73.5876 681.068C73.5876 683.934 74.7653 686.447 76.9977 687.59L76.1716 688.662C74.5895 687.801 73.5085 686.254 72.9548 684.338C72.4186 686.518 71.32 688.223 69.6676 689.189L68.8063 688.135C71.0563 686.904 72.2516 684.232 72.2516 681.068V679.82H69.1755V678.66H76.488V679.82H73.5876V681.068ZM86.4196 678.291V682.105H89.8122V678.291H91.0954V688.521H85.1012V678.291H86.4196ZM86.4196 687.379H89.8122V683.23H86.4196V687.379ZM97.9157 676.797V692.424H96.5798V684.145H94.4001V691.633H93.0817V677.131H94.4001V683.002H96.5798V676.797H97.9157ZM104.384 677.359C105.756 677.359 106.916 677.869 107.636 678.713H111.644V676.797H113.015V684.83H111.644V683.037H107.689C106.96 683.916 105.782 684.443 104.384 684.443C102.029 684.443 100.324 683.002 100.324 680.893C100.324 678.801 102.029 677.359 104.384 677.359ZM104.384 678.502C102.785 678.484 101.642 679.486 101.642 680.893C101.642 682.316 102.785 683.318 104.384 683.336C105.931 683.318 107.091 682.316 107.091 680.893C107.091 679.486 105.931 678.484 104.384 678.502ZM113.015 685.621V689.365H104.297V691.105H113.613V692.213H102.925V688.311H111.644V686.729H102.89V685.621H113.015ZM108.269 679.82C108.366 680.154 108.427 680.515 108.427 680.893C108.427 681.262 108.366 681.604 108.269 681.93H111.644V679.82H108.269Z" fill="#222222"/>
<path d="M224.994 695.29C223.433 695.29 222.097 694.865 220.985 694.016C219.88 693.16 219.034 691.916 218.447 690.287C217.867 688.657 217.577 686.692 217.577 684.392C217.577 682.113 217.87 680.159 218.457 678.529C219.044 676.892 219.894 675.646 221.006 674.789C222.118 673.926 223.447 673.494 224.994 673.494C226.541 673.494 227.87 673.926 228.982 674.789C230.094 675.646 230.944 676.892 231.531 678.529C232.118 680.159 232.411 682.113 232.411 684.392C232.411 686.692 232.118 688.657 231.531 690.287C230.951 691.916 230.105 693.16 228.993 694.016C227.888 694.865 226.555 695.29 224.994 695.29ZM220.146 684.392C220.146 686.209 220.336 687.759 220.716 689.044C221.096 690.321 221.648 691.291 222.373 691.954C223.098 692.617 223.972 692.949 224.994 692.949C226.016 692.949 226.89 692.617 227.615 691.954C228.34 691.291 228.893 690.321 229.272 689.044C229.652 687.759 229.842 686.209 229.842 684.392C229.842 682.576 229.649 681.026 229.262 679.741C228.882 678.45 228.33 677.469 227.605 676.799C226.879 676.129 226.009 675.794 224.994 675.794C223.979 675.794 223.109 676.129 222.384 676.799C221.658 677.469 221.102 678.45 220.716 679.741C220.336 681.026 220.146 682.576 220.146 684.392Z" fill="#222222"/>
<mask id="mask2_241_1154" style="mask-type:alpha" maskUnits="userSpaceOnUse" x="338" y="664" width="41" height="41">
<rect x="338.333" y="664.5" width="40" height="40" fill="#D9D9D9"/>
</mask>
<g mask="url(#mask2_241_1154)">
<path d="M353.974 694.5C353.376 694.5 352.812 694.364 352.283 694.093C351.755 693.822 351.316 693.442 350.968 692.955L346.118 686.064C345.787 685.588 345.621 685.066 345.621 684.5C345.621 683.934 345.787 683.413 346.118 682.936L350.968 676.109C351.316 675.622 351.749 675.232 352.267 674.939C352.786 674.646 353.354 674.5 353.974 674.5H368.974C369.72 674.5 370.355 674.762 370.88 675.287C371.404 675.811 371.666 676.447 371.666 677.192V691.808C371.666 692.553 371.404 693.189 370.88 693.713C370.355 694.238 369.72 694.5 368.974 694.5H353.974ZM353.974 692.833H368.974C369.231 692.833 369.466 692.727 369.679 692.513C369.893 692.299 370 692.064 370 691.808V677.192C370 676.936 369.893 676.701 369.679 676.487C369.466 676.273 369.231 676.167 368.974 676.167H353.974C353.654 676.167 353.349 676.247 353.061 676.407C352.772 676.567 352.542 676.765 352.371 677L347.448 683.891C347.32 684.062 347.256 684.265 347.256 684.5C347.256 684.735 347.32 684.938 347.448 685.109L352.371 692C352.542 692.235 352.772 692.433 353.061 692.593C353.349 692.753 353.654 692.833 353.974 692.833ZM361.089 685.68L364.833 689.423C364.989 689.579 365.18 689.662 365.407 689.673C365.633 689.684 365.835 689.6 366.013 689.423C366.19 689.246 366.278 689.049 366.278 688.833C366.278 688.618 366.19 688.421 366.013 688.244L362.269 684.5L366.013 680.756C366.168 680.6 366.252 680.409 366.263 680.182C366.273 679.956 366.19 679.754 366.013 679.577C365.835 679.4 365.638 679.311 365.423 679.311C365.207 679.311 365.01 679.4 364.833 679.577L361.089 683.32L357.346 679.577C357.19 679.421 356.999 679.338 356.772 679.327C356.546 679.316 356.344 679.4 356.166 679.577C355.989 679.754 355.901 679.951 355.901 680.167C355.901 680.383 355.989 680.579 356.166 680.756L359.91 684.5L356.166 688.244C356.01 688.4 355.927 688.591 355.916 688.817C355.906 689.044 355.989 689.246 356.166 689.423C356.344 689.6 356.54 689.689 356.756 689.689C356.972 689.689 357.168 689.6 357.346 689.423L361.089 685.68Z" fill="#797378"/>
</g>
<rect x="25" y="736" width="400" height="49" rx="5" fill="#E5E7EB"/>
<path d="M222.656 753.281V757.391H224.562V758.828H222.656V762.828H220.922V753.281H222.656ZM211.344 761.141C212.406 761.141 213.633 761.133 214.906 761.094V760.234C213.336 760.039 212.344 759.281 212.344 758.172C212.344 756.875 213.703 756.062 215.75 756.078C217.812 756.062 219.156 756.875 219.156 758.172C219.156 759.273 218.188 760.023 216.641 760.219V761.031C217.844 760.977 219.055 760.883 220.188 760.734L220.328 761.938C217.312 762.469 214.016 762.5 211.531 762.5L211.344 761.141ZM222.656 763.438V767.391H220.922V764.797H213.125V763.438H222.656ZM219.812 754.391V755.672H211.703V754.391H214.906V753.156H216.641V754.391H219.812ZM215.75 757.25C214.656 757.234 214 757.562 214.016 758.172C214 758.75 214.656 759.125 215.75 759.109C216.844 759.125 217.5 758.75 217.5 758.172C217.5 757.562 216.844 757.234 215.75 757.25ZM237.062 753.281V763.484H235.312V753.281H237.062ZM237.453 765.703V767.109H227.719V762.453H229.469V765.703H237.453ZM229.359 754.203C231.5 754.203 233.156 755.688 233.156 757.734C233.156 759.828 231.5 761.281 229.359 761.281C227.203 761.281 225.547 759.828 225.547 757.734C225.547 755.688 227.203 754.203 229.359 754.203ZM229.359 755.719C228.156 755.719 227.234 756.516 227.25 757.734C227.234 758.984 228.156 759.766 229.359 759.766C230.531 759.766 231.453 758.984 231.453 757.734C231.453 756.516 230.531 755.719 229.359 755.719Z" fill="#9CA3AF"/>
</svg>
