<svg width="450" height="730" viewBox="0 0 450 730" fill="none" xmlns="http://www.w3.org/2000/svg">
<rect width="450" height="730" fill="white"/>
<mask id="mask0_241_275" style="mask-type:alpha" maskUnits="userSpaceOnUse" x="25" y="20" width="40" height="40">
<rect x="25" y="20" width="40" height="40" fill="#D9D9D9"/>
</mask>
<g mask="url(#mask0_241_275)">
<path d="M28.375 39.972L35.4583 47.0553C35.7267 47.3239 35.8562 47.6481 35.8471 48.0278C35.8379 48.4073 35.699 48.7313 35.4304 48.9999C35.1618 49.2685 34.8331 49.4028 34.4442 49.4028C34.0553 49.4028 33.7267 49.2685 33.4583 48.9999L25.4025 40.9445C25.2544 40.7962 25.1503 40.6434 25.09 40.4862C25.03 40.3287 25 40.1573 25 39.972C25 39.787 25.03 39.6158 25.09 39.4583C25.1503 39.3008 25.2544 39.148 25.4025 38.9999L33.4858 30.9166C33.7544 30.648 34.0832 30.5137 34.4721 30.5137C34.861 30.5137 35.1897 30.648 35.4583 30.9166C35.7267 31.1852 35.8608 31.5139 35.8608 31.9028C35.8608 32.2917 35.7267 32.6203 35.4583 32.8887L28.375 39.972Z" fill="#111827"/>
</g>
<path d="M64.2383 31.6738V47.5645H62.375V31.6738H64.2383ZM60.9512 32.0605V46.8086H59.0879V41.5H56.6094V39.9004H59.0879V37.5449H56.8906C56.1436 40.1816 54.4824 42.4492 51.5117 44.207L50.3691 42.8184C53.665 40.876 55.1768 38.3887 55.4668 35.1895H51.2129V33.6074H57.4004C57.4004 34.4072 57.3477 35.1895 57.2422 35.9453H59.0879V32.0605H60.9512ZM75.2246 33.0273V34.627H71.9023C71.9551 36.3848 73.2471 38.0547 75.6641 38.7578L74.7324 40.2871C72.9219 39.751 71.6299 38.6436 70.9355 37.2285C70.2324 38.7842 68.8965 39.9971 67.0332 40.5684L66.0312 39.0391C68.501 38.3008 69.8369 36.543 69.916 34.627H66.5762V33.0273H75.2246ZM71.8848 39.9004V42.7305C73.1855 42.6689 74.4951 42.5635 75.7168 42.3965L75.8574 43.8027C72.5 44.4355 68.8613 44.418 66.1543 44.4355L65.8906 42.8359C67.0947 42.8359 68.4834 42.8359 69.9336 42.8008V39.9004H71.8848ZM80.8848 38.0547V39.6895H78.582V47.5645H76.6309V31.6738H78.582V38.0547H80.8848ZM94.8594 31.6738V47.582H92.8906V31.6738H94.8594ZM86.2988 32.834C88.6895 32.834 90.4297 35.0137 90.4473 38.4414C90.4297 41.9043 88.6895 44.0664 86.2988 44.0664C83.8906 44.0664 82.1504 41.9043 82.1504 38.4414C82.1504 35.0137 83.8906 32.834 86.2988 32.834ZM86.2988 34.5918C84.9453 34.5918 84.0312 36.0156 84.0312 38.4414C84.0312 40.8848 84.9453 42.3086 86.2988 42.3086C87.6348 42.3086 88.5488 40.8848 88.5488 38.4414C88.5488 36.0156 87.6348 34.5918 86.2988 34.5918ZM102.049 36.5254C102.049 38.9863 103.068 41.4648 105.283 42.6602L104.193 44.1016C102.717 43.3193 101.715 41.9219 101.152 40.252C100.59 42.0537 99.5879 43.5918 98.0938 44.4707L96.9512 42.9941C99.2012 41.6934 100.203 39.0391 100.203 36.5254V36.0332H97.4961V34.4512H100.203V32.2363H102.049V34.4512H104.703V36.0332H102.049V36.5254ZM110.873 31.6738V47.5645H109.01V31.6738H110.873ZM107.639 31.9727V46.791H105.793V39.3906H103.719V37.7734H105.793V31.9727H107.639Z" fill="#111827"/>
<path d="M393.258 38.0371V39.1973H390.727V47.4238H389.355V31.7969H390.727V38.0371H393.258ZM380.654 33.3438V42.291C382.939 42.2822 385.269 42.1064 387.844 41.5703L388.02 42.748C385.33 43.293 382.904 43.4512 380.531 43.4512H379.283V33.3438H380.654ZM406.283 31.7969V38.1602H408.814V39.3203H406.283V47.4238H404.912V31.7969H406.283ZM402.24 33.4844C402.24 37.9141 400.166 41.9395 395.068 44.4531L394.295 43.3633C398.338 41.3506 400.535 38.3447 400.852 34.6445H395.016V33.4844H402.24ZM422.666 31.7969V47.4238H421.277V31.7969H422.666ZM418.043 33.502C418.025 38.002 415.934 41.9746 410.695 44.4883L409.939 43.3633C414.167 41.3594 416.32 38.3623 416.637 34.627H410.66V33.502H418.043Z" fill="#EF403C"/>
<mask id="path-5-inside-1_241_275" fill="white">
<path d="M25 90H425V166H25V90Z"/>
</mask>
<path d="M425 165H25V167H425V165Z" fill="#D1D5DB" mask="url(#path-5-inside-1_241_275)"/>
<path d="M28.1575 96.8681H30.3391V94.6616H32.4151V102.294H26.038V94.6616H28.1575V96.8681ZM30.3391 100.529V98.6022H28.1575V100.529H30.3391ZM28.2196 106.62C28.2155 105.99 28.4372 105.445 28.8847 104.985C29.3363 104.526 29.9786 104.173 30.8115 103.929C31.6443 103.684 32.6243 103.562 33.7514 103.562C34.8743 103.562 35.8522 103.684 36.6851 103.929C37.518 104.173 38.1623 104.526 38.6181 104.985C39.0739 105.445 39.3018 105.99 39.3018 106.62C39.3018 107.242 39.0739 107.776 38.6181 108.224C38.1623 108.675 37.518 109.019 36.6851 109.256C35.8522 109.496 34.8743 109.616 33.7514 109.616C32.6243 109.616 31.6443 109.498 30.8115 109.262C29.9786 109.026 29.3363 108.682 28.8847 108.23C28.4372 107.778 28.2155 107.242 28.2196 106.62ZM30.4572 106.62C30.453 107.047 30.7348 107.368 31.3025 107.584C31.8702 107.799 32.6865 107.909 33.7514 107.913C34.808 107.909 35.6202 107.799 36.1878 107.584C36.7555 107.368 37.0414 107.047 37.0456 106.62C37.0414 106.185 36.7576 105.856 36.1941 105.632C35.6347 105.404 34.8349 105.29 33.7949 105.29C32.7217 105.29 31.895 105.402 31.3149 105.626C30.739 105.849 30.453 106.181 30.4572 106.62ZM33.6706 93.9157H35.7528V97.5083H37.0953V93.636H39.221V103.32H37.0953V99.3232H35.7528V102.903H33.6706V93.9157ZM49.6747 94.5746C49.6706 96.0787 49.4116 97.4006 48.8978 98.5401C48.3881 99.6796 47.578 100.662 46.4676 101.486C45.3612 102.307 43.9192 102.972 42.1416 103.481L41.3274 101.704C42.4461 101.401 43.393 101.041 44.1678 100.622C44.9427 100.204 45.5684 99.7272 46.0449 99.1927L41.6133 99.5097L41.2963 97.7693L46.9959 97.5767C47.1285 97.212 47.2217 96.8018 47.2756 96.346H42.1043V94.5746H49.6747ZM43.4593 106.465C43.4593 105.806 43.683 105.24 44.1305 104.768C44.578 104.291 45.2162 103.929 46.0449 103.68C46.8778 103.432 47.864 103.307 49.0035 103.307C50.114 103.307 51.0815 103.432 51.9061 103.68C52.7307 103.929 53.3667 104.291 53.8142 104.768C54.2618 105.24 54.4855 105.806 54.4855 106.465C54.4855 107.124 54.2618 107.687 53.8142 108.155C53.3667 108.628 52.7307 108.986 51.9061 109.231C51.0815 109.475 50.114 109.597 49.0035 109.597C47.864 109.597 46.8778 109.475 46.0449 109.231C45.212 108.986 44.5718 108.628 44.1243 108.155C43.681 107.687 43.4593 107.124 43.4593 106.465ZM45.7279 106.465C45.7238 106.929 45.9993 107.283 46.5546 107.528C47.1098 107.768 47.9261 107.888 49.0035 107.888C50.0518 107.888 50.8536 107.766 51.4089 107.521C51.9641 107.277 52.2438 106.925 52.2479 106.465C52.2438 106.001 51.9641 105.651 51.4089 105.414C50.8577 105.178 50.056 105.06 49.0035 105.06C47.9178 105.06 47.0995 105.178 46.5484 105.414C45.9972 105.651 45.7238 106.001 45.7279 106.465ZM52.1734 93.636H54.4234V103.065H52.1734V93.636ZM64.9765 101.275H71.1858V103.071H56.5919V101.275H62.7514V99.3481H64.9765V101.275ZM57.2196 98.509C58.1727 98.4178 59.0014 98.2521 59.7058 98.0117C60.4144 97.7714 60.9779 97.4834 61.3964 97.1478C61.8191 96.8122 62.1009 96.4537 62.2417 96.0725H57.9158V94.3011H69.8681V96.0725H65.5111C65.652 96.4537 65.9317 96.8122 66.3502 97.1478C66.7728 97.4834 67.3384 97.7714 68.047 98.0117C68.7555 98.2521 69.5905 98.4178 70.5518 98.509L69.7562 100.256C68.2811 100.11 67.038 99.779 66.027 99.261C65.02 98.7431 64.2991 98.0905 63.864 97.3032C63.4289 98.0946 62.712 98.7493 61.7134 99.2673C60.7148 99.7852 59.4779 100.115 58.0028 100.256L57.2196 98.509ZM58.2576 106.782C58.2576 106.181 58.4793 105.671 58.9227 105.253C59.3702 104.83 60.0125 104.509 60.8495 104.289C61.6906 104.066 62.6934 103.954 63.8578 103.954C65.0221 103.954 66.0207 104.064 66.8536 104.283C67.6865 104.503 68.3225 104.824 68.7618 105.247C69.2051 105.669 69.4289 106.181 69.433 106.782C69.4289 107.387 69.2051 107.901 68.7618 108.323C68.3225 108.75 67.6865 109.071 66.8536 109.287C66.0207 109.506 65.0221 109.616 63.8578 109.616C62.6934 109.616 61.6906 109.506 60.8495 109.287C60.0125 109.071 59.3702 108.75 58.9227 108.323C58.4793 107.901 58.2576 107.387 58.2576 106.782ZM60.5449 106.782C60.5408 107.175 60.8122 107.468 61.3591 107.658C61.9061 107.849 62.739 107.944 63.8578 107.944C64.9641 107.944 65.7928 107.849 66.3439 107.658C66.8992 107.468 67.1789 107.175 67.183 106.782C67.1789 106.405 66.8992 106.125 66.3439 105.943C65.7887 105.756 64.96 105.663 63.8578 105.663C62.739 105.663 61.9061 105.756 61.3591 105.943C60.8122 106.125 60.5408 106.405 60.5449 106.782ZM84.8405 97.4772H86.9911V99.3419H84.8405V102.99H82.5905V93.6112H84.8405V97.4772ZM72.1423 95.0283H75.7783V93.5055H78.0159V95.0283H81.6395V96.7873H72.1423V95.0283ZM72.9254 100.069C72.9254 99.5097 73.0912 99.0166 73.4227 98.5898C73.7542 98.163 74.2203 97.8315 74.8212 97.5953C75.422 97.3591 76.114 97.241 76.8971 97.241C77.6637 97.241 78.3453 97.3591 78.942 97.5953C79.5387 97.8315 80.0028 98.163 80.3343 98.5898C80.6658 99.0166 80.8315 99.5097 80.8315 100.069C80.8315 100.633 80.6658 101.128 80.3343 101.555C80.0028 101.981 79.5387 102.313 78.942 102.549C78.3453 102.781 77.6637 102.897 76.8971 102.897C76.1181 102.897 75.4261 102.781 74.8212 102.549C74.2203 102.317 73.7542 101.988 73.4227 101.561C73.0912 101.13 72.9254 100.633 72.9254 100.069ZM74.3674 103.599H76.5926V104.824H82.5905V103.599H84.8405V109.442H74.3674V103.599ZM75.1071 100.069C75.1071 100.45 75.2687 100.744 75.5919 100.952C75.9151 101.159 76.3502 101.262 76.8971 101.262C77.4441 101.262 77.8812 101.159 78.2086 100.952C78.5359 100.744 78.7017 100.45 78.7058 100.069C78.7058 99.8246 78.6292 99.6153 78.4759 99.4413C78.3267 99.2631 78.1174 99.1264 77.8481 99.0311C77.5829 98.9358 77.2742 98.8881 76.922 98.8881C76.3709 98.8881 75.9296 98.9938 75.5981 99.2051C75.2708 99.4123 75.1071 99.7003 75.1071 100.069ZM82.5905 107.677V106.546H76.5926V107.677H82.5905ZM102.299 103.624H87.6679V101.865H93.846V100.877H89.5014V94.0028H100.59V95.7369H91.739V96.6257H100.217V98.2541H91.739V99.1678H100.727V100.877H96.096V101.865H102.299V103.624ZM89.3709 106.981C89.3709 106.421 89.5884 105.945 90.0235 105.551C90.4628 105.157 91.1009 104.859 91.9379 104.656C92.7749 104.453 93.786 104.352 94.971 104.352C96.1437 104.352 97.1465 104.453 97.9793 104.656C98.8122 104.859 99.4462 105.157 99.8813 105.551C100.32 105.945 100.542 106.421 100.546 106.981C100.542 107.552 100.32 108.035 99.8813 108.429C99.4462 108.823 98.8122 109.119 97.9793 109.318C97.1506 109.521 96.1478 109.62 94.971 109.616C93.7777 109.62 92.7625 109.521 91.9255 109.318C91.0926 109.119 90.4586 108.823 90.0235 108.429C89.5884 108.035 89.3709 107.552 89.3709 106.981ZM91.6147 106.981C91.6105 107.316 91.8757 107.563 92.4103 107.72C92.9448 107.878 93.7756 107.956 94.9027 107.956C96.0629 107.956 96.9165 107.88 97.4634 107.727C98.0145 107.569 98.2922 107.32 98.2963 106.981C98.2922 106.645 98.0187 106.401 97.4759 106.247C96.9372 106.09 96.1023 106.011 94.971 106.011C93.8191 106.011 92.9697 106.09 92.4227 106.247C91.8799 106.401 91.6105 106.645 91.6147 106.981ZM112.355 96.4827H109.16C109.164 97.125 109.299 97.7362 109.564 98.3163C109.834 98.8964 110.244 99.4123 110.795 99.8639C111.346 100.316 112.032 100.664 112.852 100.908L111.789 102.661C110.923 102.4 110.18 102.015 109.558 101.505C108.937 100.995 108.443 100.388 108.079 99.6837C107.714 100.508 107.202 101.223 106.544 101.828C105.885 102.433 105.089 102.889 104.157 103.195L103.019 101.424C103.869 101.155 104.582 100.765 105.158 100.256C105.738 99.7417 106.171 99.1595 106.457 98.509C106.742 97.8584 106.89 97.183 106.898 96.4827H103.629V94.6927H112.355V96.4827ZM105.226 106.508C105.226 105.866 105.445 105.313 105.885 104.849C106.328 104.385 106.96 104.032 107.78 103.792C108.605 103.548 109.579 103.425 110.702 103.425C111.812 103.425 112.771 103.548 113.579 103.792C114.392 104.032 115.015 104.385 115.45 104.849C115.885 105.313 116.103 105.866 116.103 106.508C116.103 107.155 115.885 107.71 115.45 108.174C115.015 108.642 114.392 108.999 113.579 109.243C112.767 109.492 111.808 109.616 110.702 109.616C109.579 109.616 108.605 109.492 107.78 109.243C106.96 108.999 106.328 108.642 105.885 108.174C105.445 107.71 105.226 107.155 105.226 106.508ZM107.47 106.508C107.466 106.96 107.735 107.3 108.278 107.528C108.825 107.756 109.618 107.869 110.658 107.869C111.723 107.869 112.527 107.758 113.07 107.534C113.617 107.306 113.89 106.964 113.89 106.508C113.89 106.065 113.623 105.731 113.088 105.508C112.558 105.284 111.777 105.172 110.745 105.172C109.672 105.172 108.856 105.284 108.296 105.508C107.741 105.727 107.466 106.061 107.47 106.508ZM113.704 93.6112H115.954V97.3343H118.104V99.1616H115.954V103.115H113.704V93.6112ZM125.283 103.798H119.483V101.735H125.283V103.798ZM141.536 107.758H126.904V105.936H133.076V102.972H128.452V94.6367H130.702V97.1291H137.676V94.6367H139.913V102.972H135.295V105.936H141.536V107.758ZM137.676 101.182V98.9068H130.702V101.182H137.676ZM157.055 103.624H142.424V101.865H148.602V100.877H144.257V94.0028H155.346V95.7369H146.495V96.6257H154.973V98.2541H146.495V99.1678H155.482V100.877H150.852V101.865H157.055V103.624ZM144.127 106.981C144.127 106.421 144.344 105.945 144.779 105.551C145.219 105.157 145.857 104.859 146.694 104.656C147.531 104.453 148.542 104.352 149.727 104.352C150.9 104.352 151.902 104.453 152.735 104.656C153.568 104.859 154.202 105.157 154.637 105.551C155.076 105.945 155.298 106.421 155.302 106.981C155.298 107.552 155.076 108.035 154.637 108.429C154.202 108.823 153.568 109.119 152.735 109.318C151.906 109.521 150.904 109.62 149.727 109.616C148.534 109.62 147.518 109.521 146.681 109.318C145.848 109.119 145.214 108.823 144.779 108.429C144.344 108.035 144.127 107.552 144.127 106.981ZM146.371 106.981C146.366 107.316 146.632 107.563 147.166 107.72C147.701 107.878 148.531 107.956 149.659 107.956C150.819 107.956 151.672 107.88 152.219 107.727C152.77 107.569 153.048 107.32 153.052 106.981C153.048 106.645 152.775 106.401 152.232 106.247C151.693 106.09 150.858 106.011 149.727 106.011C148.575 106.011 147.726 106.09 147.179 106.247C146.636 106.401 146.366 106.645 146.371 106.981ZM171.878 109.622H169.734V93.6112H171.878V109.622ZM158.154 100.541C158.154 99.3646 158.295 98.3412 158.577 97.471C158.863 96.6008 159.267 95.9316 159.789 95.4634C160.315 94.9952 160.929 94.761 161.629 94.761C162.296 94.761 162.886 94.9703 163.4 95.3888C163.914 95.8032 164.32 96.3957 164.618 97.1664H166.496V93.8598H168.609V108.883H166.496V103.929H164.625C164.322 104.712 163.914 105.315 163.4 105.738C162.891 106.156 162.3 106.363 161.629 106.359C160.929 106.359 160.315 106.125 159.789 105.657C159.267 105.189 158.863 104.517 158.577 103.643C158.295 102.765 158.154 101.731 158.154 100.541ZM160.187 100.498C160.187 101.737 160.309 102.667 160.554 103.289C160.798 103.906 161.156 104.213 161.629 104.209C162.105 104.213 162.472 103.906 162.729 103.289C162.99 102.671 163.123 101.756 163.127 100.541C163.123 99.3398 162.99 98.4282 162.729 97.8066C162.468 97.1851 162.101 96.8764 161.629 96.8805C161.161 96.8764 160.802 97.1789 160.554 97.788C160.309 98.3971 160.187 99.3004 160.187 100.498ZM165.06 98.9627C165.13 99.4682 165.165 99.9945 165.165 100.541C165.165 101.068 165.132 101.59 165.066 102.108H166.496V98.9627H165.06ZM186.478 95.625C186.478 96.4786 186.455 97.2327 186.409 97.8874C186.368 98.5421 186.262 99.2756 186.092 100.088H188.206V101.896H173.574V100.088H183.83C183.987 99.3709 184.093 98.7058 184.147 98.0925C184.201 97.4793 184.232 96.8287 184.24 96.1409H175.364V94.3508H186.478V95.625ZM175.302 103.593H186.415V109.442H175.302V103.593ZM184.184 107.646V105.346H177.502V107.646H184.184Z" fill="#111827"/>
<path d="M30.0608 132H28.6464V122.155H28.5801L25.8287 123.978V122.564L28.6464 120.685H30.0608V132ZM33.0653 130.972L36.9217 126.906C37.43 126.365 37.8167 125.93 38.0819 125.602C38.3508 125.271 38.5552 124.952 38.6952 124.646C38.8351 124.337 38.907 124.015 38.9107 123.68C38.907 123.297 38.8057 122.959 38.6068 122.669C38.4116 122.378 38.1427 122.153 37.8002 121.994C37.4613 121.836 37.0801 121.757 36.6565 121.757C36.2145 121.757 35.8259 121.845 35.4908 122.022C35.1593 122.199 34.9033 122.448 34.7228 122.768C34.546 123.088 34.4576 123.459 34.4576 123.878H33.1206C33.1169 123.223 33.2698 122.643 33.5792 122.138C33.8922 121.63 34.3213 121.236 34.8665 120.956C35.4116 120.672 36.023 120.53 36.7007 120.53C37.3711 120.53 37.9733 120.67 38.5073 120.95C39.0451 121.227 39.465 121.604 39.767 122.083C40.069 122.562 40.2219 123.094 40.2256 123.68C40.2219 124.11 40.1409 124.523 39.9825 124.917C39.8278 125.308 39.5644 125.742 39.1924 126.221C38.8241 126.7 38.2992 127.289 37.6178 127.989L35.0322 130.663V130.751H40.4245V132H33.0764L33.0653 130.972ZM46.3786 132.155C45.6346 132.155 44.9679 132.029 44.3786 131.779C43.7893 131.529 43.3234 131.177 42.9808 130.724C42.642 130.271 42.4597 129.75 42.4339 129.16H43.8593C43.8851 129.51 44.0103 129.818 44.235 130.083C44.4597 130.344 44.7562 130.547 45.1245 130.691C45.4965 130.834 45.9072 130.906 46.3565 130.906C46.8501 130.906 47.2921 130.823 47.6825 130.657C48.0729 130.488 48.3786 130.252 48.5996 129.95C48.8206 129.648 48.9311 129.304 48.9311 128.917C48.9311 128.505 48.8225 128.14 48.6051 127.823C48.3915 127.506 48.0784 127.26 47.6659 127.083C47.2534 126.906 46.758 126.818 46.1797 126.818H45.2626V125.58H46.1797C46.6365 125.58 47.0416 125.499 47.3952 125.337C47.7525 125.175 48.0287 124.948 48.2239 124.657C48.4228 124.363 48.5223 124.022 48.5223 123.635C48.5223 123.263 48.4357 122.936 48.2626 122.652C48.0895 122.368 47.8427 122.149 47.5223 121.994C47.2018 121.836 46.828 121.757 46.4007 121.757C45.9956 121.757 45.6144 121.829 45.2571 121.972C44.9035 122.116 44.6162 122.322 44.3952 122.591C44.1742 122.856 44.0545 123.168 44.0361 123.525H42.677C42.6991 122.943 42.8795 122.425 43.2184 121.972C43.5573 121.516 44.0085 121.162 44.572 120.912C45.1355 120.657 45.7525 120.53 46.4228 120.53C47.119 120.53 47.7285 120.669 48.2516 120.945C48.7783 121.221 49.1816 121.591 49.4615 122.055C49.7451 122.519 49.8851 123.024 49.8814 123.569C49.8851 123.989 49.8096 124.372 49.6549 124.718C49.5002 125.064 49.2773 125.357 48.9864 125.597C48.6954 125.836 48.3528 126.011 47.9587 126.122V126.21C48.4449 126.284 48.8648 126.444 49.2184 126.691C49.5757 126.934 49.8482 127.249 50.0361 127.635C50.2239 128.018 50.316 128.449 50.3123 128.928C50.316 129.536 50.1466 130.087 49.804 130.58C49.4652 131.07 48.9937 131.455 48.3897 131.735C47.7893 132.015 47.119 132.155 46.3786 132.155ZM52.0658 128.53L57.1597 120.685H58.8835V128.453H60.4746V129.691H58.8835V132H57.5464V129.691H52.0658V128.53ZM57.5464 128.453V122.464H57.4138L53.5796 128.365V128.453H57.5464ZM66.017 132.155C65.343 132.155 64.7316 132.026 64.1828 131.768C63.6339 131.51 63.1956 131.155 62.8678 130.702C62.5437 130.245 62.3669 129.731 62.3374 129.16H63.7076C63.7408 129.492 63.8623 129.792 64.0723 130.061C64.2859 130.326 64.5621 130.536 64.901 130.691C65.2435 130.842 65.6155 130.917 66.017 130.917C66.4995 130.917 66.9323 130.808 67.3153 130.591C67.7021 130.374 68.0041 130.076 68.2214 129.696C68.4387 129.317 68.5474 128.891 68.5474 128.42C68.5474 127.937 68.4332 127.503 68.2049 127.116C67.9802 126.726 67.6671 126.42 67.2656 126.199C66.8678 125.974 66.4185 125.86 65.9176 125.856C64.9084 125.845 64.2049 126.184 63.8071 126.873H62.4479L63.2435 120.685H69.3761V121.934H64.4148L63.9949 125.249H64.1165C64.3706 125.05 64.6781 124.891 65.0391 124.773C65.4037 124.656 65.7813 124.597 66.1717 124.597C66.8826 124.597 67.5216 124.761 68.0888 125.088C68.6597 125.413 69.1072 125.864 69.4314 126.442C69.7555 127.017 69.9176 127.665 69.9176 128.387C69.9176 129.105 69.75 129.751 69.4148 130.326C69.0796 130.897 68.6155 131.344 68.0225 131.669C67.4295 131.993 66.761 132.155 66.017 132.155ZM75.8512 132.155C75.1219 132.155 74.4442 131.991 73.818 131.663C73.1956 131.331 72.6836 130.766 72.2821 129.967C71.8843 129.164 71.6854 128.099 71.6854 126.773C71.6854 125.455 71.8585 124.328 72.2048 123.392C72.551 122.457 73.0464 121.746 73.691 121.26C74.3355 120.773 75.0998 120.53 75.9838 120.53C76.6357 120.53 77.2213 120.657 77.7407 120.912C78.2637 121.162 78.6891 121.514 79.0169 121.967C79.3447 122.416 79.5565 122.936 79.6523 123.525H78.26C78.1274 123.002 77.8659 122.58 77.4755 122.26C77.0851 121.939 76.5878 121.779 75.9838 121.779C75.3687 121.779 74.8383 121.95 74.3926 122.293C73.9469 122.632 73.6044 123.125 73.365 123.773C73.1293 124.422 73.0114 125.197 73.0114 126.099H73.155C73.4828 125.621 73.8972 125.25 74.3981 124.989C74.9027 124.727 75.4571 124.597 76.0611 124.597C76.7278 124.597 77.3429 124.759 77.9064 125.083C78.47 125.403 78.9175 125.849 79.249 126.42C79.5841 126.991 79.7517 127.632 79.7517 128.343C79.7517 129.05 79.5897 129.694 79.2655 130.276C78.9414 130.855 78.4829 131.313 77.8898 131.652C77.3005 131.987 76.621 132.155 75.8512 132.155ZM73.2103 128.376C73.2103 128.818 73.3226 129.234 73.5473 129.624C73.772 130.015 74.0814 130.328 74.4755 130.564C74.8733 130.799 75.3171 130.917 75.807 130.917C76.2858 130.917 76.7223 130.803 77.1164 130.575C77.5105 130.346 77.8199 130.037 78.0445 129.646C78.2729 129.252 78.3889 128.821 78.3926 128.354C78.3889 127.897 78.2766 127.477 78.0556 127.094C77.8383 126.707 77.5363 126.401 77.1495 126.177C76.7628 125.948 76.33 125.834 75.8512 125.834C75.3687 125.834 74.9248 125.952 74.5197 126.188C74.1182 126.424 73.7996 126.737 73.5639 127.127C73.3318 127.517 73.214 127.934 73.2103 128.376ZM86.5698 126.961H81.6084V125.724H86.5698V126.961ZM93.7952 122.022V121.934H87.8173V120.685H95.2538V122L90.0825 132H88.6019L93.7952 122.022ZM100.648 132.155C99.8632 132.155 99.1652 132.02 98.5538 131.751C97.9424 131.483 97.4672 131.109 97.1284 130.63C96.7895 130.147 96.6219 129.602 96.6256 128.994C96.6219 128.519 96.7214 128.076 96.9239 127.663C97.1265 127.247 97.4028 126.904 97.7527 126.635C98.1063 126.363 98.4967 126.192 98.9239 126.122V126.066C98.5556 125.978 98.2297 125.812 97.946 125.569C97.6624 125.326 97.4433 125.028 97.2886 124.674C97.1339 124.32 97.0565 123.941 97.0565 123.536C97.0565 122.965 97.2112 122.451 97.5206 121.994C97.83 121.538 98.2573 121.18 98.8024 120.923C99.3512 120.661 99.9663 120.53 100.648 120.53C101.325 120.53 101.935 120.661 102.476 120.923C103.022 121.18 103.449 121.538 103.758 121.994C104.068 122.451 104.224 122.965 104.228 123.536C104.224 123.941 104.143 124.32 103.985 124.674C103.83 125.028 103.611 125.326 103.327 125.569C103.047 125.812 102.725 125.978 102.36 126.066V126.122C102.784 126.192 103.171 126.363 103.521 126.635C103.874 126.904 104.152 127.247 104.355 127.663C104.561 128.076 104.666 128.519 104.67 128.994C104.666 129.602 104.493 130.147 104.15 130.63C103.808 131.109 103.331 131.483 102.72 131.751C102.112 132.02 101.421 132.155 100.648 132.155ZM98.0289 128.917C98.0216 129.315 98.1228 129.665 98.3328 129.967C98.5427 130.265 98.8466 130.499 99.2444 130.669C99.6422 130.834 100.11 130.917 100.648 130.917C101.178 130.917 101.64 130.834 102.034 130.669C102.429 130.499 102.732 130.265 102.946 129.967C103.16 129.665 103.266 129.315 103.266 128.917C103.266 128.505 103.152 128.134 102.924 127.807C102.699 127.479 102.388 127.221 101.99 127.033C101.592 126.845 101.145 126.751 100.648 126.751C100.147 126.751 99.6956 126.845 99.2941 127.033C98.8926 127.221 98.5796 127.481 98.3549 127.812C98.1302 128.14 98.0216 128.508 98.0289 128.917ZM98.4267 123.635C98.4267 124.015 98.5206 124.35 98.7085 124.641C98.8963 124.932 99.1578 125.158 99.493 125.32C99.8319 125.479 100.217 125.558 100.648 125.558C101.071 125.558 101.451 125.479 101.786 125.32C102.121 125.158 102.383 124.932 102.57 124.641C102.762 124.346 102.858 124.011 102.858 123.635C102.858 123.263 102.764 122.936 102.576 122.652C102.392 122.365 102.132 122.142 101.797 121.983C101.465 121.825 101.082 121.746 100.648 121.746C100.206 121.746 99.8153 121.825 99.4764 121.983C99.1413 122.142 98.8816 122.365 98.6974 122.652C98.5169 122.936 98.4267 123.263 98.4267 123.635ZM111.445 126.961H106.483V125.724H111.445V126.961ZM117.206 120.53C117.932 120.53 118.606 120.696 119.229 121.028C119.851 121.359 120.361 121.924 120.759 122.724C121.16 123.519 121.361 124.575 121.361 125.89C121.361 127.215 121.188 128.348 120.842 129.287C120.496 130.223 120 130.936 119.356 131.425C118.711 131.912 117.947 132.155 117.063 132.155C116.411 132.155 115.823 132.029 115.3 131.779C114.777 131.529 114.35 131.177 114.019 130.724C113.691 130.267 113.479 129.738 113.383 129.138H114.775C114.908 129.672 115.17 130.101 115.56 130.425C115.954 130.746 116.455 130.906 117.063 130.906C117.674 130.906 118.203 130.735 118.648 130.392C119.098 130.05 119.442 129.554 119.682 128.906C119.921 128.254 120.043 127.473 120.046 126.564H119.891C119.564 127.039 119.147 127.409 118.643 127.674C118.142 127.936 117.593 128.066 116.996 128.066C116.326 128.066 115.707 127.906 115.14 127.586C114.577 127.262 114.127 126.814 113.792 126.243C113.461 125.672 113.295 125.031 113.295 124.32C113.295 123.624 113.455 122.987 113.775 122.409C114.1 121.831 114.558 121.374 115.151 121.039C115.748 120.7 116.433 120.53 117.206 120.53ZM114.665 124.309C114.665 124.773 114.774 125.199 114.991 125.586C115.212 125.969 115.516 126.273 115.903 126.497C116.289 126.718 116.724 126.829 117.206 126.829C117.685 126.829 118.124 126.711 118.521 126.475C118.923 126.236 119.24 125.921 119.472 125.53C119.707 125.14 119.825 124.726 119.825 124.287C119.825 123.853 119.713 123.442 119.488 123.055C119.263 122.669 118.954 122.357 118.56 122.122C118.17 121.886 117.733 121.768 117.251 121.768C116.768 121.768 116.328 121.882 115.93 122.11C115.536 122.339 115.225 122.648 114.996 123.039C114.772 123.425 114.661 123.849 114.665 124.309ZM126.997 132.155C126.164 132.155 125.452 131.928 124.859 131.475C124.269 131.018 123.818 130.355 123.505 129.486C123.196 128.617 123.041 127.569 123.041 126.343C123.041 125.127 123.198 124.085 123.511 123.215C123.824 122.343 124.277 121.678 124.87 121.221C125.463 120.761 126.172 120.53 126.997 120.53C127.822 120.53 128.531 120.761 129.124 121.221C129.717 121.678 130.17 122.343 130.483 123.215C130.796 124.085 130.953 125.127 130.953 126.343C130.953 127.569 130.796 128.617 130.483 129.486C130.174 130.355 129.722 131.018 129.129 131.475C128.54 131.928 127.829 132.155 126.997 132.155ZM124.411 126.343C124.411 127.311 124.512 128.138 124.715 128.823C124.918 129.505 125.212 130.022 125.599 130.376C125.986 130.729 126.452 130.906 126.997 130.906C127.542 130.906 128.008 130.729 128.395 130.376C128.781 130.022 129.076 129.505 129.279 128.823C129.481 128.138 129.582 127.311 129.582 126.343C129.582 125.374 129.479 124.547 129.273 123.862C129.07 123.173 128.776 122.65 128.389 122.293C128.002 121.936 127.538 121.757 126.997 121.757C126.455 121.757 125.991 121.936 125.605 122.293C125.218 122.65 124.921 123.173 124.715 123.862C124.512 124.547 124.411 125.374 124.411 126.343ZM136.528 132.155C135.696 132.155 134.983 131.928 134.39 131.475C133.801 131.018 133.349 130.355 133.036 129.486C132.727 128.617 132.572 127.569 132.572 126.343C132.572 125.127 132.729 124.085 133.042 123.215C133.355 122.343 133.808 121.678 134.401 121.221C134.994 120.761 135.703 120.53 136.528 120.53C137.353 120.53 138.062 120.761 138.655 121.221C139.248 121.678 139.701 122.343 140.014 123.215C140.327 124.085 140.484 125.127 140.484 126.343C140.484 127.569 140.327 128.617 140.014 129.486C139.705 130.355 139.254 131.018 138.661 131.475C138.071 131.928 137.36 132.155 136.528 132.155ZM133.942 126.343C133.942 127.311 134.044 128.138 134.246 128.823C134.449 129.505 134.744 130.022 135.13 130.376C135.517 130.729 135.983 130.906 136.528 130.906C137.073 130.906 137.539 130.729 137.926 130.376C138.313 130.022 138.607 129.505 138.81 128.823C139.012 128.138 139.114 127.311 139.114 126.343C139.114 125.374 139.011 124.547 138.804 123.862C138.602 123.173 138.307 122.65 137.92 122.293C137.534 121.936 137.069 121.757 136.528 121.757C135.987 121.757 135.523 121.936 135.136 122.293C134.749 122.65 134.453 123.173 134.246 123.862C134.044 124.547 133.942 125.374 133.942 126.343ZM146.059 132.155C145.227 132.155 144.514 131.928 143.921 131.475C143.332 131.018 142.881 130.355 142.568 129.486C142.258 128.617 142.104 127.569 142.104 126.343C142.104 125.127 142.26 124.085 142.573 123.215C142.886 122.343 143.339 121.678 143.932 121.221C144.525 120.761 145.234 120.53 146.059 120.53C146.884 120.53 147.593 120.761 148.186 121.221C148.779 121.678 149.232 122.343 149.545 123.215C149.859 124.085 150.015 125.127 150.015 126.343C150.015 127.569 149.859 128.617 149.545 129.486C149.236 130.355 148.785 131.018 148.192 131.475C147.603 131.928 146.892 132.155 146.059 132.155ZM143.474 126.343C143.474 127.311 143.575 128.138 143.778 128.823C143.98 129.505 144.275 130.022 144.662 130.376C145.048 130.729 145.514 130.906 146.059 130.906C146.604 130.906 147.07 130.729 147.457 130.376C147.844 130.022 148.138 129.505 148.341 128.823C148.544 128.138 148.645 127.311 148.645 126.343C148.645 125.374 148.542 124.547 148.336 123.862C148.133 123.173 147.838 122.65 147.452 122.293C147.065 121.936 146.601 121.757 146.059 121.757C145.518 121.757 145.054 121.936 144.667 122.293C144.28 122.65 143.984 123.173 143.778 123.862C143.575 124.547 143.474 125.374 143.474 126.343ZM155.591 132.155C154.758 132.155 154.045 131.928 153.452 131.475C152.863 131.018 152.412 130.355 152.099 129.486C151.789 128.617 151.635 127.569 151.635 126.343C151.635 125.127 151.791 124.085 152.104 123.215C152.417 122.343 152.87 121.678 153.463 121.221C154.056 120.761 154.766 120.53 155.591 120.53C156.416 120.53 157.125 120.761 157.718 121.221C158.311 121.678 158.764 122.343 159.077 123.215C159.39 124.085 159.546 125.127 159.546 126.343C159.546 127.569 159.39 128.617 159.077 129.486C158.767 130.355 158.316 131.018 157.723 131.475C157.134 131.928 156.423 132.155 155.591 132.155ZM153.005 126.343C153.005 127.311 153.106 128.138 153.309 128.823C153.511 129.505 153.806 130.022 154.193 130.376C154.58 130.729 155.045 130.906 155.591 130.906C156.136 130.906 156.602 130.729 156.988 130.376C157.375 130.022 157.67 129.505 157.872 128.823C158.075 128.138 158.176 127.311 158.176 126.343C158.176 125.374 158.073 124.547 157.867 123.862C157.664 123.173 157.37 122.65 156.983 122.293C156.596 121.936 156.132 121.757 155.591 121.757C155.049 121.757 154.585 121.936 154.198 122.293C153.812 122.65 153.515 123.173 153.309 123.862C153.106 124.547 153.005 125.374 153.005 126.343ZM165.122 132.155C164.289 132.155 163.577 131.928 162.984 131.475C162.394 131.018 161.943 130.355 161.63 129.486C161.321 128.617 161.166 127.569 161.166 126.343C161.166 125.127 161.323 124.085 161.636 123.215C161.949 122.343 162.402 121.678 162.995 121.221C163.588 120.761 164.297 120.53 165.122 120.53C165.947 120.53 166.656 120.761 167.249 121.221C167.842 121.678 168.295 122.343 168.608 123.215C168.921 124.085 169.078 125.127 169.078 126.343C169.078 127.569 168.921 128.617 168.608 129.486C168.299 130.355 167.847 131.018 167.254 131.475C166.665 131.928 165.954 132.155 165.122 132.155ZM162.536 126.343C162.536 127.311 162.637 128.138 162.84 128.823C163.043 129.505 163.337 130.022 163.724 130.376C164.111 130.729 164.577 130.906 165.122 130.906C165.667 130.906 166.133 130.729 166.52 130.376C166.906 130.022 167.201 129.505 167.404 128.823C167.606 128.138 167.707 127.311 167.707 126.343C167.707 125.374 167.604 124.547 167.398 123.862C167.195 123.173 166.901 122.65 166.514 122.293C166.127 121.936 165.663 121.757 165.122 121.757C164.58 121.757 164.116 121.936 163.73 122.293C163.343 122.65 163.046 123.173 162.84 123.862C162.637 124.547 162.536 125.374 162.536 126.343Z" fill="#111827"/>
<mask id="mask1_241_275" style="mask-type:alpha" maskUnits="userSpaceOnUse" x="405" y="103" width="20" height="20">
<rect x="405" y="103" width="20" height="20" fill="#D9D9D9"/>
</mask>
<g mask="url(#mask1_241_275)">
<path d="M414.996 119C414.582 119 414.229 118.853 413.938 118.558C413.646 118.264 413.5 117.909 413.5 117.496C413.5 117.082 413.647 116.729 413.942 116.438C414.236 116.146 414.591 116 415.004 116C415.418 116 415.771 116.147 416.062 116.442C416.354 116.736 416.5 117.091 416.5 117.504C416.5 117.918 416.353 118.271 416.058 118.562C415.764 118.854 415.409 119 414.996 119ZM414.996 114.5C414.582 114.5 414.229 114.353 413.938 114.058C413.646 113.764 413.5 113.409 413.5 112.996C413.5 112.582 413.647 112.229 413.942 111.938C414.236 111.646 414.591 111.5 415.004 111.5C415.418 111.5 415.771 111.647 416.062 111.942C416.354 112.236 416.5 112.591 416.5 113.004C416.5 113.418 416.353 113.771 416.058 114.062C415.764 114.354 415.409 114.5 414.996 114.5ZM414.996 110C414.582 110 414.229 109.853 413.938 109.558C413.646 109.264 413.5 108.909 413.5 108.496C413.5 108.082 413.647 107.729 413.942 107.438C414.236 107.146 414.591 107 415.004 107C415.418 107 415.771 107.147 416.062 107.442C416.354 107.736 416.5 108.091 416.5 108.504C416.5 108.918 416.353 109.271 416.058 109.562C415.764 109.854 415.409 110 414.996 110Z" fill="#9CA3AF"/>
</g>
<path d="M187.445 206.547V232H182.84V211.012H182.699L176.758 214.809V210.625L183.051 206.547H187.445ZM203.02 232.352C196.902 232.352 193.246 227.605 193.246 219.273C193.246 210.977 196.902 206.195 203.02 206.195C209.102 206.195 212.793 210.977 212.793 219.273C212.793 227.605 209.137 232.352 203.02 232.352ZM203.02 228.52C206.219 228.52 208.188 225.391 208.188 219.273C208.188 213.191 206.184 209.992 203.02 209.992C199.855 209.992 197.852 213.191 197.852 219.273C197.852 225.391 199.82 228.52 203.02 228.52ZM226.012 232.352C219.895 232.352 216.238 227.605 216.238 219.273C216.238 210.977 219.895 206.195 226.012 206.195C232.094 206.195 235.785 210.977 235.785 219.273C235.785 227.605 232.129 232.352 226.012 232.352ZM226.012 228.52C229.211 228.52 231.18 225.391 231.18 219.273C231.18 213.191 229.176 209.992 226.012 209.992C222.848 209.992 220.844 213.191 220.844 219.273C220.844 225.391 222.812 228.52 226.012 228.52Z" fill="#111827"/>
<path d="M270.035 203.629V227.359H267.258V224.125H260.789V222.121H267.258V203.629H270.035ZM244.09 218.113C249.908 218.078 257.748 218.025 264.445 217.199L264.621 219.203C261.844 219.643 258.908 219.924 256.043 220.1V226.27H253.266V220.24C250.102 220.363 247.096 220.363 244.477 220.363L244.09 218.113ZM246.621 210.344C246.604 207.057 249.732 204.895 254.355 204.895C258.943 204.895 262.072 207.057 262.09 210.344C262.072 213.684 258.943 215.758 254.355 215.758C249.732 215.758 246.604 213.684 246.621 210.344ZM248.59 234.18V225.039H251.367V231.859H270.809V234.18H248.59ZM249.258 210.344C249.223 212.383 251.297 213.701 254.355 213.719C257.326 213.701 259.436 212.383 259.453 210.344C259.436 208.34 257.326 206.969 254.355 207.004C251.297 206.969 249.223 208.34 249.258 210.344Z" fill="#111827"/>
<path d="M208.497 248.89C209.182 248.893 209.797 249.026 210.343 249.287C210.891 249.549 211.32 249.913 211.63 250.381C211.939 250.845 212.096 251.376 212.099 251.972C212.096 252.569 211.939 253.099 211.63 253.564C211.32 254.028 210.891 254.389 210.343 254.646C209.797 254.904 209.182 255.033 208.497 255.033C207.805 255.033 207.184 254.904 206.635 254.646C206.087 254.389 205.657 254.028 205.348 253.564C205.039 253.099 204.884 252.569 204.884 251.972C204.884 251.376 205.039 250.845 205.348 250.381C205.657 249.913 206.087 249.549 206.635 249.287C207.184 249.026 207.805 248.893 208.497 248.89ZM206.088 251.972C206.085 252.37 206.186 252.726 206.392 253.039C206.602 253.352 206.89 253.595 207.254 253.768C207.622 253.941 208.037 254.028 208.497 254.028C208.954 254.028 209.365 253.941 209.729 253.768C210.098 253.595 210.385 253.352 210.591 253.039C210.801 252.726 210.906 252.37 210.906 251.972C210.906 251.578 210.801 251.225 210.591 250.912C210.385 250.599 210.098 250.355 209.729 250.182C209.365 250.009 208.954 249.924 208.497 249.928C208.037 249.924 207.622 250.009 207.254 250.182C206.89 250.355 206.602 250.599 206.392 250.912C206.186 251.225 206.085 251.578 206.088 251.972ZM206.994 256.182H216.033V259.53H208.232V261.088H216.53V262.083H207.039V258.602H214.818V257.177H206.994V256.182ZM214.807 248.381H216.033V255.508H214.807V248.381ZM220.193 251.475H223.287V249.265H224.436V255.74H219.033V249.265H220.193V251.475ZM223.287 254.724V252.448H220.193V254.724H223.287ZM220.823 257.564H230.182V262.271H228.977V258.58H220.823V257.564ZM226.016 248.657H227.165V252.006H229.021V248.392H230.182V256.724H229.021V253.022H227.165V256.635H226.016V248.657ZM243.667 258.945H242.43V257.497H239.568V256.602H242.43V248.392H243.667V258.945ZM232.142 254.823C233.977 254.816 235.614 254.788 237.054 254.74C238.498 254.689 239.874 254.58 241.181 254.414L241.27 255.309C240.117 255.494 238.842 255.628 237.446 255.713V258.459H236.22V255.773C235.273 255.81 234.194 255.829 232.982 255.829H232.308L232.142 254.823ZM233.258 251.376C233.258 250.897 233.402 250.475 233.689 250.11C233.977 249.742 234.382 249.459 234.905 249.26C235.428 249.057 236.028 248.956 236.706 248.956C237.376 248.956 237.971 249.057 238.491 249.26C239.01 249.459 239.413 249.742 239.7 250.11C239.991 250.475 240.139 250.897 240.142 251.376C240.139 251.862 239.991 252.287 239.7 252.652C239.413 253.013 239.01 253.293 238.491 253.492C237.975 253.687 237.38 253.785 236.706 253.785C236.025 253.785 235.422 253.687 234.899 253.492C234.38 253.297 233.977 253.017 233.689 252.652C233.402 252.287 233.258 251.862 233.258 251.376ZM234.142 257.906H235.369V260.945H244.01V261.961H234.142V257.906ZM234.43 251.376C234.426 251.674 234.518 251.936 234.706 252.16C234.898 252.385 235.166 252.56 235.513 252.685C235.859 252.807 236.257 252.867 236.706 252.867C237.141 252.867 237.529 252.807 237.872 252.685C238.214 252.56 238.481 252.385 238.673 252.16C238.868 251.936 238.967 251.674 238.971 251.376C238.967 251.081 238.868 250.821 238.673 250.597C238.481 250.368 238.214 250.192 237.872 250.066C237.529 249.941 237.141 249.88 236.706 249.884C236.257 249.88 235.859 249.941 235.513 250.066C235.166 250.192 234.898 250.368 234.706 250.597C234.518 250.821 234.426 251.081 234.43 251.376Z" fill="#9CA3AF"/>
<path d="M25 308C25 302.477 29.4772 298 35 298H415C420.523 298 425 302.477 425 308V715H25V308Z" fill="white"/>
<path d="M25.5 303C25.5 300.515 27.5147 298.5 30 298.5H104.5V343.5H30C27.5147 343.5 25.5 341.485 25.5 339V303Z" stroke="#D1D5DB"/>
<path d="M63.0781 314.391V324.578H61.8438V319.25H58.9844V318.234H61.8438V314.391H63.0781ZM51.625 321.797C53.6719 321.078 55.1562 319.242 55.1562 317.25V316.531H52.0156V315.516H59.5V316.531H56.3906V317.25C56.3906 319.047 57.7812 320.789 59.8125 321.484L59.1719 322.469C57.6094 321.898 56.3984 320.734 55.7969 319.297C55.1953 320.906 53.9141 322.18 52.2656 322.797L51.625 321.797ZM54.1562 327.969V323.656H55.3906V326.938H63.4688V327.969H54.1562ZM68.7188 315.25C70.5547 315.258 71.8984 316.602 71.9062 318.531C71.8984 320.469 70.5547 321.781 68.7188 321.781C66.8594 321.781 65.5391 320.469 65.5469 318.531C65.5391 316.602 66.8594 315.258 68.7188 315.25ZM66.6562 318.531C66.6406 319.82 67.5234 320.758 68.7188 320.75C69.8984 320.758 70.7734 319.82 70.7812 318.531C70.7734 317.242 69.8984 316.312 68.7188 316.312C67.5234 316.312 66.6406 317.242 66.6562 318.531ZM67.8281 324.422V323.438H77.1875V328.266H75.9844V324.422H67.8281ZM73.0156 322.562V314.656H74.1719V317.969H76.0156V314.391H77.1875V322.656H76.0156V318.984H74.1719V322.562H73.0156Z" fill="#6B7280"/>
<mask id="path-17-inside-2_241_275" fill="white">
<path d="M105 298H185V344H105V298Z"/>
</mask>
<path d="M185 298H186V297H185V298ZM185 344V345H186V344H185ZM105 299H185V297H105V299ZM184 298V344H186V298H184ZM185 343H105V345H185V343Z" fill="#D1D5DB" mask="url(#path-17-inside-2_241_275)"/>
<path d="M124.375 326.234V323.203H121.359V321.938H124.375V318.922H125.641V321.938H128.672V323.203H125.641V326.234H124.375ZM135.094 315.688V327H133.672V317.156H133.609L130.859 318.984V317.562L133.672 315.688H135.094ZM141.812 327.156C139.305 327.156 137.852 325.047 137.859 321.344C137.852 317.672 139.32 315.531 141.812 315.531C144.297 315.531 145.766 317.672 145.766 321.344C145.766 325.047 144.32 327.156 141.812 327.156ZM139.219 321.344C139.227 324.273 140.172 325.906 141.812 325.906C143.445 325.906 144.398 324.273 144.391 321.344C144.398 318.414 143.438 316.758 141.812 316.75C140.188 316.758 139.227 318.414 139.219 321.344ZM151.344 327.156C148.836 327.156 147.383 325.047 147.391 321.344C147.383 317.672 148.852 315.531 151.344 315.531C153.828 315.531 155.297 317.672 155.297 321.344C155.297 325.047 153.852 327.156 151.344 327.156ZM148.75 321.344C148.758 324.273 149.703 325.906 151.344 325.906C152.977 325.906 153.93 324.273 153.922 321.344C153.93 318.414 152.969 316.758 151.344 316.75C149.719 316.758 148.758 318.414 148.75 321.344ZM163.688 315.641V322.031H157.266V315.641H163.688ZM158.469 321.047H162.5V316.641H158.469V321.047ZM158.844 327.969V323.594H160.047V326.938H168.172V327.969H158.844ZM166.312 324.562V314.375H167.531V318.609H169.625V319.641H167.531V324.562H166.312Z" fill="#6B7280"/>
<mask id="path-20-inside-3_241_275" fill="white">
<path d="M185 298H265V344H185V298Z"/>
</mask>
<path d="M265 298H266V297H265V298ZM265 344V345H266V344H265ZM185 299H265V297H185V299ZM264 298V344H266V298H264ZM265 343H185V345H265V343Z" fill="#D1D5DB" mask="url(#path-20-inside-3_241_275)"/>
<path d="M208.875 326.234V323.203H205.859V321.938H208.875V318.922H210.141V321.938H213.172V323.203H210.141V326.234H208.875ZM219.594 315.688V327H218.172V317.156H218.109L215.359 318.984V317.562L218.172 315.688H219.594ZM226.312 327.156C223.805 327.156 222.352 325.047 222.359 321.344C222.352 317.672 223.82 315.531 226.312 315.531C228.797 315.531 230.266 317.672 230.266 321.344C230.266 325.047 228.82 327.156 226.312 327.156ZM223.719 321.344C223.727 324.273 224.672 325.906 226.312 325.906C227.945 325.906 228.898 324.273 228.891 321.344C228.898 318.414 227.938 316.758 226.312 316.75C224.688 316.758 223.727 318.414 223.719 321.344ZM238.656 315.641V322.031H232.234V315.641H238.656ZM233.438 321.047H237.469V316.641H233.438V321.047ZM233.812 327.969V323.594H235.016V326.938H243.141V327.969H233.812ZM241.281 324.562V314.375H242.5V318.609H244.594V319.641H242.5V324.562H241.281Z" fill="#6B7280"/>
<mask id="path-23-inside-4_241_275" fill="white">
<path d="M265 298H345V344H265V298Z"/>
</mask>
<path d="M345 298H346V297H345V298ZM345 344V345H346V344H345ZM265 299H345V297H265V299ZM344 298V344H346V298H344ZM345 343H265V345H345V343Z" fill="#D1D5DB" mask="url(#path-23-inside-4_241_275)"/>
<path d="M292.375 326.234V323.203H289.359V321.938H292.375V318.922H293.641V321.938H296.672V323.203H293.641V326.234H292.375ZM302.781 327.156C300.742 327.156 299.195 325.898 299.109 324.156H300.469C300.57 325.164 301.555 325.914 302.781 325.922C304.25 325.914 305.312 324.844 305.312 323.422C305.312 321.953 304.211 320.867 302.688 320.859C301.734 320.844 300.992 321.141 300.578 321.875H299.219L300.016 315.688H306.141V316.938H301.188L300.766 320.25H300.875C301.383 319.859 302.141 319.594 302.938 319.594C305.094 319.594 306.68 321.188 306.688 323.391C306.68 325.578 305.039 327.156 302.781 327.156ZM315.156 315.641V322.031H308.734V315.641H315.156ZM309.938 321.047H313.969V316.641H309.938V321.047ZM310.312 327.969V323.594H311.516V326.938H319.641V327.969H310.312ZM317.781 324.562V314.375H319V318.609H321.094V319.641H319V324.562H317.781Z" fill="#6B7280"/>
<mask id="path-26-inside-5_241_275" fill="white">
<path d="M345 298H420C422.761 298 425 300.239 425 303V339C425 341.761 422.761 344 420 344H345V298Z"/>
</mask>
<path d="M345 297H420C423.314 297 426 299.686 426 303H424C424 300.791 422.209 299 420 299H345V297ZM426 339C426 342.314 423.314 345 420 345H345V343H420C422.209 343 424 341.209 424 339H426ZM345 344V298V344ZM420 297C423.314 297 426 299.686 426 303V339C426 342.314 423.314 345 420 345V343C422.209 343 424 341.209 424 339V303C424 300.791 422.209 299 420 299V297Z" fill="#D1D5DB" mask="url(#path-26-inside-5_241_275)"/>
<path d="M373.875 326.234V323.203H370.859V321.938H373.875V318.922H375.141V321.938H378.172V323.203H375.141V326.234H373.875ZM384.594 315.688V327H383.172V317.156H383.109L380.359 318.984V317.562L383.172 315.688H384.594ZM394.125 315.641V322.031H387.703V315.641H394.125ZM388.906 321.047H392.938V316.641H388.906V321.047ZM389.281 327.969V323.594H390.484V326.938H398.609V327.969H389.281ZM396.75 324.562V314.375H397.969V318.609H400.062V319.641H397.969V324.562H396.75Z" fill="#6B7280"/>
<path d="M91.6653 406.29C90.1943 406.29 88.8856 406.038 87.7392 405.534C86.5928 405.03 85.7019 404.329 85.0665 403.431C84.4312 402.526 84.1169 401.504 84.1239 400.365C84.1169 399.474 84.3034 398.642 84.6832 397.868C85.0631 397.088 85.581 396.445 86.2371 395.941C86.9001 395.43 87.6321 395.109 88.4332 394.978V394.874C87.7426 394.709 87.1314 394.398 86.5997 393.942C86.0679 393.486 85.657 392.927 85.3669 392.264C85.0769 391.601 84.9319 390.89 84.9319 390.13C84.9319 389.059 85.2219 388.096 85.802 387.24C86.3821 386.383 87.1832 385.713 88.2053 385.23C89.2343 384.74 90.3877 384.494 91.6653 384.494C92.936 384.494 94.079 384.74 95.0942 385.23C96.1163 385.713 96.9174 386.383 97.4975 387.24C98.0776 388.096 98.3711 389.059 98.378 390.13C98.3711 390.89 98.2192 391.601 97.9222 392.264C97.6321 392.927 97.2212 393.486 96.6895 393.942C96.1646 394.398 95.5603 394.709 94.8766 394.874V394.978C95.6708 395.109 96.396 395.43 97.052 395.941C97.715 396.445 98.2364 397.088 98.6163 397.868C99.003 398.642 99.1998 399.474 99.2067 400.365C99.1998 401.504 98.8752 402.526 98.233 403.431C97.5907 404.329 96.6964 405.03 95.55 405.534C94.4105 406.038 93.1156 406.29 91.6653 406.29ZM86.7551 400.22C86.7413 400.965 86.9312 401.622 87.3248 402.188C87.7185 402.747 88.2882 403.186 89.0341 403.503C89.7799 403.814 90.657 403.97 91.6653 403.97C92.6598 403.97 93.5265 403.814 94.2654 403.503C95.0044 403.186 95.5741 402.747 95.9747 402.188C96.3752 401.622 96.5755 400.965 96.5755 400.22C96.5755 399.446 96.3614 398.752 95.9332 398.137C95.512 397.523 94.9284 397.039 94.1826 396.687C93.4367 396.335 92.5976 396.159 91.6653 396.159C90.7261 396.159 89.8801 396.335 89.1273 396.687C88.3745 397.039 87.7875 397.526 87.3663 398.148C86.945 398.762 86.7413 399.453 86.7551 400.22ZM87.5009 390.316C87.5009 391.028 87.677 391.656 88.0292 392.202C88.3814 392.747 88.8718 393.172 89.5002 393.476C90.1356 393.773 90.8573 393.921 91.6653 393.921C92.4595 393.921 93.1708 393.773 93.7993 393.476C94.4277 393.172 94.9181 392.747 95.2703 392.202C95.6294 391.649 95.8089 391.021 95.8089 390.316C95.8089 389.619 95.6328 389.004 95.2806 388.472C94.9353 387.934 94.4484 387.516 93.82 387.219C93.1984 386.922 92.4802 386.773 91.6653 386.773C90.8366 386.773 90.1045 386.922 89.4692 387.219C88.8407 387.516 88.3538 387.934 88.0085 388.472C87.6701 389.004 87.5009 389.619 87.5009 390.316Z" fill="#222222"/>
<path d="M224.772 384.494C226.132 384.494 227.396 384.805 228.563 385.427C229.73 386.048 230.687 387.108 231.433 388.607C232.185 390.099 232.562 392.077 232.562 394.543C232.562 397.029 232.237 399.153 231.588 400.914C230.939 402.668 230.01 404.004 228.801 404.923C227.593 405.834 226.16 406.29 224.502 406.29C223.28 406.29 222.178 406.055 221.198 405.586C220.217 405.116 219.416 404.456 218.794 403.607C218.18 402.751 217.783 401.76 217.603 400.634H220.214C220.462 401.635 220.953 402.44 221.685 403.048C222.424 403.648 223.363 403.949 224.502 403.949C225.649 403.949 226.64 403.628 227.475 402.985C228.318 402.343 228.964 401.414 229.413 400.199C229.861 398.977 230.089 397.512 230.096 395.807H229.806C229.192 396.698 228.411 397.392 227.465 397.889C226.526 398.379 225.497 398.624 224.378 398.624C223.121 398.624 221.961 398.324 220.897 397.723C219.841 397.115 218.998 396.276 218.37 395.206C217.748 394.135 217.437 392.934 217.437 391.601C217.437 390.296 217.738 389.101 218.339 388.017C218.946 386.932 219.806 386.076 220.918 385.448C222.037 384.812 223.321 384.494 224.772 384.494ZM220.007 391.58C220.007 392.45 220.21 393.248 220.618 393.973C221.032 394.691 221.602 395.261 222.327 395.682C223.052 396.097 223.867 396.304 224.772 396.304C225.669 396.304 226.491 396.083 227.237 395.641C227.99 395.192 228.584 394.602 229.019 393.869C229.461 393.137 229.682 392.36 229.682 391.539C229.682 390.724 229.471 389.954 229.05 389.229C228.629 388.503 228.049 387.92 227.31 387.478C226.578 387.036 225.759 386.815 224.855 386.815C223.95 386.815 223.125 387.029 222.379 387.457C221.64 387.885 221.056 388.465 220.628 389.198C220.207 389.923 220 390.717 220.007 391.58Z" fill="#222222"/>
<path d="M358.399 406.29C357.004 406.29 355.754 406.055 354.649 405.586C353.544 405.116 352.67 404.456 352.028 403.607C351.393 402.758 351.051 401.78 351.002 400.675H353.675C353.723 401.331 353.958 401.908 354.379 402.405C354.801 402.896 355.357 403.276 356.047 403.545C356.745 403.814 357.515 403.949 358.357 403.949C359.283 403.949 360.112 403.794 360.844 403.483C361.576 403.165 362.149 402.723 362.563 402.157C362.978 401.59 363.185 400.945 363.185 400.22C363.185 399.446 362.981 398.762 362.574 398.169C362.173 397.575 361.586 397.112 360.812 396.78C360.039 396.449 359.11 396.283 358.026 396.283H356.306V393.963H358.026C358.882 393.963 359.642 393.811 360.305 393.507C360.975 393.203 361.493 392.778 361.859 392.233C362.232 391.68 362.418 391.041 362.418 390.316C362.418 389.619 362.256 389.004 361.931 388.472C361.607 387.941 361.144 387.53 360.543 387.24C359.942 386.943 359.241 386.794 358.44 386.794C357.681 386.794 356.966 386.929 356.296 387.198C355.633 387.468 355.094 387.854 354.68 388.358C354.266 388.856 354.041 389.439 354.007 390.109H351.458C351.5 389.018 351.838 388.048 352.473 387.198C353.109 386.342 353.955 385.679 355.011 385.209C356.068 384.733 357.225 384.494 358.482 384.494C359.787 384.494 360.93 384.753 361.911 385.271C362.898 385.789 363.654 386.483 364.179 387.354C364.711 388.224 364.973 389.17 364.966 390.192C364.973 390.979 364.832 391.698 364.542 392.347C364.252 392.996 363.834 393.545 363.288 393.994C362.743 394.443 362.1 394.771 361.362 394.978V395.144C362.273 395.282 363.06 395.582 363.723 396.045C364.393 396.501 364.904 397.091 365.257 397.816C365.609 398.535 365.781 399.343 365.775 400.24C365.781 401.38 365.464 402.412 364.821 403.338C364.186 404.256 363.302 404.978 362.17 405.503C361.044 406.028 359.787 406.29 358.399 406.29Z" fill="#222222"/>
<path d="M84.8312 477.073L92.0618 469.449C93.0149 468.434 93.74 467.619 94.2373 467.004C94.7414 466.383 95.1247 465.785 95.3871 465.212C95.6496 464.632 95.7842 464.028 95.7911 463.399C95.7842 462.681 95.5943 462.049 95.2214 461.503C94.8554 460.958 94.3512 460.537 93.7089 460.24C93.0736 459.943 92.3588 459.794 91.5646 459.794C90.7359 459.794 90.0073 459.96 89.3788 460.291C88.7573 460.623 88.2773 461.089 87.9389 461.69C87.6074 462.291 87.4417 462.985 87.4417 463.772H84.9348C84.9279 462.543 85.2145 461.455 85.7946 460.509C86.3816 459.556 87.1862 458.817 88.2083 458.292C89.2304 457.76 90.3768 457.494 91.6475 457.494C92.9044 457.494 94.0335 457.757 95.0349 458.282C96.0432 458.8 96.8305 459.508 97.3968 460.405C97.9631 461.303 98.2497 462.301 98.2566 463.399C98.2497 464.207 98.0978 464.981 97.8008 465.72C97.5107 466.452 97.017 467.267 96.3194 468.164C95.6288 469.062 94.6447 470.167 93.3671 471.479L88.519 476.493V476.659H98.6295V479H84.8519L84.8312 477.073Z" fill="#222222"/>
<path d="M225.248 479.29C223.881 479.29 222.61 478.983 221.436 478.368C220.269 477.747 219.309 476.686 218.556 475.188C217.81 473.682 217.437 471.686 217.437 469.2C217.437 466.728 217.762 464.615 218.411 462.86C219.06 461.106 219.989 459.773 221.198 458.862C222.406 457.95 223.839 457.494 225.497 457.494C226.719 457.494 227.817 457.733 228.791 458.209C229.772 458.679 230.569 459.338 231.184 460.188C231.799 461.03 232.196 462.004 232.375 463.109H229.765C229.516 462.128 229.026 461.338 228.294 460.737C227.562 460.136 226.629 459.836 225.497 459.836C224.344 459.836 223.349 460.157 222.513 460.799C221.678 461.434 221.036 462.36 220.587 463.575C220.145 464.791 219.924 466.244 219.924 467.936H220.193C220.808 467.039 221.585 466.345 222.524 465.854C223.47 465.364 224.509 465.119 225.642 465.119C226.892 465.119 228.045 465.423 229.102 466.03C230.158 466.631 230.998 467.467 231.619 468.537C232.248 469.608 232.562 470.809 232.562 472.142C232.562 473.468 232.258 474.677 231.65 475.768C231.042 476.852 230.183 477.712 229.071 478.347C227.966 478.976 226.692 479.29 225.248 479.29ZM220.297 472.204C220.297 473.033 220.507 473.814 220.928 474.546C221.35 475.278 221.93 475.865 222.669 476.307C223.415 476.749 224.247 476.97 225.165 476.97C226.063 476.97 226.882 476.756 227.62 476.327C228.359 475.899 228.94 475.319 229.361 474.587C229.789 473.848 230.007 473.04 230.013 472.163C230.007 471.307 229.796 470.519 229.382 469.801C228.974 469.076 228.408 468.503 227.683 468.081C226.957 467.653 226.146 467.439 225.248 467.439C224.344 467.439 223.511 467.66 222.752 468.102C221.999 468.544 221.402 469.131 220.96 469.863C220.524 470.595 220.303 471.376 220.297 472.204Z" fill="#222222"/>
<path d="M361.245 479H358.593V460.54H358.469L353.31 463.959V461.307L358.593 457.785H361.245V479Z" fill="#222222"/>
<path d="M83.7773 545.494L93.3284 530.785H96.5605V545.349H99.5439V547.67H96.5605V552H94.0536V547.67H83.7773V545.494ZM94.0536 545.349V534.12H93.8049L86.6157 545.184V545.349H94.0536Z" fill="#222222"/>
<path d="M229.113 533.291V533.126H217.904V530.785H231.848V533.25L222.152 552H219.375L229.113 533.291Z" fill="#222222"/>
<path d="M358.292 552.29C357.028 552.29 355.882 552.048 354.853 551.565C353.824 551.081 353.002 550.415 352.387 549.566C351.78 548.709 351.448 547.746 351.393 546.675H353.962C354.024 547.297 354.252 547.86 354.646 548.364C355.046 548.861 355.564 549.255 356.2 549.545C356.842 549.828 357.539 549.97 358.292 549.97C359.197 549.97 360.008 549.766 360.726 549.358C361.452 548.951 362.018 548.392 362.425 547.68C362.833 546.969 363.037 546.171 363.037 545.287C363.037 544.383 362.822 543.568 362.394 542.843C361.973 542.11 361.386 541.537 360.633 541.123C359.887 540.702 359.045 540.488 358.106 540.481C356.213 540.46 354.894 541.095 354.148 542.387H351.6L353.092 530.785H364.59V533.126H355.288L354.501 539.341H354.729C355.205 538.968 355.782 538.671 356.459 538.45C357.142 538.229 357.85 538.119 358.582 538.119C359.915 538.119 361.113 538.426 362.177 539.041C363.247 539.648 364.086 540.494 364.694 541.579C365.302 542.656 365.606 543.872 365.606 545.225C365.606 546.572 365.291 547.784 364.663 548.861C364.034 549.932 363.164 550.771 362.052 551.378C360.941 551.986 359.687 552.29 358.292 552.29Z" fill="#222222"/>
<path d="M82.7251 625.29C81.1644 625.29 79.828 624.865 78.7162 624.016C77.6112 623.16 76.7652 621.916 76.1782 620.287C75.5981 618.657 75.308 616.692 75.308 614.392C75.308 612.113 75.6015 610.159 76.1885 608.529C76.7755 606.892 77.625 605.646 78.7369 604.789C79.8487 603.926 81.1782 603.494 82.7251 603.494C84.2721 603.494 85.6015 603.926 86.7134 604.789C87.8253 605.646 88.6747 606.892 89.2617 608.529C89.8487 610.159 90.1423 612.113 90.1423 614.392C90.1423 616.692 89.8487 618.657 89.2617 620.287C88.6816 621.916 87.8356 623.16 86.7237 624.016C85.6188 624.865 84.2859 625.29 82.7251 625.29ZM77.8771 614.392C77.8771 616.209 78.067 617.759 78.4468 619.044C78.8266 620.321 79.3791 621.291 80.1043 621.954C80.8294 622.617 81.703 622.949 82.7251 622.949C83.7472 622.949 84.6208 622.617 85.346 621.954C86.0711 621.291 86.6236 620.321 87.0034 619.044C87.3833 617.759 87.5732 616.209 87.5732 614.392C87.5732 612.576 87.3798 611.026 86.9931 609.741C86.6133 608.45 86.0608 607.469 85.3356 606.799C84.6105 606.129 83.7403 605.794 82.7251 605.794C81.7099 605.794 80.8398 606.129 80.1146 606.799C79.3895 607.469 78.8336 608.45 78.4468 609.741C78.067 611.026 77.8771 612.576 77.8771 614.392ZM100.596 625.29C99.0354 625.29 97.6991 624.865 96.5872 624.016C95.4823 623.16 94.6363 621.916 94.0493 620.287C93.4692 618.657 93.1791 616.692 93.1791 614.392C93.1791 612.113 93.4726 610.159 94.0596 608.529C94.6466 606.892 95.4961 605.646 96.608 604.789C97.7198 603.926 99.0493 603.494 100.596 603.494C102.143 603.494 103.473 603.926 104.584 604.789C105.696 605.646 106.546 606.892 107.133 608.529C107.72 610.159 108.013 612.113 108.013 614.392C108.013 616.692 107.72 618.657 107.133 620.287C106.553 621.916 105.707 623.16 104.595 624.016C103.49 624.865 102.157 625.29 100.596 625.29ZM95.7482 614.392C95.7482 616.209 95.9381 617.759 96.3179 619.044C96.6977 620.321 97.2502 621.291 97.9754 621.954C98.7005 622.617 99.5741 622.949 100.596 622.949C101.618 622.949 102.492 622.617 103.217 621.954C103.942 621.291 104.495 620.321 104.875 619.044C105.254 617.759 105.444 616.209 105.444 614.392C105.444 612.576 105.251 611.026 104.864 609.741C104.484 608.45 103.932 607.469 103.207 606.799C102.482 606.129 101.611 605.794 100.596 605.794C99.581 605.794 98.7109 606.129 97.9857 606.799C97.2606 607.469 96.7046 608.45 96.3179 609.741C95.9381 611.026 95.7482 612.576 95.7482 614.392Z" fill="#222222"/>
<path d="M224.994 625.29C223.433 625.29 222.097 624.865 220.985 624.016C219.88 623.16 219.034 621.916 218.447 620.287C217.867 618.657 217.577 616.692 217.577 614.392C217.577 612.113 217.87 610.159 218.457 608.529C219.044 606.892 219.894 605.646 221.006 604.789C222.118 603.926 223.447 603.494 224.994 603.494C226.541 603.494 227.87 603.926 228.982 604.789C230.094 605.646 230.944 606.892 231.531 608.529C232.118 610.159 232.411 612.113 232.411 614.392C232.411 616.692 232.118 618.657 231.531 620.287C230.95 621.916 230.104 623.16 228.993 624.016C227.888 624.865 226.555 625.29 224.994 625.29ZM220.146 614.392C220.146 616.209 220.336 617.759 220.716 619.044C221.095 620.321 221.648 621.291 222.373 621.954C223.098 622.617 223.972 622.949 224.994 622.949C226.016 622.949 226.89 622.617 227.615 621.954C228.34 621.291 228.892 620.321 229.272 619.044C229.652 617.759 229.842 616.209 229.842 614.392C229.842 612.576 229.649 611.026 229.262 609.741C228.882 608.45 228.33 607.469 227.604 606.799C226.879 606.129 226.009 605.794 224.994 605.794C223.979 605.794 223.109 606.129 222.383 606.799C221.658 607.469 221.102 608.45 220.716 609.741C220.336 611.026 220.146 612.576 220.146 614.392Z" fill="#222222"/>
<mask id="mask2_241_275" style="mask-type:alpha" maskUnits="userSpaceOnUse" x="338" y="594" width="41" height="41">
<rect x="338.333" y="594.5" width="40" height="40" fill="#D9D9D9"/>
</mask>
<g mask="url(#mask2_241_275)">
<path d="M353.974 624.5C353.376 624.5 352.813 624.364 352.284 624.093C351.755 623.822 351.316 623.442 350.968 622.955L346.119 616.064C345.787 615.588 345.622 615.066 345.622 614.5C345.622 613.934 345.787 613.413 346.119 612.936L350.968 606.109C351.316 605.622 351.749 605.232 352.267 604.939C352.786 604.646 353.355 604.5 353.974 604.5H368.974C369.72 604.5 370.355 604.762 370.88 605.287C371.404 605.811 371.667 606.447 371.667 607.192V621.808C371.667 622.553 371.404 623.189 370.88 623.713C370.355 624.238 369.72 624.5 368.974 624.5H353.974ZM353.974 622.833H368.974C369.231 622.833 369.466 622.727 369.68 622.513C369.893 622.299 370 622.064 370 621.808V607.192C370 606.936 369.893 606.701 369.68 606.487C369.466 606.273 369.231 606.167 368.974 606.167H353.974C353.654 606.167 353.349 606.247 353.061 606.407C352.772 606.567 352.543 606.765 352.372 607L347.449 613.891C347.32 614.062 347.256 614.265 347.256 614.5C347.256 614.735 347.32 614.938 347.449 615.109L352.372 622C352.543 622.235 352.772 622.433 353.061 622.593C353.349 622.753 353.654 622.833 353.974 622.833ZM361.09 615.68L364.833 619.423C364.989 619.579 365.181 619.662 365.407 619.673C365.633 619.684 365.835 619.6 366.013 619.423C366.19 619.246 366.279 619.049 366.279 618.833C366.279 618.618 366.19 618.421 366.013 618.244L362.269 614.5L366.013 610.756C366.169 610.6 366.252 610.409 366.263 610.182C366.273 609.956 366.19 609.754 366.013 609.577C365.835 609.4 365.639 609.311 365.423 609.311C365.207 609.311 365.01 609.4 364.833 609.577L361.09 613.32L357.346 609.577C357.19 609.421 356.999 609.338 356.772 609.327C356.546 609.316 356.344 609.4 356.167 609.577C355.989 609.754 355.901 609.951 355.901 610.167C355.901 610.383 355.989 610.579 356.167 610.756L359.91 614.5L356.167 618.244C356.01 618.4 355.927 618.591 355.917 618.817C355.906 619.044 355.989 619.246 356.167 619.423C356.344 619.6 356.54 619.689 356.756 619.689C356.972 619.689 357.169 619.6 357.346 619.423L361.09 615.68Z" fill="#797378"/>
</g>
<rect x="25" y="666" width="400" height="49" rx="5" fill="#00C18A"/>
<path d="M222.656 683.281V687.391H224.562V688.828H222.656V692.828H220.922V683.281H222.656ZM211.344 691.141C212.406 691.141 213.633 691.133 214.906 691.094V690.234C213.336 690.039 212.344 689.281 212.344 688.172C212.344 686.875 213.703 686.062 215.75 686.078C217.812 686.062 219.156 686.875 219.156 688.172C219.156 689.273 218.188 690.023 216.641 690.219V691.031C217.844 690.977 219.055 690.883 220.188 690.734L220.328 691.938C217.312 692.469 214.016 692.5 211.531 692.5L211.344 691.141ZM222.656 693.438V697.391H220.922V694.797H213.125V693.438H222.656ZM219.812 684.391V685.672H211.703V684.391H214.906V683.156H216.641V684.391H219.812ZM215.75 687.25C214.656 687.234 214 687.562 214.016 688.172C214 688.75 214.656 689.125 215.75 689.109C216.844 689.125 217.5 688.75 217.5 688.172C217.5 687.562 216.844 687.234 215.75 687.25ZM237.062 683.281V693.484H235.312V683.281H237.062ZM237.453 695.703V697.109H227.719V692.453H229.469V695.703H237.453ZM229.359 684.203C231.5 684.203 233.156 685.688 233.156 687.734C233.156 689.828 231.5 691.281 229.359 691.281C227.203 691.281 225.547 689.828 225.547 687.734C225.547 685.688 227.203 684.203 229.359 684.203ZM229.359 685.719C228.156 685.719 227.234 686.516 227.25 687.734C227.234 688.984 228.156 689.766 229.359 689.766C230.531 689.766 231.453 688.984 231.453 687.734C231.453 686.516 230.531 685.719 229.359 685.719Z" fill="white"/>
</svg>
