<svg width="450" height="851" viewBox="0 0 450 851" fill="none" xmlns="http://www.w3.org/2000/svg">
<rect width="450" height="851" fill="white"/>
<mask id="mask0_244_2554" style="mask-type:alpha" maskUnits="userSpaceOnUse" x="25" y="20" width="40" height="40">
<rect x="25" y="20" width="40" height="40" fill="#D9D9D9"/>
</mask>
<g mask="url(#mask0_244_2554)">
<path d="M28.375 39.972L35.4583 47.0553C35.7267 47.3239 35.8562 47.6481 35.8471 48.0278C35.8379 48.4073 35.699 48.7313 35.4304 48.9999C35.1618 49.2685 34.8331 49.4028 34.4442 49.4028C34.0553 49.4028 33.7267 49.2685 33.4583 48.9999L25.4025 40.9445C25.2544 40.7962 25.1503 40.6434 25.09 40.4862C25.03 40.3287 25 40.1573 25 39.972C25 39.787 25.03 39.6158 25.09 39.4583C25.1503 39.3008 25.2544 39.148 25.4025 38.9999L33.4858 30.9166C33.7544 30.648 34.0832 30.5137 34.4721 30.5137C34.861 30.5137 35.1897 30.648 35.4583 30.9166C35.7267 31.1852 35.8608 31.5139 35.8608 31.9028C35.8608 32.2917 35.7267 32.6203 35.4583 32.8887L28.375 39.972Z" fill="#111827"/>
</g>
<path d="M64.2272 48.5539H62.3812V32.6796H64.2272V48.5539ZM50.3605 43.8239C51.9765 42.8667 53.1927 41.7645 54.009 40.5173C54.8294 39.2659 55.3142 37.826 55.4634 36.1975H51.212V34.6126H57.4088C57.4088 35.4123 57.3529 36.1892 57.241 36.9434H59.0932V33.0649H60.9517V47.8142H59.0932V42.4938H56.6133V40.9088H59.0932V38.5345H56.8992C56.5097 39.8978 55.8778 41.1367 55.0035 42.2514C54.1291 43.3619 52.9669 44.3481 51.5166 45.2099L50.3605 43.8239ZM75.2217 35.6257H71.9026C71.9234 36.2224 72.0808 36.7921 72.375 37.3349C72.6734 37.8778 73.1001 38.3605 73.6554 38.7831C74.2106 39.2017 74.8778 39.5249 75.6568 39.7528L74.7307 41.2818C73.8398 41.0207 73.0711 40.6291 72.4247 40.107C71.7825 39.5808 71.2832 38.9572 70.9268 38.2362C70.5705 39.0235 70.0587 39.7051 69.3916 40.2811C68.7286 40.857 67.9392 41.2859 67.0235 41.5677L66.0352 40.0387C66.8391 39.7983 67.5269 39.4565 68.0988 39.0131C68.6706 38.5656 69.1077 38.0518 69.4102 37.4717C69.7169 36.8874 69.8826 36.2721 69.9075 35.6257H66.576V34.0221H75.2217V35.6257ZM65.8923 43.8301C67.6202 43.8301 68.9689 43.8198 69.9385 43.799V40.8964H71.8902V43.7307C73.3239 43.6644 74.6022 43.5504 75.7251 43.3888L75.8619 44.8122C74.826 45.0028 73.7486 45.1436 72.6298 45.2348C71.5111 45.3218 70.4751 45.3757 69.5221 45.3964C68.5732 45.4171 67.4524 45.4275 66.1595 45.4275L65.8923 43.8301ZM76.6264 32.6796H78.578V39.0566H80.8778V40.6913H78.578V48.5539H76.6264V32.6796ZM94.8619 48.5912H92.8916V32.6796H94.8619V48.5912ZM82.1513 39.442C82.1513 38.3191 82.3274 37.3349 82.6796 36.4896C83.0359 35.6402 83.527 34.9855 84.1526 34.5256C84.7825 34.0615 85.4993 33.8294 86.3032 33.8294C87.0946 33.8294 87.8032 34.0615 88.4289 34.5256C89.0587 34.9855 89.5497 35.6402 89.902 36.4896C90.2583 37.3349 90.4365 38.3191 90.4365 39.442C90.4365 40.5732 90.2583 41.5656 89.902 42.4192C89.5497 43.2686 89.0587 43.9233 88.4289 44.3833C87.8032 44.8391 87.0946 45.067 86.3032 45.067C85.4993 45.067 84.7825 44.8391 84.1526 44.3833C83.5228 43.9233 83.0318 43.2686 82.6796 42.4192C82.3274 41.5656 82.1513 40.5732 82.1513 39.442ZM84.0346 39.442C84.0346 40.2417 84.1278 40.9337 84.3142 41.518C84.5049 42.0981 84.77 42.5414 85.1098 42.8481C85.4538 43.1506 85.8515 43.3018 86.3032 43.3018C86.7466 43.3018 87.1361 43.1485 87.4717 42.8419C87.8115 42.5352 88.0746 42.0919 88.2611 41.5117C88.4517 40.9316 88.547 40.2417 88.547 39.442C88.547 38.6464 88.4517 37.9606 88.2611 37.3847C88.0746 36.8046 87.8115 36.3612 87.4717 36.0546C87.1361 35.7479 86.7466 35.5946 86.3032 35.5946C85.8515 35.5946 85.4538 35.7479 85.1098 36.0546C84.77 36.3612 84.5049 36.8046 84.3142 37.3847C84.1278 37.9606 84.0346 38.6464 84.0346 39.442ZM102.053 37.5276C102.053 38.3729 102.169 39.1892 102.401 39.9765C102.637 40.7638 102.997 41.4786 103.482 42.1209C103.967 42.7631 104.568 43.2769 105.285 43.6623L104.197 45.0981C103.476 44.721 102.861 44.203 102.351 43.5442C101.841 42.8812 101.439 42.1167 101.145 41.2507C100.855 42.1872 100.453 43.02 99.9393 43.7493C99.4296 44.4744 98.8143 45.0483 98.0933 45.471L96.9558 43.9979C97.6768 43.5794 98.2797 43.0283 98.7645 42.3446C99.2493 41.6568 99.6098 40.9006 99.846 40.076C100.082 39.2472 100.202 38.3978 100.207 37.5276V37.0304H97.4966V35.4517H100.207V33.239H102.046V35.4517H104.707V37.0304H102.053V37.5276ZM103.718 38.7831H105.8V32.9779H107.634V47.7894H105.8V40.393H103.718V38.7831ZM109.014 32.6796H110.866V48.5539H109.014V32.6796Z" fill="#111827"/>
<mask id="mask1_244_2554" style="mask-type:alpha" maskUnits="userSpaceOnUse" x="326" y="20" width="40" height="40">
<rect x="326" y="20" width="40" height="40" fill="#D9D9D9"/>
</mask>
<g mask="url(#mask1_244_2554)">
<path d="M337.139 53.333C336.375 53.333 335.721 53.0611 335.177 52.5172C334.633 51.973 334.361 51.319 334.361 50.5551V37.3609L330.417 40.3468C330.101 40.5876 329.763 40.6872 329.402 40.6455C329.042 40.6038 328.741 40.4256 328.5 40.1109C328.259 39.7959 328.167 39.4533 328.222 39.083C328.278 38.7127 328.463 38.4072 328.778 38.1663L344.32 26.2913C344.57 26.1061 344.838 25.9626 345.124 25.8609C345.41 25.759 345.702 25.708 346 25.708C346.298 25.708 346.59 25.759 346.876 25.8609C347.162 25.9626 347.43 26.1061 347.68 26.2913L353.167 30.4718V28.8884C353.167 28.2712 353.383 27.7466 353.816 27.3147C354.249 26.8825 354.774 26.6663 355.392 26.6663C356.01 26.6663 356.535 26.8825 356.965 27.3147C357.396 27.7466 357.611 28.2712 357.611 28.8884V33.8609L363.222 38.1663C363.528 38.4072 363.706 38.7127 363.757 39.083C363.808 39.4533 363.713 39.7959 363.472 40.1109C363.232 40.4256 362.931 40.6038 362.57 40.6455C362.21 40.6872 361.871 40.5876 361.555 40.3468L357.611 37.333V50.5551C357.611 51.319 357.339 51.973 356.795 52.5172C356.251 53.0611 355.597 53.333 354.833 53.333H350.722C349.958 53.333 349.304 53.0611 348.76 52.5172C348.217 51.973 347.945 51.319 347.945 50.5551V43.333H344.055V50.5551C344.055 51.319 343.784 51.973 343.24 52.5172C342.696 53.0611 342.042 53.333 341.278 53.333H337.139ZM337.139 50.5551H341.278V43.333C341.278 42.5691 341.55 41.9152 342.094 41.3713C342.638 40.8272 343.292 40.5551 344.055 40.5551H347.945C348.709 40.5551 349.362 40.8272 349.906 41.3713C350.45 41.9152 350.722 42.5691 350.722 43.333V50.5551H354.833V35.2359L346 28.4859L337.139 35.2359V50.5551ZM342.528 36.4026H349.472C349.472 35.4951 349.125 34.7473 348.43 34.1593C347.736 33.5715 346.926 33.2776 346 33.2776C345.074 33.2776 344.264 33.5701 343.57 34.1551C342.875 34.7401 342.528 35.4893 342.528 36.4026Z" fill="#0F172A"/>
</g>
<mask id="mask2_244_2554" style="mask-type:alpha" maskUnits="userSpaceOnUse" x="385" y="20" width="40" height="40">
<rect x="385" y="20" width="40" height="40" fill="#D9D9D9"/>
</mask>
<g mask="url(#mask2_244_2554)">
<path d="M391.389 50C390.995 50 390.666 49.8664 390.399 49.5992C390.133 49.3322 390 49.0013 390 48.6063C390 48.2113 390.133 47.8818 390.399 47.6179C390.666 47.354 390.995 47.2221 391.389 47.2221H418.611C419.005 47.2221 419.334 47.3557 419.601 47.6229C419.867 47.8901 420 48.2211 420 48.6158C420 49.0108 419.867 49.3403 419.601 49.6042C419.334 49.8681 419.005 50 418.611 50H391.389ZM391.389 41.3888C390.995 41.3888 390.666 41.2553 390.399 40.9883C390.133 40.7211 390 40.39 390 39.995C390 39.6003 390.133 39.271 390.399 39.0071C390.666 38.7432 390.995 38.6112 391.389 38.6112H418.611C419.005 38.6112 419.334 38.7447 419.601 39.0117C419.867 39.2789 420 39.61 420 40.005C420 40.3997 419.867 40.729 419.601 40.9929C419.334 41.2568 419.005 41.3888 418.611 41.3888H391.389ZM391.389 32.7779C390.995 32.7779 390.666 32.6443 390.399 32.3771C390.133 32.1099 390 31.7789 390 31.3842C390 30.9892 390.133 30.6597 390.399 30.3958C390.666 30.1319 390.995 30 391.389 30H418.611C419.005 30 419.334 30.1336 419.601 30.4008C419.867 30.6678 420 30.9988 420 31.3938C420 31.7888 419.867 32.1182 419.601 32.3821C419.334 32.646 419.005 32.7779 418.611 32.7779H391.389Z" fill="#111827"/>
</g>
<mask id="path-8-inside-1_244_2554" fill="white">
<path d="M25 110H425V227H25V110Z"/>
</mask>
<path d="M425 225H25V229H425V225Z" fill="#6B7280" mask="url(#path-8-inside-1_244_2554)"/>
<mask id="mask3_244_2554" style="mask-type:alpha" maskUnits="userSpaceOnUse" x="201" y="110" width="48" height="48">
<rect x="201" y="110" width="48" height="48" fill="#D9D9D9"/>
</mask>
<g mask="url(#mask3_244_2554)">
<path d="M222.05 138.55L217.15 133.65C216.85 133.35 216.483 133.2 216.05 133.2C215.617 133.2 215.233 133.367 214.9 133.7C214.6 134 214.45 134.367 214.45 134.8C214.45 135.233 214.6 135.6 214.9 135.9L221 142.05C221.3 142.35 221.65 142.5 222.05 142.5C222.45 142.5 222.8 142.35 223.1 142.05L235.05 130.1C235.383 129.767 235.55 129.383 235.55 128.95C235.55 128.517 235.383 128.133 235.05 127.8C234.717 127.5 234.325 127.358 233.875 127.375C233.425 127.392 233.05 127.55 232.75 127.85L222.05 138.55ZM225 154C222.267 154 219.683 153.475 217.25 152.425C214.817 151.375 212.692 149.942 210.875 148.125C209.058 146.308 207.625 144.183 206.575 141.75C205.525 139.317 205 136.733 205 134C205 131.233 205.525 128.633 206.575 126.2C207.625 123.767 209.058 121.65 210.875 119.85C212.692 118.05 214.817 116.625 217.25 115.575C219.683 114.525 222.267 114 225 114C227.767 114 230.367 114.525 232.8 115.575C235.233 116.625 237.35 118.05 239.15 119.85C240.95 121.65 242.375 123.767 243.425 126.2C244.475 128.633 245 131.233 245 134C245 136.733 244.475 139.317 243.425 141.75C242.375 144.183 240.95 146.308 239.15 148.125C237.35 149.942 235.233 151.375 232.8 152.425C230.367 153.475 227.767 154 225 154Z" fill="#00C18A"/>
</g>
<path d="M198.992 174.828V196.203H195.969V174.828H198.992ZM187.414 176.328C190.625 176.328 193.016 179.281 193.016 183.922C193.016 188.609 190.625 191.539 187.414 191.539C184.133 191.539 181.742 188.609 181.766 183.922C181.742 179.281 184.133 176.328 187.414 176.328ZM187.414 179.023C185.75 179.023 184.648 180.758 184.648 183.922C184.648 187.109 185.75 188.82 187.414 188.82C189.031 188.82 190.133 187.109 190.133 183.922C190.133 180.758 189.031 179.023 187.414 179.023ZM208.531 181.32C208.531 184.555 209.703 187.789 212.727 189.43L211.086 191.609C209.164 190.625 207.887 188.891 207.148 186.805C206.398 189.078 205.121 191 203.188 192.125L201.477 189.875C204.547 188.094 205.695 184.625 205.719 181.32V180.828H202.273V178.438H205.719V175.555H208.508V178.438H211.883V180.828H208.531V181.32ZM220.32 174.828V196.156H217.484V174.828H220.32ZM215.961 175.18V195.172H213.148V185.352H210.641V182.914H213.148V175.18H215.961ZM234.57 175.695C237.688 175.695 239.938 177.453 239.938 180.031C239.938 182.117 238.402 183.711 236.117 184.203V185.75C237.781 185.656 239.457 185.504 241.016 185.281L241.25 187.461C236.867 188.234 231.969 188.328 228.406 188.328L228.102 185.961C229.578 185.961 231.301 185.949 233.117 185.891V184.227C230.762 183.758 229.18 182.152 229.203 180.031C229.18 177.453 231.43 175.695 234.57 175.695ZM234.57 177.945C233.047 177.969 231.969 178.695 231.992 180.031C231.969 181.32 233.047 182.094 234.57 182.094C236.094 182.094 237.125 181.32 237.125 180.031C237.125 178.695 236.094 177.969 234.57 177.945ZM245.211 174.852V181.555H247.93V184.039H245.211V191.117H242.211V174.852H245.211ZM245.938 193.367V195.758H230.914V189.688H233.914V193.367H245.938ZM268.414 191.328V193.789H248.891V191.328H253.883V188.07H251.141V180.898H263.211V178.602H251.117V176.211H266.164V183.289H254.141V185.656H266.656V188.07H263.633V191.328H268.414ZM256.789 191.328H260.703V188.07H256.789V191.328Z" fill="#111827"/>
<path d="M38.2818 273.492H25.5635V272.464H31.2762V269.47H27.0663V262.365H28.2928V264.873H35.5083V262.365H36.7238V269.47H32.4917V272.464H38.2818V273.492ZM35.5083 268.464V265.878H28.2928V268.464H35.5083ZM51.248 275.271H50.0546V268.077H48.0436V274.541H46.8834V261.691H48.0436V267.039H50.0546V261.381H51.248V275.271ZM40.0878 263.072H41.3143V270.575C42.0657 270.571 42.8134 270.536 43.5574 270.47C44.3014 270.403 45.0712 270.291 45.8668 270.133L46.0104 271.215C45.097 271.381 44.2333 271.499 43.4193 271.569C42.609 271.635 41.7895 271.669 40.9607 271.669H40.0878V263.072ZM64.4463 266.586H54.9435V261.89H56.159V265.591H64.4463V266.586ZM53.1977 268.475H65.9159V269.47H53.1977V268.475ZM54.8551 270.884H56.0706V273.912H64.5347V274.928H54.8551V270.884ZM82.1133 263.149C82.1133 263.643 82.1059 264.076 82.0912 264.448C82.0801 264.82 82.047 265.243 81.9917 265.718C81.9401 266.193 81.8554 266.7 81.7376 267.238H83.7818V268.254H71.0635V267.238H80.5055C80.6271 266.696 80.7155 266.188 80.7707 265.713C80.8297 265.238 80.8646 264.816 80.8757 264.448C80.8904 264.079 80.8978 263.646 80.8978 263.149V263.138H72.6768V262.122H82.1133V263.149ZM72.6326 270.166H82.1685V275.083H72.6326V270.166ZM80.953 274.077V271.138H73.837V274.077H80.953ZM88.2176 262.254C88.8217 262.254 89.365 262.394 89.8475 262.674C90.3337 262.95 90.713 263.339 90.9856 263.84C91.2618 264.337 91.3999 264.902 91.3999 265.536C91.3999 266.169 91.2618 266.733 90.9856 267.227C90.713 267.72 90.3355 268.103 89.853 268.376C89.3705 268.648 88.8254 268.785 88.2176 268.785C87.6025 268.785 87.0537 268.648 86.5712 268.376C86.0887 268.103 85.713 267.72 85.4441 267.227C85.1753 266.733 85.0427 266.169 85.0464 265.536C85.0427 264.899 85.1753 264.331 85.4441 263.834C85.7167 263.337 86.0942 262.95 86.5767 262.674C87.0592 262.394 87.6062 262.254 88.2176 262.254ZM86.1513 265.536C86.1476 265.956 86.2342 266.335 86.411 266.674C86.5915 267.013 86.8383 267.278 87.1513 267.47C87.4681 267.657 87.8235 267.75 88.2176 267.746C88.6081 267.75 88.9598 267.657 89.2729 267.47C89.586 267.278 89.8309 267.015 90.0077 266.68C90.1882 266.341 90.2802 265.959 90.2839 265.536C90.2802 265.112 90.1882 264.731 90.0077 264.392C89.8309 264.053 89.586 263.79 89.2729 263.602C88.9598 263.411 88.6081 263.315 88.2176 263.315C87.8235 263.315 87.4681 263.411 87.1513 263.602C86.8383 263.79 86.5915 264.053 86.411 264.392C86.2342 264.731 86.1476 265.112 86.1513 265.536ZM87.3226 270.431H96.6817V275.271H95.4773V271.425H87.3226V270.431ZM92.516 261.657H93.6762V264.972H95.5215V261.392H96.6817V269.657H95.5215V265.978H93.6762V269.558H92.516V261.657Z" fill="#9CA3AF"/>
<path d="M349.693 275H348.102V263.924H348.028L344.932 265.975V264.384L348.102 262.271H349.693V275ZM357.25 275.174C356.314 275.174 355.512 274.919 354.845 274.41C354.182 273.896 353.674 273.15 353.322 272.172C352.974 271.194 352.8 270.015 352.8 268.635C352.8 267.268 352.976 266.095 353.328 265.117C353.681 264.135 354.19 263.387 354.857 262.874C355.524 262.356 356.322 262.097 357.25 262.097C358.178 262.097 358.976 262.356 359.643 262.874C360.31 263.387 360.82 264.135 361.172 265.117C361.524 266.095 361.701 267.268 361.701 268.635C361.701 270.015 361.524 271.194 361.172 272.172C360.824 273.15 360.317 273.896 359.649 274.41C358.987 274.919 358.187 275.174 357.25 275.174ZM354.341 268.635C354.341 269.725 354.455 270.655 354.683 271.426C354.911 272.193 355.243 272.775 355.678 273.173C356.113 273.57 356.637 273.769 357.25 273.769C357.864 273.769 358.388 273.57 358.823 273.173C359.258 272.775 359.589 272.193 359.817 271.426C360.045 270.655 360.159 269.725 360.159 268.635C360.159 267.546 360.043 266.615 359.811 265.845C359.583 265.07 359.252 264.481 358.817 264.079C358.382 263.677 357.859 263.477 357.25 263.477C356.641 263.477 356.119 263.677 355.684 264.079C355.249 264.481 354.915 265.07 354.683 265.845C354.455 266.615 354.341 267.546 354.341 268.635ZM367.973 275.174C367.037 275.174 366.235 274.919 365.568 274.41C364.905 273.896 364.397 273.15 364.045 272.172C363.697 271.194 363.523 270.015 363.523 268.635C363.523 267.268 363.699 266.095 364.051 265.117C364.403 264.135 364.913 263.387 365.58 262.874C366.247 262.356 367.045 262.097 367.973 262.097C368.901 262.097 369.699 262.356 370.366 262.874C371.033 263.387 371.543 264.135 371.895 265.117C372.247 266.095 372.423 267.268 372.423 268.635C372.423 270.015 372.247 271.194 371.895 272.172C371.547 273.15 371.039 273.896 370.372 274.41C369.709 274.919 368.909 275.174 367.973 275.174ZM365.064 268.635C365.064 269.725 365.178 270.655 365.406 271.426C365.634 272.193 365.965 272.775 366.4 273.173C366.836 273.57 367.36 273.769 367.973 273.769C368.586 273.769 369.11 273.57 369.545 273.173C369.981 272.775 370.312 272.193 370.54 271.426C370.768 270.655 370.882 269.725 370.882 268.635C370.882 267.546 370.766 266.615 370.534 265.845C370.306 265.07 369.974 264.481 369.539 264.079C369.104 263.677 368.582 263.477 367.973 263.477C367.364 263.477 366.842 263.677 366.407 264.079C365.972 264.481 365.638 265.07 365.406 265.845C365.178 266.615 365.064 267.546 365.064 268.635ZM374.738 278.593H373.433L374.403 273.807H376.093L374.738 278.593ZM382.457 275.174C381.521 275.174 380.719 274.919 380.052 274.41C379.389 273.896 378.881 273.15 378.529 272.172C378.181 271.194 378.007 270.015 378.007 268.635C378.007 267.268 378.183 266.095 378.535 265.117C378.888 264.135 379.397 263.387 380.064 262.874C380.732 262.356 381.529 262.097 382.457 262.097C383.386 262.097 384.183 262.356 384.85 262.874C385.517 263.387 386.027 264.135 386.379 265.117C386.732 266.095 386.908 267.268 386.908 268.635C386.908 270.015 386.732 271.194 386.379 272.172C386.031 273.15 385.524 273.896 384.857 274.41C384.194 274.919 383.394 275.174 382.457 275.174ZM379.549 268.635C379.549 269.725 379.662 270.655 379.89 271.426C380.118 272.193 380.45 272.775 380.885 273.173C381.32 273.57 381.844 273.769 382.457 273.769C383.071 273.769 383.595 273.57 384.03 273.173C384.465 272.775 384.796 272.193 385.024 271.426C385.252 270.655 385.366 269.725 385.366 268.635C385.366 267.546 385.25 266.615 385.018 265.845C384.79 265.07 384.459 264.481 384.024 264.079C383.589 263.677 383.066 263.477 382.457 263.477C381.848 263.477 381.326 263.677 380.891 264.079C380.456 264.481 380.122 265.07 379.89 265.845C379.662 266.615 379.549 267.546 379.549 268.635ZM393.18 275.174C392.244 275.174 391.442 274.919 390.775 274.41C390.112 273.896 389.604 273.15 389.252 272.172C388.904 271.194 388.73 270.015 388.73 268.635C388.73 267.268 388.906 266.095 389.258 265.117C389.61 264.135 390.12 263.387 390.787 262.874C391.454 262.356 392.252 262.097 393.18 262.097C394.108 262.097 394.906 262.356 395.573 262.874C396.24 263.387 396.75 264.135 397.102 265.117C397.454 266.095 397.63 267.268 397.63 268.635C397.63 270.015 397.454 271.194 397.102 272.172C396.754 273.15 396.246 273.896 395.579 274.41C394.916 274.919 394.116 275.174 393.18 275.174ZM390.271 268.635C390.271 269.725 390.385 270.655 390.613 271.426C390.841 272.193 391.172 272.775 391.607 273.173C392.043 273.57 392.567 273.769 393.18 273.769C393.793 273.769 394.317 273.57 394.753 273.173C395.188 272.775 395.519 272.193 395.747 271.426C395.975 270.655 396.089 269.725 396.089 268.635C396.089 267.546 395.973 266.615 395.741 265.845C395.513 265.07 395.181 264.481 394.746 264.079C394.311 263.677 393.789 263.477 393.18 263.477C392.571 263.477 392.049 263.677 391.614 264.079C391.179 264.481 390.845 265.07 390.613 265.845C390.385 266.615 390.271 267.546 390.271 268.635ZM403.903 275.174C402.966 275.174 402.164 274.919 401.497 274.41C400.834 273.896 400.327 273.15 399.974 272.172C399.626 271.194 399.452 270.015 399.452 268.635C399.452 267.268 399.628 266.095 399.981 265.117C400.333 264.135 400.843 263.387 401.51 262.874C402.177 262.356 402.974 262.097 403.903 262.097C404.831 262.097 405.628 262.356 406.296 262.874C406.963 263.387 407.472 264.135 407.825 265.117C408.177 266.095 408.353 267.268 408.353 268.635C408.353 270.015 408.177 271.194 407.825 272.172C407.477 273.15 406.969 273.896 406.302 274.41C405.639 274.919 404.839 275.174 403.903 275.174ZM400.994 268.635C400.994 269.725 401.108 270.655 401.336 271.426C401.564 272.193 401.895 272.775 402.33 273.173C402.765 273.57 403.289 273.769 403.903 273.769C404.516 273.769 405.04 273.57 405.475 273.173C405.91 272.775 406.242 272.193 406.47 271.426C406.698 270.655 406.811 269.725 406.811 268.635C406.811 267.546 406.695 266.615 406.463 265.845C406.236 265.07 405.904 264.481 405.469 264.079C405.034 263.677 404.512 263.477 403.903 263.477C403.294 263.477 402.771 263.677 402.336 264.079C401.901 264.481 401.568 265.07 401.336 265.845C401.108 266.615 400.994 267.546 400.994 268.635ZM422.78 272.688H421.388V271.059H418.168V270.052H421.388V260.816H422.78V272.688ZM409.815 268.051C411.878 268.043 413.72 268.012 415.34 267.958C416.964 267.9 418.512 267.778 419.983 267.591L420.082 268.598C418.786 268.805 417.352 268.956 415.781 269.052V272.141H414.402V269.12C413.337 269.162 412.123 269.182 410.759 269.182H410.001L409.815 268.051ZM411.07 264.173C411.07 263.634 411.232 263.16 411.555 262.749C411.878 262.335 412.334 262.016 412.922 261.792C413.511 261.564 414.186 261.45 414.949 261.45C415.703 261.45 416.372 261.564 416.956 261.792C417.54 262.016 417.994 262.335 418.317 262.749C418.645 263.16 418.81 263.634 418.815 264.173C418.81 264.72 418.645 265.198 418.317 265.608C417.994 266.015 417.54 266.329 416.956 266.553C416.376 266.773 415.707 266.883 414.949 266.883C414.182 266.883 413.504 266.773 412.916 266.553C412.332 266.334 411.878 266.019 411.555 265.608C411.232 265.198 411.07 264.72 411.07 264.173ZM412.065 271.519H413.444V274.938H423.165V276.081H412.065V271.519ZM412.388 264.173C412.384 264.508 412.487 264.802 412.699 265.055C412.914 265.308 413.216 265.505 413.606 265.646C413.995 265.782 414.443 265.851 414.949 265.851C415.437 265.851 415.875 265.782 416.26 265.646C416.645 265.505 416.946 265.308 417.161 265.055C417.381 264.802 417.493 264.508 417.497 264.173C417.493 263.841 417.381 263.549 417.161 263.296C416.946 263.039 416.645 262.84 416.26 262.7C415.875 262.559 415.437 262.49 414.949 262.494C414.443 262.49 413.995 262.559 413.606 262.7C413.216 262.84 412.914 263.039 412.699 263.296C412.487 263.549 412.384 263.841 412.388 264.173Z" fill="#111827"/>
<path d="M32.5359 294.674C32.5359 295.3 32.7772 295.899 33.2597 296.47C33.7459 297.041 34.3794 297.521 35.1602 297.912C35.9411 298.302 36.7532 298.556 37.5967 298.674L37.0994 299.68C36.3665 299.558 35.6575 299.346 34.9724 299.044C34.291 298.742 33.6814 298.366 33.1436 297.917C32.6059 297.464 32.1934 296.961 31.9061 296.409C31.6188 296.965 31.2063 297.47 30.6685 297.923C30.1344 298.372 29.5267 298.746 28.8453 299.044C28.1639 299.343 27.4567 299.554 26.7238 299.68L26.2155 298.674C27.0626 298.556 27.8748 298.304 28.6519 297.917C29.4291 297.53 30.0589 297.053 30.5414 296.486C31.0239 295.915 31.2652 295.311 31.2652 294.674V293.878H32.5359V294.674ZM25.5635 301.204H38.2265V302.232H32.4696V307.271H31.2652V302.232H25.5635V301.204ZM46.364 294.674C46.364 295.3 46.6053 295.899 47.0878 296.47C47.574 297.041 48.2075 297.521 48.9883 297.912C49.7692 298.302 50.5813 298.556 51.4248 298.674L50.9276 299.68C50.1946 299.558 49.4856 299.346 48.8005 299.044C48.1191 298.742 47.5095 298.366 46.9718 297.917C46.434 297.464 46.0215 296.961 45.7342 296.409C45.4469 296.965 45.0344 297.47 44.4966 297.923C43.9626 298.372 43.3548 298.746 42.6734 299.044C41.992 299.343 41.2848 299.554 40.5519 299.68L40.0436 298.674C40.8907 298.556 41.7029 298.304 42.4801 297.917C43.2572 297.53 43.8871 297.053 44.3696 296.486C44.8521 295.915 45.0933 295.311 45.0933 294.674V293.878H46.364V294.674ZM39.3917 301.204H52.0546V302.232H46.2977V307.271H45.0933V302.232H39.3917V301.204ZM65.938 305.547H53.2198V304.508H56.7999V301.878H54.8109V297.591H63.1203V295.425H54.7778V294.409H64.3358V298.608H56.0264V300.862H64.6562V301.878H62.4795V304.508H65.938V305.547ZM61.275 304.508V301.878H57.9933V304.508H61.275Z" fill="#9CA3AF"/>
<path d="M403.358 307.174C402.421 307.174 401.619 306.919 400.952 306.41C400.289 305.896 399.782 305.15 399.43 304.172C399.081 303.194 398.907 302.015 398.907 300.635C398.907 299.268 399.084 298.095 399.436 297.117C399.788 296.135 400.298 295.387 400.965 294.874C401.632 294.356 402.43 294.097 403.358 294.097C404.286 294.097 405.084 294.356 405.751 294.874C406.418 295.387 406.927 296.135 407.28 297.117C407.632 298.095 407.808 299.268 407.808 300.635C407.808 302.015 407.632 303.194 407.28 304.172C406.932 305.15 406.424 305.896 405.757 306.41C405.094 306.919 404.294 307.174 403.358 307.174ZM400.449 300.635C400.449 301.725 400.563 302.655 400.791 303.426C401.019 304.193 401.35 304.775 401.785 305.173C402.22 305.57 402.744 305.769 403.358 305.769C403.971 305.769 404.495 305.57 404.93 305.173C405.365 304.775 405.697 304.193 405.925 303.426C406.153 302.655 406.267 301.725 406.267 300.635C406.267 299.546 406.151 298.615 405.919 297.845C405.691 297.07 405.359 296.481 404.924 296.079C404.489 295.677 403.967 295.477 403.358 295.477C402.749 295.477 402.227 295.677 401.791 296.079C401.356 296.481 401.023 297.07 400.791 297.845C400.563 298.615 400.449 299.546 400.449 300.635ZM422.235 304.688H420.843V303.059H417.623V302.052H420.843V292.816H422.235V304.688ZM409.27 300.051C411.333 300.043 413.175 300.012 414.795 299.958C416.419 299.9 417.967 299.778 419.438 299.591L419.538 300.598C418.241 300.805 416.807 300.956 415.236 301.052V304.141H413.857V301.12C412.792 301.162 411.578 301.182 410.214 301.182H409.456L409.27 300.051ZM410.525 296.173C410.525 295.634 410.687 295.16 411.01 294.749C411.333 294.335 411.789 294.016 412.377 293.792C412.966 293.564 413.641 293.45 414.404 293.45C415.158 293.45 415.827 293.564 416.411 293.792C416.995 294.016 417.449 294.335 417.772 294.749C418.1 295.16 418.265 295.634 418.27 296.173C418.265 296.72 418.1 297.198 417.772 297.608C417.449 298.015 416.995 298.329 416.411 298.553C415.831 298.773 415.162 298.883 414.404 298.883C413.637 298.883 412.96 298.773 412.371 298.553C411.787 298.334 411.333 298.019 411.01 297.608C410.687 297.198 410.525 296.72 410.525 296.173ZM411.52 303.519H412.899V306.938H422.62V308.081H411.52V303.519ZM411.843 296.173C411.839 296.508 411.942 296.802 412.154 297.055C412.369 297.308 412.672 297.505 413.061 297.646C413.451 297.782 413.898 297.851 414.404 297.851C414.893 297.851 415.33 297.782 415.715 297.646C416.1 297.505 416.401 297.308 416.616 297.055C416.836 296.802 416.948 296.508 416.952 296.173C416.948 295.841 416.836 295.549 416.616 295.296C416.401 295.039 416.1 294.84 415.715 294.7C415.33 294.559 414.893 294.49 414.404 294.494C413.898 294.49 413.451 294.559 413.061 294.7C412.672 294.84 412.369 295.039 412.154 295.296C411.942 295.549 411.839 295.841 411.843 296.173Z" fill="#111827"/>
<path d="M32.5359 326.674C32.5359 327.3 32.7772 327.899 33.2597 328.47C33.7459 329.041 34.3794 329.521 35.1602 329.912C35.9411 330.302 36.7532 330.556 37.5967 330.674L37.0994 331.68C36.3665 331.558 35.6575 331.346 34.9724 331.044C34.291 330.742 33.6814 330.366 33.1436 329.917C32.6059 329.464 32.1934 328.961 31.9061 328.409C31.6188 328.965 31.2063 329.47 30.6685 329.923C30.1344 330.372 29.5267 330.746 28.8453 331.044C28.1639 331.343 27.4567 331.554 26.7238 331.68L26.2155 330.674C27.0626 330.556 27.8748 330.304 28.6519 329.917C29.4291 329.53 30.0589 329.053 30.5414 328.486C31.0239 327.915 31.2652 327.311 31.2652 326.674V325.878H32.5359V326.674ZM25.5635 333.204H38.2265V334.232H32.4696V339.271H31.2652V334.232H25.5635V333.204ZM44.6292 328C44.6292 328.46 44.771 328.895 45.0546 329.304C45.3383 329.713 45.7342 330.068 46.2425 330.37C46.7508 330.669 47.3327 330.891 47.9883 331.039L47.4801 332.011C46.6771 331.816 45.9773 331.514 45.3806 331.105C44.7876 330.696 44.3401 330.21 44.0381 329.646C43.7434 330.258 43.2922 330.786 42.6845 331.232C42.0804 331.674 41.3696 331.996 40.5519 332.199L40.0215 331.227C40.6845 331.076 41.2701 330.84 41.7784 330.519C42.2904 330.199 42.6882 329.821 42.9718 329.387C43.2591 328.948 43.4027 328.486 43.4027 328V327.945H40.3088V326.972H43.4027V325.414H44.6292V326.972H47.7232V327.945H44.6292V328ZM39.3585 333.182C41.1707 333.182 42.8263 333.157 44.3254 333.105C45.8281 333.053 47.2591 332.939 48.6182 332.762L48.7066 333.657C47.5206 333.856 46.1725 334.002 44.6624 334.094V338.862H43.4359V334.155C42.3125 334.199 41.0086 334.221 39.5243 334.221L39.3585 333.182ZM49.6458 325.392H50.8502V339.282H49.6458V325.392ZM64.6894 335.547H63.4629V325.392H64.6894V335.547ZM53.5402 329.768C53.5402 329.112 53.6986 328.527 54.0154 328.011C54.3321 327.492 54.7686 327.088 55.3248 326.801C55.8809 326.51 56.5016 326.365 57.1866 326.365C57.8717 326.365 58.4905 326.51 59.043 326.801C59.5992 327.088 60.0338 327.492 60.3469 328.011C60.6636 328.527 60.822 329.112 60.822 329.768C60.822 330.431 60.6636 331.022 60.3469 331.541C60.0338 332.061 59.5992 332.466 59.043 332.757C58.4905 333.044 57.8717 333.186 57.1866 333.182C56.5016 333.186 55.8809 333.044 55.3248 332.757C54.7686 332.466 54.3321 332.061 54.0154 331.541C53.6986 331.022 53.5402 330.431 53.5402 329.768ZM54.7446 329.768C54.741 330.221 54.8441 330.626 55.054 330.983C55.2677 331.337 55.5605 331.613 55.9325 331.812C56.3045 332.011 56.7225 332.11 57.1866 332.11C57.6434 332.11 58.0577 332.011 58.4297 331.812C58.8017 331.613 59.0946 331.337 59.3082 330.983C59.5218 330.626 59.6286 330.221 59.6286 329.768C59.6286 329.322 59.5218 328.923 59.3082 328.569C59.0946 328.215 58.8017 327.939 58.4297 327.74C58.0577 327.538 57.6434 327.436 57.1866 327.436C56.7225 327.436 56.3045 327.536 55.9325 327.735C55.5605 327.934 55.2677 328.212 55.054 328.569C54.8441 328.923 54.741 329.322 54.7446 329.768ZM55.717 334.508H56.9435V337.945H65.1203V338.961H55.717V334.508Z" fill="#9CA3AF"/>
<path d="M391.512 340.454H390.133V324.804H391.512V340.454ZM379.218 331.454C379.218 330.365 379.386 329.41 379.722 328.589C380.061 327.769 380.534 327.135 381.139 326.687C381.744 326.24 382.434 326.014 383.209 326.01C383.979 326.014 384.665 326.24 385.266 326.687C385.871 327.135 386.343 327.771 386.683 328.595C387.027 329.416 387.199 330.369 387.199 331.454C387.199 332.544 387.027 333.501 386.683 334.326C386.343 335.151 385.871 335.787 385.266 336.234C384.661 336.677 383.975 336.899 383.209 336.899C382.434 336.899 381.744 336.677 381.139 336.234C380.534 335.787 380.061 335.153 379.722 334.332C379.386 333.508 379.218 332.548 379.218 331.454ZM380.548 331.454C380.548 332.291 380.66 333.029 380.884 333.667C381.108 334.305 381.421 334.798 381.823 335.146C382.229 335.494 382.691 335.669 383.209 335.669C383.727 335.669 384.184 335.494 384.582 335.146C384.984 334.798 385.297 334.305 385.521 333.667C385.744 333.029 385.856 332.291 385.856 331.454C385.856 330.622 385.744 329.888 385.521 329.254C385.297 328.616 384.984 328.123 384.582 327.775C384.184 327.423 383.727 327.244 383.209 327.24C382.691 327.244 382.229 327.423 381.823 327.775C381.421 328.123 381.108 328.616 380.884 329.254C380.66 329.888 380.548 330.622 380.548 331.454ZM398.367 326.01C399.134 326.014 399.816 326.24 400.412 326.687C401.009 327.135 401.475 327.769 401.811 328.589C402.146 329.41 402.316 330.365 402.32 331.454C402.316 332.548 402.146 333.508 401.811 334.332C401.475 335.153 401.009 335.787 400.412 336.234C399.816 336.677 399.134 336.899 398.367 336.899C397.601 336.899 396.919 336.677 396.323 336.234C395.726 335.787 395.262 335.153 394.93 334.332C394.599 333.508 394.435 332.548 394.439 331.454C394.435 330.365 394.599 329.41 394.93 328.589C395.262 327.769 395.726 327.135 396.323 326.687C396.919 326.24 397.601 326.014 398.367 326.01ZM395.744 331.454C395.744 332.291 395.854 333.029 396.074 333.667C396.298 334.305 396.608 334.798 397.006 335.146C397.404 335.494 397.858 335.669 398.367 335.669C398.885 335.669 399.341 335.494 399.735 335.146C400.133 334.798 400.441 334.307 400.661 333.673C400.881 333.035 400.99 332.296 400.99 331.454C400.99 330.617 400.881 329.882 400.661 329.248C400.441 328.614 400.133 328.123 399.735 327.775C399.341 327.423 398.885 327.244 398.367 327.24C397.858 327.244 397.404 327.423 397.006 327.775C396.608 328.123 396.298 328.616 396.074 329.254C395.854 329.888 395.744 330.622 395.744 331.454ZM404.906 324.804H406.286V331.044H408.896V332.225H406.286V340.43H404.906V324.804ZM424.006 332.486H409.747V331.367H424.006V332.486ZM411.475 333.878H422.153V337.508H412.867V339.124H422.626V340.243H411.512V336.464H420.798V334.96H411.475V333.878ZM411.649 325.338H422.141V326.457H413.029V328.956H422.303V330.087H411.649V325.338Z" fill="#111827"/>
<mask id="path-19-inside-2_244_2554" fill="white">
<path d="M25 353H425V405H25V353Z"/>
</mask>
<path d="M425 404H25V406H425V404Z" fill="#D1D5DB" mask="url(#path-19-inside-2_244_2554)"/>
<path d="M37.0331 364.829H35.8066V357.381H37.0331V364.829ZM25.884 361.249C25.884 360.626 26.0405 360.072 26.3536 359.586C26.6667 359.099 27.0994 358.722 27.6519 358.453C28.2081 358.184 28.8343 358.052 29.5304 358.055C30.2265 358.052 30.8508 358.184 31.4033 358.453C31.9558 358.722 32.3867 359.099 32.6961 359.586C33.0092 360.072 33.1657 360.626 33.1657 361.249C33.1657 361.871 33.0092 362.424 32.6961 362.906C32.3867 363.389 31.9558 363.764 31.4033 364.033C30.8508 364.302 30.2265 364.435 29.5304 364.431C28.8343 364.435 28.2081 364.302 27.6519 364.033C27.0994 363.764 26.6667 363.389 26.3536 362.906C26.0405 362.42 25.884 361.867 25.884 361.249ZM27.0884 361.249C27.0847 361.665 27.186 362.039 27.3923 362.37C27.6022 362.698 27.8932 362.954 28.2652 363.138C28.6372 363.322 29.0589 363.414 29.5304 363.414C29.9982 363.414 30.4162 363.322 30.7845 363.138C31.1565 362.954 31.4475 362.698 31.6575 362.37C31.8674 362.039 31.9724 361.665 31.9724 361.249C31.9724 360.832 31.8674 360.46 31.6575 360.133C31.4475 359.801 31.1565 359.545 30.7845 359.365C30.4162 359.18 29.9982 359.09 29.5304 359.094C29.0589 359.09 28.6372 359.18 28.2652 359.365C27.8932 359.545 27.6022 359.801 27.3923 360.133C27.186 360.46 27.0847 360.832 27.0884 361.249ZM28.0387 365.536H29.2431V367.227H35.8177V365.536H37.0331V371.083H28.0387V365.536ZM35.8177 370.077V368.21H29.2431V370.077H35.8177ZM50.4414 359.149C50.4414 359.643 50.434 360.076 50.4193 360.448C50.4082 360.82 50.3751 361.243 50.3198 361.718C50.2683 362.193 50.1836 362.7 50.0657 363.238H52.1099V364.254H39.3917V363.238H48.8337C48.9552 362.696 49.0436 362.188 49.0988 361.713C49.1578 361.238 49.1928 360.816 49.2038 360.448C49.2185 360.079 49.2259 359.646 49.2259 359.149V359.138H41.0049V358.122H50.4414V359.149ZM40.9607 366.166H50.4966V371.083H40.9607V366.166ZM49.2812 370.077V367.138H42.1651V370.077H49.2812ZM65.1093 371.271H63.938V357.381H65.1093V371.271ZM53.2087 367.381C54.6857 366.505 55.8183 365.457 56.6065 364.238C57.3984 363.015 57.857 361.661 57.9822 360.177H53.8275V359.149H59.1977C59.1977 359.875 59.1351 360.575 59.0098 361.249H61.1203V357.757H62.3027V370.564H61.1203V365.746H58.5458V364.729H61.1203V362.265H58.7723C58.4224 363.481 57.8496 364.595 57.054 365.608C56.2621 366.617 55.2272 367.503 53.9491 368.265L53.2087 367.381ZM71.9208 359.867C71.9172 360.449 72.0608 361.006 72.3518 361.536C72.6464 362.063 73.0553 362.525 73.5783 362.923C74.105 363.317 74.7054 363.617 75.3794 363.823L74.7938 364.796C73.9871 364.541 73.28 364.157 72.6722 363.641C72.0682 363.125 71.6151 362.519 71.3131 361.823C71.0074 362.575 70.5433 363.228 69.9208 363.785C69.3021 364.337 68.5765 364.751 67.744 365.028L67.1142 364.055C67.8103 363.838 68.4273 363.521 68.965 363.105C69.5028 362.689 69.9227 362.203 70.2247 361.646C70.5267 361.087 70.6796 360.494 70.6833 359.867V359.702H67.5341V358.674H75.0479V359.702H71.9208V359.867ZM66.8711 367.326C68.5028 367.326 69.7772 367.313 70.6943 367.287V364.453H71.9208V367.243C73.3941 367.173 74.6428 367.064 75.6667 366.917L75.7551 367.823C74.8343 367.985 73.8711 368.105 72.8656 368.182C71.8601 368.26 70.9245 368.308 70.059 368.326C69.1971 368.344 68.1971 368.354 67.059 368.354L66.8711 367.326ZM76.5617 357.381H77.7772V363.149H80.0424V364.199H77.7772V371.271H76.5617V357.381Z" fill="#9CA3AF"/>
<path d="M223.66 360.421H227.141V357.985H228.434V365.17H222.355V357.985H223.66V360.421ZM227.141 364.051V361.528H223.66V364.051H227.141ZM224.493 369.583C224.489 368.99 224.696 368.483 225.115 368.06C225.537 367.637 226.142 367.316 226.93 367.097C227.721 366.873 228.657 366.761 229.739 366.761C230.812 366.761 231.742 366.873 232.53 367.097C233.321 367.316 233.928 367.64 234.351 368.066C234.773 368.489 234.985 368.994 234.985 369.583C234.985 370.167 234.773 370.671 234.351 371.093C233.928 371.516 233.321 371.837 232.53 372.057C231.742 372.28 230.812 372.392 229.739 372.392C228.657 372.392 227.721 372.28 226.93 372.057C226.142 371.837 225.537 371.516 225.115 371.093C224.696 370.675 224.489 370.171 224.493 369.583ZM225.86 369.583C225.856 369.939 226.01 370.246 226.32 370.503C226.635 370.76 227.085 370.956 227.669 371.093C228.253 371.23 228.943 371.298 229.739 371.298C230.526 371.298 231.21 371.23 231.79 371.093C232.374 370.956 232.824 370.76 233.139 370.503C233.454 370.246 233.613 369.939 233.617 369.583C233.613 369.222 233.454 368.912 233.139 368.651C232.824 368.39 232.374 368.191 231.79 368.054C231.21 367.913 230.526 367.843 229.739 367.843C228.943 367.843 228.253 367.913 227.669 368.054C227.085 368.191 226.635 368.39 226.32 368.651C226.01 368.912 225.856 369.222 225.86 369.583ZM230.211 357.115H231.504V360.981H233.593V356.816H234.898V366.388H233.593V362.124H231.504V365.916H230.211V357.115ZM245.507 357.885C245.499 359.916 244.892 361.64 243.686 363.057C242.48 364.474 240.642 365.547 238.173 366.276L237.651 365.145C240.224 364.412 242.024 363.291 243.052 361.782L237.762 362.186L237.526 361.043L243.605 360.769C243.829 360.222 243.97 359.634 244.028 359.004H238.309V357.885H245.507ZM239.615 369.409C239.615 368.783 239.826 368.247 240.249 367.799C240.675 367.352 241.287 367.012 242.082 366.78C242.878 366.544 243.82 366.425 244.91 366.425C245.983 366.425 246.916 366.544 247.707 366.78C248.499 367.016 249.106 367.358 249.528 367.805C249.955 368.253 250.169 368.787 250.169 369.409C250.169 370.035 249.955 370.571 249.528 371.019C249.106 371.466 248.499 371.806 247.707 372.038C246.92 372.274 245.988 372.392 244.91 372.392C243.816 372.392 242.872 372.274 242.076 372.038C241.285 371.806 240.675 371.466 240.249 371.019C239.826 370.571 239.615 370.035 239.615 369.409ZM240.994 369.409C240.994 369.794 241.152 370.13 241.467 370.416C241.782 370.702 242.233 370.919 242.822 371.068C243.41 371.222 244.106 371.298 244.91 371.298C245.702 371.298 246.39 371.222 246.974 371.068C247.558 370.915 248.008 370.698 248.323 370.416C248.642 370.13 248.801 369.794 248.801 369.409C248.801 369.023 248.642 368.69 248.323 368.408C248.008 368.122 247.558 367.903 246.974 367.749C246.39 367.596 245.702 367.519 244.91 367.519C244.106 367.519 243.41 367.596 242.822 367.749C242.233 367.898 241.782 368.116 241.467 368.402C241.152 368.688 240.994 369.023 240.994 369.409ZM248.714 356.816H250.094V366.214H248.714V356.816ZM266.993 366.164H252.747V365.046H266.993V366.164ZM254.326 360.446C254.326 359.804 254.55 359.249 254.997 358.78C255.449 358.312 256.091 357.956 256.924 357.711C257.757 357.467 258.735 357.347 259.858 357.351C260.977 357.347 261.95 357.467 262.779 357.711C263.612 357.956 264.252 358.312 264.7 358.78C265.151 359.249 265.377 359.804 265.377 360.446C265.377 361.088 265.151 361.646 264.7 362.118C264.252 362.586 263.612 362.945 262.779 363.193C261.95 363.442 260.977 363.566 259.858 363.566C258.735 363.566 257.757 363.442 256.924 363.193C256.091 362.945 255.449 362.586 254.997 362.118C254.55 361.646 254.326 361.088 254.326 360.446ZM254.587 367.544H255.979V370.938H265.402V372.081H254.587V367.544ZM255.756 360.446C255.751 360.856 255.915 361.211 256.247 361.509C256.582 361.807 257.059 362.037 257.676 362.199C258.298 362.356 259.025 362.435 259.858 362.435C260.691 362.435 261.416 362.356 262.033 362.199C262.655 362.037 263.133 361.807 263.469 361.509C263.805 361.211 263.972 360.856 263.972 360.446C263.972 360.044 263.805 359.694 263.469 359.396C263.133 359.097 262.655 358.869 262.033 358.712C261.416 358.55 260.691 358.47 259.858 358.47C259.025 358.47 258.298 358.55 257.676 358.712C257.059 358.869 256.582 359.097 256.247 359.396C255.915 359.694 255.751 360.044 255.756 360.446ZM281.568 366.699H280.262V362.211H278.162V366.14H276.869V357.115H278.162V361.068H280.262V356.804H281.568V366.699ZM268.217 358.681H271.561V356.916H272.928V358.681H276.235V359.787H268.217V358.681ZM268.901 363.293C268.896 362.758 269.035 362.29 269.317 361.888C269.599 361.482 269.992 361.169 270.498 360.95C271.003 360.73 271.582 360.62 272.232 360.62C272.891 360.62 273.473 360.73 273.979 360.95C274.488 361.169 274.884 361.482 275.166 361.888C275.452 362.29 275.597 362.758 275.601 363.293C275.597 363.823 275.452 364.289 275.166 364.691C274.884 365.093 274.488 365.404 273.979 365.624C273.473 365.843 272.891 365.953 272.232 365.953C271.582 365.953 271.003 365.843 270.498 365.624C269.992 365.404 269.599 365.093 269.317 364.691C269.035 364.289 268.896 363.823 268.901 363.293ZM270.131 363.293C270.131 363.612 270.218 363.896 270.392 364.144C270.57 364.389 270.819 364.579 271.138 364.716C271.457 364.853 271.822 364.921 272.232 364.921C272.646 364.921 273.013 364.853 273.332 364.716C273.651 364.579 273.9 364.389 274.078 364.144C274.256 363.896 274.345 363.612 274.345 363.293C274.345 362.97 274.256 362.684 274.078 362.435C273.9 362.186 273.651 361.994 273.332 361.857C273.013 361.72 272.646 361.652 272.232 361.652C271.822 361.652 271.457 361.72 271.138 361.857C270.819 361.994 270.57 362.186 270.392 362.435C270.218 362.684 270.131 362.97 270.131 363.293ZM271.163 369.695C271.159 369.115 271.364 368.622 271.778 368.215C272.197 367.805 272.798 367.494 273.581 367.283C274.368 367.068 275.311 366.96 276.409 366.96C277.503 366.96 278.441 367.068 279.224 367.283C280.012 367.494 280.613 367.805 281.027 368.215C281.445 368.622 281.655 369.115 281.655 369.695C281.655 370.262 281.445 370.747 281.027 371.149C280.613 371.555 280.012 371.864 279.224 372.075C278.437 372.287 277.499 372.392 276.409 372.392C275.315 372.392 274.374 372.287 273.587 372.075C272.8 371.864 272.197 371.555 271.778 371.149C271.364 370.747 271.159 370.262 271.163 369.695ZM272.53 369.695C272.526 370.03 272.678 370.32 272.984 370.565C273.295 370.809 273.74 370.996 274.32 371.124C274.905 371.253 275.601 371.315 276.409 371.311C277.213 371.315 277.905 371.253 278.485 371.124C279.065 370.996 279.508 370.811 279.815 370.571C280.126 370.327 280.283 370.035 280.287 369.695C280.283 369.343 280.126 369.042 279.815 368.794C279.508 368.545 279.065 368.356 278.485 368.228C277.905 368.099 277.213 368.037 276.409 368.041C275.597 368.037 274.899 368.099 274.314 368.228C273.734 368.356 273.291 368.545 272.984 368.794C272.678 369.042 272.526 369.343 272.53 369.695ZM288.627 367.097L294.357 358.271H296.297V367.01H298.087V368.402H296.297V371H294.792V368.402H288.627V367.097ZM294.792 367.01V360.272H294.643L290.33 366.91V367.01H294.792ZM304.322 371.174C303.564 371.174 302.876 371.029 302.258 370.739C301.641 370.449 301.148 370.049 300.779 369.539C300.414 369.026 300.216 368.448 300.182 367.805H301.724C301.761 368.178 301.898 368.516 302.134 368.818C302.374 369.117 302.685 369.353 303.066 369.527C303.452 369.697 303.87 369.782 304.322 369.782C304.865 369.782 305.352 369.66 305.783 369.415C306.218 369.171 306.557 368.835 306.802 368.408C307.046 367.981 307.169 367.503 307.169 366.972C307.169 366.43 307.04 365.941 306.783 365.506C306.53 365.066 306.178 364.722 305.727 364.474C305.279 364.221 304.774 364.093 304.21 364.088C303.075 364.076 302.283 364.457 301.836 365.232H300.307L301.202 358.271H308.101V359.675H302.519L302.047 363.405H302.184C302.47 363.181 302.816 363.003 303.222 362.87C303.632 362.738 304.057 362.671 304.496 362.671C305.296 362.671 306.015 362.856 306.653 363.224C307.295 363.589 307.798 364.097 308.163 364.747C308.528 365.394 308.71 366.123 308.71 366.935C308.71 367.743 308.521 368.47 308.144 369.117C307.767 369.759 307.245 370.262 306.578 370.627C305.911 370.992 305.159 371.174 304.322 371.174ZM315.385 371.174C314.565 371.174 313.802 370.99 313.098 370.621C312.398 370.248 311.822 369.612 311.37 368.713C310.923 367.809 310.699 366.612 310.699 365.12C310.699 363.637 310.894 362.369 311.283 361.316C311.673 360.264 312.23 359.464 312.955 358.917C313.68 358.37 314.54 358.097 315.534 358.097C316.268 358.097 316.927 358.24 317.511 358.526C318.099 358.807 318.578 359.203 318.947 359.713C319.316 360.218 319.554 360.802 319.662 361.465H318.095C317.946 360.877 317.652 360.403 317.213 360.042C316.773 359.682 316.214 359.501 315.534 359.501C314.842 359.501 314.246 359.694 313.744 360.079C313.243 360.461 312.858 361.016 312.588 361.745C312.323 362.474 312.191 363.347 312.191 364.362H312.352C312.721 363.823 313.187 363.407 313.751 363.113C314.318 362.818 314.942 362.671 315.621 362.671C316.371 362.671 317.063 362.854 317.697 363.218C318.331 363.579 318.835 364.08 319.208 364.722C319.585 365.365 319.773 366.086 319.773 366.885C319.773 367.681 319.591 368.406 319.226 369.061C318.862 369.711 318.346 370.227 317.679 370.608C317.016 370.985 316.251 371.174 315.385 371.174ZM312.414 366.923C312.414 367.42 312.541 367.888 312.793 368.327C313.046 368.767 313.394 369.119 313.838 369.384C314.285 369.649 314.784 369.782 315.336 369.782C315.874 369.782 316.365 369.653 316.809 369.396C317.252 369.14 317.6 368.791 317.853 368.352C318.11 367.909 318.24 367.424 318.244 366.898C318.24 366.384 318.114 365.912 317.865 365.481C317.621 365.046 317.281 364.702 316.846 364.449C316.411 364.192 315.924 364.064 315.385 364.064C314.842 364.064 314.343 364.196 313.887 364.461C313.436 364.727 313.077 365.079 312.812 365.518C312.551 365.957 312.418 366.425 312.414 366.923ZM328.19 359.775V359.675H321.464V358.271H329.83V359.75L324.013 371H322.347L328.19 359.775ZM335.899 371.174C335.016 371.174 334.231 371.023 333.543 370.72C332.855 370.418 332.321 369.997 331.939 369.459C331.558 368.916 331.37 368.302 331.374 367.619C331.37 367.084 331.481 366.585 331.709 366.121C331.937 365.653 332.248 365.267 332.642 364.965C333.039 364.658 333.479 364.465 333.959 364.387V364.325C333.545 364.225 333.178 364.039 332.859 363.765C332.54 363.492 332.294 363.156 332.12 362.758C331.946 362.36 331.859 361.934 331.859 361.478C331.859 360.836 332.033 360.258 332.381 359.744C332.729 359.23 333.209 358.828 333.823 358.538C334.44 358.244 335.132 358.097 335.899 358.097C336.661 358.097 337.347 358.244 337.956 358.538C338.569 358.828 339.05 359.23 339.398 359.744C339.746 360.258 339.922 360.836 339.926 361.478C339.922 361.934 339.831 362.36 339.653 362.758C339.479 363.156 339.232 363.492 338.913 363.765C338.598 364.039 338.236 364.225 337.825 364.325V364.387C338.302 364.465 338.737 364.658 339.131 364.965C339.528 365.267 339.841 365.653 340.069 366.121C340.301 366.585 340.419 367.084 340.423 367.619C340.419 368.302 340.225 368.916 339.839 369.459C339.454 369.997 338.917 370.418 338.229 370.72C337.546 371.023 336.769 371.174 335.899 371.174ZM332.952 367.532C332.944 367.979 333.058 368.373 333.294 368.713C333.53 369.048 333.872 369.311 334.32 369.502C334.767 369.689 335.294 369.782 335.899 369.782C336.495 369.782 337.015 369.689 337.459 369.502C337.902 369.311 338.244 369.048 338.484 368.713C338.725 368.373 338.845 367.979 338.845 367.532C338.845 367.068 338.716 366.651 338.459 366.282C338.207 365.914 337.856 365.624 337.409 365.412C336.961 365.201 336.458 365.095 335.899 365.095C335.335 365.095 334.827 365.201 334.376 365.412C333.924 365.624 333.572 365.916 333.319 366.289C333.066 366.657 332.944 367.072 332.952 367.532ZM333.4 361.59C333.4 362.017 333.506 362.394 333.717 362.721C333.928 363.048 334.222 363.303 334.6 363.485C334.981 363.664 335.414 363.753 335.899 363.753C336.375 363.753 336.802 363.664 337.179 363.485C337.556 363.303 337.85 363.048 338.062 362.721C338.277 362.39 338.385 362.012 338.385 361.59C338.385 361.171 338.279 360.802 338.068 360.483C337.861 360.16 337.568 359.91 337.191 359.731C336.818 359.553 336.388 359.464 335.899 359.464C335.401 359.464 334.962 359.553 334.581 359.731C334.204 359.91 333.912 360.16 333.705 360.483C333.501 360.802 333.4 361.171 333.4 361.59ZM346.74 358.097C347.556 358.097 348.315 358.283 349.015 358.656C349.715 359.029 350.289 359.665 350.737 360.564C351.188 361.459 351.414 362.646 351.414 364.126C351.414 365.617 351.219 366.892 350.83 367.948C350.44 369.001 349.883 369.802 349.158 370.354C348.433 370.901 347.573 371.174 346.578 371.174C345.845 371.174 345.184 371.033 344.596 370.751C344.007 370.47 343.527 370.074 343.154 369.564C342.785 369.05 342.547 368.456 342.439 367.78H344.005C344.154 368.381 344.449 368.864 344.888 369.229C345.331 369.589 345.895 369.769 346.578 369.769C347.266 369.769 347.861 369.577 348.362 369.191C348.868 368.806 349.255 368.249 349.525 367.519C349.794 366.786 349.931 365.907 349.935 364.884H349.761C349.392 365.419 348.924 365.835 348.356 366.133C347.793 366.427 347.175 366.575 346.504 366.575C345.75 366.575 345.054 366.394 344.415 366.034C343.781 365.669 343.276 365.166 342.899 364.523C342.526 363.881 342.339 363.16 342.339 362.36C342.339 361.577 342.52 360.86 342.88 360.21C343.245 359.559 343.761 359.046 344.428 358.669C345.099 358.287 345.87 358.097 346.74 358.097ZM343.881 362.348C343.881 362.87 344.003 363.349 344.248 363.784C344.496 364.215 344.838 364.557 345.273 364.809C345.708 365.058 346.197 365.182 346.74 365.182C347.279 365.182 347.772 365.05 348.219 364.785C348.671 364.515 349.027 364.161 349.288 363.722C349.554 363.282 349.686 362.816 349.686 362.323C349.686 361.834 349.56 361.372 349.307 360.937C349.054 360.502 348.706 360.152 348.263 359.887C347.824 359.622 347.333 359.489 346.79 359.489C346.247 359.489 345.752 359.617 345.304 359.874C344.861 360.131 344.511 360.479 344.254 360.919C344.001 361.354 343.877 361.83 343.881 362.348ZM357.754 371.174C356.818 371.174 356.016 370.919 355.349 370.41C354.686 369.896 354.178 369.15 353.826 368.172C353.478 367.194 353.304 366.015 353.304 364.635C353.304 363.268 353.48 362.095 353.832 361.117C354.184 360.135 354.694 359.387 355.361 358.874C356.028 358.356 356.826 358.097 357.754 358.097C358.682 358.097 359.48 358.356 360.147 358.874C360.814 359.387 361.324 360.135 361.676 361.117C362.028 362.095 362.204 363.268 362.204 364.635C362.204 366.015 362.028 367.194 361.676 368.172C361.328 369.15 360.821 369.896 360.153 370.41C359.49 370.919 358.691 371.174 357.754 371.174ZM354.845 364.635C354.845 365.725 354.959 366.655 355.187 367.426C355.415 368.193 355.747 368.775 356.182 369.173C356.617 369.57 357.141 369.769 357.754 369.769C358.367 369.769 358.892 369.57 359.327 369.173C359.762 368.775 360.093 368.193 360.321 367.426C360.549 366.655 360.663 365.725 360.663 364.635C360.663 363.546 360.547 362.615 360.315 361.845C360.087 361.07 359.756 360.481 359.321 360.079C358.885 359.677 358.363 359.477 357.754 359.477C357.145 359.477 356.623 359.677 356.188 360.079C355.753 360.481 355.419 361.07 355.187 361.845C354.959 362.615 354.845 363.546 354.845 364.635ZM368.813 371H367.221V359.924H367.147L364.051 361.975V360.384L367.221 358.271H368.813V371ZM372.193 369.844L376.531 365.269C377.103 364.66 377.538 364.171 377.836 363.802C378.139 363.43 378.369 363.071 378.526 362.727C378.684 362.379 378.764 362.017 378.769 361.64C378.764 361.209 378.651 360.829 378.427 360.502C378.207 360.175 377.905 359.922 377.519 359.744C377.138 359.566 376.709 359.477 376.233 359.477C375.735 359.477 375.298 359.576 374.921 359.775C374.548 359.974 374.26 360.253 374.057 360.614C373.858 360.974 373.759 361.391 373.759 361.863H372.255C372.251 361.126 372.423 360.473 372.771 359.905C373.123 359.334 373.606 358.89 374.219 358.575C374.832 358.256 375.52 358.097 376.282 358.097C377.037 358.097 377.714 358.254 378.315 358.569C378.92 358.88 379.392 359.305 379.732 359.843C380.072 360.382 380.244 360.981 380.248 361.64C380.244 362.124 380.153 362.588 379.974 363.032C379.8 363.471 379.504 363.96 379.086 364.499C378.671 365.037 378.081 365.7 377.314 366.488L374.405 369.496V369.595H380.472V371H372.205L372.193 369.844ZM387.17 371.174C386.333 371.174 385.583 371.033 384.92 370.751C384.257 370.47 383.733 370.074 383.348 369.564C382.966 369.055 382.761 368.468 382.732 367.805H384.336C384.365 368.199 384.506 368.545 384.758 368.843C385.011 369.137 385.345 369.365 385.759 369.527C386.178 369.689 386.64 369.769 387.145 369.769C387.7 369.769 388.198 369.676 388.637 369.49C389.076 369.299 389.42 369.034 389.669 368.694C389.917 368.354 390.042 367.967 390.042 367.532C390.042 367.068 389.919 366.657 389.675 366.301C389.435 365.945 389.082 365.667 388.618 365.468C388.154 365.269 387.597 365.17 386.946 365.17H385.915V363.778H386.946C387.46 363.778 387.916 363.686 388.314 363.504C388.716 363.322 389.026 363.067 389.246 362.74C389.47 362.408 389.582 362.025 389.582 361.59C389.582 361.171 389.484 360.802 389.29 360.483C389.095 360.164 388.817 359.918 388.457 359.744C388.096 359.566 387.676 359.477 387.195 359.477C386.739 359.477 386.31 359.557 385.908 359.719C385.511 359.881 385.187 360.113 384.939 360.415C384.69 360.713 384.555 361.064 384.535 361.465H383.006C383.031 360.811 383.234 360.229 383.615 359.719C383.996 359.205 384.504 358.807 385.138 358.526C385.772 358.24 386.466 358.097 387.22 358.097C388.003 358.097 388.689 358.252 389.277 358.563C389.87 358.874 390.323 359.29 390.638 359.812C390.957 360.334 391.115 360.902 391.111 361.515C391.115 361.988 391.03 362.419 390.856 362.808C390.682 363.198 390.431 363.527 390.104 363.796C389.776 364.066 389.391 364.262 388.948 364.387V364.486C389.495 364.569 389.967 364.749 390.365 365.027C390.767 365.3 391.073 365.655 391.285 366.09C391.496 366.521 391.6 367.006 391.596 367.544C391.6 368.228 391.409 368.847 391.024 369.403C390.642 369.954 390.112 370.387 389.433 370.702C388.757 371.017 388.003 371.174 387.17 371.174ZM398.043 371.174C397.107 371.174 396.305 370.919 395.638 370.41C394.975 369.896 394.467 369.15 394.115 368.172C393.767 367.194 393.593 366.015 393.593 364.635C393.593 363.268 393.769 362.095 394.121 361.117C394.474 360.135 394.983 359.387 395.65 358.874C396.317 358.356 397.115 358.097 398.043 358.097C398.971 358.097 399.769 358.356 400.436 358.874C401.103 359.387 401.613 360.135 401.965 361.117C402.317 362.095 402.494 363.268 402.494 364.635C402.494 366.015 402.317 367.194 401.965 368.172C401.617 369.15 401.11 369.896 400.442 370.41C399.779 370.919 398.98 371.174 398.043 371.174ZM395.134 364.635C395.134 365.725 395.248 366.655 395.476 367.426C395.704 368.193 396.036 368.775 396.471 369.173C396.906 369.57 397.43 369.769 398.043 369.769C398.657 369.769 399.181 369.57 399.616 369.173C400.051 368.775 400.382 368.193 400.61 367.426C400.838 366.655 400.952 365.725 400.952 364.635C400.952 363.546 400.836 362.615 400.604 361.845C400.376 361.07 400.045 360.481 399.61 360.079C399.174 359.677 398.652 359.477 398.043 359.477C397.434 359.477 396.912 359.677 396.477 360.079C396.042 360.481 395.708 361.07 395.476 361.845C395.248 362.615 395.134 363.546 395.134 364.635ZM408.766 371.174C407.829 371.174 407.028 370.919 406.361 370.41C405.698 369.896 405.19 369.15 404.838 368.172C404.49 367.194 404.316 366.015 404.316 364.635C404.316 363.268 404.492 362.095 404.844 361.117C405.196 360.135 405.706 359.387 406.373 358.874C407.04 358.356 407.838 358.097 408.766 358.097C409.694 358.097 410.492 358.356 411.159 358.874C411.826 359.387 412.336 360.135 412.688 361.117C413.04 362.095 413.216 363.268 413.216 364.635C413.216 366.015 413.04 367.194 412.688 368.172C412.34 369.15 411.832 369.896 411.165 370.41C410.502 370.919 409.702 371.174 408.766 371.174ZM405.857 364.635C405.857 365.725 405.971 366.655 406.199 367.426C406.427 368.193 406.758 368.775 407.193 369.173C407.629 369.57 408.153 369.769 408.766 369.769C409.379 369.769 409.903 369.57 410.338 369.173C410.774 368.775 411.105 368.193 411.333 367.426C411.561 366.655 411.675 365.725 411.675 364.635C411.675 363.546 411.559 362.615 411.327 361.845C411.099 361.07 410.767 360.481 410.332 360.079C409.897 359.677 409.375 359.477 408.766 359.477C408.157 359.477 407.635 359.677 407.2 360.079C406.765 360.481 406.431 361.07 406.199 361.845C405.971 362.615 405.857 363.546 405.857 364.635ZM419.489 371.174C418.552 371.174 417.75 370.919 417.083 370.41C416.42 369.896 415.913 369.15 415.56 368.172C415.212 367.194 415.038 366.015 415.038 364.635C415.038 363.268 415.214 362.095 415.567 361.117C415.919 360.135 416.429 359.387 417.096 358.874C417.763 358.356 418.56 358.097 419.489 358.097C420.417 358.097 421.214 358.356 421.882 358.874C422.549 359.387 423.058 360.135 423.411 361.117C423.763 362.095 423.939 363.268 423.939 364.635C423.939 366.015 423.763 367.194 423.411 368.172C423.062 369.15 422.555 369.896 421.888 370.41C421.225 370.919 420.425 371.174 419.489 371.174ZM416.58 364.635C416.58 365.725 416.694 366.655 416.922 367.426C417.15 368.193 417.481 368.775 417.916 369.173C418.351 369.57 418.875 369.769 419.489 369.769C420.102 369.769 420.626 369.57 421.061 369.173C421.496 368.775 421.828 368.193 422.056 367.426C422.283 366.655 422.397 365.725 422.397 364.635C422.397 363.546 422.281 362.615 422.049 361.845C421.821 361.07 421.49 360.481 421.055 360.079C420.62 359.677 420.098 359.477 419.489 359.477C418.879 359.477 418.357 359.677 417.922 360.079C417.487 360.481 417.154 361.07 416.922 361.845C416.694 362.615 416.58 363.546 416.58 364.635Z" fill="#111827"/>
<rect x="355" y="420" width="30" height="30" rx="15" fill="#6B7280"/>
<mask id="mask4_244_2554" style="mask-type:alpha" maskUnits="userSpaceOnUse" x="360" y="425" width="20" height="20">
<rect x="360" y="425" width="20" height="20" fill="#D9D9D9"/>
</mask>
<g mask="url(#mask4_244_2554)">
<path d="M363.5 441C363.097 441 362.747 440.851 362.448 440.552C362.149 440.253 362 439.903 362 439.5V430.5C362 430.097 362.149 429.747 362.448 429.448C362.747 429.149 363.097 429 363.5 429H376.5C376.913 429 377.266 429.149 377.559 429.448C377.853 429.747 378 430.097 378 430.5V439.5C378 439.903 377.853 440.253 377.559 440.552C377.266 440.851 376.913 441 376.5 441H363.5ZM376.5 432.271L370.396 435.771C370.333 435.812 370.267 435.844 370.198 435.865C370.129 435.885 370.063 435.896 370 435.896C369.931 435.896 369.868 435.885 369.812 435.865C369.757 435.844 369.695 435.815 369.627 435.777L363.5 432.271V439.5H376.5V432.271ZM370 434.229L376.479 430.5H363.542L370 434.229ZM363.5 432.002V432.189V431.094V431.104V430.5V431.103V431.094V432.191V432.004V439.5V432.002Z" fill="white"/>
</g>
<rect x="395" y="420" width="30" height="30" rx="15" fill="#00C18A"/>
<mask id="mask5_244_2554" style="mask-type:alpha" maskUnits="userSpaceOnUse" x="400" y="425" width="20" height="20">
<rect x="400" y="425" width="20" height="20" fill="#D9D9D9"/>
</mask>
<g mask="url(#mask5_244_2554)">
<path d="M415.125 435.75H411.75C411.537 435.75 411.359 435.679 411.216 435.536C411.072 435.393 411 435.216 411 435.004C411 434.793 411.072 434.615 411.216 434.469C411.359 434.323 411.537 434.25 411.75 434.25H415.125L414.458 433.583C414.306 433.431 414.229 433.252 414.229 433.049C414.229 432.845 414.306 432.669 414.458 432.521C414.611 432.368 414.788 432.292 414.99 432.292C415.191 432.292 415.368 432.368 415.521 432.521L417.482 434.482C417.633 434.633 417.708 434.807 417.708 435.004C417.708 435.201 417.632 435.373 417.479 435.521L415.521 437.479C415.368 437.632 415.194 437.705 415 437.698C414.806 437.691 414.632 437.611 414.479 437.458C414.326 437.306 414.25 437.128 414.25 436.927C414.25 436.726 414.326 436.549 414.479 436.396L415.125 435.75ZM405.5 441.5V442.5H414.5V441.5H405.5ZM405.5 428.5H414.5V427.5H405.5V428.5ZM405.5 444C405.087 444 404.734 443.853 404.441 443.559C404.147 443.266 404 442.913 404 442.5V427.5C404 427.087 404.147 426.734 404.441 426.441C404.734 426.147 405.087 426 405.5 426H414.5C414.913 426 415.266 426.147 415.559 426.441C415.853 426.734 416 427.087 416 427.5V430.25C416 430.463 415.929 430.641 415.786 430.784C415.643 430.928 415.466 431 415.254 431C415.043 431 414.865 430.928 414.719 430.784C414.573 430.641 414.5 430.463 414.5 430.25V430H405.5V440H414.5V439.75C414.5 439.538 414.571 439.359 414.714 439.216C414.857 439.072 415.034 439 415.246 439C415.457 439 415.635 439.072 415.781 439.216C415.927 439.359 416 439.538 416 439.75V442.5C416 442.913 415.853 443.266 415.559 443.559C415.266 443.853 414.913 444 414.5 444H405.5Z" fill="white"/>
</g>
<path d="M25.5 737C25.5 734.515 27.5147 732.5 30 732.5H224.5V780.5H30C27.5147 780.5 25.5 778.485 25.5 776V737Z" stroke="#00C18A"/>
<path d="M93.7188 749.266V763.406H91.9688V749.266H93.7188ZM86.1094 750.297C88.2344 750.297 89.7812 752.234 89.7969 755.281C89.7812 758.359 88.2344 760.281 86.1094 760.281C83.9688 760.281 82.4219 758.359 82.4219 755.281C82.4219 752.234 83.9688 750.297 86.1094 750.297ZM86.1094 751.859C84.9062 751.859 84.0938 753.125 84.0938 755.281C84.0938 757.453 84.9062 758.719 86.1094 758.719C87.2969 758.719 88.1094 757.453 88.1094 755.281C88.1094 753.125 87.2969 751.859 86.1094 751.859ZM100.109 753.578C100.109 755.766 101.016 757.969 102.984 759.031L102.016 760.312C100.703 759.617 99.8125 758.375 99.3125 756.891C98.8125 758.492 97.9219 759.859 96.5938 760.641L95.5781 759.328C97.5781 758.172 98.4688 755.812 98.4688 753.578V753.141H96.0625V751.734H98.4688V749.766H100.109V751.734H102.469V753.141H100.109V753.578ZM107.953 749.266V763.391H106.297V749.266H107.953ZM105.078 749.531V762.703H103.438V756.125H101.594V754.688H103.438V749.531H105.078ZM125.609 749.266V763.391H123.953V749.266H125.609ZM122.688 749.609V762.719H121.031V758H118.828V756.578H121.031V754.484H119.078C118.414 756.828 116.938 758.844 114.297 760.406L113.281 759.172C116.211 757.445 117.555 755.234 117.812 752.391H114.031V750.984H119.531C119.531 751.695 119.484 752.391 119.391 753.062H121.031V749.609H122.688ZM140.125 756.203V757.609H127.25V756.203H132.812V754.234H134.531V756.203H140.125ZM134.547 750.031C134.547 751.75 136.438 753.312 139.391 753.688L138.719 755.047C136.398 754.688 134.555 753.641 133.656 752.156C132.75 753.641 130.906 754.688 128.578 755.047L127.953 753.688C130.859 753.312 132.781 751.719 132.781 750.031V749.5H134.547V750.031ZM138.547 758.734V763.391H136.812V760.094H128.672V758.734H138.547ZM152.141 749.266V754.891H154.312V756.328H152.141V763.391H150.422V749.266H152.141ZM149.328 751.438V752.828H141V751.438H144.344V749.469H146.078V751.438H149.328ZM145.219 753.75C147.25 753.75 148.766 755.125 148.766 757.078C148.766 759.031 147.25 760.391 145.219 760.391C143.156 760.391 141.641 759.031 141.656 757.078C141.641 755.125 143.156 753.75 145.219 753.75ZM145.219 755.172C144.109 755.172 143.312 755.922 143.312 757.078C143.312 758.234 144.109 758.969 145.219 758.953C146.297 758.969 147.094 758.234 147.109 757.078C147.094 755.922 146.297 755.172 145.219 755.172ZM166.703 749.266V763.391H164.953V749.266H166.703ZM162.484 750.766C162.484 754.969 160.859 758.547 155.906 760.891L155 759.5C158.695 757.742 160.414 755.352 160.719 752.141H155.719V750.766H162.484Z" fill="#00C18A"/>
<path d="M225 732H420C422.761 732 425 734.239 425 737V776C425 778.761 422.761 781 420 781H225V732Z" fill="#00C18A"/>
<path d="M315.734 749.875C317.797 749.875 319.266 751.016 319.281 752.719C319.266 754.117 318.211 755.172 316.641 755.469V756.609C317.812 756.547 318.992 756.438 320.094 756.281L320.234 757.547C317.297 758.078 314.016 758.125 311.625 758.125L311.438 756.734C312.453 756.742 313.641 756.734 314.891 756.688V755.469C313.273 755.203 312.188 754.141 312.203 752.719C312.188 751.016 313.656 749.875 315.734 749.875ZM315.734 751.203C314.609 751.203 313.812 751.766 313.828 752.719C313.812 753.641 314.609 754.219 315.734 754.234C316.859 754.219 317.625 753.641 317.641 752.719C317.625 751.766 316.859 751.203 315.734 751.203ZM322.656 749.281V753.844H324.562V755.281H322.656V760.062H320.922V749.281H322.656ZM323.156 761.688V763.094H313.375V759.109H315.109V761.688H323.156ZM338.203 760.312V761.75H325.297V760.312H328.719V757.984H326.828V753.375H334.953V751.641H326.797V750.234H336.672V754.766H328.562V756.578H337V757.984H334.938V760.312H338.203ZM330.406 760.312H333.234V757.984H330.406V760.312Z" fill="white"/>
</svg>
