<svg width="450" height="730" viewBox="0 0 450 730" fill="none" xmlns="http://www.w3.org/2000/svg">
<rect width="450" height="730" fill="white"/>
<mask id="mask0_244_2554" style="mask-type:alpha" maskUnits="userSpaceOnUse" x="25" y="20" width="40" height="40">
<rect x="25" y="20" width="40" height="40" fill="#D9D9D9"/>
</mask>
<g mask="url(#mask0_244_2554)">
<path d="M28.375 39.972L35.4583 47.0553C35.7267 47.3239 35.8562 47.6481 35.8471 48.0278C35.8379 48.4073 35.699 48.7313 35.4304 48.9999C35.1618 49.2685 34.8331 49.4028 34.4442 49.4028C34.0553 49.4028 33.7267 49.2685 33.4583 48.9999L25.4025 40.9445C25.2544 40.7962 25.1503 40.6434 25.09 40.4862C25.03 40.3287 25 40.1573 25 39.972C25 39.787 25.03 39.6158 25.09 39.4583C25.1503 39.3008 25.2544 39.148 25.4025 38.9999L33.4858 30.9166C33.7544 30.648 34.0832 30.5137 34.4721 30.5137C34.861 30.5137 35.1897 30.648 35.4583 30.9166C35.7267 31.1852 35.8608 31.5139 35.8608 31.9028C35.8608 32.2917 35.7267 32.6203 35.4583 32.8887L28.375 39.972Z" fill="#111827"/>
</g>
<path d="M64.2272 48.5539H62.3812V32.6796H64.2272V48.5539ZM50.3605 43.8239C51.9765 42.8667 53.1927 41.7645 54.009 40.5173C54.8294 39.2659 55.3142 37.826 55.4634 36.1975H51.212V34.6126H57.4088C57.4088 35.4123 57.3529 36.1892 57.241 36.9434H59.0932V33.0649H60.9517V47.8142H59.0932V42.4938H56.6133V40.9088H59.0932V38.5345H56.8992C56.5097 39.8978 55.8778 41.1367 55.0035 42.2514C54.1291 43.3619 52.9669 44.3481 51.5166 45.2099L50.3605 43.8239ZM75.2217 35.6257H71.9026C71.9234 36.2224 72.0808 36.7921 72.375 37.3349C72.6734 37.8778 73.1001 38.3605 73.6554 38.7831C74.2106 39.2017 74.8778 39.5249 75.6568 39.7528L74.7307 41.2818C73.8398 41.0207 73.0711 40.6291 72.4247 40.107C71.7825 39.5808 71.2832 38.9572 70.9268 38.2362C70.5705 39.0235 70.0587 39.7051 69.3916 40.2811C68.7286 40.857 67.9392 41.2859 67.0235 41.5677L66.0352 40.0387C66.8391 39.7983 67.5269 39.4565 68.0988 39.0131C68.6706 38.5656 69.1077 38.0518 69.4102 37.4717C69.7169 36.8874 69.8826 36.2721 69.9075 35.6257H66.576V34.0221H75.2217V35.6257ZM65.8923 43.8301C67.6202 43.8301 68.9689 43.8198 69.9385 43.799V40.8964H71.8902V43.7307C73.3239 43.6644 74.6022 43.5504 75.7251 43.3888L75.8619 44.8122C74.826 45.0028 73.7486 45.1436 72.6298 45.2348C71.5111 45.3218 70.4751 45.3757 69.5221 45.3964C68.5732 45.4171 67.4524 45.4275 66.1595 45.4275L65.8923 43.8301ZM76.6264 32.6796H78.578V39.0566H80.8778V40.6913H78.578V48.5539H76.6264V32.6796ZM94.8619 48.5912H92.8916V32.6796H94.8619V48.5912ZM82.1513 39.442C82.1513 38.3191 82.3274 37.3349 82.6796 36.4896C83.0359 35.6402 83.527 34.9855 84.1526 34.5256C84.7825 34.0615 85.4993 33.8294 86.3032 33.8294C87.0946 33.8294 87.8032 34.0615 88.4289 34.5256C89.0587 34.9855 89.5497 35.6402 89.902 36.4896C90.2583 37.3349 90.4365 38.3191 90.4365 39.442C90.4365 40.5732 90.2583 41.5656 89.902 42.4192C89.5497 43.2686 89.0587 43.9233 88.4289 44.3833C87.8032 44.8391 87.0946 45.067 86.3032 45.067C85.4993 45.067 84.7825 44.8391 84.1526 44.3833C83.5228 43.9233 83.0318 43.2686 82.6796 42.4192C82.3274 41.5656 82.1513 40.5732 82.1513 39.442ZM84.0346 39.442C84.0346 40.2417 84.1278 40.9337 84.3142 41.518C84.5049 42.0981 84.77 42.5414 85.1098 42.8481C85.4538 43.1506 85.8515 43.3018 86.3032 43.3018C86.7466 43.3018 87.1361 43.1485 87.4717 42.8419C87.8115 42.5352 88.0746 42.0919 88.2611 41.5117C88.4517 40.9316 88.547 40.2417 88.547 39.442C88.547 38.6464 88.4517 37.9606 88.2611 37.3847C88.0746 36.8046 87.8115 36.3612 87.4717 36.0546C87.1361 35.7479 86.7466 35.5946 86.3032 35.5946C85.8515 35.5946 85.4538 35.7479 85.1098 36.0546C84.77 36.3612 84.5049 36.8046 84.3142 37.3847C84.1278 37.9606 84.0346 38.6464 84.0346 39.442ZM102.053 37.5276C102.053 38.3729 102.169 39.1892 102.401 39.9765C102.637 40.7638 102.997 41.4786 103.482 42.1209C103.967 42.7631 104.568 43.2769 105.285 43.6623L104.197 45.0981C103.476 44.721 102.861 44.203 102.351 43.5442C101.841 42.8812 101.439 42.1167 101.145 41.2507C100.855 42.1872 100.453 43.02 99.9393 43.7493C99.4296 44.4744 98.8143 45.0483 98.0933 45.471L96.9558 43.9979C97.6768 43.5794 98.2797 43.0283 98.7645 42.3446C99.2493 41.6568 99.6098 40.9006 99.846 40.076C100.082 39.2472 100.202 38.3978 100.207 37.5276V37.0304H97.4966V35.4517H100.207V33.239H102.046V35.4517H104.707V37.0304H102.053V37.5276ZM103.718 38.7831H105.8V32.9779H107.634V47.7894H105.8V40.393H103.718V38.7831ZM109.014 32.6796H110.866V48.5539H109.014V32.6796Z" fill="#111827"/>
<mask id="mask1_244_2554" style="mask-type:alpha" maskUnits="userSpaceOnUse" x="326" y="20" width="40" height="40">
<rect x="326" y="20" width="40" height="40" fill="#D9D9D9"/>
</mask>
<g mask="url(#mask1_244_2554)">
<path d="M337.139 53.333C336.375 53.333 335.721 53.0611 335.177 52.5172C334.633 51.973 334.361 51.319 334.361 50.5551V37.3609L330.417 40.3468C330.101 40.5876 329.763 40.6872 329.402 40.6455C329.042 40.6038 328.741 40.4256 328.5 40.1109C328.259 39.7959 328.167 39.4533 328.222 39.083C328.278 38.7127 328.463 38.4072 328.778 38.1663L344.32 26.2913C344.57 26.1061 344.838 25.9626 345.124 25.8609C345.41 25.759 345.702 25.708 346 25.708C346.298 25.708 346.59 25.759 346.876 25.8609C347.162 25.9626 347.43 26.1061 347.68 26.2913L353.167 30.4718V28.8884C353.167 28.2712 353.383 27.7466 353.816 27.3147C354.249 26.8825 354.774 26.6663 355.392 26.6663C356.01 26.6663 356.535 26.8825 356.965 27.3147C357.396 27.7466 357.611 28.2712 357.611 28.8884V33.8609L363.222 38.1663C363.528 38.4072 363.706 38.7127 363.757 39.083C363.808 39.4533 363.713 39.7959 363.472 40.1109C363.232 40.4256 362.931 40.6038 362.57 40.6455C362.21 40.6872 361.871 40.5876 361.555 40.3468L357.611 37.333V50.5551C357.611 51.319 357.339 51.973 356.795 52.5172C356.251 53.0611 355.597 53.333 354.833 53.333H350.722C349.958 53.333 349.304 53.0611 348.76 52.5172C348.217 51.973 347.945 51.319 347.945 50.5551V43.333H344.055V50.5551C344.055 51.319 343.784 51.973 343.24 52.5172C342.696 53.0611 342.042 53.333 341.278 53.333H337.139ZM337.139 50.5551H341.278V43.333C341.278 42.5691 341.55 41.9152 342.094 41.3713C342.638 40.8272 343.292 40.5551 344.055 40.5551H347.945C348.709 40.5551 349.362 40.8272 349.906 41.3713C350.45 41.9152 350.722 42.5691 350.722 43.333V50.5551H354.833V35.2359L346 28.4859L337.139 35.2359V50.5551ZM342.528 36.4026H349.472C349.472 35.4951 349.125 34.7473 348.43 34.1593C347.736 33.5715 346.926 33.2776 346 33.2776C345.074 33.2776 344.264 33.5701 343.57 34.1551C342.875 34.7401 342.528 35.4893 342.528 36.4026Z" fill="#0F172A"/>
</g>
<mask id="mask2_244_2554" style="mask-type:alpha" maskUnits="userSpaceOnUse" x="385" y="20" width="40" height="40">
<rect x="385" y="20" width="40" height="40" fill="#D9D9D9"/>
</mask>
<g mask="url(#mask2_244_2554)">
<path d="M391.389 50C390.995 50 390.666 49.8664 390.399 49.5992C390.133 49.3322 390 49.0013 390 48.6063C390 48.2113 390.133 47.8818 390.399 47.6179C390.666 47.354 390.995 47.2221 391.389 47.2221H418.611C419.005 47.2221 419.334 47.3557 419.601 47.6229C419.867 47.8901 420 48.2211 420 48.6158C420 49.0108 419.867 49.3403 419.601 49.6042C419.334 49.8681 419.005 50 418.611 50H391.389ZM391.389 41.3888C390.995 41.3888 390.666 41.2553 390.399 40.9883C390.133 40.7211 390 40.39 390 39.995C390 39.6003 390.133 39.271 390.399 39.0071C390.666 38.7432 390.995 38.6112 391.389 38.6112H418.611C419.005 38.6112 419.334 38.7447 419.601 39.0117C419.867 39.2789 420 39.61 420 40.005C420 40.3997 419.867 40.729 419.601 40.9929C419.334 41.2568 419.005 41.3888 418.611 41.3888H391.389ZM391.389 32.7779C390.995 32.7779 390.666 32.6443 390.399 32.3771C390.133 32.1099 390 31.7789 390 31.3842C390 30.9892 390.133 30.6597 390.399 30.3958C390.666 30.1319 390.995 30 391.389 30H418.611C419.005 30 419.334 30.1336 419.601 30.4008C419.867 30.6678 420 30.9988 420 31.3938C420 31.7888 419.867 32.1182 419.601 32.3821C419.334 32.646 419.005 32.7779 418.611 32.7779H391.389Z" fill="#111827"/>
</g>
<mask id="path-8-inside-1_244_2554" fill="white">
<path d="M25 118H425V235H25V118Z"/>
</mask>
<path d="M425 233H25V237H425V233Z" fill="#6B7280" mask="url(#path-8-inside-1_244_2554)"/>
<mask id="mask3_244_2554" style="mask-type:alpha" maskUnits="userSpaceOnUse" x="201" y="118" width="48" height="48">
<rect x="201" y="118" width="48" height="48" fill="#D9D9D9"/>
</mask>
<g mask="url(#mask3_244_2554)">
<path d="M222.05 146.55L217.15 141.65C216.85 141.35 216.483 141.2 216.05 141.2C215.617 141.2 215.233 141.367 214.9 141.7C214.6 142 214.45 142.367 214.45 142.8C214.45 143.233 214.6 143.6 214.9 143.9L221 150.05C221.3 150.35 221.65 150.5 222.05 150.5C222.45 150.5 222.8 150.35 223.1 150.05L235.05 138.1C235.383 137.767 235.55 137.383 235.55 136.95C235.55 136.517 235.383 136.133 235.05 135.8C234.717 135.5 234.325 135.358 233.875 135.375C233.425 135.392 233.05 135.55 232.75 135.85L222.05 146.55ZM225 162C222.267 162 219.683 161.475 217.25 160.425C214.817 159.375 212.692 157.942 210.875 156.125C209.058 154.308 207.625 152.183 206.575 149.75C205.525 147.317 205 144.733 205 142C205 139.233 205.525 136.633 206.575 134.2C207.625 131.767 209.058 129.65 210.875 127.85C212.692 126.05 214.817 124.625 217.25 123.575C219.683 122.525 222.267 122 225 122C227.767 122 230.367 122.525 232.8 123.575C235.233 124.625 237.35 126.05 239.15 127.85C240.95 129.65 242.375 131.767 243.425 134.2C244.475 136.633 245 139.233 245 142C245 144.733 244.475 147.317 243.425 149.75C242.375 152.183 240.95 154.308 239.15 156.125C237.35 157.942 235.233 159.375 232.8 160.425C230.367 161.475 227.767 162 225 162Z" fill="#00C18A"/>
</g>
<path d="M198.992 182.828V204.203H195.969V182.828H198.992ZM187.414 184.328C190.625 184.328 193.016 187.281 193.016 191.922C193.016 196.609 190.625 199.539 187.414 199.539C184.133 199.539 181.742 196.609 181.766 191.922C181.742 187.281 184.133 184.328 187.414 184.328ZM187.414 187.023C185.75 187.023 184.648 188.758 184.648 191.922C184.648 195.109 185.75 196.82 187.414 196.82C189.031 196.82 190.133 195.109 190.133 191.922C190.133 188.758 189.031 187.023 187.414 187.023ZM208.531 189.32C208.531 192.555 209.703 195.789 212.727 197.43L211.086 199.609C209.164 198.625 207.887 196.891 207.148 194.805C206.398 197.078 205.121 199 203.188 200.125L201.477 197.875C204.547 196.094 205.695 192.625 205.719 189.32V188.828H202.273V186.438H205.719V183.555H208.508V186.438H211.883V188.828H208.531V189.32ZM220.32 182.828V204.156H217.484V182.828H220.32ZM215.961 183.18V203.172H213.148V193.352H210.641V190.914H213.148V183.18H215.961ZM234.57 183.695C237.688 183.695 239.938 185.453 239.938 188.031C239.938 190.117 238.402 191.711 236.117 192.203V193.75C237.781 193.656 239.457 193.504 241.016 193.281L241.25 195.461C236.867 196.234 231.969 196.328 228.406 196.328L228.102 193.961C229.578 193.961 231.301 193.949 233.117 193.891V192.227C230.762 191.758 229.18 190.152 229.203 188.031C229.18 185.453 231.43 183.695 234.57 183.695ZM234.57 185.945C233.047 185.969 231.969 186.695 231.992 188.031C231.969 189.32 233.047 190.094 234.57 190.094C236.094 190.094 237.125 189.32 237.125 188.031C237.125 186.695 236.094 185.969 234.57 185.945ZM245.211 182.852V189.555H247.93V192.039H245.211V199.117H242.211V182.852H245.211ZM245.938 201.367V203.758H230.914V197.688H233.914V201.367H245.938ZM268.414 199.328V201.789H248.891V199.328H253.883V196.07H251.141V188.898H263.211V186.602H251.117V184.211H266.164V191.289H254.141V193.656H266.656V196.07H263.633V199.328H268.414ZM256.789 199.328H260.703V196.07H256.789V199.328Z" fill="#111827"/>
<path d="M38.2818 289.492H25.5635V288.464H31.2762V285.47H27.0663V278.365H28.2928V280.873H35.5083V278.365H36.7238V285.47H32.4917V288.464H38.2818V289.492ZM35.5083 284.464V281.878H28.2928V284.464H35.5083ZM51.248 291.271H50.0546V284.077H48.0436V290.541H46.8834V277.691H48.0436V283.039H50.0546V277.381H51.248V291.271ZM40.0878 279.072H41.3143V286.575C42.0657 286.571 42.8134 286.536 43.5574 286.47C44.3014 286.403 45.0712 286.291 45.8668 286.133L46.0104 287.215C45.097 287.381 44.2333 287.499 43.4193 287.569C42.609 287.635 41.7895 287.669 40.9607 287.669H40.0878V279.072ZM64.4463 282.586H54.9435V277.89H56.159V281.591H64.4463V282.586ZM53.1977 284.475H65.9159V285.47H53.1977V284.475ZM54.8551 286.884H56.0706V289.912H64.5347V290.928H54.8551V286.884ZM82.1133 279.149C82.1133 279.643 82.1059 280.076 82.0912 280.448C82.0801 280.82 82.047 281.243 81.9917 281.718C81.9401 282.193 81.8554 282.7 81.7376 283.238H83.7818V284.254H71.0635V283.238H80.5055C80.6271 282.696 80.7155 282.188 80.7707 281.713C80.8297 281.238 80.8646 280.816 80.8757 280.448C80.8904 280.079 80.8978 279.646 80.8978 279.149V279.138H72.6768V278.122H82.1133V279.149ZM72.6326 286.166H82.1685V291.083H72.6326V286.166ZM80.953 290.077V287.138H73.837V290.077H80.953ZM88.2176 278.254C88.8217 278.254 89.365 278.394 89.8475 278.674C90.3337 278.95 90.713 279.339 90.9856 279.84C91.2618 280.337 91.3999 280.902 91.3999 281.536C91.3999 282.169 91.2618 282.733 90.9856 283.227C90.713 283.72 90.3355 284.103 89.853 284.376C89.3705 284.648 88.8254 284.785 88.2176 284.785C87.6025 284.785 87.0537 284.648 86.5712 284.376C86.0887 284.103 85.713 283.72 85.4441 283.227C85.1753 282.733 85.0427 282.169 85.0464 281.536C85.0427 280.899 85.1753 280.331 85.4441 279.834C85.7167 279.337 86.0942 278.95 86.5767 278.674C87.0592 278.394 87.6062 278.254 88.2176 278.254ZM86.1513 281.536C86.1476 281.956 86.2342 282.335 86.411 282.674C86.5915 283.013 86.8383 283.278 87.1513 283.47C87.4681 283.657 87.8235 283.75 88.2176 283.746C88.6081 283.75 88.9598 283.657 89.2729 283.47C89.586 283.278 89.8309 283.015 90.0077 282.68C90.1882 282.341 90.2802 281.959 90.2839 281.536C90.2802 281.112 90.1882 280.731 90.0077 280.392C89.8309 280.053 89.586 279.79 89.2729 279.602C88.9598 279.411 88.6081 279.315 88.2176 279.315C87.8235 279.315 87.4681 279.411 87.1513 279.602C86.8383 279.79 86.5915 280.053 86.411 280.392C86.2342 280.731 86.1476 281.112 86.1513 281.536ZM87.3226 286.431H96.6817V291.271H95.4773V287.425H87.3226V286.431ZM92.516 277.657H93.6762V280.972H95.5215V277.392H96.6817V285.657H95.5215V281.978H93.6762V285.558H92.516V277.657Z" fill="#9CA3AF"/>
<path d="M349.693 291H348.102V279.924H348.028L344.932 281.975V280.384L348.102 278.271H349.693V291ZM357.25 291.174C356.314 291.174 355.512 290.919 354.845 290.41C354.182 289.896 353.674 289.15 353.322 288.172C352.974 287.194 352.8 286.015 352.8 284.635C352.8 283.268 352.976 282.095 353.328 281.117C353.681 280.135 354.19 279.387 354.857 278.874C355.524 278.356 356.322 278.097 357.25 278.097C358.178 278.097 358.976 278.356 359.643 278.874C360.31 279.387 360.82 280.135 361.172 281.117C361.524 282.095 361.701 283.268 361.701 284.635C361.701 286.015 361.524 287.194 361.172 288.172C360.824 289.15 360.317 289.896 359.649 290.41C358.987 290.919 358.187 291.174 357.25 291.174ZM354.341 284.635C354.341 285.725 354.455 286.655 354.683 287.426C354.911 288.193 355.243 288.775 355.678 289.173C356.113 289.57 356.637 289.769 357.25 289.769C357.864 289.769 358.388 289.57 358.823 289.173C359.258 288.775 359.589 288.193 359.817 287.426C360.045 286.655 360.159 285.725 360.159 284.635C360.159 283.546 360.043 282.615 359.811 281.845C359.583 281.07 359.252 280.481 358.817 280.079C358.382 279.677 357.859 279.477 357.25 279.477C356.641 279.477 356.119 279.677 355.684 280.079C355.249 280.481 354.915 281.07 354.683 281.845C354.455 282.615 354.341 283.546 354.341 284.635ZM367.973 291.174C367.037 291.174 366.235 290.919 365.568 290.41C364.905 289.896 364.397 289.15 364.045 288.172C363.697 287.194 363.523 286.015 363.523 284.635C363.523 283.268 363.699 282.095 364.051 281.117C364.403 280.135 364.913 279.387 365.58 278.874C366.247 278.356 367.045 278.097 367.973 278.097C368.901 278.097 369.699 278.356 370.366 278.874C371.033 279.387 371.543 280.135 371.895 281.117C372.247 282.095 372.423 283.268 372.423 284.635C372.423 286.015 372.247 287.194 371.895 288.172C371.547 289.15 371.039 289.896 370.372 290.41C369.709 290.919 368.909 291.174 367.973 291.174ZM365.064 284.635C365.064 285.725 365.178 286.655 365.406 287.426C365.634 288.193 365.965 288.775 366.4 289.173C366.836 289.57 367.36 289.769 367.973 289.769C368.586 289.769 369.11 289.57 369.545 289.173C369.981 288.775 370.312 288.193 370.54 287.426C370.768 286.655 370.882 285.725 370.882 284.635C370.882 283.546 370.766 282.615 370.534 281.845C370.306 281.07 369.974 280.481 369.539 280.079C369.104 279.677 368.582 279.477 367.973 279.477C367.364 279.477 366.842 279.677 366.407 280.079C365.972 280.481 365.638 281.07 365.406 281.845C365.178 282.615 365.064 283.546 365.064 284.635ZM374.738 294.593H373.433L374.403 289.807H376.093L374.738 294.593ZM382.457 291.174C381.521 291.174 380.719 290.919 380.052 290.41C379.389 289.896 378.881 289.15 378.529 288.172C378.181 287.194 378.007 286.015 378.007 284.635C378.007 283.268 378.183 282.095 378.535 281.117C378.888 280.135 379.397 279.387 380.064 278.874C380.732 278.356 381.529 278.097 382.457 278.097C383.386 278.097 384.183 278.356 384.85 278.874C385.517 279.387 386.027 280.135 386.379 281.117C386.732 282.095 386.908 283.268 386.908 284.635C386.908 286.015 386.732 287.194 386.379 288.172C386.031 289.15 385.524 289.896 384.857 290.41C384.194 290.919 383.394 291.174 382.457 291.174ZM379.549 284.635C379.549 285.725 379.662 286.655 379.89 287.426C380.118 288.193 380.45 288.775 380.885 289.173C381.32 289.57 381.844 289.769 382.457 289.769C383.071 289.769 383.595 289.57 384.03 289.173C384.465 288.775 384.796 288.193 385.024 287.426C385.252 286.655 385.366 285.725 385.366 284.635C385.366 283.546 385.25 282.615 385.018 281.845C384.79 281.07 384.459 280.481 384.024 280.079C383.589 279.677 383.066 279.477 382.457 279.477C381.848 279.477 381.326 279.677 380.891 280.079C380.456 280.481 380.122 281.07 379.89 281.845C379.662 282.615 379.549 283.546 379.549 284.635ZM393.18 291.174C392.244 291.174 391.442 290.919 390.775 290.41C390.112 289.896 389.604 289.15 389.252 288.172C388.904 287.194 388.73 286.015 388.73 284.635C388.73 283.268 388.906 282.095 389.258 281.117C389.61 280.135 390.12 279.387 390.787 278.874C391.454 278.356 392.252 278.097 393.18 278.097C394.108 278.097 394.906 278.356 395.573 278.874C396.24 279.387 396.75 280.135 397.102 281.117C397.454 282.095 397.63 283.268 397.63 284.635C397.63 286.015 397.454 287.194 397.102 288.172C396.754 289.15 396.246 289.896 395.579 290.41C394.916 290.919 394.116 291.174 393.18 291.174ZM390.271 284.635C390.271 285.725 390.385 286.655 390.613 287.426C390.841 288.193 391.172 288.775 391.607 289.173C392.043 289.57 392.567 289.769 393.18 289.769C393.793 289.769 394.317 289.57 394.753 289.173C395.188 288.775 395.519 288.193 395.747 287.426C395.975 286.655 396.089 285.725 396.089 284.635C396.089 283.546 395.973 282.615 395.741 281.845C395.513 281.07 395.181 280.481 394.746 280.079C394.311 279.677 393.789 279.477 393.18 279.477C392.571 279.477 392.049 279.677 391.614 280.079C391.179 280.481 390.845 281.07 390.613 281.845C390.385 282.615 390.271 283.546 390.271 284.635ZM403.903 291.174C402.966 291.174 402.164 290.919 401.497 290.41C400.834 289.896 400.327 289.15 399.974 288.172C399.626 287.194 399.452 286.015 399.452 284.635C399.452 283.268 399.628 282.095 399.981 281.117C400.333 280.135 400.843 279.387 401.51 278.874C402.177 278.356 402.974 278.097 403.903 278.097C404.831 278.097 405.628 278.356 406.296 278.874C406.963 279.387 407.472 280.135 407.825 281.117C408.177 282.095 408.353 283.268 408.353 284.635C408.353 286.015 408.177 287.194 407.825 288.172C407.477 289.15 406.969 289.896 406.302 290.41C405.639 290.919 404.839 291.174 403.903 291.174ZM400.994 284.635C400.994 285.725 401.108 286.655 401.336 287.426C401.564 288.193 401.895 288.775 402.33 289.173C402.765 289.57 403.289 289.769 403.903 289.769C404.516 289.769 405.04 289.57 405.475 289.173C405.91 288.775 406.242 288.193 406.47 287.426C406.698 286.655 406.811 285.725 406.811 284.635C406.811 283.546 406.695 282.615 406.463 281.845C406.236 281.07 405.904 280.481 405.469 280.079C405.034 279.677 404.512 279.477 403.903 279.477C403.294 279.477 402.771 279.677 402.336 280.079C401.901 280.481 401.568 281.07 401.336 281.845C401.108 282.615 400.994 283.546 400.994 284.635ZM422.78 288.688H421.388V287.059H418.168V286.052H421.388V276.816H422.78V288.688ZM409.815 284.051C411.878 284.043 413.72 284.012 415.34 283.958C416.964 283.9 418.512 283.778 419.983 283.591L420.082 284.598C418.786 284.805 417.352 284.956 415.781 285.052V288.141H414.402V285.12C413.337 285.162 412.123 285.182 410.759 285.182H410.001L409.815 284.051ZM411.07 280.173C411.07 279.634 411.232 279.16 411.555 278.749C411.878 278.335 412.334 278.016 412.922 277.792C413.511 277.564 414.186 277.45 414.949 277.45C415.703 277.45 416.372 277.564 416.956 277.792C417.54 278.016 417.994 278.335 418.317 278.749C418.645 279.16 418.81 279.634 418.815 280.173C418.81 280.72 418.645 281.198 418.317 281.608C417.994 282.015 417.54 282.329 416.956 282.553C416.376 282.773 415.707 282.883 414.949 282.883C414.182 282.883 413.504 282.773 412.916 282.553C412.332 282.334 411.878 282.019 411.555 281.608C411.232 281.198 411.07 280.72 411.07 280.173ZM412.065 287.519H413.444V290.938H423.165V292.081H412.065V287.519ZM412.388 280.173C412.384 280.508 412.487 280.802 412.699 281.055C412.914 281.308 413.216 281.505 413.606 281.646C413.995 281.782 414.443 281.851 414.949 281.851C415.437 281.851 415.875 281.782 416.26 281.646C416.645 281.505 416.946 281.308 417.161 281.055C417.381 280.802 417.493 280.508 417.497 280.173C417.493 279.841 417.381 279.549 417.161 279.296C416.946 279.039 416.645 278.84 416.26 278.7C415.875 278.559 415.437 278.49 414.949 278.494C414.443 278.49 413.995 278.559 413.606 278.7C413.216 278.84 412.914 279.039 412.699 279.296C412.487 279.549 412.384 279.841 412.388 280.173Z" fill="#111827"/>
<path d="M32.5359 310.674C32.5359 311.3 32.7772 311.899 33.2597 312.47C33.7459 313.041 34.3794 313.521 35.1602 313.912C35.9411 314.302 36.7532 314.556 37.5967 314.674L37.0994 315.68C36.3665 315.558 35.6575 315.346 34.9724 315.044C34.291 314.742 33.6814 314.366 33.1436 313.917C32.6059 313.464 32.1934 312.961 31.9061 312.409C31.6188 312.965 31.2063 313.47 30.6685 313.923C30.1344 314.372 29.5267 314.746 28.8453 315.044C28.1639 315.343 27.4567 315.554 26.7238 315.68L26.2155 314.674C27.0626 314.556 27.8748 314.304 28.6519 313.917C29.4291 313.53 30.0589 313.053 30.5414 312.486C31.0239 311.915 31.2652 311.311 31.2652 310.674V309.878H32.5359V310.674ZM25.5635 317.204H38.2265V318.232H32.4696V323.271H31.2652V318.232H25.5635V317.204ZM46.364 310.674C46.364 311.3 46.6053 311.899 47.0878 312.47C47.574 313.041 48.2075 313.521 48.9883 313.912C49.7692 314.302 50.5813 314.556 51.4248 314.674L50.9276 315.68C50.1946 315.558 49.4856 315.346 48.8005 315.044C48.1191 314.742 47.5095 314.366 46.9718 313.917C46.434 313.464 46.0215 312.961 45.7342 312.409C45.4469 312.965 45.0344 313.47 44.4966 313.923C43.9626 314.372 43.3548 314.746 42.6734 315.044C41.992 315.343 41.2848 315.554 40.5519 315.68L40.0436 314.674C40.8907 314.556 41.7029 314.304 42.4801 313.917C43.2572 313.53 43.8871 313.053 44.3696 312.486C44.8521 311.915 45.0933 311.311 45.0933 310.674V309.878H46.364V310.674ZM39.3917 317.204H52.0546V318.232H46.2977V323.271H45.0933V318.232H39.3917V317.204ZM65.938 321.547H53.2198V320.508H56.7999V317.878H54.8109V313.591H63.1203V311.425H54.7778V310.409H64.3358V314.608H56.0264V316.862H64.6562V317.878H62.4795V320.508H65.938V321.547ZM61.275 320.508V317.878H57.9933V320.508H61.275Z" fill="#9CA3AF"/>
<path d="M403.358 323.174C402.421 323.174 401.619 322.919 400.952 322.41C400.289 321.896 399.782 321.15 399.43 320.172C399.081 319.194 398.907 318.015 398.907 316.635C398.907 315.268 399.084 314.095 399.436 313.117C399.788 312.135 400.298 311.387 400.965 310.874C401.632 310.356 402.43 310.097 403.358 310.097C404.286 310.097 405.084 310.356 405.751 310.874C406.418 311.387 406.927 312.135 407.28 313.117C407.632 314.095 407.808 315.268 407.808 316.635C407.808 318.015 407.632 319.194 407.28 320.172C406.932 321.15 406.424 321.896 405.757 322.41C405.094 322.919 404.294 323.174 403.358 323.174ZM400.449 316.635C400.449 317.725 400.563 318.655 400.791 319.426C401.019 320.193 401.35 320.775 401.785 321.173C402.22 321.57 402.744 321.769 403.358 321.769C403.971 321.769 404.495 321.57 404.93 321.173C405.365 320.775 405.697 320.193 405.925 319.426C406.153 318.655 406.267 317.725 406.267 316.635C406.267 315.546 406.151 314.615 405.919 313.845C405.691 313.07 405.359 312.481 404.924 312.079C404.489 311.677 403.967 311.477 403.358 311.477C402.749 311.477 402.227 311.677 401.791 312.079C401.356 312.481 401.023 313.07 400.791 313.845C400.563 314.615 400.449 315.546 400.449 316.635ZM422.235 320.688H420.843V319.059H417.623V318.052H420.843V308.816H422.235V320.688ZM409.27 316.051C411.333 316.043 413.175 316.012 414.795 315.958C416.419 315.9 417.967 315.778 419.438 315.591L419.538 316.598C418.241 316.805 416.807 316.956 415.236 317.052V320.141H413.857V317.12C412.792 317.162 411.578 317.182 410.214 317.182H409.456L409.27 316.051ZM410.525 312.173C410.525 311.634 410.687 311.16 411.01 310.749C411.333 310.335 411.789 310.016 412.377 309.792C412.966 309.564 413.641 309.45 414.404 309.45C415.158 309.45 415.827 309.564 416.411 309.792C416.995 310.016 417.449 310.335 417.772 310.749C418.1 311.16 418.265 311.634 418.27 312.173C418.265 312.72 418.1 313.198 417.772 313.608C417.449 314.015 416.995 314.329 416.411 314.553C415.831 314.773 415.162 314.883 414.404 314.883C413.637 314.883 412.96 314.773 412.371 314.553C411.787 314.334 411.333 314.019 411.01 313.608C410.687 313.198 410.525 312.72 410.525 312.173ZM411.52 319.519H412.899V322.938H422.62V324.081H411.52V319.519ZM411.843 312.173C411.839 312.508 411.942 312.802 412.154 313.055C412.369 313.308 412.672 313.505 413.061 313.646C413.451 313.782 413.898 313.851 414.404 313.851C414.893 313.851 415.33 313.782 415.715 313.646C416.1 313.505 416.401 313.308 416.616 313.055C416.836 312.802 416.948 312.508 416.952 312.173C416.948 311.841 416.836 311.549 416.616 311.296C416.401 311.039 416.1 310.84 415.715 310.7C415.33 310.559 414.893 310.49 414.404 310.494C413.898 310.49 413.451 310.559 413.061 310.7C412.672 310.84 412.369 311.039 412.154 311.296C411.942 311.549 411.839 311.841 411.843 312.173Z" fill="#111827"/>
<path d="M32.5359 342.674C32.5359 343.3 32.7772 343.899 33.2597 344.47C33.7459 345.041 34.3794 345.521 35.1602 345.912C35.9411 346.302 36.7532 346.556 37.5967 346.674L37.0994 347.68C36.3665 347.558 35.6575 347.346 34.9724 347.044C34.291 346.742 33.6814 346.366 33.1436 345.917C32.6059 345.464 32.1934 344.961 31.9061 344.409C31.6188 344.965 31.2063 345.47 30.6685 345.923C30.1344 346.372 29.5267 346.746 28.8453 347.044C28.1639 347.343 27.4567 347.554 26.7238 347.68L26.2155 346.674C27.0626 346.556 27.8748 346.304 28.6519 345.917C29.4291 345.53 30.0589 345.053 30.5414 344.486C31.0239 343.915 31.2652 343.311 31.2652 342.674V341.878H32.5359V342.674ZM25.5635 349.204H38.2265V350.232H32.4696V355.271H31.2652V350.232H25.5635V349.204ZM44.6292 344C44.6292 344.46 44.771 344.895 45.0546 345.304C45.3383 345.713 45.7342 346.068 46.2425 346.37C46.7508 346.669 47.3327 346.891 47.9883 347.039L47.4801 348.011C46.6771 347.816 45.9773 347.514 45.3806 347.105C44.7876 346.696 44.3401 346.21 44.0381 345.646C43.7434 346.258 43.2922 346.786 42.6845 347.232C42.0804 347.674 41.3696 347.996 40.5519 348.199L40.0215 347.227C40.6845 347.076 41.2701 346.84 41.7784 346.519C42.2904 346.199 42.6882 345.821 42.9718 345.387C43.2591 344.948 43.4027 344.486 43.4027 344V343.945H40.3088V342.972H43.4027V341.414H44.6292V342.972H47.7232V343.945H44.6292V344ZM39.3585 349.182C41.1707 349.182 42.8263 349.157 44.3254 349.105C45.8281 349.053 47.2591 348.939 48.6182 348.762L48.7066 349.657C47.5206 349.856 46.1725 350.002 44.6624 350.094V354.862H43.4359V350.155C42.3125 350.199 41.0086 350.221 39.5243 350.221L39.3585 349.182ZM49.6458 341.392H50.8502V355.282H49.6458V341.392ZM64.6894 351.547H63.4629V341.392H64.6894V351.547ZM53.5402 345.768C53.5402 345.112 53.6986 344.527 54.0154 344.011C54.3321 343.492 54.7686 343.088 55.3248 342.801C55.8809 342.51 56.5016 342.365 57.1866 342.365C57.8717 342.365 58.4905 342.51 59.043 342.801C59.5992 343.088 60.0338 343.492 60.3469 344.011C60.6636 344.527 60.822 345.112 60.822 345.768C60.822 346.431 60.6636 347.022 60.3469 347.541C60.0338 348.061 59.5992 348.466 59.043 348.757C58.4905 349.044 57.8717 349.186 57.1866 349.182C56.5016 349.186 55.8809 349.044 55.3248 348.757C54.7686 348.466 54.3321 348.061 54.0154 347.541C53.6986 347.022 53.5402 346.431 53.5402 345.768ZM54.7446 345.768C54.741 346.221 54.8441 346.626 55.054 346.983C55.2677 347.337 55.5605 347.613 55.9325 347.812C56.3045 348.011 56.7225 348.11 57.1866 348.11C57.6434 348.11 58.0577 348.011 58.4297 347.812C58.8017 347.613 59.0946 347.337 59.3082 346.983C59.5218 346.626 59.6286 346.221 59.6286 345.768C59.6286 345.322 59.5218 344.923 59.3082 344.569C59.0946 344.215 58.8017 343.939 58.4297 343.74C58.0577 343.538 57.6434 343.436 57.1866 343.436C56.7225 343.436 56.3045 343.536 55.9325 343.735C55.5605 343.934 55.2677 344.212 55.054 344.569C54.8441 344.923 54.741 345.322 54.7446 345.768ZM55.717 350.508H56.9435V353.945H65.1203V354.961H55.717V350.508Z" fill="#9CA3AF"/>
<path d="M391.512 356.454H390.133V340.804H391.512V356.454ZM379.218 347.454C379.218 346.365 379.386 345.41 379.722 344.589C380.061 343.769 380.534 343.135 381.139 342.687C381.744 342.24 382.434 342.014 383.209 342.01C383.979 342.014 384.665 342.24 385.266 342.687C385.871 343.135 386.343 343.771 386.683 344.595C387.027 345.416 387.199 346.369 387.199 347.454C387.199 348.544 387.027 349.501 386.683 350.326C386.343 351.151 385.871 351.787 385.266 352.234C384.661 352.677 383.975 352.899 383.209 352.899C382.434 352.899 381.744 352.677 381.139 352.234C380.534 351.787 380.061 351.153 379.722 350.332C379.386 349.508 379.218 348.548 379.218 347.454ZM380.548 347.454C380.548 348.291 380.66 349.029 380.884 349.667C381.108 350.305 381.421 350.798 381.823 351.146C382.229 351.494 382.691 351.669 383.209 351.669C383.727 351.669 384.184 351.494 384.582 351.146C384.984 350.798 385.297 350.305 385.521 349.667C385.744 349.029 385.856 348.291 385.856 347.454C385.856 346.622 385.744 345.888 385.521 345.254C385.297 344.616 384.984 344.123 384.582 343.775C384.184 343.423 383.727 343.244 383.209 343.24C382.691 343.244 382.229 343.423 381.823 343.775C381.421 344.123 381.108 344.616 380.884 345.254C380.66 345.888 380.548 346.622 380.548 347.454ZM398.367 342.01C399.134 342.014 399.816 342.24 400.412 342.687C401.009 343.135 401.475 343.769 401.811 344.589C402.146 345.41 402.316 346.365 402.32 347.454C402.316 348.548 402.146 349.508 401.811 350.332C401.475 351.153 401.009 351.787 400.412 352.234C399.816 352.677 399.134 352.899 398.367 352.899C397.601 352.899 396.919 352.677 396.323 352.234C395.726 351.787 395.262 351.153 394.93 350.332C394.599 349.508 394.435 348.548 394.439 347.454C394.435 346.365 394.599 345.41 394.93 344.589C395.262 343.769 395.726 343.135 396.323 342.687C396.919 342.24 397.601 342.014 398.367 342.01ZM395.744 347.454C395.744 348.291 395.854 349.029 396.074 349.667C396.298 350.305 396.608 350.798 397.006 351.146C397.404 351.494 397.858 351.669 398.367 351.669C398.885 351.669 399.341 351.494 399.735 351.146C400.133 350.798 400.441 350.307 400.661 349.673C400.881 349.035 400.99 348.296 400.99 347.454C400.99 346.617 400.881 345.882 400.661 345.248C400.441 344.614 400.133 344.123 399.735 343.775C399.341 343.423 398.885 343.244 398.367 343.24C397.858 343.244 397.404 343.423 397.006 343.775C396.608 344.123 396.298 344.616 396.074 345.254C395.854 345.888 395.744 346.622 395.744 347.454ZM404.906 340.804H406.286V347.044H408.896V348.225H406.286V356.43H404.906V340.804ZM424.006 348.486H409.747V347.367H424.006V348.486ZM411.475 349.878H422.153V353.508H412.867V355.124H422.626V356.243H411.512V352.464H420.798V350.96H411.475V349.878ZM411.649 341.338H422.141V342.457H413.029V344.956H422.303V346.087H411.649V341.338Z" fill="#111827"/>
<mask id="path-19-inside-2_244_2554" fill="white">
<path d="M25 369H425V421H25V369Z"/>
</mask>
<path d="M425 420H25V422H425V420Z" fill="#D1D5DB" mask="url(#path-19-inside-2_244_2554)"/>
<path d="M37.0331 380.829H35.8066V373.381H37.0331V380.829ZM25.884 377.249C25.884 376.626 26.0405 376.072 26.3536 375.586C26.6667 375.099 27.0994 374.722 27.6519 374.453C28.2081 374.184 28.8343 374.052 29.5304 374.055C30.2265 374.052 30.8508 374.184 31.4033 374.453C31.9558 374.722 32.3867 375.099 32.6961 375.586C33.0092 376.072 33.1657 376.626 33.1657 377.249C33.1657 377.871 33.0092 378.424 32.6961 378.906C32.3867 379.389 31.9558 379.764 31.4033 380.033C30.8508 380.302 30.2265 380.435 29.5304 380.431C28.8343 380.435 28.2081 380.302 27.6519 380.033C27.0994 379.764 26.6667 379.389 26.3536 378.906C26.0405 378.42 25.884 377.867 25.884 377.249ZM27.0884 377.249C27.0847 377.665 27.186 378.039 27.3923 378.37C27.6022 378.698 27.8932 378.954 28.2652 379.138C28.6372 379.322 29.0589 379.414 29.5304 379.414C29.9982 379.414 30.4162 379.322 30.7845 379.138C31.1565 378.954 31.4475 378.698 31.6575 378.37C31.8674 378.039 31.9724 377.665 31.9724 377.249C31.9724 376.832 31.8674 376.46 31.6575 376.133C31.4475 375.801 31.1565 375.545 30.7845 375.365C30.4162 375.18 29.9982 375.09 29.5304 375.094C29.0589 375.09 28.6372 375.18 28.2652 375.365C27.8932 375.545 27.6022 375.801 27.3923 376.133C27.186 376.46 27.0847 376.832 27.0884 377.249ZM28.0387 381.536H29.2431V383.227H35.8177V381.536H37.0331V387.083H28.0387V381.536ZM35.8177 386.077V384.21H29.2431V386.077H35.8177ZM50.4414 375.149C50.4414 375.643 50.434 376.076 50.4193 376.448C50.4082 376.82 50.3751 377.243 50.3198 377.718C50.2683 378.193 50.1836 378.7 50.0657 379.238H52.1099V380.254H39.3917V379.238H48.8337C48.9552 378.696 49.0436 378.188 49.0988 377.713C49.1578 377.238 49.1928 376.816 49.2038 376.448C49.2185 376.079 49.2259 375.646 49.2259 375.149V375.138H41.0049V374.122H50.4414V375.149ZM40.9607 382.166H50.4966V387.083H40.9607V382.166ZM49.2812 386.077V383.138H42.1651V386.077H49.2812ZM65.1093 387.271H63.938V373.381H65.1093V387.271ZM53.2087 383.381C54.6857 382.505 55.8183 381.457 56.6065 380.238C57.3984 379.015 57.857 377.661 57.9822 376.177H53.8275V375.149H59.1977C59.1977 375.875 59.1351 376.575 59.0098 377.249H61.1203V373.757H62.3027V386.564H61.1203V381.746H58.5458V380.729H61.1203V378.265H58.7723C58.4224 379.481 57.8496 380.595 57.054 381.608C56.2621 382.617 55.2272 383.503 53.9491 384.265L53.2087 383.381ZM71.9208 375.867C71.9172 376.449 72.0608 377.006 72.3518 377.536C72.6464 378.063 73.0553 378.525 73.5783 378.923C74.105 379.317 74.7054 379.617 75.3794 379.823L74.7938 380.796C73.9871 380.541 73.28 380.157 72.6722 379.641C72.0682 379.125 71.6151 378.519 71.3131 377.823C71.0074 378.575 70.5433 379.228 69.9208 379.785C69.3021 380.337 68.5765 380.751 67.744 381.028L67.1142 380.055C67.8103 379.838 68.4273 379.521 68.965 379.105C69.5028 378.689 69.9227 378.203 70.2247 377.646C70.5267 377.087 70.6796 376.494 70.6833 375.867V375.702H67.5341V374.674H75.0479V375.702H71.9208V375.867ZM66.8711 383.326C68.5028 383.326 69.7772 383.313 70.6943 383.287V380.453H71.9208V383.243C73.3941 383.173 74.6428 383.064 75.6667 382.917L75.7551 383.823C74.8343 383.985 73.8711 384.105 72.8656 384.182C71.8601 384.26 70.9245 384.308 70.059 384.326C69.1971 384.344 68.1971 384.354 67.059 384.354L66.8711 383.326ZM76.5617 373.381H77.7772V379.149H80.0424V380.199H77.7772V387.271H76.5617V373.381Z" fill="#9CA3AF"/>
<path d="M223.66 376.421H227.141V373.985H228.434V381.17H222.355V373.985H223.66V376.421ZM227.141 380.051V377.528H223.66V380.051H227.141ZM224.493 385.583C224.489 384.99 224.696 384.483 225.115 384.06C225.537 383.637 226.142 383.316 226.93 383.097C227.721 382.873 228.657 382.761 229.739 382.761C230.812 382.761 231.742 382.873 232.53 383.097C233.321 383.316 233.928 383.64 234.351 384.066C234.773 384.489 234.985 384.994 234.985 385.583C234.985 386.167 234.773 386.671 234.351 387.093C233.928 387.516 233.321 387.837 232.53 388.057C231.742 388.28 230.812 388.392 229.739 388.392C228.657 388.392 227.721 388.28 226.93 388.057C226.142 387.837 225.537 387.516 225.115 387.093C224.696 386.675 224.489 386.171 224.493 385.583ZM225.86 385.583C225.856 385.939 226.01 386.246 226.32 386.503C226.635 386.76 227.085 386.956 227.669 387.093C228.253 387.23 228.943 387.298 229.739 387.298C230.526 387.298 231.21 387.23 231.79 387.093C232.374 386.956 232.824 386.76 233.139 386.503C233.454 386.246 233.613 385.939 233.617 385.583C233.613 385.222 233.454 384.912 233.139 384.651C232.824 384.39 232.374 384.191 231.79 384.054C231.21 383.913 230.526 383.843 229.739 383.843C228.943 383.843 228.253 383.913 227.669 384.054C227.085 384.191 226.635 384.39 226.32 384.651C226.01 384.912 225.856 385.222 225.86 385.583ZM230.211 373.115H231.504V376.981H233.593V372.816H234.898V382.388H233.593V378.124H231.504V381.916H230.211V373.115ZM245.507 373.885C245.499 375.916 244.892 377.64 243.686 379.057C242.48 380.474 240.642 381.547 238.173 382.276L237.651 381.145C240.224 380.412 242.024 379.291 243.052 377.782L237.762 378.186L237.526 377.043L243.605 376.769C243.829 376.222 243.97 375.634 244.028 375.004H238.309V373.885H245.507ZM239.615 385.409C239.615 384.783 239.826 384.247 240.249 383.799C240.675 383.352 241.287 383.012 242.082 382.78C242.878 382.544 243.82 382.425 244.91 382.425C245.983 382.425 246.916 382.544 247.707 382.78C248.499 383.016 249.106 383.358 249.528 383.805C249.955 384.253 250.169 384.787 250.169 385.409C250.169 386.035 249.955 386.571 249.528 387.019C249.106 387.466 248.499 387.806 247.707 388.038C246.92 388.274 245.988 388.392 244.91 388.392C243.816 388.392 242.872 388.274 242.076 388.038C241.285 387.806 240.675 387.466 240.249 387.019C239.826 386.571 239.615 386.035 239.615 385.409ZM240.994 385.409C240.994 385.794 241.152 386.13 241.467 386.416C241.782 386.702 242.233 386.919 242.822 387.068C243.41 387.222 244.106 387.298 244.91 387.298C245.702 387.298 246.39 387.222 246.974 387.068C247.558 386.915 248.008 386.698 248.323 386.416C248.642 386.13 248.801 385.794 248.801 385.409C248.801 385.023 248.642 384.69 248.323 384.408C248.008 384.122 247.558 383.903 246.974 383.749C246.39 383.596 245.702 383.519 244.91 383.519C244.106 383.519 243.41 383.596 242.822 383.749C242.233 383.898 241.782 384.116 241.467 384.402C241.152 384.688 240.994 385.023 240.994 385.409ZM248.714 372.816H250.094V382.214H248.714V372.816ZM266.993 382.164H252.747V381.046H266.993V382.164ZM254.326 376.446C254.326 375.804 254.55 375.249 254.997 374.78C255.449 374.312 256.091 373.956 256.924 373.711C257.757 373.467 258.735 373.347 259.858 373.351C260.977 373.347 261.95 373.467 262.779 373.711C263.612 373.956 264.252 374.312 264.7 374.78C265.151 375.249 265.377 375.804 265.377 376.446C265.377 377.088 265.151 377.646 264.7 378.118C264.252 378.586 263.612 378.945 262.779 379.193C261.95 379.442 260.977 379.566 259.858 379.566C258.735 379.566 257.757 379.442 256.924 379.193C256.091 378.945 255.449 378.586 254.997 378.118C254.55 377.646 254.326 377.088 254.326 376.446ZM254.587 383.544H255.979V386.938H265.402V388.081H254.587V383.544ZM255.756 376.446C255.751 376.856 255.915 377.211 256.247 377.509C256.582 377.807 257.059 378.037 257.676 378.199C258.298 378.356 259.025 378.435 259.858 378.435C260.691 378.435 261.416 378.356 262.033 378.199C262.655 378.037 263.133 377.807 263.469 377.509C263.805 377.211 263.972 376.856 263.972 376.446C263.972 376.044 263.805 375.694 263.469 375.396C263.133 375.097 262.655 374.869 262.033 374.712C261.416 374.55 260.691 374.47 259.858 374.47C259.025 374.47 258.298 374.55 257.676 374.712C257.059 374.869 256.582 375.097 256.247 375.396C255.915 375.694 255.751 376.044 255.756 376.446ZM281.568 382.699H280.262V378.211H278.162V382.14H276.869V373.115H278.162V377.068H280.262V372.804H281.568V382.699ZM268.217 374.681H271.561V372.916H272.928V374.681H276.235V375.787H268.217V374.681ZM268.901 379.293C268.896 378.758 269.035 378.29 269.317 377.888C269.599 377.482 269.992 377.169 270.498 376.95C271.003 376.73 271.582 376.62 272.232 376.62C272.891 376.62 273.473 376.73 273.979 376.95C274.488 377.169 274.884 377.482 275.166 377.888C275.452 378.29 275.597 378.758 275.601 379.293C275.597 379.823 275.452 380.289 275.166 380.691C274.884 381.093 274.488 381.404 273.979 381.624C273.473 381.843 272.891 381.953 272.232 381.953C271.582 381.953 271.003 381.843 270.498 381.624C269.992 381.404 269.599 381.093 269.317 380.691C269.035 380.289 268.896 379.823 268.901 379.293ZM270.131 379.293C270.131 379.612 270.218 379.896 270.392 380.144C270.57 380.389 270.819 380.579 271.138 380.716C271.457 380.853 271.822 380.921 272.232 380.921C272.646 380.921 273.013 380.853 273.332 380.716C273.651 380.579 273.9 380.389 274.078 380.144C274.256 379.896 274.345 379.612 274.345 379.293C274.345 378.97 274.256 378.684 274.078 378.435C273.9 378.186 273.651 377.994 273.332 377.857C273.013 377.72 272.646 377.652 272.232 377.652C271.822 377.652 271.457 377.72 271.138 377.857C270.819 377.994 270.57 378.186 270.392 378.435C270.218 378.684 270.131 378.97 270.131 379.293ZM271.163 385.695C271.159 385.115 271.364 384.622 271.778 384.215C272.197 383.805 272.798 383.494 273.581 383.283C274.368 383.068 275.311 382.96 276.409 382.96C277.503 382.96 278.441 383.068 279.224 383.283C280.012 383.494 280.613 383.805 281.027 384.215C281.445 384.622 281.655 385.115 281.655 385.695C281.655 386.262 281.445 386.747 281.027 387.149C280.613 387.555 280.012 387.864 279.224 388.075C278.437 388.287 277.499 388.392 276.409 388.392C275.315 388.392 274.374 388.287 273.587 388.075C272.8 387.864 272.197 387.555 271.778 387.149C271.364 386.747 271.159 386.262 271.163 385.695ZM272.53 385.695C272.526 386.03 272.678 386.32 272.984 386.565C273.295 386.809 273.74 386.996 274.32 387.124C274.905 387.253 275.601 387.315 276.409 387.311C277.213 387.315 277.905 387.253 278.485 387.124C279.065 386.996 279.508 386.811 279.815 386.571C280.126 386.327 280.283 386.035 280.287 385.695C280.283 385.343 280.126 385.042 279.815 384.794C279.508 384.545 279.065 384.356 278.485 384.228C277.905 384.099 277.213 384.037 276.409 384.041C275.597 384.037 274.899 384.099 274.314 384.228C273.734 384.356 273.291 384.545 272.984 384.794C272.678 385.042 272.526 385.343 272.53 385.695ZM288.627 383.097L294.357 374.271H296.297V383.01H298.087V384.402H296.297V387H294.792V384.402H288.627V383.097ZM294.792 383.01V376.272H294.643L290.33 382.91V383.01H294.792ZM304.322 387.174C303.564 387.174 302.876 387.029 302.258 386.739C301.641 386.449 301.148 386.049 300.779 385.539C300.414 385.026 300.216 384.448 300.182 383.805H301.724C301.761 384.178 301.898 384.516 302.134 384.818C302.374 385.117 302.685 385.353 303.066 385.527C303.452 385.697 303.87 385.782 304.322 385.782C304.865 385.782 305.352 385.66 305.783 385.415C306.218 385.171 306.557 384.835 306.802 384.408C307.046 383.981 307.169 383.503 307.169 382.972C307.169 382.43 307.04 381.941 306.783 381.506C306.53 381.066 306.178 380.722 305.727 380.474C305.279 380.221 304.774 380.093 304.21 380.088C303.075 380.076 302.283 380.457 301.836 381.232H300.307L301.202 374.271H308.101V375.675H302.519L302.047 379.405H302.184C302.47 379.181 302.816 379.003 303.222 378.87C303.632 378.738 304.057 378.671 304.496 378.671C305.296 378.671 306.015 378.856 306.653 379.224C307.295 379.589 307.798 380.097 308.163 380.747C308.528 381.394 308.71 382.123 308.71 382.935C308.71 383.743 308.521 384.47 308.144 385.117C307.767 385.759 307.245 386.262 306.578 386.627C305.911 386.992 305.159 387.174 304.322 387.174ZM315.385 387.174C314.565 387.174 313.802 386.99 313.098 386.621C312.398 386.248 311.822 385.612 311.37 384.713C310.923 383.809 310.699 382.612 310.699 381.12C310.699 379.637 310.894 378.369 311.283 377.316C311.673 376.264 312.23 375.464 312.955 374.917C313.68 374.37 314.54 374.097 315.534 374.097C316.268 374.097 316.927 374.24 317.511 374.526C318.099 374.807 318.578 375.203 318.947 375.713C319.316 376.218 319.554 376.802 319.662 377.465H318.095C317.946 376.877 317.652 376.403 317.213 376.042C316.773 375.682 316.214 375.501 315.534 375.501C314.842 375.501 314.246 375.694 313.744 376.079C313.243 376.461 312.858 377.016 312.588 377.745C312.323 378.474 312.191 379.347 312.191 380.362H312.352C312.721 379.823 313.187 379.407 313.751 379.113C314.318 378.818 314.942 378.671 315.621 378.671C316.371 378.671 317.063 378.854 317.697 379.218C318.331 379.579 318.835 380.08 319.208 380.722C319.585 381.365 319.773 382.086 319.773 382.885C319.773 383.681 319.591 384.406 319.226 385.061C318.862 385.711 318.346 386.227 317.679 386.608C317.016 386.985 316.251 387.174 315.385 387.174ZM312.414 382.923C312.414 383.42 312.541 383.888 312.793 384.327C313.046 384.767 313.394 385.119 313.838 385.384C314.285 385.649 314.784 385.782 315.336 385.782C315.874 385.782 316.365 385.653 316.809 385.396C317.252 385.14 317.6 384.791 317.853 384.352C318.11 383.909 318.24 383.424 318.244 382.898C318.24 382.384 318.114 381.912 317.865 381.481C317.621 381.046 317.281 380.702 316.846 380.449C316.411 380.192 315.924 380.064 315.385 380.064C314.842 380.064 314.343 380.196 313.887 380.461C313.436 380.727 313.077 381.079 312.812 381.518C312.551 381.957 312.418 382.425 312.414 382.923ZM328.19 375.775V375.675H321.464V374.271H329.83V375.75L324.013 387H322.347L328.19 375.775ZM335.899 387.174C335.016 387.174 334.231 387.023 333.543 386.72C332.855 386.418 332.321 385.997 331.939 385.459C331.558 384.916 331.37 384.302 331.374 383.619C331.37 383.084 331.481 382.585 331.709 382.121C331.937 381.653 332.248 381.267 332.642 380.965C333.039 380.658 333.479 380.465 333.959 380.387V380.325C333.545 380.225 333.178 380.039 332.859 379.765C332.54 379.492 332.294 379.156 332.12 378.758C331.946 378.36 331.859 377.934 331.859 377.478C331.859 376.836 332.033 376.258 332.381 375.744C332.729 375.23 333.209 374.828 333.823 374.538C334.44 374.244 335.132 374.097 335.899 374.097C336.661 374.097 337.347 374.244 337.956 374.538C338.569 374.828 339.05 375.23 339.398 375.744C339.746 376.258 339.922 376.836 339.926 377.478C339.922 377.934 339.831 378.36 339.653 378.758C339.479 379.156 339.232 379.492 338.913 379.765C338.598 380.039 338.236 380.225 337.825 380.325V380.387C338.302 380.465 338.737 380.658 339.131 380.965C339.528 381.267 339.841 381.653 340.069 382.121C340.301 382.585 340.419 383.084 340.423 383.619C340.419 384.302 340.225 384.916 339.839 385.459C339.454 385.997 338.917 386.418 338.229 386.72C337.546 387.023 336.769 387.174 335.899 387.174ZM332.952 383.532C332.944 383.979 333.058 384.373 333.294 384.713C333.53 385.048 333.872 385.311 334.32 385.502C334.767 385.689 335.294 385.782 335.899 385.782C336.495 385.782 337.015 385.689 337.459 385.502C337.902 385.311 338.244 385.048 338.484 384.713C338.725 384.373 338.845 383.979 338.845 383.532C338.845 383.068 338.716 382.651 338.459 382.282C338.207 381.914 337.856 381.624 337.409 381.412C336.961 381.201 336.458 381.095 335.899 381.095C335.335 381.095 334.827 381.201 334.376 381.412C333.924 381.624 333.572 381.916 333.319 382.289C333.066 382.657 332.944 383.072 332.952 383.532ZM333.4 377.59C333.4 378.017 333.506 378.394 333.717 378.721C333.928 379.048 334.222 379.303 334.6 379.485C334.981 379.664 335.414 379.753 335.899 379.753C336.375 379.753 336.802 379.664 337.179 379.485C337.556 379.303 337.85 379.048 338.062 378.721C338.277 378.39 338.385 378.012 338.385 377.59C338.385 377.171 338.279 376.802 338.068 376.483C337.861 376.16 337.568 375.91 337.191 375.731C336.818 375.553 336.388 375.464 335.899 375.464C335.401 375.464 334.962 375.553 334.581 375.731C334.204 375.91 333.912 376.16 333.705 376.483C333.501 376.802 333.4 377.171 333.4 377.59ZM346.74 374.097C347.556 374.097 348.315 374.283 349.015 374.656C349.715 375.029 350.289 375.665 350.737 376.564C351.188 377.459 351.414 378.646 351.414 380.126C351.414 381.617 351.219 382.892 350.83 383.948C350.44 385.001 349.883 385.802 349.158 386.354C348.433 386.901 347.573 387.174 346.578 387.174C345.845 387.174 345.184 387.033 344.596 386.751C344.007 386.47 343.527 386.074 343.154 385.564C342.785 385.05 342.547 384.456 342.439 383.78H344.005C344.154 384.381 344.449 384.864 344.888 385.229C345.331 385.589 345.895 385.769 346.578 385.769C347.266 385.769 347.861 385.577 348.362 385.191C348.868 384.806 349.255 384.249 349.525 383.519C349.794 382.786 349.931 381.907 349.935 380.884H349.761C349.392 381.419 348.924 381.835 348.356 382.133C347.793 382.427 347.175 382.575 346.504 382.575C345.75 382.575 345.054 382.394 344.415 382.034C343.781 381.669 343.276 381.166 342.899 380.523C342.526 379.881 342.339 379.16 342.339 378.36C342.339 377.577 342.52 376.86 342.88 376.21C343.245 375.559 343.761 375.046 344.428 374.669C345.099 374.287 345.87 374.097 346.74 374.097ZM343.881 378.348C343.881 378.87 344.003 379.349 344.248 379.784C344.496 380.215 344.838 380.557 345.273 380.809C345.708 381.058 346.197 381.182 346.74 381.182C347.279 381.182 347.772 381.05 348.219 380.785C348.671 380.515 349.027 380.161 349.288 379.722C349.554 379.282 349.686 378.816 349.686 378.323C349.686 377.834 349.56 377.372 349.307 376.937C349.054 376.502 348.706 376.152 348.263 375.887C347.824 375.622 347.333 375.489 346.79 375.489C346.247 375.489 345.752 375.617 345.304 375.874C344.861 376.131 344.511 376.479 344.254 376.919C344.001 377.354 343.877 377.83 343.881 378.348ZM357.754 387.174C356.818 387.174 356.016 386.919 355.349 386.41C354.686 385.896 354.178 385.15 353.826 384.172C353.478 383.194 353.304 382.015 353.304 380.635C353.304 379.268 353.48 378.095 353.832 377.117C354.184 376.135 354.694 375.387 355.361 374.874C356.028 374.356 356.826 374.097 357.754 374.097C358.682 374.097 359.48 374.356 360.147 374.874C360.814 375.387 361.324 376.135 361.676 377.117C362.028 378.095 362.204 379.268 362.204 380.635C362.204 382.015 362.028 383.194 361.676 384.172C361.328 385.15 360.821 385.896 360.153 386.41C359.49 386.919 358.691 387.174 357.754 387.174ZM354.845 380.635C354.845 381.725 354.959 382.655 355.187 383.426C355.415 384.193 355.747 384.775 356.182 385.173C356.617 385.57 357.141 385.769 357.754 385.769C358.367 385.769 358.892 385.57 359.327 385.173C359.762 384.775 360.093 384.193 360.321 383.426C360.549 382.655 360.663 381.725 360.663 380.635C360.663 379.546 360.547 378.615 360.315 377.845C360.087 377.07 359.756 376.481 359.321 376.079C358.885 375.677 358.363 375.477 357.754 375.477C357.145 375.477 356.623 375.677 356.188 376.079C355.753 376.481 355.419 377.07 355.187 377.845C354.959 378.615 354.845 379.546 354.845 380.635ZM368.813 387H367.221V375.924H367.147L364.051 377.975V376.384L367.221 374.271H368.813V387ZM372.193 385.844L376.531 381.269C377.103 380.66 377.538 380.171 377.836 379.802C378.139 379.43 378.369 379.071 378.526 378.727C378.684 378.379 378.764 378.017 378.769 377.64C378.764 377.209 378.651 376.829 378.427 376.502C378.207 376.175 377.905 375.922 377.519 375.744C377.138 375.566 376.709 375.477 376.233 375.477C375.735 375.477 375.298 375.576 374.921 375.775C374.548 375.974 374.26 376.253 374.057 376.614C373.858 376.974 373.759 377.391 373.759 377.863H372.255C372.251 377.126 372.423 376.473 372.771 375.905C373.123 375.334 373.606 374.89 374.219 374.575C374.832 374.256 375.52 374.097 376.282 374.097C377.037 374.097 377.714 374.254 378.315 374.569C378.92 374.88 379.392 375.305 379.732 375.843C380.072 376.382 380.244 376.981 380.248 377.64C380.244 378.124 380.153 378.588 379.974 379.032C379.8 379.471 379.504 379.96 379.086 380.499C378.671 381.037 378.081 381.7 377.314 382.488L374.405 385.496V385.595H380.472V387H372.205L372.193 385.844ZM387.17 387.174C386.333 387.174 385.583 387.033 384.92 386.751C384.257 386.47 383.733 386.074 383.348 385.564C382.966 385.055 382.761 384.468 382.732 383.805H384.336C384.365 384.199 384.506 384.545 384.758 384.843C385.011 385.137 385.345 385.365 385.759 385.527C386.178 385.689 386.64 385.769 387.145 385.769C387.7 385.769 388.198 385.676 388.637 385.49C389.076 385.299 389.42 385.034 389.669 384.694C389.917 384.354 390.042 383.967 390.042 383.532C390.042 383.068 389.919 382.657 389.675 382.301C389.435 381.945 389.082 381.667 388.618 381.468C388.154 381.269 387.597 381.17 386.946 381.17H385.915V379.778H386.946C387.46 379.778 387.916 379.686 388.314 379.504C388.716 379.322 389.026 379.067 389.246 378.74C389.47 378.408 389.582 378.025 389.582 377.59C389.582 377.171 389.484 376.802 389.29 376.483C389.095 376.164 388.817 375.918 388.457 375.744C388.096 375.566 387.676 375.477 387.195 375.477C386.739 375.477 386.31 375.557 385.908 375.719C385.511 375.881 385.187 376.113 384.939 376.415C384.69 376.713 384.555 377.064 384.535 377.465H383.006C383.031 376.811 383.234 376.229 383.615 375.719C383.996 375.205 384.504 374.807 385.138 374.526C385.772 374.24 386.466 374.097 387.22 374.097C388.003 374.097 388.689 374.252 389.277 374.563C389.87 374.874 390.323 375.29 390.638 375.812C390.957 376.334 391.115 376.902 391.111 377.515C391.115 377.988 391.03 378.419 390.856 378.808C390.682 379.198 390.431 379.527 390.104 379.796C389.776 380.066 389.391 380.262 388.948 380.387V380.486C389.495 380.569 389.967 380.749 390.365 381.027C390.767 381.3 391.073 381.655 391.285 382.09C391.496 382.521 391.6 383.006 391.596 383.544C391.6 384.228 391.409 384.847 391.024 385.403C390.642 385.954 390.112 386.387 389.433 386.702C388.757 387.017 388.003 387.174 387.17 387.174ZM398.043 387.174C397.107 387.174 396.305 386.919 395.638 386.41C394.975 385.896 394.467 385.15 394.115 384.172C393.767 383.194 393.593 382.015 393.593 380.635C393.593 379.268 393.769 378.095 394.121 377.117C394.474 376.135 394.983 375.387 395.65 374.874C396.317 374.356 397.115 374.097 398.043 374.097C398.971 374.097 399.769 374.356 400.436 374.874C401.103 375.387 401.613 376.135 401.965 377.117C402.317 378.095 402.494 379.268 402.494 380.635C402.494 382.015 402.317 383.194 401.965 384.172C401.617 385.15 401.11 385.896 400.442 386.41C399.779 386.919 398.98 387.174 398.043 387.174ZM395.134 380.635C395.134 381.725 395.248 382.655 395.476 383.426C395.704 384.193 396.036 384.775 396.471 385.173C396.906 385.57 397.43 385.769 398.043 385.769C398.657 385.769 399.181 385.57 399.616 385.173C400.051 384.775 400.382 384.193 400.61 383.426C400.838 382.655 400.952 381.725 400.952 380.635C400.952 379.546 400.836 378.615 400.604 377.845C400.376 377.07 400.045 376.481 399.61 376.079C399.174 375.677 398.652 375.477 398.043 375.477C397.434 375.477 396.912 375.677 396.477 376.079C396.042 376.481 395.708 377.07 395.476 377.845C395.248 378.615 395.134 379.546 395.134 380.635ZM408.766 387.174C407.829 387.174 407.028 386.919 406.361 386.41C405.698 385.896 405.19 385.15 404.838 384.172C404.49 383.194 404.316 382.015 404.316 380.635C404.316 379.268 404.492 378.095 404.844 377.117C405.196 376.135 405.706 375.387 406.373 374.874C407.04 374.356 407.838 374.097 408.766 374.097C409.694 374.097 410.492 374.356 411.159 374.874C411.826 375.387 412.336 376.135 412.688 377.117C413.04 378.095 413.216 379.268 413.216 380.635C413.216 382.015 413.04 383.194 412.688 384.172C412.34 385.15 411.832 385.896 411.165 386.41C410.502 386.919 409.702 387.174 408.766 387.174ZM405.857 380.635C405.857 381.725 405.971 382.655 406.199 383.426C406.427 384.193 406.758 384.775 407.193 385.173C407.629 385.57 408.153 385.769 408.766 385.769C409.379 385.769 409.903 385.57 410.338 385.173C410.774 384.775 411.105 384.193 411.333 383.426C411.561 382.655 411.675 381.725 411.675 380.635C411.675 379.546 411.559 378.615 411.327 377.845C411.099 377.07 410.767 376.481 410.332 376.079C409.897 375.677 409.375 375.477 408.766 375.477C408.157 375.477 407.635 375.677 407.2 376.079C406.765 376.481 406.431 377.07 406.199 377.845C405.971 378.615 405.857 379.546 405.857 380.635ZM419.489 387.174C418.552 387.174 417.75 386.919 417.083 386.41C416.42 385.896 415.913 385.15 415.56 384.172C415.212 383.194 415.038 382.015 415.038 380.635C415.038 379.268 415.214 378.095 415.567 377.117C415.919 376.135 416.429 375.387 417.096 374.874C417.763 374.356 418.56 374.097 419.489 374.097C420.417 374.097 421.214 374.356 421.882 374.874C422.549 375.387 423.058 376.135 423.411 377.117C423.763 378.095 423.939 379.268 423.939 380.635C423.939 382.015 423.763 383.194 423.411 384.172C423.062 385.15 422.555 385.896 421.888 386.41C421.225 386.919 420.425 387.174 419.489 387.174ZM416.58 380.635C416.58 381.725 416.694 382.655 416.922 383.426C417.15 384.193 417.481 384.775 417.916 385.173C418.351 385.57 418.875 385.769 419.489 385.769C420.102 385.769 420.626 385.57 421.061 385.173C421.496 384.775 421.828 384.193 422.056 383.426C422.283 382.655 422.397 381.725 422.397 380.635C422.397 379.546 422.281 378.615 422.049 377.845C421.821 377.07 421.49 376.481 421.055 376.079C420.62 375.677 420.098 375.477 419.489 375.477C418.879 375.477 418.357 375.677 417.922 376.079C417.487 376.481 417.154 377.07 416.922 377.845C416.694 378.615 416.58 379.546 416.58 380.635Z" fill="#111827"/>
<rect x="355" y="436" width="30" height="30" rx="15" fill="#6B7280"/>
<mask id="mask4_244_2554" style="mask-type:alpha" maskUnits="userSpaceOnUse" x="360" y="441" width="20" height="20">
<rect x="360" y="441" width="20" height="20" fill="#D9D9D9"/>
</mask>
<g mask="url(#mask4_244_2554)">
<path d="M363.5 457C363.097 457 362.747 456.851 362.448 456.552C362.149 456.253 362 455.903 362 455.5V446.5C362 446.097 362.149 445.747 362.448 445.448C362.747 445.149 363.097 445 363.5 445H376.5C376.913 445 377.266 445.149 377.559 445.448C377.853 445.747 378 446.097 378 446.5V455.5C378 455.903 377.853 456.253 377.559 456.552C377.266 456.851 376.913 457 376.5 457H363.5ZM376.5 448.271L370.396 451.771C370.333 451.812 370.267 451.844 370.198 451.865C370.129 451.885 370.063 451.896 370 451.896C369.931 451.896 369.868 451.885 369.812 451.865C369.757 451.844 369.695 451.815 369.627 451.777L363.5 448.271V455.5H376.5V448.271ZM370 450.229L376.479 446.5H363.542L370 450.229ZM363.5 448.002V448.189V447.094V447.104V446.5V447.103V447.094V448.191V448.004V455.5V448.002Z" fill="white"/>
</g>
<rect x="395" y="436" width="30" height="30" rx="15" fill="#00C18A"/>
<mask id="mask5_244_2554" style="mask-type:alpha" maskUnits="userSpaceOnUse" x="400" y="441" width="20" height="20">
<rect x="400" y="441" width="20" height="20" fill="#D9D9D9"/>
</mask>
<g mask="url(#mask5_244_2554)">
<path d="M415.125 451.75H411.75C411.537 451.75 411.359 451.679 411.216 451.536C411.072 451.393 411 451.216 411 451.004C411 450.793 411.072 450.615 411.216 450.469C411.359 450.323 411.537 450.25 411.75 450.25H415.125L414.458 449.583C414.306 449.431 414.229 449.252 414.229 449.049C414.229 448.845 414.306 448.669 414.458 448.521C414.611 448.368 414.788 448.292 414.99 448.292C415.191 448.292 415.368 448.368 415.521 448.521L417.482 450.482C417.633 450.633 417.708 450.807 417.708 451.004C417.708 451.201 417.632 451.373 417.479 451.521L415.521 453.479C415.368 453.632 415.194 453.705 415 453.698C414.806 453.691 414.632 453.611 414.479 453.458C414.326 453.306 414.25 453.128 414.25 452.927C414.25 452.726 414.326 452.549 414.479 452.396L415.125 451.75ZM405.5 457.5V458.5H414.5V457.5H405.5ZM405.5 444.5H414.5V443.5H405.5V444.5ZM405.5 460C405.087 460 404.734 459.853 404.441 459.559C404.147 459.266 404 458.913 404 458.5V443.5C404 443.087 404.147 442.734 404.441 442.441C404.734 442.147 405.087 442 405.5 442H414.5C414.913 442 415.266 442.147 415.559 442.441C415.853 442.734 416 443.087 416 443.5V446.25C416 446.463 415.929 446.641 415.786 446.784C415.643 446.928 415.466 447 415.254 447C415.043 447 414.865 446.928 414.719 446.784C414.573 446.641 414.5 446.463 414.5 446.25V446H405.5V456H414.5V455.75C414.5 455.538 414.571 455.359 414.714 455.216C414.857 455.072 415.034 455 415.246 455C415.457 455 415.635 455.072 415.781 455.216C415.927 455.359 416 455.538 416 455.75V458.5C416 458.913 415.853 459.266 415.559 459.559C415.266 459.853 414.913 460 414.5 460H405.5Z" fill="white"/>
</g>
<path d="M25.5 672C25.5 669.515 27.5147 667.5 30 667.5H224.5V715.5H30C27.5147 715.5 25.5 713.485 25.5 711V672Z" stroke="#00C18A"/>
<path d="M93.7188 684.266V698.406H91.9688V684.266H93.7188ZM86.1094 685.297C88.2344 685.297 89.7812 687.234 89.7969 690.281C89.7812 693.359 88.2344 695.281 86.1094 695.281C83.9688 695.281 82.4219 693.359 82.4219 690.281C82.4219 687.234 83.9688 685.297 86.1094 685.297ZM86.1094 686.859C84.9062 686.859 84.0938 688.125 84.0938 690.281C84.0938 692.453 84.9062 693.719 86.1094 693.719C87.2969 693.719 88.1094 692.453 88.1094 690.281C88.1094 688.125 87.2969 686.859 86.1094 686.859ZM100.109 688.578C100.109 690.766 101.016 692.969 102.984 694.031L102.016 695.312C100.703 694.617 99.8125 693.375 99.3125 691.891C98.8125 693.492 97.9219 694.859 96.5938 695.641L95.5781 694.328C97.5781 693.172 98.4688 690.812 98.4688 688.578V688.141H96.0625V686.734H98.4688V684.766H100.109V686.734H102.469V688.141H100.109V688.578ZM107.953 684.266V698.391H106.297V684.266H107.953ZM105.078 684.531V697.703H103.438V691.125H101.594V689.688H103.438V684.531H105.078ZM125.609 684.266V698.391H123.953V684.266H125.609ZM122.688 684.609V697.719H121.031V693H118.828V691.578H121.031V689.484H119.078C118.414 691.828 116.938 693.844 114.297 695.406L113.281 694.172C116.211 692.445 117.555 690.234 117.812 687.391H114.031V685.984H119.531C119.531 686.695 119.484 687.391 119.391 688.062H121.031V684.609H122.688ZM140.125 691.203V692.609H127.25V691.203H132.812V689.234H134.531V691.203H140.125ZM134.547 685.031C134.547 686.75 136.438 688.312 139.391 688.688L138.719 690.047C136.398 689.688 134.555 688.641 133.656 687.156C132.75 688.641 130.906 689.688 128.578 690.047L127.953 688.688C130.859 688.312 132.781 686.719 132.781 685.031V684.5H134.547V685.031ZM138.547 693.734V698.391H136.812V695.094H128.672V693.734H138.547ZM152.141 684.266V689.891H154.312V691.328H152.141V698.391H150.422V684.266H152.141ZM149.328 686.438V687.828H141V686.438H144.344V684.469H146.078V686.438H149.328ZM145.219 688.75C147.25 688.75 148.766 690.125 148.766 692.078C148.766 694.031 147.25 695.391 145.219 695.391C143.156 695.391 141.641 694.031 141.656 692.078C141.641 690.125 143.156 688.75 145.219 688.75ZM145.219 690.172C144.109 690.172 143.312 690.922 143.312 692.078C143.312 693.234 144.109 693.969 145.219 693.953C146.297 693.969 147.094 693.234 147.109 692.078C147.094 690.922 146.297 690.172 145.219 690.172ZM166.703 684.266V698.391H164.953V684.266H166.703ZM162.484 685.766C162.484 689.969 160.859 693.547 155.906 695.891L155 694.5C158.695 692.742 160.414 690.352 160.719 687.141H155.719V685.766H162.484Z" fill="#00C18A"/>
<path d="M225 667H420C422.761 667 425 669.239 425 672V711C425 713.761 422.761 716 420 716H225V667Z" fill="#00C18A"/>
<path d="M315.734 684.875C317.797 684.875 319.266 686.016 319.281 687.719C319.266 689.117 318.211 690.172 316.641 690.469V691.609C317.812 691.547 318.992 691.438 320.094 691.281L320.234 692.547C317.297 693.078 314.016 693.125 311.625 693.125L311.438 691.734C312.453 691.742 313.641 691.734 314.891 691.688V690.469C313.273 690.203 312.188 689.141 312.203 687.719C312.188 686.016 313.656 684.875 315.734 684.875ZM315.734 686.203C314.609 686.203 313.812 686.766 313.828 687.719C313.812 688.641 314.609 689.219 315.734 689.234C316.859 689.219 317.625 688.641 317.641 687.719C317.625 686.766 316.859 686.203 315.734 686.203ZM322.656 684.281V688.844H324.562V690.281H322.656V695.062H320.922V684.281H322.656ZM323.156 696.688V698.094H313.375V694.109H315.109V696.688H323.156ZM338.203 695.312V696.75H325.297V695.312H328.719V692.984H326.828V688.375H334.953V686.641H326.797V685.234H336.672V689.766H328.562V691.578H337V692.984H334.938V695.312H338.203ZM330.406 695.312H333.234V692.984H330.406V695.312Z" fill="white"/>
</svg>
