<svg width="450" height="851" viewBox="0 0 450 851" fill="none" xmlns="http://www.w3.org/2000/svg">
<rect width="450" height="851" fill="white"/>
<mask id="mask0_240_1516" style="mask-type:alpha" maskUnits="userSpaceOnUse" x="25" y="20" width="40" height="40">
<rect x="25" y="20" width="40" height="40" fill="#D9D9D9"/>
</mask>
<g mask="url(#mask0_240_1516)">
<path d="M28.375 39.972L35.4583 47.0553C35.7267 47.3239 35.8562 47.6481 35.8471 48.0278C35.8379 48.4073 35.699 48.7313 35.4304 48.9999C35.1618 49.2685 34.8331 49.4028 34.4442 49.4028C34.0553 49.4028 33.7267 49.2685 33.4583 48.9999L25.4025 40.9445C25.2544 40.7962 25.1503 40.6434 25.09 40.4862C25.03 40.3287 25 40.1573 25 39.972C25 39.787 25.03 39.6158 25.09 39.4583C25.1503 39.3008 25.2544 39.148 25.4025 38.9999L33.4858 30.9166C33.7544 30.648 34.0832 30.5137 34.4721 30.5137C34.861 30.5137 35.1897 30.648 35.4583 30.9166C35.7267 31.1852 35.8608 31.5139 35.8608 31.9028C35.8608 32.2917 35.7267 32.6203 35.4583 32.8887L28.375 39.972Z" fill="#111827"/>
</g>
<path d="M64.2383 31.6738V47.5645H62.375V31.6738H64.2383ZM60.9512 32.0605V46.8086H59.0879V41.5H56.6094V39.9004H59.0879V37.5449H56.8906C56.1436 40.1816 54.4824 42.4492 51.5117 44.207L50.3691 42.8184C53.665 40.876 55.1768 38.3887 55.4668 35.1895H51.2129V33.6074H57.4004C57.4004 34.4072 57.3477 35.1895 57.2422 35.9453H59.0879V32.0605H60.9512ZM75.2246 33.0273V34.627H71.9023C71.9551 36.3848 73.2471 38.0547 75.6641 38.7578L74.7324 40.2871C72.9219 39.751 71.6299 38.6436 70.9355 37.2285C70.2324 38.7842 68.8965 39.9971 67.0332 40.5684L66.0312 39.0391C68.501 38.3008 69.8369 36.543 69.916 34.627H66.5762V33.0273H75.2246ZM71.8848 39.9004V42.7305C73.1855 42.6689 74.4951 42.5635 75.7168 42.3965L75.8574 43.8027C72.5 44.4355 68.8613 44.418 66.1543 44.4355L65.8906 42.8359C67.0947 42.8359 68.4834 42.8359 69.9336 42.8008V39.9004H71.8848ZM80.8848 38.0547V39.6895H78.582V47.5645H76.6309V31.6738H78.582V38.0547H80.8848ZM94.8594 31.6738V47.582H92.8906V31.6738H94.8594ZM86.2988 32.834C88.6895 32.834 90.4297 35.0137 90.4473 38.4414C90.4297 41.9043 88.6895 44.0664 86.2988 44.0664C83.8906 44.0664 82.1504 41.9043 82.1504 38.4414C82.1504 35.0137 83.8906 32.834 86.2988 32.834ZM86.2988 34.5918C84.9453 34.5918 84.0312 36.0156 84.0312 38.4414C84.0312 40.8848 84.9453 42.3086 86.2988 42.3086C87.6348 42.3086 88.5488 40.8848 88.5488 38.4414C88.5488 36.0156 87.6348 34.5918 86.2988 34.5918ZM102.049 36.5254C102.049 38.9863 103.068 41.4648 105.283 42.6602L104.193 44.1016C102.717 43.3193 101.715 41.9219 101.152 40.252C100.59 42.0537 99.5879 43.5918 98.0938 44.4707L96.9512 42.9941C99.2012 41.6934 100.203 39.0391 100.203 36.5254V36.0332H97.4961V34.4512H100.203V32.2363H102.049V34.4512H104.703V36.0332H102.049V36.5254ZM110.873 31.6738V47.5645H109.01V31.6738H110.873ZM107.639 31.9727V46.791H105.793V39.3906H103.719V37.7734H105.793V31.9727H107.639Z" fill="#111827"/>
<path d="M393.258 38.0371V39.1973H390.727V47.4238H389.355V31.7969H390.727V38.0371H393.258ZM380.654 33.3438V42.291C382.939 42.2822 385.269 42.1064 387.844 41.5703L388.02 42.748C385.33 43.293 382.904 43.4512 380.531 43.4512H379.283V33.3438H380.654ZM406.283 31.7969V38.1602H408.814V39.3203H406.283V47.4238H404.912V31.7969H406.283ZM402.24 33.4844C402.24 37.9141 400.166 41.9395 395.068 44.4531L394.295 43.3633C398.338 41.3506 400.535 38.3447 400.852 34.6445H395.016V33.4844H402.24ZM422.666 31.7969V47.4238H421.277V31.7969H422.666ZM418.043 33.502C418.025 38.002 415.934 41.9746 410.695 44.4883L409.939 43.3633C414.167 41.3594 416.32 38.3623 416.637 34.627H410.66V33.502H418.043Z" fill="#EF403C"/>
<mask id="path-5-inside-1_240_1516" fill="white">
<path d="M25 110H425V186H25V110Z"/>
</mask>
<path d="M425 185H25V187H425V185Z" fill="#D1D5DB" mask="url(#path-5-inside-1_240_1516)"/>
<path d="M28.1575 116.868H30.3391V114.662H32.4151V122.294H26.038V114.662H28.1575V116.868ZM30.3391 120.529V118.602H28.1575V120.529H30.3391ZM28.2196 126.62C28.2155 125.99 28.4372 125.445 28.8847 124.985C29.3363 124.526 29.9786 124.173 30.8115 123.929C31.6443 123.684 32.6243 123.562 33.7514 123.562C34.8743 123.562 35.8522 123.684 36.6851 123.929C37.518 124.173 38.1623 124.526 38.6181 124.985C39.0739 125.445 39.3018 125.99 39.3018 126.62C39.3018 127.242 39.0739 127.776 38.6181 128.224C38.1623 128.675 37.518 129.019 36.6851 129.256C35.8522 129.496 34.8743 129.616 33.7514 129.616C32.6243 129.616 31.6443 129.498 30.8115 129.262C29.9786 129.026 29.3363 128.682 28.8847 128.23C28.4372 127.778 28.2155 127.242 28.2196 126.62ZM30.4572 126.62C30.453 127.047 30.7348 127.368 31.3025 127.584C31.8702 127.799 32.6865 127.909 33.7514 127.913C34.808 127.909 35.6202 127.799 36.1878 127.584C36.7555 127.368 37.0414 127.047 37.0456 126.62C37.0414 126.185 36.7576 125.856 36.1941 125.632C35.6347 125.404 34.8349 125.29 33.7949 125.29C32.7217 125.29 31.895 125.402 31.3149 125.626C30.739 125.849 30.453 126.181 30.4572 126.62ZM33.6706 113.916H35.7528V117.508H37.0953V113.636H39.221V123.32H37.0953V119.323H35.7528V122.903H33.6706V113.916ZM49.6747 114.575C49.6706 116.079 49.4116 117.401 48.8978 118.54C48.3881 119.68 47.578 120.662 46.4676 121.486C45.3612 122.307 43.9192 122.972 42.1416 123.481L41.3274 121.704C42.4461 121.401 43.393 121.041 44.1678 120.622C44.9427 120.204 45.5684 119.727 46.0449 119.193L41.6133 119.51L41.2963 117.769L46.9959 117.577C47.1285 117.212 47.2217 116.802 47.2756 116.346H42.1043V114.575H49.6747ZM43.4593 126.465C43.4593 125.806 43.683 125.24 44.1305 124.768C44.578 124.291 45.2162 123.929 46.0449 123.68C46.8778 123.432 47.864 123.307 49.0035 123.307C50.114 123.307 51.0815 123.432 51.9061 123.68C52.7307 123.929 53.3667 124.291 53.8142 124.768C54.2618 125.24 54.4855 125.806 54.4855 126.465C54.4855 127.124 54.2618 127.687 53.8142 128.155C53.3667 128.628 52.7307 128.986 51.9061 129.231C51.0815 129.475 50.114 129.597 49.0035 129.597C47.864 129.597 46.8778 129.475 46.0449 129.231C45.212 128.986 44.5718 128.628 44.1243 128.155C43.681 127.687 43.4593 127.124 43.4593 126.465ZM45.7279 126.465C45.7238 126.929 45.9993 127.283 46.5546 127.528C47.1098 127.768 47.9261 127.888 49.0035 127.888C50.0518 127.888 50.8536 127.766 51.4089 127.521C51.9641 127.277 52.2438 126.925 52.2479 126.465C52.2438 126.001 51.9641 125.651 51.4089 125.414C50.8577 125.178 50.056 125.06 49.0035 125.06C47.9178 125.06 47.0995 125.178 46.5484 125.414C45.9972 125.651 45.7238 126.001 45.7279 126.465ZM52.1734 113.636H54.4234V123.065H52.1734V113.636ZM64.9765 121.275H71.1858V123.071H56.5919V121.275H62.7514V119.348H64.9765V121.275ZM57.2196 118.509C58.1727 118.418 59.0014 118.252 59.7058 118.012C60.4144 117.771 60.9779 117.483 61.3964 117.148C61.8191 116.812 62.1009 116.454 62.2417 116.073H57.9158V114.301H69.8681V116.073H65.5111C65.652 116.454 65.9317 116.812 66.3502 117.148C66.7728 117.483 67.3384 117.771 68.047 118.012C68.7555 118.252 69.5905 118.418 70.5518 118.509L69.7562 120.256C68.2811 120.11 67.038 119.779 66.027 119.261C65.02 118.743 64.2991 118.09 63.864 117.303C63.4289 118.095 62.712 118.749 61.7134 119.267C60.7148 119.785 59.4779 120.115 58.0028 120.256L57.2196 118.509ZM58.2576 126.782C58.2576 126.181 58.4793 125.671 58.9227 125.253C59.3702 124.83 60.0125 124.509 60.8495 124.289C61.6906 124.066 62.6934 123.954 63.8578 123.954C65.0221 123.954 66.0207 124.064 66.8536 124.283C67.6865 124.503 68.3225 124.824 68.7618 125.247C69.2051 125.669 69.4289 126.181 69.433 126.782C69.4289 127.387 69.2051 127.901 68.7618 128.323C68.3225 128.75 67.6865 129.071 66.8536 129.287C66.0207 129.506 65.0221 129.616 63.8578 129.616C62.6934 129.616 61.6906 129.506 60.8495 129.287C60.0125 129.071 59.3702 128.75 58.9227 128.323C58.4793 127.901 58.2576 127.387 58.2576 126.782ZM60.5449 126.782C60.5408 127.175 60.8122 127.468 61.3591 127.658C61.9061 127.849 62.739 127.944 63.8578 127.944C64.9641 127.944 65.7928 127.849 66.3439 127.658C66.8992 127.468 67.1789 127.175 67.183 126.782C67.1789 126.405 66.8992 126.125 66.3439 125.943C65.7887 125.756 64.96 125.663 63.8578 125.663C62.739 125.663 61.9061 125.756 61.3591 125.943C60.8122 126.125 60.5408 126.405 60.5449 126.782ZM84.8405 117.477H86.9911V119.342H84.8405V122.99H82.5905V113.611H84.8405V117.477ZM72.1423 115.028H75.7783V113.506H78.0159V115.028H81.6395V116.787H72.1423V115.028ZM72.9254 120.069C72.9254 119.51 73.0912 119.017 73.4227 118.59C73.7542 118.163 74.2203 117.831 74.8212 117.595C75.422 117.359 76.114 117.241 76.8971 117.241C77.6637 117.241 78.3453 117.359 78.942 117.595C79.5387 117.831 80.0028 118.163 80.3343 118.59C80.6658 119.017 80.8315 119.51 80.8315 120.069C80.8315 120.633 80.6658 121.128 80.3343 121.555C80.0028 121.981 79.5387 122.313 78.942 122.549C78.3453 122.781 77.6637 122.897 76.8971 122.897C76.1181 122.897 75.4261 122.781 74.8212 122.549C74.2203 122.317 73.7542 121.988 73.4227 121.561C73.0912 121.13 72.9254 120.633 72.9254 120.069ZM74.3674 123.599H76.5926V124.824H82.5905V123.599H84.8405V129.442H74.3674V123.599ZM75.1071 120.069C75.1071 120.45 75.2687 120.744 75.5919 120.952C75.9151 121.159 76.3502 121.262 76.8971 121.262C77.4441 121.262 77.8812 121.159 78.2086 120.952C78.5359 120.744 78.7017 120.45 78.7058 120.069C78.7058 119.825 78.6292 119.615 78.4759 119.441C78.3267 119.263 78.1174 119.126 77.8481 119.031C77.5829 118.936 77.2742 118.888 76.922 118.888C76.3709 118.888 75.9296 118.994 75.5981 119.205C75.2708 119.412 75.1071 119.7 75.1071 120.069ZM82.5905 127.677V126.546H76.5926V127.677H82.5905ZM102.299 123.624H87.6679V121.865H93.846V120.877H89.5014V114.003H100.59V115.737H91.739V116.626H100.217V118.254H91.739V119.168H100.727V120.877H96.096V121.865H102.299V123.624ZM89.3709 126.981C89.3709 126.421 89.5884 125.945 90.0235 125.551C90.4628 125.157 91.1009 124.859 91.9379 124.656C92.7749 124.453 93.786 124.352 94.971 124.352C96.1437 124.352 97.1465 124.453 97.9793 124.656C98.8122 124.859 99.4462 125.157 99.8813 125.551C100.32 125.945 100.542 126.421 100.546 126.981C100.542 127.552 100.32 128.035 99.8813 128.429C99.4462 128.823 98.8122 129.119 97.9793 129.318C97.1506 129.521 96.1478 129.62 94.971 129.616C93.7777 129.62 92.7625 129.521 91.9255 129.318C91.0926 129.119 90.4586 128.823 90.0235 128.429C89.5884 128.035 89.3709 127.552 89.3709 126.981ZM91.6147 126.981C91.6105 127.316 91.8757 127.563 92.4103 127.72C92.9448 127.878 93.7756 127.956 94.9027 127.956C96.0629 127.956 96.9165 127.88 97.4634 127.727C98.0145 127.569 98.2922 127.32 98.2963 126.981C98.2922 126.645 98.0187 126.401 97.4759 126.247C96.9372 126.09 96.1023 126.011 94.971 126.011C93.8191 126.011 92.9697 126.09 92.4227 126.247C91.8799 126.401 91.6105 126.645 91.6147 126.981ZM112.355 116.483H109.16C109.164 117.125 109.299 117.736 109.564 118.316C109.834 118.896 110.244 119.412 110.795 119.864C111.346 120.316 112.032 120.664 112.852 120.908L111.789 122.661C110.923 122.4 110.18 122.015 109.558 121.505C108.937 120.995 108.443 120.388 108.079 119.684C107.714 120.508 107.202 121.223 106.544 121.828C105.885 122.433 105.089 122.889 104.157 123.195L103.019 121.424C103.869 121.155 104.582 120.765 105.158 120.256C105.738 119.742 106.171 119.16 106.457 118.509C106.742 117.858 106.89 117.183 106.898 116.483H103.629V114.693H112.355V116.483ZM105.226 126.508C105.226 125.866 105.445 125.313 105.885 124.849C106.328 124.385 106.96 124.032 107.78 123.792C108.605 123.548 109.579 123.425 110.702 123.425C111.812 123.425 112.771 123.548 113.579 123.792C114.392 124.032 115.015 124.385 115.45 124.849C115.885 125.313 116.103 125.866 116.103 126.508C116.103 127.155 115.885 127.71 115.45 128.174C115.015 128.642 114.392 128.999 113.579 129.243C112.767 129.492 111.808 129.616 110.702 129.616C109.579 129.616 108.605 129.492 107.78 129.243C106.96 128.999 106.328 128.642 105.885 128.174C105.445 127.71 105.226 127.155 105.226 126.508ZM107.47 126.508C107.466 126.96 107.735 127.3 108.278 127.528C108.825 127.756 109.618 127.869 110.658 127.869C111.723 127.869 112.527 127.758 113.07 127.534C113.617 127.306 113.89 126.964 113.89 126.508C113.89 126.065 113.623 125.731 113.088 125.508C112.558 125.284 111.777 125.172 110.745 125.172C109.672 125.172 108.856 125.284 108.296 125.508C107.741 125.727 107.466 126.061 107.47 126.508ZM113.704 113.611H115.954V117.334H118.104V119.162H115.954V123.115H113.704V113.611ZM125.283 123.798H119.483V121.735H125.283V123.798ZM141.536 127.758H126.904V125.936H133.076V122.972H128.452V114.637H130.702V117.129H137.676V114.637H139.913V122.972H135.295V125.936H141.536V127.758ZM137.676 121.182V118.907H130.702V121.182H137.676ZM157.055 123.624H142.424V121.865H148.602V120.877H144.257V114.003H155.346V115.737H146.495V116.626H154.973V118.254H146.495V119.168H155.482V120.877H150.852V121.865H157.055V123.624ZM144.127 126.981C144.127 126.421 144.344 125.945 144.779 125.551C145.219 125.157 145.857 124.859 146.694 124.656C147.531 124.453 148.542 124.352 149.727 124.352C150.9 124.352 151.902 124.453 152.735 124.656C153.568 124.859 154.202 125.157 154.637 125.551C155.076 125.945 155.298 126.421 155.302 126.981C155.298 127.552 155.076 128.035 154.637 128.429C154.202 128.823 153.568 129.119 152.735 129.318C151.906 129.521 150.904 129.62 149.727 129.616C148.534 129.62 147.518 129.521 146.681 129.318C145.848 129.119 145.214 128.823 144.779 128.429C144.344 128.035 144.127 127.552 144.127 126.981ZM146.371 126.981C146.366 127.316 146.632 127.563 147.166 127.72C147.701 127.878 148.531 127.956 149.659 127.956C150.819 127.956 151.672 127.88 152.219 127.727C152.77 127.569 153.048 127.32 153.052 126.981C153.048 126.645 152.775 126.401 152.232 126.247C151.693 126.09 150.858 126.011 149.727 126.011C148.575 126.011 147.726 126.09 147.179 126.247C146.636 126.401 146.366 126.645 146.371 126.981ZM171.878 129.622H169.734V113.611H171.878V129.622ZM158.154 120.541C158.154 119.365 158.295 118.341 158.577 117.471C158.863 116.601 159.267 115.932 159.789 115.463C160.315 114.995 160.929 114.761 161.629 114.761C162.296 114.761 162.886 114.97 163.4 115.389C163.914 115.803 164.32 116.396 164.618 117.166H166.496V113.86H168.609V128.883H166.496V123.929H164.625C164.322 124.712 163.914 125.315 163.4 125.738C162.891 126.156 162.3 126.363 161.629 126.359C160.929 126.359 160.315 126.125 159.789 125.657C159.267 125.189 158.863 124.517 158.577 123.643C158.295 122.765 158.154 121.731 158.154 120.541ZM160.187 120.498C160.187 121.737 160.309 122.667 160.554 123.289C160.798 123.906 161.156 124.213 161.629 124.209C162.105 124.213 162.472 123.906 162.729 123.289C162.99 122.671 163.123 121.756 163.127 120.541C163.123 119.34 162.99 118.428 162.729 117.807C162.468 117.185 162.101 116.876 161.629 116.881C161.161 116.876 160.802 117.179 160.554 117.788C160.309 118.397 160.187 119.3 160.187 120.498ZM165.06 118.963C165.13 119.468 165.165 119.994 165.165 120.541C165.165 121.068 165.132 121.59 165.066 122.108H166.496V118.963H165.06ZM186.478 115.625C186.478 116.479 186.455 117.233 186.409 117.887C186.368 118.542 186.262 119.276 186.092 120.088H188.206V121.896H173.574V120.088H183.83C183.987 119.371 184.093 118.706 184.147 118.093C184.201 117.479 184.232 116.829 184.24 116.141H175.364V114.351H186.478V115.625ZM175.302 123.593H186.415V129.442H175.302V123.593ZM184.184 127.646V125.346H177.502V127.646H184.184Z" fill="#111827"/>
<path d="M30.0608 152H28.6464V142.155H28.5801L25.8287 143.978V142.564L28.6464 140.685H30.0608V152ZM33.0653 150.972L36.9217 146.906C37.43 146.365 37.8167 145.93 38.0819 145.602C38.3508 145.271 38.5552 144.952 38.6952 144.646C38.8351 144.337 38.907 144.015 38.9107 143.68C38.907 143.297 38.8057 142.959 38.6068 142.669C38.4116 142.378 38.1427 142.153 37.8002 141.994C37.4613 141.836 37.0801 141.757 36.6565 141.757C36.2145 141.757 35.8259 141.845 35.4908 142.022C35.1593 142.199 34.9033 142.448 34.7228 142.768C34.546 143.088 34.4576 143.459 34.4576 143.878H33.1206C33.1169 143.223 33.2698 142.643 33.5792 142.138C33.8922 141.63 34.3213 141.236 34.8665 140.956C35.4116 140.672 36.023 140.53 36.7007 140.53C37.3711 140.53 37.9733 140.67 38.5073 140.95C39.0451 141.227 39.465 141.604 39.767 142.083C40.069 142.562 40.2219 143.094 40.2256 143.68C40.2219 144.11 40.1409 144.523 39.9825 144.917C39.8278 145.308 39.5644 145.742 39.1924 146.221C38.8241 146.7 38.2992 147.289 37.6178 147.989L35.0322 150.663V150.751H40.4245V152H33.0764L33.0653 150.972ZM46.3786 152.155C45.6346 152.155 44.9679 152.029 44.3786 151.779C43.7893 151.529 43.3234 151.177 42.9808 150.724C42.642 150.271 42.4597 149.75 42.4339 149.16H43.8593C43.8851 149.51 44.0103 149.818 44.235 150.083C44.4597 150.344 44.7562 150.547 45.1245 150.691C45.4965 150.834 45.9072 150.906 46.3565 150.906C46.8501 150.906 47.2921 150.823 47.6825 150.657C48.0729 150.488 48.3786 150.252 48.5996 149.95C48.8206 149.648 48.9311 149.304 48.9311 148.917C48.9311 148.505 48.8225 148.14 48.6051 147.823C48.3915 147.506 48.0784 147.26 47.6659 147.083C47.2534 146.906 46.758 146.818 46.1797 146.818H45.2626V145.58H46.1797C46.6365 145.58 47.0416 145.499 47.3952 145.337C47.7525 145.175 48.0287 144.948 48.2239 144.657C48.4228 144.363 48.5223 144.022 48.5223 143.635C48.5223 143.263 48.4357 142.936 48.2626 142.652C48.0895 142.368 47.8427 142.149 47.5223 141.994C47.2018 141.836 46.828 141.757 46.4007 141.757C45.9956 141.757 45.6144 141.829 45.2571 141.972C44.9035 142.116 44.6162 142.322 44.3952 142.591C44.1742 142.856 44.0545 143.168 44.0361 143.525H42.677C42.6991 142.943 42.8795 142.425 43.2184 141.972C43.5573 141.516 44.0085 141.162 44.572 140.912C45.1355 140.657 45.7525 140.53 46.4228 140.53C47.119 140.53 47.7285 140.669 48.2516 140.945C48.7783 141.221 49.1816 141.591 49.4615 142.055C49.7451 142.519 49.8851 143.024 49.8814 143.569C49.8851 143.989 49.8096 144.372 49.6549 144.718C49.5002 145.064 49.2773 145.357 48.9864 145.597C48.6954 145.836 48.3528 146.011 47.9587 146.122V146.21C48.4449 146.284 48.8648 146.444 49.2184 146.691C49.5757 146.934 49.8482 147.249 50.0361 147.635C50.2239 148.018 50.316 148.449 50.3123 148.928C50.316 149.536 50.1466 150.087 49.804 150.58C49.4652 151.07 48.9937 151.455 48.3897 151.735C47.7893 152.015 47.119 152.155 46.3786 152.155ZM52.0658 148.53L57.1597 140.685H58.8835V148.453H60.4746V149.691H58.8835V152H57.5464V149.691H52.0658V148.53ZM57.5464 148.453V142.464H57.4138L53.5796 148.365V148.453H57.5464ZM66.017 152.155C65.343 152.155 64.7316 152.026 64.1828 151.768C63.6339 151.51 63.1956 151.155 62.8678 150.702C62.5437 150.245 62.3669 149.731 62.3374 149.16H63.7076C63.7408 149.492 63.8623 149.792 64.0723 150.061C64.2859 150.326 64.5621 150.536 64.901 150.691C65.2435 150.842 65.6155 150.917 66.017 150.917C66.4995 150.917 66.9323 150.808 67.3153 150.591C67.7021 150.374 68.0041 150.076 68.2214 149.696C68.4387 149.317 68.5474 148.891 68.5474 148.42C68.5474 147.937 68.4332 147.503 68.2049 147.116C67.9802 146.726 67.6671 146.42 67.2656 146.199C66.8678 145.974 66.4185 145.86 65.9176 145.856C64.9084 145.845 64.2049 146.184 63.8071 146.873H62.4479L63.2435 140.685H69.3761V141.934H64.4148L63.9949 145.249H64.1165C64.3706 145.05 64.6781 144.891 65.0391 144.773C65.4037 144.656 65.7813 144.597 66.1717 144.597C66.8826 144.597 67.5216 144.761 68.0888 145.088C68.6597 145.413 69.1072 145.864 69.4314 146.442C69.7555 147.017 69.9176 147.665 69.9176 148.387C69.9176 149.105 69.75 149.751 69.4148 150.326C69.0796 150.897 68.6155 151.344 68.0225 151.669C67.4295 151.993 66.761 152.155 66.017 152.155ZM75.8512 152.155C75.1219 152.155 74.4442 151.991 73.818 151.663C73.1956 151.331 72.6836 150.766 72.2821 149.967C71.8843 149.164 71.6854 148.099 71.6854 146.773C71.6854 145.455 71.8585 144.328 72.2048 143.392C72.551 142.457 73.0464 141.746 73.691 141.26C74.3355 140.773 75.0998 140.53 75.9838 140.53C76.6357 140.53 77.2213 140.657 77.7407 140.912C78.2637 141.162 78.6891 141.514 79.0169 141.967C79.3447 142.416 79.5565 142.936 79.6523 143.525H78.26C78.1274 143.002 77.8659 142.58 77.4755 142.26C77.0851 141.939 76.5878 141.779 75.9838 141.779C75.3687 141.779 74.8383 141.95 74.3926 142.293C73.9469 142.632 73.6044 143.125 73.365 143.773C73.1293 144.422 73.0114 145.197 73.0114 146.099H73.155C73.4828 145.621 73.8972 145.25 74.3981 144.989C74.9027 144.727 75.4571 144.597 76.0611 144.597C76.7278 144.597 77.3429 144.759 77.9064 145.083C78.47 145.403 78.9175 145.849 79.249 146.42C79.5841 146.991 79.7517 147.632 79.7517 148.343C79.7517 149.05 79.5897 149.694 79.2655 150.276C78.9414 150.855 78.4829 151.313 77.8898 151.652C77.3005 151.987 76.621 152.155 75.8512 152.155ZM73.2103 148.376C73.2103 148.818 73.3226 149.234 73.5473 149.624C73.772 150.015 74.0814 150.328 74.4755 150.564C74.8733 150.799 75.3171 150.917 75.807 150.917C76.2858 150.917 76.7223 150.803 77.1164 150.575C77.5105 150.346 77.8199 150.037 78.0445 149.646C78.2729 149.252 78.3889 148.821 78.3926 148.354C78.3889 147.897 78.2766 147.477 78.0556 147.094C77.8383 146.707 77.5363 146.401 77.1495 146.177C76.7628 145.948 76.33 145.834 75.8512 145.834C75.3687 145.834 74.9248 145.952 74.5197 146.188C74.1182 146.424 73.7996 146.737 73.5639 147.127C73.3318 147.517 73.214 147.934 73.2103 148.376ZM86.5698 146.961H81.6084V145.724H86.5698V146.961ZM93.7952 142.022V141.934H87.8173V140.685H95.2538V142L90.0825 152H88.6019L93.7952 142.022ZM100.648 152.155C99.8632 152.155 99.1652 152.02 98.5538 151.751C97.9424 151.483 97.4672 151.109 97.1284 150.63C96.7895 150.147 96.6219 149.602 96.6256 148.994C96.6219 148.519 96.7214 148.076 96.9239 147.663C97.1265 147.247 97.4028 146.904 97.7527 146.635C98.1063 146.363 98.4967 146.192 98.9239 146.122V146.066C98.5556 145.978 98.2297 145.812 97.946 145.569C97.6624 145.326 97.4433 145.028 97.2886 144.674C97.1339 144.32 97.0565 143.941 97.0565 143.536C97.0565 142.965 97.2112 142.451 97.5206 141.994C97.83 141.538 98.2573 141.18 98.8024 140.923C99.3512 140.661 99.9663 140.53 100.648 140.53C101.325 140.53 101.935 140.661 102.476 140.923C103.022 141.18 103.449 141.538 103.758 141.994C104.068 142.451 104.224 142.965 104.228 143.536C104.224 143.941 104.143 144.32 103.985 144.674C103.83 145.028 103.611 145.326 103.327 145.569C103.047 145.812 102.725 145.978 102.36 146.066V146.122C102.784 146.192 103.171 146.363 103.521 146.635C103.874 146.904 104.152 147.247 104.355 147.663C104.561 148.076 104.666 148.519 104.67 148.994C104.666 149.602 104.493 150.147 104.15 150.63C103.808 151.109 103.331 151.483 102.72 151.751C102.112 152.02 101.421 152.155 100.648 152.155ZM98.0289 148.917C98.0216 149.315 98.1228 149.665 98.3328 149.967C98.5427 150.265 98.8466 150.499 99.2444 150.669C99.6422 150.834 100.11 150.917 100.648 150.917C101.178 150.917 101.64 150.834 102.034 150.669C102.429 150.499 102.732 150.265 102.946 149.967C103.16 149.665 103.266 149.315 103.266 148.917C103.266 148.505 103.152 148.134 102.924 147.807C102.699 147.479 102.388 147.221 101.99 147.033C101.592 146.845 101.145 146.751 100.648 146.751C100.147 146.751 99.6956 146.845 99.2941 147.033C98.8926 147.221 98.5796 147.481 98.3549 147.812C98.1302 148.14 98.0216 148.508 98.0289 148.917ZM98.4267 143.635C98.4267 144.015 98.5206 144.35 98.7085 144.641C98.8963 144.932 99.1578 145.158 99.493 145.32C99.8319 145.479 100.217 145.558 100.648 145.558C101.071 145.558 101.451 145.479 101.786 145.32C102.121 145.158 102.383 144.932 102.57 144.641C102.762 144.346 102.858 144.011 102.858 143.635C102.858 143.263 102.764 142.936 102.576 142.652C102.392 142.365 102.132 142.142 101.797 141.983C101.465 141.825 101.082 141.746 100.648 141.746C100.206 141.746 99.8153 141.825 99.4764 141.983C99.1413 142.142 98.8816 142.365 98.6974 142.652C98.5169 142.936 98.4267 143.263 98.4267 143.635ZM111.445 146.961H106.483V145.724H111.445V146.961ZM117.206 140.53C117.932 140.53 118.606 140.696 119.229 141.028C119.851 141.359 120.361 141.924 120.759 142.724C121.16 143.519 121.361 144.575 121.361 145.89C121.361 147.215 121.188 148.348 120.842 149.287C120.496 150.223 120 150.936 119.356 151.425C118.711 151.912 117.947 152.155 117.063 152.155C116.411 152.155 115.823 152.029 115.3 151.779C114.777 151.529 114.35 151.177 114.019 150.724C113.691 150.267 113.479 149.738 113.383 149.138H114.775C114.908 149.672 115.17 150.101 115.56 150.425C115.954 150.746 116.455 150.906 117.063 150.906C117.674 150.906 118.203 150.735 118.648 150.392C119.098 150.05 119.442 149.554 119.682 148.906C119.921 148.254 120.043 147.473 120.046 146.564H119.891C119.564 147.039 119.147 147.409 118.643 147.674C118.142 147.936 117.593 148.066 116.996 148.066C116.326 148.066 115.707 147.906 115.14 147.586C114.577 147.262 114.127 146.814 113.792 146.243C113.461 145.672 113.295 145.031 113.295 144.32C113.295 143.624 113.455 142.987 113.775 142.409C114.1 141.831 114.558 141.374 115.151 141.039C115.748 140.7 116.433 140.53 117.206 140.53ZM114.665 144.309C114.665 144.773 114.774 145.199 114.991 145.586C115.212 145.969 115.516 146.273 115.903 146.497C116.289 146.718 116.724 146.829 117.206 146.829C117.685 146.829 118.124 146.711 118.521 146.475C118.923 146.236 119.24 145.921 119.472 145.53C119.707 145.14 119.825 144.726 119.825 144.287C119.825 143.853 119.713 143.442 119.488 143.055C119.263 142.669 118.954 142.357 118.56 142.122C118.17 141.886 117.733 141.768 117.251 141.768C116.768 141.768 116.328 141.882 115.93 142.11C115.536 142.339 115.225 142.648 114.996 143.039C114.772 143.425 114.661 143.849 114.665 144.309ZM126.997 152.155C126.164 152.155 125.452 151.928 124.859 151.475C124.269 151.018 123.818 150.355 123.505 149.486C123.196 148.617 123.041 147.569 123.041 146.343C123.041 145.127 123.198 144.085 123.511 143.215C123.824 142.343 124.277 141.678 124.87 141.221C125.463 140.761 126.172 140.53 126.997 140.53C127.822 140.53 128.531 140.761 129.124 141.221C129.717 141.678 130.17 142.343 130.483 143.215C130.796 144.085 130.953 145.127 130.953 146.343C130.953 147.569 130.796 148.617 130.483 149.486C130.174 150.355 129.722 151.018 129.129 151.475C128.54 151.928 127.829 152.155 126.997 152.155ZM124.411 146.343C124.411 147.311 124.512 148.138 124.715 148.823C124.918 149.505 125.212 150.022 125.599 150.376C125.986 150.729 126.452 150.906 126.997 150.906C127.542 150.906 128.008 150.729 128.395 150.376C128.781 150.022 129.076 149.505 129.279 148.823C129.481 148.138 129.582 147.311 129.582 146.343C129.582 145.374 129.479 144.547 129.273 143.862C129.07 143.173 128.776 142.65 128.389 142.293C128.002 141.936 127.538 141.757 126.997 141.757C126.455 141.757 125.991 141.936 125.605 142.293C125.218 142.65 124.921 143.173 124.715 143.862C124.512 144.547 124.411 145.374 124.411 146.343ZM136.528 152.155C135.696 152.155 134.983 151.928 134.39 151.475C133.801 151.018 133.349 150.355 133.036 149.486C132.727 148.617 132.572 147.569 132.572 146.343C132.572 145.127 132.729 144.085 133.042 143.215C133.355 142.343 133.808 141.678 134.401 141.221C134.994 140.761 135.703 140.53 136.528 140.53C137.353 140.53 138.062 140.761 138.655 141.221C139.248 141.678 139.701 142.343 140.014 143.215C140.327 144.085 140.484 145.127 140.484 146.343C140.484 147.569 140.327 148.617 140.014 149.486C139.705 150.355 139.254 151.018 138.661 151.475C138.071 151.928 137.36 152.155 136.528 152.155ZM133.942 146.343C133.942 147.311 134.044 148.138 134.246 148.823C134.449 149.505 134.744 150.022 135.13 150.376C135.517 150.729 135.983 150.906 136.528 150.906C137.073 150.906 137.539 150.729 137.926 150.376C138.313 150.022 138.607 149.505 138.81 148.823C139.012 148.138 139.114 147.311 139.114 146.343C139.114 145.374 139.011 144.547 138.804 143.862C138.602 143.173 138.307 142.65 137.92 142.293C137.534 141.936 137.069 141.757 136.528 141.757C135.987 141.757 135.523 141.936 135.136 142.293C134.749 142.65 134.453 143.173 134.246 143.862C134.044 144.547 133.942 145.374 133.942 146.343ZM146.059 152.155C145.227 152.155 144.514 151.928 143.921 151.475C143.332 151.018 142.881 150.355 142.568 149.486C142.258 148.617 142.104 147.569 142.104 146.343C142.104 145.127 142.26 144.085 142.573 143.215C142.886 142.343 143.339 141.678 143.932 141.221C144.525 140.761 145.234 140.53 146.059 140.53C146.884 140.53 147.593 140.761 148.186 141.221C148.779 141.678 149.232 142.343 149.545 143.215C149.859 144.085 150.015 145.127 150.015 146.343C150.015 147.569 149.859 148.617 149.545 149.486C149.236 150.355 148.785 151.018 148.192 151.475C147.603 151.928 146.892 152.155 146.059 152.155ZM143.474 146.343C143.474 147.311 143.575 148.138 143.778 148.823C143.98 149.505 144.275 150.022 144.662 150.376C145.048 150.729 145.514 150.906 146.059 150.906C146.604 150.906 147.07 150.729 147.457 150.376C147.844 150.022 148.138 149.505 148.341 148.823C148.544 148.138 148.645 147.311 148.645 146.343C148.645 145.374 148.542 144.547 148.336 143.862C148.133 143.173 147.838 142.65 147.452 142.293C147.065 141.936 146.601 141.757 146.059 141.757C145.518 141.757 145.054 141.936 144.667 142.293C144.28 142.65 143.984 143.173 143.778 143.862C143.575 144.547 143.474 145.374 143.474 146.343ZM155.591 152.155C154.758 152.155 154.045 151.928 153.452 151.475C152.863 151.018 152.412 150.355 152.099 149.486C151.789 148.617 151.635 147.569 151.635 146.343C151.635 145.127 151.791 144.085 152.104 143.215C152.417 142.343 152.87 141.678 153.463 141.221C154.056 140.761 154.766 140.53 155.591 140.53C156.416 140.53 157.125 140.761 157.718 141.221C158.311 141.678 158.764 142.343 159.077 143.215C159.39 144.085 159.546 145.127 159.546 146.343C159.546 147.569 159.39 148.617 159.077 149.486C158.767 150.355 158.316 151.018 157.723 151.475C157.134 151.928 156.423 152.155 155.591 152.155ZM153.005 146.343C153.005 147.311 153.106 148.138 153.309 148.823C153.511 149.505 153.806 150.022 154.193 150.376C154.58 150.729 155.045 150.906 155.591 150.906C156.136 150.906 156.602 150.729 156.988 150.376C157.375 150.022 157.67 149.505 157.872 148.823C158.075 148.138 158.176 147.311 158.176 146.343C158.176 145.374 158.073 144.547 157.867 143.862C157.664 143.173 157.37 142.65 156.983 142.293C156.596 141.936 156.132 141.757 155.591 141.757C155.049 141.757 154.585 141.936 154.198 142.293C153.812 142.65 153.515 143.173 153.309 143.862C153.106 144.547 153.005 145.374 153.005 146.343ZM165.122 152.155C164.289 152.155 163.577 151.928 162.984 151.475C162.394 151.018 161.943 150.355 161.63 149.486C161.321 148.617 161.166 147.569 161.166 146.343C161.166 145.127 161.323 144.085 161.636 143.215C161.949 142.343 162.402 141.678 162.995 141.221C163.588 140.761 164.297 140.53 165.122 140.53C165.947 140.53 166.656 140.761 167.249 141.221C167.842 141.678 168.295 142.343 168.608 143.215C168.921 144.085 169.078 145.127 169.078 146.343C169.078 147.569 168.921 148.617 168.608 149.486C168.299 150.355 167.847 151.018 167.254 151.475C166.665 151.928 165.954 152.155 165.122 152.155ZM162.536 146.343C162.536 147.311 162.637 148.138 162.84 148.823C163.043 149.505 163.337 150.022 163.724 150.376C164.111 150.729 164.577 150.906 165.122 150.906C165.667 150.906 166.133 150.729 166.52 150.376C166.906 150.022 167.201 149.505 167.404 148.823C167.606 148.138 167.707 147.311 167.707 146.343C167.707 145.374 167.604 144.547 167.398 143.862C167.195 143.173 166.901 142.65 166.514 142.293C166.127 141.936 165.663 141.757 165.122 141.757C164.58 141.757 164.116 141.936 163.73 142.293C163.343 142.65 163.046 143.173 162.84 143.862C162.637 144.547 162.536 145.374 162.536 146.343Z" fill="#111827"/>
<mask id="mask1_240_1516" style="mask-type:alpha" maskUnits="userSpaceOnUse" x="405" y="123" width="20" height="20">
<rect x="405" y="123" width="20" height="20" fill="#D9D9D9"/>
</mask>
<g mask="url(#mask1_240_1516)">
<path d="M414.996 139C414.582 139 414.229 138.853 413.938 138.558C413.646 138.264 413.5 137.909 413.5 137.496C413.5 137.082 413.647 136.729 413.942 136.438C414.236 136.146 414.591 136 415.004 136C415.418 136 415.771 136.147 416.062 136.442C416.354 136.736 416.5 137.091 416.5 137.504C416.5 137.918 416.353 138.271 416.058 138.562C415.764 138.854 415.409 139 414.996 139ZM414.996 134.5C414.582 134.5 414.229 134.353 413.938 134.058C413.646 133.764 413.5 133.409 413.5 132.996C413.5 132.582 413.647 132.229 413.942 131.938C414.236 131.646 414.591 131.5 415.004 131.5C415.418 131.5 415.771 131.647 416.062 131.942C416.354 132.236 416.5 132.591 416.5 133.004C416.5 133.418 416.353 133.771 416.058 134.062C415.764 134.354 415.409 134.5 414.996 134.5ZM414.996 130C414.582 130 414.229 129.853 413.938 129.558C413.646 129.264 413.5 128.909 413.5 128.496C413.5 128.082 413.647 127.729 413.942 127.438C414.236 127.146 414.591 127 415.004 127C415.418 127 415.771 127.147 416.062 127.442C416.354 127.736 416.5 128.091 416.5 128.504C416.5 128.918 416.353 129.271 416.058 129.562C415.764 129.854 415.409 130 414.996 130Z" fill="#9CA3AF"/>
</g>
<path d="M189.992 243.348V275.164H186.055V243.348H189.992ZM172.871 245.668C177.652 245.668 181.133 250.027 181.168 256.883C181.133 263.809 177.652 268.133 172.871 268.133C168.055 268.133 164.574 263.809 164.574 256.883C164.574 250.027 168.055 245.668 172.871 245.668ZM172.871 249.184C170.164 249.184 168.336 252.031 168.336 256.883C168.336 261.77 170.164 264.617 172.871 264.617C175.543 264.617 177.371 261.77 177.371 256.883C177.371 252.031 175.543 249.184 172.871 249.184ZM204.371 253.051C204.371 257.973 206.41 262.93 210.84 265.32L208.66 268.203C205.707 266.639 203.703 263.844 202.578 260.504C201.453 264.107 199.449 267.184 196.461 268.941L194.176 265.988C198.676 263.387 200.68 258.078 200.68 253.051V252.066H195.266V248.902H200.68V244.473H204.371V248.902H209.68V252.066H204.371V253.051ZM222.02 243.348V275.129H218.293V243.348H222.02ZM215.551 243.945V273.582H211.859V258.781H207.711V255.547H211.859V243.945H215.551ZM251.27 244.895V247.355C251.27 249.816 251.27 252.629 250.496 256.391H254.82V259.555H225.781V256.391H246.559C247.297 252.963 247.367 250.344 247.367 248.023H229.367V244.895H251.27ZM251.234 263.246V274.742H229.262V263.246H251.234ZM233.094 266.305V271.578H247.367V266.305H233.094ZM264.383 245.316C268.602 245.316 271.695 248.48 271.695 252.98C271.695 257.516 268.602 260.609 264.383 260.609C260.164 260.609 257.105 257.516 257.105 252.98C257.105 248.48 260.164 245.316 264.383 245.316ZM264.383 248.656C262.168 248.656 260.586 250.309 260.621 252.98C260.586 255.617 262.168 257.34 264.383 257.305C266.562 257.34 268.145 255.617 268.145 252.98C268.145 250.309 266.562 248.656 264.383 248.656ZM284.07 243.383V262.332H280.344V254.387H277.215V262.121H273.594V243.98H277.215V251.258H280.344V243.383H284.07ZM284.07 263.844V275.129H280.168V266.973H262.309V263.844H284.07Z" fill="#9CA3AF"/>
<path d="M148.715 305.508H142.992V306.812H147.091V309.818H138.837V311.166H147.511V312.116H137.633V308.945H145.887V307.729H137.599V306.812H141.776V305.508H136.075V304.569H148.715V305.508ZM136.749 302.989C137.614 302.934 138.408 302.801 139.13 302.591C139.855 302.381 140.447 302.103 140.903 301.757C141.36 301.407 141.625 301.007 141.699 300.558H137.367V299.597H141.787V298.304H142.992V299.597H147.434V300.558H143.075C143.145 301.007 143.408 301.407 143.865 301.757C144.321 302.103 144.913 302.381 145.638 302.591C146.364 302.801 147.161 302.934 148.03 302.989L147.655 303.928C146.436 303.825 145.355 303.584 144.412 303.204C143.472 302.825 142.798 302.319 142.39 301.685C141.981 302.319 141.305 302.825 140.362 303.204C139.423 303.584 138.34 303.825 137.113 303.928L136.749 302.989ZM160.941 300.149C160.941 300.643 160.934 301.076 160.919 301.448C160.908 301.82 160.875 302.243 160.82 302.718C160.768 303.193 160.684 303.7 160.566 304.238H162.61V305.254H149.892V304.238H159.334C159.455 303.696 159.544 303.188 159.599 302.713C159.658 302.238 159.693 301.816 159.704 301.448C159.719 301.079 159.726 300.646 159.726 300.149V300.138H151.505V299.122H160.941V300.149ZM151.461 307.166H160.997V312.083H151.461V307.166ZM159.781 311.077V308.138H152.665V311.077H159.781ZM174.471 304.028H176.725V305.066H174.471V312.26H173.245V298.381H174.471V304.028ZM163.808 308.657C165.595 307.77 166.976 306.67 167.952 305.359C168.932 304.044 169.491 302.558 169.631 300.901H164.46V299.873H170.88C170.876 301.225 170.652 302.501 170.206 303.702C169.764 304.902 169.068 306.007 168.118 307.017C167.171 308.026 165.963 308.893 164.493 309.619L163.808 308.657ZM188.763 303.276H179.283V298.657H180.498V302.271H188.763V303.276ZM177.548 304.901H190.222V305.917H177.548V304.901ZM179.073 309.685C179.073 309.151 179.262 308.696 179.642 308.32C180.025 307.945 180.576 307.659 181.294 307.464C182.012 307.265 182.87 307.166 183.868 307.166C184.863 307.166 185.717 307.263 186.432 307.459C187.146 307.654 187.693 307.941 188.073 308.32C188.456 308.696 188.649 309.151 188.653 309.685C188.649 310.219 188.456 310.674 188.073 311.05C187.693 311.429 187.146 311.716 186.432 311.912C185.717 312.107 184.863 312.204 183.868 312.204C182.87 312.204 182.012 312.105 181.294 311.906C180.576 311.711 180.025 311.425 179.642 311.05C179.262 310.674 179.073 310.219 179.073 309.685ZM180.321 309.685C180.318 310.006 180.456 310.284 180.736 310.519C181.019 310.751 181.428 310.93 181.962 311.055C182.496 311.18 183.132 311.243 183.868 311.243C184.601 311.243 185.233 311.18 185.763 311.055C186.297 310.93 186.706 310.751 186.99 310.519C187.277 310.284 187.423 310.006 187.426 309.685C187.423 309.361 187.279 309.085 186.995 308.856C186.712 308.624 186.303 308.448 185.769 308.326C185.239 308.204 184.605 308.142 183.868 308.138C183.128 308.142 182.491 308.204 181.957 308.326C181.426 308.448 181.019 308.624 180.736 308.856C180.456 309.085 180.318 309.361 180.321 309.685ZM202.426 300.149C202.426 300.643 202.418 301.076 202.404 301.448C202.393 301.82 202.359 302.243 202.304 302.718C202.253 303.193 202.168 303.7 202.05 304.238H204.094V305.254H191.376V304.238H200.818C200.94 303.696 201.028 303.188 201.083 302.713C201.142 302.238 201.177 301.816 201.188 301.448C201.203 301.079 201.21 300.646 201.21 300.149V300.138H192.989V299.122H202.426V300.149ZM192.945 307.166H202.481V312.083H192.945V307.166ZM201.266 311.077V308.138H194.15V311.077H201.266ZM208.53 299.254C209.134 299.254 209.677 299.394 210.16 299.674C210.646 299.95 211.026 300.339 211.298 300.84C211.574 301.337 211.712 301.902 211.712 302.536C211.712 303.169 211.574 303.733 211.298 304.227C211.026 304.72 210.648 305.103 210.165 305.376C209.683 305.648 209.138 305.785 208.53 305.785C207.915 305.785 207.366 305.648 206.884 305.376C206.401 305.103 206.026 304.72 205.757 304.227C205.488 303.733 205.355 303.169 205.359 302.536C205.355 301.899 205.488 301.331 205.757 300.834C206.029 300.337 206.407 299.95 206.889 299.674C207.372 299.394 207.919 299.254 208.53 299.254ZM206.464 302.536C206.46 302.956 206.547 303.335 206.723 303.674C206.904 304.013 207.151 304.278 207.464 304.47C207.781 304.657 208.136 304.75 208.53 304.746C208.921 304.75 209.272 304.657 209.585 304.47C209.898 304.278 210.143 304.015 210.32 303.68C210.501 303.341 210.593 302.959 210.596 302.536C210.593 302.112 210.501 301.731 210.32 301.392C210.143 301.053 209.898 300.79 209.585 300.602C209.272 300.411 208.921 300.315 208.53 300.315C208.136 300.315 207.781 300.411 207.464 300.602C207.151 300.79 206.904 301.053 206.723 301.392C206.547 301.731 206.46 302.112 206.464 302.536ZM207.635 307.431H216.994V312.271H215.79V308.425H207.635V307.431ZM212.828 298.657H213.989V301.972H215.834V298.392H216.994V306.657H215.834V302.978H213.989V306.558H212.828V298.657Z" fill="#9CA3AF"/>
<path d="M227.953 299.688V311H225.594V301.922H225.531L222.938 303.547V301.469L225.734 299.688H227.953ZM232.5 309.844L231.156 314.297H229.5L230.281 309.844H232.5ZM238.484 311.156C235.656 311.156 233.938 309.047 233.938 305.344C233.938 301.641 235.656 299.531 238.484 299.531C241.312 299.531 243.031 301.656 243.031 305.344C243.031 309.062 241.312 311.156 238.484 311.156ZM238.484 309.219C239.797 309.219 240.641 307.953 240.625 305.344C240.625 302.766 239.797 301.453 238.484 301.453C237.172 301.453 236.344 302.766 236.344 305.344C236.328 307.953 237.172 309.219 238.484 309.219ZM249.047 311.156C246.219 311.156 244.5 309.047 244.5 305.344C244.5 301.641 246.219 299.531 249.047 299.531C251.875 299.531 253.594 301.656 253.594 305.344C253.594 309.062 251.875 311.156 249.047 311.156ZM249.047 309.219C250.359 309.219 251.203 307.953 251.188 305.344C251.188 302.766 250.359 301.453 249.047 301.453C247.734 301.453 246.906 302.766 246.906 305.344C246.891 307.953 247.734 309.219 249.047 309.219ZM259.609 311.156C256.781 311.156 255.062 309.047 255.062 305.344C255.062 301.641 256.781 299.531 259.609 299.531C262.438 299.531 264.156 301.656 264.156 305.344C264.156 309.062 262.438 311.156 259.609 311.156ZM259.609 309.219C260.922 309.219 261.766 307.953 261.75 305.344C261.75 302.766 260.922 301.453 259.609 301.453C258.297 301.453 257.469 302.766 257.469 305.344C257.453 307.953 258.297 309.219 259.609 309.219ZM267.844 309.844L266.5 314.297H264.844L265.625 309.844H267.844ZM273.828 311.156C271 311.156 269.281 309.047 269.281 305.344C269.281 301.641 271 299.531 273.828 299.531C276.656 299.531 278.375 301.656 278.375 305.344C278.375 309.062 276.656 311.156 273.828 311.156ZM273.828 309.219C275.141 309.219 275.984 307.953 275.969 305.344C275.969 302.766 275.141 301.453 273.828 301.453C272.516 301.453 271.688 302.766 271.688 305.344C271.672 307.953 272.516 309.219 273.828 309.219ZM284.391 311.156C281.562 311.156 279.844 309.047 279.844 305.344C279.844 301.641 281.562 299.531 284.391 299.531C287.219 299.531 288.938 301.656 288.938 305.344C288.938 309.062 287.219 311.156 284.391 311.156ZM284.391 309.219C285.703 309.219 286.547 307.953 286.531 305.344C286.531 302.766 285.703 301.453 284.391 301.453C283.078 301.453 282.25 302.766 282.25 305.344C282.234 307.953 283.078 309.219 284.391 309.219ZM294.953 311.156C292.125 311.156 290.406 309.047 290.406 305.344C290.406 301.641 292.125 299.531 294.953 299.531C297.781 299.531 299.5 301.656 299.5 305.344C299.5 309.062 297.781 311.156 294.953 311.156ZM294.953 309.219C296.266 309.219 297.109 307.953 297.094 305.344C297.094 302.766 296.266 301.453 294.953 301.453C293.641 301.453 292.812 302.766 292.812 305.344C292.797 307.953 293.641 309.219 294.953 309.219Z" fill="#9CA3AF"/>
<path d="M312.511 308.945H311.273V307.497H308.412V306.602H311.273V298.392H312.511V308.945ZM300.986 304.823C302.82 304.816 304.458 304.788 305.898 304.74C307.342 304.689 308.717 304.58 310.025 304.414L310.113 305.309C308.96 305.494 307.686 305.628 306.29 305.713V308.459H305.064V305.773C304.117 305.81 303.038 305.829 301.826 305.829H301.152L300.986 304.823ZM302.102 301.376C302.102 300.897 302.246 300.475 302.533 300.11C302.82 299.742 303.226 299.459 303.749 299.26C304.272 299.057 304.872 298.956 305.55 298.956C306.22 298.956 306.815 299.057 307.334 299.26C307.854 299.459 308.257 299.742 308.544 300.11C308.835 300.475 308.983 300.897 308.986 301.376C308.983 301.862 308.835 302.287 308.544 302.652C308.257 303.013 307.854 303.293 307.334 303.492C306.819 303.687 306.224 303.785 305.55 303.785C304.868 303.785 304.266 303.687 303.743 303.492C303.224 303.297 302.82 303.017 302.533 302.652C302.246 302.287 302.102 301.862 302.102 301.376ZM302.986 307.906H304.213V310.945H312.854V311.961H302.986V307.906ZM303.273 301.376C303.27 301.674 303.362 301.936 303.55 302.16C303.741 302.385 304.01 302.56 304.356 302.685C304.703 302.807 305.1 302.867 305.55 302.867C305.984 302.867 306.373 302.807 306.715 302.685C307.058 302.56 307.325 302.385 307.517 302.16C307.712 301.936 307.811 301.674 307.815 301.376C307.811 301.081 307.712 300.821 307.517 300.597C307.325 300.368 307.058 300.192 306.715 300.066C306.373 299.941 305.984 299.88 305.55 299.884C305.1 299.88 304.703 299.941 304.356 300.066C304.01 300.192 303.741 300.368 303.55 300.597C303.362 300.821 303.27 301.081 303.273 301.376Z" fill="#9CA3AF"/>
<path d="M25 378C25 372.477 29.4772 368 35 368H415C420.523 368 425 372.477 425 378V785H25V378Z" fill="white"/>
<path d="M25.5 373C25.5 370.515 27.5147 368.5 30 368.5H104.5V413.5H30C27.5147 413.5 25.5 411.485 25.5 409V373Z" stroke="#D1D5DB"/>
<path d="M63.0781 384.391V394.578H61.8438V389.25H58.9844V388.234H61.8438V384.391H63.0781ZM51.625 391.797C53.6719 391.078 55.1562 389.242 55.1562 387.25V386.531H52.0156V385.516H59.5V386.531H56.3906V387.25C56.3906 389.047 57.7812 390.789 59.8125 391.484L59.1719 392.469C57.6094 391.898 56.3984 390.734 55.7969 389.297C55.1953 390.906 53.9141 392.18 52.2656 392.797L51.625 391.797ZM54.1562 397.969V393.656H55.3906V396.938H63.4688V397.969H54.1562ZM68.7188 385.25C70.5547 385.258 71.8984 386.602 71.9062 388.531C71.8984 390.469 70.5547 391.781 68.7188 391.781C66.8594 391.781 65.5391 390.469 65.5469 388.531C65.5391 386.602 66.8594 385.258 68.7188 385.25ZM66.6562 388.531C66.6406 389.82 67.5234 390.758 68.7188 390.75C69.8984 390.758 70.7734 389.82 70.7812 388.531C70.7734 387.242 69.8984 386.312 68.7188 386.312C67.5234 386.312 66.6406 387.242 66.6562 388.531ZM67.8281 394.422V393.438H77.1875V398.266H75.9844V394.422H67.8281ZM73.0156 392.562V384.656H74.1719V387.969H76.0156V384.391H77.1875V392.656H76.0156V388.984H74.1719V392.562H73.0156Z" fill="#4B5563"/>
<mask id="path-18-inside-2_240_1516" fill="white">
<path d="M105 368H185V414H105V368Z"/>
</mask>
<path d="M185 368H186V367H185V368ZM185 414V415H186V414H185ZM105 369H185V367H105V369ZM184 368V414H186V368H184ZM185 413H105V415H185V413Z" fill="#D1D5DB" mask="url(#path-18-inside-2_240_1516)"/>
<path d="M124.375 396.234V393.203H121.359V391.938H124.375V388.922H125.641V391.938H128.672V393.203H125.641V396.234H124.375ZM135.094 385.688V397H133.672V387.156H133.609L130.859 388.984V387.562L133.672 385.688H135.094ZM141.812 397.156C139.305 397.156 137.852 395.047 137.859 391.344C137.852 387.672 139.32 385.531 141.812 385.531C144.297 385.531 145.766 387.672 145.766 391.344C145.766 395.047 144.32 397.156 141.812 397.156ZM139.219 391.344C139.227 394.273 140.172 395.906 141.812 395.906C143.445 395.906 144.398 394.273 144.391 391.344C144.398 388.414 143.438 386.758 141.812 386.75C140.188 386.758 139.227 388.414 139.219 391.344ZM151.344 397.156C148.836 397.156 147.383 395.047 147.391 391.344C147.383 387.672 148.852 385.531 151.344 385.531C153.828 385.531 155.297 387.672 155.297 391.344C155.297 395.047 153.852 397.156 151.344 397.156ZM148.75 391.344C148.758 394.273 149.703 395.906 151.344 395.906C152.977 395.906 153.93 394.273 153.922 391.344C153.93 388.414 152.969 386.758 151.344 386.75C149.719 386.758 148.758 388.414 148.75 391.344ZM163.688 385.641V392.031H157.266V385.641H163.688ZM158.469 391.047H162.5V386.641H158.469V391.047ZM158.844 397.969V393.594H160.047V396.938H168.172V397.969H158.844ZM166.312 394.562V384.375H167.531V388.609H169.625V389.641H167.531V394.562H166.312Z" fill="#4B5563"/>
<mask id="path-21-inside-3_240_1516" fill="white">
<path d="M185 368H265V414H185V368Z"/>
</mask>
<path d="M265 368H266V367H265V368ZM265 414V415H266V414H265ZM185 369H265V367H185V369ZM264 368V414H266V368H264ZM265 413H185V415H265V413Z" fill="#D1D5DB" mask="url(#path-21-inside-3_240_1516)"/>
<path d="M208.875 396.234V393.203H205.859V391.938H208.875V388.922H210.141V391.938H213.172V393.203H210.141V396.234H208.875ZM219.594 385.688V397H218.172V387.156H218.109L215.359 388.984V387.562L218.172 385.688H219.594ZM226.312 397.156C223.805 397.156 222.352 395.047 222.359 391.344C222.352 387.672 223.82 385.531 226.312 385.531C228.797 385.531 230.266 387.672 230.266 391.344C230.266 395.047 228.82 397.156 226.312 397.156ZM223.719 391.344C223.727 394.273 224.672 395.906 226.312 395.906C227.945 395.906 228.898 394.273 228.891 391.344C228.898 388.414 227.938 386.758 226.312 386.75C224.688 386.758 223.727 388.414 223.719 391.344ZM238.656 385.641V392.031H232.234V385.641H238.656ZM233.438 391.047H237.469V386.641H233.438V391.047ZM233.812 397.969V393.594H235.016V396.938H243.141V397.969H233.812ZM241.281 394.562V384.375H242.5V388.609H244.594V389.641H242.5V394.562H241.281Z" fill="#4B5563"/>
<mask id="path-24-inside-4_240_1516" fill="white">
<path d="M265 368H345V414H265V368Z"/>
</mask>
<path d="M345 368H346V367H345V368ZM345 414V415H346V414H345ZM265 369H345V367H265V369ZM344 368V414H346V368H344ZM345 413H265V415H345V413Z" fill="#D1D5DB" mask="url(#path-24-inside-4_240_1516)"/>
<path d="M292.375 396.234V393.203H289.359V391.938H292.375V388.922H293.641V391.938H296.672V393.203H293.641V396.234H292.375ZM302.781 397.156C300.742 397.156 299.195 395.898 299.109 394.156H300.469C300.57 395.164 301.555 395.914 302.781 395.922C304.25 395.914 305.312 394.844 305.312 393.422C305.312 391.953 304.211 390.867 302.688 390.859C301.734 390.844 300.992 391.141 300.578 391.875H299.219L300.016 385.688H306.141V386.938H301.188L300.766 390.25H300.875C301.383 389.859 302.141 389.594 302.938 389.594C305.094 389.594 306.68 391.188 306.688 393.391C306.68 395.578 305.039 397.156 302.781 397.156ZM315.156 385.641V392.031H308.734V385.641H315.156ZM309.938 391.047H313.969V386.641H309.938V391.047ZM310.312 397.969V393.594H311.516V396.938H319.641V397.969H310.312ZM317.781 394.562V384.375H319V388.609H321.094V389.641H319V394.562H317.781Z" fill="#4B5563"/>
<mask id="path-27-inside-5_240_1516" fill="white">
<path d="M345 368H420C422.761 368 425 370.239 425 373V409C425 411.761 422.761 414 420 414H345V368Z"/>
</mask>
<path d="M345 367H420C423.314 367 426 369.686 426 373H424C424 370.791 422.209 369 420 369H345V367ZM426 409C426 412.314 423.314 415 420 415H345V413H420C422.209 413 424 411.209 424 409H426ZM345 414V368V414ZM420 367C423.314 367 426 369.686 426 373V409C426 412.314 423.314 415 420 415V413C422.209 413 424 411.209 424 409V373C424 370.791 422.209 369 420 369V367Z" fill="#D1D5DB" mask="url(#path-27-inside-5_240_1516)"/>
<path d="M373.875 396.234V393.203H370.859V391.938H373.875V388.922H375.141V391.938H378.172V393.203H375.141V396.234H373.875ZM384.594 385.688V397H383.172V387.156H383.109L380.359 388.984V387.562L383.172 385.688H384.594ZM394.125 385.641V392.031H387.703V385.641H394.125ZM388.906 391.047H392.938V386.641H388.906V391.047ZM389.281 397.969V393.594H390.484V396.938H398.609V397.969H389.281ZM396.75 394.562V384.375H397.969V388.609H400.062V389.641H397.969V394.562H396.75Z" fill="#4B5563"/>
<path d="M91.6653 476.29C90.1943 476.29 88.8856 476.038 87.7392 475.534C86.5928 475.03 85.7019 474.329 85.0665 473.431C84.4312 472.526 84.1169 471.504 84.1239 470.365C84.1169 469.474 84.3034 468.642 84.6832 467.868C85.0631 467.088 85.581 466.445 86.2371 465.941C86.9001 465.43 87.6321 465.109 88.4332 464.978V464.874C87.7426 464.709 87.1314 464.398 86.5997 463.942C86.0679 463.486 85.657 462.927 85.3669 462.264C85.0769 461.601 84.9319 460.89 84.9319 460.13C84.9319 459.059 85.2219 458.096 85.802 457.24C86.3821 456.383 87.1832 455.713 88.2053 455.23C89.2343 454.74 90.3877 454.494 91.6653 454.494C92.936 454.494 94.079 454.74 95.0942 455.23C96.1163 455.713 96.9174 456.383 97.4975 457.24C98.0776 458.096 98.3711 459.059 98.378 460.13C98.3711 460.89 98.2192 461.601 97.9222 462.264C97.6321 462.927 97.2212 463.486 96.6895 463.942C96.1646 464.398 95.5603 464.709 94.8766 464.874V464.978C95.6708 465.109 96.396 465.43 97.052 465.941C97.715 466.445 98.2364 467.088 98.6163 467.868C99.003 468.642 99.1998 469.474 99.2067 470.365C99.1998 471.504 98.8752 472.526 98.233 473.431C97.5907 474.329 96.6964 475.03 95.55 475.534C94.4105 476.038 93.1156 476.29 91.6653 476.29ZM86.7551 470.22C86.7413 470.965 86.9312 471.622 87.3248 472.188C87.7185 472.747 88.2882 473.186 89.0341 473.503C89.7799 473.814 90.657 473.97 91.6653 473.97C92.6598 473.97 93.5265 473.814 94.2654 473.503C95.0044 473.186 95.5741 472.747 95.9747 472.188C96.3752 471.622 96.5755 470.965 96.5755 470.22C96.5755 469.446 96.3614 468.752 95.9332 468.137C95.512 467.523 94.9284 467.039 94.1826 466.687C93.4367 466.335 92.5976 466.159 91.6653 466.159C90.7261 466.159 89.8801 466.335 89.1273 466.687C88.3745 467.039 87.7875 467.526 87.3663 468.148C86.945 468.762 86.7413 469.453 86.7551 470.22ZM87.5009 460.316C87.5009 461.028 87.677 461.656 88.0292 462.202C88.3814 462.747 88.8718 463.172 89.5002 463.476C90.1356 463.773 90.8573 463.921 91.6653 463.921C92.4595 463.921 93.1708 463.773 93.7993 463.476C94.4277 463.172 94.9181 462.747 95.2703 462.202C95.6294 461.649 95.8089 461.021 95.8089 460.316C95.8089 459.619 95.6328 459.004 95.2806 458.472C94.9353 457.934 94.4484 457.516 93.82 457.219C93.1984 456.922 92.4802 456.773 91.6653 456.773C90.8366 456.773 90.1045 456.922 89.4692 457.219C88.8407 457.516 88.3538 457.934 88.0085 458.472C87.6701 459.004 87.5009 459.619 87.5009 460.316Z" fill="#222222"/>
<path d="M224.772 454.494C226.132 454.494 227.396 454.805 228.563 455.427C229.731 456.048 230.687 457.108 231.433 458.607C232.186 460.099 232.562 462.077 232.562 464.543C232.562 467.029 232.237 469.153 231.588 470.914C230.939 472.668 230.01 474.004 228.802 474.923C227.593 475.834 226.16 476.29 224.503 476.29C223.28 476.29 222.179 476.055 221.198 475.586C220.217 475.116 219.416 474.456 218.795 473.607C218.18 472.751 217.783 471.76 217.603 470.634H220.214C220.463 471.635 220.953 472.44 221.685 473.048C222.424 473.648 223.363 473.949 224.503 473.949C225.649 473.949 226.64 473.628 227.476 472.985C228.318 472.343 228.964 471.414 229.413 470.199C229.862 468.977 230.09 467.512 230.097 465.807H229.806C229.192 466.698 228.411 467.392 227.465 467.889C226.526 468.379 225.497 468.624 224.378 468.624C223.121 468.624 221.961 468.324 220.898 467.723C219.841 467.115 218.998 466.276 218.37 465.206C217.748 464.135 217.438 462.934 217.438 461.601C217.438 460.296 217.738 459.101 218.339 458.017C218.947 456.932 219.806 456.076 220.918 455.448C222.037 454.812 223.322 454.494 224.772 454.494ZM220.007 461.58C220.007 462.45 220.21 463.248 220.618 463.973C221.032 464.691 221.602 465.261 222.327 465.682C223.052 466.097 223.867 466.304 224.772 466.304C225.67 466.304 226.492 466.083 227.237 465.641C227.99 465.192 228.584 464.602 229.019 463.869C229.461 463.137 229.682 462.36 229.682 461.539C229.682 460.724 229.472 459.954 229.05 459.229C228.629 458.503 228.049 457.92 227.31 457.478C226.578 457.036 225.76 456.815 224.855 456.815C223.95 456.815 223.125 457.029 222.379 457.457C221.64 457.885 221.056 458.465 220.628 459.198C220.207 459.923 220 460.717 220.007 461.58Z" fill="#222222"/>
<path d="M358.399 476.29C357.004 476.29 355.754 476.055 354.649 475.586C353.544 475.116 352.67 474.456 352.028 473.607C351.392 472.758 351.051 471.78 351.002 470.675H353.675C353.723 471.331 353.958 471.908 354.379 472.405C354.801 472.896 355.356 473.276 356.047 473.545C356.745 473.814 357.515 473.949 358.357 473.949C359.283 473.949 360.111 473.794 360.843 473.483C361.575 473.165 362.149 472.723 362.563 472.157C362.977 471.59 363.184 470.945 363.184 470.22C363.184 469.446 362.981 468.762 362.573 468.169C362.173 467.575 361.586 467.112 360.812 466.78C360.039 466.449 359.11 466.283 358.026 466.283H356.306V463.963H358.026C358.882 463.963 359.642 463.811 360.305 463.507C360.975 463.203 361.492 462.778 361.859 462.233C362.231 461.68 362.418 461.041 362.418 460.316C362.418 459.619 362.256 459.004 361.931 458.472C361.606 457.941 361.144 457.53 360.543 457.24C359.942 456.943 359.241 456.794 358.44 456.794C357.68 456.794 356.966 456.929 356.296 457.198C355.633 457.468 355.094 457.854 354.68 458.358C354.265 458.856 354.041 459.439 354.006 460.109H351.458C351.499 459.018 351.838 458.048 352.473 457.198C353.109 456.342 353.955 455.679 355.011 455.209C356.068 454.733 357.225 454.494 358.481 454.494C359.787 454.494 360.93 454.753 361.91 455.271C362.898 455.789 363.654 456.483 364.179 457.354C364.711 458.224 364.973 459.17 364.966 460.192C364.973 460.979 364.832 461.698 364.542 462.347C364.251 462.996 363.834 463.545 363.288 463.994C362.742 464.443 362.1 464.771 361.361 464.978V465.144C362.273 465.282 363.06 465.582 363.723 466.045C364.393 466.501 364.904 467.091 365.256 467.816C365.609 468.535 365.781 469.343 365.774 470.24C365.781 471.38 365.463 472.412 364.821 473.338C364.186 474.256 363.302 474.978 362.169 475.503C361.044 476.028 359.787 476.29 358.399 476.29Z" fill="#222222"/>
<path d="M84.8312 547.073L92.0618 539.449C93.0149 538.434 93.74 537.619 94.2373 537.004C94.7414 536.383 95.1247 535.785 95.3871 535.212C95.6496 534.632 95.7842 534.028 95.7911 533.399C95.7842 532.681 95.5943 532.049 95.2214 531.503C94.8554 530.958 94.3512 530.537 93.7089 530.24C93.0736 529.943 92.3588 529.794 91.5646 529.794C90.7359 529.794 90.0073 529.96 89.3788 530.291C88.7573 530.623 88.2773 531.089 87.9389 531.69C87.6074 532.291 87.4417 532.985 87.4417 533.772H84.9348C84.9279 532.543 85.2145 531.455 85.7946 530.509C86.3816 529.556 87.1862 528.817 88.2083 528.292C89.2304 527.76 90.3768 527.494 91.6475 527.494C92.9044 527.494 94.0335 527.757 95.0349 528.282C96.0432 528.8 96.8305 529.508 97.3968 530.405C97.9631 531.303 98.2497 532.301 98.2566 533.399C98.2497 534.207 98.0978 534.981 97.8008 535.72C97.5107 536.452 97.017 537.267 96.3194 538.164C95.6288 539.062 94.6447 540.167 93.3671 541.479L88.519 546.493V546.659H98.6295V549H84.8519L84.8312 547.073Z" fill="#222222"/>
<path d="M225.248 549.29C223.881 549.29 222.61 548.983 221.436 548.368C220.269 547.747 219.309 546.686 218.556 545.188C217.811 543.682 217.438 541.686 217.438 539.2C217.438 536.728 217.762 534.615 218.411 532.86C219.061 531.106 219.989 529.773 221.198 528.862C222.407 527.95 223.84 527.494 225.497 527.494C226.719 527.494 227.818 527.733 228.791 528.209C229.772 528.679 230.57 529.338 231.184 530.188C231.799 531.03 232.196 532.004 232.376 533.109H229.765C229.516 532.128 229.026 531.338 228.294 530.737C227.562 530.136 226.63 529.836 225.497 529.836C224.344 529.836 223.349 530.157 222.514 530.799C221.678 531.434 221.036 532.36 220.587 533.575C220.145 534.791 219.924 536.244 219.924 537.936H220.193C220.808 537.039 221.585 536.345 222.524 535.854C223.47 535.364 224.51 535.119 225.642 535.119C226.892 535.119 228.045 535.423 229.102 536.03C230.159 536.631 230.998 537.467 231.619 538.537C232.248 539.608 232.562 540.809 232.562 542.142C232.562 543.468 232.258 544.677 231.65 545.768C231.043 546.852 230.183 547.712 229.071 548.347C227.966 548.976 226.692 549.29 225.248 549.29ZM220.297 542.204C220.297 543.033 220.507 543.814 220.929 544.546C221.35 545.278 221.93 545.865 222.669 546.307C223.415 546.749 224.247 546.97 225.166 546.97C226.063 546.97 226.882 546.756 227.621 546.327C228.36 545.899 228.94 545.319 229.361 544.587C229.789 543.848 230.007 543.04 230.014 542.163C230.007 541.307 229.796 540.519 229.382 539.801C228.974 539.076 228.408 538.503 227.683 538.081C226.958 537.653 226.146 537.439 225.248 537.439C224.344 537.439 223.512 537.66 222.752 538.102C221.999 538.544 221.402 539.131 220.96 539.863C220.525 540.595 220.304 541.376 220.297 542.204Z" fill="#222222"/>
<path d="M361.245 549H358.593V530.54H358.469L353.31 533.959V531.307L358.593 527.785H361.245V549Z" fill="#222222"/>
<path d="M83.7773 615.494L93.3284 600.785H96.5605V615.349H99.5439V617.67H96.5605V622H94.0536V617.67H83.7773V615.494ZM94.0536 615.349V604.12H93.8049L86.6157 615.184V615.349H94.0536Z" fill="#222222"/>
<path d="M229.113 603.291V603.126H217.905V600.785H231.848V603.25L222.152 622H219.376L229.113 603.291Z" fill="#222222"/>
<path d="M358.292 622.29C357.028 622.29 355.882 622.048 354.853 621.565C353.824 621.081 353.002 620.415 352.387 619.566C351.779 618.709 351.448 617.746 351.393 616.675H353.962C354.024 617.297 354.252 617.86 354.645 618.364C355.046 618.861 355.564 619.255 356.199 619.545C356.842 619.828 357.539 619.97 358.292 619.97C359.197 619.97 360.008 619.766 360.726 619.358C361.451 618.951 362.018 618.392 362.425 617.68C362.833 616.969 363.036 616.171 363.036 615.287C363.036 614.383 362.822 613.568 362.394 612.843C361.973 612.11 361.386 611.537 360.633 611.123C359.887 610.702 359.045 610.488 358.105 610.481C356.213 610.46 354.894 611.095 354.148 612.387H351.6L353.092 600.785H364.59V603.126H355.288L354.5 609.341H354.728C355.205 608.968 355.781 608.671 356.458 608.45C357.142 608.229 357.85 608.119 358.582 608.119C359.915 608.119 361.113 608.426 362.176 609.041C363.247 609.648 364.086 610.494 364.694 611.579C365.301 612.656 365.605 613.872 365.605 615.225C365.605 616.572 365.291 617.784 364.663 618.861C364.034 619.932 363.164 620.771 362.052 621.378C360.94 621.986 359.687 622.29 358.292 622.29Z" fill="#222222"/>
<path d="M82.7251 695.29C81.1644 695.29 79.828 694.865 78.7162 694.016C77.6112 693.16 76.7652 691.916 76.1782 690.287C75.5981 688.657 75.308 686.692 75.308 684.392C75.308 682.113 75.6015 680.159 76.1885 678.529C76.7755 676.892 77.625 675.646 78.7369 674.789C79.8487 673.926 81.1782 673.494 82.7251 673.494C84.2721 673.494 85.6015 673.926 86.7134 674.789C87.8253 675.646 88.6747 676.892 89.2617 678.529C89.8487 680.159 90.1423 682.113 90.1423 684.392C90.1423 686.692 89.8487 688.657 89.2617 690.287C88.6816 691.916 87.8356 693.16 86.7237 694.016C85.6188 694.865 84.2859 695.29 82.7251 695.29ZM77.8771 684.392C77.8771 686.209 78.067 687.759 78.4468 689.044C78.8266 690.321 79.3791 691.291 80.1043 691.954C80.8294 692.617 81.703 692.949 82.7251 692.949C83.7472 692.949 84.6208 692.617 85.346 691.954C86.0711 691.291 86.6236 690.321 87.0034 689.044C87.3833 687.759 87.5732 686.209 87.5732 684.392C87.5732 682.576 87.3798 681.026 86.9931 679.741C86.6133 678.45 86.0608 677.469 85.3356 676.799C84.6105 676.129 83.7403 675.794 82.7251 675.794C81.7099 675.794 80.8398 676.129 80.1146 676.799C79.3895 677.469 78.8336 678.45 78.4468 679.741C78.067 681.026 77.8771 682.576 77.8771 684.392ZM100.596 695.29C99.0354 695.29 97.6991 694.865 96.5872 694.016C95.4823 693.16 94.6363 691.916 94.0493 690.287C93.4692 688.657 93.1791 686.692 93.1791 684.392C93.1791 682.113 93.4726 680.159 94.0596 678.529C94.6466 676.892 95.4961 675.646 96.608 674.789C97.7198 673.926 99.0493 673.494 100.596 673.494C102.143 673.494 103.473 673.926 104.584 674.789C105.696 675.646 106.546 676.892 107.133 678.529C107.72 680.159 108.013 682.113 108.013 684.392C108.013 686.692 107.72 688.657 107.133 690.287C106.553 691.916 105.707 693.16 104.595 694.016C103.49 694.865 102.157 695.29 100.596 695.29ZM95.7482 684.392C95.7482 686.209 95.9381 687.759 96.3179 689.044C96.6977 690.321 97.2502 691.291 97.9754 691.954C98.7005 692.617 99.5741 692.949 100.596 692.949C101.618 692.949 102.492 692.617 103.217 691.954C103.942 691.291 104.495 690.321 104.875 689.044C105.254 687.759 105.444 686.209 105.444 684.392C105.444 682.576 105.251 681.026 104.864 679.741C104.484 678.45 103.932 677.469 103.207 676.799C102.482 676.129 101.611 675.794 100.596 675.794C99.581 675.794 98.7109 676.129 97.9857 676.799C97.2606 677.469 96.7046 678.45 96.3179 679.741C95.9381 681.026 95.7482 682.576 95.7482 684.392Z" fill="#222222"/>
<path d="M224.994 695.29C223.433 695.29 222.097 694.865 220.985 694.016C219.88 693.16 219.034 691.916 218.447 690.287C217.867 688.657 217.577 686.692 217.577 684.392C217.577 682.113 217.871 680.159 218.458 678.529C219.045 676.892 219.894 675.646 221.006 674.789C222.118 673.926 223.447 673.494 224.994 673.494C226.541 673.494 227.871 673.926 228.982 674.789C230.094 675.646 230.944 676.892 231.531 678.529C232.118 680.159 232.411 682.113 232.411 684.392C232.411 686.692 232.118 688.657 231.531 690.287C230.951 691.916 230.105 693.16 228.993 694.016C227.888 694.865 226.555 695.29 224.994 695.29ZM220.146 684.392C220.146 686.209 220.336 687.759 220.716 689.044C221.096 690.321 221.648 691.291 222.373 691.954C223.098 692.617 223.972 692.949 224.994 692.949C226.016 692.949 226.89 692.617 227.615 691.954C228.34 691.291 228.893 690.321 229.272 689.044C229.652 687.759 229.842 686.209 229.842 684.392C229.842 682.576 229.649 681.026 229.262 679.741C228.882 678.45 228.33 677.469 227.605 676.799C226.88 676.129 226.009 675.794 224.994 675.794C223.979 675.794 223.109 676.129 222.384 676.799C221.659 677.469 221.103 678.45 220.716 679.741C220.336 681.026 220.146 682.576 220.146 684.392Z" fill="#222222"/>
<mask id="mask2_240_1516" style="mask-type:alpha" maskUnits="userSpaceOnUse" x="338" y="664" width="41" height="41">
<rect x="338.333" y="664.5" width="40" height="40" fill="#D9D9D9"/>
</mask>
<g mask="url(#mask2_240_1516)">
<path d="M353.974 694.5C353.376 694.5 352.812 694.364 352.283 694.093C351.754 693.822 351.316 693.442 350.967 692.955L346.118 686.064C345.787 685.588 345.621 685.066 345.621 684.5C345.621 683.934 345.787 683.413 346.118 682.936L350.967 676.109C351.316 675.622 351.749 675.232 352.267 674.939C352.785 674.646 353.354 674.5 353.974 674.5H368.974C369.719 674.5 370.355 674.762 370.879 675.287C371.404 675.811 371.666 676.447 371.666 677.192V691.808C371.666 692.553 371.404 693.189 370.879 693.713C370.355 694.238 369.719 694.5 368.974 694.5H353.974ZM353.974 692.833H368.974C369.23 692.833 369.465 692.727 369.679 692.513C369.893 692.299 369.999 692.064 369.999 691.808V677.192C369.999 676.936 369.893 676.701 369.679 676.487C369.465 676.273 369.23 676.167 368.974 676.167H353.974C353.653 676.167 353.349 676.247 353.06 676.407C352.772 676.567 352.542 676.765 352.371 677L347.448 683.891C347.32 684.062 347.256 684.265 347.256 684.5C347.256 684.735 347.32 684.938 347.448 685.109L352.371 692C352.542 692.235 352.772 692.433 353.06 692.593C353.349 692.753 353.653 692.833 353.974 692.833ZM361.089 685.68L364.833 689.423C364.989 689.579 365.18 689.662 365.407 689.673C365.633 689.684 365.835 689.6 366.012 689.423C366.19 689.246 366.278 689.049 366.278 688.833C366.278 688.618 366.19 688.421 366.012 688.244L362.269 684.5L366.012 680.756C366.168 680.6 366.252 680.409 366.262 680.182C366.273 679.956 366.19 679.754 366.012 679.577C365.835 679.4 365.638 679.311 365.422 679.311C365.207 679.311 365.01 679.4 364.833 679.577L361.089 683.32L357.346 679.577C357.19 679.421 356.998 679.338 356.772 679.327C356.545 679.316 356.343 679.4 356.166 679.577C355.989 679.754 355.9 679.951 355.9 680.167C355.9 680.383 355.989 680.579 356.166 680.756L359.91 684.5L356.166 688.244C356.01 688.4 355.927 688.591 355.916 688.817C355.906 689.044 355.989 689.246 356.166 689.423C356.343 689.6 356.54 689.689 356.756 689.689C356.972 689.689 357.168 689.6 357.346 689.423L361.089 685.68Z" fill="#797378"/>
</g>
<rect x="25" y="736" width="400" height="49" rx="5" fill="#E5E7EB"/>
<path d="M222.656 753.281V757.391H224.562V758.828H222.656V762.828H220.922V753.281H222.656ZM211.344 761.141C212.406 761.141 213.633 761.133 214.906 761.102V760.234C213.336 760.039 212.336 759.281 212.344 758.172C212.336 756.867 213.703 756.07 215.75 756.078C217.805 756.07 219.156 756.867 219.156 758.172C219.156 759.273 218.188 760.023 216.641 760.227V761.039C217.844 760.977 219.055 760.883 220.188 760.734L220.328 761.938C217.32 762.469 214.016 762.5 211.531 762.5L211.344 761.141ZM211.703 755.672V754.391H214.906V753.156H216.641V754.391H219.812V755.672H211.703ZM213.125 764.797V763.438H222.656V767.391H220.922V764.797H213.125ZM214.016 758.172C214 758.758 214.656 759.125 215.75 759.109C216.844 759.125 217.5 758.758 217.5 758.172C217.5 757.555 216.844 757.242 215.75 757.25C214.656 757.242 214 757.555 214.016 758.172ZM237.062 753.281V763.484H235.312V753.281H237.062ZM225.547 757.734C225.547 755.68 227.211 754.211 229.359 754.203C231.508 754.211 233.164 755.68 233.156 757.734C233.164 759.82 231.508 761.281 229.359 761.281C227.211 761.281 225.547 759.82 225.547 757.734ZM227.25 757.734C227.242 758.984 228.148 759.766 229.359 759.766C230.539 759.766 231.453 758.984 231.453 757.734C231.453 756.516 230.539 755.719 229.359 755.719C228.148 755.719 227.242 756.516 227.25 757.734ZM227.719 767.109V762.453H229.469V765.703H237.453V767.109H227.719Z" fill="#9CA3AF"/>
</svg>
