<svg width="450" height="851" viewBox="0 0 450 851" fill="none" xmlns="http://www.w3.org/2000/svg">
<rect width="450" height="851" fill="white"/>
<rect width="450" height="54" fill="white"/>
<mask id="mask0_278_2144" style="mask-type:alpha" maskUnits="userSpaceOnUse" x="14" y="14" width="26" height="26">
<rect x="14" y="14" width="26" height="26" fill="#D9D9D9"/>
</mask>
<g mask="url(#mask0_278_2144)">
<path d="M21.4983 27.5415L27.7733 33.8164L27.0003 34.5832L19.417 26.9998L27.0003 19.4165L27.7733 20.1832L21.4983 26.4582H34.5837V27.5415H21.4983Z" fill="#1C1B1F"/>
</g>
<rect x="56" y="10" width="380" height="34" rx="17" fill="#F2F2F2"/>
<path d="M73.906 35.234C72.268 35.234 71.044 34.226 71.044 32.462C71.044 30.338 72.898 29.276 77.056 28.808C77.056 27.548 76.642 26.342 75.04 26.342C73.906 26.342 72.88 26.864 72.106 27.386L71.458 26.252C72.358 25.676 73.744 24.974 75.31 24.974C77.686 24.974 78.694 26.576 78.694 28.988V35H77.344L77.2 33.83H77.146C76.21 34.604 75.112 35.234 73.906 35.234ZM74.374 33.92C75.328 33.92 76.102 33.47 77.056 32.624V29.888C73.762 30.284 72.646 31.094 72.646 32.354C72.646 33.47 73.402 33.92 74.374 33.92ZM84.0122 35.234C82.6262 35.234 81.2942 34.658 80.3582 33.884L81.1682 32.804C82.0142 33.488 82.8962 33.956 84.0662 33.956C85.3622 33.956 85.9922 33.272 85.9922 32.426C85.9922 31.418 84.8402 30.986 83.7602 30.572C82.3922 30.068 80.8982 29.402 80.8982 27.746C80.8982 26.198 82.1582 24.974 84.2822 24.974C85.4882 24.974 86.5502 25.478 87.3062 26.072L86.5142 27.134C85.8482 26.63 85.1642 26.27 84.3002 26.27C83.0582 26.27 82.4822 26.918 82.4822 27.674C82.4822 28.61 83.4902 28.952 84.5882 29.366C86.0102 29.906 87.5762 30.482 87.5762 32.336C87.5762 33.92 86.3162 35.234 84.0122 35.234ZM89.5161 35V25.226H90.8661L91.0101 26.648H91.0641C91.9101 25.712 92.9361 24.974 94.1061 24.974C95.6001 24.974 96.4101 25.694 96.8061 26.846C97.8141 25.748 98.8401 24.974 100.028 24.974C102.044 24.974 102.998 26.306 102.998 28.808V35H101.36V29.024C101.36 27.188 100.784 26.414 99.5421 26.414C98.7861 26.414 97.9941 26.9 97.0761 27.908V35H95.4381V29.024C95.4381 27.188 94.8621 26.414 93.6201 26.414C92.8821 26.414 92.0541 26.9 91.1541 27.908V35H89.5161ZM105.82 35V25.226H107.17L107.314 27.008H107.368C108.052 25.766 109.042 24.974 110.14 24.974C110.572 24.974 110.878 25.028 111.184 25.19L110.878 26.63C110.554 26.504 110.32 26.468 109.924 26.468C109.114 26.468 108.106 27.044 107.458 28.718V35H105.82Z" fill="#090909"/>
<mask id="mask1_278_2144" style="mask-type:alpha" maskUnits="userSpaceOnUse" x="402" y="15" width="24" height="24">
<rect x="402" y="15" width="24" height="24" fill="#D9D9D9"/>
</mask>
<g mask="url(#mask1_278_2144)">
<path d="M408.4 33.3079L407.692 32.6001L413.292 27.0001L407.692 21.4001L408.4 20.6924L414 26.2924L419.6 20.6924L420.308 21.4001L414.708 27.0001L420.308 32.6001L419.6 33.3079L414 27.7079L408.4 33.3079Z" fill="#1C1B1F"/>
</g>
<mask id="mask2_278_2144" style="mask-type:alpha" maskUnits="userSpaceOnUse" x="14" y="63" width="30" height="30">
<rect x="14" y="63" width="30" height="30" fill="#D9D9D9"/>
</mask>
<g mask="url(#mask2_278_2144)">
<path d="M38.3557 88.1921L30.5288 80.3652C29.9038 80.8973 29.1851 81.3091 28.3726 81.6008C27.5601 81.8925 26.7436 82.0383 25.9232 82.0383C23.9211 82.0383 22.2266 81.3453 20.8398 79.9592C19.4531 78.5732 18.7598 76.8798 18.7598 74.8789C18.7598 72.8779 19.4528 71.183 20.8388 69.7942C22.2249 68.4057 23.9183 67.7114 25.9191 67.7114C27.9202 67.7114 29.6151 68.4048 31.0038 69.7914C32.3924 71.1783 33.0866 72.8728 33.0866 74.8749C33.0866 75.7434 32.9328 76.5839 32.6251 77.3964C32.3174 78.2089 31.9135 78.9036 31.4135 79.4805L39.2404 87.3077L38.3557 88.1921ZM25.9232 80.7883C27.5817 80.7883 28.982 80.2174 30.1238 79.0755C31.2657 77.9338 31.8366 76.5336 31.8366 74.8749C31.8366 73.2161 31.2657 71.8159 30.1238 70.6742C28.982 69.5324 27.5817 68.9614 25.9232 68.9614C24.2645 68.9614 22.8642 69.5324 21.7226 70.6742C20.5807 71.8159 20.0098 73.2161 20.0098 74.8749C20.0098 76.5336 20.5807 77.9338 21.7226 79.0755C22.8642 80.2174 24.2645 80.7883 25.9232 80.7883Z" fill="#1C1B1F"/>
</g>
<path d="M75.906 86.234C74.268 86.234 73.044 85.226 73.044 83.462C73.044 81.338 74.898 80.276 79.056 79.808C79.056 78.548 78.642 77.342 77.04 77.342C75.906 77.342 74.88 77.864 74.106 78.386L73.458 77.252C74.358 76.676 75.744 75.974 77.31 75.974C79.686 75.974 80.694 77.576 80.694 79.988V86H79.344L79.2 84.83H79.146C78.21 85.604 77.112 86.234 75.906 86.234ZM76.374 84.92C77.328 84.92 78.102 84.47 79.056 83.624V80.888C75.762 81.284 74.646 82.094 74.646 83.354C74.646 84.47 75.402 84.92 76.374 84.92ZM86.0122 86.234C84.6262 86.234 83.2942 85.658 82.3582 84.884L83.1682 83.804C84.0142 84.488 84.8962 84.956 86.0662 84.956C87.3622 84.956 87.9922 84.272 87.9922 83.426C87.9922 82.418 86.8402 81.986 85.7602 81.572C84.3922 81.068 82.8982 80.402 82.8982 78.746C82.8982 77.198 84.1582 75.974 86.2822 75.974C87.4882 75.974 88.5502 76.478 89.3062 77.072L88.5142 78.134C87.8482 77.63 87.1642 77.27 86.3002 77.27C85.0582 77.27 84.4822 77.918 84.4822 78.674C84.4822 79.61 85.4902 79.952 86.5882 80.366C88.0102 80.906 89.5762 81.482 89.5762 83.336C89.5762 84.92 88.3162 86.234 86.0122 86.234ZM91.5161 86V76.226H92.8661L93.0101 77.648H93.0641C93.9101 76.712 94.9361 75.974 96.1061 75.974C97.6001 75.974 98.4101 76.694 98.8061 77.846C99.8141 76.748 100.84 75.974 102.028 75.974C104.044 75.974 104.998 77.306 104.998 79.808V86H103.36V80.024C103.36 78.188 102.784 77.414 101.542 77.414C100.786 77.414 99.9941 77.9 99.0761 78.908V86H97.4381V80.024C97.4381 78.188 96.8621 77.414 95.6201 77.414C94.8821 77.414 94.0541 77.9 93.1541 78.908V86H91.5161ZM107.82 86V76.226H109.17L109.314 78.008H109.368C110.052 76.766 111.042 75.974 112.14 75.974C112.572 75.974 112.878 76.028 113.184 76.19L112.878 77.63C112.554 77.504 112.32 77.468 111.924 77.468C111.114 77.468 110.106 78.044 109.458 79.718V86H107.82Z" fill="#090909"/>
<mask id="mask3_278_2144" style="mask-type:alpha" maskUnits="userSpaceOnUse" x="406" y="63" width="30" height="30">
<rect x="406" y="63" width="30" height="30" fill="#D9D9D9"/>
</mask>
<g mask="url(#mask3_278_2144)">
<path d="M428.265 84.6106L415.64 72.0097V83.625H414.39V69.875H428.14V71.125H416.524L429.125 83.75L428.265 84.6106Z" fill="#1C1B1F"/>
</g>
<mask id="mask4_278_2144" style="mask-type:alpha" maskUnits="userSpaceOnUse" x="14" y="111" width="30" height="30">
<rect x="14" y="111" width="30" height="30" fill="#D9D9D9"/>
</mask>
<g mask="url(#mask4_278_2144)">
<path d="M38.3557 136.192L30.5288 128.365C29.9038 128.897 29.1851 129.309 28.3726 129.601C27.5601 129.892 26.7436 130.038 25.9232 130.038C23.9211 130.038 22.2266 129.345 20.8398 127.959C19.4531 126.573 18.7598 124.88 18.7598 122.879C18.7598 120.878 19.4528 119.183 20.8388 117.794C22.2249 116.406 23.9183 115.711 25.9191 115.711C27.9202 115.711 29.6151 116.405 31.0038 117.791C32.3924 119.178 33.0866 120.873 33.0866 122.875C33.0866 123.743 32.9328 124.584 32.6251 125.396C32.3174 126.209 31.9135 126.904 31.4135 127.48L39.2404 135.308L38.3557 136.192ZM25.9232 128.788C27.5817 128.788 28.982 128.217 30.1238 127.075C31.2657 125.934 31.8366 124.534 31.8366 122.875C31.8366 121.216 31.2657 119.816 30.1238 118.674C28.982 117.532 27.5817 116.961 25.9232 116.961C24.2645 116.961 22.8642 117.532 21.7226 118.674C20.5807 119.816 20.0098 121.216 20.0098 122.875C20.0098 124.534 20.5807 125.934 21.7226 127.075C22.8642 128.217 24.2645 128.788 25.9232 128.788Z" fill="#1C1B1F"/>
</g>
<path d="M75.906 134.234C74.268 134.234 73.044 133.226 73.044 131.462C73.044 129.338 74.898 128.276 79.056 127.808C79.056 126.548 78.642 125.342 77.04 125.342C75.906 125.342 74.88 125.864 74.106 126.386L73.458 125.252C74.358 124.676 75.744 123.974 77.31 123.974C79.686 123.974 80.694 125.576 80.694 127.988V134H79.344L79.2 132.83H79.146C78.21 133.604 77.112 134.234 75.906 134.234ZM76.374 132.92C77.328 132.92 78.102 132.47 79.056 131.624V128.888C75.762 129.284 74.646 130.094 74.646 131.354C74.646 132.47 75.402 132.92 76.374 132.92ZM86.0122 134.234C84.6262 134.234 83.2942 133.658 82.3582 132.884L83.1682 131.804C84.0142 132.488 84.8962 132.956 86.0662 132.956C87.3622 132.956 87.9922 132.272 87.9922 131.426C87.9922 130.418 86.8402 129.986 85.7602 129.572C84.3922 129.068 82.8982 128.402 82.8982 126.746C82.8982 125.198 84.1582 123.974 86.2822 123.974C87.4882 123.974 88.5502 124.478 89.3062 125.072L88.5142 126.134C87.8482 125.63 87.1642 125.27 86.3002 125.27C85.0582 125.27 84.4822 125.918 84.4822 126.674C84.4822 127.61 85.4902 127.952 86.5882 128.366C88.0102 128.906 89.5762 129.482 89.5762 131.336C89.5762 132.92 88.3162 134.234 86.0122 134.234ZM91.5161 134V124.226H92.8661L93.0101 125.648H93.0641C93.9101 124.712 94.9361 123.974 96.1061 123.974C97.6001 123.974 98.4101 124.694 98.8061 125.846C99.8141 124.748 100.84 123.974 102.028 123.974C104.044 123.974 104.998 125.306 104.998 127.808V134H103.36V128.024C103.36 126.188 102.784 125.414 101.542 125.414C100.786 125.414 99.9941 125.9 99.0761 126.908V134H97.4381V128.024C97.4381 126.188 96.8621 125.414 95.6201 125.414C94.8821 125.414 94.0541 125.9 93.1541 126.908V134H91.5161ZM107.82 134V124.226H109.17L109.314 126.008H109.368C110.052 124.766 111.042 123.974 112.14 123.974C112.572 123.974 112.878 124.028 113.184 124.19L112.878 125.63C112.554 125.504 112.32 125.468 111.924 125.468C111.114 125.468 110.106 126.044 109.458 127.718V134H107.82ZM128.13 126.44L128.256 127.538C126.636 127.772 124.944 127.898 123.288 127.988V134.414H121.812V128.042C120.3 128.096 118.86 128.132 117.528 128.132L117.312 126.89C119.454 126.872 121.92 126.854 124.35 126.728C124.782 124.424 124.836 122.732 124.854 121.634H118.716V120.446H126.294V121.094C126.294 122.156 126.294 124.01 125.844 126.638C126.618 126.566 127.374 126.512 128.13 126.44ZM129.282 119.186H130.758V135.314H129.282V119.186ZM142.187 123.776H145.409V119.186H146.903V128.978H145.409V125H142.187V123.776ZM143.159 127.142L142.457 128.294C140.603 127.718 139.145 126.512 138.407 124.946C137.723 126.71 136.265 128.078 134.357 128.708L133.637 127.574C136.013 126.764 137.633 124.802 137.633 122.624V122.318H134.051V121.13H137.633V119.096H139.109V121.13H142.673V122.318H139.109V122.624C139.109 124.64 140.783 126.44 143.159 127.142ZM141.557 134.162C144.005 134.162 145.481 133.478 145.481 132.344C145.481 131.228 144.023 130.544 141.557 130.544C139.127 130.544 137.669 131.228 137.669 132.344C137.669 133.478 139.127 134.162 141.557 134.162ZM141.557 129.392C144.905 129.392 146.957 130.472 146.957 132.344C146.957 134.234 144.905 135.314 141.557 135.314C138.245 135.314 136.193 134.234 136.193 132.344C136.193 130.472 138.245 129.392 141.557 129.392ZM163.731 127.07L163.101 128.294C160.635 127.772 158.097 126.098 157.053 123.794C156.009 126.098 153.489 127.772 151.005 128.294L150.393 127.07C153.219 126.566 156.279 124.19 156.279 121.508V120.266H157.827V121.508C157.827 124.19 160.905 126.566 163.731 127.07ZM157.791 132.02H164.451V133.226H149.799V132.02H156.315V128.096H157.791V132.02Z" fill="#090909"/>
<mask id="mask5_278_2144" style="mask-type:alpha" maskUnits="userSpaceOnUse" x="406" y="111" width="30" height="30">
<rect x="406" y="111" width="30" height="30" fill="#D9D9D9"/>
</mask>
<g mask="url(#mask5_278_2144)">
<path d="M428.265 132.611L415.64 120.01V131.625H414.39V117.875H428.14V119.125H416.524L429.125 131.75L428.265 132.611Z" fill="#1C1B1F"/>
</g>
<mask id="mask6_278_2144" style="mask-type:alpha" maskUnits="userSpaceOnUse" x="14" y="159" width="30" height="30">
<rect x="14" y="159" width="30" height="30" fill="#D9D9D9"/>
</mask>
<g mask="url(#mask6_278_2144)">
<path d="M38.3557 184.192L30.5288 176.365C29.9038 176.897 29.1851 177.309 28.3726 177.601C27.5601 177.892 26.7436 178.038 25.9232 178.038C23.9211 178.038 22.2266 177.345 20.8398 175.959C19.4531 174.573 18.7598 172.88 18.7598 170.879C18.7598 168.878 19.4528 167.183 20.8388 165.794C22.2249 164.406 23.9183 163.711 25.9191 163.711C27.9202 163.711 29.6151 164.405 31.0038 165.791C32.3924 167.178 33.0866 168.873 33.0866 170.875C33.0866 171.743 32.9328 172.584 32.6251 173.396C32.3174 174.209 31.9135 174.904 31.4135 175.48L39.2404 183.308L38.3557 184.192ZM25.9232 176.788C27.5817 176.788 28.982 176.217 30.1238 175.075C31.2657 173.934 31.8366 172.534 31.8366 170.875C31.8366 169.216 31.2657 167.816 30.1238 166.674C28.982 165.532 27.5817 164.961 25.9232 164.961C24.2645 164.961 22.8642 165.532 21.7226 166.674C20.5807 167.816 20.0098 169.216 20.0098 170.875C20.0098 172.534 20.5807 173.934 21.7226 175.075C22.8642 176.217 24.2645 176.788 25.9232 176.788Z" fill="#1C1B1F"/>
</g>
<path d="M75.906 182.234C74.268 182.234 73.044 181.226 73.044 179.462C73.044 177.338 74.898 176.276 79.056 175.808C79.056 174.548 78.642 173.342 77.04 173.342C75.906 173.342 74.88 173.864 74.106 174.386L73.458 173.252C74.358 172.676 75.744 171.974 77.31 171.974C79.686 171.974 80.694 173.576 80.694 175.988V182H79.344L79.2 180.83H79.146C78.21 181.604 77.112 182.234 75.906 182.234ZM76.374 180.92C77.328 180.92 78.102 180.47 79.056 179.624V176.888C75.762 177.284 74.646 178.094 74.646 179.354C74.646 180.47 75.402 180.92 76.374 180.92ZM86.0122 182.234C84.6262 182.234 83.2942 181.658 82.3582 180.884L83.1682 179.804C84.0142 180.488 84.8962 180.956 86.0662 180.956C87.3622 180.956 87.9922 180.272 87.9922 179.426C87.9922 178.418 86.8402 177.986 85.7602 177.572C84.3922 177.068 82.8982 176.402 82.8982 174.746C82.8982 173.198 84.1582 171.974 86.2822 171.974C87.4882 171.974 88.5502 172.478 89.3062 173.072L88.5142 174.134C87.8482 173.63 87.1642 173.27 86.3002 173.27C85.0582 173.27 84.4822 173.918 84.4822 174.674C84.4822 175.61 85.4902 175.952 86.5882 176.366C88.0102 176.906 89.5762 177.482 89.5762 179.336C89.5762 180.92 88.3162 182.234 86.0122 182.234ZM91.5161 182V172.226H92.8661L93.0101 173.648H93.0641C93.9101 172.712 94.9361 171.974 96.1061 171.974C97.6001 171.974 98.4101 172.694 98.8061 173.846C99.8141 172.748 100.84 171.974 102.028 171.974C104.044 171.974 104.998 173.306 104.998 175.808V182H103.36V176.024C103.36 174.188 102.784 173.414 101.542 173.414C100.786 173.414 99.9941 173.9 99.0761 174.908V182H97.4381V176.024C97.4381 174.188 96.8621 173.414 95.6201 173.414C94.8821 173.414 94.0541 173.9 93.1541 174.908V182H91.5161ZM107.82 182V172.226H109.17L109.314 174.008H109.368C110.052 172.766 111.042 171.974 112.14 171.974C112.572 171.974 112.878 172.028 113.184 172.19L112.878 173.63C112.554 173.504 112.32 173.468 111.924 173.468C111.114 173.468 110.106 174.044 109.458 175.718V182H107.82ZM130.65 167.204V177.194H129.174V167.204H130.65ZM127.32 174.404L127.482 175.574C125.124 175.97 123.162 176.042 119.634 176.042H118.32V168.374H126.024V169.562H119.796V171.578H125.574V172.748H119.796V174.854C123.162 174.854 125.07 174.782 127.32 174.404ZM125.286 182.162C127.752 182.162 129.246 181.496 129.246 180.38C129.246 179.228 127.752 178.58 125.286 178.58C122.838 178.58 121.344 179.228 121.344 180.38C121.344 181.496 122.838 182.162 125.286 182.162ZM125.286 177.428C128.652 177.428 130.704 178.49 130.704 180.38C130.704 182.252 128.652 183.314 125.286 183.314C121.938 183.314 119.886 182.252 119.886 180.38C119.886 178.49 121.938 177.428 125.286 177.428ZM136.841 180.074V181.964H146.813V183.134H135.383V178.958H144.941V177.176H135.329V176.006H146.417V180.074H136.841ZM146.003 173.198H148.253V174.386H133.601V173.198H144.527C144.887 171.416 144.905 170.12 144.905 169.058H135.473V167.87H146.363V168.896C146.363 169.994 146.363 171.38 146.003 173.198Z" fill="#090909"/>
<mask id="mask7_278_2144" style="mask-type:alpha" maskUnits="userSpaceOnUse" x="406" y="159" width="30" height="30">
<rect x="406" y="159" width="30" height="30" fill="#D9D9D9"/>
</mask>
<g mask="url(#mask7_278_2144)">
<path d="M428.265 180.611L415.64 168.01V179.625H414.39V165.875H428.14V167.125H416.524L429.125 179.75L428.265 180.611Z" fill="#1C1B1F"/>
</g>
<mask id="mask8_278_2144" style="mask-type:alpha" maskUnits="userSpaceOnUse" x="14" y="207" width="30" height="30">
<rect x="14" y="207" width="30" height="30" fill="#D9D9D9"/>
</mask>
<g mask="url(#mask8_278_2144)">
<path d="M38.3557 232.192L30.5288 224.365C29.9038 224.897 29.1851 225.309 28.3726 225.601C27.5601 225.892 26.7436 226.038 25.9232 226.038C23.9211 226.038 22.2266 225.345 20.8398 223.959C19.4531 222.573 18.7598 220.88 18.7598 218.879C18.7598 216.878 19.4528 215.183 20.8388 213.794C22.2249 212.406 23.9183 211.711 25.9191 211.711C27.9202 211.711 29.6151 212.405 31.0038 213.791C32.3924 215.178 33.0866 216.873 33.0866 218.875C33.0866 219.743 32.9328 220.584 32.6251 221.396C32.3174 222.209 31.9135 222.904 31.4135 223.48L39.2404 231.308L38.3557 232.192ZM25.9232 224.788C27.5817 224.788 28.982 224.217 30.1238 223.075C31.2657 221.934 31.8366 220.534 31.8366 218.875C31.8366 217.216 31.2657 215.816 30.1238 214.674C28.982 213.532 27.5817 212.961 25.9232 212.961C24.2645 212.961 22.8642 213.532 21.7226 214.674C20.5807 215.816 20.0098 217.216 20.0098 218.875C20.0098 220.534 20.5807 221.934 21.7226 223.075C22.8642 224.217 24.2645 224.788 25.9232 224.788Z" fill="#1C1B1F"/>
</g>
<path d="M75.906 230.234C74.268 230.234 73.044 229.226 73.044 227.462C73.044 225.338 74.898 224.276 79.056 223.808C79.056 222.548 78.642 221.342 77.04 221.342C75.906 221.342 74.88 221.864 74.106 222.386L73.458 221.252C74.358 220.676 75.744 219.974 77.31 219.974C79.686 219.974 80.694 221.576 80.694 223.988V230H79.344L79.2 228.83H79.146C78.21 229.604 77.112 230.234 75.906 230.234ZM76.374 228.92C77.328 228.92 78.102 228.47 79.056 227.624V224.888C75.762 225.284 74.646 226.094 74.646 227.354C74.646 228.47 75.402 228.92 76.374 228.92ZM86.0122 230.234C84.6262 230.234 83.2942 229.658 82.3582 228.884L83.1682 227.804C84.0142 228.488 84.8962 228.956 86.0662 228.956C87.3622 228.956 87.9922 228.272 87.9922 227.426C87.9922 226.418 86.8402 225.986 85.7602 225.572C84.3922 225.068 82.8982 224.402 82.8982 222.746C82.8982 221.198 84.1582 219.974 86.2822 219.974C87.4882 219.974 88.5502 220.478 89.3062 221.072L88.5142 222.134C87.8482 221.63 87.1642 221.27 86.3002 221.27C85.0582 221.27 84.4822 221.918 84.4822 222.674C84.4822 223.61 85.4902 223.952 86.5882 224.366C88.0102 224.906 89.5762 225.482 89.5762 227.336C89.5762 228.92 88.3162 230.234 86.0122 230.234ZM91.5161 230V220.226H92.8661L93.0101 221.648H93.0641C93.9101 220.712 94.9361 219.974 96.1061 219.974C97.6001 219.974 98.4101 220.694 98.8061 221.846C99.8141 220.748 100.84 219.974 102.028 219.974C104.044 219.974 104.998 221.306 104.998 223.808V230H103.36V224.024C103.36 222.188 102.784 221.414 101.542 221.414C100.786 221.414 99.9941 221.9 99.0761 222.908V230H97.4381V224.024C97.4381 222.188 96.8621 221.414 95.6201 221.414C94.8821 221.414 94.0541 221.9 93.1541 222.908V230H91.5161ZM107.82 230V220.226H109.17L109.314 222.008H109.368C110.052 220.766 111.042 219.974 112.14 219.974C112.572 219.974 112.878 220.028 113.184 220.19L112.878 221.63C112.554 221.504 112.32 221.468 111.924 221.468C111.114 221.468 110.106 222.044 109.458 223.718V230H107.82ZM119.904 226.796V225.608H130.704V231.35H129.21V226.796H119.904ZM124.062 222.44V217.58H119.598V222.44H124.062ZM129.21 215.204H130.704V224.708H129.21V220.442H125.502V223.61H118.14V216.392H125.502V219.236H129.21V215.204ZM140.297 222.458V219.794H135.725V222.458H140.297ZM141.737 216.212V223.646H134.267V216.212H135.725V218.642H140.297V216.212H141.737ZM140.999 230.162C143.375 230.162 144.833 229.478 144.833 228.326C144.833 227.174 143.375 226.508 140.999 226.508C138.587 226.508 137.147 227.174 137.147 228.326C137.147 229.478 138.587 230.162 140.999 230.162ZM140.999 225.32C144.275 225.32 146.309 226.418 146.309 228.326C146.309 230.234 144.275 231.332 140.999 231.332C137.705 231.332 135.671 230.234 135.671 228.326C135.671 226.418 137.705 225.32 140.999 225.32ZM146.129 219.254H148.523V220.478H146.129V224.906H144.653V215.186H146.129V219.254Z" fill="#090909"/>
<mask id="mask9_278_2144" style="mask-type:alpha" maskUnits="userSpaceOnUse" x="406" y="207" width="30" height="30">
<rect x="406" y="207" width="30" height="30" fill="#D9D9D9"/>
</mask>
<g mask="url(#mask9_278_2144)">
<path d="M428.265 228.611L415.64 216.01V227.625H414.39V213.875H428.14V215.125H416.524L429.125 227.75L428.265 228.611Z" fill="#1C1B1F"/>
</g>
<mask id="mask10_278_2144" style="mask-type:alpha" maskUnits="userSpaceOnUse" x="14" y="255" width="30" height="30">
<rect x="14" y="255" width="30" height="30" fill="#D9D9D9"/>
</mask>
<g mask="url(#mask10_278_2144)">
<path d="M38.3557 280.192L30.5288 272.365C29.9038 272.897 29.1851 273.309 28.3726 273.601C27.5601 273.892 26.7436 274.038 25.9232 274.038C23.9211 274.038 22.2266 273.345 20.8398 271.959C19.4531 270.573 18.7598 268.88 18.7598 266.879C18.7598 264.878 19.4528 263.183 20.8388 261.794C22.2249 260.406 23.9183 259.711 25.9191 259.711C27.9202 259.711 29.6151 260.405 31.0038 261.791C32.3924 263.178 33.0866 264.873 33.0866 266.875C33.0866 267.743 32.9328 268.584 32.6251 269.396C32.3174 270.209 31.9135 270.904 31.4135 271.48L39.2404 279.308L38.3557 280.192ZM25.9232 272.788C27.5817 272.788 28.982 272.217 30.1238 271.075C31.2657 269.934 31.8366 268.534 31.8366 266.875C31.8366 265.216 31.2657 263.816 30.1238 262.674C28.982 261.532 27.5817 260.961 25.9232 260.961C24.2645 260.961 22.8642 261.532 21.7226 262.674C20.5807 263.816 20.0098 265.216 20.0098 266.875C20.0098 268.534 20.5807 269.934 21.7226 271.075C22.8642 272.217 24.2645 272.788 25.9232 272.788Z" fill="#1C1B1F"/>
</g>
<path d="M75.906 278.234C74.268 278.234 73.044 277.226 73.044 275.462C73.044 273.338 74.898 272.276 79.056 271.808C79.056 270.548 78.642 269.342 77.04 269.342C75.906 269.342 74.88 269.864 74.106 270.386L73.458 269.252C74.358 268.676 75.744 267.974 77.31 267.974C79.686 267.974 80.694 269.576 80.694 271.988V278H79.344L79.2 276.83H79.146C78.21 277.604 77.112 278.234 75.906 278.234ZM76.374 276.92C77.328 276.92 78.102 276.47 79.056 275.624V272.888C75.762 273.284 74.646 274.094 74.646 275.354C74.646 276.47 75.402 276.92 76.374 276.92ZM86.0122 278.234C84.6262 278.234 83.2942 277.658 82.3582 276.884L83.1682 275.804C84.0142 276.488 84.8962 276.956 86.0662 276.956C87.3622 276.956 87.9922 276.272 87.9922 275.426C87.9922 274.418 86.8402 273.986 85.7602 273.572C84.3922 273.068 82.8982 272.402 82.8982 270.746C82.8982 269.198 84.1582 267.974 86.2822 267.974C87.4882 267.974 88.5502 268.478 89.3062 269.072L88.5142 270.134C87.8482 269.63 87.1642 269.27 86.3002 269.27C85.0582 269.27 84.4822 269.918 84.4822 270.674C84.4822 271.61 85.4902 271.952 86.5882 272.366C88.0102 272.906 89.5762 273.482 89.5762 275.336C89.5762 276.92 88.3162 278.234 86.0122 278.234ZM91.5161 278V268.226H92.8661L93.0101 269.648H93.0641C93.9101 268.712 94.9361 267.974 96.1061 267.974C97.6001 267.974 98.4101 268.694 98.8061 269.846C99.8141 268.748 100.84 267.974 102.028 267.974C104.044 267.974 104.998 269.306 104.998 271.808V278H103.36V272.024C103.36 270.188 102.784 269.414 101.542 269.414C100.786 269.414 99.9941 269.9 99.0761 270.908V278H97.4381V272.024C97.4381 270.188 96.8621 269.414 95.6201 269.414C94.8821 269.414 94.0541 269.9 93.1541 270.908V278H91.5161ZM107.82 278V268.226H109.17L109.314 270.008H109.368C110.052 268.766 111.042 267.974 112.14 267.974C112.572 267.974 112.878 268.028 113.184 268.19L112.878 269.63C112.554 269.504 112.32 269.468 111.924 269.468C111.114 269.468 110.106 270.044 109.458 271.718V278H107.82ZM129.174 263.204H130.65V271.862H129.174V263.204ZM120.246 272.654H121.704V274.634H129.192V272.654H130.65V279.116H120.246V272.654ZM121.704 275.786V277.928H129.192V275.786H121.704ZM121.974 263.96C124.422 263.96 126.204 265.472 126.204 267.668C126.204 269.9 124.422 271.394 121.974 271.394C119.544 271.394 117.78 269.9 117.78 267.668C117.78 265.472 119.544 263.96 121.974 263.96ZM121.974 265.184C120.372 265.184 119.22 266.21 119.22 267.668C119.22 269.144 120.372 270.17 121.974 270.17C123.612 270.17 124.764 269.144 124.764 267.668C124.764 266.21 123.612 265.184 121.974 265.184ZM147.533 271.07L146.903 272.294C144.437 271.772 141.899 270.098 140.855 267.794C139.811 270.098 137.291 271.772 134.807 272.294L134.195 271.07C137.021 270.566 140.081 268.19 140.081 265.508V264.266H141.629V265.508C141.629 268.19 144.707 270.566 147.533 271.07ZM141.593 276.02H148.253V277.226H133.601V276.02H140.117V272.096H141.593V276.02ZM152.211 270.44V274.22C154.857 274.22 157.233 274.094 160.059 273.644L160.203 274.85C157.287 275.336 154.839 275.444 152.067 275.444H150.735V269.252H156.675V265.886H150.681V264.68H158.169V270.44H152.211ZM161.571 263.168H163.047V279.35H161.571V263.168Z" fill="#090909"/>
<mask id="mask11_278_2144" style="mask-type:alpha" maskUnits="userSpaceOnUse" x="406" y="255" width="30" height="30">
<rect x="406" y="255" width="30" height="30" fill="#D9D9D9"/>
</mask>
<g mask="url(#mask11_278_2144)">
<path d="M428.265 276.611L415.64 264.01V275.625H414.39V261.875H428.14V263.125H416.524L429.125 275.75L428.265 276.611Z" fill="#1C1B1F"/>
</g>
<mask id="mask12_278_2144" style="mask-type:alpha" maskUnits="userSpaceOnUse" x="14" y="303" width="30" height="30">
<rect x="14" y="303" width="30" height="30" fill="#D9D9D9"/>
</mask>
<g mask="url(#mask12_278_2144)">
<path d="M38.3557 328.192L30.5288 320.365C29.9038 320.897 29.1851 321.309 28.3726 321.601C27.5601 321.892 26.7436 322.038 25.9232 322.038C23.9211 322.038 22.2266 321.345 20.8398 319.959C19.4531 318.573 18.7598 316.88 18.7598 314.879C18.7598 312.878 19.4528 311.183 20.8388 309.794C22.2249 308.406 23.9183 307.711 25.9191 307.711C27.9202 307.711 29.6151 308.405 31.0038 309.791C32.3924 311.178 33.0866 312.873 33.0866 314.875C33.0866 315.743 32.9328 316.584 32.6251 317.396C32.3174 318.209 31.9135 318.904 31.4135 319.48L39.2404 327.308L38.3557 328.192ZM25.9232 320.788C27.5817 320.788 28.982 320.217 30.1238 319.075C31.2657 317.934 31.8366 316.534 31.8366 314.875C31.8366 313.216 31.2657 311.816 30.1238 310.674C28.982 309.532 27.5817 308.961 25.9232 308.961C24.2645 308.961 22.8642 309.532 21.7226 310.674C20.5807 311.816 20.0098 313.216 20.0098 314.875C20.0098 316.534 20.5807 317.934 21.7226 319.075C22.8642 320.217 24.2645 320.788 25.9232 320.788Z" fill="#1C1B1F"/>
</g>
<path d="M75.906 326.234C74.268 326.234 73.044 325.226 73.044 323.462C73.044 321.338 74.898 320.276 79.056 319.808C79.056 318.548 78.642 317.342 77.04 317.342C75.906 317.342 74.88 317.864 74.106 318.386L73.458 317.252C74.358 316.676 75.744 315.974 77.31 315.974C79.686 315.974 80.694 317.576 80.694 319.988V326H79.344L79.2 324.83H79.146C78.21 325.604 77.112 326.234 75.906 326.234ZM76.374 324.92C77.328 324.92 78.102 324.47 79.056 323.624V320.888C75.762 321.284 74.646 322.094 74.646 323.354C74.646 324.47 75.402 324.92 76.374 324.92ZM86.0122 326.234C84.6262 326.234 83.2942 325.658 82.3582 324.884L83.1682 323.804C84.0142 324.488 84.8962 324.956 86.0662 324.956C87.3622 324.956 87.9922 324.272 87.9922 323.426C87.9922 322.418 86.8402 321.986 85.7602 321.572C84.3922 321.068 82.8982 320.402 82.8982 318.746C82.8982 317.198 84.1582 315.974 86.2822 315.974C87.4882 315.974 88.5502 316.478 89.3062 317.072L88.5142 318.134C87.8482 317.63 87.1642 317.27 86.3002 317.27C85.0582 317.27 84.4822 317.918 84.4822 318.674C84.4822 319.61 85.4902 319.952 86.5882 320.366C88.0102 320.906 89.5762 321.482 89.5762 323.336C89.5762 324.92 88.3162 326.234 86.0122 326.234ZM91.5161 326V316.226H92.8661L93.0101 317.648H93.0641C93.9101 316.712 94.9361 315.974 96.1061 315.974C97.6001 315.974 98.4101 316.694 98.8061 317.846C99.8141 316.748 100.84 315.974 102.028 315.974C104.044 315.974 104.998 317.306 104.998 319.808V326H103.36V320.024C103.36 318.188 102.784 317.414 101.542 317.414C100.786 317.414 99.9941 317.9 99.0761 318.908V326H97.4381V320.024C97.4381 318.188 96.8621 317.414 95.6201 317.414C94.8821 317.414 94.0541 317.9 93.1541 318.908V326H91.5161ZM107.82 326V316.226H109.17L109.314 318.008H109.368C110.052 316.766 111.042 315.974 112.14 315.974C112.572 315.974 112.878 316.028 113.184 316.19L112.878 317.63C112.554 317.504 112.32 317.468 111.924 317.468C111.114 317.468 110.106 318.044 109.458 319.718V326H107.82ZM126.762 318.944L126.042 320.114C124.224 319.502 122.838 318.206 122.136 316.568C121.452 318.368 119.994 319.808 118.086 320.492L117.33 319.304C119.778 318.476 121.362 316.406 121.362 314.084V313.508H117.762V312.302H126.402V313.508H122.856V314.066C122.856 316.226 124.404 318.152 126.762 318.944ZM121.236 322.598V325.928H128.472V322.598H121.236ZM119.796 327.116V321.428H129.93V327.116H119.796ZM132.324 315.218V316.442H129.93V320.69H128.454V311.204H129.93V315.218H132.324ZM136.445 316.478C136.445 318.332 138.335 319.538 140.909 319.538C143.483 319.538 145.355 318.332 145.355 316.478C145.355 314.624 143.483 313.418 140.909 313.418C138.335 313.418 136.445 314.624 136.445 316.478ZM141.647 324.038H148.253V325.262H133.583V324.038H140.153V320.672C137.147 320.456 135.023 318.854 135.023 316.478C135.023 313.904 137.489 312.248 140.909 312.248C144.311 312.248 146.759 313.904 146.759 316.478C146.759 318.854 144.653 320.456 141.647 320.672V324.038ZM162.741 316.046V317.252H151.761V311.78H153.237V316.046H162.741ZM153.129 322.22V325.73H162.831V326.936H151.653V322.22H153.129ZM149.781 319.412H164.415V320.6H149.781V319.412ZM179.93 319.07L179.3 320.294C176.834 319.772 174.296 318.098 173.252 315.794C172.208 318.098 169.688 319.772 167.204 320.294L166.592 319.07C169.418 318.566 172.478 316.19 172.478 313.508V312.266H174.026V313.508C174.026 316.19 177.104 318.566 179.93 319.07ZM173.99 324.02H180.65V325.226H165.998V324.02H172.514V320.096H173.99V324.02ZM184.608 318.44V322.22C187.254 322.22 189.63 322.094 192.456 321.644L192.6 322.85C189.684 323.336 187.236 323.444 184.464 323.444H183.132V317.252H189.072V313.886H183.078V312.68H190.566V318.44H184.608ZM193.968 311.168H195.444V327.35H193.968V311.168Z" fill="#090909"/>
<mask id="mask13_278_2144" style="mask-type:alpha" maskUnits="userSpaceOnUse" x="406" y="303" width="30" height="30">
<rect x="406" y="303" width="30" height="30" fill="#D9D9D9"/>
</mask>
<g mask="url(#mask13_278_2144)">
<path d="M428.265 324.611L415.64 312.01V323.625H414.39V309.875H428.14V311.125H416.524L429.125 323.75L428.265 324.611Z" fill="#1C1B1F"/>
</g>
<mask id="mask14_278_2144" style="mask-type:alpha" maskUnits="userSpaceOnUse" x="14" y="351" width="30" height="30">
<rect x="14" y="351" width="30" height="30" fill="#D9D9D9"/>
</mask>
<g mask="url(#mask14_278_2144)">
<path d="M38.3557 376.192L30.5288 368.365C29.9038 368.897 29.1851 369.309 28.3726 369.601C27.5601 369.892 26.7436 370.038 25.9232 370.038C23.9211 370.038 22.2266 369.345 20.8398 367.959C19.4531 366.573 18.7598 364.88 18.7598 362.879C18.7598 360.878 19.4528 359.183 20.8388 357.794C22.2249 356.406 23.9183 355.711 25.9191 355.711C27.9202 355.711 29.6151 356.405 31.0038 357.791C32.3924 359.178 33.0866 360.873 33.0866 362.875C33.0866 363.743 32.9328 364.584 32.6251 365.396C32.3174 366.209 31.9135 366.904 31.4135 367.48L39.2404 375.308L38.3557 376.192ZM25.9232 368.788C27.5817 368.788 28.982 368.217 30.1238 367.075C31.2657 365.934 31.8366 364.534 31.8366 362.875C31.8366 361.216 31.2657 359.816 30.1238 358.674C28.982 357.532 27.5817 356.961 25.9232 356.961C24.2645 356.961 22.8642 357.532 21.7226 358.674C20.5807 359.816 20.0098 361.216 20.0098 362.875C20.0098 364.534 20.5807 365.934 21.7226 367.075C22.8642 368.217 24.2645 368.788 25.9232 368.788Z" fill="#1C1B1F"/>
</g>
<path d="M75.906 374.234C74.268 374.234 73.044 373.226 73.044 371.462C73.044 369.338 74.898 368.276 79.056 367.808C79.056 366.548 78.642 365.342 77.04 365.342C75.906 365.342 74.88 365.864 74.106 366.386L73.458 365.252C74.358 364.676 75.744 363.974 77.31 363.974C79.686 363.974 80.694 365.576 80.694 367.988V374H79.344L79.2 372.83H79.146C78.21 373.604 77.112 374.234 75.906 374.234ZM76.374 372.92C77.328 372.92 78.102 372.47 79.056 371.624V368.888C75.762 369.284 74.646 370.094 74.646 371.354C74.646 372.47 75.402 372.92 76.374 372.92ZM86.0122 374.234C84.6262 374.234 83.2942 373.658 82.3582 372.884L83.1682 371.804C84.0142 372.488 84.8962 372.956 86.0662 372.956C87.3622 372.956 87.9922 372.272 87.9922 371.426C87.9922 370.418 86.8402 369.986 85.7602 369.572C84.3922 369.068 82.8982 368.402 82.8982 366.746C82.8982 365.198 84.1582 363.974 86.2822 363.974C87.4882 363.974 88.5502 364.478 89.3062 365.072L88.5142 366.134C87.8482 365.63 87.1642 365.27 86.3002 365.27C85.0582 365.27 84.4822 365.918 84.4822 366.674C84.4822 367.61 85.4902 367.952 86.5882 368.366C88.0102 368.906 89.5762 369.482 89.5762 371.336C89.5762 372.92 88.3162 374.234 86.0122 374.234ZM91.5161 374V364.226H92.8661L93.0101 365.648H93.0641C93.9101 364.712 94.9361 363.974 96.1061 363.974C97.6001 363.974 98.4101 364.694 98.8061 365.846C99.8141 364.748 100.84 363.974 102.028 363.974C104.044 363.974 104.998 365.306 104.998 367.808V374H103.36V368.024C103.36 366.188 102.784 365.414 101.542 365.414C100.786 365.414 99.9941 365.9 99.0761 366.908V374H97.4381V368.024C97.4381 366.188 96.8621 365.414 95.6201 365.414C94.8821 365.414 94.0541 365.9 93.1541 366.908V374H91.5161ZM107.82 374V364.226H109.17L109.314 366.008H109.368C110.052 364.766 111.042 363.974 112.14 363.974C112.572 363.974 112.878 364.028 113.184 364.19L112.878 365.63C112.554 365.504 112.32 365.468 111.924 365.468C111.114 365.468 110.106 366.044 109.458 367.718V374H107.82ZM121.704 370.382C123.252 370.382 124.35 368.69 124.35 366.062C124.35 363.452 123.252 361.76 121.704 361.76C120.138 361.76 119.04 363.452 119.04 366.062C119.04 368.69 120.138 370.382 121.704 370.382ZM121.704 360.428C124.08 360.428 125.754 362.624 125.754 366.062C125.754 369.5 124.08 371.696 121.704 371.696C119.328 371.696 117.636 369.5 117.636 366.062C117.636 362.624 119.328 360.428 121.704 360.428ZM132.486 365.63V366.872H129.822V375.332H128.346V359.204H129.822V365.63H132.486ZM145.337 359.186H146.813V375.368H145.337V359.186ZM138.299 360.428C140.693 360.428 142.403 362.624 142.403 366.062C142.403 369.5 140.693 371.696 138.299 371.696C135.905 371.696 134.195 369.5 134.195 366.062C134.195 362.624 135.905 360.428 138.299 360.428ZM138.299 361.76C136.715 361.76 135.599 363.452 135.599 366.062C135.599 368.69 136.715 370.382 138.299 370.382C139.865 370.382 140.981 368.69 140.981 366.062C140.981 363.452 139.865 361.76 138.299 361.76ZM153.039 372.38V374H163.011V375.134H151.599V371.3H161.067V369.878H151.545V368.744H162.525V372.38H153.039ZM157.845 366.206H164.397V367.394H149.781V366.206H156.369V364.676H151.743V359.798H162.507V360.986H153.219V363.488H162.669V364.676H157.845V366.206Z" fill="#090909"/>
<mask id="mask15_278_2144" style="mask-type:alpha" maskUnits="userSpaceOnUse" x="406" y="351" width="30" height="30">
<rect x="406" y="351" width="30" height="30" fill="#D9D9D9"/>
</mask>
<g mask="url(#mask15_278_2144)">
<path d="M428.265 372.611L415.64 360.01V371.625H414.39V357.875H428.14V359.125H416.524L429.125 371.75L428.265 372.611Z" fill="#1C1B1F"/>
</g>
<mask id="mask16_278_2144" style="mask-type:alpha" maskUnits="userSpaceOnUse" x="14" y="399" width="30" height="30">
<rect x="14" y="399" width="30" height="30" fill="#D9D9D9"/>
</mask>
<g mask="url(#mask16_278_2144)">
<path d="M38.3557 424.192L30.5288 416.365C29.9038 416.897 29.1851 417.309 28.3726 417.601C27.5601 417.892 26.7436 418.038 25.9232 418.038C23.9211 418.038 22.2266 417.345 20.8398 415.959C19.4531 414.573 18.7598 412.88 18.7598 410.879C18.7598 408.878 19.4528 407.183 20.8388 405.794C22.2249 404.406 23.9183 403.711 25.9191 403.711C27.9202 403.711 29.6151 404.405 31.0038 405.791C32.3924 407.178 33.0866 408.873 33.0866 410.875C33.0866 411.743 32.9328 412.584 32.6251 413.396C32.3174 414.209 31.9135 414.904 31.4135 415.48L39.2404 423.308L38.3557 424.192ZM25.9232 416.788C27.5817 416.788 28.982 416.217 30.1238 415.075C31.2657 413.934 31.8366 412.534 31.8366 410.875C31.8366 409.216 31.2657 407.816 30.1238 406.674C28.982 405.532 27.5817 404.961 25.9232 404.961C24.2645 404.961 22.8642 405.532 21.7226 406.674C20.5807 407.816 20.0098 409.216 20.0098 410.875C20.0098 412.534 20.5807 413.934 21.7226 415.075C22.8642 416.217 24.2645 416.788 25.9232 416.788Z" fill="#1C1B1F"/>
</g>
<path d="M75.906 422.234C74.268 422.234 73.044 421.226 73.044 419.462C73.044 417.338 74.898 416.276 79.056 415.808C79.056 414.548 78.642 413.342 77.04 413.342C75.906 413.342 74.88 413.864 74.106 414.386L73.458 413.252C74.358 412.676 75.744 411.974 77.31 411.974C79.686 411.974 80.694 413.576 80.694 415.988V422H79.344L79.2 420.83H79.146C78.21 421.604 77.112 422.234 75.906 422.234ZM76.374 420.92C77.328 420.92 78.102 420.47 79.056 419.624V416.888C75.762 417.284 74.646 418.094 74.646 419.354C74.646 420.47 75.402 420.92 76.374 420.92ZM86.0122 422.234C84.6262 422.234 83.2942 421.658 82.3582 420.884L83.1682 419.804C84.0142 420.488 84.8962 420.956 86.0662 420.956C87.3622 420.956 87.9922 420.272 87.9922 419.426C87.9922 418.418 86.8402 417.986 85.7602 417.572C84.3922 417.068 82.8982 416.402 82.8982 414.746C82.8982 413.198 84.1582 411.974 86.2822 411.974C87.4882 411.974 88.5502 412.478 89.3062 413.072L88.5142 414.134C87.8482 413.63 87.1642 413.27 86.3002 413.27C85.0582 413.27 84.4822 413.918 84.4822 414.674C84.4822 415.61 85.4902 415.952 86.5882 416.366C88.0102 416.906 89.5762 417.482 89.5762 419.336C89.5762 420.92 88.3162 422.234 86.0122 422.234ZM91.5161 422V412.226H92.8661L93.0101 413.648H93.0641C93.9101 412.712 94.9361 411.974 96.1061 411.974C97.6001 411.974 98.4101 412.694 98.8061 413.846C99.8141 412.748 100.84 411.974 102.028 411.974C104.044 411.974 104.998 413.306 104.998 415.808V422H103.36V416.024C103.36 414.188 102.784 413.414 101.542 413.414C100.786 413.414 99.9941 413.9 99.0761 414.908V422H97.4381V416.024C97.4381 414.188 96.8621 413.414 95.6201 413.414C94.8821 413.414 94.0541 413.9 93.1541 414.908V422H91.5161ZM107.82 422V412.226H109.17L109.314 414.008H109.368C110.052 412.766 111.042 411.974 112.14 411.974C112.572 411.974 112.878 412.028 113.184 412.19L112.878 413.63C112.554 413.504 112.32 413.468 111.924 413.468C111.114 413.468 110.106 414.044 109.458 415.718V422H107.82ZM123.126 408.59V411.488C123.126 414.44 125.052 417.41 127.446 418.49L126.564 419.678C124.728 418.778 123.18 416.87 122.406 414.566C121.668 416.996 120.12 419.012 118.23 419.984L117.33 418.778C119.706 417.644 121.668 414.548 121.668 411.488V408.59H123.126ZM129.138 407.186H130.614V423.368H129.138V407.186ZM134.303 408.212H141.737C141.737 412.298 138.893 415.196 134.177 416.492L133.565 415.322C137.489 414.26 139.883 412.154 140.153 409.418H134.303V408.212ZM135.635 418.58V417.392H146.129V423.332H144.653V418.58H135.635ZM148.523 411.272V412.496H146.129V416.654H144.653V407.168H146.129V411.272H148.523ZM159.321 415.07L158.583 416.222C156.783 415.574 155.397 414.242 154.677 412.568C153.993 414.422 152.517 415.898 150.627 416.6L149.853 415.43C152.247 414.584 153.921 412.424 153.921 410.138V409.49H150.321V408.284H158.943V409.49H155.397V410.138C155.397 412.208 156.981 414.242 159.321 415.07ZM152.301 418.922V417.734H163.101V423.35H161.607V418.922H152.301ZM161.607 407.186H163.101V416.852H161.607V412.604H158.457V411.398H161.607V407.186ZM182.911 407.204V417.194H181.435V407.204H182.911ZM179.581 414.404L179.743 415.574C177.385 415.97 175.423 416.042 171.895 416.042H170.581V408.374H178.285V409.562H172.057V411.578H177.835V412.748H172.057V414.854C175.423 414.854 177.331 414.782 179.581 414.404ZM177.547 422.162C180.013 422.162 181.507 421.496 181.507 420.38C181.507 419.228 180.013 418.58 177.547 418.58C175.099 418.58 173.605 419.228 173.605 420.38C173.605 421.496 175.099 422.162 177.547 422.162ZM177.547 417.428C180.913 417.428 182.965 418.49 182.965 420.38C182.965 422.252 180.913 423.314 177.547 423.314C174.199 423.314 172.147 422.252 172.147 420.38C172.147 418.49 174.199 417.428 177.547 417.428ZM189.102 420.074V421.964H199.074V423.134H187.644V418.958H197.202V417.176H187.59V416.006H198.678V420.074H189.102ZM198.264 413.198H200.514V414.386H185.862V413.198H196.788C197.148 411.416 197.166 410.12 197.166 409.058H187.734V407.87H198.624V408.896C198.624 409.994 198.624 411.38 198.264 413.198Z" fill="#090909"/>
<mask id="mask17_278_2144" style="mask-type:alpha" maskUnits="userSpaceOnUse" x="406" y="399" width="30" height="30">
<rect x="406" y="399" width="30" height="30" fill="#D9D9D9"/>
</mask>
<g mask="url(#mask17_278_2144)">
<path d="M428.265 420.611L415.64 408.01V419.625H414.39V405.875H428.14V407.125H416.524L429.125 419.75L428.265 420.611Z" fill="#1C1B1F"/>
</g>
<mask id="mask18_278_2144" style="mask-type:alpha" maskUnits="userSpaceOnUse" x="14" y="447" width="30" height="30">
<rect x="14" y="447" width="30" height="30" fill="#D9D9D9"/>
</mask>
<g mask="url(#mask18_278_2144)">
<path d="M38.3557 472.192L30.5288 464.365C29.9038 464.897 29.1851 465.309 28.3726 465.601C27.5601 465.892 26.7436 466.038 25.9232 466.038C23.9211 466.038 22.2266 465.345 20.8398 463.959C19.4531 462.573 18.7598 460.88 18.7598 458.879C18.7598 456.878 19.4528 455.183 20.8388 453.794C22.2249 452.406 23.9183 451.711 25.9191 451.711C27.9202 451.711 29.6151 452.405 31.0038 453.791C32.3924 455.178 33.0866 456.873 33.0866 458.875C33.0866 459.743 32.9328 460.584 32.6251 461.396C32.3174 462.209 31.9135 462.904 31.4135 463.48L39.2404 471.308L38.3557 472.192ZM25.9232 464.788C27.5817 464.788 28.982 464.217 30.1238 463.075C31.2657 461.934 31.8366 460.534 31.8366 458.875C31.8366 457.216 31.2657 455.816 30.1238 454.674C28.982 453.532 27.5817 452.961 25.9232 452.961C24.2645 452.961 22.8642 453.532 21.7226 454.674C20.5807 455.816 20.0098 457.216 20.0098 458.875C20.0098 460.534 20.5807 461.934 21.7226 463.075C22.8642 464.217 24.2645 464.788 25.9232 464.788Z" fill="#1C1B1F"/>
</g>
<path d="M75.906 470.234C74.268 470.234 73.044 469.226 73.044 467.462C73.044 465.338 74.898 464.276 79.056 463.808C79.056 462.548 78.642 461.342 77.04 461.342C75.906 461.342 74.88 461.864 74.106 462.386L73.458 461.252C74.358 460.676 75.744 459.974 77.31 459.974C79.686 459.974 80.694 461.576 80.694 463.988V470H79.344L79.2 468.83H79.146C78.21 469.604 77.112 470.234 75.906 470.234ZM76.374 468.92C77.328 468.92 78.102 468.47 79.056 467.624V464.888C75.762 465.284 74.646 466.094 74.646 467.354C74.646 468.47 75.402 468.92 76.374 468.92ZM86.0122 470.234C84.6262 470.234 83.2942 469.658 82.3582 468.884L83.1682 467.804C84.0142 468.488 84.8962 468.956 86.0662 468.956C87.3622 468.956 87.9922 468.272 87.9922 467.426C87.9922 466.418 86.8402 465.986 85.7602 465.572C84.3922 465.068 82.8982 464.402 82.8982 462.746C82.8982 461.198 84.1582 459.974 86.2822 459.974C87.4882 459.974 88.5502 460.478 89.3062 461.072L88.5142 462.134C87.8482 461.63 87.1642 461.27 86.3002 461.27C85.0582 461.27 84.4822 461.918 84.4822 462.674C84.4822 463.61 85.4902 463.952 86.5882 464.366C88.0102 464.906 89.5762 465.482 89.5762 467.336C89.5762 468.92 88.3162 470.234 86.0122 470.234ZM91.5161 470V460.226H92.8661L93.0101 461.648H93.0641C93.9101 460.712 94.9361 459.974 96.1061 459.974C97.6001 459.974 98.4101 460.694 98.8061 461.846C99.8141 460.748 100.84 459.974 102.028 459.974C104.044 459.974 104.998 461.306 104.998 463.808V470H103.36V464.024C103.36 462.188 102.784 461.414 101.542 461.414C100.786 461.414 99.9941 461.9 99.0761 462.908V470H97.4381V464.024C97.4381 462.188 96.8621 461.414 95.6201 461.414C94.8821 461.414 94.0541 461.9 93.1541 462.908V470H91.5161ZM107.82 470V460.226H109.17L109.314 462.008H109.368C110.052 460.766 111.042 459.974 112.14 459.974C112.572 459.974 112.878 460.028 113.184 460.19L112.878 461.63C112.554 461.504 112.32 461.468 111.924 461.468C111.114 461.468 110.106 462.044 109.458 463.718V470H107.82ZM120.642 468.578V470.072H130.722V471.152H119.184V467.552H128.76V466.202H119.148V465.14H130.218V468.578H120.642ZM125.466 462.782H132.036V463.898H117.384V462.782H123.972V461.468H119.274V457.994H128.706V456.68H119.238V455.636H130.164V459.002H120.732V460.406H130.452V461.468H125.466V462.782ZM142.889 459.902V456.824H138.875V459.902H142.889ZM137.399 459.902V456.824H134.951V455.69H146.795V456.824H144.365V459.902H146.741V461.036H135.005V459.902H137.399ZM136.841 468.524V470.036H146.813V471.152H135.401V467.462H144.869V466.076H135.347V464.978H146.327V468.524H136.841ZM133.583 462.386H148.199V463.556H133.583V462.386ZM151.761 462.566V466.13C153.597 466.13 155.343 466.058 157.413 465.698L157.539 466.904C155.289 467.282 153.453 467.372 151.401 467.372H150.339V461.396H154.659V458.174H150.285V456.968H156.081V462.566H151.761ZM158.835 460.982V455.582H160.221V470.486H158.835V462.206H156.837V460.982H158.835ZM162.093 455.186H163.515V471.332H162.093V455.186ZM177.734 455.186H179.21V471.368H177.734V455.186ZM170.696 456.428C173.09 456.428 174.8 458.624 174.8 462.062C174.8 465.5 173.09 467.696 170.696 467.696C168.302 467.696 166.592 465.5 166.592 462.062C166.592 458.624 168.302 456.428 170.696 456.428ZM170.696 457.76C169.112 457.76 167.996 459.452 167.996 462.062C167.996 464.69 169.112 466.382 170.696 466.382C172.262 466.382 173.378 464.69 173.378 462.062C173.378 459.452 172.262 457.76 170.696 457.76Z" fill="#090909"/>
<mask id="mask19_278_2144" style="mask-type:alpha" maskUnits="userSpaceOnUse" x="406" y="447" width="30" height="30">
<rect x="406" y="447" width="30" height="30" fill="#D9D9D9"/>
</mask>
<g mask="url(#mask19_278_2144)">
<path d="M428.265 468.611L415.64 456.01V467.625H414.39V453.875H428.14V455.125H416.524L429.125 467.75L428.265 468.611Z" fill="#1C1B1F"/>
</g>
<mask id="mask20_278_2144" style="mask-type:alpha" maskUnits="userSpaceOnUse" x="14" y="495" width="30" height="30">
<rect x="14" y="495" width="30" height="30" fill="#D9D9D9"/>
</mask>
<g mask="url(#mask20_278_2144)">
<path d="M38.3557 520.192L30.5288 512.365C29.9038 512.897 29.1851 513.309 28.3726 513.601C27.5601 513.892 26.7436 514.038 25.9232 514.038C23.9211 514.038 22.2266 513.345 20.8398 511.959C19.4531 510.573 18.7598 508.88 18.7598 506.879C18.7598 504.878 19.4528 503.183 20.8388 501.794C22.2249 500.406 23.9183 499.711 25.9191 499.711C27.9202 499.711 29.6151 500.405 31.0038 501.791C32.3924 503.178 33.0866 504.873 33.0866 506.875C33.0866 507.743 32.9328 508.584 32.6251 509.396C32.3174 510.209 31.9135 510.904 31.4135 511.48L39.2404 519.308L38.3557 520.192ZM25.9232 512.788C27.5817 512.788 28.982 512.217 30.1238 511.075C31.2657 509.934 31.8366 508.534 31.8366 506.875C31.8366 505.216 31.2657 503.816 30.1238 502.674C28.982 501.532 27.5817 500.961 25.9232 500.961C24.2645 500.961 22.8642 501.532 21.7226 502.674C20.5807 503.816 20.0098 505.216 20.0098 506.875C20.0098 508.534 20.5807 509.934 21.7226 511.075C22.8642 512.217 24.2645 512.788 25.9232 512.788Z" fill="#1C1B1F"/>
</g>
<path d="M75.906 518.234C74.268 518.234 73.044 517.226 73.044 515.462C73.044 513.338 74.898 512.276 79.056 511.808C79.056 510.548 78.642 509.342 77.04 509.342C75.906 509.342 74.88 509.864 74.106 510.386L73.458 509.252C74.358 508.676 75.744 507.974 77.31 507.974C79.686 507.974 80.694 509.576 80.694 511.988V518H79.344L79.2 516.83H79.146C78.21 517.604 77.112 518.234 75.906 518.234ZM76.374 516.92C77.328 516.92 78.102 516.47 79.056 515.624V512.888C75.762 513.284 74.646 514.094 74.646 515.354C74.646 516.47 75.402 516.92 76.374 516.92ZM86.0122 518.234C84.6262 518.234 83.2942 517.658 82.3582 516.884L83.1682 515.804C84.0142 516.488 84.8962 516.956 86.0662 516.956C87.3622 516.956 87.9922 516.272 87.9922 515.426C87.9922 514.418 86.8402 513.986 85.7602 513.572C84.3922 513.068 82.8982 512.402 82.8982 510.746C82.8982 509.198 84.1582 507.974 86.2822 507.974C87.4882 507.974 88.5502 508.478 89.3062 509.072L88.5142 510.134C87.8482 509.63 87.1642 509.27 86.3002 509.27C85.0582 509.27 84.4822 509.918 84.4822 510.674C84.4822 511.61 85.4902 511.952 86.5882 512.366C88.0102 512.906 89.5762 513.482 89.5762 515.336C89.5762 516.92 88.3162 518.234 86.0122 518.234ZM91.5161 518V508.226H92.8661L93.0101 509.648H93.0641C93.9101 508.712 94.9361 507.974 96.1061 507.974C97.6001 507.974 98.4101 508.694 98.8061 509.846C99.8141 508.748 100.84 507.974 102.028 507.974C104.044 507.974 104.998 509.306 104.998 511.808V518H103.36V512.024C103.36 510.188 102.784 509.414 101.542 509.414C100.786 509.414 99.9941 509.9 99.0761 510.908V518H97.4381V512.024C97.4381 510.188 96.8621 509.414 95.6201 509.414C94.8821 509.414 94.0541 509.9 93.1541 510.908V518H91.5161ZM107.82 518V508.226H109.17L109.314 510.008H109.368C110.052 508.766 111.042 507.974 112.14 507.974C112.572 507.974 112.878 508.028 113.184 508.19L112.878 509.63C112.554 509.504 112.32 509.468 111.924 509.468C111.114 509.468 110.106 510.044 109.458 511.718V518H107.82ZM130.65 503.204V513.194H129.174V503.204H130.65ZM127.32 510.404L127.482 511.574C125.124 511.97 123.162 512.042 119.634 512.042H118.32V504.374H126.024V505.562H119.796V507.578H125.574V508.748H119.796V510.854C123.162 510.854 125.07 510.782 127.32 510.404ZM125.286 518.162C127.752 518.162 129.246 517.496 129.246 516.38C129.246 515.228 127.752 514.58 125.286 514.58C122.838 514.58 121.344 515.228 121.344 516.38C121.344 517.496 122.838 518.162 125.286 518.162ZM125.286 513.428C128.652 513.428 130.704 514.49 130.704 516.38C130.704 518.252 128.652 519.314 125.286 519.314C121.938 519.314 119.886 518.252 119.886 516.38C119.886 514.49 121.938 513.428 125.286 513.428ZM136.841 516.074V517.964H146.813V519.134H135.383V514.958H144.941V513.176H135.329V512.006H146.417V516.074H136.841ZM146.003 509.198H148.253V510.386H133.601V509.198H144.527C144.887 507.416 144.905 506.12 144.905 505.058H135.473V503.87H146.363V504.896C146.363 505.994 146.363 507.38 146.003 509.198ZM163.047 503.204V514.994H161.571V503.204H163.047ZM151.617 508.28C151.617 509.882 152.805 510.998 154.371 510.998C155.973 510.998 157.161 509.882 157.161 508.28C157.161 506.714 155.973 505.598 154.371 505.598C152.805 505.598 151.617 506.714 151.617 508.28ZM158.601 508.28C158.601 510.62 156.783 512.276 154.371 512.276C151.977 512.276 150.177 510.62 150.177 508.28C150.177 505.958 151.977 504.32 154.371 504.32C156.783 504.32 158.601 505.958 158.601 508.28ZM154.137 517.766H163.533V518.972H152.661V513.788H154.137V517.766ZM168.212 510.386V514.256C171.128 514.256 173 514.148 175.196 513.752L175.358 514.958C173.018 515.372 171.056 515.462 167.978 515.462H166.736V504.644H174.206V505.868H168.212V509.198H173.504V510.386H168.212ZM177.824 503.168H179.3V519.35H177.824V510.494H174.494V509.27H177.824V503.168ZM193.5 509.504V507.164H185.49V509.504H193.5ZM194.976 503.816V510.692H184.032V503.816H185.49V505.976H193.5V503.816H194.976ZM196.83 512.618V513.824H193.122V519.332H191.646V513.824H187.344V519.332H185.868V513.824H182.178V512.618H196.83Z" fill="#090909"/>
<mask id="mask21_278_2144" style="mask-type:alpha" maskUnits="userSpaceOnUse" x="406" y="495" width="30" height="30">
<rect x="406" y="495" width="30" height="30" fill="#D9D9D9"/>
</mask>
<g mask="url(#mask21_278_2144)">
<path d="M428.265 516.611L415.64 504.01V515.625H414.39V501.875H428.14V503.125H416.524L429.125 515.75L428.265 516.611Z" fill="#1C1B1F"/>
</g>
</svg>
