<svg width="450" height="851" viewBox="0 0 450 851" fill="none" xmlns="http://www.w3.org/2000/svg">
<rect width="450" height="851" fill="white"/>
<rect width="450" height="54" fill="white"/>
<mask id="mask0_278_1792" style="mask-type:alpha" maskUnits="userSpaceOnUse" x="14" y="14" width="26" height="26">
<rect x="14" y="14" width="26" height="26" fill="#D9D9D9"/>
</mask>
<g mask="url(#mask0_278_1792)">
<path d="M21.9874 27.8125L28.1584 33.9834L27 35.125L18.875 27L27 18.875L28.1584 20.0166L21.9874 26.1875H35.125V27.8125H21.9874Z" fill="#090909"/>
</g>
<rect x="56" y="10" width="338" height="34" rx="17" fill="#F2F2F2"/>
<path d="M73.942 35V29.888L69.982 21.806H71.746L73.456 25.532C73.672 26.024 73.882 26.504 74.086 26.972C74.29 27.44 74.512 27.926 74.752 28.43H74.824C75.064 27.926 75.292 27.44 75.508 26.972C75.724 26.504 75.94 26.024 76.156 25.532L77.848 21.806H79.576L75.598 29.888V35H73.942ZM83.7776 35.234C82.9856 35.234 82.2416 35.036 81.5456 34.64C80.8496 34.232 80.2916 33.65 79.8716 32.894C79.4636 32.126 79.2596 31.202 79.2596 30.122C79.2596 29.03 79.4636 28.106 79.8716 27.35C80.2916 26.582 80.8496 25.994 81.5456 25.586C82.2416 25.178 82.9856 24.974 83.7776 24.974C84.3776 24.974 84.9476 25.088 85.4876 25.316C86.0396 25.544 86.5256 25.88 86.9456 26.324C87.3656 26.768 87.6956 27.308 87.9356 27.944C88.1756 28.58 88.2956 29.306 88.2956 30.122C88.2956 31.202 88.0856 32.126 87.6656 32.894C87.2456 33.65 86.6936 34.232 86.0096 34.64C85.3256 35.036 84.5816 35.234 83.7776 35.234ZM83.7776 33.866C84.3416 33.866 84.8336 33.71 85.2536 33.398C85.6856 33.086 86.0216 32.648 86.2616 32.084C86.5016 31.52 86.6216 30.866 86.6216 30.122C86.6216 29.366 86.5016 28.706 86.2616 28.142C86.0216 27.578 85.6856 27.14 85.2536 26.828C84.8336 26.516 84.3416 26.36 83.7776 26.36C83.2136 26.36 82.7156 26.516 82.2836 26.828C81.8636 27.14 81.5336 27.578 81.2936 28.142C81.0656 28.706 80.9516 29.366 80.9516 30.122C80.9516 30.866 81.0656 31.52 81.2936 32.084C81.5336 32.648 81.8636 33.086 82.2836 33.398C82.7156 33.71 83.2136 33.866 83.7776 33.866ZM93.3976 35.234C92.3656 35.234 91.6036 34.91 91.1116 34.262C90.6316 33.614 90.3916 32.666 90.3916 31.418V25.226H92.0476V31.22C92.0476 32.12 92.1916 32.78 92.4796 33.2C92.7676 33.608 93.2356 33.812 93.8836 33.812C94.3876 33.812 94.8376 33.68 95.2336 33.416C95.6296 33.152 96.0616 32.732 96.5296 32.156V25.226H98.1676V35H96.7996L96.6736 33.47H96.6196C96.1636 33.998 95.6776 34.424 95.1616 34.748C94.6576 35.072 94.0696 35.234 93.3976 35.234ZM103.55 35V23.21H99.5542V21.806H109.22V23.21H105.224V35H103.55ZM112.945 35.234C111.913 35.234 111.151 34.91 110.659 34.262C110.179 33.614 109.939 32.666 109.939 31.418V25.226H111.595V31.22C111.595 32.12 111.739 32.78 112.027 33.2C112.315 33.608 112.783 33.812 113.431 33.812C113.935 33.812 114.385 33.68 114.781 33.416C115.177 33.152 115.609 32.732 116.077 32.156V25.226H117.715V35H116.347L116.221 33.47H116.167C115.711 33.998 115.225 34.424 114.709 34.748C114.205 35.072 113.617 35.234 112.945 35.234ZM124.959 35.234C124.515 35.234 124.047 35.126 123.555 34.91C123.063 34.694 122.607 34.388 122.187 33.992H122.115L121.971 35H120.657V20.672H122.313V24.596L122.241 26.342C122.685 25.958 123.171 25.634 123.699 25.37C124.227 25.106 124.767 24.974 125.319 24.974C126.159 24.974 126.867 25.184 127.443 25.604C128.019 26.012 128.457 26.588 128.757 27.332C129.057 28.076 129.207 28.952 129.207 29.96C129.207 31.064 129.003 32.012 128.595 32.804C128.199 33.596 127.677 34.202 127.029 34.622C126.393 35.03 125.703 35.234 124.959 35.234ZM124.689 33.848C125.229 33.848 125.709 33.698 126.129 33.398C126.561 33.086 126.897 32.642 127.137 32.066C127.377 31.478 127.497 30.782 127.497 29.978C127.497 29.258 127.407 28.628 127.227 28.088C127.059 27.536 126.789 27.11 126.417 26.81C126.045 26.51 125.541 26.36 124.905 26.36C124.497 26.36 124.077 26.474 123.645 26.702C123.213 26.93 122.769 27.26 122.313 27.692V32.84C122.733 33.212 123.153 33.476 123.573 33.632C124.005 33.776 124.377 33.848 124.689 33.848ZM135.384 35.234C134.508 35.234 133.716 35.03 133.008 34.622C132.3 34.214 131.736 33.632 131.316 32.876C130.908 32.108 130.704 31.19 130.704 30.122C130.704 29.318 130.824 28.604 131.064 27.98C131.304 27.344 131.628 26.804 132.036 26.36C132.456 25.904 132.93 25.562 133.458 25.334C133.986 25.094 134.526 24.974 135.078 24.974C135.918 24.974 136.626 25.16 137.202 25.532C137.778 25.904 138.216 26.438 138.516 27.134C138.828 27.818 138.984 28.628 138.984 29.564C138.984 29.744 138.978 29.912 138.966 30.068C138.954 30.224 138.936 30.368 138.912 30.5H132.324C132.36 31.196 132.516 31.802 132.792 32.318C133.08 32.822 133.458 33.218 133.926 33.506C134.394 33.782 134.94 33.92 135.564 33.92C136.044 33.92 136.476 33.854 136.86 33.722C137.256 33.578 137.64 33.386 138.012 33.146L138.588 34.244C138.168 34.52 137.694 34.754 137.166 34.946C136.638 35.138 136.044 35.234 135.384 35.234ZM132.306 29.33H137.544C137.544 28.346 137.328 27.596 136.896 27.08C136.476 26.552 135.882 26.288 135.114 26.288C134.658 26.288 134.226 26.408 133.818 26.648C133.422 26.888 133.086 27.23 132.81 27.674C132.546 28.118 132.378 28.67 132.306 29.33ZM150.708 21.176H152.274C152.274 22.532 151.968 23.762 151.356 24.866C150.744 25.958 149.874 26.894 148.746 27.674C147.63 28.454 146.292 29.072 144.732 29.528L144.12 28.358C145.488 27.962 146.664 27.446 147.648 26.81C148.632 26.174 149.388 25.436 149.916 24.596C150.444 23.744 150.708 22.814 150.708 21.806V21.176ZM144.948 21.176H151.716V22.382H144.948V21.176ZM155.838 20.132H157.332V29.402H155.838V20.132ZM152.31 24.308H156.108V25.55H152.31V24.308ZM146.838 30.104H157.332V36.17H146.838V30.104ZM155.856 31.292H148.296V34.964H155.856V31.292ZM163.541 21.104H164.729V23.264C164.729 24.08 164.579 24.89 164.279 25.694C163.991 26.498 163.565 27.224 163.001 27.872C162.437 28.52 161.753 29.024 160.949 29.384L160.139 28.214C160.847 27.89 161.453 27.458 161.957 26.918C162.473 26.378 162.863 25.79 163.127 25.154C163.403 24.518 163.541 23.888 163.541 23.264V21.104ZM163.793 21.104H164.981V23.264C164.981 23.876 165.107 24.482 165.359 25.082C165.623 25.67 166.001 26.204 166.493 26.684C166.985 27.164 167.573 27.542 168.257 27.818L167.465 28.97C166.685 28.646 166.019 28.19 165.467 27.602C164.915 27.014 164.495 26.348 164.207 25.604C163.931 24.86 163.793 24.08 163.793 23.264V21.104ZM172.433 20.132H173.855V29.96H172.433V20.132ZM169.805 24.362H172.865V25.604H169.805V24.362ZM168.941 20.42H170.345V29.87H168.941V20.42ZM162.947 30.86H173.855V36.404H172.379V32.084H162.947V30.86Z" fill="#626262"/>
<rect x="402" y="10" width="34" height="34" rx="17" fill="#F2F2F2"/>
<path d="M419 29C420.66 29 421.99 27.66 421.99 26L422 20C422 18.34 420.66 17 419 17C417.34 17 416 18.34 416 20V26C416 27.66 417.34 29 419 29ZM424.3 26C424.3 29 421.76 31.1 419 31.1C416.24 31.1 413.7 29 413.7 26H412C412 29.41 414.72 32.23 418 32.72V36H420V32.72C423.28 32.24 426 29.42 426 26H424.3Z" fill="#090909"/>
<rect width="450" height="44" transform="translate(0 489)" fill="#E8EAED"/>
<g filter="url(#filter0_d_278_1792)">
<rect x="12" y="496" width="30" height="30" rx="15" fill="white"/>
<path d="M30.41 506.41L29 505L23 511L29 517L30.41 515.59L25.83 511L30.41 506.41Z" fill="#666666"/>
</g>
<path d="M83.0463 502.5C81.3973 502.5 80.0713 503.826 80.0713 505.475V516.525C80.0713 518.174 81.3973 519.5 83.0463 519.5H91.9713L97.0713 514.4V505.475C97.0713 503.826 95.7453 502.5 94.0963 502.5H83.0463ZM83.2588 504.2H93.8838C94.2783 504.2 94.6566 504.357 94.9356 504.636C95.2146 504.915 95.3713 505.293 95.3713 505.688V513.55H94.0963C92.4473 513.55 91.1213 514.876 91.1213 516.525V517.8H83.2588C82.8643 517.8 82.4859 517.643 82.207 517.364C81.928 517.085 81.7713 516.707 81.7713 516.312V505.688C81.7713 505.293 81.928 504.915 82.207 504.636C82.4859 504.357 82.8643 504.2 83.2588 504.2ZM90.6453 506.555C90.5093 506.555 90.3733 506.571 90.2458 506.606C89.4468 506.826 88.9963 507.642 89.2003 508.45C89.2428 508.578 89.3023 508.705 89.3788 508.824L92.1243 508.076C92.1243 507.932 92.1073 507.787 92.0733 507.643C91.8948 507.005 91.3083 506.555 90.6453 506.555ZM85.3158 508.025C85.1713 508.025 85.0438 508.025 84.9163 508.068C84.1258 508.289 83.6583 509.104 83.8708 509.895C83.8963 510.031 83.9728 510.15 84.0493 510.286L86.7948 509.538C86.7948 509.393 86.7778 509.249 86.7438 509.113C86.5653 508.45 85.9788 508.025 85.3158 508.025ZM92.5833 510.371L84.8228 512.505C85.9448 513.805 87.7213 514.349 89.3788 513.899C91.0363 513.439 92.2773 512.062 92.5833 510.371Z" fill="#5D5E5F"/>
<g clip-path="url(#clip0_278_1792)">
<path d="M149.285 506H151.857V516H149.285V506ZM145 506H139.857C138.828 506 138.143 506.833 138.143 507.667V514.333C138.143 515.167 138.828 516 139.857 516H145C146.028 516 146.714 515.167 146.714 514.333V511H144.143V513.5H140.714V508.5H146.714V507.667C146.714 506.833 146.028 506 145 506ZM162.143 508.5V506H154.428V516H157V512.667H160.428V510.167H157V508.5H162.143Z" fill="#5D5E5F"/>
</g>
<path d="M215.214 509.409L208.714 509.408V511.075L215.214 511.076V509.409Z" fill="#5D5E5F"/>
<path d="M208.714 512.333L215.214 512.333V514L208.714 513.999V512.333Z" fill="#5D5E5F"/>
<path d="M213.214 515.333L208.714 515.333V516.999L213.214 517V515.333Z" fill="#5D5E5F"/>
<path fill-rule="evenodd" clip-rule="evenodd" d="M214.064 503.227H217.547C218.464 503.227 219.214 504.004 219.214 504.955V518.773C219.214 519.723 218.464 520.5 217.547 520.5H205.88C204.964 520.5 204.214 519.723 204.214 518.773V504.955C204.214 504.004 204.964 503.227 205.88 503.227H209.364C209.714 502.226 210.63 501.5 211.714 501.5C212.797 501.5 213.714 502.226 214.064 503.227ZM212.547 504.091C212.547 503.616 212.172 503.227 211.714 503.227C211.255 503.227 210.88 503.616 210.88 504.091C210.88 504.566 211.255 504.955 211.714 504.955C211.992 504.955 212.24 504.811 212.392 504.592C212.439 504.523 212.477 504.448 212.503 504.367C212.52 504.317 212.532 504.266 212.539 504.212C212.544 504.172 212.547 504.132 212.547 504.091ZM205.88 504.955V518.773H217.547V504.955H215.88V507.545H207.547V504.955H205.88Z" fill="#5D5E5F"/>
<path d="M280.426 511.94C280.466 511.64 280.486 511.33 280.486 511C280.486 510.68 280.466 510.36 280.416 510.06L282.446 508.48C282.626 508.34 282.676 508.07 282.566 507.87L280.646 504.55C280.526 504.33 280.276 504.26 280.056 504.33L277.666 505.29C277.166 504.91 276.636 504.59 276.046 504.35L275.686 501.81C275.646 501.57 275.446 501.4 275.206 501.4H271.366C271.126 501.4 270.936 501.57 270.896 501.81L270.536 504.35C269.946 504.59 269.406 504.92 268.916 505.29L266.526 504.33C266.306 504.25 266.056 504.33 265.936 504.55L264.026 507.87C263.906 508.08 263.946 508.34 264.146 508.48L266.176 510.06C266.126 510.36 266.086 510.69 266.086 511C266.086 511.31 266.106 511.64 266.156 511.94L264.126 513.52C263.946 513.66 263.896 513.93 264.006 514.13L265.926 517.45C266.046 517.67 266.296 517.74 266.516 517.67L268.906 516.71C269.406 517.09 269.936 517.41 270.526 517.65L270.886 520.19C270.936 520.43 271.126 520.6 271.366 520.6H275.206C275.446 520.6 275.646 520.43 275.676 520.19L276.036 517.65C276.626 517.41 277.166 517.09 277.656 516.71L280.046 517.67C280.266 517.75 280.516 517.67 280.636 517.45L282.556 514.13C282.676 513.91 282.626 513.66 282.436 513.52L280.426 511.94ZM273.286 514.6C271.306 514.6 269.686 512.98 269.686 511C269.686 509.02 271.306 507.4 273.286 507.4C275.266 507.4 276.886 509.02 276.886 511C276.886 512.98 275.266 514.6 273.286 514.6Z" fill="#5D5E5F"/>
<path d="M319.857 500L319.857 522" stroke="#CCCED5"/>
<path d="M360.429 509C359.329 509 358.429 509.9 358.429 511C358.429 512.1 359.329 513 360.429 513C361.529 513 362.429 512.1 362.429 511C362.429 509.9 361.529 509 360.429 509ZM372.429 509C371.329 509 370.429 509.9 370.429 511C370.429 512.1 371.329 513 372.429 513C373.529 513 374.429 512.1 374.429 511C374.429 509.9 373.529 509 372.429 509ZM366.429 509C365.329 509 364.429 509.9 364.429 511C364.429 512.1 365.329 513 366.429 513C367.529 513 368.429 512.1 368.429 511C368.429 509.9 367.529 509 366.429 509Z" fill="#666666"/>
<path d="M428 513C429.66 513 430.99 511.66 430.99 510L431 504C431 502.34 429.66 501 428 501C426.34 501 425 502.34 425 504V510C425 511.66 426.34 513 428 513ZM433.3 510C433.3 513 430.76 515.1 428 515.1C425.24 515.1 422.7 513 422.7 510H421C421 513.41 423.72 516.23 427 516.72V520H429V516.72C432.28 516.24 435 513.42 435 510H433.3Z" fill="#454647"/>
<rect width="450" height="248" transform="translate(0 533)" fill="#E8EAED"/>
<g filter="url(#filter1_d_278_1792)">
<rect x="4" y="537" width="40.6" height="40" rx="6" fill="white"/>
<path d="M26.0183 549.559V566H23.9406V552.153L19.7517 553.68V551.805L25.6926 549.559H26.0183Z" fill="black"/>
</g>
<g filter="url(#filter2_d_278_1792)">
<rect x="48.5996" y="537" width="40.6" height="40" rx="6" fill="white"/>
<path d="M74.5036 564.293V566H63.801V564.506L69.1579 558.543C69.8168 557.809 70.3259 557.188 70.6853 556.679C71.0521 556.162 71.3067 555.702 71.4489 555.297C71.5987 554.886 71.6735 554.466 71.6735 554.04C71.6735 553.5 71.5612 553.014 71.3366 552.58C71.1195 552.138 70.7976 551.786 70.3708 551.524C69.944 551.262 69.4274 551.131 68.821 551.131C68.0948 551.131 67.4883 551.273 67.0017 551.558C66.5225 551.835 66.1631 552.224 65.9235 552.726C65.684 553.227 65.5642 553.804 65.5642 554.455H63.4865C63.4865 553.534 63.6887 552.692 64.093 551.928C64.4973 551.165 65.0962 550.558 65.8898 550.109C66.6835 549.652 67.6605 549.424 68.821 549.424C69.8542 549.424 70.7377 549.607 71.4714 549.974C72.2051 550.333 72.7666 550.843 73.156 551.501C73.5528 552.153 73.7512 552.917 73.7512 553.792C73.7512 554.272 73.6688 554.758 73.5041 555.252C73.3469 555.739 73.126 556.226 72.8415 556.712C72.5645 557.199 72.2388 557.678 71.8645 558.15C71.4976 558.622 71.1045 559.086 70.6853 559.542L66.3054 564.293H74.5036Z" fill="black"/>
</g>
<g filter="url(#filter3_d_278_1792)">
<rect x="93.2002" y="537" width="40.6" height="40" rx="6" fill="white"/>
<path d="M111.423 556.802H112.905C113.631 556.802 114.23 556.682 114.702 556.443C115.181 556.196 115.537 555.863 115.769 555.443C116.008 555.017 116.128 554.537 116.128 554.006C116.128 553.377 116.023 552.849 115.814 552.422C115.604 551.996 115.29 551.674 114.87 551.457C114.451 551.239 113.919 551.131 113.276 551.131C112.692 551.131 112.175 551.247 111.726 551.479C111.284 551.704 110.936 552.026 110.681 552.445C110.434 552.864 110.311 553.358 110.311 553.927H108.233C108.233 553.096 108.443 552.34 108.862 551.659C109.281 550.977 109.869 550.435 110.625 550.03C111.389 549.626 112.272 549.424 113.276 549.424C114.264 549.424 115.129 549.6 115.87 549.952C116.611 550.296 117.188 550.813 117.599 551.501C118.011 552.183 118.217 553.033 118.217 554.051C118.217 554.463 118.12 554.904 117.925 555.376C117.738 555.84 117.442 556.274 117.038 556.679C116.641 557.083 116.124 557.416 115.488 557.678C114.852 557.933 114.088 558.06 113.197 558.06H111.423V556.802ZM111.423 558.509V557.263H113.197C114.238 557.263 115.099 557.386 115.78 557.633C116.461 557.88 116.997 558.21 117.386 558.622C117.783 559.033 118.06 559.486 118.217 559.98C118.382 560.467 118.464 560.954 118.464 561.44C118.464 562.204 118.333 562.882 118.071 563.473C117.816 564.065 117.453 564.566 116.982 564.978C116.517 565.39 115.971 565.701 115.342 565.91C114.713 566.12 114.028 566.225 113.287 566.225C112.576 566.225 111.905 566.124 111.277 565.921C110.655 565.719 110.105 565.427 109.626 565.045C109.147 564.656 108.772 564.181 108.503 563.619C108.233 563.05 108.098 562.403 108.098 561.676H110.176C110.176 562.245 110.3 562.743 110.547 563.17C110.801 563.597 111.161 563.93 111.625 564.169C112.096 564.402 112.65 564.518 113.287 564.518C113.923 564.518 114.47 564.409 114.926 564.192C115.391 563.967 115.746 563.63 115.993 563.181C116.248 562.732 116.375 562.167 116.375 561.485C116.375 560.804 116.233 560.246 115.948 559.812C115.664 559.37 115.26 559.045 114.736 558.835C114.219 558.618 113.609 558.509 112.905 558.509H111.423Z" fill="black"/>
</g>
<g filter="url(#filter4_d_278_1792)">
<rect x="137.8" y="537" width="40.6" height="40" rx="6" fill="white"/>
<path d="M164.041 560.497V562.204H152.226V560.98L159.549 549.648H161.244L159.425 552.928L154.585 560.497H164.041ZM161.761 549.648V566H159.683V549.648H161.761Z" fill="black"/>
</g>
<g filter="url(#filter5_d_278_1792)">
<rect x="182.4" y="537" width="40.6" height="40" rx="6" fill="white"/>
<path d="M200.218 558.217L198.556 557.791L199.376 549.648H207.765V551.569H201.139L200.645 556.016C200.945 555.844 201.323 555.683 201.779 555.533C202.244 555.383 202.775 555.309 203.374 555.309C204.13 555.309 204.808 555.44 205.407 555.702C206.006 555.956 206.515 556.323 206.934 556.802C207.361 557.281 207.687 557.858 207.911 558.532C208.136 559.206 208.248 559.958 208.248 560.789C208.248 561.575 208.14 562.298 207.923 562.957C207.713 563.615 207.395 564.192 206.968 564.686C206.541 565.173 206.002 565.551 205.351 565.82C204.707 566.09 203.947 566.225 203.071 566.225C202.412 566.225 201.787 566.135 201.196 565.955C200.612 565.768 200.087 565.487 199.623 565.113C199.167 564.731 198.792 564.259 198.5 563.698C198.216 563.129 198.036 562.462 197.961 561.699H199.938C200.028 562.313 200.207 562.829 200.477 563.249C200.746 563.668 201.098 563.986 201.532 564.203C201.974 564.413 202.487 564.518 203.071 564.518C203.565 564.518 204.003 564.431 204.385 564.259C204.767 564.087 205.089 563.84 205.351 563.518C205.613 563.196 205.811 562.807 205.946 562.35C206.088 561.893 206.159 561.381 206.159 560.812C206.159 560.295 206.088 559.816 205.946 559.374C205.804 558.932 205.59 558.547 205.306 558.217C205.029 557.888 204.688 557.633 204.284 557.454C203.88 557.266 203.415 557.173 202.891 557.173C202.195 557.173 201.667 557.266 201.308 557.454C200.956 557.641 200.593 557.895 200.218 558.217Z" fill="black"/>
</g>
<g filter="url(#filter6_d_278_1792)">
<rect x="227" y="537" width="40.6" height="40" rx="6" fill="white"/>
<path d="M250.164 549.626H250.343V551.389H250.164C249.063 551.389 248.142 551.569 247.401 551.928C246.66 552.28 246.072 552.756 245.638 553.354C245.204 553.946 244.889 554.612 244.695 555.354C244.507 556.095 244.414 556.847 244.414 557.611V560.014C244.414 560.74 244.5 561.384 244.672 561.946C244.844 562.5 245.08 562.968 245.38 563.35C245.679 563.731 246.016 564.02 246.39 564.214C246.772 564.409 247.169 564.506 247.581 564.506C248.06 564.506 248.487 564.417 248.861 564.237C249.235 564.05 249.55 563.791 249.804 563.462C250.066 563.125 250.265 562.728 250.4 562.271C250.534 561.815 250.602 561.313 250.602 560.767C250.602 560.28 250.542 559.812 250.422 559.363C250.302 558.906 250.119 558.502 249.872 558.15C249.625 557.791 249.314 557.51 248.94 557.308C248.573 557.098 248.135 556.993 247.626 556.993C247.049 556.993 246.51 557.135 246.008 557.42C245.514 557.697 245.106 558.064 244.784 558.521C244.47 558.97 244.29 559.46 244.245 559.992L243.145 559.98C243.25 559.142 243.444 558.427 243.729 557.835C244.021 557.236 244.38 556.75 244.807 556.375C245.241 555.994 245.724 555.717 246.256 555.544C246.795 555.365 247.364 555.275 247.963 555.275C248.779 555.275 249.482 555.428 250.074 555.735C250.665 556.042 251.152 556.454 251.534 556.971C251.916 557.48 252.196 558.056 252.376 558.7C252.563 559.337 252.657 559.992 252.657 560.666C252.657 561.437 252.548 562.159 252.331 562.833C252.114 563.507 251.788 564.098 251.354 564.607C250.927 565.117 250.4 565.513 249.771 565.798C249.142 566.082 248.412 566.225 247.581 566.225C246.697 566.225 245.926 566.045 245.267 565.686C244.608 565.319 244.062 564.832 243.628 564.226C243.193 563.619 242.868 562.945 242.651 562.204C242.433 561.463 242.325 560.71 242.325 559.947V558.97C242.325 557.817 242.441 556.686 242.673 555.578C242.905 554.47 243.306 553.467 243.875 552.568C244.451 551.67 245.249 550.955 246.267 550.423C247.285 549.892 248.584 549.626 250.164 549.626Z" fill="black"/>
</g>
<g filter="url(#filter7_d_278_1792)">
<rect x="271.6" y="537" width="40.6" height="40" rx="6" fill="white"/>
<path d="M297.358 549.648V550.816L290.586 566H288.396L295.156 551.355H286.307V549.648H297.358Z" fill="black"/>
</g>
<g filter="url(#filter8_d_278_1792)">
<rect x="316.2" y="537" width="40.6" height="40" rx="6" fill="white"/>
<path d="M341.7 561.575C341.7 562.571 341.468 563.417 341.004 564.113C340.547 564.802 339.925 565.326 339.139 565.686C338.361 566.045 337.481 566.225 336.5 566.225C335.519 566.225 334.636 566.045 333.85 565.686C333.064 565.326 332.442 564.802 331.986 564.113C331.529 563.417 331.3 562.571 331.3 561.575C331.3 560.924 331.424 560.329 331.671 559.79C331.926 559.243 332.281 558.768 332.738 558.363C333.202 557.959 333.749 557.648 334.378 557.431C335.014 557.207 335.714 557.094 336.478 557.094C337.481 557.094 338.376 557.289 339.162 557.678C339.948 558.06 340.566 558.588 341.015 559.262C341.472 559.936 341.7 560.707 341.7 561.575ZM339.611 561.53C339.611 560.924 339.48 560.389 339.218 559.924C338.956 559.453 338.589 559.086 338.117 558.824C337.646 558.562 337.099 558.431 336.478 558.431C335.841 558.431 335.291 558.562 334.827 558.824C334.37 559.086 334.015 559.453 333.76 559.924C333.505 560.389 333.378 560.924 333.378 561.53C333.378 562.159 333.502 562.698 333.749 563.147C334.003 563.589 334.363 563.93 334.827 564.169C335.299 564.402 335.856 564.518 336.5 564.518C337.144 564.518 337.698 564.402 338.162 564.169C338.626 563.93 338.982 563.589 339.229 563.147C339.484 562.698 339.611 562.159 339.611 561.53ZM341.318 553.905C341.318 554.698 341.108 555.413 340.689 556.05C340.27 556.686 339.697 557.188 338.971 557.555C338.245 557.922 337.421 558.105 336.5 558.105C335.564 558.105 334.73 557.922 333.996 557.555C333.27 557.188 332.701 556.686 332.289 556.05C331.877 555.413 331.671 554.698 331.671 553.905C331.671 552.954 331.877 552.145 332.289 551.479C332.708 550.813 333.281 550.304 334.007 549.952C334.733 549.6 335.561 549.424 336.489 549.424C337.425 549.424 338.256 549.6 338.982 549.952C339.708 550.304 340.277 550.813 340.689 551.479C341.108 552.145 341.318 552.954 341.318 553.905ZM339.24 553.938C339.24 553.392 339.124 552.909 338.892 552.49C338.66 552.07 338.338 551.741 337.926 551.501C337.515 551.254 337.036 551.131 336.489 551.131C335.942 551.131 335.463 551.247 335.051 551.479C334.647 551.704 334.329 552.026 334.097 552.445C333.872 552.864 333.76 553.362 333.76 553.938C333.76 554.5 333.872 554.99 334.097 555.41C334.329 555.829 334.651 556.155 335.063 556.387C335.474 556.619 335.954 556.735 336.5 556.735C337.047 556.735 337.522 556.619 337.926 556.387C338.338 556.155 338.66 555.829 338.892 555.41C339.124 554.99 339.24 554.5 339.24 553.938Z" fill="black"/>
</g>
<g filter="url(#filter9_d_278_1792)">
<rect x="360.8" y="537" width="40.6" height="40" rx="6" fill="white"/>
<path d="M378.056 564.259H378.27C379.468 564.259 380.441 564.091 381.19 563.754C381.938 563.417 382.515 562.964 382.919 562.395C383.323 561.826 383.6 561.186 383.75 560.475C383.9 559.756 383.975 559.018 383.975 558.262V555.758C383.975 555.017 383.889 554.358 383.717 553.781C383.552 553.205 383.32 552.722 383.02 552.333C382.728 551.943 382.395 551.647 382.021 551.445C381.646 551.243 381.25 551.142 380.83 551.142C380.351 551.142 379.921 551.239 379.539 551.434C379.164 551.621 378.846 551.887 378.584 552.231C378.33 552.576 378.135 552.98 378 553.444C377.865 553.909 377.798 554.414 377.798 554.96C377.798 555.447 377.858 555.919 377.978 556.375C378.098 556.832 378.281 557.244 378.528 557.611C378.775 557.978 379.082 558.27 379.449 558.487C379.823 558.696 380.261 558.801 380.763 558.801C381.227 558.801 381.661 558.711 382.066 558.532C382.477 558.345 382.841 558.094 383.155 557.779C383.477 557.457 383.731 557.094 383.919 556.69C384.113 556.286 384.226 555.863 384.256 555.421H385.244C385.244 556.042 385.12 556.656 384.873 557.263C384.634 557.862 384.297 558.408 383.862 558.902C383.428 559.396 382.919 559.793 382.335 560.093C381.751 560.385 381.115 560.531 380.426 560.531C379.617 560.531 378.917 560.374 378.326 560.059C377.734 559.745 377.248 559.325 376.866 558.801C376.492 558.277 376.211 557.693 376.024 557.049C375.844 556.398 375.754 555.739 375.754 555.073C375.754 554.294 375.863 553.564 376.08 552.883C376.297 552.201 376.619 551.603 377.046 551.086C377.472 550.562 378 550.154 378.629 549.862C379.265 549.57 379.999 549.424 380.83 549.424C381.766 549.424 382.564 549.611 383.222 549.985C383.881 550.36 384.417 550.861 384.828 551.49C385.248 552.119 385.555 552.827 385.749 553.613C385.944 554.399 386.041 555.208 386.041 556.039V556.791C386.041 557.637 385.985 558.498 385.873 559.374C385.768 560.243 385.562 561.074 385.255 561.867C384.956 562.661 384.518 563.372 383.941 564.001C383.365 564.622 382.612 565.117 381.684 565.483C380.763 565.843 379.625 566.022 378.27 566.022H378.056V564.259Z" fill="black"/>
</g>
<g filter="url(#filter10_d_278_1792)">
<rect x="405.4" y="537" width="40.6" height="40" rx="6" fill="white"/>
<path d="M420.95 549.559V566H418.872V552.153L414.683 553.68V551.805L420.624 549.559H420.95ZM437.324 556.521V559.015C437.324 560.355 437.204 561.485 436.965 562.406C436.725 563.327 436.381 564.068 435.931 564.63C435.482 565.191 434.939 565.599 434.303 565.854C433.674 566.101 432.963 566.225 432.169 566.225C431.54 566.225 430.96 566.146 430.428 565.989C429.897 565.832 429.418 565.581 428.991 565.236C428.572 564.884 428.212 564.428 427.913 563.866C427.613 563.305 427.385 562.623 427.228 561.822C427.071 561.021 426.992 560.085 426.992 559.015V556.521C426.992 555.181 427.112 554.058 427.351 553.152C427.598 552.246 427.946 551.52 428.396 550.974C428.845 550.42 429.384 550.023 430.013 549.783C430.649 549.544 431.361 549.424 432.147 549.424C432.783 549.424 433.367 549.502 433.899 549.66C434.438 549.809 434.917 550.053 435.336 550.39C435.755 550.719 436.111 551.161 436.403 551.715C436.703 552.261 436.931 552.931 437.088 553.725C437.245 554.519 437.324 555.451 437.324 556.521ZM435.235 559.352V556.173C435.235 555.44 435.19 554.796 435.1 554.242C435.018 553.68 434.894 553.201 434.73 552.804C434.565 552.407 434.355 552.085 434.101 551.838C433.854 551.591 433.565 551.412 433.236 551.299C432.914 551.18 432.551 551.12 432.147 551.12C431.653 551.12 431.215 551.213 430.833 551.4C430.451 551.58 430.129 551.868 429.867 552.265C429.612 552.662 429.418 553.182 429.283 553.826C429.148 554.47 429.081 555.252 429.081 556.173V559.352C429.081 560.085 429.122 560.733 429.204 561.294C429.294 561.856 429.425 562.343 429.597 562.754C429.77 563.159 429.979 563.492 430.226 563.754C430.473 564.016 430.758 564.211 431.08 564.338C431.409 564.458 431.772 564.518 432.169 564.518C432.678 564.518 433.124 564.42 433.506 564.226C433.887 564.031 434.206 563.728 434.46 563.316C434.722 562.897 434.917 562.361 435.044 561.71C435.171 561.051 435.235 560.265 435.235 559.352Z" fill="black"/>
</g>
<g filter="url(#filter11_d_278_1792)">
<rect x="4" y="587" width="40.6" height="40" rx="6" fill="white"/>
<path d="M26.6696 614.125L30.8249 617.415L29.3649 618.763L25.2771 615.517L26.6696 614.125ZM30.7687 607.308V608.341C30.7687 609.569 30.6153 610.669 30.3083 611.643C30.0013 612.616 29.5596 613.443 28.9831 614.125C28.4066 614.806 27.7141 615.326 26.9055 615.686C26.1044 616.045 25.2059 616.225 24.2102 616.225C23.2443 616.225 22.3571 616.045 21.5485 615.686C20.7474 615.326 20.0511 614.806 19.4597 614.125C18.8757 613.443 18.4227 612.616 18.1008 611.643C17.7788 610.669 17.6179 609.569 17.6179 608.341V607.308C17.6179 606.08 17.7751 604.983 18.0896 604.017C18.4115 603.044 18.8645 602.216 19.4484 601.535C20.0324 600.846 20.725 600.322 21.5261 599.963C22.3347 599.604 23.2219 599.424 24.1877 599.424C25.1835 599.424 26.0856 599.604 26.8942 599.963C27.7028 600.322 28.3954 600.846 28.9719 601.535C29.5484 602.216 29.9901 603.044 30.2971 604.017C30.6115 604.983 30.7687 606.08 30.7687 607.308ZM28.6237 608.341V607.285C28.6237 606.312 28.5227 605.451 28.3205 604.702C28.1258 603.953 27.8376 603.325 27.4558 602.815C27.0739 602.306 26.6097 601.921 26.0632 601.659C25.5166 601.397 24.8915 601.266 24.1877 601.266C23.5214 601.266 22.9149 601.397 22.3684 601.659C21.8293 601.921 21.3651 602.306 20.9758 602.815C20.5865 603.325 20.287 603.953 20.0773 604.702C19.8677 605.451 19.7629 606.312 19.7629 607.285V608.341C19.7629 609.322 19.8677 610.19 20.0773 610.946C20.287 611.695 20.5865 612.328 20.9758 612.844C21.3726 613.353 21.8443 613.739 22.3908 614.001C22.9374 614.263 23.5438 614.394 24.2102 614.394C24.9139 614.394 25.5391 614.263 26.0856 614.001C26.6322 613.739 27.0926 613.353 27.467 612.844C27.8488 612.328 28.1371 611.695 28.3317 610.946C28.5264 610.19 28.6237 609.322 28.6237 608.341Z" fill="black"/>
</g>
<g filter="url(#filter12_d_278_1792)">
<rect x="48.5996" y="587" width="40.6" height="40" rx="6" fill="white"/>
<path d="M64.8903 611.059L68.1359 599.648H69.7082L68.7985 604.084L65.3059 616H63.7448L64.8903 611.059ZM61.5324 599.648L64.1154 610.834L64.8903 616H63.3405L59.3762 599.648H61.5324ZM73.9084 610.823L76.4353 599.648H78.6027L74.6496 616H73.0998L73.9084 610.823ZM69.944 599.648L73.0998 611.059L74.2453 616H72.6843L69.3151 604.084L68.3942 599.648H69.944Z" fill="black"/>
</g>
<g filter="url(#filter13_d_278_1792)">
<rect x="93.2002" y="587" width="40.6" height="40" rx="6" fill="white"/>
<path d="M119.25 614.237V616H110.592V614.237H119.25ZM111.029 599.648V616H108.862V599.648H111.029ZM118.105 606.679V608.442H110.592V606.679H118.105ZM119.138 599.648V601.423H110.592V599.648H119.138Z" fill="black"/>
</g>
<g filter="url(#filter14_d_278_1792)">
<rect x="137.8" y="587" width="40.6" height="40" rx="6" fill="white"/>
<path d="M152.911 599.648H158.324C159.552 599.648 160.589 599.836 161.435 600.21C162.289 600.584 162.936 601.138 163.378 601.872C163.827 602.598 164.052 603.493 164.052 604.556C164.052 605.305 163.898 605.99 163.592 606.611C163.292 607.225 162.858 607.749 162.289 608.184C161.727 608.61 161.053 608.929 160.267 609.138L159.661 609.374H154.573L154.551 607.611H158.392C159.17 607.611 159.818 607.476 160.335 607.207C160.851 606.93 161.241 606.559 161.503 606.095C161.765 605.631 161.896 605.118 161.896 604.556C161.896 603.927 161.772 603.377 161.525 602.905C161.278 602.434 160.889 602.07 160.357 601.816C159.833 601.554 159.155 601.423 158.324 601.423H155.079V616H152.911V599.648ZM162.468 616L158.493 608.588L160.75 608.577L164.782 615.865V616H162.468Z" fill="black"/>
</g>
<g filter="url(#filter15_d_278_1792)">
<rect x="182.4" y="587" width="40.6" height="40" rx="6" fill="white"/>
<path d="M203.779 599.648V616H201.645V599.648H203.779ZM209.034 599.648V601.423H196.4V599.648H209.034Z" fill="black"/>
</g>
<g filter="url(#filter16_d_278_1792)">
<rect x="227" y="587" width="40.6" height="40" rx="6" fill="white"/>
<path d="M243.044 599.648L247.289 607.858L251.545 599.648H254.005L248.367 609.891V616H246.199V609.891L240.562 599.648H243.044Z" fill="black"/>
</g>
<g filter="url(#filter17_d_278_1792)">
<rect x="271.6" y="587" width="40.6" height="40" rx="6" fill="white"/>
<path d="M295.696 599.648H297.852V610.71C297.852 611.938 297.578 612.96 297.032 613.776C296.485 614.592 295.759 615.206 294.853 615.618C293.955 616.022 292.978 616.225 291.922 616.225C290.814 616.225 289.811 616.022 288.912 615.618C288.021 615.206 287.314 614.592 286.79 613.776C286.273 612.96 286.015 611.938 286.015 610.71V599.648H288.16V610.71C288.16 611.564 288.317 612.268 288.632 612.822C288.946 613.376 289.384 613.788 289.946 614.057C290.515 614.327 291.173 614.461 291.922 614.461C292.678 614.461 293.337 614.327 293.899 614.057C294.468 613.788 294.909 613.376 295.224 612.822C295.538 612.268 295.696 611.564 295.696 610.71V599.648Z" fill="black"/>
</g>
<g filter="url(#filter18_d_278_1792)">
<rect x="316.2" y="587" width="40.6" height="40" rx="6" fill="white"/>
<path d="M337.59 599.648V616H335.422V599.648H337.59Z" fill="black"/>
</g>
<g filter="url(#filter19_d_278_1792)">
<rect x="360.8" y="587" width="40.6" height="40" rx="6" fill="white"/>
<path d="M387.67 607.308V608.341C387.67 609.569 387.516 610.669 387.209 611.643C386.902 612.616 386.46 613.443 385.884 614.125C385.307 614.806 384.615 615.326 383.806 615.686C383.005 616.045 382.107 616.225 381.111 616.225C380.145 616.225 379.258 616.045 378.449 615.686C377.648 615.326 376.952 614.806 376.361 614.125C375.777 613.443 375.324 612.616 375.002 611.643C374.68 610.669 374.519 609.569 374.519 608.341V607.308C374.519 606.08 374.676 604.983 374.99 604.017C375.312 603.044 375.765 602.216 376.349 601.535C376.933 600.846 377.626 600.322 378.427 599.963C379.236 599.604 380.123 599.424 381.089 599.424C382.084 599.424 382.983 599.604 383.784 599.963C384.592 600.322 385.285 600.846 385.862 601.535C386.446 602.216 386.891 603.044 387.198 604.017C387.512 604.983 387.67 606.08 387.67 607.308ZM385.525 608.341V607.285C385.525 606.312 385.424 605.451 385.221 604.702C385.027 603.953 384.738 603.325 384.357 602.815C383.975 602.306 383.507 601.921 382.953 601.659C382.406 601.397 381.785 601.266 381.089 601.266C380.415 601.266 379.805 601.397 379.258 601.659C378.719 601.921 378.255 602.306 377.865 602.815C377.484 603.325 377.188 603.953 376.978 604.702C376.769 605.451 376.664 606.312 376.664 607.285V608.341C376.664 609.322 376.769 610.19 376.978 610.946C377.188 611.695 377.487 612.328 377.877 612.844C378.273 613.353 378.741 613.739 379.28 614.001C379.827 614.263 380.437 614.394 381.111 614.394C381.815 614.394 382.44 614.263 382.987 614.001C383.533 613.739 383.994 613.353 384.368 612.844C384.75 612.328 385.038 611.695 385.233 610.946C385.427 610.19 385.525 609.322 385.525 608.341Z" fill="black"/>
</g>
<g filter="url(#filter20_d_278_1792)">
<rect x="405.4" y="587" width="40.6" height="40" rx="6" fill="white"/>
<path d="M426.374 609.587H422.006V607.824H426.374C427.22 607.824 427.905 607.689 428.429 607.42C428.953 607.15 429.335 606.776 429.575 606.297C429.822 605.818 429.946 605.271 429.946 604.657C429.946 604.096 429.822 603.568 429.575 603.074C429.335 602.58 428.953 602.183 428.429 601.883C427.905 601.576 427.22 601.423 426.374 601.423H422.511V616H420.343V599.648H426.374C427.61 599.648 428.654 599.862 429.508 600.289C430.361 600.715 431.009 601.307 431.45 602.063C431.892 602.812 432.113 603.669 432.113 604.635C432.113 605.683 431.892 606.578 431.45 607.319C431.009 608.06 430.361 608.625 429.508 609.015C428.654 609.396 427.61 609.587 426.374 609.587Z" fill="black"/>
</g>
<g filter="url(#filter21_d_278_1792)">
<rect x="22" y="637" width="41.5556" height="40" rx="6" fill="white"/>
<path d="M43.227 651.097L37.8139 666H35.6015L41.8344 649.648H43.2607L43.227 651.097ZM47.7641 666L42.3398 651.097L42.3061 649.648H43.7324L49.9877 666H47.7641ZM47.4833 659.947V661.721H38.2968V659.947H47.4833Z" fill="black"/>
</g>
<g filter="url(#filter22_d_278_1792)">
<rect x="67.5557" y="637" width="41.5556" height="40" rx="6" fill="white"/>
<path d="M92.1181 661.867C92.1181 661.485 92.0582 661.148 91.9384 660.856C91.8261 660.557 91.624 660.287 91.332 660.048C91.0475 659.808 90.6507 659.58 90.1415 659.363C89.6399 659.146 89.0035 658.925 88.2324 658.7C87.4238 658.461 86.6938 658.195 86.0424 657.903C85.3911 657.603 84.8333 657.263 84.3691 656.881C83.9049 656.499 83.5493 656.061 83.3022 655.567C83.0551 655.073 82.9316 654.507 82.9316 653.871C82.9316 653.235 83.0626 652.647 83.3247 652.108C83.5867 651.569 83.961 651.101 84.4477 650.704C84.9418 650.3 85.5296 649.985 86.2109 649.761C86.8922 649.536 87.6521 649.424 88.4907 649.424C89.7185 649.424 90.7592 649.66 91.6127 650.131C92.4737 650.596 93.1289 651.206 93.5781 651.962C94.0273 652.711 94.2519 653.512 94.2519 654.365H92.0956C92.0956 653.751 91.9646 653.208 91.7026 652.737C91.4405 652.258 91.0437 651.883 90.5122 651.614C89.9806 651.337 89.3067 651.198 88.4907 651.198C87.7195 651.198 87.0831 651.314 86.5815 651.546C86.0799 651.778 85.7055 652.093 85.4584 652.49C85.2189 652.887 85.0991 653.34 85.0991 653.849C85.0991 654.193 85.1702 654.507 85.3124 654.792C85.4622 655.069 85.6905 655.327 85.9975 655.567C86.312 655.806 86.7088 656.027 87.1879 656.229C87.6746 656.432 88.2548 656.626 88.9287 656.813C89.857 657.076 90.6581 657.368 91.332 657.689C92.0058 658.011 92.5598 658.375 92.9941 658.779C93.4358 659.176 93.7615 659.629 93.9711 660.138C94.1883 660.639 94.2968 661.208 94.2968 661.845C94.2968 662.511 94.1621 663.114 93.8925 663.653C93.623 664.192 93.2374 664.652 92.7358 665.034C92.2342 665.416 91.6315 665.712 90.9277 665.921C90.2314 666.124 89.4527 666.225 88.5917 666.225C87.8356 666.225 87.0906 666.12 86.3569 665.91C85.6306 665.701 84.968 665.386 84.3691 664.967C83.7776 664.548 83.3022 664.031 82.9428 663.417C82.5909 662.796 82.415 662.077 82.415 661.261H84.5712C84.5712 661.822 84.6798 662.305 84.8969 662.709C85.114 663.106 85.4098 663.436 85.7841 663.698C86.166 663.96 86.5965 664.154 87.0756 664.282C87.5623 664.402 88.0677 664.461 88.5917 664.461C89.3479 664.461 89.9881 664.357 90.5122 664.147C91.0362 663.937 91.4331 663.638 91.7026 663.249C91.9796 662.859 92.1181 662.399 92.1181 661.867Z" fill="black"/>
</g>
<g filter="url(#filter23_d_278_1792)">
<rect x="113.111" y="637" width="41.5556" height="40" rx="6" fill="white"/>
<path d="M132.665 666H129.251L129.273 664.237H132.665C133.833 664.237 134.806 663.993 135.585 663.507C136.364 663.013 136.948 662.324 137.337 661.44C137.734 660.549 137.932 659.509 137.932 658.318V657.319C137.932 656.383 137.82 655.552 137.595 654.826C137.371 654.092 137.041 653.474 136.607 652.973C136.173 652.464 135.641 652.078 135.012 651.816C134.391 651.554 133.676 651.423 132.867 651.423H129.184V649.648H132.867C133.938 649.648 134.915 649.828 135.798 650.188C136.682 650.539 137.442 651.052 138.078 651.726C138.722 652.392 139.216 653.201 139.56 654.152C139.905 655.095 140.077 656.158 140.077 657.341V658.318C140.077 659.501 139.905 660.568 139.56 661.519C139.216 662.462 138.718 663.267 138.067 663.934C137.423 664.6 136.644 665.113 135.731 665.472C134.825 665.824 133.803 666 132.665 666ZM130.408 649.648V666H128.24V649.648H130.408Z" fill="black"/>
</g>
<g filter="url(#filter24_d_278_1792)">
<rect x="158.667" y="637" width="41.5556" height="40" rx="6" fill="white"/>
<path d="M177.154 649.648V666H174.986V649.648H177.154ZM184.004 657.004V658.779H176.682V657.004H184.004ZM185.116 649.648V651.423H176.682V649.648H185.116Z" fill="black"/>
</g>
<g filter="url(#filter25_d_278_1792)">
<rect x="204.223" y="637" width="41.5556" height="40" rx="6" fill="white"/>
<path d="M231.144 657.858V663.844C230.941 664.143 230.619 664.48 230.178 664.854C229.736 665.221 229.126 665.543 228.347 665.82C227.576 666.09 226.58 666.225 225.36 666.225C224.364 666.225 223.447 666.052 222.608 665.708C221.777 665.356 221.055 664.847 220.441 664.181C219.834 663.507 219.363 662.691 219.026 661.732C218.696 660.767 218.532 659.674 218.532 658.453V657.184C218.532 655.964 218.674 654.874 218.958 653.916C219.25 652.958 219.677 652.145 220.239 651.479C220.8 650.805 221.489 650.296 222.305 649.952C223.121 649.6 224.057 649.424 225.113 649.424C226.363 649.424 227.408 649.641 228.246 650.075C229.092 650.502 229.751 651.093 230.223 651.85C230.702 652.606 231.009 653.467 231.144 654.433H228.976C228.879 653.841 228.684 653.302 228.392 652.815C228.108 652.329 227.699 651.939 227.168 651.647C226.636 651.348 225.951 651.198 225.113 651.198C224.357 651.198 223.701 651.337 223.147 651.614C222.593 651.891 222.137 652.288 221.777 652.804C221.418 653.321 221.148 653.946 220.969 654.68C220.796 655.413 220.71 656.241 220.71 657.162V658.453C220.71 659.396 220.819 660.239 221.036 660.98C221.261 661.721 221.579 662.354 221.991 662.878C222.402 663.395 222.893 663.788 223.462 664.057C224.038 664.327 224.675 664.461 225.371 664.461C226.142 664.461 226.767 664.398 227.247 664.271C227.726 664.136 228.1 663.979 228.37 663.799C228.639 663.612 228.845 663.436 228.987 663.271V659.61H225.203V657.858H231.144Z" fill="black"/>
</g>
<g filter="url(#filter26_d_278_1792)">
<rect x="249.777" y="637" width="41.5556" height="40" rx="6" fill="white"/>
<path d="M274.924 656.679V658.442H266.074V656.679H274.924ZM266.411 649.648V666H264.244V649.648H266.411ZM276.81 649.648V666H274.654V649.648H276.81Z" fill="black"/>
</g>
<g filter="url(#filter27_d_278_1792)">
<rect x="295.333" y="637" width="41.5556" height="40" rx="6" fill="white"/>
<path d="M318.525 661.227V649.648H320.682V661.227C320.682 662.305 320.461 663.215 320.019 663.956C319.577 664.697 318.967 665.263 318.188 665.652C317.417 666.034 316.53 666.225 315.527 666.225C314.524 666.225 313.633 666.052 312.854 665.708C312.075 665.364 311.465 664.84 311.023 664.136C310.582 663.432 310.361 662.545 310.361 661.474H312.528C312.528 662.163 312.656 662.728 312.91 663.17C313.165 663.612 313.517 663.937 313.966 664.147C314.422 664.357 314.943 664.461 315.527 664.461C316.096 664.461 316.605 664.342 317.054 664.102C317.511 663.855 317.87 663.492 318.132 663.013C318.394 662.526 318.525 661.931 318.525 661.227Z" fill="black"/>
</g>
<g filter="url(#filter28_d_278_1792)">
<rect x="340.889" y="637" width="41.5556" height="40" rx="6" fill="white"/>
<path d="M358.511 649.648V666H356.343V649.648H358.511ZM368.382 649.648L361.588 657.274L357.769 661.238L357.41 658.925L360.285 655.758L365.777 649.648H368.382ZM366.293 666L360.24 658.026L361.532 656.308L368.876 666H366.293Z" fill="black"/>
</g>
<g filter="url(#filter29_d_278_1792)">
<rect x="386.444" y="637" width="41.5556" height="40" rx="6" fill="white"/>
<path d="M412.837 664.237V666H404.662V664.237H412.837ZM405.088 649.648V666H402.921V649.648H405.088Z" fill="black"/>
</g>
<g filter="url(#filter30_d_278_1792)">
<rect x="4" y="687" width="48" height="40" rx="6" fill="#CCCED5"/>
<path d="M28.6821 697.789C28.3052 697.404 27.6948 697.404 27.3179 697.789L18.7847 706.505C18.1767 707.127 18.6069 708.189 19.4668 708.189H22.5V715.478C22.5 716.042 22.9477 716.5 23.5 716.5H32.5C33.0522 716.5 33.5 716.042 33.5 715.478V708.189H36.5332C37.3931 708.189 37.8232 707.127 37.2153 706.505L28.6821 697.789Z" fill="#3D3D3F"/>
</g>
<g filter="url(#filter31_d_278_1792)">
<rect x="56" y="687" width="44.8571" height="40" rx="6" fill="white"/>
<path d="M84.4032 714.237V716H73.3299V714.237H84.4032ZM84.0438 701.221L73.8465 716H72.5101V714.383L82.6961 699.648H84.0438V701.221ZM83.1229 699.648V701.423H72.6561V699.648H83.1229Z" fill="black"/>
</g>
<g filter="url(#filter32_d_278_1792)">
<rect x="104.857" y="687" width="44.8571" height="40" rx="6" fill="white"/>
<path d="M123.378 699.648L127.308 705.915L131.239 699.648H133.766L128.6 707.746L133.89 716H131.34L127.308 709.61L123.277 716H120.727L126.017 707.746L120.851 699.648H123.378Z" fill="black"/>
</g>
<g filter="url(#filter33_d_278_1792)">
<rect x="153.714" y="687" width="44.8571" height="40" rx="6" fill="white"/>
<path d="M180.421 710.8H182.577C182.465 711.833 182.169 712.758 181.69 713.574C181.211 714.39 180.534 715.038 179.658 715.517C178.782 715.989 177.688 716.225 176.378 716.225C175.42 716.225 174.548 716.045 173.762 715.686C172.983 715.326 172.313 714.817 171.751 714.158C171.19 713.492 170.756 712.694 170.449 711.766C170.149 710.83 169.999 709.79 169.999 708.644V707.016C169.999 705.87 170.149 704.833 170.449 703.905C170.756 702.969 171.194 702.168 171.763 701.501C172.339 700.835 173.032 700.322 173.84 699.963C174.649 699.604 175.558 699.424 176.569 699.424C177.805 699.424 178.849 699.656 179.702 700.12C180.556 700.584 181.219 701.228 181.69 702.052C182.169 702.868 182.465 703.815 182.577 704.893H180.421C180.316 704.129 180.122 703.474 179.837 702.928C179.553 702.374 179.148 701.947 178.624 701.647C178.1 701.348 177.415 701.198 176.569 701.198C175.843 701.198 175.203 701.337 174.649 701.614C174.102 701.891 173.642 702.284 173.267 702.793C172.901 703.302 172.624 703.912 172.436 704.624C172.249 705.335 172.156 706.125 172.156 706.993V708.644C172.156 709.445 172.238 710.198 172.403 710.901C172.575 711.605 172.833 712.223 173.178 712.754C173.522 713.286 173.96 713.705 174.492 714.012C175.023 714.312 175.652 714.461 176.378 714.461C177.299 714.461 178.033 714.315 178.579 714.023C179.126 713.731 179.538 713.312 179.815 712.766C180.099 712.219 180.301 711.564 180.421 710.8Z" fill="black"/>
</g>
<g filter="url(#filter34_d_278_1792)">
<rect x="202.571" y="687" width="44.8571" height="40" rx="6" fill="white"/>
<path d="M224.854 713.518L229.672 699.648H232.019L225.966 716H224.292L224.854 713.518ZM220.35 699.648L225.123 713.518L225.719 716H224.045L218.003 699.648H220.35Z" fill="black"/>
</g>
<g filter="url(#filter35_d_278_1792)">
<rect x="251.429" y="687" width="44.8571" height="40" rx="6" fill="white"/>
<path d="M274.419 708.352H270.275L270.252 706.611H274.015C274.636 706.611 275.179 706.507 275.643 706.297C276.107 706.087 276.466 705.788 276.721 705.398C276.983 705.002 277.114 704.53 277.114 703.983C277.114 703.384 276.998 702.898 276.766 702.523C276.541 702.142 276.193 701.865 275.722 701.692C275.257 701.513 274.666 701.423 273.947 701.423H270.758V716H268.59V699.648H273.947C274.786 699.648 275.534 699.735 276.193 699.907C276.852 700.071 277.41 700.333 277.867 700.693C278.331 701.045 278.683 701.494 278.922 702.041C279.162 702.587 279.282 703.242 279.282 704.006C279.282 704.68 279.109 705.29 278.765 705.836C278.421 706.375 277.941 706.817 277.327 707.162C276.721 707.506 276.01 707.727 275.194 707.824L274.419 708.352ZM274.318 716H269.421L270.645 714.237H274.318C275.007 714.237 275.591 714.117 276.07 713.877C276.556 713.638 276.927 713.301 277.181 712.867C277.436 712.425 277.563 711.905 277.563 711.306C277.563 710.699 277.455 710.175 277.238 709.733C277.021 709.292 276.68 708.951 276.216 708.711C275.751 708.472 275.153 708.352 274.419 708.352H271.33L271.353 706.611H275.576L276.036 707.24C276.822 707.308 277.488 707.532 278.035 707.914C278.582 708.288 278.997 708.768 279.282 709.352C279.574 709.936 279.72 710.579 279.72 711.283C279.72 712.301 279.495 713.162 279.046 713.866C278.604 714.562 277.979 715.094 277.17 715.461C276.362 715.82 275.411 716 274.318 716Z" fill="black"/>
</g>
<g filter="url(#filter36_d_278_1792)">
<rect x="300.286" y="687" width="44.8571" height="40" rx="6" fill="white"/>
<path d="M328.981 699.648V716H326.803L318.571 703.388V716H316.403V699.648H318.571L326.836 712.294V699.648H328.981Z" fill="black"/>
</g>
<g filter="url(#filter37_d_278_1792)">
<rect x="349.143" y="687" width="44.8571" height="40" rx="6" fill="white"/>
<path d="M364.114 699.648H366.214L371.571 712.979L376.917 699.648H379.028L372.38 716H370.74L364.114 699.648ZM363.429 699.648H365.282L365.585 709.621V716H363.429V699.648ZM377.849 699.648H379.702V716H377.546V709.621L377.849 699.648Z" fill="black"/>
</g>
<g filter="url(#filter38_d_278_1792)">
<rect x="398" y="687" width="48" height="40" rx="6" fill="#CCCED5"/>
<path d="M432 698H417C416.31 698 415.77 698.35 415.41 698.88L410 707L415.41 715.11C415.77 715.64 416.31 716 417 716H432C433.1 716 434 715.1 434 714V700C434 698.9 433.1 698 432 698ZM432 714H417.07L412.4 707L417.06 700H432V714ZM420.41 712L424 708.41L427.59 712L429 710.59L425.41 707L429 703.41L427.59 702L424 705.59L420.41 702L419 703.41L422.59 707L419 710.59L420.41 712Z" fill="#3D3D3F"/>
</g>
<g filter="url(#filter39_d_278_1792)">
<rect x="4" y="737" width="53" height="40" rx="6" fill="#CCCED5"/>
<path d="M18.2759 758.858H16.6426C16.6475 758.404 16.6865 758.023 16.7598 757.715C16.833 757.403 16.9551 757.12 17.126 756.866C17.3018 756.612 17.5337 756.343 17.8218 756.06C18.0464 755.845 18.249 755.643 18.4297 755.452C18.6104 755.257 18.7544 755.052 18.8618 754.837C18.9692 754.617 19.0229 754.366 19.0229 754.083C19.0229 753.775 18.9717 753.514 18.8691 753.299C18.7666 753.084 18.6152 752.92 18.415 752.808C18.2197 752.696 17.9756 752.64 17.6826 752.64C17.4385 752.64 17.209 752.688 16.9941 752.786C16.7793 752.879 16.606 753.025 16.4741 753.226C16.3423 753.421 16.2715 753.68 16.2617 754.002H14.4966C14.5063 753.387 14.6528 752.869 14.936 752.449C15.2192 752.029 15.6001 751.714 16.0786 751.504C16.5571 751.294 17.0918 751.189 17.6826 751.189C18.3369 751.189 18.896 751.302 19.3599 751.526C19.8237 751.746 20.1777 752.068 20.4219 752.493C20.6709 752.913 20.7954 753.421 20.7954 754.017C20.7954 754.446 20.71 754.837 20.5391 755.188C20.3682 755.535 20.146 755.86 19.8726 756.163C19.5991 756.46 19.3037 756.758 18.9863 757.056C18.7129 757.305 18.5273 757.576 18.4297 757.869C18.332 758.157 18.2808 758.487 18.2759 758.858ZM16.4961 761.143C16.4961 760.879 16.5864 760.657 16.7671 760.477C16.9478 760.291 17.1943 760.198 17.5068 760.198C17.8193 760.198 18.0659 760.291 18.2466 760.477C18.4272 760.657 18.5176 760.879 18.5176 761.143C18.5176 761.407 18.4272 761.631 18.2466 761.817C18.0659 761.998 17.8193 762.088 17.5068 762.088C17.1943 762.088 16.9478 761.998 16.7671 761.817C16.5864 761.631 16.4961 761.407 16.4961 761.143ZM26.9844 751.299V762H25.2192V753.394L22.6045 754.28V752.823L26.772 751.299H26.9844ZM37.8389 760.594V762H30.6904V760.792L34.1621 757.005C34.543 756.575 34.8433 756.204 35.063 755.892C35.2827 755.579 35.4365 755.298 35.5244 755.049C35.6172 754.795 35.6636 754.549 35.6636 754.31C35.6636 753.973 35.6001 753.677 35.4731 753.423C35.3511 753.165 35.1704 752.962 34.9312 752.815C34.6919 752.664 34.4014 752.588 34.0596 752.588C33.6641 752.588 33.332 752.674 33.0635 752.845C32.7949 753.016 32.5923 753.252 32.4556 753.555C32.3188 753.853 32.2505 754.195 32.2505 754.581H30.4854C30.4854 753.96 30.627 753.394 30.9102 752.881C31.1934 752.364 31.6035 751.954 32.1406 751.651C32.6777 751.343 33.3247 751.189 34.0815 751.189C34.7944 751.189 35.3999 751.309 35.8979 751.548C36.396 751.788 36.7744 752.127 37.0332 752.566C37.2969 753.006 37.4287 753.526 37.4287 754.126C37.4287 754.458 37.375 754.788 37.2676 755.115C37.1602 755.442 37.0063 755.77 36.8062 756.097C36.6108 756.419 36.3789 756.744 36.1104 757.071C35.8418 757.393 35.5464 757.72 35.2241 758.052L32.917 760.594H37.8389ZM41.2886 755.87H42.3433C42.7534 755.87 43.0928 755.799 43.3613 755.657C43.6348 755.516 43.8374 755.32 43.9692 755.071C44.1011 754.822 44.167 754.537 44.167 754.214C44.167 753.877 44.106 753.589 43.9839 753.35C43.8667 753.106 43.686 752.918 43.4419 752.786C43.2026 752.654 42.8975 752.588 42.5264 752.588C42.2139 752.588 41.9307 752.652 41.6768 752.779C41.4277 752.901 41.23 753.077 41.0835 753.306C40.937 753.531 40.8638 753.799 40.8638 754.112H39.0913C39.0913 753.545 39.2402 753.042 39.5381 752.603C39.8359 752.164 40.2412 751.819 40.7539 751.57C41.2715 751.316 41.8525 751.189 42.4971 751.189C43.1855 751.189 43.7861 751.304 44.2988 751.534C44.8164 751.758 45.2192 752.095 45.5073 752.544C45.7954 752.994 45.9395 753.55 45.9395 754.214C45.9395 754.517 45.8687 754.825 45.7271 755.137C45.5854 755.45 45.3755 755.735 45.0972 755.994C44.8188 756.248 44.4722 756.456 44.0571 756.617C43.6421 756.773 43.1611 756.851 42.6143 756.851H41.2886V755.87ZM41.2886 757.247V756.28H42.6143C43.2393 756.28 43.7715 756.353 44.2109 756.5C44.6553 756.646 45.0166 756.849 45.2949 757.107C45.5732 757.361 45.7759 757.652 45.9028 757.979C46.0347 758.306 46.1006 758.653 46.1006 759.019C46.1006 759.517 46.0103 759.961 45.8296 760.352C45.6538 760.738 45.4023 761.065 45.0752 761.333C44.748 761.602 44.3647 761.805 43.9253 761.941C43.4907 762.078 43.0171 762.146 42.5044 762.146C42.0454 762.146 41.606 762.083 41.186 761.956C40.7661 761.829 40.3901 761.641 40.0581 761.392C39.7261 761.138 39.4624 760.823 39.2671 760.447C39.0767 760.066 38.9814 759.627 38.9814 759.129H40.7466C40.7466 759.446 40.8198 759.727 40.9663 759.971C41.1177 760.21 41.3276 760.398 41.5962 760.535C41.8696 760.672 42.1821 760.74 42.5337 760.74C42.9048 760.74 43.2246 760.674 43.4932 760.542C43.7617 760.411 43.9668 760.215 44.1084 759.957C44.2549 759.698 44.3281 759.385 44.3281 759.019C44.3281 758.604 44.2476 758.267 44.0864 758.008C43.9253 757.75 43.6958 757.559 43.3979 757.437C43.1001 757.31 42.7485 757.247 42.3433 757.247H41.2886Z" fill="#3D3D3F"/>
</g>
<g filter="url(#filter40_d_278_1792)">
<rect x="61" y="737" width="30" height="40" rx="6" fill="#CCCED5"/>
<path d="M76.8862 767.301L76.8789 768.561C76.8789 769.059 76.7544 769.571 76.5054 770.099C76.2563 770.626 75.9268 771.061 75.5166 771.402L74.5718 770.853C74.7085 770.633 74.833 770.411 74.9453 770.187C75.0576 769.962 75.1479 769.723 75.2163 769.469C75.2847 769.215 75.3188 768.934 75.3188 768.626V767.301H76.8862Z" fill="black"/>
<path d="M77.3955 747.958C77.8442 747.958 78.208 747.595 78.208 747.146C78.208 746.697 77.8442 746.333 77.3955 746.333C76.9468 746.333 76.583 746.697 76.583 747.146C76.583 747.595 76.9468 747.958 77.3955 747.958Z" fill="#3D3D3F"/>
<path d="M73.6038 747.958C74.0526 747.958 74.4163 747.595 74.4163 747.146C74.4163 746.697 74.0526 746.333 73.6038 746.333C73.1551 746.333 72.7913 746.697 72.7913 747.146C72.7913 747.595 73.1551 747.958 73.6038 747.958Z" fill="#3D3D3F"/>
<path d="M75.4997 750.667C74.698 750.667 74.0101 750.228 73.6309 749.583H72.7263C73.1597 750.694 74.2376 751.479 75.4997 751.479C76.7618 751.479 77.8397 750.694 78.273 749.583H77.3684C76.9893 750.228 76.3013 750.667 75.4997 750.667ZM75.4943 743.083C72.5043 743.083 70.083 745.51 70.083 748.5C70.083 751.49 72.5043 753.917 75.4943 753.917C78.4897 753.917 80.9163 751.49 80.9163 748.5C80.9163 745.51 78.4897 743.083 75.4943 743.083ZM75.4997 752.833C73.1055 752.833 71.1663 750.894 71.1663 748.5C71.1663 746.106 73.1055 744.167 75.4997 744.167C77.8938 744.167 79.833 746.106 79.833 748.5C79.833 750.894 77.8938 752.833 75.4997 752.833Z" fill="#3D3D3F"/>
</g>
<g filter="url(#filter41_d_278_1792)">
<rect x="95" y="737" width="30" height="40" rx="6" fill="white"/>
<path d="M109.99 747C104.47 747 100 751.48 100 757C100 762.52 104.47 767 109.99 767C115.52 767 120 762.52 120 757C120 751.48 115.52 747 109.99 747ZM116.92 753H113.97C113.65 751.75 113.19 750.55 112.59 749.44C114.43 750.07 115.96 751.35 116.92 753ZM110 749.04C110.83 750.24 111.48 751.57 111.91 753H108.09C108.52 751.57 109.17 750.24 110 749.04ZM102.26 759C102.1 758.36 102 757.69 102 757C102 756.31 102.1 755.64 102.26 755H105.64C105.56 755.66 105.5 756.32 105.5 757C105.5 757.68 105.56 758.34 105.64 759H102.26ZM103.08 761H106.03C106.35 762.25 106.81 763.45 107.41 764.56C105.57 763.93 104.04 762.66 103.08 761ZM106.03 753H103.08C104.04 751.34 105.57 750.07 107.41 749.44C106.81 750.55 106.35 751.75 106.03 753ZM110 764.96C109.17 763.76 108.52 762.43 108.09 761H111.91C111.48 762.43 110.83 763.76 110 764.96ZM112.34 759H107.66C107.57 758.34 107.5 757.68 107.5 757C107.5 756.32 107.57 755.65 107.66 755H112.34C112.43 755.65 112.5 756.32 112.5 757C112.5 757.68 112.43 758.34 112.34 759ZM112.59 764.56C113.19 763.45 113.65 762.25 113.97 761H116.92C115.96 762.65 114.43 763.93 112.59 764.56ZM114.36 759C114.44 758.34 114.5 757.68 114.5 757C114.5 756.32 114.44 755.66 114.36 755H117.74C117.9 755.64 118 756.31 118 757C118 757.69 117.9 758.36 117.74 759H114.36Z" fill="#4C4C4C"/>
</g>
<g filter="url(#filter42_d_278_1792)">
<rect x="129" y="737" width="231" height="40" rx="6" fill="white"/>
<path d="M230.408 760.503V761.5H225.514V760.503H230.408ZM225.762 752.258V761.5H224.537V752.258H225.762ZM229.761 756.231V757.228H225.514V756.231H229.761ZM230.345 752.258V753.261H225.514V752.258H230.345ZM232.922 756.098V761.5H231.748V754.632H232.858L232.922 756.098ZM232.643 757.806L232.154 757.787C232.158 757.317 232.228 756.883 232.363 756.485C232.499 756.083 232.689 755.734 232.935 755.438C233.18 755.142 233.472 754.913 233.811 754.752C234.153 754.587 234.532 754.505 234.947 754.505C235.285 754.505 235.59 754.551 235.861 754.645C236.132 754.733 236.362 754.877 236.553 755.076C236.747 755.275 236.896 755.533 236.997 755.851C237.099 756.164 237.149 756.547 237.149 757V761.5H235.969V756.987C235.969 756.627 235.916 756.339 235.81 756.124C235.704 755.903 235.55 755.745 235.347 755.647C235.144 755.546 234.894 755.495 234.598 755.495C234.306 755.495 234.039 755.556 233.798 755.679C233.561 755.802 233.356 755.971 233.182 756.187C233.013 756.403 232.88 756.65 232.782 756.93C232.689 757.205 232.643 757.497 232.643 757.806ZM243.383 754.632H244.449V761.354C244.449 761.959 244.326 762.475 244.081 762.903C243.836 763.33 243.493 763.654 243.053 763.874C242.617 764.098 242.113 764.21 241.542 764.21C241.305 764.21 241.026 764.172 240.704 764.096C240.387 764.024 240.074 763.899 239.765 763.722C239.46 763.548 239.204 763.313 238.997 763.017L239.612 762.319C239.9 762.666 240.201 762.907 240.514 763.042C240.831 763.178 241.144 763.246 241.453 763.246C241.826 763.246 242.147 763.176 242.418 763.036C242.689 762.896 242.898 762.689 243.046 762.414C243.199 762.143 243.275 761.809 243.275 761.411V756.143L243.383 754.632ZM238.654 758.142V758.009C238.654 757.484 238.715 757.008 238.838 756.581C238.965 756.149 239.145 755.779 239.377 755.47C239.614 755.161 239.9 754.924 240.234 754.759C240.569 754.59 240.945 754.505 241.364 754.505C241.796 754.505 242.173 754.581 242.494 754.733C242.82 754.882 243.095 755.099 243.319 755.387C243.548 755.671 243.728 756.014 243.859 756.416C243.99 756.818 244.081 757.272 244.132 757.78V758.364C244.085 758.868 243.994 759.321 243.859 759.723C243.728 760.125 243.548 760.467 243.319 760.751C243.095 761.035 242.82 761.252 242.494 761.405C242.168 761.553 241.787 761.627 241.352 761.627C240.941 761.627 240.569 761.54 240.234 761.367C239.904 761.193 239.621 760.95 239.384 760.637C239.147 760.324 238.965 759.955 238.838 759.532C238.715 759.105 238.654 758.641 238.654 758.142ZM239.828 758.009V758.142C239.828 758.485 239.862 758.806 239.93 759.107C240.002 759.407 240.11 759.672 240.253 759.9C240.402 760.129 240.59 760.309 240.818 760.44C241.047 760.567 241.32 760.63 241.637 760.63C242.027 760.63 242.348 760.548 242.602 760.383C242.856 760.218 243.057 760 243.205 759.729C243.357 759.458 243.476 759.164 243.561 758.847V757.317C243.514 757.084 243.442 756.86 243.345 756.644C243.252 756.424 243.129 756.229 242.977 756.06C242.828 755.887 242.644 755.749 242.424 755.647C242.204 755.546 241.946 755.495 241.65 755.495C241.328 755.495 241.051 755.563 240.818 755.698C240.59 755.829 240.402 756.011 240.253 756.244C240.11 756.473 240.002 756.739 239.93 757.044C239.862 757.344 239.828 757.666 239.828 758.009ZM247.509 751.75V761.5H246.328V751.75H247.509ZM250.67 754.632V761.5H249.489V754.632H250.67ZM249.4 752.81C249.4 752.62 249.458 752.459 249.572 752.328C249.69 752.196 249.864 752.131 250.092 752.131C250.317 752.131 250.488 752.196 250.606 752.328C250.729 752.459 250.791 752.62 250.791 752.81C250.791 752.992 250.729 753.149 250.606 753.28C250.488 753.407 250.317 753.47 250.092 753.47C249.864 753.47 249.69 753.407 249.572 753.28C249.458 753.149 249.4 752.992 249.4 752.81ZM256.554 759.678C256.554 759.509 256.516 759.352 256.44 759.208C256.368 759.06 256.218 758.927 255.989 758.809C255.765 758.686 255.426 758.58 254.974 758.491C254.593 758.411 254.248 758.316 253.939 758.206C253.634 758.096 253.374 757.962 253.158 757.806C252.947 757.649 252.784 757.465 252.669 757.253C252.555 757.042 252.498 756.794 252.498 756.511C252.498 756.24 252.557 755.984 252.676 755.743C252.799 755.501 252.97 755.288 253.19 755.102C253.414 754.915 253.683 754.769 253.996 754.664C254.309 754.558 254.658 754.505 255.043 754.505C255.594 754.505 256.063 754.602 256.453 754.797C256.842 754.992 257.14 755.252 257.348 755.578C257.555 755.899 257.659 756.257 257.659 756.65H256.484C256.484 756.46 256.427 756.276 256.313 756.098C256.203 755.916 256.04 755.766 255.824 755.647C255.613 755.529 255.352 755.47 255.043 755.47C254.718 755.47 254.453 755.521 254.25 755.622C254.051 755.719 253.905 755.844 253.812 755.997C253.723 756.149 253.679 756.31 253.679 756.479C253.679 756.606 253.7 756.72 253.742 756.822C253.789 756.919 253.869 757.01 253.983 757.095C254.098 757.175 254.258 757.251 254.466 757.323C254.673 757.395 254.938 757.467 255.259 757.539C255.822 757.666 256.285 757.818 256.649 757.996C257.013 758.174 257.284 758.392 257.462 758.65C257.64 758.908 257.729 759.221 257.729 759.589C257.729 759.89 257.665 760.165 257.538 760.415C257.415 760.664 257.236 760.88 256.999 761.062C256.766 761.24 256.486 761.379 256.161 761.481C255.839 761.578 255.477 761.627 255.075 761.627C254.47 761.627 253.958 761.519 253.539 761.303C253.12 761.087 252.803 760.808 252.587 760.465C252.371 760.123 252.263 759.761 252.263 759.38H253.444C253.461 759.701 253.554 759.958 253.723 760.148C253.892 760.334 254.1 760.467 254.345 760.548C254.591 760.624 254.834 760.662 255.075 760.662C255.397 760.662 255.666 760.62 255.881 760.535C256.101 760.451 256.269 760.334 256.383 760.186C256.497 760.038 256.554 759.869 256.554 759.678ZM260.445 751.75V761.5H259.271V751.75H260.445ZM260.166 757.806L259.677 757.787C259.681 757.317 259.751 756.883 259.887 756.485C260.022 756.083 260.213 755.734 260.458 755.438C260.703 755.142 260.995 754.913 261.334 754.752C261.677 754.587 262.056 754.505 262.47 754.505C262.809 754.505 263.113 754.551 263.384 754.645C263.655 754.733 263.886 754.877 264.076 755.076C264.271 755.275 264.419 755.533 264.521 755.851C264.622 756.164 264.673 756.547 264.673 757V761.5H263.492V756.987C263.492 756.627 263.439 756.339 263.333 756.124C263.228 755.903 263.073 755.745 262.87 755.647C262.667 755.546 262.417 755.495 262.121 755.495C261.829 755.495 261.562 755.556 261.321 755.679C261.084 755.802 260.879 755.971 260.706 756.187C260.536 756.403 260.403 756.65 260.306 756.93C260.213 757.205 260.166 757.497 260.166 757.806Z" fill="black"/>
</g>
<g filter="url(#filter43_d_278_1792)">
<rect x="364" y="737" width="30" height="40" rx="6" fill="#CCCED5"/>
<path d="M377.585 764.899C377.585 764.548 377.694 764.252 377.911 764.012C378.135 763.765 378.457 763.642 378.876 763.642C379.296 763.642 379.614 763.765 379.831 764.012C380.056 764.252 380.168 764.548 380.168 764.899C380.168 765.244 380.056 765.536 379.831 765.775C379.614 766.015 379.296 766.135 378.876 766.135C378.457 766.135 378.135 766.015 377.911 765.775C377.694 765.536 377.585 765.244 377.585 764.899Z" fill="black"/>
</g>
<g filter="url(#filter44_d_278_1792)">
<rect x="398" y="737" width="48" height="40" rx="6" fill="#CCCED5"/>
<mask id="mask1_278_1792" style="mask-type:alpha" maskUnits="userSpaceOnUse" x="408" y="743" width="28" height="28">
<rect x="408" y="743" width="28" height="28" fill="#D9D9D9"/>
</mask>
<g mask="url(#mask1_278_1792)">
<path d="M419.083 761.667C416.964 761.667 415.17 760.933 413.702 759.465C412.234 757.997 411.5 756.203 411.5 754.083C411.5 751.964 412.234 750.17 413.702 748.702C415.17 747.234 416.964 746.5 419.083 746.5C421.203 746.5 422.997 747.234 424.465 748.702C425.933 750.17 426.667 751.964 426.667 754.083C426.667 754.939 426.531 755.746 426.258 756.504C425.986 757.262 425.617 757.933 425.15 758.517L431.683 765.05C431.897 765.264 432.004 765.536 432.004 765.867C432.004 766.197 431.897 766.469 431.683 766.683C431.469 766.897 431.197 767.004 430.867 767.004C430.536 767.004 430.264 766.897 430.05 766.683L423.517 760.15C422.933 760.617 422.262 760.986 421.504 761.258C420.746 761.531 419.939 761.667 419.083 761.667ZM419.083 759.333C420.542 759.333 421.781 758.823 422.802 757.802C423.823 756.781 424.333 755.542 424.333 754.083C424.333 752.625 423.823 751.385 422.802 750.365C421.781 749.344 420.542 748.833 419.083 748.833C417.625 748.833 416.385 749.344 415.365 750.365C414.344 751.385 413.833 752.625 413.833 754.083C413.833 755.542 414.344 756.781 415.365 757.802C416.385 758.823 417.625 759.333 419.083 759.333Z" fill="#3D3D3F"/>
</g>
</g>
<rect width="450" height="70" transform="translate(0 781)" fill="#E8EAED"/>
<defs>
<filter id="filter0_d_278_1792" x="10" y="495" width="34" height="34" filterUnits="userSpaceOnUse" color-interpolation-filters="sRGB">
<feFlood flood-opacity="0" result="BackgroundImageFix"/>
<feColorMatrix in="SourceAlpha" type="matrix" values="0 0 0 0 0 0 0 0 0 0 0 0 0 0 0 0 0 0 127 0" result="hardAlpha"/>
<feOffset dy="1"/>
<feGaussianBlur stdDeviation="1"/>
<feColorMatrix type="matrix" values="0 0 0 0 0 0 0 0 0 0 0 0 0 0 0 0 0 0 0.27 0"/>
<feBlend mode="normal" in2="BackgroundImageFix" result="effect1_dropShadow_278_1792"/>
<feBlend mode="normal" in="SourceGraphic" in2="effect1_dropShadow_278_1792" result="shape"/>
</filter>
<filter id="filter1_d_278_1792" x="4" y="537" width="40.5996" height="41" filterUnits="userSpaceOnUse" color-interpolation-filters="sRGB">
<feFlood flood-opacity="0" result="BackgroundImageFix"/>
<feColorMatrix in="SourceAlpha" type="matrix" values="0 0 0 0 0 0 0 0 0 0 0 0 0 0 0 0 0 0 127 0" result="hardAlpha"/>
<feOffset dy="1"/>
<feColorMatrix type="matrix" values="0 0 0 0 0 0 0 0 0 0 0 0 0 0 0 0 0 0 0.27 0"/>
<feBlend mode="normal" in2="BackgroundImageFix" result="effect1_dropShadow_278_1792"/>
<feBlend mode="normal" in="SourceGraphic" in2="effect1_dropShadow_278_1792" result="shape"/>
</filter>
<filter id="filter2_d_278_1792" x="48.5996" y="537" width="40.5996" height="41" filterUnits="userSpaceOnUse" color-interpolation-filters="sRGB">
<feFlood flood-opacity="0" result="BackgroundImageFix"/>
<feColorMatrix in="SourceAlpha" type="matrix" values="0 0 0 0 0 0 0 0 0 0 0 0 0 0 0 0 0 0 127 0" result="hardAlpha"/>
<feOffset dy="1"/>
<feColorMatrix type="matrix" values="0 0 0 0 0 0 0 0 0 0 0 0 0 0 0 0 0 0 0.27 0"/>
<feBlend mode="normal" in2="BackgroundImageFix" result="effect1_dropShadow_278_1792"/>
<feBlend mode="normal" in="SourceGraphic" in2="effect1_dropShadow_278_1792" result="shape"/>
</filter>
<filter id="filter3_d_278_1792" x="93.2002" y="537" width="40.5996" height="41" filterUnits="userSpaceOnUse" color-interpolation-filters="sRGB">
<feFlood flood-opacity="0" result="BackgroundImageFix"/>
<feColorMatrix in="SourceAlpha" type="matrix" values="0 0 0 0 0 0 0 0 0 0 0 0 0 0 0 0 0 0 127 0" result="hardAlpha"/>
<feOffset dy="1"/>
<feColorMatrix type="matrix" values="0 0 0 0 0 0 0 0 0 0 0 0 0 0 0 0 0 0 0.27 0"/>
<feBlend mode="normal" in2="BackgroundImageFix" result="effect1_dropShadow_278_1792"/>
<feBlend mode="normal" in="SourceGraphic" in2="effect1_dropShadow_278_1792" result="shape"/>
</filter>
<filter id="filter4_d_278_1792" x="137.8" y="537" width="40.5996" height="41" filterUnits="userSpaceOnUse" color-interpolation-filters="sRGB">
<feFlood flood-opacity="0" result="BackgroundImageFix"/>
<feColorMatrix in="SourceAlpha" type="matrix" values="0 0 0 0 0 0 0 0 0 0 0 0 0 0 0 0 0 0 127 0" result="hardAlpha"/>
<feOffset dy="1"/>
<feColorMatrix type="matrix" values="0 0 0 0 0 0 0 0 0 0 0 0 0 0 0 0 0 0 0.27 0"/>
<feBlend mode="normal" in2="BackgroundImageFix" result="effect1_dropShadow_278_1792"/>
<feBlend mode="normal" in="SourceGraphic" in2="effect1_dropShadow_278_1792" result="shape"/>
</filter>
<filter id="filter5_d_278_1792" x="182.4" y="537" width="40.5996" height="41" filterUnits="userSpaceOnUse" color-interpolation-filters="sRGB">
<feFlood flood-opacity="0" result="BackgroundImageFix"/>
<feColorMatrix in="SourceAlpha" type="matrix" values="0 0 0 0 0 0 0 0 0 0 0 0 0 0 0 0 0 0 127 0" result="hardAlpha"/>
<feOffset dy="1"/>
<feColorMatrix type="matrix" values="0 0 0 0 0 0 0 0 0 0 0 0 0 0 0 0 0 0 0.27 0"/>
<feBlend mode="normal" in2="BackgroundImageFix" result="effect1_dropShadow_278_1792"/>
<feBlend mode="normal" in="SourceGraphic" in2="effect1_dropShadow_278_1792" result="shape"/>
</filter>
<filter id="filter6_d_278_1792" x="227" y="537" width="40.5996" height="41" filterUnits="userSpaceOnUse" color-interpolation-filters="sRGB">
<feFlood flood-opacity="0" result="BackgroundImageFix"/>
<feColorMatrix in="SourceAlpha" type="matrix" values="0 0 0 0 0 0 0 0 0 0 0 0 0 0 0 0 0 0 127 0" result="hardAlpha"/>
<feOffset dy="1"/>
<feColorMatrix type="matrix" values="0 0 0 0 0 0 0 0 0 0 0 0 0 0 0 0 0 0 0.27 0"/>
<feBlend mode="normal" in2="BackgroundImageFix" result="effect1_dropShadow_278_1792"/>
<feBlend mode="normal" in="SourceGraphic" in2="effect1_dropShadow_278_1792" result="shape"/>
</filter>
<filter id="filter7_d_278_1792" x="271.6" y="537" width="40.5996" height="41" filterUnits="userSpaceOnUse" color-interpolation-filters="sRGB">
<feFlood flood-opacity="0" result="BackgroundImageFix"/>
<feColorMatrix in="SourceAlpha" type="matrix" values="0 0 0 0 0 0 0 0 0 0 0 0 0 0 0 0 0 0 127 0" result="hardAlpha"/>
<feOffset dy="1"/>
<feColorMatrix type="matrix" values="0 0 0 0 0 0 0 0 0 0 0 0 0 0 0 0 0 0 0.27 0"/>
<feBlend mode="normal" in2="BackgroundImageFix" result="effect1_dropShadow_278_1792"/>
<feBlend mode="normal" in="SourceGraphic" in2="effect1_dropShadow_278_1792" result="shape"/>
</filter>
<filter id="filter8_d_278_1792" x="316.2" y="537" width="40.5996" height="41" filterUnits="userSpaceOnUse" color-interpolation-filters="sRGB">
<feFlood flood-opacity="0" result="BackgroundImageFix"/>
<feColorMatrix in="SourceAlpha" type="matrix" values="0 0 0 0 0 0 0 0 0 0 0 0 0 0 0 0 0 0 127 0" result="hardAlpha"/>
<feOffset dy="1"/>
<feColorMatrix type="matrix" values="0 0 0 0 0 0 0 0 0 0 0 0 0 0 0 0 0 0 0.27 0"/>
<feBlend mode="normal" in2="BackgroundImageFix" result="effect1_dropShadow_278_1792"/>
<feBlend mode="normal" in="SourceGraphic" in2="effect1_dropShadow_278_1792" result="shape"/>
</filter>
<filter id="filter9_d_278_1792" x="360.8" y="537" width="40.5996" height="41" filterUnits="userSpaceOnUse" color-interpolation-filters="sRGB">
<feFlood flood-opacity="0" result="BackgroundImageFix"/>
<feColorMatrix in="SourceAlpha" type="matrix" values="0 0 0 0 0 0 0 0 0 0 0 0 0 0 0 0 0 0 127 0" result="hardAlpha"/>
<feOffset dy="1"/>
<feColorMatrix type="matrix" values="0 0 0 0 0 0 0 0 0 0 0 0 0 0 0 0 0 0 0.27 0"/>
<feBlend mode="normal" in2="BackgroundImageFix" result="effect1_dropShadow_278_1792"/>
<feBlend mode="normal" in="SourceGraphic" in2="effect1_dropShadow_278_1792" result="shape"/>
</filter>
<filter id="filter10_d_278_1792" x="405.4" y="537" width="40.5996" height="41" filterUnits="userSpaceOnUse" color-interpolation-filters="sRGB">
<feFlood flood-opacity="0" result="BackgroundImageFix"/>
<feColorMatrix in="SourceAlpha" type="matrix" values="0 0 0 0 0 0 0 0 0 0 0 0 0 0 0 0 0 0 127 0" result="hardAlpha"/>
<feOffset dy="1"/>
<feColorMatrix type="matrix" values="0 0 0 0 0 0 0 0 0 0 0 0 0 0 0 0 0 0 0.27 0"/>
<feBlend mode="normal" in2="BackgroundImageFix" result="effect1_dropShadow_278_1792"/>
<feBlend mode="normal" in="SourceGraphic" in2="effect1_dropShadow_278_1792" result="shape"/>
</filter>
<filter id="filter11_d_278_1792" x="4" y="587" width="40.5996" height="41" filterUnits="userSpaceOnUse" color-interpolation-filters="sRGB">
<feFlood flood-opacity="0" result="BackgroundImageFix"/>
<feColorMatrix in="SourceAlpha" type="matrix" values="0 0 0 0 0 0 0 0 0 0 0 0 0 0 0 0 0 0 127 0" result="hardAlpha"/>
<feOffset dy="1"/>
<feColorMatrix type="matrix" values="0 0 0 0 0 0 0 0 0 0 0 0 0 0 0 0 0 0 0.27 0"/>
<feBlend mode="normal" in2="BackgroundImageFix" result="effect1_dropShadow_278_1792"/>
<feBlend mode="normal" in="SourceGraphic" in2="effect1_dropShadow_278_1792" result="shape"/>
</filter>
<filter id="filter12_d_278_1792" x="48.5996" y="587" width="40.5996" height="41" filterUnits="userSpaceOnUse" color-interpolation-filters="sRGB">
<feFlood flood-opacity="0" result="BackgroundImageFix"/>
<feColorMatrix in="SourceAlpha" type="matrix" values="0 0 0 0 0 0 0 0 0 0 0 0 0 0 0 0 0 0 127 0" result="hardAlpha"/>
<feOffset dy="1"/>
<feColorMatrix type="matrix" values="0 0 0 0 0 0 0 0 0 0 0 0 0 0 0 0 0 0 0.27 0"/>
<feBlend mode="normal" in2="BackgroundImageFix" result="effect1_dropShadow_278_1792"/>
<feBlend mode="normal" in="SourceGraphic" in2="effect1_dropShadow_278_1792" result="shape"/>
</filter>
<filter id="filter13_d_278_1792" x="93.2002" y="587" width="40.5996" height="41" filterUnits="userSpaceOnUse" color-interpolation-filters="sRGB">
<feFlood flood-opacity="0" result="BackgroundImageFix"/>
<feColorMatrix in="SourceAlpha" type="matrix" values="0 0 0 0 0 0 0 0 0 0 0 0 0 0 0 0 0 0 127 0" result="hardAlpha"/>
<feOffset dy="1"/>
<feColorMatrix type="matrix" values="0 0 0 0 0 0 0 0 0 0 0 0 0 0 0 0 0 0 0.27 0"/>
<feBlend mode="normal" in2="BackgroundImageFix" result="effect1_dropShadow_278_1792"/>
<feBlend mode="normal" in="SourceGraphic" in2="effect1_dropShadow_278_1792" result="shape"/>
</filter>
<filter id="filter14_d_278_1792" x="137.8" y="587" width="40.5996" height="41" filterUnits="userSpaceOnUse" color-interpolation-filters="sRGB">
<feFlood flood-opacity="0" result="BackgroundImageFix"/>
<feColorMatrix in="SourceAlpha" type="matrix" values="0 0 0 0 0 0 0 0 0 0 0 0 0 0 0 0 0 0 127 0" result="hardAlpha"/>
<feOffset dy="1"/>
<feColorMatrix type="matrix" values="0 0 0 0 0 0 0 0 0 0 0 0 0 0 0 0 0 0 0.27 0"/>
<feBlend mode="normal" in2="BackgroundImageFix" result="effect1_dropShadow_278_1792"/>
<feBlend mode="normal" in="SourceGraphic" in2="effect1_dropShadow_278_1792" result="shape"/>
</filter>
<filter id="filter15_d_278_1792" x="182.4" y="587" width="40.5996" height="41" filterUnits="userSpaceOnUse" color-interpolation-filters="sRGB">
<feFlood flood-opacity="0" result="BackgroundImageFix"/>
<feColorMatrix in="SourceAlpha" type="matrix" values="0 0 0 0 0 0 0 0 0 0 0 0 0 0 0 0 0 0 127 0" result="hardAlpha"/>
<feOffset dy="1"/>
<feColorMatrix type="matrix" values="0 0 0 0 0 0 0 0 0 0 0 0 0 0 0 0 0 0 0.27 0"/>
<feBlend mode="normal" in2="BackgroundImageFix" result="effect1_dropShadow_278_1792"/>
<feBlend mode="normal" in="SourceGraphic" in2="effect1_dropShadow_278_1792" result="shape"/>
</filter>
<filter id="filter16_d_278_1792" x="227" y="587" width="40.5996" height="41" filterUnits="userSpaceOnUse" color-interpolation-filters="sRGB">
<feFlood flood-opacity="0" result="BackgroundImageFix"/>
<feColorMatrix in="SourceAlpha" type="matrix" values="0 0 0 0 0 0 0 0 0 0 0 0 0 0 0 0 0 0 127 0" result="hardAlpha"/>
<feOffset dy="1"/>
<feColorMatrix type="matrix" values="0 0 0 0 0 0 0 0 0 0 0 0 0 0 0 0 0 0 0.27 0"/>
<feBlend mode="normal" in2="BackgroundImageFix" result="effect1_dropShadow_278_1792"/>
<feBlend mode="normal" in="SourceGraphic" in2="effect1_dropShadow_278_1792" result="shape"/>
</filter>
<filter id="filter17_d_278_1792" x="271.6" y="587" width="40.5996" height="41" filterUnits="userSpaceOnUse" color-interpolation-filters="sRGB">
<feFlood flood-opacity="0" result="BackgroundImageFix"/>
<feColorMatrix in="SourceAlpha" type="matrix" values="0 0 0 0 0 0 0 0 0 0 0 0 0 0 0 0 0 0 127 0" result="hardAlpha"/>
<feOffset dy="1"/>
<feColorMatrix type="matrix" values="0 0 0 0 0 0 0 0 0 0 0 0 0 0 0 0 0 0 0.27 0"/>
<feBlend mode="normal" in2="BackgroundImageFix" result="effect1_dropShadow_278_1792"/>
<feBlend mode="normal" in="SourceGraphic" in2="effect1_dropShadow_278_1792" result="shape"/>
</filter>
<filter id="filter18_d_278_1792" x="316.2" y="587" width="40.5996" height="41" filterUnits="userSpaceOnUse" color-interpolation-filters="sRGB">
<feFlood flood-opacity="0" result="BackgroundImageFix"/>
<feColorMatrix in="SourceAlpha" type="matrix" values="0 0 0 0 0 0 0 0 0 0 0 0 0 0 0 0 0 0 127 0" result="hardAlpha"/>
<feOffset dy="1"/>
<feColorMatrix type="matrix" values="0 0 0 0 0 0 0 0 0 0 0 0 0 0 0 0 0 0 0.27 0"/>
<feBlend mode="normal" in2="BackgroundImageFix" result="effect1_dropShadow_278_1792"/>
<feBlend mode="normal" in="SourceGraphic" in2="effect1_dropShadow_278_1792" result="shape"/>
</filter>
<filter id="filter19_d_278_1792" x="360.8" y="587" width="40.5996" height="41" filterUnits="userSpaceOnUse" color-interpolation-filters="sRGB">
<feFlood flood-opacity="0" result="BackgroundImageFix"/>
<feColorMatrix in="SourceAlpha" type="matrix" values="0 0 0 0 0 0 0 0 0 0 0 0 0 0 0 0 0 0 127 0" result="hardAlpha"/>
<feOffset dy="1"/>
<feColorMatrix type="matrix" values="0 0 0 0 0 0 0 0 0 0 0 0 0 0 0 0 0 0 0.27 0"/>
<feBlend mode="normal" in2="BackgroundImageFix" result="effect1_dropShadow_278_1792"/>
<feBlend mode="normal" in="SourceGraphic" in2="effect1_dropShadow_278_1792" result="shape"/>
</filter>
<filter id="filter20_d_278_1792" x="405.4" y="587" width="40.5996" height="41" filterUnits="userSpaceOnUse" color-interpolation-filters="sRGB">
<feFlood flood-opacity="0" result="BackgroundImageFix"/>
<feColorMatrix in="SourceAlpha" type="matrix" values="0 0 0 0 0 0 0 0 0 0 0 0 0 0 0 0 0 0 127 0" result="hardAlpha"/>
<feOffset dy="1"/>
<feColorMatrix type="matrix" values="0 0 0 0 0 0 0 0 0 0 0 0 0 0 0 0 0 0 0.27 0"/>
<feBlend mode="normal" in2="BackgroundImageFix" result="effect1_dropShadow_278_1792"/>
<feBlend mode="normal" in="SourceGraphic" in2="effect1_dropShadow_278_1792" result="shape"/>
</filter>
<filter id="filter21_d_278_1792" x="22" y="637" width="41.5557" height="41" filterUnits="userSpaceOnUse" color-interpolation-filters="sRGB">
<feFlood flood-opacity="0" result="BackgroundImageFix"/>
<feColorMatrix in="SourceAlpha" type="matrix" values="0 0 0 0 0 0 0 0 0 0 0 0 0 0 0 0 0 0 127 0" result="hardAlpha"/>
<feOffset dy="1"/>
<feColorMatrix type="matrix" values="0 0 0 0 0 0 0 0 0 0 0 0 0 0 0 0 0 0 0.27 0"/>
<feBlend mode="normal" in2="BackgroundImageFix" result="effect1_dropShadow_278_1792"/>
<feBlend mode="normal" in="SourceGraphic" in2="effect1_dropShadow_278_1792" result="shape"/>
</filter>
<filter id="filter22_d_278_1792" x="67.5557" y="637" width="41.5557" height="41" filterUnits="userSpaceOnUse" color-interpolation-filters="sRGB">
<feFlood flood-opacity="0" result="BackgroundImageFix"/>
<feColorMatrix in="SourceAlpha" type="matrix" values="0 0 0 0 0 0 0 0 0 0 0 0 0 0 0 0 0 0 127 0" result="hardAlpha"/>
<feOffset dy="1"/>
<feColorMatrix type="matrix" values="0 0 0 0 0 0 0 0 0 0 0 0 0 0 0 0 0 0 0.27 0"/>
<feBlend mode="normal" in2="BackgroundImageFix" result="effect1_dropShadow_278_1792"/>
<feBlend mode="normal" in="SourceGraphic" in2="effect1_dropShadow_278_1792" result="shape"/>
</filter>
<filter id="filter23_d_278_1792" x="113.111" y="637" width="41.5557" height="41" filterUnits="userSpaceOnUse" color-interpolation-filters="sRGB">
<feFlood flood-opacity="0" result="BackgroundImageFix"/>
<feColorMatrix in="SourceAlpha" type="matrix" values="0 0 0 0 0 0 0 0 0 0 0 0 0 0 0 0 0 0 127 0" result="hardAlpha"/>
<feOffset dy="1"/>
<feColorMatrix type="matrix" values="0 0 0 0 0 0 0 0 0 0 0 0 0 0 0 0 0 0 0.27 0"/>
<feBlend mode="normal" in2="BackgroundImageFix" result="effect1_dropShadow_278_1792"/>
<feBlend mode="normal" in="SourceGraphic" in2="effect1_dropShadow_278_1792" result="shape"/>
</filter>
<filter id="filter24_d_278_1792" x="158.667" y="637" width="41.5557" height="41" filterUnits="userSpaceOnUse" color-interpolation-filters="sRGB">
<feFlood flood-opacity="0" result="BackgroundImageFix"/>
<feColorMatrix in="SourceAlpha" type="matrix" values="0 0 0 0 0 0 0 0 0 0 0 0 0 0 0 0 0 0 127 0" result="hardAlpha"/>
<feOffset dy="1"/>
<feColorMatrix type="matrix" values="0 0 0 0 0 0 0 0 0 0 0 0 0 0 0 0 0 0 0.27 0"/>
<feBlend mode="normal" in2="BackgroundImageFix" result="effect1_dropShadow_278_1792"/>
<feBlend mode="normal" in="SourceGraphic" in2="effect1_dropShadow_278_1792" result="shape"/>
</filter>
<filter id="filter25_d_278_1792" x="204.223" y="637" width="41.5557" height="41" filterUnits="userSpaceOnUse" color-interpolation-filters="sRGB">
<feFlood flood-opacity="0" result="BackgroundImageFix"/>
<feColorMatrix in="SourceAlpha" type="matrix" values="0 0 0 0 0 0 0 0 0 0 0 0 0 0 0 0 0 0 127 0" result="hardAlpha"/>
<feOffset dy="1"/>
<feColorMatrix type="matrix" values="0 0 0 0 0 0 0 0 0 0 0 0 0 0 0 0 0 0 0.27 0"/>
<feBlend mode="normal" in2="BackgroundImageFix" result="effect1_dropShadow_278_1792"/>
<feBlend mode="normal" in="SourceGraphic" in2="effect1_dropShadow_278_1792" result="shape"/>
</filter>
<filter id="filter26_d_278_1792" x="249.777" y="637" width="41.5557" height="41" filterUnits="userSpaceOnUse" color-interpolation-filters="sRGB">
<feFlood flood-opacity="0" result="BackgroundImageFix"/>
<feColorMatrix in="SourceAlpha" type="matrix" values="0 0 0 0 0 0 0 0 0 0 0 0 0 0 0 0 0 0 127 0" result="hardAlpha"/>
<feOffset dy="1"/>
<feColorMatrix type="matrix" values="0 0 0 0 0 0 0 0 0 0 0 0 0 0 0 0 0 0 0.27 0"/>
<feBlend mode="normal" in2="BackgroundImageFix" result="effect1_dropShadow_278_1792"/>
<feBlend mode="normal" in="SourceGraphic" in2="effect1_dropShadow_278_1792" result="shape"/>
</filter>
<filter id="filter27_d_278_1792" x="295.333" y="637" width="41.5557" height="41" filterUnits="userSpaceOnUse" color-interpolation-filters="sRGB">
<feFlood flood-opacity="0" result="BackgroundImageFix"/>
<feColorMatrix in="SourceAlpha" type="matrix" values="0 0 0 0 0 0 0 0 0 0 0 0 0 0 0 0 0 0 127 0" result="hardAlpha"/>
<feOffset dy="1"/>
<feColorMatrix type="matrix" values="0 0 0 0 0 0 0 0 0 0 0 0 0 0 0 0 0 0 0.27 0"/>
<feBlend mode="normal" in2="BackgroundImageFix" result="effect1_dropShadow_278_1792"/>
<feBlend mode="normal" in="SourceGraphic" in2="effect1_dropShadow_278_1792" result="shape"/>
</filter>
<filter id="filter28_d_278_1792" x="340.889" y="637" width="41.5557" height="41" filterUnits="userSpaceOnUse" color-interpolation-filters="sRGB">
<feFlood flood-opacity="0" result="BackgroundImageFix"/>
<feColorMatrix in="SourceAlpha" type="matrix" values="0 0 0 0 0 0 0 0 0 0 0 0 0 0 0 0 0 0 127 0" result="hardAlpha"/>
<feOffset dy="1"/>
<feColorMatrix type="matrix" values="0 0 0 0 0 0 0 0 0 0 0 0 0 0 0 0 0 0 0.27 0"/>
<feBlend mode="normal" in2="BackgroundImageFix" result="effect1_dropShadow_278_1792"/>
<feBlend mode="normal" in="SourceGraphic" in2="effect1_dropShadow_278_1792" result="shape"/>
</filter>
<filter id="filter29_d_278_1792" x="386.444" y="637" width="41.5557" height="41" filterUnits="userSpaceOnUse" color-interpolation-filters="sRGB">
<feFlood flood-opacity="0" result="BackgroundImageFix"/>
<feColorMatrix in="SourceAlpha" type="matrix" values="0 0 0 0 0 0 0 0 0 0 0 0 0 0 0 0 0 0 127 0" result="hardAlpha"/>
<feOffset dy="1"/>
<feColorMatrix type="matrix" values="0 0 0 0 0 0 0 0 0 0 0 0 0 0 0 0 0 0 0.27 0"/>
<feBlend mode="normal" in2="BackgroundImageFix" result="effect1_dropShadow_278_1792"/>
<feBlend mode="normal" in="SourceGraphic" in2="effect1_dropShadow_278_1792" result="shape"/>
</filter>
<filter id="filter30_d_278_1792" x="4" y="687" width="48" height="41" filterUnits="userSpaceOnUse" color-interpolation-filters="sRGB">
<feFlood flood-opacity="0" result="BackgroundImageFix"/>
<feColorMatrix in="SourceAlpha" type="matrix" values="0 0 0 0 0 0 0 0 0 0 0 0 0 0 0 0 0 0 127 0" result="hardAlpha"/>
<feOffset dy="1"/>
<feColorMatrix type="matrix" values="0 0 0 0 0 0 0 0 0 0 0 0 0 0 0 0 0 0 0.27 0"/>
<feBlend mode="normal" in2="BackgroundImageFix" result="effect1_dropShadow_278_1792"/>
<feBlend mode="normal" in="SourceGraphic" in2="effect1_dropShadow_278_1792" result="shape"/>
</filter>
<filter id="filter31_d_278_1792" x="56" y="687" width="44.8574" height="41" filterUnits="userSpaceOnUse" color-interpolation-filters="sRGB">
<feFlood flood-opacity="0" result="BackgroundImageFix"/>
<feColorMatrix in="SourceAlpha" type="matrix" values="0 0 0 0 0 0 0 0 0 0 0 0 0 0 0 0 0 0 127 0" result="hardAlpha"/>
<feOffset dy="1"/>
<feColorMatrix type="matrix" values="0 0 0 0 0 0 0 0 0 0 0 0 0 0 0 0 0 0 0.27 0"/>
<feBlend mode="normal" in2="BackgroundImageFix" result="effect1_dropShadow_278_1792"/>
<feBlend mode="normal" in="SourceGraphic" in2="effect1_dropShadow_278_1792" result="shape"/>
</filter>
<filter id="filter32_d_278_1792" x="104.857" y="687" width="44.8574" height="41" filterUnits="userSpaceOnUse" color-interpolation-filters="sRGB">
<feFlood flood-opacity="0" result="BackgroundImageFix"/>
<feColorMatrix in="SourceAlpha" type="matrix" values="0 0 0 0 0 0 0 0 0 0 0 0 0 0 0 0 0 0 127 0" result="hardAlpha"/>
<feOffset dy="1"/>
<feColorMatrix type="matrix" values="0 0 0 0 0 0 0 0 0 0 0 0 0 0 0 0 0 0 0.27 0"/>
<feBlend mode="normal" in2="BackgroundImageFix" result="effect1_dropShadow_278_1792"/>
<feBlend mode="normal" in="SourceGraphic" in2="effect1_dropShadow_278_1792" result="shape"/>
</filter>
<filter id="filter33_d_278_1792" x="153.714" y="687" width="44.8574" height="41" filterUnits="userSpaceOnUse" color-interpolation-filters="sRGB">
<feFlood flood-opacity="0" result="BackgroundImageFix"/>
<feColorMatrix in="SourceAlpha" type="matrix" values="0 0 0 0 0 0 0 0 0 0 0 0 0 0 0 0 0 0 127 0" result="hardAlpha"/>
<feOffset dy="1"/>
<feColorMatrix type="matrix" values="0 0 0 0 0 0 0 0 0 0 0 0 0 0 0 0 0 0 0.27 0"/>
<feBlend mode="normal" in2="BackgroundImageFix" result="effect1_dropShadow_278_1792"/>
<feBlend mode="normal" in="SourceGraphic" in2="effect1_dropShadow_278_1792" result="shape"/>
</filter>
<filter id="filter34_d_278_1792" x="202.571" y="687" width="44.8574" height="41" filterUnits="userSpaceOnUse" color-interpolation-filters="sRGB">
<feFlood flood-opacity="0" result="BackgroundImageFix"/>
<feColorMatrix in="SourceAlpha" type="matrix" values="0 0 0 0 0 0 0 0 0 0 0 0 0 0 0 0 0 0 127 0" result="hardAlpha"/>
<feOffset dy="1"/>
<feColorMatrix type="matrix" values="0 0 0 0 0 0 0 0 0 0 0 0 0 0 0 0 0 0 0.27 0"/>
<feBlend mode="normal" in2="BackgroundImageFix" result="effect1_dropShadow_278_1792"/>
<feBlend mode="normal" in="SourceGraphic" in2="effect1_dropShadow_278_1792" result="shape"/>
</filter>
<filter id="filter35_d_278_1792" x="251.429" y="687" width="44.8574" height="41" filterUnits="userSpaceOnUse" color-interpolation-filters="sRGB">
<feFlood flood-opacity="0" result="BackgroundImageFix"/>
<feColorMatrix in="SourceAlpha" type="matrix" values="0 0 0 0 0 0 0 0 0 0 0 0 0 0 0 0 0 0 127 0" result="hardAlpha"/>
<feOffset dy="1"/>
<feColorMatrix type="matrix" values="0 0 0 0 0 0 0 0 0 0 0 0 0 0 0 0 0 0 0.27 0"/>
<feBlend mode="normal" in2="BackgroundImageFix" result="effect1_dropShadow_278_1792"/>
<feBlend mode="normal" in="SourceGraphic" in2="effect1_dropShadow_278_1792" result="shape"/>
</filter>
<filter id="filter36_d_278_1792" x="300.286" y="687" width="44.8574" height="41" filterUnits="userSpaceOnUse" color-interpolation-filters="sRGB">
<feFlood flood-opacity="0" result="BackgroundImageFix"/>
<feColorMatrix in="SourceAlpha" type="matrix" values="0 0 0 0 0 0 0 0 0 0 0 0 0 0 0 0 0 0 127 0" result="hardAlpha"/>
<feOffset dy="1"/>
<feColorMatrix type="matrix" values="0 0 0 0 0 0 0 0 0 0 0 0 0 0 0 0 0 0 0.27 0"/>
<feBlend mode="normal" in2="BackgroundImageFix" result="effect1_dropShadow_278_1792"/>
<feBlend mode="normal" in="SourceGraphic" in2="effect1_dropShadow_278_1792" result="shape"/>
</filter>
<filter id="filter37_d_278_1792" x="349.143" y="687" width="44.8574" height="41" filterUnits="userSpaceOnUse" color-interpolation-filters="sRGB">
<feFlood flood-opacity="0" result="BackgroundImageFix"/>
<feColorMatrix in="SourceAlpha" type="matrix" values="0 0 0 0 0 0 0 0 0 0 0 0 0 0 0 0 0 0 127 0" result="hardAlpha"/>
<feOffset dy="1"/>
<feColorMatrix type="matrix" values="0 0 0 0 0 0 0 0 0 0 0 0 0 0 0 0 0 0 0.27 0"/>
<feBlend mode="normal" in2="BackgroundImageFix" result="effect1_dropShadow_278_1792"/>
<feBlend mode="normal" in="SourceGraphic" in2="effect1_dropShadow_278_1792" result="shape"/>
</filter>
<filter id="filter38_d_278_1792" x="398" y="687" width="48" height="41" filterUnits="userSpaceOnUse" color-interpolation-filters="sRGB">
<feFlood flood-opacity="0" result="BackgroundImageFix"/>
<feColorMatrix in="SourceAlpha" type="matrix" values="0 0 0 0 0 0 0 0 0 0 0 0 0 0 0 0 0 0 127 0" result="hardAlpha"/>
<feOffset dy="1"/>
<feColorMatrix type="matrix" values="0 0 0 0 0 0 0 0 0 0 0 0 0 0 0 0 0 0 0.27 0"/>
<feBlend mode="normal" in2="BackgroundImageFix" result="effect1_dropShadow_278_1792"/>
<feBlend mode="normal" in="SourceGraphic" in2="effect1_dropShadow_278_1792" result="shape"/>
</filter>
<filter id="filter39_d_278_1792" x="4" y="737" width="53" height="41" filterUnits="userSpaceOnUse" color-interpolation-filters="sRGB">
<feFlood flood-opacity="0" result="BackgroundImageFix"/>
<feColorMatrix in="SourceAlpha" type="matrix" values="0 0 0 0 0 0 0 0 0 0 0 0 0 0 0 0 0 0 127 0" result="hardAlpha"/>
<feOffset dy="1"/>
<feColorMatrix type="matrix" values="0 0 0 0 0 0 0 0 0 0 0 0 0 0 0 0 0 0 0.27 0"/>
<feBlend mode="normal" in2="BackgroundImageFix" result="effect1_dropShadow_278_1792"/>
<feBlend mode="normal" in="SourceGraphic" in2="effect1_dropShadow_278_1792" result="shape"/>
</filter>
<filter id="filter40_d_278_1792" x="61" y="737" width="30" height="41" filterUnits="userSpaceOnUse" color-interpolation-filters="sRGB">
<feFlood flood-opacity="0" result="BackgroundImageFix"/>
<feColorMatrix in="SourceAlpha" type="matrix" values="0 0 0 0 0 0 0 0 0 0 0 0 0 0 0 0 0 0 127 0" result="hardAlpha"/>
<feOffset dy="1"/>
<feColorMatrix type="matrix" values="0 0 0 0 0 0 0 0 0 0 0 0 0 0 0 0 0 0 0.27 0"/>
<feBlend mode="normal" in2="BackgroundImageFix" result="effect1_dropShadow_278_1792"/>
<feBlend mode="normal" in="SourceGraphic" in2="effect1_dropShadow_278_1792" result="shape"/>
</filter>
<filter id="filter41_d_278_1792" x="95" y="737" width="30" height="41" filterUnits="userSpaceOnUse" color-interpolation-filters="sRGB">
<feFlood flood-opacity="0" result="BackgroundImageFix"/>
<feColorMatrix in="SourceAlpha" type="matrix" values="0 0 0 0 0 0 0 0 0 0 0 0 0 0 0 0 0 0 127 0" result="hardAlpha"/>
<feOffset dy="1"/>
<feColorMatrix type="matrix" values="0 0 0 0 0 0 0 0 0 0 0 0 0 0 0 0 0 0 0.27 0"/>
<feBlend mode="normal" in2="BackgroundImageFix" result="effect1_dropShadow_278_1792"/>
<feBlend mode="normal" in="SourceGraphic" in2="effect1_dropShadow_278_1792" result="shape"/>
</filter>
<filter id="filter42_d_278_1792" x="129" y="737" width="231" height="41" filterUnits="userSpaceOnUse" color-interpolation-filters="sRGB">
<feFlood flood-opacity="0" result="BackgroundImageFix"/>
<feColorMatrix in="SourceAlpha" type="matrix" values="0 0 0 0 0 0 0 0 0 0 0 0 0 0 0 0 0 0 127 0" result="hardAlpha"/>
<feOffset dy="1"/>
<feColorMatrix type="matrix" values="0 0 0 0 0 0 0 0 0 0 0 0 0 0 0 0 0 0 0.27 0"/>
<feBlend mode="normal" in2="BackgroundImageFix" result="effect1_dropShadow_278_1792"/>
<feBlend mode="normal" in="SourceGraphic" in2="effect1_dropShadow_278_1792" result="shape"/>
</filter>
<filter id="filter43_d_278_1792" x="364" y="737" width="30" height="41" filterUnits="userSpaceOnUse" color-interpolation-filters="sRGB">
<feFlood flood-opacity="0" result="BackgroundImageFix"/>
<feColorMatrix in="SourceAlpha" type="matrix" values="0 0 0 0 0 0 0 0 0 0 0 0 0 0 0 0 0 0 127 0" result="hardAlpha"/>
<feOffset dy="1"/>
<feColorMatrix type="matrix" values="0 0 0 0 0 0 0 0 0 0 0 0 0 0 0 0 0 0 0.27 0"/>
<feBlend mode="normal" in2="BackgroundImageFix" result="effect1_dropShadow_278_1792"/>
<feBlend mode="normal" in="SourceGraphic" in2="effect1_dropShadow_278_1792" result="shape"/>
</filter>
<filter id="filter44_d_278_1792" x="398" y="737" width="48" height="41" filterUnits="userSpaceOnUse" color-interpolation-filters="sRGB">
<feFlood flood-opacity="0" result="BackgroundImageFix"/>
<feColorMatrix in="SourceAlpha" type="matrix" values="0 0 0 0 0 0 0 0 0 0 0 0 0 0 0 0 0 0 127 0" result="hardAlpha"/>
<feOffset dy="1"/>
<feColorMatrix type="matrix" values="0 0 0 0 0 0 0 0 0 0 0 0 0 0 0 0 0 0 0.27 0"/>
<feBlend mode="normal" in2="BackgroundImageFix" result="effect1_dropShadow_278_1792"/>
<feBlend mode="normal" in="SourceGraphic" in2="effect1_dropShadow_278_1792" result="shape"/>
</filter>
<clipPath id="clip0_278_1792">
<rect width="24" height="24" fill="white" transform="translate(138.143 499)"/>
</clipPath>
</defs>
</svg>
