<svg width="450" height="851" viewBox="0 0 450 851" fill="none" xmlns="http://www.w3.org/2000/svg">
<rect width="450" height="851" fill="white"/>
<rect width="450" height="54" fill="white"/>
<mask id="mask0_278_1792" style="mask-type:alpha" maskUnits="userSpaceOnUse" x="14" y="14" width="26" height="26">
<rect x="14" y="14" width="26" height="26" fill="#D9D9D9"/>
</mask>
<g mask="url(#mask0_278_1792)">
<path d="M21.9874 27.8125L28.1584 33.9834L27 35.125L18.875 27L27 18.875L28.1584 20.0166L21.9874 26.1875H35.125V27.8125H21.9874Z" fill="#090909"/>
</g>
<rect x="56" y="10" width="338" height="34" rx="17" fill="#F2F2F2"/>
<path d="M73.942 35V29.888L69.982 21.806H71.746L73.456 25.532C73.672 26.024 73.882 26.504 74.086 26.972C74.29 27.44 74.512 27.926 74.752 28.43H74.824C75.064 27.926 75.292 27.44 75.508 26.972C75.724 26.504 75.94 26.024 76.156 25.532L77.848 21.806H79.576L75.598 29.888V35H73.942ZM83.7776 35.234C82.9856 35.234 82.2416 35.036 81.5456 34.64C80.8496 34.232 80.2916 33.65 79.8716 32.894C79.4636 32.126 79.2596 31.202 79.2596 30.122C79.2596 29.03 79.4636 28.106 79.8716 27.35C80.2916 26.582 80.8496 25.994 81.5456 25.586C82.2416 25.178 82.9856 24.974 83.7776 24.974C84.3776 24.974 84.9476 25.088 85.4876 25.316C86.0396 25.544 86.5256 25.88 86.9456 26.324C87.3656 26.768 87.6956 27.308 87.9356 27.944C88.1756 28.58 88.2956 29.306 88.2956 30.122C88.2956 31.202 88.0856 32.126 87.6656 32.894C87.2456 33.65 86.6936 34.232 86.0096 34.64C85.3256 35.036 84.5816 35.234 83.7776 35.234ZM83.7776 33.866C84.3416 33.866 84.8336 33.71 85.2536 33.398C85.6856 33.086 86.0216 32.648 86.2616 32.084C86.5016 31.52 86.6216 30.866 86.6216 30.122C86.6216 29.366 86.5016 28.706 86.2616 28.142C86.0216 27.578 85.6856 27.14 85.2536 26.828C84.8336 26.516 84.3416 26.36 83.7776 26.36C83.2136 26.36 82.7156 26.516 82.2836 26.828C81.8636 27.14 81.5336 27.578 81.2936 28.142C81.0656 28.706 80.9516 29.366 80.9516 30.122C80.9516 30.866 81.0656 31.52 81.2936 32.084C81.5336 32.648 81.8636 33.086 82.2836 33.398C82.7156 33.71 83.2136 33.866 83.7776 33.866ZM93.3976 35.234C92.3656 35.234 91.6036 34.91 91.1116 34.262C90.6316 33.614 90.3916 32.666 90.3916 31.418V25.226H92.0476V31.22C92.0476 32.12 92.1916 32.78 92.4796 33.2C92.7676 33.608 93.2356 33.812 93.8836 33.812C94.3876 33.812 94.8376 33.68 95.2336 33.416C95.6296 33.152 96.0616 32.732 96.5296 32.156V25.226H98.1676V35H96.7996L96.6736 33.47H96.6196C96.1636 33.998 95.6776 34.424 95.1616 34.748C94.6576 35.072 94.0696 35.234 93.3976 35.234ZM103.55 35V23.21H99.5542V21.806H109.22V23.21H105.224V35H103.55ZM112.945 35.234C111.913 35.234 111.151 34.91 110.659 34.262C110.179 33.614 109.939 32.666 109.939 31.418V25.226H111.595V31.22C111.595 32.12 111.739 32.78 112.027 33.2C112.315 33.608 112.783 33.812 113.431 33.812C113.935 33.812 114.385 33.68 114.781 33.416C115.177 33.152 115.609 32.732 116.077 32.156V25.226H117.715V35H116.347L116.221 33.47H116.167C115.711 33.998 115.225 34.424 114.709 34.748C114.205 35.072 113.617 35.234 112.945 35.234ZM124.959 35.234C124.515 35.234 124.047 35.126 123.555 34.91C123.063 34.694 122.607 34.388 122.187 33.992H122.115L121.971 35H120.657V20.672H122.313V24.596L122.241 26.342C122.685 25.958 123.171 25.634 123.699 25.37C124.227 25.106 124.767 24.974 125.319 24.974C126.159 24.974 126.867 25.184 127.443 25.604C128.019 26.012 128.457 26.588 128.757 27.332C129.057 28.076 129.207 28.952 129.207 29.96C129.207 31.064 129.003 32.012 128.595 32.804C128.199 33.596 127.677 34.202 127.029 34.622C126.393 35.03 125.703 35.234 124.959 35.234ZM124.689 33.848C125.229 33.848 125.709 33.698 126.129 33.398C126.561 33.086 126.897 32.642 127.137 32.066C127.377 31.478 127.497 30.782 127.497 29.978C127.497 29.258 127.407 28.628 127.227 28.088C127.059 27.536 126.789 27.11 126.417 26.81C126.045 26.51 125.541 26.36 124.905 26.36C124.497 26.36 124.077 26.474 123.645 26.702C123.213 26.93 122.769 27.26 122.313 27.692V32.84C122.733 33.212 123.153 33.476 123.573 33.632C124.005 33.776 124.377 33.848 124.689 33.848ZM135.384 35.234C134.508 35.234 133.716 35.03 133.008 34.622C132.3 34.214 131.736 33.632 131.316 32.876C130.908 32.108 130.704 31.19 130.704 30.122C130.704 29.318 130.824 28.604 131.064 27.98C131.304 27.344 131.628 26.804 132.036 26.36C132.456 25.904 132.93 25.562 133.458 25.334C133.986 25.094 134.526 24.974 135.078 24.974C135.918 24.974 136.626 25.16 137.202 25.532C137.778 25.904 138.216 26.438 138.516 27.134C138.828 27.818 138.984 28.628 138.984 29.564C138.984 29.744 138.978 29.912 138.966 30.068C138.954 30.224 138.936 30.368 138.912 30.5H132.324C132.36 31.196 132.516 31.802 132.792 32.318C133.08 32.822 133.458 33.218 133.926 33.506C134.394 33.782 134.94 33.92 135.564 33.92C136.044 33.92 136.476 33.854 136.86 33.722C137.256 33.578 137.64 33.386 138.012 33.146L138.588 34.244C138.168 34.52 137.694 34.754 137.166 34.946C136.638 35.138 136.044 35.234 135.384 35.234ZM132.306 29.33H137.544C137.544 28.346 137.328 27.596 136.896 27.08C136.476 26.552 135.882 26.288 135.114 26.288C134.658 26.288 134.226 26.408 133.818 26.648C133.422 26.888 133.086 27.23 132.81 27.674C132.546 28.118 132.378 28.67 132.306 29.33ZM150.708 21.176H152.274C152.274 22.532 151.968 23.762 151.356 24.866C150.744 25.958 149.874 26.894 148.746 27.674C147.63 28.454 146.292 29.072 144.732 29.528L144.12 28.358C145.488 27.962 146.664 27.446 147.648 26.81C148.632 26.174 149.388 25.436 149.916 24.596C150.444 23.744 150.708 22.814 150.708 21.806V21.176ZM144.948 21.176H151.716V22.382H144.948V21.176ZM155.838 20.132H157.332V29.402H155.838V20.132ZM152.31 24.308H156.108V25.55H152.31V24.308ZM146.838 30.104H157.332V36.17H146.838V30.104ZM155.856 31.292H148.296V34.964H155.856V31.292ZM163.541 21.104H164.729V23.264C164.729 24.08 164.579 24.89 164.279 25.694C163.991 26.498 163.565 27.224 163.001 27.872C162.437 28.52 161.753 29.024 160.949 29.384L160.139 28.214C160.847 27.89 161.453 27.458 161.957 26.918C162.473 26.378 162.863 25.79 163.127 25.154C163.403 24.518 163.541 23.888 163.541 23.264V21.104ZM163.793 21.104H164.981V23.264C164.981 23.876 165.107 24.482 165.359 25.082C165.623 25.67 166.001 26.204 166.493 26.684C166.985 27.164 167.573 27.542 168.257 27.818L167.465 28.97C166.685 28.646 166.019 28.19 165.467 27.602C164.915 27.014 164.495 26.348 164.207 25.604C163.931 24.86 163.793 24.08 163.793 23.264V21.104ZM172.433 20.132H173.855V29.96H172.433V20.132ZM169.805 24.362H172.865V25.604H169.805V24.362ZM168.941 20.42H170.345V29.87H168.941V20.42ZM162.947 30.86H173.855V36.404H172.379V32.084H162.947V30.86Z" fill="#626262"/>
<rect x="402" y="10" width="34" height="34" rx="17" fill="#F2F2F2"/>
<path d="M419 29C420.66 29 421.99 27.66 421.99 26L422 20C422 18.34 420.66 17 419 17C417.34 17 416 18.34 416 20V26C416 27.66 417.34 29 419 29ZM424.3 26C424.3 29 421.76 31.1 419 31.1C416.24 31.1 413.7 29 413.7 26H412C412 29.41 414.72 32.23 418 32.72V36H420V32.72C423.28 32.24 426 29.42 426 26H424.3Z" fill="#090909"/>
</svg>
