<svg width="400" height="48" viewBox="0 0 400 48" fill="none" xmlns="http://www.w3.org/2000/svg">
<rect x="20" width="360" height="48" rx="6" fill="#FEE500"/>
<path d="M197.703 17.3438V21.5H199.703V22.7188H197.703V26.7656H196.219V17.3438H197.703ZM186.594 25.2031C187.68 25.2031 188.938 25.2031 190.25 25.1719V24.2266C188.656 24.0469 187.641 23.2969 187.656 22.1719C187.641 20.8906 188.977 20.0938 190.984 20.1094C192.992 20.0938 194.305 20.8906 194.312 22.1719C194.305 23.2891 193.312 24.0391 191.734 24.2266V25.1172C192.984 25.0547 194.25 24.9531 195.422 24.7812L195.547 25.8438C192.539 26.3672 189.219 26.3906 186.75 26.3906L186.594 25.2031ZM186.953 19.6406V18.5312H190.25V17.2188H191.734V18.5312H195.031V19.6406H186.953ZM188.344 28.5781V27.4219H197.703V31.3281H196.219V28.5781H188.344ZM189.062 22.1719C189.062 22.8281 189.789 23.2578 190.984 23.25C192.164 23.2578 192.898 22.8281 192.891 22.1719C192.898 21.5 192.164 21.1094 190.984 21.125C189.789 21.1094 189.062 21.5 189.062 22.1719ZM212.125 17.3438V27.5156H210.641V17.3438H212.125ZM200.797 21.75C200.805 19.7266 202.414 18.2891 204.531 18.2812C206.641 18.2891 208.25 19.7266 208.25 21.75C208.25 23.8047 206.641 25.2344 204.531 25.2344C202.414 25.2344 200.805 23.8047 200.797 21.75ZM202.25 21.75C202.242 23.0703 203.227 23.9375 204.531 23.9375C205.812 23.9375 206.797 23.0703 206.797 21.75C206.797 20.4609 205.812 19.5781 204.531 19.5781C203.227 19.5781 202.242 20.4609 202.25 21.75ZM202.969 31.0312V26.4844H204.469V29.8281H212.547V31.0312H202.969Z" fill="#010101"/>
</svg>
