<svg width="400" height="242" viewBox="0 0 400 242" fill="none" xmlns="http://www.w3.org/2000/svg">
<rect x="20.5" y="0.5" width="359" height="151" fill="#F8F8F8"/>
<rect x="20.5" y="0.5" width="359" height="151" stroke="#E2E2E2"/>
<path d="M49.9492 25.8633V26.625H45.707V28.7578H44.793V26.625H40.4102V25.8633H49.9492ZM41.6289 30.7266V27.7266H42.5547V29.9531H48.8828V30.7266H41.6289ZM41.6523 24.668V21.0469H48.707V24.668H41.6523ZM42.5547 23.9297H47.793V21.7734H42.5547V23.9297ZM59.6992 20.5312V30.9492H58.8203V20.5312H59.6992ZM50.6641 28.1719C52.1172 27.3047 52.9668 25.4004 52.9609 23.5078V22.5234H50.957V21.7617H55.7617V22.5234H53.8516V23.5078C53.8516 25.3066 54.666 27.1055 56.1016 27.9375L55.5391 28.6172C54.5137 28.002 53.7871 26.877 53.4238 25.5527C53.0488 26.9883 52.293 28.2129 51.25 28.8633L50.6641 28.1719ZM54.9648 25.043V24.293H56.7227V20.7891H57.5898V30.4102H56.7227V25.043H54.9648ZM62.5117 20.9766V22.4766H65.5469V20.9766H66.4609V25.5117H61.6094V20.9766H62.5117ZM62.5117 24.7617H65.5469V23.1914H62.5117V24.7617ZM62.6641 27.1523V26.4141H69.3086V28.9336H63.5898V30.082H69.6953V30.832H62.6875V28.2305H68.3945V27.1523H62.6641ZM68.3945 25.9219V20.5312H69.3086V22.793H70.8789V23.5664H69.3086V25.9219H68.3945ZM74.6406 22.6055C74.6465 23.7598 75.4492 24.9258 76.7852 25.4297L76.3047 26.1328C75.3027 25.7461 74.582 25.002 74.207 24.1055C73.8262 25.0957 73.0762 25.9805 72.0508 26.4258L71.5469 25.7109C72.918 25.1133 73.7559 23.7656 73.7617 22.6055V21.1875H74.6406V22.6055ZM73.4453 29.0742C73.4336 27.8965 74.7695 27.2051 76.9375 27.2109C79.0938 27.2051 80.4355 27.8965 80.4414 29.0742C80.4355 30.2402 79.0938 30.9258 76.9375 30.9258C74.7695 30.9258 73.4336 30.2402 73.4453 29.0742ZM74.3594 29.0742C74.3477 29.7832 75.3379 30.2168 76.9375 30.2109C78.5195 30.2168 79.5156 29.7832 79.5273 29.0742C79.5156 28.3535 78.5195 27.9199 76.9375 27.9141C75.3379 27.9199 74.3477 28.3535 74.3594 29.0742ZM77.2539 26.6484V20.7422H78.1211V23.3438H79.5039V20.543H80.3828V26.9766H79.5039V24.1055H78.1211V26.6484H77.2539ZM85.6094 23.332C85.6035 25.2363 86.8984 27.1465 88.4336 27.8438L87.8711 28.5703C86.6816 27.9961 85.6562 26.7598 85.1582 25.2773C84.6777 26.8477 83.6523 28.166 82.4336 28.7812L81.8477 28.0078C83.4004 27.2988 84.6836 25.3066 84.6953 23.332V21.4336H85.6094V23.332ZM89.5703 30.9727V20.5312H90.4961V30.9727H89.5703ZM101.816 28.8398V29.6133H92.2773V28.8398H96.5781V26.3086H97.5039V28.8398H101.816ZM92.7461 25.9336C94.5098 25.6348 96.5547 24.1758 96.5547 22.5117V22.2539H93.0625V21.4805H100.996V22.2539H97.5039V22.5117C97.5098 24.1758 99.5605 25.6055 101.359 25.8984L100.984 26.625C99.3906 26.3086 97.709 25.2949 97.041 23.8535C96.373 25.3125 94.6973 26.3496 93.1328 26.6719L92.7461 25.9336ZM111.238 20.5312V30.9492H110.312V20.5312H111.238ZM102.859 28.2188C104.406 27.5156 105.59 25.7578 105.59 23.9297V23.0977H103.141V22.3477H105.578V20.7305H106.492V22.3477H108.918V23.0977H106.492V23.9297C106.492 25.6758 107.711 27.3633 109.281 28.0312L108.766 28.7461C107.559 28.2129 106.545 27.0879 106.059 25.7109C105.59 27.1641 104.582 28.3652 103.375 28.9336L102.859 28.2188ZM117.824 27.082C119.963 27.082 121.258 27.7852 121.258 29.0039C121.258 30.2344 119.963 30.9375 117.824 30.9492C115.68 30.9375 114.373 30.2344 114.367 29.0039C114.373 27.7852 115.68 27.082 117.824 27.082ZM113.465 25.9922V21.1875H114.367V22.7812H117.402V21.1875H118.316V25.9922H113.465ZM114.367 25.2422H117.402V23.5078H114.367V25.2422ZM115.293 29.0039C115.281 29.7539 116.254 30.1992 117.824 30.1992C119.4 30.1992 120.361 29.7539 120.367 29.0039C120.361 28.2598 119.4 27.8203 117.824 27.8086C116.254 27.8203 115.281 28.2598 115.293 29.0039ZM120.25 26.8008V20.5312H121.164V23.1562H122.734V23.9414H121.164V26.8008H120.25ZM124.832 21.0703V22.6875H127.738V21.0703H128.641V23.0977H131.102V20.5312H132.027V26.2266H131.102V23.8711H128.641V25.8398H123.918V21.0703H124.832ZM124.832 25.0898H127.738V23.4141H124.832V25.0898ZM125.312 30.8086V26.7305H126.238V28.0078H131.102V26.7305H132.016V30.8086H125.312ZM126.238 30.0469H131.102V28.7461H126.238V30.0469Z" fill="#676767"/>
<circle cx="49.5" cy="51.9468" r="5.5" fill="#7E7E7E"/>
<mask id="mask0_584_3" style="mask-type:alpha" maskUnits="userSpaceOnUse" x="40" y="42" width="18" height="19">
<rect x="40" y="42.4468" width="18" height="18" fill="#D7D7D7"/>
</mask>
<g mask="url(#mask0_584_3)">
<path d="M49.0075 57.8968C48.1206 57.8968 47.2851 57.729 46.5008 57.3935C45.7167 57.058 45.0301 56.596 44.4409 56.0075C43.8518 55.419 43.3894 54.7333 43.0536 53.9503C42.7177 53.1674 42.5498 52.3309 42.5498 51.4408C42.5498 50.5505 42.7176 49.7164 43.0531 48.9384C43.3886 48.1605 43.8506 47.477 44.4391 46.8879C45.0276 46.2988 45.7133 45.8363 46.4963 45.5006C47.2792 45.1647 48.1157 44.9968 49.0058 44.9968C49.8961 44.9968 50.7302 45.1645 51.5082 45.5C52.2861 45.8355 52.9696 46.2975 53.5587 46.886C54.1478 47.4745 54.6102 48.1588 54.946 48.9388C55.2819 49.7188 55.4498 50.5522 55.4498 51.4391C55.4498 52.326 55.2821 53.1615 54.9466 53.9458C54.6111 54.7299 54.1491 55.4165 53.5606 56.0056C52.9721 56.5948 52.2878 57.0572 51.5078 57.393C50.7278 57.7288 49.8944 57.8968 49.0075 57.8968ZM49.3748 48.8218V54.3718C49.3748 54.4568 49.4032 54.528 49.4601 54.5855C49.5169 54.643 49.5873 54.6718 49.6714 54.6718C49.7554 54.6718 49.827 54.643 49.8861 54.5855C49.9452 54.528 49.9748 54.4568 49.9748 54.3718V48.7526C49.9748 48.6022 49.9239 48.4761 49.8222 48.3744C49.7204 48.2726 49.5944 48.2218 49.444 48.2218H47.8748C47.7898 48.2218 47.7186 48.2502 47.6611 48.3071C47.6036 48.3638 47.5748 48.4343 47.5748 48.5184C47.5748 48.6024 47.6036 48.674 47.6611 48.7331C47.7186 48.7922 47.7898 48.8218 47.8748 48.8218H49.3748Z" fill="#D7D7D7"/>
</g>
<path d="M67.8242 47.6211C67.8125 50.6328 66.793 53.3867 63.043 55.2266L62.5273 54.5234C64.4902 53.5742 65.668 52.3672 66.3008 50.9609L62.7266 51.3008L62.5742 50.4922L66.582 50.2227C66.7637 49.6367 66.8691 49.0215 66.9102 48.3828H63.1016V47.6211H67.8242ZM70.4844 46.5312V50.7734H72.1719V51.5469H70.4844V56.9492H69.5703V46.5312H70.4844ZM78.1953 47.6211C78.1836 50.6328 77.1641 53.3867 73.4141 55.2266L72.8984 54.5234C74.8613 53.5742 76.0391 52.3672 76.6719 50.9609L73.0977 51.3008L72.9453 50.4922L76.9531 50.2227C77.1348 49.6367 77.2402 49.0215 77.2812 48.3828H73.4727V47.6211H78.1953ZM80.8555 46.5312V50.7734H82.543V51.5469H80.8555V56.9492H79.9414V46.5312H80.8555ZM87.9102 47.2109C90.125 47.2227 91.7188 48.3008 91.7188 49.9414C91.7188 51.4941 90.3359 52.5254 88.3555 52.6484V54.8398H92.7031V55.6133H83.1641V54.8398H87.4531V52.6484C85.4785 52.5195 84.1016 51.4883 84.1016 49.9414C84.1016 48.3008 85.6953 47.2227 87.9102 47.2109ZM87.9102 47.9727C86.2227 47.9727 84.9922 48.7695 84.9922 49.9414C84.9922 51.1484 86.2227 51.9219 87.9102 51.9336C89.5977 51.9219 90.8281 51.1484 90.8281 49.9414C90.8281 48.7695 89.5977 47.9727 87.9102 47.9727ZM102.137 46.543V54.1602H101.223V46.543H102.137ZM102.465 55.9531V56.7266H95.4102V53.3867H96.3242V55.9531H102.465ZM96.5117 47.2695C98.0703 47.2695 99.2422 48.3242 99.2422 49.8242C99.2422 51.3477 98.0703 52.3906 96.5117 52.3906C94.9531 52.3906 93.7812 51.3477 93.7812 49.8242C93.7812 48.3242 94.9531 47.2695 96.5117 47.2695ZM96.5117 48.0781C95.457 48.0781 94.6719 48.8047 94.6836 49.8242C94.6719 50.8672 95.457 51.582 96.5117 51.582C97.543 51.582 98.3398 50.8672 98.3398 49.8242C98.3398 48.8047 97.543 48.0781 96.5117 48.0781ZM113.398 51.4883V52.25H103.906V51.4883H113.398ZM108.652 53.1641C110.891 53.1641 112.227 53.8555 112.238 55.0508C112.227 56.2578 110.891 56.9258 108.652 56.9258C106.402 56.9258 105.055 56.2578 105.055 55.0508C105.055 53.8555 106.402 53.1641 108.652 53.1641ZM108.652 53.8906C106.977 53.9023 105.98 54.3125 105.992 55.0508C105.98 55.7773 106.977 56.1875 108.652 56.1875C110.305 56.1875 111.312 55.7773 111.312 55.0508C111.312 54.3125 110.305 53.9023 108.652 53.8906ZM112.555 47.0703V47.832H109.25C109.285 49.0156 111.02 49.918 112.871 50.1289L112.531 50.8672C110.826 50.6504 109.227 49.8887 108.652 48.7227C108.084 49.8887 106.49 50.6504 104.773 50.8672L104.445 50.1289C106.262 49.918 108.008 49.0156 108.055 47.832H104.773V47.0703H112.555ZM117.945 49.332C117.945 51.2188 119.152 53.1172 120.664 53.8086L120.113 54.5586C118.93 53.9492 117.951 52.7012 117.488 51.2188C117.025 52.7773 116.047 54.1133 114.863 54.7461L114.266 54.0078C115.789 53.2578 117.008 51.2539 117.008 49.332V47.4336H117.945V49.332ZM122.914 46.5312V56.9727H122V50.8438H119.527V50.0938H122V46.5312H122.914ZM136.25 46.5312V56.9727H135.324V46.5312H136.25ZM130.707 47.3398C132.254 47.3516 133.367 48.7578 133.367 50.9727C133.367 53.1875 132.254 54.5938 130.707 54.5938C129.148 54.5938 128.047 53.1875 128.047 50.9727C128.047 48.7578 129.148 47.3516 130.707 47.3398ZM130.707 48.1602C129.664 48.1719 128.938 49.2734 128.938 50.9727C128.938 52.6719 129.664 53.7734 130.707 53.7734C131.75 53.7734 132.477 52.6719 132.477 50.9727C132.477 49.2734 131.75 48.1719 130.707 48.1602ZM147.523 51.6875V52.4492H138.031V51.6875H140.387V50.2227C139.555 49.9004 139.086 49.3672 139.086 48.6641C139.086 47.4336 140.492 46.7305 142.777 46.7305C145.039 46.7305 146.457 47.4336 146.457 48.6641C146.457 49.3613 145.994 49.8945 145.168 50.2109V51.6875H147.523ZM142.777 53.2461C145.016 53.2461 146.352 53.8906 146.363 55.0859C146.352 56.2695 145.016 56.9258 142.777 56.9258C140.516 56.9258 139.18 56.2695 139.18 55.0859C139.18 53.8906 140.516 53.2461 142.777 53.2461ZM142.777 53.9492C141.102 53.9609 140.105 54.3711 140.117 55.0859C140.105 55.7891 141.102 56.2109 142.777 56.2109C144.43 56.2109 145.438 55.7891 145.438 55.0859C145.438 54.3711 144.43 53.9609 142.777 53.9492ZM142.777 47.457C141.078 47.457 140.023 47.9141 140.035 48.6641C140.023 49.4258 141.078 49.8711 142.777 49.8711C144.465 49.8711 145.52 49.4258 145.52 48.6641C145.52 47.9141 144.465 47.457 142.777 47.457ZM141.301 51.6875H144.254V50.4688C143.814 50.5449 143.322 50.5859 142.777 50.5859C142.232 50.5859 141.74 50.5449 141.301 50.4688V51.6875ZM157.332 46.5312V56.9492H156.441V46.5312H157.332ZM155.234 46.7539V56.4219H154.355V51.3594H153.02C152.92 53.3867 152.059 54.6523 150.77 54.6523C149.41 54.6523 148.531 53.2461 148.531 51.0312C148.531 48.8164 149.41 47.4102 150.77 47.4102C152.035 47.4102 152.891 48.6348 153.008 50.5977H154.355V46.7539H155.234ZM150.77 48.2773C149.926 48.2773 149.387 49.332 149.398 51.0312C149.387 52.7188 149.926 53.7852 150.77 53.7734C151.613 53.7852 152.152 52.7188 152.152 51.0312C152.152 49.332 151.613 48.2773 150.77 48.2773ZM171.312 51.8633V52.625H167.07V54.7578H166.156V52.625H161.773V51.8633H171.312ZM170.07 47.0469V50.668H163.016V47.0469H170.07ZM163.918 47.7734V49.9297H169.156V47.7734H163.918ZM170.246 55.9531V56.7266H162.992V53.7266H163.918V55.9531H170.246ZM181.062 46.5312V56.9492H180.184V46.5312H181.062ZM178.953 46.7891V56.4102H178.086V51.043H176.328V50.293H178.086V46.7891H178.953ZM175.215 49.5078C175.215 51.3125 176.023 53.1055 177.465 53.9375L176.902 54.6172C175.877 54.002 175.15 52.877 174.793 51.5469C174.412 52.9824 173.656 54.207 172.613 54.8633L172.027 54.1719C173.48 53.3047 174.324 51.4062 174.324 49.5078V48.5234H172.32V47.7617H177.125V48.5234H175.215V49.5078ZM190.59 46.5312V50.7734H192.277V51.5469H190.59V56.9492H189.676V46.5312H190.59ZM187.895 47.6562C187.895 50.6094 186.512 53.293 183.113 54.9688L182.598 54.2422C185.293 52.9004 186.758 50.8965 186.969 48.4297H183.078V47.6562H187.895ZM199.438 53.5273C199.438 54.4473 199.93 55.4258 200.926 55.9883C201.91 55.373 202.438 54.3359 202.438 53.5273V52.9531H203.34V53.5273C203.34 54.5938 204.125 55.6719 205.461 56.1289L205.004 56.8086C203.961 56.4395 203.229 55.7129 202.871 54.8398C202.549 55.6836 201.91 56.4805 200.949 56.8906C199.936 56.5039 199.291 55.7363 198.98 54.8633C198.611 55.707 197.891 56.4336 196.895 56.8086L196.426 56.1289C197.738 55.6367 198.535 54.5234 198.547 53.5273V52.9531H199.438V53.5273ZM204.512 46.543V52.4961H203.598V46.543H204.512ZM198.887 47.1523C200.469 47.1523 201.617 48.1367 201.617 49.5898C201.617 51.0195 200.469 52.0039 198.887 52.0039C197.305 52.0039 196.156 51.0195 196.156 49.5898C196.156 48.1367 197.305 47.1523 198.887 47.1523ZM198.887 47.9375C197.82 47.9258 197.047 48.6172 197.059 49.5898C197.047 50.5508 197.82 51.2305 198.887 51.2422C199.941 51.2305 200.715 50.5508 200.715 49.5898C200.715 48.6172 199.941 47.9258 198.887 47.9375ZM214.707 49.6953V50.4336H207.57V46.918H208.484V49.6953H214.707ZM215.809 51.8516V52.6016H206.27V51.8516H215.809ZM214.766 55.9297V56.6914H207.512V53.668H208.426V55.9297H214.766ZM228.301 46.543V52.8008H227.375V51.3945H224.609V50.6328H227.375V49.2266H224.715C224.029 50.9023 222.418 52.1152 220.191 52.7773L219.805 52.0508C222.324 51.3008 223.889 49.8945 224.082 48.0898H220.332V47.3164H225.078C225.078 47.7266 225.031 48.1191 224.949 48.4883H227.375V46.543H228.301ZM224.891 52.9062C227 52.9062 228.359 53.6562 228.359 54.8984C228.359 56.1523 227 56.9023 224.891 56.9023C222.758 56.9023 221.41 56.1523 221.41 54.8984C221.41 53.6562 222.758 52.9062 224.891 52.9062ZM224.891 53.6445C223.32 53.6328 222.312 54.1133 222.312 54.8984C222.312 55.6836 223.32 56.1523 224.891 56.1523C226.438 56.1523 227.434 55.6836 227.445 54.8984C227.434 54.1133 226.438 53.6328 224.891 53.6445ZM239.562 52.5078V53.2812H235.215V56.9492H234.312V53.2812H230.023V52.5078H239.562ZM234.77 46.9531C236.961 46.9531 238.438 47.832 238.438 49.25C238.438 50.6328 236.961 51.5117 234.77 51.5117C232.578 51.5117 231.102 50.6328 231.102 49.25C231.102 47.832 232.578 46.9531 234.77 46.9531ZM234.77 47.7031C233.141 47.7031 232.039 48.3125 232.051 49.25C232.039 50.1758 233.141 50.7734 234.77 50.7734C236.387 50.7734 237.5 50.1758 237.5 49.25C237.5 48.3125 236.387 47.7031 234.77 47.7031ZM242.117 55.2148L241.203 58.4023H240.336L240.98 55.2148H242.117ZM247.273 58.3906V47.1523H250.508V48.4531H248.938V57.0898H250.508V58.3906H247.273ZM259.848 47.3398V48.3477C259.848 49.6836 259.848 51.1836 259.414 53.4453L257.914 53.293C258.318 51.2773 258.336 49.7773 258.348 48.5234H252.066V47.3398H259.848ZM260.785 54.5586V55.7773H251.059V54.5586H254.539V50.8906H256.027V54.5586H260.785ZM270.594 46.4258V52.6719H269.176V50.0938H268.215V52.625H266.809V46.6133H268.215V48.875H269.176V46.4258H270.594ZM270.594 53.082V57.0781H269.105V54.2891H263.152V53.082H270.594ZM266.082 47.1523C266.082 49.8359 264.793 51.6406 262.016 52.7422L261.312 51.6289C263.322 50.8906 264.33 49.7891 264.559 48.3477H261.828V47.1523H266.082ZM280.965 46.4141V54.3945H279.547V46.4141H280.965ZM278.809 46.5781V54.0781H277.391V50.0703H276.09V48.8516H277.391V46.5781H278.809ZM281.234 55.6953V56.8906H273.734V53.457H275.234V55.6953H281.234ZM275.164 48.5234C275.164 49.7539 275.691 50.9727 277.062 51.6055L276.23 52.7539C275.375 52.3496 274.801 51.6816 274.449 50.8672C274.074 51.793 273.436 52.5723 272.492 53.0117L271.672 51.875C273.125 51.1719 273.711 49.7891 273.711 48.5234V47.1289H275.164V48.5234ZM291.172 46.4141V57.1016H289.695V51.3828H287.82V50.1758H289.695V46.4141H291.172ZM287.645 47.3047V48.5117H284.152V50.2812H287.258V51.4531H284.152V53.4688C285.629 53.457 286.812 53.4043 288.137 53.1992L288.289 54.3945C286.73 54.6289 285.336 54.6875 283.508 54.6875H282.664V47.3047H287.645ZM301.238 51.1836V52.3672H298.145V54.6406H302.305V55.8594H292.543V54.6406H296.656V52.3672H293.691V47.1641H301.156V48.3594H295.191V51.1836H301.238ZM307.777 46.5547C310.145 46.5664 311.645 47.3281 311.656 48.6289C311.645 49.8945 310.145 50.6562 307.777 50.6562C305.422 50.6562 303.887 49.8945 303.887 48.6289C303.887 47.3281 305.422 46.5664 307.777 46.5547ZM307.777 47.7031C306.289 47.7031 305.434 48.0078 305.445 48.6289C305.434 49.2148 306.289 49.5195 307.777 49.5195C309.254 49.5195 310.109 49.2148 310.109 48.6289C310.109 48.0078 309.254 47.7031 307.777 47.7031ZM311.48 53.3281V56.9609H304.039V53.3281H307.027V52.4023H302.914V51.207H312.641V52.4023H308.516V53.3281H311.48ZM305.516 54.5117V55.7656H310.016V54.5117H305.516ZM321.746 46.4141V48.4766H323.188V49.707H321.746V51.7461H320.246V46.4141H321.746ZM318.723 46.918V51.3477H313.602V46.918H318.723ZM315.078 48.0898V50.1641H317.246V48.0898H315.078ZM321.746 52.168V55.0742H316.156V55.7891H322.051V56.9609H314.691V53.9961H320.258V53.3164H314.668V52.168H321.746ZM326.809 58.3906H323.574V57.0898H325.145V48.4531H323.574V47.1523H326.809V58.3906ZM337.367 46.5312V56.9492H336.477V46.5312H337.367ZM335.27 46.7539V56.4219H334.391V51.3594H333.055C332.955 53.3867 332.094 54.6523 330.805 54.6523C329.445 54.6523 328.566 53.2461 328.566 51.0312C328.566 48.8164 329.445 47.4102 330.805 47.4102C332.07 47.4102 332.926 48.6348 333.043 50.5977H334.391V46.7539H335.27ZM330.805 48.2773C329.961 48.2773 329.422 49.332 329.434 51.0312C329.422 52.7188 329.961 53.7852 330.805 53.7734C331.648 53.7852 332.188 52.7188 332.188 51.0312C332.188 49.332 331.648 48.2773 330.805 48.2773ZM342.477 49.332C342.477 51.2188 343.684 53.1172 345.195 53.8086L344.645 54.5586C343.461 53.9492 342.482 52.7012 342.02 51.2188C341.557 52.7773 340.578 54.1133 339.395 54.7461L338.797 54.0078C340.32 53.2578 341.539 51.2539 341.539 49.332V47.4336H342.477V49.332ZM347.445 46.5312V56.9727H346.531V50.8438H344.059V50.0938H346.531V46.5312H347.445ZM67.625 64.3359V65.0859H62.3984V64.3359H64.5664V62.8477H65.4805V64.3359H67.625ZM65.0117 65.7891C66.3242 65.7891 67.2617 66.7734 67.2734 68.1562C67.2617 69.5508 66.3242 70.5469 65.0117 70.5469C63.7109 70.5469 62.7734 69.5508 62.7734 68.1562C62.7734 66.7734 63.7109 65.7891 65.0117 65.7891ZM65.0117 66.5625C64.1914 66.5742 63.5938 67.2422 63.5938 68.1562C63.5938 69.082 64.1914 69.75 65.0117 69.7383C65.8438 69.75 66.4531 69.082 66.4531 68.1562C66.4531 67.2422 65.8438 66.5742 65.0117 66.5625ZM71.293 62.5312V72.9492H70.4141V67.6875H69.0312V72.4336H68.1641V62.7891H69.0312V66.9258H70.4141V62.5312H71.293ZM81.4297 62.5312V67.8633H80.5039V66.7734H77.7266V66.0469H80.5039V64.793H77.8789C77.2227 66.4395 75.6055 67.5469 73.2969 68.0977L72.9688 67.3359C75.5234 66.7441 77.0117 65.4961 77.1875 63.8203H73.4961V63.0586H78.1953C78.1953 63.4043 78.1602 63.7383 78.1016 64.0547H80.5039V62.5312H81.4297ZM81.4297 68.332V70.875H75.6172V72.0938H81.7812V72.8555H74.7031V70.1719H80.5039V69.082H74.6797V68.332H81.4297ZM87.9688 69.082C90.1133 69.082 91.4023 69.7852 91.4023 71.0039C91.4023 72.2344 90.1133 72.9375 87.9688 72.9492C85.8242 72.9375 84.5117 72.2344 84.5117 71.0039C84.5117 69.7852 85.8242 69.082 87.9688 69.082ZM87.9688 69.8086C86.3984 69.8203 85.4258 70.2539 85.4375 71.0039C85.4258 71.7539 86.3984 72.1992 87.9688 72.1992C89.5508 72.1992 90.5117 71.7539 90.5117 71.0039C90.5117 70.2539 89.5508 69.8203 87.9688 69.8086ZM91.3086 62.5312V65.1562H92.8789V65.9414H91.3086V68.8008H90.3945V62.5312H91.3086ZM84.5117 63.1875V64.7812H87.5469V63.1875H88.4609V67.9922H83.6094V63.1875H84.5117ZM84.5117 67.2422H87.5469V65.5078H84.5117V67.2422ZM94.9766 63.0703V64.6875H97.8828V63.0703H98.7852V65.0977H101.246V62.5312H102.172V68.2266H101.246V65.8711H98.7852V67.8398H94.0625V63.0703H94.9766ZM94.9766 67.0898H97.8828V65.4141H94.9766V67.0898ZM96.3828 68.7305V70.0078H101.246V68.7305H102.16V72.8086H95.457V68.7305H96.3828ZM96.3828 72.0469H101.246V70.7461H96.3828V72.0469ZM108.652 62.7188C110.973 62.7188 112.332 63.3516 112.332 64.5117C112.332 65.6953 110.973 66.3281 108.652 66.3398C106.332 66.3281 104.961 65.6953 104.961 64.5117C104.961 63.3516 106.332 62.7188 108.652 62.7188ZM108.652 63.4102C106.918 63.4102 105.91 63.832 105.922 64.5117C105.91 65.2383 106.918 65.6367 108.652 65.6367C110.375 65.6367 111.395 65.2383 111.395 64.5117C111.395 63.832 110.375 63.4102 108.652 63.4102ZM113.398 67.043V67.793H103.906V67.043H113.398ZM112.18 68.6953V71.0273H105.992V72.1055H112.496V72.832H105.078V70.3477H111.277V69.3984H105.055V68.6953H112.18ZM120.84 64.7109C120.84 65.9531 121.895 67.1016 123.43 67.5586L122.996 68.2617C121.795 67.9043 120.857 67.1309 120.406 66.1289C119.949 67.2305 118.982 68.0684 117.746 68.4727L117.289 67.7461C118.836 67.2773 119.938 66.082 119.938 64.7109V64.5117H117.582V63.75H119.938V62.4844H120.863V63.75H123.195V64.5117H120.84V64.7109ZM125.434 62.5312V65.1094H127.004V65.8828H125.434V68.5898H124.52V62.5312H125.434ZM125.621 69.1523V69.9023H122.668C122.82 70.9922 124.35 71.9297 126.02 72.1992L125.68 72.9141C124.15 72.6621 122.768 71.9062 122.176 70.8633C121.578 71.9004 120.207 72.6387 118.695 72.9023L118.344 72.1992C120.025 71.9297 121.537 71.0098 121.695 69.9023H118.754V69.1523H125.621ZM130.449 63.3398C131.984 63.3516 133.074 64.7578 133.086 66.9727C133.074 69.1875 131.984 70.5938 130.449 70.5938C128.902 70.5938 127.824 69.1875 127.824 66.9727C127.824 64.7578 128.902 63.3516 130.449 63.3398ZM130.449 64.1602C129.418 64.1719 128.691 65.2734 128.691 66.9727C128.691 68.6719 129.418 69.7734 130.449 69.7734C131.492 69.7734 132.195 68.6719 132.195 66.9727C132.195 65.2734 131.492 64.1719 130.449 64.1602ZM135.723 62.5312V66.6914H137.469V67.4883H135.723V72.9492H134.809V62.5312H135.723ZM147.57 70.8516V71.6133H138.031V70.8516H142.32V68.6016H139.156V63.2695H140.082V65.1562H145.496V63.2695H146.398V68.6016H143.223V70.8516H147.57ZM140.082 67.8516H145.496V65.9062H140.082V67.8516ZM151.496 65.4961C151.496 67.1484 152.305 68.9414 153.688 69.7617L153.16 70.4766C152.158 69.8672 151.438 68.7539 151.074 67.4883C150.688 68.8711 149.914 70.0605 148.871 70.6992L148.285 70.0078C149.727 69.1641 150.605 67.3125 150.605 65.5312V63.5156H151.496V65.4961ZM157.332 62.5312V72.9492H156.441V62.5312H157.332ZM155.176 62.7539V72.4219H154.309V67.0547H152.539V66.2695H154.309V62.7539H155.176ZM168.312 70.8398V71.6133H158.773V70.8398H161.141V68.0273C160.25 67.5645 159.711 66.8145 159.711 65.8711C159.711 64.2539 161.293 63.1992 163.52 63.1875C165.746 63.1992 167.328 64.2539 167.328 65.8711C167.328 66.7969 166.807 67.541 165.945 68.0039V70.8398H168.312ZM163.52 63.9492C161.809 63.9375 160.602 64.7109 160.602 65.8711C160.602 67.0312 161.809 67.8164 163.52 67.8164C165.219 67.8164 166.438 67.0312 166.438 65.8711C166.438 64.7109 165.219 63.9375 163.52 63.9492ZM162.043 70.8398H165.02V68.3555C164.568 68.4785 164.064 68.543 163.52 68.543C162.986 68.543 162.488 68.4844 162.043 68.3672V70.8398ZM170.246 72.0703C169.836 72.0703 169.484 71.7305 169.496 71.3086C169.484 70.8984 169.836 70.5586 170.246 70.5586C170.656 70.5586 170.996 70.8984 170.996 71.3086C170.996 71.7305 170.656 72.0703 170.246 72.0703Z" fill="#676767"/>
<path d="M246.066 57.8047H328.016V58.9062H246.066V57.8047Z" fill="#676767"/>
<circle cx="49.5" cy="91.8403" r="5.5" fill="#7E7E7E"/>
<mask id="mask1_584_3" style="mask-type:alpha" maskUnits="userSpaceOnUse" x="40" y="82" width="20" height="21">
<rect x="40" y="82.4468" width="20" height="20" fill="#D9D9D9"/>
</mask>
<g mask="url(#mask1_584_3)">
<path d="M49.2907 98.1801C48.4038 98.1801 47.5683 98.0124 46.784 97.6769C45.9999 97.3414 45.3133 96.8794 44.7241 96.2909C44.135 95.7024 43.6726 95.0166 43.3368 94.2336C43.0009 93.4507 42.833 92.6142 42.833 91.7241C42.833 90.8339 43.0008 89.9997 43.3363 89.2217C43.6718 88.4439 44.1338 87.7604 44.7223 87.1712C45.3108 86.5821 45.9965 86.1197 46.7795 85.7839C47.5624 85.4481 48.3989 85.2801 49.289 85.2801C50.1793 85.2801 51.0134 85.4479 51.7914 85.7834C52.5693 86.1189 53.2528 86.5809 53.8419 87.1694C54.431 87.7579 54.8934 88.4421 55.2292 89.2221C55.5651 90.0021 55.733 90.8356 55.733 91.7224C55.733 92.6093 55.5653 93.4449 55.2298 94.2291C54.8943 95.0132 54.4323 95.6999 53.8438 96.289C53.2553 96.8781 52.571 97.3406 51.791 97.6763C51.011 98.0122 50.1776 98.1801 49.2907 98.1801ZM50.858 94.9551C50.943 94.9551 51.0143 94.9267 51.0718 94.8698C51.1293 94.8131 51.158 94.7426 51.158 94.6585C51.158 94.5745 51.1293 94.5029 51.0718 94.4438C51.0143 94.3847 50.943 94.3551 50.858 94.3551H48.008V92.4917C48.008 92.3571 48.0513 92.2465 48.1378 92.1599C48.2244 92.0734 48.335 92.0301 48.4696 92.0301H50.0964C50.4004 92.0301 50.6533 91.9292 50.8552 91.7273C51.0571 91.5254 51.158 91.2725 51.158 90.9685V89.5667C51.158 89.2627 51.0571 89.0098 50.8552 88.8079C50.6533 88.6061 50.4004 88.5051 50.0964 88.5051H47.708C47.623 88.5051 47.5518 88.5336 47.4943 88.5904C47.4368 88.6472 47.408 88.7176 47.408 88.8017C47.408 88.8857 47.4368 88.9573 47.4943 89.0164C47.5518 89.0756 47.623 89.1051 47.708 89.1051H50.0964C50.231 89.1051 50.3416 89.1484 50.4283 89.2349C50.5148 89.3215 50.558 89.4321 50.558 89.5667V90.9685C50.558 91.1031 50.5148 91.2137 50.4283 91.3004C50.3416 91.3869 50.231 91.4301 50.0964 91.4301H48.4696C48.1656 91.4301 47.9127 91.5311 47.7108 91.7329C47.5089 91.9348 47.408 92.1877 47.408 92.4917V94.4243C47.408 94.5747 47.4589 94.7007 47.5606 94.8025C47.6624 94.9042 47.7884 94.9551 47.9388 94.9551H50.858Z" fill="#D7D7D7"/>
</g>
<path d="M71.9492 91.8633V92.625H67.707V94.7578H66.793V92.625H62.4102V91.8633H71.9492ZM70.707 87.0469V90.668H63.6523V87.0469H70.707ZM64.5547 87.7734V89.9297H69.793V87.7734H64.5547ZM70.8828 95.9531V96.7266H63.6289V93.7266H64.5547V95.9531H70.8828ZM81.6992 86.5312V96.9492H80.8203V86.5312H81.6992ZM79.5898 86.7891V96.4102H78.7227V91.043H76.9648V90.293H78.7227V86.7891H79.5898ZM75.8516 89.5078C75.8516 91.3125 76.6602 93.1055 78.1016 93.9375L77.5391 94.6172C76.5137 94.002 75.7871 92.877 75.4297 91.5469C75.0488 92.9824 74.293 94.207 73.25 94.8633L72.6641 94.1719C74.1172 93.3047 74.9609 91.4062 74.9609 89.5078V88.5234H72.957V87.7617H77.7617V88.5234H75.8516V89.5078ZM91.2266 86.5312V90.7734H92.9141V91.5469H91.2266V96.9492H90.3125V86.5312H91.2266ZM88.5312 87.6562C88.5312 90.6094 87.1484 93.293 83.75 94.9688L83.2344 94.2422C85.9297 92.9004 87.3945 90.8965 87.6055 88.4297H83.7148V87.6562H88.5312ZM100.273 89.7305C100.273 91.5 101.562 93.293 103.098 93.9609L102.582 94.6875C101.363 94.1309 100.309 92.9297 99.8281 91.4883C99.3359 93.0176 98.2871 94.3477 97.0977 94.9453L96.5469 94.2188C98.0352 93.5039 99.3359 91.5352 99.3477 89.7305V88.3711H96.8867V87.6094H102.758V88.3711H100.273V89.7305ZM105.137 86.5312V96.9492H104.211V86.5312H105.137ZM116.445 91.7695V92.5312H106.918V91.7695H111.207V90.1641H112.109V91.7695H116.445ZM112.121 87.1875C112.121 88.5703 113.996 89.7305 115.836 89.9883L115.461 90.7266C113.879 90.4512 112.314 89.6133 111.664 88.4062C111.008 89.6191 109.438 90.4512 107.844 90.7266L107.492 89.9883C109.332 89.7305 111.195 88.5703 111.195 87.1875V86.6953H112.121V87.1875ZM115.238 93.5508V96.9492H114.312V94.2891H107.973V93.5508H115.238ZM123.5 91.0312V91.793H121.215V93.8438C122.234 93.8027 123.26 93.7324 124.227 93.6211L124.297 94.3125C121.988 94.6523 119.469 94.6875 117.477 94.6875L117.348 93.9141C118.256 93.9141 119.264 93.9082 120.301 93.8789V91.793H118.145V87.5273H123.453V88.2773H119.047V91.0312H123.5ZM125.832 86.5312V96.9727H124.918V86.5312H125.832ZM132.934 87.4453V88.3711H135.371V86.543H136.297V94.1484H135.371V91.3711H132.934V92.3086H128.152V87.4453H132.934ZM129.066 88.207V91.5703H132.031V88.207H129.066ZM136.531 95.9531V96.7266H129.559V93.4688H130.484V95.9531H136.531ZM132.934 90.6094H135.371V89.1445H132.934V90.6094ZM141.828 98.3906V87.1523H145.062V88.4531H143.492V97.0898H145.062V98.3906H141.828ZM154.402 87.3398V88.3477C154.402 89.6836 154.402 91.1836 153.969 93.4453L152.469 93.293C152.873 91.2773 152.891 89.7773 152.902 88.5234H146.621V87.3398H154.402ZM155.34 94.5586V95.7773H145.613V94.5586H149.094V90.8906H150.582V94.5586H155.34ZM165.148 86.4258V92.6719H163.73V90.0938H162.77V92.625H161.363V86.6133H162.77V88.875H163.73V86.4258H165.148ZM165.148 93.082V97.0781H163.66V94.2891H157.707V93.082H165.148ZM160.637 87.1523C160.637 89.8359 159.348 91.6406 156.57 92.7422L155.867 91.6289C157.877 90.8906 158.885 89.7891 159.113 88.3477H156.383V87.1523H160.637ZM175.52 86.4141V94.3945H174.102V86.4141H175.52ZM173.363 86.5781V94.0781H171.945V90.0703H170.645V88.8516H171.945V86.5781H173.363ZM175.789 95.6953V96.8906H168.289V93.457H169.789V95.6953H175.789ZM169.719 88.5234C169.719 89.7539 170.246 90.9727 171.617 91.6055L170.785 92.7539C169.93 92.3496 169.355 91.6816 169.004 90.8672C168.629 91.793 167.99 92.5723 167.047 93.0117L166.227 91.875C167.68 91.1719 168.266 89.7891 168.266 88.5234V87.1289H169.719V88.5234ZM185.727 86.4141V97.1016H184.25V91.3828H182.375V90.1758H184.25V86.4141H185.727ZM182.199 87.3047V88.5117H178.707V90.2812H181.812V91.4531H178.707V93.4688C180.184 93.457 181.367 93.4043 182.691 93.1992L182.844 94.3945C181.285 94.6289 179.891 94.6875 178.062 94.6875H177.219V87.3047H182.199ZM196.848 91.6875V92.8711H192.828V94.7109H191.352V92.8711H187.086V91.6875H196.848ZM195.594 86.8828V90.8086H188.305V86.8828H195.594ZM189.77 88.043V89.6484H194.129V88.043H189.77ZM195.77 95.6953V96.8906H188.234V93.7852H189.723V95.6953H195.77ZM200.926 87.1289C202.613 87.1172 203.879 88.2188 203.879 89.7422C203.879 91.2773 202.613 92.3672 200.926 92.3672C199.238 92.3672 197.961 91.2773 197.961 89.7422C197.961 88.2188 199.238 87.1172 200.926 87.1289ZM200.926 88.418C200.082 88.418 199.438 88.9102 199.449 89.7422C199.438 90.5859 200.082 91.0664 200.926 91.0664C201.77 91.0664 202.414 90.5859 202.426 89.7422C202.414 88.9102 201.781 88.418 200.926 88.418ZM206.434 86.4141V97.1016H204.945V86.4141H206.434ZM197.516 93.7031C199.414 93.7148 202.051 93.6797 204.336 93.3633L204.453 94.4414C202.086 94.8984 199.555 94.9219 197.691 94.9219L197.516 93.7031ZM216.254 86.4141V90.5859H217.824V91.8164H216.254V97.0781H214.777V86.4141H216.254ZM214.051 88.0078V89.2031H207.781V88.0078H210.195V86.5781H211.695V88.0078H214.051ZM210.945 89.8008C212.504 89.8008 213.664 90.8555 213.664 92.3438C213.664 93.832 212.504 94.8867 210.945 94.8867C209.375 94.8867 208.215 93.832 208.215 92.3438C208.215 90.8555 209.375 89.8008 210.945 89.8008ZM210.945 91.0078C210.195 91.0195 209.645 91.5234 209.645 92.3438C209.645 93.1758 210.195 93.668 210.945 93.6562C211.695 93.668 212.234 93.1758 212.234 92.3438C212.234 91.5234 211.695 91.0195 210.945 91.0078ZM227.176 86.4141V97.0781H225.664V86.4141H227.176ZM223.977 87.5273C223.977 90.7617 222.84 93.4453 219.031 95.25L218.246 94.0547C221 92.7539 222.213 91.0664 222.453 88.6992H218.82V87.5273H223.977ZM231.734 98.3906H228.5V97.0898H230.07V88.4531H228.5V87.1523H231.734V98.3906ZM245.152 91.3711V92.1211H241.379V87.5273H245.023V88.2773H242.305V91.3711H245.152ZM245.914 94.8516V95.6133H236.375V94.8516H240.652V92.6484H241.555V94.8516H245.914ZM240.746 87.5273V88.2891H238.121V91.3594C239 91.3535 239.873 91.2832 240.84 91.0664L240.922 91.8398C239.785 92.0977 238.824 92.1328 237.781 92.1211H237.207V87.5273H240.746ZM255.172 89.6953V90.4336H248.035V86.918H248.949V89.6953H255.172ZM256.273 91.8516V92.6016H246.734V91.8516H256.273ZM255.23 95.9297V96.6914H247.977V93.668H248.891V95.9297H255.23ZM260.914 98.3906V87.1523H264.148V88.4531H262.578V97.0898H264.148V98.3906H260.914ZM268.59 88.0898C268.59 89.3789 269.34 90.6211 271.027 91.1484L270.23 92.3086C269.1 91.9336 268.309 91.207 267.852 90.2695C267.389 91.3477 266.562 92.1914 265.344 92.6016L264.535 91.4297C266.316 90.832 267.078 89.4141 267.09 87.9492V86.9766H268.59V88.0898ZM273.16 86.4141V88.9102H274.602V90.1523H273.16V92.7422H271.66V86.4141H273.16ZM269.668 92.9531C271.871 92.9531 273.266 93.7148 273.266 95.0156C273.266 96.3281 271.871 97.0781 269.668 97.0781C267.418 97.0781 266.012 96.3281 266.012 95.0156C266.012 93.7148 267.418 92.9531 269.668 92.9531ZM269.668 94.125C268.262 94.125 267.5 94.4297 267.512 95.0156C267.5 95.625 268.262 95.9062 269.668 95.9062C271.051 95.9062 271.789 95.625 271.789 95.0156C271.789 94.4297 271.051 94.125 269.668 94.125ZM283.531 86.4141V88.8164H284.973V90.0469H283.531V92.4023H282.031V86.4141H283.531ZM280.238 87.082V88.2656H276.98V90.8086C278.908 90.7969 279.969 90.7266 281.164 90.4805L281.316 91.6523C279.98 91.957 278.75 92.0039 276.383 92.0039H275.48V87.082H280.238ZM283.531 92.8477V96.9492H276.559V92.8477H283.531ZM278.035 94.0312V95.7773H282.055V94.0312H278.035ZM295.168 92.0742V93.2461H285.418V92.0742H289.543V91.2891H286.637V86.6484H294.031V87.8086H288.137V88.4062H293.785V89.5078H288.137V90.1523H294.125V91.2891H291.043V92.0742H295.168ZM293.973 93.9023V97.0781H292.461V95.0742H286.52V93.9023H293.973ZM299.141 89.6367C299.141 91.2422 299.715 92.8711 301.25 93.6797L300.418 94.7812C299.457 94.2891 298.818 93.4277 298.449 92.3789C298.074 93.5215 297.436 94.4766 296.469 95.0273L295.625 93.9023C297.137 93.0352 297.723 91.2891 297.734 89.6367V89.4375H295.965V88.2188H297.734V86.7773H299.129V88.2188H300.887V89.4375H299.141V89.6367ZM305.117 86.4141V97.0781H303.688V91.7344H302.785V96.5859H301.367V86.5664H302.785V90.5156H303.688V86.4141H305.117ZM308.258 86.8594V90.3164C309.588 90.3047 310.947 90.2051 312.383 89.9531L312.582 91.1602C310.836 91.4766 309.242 91.5703 307.66 91.5586H306.781V86.8594H308.258ZM315.172 86.4141V91.8164H313.684V89.1094H311.047V87.9141H313.684V86.4141H315.172ZM315.172 92.2148V95.1211H309.594V95.7656H315.43V96.9609H308.094V93.9844H313.672V93.3867H308.082V92.2148H315.172ZM319.707 98.3906H316.473V97.0898H318.043V88.4531H316.473V87.1523H319.707V98.3906ZM324.383 89.7305C324.383 91.3945 325.238 93.1055 326.668 93.8672L326.129 94.5586C325.092 93.9902 324.342 92.9238 323.961 91.6641C323.586 93 322.842 94.1602 321.805 94.7695L321.254 94.0898C322.66 93.2695 323.504 91.4531 323.516 89.7305V89.25H321.5V88.4883H323.516V86.918H324.395V88.4883H326.387V89.25H324.383V89.7305ZM330.289 86.5312V96.9492H329.398V91.5352H327.98V96.4219H327.102V86.7539H327.98V90.75H329.398V86.5312H330.289ZM337.309 87.3047V88.0547H333.242V89.3672H337.016V90.1172H333.242V91.4883C335.463 91.4883 336.693 91.4473 338.164 91.207L338.258 91.957C336.734 92.2031 335.457 92.25 333.16 92.25H332.316V87.3047H337.309ZM340.309 86.543V93H339.395V86.543H340.309ZM336.852 93.1523C339.02 93.1406 340.355 93.832 340.355 95.0273C340.355 96.2461 339.02 96.9258 336.852 96.9258C334.637 96.9258 333.324 96.2461 333.324 95.0273C333.324 93.832 334.637 93.1406 336.852 93.1523ZM336.852 93.8789C335.211 93.8789 334.238 94.3125 334.238 95.0273C334.238 95.7656 335.211 96.1992 336.852 96.1992C338.445 96.1992 339.453 95.7656 339.453 95.0273C339.453 94.3125 338.445 93.8789 336.852 93.8789ZM350.141 86.5312V90.832H351.887V91.5938H350.141V96.9492H349.227V86.5312H350.141ZM348.219 88.207V88.9688H342.02V88.207H344.703V86.6602H345.617V88.207H348.219ZM345.172 89.8359C346.648 89.8359 347.715 90.8203 347.727 92.2266C347.715 93.6328 346.648 94.6172 345.172 94.6172C343.684 94.6172 342.605 93.6328 342.617 92.2266C342.605 90.8203 343.684 89.8359 345.172 89.8359ZM345.172 90.6094C344.199 90.6094 343.484 91.2891 343.496 92.2266C343.484 93.1758 344.199 93.8438 345.172 93.832C346.133 93.8438 346.836 93.1758 346.848 92.2266C346.836 91.2891 346.133 90.6094 345.172 90.6094ZM71.0352 102.531V112.949H70.1094V102.531H71.0352ZM67.9531 103.668C67.9414 106.668 66.5469 109.316 63.0547 110.992L62.5508 110.242C65.3691 108.906 66.8047 106.908 67.0156 104.418H63.0312V103.668H67.9531ZM82.3203 107.371V108.098H72.7812V107.371H82.3203ZM81.125 108.93V111.145H74.8672V112.141H81.4648V112.809H73.9414V110.512H80.2109V109.621H73.9297V108.93H81.125ZM81.0898 102.848V105.004H74.9375V105.918H81.2773V106.586H74.0234V104.371H80.1641V103.516H73.9883V102.848H81.0898ZM95.668 108.062V108.812H86.1641V108.062H90.4531V107.031H87.4297V102.836H94.4844V103.586H88.3555V104.559H94.2031V105.262H88.3555V106.293H94.543V107.031H91.3672V108.062H95.668ZM90.9219 109.598C93.207 109.586 94.4961 110.172 94.5078 111.262C94.4961 112.352 93.207 112.926 90.9219 112.926C88.6133 112.926 87.3242 112.352 87.3242 111.262C87.3242 110.172 88.6133 109.586 90.9219 109.598ZM90.9219 110.289C89.1992 110.289 88.2383 110.641 88.25 111.262C88.2383 111.895 89.1992 112.223 90.9219 112.211C92.6211 112.223 93.582 111.895 93.582 111.262C93.582 110.641 92.6211 110.289 90.9219 110.289ZM101.75 104.336V105.086H96.5234V104.336H98.6914V102.848H99.6055V104.336H101.75ZM99.1367 105.789C100.449 105.789 101.387 106.773 101.398 108.156C101.387 109.551 100.449 110.547 99.1367 110.547C97.8359 110.547 96.8984 109.551 96.8984 108.156C96.8984 106.773 97.8359 105.789 99.1367 105.789ZM99.1367 106.562C98.3164 106.574 97.7188 107.242 97.7188 108.156C97.7188 109.082 98.3164 109.75 99.1367 109.738C99.9688 109.75 100.578 109.082 100.578 108.156C100.578 107.242 99.9688 106.574 99.1367 106.562ZM105.418 102.531V112.949H104.539V107.688H103.156V112.434H102.289V102.789H103.156V106.926H104.539V102.531H105.418ZM71.9492 123.863V124.625H67.707V126.758H66.793V124.625H62.4102V123.863H71.9492ZM70.707 119.047V122.668H63.6523V119.047H70.707ZM64.5547 119.773V121.93H69.793V119.773H64.5547ZM70.8828 127.953V128.727H63.6289V125.727H64.5547V127.953H70.8828ZM76.2031 119.293C77.8438 119.293 79.0039 120.289 79.0039 121.742C79.0039 123.195 77.8438 124.191 76.2031 124.191C74.5625 124.191 73.3789 123.195 73.3906 121.742C73.3789 120.289 74.5625 119.293 76.2031 119.293ZM76.2031 120.102C75.0898 120.102 74.2812 120.77 74.293 121.742C74.2812 122.715 75.0898 123.383 76.2031 123.383C77.3047 123.383 78.1016 122.715 78.1016 121.742C78.1016 120.77 77.3047 120.102 76.2031 120.102ZM81.3359 118.531V128.973H80.4219V118.531H81.3359ZM72.8516 125.891C74.7734 125.891 77.4219 125.879 79.7305 125.539L79.8008 126.219C77.4219 126.664 74.8555 126.676 72.9805 126.676L72.8516 125.891ZM88.3672 120.336V121.086H83.1406V120.336H85.3086V118.848H86.2227V120.336H88.3672ZM85.7539 121.789C87.0664 121.789 88.0039 122.773 88.0156 124.156C88.0039 125.551 87.0664 126.547 85.7539 126.547C84.4531 126.547 83.5156 125.551 83.5156 124.156C83.5156 122.773 84.4531 121.789 85.7539 121.789ZM85.7539 122.562C84.9336 122.574 84.3359 123.242 84.3359 124.156C84.3359 125.082 84.9336 125.75 85.7539 125.738C86.5859 125.75 87.1953 125.082 87.1953 124.156C87.1953 123.242 86.5859 122.574 85.7539 122.562ZM92.0352 118.531V128.949H91.1562V123.688H89.7734V128.434H88.9062V118.789H89.7734V122.926H91.1562V118.531H92.0352ZM98.7969 120.008C98.7852 121.402 100.648 122.586 102.465 122.855L102.125 123.582C100.496 123.307 98.9141 122.439 98.2812 121.18C97.6484 122.439 96.0605 123.307 94.4609 123.582L94.0977 122.855C95.9023 122.586 97.7656 121.402 97.7656 120.008V119.938H94.4258V119.188H102.125V119.938H98.7969V120.008ZM103.027 124.473V125.234H98.7148V128.949H97.8125V125.234H93.5352V124.473H103.027ZM107 121.496C107 123.148 107.809 124.941 109.191 125.762L108.664 126.477C107.662 125.867 106.941 124.754 106.578 123.488C106.191 124.871 105.418 126.061 104.375 126.699L103.789 126.008C105.23 125.164 106.109 123.312 106.109 121.531V119.516H107V121.496ZM112.836 118.531V128.949H111.945V118.531H112.836ZM110.68 118.754V128.422H109.812V123.055H108.043V122.27H109.812V118.754H110.68ZM123.816 126.84V127.613H114.277V126.84H116.645V124.027C115.754 123.564 115.215 122.814 115.215 121.871C115.215 120.254 116.797 119.199 119.023 119.188C121.25 119.199 122.832 120.254 122.832 121.871C122.832 122.797 122.311 123.541 121.449 124.004V126.84H123.816ZM119.023 119.949C117.312 119.938 116.105 120.711 116.105 121.871C116.105 123.031 117.312 123.816 119.023 123.816C120.723 123.816 121.941 123.031 121.941 121.871C121.941 120.711 120.723 119.938 119.023 119.949ZM117.547 126.84H120.523V124.355C120.072 124.479 119.568 124.543 119.023 124.543C118.49 124.543 117.992 124.484 117.547 124.367V126.84ZM125.75 128.07C125.34 128.07 124.988 127.73 125 127.309C124.988 126.898 125.34 126.559 125.75 126.559C126.16 126.559 126.5 126.898 126.5 127.309C126.5 127.73 126.16 128.07 125.75 128.07Z" fill="#676767"/>
<path d="M140.621 97.8047H232.941V98.9062H140.621V97.8047ZM259.707 97.8047H320.914V98.9062H259.707V97.8047Z" fill="#676767"/>
<mask id="path-11-inside-1_584_3" fill="white">
<path d="M0 182H130V242H0V182Z"/>
</mask>
<path d="M0 182H130V242H0V182Z" fill="white"/>
<path d="M0 183H130V181H0V183Z" fill="#E2E2E2" mask="url(#path-11-inside-1_584_3)"/>
<path d="M62.6875 205.328V208.562H64.7188V209.781H62.6875V213.188H61.2031V205.328H62.6875ZM52.3125 212.469V206.219H58.5312V207.438H53.7812V211.234C56.5078 211.227 58.0391 211.141 59.7969 210.766L59.9688 211.984C58.0781 212.367 56.4219 212.469 53.4219 212.469H52.3125ZM53.7812 219.156V213.938H62.8125V215.141H55.2656V217.953H63.0625V219.156H53.7812ZM77.1562 205.328V219.328H75.6562V205.328H77.1562ZM65.6562 215.578C69.375 213.805 71.1953 211.281 71.4844 208.016H66.3281V206.828H72.9844C72.9844 210.93 71.2422 214.477 66.4375 216.781L65.6562 215.578Z" fill="#555555"/>
<rect width="270" height="60" transform="translate(130 182)" fill="#009DCE"/>
<path d="M247.516 205.344V215.516H246.031V205.344H247.516ZM236.188 209.75C236.195 207.727 237.805 206.289 239.922 206.281C242.031 206.289 243.641 207.727 243.641 209.75C243.641 211.805 242.031 213.234 239.922 213.234C237.805 213.234 236.195 211.805 236.188 209.75ZM237.641 209.75C237.633 211.07 238.617 211.938 239.922 211.938C241.203 211.938 242.188 211.07 242.188 209.75C242.188 208.461 241.203 207.578 239.922 207.578C238.617 207.578 237.633 208.461 237.641 209.75ZM238.359 219.031V214.484H239.859V217.828H247.938V219.031H238.359ZM262.5 211.922V213.125H249.734V211.922H262.5ZM250.406 210.016C252.945 209.742 254.953 208.602 255.117 207.234H250.906V206.016H261.359V207.234H257.102C257.273 208.594 259.25 209.742 261.844 210.016L261.312 211.188C258.883 210.906 256.875 209.883 256.117 208.406C255.344 209.883 253.352 210.906 250.922 211.188L250.406 210.016ZM251.25 216.766C251.25 215.141 253.07 214.203 256.109 214.203C259.125 214.203 260.93 215.141 260.938 216.766C260.93 218.391 259.125 219.305 256.109 219.297C253.07 219.305 251.25 218.391 251.25 216.766ZM252.75 216.766C252.742 217.648 253.969 218.133 256.109 218.125C258.219 218.133 259.453 217.648 259.453 216.766C259.453 215.859 258.219 215.375 256.109 215.359C253.969 215.375 252.742 215.859 252.75 216.766ZM271.719 205.953C273.766 205.953 275.203 207.078 275.219 208.75C275.203 210.172 274.125 211.211 272.5 211.469V212.719C273.734 212.648 274.984 212.531 276.141 212.359L276.25 213.453C273.312 213.984 270.016 214.039 267.609 214.031L267.453 212.828C268.5 212.836 269.727 212.828 271.016 212.781V211.484C269.344 211.25 268.227 210.195 268.234 208.75C268.227 207.078 269.664 205.953 271.719 205.953ZM269.438 219.031V215.109H270.922V217.812H278.984V219.031H269.438ZM269.625 208.75C269.609 209.742 270.484 210.391 271.719 210.391C272.961 210.391 273.812 209.742 273.812 208.75C273.812 207.734 272.961 207.094 271.719 207.094C270.484 207.094 269.609 207.734 269.625 208.75ZM277 216.047V205.344H278.484V209.969H280.484V211.219H278.484V216.047H277ZM294.109 216.406V217.656H281.297V216.406H284.797V213.938H282.859V209.484H291.078V207.531H282.828V206.312H292.547V210.688H284.328V212.719H292.875V213.938H290.75V216.406H294.109ZM286.234 216.406H289.297V213.938H286.234V216.406Z" fill="white"/>
</svg>
