<svg width="400" height="100" viewBox="0 0 400 100" fill="none" xmlns="http://www.w3.org/2000/svg">
<mask id="mask0_582_2" style="mask-type:alpha" maskUnits="userSpaceOnUse" x="247" y="0" width="20" height="20">
<rect x="247" width="20" height="20" fill="#D9D9D9"/>
</mask>
<g mask="url(#mask0_582_2)">
<path d="M251.938 14.0625C252.688 13.5347 253.49 13.1424 254.344 12.8854C255.198 12.6285 256.083 12.5 257 12.5C257.917 12.5 258.802 12.6285 259.656 12.8854C260.51 13.1424 261.312 13.5347 262.062 14.0625C262.549 13.4931 262.91 12.8611 263.146 12.1667C263.382 11.4722 263.5 10.75 263.5 10C263.5 8.19903 262.866 6.66542 261.599 5.39917C260.332 4.13305 258.798 3.5 256.995 3.5C255.193 3.5 253.66 4.13305 252.396 5.39917C251.132 6.66542 250.5 8.19903 250.5 10C250.5 10.75 250.618 11.4722 250.854 12.1667C251.09 12.8611 251.451 13.4931 251.938 14.0625ZM257 11.5C256.167 11.5 255.458 11.2083 254.875 10.625C254.292 10.0417 254 9.33333 254 8.5C254 7.66667 254.292 6.95833 254.875 6.375C255.458 5.79167 256.167 5.5 257 5.5C257.833 5.5 258.542 5.79167 259.125 6.375C259.708 6.95833 260 7.66667 260 8.5C260 9.33333 259.708 10.0417 259.125 10.625C258.542 11.2083 257.833 11.5 257 11.5ZM257.006 18C255.905 18 254.868 17.7917 253.896 17.375C252.924 16.9583 252.073 16.3854 251.344 15.6562C250.615 14.9271 250.042 14.0767 249.625 13.105C249.208 12.1333 249 11.0951 249 9.99042C249 8.88569 249.208 7.85069 249.625 6.88542C250.042 5.92014 250.615 5.07292 251.344 4.34375C252.073 3.61458 252.923 3.04167 253.895 2.625C254.867 2.20833 255.905 2 257.01 2C258.114 2 259.149 2.20833 260.115 2.625C261.08 3.04167 261.927 3.61458 262.656 4.34375C263.385 5.07292 263.958 5.92167 264.375 6.89C264.792 7.85847 265 8.89319 265 9.99417C265 11.0953 264.792 12.1319 264.375 13.1042C263.958 14.0764 263.385 14.9271 262.656 15.6562C261.927 16.3854 261.078 16.9583 260.11 17.375C259.142 17.7917 258.107 18 257.006 18Z" fill="#009DCE"/>
</g>
<path d="M275.566 7.2207C275.566 9.36035 276.981 11.5684 278.711 12.416L278.055 13.2773C276.715 12.5801 275.594 11.1377 275.054 9.44922C274.514 11.2402 273.365 12.7783 271.998 13.5098L271.314 12.6484C273.092 11.7734 274.5 9.44238 274.514 7.2207V5.00586H275.566V7.2207ZM279.832 16.1074V3.95312H280.898V8.88867H282.936V9.81836H280.898V16.1074H279.832ZM294.666 9.96875V10.8574H283.592V9.96875H286.34V8.25293C285.369 7.87695 284.822 7.26172 284.822 6.44141C284.822 5.0127 286.463 4.19238 289.129 4.18555C291.774 4.19238 293.415 5.0127 293.422 6.44141C293.415 7.25488 292.875 7.87012 291.918 8.25293V9.96875H294.666ZM284.932 13.9336C284.925 12.5459 286.49 11.7803 289.129 11.7871C291.733 11.7803 293.299 12.5459 293.312 13.9336C293.299 15.3213 291.733 16.0801 289.129 16.0801C286.49 16.0801 284.925 15.3213 284.932 13.9336ZM285.93 6.44141C285.923 7.33008 287.14 7.84277 289.129 7.84961C291.098 7.84277 292.321 7.33008 292.328 6.44141C292.321 5.56641 291.098 5.0332 289.129 5.0332C287.14 5.0332 285.923 5.56641 285.93 6.44141ZM286.025 13.9336C286.012 14.7607 287.181 15.2529 289.129 15.2461C291.057 15.2529 292.226 14.7607 292.232 13.9336C292.226 13.1064 291.057 12.6211 289.129 12.6074C287.181 12.6211 286.012 13.1064 286.025 13.9336ZM287.406 9.96875H290.852V8.54004C290.339 8.63574 289.765 8.68359 289.129 8.68359C288.493 8.68359 287.919 8.63574 287.406 8.54688V9.96875ZM301.297 11.5957C303.792 11.5957 305.303 12.416 305.303 13.8379C305.303 15.2734 303.792 16.0938 301.297 16.1074C298.795 16.0938 297.271 15.2734 297.264 13.8379C297.271 12.416 298.795 11.5957 301.297 11.5957ZM296.211 10.3242V4.71875H297.264V6.57812H300.805V4.71875H301.871V10.3242H296.211ZM297.264 9.44922H300.805V7.42578H297.264V9.44922ZM298.344 13.8379C298.33 14.7129 299.465 15.2324 301.297 15.2324C303.136 15.2324 304.257 14.7129 304.264 13.8379C304.257 12.9697 303.136 12.457 301.297 12.4434C299.465 12.457 298.33 12.9697 298.344 13.8379ZM304.127 11.2676V3.95312H305.193V7.01562H307.025V7.93164H305.193V11.2676H304.127ZM309.473 4.58203V6.46875H312.863V4.58203H313.916V6.94727H316.787V3.95312H317.867V10.5977H316.787V7.84961H313.916V10.1465H308.406V4.58203H309.473ZM309.473 9.27148H312.863V7.31641H309.473V9.27148ZM310.033 15.9434V11.1855H311.113V12.6758H316.787V11.1855H317.854V15.9434H310.033ZM311.113 15.0547H316.787V13.5371H311.113V15.0547ZM324.99 5.375V8.54688H326.836V4.21289H327.861V15.4922H326.836V9.43555H324.99V12.8398H320.342V5.375H324.99ZM321.354 11.9785H323.979V6.23633H321.354V11.9785ZM329.27 16.1074V3.95312H330.309V16.1074H329.27ZM341.766 8.06836V8.95703H333.398V4.58203H334.492V8.06836H341.766ZM331.99 11.6094V10.7207H343.064V11.6094H340.18V16.1074H339.113V11.6094H335.955V16.1074H334.889V11.6094H331.99ZM354.152 3.95312V10.1465H353.086V7.5625H350.55C350.324 8.96387 349.08 9.90723 347.439 9.90039C345.607 9.90723 344.274 8.76562 344.281 7.125C344.274 5.50488 345.607 4.38379 347.439 4.39062C349.066 4.38379 350.304 5.29297 350.543 6.66016H353.086V3.95312H354.152ZM345.307 7.125C345.307 8.23242 346.195 9.01855 347.439 9.01172C348.643 9.01855 349.545 8.23242 349.545 7.125C349.545 6.04492 348.643 5.26562 347.439 5.2793C346.195 5.26562 345.307 6.04492 345.307 7.125ZM346.277 11.6777V10.8164H354.152V13.7285H347.371V15.082H354.617V15.9434H346.305V12.9082H353.086V11.6777H346.277ZM365.691 3.95312V7.6582H367.523V8.56055H365.691V12.9219H364.625V3.95312H365.691ZM356.422 7.80859C356.415 6.04492 357.796 4.82129 359.607 4.81445C361.433 4.82129 362.793 6.04492 362.807 7.80859C362.793 9.56543 361.433 10.8027 359.607 10.8027C357.796 10.8027 356.415 9.56543 356.422 7.80859ZM357.475 7.80859C357.468 9.00488 358.404 9.85938 359.607 9.85938C360.831 9.85938 361.747 9.00488 361.754 7.80859C361.747 6.60547 360.831 5.75781 359.607 5.75781C358.404 5.75781 357.468 6.60547 357.475 7.80859ZM358.09 15.8477V11.9922H359.143V14.9453H366.252V15.8477H358.09ZM378.666 3.95312V16.1074H377.613V9.81836H375.863V15.4785H374.852V4.22656H375.863V8.90234H377.613V3.95312H378.666ZM368.904 12.9629V5.44336H369.971V12.0059C371.174 11.999 372.473 11.9102 373.949 11.6094L374.086 12.5664C372.391 12.874 370.996 12.9629 369.656 12.9629H368.904Z" fill="#009DCE"/>
<rect width="400" height="60" transform="translate(0 40)" fill="#009DCE"/>
<path d="M197.594 63.3281V68.75H199.844V69.9688H197.594V77.3594H196.109V63.3281H197.594ZM187.281 73.875V64.6719H193.828V65.875H188.766V72.6406C191.117 72.6328 192.875 72.5312 194.875 72.1719L195.062 73.4219C192.867 73.8125 191.008 73.8828 188.406 73.875H187.281ZM206.891 63.625C209.961 63.6172 211.883 64.6172 211.891 66.3125C211.883 67.9766 209.961 68.9609 206.891 68.9531C203.828 68.9609 201.883 67.9766 201.891 66.3125C201.883 64.6172 203.828 63.6172 206.891 63.625ZM200.516 71.2344V70.0312H213.281V71.2344H200.516ZM202.047 77.1562V72.4844H211.719V77.1562H202.047ZM203.422 66.3125C203.414 67.2422 204.734 67.7891 206.891 67.7969C209.031 67.7891 210.367 67.2422 210.359 66.3125C210.367 65.3438 209.031 64.7891 206.891 64.7969C204.734 64.7891 203.414 65.3438 203.422 66.3125ZM203.516 75.9531H210.281V73.6719H203.516V75.9531Z" fill="white"/>
</svg>
