<svg width="400" height="286" viewBox="0 0 400 286" fill="none" xmlns="http://www.w3.org/2000/svg">
<path d="M0 20C0 8.95431 8.95431 0 20 0H380C391.046 0 400 8.95431 400 20V286H0V20Z" fill="white"/>
<mask id="path-2-inside-1_506_7762" fill="white">
<path d="M0 25H400V64H0V25Z"/>
</mask>
<path d="M400 63H0V65H400V63Z" fill="#DEDEDE" mask="url(#path-2-inside-1_506_7762)"/>
<g clip-path="url(#clip0_506_7762)">
<path d="M377.066 25.9335L364.933 38.0668" stroke="#555555" stroke-width="2" stroke-linecap="round" stroke-linejoin="round"/>
<path d="M364.933 25.9335L377.066 38.0668" stroke="#555555" stroke-width="2" stroke-linecap="round" stroke-linejoin="round"/>
</g>
<path d="M30.8691 94.9531V107.107H29.8164V100.75H28.1348V106.506H27.1094V95.2812H28.1348V99.8613H29.8164V94.9531H30.8691ZM20.5059 103.744C23.3291 102.165 24.4912 99.9434 24.6758 97.4277H20.9707V96.5391H25.7285C25.7148 99.6289 24.6279 102.548 21.1348 104.496L20.5059 103.744ZM42.627 94.9668V103.854H41.5605V94.9668H42.627ZM32.8789 98.7949C32.8721 97.0449 34.2461 95.8213 36.0645 95.8145C37.8828 95.8213 39.2432 97.0449 39.25 98.7949C39.2432 100.565 37.8828 101.796 36.0645 101.789C34.2461 101.796 32.8721 100.565 32.8789 98.7949ZM33.9316 98.7949C33.918 100.005 34.834 100.846 36.0645 100.846C37.2744 100.846 38.1973 100.005 38.1973 98.7949C38.1973 97.6055 37.2744 96.7578 36.0645 96.7578C34.834 96.7578 33.918 97.6055 33.9316 98.7949ZM34.7793 106.848V102.951H35.8457V105.945H43.0098V106.848H34.7793ZM54.7676 94.9531V102.199H53.6875V99.0137H51.2402V98.125H53.6875V94.9531H54.7676ZM44.7461 101.229C46.5508 100.579 47.8359 98.9316 47.8359 97.1953V96.7441H45.0879V95.8418H51.6367V96.7441H48.916V97.1816C48.916 98.7676 50.1328 100.278 51.9102 100.887L51.3496 101.748C49.9893 101.256 48.9297 100.23 48.4033 98.9795C47.8838 100.401 46.7559 101.536 45.3066 102.09L44.7461 101.229ZM46.6602 104.838C46.6533 103.409 48.2051 102.575 50.7344 102.582C53.2568 102.575 54.8086 103.409 54.8086 104.838C54.8086 106.273 53.2568 107.094 50.7344 107.107C48.2051 107.094 46.6533 106.273 46.6602 104.838ZM47.7266 104.838C47.7197 105.72 48.8682 106.253 50.7344 106.246C52.5938 106.253 53.7422 105.72 53.7422 104.838C53.7422 103.949 52.5938 103.416 50.7344 103.416C48.8682 103.416 47.7197 103.949 47.7266 104.838ZM67.9199 104.66V105.549H56.791V104.66H61.7949V102.035H58.1035V95.8145H59.1836V98.0156H65.5V95.8145H66.5527V102.035H62.8477V104.66H67.9199ZM59.1836 101.16H65.5V98.8906H59.1836V101.16ZM78.502 96.0879C78.5088 97.8037 80.7373 99.2803 82.9316 99.5879L82.4941 100.463C80.6074 100.148 78.7344 99.1025 77.9551 97.6123C77.1758 99.1162 75.3096 100.148 73.416 100.463L72.9785 99.5879C75.1729 99.2803 77.3945 97.8311 77.3945 96.0879V95.3906H78.502V96.0879ZM72.4043 102.705V101.803H83.4785V102.705H78.4473V107.107H77.3945V102.705H72.4043ZM88.8789 96.9629C88.8857 98.5488 90.1982 99.957 92.0098 100.504L91.4629 101.352C90.041 100.9 88.8994 99.9229 88.3525 98.665C87.8125 100.012 86.6641 101.064 85.2148 101.557L84.6543 100.709C86.4863 100.128 87.792 98.6309 87.7988 96.9629V96.6484H84.9551V95.7734H91.6816V96.6484H88.8789V96.9629ZM86.6641 106.943V102.131H87.7305V103.607H93.4727V102.131H94.5391V106.943H86.6641ZM87.7305 106.068H93.4727V104.469H87.7305V106.068ZM93.4727 101.529V94.9531H94.5391V101.529H93.4727ZM97.8887 102.555C97.4102 102.548 97 102.151 97.0137 101.666C97 101.188 97.4102 100.791 97.8887 100.791C98.374 100.791 98.7705 101.188 98.7637 101.666C98.7705 102.151 98.374 102.548 97.8887 102.555ZM110.18 94.9531V107.135H109.1V94.9531H110.18ZM100.609 100.135C100.616 97.5508 101.901 95.9033 103.713 95.8965C105.518 95.9033 106.823 97.5508 106.816 100.135C106.823 102.726 105.518 104.366 103.713 104.359C101.901 104.366 100.616 102.726 100.609 100.135ZM101.648 100.135C101.648 102.11 102.496 103.409 103.713 103.402C104.937 103.409 105.777 102.11 105.777 100.135C105.777 98.1592 104.937 96.8604 103.713 96.8535C102.496 96.8604 101.648 98.1592 101.648 100.135ZM123.332 100.969V101.857H112.258V100.969H115.006V99.2529C114.035 98.877 113.488 98.2617 113.488 97.4414C113.488 96.0127 115.129 95.1924 117.795 95.1855C120.44 95.1924 122.081 96.0127 122.088 97.4414C122.081 98.2549 121.541 98.8701 120.584 99.2529V100.969H123.332ZM113.598 104.934C113.591 103.546 115.156 102.78 117.795 102.787C120.399 102.78 121.965 103.546 121.979 104.934C121.965 106.321 120.399 107.08 117.795 107.08C115.156 107.08 113.591 106.321 113.598 104.934ZM114.596 97.4414C114.589 98.3301 115.806 98.8428 117.795 98.8496C119.764 98.8428 120.987 98.3301 120.994 97.4414C120.987 96.5664 119.764 96.0332 117.795 96.0332C115.806 96.0332 114.589 96.5664 114.596 97.4414ZM114.691 104.934C114.678 105.761 115.847 106.253 117.795 106.246C119.723 106.253 120.892 105.761 120.898 104.934C120.892 104.106 119.723 103.621 117.795 103.607C115.847 103.621 114.678 104.106 114.691 104.934ZM116.072 100.969H119.518V99.54C119.005 99.6357 118.431 99.6836 117.795 99.6836C117.159 99.6836 116.585 99.6357 116.072 99.5469V100.969ZM135.445 100.969V101.83H124.357V100.969H129.375V99.5469H125.766V95.5273H134.064V96.3887H126.818V98.6719H134.146V99.5469H130.414V100.969H135.445ZM125.697 104.906C125.69 103.519 127.27 102.726 129.895 102.719C132.499 102.726 134.064 103.519 134.078 104.906C134.064 106.308 132.499 107.094 129.895 107.107C127.27 107.094 125.69 106.308 125.697 104.906ZM126.791 104.906C126.777 105.761 127.946 106.253 129.895 106.246C131.822 106.253 132.991 105.761 132.998 104.906C132.991 104.065 131.822 103.566 129.895 103.566C127.946 103.566 126.777 104.065 126.791 104.906ZM140.436 95.8418C142.343 95.8486 143.696 97.0107 143.703 98.6992C143.696 100.395 142.343 101.55 140.436 101.557C138.515 101.55 137.147 100.395 137.154 98.6992C137.147 97.0107 138.515 95.8486 140.436 95.8418ZM136.525 103.539C138.768 103.546 141.864 103.525 144.551 103.129L144.633 103.922C141.851 104.441 138.863 104.455 136.676 104.455L136.525 103.539ZM138.207 98.6992C138.2 99.834 139.137 100.613 140.436 100.613C141.721 100.613 142.657 99.834 142.65 98.6992C142.657 97.5713 141.721 96.7852 140.436 96.7852C139.137 96.7852 138.2 97.5713 138.207 98.6992ZM145.357 107.135V94.9531H146.424V107.135H145.357ZM149.309 102.227C149.322 99.6494 150.02 97.5029 151.277 95.6777H152.316C151.394 97.0244 150.532 99.793 150.525 102.227C150.532 104.667 151.394 107.429 152.316 108.789H151.277C150.02 106.957 149.322 104.811 149.309 102.227ZM163.377 94.9531V101.27H162.297V94.9531H163.377ZM153.533 99.9434C154.019 99.9434 154.545 99.9365 155.092 99.9297V96.6484H153.875V95.7871H160.451V96.6484H159.221V99.7656C159.85 99.7178 160.465 99.6562 161.053 99.5879L161.107 100.381C158.674 100.743 155.816 100.839 153.67 100.832L153.533 99.9434ZM155.42 102.719V101.857H163.377V104.756H156.514V106.096H163.842V106.971H155.461V103.949H162.311V102.719H155.42ZM156.131 99.9092C156.801 99.8887 157.491 99.8682 158.182 99.8271V96.6484H156.131V99.9092ZM171.525 96.0879C171.532 97.8037 173.761 99.2803 175.955 99.5879L175.518 100.463C173.631 100.148 171.758 99.1025 170.979 97.6123C170.199 99.1162 168.333 100.148 166.439 100.463L166.002 99.5879C168.196 99.2803 170.418 97.8311 170.418 96.0879V95.3906H171.525V96.0879ZM165.428 102.705V101.803H176.502V102.705H171.471V107.107H170.418V102.705H165.428ZM180.562 102.227C180.549 104.811 179.852 106.957 178.594 108.789H177.555C178.478 107.429 179.339 104.667 179.346 102.227C179.339 99.793 178.478 97.0244 177.555 95.6777H178.594C179.852 97.5029 180.549 99.6494 180.562 102.227Z" fill="#222222"/>
<path d="M366.621 104.66V105.549H355.492V104.66H360.496V102.035H356.805V95.8145H357.885V98.0156H364.201V95.8145H365.254V102.035H361.549V104.66H366.621ZM357.885 101.16H364.201V98.8906H357.885V101.16ZM377.641 94.9531V107.107H376.561V94.9531H377.641ZM367.742 103.949C371.03 102.391 372.712 100.06 372.951 97.1543H368.303V96.2793H374.045C374.031 99.7725 372.404 102.869 368.33 104.824L367.742 103.949Z" fill="#009DCE"/>
<path d="M355 108.235H379.199V109.186H355V108.235Z" fill="#009DCE"/>
<path d="M30.8828 138.953V151.107H29.8574V138.953H30.8828ZM20.3418 147.867C22.0371 146.855 23.0283 144.634 23.0215 142.426V141.277H20.6836V140.389H26.2891V141.277H24.0605V142.426C24.0605 144.524 25.0107 146.623 26.6855 147.594L26.0293 148.387C24.833 147.669 23.9854 146.356 23.5615 144.812C23.124 146.486 22.2422 147.915 21.0254 148.674L20.3418 147.867ZM25.3594 144.217V143.342H27.4102V139.254H28.4219V150.479H27.4102V144.217H25.3594ZM36.4473 150.137C34.4785 150.137 33.0635 149.084 33.002 147.512H34.2461C34.3145 148.455 35.251 149.043 36.4336 149.043C37.7393 149.043 38.6826 148.339 38.6895 147.307C38.6826 146.227 37.8213 145.468 36.2832 145.461H35.4766V144.381H36.2832C37.4863 144.381 38.3271 143.704 38.3203 142.686C38.3271 141.694 37.6025 141.038 36.4746 141.031C35.415 141.038 34.4512 141.619 34.3965 142.59H33.207C33.2686 141.018 34.7314 139.965 36.4883 139.965C38.375 139.965 39.5234 141.202 39.5098 142.617C39.5234 143.745 38.8672 144.565 37.8281 144.859V144.928C39.1201 145.126 39.8994 146.049 39.8926 147.307C39.8994 148.934 38.4229 150.137 36.4473 150.137ZM45.3477 142.686C45.334 144.634 46.7422 146.78 48.5059 147.621L47.8906 148.469C46.5234 147.799 45.3682 146.363 44.8213 144.716C44.2607 146.5 43.0439 148.072 41.6836 148.77L41.0273 147.922C42.7773 147.067 44.2812 144.757 44.2949 142.686V141.1H41.4648V140.211H48.082V141.1H45.3477V142.686ZM49.5723 151.107V138.953H50.6387V143.875H52.6758V144.791H50.6387V151.107H49.5723ZM63.4082 138.953V146.199H62.3281V143.014H59.8809V142.125H62.3281V138.953H63.4082ZM53.3867 145.229C55.1914 144.579 56.4766 142.932 56.4766 141.195V140.744H53.7285V139.842H60.2773V140.744H57.5566V141.182C57.5566 142.768 58.7734 144.278 60.5508 144.887L59.9902 145.748C58.6299 145.256 57.5703 144.23 57.0439 142.979C56.5244 144.401 55.3965 145.536 53.9473 146.09L53.3867 145.229ZM55.3008 148.838C55.2939 147.409 56.8457 146.575 59.375 146.582C61.8975 146.575 63.4492 147.409 63.4492 148.838C63.4492 150.273 61.8975 151.094 59.375 151.107C56.8457 151.094 55.2939 150.273 55.3008 148.838ZM56.3672 148.838C56.3604 149.72 57.5088 150.253 59.375 150.246C61.2344 150.253 62.3828 149.72 62.3828 148.838C62.3828 147.949 61.2344 147.416 59.375 147.416C57.5088 147.416 56.3604 147.949 56.3672 148.838ZM76.5605 148.66V149.549H65.4316V148.66H70.4355V146.035H66.7441V139.814H67.8242V142.016H74.1406V139.814H75.1934V146.035H71.4883V148.66H76.5605ZM67.8242 145.16H74.1406V142.891H67.8242V145.16ZM87.9219 138.953V151.107H86.8965V138.953H87.9219ZM77.3809 147.867C79.0762 146.855 80.0674 144.634 80.0605 142.426V141.277H77.7227V140.389H83.3281V141.277H81.0996V142.426C81.0996 144.524 82.0498 146.623 83.7246 147.594L83.0684 148.387C81.8721 147.669 81.0244 146.356 80.6006 144.812C80.1631 146.486 79.2812 147.915 78.0645 148.674L77.3809 147.867ZM82.3984 144.217V143.342H84.4492V139.254H85.4609V150.479H84.4492V144.217H82.3984ZM95.127 146.637C97.7314 146.637 99.3857 147.457 99.3926 148.865C99.3857 150.26 97.7314 151.08 95.127 151.08C92.5225 151.08 90.8682 150.26 90.875 148.865C90.8682 147.457 92.5225 146.637 95.127 146.637ZM89.6445 145.502V144.627H94.2246V142.275H95.2773V144.627H100.705V145.502H89.6445ZM90.957 140.457V139.582H99.2969V140.607C99.29 141.592 99.29 142.576 98.9551 143.834L97.9023 143.711C98.2305 142.46 98.2305 141.558 98.2305 140.607V140.457H90.957ZM91.9414 148.865C91.9346 149.713 93.1924 150.232 95.127 150.232C97.0684 150.232 98.3125 149.713 98.3262 148.865C98.3125 147.997 97.0684 147.464 95.127 147.457C93.1924 147.464 91.9346 147.997 91.9414 148.865ZM112.818 144.969V145.83H101.73V144.969H106.748V143.547H103.139V139.527H111.438V140.389H104.191V142.672H111.52V143.547H107.787V144.969H112.818ZM103.07 148.906C103.063 147.519 104.643 146.726 107.268 146.719C109.872 146.726 111.438 147.519 111.451 148.906C111.438 150.308 109.872 151.094 107.268 151.107C104.643 151.094 103.063 150.308 103.07 148.906ZM104.164 148.906C104.15 149.761 105.319 150.253 107.268 150.246C109.195 150.253 110.364 149.761 110.371 148.906C110.364 148.065 109.195 147.566 107.268 147.566C105.319 147.566 104.15 148.065 104.164 148.906ZM117.809 139.842C119.716 139.849 121.069 141.011 121.076 142.699C121.069 144.395 119.716 145.55 117.809 145.557C115.888 145.55 114.521 144.395 114.527 142.699C114.521 141.011 115.888 139.849 117.809 139.842ZM113.898 147.539C116.141 147.546 119.237 147.525 121.924 147.129L122.006 147.922C119.224 148.441 116.236 148.455 114.049 148.455L113.898 147.539ZM115.58 142.699C115.573 143.834 116.51 144.613 117.809 144.613C119.094 144.613 120.03 143.834 120.023 142.699C120.03 141.571 119.094 140.785 117.809 140.785C116.51 140.785 115.573 141.571 115.58 142.699ZM122.73 151.135V138.953H123.797V151.135H122.73ZM126.682 146.227C126.695 143.649 127.393 141.503 128.65 139.678H129.689C128.767 141.024 127.905 143.793 127.898 146.227C127.905 148.667 128.767 151.429 129.689 152.789H128.65C127.393 150.957 126.695 148.811 126.682 146.227ZM140.75 138.953V145.27H139.67V138.953H140.75ZM130.906 143.943C131.392 143.943 131.918 143.937 132.465 143.93V140.648H131.248V139.787H137.824V140.648H136.594V143.766C137.223 143.718 137.838 143.656 138.426 143.588L138.48 144.381C136.047 144.743 133.189 144.839 131.043 144.832L130.906 143.943ZM132.793 146.719V145.857H140.75V148.756H133.887V150.096H141.215V150.971H132.834V147.949H139.684V146.719H132.793ZM133.504 143.909C134.174 143.889 134.864 143.868 135.555 143.827V140.648H133.504V143.909ZM148.898 140.088C148.905 141.804 151.134 143.28 153.328 143.588L152.891 144.463C151.004 144.148 149.131 143.103 148.352 141.612C147.572 143.116 145.706 144.148 143.812 144.463L143.375 143.588C145.569 143.28 147.791 141.831 147.791 140.088V139.391H148.898V140.088ZM142.801 146.705V145.803H153.875V146.705H148.844V151.107H147.791V146.705H142.801ZM157.936 146.227C157.922 148.811 157.225 150.957 155.967 152.789H154.928C155.851 151.429 156.712 148.667 156.719 146.227C156.712 143.793 155.851 141.024 154.928 139.678H155.967C157.225 141.503 157.922 143.649 157.936 146.227Z" fill="#222222"/>
<path d="M366.621 148.66V149.549H355.492V148.66H360.496V146.035H356.805V139.814H357.885V142.016H364.201V139.814H365.254V146.035H361.549V148.66H366.621ZM357.885 145.16H364.201V142.891H357.885V145.16ZM377.641 138.953V151.107H376.561V138.953H377.641ZM367.742 147.949C371.03 146.391 372.712 144.06 372.951 141.154H368.303V140.279H374.045C374.031 143.772 372.404 146.869 368.33 148.824L367.742 147.949Z" fill="#009DCE"/>
<path d="M355 152.235H379.199V153.186H355V152.235Z" fill="#009DCE"/>
<path d="M30.541 182.953V195.107H29.4609V182.953H30.541ZM20.6426 191.949C23.9307 190.391 25.6123 188.06 25.8516 185.154H21.2031V184.279H26.9453C26.9316 187.772 25.3047 190.869 21.2305 192.824L20.6426 191.949ZM38.8262 184.061V184.963H34.2051V187.479H38.5527V188.354H34.2051V191.293C36.3994 191.293 37.9375 191.211 39.7559 190.896L39.8789 191.785C37.9785 192.106 36.3857 192.175 34.082 192.182H33.125V184.061H38.8262ZM40.9316 195.107V182.953H41.998V187.848H44.0352V188.764H41.998V195.107H40.9316ZM54.4395 184.184V185.4C54.4258 186.891 54.4258 188.559 53.9883 191.006L52.8945 190.883C53.3525 188.559 53.3525 186.856 53.3594 185.4V185.072H45.8672V184.184H54.4395ZM44.6914 193.385V192.496H49.0391V188.148H50.0918V192.496H55.7656V193.385H44.6914ZM61.1387 186.686C61.1455 188.75 62.6426 190.849 64.4336 191.621L63.832 192.469C62.4102 191.826 61.1865 190.425 60.6191 188.743C60.0518 190.527 58.8213 192.072 57.4336 192.77L56.791 191.922C58.5342 191.088 60.0518 188.791 60.0586 186.686V185.1H57.1875V184.211H64.0371V185.1H61.1387V186.686ZM65.7324 195.107V182.953H66.8125V195.107H65.7324ZM72.9648 186.221C72.9648 188.36 74.3799 190.568 76.1094 191.416L75.4531 192.277C74.1133 191.58 72.9922 190.138 72.4521 188.449C71.9121 190.24 70.7637 191.778 69.3965 192.51L68.7129 191.648C70.4902 190.773 71.8984 188.442 71.9121 186.221V184.006H72.9648V186.221ZM77.2305 195.107V182.953H78.2969V187.889H80.334V188.818H78.2969V195.107H77.2305ZM90.4922 182.953V186.344H92.3242V187.26H90.4922V190.801H89.4258V182.953H90.4922ZM81.0176 185.195V184.348H84.1074V182.857H85.1738V184.348H88.2637V185.195H81.0176ZM81.7148 187.971C81.708 186.672 82.877 185.831 84.6406 185.824C86.3838 185.831 87.5527 186.672 87.5664 187.971C87.5527 189.283 86.3838 190.124 84.6406 190.117C82.877 190.124 81.708 189.283 81.7148 187.971ZM82.6719 192.988C82.665 191.662 84.1689 190.89 86.6504 190.883C89.125 190.89 90.6289 191.662 90.6289 192.988C90.6289 194.308 89.125 195.08 86.6504 195.08C84.1689 195.08 82.665 194.308 82.6719 192.988ZM82.7402 187.971C82.7334 188.771 83.4922 189.283 84.6406 189.283C85.7754 189.283 86.541 188.771 86.5547 187.971C86.541 187.171 85.7754 186.645 84.6406 186.631C83.4922 186.645 82.7334 187.171 82.7402 187.971ZM83.7383 192.988C83.7246 193.774 84.832 194.253 86.6504 194.246C88.4619 194.253 89.5693 193.774 89.5625 192.988C89.5693 192.182 88.4619 191.73 86.6504 191.73C84.832 191.73 83.7246 192.182 83.7383 192.988ZM93.8418 190.227C93.8555 187.649 94.5527 185.503 95.8105 183.678H96.8496C95.9268 185.024 95.0654 187.793 95.0586 190.227C95.0654 192.667 95.9268 195.429 96.8496 196.789H95.8105C94.5527 194.957 93.8555 192.811 93.8418 190.227ZM107.91 182.953V189.27H106.83V182.953H107.91ZM98.0664 187.943C98.5518 187.943 99.0781 187.937 99.625 187.93V184.648H98.4082V183.787H104.984V184.648H103.754V187.766C104.383 187.718 104.998 187.656 105.586 187.588L105.641 188.381C103.207 188.743 100.35 188.839 98.2031 188.832L98.0664 187.943ZM99.9531 190.719V189.857H107.91V192.756H101.047V194.096H108.375V194.971H99.9941V191.949H106.844V190.719H99.9531ZM100.664 187.909C101.334 187.889 102.024 187.868 102.715 187.827V184.648H100.664V187.909ZM116.059 184.088C116.065 185.804 118.294 187.28 120.488 187.588L120.051 188.463C118.164 188.148 116.291 187.103 115.512 185.612C114.732 187.116 112.866 188.148 110.973 188.463L110.535 187.588C112.729 187.28 114.951 185.831 114.951 184.088V183.391H116.059V184.088ZM109.961 190.705V189.803H121.035V190.705H116.004V195.107H114.951V190.705H109.961ZM125.096 190.227C125.082 192.811 124.385 194.957 123.127 196.789H122.088C123.011 195.429 123.872 192.667 123.879 190.227C123.872 187.793 123.011 185.024 122.088 183.678H123.127C124.385 185.503 125.082 187.649 125.096 190.227Z" fill="#222222"/>
<path d="M366.621 192.66V193.549H355.492V192.66H360.496V190.035H356.805V183.814H357.885V186.016H364.201V183.814H365.254V190.035H361.549V192.66H366.621ZM357.885 189.16H364.201V186.891H357.885V189.16ZM377.641 182.953V195.107H376.561V182.953H377.641ZM367.742 191.949C371.03 190.391 372.712 188.06 372.951 185.154H368.303V184.279H374.045C374.031 187.772 372.404 190.869 368.33 192.824L367.742 191.949Z" fill="#009DCE"/>
<path d="M355 196.235H379.199V197.186H355V196.235Z" fill="#009DCE"/>
<rect width="400" height="60" transform="translate(0 226)" fill="#009DCE"/>
<path d="M140.281 260.344V261.578H127.469V260.344H133.109V257.109H128.938V250.453H138.75V257.109H134.578V260.344H140.281ZM130.375 255.938H137.297V251.641H130.375V255.938ZM152.516 254.484V255.656H143.016V250.125H152.344V251.328H144.516V254.484H152.516ZM141.281 258.562V257.359H154.094V258.562H148.375V263.297H146.922V258.562H141.281ZM171.812 256.141V257.328H159.031V256.141H164.703V254.656H160.625V249.969H170.234V251.141H162.094V253.469H170.328V254.656H166.141V256.141H171.812ZM160.547 260.781C160.547 259.156 162.367 258.242 165.406 258.234C168.422 258.242 170.227 259.156 170.234 260.781C170.227 262.406 168.422 263.32 165.406 263.328C162.367 263.32 160.547 262.406 160.547 260.781ZM162.047 260.781C162.039 261.68 163.266 262.172 165.406 262.156C167.516 262.172 168.75 261.68 168.75 260.781C168.75 259.898 167.516 259.391 165.406 259.391C163.266 259.391 162.039 259.898 162.047 260.781ZM177.422 250.328C179.633 250.32 181.227 251.688 181.234 253.656C181.227 255.625 179.633 256.992 177.422 257C175.219 256.992 173.602 255.625 173.609 253.656C173.602 251.688 175.219 250.32 177.422 250.328ZM172.938 259.109C175.484 259.109 179.016 259.086 182.078 258.641L182.188 259.719C179.023 260.328 175.625 260.344 173.125 260.344L172.938 259.109ZM175.078 253.656C175.062 254.898 176.062 255.703 177.422 255.703C178.781 255.703 179.781 254.898 179.781 253.656C179.781 252.43 178.781 251.609 177.422 251.609C176.062 251.609 175.062 252.43 175.078 253.656ZM182.953 263.359V249.328H184.438V263.359H182.953ZM197.594 249.328V255H199.844V256.234H197.594V263.328H196.125V249.328H197.594ZM186.609 252.734V251.516H190.062V249.516H191.547V251.516H194.906V252.734H186.609ZM187.328 257.016C187.328 255.109 188.797 253.766 190.812 253.766C192.82 253.766 194.289 255.109 194.297 257.016C194.289 258.938 192.82 260.273 190.812 260.281C188.797 260.273 187.328 258.938 187.328 257.016ZM188.75 257.016C188.742 258.234 189.617 259.047 190.812 259.031C192 259.047 192.867 258.234 192.875 257.016C192.867 255.82 192 254.992 190.812 254.984C189.617 254.992 188.742 255.82 188.75 257.016ZM211.844 250.672V252.047C211.836 253.773 211.836 255.711 211.312 258.578L209.812 258.422C210.352 255.711 210.352 253.727 210.359 252.047V251.875H201.859V250.672H211.844ZM200.516 261.438V260.203H205.375V255.266H206.844V260.203H213.281V261.438H200.516ZM229.859 249.344V259.516H228.375V249.344H229.859ZM218.531 253.75C218.539 251.727 220.148 250.289 222.266 250.281C224.375 250.289 225.984 251.727 225.984 253.75C225.984 255.805 224.375 257.234 222.266 257.234C220.148 257.234 218.539 255.805 218.531 253.75ZM219.984 253.75C219.977 255.07 220.961 255.938 222.266 255.938C223.547 255.938 224.531 255.07 224.531 253.75C224.531 252.461 223.547 251.578 222.266 251.578C220.961 251.578 219.977 252.461 219.984 253.75ZM220.703 263.031V258.484H222.203V261.828H230.281V263.031H220.703ZM244.844 255.922V257.125H232.078V255.922H244.844ZM232.75 254.016C235.289 253.742 237.297 252.602 237.461 251.234H233.25V250.016H243.703V251.234H239.445C239.617 252.594 241.594 253.742 244.188 254.016L243.656 255.188C241.227 254.906 239.219 253.883 238.461 252.406C237.688 253.883 235.695 254.906 233.266 255.188L232.75 254.016ZM233.594 260.766C233.594 259.141 235.414 258.203 238.453 258.203C241.469 258.203 243.273 259.141 243.281 260.766C243.273 262.391 241.469 263.305 238.453 263.297C235.414 263.305 233.594 262.391 233.594 260.766ZM235.094 260.766C235.086 261.648 236.312 262.133 238.453 262.125C240.562 262.133 241.797 261.648 241.797 260.766C241.797 259.859 240.562 259.375 238.453 259.359C236.312 259.375 235.086 259.859 235.094 260.766ZM258.719 260.344V261.578H245.906V260.344H248.969V256.688C247.82 256.055 247.117 255.055 247.125 253.797C247.117 251.594 249.281 250.148 252.281 250.141C255.289 250.148 257.453 251.594 257.453 253.797C257.453 255.031 256.781 256.023 255.656 256.656V260.344H258.719ZM248.562 253.797C248.562 255.297 250.086 256.273 252.281 256.281C254.461 256.273 256.008 255.297 256.016 253.797C256.008 252.289 254.461 251.328 252.281 251.328C250.086 251.328 248.562 252.289 248.562 253.797ZM250.438 260.344H254.156V257.234C253.586 257.367 252.953 257.438 252.281 257.438C251.625 257.438 251 257.367 250.438 257.234V260.344ZM264.641 252.312C264.641 253.961 265.992 255.5 268.125 256.094L267.422 257.25C265.797 256.789 264.578 255.789 263.938 254.492C263.328 255.938 262.109 257.086 260.438 257.609L259.734 256.469C261.859 255.789 263.172 254.117 263.172 252.312V252.141H260.125V250.953H263.172V249.266H264.656V250.953H267.688V252.141H264.641V252.312ZM261.984 260.703C261.977 259.062 263.781 258.133 266.719 258.125C269.648 258.133 271.445 259.062 271.453 260.703C271.445 262.352 269.648 263.305 266.719 263.297C263.781 263.305 261.977 262.352 261.984 260.703ZM263.453 260.703C263.445 261.609 264.664 262.148 266.719 262.156C268.773 262.148 269.977 261.609 269.984 260.703C269.977 259.797 268.773 259.281 266.719 259.281C264.664 259.281 263.445 259.797 263.453 260.703ZM267.25 254.469V253.25H269.922V249.328H271.406V257.812H269.922V254.469H267.25Z" fill="white"/>
<defs>
<clipPath id="clip0_506_7762">
<rect width="14" height="14" fill="white" transform="translate(364 25)"/>
</clipPath>
</defs>
</svg>
