<svg width="450" height="851" viewBox="0 0 450 851" fill="none" xmlns="http://www.w3.org/2000/svg">
<g clip-path="url(#clip0_233_4415)">
<rect width="450" height="851" fill="#EFF6F8"/>
<g filter="url(#filter0_d_233_4415)">
<rect width="450" height="100" fill="white"/>
<g clip-path="url(#clip1_233_4415)">
<path d="M28.8356 32.9948L28.8073 31.754C23.9761 31.7414 21.8589 28.7163 21.84 26.263C21.8212 24.3814 23.1154 22.3867 25.2608 22.3678C27.0702 22.3521 27.9749 23.7814 27.9749 23.7814C27.9749 23.7814 28.7319 22.327 30.7392 22.3082C32.1685 22.2956 34.0941 23.4987 34.1192 26.285C34.1412 28.9048 32.2533 31.7759 28.8388 32.9948M27.9058 16.0005C21.35 16.057 15.947 20.8538 16.0004 27.0389C16.0255 30.1268 17.6181 33.2806 20.4516 35.3601L19.7165 38.9192C33.5475 42.9086 40.0531 32.8534 39.9997 26.8536C39.9494 20.7375 34.5778 15.944 27.9058 16.0005Z" fill="#EF403C"/>
<path d="M28.9495 37.7382L28.8364 32.9949C26.7506 33.7394 24.0963 33.8681 20.955 32.9478L20.4555 35.3602C22.6136 36.9434 25.4878 37.9047 28.9495 37.7382Z" fill="#850E11"/>
</g>
<path d="M61 20.9648C61 25.2715 58.2842 28.1895 53.4414 29.4199L52.4746 27.4512C55.9902 26.5811 57.8975 24.9023 58.2666 22.916H53.4414V20.9648H61ZM55.1465 35.9941V29.666H65.9746V35.9941H55.1465ZM57.6602 34.0254H63.4961V31.6348H57.6602V34.0254ZM63.4434 29.0332V20.0684H65.9746V29.0332H63.4434ZM70.7734 21.457V25.0078H72.5312V21.457H74.8867V32.4258H68.3828V21.457H70.7734ZM70.7734 30.4043H72.5312V26.9766H70.7734V30.4043ZM75.9941 35.4668V20.2617H78.3848V26.1328H79.5801V20.0508H82.0059V36.1875H79.5801V28.1895H78.3848V35.4668H75.9941ZM90.8828 20.2441C94.4951 20.2529 96.7979 21.4395 96.8066 23.4082C96.7979 25.3418 94.4951 26.502 90.8828 26.502C87.2969 26.502 84.9502 25.3418 84.959 23.4082C84.9502 21.4395 87.2969 20.2529 90.8828 20.2441ZM83.5352 29.209V27.2051H98.248V29.209H92.1309V30.457H96.4902V36.0117H85.2227V30.457H89.5996V29.209H83.5352ZM87.5957 23.4082C87.5781 24.208 88.7471 24.5859 90.8828 24.5859C93.001 24.5859 94.1875 24.208 94.1875 23.4082C94.1875 22.5645 93.001 22.1689 90.8828 22.1777C88.7471 22.1689 87.5781 22.5645 87.5957 23.4082ZM87.7012 33.9902H94.0293V32.4434H87.7012V33.9902Z" fill="#323142"/>
<path d="M114.518 20.2969V29.1738H113.164V20.2969H114.518ZM102.617 27.9785V21.2285H104.006V26.8008C106.59 26.7832 108.901 26.6074 111.389 26.0801L111.6 27.2402C108.954 27.7764 106.581 27.9609 103.883 27.9785H102.617ZM104.375 35.7129V29.8945H114.518V35.7129H104.375ZM105.729 34.5879H113.164V31.002H105.729V34.5879Z" fill="#323142"/>
<circle cx="380" cy="28" r="18" fill="#E8E9F3"/>
<path d="M370.573 26.907C370.984 26.9143 371.365 26.8813 371.717 26.808C372.069 26.7273 372.373 26.6063 372.63 26.445C372.887 26.2837 373.088 26.082 373.235 25.84C373.382 25.598 373.455 25.312 373.455 24.982V24.861C373.455 24.6997 373.371 24.619 373.202 24.619H370.716C370.555 24.619 370.415 24.5933 370.298 24.542C370.188 24.4907 370.096 24.4247 370.023 24.344C369.95 24.256 369.895 24.1607 369.858 24.058C369.829 23.9553 369.814 23.849 369.814 23.739C369.814 23.629 369.829 23.5227 369.858 23.42C369.895 23.3173 369.95 23.2257 370.023 23.145C370.096 23.057 370.188 22.9873 370.298 22.936C370.415 22.8847 370.555 22.859 370.716 22.859H374.049C374.65 22.859 375.065 22.9837 375.292 23.233C375.527 23.475 375.644 23.8453 375.644 24.344V24.927C375.644 24.9637 375.644 25.004 375.644 25.048C375.644 25.0847 375.64 25.1213 375.633 25.158H377.162V23.574C377.162 23.222 377.272 22.958 377.492 22.782C377.712 22.5987 377.965 22.507 378.251 22.507C378.39 22.507 378.526 22.5327 378.658 22.584C378.79 22.628 378.907 22.694 379.01 22.782C379.113 22.87 379.193 22.98 379.252 23.112C379.318 23.244 379.351 23.398 379.351 23.574V30.284H377.162V26.874H375.094C374.881 27.204 374.614 27.4937 374.291 27.743C373.968 27.985 373.609 28.183 373.213 28.337C372.817 28.491 372.388 28.5973 371.926 28.656C371.464 28.7147 370.987 28.7257 370.496 28.689C370.247 28.6743 370.034 28.579 369.858 28.403C369.689 28.227 369.612 27.9923 369.627 27.699C369.642 27.4423 369.737 27.2443 369.913 27.105C370.096 26.9657 370.316 26.8997 370.573 26.907ZM371.772 32.836C371.464 32.836 371.207 32.8067 371.002 32.748C370.804 32.6893 370.646 32.5977 370.529 32.473C370.412 32.3483 370.327 32.1833 370.276 31.978C370.232 31.7727 370.21 31.5233 370.21 31.23V30.163C370.21 29.789 370.32 29.514 370.54 29.338C370.767 29.162 371.035 29.074 371.343 29.074C371.651 29.074 371.911 29.162 372.124 29.338C372.337 29.514 372.443 29.789 372.443 30.163V30.856C372.443 30.9807 372.461 31.0577 372.498 31.087C372.535 31.1163 372.615 31.131 372.74 31.131H378.713C379.05 31.131 379.289 31.219 379.428 31.395C379.567 31.5637 379.637 31.758 379.637 31.978C379.637 32.2053 379.564 32.4033 379.417 32.572C379.278 32.748 379.043 32.836 378.713 32.836H371.772ZM383.443 32.869C383.062 32.869 382.728 32.814 382.442 32.704C382.163 32.6013 381.929 32.4583 381.738 32.275C381.555 32.0917 381.415 31.8753 381.32 31.626C381.232 31.3693 381.188 31.0907 381.188 30.79C381.188 30.4967 381.232 30.2217 381.32 29.965C381.415 29.7083 381.555 29.4883 381.738 29.305C381.929 29.1143 382.163 28.964 382.442 28.854C382.728 28.744 383.062 28.689 383.443 28.689H388.547C388.921 28.689 389.247 28.744 389.526 28.854C389.812 28.9567 390.047 29.1033 390.23 29.294C390.421 29.4773 390.564 29.6973 390.659 29.954C390.754 30.2107 390.802 30.4893 390.802 30.79C390.802 31.0907 390.754 31.3693 390.659 31.626C390.564 31.8827 390.421 32.1027 390.23 32.286C390.047 32.4693 389.812 32.6123 389.526 32.715C389.247 32.8177 388.921 32.869 388.547 32.869H383.443ZM388.811 26.423H388.316V28.304H386.413V23.442C386.413 23.134 386.505 22.903 386.688 22.749C386.879 22.5877 387.102 22.507 387.359 22.507C387.608 22.507 387.828 22.5877 388.019 22.749C388.217 22.903 388.316 23.134 388.316 23.442V24.773H388.811V23.442C388.811 23.134 388.906 22.903 389.097 22.749C389.295 22.5877 389.522 22.507 389.779 22.507C390.028 22.507 390.252 22.5877 390.45 22.749C390.648 22.903 390.747 23.134 390.747 23.442V28.304H388.811V26.423ZM381.122 26.665C381.503 26.5183 381.793 26.236 381.991 25.818C382.189 25.4 382.288 24.8133 382.288 24.058V23.728C382.288 23.376 382.383 23.1193 382.574 22.958C382.772 22.7893 383.01 22.705 383.289 22.705C383.568 22.705 383.81 22.7893 384.015 22.958C384.228 23.1193 384.334 23.376 384.334 23.728V24.058C384.334 24.212 384.33 24.3623 384.323 24.509C384.316 24.6483 384.305 24.784 384.29 24.916C384.95 25.048 385.441 25.378 385.764 25.906C386.094 26.434 386.219 27.1967 386.138 28.194H384.169C384.235 27.842 384.239 27.534 384.18 27.27C384.129 26.9987 384.019 26.7897 383.85 26.643C383.615 27.149 383.307 27.5487 382.926 27.842C382.552 28.128 382.127 28.304 381.65 28.37C381.371 28.4067 381.129 28.3627 380.924 28.238C380.726 28.1133 380.609 27.9337 380.572 27.699C380.484 27.1857 380.667 26.841 381.122 26.665ZM387.964 31.329C388.206 31.329 388.367 31.2703 388.448 31.153C388.529 31.0357 388.569 30.9147 388.569 30.79C388.569 30.6653 388.529 30.548 388.448 30.438C388.367 30.328 388.206 30.273 387.964 30.273H384.026C383.784 30.273 383.623 30.328 383.542 30.438C383.461 30.548 383.421 30.6653 383.421 30.79C383.421 30.9147 383.461 31.0357 383.542 31.153C383.623 31.2703 383.784 31.329 384.026 31.329H387.964Z" fill="#323142"/>
<path d="M427.5 23.6665C427.5 21.9426 426.815 20.2893 425.596 19.0703C424.377 17.8513 422.724 17.1665 421 17.1665C419.276 17.1665 417.623 17.8513 416.404 19.0703C415.185 20.2893 414.5 21.9426 414.5 23.6665C414.5 31.2498 411.25 33.4165 411.25 33.4165H430.75C430.75 33.4165 427.5 31.2498 427.5 23.6665Z" stroke="#323142" stroke-width="2" stroke-linecap="round" stroke-linejoin="round"/>
<path d="M422.874 37.75C422.684 38.0783 422.41 38.3509 422.081 38.5403C421.753 38.7298 421.38 38.8295 421 38.8295C420.62 38.8295 420.248 38.7298 419.919 38.5403C419.59 38.3509 419.316 38.0783 419.126 37.75" stroke="#323142" stroke-width="2" stroke-linecap="round" stroke-linejoin="round"/>
<path d="M32.584 79.9287V84.3613H22.042V79.9287H32.584ZM20.4482 79.165V77.5049H26.2754V76.7661C23.6855 76.6167 22.2412 75.8945 22.2578 74.6328C22.2412 73.2051 24.084 72.4829 27.3379 72.4746C30.6084 72.4829 32.4097 73.2051 32.418 74.6328C32.4097 75.8945 30.9985 76.6167 28.4004 76.7661V77.5049H34.2275V79.165H20.4482ZM21.1123 72.0928V70.499H26.2754V69.2871H28.4004V70.499H33.5137V72.0928H21.1123ZM24.1338 82.7842H30.5088V81.5059H24.1338V82.7842ZM24.5156 74.6328C24.5156 75.1392 25.4287 75.3633 27.3379 75.3633C29.2637 75.3633 30.1436 75.1392 30.1436 74.6328C30.1436 74.1016 29.2637 73.9106 27.3379 73.9023C25.4287 73.9106 24.5156 74.1016 24.5156 74.6328Z" fill="#999999"/>
<path d="M115.6 70.6318V77.9199H108.212V70.6318H115.6ZM109.972 84.1953V79.1816H112.113V82.4854H120.497V84.1953H109.972ZM110.304 76.2432H113.491V72.3086H110.304V76.2432ZM117.974 80.1777V69.4365H120.099V80.1777H117.974ZM134.94 69.4365V80.8418H132.815V79.6465H129.927V78.2021H132.815V69.4365H134.94ZM122.091 76.127C124.855 76.1104 128.59 76.0688 131.786 75.6787L131.902 77.1895C130.707 77.3887 129.47 77.5298 128.25 77.6211V80.4932H126.125V82.5684H135.272V84.2617H124.017V79.7461H126.125V77.7456C124.772 77.7954 123.485 77.8037 122.34 77.8037L122.091 76.127ZM123.203 72.6572C123.203 71.0469 124.755 69.9429 127.005 69.9512C129.196 69.9429 130.765 71.0469 130.773 72.6572C130.765 74.2759 129.196 75.3218 127.005 75.3135C124.755 75.3218 123.203 74.2759 123.203 72.6572ZM125.212 72.6572C125.204 73.3877 125.926 73.7944 127.005 73.7861C128.018 73.7944 128.748 73.3877 128.765 72.6572C128.748 71.9102 128.018 71.4951 127.005 71.4951C125.926 71.4951 125.204 71.9102 125.212 72.6572ZM141 70.4824C142.361 70.4824 143.49 71.2212 144.179 72.5244H147.491V69.4199H149.583V84.5605H147.491V78.8994H144.337C143.665 80.3936 142.461 81.2568 141 81.2568C138.709 81.2568 137.065 79.1816 137.082 75.8613C137.065 72.5659 138.709 70.4824 141 70.4824ZM139.107 75.8613C139.099 78.1108 139.871 79.3394 141 79.3311C142.137 79.3394 142.893 78.1108 142.893 75.8613C142.893 73.6201 142.137 72.3916 141 72.3916C139.871 72.3916 139.099 73.6201 139.107 75.8613ZM144.769 74.2344C144.868 74.7324 144.918 75.2803 144.918 75.8613C144.918 76.3345 144.885 76.7827 144.818 77.2061H147.491V74.2344H144.769ZM164.226 69.4199V84.5273H162.084V69.4199H164.226ZM151.575 80.2441C155.477 78.4014 157.195 76.0107 157.535 72.6572H152.389V70.9971H159.693C159.685 75.5791 158.083 79.3892 152.688 81.9375L151.575 80.2441ZM180.047 81.0244V82.7676H166.218V81.0244H169.306V77.3223C168.135 76.6167 167.43 75.5459 167.43 74.2178C167.43 71.769 169.82 70.1587 173.107 70.1504C176.378 70.1587 178.793 71.769 178.802 74.2178C178.793 75.521 178.113 76.5752 176.976 77.2808V81.0244H180.047ZM169.521 74.2178C169.521 75.6953 170.941 76.6084 173.107 76.6084C175.241 76.6084 176.702 75.6953 176.71 74.2178C176.702 72.6987 175.241 71.8188 173.107 71.8271C170.941 71.8188 169.521 72.6987 169.521 74.2178ZM171.397 81.0244H174.834V78.0859C174.294 78.1938 173.713 78.252 173.107 78.252C172.501 78.252 171.929 78.1938 171.397 78.0942V81.0244Z" fill="#999999"/>
<mask id="path-11-inside-1_233_4415" fill="white">
<path d="M251 56H301V100H251V56Z"/>
</mask>
<path d="M301 98H251V102H301V98Z" fill="#323142" mask="url(#path-11-inside-1_233_4415)"/>
<path d="M266.28 69.4365V80.4766H264.171V75.5459H261.465V73.8027H264.171V69.4365H266.28ZM253.746 77.2891C256.875 76.3096 258.9 74.5 259.291 72.2754H254.526V70.5488H261.598C261.598 74.5996 259.025 77.5962 254.609 78.9658L253.746 77.2891ZM256.319 84.2617V79.3643H258.477V82.5684H266.662V84.2617H256.319ZM280.225 69.4199V72.9727H282.267V74.6992H280.225V78.1855H278.1V69.4199H280.225ZM268.139 76.8076C271.468 75.9277 273.369 74.2012 273.701 72.1094H268.853V70.416H276.008C276.017 74.4419 273.485 77.2642 268.986 78.5176L268.139 76.8076ZM270.181 81.4561C270.165 79.5635 272.223 78.3682 275.294 78.3682C278.374 78.3682 280.383 79.5635 280.391 81.4561C280.383 83.3652 278.374 84.5439 275.294 84.5439C272.223 84.5439 270.165 83.3652 270.181 81.4561ZM272.273 81.4561C272.265 82.3691 273.394 82.8921 275.294 82.8838C277.17 82.8921 278.299 82.3691 278.299 81.4561C278.299 80.5264 277.17 80.0117 275.294 80.0117C273.394 80.0117 272.265 80.5264 272.273 81.4561ZM283.446 83V73.9854H285.903V83H283.446ZM283.33 71.5615C283.33 70.8643 283.936 70.3081 284.674 70.2998C285.405 70.3081 286.011 70.8643 286.002 71.5615C286.011 72.2422 285.405 72.8066 284.674 72.8066C283.936 72.8066 283.33 72.2422 283.33 71.5615ZM297.889 70.9805V83H295.731L290.452 75.3633H290.352V83H287.862V70.9805H290.053L295.299 78.6172H295.416V70.9805H297.889Z" fill="#323142"/>
<path d="M380.031 70.4326V72.126H377.026C377.035 73.8857 378.105 75.5874 380.513 76.293L379.5 77.9531C377.832 77.4468 376.669 76.4258 376.005 75.1392C375.333 76.6582 374.104 77.8701 372.295 78.4678L371.216 76.791C373.723 76.0024 374.86 74.0435 374.885 72.126H371.797V70.4326H380.031ZM373.308 81.5889C373.299 79.7461 375.292 78.6753 378.487 78.6836C381.633 78.6753 383.576 79.7461 383.584 81.5889C383.576 83.4399 381.633 84.5356 378.487 84.5273C375.292 84.5356 373.299 83.4399 373.308 81.5889ZM375.433 81.5889C375.416 82.4521 376.503 82.8838 378.487 82.8838C380.446 82.8838 381.492 82.4521 381.492 81.5889C381.492 80.7422 380.446 80.3188 378.487 80.3271C376.503 80.3188 375.416 80.7422 375.433 81.5889ZM381.31 78.3848V69.4199H383.435V72.9229H385.477V74.6494H383.435V78.3848H381.31ZM398.841 69.4199V84.5273H396.699V69.4199H398.841ZM386.19 80.2441C390.092 78.4014 391.81 76.0107 392.15 72.6572H387.004V70.9971H394.309C394.3 75.5791 392.698 79.3892 387.303 81.9375L386.19 80.2441ZM414.662 81.0244V82.7676H400.833V81.0244H403.921V77.3223C402.75 76.6167 402.045 75.5459 402.045 74.2178C402.045 71.769 404.436 70.1587 407.723 70.1504C410.993 70.1587 413.409 71.769 413.417 74.2178C413.409 75.521 412.728 76.5752 411.591 77.2808V81.0244H414.662ZM404.137 74.2178C404.137 75.6953 405.556 76.6084 407.723 76.6084C409.856 76.6084 411.317 75.6953 411.325 74.2178C411.317 72.6987 409.856 71.8188 407.723 71.8271C405.556 71.8188 404.137 72.6987 404.137 74.2178ZM406.013 81.0244H409.449V78.0859C408.91 78.1938 408.329 78.252 407.723 78.252C407.117 78.252 406.544 78.1938 406.013 78.0942V81.0244ZM429.471 71.2959V73.0225H427.512V74.583H429.471V76.3262H427.512V78.252H425.387V69.4199H427.512V71.2959H429.471ZM415.625 73.9023C415.617 71.7524 417.41 70.2417 419.775 70.25C422.116 70.2417 423.893 71.7524 423.893 73.9023C423.893 76.0356 422.116 77.563 419.775 77.5547C417.41 77.563 415.617 76.0356 415.625 73.9023ZM417.385 81.5557C417.376 79.6714 419.402 78.5591 422.564 78.5508C425.669 78.5591 427.653 79.6714 427.661 81.5557C427.653 83.415 425.669 84.5356 422.564 84.5273C419.402 84.5356 417.376 83.415 417.385 81.5557ZM417.717 73.9023C417.7 75.0811 418.588 75.77 419.775 75.7783C420.938 75.77 421.826 75.0811 421.834 73.9023C421.826 72.7402 420.938 72.0181 419.775 72.0264C418.588 72.0181 417.7 72.7402 417.717 73.9023ZM419.51 81.5557C419.493 82.4438 420.581 82.8506 422.564 82.8506C424.523 82.8506 425.569 82.4438 425.569 81.5557C425.569 80.6758 424.523 80.2358 422.564 80.2275C420.581 80.2358 419.493 80.6758 419.51 81.5557Z" fill="#999999"/>
</g>
<g filter="url(#filter1_d_233_4415)">
<rect x="16" y="126" width="418" height="115" rx="10" fill="white" shape-rendering="crispEdges"/>
<rect x="17" y="127" width="416" height="113" rx="9" stroke="#44465C" stroke-width="2" shape-rendering="crispEdges"/>
<g clip-path="url(#clip2_233_4415)">
<path d="M68.9086 183.496C68.9086 187.049 67.8084 190.341 65.9486 193.057C62.9013 197.492 57.7846 200.4 52.0044 200.4C46.2241 200.4 41.1074 197.483 38.0601 193.057C36.2003 190.341 35.1002 187.04 35.1002 183.496C35.0914 174.162 42.6617 166.591 51.9956 166.591C61.3296 166.591 68.8998 174.162 68.8998 183.496H68.9086Z" fill="#F3F4F9" stroke="#3A394B" stroke-width="1.5" stroke-linecap="round" stroke-linejoin="round"/>
<path d="M42.9069 179.204C44.4974 179.204 46.0876 179.243 47.678 179.243" stroke="#3A394B" stroke-width="1.5" stroke-linecap="round"/>
<path d="M39.5 183C40.8077 182.97 43.1918 183 44.5 183" stroke="#3A394B" stroke-width="1.5" stroke-linecap="round"/>
<path d="M56.4863 178.274L58.9834 182.471L64.0071 183.096C64.6436 183.194 65.0843 183.789 64.9864 184.424C64.8884 185.058 64.2911 185.497 63.6546 185.4L58.2588 184.726C57.8573 184.668 57.4264 184.433 57.2207 184.072L56.1631 182.306L55.3405 185.751C56.3394 186.708 58.4644 188.084 59.1891 189.187C59.3947 189.499 59.4731 189.87 59.3947 190.231L58.5721 196.381C58.4155 197.133 57.681 197.621 56.927 197.474C56.1729 197.318 55.6833 196.586 55.8302 195.834L56.5157 190.671L51.5605 187.908C50.0916 188.66 46.0864 192.076 44.4216 191.305L39.8093 189.431C39.114 189.109 38.8006 188.279 39.1336 187.586C39.4567 186.893 40.2891 186.581 40.9942 186.913L44.9504 188.514L49.7489 184.697L50.9534 179.66L48.5738 179.943L45.9689 184.268C45.6261 184.804 44.9015 184.97 44.3629 184.619C43.8243 184.277 43.6676 183.555 44.0103 183.018L46.8111 178.372C47.0363 178.03 47.4182 177.728 47.8393 177.698C49.602 177.513 51.4626 177.259 53.2449 177.064C54.1556 176.966 55.9869 177.396 56.4863 178.304V178.274Z" fill="#B6C7F7" stroke="#3A394B" stroke-width="1.5" stroke-linecap="round" stroke-linejoin="round"/>
<path d="M55.8302 171.5C57.3676 171.5 58.6113 172.74 58.6113 174.272C58.6113 175.805 57.3676 177.044 55.8302 177.044C54.2927 177.044 53.049 175.805 53.049 174.272C53.049 172.74 54.2927 171.5 55.8302 171.5Z" fill="white" stroke="#3A394B" stroke-width="1.5" stroke-linecap="round" stroke-linejoin="round"/>
</g>
<path d="M97.8281 160.609V162.234H95.8125V169.406H93.8125V155.219H95.8125V160.609H97.8281ZM85.0469 165.938V156.578H87.0312V164.289C88.8516 164.258 90.8047 164.086 92.8594 163.672L93.0625 165.328C90.6797 165.812 88.375 165.938 86.2812 165.938H85.0469ZM103.031 156.172C105.289 156.164 106.961 157.617 106.969 159.656C106.961 161.703 105.289 163.148 103.031 163.156C100.789 163.148 99.0703 161.703 99.0781 159.656C99.0703 157.617 100.789 156.164 103.031 156.172ZM98.4844 164.938C101.023 164.945 104.539 164.914 107.578 164.484L107.734 165.922C104.578 166.539 101.203 166.562 98.7188 166.562L98.4844 164.938ZM101.062 159.656C101.055 160.781 101.906 161.43 103.031 161.422C104.164 161.43 105.023 160.781 105.031 159.656C105.023 158.547 104.164 157.891 103.031 157.891C101.906 157.891 101.055 158.547 101.062 159.656ZM108.391 169.469V155.219H110.375V169.469H108.391ZM127.922 155.234V165.625H125.938V160.984H123.391V159.344H125.938V155.234H127.922ZM116.125 162.625C119.07 161.703 120.977 160 121.344 157.906H116.859V156.281H123.516C123.516 160.094 121.094 162.914 116.938 164.203L116.125 162.625ZM118.547 169.188V164.578H120.578V167.594H128.281V169.188H118.547ZM141.047 155.219V158.562H142.969V160.188H141.047V163.469H139.047V155.219H141.047ZM129.672 162.172C132.805 161.344 134.594 159.719 134.906 157.75H130.344V156.156H137.078C137.086 159.945 134.703 162.602 130.469 163.781L129.672 162.172ZM131.594 166.547C131.578 164.766 133.516 163.641 136.406 163.641C139.305 163.641 141.195 164.766 141.203 166.547C141.195 168.344 139.305 169.453 136.406 169.453C133.516 169.453 131.578 168.344 131.594 166.547ZM133.562 166.547C133.555 167.406 134.617 167.898 136.406 167.891C138.172 167.898 139.234 167.406 139.234 166.547C139.234 165.672 138.172 165.188 136.406 165.188C134.617 165.188 133.555 165.672 133.562 166.547ZM156.828 160.609V162.234H154.812V169.406H152.812V155.219H154.812V160.609H156.828ZM144.047 165.938V156.578H146.031V164.289C147.852 164.258 149.805 164.086 151.859 163.672L152.062 165.328C149.68 165.812 147.375 165.938 145.281 165.938H144.047ZM169.328 155.219V169.469H167.312V155.219H169.328ZM157.844 161.281C157.836 158.18 159.422 156.219 161.609 156.219C163.75 156.219 165.344 158.18 165.344 161.281C165.344 164.406 163.75 166.359 161.609 166.359C159.422 166.359 157.836 164.406 157.844 161.281ZM159.766 161.281C159.758 163.398 160.5 164.555 161.609 164.547C162.688 164.555 163.414 163.398 163.422 161.281C163.414 159.172 162.688 158.016 161.609 158.016C160.5 158.016 159.758 159.172 159.766 161.281Z" fill="#323142"/>
<path d="M95.0463 208.338C93.3462 208.338 91.8154 208.028 90.4537 207.408C89.0921 206.779 88.0165 205.913 87.2269 204.809C86.4453 203.698 86.0384 202.441 86.0062 201.039H90.9976C91.0379 201.667 91.2393 202.231 91.6019 202.731C91.9725 203.222 92.4599 203.605 93.0642 203.879C93.6685 204.153 94.3292 204.29 95.0463 204.29C95.8923 204.29 96.6456 204.104 97.3063 203.734C97.975 203.355 98.4947 202.835 98.8653 202.175C99.236 201.506 99.4213 200.745 99.4213 199.891C99.4213 199.028 99.2319 198.263 98.8532 197.594C98.4746 196.917 97.9468 196.39 97.27 196.011C96.5932 195.624 95.8238 195.431 94.9617 195.431C93.1005 195.431 91.8113 196.12 91.0943 197.498H86.4171L87.7707 183.249H102.999V187.467H92.0007L91.3239 193.715H91.5173C91.9926 193.086 92.6735 192.579 93.5597 192.192C94.446 191.805 95.4209 191.612 96.4845 191.612C97.9831 191.612 99.3326 191.962 100.533 192.663C101.742 193.356 102.684 194.323 103.361 195.564C104.046 196.797 104.388 198.195 104.388 199.758C104.388 201.409 103.998 202.888 103.216 204.193C102.435 205.49 101.335 206.505 99.9168 207.239C98.4987 207.972 96.8752 208.338 95.0463 208.338ZM117.533 208.338C115.696 208.338 114.025 207.944 112.518 207.154C111.011 206.356 109.795 205.055 108.868 203.25C107.942 201.437 107.478 199.085 107.478 196.192C107.486 193.445 107.905 191.072 108.735 189.074C109.573 187.076 110.757 185.549 112.288 184.493C113.819 183.438 115.612 182.91 117.666 182.91C119.286 182.91 120.74 183.224 122.029 183.853C123.318 184.481 124.354 185.343 125.135 186.439C125.917 187.535 126.392 188.764 126.561 190.125H121.498C121.288 189.255 120.845 188.57 120.168 188.071C119.491 187.571 118.657 187.321 117.666 187.321C116.563 187.321 115.624 187.64 114.85 188.276C114.085 188.905 113.505 189.811 113.11 190.996C112.723 192.172 112.526 193.574 112.518 195.201H112.735C113.308 194.114 114.162 193.264 115.298 192.651C116.434 192.031 117.695 191.721 119.08 191.721C120.547 191.721 121.868 192.063 123.045 192.748C124.229 193.433 125.155 194.384 125.824 195.6C126.493 196.817 126.827 198.186 126.827 199.709C126.827 201.369 126.437 202.856 125.655 204.169C124.882 205.474 123.79 206.497 122.38 207.239C120.97 207.972 119.354 208.338 117.533 208.338ZM113.038 199.878C113.038 200.676 113.227 201.413 113.606 202.09C113.992 202.767 114.52 203.303 115.189 203.698C115.866 204.092 116.619 204.29 117.449 204.29C118.279 204.29 119.028 204.096 119.697 203.71C120.366 203.315 120.889 202.779 121.268 202.102C121.647 201.425 121.836 200.676 121.836 199.854C121.836 199.041 121.647 198.299 121.268 197.631C120.897 196.962 120.382 196.434 119.721 196.047C119.06 195.661 118.315 195.467 117.485 195.467C116.663 195.467 115.914 195.665 115.237 196.059C114.56 196.454 114.025 196.99 113.63 197.667C113.243 198.336 113.046 199.073 113.038 199.878Z" fill="#FE555A"/>
<path d="M135.552 200.412C135.552 202.347 136.495 204.432 138.108 205.389L137.493 206.223C136.317 205.512 135.477 204.213 135.053 202.729C134.608 204.35 133.706 205.744 132.489 206.482L131.806 205.676C133.487 204.691 134.513 202.538 134.513 200.453V198.102H135.552V200.412ZM136.769 202.23V201.314H138.833V197.213H139.845V208.492H138.833V202.23H136.769ZM141.321 209.107V196.953H142.36V209.107H141.321Z" fill="#323142"/>
<path d="M147.57 203.833C147.57 201.49 148.185 199.427 149.416 197.645H150.46C150.151 198.067 149.869 198.62 149.614 199.303C149.36 199.983 149.158 200.721 149.01 201.517C148.862 202.31 148.788 203.082 148.788 203.833C148.788 204.584 148.862 205.357 149.01 206.153C149.158 206.946 149.36 207.683 149.614 208.363C149.869 209.046 150.151 209.599 150.46 210.021H149.416C148.185 208.238 147.57 206.176 147.57 203.833ZM161.565 206.24H160.492V203.62H158.374V202.75H160.492V201.097H158.374V200.207H160.492V196.968H161.565V206.24ZM151.5 198.457H154.458V196.959H155.522V198.457H158.384V199.337H151.5V198.457ZM152.225 202.325C152.222 201.867 152.336 201.462 152.568 201.111C152.8 200.76 153.124 200.488 153.54 200.294C153.959 200.101 154.439 200.004 154.98 200.004C155.519 200.004 155.997 200.101 156.416 200.294C156.835 200.488 157.162 200.76 157.398 201.111C157.633 201.462 157.752 201.867 157.755 202.325C157.752 202.779 157.633 203.182 157.398 203.533C157.162 203.884 156.834 204.158 156.411 204.355C155.992 204.548 155.515 204.645 154.98 204.645C154.442 204.645 153.964 204.548 153.545 204.355C153.126 204.158 152.8 203.884 152.568 203.533C152.336 203.182 152.222 202.779 152.225 202.325ZM153.23 202.325C153.227 202.615 153.298 202.871 153.443 203.093C153.591 203.316 153.798 203.488 154.062 203.61C154.329 203.733 154.636 203.794 154.98 203.794C155.322 203.794 155.625 203.733 155.889 203.61C156.157 203.488 156.365 203.316 156.513 203.093C156.661 202.871 156.737 202.615 156.74 202.325C156.737 202.038 156.661 201.785 156.513 201.566C156.365 201.343 156.157 201.171 155.889 201.048C155.625 200.923 155.322 200.858 154.98 200.855C154.636 200.858 154.329 200.923 154.062 201.048C153.798 201.171 153.591 201.343 153.443 201.566C153.298 201.785 153.227 202.038 153.23 202.325ZM153.704 205.419H154.787V207.952H161.845V208.841H153.704V205.419ZM174.032 209.112H172.997V202.789H171.334V208.493H170.319V197.22H171.334V201.87H172.997V196.959H174.032V209.112ZM163.464 205.776C164.038 205.457 164.526 205.025 164.929 204.481C165.332 203.933 165.636 203.301 165.843 202.586C166.049 201.87 166.152 201.1 166.152 200.275V199.298H163.754V198.409H169.439V199.298H167.186V200.275C167.186 201.023 167.288 201.728 167.491 202.392C167.694 203.053 167.994 203.64 168.39 204.152C168.787 204.661 169.268 205.061 169.836 205.351L169.198 206.182C168.592 205.85 168.078 205.398 167.655 204.824C167.233 204.25 166.913 203.585 166.693 202.827C166.484 203.685 166.163 204.434 165.731 205.075C165.303 205.717 164.773 206.224 164.141 206.598L163.464 205.776ZM187.069 202.711H185.097V209.102H184.024V196.959H185.097V201.812H187.069V202.711ZM176.192 198.157H177.256V205.119C178.203 205.116 179.135 205.07 180.05 204.983C180.965 204.896 181.9 204.755 182.854 204.558L182.989 205.477C181.996 205.673 181.025 205.813 180.074 205.897C179.127 205.978 178.155 206.018 177.159 206.018H176.192V198.157ZM197.806 209.131H196.732V196.959H197.806V209.131ZM188.243 202.131C188.243 201.284 188.374 200.541 188.635 199.903C188.899 199.265 189.267 198.771 189.737 198.423C190.208 198.075 190.744 197.9 191.347 197.896C191.946 197.9 192.48 198.075 192.947 198.423C193.418 198.771 193.785 199.266 194.049 199.907C194.317 200.546 194.451 201.287 194.451 202.131C194.451 202.979 194.317 203.723 194.049 204.365C193.785 205.006 193.418 205.501 192.947 205.849C192.477 206.194 191.943 206.366 191.347 206.366C190.744 206.366 190.208 206.194 189.737 205.849C189.267 205.501 188.899 205.008 188.635 204.369C188.374 203.728 188.243 202.982 188.243 202.131ZM189.278 202.131C189.278 202.782 189.365 203.356 189.539 203.852C189.713 204.349 189.956 204.732 190.269 205.003C190.585 205.273 190.944 205.409 191.347 205.409C191.75 205.409 192.106 205.273 192.415 205.003C192.728 204.732 192.971 204.349 193.145 203.852C193.319 203.356 193.406 202.782 193.406 202.131C193.406 201.483 193.319 200.913 193.145 200.42C192.971 199.924 192.728 199.54 192.415 199.269C192.106 198.995 191.75 198.857 191.347 198.854C190.944 198.857 190.585 198.995 190.269 199.269C189.956 199.54 189.713 199.924 189.539 200.42C189.365 200.913 189.278 201.483 189.278 202.131ZM204.688 208.077C204.53 208.077 204.382 208.039 204.243 207.961C204.108 207.881 204 207.773 203.92 207.637C203.842 207.502 203.805 207.355 203.808 207.198C203.805 207.04 203.842 206.893 203.92 206.758C204 206.622 204.108 206.516 204.243 206.439C204.382 206.358 204.53 206.318 204.688 206.318C204.846 206.318 204.993 206.358 205.128 206.439C205.263 206.516 205.37 206.622 205.447 206.758C205.528 206.893 205.568 207.04 205.568 207.198C205.568 207.355 205.528 207.502 205.447 207.637C205.37 207.773 205.263 207.881 205.128 207.961C204.993 208.039 204.846 208.077 204.688 208.077ZM204.698 202.576C204.54 202.576 204.392 202.537 204.253 202.46C204.118 202.379 204.01 202.271 203.929 202.136C203.852 202.001 203.815 201.854 203.818 201.696C203.815 201.538 203.852 201.392 203.929 201.256C204.01 201.121 204.118 201.015 204.253 200.937C204.392 200.857 204.54 200.816 204.698 200.816C204.856 200.816 205.002 200.857 205.138 200.937C205.273 201.015 205.379 201.121 205.457 201.256C205.537 201.392 205.578 201.538 205.578 201.696C205.578 201.854 205.537 202.001 205.457 202.136C205.379 202.271 205.273 202.379 205.138 202.46C205.002 202.537 204.856 202.576 204.698 202.576ZM214.386 208.135C213.748 208.135 213.155 207.992 212.607 207.705C212.063 207.415 211.615 206.92 211.263 206.221C210.915 205.518 210.741 204.587 210.741 203.427C210.741 202.273 210.893 201.287 211.196 200.468C211.499 199.65 211.932 199.028 212.496 198.602C213.06 198.177 213.729 197.964 214.502 197.964C215.073 197.964 215.585 198.075 216.04 198.298C216.497 198.517 216.87 198.825 217.156 199.221C217.443 199.614 217.629 200.069 217.712 200.584H216.494C216.378 200.127 216.149 199.758 215.808 199.477C215.466 199.197 215.031 199.057 214.502 199.057C213.964 199.057 213.5 199.206 213.11 199.506C212.72 199.803 212.42 200.235 212.211 200.802C212.005 201.369 211.902 202.047 211.902 202.837H212.027C212.314 202.418 212.677 202.094 213.115 201.865C213.556 201.637 214.042 201.522 214.57 201.522C215.153 201.522 215.692 201.664 216.185 201.948C216.678 202.228 217.069 202.618 217.359 203.117C217.653 203.617 217.799 204.178 217.799 204.8C217.799 205.419 217.658 205.983 217.374 206.492C217.09 206.998 216.689 207.399 216.17 207.695C215.655 207.989 215.06 208.135 214.386 208.135ZM212.076 204.829C212.076 205.215 212.174 205.58 212.37 205.921C212.567 206.263 212.838 206.537 213.183 206.743C213.531 206.949 213.919 207.052 214.348 207.052C214.767 207.052 215.149 206.953 215.493 206.753C215.838 206.553 216.109 206.282 216.306 205.941C216.505 205.596 216.607 205.219 216.61 204.809C216.607 204.41 216.509 204.042 216.315 203.707C216.125 203.369 215.861 203.101 215.522 202.905C215.184 202.705 214.805 202.605 214.386 202.605C213.964 202.605 213.576 202.708 213.221 202.914C212.87 203.121 212.591 203.395 212.385 203.736C212.182 204.078 212.079 204.442 212.076 204.829ZM222.731 208.135C222.002 208.135 221.379 207.937 220.86 207.541C220.344 207.141 219.949 206.561 219.675 205.8C219.405 205.04 219.269 204.123 219.269 203.05C219.269 201.986 219.406 201.074 219.68 200.314C219.954 199.55 220.351 198.968 220.869 198.568C221.388 198.166 222.009 197.964 222.731 197.964C223.453 197.964 224.073 198.166 224.592 198.568C225.111 198.968 225.507 199.55 225.781 200.314C226.055 201.074 226.192 201.986 226.192 203.05C226.192 204.123 226.055 205.04 225.781 205.8C225.51 206.561 225.116 207.141 224.597 207.541C224.081 207.937 223.459 208.135 222.731 208.135ZM220.468 203.05C220.468 203.897 220.557 204.621 220.734 205.22C220.911 205.817 221.169 206.269 221.508 206.579C221.846 206.888 222.254 207.043 222.731 207.043C223.208 207.043 223.615 206.888 223.954 206.579C224.292 206.269 224.55 205.817 224.727 205.22C224.904 204.621 224.993 203.897 224.993 203.05C224.993 202.202 224.903 201.479 224.722 200.879C224.545 200.276 224.287 199.819 223.949 199.506C223.61 199.194 223.204 199.037 222.731 199.037C222.257 199.037 221.851 199.194 221.512 199.506C221.174 199.819 220.915 200.276 220.734 200.879C220.557 201.479 220.468 202.202 220.468 203.05ZM231.003 200.41C231.003 201.061 231.104 201.711 231.307 202.358C231.514 203.003 231.81 203.593 232.197 204.128C232.584 204.66 233.04 205.08 233.565 205.39L232.946 206.221C232.376 205.876 231.881 205.401 231.462 204.795C231.046 204.186 230.727 203.501 230.505 202.74C230.279 203.562 229.946 204.3 229.504 204.954C229.063 205.609 228.544 206.118 227.948 206.482L227.261 205.68C227.809 205.357 228.288 204.921 228.697 204.369C229.106 203.815 229.42 203.198 229.64 202.518C229.859 201.838 229.968 201.151 229.968 200.459V198.099H231.003V200.41ZM232.221 201.319H234.28V197.22H235.296V208.493H234.28V202.228H232.221V201.319ZM236.775 196.959H237.809V209.112H236.775V196.959ZM242.426 203.833C242.426 206.176 241.81 208.238 240.579 210.021H239.535C239.844 209.599 240.126 209.046 240.381 208.363C240.635 207.683 240.837 206.946 240.985 206.153C241.133 205.357 241.207 204.584 241.207 203.833C241.207 203.082 241.133 202.31 240.985 201.517C240.837 200.721 240.635 199.983 240.381 199.303C240.126 198.62 239.844 198.067 239.535 197.645H240.579C241.81 199.427 242.426 201.49 242.426 203.833Z" fill="#777777"/>
<path d="M354.854 179.422C354.854 181.076 356.111 182.594 357.875 183.195L357.287 184.043C355.947 183.551 354.888 182.546 354.354 181.274C353.835 182.717 352.748 183.831 351.326 184.385L350.752 183.523C352.57 182.847 353.794 181.22 353.801 179.34V178.082H354.854V179.422ZM352.365 187.365C352.372 185.978 353.896 185.164 356.398 185.164C358.894 185.164 360.404 185.978 360.404 187.365C360.404 188.78 358.894 189.58 356.398 189.58C353.896 189.58 352.372 188.78 352.365 187.365ZM353.445 187.365C353.432 188.227 354.566 188.726 356.398 188.732C358.237 188.726 359.358 188.227 359.365 187.365C359.358 186.538 358.237 186.025 356.398 186.025C354.566 186.025 353.432 186.538 353.445 187.365ZM359.229 184.85V177.453H360.295V180.625H362.127V181.527H360.295V184.85H359.229ZM366.502 180.912C366.502 182.847 367.445 184.932 369.059 185.889L368.443 186.723C367.268 186.012 366.427 184.713 366.003 183.229C365.559 184.85 364.656 186.244 363.439 186.982L362.756 186.176C364.438 185.191 365.463 183.038 365.463 180.953V178.602H366.502V180.912ZM367.719 182.73V181.814H369.783V177.713H370.795V188.992H369.783V182.73H367.719ZM372.271 189.607V177.453H373.311V189.607H372.271ZM386.121 187.16V188.049H374.992V187.16H379.996V184.535H376.305V178.314H377.385V180.516H383.701V178.314H384.754V184.535H381.049V187.16H386.121ZM377.385 183.66H383.701V181.391H377.385V183.66ZM397.141 177.453V189.607H396.061V177.453H397.141ZM387.242 186.449C390.53 184.891 392.212 182.56 392.451 179.654H387.803V178.779H393.545C393.531 182.272 391.904 185.369 387.83 187.324L387.242 186.449Z" fill="#323142"/>
<mask id="mask0_233_4415" style="mask-type:alpha" maskUnits="userSpaceOnUse" x="401" y="176" width="15" height="15">
<rect x="401" y="176" width="15" height="15" fill="#D9D9D9"/>
</mask>
<g mask="url(#mask0_233_4415)">
<path d="M410.269 183.499L405.561 178.791C405.437 178.667 405.377 178.519 405.38 178.348C405.383 178.176 405.447 178.028 405.571 177.904C405.695 177.78 405.843 177.718 406.014 177.718C406.186 177.718 406.334 177.78 406.458 177.904L411.243 182.699C411.356 182.812 411.439 182.938 411.494 183.078C411.548 183.219 411.576 183.359 411.576 183.499C411.576 183.639 411.548 183.779 411.494 183.92C411.439 184.06 411.356 184.186 411.243 184.299L406.448 189.094C406.324 189.218 406.178 189.279 406.01 189.275C405.841 189.272 405.695 189.209 405.571 189.084C405.447 188.96 405.385 188.812 405.385 188.641C405.385 188.469 405.447 188.322 405.571 188.197L410.269 183.499Z" fill="#1C1B1F"/>
</g>
</g>
<g filter="url(#filter2_d_233_4415)">
<rect x="16" y="261" width="418" height="121" rx="10" fill="white" shape-rendering="crispEdges"/>
<path d="M41.8906 291.281C41.8906 294.789 39.3125 297.289 35.2188 298.375L34.7188 297.406C38.1484 296.5 40.3203 294.656 40.5859 292.281H35.4531V291.281H41.8906ZM37 304.078V298.906H46.0312V304.078H37ZM38.2031 303.078H44.8281V299.891H38.2031V303.078ZM44.8125 298.234V290.391H46.0312V298.234H44.8125ZM50.0781 291.703V295.094H53.0938V291.703H54.2344V300.797H48.9062V291.703H50.0781ZM50.0781 299.781H53.0938V296.094H50.0781V299.781ZM56 303.562V290.672H57.1719V295.891H59.1094V290.375H60.2969V304.266H59.1094V296.906H57.1719V303.562H56ZM68.5469 290.641C71.5703 290.648 73.4453 291.609 73.4531 293.266C73.4453 294.891 71.5703 295.852 68.5469 295.844C65.5234 295.852 63.625 294.891 63.625 293.266C63.625 291.609 65.5234 290.648 68.5469 290.641ZM62.2188 297.922V296.906H74.875V297.922H69.1406V299.516H73.3281V304.078H63.7656V299.516H67.9375V297.922H62.2188ZM64.8906 293.266C64.8828 294.281 66.2969 294.875 68.5469 294.875C70.7734 294.875 72.1953 294.281 72.2031 293.266C72.1953 292.227 70.7734 291.609 68.5469 291.609C66.2969 291.609 64.8828 292.227 64.8906 293.266ZM64.9844 303.078H72.125V300.5H64.9844V303.078ZM87.5 290.375V298.266H86.2969V290.375H87.5ZM76.9219 297.203V291.203H78.1562V296.156C80.4531 296.141 82.5078 295.984 84.7188 295.516L84.9062 296.547C82.5547 297.023 80.4453 297.188 78.0469 297.203H76.9219ZM78.4844 304.078V298.906H87.5V304.078H78.4844ZM79.6875 303.078H86.2969V299.891H79.6875V303.078ZM102.531 297.703V298.703H89.875V297.703H102.531ZM91.2812 293.625C91.2812 291.883 93.1875 290.859 96.2031 290.875C99.1875 290.859 101.102 291.883 101.109 293.625C101.102 295.352 99.1875 296.391 96.2031 296.391C93.1875 296.391 91.2812 295.352 91.2812 293.625ZM91.5156 303.969V299.922H92.75V302.938H101.125V303.969H91.5156ZM92.5469 293.625C92.5391 294.727 93.9609 295.391 96.2031 295.391C98.4297 295.391 99.8516 294.727 99.8594 293.625C99.8516 292.539 98.4297 291.859 96.2031 291.859C93.9609 291.859 92.5391 292.539 92.5469 293.625ZM34.8906 327L34.875 325.297L38.9375 321.562C39.9922 320.555 40.5625 319.93 40.5625 319.031C40.5625 318.023 39.8047 317.398 38.7656 317.406C37.7031 317.398 37.0078 318.07 37.0156 319.156H34.7812C34.7734 316.945 36.4141 315.531 38.7969 315.531C41.2188 315.531 42.8281 316.914 42.8281 318.875C42.8281 320.164 42.2031 321.219 39.875 323.328L38.1562 325V325.062H42.9844V327H34.8906ZM49.0469 327.156C46.2109 327.156 44.5 325.047 44.5 321.344C44.5 317.648 46.2266 315.531 49.0469 315.531C51.8672 315.531 53.5938 317.648 53.5938 321.344C53.5938 325.062 51.875 327.156 49.0469 327.156ZM46.9062 321.344C46.8906 323.953 47.7344 325.219 49.0469 325.219C50.3594 325.219 51.1953 323.953 51.1875 321.344C51.1953 318.758 50.3516 317.461 49.0469 317.453C47.7422 317.461 46.9062 318.758 46.9062 321.344ZM55.2188 327L55.2031 325.297L59.2656 321.562C60.3203 320.555 60.8906 319.93 60.8906 319.031C60.8906 318.023 60.1328 317.398 59.0938 317.406C58.0312 317.398 57.3359 318.07 57.3438 319.156H55.1094C55.1016 316.945 56.7422 315.531 59.125 315.531C61.5469 315.531 63.1562 316.914 63.1562 318.875C63.1562 320.164 62.5312 321.219 60.2031 323.328L58.4844 325V325.062H63.3125V327H55.2188ZM64.5469 325V323.141L69.3281 315.688H72.2812V323.109H73.7188V325H72.2812V327H70.0469V325H64.5469ZM66.9219 323.109H70.0781V318.266H69.9688L66.9219 323.016V323.109ZM86.7656 314.234V324.688H84.7812V320.031H81.25V318.469H84.7812V317.375H81.25V315.812H84.7812V314.234H86.7656ZM75.5781 322.844V315.125H77.5469V321.203C79.2812 321.18 80.9219 321.07 82.6875 320.75L82.8906 322.359C80.7578 322.766 78.8438 322.836 76.7188 322.844H75.5781ZM77.3125 328.188V323.75H79.3125V326.594H87.1094V328.188H77.3125ZM104.281 314.234V324.625H102.297V319.984H99.75V318.344H102.297V314.234H104.281ZM92.4844 321.625C95.4297 320.703 97.3359 319 97.7031 316.906H93.2188V315.281H99.875C99.875 319.094 97.4531 321.914 93.2969 323.203L92.4844 321.625ZM94.9062 328.188V323.578H96.9375V326.594H104.641V328.188H94.9062ZM117.406 314.219V317.562H119.328V319.188H117.406V322.469H115.406V314.219H117.406ZM106.031 321.172C109.164 320.344 110.953 318.719 111.266 316.75H106.703V315.156H113.438C113.445 318.945 111.062 321.602 106.828 322.781L106.031 321.172ZM107.953 325.547C107.938 323.766 109.875 322.641 112.766 322.641C115.664 322.641 117.555 323.766 117.562 325.547C117.555 327.344 115.664 328.453 112.766 328.453C109.875 328.453 107.938 327.344 107.953 325.547ZM109.922 325.547C109.914 326.406 110.977 326.898 112.766 326.891C114.531 326.898 115.594 326.406 115.594 325.547C115.594 324.672 114.531 324.188 112.766 324.188C110.977 324.188 109.914 324.672 109.922 325.547ZM127.328 315.047C127.328 318.766 124.977 321.344 120.812 322.5L120.031 320.953C123.102 320.117 124.867 318.555 125.195 316.641H120.797V315.047H127.328ZM122.516 328.266V322.75H131.938V328.266H122.516ZM124.469 326.703H129.969V324.312H124.469V326.703ZM127.422 319.234V317.609H129.953V314.234H131.938V322.188H129.953V319.234H127.422ZM139.328 317.031C139.32 318.727 140.383 320.461 142.719 321.172L141.703 322.734C140.109 322.227 138.992 321.203 138.352 319.922C137.703 321.328 136.547 322.445 134.875 323L133.844 321.438C136.211 320.68 137.297 318.828 137.297 317.031V316.828H134.375V315.234H142.188V316.828H139.328V317.031ZM136.156 328.188V323.578H138.172V326.594H146.062V328.188H136.156ZM143.688 324.516V314.234H145.688V324.516H143.688ZM163.594 314.219V328.438H161.703V321.297H160.328V327.75H158.5V314.453H160.328V319.703H161.703V314.219H163.594ZM151.703 325.219V315.859H157V317.469H153.703V323.547C155.078 323.523 156.297 323.445 157.672 323.203L157.812 324.828C156.078 325.156 154.562 325.211 152.688 325.219H151.703ZM170.312 316.453C170.305 318.18 171.312 319.836 173.562 320.531L172.5 322.078C170.992 321.578 169.938 320.609 169.328 319.367C168.711 320.797 167.609 321.922 165.984 322.469L164.906 320.906C167.281 320.117 168.297 318.227 168.312 316.266V314.969H170.312V316.453ZM166.875 325.688C166.867 323.961 168.75 322.938 171.75 322.938C174.695 322.938 176.539 323.961 176.547 325.688C176.539 327.43 174.695 328.445 171.75 328.438C168.75 328.445 166.867 327.43 166.875 325.688ZM168.875 325.688C168.859 326.492 169.883 326.875 171.75 326.875C173.594 326.875 174.578 326.492 174.578 325.688C174.578 324.914 173.594 324.5 171.75 324.5C169.883 324.5 168.859 324.914 168.875 325.688ZM174.406 322.656V314.219H176.406V317.547H178.328V319.203H176.406V322.656H174.406ZM190.547 314.375V328.297H189.312V314.375H190.547ZM179.609 320.297C179.617 317.344 181.086 315.461 183.156 315.453C185.219 315.461 186.711 317.344 186.703 320.297C186.711 323.258 185.219 325.133 183.156 325.125C181.086 325.133 179.617 323.258 179.609 320.297ZM180.797 320.297C180.797 322.555 181.766 324.039 183.156 324.031C184.555 324.039 185.516 322.555 185.516 320.297C185.516 318.039 184.555 316.555 183.156 316.547C181.766 316.555 180.797 318.039 180.797 320.297ZM200.656 315.453C202.703 315.461 204.156 317.344 204.172 320.297C204.156 323.258 202.703 325.133 200.656 325.125C198.594 325.133 197.148 323.258 197.156 320.297C197.148 317.344 198.594 315.461 200.656 315.453ZM198.312 320.297C198.32 322.555 199.281 324.039 200.656 324.031C202.047 324.039 202.984 322.555 202.984 320.297C202.984 318.039 202.047 316.555 200.656 316.547C199.281 316.555 198.32 318.039 198.312 320.297ZM206.469 328.266V314.375H207.688V319.922H210.016V320.984H207.688V328.266H206.469ZM222.234 314.391V321.703H221.016V314.391H222.234ZM211.641 321.016V315.078H212.859V319.969C215.141 319.961 217.219 319.812 219.438 319.359L219.625 320.375C217.266 320.836 215.164 321.008 212.766 321.016H211.641ZM213.25 328.078V322.328H214.484V324.219H221.016V322.328H222.234V328.078H213.25ZM214.484 327.078H221.016V325.188H214.484V327.078ZM236.047 314.375V328.266H234.828V314.375H236.047ZM225.5 324.688V315.75H226.703V323.625C228.828 323.609 231.016 323.445 233.344 322.953L233.516 324C231.047 324.516 228.852 324.688 226.625 324.688H225.5ZM249.172 314.375V319.875H251.5V320.906H249.172V328.297H247.953V314.375H249.172ZM239.031 324.812V315.734H245.516V316.75H240.25V323.781C242.766 323.773 244.539 323.664 246.609 323.281L246.766 324.344C244.586 324.734 242.766 324.812 240.125 324.812H239.031ZM253.719 327.094C253.172 327.086 252.703 326.633 252.719 326.078C252.703 325.531 253.172 325.078 253.719 325.078C254.273 325.078 254.727 325.531 254.719 326.078C254.727 326.633 254.273 327.086 253.719 327.094Z" fill="#323142"/>
<path d="M360.281 344.467V348.145H362.1V349.047H360.281V352.615H359.201V344.467H360.281ZM350.738 351.371C351.709 351.371 352.844 351.371 354.033 351.337V350.441C352.618 350.312 351.702 349.662 351.709 348.65C351.702 347.543 352.844 346.859 354.553 346.859C356.275 346.859 357.396 347.543 357.41 348.65C357.396 349.655 356.508 350.305 355.1 350.441V351.296C356.234 351.241 357.383 351.146 358.449 350.988L358.545 351.768C355.906 352.232 353.001 352.253 350.861 352.246L350.738 351.371ZM351.039 346.395V345.574H354.033V344.357H355.1V345.574H358.08V346.395H351.039ZM352.229 354.078V353.217H360.281V356.607H359.201V354.078H352.229ZM352.734 348.65C352.728 349.286 353.432 349.717 354.553 349.703C355.674 349.717 356.385 349.286 356.385 348.65C356.385 348.008 355.674 347.611 354.553 347.625C353.432 347.611 352.728 348.008 352.734 348.65ZM372.928 344.467V353.354H371.861V344.467H372.928ZM363.18 348.295C363.173 346.545 364.547 345.321 366.365 345.314C368.184 345.321 369.544 346.545 369.551 348.295C369.544 350.065 368.184 351.296 366.365 351.289C364.547 351.296 363.173 350.065 363.18 348.295ZM364.232 348.295C364.219 349.505 365.135 350.346 366.365 350.346C367.575 350.346 368.498 349.505 368.498 348.295C368.498 347.105 367.575 346.258 366.365 346.258C365.135 346.258 364.219 347.105 364.232 348.295ZM365.08 356.348V352.451H366.146V355.445H373.311V356.348H365.08ZM384.398 344.453V349.471H386.436V350.359H384.398V356.607H383.332V344.453H384.398ZM374.924 347.297V346.408H378.055V344.604H379.121V346.408H382.156V347.297H374.924ZM375.621 351.098C375.614 349.457 376.872 348.309 378.602 348.309C380.317 348.309 381.568 349.457 381.582 351.098C381.568 352.745 380.317 353.887 378.602 353.887C376.872 353.887 375.614 352.745 375.621 351.098ZM376.646 351.098C376.64 352.205 377.467 352.984 378.602 352.971C379.723 352.984 380.543 352.205 380.557 351.098C380.543 349.997 379.723 349.204 378.602 349.211C377.467 349.204 376.64 349.997 376.646 351.098ZM397.141 344.453V356.607H396.061V344.453H397.141ZM387.242 353.449C390.53 351.891 392.212 349.56 392.451 346.654H387.803V345.779H393.545C393.531 349.272 391.904 352.369 387.83 354.324L387.242 353.449Z" fill="#323142"/>
<mask id="mask1_233_4415" style="mask-type:alpha" maskUnits="userSpaceOnUse" x="401" y="343" width="15" height="15">
<rect x="401" y="343" width="15" height="15" fill="#D9D9D9"/>
</mask>
<g mask="url(#mask1_233_4415)">
<path d="M410.269 350.499L405.561 345.791C405.437 345.667 405.377 345.519 405.38 345.348C405.383 345.176 405.447 345.028 405.571 344.904C405.695 344.78 405.843 344.718 406.014 344.718C406.186 344.718 406.334 344.78 406.458 344.904L411.243 349.699C411.356 349.812 411.439 349.938 411.494 350.078C411.548 350.219 411.576 350.359 411.576 350.499C411.576 350.639 411.548 350.779 411.494 350.92C411.439 351.06 411.356 351.186 411.243 351.299L406.448 356.094C406.324 356.218 406.178 356.279 406.01 356.275C405.841 356.272 405.695 356.209 405.571 356.084C405.447 355.96 405.385 355.812 405.385 355.641C405.385 355.469 405.447 355.322 405.571 355.197L410.269 350.499Z" fill="#1C1B1F"/>
</g>
</g>
<path d="M16 412C16 406.477 20.4772 402 26 402H125C130.523 402 135 406.477 135 412V450H16V412Z" fill="#F0666D"/>
<path d="M47.6562 424.609V426.234H45.6406V433.406H43.6406V419.219H45.6406V424.609H47.6562ZM34.875 429.938V420.578H36.8594V428.289C38.6797 428.258 40.6328 428.086 42.6875 427.672L42.8906 429.328C40.5078 429.812 38.2031 429.938 36.1094 429.938H34.875ZM52.8594 420.172C55.1172 420.164 56.7891 421.617 56.7969 423.656C56.7891 425.703 55.1172 427.148 52.8594 427.156C50.6172 427.148 48.8984 425.703 48.9062 423.656C48.8984 421.617 50.6172 420.164 52.8594 420.172ZM48.3125 428.938C50.8516 428.945 54.3672 428.914 57.4062 428.484L57.5625 429.922C54.4062 430.539 51.0312 430.562 48.5469 430.562L48.3125 428.938ZM50.8906 423.656C50.8828 424.781 51.7344 425.43 52.8594 425.422C53.9922 425.43 54.8516 424.781 54.8594 423.656C54.8516 422.547 53.9922 421.891 52.8594 421.891C51.7344 421.891 50.8828 422.547 50.8906 423.656ZM58.2188 433.469V419.219H60.2031V433.469H58.2188ZM74.0625 419.234V429.625H72.0781V424.984H69.5312V423.344H72.0781V419.234H74.0625ZM62.2656 426.625C65.2109 425.703 67.1172 424 67.4844 421.906H63V420.281H69.6562C69.6562 424.094 67.2344 426.914 63.0781 428.203L62.2656 426.625ZM64.6875 433.188V428.578H66.7188V431.594H74.4219V433.188H64.6875ZM87.1875 419.219V422.562H89.1094V424.188H87.1875V427.469H85.1875V419.219H87.1875ZM75.8125 426.172C78.9453 425.344 80.7344 423.719 81.0469 421.75H76.4844V420.156H83.2188C83.2266 423.945 80.8438 426.602 76.6094 427.781L75.8125 426.172ZM77.7344 430.547C77.7188 428.766 79.6562 427.641 82.5469 427.641C85.4453 427.641 87.3359 428.766 87.3438 430.547C87.3359 432.344 85.4453 433.453 82.5469 433.453C79.6562 433.453 77.7188 432.344 77.7344 430.547ZM79.7031 430.547C79.6953 431.406 80.7578 431.898 82.5469 431.891C84.3125 431.898 85.375 431.406 85.375 430.547C85.375 429.672 84.3125 429.188 82.5469 429.188C80.7578 429.188 79.6953 429.672 79.7031 430.547ZM97.7031 420.25V421.141C97.7031 422.125 97.7031 423.547 97.375 425.312L95.4219 425.125C95.6797 423.766 95.7422 422.727 95.7578 421.875H90.3906V420.25H97.7031ZM89.5469 426.344C90.3438 426.344 91.2422 426.344 92.1875 426.32V423.531H94.1719V426.258C95.5938 426.195 97.0391 426.086 98.375 425.891L98.4844 427.328C95.5234 427.875 92.1953 427.93 89.7188 427.938L89.5469 426.344ZM91.6406 433.188V428.906H93.6406V431.594H101.625V433.188H91.6406ZM99.1406 429.859V419.219H101.188V423.547H102.906V425.219H101.188V429.859H99.1406ZM115.484 419.219V433.469H113.5V419.219H115.484ZM104.312 422.016V420.406H111.078V425.891H106.391V428.5C108.562 428.484 110.398 428.375 112.484 428.031L112.656 429.641C110.32 430.055 108.203 430.141 105.609 430.141H104.328V424.312H109.047V422.016H104.312Z" fill="white"/>
<path d="M165.188 419.344V429.656H163.703V424.797H160.797V423.562H163.703V419.344H165.188ZM160.891 420.391C160.875 424.047 158.359 426.797 154.344 428.094L153.719 426.906C156.836 425.898 158.953 423.992 159.266 421.625H154.438V420.391H160.891ZM165.547 431.828V433.031H156.172V428.594H157.672V431.828H165.547ZM178.344 419.328V422.859H180.375V424.062H178.344V427.641H176.859V419.328H178.344ZM174.5 420.328C174.5 423.953 172.047 426.562 167.938 427.75L167.328 426.547C170.602 425.617 172.625 423.797 172.891 421.531H167.953V420.328H174.5ZM173.875 427.797C176.703 427.797 178.5 428.844 178.5 430.547C178.5 432.266 176.703 433.312 173.875 433.312C171.062 433.312 169.219 432.266 169.234 430.547C169.219 428.844 171.062 427.797 173.875 427.797ZM173.875 428.969C171.922 428.969 170.688 429.562 170.703 430.547C170.688 431.531 171.922 432.141 173.875 432.141C175.812 432.141 177.047 431.531 177.047 430.547C177.047 429.562 175.812 428.969 173.875 428.969ZM193.984 430.328V431.578H181.172V430.328H193.984ZM192.812 420.672V421.891H190.672V426.562H192.766V427.75H182.297V426.562H184.391V421.891H182.266V420.672H192.812ZM185.859 426.562H189.219V421.891H185.859V426.562ZM207.812 430.406V431.656H195V430.406H200.641V427.953H196.562V423.5H204.781V421.531H196.531V420.312H206.25V424.688H198.031V426.734H206.578V427.953H202.109V430.406H207.812ZM219.922 420.75V422.25C219.922 424.062 219.922 426.031 219.406 429.016L217.891 428.875C218.453 426.078 218.453 424.016 218.453 422.25V421.969H210.203V420.75H219.922ZM221.594 430.109V431.344H208.828V430.109H221.594ZM234.594 419.344V427.656H233.188V424.016H231.469V427.5H230.078V419.594H231.469V422.797H233.188V419.344H234.594ZM234.594 428.281V433.156H225.234V428.281H234.594ZM226.719 429.469V431.953H233.141V429.469H226.719ZM228.562 420.219V424.156H224.719V425.906C226.453 425.891 227.773 425.812 229.312 425.516L229.469 426.703C227.703 427.031 226.25 427.078 224.203 427.078H223.281V423.016H227.141V421.406H223.25V420.219H228.562Z" fill="#999999"/>
<g filter="url(#filter3_d_233_4415)">
<path d="M16 450H424C429.523 450 434 454.477 434 460V824C434 829.523 429.523 834 424 834H26C20.4772 834 16 829.523 16 824V450Z" fill="white" shape-rendering="crispEdges"/>
<rect x="34" y="470" width="187" height="68" rx="8" fill="#F5F5F5"/>
<path d="M56.9932 502.273V504.01H62.0107V504.898H50.9365V504.01H55.9404V502.273H56.9932ZM51.5518 502.027C53.6709 501.802 55.7012 500.763 55.7764 499.402H51.9482V498.527H61.0264V499.402H57.1709C57.2461 500.756 59.2764 501.802 61.3955 502.027L60.999 502.875C59.0098 502.629 57.1436 501.761 56.4736 500.414C55.8037 501.761 53.9512 502.629 51.9482 502.875L51.5518 502.027ZM52.2764 507.988C52.2695 506.642 53.835 505.896 56.4736 505.896C59.085 505.896 60.6436 506.642 60.6572 507.988C60.6436 509.342 59.085 510.08 56.4736 510.08C53.835 510.08 52.2695 509.342 52.2764 507.988ZM53.3701 507.988C53.3564 508.788 54.5049 509.253 56.4736 509.246C58.4219 509.253 59.5703 508.788 59.5771 507.988C59.5703 507.195 58.4219 506.737 56.4736 506.744C54.5049 506.737 53.3564 507.195 53.3701 507.988ZM72.5381 497.953V501.07H74.3701V501.986H72.5381V505.021H71.4717V497.953H72.5381ZM63.0635 500.1V499.211H66.1533V497.844H67.2197V499.211H70.3096V500.1H63.0635ZM63.7607 502.793C63.7539 501.494 64.9229 500.667 66.6865 500.66C68.4297 500.667 69.5986 501.494 69.6123 502.793C69.5986 504.092 68.4297 504.933 66.6865 504.926C64.9229 504.933 63.7539 504.092 63.7607 502.793ZM64.7861 502.793C64.7793 503.586 65.5381 504.105 66.6865 504.105C67.8213 504.105 68.5869 503.586 68.6006 502.793C68.5869 502.007 67.8213 501.48 66.6865 501.494C65.5381 501.48 64.7793 502.007 64.7861 502.793ZM64.8545 509.943V505.555H65.9209V506.854H71.4717V505.555H72.5381V509.943H64.8545ZM65.9209 509.082H71.4717V507.701H65.9209V509.082ZM88.7256 497.967V506.949H87.6455V502.615H84.9521V501.713H87.6455V497.967H88.7256ZM78.8408 504.666C81.6367 503.743 83.585 501.993 83.8311 499.799H79.4561V498.896H85.0068C84.9932 502.021 82.7578 504.399 79.3057 505.527L78.8408 504.666ZM80.9873 509.848V506.033H82.0811V508.945H89.04V509.848H80.9873ZM100.251 497.953V501.125H102.083V502.014H100.251V505.254H99.1846V497.953H100.251ZM90.7627 504.393C93.6953 503.545 95.5684 501.856 95.7871 499.744H91.2959V498.855H96.9424C96.9355 501.952 94.7549 504.222 91.2139 505.268L90.7627 504.393ZM92.4307 507.729C92.4238 506.272 93.9893 505.384 96.4092 505.391C98.8496 505.384 100.388 506.272 100.388 507.729C100.388 509.205 98.8496 510.08 96.4092 510.08C93.9893 510.08 92.4238 509.205 92.4307 507.729ZM93.4971 507.729C93.4834 508.645 94.625 509.226 96.4092 509.219C98.1934 509.226 99.3486 508.645 99.3486 507.729C99.3486 506.812 98.1934 506.245 96.4092 506.252C94.625 506.245 93.4834 506.812 93.4971 507.729ZM112.925 497.953V505.199H111.845V502.014H109.397V501.125H111.845V497.953H112.925ZM102.903 504.229C104.708 503.579 105.993 501.932 105.993 500.195V499.744H103.245V498.842H109.794V499.744H107.073V500.182C107.073 501.768 108.29 503.278 110.067 503.887L109.507 504.748C108.146 504.256 107.087 503.23 106.561 501.979C106.041 503.401 104.913 504.536 103.464 505.09L102.903 504.229ZM104.817 507.838C104.811 506.409 106.362 505.575 108.892 505.582C111.414 505.575 112.966 506.409 112.966 507.838C112.966 509.273 111.414 510.094 108.892 510.107C106.362 510.094 104.811 509.273 104.817 507.838ZM105.884 507.838C105.877 508.72 107.025 509.253 108.892 509.246C110.751 509.253 111.899 508.72 111.899 507.838C111.899 506.949 110.751 506.416 108.892 506.416C107.025 506.416 105.877 506.949 105.884 507.838ZM126.077 507.66V508.549H114.948V507.66H119.952V505.035H116.261V498.814H117.341V501.016H123.657V498.814H124.71V505.035H121.005V507.66H126.077ZM117.341 504.16H123.657V501.891H117.341V504.16Z" fill="#222222"/>
<rect x="229" y="470" width="187" height="68" rx="8" fill="#F5F5F5"/>
<path d="M250.005 500.564C250.012 502.205 251.304 503.682 253.122 504.256L252.575 505.117C251.16 504.632 250.039 503.634 249.485 502.355C248.959 503.736 247.817 504.83 246.368 505.363L245.808 504.502C247.633 503.866 248.918 502.287 248.925 500.564V499.854H246.081V498.979H252.808V499.854H250.005V500.564ZM247.817 509.848V506.033H248.884V508.945H256.048V509.848H247.817ZM254.599 506.881V497.967H255.665V506.881H254.599ZM268.858 507.701V508.604H257.729V507.701H260.86V505.391H259.124V501.645H266.397V499.744H259.097V498.855H267.45V502.533H260.19V504.502H267.737V505.391H265.837V507.701H268.858ZM261.913 507.701H264.784V505.391H261.913V507.701ZM279.687 498.746V503.695H273.985V498.746H279.687ZM274.86 509.232C276.952 509 278.962 507.817 278.962 506.607H275.366V505.773H278.976V504.584H280.042V505.773H283.679V506.607H280.069C280.062 507.79 282.018 508.973 284.103 509.232L283.733 510.066C281.908 509.813 280.24 508.952 279.516 507.831C278.784 508.979 277.075 509.813 275.243 510.066L274.86 509.232ZM275.038 502.848H278.634V499.621H275.038V502.848ZM282.312 504.939V497.953H283.364V504.939H282.312ZM300.071 505.322V506.211H295.013V510.107H293.96V506.211H288.942V505.322H300.071ZM290.433 504.064V498.527H298.677V499.402H291.499V500.824H298.39V501.686H291.499V503.189H298.813V504.064H290.433ZM312.362 499.84V500.715H310.558V502.424H312.362V503.34H310.558V505.186H309.491V497.953H310.558V499.84H312.362ZM301.288 501.549C301.281 499.86 302.635 498.685 304.474 498.691C306.326 498.685 307.659 499.86 307.673 501.549C307.659 503.258 306.326 504.427 304.474 504.434C302.635 504.427 301.281 503.258 301.288 501.549ZM302.341 501.549C302.334 502.718 303.243 503.518 304.474 503.504C305.718 503.518 306.613 502.718 306.62 501.549C306.613 500.407 305.718 499.614 304.474 499.607C303.243 499.614 302.334 500.407 302.341 501.549ZM302.601 506.635V505.746H310.558V510.107H309.491V506.635H302.601ZM323.231 497.953V505.199H322.151V502.014H319.704V501.125H322.151V497.953H323.231ZM313.21 504.229C315.015 503.579 316.3 501.932 316.3 500.195V499.744H313.552V498.842H320.101V499.744H317.38V500.182C317.38 501.768 318.597 503.278 320.374 503.887L319.813 504.748C318.453 504.256 317.394 503.23 316.867 501.979C316.348 503.401 315.22 504.536 313.771 505.09L313.21 504.229ZM315.124 507.838C315.117 506.409 316.669 505.575 319.198 505.582C321.721 505.575 323.272 506.409 323.272 507.838C323.272 509.273 321.721 510.094 319.198 510.107C316.669 510.094 315.117 509.273 315.124 507.838ZM316.19 507.838C316.184 508.72 317.332 509.253 319.198 509.246C321.058 509.253 322.206 508.72 322.206 507.838C322.206 506.949 321.058 506.416 319.198 506.416C317.332 506.416 316.184 506.949 316.19 507.838ZM336.384 507.66V508.549H325.255V507.66H330.259V505.035H326.567V498.814H327.647V501.016H333.964V498.814H335.017V505.035H331.312V507.66H336.384ZM327.647 504.16H333.964V501.891H327.647V504.16Z" fill="#222222"/>
<rect x="34" y="546" width="187" height="68" rx="8" fill="#F5F5F5"/>
<path d="M60.6562 573.967V582.949H59.5762V578.615H56.8828V577.713H59.5762V573.967H60.6562ZM50.7715 580.666C53.5674 579.743 55.5156 577.993 55.7617 575.799H51.3867V574.896H56.9375C56.9238 578.021 54.6885 580.399 51.2363 581.527L50.7715 580.666ZM52.918 585.848V582.033H54.0117V584.945H60.9707V585.848H52.918ZM72.1816 573.953V577.125H74.0137V578.014H72.1816V581.254H71.1152V573.953H72.1816ZM62.6934 580.393C65.626 579.545 67.499 577.856 67.7178 575.744H63.2266V574.855H68.873C68.8662 577.952 66.6855 580.222 63.1445 581.268L62.6934 580.393ZM64.3613 583.729C64.3545 582.272 65.9199 581.384 68.3398 581.391C70.7803 581.384 72.3184 582.272 72.3184 583.729C72.3184 585.205 70.7803 586.08 68.3398 586.08C65.9199 586.08 64.3545 585.205 64.3613 583.729ZM65.4277 583.729C65.4141 584.645 66.5557 585.226 68.3398 585.219C70.124 585.226 71.2793 584.645 71.2793 583.729C71.2793 582.812 70.124 582.245 68.3398 582.252C66.5557 582.245 65.4141 582.812 65.4277 583.729ZM81.0547 574.746C81.0479 577.795 78.8672 579.982 75.3672 580.98L74.916 580.133C77.8213 579.312 79.6807 577.699 79.9131 575.635H75.5449V574.746H81.0547ZM76.9668 585.943V581.418H84.8555V585.943H76.9668ZM78.0059 585.068H83.7891V582.279H78.0059V585.068ZM81.082 578V577.098H83.7754V573.967H84.8555V580.898H83.7754V578H81.082ZM91.2539 576.564C91.2607 578.205 92.5527 579.682 94.3711 580.256L93.8242 581.117C92.4092 580.632 91.2881 579.634 90.7344 578.355C90.208 579.736 89.0664 580.83 87.6172 581.363L87.0566 580.502C88.8818 579.866 90.167 578.287 90.1738 576.564V575.854H87.3301V574.979H94.0566V575.854H91.2539V576.564ZM89.0664 585.848V582.033H90.1328V584.945H97.2969V585.848H89.0664ZM95.8477 582.881V573.967H96.9141V582.881H95.8477ZM112.568 573.953V580.174H111.488V578.902H108.248V578.055H111.488V576.592H108.426C107.667 578.506 105.78 579.798 103.08 580.447L102.697 579.559C105.678 578.868 107.407 577.419 107.612 575.457H103.312V574.568H108.795C108.795 574.972 108.754 575.361 108.679 575.73H111.488V573.953H112.568ZM104.693 581.596V580.721H112.568V583.688H105.787V585.109H112.979V585.998H104.721V582.867H111.488V581.596H104.693ZM121.332 575.307V575.936C121.325 576.899 121.325 578.506 120.977 580.762L119.896 580.666C120.231 578.629 120.259 577.152 120.252 576.182H115.152V575.307H121.332ZM114.469 582.539C115.269 582.532 116.157 582.525 117.094 582.505V578.779H118.146V582.471C119.493 582.423 120.874 582.334 122.139 582.184L122.193 582.99C119.637 583.387 116.779 583.441 114.605 583.428L114.469 582.539ZM122.904 586.107V573.953H123.971V579.039H125.939V579.969H123.971V586.107H122.904ZM141.334 583.646V584.549H130.205V583.646H135.223V580.693H136.303V583.646H141.334ZM130.752 580.256C132.81 579.907 135.195 578.205 135.195 576.264V575.963H131.121V575.061H140.377V575.963H136.303V576.264C136.31 578.205 138.702 579.873 140.801 580.215L140.363 581.062C138.504 580.693 136.542 579.511 135.763 577.829C134.983 579.531 133.028 580.741 131.203 581.117L130.752 580.256ZM152.271 573.953V586.107H151.205V573.953H152.271ZM142.373 582.867C143.412 582.86 144.602 582.854 145.832 582.812V581.486C144.369 581.336 143.426 580.502 143.439 579.285C143.426 577.911 144.595 577.022 146.352 577.029C148.108 577.022 149.298 577.911 149.291 579.285C149.298 580.488 148.354 581.322 146.912 581.486V582.771C148.088 582.717 149.277 582.635 150.398 582.484L150.48 583.305C147.767 583.742 144.793 583.783 142.537 583.783L142.373 582.867ZM142.633 576.332V575.457H145.832V573.967H146.912V575.457H150.084V576.332H142.633ZM144.438 579.285C144.431 580.126 145.224 580.68 146.352 580.666C147.486 580.68 148.272 580.126 148.266 579.285C148.272 578.438 147.486 577.863 146.352 577.863C145.224 577.863 144.431 578.438 144.438 579.285Z" fill="#222222"/>
<rect x="229" y="546" width="187" height="68" rx="8" fill="#F5F5F5"/>
<path d="M248.88 574.691C249.905 574.685 250.773 575.074 251.341 575.717H254.526V573.953H255.606V581.158H254.526V579.422H251.341C250.78 580.064 249.905 580.454 248.88 580.447C247.062 580.454 245.715 579.265 245.722 577.576C245.715 575.874 247.062 574.685 248.88 574.691ZM246.747 577.576C246.747 578.704 247.636 579.538 248.88 579.531C250.083 579.538 250.985 578.704 250.985 577.576C250.985 576.421 250.083 575.614 248.88 575.621C247.636 575.614 246.747 576.421 246.747 577.576ZM247.499 583.756C247.492 582.293 249.051 581.445 251.573 581.445C254.089 581.445 255.647 582.293 255.647 583.756C255.647 585.232 254.089 586.08 251.573 586.08C249.051 586.08 247.492 585.232 247.499 583.756ZM248.552 583.756C248.545 584.672 249.707 585.226 251.573 585.219C253.439 585.226 254.602 584.672 254.595 583.756C254.602 582.833 253.439 582.286 251.573 582.279C249.707 582.286 248.545 582.833 248.552 583.756ZM251.854 576.592C251.963 576.893 252.024 577.221 252.024 577.576C252.024 577.918 251.963 578.239 251.86 578.533H254.526V576.592H251.854ZM268.745 580.885V581.773H265.806V586.107H264.726V581.773H261.608V586.107H260.501V581.773H257.616V580.885H268.745ZM258.874 577.098C258.881 575.478 260.597 574.452 263.153 574.445C265.703 574.452 267.433 575.478 267.433 577.098C267.433 578.718 265.703 579.729 263.153 579.723C260.597 579.729 258.881 578.718 258.874 577.098ZM259.981 577.098C259.968 578.171 261.26 578.861 263.153 578.861C265.047 578.861 266.332 578.171 266.339 577.098C266.332 576.018 265.047 575.32 263.153 575.32C261.26 575.32 259.968 576.018 259.981 577.098ZM272.983 574.896C274.774 574.903 276.046 576.551 276.06 579.135C276.046 581.726 274.774 583.366 272.983 583.359C271.179 583.366 269.914 581.726 269.921 579.135C269.914 576.551 271.179 574.903 272.983 574.896ZM270.933 579.135C270.939 581.11 271.78 582.409 272.983 582.402C274.2 582.409 275.021 581.11 275.021 579.135C275.021 577.159 274.2 575.86 272.983 575.854C271.78 575.86 270.939 577.159 270.933 579.135ZM278.069 586.107V573.953H279.136V578.807H281.173V579.736H279.136V586.107H278.069ZM291.618 574.746C291.611 577.795 289.431 579.982 285.931 580.98L285.479 580.133C288.385 579.312 290.244 577.699 290.477 575.635H286.108V574.746H291.618ZM287.53 585.943V581.418H295.419V585.943H287.53ZM288.569 585.068H294.353V582.279H288.569V585.068ZM291.646 578V577.098H294.339V573.967H295.419V580.898H294.339V578H291.646ZM301.817 576.564C301.824 578.205 303.116 579.682 304.935 580.256L304.388 581.117C302.973 580.632 301.852 579.634 301.298 578.355C300.771 579.736 299.63 580.83 298.181 581.363L297.62 580.502C299.445 579.866 300.73 578.287 300.737 576.564V575.854H297.894V574.979H304.62V575.854H301.817V576.564ZM299.63 585.848V582.033H300.696V584.945H307.86V585.848H299.63ZM306.411 582.881V573.967H307.478V582.881H306.411ZM319.933 573.953V586.107H318.907V579.736H317.116V585.479H316.132V574.227H317.116V578.848H318.907V573.953H319.933ZM309.993 583.1V575.443H314.546V576.332H311.06V582.184C312.734 582.177 313.89 582.115 315.243 581.842L315.339 582.744C313.876 583.045 312.639 583.093 310.772 583.1H309.993ZM325.702 575.922C325.702 577.576 326.96 579.094 328.724 579.695L328.136 580.543C326.796 580.051 325.736 579.046 325.203 577.774C324.684 579.217 323.597 580.331 322.175 580.885L321.601 580.023C323.419 579.347 324.643 577.72 324.649 575.84V574.582H325.702V575.922ZM323.214 583.865C323.221 582.478 324.745 581.664 327.247 581.664C329.742 581.664 331.253 582.478 331.253 583.865C331.253 585.28 329.742 586.08 327.247 586.08C324.745 586.08 323.221 585.28 323.214 583.865ZM324.294 583.865C324.28 584.727 325.415 585.226 327.247 585.232C329.086 585.226 330.207 584.727 330.214 583.865C330.207 583.038 329.086 582.525 327.247 582.525C325.415 582.525 324.28 583.038 324.294 583.865ZM330.077 581.35V573.953H331.144V577.125H332.976V578.027H331.144V581.35H330.077ZM348.384 583.646V584.549H337.255V583.646H342.272V580.693H343.353V583.646H348.384ZM337.802 580.256C339.859 579.907 342.245 578.205 342.245 576.264V575.963H338.171V575.061H347.427V575.963H343.353V576.264C343.359 578.205 345.752 579.873 347.851 580.215L347.413 581.062C345.554 580.693 343.592 579.511 342.812 577.829C342.033 579.531 340.078 580.741 338.253 581.117L337.802 580.256ZM359.321 573.953V586.107H358.255V573.953H359.321ZM349.423 582.867C350.462 582.86 351.651 582.854 352.882 582.812V581.486C351.419 581.336 350.476 580.502 350.489 579.285C350.476 577.911 351.645 577.022 353.401 577.029C355.158 577.022 356.348 577.911 356.341 579.285C356.348 580.488 355.404 581.322 353.962 581.486V582.771C355.138 582.717 356.327 582.635 357.448 582.484L357.53 583.305C354.816 583.742 351.843 583.783 349.587 583.783L349.423 582.867ZM349.683 576.332V575.457H352.882V573.967H353.962V575.457H357.134V576.332H349.683ZM351.487 579.285C351.48 580.126 352.273 580.68 353.401 580.666C354.536 580.68 355.322 580.126 355.315 579.285C355.322 578.438 354.536 577.863 353.401 577.863C352.273 577.863 351.48 578.438 351.487 579.285Z" fill="#222222"/>
<rect x="34" y="622" width="187" height="68" rx="8" fill="#F5F5F5"/>
<path d="M56.8682 650.746C56.8613 653.795 54.6807 655.982 51.1807 656.98L50.7295 656.133C53.6348 655.312 55.4941 653.699 55.7266 651.635H51.3584V650.746H56.8682ZM52.7803 661.943V657.418H60.6689V661.943H52.7803ZM53.8193 661.068H59.6025V658.279H53.8193V661.068ZM56.8955 654V653.098H59.5889V649.967H60.6689V656.898H59.5889V654H56.8955ZM67.0674 652.564C67.0742 654.205 68.3662 655.682 70.1846 656.256L69.6377 657.117C68.2227 656.632 67.1016 655.634 66.5479 654.355C66.0215 655.736 64.8799 656.83 63.4307 657.363L62.8701 656.502C64.6953 655.866 65.9805 654.287 65.9873 652.564V651.854H63.1436V650.979H69.8701V651.854H67.0674V652.564ZM64.8799 661.848V658.033H65.9463V660.945H73.1104V661.848H64.8799ZM71.6611 658.881V649.967H72.7275V658.881H71.6611ZM89.4209 656.174V657.062H84.4717V659.551H83.4053V657.062H78.292V656.174H89.4209ZM79.7139 661.848V658.348H80.7939V660.945H88.1768V661.848H79.7139ZM79.7412 654.779V650.555H87.9717V654.779H79.7412ZM80.7939 653.918H86.9053V651.402H80.7939V653.918ZM94.7803 652.564C94.7871 654.205 96.0791 655.682 97.8975 656.256L97.3506 657.117C95.9355 656.632 94.8145 655.634 94.2607 654.355C93.7344 655.736 92.5928 656.83 91.1436 657.363L90.583 656.502C92.4082 655.866 93.6934 654.287 93.7002 652.564V651.854H90.8564V650.979H97.583V651.854H94.7803V652.564ZM92.5928 661.848V658.033H93.6592V660.945H100.823V661.848H92.5928ZM99.374 658.881V649.967H100.44V658.881H99.374ZM113.634 659.729V660.617H102.505V659.729H105.608V656.83H103.517V655.941H105.417V651.977H103.489V651.088H112.567V651.977H110.64V655.941H112.54V656.83H110.448V659.729H113.634ZM106.483 655.941H109.587V651.977H106.483V655.941ZM106.688 659.729H109.382V656.83H106.688V659.729ZM118.583 650.637L115.384 662.49H114.317L117.503 650.637H118.583ZM126.103 650.883V651.771H124.858V655.661C125.419 655.62 125.973 655.572 126.499 655.504L126.554 656.324C124.182 656.687 121.42 656.728 119.444 656.721L119.308 655.818C119.793 655.818 120.319 655.818 120.88 655.812V651.771H119.649V650.883H126.103ZM121.249 659.893C121.242 658.505 122.78 657.712 125.323 657.719C127.866 657.712 129.397 658.505 129.397 659.893C129.397 661.28 127.866 662.08 125.323 662.08C122.78 662.08 121.242 661.28 121.249 659.893ZM121.919 655.791C122.541 655.777 123.184 655.757 123.819 655.723V651.771H121.919V655.791ZM122.315 659.893C122.309 660.74 123.45 661.232 125.323 661.232C127.189 661.232 128.331 660.74 128.331 659.893C128.331 659.059 127.189 658.553 125.323 658.553C123.45 658.553 122.309 659.059 122.315 659.893ZM126.226 655.203V654.314H128.276V653.029H126.226V652.141H128.276V649.953H129.356V657.459H128.276V655.203H126.226ZM140.786 649.953V654.902H142.755V655.805H140.786V662.107H139.72V649.953H140.786ZM131.462 658.949C134.6 657.391 136.309 655.046 136.555 652.168H132.022V651.266H137.642C137.635 654.704 136.021 657.842 132.063 659.797L131.462 658.949ZM153.296 655.654V656.529H149.536V659.674H154.608V660.576H143.479V659.674H148.483V656.529H144.901V650.951H153.173V651.826H145.981V655.654H153.296ZM165.19 650.746V651.812C165.19 652.961 165.19 654.226 164.842 655.969H166.653V656.857H161.636V662.135H160.556V656.857H155.579V655.969H163.755C164.124 654.219 164.124 652.947 164.124 651.812V651.635H156.974V650.746H165.19ZM175.308 652.209C175.314 653.829 176.504 655.306 178.302 655.928L177.755 656.762C176.367 656.27 175.308 655.278 174.788 654.021C174.269 655.401 173.154 656.475 171.726 656.994L171.151 656.16C172.97 655.518 174.241 653.952 174.255 652.209V651.689H171.479V650.814H178.042V651.689H175.308V652.209ZM172.737 658.799V657.924H180.694V662.107H179.628V658.799H172.737ZM179.628 657.281V649.953H180.694V653.166H182.526V654.082H180.694V657.281H179.628ZM187.476 651.867C187.462 653.604 188.699 655.128 190.483 655.736L189.882 656.57C188.542 656.071 187.489 655.08 186.963 653.802C186.443 655.258 185.336 656.386 183.866 656.939L183.278 656.064C185.151 655.408 186.396 653.795 186.409 651.908V650.65H187.476V651.867ZM185.261 659.811C185.254 658.348 186.806 657.507 189.335 657.514C191.857 657.507 193.409 658.348 193.409 659.811C193.409 661.26 191.857 662.08 189.335 662.08C186.806 662.08 185.254 661.26 185.261 659.811ZM186.327 659.811C186.32 660.692 187.469 661.226 189.335 661.219C191.194 661.226 192.343 660.692 192.343 659.811C192.343 658.901 191.194 658.361 189.335 658.361C187.469 658.361 186.32 658.901 186.327 659.811ZM189.581 653.453V652.564H192.288V649.953H193.368V657.158H192.288V653.453H189.581Z" fill="#222222"/>
<rect x="229" y="622" width="187" height="68" rx="8" fill="#F5F5F5"/>
<path d="M249.28 650.691C250.306 650.685 251.174 651.074 251.741 651.717H254.927V649.953H256.007V657.158H254.927V655.422H251.741C251.181 656.064 250.306 656.454 249.28 656.447C247.462 656.454 246.115 655.265 246.122 653.576C246.115 651.874 247.462 650.685 249.28 650.691ZM247.147 653.576C247.147 654.704 248.036 655.538 249.28 655.531C250.483 655.538 251.386 654.704 251.386 653.576C251.386 652.421 250.483 651.614 249.28 651.621C248.036 651.614 247.147 652.421 247.147 653.576ZM247.899 659.756C247.893 658.293 249.451 657.445 251.974 657.445C254.489 657.445 256.048 658.293 256.048 659.756C256.048 661.232 254.489 662.08 251.974 662.08C249.451 662.08 247.893 661.232 247.899 659.756ZM248.952 659.756C248.945 660.672 250.107 661.226 251.974 661.219C253.84 661.226 255.002 660.672 254.995 659.756C255.002 658.833 253.84 658.286 251.974 658.279C250.107 658.286 248.945 658.833 248.952 659.756ZM252.254 652.592C252.363 652.893 252.425 653.221 252.425 653.576C252.425 653.918 252.363 654.239 252.261 654.533H254.927V652.592H252.254ZM269.146 656.885V657.773H266.206V662.107H265.126V657.773H262.009V662.107H260.901V657.773H258.017V656.885H269.146ZM259.274 653.098C259.281 651.478 260.997 650.452 263.554 650.445C266.104 650.452 267.833 651.478 267.833 653.098C267.833 654.718 266.104 655.729 263.554 655.723C260.997 655.729 259.281 654.718 259.274 653.098ZM260.382 653.098C260.368 654.171 261.66 654.861 263.554 654.861C265.447 654.861 266.732 654.171 266.739 653.098C266.732 652.018 265.447 651.32 263.554 651.32C261.66 651.32 260.368 652.018 260.382 653.098ZM273.384 650.896C275.175 650.903 276.446 652.551 276.46 655.135C276.446 657.726 275.175 659.366 273.384 659.359C271.579 659.366 270.314 657.726 270.321 655.135C270.314 652.551 271.579 650.903 273.384 650.896ZM271.333 655.135C271.34 657.11 272.181 658.409 273.384 658.402C274.601 658.409 275.421 657.11 275.421 655.135C275.421 653.159 274.601 651.86 273.384 651.854C272.181 651.86 271.34 653.159 271.333 655.135ZM278.47 662.107V649.953H279.536V654.807H281.573V655.736H279.536V662.107H278.47ZM295.819 649.967V658.949H294.739V654.615H292.046V653.713H294.739V649.967H295.819ZM285.935 656.666C288.73 655.743 290.679 653.993 290.925 651.799H286.55V650.896H292.101C292.087 654.021 289.852 656.399 286.399 657.527L285.935 656.666ZM288.081 661.848V658.033H289.175V660.945H296.134V661.848H288.081ZM307.345 649.953V653.125H309.177V654.014H307.345V657.254H306.278V649.953H307.345ZM297.856 656.393C300.789 655.545 302.662 653.856 302.881 651.744H298.39V650.855H304.036C304.029 653.952 301.849 656.222 298.308 657.268L297.856 656.393ZM299.524 659.729C299.518 658.272 301.083 657.384 303.503 657.391C305.943 657.384 307.481 658.272 307.481 659.729C307.481 661.205 305.943 662.08 303.503 662.08C301.083 662.08 299.518 661.205 299.524 659.729ZM300.591 659.729C300.577 660.645 301.719 661.226 303.503 661.219C305.287 661.226 306.442 660.645 306.442 659.729C306.442 658.812 305.287 658.245 303.503 658.252C301.719 658.245 300.577 658.812 300.591 659.729ZM316.218 650.746C316.211 653.795 314.03 655.982 310.53 656.98L310.079 656.133C312.984 655.312 314.844 653.699 315.076 651.635H310.708V650.746H316.218ZM312.13 661.943V657.418H320.019V661.943H312.13ZM313.169 661.068H318.952V658.279H313.169V661.068ZM316.245 654V653.098H318.938V649.967H320.019V656.898H318.938V654H316.245ZM326.417 652.564C326.424 654.205 327.716 655.682 329.534 656.256L328.987 657.117C327.572 656.632 326.451 655.634 325.897 654.355C325.371 655.736 324.229 656.83 322.78 657.363L322.22 656.502C324.045 655.866 325.33 654.287 325.337 652.564V651.854H322.493V650.979H329.22V651.854H326.417V652.564ZM324.229 661.848V658.033H325.296V660.945H332.46V661.848H324.229ZM331.011 658.881V649.967H332.077V658.881H331.011ZM344.218 649.953V656.174H343.138V654.902H339.897V654.055H343.138V652.592H340.075C339.316 654.506 337.43 655.798 334.729 656.447L334.347 655.559C337.327 654.868 339.057 653.419 339.262 651.457H334.962V650.568H340.444C340.444 650.972 340.403 651.361 340.328 651.73H343.138V649.953H344.218ZM336.343 657.596V656.721H344.218V659.688H337.437V661.109H344.628V661.998H336.37V658.867H343.138V657.596H336.343ZM352.981 651.307V651.936C352.975 652.899 352.975 654.506 352.626 656.762L351.546 656.666C351.881 654.629 351.908 653.152 351.901 652.182H346.802V651.307H352.981ZM346.118 658.539C346.918 658.532 347.807 658.525 348.743 658.505V654.779H349.796V658.471C351.143 658.423 352.523 658.334 353.788 658.184L353.843 658.99C351.286 659.387 348.429 659.441 346.255 659.428L346.118 658.539ZM354.554 662.107V649.953H355.62V655.039H357.589V655.969H355.62V662.107H354.554ZM372.983 659.646V660.549H361.854V659.646H366.872V656.693H367.952V659.646H372.983ZM362.401 656.256C364.459 655.907 366.845 654.205 366.845 652.264V651.963H362.771V651.061H372.026V651.963H367.952V652.264C367.959 654.205 370.352 655.873 372.45 656.215L372.013 657.062C370.153 656.693 368.191 655.511 367.412 653.829C366.633 655.531 364.678 656.741 362.853 657.117L362.401 656.256ZM383.921 649.953V662.107H382.854V649.953H383.921ZM374.022 658.867C375.062 658.86 376.251 658.854 377.481 658.812V657.486C376.019 657.336 375.075 656.502 375.089 655.285C375.075 653.911 376.244 653.022 378.001 653.029C379.758 653.022 380.947 653.911 380.94 655.285C380.947 656.488 380.004 657.322 378.562 657.486V658.771C379.737 658.717 380.927 658.635 382.048 658.484L382.13 659.305C379.416 659.742 376.442 659.783 374.187 659.783L374.022 658.867ZM374.282 652.332V651.457H377.481V649.967H378.562V651.457H381.733V652.332H374.282ZM376.087 655.285C376.08 656.126 376.873 656.68 378.001 656.666C379.136 656.68 379.922 656.126 379.915 655.285C379.922 654.438 379.136 653.863 378.001 653.863C376.873 653.863 376.08 654.438 376.087 655.285Z" fill="#222222"/>
<rect x="34" y="698" width="187" height="68" rx="8" fill="#F5F5F5"/>
<path d="M56.9531 726.746C56.9463 729.795 54.7656 731.982 51.2656 732.98L50.8145 732.133C53.7197 731.312 55.5791 729.699 55.8115 727.635H51.4434V726.746H56.9531ZM52.8652 737.943V733.418H60.7539V737.943H52.8652ZM53.9043 737.068H59.6875V734.279H53.9043V737.068ZM56.9805 730V729.098H59.6738V725.967H60.7539V732.898H59.6738V730H56.9805ZM67.1523 728.564C67.1592 730.205 68.4512 731.682 70.2695 732.256L69.7227 733.117C68.3076 732.632 67.1865 731.634 66.6328 730.355C66.1064 731.736 64.9648 732.83 63.5156 733.363L62.9551 732.502C64.7803 731.866 66.0654 730.287 66.0723 728.564V727.854H63.2285V726.979H69.9551V727.854H67.1523V728.564ZM64.9648 737.848V734.033H66.0312V736.945H73.1953V737.848H64.9648ZM71.7461 734.881V725.967H72.8125V734.881H71.7461ZM84.9258 725.953V738.107H83.8457V725.953H84.9258ZM75.0273 734.949C78.3154 733.391 79.9971 731.06 80.2363 728.154H75.5879V727.279H81.3301C81.3164 730.772 79.6895 733.869 75.6152 735.824L75.0273 734.949ZM93.7168 726.896V727.539C93.71 728.339 93.71 729.549 93.4023 731.135L92.3223 731.053C92.6162 729.604 92.6436 728.571 92.6572 727.799H87.6602V726.896H93.7168ZM86.9082 732.27C87.6943 732.27 88.583 732.263 89.5195 732.235V729.59H90.5859V732.201C91.9326 732.146 93.3271 732.051 94.5918 731.873L94.6602 732.666C92.1104 733.104 89.1846 733.151 87.0176 733.158L86.9082 732.27ZM88.7812 737.848V734.279H89.8613V736.945H96.9023V737.848H88.7812ZM95.4121 735.1V725.953H96.5059V729.918H98.2832V730.834H96.5059V735.1H95.4121ZM103.055 726.637L99.8555 738.49H98.7891L101.975 726.637H103.055ZM105.434 726.705V728.66H108.824V726.705H109.877V727.949H112.748V725.953H113.828V733.322H112.748V731.34H109.877V732.42H104.367V726.705H105.434ZM105.434 731.545H108.824V729.521H105.434V731.545ZM105.721 735.838C105.714 734.389 107.266 733.568 109.795 733.555C112.317 733.568 113.869 734.389 113.869 735.838C113.869 737.26 112.317 738.08 109.795 738.08C107.266 738.08 105.714 737.26 105.721 735.838ZM106.787 735.838C106.78 736.713 107.929 737.232 109.795 737.232C111.654 737.232 112.803 736.713 112.803 735.838C112.803 734.929 111.654 734.409 109.795 734.402C107.929 734.409 106.78 734.929 106.787 735.838ZM109.877 730.451H112.748V728.824H109.877V730.451ZM116.604 733.227C116.617 730.649 117.314 728.503 118.572 726.678H119.611C118.688 728.024 117.827 730.793 117.82 733.227C117.827 735.667 118.688 738.429 119.611 739.789H118.572C117.314 737.957 116.617 735.811 116.604 733.227ZM124.602 726.842C126.509 726.849 127.862 728.011 127.869 729.699C127.862 731.395 126.509 732.55 124.602 732.557C122.681 732.55 121.313 731.395 121.32 729.699C121.313 728.011 122.681 726.849 124.602 726.842ZM120.691 734.539C122.934 734.546 126.03 734.525 128.717 734.129L128.799 734.922C126.017 735.441 123.029 735.455 120.842 735.455L120.691 734.539ZM122.373 729.699C122.366 730.834 123.303 731.613 124.602 731.613C125.887 731.613 126.823 730.834 126.816 729.699C126.823 728.571 125.887 727.785 124.602 727.785C123.303 727.785 122.366 728.571 122.373 729.699ZM129.523 738.135V725.953H130.59V738.135H129.523ZM135.758 733.227C135.744 735.811 135.047 737.957 133.789 739.789H132.75C133.673 738.429 134.534 735.667 134.541 733.227C134.534 730.793 133.673 728.024 132.75 726.678H133.789C135.047 728.503 135.744 730.649 135.758 733.227ZM147.516 725.967V735.195H146.436V733.938H143.92V733.158H146.436V725.967H147.516ZM137.426 731.6C139.688 731.586 142.737 731.565 145.342 731.244L145.41 732.023C144.33 732.194 143.188 732.304 142.074 732.372V734.771H140.994V732.427C139.764 732.475 138.595 732.475 137.576 732.475L137.426 731.6ZM138.41 728.578C138.403 727.3 139.62 726.459 141.418 726.459C143.202 726.459 144.419 727.3 144.426 728.578C144.419 729.877 143.202 730.684 141.418 730.684C139.62 730.684 138.403 729.877 138.41 728.578ZM139.176 737.848V734.293H140.256V736.945H147.816V737.848H139.176ZM139.436 728.578C139.422 729.371 140.229 729.884 141.418 729.891C142.573 729.884 143.394 729.371 143.4 728.578C143.394 727.799 142.573 727.266 141.418 727.279C140.229 727.266 139.422 727.799 139.436 728.578ZM157.25 728.496C157.257 729.952 158.474 731.285 160.271 731.818L159.766 732.639C158.364 732.215 157.277 731.312 156.737 730.157C156.211 731.429 155.083 732.413 153.641 732.885L153.107 732.037C154.919 731.49 156.19 730.096 156.197 728.496V728.264H153.449V727.375H156.197V725.898H157.277V727.375H159.998V728.264H157.25V728.496ZM154.338 737.232C156.293 736.918 158.07 735.852 158.248 734.553H154.816V733.678H162.828V734.553H159.383C159.554 735.824 161.345 736.918 163.293 737.232L162.896 738.066C161.119 737.772 159.506 736.891 158.809 735.674C158.118 736.884 156.512 737.752 154.748 738.053L154.338 737.232ZM161.543 733.021V725.953H162.609V728.961H164.441V729.863H162.609V733.021H161.543ZM175.256 725.953V738.107H174.176V725.953H175.256ZM165.357 734.949C168.646 733.391 170.327 731.06 170.566 728.154H165.918V727.279H171.66C171.646 730.772 170.02 733.869 165.945 735.824L165.357 734.949Z" fill="#222222"/>
<rect x="229" y="698" width="187" height="68" rx="8" fill="#F5F5F5"/>
<path d="M249.336 726.691C250.361 726.685 251.229 727.074 251.797 727.717H254.982V725.953H256.062V733.158H254.982V731.422H251.797C251.236 732.064 250.361 732.454 249.336 732.447C247.518 732.454 246.171 731.265 246.178 729.576C246.171 727.874 247.518 726.685 249.336 726.691ZM247.203 729.576C247.203 730.704 248.092 731.538 249.336 731.531C250.539 731.538 251.441 730.704 251.441 729.576C251.441 728.421 250.539 727.614 249.336 727.621C248.092 727.614 247.203 728.421 247.203 729.576ZM247.955 735.756C247.948 734.293 249.507 733.445 252.029 733.445C254.545 733.445 256.104 734.293 256.104 735.756C256.104 737.232 254.545 738.08 252.029 738.08C249.507 738.08 247.948 737.232 247.955 735.756ZM249.008 735.756C249.001 736.672 250.163 737.226 252.029 737.219C253.896 737.226 255.058 736.672 255.051 735.756C255.058 734.833 253.896 734.286 252.029 734.279C250.163 734.286 249.001 734.833 249.008 735.756ZM252.31 728.592C252.419 728.893 252.48 729.221 252.48 729.576C252.48 729.918 252.419 730.239 252.316 730.533H254.982V728.592H252.31ZM269.201 732.885V733.773H266.262V738.107H265.182V733.773H262.064V738.107H260.957V733.773H258.072V732.885H269.201ZM259.33 729.098C259.337 727.478 261.053 726.452 263.609 726.445C266.159 726.452 267.889 727.478 267.889 729.098C267.889 730.718 266.159 731.729 263.609 731.723C261.053 731.729 259.337 730.718 259.33 729.098ZM260.438 729.098C260.424 730.171 261.716 730.861 263.609 730.861C265.503 730.861 266.788 730.171 266.795 729.098C266.788 728.018 265.503 727.32 263.609 727.32C261.716 727.32 260.424 728.018 260.438 729.098ZM273.439 726.896C275.23 726.903 276.502 728.551 276.516 731.135C276.502 733.726 275.23 735.366 273.439 735.359C271.635 735.366 270.37 733.726 270.377 731.135C270.37 728.551 271.635 726.903 273.439 726.896ZM271.389 731.135C271.396 733.11 272.236 734.409 273.439 734.402C274.656 734.409 275.477 733.11 275.477 731.135C275.477 729.159 274.656 727.86 273.439 727.854C272.236 727.86 271.396 729.159 271.389 731.135ZM278.525 738.107V725.953H279.592V730.807H281.629V731.736H279.592V738.107H278.525ZM291.896 727.088C291.903 728.804 294.132 730.28 296.326 730.588L295.889 731.463C294.002 731.148 292.129 730.103 291.35 728.612C290.57 730.116 288.704 731.148 286.811 731.463L286.373 730.588C288.567 730.28 290.789 728.831 290.789 727.088V726.391H291.896V727.088ZM285.799 733.705V732.803H296.873V733.705H291.842V738.107H290.789V733.705H285.799ZM302.041 728.414C302.048 729.911 303.354 731.189 305.158 731.682L304.666 732.529C303.23 732.119 302.089 731.237 301.535 730.068C301.009 731.347 299.874 732.317 298.418 732.762L297.898 731.914C299.71 731.374 300.981 730 300.988 728.414V728.195H298.24V727.334H300.988V725.898H302.068V727.334H304.789V728.195H302.041V728.414ZM300.141 737.943V733.24H301.221V734.703H306.895V733.24H307.961V737.943H300.141ZM301.221 737.068H306.895V735.564H301.221V737.068ZM304.434 730.109V729.221H306.895V725.953H307.961V732.68H306.895V730.109H304.434Z" fill="#222222"/>
<path d="M203.536 799.115V800.018H199.038V806.211C201.232 806.218 202.675 806.143 204.356 805.814L204.493 806.703C202.702 807.045 201.219 807.127 198.888 807.127H197.958V799.115H203.536ZM202.812 803.271V802.383H206.353V797.953H207.433V810.135H206.353V803.271H202.812ZM220.571 807.66V808.549H209.442V807.66H214.446V805.035H210.755V798.814H211.835V801.016H218.151V798.814H219.204V805.035H215.499V807.66H220.571ZM211.835 804.16H218.151V801.891H211.835V804.16ZM231.591 797.953V810.107H230.511V797.953H231.591ZM221.692 806.949C224.98 805.391 226.662 803.06 226.901 800.154H222.253V799.279H227.995C227.981 802.772 226.354 805.869 222.28 807.824L221.692 806.949Z" fill="#999999"/>
<mask id="mask2_233_4415" style="mask-type:alpha" maskUnits="userSpaceOnUse" x="233" y="794" width="21" height="20">
<rect x="233.5" y="794" width="20" height="20" fill="#D9D9D9"/>
</mask>
<g mask="url(#mask2_233_4415)">
<path d="M244.664 804L241.102 800.439C240.987 800.324 240.928 800.196 240.925 800.056C240.923 799.916 240.982 799.786 241.102 799.665C241.223 799.544 241.352 799.484 241.49 799.484C241.627 799.484 241.758 799.547 241.884 799.672L245.747 803.535C245.811 803.605 245.859 803.678 245.891 803.755C245.923 803.832 245.939 803.915 245.939 804.004C245.939 804.093 245.923 804.176 245.891 804.253C245.859 804.33 245.811 804.401 245.747 804.465L241.884 808.328C241.764 808.448 241.637 808.506 241.504 808.502C241.371 808.497 241.244 808.435 241.123 808.314C241.003 808.193 240.942 808.064 240.942 807.927C240.942 807.79 241.003 807.661 241.123 807.54L244.664 804Z" fill="#999999"/>
</g>
</g>
</g>
<defs>
<filter id="filter0_d_233_4415" x="-8" y="-6" width="466" height="116" filterUnits="userSpaceOnUse" color-interpolation-filters="sRGB">
<feFlood flood-opacity="0" result="BackgroundImageFix"/>
<feColorMatrix in="SourceAlpha" type="matrix" values="0 0 0 0 0 0 0 0 0 0 0 0 0 0 0 0 0 0 127 0" result="hardAlpha"/>
<feOffset dy="2"/>
<feGaussianBlur stdDeviation="4"/>
<feComposite in2="hardAlpha" operator="out"/>
<feColorMatrix type="matrix" values="0 0 0 0 0 0 0 0 0 0 0 0 0 0 0 0 0 0 0.08 0"/>
<feBlend mode="normal" in2="BackgroundImageFix" result="effect1_dropShadow_233_4415"/>
<feBlend mode="normal" in="SourceGraphic" in2="effect1_dropShadow_233_4415" result="shape"/>
</filter>
<filter id="filter1_d_233_4415" x="8" y="120" width="434" height="131" filterUnits="userSpaceOnUse" color-interpolation-filters="sRGB">
<feFlood flood-opacity="0" result="BackgroundImageFix"/>
<feColorMatrix in="SourceAlpha" type="matrix" values="0 0 0 0 0 0 0 0 0 0 0 0 0 0 0 0 0 0 127 0" result="hardAlpha"/>
<feOffset dy="2"/>
<feGaussianBlur stdDeviation="4"/>
<feComposite in2="hardAlpha" operator="out"/>
<feColorMatrix type="matrix" values="0 0 0 0 0 0 0 0 0 0 0 0 0 0 0 0 0 0 0.08 0"/>
<feBlend mode="normal" in2="BackgroundImageFix" result="effect1_dropShadow_233_4415"/>
<feBlend mode="normal" in="SourceGraphic" in2="effect1_dropShadow_233_4415" result="shape"/>
</filter>
<filter id="filter2_d_233_4415" x="8" y="255" width="434" height="137" filterUnits="userSpaceOnUse" color-interpolation-filters="sRGB">
<feFlood flood-opacity="0" result="BackgroundImageFix"/>
<feColorMatrix in="SourceAlpha" type="matrix" values="0 0 0 0 0 0 0 0 0 0 0 0 0 0 0 0 0 0 127 0" result="hardAlpha"/>
<feOffset dy="2"/>
<feGaussianBlur stdDeviation="4"/>
<feComposite in2="hardAlpha" operator="out"/>
<feColorMatrix type="matrix" values="0 0 0 0 0 0 0 0 0 0 0 0 0 0 0 0 0 0 0.08 0"/>
<feBlend mode="normal" in2="BackgroundImageFix" result="effect1_dropShadow_233_4415"/>
<feBlend mode="normal" in="SourceGraphic" in2="effect1_dropShadow_233_4415" result="shape"/>
</filter>
<filter id="filter3_d_233_4415" x="8" y="444" width="434" height="400" filterUnits="userSpaceOnUse" color-interpolation-filters="sRGB">
<feFlood flood-opacity="0" result="BackgroundImageFix"/>
<feColorMatrix in="SourceAlpha" type="matrix" values="0 0 0 0 0 0 0 0 0 0 0 0 0 0 0 0 0 0 127 0" result="hardAlpha"/>
<feOffset dy="2"/>
<feGaussianBlur stdDeviation="4"/>
<feComposite in2="hardAlpha" operator="out"/>
<feColorMatrix type="matrix" values="0 0 0 0 0 0 0 0 0 0 0 0 0 0 0 0 0 0 0.08 0"/>
<feBlend mode="normal" in2="BackgroundImageFix" result="effect1_dropShadow_233_4415"/>
<feBlend mode="normal" in="SourceGraphic" in2="effect1_dropShadow_233_4415" result="shape"/>
</filter>
<clipPath id="clip0_233_4415">
<rect width="450" height="851" fill="white"/>
</clipPath>
<clipPath id="clip1_233_4415">
<rect width="24" height="24" fill="white" transform="translate(16 16)"/>
</clipPath>
<clipPath id="clip2_233_4415">
<rect width="36" height="36" fill="white" transform="translate(34 165.5)"/>
</clipPath>
</defs>
</svg>
