<svg width="400" height="312" viewBox="0 0 400 312" fill="none" xmlns="http://www.w3.org/2000/svg">
<rect width="400" height="312" fill="white"/>
<path d="M66.652 47.293C62.1842 47.293 59.1081 44.8174 59.1227 41.375C59.1081 38.6357 61.0124 36.3652 63.4294 35.9844V35.8672C61.32 35.3838 59.9284 33.4355 59.943 31.1211C59.9284 27.8838 62.7702 25.4961 66.652 25.4961C70.5192 25.4961 73.361 27.8838 73.3903 31.1211C73.361 33.4355 71.9548 35.3838 69.8747 35.8672V35.9844C72.277 36.3652 74.1813 38.6357 74.2106 41.375C74.1813 44.8174 71.0758 47.293 66.652 47.293ZM61.7594 41.2285C61.7155 43.4551 63.6051 44.9639 66.652 44.9785C69.6842 44.9639 71.5739 43.4551 71.5739 41.2285C71.5739 38.8848 69.5085 37.1562 66.652 37.1562C63.8102 37.1562 61.7155 38.8848 61.7594 41.2285ZM62.4919 31.3262C62.5065 33.4648 64.2204 34.915 66.652 34.9297C69.069 34.915 70.8122 33.4648 70.8122 31.3262C70.8122 29.2021 69.1276 27.7666 66.652 27.7812C64.1325 27.7666 62.5065 29.2021 62.4919 31.3262Z" fill="#222222"/>
<path d="M199.854 25.4961C203.501 25.54 207.559 27.7373 207.559 35.5449C207.559 43.0889 204.468 47.293 199.502 47.293C195.767 47.293 193.145 45.0078 192.617 41.6387H195.225C195.694 43.543 197.144 44.9492 199.502 44.9492C202.959 44.9492 205.069 41.9609 205.098 36.8047H204.805C203.589 38.5625 201.641 39.6172 199.385 39.6172C195.591 39.6172 192.442 36.7021 192.442 32.6152C192.442 28.6602 195.342 25.4521 199.854 25.4961ZM195.02 32.5859C195.005 35.208 196.997 37.3027 199.766 37.3027C202.534 37.3027 204.688 35.0176 204.688 32.5273C204.688 30.0957 202.652 27.8105 199.854 27.8105C197.085 27.8105 194.99 29.9639 195.02 32.5859Z" fill="#222222"/>
<path d="M333.392 47.293C329.173 47.293 326.141 45.0371 326.009 41.668H328.675C328.821 43.6895 330.828 44.9492 333.362 44.9492C336.16 44.9492 338.182 43.4404 338.196 41.2285C338.182 38.9141 336.336 37.2881 333.04 37.2734H331.312V34.959H333.04C335.618 34.959 337.42 33.5088 337.405 31.3262C337.42 29.2021 335.867 27.7959 333.45 27.7812C331.18 27.7959 329.114 29.041 328.997 31.1211H326.448C326.58 27.752 329.715 25.4961 333.48 25.4961C337.523 25.4961 339.984 28.1475 339.954 31.1797C339.984 33.5967 338.577 35.3545 336.351 35.9844V36.1309C339.119 36.5557 340.789 38.5332 340.775 41.2285C340.789 44.7148 337.625 47.293 333.392 47.293Z" fill="#222222"/>
<path d="M59.8551 120L59.8258 118.066L67.0622 110.449C69.5671 107.783 70.7682 106.348 70.7829 104.385C70.7682 102.202 68.9518 100.796 66.5641 100.781C64.0299 100.796 62.4479 102.393 62.4333 104.766H59.943C59.9137 101.016 62.8141 98.4961 66.652 98.4961C70.5046 98.4961 73.2292 101.089 73.2438 104.385C73.2292 106.758 72.1305 108.604 68.3805 112.471L63.5173 117.48V117.656H73.6247V120H59.8551Z" fill="#222222"/>
<path d="M200.176 120.293C196.499 120.249 192.442 118.066 192.442 110.215C192.442 102.7 195.518 98.4961 200.498 98.4961C204.234 98.4961 206.841 100.796 207.383 104.121H204.776C204.292 102.246 202.857 100.84 200.498 100.84C197.012 100.84 194.917 103.813 194.932 108.926H195.195C196.411 107.153 198.36 106.113 200.645 106.113C204.409 106.113 207.559 109.043 207.559 113.145C207.559 117.144 204.644 120.337 200.176 120.293ZM195.283 113.203C195.298 115.693 197.334 117.964 200.176 117.979C202.915 117.964 204.995 115.811 205.01 113.174C204.995 110.566 203.003 108.442 200.235 108.428C197.451 108.442 195.313 110.698 195.283 113.203Z" fill="#222222"/>
<path d="M336.248 98.7891V120H333.582V101.543H333.465L328.309 104.971V102.305L333.582 98.7891H336.248Z" fill="#222222"/>
<path d="M58.7712 188.664V186.496L68.3219 171.789H71.5739V186.35H74.5329V188.664H71.5739V193H69.0544V188.664H58.7712ZM61.613 186.35H69.0544V175.129H68.7907L61.613 186.174V186.35Z" fill="#222222"/>
<path d="M194.39 193L204.116 174.279V174.133H192.896V171.789H206.841V174.25L197.144 193H194.39Z" fill="#222222"/>
<path d="M333.289 193.293C329.466 193.293 326.566 190.935 326.404 187.668H328.953C329.144 189.558 330.989 190.964 333.289 190.979C336.043 190.964 338.035 188.957 338.035 186.291C338.035 183.537 335.97 181.501 333.113 181.486C331.326 181.457 329.935 182.014 329.158 183.391H326.61L328.104 171.789H339.588V174.133H330.301L329.51 180.344H329.715C330.667 179.611 332.088 179.113 333.582 179.113C337.625 179.113 340.599 182.102 340.613 186.232C340.599 190.334 337.523 193.293 333.289 193.293Z" fill="#222222"/>
<path d="M58.4245 248.875V262.766H57.237V255.547H55.3464V262.062H54.1745V249.172H55.3464V254.5H57.237V248.875H58.4245ZM46.3464 258.953C48.3464 257.852 49.4167 255.492 49.4089 252.672V251.562H46.6745V250.531H53.1745V251.562H50.5964V252.672C50.5964 255.211 51.651 257.453 53.6276 258.469L52.8932 259.422C51.4948 258.656 50.526 257.289 50.0339 255.594C49.5573 257.523 48.5729 259.039 47.112 259.891L46.3464 258.953ZM62.0026 250.203V253.594H65.0182V250.203H66.1589V259.297H60.8307V250.203H62.0026ZM62.0026 258.281H65.0182V254.594H62.0026V258.281ZM67.9245 262.062V249.172H69.0964V254.391H71.0339V248.875H72.2214V262.766H71.0339V255.406H69.0964V262.062H67.9245ZM77.9714 249.375C79.1979 249.367 80.2292 249.82 80.8698 250.578H84.4245V248.875H85.6432V256.016H84.4245V254.422H80.901C80.2682 255.211 79.2214 255.68 77.9714 255.672C75.8776 255.68 74.3542 254.398 74.362 252.516C74.3542 250.648 75.8776 249.367 77.9714 249.375ZM75.5339 252.516C75.5339 253.773 76.5495 254.672 77.9714 254.688C79.3464 254.672 80.3776 253.773 80.3776 252.516C80.3776 251.266 79.3464 250.375 77.9714 250.391C76.5495 250.375 75.5339 251.266 75.5339 252.516ZM76.6432 257.703V256.719H85.6432V260.047H77.8932V261.594H86.1745V262.578H76.6745V259.109H84.4245V257.703H76.6432ZM81.4167 251.562C81.5104 251.859 81.5651 252.18 81.5651 252.516C81.5651 252.844 81.5182 253.148 81.4245 253.438H84.4245V251.562H81.4167Z" fill="#222222"/>
<path d="M200 266.293C195.298 266.293 192.573 262.338 192.588 255.395C192.573 248.51 195.327 244.496 200 244.496C204.658 244.496 207.412 248.51 207.412 255.395C207.412 262.338 204.702 266.293 200 266.293ZM195.137 255.395C195.152 260.888 196.924 263.949 200 263.949C203.062 263.949 204.849 260.888 204.834 255.395C204.849 249.901 203.047 246.796 200 246.781C196.953 246.796 195.152 249.901 195.137 255.395Z" fill="#222222"/>
<mask id="mask0_506_8027" style="mask-type:alpha" maskUnits="userSpaceOnUse" x="313" y="235" width="41" height="41">
<rect x="313.333" y="235.5" width="40" height="40" fill="#D9D9D9"/>
</mask>
<g mask="url(#mask0_506_8027)">
<path d="M328.974 265.5C328.376 265.5 327.812 265.364 327.283 265.093C326.754 264.822 326.316 264.442 325.967 263.955L321.118 257.064C320.787 256.588 320.621 256.066 320.621 255.5C320.621 254.934 320.787 254.413 321.118 253.936L325.967 247.109C326.316 246.622 326.749 246.232 327.267 245.939C327.785 245.646 328.354 245.5 328.974 245.5H343.974C344.719 245.5 345.355 245.762 345.879 246.287C346.404 246.811 346.666 247.447 346.666 248.192V262.808C346.666 263.553 346.404 264.189 345.879 264.713C345.355 265.238 344.719 265.5 343.974 265.5H328.974ZM328.974 263.833H343.974C344.23 263.833 344.465 263.727 344.679 263.513C344.893 263.299 344.999 263.064 344.999 262.808V248.192C344.999 247.936 344.893 247.701 344.679 247.487C344.465 247.273 344.23 247.167 343.974 247.167H328.974C328.653 247.167 328.349 247.247 328.06 247.407C327.772 247.567 327.542 247.765 327.371 248L322.448 254.891C322.32 255.062 322.256 255.265 322.256 255.5C322.256 255.735 322.32 255.938 322.448 256.109L327.371 263C327.542 263.235 327.772 263.433 328.06 263.593C328.349 263.753 328.653 263.833 328.974 263.833ZM336.089 256.68L339.833 260.423C339.989 260.579 340.18 260.662 340.407 260.673C340.633 260.684 340.835 260.6 341.012 260.423C341.19 260.246 341.278 260.049 341.278 259.833C341.278 259.618 341.19 259.421 341.012 259.244L337.269 255.5L341.012 251.756C341.168 251.6 341.252 251.409 341.262 251.182C341.273 250.956 341.19 250.754 341.012 250.577C340.835 250.4 340.638 250.311 340.422 250.311C340.207 250.311 340.01 250.4 339.833 250.577L336.089 254.32L332.346 250.577C332.19 250.421 331.998 250.338 331.772 250.327C331.545 250.316 331.343 250.4 331.166 250.577C330.989 250.754 330.9 250.951 330.9 251.167C330.9 251.383 330.989 251.579 331.166 251.756L334.91 255.5L331.166 259.244C331.01 259.4 330.927 259.591 330.916 259.817C330.906 260.044 330.989 260.246 331.166 260.423C331.343 260.6 331.54 260.689 331.756 260.689C331.972 260.689 332.168 260.6 332.346 260.423L336.089 256.68Z" fill="#797378"/>
</g>
</svg>
