<svg width="400" height="415" viewBox="0 0 400 415" fill="none" xmlns="http://www.w3.org/2000/svg">
<path d="M113.28 147.613L119.115 161.861H119.331L125.158 147.613H128.56V166H125.894V152.731H125.723L120.318 165.973H118.11L112.705 152.704H112.553V166H109.877V147.613H113.28ZM133.752 171.171C133.141 171.171 132.656 171.153 132.297 171.117L132.315 168.846C132.584 168.87 132.988 168.882 133.527 168.882C133.874 168.882 134.162 168.849 134.389 168.783C134.616 168.717 134.844 168.553 135.071 168.289C135.299 168.032 135.511 167.631 135.709 167.086L136.05 166.189L130.995 152.21H133.895L137.37 162.903H137.513L141.006 152.21H143.906L138.223 167.831C137.816 168.945 137.247 169.78 136.517 170.336C135.792 170.893 134.871 171.171 133.752 171.171ZM170.507 168.2H168.083V145.405H170.507V168.2ZM152.919 147.299H155.325V153.144H161.466V147.299H163.845V162.759H152.919V147.299ZM161.466 160.766V155.056H155.325V160.766H161.466ZM186.136 156.008H175.309V146.626H186.136V156.008ZM183.757 154.113V148.574H177.679V154.113H183.757ZM178.047 158.144H192.969V163.809H180.462V166H193.714V167.939H178.074V162.059H190.616V160.039H178.047V158.144ZM190.589 145.405H192.969V157.058H190.589V145.405ZM215.565 162.238H213.159V153.673H208.185V158.45H197.681V146.922H200.096V150.782H205.797V146.922H208.185V151.707H213.159V145.423H215.565V162.238ZM205.797 156.51V152.65H200.096V156.51H205.797ZM200.707 160.586H203.14V165.713H216.077V167.688H200.707V160.586ZM238.781 150.567H220.053V148.601H228.241V145.737H230.611V148.601H238.781V150.567ZM219.074 163.63H228.241V160.64C226.912 160.556 225.766 160.329 224.802 159.958C223.839 159.587 223.102 159.09 222.594 158.468C222.085 157.839 221.834 157.106 221.84 156.268C221.834 155.364 222.136 154.586 222.746 153.934C223.357 153.281 224.231 152.785 225.368 152.443C226.511 152.102 227.861 151.932 229.417 151.932C230.961 151.932 232.302 152.105 233.439 152.452C234.582 152.794 235.462 153.29 236.079 153.943C236.695 154.595 237.003 155.37 237.003 156.268C237.003 157.1 236.746 157.83 236.231 158.459C235.716 159.081 234.98 159.578 234.023 159.949C233.065 160.32 231.928 160.55 230.611 160.64V163.63H239.894V165.605H219.074V163.63ZM224.291 156.268C224.291 156.795 224.491 157.244 224.892 157.615C225.293 157.98 225.877 158.258 226.643 158.45C227.415 158.635 228.34 158.731 229.417 158.737C230.488 158.731 231.404 158.635 232.164 158.45C232.93 158.258 233.517 157.98 233.924 157.615C234.337 157.244 234.543 156.795 234.543 156.268C234.543 155.747 234.337 155.307 233.924 154.948C233.517 154.583 232.93 154.308 232.164 154.122C231.398 153.931 230.482 153.835 229.417 153.835C228.34 153.835 227.418 153.931 226.652 154.122C225.886 154.308 225.299 154.583 224.892 154.948C224.491 155.307 224.291 155.747 224.291 156.268ZM266.764 157.615H264.349V145.405H266.764V157.615ZM248.351 151.743C248.351 150.714 248.611 149.798 249.132 148.996C249.658 148.188 250.38 147.562 251.295 147.119C252.217 146.671 253.256 146.449 254.411 146.455C255.56 146.449 256.592 146.671 257.508 147.119C258.43 147.562 259.151 148.188 259.672 148.996C260.192 149.798 260.453 150.714 260.453 151.743C260.453 152.761 260.192 153.67 259.672 154.472C259.151 155.268 258.43 155.888 257.508 156.331C256.592 156.774 255.56 156.995 254.411 156.995C253.256 156.995 252.217 156.774 251.295 156.331C250.38 155.888 249.658 155.268 249.132 154.472C248.611 153.67 248.351 152.761 248.351 151.743ZM250.712 151.743C250.706 152.384 250.858 152.952 251.17 153.449C251.487 153.94 251.927 154.323 252.489 154.598C253.052 154.873 253.692 155.011 254.411 155.011C255.117 155.011 255.748 154.873 256.305 154.598C256.868 154.323 257.305 153.94 257.616 153.449C257.933 152.952 258.092 152.384 258.092 151.743C258.092 151.103 257.933 150.534 257.616 150.037C257.305 149.541 256.868 149.157 256.305 148.888C255.748 148.613 255.117 148.478 254.411 148.484C253.692 148.478 253.052 148.613 252.489 148.888C251.927 149.157 251.487 149.541 251.17 150.037C250.858 150.534 250.706 151.103 250.712 151.743ZM251.87 158.719H254.231V161.269H264.367V158.719H266.764V167.867H251.87V158.719ZM264.367 165.901V163.172H254.231V165.901H264.367ZM281.191 153.404H273.694V156.564C275.795 156.558 277.459 156.519 278.686 156.448C279.913 156.37 281.137 156.217 282.358 155.99L282.591 157.956C281.275 158.177 279.946 158.324 278.605 158.396C277.264 158.462 275.379 158.497 272.949 158.503H271.306V151.573H278.794V148.7H271.261V146.778H281.191V153.404ZM273.874 160.568H289.325V168.182H286.919V162.517H273.874V160.568ZM282.636 153.476H286.919V150.666H282.636V148.735H286.919V145.423H289.325V159.41H286.919V155.424H282.636V153.476Z" fill="#222222"/>
<path d="M70.6016 191.391V201.547H69.3828V191.391H70.6016ZM59.4609 195.766C59.4531 193.766 61.0234 192.367 63.1016 192.359C65.1797 192.367 66.7344 193.766 66.7422 195.766C66.7344 197.789 65.1797 199.195 63.1016 199.188C61.0234 199.195 59.4531 197.789 59.4609 195.766ZM60.6641 195.766C60.6484 197.148 61.6953 198.109 63.1016 198.109C64.4844 198.109 65.5391 197.148 65.5391 195.766C65.5391 194.406 64.4844 193.438 63.1016 193.438C61.6953 193.438 60.6484 194.406 60.6641 195.766ZM61.6328 204.969V200.516H62.8516V203.938H71.0391V204.969H61.6328ZM85.6172 197.984V199H72.9609V197.984H85.6172ZM73.6797 196.172C76.1016 195.891 78.4375 194.695 78.4922 193.109H74.1172V192.094H84.4922V193.109H80.0859C80.1406 194.68 82.4531 195.891 84.9141 196.172L84.4609 197.156C82.1875 196.867 80.0547 195.844 79.2891 194.305C78.5234 195.844 76.4062 196.867 74.1172 197.156L73.6797 196.172ZM74.4922 202.734C74.4844 201.141 76.2891 200.219 79.2891 200.219C82.2656 200.219 84.0547 201.141 84.0703 202.734C84.0547 204.344 82.2656 205.234 79.2891 205.234C76.2891 205.234 74.4844 204.344 74.4922 202.734ZM75.7422 202.734C75.7266 203.703 77.0625 204.258 79.2891 204.25C81.4922 204.258 82.8281 203.703 82.8359 202.734C82.8281 201.758 81.4922 201.203 79.2891 201.188C77.0625 201.203 75.7266 201.758 75.7422 202.734ZM91.6797 195.109C91.6719 197.625 93.2891 200.156 95.3047 201.078L94.5703 202.078C92.9922 201.266 91.6875 199.609 91.0703 197.633C90.4531 199.711 89.1484 201.492 87.5703 202.328L86.7734 201.344C88.8125 200.344 90.4219 197.672 90.4297 195.109V192.578H91.6797V195.109ZM93.7891 197.125V196.125H97.0859V191.375H98.3047V205.297H97.0859V197.125H93.7891ZM109.523 195.109C109.516 197.625 111.133 200.156 113.148 201.078L112.414 202.078C110.836 201.266 109.531 199.609 108.914 197.633C108.297 199.711 106.992 201.492 105.414 202.328L104.617 201.344C106.656 200.344 108.266 197.672 108.273 195.109V192.578H109.523V195.109ZM111.633 197.125V196.125H114.93V191.375H116.148V205.297H114.93V197.125H111.633ZM129.977 191.375V199.609H128.742V197.422H125.492V198.609H119.117V192.438H125.492V193.641H128.742V191.375H129.977ZM120.336 197.609H124.289V193.438H120.336V197.609ZM120.711 202.641C120.703 200.969 122.477 200.008 125.367 200.016C128.25 200.008 130.023 200.969 130.023 202.641C130.023 204.297 128.25 205.234 125.367 205.234C122.477 205.234 120.703 204.297 120.711 202.641ZM121.93 202.641C121.922 203.648 123.234 204.266 125.367 204.266C127.492 204.266 128.805 203.648 128.805 202.641C128.805 201.594 127.492 200.984 125.367 200.969C123.234 200.984 121.922 201.594 121.93 202.641ZM125.492 196.391H128.742V194.656H125.492V196.391ZM138.617 191.625C141.703 191.625 143.516 192.477 143.523 194.016C143.516 195.594 141.703 196.445 138.617 196.453C135.516 196.445 133.695 195.594 133.695 194.016C133.695 192.477 135.516 191.625 138.617 191.625ZM132.289 198.391V197.391H144.945V198.391H132.289ZM133.82 200.531V199.594H143.32V202.703H135.07V204.141H143.742V205.109H133.852V201.797H142.117V200.531H133.82ZM134.977 194.016C134.961 194.984 136.312 195.516 138.617 195.516C140.922 195.516 142.266 194.984 142.273 194.016C142.266 193.102 140.922 192.555 138.617 192.547C136.312 192.555 134.961 193.102 134.977 194.016ZM154.711 192.062C156.789 192.047 158.281 193.195 158.273 194.891C158.281 196.586 156.789 197.742 154.711 197.734C152.633 197.742 151.148 196.586 151.148 194.891C151.148 193.195 152.633 192.047 154.711 192.062ZM150.102 198.922C152.711 198.93 156.281 198.875 159.367 198.422L159.445 199.344C158.117 199.586 156.742 199.734 155.398 199.82V204.844H154.18V199.891C152.766 199.953 151.43 199.961 150.273 199.969L150.102 198.922ZM152.352 194.891C152.336 195.977 153.328 196.727 154.711 196.719C156.109 196.727 157.109 195.977 157.102 194.891C157.109 193.812 156.109 193.047 154.711 193.062C153.328 193.047 152.336 193.812 152.352 194.891ZM160.383 205.281V191.391H161.586V205.281H160.383ZM170.898 193.781V194.781H163.93V193.781H166.82V191.797H168.039V193.781H170.898ZM164.43 198.875C164.43 197.031 165.688 195.727 167.414 195.719C169.164 195.727 170.414 197.031 170.43 198.875C170.414 200.742 169.164 202.055 167.414 202.062C165.688 202.055 164.43 200.742 164.43 198.875ZM165.523 198.875C165.523 200.109 166.312 200.992 167.414 200.984C168.523 200.992 169.336 200.109 169.336 198.875C169.336 197.656 168.523 196.766 167.414 196.75C166.312 196.766 165.523 197.656 165.523 198.875ZM171.617 204.578V191.719H172.773V197.234H174.617V191.375H175.789V205.266H174.617V198.25H172.773V204.578H171.617ZM193.258 191.375V205.297H192.023V191.375H193.258ZM182.617 201.938V192.562H183.836V196.234H187.977V192.562H189.18V201.938H182.617ZM183.836 200.906H187.977V197.219H183.836V200.906ZM202.883 192.156V197.812H196.367V192.156H202.883ZM197.57 196.844H201.68V193.156H197.57V196.844ZM198.07 200.219V199.234H207.086V202.547H199.305V204.109H207.586V205.109H198.086V201.641H205.883V200.219H198.07ZM205.883 198.547V191.375H207.086V198.547H205.883ZM220.977 191.391V201.672H219.742V196.328H216.461V199.297H210.164V192.312H211.383V194.781H215.258V192.312H216.461V195.297H219.742V191.391H220.977ZM211.383 198.281H215.258V195.75H211.383V198.281ZM211.992 204.969V200.656H213.227V203.938H221.289V204.969H211.992ZM235.289 193.438V194.453H223.914V193.438H229.008V191.609H230.211V193.438H235.289ZM223.289 203.641V202.625H229.008V200.672C226.531 200.539 225.039 199.578 225.055 198.016C225.039 196.367 226.781 195.391 229.617 195.406C232.414 195.391 234.188 196.367 234.18 198.016C234.188 199.578 232.664 200.539 230.211 200.672V202.625H236.008V203.641H223.289ZM226.289 198.016C226.273 199.07 227.547 199.68 229.617 199.688C231.664 199.68 232.938 199.07 232.93 198.016C232.938 196.984 231.664 196.375 229.617 196.375C227.547 196.375 226.273 196.984 226.289 198.016ZM249.82 197.828V198.797H237.102V197.828H249.82ZM238.633 200.828V199.906H248.227V202.859H239.883V204.188H248.68V205.078H238.648V202.016H247.008V200.828H238.633ZM238.711 192.688V191.797H248.18V194.672H239.977V195.891H248.43V196.781H238.758V193.828H246.945V192.688H238.711ZM266.43 191.375V198.828H265.211V191.375H266.43ZM255.289 195.25C255.281 193.352 256.82 192.047 258.93 192.062C261.039 192.047 262.562 193.352 262.57 195.25C262.562 197.141 261.039 198.445 258.93 198.438C256.82 198.445 255.281 197.141 255.289 195.25ZM256.492 195.25C256.477 196.516 257.5 197.414 258.93 197.422C260.344 197.414 261.367 196.516 261.367 195.25C261.367 193.977 260.344 193.086 258.93 193.094C257.5 193.086 256.477 193.977 256.492 195.25ZM257.43 205.078V199.531H258.648V201.219H265.211V199.531H266.43V205.078H257.43ZM258.648 204.078H265.211V202.203H258.648V204.078ZM275.383 192.234V196.125H270.602V198.281C273.211 198.289 274.562 198.234 276.195 197.938L276.32 198.953C274.594 199.234 273.18 199.281 270.367 199.281H269.383V195.188H274.164V193.219H269.352V192.234H275.383ZM270.945 201.672V200.672H280.305V205.297H279.07V201.672H270.945ZM276.305 197.344V196.328H279.07V194.453H276.305V193.453H279.07V191.391H280.305V199.922H279.07V197.344H276.305ZM289.555 193.781V194.781H282.586V193.781H285.477V191.797H286.695V193.781H289.555ZM283.086 198.875C283.086 197.031 284.344 195.727 286.07 195.719C287.82 195.727 289.07 197.031 289.086 198.875C289.07 200.742 287.82 202.055 286.07 202.062C284.344 202.055 283.086 200.742 283.086 198.875ZM284.18 198.875C284.18 200.109 284.969 200.992 286.07 200.984C287.18 200.992 287.992 200.109 287.992 198.875C287.992 197.656 287.18 196.766 286.07 196.75C284.969 196.766 284.18 197.656 284.18 198.875ZM290.273 204.578V191.719H291.43V197.234H293.273V191.375H294.445V205.266H293.273V198.25H291.43V204.578H290.273ZM303.461 193.344C303.453 195.203 305.93 196.781 308.352 197.141L307.898 198.109C305.734 197.742 303.617 196.586 302.773 194.914C301.93 196.586 299.812 197.742 297.68 198.109L297.195 197.141C299.609 196.781 302.078 195.203 302.086 193.344V193.25H297.633V192.25H307.898V193.25H303.461V193.344ZM296.445 200.312V199.297H309.102V200.312H303.352V205.266H302.148V200.312H296.445ZM314.398 195.328C314.398 197.539 315.477 199.922 317.32 201.016L316.617 201.969C315.273 201.156 314.312 199.672 313.828 197.977C313.32 199.828 312.289 201.422 310.898 202.266L310.117 201.344C312.039 200.219 313.211 197.758 313.211 195.375V192.688H314.398V195.328ZM315.789 197.406V196.359H318.148V191.672H319.305V204.562H318.148V197.406H315.789ZM320.992 205.266V191.375H322.18V205.266H320.992ZM336.82 202.453V203.484H324.102V202.453H327.258V198.711C326.07 198.094 325.352 197.094 325.352 195.828C325.352 193.68 327.461 192.266 330.43 192.25C333.398 192.266 335.508 193.68 335.508 195.828C335.508 197.07 334.812 198.055 333.664 198.672V202.453H336.82ZM326.539 195.828C326.531 197.383 328.148 198.422 330.43 198.422C332.688 198.422 334.32 197.383 334.32 195.828C334.32 194.273 332.688 193.25 330.43 193.266C328.148 193.25 326.531 194.273 326.539 195.828ZM328.461 202.453H332.43V199.148C331.828 199.305 331.156 199.391 330.43 199.391C329.719 199.391 329.055 199.312 328.461 199.156V202.453ZM339.398 204.094C338.852 204.086 338.383 203.633 338.398 203.078C338.383 202.531 338.852 202.078 339.398 202.078C339.953 202.078 340.406 202.531 340.398 203.078C340.406 203.633 339.953 204.086 339.398 204.094Z" fill="#818181"/>
<circle cx="80" cy="269" r="9" fill="#FEE500"/>
<circle cx="128" cy="269" r="9" fill="#FEE500"/>
<circle cx="176" cy="269" r="9" fill="#FEE500"/>
<circle cx="224" cy="269" r="9" fill="#FEE500"/>
<circle cx="272" cy="269" r="9" fill="#FEE500"/>
<circle cx="320" cy="269" r="9" fill="#FEE500"/>
</svg>
