<svg width="450" height="730" viewBox="0 0 450 730" fill="none" xmlns="http://www.w3.org/2000/svg">
<rect width="450" height="730" fill="white"/>
<path d="M125.748 232.334V248.864H123.336V232.334H125.748ZM107.34 239.494C107.353 236.206 109.968 233.87 113.408 233.858C116.836 233.87 119.451 236.206 119.451 239.494C119.451 242.833 116.836 245.156 113.408 245.156C109.968 245.156 107.353 242.833 107.34 239.494ZM109.701 239.494C109.688 241.64 111.288 243.049 113.408 243.049C115.49 243.049 117.09 241.64 117.09 239.494C117.09 237.4 115.49 235.965 113.408 235.965C111.288 235.965 109.688 237.4 109.701 239.494ZM110.869 254.576V247.188H113.307V252.621H126.434V254.576H110.869ZM150.098 243.024V244.979H129.354V243.024H150.098ZM130.445 239.926C134.571 239.482 137.834 237.628 138.101 235.406H131.258V233.426H148.244V235.406H141.325C141.604 237.615 144.816 239.482 149.031 239.926L148.168 241.83C144.22 241.373 140.957 239.71 139.726 237.311C138.469 239.71 135.231 241.373 131.283 241.83L130.445 239.926ZM131.816 250.895C131.816 248.254 134.774 246.731 139.713 246.731C144.613 246.731 147.546 248.254 147.559 250.895C147.546 253.535 144.613 255.021 139.713 255.008C134.774 255.021 131.816 253.535 131.816 250.895ZM134.254 250.895C134.241 252.329 136.234 253.116 139.713 253.104C143.141 253.116 145.146 252.329 145.146 250.895C145.146 249.422 143.141 248.635 139.713 248.61C136.234 248.635 134.241 249.422 134.254 250.895ZM170.664 232.309V255.11H168.252V232.309H170.664ZM152.611 241.983C152.611 237.12 155.062 234.023 158.502 234.01C161.879 234.023 164.367 237.12 164.367 241.983C164.367 246.896 161.879 249.993 158.502 249.981C155.062 249.993 152.611 246.896 152.611 241.983ZM154.947 241.983C154.935 245.601 156.382 247.823 158.502 247.823C160.584 247.823 162.031 245.601 162.031 241.983C162.031 238.415 160.584 236.181 158.502 236.168C156.382 236.181 154.935 238.415 154.947 241.983ZM187.549 233.324C190.875 233.324 193.211 235.153 193.236 237.869C193.211 240.18 191.459 241.868 188.818 242.287V244.319C190.824 244.204 192.855 244.014 194.734 243.735L194.912 245.512C190.139 246.375 184.781 246.464 180.871 246.451L180.617 244.496C182.318 244.509 184.312 244.496 186.406 244.42V242.313C183.689 241.932 181.874 240.218 181.887 237.869C181.874 235.153 184.21 233.324 187.549 233.324ZM183.842 254.576V248.203H186.254V252.596H199.355V254.576H183.842ZM184.146 237.869C184.121 239.482 185.543 240.535 187.549 240.535C189.567 240.535 190.951 239.482 190.951 237.869C190.951 236.219 189.567 235.178 187.549 235.178C185.543 235.178 184.121 236.219 184.146 237.869ZM196.131 249.727V232.334H198.543V239.85H201.793V241.881H198.543V249.727H196.131ZM223.934 250.311V252.342H203.113V250.311H208.801V246.299H205.652V239.063H219.008V235.889H205.602V233.908H221.395V241.018H208.039V244.319H221.928V246.299H218.475V250.311H223.934ZM211.137 250.311H216.113V246.299H211.137V250.311ZM239.143 241.932V243.912H234.344V248.127C236.451 248.038 238.571 247.899 240.564 247.67L240.742 249.448C235.728 250.197 230.345 250.273 226.016 250.285L225.711 248.28C227.628 248.28 229.748 248.267 231.932 248.216V243.912H227.361V234.416H239.041V236.371H229.748V241.932H239.143ZM241.986 255.11V232.309H244.398V255.11H241.986ZM256.129 247.315C256.129 249.282 257.106 251.352 259.163 252.609C261.245 251.25 262.235 249.041 262.248 247.315V246.096H264.609V247.315C264.609 249.663 266.158 251.999 269.18 252.951L267.936 254.754C265.701 253.954 264.178 252.431 263.391 250.552C262.667 252.38 261.309 254.081 259.201 254.957C257.043 254.132 255.659 252.52 254.948 250.654C254.136 252.444 252.625 253.954 250.492 254.754L249.324 252.951C252.231 251.936 253.793 249.524 253.818 247.315V246.096H256.129V247.315ZM248.41 238.936C248.397 235.787 250.924 233.553 254.352 233.553C257.297 233.553 259.633 235.292 260.153 237.869H264.609V232.309H267.021V245.207H264.609V239.85H260.191C259.722 242.49 257.36 244.293 254.352 244.293C250.924 244.293 248.397 242.072 248.41 238.936ZM250.721 238.936C250.708 240.904 252.244 242.287 254.352 242.287C256.408 242.287 257.944 240.904 257.957 238.936C257.944 236.93 256.408 235.572 254.352 235.584C252.244 235.572 250.708 236.93 250.721 238.936ZM275.477 245.944V248.356H286.166V245.944H288.578V254.78H273.09V245.944H275.477ZM270.525 244.522V242.516H291.27V244.522H270.525ZM271.643 239.215C276.048 238.644 279.653 236.219 279.666 233.528V232.563H282.129V233.528C282.142 236.143 285.772 238.682 290.127 239.215L289.264 241.119C285.582 240.612 282.37 238.86 280.91 236.435C279.438 238.872 276.213 240.612 272.557 241.119L271.643 239.215ZM275.477 252.85H286.166V250.235H275.477V252.85ZM311.887 232.309V255.059H309.475V232.309H311.887ZM294.393 249.27V234.518H296.779V247.188C300.105 247.175 303.597 246.883 307.24 246.147L307.57 248.178C303.546 249.003 299.89 249.282 296.297 249.27H294.393ZM333.189 232.309V241.119H336.846V243.1H333.189V255.11H330.777V232.309H333.189ZM316.432 249.448V234.492H327.07V236.448H318.844V247.442C322.665 247.429 325.521 247.264 328.771 246.68L329.076 248.711C325.509 249.346 322.487 249.46 318.26 249.448H316.432ZM340.527 253.078C339.537 253.066 338.712 252.266 338.725 251.276C338.712 250.285 339.537 249.473 340.527 249.473C341.505 249.473 342.317 250.285 342.33 251.276C342.317 252.266 341.505 253.066 340.527 253.078Z" fill="#222222"/>
<path d="M91.9688 289.354V290.385H79.25V289.354H82.4062V285.612C81.2188 284.994 80.5 283.994 80.5 282.729C80.5 280.58 82.6094 279.166 85.5781 279.151C88.5469 279.166 90.6562 280.58 90.6562 282.729C90.6562 283.971 89.9609 284.955 88.8125 285.573V289.354H91.9688ZM81.6875 282.729C81.6797 284.283 83.2969 285.323 85.5781 285.323C87.8359 285.323 89.4688 284.283 89.4688 282.729C89.4688 281.174 87.8359 280.151 85.5781 280.166C83.2969 280.151 81.6797 281.174 81.6875 282.729ZM83.6094 289.354H87.5781V286.049C86.9766 286.205 86.3047 286.291 85.5781 286.291C84.8672 286.291 84.2031 286.213 83.6094 286.057V289.354ZM97.8125 281.26C97.8203 282.987 99.3125 284.549 101.359 285.151L100.766 286.104C99.1562 285.619 97.875 284.573 97.2422 283.205C96.6484 284.721 95.375 285.916 93.7188 286.463L93.125 285.526C95.1641 284.838 96.6016 283.143 96.6094 281.26V280.963H93.4688V279.979H96.6094V278.213H97.8438V279.979H100.953V280.963H97.8125V281.26ZM95.3281 289.604C95.3203 287.987 97.0938 287.065 99.9844 287.073C102.867 287.065 104.641 287.987 104.641 289.604C104.641 291.213 102.867 292.135 99.9844 292.135C97.0938 292.135 95.3203 291.213 95.3281 289.604ZM96.5469 289.604C96.5391 290.573 97.8516 291.166 99.9844 291.166C102.117 291.166 103.422 290.573 103.422 289.604C103.422 288.612 102.117 288.041 99.9844 288.026C97.8516 288.041 96.5391 288.612 96.5469 289.604ZM100.516 283.276V282.26H103.359V278.276H104.594V286.698H103.359V283.276H100.516ZM117.766 278.291V282.869H119.859V283.901H117.766V288.698H116.547V278.291H117.766ZM106.938 280.994V279.994H110.469V278.291H111.688V279.994H115.219V280.994H106.938ZM107.734 284.354C107.727 282.776 109.07 281.76 111.078 281.76C113.062 281.76 114.406 282.776 114.422 284.354C114.406 285.916 113.062 286.924 111.078 286.916C109.07 286.924 107.727 285.916 107.734 284.354ZM108.906 284.354C108.898 285.33 109.766 285.963 111.078 285.948C112.375 285.963 113.25 285.33 113.266 284.354C113.25 283.362 112.375 282.721 111.078 282.729C109.766 282.721 108.898 283.362 108.906 284.354ZM109.078 291.869V287.869H110.281V290.838H118.406V291.869H109.078ZM129.641 282.01C129.633 284.526 131.25 287.057 133.266 287.979L132.531 288.979C130.953 288.166 129.648 286.51 129.031 284.533C128.414 286.612 127.109 288.393 125.531 289.229L124.734 288.244C126.773 287.244 128.383 284.573 128.391 282.01V279.479H129.641V282.01ZM131.75 284.026V283.026H135.047V278.276H136.266V292.198H135.047V284.026H131.75ZM150.031 278.276V292.198H148.797V278.276H150.031ZM139.391 288.838V279.463H140.609V283.135H144.75V279.463H145.953V288.838H139.391ZM140.609 287.807H144.75V284.119H140.609V287.807ZM159.328 280.323C159.336 282.705 162.055 284.823 164.469 285.276L163.906 286.307C161.805 285.823 159.602 284.33 158.703 282.291C157.797 284.33 155.602 285.815 153.5 286.307L152.938 285.276C155.344 284.815 158.039 282.713 158.047 280.323V279.26H159.328V280.323ZM152.406 290.276V289.26H165.125V290.276H152.406ZM178.953 289.416V290.448H166.234V289.416H171.953V286.791H167.828V282.51H176.141V280.323H167.797V279.307H177.344V283.51H169.047V285.776H177.672V286.791H173.156V289.416H178.953ZM195.234 282.01V282.994H191.016V284.338H196.734V285.338H184.078V284.338H189.797V282.994H185.766V278.823H195.094V279.838H187V282.01H195.234ZM185.609 287.463V286.526H195.109V289.619H186.859V291.026H195.531V292.01H185.641V288.713H193.906V287.463H185.609ZM201.625 279.354C203.672 279.362 205.125 281.244 205.141 284.198C205.125 287.158 203.672 289.033 201.625 289.026C199.562 289.033 198.117 287.158 198.125 284.198C198.117 281.244 199.562 279.362 201.625 279.354ZM199.281 284.198C199.289 286.455 200.25 287.94 201.625 287.932C203.016 287.94 203.953 286.455 203.953 284.198C203.953 281.94 203.016 280.455 201.625 280.448C200.25 280.455 199.289 281.94 199.281 284.198ZM207.438 292.166V278.276H208.656V283.823H210.984V284.885H208.656V292.166H207.438ZM222.484 278.276V283.932H224.734V284.963H222.484V292.166H221.266V278.276H222.484ZM211.828 288.557C215.414 286.776 217.367 284.096 217.648 280.807H212.469V279.776H218.891C218.883 283.705 217.039 287.291 212.516 289.526L211.828 288.557ZM241.047 278.291V288.448H239.828V278.291H241.047ZM229.906 282.666C229.898 280.666 231.469 279.268 233.547 279.26C235.625 279.268 237.18 280.666 237.188 282.666C237.18 284.69 235.625 286.096 233.547 286.088C231.469 286.096 229.898 284.69 229.906 282.666ZM231.109 282.666C231.094 284.049 232.141 285.01 233.547 285.01C234.93 285.01 235.984 284.049 235.984 282.666C235.984 281.307 234.93 280.338 233.547 280.338C232.141 280.338 231.094 281.307 231.109 282.666ZM232.078 291.869V287.416H233.297V290.838H241.484V291.869H232.078ZM256.062 284.885V285.901H243.406V284.885H256.062ZM244.125 283.073C246.547 282.791 248.883 281.596 248.938 280.01H244.562V278.994H254.938V280.01H250.531C250.586 281.58 252.898 282.791 255.359 283.073L254.906 284.057C252.633 283.768 250.5 282.744 249.734 281.205C248.969 282.744 246.852 283.768 244.562 284.057L244.125 283.073ZM244.938 289.635C244.93 288.041 246.734 287.119 249.734 287.119C252.711 287.119 254.5 288.041 254.516 289.635C254.5 291.244 252.711 292.135 249.734 292.135C246.734 292.135 244.93 291.244 244.938 289.635ZM246.188 289.635C246.172 290.604 247.508 291.158 249.734 291.151C251.938 291.158 253.273 290.604 253.281 289.635C253.273 288.658 251.938 288.104 249.734 288.088C247.508 288.104 246.172 288.658 246.188 289.635ZM268.75 278.276V285.385H267.516V283.932H263.812V282.963H267.516V281.291H264.016C263.148 283.479 260.992 284.955 257.906 285.698L257.469 284.682C260.875 283.893 262.852 282.237 263.086 279.994H258.172V278.979H264.438C264.438 279.44 264.391 279.885 264.305 280.307H267.516V278.276H268.75ZM259.75 287.01V286.01H268.75V289.401H261V291.026H269.219V292.041H259.781V288.463H267.516V287.01H259.75ZM278.766 279.823V280.541C278.758 281.643 278.758 283.479 278.359 286.057L277.125 285.948C277.508 283.619 277.539 281.932 277.531 280.823H271.703V279.823H278.766ZM270.922 288.088C271.836 288.08 272.852 288.073 273.922 288.049V283.791H275.125V288.01C276.664 287.955 278.242 287.854 279.688 287.682L279.75 288.604C276.828 289.057 273.562 289.119 271.078 289.104L270.922 288.088ZM280.562 292.166V278.276H281.781V284.088H284.031V285.151H281.781V292.166H280.562ZM297.594 284.729V285.698H284.875V284.729H297.594ZM286.406 287.729V286.807H296V289.76H287.656V291.088H296.453V291.979H286.422V288.916H294.781V287.729H286.406ZM286.484 279.588V278.698H295.953V281.573H287.75V282.791H296.203V283.682H286.531V280.729H294.719V279.588H286.484ZM313.578 278.291V282.494H315.656V283.526H313.578V287.604H312.344V278.291H313.578ZM302.672 286.182C303.781 286.182 305.078 286.182 306.438 286.143V285.119C304.82 284.971 303.773 284.229 303.781 283.073C303.773 281.807 305.078 281.026 307.031 281.026C309 281.026 310.281 281.807 310.297 283.073C310.281 284.221 309.266 284.963 307.656 285.119V286.096C308.953 286.033 310.266 285.924 311.484 285.744L311.594 286.635C308.578 287.166 305.258 287.19 302.812 287.182L302.672 286.182ZM303.016 280.494V279.557H306.438V278.166H307.656V279.557H311.062V280.494H303.016ZM304.375 289.276V288.291H313.578V292.166H312.344V289.276H304.375ZM304.953 283.073C304.945 283.799 305.75 284.291 307.031 284.276C308.312 284.291 309.125 283.799 309.125 283.073C309.125 282.338 308.312 281.885 307.031 281.901C305.75 281.885 304.945 282.338 304.953 283.073ZM328.031 278.291V288.448H326.812V278.291H328.031ZM316.891 282.666C316.883 280.666 318.453 279.268 320.531 279.26C322.609 279.268 324.164 280.666 324.172 282.666C324.164 284.69 322.609 286.096 320.531 286.088C318.453 286.096 316.883 284.69 316.891 282.666ZM318.094 282.666C318.078 284.049 319.125 285.01 320.531 285.01C321.914 285.01 322.969 284.049 322.969 282.666C322.969 281.307 321.914 280.338 320.531 280.338C319.125 280.338 318.078 281.307 318.094 282.666ZM319.062 291.869V287.416H320.281V290.838H328.469V291.869H319.062ZM341.141 278.276V284.01H343.469V285.026H341.141V292.166H339.922V278.276H341.141ZM330.312 281.526V280.51H333.891V278.448H335.109V280.51H338.578V281.526H330.312ZM331.109 285.869C331.102 283.994 332.539 282.682 334.516 282.682C336.477 282.682 337.906 283.994 337.922 285.869C337.906 287.752 336.477 289.057 334.516 289.057C332.539 289.057 331.102 287.752 331.109 285.869ZM332.281 285.869C332.273 287.135 333.219 288.026 334.516 288.01C335.797 288.026 336.734 287.135 336.75 285.869C336.734 284.612 335.797 283.705 334.516 283.713C333.219 283.705 332.273 284.612 332.281 285.869ZM355.719 278.276V292.166H354.5V284.885H351.188V283.869H354.5V278.276H355.719ZM344.234 288.541C347.992 286.721 349.734 284.041 349.984 280.791H344.844V279.791H351.219C351.211 283.729 349.547 287.221 344.906 289.526L344.234 288.541ZM371.047 283.823V284.854H368.797V292.166H367.578V278.276H368.797V283.823H371.047ZM358.625 288.635V279.651H359.844V287.604C361.875 287.604 363.945 287.448 366.234 286.963L366.391 288.01C363.992 288.494 361.836 288.635 359.734 288.635H358.625ZM163.133 302.276V307.776H165.461V308.807H163.133V316.198H161.914V302.276H163.133ZM152.992 312.713V303.635H159.477V304.651H154.211V311.682C156.727 311.674 158.5 311.565 160.57 311.182L160.727 312.244C158.547 312.635 156.727 312.713 154.086 312.713H152.992ZM172.539 302.588C175.562 302.588 177.438 303.565 177.445 305.229C177.438 306.869 175.562 307.83 172.539 307.823C169.516 307.83 167.617 306.869 167.617 305.229C167.617 303.565 169.516 302.588 172.539 302.588ZM166.211 310.041V309.026H178.867V310.041H166.211ZM167.758 315.979V311.416H177.32V315.979H167.758ZM168.883 305.229C168.875 306.237 170.289 306.846 172.539 306.854C174.766 306.846 176.188 306.237 176.195 305.229C176.188 304.19 174.766 303.573 172.539 303.573C170.289 303.573 168.875 304.19 168.883 305.229ZM168.977 314.979H176.117V312.401H168.977V314.979ZM190.898 302.276V306.416H193.008V307.448H190.898V312.338H189.68V302.276H190.898ZM180.695 309.869V303.479H186.883V304.51H181.914V308.838C184.703 308.846 186.289 308.76 188.148 308.385L188.305 309.401C186.352 309.776 184.695 309.869 181.773 309.869H180.695ZM182.211 315.869V311.323H183.414V314.838H191.539V315.869H182.211ZM205.758 302.276V316.166H204.586V302.276H205.758ZM193.852 312.276C196.875 310.487 198.391 307.979 198.633 305.073H194.477V304.057H199.852C199.852 304.768 199.789 305.471 199.664 306.151H201.773V302.651H202.945V315.463H201.773V310.651H199.195V309.635H201.773V307.166H199.422C198.75 309.518 197.227 311.596 194.602 313.166L193.852 312.276ZM220.398 308.729V309.698H207.68V308.729H220.398ZM209.211 311.729V310.807H218.805V313.76H210.461V315.088H219.258V315.979H209.227V312.916H217.586V311.729H209.211ZM209.289 303.588V302.698H218.758V305.573H210.555V306.791H219.008V307.682H209.336V304.729H217.523V303.588H209.289ZM230.539 305.26C230.547 307.135 232.023 308.823 234.102 309.479L233.477 310.463C231.859 309.908 230.578 308.768 229.945 307.307C229.344 308.885 228.039 310.135 226.383 310.744L225.742 309.76C227.828 309.033 229.297 307.229 229.305 305.26V304.448H226.055V303.448H233.742V304.448H230.539V305.26ZM228.039 315.869V311.51H229.258V314.838H237.445V315.869H228.039ZM235.789 312.479V302.291H237.008V312.479H235.789ZM251.164 302.276V311.073H249.992V307.088H248.133V310.573H246.977V302.557H248.133V306.073H249.992V302.276H251.164ZM239.289 304.932V303.948H242.258V302.385H243.477V303.948H246.414V304.932H239.289ZM239.898 308.057C239.891 306.604 241.117 305.674 242.867 305.682C244.625 305.674 245.844 306.604 245.852 308.057C245.844 309.487 244.625 310.416 242.867 310.416C241.117 310.416 239.891 309.487 239.898 308.057ZM240.992 308.057C240.992 308.908 241.758 309.494 242.867 309.494C243.977 309.494 244.742 308.908 244.742 308.057C244.742 307.174 243.977 306.588 242.867 306.588C241.758 306.588 240.992 307.174 240.992 308.057ZM241.914 313.744C241.898 312.182 243.641 311.307 246.57 311.307C249.492 311.307 251.234 312.182 251.242 313.744C251.234 315.268 249.492 316.135 246.57 316.135C243.641 316.135 241.898 315.268 241.914 313.744ZM243.133 313.744C243.117 314.643 244.406 315.19 246.57 315.182C248.727 315.19 250.008 314.643 250.023 313.744C250.008 312.791 248.727 312.26 246.57 312.276C244.406 312.26 243.117 312.791 243.133 313.744ZM263.945 302.276V308.01H266.273V309.026H263.945V316.166H262.727V302.276H263.945ZM253.117 305.526V304.51H256.695V302.448H257.914V304.51H261.383V305.526H253.117ZM253.914 309.869C253.906 307.994 255.344 306.682 257.32 306.682C259.281 306.682 260.711 307.994 260.727 309.869C260.711 311.752 259.281 313.057 257.32 313.057C255.344 313.057 253.906 311.752 253.914 309.869ZM255.086 309.869C255.078 311.135 256.023 312.026 257.32 312.01C258.602 312.026 259.539 311.135 259.555 309.869C259.539 308.612 258.602 307.705 257.32 307.713C256.023 307.705 255.078 308.612 255.086 309.869ZM271.148 306.229C271.148 308.44 272.227 310.823 274.07 311.916L273.367 312.869C272.023 312.057 271.062 310.573 270.578 308.877C270.07 310.729 269.039 312.323 267.648 313.166L266.867 312.244C268.789 311.119 269.961 308.658 269.961 306.276V303.588H271.148V306.229ZM272.539 308.307V307.26H274.898V302.573H276.055V315.463H274.898V308.307H272.539ZM277.742 316.166V302.276H278.93V316.166H277.742ZM293.57 313.354V314.385H280.852V313.354H284.008V309.612C282.82 308.994 282.102 307.994 282.102 306.729C282.102 304.58 284.211 303.166 287.18 303.151C290.148 303.166 292.258 304.58 292.258 306.729C292.258 307.971 291.562 308.955 290.414 309.573V313.354H293.57ZM283.289 306.729C283.281 308.283 284.898 309.323 287.18 309.323C289.438 309.323 291.07 308.283 291.07 306.729C291.07 305.174 289.438 304.151 287.18 304.166C284.898 304.151 283.281 305.174 283.289 306.729ZM285.211 313.354H289.18V310.049C288.578 310.205 287.906 310.291 287.18 310.291C286.469 310.291 285.805 310.213 285.211 310.057V313.354ZM296.148 314.994C295.602 314.987 295.133 314.533 295.148 313.979C295.133 313.432 295.602 312.979 296.148 312.979C296.703 312.979 297.156 313.432 297.148 313.979C297.156 314.533 296.703 314.987 296.148 314.994Z" fill="#818181"/>
<g clip-path="url(#clip0_233_3442)">
<path d="M210.322 431.726C211.295 432.088 212.383 432.088 213.357 431.726C238.254 422.383 238.678 407.28 238.678 407.28V380.374C238.678 378.516 237.519 376.853 235.768 376.207L213.365 368.023C212.383 367.66 211.304 367.66 210.322 368.023L187.911 376.216C186.159 376.853 185 378.516 185 380.383V407.289C185 407.289 185.425 422.383 210.322 431.734V431.726Z" fill="#4961DD"/>
<path d="M211.835 384.639C203.2 384.639 196.201 390.779 196.201 398.352C196.201 402.688 198.502 406.554 202.085 409.067V416.835L208.384 411.721C209.499 411.942 210.649 412.066 211.835 412.066C220.47 412.066 227.469 405.926 227.469 398.352C227.469 390.779 220.47 384.639 211.835 384.639Z" fill="#F3E035"/>
<path d="M247.305 396.291C257.077 396.291 265 388.369 265 378.596C265 368.823 257.077 360.901 247.305 360.901C237.532 360.901 229.609 368.823 229.609 378.596C229.609 388.369 237.532 396.291 247.305 396.291Z" fill="#C6DBEF"/>
<path d="M240.536 379.074L244.624 383.09L254.064 372.332" stroke="#4961DD" stroke-width="3" stroke-miterlimit="10"/>
</g>
<rect x="20" y="652" width="410" height="48" rx="6" fill="#FEE500"/>
<path d="M222.703 669.344V673.5H224.703V674.719H222.703V678.766H221.219V669.344H222.703ZM211.594 677.203C212.68 677.203 213.938 677.203 215.25 677.172V676.227C213.656 676.047 212.641 675.297 212.656 674.172C212.641 672.891 213.977 672.094 215.984 672.109C217.992 672.094 219.305 672.891 219.312 674.172C219.305 675.289 218.312 676.039 216.734 676.227V677.117C217.984 677.055 219.25 676.953 220.422 676.781L220.547 677.844C217.539 678.367 214.219 678.391 211.75 678.391L211.594 677.203ZM211.953 671.641V670.531H215.25V669.219H216.734V670.531H220.031V671.641H211.953ZM213.344 680.578V679.422H222.703V683.328H221.219V680.578H213.344ZM214.062 674.172C214.062 674.828 214.789 675.258 215.984 675.25C217.164 675.258 217.898 674.828 217.891 674.172C217.898 673.5 217.164 673.109 215.984 673.125C214.789 673.109 214.062 673.5 214.062 674.172ZM237.125 669.344V679.516H235.641V669.344H237.125ZM225.797 673.75C225.805 671.727 227.414 670.289 229.531 670.281C231.641 670.289 233.25 671.727 233.25 673.75C233.25 675.805 231.641 677.234 229.531 677.234C227.414 677.234 225.805 675.805 225.797 673.75ZM227.25 673.75C227.242 675.07 228.227 675.938 229.531 675.938C230.812 675.938 231.797 675.07 231.797 673.75C231.797 672.461 230.812 671.578 229.531 671.578C228.227 671.578 227.242 672.461 227.25 673.75ZM227.969 683.031V678.484H229.469V681.828H237.547V683.031H227.969Z" fill="#010101"/>
<defs>
<clipPath id="clip0_233_3442">
<rect width="80" height="71.0993" fill="white" transform="translate(185 360.901)"/>
</clipPath>
</defs>
</svg>
