<svg width="450" height="851" viewBox="0 0 450 851" fill="none" xmlns="http://www.w3.org/2000/svg">
<rect width="450" height="851" fill="white"/>
<path d="M125.748 238.434V254.963H123.336V238.434H125.748ZM107.34 245.594C107.353 242.306 109.968 239.97 113.408 239.957C116.836 239.97 119.451 242.306 119.451 245.594C119.451 248.933 116.836 251.256 113.408 251.256C109.968 251.256 107.353 248.933 107.34 245.594ZM109.701 245.594C109.688 247.739 111.288 249.148 113.408 249.148C115.49 249.148 117.09 247.739 117.09 245.594C117.09 243.499 115.49 242.064 113.408 242.064C111.288 242.064 109.688 243.499 109.701 245.594ZM110.869 260.676V253.287H113.307V258.721H126.434V260.676H110.869ZM150.098 249.123V251.078H129.354V249.123H150.098ZM130.445 246.025C134.571 245.581 137.834 243.728 138.101 241.506H131.258V239.525H148.244V241.506H141.325C141.604 243.715 144.816 245.581 149.031 246.025L148.168 247.93C144.22 247.473 140.957 245.81 139.726 243.41C138.469 245.81 135.231 247.473 131.283 247.93L130.445 246.025ZM131.816 256.994C131.816 254.354 134.774 252.83 139.713 252.83C144.613 252.83 147.546 254.354 147.559 256.994C147.546 259.635 144.613 261.12 139.713 261.107C134.774 261.12 131.816 259.635 131.816 256.994ZM134.254 256.994C134.241 258.429 136.234 259.216 139.713 259.203C143.141 259.216 145.146 258.429 145.146 256.994C145.146 255.521 143.141 254.734 139.713 254.709C136.234 254.734 134.241 255.521 134.254 256.994ZM170.664 238.408V261.209H168.252V238.408H170.664ZM152.611 248.082C152.611 243.22 155.062 240.122 158.502 240.109C161.879 240.122 164.367 243.22 164.367 248.082C164.367 252.995 161.879 256.093 158.502 256.08C155.062 256.093 152.611 252.995 152.611 248.082ZM154.947 248.082C154.935 251.7 156.382 253.922 158.502 253.922C160.584 253.922 162.031 251.7 162.031 248.082C162.031 244.515 160.584 242.28 158.502 242.268C156.382 242.28 154.935 244.515 154.947 248.082ZM187.549 239.424C190.875 239.424 193.211 241.252 193.236 243.969C193.211 246.279 191.459 247.968 188.818 248.387V250.418C190.824 250.304 192.855 250.113 194.734 249.834L194.912 251.611C190.139 252.475 184.781 252.563 180.871 252.551L180.617 250.596C182.318 250.608 184.312 250.596 186.406 250.52V248.412C183.689 248.031 181.874 246.317 181.887 243.969C181.874 241.252 184.21 239.424 187.549 239.424ZM183.842 260.676V254.303H186.254V258.695H199.355V260.676H183.842ZM184.146 243.969C184.121 245.581 185.543 246.635 187.549 246.635C189.567 246.635 190.951 245.581 190.951 243.969C190.951 242.318 189.567 241.277 187.549 241.277C185.543 241.277 184.121 242.318 184.146 243.969ZM196.131 255.826V238.434H198.543V245.949H201.793V247.98H198.543V255.826H196.131ZM223.934 256.41V258.441H203.113V256.41H208.801V252.398H205.652V245.162H219.008V241.988H205.602V240.008H221.395V247.117H208.039V250.418H221.928V252.398H218.475V256.41H223.934ZM211.137 256.41H216.113V252.398H211.137V256.41ZM239.143 248.031V250.012H234.344V254.227C236.451 254.138 238.571 253.998 240.564 253.77L240.742 255.547C235.728 256.296 230.345 256.372 226.016 256.385L225.711 254.379C227.628 254.379 229.748 254.366 231.932 254.315V250.012H227.361V240.516H239.041V242.471H229.748V248.031H239.143ZM241.986 261.209V238.408H244.398V261.209H241.986ZM256.129 253.414C256.129 255.382 257.106 257.451 259.163 258.708C261.245 257.35 262.235 255.141 262.248 253.414V252.195H264.609V253.414C264.609 255.763 266.158 258.099 269.18 259.051L267.936 260.854C265.701 260.054 264.178 258.53 263.391 256.651C262.667 258.479 261.309 260.181 259.201 261.057C257.043 260.231 255.659 258.619 254.948 256.753C254.136 258.543 252.625 260.054 250.492 260.854L249.324 259.051C252.231 258.035 253.793 255.623 253.818 253.414V252.195H256.129V253.414ZM248.41 245.035C248.397 241.887 250.924 239.652 254.352 239.652C257.297 239.652 259.633 241.392 260.153 243.969H264.609V238.408H267.021V251.307H264.609V245.949H260.191C259.722 248.59 257.36 250.393 254.352 250.393C250.924 250.393 248.397 248.171 248.41 245.035ZM250.721 245.035C250.708 247.003 252.244 248.387 254.352 248.387C256.408 248.387 257.944 247.003 257.957 245.035C257.944 243.029 256.408 241.671 254.352 241.684C252.244 241.671 250.708 243.029 250.721 245.035ZM275.477 252.043V254.455H286.166V252.043H288.578V260.879H273.09V252.043H275.477ZM270.525 250.621V248.615H291.27V250.621H270.525ZM271.643 245.314C276.048 244.743 279.653 242.318 279.666 239.627V238.662H282.129V239.627C282.142 242.242 285.772 244.781 290.127 245.314L289.264 247.219C285.582 246.711 282.37 244.959 280.91 242.534C279.438 244.972 276.213 246.711 272.557 247.219L271.643 245.314ZM275.477 258.949H286.166V256.334H275.477V258.949ZM311.887 238.408V261.158H309.475V238.408H311.887ZM294.393 255.369V240.617H296.779V253.287C300.105 253.274 303.597 252.982 307.24 252.246L307.57 254.277C303.546 255.103 299.89 255.382 296.297 255.369H294.393ZM333.189 238.408V247.219H336.846V249.199H333.189V261.209H330.777V238.408H333.189ZM316.432 255.547V240.592H327.07V242.547H318.844V253.541C322.665 253.528 325.521 253.363 328.771 252.779L329.076 254.811C325.509 255.445 322.487 255.56 318.26 255.547H316.432ZM340.527 259.178C339.537 259.165 338.712 258.365 338.725 257.375C338.712 256.385 339.537 255.572 340.527 255.572C341.505 255.572 342.317 256.385 342.33 257.375C342.317 258.365 341.505 259.165 340.527 259.178Z" fill="#222222"/>
<path d="M91.9688 295.453V296.484H79.25V295.453H82.4062V291.711C81.2188 291.094 80.5 290.094 80.5 288.828C80.5 286.68 82.6094 285.266 85.5781 285.25C88.5469 285.266 90.6562 286.68 90.6562 288.828C90.6562 290.07 89.9609 291.055 88.8125 291.672V295.453H91.9688ZM81.6875 288.828C81.6797 290.383 83.2969 291.422 85.5781 291.422C87.8359 291.422 89.4688 290.383 89.4688 288.828C89.4688 287.273 87.8359 286.25 85.5781 286.266C83.2969 286.25 81.6797 287.273 81.6875 288.828ZM83.6094 295.453H87.5781V292.148C86.9766 292.305 86.3047 292.391 85.5781 292.391C84.8672 292.391 84.2031 292.312 83.6094 292.156V295.453ZM97.8125 287.359C97.8203 289.086 99.3125 290.648 101.359 291.25L100.766 292.203C99.1562 291.719 97.875 290.672 97.2422 289.305C96.6484 290.82 95.375 292.016 93.7188 292.562L93.125 291.625C95.1641 290.938 96.6016 289.242 96.6094 287.359V287.062H93.4688V286.078H96.6094V284.312H97.8438V286.078H100.953V287.062H97.8125V287.359ZM95.3281 295.703C95.3203 294.086 97.0938 293.164 99.9844 293.172C102.867 293.164 104.641 294.086 104.641 295.703C104.641 297.312 102.867 298.234 99.9844 298.234C97.0938 298.234 95.3203 297.312 95.3281 295.703ZM96.5469 295.703C96.5391 296.672 97.8516 297.266 99.9844 297.266C102.117 297.266 103.422 296.672 103.422 295.703C103.422 294.711 102.117 294.141 99.9844 294.125C97.8516 294.141 96.5391 294.711 96.5469 295.703ZM100.516 289.375V288.359H103.359V284.375H104.594V292.797H103.359V289.375H100.516ZM117.766 284.391V288.969H119.859V290H117.766V294.797H116.547V284.391H117.766ZM106.938 287.094V286.094H110.469V284.391H111.688V286.094H115.219V287.094H106.938ZM107.734 290.453C107.727 288.875 109.07 287.859 111.078 287.859C113.062 287.859 114.406 288.875 114.422 290.453C114.406 292.016 113.062 293.023 111.078 293.016C109.07 293.023 107.727 292.016 107.734 290.453ZM108.906 290.453C108.898 291.43 109.766 292.062 111.078 292.047C112.375 292.062 113.25 291.43 113.266 290.453C113.25 289.461 112.375 288.82 111.078 288.828C109.766 288.82 108.898 289.461 108.906 290.453ZM109.078 297.969V293.969H110.281V296.938H118.406V297.969H109.078ZM129.641 288.109C129.633 290.625 131.25 293.156 133.266 294.078L132.531 295.078C130.953 294.266 129.648 292.609 129.031 290.633C128.414 292.711 127.109 294.492 125.531 295.328L124.734 294.344C126.773 293.344 128.383 290.672 128.391 288.109V285.578H129.641V288.109ZM131.75 290.125V289.125H135.047V284.375H136.266V298.297H135.047V290.125H131.75ZM150.031 284.375V298.297H148.797V284.375H150.031ZM139.391 294.938V285.562H140.609V289.234H144.75V285.562H145.953V294.938H139.391ZM140.609 293.906H144.75V290.219H140.609V293.906ZM159.328 286.422C159.336 288.805 162.055 290.922 164.469 291.375L163.906 292.406C161.805 291.922 159.602 290.43 158.703 288.391C157.797 290.43 155.602 291.914 153.5 292.406L152.938 291.375C155.344 290.914 158.039 288.812 158.047 286.422V285.359H159.328V286.422ZM152.406 296.375V295.359H165.125V296.375H152.406ZM178.953 295.516V296.547H166.234V295.516H171.953V292.891H167.828V288.609H176.141V286.422H167.797V285.406H177.344V289.609H169.047V291.875H177.672V292.891H173.156V295.516H178.953ZM195.234 288.109V289.094H191.016V290.438H196.734V291.438H184.078V290.438H189.797V289.094H185.766V284.922H195.094V285.938H187V288.109H195.234ZM185.609 293.562V292.625H195.109V295.719H186.859V297.125H195.531V298.109H185.641V294.812H193.906V293.562H185.609ZM201.625 285.453C203.672 285.461 205.125 287.344 205.141 290.297C205.125 293.258 203.672 295.133 201.625 295.125C199.562 295.133 198.117 293.258 198.125 290.297C198.117 287.344 199.562 285.461 201.625 285.453ZM199.281 290.297C199.289 292.555 200.25 294.039 201.625 294.031C203.016 294.039 203.953 292.555 203.953 290.297C203.953 288.039 203.016 286.555 201.625 286.547C200.25 286.555 199.289 288.039 199.281 290.297ZM207.438 298.266V284.375H208.656V289.922H210.984V290.984H208.656V298.266H207.438ZM222.484 284.375V290.031H224.734V291.062H222.484V298.266H221.266V284.375H222.484ZM211.828 294.656C215.414 292.875 217.367 290.195 217.648 286.906H212.469V285.875H218.891C218.883 289.805 217.039 293.391 212.516 295.625L211.828 294.656ZM241.047 284.391V294.547H239.828V284.391H241.047ZM229.906 288.766C229.898 286.766 231.469 285.367 233.547 285.359C235.625 285.367 237.18 286.766 237.188 288.766C237.18 290.789 235.625 292.195 233.547 292.188C231.469 292.195 229.898 290.789 229.906 288.766ZM231.109 288.766C231.094 290.148 232.141 291.109 233.547 291.109C234.93 291.109 235.984 290.148 235.984 288.766C235.984 287.406 234.93 286.438 233.547 286.438C232.141 286.438 231.094 287.406 231.109 288.766ZM232.078 297.969V293.516H233.297V296.938H241.484V297.969H232.078ZM256.062 290.984V292H243.406V290.984H256.062ZM244.125 289.172C246.547 288.891 248.883 287.695 248.938 286.109H244.562V285.094H254.938V286.109H250.531C250.586 287.68 252.898 288.891 255.359 289.172L254.906 290.156C252.633 289.867 250.5 288.844 249.734 287.305C248.969 288.844 246.852 289.867 244.562 290.156L244.125 289.172ZM244.938 295.734C244.93 294.141 246.734 293.219 249.734 293.219C252.711 293.219 254.5 294.141 254.516 295.734C254.5 297.344 252.711 298.234 249.734 298.234C246.734 298.234 244.93 297.344 244.938 295.734ZM246.188 295.734C246.172 296.703 247.508 297.258 249.734 297.25C251.938 297.258 253.273 296.703 253.281 295.734C253.273 294.758 251.938 294.203 249.734 294.188C247.508 294.203 246.172 294.758 246.188 295.734ZM268.75 284.375V291.484H267.516V290.031H263.812V289.062H267.516V287.391H264.016C263.148 289.578 260.992 291.055 257.906 291.797L257.469 290.781C260.875 289.992 262.852 288.336 263.086 286.094H258.172V285.078H264.438C264.438 285.539 264.391 285.984 264.305 286.406H267.516V284.375H268.75ZM259.75 293.109V292.109H268.75V295.5H261V297.125H269.219V298.141H259.781V294.562H267.516V293.109H259.75ZM278.766 285.922V286.641C278.758 287.742 278.758 289.578 278.359 292.156L277.125 292.047C277.508 289.719 277.539 288.031 277.531 286.922H271.703V285.922H278.766ZM270.922 294.188C271.836 294.18 272.852 294.172 273.922 294.148V289.891H275.125V294.109C276.664 294.055 278.242 293.953 279.688 293.781L279.75 294.703C276.828 295.156 273.562 295.219 271.078 295.203L270.922 294.188ZM280.562 298.266V284.375H281.781V290.188H284.031V291.25H281.781V298.266H280.562ZM297.594 290.828V291.797H284.875V290.828H297.594ZM286.406 293.828V292.906H296V295.859H287.656V297.188H296.453V298.078H286.422V295.016H294.781V293.828H286.406ZM286.484 285.688V284.797H295.953V287.672H287.75V288.891H296.203V289.781H286.531V286.828H294.719V285.688H286.484ZM313.578 284.391V288.594H315.656V289.625H313.578V293.703H312.344V284.391H313.578ZM302.672 292.281C303.781 292.281 305.078 292.281 306.438 292.242V291.219C304.82 291.07 303.773 290.328 303.781 289.172C303.773 287.906 305.078 287.125 307.031 287.125C309 287.125 310.281 287.906 310.297 289.172C310.281 290.32 309.266 291.062 307.656 291.219V292.195C308.953 292.133 310.266 292.023 311.484 291.844L311.594 292.734C308.578 293.266 305.258 293.289 302.812 293.281L302.672 292.281ZM303.016 286.594V285.656H306.438V284.266H307.656V285.656H311.062V286.594H303.016ZM304.375 295.375V294.391H313.578V298.266H312.344V295.375H304.375ZM304.953 289.172C304.945 289.898 305.75 290.391 307.031 290.375C308.312 290.391 309.125 289.898 309.125 289.172C309.125 288.438 308.312 287.984 307.031 288C305.75 287.984 304.945 288.438 304.953 289.172ZM328.031 284.391V294.547H326.812V284.391H328.031ZM316.891 288.766C316.883 286.766 318.453 285.367 320.531 285.359C322.609 285.367 324.164 286.766 324.172 288.766C324.164 290.789 322.609 292.195 320.531 292.188C318.453 292.195 316.883 290.789 316.891 288.766ZM318.094 288.766C318.078 290.148 319.125 291.109 320.531 291.109C321.914 291.109 322.969 290.148 322.969 288.766C322.969 287.406 321.914 286.438 320.531 286.438C319.125 286.438 318.078 287.406 318.094 288.766ZM319.062 297.969V293.516H320.281V296.938H328.469V297.969H319.062ZM341.141 284.375V290.109H343.469V291.125H341.141V298.266H339.922V284.375H341.141ZM330.312 287.625V286.609H333.891V284.547H335.109V286.609H338.578V287.625H330.312ZM331.109 291.969C331.102 290.094 332.539 288.781 334.516 288.781C336.477 288.781 337.906 290.094 337.922 291.969C337.906 293.852 336.477 295.156 334.516 295.156C332.539 295.156 331.102 293.852 331.109 291.969ZM332.281 291.969C332.273 293.234 333.219 294.125 334.516 294.109C335.797 294.125 336.734 293.234 336.75 291.969C336.734 290.711 335.797 289.805 334.516 289.812C333.219 289.805 332.273 290.711 332.281 291.969ZM355.719 284.375V298.266H354.5V290.984H351.188V289.969H354.5V284.375H355.719ZM344.234 294.641C347.992 292.82 349.734 290.141 349.984 286.891H344.844V285.891H351.219C351.211 289.828 349.547 293.32 344.906 295.625L344.234 294.641ZM371.047 289.922V290.953H368.797V298.266H367.578V284.375H368.797V289.922H371.047ZM358.625 294.734V285.75H359.844V293.703C361.875 293.703 363.945 293.547 366.234 293.062L366.391 294.109C363.992 294.594 361.836 294.734 359.734 294.734H358.625ZM163.133 308.375V313.875H165.461V314.906H163.133V322.297H161.914V308.375H163.133ZM152.992 318.812V309.734H159.477V310.75H154.211V317.781C156.727 317.773 158.5 317.664 160.57 317.281L160.727 318.344C158.547 318.734 156.727 318.812 154.086 318.812H152.992ZM172.539 308.688C175.562 308.688 177.438 309.664 177.445 311.328C177.438 312.969 175.562 313.93 172.539 313.922C169.516 313.93 167.617 312.969 167.617 311.328C167.617 309.664 169.516 308.688 172.539 308.688ZM166.211 316.141V315.125H178.867V316.141H166.211ZM167.758 322.078V317.516H177.32V322.078H167.758ZM168.883 311.328C168.875 312.336 170.289 312.945 172.539 312.953C174.766 312.945 176.188 312.336 176.195 311.328C176.188 310.289 174.766 309.672 172.539 309.672C170.289 309.672 168.875 310.289 168.883 311.328ZM168.977 321.078H176.117V318.5H168.977V321.078ZM190.898 308.375V312.516H193.008V313.547H190.898V318.438H189.68V308.375H190.898ZM180.695 315.969V309.578H186.883V310.609H181.914V314.938C184.703 314.945 186.289 314.859 188.148 314.484L188.305 315.5C186.352 315.875 184.695 315.969 181.773 315.969H180.695ZM182.211 321.969V317.422H183.414V320.938H191.539V321.969H182.211ZM205.758 308.375V322.266H204.586V308.375H205.758ZM193.852 318.375C196.875 316.586 198.391 314.078 198.633 311.172H194.477V310.156H199.852C199.852 310.867 199.789 311.57 199.664 312.25H201.773V308.75H202.945V321.562H201.773V316.75H199.195V315.734H201.773V313.266H199.422C198.75 315.617 197.227 317.695 194.602 319.266L193.852 318.375ZM220.398 314.828V315.797H207.68V314.828H220.398ZM209.211 317.828V316.906H218.805V319.859H210.461V321.188H219.258V322.078H209.227V319.016H217.586V317.828H209.211ZM209.289 309.688V308.797H218.758V311.672H210.555V312.891H219.008V313.781H209.336V310.828H217.523V309.688H209.289ZM230.539 311.359C230.547 313.234 232.023 314.922 234.102 315.578L233.477 316.562C231.859 316.008 230.578 314.867 229.945 313.406C229.344 314.984 228.039 316.234 226.383 316.844L225.742 315.859C227.828 315.133 229.297 313.328 229.305 311.359V310.547H226.055V309.547H233.742V310.547H230.539V311.359ZM228.039 321.969V317.609H229.258V320.938H237.445V321.969H228.039ZM235.789 318.578V308.391H237.008V318.578H235.789ZM251.164 308.375V317.172H249.992V313.188H248.133V316.672H246.977V308.656H248.133V312.172H249.992V308.375H251.164ZM239.289 311.031V310.047H242.258V308.484H243.477V310.047H246.414V311.031H239.289ZM239.898 314.156C239.891 312.703 241.117 311.773 242.867 311.781C244.625 311.773 245.844 312.703 245.852 314.156C245.844 315.586 244.625 316.516 242.867 316.516C241.117 316.516 239.891 315.586 239.898 314.156ZM240.992 314.156C240.992 315.008 241.758 315.594 242.867 315.594C243.977 315.594 244.742 315.008 244.742 314.156C244.742 313.273 243.977 312.688 242.867 312.688C241.758 312.688 240.992 313.273 240.992 314.156ZM241.914 319.844C241.898 318.281 243.641 317.406 246.57 317.406C249.492 317.406 251.234 318.281 251.242 319.844C251.234 321.367 249.492 322.234 246.57 322.234C243.641 322.234 241.898 321.367 241.914 319.844ZM243.133 319.844C243.117 320.742 244.406 321.289 246.57 321.281C248.727 321.289 250.008 320.742 250.023 319.844C250.008 318.891 248.727 318.359 246.57 318.375C244.406 318.359 243.117 318.891 243.133 319.844ZM263.945 308.375V314.109H266.273V315.125H263.945V322.266H262.727V308.375H263.945ZM253.117 311.625V310.609H256.695V308.547H257.914V310.609H261.383V311.625H253.117ZM253.914 315.969C253.906 314.094 255.344 312.781 257.32 312.781C259.281 312.781 260.711 314.094 260.727 315.969C260.711 317.852 259.281 319.156 257.32 319.156C255.344 319.156 253.906 317.852 253.914 315.969ZM255.086 315.969C255.078 317.234 256.023 318.125 257.32 318.109C258.602 318.125 259.539 317.234 259.555 315.969C259.539 314.711 258.602 313.805 257.32 313.812C256.023 313.805 255.078 314.711 255.086 315.969ZM271.148 312.328C271.148 314.539 272.227 316.922 274.07 318.016L273.367 318.969C272.023 318.156 271.062 316.672 270.578 314.977C270.07 316.828 269.039 318.422 267.648 319.266L266.867 318.344C268.789 317.219 269.961 314.758 269.961 312.375V309.688H271.148V312.328ZM272.539 314.406V313.359H274.898V308.672H276.055V321.562H274.898V314.406H272.539ZM277.742 322.266V308.375H278.93V322.266H277.742ZM293.57 319.453V320.484H280.852V319.453H284.008V315.711C282.82 315.094 282.102 314.094 282.102 312.828C282.102 310.68 284.211 309.266 287.18 309.25C290.148 309.266 292.258 310.68 292.258 312.828C292.258 314.07 291.562 315.055 290.414 315.672V319.453H293.57ZM283.289 312.828C283.281 314.383 284.898 315.422 287.18 315.422C289.438 315.422 291.07 314.383 291.07 312.828C291.07 311.273 289.438 310.25 287.18 310.266C284.898 310.25 283.281 311.273 283.289 312.828ZM285.211 319.453H289.18V316.148C288.578 316.305 287.906 316.391 287.18 316.391C286.469 316.391 285.805 316.312 285.211 316.156V319.453ZM296.148 321.094C295.602 321.086 295.133 320.633 295.148 320.078C295.133 319.531 295.602 319.078 296.148 319.078C296.703 319.078 297.156 319.531 297.148 320.078C297.156 320.633 296.703 321.086 296.148 321.094Z" fill="#818181"/>
<g clip-path="url(#clip0_233_3442)">
<path d="M210.322 437.825C211.295 438.188 212.383 438.188 213.357 437.825C238.254 428.482 238.678 413.379 238.678 413.379V386.474C238.678 384.616 237.519 382.952 235.768 382.306L213.365 374.122C212.383 373.76 211.304 373.76 210.322 374.122L187.911 382.315C186.159 382.952 185 384.616 185 386.482V413.388C185 413.388 185.425 428.482 210.322 437.834V437.825Z" fill="#4961DD"/>
<path d="M211.835 390.738C203.2 390.738 196.201 396.878 196.201 404.452C196.201 408.787 198.502 412.654 202.085 415.166V422.934L208.384 417.821C209.499 418.042 210.649 418.166 211.835 418.166C220.47 418.166 227.469 412.025 227.469 404.452C227.469 396.878 220.47 390.738 211.835 390.738Z" fill="#F3E035"/>
<path d="M247.305 402.39C257.077 402.39 265 394.468 265 384.695C265 374.922 257.077 367 247.305 367C237.532 367 229.609 374.922 229.609 384.695C229.609 394.468 237.532 402.39 247.305 402.39Z" fill="#C6DBEF"/>
<path d="M240.536 385.173L244.624 389.19L254.064 378.431" stroke="#4961DD" stroke-width="3" stroke-miterlimit="10"/>
</g>
<rect x="20" y="558.099" width="410" height="48" rx="6" fill="#FEE500"/>
<path d="M222.703 575.443V579.599H224.703V580.818H222.703V584.865H221.219V575.443H222.703ZM211.594 583.302C212.68 583.302 213.938 583.302 215.25 583.271V582.326C213.656 582.146 212.641 581.396 212.656 580.271C212.641 578.99 213.977 578.193 215.984 578.209C217.992 578.193 219.305 578.99 219.312 580.271C219.305 581.388 218.312 582.138 216.734 582.326V583.217C217.984 583.154 219.25 583.052 220.422 582.881L220.547 583.943C217.539 584.467 214.219 584.49 211.75 584.49L211.594 583.302ZM211.953 577.74V576.631H215.25V575.318H216.734V576.631H220.031V577.74H211.953ZM213.344 586.677V585.521H222.703V589.427H221.219V586.677H213.344ZM214.062 580.271C214.062 580.927 214.789 581.357 215.984 581.349C217.164 581.357 217.898 580.927 217.891 580.271C217.898 579.599 217.164 579.209 215.984 579.224C214.789 579.209 214.062 579.599 214.062 580.271ZM237.125 575.443V585.615H235.641V575.443H237.125ZM225.797 579.849C225.805 577.826 227.414 576.388 229.531 576.381C231.641 576.388 233.25 577.826 233.25 579.849C233.25 581.904 231.641 583.334 229.531 583.334C227.414 583.334 225.805 581.904 225.797 579.849ZM227.25 579.849C227.242 581.17 228.227 582.037 229.531 582.037C230.812 582.037 231.797 581.17 231.797 579.849C231.797 578.56 230.812 577.677 229.531 577.677C228.227 577.677 227.242 578.56 227.25 579.849ZM227.969 589.131V584.584H229.469V587.927H237.547V589.131H227.969Z" fill="#010101"/>
<defs>
<clipPath id="clip0_233_3442">
<rect width="80" height="71.0993" fill="white" transform="translate(185 367)"/>
</clipPath>
</defs>
</svg>
