<svg width="450" height="851" viewBox="0 0 450 851" fill="none" xmlns="http://www.w3.org/2000/svg">
<rect width="450" height="851" fill="white"/>
<path d="M134.889 189.617H138.291L144.105 203.861H144.334L150.148 189.617H153.551V208H150.885V194.721H150.707L145.324 207.975H143.115L137.707 194.695H137.555V208H134.889V189.617ZM158.756 213.18C158.197 213.167 157.651 213.154 157.309 213.104V210.844C157.613 210.869 158.146 210.882 158.527 210.895C159.365 210.882 160.063 210.831 160.711 209.092L161.041 208.178L155.988 194.213H158.883L162.361 204.902H162.514L165.992 194.213H168.912L163.225 209.828C162.425 212.012 161.028 213.167 158.756 213.18ZM195.496 187.408V210.209H193.084V187.408H195.496ZM177.926 204.75V189.312H180.338V195.152H186.457V189.312H188.844V204.75H177.926ZM180.338 202.77H186.457V197.057H180.338V202.77ZM211.137 188.627V197.996H200.32V188.627H211.137ZM202.682 196.117H208.75V190.582H202.682V196.117ZM203.037 202.033V200.154H217.967V205.816H205.449V208H218.703V209.93H203.088V204.064H215.605V202.033H203.037ZM215.58 199.062V187.408H217.967V199.062H215.58ZM240.564 187.434V204.242H238.152V195.66H233.176V200.459H222.689V188.932H225.102V192.791H230.789V188.932H233.176V193.705H238.152V187.434H240.564ZM225.102 198.504H230.789V194.645H225.102V198.504ZM225.711 209.676V202.592H228.148V207.721H241.072V209.676H225.711ZM263.771 190.607V192.562H245.059V190.607H253.234V187.738H255.621V190.607H263.771ZM244.068 207.594V205.639H253.234V202.63C249.248 202.376 246.823 200.802 246.836 198.275C246.823 195.533 249.73 193.921 254.428 193.934C259.062 193.921 262.007 195.533 261.994 198.275C262.007 200.802 259.557 202.376 255.621 202.63V205.639H264.889V207.594H244.068ZM249.299 198.275C249.273 199.862 251.178 200.726 254.428 200.738C257.627 200.726 259.544 199.862 259.531 198.275C259.544 196.701 257.627 195.838 254.428 195.838C251.178 195.838 249.273 196.701 249.299 198.275ZM291.752 187.408V199.621H289.34V187.408H291.752ZM273.344 193.73C273.356 190.607 275.921 188.437 279.412 188.449C282.891 188.437 285.455 190.607 285.455 193.73C285.455 196.841 282.891 199.012 279.412 198.986C275.921 199.012 273.356 196.841 273.344 193.73ZM275.705 193.73C275.692 195.698 277.254 197.006 279.412 197.006C281.545 197.006 283.094 195.698 283.094 193.73C283.094 191.788 281.545 190.468 279.412 190.48C277.254 190.468 275.692 191.788 275.705 193.73ZM276.873 209.879V200.713H279.234V203.277H289.365V200.713H291.752V209.879H276.873ZM279.234 207.898H289.365V205.182H279.234V207.898ZM306.199 188.779V195.406H298.684V198.555C302.645 198.555 304.803 198.466 307.367 197.996L307.596 199.951C304.815 200.421 302.479 200.497 297.947 200.51H296.297V193.578H303.787V190.709H296.271V188.779H306.199ZM298.887 204.521V202.566H314.324V210.184H311.912V204.521H298.887ZM307.646 197.412V195.482H311.912V192.664H307.646V190.734H311.912V187.434H314.324V201.424H311.912V197.412H307.646Z" fill="#222222"/>
<path d="M95.6016 233.391V243.547H94.3828V233.391H95.6016ZM84.4609 237.766C84.4531 235.766 86.0234 234.367 88.1016 234.359C90.1797 234.367 91.7344 235.766 91.7422 237.766C91.7344 239.789 90.1797 241.195 88.1016 241.188C86.0234 241.195 84.4531 239.789 84.4609 237.766ZM85.6641 237.766C85.6484 239.148 86.6953 240.109 88.1016 240.109C89.4844 240.109 90.5391 239.148 90.5391 237.766C90.5391 236.406 89.4844 235.438 88.1016 235.438C86.6953 235.438 85.6484 236.406 85.6641 237.766ZM86.6328 246.969V242.516H87.8516V245.938H96.0391V246.969H86.6328ZM110.617 239.984V241H97.9609V239.984H110.617ZM98.6797 238.172C101.102 237.891 103.438 236.695 103.492 235.109H99.1172V234.094H109.492V235.109H105.086C105.141 236.68 107.453 237.891 109.914 238.172L109.461 239.156C107.188 238.867 105.055 237.844 104.289 236.305C103.523 237.844 101.406 238.867 99.1172 239.156L98.6797 238.172ZM99.4922 244.734C99.4844 243.141 101.289 242.219 104.289 242.219C107.266 242.219 109.055 243.141 109.07 244.734C109.055 246.344 107.266 247.234 104.289 247.234C101.289 247.234 99.4844 246.344 99.4922 244.734ZM100.742 244.734C100.727 245.703 102.062 246.258 104.289 246.25C106.492 246.258 107.828 245.703 107.836 244.734C107.828 243.758 106.492 243.203 104.289 243.188C102.062 243.203 100.727 243.758 100.742 244.734ZM116.68 237.109C116.672 239.625 118.289 242.156 120.305 243.078L119.57 244.078C117.992 243.266 116.688 241.609 116.07 239.633C115.453 241.711 114.148 243.492 112.57 244.328L111.773 243.344C113.812 242.344 115.422 239.672 115.43 237.109V234.578H116.68V237.109ZM118.789 239.125V238.125H122.086V233.375H123.305V247.297H122.086V239.125H118.789ZM134.523 237.109C134.516 239.625 136.133 242.156 138.148 243.078L137.414 244.078C135.836 243.266 134.531 241.609 133.914 239.633C133.297 241.711 131.992 243.492 130.414 244.328L129.617 243.344C131.656 242.344 133.266 239.672 133.273 237.109V234.578H134.523V237.109ZM136.633 239.125V238.125H139.93V233.375H141.148V247.297H139.93V239.125H136.633ZM154.977 233.375V241.609H153.742V239.422H150.492V240.609H144.117V234.438H150.492V235.641H153.742V233.375H154.977ZM145.336 239.609H149.289V235.438H145.336V239.609ZM145.711 244.641C145.703 242.969 147.477 242.008 150.367 242.016C153.25 242.008 155.023 242.969 155.023 244.641C155.023 246.297 153.25 247.234 150.367 247.234C147.477 247.234 145.703 246.297 145.711 244.641ZM146.93 244.641C146.922 245.648 148.234 246.266 150.367 246.266C152.492 246.266 153.805 245.648 153.805 244.641C153.805 243.594 152.492 242.984 150.367 242.969C148.234 242.984 146.922 243.594 146.93 244.641ZM150.492 238.391H153.742V236.656H150.492V238.391ZM163.617 233.625C166.703 233.625 168.516 234.477 168.523 236.016C168.516 237.594 166.703 238.445 163.617 238.453C160.516 238.445 158.695 237.594 158.695 236.016C158.695 234.477 160.516 233.625 163.617 233.625ZM157.289 240.391V239.391H169.945V240.391H157.289ZM158.82 242.531V241.594H168.32V244.703H160.07V246.141H168.742V247.109H158.852V243.797H167.117V242.531H158.82ZM159.977 236.016C159.961 236.984 161.312 237.516 163.617 237.516C165.922 237.516 167.266 236.984 167.273 236.016C167.266 235.102 165.922 234.555 163.617 234.547C161.312 234.555 159.961 235.102 159.977 236.016ZM179.711 234.062C181.789 234.047 183.281 235.195 183.273 236.891C183.281 238.586 181.789 239.742 179.711 239.734C177.633 239.742 176.148 238.586 176.148 236.891C176.148 235.195 177.633 234.047 179.711 234.062ZM175.102 240.922C177.711 240.93 181.281 240.875 184.367 240.422L184.445 241.344C183.117 241.586 181.742 241.734 180.398 241.82V246.844H179.18V241.891C177.766 241.953 176.43 241.961 175.273 241.969L175.102 240.922ZM177.352 236.891C177.336 237.977 178.328 238.727 179.711 238.719C181.109 238.727 182.109 237.977 182.102 236.891C182.109 235.812 181.109 235.047 179.711 235.062C178.328 235.047 177.336 235.812 177.352 236.891ZM185.383 247.281V233.391H186.586V247.281H185.383ZM195.898 235.781V236.781H188.93V235.781H191.82V233.797H193.039V235.781H195.898ZM189.43 240.875C189.43 239.031 190.688 237.727 192.414 237.719C194.164 237.727 195.414 239.031 195.43 240.875C195.414 242.742 194.164 244.055 192.414 244.062C190.688 244.055 189.43 242.742 189.43 240.875ZM190.523 240.875C190.523 242.109 191.312 242.992 192.414 242.984C193.523 242.992 194.336 242.109 194.336 240.875C194.336 239.656 193.523 238.766 192.414 238.75C191.312 238.766 190.523 239.656 190.523 240.875ZM196.617 246.578V233.719H197.773V239.234H199.617V233.375H200.789V247.266H199.617V240.25H197.773V246.578H196.617ZM218.258 233.375V247.297H217.023V233.375H218.258ZM207.617 243.938V234.562H208.836V238.234H212.977V234.562H214.18V243.938H207.617ZM208.836 242.906H212.977V239.219H208.836V242.906ZM227.883 234.156V239.812H221.367V234.156H227.883ZM222.57 238.844H226.68V235.156H222.57V238.844ZM223.07 242.219V241.234H232.086V244.547H224.305V246.109H232.586V247.109H223.086V243.641H230.883V242.219H223.07ZM230.883 240.547V233.375H232.086V240.547H230.883ZM245.977 233.391V243.672H244.742V238.328H241.461V241.297H235.164V234.312H236.383V236.781H240.258V234.312H241.461V237.297H244.742V233.391H245.977ZM236.383 240.281H240.258V237.75H236.383V240.281ZM236.992 246.969V242.656H238.227V245.938H246.289V246.969H236.992ZM260.289 235.438V236.453H248.914V235.438H254.008V233.609H255.211V235.438H260.289ZM248.289 245.641V244.625H254.008V242.672C251.531 242.539 250.039 241.578 250.055 240.016C250.039 238.367 251.781 237.391 254.617 237.406C257.414 237.391 259.188 238.367 259.18 240.016C259.188 241.578 257.664 242.539 255.211 242.672V244.625H261.008V245.641H248.289ZM251.289 240.016C251.273 241.07 252.547 241.68 254.617 241.688C256.664 241.68 257.938 241.07 257.93 240.016C257.938 238.984 256.664 238.375 254.617 238.375C252.547 238.375 251.273 238.984 251.289 240.016ZM274.82 239.828V240.797H262.102V239.828H274.82ZM263.633 242.828V241.906H273.227V244.859H264.883V246.188H273.68V247.078H263.648V244.016H272.008V242.828H263.633ZM263.711 234.688V233.797H273.18V236.672H264.977V237.891H273.43V238.781H263.758V235.828H271.945V234.688H263.711ZM291.43 233.375V240.828H290.211V233.375H291.43ZM280.289 237.25C280.281 235.352 281.82 234.047 283.93 234.062C286.039 234.047 287.562 235.352 287.57 237.25C287.562 239.141 286.039 240.445 283.93 240.438C281.82 240.445 280.281 239.141 280.289 237.25ZM281.492 237.25C281.477 238.516 282.5 239.414 283.93 239.422C285.344 239.414 286.367 238.516 286.367 237.25C286.367 235.977 285.344 235.086 283.93 235.094C282.5 235.086 281.477 235.977 281.492 237.25ZM282.43 247.078V241.531H283.648V243.219H290.211V241.531H291.43V247.078H282.43ZM283.648 246.078H290.211V244.203H283.648V246.078ZM300.383 234.234V238.125H295.602V240.281C298.211 240.289 299.562 240.234 301.195 239.938L301.32 240.953C299.594 241.234 298.18 241.281 295.367 241.281H294.383V237.188H299.164V235.219H294.352V234.234H300.383ZM295.945 243.672V242.672H305.305V247.297H304.07V243.672H295.945ZM301.305 239.344V238.328H304.07V236.453H301.305V235.453H304.07V233.391H305.305V241.922H304.07V239.344H301.305ZM314.555 235.781V236.781H307.586V235.781H310.477V233.797H311.695V235.781H314.555ZM308.086 240.875C308.086 239.031 309.344 237.727 311.07 237.719C312.82 237.727 314.07 239.031 314.086 240.875C314.07 242.742 312.82 244.055 311.07 244.062C309.344 244.055 308.086 242.742 308.086 240.875ZM309.18 240.875C309.18 242.109 309.969 242.992 311.07 242.984C312.18 242.992 312.992 242.109 312.992 240.875C312.992 239.656 312.18 238.766 311.07 238.75C309.969 238.766 309.18 239.656 309.18 240.875ZM315.273 246.578V233.719H316.43V239.234H318.273V233.375H319.445V247.266H318.273V240.25H316.43V246.578H315.273ZM328.461 235.344C328.453 237.203 330.93 238.781 333.352 239.141L332.898 240.109C330.734 239.742 328.617 238.586 327.773 236.914C326.93 238.586 324.812 239.742 322.68 240.109L322.195 239.141C324.609 238.781 327.078 237.203 327.086 235.344V235.25H322.633V234.25H332.898V235.25H328.461V235.344ZM321.445 242.312V241.297H334.102V242.312H328.352V247.266H327.148V242.312H321.445ZM339.398 237.328C339.398 239.539 340.477 241.922 342.32 243.016L341.617 243.969C340.273 243.156 339.312 241.672 338.828 239.977C338.32 241.828 337.289 243.422 335.898 244.266L335.117 243.344C337.039 242.219 338.211 239.758 338.211 237.375V234.688H339.398V237.328ZM340.789 239.406V238.359H343.148V233.672H344.305V246.562H343.148V239.406H340.789ZM345.992 247.266V233.375H347.18V247.266H345.992ZM361.82 244.453V245.484H349.102V244.453H352.258V240.711C351.07 240.094 350.352 239.094 350.352 237.828C350.352 235.68 352.461 234.266 355.43 234.25C358.398 234.266 360.508 235.68 360.508 237.828C360.508 239.07 359.812 240.055 358.664 240.672V244.453H361.82ZM351.539 237.828C351.531 239.383 353.148 240.422 355.43 240.422C357.688 240.422 359.32 239.383 359.32 237.828C359.32 236.273 357.688 235.25 355.43 235.266C353.148 235.25 351.531 236.273 351.539 237.828ZM353.461 244.453H357.43V241.148C356.828 241.305 356.156 241.391 355.43 241.391C354.719 241.391 354.055 241.312 353.461 241.156V244.453ZM364.398 246.094C363.852 246.086 363.383 245.633 363.398 245.078C363.383 244.531 363.852 244.078 364.398 244.078C364.953 244.078 365.406 244.531 365.398 245.078C365.406 245.633 364.953 246.086 364.398 246.094Z" fill="#818181"/>
<circle cx="105" cy="311" r="9" fill="#FEE500"/>
<circle cx="153" cy="311" r="9" fill="#FEE500"/>
<rect x="192" y="310" width="18" height="2" fill="#939393"/>
<rect x="240" y="310" width="18" height="2" fill="#939393"/>
<rect x="288" y="310" width="18" height="2" fill="#939393"/>
<rect x="336" y="310" width="18" height="2" fill="#939393"/>
<path d="M74.9854 536.293C70.5176 536.293 67.4414 533.817 67.4561 530.375C67.4414 527.636 69.3457 525.365 71.7627 524.984V524.867C69.6533 524.384 68.2617 522.436 68.2764 520.121C68.2617 516.884 71.1035 514.496 74.9854 514.496C78.8525 514.496 81.6943 516.884 81.7236 520.121C81.6943 522.436 80.2881 524.384 78.208 524.867V524.984C80.6104 525.365 82.5146 527.636 82.5439 530.375C82.5146 533.817 79.4092 536.293 74.9854 536.293ZM70.0928 530.229C70.0488 532.455 71.9385 533.964 74.9854 533.979C78.0176 533.964 79.9072 532.455 79.9072 530.229C79.9072 527.885 77.8418 526.156 74.9854 526.156C72.1436 526.156 70.0488 527.885 70.0928 530.229ZM70.8252 520.326C70.8398 522.465 72.5537 523.915 74.9854 523.93C77.4023 523.915 79.1455 522.465 79.1455 520.326C79.1455 518.202 77.4609 516.767 74.9854 516.781C72.4658 516.767 70.8398 518.202 70.8252 520.326Z" fill="#222222"/>
<path d="M224.854 514.496C228.501 514.54 232.559 516.737 232.559 524.545C232.559 532.089 229.468 536.293 224.502 536.293C220.767 536.293 218.145 534.008 217.617 530.639H220.225C220.693 532.543 222.144 533.949 224.502 533.949C227.959 533.949 230.068 530.961 230.098 525.805H229.805C228.589 527.562 226.641 528.617 224.385 528.617C220.591 528.617 217.441 525.702 217.441 521.615C217.441 517.66 220.342 514.452 224.854 514.496ZM220.02 521.586C220.005 524.208 221.997 526.303 224.766 526.303C227.534 526.303 229.688 524.018 229.688 521.527C229.688 519.096 227.651 516.811 224.854 516.811C222.085 516.811 219.99 518.964 220.02 521.586Z" fill="#222222"/>
<path d="M375.059 536.293C370.84 536.293 367.808 534.037 367.676 530.668H370.342C370.488 532.689 372.495 533.949 375.029 533.949C377.827 533.949 379.849 532.44 379.863 530.229C379.849 527.914 378.003 526.288 374.707 526.273H372.979V523.959H374.707C377.285 523.959 379.087 522.509 379.072 520.326C379.087 518.202 377.534 516.796 375.117 516.781C372.847 516.796 370.781 518.041 370.664 520.121H368.115C368.247 516.752 371.382 514.496 375.146 514.496C379.189 514.496 381.65 517.147 381.621 520.18C381.65 522.597 380.244 524.354 378.018 524.984V525.131C380.786 525.556 382.456 527.533 382.441 530.229C382.456 533.715 379.292 536.293 375.059 536.293Z" fill="#222222"/>
<path d="M68.1885 609L68.1592 607.066L75.3955 599.449C77.9004 596.783 79.1016 595.348 79.1162 593.385C79.1016 591.202 77.2852 589.796 74.8975 589.781C72.3633 589.796 70.7812 591.393 70.7666 593.766H68.2764C68.2471 590.016 71.1475 587.496 74.9854 587.496C78.8379 587.496 81.5625 590.089 81.5771 593.385C81.5625 595.758 80.4639 597.604 76.7139 601.471L71.8506 606.48V606.656H81.958V609H68.1885Z" fill="#222222"/>
<path d="M225.176 609.293C221.499 609.249 217.441 607.066 217.441 599.215C217.441 591.7 220.518 587.496 225.498 587.496C229.233 587.496 231.841 589.796 232.383 593.121H229.775C229.292 591.246 227.856 589.84 225.498 589.84C222.012 589.84 219.917 592.813 219.932 597.926H220.195C221.411 596.153 223.359 595.113 225.645 595.113C229.409 595.113 232.559 598.043 232.559 602.145C232.559 606.144 229.644 609.337 225.176 609.293ZM220.283 602.203C220.298 604.693 222.334 606.964 225.176 606.979C227.915 606.964 229.995 604.811 230.01 602.174C229.995 599.566 228.003 597.442 225.234 597.428C222.451 597.442 220.312 599.698 220.283 602.203Z" fill="#222222"/>
<path d="M377.915 587.789V609H375.249V590.543H375.132L369.976 593.971V591.305L375.249 587.789H377.915Z" fill="#222222"/>
<path d="M67.1045 677.664V675.496L76.6553 660.789H79.9072V675.35H82.8662V677.664H79.9072V682H77.3877V677.664H67.1045ZM69.9463 675.35H77.3877V664.129H77.124L69.9463 675.174V675.35Z" fill="#222222"/>
<path d="M219.39 682L229.116 663.279V663.133H217.896V660.789H231.841V663.25L222.144 682H219.39Z" fill="#222222"/>
<path d="M374.956 682.293C371.133 682.293 368.232 679.935 368.071 676.668H370.62C370.811 678.558 372.656 679.964 374.956 679.979C377.71 679.964 379.702 677.957 379.702 675.291C379.702 672.537 377.637 670.501 374.78 670.486C372.993 670.457 371.602 671.014 370.825 672.391H368.276L369.771 660.789H381.255V663.133H371.968L371.177 669.344H371.382C372.334 668.611 373.755 668.113 375.249 668.113C379.292 668.113 382.266 671.102 382.28 675.232C382.266 679.334 379.189 682.293 374.956 682.293Z" fill="#222222"/>
<path d="M66.7578 737.875V751.766H65.5703V744.547H63.6797V751.062H62.5078V738.172H63.6797V743.5H65.5703V737.875H66.7578ZM54.6797 747.953C56.6797 746.852 57.75 744.492 57.7422 741.672V740.562H55.0078V739.531H61.5078V740.562H58.9297V741.672C58.9297 744.211 59.9844 746.453 61.9609 747.469L61.2266 748.422C59.8281 747.656 58.8594 746.289 58.3672 744.594C57.8906 746.523 56.9062 748.039 55.4453 748.891L54.6797 747.953ZM70.3359 739.203V742.594H73.3516V739.203H74.4922V748.297H69.1641V739.203H70.3359ZM70.3359 747.281H73.3516V743.594H70.3359V747.281ZM76.2578 751.062V738.172H77.4297V743.391H79.3672V737.875H80.5547V751.766H79.3672V744.406H77.4297V751.062H76.2578ZM86.3047 738.375C87.5312 738.367 88.5625 738.82 89.2031 739.578H92.7578V737.875H93.9766V745.016H92.7578V743.422H89.2344C88.6016 744.211 87.5547 744.68 86.3047 744.672C84.2109 744.68 82.6875 743.398 82.6953 741.516C82.6875 739.648 84.2109 738.367 86.3047 738.375ZM83.8672 741.516C83.8672 742.773 84.8828 743.672 86.3047 743.688C87.6797 743.672 88.7109 742.773 88.7109 741.516C88.7109 740.266 87.6797 739.375 86.3047 739.391C84.8828 739.375 83.8672 740.266 83.8672 741.516ZM84.9766 746.703V745.719H93.9766V749.047H86.2266V750.594H94.5078V751.578H85.0078V748.109H92.7578V746.703H84.9766ZM89.75 740.562C89.8438 740.859 89.8984 741.18 89.8984 741.516C89.8984 741.844 89.8516 742.148 89.7578 742.438H92.7578V740.562H89.75Z" fill="#222222"/>
<path d="M225 755.293C220.298 755.293 217.573 751.338 217.588 744.395C217.573 737.51 220.327 733.496 225 733.496C229.658 733.496 232.412 737.51 232.412 744.395C232.412 751.338 229.702 755.293 225 755.293ZM220.137 744.395C220.151 749.888 221.924 752.949 225 752.949C228.062 752.949 229.849 749.888 229.834 744.395C229.849 738.901 228.047 735.796 225 735.781C221.953 735.796 220.151 738.901 220.137 744.395Z" fill="#222222"/>
<mask id="mask0_238_2412" style="mask-type:alpha" maskUnits="userSpaceOnUse" x="355" y="724" width="40" height="41">
<rect x="355" y="724.5" width="40" height="40" fill="#D9D9D9"/>
</mask>
<g mask="url(#mask0_238_2412)">
<path d="M370.641 754.5C370.043 754.5 369.479 754.364 368.95 754.093C368.421 753.822 367.983 753.442 367.634 752.955L362.785 746.064C362.454 745.588 362.288 745.066 362.288 744.5C362.288 743.934 362.454 743.413 362.785 742.936L367.634 736.109C367.983 735.622 368.416 735.232 368.934 734.939C369.452 734.646 370.021 734.5 370.641 734.5H385.641C386.386 734.5 387.022 734.762 387.546 735.287C388.071 735.811 388.333 736.447 388.333 737.192V751.808C388.333 752.553 388.071 753.189 387.546 753.713C387.022 754.238 386.386 754.5 385.641 754.5H370.641ZM370.641 752.833H385.641C385.897 752.833 386.132 752.727 386.346 752.513C386.56 752.299 386.666 752.064 386.666 751.808V737.192C386.666 736.936 386.56 736.701 386.346 736.487C386.132 736.273 385.897 736.167 385.641 736.167H370.641C370.32 736.167 370.016 736.247 369.727 736.407C369.439 736.567 369.209 736.765 369.038 737L364.115 743.891C363.987 744.062 363.923 744.265 363.923 744.5C363.923 744.735 363.987 744.938 364.115 745.109L369.038 752C369.209 752.235 369.439 752.433 369.727 752.593C370.016 752.753 370.32 752.833 370.641 752.833ZM377.756 745.68L381.5 749.423C381.656 749.579 381.847 749.662 382.074 749.673C382.3 749.684 382.502 749.6 382.679 749.423C382.857 749.246 382.945 749.049 382.945 748.833C382.945 748.618 382.857 748.421 382.679 748.244L378.936 744.5L382.679 740.756C382.835 740.6 382.919 740.409 382.929 740.183C382.94 739.956 382.857 739.754 382.679 739.577C382.502 739.4 382.305 739.311 382.089 739.311C381.874 739.311 381.677 739.4 381.5 739.577L377.756 743.32L374.013 739.577C373.857 739.421 373.665 739.338 373.439 739.327C373.212 739.316 373.01 739.4 372.833 739.577C372.656 739.754 372.567 739.951 372.567 740.167C372.567 740.383 372.656 740.579 372.833 740.756L376.577 744.5L372.833 748.244C372.677 748.4 372.594 748.591 372.583 748.817C372.573 749.044 372.656 749.246 372.833 749.423C373.01 749.6 373.207 749.689 373.423 749.689C373.639 749.689 373.835 749.6 374.013 749.423L377.756 745.68Z" fill="#797378"/>
</g>
</svg>
