<svg width="450" height="851" viewBox="0 0 450 851" fill="none" xmlns="http://www.w3.org/2000/svg">
<rect width="450" height="851" fill="white"/>
<path d="M134.889 214.617H138.291L144.105 228.861H144.334L150.148 214.617H153.551V233H150.885V219.721H150.707L145.324 232.975H143.115L137.707 219.695H137.555V233H134.889V214.617ZM158.756 238.18C158.197 238.167 157.651 238.154 157.309 238.104V235.844C157.613 235.869 158.146 235.882 158.527 235.895C159.365 235.882 160.063 235.831 160.711 234.092L161.041 233.178L155.988 219.213H158.883L162.361 229.902H162.514L165.992 219.213H168.912L163.225 234.828C162.425 237.012 161.028 238.167 158.756 238.18ZM195.496 212.408V235.209H193.084V212.408H195.496ZM177.926 229.75V214.312H180.338V220.152H186.457V214.312H188.844V229.75H177.926ZM180.338 227.77H186.457V222.057H180.338V227.77ZM211.137 213.627V222.996H200.32V213.627H211.137ZM202.682 221.117H208.75V215.582H202.682V221.117ZM203.037 227.033V225.154H217.967V230.816H205.449V233H218.703V234.93H203.088V229.064H215.605V227.033H203.037ZM215.58 224.062V212.408H217.967V224.062H215.58ZM240.564 212.434V229.242H238.152V220.66H233.176V225.459H222.689V213.932H225.102V217.791H230.789V213.932H233.176V218.705H238.152V212.434H240.564ZM225.102 223.504H230.789V219.645H225.102V223.504ZM225.711 234.676V227.592H228.148V232.721H241.072V234.676H225.711ZM263.771 215.607V217.562H245.059V215.607H253.234V212.738H255.621V215.607H263.771ZM244.068 232.594V230.639H253.234V227.63C249.248 227.376 246.823 225.802 246.836 223.275C246.823 220.533 249.73 218.921 254.428 218.934C259.062 218.921 262.007 220.533 261.994 223.275C262.007 225.802 259.557 227.376 255.621 227.63V230.639H264.889V232.594H244.068ZM249.299 223.275C249.273 224.862 251.178 225.726 254.428 225.738C257.627 225.726 259.544 224.862 259.531 223.275C259.544 221.701 257.627 220.838 254.428 220.838C251.178 220.838 249.273 221.701 249.299 223.275ZM291.752 212.408V224.621H289.34V212.408H291.752ZM273.344 218.73C273.356 215.607 275.921 213.437 279.412 213.449C282.891 213.437 285.455 215.607 285.455 218.73C285.455 221.841 282.891 224.012 279.412 223.986C275.921 224.012 273.356 221.841 273.344 218.73ZM275.705 218.73C275.692 220.698 277.254 222.006 279.412 222.006C281.545 222.006 283.094 220.698 283.094 218.73C283.094 216.788 281.545 215.468 279.412 215.48C277.254 215.468 275.692 216.788 275.705 218.73ZM276.873 234.879V225.713H279.234V228.277H289.365V225.713H291.752V234.879H276.873ZM279.234 232.898H289.365V230.182H279.234V232.898ZM306.199 213.779V220.406H298.684V223.555C302.645 223.555 304.803 223.466 307.367 222.996L307.596 224.951C304.815 225.421 302.479 225.497 297.947 225.51H296.297V218.578H303.787V215.709H296.271V213.779H306.199ZM298.887 229.521V227.566H314.324V235.184H311.912V229.521H298.887ZM307.646 222.412V220.482H311.912V217.664H307.646V215.734H311.912V212.434H314.324V226.424H311.912V222.412H307.646Z" fill="#222222"/>
<path d="M95.6016 258.391V268.547H94.3828V258.391H95.6016ZM84.4609 262.766C84.4531 260.766 86.0234 259.367 88.1016 259.359C90.1797 259.367 91.7344 260.766 91.7422 262.766C91.7344 264.789 90.1797 266.195 88.1016 266.188C86.0234 266.195 84.4531 264.789 84.4609 262.766ZM85.6641 262.766C85.6484 264.148 86.6953 265.109 88.1016 265.109C89.4844 265.109 90.5391 264.148 90.5391 262.766C90.5391 261.406 89.4844 260.438 88.1016 260.438C86.6953 260.438 85.6484 261.406 85.6641 262.766ZM86.6328 271.969V267.516H87.8516V270.938H96.0391V271.969H86.6328ZM110.617 264.984V266H97.9609V264.984H110.617ZM98.6797 263.172C101.102 262.891 103.438 261.695 103.492 260.109H99.1172V259.094H109.492V260.109H105.086C105.141 261.68 107.453 262.891 109.914 263.172L109.461 264.156C107.188 263.867 105.055 262.844 104.289 261.305C103.523 262.844 101.406 263.867 99.1172 264.156L98.6797 263.172ZM99.4922 269.734C99.4844 268.141 101.289 267.219 104.289 267.219C107.266 267.219 109.055 268.141 109.07 269.734C109.055 271.344 107.266 272.234 104.289 272.234C101.289 272.234 99.4844 271.344 99.4922 269.734ZM100.742 269.734C100.727 270.703 102.062 271.258 104.289 271.25C106.492 271.258 107.828 270.703 107.836 269.734C107.828 268.758 106.492 268.203 104.289 268.188C102.062 268.203 100.727 268.758 100.742 269.734ZM116.68 262.109C116.672 264.625 118.289 267.156 120.305 268.078L119.57 269.078C117.992 268.266 116.688 266.609 116.07 264.633C115.453 266.711 114.148 268.492 112.57 269.328L111.773 268.344C113.812 267.344 115.422 264.672 115.43 262.109V259.578H116.68V262.109ZM118.789 264.125V263.125H122.086V258.375H123.305V272.297H122.086V264.125H118.789ZM134.523 262.109C134.516 264.625 136.133 267.156 138.148 268.078L137.414 269.078C135.836 268.266 134.531 266.609 133.914 264.633C133.297 266.711 131.992 268.492 130.414 269.328L129.617 268.344C131.656 267.344 133.266 264.672 133.273 262.109V259.578H134.523V262.109ZM136.633 264.125V263.125H139.93V258.375H141.148V272.297H139.93V264.125H136.633ZM154.977 258.375V266.609H153.742V264.422H150.492V265.609H144.117V259.438H150.492V260.641H153.742V258.375H154.977ZM145.336 264.609H149.289V260.438H145.336V264.609ZM145.711 269.641C145.703 267.969 147.477 267.008 150.367 267.016C153.25 267.008 155.023 267.969 155.023 269.641C155.023 271.297 153.25 272.234 150.367 272.234C147.477 272.234 145.703 271.297 145.711 269.641ZM146.93 269.641C146.922 270.648 148.234 271.266 150.367 271.266C152.492 271.266 153.805 270.648 153.805 269.641C153.805 268.594 152.492 267.984 150.367 267.969C148.234 267.984 146.922 268.594 146.93 269.641ZM150.492 263.391H153.742V261.656H150.492V263.391ZM163.617 258.625C166.703 258.625 168.516 259.477 168.523 261.016C168.516 262.594 166.703 263.445 163.617 263.453C160.516 263.445 158.695 262.594 158.695 261.016C158.695 259.477 160.516 258.625 163.617 258.625ZM157.289 265.391V264.391H169.945V265.391H157.289ZM158.82 267.531V266.594H168.32V269.703H160.07V271.141H168.742V272.109H158.852V268.797H167.117V267.531H158.82ZM159.977 261.016C159.961 261.984 161.312 262.516 163.617 262.516C165.922 262.516 167.266 261.984 167.273 261.016C167.266 260.102 165.922 259.555 163.617 259.547C161.312 259.555 159.961 260.102 159.977 261.016ZM179.711 259.062C181.789 259.047 183.281 260.195 183.273 261.891C183.281 263.586 181.789 264.742 179.711 264.734C177.633 264.742 176.148 263.586 176.148 261.891C176.148 260.195 177.633 259.047 179.711 259.062ZM175.102 265.922C177.711 265.93 181.281 265.875 184.367 265.422L184.445 266.344C183.117 266.586 181.742 266.734 180.398 266.82V271.844H179.18V266.891C177.766 266.953 176.43 266.961 175.273 266.969L175.102 265.922ZM177.352 261.891C177.336 262.977 178.328 263.727 179.711 263.719C181.109 263.727 182.109 262.977 182.102 261.891C182.109 260.812 181.109 260.047 179.711 260.062C178.328 260.047 177.336 260.812 177.352 261.891ZM185.383 272.281V258.391H186.586V272.281H185.383ZM195.898 260.781V261.781H188.93V260.781H191.82V258.797H193.039V260.781H195.898ZM189.43 265.875C189.43 264.031 190.688 262.727 192.414 262.719C194.164 262.727 195.414 264.031 195.43 265.875C195.414 267.742 194.164 269.055 192.414 269.062C190.688 269.055 189.43 267.742 189.43 265.875ZM190.523 265.875C190.523 267.109 191.312 267.992 192.414 267.984C193.523 267.992 194.336 267.109 194.336 265.875C194.336 264.656 193.523 263.766 192.414 263.75C191.312 263.766 190.523 264.656 190.523 265.875ZM196.617 271.578V258.719H197.773V264.234H199.617V258.375H200.789V272.266H199.617V265.25H197.773V271.578H196.617ZM218.258 258.375V272.297H217.023V258.375H218.258ZM207.617 268.938V259.562H208.836V263.234H212.977V259.562H214.18V268.938H207.617ZM208.836 267.906H212.977V264.219H208.836V267.906ZM227.883 259.156V264.812H221.367V259.156H227.883ZM222.57 263.844H226.68V260.156H222.57V263.844ZM223.07 267.219V266.234H232.086V269.547H224.305V271.109H232.586V272.109H223.086V268.641H230.883V267.219H223.07ZM230.883 265.547V258.375H232.086V265.547H230.883ZM245.977 258.391V268.672H244.742V263.328H241.461V266.297H235.164V259.312H236.383V261.781H240.258V259.312H241.461V262.297H244.742V258.391H245.977ZM236.383 265.281H240.258V262.75H236.383V265.281ZM236.992 271.969V267.656H238.227V270.938H246.289V271.969H236.992ZM260.289 260.438V261.453H248.914V260.438H254.008V258.609H255.211V260.438H260.289ZM248.289 270.641V269.625H254.008V267.672C251.531 267.539 250.039 266.578 250.055 265.016C250.039 263.367 251.781 262.391 254.617 262.406C257.414 262.391 259.188 263.367 259.18 265.016C259.188 266.578 257.664 267.539 255.211 267.672V269.625H261.008V270.641H248.289ZM251.289 265.016C251.273 266.07 252.547 266.68 254.617 266.688C256.664 266.68 257.938 266.07 257.93 265.016C257.938 263.984 256.664 263.375 254.617 263.375C252.547 263.375 251.273 263.984 251.289 265.016ZM274.82 264.828V265.797H262.102V264.828H274.82ZM263.633 267.828V266.906H273.227V269.859H264.883V271.188H273.68V272.078H263.648V269.016H272.008V267.828H263.633ZM263.711 259.688V258.797H273.18V261.672H264.977V262.891H273.43V263.781H263.758V260.828H271.945V259.688H263.711ZM291.43 258.375V265.828H290.211V258.375H291.43ZM280.289 262.25C280.281 260.352 281.82 259.047 283.93 259.062C286.039 259.047 287.562 260.352 287.57 262.25C287.562 264.141 286.039 265.445 283.93 265.438C281.82 265.445 280.281 264.141 280.289 262.25ZM281.492 262.25C281.477 263.516 282.5 264.414 283.93 264.422C285.344 264.414 286.367 263.516 286.367 262.25C286.367 260.977 285.344 260.086 283.93 260.094C282.5 260.086 281.477 260.977 281.492 262.25ZM282.43 272.078V266.531H283.648V268.219H290.211V266.531H291.43V272.078H282.43ZM283.648 271.078H290.211V269.203H283.648V271.078ZM300.383 259.234V263.125H295.602V265.281C298.211 265.289 299.562 265.234 301.195 264.938L301.32 265.953C299.594 266.234 298.18 266.281 295.367 266.281H294.383V262.188H299.164V260.219H294.352V259.234H300.383ZM295.945 268.672V267.672H305.305V272.297H304.07V268.672H295.945ZM301.305 264.344V263.328H304.07V261.453H301.305V260.453H304.07V258.391H305.305V266.922H304.07V264.344H301.305ZM314.555 260.781V261.781H307.586V260.781H310.477V258.797H311.695V260.781H314.555ZM308.086 265.875C308.086 264.031 309.344 262.727 311.07 262.719C312.82 262.727 314.07 264.031 314.086 265.875C314.07 267.742 312.82 269.055 311.07 269.062C309.344 269.055 308.086 267.742 308.086 265.875ZM309.18 265.875C309.18 267.109 309.969 267.992 311.07 267.984C312.18 267.992 312.992 267.109 312.992 265.875C312.992 264.656 312.18 263.766 311.07 263.75C309.969 263.766 309.18 264.656 309.18 265.875ZM315.273 271.578V258.719H316.43V264.234H318.273V258.375H319.445V272.266H318.273V265.25H316.43V271.578H315.273ZM328.461 260.344C328.453 262.203 330.93 263.781 333.352 264.141L332.898 265.109C330.734 264.742 328.617 263.586 327.773 261.914C326.93 263.586 324.812 264.742 322.68 265.109L322.195 264.141C324.609 263.781 327.078 262.203 327.086 260.344V260.25H322.633V259.25H332.898V260.25H328.461V260.344ZM321.445 267.312V266.297H334.102V267.312H328.352V272.266H327.148V267.312H321.445ZM339.398 262.328C339.398 264.539 340.477 266.922 342.32 268.016L341.617 268.969C340.273 268.156 339.312 266.672 338.828 264.977C338.32 266.828 337.289 268.422 335.898 269.266L335.117 268.344C337.039 267.219 338.211 264.758 338.211 262.375V259.688H339.398V262.328ZM340.789 264.406V263.359H343.148V258.672H344.305V271.562H343.148V264.406H340.789ZM345.992 272.266V258.375H347.18V272.266H345.992ZM361.82 269.453V270.484H349.102V269.453H352.258V265.711C351.07 265.094 350.352 264.094 350.352 262.828C350.352 260.68 352.461 259.266 355.43 259.25C358.398 259.266 360.508 260.68 360.508 262.828C360.508 264.07 359.812 265.055 358.664 265.672V269.453H361.82ZM351.539 262.828C351.531 264.383 353.148 265.422 355.43 265.422C357.688 265.422 359.32 264.383 359.32 262.828C359.32 261.273 357.688 260.25 355.43 260.266C353.148 260.25 351.531 261.273 351.539 262.828ZM353.461 269.453H357.43V266.148C356.828 266.305 356.156 266.391 355.43 266.391C354.719 266.391 354.055 266.312 353.461 266.156V269.453ZM364.398 271.094C363.852 271.086 363.383 270.633 363.398 270.078C363.383 269.531 363.852 269.078 364.398 269.078C364.953 269.078 365.406 269.531 365.398 270.078C365.406 270.633 364.953 271.086 364.398 271.094Z" fill="#818181"/>
<rect x="96" y="335" width="18" height="2" fill="#939393"/>
<rect x="144" y="335" width="18" height="2" fill="#939393"/>
<rect x="192" y="335" width="18" height="2" fill="#939393"/>
<rect x="240" y="335" width="18" height="2" fill="#939393"/>
<rect x="288" y="335" width="18" height="2" fill="#939393"/>
<rect x="336" y="335" width="18" height="2" fill="#939393"/>
<path d="M74.9854 586.293C70.5176 586.293 67.4414 583.817 67.4561 580.375C67.4414 577.636 69.3457 575.365 71.7627 574.984V574.867C69.6533 574.384 68.2617 572.436 68.2764 570.121C68.2617 566.884 71.1035 564.496 74.9854 564.496C78.8525 564.496 81.6943 566.884 81.7236 570.121C81.6943 572.436 80.2881 574.384 78.208 574.867V574.984C80.6104 575.365 82.5146 577.636 82.5439 580.375C82.5146 583.817 79.4092 586.293 74.9854 586.293ZM70.0928 580.229C70.0488 582.455 71.9385 583.964 74.9854 583.979C78.0176 583.964 79.9072 582.455 79.9072 580.229C79.9072 577.885 77.8418 576.156 74.9854 576.156C72.1436 576.156 70.0488 577.885 70.0928 580.229ZM70.8252 570.326C70.8398 572.465 72.5537 573.915 74.9854 573.93C77.4023 573.915 79.1455 572.465 79.1455 570.326C79.1455 568.202 77.4609 566.767 74.9854 566.781C72.4658 566.767 70.8398 568.202 70.8252 570.326Z" fill="#222222"/>
<path d="M224.854 564.496C228.501 564.54 232.559 566.737 232.559 574.545C232.559 582.089 229.468 586.293 224.502 586.293C220.767 586.293 218.145 584.008 217.617 580.639H220.225C220.693 582.543 222.144 583.949 224.502 583.949C227.959 583.949 230.068 580.961 230.098 575.805H229.805C228.589 577.562 226.641 578.617 224.385 578.617C220.591 578.617 217.441 575.702 217.441 571.615C217.441 567.66 220.342 564.452 224.854 564.496ZM220.02 571.586C220.005 574.208 221.997 576.303 224.766 576.303C227.534 576.303 229.688 574.018 229.688 571.527C229.688 569.096 227.651 566.811 224.854 566.811C222.085 566.811 219.99 568.964 220.02 571.586Z" fill="#222222"/>
<path d="M375.059 586.293C370.84 586.293 367.808 584.037 367.676 580.668H370.342C370.488 582.689 372.495 583.949 375.029 583.949C377.827 583.949 379.849 582.44 379.863 580.229C379.849 577.914 378.003 576.288 374.707 576.273H372.979V573.959H374.707C377.285 573.959 379.087 572.509 379.072 570.326C379.087 568.202 377.534 566.796 375.117 566.781C372.847 566.796 370.781 568.041 370.664 570.121H368.115C368.247 566.752 371.382 564.496 375.146 564.496C379.189 564.496 381.65 567.147 381.621 570.18C381.65 572.597 380.244 574.354 378.018 574.984V575.131C380.786 575.556 382.456 577.533 382.441 580.229C382.456 583.715 379.292 586.293 375.059 586.293Z" fill="#222222"/>
<path d="M68.1885 659L68.1592 657.066L75.3955 649.449C77.9004 646.783 79.1016 645.348 79.1162 643.385C79.1016 641.202 77.2852 639.796 74.8975 639.781C72.3633 639.796 70.7812 641.393 70.7666 643.766H68.2764C68.2471 640.016 71.1475 637.496 74.9854 637.496C78.8379 637.496 81.5625 640.089 81.5771 643.385C81.5625 645.758 80.4639 647.604 76.7139 651.471L71.8506 656.48V656.656H81.958V659H68.1885Z" fill="#222222"/>
<path d="M225.176 659.293C221.499 659.249 217.441 657.066 217.441 649.215C217.441 641.7 220.518 637.496 225.498 637.496C229.233 637.496 231.841 639.796 232.383 643.121H229.775C229.292 641.246 227.856 639.84 225.498 639.84C222.012 639.84 219.917 642.813 219.932 647.926H220.195C221.411 646.153 223.359 645.113 225.645 645.113C229.409 645.113 232.559 648.043 232.559 652.145C232.559 656.144 229.644 659.337 225.176 659.293ZM220.283 652.203C220.298 654.693 222.334 656.964 225.176 656.979C227.915 656.964 229.995 654.811 230.01 652.174C229.995 649.566 228.003 647.442 225.234 647.428C222.451 647.442 220.312 649.698 220.283 652.203Z" fill="#222222"/>
<path d="M377.915 637.789V659H375.249V640.543H375.132L369.976 643.971V641.305L375.249 637.789H377.915Z" fill="#222222"/>
<path d="M67.1045 727.664V725.496L76.6553 710.789H79.9072V725.35H82.8662V727.664H79.9072V732H77.3877V727.664H67.1045ZM69.9463 725.35H77.3877V714.129H77.124L69.9463 725.174V725.35Z" fill="#222222"/>
<path d="M219.39 732L229.116 713.279V713.133H217.896V710.789H231.841V713.25L222.144 732H219.39Z" fill="#222222"/>
<path d="M374.956 732.293C371.133 732.293 368.232 729.935 368.071 726.668H370.62C370.811 728.558 372.656 729.964 374.956 729.979C377.71 729.964 379.702 727.957 379.702 725.291C379.702 722.537 377.637 720.501 374.78 720.486C372.993 720.457 371.602 721.014 370.825 722.391H368.276L369.771 710.789H381.255V713.133H371.968L371.177 719.344H371.382C372.334 718.611 373.755 718.113 375.249 718.113C379.292 718.113 382.266 721.102 382.28 725.232C382.266 729.334 379.189 732.293 374.956 732.293Z" fill="#222222"/>
<path d="M66.7578 787.875V801.766H65.5703V794.547H63.6797V801.062H62.5078V788.172H63.6797V793.5H65.5703V787.875H66.7578ZM54.6797 797.953C56.6797 796.852 57.75 794.492 57.7422 791.672V790.562H55.0078V789.531H61.5078V790.562H58.9297V791.672C58.9297 794.211 59.9844 796.453 61.9609 797.469L61.2266 798.422C59.8281 797.656 58.8594 796.289 58.3672 794.594C57.8906 796.523 56.9062 798.039 55.4453 798.891L54.6797 797.953ZM70.3359 789.203V792.594H73.3516V789.203H74.4922V798.297H69.1641V789.203H70.3359ZM70.3359 797.281H73.3516V793.594H70.3359V797.281ZM76.2578 801.062V788.172H77.4297V793.391H79.3672V787.875H80.5547V801.766H79.3672V794.406H77.4297V801.062H76.2578ZM86.3047 788.375C87.5312 788.367 88.5625 788.82 89.2031 789.578H92.7578V787.875H93.9766V795.016H92.7578V793.422H89.2344C88.6016 794.211 87.5547 794.68 86.3047 794.672C84.2109 794.68 82.6875 793.398 82.6953 791.516C82.6875 789.648 84.2109 788.367 86.3047 788.375ZM83.8672 791.516C83.8672 792.773 84.8828 793.672 86.3047 793.688C87.6797 793.672 88.7109 792.773 88.7109 791.516C88.7109 790.266 87.6797 789.375 86.3047 789.391C84.8828 789.375 83.8672 790.266 83.8672 791.516ZM84.9766 796.703V795.719H93.9766V799.047H86.2266V800.594H94.5078V801.578H85.0078V798.109H92.7578V796.703H84.9766ZM89.75 790.562C89.8438 790.859 89.8984 791.18 89.8984 791.516C89.8984 791.844 89.8516 792.148 89.7578 792.438H92.7578V790.562H89.75Z" fill="#222222"/>
<path d="M225 805.293C220.298 805.293 217.573 801.338 217.588 794.395C217.573 787.51 220.327 783.496 225 783.496C229.658 783.496 232.412 787.51 232.412 794.395C232.412 801.338 229.702 805.293 225 805.293ZM220.137 794.395C220.151 799.888 221.924 802.949 225 802.949C228.062 802.949 229.849 799.888 229.834 794.395C229.849 788.901 228.047 785.796 225 785.781C221.953 785.796 220.151 788.901 220.137 794.395Z" fill="#222222"/>
<mask id="mask0_233_3580" style="mask-type:alpha" maskUnits="userSpaceOnUse" x="355" y="774" width="40" height="41">
<rect x="355" y="774.5" width="40" height="40" fill="#D9D9D9"/>
</mask>
<g mask="url(#mask0_233_3580)">
<path d="M370.641 804.5C370.043 804.5 369.479 804.364 368.95 804.093C368.421 803.822 367.983 803.442 367.634 802.955L362.785 796.064C362.454 795.588 362.288 795.066 362.288 794.5C362.288 793.934 362.454 793.413 362.785 792.936L367.634 786.109C367.983 785.622 368.416 785.232 368.934 784.939C369.452 784.646 370.021 784.5 370.641 784.5H385.641C386.386 784.5 387.022 784.762 387.546 785.287C388.071 785.811 388.333 786.447 388.333 787.192V801.808C388.333 802.553 388.071 803.189 387.546 803.713C387.022 804.238 386.386 804.5 385.641 804.5H370.641ZM370.641 802.833H385.641C385.897 802.833 386.132 802.727 386.346 802.513C386.56 802.299 386.666 802.064 386.666 801.808V787.192C386.666 786.936 386.56 786.701 386.346 786.487C386.132 786.273 385.897 786.167 385.641 786.167H370.641C370.32 786.167 370.016 786.247 369.727 786.407C369.439 786.567 369.209 786.765 369.038 787L364.115 793.891C363.987 794.062 363.923 794.265 363.923 794.5C363.923 794.735 363.987 794.938 364.115 795.109L369.038 802C369.209 802.235 369.439 802.433 369.727 802.593C370.016 802.753 370.32 802.833 370.641 802.833ZM377.756 795.68L381.5 799.423C381.656 799.579 381.847 799.662 382.074 799.673C382.3 799.684 382.502 799.6 382.679 799.423C382.857 799.246 382.945 799.049 382.945 798.833C382.945 798.618 382.857 798.421 382.679 798.244L378.936 794.5L382.679 790.756C382.835 790.6 382.919 790.409 382.929 790.182C382.94 789.956 382.857 789.754 382.679 789.577C382.502 789.4 382.305 789.311 382.089 789.311C381.874 789.311 381.677 789.4 381.5 789.577L377.756 793.32L374.013 789.577C373.857 789.421 373.665 789.338 373.439 789.327C373.212 789.316 373.01 789.4 372.833 789.577C372.656 789.754 372.567 789.951 372.567 790.167C372.567 790.383 372.656 790.579 372.833 790.756L376.577 794.5L372.833 798.244C372.677 798.4 372.594 798.591 372.583 798.817C372.573 799.044 372.656 799.246 372.833 799.423C373.01 799.6 373.207 799.689 373.423 799.689C373.639 799.689 373.835 799.6 374.013 799.423L377.756 795.68Z" fill="#797378"/>
</g>
</svg>
