<svg width="450" height="851" viewBox="0 0 450 851" fill="none" xmlns="http://www.w3.org/2000/svg">
<g clip-path="url(#clip0_238_323)">
<rect width="450" height="851" fill="#EFF6F8"/>
<g filter="url(#filter0_d_238_323)">
<rect width="450" height="100" fill="white"/>
<g clip-path="url(#clip1_238_323)">
<path d="M28.8356 32.9948L28.8073 31.754C23.9761 31.7414 21.8589 28.7163 21.84 26.263C21.8212 24.3814 23.1154 22.3867 25.2608 22.3678C27.0702 22.3521 27.9749 23.7814 27.9749 23.7814C27.9749 23.7814 28.7319 22.327 30.7392 22.3082C32.1685 22.2956 34.0941 23.4987 34.1192 26.285C34.1412 28.9048 32.2533 31.7759 28.8388 32.9948M27.9058 16.0005C21.35 16.057 15.947 20.8538 16.0004 27.0389C16.0255 30.1268 17.6181 33.2806 20.4516 35.3601L19.7165 38.9192C33.5475 42.9086 40.0531 32.8534 39.9997 26.8536C39.9494 20.7375 34.5778 15.944 27.9058 16.0005Z" fill="#EF403C"/>
<path d="M28.9495 37.7377L28.8364 32.9944C26.7506 33.7389 24.0962 33.8677 20.955 32.9473L20.4555 35.3598C22.6136 36.943 25.4878 37.9042 28.9495 37.7377Z" fill="#850E11"/>
</g>
<path d="M61 20.9648C61 25.2715 58.2842 28.1895 53.4414 29.4199L52.4746 27.4512C55.9902 26.5811 57.8975 24.9023 58.2666 22.916H53.4414V20.9648H61ZM55.1465 35.9941V29.666H65.9746V35.9941H55.1465ZM57.6602 34.0254H63.4961V31.6348H57.6602V34.0254ZM63.4434 29.0332V20.0684H65.9746V29.0332H63.4434ZM70.7734 21.457V25.0078H72.5312V21.457H74.8867V32.4258H68.3828V21.457H70.7734ZM70.7734 30.4043H72.5312V26.9766H70.7734V30.4043ZM75.9941 35.4668V20.2617H78.3848V26.1328H79.5801V20.0508H82.0059V36.1875H79.5801V28.1895H78.3848V35.4668H75.9941ZM90.8828 20.2441C94.4951 20.2529 96.7979 21.4395 96.8066 23.4082C96.7979 25.3418 94.4951 26.502 90.8828 26.502C87.2969 26.502 84.9502 25.3418 84.959 23.4082C84.9502 21.4395 87.2969 20.2529 90.8828 20.2441ZM83.5352 29.209V27.2051H98.248V29.209H92.1309V30.457H96.4902V36.0117H85.2227V30.457H89.5996V29.209H83.5352ZM87.5957 23.4082C87.5781 24.208 88.7471 24.5859 90.8828 24.5859C93.001 24.5859 94.1875 24.208 94.1875 23.4082C94.1875 22.5645 93.001 22.1689 90.8828 22.1777C88.7471 22.1689 87.5781 22.5645 87.5957 23.4082ZM87.7012 33.9902H94.0293V32.4434H87.7012V33.9902Z" fill="#323142"/>
<path d="M114.518 20.2969V29.1738H113.164V20.2969H114.518ZM102.617 27.9785V21.2285H104.006V26.8008C106.59 26.7832 108.901 26.6074 111.389 26.0801L111.6 27.2402C108.954 27.7764 106.581 27.9609 103.883 27.9785H102.617ZM104.375 35.7129V29.8945H114.518V35.7129H104.375ZM105.729 34.5879H113.164V31.002H105.729V34.5879Z" fill="#323142"/>
<circle cx="380" cy="28" r="18" fill="#E8E9F3"/>
<path d="M370.573 26.907C370.984 26.9143 371.365 26.8813 371.717 26.808C372.069 26.7273 372.373 26.6063 372.63 26.445C372.887 26.2837 373.088 26.082 373.235 25.84C373.382 25.598 373.455 25.312 373.455 24.982V24.861C373.455 24.6997 373.371 24.619 373.202 24.619H370.716C370.555 24.619 370.415 24.5933 370.298 24.542C370.188 24.4907 370.096 24.4247 370.023 24.344C369.95 24.256 369.895 24.1607 369.858 24.058C369.829 23.9553 369.814 23.849 369.814 23.739C369.814 23.629 369.829 23.5227 369.858 23.42C369.895 23.3173 369.95 23.2257 370.023 23.145C370.096 23.057 370.188 22.9873 370.298 22.936C370.415 22.8847 370.555 22.859 370.716 22.859H374.049C374.65 22.859 375.065 22.9837 375.292 23.233C375.527 23.475 375.644 23.8453 375.644 24.344V24.927C375.644 24.9637 375.644 25.004 375.644 25.048C375.644 25.0847 375.64 25.1213 375.633 25.158H377.162V23.574C377.162 23.222 377.272 22.958 377.492 22.782C377.712 22.5987 377.965 22.507 378.251 22.507C378.39 22.507 378.526 22.5327 378.658 22.584C378.79 22.628 378.907 22.694 379.01 22.782C379.113 22.87 379.193 22.98 379.252 23.112C379.318 23.244 379.351 23.398 379.351 23.574V30.284H377.162V26.874H375.094C374.881 27.204 374.614 27.4937 374.291 27.743C373.968 27.985 373.609 28.183 373.213 28.337C372.817 28.491 372.388 28.5973 371.926 28.656C371.464 28.7147 370.987 28.7257 370.496 28.689C370.247 28.6743 370.034 28.579 369.858 28.403C369.689 28.227 369.612 27.9923 369.627 27.699C369.642 27.4423 369.737 27.2443 369.913 27.105C370.096 26.9657 370.316 26.8997 370.573 26.907ZM371.772 32.836C371.464 32.836 371.207 32.8067 371.002 32.748C370.804 32.6893 370.646 32.5977 370.529 32.473C370.412 32.3483 370.327 32.1833 370.276 31.978C370.232 31.7727 370.21 31.5233 370.21 31.23V30.163C370.21 29.789 370.32 29.514 370.54 29.338C370.767 29.162 371.035 29.074 371.343 29.074C371.651 29.074 371.911 29.162 372.124 29.338C372.337 29.514 372.443 29.789 372.443 30.163V30.856C372.443 30.9807 372.461 31.0577 372.498 31.087C372.535 31.1163 372.615 31.131 372.74 31.131H378.713C379.05 31.131 379.289 31.219 379.428 31.395C379.567 31.5637 379.637 31.758 379.637 31.978C379.637 32.2053 379.564 32.4033 379.417 32.572C379.278 32.748 379.043 32.836 378.713 32.836H371.772ZM383.443 32.869C383.062 32.869 382.728 32.814 382.442 32.704C382.163 32.6013 381.929 32.4583 381.738 32.275C381.555 32.0917 381.415 31.8753 381.32 31.626C381.232 31.3693 381.188 31.0907 381.188 30.79C381.188 30.4967 381.232 30.2217 381.32 29.965C381.415 29.7083 381.555 29.4883 381.738 29.305C381.929 29.1143 382.163 28.964 382.442 28.854C382.728 28.744 383.062 28.689 383.443 28.689H388.547C388.921 28.689 389.247 28.744 389.526 28.854C389.812 28.9567 390.047 29.1033 390.23 29.294C390.421 29.4773 390.564 29.6973 390.659 29.954C390.754 30.2107 390.802 30.4893 390.802 30.79C390.802 31.0907 390.754 31.3693 390.659 31.626C390.564 31.8827 390.421 32.1027 390.23 32.286C390.047 32.4693 389.812 32.6123 389.526 32.715C389.247 32.8177 388.921 32.869 388.547 32.869H383.443ZM388.811 26.423H388.316V28.304H386.413V23.442C386.413 23.134 386.505 22.903 386.688 22.749C386.879 22.5877 387.102 22.507 387.359 22.507C387.608 22.507 387.828 22.5877 388.019 22.749C388.217 22.903 388.316 23.134 388.316 23.442V24.773H388.811V23.442C388.811 23.134 388.906 22.903 389.097 22.749C389.295 22.5877 389.522 22.507 389.779 22.507C390.028 22.507 390.252 22.5877 390.45 22.749C390.648 22.903 390.747 23.134 390.747 23.442V28.304H388.811V26.423ZM381.122 26.665C381.503 26.5183 381.793 26.236 381.991 25.818C382.189 25.4 382.288 24.8133 382.288 24.058V23.728C382.288 23.376 382.383 23.1193 382.574 22.958C382.772 22.7893 383.01 22.705 383.289 22.705C383.568 22.705 383.81 22.7893 384.015 22.958C384.228 23.1193 384.334 23.376 384.334 23.728V24.058C384.334 24.212 384.33 24.3623 384.323 24.509C384.316 24.6483 384.305 24.784 384.29 24.916C384.95 25.048 385.441 25.378 385.764 25.906C386.094 26.434 386.219 27.1967 386.138 28.194H384.169C384.235 27.842 384.239 27.534 384.18 27.27C384.129 26.9987 384.019 26.7897 383.85 26.643C383.615 27.149 383.307 27.5487 382.926 27.842C382.552 28.128 382.127 28.304 381.65 28.37C381.371 28.4067 381.129 28.3627 380.924 28.238C380.726 28.1133 380.609 27.9337 380.572 27.699C380.484 27.1857 380.667 26.841 381.122 26.665ZM387.964 31.329C388.206 31.329 388.367 31.2703 388.448 31.153C388.529 31.0357 388.569 30.9147 388.569 30.79C388.569 30.6653 388.529 30.548 388.448 30.438C388.367 30.328 388.206 30.273 387.964 30.273H384.026C383.784 30.273 383.623 30.328 383.542 30.438C383.461 30.548 383.421 30.6653 383.421 30.79C383.421 30.9147 383.461 31.0357 383.542 31.153C383.623 31.2703 383.784 31.329 384.026 31.329H387.964Z" fill="#323142"/>
<path d="M427.5 23.667C427.5 21.9431 426.815 20.2898 425.596 19.0708C424.377 17.8518 422.724 17.167 421 17.167C419.276 17.167 417.623 17.8518 416.404 19.0708C415.185 20.2898 414.5 21.9431 414.5 23.667C414.5 31.2503 411.25 33.417 411.25 33.417H430.75C430.75 33.417 427.5 31.2503 427.5 23.667Z" stroke="#323142" stroke-width="2" stroke-linecap="round" stroke-linejoin="round"/>
<path d="M422.874 37.75C422.684 38.0783 422.41 38.3509 422.081 38.5403C421.753 38.7298 421.38 38.8295 421 38.8295C420.62 38.8295 420.248 38.7298 419.919 38.5403C419.59 38.3509 419.316 38.0783 419.126 37.75" stroke="#323142" stroke-width="2" stroke-linecap="round" stroke-linejoin="round"/>
<path d="M32.584 79.9287V84.3613H22.042V79.9287H32.584ZM20.4482 79.165V77.5049H26.2754V76.7661C23.6855 76.6167 22.2412 75.8945 22.2578 74.6328C22.2412 73.2051 24.084 72.4829 27.3379 72.4746C30.6084 72.4829 32.4097 73.2051 32.418 74.6328C32.4097 75.8945 30.9985 76.6167 28.4004 76.7661V77.5049H34.2275V79.165H20.4482ZM21.1123 72.0928V70.499H26.2754V69.2871H28.4004V70.499H33.5137V72.0928H21.1123ZM24.1338 82.7842H30.5088V81.5059H24.1338V82.7842ZM24.5156 74.6328C24.5156 75.1392 25.4287 75.3633 27.3379 75.3633C29.2637 75.3633 30.1436 75.1392 30.1436 74.6328C30.1436 74.1016 29.2637 73.9106 27.3379 73.9023C25.4287 73.9106 24.5156 74.1016 24.5156 74.6328Z" fill="#999999"/>
<path d="M115.6 70.6318V77.9199H108.212V70.6318H115.6ZM109.972 84.1953V79.1816H112.113V82.4854H120.497V84.1953H109.972ZM110.304 76.2432H113.491V72.3086H110.304V76.2432ZM117.974 80.1777V69.4365H120.099V80.1777H117.974ZM134.94 69.4365V80.8418H132.815V79.6465H129.927V78.2021H132.815V69.4365H134.94ZM122.091 76.127C124.855 76.1104 128.59 76.0688 131.786 75.6787L131.902 77.1895C130.707 77.3887 129.47 77.5298 128.25 77.6211V80.4932H126.125V82.5684H135.272V84.2617H124.017V79.7461H126.125V77.7456C124.772 77.7954 123.485 77.8037 122.34 77.8037L122.091 76.127ZM123.203 72.6572C123.203 71.0469 124.755 69.9429 127.005 69.9512C129.196 69.9429 130.765 71.0469 130.773 72.6572C130.765 74.2759 129.196 75.3218 127.005 75.3135C124.755 75.3218 123.203 74.2759 123.203 72.6572ZM125.212 72.6572C125.204 73.3877 125.926 73.7944 127.005 73.7861C128.018 73.7944 128.748 73.3877 128.765 72.6572C128.748 71.9102 128.018 71.4951 127.005 71.4951C125.926 71.4951 125.204 71.9102 125.212 72.6572ZM141 70.4824C142.361 70.4824 143.49 71.2212 144.179 72.5244H147.491V69.4199H149.583V84.5605H147.491V78.8994H144.337C143.665 80.3936 142.461 81.2568 141 81.2568C138.709 81.2568 137.065 79.1816 137.082 75.8613C137.065 72.5659 138.709 70.4824 141 70.4824ZM139.107 75.8613C139.099 78.1108 139.871 79.3394 141 79.3311C142.137 79.3394 142.893 78.1108 142.893 75.8613C142.893 73.6201 142.137 72.3916 141 72.3916C139.871 72.3916 139.099 73.6201 139.107 75.8613ZM144.769 74.2344C144.868 74.7324 144.918 75.2803 144.918 75.8613C144.918 76.3345 144.885 76.7827 144.818 77.2061H147.491V74.2344H144.769ZM164.226 69.4199V84.5273H162.084V69.4199H164.226ZM151.575 80.2441C155.477 78.4014 157.195 76.0107 157.535 72.6572H152.389V70.9971H159.693C159.685 75.5791 158.083 79.3892 152.688 81.9375L151.575 80.2441ZM180.047 81.0244V82.7676H166.218V81.0244H169.306V77.3223C168.135 76.6167 167.43 75.5459 167.43 74.2178C167.43 71.769 169.82 70.1587 173.107 70.1504C176.378 70.1587 178.793 71.769 178.802 74.2178C178.793 75.521 178.113 76.5752 176.976 77.2808V81.0244H180.047ZM169.521 74.2178C169.521 75.6953 170.941 76.6084 173.107 76.6084C175.241 76.6084 176.702 75.6953 176.71 74.2178C176.702 72.6987 175.241 71.8188 173.107 71.8271C170.941 71.8188 169.521 72.6987 169.521 74.2178ZM171.397 81.0244H174.834V78.0859C174.294 78.1938 173.713 78.252 173.107 78.252C172.501 78.252 171.929 78.1938 171.397 78.0942V81.0244Z" fill="#999999"/>
<mask id="path-11-inside-1_238_323" fill="white">
<path d="M251 56H301V100H251V56Z"/>
</mask>
<path d="M301 98H251V102H301V98Z" fill="#323142" mask="url(#path-11-inside-1_238_323)"/>
<path d="M266.28 69.4365V80.4766H264.171V75.5459H261.465V73.8027H264.171V69.4365H266.28ZM253.746 77.2891C256.875 76.3096 258.9 74.5 259.291 72.2754H254.526V70.5488H261.598C261.598 74.5996 259.025 77.5962 254.609 78.9658L253.746 77.2891ZM256.319 84.2617V79.3643H258.477V82.5684H266.662V84.2617H256.319ZM280.225 69.4199V72.9727H282.267V74.6992H280.225V78.1855H278.1V69.4199H280.225ZM268.139 76.8076C271.468 75.9277 273.369 74.2012 273.701 72.1094H268.853V70.416H276.008C276.017 74.4419 273.485 77.2642 268.986 78.5176L268.139 76.8076ZM270.181 81.4561C270.165 79.5635 272.223 78.3682 275.294 78.3682C278.374 78.3682 280.383 79.5635 280.391 81.4561C280.383 83.3652 278.374 84.5439 275.294 84.5439C272.223 84.5439 270.165 83.3652 270.181 81.4561ZM272.273 81.4561C272.265 82.3691 273.394 82.8921 275.294 82.8838C277.17 82.8921 278.299 82.3691 278.299 81.4561C278.299 80.5264 277.17 80.0117 275.294 80.0117C273.394 80.0117 272.265 80.5264 272.273 81.4561ZM283.446 83V73.9854H285.903V83H283.446ZM283.33 71.5615C283.33 70.8643 283.936 70.3081 284.674 70.2998C285.405 70.3081 286.011 70.8643 286.002 71.5615C286.011 72.2422 285.405 72.8066 284.674 72.8066C283.936 72.8066 283.33 72.2422 283.33 71.5615ZM297.889 70.9805V83H295.731L290.452 75.3633H290.352V83H287.862V70.9805H290.053L295.299 78.6172H295.416V70.9805H297.889Z" fill="#323142"/>
<path d="M380.031 70.4326V72.126H377.026C377.035 73.8857 378.105 75.5874 380.513 76.293L379.5 77.9531C377.832 77.4468 376.669 76.4258 376.005 75.1392C375.333 76.6582 374.104 77.8701 372.295 78.4678L371.216 76.791C373.723 76.0024 374.86 74.0435 374.885 72.126H371.797V70.4326H380.031ZM373.308 81.5889C373.299 79.7461 375.292 78.6753 378.487 78.6836C381.633 78.6753 383.576 79.7461 383.584 81.5889C383.576 83.4399 381.633 84.5356 378.487 84.5273C375.292 84.5356 373.299 83.4399 373.308 81.5889ZM375.433 81.5889C375.416 82.4521 376.503 82.8838 378.487 82.8838C380.446 82.8838 381.492 82.4521 381.492 81.5889C381.492 80.7422 380.446 80.3188 378.487 80.3271C376.503 80.3188 375.416 80.7422 375.433 81.5889ZM381.31 78.3848V69.4199H383.435V72.9229H385.477V74.6494H383.435V78.3848H381.31ZM398.841 69.4199V84.5273H396.699V69.4199H398.841ZM386.19 80.2441C390.092 78.4014 391.81 76.0107 392.15 72.6572H387.004V70.9971H394.309C394.3 75.5791 392.698 79.3892 387.303 81.9375L386.19 80.2441ZM414.662 81.0244V82.7676H400.833V81.0244H403.921V77.3223C402.75 76.6167 402.045 75.5459 402.045 74.2178C402.045 71.769 404.436 70.1587 407.723 70.1504C410.993 70.1587 413.409 71.769 413.417 74.2178C413.409 75.521 412.728 76.5752 411.591 77.2808V81.0244H414.662ZM404.137 74.2178C404.137 75.6953 405.556 76.6084 407.723 76.6084C409.856 76.6084 411.317 75.6953 411.325 74.2178C411.317 72.6987 409.856 71.8188 407.723 71.8271C405.556 71.8188 404.137 72.6987 404.137 74.2178ZM406.013 81.0244H409.449V78.0859C408.91 78.1938 408.329 78.252 407.723 78.252C407.117 78.252 406.544 78.1938 406.013 78.0942V81.0244ZM429.471 71.2959V73.0225H427.512V74.583H429.471V76.3262H427.512V78.252H425.387V69.4199H427.512V71.2959H429.471ZM415.625 73.9023C415.617 71.7524 417.41 70.2417 419.775 70.25C422.116 70.2417 423.893 71.7524 423.893 73.9023C423.893 76.0356 422.116 77.563 419.775 77.5547C417.41 77.563 415.617 76.0356 415.625 73.9023ZM417.385 81.5557C417.376 79.6714 419.402 78.5591 422.564 78.5508C425.669 78.5591 427.653 79.6714 427.661 81.5557C427.653 83.415 425.669 84.5356 422.564 84.5273C419.402 84.5356 417.376 83.415 417.385 81.5557ZM417.717 73.9023C417.7 75.0811 418.588 75.77 419.775 75.7783C420.938 75.77 421.826 75.0811 421.834 73.9023C421.826 72.7402 420.938 72.0181 419.775 72.0264C418.588 72.0181 417.7 72.7402 417.717 73.9023ZM419.51 81.5557C419.493 82.4438 420.581 82.8506 422.564 82.8506C424.523 82.8506 425.569 82.4438 425.569 81.5557C425.569 80.6758 424.523 80.2358 422.564 80.2275C420.581 80.2358 419.493 80.6758 419.51 81.5557Z" fill="#999999"/>
</g>
<g clip-path="url(#clip2_238_323)">
<g filter="url(#filter1_d_238_323)">
<path d="M16 4H424C429.523 4 434 8.47715 434 14V226C434 231.523 429.523 236 424 236H26C20.4772 236 16 231.523 16 226V4Z" fill="white" shape-rendering="crispEdges"/>
<rect x="34" y="100" width="187" height="68" rx="8" fill="#F5F5F5"/>
<path d="M56.9531 128.746C56.9463 131.795 54.7656 133.982 51.2656 134.98L50.8145 134.133C53.7197 133.312 55.5791 131.699 55.8115 129.635H51.4434V128.746H56.9531ZM52.8652 139.943V135.418H60.7539V139.943H52.8652ZM53.9043 139.068H59.6875V136.279H53.9043V139.068ZM56.9805 132V131.098H59.6738V127.967H60.7539V134.898H59.6738V132H56.9805ZM67.1523 130.564C67.1592 132.205 68.4512 133.682 70.2695 134.256L69.7227 135.117C68.3076 134.632 67.1865 133.634 66.6328 132.355C66.1064 133.736 64.9648 134.83 63.5156 135.363L62.9551 134.502C64.7803 133.866 66.0654 132.287 66.0723 130.564V129.854H63.2285V128.979H69.9551V129.854H67.1523V130.564ZM64.9648 139.848V136.033H66.0312V138.945H73.1953V139.848H64.9648ZM71.7461 136.881V127.967H72.8125V136.881H71.7461ZM84.9258 127.953V140.107H83.8457V127.953H84.9258ZM75.0273 136.949C78.3154 135.391 79.9971 133.06 80.2363 130.154H75.5879V129.279H81.3301C81.3164 132.772 79.6895 135.869 75.6152 137.824L75.0273 136.949ZM93.7168 128.896V129.539C93.71 130.339 93.71 131.549 93.4023 133.135L92.3223 133.053C92.6162 131.604 92.6436 130.571 92.6572 129.799H87.6602V128.896H93.7168ZM86.9082 134.27C87.6943 134.27 88.583 134.263 89.5195 134.235V131.59H90.5859V134.201C91.9326 134.146 93.3271 134.051 94.5918 133.873L94.6602 134.666C92.1104 135.104 89.1846 135.151 87.0176 135.158L86.9082 134.27ZM88.7812 139.848V136.279H89.8613V138.945H96.9023V139.848H88.7812ZM95.4121 137.1V127.953H96.5059V131.918H98.2832V132.834H96.5059V137.1H95.4121ZM103.055 128.637L99.8555 140.49H98.7891L101.975 128.637H103.055ZM105.434 128.705V130.66H108.824V128.705H109.877V129.949H112.748V127.953H113.828V135.322H112.748V133.34H109.877V134.42H104.367V128.705H105.434ZM105.434 133.545H108.824V131.521H105.434V133.545ZM105.721 137.838C105.714 136.389 107.266 135.568 109.795 135.555C112.317 135.568 113.869 136.389 113.869 137.838C113.869 139.26 112.317 140.08 109.795 140.08C107.266 140.08 105.714 139.26 105.721 137.838ZM106.787 137.838C106.78 138.713 107.929 139.232 109.795 139.232C111.654 139.232 112.803 138.713 112.803 137.838C112.803 136.929 111.654 136.409 109.795 136.402C107.929 136.409 106.78 136.929 106.787 137.838ZM109.877 132.451H112.748V130.824H109.877V132.451ZM116.604 135.227C116.617 132.649 117.314 130.503 118.572 128.678H119.611C118.688 130.024 117.827 132.793 117.82 135.227C117.827 137.667 118.688 140.429 119.611 141.789H118.572C117.314 139.957 116.617 137.811 116.604 135.227ZM124.602 128.842C126.509 128.849 127.862 130.011 127.869 131.699C127.862 133.395 126.509 134.55 124.602 134.557C122.681 134.55 121.313 133.395 121.32 131.699C121.313 130.011 122.681 128.849 124.602 128.842ZM120.691 136.539C122.934 136.546 126.03 136.525 128.717 136.129L128.799 136.922C126.017 137.441 123.029 137.455 120.842 137.455L120.691 136.539ZM122.373 131.699C122.366 132.834 123.303 133.613 124.602 133.613C125.887 133.613 126.823 132.834 126.816 131.699C126.823 130.571 125.887 129.785 124.602 129.785C123.303 129.785 122.366 130.571 122.373 131.699ZM129.523 140.135V127.953H130.59V140.135H129.523ZM135.758 135.227C135.744 137.811 135.047 139.957 133.789 141.789H132.75C133.673 140.429 134.534 137.667 134.541 135.227C134.534 132.793 133.673 130.024 132.75 128.678H133.789C135.047 130.503 135.744 132.649 135.758 135.227ZM147.516 127.967V137.195H146.436V135.938H143.92V135.158H146.436V127.967H147.516ZM137.426 133.6C139.688 133.586 142.737 133.565 145.342 133.244L145.41 134.023C144.33 134.194 143.188 134.304 142.074 134.372V136.771H140.994V134.427C139.764 134.475 138.595 134.475 137.576 134.475L137.426 133.6ZM138.41 130.578C138.403 129.3 139.62 128.459 141.418 128.459C143.202 128.459 144.419 129.3 144.426 130.578C144.419 131.877 143.202 132.684 141.418 132.684C139.62 132.684 138.403 131.877 138.41 130.578ZM139.176 139.848V136.293H140.256V138.945H147.816V139.848H139.176ZM139.436 130.578C139.422 131.371 140.229 131.884 141.418 131.891C142.573 131.884 143.394 131.371 143.4 130.578C143.394 129.799 142.573 129.266 141.418 129.279C140.229 129.266 139.422 129.799 139.436 130.578ZM157.25 130.496C157.257 131.952 158.474 133.285 160.271 133.818L159.766 134.639C158.364 134.215 157.277 133.312 156.737 132.157C156.211 133.429 155.083 134.413 153.641 134.885L153.107 134.037C154.919 133.49 156.19 132.096 156.197 130.496V130.264H153.449V129.375H156.197V127.898H157.277V129.375H159.998V130.264H157.25V130.496ZM154.338 139.232C156.293 138.918 158.07 137.852 158.248 136.553H154.816V135.678H162.828V136.553H159.383C159.554 137.824 161.345 138.918 163.293 139.232L162.896 140.066C161.119 139.772 159.506 138.891 158.809 137.674C158.118 138.884 156.512 139.752 154.748 140.053L154.338 139.232ZM161.543 135.021V127.953H162.609V130.961H164.441V131.863H162.609V135.021H161.543ZM175.256 127.953V140.107H174.176V127.953H175.256ZM165.357 136.949C168.646 135.391 170.327 133.06 170.566 130.154H165.918V129.279H171.66C171.646 132.772 170.02 135.869 165.945 137.824L165.357 136.949Z" fill="#222222"/>
<rect x="229" y="100" width="187" height="68" rx="8" fill="#F5F5F5"/>
<path d="M249.336 128.691C250.361 128.685 251.229 129.074 251.797 129.717H254.982V127.953H256.062V135.158H254.982V133.422H251.797C251.236 134.064 250.361 134.454 249.336 134.447C247.518 134.454 246.171 133.265 246.178 131.576C246.171 129.874 247.518 128.685 249.336 128.691ZM247.203 131.576C247.203 132.704 248.092 133.538 249.336 133.531C250.539 133.538 251.441 132.704 251.441 131.576C251.441 130.421 250.539 129.614 249.336 129.621C248.092 129.614 247.203 130.421 247.203 131.576ZM247.955 137.756C247.948 136.293 249.507 135.445 252.029 135.445C254.545 135.445 256.104 136.293 256.104 137.756C256.104 139.232 254.545 140.08 252.029 140.08C249.507 140.08 247.948 139.232 247.955 137.756ZM249.008 137.756C249.001 138.672 250.163 139.226 252.029 139.219C253.896 139.226 255.058 138.672 255.051 137.756C255.058 136.833 253.896 136.286 252.029 136.279C250.163 136.286 249.001 136.833 249.008 137.756ZM252.31 130.592C252.419 130.893 252.48 131.221 252.48 131.576C252.48 131.918 252.419 132.239 252.316 132.533H254.982V130.592H252.31ZM269.201 134.885V135.773H266.262V140.107H265.182V135.773H262.064V140.107H260.957V135.773H258.072V134.885H269.201ZM259.33 131.098C259.337 129.478 261.053 128.452 263.609 128.445C266.159 128.452 267.889 129.478 267.889 131.098C267.889 132.718 266.159 133.729 263.609 133.723C261.053 133.729 259.337 132.718 259.33 131.098ZM260.438 131.098C260.424 132.171 261.716 132.861 263.609 132.861C265.503 132.861 266.788 132.171 266.795 131.098C266.788 130.018 265.503 129.32 263.609 129.32C261.716 129.32 260.424 130.018 260.438 131.098ZM273.439 128.896C275.23 128.903 276.502 130.551 276.516 133.135C276.502 135.726 275.23 137.366 273.439 137.359C271.635 137.366 270.37 135.726 270.377 133.135C270.37 130.551 271.635 128.903 273.439 128.896ZM271.389 133.135C271.396 135.11 272.236 136.409 273.439 136.402C274.656 136.409 275.477 135.11 275.477 133.135C275.477 131.159 274.656 129.86 273.439 129.854C272.236 129.86 271.396 131.159 271.389 133.135ZM278.525 140.107V127.953H279.592V132.807H281.629V133.736H279.592V140.107H278.525ZM291.896 129.088C291.903 130.804 294.132 132.28 296.326 132.588L295.889 133.463C294.002 133.148 292.129 132.103 291.35 130.612C290.57 132.116 288.704 133.148 286.811 133.463L286.373 132.588C288.567 132.28 290.789 130.831 290.789 129.088V128.391H291.896V129.088ZM285.799 135.705V134.803H296.873V135.705H291.842V140.107H290.789V135.705H285.799ZM302.041 130.414C302.048 131.911 303.354 133.189 305.158 133.682L304.666 134.529C303.23 134.119 302.089 133.237 301.535 132.068C301.009 133.347 299.874 134.317 298.418 134.762L297.898 133.914C299.71 133.374 300.981 132 300.988 130.414V130.195H298.24V129.334H300.988V127.898H302.068V129.334H304.789V130.195H302.041V130.414ZM300.141 139.943V135.24H301.221V136.703H306.895V135.24H307.961V139.943H300.141ZM301.221 139.068H306.895V137.564H301.221V139.068ZM304.434 132.109V131.221H306.895V127.953H307.961V134.68H306.895V132.109H304.434Z" fill="#222222"/>
<path d="M203.536 201.115V202.018H199.038V208.211C201.232 208.218 202.675 208.143 204.356 207.814L204.493 208.703C202.702 209.045 201.219 209.127 198.888 209.127H197.958V201.115H203.536ZM202.812 205.271V204.383H206.353V199.953H207.433V212.135H206.353V205.271H202.812ZM220.571 209.66V210.549H209.442V209.66H214.446V207.035H210.755V200.814H211.835V203.016H218.151V200.814H219.204V207.035H215.499V209.66H220.571ZM211.835 206.16H218.151V203.891H211.835V206.16ZM231.591 199.953V212.107H230.511V199.953H231.591ZM221.692 208.949C224.98 207.391 226.662 205.06 226.901 202.154H222.253V201.279H227.995C227.981 204.772 226.354 207.869 222.28 209.824L221.692 208.949Z" fill="#999999"/>
<mask id="mask0_238_323" style="mask-type:alpha" maskUnits="userSpaceOnUse" x="233" y="196" width="21" height="20">
<rect x="233.5" y="196" width="20" height="20" fill="#D9D9D9"/>
</mask>
<g mask="url(#mask0_238_323)">
<path d="M244.664 206L241.103 202.44C240.987 202.324 240.928 202.196 240.925 202.056C240.923 201.917 240.982 201.786 241.103 201.665C241.223 201.545 241.352 201.484 241.49 201.484C241.627 201.484 241.758 201.547 241.884 201.673L245.747 205.536C245.811 205.605 245.859 205.679 245.891 205.755C245.923 205.832 245.939 205.915 245.939 206.005C245.939 206.094 245.923 206.177 245.891 206.254C245.859 206.331 245.811 206.401 245.747 206.465L241.884 210.328C241.764 210.448 241.637 210.506 241.504 210.502C241.371 210.498 241.244 210.435 241.123 210.315C241.003 210.194 240.942 210.065 240.942 209.928C240.942 209.79 241.003 209.661 241.123 209.54L244.664 206Z" fill="#999999"/>
</g>
</g>
<rect x="16" y="254" width="418" height="48" rx="10" fill="#44465C"/>
<path d="M159.606 271.635V281.303H158.215V276.747H155.49V275.59H158.215V271.635H159.606ZM148.854 278.725C151.777 277.78 153.762 276 154.047 273.773H149.528V272.616H155.578C155.563 276.044 153.212 278.622 149.44 279.838L148.854 278.725ZM151.154 284.467V280.307H152.561V283.339H159.943V284.467H151.154ZM171.94 271.62V274.931H173.845V276.059H171.94V279.413H170.549V271.62H171.94ZM161.613 278.388C164.689 277.523 166.572 275.81 166.828 273.686H162.199V272.558H168.337C168.337 275.949 166.03 278.402 162.185 279.516L161.613 278.388ZM163.4 282.138C163.386 280.541 165.114 279.552 167.751 279.56C170.395 279.552 172.087 280.541 172.087 282.138C172.087 283.749 170.395 284.723 167.751 284.73C165.114 284.723 163.386 283.749 163.4 282.138ZM164.777 282.138C164.77 283.061 165.913 283.625 167.751 283.632C169.575 283.625 170.725 283.061 170.725 282.138C170.725 281.215 169.575 280.651 167.751 280.658C165.913 280.651 164.77 281.215 164.777 282.138ZM178.605 274.14C178.605 275.575 179.521 277.025 181.228 277.67L180.495 278.739C179.272 278.271 178.415 277.377 177.946 276.3C177.463 277.516 176.569 278.571 175.295 279.12L174.533 278.036C176.306 277.267 177.258 275.597 177.258 274.14V272.44H178.605V274.14ZM176.95 282.343C176.936 280.849 178.642 279.962 181.389 279.955C184.128 279.962 185.849 280.849 185.856 282.343C185.849 283.837 184.128 284.723 181.389 284.716C178.642 284.723 176.936 283.837 176.95 282.343ZM178.327 282.343C178.312 283.178 179.477 283.661 181.389 283.646C183.293 283.661 184.458 283.178 184.465 282.343C184.458 281.5 183.293 281.017 181.389 281.024C179.477 281.017 178.312 281.5 178.327 282.343ZM181.638 279.296V271.869H182.927V275.048H184.465V271.635H185.783V279.706H184.465V276.19H182.927V279.296H181.638ZM197.883 271.62V274.887H199.758V276.073H197.883V279.354H196.491V271.62H197.883ZM187.468 278.109C188.486 278.109 189.665 278.102 190.896 278.073V277.333C189.387 277.194 188.449 276.586 188.464 275.604C188.449 274.535 189.68 273.905 191.584 273.905C193.474 273.905 194.697 274.535 194.704 275.604C194.697 276.579 193.774 277.187 192.287 277.333V278.014C193.459 277.963 194.646 277.868 195.744 277.714L195.861 278.622C193.042 279.083 189.921 279.105 187.614 279.105L187.468 278.109ZM187.805 273.524V272.558H190.896V271.503H192.287V272.558H195.378V273.524H187.805ZM189.211 280.878V279.911H197.883V282.65H190.632V283.646H198.366V284.613H189.24V281.757H196.506V280.878H189.211ZM189.782 275.604C189.782 276.132 190.463 276.454 191.584 276.454C192.69 276.454 193.378 276.132 193.371 275.604C193.378 275.099 192.69 274.813 191.584 274.813C190.463 274.813 189.782 275.099 189.782 275.604ZM211.389 271.62V278.373H210.012V271.62H211.389ZM200.563 277.201C202.614 276.52 203.867 274.799 203.874 272.982V271.972H205.295V272.982C205.288 274.74 206.547 276.337 208.562 276.967L207.873 278.051C206.342 277.553 205.192 276.52 204.599 275.187C204.006 276.623 202.834 277.765 201.267 278.3L200.563 277.201ZM202.775 280.102V279.003H211.403V282.284H204.167V283.5H211.843V284.613H202.819V281.229H210.026V280.102H202.775ZM218.083 274.74C218.083 276.396 219.321 277.919 221.335 278.549L220.661 279.647C219.152 279.171 218.017 278.175 217.417 276.894C216.845 278.263 215.71 279.34 214.157 279.853L213.483 278.769C215.49 278.124 216.706 276.505 216.706 274.74V274.433H213.85V273.305H216.706V271.708H218.098V273.305H220.939V274.433H218.083V274.74ZM215.9 284.467V280.541H217.292V283.339H224.777V284.467H215.9ZM220.485 276.732V275.604H223.034V271.635H224.426V281.405H223.034V276.732H220.485ZM231.281 275.487C231.274 277.685 232.717 279.955 234.738 280.819L233.977 281.903C232.431 281.222 231.201 279.772 230.593 278.021C229.985 279.896 228.754 281.493 227.224 282.24L226.418 281.142C228.396 280.211 229.86 277.75 229.875 275.487V274.096H226.872V272.938H234.27V274.096H231.281V275.487ZM235.925 284.745V271.62H237.316V284.745H235.925ZM250.324 271.635V281.581H248.933V280.321H246.296V279.34H248.933V271.635H250.324ZM239.353 277.626C241.777 277.604 245.051 277.582 247.849 277.23L247.937 278.227C246.816 278.417 245.637 278.534 244.479 278.615V281.171H243.088V278.688C241.813 278.739 240.59 278.739 239.528 278.739L239.353 277.626ZM240.378 274.447C240.371 273.056 241.696 272.133 243.645 272.133C245.563 272.133 246.896 273.056 246.896 274.447C246.896 275.846 245.563 276.732 243.645 276.732C241.704 276.732 240.371 275.846 240.378 274.447ZM241.169 284.467V280.614H242.546V283.339H250.646V284.467H241.169ZM241.696 274.447C241.689 275.224 242.48 275.707 243.645 275.707C244.765 275.707 245.571 275.224 245.578 274.447C245.571 273.664 244.765 273.158 243.645 273.173C242.48 273.158 241.689 273.664 241.696 274.447ZM262.863 272.279V273.275C262.871 274.301 262.871 275.487 262.526 277.069H264.387V278.212H252.375V277.069H261.12C261.472 275.539 261.486 274.418 261.486 273.422H253.884V272.279H262.863ZM253.84 284.584V279.882H262.878V284.584H253.84ZM255.202 283.456H261.501V280.98H255.202V283.456ZM276.604 271.62V284.745H275.271V271.62H276.604ZM265.148 281.127C267.009 280.006 267.954 277.619 267.961 275.282V274.228H265.544V273.1H271.55V274.228H269.294V275.282C269.294 277.523 270.202 279.772 272.048 280.834L271.213 281.859C269.96 281.112 269.104 279.772 268.642 278.19C268.173 279.904 267.28 281.369 265.998 282.167L265.148 281.127ZM270.583 277.406V276.264H272.619V271.898H273.938V284.086H272.619V277.406H270.583Z" fill="white"/>
<mask id="mask1_238_323" style="mask-type:alpha" maskUnits="userSpaceOnUse" x="278" y="266" width="24" height="24">
<rect x="278" y="266" width="24" height="24" fill="#D9D9D9"/>
</mask>
<g mask="url(#mask1_238_323)">
<path d="M290.946 278L286.873 273.927C286.735 273.788 286.664 273.614 286.661 273.404C286.657 273.195 286.728 273.018 286.873 272.873C287.018 272.728 287.194 272.655 287.4 272.655C287.606 272.655 287.782 272.728 287.927 272.873L292.421 277.367C292.515 277.46 292.581 277.559 292.619 277.663C292.658 277.767 292.677 277.879 292.677 278C292.677 278.12 292.658 278.232 292.619 278.336C292.581 278.44 292.515 278.539 292.421 278.632L287.927 283.127C287.789 283.265 287.614 283.336 287.405 283.339C287.195 283.342 287.018 283.271 286.873 283.127C286.728 282.982 286.656 282.806 286.656 282.6C286.656 282.393 286.728 282.218 286.873 282.073L290.946 278Z" fill="white"/>
</g>
</g>
<path d="M29.1816 333.437V344.477H27.0732V339.546H24.3672V337.803H27.0732V333.437H29.1816ZM16.6475 341.289C19.7769 340.31 21.8022 338.5 22.1924 336.275H17.4277V334.549H24.5C24.5 338.6 21.9268 341.596 17.5107 342.966L16.6475 341.289ZM19.2207 348.262V343.364H21.3789V346.568H29.5635V348.262H19.2207ZM43.127 333.42V336.973H45.1689V338.699H43.127V342.186H41.002V333.42H43.127ZM31.041 340.808C34.3696 339.928 36.2705 338.201 36.6025 336.109H31.7549V334.416H38.9102C38.9185 338.442 36.3867 341.264 31.8877 342.518L31.041 340.808ZM33.083 345.456C33.0664 343.563 35.125 342.368 38.1963 342.368C41.2759 342.368 43.2847 343.563 43.293 345.456C43.2847 347.365 41.2759 348.544 38.1963 348.544C35.125 348.544 33.0664 347.365 33.083 345.456ZM35.1748 345.456C35.1665 346.369 36.2954 346.892 38.1963 346.884C40.0723 346.892 41.2012 346.369 41.2012 345.456C41.2012 344.526 40.0723 344.012 38.1963 344.012C36.2954 344.012 35.1665 344.526 35.1748 345.456ZM58.5332 333.42V348.527H56.3916V333.42H58.5332ZM45.8828 344.244C49.7842 342.401 51.5024 340.011 51.8428 336.657H46.6963V334.997H54.001C53.9927 339.579 52.3906 343.389 46.9951 345.938L45.8828 344.244ZM74.3379 341.521V343.215H60.5088V341.521H66.3691V340.426H62.2354V336.275H70.5361V335.346H62.2021V333.702H72.6611V337.803H64.3438V338.799H72.9434V340.426H68.4775V341.521H74.3379ZM62.0527 345.738V344.078H72.7441V348.461H70.6025V345.738H62.0527ZM76.0977 342.418C76.106 339.297 77.0688 336.699 78.6543 334.466H80.9951C79.8496 336.118 78.6543 339.446 78.6543 342.418C78.6543 345.398 79.8496 348.718 80.9951 350.387H78.6543C77.0688 348.146 76.106 345.547 76.0977 342.418ZM82.4062 347V334.98H84.8965V344.941H90.0762V347H82.4062ZM91.6367 347V337.985H94.0938V347H91.6367ZM91.5205 335.562C91.5205 334.864 92.1265 334.308 92.8652 334.3C93.5957 334.308 94.2017 334.864 94.1934 335.562C94.2017 336.242 93.5957 336.807 92.8652 336.807C92.1265 336.807 91.5205 336.242 91.5205 335.562ZM100.801 337.985V339.828H99.0078V347H96.5508V339.828H95.2725V337.985H96.5508V337.305C96.5508 335.404 97.6963 334.416 99.5059 334.416C100.062 334.416 100.535 334.466 100.967 334.565V336.425C100.61 336.392 100.353 336.383 100.22 336.375C99.4312 336.383 99.0078 336.682 99.0078 337.438V337.985H100.801ZM105.997 347.183C103.233 347.174 101.54 345.39 101.548 342.534C101.54 339.753 103.258 337.869 105.897 337.869C108.263 337.869 110.131 339.363 110.131 342.435V343.132H103.972C103.972 344.493 104.777 345.332 106.047 345.34C106.885 345.332 107.483 344.966 107.724 344.427H110.064C109.716 346.095 108.222 347.174 105.997 347.183ZM103.972 341.588H107.807C107.798 340.492 107.043 339.704 105.947 339.712C104.818 339.704 104.021 340.55 103.972 341.588ZM111.725 347V334.98H114.215V344.941H119.395V347H111.725ZM125.006 347.183C122.283 347.174 120.582 345.307 120.59 342.518C120.582 339.737 122.283 337.869 125.006 337.869C127.737 337.869 129.43 339.737 129.438 342.518C129.43 345.307 127.737 347.174 125.006 347.183ZM123.08 342.518C123.08 344.095 123.736 345.265 125.022 345.273C126.276 345.265 126.94 344.095 126.932 342.518C126.94 340.932 126.276 339.745 125.022 339.745C123.736 339.745 123.08 340.932 123.08 342.518ZM135.033 350.569C132.543 350.569 131.007 349.449 130.866 347.747H133.29C133.423 348.469 134.104 348.793 135.083 348.793C136.22 348.793 136.984 348.303 136.992 347.05V345.406H136.876C136.552 346.137 135.755 346.875 134.303 346.867C132.269 346.875 130.634 345.439 130.634 342.435C130.634 339.388 132.311 337.869 134.303 337.869C135.813 337.869 136.544 338.766 136.876 339.496H136.976V337.985H139.416V347.1C139.408 349.399 137.598 350.569 135.033 350.569ZM133.157 342.468C133.149 344.028 133.821 345.016 135.066 345.024C136.295 345.016 136.992 344.07 136.992 342.468C136.992 340.866 136.303 339.828 135.066 339.828C133.813 339.828 133.149 340.916 133.157 342.468ZM145.658 342.418C145.65 345.547 144.687 348.146 143.102 350.387H140.761C141.906 348.718 143.102 345.398 143.102 342.418C143.102 339.446 141.906 336.118 140.761 334.466H143.102C144.687 336.699 145.65 339.297 145.658 342.418Z" fill="#323142"/>
<path d="M384.036 336.115V337.018H379.538V343.211C381.732 343.218 383.175 343.143 384.856 342.814L384.993 343.703C383.202 344.045 381.719 344.127 379.388 344.127H378.458V336.115H384.036ZM383.312 340.271V339.383H386.853V334.953H387.933V347.135H386.853V340.271H383.312ZM401.071 344.66V345.549H389.942V344.66H394.946V342.035H391.255V335.814H392.335V338.016H398.651V335.814H399.704V342.035H395.999V344.66H401.071ZM392.335 341.16H398.651V338.891H392.335V341.16ZM412.091 334.953V347.107H411.011V334.953H412.091ZM402.192 343.949C405.48 342.391 407.162 340.06 407.401 337.154H402.753V336.279H408.495C408.481 339.772 406.854 342.869 402.78 344.824L402.192 343.949Z" fill="#999999"/>
<mask id="mask2_238_323" style="mask-type:alpha" maskUnits="userSpaceOnUse" x="414" y="331" width="20" height="20">
<rect x="414" y="331" width="20" height="20" fill="#D9D9D9"/>
</mask>
<g mask="url(#mask2_238_323)">
<path d="M425.164 341L421.602 337.44C421.487 337.324 421.428 337.196 421.425 337.056C421.423 336.917 421.482 336.786 421.602 336.665C421.723 336.545 421.852 336.484 421.99 336.484C422.127 336.484 422.258 336.547 422.384 336.673L426.247 340.536C426.311 340.605 426.359 340.679 426.391 340.755C426.423 340.832 426.439 340.915 426.439 341.005C426.439 341.094 426.423 341.177 426.391 341.254C426.359 341.331 426.311 341.401 426.247 341.465L422.384 345.328C422.264 345.448 422.137 345.506 422.004 345.502C421.871 345.498 421.744 345.435 421.623 345.315C421.503 345.194 421.442 345.065 421.442 344.928C421.442 344.79 421.503 344.661 421.623 344.54L425.164 341Z" fill="#999999"/>
</g>
<g filter="url(#filter2_d_238_323)">
<rect x="16" y="370" width="418" height="99" rx="10" fill="white" shape-rendering="crispEdges"/>
<rect x="71" y="390" width="33" height="33" rx="12" fill="#5ADAE9"/>
<path d="M91.2035 408.439L90.6491 406.865L89.134 410.969C89.0536 411.19 88.8504 411.332 88.6304 411.332H88.6007C88.368 411.32 88.1733 411.148 88.1098 410.91L86.5354 404.824L84.432 409.52C84.3432 409.721 84.1527 409.846 83.9453 409.846H78.981C80.7331 412.739 83.6068 413.803 87.4877 415.982V415.995C87.4877 415.995 87.4961 415.995 87.5004 415.991C87.5004 415.991 87.5088 415.991 87.5131 415.995V415.982C91.8595 413.54 94.949 412.033 96.5995 408.807H91.7071C91.4828 408.807 91.2839 408.66 91.2035 408.435V408.439Z" fill="white"/>
<path d="M86.1842 402.945C86.2815 402.728 86.4973 402.603 86.7174 402.619C86.9417 402.636 87.1322 402.807 87.1914 403.037L88.7192 408.952L90.1539 405.061C90.2344 404.84 90.4375 404.698 90.6618 404.698C90.8861 404.698 91.085 404.844 91.1612 405.07L92.0796 407.666H97.1285C98.614 404.055 98.2374 400.712 95.7404 399.038C90.9369 395.807 87.7035 401.121 87.5004 401.471C87.2972 401.121 84.0639 395.807 79.2603 399.038C76.5264 400.874 76.3359 404.711 78.3462 408.706H83.6026L86.1842 402.949V402.945Z" fill="white"/>
<path d="M82.7832 437.033V437.881H75.9062V437.033H78.8594V435.803H79.9258V437.033H82.7832ZM76.6309 440.547C76.6172 439.275 77.7383 438.476 79.3789 438.469C81.0264 438.476 82.1475 439.275 82.1543 440.547C82.1475 441.798 81.0264 442.598 79.3789 442.598C77.7383 442.598 76.6172 441.798 76.6309 440.547ZM77.6289 440.547C77.6221 441.306 78.3398 441.818 79.3789 441.818C80.418 441.818 81.1357 441.306 81.1426 440.547C81.1357 439.774 80.418 439.275 79.3789 439.289C78.3398 439.275 77.6221 439.774 77.6289 440.547ZM78.0801 444.156V443.35H85.9551V445.975H79.1738V447.15H86.3105V447.971H78.1074V445.195H84.8887V444.156H78.0801ZM82.7695 441.668V440.807H84.8887V439.508H82.7832V438.66H84.8887V435.953H85.9551V442.748H84.8887V441.668H82.7695ZM91.4102 436.582C93.2627 436.575 94.5752 437.717 94.582 439.371C94.5752 441.053 93.2627 442.194 91.4102 442.188C89.5713 442.194 88.2314 441.053 88.2383 439.371C88.2314 437.717 89.5713 436.575 91.4102 436.582ZM89.291 439.371C89.2773 440.492 90.1797 441.278 91.4102 441.285C92.6543 441.278 93.543 440.492 93.5566 439.371C93.543 438.257 92.6543 437.478 91.4102 437.484C90.1797 437.478 89.2773 438.257 89.291 439.371ZM89.7969 447.943V443.131H90.8633V444.648H96.4277V443.131H97.4941V447.943H89.7969ZM90.8633 447.068H96.4277V445.496H90.8633V447.068ZM96.4277 442.529V435.953H97.4941V438.742H99.3262V439.645H97.4941V442.529H96.4277Z" fill="#222222"/>
<rect x="126" y="390" width="33" height="33" rx="12" fill="#FF9B91"/>
<path d="M137.846 396.051V396C137.846 396 137.829 396.017 137.82 396.021C137.812 396.013 137.803 396.004 137.799 396V396.051C132.199 401.451 131 405.337 132.735 408.432C134.402 411.417 137.565 411.438 137.82 411.434C138.079 411.434 141.239 411.417 142.905 408.432C144.64 405.337 143.437 401.451 137.846 396.051Z" fill="white"/>
<path d="M149.066 406.238V406.204C149.066 406.204 149.053 406.217 149.049 406.221C149.045 406.217 149.04 406.208 149.032 406.204V406.238C145.231 409.907 144.415 412.548 145.592 414.652C146.723 416.68 148.875 416.693 149.045 416.693C149.219 416.693 151.366 416.68 152.501 414.652C153.679 412.548 152.863 409.907 149.062 406.238H149.066Z" fill="white"/>
<path d="M137.783 437.033V437.881H130.906V437.033H133.859V435.803H134.926V437.033H137.783ZM131.631 440.547C131.617 439.275 132.738 438.476 134.379 438.469C136.026 438.476 137.147 439.275 137.154 440.547C137.147 441.798 136.026 442.598 134.379 442.598C132.738 442.598 131.617 441.798 131.631 440.547ZM132.629 440.547C132.622 441.306 133.34 441.818 134.379 441.818C135.418 441.818 136.136 441.306 136.143 440.547C136.136 439.774 135.418 439.275 134.379 439.289C133.34 439.275 132.622 439.774 132.629 440.547ZM133.08 444.156V443.35H140.955V445.975H134.174V447.15H141.311V447.971H133.107V445.195H139.889V444.156H133.08ZM137.77 441.668V440.807H139.889V439.508H137.783V438.66H139.889V435.953H140.955V442.748H139.889V441.668H137.77ZM152.508 435.953V439.125H154.326V440.027H152.508V443.213H151.428V435.953H152.508ZM143.553 442.215V436.883H148.953V437.771H144.605V441.34C147.066 441.326 148.481 441.251 150.115 440.916L150.225 441.805C148.522 442.146 147.066 442.215 144.496 442.215H143.553ZM144.564 445.756C144.571 444.3 146.116 443.452 148.598 443.445C151.079 443.452 152.604 444.3 152.604 445.756C152.604 447.232 151.079 448.08 148.598 448.08C146.116 448.08 144.571 447.232 144.564 445.756ZM145.617 445.756C145.624 446.658 146.766 447.212 148.598 447.219C150.416 447.212 151.571 446.658 151.564 445.756C151.571 444.86 150.416 444.32 148.598 444.334C146.766 444.32 145.624 444.86 145.617 445.756Z" fill="#222222"/>
<rect x="181" y="390" width="33" height="33" rx="12" fill="#B799FF"/>
<path d="M200.778 401.966L202.603 405.044L206.274 405.502C206.74 405.573 207.062 406.01 206.99 406.475C206.918 406.94 206.482 407.262 206.017 407.19L202.074 406.697C201.78 406.654 201.465 406.482 201.315 406.217L200.542 404.922L199.941 407.448C200.671 408.149 202.224 409.158 202.754 409.967C202.904 410.196 202.961 410.468 202.904 410.733L202.303 415.241C202.188 415.792 201.651 416.15 201.1 416.043C200.549 415.928 200.192 415.392 200.299 414.84L200.8 411.055L197.179 409.03C196.105 409.581 193.179 412.085 191.962 411.52L188.591 410.146C188.083 409.91 187.854 409.302 188.098 408.793C188.334 408.285 188.942 408.056 189.457 408.3L192.348 409.473L195.855 406.675L196.735 402.983L194.996 403.19L193.093 406.36C192.842 406.754 192.313 406.876 191.919 406.618C191.525 406.368 191.411 405.838 191.661 405.444L193.708 402.038C193.873 401.788 194.152 401.566 194.459 401.544C195.748 401.408 197.107 401.222 198.41 401.079C199.075 401.007 200.413 401.322 200.778 401.988V401.966ZM200.299 397C201.422 397 202.331 397.909 202.331 399.032C202.331 400.156 201.422 401.065 200.299 401.065C199.175 401.065 198.267 400.156 198.267 399.032C198.267 397.909 199.175 397 200.299 397Z" fill="white"/>
<path d="M197.008 442.133V443.021H192.072V445.51H190.992V443.021H185.879V442.133H197.008ZM187.137 438.715C187.13 437.204 188.832 436.274 191.43 436.268C194.027 436.274 195.709 437.204 195.709 438.715C195.709 440.212 194.027 441.142 191.43 441.135C188.832 441.142 187.13 440.212 187.137 438.715ZM187.314 447.848V444.293H188.395V446.932H195.764V447.848H187.314ZM188.285 438.715C188.271 439.658 189.536 440.26 191.43 440.26C193.316 440.26 194.574 439.658 194.574 438.715C194.574 437.744 193.316 437.149 191.43 437.143C189.536 437.149 188.271 437.744 188.285 438.715ZM209.08 441.969V442.83H197.992V441.969H203.01V440.547H199.4V436.527H207.699V437.389H200.453V439.672H207.781V440.547H204.049V441.969H209.08ZM199.332 445.906C199.325 444.519 200.904 443.726 203.529 443.719C206.134 443.726 207.699 444.519 207.713 445.906C207.699 447.308 206.134 448.094 203.529 448.107C200.904 448.094 199.325 447.308 199.332 445.906ZM200.426 445.906C200.412 446.761 201.581 447.253 203.529 447.246C205.457 447.253 206.626 446.761 206.633 445.906C206.626 445.065 205.457 444.566 203.529 444.566C201.581 444.566 200.412 445.065 200.426 445.906Z" fill="#222222"/>
<rect x="236" y="390" width="33" height="33" rx="12" fill="#90ACFF"/>
<path d="M252.409 401.218C252.409 398.89 251.198 397 249.703 397C248.208 397 247 398.89 247 401.218C247 403.272 247.942 404.527 249.188 404.796L248.907 416H250.592L250.311 404.773C251.514 404.463 252.409 403.222 252.409 401.218Z" fill="white" stroke="white" stroke-width="0.3"/>
<path d="M256.053 415.997H255.205L255.351 397.459H255.904L256.053 415.997Z" fill="white" stroke="white" stroke-width="0.3"/>
<path d="M258.087 415.997H257.238L257.384 397.459H257.94L258.087 415.997Z" fill="white" stroke="white" stroke-width="0.3"/>
<path d="M245.199 437.717C245.186 439.487 246.471 441.066 248.275 441.695L247.729 442.543C246.32 442.023 245.206 440.978 244.659 439.631C244.126 441.073 243.005 442.208 241.576 442.762L241.016 441.914C242.834 441.237 244.105 439.556 244.105 437.717V436.555H245.199V437.717ZM242.752 444.771V443.883H250.928V448.107H249.861V444.771H242.752ZM249.861 443.281V435.953H250.928V443.281H249.861ZM257.066 439.221C257.066 441.36 258.481 443.568 260.211 444.416L259.555 445.277C258.215 444.58 257.094 443.138 256.554 441.449C256.014 443.24 254.865 444.778 253.498 445.51L252.814 444.648C254.592 443.773 256 441.442 256.014 439.221V437.006H257.066V439.221ZM261.332 448.107V435.953H262.398V440.889H264.436V441.818H262.398V448.107H261.332Z" fill="#222222"/>
<rect x="291" y="390" width="33" height="33" rx="12" fill="#58B9FE"/>
<path d="M314.57 397H300.43C299.089 397 298 398.089 298 399.43V413.045C298 414.386 299.089 415.475 300.43 415.475H314.57C315.911 415.475 317 414.386 317 413.045V399.43C317 398.089 315.911 397 314.57 397ZM313.315 401.878L310.703 405.84C310.516 406.122 310.199 406.296 309.857 406.292L307.795 406.283L307.526 402.208L307.218 406.283L305.096 406.27C304.757 406.27 304.44 406.096 304.254 405.81L301.68 401.817L301.437 401.44C301.437 400.702 304.158 400.116 307.509 400.133C310.859 400.151 313.571 400.763 313.567 401.505L313.32 401.882L313.315 401.878Z" fill="white"/>
<path d="M299.447 439.699C299.454 441.654 300.445 443.657 302.1 444.539L301.484 445.346C300.274 444.683 299.399 443.425 298.955 441.962C298.524 443.521 297.656 444.888 296.439 445.619L295.797 444.799C297.451 443.842 298.429 441.709 298.436 439.699V439.098H296.125V438.209H298.436V436.404H299.461V438.209H301.73V439.098H299.447V439.699ZM300.896 441.668V440.752H302.811V436.254H303.822V447.479H302.811V441.668H300.896ZM305.258 448.107V435.953H306.283V448.107H305.258ZM319.066 441.641V442.529H314.049V443.828C316.339 443.931 317.699 444.676 317.713 445.961C317.699 447.321 316.134 448.08 313.529 448.08C310.891 448.08 309.325 447.321 309.332 445.961C309.325 444.676 310.679 443.931 312.996 443.828V442.529H307.992V441.641H319.066ZM308.621 440.055C310.727 439.836 312.757 438.763 312.832 437.402H309.004V436.527H318.082V437.402H314.227C314.302 438.763 316.312 439.836 318.451 440.055L318.055 440.902C316.065 440.663 314.199 439.768 313.529 438.421C312.859 439.768 311.007 440.663 309.004 440.902L308.621 440.055ZM310.426 445.961C310.412 446.768 311.581 447.253 313.529 447.246C315.457 447.253 316.626 446.768 316.633 445.961C316.626 445.134 315.457 444.662 313.529 444.648C311.581 444.662 310.412 445.134 310.426 445.961Z" fill="#222222"/>
<rect x="346" y="390" width="33" height="33" rx="12" fill="#A3A4BE"/>
<path d="M360.188 408.083C360.306 408.064 360.395 407.966 360.404 407.847C360.482 406.879 360.998 406.017 361.192 405.071C361.53 403.425 361.322 401.71 360.711 400.151C360.423 399.416 359.931 398.4 359.146 398.107C358.306 397.794 357.408 398.212 356.787 398.785C355.96 399.547 355.442 400.604 355.2 401.692C354.872 403.164 354.983 404.736 355.277 406.204C355.444 407.037 355.774 407.778 356.107 408.552C356.154 408.661 356.269 408.723 356.386 408.704L360.188 408.083H360.188Z" fill="white"/>
<path d="M360.263 409.458L356.833 410.018C356.691 410.041 356.595 410.176 356.62 410.318C356.827 411.505 356.718 412.891 357.301 413.977C357.654 414.634 358.324 415.038 359.075 414.997C359.719 414.963 360.407 414.659 360.758 414.098C361.455 412.988 360.956 411.288 360.666 410.127C360.628 409.972 360.591 409.816 360.558 409.659C360.53 409.524 360.4 409.435 360.263 409.458H360.263Z" fill="white"/>
<path d="M365.515 408.083C365.397 408.064 365.309 407.966 365.299 407.847C365.222 406.879 364.706 406.017 364.512 405.071C364.174 403.425 364.382 401.71 364.993 400.151C365.281 399.416 365.772 398.4 366.557 398.107C367.397 397.794 368.296 398.212 368.917 398.785C369.744 399.547 370.261 400.604 370.504 401.693C370.831 403.165 370.721 404.736 370.427 406.204C370.26 407.037 369.93 407.778 369.597 408.552C369.55 408.661 369.435 408.724 369.318 408.705L365.516 408.083L365.515 408.083Z" fill="white"/>
<path d="M365.44 409.458L368.87 410.018C369.012 410.041 369.108 410.176 369.084 410.318C368.876 411.505 368.985 412.891 368.402 413.977C368.05 414.634 367.379 415.038 366.628 414.997C365.984 414.963 365.297 414.659 364.945 414.098C364.249 412.988 364.747 411.288 365.037 410.127C365.076 409.972 365.112 409.816 365.145 409.659C365.174 409.524 365.304 409.435 365.44 409.458H365.44Z" fill="white"/>
<path d="M360.969 435.953V442.201H359.889V439.781H357.195V438.893H359.889V435.953H360.969ZM351.084 441.572C353.996 440.868 355.746 439.398 355.958 437.443H351.713V436.555H357.1C357.1 439.576 354.967 441.579 351.467 442.461L351.084 441.572ZM353.094 443.596V442.721H360.969V445.688H354.188V447.109H361.379V447.998H353.121V444.867H359.889V443.596H353.094ZM368.529 436.227C371.175 436.227 372.815 437.081 372.822 438.537C372.815 439.973 371.175 440.813 368.529 440.807C365.884 440.813 364.223 439.973 364.223 438.537C364.223 437.081 365.884 436.227 368.529 436.227ZM362.992 442.748V441.859H374.066V442.748H362.992ZM364.346 447.943V443.951H372.713V447.943H364.346ZM365.33 438.537C365.323 439.419 366.561 439.952 368.529 439.959C370.478 439.952 371.722 439.419 371.729 438.537C371.722 437.628 370.478 437.088 368.529 437.088C366.561 437.088 365.323 437.628 365.33 438.537ZM365.412 447.068H371.66V444.812H365.412V447.068Z" fill="#222222"/>
</g>
<path d="M29.1816 500.437V511.477H27.0732V506.546H24.3672V504.803H27.0732V500.437H29.1816ZM16.6475 508.289C19.7769 507.31 21.8022 505.5 22.1924 503.275H17.4277V501.549H24.5C24.5 505.6 21.9268 508.596 17.5107 509.966L16.6475 508.289ZM19.2207 515.262V510.364H21.3789V513.568H29.5635V515.262H19.2207ZM43.127 500.42V503.973H45.1689V505.699H43.127V509.186H41.002V500.42H43.127ZM31.041 507.808C34.3696 506.928 36.2705 505.201 36.6025 503.109H31.7549V501.416H38.9102C38.9185 505.442 36.3867 508.264 31.8877 509.518L31.041 507.808ZM33.083 512.456C33.0664 510.563 35.125 509.368 38.1963 509.368C41.2759 509.368 43.2847 510.563 43.293 512.456C43.2847 514.365 41.2759 515.544 38.1963 515.544C35.125 515.544 33.0664 514.365 33.083 512.456ZM35.1748 512.456C35.1665 513.369 36.2954 513.892 38.1963 513.884C40.0723 513.892 41.2012 513.369 41.2012 512.456C41.2012 511.526 40.0723 511.012 38.1963 511.012C36.2954 511.012 35.1665 511.526 35.1748 512.456ZM58.9316 500.42V515.527H56.9062V500.42H58.9316ZM45.9658 506.961C45.9658 503.583 47.2524 501.491 49.2529 501.499C50.5146 501.491 51.5107 502.321 52.0669 503.773H53.8516V500.636H55.8438V514.83H53.8516V510.148H52.0752C51.5107 511.618 50.5229 512.456 49.2529 512.456C47.2524 512.456 45.9658 510.356 45.9658 506.961ZM47.8916 506.961C47.875 509.285 48.3647 510.431 49.2529 510.414C50.1245 510.431 50.6558 509.285 50.6641 506.961C50.6558 504.645 50.1245 503.491 49.2529 503.491C48.3647 503.491 47.875 504.645 47.8916 506.961ZM52.4902 505.467C52.5566 505.932 52.5898 506.43 52.5898 506.961C52.5898 507.484 52.5566 507.982 52.4985 508.438H53.8516V505.467H52.4902ZM74.3047 507.907V509.601H60.5254V507.907H74.3047ZM61.1064 505.749C64.3853 505.542 65.9209 504.562 66.1782 503.475H61.8535V501.831H66.3525V500.47H68.4443V501.831H72.9766V503.475H68.6104C68.8594 504.562 70.3867 505.542 73.6904 505.749L73.043 507.359C70.2622 507.152 68.3447 506.347 67.3901 505.126C66.4438 506.347 64.5181 507.152 61.7539 507.359L61.1064 505.749ZM62.0527 512.406V510.746H72.6279V515.527H70.5195V512.406H62.0527Z" fill="#323142"/>
<g filter="url(#filter3_d_238_323)">
<rect x="16" y="537" width="418" height="218" rx="10" fill="white" shape-rendering="crispEdges"/>
<mask id="path-59-inside-2_238_323" fill="white">
<path d="M38 547H162.667V646H38V547Z"/>
</mask>
<path d="M162.667 645H38V647H162.667V645Z" fill="#DEDEDE" mask="url(#path-59-inside-2_238_323)"/>
<path d="M83.9887 589.868C84.5389 589.96 84.4013 589.776 84.6153 590.128C84.7376 590.327 84.6153 591.077 84.6153 591.291C84.6153 592.301 84.6 593.311 84.6153 594.306C84.6459 596.448 85.6392 598.453 87.8246 599.111C89.7961 599.708 91.5383 598.438 93.4486 598.636C95.7562 598.881 95.0685 602.386 95.0685 604.008C95.0685 604.957 96.5356 604.957 96.5356 604.008C96.5356 601.468 97.2081 596.815 93.2652 597.183C91.905 597.305 90.5449 597.825 89.1695 597.825C86.006 597.825 86.0671 594.734 86.0671 592.469C86.0671 591.444 86.4186 589.638 85.6239 588.812C85.1655 588.338 84.5847 588.383 83.9734 588.368C83.1023 588.368 83.0259 588.598 83.2857 587.909C84.2638 585.277 86.8618 583.349 87.0146 580.441C87.1522 577.886 87.6718 575.361 89.1695 573.218C91.905 569.301 96.9177 568.459 101.411 568.826C105.675 569.178 109.786 570.953 111.986 574.794C113.255 577.013 113.805 579.6 113.851 582.155C113.927 586.256 112.445 590.403 110 593.663C108.548 595.606 106.958 596.616 106.928 599.172C106.912 600.794 106.928 602.416 106.928 604.038C106.928 604.987 108.395 604.987 108.395 604.038V599.432C108.395 598.483 108.425 597.703 109.098 596.907C110.183 595.637 111.299 594.505 112.185 593.081C114.095 590.021 115.318 586.318 115.333 582.691C115.364 576.309 112.292 570.372 105.98 568.26C98.0792 565.628 88.1914 568.015 86.0366 576.891C85.7615 578.039 85.6698 579.186 85.5781 580.349C85.4864 581.666 84.8904 582.461 84.2179 583.594C83.4233 584.925 82.384 586.272 81.7727 587.695C81.5282 588.261 81.4824 588.812 81.8644 589.332C82.4452 590.097 83.2093 589.776 84.004 589.914L83.9887 589.868Z" fill="#42465A"/>
<path d="M109.765 562.25C104.556 562.25 100.333 566.411 100.333 571.545C100.333 575.159 102.433 578.286 105.488 579.822L105.133 579.737C104.942 581.13 103.647 582.326 103.647 582.326C106.574 582.667 107.933 581.336 108.392 580.732C108.842 580.794 109.297 580.839 109.765 580.839C114.974 580.839 119.197 576.678 119.197 571.545C119.197 566.411 114.974 562.25 109.765 562.25Z" fill="#F63D3B"/>
<path d="M109.911 567.505C110.306 567.505 110.67 567.572 111.001 567.679C111.333 567.809 111.606 567.971 111.847 568.19C112.079 568.405 112.265 568.669 112.397 568.969C112.529 569.283 112.597 569.632 112.597 570C112.597 570.304 112.542 570.564 112.456 570.801C112.356 571.039 112.238 571.258 112.092 571.451C111.938 571.648 111.774 571.818 111.597 571.971C111.397 572.123 111.211 572.262 111.033 572.383C110.87 572.49 110.724 572.642 110.592 572.84C110.451 573.046 110.383 573.252 110.383 573.467V574.04H108.965V573.467C108.965 573.01 109.074 572.62 109.315 572.293C109.533 571.98 109.856 571.684 110.251 571.424H110.242C110.342 571.37 110.451 571.294 110.561 571.187C110.67 571.102 110.77 570.99 110.87 570.86C110.956 570.739 111.024 570.609 111.088 570.457C111.142 570.318 111.174 570.165 111.174 569.991C111.174 569.534 111.051 569.211 110.82 568.992C110.579 568.795 110.279 568.687 109.906 568.687C109.751 568.687 109.597 568.719 109.456 568.786C109.301 568.862 109.17 568.96 109.061 569.077C108.938 569.207 108.851 569.359 108.783 569.52C108.706 569.695 108.674 569.879 108.674 570.076H107.256C107.256 569.726 107.324 569.39 107.474 569.068C107.606 568.763 107.806 568.495 108.056 568.253C108.297 568.024 108.574 567.841 108.906 567.697C109.215 567.567 109.556 567.491 109.906 567.491L109.911 567.505ZM110.483 575.5C110.483 575.715 110.406 575.903 110.274 576.051C110.12 576.204 109.924 576.289 109.67 576.289C109.415 576.289 109.22 576.204 109.074 576.051C108.92 575.899 108.842 575.715 108.842 575.5C108.842 575.285 108.92 575.088 109.074 574.936C109.22 574.784 109.415 574.707 109.67 574.707C109.924 574.707 110.12 574.784 110.274 574.936C110.406 575.088 110.483 575.285 110.483 575.5Z" fill="white"/>
<path d="M74.6028 618.967V627.949H73.5228V623.615H70.8294V622.713H73.5228V618.967H74.6028ZM64.7181 625.666C67.514 624.743 69.4622 622.993 69.7083 620.799H65.3333V619.896H70.8841C70.8704 623.021 68.6351 625.399 65.1829 626.527L64.7181 625.666ZM66.8646 630.848V627.033H67.9583V629.945H74.9173V630.848H66.8646ZM86.1282 618.953V622.125H87.9603V623.014H86.1282V626.254H85.0618V618.953H86.1282ZM76.64 625.393C79.5726 624.545 81.4456 622.856 81.6644 620.744H77.1732V619.855H82.8196C82.8128 622.952 80.6321 625.222 77.0911 626.268L76.64 625.393ZM78.3079 628.729C78.3011 627.272 79.8665 626.384 82.2864 626.391C84.7269 626.384 86.265 627.272 86.265 628.729C86.265 630.205 84.7269 631.08 82.2864 631.08C79.8665 631.08 78.3011 630.205 78.3079 628.729ZM79.3743 628.729C79.3607 629.645 80.5023 630.226 82.2864 630.219C84.0706 630.226 85.2259 629.645 85.2259 628.729C85.2259 627.812 84.0706 627.245 82.2864 627.252C80.5023 627.245 79.3607 627.812 79.3743 628.729ZM99.1439 618.953V631.107H98.1048V618.953H99.1439ZM88.8763 624.203C88.8831 621.619 89.9085 619.985 91.4876 619.979C92.5267 619.985 93.3265 620.689 93.764 621.906H95.6985V619.213H96.7239V630.492H95.6985V626.5H93.764C93.3333 627.724 92.5267 628.435 91.4876 628.428C89.9085 628.435 88.8831 626.787 88.8763 624.203ZM89.8743 624.203C89.8675 626.172 90.4896 627.416 91.4876 627.402C92.4788 627.416 93.1146 626.172 93.1146 624.203C93.1146 622.228 92.4788 620.99 91.4876 620.99C90.4896 620.99 89.8675 622.228 89.8743 624.203ZM93.9896 622.795C94.0716 623.226 94.1126 623.697 94.1126 624.203C94.1126 624.702 94.0716 625.174 93.9964 625.598H95.6985V622.795H93.9896ZM111.9 625.092V625.967H100.826V625.092H111.9ZM101.482 623.574C103.758 623.376 105.686 622.433 105.775 621.045H101.974V620.184H105.829V618.926H106.882V620.184H110.779V621.045H106.951C107.026 622.433 108.947 623.376 111.243 623.574L110.888 624.422C108.885 624.196 107.094 623.465 106.363 622.234C105.617 623.465 103.826 624.196 101.837 624.422L101.482 623.574ZM102.056 628.154V627.279H110.533V631.107H109.452V628.154H102.056ZM122.427 618.953V622.658H124.259V623.561H122.427V627.922H121.361V618.953H122.427ZM113.158 622.809C113.151 621.045 114.532 619.821 116.343 619.814C118.168 619.821 119.529 621.045 119.542 622.809C119.529 624.565 118.168 625.803 116.343 625.803C114.532 625.803 113.151 624.565 113.158 622.809ZM114.21 622.809C114.203 624.005 115.14 624.859 116.343 624.859C117.567 624.859 118.483 624.005 118.49 622.809C118.483 621.605 117.567 620.758 116.343 620.758C115.14 620.758 114.203 621.605 114.21 622.809ZM114.826 630.848V626.992H115.878V629.945H122.988V630.848H114.826ZM135.402 618.953V631.107H134.349V624.818H132.599V630.479H131.587V619.227H132.599V623.902H134.349V618.953H135.402ZM125.64 627.963V620.443H126.706V627.006C127.909 626.999 129.208 626.91 130.685 626.609L130.822 627.566C129.126 627.874 127.732 627.963 126.392 627.963H125.64Z" fill="#222222"/>
<mask id="path-65-inside-3_238_323" fill="white">
<path d="M162.667 547H287.333V646H162.667V547Z"/>
</mask>
<path d="M162.667 646H161.667V647H162.667V646ZM287.333 645H162.667V647H287.333V645ZM163.667 646V547H161.667V646H163.667Z" fill="#DEDEDE" mask="url(#path-65-inside-3_238_323)"/>
<path d="M241.248 575.989C241.889 574.033 241.601 571.82 240.639 570.025C239.501 567.861 237.4 566.418 234.996 566.113C233.617 563.66 230.667 562.41 227.781 562.265C227.252 562.233 226.675 562.169 226.291 562.602C226.13 562.779 226.066 563.003 226.05 563.243C226.05 563.324 226.05 563.404 226.05 563.484V602.136C226.05 602.922 226.002 603.739 226.05 604.525C226.082 605.134 226.515 605.455 227.076 605.503C227.685 605.551 228.311 605.567 228.92 605.567C230.058 605.567 231.196 605.535 232.334 605.423C234.29 605.23 236.246 604.846 238.042 604.012C239.437 603.371 240.783 602.393 241.505 601.014C242.21 599.683 242.258 598.16 241.905 596.734C243.428 596.14 244.615 594.938 245.144 593.271C245.737 591.379 245.352 589.327 244.246 587.724C244.663 587.339 245.048 586.89 245.352 586.393C247.597 582.738 245.432 577.047 241.248 575.973V575.989ZM241.649 588.093C241.008 588.317 241.28 589.343 241.937 589.119C242.467 588.926 242.963 588.686 243.428 588.397C244.326 589.712 244.615 591.395 244.166 592.918C243.669 594.601 242.274 595.82 240.527 596.028C239.853 596.108 239.853 597.183 240.527 597.102C240.655 597.086 240.783 597.07 240.911 597.038C241.056 597.663 241.136 598.289 241.072 598.93C240.783 602.104 237.272 603.467 234.579 604.028C232.495 604.461 230.347 604.557 228.23 604.493C227.942 604.493 227.509 604.381 227.236 604.445C227.188 604.445 227.156 604.445 227.124 604.445C227.124 604.349 227.124 604.236 227.124 604.156V586.04C229.577 585.96 231.661 583.972 231.565 581.407C231.533 580.718 230.475 580.718 230.507 581.407C230.587 583.411 229.016 584.87 227.124 584.966V564.558C227.124 564.173 227.124 563.789 227.124 563.404C227.124 563.388 227.124 563.324 227.124 563.275C227.172 563.34 227.573 563.34 227.621 563.34C227.862 563.34 228.086 563.356 228.327 563.388C228.743 563.42 229.144 563.484 229.545 563.58C231.148 563.933 232.767 564.718 233.745 566.097C234.835 567.604 234.884 569.48 234.403 571.211C234.226 571.868 235.252 572.157 235.429 571.5C235.701 570.522 235.845 569.496 235.733 568.486C235.685 568.069 235.605 567.668 235.493 567.283C236.487 567.492 237.417 567.957 238.186 568.63C241.088 571.147 241.489 576.165 238.186 578.522C237.625 578.922 238.17 579.836 238.731 579.435C239.645 578.794 240.366 577.977 240.863 576.999C241.761 577.207 242.563 577.656 243.22 578.313C244.551 579.596 245.288 581.487 245.224 583.331C245.144 585.511 243.733 587.387 241.681 588.109L241.649 588.093Z" fill="#42465A"/>
<path d="M233.473 577.624C233.425 578.313 234.483 578.297 234.531 577.624C234.659 576.068 233.777 574.545 232.318 573.952C230.779 573.327 229.112 574 228.15 575.283C227.733 575.828 228.663 576.357 229.064 575.828C229.737 574.93 230.972 574.513 232.014 574.978C233.04 575.443 233.553 576.533 233.457 577.624H233.473Z" fill="#42465A"/>
<path d="M234.066 592.181C234.05 590.898 233.665 589.616 232.976 588.51C232.607 587.933 231.693 588.462 232.062 589.055C232.831 590.273 233.184 591.78 232.944 593.207C232.687 594.794 231.565 596.157 230.17 596.734C229.914 596.846 229.705 597.087 229.801 597.391C229.866 597.648 230.186 597.872 230.459 597.76C232.222 597.023 233.601 595.516 233.954 593.608C233.97 593.496 234.002 593.367 234.018 593.255C235.348 593.047 236.631 593.8 236.823 595.227C236.855 595.516 237.224 595.676 237.481 595.596C237.785 595.516 237.897 595.227 237.849 594.938C237.593 593.063 235.829 592.021 234.082 592.181H234.066Z" fill="#42465A"/>
<path d="M223.709 562.603C223.325 562.17 222.732 562.25 222.219 562.266C219.349 562.41 216.383 563.661 215.02 566.114C212.599 566.418 210.515 567.861 209.377 570.026C208.415 571.837 208.127 574.033 208.768 575.989C204.584 577.063 202.419 582.755 204.664 586.41C204.968 586.907 205.337 587.356 205.77 587.741C204.664 589.344 204.279 591.396 204.872 593.288C205.385 594.939 206.572 596.157 208.111 596.75C207.774 598.193 207.806 599.7 208.511 601.031C209.249 602.41 210.579 603.404 211.974 604.029C213.77 604.846 215.726 605.231 217.682 605.44C218.82 605.552 219.958 605.6 221.096 605.584C221.705 605.584 222.331 605.552 222.94 605.52C223.501 605.472 223.934 605.151 223.966 604.542C224.014 603.756 223.966 602.939 223.966 602.153V563.485C223.966 563.404 223.966 563.324 223.966 563.244C223.966 563.004 223.886 562.779 223.725 562.603H223.709ZM222.876 586.057V604.173C222.876 604.269 222.876 604.365 222.876 604.462C222.86 604.462 222.812 604.462 222.764 604.462C222.491 604.397 222.058 604.494 221.77 604.51C219.653 604.574 217.505 604.478 215.421 604.045C212.744 603.484 209.233 602.121 208.928 598.947C208.864 598.305 208.928 597.664 209.089 597.055C209.217 597.071 209.345 597.103 209.473 597.119C210.147 597.199 210.147 596.141 209.473 596.045C207.726 595.821 206.331 594.618 205.834 592.935C205.385 591.412 205.674 589.712 206.572 588.414C207.036 588.718 207.533 588.959 208.063 589.135C208.704 589.36 208.992 588.334 208.351 588.109C206.299 587.388 204.888 585.512 204.808 583.332C204.744 581.488 205.481 579.596 206.812 578.314C207.485 577.673 208.271 577.224 209.169 576.999C209.666 577.977 210.403 578.795 211.301 579.436C211.862 579.837 212.391 578.907 211.846 578.522C208.527 576.166 208.928 571.148 211.846 568.631C212.616 567.973 213.545 567.509 214.539 567.284C214.427 567.669 214.331 568.054 214.299 568.486C214.187 569.496 214.331 570.523 214.603 571.5C214.78 572.158 215.822 571.885 215.629 571.212C215.149 569.464 215.197 567.605 216.287 566.098C217.265 564.719 218.884 563.95 220.487 563.581C220.888 563.485 221.289 563.42 221.705 563.388C221.946 563.372 222.17 563.356 222.411 563.34C222.459 563.34 222.86 563.34 222.908 563.276C222.908 563.324 222.908 563.388 222.908 563.404C222.908 563.789 222.908 564.174 222.908 564.559V584.983C221.016 584.887 219.461 583.428 219.525 581.424C219.557 580.735 218.483 580.735 218.467 581.424C218.371 583.989 220.455 585.977 222.908 586.057H222.876Z" fill="#42465A"/>
<path d="M220.92 575.829C221.321 576.374 222.251 575.829 221.834 575.284C220.872 574.001 219.205 573.328 217.665 573.953C216.207 574.546 215.325 576.069 215.453 577.625C215.501 578.298 216.575 578.314 216.511 577.625C216.431 576.534 216.928 575.444 217.954 574.979C218.996 574.514 220.231 574.931 220.904 575.829H220.92Z" fill="#42465A"/>
<path d="M217.056 593.208C216.816 591.765 217.169 590.274 217.938 589.056C218.307 588.478 217.377 587.933 217.024 588.511C216.335 589.601 215.95 590.883 215.934 592.182C214.187 592.021 212.423 593.08 212.167 594.939C212.135 595.228 212.231 595.5 212.535 595.597C212.792 595.661 213.145 595.516 213.193 595.228C213.385 593.801 214.684 593.047 215.998 593.256C216.014 593.368 216.03 593.496 216.062 593.609C216.431 595.516 217.794 597.023 219.557 597.761C219.83 597.873 220.134 597.633 220.215 597.392C220.295 597.087 220.102 596.847 219.846 596.735C218.451 596.158 217.329 594.795 217.072 593.208H217.056Z" fill="#42465A"/>
<circle cx="216.875" cy="580.375" r="5.625" fill="#F63D3B"/>
<circle cx="216.875" cy="580.375" r="3.71875" stroke="white"/>
<path d="M217.337 618.953V631.107H216.271V618.953H217.337ZM207.384 627.566C208.464 627.56 209.688 627.553 210.938 627.519V624.832H208.354V620.17H209.435V623.943H214.685V624.832H212.019V627.478C213.181 627.43 214.35 627.348 215.45 627.211L215.519 628.018C212.805 628.441 209.858 628.482 207.534 628.469L207.384 627.566ZM225.499 622.809V624.299H230.517V625.16H219.442V624.299H224.446V622.809H225.499ZM220.03 622.617C222.122 622.426 224.159 621.503 224.275 620.225H220.454V619.35H229.532V620.225H225.684C225.8 621.503 227.823 622.426 229.929 622.617L229.573 623.451C227.55 623.239 225.643 622.405 224.986 621.1C224.337 622.412 222.423 623.239 220.399 623.451L220.03 622.617ZM220.782 626.992V626.172H229.095V628.934H221.876V630.123H229.464V630.971H220.81V628.141H228.042V626.992H220.782ZM242.616 624.641V625.529H237.599V626.828C239.889 626.931 241.249 627.676 241.263 628.961C241.249 630.321 239.684 631.08 237.079 631.08C234.44 631.08 232.875 630.321 232.882 628.961C232.875 627.676 234.229 626.931 236.546 626.828V625.529H231.542V624.641H242.616ZM232.171 623.055C234.276 622.836 236.307 621.763 236.382 620.402H232.554V619.527H241.632V620.402H237.776C237.852 621.763 239.861 622.836 242.001 623.055L241.604 623.902C239.615 623.663 237.749 622.768 237.079 621.421C236.409 622.768 234.557 623.663 232.554 623.902L232.171 623.055ZM233.976 628.961C233.962 629.768 235.131 630.253 237.079 630.246C239.007 630.253 240.176 629.768 240.183 628.961C240.176 628.134 239.007 627.662 237.079 627.648C235.131 627.662 233.962 628.134 233.976 628.961Z" fill="#222222"/>
<mask id="path-76-inside-4_238_323" fill="white">
<path d="M287.333 547H412V646H287.333V547Z"/>
</mask>
<path d="M287.333 646H286.333V647H287.333V646ZM412 645H287.333V647H412V645ZM288.333 646V547H286.333V646H288.333Z" fill="#DEDEDE" mask="url(#path-76-inside-4_238_323)"/>
<path d="M349.042 602.86C346.341 602.86 342.535 602.358 339.805 599.953C337.355 597.814 336.057 594.228 335.924 589.3C335.659 578.927 342.549 569.926 347.743 564.053C348.392 563.316 349.676 563.316 350.34 564.053C355.534 569.926 362.425 578.942 362.159 589.315C362.026 594.243 360.728 597.828 358.293 599.968C355.564 602.373 351.757 602.875 349.056 602.875L349.042 602.86ZM349.042 564.791C349.042 564.791 348.85 564.806 348.747 564.924C343.685 570.634 337.001 579.369 337.267 589.27C337.385 593.815 338.536 597.076 340.69 598.95C343.11 601.075 346.578 601.517 349.056 601.517C351.535 601.517 355.003 601.075 357.423 598.95C359.577 597.061 360.728 593.8 360.846 589.256C361.097 579.355 354.413 570.619 349.366 564.909C349.263 564.791 349.13 564.776 349.056 564.776L349.042 564.791Z" fill="#42465A"/>
<path d="M349.042 598.551C349.042 598.551 348.983 598.551 348.938 598.551C340.513 597.326 339.834 589.284 339.834 589.211C339.805 588.842 340.085 588.532 340.454 588.502C340.838 588.458 341.133 588.753 341.162 589.122C341.177 589.417 341.782 596.175 349.13 597.252C349.499 597.311 349.75 597.636 349.691 598.005C349.647 598.33 349.366 598.58 349.042 598.58V598.551Z" fill="#42465A"/>
<path d="M355.962 580.801C357.216 580.801 358.603 580.521 359.577 579.679C360.728 578.676 361.038 576.964 361.067 575.504C361.171 571.638 358.765 568.126 356.287 565.337C356.11 565.145 355.8 565.145 355.637 565.337C353.158 568.141 350.753 571.638 350.857 575.504C350.901 576.964 351.196 578.661 352.347 579.679C353.321 580.535 354.708 580.801 355.962 580.801Z" fill="#F63D3B"/>
<path d="M354.619 578.942C354.619 578.942 354.575 578.942 354.56 578.942C353.395 578.794 352.804 577.865 352.775 577.82C352.627 577.584 352.701 577.274 352.937 577.127C353.173 576.979 353.483 577.053 353.631 577.289C353.645 577.319 354.014 577.85 354.693 577.938C354.973 577.968 355.165 578.219 355.136 578.499C355.106 578.75 354.885 578.942 354.634 578.942H354.619Z" fill="white"/>
<path d="M341.525 618.953V622.125H343.343V623.027H341.525V626.213H340.445V618.953H341.525ZM332.57 625.215V619.883H337.97V620.771H333.623V624.34C336.084 624.326 337.499 624.251 339.133 623.916L339.242 624.805C337.54 625.146 336.084 625.215 333.513 625.215H332.57ZM333.582 628.756C333.589 627.3 335.133 626.452 337.615 626.445C340.096 626.452 341.621 627.3 341.621 628.756C341.621 630.232 340.096 631.08 337.615 631.08C335.133 631.08 333.589 630.232 333.582 628.756ZM334.634 628.756C334.641 629.658 335.783 630.212 337.615 630.219C339.433 630.212 340.589 629.658 340.582 628.756C340.589 627.86 339.433 627.32 337.615 627.334C335.783 627.32 334.641 627.86 334.634 628.756ZM353.953 624.531V625.434H352.148V628.578H355.238V629.453H344.109V628.578H347.226V625.434H345.449V620.061H346.515V624.531H353.953ZM348.293 628.578H351.082V625.434H348.293V628.578ZM357.89 619.705V621.66H361.281V619.705H362.334V620.949H365.205V618.953H366.285V626.322H365.205V624.34H362.334V625.42H356.824V619.705H357.89ZM357.89 624.545H361.281V622.521H357.89V624.545ZM358.177 628.838C358.171 627.389 359.722 626.568 362.252 626.555C364.774 626.568 366.326 627.389 366.326 628.838C366.326 630.26 364.774 631.08 362.252 631.08C359.722 631.08 358.171 630.26 358.177 628.838ZM359.244 628.838C359.237 629.713 360.385 630.232 362.252 630.232C364.111 630.232 365.259 629.713 365.259 628.838C365.259 627.929 364.111 627.409 362.252 627.402C360.385 627.409 359.237 627.929 359.244 628.838ZM362.334 623.451H365.205V621.824H362.334V623.451Z" fill="#222222"/>
<path d="M110.88 669.379C106.62 660.858 100.577 660.807 97.352 661.537C93.8214 662.334 91.3941 665.559 91.7166 669.056V669.175C91.8864 670.754 92.9218 671.738 93.8384 672.621C94.3306 673.096 94.8059 673.554 95.1624 674.08C93.8893 675.014 92.7011 676.032 91.6827 677.289C89.1705 680.412 87.9314 684.214 87.8635 688.203C87.7956 692.82 87.8635 697.454 87.8635 702.071C87.8635 703.327 89.8155 703.327 89.8155 702.071C89.8155 697.675 89.8155 693.295 89.8155 688.899C89.8155 685.334 90.6303 681.956 92.786 679.037C93.6517 677.866 94.6871 676.915 95.8074 676.049C95.8413 677.051 95.5528 678.341 94.738 680.123C92.0052 686.115 91.6996 692.005 93.9572 695.111C94.738 696.181 96.1469 697.386 98.6081 697.386C98.8967 697.386 99.1853 697.369 99.5078 697.335C103.072 696.945 107.282 693.346 109.981 688.39C113.444 682.058 113.766 675.116 110.88 669.345V669.379ZM108.266 687.49C105.89 691.852 102.207 695.111 99.2871 695.434C97.6067 695.621 96.3506 695.145 95.5188 694.008C93.7365 691.53 94.127 686.166 96.5033 680.955C97.7425 678.205 97.9122 676.253 97.5727 674.793C98.3875 674.25 99.2192 673.724 100.051 673.181C101.103 672.502 100.119 670.804 99.0664 671.5C98.3026 671.993 97.5218 672.485 96.7749 672.994C96.2996 672.281 95.7056 671.721 95.1794 671.229C94.2967 670.38 93.7365 669.82 93.6517 669.005V668.903C93.414 666.391 95.1963 664.032 97.7594 663.455C98.4214 663.302 99.1343 663.217 99.8812 663.217C102.835 663.217 106.331 664.711 109.115 670.278C111.712 675.455 111.39 681.736 108.249 687.507L108.266 687.49Z" fill="#42465A" stroke="white" stroke-width="0.4"/>
<circle cx="103.458" cy="679.375" r="5.625" fill="#F63D3B"/>
<circle cx="103.458" cy="679.375" r="3.71875" stroke="white"/>
<path d="M74.6028 717.967V726.949H73.5228V722.615H70.8294V721.713H73.5228V717.967H74.6028ZM64.7181 724.666C67.514 723.743 69.4622 721.993 69.7083 719.799H65.3333V718.896H70.8841C70.8704 722.021 68.6351 724.399 65.1829 725.527L64.7181 724.666ZM66.8646 729.848V726.033H67.9583V728.945H74.9173V729.848H66.8646ZM86.1282 717.953V721.125H87.9603V722.014H86.1282V725.254H85.0618V717.953H86.1282ZM76.64 724.393C79.5726 723.545 81.4456 721.856 81.6644 719.744H77.1732V718.855H82.8196C82.8128 721.952 80.6321 724.222 77.0911 725.268L76.64 724.393ZM78.3079 727.729C78.3011 726.272 79.8665 725.384 82.2864 725.391C84.7269 725.384 86.265 726.272 86.265 727.729C86.265 729.205 84.7269 730.08 82.2864 730.08C79.8665 730.08 78.3011 729.205 78.3079 727.729ZM79.3743 727.729C79.3607 728.645 80.5023 729.226 82.2864 729.219C84.0706 729.226 85.2259 728.645 85.2259 727.729C85.2259 726.812 84.0706 726.245 82.2864 726.252C80.5023 726.245 79.3607 726.812 79.3743 727.729ZM99.1439 717.953V730.107H98.1048V717.953H99.1439ZM88.8763 723.203C88.8831 720.619 89.9085 718.985 91.4876 718.979C92.5267 718.985 93.3265 719.689 93.764 720.906H95.6985V718.213H96.7239V729.492H95.6985V725.5H93.764C93.3333 726.724 92.5267 727.435 91.4876 727.428C89.9085 727.435 88.8831 725.787 88.8763 723.203ZM89.8743 723.203C89.8675 725.172 90.4896 726.416 91.4876 726.402C92.4788 726.416 93.1146 725.172 93.1146 723.203C93.1146 721.228 92.4788 719.99 91.4876 719.99C90.4896 719.99 89.8675 721.228 89.8743 723.203ZM93.9896 721.795C94.0716 722.226 94.1126 722.697 94.1126 723.203C94.1126 723.702 94.0716 724.174 93.9964 724.598H95.6985V721.795H93.9896ZM111.9 724.092V724.967H100.826V724.092H111.9ZM101.482 722.574C103.758 722.376 105.686 721.433 105.775 720.045H101.974V719.184H105.829V717.926H106.882V719.184H110.779V720.045H106.951C107.026 721.433 108.947 722.376 111.243 722.574L110.888 723.422C108.885 723.196 107.094 722.465 106.363 721.234C105.617 722.465 103.826 723.196 101.837 723.422L101.482 722.574ZM102.056 727.154V726.279H110.533V730.107H109.452V727.154H102.056ZM122.427 717.953V721.658H124.259V722.561H122.427V726.922H121.361V717.953H122.427ZM113.158 721.809C113.151 720.045 114.532 718.821 116.343 718.814C118.168 718.821 119.529 720.045 119.542 721.809C119.529 723.565 118.168 724.803 116.343 724.803C114.532 724.803 113.151 723.565 113.158 721.809ZM114.21 721.809C114.203 723.005 115.14 723.859 116.343 723.859C117.567 723.859 118.483 723.005 118.49 721.809C118.483 720.605 117.567 719.758 116.343 719.758C115.14 719.758 114.203 720.605 114.21 721.809ZM114.826 729.848V725.992H115.878V728.945H122.988V729.848H114.826ZM135.402 717.953V730.107H134.349V723.818H132.599V729.479H131.587V718.227H132.599V722.902H134.349V717.953H135.402ZM125.64 726.963V719.443H126.706V726.006C127.909 725.999 129.208 725.91 130.685 725.609L130.822 726.566C129.126 726.874 127.732 726.963 126.392 726.963H125.64Z" fill="#222222"/>
<mask id="path-87-inside-5_238_323" fill="white">
<path d="M162.667 646H287.333V745H162.667V646Z"/>
</mask>
<path d="M163.667 745V646H161.667V745H163.667Z" fill="#DEDEDE" mask="url(#path-87-inside-5_238_323)"/>
<path d="M242.496 686.497C242.273 680.538 239.219 671.73 232.497 670.52C233.744 669.216 235.066 668.006 236.407 666.833C236.705 666.591 236.705 666.125 236.537 665.809C235.811 664.431 235.104 663.053 234.377 661.656C234.191 661.302 233.782 661.209 233.428 661.265C229.108 662.103 225.551 665.082 222.832 668.714C222.758 668.714 222.665 668.695 222.572 668.714C220.505 668.937 218.512 669.794 216.799 671.06C214.993 669.682 213.82 667.261 213 665.194C212.814 664.691 212.274 664.393 211.771 664.691C210.486 665.436 209.202 666.181 207.917 666.926C207.6 667.112 207.433 667.522 207.526 667.876C208.401 671.134 210.077 674.3 212.33 676.832C209.611 683.275 211.231 690.798 216.352 695.584C220.784 699.737 227.86 703.219 234.098 702.846C241.342 702.399 242.701 692.083 242.478 686.497H242.496ZM209.332 668.062C210.151 667.578 210.971 667.112 211.771 666.628C212.646 668.676 213.801 670.743 215.477 672.158C214.527 673.052 213.726 674.095 213.112 675.194C211.399 673.108 210.095 670.632 209.332 668.043V668.062ZM239.61 695.454C238.772 697.949 237.282 700.817 234.377 701.152C229.108 701.748 222.944 698.768 218.94 695.603C213.335 691.189 211.157 684.262 213.894 677.466L213.931 677.391C214.118 677.223 214.248 676.981 214.248 676.721C215.719 673.797 218.661 671.321 221.566 670.594C220.318 672.55 219.276 674.635 218.475 676.609C218.065 677.614 219.704 678.043 220.095 677.056C222.367 671.414 226.91 664.691 233.204 663.071C233.726 664.058 234.247 665.064 234.768 666.051C232.72 667.838 230.69 669.756 229.052 671.935C228.27 672.959 227.488 674.076 227.674 675.417C227.99 677.689 230.337 678.992 230.56 681.301C230.672 682.363 232.348 682.382 232.236 681.301C232.05 679.29 230.895 678.173 229.908 676.516C228.81 674.654 229.759 673.611 231.007 672.14C231.026 672.121 231.044 672.084 231.063 672.065C236.742 672.233 239.889 679.123 240.578 683.908C241.118 687.726 240.839 691.785 239.61 695.435V695.454Z" fill="#42465A" stroke="white" stroke-width="0.3" stroke-linejoin="round"/>
<circle cx="231.875" cy="690.625" r="5.625" fill="#F63D3B"/>
<circle cx="231.875" cy="690.625" r="3.71875" stroke="white"/>
<path d="M211.328 717.967V724.871H210.262V717.967H211.328ZM201.389 723.709C203.228 723.066 204.506 721.419 204.506 719.635V718.445H205.6V719.635C205.586 721.351 206.898 722.868 208.689 723.504L208.143 724.324C206.734 723.839 205.606 722.813 205.06 721.487C204.52 722.896 203.385 724.017 201.936 724.557L201.389 723.709ZM203.426 729.943V725.568H211.328V729.943H203.426ZM204.479 729.068H210.275V726.443H204.479V729.068ZM223.059 718.691V719.635C223.059 720.66 223.059 721.891 222.737 723.545H224.521V724.447H213.393V723.545H221.671C221.999 721.863 221.999 720.667 221.992 719.635V719.566H214.801V718.691H223.059ZM214.869 729.834V725.814H215.936V728.932H223.428V729.834H214.869ZM235.568 717.967V725.268H234.488V723.627H231.262V722.738H234.488V721.098H231.385C230.585 723.053 228.712 724.468 226.107 725.24L225.656 724.393C228.589 723.524 230.428 721.877 230.64 719.771H226.271V718.869H231.809C231.809 719.348 231.754 719.806 231.651 720.236H234.488V717.967H235.568ZM227.529 727.715C227.522 726.266 229.102 725.391 231.59 725.391C234.051 725.391 235.637 726.266 235.637 727.715C235.637 729.171 234.051 730.053 231.59 730.053C229.102 730.053 227.522 729.171 227.529 727.715ZM228.582 727.715C228.589 728.631 229.758 729.185 231.59 729.178C233.395 729.185 234.563 728.631 234.57 727.715C234.563 726.799 233.395 726.245 231.59 726.252C229.758 726.245 228.589 726.799 228.582 727.715ZM241.215 720.332C241.222 721.72 242.145 723.114 243.703 723.723L243.129 724.557C241.974 724.085 241.14 723.189 240.709 722.116C240.258 723.292 239.383 724.331 238.193 724.857L237.605 724.023C239.205 723.312 240.183 721.72 240.189 720.332V718.705H241.215V720.332ZM239.725 726.867V725.979H247.914V730.107H246.861V726.867H239.725ZM244.264 725.24V718.186H245.275V721.139H246.889V717.967H247.914V725.309H246.889V722.041H245.275V725.24H244.264Z" fill="#222222"/>
<mask id="path-93-inside-6_238_323" fill="white">
<path d="M287.333 646H412V745H287.333V646Z"/>
</mask>
<path d="M288.333 745V646H286.333V745H288.333Z" fill="#DEDEDE" mask="url(#path-93-inside-6_238_323)"/>
<path d="M338.59 678.544C337.31 678.711 336.007 678.354 334.956 677.637C334.459 677.294 333.949 678.097 334.447 678.426C335.387 679.068 336.506 679.447 337.65 679.502C337.454 681.038 338.332 682.626 339.964 682.91C340.218 682.947 340.461 682.871 340.555 682.606C340.62 682.381 340.504 682.066 340.251 682.014C338.999 681.8 338.375 680.632 338.6 679.479C338.699 679.468 338.813 679.458 338.913 679.433C340.606 679.168 341.978 678.013 342.683 676.481C342.79 676.244 342.588 675.968 342.378 675.89C342.112 675.81 341.894 675.972 341.787 676.195C341.235 677.407 339.998 678.354 338.591 678.53L338.59 678.544Z" fill="#F63D3B"/>
<path d="M342.931 673.679C343.976 672.921 345.293 672.614 346.558 672.743C347.158 672.807 347.223 671.858 346.629 671.807C345.497 671.691 344.332 671.891 343.3 672.389C342.74 670.945 341.211 669.968 339.641 670.497C339.4 670.585 339.223 670.768 339.267 671.047C339.317 671.275 339.569 671.496 339.816 671.421C341.019 671.012 342.125 671.741 342.477 672.862C342.395 672.919 342.3 672.982 342.224 673.051C340.862 674.092 340.207 675.761 340.318 677.444C340.336 677.704 340.646 677.85 340.867 677.819C341.14 677.762 341.254 677.516 341.242 677.269C341.149 675.94 341.784 674.518 342.937 673.691L342.931 673.679Z" fill="#F63D3B"/>
<path d="M347.071 661.564C346.736 661.179 346.218 661.25 345.77 661.264C343.266 661.393 340.679 662.507 339.49 664.692C337.377 664.963 335.559 666.248 334.566 668.176C333.726 669.79 333.474 671.746 334.034 673.489C330.383 674.445 328.495 679.515 330.453 682.771C330.719 683.214 331.04 683.613 331.418 683.956C330.453 685.384 330.117 687.212 330.635 688.897C331.082 690.368 332.118 691.453 333.46 691.982C333.167 693.267 333.195 694.609 333.81 695.795C334.454 697.023 335.615 697.908 336.832 698.465C338.398 699.193 340.105 699.536 341.812 699.722C342.805 699.822 343.798 699.865 344.791 699.85C345.323 699.85 345.868 699.822 346.4 699.793C346.889 699.75 347.267 699.465 347.295 698.922C347.337 698.222 347.295 697.494 347.295 696.794V662.35C347.295 662.278 347.295 662.207 347.295 662.136C347.295 661.921 347.225 661.721 347.085 661.564H347.071ZM346.344 682.457V698.594C346.344 698.679 346.344 698.765 346.344 698.851C346.33 698.851 346.288 698.851 346.246 698.851C346.008 698.794 345.63 698.879 345.379 698.893C343.532 698.951 341.658 698.865 339.839 698.479C337.503 697.98 334.44 696.766 334.174 693.938C334.118 693.367 334.174 692.796 334.314 692.253C334.426 692.267 334.538 692.296 334.65 692.31C335.237 692.382 335.237 691.439 334.65 691.353C333.125 691.153 331.908 690.082 331.474 688.583C331.082 687.226 331.334 685.713 332.118 684.556C332.523 684.827 332.957 685.041 333.419 685.198C333.978 685.398 334.23 684.484 333.67 684.285C331.88 683.642 330.649 681.971 330.579 680.029C330.523 678.387 331.166 676.702 332.327 675.559C332.915 674.988 333.6 674.588 334.384 674.388C334.817 675.259 335.461 675.988 336.244 676.559C336.734 676.916 337.195 676.088 336.72 675.745C333.824 673.646 334.174 669.176 336.72 666.934C337.391 666.348 338.203 665.934 339.07 665.734C338.972 666.077 338.888 666.42 338.86 666.805C338.762 667.705 338.888 668.619 339.126 669.49C339.28 670.075 340.189 669.833 340.021 669.233C339.601 667.676 339.643 666.02 340.595 664.677C341.448 663.449 342.861 662.764 344.26 662.435C344.609 662.35 344.959 662.293 345.323 662.264C345.533 662.25 345.728 662.236 345.938 662.221C345.98 662.221 346.33 662.221 346.372 662.164C346.372 662.207 346.372 662.264 346.372 662.278C346.372 662.621 346.372 662.964 346.372 663.307V682.457H346.344Z" fill="#42465A"/>
<path d="M349.762 661.564C350.098 661.179 350.615 661.25 351.063 661.264C353.567 661.393 356.155 662.507 357.344 664.692C359.456 664.963 361.275 666.248 362.268 668.176C363.107 669.79 363.359 671.746 362.799 673.489C366.45 674.445 368.339 679.515 366.38 682.771C366.115 683.214 365.793 683.613 365.415 683.956C366.38 685.384 366.716 687.212 366.199 688.897C365.751 690.368 364.716 691.453 363.373 691.982C363.667 693.267 363.639 694.609 363.023 695.795C362.38 697.023 361.219 697.908 360.002 698.465C358.435 699.193 356.728 699.536 355.022 699.722C354.029 699.822 353.035 699.865 352.042 699.85C351.511 699.85 350.965 699.822 350.434 699.793C349.944 699.75 349.566 699.465 349.538 698.922C349.496 698.222 349.538 697.494 349.538 696.794V662.35C349.538 662.278 349.538 662.207 349.538 662.136C349.538 661.921 349.608 661.721 349.748 661.564H349.762ZM350.489 682.457V698.594C350.489 698.679 350.489 698.765 350.489 698.851C350.503 698.851 350.545 698.851 350.587 698.851C350.825 698.794 351.203 698.879 351.455 698.893C353.301 698.951 355.176 698.865 356.994 698.479C359.33 697.98 362.394 696.766 362.659 693.938C362.715 693.367 362.659 692.796 362.52 692.253C362.408 692.267 362.296 692.296 362.184 692.31C361.596 692.382 361.596 691.439 362.184 691.353C363.709 691.153 364.926 690.082 365.359 688.583C365.751 687.226 365.499 685.713 364.716 684.556C364.31 684.827 363.876 685.041 363.415 685.198C362.855 685.398 362.604 684.484 363.163 684.285C364.954 683.642 366.185 681.971 366.255 680.029C366.31 678.387 365.667 676.702 364.506 675.559C363.918 674.988 363.233 674.588 362.45 674.388C362.016 675.259 361.373 675.988 360.589 676.559C360.1 676.916 359.638 676.088 360.114 675.745C363.009 673.646 362.659 669.176 360.114 666.934C359.442 666.348 358.631 665.934 357.764 665.734C357.861 666.077 357.945 666.42 357.973 666.805C358.071 667.705 357.945 668.619 357.708 669.49C357.554 670.075 356.644 669.833 356.812 669.233C357.232 667.676 357.19 666.02 356.239 664.677C355.385 663.449 353.973 662.764 352.574 662.435C352.224 662.35 351.874 662.293 351.511 662.264C351.301 662.25 351.105 662.236 350.895 662.221C350.853 662.221 350.503 662.221 350.462 662.164C350.462 662.207 350.462 662.264 350.462 662.278C350.462 662.621 350.462 662.964 350.462 663.307V682.457H350.489Z" fill="#42465A"/>
<path d="M369.863 694.222C369.726 690.57 367.855 685.173 363.735 684.431C364.5 683.632 365.31 682.89 366.132 682.171C366.314 682.023 366.314 681.738 366.212 681.544C365.767 680.699 365.333 679.855 364.888 678.999C364.774 678.782 364.523 678.725 364.306 678.759C361.658 679.273 359.479 681.099 357.813 683.324C357.767 683.324 357.71 683.312 357.653 683.324C356.386 683.461 355.165 683.986 354.115 684.762C353.008 683.917 352.289 682.434 351.787 681.167C351.673 680.859 351.342 680.676 351.034 680.859C350.247 681.315 349.459 681.772 348.672 682.228C348.478 682.342 348.375 682.594 348.432 682.81C348.969 684.807 349.996 686.747 351.377 688.299C349.71 692.248 350.703 696.858 353.841 699.791C356.557 702.336 360.894 704.47 364.717 704.241C369.156 703.967 369.989 697.645 369.852 694.222H369.863Z" fill="#42465A"/>
<path d="M349.539 682.925C350.041 682.628 350.544 682.343 351.034 682.046C351.571 683.301 352.278 684.568 353.305 685.435C352.723 685.983 352.232 686.622 351.856 687.295C350.806 686.017 350.007 684.499 349.539 682.913V682.925Z" fill="white"/>
<path d="M368.095 699.711C367.581 701.24 366.668 702.997 364.888 703.203C361.658 703.568 357.881 701.742 355.428 699.802C351.993 697.098 350.658 692.853 352.335 688.687L352.358 688.642C352.472 688.539 352.552 688.391 352.552 688.231C353.453 686.439 355.257 684.922 357.037 684.476C356.272 685.675 355.633 686.953 355.142 688.162C354.891 688.779 355.896 689.041 356.135 688.436C357.527 684.979 360.312 680.859 364.169 679.866C364.488 680.471 364.808 681.087 365.128 681.692C363.872 682.788 362.628 683.963 361.624 685.298C361.145 685.926 360.666 686.61 360.78 687.432C360.974 688.824 362.412 689.623 362.549 691.038C362.617 691.689 363.644 691.7 363.576 691.038C363.461 689.806 362.754 689.121 362.149 688.105C361.476 686.964 362.058 686.325 362.822 685.424C362.834 685.412 362.845 685.389 362.857 685.378C366.337 685.481 368.266 689.703 368.688 692.636C369.019 694.975 368.848 697.463 368.095 699.7V699.711Z" fill="white"/>
<path d="M359.028 697.82C357.791 697.981 356.531 697.636 355.515 696.943C355.034 696.611 354.542 697.387 355.023 697.706C355.931 698.326 357.013 698.693 358.119 698.746C357.93 700.23 358.779 701.765 360.356 702.04C360.601 702.076 360.837 702.002 360.928 701.746C360.99 701.529 360.878 701.224 360.633 701.174C359.423 700.967 358.82 699.838 359.037 698.723C359.133 698.713 359.243 698.703 359.34 698.679C360.977 698.422 362.303 697.306 362.984 695.825C363.088 695.596 362.892 695.33 362.69 695.254C362.433 695.176 362.222 695.333 362.119 695.548C361.584 696.72 360.389 697.635 359.028 697.806L359.028 697.82Z" fill="#F63D3B"/>
<path d="M363.224 693.117C364.234 692.385 365.507 692.088 366.73 692.212C367.311 692.274 367.373 691.357 366.799 691.307C365.704 691.195 364.579 691.389 363.581 691.87C363.039 690.475 361.561 689.53 360.044 690.041C359.811 690.126 359.64 690.303 359.682 690.573C359.73 690.793 359.975 691.007 360.213 690.934C361.376 690.539 362.445 691.244 362.785 692.327C362.706 692.382 362.614 692.443 362.54 692.51C361.224 693.517 360.591 695.13 360.698 696.757C360.716 697.008 361.015 697.149 361.229 697.119C361.492 697.064 361.603 696.826 361.591 696.587C361.502 695.303 362.116 693.928 363.23 693.129L363.224 693.117Z" fill="#F63D3B"/>
<path d="M335.995 717.967V724.871H334.928V717.967H335.995ZM326.055 723.709C327.894 723.066 329.173 721.419 329.173 719.635V718.445H330.266V719.635C330.253 721.351 331.565 722.868 333.356 723.504L332.809 724.324C331.401 723.839 330.273 722.813 329.726 721.487C329.186 722.896 328.051 724.017 326.602 724.557L326.055 723.709ZM328.092 729.943V725.568H335.995V729.943H328.092ZM329.145 729.068H334.942V726.443H329.145V729.068ZM348.053 717.953V730.107H346.987V717.953H348.053ZM338.1 726.566C339.18 726.56 340.404 726.553 341.655 726.519V723.832H339.071V719.17H340.151V722.943H345.401V723.832H342.735V726.478C343.897 726.43 345.066 726.348 346.167 726.211L346.235 727.018C343.521 727.441 340.575 727.482 338.251 727.469L338.1 726.566ZM357.049 719.033V719.881H350.173V719.033H353.126V717.803H354.192V719.033H357.049ZM350.897 722.547C350.883 721.275 352.005 720.476 353.645 720.469C355.293 720.476 356.414 721.275 356.421 722.547C356.414 723.798 355.293 724.598 353.645 724.598C352.005 724.598 350.883 723.798 350.897 722.547ZM351.895 722.547C351.888 723.306 352.606 723.818 353.645 723.818C354.684 723.818 355.402 723.306 355.409 722.547C355.402 721.774 354.684 721.275 353.645 721.289C352.606 721.275 351.888 721.774 351.895 722.547ZM352.346 726.156V725.35H360.221V727.975H353.44V729.15H360.577V729.971H352.374V727.195H359.155V726.156H352.346ZM357.036 723.668V722.807H359.155V721.508H357.049V720.66H359.155V717.953H360.221V724.748H359.155V723.668H357.036ZM368.999 718.896V719.539C368.992 720.339 368.992 721.549 368.684 723.135L367.604 723.053C367.898 721.604 367.925 720.571 367.939 719.799H362.942V718.896H368.999ZM362.19 724.27C362.976 724.27 363.865 724.263 364.801 724.235V721.59H365.868V724.201C367.215 724.146 368.609 724.051 369.874 723.873L369.942 724.666C367.392 725.104 364.466 725.151 362.299 725.158L362.19 724.27ZM364.063 729.848V726.279H365.143V728.945H372.184V729.848H364.063ZM370.694 727.1V717.953H371.788V721.918H373.565V722.834H371.788V727.1H370.694Z" fill="#222222"/>
</g>
</g>
<defs>
<filter id="filter0_d_238_323" x="-8" y="-6" width="466" height="116" filterUnits="userSpaceOnUse" color-interpolation-filters="sRGB">
<feFlood flood-opacity="0" result="BackgroundImageFix"/>
<feColorMatrix in="SourceAlpha" type="matrix" values="0 0 0 0 0 0 0 0 0 0 0 0 0 0 0 0 0 0 127 0" result="hardAlpha"/>
<feOffset dy="2"/>
<feGaussianBlur stdDeviation="4"/>
<feComposite in2="hardAlpha" operator="out"/>
<feColorMatrix type="matrix" values="0 0 0 0 0 0 0 0 0 0 0 0 0 0 0 0 0 0 0.08 0"/>
<feBlend mode="normal" in2="BackgroundImageFix" result="effect1_dropShadow_238_323"/>
<feBlend mode="normal" in="SourceGraphic" in2="effect1_dropShadow_238_323" result="shape"/>
</filter>
<filter id="filter1_d_238_323" x="8" y="-2" width="434" height="248" filterUnits="userSpaceOnUse" color-interpolation-filters="sRGB">
<feFlood flood-opacity="0" result="BackgroundImageFix"/>
<feColorMatrix in="SourceAlpha" type="matrix" values="0 0 0 0 0 0 0 0 0 0 0 0 0 0 0 0 0 0 127 0" result="hardAlpha"/>
<feOffset dy="2"/>
<feGaussianBlur stdDeviation="4"/>
<feComposite in2="hardAlpha" operator="out"/>
<feColorMatrix type="matrix" values="0 0 0 0 0 0 0 0 0 0 0 0 0 0 0 0 0 0 0.08 0"/>
<feBlend mode="normal" in2="BackgroundImageFix" result="effect1_dropShadow_238_323"/>
<feBlend mode="normal" in="SourceGraphic" in2="effect1_dropShadow_238_323" result="shape"/>
</filter>
<filter id="filter2_d_238_323" x="8" y="364" width="434" height="115" filterUnits="userSpaceOnUse" color-interpolation-filters="sRGB">
<feFlood flood-opacity="0" result="BackgroundImageFix"/>
<feColorMatrix in="SourceAlpha" type="matrix" values="0 0 0 0 0 0 0 0 0 0 0 0 0 0 0 0 0 0 127 0" result="hardAlpha"/>
<feOffset dy="2"/>
<feGaussianBlur stdDeviation="4"/>
<feComposite in2="hardAlpha" operator="out"/>
<feColorMatrix type="matrix" values="0 0 0 0 0 0 0 0 0 0 0 0 0 0 0 0 0 0 0.08 0"/>
<feBlend mode="normal" in2="BackgroundImageFix" result="effect1_dropShadow_238_323"/>
<feBlend mode="normal" in="SourceGraphic" in2="effect1_dropShadow_238_323" result="shape"/>
</filter>
<filter id="filter3_d_238_323" x="8" y="531" width="434" height="234" filterUnits="userSpaceOnUse" color-interpolation-filters="sRGB">
<feFlood flood-opacity="0" result="BackgroundImageFix"/>
<feColorMatrix in="SourceAlpha" type="matrix" values="0 0 0 0 0 0 0 0 0 0 0 0 0 0 0 0 0 0 127 0" result="hardAlpha"/>
<feOffset dy="2"/>
<feGaussianBlur stdDeviation="4"/>
<feComposite in2="hardAlpha" operator="out"/>
<feColorMatrix type="matrix" values="0 0 0 0 0 0 0 0 0 0 0 0 0 0 0 0 0 0 0.08 0"/>
<feBlend mode="normal" in2="BackgroundImageFix" result="effect1_dropShadow_238_323"/>
<feBlend mode="normal" in="SourceGraphic" in2="effect1_dropShadow_238_323" result="shape"/>
</filter>
<clipPath id="clip0_238_323">
<rect width="450" height="851" fill="white"/>
</clipPath>
<clipPath id="clip1_238_323">
<rect width="24" height="24" fill="white" transform="translate(16 16)"/>
</clipPath>
<clipPath id="clip2_238_323">
<rect width="450" height="228" fill="white" transform="translate(0 100)"/>
</clipPath>
</defs>
</svg>
