<svg width="450" height="851" viewBox="0 0 450 851" fill="none" xmlns="http://www.w3.org/2000/svg">
<g clip-path="url(#clip0_238_234)">
<rect width="450" height="851" fill="#EFF6F8"/>
<g filter="url(#filter0_d_238_234)">
<rect width="450" height="100" fill="white"/>
<g clip-path="url(#clip1_238_234)">
<path d="M28.8356 32.9948L28.8073 31.754C23.9761 31.7414 21.8589 28.7163 21.84 26.263C21.8212 24.3814 23.1154 22.3867 25.2608 22.3678C27.0702 22.3521 27.9749 23.7814 27.9749 23.7814C27.9749 23.7814 28.7319 22.327 30.7392 22.3082C32.1685 22.2956 34.0941 23.4987 34.1192 26.285C34.1412 28.9048 32.2533 31.7759 28.8388 32.9948M27.9058 16.0005C21.35 16.057 15.947 20.8538 16.0004 27.0389C16.0255 30.1268 17.6181 33.2806 20.4516 35.3601L19.7165 38.9192C33.5475 42.9086 40.0531 32.8534 39.9997 26.8536C39.9494 20.7375 34.5778 15.944 27.9058 16.0005Z" fill="#EF403C"/>
<path d="M28.9495 37.7377L28.8364 32.9944C26.7506 33.7389 24.0963 33.8677 20.955 32.9473L20.4555 35.3598C22.6136 36.943 25.4878 37.9042 28.9495 37.7377Z" fill="#850E11"/>
</g>
<path d="M61 20.9648C61 25.2715 58.2842 28.1895 53.4414 29.4199L52.4746 27.4512C55.9902 26.5811 57.8975 24.9023 58.2666 22.916H53.4414V20.9648H61ZM55.1465 35.9941V29.666H65.9746V35.9941H55.1465ZM57.6602 34.0254H63.4961V31.6348H57.6602V34.0254ZM63.4434 29.0332V20.0684H65.9746V29.0332H63.4434ZM70.7734 21.457V25.0078H72.5312V21.457H74.8867V32.4258H68.3828V21.457H70.7734ZM70.7734 30.4043H72.5312V26.9766H70.7734V30.4043ZM75.9941 35.4668V20.2617H78.3848V26.1328H79.5801V20.0508H82.0059V36.1875H79.5801V28.1895H78.3848V35.4668H75.9941ZM90.8828 20.2441C94.4951 20.2529 96.7979 21.4395 96.8066 23.4082C96.7979 25.3418 94.4951 26.502 90.8828 26.502C87.2969 26.502 84.9502 25.3418 84.959 23.4082C84.9502 21.4395 87.2969 20.2529 90.8828 20.2441ZM83.5352 29.209V27.2051H98.248V29.209H92.1309V30.457H96.4902V36.0117H85.2227V30.457H89.5996V29.209H83.5352ZM87.5957 23.4082C87.5781 24.208 88.7471 24.5859 90.8828 24.5859C93.001 24.5859 94.1875 24.208 94.1875 23.4082C94.1875 22.5645 93.001 22.1689 90.8828 22.1777C88.7471 22.1689 87.5781 22.5645 87.5957 23.4082ZM87.7012 33.9902H94.0293V32.4434H87.7012V33.9902Z" fill="#323142"/>
<path d="M114.518 20.2969V29.1738H113.164V20.2969H114.518ZM102.617 27.9785V21.2285H104.006V26.8008C106.59 26.7832 108.901 26.6074 111.389 26.0801L111.6 27.2402C108.954 27.7764 106.581 27.9609 103.883 27.9785H102.617ZM104.375 35.7129V29.8945H114.518V35.7129H104.375ZM105.729 34.5879H113.164V31.002H105.729V34.5879Z" fill="#323142"/>
<circle cx="380" cy="28" r="18" fill="#E8E9F3"/>
<path d="M370.573 26.907C370.984 26.9143 371.365 26.8813 371.717 26.808C372.069 26.7273 372.373 26.6063 372.63 26.445C372.887 26.2837 373.088 26.082 373.235 25.84C373.382 25.598 373.455 25.312 373.455 24.982V24.861C373.455 24.6997 373.371 24.619 373.202 24.619H370.716C370.555 24.619 370.415 24.5933 370.298 24.542C370.188 24.4907 370.096 24.4247 370.023 24.344C369.95 24.256 369.895 24.1607 369.858 24.058C369.829 23.9553 369.814 23.849 369.814 23.739C369.814 23.629 369.829 23.5227 369.858 23.42C369.895 23.3173 369.95 23.2257 370.023 23.145C370.096 23.057 370.188 22.9873 370.298 22.936C370.415 22.8847 370.555 22.859 370.716 22.859H374.049C374.65 22.859 375.065 22.9837 375.292 23.233C375.527 23.475 375.644 23.8453 375.644 24.344V24.927C375.644 24.9637 375.644 25.004 375.644 25.048C375.644 25.0847 375.64 25.1213 375.633 25.158H377.162V23.574C377.162 23.222 377.272 22.958 377.492 22.782C377.712 22.5987 377.965 22.507 378.251 22.507C378.39 22.507 378.526 22.5327 378.658 22.584C378.79 22.628 378.907 22.694 379.01 22.782C379.113 22.87 379.193 22.98 379.252 23.112C379.318 23.244 379.351 23.398 379.351 23.574V30.284H377.162V26.874H375.094C374.881 27.204 374.614 27.4937 374.291 27.743C373.968 27.985 373.609 28.183 373.213 28.337C372.817 28.491 372.388 28.5973 371.926 28.656C371.464 28.7147 370.987 28.7257 370.496 28.689C370.247 28.6743 370.034 28.579 369.858 28.403C369.689 28.227 369.612 27.9923 369.627 27.699C369.642 27.4423 369.737 27.2443 369.913 27.105C370.096 26.9657 370.316 26.8997 370.573 26.907ZM371.772 32.836C371.464 32.836 371.207 32.8067 371.002 32.748C370.804 32.6893 370.646 32.5977 370.529 32.473C370.412 32.3483 370.327 32.1833 370.276 31.978C370.232 31.7727 370.21 31.5233 370.21 31.23V30.163C370.21 29.789 370.32 29.514 370.54 29.338C370.767 29.162 371.035 29.074 371.343 29.074C371.651 29.074 371.911 29.162 372.124 29.338C372.337 29.514 372.443 29.789 372.443 30.163V30.856C372.443 30.9807 372.461 31.0577 372.498 31.087C372.535 31.1163 372.615 31.131 372.74 31.131H378.713C379.05 31.131 379.289 31.219 379.428 31.395C379.567 31.5637 379.637 31.758 379.637 31.978C379.637 32.2053 379.564 32.4033 379.417 32.572C379.278 32.748 379.043 32.836 378.713 32.836H371.772ZM383.443 32.869C383.062 32.869 382.728 32.814 382.442 32.704C382.163 32.6013 381.929 32.4583 381.738 32.275C381.555 32.0917 381.415 31.8753 381.32 31.626C381.232 31.3693 381.188 31.0907 381.188 30.79C381.188 30.4967 381.232 30.2217 381.32 29.965C381.415 29.7083 381.555 29.4883 381.738 29.305C381.929 29.1143 382.163 28.964 382.442 28.854C382.728 28.744 383.062 28.689 383.443 28.689H388.547C388.921 28.689 389.247 28.744 389.526 28.854C389.812 28.9567 390.047 29.1033 390.23 29.294C390.421 29.4773 390.564 29.6973 390.659 29.954C390.754 30.2107 390.802 30.4893 390.802 30.79C390.802 31.0907 390.754 31.3693 390.659 31.626C390.564 31.8827 390.421 32.1027 390.23 32.286C390.047 32.4693 389.812 32.6123 389.526 32.715C389.247 32.8177 388.921 32.869 388.547 32.869H383.443ZM388.811 26.423H388.316V28.304H386.413V23.442C386.413 23.134 386.505 22.903 386.688 22.749C386.879 22.5877 387.102 22.507 387.359 22.507C387.608 22.507 387.828 22.5877 388.019 22.749C388.217 22.903 388.316 23.134 388.316 23.442V24.773H388.811V23.442C388.811 23.134 388.906 22.903 389.097 22.749C389.295 22.5877 389.522 22.507 389.779 22.507C390.028 22.507 390.252 22.5877 390.45 22.749C390.648 22.903 390.747 23.134 390.747 23.442V28.304H388.811V26.423ZM381.122 26.665C381.503 26.5183 381.793 26.236 381.991 25.818C382.189 25.4 382.288 24.8133 382.288 24.058V23.728C382.288 23.376 382.383 23.1193 382.574 22.958C382.772 22.7893 383.01 22.705 383.289 22.705C383.568 22.705 383.81 22.7893 384.015 22.958C384.228 23.1193 384.334 23.376 384.334 23.728V24.058C384.334 24.212 384.33 24.3623 384.323 24.509C384.316 24.6483 384.305 24.784 384.29 24.916C384.95 25.048 385.441 25.378 385.764 25.906C386.094 26.434 386.219 27.1967 386.138 28.194H384.169C384.235 27.842 384.239 27.534 384.18 27.27C384.129 26.9987 384.019 26.7897 383.85 26.643C383.615 27.149 383.307 27.5487 382.926 27.842C382.552 28.128 382.127 28.304 381.65 28.37C381.371 28.4067 381.129 28.3627 380.924 28.238C380.726 28.1133 380.609 27.9337 380.572 27.699C380.484 27.1857 380.667 26.841 381.122 26.665ZM387.964 31.329C388.206 31.329 388.367 31.2703 388.448 31.153C388.529 31.0357 388.569 30.9147 388.569 30.79C388.569 30.6653 388.529 30.548 388.448 30.438C388.367 30.328 388.206 30.273 387.964 30.273H384.026C383.784 30.273 383.623 30.328 383.542 30.438C383.461 30.548 383.421 30.6653 383.421 30.79C383.421 30.9147 383.461 31.0357 383.542 31.153C383.623 31.2703 383.784 31.329 384.026 31.329H387.964Z" fill="#323142"/>
<path d="M427.5 23.667C427.5 21.9431 426.815 20.2898 425.596 19.0708C424.377 17.8518 422.724 17.167 421 17.167C419.276 17.167 417.623 17.8518 416.404 19.0708C415.185 20.2898 414.5 21.9431 414.5 23.667C414.5 31.2503 411.25 33.417 411.25 33.417H430.75C430.75 33.417 427.5 31.2503 427.5 23.667Z" stroke="#323142" stroke-width="2" stroke-linecap="round" stroke-linejoin="round"/>
<path d="M422.874 37.75C422.684 38.0783 422.41 38.3509 422.081 38.5403C421.753 38.7298 421.38 38.8295 421 38.8295C420.62 38.8295 420.248 38.7298 419.919 38.5403C419.59 38.3509 419.316 38.0783 419.126 37.75" stroke="#323142" stroke-width="2" stroke-linecap="round" stroke-linejoin="round"/>
<path d="M32.584 79.9287V84.3613H22.042V79.9287H32.584ZM20.4482 79.165V77.5049H26.2754V76.7661C23.6855 76.6167 22.2412 75.8945 22.2578 74.6328C22.2412 73.2051 24.084 72.4829 27.3379 72.4746C30.6084 72.4829 32.4097 73.2051 32.418 74.6328C32.4097 75.8945 30.9985 76.6167 28.4004 76.7661V77.5049H34.2275V79.165H20.4482ZM21.1123 72.0928V70.499H26.2754V69.2871H28.4004V70.499H33.5137V72.0928H21.1123ZM24.1338 82.7842H30.5088V81.5059H24.1338V82.7842ZM24.5156 74.6328C24.5156 75.1392 25.4287 75.3633 27.3379 75.3633C29.2637 75.3633 30.1436 75.1392 30.1436 74.6328C30.1436 74.1016 29.2637 73.9106 27.3379 73.9023C25.4287 73.9106 24.5156 74.1016 24.5156 74.6328Z" fill="#999999"/>
<path d="M115.6 70.6318V77.9199H108.212V70.6318H115.6ZM109.972 84.1953V79.1816H112.113V82.4854H120.497V84.1953H109.972ZM110.304 76.2432H113.491V72.3086H110.304V76.2432ZM117.974 80.1777V69.4365H120.099V80.1777H117.974ZM134.94 69.4365V80.8418H132.815V79.6465H129.927V78.2021H132.815V69.4365H134.94ZM122.091 76.127C124.855 76.1104 128.59 76.0688 131.786 75.6787L131.902 77.1895C130.707 77.3887 129.47 77.5298 128.25 77.6211V80.4932H126.125V82.5684H135.272V84.2617H124.017V79.7461H126.125V77.7456C124.772 77.7954 123.485 77.8037 122.34 77.8037L122.091 76.127ZM123.203 72.6572C123.203 71.0469 124.755 69.9429 127.005 69.9512C129.196 69.9429 130.765 71.0469 130.773 72.6572C130.765 74.2759 129.196 75.3218 127.005 75.3135C124.755 75.3218 123.203 74.2759 123.203 72.6572ZM125.212 72.6572C125.204 73.3877 125.926 73.7944 127.005 73.7861C128.018 73.7944 128.748 73.3877 128.765 72.6572C128.748 71.9102 128.018 71.4951 127.005 71.4951C125.926 71.4951 125.204 71.9102 125.212 72.6572ZM141 70.4824C142.361 70.4824 143.49 71.2212 144.179 72.5244H147.491V69.4199H149.583V84.5605H147.491V78.8994H144.337C143.665 80.3936 142.461 81.2568 141 81.2568C138.709 81.2568 137.065 79.1816 137.082 75.8613C137.065 72.5659 138.709 70.4824 141 70.4824ZM139.107 75.8613C139.099 78.1108 139.871 79.3394 141 79.3311C142.137 79.3394 142.893 78.1108 142.893 75.8613C142.893 73.6201 142.137 72.3916 141 72.3916C139.871 72.3916 139.099 73.6201 139.107 75.8613ZM144.769 74.2344C144.868 74.7324 144.918 75.2803 144.918 75.8613C144.918 76.3345 144.885 76.7827 144.818 77.2061H147.491V74.2344H144.769ZM164.226 69.4199V84.5273H162.084V69.4199H164.226ZM151.575 80.2441C155.477 78.4014 157.195 76.0107 157.535 72.6572H152.389V70.9971H159.693C159.685 75.5791 158.083 79.3892 152.688 81.9375L151.575 80.2441ZM180.047 81.0244V82.7676H166.218V81.0244H169.306V77.3223C168.135 76.6167 167.43 75.5459 167.43 74.2178C167.43 71.769 169.82 70.1587 173.107 70.1504C176.378 70.1587 178.793 71.769 178.802 74.2178C178.793 75.521 178.113 76.5752 176.976 77.2808V81.0244H180.047ZM169.521 74.2178C169.521 75.6953 170.941 76.6084 173.107 76.6084C175.241 76.6084 176.702 75.6953 176.71 74.2178C176.702 72.6987 175.241 71.8188 173.107 71.8271C170.941 71.8188 169.521 72.6987 169.521 74.2178ZM171.397 81.0244H174.834V78.0859C174.294 78.1938 173.713 78.252 173.107 78.252C172.501 78.252 171.929 78.1938 171.397 78.0942V81.0244Z" fill="#999999"/>
<mask id="path-11-inside-1_238_234" fill="white">
<path d="M251 56H301V100H251V56Z"/>
</mask>
<path d="M301 98H251V102H301V98Z" fill="#323142" mask="url(#path-11-inside-1_238_234)"/>
<path d="M266.28 69.4365V80.4766H264.171V75.5459H261.465V73.8027H264.171V69.4365H266.28ZM253.746 77.2891C256.875 76.3096 258.9 74.5 259.291 72.2754H254.526V70.5488H261.598C261.598 74.5996 259.025 77.5962 254.609 78.9658L253.746 77.2891ZM256.319 84.2617V79.3643H258.477V82.5684H266.662V84.2617H256.319ZM280.225 69.4199V72.9727H282.267V74.6992H280.225V78.1855H278.1V69.4199H280.225ZM268.139 76.8076C271.468 75.9277 273.369 74.2012 273.701 72.1094H268.853V70.416H276.008C276.017 74.4419 273.485 77.2642 268.986 78.5176L268.139 76.8076ZM270.181 81.4561C270.165 79.5635 272.223 78.3682 275.294 78.3682C278.374 78.3682 280.383 79.5635 280.391 81.4561C280.383 83.3652 278.374 84.5439 275.294 84.5439C272.223 84.5439 270.165 83.3652 270.181 81.4561ZM272.273 81.4561C272.265 82.3691 273.394 82.8921 275.294 82.8838C277.17 82.8921 278.299 82.3691 278.299 81.4561C278.299 80.5264 277.17 80.0117 275.294 80.0117C273.394 80.0117 272.265 80.5264 272.273 81.4561ZM283.446 83V73.9854H285.903V83H283.446ZM283.33 71.5615C283.33 70.8643 283.936 70.3081 284.674 70.2998C285.405 70.3081 286.011 70.8643 286.002 71.5615C286.011 72.2422 285.405 72.8066 284.674 72.8066C283.936 72.8066 283.33 72.2422 283.33 71.5615ZM297.889 70.9805V83H295.731L290.452 75.3633H290.352V83H287.862V70.9805H290.053L295.299 78.6172H295.416V70.9805H297.889Z" fill="#323142"/>
<path d="M380.031 70.4326V72.126H377.026C377.035 73.8857 378.105 75.5874 380.513 76.293L379.5 77.9531C377.832 77.4468 376.669 76.4258 376.005 75.1392C375.333 76.6582 374.104 77.8701 372.295 78.4678L371.216 76.791C373.723 76.0024 374.86 74.0435 374.885 72.126H371.797V70.4326H380.031ZM373.308 81.5889C373.299 79.7461 375.292 78.6753 378.487 78.6836C381.633 78.6753 383.576 79.7461 383.584 81.5889C383.576 83.4399 381.633 84.5356 378.487 84.5273C375.292 84.5356 373.299 83.4399 373.308 81.5889ZM375.433 81.5889C375.416 82.4521 376.503 82.8838 378.487 82.8838C380.446 82.8838 381.492 82.4521 381.492 81.5889C381.492 80.7422 380.446 80.3188 378.487 80.3271C376.503 80.3188 375.416 80.7422 375.433 81.5889ZM381.31 78.3848V69.4199H383.435V72.9229H385.477V74.6494H383.435V78.3848H381.31ZM398.841 69.4199V84.5273H396.699V69.4199H398.841ZM386.19 80.2441C390.092 78.4014 391.81 76.0107 392.15 72.6572H387.004V70.9971H394.309C394.3 75.5791 392.698 79.3892 387.303 81.9375L386.19 80.2441ZM414.662 81.0244V82.7676H400.833V81.0244H403.921V77.3223C402.75 76.6167 402.045 75.5459 402.045 74.2178C402.045 71.769 404.436 70.1587 407.723 70.1504C410.993 70.1587 413.409 71.769 413.417 74.2178C413.409 75.521 412.728 76.5752 411.591 77.2808V81.0244H414.662ZM404.137 74.2178C404.137 75.6953 405.556 76.6084 407.723 76.6084C409.856 76.6084 411.317 75.6953 411.325 74.2178C411.317 72.6987 409.856 71.8188 407.723 71.8271C405.556 71.8188 404.137 72.6987 404.137 74.2178ZM406.013 81.0244H409.449V78.0859C408.91 78.1938 408.329 78.252 407.723 78.252C407.117 78.252 406.544 78.1938 406.013 78.0942V81.0244ZM429.471 71.2959V73.0225H427.512V74.583H429.471V76.3262H427.512V78.252H425.387V69.4199H427.512V71.2959H429.471ZM415.625 73.9023C415.617 71.7524 417.41 70.2417 419.775 70.25C422.116 70.2417 423.893 71.7524 423.893 73.9023C423.893 76.0356 422.116 77.563 419.775 77.5547C417.41 77.563 415.617 76.0356 415.625 73.9023ZM417.385 81.5557C417.376 79.6714 419.402 78.5591 422.564 78.5508C425.669 78.5591 427.653 79.6714 427.661 81.5557C427.653 83.415 425.669 84.5356 422.564 84.5273C419.402 84.5356 417.376 83.415 417.385 81.5557ZM417.717 73.9023C417.7 75.0811 418.588 75.77 419.775 75.7783C420.938 75.77 421.826 75.0811 421.834 73.9023C421.826 72.7402 420.938 72.0181 419.775 72.0264C418.588 72.0181 417.7 72.7402 417.717 73.9023ZM419.51 81.5557C419.493 82.4438 420.581 82.8506 422.564 82.8506C424.523 82.8506 425.569 82.4438 425.569 81.5557C425.569 80.6758 424.523 80.2358 422.564 80.2275C420.581 80.2358 419.493 80.6758 419.51 81.5557Z" fill="#999999"/>
</g>
<g filter="url(#filter1_d_238_234)">
<rect x="16" y="126" width="418" height="115" rx="10" fill="white" shape-rendering="crispEdges"/>
<rect x="17" y="127" width="416" height="113" rx="9" stroke="#44465C" stroke-width="2" shape-rendering="crispEdges"/>
<g clip-path="url(#clip2_238_234)">
<path d="M68.9086 183.496C68.9086 187.05 67.8084 190.341 65.9486 193.057C62.9013 197.493 57.7846 200.4 52.0044 200.4C46.2241 200.4 41.1074 197.484 38.0601 193.057C36.2003 190.341 35.1002 187.041 35.1002 183.496C35.0914 174.162 42.6617 166.592 51.9956 166.592C61.3296 166.592 68.8998 174.162 68.8998 183.496H68.9086Z" fill="#F3F4F9" stroke="#3A394B" stroke-width="1.5" stroke-linecap="round" stroke-linejoin="round"/>
<path d="M42.9069 179.204C44.4974 179.204 46.0876 179.243 47.678 179.243" stroke="#3A394B" stroke-width="1.5" stroke-linecap="round"/>
<path d="M39.5 183C40.8077 182.97 43.1918 183 44.5 183" stroke="#3A394B" stroke-width="1.5" stroke-linecap="round"/>
<path d="M56.4863 178.274L58.9834 182.471L64.0071 183.096C64.6436 183.193 65.0843 183.789 64.9864 184.423C64.8884 185.058 64.2911 185.497 63.6546 185.399L58.2588 184.726C57.8573 184.667 57.4264 184.433 57.2207 184.072L56.1631 182.305L55.3405 185.751C56.3394 186.707 58.4644 188.084 59.1891 189.187C59.3947 189.499 59.4731 189.87 59.3947 190.231L58.5721 196.38C58.4155 197.132 57.681 197.62 56.927 197.474C56.1729 197.318 55.6833 196.585 55.8302 195.834L56.5157 190.67L51.5605 187.908C50.0916 188.659 46.0864 192.076 44.4216 191.305L39.8093 189.431C39.114 189.108 38.8006 188.279 39.1336 187.586C39.4567 186.893 40.2891 186.58 40.9942 186.912L44.9504 188.513L49.7489 184.697L50.9534 179.66L48.5738 179.943L45.9689 184.267C45.6261 184.804 44.9015 184.97 44.3629 184.618C43.8243 184.277 43.6676 183.554 44.0103 183.018L46.8111 178.371C47.0363 178.03 47.4182 177.727 47.8393 177.698C49.602 177.512 51.4626 177.259 53.2449 177.063C54.1556 176.966 55.9869 177.395 56.4863 178.303V178.274Z" fill="#B6C7F7" stroke="#3A394B" stroke-width="1.5" stroke-linecap="round" stroke-linejoin="round"/>
<path d="M55.8302 171.5C57.3676 171.5 58.6113 172.74 58.6113 174.272C58.6113 175.805 57.3676 177.044 55.8302 177.044C54.2927 177.044 53.049 175.805 53.049 174.272C53.049 172.74 54.2927 171.5 55.8302 171.5Z" fill="white" stroke="#3A394B" stroke-width="1.5" stroke-linecap="round" stroke-linejoin="round"/>
</g>
<path d="M97.8281 160.609V162.234H95.8125V169.406H93.8125V155.219H95.8125V160.609H97.8281ZM85.0469 165.938V156.578H87.0312V164.289C88.8516 164.258 90.8047 164.086 92.8594 163.672L93.0625 165.328C90.6797 165.812 88.375 165.938 86.2812 165.938H85.0469ZM103.031 156.172C105.289 156.164 106.961 157.617 106.969 159.656C106.961 161.703 105.289 163.148 103.031 163.156C100.789 163.148 99.0703 161.703 99.0781 159.656C99.0703 157.617 100.789 156.164 103.031 156.172ZM98.4844 164.938C101.023 164.945 104.539 164.914 107.578 164.484L107.734 165.922C104.578 166.539 101.203 166.562 98.7188 166.562L98.4844 164.938ZM101.062 159.656C101.055 160.781 101.906 161.43 103.031 161.422C104.164 161.43 105.023 160.781 105.031 159.656C105.023 158.547 104.164 157.891 103.031 157.891C101.906 157.891 101.055 158.547 101.062 159.656ZM108.391 169.469V155.219H110.375V169.469H108.391ZM127.922 155.234V165.625H125.938V160.984H123.391V159.344H125.938V155.234H127.922ZM116.125 162.625C119.07 161.703 120.977 160 121.344 157.906H116.859V156.281H123.516C123.516 160.094 121.094 162.914 116.938 164.203L116.125 162.625ZM118.547 169.188V164.578H120.578V167.594H128.281V169.188H118.547ZM141.047 155.219V158.562H142.969V160.188H141.047V163.469H139.047V155.219H141.047ZM129.672 162.172C132.805 161.344 134.594 159.719 134.906 157.75H130.344V156.156H137.078C137.086 159.945 134.703 162.602 130.469 163.781L129.672 162.172ZM131.594 166.547C131.578 164.766 133.516 163.641 136.406 163.641C139.305 163.641 141.195 164.766 141.203 166.547C141.195 168.344 139.305 169.453 136.406 169.453C133.516 169.453 131.578 168.344 131.594 166.547ZM133.562 166.547C133.555 167.406 134.617 167.898 136.406 167.891C138.172 167.898 139.234 167.406 139.234 166.547C139.234 165.672 138.172 165.188 136.406 165.188C134.617 165.188 133.555 165.672 133.562 166.547ZM156.828 160.609V162.234H154.812V169.406H152.812V155.219H154.812V160.609H156.828ZM144.047 165.938V156.578H146.031V164.289C147.852 164.258 149.805 164.086 151.859 163.672L152.062 165.328C149.68 165.812 147.375 165.938 145.281 165.938H144.047ZM169.328 155.219V169.469H167.312V155.219H169.328ZM157.844 161.281C157.836 158.18 159.422 156.219 161.609 156.219C163.75 156.219 165.344 158.18 165.344 161.281C165.344 164.406 163.75 166.359 161.609 166.359C159.422 166.359 157.836 164.406 157.844 161.281ZM159.766 161.281C159.758 163.398 160.5 164.555 161.609 164.547C162.688 164.555 163.414 163.398 163.422 161.281C163.414 159.172 162.688 158.016 161.609 158.016C160.5 158.016 159.758 159.172 159.766 161.281Z" fill="#323142"/>
<path d="M95.0463 208.338C93.3462 208.338 91.8154 208.028 90.4537 207.408C89.0921 206.779 88.0165 205.913 87.2269 204.809C86.4453 203.698 86.0384 202.441 86.0062 201.039H90.9976C91.0379 201.667 91.2393 202.231 91.6019 202.731C91.9725 203.222 92.4599 203.605 93.0642 203.879C93.6685 204.153 94.3292 204.29 95.0463 204.29C95.8923 204.29 96.6456 204.104 97.3063 203.734C97.975 203.355 98.4947 202.835 98.8653 202.175C99.236 201.506 99.4213 200.745 99.4213 199.891C99.4213 199.028 99.2319 198.263 98.8532 197.594C98.4746 196.917 97.9468 196.39 97.27 196.011C96.5932 195.624 95.8238 195.431 94.9617 195.431C93.1005 195.431 91.8113 196.12 91.0943 197.498H86.4171L87.7707 183.249H102.999V187.467H92.0007L91.3239 193.715H91.5173C91.9926 193.086 92.6735 192.579 93.5597 192.192C94.446 191.805 95.4209 191.612 96.4845 191.612C97.9831 191.612 99.3326 191.962 100.533 192.663C101.742 193.356 102.684 194.323 103.361 195.564C104.046 196.797 104.388 198.195 104.388 199.758C104.388 201.409 103.998 202.888 103.216 204.193C102.435 205.49 101.335 206.505 99.9168 207.239C98.4987 207.972 96.8752 208.338 95.0463 208.338ZM117.533 208.338C115.696 208.338 114.025 207.944 112.518 207.154C111.011 206.356 109.795 205.055 108.868 203.25C107.942 201.437 107.478 199.085 107.478 196.192C107.486 193.445 107.905 191.072 108.735 189.074C109.573 187.076 110.757 185.549 112.288 184.493C113.819 183.438 115.612 182.91 117.666 182.91C119.286 182.91 120.74 183.224 122.029 183.853C123.318 184.481 124.354 185.343 125.135 186.439C125.917 187.535 126.392 188.764 126.561 190.125H121.498C121.288 189.255 120.845 188.57 120.168 188.071C119.491 187.571 118.657 187.321 117.666 187.321C116.563 187.321 115.624 187.64 114.85 188.276C114.085 188.905 113.505 189.811 113.11 190.996C112.723 192.172 112.526 193.574 112.518 195.201H112.735C113.308 194.114 114.162 193.264 115.298 192.651C116.434 192.031 117.695 191.721 119.08 191.721C120.547 191.721 121.868 192.063 123.045 192.748C124.229 193.433 125.155 194.384 125.824 195.6C126.493 196.817 126.827 198.186 126.827 199.709C126.827 201.369 126.437 202.856 125.655 204.169C124.882 205.474 123.79 206.497 122.38 207.239C120.97 207.972 119.354 208.338 117.533 208.338ZM113.038 199.878C113.038 200.676 113.227 201.413 113.606 202.09C113.992 202.767 114.52 203.303 115.189 203.698C115.866 204.092 116.619 204.29 117.449 204.29C118.279 204.29 119.028 204.096 119.697 203.71C120.366 203.315 120.889 202.779 121.268 202.102C121.647 201.425 121.836 200.676 121.836 199.854C121.836 199.041 121.647 198.299 121.268 197.631C120.897 196.962 120.382 196.434 119.721 196.047C119.06 195.661 118.315 195.467 117.485 195.467C116.663 195.467 115.914 195.665 115.237 196.059C114.56 196.454 114.025 196.99 113.63 197.667C113.243 198.336 113.046 199.073 113.038 199.878Z" fill="#FE555A"/>
<path d="M135.552 200.412C135.552 202.347 136.495 204.432 138.108 205.389L137.493 206.223C136.317 205.512 135.477 204.213 135.053 202.729C134.608 204.35 133.706 205.744 132.489 206.482L131.806 205.676C133.487 204.691 134.513 202.538 134.513 200.453V198.102H135.552V200.412ZM136.769 202.23V201.314H138.833V197.213H139.845V208.492H138.833V202.23H136.769ZM141.321 209.107V196.953H142.36V209.107H141.321Z" fill="#323142"/>
<path d="M147.57 203.833C147.57 201.49 148.185 199.427 149.416 197.645H150.46C150.151 198.067 149.869 198.62 149.614 199.303C149.36 199.983 149.158 200.721 149.01 201.517C148.862 202.31 148.788 203.082 148.788 203.833C148.788 204.584 148.862 205.357 149.01 206.153C149.158 206.946 149.36 207.683 149.614 208.363C149.869 209.046 150.151 209.599 150.46 210.021H149.416C148.185 208.238 147.57 206.176 147.57 203.833ZM161.565 206.24H160.492V203.62H158.374V202.75H160.492V201.097H158.374V200.207H160.492V196.968H161.565V206.24ZM151.5 198.457H154.458V196.959H155.522V198.457H158.384V199.337H151.5V198.457ZM152.225 202.325C152.222 201.867 152.336 201.462 152.568 201.111C152.8 200.76 153.124 200.488 153.54 200.294C153.959 200.101 154.439 200.004 154.98 200.004C155.519 200.004 155.997 200.101 156.416 200.294C156.835 200.488 157.162 200.76 157.398 201.111C157.633 201.462 157.752 201.867 157.755 202.325C157.752 202.779 157.633 203.182 157.398 203.533C157.162 203.884 156.834 204.158 156.411 204.355C155.992 204.548 155.515 204.645 154.98 204.645C154.442 204.645 153.964 204.548 153.545 204.355C153.126 204.158 152.8 203.884 152.568 203.533C152.336 203.182 152.222 202.779 152.225 202.325ZM153.23 202.325C153.227 202.615 153.298 202.871 153.443 203.093C153.591 203.316 153.798 203.488 154.062 203.61C154.329 203.733 154.636 203.794 154.98 203.794C155.322 203.794 155.625 203.733 155.889 203.61C156.157 203.488 156.365 203.316 156.513 203.093C156.661 202.871 156.737 202.615 156.74 202.325C156.737 202.038 156.661 201.785 156.513 201.566C156.365 201.343 156.157 201.171 155.889 201.048C155.625 200.923 155.322 200.858 154.98 200.855C154.636 200.858 154.329 200.923 154.062 201.048C153.798 201.171 153.591 201.343 153.443 201.566C153.298 201.785 153.227 202.038 153.23 202.325ZM153.704 205.419H154.787V207.952H161.845V208.841H153.704V205.419ZM174.032 209.112H172.997V202.789H171.334V208.493H170.319V197.22H171.334V201.87H172.997V196.959H174.032V209.112ZM163.464 205.776C164.038 205.457 164.526 205.025 164.929 204.481C165.332 203.933 165.636 203.301 165.843 202.586C166.049 201.87 166.152 201.1 166.152 200.275V199.298H163.754V198.409H169.439V199.298H167.186V200.275C167.186 201.023 167.288 201.728 167.491 202.392C167.694 203.053 167.994 203.64 168.39 204.152C168.787 204.661 169.268 205.061 169.836 205.351L169.198 206.182C168.592 205.85 168.078 205.398 167.655 204.824C167.233 204.25 166.913 203.585 166.693 202.827C166.484 203.685 166.163 204.434 165.731 205.075C165.303 205.717 164.773 206.224 164.141 206.598L163.464 205.776ZM187.069 202.711H185.097V209.102H184.024V196.959H185.097V201.812H187.069V202.711ZM176.192 198.157H177.256V205.119C178.203 205.116 179.135 205.07 180.05 204.983C180.965 204.896 181.9 204.755 182.854 204.558L182.989 205.477C181.996 205.673 181.025 205.813 180.074 205.897C179.127 205.978 178.155 206.018 177.159 206.018H176.192V198.157ZM197.806 209.131H196.732V196.959H197.806V209.131ZM188.243 202.131C188.243 201.284 188.374 200.541 188.635 199.903C188.899 199.265 189.267 198.771 189.737 198.423C190.208 198.075 190.744 197.9 191.347 197.896C191.946 197.9 192.48 198.075 192.947 198.423C193.418 198.771 193.785 199.266 194.049 199.907C194.317 200.546 194.451 201.287 194.451 202.131C194.451 202.979 194.317 203.723 194.049 204.365C193.785 205.006 193.418 205.501 192.947 205.849C192.477 206.194 191.943 206.366 191.347 206.366C190.744 206.366 190.208 206.194 189.737 205.849C189.267 205.501 188.899 205.008 188.635 204.369C188.374 203.728 188.243 202.982 188.243 202.131ZM189.278 202.131C189.278 202.782 189.365 203.356 189.539 203.852C189.713 204.349 189.956 204.732 190.269 205.003C190.585 205.273 190.944 205.409 191.347 205.409C191.75 205.409 192.106 205.273 192.415 205.003C192.728 204.732 192.971 204.349 193.145 203.852C193.319 203.356 193.406 202.782 193.406 202.131C193.406 201.483 193.319 200.913 193.145 200.42C192.971 199.924 192.728 199.54 192.415 199.269C192.106 198.995 191.75 198.857 191.347 198.854C190.944 198.857 190.585 198.995 190.269 199.269C189.956 199.54 189.713 199.924 189.539 200.42C189.365 200.913 189.278 201.483 189.278 202.131ZM204.688 208.077C204.53 208.077 204.382 208.039 204.243 207.961C204.108 207.881 204 207.773 203.92 207.637C203.842 207.502 203.805 207.355 203.808 207.198C203.805 207.04 203.842 206.893 203.92 206.758C204 206.622 204.108 206.516 204.243 206.439C204.382 206.358 204.53 206.318 204.688 206.318C204.846 206.318 204.993 206.358 205.128 206.439C205.263 206.516 205.37 206.622 205.447 206.758C205.528 206.893 205.568 207.04 205.568 207.198C205.568 207.355 205.528 207.502 205.447 207.637C205.37 207.773 205.263 207.881 205.128 207.961C204.993 208.039 204.846 208.077 204.688 208.077ZM204.698 202.576C204.54 202.576 204.392 202.537 204.253 202.46C204.118 202.379 204.01 202.271 203.929 202.136C203.852 202.001 203.815 201.854 203.818 201.696C203.815 201.538 203.852 201.392 203.929 201.256C204.01 201.121 204.118 201.015 204.253 200.937C204.392 200.857 204.54 200.816 204.698 200.816C204.856 200.816 205.002 200.857 205.138 200.937C205.273 201.015 205.379 201.121 205.457 201.256C205.537 201.392 205.578 201.538 205.578 201.696C205.578 201.854 205.537 202.001 205.457 202.136C205.379 202.271 205.273 202.379 205.138 202.46C205.002 202.537 204.856 202.576 204.698 202.576ZM214.386 208.135C213.748 208.135 213.155 207.992 212.607 207.705C212.063 207.415 211.615 206.92 211.263 206.221C210.915 205.518 210.741 204.587 210.741 203.427C210.741 202.273 210.893 201.287 211.196 200.468C211.499 199.65 211.932 199.028 212.496 198.602C213.06 198.177 213.729 197.964 214.502 197.964C215.073 197.964 215.585 198.075 216.04 198.298C216.497 198.517 216.87 198.825 217.156 199.221C217.443 199.614 217.629 200.069 217.712 200.584H216.494C216.378 200.127 216.149 199.758 215.808 199.477C215.466 199.197 215.031 199.057 214.502 199.057C213.964 199.057 213.5 199.206 213.11 199.506C212.72 199.803 212.42 200.235 212.211 200.802C212.005 201.369 211.902 202.047 211.902 202.837H212.027C212.314 202.418 212.677 202.094 213.115 201.865C213.556 201.637 214.042 201.522 214.57 201.522C215.153 201.522 215.692 201.664 216.185 201.948C216.678 202.228 217.069 202.618 217.359 203.117C217.653 203.617 217.799 204.178 217.799 204.8C217.799 205.419 217.658 205.983 217.374 206.492C217.09 206.998 216.689 207.399 216.17 207.695C215.655 207.989 215.06 208.135 214.386 208.135ZM212.076 204.829C212.076 205.215 212.174 205.58 212.37 205.921C212.567 206.263 212.838 206.537 213.183 206.743C213.531 206.949 213.919 207.052 214.348 207.052C214.767 207.052 215.149 206.953 215.493 206.753C215.838 206.553 216.109 206.282 216.306 205.941C216.505 205.596 216.607 205.219 216.61 204.809C216.607 204.41 216.509 204.042 216.315 203.707C216.125 203.369 215.861 203.101 215.522 202.905C215.184 202.705 214.805 202.605 214.386 202.605C213.964 202.605 213.576 202.708 213.221 202.914C212.87 203.121 212.591 203.395 212.385 203.736C212.182 204.078 212.079 204.442 212.076 204.829ZM222.731 208.135C222.002 208.135 221.379 207.937 220.86 207.541C220.344 207.141 219.949 206.561 219.675 205.8C219.405 205.04 219.269 204.123 219.269 203.05C219.269 201.986 219.406 201.074 219.68 200.314C219.954 199.55 220.351 198.968 220.869 198.568C221.388 198.166 222.009 197.964 222.731 197.964C223.453 197.964 224.073 198.166 224.592 198.568C225.111 198.968 225.507 199.55 225.781 200.314C226.055 201.074 226.192 201.986 226.192 203.05C226.192 204.123 226.055 205.04 225.781 205.8C225.51 206.561 225.116 207.141 224.597 207.541C224.081 207.937 223.459 208.135 222.731 208.135ZM220.468 203.05C220.468 203.897 220.557 204.621 220.734 205.22C220.911 205.817 221.169 206.269 221.508 206.579C221.846 206.888 222.254 207.043 222.731 207.043C223.208 207.043 223.615 206.888 223.954 206.579C224.292 206.269 224.55 205.817 224.727 205.22C224.904 204.621 224.993 203.897 224.993 203.05C224.993 202.202 224.903 201.479 224.722 200.879C224.545 200.276 224.287 199.819 223.949 199.506C223.61 199.194 223.204 199.037 222.731 199.037C222.257 199.037 221.851 199.194 221.512 199.506C221.174 199.819 220.915 200.276 220.734 200.879C220.557 201.479 220.468 202.202 220.468 203.05ZM231.003 200.41C231.003 201.061 231.104 201.711 231.307 202.358C231.514 203.003 231.81 203.593 232.197 204.128C232.584 204.66 233.04 205.08 233.565 205.39L232.946 206.221C232.376 205.876 231.881 205.401 231.462 204.795C231.046 204.186 230.727 203.501 230.505 202.74C230.279 203.562 229.946 204.3 229.504 204.954C229.063 205.609 228.544 206.118 227.948 206.482L227.261 205.68C227.809 205.357 228.288 204.921 228.697 204.369C229.106 203.815 229.42 203.198 229.64 202.518C229.859 201.838 229.968 201.151 229.968 200.459V198.099H231.003V200.41ZM232.221 201.319H234.28V197.22H235.296V208.493H234.28V202.228H232.221V201.319ZM236.775 196.959H237.809V209.112H236.775V196.959ZM242.426 203.833C242.426 206.176 241.81 208.238 240.579 210.021H239.535C239.844 209.599 240.126 209.046 240.381 208.363C240.635 207.683 240.837 206.946 240.985 206.153C241.133 205.357 241.207 204.584 241.207 203.833C241.207 203.082 241.133 202.31 240.985 201.517C240.837 200.721 240.635 199.983 240.381 199.303C240.126 198.62 239.844 198.067 239.535 197.645H240.579C241.81 199.427 242.426 201.49 242.426 203.833Z" fill="#777777"/>
<path d="M354.854 179.422C354.854 181.076 356.111 182.594 357.875 183.195L357.287 184.043C355.947 183.551 354.888 182.546 354.354 181.274C353.835 182.717 352.748 183.831 351.326 184.385L350.752 183.523C352.57 182.847 353.794 181.22 353.801 179.34V178.082H354.854V179.422ZM352.365 187.365C352.372 185.978 353.896 185.164 356.398 185.164C358.894 185.164 360.404 185.978 360.404 187.365C360.404 188.78 358.894 189.58 356.398 189.58C353.896 189.58 352.372 188.78 352.365 187.365ZM353.445 187.365C353.432 188.227 354.566 188.726 356.398 188.732C358.237 188.726 359.358 188.227 359.365 187.365C359.358 186.538 358.237 186.025 356.398 186.025C354.566 186.025 353.432 186.538 353.445 187.365ZM359.229 184.85V177.453H360.295V180.625H362.127V181.527H360.295V184.85H359.229ZM366.502 180.912C366.502 182.847 367.445 184.932 369.059 185.889L368.443 186.723C367.268 186.012 366.427 184.713 366.003 183.229C365.559 184.85 364.656 186.244 363.439 186.982L362.756 186.176C364.438 185.191 365.463 183.038 365.463 180.953V178.602H366.502V180.912ZM367.719 182.73V181.814H369.783V177.713H370.795V188.992H369.783V182.73H367.719ZM372.271 189.607V177.453H373.311V189.607H372.271ZM386.121 187.16V188.049H374.992V187.16H379.996V184.535H376.305V178.314H377.385V180.516H383.701V178.314H384.754V184.535H381.049V187.16H386.121ZM377.385 183.66H383.701V181.391H377.385V183.66ZM397.141 177.453V189.607H396.061V177.453H397.141ZM387.242 186.449C390.53 184.891 392.212 182.56 392.451 179.654H387.803V178.779H393.545C393.531 182.272 391.904 185.369 387.83 187.324L387.242 186.449Z" fill="#323142"/>
<mask id="mask0_238_234" style="mask-type:alpha" maskUnits="userSpaceOnUse" x="401" y="176" width="15" height="15">
<rect x="401" y="176" width="15" height="15" fill="#D9D9D9"/>
</mask>
<g mask="url(#mask0_238_234)">
<path d="M410.269 183.499L405.561 178.791C405.437 178.667 405.377 178.519 405.38 178.348C405.383 178.176 405.447 178.028 405.571 177.904C405.695 177.78 405.843 177.718 406.014 177.718C406.186 177.718 406.334 177.78 406.458 177.904L411.243 182.699C411.356 182.812 411.439 182.938 411.494 183.078C411.548 183.219 411.576 183.359 411.576 183.499C411.576 183.639 411.548 183.779 411.494 183.92C411.439 184.06 411.356 184.186 411.243 184.299L406.448 189.094C406.324 189.218 406.178 189.279 406.01 189.275C405.841 189.272 405.695 189.209 405.571 189.084C405.447 188.96 405.385 188.812 405.385 188.641C405.385 188.469 405.447 188.322 405.571 188.197L410.269 183.499Z" fill="#1C1B1F"/>
</g>
</g>
<g filter="url(#filter2_d_238_234)">
<rect x="16" y="267" width="418" height="121" rx="10" fill="white" shape-rendering="crispEdges"/>
<path d="M41.8906 297.281C41.8906 300.789 39.3125 303.289 35.2188 304.375L34.7188 303.406C38.1484 302.5 40.3203 300.656 40.5859 298.281H35.4531V297.281H41.8906ZM37 310.078V304.906H46.0312V310.078H37ZM38.2031 309.078H44.8281V305.891H38.2031V309.078ZM44.8125 304.234V296.391H46.0312V304.234H44.8125ZM50.0781 297.703V301.094H53.0938V297.703H54.2344V306.797H48.9062V297.703H50.0781ZM50.0781 305.781H53.0938V302.094H50.0781V305.781ZM56 309.562V296.672H57.1719V301.891H59.1094V296.375H60.2969V310.266H59.1094V302.906H57.1719V309.562H56ZM68.5469 296.641C71.5703 296.648 73.4453 297.609 73.4531 299.266C73.4453 300.891 71.5703 301.852 68.5469 301.844C65.5234 301.852 63.625 300.891 63.625 299.266C63.625 297.609 65.5234 296.648 68.5469 296.641ZM62.2188 303.922V302.906H74.875V303.922H69.1406V305.516H73.3281V310.078H63.7656V305.516H67.9375V303.922H62.2188ZM64.8906 299.266C64.8828 300.281 66.2969 300.875 68.5469 300.875C70.7734 300.875 72.1953 300.281 72.2031 299.266C72.1953 298.227 70.7734 297.609 68.5469 297.609C66.2969 297.609 64.8828 298.227 64.8906 299.266ZM64.9844 309.078H72.125V306.5H64.9844V309.078ZM87.5 296.375V304.266H86.2969V296.375H87.5ZM76.9219 303.203V297.203H78.1562V302.156C80.4531 302.141 82.5078 301.984 84.7188 301.516L84.9062 302.547C82.5547 303.023 80.4453 303.188 78.0469 303.203H76.9219ZM78.4844 310.078V304.906H87.5V310.078H78.4844ZM79.6875 309.078H86.2969V305.891H79.6875V309.078ZM102.531 303.703V304.703H89.875V303.703H102.531ZM91.2812 299.625C91.2812 297.883 93.1875 296.859 96.2031 296.875C99.1875 296.859 101.102 297.883 101.109 299.625C101.102 301.352 99.1875 302.391 96.2031 302.391C93.1875 302.391 91.2812 301.352 91.2812 299.625ZM91.5156 309.969V305.922H92.75V308.938H101.125V309.969H91.5156ZM92.5469 299.625C92.5391 300.727 93.9609 301.391 96.2031 301.391C98.4297 301.391 99.8516 300.727 99.8594 299.625C99.8516 298.539 98.4297 297.859 96.2031 297.859C93.9609 297.859 92.5391 298.539 92.5469 299.625ZM34.8906 333L34.875 331.297L38.9375 327.562C39.9922 326.555 40.5625 325.93 40.5625 325.031C40.5625 324.023 39.8047 323.398 38.7656 323.406C37.7031 323.398 37.0078 324.07 37.0156 325.156H34.7812C34.7734 322.945 36.4141 321.531 38.7969 321.531C41.2188 321.531 42.8281 322.914 42.8281 324.875C42.8281 326.164 42.2031 327.219 39.875 329.328L38.1562 331V331.062H42.9844V333H34.8906ZM49.0469 333.156C46.2109 333.156 44.5 331.047 44.5 327.344C44.5 323.648 46.2266 321.531 49.0469 321.531C51.8672 321.531 53.5938 323.648 53.5938 327.344C53.5938 331.062 51.875 333.156 49.0469 333.156ZM46.9062 327.344C46.8906 329.953 47.7344 331.219 49.0469 331.219C50.3594 331.219 51.1953 329.953 51.1875 327.344C51.1953 324.758 50.3516 323.461 49.0469 323.453C47.7422 323.461 46.9062 324.758 46.9062 327.344ZM55.2188 333L55.2031 331.297L59.2656 327.562C60.3203 326.555 60.8906 325.93 60.8906 325.031C60.8906 324.023 60.1328 323.398 59.0938 323.406C58.0312 323.398 57.3359 324.07 57.3438 325.156H55.1094C55.1016 322.945 56.7422 321.531 59.125 321.531C61.5469 321.531 63.1562 322.914 63.1562 324.875C63.1562 326.164 62.5312 327.219 60.2031 329.328L58.4844 331V331.062H63.3125V333H55.2188ZM64.5469 331V329.141L69.3281 321.688H72.2812V329.109H73.7188V331H72.2812V333H70.0469V331H64.5469ZM66.9219 329.109H70.0781V324.266H69.9688L66.9219 329.016V329.109ZM86.7656 320.234V330.688H84.7812V326.031H81.25V324.469H84.7812V323.375H81.25V321.812H84.7812V320.234H86.7656ZM75.5781 328.844V321.125H77.5469V327.203C79.2812 327.18 80.9219 327.07 82.6875 326.75L82.8906 328.359C80.7578 328.766 78.8438 328.836 76.7188 328.844H75.5781ZM77.3125 334.188V329.75H79.3125V332.594H87.1094V334.188H77.3125ZM104.281 320.234V330.625H102.297V325.984H99.75V324.344H102.297V320.234H104.281ZM92.4844 327.625C95.4297 326.703 97.3359 325 97.7031 322.906H93.2188V321.281H99.875C99.875 325.094 97.4531 327.914 93.2969 329.203L92.4844 327.625ZM94.9062 334.188V329.578H96.9375V332.594H104.641V334.188H94.9062ZM117.406 320.219V323.562H119.328V325.188H117.406V328.469H115.406V320.219H117.406ZM106.031 327.172C109.164 326.344 110.953 324.719 111.266 322.75H106.703V321.156H113.438C113.445 324.945 111.062 327.602 106.828 328.781L106.031 327.172ZM107.953 331.547C107.938 329.766 109.875 328.641 112.766 328.641C115.664 328.641 117.555 329.766 117.562 331.547C117.555 333.344 115.664 334.453 112.766 334.453C109.875 334.453 107.938 333.344 107.953 331.547ZM109.922 331.547C109.914 332.406 110.977 332.898 112.766 332.891C114.531 332.898 115.594 332.406 115.594 331.547C115.594 330.672 114.531 330.188 112.766 330.188C110.977 330.188 109.914 330.672 109.922 331.547ZM127.328 321.047C127.328 324.766 124.977 327.344 120.812 328.5L120.031 326.953C123.102 326.117 124.867 324.555 125.195 322.641H120.797V321.047H127.328ZM122.516 334.266V328.75H131.938V334.266H122.516ZM124.469 332.703H129.969V330.312H124.469V332.703ZM127.422 325.234V323.609H129.953V320.234H131.938V328.188H129.953V325.234H127.422ZM139.328 323.031C139.32 324.727 140.383 326.461 142.719 327.172L141.703 328.734C140.109 328.227 138.992 327.203 138.352 325.922C137.703 327.328 136.547 328.445 134.875 329L133.844 327.438C136.211 326.68 137.297 324.828 137.297 323.031V322.828H134.375V321.234H142.188V322.828H139.328V323.031ZM136.156 334.188V329.578H138.172V332.594H146.062V334.188H136.156ZM143.688 330.516V320.234H145.688V330.516H143.688ZM163.594 320.219V334.438H161.703V327.297H160.328V333.75H158.5V320.453H160.328V325.703H161.703V320.219H163.594ZM151.703 331.219V321.859H157V323.469H153.703V329.547C155.078 329.523 156.297 329.445 157.672 329.203L157.812 330.828C156.078 331.156 154.562 331.211 152.688 331.219H151.703ZM170.312 322.453C170.305 324.18 171.312 325.836 173.562 326.531L172.5 328.078C170.992 327.578 169.938 326.609 169.328 325.367C168.711 326.797 167.609 327.922 165.984 328.469L164.906 326.906C167.281 326.117 168.297 324.227 168.312 322.266V320.969H170.312V322.453ZM166.875 331.688C166.867 329.961 168.75 328.938 171.75 328.938C174.695 328.938 176.539 329.961 176.547 331.688C176.539 333.43 174.695 334.445 171.75 334.438C168.75 334.445 166.867 333.43 166.875 331.688ZM168.875 331.688C168.859 332.492 169.883 332.875 171.75 332.875C173.594 332.875 174.578 332.492 174.578 331.688C174.578 330.914 173.594 330.5 171.75 330.5C169.883 330.5 168.859 330.914 168.875 331.688ZM174.406 328.656V320.219H176.406V323.547H178.328V325.203H176.406V328.656H174.406ZM190.547 320.375V334.297H189.312V320.375H190.547ZM179.609 326.297C179.617 323.344 181.086 321.461 183.156 321.453C185.219 321.461 186.711 323.344 186.703 326.297C186.711 329.258 185.219 331.133 183.156 331.125C181.086 331.133 179.617 329.258 179.609 326.297ZM180.797 326.297C180.797 328.555 181.766 330.039 183.156 330.031C184.555 330.039 185.516 328.555 185.516 326.297C185.516 324.039 184.555 322.555 183.156 322.547C181.766 322.555 180.797 324.039 180.797 326.297ZM200.656 321.453C202.703 321.461 204.156 323.344 204.172 326.297C204.156 329.258 202.703 331.133 200.656 331.125C198.594 331.133 197.148 329.258 197.156 326.297C197.148 323.344 198.594 321.461 200.656 321.453ZM198.312 326.297C198.32 328.555 199.281 330.039 200.656 330.031C202.047 330.039 202.984 328.555 202.984 326.297C202.984 324.039 202.047 322.555 200.656 322.547C199.281 322.555 198.32 324.039 198.312 326.297ZM206.469 334.266V320.375H207.688V325.922H210.016V326.984H207.688V334.266H206.469ZM222.234 320.391V327.703H221.016V320.391H222.234ZM211.641 327.016V321.078H212.859V325.969C215.141 325.961 217.219 325.812 219.438 325.359L219.625 326.375C217.266 326.836 215.164 327.008 212.766 327.016H211.641ZM213.25 334.078V328.328H214.484V330.219H221.016V328.328H222.234V334.078H213.25ZM214.484 333.078H221.016V331.188H214.484V333.078ZM236.047 320.375V334.266H234.828V320.375H236.047ZM225.5 330.688V321.75H226.703V329.625C228.828 329.609 231.016 329.445 233.344 328.953L233.516 330C231.047 330.516 228.852 330.688 226.625 330.688H225.5ZM249.172 320.375V325.875H251.5V326.906H249.172V334.297H247.953V320.375H249.172ZM239.031 330.812V321.734H245.516V322.75H240.25V329.781C242.766 329.773 244.539 329.664 246.609 329.281L246.766 330.344C244.586 330.734 242.766 330.812 240.125 330.812H239.031ZM253.719 333.094C253.172 333.086 252.703 332.633 252.719 332.078C252.703 331.531 253.172 331.078 253.719 331.078C254.273 331.078 254.727 331.531 254.719 332.078C254.727 332.633 254.273 333.086 253.719 333.094Z" fill="#323142"/>
<path d="M360.281 350.467V354.145H362.1V355.047H360.281V358.615H359.201V350.467H360.281ZM350.738 357.371C351.709 357.371 352.844 357.371 354.033 357.337V356.441C352.618 356.312 351.702 355.662 351.709 354.65C351.702 353.543 352.844 352.859 354.553 352.859C356.275 352.859 357.396 353.543 357.41 354.65C357.396 355.655 356.508 356.305 355.1 356.441V357.296C356.234 357.241 357.383 357.146 358.449 356.988L358.545 357.768C355.906 358.232 353.001 358.253 350.861 358.246L350.738 357.371ZM351.039 352.395V351.574H354.033V350.357H355.1V351.574H358.08V352.395H351.039ZM352.229 360.078V359.217H360.281V362.607H359.201V360.078H352.229ZM352.734 354.65C352.728 355.286 353.432 355.717 354.553 355.703C355.674 355.717 356.385 355.286 356.385 354.65C356.385 354.008 355.674 353.611 354.553 353.625C353.432 353.611 352.728 354.008 352.734 354.65ZM372.928 350.467V359.354H371.861V350.467H372.928ZM363.18 354.295C363.173 352.545 364.547 351.321 366.365 351.314C368.184 351.321 369.544 352.545 369.551 354.295C369.544 356.065 368.184 357.296 366.365 357.289C364.547 357.296 363.173 356.065 363.18 354.295ZM364.232 354.295C364.219 355.505 365.135 356.346 366.365 356.346C367.575 356.346 368.498 355.505 368.498 354.295C368.498 353.105 367.575 352.258 366.365 352.258C365.135 352.258 364.219 353.105 364.232 354.295ZM365.08 362.348V358.451H366.146V361.445H373.311V362.348H365.08ZM384.398 350.453V355.471H386.436V356.359H384.398V362.607H383.332V350.453H384.398ZM374.924 353.297V352.408H378.055V350.604H379.121V352.408H382.156V353.297H374.924ZM375.621 357.098C375.614 355.457 376.872 354.309 378.602 354.309C380.317 354.309 381.568 355.457 381.582 357.098C381.568 358.745 380.317 359.887 378.602 359.887C376.872 359.887 375.614 358.745 375.621 357.098ZM376.646 357.098C376.64 358.205 377.467 358.984 378.602 358.971C379.723 358.984 380.543 358.205 380.557 357.098C380.543 355.997 379.723 355.204 378.602 355.211C377.467 355.204 376.64 355.997 376.646 357.098ZM397.141 350.453V362.607H396.061V350.453H397.141ZM387.242 359.449C390.53 357.891 392.212 355.56 392.451 352.654H387.803V351.779H393.545C393.531 355.272 391.904 358.369 387.83 360.324L387.242 359.449Z" fill="#323142"/>
<mask id="mask1_238_234" style="mask-type:alpha" maskUnits="userSpaceOnUse" x="401" y="349" width="15" height="15">
<rect x="401" y="349" width="15" height="15" fill="#D9D9D9"/>
</mask>
<g mask="url(#mask1_238_234)">
<path d="M410.269 356.499L405.561 351.791C405.437 351.667 405.377 351.519 405.38 351.348C405.383 351.176 405.447 351.028 405.571 350.904C405.695 350.78 405.843 350.718 406.014 350.718C406.186 350.718 406.334 350.78 406.458 350.904L411.243 355.699C411.356 355.812 411.439 355.938 411.494 356.078C411.548 356.219 411.576 356.359 411.576 356.499C411.576 356.639 411.548 356.779 411.494 356.92C411.439 357.06 411.356 357.186 411.243 357.299L406.448 362.094C406.324 362.218 406.178 362.279 406.01 362.275C405.841 362.272 405.695 362.209 405.571 362.084C405.447 361.96 405.385 361.812 405.385 361.641C405.385 361.469 405.447 361.322 405.571 361.197L410.269 356.499Z" fill="#1C1B1F"/>
</g>
</g>
<path d="M16 424C16 418.477 20.4772 414 26 414H125C130.523 414 135 418.477 135 424V462H16V424Z" fill="#F0666D"/>
<path d="M47.6562 436.609V438.234H45.6406V445.406H43.6406V431.219H45.6406V436.609H47.6562ZM34.875 441.938V432.578H36.8594V440.289C38.6797 440.258 40.6328 440.086 42.6875 439.672L42.8906 441.328C40.5078 441.812 38.2031 441.938 36.1094 441.938H34.875ZM52.8594 432.172C55.1172 432.164 56.7891 433.617 56.7969 435.656C56.7891 437.703 55.1172 439.148 52.8594 439.156C50.6172 439.148 48.8984 437.703 48.9062 435.656C48.8984 433.617 50.6172 432.164 52.8594 432.172ZM48.3125 440.938C50.8516 440.945 54.3672 440.914 57.4062 440.484L57.5625 441.922C54.4062 442.539 51.0312 442.562 48.5469 442.562L48.3125 440.938ZM50.8906 435.656C50.8828 436.781 51.7344 437.43 52.8594 437.422C53.9922 437.43 54.8516 436.781 54.8594 435.656C54.8516 434.547 53.9922 433.891 52.8594 433.891C51.7344 433.891 50.8828 434.547 50.8906 435.656ZM58.2188 445.469V431.219H60.2031V445.469H58.2188ZM74.0625 431.234V441.625H72.0781V436.984H69.5312V435.344H72.0781V431.234H74.0625ZM62.2656 438.625C65.2109 437.703 67.1172 436 67.4844 433.906H63V432.281H69.6562C69.6562 436.094 67.2344 438.914 63.0781 440.203L62.2656 438.625ZM64.6875 445.188V440.578H66.7188V443.594H74.4219V445.188H64.6875ZM87.1875 431.219V434.562H89.1094V436.188H87.1875V439.469H85.1875V431.219H87.1875ZM75.8125 438.172C78.9453 437.344 80.7344 435.719 81.0469 433.75H76.4844V432.156H83.2188C83.2266 435.945 80.8438 438.602 76.6094 439.781L75.8125 438.172ZM77.7344 442.547C77.7188 440.766 79.6562 439.641 82.5469 439.641C85.4453 439.641 87.3359 440.766 87.3438 442.547C87.3359 444.344 85.4453 445.453 82.5469 445.453C79.6562 445.453 77.7188 444.344 77.7344 442.547ZM79.7031 442.547C79.6953 443.406 80.7578 443.898 82.5469 443.891C84.3125 443.898 85.375 443.406 85.375 442.547C85.375 441.672 84.3125 441.188 82.5469 441.188C80.7578 441.188 79.6953 441.672 79.7031 442.547ZM97.7031 432.25V433.141C97.7031 434.125 97.7031 435.547 97.375 437.312L95.4219 437.125C95.6797 435.766 95.7422 434.727 95.7578 433.875H90.3906V432.25H97.7031ZM89.5469 438.344C90.3438 438.344 91.2422 438.344 92.1875 438.32V435.531H94.1719V438.258C95.5938 438.195 97.0391 438.086 98.375 437.891L98.4844 439.328C95.5234 439.875 92.1953 439.93 89.7188 439.938L89.5469 438.344ZM91.6406 445.188V440.906H93.6406V443.594H101.625V445.188H91.6406ZM99.1406 441.859V431.219H101.188V435.547H102.906V437.219H101.188V441.859H99.1406ZM115.484 431.219V445.469H113.5V431.219H115.484ZM104.312 434.016V432.406H111.078V437.891H106.391V440.5C108.562 440.484 110.398 440.375 112.484 440.031L112.656 441.641C110.32 442.055 108.203 442.141 105.609 442.141H104.328V436.312H109.047V434.016H104.312Z" fill="white"/>
<path d="M165.188 431.344V441.656H163.703V436.797H160.797V435.562H163.703V431.344H165.188ZM160.891 432.391C160.875 436.047 158.359 438.797 154.344 440.094L153.719 438.906C156.836 437.898 158.953 435.992 159.266 433.625H154.438V432.391H160.891ZM165.547 443.828V445.031H156.172V440.594H157.672V443.828H165.547ZM178.344 431.328V434.859H180.375V436.062H178.344V439.641H176.859V431.328H178.344ZM174.5 432.328C174.5 435.953 172.047 438.562 167.938 439.75L167.328 438.547C170.602 437.617 172.625 435.797 172.891 433.531H167.953V432.328H174.5ZM173.875 439.797C176.703 439.797 178.5 440.844 178.5 442.547C178.5 444.266 176.703 445.312 173.875 445.312C171.062 445.312 169.219 444.266 169.234 442.547C169.219 440.844 171.062 439.797 173.875 439.797ZM173.875 440.969C171.922 440.969 170.688 441.562 170.703 442.547C170.688 443.531 171.922 444.141 173.875 444.141C175.812 444.141 177.047 443.531 177.047 442.547C177.047 441.562 175.812 440.969 173.875 440.969ZM193.984 442.328V443.578H181.172V442.328H193.984ZM192.812 432.672V433.891H190.672V438.562H192.766V439.75H182.297V438.562H184.391V433.891H182.266V432.672H192.812ZM185.859 438.562H189.219V433.891H185.859V438.562ZM207.812 442.406V443.656H195V442.406H200.641V439.953H196.562V435.5H204.781V433.531H196.531V432.312H206.25V436.688H198.031V438.734H206.578V439.953H202.109V442.406H207.812ZM219.922 432.75V434.25C219.922 436.062 219.922 438.031 219.406 441.016L217.891 440.875C218.453 438.078 218.453 436.016 218.453 434.25V433.969H210.203V432.75H219.922ZM221.594 442.109V443.344H208.828V442.109H221.594ZM234.594 431.344V439.656H233.188V436.016H231.469V439.5H230.078V431.594H231.469V434.797H233.188V431.344H234.594ZM234.594 440.281V445.156H225.234V440.281H234.594ZM226.719 441.469V443.953H233.141V441.469H226.719ZM228.562 432.219V436.156H224.719V437.906C226.453 437.891 227.773 437.812 229.312 437.516L229.469 438.703C227.703 439.031 226.25 439.078 224.203 439.078H223.281V435.016H227.141V433.406H223.25V432.219H228.562Z" fill="#999999"/>
<g filter="url(#filter3_d_238_234)">
<path d="M16 462H424C429.523 462 434 466.477 434 472V836C434 841.523 429.523 846 424 846H26C20.4772 846 16 841.523 16 836V462Z" fill="white" shape-rendering="crispEdges"/>
<rect x="34" y="482" width="187" height="68" rx="8" fill="#F5F5F5"/>
<path d="M56.9932 514.273V516.01H62.0107V516.898H50.9365V516.01H55.9404V514.273H56.9932ZM51.5518 514.027C53.6709 513.802 55.7012 512.763 55.7764 511.402H51.9482V510.527H61.0264V511.402H57.1709C57.2461 512.756 59.2764 513.802 61.3955 514.027L60.999 514.875C59.0098 514.629 57.1436 513.761 56.4736 512.414C55.8037 513.761 53.9512 514.629 51.9482 514.875L51.5518 514.027ZM52.2764 519.988C52.2695 518.642 53.835 517.896 56.4736 517.896C59.085 517.896 60.6436 518.642 60.6572 519.988C60.6436 521.342 59.085 522.08 56.4736 522.08C53.835 522.08 52.2695 521.342 52.2764 519.988ZM53.3701 519.988C53.3564 520.788 54.5049 521.253 56.4736 521.246C58.4219 521.253 59.5703 520.788 59.5771 519.988C59.5703 519.195 58.4219 518.737 56.4736 518.744C54.5049 518.737 53.3564 519.195 53.3701 519.988ZM72.5381 509.953V513.07H74.3701V513.986H72.5381V517.021H71.4717V509.953H72.5381ZM63.0635 512.1V511.211H66.1533V509.844H67.2197V511.211H70.3096V512.1H63.0635ZM63.7607 514.793C63.7539 513.494 64.9229 512.667 66.6865 512.66C68.4297 512.667 69.5986 513.494 69.6123 514.793C69.5986 516.092 68.4297 516.933 66.6865 516.926C64.9229 516.933 63.7539 516.092 63.7607 514.793ZM64.7861 514.793C64.7793 515.586 65.5381 516.105 66.6865 516.105C67.8213 516.105 68.5869 515.586 68.6006 514.793C68.5869 514.007 67.8213 513.48 66.6865 513.494C65.5381 513.48 64.7793 514.007 64.7861 514.793ZM64.8545 521.943V517.555H65.9209V518.854H71.4717V517.555H72.5381V521.943H64.8545ZM65.9209 521.082H71.4717V519.701H65.9209V521.082ZM88.7256 509.967V518.949H87.6455V514.615H84.9521V513.713H87.6455V509.967H88.7256ZM78.8408 516.666C81.6367 515.743 83.585 513.993 83.8311 511.799H79.4561V510.896H85.0068C84.9932 514.021 82.7578 516.399 79.3057 517.527L78.8408 516.666ZM80.9873 521.848V518.033H82.0811V520.945H89.04V521.848H80.9873ZM100.251 509.953V513.125H102.083V514.014H100.251V517.254H99.1846V509.953H100.251ZM90.7627 516.393C93.6953 515.545 95.5684 513.856 95.7871 511.744H91.2959V510.855H96.9424C96.9355 513.952 94.7549 516.222 91.2139 517.268L90.7627 516.393ZM92.4307 519.729C92.4238 518.272 93.9893 517.384 96.4092 517.391C98.8496 517.384 100.388 518.272 100.388 519.729C100.388 521.205 98.8496 522.08 96.4092 522.08C93.9893 522.08 92.4238 521.205 92.4307 519.729ZM93.4971 519.729C93.4834 520.645 94.625 521.226 96.4092 521.219C98.1934 521.226 99.3486 520.645 99.3486 519.729C99.3486 518.812 98.1934 518.245 96.4092 518.252C94.625 518.245 93.4834 518.812 93.4971 519.729ZM112.925 509.953V517.199H111.845V514.014H109.397V513.125H111.845V509.953H112.925ZM102.903 516.229C104.708 515.579 105.993 513.932 105.993 512.195V511.744H103.245V510.842H109.794V511.744H107.073V512.182C107.073 513.768 108.29 515.278 110.067 515.887L109.507 516.748C108.146 516.256 107.087 515.23 106.561 513.979C106.041 515.401 104.913 516.536 103.464 517.09L102.903 516.229ZM104.817 519.838C104.811 518.409 106.362 517.575 108.892 517.582C111.414 517.575 112.966 518.409 112.966 519.838C112.966 521.273 111.414 522.094 108.892 522.107C106.362 522.094 104.811 521.273 104.817 519.838ZM105.884 519.838C105.877 520.72 107.025 521.253 108.892 521.246C110.751 521.253 111.899 520.72 111.899 519.838C111.899 518.949 110.751 518.416 108.892 518.416C107.025 518.416 105.877 518.949 105.884 519.838ZM126.077 519.66V520.549H114.948V519.66H119.952V517.035H116.261V510.814H117.341V513.016H123.657V510.814H124.71V517.035H121.005V519.66H126.077ZM117.341 516.16H123.657V513.891H117.341V516.16Z" fill="#222222"/>
<rect x="229" y="482" width="187" height="68" rx="8" fill="#F5F5F5"/>
<path d="M250.005 512.564C250.012 514.205 251.304 515.682 253.122 516.256L252.575 517.117C251.16 516.632 250.039 515.634 249.485 514.355C248.959 515.736 247.817 516.83 246.368 517.363L245.808 516.502C247.633 515.866 248.918 514.287 248.925 512.564V511.854H246.081V510.979H252.808V511.854H250.005V512.564ZM247.817 521.848V518.033H248.884V520.945H256.048V521.848H247.817ZM254.599 518.881V509.967H255.665V518.881H254.599ZM268.858 519.701V520.604H257.729V519.701H260.86V517.391H259.124V513.645H266.397V511.744H259.097V510.855H267.45V514.533H260.19V516.502H267.737V517.391H265.837V519.701H268.858ZM261.913 519.701H264.784V517.391H261.913V519.701ZM279.687 510.746V515.695H273.985V510.746H279.687ZM274.86 521.232C276.952 521 278.962 519.817 278.962 518.607H275.366V517.773H278.976V516.584H280.042V517.773H283.679V518.607H280.069C280.062 519.79 282.018 520.973 284.103 521.232L283.733 522.066C281.908 521.813 280.24 520.952 279.516 519.831C278.784 520.979 277.075 521.813 275.243 522.066L274.86 521.232ZM275.038 514.848H278.634V511.621H275.038V514.848ZM282.312 516.939V509.953H283.364V516.939H282.312ZM300.071 517.322V518.211H295.013V522.107H293.96V518.211H288.942V517.322H300.071ZM290.433 516.064V510.527H298.677V511.402H291.499V512.824H298.39V513.686H291.499V515.189H298.813V516.064H290.433ZM312.362 511.84V512.715H310.558V514.424H312.362V515.34H310.558V517.186H309.491V509.953H310.558V511.84H312.362ZM301.288 513.549C301.281 511.86 302.635 510.685 304.474 510.691C306.326 510.685 307.659 511.86 307.673 513.549C307.659 515.258 306.326 516.427 304.474 516.434C302.635 516.427 301.281 515.258 301.288 513.549ZM302.341 513.549C302.334 514.718 303.243 515.518 304.474 515.504C305.718 515.518 306.613 514.718 306.62 513.549C306.613 512.407 305.718 511.614 304.474 511.607C303.243 511.614 302.334 512.407 302.341 513.549ZM302.601 518.635V517.746H310.558V522.107H309.491V518.635H302.601ZM323.231 509.953V517.199H322.151V514.014H319.704V513.125H322.151V509.953H323.231ZM313.21 516.229C315.015 515.579 316.3 513.932 316.3 512.195V511.744H313.552V510.842H320.101V511.744H317.38V512.182C317.38 513.768 318.597 515.278 320.374 515.887L319.813 516.748C318.453 516.256 317.394 515.23 316.867 513.979C316.348 515.401 315.22 516.536 313.771 517.09L313.21 516.229ZM315.124 519.838C315.117 518.409 316.669 517.575 319.198 517.582C321.721 517.575 323.272 518.409 323.272 519.838C323.272 521.273 321.721 522.094 319.198 522.107C316.669 522.094 315.117 521.273 315.124 519.838ZM316.19 519.838C316.184 520.72 317.332 521.253 319.198 521.246C321.058 521.253 322.206 520.72 322.206 519.838C322.206 518.949 321.058 518.416 319.198 518.416C317.332 518.416 316.184 518.949 316.19 519.838ZM336.384 519.66V520.549H325.255V519.66H330.259V517.035H326.567V510.814H327.647V513.016H333.964V510.814H335.017V517.035H331.312V519.66H336.384ZM327.647 516.16H333.964V513.891H327.647V516.16Z" fill="#222222"/>
<rect x="34" y="558" width="187" height="68" rx="8" fill="#F5F5F5"/>
<path d="M60.6562 585.967V594.949H59.5762V590.615H56.8828V589.713H59.5762V585.967H60.6562ZM50.7715 592.666C53.5674 591.743 55.5156 589.993 55.7617 587.799H51.3867V586.896H56.9375C56.9238 590.021 54.6885 592.399 51.2363 593.527L50.7715 592.666ZM52.918 597.848V594.033H54.0117V596.945H60.9707V597.848H52.918ZM72.1816 585.953V589.125H74.0137V590.014H72.1816V593.254H71.1152V585.953H72.1816ZM62.6934 592.393C65.626 591.545 67.499 589.856 67.7178 587.744H63.2266V586.855H68.873C68.8662 589.952 66.6855 592.222 63.1445 593.268L62.6934 592.393ZM64.3613 595.729C64.3545 594.272 65.9199 593.384 68.3398 593.391C70.7803 593.384 72.3184 594.272 72.3184 595.729C72.3184 597.205 70.7803 598.08 68.3398 598.08C65.9199 598.08 64.3545 597.205 64.3613 595.729ZM65.4277 595.729C65.4141 596.645 66.5557 597.226 68.3398 597.219C70.124 597.226 71.2793 596.645 71.2793 595.729C71.2793 594.812 70.124 594.245 68.3398 594.252C66.5557 594.245 65.4141 594.812 65.4277 595.729ZM81.0547 586.746C81.0479 589.795 78.8672 591.982 75.3672 592.98L74.916 592.133C77.8213 591.312 79.6807 589.699 79.9131 587.635H75.5449V586.746H81.0547ZM76.9668 597.943V593.418H84.8555V597.943H76.9668ZM78.0059 597.068H83.7891V594.279H78.0059V597.068ZM81.082 590V589.098H83.7754V585.967H84.8555V592.898H83.7754V590H81.082ZM91.2539 588.564C91.2607 590.205 92.5527 591.682 94.3711 592.256L93.8242 593.117C92.4092 592.632 91.2881 591.634 90.7344 590.355C90.208 591.736 89.0664 592.83 87.6172 593.363L87.0566 592.502C88.8818 591.866 90.167 590.287 90.1738 588.564V587.854H87.3301V586.979H94.0566V587.854H91.2539V588.564ZM89.0664 597.848V594.033H90.1328V596.945H97.2969V597.848H89.0664ZM95.8477 594.881V585.967H96.9141V594.881H95.8477ZM112.568 585.953V592.174H111.488V590.902H108.248V590.055H111.488V588.592H108.426C107.667 590.506 105.78 591.798 103.08 592.447L102.697 591.559C105.678 590.868 107.407 589.419 107.612 587.457H103.312V586.568H108.795C108.795 586.972 108.754 587.361 108.679 587.73H111.488V585.953H112.568ZM104.693 593.596V592.721H112.568V595.688H105.787V597.109H112.979V597.998H104.721V594.867H111.488V593.596H104.693ZM121.332 587.307V587.936C121.325 588.899 121.325 590.506 120.977 592.762L119.896 592.666C120.231 590.629 120.259 589.152 120.252 588.182H115.152V587.307H121.332ZM114.469 594.539C115.269 594.532 116.157 594.525 117.094 594.505V590.779H118.146V594.471C119.493 594.423 120.874 594.334 122.139 594.184L122.193 594.99C119.637 595.387 116.779 595.441 114.605 595.428L114.469 594.539ZM122.904 598.107V585.953H123.971V591.039H125.939V591.969H123.971V598.107H122.904ZM141.334 595.646V596.549H130.205V595.646H135.223V592.693H136.303V595.646H141.334ZM130.752 592.256C132.81 591.907 135.195 590.205 135.195 588.264V587.963H131.121V587.061H140.377V587.963H136.303V588.264C136.31 590.205 138.702 591.873 140.801 592.215L140.363 593.062C138.504 592.693 136.542 591.511 135.763 589.829C134.983 591.531 133.028 592.741 131.203 593.117L130.752 592.256ZM152.271 585.953V598.107H151.205V585.953H152.271ZM142.373 594.867C143.412 594.86 144.602 594.854 145.832 594.812V593.486C144.369 593.336 143.426 592.502 143.439 591.285C143.426 589.911 144.595 589.022 146.352 589.029C148.108 589.022 149.298 589.911 149.291 591.285C149.298 592.488 148.354 593.322 146.912 593.486V594.771C148.088 594.717 149.277 594.635 150.398 594.484L150.48 595.305C147.767 595.742 144.793 595.783 142.537 595.783L142.373 594.867ZM142.633 588.332V587.457H145.832V585.967H146.912V587.457H150.084V588.332H142.633ZM144.438 591.285C144.431 592.126 145.224 592.68 146.352 592.666C147.486 592.68 148.272 592.126 148.266 591.285C148.272 590.438 147.486 589.863 146.352 589.863C145.224 589.863 144.431 590.438 144.438 591.285Z" fill="#222222"/>
<rect x="229" y="558" width="187" height="68" rx="8" fill="#F5F5F5"/>
<path d="M248.88 586.691C249.905 586.685 250.773 587.074 251.341 587.717H254.526V585.953H255.606V593.158H254.526V591.422H251.341C250.78 592.064 249.905 592.454 248.88 592.447C247.062 592.454 245.715 591.265 245.722 589.576C245.715 587.874 247.062 586.685 248.88 586.691ZM246.747 589.576C246.747 590.704 247.636 591.538 248.88 591.531C250.083 591.538 250.985 590.704 250.985 589.576C250.985 588.421 250.083 587.614 248.88 587.621C247.636 587.614 246.747 588.421 246.747 589.576ZM247.499 595.756C247.492 594.293 249.051 593.445 251.573 593.445C254.089 593.445 255.647 594.293 255.647 595.756C255.647 597.232 254.089 598.08 251.573 598.08C249.051 598.08 247.492 597.232 247.499 595.756ZM248.552 595.756C248.545 596.672 249.707 597.226 251.573 597.219C253.439 597.226 254.602 596.672 254.595 595.756C254.602 594.833 253.439 594.286 251.573 594.279C249.707 594.286 248.545 594.833 248.552 595.756ZM251.854 588.592C251.963 588.893 252.024 589.221 252.024 589.576C252.024 589.918 251.963 590.239 251.86 590.533H254.526V588.592H251.854ZM268.745 592.885V593.773H265.806V598.107H264.726V593.773H261.608V598.107H260.501V593.773H257.616V592.885H268.745ZM258.874 589.098C258.881 587.478 260.597 586.452 263.153 586.445C265.703 586.452 267.433 587.478 267.433 589.098C267.433 590.718 265.703 591.729 263.153 591.723C260.597 591.729 258.881 590.718 258.874 589.098ZM259.981 589.098C259.968 590.171 261.26 590.861 263.153 590.861C265.047 590.861 266.332 590.171 266.339 589.098C266.332 588.018 265.047 587.32 263.153 587.32C261.26 587.32 259.968 588.018 259.981 589.098ZM272.983 586.896C274.774 586.903 276.046 588.551 276.06 591.135C276.046 593.726 274.774 595.366 272.983 595.359C271.179 595.366 269.914 593.726 269.921 591.135C269.914 588.551 271.179 586.903 272.983 586.896ZM270.933 591.135C270.939 593.11 271.78 594.409 272.983 594.402C274.2 594.409 275.021 593.11 275.021 591.135C275.021 589.159 274.2 587.86 272.983 587.854C271.78 587.86 270.939 589.159 270.933 591.135ZM278.069 598.107V585.953H279.136V590.807H281.173V591.736H279.136V598.107H278.069ZM291.618 586.746C291.611 589.795 289.431 591.982 285.931 592.98L285.479 592.133C288.385 591.312 290.244 589.699 290.477 587.635H286.108V586.746H291.618ZM287.53 597.943V593.418H295.419V597.943H287.53ZM288.569 597.068H294.353V594.279H288.569V597.068ZM291.646 590V589.098H294.339V585.967H295.419V592.898H294.339V590H291.646ZM301.817 588.564C301.824 590.205 303.116 591.682 304.935 592.256L304.388 593.117C302.973 592.632 301.852 591.634 301.298 590.355C300.771 591.736 299.63 592.83 298.181 593.363L297.62 592.502C299.445 591.866 300.73 590.287 300.737 588.564V587.854H297.894V586.979H304.62V587.854H301.817V588.564ZM299.63 597.848V594.033H300.696V596.945H307.86V597.848H299.63ZM306.411 594.881V585.967H307.478V594.881H306.411ZM319.933 585.953V598.107H318.907V591.736H317.116V597.479H316.132V586.227H317.116V590.848H318.907V585.953H319.933ZM309.993 595.1V587.443H314.546V588.332H311.06V594.184C312.734 594.177 313.89 594.115 315.243 593.842L315.339 594.744C313.876 595.045 312.639 595.093 310.772 595.1H309.993ZM325.702 587.922C325.702 589.576 326.96 591.094 328.724 591.695L328.136 592.543C326.796 592.051 325.736 591.046 325.203 589.774C324.684 591.217 323.597 592.331 322.175 592.885L321.601 592.023C323.419 591.347 324.643 589.72 324.649 587.84V586.582H325.702V587.922ZM323.214 595.865C323.221 594.478 324.745 593.664 327.247 593.664C329.742 593.664 331.253 594.478 331.253 595.865C331.253 597.28 329.742 598.08 327.247 598.08C324.745 598.08 323.221 597.28 323.214 595.865ZM324.294 595.865C324.28 596.727 325.415 597.226 327.247 597.232C329.086 597.226 330.207 596.727 330.214 595.865C330.207 595.038 329.086 594.525 327.247 594.525C325.415 594.525 324.28 595.038 324.294 595.865ZM330.077 593.35V585.953H331.144V589.125H332.976V590.027H331.144V593.35H330.077ZM348.384 595.646V596.549H337.255V595.646H342.272V592.693H343.353V595.646H348.384ZM337.802 592.256C339.859 591.907 342.245 590.205 342.245 588.264V587.963H338.171V587.061H347.427V587.963H343.353V588.264C343.359 590.205 345.752 591.873 347.851 592.215L347.413 593.062C345.554 592.693 343.592 591.511 342.812 589.829C342.033 591.531 340.078 592.741 338.253 593.117L337.802 592.256ZM359.321 585.953V598.107H358.255V585.953H359.321ZM349.423 594.867C350.462 594.86 351.651 594.854 352.882 594.812V593.486C351.419 593.336 350.476 592.502 350.489 591.285C350.476 589.911 351.645 589.022 353.401 589.029C355.158 589.022 356.348 589.911 356.341 591.285C356.348 592.488 355.404 593.322 353.962 593.486V594.771C355.138 594.717 356.327 594.635 357.448 594.484L357.53 595.305C354.816 595.742 351.843 595.783 349.587 595.783L349.423 594.867ZM349.683 588.332V587.457H352.882V585.967H353.962V587.457H357.134V588.332H349.683ZM351.487 591.285C351.48 592.126 352.273 592.68 353.401 592.666C354.536 592.68 355.322 592.126 355.315 591.285C355.322 590.438 354.536 589.863 353.401 589.863C352.273 589.863 351.48 590.438 351.487 591.285Z" fill="#222222"/>
<rect x="34" y="634" width="187" height="68" rx="8" fill="#F5F5F5"/>
<path d="M56.8682 662.746C56.8613 665.795 54.6807 667.982 51.1807 668.98L50.7295 668.133C53.6348 667.312 55.4941 665.699 55.7266 663.635H51.3584V662.746H56.8682ZM52.7803 673.943V669.418H60.6689V673.943H52.7803ZM53.8193 673.068H59.6025V670.279H53.8193V673.068ZM56.8955 666V665.098H59.5889V661.967H60.6689V668.898H59.5889V666H56.8955ZM67.0674 664.564C67.0742 666.205 68.3662 667.682 70.1846 668.256L69.6377 669.117C68.2227 668.632 67.1016 667.634 66.5479 666.355C66.0215 667.736 64.8799 668.83 63.4307 669.363L62.8701 668.502C64.6953 667.866 65.9805 666.287 65.9873 664.564V663.854H63.1436V662.979H69.8701V663.854H67.0674V664.564ZM64.8799 673.848V670.033H65.9463V672.945H73.1104V673.848H64.8799ZM71.6611 670.881V661.967H72.7275V670.881H71.6611ZM89.4209 668.174V669.062H84.4717V671.551H83.4053V669.062H78.292V668.174H89.4209ZM79.7139 673.848V670.348H80.7939V672.945H88.1768V673.848H79.7139ZM79.7412 666.779V662.555H87.9717V666.779H79.7412ZM80.7939 665.918H86.9053V663.402H80.7939V665.918ZM94.7803 664.564C94.7871 666.205 96.0791 667.682 97.8975 668.256L97.3506 669.117C95.9355 668.632 94.8145 667.634 94.2607 666.355C93.7344 667.736 92.5928 668.83 91.1436 669.363L90.583 668.502C92.4082 667.866 93.6934 666.287 93.7002 664.564V663.854H90.8564V662.979H97.583V663.854H94.7803V664.564ZM92.5928 673.848V670.033H93.6592V672.945H100.823V673.848H92.5928ZM99.374 670.881V661.967H100.44V670.881H99.374ZM113.634 671.729V672.617H102.505V671.729H105.608V668.83H103.517V667.941H105.417V663.977H103.489V663.088H112.567V663.977H110.64V667.941H112.54V668.83H110.448V671.729H113.634ZM106.483 667.941H109.587V663.977H106.483V667.941ZM106.688 671.729H109.382V668.83H106.688V671.729ZM118.583 662.637L115.384 674.49H114.317L117.503 662.637H118.583ZM126.103 662.883V663.771H124.858V667.661C125.419 667.62 125.973 667.572 126.499 667.504L126.554 668.324C124.182 668.687 121.42 668.728 119.444 668.721L119.308 667.818C119.793 667.818 120.319 667.818 120.88 667.812V663.771H119.649V662.883H126.103ZM121.249 671.893C121.242 670.505 122.78 669.712 125.323 669.719C127.866 669.712 129.397 670.505 129.397 671.893C129.397 673.28 127.866 674.08 125.323 674.08C122.78 674.08 121.242 673.28 121.249 671.893ZM121.919 667.791C122.541 667.777 123.184 667.757 123.819 667.723V663.771H121.919V667.791ZM122.315 671.893C122.309 672.74 123.45 673.232 125.323 673.232C127.189 673.232 128.331 672.74 128.331 671.893C128.331 671.059 127.189 670.553 125.323 670.553C123.45 670.553 122.309 671.059 122.315 671.893ZM126.226 667.203V666.314H128.276V665.029H126.226V664.141H128.276V661.953H129.356V669.459H128.276V667.203H126.226ZM140.786 661.953V666.902H142.755V667.805H140.786V674.107H139.72V661.953H140.786ZM131.462 670.949C134.6 669.391 136.309 667.046 136.555 664.168H132.022V663.266H137.642C137.635 666.704 136.021 669.842 132.063 671.797L131.462 670.949ZM153.296 667.654V668.529H149.536V671.674H154.608V672.576H143.479V671.674H148.483V668.529H144.901V662.951H153.173V663.826H145.981V667.654H153.296ZM165.19 662.746V663.812C165.19 664.961 165.19 666.226 164.842 667.969H166.653V668.857H161.636V674.135H160.556V668.857H155.579V667.969H163.755C164.124 666.219 164.124 664.947 164.124 663.812V663.635H156.974V662.746H165.19ZM175.308 664.209C175.314 665.829 176.504 667.306 178.302 667.928L177.755 668.762C176.367 668.27 175.308 667.278 174.788 666.021C174.269 667.401 173.154 668.475 171.726 668.994L171.151 668.16C172.97 667.518 174.241 665.952 174.255 664.209V663.689H171.479V662.814H178.042V663.689H175.308V664.209ZM172.737 670.799V669.924H180.694V674.107H179.628V670.799H172.737ZM179.628 669.281V661.953H180.694V665.166H182.526V666.082H180.694V669.281H179.628ZM187.476 663.867C187.462 665.604 188.699 667.128 190.483 667.736L189.882 668.57C188.542 668.071 187.489 667.08 186.963 665.802C186.443 667.258 185.336 668.386 183.866 668.939L183.278 668.064C185.151 667.408 186.396 665.795 186.409 663.908V662.65H187.476V663.867ZM185.261 671.811C185.254 670.348 186.806 669.507 189.335 669.514C191.857 669.507 193.409 670.348 193.409 671.811C193.409 673.26 191.857 674.08 189.335 674.08C186.806 674.08 185.254 673.26 185.261 671.811ZM186.327 671.811C186.32 672.692 187.469 673.226 189.335 673.219C191.194 673.226 192.343 672.692 192.343 671.811C192.343 670.901 191.194 670.361 189.335 670.361C187.469 670.361 186.32 670.901 186.327 671.811ZM189.581 665.453V664.564H192.288V661.953H193.368V669.158H192.288V665.453H189.581Z" fill="#222222"/>
<rect x="229" y="634" width="187" height="68" rx="8" fill="#F5F5F5"/>
<path d="M249.28 662.691C250.306 662.685 251.174 663.074 251.741 663.717H254.927V661.953H256.007V669.158H254.927V667.422H251.741C251.181 668.064 250.306 668.454 249.28 668.447C247.462 668.454 246.115 667.265 246.122 665.576C246.115 663.874 247.462 662.685 249.28 662.691ZM247.147 665.576C247.147 666.704 248.036 667.538 249.28 667.531C250.483 667.538 251.386 666.704 251.386 665.576C251.386 664.421 250.483 663.614 249.28 663.621C248.036 663.614 247.147 664.421 247.147 665.576ZM247.899 671.756C247.893 670.293 249.451 669.445 251.974 669.445C254.489 669.445 256.048 670.293 256.048 671.756C256.048 673.232 254.489 674.08 251.974 674.08C249.451 674.08 247.893 673.232 247.899 671.756ZM248.952 671.756C248.945 672.672 250.107 673.226 251.974 673.219C253.84 673.226 255.002 672.672 254.995 671.756C255.002 670.833 253.84 670.286 251.974 670.279C250.107 670.286 248.945 670.833 248.952 671.756ZM252.254 664.592C252.363 664.893 252.425 665.221 252.425 665.576C252.425 665.918 252.363 666.239 252.261 666.533H254.927V664.592H252.254ZM269.146 668.885V669.773H266.206V674.107H265.126V669.773H262.009V674.107H260.901V669.773H258.017V668.885H269.146ZM259.274 665.098C259.281 663.478 260.997 662.452 263.554 662.445C266.104 662.452 267.833 663.478 267.833 665.098C267.833 666.718 266.104 667.729 263.554 667.723C260.997 667.729 259.281 666.718 259.274 665.098ZM260.382 665.098C260.368 666.171 261.66 666.861 263.554 666.861C265.447 666.861 266.732 666.171 266.739 665.098C266.732 664.018 265.447 663.32 263.554 663.32C261.66 663.32 260.368 664.018 260.382 665.098ZM273.384 662.896C275.175 662.903 276.446 664.551 276.46 667.135C276.446 669.726 275.175 671.366 273.384 671.359C271.579 671.366 270.314 669.726 270.321 667.135C270.314 664.551 271.579 662.903 273.384 662.896ZM271.333 667.135C271.34 669.11 272.181 670.409 273.384 670.402C274.601 670.409 275.421 669.11 275.421 667.135C275.421 665.159 274.601 663.86 273.384 663.854C272.181 663.86 271.34 665.159 271.333 667.135ZM278.47 674.107V661.953H279.536V666.807H281.573V667.736H279.536V674.107H278.47ZM295.819 661.967V670.949H294.739V666.615H292.046V665.713H294.739V661.967H295.819ZM285.935 668.666C288.73 667.743 290.679 665.993 290.925 663.799H286.55V662.896H292.101C292.087 666.021 289.852 668.399 286.399 669.527L285.935 668.666ZM288.081 673.848V670.033H289.175V672.945H296.134V673.848H288.081ZM307.345 661.953V665.125H309.177V666.014H307.345V669.254H306.278V661.953H307.345ZM297.856 668.393C300.789 667.545 302.662 665.856 302.881 663.744H298.39V662.855H304.036C304.029 665.952 301.849 668.222 298.308 669.268L297.856 668.393ZM299.524 671.729C299.518 670.272 301.083 669.384 303.503 669.391C305.943 669.384 307.481 670.272 307.481 671.729C307.481 673.205 305.943 674.08 303.503 674.08C301.083 674.08 299.518 673.205 299.524 671.729ZM300.591 671.729C300.577 672.645 301.719 673.226 303.503 673.219C305.287 673.226 306.442 672.645 306.442 671.729C306.442 670.812 305.287 670.245 303.503 670.252C301.719 670.245 300.577 670.812 300.591 671.729ZM316.218 662.746C316.211 665.795 314.03 667.982 310.53 668.98L310.079 668.133C312.984 667.312 314.844 665.699 315.076 663.635H310.708V662.746H316.218ZM312.13 673.943V669.418H320.019V673.943H312.13ZM313.169 673.068H318.952V670.279H313.169V673.068ZM316.245 666V665.098H318.938V661.967H320.019V668.898H318.938V666H316.245ZM326.417 664.564C326.424 666.205 327.716 667.682 329.534 668.256L328.987 669.117C327.572 668.632 326.451 667.634 325.897 666.355C325.371 667.736 324.229 668.83 322.78 669.363L322.22 668.502C324.045 667.866 325.33 666.287 325.337 664.564V663.854H322.493V662.979H329.22V663.854H326.417V664.564ZM324.229 673.848V670.033H325.296V672.945H332.46V673.848H324.229ZM331.011 670.881V661.967H332.077V670.881H331.011ZM344.218 661.953V668.174H343.138V666.902H339.897V666.055H343.138V664.592H340.075C339.316 666.506 337.43 667.798 334.729 668.447L334.347 667.559C337.327 666.868 339.057 665.419 339.262 663.457H334.962V662.568H340.444C340.444 662.972 340.403 663.361 340.328 663.73H343.138V661.953H344.218ZM336.343 669.596V668.721H344.218V671.688H337.437V673.109H344.628V673.998H336.37V670.867H343.138V669.596H336.343ZM352.981 663.307V663.936C352.975 664.899 352.975 666.506 352.626 668.762L351.546 668.666C351.881 666.629 351.908 665.152 351.901 664.182H346.802V663.307H352.981ZM346.118 670.539C346.918 670.532 347.807 670.525 348.743 670.505V666.779H349.796V670.471C351.143 670.423 352.523 670.334 353.788 670.184L353.843 670.99C351.286 671.387 348.429 671.441 346.255 671.428L346.118 670.539ZM354.554 674.107V661.953H355.62V667.039H357.589V667.969H355.62V674.107H354.554ZM372.983 671.646V672.549H361.854V671.646H366.872V668.693H367.952V671.646H372.983ZM362.401 668.256C364.459 667.907 366.845 666.205 366.845 664.264V663.963H362.771V663.061H372.026V663.963H367.952V664.264C367.959 666.205 370.352 667.873 372.45 668.215L372.013 669.062C370.153 668.693 368.191 667.511 367.412 665.829C366.633 667.531 364.678 668.741 362.853 669.117L362.401 668.256ZM383.921 661.953V674.107H382.854V661.953H383.921ZM374.022 670.867C375.062 670.86 376.251 670.854 377.481 670.812V669.486C376.019 669.336 375.075 668.502 375.089 667.285C375.075 665.911 376.244 665.022 378.001 665.029C379.758 665.022 380.947 665.911 380.94 667.285C380.947 668.488 380.004 669.322 378.562 669.486V670.771C379.737 670.717 380.927 670.635 382.048 670.484L382.13 671.305C379.416 671.742 376.442 671.783 374.187 671.783L374.022 670.867ZM374.282 664.332V663.457H377.481V661.967H378.562V663.457H381.733V664.332H374.282ZM376.087 667.285C376.08 668.126 376.873 668.68 378.001 668.666C379.136 668.68 379.922 668.126 379.915 667.285C379.922 666.438 379.136 665.863 378.001 665.863C376.873 665.863 376.08 666.438 376.087 667.285Z" fill="#222222"/>
<rect x="34" y="710" width="187" height="68" rx="8" fill="#F5F5F5"/>
<path d="M56.9531 738.746C56.9463 741.795 54.7656 743.982 51.2656 744.98L50.8145 744.133C53.7197 743.312 55.5791 741.699 55.8115 739.635H51.4434V738.746H56.9531ZM52.8652 749.943V745.418H60.7539V749.943H52.8652ZM53.9043 749.068H59.6875V746.279H53.9043V749.068ZM56.9805 742V741.098H59.6738V737.967H60.7539V744.898H59.6738V742H56.9805ZM67.1523 740.564C67.1592 742.205 68.4512 743.682 70.2695 744.256L69.7227 745.117C68.3076 744.632 67.1865 743.634 66.6328 742.355C66.1064 743.736 64.9648 744.83 63.5156 745.363L62.9551 744.502C64.7803 743.866 66.0654 742.287 66.0723 740.564V739.854H63.2285V738.979H69.9551V739.854H67.1523V740.564ZM64.9648 749.848V746.033H66.0312V748.945H73.1953V749.848H64.9648ZM71.7461 746.881V737.967H72.8125V746.881H71.7461ZM84.9258 737.953V750.107H83.8457V737.953H84.9258ZM75.0273 746.949C78.3154 745.391 79.9971 743.06 80.2363 740.154H75.5879V739.279H81.3301C81.3164 742.772 79.6895 745.869 75.6152 747.824L75.0273 746.949ZM93.7168 738.896V739.539C93.71 740.339 93.71 741.549 93.4023 743.135L92.3223 743.053C92.6162 741.604 92.6436 740.571 92.6572 739.799H87.6602V738.896H93.7168ZM86.9082 744.27C87.6943 744.27 88.583 744.263 89.5195 744.235V741.59H90.5859V744.201C91.9326 744.146 93.3271 744.051 94.5918 743.873L94.6602 744.666C92.1104 745.104 89.1846 745.151 87.0176 745.158L86.9082 744.27ZM88.7812 749.848V746.279H89.8613V748.945H96.9023V749.848H88.7812ZM95.4121 747.1V737.953H96.5059V741.918H98.2832V742.834H96.5059V747.1H95.4121ZM103.055 738.637L99.8555 750.49H98.7891L101.975 738.637H103.055ZM105.434 738.705V740.66H108.824V738.705H109.877V739.949H112.748V737.953H113.828V745.322H112.748V743.34H109.877V744.42H104.367V738.705H105.434ZM105.434 743.545H108.824V741.521H105.434V743.545ZM105.721 747.838C105.714 746.389 107.266 745.568 109.795 745.555C112.317 745.568 113.869 746.389 113.869 747.838C113.869 749.26 112.317 750.08 109.795 750.08C107.266 750.08 105.714 749.26 105.721 747.838ZM106.787 747.838C106.78 748.713 107.929 749.232 109.795 749.232C111.654 749.232 112.803 748.713 112.803 747.838C112.803 746.929 111.654 746.409 109.795 746.402C107.929 746.409 106.78 746.929 106.787 747.838ZM109.877 742.451H112.748V740.824H109.877V742.451ZM116.604 745.227C116.617 742.649 117.314 740.503 118.572 738.678H119.611C118.688 740.024 117.827 742.793 117.82 745.227C117.827 747.667 118.688 750.429 119.611 751.789H118.572C117.314 749.957 116.617 747.811 116.604 745.227ZM124.602 738.842C126.509 738.849 127.862 740.011 127.869 741.699C127.862 743.395 126.509 744.55 124.602 744.557C122.681 744.55 121.313 743.395 121.32 741.699C121.313 740.011 122.681 738.849 124.602 738.842ZM120.691 746.539C122.934 746.546 126.03 746.525 128.717 746.129L128.799 746.922C126.017 747.441 123.029 747.455 120.842 747.455L120.691 746.539ZM122.373 741.699C122.366 742.834 123.303 743.613 124.602 743.613C125.887 743.613 126.823 742.834 126.816 741.699C126.823 740.571 125.887 739.785 124.602 739.785C123.303 739.785 122.366 740.571 122.373 741.699ZM129.523 750.135V737.953H130.59V750.135H129.523ZM135.758 745.227C135.744 747.811 135.047 749.957 133.789 751.789H132.75C133.673 750.429 134.534 747.667 134.541 745.227C134.534 742.793 133.673 740.024 132.75 738.678H133.789C135.047 740.503 135.744 742.649 135.758 745.227ZM147.516 737.967V747.195H146.436V745.938H143.92V745.158H146.436V737.967H147.516ZM137.426 743.6C139.688 743.586 142.737 743.565 145.342 743.244L145.41 744.023C144.33 744.194 143.188 744.304 142.074 744.372V746.771H140.994V744.427C139.764 744.475 138.595 744.475 137.576 744.475L137.426 743.6ZM138.41 740.578C138.403 739.3 139.62 738.459 141.418 738.459C143.202 738.459 144.419 739.3 144.426 740.578C144.419 741.877 143.202 742.684 141.418 742.684C139.62 742.684 138.403 741.877 138.41 740.578ZM139.176 749.848V746.293H140.256V748.945H147.816V749.848H139.176ZM139.436 740.578C139.422 741.371 140.229 741.884 141.418 741.891C142.573 741.884 143.394 741.371 143.4 740.578C143.394 739.799 142.573 739.266 141.418 739.279C140.229 739.266 139.422 739.799 139.436 740.578ZM157.25 740.496C157.257 741.952 158.474 743.285 160.271 743.818L159.766 744.639C158.364 744.215 157.277 743.312 156.737 742.157C156.211 743.429 155.083 744.413 153.641 744.885L153.107 744.037C154.919 743.49 156.19 742.096 156.197 740.496V740.264H153.449V739.375H156.197V737.898H157.277V739.375H159.998V740.264H157.25V740.496ZM154.338 749.232C156.293 748.918 158.07 747.852 158.248 746.553H154.816V745.678H162.828V746.553H159.383C159.554 747.824 161.345 748.918 163.293 749.232L162.896 750.066C161.119 749.772 159.506 748.891 158.809 747.674C158.118 748.884 156.512 749.752 154.748 750.053L154.338 749.232ZM161.543 745.021V737.953H162.609V740.961H164.441V741.863H162.609V745.021H161.543ZM175.256 737.953V750.107H174.176V737.953H175.256ZM165.357 746.949C168.646 745.391 170.327 743.06 170.566 740.154H165.918V739.279H171.66C171.646 742.772 170.02 745.869 165.945 747.824L165.357 746.949Z" fill="#222222"/>
<rect x="229" y="710" width="187" height="68" rx="8" fill="#F5F5F5"/>
<path d="M249.336 738.691C250.361 738.685 251.229 739.074 251.797 739.717H254.982V737.953H256.062V745.158H254.982V743.422H251.797C251.236 744.064 250.361 744.454 249.336 744.447C247.518 744.454 246.171 743.265 246.178 741.576C246.171 739.874 247.518 738.685 249.336 738.691ZM247.203 741.576C247.203 742.704 248.092 743.538 249.336 743.531C250.539 743.538 251.441 742.704 251.441 741.576C251.441 740.421 250.539 739.614 249.336 739.621C248.092 739.614 247.203 740.421 247.203 741.576ZM247.955 747.756C247.948 746.293 249.507 745.445 252.029 745.445C254.545 745.445 256.104 746.293 256.104 747.756C256.104 749.232 254.545 750.08 252.029 750.08C249.507 750.08 247.948 749.232 247.955 747.756ZM249.008 747.756C249.001 748.672 250.163 749.226 252.029 749.219C253.896 749.226 255.058 748.672 255.051 747.756C255.058 746.833 253.896 746.286 252.029 746.279C250.163 746.286 249.001 746.833 249.008 747.756ZM252.31 740.592C252.419 740.893 252.48 741.221 252.48 741.576C252.48 741.918 252.419 742.239 252.316 742.533H254.982V740.592H252.31ZM269.201 744.885V745.773H266.262V750.107H265.182V745.773H262.064V750.107H260.957V745.773H258.072V744.885H269.201ZM259.33 741.098C259.337 739.478 261.053 738.452 263.609 738.445C266.159 738.452 267.889 739.478 267.889 741.098C267.889 742.718 266.159 743.729 263.609 743.723C261.053 743.729 259.337 742.718 259.33 741.098ZM260.438 741.098C260.424 742.171 261.716 742.861 263.609 742.861C265.503 742.861 266.788 742.171 266.795 741.098C266.788 740.018 265.503 739.32 263.609 739.32C261.716 739.32 260.424 740.018 260.438 741.098ZM273.439 738.896C275.23 738.903 276.502 740.551 276.516 743.135C276.502 745.726 275.23 747.366 273.439 747.359C271.635 747.366 270.37 745.726 270.377 743.135C270.37 740.551 271.635 738.903 273.439 738.896ZM271.389 743.135C271.396 745.11 272.236 746.409 273.439 746.402C274.656 746.409 275.477 745.11 275.477 743.135C275.477 741.159 274.656 739.86 273.439 739.854C272.236 739.86 271.396 741.159 271.389 743.135ZM278.525 750.107V737.953H279.592V742.807H281.629V743.736H279.592V750.107H278.525ZM291.896 739.088C291.903 740.804 294.132 742.28 296.326 742.588L295.889 743.463C294.002 743.148 292.129 742.103 291.35 740.612C290.57 742.116 288.704 743.148 286.811 743.463L286.373 742.588C288.567 742.28 290.789 740.831 290.789 739.088V738.391H291.896V739.088ZM285.799 745.705V744.803H296.873V745.705H291.842V750.107H290.789V745.705H285.799ZM302.041 740.414C302.048 741.911 303.354 743.189 305.158 743.682L304.666 744.529C303.23 744.119 302.089 743.237 301.535 742.068C301.009 743.347 299.874 744.317 298.418 744.762L297.898 743.914C299.71 743.374 300.981 742 300.988 740.414V740.195H298.24V739.334H300.988V737.898H302.068V739.334H304.789V740.195H302.041V740.414ZM300.141 749.943V745.24H301.221V746.703H306.895V745.24H307.961V749.943H300.141ZM301.221 749.068H306.895V747.564H301.221V749.068ZM304.434 742.109V741.221H306.895V737.953H307.961V744.68H306.895V742.109H304.434Z" fill="#222222"/>
<path d="M203.536 811.115V812.018H199.038V818.211C201.232 818.218 202.675 818.143 204.356 817.814L204.493 818.703C202.702 819.045 201.219 819.127 198.888 819.127H197.958V811.115H203.536ZM202.812 815.271V814.383H206.353V809.953H207.433V822.135H206.353V815.271H202.812ZM220.571 819.66V820.549H209.442V819.66H214.446V817.035H210.755V810.814H211.835V813.016H218.151V810.814H219.204V817.035H215.499V819.66H220.571ZM211.835 816.16H218.151V813.891H211.835V816.16ZM231.591 809.953V822.107H230.511V809.953H231.591ZM221.692 818.949C224.98 817.391 226.662 815.06 226.901 812.154H222.253V811.279H227.995C227.981 814.772 226.354 817.869 222.28 819.824L221.692 818.949Z" fill="#999999"/>
<mask id="mask2_238_234" style="mask-type:alpha" maskUnits="userSpaceOnUse" x="233" y="806" width="21" height="20">
<rect x="233.5" y="806" width="20" height="20" fill="#D9D9D9"/>
</mask>
<g mask="url(#mask2_238_234)">
<path d="M244.664 816L241.102 812.44C240.987 812.324 240.928 812.196 240.925 812.056C240.923 811.917 240.982 811.786 241.102 811.665C241.223 811.545 241.352 811.484 241.49 811.484C241.627 811.484 241.758 811.547 241.884 811.673L245.747 815.536C245.811 815.605 245.859 815.679 245.891 815.755C245.923 815.832 245.939 815.915 245.939 816.005C245.939 816.094 245.923 816.177 245.891 816.254C245.859 816.331 245.811 816.401 245.747 816.465L241.884 820.328C241.764 820.448 241.637 820.506 241.504 820.502C241.371 820.498 241.244 820.435 241.123 820.315C241.003 820.194 240.942 820.065 240.942 819.928C240.942 819.79 241.003 819.661 241.123 819.54L244.664 816Z" fill="#999999"/>
</g>
</g>
</g>
<defs>
<filter id="filter0_d_238_234" x="-8" y="-6" width="466" height="116" filterUnits="userSpaceOnUse" color-interpolation-filters="sRGB">
<feFlood flood-opacity="0" result="BackgroundImageFix"/>
<feColorMatrix in="SourceAlpha" type="matrix" values="0 0 0 0 0 0 0 0 0 0 0 0 0 0 0 0 0 0 127 0" result="hardAlpha"/>
<feOffset dy="2"/>
<feGaussianBlur stdDeviation="4"/>
<feComposite in2="hardAlpha" operator="out"/>
<feColorMatrix type="matrix" values="0 0 0 0 0 0 0 0 0 0 0 0 0 0 0 0 0 0 0.08 0"/>
<feBlend mode="normal" in2="BackgroundImageFix" result="effect1_dropShadow_238_234"/>
<feBlend mode="normal" in="SourceGraphic" in2="effect1_dropShadow_238_234" result="shape"/>
</filter>
<filter id="filter1_d_238_234" x="8" y="120" width="434" height="131" filterUnits="userSpaceOnUse" color-interpolation-filters="sRGB">
<feFlood flood-opacity="0" result="BackgroundImageFix"/>
<feColorMatrix in="SourceAlpha" type="matrix" values="0 0 0 0 0 0 0 0 0 0 0 0 0 0 0 0 0 0 127 0" result="hardAlpha"/>
<feOffset dy="2"/>
<feGaussianBlur stdDeviation="4"/>
<feComposite in2="hardAlpha" operator="out"/>
<feColorMatrix type="matrix" values="0 0 0 0 0 0 0 0 0 0 0 0 0 0 0 0 0 0 0.08 0"/>
<feBlend mode="normal" in2="BackgroundImageFix" result="effect1_dropShadow_238_234"/>
<feBlend mode="normal" in="SourceGraphic" in2="effect1_dropShadow_238_234" result="shape"/>
</filter>
<filter id="filter2_d_238_234" x="8" y="261" width="434" height="137" filterUnits="userSpaceOnUse" color-interpolation-filters="sRGB">
<feFlood flood-opacity="0" result="BackgroundImageFix"/>
<feColorMatrix in="SourceAlpha" type="matrix" values="0 0 0 0 0 0 0 0 0 0 0 0 0 0 0 0 0 0 127 0" result="hardAlpha"/>
<feOffset dy="2"/>
<feGaussianBlur stdDeviation="4"/>
<feComposite in2="hardAlpha" operator="out"/>
<feColorMatrix type="matrix" values="0 0 0 0 0 0 0 0 0 0 0 0 0 0 0 0 0 0 0.08 0"/>
<feBlend mode="normal" in2="BackgroundImageFix" result="effect1_dropShadow_238_234"/>
<feBlend mode="normal" in="SourceGraphic" in2="effect1_dropShadow_238_234" result="shape"/>
</filter>
<filter id="filter3_d_238_234" x="8" y="456" width="434" height="400" filterUnits="userSpaceOnUse" color-interpolation-filters="sRGB">
<feFlood flood-opacity="0" result="BackgroundImageFix"/>
<feColorMatrix in="SourceAlpha" type="matrix" values="0 0 0 0 0 0 0 0 0 0 0 0 0 0 0 0 0 0 127 0" result="hardAlpha"/>
<feOffset dy="2"/>
<feGaussianBlur stdDeviation="4"/>
<feComposite in2="hardAlpha" operator="out"/>
<feColorMatrix type="matrix" values="0 0 0 0 0 0 0 0 0 0 0 0 0 0 0 0 0 0 0.08 0"/>
<feBlend mode="normal" in2="BackgroundImageFix" result="effect1_dropShadow_238_234"/>
<feBlend mode="normal" in="SourceGraphic" in2="effect1_dropShadow_238_234" result="shape"/>
</filter>
<clipPath id="clip0_238_234">
<rect width="450" height="851" fill="white"/>
</clipPath>
<clipPath id="clip1_238_234">
<rect width="24" height="24" fill="white" transform="translate(16 16)"/>
</clipPath>
<clipPath id="clip2_238_234">
<rect width="36" height="36" fill="white" transform="translate(34 165.5)"/>
</clipPath>
</defs>
</svg>
