<svg width="400" height="727" viewBox="0 0 400 727" fill="none" xmlns="http://www.w3.org/2000/svg">
<g clip-path="url(#clip0_506_11133)">
<rect width="400" height="727" fill="white"/>
<mask id="path-1-inside-1_506_11133" fill="white">
<path d="M0 0H400V58H0V0Z"/>
</mask>
<path d="M0 0H400V58H0V0Z" fill="white"/>
<path d="M400 57H0V59H400V57Z" fill="#DEDEDE" mask="url(#path-1-inside-1_506_11133)"/>
<mask id="mask0_506_11133" style="mask-type:alpha" maskUnits="userSpaceOnUse" x="14" y="17" width="24" height="24">
<rect x="14" y="17" width="24" height="24" fill="#D9D9D9"/>
</mask>
<g mask="url(#mask0_506_11133)">
<path d="M23.0152 29.0001L30.248 36.2328C30.43 36.4148 30.5227 36.6404 30.526 36.9096C30.5292 37.1789 30.4397 37.4046 30.2577 37.5866C30.0756 37.7686 29.8499 37.8596 29.5807 37.8596C29.3116 37.8596 29.0859 37.7686 28.9038 37.5866L21.4578 30.1308C21.2936 29.9667 21.1762 29.7891 21.1057 29.5981C21.0352 29.4071 21 29.2078 21 29.0001C21 28.7924 21.0352 28.5931 21.1057 28.4021C21.1762 28.2111 21.2936 28.0335 21.4578 27.8693L28.9038 20.4231C29.0859 20.2411 29.31 20.1485 29.576 20.1453C29.842 20.1422 30.066 20.2316 30.248 20.4136C30.43 20.5956 30.521 20.8213 30.521 21.0906C30.521 21.3598 30.43 21.5853 30.248 21.7673L23.0152 29.0001Z" fill="#323142"/>
</g>
<path d="M164.588 20.8145V32.3633H163.199V26.791H159.736V25.6309H163.199V20.8145H164.588ZM151.879 29.4277C155.474 28.2412 157.979 25.9912 158.295 23.1699H152.67V22.0098H159.807C159.789 26.0264 156.915 29.085 152.477 30.5352L151.879 29.4277ZM154.639 36.0898V31.1855H156.045V34.9297H164.992V36.0898H154.639ZM179.406 20.7969V24.875H181.762V26.0176H179.406V30.1836H178.035V20.7969H179.406ZM167.207 29.0762C170.978 27.9863 173.386 25.8154 173.667 23.0996H167.893V21.957H175.152C175.144 25.9385 172.34 28.8564 167.787 30.2012L167.207 29.0762ZM169.352 33.3652C169.343 31.4932 171.355 30.3506 174.467 30.3594C177.604 30.3506 179.582 31.4932 179.582 33.3652C179.582 35.2637 177.604 36.3887 174.467 36.3887C171.355 36.3887 169.343 35.2637 169.352 33.3652ZM170.723 33.3652C170.705 34.543 172.173 35.29 174.467 35.2812C176.761 35.29 178.246 34.543 178.246 33.3652C178.246 32.1875 176.761 31.458 174.467 31.4668C172.173 31.458 170.705 32.1875 170.723 33.3652ZM196.141 20.7969V36.4238H194.805V20.7969H196.141ZM182.939 27.5469C182.948 24.2246 184.267 22.124 186.297 22.1152C187.633 22.124 188.661 23.0293 189.224 24.5938H191.711V21.1309H193.029V35.6328H191.711V30.5H189.224C188.67 32.0732 187.633 32.9873 186.297 32.9785C184.267 32.9873 182.948 30.8691 182.939 27.5469ZM184.223 27.5469C184.214 30.0781 185.014 31.6777 186.297 31.6602C187.571 31.6777 188.389 30.0781 188.389 27.5469C188.389 25.0068 187.571 23.416 186.297 23.416C185.014 23.416 184.214 25.0068 184.223 27.5469ZM189.514 25.7363C189.619 26.29 189.672 26.8965 189.672 27.5469C189.672 28.1885 189.619 28.7949 189.522 29.3398H191.711V25.7363H189.514ZM212.541 28.6895V29.8145H198.303V28.6895H212.541ZM199.146 26.7383C202.073 26.4834 204.552 25.2705 204.666 23.4863H199.779V22.3789H204.736V20.7617H206.09V22.3789H211.1V23.4863H206.178C206.274 25.2705 208.744 26.4834 211.697 26.7383L211.24 27.8281C208.665 27.5381 206.362 26.5977 205.422 25.0156C204.464 26.5977 202.161 27.5381 199.604 27.8281L199.146 26.7383ZM199.885 32.627V31.502H210.783V36.4238H209.395V32.627H199.885ZM226.076 20.7969V25.5605H228.432V26.7207H226.076V32.3281H224.705V20.7969H226.076ZM214.158 25.7539C214.149 23.4863 215.925 21.9131 218.254 21.9043C220.601 21.9131 222.35 23.4863 222.367 25.7539C222.35 28.0127 220.601 29.6035 218.254 29.6035C215.925 29.6035 214.149 28.0127 214.158 25.7539ZM215.512 25.7539C215.503 27.292 216.707 28.3906 218.254 28.3906C219.827 28.3906 221.005 27.292 221.014 25.7539C221.005 24.207 219.827 23.1172 218.254 23.1172C216.707 23.1172 215.503 24.207 215.512 25.7539ZM216.303 36.0898V31.1328H217.656V34.9297H226.797V36.0898H216.303ZM242.758 20.7969V36.4238H241.404V28.3379H239.154V35.6152H237.854V21.1484H239.154V27.1602H241.404V20.7969H242.758ZM230.207 32.3809V22.7129H231.578V31.1504C233.125 31.1416 234.795 31.0273 236.693 30.6406L236.869 31.8711C234.689 32.2666 232.896 32.3809 231.174 32.3809H230.207Z" fill="#222222"/>
<mask id="mask1_506_11133" style="mask-type:alpha" maskUnits="userSpaceOnUse" x="358" y="15" width="28" height="28">
<rect x="358" y="15" width="28" height="28" fill="#D9D9D9"/>
</mask>
<g mask="url(#mask1_506_11133)">
<path d="M365.7 36.7H368.904V30.7051C368.904 30.4395 368.994 30.2168 369.173 30.0369C369.353 29.8572 369.576 29.7674 369.842 29.7674H374.158C374.424 29.7674 374.647 29.8572 374.827 30.0369C375.006 30.2168 375.096 30.4395 375.096 30.7051V36.7H378.3V26.7294C378.3 26.6697 378.287 26.6156 378.261 26.5669C378.235 26.5183 378.199 26.4753 378.154 26.4377L372.213 21.9709C372.153 21.9186 372.082 21.8924 372 21.8924C371.918 21.8924 371.847 21.9186 371.787 21.9709L365.846 26.4377C365.801 26.4753 365.765 26.5183 365.739 26.5669C365.713 26.6156 365.7 26.6697 365.7 26.7294V36.7ZM364.183 36.35V26.7294C364.183 26.4373 364.248 26.1606 364.378 25.8993C364.508 25.638 364.695 25.4107 364.939 25.2174L370.881 20.7391C371.23 20.4969 371.602 20.3757 371.998 20.3757C372.394 20.3757 372.768 20.4969 373.119 20.7391L379.061 25.2174C379.305 25.4107 379.492 25.638 379.622 25.8993C379.752 26.1606 379.817 26.4373 379.817 26.7294V36.35C379.817 36.8593 379.633 37.2977 379.265 37.6651C378.898 38.0328 378.459 38.2167 377.95 38.2167H374.517C374.252 38.2167 374.029 38.1268 373.849 37.9469C373.669 37.7672 373.579 37.5445 373.579 37.2787V31.2841H370.421V37.2787C370.421 37.5445 370.331 37.7672 370.151 37.9469C369.971 38.1268 369.748 38.2167 369.483 38.2167H366.05C365.541 38.2167 365.102 38.0328 364.735 37.6651C364.367 37.2977 364.183 36.8593 364.183 36.35Z" fill="#323142"/>
</g>
<rect x="20" y="82" width="360" height="145" rx="6" fill="#F8F8F8"/>
<path d="M35.7773 109.555C35.2988 109.548 34.8887 109.151 34.9023 108.666C34.8887 108.188 35.2988 107.791 35.7773 107.791C36.2627 107.791 36.6592 108.188 36.6523 108.666C36.6592 109.151 36.2627 109.548 35.7773 109.555ZM51.5957 101.967V110.854H50.5293V101.967H51.5957ZM41.8477 105.795C41.8408 104.045 43.2148 102.821 45.0332 102.814C46.8516 102.821 48.2119 104.045 48.2188 105.795C48.2119 107.565 46.8516 108.796 45.0332 108.789C43.2148 108.796 41.8408 107.565 41.8477 105.795ZM42.9004 105.795C42.8867 107.005 43.8027 107.846 45.0332 107.846C46.2432 107.846 47.166 107.005 47.166 105.795C47.166 104.605 46.2432 103.758 45.0332 103.758C43.8027 103.758 42.8867 104.605 42.9004 105.795ZM43.748 113.848V109.951H44.8145V112.945H51.9785V113.848H43.748ZM59.1562 109.637C61.7607 109.637 63.415 110.457 63.4219 111.865C63.415 113.26 61.7607 114.08 59.1562 114.08C56.5518 114.08 54.8975 113.26 54.9043 111.865C54.8975 110.457 56.5518 109.637 59.1562 109.637ZM53.6738 108.502V107.627H58.2539V105.275H59.3066V107.627H64.7344V108.502H53.6738ZM54.9863 103.457V102.582H63.3262V103.607C63.3193 104.592 63.3193 105.576 62.9844 106.834L61.9316 106.711C62.2598 105.46 62.2598 104.558 62.2598 103.607V103.457H54.9863ZM55.9707 111.865C55.9639 112.713 57.2217 113.232 59.1562 113.232C61.0977 113.232 62.3418 112.713 62.3555 111.865C62.3418 110.997 61.0977 110.464 59.1562 110.457C57.2217 110.464 55.9639 110.997 55.9707 111.865ZM70.1074 105.686C70.1143 107.75 71.6113 109.849 73.4023 110.621L72.8008 111.469C71.3789 110.826 70.1553 109.425 69.5879 107.743C69.0205 109.527 67.79 111.072 66.4023 111.77L65.7598 110.922C67.5029 110.088 69.0205 107.791 69.0273 105.686V104.1H66.1562V103.211H73.0059V104.1H70.1074V105.686ZM74.7012 114.107V101.953H75.7812V114.107H74.7012ZM87.6758 105.357V106.246H79.377V102.199H80.4434V105.357H87.6758ZM77.8594 108.557V107.668H88.9473V108.557H77.8594ZM79.1992 111.852C79.1924 110.437 80.7715 109.644 83.3965 109.65C86.001 109.644 87.5664 110.437 87.5801 111.852C87.5664 113.26 86.001 114.053 83.3965 114.053C80.7715 114.053 79.1924 113.26 79.1992 111.852ZM80.293 111.852C80.2793 112.699 81.4482 113.212 83.3965 113.219C85.3242 113.212 86.4932 112.699 86.5 111.852C86.4932 110.99 85.3242 110.505 83.3965 110.498C81.4482 110.505 80.2793 110.99 80.293 111.852ZM103.549 101.967V110.949H102.469V106.615H99.7754V105.713H102.469V101.967H103.549ZM93.6641 108.666C96.46 107.743 98.4082 105.993 98.6543 103.799H94.2793V102.896H99.8301C99.8164 106.021 97.5811 108.399 94.1289 109.527L93.6641 108.666ZM95.8105 113.848V110.033H96.9043V112.945H103.863V113.848H95.8105ZM115.074 101.953V105.125H116.906V106.014H115.074V109.254H114.008V101.953H115.074ZM105.586 108.393C108.519 107.545 110.392 105.856 110.61 103.744H106.119V102.855H111.766C111.759 105.952 109.578 108.222 106.037 109.268L105.586 108.393ZM107.254 111.729C107.247 110.272 108.812 109.384 111.232 109.391C113.673 109.384 115.211 110.272 115.211 111.729C115.211 113.205 113.673 114.08 111.232 114.08C108.812 114.08 107.247 113.205 107.254 111.729ZM108.32 111.729C108.307 112.645 109.448 113.226 111.232 113.219C113.017 113.226 114.172 112.645 114.172 111.729C114.172 110.812 113.017 110.245 111.232 110.252C109.448 110.245 108.307 110.812 108.32 111.729ZM131.604 101.953V114.107H130.564V101.953H131.604ZM121.336 107.203C121.343 104.619 122.368 102.985 123.947 102.979C124.986 102.985 125.786 103.689 126.224 104.906H128.158V102.213H129.184V113.492H128.158V109.5H126.224C125.793 110.724 124.986 111.435 123.947 111.428C122.368 111.435 121.343 109.787 121.336 107.203ZM122.334 107.203C122.327 109.172 122.949 110.416 123.947 110.402C124.938 110.416 125.574 109.172 125.574 107.203C125.574 105.228 124.938 103.99 123.947 103.99C122.949 103.99 122.327 105.228 122.334 107.203ZM126.449 105.795C126.531 106.226 126.572 106.697 126.572 107.203C126.572 107.702 126.531 108.174 126.456 108.598H128.158V105.795H126.449ZM144.359 108.092V108.967H133.285V108.092H144.359ZM133.941 106.574C136.218 106.376 138.146 105.433 138.234 104.045H134.434V103.184H138.289V101.926H139.342V103.184H143.238V104.045H139.41C139.485 105.433 141.406 106.376 143.703 106.574L143.348 107.422C141.345 107.196 139.554 106.465 138.822 105.234C138.077 106.465 136.286 107.196 134.297 107.422L133.941 106.574ZM134.516 111.154V110.279H142.992V114.107H141.912V111.154H134.516ZM160.027 111.633V112.549H148.898V111.633H160.027ZM149.883 104.072V103.184H158.961V104.072H157.033V108.324H158.934V109.199H149.91V108.324H151.811V104.072H149.883ZM152.877 108.324H155.98V104.072H152.877V108.324ZM172.127 111.701V112.604H160.998V111.701H166.002V109.404H162.393V105.658H169.666V103.744H162.365V102.855H170.719V106.533H163.459V108.516H171.006V109.404H167.055V111.701H172.127ZM182.682 103.252V104.469C182.682 106 182.682 107.729 182.23 110.375L181.137 110.266C181.629 107.777 181.629 105.959 181.629 104.469V104.141H174.301V103.252H182.682ZM173.098 112.316V111.428H184.172V112.316H173.098ZM195.52 101.967V109.213H194.494V105.945H192.785V109.049H191.787V102.199H192.785V105.057H194.494V101.967H195.52ZM185.73 103.635V102.76H190.338V106.068H186.797V107.818C188.396 107.812 189.627 107.736 191.062 107.449L191.186 108.324C189.606 108.618 188.314 108.666 186.551 108.666H185.758V105.234H189.312V103.635H185.73ZM187.494 113.943V109.787H195.52V113.943H187.494ZM188.547 113.068H194.467V110.662H188.547V113.068ZM208.371 108.365V109.24H197.297V108.365H208.371ZM198.527 104.797C198.527 103.272 200.195 102.377 202.834 102.391C205.445 102.377 207.12 103.272 207.127 104.797C207.12 106.308 205.445 107.217 202.834 107.217C200.195 107.217 198.527 106.308 198.527 104.797ZM198.732 113.848V110.307H199.812V112.945H207.141V113.848H198.732ZM199.635 104.797C199.628 105.761 200.872 106.342 202.834 106.342C204.782 106.342 206.026 105.761 206.033 104.797C206.026 103.847 204.782 103.252 202.834 103.252C200.872 103.252 199.628 103.847 199.635 104.797ZM223.328 101.953V114.107H222.289V101.953H223.328ZM213.061 107.203C213.067 104.619 214.093 102.985 215.672 102.979C216.711 102.985 217.511 103.689 217.948 104.906H219.883V102.213H220.908V113.492H219.883V109.5H217.948C217.518 110.724 216.711 111.435 215.672 111.428C214.093 111.435 213.067 109.787 213.061 107.203ZM214.059 107.203C214.052 109.172 214.674 110.416 215.672 110.402C216.663 110.416 217.299 109.172 217.299 107.203C217.299 105.228 216.663 103.99 215.672 103.99C214.674 103.99 214.052 105.228 214.059 107.203ZM218.174 105.795C218.256 106.226 218.297 106.697 218.297 107.203C218.297 107.702 218.256 108.174 218.181 108.598H219.883V105.795H218.174ZM236.084 108.092V108.967H225.01V108.092H236.084ZM225.666 106.574C227.942 106.376 229.87 105.433 229.959 104.045H226.158V103.184H230.014V101.926H231.066V103.184H234.963V104.045H231.135C231.21 105.433 233.131 106.376 235.428 106.574L235.072 107.422C233.069 107.196 231.278 106.465 230.547 105.234C229.802 106.465 228.011 107.196 226.021 107.422L225.666 106.574ZM226.24 111.154V110.279H234.717V114.107H233.637V111.154H226.24ZM247.186 101.953V108.174H246.105V106.902H242.865V106.055H246.105V104.592H243.043C242.284 106.506 240.397 107.798 237.697 108.447L237.314 107.559C240.295 106.868 242.024 105.419 242.229 103.457H237.93V102.568H243.412C243.412 102.972 243.371 103.361 243.296 103.73H246.105V101.953H247.186ZM239.311 109.596V108.721H247.186V111.688H240.404V113.109H247.596V113.998H239.338V110.867H246.105V109.596H239.311ZM255.949 103.307V103.936C255.942 104.899 255.942 106.506 255.594 108.762L254.514 108.666C254.849 106.629 254.876 105.152 254.869 104.182H249.77V103.307H255.949ZM249.086 110.539C249.886 110.532 250.774 110.525 251.711 110.505V106.779H252.764V110.471C254.11 110.423 255.491 110.334 256.756 110.184L256.811 110.99C254.254 111.387 251.396 111.441 249.223 111.428L249.086 110.539ZM257.521 114.107V101.953H258.588V107.039H260.557V107.969H258.588V114.107H257.521ZM264.973 102.746C266.839 102.76 268.206 103.908 268.213 105.604C268.206 107.128 267.099 108.208 265.52 108.413V110.478C266.654 110.43 267.796 110.348 268.855 110.211L268.924 111.018C266.347 111.455 263.476 111.482 261.336 111.469L261.158 110.566C262.136 110.56 263.264 110.553 264.439 110.519V108.413C262.826 108.222 261.726 107.135 261.732 105.604C261.726 103.908 263.072 102.76 264.973 102.746ZM262.785 105.604C262.771 106.745 263.694 107.538 264.973 107.531C266.23 107.538 267.146 106.745 267.16 105.604C267.146 104.462 266.23 103.683 264.973 103.676C263.694 103.683 262.771 104.462 262.785 105.604ZM269.635 114.107V101.953H270.701V106.971H272.684V107.9H270.701V114.107H269.635ZM283.061 103.676C283.054 105.303 285.221 106.684 287.34 106.998L286.943 107.846C285.05 107.524 283.197 106.513 282.459 105.05C281.721 106.513 279.868 107.524 278.002 107.846L277.578 106.998C279.69 106.684 281.851 105.303 281.857 103.676V103.594H277.961V102.719H286.943V103.594H283.061V103.676ZM276.922 109.773V108.885H287.996V109.773H282.965V114.107H281.912V109.773H276.922ZM300.15 111.646V112.549H289.021V111.646H291.783V108.372C290.744 107.832 290.115 106.957 290.115 105.85C290.115 103.97 291.961 102.732 294.559 102.719C297.156 102.732 299.002 103.97 299.002 105.85C299.002 106.937 298.394 107.798 297.389 108.338V111.646H300.15ZM291.154 105.85C291.147 107.21 292.562 108.119 294.559 108.119C296.534 108.119 297.963 107.21 297.963 105.85C297.963 104.489 296.534 103.594 294.559 103.607C292.562 103.594 291.147 104.489 291.154 105.85ZM292.836 111.646H296.309V108.755C295.782 108.892 295.194 108.967 294.559 108.967C293.937 108.967 293.355 108.898 292.836 108.762V111.646ZM311.156 101.967V110.854H310.09V101.967H311.156ZM301.408 105.795C301.401 104.045 302.775 102.821 304.594 102.814C306.412 102.821 307.772 104.045 307.779 105.795C307.772 107.565 306.412 108.796 304.594 108.789C302.775 108.796 301.401 107.565 301.408 105.795ZM302.461 105.795C302.447 107.005 303.363 107.846 304.594 107.846C305.804 107.846 306.727 107.005 306.727 105.795C306.727 104.605 305.804 103.758 304.594 103.758C303.363 103.758 302.447 104.605 302.461 105.795ZM303.309 113.848V109.951H304.375V112.945H311.539V113.848H303.309ZM317.336 105.686C317.322 107.634 318.73 109.78 320.494 110.621L319.879 111.469C318.512 110.799 317.356 109.363 316.81 107.716C316.249 109.5 315.032 111.072 313.672 111.77L313.016 110.922C314.766 110.067 316.27 107.757 316.283 105.686V104.1H313.453V103.211H320.07V104.1H317.336V105.686ZM321.561 114.107V101.953H322.627V106.875H324.664V107.791H322.627V114.107H321.561ZM339.949 108.393V109.268H335V111.646H333.934V109.268H328.82V108.393H339.949ZM330.242 113.848V110.525H331.309V112.945H338.705V113.848H330.242ZM330.311 107.203V102.35H331.377V103.908H337.393V102.35H338.459V107.203H330.311ZM331.377 106.328H337.393V104.729H331.377V106.328ZM345.076 103.908C345.069 105.583 346.32 107.128 348.084 107.736L347.496 108.598C346.149 108.099 345.09 107.066 344.57 105.768C344.058 107.203 342.964 108.324 341.535 108.885L340.947 107.996C342.793 107.347 344.01 105.74 344.023 103.867V102.582H345.076V103.908ZM342.834 110.676V109.814H351.01V114.107H349.93V110.676H342.834ZM347.223 105.412V104.51H349.93V101.953H351.01V109.145H349.93V105.412H347.223ZM358.57 102.172C361.271 102.172 362.856 102.917 362.863 104.264C362.856 105.645 361.271 106.39 358.57 106.396C355.856 106.39 354.264 105.645 354.264 104.264C354.264 102.917 355.856 102.172 358.57 102.172ZM353.033 108.092V107.217H364.107V108.092H353.033ZM354.373 109.965V109.145H362.686V111.865H355.467V113.123H363.055V113.971H354.4V111.072H361.633V109.965H354.373ZM355.385 104.264C355.371 105.111 356.554 105.576 358.57 105.576C360.587 105.576 361.763 105.111 361.77 104.264C361.763 103.464 360.587 102.985 358.57 102.979C356.554 102.985 355.371 103.464 355.385 104.264ZM52.5938 129.406V130.281H41.5059V129.406H46.5098V128.203H42.9824V123.309H51.2129V124.184H44.0625V125.318H50.8848V126.139H44.0625V127.342H51.2812V128.203H47.5762V129.406H52.5938ZM42.8594 133.139C42.8525 131.874 44.3633 131.184 47.0566 131.197C49.7227 131.184 51.2266 131.874 51.2402 133.139C51.2266 134.417 49.7227 135.08 47.0566 135.08C44.3633 135.08 42.8525 134.417 42.8594 133.139ZM43.9395 133.139C43.9258 133.877 45.0469 134.26 47.0566 134.246C49.0459 134.26 50.1533 133.877 50.1602 133.139C50.1533 132.414 49.0459 132.011 47.0566 132.004C45.0469 132.011 43.9258 132.414 43.9395 133.139ZM59.6895 125.059V125.934H53.5918V125.059H56.1211V123.322H57.1875V125.059H59.6895ZM54.0293 129.516C54.0293 127.902 55.1299 126.761 56.6406 126.754C58.1719 126.761 59.2656 127.902 59.2793 129.516C59.2656 131.149 58.1719 132.298 56.6406 132.305C55.1299 132.298 54.0293 131.149 54.0293 129.516ZM54.9863 129.516C54.9863 130.596 55.6768 131.368 56.6406 131.361C57.6113 131.368 58.3223 130.596 58.3223 129.516C58.3223 128.449 57.6113 127.67 56.6406 127.656C55.6768 127.67 54.9863 128.449 54.9863 129.516ZM60.3184 134.506V123.254H61.3301V128.08H62.9434V122.953H63.9688V135.107H62.9434V128.969H61.3301V134.506H60.3184ZM79.3086 122.967V131.949H78.2285V127.615H75.5352V126.713H78.2285V122.967H79.3086ZM69.4238 129.666C72.2197 128.743 74.168 126.993 74.4141 124.799H70.0391V123.896H75.5898C75.5762 127.021 73.3408 129.399 69.8887 130.527L69.4238 129.666ZM71.5703 134.848V131.033H72.6641V133.945H79.623V134.848H71.5703ZM90.834 122.953V126.125H92.666V127.014H90.834V130.254H89.7676V122.953H90.834ZM81.3457 129.393C84.2783 128.545 86.1514 126.856 86.3701 124.744H81.8789V123.855H87.5254C87.5186 126.952 85.3379 129.222 81.7969 130.268L81.3457 129.393ZM83.0137 132.729C83.0068 131.272 84.5723 130.384 86.9922 130.391C89.4326 130.384 90.9707 131.272 90.9707 132.729C90.9707 134.205 89.4326 135.08 86.9922 135.08C84.5723 135.08 83.0068 134.205 83.0137 132.729ZM84.0801 132.729C84.0664 133.645 85.208 134.226 86.9922 134.219C88.7764 134.226 89.9316 133.645 89.9316 132.729C89.9316 131.812 88.7764 131.245 86.9922 131.252C85.208 131.245 84.0664 131.812 84.0801 132.729ZM97.4375 123.555C99.2559 123.541 100.562 124.546 100.555 126.029C100.562 127.513 99.2559 128.524 97.4375 128.518C95.6191 128.524 94.3203 127.513 94.3203 126.029C94.3203 124.546 95.6191 123.541 97.4375 123.555ZM93.4043 129.557C95.6875 129.563 98.8115 129.516 101.512 129.119L101.58 129.926C100.418 130.138 99.2148 130.268 98.0391 130.343V134.738H96.9727V130.404C95.7354 130.459 94.5664 130.466 93.5547 130.473L93.4043 129.557ZM95.373 126.029C95.3594 126.979 96.2275 127.636 97.4375 127.629C98.6611 127.636 99.5361 126.979 99.5293 126.029C99.5361 125.086 98.6611 124.416 97.4375 124.43C96.2275 124.416 95.3594 125.086 95.373 126.029ZM102.4 135.121V122.967H103.453V135.121H102.4ZM115.607 122.953V130.322H114.527V127.547H112.463V126.658H114.527V122.953H115.607ZM105.545 125.113V124.238H108.566V122.844H109.619V124.238H112.641V125.113H105.545ZM106.27 127.902C106.27 126.631 107.438 125.742 109.086 125.742C110.74 125.742 111.902 126.631 111.916 127.902C111.902 129.215 110.74 130.076 109.086 130.076C107.438 130.076 106.27 129.215 106.27 127.902ZM107.295 127.902C107.295 128.709 108.026 129.242 109.086 129.256C110.146 129.242 110.877 128.709 110.877 127.902C110.877 127.123 110.146 126.576 109.086 126.576C108.026 126.576 107.295 127.123 107.295 127.902ZM107.664 134.943V130.979H115.607V134.943H107.664ZM108.73 134.068H114.555V131.84H108.73V134.068ZM128.76 132.646V133.549H117.631V132.646H120.393V129.372C119.354 128.832 118.725 127.957 118.725 126.85C118.725 124.97 120.57 123.732 123.168 123.719C125.766 123.732 127.611 124.97 127.611 126.85C127.611 127.937 127.003 128.798 125.998 129.338V132.646H128.76ZM119.764 126.85C119.757 128.21 121.172 129.119 123.168 129.119C125.144 129.119 126.572 128.21 126.572 126.85C126.572 125.489 125.144 124.594 123.168 124.607C121.172 124.594 119.757 125.489 119.764 126.85ZM121.445 132.646H124.918V129.755C124.392 129.892 123.804 129.967 123.168 129.967C122.546 129.967 121.965 129.898 121.445 129.762V132.646ZM139.766 122.967V131.854H138.699V122.967H139.766ZM130.018 126.795C130.011 125.045 131.385 123.821 133.203 123.814C135.021 123.821 136.382 125.045 136.389 126.795C136.382 128.565 135.021 129.796 133.203 129.789C131.385 129.796 130.011 128.565 130.018 126.795ZM131.07 126.795C131.057 128.005 131.973 128.846 133.203 128.846C134.413 128.846 135.336 128.005 135.336 126.795C135.336 125.605 134.413 124.758 133.203 124.758C131.973 124.758 131.057 125.605 131.07 126.795ZM131.918 134.848V130.951H132.984V133.945H140.148V134.848H131.918ZM147.367 123.172C150.067 123.172 151.653 123.917 151.66 125.264C151.653 126.645 150.067 127.39 147.367 127.396C144.653 127.39 143.061 126.645 143.061 125.264C143.061 123.917 144.653 123.172 147.367 123.172ZM141.83 129.092V128.217H152.904V129.092H141.83ZM143.17 130.965V130.145H151.482V132.865H144.264V134.123H151.852V134.971H143.197V132.072H150.43V130.965H143.17ZM144.182 125.264C144.168 126.111 145.351 126.576 147.367 126.576C149.384 126.576 150.56 126.111 150.566 125.264C150.56 124.464 149.384 123.985 147.367 123.979C145.351 123.985 144.168 124.464 144.182 125.264ZM163.773 124.156V132.059H158.154V124.156H163.773ZM159.207 131.184H162.721V125.018H159.207V131.184ZM166.385 135.135V122.953H167.465V135.135H166.385ZM179.578 122.953V135.135H178.512V122.953H179.578ZM170.227 124.977V124.088H175.887V128.408H171.348V131.279C173.364 131.286 175.162 131.19 177.336 130.842L177.445 131.744C175.21 132.093 173.364 132.182 171.266 132.182H170.254V127.533H174.807V124.977H170.227ZM194.645 122.967V126.645H196.463V127.547H194.645V131.115H193.564V122.967H194.645ZM185.102 129.871C186.072 129.871 187.207 129.871 188.396 129.837V128.941C186.981 128.812 186.065 128.162 186.072 127.15C186.065 126.043 187.207 125.359 188.916 125.359C190.639 125.359 191.76 126.043 191.773 127.15C191.76 128.155 190.871 128.805 189.463 128.941V129.796C190.598 129.741 191.746 129.646 192.812 129.488L192.908 130.268C190.27 130.732 187.364 130.753 185.225 130.746L185.102 129.871ZM185.402 124.895V124.074H188.396V122.857H189.463V124.074H192.443V124.895H185.402ZM186.592 132.578V131.717H194.645V135.107H193.564V132.578H186.592ZM187.098 127.15C187.091 127.786 187.795 128.217 188.916 128.203C190.037 128.217 190.748 127.786 190.748 127.15C190.748 126.508 190.037 126.111 188.916 126.125C187.795 126.111 187.091 126.508 187.098 127.15ZM207.291 122.967V131.854H206.225V122.967H207.291ZM197.543 126.795C197.536 125.045 198.91 123.821 200.729 123.814C202.547 123.821 203.907 125.045 203.914 126.795C203.907 128.565 202.547 129.796 200.729 129.789C198.91 129.796 197.536 128.565 197.543 126.795ZM198.596 126.795C198.582 128.005 199.498 128.846 200.729 128.846C201.938 128.846 202.861 128.005 202.861 126.795C202.861 125.605 201.938 124.758 200.729 124.758C199.498 124.758 198.582 125.605 198.596 126.795ZM199.443 134.848V130.951H200.51V133.945H207.674V134.848H199.443ZM218.762 122.953V127.971H220.799V128.859H218.762V135.107H217.695V122.953H218.762ZM209.287 125.797V124.908H212.418V123.104H213.484V124.908H216.52V125.797H209.287ZM209.984 129.598C209.978 127.957 211.235 126.809 212.965 126.809C214.681 126.809 215.932 127.957 215.945 129.598C215.932 131.245 214.681 132.387 212.965 132.387C211.235 132.387 209.978 131.245 209.984 129.598ZM211.01 129.598C211.003 130.705 211.83 131.484 212.965 131.471C214.086 131.484 214.906 130.705 214.92 129.598C214.906 128.497 214.086 127.704 212.965 127.711C211.83 127.704 211.003 128.497 211.01 129.598ZM231.203 124.184V125.4C231.189 126.891 231.189 128.559 230.752 131.006L229.658 130.883C230.116 128.559 230.116 126.856 230.123 125.4V125.072H222.631V124.184H231.203ZM221.455 133.385V132.496H225.803V128.148H226.855V132.496H232.529V133.385H221.455ZM247.486 122.953V135.107H246.447V122.953H247.486ZM237.219 128.203C237.226 125.619 238.251 123.985 239.83 123.979C240.869 123.985 241.669 124.689 242.106 125.906H244.041V123.213H245.066V134.492H244.041V130.5H242.106C241.676 131.724 240.869 132.435 239.83 132.428C238.251 132.435 237.226 130.787 237.219 128.203ZM238.217 128.203C238.21 130.172 238.832 131.416 239.83 131.402C240.821 131.416 241.457 130.172 241.457 128.203C241.457 126.228 240.821 124.99 239.83 124.99C238.832 124.99 238.21 126.228 238.217 128.203ZM242.332 126.795C242.414 127.226 242.455 127.697 242.455 128.203C242.455 128.702 242.414 129.174 242.339 129.598H244.041V126.795H242.332ZM254.773 130.596C257.269 130.596 258.779 131.416 258.779 132.838C258.779 134.273 257.269 135.094 254.773 135.107C252.271 135.094 250.747 134.273 250.74 132.838C250.747 131.416 252.271 130.596 254.773 130.596ZM249.688 129.324V123.719H250.74V125.578H254.281V123.719H255.348V129.324H249.688ZM250.74 128.449H254.281V126.426H250.74V128.449ZM251.82 132.838C251.807 133.713 252.941 134.232 254.773 134.232C256.612 134.232 257.733 133.713 257.74 132.838C257.733 131.97 256.612 131.457 254.773 131.443C252.941 131.457 251.807 131.97 251.82 132.838ZM257.604 130.268V122.953H258.67V126.016H260.502V126.932H258.67V130.268H257.604ZM270.674 122.953V127.971H272.711V128.859H270.674V135.107H269.607V122.953H270.674ZM261.199 125.797V124.908H264.33V123.104H265.396V124.908H268.432V125.797H261.199ZM261.896 129.598C261.89 127.957 263.147 126.809 264.877 126.809C266.593 126.809 267.844 127.957 267.857 129.598C267.844 131.245 266.593 132.387 264.877 132.387C263.147 132.387 261.89 131.245 261.896 129.598ZM262.922 129.598C262.915 130.705 263.742 131.484 264.877 131.471C265.998 131.484 266.818 130.705 266.832 129.598C266.818 128.497 265.998 127.704 264.877 127.711C263.742 127.704 262.915 128.497 262.922 129.598ZM283.416 122.953V135.107H282.336V122.953H283.416ZM273.518 131.949C276.806 130.391 278.487 128.06 278.727 125.154H274.078V124.279H279.82C279.807 127.772 278.18 130.869 274.105 132.824L273.518 131.949ZM292.986 123.555C294.805 123.541 296.11 124.546 296.104 126.029C296.11 127.513 294.805 128.524 292.986 128.518C291.168 128.524 289.869 127.513 289.869 126.029C289.869 124.546 291.168 123.541 292.986 123.555ZM288.953 129.557C291.236 129.563 294.36 129.516 297.061 129.119L297.129 129.926C295.967 130.138 294.764 130.268 293.588 130.343V134.738H292.521V130.404C291.284 130.459 290.115 130.466 289.104 130.473L288.953 129.557ZM290.922 126.029C290.908 126.979 291.776 127.636 292.986 127.629C294.21 127.636 295.085 126.979 295.078 126.029C295.085 125.086 294.21 124.416 292.986 124.43C291.776 124.416 290.908 125.086 290.922 126.029ZM297.949 135.121V122.967H299.002V135.121H297.949ZM310.582 122.967V126.973H312.414V127.875H310.582V132.072H309.516V122.967H310.582ZM301.107 125.332V124.457H304.197V122.967H305.264V124.457H308.354V125.332H301.107ZM301.805 128.271C301.798 126.891 302.974 126.002 304.73 126.002C306.467 126.002 307.643 126.891 307.656 128.271C307.643 129.639 306.467 130.521 304.73 130.514C302.974 130.521 301.798 129.639 301.805 128.271ZM302.83 128.271C302.823 129.126 303.582 129.68 304.73 129.666C305.865 129.68 306.631 129.126 306.645 128.271C306.631 127.403 305.865 126.843 304.73 126.85C303.582 126.843 302.823 127.403 302.83 128.271ZM302.98 134.848V131.348H304.033V133.945H311.143V134.848H302.98ZM326.359 123.473V127.574H322.764V129.133H327.768V130.008H316.693V129.133H321.697V127.574H318.129V123.473H326.359ZM317.924 132.141V131.279H326.4V135.107H325.32V132.141H317.924ZM319.182 126.713H325.293V124.334H319.182V126.713ZM333.018 125.195C333.018 126.774 334.234 128.285 336.012 128.9L335.451 129.748C334.084 129.256 333.024 128.237 332.505 126.986C331.979 128.381 330.851 129.502 329.408 130.035L328.848 129.188C330.639 128.545 331.938 126.925 331.938 125.209V124.676H329.189V123.801H335.738V124.676H333.018V125.195ZM330.693 131.771V130.883H338.869V135.107H337.789V131.771H330.693ZM335.355 127.041V126.139H337.789V122.953H338.869V130.24H337.789V127.041H335.355ZM346.43 123.746C348.966 123.753 350.873 125.079 350.873 127.082C350.873 129.105 348.966 130.432 346.43 130.418C343.894 130.432 341.986 129.105 341.986 127.082C341.986 125.079 343.894 123.753 346.43 123.746ZM340.893 133.494V132.592H352.021V133.494H340.893ZM343.012 127.082C342.998 128.559 344.468 129.543 346.43 129.543C348.378 129.543 349.834 128.559 349.834 127.082C349.834 125.626 348.378 124.614 346.43 124.621C344.468 124.614 342.998 125.626 343.012 127.082ZM364.121 132.701V133.604H352.992V132.701H357.996V130.404H354.387V126.658H361.66V124.744H354.359V123.855H362.713V127.533H355.453V129.516H363V130.404H359.049V132.701H364.121ZM51.8965 143.953V156.107H50.8438V149.75H49.1621V155.506H48.1367V144.281H49.1621V148.861H50.8438V143.953H51.8965ZM41.5332 152.744C44.3564 151.165 45.5186 148.943 45.7031 146.428H41.998V145.539H46.7559C46.7422 148.629 45.6553 151.548 42.1621 153.496L41.5332 152.744ZM55.1914 144.473V146.223H58.7324V144.473H59.7988V149.764H54.1387V144.473H55.1914ZM55.1914 148.889H58.7324V147.057H55.1914V148.889ZM55.3691 151.678V150.816H63.1211V153.756H56.4492V155.096H63.5723V155.971H55.3965V152.936H62.0547V151.678H55.3691ZM62.0547 150.242V143.953H63.1211V146.592H64.9531V147.494H63.1211V150.242H62.0547ZM72.9648 149.203V150.092H70.2988V152.484C71.4883 152.437 72.6846 152.354 73.8125 152.225L73.8945 153.031C71.2012 153.421 68.2617 153.476 65.9375 153.469L65.7871 152.566C66.8467 152.566 68.0225 152.56 69.2324 152.525V150.092H66.7168V145.115H72.9102V145.99H67.7695V149.203H72.9648ZM74.6191 156.135V143.953H75.6855V156.135H74.6191ZM82.002 152.102C81.9951 153.195 82.5762 154.337 83.7314 155.007C84.9004 154.275 85.4951 153.038 85.502 152.102V151.363H86.5547V152.102C86.5479 153.359 87.457 154.624 89.043 155.15L88.4824 155.957C87.2725 155.513 86.4248 154.665 86.0146 153.64C85.6318 154.631 84.8867 155.574 83.752 156.053C82.5898 155.602 81.8379 154.706 81.4688 153.681C81.0312 154.658 80.1973 155.513 79.0352 155.957L78.502 155.15C80.04 154.597 80.9629 153.277 80.9766 152.102V151.363H82.002V152.102ZM78.0234 147.494C78.0234 145.826 79.3496 144.644 81.168 144.65C82.7676 144.644 84.0186 145.607 84.2578 147.016H86.8145V143.953H87.8945V150.898H86.8145V147.904H84.2646C84.0596 149.354 82.7949 150.338 81.168 150.338C79.3496 150.338 78.0234 149.169 78.0234 147.494ZM79.0625 147.494C79.0488 148.622 79.9443 149.442 81.168 149.449C82.3643 149.442 83.2598 148.622 83.2598 147.494C83.2598 146.366 82.3643 145.553 81.168 145.566C79.9443 145.553 79.0488 146.366 79.0625 147.494ZM92.3926 151.254V152.676H98.4629V151.254H99.543V155.943H91.3262V151.254H92.3926ZM89.918 150.393V149.504H100.992V150.393H89.918ZM90.5469 147.781C92.7139 147.487 94.9082 146.209 94.9082 144.664V144.09H96.0156V144.664C96.0088 146.161 98.2236 147.508 100.363 147.781L99.9668 148.643C98.0869 148.362 96.2344 147.405 95.4619 146.045C94.6895 147.412 92.8301 148.362 90.957 148.643L90.5469 147.781ZM92.3926 155.082H98.4629V153.523H92.3926V155.082ZM112.039 143.953V156.107H110.973V143.953H112.039ZM102.811 152.977V145.156H103.863V152.047C105.723 152.033 107.637 151.89 109.674 151.459L109.824 152.375C107.664 152.826 105.743 152.977 103.795 152.977H102.811ZM123.523 143.953V148.766H125.561V149.668H123.523V156.135H122.457V143.953H123.523ZM114.65 153.086V145.143H120.324V146.031H115.717V152.184C117.918 152.177 119.47 152.081 121.281 151.746L121.418 152.676C119.511 153.018 117.918 153.086 115.607 153.086H114.65ZM127.502 155.082C127.023 155.075 126.613 154.679 126.627 154.193C126.613 153.715 127.023 153.318 127.502 153.318C127.987 153.318 128.384 153.715 128.377 154.193C128.384 154.679 127.987 155.075 127.502 155.082Z" fill="#555555"/>
<path d="M36.1191 182.523L35.2441 181.635L37.4043 179.44L35.2441 177.246L36.1191 176.357L38.2793 178.552L40.4395 176.357L41.3145 177.246L39.1543 179.44L41.3145 181.635L40.4395 182.523L38.2793 180.329L36.1191 182.523ZM34.5879 179.393C34.5879 178.976 34.8477 178.634 35.3672 178.641C35.8867 178.634 36.1465 178.976 36.1465 179.393C36.1465 179.816 35.8936 180.124 35.3672 180.117C34.8477 180.124 34.5879 179.816 34.5879 179.393ZM37.4453 182.332C37.4521 181.922 37.7119 181.594 38.2246 181.594C38.7305 181.594 39.0107 181.922 39.0039 182.332C39.0107 182.742 38.7305 183.07 38.2246 183.07C37.7119 183.07 37.4521 182.742 37.4453 182.332ZM37.4453 176.549C37.4521 176.132 37.7119 175.804 38.2246 175.797C38.7305 175.804 39.0107 176.132 39.0039 176.549C39.0107 176.952 38.7305 177.28 38.2246 177.287C37.7119 177.28 37.4521 176.952 37.4453 176.549ZM40.2891 179.393C40.2959 178.976 40.5762 178.634 41.082 178.641C41.5879 178.634 41.8682 178.976 41.875 179.393C41.8682 179.816 41.5879 180.124 41.082 180.117C40.5762 180.124 40.2959 179.816 40.2891 179.393ZM56.4629 172.953V179.27H55.4102V172.953H56.4629ZM46.6191 178.436C48.4307 177.834 49.7295 176.344 49.7363 174.676V174.539H46.8926V173.65H53.6191V174.539H50.8164V174.676C50.8232 176.255 52.1152 177.649 53.9473 178.189L53.4141 179.023C51.9785 178.572 50.8369 177.608 50.2969 176.364C49.7705 177.725 48.6084 178.784 47.125 179.283L46.6191 178.436ZM48.5742 180.705V179.857H56.4766V182.756H49.6543V184.109H56.9141V184.971H48.6016V181.949H55.4102V180.705H48.5742ZM68.0293 172.953V177.219H69.8477V178.121H68.0293V182.469H66.9492V172.953H68.0293ZM58.4863 180.186C59.4502 180.186 60.5918 180.172 61.7812 180.131V179.201C60.3662 179.071 59.4502 178.395 59.457 177.369C59.4502 176.2 60.5918 175.489 62.3008 175.496C64.0234 175.489 65.1445 176.2 65.1582 177.369C65.1445 178.388 64.2559 179.064 62.8477 179.201V180.083C63.9824 180.015 65.1377 179.912 66.1973 179.748L66.293 180.514C63.6885 181.006 60.7354 181.04 58.6094 181.061L58.4863 180.186ZM58.7871 174.963V174.156H61.7812V172.926H62.8477V174.156H65.8281V174.963H58.7871ZM60.3047 184.848V181.826H61.3848V183.945H68.4668V184.848H60.3047ZM60.4824 177.369C60.4756 178.032 61.1797 178.463 62.3008 178.463C63.4219 178.463 64.1328 178.032 64.1328 177.369C64.1328 176.679 63.4219 176.255 62.3008 176.262C61.1797 176.255 60.4756 176.679 60.4824 177.369ZM81.0586 172.953V185.107H80.0195V172.953H81.0586ZM70.791 178.203C70.7979 175.619 71.8232 173.985 73.4023 173.979C74.8789 173.985 75.877 175.407 76.0137 177.697H77.5859V173.213H78.6113V184.492H77.5859V178.586H76.0205C75.918 180.951 74.8994 182.435 73.4023 182.428C71.8232 182.435 70.7979 180.787 70.791 178.203ZM71.8027 178.203C71.7891 180.172 72.418 181.416 73.4023 181.402C74.3936 181.416 75.0225 180.172 75.0156 178.203C75.0225 176.228 74.3936 174.99 73.4023 174.99C72.418 174.99 71.7891 176.228 71.8027 178.203ZM96.6445 172.953V185.107H95.6191V178.736H93.8281V184.479H92.8438V173.227H93.8281V177.848H95.6191V172.953H96.6445ZM86.7051 182.1V174.443H91.2578V175.332H87.7715V181.184C89.4463 181.177 90.6016 181.115 91.9551 180.842L92.0508 181.744C90.5879 182.045 89.3506 182.093 87.4844 182.1H86.7051ZM107.855 172.967V176.973H109.688V177.875H107.855V182.072H106.789V172.967H107.855ZM98.3809 175.332V174.457H101.471V172.967H102.537V174.457H105.627V175.332H98.3809ZM99.0781 178.271C99.0713 176.891 100.247 176.002 102.004 176.002C103.74 176.002 104.916 176.891 104.93 178.271C104.916 179.639 103.74 180.521 102.004 180.514C100.247 180.521 99.0713 179.639 99.0781 178.271ZM100.104 178.271C100.097 179.126 100.855 179.68 102.004 179.666C103.139 179.68 103.904 179.126 103.918 178.271C103.904 177.403 103.139 176.843 102.004 176.85C100.855 176.843 100.097 177.403 100.104 178.271ZM100.254 184.848V181.348H101.307V183.945H108.416V184.848H100.254ZM124.043 172.953V180.199H122.963V177.014H120.516V176.125H122.963V172.953H124.043ZM114.021 179.229C115.826 178.579 117.111 176.932 117.111 175.195V174.744H114.363V173.842H120.912V174.744H118.191V175.182C118.191 176.768 119.408 178.278 121.186 178.887L120.625 179.748C119.265 179.256 118.205 178.23 117.679 176.979C117.159 178.401 116.031 179.536 114.582 180.09L114.021 179.229ZM115.936 182.838C115.929 181.409 117.48 180.575 120.01 180.582C122.532 180.575 124.084 181.409 124.084 182.838C124.084 184.273 122.532 185.094 120.01 185.107C117.48 185.094 115.929 184.273 115.936 182.838ZM117.002 182.838C116.995 183.72 118.144 184.253 120.01 184.246C121.869 184.253 123.018 183.72 123.018 182.838C123.018 181.949 121.869 181.416 120.01 181.416C118.144 181.416 116.995 181.949 117.002 182.838ZM135.555 172.967V176.645H137.373V177.547H135.555V181.115H134.475V172.967H135.555ZM126.012 179.871C126.982 179.871 128.117 179.871 129.307 179.837V178.941C127.892 178.812 126.976 178.162 126.982 177.15C126.976 176.043 128.117 175.359 129.826 175.359C131.549 175.359 132.67 176.043 132.684 177.15C132.67 178.155 131.781 178.805 130.373 178.941V179.796C131.508 179.741 132.656 179.646 133.723 179.488L133.818 180.268C131.18 180.732 128.274 180.753 126.135 180.746L126.012 179.871ZM126.312 174.895V174.074H129.307V172.857H130.373V174.074H133.354V174.895H126.312ZM127.502 182.578V181.717H135.555V185.107H134.475V182.578H127.502ZM128.008 177.15C128.001 177.786 128.705 178.217 129.826 178.203C130.947 178.217 131.658 177.786 131.658 177.15C131.658 176.508 130.947 176.111 129.826 176.125C128.705 176.111 128.001 176.508 128.008 177.15ZM147.668 172.967V176.973H149.5V177.875H147.668V182.072H146.602V172.967H147.668ZM138.193 175.332V174.457H141.283V172.967H142.35V174.457H145.439V175.332H138.193ZM138.891 178.271C138.884 176.891 140.06 176.002 141.816 176.002C143.553 176.002 144.729 176.891 144.742 178.271C144.729 179.639 143.553 180.521 141.816 180.514C140.06 180.521 138.884 179.639 138.891 178.271ZM139.916 178.271C139.909 179.126 140.668 179.68 141.816 179.666C142.951 179.68 143.717 179.126 143.73 178.271C143.717 177.403 142.951 176.843 141.816 176.85C140.668 176.843 139.909 177.403 139.916 178.271ZM140.066 184.848V181.348H141.119V183.945H148.229V184.848H140.066ZM158.154 175.564C158.161 177.205 159.453 178.682 161.271 179.256L160.725 180.117C159.31 179.632 158.188 178.634 157.635 177.355C157.108 178.736 155.967 179.83 154.518 180.363L153.957 179.502C155.782 178.866 157.067 177.287 157.074 175.564V174.854H154.23V173.979H160.957V174.854H158.154V175.564ZM155.967 184.848V181.033H157.033V183.945H164.197V184.848H155.967ZM162.748 181.881V172.967H163.814V181.881H162.748ZM175.381 172.953V176.576H177.227V177.479H175.381V181.758H174.314V172.953H175.381ZM166.453 179.598V174.006H171.867V174.908H167.52V178.695C169.96 178.702 171.348 178.627 172.975 178.299L173.111 179.188C171.402 179.516 169.953 179.598 167.396 179.598H166.453ZM167.779 184.848V180.869H168.832V183.945H175.941V184.848H167.779ZM184.719 174.307V174.936C184.712 175.899 184.712 177.506 184.363 179.762L183.283 179.666C183.618 177.629 183.646 176.152 183.639 175.182H178.539V174.307H184.719ZM177.855 181.539C178.655 181.532 179.544 181.525 180.48 181.505V177.779H181.533V181.471C182.88 181.423 184.261 181.334 185.525 181.184L185.58 181.99C183.023 182.387 180.166 182.441 177.992 182.428L177.855 181.539ZM186.291 185.107V172.953H187.357V178.039H189.326V178.969H187.357V185.107H186.291ZM203.613 172.953V185.107H202.533V172.953H203.613ZM193.838 181.922C195.643 181.102 197.023 179.051 197.023 176.918V175.947H194.166V175.072H197.01V173.186H198.076V175.072H200.906V175.947H198.076V176.918C198.076 178.955 199.498 180.924 201.33 181.703L200.729 182.537C199.32 181.915 198.138 180.603 197.57 178.996C197.023 180.691 195.848 182.093 194.439 182.756L193.838 181.922ZM216.82 182.701V183.604H205.691V182.701H208.822V180.391H207.086V176.645H214.359V174.744H207.059V173.855H215.412V177.533H208.152V179.502H215.699V180.391H213.799V182.701H216.82ZM209.875 182.701H212.746V180.391H209.875V182.701ZM227.621 176.645V177.506H219.295V173.404H220.361V176.645H227.621ZM217.777 180.035V179.16H228.906V180.035H217.777ZM219.227 184.807V181.279H220.293V183.918H227.689V184.807H219.227ZM237.383 173.842C239.29 173.849 240.644 175.011 240.65 176.699C240.644 178.395 239.29 179.55 237.383 179.557C235.462 179.55 234.095 178.395 234.102 176.699C234.095 175.011 235.462 173.849 237.383 173.842ZM233.473 181.539C235.715 181.546 238.812 181.525 241.498 181.129L241.58 181.922C238.798 182.441 235.811 182.455 233.623 182.455L233.473 181.539ZM235.154 176.699C235.147 177.834 236.084 178.613 237.383 178.613C238.668 178.613 239.604 177.834 239.598 176.699C239.604 175.571 238.668 174.785 237.383 174.785C236.084 174.785 235.147 175.571 235.154 176.699ZM242.305 185.135V172.953H243.371V185.135H242.305ZM256.633 182.701V183.604H245.504V182.701H248.635V180.391H246.898V176.645H254.172V174.744H246.871V173.855H255.225V177.533H247.965V179.502H255.512V180.391H253.611V182.701H256.633ZM249.688 182.701H252.559V180.391H249.688V182.701ZM261.979 175.564C261.985 177.205 263.277 178.682 265.096 179.256L264.549 180.117C263.134 179.632 262.013 178.634 261.459 177.355C260.933 178.736 259.791 179.83 258.342 180.363L257.781 179.502C259.606 178.866 260.892 177.287 260.898 175.564V174.854H258.055V173.979H264.781V174.854H261.979V175.564ZM259.791 184.848V181.033H260.857V183.945H268.021V184.848H259.791ZM266.572 181.881V172.967H267.639V181.881H266.572ZM276.443 174.307V174.936C276.437 175.899 276.437 177.506 276.088 179.762L275.008 179.666C275.343 177.629 275.37 176.152 275.363 175.182H270.264V174.307H276.443ZM269.58 181.539C270.38 181.532 271.269 181.525 272.205 181.505V177.779H273.258V181.471C274.604 181.423 275.985 181.334 277.25 181.184L277.305 181.99C274.748 182.387 271.891 182.441 269.717 182.428L269.58 181.539ZM278.016 185.107V172.953H279.082V178.039H281.051V178.969H279.082V185.107H278.016ZM289.377 174.922C289.377 176.576 290.635 178.094 292.398 178.695L291.811 179.543C290.471 179.051 289.411 178.046 288.878 176.774C288.358 178.217 287.271 179.331 285.85 179.885L285.275 179.023C287.094 178.347 288.317 176.72 288.324 174.84V173.582H289.377V174.922ZM286.889 182.865C286.896 181.478 288.42 180.664 290.922 180.664C293.417 180.664 294.928 181.478 294.928 182.865C294.928 184.28 293.417 185.08 290.922 185.08C288.42 185.08 286.896 184.28 286.889 182.865ZM287.969 182.865C287.955 183.727 289.09 184.226 290.922 184.232C292.761 184.226 293.882 183.727 293.889 182.865C293.882 182.038 292.761 181.525 290.922 181.525C289.09 181.525 287.955 182.038 287.969 182.865ZM293.752 180.35V172.953H294.818V176.125H296.65V177.027H294.818V180.35H293.752ZM301.395 173.842C303.302 173.849 304.655 175.011 304.662 176.699C304.655 178.395 303.302 179.55 301.395 179.557C299.474 179.55 298.106 178.395 298.113 176.699C298.106 175.011 299.474 173.849 301.395 173.842ZM297.484 181.539C299.727 181.546 302.823 181.525 305.51 181.129L305.592 181.922C302.81 182.441 299.822 182.455 297.635 182.455L297.484 181.539ZM299.166 176.699C299.159 177.834 300.096 178.613 301.395 178.613C302.68 178.613 303.616 177.834 303.609 176.699C303.616 175.571 302.68 174.785 301.395 174.785C300.096 174.785 299.159 175.571 299.166 176.699ZM306.316 185.135V172.953H307.383V185.135H306.316ZM318.922 172.953V177.971H320.959V178.859H318.922V185.107H317.855V172.953H318.922ZM309.447 175.797V174.908H312.578V173.104H313.645V174.908H316.68V175.797H309.447ZM310.145 179.598C310.138 177.957 311.396 176.809 313.125 176.809C314.841 176.809 316.092 177.957 316.105 179.598C316.092 181.245 314.841 182.387 313.125 182.387C311.396 182.387 310.138 181.245 310.145 179.598ZM311.17 179.598C311.163 180.705 311.99 181.484 313.125 181.471C314.246 181.484 315.066 180.705 315.08 179.598C315.066 178.497 314.246 177.704 313.125 177.711C311.99 177.704 311.163 178.497 311.17 179.598ZM325.936 176.221C325.929 178.442 327.439 180.671 329.23 181.484L328.574 182.332C327.187 181.662 325.99 180.22 325.409 178.49C324.849 180.322 323.652 181.86 322.23 182.578L321.547 181.676C323.358 180.849 324.855 178.524 324.869 176.221V174.006H325.936V176.221ZM330.557 185.135V172.953H331.637V185.135H330.557ZM343.764 172.953V185.107H342.684V172.953H343.764ZM333.865 181.949C337.153 180.391 338.835 178.06 339.074 175.154H334.426V174.279H340.168C340.154 177.772 338.527 180.869 334.453 182.824L333.865 181.949ZM43.8984 193.953V198.738H45.9355V199.668H43.8984V206.107H42.832V193.953H43.8984ZM34.998 203.195V194.992H36.0645V198.205H39.6191V194.992H40.6855V203.195H34.998ZM36.0645 202.293H39.6191V199.066H36.0645V202.293ZM56.0938 193.967V196.893H57.9395V197.809H56.0938V200.666H55.0273V193.967H56.0938ZM47.1113 195.457V194.568H52.6211V197.809H48.1914V199.49C50.3516 199.477 51.917 199.415 53.8105 199.066L53.9199 199.969C51.9717 200.304 50.3447 200.379 48.082 200.393H47.1387V196.961H51.5684V195.457H47.1113ZM48.4102 205.943V201.213H49.4766V202.703H55.0273V201.213H56.0938V205.943H48.4102ZM49.4766 205.068H55.0273V203.564H49.4766V205.068ZM68.7129 193.953V206.107H67.6465V193.953H68.7129ZM59.4844 202.977V195.156H60.5371V202.047C62.3965 202.033 64.3105 201.89 66.3477 201.459L66.498 202.375C64.3379 202.826 62.417 202.977 60.4688 202.977H59.4844ZM80.1973 193.953V198.766H82.2344V199.668H80.1973V206.135H79.1309V193.953H80.1973ZM71.3242 203.086V195.143H76.998V196.031H72.3906V202.184C74.5918 202.177 76.1436 202.081 77.9551 201.746L78.0918 202.676C76.1846 203.018 74.5918 203.086 72.2812 203.086H71.3242ZM84.1758 205.082C83.6973 205.075 83.2871 204.679 83.3008 204.193C83.2871 203.715 83.6973 203.318 84.1758 203.318C84.6611 203.318 85.0576 203.715 85.0508 204.193C85.0576 204.679 84.6611 205.075 84.1758 205.082Z" fill="#555555"/>
<g clip-path="url(#clip1_506_11133)">
<rect x="20" y="247" width="360" height="149" rx="4" fill="#FFF2F2"/>
<path d="M129.07 279.762V281.793H126.551V290.758H124.051V273.023H126.551V279.762H129.07ZM113.094 286.422V274.723H115.574V284.361C117.85 284.322 120.291 284.107 122.859 283.59L123.113 285.66C120.135 286.266 117.254 286.422 114.637 286.422H113.094ZM135.574 274.215C138.396 274.205 140.486 276.021 140.496 278.57C140.486 281.129 138.396 282.936 135.574 282.945C132.771 282.936 130.623 281.129 130.633 278.57C130.623 276.021 132.771 274.205 135.574 274.215ZM129.891 285.172C133.064 285.182 137.459 285.143 141.258 284.605L141.453 286.402C137.508 287.174 133.289 287.203 130.184 287.203L129.891 285.172ZM133.113 278.57C133.104 279.977 134.168 280.787 135.574 280.777C136.99 280.787 138.064 279.977 138.074 278.57C138.064 277.184 136.99 276.363 135.574 276.363C134.168 276.363 133.104 277.184 133.113 278.57ZM142.273 290.836V273.023H144.754V290.836H142.273ZM166.688 273.043V286.031H164.207V280.23H161.023V278.18H164.207V273.043H166.688ZM151.941 282.281C155.623 281.129 158.006 279 158.465 276.383H152.859V274.352H161.18C161.18 279.117 158.152 282.643 152.957 284.254L151.941 282.281ZM154.969 290.484V284.723H157.508V288.492H167.137V290.484H154.969ZM183.094 273.023V277.203H185.496V279.234H183.094V283.336H180.594V273.023H183.094ZM168.875 281.715C172.791 280.68 175.027 278.648 175.418 276.188H169.715V274.195H178.133C178.143 278.932 175.164 282.252 169.871 283.727L168.875 281.715ZM171.277 287.184C171.258 284.957 173.68 283.551 177.293 283.551C180.916 283.551 183.279 284.957 183.289 287.184C183.279 289.43 180.916 290.816 177.293 290.816C173.68 290.816 171.258 289.43 171.277 287.184ZM173.738 287.184C173.729 288.258 175.057 288.873 177.293 288.863C179.5 288.873 180.828 288.258 180.828 287.184C180.828 286.09 179.5 285.484 177.293 285.484C175.057 285.484 173.729 286.09 173.738 287.184ZM202.82 279.762V281.793H200.301V290.758H197.801V273.023H200.301V279.762H202.82ZM186.844 286.422V274.723H189.324V284.361C191.6 284.322 194.041 284.107 196.609 283.59L196.863 285.66C193.885 286.266 191.004 286.422 188.387 286.422H186.844ZM218.445 273.023V290.836H215.926V273.023H218.445ZM204.09 280.602C204.08 276.725 206.062 274.273 208.797 274.273C211.473 274.273 213.465 276.725 213.465 280.602C213.465 284.508 211.473 286.949 208.797 286.949C206.062 286.949 204.08 284.508 204.09 280.602ZM206.492 280.602C206.482 283.248 207.41 284.693 208.797 284.684C210.145 284.693 211.053 283.248 211.062 280.602C211.053 277.965 210.145 276.52 208.797 276.52C207.41 276.52 206.482 277.965 206.492 280.602ZM235.281 277.867V279.82H222.859V273.648H225.34V277.867H235.281ZM220.828 283.688V281.734H237.098V283.688H220.828ZM222.703 290.406V285.133H225.203V288.414H235.398V290.406H222.703ZM251.98 273.961V275.211H255.242V273.023H257.723V283.062H255.242V280.484H251.98V281.754H243.465V273.961H251.98ZM244.715 288.883C248.299 288.58 250.174 287.184 250.408 285.895H245.398V284.059H250.438V282.613H252.977V284.059H257.977V285.895H253.006C253.25 287.115 255.145 288.541 258.68 288.883L257.879 290.719C254.9 290.445 252.791 289.381 251.697 287.984C250.613 289.41 248.484 290.455 245.516 290.719L244.715 288.883ZM245.926 279.84H249.5V275.895H245.926V279.84ZM251.98 278.57H255.242V277.086H251.98V278.57ZM266.551 274.762C266.531 276.939 267.801 278.951 270.633 279.762L269.363 281.695C267.42 281.1 266.092 279.928 265.33 278.404C264.539 280.133 263.113 281.48 261.023 282.145L259.793 280.172C262.732 279.273 264.031 277.115 264.051 274.781V273.648H266.551V274.762ZM262.332 284.762V282.848H274.129V287.594H264.812V288.707H274.637V290.68H262.371V285.816H271.648V284.762H262.332ZM271.629 282.164V273.023H274.129V276.5H276.531V278.531H274.129V282.164H271.629ZM280.418 284.547C280.428 282.115 281.082 281.373 282.254 280.641C283.094 280.094 283.748 279.488 283.738 278.59C283.748 277.613 282.986 276.979 282.039 276.969C281.131 276.979 280.281 277.584 280.242 278.727H277.469C277.518 275.982 279.559 274.664 282.059 274.664C284.783 274.664 286.707 276.08 286.707 278.492C286.707 280.104 285.877 281.119 284.598 281.891C283.494 282.545 283.006 283.18 282.996 284.547V284.762H280.418V284.547ZM280.125 287.535C280.105 286.637 280.848 285.904 281.766 285.914C282.635 285.904 283.387 286.637 283.387 287.535C283.387 288.443 282.635 289.176 281.766 289.176C280.848 289.176 280.105 288.443 280.125 287.535Z" fill="#323142"/>
<ellipse opacity="0.1" cx="41.7857" cy="254.973" rx="50.5" ry="28.5" transform="rotate(-24.6621 41.7857 254.973)" fill="#EF403C"/>
<circle opacity="0.3" cx="63" cy="276" r="8" stroke="#EF403C" stroke-width="4"/>
<rect x="187" y="312" width="165" height="64" rx="32" fill="#D7031C"/>
<path d="M253.578 323.391V333.656H252.344V328.703H249.266V327.672H252.344V323.391H253.578ZM242.281 331.047C245.477 329.992 247.703 327.992 247.984 325.484H242.984V324.453H249.328C249.312 328.023 246.758 330.742 242.812 332.031L242.281 331.047ZM244.734 336.969V332.609H245.984V335.938H253.938V336.969H244.734ZM266.75 323.375V327H268.844V328.016H266.75V331.719H265.531V323.375H266.75ZM255.906 330.734C259.258 329.766 261.398 327.836 261.648 325.422H256.516V324.406H262.969C262.961 327.945 260.469 330.539 256.422 331.734L255.906 330.734ZM257.812 334.547C257.805 332.883 259.594 331.867 262.359 331.875C265.148 331.867 266.906 332.883 266.906 334.547C266.906 336.234 265.148 337.234 262.359 337.234C259.594 337.234 257.805 336.234 257.812 334.547ZM259.031 334.547C259.016 335.594 260.32 336.258 262.359 336.25C264.398 336.258 265.719 335.594 265.719 334.547C265.719 333.5 264.398 332.852 262.359 332.859C260.32 332.852 259.016 333.5 259.031 334.547ZM282.719 328.922V329.953H280.469V337.266H279.25V323.375H280.469V328.922H282.719ZM270.297 333.734V324.75H271.516V332.703C273.547 332.703 275.617 332.547 277.906 332.062L278.062 333.109C275.664 333.594 273.508 333.734 271.406 333.734H270.297ZM295 323.375V337.297H293.766V323.375H295ZM284.062 329.297C284.07 326.344 285.539 324.461 287.609 324.453C289.672 324.461 291.164 326.344 291.156 329.297C291.164 332.258 289.672 334.133 287.609 334.125C285.539 334.133 284.07 332.258 284.062 329.297ZM285.25 329.297C285.25 331.555 286.219 333.039 287.609 333.031C289.008 333.039 289.969 331.555 289.969 329.297C289.969 327.039 289.008 325.555 287.609 325.547C286.219 325.555 285.25 327.039 285.25 329.297Z" fill="white"/>
<path d="M253.222 363.213C252.204 363.213 251.282 363.023 250.456 362.643C249.636 362.263 248.985 361.736 248.504 361.063C248.023 360.389 247.77 359.627 247.744 358.776H250.464C250.494 359.192 250.636 359.566 250.889 359.901C251.143 360.23 251.472 360.488 251.877 360.675C252.287 360.858 252.735 360.949 253.222 360.949C253.794 360.949 254.308 360.822 254.764 360.569C255.22 360.311 255.574 359.956 255.827 359.506C256.086 359.05 256.215 358.536 256.215 357.963C256.215 357.376 256.081 356.852 255.812 356.391C255.549 355.925 255.179 355.563 254.703 355.305C254.232 355.046 253.7 354.917 253.108 354.917C251.882 354.917 251.031 355.36 250.555 356.247H247.972L248.899 347.442H258.091V349.782H251.209L250.738 353.914H250.874C251.188 353.565 251.614 353.281 252.151 353.064C252.687 352.846 253.27 352.737 253.898 352.737C254.85 352.737 255.708 352.96 256.473 353.405C257.238 353.846 257.838 354.459 258.273 355.244C258.709 356.024 258.927 356.905 258.927 357.887C258.927 358.91 258.684 359.827 258.197 360.637C257.716 361.448 257.043 362.081 256.177 362.537C255.316 362.987 254.331 363.213 253.222 363.213ZM266.8 363.213C265.782 363.213 264.86 363.023 264.035 362.643C263.214 362.263 262.563 361.736 262.082 361.063C261.601 360.389 261.348 359.627 261.323 358.776H264.042C264.073 359.192 264.214 359.566 264.468 359.901C264.721 360.23 265.05 360.488 265.455 360.675C265.865 360.858 266.314 360.949 266.8 360.949C267.372 360.949 267.886 360.822 268.342 360.569C268.798 360.311 269.152 359.956 269.405 359.506C269.664 359.05 269.793 358.536 269.793 357.963C269.793 357.376 269.659 356.852 269.39 356.391C269.127 355.925 268.757 355.563 268.281 355.305C267.81 355.046 267.278 354.917 266.686 354.917C265.46 354.917 264.609 355.36 264.133 356.247H261.55L262.477 347.442H271.669V349.782H264.787L264.316 353.914H264.452C264.766 353.565 265.192 353.281 265.729 353.064C266.265 352.846 266.848 352.737 267.476 352.737C268.428 352.737 269.286 352.96 270.051 353.405C270.816 353.846 271.416 354.459 271.852 355.244C272.287 356.024 272.505 356.905 272.505 357.887C272.505 358.91 272.262 359.827 271.776 360.637C271.294 361.448 270.621 362.081 269.755 362.537C268.894 362.987 267.909 363.213 266.8 363.213ZM280.279 350.587C280.279 351.676 280.411 352.732 280.674 353.755C280.938 354.773 281.345 355.71 281.897 356.566C282.454 357.416 283.156 358.105 284.002 358.632L282.68 360.47C281.834 359.964 281.117 359.285 280.53 358.434C279.947 357.578 279.487 356.596 279.147 355.487C278.788 356.692 278.291 357.763 277.658 358.7C277.025 359.632 276.266 360.366 275.379 360.903L273.906 359.133C274.812 358.581 275.569 357.86 276.177 356.968C276.785 356.077 277.235 355.094 277.529 354.021C277.823 352.942 277.97 351.833 277.97 350.693V347.214H280.279V350.587ZM281.912 352.182H284.685V345.831H286.926V363.972H284.685V354.15H281.912V352.182ZM288.673 345.497H290.968V364.899H288.673V345.497Z" fill="white"/>
<rect x="48" y="312" width="165" height="64" rx="32" fill="#44465C" fill-opacity="0.9"/>
<path d="M114.516 323.375V330.578H113.312V323.375H114.516ZM103.156 329.469C105.25 328.742 106.734 326.883 106.734 324.844V323.781H107.984V324.844C107.969 326.805 109.469 328.539 111.531 329.219L110.922 330.172C109.289 329.617 108 328.453 107.375 326.953C106.75 328.57 105.445 329.844 103.797 330.438L103.156 329.469ZM105.5 332.266V331.281H114.531V334.609H106.734V336.109H115.031V337.109H105.531V333.656H113.312V332.266H105.5ZM128.766 323.375V337.266H127.594V323.375H128.766ZM116.719 333.562C118.656 332.406 119.789 329.867 119.781 327.344V326.031H117.109V325.016H123.516V326.031H120.969V327.344C120.969 329.742 122.055 332.141 123.969 333.25L123.219 334.156C121.852 333.336 120.883 331.836 120.398 330.07C119.898 331.984 118.891 333.617 117.5 334.484L116.719 333.562ZM122.453 329.391V328.391H124.797V323.719H125.953V336.547H124.797V329.391H122.453ZM143.719 328.922V329.953H141.469V337.266H140.25V323.375H141.469V328.922H143.719ZM131.297 333.734V324.75H132.516V332.703C134.547 332.703 136.617 332.547 138.906 332.062L139.062 333.109C136.664 333.594 134.508 333.734 132.406 333.734H131.297ZM156 323.375V337.297H154.766V323.375H156ZM145.062 329.297C145.07 326.344 146.539 324.461 148.609 324.453C150.672 324.461 152.164 326.344 152.156 329.297C152.164 332.258 150.672 334.133 148.609 334.125C146.539 334.133 145.07 332.258 145.062 329.297ZM146.25 329.297C146.25 331.555 147.219 333.039 148.609 333.031C150.008 333.039 150.969 331.555 150.969 329.297C150.969 327.039 150.008 325.555 148.609 325.547C147.219 325.555 146.25 327.039 146.25 329.297Z" fill="white"/>
<path d="M114.155 363.213C113.056 363.213 112.049 362.972 111.132 362.491C110.215 362.005 109.473 361.202 108.906 360.083C108.339 358.959 108.055 357.485 108.055 355.662C108.055 353.904 108.308 352.392 108.815 351.126C109.321 349.86 110.043 348.895 110.98 348.232C111.917 347.564 113.021 347.229 114.292 347.229C115.269 347.229 116.146 347.419 116.921 347.799C117.7 348.179 118.328 348.703 118.804 349.372C119.286 350.035 119.584 350.787 119.701 351.628H116.936C116.789 351.02 116.485 350.539 116.024 350.184C115.563 349.83 114.986 349.653 114.292 349.653C113.548 349.653 112.912 349.865 112.385 350.291C111.859 350.711 111.458 351.316 111.185 352.106C110.912 352.896 110.772 353.838 110.767 354.932H110.927C111.317 354.259 111.864 353.732 112.568 353.352C113.277 352.972 114.059 352.782 114.915 352.782C115.837 352.782 116.672 353 117.422 353.436C118.176 353.871 118.769 354.474 119.2 355.244C119.635 356.014 119.853 356.882 119.853 357.849C119.853 358.872 119.615 359.792 119.139 360.607C118.668 361.417 117.999 362.055 117.133 362.521C116.267 362.982 115.275 363.213 114.155 363.213ZM111.079 357.933C111.079 358.475 111.21 358.976 111.474 359.437C111.737 359.898 112.099 360.265 112.56 360.539C113.026 360.812 113.545 360.949 114.117 360.949C114.685 360.949 115.199 360.815 115.659 360.546C116.12 360.278 116.482 359.913 116.746 359.452C117.009 358.986 117.141 358.475 117.141 357.918C117.141 357.366 117.012 356.862 116.753 356.406C116.495 355.95 116.138 355.591 115.682 355.327C115.232 355.059 114.723 354.925 114.155 354.925C113.588 354.925 113.069 355.061 112.598 355.335C112.132 355.608 111.762 355.976 111.489 356.436C111.22 356.897 111.084 357.396 111.079 357.933ZM127.956 363.296C126.71 363.296 125.639 362.98 124.742 362.347C123.846 361.709 123.16 360.787 122.684 359.581C122.213 358.371 121.977 356.923 121.977 355.236C121.977 353.555 122.215 352.114 122.691 350.914C123.167 349.713 123.853 348.799 124.75 348.171C125.646 347.543 126.715 347.229 127.956 347.229C129.191 347.229 130.257 347.546 131.154 348.179C132.05 348.807 132.736 349.721 133.213 350.921C133.694 352.122 133.934 353.56 133.934 355.236C133.934 356.928 133.696 358.379 133.22 359.589C132.744 360.794 132.058 361.714 131.161 362.347C130.27 362.98 129.202 363.296 127.956 363.296ZM124.795 355.236C124.795 356.467 124.922 357.508 125.175 358.358C125.428 359.204 125.791 359.845 126.262 360.28C126.738 360.711 127.302 360.926 127.956 360.926C128.609 360.926 129.171 360.711 129.642 360.28C130.113 359.845 130.475 359.204 130.728 358.358C130.982 357.508 131.108 356.467 131.108 355.236C131.108 354.016 130.979 352.983 130.721 352.137C130.468 351.286 130.106 350.645 129.635 350.215C129.164 349.779 128.604 349.561 127.956 349.561C127.302 349.561 126.74 349.779 126.269 350.215C125.798 350.645 125.434 351.286 125.175 352.137C124.922 352.983 124.795 354.016 124.795 355.236ZM141.687 350.587C141.687 351.676 141.819 352.732 142.082 353.755C142.346 354.773 142.753 355.71 143.305 356.566C143.863 357.416 144.564 358.105 145.41 358.632L144.088 360.47C143.242 359.964 142.526 359.285 141.938 358.434C141.356 357.578 140.895 356.596 140.555 355.487C140.196 356.692 139.7 357.763 139.067 358.7C138.433 359.632 137.674 360.366 136.788 360.903L135.314 359.133C136.22 358.581 136.977 357.86 137.585 356.968C138.193 356.077 138.644 355.094 138.937 354.021C139.231 352.942 139.378 351.833 139.378 350.693V347.214H141.687V350.587ZM143.321 352.182H146.093V345.831H148.334V363.972H146.093V354.15H143.321V352.182ZM150.082 345.497H152.376V364.899H150.082V345.497Z" fill="white"/>
</g>
<g clip-path="url(#clip2_506_11133)">
<path d="M31.766 435.579L31.7401 434.441C27.3114 434.43 25.3706 431.657 25.3533 429.408C25.3361 427.683 26.5224 425.854 28.4891 425.837C30.1477 425.823 30.977 427.133 30.977 427.133C30.977 427.133 31.6709 425.8 33.5109 425.782C34.8211 425.771 36.5863 426.874 36.6093 429.428C36.6294 431.829 34.8989 434.461 31.7689 435.579M30.9136 420C24.9041 420.052 19.9514 424.449 20.0004 430.119C20.0234 432.95 21.4833 435.841 24.0806 437.747L23.4068 441.009C36.0852 444.666 42.0487 435.449 41.9997 429.949C41.9536 424.343 37.0297 419.949 30.9136 420Z" fill="#EF403C"/>
<path d="M31.8704 439.927L31.7667 435.579C29.8547 436.261 27.4216 436.379 24.5421 435.536L24.0842 437.747C26.0624 439.198 28.6972 440.079 31.8704 439.927Z" fill="#850E11"/>
</g>
<path d="M65.3906 422.023V431.145H62.9102V422.023H65.3906ZM50.6055 429.367C53.3691 428.605 54.7363 426.74 54.9023 424.836H51.2695V422.844H61.0352V424.836H57.4805C57.6465 426.604 58.9941 428.342 61.7188 429.055L60.5273 430.969C58.4668 430.402 57.041 429.211 56.2402 427.688C55.4297 429.377 53.9258 430.715 51.7383 431.34L50.6055 429.367ZM53.4766 433.742V431.848H65.4102V436.594H55.957V437.766H65.8984V439.68H53.5156V434.816H62.9297V433.742H53.4766ZM82.0312 422.023V427.863H84.2969V429.914H82.0312V435.891H79.5312V422.023H82.0312ZM67.6172 432.238C68.8965 432.238 70.3809 432.229 71.9336 432.18V431.154C70 430.881 68.7988 429.924 68.8086 428.527C68.7988 426.77 70.5273 425.744 73.1641 425.754C75.7812 425.744 77.5098 426.77 77.5195 428.527C77.5098 429.914 76.3184 430.871 74.4141 431.154V432.062C75.8691 431.975 77.334 431.838 78.7109 431.633L78.8867 433.352C75.1465 434.074 70.9375 434.123 67.8711 434.152L67.6172 432.238ZM68.0859 425.246V423.469H71.9336V421.965H74.4141V423.469H78.2617V425.246H68.0859ZM70.1172 439.484V434.973H72.6172V437.492H82.6367V439.484H70.1172ZM71.1914 428.527C71.1816 429.191 71.8945 429.572 73.1641 429.562C74.4141 429.572 75.127 429.191 75.1367 428.527C75.127 427.775 74.4141 427.414 73.1641 427.414C71.8945 427.414 71.1816 427.775 71.1914 428.527ZM100.078 422.023V431.164H97.5977V429.387H94.3164V430.656H85.8594V422.785H88.3594V424.855H91.8555V422.785H94.3164V424.289H97.5977V422.023H100.078ZM88.2422 433.742V431.828H100.078V436.574H90.7617V437.648H100.605V439.602H88.2617V434.758H97.5977V433.742H88.2422ZM88.3594 428.703H91.8555V426.75H88.3594V428.703ZM94.3164 427.512H97.5977V426.145H94.3164V427.512ZM122.402 422.023V439.797H120.02V422.023H122.402ZM107.148 429.719C107.148 425.744 108.662 423.283 111.016 423.293C112.5 423.283 113.672 424.26 114.326 425.969H116.426V422.277H118.77V438.977H116.426V433.469H114.336C113.672 435.197 112.51 436.184 111.016 436.184C108.662 436.184 107.148 433.713 107.148 429.719ZM109.414 429.719C109.395 432.453 109.971 433.801 111.016 433.781C112.041 433.801 112.666 432.453 112.676 429.719C112.666 426.994 112.041 425.637 111.016 425.637C109.971 425.637 109.395 426.994 109.414 429.719ZM114.824 427.961C114.902 428.508 114.941 429.094 114.941 429.719C114.941 430.334 114.902 430.92 114.834 431.457H116.426V427.961H114.824ZM140.488 430.832V432.824H124.277V430.832H140.488ZM124.961 428.293C128.818 428.049 130.625 426.896 130.928 425.617H125.84V423.684H131.133V422.082H133.594V423.684H138.926V425.617H133.789C134.082 426.896 135.879 428.049 139.766 428.293L139.004 430.188C135.732 429.943 133.477 428.996 132.354 427.561C131.24 428.996 128.975 429.943 125.723 430.188L124.961 428.293ZM126.074 436.125V434.172H138.516V439.797H136.035V436.125H126.074Z" fill="#323142"/>
<path d="M28.5 495C28.5 476.498 43.4985 461.5 62 461.5H180C185.247 461.5 189.5 465.753 189.5 471V607C189.5 612.247 185.247 616.5 180 616.5H38C32.7533 616.5 28.5 612.247 28.5 607V495Z" fill="white"/>
<path d="M28.5 495C28.5 476.498 43.4985 461.5 62 461.5H180C185.247 461.5 189.5 465.753 189.5 471V607C189.5 612.247 185.247 616.5 180 616.5H38C32.7533 616.5 28.5 612.247 28.5 607V495Z" stroke="#DEDEDE"/>
<path d="M127.776 498.321C128.517 496.061 128.183 493.504 127.072 491.429C125.756 488.928 123.329 487.261 120.551 486.909C118.957 484.075 115.549 482.63 112.214 482.463C111.603 482.426 110.936 482.352 110.491 482.852C110.306 483.056 110.232 483.315 110.213 483.593C110.213 483.686 110.213 483.778 110.213 483.871V528.536C110.213 529.444 110.158 530.388 110.213 531.296C110.25 532 110.751 532.371 111.399 532.426C112.103 532.482 112.826 532.5 113.529 532.5C114.845 532.5 116.16 532.463 117.475 532.334C119.736 532.111 121.996 531.667 124.07 530.703C125.682 529.962 127.238 528.832 128.072 527.239C128.887 525.702 128.943 523.942 128.535 522.293C130.295 521.607 131.666 520.218 132.277 518.291C132.963 516.105 132.518 513.734 131.24 511.881C131.722 511.437 132.166 510.918 132.518 510.344C135.112 506.12 132.611 499.543 127.776 498.302V498.321ZM128.239 512.308C127.498 512.567 127.813 513.753 128.572 513.493C129.184 513.271 129.758 512.993 130.295 512.66C131.332 514.179 131.666 516.124 131.147 517.884C130.573 519.829 128.961 521.237 126.942 521.478C126.164 521.57 126.164 522.812 126.942 522.719C127.09 522.7 127.238 522.682 127.387 522.645C127.553 523.367 127.646 524.09 127.572 524.831C127.238 528.499 123.181 530.074 120.069 530.722C117.661 531.222 115.178 531.333 112.733 531.259C112.399 531.259 111.899 531.129 111.584 531.204C111.529 531.204 111.492 531.204 111.455 531.204C111.455 531.092 111.455 530.963 111.455 530.87V509.936C114.289 509.844 116.697 507.547 116.586 504.582C116.549 503.786 115.326 503.786 115.364 504.582C115.456 506.898 113.641 508.584 111.455 508.695V485.112C111.455 484.668 111.455 484.223 111.455 483.778C111.455 483.76 111.455 483.686 111.455 483.63C111.51 483.704 111.973 483.704 112.029 483.704C112.307 483.704 112.566 483.723 112.844 483.76C113.326 483.797 113.789 483.871 114.252 483.982C116.105 484.39 117.976 485.297 119.106 486.891C120.365 488.632 120.421 490.799 119.865 492.8C119.661 493.56 120.847 493.893 121.051 493.134C121.366 492.004 121.533 490.818 121.403 489.651C121.347 489.169 121.255 488.706 121.125 488.261C122.274 488.502 123.348 489.04 124.237 489.818C127.59 492.726 128.053 498.525 124.237 501.248C123.589 501.711 124.219 502.767 124.867 502.304C125.923 501.563 126.757 500.618 127.331 499.488C128.368 499.729 129.295 500.247 130.054 501.007C131.592 502.489 132.444 504.675 132.37 506.805C132.277 509.325 130.647 511.492 128.276 512.326L128.239 512.308Z" fill="#42465A"/>
<path d="M118.791 500.21C118.735 501.007 119.958 500.988 120.013 500.21C120.162 498.413 119.143 496.654 117.457 495.968C115.679 495.246 113.752 496.024 112.64 497.506C112.159 498.136 113.233 498.747 113.696 498.136C114.474 497.098 115.901 496.616 117.105 497.154C118.291 497.691 118.883 498.951 118.772 500.21H118.791Z" fill="#42465A"/>
<path d="M119.476 517.031C119.458 515.549 119.013 514.067 118.216 512.789C117.79 512.122 116.734 512.734 117.16 513.419C118.05 514.827 118.457 516.568 118.179 518.217C117.883 520.051 116.586 521.626 114.974 522.293C114.678 522.422 114.437 522.7 114.548 523.052C114.622 523.349 114.993 523.608 115.308 523.478C117.346 522.626 118.939 520.885 119.346 518.68C119.365 518.551 119.402 518.402 119.421 518.273C120.958 518.032 122.44 518.903 122.663 520.551C122.7 520.885 123.126 521.07 123.422 520.977C123.774 520.885 123.904 520.551 123.848 520.218C123.552 518.05 121.514 516.846 119.495 517.031H119.476Z" fill="#42465A"/>
<path d="M107.509 482.852C107.064 482.352 106.379 482.445 105.786 482.463C102.47 482.63 99.0425 484.075 97.4679 486.909C94.6705 487.261 92.2622 488.928 90.9469 491.429C89.8354 493.523 89.5019 496.061 90.2429 498.321C85.4078 499.562 82.9068 506.139 85.5004 510.362C85.8524 510.937 86.2785 511.455 86.7786 511.9C85.5004 513.753 85.0558 516.124 85.7412 518.31C86.334 520.218 87.7049 521.626 89.4834 522.311C89.0943 523.979 89.1314 525.72 89.9465 527.258C90.7987 528.851 92.3363 529.999 93.948 530.722C96.0229 531.667 98.283 532.111 100.543 532.352C101.858 532.482 103.174 532.537 104.489 532.519C105.193 532.519 105.915 532.482 106.619 532.445C107.268 532.389 107.768 532.019 107.805 531.315C107.861 530.407 107.805 529.462 107.805 528.555V483.871C107.805 483.778 107.805 483.686 107.805 483.593C107.805 483.315 107.712 483.056 107.527 482.852H107.509ZM106.545 509.955V530.889C106.545 531 106.545 531.111 106.545 531.222C106.527 531.222 106.471 531.222 106.416 531.222C106.101 531.148 105.601 531.259 105.267 531.278C102.822 531.352 100.339 531.241 97.931 530.741C94.8372 530.092 90.7802 528.517 90.4282 524.849C90.3541 524.108 90.4282 523.367 90.6134 522.663C90.7616 522.682 90.9098 522.719 91.058 522.738C91.8361 522.83 91.8361 521.607 91.058 521.496C89.0388 521.237 87.427 519.848 86.8528 517.902C86.334 516.142 86.6675 514.179 87.7049 512.678C88.2422 513.03 88.8165 513.308 89.4278 513.512C90.1688 513.771 90.5023 512.586 89.7613 512.326C87.39 511.493 85.7597 509.325 85.6671 506.806C85.593 504.675 86.4452 502.489 87.9828 501.007C88.7609 500.266 89.6686 499.747 90.7061 499.488C91.2803 500.618 92.1325 501.563 93.1699 502.304C93.8183 502.767 94.4297 501.693 93.7998 501.248C89.965 498.525 90.4282 492.726 93.7998 489.818C94.689 489.058 95.7635 488.521 96.9121 488.262C96.7824 488.706 96.6713 489.151 96.6342 489.651C96.5045 490.818 96.6713 492.004 96.9862 493.134C97.19 493.893 98.3941 493.578 98.1718 492.8C97.6161 490.781 97.6716 488.632 98.9314 486.891C100.061 485.297 101.933 484.408 103.785 483.982C104.248 483.871 104.711 483.797 105.193 483.76C105.471 483.741 105.73 483.723 106.008 483.704C106.064 483.704 106.527 483.704 106.582 483.63C106.582 483.686 106.582 483.76 106.582 483.778C106.582 484.223 106.582 484.668 106.582 485.112V508.714C104.396 508.603 102.599 506.917 102.674 504.601C102.711 503.804 101.469 503.804 101.451 504.601C101.34 507.565 103.748 509.862 106.582 509.955H106.545Z" fill="#42465A"/>
<path d="M104.285 498.136C104.748 498.765 105.823 498.136 105.341 497.506C104.23 496.024 102.303 495.246 100.525 495.968C98.8388 496.654 97.8199 498.413 97.9681 500.21C98.0237 500.988 99.2649 501.007 99.1908 500.21C99.0982 498.951 99.6724 497.691 100.858 497.154C102.062 496.616 103.489 497.098 104.267 498.136H104.285Z" fill="#42465A"/>
<path d="M99.8206 518.217C99.5427 516.55 99.9503 514.827 100.84 513.419C101.266 512.752 100.191 512.123 99.7836 512.789C98.987 514.049 98.5424 515.531 98.5238 517.032C96.5046 516.847 94.4668 518.069 94.1704 520.218C94.1333 520.552 94.2445 520.867 94.5964 520.978C94.8928 521.052 95.3004 520.885 95.356 520.552C95.5783 518.903 97.0789 518.032 98.5979 518.273C98.6165 518.403 98.635 518.551 98.672 518.681C99.0981 520.885 100.673 522.627 102.711 523.479C103.026 523.608 103.378 523.33 103.47 523.053C103.563 522.701 103.34 522.423 103.044 522.293C101.432 521.626 100.136 520.051 99.8392 518.217H99.8206Z" fill="#42465A"/>
<circle cx="99.6111" cy="503.389" r="6.5" fill="#F63D3B"/>
<circle cx="99.6111" cy="503.389" r="4.375" stroke="white"/>
<path d="M100.523 560.381H98.8103V546.271H100.523V560.381ZM88.7551 556.055C90.4457 556.048 91.7311 556.035 92.6114 556.017V553.243H89.7827V547.564H91.5451V551.84H97.2081V553.243H94.3628V555.956C95.7109 555.893 96.9061 555.797 97.9484 555.669L98.0479 556.956C96.8398 557.155 95.5838 557.291 94.2799 557.365C92.976 557.438 91.6151 557.475 90.197 557.475C89.6298 557.475 89.2118 557.473 88.9429 557.47L88.7551 556.055ZM109.837 552.215H115.423V553.591H102.556V552.215H108.114V550.768H109.837V552.215ZM103.147 550.221C103.979 550.151 104.723 550.013 105.379 549.807C106.034 549.597 106.565 549.339 106.97 549.033C107.375 548.727 107.635 548.396 107.749 548.039H103.732V546.669H114.268V548.039H110.219C110.329 548.4 110.585 548.733 110.986 549.039C111.392 549.341 111.922 549.597 112.578 549.807C113.233 550.013 113.981 550.151 114.821 550.221L114.268 551.536C113.406 551.462 112.62 551.311 111.909 551.083C111.202 550.855 110.6 550.56 110.103 550.199C109.605 549.838 109.233 549.425 108.986 548.961C108.743 549.425 108.373 549.838 107.876 550.199C107.379 550.56 106.777 550.855 106.069 551.083C105.366 551.311 104.585 551.462 103.727 551.536L103.147 550.221ZM104.069 554.459H113.821V557.945H105.788V558.939H114.207V560.265H104.086V556.707H112.108V555.746H104.069V554.459ZM129.251 554.149H123.671V555.348C124.514 555.403 125.236 555.536 125.837 555.746C126.437 555.952 126.896 556.234 127.212 556.591C127.533 556.945 127.693 557.365 127.693 557.851C127.693 558.385 127.496 558.84 127.102 559.215C126.711 559.595 126.15 559.882 125.417 560.077C124.684 560.273 123.811 560.37 122.798 560.37C121.774 560.37 120.894 560.273 120.157 560.077C119.421 559.882 118.857 559.595 118.467 559.215C118.076 558.84 117.881 558.385 117.881 557.851C117.881 557.365 118.041 556.943 118.362 556.586C118.682 556.228 119.146 555.945 119.754 555.735C120.362 555.525 121.093 555.394 121.947 555.343V554.149H116.384V552.746H129.251V554.149ZM117.002 550.735C117.846 550.657 118.597 550.499 119.257 550.26C119.916 550.017 120.444 549.724 120.842 549.381C121.244 549.035 121.494 548.667 121.594 548.276H117.56V546.89H128.096V548.276H124.03C124.126 548.67 124.373 549.041 124.77 549.387C125.168 549.729 125.699 550.02 126.362 550.26C127.025 550.499 127.787 550.657 128.649 550.735L128.036 552.105C127.188 552.02 126.417 551.856 125.721 551.613C125.025 551.366 124.428 551.055 123.931 550.68C123.433 550.3 123.058 549.871 122.804 549.392C122.549 549.871 122.176 550.3 121.682 550.68C121.192 551.055 120.599 551.366 119.903 551.613C119.211 551.856 118.441 552.02 117.594 552.105L117.002 550.735ZM119.649 557.851C119.642 558.238 119.909 558.534 120.45 558.74C120.995 558.947 121.778 559.048 122.798 559.044C123.811 559.048 124.588 558.947 125.13 558.74C125.675 558.534 125.951 558.238 125.958 557.851C125.955 557.457 125.682 557.158 125.141 556.956C124.599 556.753 123.818 556.648 122.798 556.641C121.767 556.648 120.982 556.753 120.444 556.956C119.91 557.158 119.645 557.457 119.649 557.851Z" fill="#323142"/>
<mask id="path-34-inside-2_506_11133" fill="white">
<path d="M28 581H190V617H28V581Z"/>
</mask>
<path d="M28 582H190V580H28V582Z" fill="#DEDEDE" mask="url(#path-34-inside-2_506_11133)"/>
<path d="M95.7109 592.953V605.107H94.6719V592.953H95.7109ZM85.4434 598.203C85.4502 595.619 86.4756 593.985 88.0547 593.979C89.0938 593.985 89.8936 594.689 90.3311 595.906H92.2656V593.213H93.291V604.492H92.2656V600.5H90.3311C89.9004 601.724 89.0938 602.435 88.0547 602.428C86.4756 602.435 85.4502 600.787 85.4434 598.203ZM86.4414 598.203C86.4346 600.172 87.0566 601.416 88.0547 601.402C89.0459 601.416 89.6816 600.172 89.6816 598.203C89.6816 596.228 89.0459 594.99 88.0547 594.99C87.0566 594.99 86.4346 596.228 86.4414 598.203ZM90.5566 596.795C90.6387 597.226 90.6797 597.697 90.6797 598.203C90.6797 598.702 90.6387 599.174 90.5635 599.598H92.2656V596.795H90.5566ZM108.467 599.092V599.967H97.3926V599.092H108.467ZM98.0488 597.574C100.325 597.376 102.253 596.433 102.342 595.045H98.541V594.184H102.396V592.926H103.449V594.184H107.346V595.045H103.518C103.593 596.433 105.514 597.376 107.811 597.574L107.455 598.422C105.452 598.196 103.661 597.465 102.93 596.234C102.185 597.465 100.394 598.196 98.4043 598.422L98.0488 597.574ZM98.623 602.154V601.279H107.1V605.107H106.02V602.154H98.623ZM118.898 592.953V597.971H120.936V598.859H118.898V605.107H117.832V592.953H118.898ZM109.424 595.797V594.908H112.555V593.104H113.621V594.908H116.656V595.797H109.424ZM110.121 599.598C110.114 597.957 111.372 596.809 113.102 596.809C114.817 596.809 116.068 597.957 116.082 599.598C116.068 601.245 114.817 602.387 113.102 602.387C111.372 602.387 110.114 601.245 110.121 599.598ZM111.146 599.598C111.14 600.705 111.967 601.484 113.102 601.471C114.223 601.484 115.043 600.705 115.057 599.598C115.043 598.497 114.223 597.704 113.102 597.711C111.967 597.704 111.14 598.497 111.146 599.598ZM131.641 592.953V605.107H130.561V592.953H131.641ZM121.742 601.949C125.03 600.391 126.712 598.06 126.951 595.154H122.303V594.279H128.045C128.031 597.772 126.404 600.869 122.33 602.824L121.742 601.949Z" fill="#222222"/>
<path d="M210.5 495C210.5 476.498 225.498 461.5 244 461.5H362C367.247 461.5 371.5 465.753 371.5 471V607C371.5 612.247 367.247 616.5 362 616.5H220C214.753 616.5 210.5 612.247 210.5 607V495Z" fill="white"/>
<path d="M210.5 495C210.5 476.498 225.498 461.5 244 461.5H362C367.247 461.5 371.5 465.753 371.5 471V607C371.5 612.247 367.247 616.5 362 616.5H220C214.753 616.5 210.5 612.247 210.5 607V495Z" stroke="#DEDEDE"/>
<path d="M290.278 529.371C287.157 529.371 282.758 528.792 279.604 526.012C276.774 523.54 275.273 519.397 275.12 513.702C274.813 501.715 282.775 491.314 288.777 484.528C289.528 483.676 291.011 483.676 291.778 484.528C297.78 491.314 305.743 501.732 305.436 513.719C305.282 519.414 303.782 523.557 300.969 526.029C297.814 528.809 293.415 529.388 290.295 529.388L290.278 529.371ZM290.278 485.381C290.278 485.381 290.056 485.398 289.937 485.534C284.088 492.133 276.364 502.227 276.671 513.668C276.808 518.919 278.138 522.688 280.627 524.853C283.423 527.308 287.43 527.82 290.295 527.82C293.159 527.82 297.166 527.308 299.963 524.853C302.452 522.67 303.782 518.902 303.918 513.651C304.208 502.21 296.484 492.116 290.653 485.517C290.534 485.381 290.38 485.364 290.295 485.364L290.278 485.381Z" fill="#42465A"/>
<path d="M290.278 524.392C290.278 524.392 290.21 524.392 290.158 524.392C280.422 522.977 279.638 513.684 279.638 513.599C279.604 513.173 279.928 512.815 280.354 512.78C280.798 512.729 281.139 513.07 281.173 513.497C281.19 513.838 281.889 521.647 290.38 522.892C290.806 522.96 291.096 523.335 291.028 523.761C290.977 524.136 290.653 524.426 290.278 524.426V524.392Z" fill="#42465A"/>
<path d="M298.275 503.881C299.724 503.881 301.327 503.557 302.452 502.585C303.782 501.425 304.14 499.447 304.174 497.759C304.293 493.292 301.514 489.234 298.65 486.011C298.445 485.79 298.087 485.79 297.899 486.011C295.035 489.251 292.256 493.292 292.375 497.759C292.426 499.447 292.767 501.408 294.097 502.585C295.223 503.574 296.825 503.881 298.275 503.881Z" fill="#F63D3B"/>
<path d="M296.723 501.732C296.723 501.732 296.672 501.732 296.655 501.732C295.308 501.562 294.626 500.487 294.592 500.436C294.421 500.163 294.506 499.805 294.779 499.635C295.052 499.464 295.41 499.55 295.58 499.822C295.597 499.856 296.024 500.47 296.808 500.573C297.132 500.607 297.354 500.897 297.32 501.221C297.286 501.51 297.03 501.732 296.74 501.732H296.723Z" fill="white"/>
<path d="M281.888 549.735H283.843V551.155H281.888V554.525H280.125V546.271H281.888V549.735ZM271.274 547.265H277.595V548.669H272.998V552.227C274.409 552.219 275.538 552.186 276.385 552.127C277.236 552.064 278.066 551.948 278.877 551.779L279.037 553.177C278.168 553.361 277.263 553.483 276.324 553.541C275.385 553.6 274.085 553.63 272.424 553.63H271.274V547.265ZM272.495 557.564C272.495 556.985 272.689 556.488 273.075 556.072C273.462 555.656 274.015 555.337 274.733 555.116C275.455 554.891 276.302 554.777 277.274 554.773C278.236 554.777 279.072 554.89 279.783 555.11C280.494 555.331 281.041 555.652 281.424 556.072C281.807 556.488 281.998 556.985 281.998 557.564C281.998 558.149 281.807 558.652 281.424 559.072C281.041 559.495 280.494 559.818 279.783 560.039C279.072 560.26 278.236 560.37 277.274 560.37C276.302 560.37 275.455 560.26 274.733 560.039C274.015 559.818 273.462 559.495 273.075 559.072C272.689 558.652 272.495 558.149 272.495 557.564ZM274.208 557.564C274.208 557.862 274.326 558.118 274.562 558.331C274.801 558.545 275.147 558.707 275.6 558.818C276.057 558.928 276.604 558.983 277.241 558.983C277.882 558.983 278.431 558.93 278.888 558.823C279.348 558.713 279.702 558.551 279.948 558.337C280.195 558.123 280.319 557.866 280.319 557.564C280.319 557.265 280.197 557.013 279.954 556.807C279.715 556.597 279.37 556.438 278.921 556.331C278.471 556.225 277.934 556.171 277.308 556.171C276.32 556.171 275.556 556.291 275.015 556.53C274.473 556.766 274.204 557.11 274.208 557.564ZM296.025 553.917H294.097V557.182H297.467V558.591H284.556V557.182H287.931V553.917H286.02V547.492H287.754V552.519H296.025V553.917ZM292.368 557.182V553.917H289.655V557.182H292.368ZM300.765 549.16H303.92V547.133H305.638V548.431H308.478V546.271H310.212V554.746H308.478V552.718H305.638V553.851H299.019V547.133H300.765V549.16ZM300.627 557.702C300.627 557.138 300.818 556.654 301.201 556.249C301.588 555.84 302.142 555.529 302.864 555.315C303.586 555.101 304.443 554.994 305.433 554.994C306.428 554.994 307.286 555.101 308.008 555.315C308.73 555.529 309.284 555.838 309.671 556.243C310.058 556.648 310.251 557.134 310.251 557.702C310.251 558.262 310.058 558.74 309.671 559.138C309.284 559.54 308.728 559.845 308.002 560.055C307.281 560.265 306.424 560.37 305.433 560.37C304.443 560.37 303.586 560.265 302.864 560.055C302.142 559.845 301.588 559.54 301.201 559.138C300.818 558.74 300.627 558.262 300.627 557.702ZM303.92 552.486V550.508H300.765V552.486H303.92ZM302.356 557.702C302.352 558.133 302.616 558.462 303.146 558.691C303.68 558.919 304.443 559.033 305.433 559.033C306.424 559.033 307.187 558.919 307.721 558.691C308.255 558.462 308.524 558.133 308.527 557.702C308.524 557.252 308.255 556.912 307.721 556.68C307.19 556.448 306.428 556.33 305.433 556.326C304.439 556.33 303.676 556.448 303.146 556.68C302.616 556.912 302.352 557.252 302.356 557.702ZM308.478 551.315V549.812H305.638V551.315H308.478Z" fill="#323142"/>
<mask id="path-43-inside-3_506_11133" fill="white">
<path d="M210 581H372V617H210V581Z"/>
</mask>
<path d="M210 582H372V580H210V582Z" fill="#DEDEDE" mask="url(#path-43-inside-3_506_11133)"/>
<path d="M277.711 592.953V605.107H276.672V592.953H277.711ZM267.443 598.203C267.45 595.619 268.476 593.985 270.055 593.979C271.094 593.985 271.894 594.689 272.331 595.906H274.266V593.213H275.291V604.492H274.266V600.5H272.331C271.9 601.724 271.094 602.435 270.055 602.428C268.476 602.435 267.45 600.787 267.443 598.203ZM268.441 598.203C268.435 600.172 269.057 601.416 270.055 601.402C271.046 601.416 271.682 600.172 271.682 598.203C271.682 596.228 271.046 594.99 270.055 594.99C269.057 594.99 268.435 596.228 268.441 598.203ZM272.557 596.795C272.639 597.226 272.68 597.697 272.68 598.203C272.68 598.702 272.639 599.174 272.563 599.598H274.266V596.795H272.557ZM290.467 599.092V599.967H279.393V599.092H290.467ZM280.049 597.574C282.325 597.376 284.253 596.433 284.342 595.045H280.541V594.184H284.396V592.926H285.449V594.184H289.346V595.045H285.518C285.593 596.433 287.514 597.376 289.811 597.574L289.455 598.422C287.452 598.196 285.661 597.465 284.93 596.234C284.185 597.465 282.394 598.196 280.404 598.422L280.049 597.574ZM280.623 602.154V601.279H289.1V605.107H288.02V602.154H280.623ZM300.898 592.953V597.971H302.936V598.859H300.898V605.107H299.832V592.953H300.898ZM291.424 595.797V594.908H294.555V593.104H295.621V594.908H298.656V595.797H291.424ZM292.121 599.598C292.114 597.957 293.372 596.809 295.102 596.809C296.817 596.809 298.068 597.957 298.082 599.598C298.068 601.245 296.817 602.387 295.102 602.387C293.372 602.387 292.114 601.245 292.121 599.598ZM293.146 599.598C293.14 600.705 293.967 601.484 295.102 601.471C296.223 601.484 297.043 600.705 297.057 599.598C297.043 598.497 296.223 597.704 295.102 597.711C293.967 597.704 293.14 598.497 293.146 599.598ZM313.641 592.953V605.107H312.561V592.953H313.641ZM303.742 601.949C307.03 600.391 308.712 598.06 308.951 595.154H304.303V594.279H310.045C310.031 597.772 308.404 600.869 304.33 602.824L303.742 601.949Z" fill="#222222"/>
<path d="M28.5 671C28.5 652.498 43.4985 637.5 62 637.5H180C185.247 637.5 189.5 641.753 189.5 647V783C189.5 788.247 185.247 792.5 180 792.5H38C32.7533 792.5 28.5 788.247 28.5 783V671Z" fill="white"/>
<path d="M28.5 671C28.5 652.498 43.4985 637.5 62 637.5H180C185.247 637.5 189.5 641.753 189.5 647V783C189.5 788.247 185.247 792.5 180 792.5H38C32.7533 792.5 28.5 788.247 28.5 783V671Z" stroke="#DEDEDE"/>
<path d="M121.188 667.837C116.265 657.991 109.282 657.932 105.555 658.775C101.475 659.697 98.6702 663.424 99.0429 667.465V667.602C99.2391 669.426 100.436 670.564 101.495 671.584C102.064 672.133 102.613 672.663 103.025 673.271C101.554 674.349 100.181 675.526 99.0037 676.978C96.1007 680.587 94.6689 684.981 94.5904 689.59C94.512 694.925 94.5904 700.28 94.5904 705.615C94.5904 707.067 96.8461 707.067 96.8461 705.615C96.8461 700.535 96.8461 695.474 96.8461 690.394C96.8461 686.275 97.7876 682.372 100.279 678.998C101.279 677.645 102.475 676.546 103.77 675.546C103.809 676.703 103.476 678.194 102.534 680.253C99.3764 687.177 99.0233 693.984 101.632 697.573C102.534 698.809 104.162 700.201 107.006 700.201C107.34 700.201 107.673 700.182 108.046 700.143C112.165 699.691 117.03 695.533 120.148 689.806C124.15 682.489 124.522 674.467 121.188 667.798V667.837ZM118.167 688.766C115.421 693.807 111.165 697.573 107.791 697.946C105.849 698.162 104.398 697.612 103.437 696.298C101.377 693.434 101.828 687.236 104.574 681.215C106.006 678.037 106.202 675.781 105.81 674.094C106.751 673.467 107.713 672.859 108.674 672.231C109.89 671.446 108.752 669.485 107.536 670.289C106.653 670.858 105.751 671.427 104.888 672.015C104.339 671.191 103.652 670.544 103.044 669.975C102.024 668.995 101.377 668.347 101.279 667.406V667.288C101.004 664.385 103.064 661.659 106.026 660.992C106.791 660.815 107.614 660.717 108.478 660.717C111.89 660.717 115.931 662.443 119.148 668.877C122.149 674.859 121.776 682.117 118.148 688.786L118.167 688.766Z" fill="#42465A" stroke="white" stroke-width="0.4"/>
<circle cx="112.611" cy="679.389" r="6.5" fill="#F63D3B"/>
<circle cx="112.611" cy="679.389" r="4.375" stroke="white"/>
<path d="M75.1565 730.166H68.4659V723.481H75.1565V730.166ZM70.0792 731.58H71.8084V734.707H79.6814V736.116H70.0792V731.58ZM73.4493 728.785V724.873H70.1786V728.785H73.4493ZM77.383 722.271H79.1289V726.409H81.1013V727.851H79.1289V732.586H77.383V722.271ZM86.9846 724.287C86.981 724.939 87.1043 725.556 87.3548 726.138C87.6053 726.72 87.9791 727.232 88.4763 727.674C88.9773 728.112 89.5868 728.446 90.3051 728.674L89.3714 730.033C88.6126 729.764 87.9625 729.381 87.4211 728.884C86.8797 728.387 86.4561 727.797 86.1504 727.116C85.8336 727.904 85.3787 728.587 84.7857 729.166C84.1964 729.74 83.4837 730.173 82.6476 730.464L81.7194 729.066C82.4782 728.816 83.1209 728.453 83.6476 727.978C84.1743 727.503 84.5703 726.956 84.8355 726.337C85.1007 725.715 85.2351 725.057 85.2388 724.365V723.033H86.9846V724.287ZM84.0565 733.669C84.0565 733.101 84.248 732.615 84.631 732.21C85.0178 731.801 85.5721 731.49 86.294 731.276C87.0159 731.059 87.8723 730.95 88.8631 730.95C89.8576 730.95 90.7158 731.059 91.4377 731.276C92.1596 731.49 92.7139 731.801 93.1007 732.21C93.4874 732.615 93.6808 733.101 93.6808 733.669C93.6808 734.236 93.4874 734.722 93.1007 735.127C92.7139 735.536 92.1596 735.845 91.4377 736.055C90.7158 736.265 89.8576 736.37 88.8631 736.37C87.8723 736.37 87.0159 736.265 86.294 736.055C85.5721 735.845 85.0178 735.536 84.631 735.127C84.248 734.722 84.0565 734.236 84.0565 733.669ZM85.7857 733.669C85.7821 733.952 85.8981 734.195 86.1338 734.398C86.3732 734.597 86.7213 734.748 87.178 734.851C87.6347 734.954 88.1854 735.006 88.8299 735.006C89.8281 735.006 90.5979 734.891 91.1393 734.663C91.6808 734.431 91.9533 734.099 91.957 733.669C91.9533 733.227 91.6845 732.89 91.1504 732.657C90.6163 732.422 89.8539 732.304 88.8631 732.304C87.8723 732.304 87.1099 732.422 86.5758 732.657C86.0454 732.89 85.7821 733.227 85.7857 733.669ZM89.0951 725H91.9073V722.271H93.6421V730.569H91.9073V726.425H89.0951V725ZM107.398 732.602H105.658V722.282H107.398V732.602ZM95.6525 729.271C96.3929 729.009 97.0227 728.63 97.542 728.133C98.0651 727.632 98.4573 727.063 98.7188 726.425C98.984 725.788 99.1166 725.127 99.1166 724.442V723.061H100.912V724.442C100.909 725.109 101.036 725.744 101.293 726.348C101.551 726.952 101.934 727.488 102.443 727.956C102.951 728.42 103.57 728.773 104.299 729.017L103.409 730.392C102.618 730.116 101.934 729.709 101.36 729.171C100.789 728.634 100.343 727.998 100.023 727.265C99.6986 728.057 99.2437 728.746 98.6581 729.331C98.0761 729.913 97.38 730.35 96.5697 730.641L95.6525 729.271ZM98.0559 731.613H99.8072V734.707H107.796V736.116H98.0559V731.613ZM114.536 724.818C114.536 725.403 114.661 725.961 114.912 726.492C115.162 727.018 115.536 727.488 116.033 727.901C116.534 728.309 117.142 728.622 117.856 728.84L117.033 730.204C116.256 729.961 115.586 729.602 115.022 729.127C114.462 728.648 114.022 728.083 113.702 727.431C113.381 728.19 112.924 728.847 112.331 729.403C111.738 729.956 111.026 730.372 110.193 730.652L109.309 729.276C110.046 729.037 110.676 728.689 111.199 728.232C111.722 727.775 112.116 727.254 112.381 726.669C112.65 726.079 112.786 725.466 112.79 724.829V724.652H109.796V723.249H117.464V724.652H114.536V724.818ZM111.238 733.674C111.238 733.118 111.429 732.639 111.812 732.238C112.195 731.836 112.746 731.53 113.464 731.32C114.182 731.107 115.033 731 116.017 731C116.989 731 117.829 731.107 118.536 731.32C119.247 731.53 119.792 731.836 120.171 732.238C120.551 732.635 120.74 733.114 120.74 733.674C120.74 734.238 120.551 734.722 120.171 735.127C119.792 735.532 119.247 735.84 118.536 736.05C117.829 736.263 116.989 736.37 116.017 736.37C115.037 736.37 114.186 736.263 113.464 736.05C112.746 735.84 112.195 735.532 111.812 735.127C111.429 734.722 111.238 734.238 111.238 733.674ZM112.972 733.674C112.969 734.105 113.228 734.435 113.751 734.663C114.274 734.891 115.018 735.006 115.983 735.006C116.967 735.006 117.72 734.893 118.243 734.669C118.77 734.44 119.033 734.109 119.033 733.674C119.033 733.247 118.773 732.923 118.254 732.702C117.735 732.477 116.989 732.365 116.017 732.365C115.041 732.365 114.287 732.477 113.757 732.702C113.23 732.926 112.969 733.25 112.972 733.674ZM118.867 722.271H120.613V725.657H122.586V727.083H120.613V730.691H118.867V722.271ZM135.033 729.541H133.314V722.271H135.033V729.541ZM123.408 728.276C124.123 728.066 124.736 727.762 125.248 727.365C125.764 726.963 126.16 726.505 126.436 725.989C126.716 725.473 126.869 724.934 126.894 724.37H123.861V722.972H131.635V724.37H128.668C128.694 724.901 128.843 725.407 129.115 725.89C129.392 726.372 129.784 726.799 130.292 727.171C130.804 727.54 131.414 727.82 132.121 728.011L131.287 729.354C130.476 729.122 129.775 728.768 129.182 728.293C128.592 727.814 128.136 727.249 127.812 726.597C127.487 727.319 127.018 727.945 126.403 728.475C125.791 729.006 125.058 729.398 124.204 729.652L123.408 728.276ZM125.679 730.144H135.055V733.779H127.414V734.917H135.48V736.265H125.723V732.519H133.325V731.47H125.679V730.144ZM148.319 727.006H150.225V728.442H148.319V733.293H146.579V722.271H148.319V727.006ZM136.999 730.475C138.273 730.475 139.459 730.459 140.557 730.425V729.525C140.034 729.459 139.579 729.331 139.192 729.144C138.809 728.956 138.514 728.716 138.308 728.425C138.102 728.131 138.001 727.796 138.004 727.42C138.001 726.967 138.139 726.575 138.419 726.243C138.702 725.912 139.1 725.659 139.612 725.486C140.128 725.313 140.726 725.227 141.408 725.227C142.093 725.227 142.691 725.313 143.203 725.486C143.715 725.659 144.111 725.912 144.391 726.243C144.675 726.575 144.818 726.967 144.822 727.42C144.818 727.792 144.713 728.123 144.507 728.414C144.301 728.705 144.008 728.947 143.629 729.138C143.253 729.326 142.807 729.455 142.292 729.525V730.343C143.629 730.262 144.815 730.144 145.85 729.989L145.977 731.199C145.06 731.372 144.093 731.505 143.076 731.597C142.06 731.685 141.106 731.744 140.214 731.773C139.327 731.803 138.317 731.823 137.187 731.834L136.999 730.475ZM137.363 723.497H140.557V722.227H142.292V723.497H145.474V724.762H137.363V723.497ZM139.026 732.558H140.772V734.707H148.816V736.116H139.026V732.558ZM139.667 727.42C139.66 727.726 139.811 727.965 140.12 728.138C140.43 728.308 140.859 728.392 141.408 728.392C141.953 728.392 142.38 728.308 142.689 728.138C142.999 727.965 143.153 727.726 143.153 727.42C143.153 727.092 143.001 726.842 142.695 726.669C142.389 726.492 141.96 726.401 141.408 726.398C140.851 726.401 140.421 726.492 140.115 726.669C139.813 726.842 139.664 727.092 139.667 727.42Z" fill="#323142"/>
<path d="M210.5 671C210.5 652.498 225.498 637.5 244 637.5H362C367.247 637.5 371.5 641.753 371.5 647V783C371.5 788.247 367.247 792.5 362 792.5H220C214.753 792.5 210.5 788.247 210.5 783V671Z" fill="white"/>
<path d="M210.5 671C210.5 652.498 225.498 637.5 244 637.5H362C367.247 637.5 371.5 641.753 371.5 647V783C371.5 788.247 367.247 792.5 362 792.5H220C214.753 792.5 210.5 788.247 210.5 783V671Z" stroke="#DEDEDE"/>
<path d="M311.218 687.618C310.96 680.733 307.431 670.555 299.663 669.156C301.105 667.65 302.632 666.251 304.182 664.896C304.526 664.616 304.526 664.078 304.332 663.712C303.493 662.12 302.675 660.527 301.836 658.914C301.621 658.505 301.148 658.397 300.739 658.462C295.747 659.43 291.637 662.873 288.495 667.069C288.409 667.069 288.301 667.047 288.194 667.069C285.805 667.327 283.503 668.317 281.523 669.78C279.436 668.188 278.08 665.39 277.134 663.002C276.919 662.421 276.294 662.077 275.714 662.421C274.229 663.282 272.744 664.142 271.259 665.003C270.894 665.218 270.7 665.692 270.807 666.101C271.819 669.866 273.755 673.524 276.359 676.451C273.217 683.896 275.089 692.589 281.007 698.119C286.128 702.918 294.305 706.941 301.513 706.511C309.884 705.995 311.455 694.074 311.196 687.618H311.218ZM272.895 666.316C273.841 665.756 274.788 665.218 275.714 664.659C276.725 667.026 278.059 669.414 279.996 671.05C278.898 672.083 277.973 673.288 277.263 674.557C275.283 672.147 273.777 669.285 272.895 666.294V666.316ZM307.883 697.969C306.914 700.852 305.193 704.166 301.836 704.553C295.747 705.242 288.624 701.799 283.998 698.141C277.521 693.041 275.003 685.036 278.167 677.182L278.21 677.096C278.425 676.903 278.575 676.623 278.575 676.322C280.275 672.943 283.675 670.081 287.032 669.242C285.59 671.502 284.385 673.912 283.46 676.192C282.987 677.354 284.88 677.849 285.332 676.709C287.957 670.189 293.208 662.421 300.481 660.549C301.083 661.689 301.686 662.851 302.288 663.992C299.921 666.058 297.576 668.274 295.682 670.791C294.778 671.975 293.875 673.266 294.09 674.815C294.456 677.44 297.167 678.947 297.425 681.615C297.554 682.841 299.491 682.863 299.362 681.615C299.146 679.291 297.812 678 296.672 676.085C295.402 673.933 296.5 672.728 297.941 671.028C297.963 671.007 297.984 670.964 298.006 670.942C304.569 671.136 308.205 679.097 309.002 684.627C309.626 689.039 309.303 693.729 307.883 697.947V697.969Z" fill="#42465A" stroke="white" stroke-width="0.3" stroke-linejoin="round"/>
<circle cx="298.944" cy="692.389" r="6.5" fill="#F63D3B"/>
<circle cx="298.944" cy="692.389" r="4.375" stroke="white"/>
<path d="M275.57 730.265H273.83V722.282H275.57V730.265ZM263.813 728.608C264.554 728.372 265.185 728.028 265.708 727.575C266.231 727.118 266.626 726.597 266.891 726.011C267.156 725.425 267.289 724.816 267.289 724.182V722.807H269.084V724.182C269.08 724.79 269.209 725.37 269.471 725.923C269.736 726.475 270.125 726.965 270.637 727.392C271.149 727.82 271.765 728.149 272.487 728.381L271.631 729.713C270.832 729.462 270.141 729.088 269.559 728.591C268.977 728.09 268.522 727.495 268.195 726.807C267.87 727.551 267.41 728.197 266.813 728.746C266.217 729.295 265.504 729.705 264.675 729.978L263.813 728.608ZM266.206 730.967H275.57V736.215H266.206V730.967ZM273.869 734.812V732.348H267.918V734.812H273.869ZM288.973 724.249C288.973 725.07 288.953 725.803 288.912 726.448C288.875 727.092 288.783 727.81 288.636 728.602H290.553V730.006H277.641V728.602H286.879C287.03 727.836 287.128 727.142 287.172 726.519C287.216 725.893 287.238 725.214 287.238 724.481H279.238V723.083H288.973V724.249ZM279.304 731.354H281.023V734.691H289.382V736.099H279.304V731.354ZM303.298 730.53H301.564V728.972H298.199V727.569H301.564V726.039H298.337C297.895 727.158 297.166 728.11 296.149 728.895C295.133 729.68 293.851 730.287 292.304 730.718L291.613 729.348C293.238 728.906 294.497 728.284 295.392 727.481C296.291 726.678 296.81 725.742 296.95 724.674H292.359V723.26H298.84C298.84 723.746 298.801 724.214 298.724 724.663H301.564V722.282H303.298V730.53ZM293.834 733.492C293.834 732.921 294.031 732.425 294.425 732.006C294.82 731.582 295.378 731.258 296.099 731.033C296.821 730.805 297.663 730.691 298.624 730.691C299.575 730.691 300.409 730.805 301.127 731.033C301.845 731.258 302.401 731.582 302.796 732.006C303.193 732.425 303.392 732.921 303.392 733.492C303.392 734.066 303.193 734.567 302.796 734.994C302.401 735.418 301.843 735.744 301.122 735.972C300.403 736.201 299.571 736.315 298.624 736.315C297.667 736.315 296.825 736.201 296.099 735.972C295.378 735.744 294.82 735.418 294.425 734.994C294.031 734.567 293.834 734.066 293.834 733.492ZM295.569 733.492C295.569 733.801 295.691 734.064 295.934 734.282C296.177 734.495 296.527 734.657 296.983 734.768C297.444 734.878 297.991 734.934 298.624 734.934C299.247 734.934 299.785 734.878 300.238 734.768C300.691 734.657 301.039 734.494 301.282 734.276C301.529 734.059 301.654 733.797 301.657 733.492C301.654 733.182 301.529 732.921 301.282 732.707C301.039 732.49 300.691 732.326 300.238 732.215C299.785 732.105 299.247 732.052 298.624 732.055C297.991 732.052 297.444 732.105 296.983 732.215C296.527 732.326 296.177 732.49 295.934 732.707C295.691 732.921 295.569 733.182 295.569 733.492ZM309.712 724.823C309.708 725.365 309.808 725.886 310.01 726.387C310.213 726.888 310.519 727.339 310.928 727.74C311.336 728.142 311.839 728.462 312.436 728.702L311.508 730.033C310.9 729.786 310.375 729.446 309.933 729.011C309.491 728.573 309.139 728.063 308.878 727.481C308.609 728.14 308.241 728.722 307.773 729.227C307.305 729.731 306.747 730.122 306.099 730.398L305.165 729.055C305.791 728.783 306.318 728.42 306.745 727.967C307.176 727.51 307.497 727.011 307.707 726.47C307.917 725.924 308.021 725.376 308.021 724.823V723.105H309.712V724.823ZM307.701 731.497H317.375V736.381H315.646V732.895H307.701V731.497ZM312.696 722.519H314.309V725.801H315.723V722.282H317.375V730.823H315.723V727.227H314.309V730.746H312.696V722.519Z" fill="#323142"/>
</g>
<defs>
<clipPath id="clip0_506_11133">
<rect width="400" height="727" fill="white"/>
</clipPath>
<clipPath id="clip1_506_11133">
<rect x="20" y="247" width="360" height="149" rx="4" fill="white"/>
</clipPath>
<clipPath id="clip2_506_11133">
<rect width="22" height="22" fill="white" transform="translate(20 420)"/>
</clipPath>
</defs>
</svg>
