<svg width="360" height="209" viewBox="0 0 360 209" fill="none" xmlns="http://www.w3.org/2000/svg">
<path d="M80.7604 25.4103H78.3453V8.873H80.7604V25.4103ZM62.3467 16.0463C62.3467 14.969 62.6101 14.0024 63.1368 13.1465C63.6695 12.2906 64.3967 11.6232 65.3184 11.1444C66.2461 10.6596 67.2756 10.4172 68.4068 10.4172C69.538 10.4172 70.5645 10.6596 71.4862 11.1444C72.408 11.6232 73.1322 12.2906 73.6589 13.1465C74.1856 14.0024 74.4489 14.969 74.4489 16.0463C74.4489 17.1416 74.1856 18.1202 73.6589 18.9821C73.1322 19.838 72.408 20.5054 71.4862 20.9842C70.5645 21.463 69.538 21.7024 68.4068 21.7024C67.2696 21.7024 66.2401 21.463 65.3184 20.9842C64.3967 20.5054 63.6695 19.838 63.1368 18.9821C62.6101 18.1202 62.3467 17.1416 62.3467 16.0463ZM64.7079 16.0463C64.7019 16.7466 64.8575 17.3661 65.1748 17.9048C65.498 18.4434 65.9409 18.8624 66.5035 19.1617C67.0661 19.455 67.7005 19.6016 68.4068 19.6016C69.1011 19.6016 69.7266 19.455 70.2832 19.1617C70.8458 18.8624 71.2857 18.4434 71.6029 17.9048C71.9261 17.3661 72.0877 16.7466 72.0877 16.0463C72.0877 15.358 71.9261 14.7475 71.6029 14.2148C71.2857 13.6762 70.8458 13.2602 70.2832 12.9669C69.7206 12.6677 69.0951 12.518 68.4068 12.518C67.7065 12.518 67.0721 12.6677 66.5035 12.9669C65.9409 13.2602 65.498 13.6762 65.1748 14.2148C64.8575 14.7475 64.7019 15.358 64.7079 16.0463ZM65.875 23.7314H68.2991V29.1631H81.4248V31.1382H65.875V23.7314ZM105.098 21.5318H84.3595V19.5657H105.098V21.5318ZM85.4459 16.4773C86.8105 16.3276 88.0584 16.0374 89.1897 15.6064C90.3209 15.1755 91.2306 14.6428 91.9189 14.0084C92.6132 13.3739 93.0083 12.6916 93.104 11.9614H86.2539V9.97728H103.231V11.9614H96.345C96.4348 12.6856 96.8239 13.3649 97.5122 13.9994C98.2005 14.6338 99.1132 15.1695 100.25 15.6064C101.388 16.0374 102.651 16.3276 104.039 16.4773L103.168 18.3716C101.851 18.222 100.628 17.9437 99.4963 17.5367C98.3651 17.1297 97.3865 16.6119 96.5605 15.9835C95.7345 15.355 95.1181 14.6428 94.7111 13.8468C94.3041 14.6428 93.6906 15.355 92.8706 15.9835C92.0506 16.6119 91.075 17.1297 89.9438 17.5367C88.8186 17.9437 87.5976 18.222 86.2808 18.3716L85.4459 16.4773ZM86.8105 27.4393C86.8105 26.5654 87.1247 25.8173 87.7532 25.1948C88.3816 24.5724 89.2854 24.0995 90.4645 23.7763C91.6496 23.4471 93.0621 23.2825 94.7021 23.2825C96.3301 23.2825 97.7306 23.4471 98.9037 23.7763C100.083 24.0995 100.987 24.5724 101.615 25.1948C102.244 25.8173 102.561 26.5654 102.567 27.4393C102.561 28.3131 102.244 29.0583 101.615 29.6748C100.993 30.2973 100.092 30.7671 98.9127 31.0843C97.7396 31.4075 96.3361 31.5691 94.7021 31.5691C93.0621 31.5691 91.6496 31.4075 90.4645 31.0843C89.2854 30.7671 88.3816 30.2973 87.7532 29.6748C87.1247 29.0583 86.8105 28.3131 86.8105 27.4393ZM89.2615 27.4393C89.2555 28.1575 89.7223 28.7082 90.662 29.0912C91.6077 29.4743 92.9544 29.6658 94.7021 29.6658C96.4318 29.6658 97.7725 29.4743 98.7242 29.0912C99.6758 28.7082 100.155 28.1575 100.161 27.4393C100.155 26.7151 99.6758 26.1585 98.7242 25.7694C97.7725 25.3804 96.4318 25.1799 94.7021 25.1679C92.9544 25.1799 91.6077 25.3804 90.662 25.7694C89.7223 26.1585 89.2555 26.7151 89.2615 27.4393ZM125.675 31.6499H123.251V8.85504H125.675V31.6499ZM107.611 18.5422C107.611 16.9441 107.86 15.5436 108.356 14.3405C108.859 13.1315 109.557 12.2008 110.448 11.5484C111.34 10.89 112.355 10.5608 113.492 10.5608C114.623 10.5608 115.632 10.89 116.517 11.5484C117.409 12.2068 118.106 13.1405 118.609 14.3495C119.112 15.5526 119.363 16.9501 119.363 18.5422C119.363 20.1463 119.112 21.5528 118.609 22.7618C118.106 23.9708 117.409 24.9045 116.517 25.5629C115.632 26.2153 114.623 26.5415 113.492 26.5415C112.355 26.5415 111.34 26.2153 110.448 25.5629C109.557 24.9045 108.859 23.9708 108.356 22.7618C107.86 21.5528 107.611 20.1463 107.611 18.5422ZM109.937 18.5422C109.937 19.7273 110.086 20.7597 110.385 21.6396C110.685 22.5194 111.101 23.1957 111.633 23.6686C112.172 24.1414 112.792 24.3778 113.492 24.3778C114.192 24.3778 114.809 24.1414 115.341 23.6686C115.874 23.1957 116.287 22.5194 116.58 21.6396C116.88 20.7597 117.029 19.7273 117.029 18.5422C117.029 17.3631 116.88 16.3366 116.58 15.4628C116.287 14.5829 115.874 13.9066 115.341 13.4338C114.809 12.9609 114.192 12.7215 113.492 12.7155C112.792 12.7215 112.172 12.9639 111.633 13.4428C111.101 13.9156 110.685 14.5919 110.385 15.4718C110.086 16.3456 109.937 17.3691 109.937 18.5422ZM142.544 9.87852C143.645 9.87852 144.624 10.0701 145.479 10.4531C146.341 10.8302 147.015 11.3629 147.499 12.0512C147.984 12.7335 148.23 13.5206 148.236 14.4124C148.23 15.1725 148.041 15.8638 147.67 16.4863C147.305 17.1087 146.787 17.6235 146.117 18.0305C145.452 18.4315 144.683 18.6978 143.81 18.8295V20.8675C146.042 20.7358 148.017 20.5443 149.735 20.2929L149.923 22.0705C147.799 22.4536 145.572 22.7079 143.244 22.8336C140.922 22.9533 138.468 23.0132 135.882 23.0132L135.613 21.056C137.899 21.056 139.826 21.0291 141.394 20.9752V18.8474C140.497 18.7218 139.707 18.4584 139.024 18.0574C138.342 17.6504 137.812 17.1357 137.435 16.5132C137.064 15.8847 136.882 15.1845 136.888 14.4124C136.882 13.5206 137.118 12.7335 137.597 12.0512C138.076 11.3629 138.743 10.8302 139.599 10.4531C140.461 10.0701 141.442 9.87852 142.544 9.87852ZM138.827 24.7459H141.251V29.1361H154.359V31.1202H138.827V24.7459ZM139.132 14.4124C139.126 14.9391 139.267 15.4059 139.554 15.8129C139.847 16.2139 140.251 16.5282 140.766 16.7556C141.287 16.9771 141.879 17.0908 142.544 17.0968C143.214 17.0908 143.807 16.9771 144.321 16.7556C144.836 16.5341 145.237 16.2229 145.524 15.8219C145.812 15.4149 145.958 14.9451 145.964 14.4124C145.958 13.8737 145.812 13.4009 145.524 12.9939C145.237 12.5869 144.836 12.2726 144.321 12.0512C143.807 11.8297 143.214 11.719 142.544 11.719C141.879 11.719 141.287 11.8297 140.766 12.0512C140.245 12.2726 139.841 12.5869 139.554 12.9939C139.267 13.4009 139.126 13.8737 139.132 14.4124ZM151.135 8.873H153.542V16.3965H156.783V18.4255H153.542V26.2722H151.135V8.873ZM178.939 28.8758H158.119V26.8737H163.802V22.8426H160.651V15.6064H174.01V12.4372H160.606V10.4711H176.389V17.5726H163.048V20.8675H176.919V22.8426H173.472V26.8737H178.939V28.8758ZM171.101 26.8737V22.8426H166.146V26.8737H171.101ZM194.138 20.4545H189.352V24.6741C191.747 24.5724 193.817 24.4227 195.565 24.2252L195.754 26.0028C193.509 26.338 191.187 26.5595 188.787 26.6672C186.393 26.7689 183.798 26.8198 181.003 26.8198L180.707 24.8178C183.167 24.8178 185.244 24.7968 186.937 24.7549V20.4545H182.359V10.9738H194.039V12.9131H184.738V18.4883H194.138V20.4545ZM196.993 8.85504H199.399V31.6499H196.993V8.85504ZM211.141 23.8571C211.135 24.5335 211.243 25.2008 211.464 25.8592C211.685 26.5116 212.024 27.1251 212.479 27.6997C212.933 28.2683 213.496 28.759 214.166 29.172C214.831 28.7351 215.393 28.2144 215.854 27.6099C216.321 27.0054 216.668 26.3799 216.896 25.7335C217.129 25.0811 217.249 24.4556 217.255 23.8571V22.6361H219.616V23.8571C219.616 24.6591 219.79 25.4342 220.137 26.1824C220.484 26.9246 220.999 27.5889 221.681 28.1755C222.369 28.7561 223.201 29.202 224.177 29.5132L222.929 31.3088C221.839 30.9197 220.912 30.3631 220.146 29.6389C219.38 28.9147 218.796 28.0737 218.395 27.1161C218.006 28.0857 217.458 28.9536 216.752 29.7197C216.052 30.4918 215.199 31.0843 214.193 31.4973C213.158 31.1023 212.284 30.5307 211.572 29.7825C210.866 29.0404 210.327 28.1785 209.956 27.1969C209.537 28.1186 208.947 28.9356 208.187 29.6479C207.433 30.3601 206.535 30.9137 205.494 31.3088L204.309 29.5132C205.248 29.184 206.056 28.7201 206.733 28.1216C207.409 27.5171 207.921 26.8438 208.268 26.1016C208.621 25.3594 208.801 24.6113 208.807 23.8571V22.6361H211.141V23.8571ZM203.402 15.4718C203.402 14.4423 203.659 13.5206 204.174 12.7066C204.689 11.8866 205.398 11.2492 206.302 10.7943C207.206 10.3334 208.22 10.106 209.345 10.1119C210.321 10.106 211.219 10.2855 212.039 10.6506C212.859 11.0097 213.541 11.5185 214.086 12.1769C214.63 12.8293 214.986 13.5804 215.154 14.4303H219.616V8.85504H222.022V21.7653H219.616V16.4055H215.181C215.025 17.2793 214.675 18.0544 214.13 18.7307C213.592 19.4011 212.906 19.9218 212.075 20.2929C211.243 20.664 210.333 20.8495 209.345 20.8495C208.214 20.8495 207.197 20.6221 206.293 20.1672C205.389 19.7063 204.68 19.0689 204.165 18.2549C203.656 17.4349 203.402 16.5072 203.402 15.4718ZM205.718 15.4718C205.712 16.1182 205.865 16.6987 206.176 17.2135C206.487 17.7222 206.918 18.1232 207.469 18.4165C208.025 18.7038 208.651 18.8474 209.345 18.8474C210.028 18.8474 210.641 18.7038 211.186 18.4165C211.736 18.1232 212.167 17.7222 212.479 17.2135C212.796 16.6987 212.954 16.1182 212.954 15.4718C212.954 14.8194 212.796 14.2388 212.479 13.73C212.167 13.2213 211.736 12.8293 211.186 12.5539C210.641 12.2726 210.028 12.132 209.345 12.132C208.651 12.132 208.025 12.2726 207.469 12.5539C206.918 12.8293 206.487 13.2213 206.176 13.73C205.865 14.2388 205.712 14.8194 205.718 15.4718ZM230.478 24.9165H241.171V22.5015H243.586V31.3178H228.099V22.5015H230.478V24.9165ZM225.531 19.0809H246.27V21.056H225.531V19.0809ZM226.645 15.777C228.105 15.5855 229.446 15.2084 230.667 14.6458C231.894 14.0832 232.866 13.4009 233.585 12.5988C234.303 11.7968 234.662 10.9529 234.662 10.0671V9.09745H237.14V10.0671C237.14 10.9289 237.499 11.7669 238.217 12.5809C238.941 13.3889 239.914 14.0802 241.135 14.6548C242.362 15.2234 243.694 15.5974 245.13 15.777L244.259 17.6713C243.032 17.4978 241.871 17.1955 240.776 16.7646C239.687 16.3336 238.723 15.795 237.885 15.1486C237.047 14.5021 236.389 13.7809 235.91 12.9849C235.425 13.7869 234.761 14.5111 233.917 15.1575C233.073 15.798 232.103 16.3336 231.008 16.7646C229.919 17.1955 228.763 17.4978 227.542 17.6713L226.645 15.777ZM241.171 29.3875V26.7839H230.478V29.3875H241.171ZM266.874 31.605H264.486V8.85504H266.874V31.605ZM249.394 11.0726H251.764V23.7494C255.469 23.7195 258.964 23.3663 262.25 22.69L262.564 24.719C260.643 25.12 258.761 25.4073 256.917 25.5809C255.074 25.7485 253.2 25.8293 251.297 25.8233H249.394V11.0726ZM288.195 17.6624H291.84V19.6644H288.195V31.6499H285.78V8.85504H288.195V17.6624ZM271.433 11.0457H282.072V13.0028H273.84V23.9918C275.863 23.9798 277.634 23.92 279.154 23.8122C280.681 23.6985 282.222 23.501 283.778 23.2197L284.065 25.2756C282.437 25.5629 280.842 25.7574 279.28 25.8592C277.718 25.955 275.854 26.0028 273.687 26.0028H273.265H271.433V11.0457ZM295.529 29.6209C295.2 29.6209 294.895 29.5401 294.613 29.3785C294.338 29.2169 294.12 28.9985 293.958 28.7231C293.796 28.4478 293.719 28.1486 293.725 27.8253C293.719 27.5021 293.796 27.2029 293.958 26.9276C294.12 26.6522 294.338 26.4338 294.613 26.2722C294.895 26.1106 295.2 26.0298 295.529 26.0298C295.846 26.0298 296.143 26.1106 296.418 26.2722C296.693 26.4338 296.912 26.6522 297.073 26.9276C297.241 27.2029 297.325 27.5021 297.325 27.8253C297.325 28.1486 297.241 28.4478 297.073 28.7231C296.912 28.9985 296.693 29.2169 296.418 29.3785C296.143 29.5401 295.846 29.6209 295.529 29.6209Z" fill="#222222"/>
<path d="M46.9688 65.9035V66.9347H34.25V65.9035H37.4062V62.1613C36.2188 61.5441 35.5 60.5441 35.5 59.2785C35.5 57.13 37.6094 55.716 40.5781 55.7003C43.5469 55.716 45.6562 57.13 45.6562 59.2785C45.6562 60.5207 44.9609 61.505 43.8125 62.1222V65.9035H46.9688ZM36.6875 59.2785C36.6797 60.8332 38.2969 61.8722 40.5781 61.8722C42.8359 61.8722 44.4688 60.8332 44.4688 59.2785C44.4688 57.7238 42.8359 56.7003 40.5781 56.716C38.2969 56.7003 36.6797 57.7238 36.6875 59.2785ZM38.6094 65.9035H42.5781V62.5988C41.9766 62.755 41.3047 62.841 40.5781 62.841C39.8672 62.841 39.2031 62.7628 38.6094 62.6066V65.9035ZM52.8125 57.8097C52.8203 59.5363 54.3125 61.0988 56.3594 61.7003L55.7656 62.6535C54.1562 62.1691 52.875 61.1222 52.2422 59.755C51.6484 61.2707 50.375 62.466 48.7188 63.0128L48.125 62.0753C50.1641 61.3878 51.6016 59.6925 51.6094 57.8097V57.5128H48.4688V56.5285H51.6094V54.7628H52.8438V56.5285H55.9531V57.5128H52.8125V57.8097ZM50.3281 66.1535C50.3203 64.5363 52.0938 63.6144 54.9844 63.6222C57.8672 63.6144 59.6406 64.5363 59.6406 66.1535C59.6406 67.7628 57.8672 68.6847 54.9844 68.6847C52.0938 68.6847 50.3203 67.7628 50.3281 66.1535ZM51.5469 66.1535C51.5391 67.1222 52.8516 67.716 54.9844 67.716C57.1172 67.716 58.4219 67.1222 58.4219 66.1535C58.4219 65.1613 57.1172 64.591 54.9844 64.5753C52.8516 64.591 51.5391 65.1613 51.5469 66.1535ZM55.5156 59.8253V58.8097H58.3594V54.8253H59.5938V63.2472H58.3594V59.8253H55.5156ZM72.7656 54.841V59.4191H74.8594V60.4503H72.7656V65.2472H71.5469V54.841H72.7656ZM61.9375 57.5441V56.5441H65.4688V54.841H66.6875V56.5441H70.2188V57.5441H61.9375ZM62.7344 60.9035C62.7266 59.3253 64.0703 58.3097 66.0781 58.3097C68.0625 58.3097 69.4062 59.3253 69.4219 60.9035C69.4062 62.466 68.0625 63.4738 66.0781 63.466C64.0703 63.4738 62.7266 62.466 62.7344 60.9035ZM63.9062 60.9035C63.8984 61.88 64.7656 62.5128 66.0781 62.4972C67.375 62.5128 68.25 61.88 68.2656 60.9035C68.25 59.9113 67.375 59.2707 66.0781 59.2785C64.7656 59.2707 63.8984 59.9113 63.9062 60.9035ZM64.0781 68.4191V64.4191H65.2812V67.3878H73.4062V68.4191H64.0781ZM84.6406 58.5597C84.6328 61.0753 86.25 63.6066 88.2656 64.5285L87.5312 65.5285C85.9531 64.716 84.6484 63.0597 84.0312 61.0832C83.4141 63.1613 82.1094 64.9425 80.5312 65.7785L79.7344 64.7941C81.7734 63.7941 83.3828 61.1222 83.3906 58.5597V56.0285H84.6406V58.5597ZM86.75 60.5753V59.5753H90.0469V54.8253H91.2656V68.7472H90.0469V60.5753H86.75ZM105.031 54.8253V68.7472H103.797V54.8253H105.031ZM94.3906 65.3878V56.0128H95.6094V59.6847H99.75V56.0128H100.953V65.3878H94.3906ZM95.6094 64.3566H99.75V60.6691H95.6094V64.3566ZM114.328 56.8722C114.336 59.255 117.055 61.3722 119.469 61.8253L118.906 62.8566C116.805 62.3722 114.602 60.88 113.703 58.841C112.797 60.88 110.602 62.3644 108.5 62.8566L107.938 61.8253C110.344 61.3644 113.039 59.2628 113.047 56.8722V55.8097H114.328V56.8722ZM107.406 66.8253V65.8097H120.125V66.8253H107.406ZM133.953 65.966V66.9972H121.234V65.966H126.953V63.341H122.828V59.0597H131.141V56.8722H122.797V55.8566H132.344V60.0597H124.047V62.3253H132.672V63.341H128.156V65.966H133.953ZM150.234 58.5597V59.5441H146.016V60.8878H151.734V61.8878H139.078V60.8878H144.797V59.5441H140.766V55.3722H150.094V56.3878H142V58.5597H150.234ZM140.609 64.0128V63.0753H150.109V66.1691H141.859V67.5753H150.531V68.5597H140.641V65.2628H148.906V64.0128H140.609ZM156.625 55.9035C158.672 55.9113 160.125 57.7941 160.141 60.7472C160.125 63.7082 158.672 65.5832 156.625 65.5753C154.562 65.5832 153.117 63.7082 153.125 60.7472C153.117 57.7941 154.562 55.9113 156.625 55.9035ZM154.281 60.7472C154.289 63.005 155.25 64.4894 156.625 64.4816C158.016 64.4894 158.953 63.005 158.953 60.7472C158.953 58.4894 158.016 57.005 156.625 56.9972C155.25 57.005 154.289 58.4894 154.281 60.7472ZM162.438 68.716V54.8253H163.656V60.3722H165.984V61.4347H163.656V68.716H162.438ZM177.484 54.8253V60.4816H179.734V61.5128H177.484V68.716H176.266V54.8253H177.484ZM166.828 65.1066C170.414 63.3253 172.367 60.6457 172.648 57.3566H167.469V56.3253H173.891C173.883 60.255 172.039 63.841 167.516 66.0753L166.828 65.1066ZM196.047 54.841V64.9972H194.828V54.841H196.047ZM184.906 59.216C184.898 57.216 186.469 55.8175 188.547 55.8097C190.625 55.8175 192.18 57.216 192.188 59.216C192.18 61.2394 190.625 62.6457 188.547 62.6378C186.469 62.6457 184.898 61.2394 184.906 59.216ZM186.109 59.216C186.094 60.5988 187.141 61.5597 188.547 61.5597C189.93 61.5597 190.984 60.5988 190.984 59.216C190.984 57.8566 189.93 56.8878 188.547 56.8878C187.141 56.8878 186.094 57.8566 186.109 59.216ZM187.078 68.4191V63.966H188.297V67.3878H196.484V68.4191H187.078ZM211.062 61.4347V62.4503H198.406V61.4347H211.062ZM199.125 59.6222C201.547 59.341 203.883 58.1457 203.938 56.5597H199.562V55.5441H209.938V56.5597H205.531C205.586 58.13 207.898 59.341 210.359 59.6222L209.906 60.6066C207.633 60.3175 205.5 59.2941 204.734 57.755C203.969 59.2941 201.852 60.3175 199.562 60.6066L199.125 59.6222ZM199.938 66.1847C199.93 64.591 201.734 63.6691 204.734 63.6691C207.711 63.6691 209.5 64.591 209.516 66.1847C209.5 67.7941 207.711 68.6847 204.734 68.6847C201.734 68.6847 199.93 67.7941 199.938 66.1847ZM201.188 66.1847C201.172 67.1535 202.508 67.7082 204.734 67.7003C206.938 67.7082 208.273 67.1535 208.281 66.1847C208.273 65.2082 206.938 64.6535 204.734 64.6378C202.508 64.6535 201.172 65.2082 201.188 66.1847ZM223.75 54.8253V61.9347H222.516V60.4816H218.812V59.5128H222.516V57.841H219.016C218.148 60.0285 215.992 61.505 212.906 62.2472L212.469 61.2316C215.875 60.4425 217.852 58.7863 218.086 56.5441H213.172V55.5285H219.438C219.438 55.9894 219.391 56.4347 219.305 56.8566H222.516V54.8253H223.75ZM214.75 63.5597V62.5597H223.75V65.9503H216V67.5753H224.219V68.591H214.781V65.0128H222.516V63.5597H214.75ZM233.766 56.3722V57.091C233.758 58.1925 233.758 60.0285 233.359 62.6066L232.125 62.4972C232.508 60.1691 232.539 58.4816 232.531 57.3722H226.703V56.3722H233.766ZM225.922 64.6378C226.836 64.63 227.852 64.6222 228.922 64.5988V60.341H230.125V64.5597C231.664 64.505 233.242 64.4035 234.688 64.2316L234.75 65.1535C231.828 65.6066 228.562 65.6691 226.078 65.6535L225.922 64.6378ZM235.562 68.716V54.8253H236.781V60.6378H239.031V61.7003H236.781V68.716H235.562ZM252.594 61.2785V62.2472H239.875V61.2785H252.594ZM241.406 64.2785V63.3566H251V66.3097H242.656V67.6378H251.453V68.5285H241.422V65.466H249.781V64.2785H241.406ZM241.484 56.1378V55.2472H250.953V58.1222H242.75V59.341H251.203V60.2316H241.531V57.2785H249.719V56.1378H241.484ZM268.578 54.841V59.0441H270.656V60.0753H268.578V64.1535H267.344V54.841H268.578ZM257.672 62.7316C258.781 62.7316 260.078 62.7316 261.438 62.6925V61.6691C259.82 61.5207 258.773 60.7785 258.781 59.6222C258.773 58.3566 260.078 57.5753 262.031 57.5753C264 57.5753 265.281 58.3566 265.297 59.6222C265.281 60.7707 264.266 61.5128 262.656 61.6691V62.6457C263.953 62.5832 265.266 62.4738 266.484 62.2941L266.594 63.1847C263.578 63.716 260.258 63.7394 257.812 63.7316L257.672 62.7316ZM258.016 57.0441V56.1066H261.438V54.716H262.656V56.1066H266.062V57.0441H258.016ZM259.375 65.8253V64.841H268.578V68.716H267.344V65.8253H259.375ZM259.953 59.6222C259.945 60.3488 260.75 60.841 262.031 60.8253C263.312 60.841 264.125 60.3488 264.125 59.6222C264.125 58.8878 263.312 58.4347 262.031 58.4503C260.75 58.4347 259.945 58.8878 259.953 59.6222ZM283.031 54.841V64.9972H281.812V54.841H283.031ZM271.891 59.216C271.883 57.216 273.453 55.8175 275.531 55.8097C277.609 55.8175 279.164 57.216 279.172 59.216C279.164 61.2394 277.609 62.6457 275.531 62.6378C273.453 62.6457 271.883 61.2394 271.891 59.216ZM273.094 59.216C273.078 60.5988 274.125 61.5597 275.531 61.5597C276.914 61.5597 277.969 60.5988 277.969 59.216C277.969 57.8566 276.914 56.8878 275.531 56.8878C274.125 56.8878 273.078 57.8566 273.094 59.216ZM274.062 68.4191V63.966H275.281V67.3878H283.469V68.4191H274.062ZM296.141 54.8253V60.5597H298.469V61.5753H296.141V68.716H294.922V54.8253H296.141ZM285.312 58.0753V57.0597H288.891V54.9972H290.109V57.0597H293.578V58.0753H285.312ZM286.109 62.4191C286.102 60.5441 287.539 59.2316 289.516 59.2316C291.477 59.2316 292.906 60.5441 292.922 62.4191C292.906 64.3019 291.477 65.6066 289.516 65.6066C287.539 65.6066 286.102 64.3019 286.109 62.4191ZM287.281 62.4191C287.273 63.6847 288.219 64.5753 289.516 64.5597C290.797 64.5753 291.734 63.6847 291.75 62.4191C291.734 61.1613 290.797 60.255 289.516 60.2628C288.219 60.255 287.273 61.1613 287.281 62.4191ZM310.719 54.8253V68.716H309.5V61.4347H306.188V60.4191H309.5V54.8253H310.719ZM299.234 65.091C302.992 63.2707 304.734 60.591 304.984 57.341H299.844V56.341H306.219C306.211 60.2785 304.547 63.7707 299.906 66.0753L299.234 65.091ZM326.047 60.3722V61.4035H323.797V68.716H322.578V54.8253H323.797V60.3722H326.047ZM313.625 65.1847V56.2003H314.844V64.1535C316.875 64.1535 318.945 63.9972 321.234 63.5128L321.391 64.5597C318.992 65.0441 316.836 65.1847 314.734 65.1847H313.625ZM118.133 78.8253V84.3253H120.461V85.3566H118.133V92.7472H116.914V78.8253H118.133ZM107.992 89.2628V80.1847H114.477V81.2003H109.211V88.2316C111.727 88.2238 113.5 88.1144 115.57 87.7316L115.727 88.7941C113.547 89.1847 111.727 89.2628 109.086 89.2628H107.992ZM127.539 79.1378C130.562 79.1378 132.438 80.1144 132.445 81.7785C132.438 83.4191 130.562 84.38 127.539 84.3722C124.516 84.38 122.617 83.4191 122.617 81.7785C122.617 80.1144 124.516 79.1378 127.539 79.1378ZM121.211 86.591V85.5753H133.867V86.591H121.211ZM122.758 92.5285V87.966H132.32V92.5285H122.758ZM123.883 81.7785C123.875 82.7863 125.289 83.3957 127.539 83.4035C129.766 83.3957 131.188 82.7863 131.195 81.7785C131.188 80.7394 129.766 80.1222 127.539 80.1222C125.289 80.1222 123.875 80.7394 123.883 81.7785ZM123.977 91.5285H131.117V88.9503H123.977V91.5285ZM145.898 78.8253V82.966H148.008V83.9972H145.898V88.8878H144.68V78.8253H145.898ZM135.695 86.4191V80.0285H141.883V81.0597H136.914V85.3878C139.703 85.3957 141.289 85.3097 143.148 84.9347L143.305 85.9503C141.352 86.3253 139.695 86.4191 136.773 86.4191H135.695ZM137.211 92.4191V87.8722H138.414V91.3878H146.539V92.4191H137.211ZM160.758 78.8253V92.716H159.586V78.8253H160.758ZM148.852 88.8253C151.875 87.0363 153.391 84.5285 153.633 81.6222H149.477V80.6066H154.852C154.852 81.3175 154.789 82.0207 154.664 82.7003H156.773V79.2003H157.945V92.0128H156.773V87.2003H154.195V86.1847H156.773V83.716H154.422C153.75 86.0675 152.227 88.1457 149.602 89.716L148.852 88.8253ZM175.398 85.2785V86.2472H162.68V85.2785H175.398ZM164.211 88.2785V87.3566H173.805V90.3097H165.461V91.6378H174.258V92.5285H164.227V89.466H172.586V88.2785H164.211ZM164.289 80.1378V79.2472H173.758V82.1222H165.555V83.341H174.008V84.2316H164.336V81.2785H172.523V80.1378H164.289ZM185.539 81.8097C185.547 83.6847 187.023 85.3722 189.102 86.0285L188.477 87.0128C186.859 86.4582 185.578 85.3175 184.945 83.8566C184.344 85.4347 183.039 86.6847 181.383 87.2941L180.742 86.3097C182.828 85.5832 184.297 83.7785 184.305 81.8097V80.9972H181.055V79.9972H188.742V80.9972H185.539V81.8097ZM183.039 92.4191V88.0597H184.258V91.3878H192.445V92.4191H183.039ZM190.789 89.0285V78.841H192.008V89.0285H190.789ZM206.164 78.8253V87.6222H204.992V83.6378H203.133V87.1222H201.977V79.1066H203.133V82.6222H204.992V78.8253H206.164ZM194.289 81.4816V80.4972H197.258V78.9347H198.477V80.4972H201.414V81.4816H194.289ZM194.898 84.6066C194.891 83.1535 196.117 82.2238 197.867 82.2316C199.625 82.2238 200.844 83.1535 200.852 84.6066C200.844 86.0363 199.625 86.966 197.867 86.966C196.117 86.966 194.891 86.0363 194.898 84.6066ZM195.992 84.6066C195.992 85.4582 196.758 86.0441 197.867 86.0441C198.977 86.0441 199.742 85.4582 199.742 84.6066C199.742 83.7238 198.977 83.1378 197.867 83.1378C196.758 83.1378 195.992 83.7238 195.992 84.6066ZM196.914 90.2941C196.898 88.7316 198.641 87.8566 201.57 87.8566C204.492 87.8566 206.234 88.7316 206.242 90.2941C206.234 91.8175 204.492 92.6847 201.57 92.6847C198.641 92.6847 196.898 91.8175 196.914 90.2941ZM198.133 90.2941C198.117 91.1925 199.406 91.7394 201.57 91.7316C203.727 91.7394 205.008 91.1925 205.023 90.2941C205.008 89.341 203.727 88.8097 201.57 88.8253C199.406 88.8097 198.117 89.341 198.133 90.2941ZM218.945 78.8253V84.5597H221.273V85.5753H218.945V92.716H217.727V78.8253H218.945ZM208.117 82.0753V81.0597H211.695V78.9972H212.914V81.0597H216.383V82.0753H208.117ZM208.914 86.4191C208.906 84.5441 210.344 83.2316 212.32 83.2316C214.281 83.2316 215.711 84.5441 215.727 86.4191C215.711 88.3019 214.281 89.6066 212.32 89.6066C210.344 89.6066 208.906 88.3019 208.914 86.4191ZM210.086 86.4191C210.078 87.6847 211.023 88.5753 212.32 88.5597C213.602 88.5753 214.539 87.6847 214.555 86.4191C214.539 85.1613 213.602 84.255 212.32 84.2628C211.023 84.255 210.078 85.1613 210.086 86.4191ZM226.148 82.7785C226.148 84.9894 227.227 87.3722 229.07 88.466L228.367 89.4191C227.023 88.6066 226.062 87.1222 225.578 85.4269C225.07 87.2785 224.039 88.8722 222.648 89.716L221.867 88.7941C223.789 87.6691 224.961 85.2082 224.961 82.8253V80.1378H226.148V82.7785ZM227.539 84.8566V83.8097H229.898V79.1222H231.055V92.0128H229.898V84.8566H227.539ZM232.742 92.716V78.8253H233.93V92.716H232.742ZM248.57 89.9035V90.9347H235.852V89.9035H239.008V86.1613C237.82 85.5441 237.102 84.5441 237.102 83.2785C237.102 81.13 239.211 79.716 242.18 79.7003C245.148 79.716 247.258 81.13 247.258 83.2785C247.258 84.5207 246.562 85.505 245.414 86.1222V89.9035H248.57ZM238.289 83.2785C238.281 84.8332 239.898 85.8722 242.18 85.8722C244.438 85.8722 246.07 84.8332 246.07 83.2785C246.07 81.7238 244.438 80.7003 242.18 80.716C239.898 80.7003 238.281 81.7238 238.289 83.2785ZM240.211 89.9035H244.18V86.5988C243.578 86.755 242.906 86.841 242.18 86.841C241.469 86.841 240.805 86.7628 240.211 86.6066V89.9035ZM251.148 91.5441C250.602 91.5363 250.133 91.0832 250.148 90.5285C250.133 89.9816 250.602 89.5285 251.148 89.5285C251.703 89.5285 252.156 89.9816 252.148 90.5285C252.156 91.0832 251.703 91.5363 251.148 91.5441Z" fill="#818181"/>
<g clip-path="url(#clip0_506_8001)">
<path d="M165.322 208.275C166.295 208.638 167.383 208.638 168.357 208.275C193.254 198.932 193.678 183.829 193.678 183.829V156.924C193.678 155.066 192.519 153.403 190.768 152.757L168.365 144.573C167.383 144.21 166.304 144.21 165.322 144.573L142.911 152.766C141.159 153.403 140 155.066 140 156.933V183.838C140 183.838 140.425 198.932 165.322 208.284V208.275Z" fill="#4961DD"/>
<path d="M166.835 161.188C158.2 161.188 151.201 167.329 151.201 174.902C151.201 179.238 153.502 183.104 157.085 185.617V193.385L163.384 188.271C164.499 188.492 165.649 188.616 166.835 188.616C175.47 188.616 182.469 182.476 182.469 174.902C182.469 167.329 175.47 161.188 166.835 161.188Z" fill="#F3E035"/>
<path d="M202.305 172.841C212.077 172.841 220 164.918 220 155.146C220 145.373 212.077 137.45 202.305 137.45C192.532 137.45 184.609 145.373 184.609 155.146C184.609 164.918 192.532 172.841 202.305 172.841Z" fill="#C6DBEF"/>
<path d="M195.536 155.623L199.624 159.64L209.064 148.881" stroke="#4961DD" stroke-width="3" stroke-miterlimit="10"/>
</g>
<defs>
<clipPath id="clip0_506_8001">
<rect width="80" height="71.0993" fill="white" transform="translate(140 137.45)"/>
</clipPath>
</defs>
</svg>
