<svg width="28" height="28" viewBox="0 0 28 28" fill="none" xmlns="http://www.w3.org/2000/svg">
<path d="M5.02435 21.9951L14.5134 24.9343L21.7154 20.1606C22.1679 19.9708 22.382 19.4453 22.1922 18.9927C22.0025 18.5402 21.4769 18.326 21.0244 18.5158L15.8759 20.8905C15.8759 20.8905 8.33336 17.7664 11.2044 17.2798C12.781 17.601 16.2896 18.0535 16.2896 18.0535C16.5523 17.9854 16.781 17.8005 16.893 17.528C17.0779 17.0706 16.8589 16.5548 16.4015 16.365L11.0876 14.1995L10.4453 13.9368C10.4453 13.9368 6.46961 14.9538 5.64236 15.7567" fill="white"/>
<path d="M5.02435 21.9951L14.5134 24.9343L21.7154 20.1606C22.1679 19.9708 22.382 19.4453 22.1922 18.9927C22.0025 18.5402 21.4769 18.326 21.0244 18.5158L15.8759 20.8905C15.8759 20.8905 8.33336 17.7664 11.2044 17.2798C12.781 17.601 16.2896 18.0535 16.2896 18.0535C16.5523 17.9854 16.781 17.8005 16.893 17.528C17.0779 17.0706 16.8589 16.5548 16.4015 16.365L11.0876 14.1995L10.4453 13.9368C10.4453 13.9368 6.46961 14.9538 5.64236 15.7567" stroke="#42465A" stroke-linecap="round" stroke-linejoin="round"/>
<path d="M5.63747 15.7664L1.54988 15.8346L1 21.7324L5.02433 21.9952L5.63747 15.7664Z" fill="#EF666D" stroke="#42465A" stroke-linecap="round" stroke-linejoin="round"/>
<path d="M22.9757 6.93917L13.4866 4L6.28467 8.77372C5.83211 8.96351 5.618 9.48905 5.80778 9.94161C5.99757 10.3942 6.52311 10.6083 6.97567 10.4185L12.1241 8.0438C12.1241 8.0438 19.6667 11.1679 16.7956 11.6545C15.219 11.3333 11.7105 10.8808 11.7105 10.8808C11.4477 10.9489 11.219 11.1338 11.1071 11.4063C10.9221 11.8637 11.1411 12.3796 11.5985 12.5693L16.9124 14.7348L17.5547 14.9976C17.5547 14.9976 21.5304 13.9805 22.3577 13.1776" fill="white"/>
<path d="M22.9757 6.93917L13.4866 4L6.28467 8.77372C5.83211 8.96351 5.618 9.48905 5.80778 9.94161C5.99757 10.3942 6.52311 10.6083 6.97567 10.4185L12.1241 8.0438C12.1241 8.0438 19.6667 11.1679 16.7956 11.6545C15.219 11.3333 11.7105 10.8808 11.7105 10.8808C11.4477 10.9489 11.219 11.1338 11.1071 11.4063C10.9221 11.8637 11.1411 12.3796 11.5985 12.5693L16.9124 14.7348L17.5547 14.9976C17.5547 14.9976 21.5304 13.9805 22.3577 13.1776" stroke="#42465A" stroke-linecap="round" stroke-linejoin="round"/>
<path d="M22.3625 13.1728L26.4452 13.1046L27 7.20197L22.9756 6.93919L22.3625 13.1728Z" fill="#EF666D" stroke="#42465A" stroke-linecap="round" stroke-linejoin="round"/>
</svg>
