<svg width="28" height="28" viewBox="0 0 28 28" fill="none" xmlns="http://www.w3.org/2000/svg">
<path d="M21.8792 24H6.84712C6.3812 24 6 23.623 6 23.1529V21.4968C6 21.0309 6.37697 20.6497 6.84712 20.6497H21.8792L21.8538 3.84712C21.8538 3.3812 21.4768 3 21.0067 3H6.84712C6.3812 3 6 3.37697 6 3.84712V21.5222" stroke="#42465A" stroke-linecap="round" stroke-linejoin="round"/>
<path d="M21.6208 20.6666C21.1676 20.6666 20.7991 21.0351 20.7991 21.4883V23.1614C20.7991 23.6146 21.1676 23.9831 21.6208 23.9831" stroke="#42465A" stroke-linecap="round" stroke-linejoin="round"/>
<path d="M20.2951 22.3989H6.66074" stroke="#42465A" stroke-linecap="round" stroke-linejoin="round"/>
<path d="M16.2247 7.68879C16.2247 8.35378 15.6868 8.89169 15.0218 8.89169C14.3568 8.89169 13.8147 8.35378 13.8147 7.68879C13.8147 7.0238 14.3568 6.48589 15.0218 6.48589C15.6868 6.48589 16.2247 7.0238 16.2247 7.68879Z" fill="#42465A"/>
<path d="M12.3703 10.2089H15.5089L13.9036 16.2319C13.9036 16.2319 13.6495 17.0367 14.3399 16.3759C14.8143 15.927 15.763 14.9528 15.763 14.9528C15.763 14.9528 15.7249 15.245 14.9583 16.3421C14.6448 16.791 14.2509 17.2951 13.6452 17.4348C12.112 17.7991 11.7858 17.2527 12.2941 15.4272C12.8066 13.6016 13.6452 10.9375 13.6452 10.9375H12.3661V10.2089H12.3703Z" fill="#42465A"/>
</svg>
