<svg width="28" height="28" viewBox="0 0 28 28" fill="none" xmlns="http://www.w3.org/2000/svg">
<path d="M15.278 24.2916C15.0096 24.2916 14.7925 24.0658 14.7925 23.7866C14.7925 23.5074 15.0096 23.2816 15.278 23.2816H17.1566C17.4249 23.2816 17.642 23.5074 17.642 23.7866C17.642 24.0658 17.4249 24.2916 17.1566 24.2916H15.278Z" fill="#42465A"/>
<path d="M21.0993 20.5884C21.0993 22.3948 20.085 23.8564 18.3524 23.8564C17.9656 23.8564 17.5947 23.7825 17.2552 23.6511" stroke="#42465A" stroke-linecap="round" stroke-linejoin="round"/>
<path d="M4.6576 14.8155C4.47605 10.2954 8.79366 7.76233 13.5928 7.76233C18.3919 7.76233 22.5279 10.1928 22.5279 14.8114" stroke="#42465A" stroke-linecap="round" stroke-linejoin="round"/>
<path d="M5.94813 13.5311C4.31817 13.5311 3 14.9065 3 16.5979V17.8255C3 19.521 4.31817 20.8922 5.94813 20.8922V13.5311Z" fill="white" stroke="#42465A" stroke-linecap="round" stroke-linejoin="round"/>
<path d="M21.0519 20.8922C22.6818 20.8922 24 19.521 24 17.8255V16.5979C24 14.9024 22.6818 13.5311 21.0519 13.5311V20.8922Z" fill="white" stroke="#42465A" stroke-linecap="round" stroke-linejoin="round"/>
<path d="M18.6681 11.4819H8.40689C7.09909 11.4819 6.03891 12.4955 6.03891 13.746V23.5569C6.03891 24.8074 7.09909 25.821 8.40689 25.821H18.6681C19.9759 25.821 21.0361 24.8074 21.0361 23.5569V13.746C21.0361 12.4955 19.9759 11.4819 18.6681 11.4819Z" stroke="#42465A" stroke-linecap="round" stroke-linejoin="round"/>
<path d="M10.7472 17.0865C10.7472 17.768 10.2144 18.3222 9.55534 18.3222C8.89625 18.3222 8.3674 17.768 8.3674 17.0865C8.3674 16.405 8.9002 15.8466 9.55534 15.8466C10.2105 15.8466 10.7472 16.4009 10.7472 17.0865Z" fill="#42465A"/>
<path d="M18.7115 17.0865C18.7115 17.768 18.1787 18.3222 17.5196 18.3222C16.8605 18.3222 16.3317 17.768 16.3317 17.0865C16.3317 16.405 16.8645 15.8466 17.5196 15.8466C18.1747 15.8466 18.7115 16.4009 18.7115 17.0865Z" fill="#42465A"/>
<path d="M16.4974 20.5597C16.4974 21.4958 15.1714 22.2512 13.5414 22.2512C11.9115 22.2512 10.5815 21.4958 10.5815 20.5597" stroke="#42465A" stroke-linecap="round" stroke-linejoin="round"/>
<path d="M11.6628 6.10784C10.2894 4.69966 11.1498 3 12.1009 3C13.3914 3 13.6203 4.46565 13.6203 4.46565C13.6203 4.46565 13.7624 3 15.053 3C16.0199 3 16.9316 4.75303 15.4476 6.17763C14.978 6.62923 13.6361 7.77055 13.6361 7.77055C13.6361 7.77055 12.1285 6.59228 11.6628 6.11194V6.10784Z" fill="#EF666D" stroke="#42465A" stroke-linecap="round" stroke-linejoin="round"/>
</svg>
