<svg width="28" height="28" viewBox="0 0 28 28" fill="none" xmlns="http://www.w3.org/2000/svg">
<path d="M26 18.1732C26 15.4447 23.0517 13.2304 19.411 13.2304C15.7703 13.2304 12.822 15.4447 12.822 18.1732C12.822 20.9016 15.7703 23.1159 19.411 23.1159C19.7676 23.1159 20.1201 23.0952 20.4601 23.0537C20.6343 23.3274 21.4055 24.3185 23.2881 24.0946C23.2881 24.0946 22.5334 23.3896 22.4215 22.5686C24.5445 21.7476 25.9958 20.0889 25.9958 18.1732H26Z" fill="#EF666D" stroke="#42465A" stroke-linecap="round" stroke-linejoin="round"/>
<path d="M16.8525 18.2893C16.8525 18.6293 16.5747 18.9071 16.2347 18.9071C15.8947 18.9071 15.6169 18.6293 15.6169 18.2893C15.6169 17.9493 15.8947 17.6714 16.2347 17.6714C16.5747 17.6714 16.8525 17.9493 16.8525 18.2893Z" fill="#42465A"/>
<path d="M20.0288 18.2893C20.0288 18.6293 19.751 18.9071 19.411 18.9071C19.071 18.9071 18.7932 18.6293 18.7932 18.2893C18.7932 17.9493 19.071 17.6714 19.411 17.6714C19.751 17.6714 20.0288 17.9493 20.0288 18.2893Z" fill="#42465A"/>
<path d="M23.2093 18.2893C23.2093 18.6293 22.9315 18.9071 22.5915 18.9071C22.2515 18.9071 21.9736 18.6293 21.9736 18.2893C21.9736 17.9493 22.2515 17.6714 22.5915 17.6714C22.9315 17.6714 23.2093 17.9493 23.2093 18.2893Z" fill="#42465A"/>
<path d="M1 10.9041C1 7.08924 5.12175 4 10.2055 4C15.2893 4 19.411 7.08924 19.411 10.9041C19.411 14.719 15.2893 17.8083 10.2055 17.8083C9.70791 17.8083 9.21861 17.7751 8.7376 17.7212C8.49295 18.1027 7.41898 19.4876 4.78587 19.1766C4.78587 19.1766 5.83911 18.1898 5.99254 17.0453C3.03185 15.8967 1 13.5787 1 10.9041Z" fill="white" stroke="#42465A" stroke-linecap="round" stroke-linejoin="round"/>
<path d="M10.3755 6.83216C10.7363 6.83216 11.068 6.89436 11.3707 6.99388C11.6734 7.11413 11.9222 7.26341 12.142 7.46659C12.3535 7.66563 12.5235 7.91028 12.6437 8.1881C12.764 8.47837 12.8262 8.8018 12.8262 9.14183C12.8262 9.4238 12.7764 9.6643 12.6976 9.88407C12.6064 10.1038 12.4986 10.307 12.3659 10.4853C12.2249 10.6678 12.0756 10.8254 11.9139 10.9663C11.7315 11.1073 11.5615 11.2359 11.3997 11.3478C11.2505 11.4474 11.1178 11.5883 10.9975 11.7708C10.869 11.9615 10.8068 12.1523 10.8068 12.3513V12.8821H9.51302V12.3513C9.51302 11.9284 9.61254 11.5676 9.83231 11.2649C10.0313 10.9746 10.3258 10.701 10.6865 10.4605H10.6782C10.7694 10.4107 10.869 10.3402 10.9685 10.2407C11.068 10.1619 11.1592 10.0582 11.2505 9.93798C11.3292 9.82602 11.3914 9.70577 11.4495 9.56478C11.4993 9.43624 11.5283 9.29525 11.5283 9.13353C11.5283 8.71058 11.4163 8.41202 11.2048 8.20884C10.9851 8.02639 10.7114 7.92687 10.3714 7.92687C10.2304 7.92687 10.0894 7.95589 9.96085 8.01809C9.81987 8.08858 9.69962 8.17981 9.6001 8.28762C9.48814 8.40787 9.40935 8.54886 9.34715 8.69814C9.27666 8.85986 9.24763 9.02987 9.24763 9.21232H7.95389C7.95389 8.88888 8.01609 8.57789 8.15293 8.27933C8.27318 7.99736 8.45563 7.74856 8.68369 7.52464C8.90347 7.31317 9.15641 7.14315 9.45911 7.01046C9.74108 6.89021 10.0521 6.81972 10.3714 6.81972L10.3755 6.83216ZM10.898 14.2339C10.898 14.4329 10.8275 14.6071 10.7072 14.7439C10.5663 14.8849 10.388 14.9637 10.1557 14.9637C9.92353 14.9637 9.74523 14.8849 9.61254 14.7439C9.47155 14.6029 9.40106 14.4329 9.40106 14.2339C9.40106 14.0348 9.47155 13.8524 9.61254 13.7114C9.74523 13.5704 9.92353 13.4999 10.1557 13.4999C10.388 13.4999 10.5663 13.5704 10.7072 13.7114C10.8275 13.8524 10.898 14.0348 10.898 14.2339Z" fill="#42465A"/>
</svg>
