<svg width="36" height="36" viewBox="0 0 36 36" fill="none" xmlns="http://www.w3.org/2000/svg">
<circle cx="18" cy="18" r="18" fill="#E8E9F3"/>
<path d="M8.573 16.907C8.98367 16.9143 9.365 16.8813 9.717 16.808C10.069 16.7273 10.3733 16.6063 10.63 16.445C10.8867 16.2837 11.0883 16.082 11.235 15.84C11.3817 15.598 11.455 15.312 11.455 14.982V14.861C11.455 14.6997 11.3707 14.619 11.202 14.619H8.716C8.55467 14.619 8.41533 14.5933 8.298 14.542C8.188 14.4907 8.09633 14.4247 8.023 14.344C7.94967 14.256 7.89467 14.1607 7.858 14.058C7.82867 13.9553 7.814 13.849 7.814 13.739C7.814 13.629 7.82867 13.5227 7.858 13.42C7.89467 13.3173 7.94967 13.2257 8.023 13.145C8.09633 13.057 8.188 12.9873 8.298 12.936C8.41533 12.8847 8.55467 12.859 8.716 12.859H12.049C12.6503 12.859 13.0647 12.9837 13.292 13.233C13.5267 13.475 13.644 13.8453 13.644 14.344V14.927C13.644 14.9637 13.644 15.004 13.644 15.048C13.644 15.0847 13.6403 15.1213 13.633 15.158H15.162V13.574C15.162 13.222 15.272 12.958 15.492 12.782C15.712 12.5987 15.965 12.507 16.251 12.507C16.3903 12.507 16.526 12.5327 16.658 12.584C16.79 12.628 16.9073 12.694 17.01 12.782C17.1127 12.87 17.1933 12.98 17.252 13.112C17.318 13.244 17.351 13.398 17.351 13.574V20.284H15.162V16.874H13.094C12.8813 17.204 12.6137 17.4937 12.291 17.743C11.9683 17.985 11.609 18.183 11.213 18.337C10.817 18.491 10.388 18.5973 9.926 18.656C9.464 18.7147 8.98733 18.7257 8.496 18.689C8.24667 18.6743 8.034 18.579 7.858 18.403C7.68933 18.227 7.61233 17.9923 7.627 17.699C7.64167 17.4423 7.737 17.2443 7.913 17.105C8.09633 16.9657 8.31633 16.8997 8.573 16.907ZM9.772 22.836C9.464 22.836 9.20733 22.8067 9.002 22.748C8.804 22.6893 8.64633 22.5977 8.529 22.473C8.41167 22.3483 8.32733 22.1833 8.276 21.978C8.232 21.7727 8.21 21.5233 8.21 21.23V20.163C8.21 19.789 8.32 19.514 8.54 19.338C8.76733 19.162 9.035 19.074 9.343 19.074C9.651 19.074 9.91133 19.162 10.124 19.338C10.3367 19.514 10.443 19.789 10.443 20.163V20.856C10.443 20.9807 10.4613 21.0577 10.498 21.087C10.5347 21.1163 10.6153 21.131 10.74 21.131H16.713C17.0503 21.131 17.2887 21.219 17.428 21.395C17.5673 21.5637 17.637 21.758 17.637 21.978C17.637 22.2053 17.5637 22.4033 17.417 22.572C17.2777 22.748 17.043 22.836 16.713 22.836H9.772ZM21.443 22.869C21.0617 22.869 20.728 22.814 20.442 22.704C20.1633 22.6013 19.9287 22.4583 19.738 22.275C19.5547 22.0917 19.4153 21.8753 19.32 21.626C19.232 21.3693 19.188 21.0907 19.188 20.79C19.188 20.4967 19.232 20.2217 19.32 19.965C19.4153 19.7083 19.5547 19.4883 19.738 19.305C19.9287 19.1143 20.1633 18.964 20.442 18.854C20.728 18.744 21.0617 18.689 21.443 18.689H26.547C26.921 18.689 27.2473 18.744 27.526 18.854C27.812 18.9567 28.0467 19.1033 28.23 19.294C28.4207 19.4773 28.5637 19.6973 28.659 19.954C28.7543 20.2107 28.802 20.4893 28.802 20.79C28.802 21.0907 28.7543 21.3693 28.659 21.626C28.5637 21.8827 28.4207 22.1027 28.23 22.286C28.0467 22.4693 27.812 22.6123 27.526 22.715C27.2473 22.8177 26.921 22.869 26.547 22.869H21.443ZM26.811 16.423H26.316V18.304H24.413V13.442C24.413 13.134 24.5047 12.903 24.688 12.749C24.8787 12.5877 25.1023 12.507 25.359 12.507C25.6083 12.507 25.8283 12.5877 26.019 12.749C26.217 12.903 26.316 13.134 26.316 13.442V14.773H26.811V13.442C26.811 13.134 26.9063 12.903 27.097 12.749C27.295 12.5877 27.5223 12.507 27.779 12.507C28.0283 12.507 28.252 12.5877 28.45 12.749C28.648 12.903 28.747 13.134 28.747 13.442V18.304H26.811V16.423ZM19.122 16.665C19.5033 16.5183 19.793 16.236 19.991 15.818C20.189 15.4 20.288 14.8133 20.288 14.058V13.728C20.288 13.376 20.3833 13.1193 20.574 12.958C20.772 12.7893 21.0103 12.705 21.289 12.705C21.5677 12.705 21.8097 12.7893 22.015 12.958C22.2277 13.1193 22.334 13.376 22.334 13.728V14.058C22.334 14.212 22.3303 14.3623 22.323 14.509C22.3157 14.6483 22.3047 14.784 22.29 14.916C22.95 15.048 23.4413 15.378 23.764 15.906C24.094 16.434 24.2187 17.1967 24.138 18.194H22.169C22.235 17.842 22.2387 17.534 22.18 17.27C22.1287 16.9987 22.0187 16.7897 21.85 16.643C21.6153 17.149 21.3073 17.5487 20.926 17.842C20.552 18.128 20.1267 18.304 19.65 18.37C19.3713 18.4067 19.1293 18.3627 18.924 18.238C18.726 18.1133 18.6087 17.9337 18.572 17.699C18.484 17.1857 18.6673 16.841 19.122 16.665ZM25.964 21.329C26.206 21.329 26.3673 21.2703 26.448 21.153C26.5287 21.0357 26.569 20.9147 26.569 20.79C26.569 20.6653 26.5287 20.548 26.448 20.438C26.3673 20.328 26.206 20.273 25.964 20.273H22.026C21.784 20.273 21.6227 20.328 21.542 20.438C21.4613 20.548 21.421 20.6653 21.421 20.79C21.421 20.9147 21.4613 21.0357 21.542 21.153C21.6227 21.2703 21.784 21.329 22.026 21.329H25.964Z" fill="#323142"/>
</svg>
