<svg width="28" height="28" viewBox="0 0 28 28" fill="none" xmlns="http://www.w3.org/2000/svg">
<path d="M20.3911 3H7V25H20.3911V3Z" stroke="#42465A" stroke-linecap="round" stroke-linejoin="round"/>
<path d="M11.4521 6.57039H9.52359V8.49892H11.4521V6.57039Z" fill="#42465A"/>
<path d="M14.662 6.57039H12.7335V8.49892H14.662V6.57039Z" fill="#42465A"/>
<path d="M17.8719 6.57039H15.9433V8.49892H17.8719V6.57039Z" fill="#42465A"/>
<path d="M11.4521 10.2059H9.52359V12.1344H11.4521V10.2059Z" fill="#42465A"/>
<path d="M14.662 10.2059H12.7335V12.1344H14.662V10.2059Z" fill="#42465A"/>
<path d="M17.8719 10.2059H15.9433V12.1344H17.8719V10.2059Z" fill="#42465A"/>
<path d="M11.4521 13.8458H9.52359V15.7743H11.4521V13.8458Z" fill="#42465A"/>
<path d="M14.662 13.8458H12.7335V15.7743H14.662V13.8458Z" fill="#42465A"/>
<path d="M17.8719 13.8458H15.9433V15.7743H17.8719V13.8458Z" fill="#42465A"/>
<path d="M15.8478 18.906H11.5477V24.8567H15.8478V18.906Z" fill="#EF666D" stroke="#42465A" stroke-linecap="round" stroke-linejoin="round"/>
</svg>
