<svg width="28" height="28" viewBox="0 0 28 28" fill="none" xmlns="http://www.w3.org/2000/svg">
<path d="M12.5839 4H19.0019C19.5456 4 19.9832 4.41549 19.9832 4.92823V13.5121L19.9699 22.1534C19.9699 22.5292 19.6472 22.8341 19.2494 22.8341H16.8184H12.5839H4.73374C4.33593 22.8341 4.01326 22.5247 4.01326 22.1534L4 13.5121V4.92823C4 4.41549 4.44201 4 4.98127 4H12.5795H12.5839Z" stroke="#42465A" stroke-linecap="round" stroke-linejoin="round"/>
<path d="M7.35928 10.2014H16.7432" stroke="#42465A" stroke-linecap="round" stroke-linejoin="round"/>
<path d="M7.35928 13.9143H16.7432" stroke="#42465A" stroke-linecap="round" stroke-linejoin="round"/>
<path d="M7.35928 17.6272H16.7432" stroke="#42465A" stroke-linecap="round" stroke-linejoin="round"/>
<path d="M14.9044 16.7697V14.984C14.9044 13.3972 16.7476 12.1109 18.6174 12.1109C20.4826 12.1109 22.3303 13.3972 22.3303 14.984V16.6902" fill="white"/>
<path d="M14.9044 16.7697V14.984C14.9044 13.3972 16.7476 12.1109 18.6174 12.1109C20.4826 12.1109 22.3303 13.3972 22.3303 14.984V16.6902" stroke="#42465A" stroke-linecap="round" stroke-linejoin="round"/>
<path d="M14.0514 16.3454H23.5149C24.0674 16.3454 24.5182 16.7963 24.5182 17.3488V23.9966C24.5182 24.5491 24.0674 25 23.5149 25H14.0514C13.4989 25 13.048 24.5491 13.048 23.9966V17.3532C13.048 16.8007 13.4989 16.3498 14.0514 16.3498V16.3454Z" fill="#EF666D" stroke="#42465A" stroke-linecap="round" stroke-linejoin="round"/>
<path d="M19.7401 19.7268C19.7401 20.3456 19.2362 20.8495 18.6173 20.8495C17.9985 20.8495 17.4946 20.3456 17.4946 19.7268C17.4946 19.108 17.9985 18.6041 18.6173 18.6041C19.2362 18.6041 19.7401 19.108 19.7401 19.7268Z" fill="#42465A"/>
<path d="M19.1168 20.2837H18.1223V22.6264H19.1168V20.2837Z" fill="#42465A"/>
</svg>
