<svg width="400" height="670" viewBox="0 0 400 670" fill="none" xmlns="http://www.w3.org/2000/svg">
<rect width="400" height="670" fill="white"/>
<rect width="400" height="58" fill="white"/>
<mask id="mask0_263_1113" style="mask-type:alpha" maskUnits="userSpaceOnUse" x="14" y="17" width="24" height="24">
<rect x="14" y="17" width="24" height="24" fill="#D9D9D9"/>
</mask>
<g mask="url(#mask0_263_1113)">
<path d="M23.0152 28.9994L30.248 36.2321C30.43 36.4141 30.5227 36.6397 30.526 36.9089C30.5292 37.1782 30.4397 37.4039 30.2577 37.5859C30.0756 37.7679 29.8499 37.8589 29.5807 37.8589C29.3116 37.8589 29.0859 37.7679 28.9038 37.5859L21.4578 30.1301C21.2936 29.9659 21.1762 29.7884 21.1057 29.5974C21.0352 29.4064 21 29.207 21 28.9994C21 28.7917 21.0352 28.5924 21.1057 28.4014C21.1762 28.2104 21.2936 28.0328 21.4578 27.8686L28.9038 20.4224C29.0859 20.2404 29.31 20.1478 29.576 20.1446C29.842 20.1414 30.066 20.2309 30.248 20.4129C30.43 20.5949 30.521 20.8205 30.521 21.0899C30.521 21.359 30.43 21.5846 30.248 21.7666L23.0152 28.9994Z" fill="#222222"/>
</g>
<path d="M143.367 76.123V102.637H140.086V76.123H143.367ZM122.742 96.3965V78.291H125.994V84.9121H132.41V78.291H135.633V96.3965H122.742ZM125.994 93.7305H132.41V87.4609H125.994V93.7305ZM160.785 77.5V88.5449H148.012V77.5H160.785ZM151.146 93.3496V90.8008H168.666V97.6562H154.398V99.7949H169.457V102.373H151.176V95.3125H165.502V93.3496H151.146ZM151.234 85.9961H157.562V80.1074H151.234V85.9961ZM165.443 89.5996V76.123H168.666V89.5996H165.443ZM194.169 76.1523V95.6934H190.917V85.9375H185.585V91.3867H173.193V77.8809H176.445V82.1582H182.363V77.8809H185.585V83.3008H190.917V76.1523H194.169ZM176.445 88.8086H182.363V84.6777H176.445V88.8086ZM176.708 102.08V93.7598H180.019V99.4434H194.755V102.08H176.708ZM220.288 79.668V82.3047H198.403V79.668H207.749V76.4746H210.972V79.668H220.288ZM197.319 99.7656V97.1289H207.749V93.877C203.179 93.5254 200.41 91.6797 200.425 88.75C200.41 85.5566 203.838 83.6523 209.36 83.6523C214.81 83.6523 218.281 85.5566 218.267 88.75C218.281 91.665 215.483 93.5107 210.972 93.877V97.1289H221.519V99.7656H197.319ZM203.765 88.75C203.75 90.4492 205.757 91.3135 209.36 91.3281C212.891 91.3135 214.927 90.4492 214.927 88.75C214.927 87.0801 212.891 86.2158 209.36 86.2012C205.757 86.2158 203.75 87.0801 203.765 88.75ZM251.344 76.123V89.6875H248.092V82.9785H242.819V80.3711H248.092V76.123H251.344ZM229.02 87.2266C233.282 85.9375 235.494 82.6709 235.494 79.1113V77.002H238.776V79.1113C238.761 82.3779 240.9 85.4688 245.016 86.7285L243.287 89.248C240.416 88.2959 238.336 86.4209 237.164 84.0186C236.022 86.6992 233.839 88.8086 230.719 89.834L229.02 87.2266ZM233.912 93.3789V90.8301H251.344V97.6855H237.135V99.707H252.194V102.285H233.942V95.2539H248.121V93.3789H233.912ZM276.672 76.123V91.8555H273.42V85.3809H268.908V82.7148H273.42V76.123H276.672ZM254.406 89.2188C258.669 87.7539 260.91 84.1943 260.91 80.6934V80.4883H255.402V77.8516H269.699V80.4883H264.221V80.6641C264.221 83.8867 266.359 87.1387 270.461 88.5156L268.82 91.0938C265.876 90.0977 263.796 88.0762 262.624 85.5859C261.467 88.3984 259.255 90.6836 256.105 91.7969L254.406 89.2188ZM258.713 97.5684C258.683 94.3896 262.126 92.5293 267.707 92.5293C273.317 92.5293 276.745 94.3896 276.76 97.5684C276.745 100.747 273.317 102.593 267.707 102.607C262.126 102.593 258.683 100.747 258.713 97.5684ZM261.935 97.5684C261.921 99.209 264.03 100.103 267.707 100.088C271.413 100.103 273.508 99.209 273.508 97.5684C273.508 95.9131 271.413 95.0195 267.707 95.0195C264.03 95.0195 261.921 95.9131 261.935 97.5684Z" fill="#222222"/>
<circle cx="128" cy="148" r="12" fill="#D9D9D9"/>
<circle cx="176" cy="148" r="12" fill="#D9D9D9"/>
<circle cx="224" cy="148" r="12" fill="#D9D9D9"/>
<circle cx="272" cy="148" r="12" fill="#D9D9D9"/>
<path d="M145.173 189.612C145.169 190.634 145.351 191.645 145.719 192.644C146.092 193.643 146.612 194.538 147.28 195.33C147.952 196.122 148.714 196.727 149.566 197.146L148.426 198.631C147.482 198.143 146.651 197.436 145.933 196.511C145.215 195.586 144.66 194.531 144.269 193.348C143.873 194.61 143.302 195.733 142.556 196.718C141.81 197.703 140.947 198.452 139.966 198.963L138.813 197.471C139.692 197.047 140.473 196.424 141.154 195.599C141.84 194.771 142.372 193.831 142.749 192.782C143.131 191.732 143.325 190.675 143.329 189.612V186.615H145.173V189.612ZM150.885 185.157H152.742V192.14H155.546V193.721H152.742V202.657H150.885V185.157ZM171.948 195.199H155.995V193.693H159.821V191.345C159.135 191.069 158.61 190.712 158.246 190.275C157.883 189.837 157.701 189.331 157.701 188.756C157.701 188.07 157.954 187.48 158.46 186.988C158.967 186.495 159.69 186.117 160.629 185.855C161.568 185.593 162.678 185.461 163.958 185.461C165.233 185.461 166.338 185.593 167.272 185.855C168.212 186.117 168.935 186.495 169.441 186.988C169.947 187.48 170.201 188.07 170.201 188.756C170.201 189.331 170.019 189.837 169.655 190.275C169.291 190.712 168.767 191.071 168.081 191.352V193.693H171.948V195.199ZM157.88 199.501C157.88 198.838 158.12 198.274 158.598 197.809C159.082 197.344 159.777 196.992 160.684 196.753C161.596 196.513 162.685 196.396 163.951 196.401C165.208 196.396 166.287 196.513 167.19 196.753C168.097 196.992 168.79 197.344 169.268 197.809C169.752 198.274 169.996 198.838 170 199.501C169.996 200.169 169.752 200.735 169.268 201.2C168.79 201.665 168.097 202.017 167.19 202.257C166.287 202.501 165.208 202.623 163.951 202.623C162.685 202.623 161.596 202.501 160.684 202.257C159.777 202.017 159.082 201.665 158.598 201.2C158.12 200.735 157.88 200.169 157.88 199.501ZM159.627 188.756C159.623 189.142 159.791 189.474 160.132 189.75C160.477 190.022 160.974 190.229 161.623 190.372C162.272 190.51 163.051 190.579 163.958 190.579C164.86 190.579 165.636 190.51 166.285 190.372C166.939 190.229 167.438 190.022 167.784 189.75C168.129 189.474 168.302 189.142 168.302 188.756C168.302 188.369 168.127 188.037 167.777 187.761C167.431 187.48 166.932 187.268 166.278 187.126C165.629 186.978 164.855 186.905 163.958 186.905C163.055 186.905 162.277 186.978 161.623 187.126C160.974 187.268 160.477 187.48 160.132 187.761C159.791 188.037 159.623 188.369 159.627 188.756ZM159.766 199.501C159.761 199.865 159.922 200.176 160.249 200.434C160.576 200.687 161.052 200.878 161.679 201.007C162.309 201.14 163.067 201.205 163.951 201.2C164.83 201.205 165.583 201.14 166.209 201.007C166.835 200.878 167.314 200.687 167.645 200.434C167.977 200.176 168.145 199.865 168.15 199.501C168.145 198.963 167.777 198.548 167.045 198.258C166.313 197.968 165.281 197.819 163.951 197.809C162.606 197.819 161.57 197.968 160.843 198.258C160.12 198.548 159.761 198.963 159.766 199.501ZM166.237 193.693V191.836C165.555 191.946 164.796 192.001 163.958 192.001C163.143 192.001 162.385 191.948 161.685 191.843V193.693H166.237ZM186.63 189.204H189.178V190.717H186.63V194.722H184.772V185.102H186.63V189.204ZM172.901 186.649H177.196V184.999H179.04V186.649H183.315V188.099H172.901V186.649ZM173.854 191.635C173.854 191.055 174.029 190.549 174.379 190.116C174.729 189.683 175.226 189.352 175.87 189.122C176.515 188.887 177.263 188.769 178.115 188.769C178.962 188.769 179.706 188.887 180.346 189.122C180.985 189.352 181.48 189.683 181.83 190.116C182.18 190.549 182.355 191.055 182.355 191.635C182.355 192.225 182.18 192.736 181.83 193.169C181.48 193.597 180.985 193.926 180.346 194.156C179.71 194.386 178.967 194.501 178.115 194.501C177.258 194.501 176.508 194.386 175.863 194.156C175.223 193.926 174.729 193.597 174.379 193.169C174.029 192.736 173.854 192.225 173.854 191.635ZM175.311 195.558H186.63V199.619H177.176V201.083H187.224V202.492H175.352V198.3H184.786V196.925H175.311V195.558ZM175.642 191.635C175.638 191.948 175.735 192.218 175.933 192.443C176.135 192.669 176.423 192.844 176.796 192.968C177.173 193.088 177.613 193.148 178.115 193.148C178.612 193.148 179.047 193.088 179.42 192.968C179.793 192.844 180.081 192.669 180.283 192.443C180.491 192.218 180.596 191.948 180.601 191.635C180.596 191.327 180.491 191.058 180.283 190.827C180.081 190.597 179.793 190.42 179.42 190.296C179.047 190.171 178.612 190.109 178.115 190.109C177.613 190.109 177.176 190.171 176.803 190.296C176.43 190.42 176.142 190.597 175.939 190.827C175.737 191.058 175.638 191.327 175.642 191.635ZM208.744 202.692H206.879V185.157H208.744V202.692ZM195.215 186.615H197.066V191.11H201.789V186.615H203.62V198.507H195.215V186.615ZM201.789 196.974V192.581H197.066V196.974H201.789ZM220.367 193.314H212.038V186.097H220.367V193.314ZM218.536 191.856V187.595H213.861V191.856H218.536ZM214.144 194.957H225.622V199.315H216.002V201H226.195V202.492H214.165V197.968H223.813V196.414H214.144V194.957ZM223.792 185.157H225.622V194.122H223.792V185.157ZM242.604 198.106H240.753V191.518H236.927V195.192H228.847V186.325H230.705V189.294H235.09V186.325H236.927V190.006H240.753V185.171H242.604V198.106ZM235.09 193.7V190.731H230.705V193.7H235.09ZM231.174 196.836H233.046V200.779H242.998V202.298H231.174V196.836ZM260.062 189.128H245.656V187.616H251.955V185.413H253.778V187.616H260.062V189.128ZM244.903 199.177H251.955V196.877C250.932 196.813 250.051 196.638 249.31 196.352C248.568 196.067 248.002 195.685 247.611 195.206C247.219 194.722 247.026 194.158 247.031 193.514C247.026 192.819 247.258 192.22 247.728 191.718C248.198 191.216 248.87 190.834 249.745 190.572C250.624 190.309 251.662 190.178 252.859 190.178C254.047 190.178 255.078 190.312 255.953 190.579C256.833 190.841 257.509 191.223 257.984 191.725C258.458 192.227 258.695 192.823 258.695 193.514C258.695 194.154 258.497 194.715 258.101 195.199C257.705 195.678 257.139 196.06 256.402 196.345C255.665 196.631 254.791 196.808 253.778 196.877V199.177H260.919V200.696H244.903V199.177ZM248.916 193.514C248.916 193.919 249.07 194.264 249.379 194.55C249.687 194.831 250.136 195.045 250.725 195.192C251.319 195.335 252.031 195.408 252.859 195.413C253.683 195.408 254.388 195.335 254.973 195.192C255.562 195.045 256.013 194.831 256.326 194.55C256.644 194.264 256.803 193.919 256.803 193.514C256.803 193.113 256.644 192.775 256.326 192.499C256.013 192.218 255.562 192.006 254.973 191.863C254.383 191.716 253.679 191.642 252.859 191.642C252.031 191.642 251.322 191.716 250.732 191.863C250.143 192.006 249.692 192.218 249.379 192.499C249.07 192.775 248.916 193.113 248.916 193.514ZM122.38 224.504L128.623 214.856H131.289V224.421H133.208V226.238H131.289V229H129.237V226.238H122.38V224.504ZM129.251 224.421V217.412H129.099L124.631 224.311V224.421H129.251ZM140.476 218.323C140.472 219.239 140.658 220.167 141.036 221.106C141.413 222.041 141.94 222.893 142.617 223.662C143.298 224.426 144.072 225.011 144.937 225.416L143.888 226.88C142.921 226.415 142.06 225.722 141.305 224.801C140.554 223.88 139.977 222.837 139.571 221.673C139.304 222.506 138.95 223.291 138.508 224.028C138.066 224.764 137.557 225.416 136.982 225.982C136.411 226.544 135.798 226.988 135.145 227.315L134.047 225.851C134.912 225.436 135.693 224.824 136.388 224.014C137.088 223.203 137.635 222.297 138.031 221.293C138.432 220.289 138.635 219.299 138.639 218.323V216.452H134.696V214.919H144.274V216.452H140.476V218.323ZM146.153 213.157H148.011V220.098H150.815V221.666H148.011V230.657H146.153V213.157ZM165.78 230.692H163.943V213.157H165.78V230.692ZM152.23 214.732H160.428V221.134H154.157V224.96C155.685 224.951 157.094 224.902 158.383 224.815C159.673 224.723 161.01 224.562 162.396 224.331L162.568 225.865C161.109 226.104 159.693 226.27 158.321 226.362C156.954 226.449 155.43 226.493 153.749 226.493H152.251V219.642H158.549V216.251H152.23V214.732ZM184.136 222.612H168.121V221.189H184.136V222.612ZM170.02 223.834H182.168V227.695H171.891V229.138H182.713V230.45H170.041V226.459H180.331V225.174H170.02V223.834ZM170.13 213.613H182.119V217.398H172.016V218.731H182.423V220.036H170.179V216.175H180.269V214.919H170.13V213.613ZM204.033 222.55H202.175V213.157H204.033V222.55ZM189.869 218.033C189.869 217.241 190.069 216.537 190.469 215.92C190.875 215.298 191.429 214.817 192.134 214.477C192.843 214.131 193.642 213.961 194.53 213.965C195.414 213.961 196.208 214.131 196.913 214.477C197.622 214.817 198.177 215.298 198.577 215.92C198.978 216.537 199.178 217.241 199.178 218.033C199.178 218.816 198.978 219.516 198.577 220.133C198.177 220.745 197.622 221.221 196.913 221.562C196.208 221.903 195.414 222.073 194.53 222.073C193.642 222.073 192.843 221.903 192.134 221.562C191.429 221.221 190.875 220.745 190.469 220.133C190.069 219.516 189.869 218.816 189.869 218.033ZM191.685 218.033C191.68 218.526 191.798 218.963 192.037 219.345C192.281 219.723 192.619 220.017 193.052 220.229C193.485 220.441 193.978 220.547 194.53 220.547C195.073 220.547 195.559 220.441 195.987 220.229C196.42 220.017 196.756 219.723 196.996 219.345C197.24 218.963 197.362 218.526 197.362 218.033C197.362 217.541 197.24 217.103 196.996 216.721C196.756 216.339 196.42 216.044 195.987 215.837C195.559 215.625 195.073 215.522 194.53 215.526C193.978 215.522 193.485 215.625 193.052 215.837C192.619 216.044 192.281 216.339 192.037 216.721C191.798 217.103 191.68 217.541 191.685 218.033ZM192.576 223.399H194.392V225.36H202.189V223.399H204.033V230.436H192.576V223.399ZM202.189 228.924V226.825H194.392V228.924H202.189ZM214.73 219.311H208.964V221.742C210.58 221.737 211.86 221.707 212.803 221.652C213.747 221.592 214.689 221.475 215.628 221.3L215.808 222.812C214.795 222.983 213.773 223.095 212.741 223.151C211.71 223.201 210.26 223.229 208.39 223.233H207.127V217.902H212.886V215.692H207.092V214.214H214.73V219.311ZM209.102 224.822H220.987V230.678H219.136V226.32H209.102V224.822ZM215.842 219.366H219.136V217.204H215.842V215.72H219.136V213.171H220.987V223.931H219.136V220.865H215.842V219.366ZM236.919 220.25H239.723V221.79H236.919V230.657H235.082V213.157H236.919V220.25ZM223.19 215.899H227.506V213.385H229.357V215.899H233.556V217.412H223.19V215.899ZM224.088 222.778C224.088 221.99 224.274 221.288 224.647 220.671C225.02 220.054 225.538 219.573 226.201 219.228C226.864 218.878 227.612 218.703 228.446 218.703C229.27 218.703 230.011 218.878 230.669 219.228C231.332 219.573 231.85 220.057 232.223 220.678C232.601 221.295 232.789 221.995 232.789 222.778C232.789 223.565 232.601 224.267 232.223 224.884C231.85 225.501 231.332 225.982 230.669 226.327C230.011 226.673 229.27 226.845 228.446 226.845C227.612 226.845 226.864 226.673 226.201 226.327C225.538 225.982 225.02 225.501 224.647 224.884C224.274 224.267 224.088 223.565 224.088 222.778ZM225.863 222.778C225.858 223.275 225.966 223.715 226.187 224.097C226.408 224.479 226.714 224.776 227.106 224.988C227.502 225.195 227.948 225.298 228.446 225.298C228.934 225.298 229.371 225.195 229.758 224.988C230.149 224.776 230.455 224.479 230.676 224.097C230.902 223.715 231.017 223.275 231.021 222.778C231.017 222.285 230.902 221.845 230.676 221.459C230.455 221.072 230.149 220.773 229.758 220.561C229.371 220.344 228.934 220.236 228.446 220.236C227.948 220.236 227.502 220.344 227.106 220.561C226.714 220.773 226.408 221.072 226.187 221.459C225.966 221.845 225.858 222.285 225.863 222.778ZM245.503 217.936C245.503 218.894 245.635 219.838 245.897 220.768C246.164 221.693 246.562 222.541 247.092 223.309C247.621 224.074 248.263 224.686 249.019 225.146L247.976 226.583C247.184 226.104 246.507 225.453 245.945 224.628C245.384 223.804 244.946 222.867 244.633 221.818C244.302 222.959 243.834 223.977 243.231 224.87C242.633 225.759 241.919 226.456 241.09 226.963L239.93 225.581C240.731 225.103 241.415 224.463 241.981 223.662C242.552 222.86 242.983 221.974 243.273 221.003C243.563 220.027 243.708 219.032 243.708 218.019V214.753H245.503V217.936ZM247.112 219.311H249.84V213.496H251.588V229.794H249.84V220.851H247.112V219.311ZM253.438 213.157H255.22V230.657H253.438V213.157ZM273.072 228.475H257.057V226.942H260.89V222.363C260.153 221.963 259.582 221.454 259.177 220.837C258.772 220.215 258.569 219.52 258.569 218.751C258.569 217.849 258.843 217.052 259.391 216.362C259.944 215.667 260.708 215.13 261.684 214.753C262.665 214.371 263.777 214.177 265.02 214.173C266.267 214.177 267.382 214.371 268.362 214.753C269.343 215.13 270.109 215.667 270.662 216.362C271.214 217.052 271.491 217.849 271.491 218.751C271.491 219.511 271.293 220.197 270.897 220.809C270.505 221.417 269.951 221.924 269.232 222.329V226.942H273.072V228.475ZM260.372 218.751C260.372 219.368 260.568 219.912 260.959 220.381C261.35 220.846 261.898 221.208 262.603 221.465C263.307 221.719 264.113 221.845 265.02 221.845C265.922 221.845 266.725 221.719 267.43 221.465C268.139 221.208 268.691 220.844 269.087 220.374C269.483 219.905 269.681 219.364 269.681 218.751C269.681 218.13 269.483 217.587 269.087 217.122C268.691 216.652 268.141 216.293 267.437 216.044C266.732 215.791 265.927 215.667 265.02 215.671C264.113 215.667 263.307 215.791 262.603 216.044C261.898 216.293 261.35 216.652 260.959 217.122C260.568 217.587 260.372 218.13 260.372 218.751ZM267.361 226.942V223.04C266.624 223.21 265.844 223.296 265.02 223.296C264.219 223.296 263.45 223.213 262.713 223.047V226.942H267.361ZM275.931 229.131C275.678 229.131 275.443 229.069 275.227 228.945C275.015 228.82 274.847 228.652 274.723 228.441C274.598 228.229 274.538 227.999 274.543 227.75C274.538 227.501 274.598 227.271 274.723 227.059C274.847 226.848 275.015 226.68 275.227 226.555C275.443 226.431 275.678 226.369 275.931 226.369C276.175 226.369 276.403 226.431 276.615 226.555C276.827 226.68 276.995 226.848 277.119 227.059C277.248 227.271 277.312 227.501 277.312 227.75C277.312 227.999 277.248 228.229 277.119 228.441C276.995 228.652 276.827 228.82 276.615 228.945C276.403 229.069 276.175 229.131 275.931 229.131Z" fill="#222222"/>
</svg>
