<svg width="400" height="727" viewBox="0 0 400 727" fill="none" xmlns="http://www.w3.org/2000/svg">
<rect width="400" height="727" fill="white"/>
<rect width="400" height="58" fill="white"/>
<mask id="mask0_250_1061" style="mask-type:alpha" maskUnits="userSpaceOnUse" x="14" y="17" width="24" height="24">
<rect x="14" y="17" width="24" height="24" fill="#D9D9D9"/>
</mask>
<g mask="url(#mask0_250_1061)">
<path d="M23.0152 28.9994L30.248 36.2321C30.43 36.4141 30.5227 36.6397 30.526 36.9089C30.5292 37.1782 30.4397 37.4039 30.2577 37.5859C30.0756 37.7679 29.8499 37.8589 29.5807 37.8589C29.3116 37.8589 29.0859 37.7679 28.9038 37.5859L21.4578 30.1301C21.2936 29.9659 21.1762 29.7884 21.1057 29.5974C21.0352 29.4064 21 29.207 21 28.9994C21 28.7917 21.0352 28.5924 21.1057 28.4014C21.1762 28.2104 21.2936 28.0328 21.4578 27.8686L28.9038 20.4224C29.0859 20.2404 29.31 20.1478 29.576 20.1446C29.842 20.1414 30.066 20.2309 30.248 20.4129C30.43 20.5949 30.521 20.8205 30.521 21.0899C30.521 21.359 30.43 21.5846 30.248 21.7666L23.0152 28.9994Z" fill="#222222"/>
</g>
<path d="M187.503 114.293V116.098H165.246V114.293H175.253V108.359H167.871V96.957H184.742V108.359H177.359V114.293H187.503ZM169.976 106.637H182.664V98.6797H169.976V106.637ZM207.697 94.9062V104.477H211.771V106.336H207.697V119.215H205.564V94.9062H207.697ZM189.896 113.391V96.9844H192.029V103.41H199.139V96.9844H201.271V113.391H189.896ZM192.029 111.586H199.139V105.133H192.029V111.586ZM219.415 95.8086C223.051 95.8223 225.69 98.0371 225.704 101.195C225.69 104.367 223.051 106.555 219.415 106.555C215.737 106.555 213.085 104.367 213.098 101.195C213.085 98.0371 215.737 95.8223 219.415 95.8086ZM215.204 101.195C215.176 103.328 216.967 104.805 219.415 104.805C221.821 104.805 223.626 103.328 223.626 101.195C223.626 99.0898 221.821 97.5996 219.415 97.6133C216.967 97.5996 215.176 99.0898 215.204 101.195ZM216.79 110.301V108.578H232.594V114.43H218.95V117.164H233.469V118.887H216.844V112.816H230.461V110.301H216.79ZM230.461 107.402V94.9062H232.594V107.402H230.461ZM161.759 133.934V151.898H159.599V143.23H154.212V141.426H159.599V133.934H161.759ZM141.989 147.332C147.581 145.486 151.477 141.986 151.97 137.598H143.22V135.793H154.321C154.294 142.041 149.823 146.799 142.919 149.055L141.989 147.332ZM146.282 157.695V150.066H148.47V155.891H162.388V157.695H146.282ZM184.249 133.906V140.25H187.914V142.027H184.249V148.508H182.117V133.906H184.249ZM165.273 146.785C171.138 145.09 174.884 141.713 175.322 137.488H166.339V135.711H177.632C177.619 141.904 173.257 146.443 166.175 148.535L165.273 146.785ZM168.609 153.457C168.595 150.545 171.726 148.768 176.566 148.781C181.447 148.768 184.523 150.545 184.523 153.457C184.523 156.41 181.447 158.16 176.566 158.16C171.726 158.16 168.595 156.41 168.609 153.457ZM170.742 153.457C170.714 155.289 172.997 156.451 176.566 156.438C180.134 156.451 182.445 155.289 182.445 153.457C182.445 151.625 180.134 150.49 176.566 150.504C172.997 150.49 170.714 151.625 170.742 153.457ZM211.143 153.32V155.098H188.885V153.32H198.893V148.07H191.51V135.629H193.67V140.031H206.303V135.629H208.408V148.07H200.998V153.32H211.143ZM193.67 146.32H206.303V141.781H193.67V146.32ZM232.676 133.906V148.645H230.516V143.094H226.387V141.316H230.516V133.906H232.676ZM212.551 138.227V136.477H218.594V133.688H220.7V136.477H226.743V138.227H212.551ZM214.001 143.805C214.001 141.262 216.338 139.484 219.633 139.484C222.942 139.484 225.266 141.262 225.294 143.805C225.266 146.43 222.942 148.152 219.633 148.152C216.338 148.152 214.001 146.43 214.001 143.805ZM216.051 143.805C216.051 145.418 217.514 146.484 219.633 146.512C221.753 146.484 223.215 145.418 223.215 143.805C223.215 142.246 221.753 141.152 219.633 141.152C217.514 141.152 216.051 142.246 216.051 143.805ZM216.79 157.887V149.957H232.676V157.887H216.79ZM218.922 156.137H230.571V151.68H218.922V156.137ZM258.312 145.473V147.25H236.163V145.473H258.312ZM237.421 142.301C241.659 141.809 245.747 139.717 245.843 136.941H238.187V135.164H256.343V136.941H248.632C248.728 139.689 252.775 141.809 257.081 142.301L256.288 144.023C252.31 143.518 248.577 141.727 247.237 139.033C245.898 141.727 242.193 143.518 238.187 144.023L237.421 142.301ZM238.843 153.785C238.829 150.996 241.987 149.383 247.237 149.383C252.446 149.383 255.577 150.996 255.605 153.785C255.577 156.602 252.446 158.16 247.237 158.16C241.987 158.16 238.829 156.602 238.843 153.785ZM241.03 153.785C241.003 155.48 243.341 156.451 247.237 156.438C251.093 156.451 253.431 155.48 253.444 153.785C253.431 152.076 251.093 151.105 247.237 151.078C243.341 151.105 241.003 152.076 241.03 153.785Z" fill="black"/>
<g clip-path="url(#clip0_250_1061)">
<circle cx="200" cy="256" r="70" fill="#F2F3F7"/>
<path d="M217.598 218.666H182.012C178.558 218.666 175.732 221.492 175.732 224.946V287.053C175.732 290.507 178.558 293.333 182.012 293.333H217.598C221.052 293.333 223.877 290.507 223.877 287.053V224.946C223.877 221.492 221.052 218.666 217.598 218.666ZM219.691 280.501H179.919V227.562H219.691V280.501Z" fill="#EF403C"/>
<path d="M210.661 260.082H208.693V262.05H210.661V260.082Z" fill="#EF403C"/>
<path d="M210.661 256.129H208.693V258.096H210.661V256.129Z" fill="#EF403C"/>
<path d="M210.661 250.191H208.693V254.126H210.661V250.191Z" fill="#EF403C"/>
<path d="M208.698 258.119H206.73V260.087H208.698V258.119Z" fill="#EF403C"/>
<path d="M206.708 260.082H204.74V262.05H206.708V260.082Z" fill="#EF403C"/>
<path d="M204.741 256.129H202.773V260.085H204.741V256.129Z" fill="#EF403C"/>
<path d="M200.788 254.123H198.82V258.079H200.788V254.123Z" fill="#EF403C"/>
<path d="M208.693 256.091V254.123H204.737V256.091H208.693Z" fill="#EF403C"/>
<path d="M196.828 252.176V250.209H192.872V252.176H196.828Z" fill="#EF403C"/>
<path d="M202.754 252.176V250.209H198.798V252.176H202.754Z" fill="#EF403C"/>
<path d="M202.773 240.326V248.238H210.685V240.326H202.773ZM208.697 246.25H204.741V242.294H208.697V246.25Z" fill="#EF403C"/>
<path d="M188.938 254.162V262.074H196.849V254.162H188.938ZM194.861 260.085H190.905V256.13H194.861V260.085Z" fill="#EF403C"/>
<path d="M188.938 240.326V248.238H196.849V240.326H188.938ZM194.861 246.25H190.905V242.294H194.861V246.25Z" fill="#EF403C"/>
<path d="M202.776 260.082H198.82V262.05H202.776V260.082Z" fill="#EF403C"/>
<path d="M202.753 254.123H200.785V256.091H202.753V254.123Z" fill="#EF403C"/>
<path d="M200.788 240.326H198.82V244.282H200.788V240.326Z" fill="#EF403C"/>
<path d="M190.905 250.209H188.938V252.176H190.905V250.209Z" fill="#EF403C"/>
<path d="M200.788 246.252H198.82V248.219H200.788V246.252Z" fill="#EF403C"/>
<path d="M204.741 252.154H202.773V254.122H204.741V252.154Z" fill="#EF403C"/>
<path d="M206.708 250.191H204.74V252.159H206.708V250.191Z" fill="#EF403C"/>
<path d="M198.796 248.217H196.828V250.184H198.796V248.217Z" fill="#EF403C"/>
<path d="M198.796 252.174H196.828V254.141H198.796V252.174Z" fill="#EF403C"/>
<path d="M200.789 289.314C202.257 289.314 203.447 288.124 203.447 286.656C203.447 285.188 202.257 283.998 200.789 283.998C199.321 283.998 198.131 285.188 198.131 286.656C198.131 288.124 199.321 289.314 200.789 289.314Z" fill="white"/>
<path d="M206.734 222.328H194.865V224.338H206.734V222.328Z" fill="white"/>
</g>
<path d="M107.49 356.805C107.49 360.074 110.689 363.367 115.13 364.141L113.959 366.32C110.408 365.582 107.502 363.426 106.119 360.578C104.724 363.402 101.818 365.57 98.2789 366.32L97.1305 364.141C101.502 363.344 104.713 360.062 104.724 356.805V355.234H107.49V356.805ZM96.5445 372.391V370.234H115.904V372.391H96.5445ZM127.588 355.961V369.836H117.557V355.961H127.588ZM120.111 367.75H124.986V358H120.111V367.75ZM130.799 375.086V353.898H133.4V362.031H136.658V364.234H133.4V375.086H130.799ZM154.295 365.008V367.07H139.436V355.562H154.108V357.672H142.085V360.227H153.616V362.266H142.085V365.008H154.295ZM137.069 372.508V370.375H156.428V372.508H137.069ZM174.862 354.742V356.852H171.956V360.906H174.745V362.945H168.276V365.125H176.644V367.188H157.331V365.125H165.651V362.945H159.183V360.906H161.972V356.852H159.065V354.742H174.862ZM159.722 374.664V368.711H162.323V372.555H174.464V374.664H159.722ZM164.573 360.906H169.331V356.852H164.573V360.906ZM187.226 355.094C191.691 355.094 195.136 357.473 195.125 361.07C195.136 364.715 191.691 367.094 187.226 367.094C182.785 367.094 179.363 364.715 179.375 361.07C179.363 357.473 182.785 355.094 187.226 355.094ZM177.593 372.414V370.281H196.953V372.414H177.593ZM181.882 361.07C181.871 363.473 184.144 364.949 187.226 364.961C190.32 364.949 192.57 363.473 192.57 361.07C192.57 358.727 190.32 357.18 187.226 357.203C184.144 357.18 181.871 358.727 181.882 361.07ZM217.215 370.469V372.625H197.855V370.469H206.199V367.023H200.152V360.086H212.34V357.461H200.105V355.352H214.918V362.148H202.754V364.891H215.41V367.023H208.777V370.469H217.215ZM241.075 353.898V369.555H238.474V364.023H235.474V361.867H238.474V359.852H235.474V357.742H238.474V353.898H241.075ZM223.356 364.609C224.095 364.609 224.903 364.609 225.747 364.598V357.578H223.895V355.492H235.169V357.578H233.294V364.352C234.091 364.293 234.864 364.223 235.614 364.141L235.731 366.039C231.712 366.684 227.013 366.766 223.638 366.766L223.356 364.609ZM227.153 374.664V368.336H229.778V372.555H241.614V374.664H227.153ZM228.278 364.562C229.099 364.551 229.942 364.516 230.786 364.48V357.578H228.278V364.562ZM261.244 353.898V375.109H258.665V353.898H261.244ZM244.744 357.859V355.75H254.728V363.695H247.439V367.961C250.779 367.938 253.65 367.762 256.955 367.211L257.189 369.344C253.591 369.965 250.427 370.105 246.619 370.094H244.767V361.633H252.08V357.859H244.744ZM280.451 353.898V362.336H283.709V364.492H280.451V375.086H277.873V353.898H280.451ZM263.74 359.242V357.156H268.756V354.203H271.357V357.156H276.232V359.242H263.74ZM264.725 365.617C264.701 362.688 266.975 360.613 270.068 360.625C273.115 360.613 275.377 362.688 275.389 365.617C275.377 368.535 273.115 370.586 270.068 370.586C266.975 370.586 264.701 368.535 264.725 365.617ZM267.209 365.617C267.197 367.34 268.404 368.441 270.068 368.43C271.697 368.441 272.881 367.34 272.904 365.617C272.881 363.895 271.697 362.758 270.068 362.758C268.404 362.758 267.197 363.895 267.209 365.617ZM302.401 353.898V375.086H299.916V353.898H302.401ZM283.955 368.758C288.338 366.168 290.354 362.852 290.752 358.586H285.034V356.477H293.33C293.33 358.527 293.073 360.449 292.498 362.242H295.44V354.414H297.901V374.078H295.44V364.328H291.643C290.413 366.754 288.42 368.875 285.432 370.609L283.955 368.758Z" fill="#EF403C"/>
<path d="M167.818 395.814V407.363H166.429V401.791H162.966V400.631H166.429V395.814H167.818ZM155.109 404.428C158.704 403.241 161.209 400.991 161.525 398.17H155.9V397.01H163.037C163.019 401.026 160.145 404.085 155.707 405.535L155.109 404.428ZM157.869 411.09V406.186H159.275V409.93H168.222V411.09H157.869ZM182.276 395.797V399.875H184.632V401.018H182.276V405.184H180.905V395.797H182.276ZM170.077 404.076C173.848 402.986 176.256 400.815 176.537 398.1H170.763V396.957H178.022C178.014 400.938 175.21 403.856 170.657 405.201L170.077 404.076ZM172.222 408.365C172.213 406.493 174.226 405.351 177.337 405.359C180.475 405.351 182.452 406.493 182.452 408.365C182.452 410.264 180.475 411.389 177.337 411.389C174.226 411.389 172.213 410.264 172.222 408.365ZM173.593 408.365C173.575 409.543 175.043 410.29 177.337 410.281C179.631 410.29 181.116 409.543 181.116 408.365C181.116 407.188 179.631 406.458 177.337 406.467C175.043 406.458 173.575 407.188 173.593 408.365ZM199.565 408.277V409.42H185.256V408.277H191.69V404.902H186.944V396.904H188.332V399.734H196.453V396.904H197.807V404.902H193.043V408.277H199.565ZM188.332 403.777H196.453V400.859H188.332V403.777ZM213.408 395.797V405.271H212.019V401.703H209.365V400.561H212.019V395.797H213.408ZM200.47 398.574V397.449H204.355V395.656H205.709V397.449H209.593V398.574H200.47ZM201.402 402.16C201.402 400.525 202.905 399.383 205.023 399.383C207.15 399.383 208.644 400.525 208.662 402.16C208.644 403.848 207.15 404.955 205.023 404.955C202.905 404.955 201.402 403.848 201.402 402.16ZM202.72 402.16C202.72 403.197 203.661 403.883 205.023 403.9C206.385 403.883 207.326 403.197 207.326 402.16C207.326 401.158 206.385 400.455 205.023 400.455C203.661 400.455 202.72 401.158 202.72 402.16ZM203.195 411.213V406.115H213.408V411.213H203.195ZM204.566 410.088H212.054V407.223H204.566V410.088ZM229.888 403.232V404.375H215.649V403.232H229.888ZM216.458 401.193C219.183 400.877 221.811 399.532 221.872 397.748H216.95V396.605H228.622V397.748H223.665C223.727 399.515 226.328 400.877 229.097 401.193L228.587 402.301C226.029 401.976 223.63 400.824 222.769 399.093C221.907 400.824 219.525 401.976 216.95 402.301L216.458 401.193ZM217.372 408.576C217.363 406.783 219.394 405.746 222.769 405.746C226.117 405.746 228.13 406.783 228.148 408.576C228.13 410.387 226.117 411.389 222.769 411.389C219.394 411.389 217.363 410.387 217.372 408.576ZM218.778 408.576C218.761 409.666 220.264 410.29 222.769 410.281C225.247 410.29 226.75 409.666 226.759 408.576C226.75 407.478 225.247 406.854 222.769 406.836C220.264 406.854 218.761 407.478 218.778 408.576ZM237.965 396.078C241.437 396.078 243.476 397.036 243.485 398.768C243.476 400.543 241.437 401.501 237.965 401.51C234.476 401.501 232.428 400.543 232.428 398.768C232.428 397.036 234.476 396.078 237.965 396.078ZM230.846 403.689V402.564H245.084V403.689H230.846ZM232.569 406.098V405.043H243.256V408.541H233.975V410.158H243.731V411.248H232.604V407.521H241.903V406.098H232.569ZM233.87 398.768C233.852 399.857 235.372 400.455 237.965 400.455C240.558 400.455 242.07 399.857 242.079 398.768C242.07 397.739 240.558 397.124 237.965 397.115C235.372 397.124 233.852 397.739 233.87 398.768ZM147.712 435.26V436.42H133.404V435.26H139.855V431.463H141.243V435.26H147.712ZM134.107 430.9C136.752 430.452 139.82 428.264 139.82 425.768V425.381H134.581V424.221H146.482V425.381H141.243V425.768C141.252 428.264 144.328 430.408 147.027 430.848L146.464 431.938C144.073 431.463 141.551 429.942 140.549 427.78C139.547 429.969 137.033 431.524 134.687 432.008L134.107 430.9ZM161.415 422.797V438.424H160.044V422.797H161.415ZM148.688 434.258C150.024 434.249 151.553 434.24 153.135 434.188V432.482C151.254 432.289 150.042 431.217 150.059 429.652C150.042 427.886 151.544 426.743 153.803 426.752C156.062 426.743 157.591 427.886 157.583 429.652C157.591 431.199 156.378 432.271 154.524 432.482V434.135C156.036 434.064 157.565 433.959 159.006 433.766L159.112 434.82C155.623 435.383 151.799 435.436 148.899 435.436L148.688 434.258ZM149.022 425.855V424.73H153.135V422.814H154.524V424.73H158.602V425.855H149.022ZM151.342 429.652C151.334 430.733 152.353 431.445 153.803 431.428C155.262 431.445 156.273 430.733 156.264 429.652C156.273 428.562 155.262 427.824 153.803 427.824C152.353 427.824 151.334 428.562 151.342 429.652ZM176.014 422.744V426.541H178.387V427.684H176.014V431.393H174.643V422.744H176.014ZM163.832 425.328V424.221H167.805V422.639H169.176V424.221H173.148V425.328H163.832ZM164.728 428.598C164.72 427.016 166.214 426.04 168.49 426.031C170.758 426.04 172.234 427.016 172.252 428.598C172.234 430.188 170.758 431.155 168.49 431.164C166.214 431.155 164.72 430.188 164.728 428.598ZM166.047 433.238V432.201H176.014V435.664H167.435V437.193H176.594V438.248H166.082V434.645H174.643V433.238H166.047ZM166.047 428.598C166.038 429.538 167.005 430.127 168.49 430.127C169.967 430.127 170.934 429.538 170.951 428.598C170.934 427.666 169.967 427.06 168.49 427.051C167.005 427.06 166.038 427.666 166.047 428.598ZM190.991 424.256C191 426.462 193.865 428.36 196.686 428.756L196.124 429.881C193.698 429.477 191.29 428.132 190.288 426.216C189.286 428.149 186.886 429.477 184.452 429.881L183.889 428.756C186.711 428.36 189.567 426.497 189.567 424.256V423.359H190.991V424.256ZM183.151 432.764V431.604H197.389V432.764H190.921V438.424H189.567V432.764H183.151ZM207.796 433.291C207.787 434.671 208.535 436.139 210.02 436.982C211.514 436.06 212.305 434.495 212.296 433.291V432.43H213.65V433.291C213.641 434.899 214.827 436.499 216.831 437.193L216.146 438.213C214.581 437.659 213.492 436.569 212.947 435.26C212.463 436.525 211.505 437.729 210.064 438.336C208.543 437.756 207.577 436.613 207.111 435.304C206.548 436.561 205.476 437.65 203.982 438.213L203.279 437.193C205.256 436.455 206.443 434.785 206.46 433.291V432.43H207.796V433.291ZM202.874 427.385C202.866 425.205 204.597 423.72 206.97 423.729C209.343 423.72 211.057 425.205 211.066 427.385C211.057 429.529 209.343 431.006 206.97 431.006C204.597 431.006 202.866 429.529 202.874 427.385ZM204.228 427.385C204.21 428.835 205.362 429.854 206.97 429.863C208.561 429.854 209.712 428.835 209.712 427.385C209.712 425.926 208.561 424.889 206.97 424.906C205.362 424.889 204.21 425.926 204.228 427.385ZM214.036 431.744V422.814H215.408V431.744H214.036ZM220.884 432.184V434.012H228.688V432.184H230.077V438.213H219.512V432.184H220.884ZM217.702 431.076V429.934H231.94V431.076H217.702ZM218.51 427.719C221.297 427.341 224.118 425.697 224.118 423.711V422.973H225.542V423.711C225.533 425.636 228.381 427.367 231.132 427.719L230.622 428.826C228.205 428.466 225.823 427.235 224.83 425.486C223.837 427.244 221.446 428.466 219.038 428.826L218.51 427.719ZM220.884 437.105H228.688V435.102H220.884V437.105ZM245.783 422.797V438.424H244.412V422.797H245.783ZM233.918 434.398V424.344H235.272V433.203C237.662 433.186 240.123 433.001 242.742 432.447L242.936 433.625C240.158 434.205 237.689 434.398 235.184 434.398H233.918ZM260.189 422.797V428.984H262.808V430.145H260.189V438.459H258.818V422.797H260.189ZM248.781 434.539V424.326H256.076V425.469H250.152V433.379C252.982 433.37 254.977 433.247 257.306 432.816L257.482 434.012C255.03 434.451 252.982 434.539 250.011 434.539H248.781ZM264.944 437.105C264.329 437.097 263.802 436.587 263.819 435.963C263.802 435.348 264.329 434.838 264.944 434.838C265.568 434.838 266.078 435.348 266.069 435.963C266.078 436.587 265.568 437.097 264.944 437.105Z" fill="#222222"/>
<circle cx="183" cy="488.5" r="4" fill="white" stroke="#323C59"/>
<circle cx="200" cy="488.5" r="4.5" fill="#323C59"/>
<circle cx="217" cy="488.5" r="4" fill="white" stroke="#323C59"/>
<defs>
<clipPath id="clip0_250_1061">
<rect width="140" height="140" fill="white" transform="translate(130 186)"/>
</clipPath>
</defs>
</svg>
