<svg width="400" height="86" viewBox="0 0 400 86" fill="none" xmlns="http://www.w3.org/2000/svg">
<rect width="400" height="86" fill="white"/>
<rect x="20" width="160" height="56" rx="8" fill="#EEEEEE"/>
<path d="M72.3379 26.0352V27.5586H69.623V36.6406H67.7676V19.1602H69.623V26.0352H72.3379ZM56.6543 32.2461V20.8594H58.4902V30.7031C60.9316 30.6934 63.4805 30.4883 66.2637 29.9219L66.4785 31.4844C63.4805 32.0801 60.7266 32.2559 58.0996 32.2461H56.6543ZM88.8324 27.2656V28.7695H81.7621V30.4492C84.9652 30.625 86.8695 31.6992 86.8793 33.5352C86.8695 35.5176 84.6039 36.6309 80.8441 36.6211C77.0355 36.6309 74.7699 35.5176 74.7699 33.5352C74.7699 31.6992 76.6742 30.6152 79.9262 30.4492V28.7695H72.8754V27.2656H88.8324ZM73.7152 24.8828C76.8598 24.5605 79.3402 23.1348 79.5941 21.4453H74.3402V19.9609H87.4066V21.4453H82.0941C82.348 23.1445 84.809 24.5605 88.0121 24.8828L87.348 26.3477C84.3109 25.9961 81.8012 24.7168 80.8539 22.8613C79.8871 24.7168 77.3969 25.9961 74.3598 26.3477L73.7152 24.8828ZM76.6449 33.5352C76.6352 34.5996 78.1684 35.2148 80.8441 35.1953C83.4809 35.2148 85.0238 34.5996 85.0238 33.5352C85.0238 32.4512 83.4809 31.8652 80.8441 31.8555C78.1684 31.8652 76.6352 32.4512 76.6449 33.5352ZM104.819 19.1602V36.6602H103.042V19.1602H104.819ZM89.9559 26.7188C89.9559 22.9297 91.4402 20.5566 93.7254 20.5664C95.8543 20.5566 97.2898 22.5781 97.5047 25.8594H99.4871V19.4922H101.264V35.8008H99.4871V27.3633H97.5145C97.3484 30.7812 95.8934 32.9004 93.7254 32.8906C91.4402 32.9004 89.9559 30.5176 89.9559 26.7188ZM91.6746 26.7188C91.6746 29.502 92.4656 31.1426 93.7254 31.1328C95.0145 31.1426 95.8152 29.502 95.8152 26.7188C95.8152 23.9258 95.0145 22.2949 93.7254 22.3047C92.4656 22.2949 91.6746 23.9258 91.6746 26.7188ZM124.761 19.1602V26.25H127.574V27.793H124.761V36.6602H122.925V19.1602H124.761ZM111.031 23.418V21.8945H115.347V19.3945H117.203V21.8945H121.402V23.418H111.031ZM111.929 28.7695C111.929 26.3867 113.765 24.707 116.285 24.707C118.795 24.707 120.63 26.3867 120.64 28.7695C120.63 31.1719 118.795 32.8418 116.285 32.8516C113.765 32.8418 111.929 31.1719 111.929 28.7695ZM113.707 28.7695C113.697 30.293 114.791 31.3086 116.285 31.2891C117.769 31.3086 118.853 30.293 118.863 28.7695C118.853 27.2754 117.769 26.2402 116.285 26.2305C114.791 26.2402 113.697 27.2754 113.707 28.7695ZM142.564 19.1602V36.6602H140.689V19.1602H142.564ZM128.189 31.9727C132.838 29.7559 135.113 26.6016 135.475 22.5195H129.029V21.0352H137.35C137.35 26.1621 135.172 30.5957 129.166 33.4766L128.189 31.9727Z" fill="#323C59"/>
<rect x="190" width="190" height="56" rx="8" fill="#323C59"/>
<path d="M257.748 23.6133C257.729 26.709 259.536 29.8828 262.143 31.1523L260.991 32.6367C259.086 31.6406 257.612 29.6875 256.84 27.3535C256.059 29.834 254.526 31.9336 252.534 32.9688L251.381 31.4648C254.067 30.1758 255.883 26.8164 255.893 23.6133V20.625H257.748V23.6133ZM263.452 36.6602V19.1602H265.307V26.1328H268.12V27.7148H265.307V36.6602H263.452ZM284.516 27.6953V29.1992H268.559V27.6953H272.387V25.3418C271.03 24.7949 270.268 23.916 270.278 22.7539C270.268 20.6738 272.68 19.4629 276.528 19.4727C280.366 19.4629 282.768 20.6738 282.778 22.7539C282.768 23.916 282.007 24.7949 280.649 25.3516V27.6953H284.516ZM270.454 33.4961C270.454 31.4941 272.72 30.3906 276.528 30.3906C280.288 30.3906 282.554 31.4941 282.563 33.4961C282.554 35.5176 280.288 36.6211 276.528 36.6211C272.72 36.6211 270.454 35.5176 270.454 33.4961ZM272.192 22.7539C272.182 23.9258 273.804 24.5801 276.528 24.5898C279.233 24.5801 280.874 23.9258 280.864 22.7539C280.874 21.582 279.233 20.9082 276.528 20.8984C273.804 20.9082 272.182 21.582 272.192 22.7539ZM272.329 33.4961C272.319 34.5898 273.852 35.2148 276.528 35.1953C279.165 35.2148 280.708 34.5898 280.708 33.4961C280.708 32.4219 279.165 31.8164 276.528 31.8164C273.852 31.8164 272.319 32.4219 272.329 33.4961ZM274.262 27.6953H278.813V25.8301C278.13 25.9375 277.358 25.9961 276.528 25.9961C275.708 25.9961 274.946 25.9375 274.262 25.8398V27.6953ZM299.077 19.1602V26.25H301.89V27.793H299.077V36.6602H297.241V19.1602H299.077ZM285.347 23.418V21.8945H289.663V19.3945H291.519V21.8945H295.718V23.418H285.347ZM286.245 28.7695C286.245 26.3867 288.081 24.707 290.601 24.707C293.111 24.707 294.946 26.3867 294.956 28.7695C294.946 31.1719 293.111 32.8418 290.601 32.8516C288.081 32.8418 286.245 31.1719 286.245 28.7695ZM288.023 28.7695C288.013 30.293 289.107 31.3086 290.601 31.2891C292.085 31.3086 293.169 30.293 293.179 28.7695C293.169 27.2754 292.085 26.2402 290.601 26.2305C289.107 26.2402 288.013 27.2754 288.023 28.7695ZM316.88 19.1602V36.6602H315.005V19.1602H316.88ZM302.505 31.9727C307.154 29.7559 309.429 26.6016 309.791 22.5195H303.345V21.0352H311.666C311.666 26.1621 309.488 30.5957 303.482 33.4766L302.505 31.9727Z" fill="white"/>
</svg>
