<svg width="450" height="851" viewBox="0 0 450 851" fill="none" xmlns="http://www.w3.org/2000/svg">
<rect width="450" height="851" fill="white"/>
<g clip-path="url(#clip0_250_1955)">
<path d="M34.3254 20H20.3748C20.1678 20 20 20.1682 20 20.3758V39.6242C20 39.8318 20.1678 40 20.3748 40H34.3254C34.5324 40 34.7002 39.8318 34.7002 39.6242V20.3758C34.7002 20.1682 34.5324 20 34.3254 20Z" fill="#FF3A4A"/>
<path d="M83.7063 20H69.7557C69.5487 20 69.3809 20.1682 69.3809 20.3758V39.6242C69.3809 39.8318 69.5487 40 69.7557 40H83.7063C83.9133 40 84.0811 39.8318 84.0811 39.6242V20.3758C84.0811 20.1682 83.9133 20 83.7063 20Z" fill="#FF3A4A"/>
<path d="M67.2473 20H53.2967C53.0897 20 52.9219 20.1682 52.9219 20.3758V39.6242C52.9219 39.8318 53.0897 40 53.2967 40H67.2473C67.4543 40 67.6221 39.8318 67.6221 39.6242V20.3758C67.6221 20.1682 67.4543 20 67.2473 20Z" fill="#FF3A4A"/>
<path d="M50.7864 20H36.8358C36.6287 20 36.4609 20.1682 36.4609 20.3758V39.6242C36.4609 39.8318 36.6287 40 36.8358 40H50.7864C50.9934 40 51.1612 39.8318 51.1612 39.6242V20.3758C51.1612 20.1682 50.9934 20 50.7864 20Z" fill="#FF3A4A"/>
<path d="M60.2141 22.5611C59.2109 22.5462 58.1944 22.8237 57.4104 23.4561C56.6493 24.0988 56.2825 25.1285 56.353 26.111C56.2591 26.9369 56.3849 27.7967 56.8264 28.5108C57.4103 29.5933 58.5689 30.1415 59.4646 30.9206C60.2381 31.5202 61.1773 32.0587 61.5586 33.0098C61.6957 33.6387 61.7622 34.4193 61.3042 34.9351C60.7553 35.5017 59.7502 35.478 59.1583 34.9954C58.9861 34.8513 58.7665 34.5951 58.7665 34.3024C58.7665 33.697 58.7638 32.9769 58.7638 32.9769H56.333C56.333 34.3457 56.2722 34.9698 56.8184 35.8056C57.4013 36.8186 58.5671 37.3712 59.7062 37.4334C60.21 37.4657 60.7246 37.4919 61.2173 37.3603C62.2661 37.1853 63.2003 36.5153 63.7265 35.5946C64.1932 34.6801 64.0868 33.6183 63.9792 32.6351C63.7572 31.5525 62.9522 30.7201 62.0834 30.0996C61.1263 29.3213 60.036 28.6881 59.2081 27.7622C58.6794 27.2309 58.7741 26.4643 58.7865 25.7838C58.7954 25.07 59.468 24.681 60.1797 24.663C60.8915 24.6452 61.6493 25.1559 61.6493 26.0156V27.0904H64.0711C64.0711 25.9584 64.0906 25.5307 63.8795 24.7876C63.4644 23.6455 62.3649 22.8931 61.204 22.6713C60.8816 22.6036 60.5486 22.5662 60.2142 22.5612L60.2141 22.5611ZM76.6656 22.5611C75.6622 22.5462 74.6456 22.8237 73.8617 23.4561C73.1005 24.0988 72.7338 25.1285 72.8043 26.111C72.7104 26.9369 72.8361 27.7967 73.2777 28.5108C73.8616 29.5933 75.0201 30.1415 75.9158 30.9206C76.6894 31.5202 77.6287 32.0587 78.01 33.0098C78.1472 33.6387 78.2135 34.4193 77.7556 34.9351C77.2066 35.5017 76.2015 35.478 75.6095 34.9954C75.4374 34.8513 75.2178 34.5951 75.2178 34.3024C75.2178 33.697 75.2151 32.9769 75.2151 32.9769H72.7842C72.7842 34.3457 72.7234 34.9698 73.2696 35.8056C73.8526 36.8186 75.0184 37.3712 76.1575 37.4334C76.6613 37.4657 77.1758 37.4919 77.6685 37.3603C78.7174 37.1853 79.6517 36.5153 80.1778 35.5946C80.6445 34.6801 80.5381 33.6183 80.4306 32.6351C80.2085 31.5525 79.4035 30.7201 78.5346 30.0996C77.5775 29.3213 76.4873 28.6881 75.6594 27.7622C75.1308 27.2309 75.2253 26.4643 75.2378 25.7838C75.2465 25.07 75.9192 24.681 76.631 24.663C77.3427 24.6452 78.1006 25.1559 78.1006 26.0156V27.0904H80.5224C80.5224 25.9584 80.542 25.5307 80.3308 24.7876C79.9156 23.6455 78.8162 22.8931 77.6553 22.6713C77.3329 22.6036 77 22.5661 76.6656 22.5611ZM27.2079 22.7225C26.9321 22.7237 26.6463 22.729 26.3476 22.729C25.1528 22.729 24.6146 22.7417 23.748 22.729V37.2116H26.0453V32.848C27.3295 32.8146 28.7368 33.0269 29.8755 32.2831C30.7953 31.7409 31.2947 30.6383 31.1872 29.5854C31.1644 28.1003 31.2184 26.6094 31.1583 25.1274C30.9499 24.2052 30.3881 23.419 29.4957 23.0822C28.772 22.7527 28.0351 22.7189 27.2079 22.7225ZM42.0753 22.7656L39.6475 37.2722H41.9311L42.3327 34.7268H45.3178L45.7081 37.2116H48.0319L45.6055 22.7655L42.0753 22.7656ZM26.0453 24.9307H27.8834C28.7743 24.9307 29.0035 25.6136 29.0035 26.1178V29.5753C29.0035 30.1513 28.4661 30.545 27.9482 30.545H26.0453V24.9307ZM43.8365 25.3631L45.0294 32.545H42.6703L43.8365 25.3631Z" fill="white"/>
</g>
<path d="M35.2734 94.082V111.758H33.0859V94.082H35.2734ZM21.1523 101.602C21.1426 97.793 23.0859 95.3711 25.7617 95.3711C28.4082 95.3711 30.3613 97.793 30.3711 101.602C30.3613 105.439 28.4082 107.852 25.7617 107.852C23.0859 107.852 21.1426 105.439 21.1523 101.602ZM23.2422 101.602C23.2422 104.316 24.2676 105.889 25.7617 105.898C27.2461 105.889 28.2617 104.316 28.2617 101.602C28.2617 98.9062 27.2461 97.3242 25.7617 97.3242C24.2676 97.3242 23.2422 98.9062 23.2422 101.602ZM53.5648 102.578V104.316H37.4711V102.578H41.2211V100.342C39.8832 99.7754 39.1313 98.8867 39.1313 97.7344C39.1313 95.6152 41.602 94.375 45.4984 94.375C49.3852 94.375 51.8559 95.6152 51.8656 97.7344C51.8559 98.8965 51.0941 99.7852 49.7563 100.342V102.578H53.5648ZM39.3461 108.535C39.3461 106.504 41.641 105.371 45.4984 105.391C49.2973 105.371 51.602 106.504 51.6117 108.535C51.602 110.586 49.2973 111.699 45.4984 111.699C41.641 111.699 39.3461 110.586 39.3461 108.535ZM41.3969 97.7344C41.3773 98.8086 42.891 99.3848 45.4984 99.375C48.0961 99.3848 49.6195 98.8086 49.6195 97.7344C49.6195 96.6504 48.0961 96.0449 45.4984 96.0547C42.891 96.0449 41.3773 96.6504 41.3969 97.7344ZM41.5531 108.535C41.5434 109.531 42.9301 110.068 45.4984 110.059C48.0277 110.068 49.4242 109.531 49.4438 108.535C49.4242 107.549 48.0277 107.041 45.4984 107.031C42.9301 107.041 41.5434 107.549 41.5531 108.535ZM43.4086 102.578H47.5883V100.898C46.9535 100.986 46.2504 101.035 45.4984 101.035C44.7465 101.035 44.0434 100.986 43.4086 100.898V102.578ZM70.45 102.188V103.945H63.4578V105.43C66.6121 105.635 68.4871 106.729 68.4969 108.555C68.4871 110.586 66.1824 111.719 62.3836 111.719C58.5262 111.719 56.2313 110.586 56.2313 108.555C56.2313 106.729 58.1063 105.625 61.3094 105.42V103.945H54.3563V102.188H70.45ZM55.1375 99.668C58.3797 99.3652 60.4988 98.0469 60.8602 96.6016H55.8211V94.8633H69.0047V96.6016H63.9168C64.2684 98.0566 66.368 99.3652 69.6883 99.668L68.9266 101.387C65.7137 101.055 63.3406 99.7754 62.3836 97.9883C61.4266 99.7754 59.0828 101.055 55.8797 101.387L55.1375 99.668ZM58.4383 108.555C58.4285 109.531 59.8152 110.068 62.3836 110.059C64.9129 110.068 66.3094 109.531 66.3289 108.555C66.3094 107.578 64.9129 107.061 62.3836 107.051C59.8152 107.061 58.4285 107.578 58.4383 108.555ZM85.9289 94.082V111.758H83.7414V94.082H85.9289ZM71.8078 101.602C71.798 97.793 73.7414 95.3711 76.4172 95.3711C79.0637 95.3711 81.0168 97.793 81.0266 101.602C81.0168 105.439 79.0637 107.852 76.4172 107.852C73.7414 107.852 71.798 105.439 71.8078 101.602ZM73.8977 101.602C73.8977 104.316 74.923 105.889 76.4172 105.898C77.9016 105.889 78.9172 104.316 78.9172 101.602C78.9172 98.9062 77.9016 97.3242 76.4172 97.3242C74.923 97.3242 73.8977 98.9062 73.8977 101.602ZM102.834 94.1016V106.992H100.646V94.1016H102.834ZM88.1461 102.832C91.0074 101.826 92.4723 99.3359 92.4625 96.7969V95.0781H94.7086V96.7969C94.6988 99.2578 96.1441 101.582 98.9469 102.52L97.8336 104.238C95.8219 103.535 94.3863 102.129 93.6051 100.322C92.8238 102.256 91.359 103.799 89.2789 104.551L88.1461 102.832ZM91.1539 111.387V105.762H93.3414V109.629H103.322V111.387H91.1539ZM125.452 103.262V104.98H109.319V103.262H116.291V101.953H111.389V94.5508H123.518V96.2305H113.557V97.4414H123.088V99.043H113.557V100.293H123.655V101.953H118.459V103.262H125.452ZM111.233 108.828C111.233 106.982 113.45 105.947 117.385 105.957C121.262 105.947 123.489 106.982 123.498 108.828C123.489 110.723 121.262 111.719 117.385 111.719C113.45 111.719 111.233 110.723 111.233 108.828ZM113.401 108.828C113.401 109.688 114.729 110.098 117.385 110.098C119.993 110.098 121.311 109.688 121.33 108.828C121.311 107.988 119.993 107.578 117.385 107.578C114.729 107.578 113.401 107.988 113.401 108.828ZM140.95 94.1016V106.992H138.762V94.1016H140.95ZM126.262 102.832C129.124 101.826 130.589 99.3359 130.579 96.7969V95.0781H132.825V96.7969C132.815 99.2578 134.261 101.582 137.063 102.52L135.95 104.238C133.938 103.535 132.503 102.129 131.721 100.322C130.94 102.256 129.475 103.799 127.395 104.551L126.262 102.832ZM129.27 111.387V105.762H131.458V109.629H141.438V111.387H129.27ZM149.437 98.3203C149.417 101.475 150.999 104.658 153.734 105.977L152.405 107.715C150.491 106.748 149.114 104.883 148.363 102.637C147.591 105.039 146.146 107.031 144.124 108.047L142.796 106.309C145.638 104.961 147.259 101.582 147.269 98.3203V95.5078H149.437V98.3203ZM154.788 111.738V94.082H156.956V100.996H159.671V102.852H156.956V111.738H154.788ZM176.127 102.09V103.73H159.994V102.09H176.127ZM161.869 106.309V104.785H174.173V108.809H164.056V110.039H174.701V111.543H161.888V107.402H172.025V106.309H161.869ZM161.986 95.9766V94.4727H174.134V98.457H164.193V99.6094H174.447V101.094H162.045V97.0508H171.966V95.9766H161.986ZM187.67 97.207C187.661 99.5508 189.067 101.836 191.811 102.773L190.62 104.473C188.715 103.76 187.358 102.383 186.606 100.645C185.854 102.588 184.409 104.111 182.338 104.883L181.186 103.164C184.028 102.207 185.473 99.7656 185.483 97.1875V95.1758H187.67V97.207ZM184.389 111.387V105.781H186.596V109.629H196.42V111.387H184.389ZM190.346 99.7656V97.9883H193.862V94.1016H196.03V107.207H193.862V99.7656H190.346ZM205.727 95.3125V97.0508H200.884V98.7695H205.552V100.43H200.884V102.285C203.032 102.266 204.536 102.178 206.255 101.855L206.489 103.613C204.409 104.004 202.71 104.072 199.966 104.062H198.794V95.3125H205.727ZM201.137 107.383V105.625H213.227V111.738H211.059V107.383H201.137ZM207.29 104.707V94.4336H209.321V98.5156H211.157V94.1016H213.227V104.844H211.157V100.254H209.321V104.707H207.29ZM223.628 96.8945V98.6328H214.976V96.8945H218.257V94.5898H220.405V96.8945H223.628ZM215.484 103.672C215.464 101.27 217.095 99.5605 219.331 99.5703C221.577 99.5605 223.179 101.27 223.179 103.672C223.179 106.123 221.577 107.832 219.331 107.832C217.095 107.832 215.464 106.123 215.484 103.672ZM217.398 103.672C217.388 105.098 218.189 105.986 219.331 105.977C220.464 105.986 221.265 105.098 221.265 103.672C221.265 102.285 220.464 101.367 219.331 101.367C218.189 101.367 217.388 102.285 217.398 103.672ZM224.37 110.938V94.4531H226.402V101.348H228.12V94.082H230.191V111.738H228.12V103.105H226.402V110.938H224.37ZM247.994 103.926V105.684H240.982V111.719H238.834V105.684H231.9V103.926H247.994ZM232.74 101.035C236.207 100.596 238.531 98.7305 238.687 96.7969H233.384V95.0781H246.509V96.7969H241.207C241.353 98.7305 243.658 100.596 247.154 101.035L246.373 102.734C243.365 102.305 241.021 100.928 239.947 99.0234C238.863 100.928 236.539 102.305 233.56 102.734L232.74 101.035ZM254.293 98.7109C254.303 101.562 255.279 104.531 257.672 106.035L256.48 107.695C254.889 106.738 253.854 105.098 253.268 103.174C252.633 105.293 251.5 107.09 249.84 108.105L248.492 106.484C251.061 104.932 252.193 101.816 252.203 98.8086V95.6445H254.293V98.7109ZM255.777 101.953V100.156H258.297V94.3945H260.348V110.879H258.297V101.953H255.777ZM261.93 111.738V94.082H264.02V111.738H261.93ZM281.803 107.812V109.59H265.67V107.812H269.401V103.35C267.995 102.539 267.145 101.27 267.155 99.707C267.145 96.8945 269.899 95.0391 273.698 95.0391C277.516 95.0391 280.289 96.8945 280.28 99.707C280.289 101.25 279.459 102.49 278.092 103.301V107.812H281.803ZM269.284 99.707C269.274 101.514 271.061 102.666 273.698 102.656C276.325 102.666 278.151 101.514 278.151 99.707C278.151 97.8711 276.325 96.748 273.698 96.7578C271.061 96.748 269.274 97.8711 269.284 99.707ZM271.549 107.812H275.885V104.131C275.211 104.277 274.479 104.355 273.698 104.355C272.936 104.355 272.213 104.277 271.549 104.141V107.812ZM284.704 110.156C283.864 110.156 283.171 109.473 283.18 108.633C283.171 107.812 283.864 107.139 284.704 107.129C285.514 107.139 286.208 107.812 286.208 108.633C286.208 109.473 285.514 110.156 284.704 110.156Z" fill="black"/>
<rect x="68.5" y="142.5" width="149" height="149" rx="74.5" fill="white"/>
<rect x="68.5" y="142.5" width="149" height="149" rx="74.5" stroke="#DDDDDD"/>
<path d="M119.719 212.375C119.594 210.859 118.594 209.953 116.562 209.969C114.609 209.953 113.703 210.734 113.688 211.781C113.641 212.953 114.703 213.594 116.812 214.031L118.688 214.469C123.547 215.5 125.719 217.859 125.75 221.344C125.719 225.781 122.312 228.266 116.594 228.281C110.75 228.266 106.953 225.734 106.906 220.156H112.594C112.688 222.266 114.141 223.375 116.5 223.375C118.547 223.375 119.641 222.547 119.656 221.344C119.641 220.25 118.703 219.609 116.188 219.062L113.906 218.562C109.922 217.688 107.484 215.719 107.5 212.219C107.469 207.938 111.25 205.062 116.562 205.062C121.984 205.062 125.406 207.984 125.438 212.375H119.719ZM155.697 218.566V220.973H133.111V218.566H142.872V216.734H136.009V206.371H152.99V208.723H139.044V210.418H152.388V212.66H139.044V214.41H153.181V216.734H145.907V218.566H155.697ZM135.79 226.359C135.79 223.775 138.894 222.326 144.404 222.34C149.831 222.326 152.949 223.775 152.962 226.359C152.949 229.012 149.831 230.406 144.404 230.406C138.894 230.406 135.79 229.012 135.79 226.359ZM138.825 226.359C138.825 227.562 140.685 228.137 144.404 228.137C148.054 228.137 149.9 227.562 149.927 226.359C149.9 225.184 148.054 224.609 144.404 224.609C140.685 224.609 138.825 225.184 138.825 226.359ZM177.394 205.742V223.789H174.332V205.742H177.394ZM156.832 217.965C160.838 216.557 162.889 213.07 162.875 209.516V207.109H166.019V209.516C166.006 212.961 168.029 216.215 171.953 217.527L170.394 219.934C167.578 218.949 165.568 216.98 164.474 214.451C163.381 217.158 161.33 219.318 158.418 220.371L156.832 217.965ZM161.043 229.941V222.066H164.105V227.48H178.078V229.941H161.043Z" fill="#FF7A00"/>
<rect x="232.5" y="142.5" width="149" height="149" rx="74.5" fill="white"/>
<rect x="232.5" y="142.5" width="149" height="149" rx="74.5" stroke="#DDDDDD"/>
<path d="M270.531 228V205.375H276.469V214.625H276.781L283.781 205.375H290.75L283 215.469L290.906 228H283.781L278.562 219.406L276.469 222.094V228H270.531ZM320.134 218.566V220.973H297.548V218.566H307.31V216.734H300.447V206.371H317.427V208.723H303.482V210.418H316.825V212.66H303.482V214.41H317.618V216.734H310.345V218.566H320.134ZM300.228 226.359C300.228 223.775 303.331 222.326 308.841 222.34C314.269 222.326 317.386 223.775 317.4 226.359C317.386 229.012 314.269 230.406 308.841 230.406C303.331 230.406 300.228 229.012 300.228 226.359ZM303.263 226.359C303.263 227.562 305.122 228.137 308.841 228.137C312.491 228.137 314.337 227.562 314.365 226.359C314.337 225.184 312.491 224.609 308.841 224.609C305.122 224.609 303.263 225.184 303.263 226.359ZM341.832 205.742V223.789H338.769V205.742H341.832ZM321.269 217.965C325.275 216.557 327.326 213.07 327.312 209.516V207.109H330.457V209.516C330.443 212.961 332.467 216.215 336.39 217.527L334.832 219.934C332.015 218.949 330.006 216.98 328.912 214.451C327.818 217.158 325.767 219.318 322.855 220.371L321.269 217.965ZM325.48 229.941V222.066H328.543V227.48H342.515V229.941H325.48Z" fill="#E50019"/>
<rect x="68.5" y="306.5" width="149" height="149" rx="74.5" fill="white"/>
<rect x="68.5" y="306.5" width="149" height="149" rx="74.5" stroke="#DDDDDD"/>
<path d="M108.531 392V369.375H114.469V387.188H123.688V392H108.531ZM153.759 382.566V384.973H131.173V382.566H140.935V380.734H134.072V370.371H151.052V372.723H137.107V374.418H150.45V376.66H137.107V378.41H151.243V380.734H143.97V382.566H153.759ZM133.853 390.359C133.853 387.775 136.956 386.326 142.466 386.34C147.894 386.326 151.011 387.775 151.025 390.359C151.011 393.012 147.894 394.406 142.466 394.406C136.956 394.406 133.853 393.012 133.853 390.359ZM136.888 390.359C136.888 391.562 138.747 392.137 142.466 392.137C146.116 392.137 147.962 391.562 147.99 390.359C147.962 389.184 146.116 388.609 142.466 388.609C138.747 388.609 136.888 389.184 136.888 390.359ZM175.457 369.742V387.789H172.394V369.742H175.457ZM154.894 381.965C158.9 380.557 160.951 377.07 160.937 373.516V371.109H164.082V373.516C164.068 376.961 166.092 380.215 170.015 381.527L168.457 383.934C165.64 382.949 163.631 380.98 162.537 378.451C161.443 381.158 159.392 383.318 156.48 384.371L154.894 381.965ZM159.105 393.941V386.066H162.168V391.48H176.14V393.941H159.105Z" fill="#2D2D2D"/>
<rect x="232.5" y="306.5" width="149" height="149" rx="74.5" fill="white"/>
<rect x="232.5" y="306.5" width="149" height="149" rx="74.5" stroke="#DDDDDD"/>
<path d="M278.125 392H271.688L279.219 369.375H287.312L294.812 392H288.406L287.047 387.562H279.469L278.125 392ZM280.844 383.062H285.672L283.344 375.469H283.156L280.844 383.062ZM324.572 382.566V384.973H301.986V382.566H311.747V380.734H304.884V370.371H321.865V372.723H307.919V374.418H321.263V376.66H307.919V378.41H322.056V380.734H314.782V382.566H324.572ZM304.665 390.359C304.665 387.775 307.769 386.326 313.279 386.34C318.706 386.326 321.824 387.775 321.837 390.359C321.824 393.012 318.706 394.406 313.279 394.406C307.769 394.406 304.665 393.012 304.665 390.359ZM307.7 390.359C307.7 391.562 309.56 392.137 313.279 392.137C316.929 392.137 318.775 391.562 318.802 390.359C318.775 389.184 316.929 388.609 313.279 388.609C309.56 388.609 307.7 389.184 307.7 390.359ZM346.269 369.742V387.789H343.207V369.742H346.269ZM325.707 381.965C329.713 380.557 331.764 377.07 331.75 373.516V371.109H334.894V373.516C334.881 376.961 336.904 380.215 340.828 381.527L339.269 383.934C336.453 382.949 334.443 380.98 333.349 378.451C332.256 381.158 330.205 383.318 327.293 384.371L325.707 381.965ZM329.918 393.941V386.066H332.98V391.48H346.953V393.941H329.918Z" fill="#0570AF"/>
<mask id="mask0_250_1955" style="mask-type:alpha" maskUnits="userSpaceOnUse" x="20" y="486" width="28" height="28">
<rect x="20" y="486" width="28" height="28" fill="#D9D9D9"/>
</mask>
<g mask="url(#mask0_250_1955)">
<path d="M34.0014 511.083C32.4684 511.083 31.0275 510.792 29.6786 510.21C28.3297 509.628 27.1565 508.839 26.1588 507.841C25.1611 506.844 24.3711 505.671 23.789 504.323C23.207 502.975 22.916 501.534 22.916 500.001C22.916 498.468 23.2069 497.027 23.7887 495.679C24.3705 494.33 25.16 493.156 26.1573 492.159C27.1546 491.161 28.3274 490.371 29.6757 489.789C31.024 489.207 32.4645 488.916 33.9973 488.916C35.5303 488.916 36.9712 489.207 38.3201 489.789C39.669 490.37 40.8422 491.16 41.8399 492.157C42.8376 493.155 43.6276 494.327 44.2097 495.676C44.7917 497.024 45.0827 498.465 45.0827 499.997C45.0827 501.53 44.7918 502.971 44.21 504.32C43.6282 505.669 42.8387 506.842 41.8414 507.84C40.8441 508.838 39.6713 509.628 38.323 510.21C36.9747 510.792 35.5342 511.083 34.0014 511.083ZM33.9993 509.333C36.6049 509.333 38.8118 508.429 40.6202 506.62C42.4285 504.812 43.3327 502.605 43.3327 499.999C43.3327 497.394 42.4285 495.187 40.6202 493.379C38.8118 491.57 36.6049 490.666 33.9993 490.666C31.3938 490.666 29.1868 491.57 27.3785 493.379C25.5702 495.187 24.666 497.394 24.666 499.999C24.666 502.605 25.5702 504.812 27.3785 506.62C29.1868 508.429 31.3938 509.333 33.9993 509.333Z" fill="#999999"/>
</g>
<path d="M65.834 491.691V503.293H63.8828V497.475H61.0703V495.893H63.8828V491.691H65.834ZM52.4922 499.865C55.0234 499.03 56.377 496.956 56.377 494.838V494.416H53.0723V492.834H61.6504V494.416H58.3633V494.855C58.3633 496.763 59.6465 498.74 62.1074 499.549L61.123 501.113C59.3477 500.507 58.0908 499.294 57.3965 497.791C56.7021 499.461 55.375 500.797 53.4941 501.447L52.4922 499.865ZM55.4102 507.248V502.273H57.3613V505.666H66.2383V507.248H55.4102ZM72.5755 496.525C72.5755 498.986 73.5863 501.465 75.8099 502.66L74.7201 504.102C73.2435 503.319 72.2416 501.922 71.6703 500.252C71.1078 502.054 70.1058 503.601 68.6205 504.471L67.4779 502.994C69.7279 501.693 70.7211 499.039 70.7298 496.525V496.033H68.0228V494.451H70.7298V492.236H72.5755V494.451H75.2298V496.033H72.5755V496.525ZM74.2455 499.391V497.773H76.3197V491.973H78.1654V506.791H76.3197V499.391H74.2455ZM79.5365 507.564V491.674H81.3998V507.564H79.5365ZM101.334 499.285V500.85H86.8321V499.285H93.1251V497.773H88.6075V492.395H99.5762V493.924H90.5587V496.227H99.6641V497.773H95.0411V499.285H101.334ZM88.5196 504.664C88.5196 502.801 90.6026 501.755 94.0567 501.764C97.4845 501.755 99.5499 502.801 99.5587 504.664C99.5499 506.51 97.4845 507.556 94.0567 507.564C90.6026 507.556 88.5196 506.51 88.5196 504.664ZM90.5059 504.664C90.4971 505.587 91.7452 506.062 94.0567 506.053C96.3331 506.062 97.5899 505.587 97.6075 504.664C97.5899 503.75 96.3331 503.258 94.0567 503.258C91.7452 503.258 90.4971 503.75 90.5059 504.664ZM107.179 492.781C109.702 492.772 111.539 494.363 111.556 496.613C111.539 498.872 109.702 500.454 107.179 500.463C104.683 500.454 102.811 498.872 102.82 496.613C102.811 494.363 104.683 492.772 107.179 492.781ZM102.099 502.66C104.964 502.66 108.928 502.625 112.365 502.133L112.523 503.557C108.963 504.233 105.149 504.26 102.345 504.26L102.099 502.66ZM104.753 496.613C104.745 497.94 105.79 498.758 107.179 498.758C108.585 498.758 109.631 497.94 109.64 496.613C109.631 495.295 108.594 494.469 107.179 494.469C105.79 494.469 104.745 495.295 104.753 496.613ZM113.314 507.582V491.674H115.265V507.582H113.314ZM129.671 491.674V498.002H132.114V499.619H129.671V507.564H127.737V491.674H129.671ZM117.137 495.682V494.117H120.899V491.902H122.85V494.117H126.507V495.682H117.137ZM117.876 500.463C117.858 498.266 119.563 496.71 121.884 496.719C124.169 496.71 125.865 498.266 125.874 500.463C125.865 502.651 124.169 504.189 121.884 504.189C119.563 504.189 117.858 502.651 117.876 500.463ZM119.739 500.463C119.73 501.755 120.636 502.581 121.884 502.572C123.105 502.581 123.993 501.755 124.011 500.463C123.993 499.171 123.105 498.318 121.884 498.318C120.636 498.318 119.73 499.171 119.739 500.463ZM145.694 491.674V507.564H143.725V491.674H145.694ZM132.527 503.188C136.694 501.21 138.61 498.521 138.961 494.908H133.336V493.361H140.947C140.947 498.09 139.111 502.106 133.547 504.752L132.527 503.188Z" fill="#222222"/>
<mask id="mask1_250_1955" style="mask-type:alpha" maskUnits="userSpaceOnUse" x="20" y="538" width="22" height="22">
<rect x="20" y="538" width="22" height="22" fill="#D9D9D9"/>
</mask>
<g mask="url(#mask1_250_1955)">
<path d="M31.001 557.708C29.7965 557.708 28.6643 557.479 27.6045 557.022C26.5447 556.565 25.6228 555.945 24.8389 555.161C24.055 554.377 23.4343 553.456 22.9769 552.397C22.5196 551.337 22.291 550.205 22.291 549.001C22.291 547.796 22.5196 546.664 22.9767 545.604C23.4338 544.545 24.0541 543.623 24.8377 542.839C25.6213 542.055 26.5428 541.434 27.6022 540.977C28.6615 540.52 29.7934 540.291 30.9977 540.291C32.2022 540.291 33.3344 540.52 34.3942 540.977C35.454 541.434 36.3759 542.054 37.1598 542.838C37.9437 543.621 38.5644 544.543 39.0218 545.602C39.4791 546.662 39.7077 547.793 39.7077 548.998C39.7077 550.202 39.4791 551.334 39.022 552.394C38.5649 553.454 37.9446 554.376 37.161 555.16C36.3774 555.944 35.4559 556.564 34.3965 557.022C33.3372 557.479 32.2053 557.708 31.001 557.708ZM30.9994 556.333C33.0466 556.333 34.7806 555.622 36.2014 554.201C37.6223 552.781 38.3327 551.047 38.3327 548.999C38.3327 546.952 37.6223 545.218 36.2014 543.797C34.7806 542.376 33.0466 541.666 30.9994 541.666C28.9521 541.666 27.2181 542.376 25.7973 543.797C24.3764 545.218 23.666 546.952 23.666 548.999C23.666 551.047 24.3764 552.781 25.7973 554.201C27.2181 555.622 28.9521 556.333 30.9994 556.333Z" fill="#999999"/>
</g>
<path d="M57.6455 542.664V555.687H56.5176V548.875H54.7158V555.042H53.6172V543.016H54.7158V547.923H56.5176V542.664H57.6455ZM46.542 552.083C49.5669 550.391 50.812 548.011 51.0098 545.315H47.04V544.363H52.1377C52.123 547.674 50.9585 550.801 47.2158 552.889L46.542 552.083ZM69.9432 542.679V552.2H68.8006V542.679H69.9432ZM59.4988 546.78C59.4915 544.905 60.9637 543.594 62.9119 543.587C64.8602 543.594 66.3177 544.905 66.325 546.78C66.3177 548.677 64.8602 549.996 62.9119 549.988C60.9637 549.996 59.4915 548.677 59.4988 546.78ZM60.6268 546.78C60.6121 548.077 61.5936 548.978 62.9119 548.978C64.2083 548.978 65.1971 548.077 65.1971 546.78C65.1971 545.506 64.2083 544.598 62.9119 544.598C61.5936 544.598 60.6121 545.506 60.6268 546.78ZM61.535 555.408V551.233H62.6775V554.441H70.3533V555.408H61.535ZM82.651 542.664V550.428H81.4937V547.015H78.8717V546.062H81.4937V542.664H82.651ZM71.9137 549.388C73.8473 548.692 75.2242 546.927 75.2242 545.066V544.583H72.2799V543.616H79.2965V544.583H76.3814V545.052C76.3814 546.751 77.6852 548.37 79.5895 549.021L78.9889 549.944C77.5313 549.417 76.3961 548.318 75.8321 546.978C75.2755 548.501 74.067 549.717 72.5143 550.311L71.9137 549.388ZM73.9645 553.255C73.9571 551.724 75.6197 550.831 78.3297 550.838C81.0323 550.831 82.6949 551.724 82.6949 553.255C82.6949 554.793 81.0323 555.672 78.3297 555.687C75.6197 555.672 73.9571 554.793 73.9645 553.255ZM75.107 553.255C75.0997 554.2 76.3302 554.771 78.3297 554.764C80.3219 554.771 81.5523 554.2 81.5523 553.255C81.5523 552.303 80.3219 551.731 78.3297 551.731C76.3302 551.731 75.0997 552.303 75.107 553.255ZM96.4428 553.064V554.017H84.5189V553.064H89.8803V550.252H85.9252V543.587H87.0824V545.945H93.85V543.587H94.9779V550.252H91.0082V553.064H96.4428ZM87.0824 549.314H93.85V546.883H87.0824V549.314ZM107.92 542.664V555.716H106.763V542.664H107.92ZM97.6662 548.216C97.6735 545.447 99.0505 543.682 100.991 543.675C102.925 543.682 104.324 545.447 104.317 548.216C104.324 550.992 102.925 552.75 100.991 552.742C99.0505 552.75 97.6735 550.992 97.6662 548.216ZM98.7795 548.216C98.7795 550.333 99.6877 551.724 100.991 551.717C102.302 551.724 103.203 550.333 103.203 548.216C103.203 546.099 102.302 544.708 100.991 544.7C99.6877 544.708 98.7795 546.099 98.7795 548.216ZM121.712 549.109V550.062H109.847V549.109H112.791V547.271C111.751 546.868 111.165 546.209 111.165 545.33C111.165 543.799 112.923 542.92 115.779 542.913C118.614 542.92 120.372 543.799 120.379 545.33C120.372 546.202 119.793 546.861 118.768 547.271V549.109H121.712ZM111.282 553.357C111.275 551.871 112.952 551.05 115.779 551.058C118.57 551.05 120.247 551.871 120.262 553.357C120.247 554.844 118.57 555.657 115.779 555.657C112.952 555.657 111.275 554.844 111.282 553.357ZM112.352 545.33C112.344 546.282 113.648 546.832 115.779 546.839C117.889 546.832 119.2 546.282 119.207 545.33C119.2 544.393 117.889 543.821 115.779 543.821C113.648 543.821 112.344 544.393 112.352 545.33ZM112.454 553.357C112.439 554.244 113.692 554.771 115.779 554.764C117.845 554.771 119.097 554.244 119.104 553.357C119.097 552.471 117.845 551.951 115.779 551.937C113.692 551.951 112.439 552.471 112.454 553.357ZM113.934 549.109H117.625V547.579C117.076 547.681 116.46 547.732 115.779 547.732C115.098 547.732 114.483 547.681 113.934 547.586V549.109ZM134.39 549.109V550.032H122.511V549.109H127.887V547.586H124.019V543.279H132.911V544.202H125.147V546.648H132.999V547.586H129V549.109H134.39ZM123.946 553.328C123.939 551.841 125.631 550.992 128.443 550.984C131.234 550.992 132.911 551.841 132.926 553.328C132.911 554.83 131.234 555.672 128.443 555.687C125.631 555.672 123.939 554.83 123.946 553.328ZM125.118 553.328C125.103 554.244 126.356 554.771 128.443 554.764C130.509 554.771 131.761 554.244 131.768 553.328C131.761 552.427 130.509 551.893 128.443 551.893C126.356 551.893 125.103 552.427 125.118 553.328ZM139.437 543.616C141.481 543.624 142.931 544.869 142.938 546.678C142.931 548.494 141.481 549.732 139.437 549.739C137.379 549.732 135.914 548.494 135.921 546.678C135.914 544.869 137.379 543.624 139.437 543.616ZM135.248 551.863C137.65 551.871 140.968 551.849 143.846 551.424L143.934 552.273C140.953 552.83 137.753 552.845 135.409 552.845L135.248 551.863ZM137.049 546.678C137.042 547.894 138.046 548.729 139.437 548.729C140.814 548.729 141.817 547.894 141.81 546.678C141.817 545.469 140.814 544.627 139.437 544.627C138.046 544.627 137.042 545.469 137.049 546.678ZM144.711 555.716V542.664H145.853V555.716H144.711Z" fill="#777777"/>
<path d="M46 556.895H147.611V557.913H46V556.895Z" fill="#777777"/>
<mask id="mask2_250_1955" style="mask-type:alpha" maskUnits="userSpaceOnUse" x="225" y="538" width="22" height="22">
<rect x="225" y="538" width="22" height="22" fill="#D9D9D9"/>
</mask>
<g mask="url(#mask2_250_1955)">
<path d="M236.001 557.708C234.796 557.708 233.664 557.479 232.604 557.022C231.545 556.565 230.623 555.945 229.839 555.161C229.055 554.377 228.434 553.456 227.977 552.397C227.52 551.337 227.291 550.205 227.291 549.001C227.291 547.796 227.52 546.664 227.977 545.604C228.434 544.545 229.054 543.623 229.838 542.839C230.621 542.055 231.543 541.434 232.602 540.977C233.662 540.52 234.793 540.291 235.998 540.291C237.202 540.291 238.334 540.52 239.394 540.977C240.454 541.434 241.376 542.054 242.16 542.838C242.944 543.621 243.564 544.543 244.022 545.602C244.479 546.662 244.708 547.793 244.708 548.998C244.708 550.202 244.479 551.334 244.022 552.394C243.565 553.454 242.945 554.376 242.161 555.16C241.377 555.944 240.456 556.564 239.397 557.022C238.337 557.479 237.205 557.708 236.001 557.708ZM235.999 556.333C238.047 556.333 239.781 555.622 241.201 554.201C242.622 552.781 243.333 551.047 243.333 548.999C243.333 546.952 242.622 545.218 241.201 543.797C239.781 542.376 238.047 541.666 235.999 541.666C233.952 541.666 232.218 542.376 230.797 543.797C229.376 545.218 228.666 546.952 228.666 548.999C228.666 551.047 229.376 552.781 230.797 554.201C232.218 555.622 233.952 556.333 235.999 556.333Z" fill="#999999"/>
</g>
<path d="M261.972 543.982V545.286C261.957 546.883 261.957 548.67 261.488 551.292L260.316 551.16C260.807 548.67 260.807 546.846 260.814 545.286V544.935H252.787V543.982H261.972ZM251.527 553.841V552.889H256.186V548.23H257.313V552.889H263.393V553.841H251.527ZM276.1 550.091V551.043H272.951V555.687H271.794V551.043H268.454V555.687H267.267V551.043H264.177V550.091H276.1ZM265.524 546.033C265.532 544.297 267.37 543.199 270.109 543.191C272.841 543.199 274.694 544.297 274.694 546.033C274.694 547.769 272.841 548.853 270.109 548.846C267.37 548.853 265.532 547.769 265.524 546.033ZM266.711 546.033C266.696 547.183 268.08 547.923 270.109 547.923C272.138 547.923 273.515 547.183 273.522 546.033C273.515 544.876 272.138 544.129 270.109 544.129C268.08 544.129 266.696 544.876 266.711 546.033ZM281.469 544.554C281.455 546.451 282.832 548.143 284.765 548.816L284.179 549.725C282.671 549.168 281.477 548.047 280.891 546.604C280.319 548.15 279.118 549.366 277.587 549.959L276.987 549.051C278.935 548.326 280.297 546.524 280.297 544.554V543.309H281.469V544.554ZM278.847 552.112V551.16H287.607V555.687H286.464V552.112H278.847ZM286.464 550.516V542.664H287.607V550.516H286.464ZM300.3 542.664V549.476H299.158V547.806H296.081V548.948H290.178V543.279H291.321V545.154H294.954V543.279H296.081V544.539H299.158V542.664H300.3ZM291.321 548.011H294.954V546.062H291.321V548.011ZM291.863 551.028V550.105H300.3V553.167H293.035V554.588H300.798V555.511H291.892V552.288H299.158V551.028H291.863ZM296.081 546.897H299.158V545.433H296.081V546.897ZM312.979 542.664V550.428H311.821V547.015H309.199V546.062H311.821V542.664H312.979ZM302.241 549.388C304.175 548.692 305.552 546.927 305.552 545.066V544.583H302.608V543.616H309.624V544.583H306.709V545.052C306.709 546.751 308.013 548.37 309.917 549.021L309.317 549.944C307.859 549.417 306.724 548.318 306.16 546.978C305.603 548.501 304.395 549.717 302.842 550.311L302.241 549.388ZM304.292 553.255C304.285 551.724 305.947 550.831 308.657 550.838C311.36 550.831 313.023 551.724 313.023 553.255C313.023 554.793 311.36 555.672 308.657 555.687C305.947 555.672 304.285 554.793 304.292 553.255ZM305.435 553.255C305.427 554.2 306.658 554.771 308.657 554.764C310.65 554.771 311.88 554.2 311.88 553.255C311.88 552.303 310.65 551.731 308.657 551.731C306.658 551.731 305.427 552.303 305.435 553.255ZM326.771 553.064V554.017H314.847V553.064H320.208V550.252H316.253V543.587H317.41V545.945H324.178V543.587H325.306V550.252H321.336V553.064H326.771ZM317.41 549.314H324.178V546.883H317.41V549.314ZM338.306 542.664V555.716H337.149V548.86H334.293V547.908H337.149V542.664H338.306ZM327.54 552.273C329.451 551.38 330.88 549.153 330.88 546.912V545.872H327.891V544.935H330.88V542.913H332.022V544.935H334.967V545.872H332.008V546.912C332.008 549.058 333.48 551.175 335.406 552.039L334.747 552.933C333.26 552.259 332.037 550.831 331.458 549.117C330.894 550.933 329.686 552.449 328.199 553.167L327.54 552.273ZM350.926 542.664V555.716H349.784V542.664H350.926ZM340.907 544.832V543.88H346.971V548.509H342.108V551.585C344.269 551.592 346.195 551.49 348.524 551.116L348.641 552.083C346.246 552.457 344.269 552.552 342.02 552.552H340.936V547.571H345.814V544.832H340.907ZM364.718 549.109V550.032H352.838V549.109H358.214V547.586H354.347V543.279H363.239V544.202H355.475V546.648H363.327V547.586H359.328V549.109H364.718ZM354.274 553.328C354.267 551.841 355.958 550.992 358.771 550.984C361.561 550.992 363.239 551.841 363.253 553.328C363.239 554.83 361.561 555.672 358.771 555.687C355.958 555.672 354.267 554.83 354.274 553.328ZM355.446 553.328C355.431 554.244 356.683 554.771 358.771 554.764C360.836 554.771 362.089 554.244 362.096 553.328C362.089 552.427 360.836 551.893 358.771 551.893C356.683 551.893 355.431 552.427 355.446 553.328ZM369.765 543.616C371.808 543.624 373.258 544.869 373.266 546.678C373.258 548.494 371.808 549.732 369.765 549.739C367.707 549.732 366.242 548.494 366.249 546.678C366.242 544.869 367.707 543.624 369.765 543.616ZM365.575 551.863C367.978 551.871 371.296 551.849 374.174 551.424L374.262 552.273C371.281 552.83 368.08 552.845 365.737 552.845L365.575 551.863ZM367.377 546.678C367.37 547.894 368.373 548.729 369.765 548.729C371.142 548.729 372.145 547.894 372.138 546.678C372.145 545.469 371.142 544.627 369.765 544.627C368.373 544.627 367.37 545.469 367.377 546.678ZM375.038 555.716V542.664H376.181V555.716H375.038Z" fill="#777777"/>
<path d="M251 556.895H377.939V557.913H251V556.895Z" fill="#777777"/>
<mask id="mask3_250_1955" style="mask-type:alpha" maskUnits="userSpaceOnUse" x="20" y="572" width="22" height="22">
<rect x="20" y="572" width="22" height="22" fill="#D9D9D9"/>
</mask>
<g mask="url(#mask3_250_1955)">
<path d="M31.001 591.708C29.7965 591.708 28.6643 591.479 27.6045 591.022C26.5447 590.565 25.6228 589.945 24.8389 589.161C24.055 588.377 23.4343 587.456 22.9769 586.397C22.5196 585.337 22.291 584.205 22.291 583.001C22.291 581.796 22.5196 580.664 22.9767 579.604C23.4338 578.545 24.0541 577.623 24.8377 576.839C25.6213 576.055 26.5428 575.434 27.6022 574.977C28.6615 574.52 29.7934 574.291 30.9977 574.291C32.2022 574.291 33.3344 574.52 34.3942 574.977C35.454 575.434 36.3759 576.054 37.1598 576.838C37.9437 577.621 38.5644 578.543 39.0218 579.602C39.4791 580.662 39.7077 581.793 39.7077 582.998C39.7077 584.202 39.4791 585.334 39.022 586.394C38.5649 587.454 37.9446 588.376 37.161 589.16C36.3774 589.944 35.4559 590.564 34.3965 591.022C33.3372 591.479 32.2053 591.708 31.001 591.708ZM30.9994 590.333C33.0466 590.333 34.7806 589.622 36.2014 588.201C37.6223 586.781 38.3327 585.047 38.3327 582.999C38.3327 580.952 37.6223 579.218 36.2014 577.797C34.7806 576.376 33.0466 575.666 30.9994 575.666C28.9521 575.666 27.2181 576.376 25.7973 577.797C24.3764 579.218 23.666 580.952 23.666 582.999C23.666 585.047 24.3764 586.781 25.7973 588.201C27.2181 589.622 28.9521 590.333 30.9994 590.333Z" fill="#999999"/>
</g>
<path d="M51.1123 580.165C51.105 582.523 52.6211 584.896 54.5107 585.761L53.8223 586.698C52.3428 585.937 51.1196 584.384 50.541 582.531C49.9624 584.479 48.7393 586.149 47.2598 586.933L46.5127 586.01C48.4243 585.072 49.9331 582.567 49.9404 580.165V577.792H51.1123V580.165ZM53.0898 582.055V581.117H56.1807V576.664H57.3232V589.716H56.1807V582.055H53.0898ZM69.9285 576.664V589.716H68.7713V576.664H69.9285ZM59.9529 586.566V577.777H61.0955V581.22H64.9773V577.777H66.1053V586.566H59.9529ZM61.0955 585.6H64.9773V582.143H61.0955V585.6ZM78.3443 578.583C78.3517 580.817 80.9005 582.802 83.1637 583.227L82.6363 584.193C80.6661 583.739 78.6007 582.34 77.7584 580.429C76.9088 582.34 74.8507 583.732 72.8805 584.193L72.3531 583.227C74.609 582.794 77.1358 580.824 77.1432 578.583V577.587H78.3443V578.583ZM71.8551 587.914V586.962H83.7789V587.914H71.8551ZM95.2562 576.664V589.716H94.099V576.664H95.2562ZM85.0023 582.216C85.0097 579.447 86.3866 577.682 88.3275 577.675C90.2611 577.682 91.6601 579.447 91.6527 582.216C91.6601 584.992 90.2611 586.75 88.3275 586.742C86.3866 586.75 85.0097 584.992 85.0023 582.216ZM86.1156 582.216C86.1156 584.333 87.0238 585.724 88.3275 585.717C89.6386 585.724 90.5395 584.333 90.5395 582.216C90.5395 580.099 89.6386 578.708 88.3275 578.7C87.0238 578.708 86.1156 580.099 86.1156 582.216ZM109.048 583.109V584.062H97.1828V583.109H100.127V581.271C99.0871 580.868 98.5012 580.209 98.5012 579.33C98.5012 577.799 100.259 576.92 103.115 576.913C105.95 576.92 107.708 577.799 107.715 579.33C107.708 580.202 107.129 580.861 106.104 581.271V583.109H109.048ZM98.6184 587.357C98.611 585.871 100.288 585.05 103.115 585.058C105.906 585.05 107.583 585.871 107.598 587.357C107.583 588.844 105.906 589.657 103.115 589.657C100.288 589.657 98.611 588.844 98.6184 587.357ZM99.6877 579.33C99.6804 580.282 100.984 580.832 103.115 580.839C105.225 580.832 106.536 580.282 106.543 579.33C106.536 578.393 105.225 577.821 103.115 577.821C100.984 577.821 99.6804 578.393 99.6877 579.33ZM99.7902 587.357C99.7756 588.244 101.028 588.771 103.115 588.764C105.181 588.771 106.433 588.244 106.441 587.357C106.433 586.471 105.181 585.951 103.115 585.937C101.028 585.951 99.7756 586.471 99.7902 587.357ZM101.27 583.109H104.961V581.579C104.412 581.681 103.797 581.732 103.115 581.732C102.434 581.732 101.819 581.681 101.27 581.586V583.109ZM121.961 578.686V579.623H120.027V581.454H121.961V582.436H120.027V584.413H118.885V576.664H120.027V578.686H121.961ZM110.096 580.517C110.088 578.708 111.539 577.448 113.509 577.455C115.494 577.448 116.922 578.708 116.937 580.517C116.922 582.348 115.494 583.6 113.509 583.607C111.539 583.6 110.088 582.348 110.096 580.517ZM111.224 580.517C111.216 581.769 112.19 582.626 113.509 582.611C114.842 582.626 115.801 581.769 115.809 580.517C115.801 579.293 114.842 578.444 113.509 578.437C112.19 578.444 111.216 579.293 111.224 580.517ZM111.502 585.966V585.014H120.027V589.687H118.885V585.966H111.502ZM129.732 577.675V578.363C129.725 579.22 129.725 580.517 129.395 582.216L128.238 582.128C128.553 580.575 128.582 579.469 128.597 578.642H123.243V577.675H129.732ZM122.437 583.432C123.28 583.432 124.232 583.424 125.235 583.395V580.561H126.378V583.358C127.821 583.3 129.315 583.197 130.67 583.007L130.743 583.856C128.011 584.325 124.876 584.376 122.554 584.384L122.437 583.432ZM124.444 589.408V585.585H125.601V588.441H133.145V589.408H124.444ZM131.549 586.464V576.664H132.721V580.912H134.625V581.894H132.721V586.464H131.549ZM147.054 583.109V584.032H135.174V583.109H140.55V581.586H136.683V577.279H145.575V578.202H137.811V580.648H145.663V581.586H141.664V583.109H147.054ZM136.61 587.328C136.603 585.841 138.295 584.992 141.107 584.984C143.898 584.992 145.575 585.841 145.589 587.328C145.575 588.83 143.898 589.672 141.107 589.687C138.295 589.672 136.603 588.83 136.61 587.328ZM137.782 587.328C137.767 588.244 139.02 588.771 141.107 588.764C143.172 588.771 144.425 588.244 144.432 587.328C144.425 586.427 143.172 585.893 141.107 585.893C139.02 585.893 137.767 586.427 137.782 587.328ZM152.101 577.616C154.144 577.624 155.595 578.869 155.602 580.678C155.595 582.494 154.144 583.732 152.101 583.739C150.043 583.732 148.578 582.494 148.585 580.678C148.578 578.869 150.043 577.624 152.101 577.616ZM147.912 585.863C150.314 585.871 153.632 585.849 156.51 585.424L156.598 586.273C153.617 586.83 150.416 586.845 148.073 586.845L147.912 585.863ZM149.713 580.678C149.706 581.894 150.709 582.729 152.101 582.729C153.478 582.729 154.481 581.894 154.474 580.678C154.481 579.469 153.478 578.627 152.101 578.627C150.709 578.627 149.706 579.469 149.713 580.678ZM157.374 589.716V576.664H158.517V589.716H157.374Z" fill="#777777"/>
<path d="M46 590.895H160.275V591.913H46V590.895Z" fill="#777777"/>
<mask id="mask4_250_1955" style="mask-type:alpha" maskUnits="userSpaceOnUse" x="225" y="572" width="22" height="22">
<rect x="225" y="572" width="22" height="22" fill="#D9D9D9"/>
</mask>
<g mask="url(#mask4_250_1955)">
<path d="M236.001 591.708C234.796 591.708 233.664 591.479 232.604 591.022C231.545 590.565 230.623 589.945 229.839 589.161C229.055 588.377 228.434 587.456 227.977 586.397C227.52 585.337 227.291 584.205 227.291 583.001C227.291 581.796 227.52 580.664 227.977 579.604C228.434 578.545 229.054 577.623 229.838 576.839C230.621 576.055 231.543 575.434 232.602 574.977C233.662 574.52 234.793 574.291 235.998 574.291C237.202 574.291 238.334 574.52 239.394 574.977C240.454 575.434 241.376 576.054 242.16 576.838C242.944 577.621 243.564 578.543 244.022 579.602C244.479 580.662 244.708 581.793 244.708 582.998C244.708 584.202 244.479 585.334 244.022 586.394C243.565 587.454 242.945 588.376 242.161 589.16C241.377 589.944 240.456 590.564 239.397 591.022C238.337 591.479 237.205 591.708 236.001 591.708ZM235.999 590.333C238.047 590.333 239.781 589.622 241.201 588.201C242.622 586.781 243.333 585.047 243.333 582.999C243.333 580.952 242.622 579.218 241.201 577.797C239.781 576.376 238.047 575.666 235.999 575.666C233.952 575.666 232.218 576.376 230.797 577.797C229.376 579.218 228.666 580.952 228.666 582.999C228.666 585.047 229.376 586.781 230.797 588.201C232.218 589.622 233.952 590.333 235.999 590.333Z" fill="#999999"/>
</g>
<path d="M263.393 583.578V584.516H251.513V583.578H256.874V582.289H253.095V577.045H261.913V577.982H254.252V579.198H261.562V580.077H254.252V581.366H261.986V582.289H258.017V583.578H263.393ZM252.963 587.577C252.956 586.222 254.574 585.482 257.46 585.497C260.316 585.482 261.928 586.222 261.942 587.577C261.928 588.947 260.316 589.657 257.46 589.657C254.574 589.657 252.956 588.947 252.963 587.577ZM254.12 587.577C254.105 588.368 255.307 588.778 257.46 588.764C259.591 588.778 260.778 588.368 260.785 587.577C260.778 586.801 259.591 586.369 257.46 586.361C255.307 586.369 254.105 586.801 254.12 587.577ZM274.943 576.679V586.229H273.801V576.679H274.943ZM264.323 583.446C266.293 582.677 267.634 580.773 267.634 578.715V577.411H268.805V578.715C268.791 580.7 270.146 582.479 272.087 583.183L271.486 584.105C269.977 583.527 268.805 582.355 268.227 580.854C267.663 582.45 266.476 583.732 264.953 584.34L264.323 583.446ZM266.535 589.408V585.351H267.678V588.441H275.353V589.408H266.535ZM281.22 580.165C281.22 582.458 282.736 584.823 284.589 585.731L283.886 586.654C282.451 585.907 281.25 584.362 280.671 582.553C280.092 584.472 278.862 586.12 277.397 586.903L276.665 585.98C278.569 585.043 280.078 582.545 280.092 580.165V577.792H281.22V580.165ZM285.791 589.687V576.664H286.933V581.952H289.116V582.948H286.933V589.687H285.791ZM300.256 576.664V589.716H299.099V576.664H300.256ZM290.002 582.216C290.01 579.447 291.387 577.682 293.328 577.675C295.261 577.682 296.66 579.447 296.653 582.216C296.66 584.992 295.261 586.75 293.328 586.742C291.387 586.75 290.01 584.992 290.002 582.216ZM291.116 582.216C291.116 584.333 292.024 585.724 293.328 585.717C294.639 585.724 295.539 584.333 295.539 582.216C295.539 580.099 294.639 578.708 293.328 578.7C292.024 578.708 291.116 580.099 291.116 582.216ZM314.048 583.109V584.062H302.183V583.109H305.127V581.271C304.087 580.868 303.501 580.209 303.501 579.33C303.501 577.799 305.259 576.92 308.115 576.913C310.95 576.92 312.708 577.799 312.715 579.33C312.708 580.202 312.129 580.861 311.104 581.271V583.109H314.048ZM303.618 587.357C303.611 585.871 305.288 585.05 308.115 585.058C310.906 585.05 312.583 585.871 312.598 587.357C312.583 588.844 310.906 589.657 308.115 589.657C305.288 589.657 303.611 588.844 303.618 587.357ZM304.688 579.33C304.68 580.282 305.984 580.832 308.115 580.839C310.225 580.832 311.536 580.282 311.543 579.33C311.536 578.393 310.225 577.821 308.115 577.821C305.984 577.821 304.68 578.393 304.688 579.33ZM304.79 587.357C304.776 588.244 306.028 588.771 308.115 588.764C310.181 588.771 311.433 588.244 311.441 587.357C311.433 586.471 310.181 585.951 308.115 585.937C306.028 585.951 304.776 586.471 304.79 587.357ZM306.27 583.109H309.961V581.579C309.412 581.681 308.797 581.732 308.115 581.732C307.434 581.732 306.819 581.681 306.27 581.586V583.109ZM326.961 578.686V579.623H325.027V581.454H326.961V582.436H325.027V584.413H323.885V576.664H325.027V578.686H326.961ZM315.096 580.517C315.088 578.708 316.539 577.448 318.509 577.455C320.494 577.448 321.922 578.708 321.937 580.517C321.922 582.348 320.494 583.6 318.509 583.607C316.539 583.6 315.088 582.348 315.096 580.517ZM316.224 580.517C316.216 581.769 317.19 582.626 318.509 582.611C319.842 582.626 320.801 581.769 320.809 580.517C320.801 579.293 319.842 578.444 318.509 578.437C317.19 578.444 316.216 579.293 316.224 580.517ZM316.502 585.966V585.014H325.027V589.687H323.885V585.966H316.502ZM334.732 577.675V578.363C334.725 579.22 334.725 580.517 334.395 582.216L333.238 582.128C333.553 580.575 333.582 579.469 333.597 578.642H328.243V577.675H334.732ZM327.437 583.432C328.28 583.432 329.232 583.424 330.235 583.395V580.561H331.378V583.358C332.821 583.3 334.315 583.197 335.67 583.007L335.743 583.856C333.011 584.325 329.876 584.376 327.554 584.384L327.437 583.432ZM329.444 589.408V585.585H330.601V588.441H338.145V589.408H329.444ZM336.549 586.464V576.664H337.721V580.912H339.625V581.894H337.721V586.464H336.549ZM352.054 583.109V584.032H340.174V583.109H345.55V581.586H341.683V577.279H350.575V578.202H342.811V580.648H350.663V581.586H346.664V583.109H352.054ZM341.61 587.328C341.603 585.841 343.295 584.992 346.107 584.984C348.898 584.992 350.575 585.841 350.589 587.328C350.575 588.83 348.898 589.672 346.107 589.687C343.295 589.672 341.603 588.83 341.61 587.328ZM342.782 587.328C342.767 588.244 344.02 588.771 346.107 588.764C348.172 588.771 349.425 588.244 349.432 587.328C349.425 586.427 348.172 585.893 346.107 585.893C344.02 585.893 342.767 586.427 342.782 587.328ZM357.101 577.616C359.144 577.624 360.595 578.869 360.602 580.678C360.595 582.494 359.144 583.732 357.101 583.739C355.043 583.732 353.578 582.494 353.585 580.678C353.578 578.869 355.043 577.624 357.101 577.616ZM352.912 585.863C355.314 585.871 358.632 585.849 361.51 585.424L361.598 586.273C358.617 586.83 355.416 586.845 353.073 586.845L352.912 585.863ZM354.713 580.678C354.706 581.894 355.709 582.729 357.101 582.729C358.478 582.729 359.481 581.894 359.474 580.678C359.481 579.469 358.478 578.627 357.101 578.627C355.709 578.627 354.706 579.469 354.713 580.678ZM362.374 589.716V576.664H363.517V589.716H362.374Z" fill="#777777"/>
<path d="M251 590.895H365.275V591.913H251V590.895Z" fill="#777777"/>
<rect width="410" height="50" transform="translate(20 624)" fill="#FF3A4A"/>
<path d="M168.325 655V642.98H172.608C175.405 642.98 176.775 644.657 176.775 646.882C176.775 649.098 175.397 650.783 172.608 650.783H170.151V655H168.325ZM170.151 649.223H172.426C174.194 649.231 174.932 648.235 174.932 646.882C174.932 645.521 174.194 644.549 172.426 644.541H170.151V649.223ZM178.112 655H176.169L180.486 642.98H182.594L186.927 655H184.985L183.889 651.829H179.208L178.112 655ZM179.731 650.302H183.358L181.582 645.172H181.499L179.731 650.302ZM194.556 646.151C194.44 645.031 193.46 644.392 192.082 644.392C190.613 644.392 189.683 645.147 189.675 646.168C189.675 647.305 190.912 647.753 191.867 647.978L193.029 648.293C194.564 648.667 196.49 649.505 196.498 651.68C196.49 653.713 194.871 655.199 192.033 655.199C189.343 655.199 187.65 653.854 187.534 651.663H189.36C189.468 652.975 190.63 653.597 192.033 653.605C193.568 653.597 194.681 652.825 194.689 651.646C194.681 650.601 193.684 650.177 192.414 649.837L190.987 649.455C189.053 648.924 187.857 647.944 187.849 646.268C187.857 644.192 189.7 642.814 192.132 642.814C194.573 642.814 196.274 644.209 196.332 646.151H194.556ZM204.658 646.151C204.542 645.031 203.563 644.392 202.185 644.392C200.716 644.392 199.786 645.147 199.778 646.168C199.778 647.305 201.014 647.753 201.969 647.978L203.131 648.293C204.667 648.667 206.593 649.505 206.601 651.68C206.593 653.713 204.974 655.199 202.135 655.199C199.446 655.199 197.752 653.854 197.636 651.663H199.462C199.57 652.975 200.732 653.597 202.135 653.605C203.671 653.597 204.783 652.825 204.791 651.646C204.783 650.601 203.787 650.177 202.517 649.837L201.089 649.455C199.155 648.924 197.96 647.944 197.951 646.268C197.96 644.192 199.802 642.814 202.235 642.814C204.675 642.814 206.377 644.209 206.435 646.151H204.658ZM221.152 653.307V654.635H207.539V653.307H213.532V650.7H209.199V645.969H217.932V643.877H209.166V642.582H219.492V647.23H210.76V649.405H219.841V650.7H215.093V653.307H221.152ZM238.037 641.553V652.36H236.46V641.553H238.037ZM226.001 646.234C226.009 644.084 227.719 642.557 229.969 642.549C232.21 642.557 233.92 644.084 233.92 646.234C233.92 648.417 232.21 649.937 229.969 649.937C227.719 649.937 226.009 648.417 226.001 646.234ZM227.545 646.234C227.536 647.637 228.582 648.559 229.969 648.559C231.33 648.559 232.376 647.637 232.376 646.234C232.376 644.865 231.33 643.927 229.969 643.927C228.582 643.927 227.536 644.865 227.545 646.234ZM228.308 656.096V651.265H229.902V654.817H238.485V656.096H228.308ZM253.618 648.542V649.82H240.054V648.542H253.618ZM240.768 646.517C243.466 646.226 245.599 645.014 245.774 643.562H241.299V642.267H252.406V643.562H247.882C248.065 645.006 250.165 646.226 252.921 646.517L252.356 647.762C249.775 647.463 247.641 646.375 246.836 644.807C246.014 646.375 243.898 647.463 241.316 647.762L240.768 646.517ZM241.665 653.688C241.665 651.962 243.599 650.966 246.828 650.966C250.032 650.966 251.949 651.962 251.958 653.688C251.949 655.415 250.032 656.386 246.828 656.378C243.599 656.386 241.665 655.415 241.665 653.688ZM243.258 653.688C243.25 654.626 244.553 655.141 246.828 655.133C249.069 655.141 250.38 654.626 250.38 653.688C250.38 652.726 249.069 652.211 246.828 652.194C244.553 652.211 243.25 652.726 243.258 653.688ZM265.995 641.536V647.562H268.385V648.874H265.995V656.411H264.434V641.536H265.995ZM254.324 645.155V643.86H257.993V641.735H259.57V643.86H263.139V645.155H254.324ZM255.087 649.704C255.087 647.679 256.648 646.251 258.789 646.251C260.923 646.251 262.483 647.679 262.492 649.704C262.483 651.746 260.923 653.166 258.789 653.174C256.648 653.166 255.087 651.746 255.087 649.704ZM256.598 649.704C256.59 650.999 257.519 651.862 258.789 651.846C260.051 651.862 260.973 650.999 260.981 649.704C260.973 648.434 260.051 647.554 258.789 647.546C257.519 647.554 256.59 648.434 256.598 649.704ZM281.127 641.536V656.411H279.533V641.536H281.127ZM268.908 652.427C272.86 650.542 274.794 647.861 275.101 644.392H269.622V643.13H276.695C276.695 647.488 274.844 651.256 269.739 653.705L268.908 652.427Z" fill="white"/>
<rect width="410" height="50" transform="translate(20 684)" fill="#373A3F"/>
<path d="M163.838 709.057V710.335H157.928V713.224H156.367V710.335H150.225V709.057H163.838ZM151.918 716.096V711.812H153.495V714.817H162.327V716.096H151.918ZM151.968 707.513V702.233H162.078V707.513H151.968ZM153.512 706.268H160.518V703.479H153.512V706.268ZM169.773 705.919C169.765 708.268 171.317 710.891 173.575 711.962L172.679 713.19C171.01 712.394 169.682 710.717 169.01 708.774C168.329 710.891 166.934 712.726 165.241 713.572L164.311 712.327C166.569 711.24 168.204 708.434 168.213 705.919V704.342H164.859V703.03H173.011V704.342H169.773V705.919ZM174.604 716.411V701.536H176.181V707.43H178.572V708.758H176.181V716.411H174.604ZM179.842 710.418C179.859 707.289 180.747 704.69 182.299 702.466H183.926C182.781 704.109 181.685 707.455 181.685 710.418C181.685 713.39 182.781 716.735 183.926 718.387H182.299C180.747 716.154 179.859 713.556 179.842 710.418ZM191.904 706.151C191.788 705.031 190.808 704.392 189.43 704.392C187.961 704.392 187.031 705.147 187.023 706.168C187.023 707.305 188.26 707.753 189.214 707.978L190.376 708.293C191.912 708.667 193.838 709.505 193.846 711.68C193.838 713.713 192.219 715.199 189.38 715.199C186.691 715.199 184.998 713.854 184.881 711.663H186.708C186.815 712.975 187.978 713.597 189.38 713.605C190.916 713.597 192.028 712.825 192.037 711.646C192.028 710.601 191.032 710.177 189.762 709.837L188.334 709.455C186.4 708.924 185.205 707.944 185.197 706.268C185.205 704.192 187.048 702.814 189.48 702.814C191.92 702.814 193.622 704.209 193.68 706.151H191.904ZM195.465 702.98H197.69L201.492 712.294H201.641L205.443 702.98H207.667V715H205.924V706.317H205.808L202.288 714.983H200.844L197.308 706.301H197.208V715H195.465V702.98ZM216.325 706.151C216.209 705.031 215.23 704.392 213.852 704.392C212.382 704.392 211.453 705.147 211.444 706.168C211.444 707.305 212.681 707.753 213.636 707.978L214.798 708.293C216.334 708.667 218.259 709.505 218.268 711.68C218.259 713.713 216.641 715.199 213.802 715.199C211.112 715.199 209.419 713.854 209.303 711.663H211.129C211.237 712.975 212.399 713.597 213.802 713.605C215.338 713.597 216.45 712.825 216.458 711.646C216.45 710.601 215.454 710.177 214.184 709.837L212.756 709.455C210.822 708.924 209.627 707.944 209.618 706.268C209.627 704.192 211.469 702.814 213.902 702.814C216.342 702.814 218.044 704.209 218.102 706.151H216.325ZM223.29 710.418C223.273 713.556 222.385 716.154 220.833 718.387H219.206C220.352 716.735 221.447 713.39 221.447 710.418C221.447 707.455 220.352 704.109 219.206 702.466H220.833C222.385 704.69 223.273 707.289 223.29 710.418ZM238.556 713.307V714.635H224.942V713.307H230.935V710.7H226.602V705.969H235.335V703.877H226.569V702.582H236.895V707.23H228.163V709.405H237.244V710.7H232.496V713.307H238.556ZM255.44 701.553V712.36H253.863V701.553H255.44ZM243.404 706.234C243.412 704.084 245.122 702.557 247.372 702.549C249.613 702.557 251.323 704.084 251.323 706.234C251.323 708.417 249.613 709.937 247.372 709.937C245.122 709.937 243.412 708.417 243.404 706.234ZM244.948 706.234C244.939 707.637 245.985 708.559 247.372 708.559C248.733 708.559 249.779 707.637 249.779 706.234C249.779 704.865 248.733 703.927 247.372 703.927C245.985 703.927 244.939 704.865 244.948 706.234ZM245.711 716.096V711.265H247.305V714.817H255.888V716.096H245.711ZM271.021 708.542V709.82H257.457V708.542H271.021ZM258.171 706.517C260.869 706.226 263.002 705.014 263.177 703.562H258.702V702.267H269.809V703.562H265.285C265.468 705.006 267.568 706.226 270.324 706.517L269.759 707.762C267.178 707.463 265.044 706.375 264.239 704.807C263.417 706.375 261.301 707.463 258.719 707.762L258.171 706.517ZM259.068 713.688C259.068 711.962 261.002 710.966 264.231 710.966C267.435 710.966 269.352 711.962 269.361 713.688C269.352 715.415 267.435 716.386 264.231 716.378C261.002 716.386 259.068 715.415 259.068 713.688ZM260.661 713.688C260.653 714.626 261.956 715.141 264.231 715.133C266.472 715.141 267.784 714.626 267.784 713.688C267.784 712.726 266.472 712.211 264.231 712.194C261.956 712.211 260.653 712.726 260.661 713.688ZM283.398 701.536V707.562H285.788V708.874H283.398V716.411H281.837V701.536H283.398ZM271.727 705.155V703.86H275.396V701.735H276.973V703.86H280.542V705.155H271.727ZM272.49 709.704C272.49 707.679 274.051 706.251 276.193 706.251C278.326 706.251 279.886 707.679 279.895 709.704C279.886 711.746 278.326 713.166 276.193 713.174C274.051 713.166 272.49 711.746 272.49 709.704ZM274.001 709.704C273.993 710.999 274.923 711.862 276.193 711.846C277.454 711.862 278.376 710.999 278.384 709.704C278.376 708.434 277.454 707.554 276.193 707.546C274.923 707.554 273.993 708.434 274.001 709.704ZM298.53 701.536V716.411H296.937V701.536H298.53ZM286.312 712.427C290.263 710.542 292.197 707.861 292.504 704.392H287.025V703.13H294.098C294.098 707.488 292.247 711.256 287.142 713.705L286.312 712.427Z" fill="white"/>
<rect width="450" height="30" transform="translate(0 754)" fill="#F4F4F4"/>
<path d="M18.7627 763.742V775.054H17.7598V763.742H18.7627ZM9.87598 768.554C9.88232 766.154 11.0757 764.625 12.7578 764.618C14.4336 764.625 15.646 766.154 15.6396 768.554C15.646 770.959 14.4336 772.483 12.7578 772.477C11.0757 772.483 9.88232 770.959 9.87598 768.554ZM10.8408 768.554C10.8408 770.388 11.6279 771.594 12.7578 771.588C13.894 771.594 14.6748 770.388 14.6748 768.554C14.6748 766.719 13.894 765.513 12.7578 765.507C11.6279 765.513 10.8408 766.719 10.8408 768.554ZM30.7156 769.328V770.153H20.4324V769.328H22.9841V767.735C22.0828 767.386 21.575 766.814 21.575 766.053C21.575 764.726 23.0984 763.964 25.574 763.958C28.0305 763.964 29.554 764.726 29.5603 766.053C29.554 766.808 29.0525 767.379 28.1638 767.735V769.328H30.7156ZM21.6765 773.01C21.6702 771.721 23.1238 771.01 25.574 771.017C27.9924 771.01 29.4461 771.721 29.4587 773.01C29.4461 774.298 27.9924 775.003 25.574 775.003C23.1238 775.003 21.6702 774.298 21.6765 773.01ZM22.6033 766.053C22.5969 766.878 23.7268 767.354 25.574 767.36C27.4021 767.354 28.5383 766.878 28.5447 766.053C28.5383 765.24 27.4021 764.745 25.574 764.745C23.7268 764.745 22.5969 765.24 22.6033 766.053ZM22.6921 773.01C22.6795 773.778 23.7649 774.235 25.574 774.229C27.364 774.235 28.4495 773.778 28.4558 773.01C28.4495 772.242 27.364 771.791 25.574 771.778C23.7649 771.791 22.6795 772.242 22.6921 773.01ZM23.9744 769.328H27.1736V768.001C26.6975 768.09 26.1643 768.135 25.574 768.135C24.9837 768.135 24.4504 768.09 23.9744 768.008V769.328ZM41.9068 765.494V766.307H40.231V767.894H41.9068V768.744H40.231V770.458H39.2407V763.742H40.231V765.494H41.9068ZM31.6236 767.081C31.6172 765.513 32.874 764.421 34.5816 764.428C36.3018 764.421 37.5396 765.513 37.5523 767.081C37.5396 768.668 36.3018 769.753 34.5816 769.76C32.874 769.753 31.6172 768.668 31.6236 767.081ZM32.6011 767.081C32.5947 768.167 33.439 768.909 34.5816 768.896C35.7368 768.909 36.5684 768.167 36.5747 767.081C36.5684 766.021 35.7368 765.285 34.5816 765.278C33.439 765.285 32.5947 766.021 32.6011 767.081ZM32.8423 771.804V770.979H40.231V775.028H39.2407V771.804H32.8423ZM48.6419 764.618V765.215C48.6355 765.958 48.6355 767.081 48.3499 768.554L47.347 768.478C47.6199 767.132 47.6453 766.173 47.658 765.456H43.0179V764.618H48.6419ZM42.3196 769.607C43.0496 769.607 43.8748 769.601 44.7444 769.576V767.119H45.7346V769.544C46.9851 769.493 48.2801 769.404 49.4544 769.239L49.5179 769.976C47.1502 770.382 44.4334 770.426 42.4212 770.433L42.3196 769.607ZM44.0589 774.787V771.474H45.0618V773.949H51.5999V774.787H44.0589ZM50.2161 772.235V763.742H51.2317V767.424H52.8821V768.274H51.2317V772.235H50.2161ZM58.367 763.514V775.295H57.4275V763.514H58.367ZM72.7132 763.742V775.028H71.7357V769.125H70.1741V774.47H69.222V764.047H70.1741V768.3H71.7357V763.742H72.7132ZM63.0902 771.905C65.7117 770.439 66.7908 768.376 66.9622 766.04H63.5218V765.215H67.9398C67.9271 768.084 66.9178 770.794 63.6741 772.604L63.0902 771.905ZM83.3712 763.755V772.007H82.3809V763.755H83.3712ZM74.3194 767.31C74.3131 765.685 75.5889 764.548 77.2774 764.542C78.9659 764.548 80.2291 765.685 80.2354 767.31C80.2291 768.954 78.9659 770.096 77.2774 770.09C75.5889 770.096 74.3131 768.954 74.3194 767.31ZM75.297 767.31C75.2843 768.433 76.1348 769.214 77.2774 769.214C78.401 769.214 79.2579 768.433 79.2579 767.31C79.2579 766.205 78.401 765.418 77.2774 765.418C76.1348 765.418 75.2843 766.205 75.297 767.31ZM76.0841 774.787V771.169H77.0743V773.949H83.7266V774.787H76.0841ZM94.3846 763.742V770.471H93.3817V767.513H91.1092V766.688H93.3817V763.742H94.3846ZM85.0789 769.569C86.7547 768.966 87.9481 767.437 87.9481 765.824V765.405H85.3963V764.567H91.4774V765.405H88.951V765.812C88.951 767.284 90.0809 768.687 91.7313 769.252L91.2108 770.052C89.9476 769.595 88.9637 768.643 88.4749 767.481C87.9925 768.801 86.9452 769.855 85.5995 770.369L85.0789 769.569ZM86.8563 772.921C86.8499 771.594 88.2909 770.82 90.6395 770.826C92.9818 770.82 94.4227 771.594 94.4227 772.921C94.4227 774.254 92.9818 775.016 90.6395 775.028C88.2909 775.016 86.8499 774.254 86.8563 772.921ZM87.8465 772.921C87.8402 773.74 88.9066 774.235 90.6395 774.229C92.3661 774.235 93.4325 773.74 93.4325 772.921C93.4325 772.096 92.3661 771.601 90.6395 771.601C88.9066 771.601 87.8402 772.096 87.8465 772.921ZM106.338 772.756V773.581H96.0035V772.756H100.65V770.318H97.2223V764.542H98.2252V766.586H104.09V764.542H105.068V770.318H101.628V772.756H106.338ZM98.2252 769.506H104.09V767.398H98.2252V769.506ZM116.335 763.742V775.054H115.332V769.112H112.857V768.287H115.332V763.742H116.335ZM107.004 772.07C108.661 771.296 109.899 769.366 109.899 767.424V766.522H107.309V765.71H109.899V763.958H110.889V765.71H113.441V766.522H110.876V767.424C110.876 769.284 112.152 771.118 113.822 771.867L113.25 772.642C111.962 772.058 110.902 770.82 110.4 769.334C109.911 770.909 108.864 772.223 107.576 772.845L107.004 772.07ZM127.273 763.742V775.054H126.282V763.742H127.273ZM118.589 765.621V764.796H123.845V768.808H119.63V771.474C121.503 771.48 123.172 771.391 125.191 771.067L125.292 771.905C123.216 772.229 121.503 772.312 119.554 772.312H118.614V767.995H122.842V765.621H118.589ZM134.135 770.839C136.452 770.839 137.854 771.601 137.854 772.921C137.854 774.254 136.452 775.016 134.135 775.028C131.811 775.016 130.396 774.254 130.39 772.921C130.396 771.601 131.811 770.839 134.135 770.839ZM129.412 769.658V764.453H130.39V766.18H133.678V764.453H134.668V769.658H129.412ZM130.39 768.846H133.678V766.967H130.39V768.846ZM131.392 772.921C131.38 773.733 132.433 774.216 134.135 774.216C135.842 774.216 136.883 773.733 136.89 772.921C136.883 772.115 135.842 771.639 134.135 771.626C132.433 771.639 131.38 772.115 131.392 772.921ZM136.763 770.534V763.742H137.753V766.586H139.454V767.437H137.753V770.534H136.763ZM144.006 766.04C143.999 767.475 145.237 768.738 146.925 769.227L146.456 770.014C145.116 769.614 144.05 768.744 143.529 767.621C143.034 768.852 141.968 769.804 140.616 770.255L140.133 769.48C141.809 768.935 143.015 767.57 143.015 766.04V765.888H140.413V765.088H143.015V763.691H144.018V765.088H146.595V765.888H144.006V766.04ZM141.885 774.876V771.017H149.223V774.876H141.885ZM142.863 774.063H148.246V771.829H142.863V774.063ZM148.233 770.445V763.755H149.223V770.445H148.233ZM155.889 763.514V775.295H154.949V763.514H155.889ZM167.429 767.678C167.036 766.497 166.141 765.748 164.827 765.748C163.202 765.748 161.913 767.03 161.907 769.404C161.913 771.772 163.202 773.054 164.903 773.061C166.452 773.054 167.525 772.026 167.544 770.395H165.144V769.392H168.661V770.382C168.661 772.661 167.093 774.127 164.903 774.127C162.446 774.127 160.796 772.312 160.802 769.404C160.796 766.497 162.466 764.682 164.827 764.682C166.769 764.682 168.267 765.9 168.61 767.678H167.429ZM171.067 764.809V774H169.975V764.809H171.067ZM175.364 774.14C173.486 774.146 172.216 772.724 172.216 770.585C172.216 768.433 173.486 767.018 175.364 767.018C177.237 767.018 178.494 768.433 178.488 770.585C178.494 772.724 177.237 774.146 175.364 774.14ZM173.308 770.585C173.314 771.962 173.962 773.175 175.364 773.175C176.755 773.175 177.396 771.962 177.396 770.585C177.396 769.214 176.755 767.982 175.364 767.982C173.962 767.982 173.314 769.214 173.308 770.585ZM179.802 774V764.809H180.894V768.198H180.982C181.217 767.83 181.63 767.018 182.976 767.018C184.702 767.018 185.915 768.389 185.921 770.572C185.915 772.762 184.702 774.146 182.988 774.14C181.668 774.146 181.217 773.327 180.982 772.946H180.855V774H179.802ZM180.868 770.547C180.868 772.096 181.566 773.162 182.823 773.162C184.137 773.162 184.81 772.013 184.816 770.547C184.81 769.106 184.156 767.995 182.823 767.995C181.554 767.995 180.868 769.017 180.868 770.547ZM186.753 772.045C186.753 770.464 188.149 770.103 189.342 770.014C189.787 769.982 190.898 769.918 191.209 769.912V769.354C191.209 768.478 190.688 767.97 189.647 767.97C188.778 767.97 188.251 768.37 188.098 768.896H186.956C187.095 767.786 188.175 767.018 189.698 767.018C190.599 767.018 192.294 767.284 192.288 769.455V774H191.209V773.061H191.158C190.929 773.524 190.301 774.159 189.101 774.165C187.794 774.159 186.753 773.391 186.753 772.045ZM187.844 772.096C187.851 772.826 188.454 773.194 189.292 773.188C190.523 773.194 191.209 772.369 191.209 771.499V770.807C190.885 770.826 189.8 770.909 189.469 770.928C188.479 770.991 187.851 771.34 187.844 772.096ZM194.872 764.809V774H193.78V764.809H194.872ZM201.505 767.119C201.41 766.218 200.572 765.697 199.474 765.697C198.255 765.697 197.462 766.332 197.455 767.208C197.462 768.173 198.534 768.535 199.233 768.706L200.147 768.96C201.131 769.214 202.749 769.779 202.749 771.499C202.749 772.997 201.543 774.159 199.41 774.165C197.43 774.159 196.205 773.137 196.097 771.613H197.265C197.36 772.642 198.319 773.13 199.41 773.124C200.68 773.13 201.632 772.477 201.632 771.474C201.632 770.579 200.781 770.236 199.817 769.963L198.687 769.658C197.246 769.239 196.344 768.503 196.351 767.259C196.344 765.704 197.728 764.682 199.512 764.682C201.296 764.682 202.578 765.723 202.622 767.119H201.505ZM203.987 774V767.106H205.079V774H203.987ZM203.771 765.24C203.765 764.834 204.114 764.51 204.533 764.517C204.952 764.51 205.301 764.834 205.308 765.24C205.301 765.64 204.952 765.964 204.533 765.964C204.114 765.964 203.765 765.64 203.771 765.24ZM209.351 776.729C207.682 776.729 206.552 776 206.431 774.724H207.574C207.72 775.428 208.374 775.777 209.351 775.777C210.532 775.777 211.256 775.263 211.256 774.127V772.73H211.167C210.932 773.111 210.494 773.892 209.161 773.898C207.485 773.892 206.228 772.629 206.228 770.458C206.228 768.338 207.441 767.018 209.174 767.018C210.513 767.018 210.945 767.83 211.192 768.198H211.281V767.106H212.347V774.19C212.341 775.968 211.033 776.729 209.351 776.729ZM207.333 770.496C207.333 771.924 208.006 772.921 209.313 772.921C210.576 772.921 211.275 772.013 211.281 770.496C211.275 769.017 210.595 767.995 209.313 767.995C207.987 767.995 207.333 769.106 207.333 770.496ZM214.918 769.861V774H213.827V767.106H214.88V768.186H214.969C215.293 767.481 215.94 767.018 216.988 767.018C218.384 767.018 219.317 767.868 219.311 769.62V774H218.219V769.696C218.219 768.63 217.635 767.995 216.658 767.995C215.655 767.995 214.918 768.668 214.918 769.861ZM223.793 774L223.78 773.162L226.916 769.861C228.002 768.706 228.522 768.084 228.528 767.233C228.522 766.288 227.735 765.678 226.7 765.672C225.602 765.678 224.917 766.37 224.91 767.398H223.831C223.818 765.773 225.075 764.682 226.738 764.682C228.408 764.682 229.588 765.805 229.595 767.233C229.588 768.262 229.112 769.062 227.487 770.737L225.38 772.908V772.984H229.76V774H223.793ZM234.159 774.127C232.502 774.127 231.245 773.105 231.176 771.689H232.28C232.363 772.508 233.162 773.118 234.159 773.124C235.352 773.118 236.216 772.248 236.216 771.093C236.216 769.899 235.321 769.017 234.083 769.011C233.308 768.998 232.705 769.239 232.369 769.836H231.264L231.912 764.809H236.888V765.824H232.864L232.521 768.516H232.61C233.023 768.198 233.638 767.982 234.286 767.982C236.038 767.982 237.326 769.277 237.333 771.067C237.326 772.845 235.993 774.127 234.159 774.127ZM241.859 774.127C240.266 774.108 238.507 773.162 238.507 769.76C238.507 766.503 239.84 764.682 241.999 764.682C243.617 764.682 244.747 765.678 244.982 767.119H243.852C243.643 766.307 243.021 765.697 241.999 765.697C240.488 765.697 239.58 766.986 239.586 769.201H239.701C240.228 768.433 241.072 767.982 242.062 767.982C243.693 767.982 245.058 769.252 245.058 771.029C245.058 772.762 243.795 774.146 241.859 774.127ZM239.739 771.055C239.745 772.134 240.628 773.118 241.859 773.124C243.046 773.118 243.947 772.185 243.954 771.042C243.947 769.912 243.084 768.992 241.884 768.985C240.678 768.992 239.752 769.969 239.739 771.055ZM254.542 767.119C254.447 766.218 253.609 765.697 252.511 765.697C251.292 765.697 250.499 766.332 250.492 767.208C250.499 768.173 251.571 768.535 252.27 768.706L253.184 768.96C254.168 769.214 255.786 769.779 255.786 771.499C255.786 772.997 254.58 774.159 252.447 774.165C250.467 774.159 249.242 773.137 249.134 771.613H250.302C250.397 772.642 251.356 773.13 252.447 773.124C253.717 773.13 254.669 772.477 254.669 771.474C254.669 770.579 253.818 770.236 252.854 769.963L251.724 769.658C250.283 769.239 249.381 768.503 249.388 767.259C249.381 765.704 250.765 764.682 252.549 764.682C254.333 764.682 255.615 765.723 255.659 767.119H254.542ZM262.179 767.119C262.083 766.218 261.245 765.697 260.147 765.697C258.929 765.697 258.135 766.332 258.129 767.208C258.135 768.173 259.208 768.535 259.906 768.706L260.82 768.96C261.804 769.214 263.423 769.779 263.423 771.499C263.423 772.997 262.217 774.159 260.084 774.165C258.103 774.159 256.878 773.137 256.77 771.613H257.938C258.034 772.642 258.992 773.13 260.084 773.124C261.353 773.13 262.306 772.477 262.306 771.474C262.306 770.579 261.455 770.236 260.49 769.963L259.36 769.658C257.919 769.239 257.018 768.503 257.024 767.259C257.018 765.704 258.402 764.682 260.185 764.682C261.969 764.682 263.251 765.723 263.296 767.119H262.179ZM264.8 774V764.809H265.943V772.984H270.209V774H264.8ZM282.739 763.742V766.535H284.441V767.348H282.739V770.28H281.749V763.742H282.739ZM274.132 767.081C274.126 765.507 275.382 764.421 277.09 764.428C278.81 764.421 280.048 765.507 280.061 767.081C280.048 768.649 278.81 769.728 277.09 769.734C275.382 769.728 274.126 768.649 274.132 767.081ZM275.109 767.081C275.103 768.147 275.947 768.884 277.09 768.896C278.245 768.884 279.077 768.147 279.083 767.081C279.077 766.021 278.245 765.266 277.09 765.278C275.947 765.266 275.103 766.021 275.109 767.081ZM275.617 774.876V770.813H282.739V774.876H275.617ZM276.595 774.063H281.749V771.626H276.595V774.063ZM294.641 765.418V766.243H285.399V765.418H289.538V763.933H290.516V765.418H294.641ZM284.891 773.708V772.883H289.538V771.296C287.526 771.188 286.313 770.407 286.326 769.138C286.313 767.798 287.729 767.005 290.033 767.018C292.306 767.005 293.746 767.798 293.74 769.138C293.746 770.407 292.509 771.188 290.516 771.296V772.883H295.225V773.708H284.891ZM287.329 769.138C287.316 769.995 288.351 770.49 290.033 770.496C291.696 770.49 292.731 769.995 292.724 769.138C292.731 768.3 291.696 767.805 290.033 767.805C288.351 767.805 287.316 768.3 287.329 769.138ZM304.627 763.742V768.554H306.429V769.392H304.627V775.028H303.624V763.742H304.627ZM295.727 772.02C296.648 772.02 297.72 772.013 298.838 771.981V770.737C297.524 770.585 296.667 769.811 296.679 768.693C296.667 767.417 297.746 766.592 299.345 766.599C300.92 766.592 302.018 767.417 302.024 768.693C302.018 769.817 301.148 770.585 299.84 770.737V771.943C300.888 771.893 301.954 771.804 302.938 771.664L303.002 772.426C300.539 772.845 297.873 772.87 295.892 772.87L295.727 772.02ZM295.93 765.938V765.126H298.838V763.768H299.84V765.126H302.735V765.938H295.93ZM297.606 768.693C297.612 769.474 298.298 769.988 299.345 769.976C300.374 769.988 301.066 769.474 301.072 768.693C301.066 767.906 300.374 767.373 299.345 767.373C298.298 767.373 297.612 767.906 297.606 768.693ZM313.768 765.824C313.768 767.291 314.898 768.693 316.548 769.265L316.027 770.052C314.758 769.595 313.774 768.649 313.292 767.487C312.803 768.782 311.756 769.823 310.416 770.318L309.896 769.531C311.559 768.935 312.765 767.43 312.765 765.837V765.342H310.213V764.529H316.294V765.342H313.768V765.824ZM311.61 771.931V771.105H319.201V775.028H318.198V771.931H311.61ZM315.939 767.538V766.7H318.198V763.742H319.201V770.509H318.198V767.538H315.939ZM331.103 769.328V770.153H320.82V769.328H323.372V767.735C322.471 767.386 321.963 766.814 321.963 766.053C321.963 764.726 323.486 763.964 325.962 763.958C328.418 763.964 329.942 764.726 329.948 766.053C329.942 766.808 329.44 767.379 328.552 767.735V769.328H331.103ZM322.064 773.01C322.058 771.721 323.512 771.01 325.962 771.017C328.38 771.01 329.834 771.721 329.847 773.01C329.834 774.298 328.38 775.003 325.962 775.003C323.512 775.003 322.058 774.298 322.064 773.01ZM322.991 766.053C322.985 766.878 324.115 767.354 325.962 767.36C327.79 767.354 328.926 766.878 328.933 766.053C328.926 765.24 327.79 764.745 325.962 764.745C324.115 764.745 322.985 765.24 322.991 766.053ZM323.08 773.01C323.067 773.778 324.153 774.235 325.962 774.229C327.752 774.235 328.837 773.778 328.844 773.01C328.837 772.242 327.752 771.791 325.962 771.778C324.153 771.791 323.067 772.242 323.08 773.01ZM324.362 769.328H327.561V768.001C327.085 768.09 326.552 768.135 325.962 768.135C325.371 768.135 324.838 768.09 324.362 768.008V769.328Z" fill="#555555"/>
<path d="M376.432 764.453V767.09H377.555V768.359H376.432V771.182H374.859V764.453H376.432ZM369.195 766.514V765.303H371.08V764.434H372.652V765.303H374.537V766.514H369.195ZM369.586 768.506C369.581 767.446 370.538 766.719 371.861 766.719C373.185 766.719 374.117 767.446 374.117 768.506C374.117 769.561 373.185 770.273 371.861 770.264C370.538 770.273 369.581 769.561 369.586 768.506ZM370.445 773.34V770.674H372.018V772.09H376.695V773.34H370.445ZM371.119 768.506C371.114 768.916 371.412 769.092 371.861 769.092C372.32 769.092 372.628 768.916 372.633 768.506C372.628 768.096 372.32 767.905 371.861 767.9C371.412 767.905 371.114 768.096 371.119 768.506ZM384.991 764.805V765.557C384.996 766.211 384.996 766.948 384.835 767.852H385.9V769.092H382.55V770.146H384.962V773.467H383.4V771.357H378.458V770.146H380.968V769.092H377.648V767.852H383.253C383.385 767.148 383.414 766.577 383.424 766.045H378.634V764.805H384.991ZM394.342 771.211V772.48H386.09V771.211H389.43V769.59H386.901V765.049H393.493V769.59H390.983V771.211H394.342ZM388.454 768.379H391.94V766.299H388.454V768.379ZM401.74 764.434V767.705H402.961V768.994H401.74V773.467H400.168V764.434H401.74ZM394.767 771.426V765.127H396.33V767.197H397.716V765.127H399.279V771.426H394.767ZM396.33 770.166H397.716V768.408H396.33V770.166ZM405.544 764.668C406.94 764.663 408.005 765.547 408.005 766.768C408.005 767.979 406.94 768.857 405.544 768.857C404.138 768.857 403.063 767.979 403.073 766.768C403.063 765.547 404.138 764.663 405.544 764.668ZM404.421 770.42V769.229H410.593V771.855H405.973V772.168H410.788V773.389H404.44V770.732H409.03V770.42H404.421ZM404.587 766.768C404.577 767.329 404.987 767.603 405.544 767.607C406.096 767.603 406.496 767.329 406.491 766.768C406.496 766.206 406.096 765.938 405.544 765.928C404.992 765.938 404.577 766.206 404.587 766.768ZM409.02 768.896V764.434H410.593V768.896H409.02ZM419.035 764.453V770.869H417.463V764.453H419.035ZM411.516 767.305C411.506 765.967 412.634 764.985 414.045 764.99C415.451 764.985 416.579 765.967 416.574 767.305C416.579 768.667 415.451 769.634 414.045 769.639C412.634 769.634 411.506 768.667 411.516 767.305ZM412.854 773.34V770.225H414.436V772.09H419.25V773.34H412.854ZM413.039 767.305C413.034 767.964 413.469 768.276 414.045 768.281C414.592 768.276 415.021 767.964 415.021 767.305C415.021 766.67 414.592 766.343 414.045 766.348C413.469 766.343 413.034 766.67 413.039 767.305ZM428.103 768.516V769.766H419.861V768.516H428.103ZM420.154 767.1C421.775 766.968 422.492 766.504 422.756 766.064H420.612V764.824H427.351V766.064H425.183C425.437 766.504 426.154 766.968 427.82 767.1L427.282 768.32C425.476 768.174 424.431 767.563 423.962 766.768C423.498 767.559 422.478 768.174 420.671 768.32L420.154 767.1ZM420.769 771.787C420.774 770.713 421.975 770.088 423.962 770.088C425.935 770.088 427.121 770.713 427.126 771.787C427.121 772.871 425.935 773.486 423.962 773.486C421.975 773.486 420.774 772.871 420.769 771.787ZM422.37 771.787C422.361 772.153 422.839 772.275 423.962 772.275C425.051 772.275 425.554 772.153 425.554 771.787C425.554 771.421 425.051 771.289 423.962 771.289C422.839 771.289 422.361 771.421 422.37 771.787ZM437.014 773.643C437.566 772.661 438.176 770.723 438.176 768.965C438.176 767.202 437.566 765.264 437.014 764.277H438.459C439.221 765.605 439.714 767.129 439.709 768.965C439.714 770.796 439.221 772.319 438.459 773.643H437.014ZM428.811 768.965C428.806 767.129 429.299 765.605 430.061 764.277H431.506C430.954 765.264 430.344 767.202 430.344 768.965C430.344 770.723 430.954 772.661 431.506 773.643H430.061C429.299 772.319 428.806 770.796 428.811 768.965ZM431.125 770.049V769.014H437.395V770.049H434.885V772.217H433.577V770.049H431.125ZM431.36 767.764C432.805 767.617 433.298 767.109 433.44 766.65H431.662V765.645H436.868V766.65H435.09C435.227 767.109 435.705 767.617 437.161 767.764L436.692 768.789C435.422 768.652 434.665 768.213 434.26 767.622C433.86 768.213 433.103 768.652 431.838 768.789L431.36 767.764Z" fill="#333333"/>
<defs>
<clipPath id="clip0_250_1955">
<rect width="64.0816" height="20" fill="white" transform="translate(20 20)"/>
</clipPath>
</defs>
</svg>
