<svg width="450" height="851" viewBox="0 0 450 851" fill="none" xmlns="http://www.w3.org/2000/svg">
<rect width="450" height="851" fill="white"/>
<rect width="450" height="58" fill="white"/>
<mask id="mask0_250_1779" style="mask-type:alpha" maskUnits="userSpaceOnUse" x="14" y="17" width="24" height="24">
<rect x="14" y="17" width="24" height="24" fill="#D9D9D9"/>
</mask>
<g mask="url(#mask0_250_1779)">
<path d="M23.0152 28.9994L30.248 36.2321C30.43 36.4141 30.5227 36.6397 30.526 36.9089C30.5292 37.1782 30.4397 37.4039 30.2577 37.5859C30.0756 37.7679 29.8499 37.8589 29.5807 37.8589C29.3116 37.8589 29.0859 37.7679 28.9038 37.5859L21.4578 30.1301C21.2936 29.9659 21.1762 29.7884 21.1057 29.5974C21.0352 29.4064 21 29.207 21 28.9994C21 28.7917 21.0352 28.5924 21.1057 28.4014C21.1762 28.2104 21.2936 28.0328 21.4578 27.8686L28.9038 20.4224C29.0859 20.2404 29.31 20.1478 29.576 20.1446C29.842 20.1414 30.066 20.2309 30.248 20.4129C30.43 20.5949 30.521 20.8205 30.521 21.0899C30.521 21.359 30.43 21.5846 30.248 21.7666L23.0152 28.9994Z" fill="#222222"/>
</g>
<path d="M26.2715 84.1699V86.6582H36.1738V84.1699H38.9668V93.4883H32.6191V95.5957H41.6836V97.8809H20.7617V95.5957H29.7754V93.4883H23.4785V84.1699H26.2715ZM23.3516 105.803V99.3535H26.1699V103.518H39.3223V105.803H23.3516ZM26.2715 91.2285H36.1738V88.8418H26.2715V91.2285ZM61.8316 83.332V99.9121H58.9878V83.332H61.8316ZM43.1187 90.5684C43.1187 87.2295 45.8228 84.8428 49.314 84.8301C52.8052 84.8428 55.4966 87.2295 55.4839 90.5684C55.4966 93.958 52.8052 96.332 49.314 96.332C45.8228 96.332 43.1187 93.958 43.1187 90.5684ZM45.8862 90.5684C45.8736 92.5996 47.3462 93.8691 49.314 93.8691C51.231 93.8691 52.7163 92.5996 52.7163 90.5684C52.7163 88.5879 51.231 87.293 49.314 87.293C47.3462 87.293 45.8736 88.5879 45.8862 90.5684ZM46.648 105.803V98.2363H49.4917V103.518H62.4663V105.803H46.648ZM82.8428 83.332V90.0098H85.9405V92.3457H82.8428V98.8457H80.0245V83.332H82.8428ZM64.46 96.1035C66.1866 96.1035 68.1797 96.0908 70.2491 96.04V94.6309C67.6973 94.3135 66.0723 93.082 66.085 91.2793C66.0723 89.1592 68.294 87.8643 71.6202 87.877C74.959 87.8643 77.1553 89.1592 77.1553 91.2793C77.1553 93.0693 75.5811 94.2881 73.0674 94.6182V95.9385C75.0225 95.8369 76.9903 95.6846 78.8311 95.4434L79.0596 97.3984C74.1719 98.2617 68.8018 98.3125 64.7647 98.3125L64.46 96.1035ZM65.044 87.2168V85.1348H70.2491V83.1289H73.0674V85.1348H78.2217V87.2168H65.044ZM67.3545 102.045V99.8359H82.8428V106.26H80.0245V102.045H67.3545ZM68.8018 91.2793C68.7764 92.2314 69.8428 92.8281 71.6202 92.8027C73.3975 92.8281 74.4639 92.2314 74.4639 91.2793C74.4639 90.2764 73.3975 89.7686 71.6202 89.7812C69.8428 89.7686 68.7764 90.2764 68.8018 91.2793ZM105.733 83.332V99.9121H102.889V83.332H105.733ZM87.0201 90.5684C87.0201 87.2295 89.7242 84.8428 93.2154 84.8301C96.7066 84.8428 99.398 87.2295 99.3853 90.5684C99.398 93.958 96.7066 96.332 93.2154 96.332C89.7242 96.332 87.0201 93.958 87.0201 90.5684ZM89.7877 90.5684C89.775 92.5996 91.2476 93.8691 93.2154 93.8691C95.1324 93.8691 96.6177 92.5996 96.6177 90.5684C96.6177 88.5879 95.1324 87.293 93.2154 87.293C91.2476 87.293 89.775 88.5879 89.7877 90.5684ZM90.5494 105.803V98.2363H93.3931V103.518H106.368V105.803H90.5494ZM133.334 83.332V99.9121H130.49V83.332H133.334ZM114.621 90.5684C114.621 87.2295 117.325 84.8428 120.816 84.8301C124.307 84.8428 126.999 87.2295 126.986 90.5684C126.999 93.958 124.307 96.332 120.816 96.332C117.325 96.332 114.621 93.958 114.621 90.5684ZM117.388 90.5684C117.376 92.5996 118.848 93.8691 120.816 93.8691C122.733 93.8691 124.218 92.5996 124.218 90.5684C124.218 88.5879 122.733 87.293 120.816 87.293C118.848 87.293 117.376 88.5879 117.388 90.5684ZM118.15 105.803V98.2363H120.994V103.518H133.968V105.803H118.15ZM157.087 93.9961V96.2812H136.165V93.9961H157.087ZM137.181 90.7461C141.434 90.3271 144.201 88.626 144.633 86.709H138.069V84.3984H155.208V86.709H148.581C149 88.6006 151.742 90.3271 156.097 90.7461L155.107 92.9805C150.93 92.5488 147.845 90.8857 146.601 88.5625C145.357 90.8857 142.31 92.5488 138.146 92.9805L137.181 90.7461ZM138.603 102.02C138.603 99.3535 141.611 97.8047 146.601 97.8047C151.552 97.8047 154.535 99.3535 154.548 102.02C154.535 104.724 151.552 106.234 146.601 106.234C141.611 106.234 138.603 104.724 138.603 102.02ZM141.472 102.02C141.459 103.353 143.262 104.013 146.601 104.025C149.889 104.013 151.704 103.353 151.73 102.02C151.704 100.687 149.889 100.014 146.601 100.014C143.262 100.014 141.459 100.687 141.472 102.02ZM181.869 83.3066V90.0352H185.069V92.3711H181.869V100.09H179.051V83.3066H181.869ZM164.02 90.6191C164.007 87.2295 166.724 84.8428 170.215 84.8301C173.706 84.8428 176.385 87.2295 176.41 90.6191C176.385 93.958 173.706 96.3828 170.215 96.3828C166.724 96.3828 164.007 93.958 164.02 90.6191ZM166.787 90.6191C166.775 92.5996 168.298 93.9072 170.215 93.8945C172.157 93.9072 173.63 92.5996 173.643 90.6191C173.63 88.5879 172.157 87.293 170.215 87.293C168.298 87.293 166.775 88.5879 166.787 90.6191ZM167.168 105.803V98.3379H169.986V103.518H182.783V105.803H167.168ZM205.42 83.3066V106.26H202.703V94.6562H200.164V105.092H197.523V83.7383H200.164V92.3457H202.703V83.3066H205.42ZM186.707 100.547V85.9473H189.55V98.0586C191.531 98.0205 193.689 97.8428 196.101 97.373L196.381 99.8359C193.283 100.382 190.655 100.547 188.23 100.547H186.707Z" fill="black"/>
<path d="M26.1348 128.998C26.126 131.828 27.9453 134.676 30.2129 135.713L29.3867 136.838C27.6113 135.924 26.1436 134.061 25.4492 131.837C24.7549 134.175 23.2871 136.179 21.5117 137.119L20.6152 136.012C22.9092 134.887 24.7197 131.881 24.7285 128.998V126.15H26.1348V128.998ZM28.5078 131.266V130.141H32.2168V124.797H33.5879V140.459H32.2168V131.266H28.5078ZM48.7142 124.797V140.459H47.3255V124.797H48.7142ZM36.7435 136.68V126.133H38.1146V130.264H42.7728V126.133H44.1263V136.68H36.7435ZM38.1146 135.52H42.7728V131.371H38.1146V135.52ZM58.8132 127.1C58.822 129.78 61.8806 132.162 64.5964 132.672L63.9636 133.832C61.5993 133.287 59.1208 131.608 58.1101 129.314C57.0905 131.608 54.6208 133.278 52.2566 133.832L51.6238 132.672C54.3308 132.153 57.363 129.789 57.3718 127.1V125.904H58.8132V127.1ZM51.0261 138.297V137.154H65.3347V138.297H51.0261ZM83.2651 124.797V140.459H81.8764V124.797H83.2651ZM70.9604 131.459C70.9692 128.137 72.6215 126.019 74.9506 126.01C77.2709 126.019 78.9496 128.137 78.9409 131.459C78.9496 134.79 77.2709 136.899 74.9506 136.891C72.6215 136.899 70.9692 134.79 70.9604 131.459ZM72.2963 131.459C72.2963 133.999 73.3862 135.669 74.9506 135.66C76.5239 135.669 77.6049 133.999 77.6049 131.459C77.6049 128.919 76.5239 127.249 74.9506 127.24C73.3862 127.249 72.2963 128.919 72.2963 131.459ZM99.8152 132.531V133.674H85.577V132.531H89.1102V130.325C87.8621 129.842 87.159 129.051 87.159 127.996C87.159 126.159 89.2684 125.104 92.6961 125.096C96.0975 125.104 98.2068 126.159 98.2156 127.996C98.2068 129.042 97.5125 129.833 96.282 130.325V132.531H99.8152ZM87.2996 137.629C87.2908 135.845 89.3035 134.86 92.6961 134.869C96.0447 134.86 98.0574 135.845 98.075 137.629C98.0574 139.413 96.0447 140.389 92.6961 140.389C89.3035 140.389 87.2908 139.413 87.2996 137.629ZM88.5828 127.996C88.574 129.139 90.1385 129.798 92.6961 129.807C95.2273 129.798 96.8006 129.139 96.8094 127.996C96.8006 126.871 95.2273 126.186 92.6961 126.186C90.1385 126.186 88.574 126.871 88.5828 127.996ZM88.7059 137.629C88.6883 138.692 90.1912 139.325 92.6961 139.316C95.1746 139.325 96.6775 138.692 96.6863 137.629C96.6775 136.565 95.1746 135.941 92.6961 135.924C90.1912 135.941 88.6883 136.565 88.7059 137.629ZM90.4812 132.531H94.9109V130.694C94.2518 130.817 93.5135 130.879 92.6961 130.879C91.8787 130.879 91.1404 130.817 90.4812 130.703V132.531ZM107.893 125.078C111.364 125.078 113.403 126.036 113.412 127.768C113.403 129.543 111.364 130.501 107.893 130.51C104.403 130.501 102.356 129.543 102.356 127.768C102.356 126.036 104.403 125.078 107.893 125.078ZM100.774 132.689V131.564H115.012V132.689H100.774ZM102.496 135.098V134.043H113.184V137.541H103.902V139.158H113.658V140.248H102.531V136.521H111.83V135.098H102.496ZM103.797 127.768C103.779 128.857 105.3 129.455 107.893 129.455C110.486 129.455 111.997 128.857 112.006 127.768C111.997 126.739 110.486 126.124 107.893 126.115C105.3 126.124 103.779 126.739 103.797 127.768ZM125.278 125.57C127.616 125.553 129.295 126.845 129.286 128.752C129.295 130.659 127.616 131.96 125.278 131.951C122.94 131.96 121.27 130.659 121.27 128.752C121.27 126.845 122.94 125.553 125.278 125.57ZM120.093 133.287C123.028 133.296 127.045 133.234 130.516 132.725L130.604 133.762C129.11 134.034 127.563 134.201 126.052 134.298V139.949H124.681V134.377C123.09 134.447 121.587 134.456 120.286 134.465L120.093 133.287ZM122.624 128.752C122.606 129.974 123.723 130.817 125.278 130.809C126.851 130.817 127.976 129.974 127.968 128.752C127.976 127.539 126.851 126.678 125.278 126.695C123.723 126.678 122.606 127.539 122.624 128.752ZM131.659 140.441V124.814H133.013V140.441H131.659ZM143.129 127.504V128.629H135.289V127.504H138.541V125.271H139.912V127.504H143.129ZM135.852 133.234C135.852 131.16 137.267 129.692 139.209 129.684C141.178 129.692 142.584 131.16 142.602 133.234C142.584 135.335 141.178 136.812 139.209 136.82C137.267 136.812 135.852 135.335 135.852 133.234ZM137.082 133.234C137.082 134.623 137.97 135.616 139.209 135.607C140.457 135.616 141.371 134.623 141.371 133.234C141.371 131.863 140.457 130.861 139.209 130.844C137.97 130.861 137.082 131.863 137.082 133.234ZM143.938 139.65V125.184H145.239V131.389H147.313V124.797H148.631V140.424H147.313V132.531H145.239V139.65H143.938ZM26.7852 155.182V157.757C28.165 157.678 29.5537 157.555 30.8633 157.361L31.0215 158.803C27.4619 159.462 23.6475 159.497 20.8438 159.488L20.5977 157.906C21.8369 157.897 23.2959 157.889 24.834 157.845V155.182H26.7852ZM20.9668 154.215C23.3574 153.556 24.6758 151.982 24.79 150.207H21.4414V148.625H24.834V146.814H26.7852V148.625H30.2129V150.207H26.8115C26.917 151.903 28.2617 153.424 30.6523 154.039L29.7559 155.568C27.875 155.059 26.5303 153.96 25.8096 152.554C25.1152 154.03 23.7881 155.182 21.8984 155.691L20.9668 154.215ZM31.8125 162.582V146.674H33.7637V162.582H31.8125ZM50.2435 159.084V160.684H35.724V159.084H41.9994V155.797H43.933V159.084H50.2435ZM36.3216 154.812C39.767 154.364 41.8324 152.536 41.973 150.559H37.0072V148.977H41.9994V146.92H43.933V148.977H48.9427V150.559H43.9769C44.1088 152.536 46.1742 154.364 49.6107 154.812L48.89 156.342C46.1478 155.955 44.0209 154.733 42.9662 153.002C41.9203 154.733 39.8109 155.955 37.0599 156.342L36.3216 154.812ZM60.5274 148.273V161H58.2247V150.506H58.1544L55.1837 152.404V150.312L58.3302 148.273H60.5274ZM75.9702 146.674V162.564H74.019V146.674H75.9702ZM62.8041 158.152C64.0698 158.144 65.5024 158.144 67.0053 158.1V156.641C65.2211 156.359 64.0522 155.27 64.0522 153.758C64.0522 151.965 65.643 150.778 67.9545 150.77C70.2924 150.778 71.9096 151.965 71.9096 153.758C71.9096 155.261 70.7407 156.342 68.9565 156.632V158.029C70.3539 157.968 71.7602 157.854 73.0873 157.678L73.228 159.137C69.7387 159.726 65.9418 159.77 63.0854 159.77L62.8041 158.152ZM63.1381 150.049V148.502H67.0053V146.727H68.9565V148.502H72.8061V150.049H63.1381ZM65.9155 153.758C65.8979 154.672 66.7504 155.208 67.9545 155.199C69.1938 155.208 70.0375 154.672 70.0288 153.758C70.0375 152.835 69.1938 152.272 67.9545 152.264C66.7504 152.272 65.8979 152.835 65.9155 153.758ZM85.6564 147.271V148.994H92.5119V147.271H94.4455V153.723H90.0509V155.182H96.3263V156.764H81.842V155.182H88.0822V153.723H83.7228V147.271H85.6564ZM83.6349 162.248V157.783H85.5861V160.666H94.6916V162.248H83.6349ZM85.6564 152.158H92.5119V150.506H85.6564V152.158ZM110.275 146.691V158.17H108.306V146.691H110.275ZM97.3198 151.701C97.3198 149.39 99.1919 147.737 101.609 147.729C104.026 147.737 105.889 149.39 105.88 151.701C105.889 154.048 104.026 155.691 101.609 155.691C99.1919 155.691 97.3198 154.048 97.3198 151.701ZM99.2359 151.701C99.2271 153.107 100.247 153.986 101.609 153.986C102.936 153.986 103.964 153.107 103.964 151.701C103.964 150.33 102.936 149.434 101.609 149.434C100.247 149.434 99.2271 150.33 99.2359 151.701ZM99.7632 162.248V157.01H101.732V160.666H110.714V162.248H99.7632ZM125.472 146.691V158.17H123.503V146.691H125.472ZM112.516 151.701C112.516 149.39 114.389 147.737 116.806 147.729C119.223 147.737 121.086 149.39 121.077 151.701C121.086 154.048 119.223 155.691 116.806 155.691C114.389 155.691 112.516 154.048 112.516 151.701ZM114.433 151.701C114.424 153.107 115.443 153.986 116.806 153.986C118.133 153.986 119.161 153.107 119.161 151.701C119.161 150.33 118.133 149.434 116.806 149.434C115.443 149.434 114.424 150.33 114.433 151.701ZM114.96 162.248V157.01H116.929V160.666H125.911V162.248H114.96ZM141.916 154.074V155.656H127.432V154.074H141.916ZM128.135 151.824C131.079 151.534 132.995 150.356 133.294 149.029H128.75V147.43H140.615V149.029H136.028C136.318 150.339 138.216 151.534 141.231 151.824L140.545 153.371C137.654 153.072 135.518 151.921 134.656 150.312C133.795 151.921 131.686 153.072 128.803 153.371L128.135 151.824ZM129.119 159.629C129.119 157.783 131.202 156.711 134.656 156.711C138.084 156.711 140.15 157.783 140.158 159.629C140.15 161.501 138.084 162.547 134.656 162.547C131.202 162.547 129.119 161.501 129.119 159.629ZM131.106 159.629C131.097 160.552 132.345 161.009 134.656 161.018C136.933 161.009 138.19 160.552 138.207 159.629C138.19 158.706 136.933 158.24 134.656 158.24C132.345 158.24 131.097 158.706 131.106 159.629ZM155.619 146.797V162.459H154.23V146.797H155.619ZM143.314 153.459C143.323 150.137 144.975 148.019 147.304 148.01C149.625 148.019 151.303 150.137 151.295 153.459C151.303 156.79 149.625 158.899 147.304 158.891C144.975 158.899 143.323 156.79 143.314 153.459ZM144.65 153.459C144.65 155.999 145.74 157.669 147.304 157.66C148.878 157.669 149.959 155.999 149.959 153.459C149.959 150.919 148.878 149.249 147.304 149.24C145.74 149.249 144.65 150.919 144.65 153.459ZM175.008 146.797V154.918H173.619V146.797H175.008ZM162.352 153.213C162.976 153.213 163.653 153.204 164.356 153.195V148.977H162.791V147.869H171.246V148.977H169.664V152.984C170.473 152.923 171.264 152.844 172.02 152.756L172.09 153.775C168.961 154.241 165.287 154.364 162.528 154.355L162.352 153.213ZM164.778 156.781V155.674H175.008V159.4H166.184V161.123H175.606V162.248H164.83V158.363H173.637V156.781H164.778ZM165.692 153.169C166.553 153.143 167.441 153.116 168.328 153.063V148.977H165.692V153.169ZM191.593 159.26V160.42H177.285V159.26H180.836V155.05C179.5 154.355 178.691 153.23 178.691 151.807C178.691 149.39 181.064 147.799 184.404 147.781C187.744 147.799 190.117 149.39 190.117 151.807C190.117 153.204 189.335 154.312 188.043 155.006V159.26H191.593ZM180.027 151.807C180.018 153.556 181.838 154.725 184.404 154.725C186.944 154.725 188.781 153.556 188.781 151.807C188.781 150.058 186.944 148.906 184.404 148.924C181.838 148.906 180.018 150.058 180.027 151.807ZM182.189 159.26H186.654V155.542C185.977 155.718 185.221 155.814 184.404 155.814C183.604 155.814 182.857 155.727 182.189 155.551V159.26ZM204.698 146.797V150.805H207.054V151.982H204.698V155.885H203.327V146.797H204.698ZM192.517 149.557V148.414H196.489V146.656H197.86V148.414H201.833V149.557H192.517ZM193.413 153.02C193.404 151.35 194.907 150.286 197.175 150.277C199.416 150.286 200.919 151.35 200.937 153.02C200.919 154.689 199.416 155.771 197.175 155.762C194.907 155.771 193.404 154.689 193.413 153.02ZM194.731 153.02C194.723 154.039 195.698 154.707 197.175 154.707C198.634 154.707 199.618 154.039 199.636 153.02C199.618 152.009 198.634 151.332 197.175 151.35C195.698 151.332 194.723 152.009 194.731 153.02ZM194.819 162.213V156.57H196.19V158.24H203.327V156.57H204.698V162.213H194.819ZM196.19 161.105H203.327V159.33H196.19V161.105ZM220.563 146.797V162.424H219.192V146.797H220.563ZM208.698 158.398V148.344H210.051V157.203C212.442 157.186 214.903 157.001 217.522 156.447L217.715 157.625C214.938 158.205 212.468 158.398 209.963 158.398H208.698ZM234.969 146.797V152.984H237.588V154.145H234.969V162.459H233.597V146.797H234.969ZM223.56 158.539V148.326H230.855V149.469H224.931V157.379C227.761 157.37 229.757 157.247 232.086 156.816L232.261 158.012C229.809 158.451 227.761 158.539 224.791 158.539H223.56ZM239.724 161.105C239.109 161.097 238.581 160.587 238.599 159.963C238.581 159.348 239.109 158.838 239.724 158.838C240.348 158.838 240.858 159.348 240.849 159.963C240.858 160.587 240.348 161.097 239.724 161.105Z" fill="#555555"/>
<rect x="20" y="202" width="410" height="144" rx="14" fill="#F9F9F9"/>
<path d="M49.6953 242.273V255H48.0957V243.926H48.0254L44.9316 245.982V244.383L48.0957 242.273H49.6953ZM53.0619 255.105C52.4466 255.097 51.9193 254.587 51.9369 253.963C51.9193 253.348 52.4466 252.838 53.0619 252.838C53.6859 252.838 54.1957 253.348 54.1869 253.963C54.1957 254.587 53.6859 255.097 53.0619 255.105ZM63.0118 241.43V243.416H70.7462V241.43H72.1173V247.67H67.547V249.34H73.9805V250.482H59.7423V249.34H66.1759V247.67H61.6407V241.43H63.0118ZM61.588 256.09V251.73H62.9766V254.93H72.3985V256.09H61.588ZM63.0118 246.562H70.7462V244.506H63.0118V246.562ZM87.8412 240.814V252.24H86.4702V240.814H87.8412ZM75.308 245.736C75.2993 243.486 77.0659 241.913 79.4037 241.904C81.7416 241.913 83.4907 243.486 83.4995 245.736C83.4907 248.013 81.7416 249.595 79.4037 249.586C77.0659 249.595 75.2993 248.013 75.308 245.736ZM76.6616 245.736C76.644 247.292 77.8217 248.373 79.4037 248.373C80.9594 248.373 82.1459 247.292 82.1459 245.736C82.1459 244.207 80.9594 243.117 79.4037 243.117C77.8217 243.117 76.644 244.207 76.6616 245.736ZM77.7514 256.09V251.08H79.1225V254.93H88.3334V256.09H77.7514ZM103.091 240.797V250.061H101.702V247.6H98.0457V248.936H90.8738V241.992H98.0457V243.346H101.702V240.797H103.091ZM92.2449 247.811H96.6922V243.117H92.2449V247.811ZM92.6668 253.471C92.658 251.59 94.6531 250.509 97.9051 250.518C101.148 250.509 103.143 251.59 103.143 253.471C103.143 255.334 101.148 256.389 97.9051 256.389C94.6531 256.389 92.658 255.334 92.6668 253.471ZM94.0379 253.471C94.0291 254.604 95.5057 255.299 97.9051 255.299C100.296 255.299 101.772 254.604 101.772 253.471C101.772 252.293 100.296 251.607 97.9051 251.59C95.5057 251.607 94.0291 252.293 94.0379 253.471ZM98.0457 246.439H101.702V244.488H98.0457V246.439ZM110.447 241.939C112.9 241.948 114.64 243.442 114.649 245.613C114.64 247.793 112.9 249.278 110.447 249.287C107.978 249.278 106.22 247.793 106.229 245.613C106.22 243.442 107.978 241.948 110.447 241.939ZM105.42 251.836C108.303 251.845 112.284 251.818 115.738 251.309L115.844 252.328C112.267 252.996 108.426 253.014 105.613 253.014L105.42 251.836ZM107.582 245.613C107.573 247.072 108.778 248.074 110.447 248.074C112.1 248.074 113.304 247.072 113.295 245.613C113.304 244.163 112.1 243.152 110.447 243.152C108.778 243.152 107.573 244.163 107.582 245.613ZM116.776 256.459V240.797H118.147V256.459H116.776ZM137.606 240.797V256.424H136.218V240.797H137.606ZM124.88 252.363C129.107 250.359 131.269 247.362 131.577 243.627H125.6V242.502H132.983C132.966 246.993 130.874 250.975 125.636 253.488L124.88 252.363ZM152.803 240.797V256.424H151.414V240.797H152.803ZM140.076 252.363C144.304 250.359 146.466 247.362 146.774 243.627H140.797V242.502H148.18C148.162 246.993 146.071 250.975 140.832 253.488L140.076 252.363ZM169.388 253.33V254.49H155.08V253.33H161.513V250.377H156.873V245.561H166.224V243.1H156.838V241.957H167.578V246.686H158.244V249.234H167.947V250.377H162.867V253.33H169.388ZM187.336 240.814V252.24H185.965V240.814H187.336ZM174.803 245.736C174.794 243.486 176.561 241.913 178.899 241.904C181.237 241.913 182.986 243.486 182.994 245.736C182.986 248.013 181.237 249.595 178.899 249.586C176.561 249.595 174.794 248.013 174.803 245.736ZM176.157 245.736C176.139 247.292 177.317 248.373 178.899 248.373C180.454 248.373 181.641 247.292 181.641 245.736C181.641 244.207 180.454 243.117 178.899 243.117C177.317 243.117 176.139 244.207 176.157 245.736ZM177.246 256.09V251.08H178.617V254.93H187.828V256.09H177.246ZM203.869 248.232V249.375H189.631V248.232H203.869ZM190.439 246.193C193.164 245.877 195.792 244.532 195.853 242.748H190.931V241.605H202.603V242.748H197.646C197.708 244.515 200.309 245.877 203.078 246.193L202.568 247.301C200.01 246.976 197.611 245.824 196.75 244.093C195.888 245.824 193.507 246.976 190.931 247.301L190.439 246.193ZM191.353 253.576C191.344 251.783 193.375 250.746 196.75 250.746C200.098 250.746 202.111 251.783 202.129 253.576C202.111 255.387 200.098 256.389 196.75 256.389C193.375 256.389 191.344 255.387 191.353 253.576ZM192.759 253.576C192.742 254.666 194.245 255.29 196.75 255.281C199.228 255.29 200.731 254.666 200.74 253.576C200.731 252.478 199.228 251.854 196.75 251.836C194.245 251.854 192.742 252.478 192.759 253.576ZM211.946 241.078C215.418 241.078 217.457 242.036 217.466 243.768C217.457 245.543 215.418 246.501 211.946 246.51C208.457 246.501 206.409 245.543 206.409 243.768C206.409 242.036 208.457 241.078 211.946 241.078ZM204.827 248.689V247.564H219.065V248.689H204.827ZM206.55 251.098V250.043H217.237V253.541H207.956V255.158H217.712V256.248H206.585V252.521H215.884V251.098H206.55ZM207.851 243.768C207.833 244.857 209.354 245.455 211.946 245.455C214.539 245.455 216.051 244.857 216.06 243.768C216.051 242.739 214.539 242.124 211.946 242.115C209.354 242.124 207.833 242.739 207.851 243.768ZM236.398 240.797V244.805H238.754V245.982H236.398V249.885H235.027V240.797H236.398ZM224.217 243.557V242.414H228.189V240.656H229.56V242.414H233.533V243.557H224.217ZM225.113 247.02C225.104 245.35 226.607 244.286 228.875 244.277C231.116 244.286 232.619 245.35 232.636 247.02C232.619 248.689 231.116 249.771 228.875 249.762C226.607 249.771 225.104 248.689 225.113 247.02ZM226.431 247.02C226.423 248.039 227.398 248.707 228.875 248.707C230.334 248.707 231.318 248.039 231.336 247.02C231.318 246.009 230.334 245.332 228.875 245.35C227.398 245.332 226.423 246.009 226.431 247.02ZM226.519 256.213V250.57H227.89V252.24H235.027V250.57H236.398V256.213H226.519ZM227.89 255.105H235.027V253.33H227.89V255.105ZM252.263 240.797V256.424H250.892V240.797H252.263ZM240.398 252.398V242.344H241.751V251.203C244.142 251.186 246.603 251.001 249.222 250.447L249.415 251.625C246.638 252.205 244.168 252.398 241.663 252.398H240.398ZM266.668 240.797V246.984H269.288V248.145H266.668V256.459H265.297V240.797H266.668ZM255.26 252.539V242.326H262.555V243.469H256.631V251.379C259.461 251.37 261.457 251.247 263.786 250.816L263.961 252.012C261.509 252.451 259.461 252.539 256.491 252.539H255.26ZM271.424 255.105C270.808 255.097 270.281 254.587 270.299 253.963C270.281 253.348 270.808 252.838 271.424 252.838C272.048 252.838 272.557 253.348 272.549 253.963C272.557 254.587 272.048 255.097 271.424 255.105Z" fill="#555555"/>
<path d="M45.1953 305L45.1777 303.84L49.5195 299.27C51.0225 297.67 51.7432 296.809 51.752 295.631C51.7432 294.321 50.6533 293.478 49.2207 293.469C47.7002 293.478 46.751 294.436 46.7422 295.859H45.248C45.2305 293.609 46.9707 292.098 49.2734 292.098C51.585 292.098 53.2197 293.653 53.2285 295.631C53.2197 297.055 52.5605 298.162 50.3105 300.482L47.3926 303.488V303.594H53.457V305H45.1953ZM56.4896 305.105C55.8744 305.097 55.347 304.587 55.3646 303.963C55.347 303.348 55.8744 302.838 56.4896 302.838C57.1136 302.838 57.6234 303.348 57.6146 303.963C57.6234 304.587 57.1136 305.097 56.4896 305.105ZM75.3868 290.814V295.965H77.7423V297.125H75.3868V302.521H74.0157V290.814H75.3868ZM63.2052 293.855V292.73H67.1778V290.814H68.5489V292.73H72.5216V293.855H63.2052ZM64.1016 297.635C64.0929 295.859 65.6046 294.717 67.8634 294.717C70.0958 294.717 71.6075 295.859 71.6251 297.635C71.6075 299.393 70.0958 300.526 67.8634 300.518C65.6046 300.526 64.0929 299.393 64.1016 297.635ZM65.42 297.635C65.4112 298.733 66.3868 299.445 67.8634 299.428C69.3223 299.445 70.3067 298.733 70.3243 297.635C70.3067 296.519 69.3223 295.798 67.8634 295.807C66.3868 295.798 65.4112 296.519 65.42 297.635ZM65.6134 306.09V301.59H66.9669V304.93H76.1075V306.09H65.6134ZM87.7625 294.998C87.7625 297.749 89.5818 300.588 91.8055 301.678L90.9617 302.785C89.2391 301.889 87.7977 300.034 87.1033 297.863C86.409 300.166 84.9324 302.144 83.1746 303.084L82.2957 301.977C84.5809 300.852 86.3914 297.854 86.409 294.998V292.15H87.7625V294.998ZM93.2469 306.424V290.797H94.618V297.143H97.2371V298.338H94.618V306.424H93.2469ZM109.938 290.814V294.822H112.311V296H109.938V300.131H108.567V290.814H109.938ZM98.3888 292.801V291.658H105.473V295.93H99.7775V298.145C102.555 298.153 104.568 298.065 107.002 297.67L107.143 298.777C104.638 299.217 102.546 299.305 99.6369 299.305H98.424V294.857H104.119V292.801H98.3888ZM100.041 306.213V300.904H109.938V306.213H100.041ZM101.395 305.088H108.602V301.977H101.395V305.088ZM125.152 290.797V294.875H127.49V296.035H125.152V300.131H123.763V290.797H125.152ZM113.638 298.848V291.992H120.582V293.135H114.992V297.723C118.156 297.705 119.975 297.608 122.076 297.178L122.216 298.32C120.028 298.76 118.156 298.848 114.851 298.848H113.638ZM114.939 303.4C114.948 301.528 116.934 300.438 120.125 300.43C123.315 300.438 125.275 301.528 125.275 303.4C125.275 305.299 123.315 306.389 120.125 306.389C116.934 306.389 114.948 305.299 114.939 303.4ZM116.293 303.4C116.301 304.561 117.769 305.272 120.125 305.281C122.462 305.272 123.948 304.561 123.939 303.4C123.948 302.249 122.462 301.555 120.125 301.572C117.769 301.555 116.301 302.249 116.293 303.4ZM144.489 290.814V295.965H146.844V297.125H144.489V302.521H143.117V290.814H144.489ZM132.307 293.855V292.73H136.28V290.814H137.651V292.73H141.623V293.855H132.307ZM133.203 297.635C133.195 295.859 134.706 294.717 136.965 294.717C139.198 294.717 140.709 295.859 140.727 297.635C140.709 299.393 139.198 300.526 136.965 300.518C134.706 300.526 133.195 299.393 133.203 297.635ZM134.522 297.635C134.513 298.733 135.489 299.445 136.965 299.428C138.424 299.445 139.408 298.733 139.426 297.635C139.408 296.519 138.424 295.798 136.965 295.807C135.489 295.798 134.513 296.519 134.522 297.635ZM134.715 306.09V301.59H136.069V304.93H145.209V306.09H134.715ZM164.546 290.797V306.424H163.157V290.797H164.546ZM151.819 302.363C156.047 300.359 158.209 297.362 158.517 293.627H152.54V292.502H159.923C159.905 296.993 157.813 300.975 152.575 303.488L151.819 302.363ZM179.743 290.797V306.424H178.354V290.797H179.743ZM167.016 302.363C171.243 300.359 173.406 297.362 173.713 293.627H167.737V292.502H175.119C175.102 296.993 173.01 300.975 167.772 303.488L167.016 302.363ZM189.912 292.221V299.41H182.687V292.221H189.912ZM184.041 298.303H188.576V293.346H184.041V298.303ZM184.463 306.09V301.168H185.816V304.93H194.957V306.09H184.463ZM192.865 302.258V290.797H194.236V295.561H196.591V296.721H194.236V302.258H192.865ZM214.276 290.814V302.24H212.905V290.814H214.276ZM201.743 295.736C201.734 293.486 203.5 291.913 205.838 291.904C208.176 291.913 209.925 293.486 209.934 295.736C209.925 298.013 208.176 299.595 205.838 299.586C203.5 299.595 201.734 298.013 201.743 295.736ZM203.096 295.736C203.079 297.292 204.256 298.373 205.838 298.373C207.394 298.373 208.58 297.292 208.58 295.736C208.58 294.207 207.394 293.117 205.838 293.117C204.256 293.117 203.079 294.207 203.096 295.736ZM204.186 306.09V301.08H205.557V304.93H214.768V306.09H204.186ZM230.808 298.232V299.375H216.57V298.232H230.808ZM217.379 296.193C220.103 295.877 222.731 294.532 222.793 292.748H217.871V291.605H229.543V292.748H224.586C224.647 294.515 227.249 295.877 230.017 296.193L229.508 297.301C226.95 296.976 224.551 295.824 223.689 294.093C222.828 295.824 220.446 296.976 217.871 297.301L217.379 296.193ZM218.293 303.576C218.284 301.783 220.314 300.746 223.689 300.746C227.038 300.746 229.051 301.783 229.068 303.576C229.051 305.387 227.038 306.389 223.689 306.389C220.314 306.389 218.284 305.387 218.293 303.576ZM219.699 303.576C219.681 304.666 221.184 305.29 223.689 305.281C226.168 305.29 227.671 304.666 227.679 303.576C227.671 302.478 226.168 301.854 223.689 301.836C221.184 301.854 219.681 302.478 219.699 303.576ZM244.651 290.797V306.459H243.263V290.797H244.651ZM232.347 297.459C232.356 294.137 234.008 292.019 236.337 292.01C238.657 292.019 240.336 294.137 240.327 297.459C240.336 300.79 238.657 302.899 236.337 302.891C234.008 302.899 232.356 300.79 232.347 297.459ZM233.683 297.459C233.683 299.999 234.773 301.669 236.337 301.66C237.91 301.669 238.991 299.999 238.991 297.459C238.991 294.919 237.91 293.249 236.337 293.24C234.773 293.249 233.683 294.919 233.683 297.459ZM263.215 290.797V297.16H265.746V298.32H263.215V306.424H261.844V290.797H263.215ZM251.226 302.363C255.261 300.359 257.458 297.345 257.774 293.645H251.947V292.484H259.172C259.163 296.905 257.089 300.939 252 303.453L251.226 302.363ZM278.939 295.174V296.316H268.269V291.113H269.64V295.174H278.939ZM266.318 299.287V298.145H280.573V299.287H266.318ZM268.04 303.523C268.031 301.704 270.062 300.685 273.437 300.693C276.785 300.685 278.798 301.704 278.816 303.523C278.798 305.334 276.785 306.354 273.437 306.354C270.062 306.354 268.031 305.334 268.04 303.523ZM269.446 303.523C269.429 304.613 270.932 305.272 273.437 305.281C275.915 305.272 277.418 304.613 277.427 303.523C277.418 302.416 275.915 301.792 273.437 301.783C270.932 301.792 269.429 302.416 269.446 303.523ZM293.731 290.797V294.805H296.086V295.982H293.731V299.885H292.36V290.797H293.731ZM281.549 293.557V292.414H285.522V290.656H286.893V292.414H290.866V293.557H281.549ZM282.446 297.02C282.437 295.35 283.94 294.286 286.208 294.277C288.449 294.286 289.952 295.35 289.969 297.02C289.952 298.689 288.449 299.771 286.208 299.762C283.94 299.771 282.437 298.689 282.446 297.02ZM283.764 297.02C283.755 298.039 284.731 298.707 286.208 298.707C287.667 298.707 288.651 298.039 288.669 297.02C288.651 296.009 287.667 295.332 286.208 295.35C284.731 295.332 283.755 296.009 283.764 297.02ZM283.852 306.213V300.57H285.223V302.24H292.36V300.57H293.731V306.213H283.852ZM285.223 305.105H292.36V303.33H285.223V305.105ZM309.596 290.797V306.424H308.225V290.797H309.596ZM297.73 302.398V292.344H299.084V301.203C301.475 301.186 303.935 301.001 306.555 300.447L306.748 301.625C303.971 302.205 301.501 302.398 298.996 302.398H297.73ZM324.001 290.797V296.984H326.62V298.145H324.001V306.459H322.63V290.797H324.001ZM312.593 302.539V292.326H319.888V293.469H313.964V301.379C316.794 301.37 318.789 301.247 321.118 300.816L321.294 302.012C318.842 302.451 316.794 302.539 313.824 302.539H312.593ZM328.756 305.105C328.141 305.097 327.614 304.587 327.631 303.963C327.614 303.348 328.141 302.838 328.756 302.838C329.38 302.838 329.89 303.348 329.881 303.963C329.89 304.587 329.38 305.097 328.756 305.105Z" fill="#555555"/>
<rect x="20" y="735" width="410" height="56" rx="8" fill="#323C59"/>
<path d="M222.192 754.16V760.938H225.005V762.461H222.192V771.699H220.337V754.16H222.192ZM209.302 767.344V755.84H217.485V757.344H211.157V765.801C214.096 765.791 216.294 765.664 218.794 765.215L219.028 766.777C216.284 767.266 213.96 767.354 210.708 767.344H209.302ZM233.413 754.531C237.251 754.521 239.654 755.771 239.663 757.891C239.654 759.971 237.251 761.201 233.413 761.191C229.585 761.201 227.154 759.971 227.163 757.891C227.154 755.771 229.585 754.521 233.413 754.531ZM225.445 764.043V762.539H241.402V764.043H225.445ZM227.359 771.445V765.605H239.448V771.445H227.359ZM229.077 757.891C229.068 759.053 230.718 759.736 233.413 759.746C236.089 759.736 237.759 759.053 237.749 757.891C237.759 756.68 236.089 755.986 233.413 755.996C230.718 755.986 229.068 756.68 229.077 757.891ZM229.195 769.941H237.652V767.09H229.195V769.941Z" fill="white"/>
</svg>
