<svg width="450" height="851" viewBox="0 0 450 851" fill="none" xmlns="http://www.w3.org/2000/svg">
<rect width="450" height="851" fill="white"/>
<rect width="450" height="58" fill="white"/>
<mask id="mask0_263_1072" style="mask-type:alpha" maskUnits="userSpaceOnUse" x="14" y="17" width="24" height="24">
<rect x="14" y="17" width="24" height="24" fill="#D9D9D9"/>
</mask>
<g mask="url(#mask0_263_1072)">
<path d="M23.0152 28.9994L30.248 36.2321C30.43 36.4141 30.5227 36.6397 30.526 36.9089C30.5292 37.1782 30.4397 37.4039 30.2577 37.5859C30.0756 37.7679 29.8499 37.8589 29.5807 37.8589C29.3116 37.8589 29.0859 37.7679 28.9038 37.5859L21.4578 30.1301C21.2936 29.9659 21.1762 29.7884 21.1057 29.5974C21.0352 29.4064 21 29.207 21 28.9994C21 28.7917 21.0352 28.5924 21.1057 28.4014C21.1762 28.2104 21.2936 28.0328 21.4578 27.8686L28.9038 20.4224C29.0859 20.2404 29.31 20.1478 29.576 20.1446C29.842 20.1414 30.066 20.2309 30.248 20.4129C30.43 20.5949 30.521 20.8205 30.521 21.0899C30.521 21.359 30.43 21.5846 30.248 21.7666L23.0152 28.9994Z" fill="#222222"/>
</g>
<g clip-path="url(#clip0_263_1072)">
<circle cx="225" cy="188" r="30" fill="#EF403C"/>
<path d="M220.504 191.962L232.889 179.577C233.274 179.192 233.764 179 234.359 179C234.953 179 235.443 179.192 235.828 179.577C236.213 179.962 236.405 180.452 236.405 181.047C236.405 181.641 236.213 182.131 235.828 182.516L221.974 196.37C221.554 196.79 221.064 197 220.504 197C219.945 197 219.455 196.79 219.035 196.37L213.577 190.913C213.192 190.528 213 190.038 213 189.443C213 188.848 213.192 188.359 213.577 187.974C213.962 187.589 214.452 187.397 215.047 187.397C215.641 187.397 216.131 187.589 216.516 187.974L220.504 191.962Z" fill="white"/>
</g>
<path d="M85.2357 257.236V260.342H97.394V257.236H100.177V267.842H92.6772V270.42H103.283V272.705H79.3471V270.42H89.9232V267.842H82.4818V257.236H85.2357ZM82.3647 281.934V274.58H85.1772V279.678H100.587V281.934H82.3647ZM85.2357 265.586H97.394V262.51H85.2357V265.586ZM126.442 256.27V275.342H123.659V256.27H126.442ZM105.202 264.531C105.217 260.737 108.234 258.042 112.204 258.027C116.159 258.042 119.177 260.737 119.177 264.531C119.177 268.384 116.159 271.064 112.204 271.064C108.234 271.064 105.217 268.384 105.202 264.531ZM107.927 264.531C107.912 267.007 109.758 268.633 112.204 268.633C114.606 268.633 116.452 267.007 116.452 264.531C116.452 262.114 114.606 260.459 112.204 260.459C109.758 260.459 107.912 262.114 107.927 264.531ZM109.274 281.934V273.408H112.087V279.678H127.233V281.934H109.274ZM151.77 256.27V275.342H148.987V256.27H151.77ZM130.53 264.531C130.545 260.737 133.562 258.042 137.532 258.027C141.487 258.042 144.504 260.737 144.504 264.531C144.504 268.384 141.487 271.064 137.532 271.064C133.562 271.064 130.545 268.384 130.53 264.531ZM133.254 264.531C133.24 267.007 135.086 268.633 137.532 268.633C139.934 268.633 141.78 267.007 141.78 264.531C141.78 262.114 139.934 260.459 137.532 260.459C135.086 260.459 133.24 262.114 133.254 264.531ZM134.602 281.934V273.408H137.415V279.678H152.561V281.934H134.602ZM179.266 268.604V270.859H155.33V268.604H179.266ZM156.59 265.029C161.351 264.517 165.115 262.378 165.423 259.814H157.528V257.529H177.127V259.814H169.144C169.466 262.363 173.172 264.517 178.035 265.029L177.039 267.227C172.484 266.699 168.719 264.78 167.298 262.012C165.848 264.78 162.113 266.699 157.557 267.227L156.59 265.029ZM158.172 277.686C158.172 274.639 161.585 272.881 167.283 272.881C172.938 272.881 176.321 274.639 176.336 277.686C176.321 280.732 172.938 282.446 167.283 282.432C161.585 282.446 158.172 280.732 158.172 277.686ZM160.985 277.686C160.97 279.341 163.27 280.249 167.283 280.234C171.238 280.249 173.553 279.341 173.553 277.686C173.553 275.986 171.238 275.078 167.283 275.049C163.27 275.078 160.97 275.986 160.985 277.686ZM192.611 256.68C198.529 256.665 201.971 258.262 201.986 261.191C201.971 264.136 198.529 265.732 192.611 265.732C186.693 265.732 183.221 264.136 183.236 261.191C183.221 258.262 186.693 256.665 192.611 256.68ZM180.658 269.57V267.344H204.594V269.57H180.658ZM183.529 273.672V271.592H201.576V277.744H186.283V280.088H202.308V282.227H183.558V275.723H198.822V273.672H183.529ZM186.137 261.191C186.122 262.817 188.436 263.652 192.611 263.652C196.815 263.652 199.13 262.817 199.115 261.191C199.13 259.639 196.815 258.73 192.611 258.73C188.436 258.73 186.122 259.639 186.137 261.191ZM220.679 257.412C224.517 257.412 227.212 259.521 227.241 262.656C227.212 265.322 225.19 267.271 222.144 267.754V270.098C224.458 269.966 226.802 269.746 228.97 269.424L229.175 271.475C223.667 272.471 217.485 272.573 212.974 272.559L212.681 270.303C214.644 270.317 216.943 270.303 219.36 270.215V267.783C216.226 267.344 214.131 265.366 214.146 262.656C214.131 259.521 216.826 257.412 220.679 257.412ZM216.401 281.934V274.58H219.185V279.648H234.302V281.934H216.401ZM216.753 262.656C216.724 264.517 218.364 265.732 220.679 265.732C223.008 265.732 224.604 264.517 224.604 262.656C224.604 260.752 223.008 259.551 220.679 259.551C218.364 259.551 216.724 260.752 216.753 262.656ZM230.581 276.338V256.27H233.364V264.941H237.114V267.285H233.364V276.338H230.581ZM262.061 277.012V279.355H238.038V277.012H244.6V272.383H240.967V264.033H256.378V260.371H240.909V258.086H259.131V266.289H243.721V270.098H259.747V272.383H255.762V277.012H262.061ZM247.296 277.012H253.038V272.383H247.296V277.012ZM285.748 256.27V272.5H283.112V265.586H280.123V272.119H277.516V256.65H280.123V263.33H283.112V256.27H285.748ZM263.219 261.309V259.082H268.522V256.357H271.276V259.082H276.49V261.309H263.219ZM264.244 267.021C264.244 264.253 266.588 262.48 269.869 262.48C273.224 262.48 275.553 264.253 275.553 267.021C275.553 269.702 273.224 271.533 269.869 271.533C266.588 271.533 264.244 269.702 264.244 267.021ZM264.977 280.059C268.302 279.004 270.177 276.426 270.192 274.053V273.262H272.916V274.053C272.902 276.191 273.986 278.418 276.329 279.736C278.702 278.301 279.86 275.928 279.86 274.053V273.262H282.613V274.053C282.599 276.572 284.43 279.092 287.828 280.059L286.51 282.168C283.903 281.318 282.13 279.619 281.207 277.539C280.402 279.575 278.834 281.465 276.403 282.402C273.883 281.494 272.301 279.722 271.495 277.656C270.543 279.634 268.771 281.304 266.295 282.168L264.977 280.059ZM266.735 267.021C266.735 268.516 268.009 269.468 269.869 269.482C271.759 269.468 273.048 268.516 273.033 267.021C273.048 265.454 271.759 264.517 269.869 264.531C268.009 264.517 266.735 265.454 266.735 267.021ZM294.406 271.973V274.756H306.74V271.973H309.523V282.168H291.652V271.973H294.406ZM288.693 270.332V268.018H312.629V270.332H288.693ZM289.982 264.209C295.065 263.55 299.225 260.752 299.24 257.646V256.533H302.082V257.646C302.096 260.664 306.286 263.594 311.31 264.209L310.314 266.406C306.066 265.82 302.36 263.799 300.676 261.001C298.976 263.813 295.256 265.82 291.037 266.406L289.982 264.209ZM294.406 279.941H306.74V276.924H294.406V279.941ZM335.818 256.24V282.49H333.035V256.24H335.818ZM315.632 275.811V258.789H318.386V273.408C322.224 273.394 326.252 273.057 330.456 272.207L330.837 274.551C326.194 275.503 321.975 275.825 317.829 275.811H315.632ZM359.798 256.24V266.406H364.017V268.691H359.798V282.549H357.015V256.24H359.798ZM340.462 276.016V258.76H352.737V261.016H343.245V273.701C347.654 273.687 350.95 273.496 354.7 272.822L355.052 275.166C350.936 275.898 347.449 276.03 342.571 276.016H340.462ZM367.665 280.205C366.522 280.19 365.57 279.268 365.585 278.125C365.57 276.982 366.522 276.045 367.665 276.045C368.793 276.045 369.73 276.982 369.745 278.125C369.73 279.268 368.793 280.19 367.665 280.205Z" fill="#222222"/>
<path d="M125.373 309.379V310.943C125.356 312.859 125.356 315.004 124.793 318.15L123.387 317.992C123.976 315.004 123.976 312.815 123.984 310.943V310.521H114.352V309.379H125.373ZM112.84 321.209V320.066H118.43V314.477H119.783V320.066H127.078V321.209H112.84ZM141.308 307.814V317.025H139.99V312.895H137.863V316.92H136.544V308.113H137.863V311.752H139.99V307.814H141.308ZM128.124 316.164C131.368 314.846 133.205 312.728 133.468 310.1H128.757V308.957H134.892C134.883 312.692 132.774 315.514 128.81 317.201L128.124 316.164ZM130.761 318.871V317.746H141.308V323.424H139.955V318.871H130.761ZM156.118 307.797V316.674H154.764V307.797H156.118ZM144.218 315.479V308.729H145.606V314.301C148.19 314.283 150.502 314.107 152.989 313.58L153.2 314.74C150.555 315.276 148.181 315.461 145.483 315.479H144.218ZM145.975 323.213V317.395H156.118V323.213H145.975ZM147.329 322.088H154.764V318.502H147.329V322.088ZM163.545 308.939C165.997 308.948 167.737 310.442 167.746 312.613C167.737 314.793 165.997 316.278 163.545 316.287C161.075 316.278 159.318 314.793 159.326 312.613C159.318 310.442 161.075 308.948 163.545 308.939ZM158.518 318.836C161.401 318.845 165.382 318.818 168.836 318.309L168.942 319.328C165.364 319.996 161.524 320.014 158.711 320.014L158.518 318.836ZM160.68 312.613C160.671 314.072 161.875 315.074 163.545 315.074C165.197 315.074 166.402 314.072 166.393 312.613C166.402 311.163 165.197 310.152 163.545 310.152C161.875 310.152 160.671 311.163 160.68 312.613ZM169.873 323.459V307.797H171.244V323.459H169.873ZM190.739 307.797V317.113H189.351V313.018H186.204V311.875H189.351V307.797H190.739ZM177.854 315.865C180.175 315.03 181.827 312.912 181.827 310.68V310.1H178.294V308.939H186.714V310.1H183.216V310.662C183.216 312.701 184.78 314.644 187.065 315.426L186.345 316.533C184.596 315.9 183.233 314.582 182.557 312.974C181.889 314.802 180.438 316.261 178.575 316.973L177.854 315.865ZM180.315 320.506C180.307 318.669 182.302 317.597 185.554 317.605C188.797 317.597 190.792 318.669 190.792 320.506C190.792 322.352 188.797 323.406 185.554 323.424C182.302 323.406 180.307 322.352 180.315 320.506ZM181.686 320.506C181.678 321.64 183.154 322.325 185.554 322.316C187.944 322.325 189.421 321.64 189.421 320.506C189.421 319.363 187.944 318.678 185.554 318.678C183.154 318.678 181.678 319.363 181.686 320.506ZM207.289 320.277V321.42H192.981V320.277H199.414V316.902H194.668V308.904H196.057V311.734H204.178V308.904H205.532V316.902H200.768V320.277H207.289ZM196.057 315.777H204.178V312.859H196.057V315.777ZM220.816 312.543V313.65H210.111V308.377H211.482V312.543H220.816ZM208.16 316.902V315.777H222.468V316.902H208.16ZM210.023 323.037V318.502H211.394V321.895H220.904V323.037H210.023ZM230.801 308.078V309.59H238.536V308.078H239.907V313.229H229.43V308.078H230.801ZM227.532 315.689V314.582H241.77V315.689H227.532ZM229.254 318.186V317.131H239.942V320.594H230.661V322.158H240.416V323.248H229.289V319.574H238.588V318.186H229.254ZM230.801 312.174H238.536V310.645H230.801V312.174ZM257.019 316.41V317.553H242.711V316.41H249.179V314.758H244.574V310.943H253.785V309.326H244.521V308.201H255.174V311.98H245.945V313.65H255.508V314.758H250.533V316.41H257.019ZM244.31 319.873V318.748H255.261V323.283H253.873V319.873H244.31ZM262.495 312.613C262.504 315.127 263.778 317.702 265.905 318.836L265.114 319.873C263.559 319.021 262.434 317.403 261.862 315.522C261.309 317.526 260.192 319.284 258.628 320.225L257.802 319.17C259.929 317.939 261.186 315.197 261.194 312.613V311.84H258.224V310.697H261.194V308.377H262.513V310.697H265.431V311.84H262.495V312.613ZM264.358 315.145V313.967H266.819V308.184H268.12V322.615H266.819V315.145H264.358ZM269.966 323.424V307.797H271.284V323.424H269.966ZM286.024 307.814V319.24H284.653V307.814H286.024ZM273.491 312.736C273.482 310.486 275.248 308.913 277.586 308.904C279.924 308.913 281.673 310.486 281.682 312.736C281.673 315.013 279.924 316.595 277.586 316.586C275.248 316.595 273.482 315.013 273.491 312.736ZM274.844 312.736C274.827 314.292 276.004 315.373 277.586 315.373C279.142 315.373 280.329 314.292 280.329 312.736C280.329 311.207 279.142 310.117 277.586 310.117C276.004 310.117 274.827 311.207 274.844 312.736ZM275.934 323.09V318.08H277.305V321.93H286.516V323.09H275.934ZM305.396 307.797V323.424H304.007V307.797H305.396ZM292.669 319.363C296.897 317.359 299.059 314.362 299.366 310.627H293.39V309.502H300.773C300.755 313.993 298.663 317.975 293.425 320.488L292.669 319.363ZM315.512 308.482C315.503 310.425 318.325 311.919 321.137 312.262L320.645 313.316C318.184 312.982 315.776 311.884 314.792 310.196C313.79 311.884 311.373 312.982 308.938 313.316L308.463 312.262C311.267 311.919 314.088 310.425 314.088 308.482V307.885H315.512V308.482ZM307.672 315.461V314.336H321.911V315.461H315.46V317.025H320.083V320.576H310.801V322.158H320.557V323.248H309.43V319.539H318.729V318.115H309.395V317.025H314.088V315.461H307.672ZM329.988 308.078C333.46 308.078 335.499 309.036 335.508 310.768C335.499 312.543 333.46 313.501 329.988 313.51C326.499 313.501 324.451 312.543 324.451 310.768C324.451 309.036 326.499 308.078 329.988 308.078ZM322.869 315.689V314.564H337.107V315.689H322.869ZM324.592 318.098V317.043H335.279V320.541H325.998V322.158H335.754V323.248H324.627V319.521H333.926V318.098H324.592ZM325.892 310.768C325.875 311.857 327.395 312.455 329.988 312.455C332.581 312.455 334.093 311.857 334.101 310.768C334.093 309.739 332.581 309.124 329.988 309.115C327.395 309.124 325.875 309.739 325.892 310.768ZM137.518 337.797V353.459H136.129V337.797H137.518ZM125.213 344.459C125.222 341.137 126.874 339.019 129.204 339.01C131.524 339.019 133.203 341.137 133.194 344.459C133.203 347.79 131.524 349.899 129.204 349.891C126.874 349.899 125.222 347.79 125.213 344.459ZM126.549 344.459C126.549 346.999 127.639 348.669 129.204 348.66C130.777 348.669 131.858 346.999 131.858 344.459C131.858 341.919 130.777 340.249 129.204 340.24C127.639 340.249 126.549 341.919 126.549 344.459ZM154.068 345.531V346.674H139.83V345.531H143.363V343.325C142.115 342.842 141.412 342.051 141.412 340.996C141.412 339.159 143.521 338.104 146.949 338.096C150.35 338.104 152.46 339.159 152.469 340.996C152.46 342.042 151.765 342.833 150.535 343.325V345.531H154.068ZM141.552 350.629C141.544 348.845 143.556 347.86 146.949 347.869C150.298 347.86 152.31 348.845 152.328 350.629C152.31 352.413 150.298 353.389 146.949 353.389C143.556 353.389 141.544 352.413 141.552 350.629ZM142.836 340.996C142.827 342.139 144.391 342.798 146.949 342.807C149.48 342.798 151.053 342.139 151.062 340.996C151.053 339.871 149.48 339.186 146.949 339.186C144.391 339.186 142.827 339.871 142.836 340.996ZM142.959 350.629C142.941 351.692 144.444 352.325 146.949 352.316C149.427 352.325 150.93 351.692 150.939 350.629C150.93 349.565 149.427 348.941 146.949 348.924C144.444 348.941 142.941 349.565 142.959 350.629ZM144.734 345.531H149.164V343.694C148.505 343.817 147.766 343.879 146.949 343.879C146.132 343.879 145.393 343.817 144.734 343.703V345.531ZM162.831 340.504V341.629H154.991V340.504H158.243V338.271H159.614V340.504H162.831ZM155.554 346.234C155.554 344.16 156.969 342.692 158.911 342.684C160.88 342.692 162.286 344.16 162.304 346.234C162.286 348.335 160.88 349.812 158.911 349.82C156.969 349.812 155.554 348.335 155.554 346.234ZM156.784 346.234C156.784 347.623 157.672 348.616 158.911 348.607C160.159 348.616 161.073 347.623 161.073 346.234C161.073 344.863 160.159 343.861 158.911 343.844C157.672 343.861 156.784 344.863 156.784 346.234ZM163.64 352.65V338.184H164.941V344.389H167.015V337.797H168.333V353.424H167.015V345.531H164.941V352.65H163.64ZM188.377 336.023V341.121H190.779V343.191H188.377V348.973H185.877V336.023H188.377ZM174.392 341.688C174.383 339.041 176.541 337.166 179.275 337.176C182 337.166 184.119 339.041 184.119 341.688C184.119 344.295 182 346.199 179.275 346.199C176.541 346.199 174.383 344.295 174.392 341.688ZM176.853 353.484V347.605H179.334V351.492H189.021V353.484H176.853ZM176.853 341.688C176.834 343.133 177.918 344.031 179.275 344.031C180.642 344.031 181.687 343.133 181.697 341.688C181.687 340.203 180.642 339.334 179.275 339.344C177.918 339.334 176.834 340.203 176.853 341.688ZM206.141 336.043V349.012H203.66V342.645H200.75V340.633H203.66V336.043H206.141ZM191.063 345.008C194.002 344.09 195.33 341.775 195.34 339.5V339.227H191.766V337.234H201.414V339.227H197.879V339.52C197.869 341.58 199.139 343.777 201.961 344.695L200.731 346.668C198.768 346.023 197.41 344.734 196.639 343.143C195.848 344.91 194.432 346.346 192.332 347.039L191.063 345.008ZM194.344 353.484V347.879H196.844V351.492H206.571V353.484H194.344ZM222.069 336.023V342.977H224.686V345.027H222.069V353.797H219.608V336.023H222.069ZM207.948 340.672V338.68H211.971V336.297H214.471V338.68H218.397V340.672H207.948ZM208.671 345.906C208.661 343.426 210.594 341.658 213.221 341.668C215.809 341.658 217.753 343.426 217.753 345.906C217.753 348.387 215.809 350.135 213.221 350.145C210.594 350.135 208.661 348.387 208.671 345.906ZM211.053 345.906C211.053 347.283 211.962 348.104 213.221 348.094C214.462 348.104 215.37 347.283 215.37 345.906C215.37 344.539 214.462 343.699 213.221 343.68C211.962 343.699 211.053 344.539 211.053 345.906ZM240.341 336.023V353.797H237.997V336.023H240.341ZM224.716 348.348C228.31 346.219 229.892 343.631 230.233 340.145H225.692V338.133H232.704C232.704 339.832 232.519 341.414 232.089 342.879H234.228V336.414H236.552V353.016H234.228V344.852H231.317C230.302 346.883 228.651 348.641 226.122 350.105L224.716 348.348ZM259.034 337.797V353.459H257.645V344.635H254.218V343.492H257.645V337.797H259.034ZM245.938 349.258C248.206 348.159 250.096 345.215 250.104 342.438V340.557H246.536V339.414H255.079V340.557H251.493V342.438C251.502 345.039 253.365 347.869 255.641 348.906L254.815 350.014C253.031 349.135 251.528 347.245 250.816 345.065C250.113 347.386 248.566 349.398 246.782 350.33L245.938 349.258ZM266.567 340.768C266.575 342.815 268.105 344.644 270.399 345.391L269.748 346.48C267.946 345.883 266.584 344.644 265.907 343.07C265.239 344.863 263.798 346.261 261.926 346.938L261.223 345.83C263.561 345.039 265.195 343.026 265.213 340.768V340.1H261.645V338.957H270.082V340.1H266.567V340.768ZM263.297 350.506C263.306 348.704 265.266 347.658 268.483 347.658C271.691 347.658 273.633 348.704 273.633 350.506C273.633 352.334 271.691 353.389 268.483 353.389C265.266 353.389 263.306 352.334 263.297 350.506ZM264.686 350.506C264.668 351.631 266.127 352.29 268.483 352.281C270.847 352.29 272.288 351.631 272.297 350.506C272.288 349.416 270.847 348.766 268.483 348.766C266.127 348.766 264.668 349.416 264.686 350.506ZM272.121 347.236V337.797H273.492V341.787H275.848V342.947H273.492V347.236H272.121ZM289.375 337.814V346.797H287.986V337.814H289.375ZM276.525 345.268C277.852 345.268 279.399 345.268 281.007 345.215V343.527H277.949V338.588H285.367V339.73H279.337V342.42H285.507V343.527H282.396V345.153C283.846 345.083 285.314 344.969 286.685 344.775L286.773 345.777C283.345 346.357 279.557 346.41 276.736 346.41L276.525 345.268ZM279.074 353.213V347.5H280.445V349.17H288.021V347.5H289.375V353.213H279.074ZM280.445 352.088H288.021V350.242H280.445V352.088ZM304.554 337.797V353.424H303.182V337.797H304.554ZM292.688 349.398V339.344H294.042V348.203C296.432 348.186 298.893 348.001 301.513 347.447L301.706 348.625C298.929 349.205 296.459 349.398 293.954 349.398H292.688ZM318.959 337.797V343.984H321.578V345.145H318.959V353.459H317.588V337.797H318.959ZM307.551 349.539V339.326H314.846V340.469H308.922V348.379C311.752 348.37 313.747 348.247 316.076 347.816L316.252 349.012C313.8 349.451 311.752 349.539 308.781 349.539H307.551ZM323.714 352.105C323.099 352.097 322.572 351.587 322.589 350.963C322.572 350.348 323.099 349.838 323.714 349.838C324.338 349.838 324.848 350.348 324.839 350.963C324.848 351.587 324.338 352.097 323.714 352.105Z" fill="#222222"/>
<rect x="20" y="735" width="410" height="56" rx="8" fill="#323C59"/>
<path d="M222.329 754.18V759.375H224.829V760.898H222.329V765.957H220.473V754.18H222.329ZM208.442 764.004C209.8 764.004 211.372 764.004 213.013 763.965V762.783C211.02 762.559 209.751 761.621 209.77 760.215C209.751 758.613 211.421 757.617 213.93 757.637C216.44 757.617 218.081 758.613 218.091 760.215C218.081 761.611 216.841 762.549 214.868 762.783V763.896C216.43 763.818 218.013 763.691 219.477 763.477L219.634 764.805C215.874 765.459 211.723 765.488 208.638 765.488L208.442 764.004ZM208.891 757.051V755.664H213.013V754.023H214.868V755.664H218.989V757.051H208.891ZM210.63 768.223V766.777H222.329V771.66H220.473V768.223H210.63ZM211.528 760.215C211.528 761.035 212.436 761.572 213.93 761.562C215.405 761.572 216.323 761.035 216.313 760.215C216.323 759.375 215.405 758.887 213.93 758.906C212.436 758.887 211.528 759.375 211.528 760.215ZM239.956 754.18V766.895H238.101V754.18H239.956ZM225.796 759.688C225.806 757.158 227.818 755.361 230.464 755.352C233.101 755.361 235.113 757.158 235.113 759.688C235.113 762.256 233.101 764.043 230.464 764.043C227.818 764.043 225.806 762.256 225.796 759.688ZM227.613 759.688C227.603 761.338 228.833 762.422 230.464 762.422C232.066 762.422 233.296 761.338 233.296 759.688C233.296 758.076 232.066 756.973 230.464 756.973C228.833 756.973 227.603 758.076 227.613 759.688ZM228.511 771.289V765.605H230.386V769.785H240.484V771.289H228.511Z" fill="white"/>
<defs>
<clipPath id="clip0_263_1072">
<rect width="60" height="60" fill="white" transform="translate(195 158)"/>
</clipPath>
</defs>
</svg>
