<svg width="400" height="727" viewBox="0 0 400 727" fill="none" xmlns="http://www.w3.org/2000/svg">
<rect width="400" height="727" fill="white"/>
<rect width="400" height="58" fill="white"/>
<mask id="mask0_250_1191" style="mask-type:alpha" maskUnits="userSpaceOnUse" x="14" y="17" width="24" height="24">
<rect x="14" y="17" width="24" height="24" fill="#D9D9D9"/>
</mask>
<g mask="url(#mask0_250_1191)">
<path d="M23.0152 28.9994L30.248 36.2321C30.43 36.4141 30.5227 36.6397 30.526 36.9089C30.5292 37.1782 30.4397 37.4039 30.2577 37.5859C30.0756 37.7679 29.8499 37.8589 29.5807 37.8589C29.3116 37.8589 29.0859 37.7679 28.9038 37.5859L21.4578 30.1301C21.2936 29.9659 21.1762 29.7884 21.1057 29.5974C21.0352 29.4064 21 29.207 21 28.9994C21 28.7917 21.0352 28.5924 21.1057 28.4014C21.1762 28.2104 21.2936 28.0328 21.4578 27.8686L28.9038 20.4224C29.0859 20.2404 29.31 20.1478 29.576 20.1446C29.842 20.1414 30.066 20.2309 30.248 20.4129C30.43 20.5949 30.521 20.8205 30.521 21.0899C30.521 21.359 30.43 21.5846 30.248 21.7666L23.0152 28.9994Z" fill="#222222"/>
</g>
<path d="M39.9316 83.3066V106.26H37.0879V83.3066H39.9316ZM20.9141 99.9375C26.9316 97.0811 29.6992 93.1963 30.207 87.9785H22.082V85.7441H33.0762C33.0762 92.5742 30.4229 98.376 22.3867 102.197L20.9141 99.9375ZM61.273 89.2734V91.5586H45.4292V83.7129H48.2476V89.2734H61.273ZM42.7124 96.0527V93.7676H63.6597V96.0527H42.7124ZM45.1499 101.943C45.1499 99.2393 48.1587 97.7158 53.148 97.7031C58.0991 97.7158 61.0825 99.2393 61.0952 101.943C61.0825 104.635 58.0991 106.158 53.148 106.158C48.1587 106.158 45.1499 104.635 45.1499 101.943ZM48.0191 101.943C48.0064 103.264 49.8091 103.987 53.148 104C56.4361 103.987 58.2515 103.264 58.2769 101.943C58.2515 100.585 56.4361 99.9248 53.148 99.9121C49.8091 99.9248 48.0064 100.585 48.0191 101.943ZM89.5337 83.3066V95.8242H86.7154V90.9238H82.7545V88.5879H86.7154V83.3066H89.5337ZM70.2623 93.9961C73.8931 92.7773 75.8482 89.8066 75.8736 86.7852H71.1002V84.4746H83.4908V86.7852H78.7427C78.7681 89.54 80.6216 92.3838 84.1509 93.5645L82.7291 95.748C80.1646 94.8721 78.3492 93.1328 77.3462 90.9746C76.3433 93.374 74.439 95.3037 71.7095 96.2305L70.2623 93.9961ZM74.4009 105.98V96.7891H77.2193V99.1758H86.7154V96.7891H89.5337V105.98H74.4009ZM77.2193 103.695H86.7154V101.385H77.2193V103.695ZM110.672 84.627V86.5312C110.685 88.4609 110.685 90.6826 110.151 93.5898H113.236V95.9004H92.2637V93.5898H107.282C107.816 90.8223 107.854 88.7783 107.854 86.9121H94.8536V84.627H110.672ZM94.9805 105.777V98.084H97.7735V103.492H111.332V105.777H94.9805ZM139.263 83.332V100.623H136.394V97.8555H131.722V95.6211H136.394V83.332H139.263ZM119.712 92.1426C122.505 92.1299 125.971 92.0918 129.411 91.8887C129.767 89.7559 129.868 88.0547 129.906 86.8105H121.794V84.5508H132.737V85.4141C132.737 86.6201 132.737 88.7529 132.268 91.6602C133.067 91.584 133.855 91.4824 134.616 91.3809L134.819 93.3867C132.839 93.7295 130.795 93.958 128.776 94.1104V99.1504H125.984V94.2754C123.851 94.377 121.832 94.4023 120.067 94.4023L119.712 92.1426ZM122.987 105.803V98.7949H125.806V103.518H139.796V105.803H122.987ZM159.919 83.332V90.543H163.118V92.8789H159.919V100.471H157.1V83.332H159.919ZM141.84 88.1309V85.8711H147.249V83.3066H150.067V85.8711H155.45V88.1309H141.84ZM143.008 93.4629C143.008 90.8223 145.306 89.0703 148.645 89.0703C151.959 89.0703 154.244 90.8223 154.256 93.4629C154.244 96.0908 151.959 97.8047 148.645 97.8047C145.306 97.8047 143.008 96.0908 143.008 93.4629ZM145.217 105.803V99.125H148.036V103.518H160.833V105.803H145.217ZM145.751 93.4629C145.738 94.8467 146.906 95.6338 148.645 95.6211C150.384 95.6338 151.565 94.8467 151.565 93.4629C151.565 92.0664 150.384 91.2539 148.645 91.2539C146.906 91.2539 145.738 92.0664 145.751 93.4629ZM187.519 83.3066V90.0352H190.718V92.3711H187.519V100.09H184.701V83.3066H187.519ZM169.67 90.6191C169.657 87.2295 172.374 84.8428 175.865 84.8301C179.356 84.8428 182.035 87.2295 182.06 90.6191C182.035 93.958 179.356 96.3828 175.865 96.3828C172.374 96.3828 169.657 93.958 169.67 90.6191ZM172.437 90.6191C172.424 92.5996 173.948 93.9072 175.865 93.8945C177.807 93.9072 179.28 92.5996 179.293 90.6191C179.28 88.5879 177.807 87.293 175.865 87.293C173.948 87.293 172.424 88.5879 172.437 90.6191ZM172.818 105.803V98.3379H175.636V103.518H188.433V105.803H172.818ZM211.07 83.3066V106.26H208.353V94.6562H205.814V105.092H203.173V83.7383H205.814V92.3457H208.353V83.3066H211.07ZM192.357 100.547V85.9473H195.2V98.0586C197.181 98.0205 199.339 97.8428 201.751 97.373L202.03 99.8359C198.933 100.382 196.305 100.547 193.88 100.547H192.357Z" fill="black"/>
<rect x="20" y="152" width="360" height="250" rx="14" fill="#F9F9F9"/>
<mask id="mask1_250_1191" style="mask-type:alpha" maskUnits="userSpaceOnUse" x="44" y="176" width="36" height="36">
<rect x="44" y="176" width="36" height="36" fill="#D9D9D9"/>
</mask>
<g mask="url(#mask1_250_1191)">
<path d="M59.3461 205.483H64.6539V204.329H59.3461V205.483ZM55.4232 209.002C54.7327 209.002 54.1562 208.771 53.6938 208.308C53.2313 207.846 53 207.269 53 206.579V181.425C53 180.735 53.2313 180.158 53.6938 179.696C54.1562 179.233 54.7327 179.002 55.4232 179.002H68.5768C69.2673 179.002 69.8438 179.233 70.3063 179.696C70.7688 180.158 71 180.735 71 181.425V206.579C71 207.269 70.7688 207.846 70.3063 208.308C69.8438 208.771 69.2673 209.002 68.5768 209.002H55.4232ZM54.5 202.31V206.579C54.5 206.81 54.5961 207.021 54.7884 207.214C54.9806 207.406 55.1922 207.502 55.4232 207.502H68.5768C68.8078 207.502 69.0194 207.406 69.2116 207.214C69.4039 207.021 69.5 206.81 69.5 206.579V202.31H54.5ZM54.5 200.81H69.5V184.252H54.5V200.81ZM54.5 182.752H69.5V181.425C69.5 181.194 69.4039 180.983 69.2116 180.79C69.0194 180.598 68.8078 180.502 68.5768 180.502H55.4232C55.1922 180.502 54.9806 180.598 54.7884 180.79C54.5961 180.983 54.5 181.194 54.5 181.425V182.752Z" fill="#1C1B1F"/>
</g>
<path d="M102.047 190.762V202.293H100.377V196.369H97.371V195.016H100.377V190.762H102.047ZM88.9335 199.006C91.3505 198.188 92.8622 196.114 92.8534 193.943V193.328H89.4433V191.957H97.9335V193.328H94.5585V193.943C94.5497 195.903 95.9736 197.881 98.3554 198.672L97.4941 200.008C95.7275 199.393 94.4179 198.127 93.7323 196.562C93.0468 198.303 91.6669 199.691 89.7948 200.359L88.9335 199.006ZM91.8163 206.16V201.256H93.4863V204.807H102.469V206.16H91.8163ZM116.452 190.744V197.336H118.825V198.742H116.452V206.494H114.783V190.744H116.452ZM103.919 202.205C105.158 202.205 106.6 202.205 108.103 202.161V200.562C106.327 200.298 105.167 199.226 105.185 197.705C105.167 195.93 106.705 194.761 108.947 194.752C111.179 194.761 112.735 195.93 112.743 197.705C112.735 199.226 111.557 200.307 109.773 200.562V202.1C111.17 202.029 112.576 201.915 113.886 201.73L113.991 202.961C110.581 203.567 106.899 203.603 104.183 203.594L103.919 202.205ZM104.218 193.943V192.607H108.103V190.779H109.773V192.607H113.658V193.943H104.218ZM106.749 197.705C106.749 198.707 107.628 199.331 108.947 199.322C110.265 199.331 111.135 198.707 111.144 197.705C111.135 196.694 110.265 196.053 108.947 196.053C107.628 196.053 106.749 196.694 106.749 197.705ZM124.293 200.148C124.311 196.835 125.251 194.084 126.895 191.729H128.617C127.404 193.469 126.244 197.011 126.244 200.148C126.244 203.295 127.404 206.837 128.617 208.586H126.895C125.251 206.222 124.311 203.471 124.293 200.148ZM142.513 190.744V198.883H140.826V190.744H142.513ZM129.681 197.072C130.279 197.072 130.929 197.063 131.597 197.055V193.1H130.103V191.781H138.663V193.1H137.152V196.826C137.916 196.773 138.672 196.703 139.384 196.615L139.454 197.828C136.308 198.303 132.643 198.417 129.874 198.408L129.681 197.072ZM132.054 200.922V199.604H142.513V203.506H133.742V205H143.058V206.336H132.107V202.293H140.861V200.922H132.054ZM133.197 197.02C133.97 196.993 134.761 196.967 135.552 196.923V193.1H133.197V197.02ZM152.682 192.133C152.674 194.225 155.231 196.185 158.325 196.598L157.675 197.969C155.099 197.556 152.841 196.22 151.812 194.365C150.784 196.22 148.525 197.556 145.968 197.969L145.3 196.598C148.384 196.185 150.933 194.251 150.942 192.133V191.271H152.682V192.133ZM144.614 200.887V199.516H158.975V200.887H152.577V206.494H150.942V200.887H144.614ZM164.135 200.148C164.117 203.471 163.177 206.222 161.533 208.586H159.811C161.024 206.837 162.184 203.295 162.184 200.148C162.184 197.011 161.024 193.469 159.811 191.729H161.533C163.177 194.084 164.117 196.835 164.135 200.148Z" fill="#222222"/>
<path d="M56.4512 234.55V235.517H44.5273V234.55H49.8887V231.371H45.9336V225.263H54.9717V231.371H51.0166V234.55H56.4512ZM47.0615 230.448H53.8584V226.186H47.0615V230.448ZM67.2693 224.164V229.291H69.452V230.287H67.2693V237.187H66.1268V224.164H67.2693ZM57.7332 234.066V225.277H58.8758V228.72H62.6844V225.277H63.827V234.066H57.7332ZM58.8758 233.1H62.6844V229.643H58.8758V233.1ZM73.5465 224.647C75.4947 224.655 76.9083 225.841 76.9156 227.533C76.9083 229.232 75.4947 230.404 73.5465 230.404C71.5763 230.404 70.1554 229.232 70.1627 227.533C70.1554 225.841 71.5763 224.655 73.5465 224.647ZM71.2906 227.533C71.276 228.676 72.2354 229.467 73.5465 229.467C74.8355 229.467 75.8023 228.676 75.8023 227.533C75.8023 226.405 74.8355 225.607 73.5465 225.614C72.2354 225.607 71.276 226.405 71.2906 227.533ZM72.1402 232.411V231.488H80.607V234.623H73.2975V236.088H81.0758V237.011H72.1695V233.759H79.4645V232.411H72.1402ZM79.4645 230.858V224.164H80.607V230.858H79.4645ZM87.6682 224.999V227.064H90.5686V224.999H91.6525V231.063H86.5842V224.999H87.6682ZM87.6682 230.111H90.5686V227.987H87.6682V230.111ZM88.2687 233.729V232.777H97.0432V237.187H95.9152V233.729H88.2687ZM93.132 231.913V224.428H94.216V227.562H95.9445V224.179H97.0432V231.986H95.9445V228.515H94.216V231.913H93.132ZM109.399 224.179V233.729H108.257V224.179H109.399ZM98.7793 230.946C100.75 230.177 102.09 228.273 102.09 226.215V224.911H103.262V226.215C103.247 228.2 104.602 229.979 106.543 230.683L105.942 231.605C104.434 231.027 103.262 229.855 102.683 228.354C102.119 229.95 100.933 231.232 99.4092 231.84L98.7793 230.946ZM100.991 236.908V232.851H102.134V235.941H109.81V236.908H100.991ZM112.117 231.957C112.132 229.196 112.879 226.896 114.226 224.94H115.34C114.351 226.383 113.428 229.35 113.421 231.957C113.428 234.572 114.351 237.531 115.34 238.988H114.226C112.879 237.025 112.132 234.726 112.117 231.957ZM116.768 225.395H118.35L121.924 234.125H122.056L125.63 225.395H127.213V236H125.967V227.987H125.865L122.569 236H121.397L118.101 227.987H118.013V236H116.768V225.395ZM128.714 233.744C128.714 231.92 130.326 231.503 131.703 231.4C132.215 231.364 133.497 231.291 133.856 231.283V230.639C133.856 229.628 133.255 229.042 132.054 229.042C131.051 229.042 130.443 229.503 130.267 230.111H128.949C129.11 228.83 130.355 227.943 132.113 227.943C133.153 227.943 135.108 228.251 135.101 230.756V236H133.856V234.916H133.797C133.534 235.451 132.808 236.183 131.424 236.19C129.915 236.183 128.714 235.297 128.714 233.744ZM129.974 233.803C129.981 234.645 130.677 235.07 131.644 235.062C133.065 235.07 133.856 234.118 133.856 233.114V232.316C133.482 232.338 132.23 232.433 131.849 232.455C130.706 232.528 129.981 232.931 129.974 233.803ZM140.045 239.149C138.119 239.149 136.815 238.307 136.676 236.835H137.994C138.163 237.648 138.917 238.051 140.045 238.051C141.407 238.051 142.242 237.458 142.242 236.146V234.535H142.14C141.869 234.975 141.363 235.875 139.825 235.883C137.892 235.875 136.442 234.418 136.442 231.913C136.442 229.467 137.841 227.943 139.84 227.943C141.385 227.943 141.883 228.881 142.169 229.306H142.272V228.046H143.502V236.22C143.495 238.271 141.986 239.149 140.045 239.149ZM137.716 231.957C137.716 233.605 138.492 234.755 140.001 234.755C141.459 234.755 142.264 233.708 142.272 231.957C142.264 230.25 141.481 229.071 140.001 229.071C138.47 229.071 137.716 230.353 137.716 231.957ZM145.209 236V228.046H146.469V236H145.209ZM144.96 225.893C144.953 225.424 145.355 225.05 145.839 225.058C146.322 225.05 146.725 225.424 146.732 225.893C146.725 226.354 146.322 226.728 145.839 226.728C145.355 226.728 144.953 226.354 144.96 225.893ZM151.428 236.161C149.172 236.168 147.795 234.447 147.795 232.06C147.795 229.643 149.238 227.943 151.398 227.943C153.09 227.943 154.365 228.947 154.562 230.448H153.303C153.119 229.723 152.49 229.057 151.428 229.057C150.007 229.057 149.062 230.229 149.054 232.016C149.062 233.854 149.985 235.033 151.428 235.033C152.365 235.033 153.083 234.528 153.303 233.656H154.562C154.365 235.077 153.193 236.168 151.428 236.161ZM159.28 236V228.046H160.496V229.291H160.598C160.928 228.441 161.697 227.943 162.737 227.943C163.777 227.943 164.487 228.441 164.861 229.291H164.949C165.351 228.471 166.194 227.943 167.336 227.943C168.75 227.943 169.768 228.808 169.768 230.683V236H168.508V230.697C168.501 229.525 167.768 229.071 166.897 229.071C165.791 229.071 165.161 229.818 165.154 230.829V236H163.879V230.565C163.887 229.672 163.242 229.071 162.327 229.071C161.374 229.071 160.539 229.877 160.539 231.034V236H159.28ZM171.387 225.395L174.507 234.286H174.624L177.759 225.395H179.151L175.269 236H173.877L169.995 225.395H171.387ZM178.982 233.744C178.982 231.92 180.594 231.503 181.971 231.4C182.483 231.364 183.765 231.291 184.124 231.283V230.639C184.124 229.628 183.523 229.042 182.322 229.042C181.319 229.042 180.711 229.503 180.535 230.111H179.217C179.378 228.83 180.623 227.943 182.381 227.943C183.421 227.943 185.376 228.251 185.369 230.756V236H184.124V234.916H184.065C183.802 235.451 183.077 236.183 181.692 236.19C180.184 236.183 178.982 235.297 178.982 233.744ZM180.242 233.803C180.25 234.645 180.945 235.07 181.912 235.062C183.333 235.07 184.124 234.118 184.124 233.114V232.316C183.75 232.338 182.498 232.433 182.117 232.455C180.975 232.528 180.25 232.931 180.242 233.803ZM190.343 236.161C188.087 236.168 186.71 234.447 186.71 232.06C186.71 229.643 188.153 227.943 190.313 227.943C192.005 227.943 193.28 228.947 193.477 230.448H192.218C192.034 229.723 191.405 229.057 190.343 229.057C188.922 229.057 187.977 230.229 187.97 232.016C187.977 233.854 188.9 235.033 190.343 235.033C191.28 235.033 191.998 234.528 192.218 233.656H193.477C193.28 235.077 192.108 236.168 190.343 236.161ZM197.982 236.161C195.726 236.168 194.349 234.447 194.349 232.06C194.349 229.643 195.792 227.943 197.953 227.943C199.645 227.943 200.919 228.947 201.117 230.448H199.857C199.674 229.723 199.044 229.057 197.982 229.057C196.561 229.057 195.616 230.229 195.609 232.016C195.616 233.854 196.539 235.033 197.982 235.033C198.92 235.033 199.637 234.528 199.857 233.656H201.117C200.919 235.077 199.747 236.168 197.982 236.161ZM202.37 236V228.046H203.629V236H202.37ZM202.121 225.893C202.113 225.424 202.516 225.05 202.999 225.058C203.483 225.05 203.886 225.424 203.893 225.893C203.886 226.354 203.483 226.728 202.999 226.728C202.516 226.728 202.113 226.354 202.121 225.893ZM206.596 231.225V236H205.336V228.046H206.552V229.291H206.654C207.028 228.478 207.775 227.943 208.984 227.943C210.595 227.943 211.672 228.925 211.664 230.946V236H210.404V231.034C210.404 229.804 209.731 229.071 208.603 229.071C207.446 229.071 206.596 229.848 206.596 231.225ZM216.726 236.161C214.426 236.168 213.005 234.528 213.005 232.089C213.005 229.643 214.448 227.943 216.608 227.943C218.278 227.943 220.043 228.969 220.036 231.913V232.44H214.265C214.331 234.125 215.312 235.048 216.726 235.048C217.678 235.048 218.278 234.63 218.571 234.14H219.919C219.545 235.348 218.366 236.168 216.726 236.161ZM214.272 231.371H218.762C218.754 230.045 217.919 229.057 216.608 229.057C215.231 229.057 214.36 230.141 214.272 231.371ZM224.145 231.957C224.131 234.726 223.384 237.025 222.036 238.988H220.923C221.911 237.531 222.834 234.572 222.842 231.957C222.834 229.35 221.911 226.383 220.923 224.94H222.036C223.384 226.896 224.131 229.196 224.145 231.957ZM233.536 227.665C233.536 229.958 235.052 232.323 236.905 233.231L236.202 234.154C234.766 233.407 233.565 231.862 232.986 230.053C232.408 231.972 231.177 233.62 229.712 234.403L228.98 233.48C230.884 232.543 232.393 230.045 232.408 227.665V225.292H233.536V227.665ZM238.106 237.187V224.164H239.248V229.452H241.431V230.448H239.248V237.187H238.106ZM253.699 230.609V231.562H241.834V230.609H244.779V228.771C243.738 228.368 243.153 227.709 243.153 226.83C243.153 225.299 244.91 224.42 247.767 224.413C250.601 224.42 252.359 225.299 252.366 226.83C252.359 227.702 251.78 228.361 250.755 228.771V230.609H253.699ZM243.27 234.857C243.262 233.371 244.94 232.55 247.767 232.558C250.557 232.55 252.235 233.371 252.249 234.857C252.235 236.344 250.557 237.157 247.767 237.157C244.94 237.157 243.262 236.344 243.27 234.857ZM244.339 226.83C244.332 227.782 245.635 228.332 247.767 228.339C249.876 228.332 251.187 227.782 251.195 226.83C251.187 225.893 249.876 225.321 247.767 225.321C245.635 225.321 244.332 225.893 244.339 226.83ZM244.442 234.857C244.427 235.744 245.679 236.271 247.767 236.264C249.832 236.271 251.085 235.744 251.092 234.857C251.085 233.971 249.832 233.451 247.767 233.437C245.679 233.451 244.427 233.971 244.442 234.857ZM245.921 230.609H249.613V229.079C249.063 229.181 248.448 229.232 247.767 229.232C247.086 229.232 246.47 229.181 245.921 229.086V230.609ZM255.875 236.088C255.362 236.081 254.923 235.656 254.938 235.136C254.923 234.623 255.362 234.198 255.875 234.198C256.395 234.198 256.82 234.623 256.812 235.136C256.82 235.656 256.395 236.081 255.875 236.088ZM47.6475 245.896C49.3833 245.882 50.6284 247.098 50.6357 248.841C50.6284 250.577 49.3833 251.792 47.6475 251.785C45.897 251.792 44.6665 250.577 44.6738 248.841C44.6665 247.098 45.897 245.882 47.6475 245.896ZM45.7139 248.841C45.6992 249.998 46.5269 250.826 47.6475 250.833C48.7534 250.826 49.5737 249.998 49.5811 248.841C49.5737 247.669 48.7534 246.841 47.6475 246.834C46.5269 246.841 45.6992 247.669 45.7139 248.841ZM47.0029 258.011V252.854H48.1455V254.407H54.459V252.854H55.5869V258.011H47.0029ZM48.1455 257.073H54.459V255.359H48.1455V257.073ZM51.6758 252.166V245.428H52.7598V248.167H54.4883V245.179H55.5869V252.269H54.4883V249.134H52.7598V252.166H51.6758ZM72.5797 255.564V256.517H60.6559V255.564H66.0172V252.752H62.0621V246.087H63.2193V248.445H69.9869V246.087H71.1148V252.752H67.1451V255.564H72.5797ZM63.2193 251.814H69.9869V249.383H63.2193V251.814ZM83.5004 245.164V249.134H85.4633V250.101H83.5004V254.773H82.3578V245.164H83.5004ZM73.5688 249.295C73.5614 247.405 75.0409 246.094 76.9818 246.087C78.9374 246.094 80.3949 247.405 80.4096 249.295C80.3949 251.177 78.9374 252.503 76.9818 252.503C75.0409 252.503 73.5614 251.177 73.5688 249.295ZM74.6967 249.295C74.6894 250.577 75.6928 251.492 76.9818 251.492C78.2929 251.492 79.2743 250.577 79.2816 249.295C79.2743 248.006 78.2929 247.098 76.9818 247.098C75.6928 247.098 74.6894 248.006 74.6967 249.295ZM75.3559 257.908V253.777H76.4838V256.941H84.101V257.908H75.3559ZM96.2451 246.014V251.316H90.1367V246.014H96.2451ZM91.0742 257.249C93.3154 257 95.4688 255.733 95.4688 254.437H91.6162V253.543H95.4834V252.269H96.626V253.543H100.522V254.437H96.6553C96.6479 255.704 98.7427 256.971 100.977 257.249L100.581 258.143C98.6255 257.872 96.8384 256.949 96.062 255.748C95.2783 256.978 93.4473 257.872 91.4844 258.143L91.0742 257.249ZM91.2646 250.408H95.1172V246.951H91.2646V250.408ZM99.0576 252.649V245.164H100.186V252.649H99.0576ZM109.869 245.809C111.817 245.794 113.216 246.871 113.209 248.46C113.216 250.049 111.817 251.133 109.869 251.126C107.921 251.133 106.529 250.049 106.529 248.46C106.529 246.871 107.921 245.794 109.869 245.809ZM105.547 252.239C107.994 252.247 111.341 252.195 114.234 251.771L114.307 252.635C113.062 252.862 111.773 253.001 110.513 253.082V257.791H109.371V253.147C108.045 253.206 106.793 253.213 105.709 253.221L105.547 252.239ZM107.657 248.46C107.642 249.478 108.572 250.181 109.869 250.174C111.18 250.181 112.117 249.478 112.11 248.46C112.117 247.449 111.18 246.731 109.869 246.746C108.572 246.731 107.642 247.449 107.657 248.46ZM115.186 258.201V245.179H116.314V258.201H115.186ZM129.037 245.179V254.817H127.879V251.316H124.803V252.591H118.9V246.043H120.042V248.357H123.675V246.043H124.803V247.566H127.879V245.179H129.037ZM120.042 251.639H123.675V249.266H120.042V251.639ZM120.614 257.908V253.865H121.771V256.941H129.329V257.908H120.614ZM124.803 250.364H127.879V248.533H124.803V250.364ZM142.828 255.55V256.517H130.904V255.55H136.28V252.386H137.438V255.55H142.828ZM131.49 251.917C133.695 251.543 136.251 249.72 136.251 247.64V247.317H131.886V246.351H141.803V247.317H137.438V247.64C137.445 249.72 140.008 251.507 142.257 251.873L141.788 252.781C139.796 252.386 137.694 251.119 136.859 249.317C136.024 251.141 133.929 252.437 131.974 252.84L131.49 251.917ZM153.039 253.353C155.712 253.353 157.331 254.231 157.331 255.755C157.331 257.293 155.712 258.172 153.039 258.187C150.358 258.172 148.725 257.293 148.718 255.755C148.725 254.231 150.358 253.353 153.039 253.353ZM147.59 251.99V245.984H148.718V247.977H152.512V245.984H153.654V251.99H147.59ZM148.718 251.053H152.512V248.885H148.718V251.053ZM149.875 255.755C149.86 256.692 151.076 257.249 153.039 257.249C155.009 257.249 156.21 256.692 156.218 255.755C156.21 254.825 155.009 254.275 153.039 254.261C151.076 254.275 149.86 254.825 149.875 255.755ZM156.071 253.001V245.164H157.214V248.445H159.177V249.427H157.214V253.001H156.071ZM164.355 249.163C164.362 251.375 165.966 253.624 167.885 254.451L167.241 255.359C165.717 254.671 164.406 253.169 163.798 251.368C163.191 253.279 161.872 254.935 160.385 255.682L159.697 254.773C161.565 253.88 163.191 251.419 163.198 249.163V247.464H160.122V246.512H167.461V247.464H164.355V249.163ZM169.277 258.187V245.164H170.434V258.187H169.277Z" fill="#777777"/>
<mask id="mask2_250_1191" style="mask-type:alpha" maskUnits="userSpaceOnUse" x="44" y="292" width="36" height="36">
<rect x="44" y="292" width="36" height="36" fill="#D9D9D9"/>
</mask>
<g mask="url(#mask2_250_1191)">
<path d="M51.5 320.154V318.654H53.9232V306.769C53.9232 304.81 54.5434 303.086 55.7836 301.599C57.0241 300.111 58.5963 299.185 60.5 298.819V298C60.5 297.583 60.6455 297.229 60.9365 296.938C61.2275 296.646 61.5809 296.5 61.9966 296.5C62.4124 296.5 62.7669 296.646 63.0601 296.938C63.3534 297.229 63.5 297.583 63.5 298V298.819C65.4038 299.185 66.9759 300.111 68.2164 301.599C69.4566 303.086 70.0768 304.81 70.0768 306.769V318.654H72.5V320.154H51.5ZM61.9947 324.077C61.327 324.077 60.7571 323.84 60.2851 323.365C59.8129 322.891 59.5767 322.32 59.5767 321.654H64.4233C64.4233 322.325 64.1854 322.897 63.7096 323.369C63.2341 323.841 62.6625 324.077 61.9947 324.077ZM55.4232 318.654H68.5768V306.769C68.5768 304.946 67.9364 303.394 66.6556 302.113C65.3749 300.833 63.823 300.192 62 300.192C60.177 300.192 58.6251 300.833 57.3444 302.113C56.0636 303.394 55.4232 304.946 55.4232 306.769V318.654Z" fill="#1C1B1F"/>
</g>
<path d="M101.291 306.744V310.031H103.576V311.42H101.291V314.707H99.621V306.744H101.291ZM89.162 310.805C89.1445 308.722 90.9111 307.298 93.2929 307.289C95.6835 307.298 97.4238 308.722 97.4238 310.805C97.4238 312.87 95.6835 314.32 93.2929 314.32C90.9111 314.32 89.1445 312.87 89.162 310.805ZM90.7792 310.805C90.7704 312.088 91.8427 312.984 93.2929 312.984C94.7431 312.984 95.8066 312.088 95.8066 310.805C95.8066 309.521 94.7431 308.651 93.2929 308.66C91.8427 308.651 90.7704 309.521 90.7792 310.805ZM91.1132 316.729V315.428H101.291V319.418H92.7831V320.965H101.836V322.301H91.1484V318.17H99.6386V316.729H91.1132ZM117.173 306.762V316.096H115.503V306.762H117.173ZM104.904 309.029V307.693H112.146V312.123H106.574V314.021C109.333 314.021 111.346 313.942 113.745 313.547L113.956 314.918C111.381 315.313 109.237 315.401 106.257 315.393H104.939V310.822H110.493V309.029H104.904ZM106.82 322.301V316.887H117.173V322.301H106.82ZM108.472 320.947H115.538V318.223H108.472V320.947ZM124.293 316.148C124.311 312.835 125.251 310.084 126.895 307.729H128.617C127.404 309.469 126.244 313.011 126.244 316.148C126.244 319.295 127.404 322.837 128.617 324.586H126.895C125.251 322.222 124.311 319.471 124.293 316.148ZM142.513 306.744V314.883H140.826V306.744H142.513ZM129.681 313.072C130.279 313.072 130.929 313.063 131.597 313.055V309.1H130.103V307.781H138.663V309.1H137.152V312.826C137.916 312.773 138.672 312.703 139.384 312.615L139.454 313.828C136.308 314.303 132.643 314.417 129.874 314.408L129.681 313.072ZM132.054 316.922V315.604H142.513V319.506H133.742V321H143.058V322.336H132.107V318.293H140.861V316.922H132.054ZM133.197 313.02C133.97 312.993 134.761 312.967 135.552 312.923V309.1H133.197V313.02ZM152.682 308.133C152.674 310.225 155.231 312.185 158.325 312.598L157.675 313.969C155.099 313.556 152.841 312.22 151.812 310.365C150.784 312.22 148.525 313.556 145.968 313.969L145.3 312.598C148.384 312.185 150.933 310.251 150.942 308.133V307.271H152.682V308.133ZM144.614 316.887V315.516H158.975V316.887H152.577V322.494H150.942V316.887H144.614ZM164.135 316.148C164.117 319.471 163.177 322.222 161.533 324.586H159.811C161.024 322.837 162.184 319.295 162.184 316.148C162.184 313.011 161.024 309.469 159.811 307.729H161.533C163.177 310.084 164.117 312.835 164.135 316.148Z" fill="#222222"/>
<path d="M56.4512 350.55V351.517H44.5273V350.55H49.8887V347.371H45.9336V341.263H54.9717V347.371H51.0166V350.55H56.4512ZM47.0615 346.448H53.8584V342.186H47.0615V346.448ZM67.2693 340.164V345.291H69.452V346.287H67.2693V353.187H66.1268V340.164H67.2693ZM57.7332 350.066V341.277H58.8758V344.72H62.6844V341.277H63.827V350.066H57.7332ZM58.8758 349.1H62.6844V345.643H58.8758V349.1ZM73.5465 340.647C75.4947 340.655 76.9083 341.841 76.9156 343.533C76.9083 345.232 75.4947 346.404 73.5465 346.404C71.5763 346.404 70.1554 345.232 70.1627 343.533C70.1554 341.841 71.5763 340.655 73.5465 340.647ZM71.2906 343.533C71.276 344.676 72.2354 345.467 73.5465 345.467C74.8355 345.467 75.8023 344.676 75.8023 343.533C75.8023 342.405 74.8355 341.607 73.5465 341.614C72.2354 341.607 71.276 342.405 71.2906 343.533ZM72.1402 348.411V347.488H80.607V350.623H73.2975V352.088H81.0758V353.011H72.1695V349.759H79.4645V348.411H72.1402ZM79.4645 346.858V340.164H80.607V346.858H79.4645ZM87.6682 340.999V343.064H90.5686V340.999H91.6525V347.063H86.5842V340.999H87.6682ZM87.6682 346.111H90.5686V343.987H87.6682V346.111ZM88.2687 349.729V348.777H97.0432V353.187H95.9152V349.729H88.2687ZM93.132 347.913V340.428H94.216V343.562H95.9445V340.179H97.0432V347.986H95.9445V344.515H94.216V347.913H93.132ZM109.399 340.179V349.729H108.257V340.179H109.399ZM98.7793 346.946C100.75 346.177 102.09 344.273 102.09 342.215V340.911H103.262V342.215C103.247 344.2 104.602 345.979 106.543 346.683L105.942 347.605C104.434 347.027 103.262 345.855 102.683 344.354C102.119 345.95 100.933 347.232 99.4092 347.84L98.7793 346.946ZM100.991 352.908V348.851H102.134V351.941H109.81V352.908H100.991ZM112.117 347.957C112.132 345.196 112.879 342.896 114.226 340.94H115.34C114.351 342.383 113.428 345.35 113.421 347.957C113.428 350.572 114.351 353.531 115.34 354.988H114.226C112.879 353.025 112.132 350.726 112.117 347.957ZM116.768 341.395H118.35L121.924 350.125H122.056L125.63 341.395H127.213V352H125.967V343.987H125.865L122.569 352H121.397L118.101 343.987H118.013V352H116.768V341.395ZM128.714 349.744C128.714 347.92 130.326 347.503 131.703 347.4C132.215 347.364 133.497 347.291 133.856 347.283V346.639C133.856 345.628 133.255 345.042 132.054 345.042C131.051 345.042 130.443 345.503 130.267 346.111H128.949C129.11 344.83 130.355 343.943 132.113 343.943C133.153 343.943 135.108 344.251 135.101 346.756V352H133.856V350.916H133.797C133.534 351.451 132.808 352.183 131.424 352.19C129.915 352.183 128.714 351.297 128.714 349.744ZM129.974 349.803C129.981 350.645 130.677 351.07 131.644 351.062C133.065 351.07 133.856 350.118 133.856 349.114V348.316C133.482 348.338 132.23 348.433 131.849 348.455C130.706 348.528 129.981 348.931 129.974 349.803ZM140.045 355.149C138.119 355.149 136.815 354.307 136.676 352.835H137.994C138.163 353.648 138.917 354.051 140.045 354.051C141.407 354.051 142.242 353.458 142.242 352.146V350.535H142.14C141.869 350.975 141.363 351.875 139.825 351.883C137.892 351.875 136.442 350.418 136.442 347.913C136.442 345.467 137.841 343.943 139.84 343.943C141.385 343.943 141.883 344.881 142.169 345.306H142.272V344.046H143.502V352.22C143.495 354.271 141.986 355.149 140.045 355.149ZM137.716 347.957C137.716 349.605 138.492 350.755 140.001 350.755C141.459 350.755 142.264 349.708 142.272 347.957C142.264 346.25 141.481 345.071 140.001 345.071C138.47 345.071 137.716 346.353 137.716 347.957ZM145.209 352V344.046H146.469V352H145.209ZM144.96 341.893C144.953 341.424 145.355 341.05 145.839 341.058C146.322 341.05 146.725 341.424 146.732 341.893C146.725 342.354 146.322 342.728 145.839 342.728C145.355 342.728 144.953 342.354 144.96 341.893ZM151.428 352.161C149.172 352.168 147.795 350.447 147.795 348.06C147.795 345.643 149.238 343.943 151.398 343.943C153.09 343.943 154.365 344.947 154.562 346.448H153.303C153.119 345.723 152.49 345.057 151.428 345.057C150.007 345.057 149.062 346.229 149.054 348.016C149.062 349.854 149.985 351.033 151.428 351.033C152.365 351.033 153.083 350.528 153.303 349.656H154.562C154.365 351.077 153.193 352.168 151.428 352.161ZM159.28 352V344.046H160.496V345.291H160.598C160.928 344.441 161.697 343.943 162.737 343.943C163.777 343.943 164.487 344.441 164.861 345.291H164.949C165.351 344.471 166.194 343.943 167.336 343.943C168.75 343.943 169.768 344.808 169.768 346.683V352H168.508V346.697C168.501 345.525 167.768 345.071 166.897 345.071C165.791 345.071 165.161 345.818 165.154 346.829V352H163.879V346.565C163.887 345.672 163.242 345.071 162.327 345.071C161.374 345.071 160.539 345.877 160.539 347.034V352H159.28ZM171.387 341.395L174.507 350.286H174.624L177.759 341.395H179.151L175.269 352H173.877L169.995 341.395H171.387ZM178.982 349.744C178.982 347.92 180.594 347.503 181.971 347.4C182.483 347.364 183.765 347.291 184.124 347.283V346.639C184.124 345.628 183.523 345.042 182.322 345.042C181.319 345.042 180.711 345.503 180.535 346.111H179.217C179.378 344.83 180.623 343.943 182.381 343.943C183.421 343.943 185.376 344.251 185.369 346.756V352H184.124V350.916H184.065C183.802 351.451 183.077 352.183 181.692 352.19C180.184 352.183 178.982 351.297 178.982 349.744ZM180.242 349.803C180.25 350.645 180.945 351.07 181.912 351.062C183.333 351.07 184.124 350.118 184.124 349.114V348.316C183.75 348.338 182.498 348.433 182.117 348.455C180.975 348.528 180.25 348.931 180.242 349.803ZM190.343 352.161C188.087 352.168 186.71 350.447 186.71 348.06C186.71 345.643 188.153 343.943 190.313 343.943C192.005 343.943 193.28 344.947 193.477 346.448H192.218C192.034 345.723 191.405 345.057 190.343 345.057C188.922 345.057 187.977 346.229 187.97 348.016C187.977 349.854 188.9 351.033 190.343 351.033C191.28 351.033 191.998 350.528 192.218 349.656H193.477C193.28 351.077 192.108 352.168 190.343 352.161ZM197.982 352.161C195.726 352.168 194.349 350.447 194.349 348.06C194.349 345.643 195.792 343.943 197.953 343.943C199.645 343.943 200.919 344.947 201.117 346.448H199.857C199.674 345.723 199.044 345.057 197.982 345.057C196.561 345.057 195.616 346.229 195.609 348.016C195.616 349.854 196.539 351.033 197.982 351.033C198.92 351.033 199.637 350.528 199.857 349.656H201.117C200.919 351.077 199.747 352.168 197.982 352.161ZM202.37 352V344.046H203.629V352H202.37ZM202.121 341.893C202.113 341.424 202.516 341.05 202.999 341.058C203.483 341.05 203.886 341.424 203.893 341.893C203.886 342.354 203.483 342.728 202.999 342.728C202.516 342.728 202.113 342.354 202.121 341.893ZM206.596 347.225V352H205.336V344.046H206.552V345.291H206.654C207.028 344.478 207.775 343.943 208.984 343.943C210.595 343.943 211.672 344.925 211.664 346.946V352H210.404V347.034C210.404 345.804 209.731 345.071 208.603 345.071C207.446 345.071 206.596 345.848 206.596 347.225ZM216.726 352.161C214.426 352.168 213.005 350.528 213.005 348.089C213.005 345.643 214.448 343.943 216.608 343.943C218.278 343.943 220.043 344.969 220.036 347.913V348.44H214.265C214.331 350.125 215.312 351.048 216.726 351.048C217.678 351.048 218.278 350.63 218.571 350.14H219.919C219.545 351.348 218.366 352.168 216.726 352.161ZM214.272 347.371H218.762C218.754 346.045 217.919 345.057 216.608 345.057C215.231 345.057 214.36 346.141 214.272 347.371ZM224.145 347.957C224.131 350.726 223.384 353.025 222.036 354.988H220.923C221.911 353.531 222.834 350.572 222.842 347.957C222.834 345.35 221.911 342.383 220.923 340.94H222.036C223.384 342.896 224.131 345.196 224.145 347.957ZM233.536 343.665C233.536 345.958 235.052 348.323 236.905 349.231L236.202 350.154C234.766 349.407 233.565 347.862 232.986 346.053C232.408 347.972 231.177 349.62 229.712 350.403L228.98 349.48C230.884 348.543 232.393 346.045 232.408 343.665V341.292H233.536V343.665ZM238.106 353.187V340.164H239.248V345.452H241.431V346.448H239.248V353.187H238.106ZM253.699 346.609V347.562H241.834V346.609H244.779V344.771C243.738 344.368 243.153 343.709 243.153 342.83C243.153 341.299 244.91 340.42 247.767 340.413C250.601 340.42 252.359 341.299 252.366 342.83C252.359 343.702 251.78 344.361 250.755 344.771V346.609H253.699ZM243.27 350.857C243.262 349.371 244.94 348.55 247.767 348.558C250.557 348.55 252.235 349.371 252.249 350.857C252.235 352.344 250.557 353.157 247.767 353.157C244.94 353.157 243.262 352.344 243.27 350.857ZM244.339 342.83C244.332 343.782 245.635 344.332 247.767 344.339C249.876 344.332 251.187 343.782 251.195 342.83C251.187 341.893 249.876 341.321 247.767 341.321C245.635 341.321 244.332 341.893 244.339 342.83ZM244.442 350.857C244.427 351.744 245.679 352.271 247.767 352.264C249.832 352.271 251.085 351.744 251.092 350.857C251.085 349.971 249.832 349.451 247.767 349.437C245.679 349.451 244.427 349.971 244.442 350.857ZM245.921 346.609H249.613V345.079C249.063 345.181 248.448 345.232 247.767 345.232C247.086 345.232 246.47 345.181 245.921 345.086V346.609ZM255.875 352.088C255.362 352.081 254.923 351.656 254.938 351.136C254.923 350.623 255.362 350.198 255.875 350.198C256.395 350.198 256.82 350.623 256.812 351.136C256.82 351.656 256.395 352.081 255.875 352.088ZM47.6475 361.896C49.3833 361.882 50.6284 363.098 50.6357 364.841C50.6284 366.577 49.3833 367.792 47.6475 367.785C45.897 367.792 44.6665 366.577 44.6738 364.841C44.6665 363.098 45.897 361.882 47.6475 361.896ZM45.7139 364.841C45.6992 365.998 46.5269 366.826 47.6475 366.833C48.7534 366.826 49.5737 365.998 49.5811 364.841C49.5737 363.669 48.7534 362.841 47.6475 362.834C46.5269 362.841 45.6992 363.669 45.7139 364.841ZM47.0029 374.011V368.854H48.1455V370.407H54.459V368.854H55.5869V374.011H47.0029ZM48.1455 373.073H54.459V371.359H48.1455V373.073ZM51.6758 368.166V361.428H52.7598V364.167H54.4883V361.179H55.5869V368.269H54.4883V365.134H52.7598V368.166H51.6758ZM72.5797 371.564V372.517H60.6559V371.564H66.0172V368.752H62.0621V362.087H63.2193V364.445H69.9869V362.087H71.1148V368.752H67.1451V371.564H72.5797ZM63.2193 367.814H69.9869V365.383H63.2193V367.814ZM83.5004 361.164V365.134H85.4633V366.101H83.5004V370.773H82.3578V361.164H83.5004ZM73.5688 365.295C73.5614 363.405 75.0409 362.094 76.9818 362.087C78.9374 362.094 80.3949 363.405 80.4096 365.295C80.3949 367.177 78.9374 368.503 76.9818 368.503C75.0409 368.503 73.5614 367.177 73.5688 365.295ZM74.6967 365.295C74.6894 366.577 75.6928 367.492 76.9818 367.492C78.2929 367.492 79.2743 366.577 79.2816 365.295C79.2743 364.006 78.2929 363.098 76.9818 363.098C75.6928 363.098 74.6894 364.006 74.6967 365.295ZM75.3559 373.908V369.777H76.4838V372.941H84.101V373.908H75.3559ZM96.2451 362.014V367.316H90.1367V362.014H96.2451ZM91.0742 373.249C93.3154 373 95.4688 371.733 95.4688 370.437H91.6162V369.543H95.4834V368.269H96.626V369.543H100.522V370.437H96.6553C96.6479 371.704 98.7427 372.971 100.977 373.249L100.581 374.143C98.6255 373.872 96.8384 372.949 96.062 371.748C95.2783 372.978 93.4473 373.872 91.4844 374.143L91.0742 373.249ZM91.2646 366.408H95.1172V362.951H91.2646V366.408ZM99.0576 368.649V361.164H100.186V368.649H99.0576ZM109.869 361.809C111.817 361.794 113.216 362.871 113.209 364.46C113.216 366.049 111.817 367.133 109.869 367.126C107.921 367.133 106.529 366.049 106.529 364.46C106.529 362.871 107.921 361.794 109.869 361.809ZM105.547 368.239C107.994 368.247 111.341 368.195 114.234 367.771L114.307 368.635C113.062 368.862 111.773 369.001 110.513 369.082V373.791H109.371V369.147C108.045 369.206 106.793 369.213 105.709 369.221L105.547 368.239ZM107.657 364.46C107.642 365.478 108.572 366.181 109.869 366.174C111.18 366.181 112.117 365.478 112.11 364.46C112.117 363.449 111.18 362.731 109.869 362.746C108.572 362.731 107.642 363.449 107.657 364.46ZM115.186 374.201V361.179H116.314V374.201H115.186ZM129.037 361.179V370.817H127.879V367.316H124.803V368.591H118.9V362.043H120.042V364.357H123.675V362.043H124.803V363.566H127.879V361.179H129.037ZM120.042 367.639H123.675V365.266H120.042V367.639ZM120.614 373.908V369.865H121.771V372.941H129.329V373.908H120.614ZM124.803 366.364H127.879V364.533H124.803V366.364ZM142.828 371.55V372.517H130.904V371.55H136.28V368.386H137.438V371.55H142.828ZM131.49 367.917C133.695 367.543 136.251 365.72 136.251 363.64V363.317H131.886V362.351H141.803V363.317H137.438V363.64C137.445 365.72 140.008 367.507 142.257 367.873L141.788 368.781C139.796 368.386 137.694 367.119 136.859 365.317C136.024 367.141 133.929 368.437 131.974 368.84L131.49 367.917ZM153.039 369.353C155.712 369.353 157.331 370.231 157.331 371.755C157.331 373.293 155.712 374.172 153.039 374.187C150.358 374.172 148.725 373.293 148.718 371.755C148.725 370.231 150.358 369.353 153.039 369.353ZM147.59 367.99V361.984H148.718V363.977H152.512V361.984H153.654V367.99H147.59ZM148.718 367.053H152.512V364.885H148.718V367.053ZM149.875 371.755C149.86 372.692 151.076 373.249 153.039 373.249C155.009 373.249 156.21 372.692 156.218 371.755C156.21 370.825 155.009 370.275 153.039 370.261C151.076 370.275 149.86 370.825 149.875 371.755ZM156.071 369.001V361.164H157.214V364.445H159.177V365.427H157.214V369.001H156.071ZM164.355 365.163C164.362 367.375 165.966 369.624 167.885 370.451L167.241 371.359C165.717 370.671 164.406 369.169 163.798 367.368C163.191 369.279 161.872 370.935 160.385 371.682L159.697 370.773C161.565 369.88 163.191 367.419 163.198 365.163V363.464H160.122V362.512H167.461V363.464H164.355V365.163ZM169.277 374.187V361.164H170.434V374.187H169.277Z" fill="#777777"/>
<path d="M27.472 433.472V428.32H28.528V433.472H27.472ZM28 427.584C27.7867 427.584 27.6267 427.531 27.52 427.424C27.4133 427.317 27.36 427.163 27.36 426.96C27.36 426.747 27.4133 426.592 27.52 426.496C27.6267 426.389 27.7867 426.336 28 426.336C28.1707 426.336 28.3147 426.389 28.432 426.496C28.56 426.592 28.624 426.747 28.624 426.96C28.624 427.173 28.56 427.333 28.432 427.44C28.3147 427.536 28.1707 427.584 28 427.584ZM28 436.88C27.0933 436.88 26.24 436.709 25.44 436.368C24.64 436.027 23.936 435.557 23.328 434.96C22.7307 434.352 22.2613 433.648 21.92 432.848C21.5787 432.048 21.408 431.195 21.408 430.288C21.408 429.371 21.5787 428.517 21.92 427.728C22.2613 426.928 22.7307 426.229 23.328 425.632C23.936 425.024 24.64 424.549 25.44 424.208C26.24 423.867 27.0933 423.696 28 423.696C28.9173 423.696 29.7707 423.867 30.56 424.208C31.36 424.549 32.0587 425.024 32.656 425.632C33.264 426.229 33.7387 426.928 34.08 427.728C34.4213 428.517 34.592 429.371 34.592 430.288C34.592 431.195 34.4213 432.048 34.08 432.848C33.7387 433.648 33.264 434.352 32.656 434.96C32.0587 435.557 31.36 436.027 30.56 436.368C29.7707 436.709 28.9173 436.88 28 436.88ZM28 435.984C28.7893 435.984 29.5253 435.84 30.208 435.552C30.9013 435.253 31.5093 434.843 32.032 434.32C32.5547 433.797 32.96 433.195 33.248 432.512C33.5467 431.819 33.696 431.077 33.696 430.288C33.696 429.499 33.5467 428.763 33.248 428.08C32.96 427.387 32.5547 426.779 32.032 426.256C31.5093 425.733 30.9013 425.328 30.208 425.04C29.5253 424.741 28.7893 424.592 28 424.592C27.2107 424.592 26.4693 424.741 25.776 425.04C25.0933 425.328 24.4907 425.733 23.968 426.256C23.4453 426.779 23.0347 427.387 22.736 428.08C22.448 428.763 22.304 429.499 22.304 430.288C22.304 431.077 22.448 431.819 22.736 432.512C23.0347 433.195 23.4453 433.797 23.968 434.32C24.4907 434.843 25.0933 435.253 25.776 435.552C26.4693 435.84 27.2107 435.984 28 435.984ZM51.4225 423.375V430.594H50.1881V423.375H51.4225ZM40.1725 429.078C40.7272 429.078 41.3288 429.07 41.9538 429.062V425.312H40.5631V424.328H48.0788V425.312H46.6725V428.875C47.3913 428.82 48.0944 428.75 48.7663 428.672L48.8288 429.578C46.0475 429.992 42.7819 430.102 40.3288 430.094L40.1725 429.078ZM42.3288 432.25V431.266H51.4225V434.578H43.5788V436.109H51.9538V437.109H42.3756V433.656H50.2038V432.25H42.3288ZM43.1413 429.039C43.9069 429.016 44.6959 428.992 45.485 428.945V425.312H43.1413V429.039ZM60.415 424.672C60.4228 426.633 62.9697 428.32 65.4775 428.672L64.9775 429.672C62.8213 429.312 60.6806 428.117 59.79 426.414C58.8994 428.133 56.7666 429.312 54.6025 429.672L54.1025 428.672C56.6103 428.32 59.1494 426.664 59.1494 424.672V423.875H60.415V424.672ZM53.4463 432.234V431.203H66.1025V432.234H60.3525V437.266H59.1494V432.234H53.4463ZM71.7825 425.938C71.7825 427.742 73.1731 429.469 75.2044 430.172L74.5638 431.141C73.0013 430.578 71.7903 429.414 71.1966 427.984C70.595 429.578 69.3059 430.859 67.6575 431.469L67.0169 430.5C69.0638 429.766 70.5481 427.914 70.5481 425.953V425.344H67.4075V424.344H74.8919V425.344H71.7825V425.938ZM69.1263 433.453V432.438H78.47V437.266H77.2356V433.453H69.1263ZM74.4544 428.047V427.016H77.2356V423.375H78.47V431.703H77.2356V428.047H74.4544ZM95.6581 423.375V430.922H94.4394V427.781H91.6269V426.75H94.4394V423.375H95.6581ZM84.2206 430.188C86.2675 429.445 87.7519 427.609 87.7519 425.641V425.234H84.6113V424.219H92.0956V425.234H88.9863V425.641C88.9863 427.422 90.3769 429.172 92.4081 429.875L91.7675 430.828C90.205 430.258 88.9941 429.094 88.3925 427.672C87.7988 429.266 86.5097 430.555 84.8613 431.156L84.2206 430.188ZM86.7206 437.078V431.594H87.955V433.328H94.4394V431.594H95.6581V437.078H86.7206ZM87.955 436.078H94.4394V434.312H87.955V436.078ZM108.713 424.219V425.297C108.713 426.469 108.713 427.875 108.346 429.766H110.385V430.797H97.6663V429.766H107.127C107.502 427.844 107.502 426.477 107.494 425.297V425.219H99.2756V424.219H108.713ZM99.3538 436.953V432.359H100.573V435.922H109.135V436.953H99.3538ZM126.37 423.391V433.891H125.12V431.938H122.058V430.938H125.12V423.391H126.37ZM114.776 428.891C116.565 428.883 118.808 428.867 121.011 428.719C121.284 427.188 121.331 426.031 121.339 425.234H116.026V424.234H122.558V424.781C122.565 425.547 122.565 426.844 122.268 428.617C122.808 428.57 123.339 428.508 123.854 428.438L123.948 429.328C122.651 429.547 121.292 429.68 119.964 429.766V432.969H118.745V429.828C117.378 429.891 116.073 429.906 114.948 429.906L114.776 428.891ZM116.854 436.969V432.719H118.089V435.938H126.714V436.969H116.854ZM139.238 423.391V427.969H141.331V429H139.238V433.797H138.019V423.391H139.238ZM128.409 426.094V425.094H131.941V423.391H133.159V425.094H136.691V426.094H128.409ZM129.206 429.453C129.198 427.875 130.542 426.859 132.55 426.859C134.534 426.859 135.878 427.875 135.894 429.453C135.878 431.016 134.534 432.023 132.55 432.016C130.542 432.023 129.198 431.016 129.206 429.453ZM130.378 429.453C130.37 430.43 131.238 431.062 132.55 431.047C133.847 431.062 134.722 430.43 134.738 429.453C134.722 428.461 133.847 427.82 132.55 427.828C131.238 427.82 130.37 428.461 130.378 429.453ZM130.55 436.969V432.969H131.753V435.938H139.878V436.969H130.55ZM154.543 430.703V431.703H141.886V430.703H154.543ZM143.293 426.625C143.293 424.883 145.199 423.859 148.214 423.875C151.199 423.859 153.113 424.883 153.121 426.625C153.113 428.352 151.199 429.391 148.214 429.391C145.199 429.391 143.293 428.352 143.293 426.625ZM143.527 436.969V432.922H144.761V435.938H153.136V436.969H143.527ZM144.558 426.625C144.55 427.727 145.972 428.391 148.214 428.391C150.441 428.391 151.863 427.727 151.871 426.625C151.863 425.539 150.441 424.859 148.214 424.859C145.972 424.859 144.55 425.539 144.558 426.625ZM169.949 423.391V427.594H172.043V428.625H169.949V433.594H168.731V423.391H169.949ZM159.684 431.25V424.391H160.887V426.734H164.934V424.391H166.152V431.25H159.684ZM160.887 430.25H164.934V427.703H160.887V430.25ZM161.262 436.969V432.594H162.465V435.938H170.59V436.969H161.262ZM183.817 430.062V431.078H174.223V424.672H183.676V425.688H175.442V430.062H183.817ZM172.598 435.375V434.344H185.317V435.375H172.598ZM191.044 427.109C191.036 429.648 192.762 432.195 194.809 433.125L194.059 434.094C192.473 433.328 191.106 431.68 190.442 429.703C189.802 431.797 188.434 433.555 186.809 434.375L186.028 433.344C188.098 432.398 189.809 429.742 189.825 427.109V424.578H191.044V427.109ZM196.325 437.297V423.375H197.559V437.297H196.325ZM214.794 423.375V430.594H213.56V423.375H214.794ZM203.544 429.078C204.099 429.078 204.701 429.07 205.326 429.062V425.312H203.935V424.328H211.451V425.312H210.044V428.875C210.763 428.82 211.466 428.75 212.138 428.672L212.201 429.578C209.419 429.992 206.154 430.102 203.701 430.094L203.544 429.078ZM205.701 432.25V431.266H214.794V434.578H206.951V436.109H215.326V437.109H205.747V433.656H213.576V432.25H205.701ZM206.513 429.039C207.279 429.016 208.068 428.992 208.857 428.945V425.312H206.513V429.039ZM229.537 434.453V435.484H216.818V434.453H219.974V430.711C218.787 430.094 218.068 429.094 218.068 427.828C218.068 425.68 220.178 424.266 223.146 424.25C226.115 424.266 228.224 425.68 228.224 427.828C228.224 429.07 227.529 430.055 226.381 430.672V434.453H229.537ZM219.256 427.828C219.248 429.383 220.865 430.422 223.146 430.422C225.404 430.422 227.037 429.383 227.037 427.828C227.037 426.273 225.404 425.25 223.146 425.266C220.865 425.25 219.248 426.273 219.256 427.828ZM221.178 434.453H225.146V431.148C224.545 431.305 223.873 431.391 223.146 431.391C222.435 431.391 221.771 431.312 221.178 431.156V434.453ZM241.186 423.391V427.969H243.279V429H241.186V433.797H239.967V423.391H241.186ZM230.357 426.094V425.094H233.889V423.391H235.107V425.094H238.639V426.094H230.357ZM231.154 429.453C231.147 427.875 232.49 426.859 234.498 426.859C236.482 426.859 237.826 427.875 237.842 429.453C237.826 431.016 236.482 432.023 234.498 432.016C232.49 432.023 231.147 431.016 231.154 429.453ZM232.326 429.453C232.318 430.43 233.186 431.062 234.498 431.047C235.795 431.062 236.67 430.43 236.686 429.453C236.67 428.461 235.795 427.82 234.498 427.828C233.186 427.82 232.318 428.461 232.326 429.453ZM232.498 436.969V432.969H233.701V435.938H241.826V436.969H232.498ZM259.014 423.375V437.266H257.78V423.375H259.014ZM247.702 433.656C251.46 431.875 253.382 429.211 253.655 425.891H248.342V424.891H254.905C254.889 428.883 253.03 432.422 248.374 434.656L247.702 433.656ZM272.257 427.266V428.281H262.773V423.656H263.991V427.266H272.257ZM261.038 430.922V429.906H273.71V430.922H261.038ZM262.569 434.688C262.562 433.07 264.366 432.164 267.366 432.172C270.343 432.164 272.132 433.07 272.148 434.688C272.132 436.297 270.343 437.203 267.366 437.203C264.366 437.203 262.562 436.297 262.569 434.688ZM263.819 434.688C263.804 435.656 265.14 436.242 267.366 436.25C269.569 436.242 270.905 435.656 270.913 434.688C270.905 433.703 269.569 433.148 267.366 433.141C265.14 433.148 263.804 433.703 263.819 434.688ZM286.015 423.375V430.828H284.796V423.375H286.015ZM274.874 427.25C274.867 425.352 276.406 424.047 278.515 424.062C280.624 424.047 282.148 425.352 282.156 427.25C282.148 429.141 280.624 430.445 278.515 430.438C276.406 430.445 274.867 429.141 274.874 427.25ZM276.077 427.25C276.062 428.516 277.085 429.414 278.515 429.422C279.929 429.414 280.952 428.516 280.952 427.25C280.952 425.977 279.929 425.086 278.515 425.094C277.085 425.086 276.062 425.977 276.077 427.25ZM277.015 437.078V431.531H278.234V433.219H284.796V431.531H286.015V437.078H277.015ZM278.234 436.078H284.796V434.203H278.234V436.078ZM299.508 423.375V437.266H298.289V423.375H299.508ZM288.961 433.688V424.75H290.164V432.625C292.289 432.609 294.476 432.445 296.804 431.953L296.976 433C294.508 433.516 292.312 433.688 290.086 433.688H288.961ZM312.312 423.375V428.875H314.641V429.906H312.312V437.297H311.094V423.375H312.312ZM302.172 433.812V424.734H308.656V425.75H303.391V432.781C305.906 432.773 307.68 432.664 309.75 432.281L309.906 433.344C307.727 433.734 305.906 433.812 303.266 433.812H302.172ZM316.539 436.094C315.992 436.086 315.524 435.633 315.539 435.078C315.524 434.531 315.992 434.078 316.539 434.078C317.094 434.078 317.547 434.531 317.539 435.078C317.547 435.633 317.094 436.086 316.539 436.094ZM41.9469 447.609V448.938H48.8219V447.609H50.0406V452.172H40.7281V447.609H41.9469ZM39.0406 454.344V453.328H51.6969V454.344H45.9625V455.703H50.0719V458.781H41.8219V460.141H50.4937V461.109H40.6031V457.875H48.8687V456.641H40.5719V455.703H44.7437V454.344H39.0406ZM41.9469 451.219H48.8219V449.875H41.9469V451.219ZM60.8144 449.609V450.625H52.5487V449.609H56.0644V447.547H57.2831V449.609H60.8144ZM53.4081 454.969C53.4081 453.102 54.7909 451.781 56.6894 451.781C58.5722 451.781 59.9394 453.102 59.955 454.969C59.9394 456.82 58.5722 458.156 56.6894 458.156C54.7909 458.156 53.4081 456.82 53.4081 454.969ZM54.5644 454.969C54.5487 456.219 55.4706 457.102 56.6894 457.094C57.9081 457.102 58.8222 456.219 58.83 454.969C58.8222 453.734 57.9081 452.836 56.6894 452.828C55.4706 452.836 54.5487 453.734 54.5644 454.969ZM60.5175 454.25V453.219H62.8456V447.375H64.0644V461.266H62.8456V454.25H60.5175ZM70.9944 451.109C70.9866 453.648 72.7131 456.195 74.76 457.125L74.01 458.094C72.4241 457.328 71.0569 455.68 70.3928 453.703C69.7522 455.797 68.385 457.555 66.76 458.375L65.9787 457.344C68.0491 456.398 69.76 453.742 69.7756 451.109V448.578H70.9944V451.109ZM76.2756 461.297V447.375H77.51V461.297H76.2756ZM91.4712 447.375V461.266H90.2837V447.375H91.4712ZM79.7369 453.375C79.7447 450.422 80.9166 448.555 82.7212 448.547C84.4087 448.555 85.5494 450.18 85.7056 452.797H87.5025V447.672H88.6744V460.562H87.5025V453.812H85.7134C85.5962 456.516 84.4322 458.211 82.7212 458.203C80.9166 458.211 79.7447 456.328 79.7369 453.375ZM80.8931 453.375C80.8775 455.625 81.5962 457.047 82.7212 457.031C83.8541 457.047 84.5728 455.625 84.565 453.375C84.5728 451.117 83.8541 449.703 82.7212 449.703C81.5962 449.703 80.8775 451.117 80.8931 453.375ZM104.308 451.594V452.578H94.7919V447.891H96.0106V451.594H104.308ZM93.0575 455.469V454.469H105.776V455.469H93.0575ZM94.7138 460.922V456.891H95.9325V459.906H104.386V460.922H94.7138ZM115.168 451.109C115.16 453.625 116.777 456.156 118.793 457.078L118.058 458.078C116.48 457.266 115.175 455.609 114.558 453.633C113.941 455.711 112.636 457.492 111.058 458.328L110.261 457.344C112.3 456.344 113.91 453.672 113.918 451.109V448.578H115.168V451.109ZM117.277 453.125V452.125H120.574V447.375H121.793V461.297H120.574V453.125H117.277ZM135.238 447.375V461.297H134.004V447.375H135.238ZM124.598 457.938V448.562H125.816V452.234H129.957V448.562H131.16V457.938H124.598ZM125.816 456.906H129.957V453.219H125.816V456.906ZM144.215 449.422C144.223 451.805 146.942 453.922 149.356 454.375L148.793 455.406C146.692 454.922 144.488 453.43 143.59 451.391C142.684 453.43 140.488 454.914 138.387 455.406L137.824 454.375C140.231 453.914 142.926 451.812 142.934 449.422V448.359H144.215V449.422ZM137.293 459.375V458.359H150.012V459.375H137.293ZM165.95 447.375V461.297H164.716V447.375H165.95ZM155.012 453.297C155.02 450.344 156.489 448.461 158.559 448.453C160.622 448.461 162.114 450.344 162.106 453.297C162.114 456.258 160.622 458.133 158.559 458.125C156.489 458.133 155.02 456.258 155.012 453.297ZM156.2 453.297C156.2 455.555 157.169 457.039 158.559 457.031C159.958 457.039 160.919 455.555 160.919 453.297C160.919 451.039 159.958 449.555 158.559 449.547C157.169 449.555 156.2 451.039 156.2 453.297ZM180.661 454.25V455.266H168.005V454.25H171.146V452.289C170.036 451.859 169.411 451.156 169.411 450.219C169.411 448.586 171.286 447.648 174.333 447.641C177.357 447.648 179.232 448.586 179.239 450.219C179.232 451.148 178.614 451.852 177.521 452.289V454.25H180.661ZM169.536 458.781C169.528 457.195 171.318 456.32 174.333 456.328C177.31 456.32 179.099 457.195 179.114 458.781C179.099 460.367 177.31 461.234 174.333 461.234C171.318 461.234 169.528 460.367 169.536 458.781ZM170.677 450.219C170.669 451.234 172.06 451.82 174.333 451.828C176.583 451.82 177.982 451.234 177.989 450.219C177.982 449.219 176.583 448.609 174.333 448.609C172.06 448.609 170.669 449.219 170.677 450.219ZM170.786 458.781C170.771 459.727 172.107 460.289 174.333 460.281C176.536 460.289 177.872 459.727 177.88 458.781C177.872 457.836 176.536 457.281 174.333 457.266C172.107 457.281 170.771 457.836 170.786 458.781ZM172.364 454.25H176.302V452.617C175.716 452.727 175.06 452.781 174.333 452.781C173.607 452.781 172.95 452.727 172.364 452.625V454.25ZM187.841 447.625C190.927 447.625 192.74 448.477 192.747 450.016C192.74 451.594 190.927 452.445 187.841 452.453C184.74 452.445 182.919 451.594 182.919 450.016C182.919 448.477 184.74 447.625 187.841 447.625ZM181.513 454.391V453.391H194.169V454.391H181.513ZM183.044 456.531V455.594H192.544V458.703H184.294V460.141H192.966V461.109H183.076V457.797H191.341V456.531H183.044ZM184.201 450.016C184.185 450.984 185.537 451.516 187.841 451.516C190.146 451.516 191.49 450.984 191.497 450.016C191.49 449.102 190.146 448.555 187.841 448.547C185.537 448.555 184.185 449.102 184.201 450.016ZM209.576 447.328V450.703H211.686V451.719H209.576V455.016H208.357V447.328H209.576ZM198.748 449.625V448.641H202.279V447.234H203.498V448.641H207.029V449.625H198.748ZM199.545 452.531C199.537 451.125 200.865 450.258 202.889 450.25C204.904 450.258 206.217 451.125 206.232 452.531C206.217 453.945 204.904 454.805 202.889 454.812C200.865 454.805 199.537 453.945 199.545 452.531ZM200.717 456.656V455.734H209.576V458.812H201.951V460.172H210.092V461.109H200.748V457.906H208.357V456.656H200.717ZM200.717 452.531C200.709 453.367 201.568 453.891 202.889 453.891C204.201 453.891 205.061 453.367 205.076 452.531C205.061 451.703 204.201 451.164 202.889 451.156C201.568 451.164 200.709 451.703 200.717 452.531ZM222.889 448.672C222.897 450.633 225.444 452.32 227.952 452.672L227.452 453.672C225.296 453.312 223.155 452.117 222.264 450.414C221.374 452.133 219.241 453.312 217.077 453.672L216.577 452.672C219.085 452.32 221.624 450.664 221.624 448.672V447.875H222.889V448.672ZM215.921 456.234V455.203H228.577V456.234H222.827V461.266H221.624V456.234H215.921ZM235.89 455.531V457.266H238.421V455.531H239.562V461.078H234.734V455.531H235.89ZM233.343 451.188C233.335 449.289 234.835 448 236.952 448C238.82 448 240.234 449.055 240.499 450.656H243.406V447.375H244.64V454.734H243.406V451.672H240.507C240.265 453.312 238.835 454.391 236.952 454.391C234.835 454.391 233.335 453.094 233.343 451.188ZM234.515 451.188C234.515 452.461 235.523 453.367 236.952 453.375C238.351 453.367 239.359 452.461 239.359 451.188C239.359 449.922 238.351 449.031 236.952 449.031C235.523 449.031 234.515 449.922 234.515 451.188ZM235.89 460.109H238.421V458.203H235.89V460.109ZM239.749 460.25C241.421 459.555 242.304 458.031 242.312 456.625V455.438H243.531V456.625C243.515 458.086 244.398 459.625 246.093 460.25L245.452 461.188C244.171 460.68 243.335 459.695 242.906 458.547C242.468 459.68 241.617 460.664 240.39 461.188L239.749 460.25ZM249.461 455.719V457.344H256.398V455.719H257.633V461.078H248.242V455.719H249.461ZM246.633 454.734V453.719H259.289V454.734H246.633ZM247.351 451.75C249.828 451.414 252.336 449.953 252.336 448.188V447.531H253.601V448.188C253.593 449.898 256.125 451.438 258.57 451.75L258.117 452.734C255.968 452.414 253.851 451.32 252.968 449.766C252.086 451.328 249.961 452.414 247.82 452.734L247.351 451.75ZM249.461 460.094H256.398V458.312H249.461V460.094ZM271.594 447.375V461.266H270.375V447.375H271.594ZM261.047 457.688V448.75H262.25V456.625C264.375 456.609 266.562 456.445 268.891 455.953L269.062 457C266.594 457.516 264.398 457.688 262.172 457.688H261.047ZM284.399 447.375V452.875H286.727V453.906H284.399V461.297H283.18V447.375H284.399ZM274.258 457.812V448.734H280.742V449.75H275.477V456.781C277.992 456.773 279.766 456.664 281.836 456.281L281.992 457.344C279.813 457.734 277.992 457.812 275.352 457.812H274.258ZM288.626 460.094C288.079 460.086 287.61 459.633 287.626 459.078C287.61 458.531 288.079 458.078 288.626 458.078C289.18 458.078 289.633 458.531 289.626 459.078C289.633 459.633 289.18 460.086 288.626 460.094Z" fill="#777777"/>
</svg>
