<svg width="400" height="727" viewBox="0 0 400 727" fill="none" xmlns="http://www.w3.org/2000/svg">
<rect width="400" height="727" fill="white"/>
<g clip-path="url(#clip0_263_980)">
<circle cx="200" cy="175" r="55" fill="#F2F3F7"/>
<path d="M193.091 181.457L213.156 161.275C213.779 160.648 214.573 160.334 215.537 160.334C216.5 160.334 217.294 160.648 217.917 161.275C218.541 161.902 218.852 162.7 218.852 163.669C218.852 164.638 218.541 165.437 217.917 166.064L195.472 188.641C194.792 189.325 193.998 189.667 193.091 189.667C192.185 189.667 191.391 189.325 190.711 188.641L181.869 179.747C181.245 179.12 180.934 178.322 180.934 177.352C180.934 176.383 181.245 175.585 181.869 174.958C182.492 174.331 183.286 174.017 184.249 174.017C185.213 174.017 186.006 174.331 186.63 174.958L193.091 181.457Z" fill="#EF403C"/>
</g>
<path d="M111.163 277.922V293.227H108.538V277.922H111.163ZM93.89 284.602C93.89 281.52 96.3861 279.316 99.6087 279.305C102.831 279.316 105.316 281.52 105.304 284.602C105.316 287.73 102.831 289.922 99.6087 289.922C96.3861 289.922 93.89 287.73 93.89 284.602ZM96.4447 284.602C96.433 286.477 97.7923 287.648 99.6087 287.648C101.378 287.648 102.749 286.477 102.749 284.602C102.749 282.773 101.378 281.578 99.6087 281.578C97.7923 281.578 96.433 282.773 96.4447 284.602ZM97.1478 298.664V291.68H99.7728V296.555H111.749V298.664H97.1478ZM133.09 287.766V289.875H113.777V287.766H133.09ZM114.715 284.766C118.64 284.379 121.195 282.809 121.594 281.039H115.535V278.906H131.355V281.039H125.238C125.625 282.785 128.156 284.379 132.176 284.766L131.262 286.828C127.406 286.43 124.558 284.895 123.41 282.75C122.262 284.895 119.449 286.43 115.605 286.828L114.715 284.766ZM116.027 295.172C116.027 292.711 118.805 291.281 123.41 291.281C127.98 291.281 130.734 292.711 130.746 295.172C130.734 297.668 127.98 299.062 123.41 299.062C118.805 299.062 116.027 297.668 116.027 295.172ZM118.676 295.172C118.664 296.402 120.328 297.012 123.41 297.023C126.445 297.012 128.121 296.402 128.144 295.172C128.121 293.941 126.445 293.32 123.41 293.32C120.328 293.32 118.664 293.941 118.676 295.172ZM151.664 277.898V299.109H149.039V277.898H151.664ZM134.719 286.922C134.707 282.352 137.039 279.445 140.25 279.445C143.426 279.445 145.77 282.352 145.782 286.922C145.77 291.527 143.426 294.422 140.25 294.422C137.039 294.422 134.707 291.527 134.719 286.922ZM137.227 286.922C137.227 290.18 138.457 292.066 140.25 292.078C142.032 292.066 143.25 290.18 143.25 286.922C143.25 283.688 142.032 281.789 140.25 281.789C138.457 281.789 137.227 283.688 137.227 286.922ZM165.915 278.812C169.009 278.812 171.212 280.535 171.236 283.078C171.212 285.188 169.63 286.77 167.275 287.203V288.914C169.044 288.809 170.814 288.656 172.454 288.422L172.665 290.32C168.259 291.105 163.337 291.199 159.751 291.188L159.47 289.102C160.993 289.102 162.775 289.09 164.65 289.031V287.215C162.224 286.805 160.607 285.223 160.618 283.078C160.607 280.535 162.81 278.812 165.915 278.812ZM162.376 298.641V292.664H164.978V296.531H177.048V298.641H162.376ZM163.056 283.078C163.033 284.473 164.228 285.34 165.915 285.352C167.615 285.34 168.763 284.473 168.775 283.078C168.763 281.648 167.615 280.805 165.915 280.805C164.228 280.805 163.033 281.648 163.056 283.078ZM173.697 294.094V277.922H176.298V284.766H179.158V286.922H176.298V294.094H173.697ZM199.138 294.469V296.625H179.779V294.469H184.912V290.977H182.076V284.062H194.263V281.461H182.029V279.352H196.842V286.148H184.677V288.867H197.334V290.977H194.24V294.469H199.138ZM187.443 294.469H191.685V290.977H187.443V294.469ZM212.651 286.688V288.797H208.362V292.488C210.213 292.418 212.065 292.289 213.823 292.102L214.033 294.023C209.369 294.715 204.459 294.762 200.463 294.773L200.135 292.617C201.881 292.629 203.791 292.617 205.76 292.582V288.797H201.612V279.844H212.557V281.906H204.19V286.688H212.651ZM215.088 299.109V277.898H217.69V299.109H215.088ZM228.061 291.633C228.038 293.426 228.846 295.277 230.675 296.473C232.514 295.195 233.335 293.238 233.358 291.633V290.648H235.913V291.633C235.901 293.848 237.202 295.969 240.038 296.859L238.725 298.805C236.663 298.078 235.315 296.719 234.589 295.008C233.885 296.684 232.632 298.184 230.686 298.969C228.717 298.23 227.452 296.801 226.772 295.102C226.01 296.73 224.675 298.078 222.717 298.805L221.452 296.859C224.194 295.922 225.518 293.73 225.53 291.633V290.648H228.061V291.633ZM220.585 284.062C220.585 281.133 222.975 279.023 226.186 279.023C228.893 279.023 231.073 280.617 231.612 282.961H235.444V277.898H238.046V289.852H235.444V285.07H231.635C231.143 287.484 228.94 289.113 226.186 289.102C222.975 289.113 220.585 287.016 220.585 284.062ZM223.092 284.062C223.081 285.785 224.393 286.934 226.186 286.945C227.932 286.934 229.233 285.785 229.233 284.062C229.233 282.316 227.932 281.203 226.186 281.203C224.393 281.203 223.081 282.316 223.092 284.062ZM245.464 290.602V292.617H254.792V290.602H257.394V298.828H242.886V290.602H245.464ZM240.566 289.406V287.273H259.878V289.406H240.566ZM241.55 284.109C245.98 283.559 248.874 281.285 248.886 278.93V278.133H251.558V278.93C251.558 281.215 254.464 283.594 258.847 284.109L257.933 286.172C254.382 285.691 251.581 284.109 250.222 281.965C248.851 284.121 246.038 285.691 242.511 286.172L241.55 284.109ZM245.464 296.766H254.792V294.609H245.464V296.766ZM278.5 277.898V299.086H275.922V277.898H278.5ZM262.047 293.766V279.961H264.625V291.539C267.59 291.492 270.754 291.234 274.023 290.578L274.351 292.758C270.625 293.531 267.168 293.777 263.875 293.766H262.047ZM297.684 277.898V285.938H300.942V288.07H297.684V299.109H295.082V277.898H297.684ZM281.957 293.93V279.914H291.871V282.023H284.559V291.75C287.852 291.738 290.465 291.574 293.371 291.07L293.676 293.273C290.383 293.836 287.535 293.93 283.715 293.93H281.957ZM303.93 297.188C302.922 297.188 302.09 296.367 302.102 295.359C302.09 294.375 302.922 293.566 303.93 293.555C304.903 293.566 305.735 294.375 305.735 295.359C305.735 296.367 304.903 297.188 303.93 297.188Z" fill="#222222"/>
<path d="M101.124 321.522C101.109 323.251 102.391 324.804 104.332 325.448L103.746 326.371C102.259 325.858 101.117 324.796 100.56 323.471C99.996 324.943 98.8021 326.107 97.2567 326.679L96.6562 325.741C98.619 325.075 99.9594 323.405 99.9667 321.537V321.024H97.0077V320.087H104.024V321.024H101.124V321.522ZM98.6776 332.011V327.44H106.895V332.011H98.6776ZM99.8056 331.073H105.753V328.363H99.8056V331.073ZM105.753 326.84V319.164H106.895V322.416H108.858V323.383H106.895V326.84H105.753ZM114.008 322.665C114 325.045 115.619 327.433 117.538 328.305L116.835 329.213C115.348 328.495 114.066 326.95 113.444 325.097C112.843 327.06 111.561 328.708 110.038 329.477L109.305 328.51C111.246 327.624 112.85 325.133 112.865 322.665V320.292H114.008V322.665ZM118.959 332.216V319.164H120.116V332.216H118.959ZM136.684 320.658V321.61H126.122V320.658H130.868V319.091H131.996V320.658H136.684ZM125.507 328.554V327.602H137.431V328.554H131.996V332.216H130.868V328.554H125.507ZM127.192 324.54C127.177 323.134 128.774 322.357 131.44 322.357C134.084 322.357 135.68 323.134 135.688 324.54C135.68 325.917 134.084 326.693 131.44 326.708C128.774 326.693 127.177 325.917 127.192 324.54ZM128.378 324.54C128.364 325.346 129.499 325.822 131.44 325.814C133.359 325.822 134.487 325.346 134.501 324.54C134.487 323.72 133.359 323.244 131.44 323.236C129.499 323.244 128.364 323.72 128.378 324.54ZM146.221 322.665C146.213 325.023 147.729 327.396 149.619 328.261L148.931 329.198C147.451 328.437 146.228 326.884 145.649 325.031C145.071 326.979 143.848 328.649 142.368 329.433L141.621 328.51C143.533 327.572 145.041 325.067 145.049 322.665V320.292H146.221V322.665ZM148.198 324.555V323.617H151.289V319.164H152.432V332.216H151.289V324.555H148.198ZM165.037 319.164V332.216H163.88V319.164H165.037ZM155.061 329.066V320.277H156.204V323.72H160.086V320.277H161.214V329.066H155.061ZM156.204 328.1H160.086V324.643H156.204V328.1ZM173.453 321.083C173.46 323.317 176.009 325.302 178.272 325.727L177.745 326.693C175.774 326.239 173.709 324.84 172.867 322.929C172.017 324.84 169.959 326.232 167.989 326.693L167.461 325.727C169.717 325.294 172.244 323.324 172.251 321.083V320.087H173.453V321.083ZM166.963 330.414V329.462H178.887V330.414H166.963ZM194.298 319.164V332.187H193.185V319.164H194.298ZM182.945 327.982C183.348 327.982 183.817 327.982 184.322 327.975V321.786H183.224V320.834H189.215V321.786H188.116V327.821C188.607 327.777 189.076 327.733 189.508 327.675L189.581 328.524C187.523 328.905 184.791 328.971 183.092 328.964L182.945 327.982ZM185.377 327.953C185.919 327.938 186.49 327.917 187.047 327.887V321.786H185.377V327.953ZM188.834 325.155V324.115H190.65V319.486H191.749V331.498H190.65V325.155H188.834ZM206.493 319.164V332.216H205.336V319.164H206.493ZM196.239 324.716C196.246 321.947 197.623 320.182 199.564 320.175C201.498 320.182 202.897 321.947 202.89 324.716C202.897 327.492 201.498 329.25 199.564 329.242C197.623 329.25 196.246 327.492 196.239 324.716ZM197.352 324.716C197.352 326.833 198.261 328.224 199.564 328.217C200.875 328.224 201.776 326.833 201.776 324.716C201.776 322.599 200.875 321.208 199.564 321.2C198.261 321.208 197.352 322.599 197.352 324.716ZM213.078 323.163C213.085 325.375 214.689 327.624 216.608 328.451L215.964 329.359C214.44 328.671 213.129 327.169 212.521 325.368C211.913 327.279 210.595 328.935 209.108 329.682L208.42 328.773C210.287 327.88 211.913 325.419 211.921 323.163V321.464H208.844V320.512H216.183V321.464H213.078V323.163ZM218 332.187V319.164H219.157V332.187H218ZM233.007 329.608V330.575H221.083V329.608H226.445V327.147H222.578V323.134H230.371V321.083H222.548V320.131H231.499V324.071H223.72V326.195H231.806V327.147H227.573V329.608H233.007ZM247.949 319.164V332.216H246.792V319.164H247.949ZM237.695 324.716C237.703 321.947 239.08 320.182 241.021 320.175C242.954 320.182 244.353 321.947 244.346 324.716C244.353 327.492 242.954 329.25 241.021 329.242C239.08 329.25 237.703 327.492 237.695 324.716ZM238.809 324.716C238.809 326.833 239.717 328.224 241.021 328.217C242.332 328.224 243.233 326.833 243.233 324.716C243.233 322.599 242.332 321.208 241.021 321.2C239.717 321.208 238.809 322.599 238.809 324.716ZM261.756 325.609V326.532H249.876V325.609H255.252V324.086H251.385V319.779H260.276V320.702H252.513V323.148H260.364V324.086H256.365V325.609H261.756ZM251.311 329.828C251.304 328.341 252.996 327.492 255.809 327.484C258.599 327.492 260.276 328.341 260.291 329.828C260.276 331.33 258.599 332.172 255.809 332.187C252.996 332.172 251.304 331.33 251.311 329.828ZM252.483 329.828C252.469 330.744 253.721 331.271 255.809 331.264C257.874 331.271 259.126 330.744 259.134 329.828C259.126 328.927 257.874 328.393 255.809 328.393C253.721 328.393 252.469 328.927 252.483 329.828ZM272.72 319.164V322.504H274.683V323.485H272.72V326.737H271.578V319.164H272.72ZM262.569 321.464V320.512H265.88V319.047H267.022V320.512H270.333V321.464H262.569ZM263.316 324.35C263.309 322.958 264.561 322.072 266.451 322.064C268.319 322.072 269.571 322.958 269.586 324.35C269.571 325.741 268.319 326.642 266.451 326.635C264.561 326.642 263.309 325.741 263.316 324.35ZM264.415 324.35C264.407 325.199 265.22 325.756 266.451 325.756C267.667 325.756 268.487 325.199 268.502 324.35C268.487 323.507 267.667 322.943 266.451 322.958C265.22 322.943 264.407 323.507 264.415 324.35ZM264.488 332.011V327.309H265.631V328.7H271.578V327.309H272.72V332.011H264.488ZM265.631 331.088H271.578V329.608H265.631V331.088ZM285.941 319.164V332.187H284.798V319.164H285.941ZM276.053 328.832V320.453H277.181V327.836C279.173 327.821 281.224 327.667 283.407 327.206L283.568 328.188C281.253 328.671 279.195 328.832 277.108 328.832H276.053ZM297.946 319.164V324.32H300.128V325.287H297.946V332.216H296.803V319.164H297.946ZM288.439 328.949V320.438H294.518V321.391H289.581V327.982C291.94 327.975 293.602 327.873 295.543 327.514L295.69 328.51C293.646 328.876 291.94 328.949 289.464 328.949H288.439ZM301.908 331.088C301.396 331.081 300.956 330.656 300.971 330.136C300.956 329.623 301.396 329.198 301.908 329.198C302.428 329.198 302.853 329.623 302.846 330.136C302.853 330.656 302.428 331.081 301.908 331.088ZM69.4604 342.164V355.216H68.3032V342.164H69.4604ZM59.2065 347.716C59.2139 344.947 60.5908 343.182 62.5317 343.175C64.4653 343.182 65.8643 344.947 65.8569 347.716C65.8643 350.492 64.4653 352.25 62.5317 352.242C60.5908 352.25 59.2139 350.492 59.2065 347.716ZM60.3198 347.716C60.3198 349.833 61.228 351.224 62.5317 351.217C63.8428 351.224 64.7437 349.833 64.7437 347.716C64.7437 345.599 63.8428 344.208 62.5317 344.2C61.228 344.208 60.3198 345.599 60.3198 347.716ZM83.2669 348.609V349.532H71.387V348.609H76.763V347.086H72.8958V342.779H81.7874V343.702H74.0237V346.148H81.8753V347.086H77.8763V348.609H83.2669ZM72.8226 352.828C72.8152 351.341 74.5071 350.492 77.3196 350.484C80.1102 350.492 81.7874 351.341 81.8021 352.828C81.7874 354.33 80.1102 355.172 77.3196 355.187C74.5071 355.172 72.8152 354.33 72.8226 352.828ZM73.9944 352.828C73.9798 353.744 75.2322 354.271 77.3196 354.264C79.3851 354.271 80.6375 353.744 80.6448 352.828C80.6375 351.927 79.3851 351.393 77.3196 351.393C75.2322 351.393 73.9798 351.927 73.9944 352.828ZM94.129 342.164V347.54H96.3116V348.492H94.129V355.187H92.9864V342.164H94.129ZM83.9776 345.211V344.259H87.3321V342.325H88.4747V344.259H91.7267V345.211H83.9776ZM84.7247 349.283C84.7174 347.525 86.065 346.295 87.9181 346.295C89.7564 346.295 91.0968 347.525 91.1114 349.283C91.0968 351.048 89.7564 352.271 87.9181 352.271C86.065 352.271 84.7174 351.048 84.7247 349.283ZM85.8233 349.283C85.816 350.47 86.7022 351.305 87.9181 351.29C89.1192 351.305 89.9981 350.47 90.0128 349.283C89.9981 348.104 89.1192 347.254 87.9181 347.262C86.7022 347.254 85.816 348.104 85.8233 349.283ZM101.373 346.163C101.38 348.375 102.984 350.624 104.903 351.451L104.259 352.359C102.735 351.671 101.424 350.169 100.816 348.368C100.208 350.279 98.89 351.935 97.4032 352.682L96.7147 351.773C98.5824 350.88 100.208 348.419 100.216 346.163V344.464H97.1395V343.512H104.478V344.464H101.373V346.163ZM106.295 355.187V342.164H107.452V355.187H106.295ZM116.476 342.911C118.424 342.918 119.86 344.156 119.86 345.914C119.86 347.694 118.424 348.924 116.476 348.932C114.535 348.924 113.085 347.694 113.092 345.914C113.085 344.156 114.535 342.918 116.476 342.911ZM114.22 345.914C114.213 347.108 115.194 347.979 116.476 347.979C117.765 347.979 118.739 347.108 118.732 345.914C118.739 344.742 117.765 343.878 116.476 343.878C115.194 343.878 114.213 344.742 114.22 345.914ZM114.235 354.835V350.089H115.348V353.89C116.103 353.861 117.106 353.751 118.029 353.443L118.205 354.366C116.938 354.784 115.7 354.842 114.85 354.835H114.235ZM117.75 351.041V350.147H120.49V348.99H121.618V350.147H124.328V351.041H117.75ZM118.615 353.326C118.607 352.198 119.596 351.48 121.032 351.48C122.46 351.48 123.463 352.198 123.478 353.326C123.463 354.454 122.46 355.157 121.032 355.157C119.596 355.157 118.607 354.454 118.615 353.326ZM119.64 353.326C119.64 353.941 120.219 354.33 121.032 354.337C121.845 354.33 122.423 353.941 122.423 353.326C122.423 352.726 121.845 352.323 121.032 352.315C120.219 352.323 119.64 352.726 119.64 353.326ZM121.881 348.683V342.164H123.024V345.108H124.987V346.061H123.024V348.683H121.881ZM131.44 343.014C134.157 343.021 136.2 344.442 136.2 346.588C136.2 348.756 134.157 350.177 131.44 350.162C128.722 350.177 126.679 348.756 126.679 346.588C126.679 344.442 128.722 343.021 131.44 343.014ZM125.507 353.458V352.491H137.431V353.458H125.507ZM127.778 346.588C127.763 348.17 129.338 349.225 131.44 349.225C133.527 349.225 135.087 348.17 135.087 346.588C135.087 345.028 133.527 343.944 131.44 343.951C129.338 343.944 127.763 345.028 127.778 346.588ZM144.763 343.307V344.464H147.81V342.179H148.967V351.686H147.81V348.214H144.763V349.386H138.786V343.307H144.763ZM139.929 348.463H143.635V344.259H139.929V348.463ZM140.544 354.908V350.836H141.701V353.941H149.26V354.908H140.544ZM144.763 347.262H147.81V345.431H144.763V347.262ZM157.786 343.175C159.705 343.182 161.067 344.947 161.082 347.716C161.067 350.492 159.705 352.25 157.786 352.242C155.852 352.25 154.497 350.492 154.505 347.716C154.497 344.947 155.852 343.182 157.786 343.175ZM155.589 347.716C155.596 349.833 156.497 351.224 157.786 351.217C159.09 351.224 159.968 349.833 159.968 347.716C159.968 345.599 159.09 344.208 157.786 344.2C156.497 344.208 155.596 345.599 155.589 347.716ZM163.235 355.187V342.164H164.378V347.364H166.56V348.36H164.378V355.187H163.235ZM172.281 343.585V348.141H168.516V351.1C170.018 351.092 171.431 351.034 173.116 350.748L173.218 351.686C171.365 352.008 169.893 352.066 168.252 352.066H167.403V347.188H171.167V344.552H167.374V343.585H172.281ZM174.024 354.513V342.457H175.079V347.32H176.998V342.164H178.096V355.187H176.998V348.272H175.079V354.513H174.024ZM187.999 344.625C188.006 345.943 189.296 347.057 191.149 347.467L190.68 348.39C189.178 348.016 188.021 347.225 187.45 346.17C186.893 347.313 185.721 348.185 184.176 348.565L183.678 347.643C185.56 347.225 186.857 346.017 186.857 344.625V344.566H183.956V343.658H186.857V342.208H187.999V343.658H190.9V344.566H187.999V344.625ZM183.063 349.488C185.56 349.481 188.863 349.466 191.749 349.093L191.822 349.928C190.577 350.133 189.288 350.257 188.028 350.338V354.806H186.886V350.396C185.567 350.448 184.315 350.455 183.224 350.455L183.063 349.488ZM192.701 355.201V342.179H193.829V355.201H192.701ZM207.68 352.535V353.487H195.756V352.535H201.088V349.342H202.216V352.535H207.68ZM196.225 348.536C198.502 348.148 201.037 346.244 201.044 344.054V343.058H202.245V344.054C202.252 346.229 204.823 348.148 207.094 348.536L206.581 349.488C204.596 349.078 202.501 347.738 201.659 345.863C200.802 347.73 198.729 349.078 196.737 349.488L196.225 348.536ZM219.216 342.164V355.216H218.073V347.965H214.953V351.92H208.947V343.189H210.104V346.588H213.825V343.189H214.953V347.013H218.073V342.164H219.216ZM210.104 350.968H213.825V347.511H210.104V350.968ZM232.949 349.386V350.323H221.069V349.386H232.949ZM222.622 354.908V351.275H223.764V353.941H231.704V354.908H222.622ZM222.651 348.155V342.662H231.469V343.585H223.808V344.947H231.118V345.841H223.808V347.247H231.542V348.155H222.651ZM239.68 342.398C242.573 342.398 244.272 343.197 244.28 344.64C244.272 346.119 242.573 346.917 239.68 346.925C236.772 346.917 235.066 346.119 235.066 344.64C235.066 343.197 236.772 342.398 239.68 342.398ZM233.747 348.741V347.804H245.613V348.741H233.747ZM235.183 350.748V349.869H244.089V352.784H236.355V354.132H244.485V355.04H235.212V351.935H242.961V350.748H235.183ZM236.267 344.64C236.252 345.548 237.519 346.046 239.68 346.046C241.841 346.046 243.1 345.548 243.108 344.64C243.1 343.783 241.841 343.27 239.68 343.263C237.519 343.27 236.252 343.783 236.267 344.64ZM260.232 342.809V343.79C260.232 344.793 260.232 345.965 259.917 347.511H261.741V348.448H249.891V347.511H258.76C258.899 346.888 258.973 346.332 259.024 345.826L251.224 346.163L251.077 345.24L259.075 344.999C259.097 344.574 259.09 344.171 259.09 343.79V343.746H251.385V342.809H260.232ZM251.282 350.602V349.708H260.335V352.711H252.454V354.088H260.789V355.011H251.311V351.832H259.192V350.602H251.282ZM273.292 342.179V350.133H272.149V342.179H273.292ZM263.199 343.893V342.955H269.146V346.544H264.342V348.434C266.671 348.426 268.406 348.353 270.523 348.038L270.655 348.976C268.465 349.32 266.685 349.393 264.283 349.386H263.228V345.636H268.004V343.893H263.199ZM264.532 351.788V350.836H273.292V355.187H272.149V351.788H264.532ZM281.708 344.42V345.357H275.174V344.42H277.884V342.56H279.027V344.42H281.708ZM275.643 349.195C275.643 347.467 276.822 346.244 278.441 346.236C280.082 346.244 281.253 347.467 281.268 349.195C281.253 350.946 280.082 352.176 278.441 352.184C276.822 352.176 275.643 350.946 275.643 349.195ZM276.668 349.195C276.668 350.353 277.408 351.18 278.441 351.173C279.481 351.18 280.243 350.353 280.243 349.195C280.243 348.053 279.481 347.218 278.441 347.203C277.408 347.218 276.668 348.053 276.668 349.195ZM282.381 354.542V342.486H283.465V347.657H285.194V342.164H286.292V355.187H285.194V348.609H283.465V354.542H282.381ZM294.445 344.01C294.437 345.753 296.759 347.232 299.03 347.569L298.605 348.478C296.576 348.133 294.591 347.049 293.8 345.482C293.009 347.049 291.024 348.133 289.025 348.478L288.571 347.569C290.834 347.232 293.148 345.753 293.156 344.01V343.922H288.981V342.984H298.605V343.922H294.445V344.01ZM287.867 350.543V349.591H299.733V350.543H294.342V355.187H293.214V350.543H287.867ZM305.146 343.834C305.131 345.628 306.537 347.254 308.471 347.892L307.914 348.785C306.383 348.258 305.168 347.174 304.574 345.782C303.988 347.284 302.758 348.478 301.205 349.034L300.619 348.111C302.582 347.43 303.974 345.716 303.974 343.834V342.604H305.146V343.834ZM302.846 355.011V349.811H303.988V351.393H310.141V349.811H311.283V355.011H302.846ZM303.988 354.073H310.141V352.315H303.988V354.073ZM310.141 349.151V342.164H311.283V349.151H310.141ZM317.824 345.665C317.817 348.045 319.435 350.433 321.354 351.305L320.651 352.213C319.164 351.495 317.883 349.95 317.26 348.097C316.66 350.06 315.378 351.708 313.854 352.477L313.122 351.51C315.063 350.624 316.667 348.133 316.682 345.665V343.292H317.824V345.665ZM322.775 355.216V342.164H323.933V355.216H322.775ZM331.792 343.014C334.56 343.028 336.552 344.376 336.552 346.427C336.552 348.368 334.824 349.649 332.348 349.818V352.55H337.783V353.517H325.859V352.55H331.22V349.818C328.759 349.642 327.031 348.36 327.031 346.427C327.031 344.376 329.03 343.028 331.792 343.014ZM328.144 346.427C328.137 347.928 329.682 348.902 331.792 348.917C333.901 348.902 335.439 347.928 335.439 346.427C335.439 344.955 333.901 343.958 331.792 343.966C329.682 343.958 328.137 344.955 328.144 346.427ZM339.9 354.088C339.387 354.081 338.948 353.656 338.962 353.136C338.948 352.623 339.387 352.198 339.9 352.198C340.42 352.198 340.845 352.623 340.837 353.136C340.845 353.656 340.42 354.081 339.9 354.088Z" fill="#888888"/>
<rect x="150" y="400" width="100" height="56" rx="8" fill="#EEEEEE"/>
<path d="M190.317 422.539C190.307 424.189 191.88 425.635 194.438 426.172L193.677 427.617C191.665 427.158 190.18 426.152 189.409 424.824C188.657 426.27 187.153 427.373 185.083 427.852L184.302 426.406C186.889 425.85 188.452 424.287 188.462 422.539H184.692V421.074H188.462V419.199H190.317V421.074H194.067V422.539H190.317ZM183.54 428.926C186.86 428.926 191.255 428.896 195.063 428.418L195.2 429.766C193.598 430.029 191.948 430.195 190.337 430.293V436.133H188.481V430.391C186.802 430.459 185.2 430.469 183.794 430.469L183.54 428.926ZM196.274 436.66V419.18H198.11V436.66H196.274ZM216.46 432.91V434.434H200.445V432.91H207.456V428.75H209.292V432.91H216.46ZM200.991 427.539C204.361 426.973 207.368 424.375 207.378 421.602V420.273H209.331V421.602C209.331 424.375 212.378 426.973 215.757 427.539L214.956 429.062C212.114 428.506 209.517 426.748 208.364 424.355C207.212 426.738 204.634 428.506 201.812 429.062L200.991 427.539Z" fill="#323C59"/>
<defs>
<clipPath id="clip0_263_980">
<rect width="110" height="110" fill="white" transform="translate(145 120)"/>
</clipPath>
</defs>
</svg>
