<svg width="450" height="851" viewBox="0 0 450 851" fill="none" xmlns="http://www.w3.org/2000/svg">
<g clip-path="url(#clip0_263_2205)">
<rect width="450" height="851" fill="#F0F2F6"/>
<g clip-path="url(#clip1_263_2205)">
<g clip-path="url(#clip2_263_2205)">
<path d="M88.5993 57.7791H84.7642V52.4434H88.5993V57.7791ZM90.9825 58.1126V50.959H82.377V58.1126C82.377 58.747 82.8934 59.2635 83.5319 59.2676H89.8275C90.466 59.2676 90.9825 58.7511 90.9825 58.1126ZM95.7285 50.6133H93.3453V62.1144H95.7285V50.6133ZM90.6571 65.254C89.1727 65.254 87.9933 65.1605 87.3548 64.9775C86.7285 64.8067 86.3991 64.5017 86.3991 64.0909V61.3336H84.0159V64.0909C84.0159 64.4895 84.0688 65.4371 84.8862 65.9942C85.7403 66.5961 89.128 66.7832 90.5758 66.7832H90.6531C92.0277 66.7832 94.5857 66.5188 95.8668 66.2016V64.6765C95.2649 64.8148 93.1623 65.254 90.6531 65.254" fill="#030000"/>
<path d="M75.3094 54.2979C75.3094 55.3146 75.1142 56.4289 75.0003 56.7502L77.2005 56.7584C77.6072 56.0344 77.6926 54.7086 77.6967 54.2938V54.2532V52.1099C77.6967 51.4755 77.1802 50.959 76.5417 50.959H65.6994V52.4434H75.3135V54.2938L75.3094 54.2979ZM79.1364 58.2428V56.7584H64.1621V58.2428H70.6122V60.5487H65.6384V62.0331H75.2728V66.4945H77.656V61.6955C77.656 61.0611 77.1395 60.5446 76.5051 60.5446H72.9994V58.2387H79.1404L79.1364 58.2428Z" fill="#030000"/>
<path d="M136.999 59.0277H136.99C136.409 58.9179 136.185 58.5193 136.185 58.1696C136.185 58.1614 136.185 58.1533 136.185 58.1452V55.4488H142.741V58.1452V58.1655C142.741 58.5193 142.517 58.9179 141.928 59.0317C141.403 59.1171 140.573 59.2147 139.463 59.2147C138.353 59.2147 137.515 59.1171 136.99 59.0277M140.663 64.1316V60.6748H140.679L140.793 60.6666C141.793 60.6097 142.656 60.4836 143.607 60.2762C143.644 60.2681 143.685 60.2559 143.729 60.2477C144.99 59.9671 145.116 59.1659 145.128 58.682V50.959H142.745V53.9603H136.189V50.959H133.802V58.6739C133.814 59.1456 133.936 59.9142 135.099 60.2152C136.169 60.4511 137.133 60.5975 138.154 60.6544L138.284 60.6666V64.1275H131.891V65.616H147.04V64.1275H140.667L140.663 64.1316ZM136.97 59.0114C136.97 59.0114 136.954 59.0073 136.946 59.0033C136.954 59.0033 136.962 59.0073 136.97 59.0114Z" fill="#030000"/>
<path d="M107.278 65.2581C105.793 65.2581 104.61 65.1646 103.976 64.9816C103.345 64.8108 103.02 64.5057 103.02 64.0909V61.3336H100.633V64.0909C100.633 64.4895 100.689 65.4371 101.507 65.9942C102.357 66.5961 105.749 66.7791 107.196 66.7791H107.274C108.648 66.7791 111.206 66.5148 112.488 66.1976V64.6765C111.886 64.8148 109.783 65.25 107.274 65.254M106.814 55.8148H109.958V62.1103H112.341V50.6133H109.958V54.3304H107.127C107.148 54.1474 107.16 53.9563 107.168 53.761V53.6268H107.176V52.114C107.176 51.4755 106.66 50.963 106.021 50.959H99.2742V52.4434H104.785V53.4845C104.785 54.9445 104.285 56.193 103.321 57.0756C102.381 57.9337 100.946 58.4339 99.2051 58.4583V59.9427C99.9697 59.9427 101.877 59.8939 103.581 59.1659C104.943 58.5803 106.212 57.5839 106.81 55.8148" fill="#030000"/>
<path d="M153.49 58.1534C152.254 58.1534 151.343 57.1489 151.343 55.9126C151.343 54.6762 152.25 53.6717 153.49 53.6717C154.731 53.6717 155.638 54.6762 155.638 55.9126C155.638 57.1489 154.731 58.1534 153.49 58.1534ZM159.749 50.6094V54.9731H157.891C157.699 54.3102 157.309 53.7124 156.756 53.2406H158.147V51.7562H154.661V50.2637H152.278V51.7562H148.793V53.2406H150.212C149.415 53.9239 148.956 54.8674 148.956 55.9126C148.956 57.9989 150.81 59.6907 153.494 59.6907C155.951 59.6907 157.691 58.2876 157.984 56.4616H159.753V59.5687H162.136V50.6134H159.753L159.749 50.6094ZM152.978 64.2253V62.3138H159.749V64.2497C159.749 64.6157 159.509 65.0264 158.879 65.124C158.875 65.124 158.867 65.124 158.854 65.1281C158.346 65.2094 157.533 65.2908 156.504 65.2908C155.475 65.2908 154.365 65.2054 153.852 65.124C153.218 65.0305 152.978 64.6116 152.978 64.2497C152.978 64.2415 152.978 64.2293 152.978 64.2253ZM150.591 64.754C150.603 65.2379 150.729 66.0269 151.961 66.3116C153.417 66.6288 154.966 66.7752 156.504 66.7752C158.118 66.7752 159.269 66.6451 160.558 66.3685C160.607 66.3482 160.668 66.3319 160.733 66.3197C161.994 66.0391 162.12 65.2379 162.132 64.754V60.8254H150.595V64.754H150.591Z" fill="#030000"/>
<path d="M123.042 65.7543C121.236 65.7543 120.02 64.7701 120.02 63.5541C120.02 62.3381 121.216 61.358 123.042 61.358C124.868 61.358 126.063 62.3422 126.063 63.5541C126.063 64.766 124.912 65.7543 123.042 65.7543ZM123.042 59.8207C119.727 59.8207 117.478 61.4922 117.478 63.5541C117.478 65.616 119.65 67.2875 123.042 67.2875C126.433 67.2875 128.609 65.616 128.609 63.5541C128.609 61.4922 126.368 59.8207 123.042 59.8207ZM128.398 53.5862V50.6133H126.015V59.5685H128.398V55.0706H130.513V53.5862H128.398ZM123.566 53.6228V53.4886H123.578V52.114C123.578 51.4755 123.062 50.963 122.424 50.963H115.672V52.4474H121.183V53.3584C121.183 54.8144 120.679 56.0019 119.715 56.8153C118.776 57.6042 117.34 58.0313 115.607 58.0516V59.5401H115.88C116.832 59.5401 118.767 59.4791 120.406 58.7145C122.053 57.9418 123.473 56.4899 123.57 53.6268" fill="#030000"/>
<path d="M49.5702 62.6712L49.5491 61.7461C45.9469 61.7367 44.3683 59.4812 44.3543 57.652C44.3402 56.2491 45.3052 54.7619 46.9048 54.7478C48.2539 54.7361 48.9284 55.8018 48.9284 55.8018C48.9284 55.8018 49.4929 54.7174 50.9895 54.7033C52.0551 54.694 53.4909 55.591 53.5096 57.6684C53.526 59.6218 52.1184 61.7624 49.5725 62.6712M48.8769 50.0004C43.9889 50.0425 39.9605 53.6189 40.0003 58.2305C40.019 60.5328 41.2065 62.8843 43.3191 64.4348L42.771 67.0884C53.0833 70.0629 57.9338 62.5658 57.894 58.0924C57.8565 53.5323 53.8515 49.9582 48.8769 50.0004Z" fill="#EF403C"/>
<path d="M49.6553 66.2084L49.571 62.6718C48.0159 63.2269 46.0368 63.323 43.6947 62.6367L43.3223 64.4355C44.9313 65.6159 47.0743 66.3326 49.6553 66.2084Z" fill="#850E11"/>
</g>
<g filter="url(#filter0_d_263_2205)">
<g clip-path="url(#clip3_263_2205)">
<path d="M40 120C40 102.327 54.3269 88 72 88H334C375.974 88 410 122.026 410 164V589C410 606.673 395.673 621 378 621H72C54.3269 621 40 606.673 40 589V120Z" fill="url(#paint0_linear_263_2205)"/>
<path d="M364.114 235.769L363.821 222.835C311.327 222.724 288.27 191.257 288.094 165.725C287.919 146.128 301.964 125.411 325.314 125.243C344.977 125.075 354.809 139.969 354.809 139.969C354.809 139.969 363.06 124.851 384.889 124.683C400.456 124.571 421.348 137.057 421.641 166.061C421.875 193.272 401.334 223.171 364.231 235.825M353.99 59.0056C282.71 59.6215 224.013 109.51 224.598 173.787C224.891 205.87 242.155 238.681 272.996 260.35L264.978 297.36C415.32 338.849 486.073 234.314 485.429 171.884C484.903 108.278 426.557 58.3897 353.99 59.0056Z" fill="white" fill-opacity="0.2"/>
<path d="M93.3242 184.102V186.262H70.9023V184.102H80.7734V178.441H73.4727V166.793H90.6445V178.441H83.3438V184.102H93.3242ZM75.9883 176.391H88.1016V168.871H75.9883V176.391ZM113.628 164.824V174.312H117.565V176.5H113.628V189.324H111.03V164.824H113.628ZM95.4713 183.5V166.875H98.0416V173.164H104.522V166.875H107.092V183.5H95.4713ZM98.0416 181.367H104.522V175.215H98.0416V181.367ZM125.126 165.645C128.818 165.672 131.538 167.928 131.552 171.141C131.538 174.367 128.818 176.609 125.126 176.609C121.394 176.609 118.687 174.367 118.673 171.141C118.687 167.928 121.394 165.672 125.126 165.645ZM121.216 171.141C121.202 173.164 122.87 174.504 125.126 174.504C127.368 174.504 129.036 173.164 129.036 171.141C129.036 169.145 127.368 167.805 125.126 167.832C122.87 167.805 121.202 169.145 121.216 171.141ZM122.392 180.492V178.414H138.497V184.594H124.989V186.945H139.318V189.023H122.474V182.652H135.927V180.492H122.392ZM135.9 177.293V164.824H138.497V177.293H135.9ZM168.522 164.852V182.898H165.924V174.395H160.838V172.234H165.924V164.852H168.522ZM148.451 178.086C153.906 176.322 157.612 173 158.145 168.844H149.709V166.684H161.002C160.975 173.082 156.586 177.895 149.545 180.164L148.451 178.086ZM152.744 188.805V181.039H155.369V186.699H169.151V188.805H152.744ZM190.985 164.824V171.004H194.54V173.109H190.985V179.371H188.387V164.824H190.985ZM171.708 177.457C177.45 175.844 180.964 172.645 181.442 168.68H172.802V166.574H184.259C184.259 172.904 179.952 177.484 172.774 179.562L171.708 177.457ZM175.044 184.457C175.016 181.477 178.243 179.631 183.165 179.645C188.1 179.631 191.259 181.477 191.259 184.457C191.259 187.465 188.1 189.283 183.165 189.297C178.243 189.283 175.016 187.465 175.044 184.457ZM177.614 184.457C177.6 186.18 179.733 187.232 183.165 187.246C186.569 187.232 188.716 186.18 188.716 184.457C188.716 182.734 186.569 181.682 183.165 181.695C179.733 181.682 177.6 182.734 177.614 184.457ZM217.796 184.129V186.289H195.374V184.129H205.245V179.098H197.945V166.492H200.542V170.703H212.574V166.492H215.144V179.098H207.816V184.129H217.796ZM200.542 176.992H212.574V172.809H200.542V176.992ZM239.439 164.824V179.672H236.842V174.34H233.014V172.18H236.842V164.824H239.439ZM219.041 169.336V167.258H224.947V164.605H227.518V167.258H233.396V169.336H219.041ZM220.463 174.832C220.463 172.262 222.869 170.457 226.232 170.457C229.596 170.457 231.975 172.262 231.975 174.832C231.975 177.471 229.596 179.221 226.232 179.234C222.869 179.221 220.463 177.471 220.463 174.832ZM222.951 174.832C222.951 176.322 224.277 177.252 226.232 177.266C228.16 177.252 229.486 176.322 229.486 174.832C229.486 173.396 228.16 172.439 226.232 172.453C224.277 172.439 222.951 173.396 222.951 174.832ZM223.279 189.023V180.875H239.439V189.023H223.279ZM225.85 186.918H236.896V182.926H225.85V186.918ZM264.993 176.363V178.469H242.653V176.363H264.993ZM243.829 173.027C248.272 172.549 251.786 170.553 252.073 168.16H244.704V166.027H262.997V168.16H255.545C255.846 170.539 259.305 172.549 263.844 173.027L262.915 175.078C258.663 174.586 255.149 172.795 253.823 170.211C252.469 172.795 248.983 174.586 244.731 175.078L243.829 173.027ZM245.305 184.84C245.305 181.996 248.491 180.355 253.809 180.355C259.086 180.355 262.245 181.996 262.258 184.84C262.245 187.684 259.086 189.283 253.809 189.27C248.491 189.283 245.305 187.684 245.305 184.84ZM247.93 184.84C247.916 186.385 250.063 187.232 253.809 187.219C257.5 187.232 259.661 186.385 259.661 184.84C259.661 183.254 257.5 182.406 253.809 182.379C250.063 182.406 247.916 183.254 247.93 184.84Z" fill="white"/>
<g clip-path="url(#clip4_263_2205)">
<rect x="70" y="309" width="66" height="66" rx="24" fill="#FFF3F3"/>
<path d="M103 349.674C109.358 349.674 114.512 344.52 114.512 338.162C114.512 331.804 109.358 326.65 103 326.65C96.6422 326.65 91.4883 331.804 91.4883 338.162C91.4883 344.52 96.6422 349.674 103 349.674Z" fill="#F5A7B1"/>
<path d="M73.0703 376.535C74.3271 362.788 87.2591 351.977 103.023 351.977C118.788 351.977 131.428 362.544 132.931 376.081" fill="#F5A7B1"/>
</g>
<path d="M85.7051 401.641V407.463H88.584V408.881H85.7051V415.734H84.0293V401.641H85.7051ZM71.1387 407.699C71.1279 404.928 73.2979 403.005 76.1445 402.994C79.0127 403.005 81.1504 404.928 81.1719 407.699C81.1504 410.46 79.0127 412.404 76.1445 412.404C73.2979 412.404 71.1279 410.46 71.1387 407.699ZM72.793 407.699C72.7822 409.579 74.2539 410.922 76.1445 410.922C78.0674 410.922 79.5068 409.579 79.5176 407.699C79.5068 405.809 78.0674 404.477 76.1445 404.477C74.2539 404.477 72.7822 405.809 72.793 407.699ZM73.7598 420.332V414.273H75.4141V418.914H86.5859V420.332H73.7598ZM92.2045 402.822V410.643C95.4487 410.653 97.7368 410.514 100.369 409.955L100.583 411.352C97.812 411.921 95.4057 412.071 91.9467 412.061H90.4858V402.822H92.2045ZM92.4409 417.152C92.4301 414.864 94.8686 413.532 98.8432 413.521C102.807 413.532 105.246 414.864 105.246 417.152C105.246 419.408 102.807 420.719 98.8432 420.74C94.8686 420.719 92.4301 419.408 92.4409 417.152ZM94.1166 417.152C94.1059 418.527 95.9106 419.365 98.8432 419.365C101.765 419.365 103.57 418.527 103.57 417.152C103.57 415.734 101.765 414.886 98.8432 414.875C95.9106 414.886 94.1059 415.734 94.1166 417.152ZM98.0053 408.645V407.312H103.484V405.271H98.0053V403.918H103.484V401.641H105.181V413.371H103.484V408.645H98.0053ZM122.702 401.641V409.525H125.903V410.922H122.702V420.74H121.026V401.641H122.702ZM107.813 406.109V404.713H112.733V401.877H114.409V404.713H119.179V406.109H107.813ZM108.909 412.082C108.898 409.504 110.875 407.699 113.593 407.699C116.289 407.699 118.255 409.504 118.276 412.082C118.255 414.671 116.289 416.465 113.593 416.465C110.875 416.465 108.898 414.671 108.909 412.082ZM110.52 412.082C110.51 413.822 111.809 415.047 113.593 415.025C115.354 415.047 116.643 413.822 116.665 412.082C116.643 410.353 115.354 409.106 113.593 409.117C111.809 409.106 110.51 410.353 110.52 412.082ZM132.166 407.076C132.166 410.116 133.649 413.393 136.184 414.896L135.217 416.207C133.369 415.09 132.048 413.049 131.382 410.718C130.684 413.264 129.266 415.455 127.354 416.615L126.28 415.348C128.922 413.801 130.534 410.417 130.534 407.141V403.445H132.166V407.076ZM134.078 409.934V408.494H137.323V402.049H138.912V419.773H137.323V409.934H134.078ZM141.233 420.74V401.641H142.866V420.74H141.233ZM162.556 416.873V418.291H145.068V416.873H149.408V411.728C147.775 410.879 146.787 409.504 146.787 407.764C146.787 404.81 149.687 402.865 153.769 402.844C157.851 402.865 160.752 404.81 160.752 407.764C160.752 409.472 159.796 410.825 158.217 411.674V416.873H162.556ZM148.42 407.764C148.409 409.901 150.633 411.33 153.769 411.33C156.874 411.33 159.119 409.901 159.119 407.764C159.119 405.626 156.874 404.219 153.769 404.24C150.633 404.219 148.409 405.626 148.42 407.764ZM151.062 416.873H156.519V412.329C155.692 412.544 154.768 412.662 153.769 412.662C152.792 412.662 151.879 412.555 151.062 412.34V416.873ZM165.661 419.129C164.909 419.118 164.265 418.495 164.286 417.732C164.265 416.98 164.909 416.357 165.661 416.357C166.424 416.357 167.047 416.98 167.036 417.732C167.047 418.495 166.424 419.118 165.661 419.129ZM80.957 433.564C80.957 438.721 77.584 442.244 71.7402 443.748L70.6875 441.621C75.0918 440.493 77.584 438.323 78.0137 435.691H71.8262V433.564H80.957ZM73.9102 451.74V444.156H86.9512V451.74H73.9102ZM76.6387 449.592H84.2656V446.305H76.6387V449.592ZM84.2012 443.361V432.447H86.9512V443.361H84.2012ZM92.2905 434.166V438.57H94.9545V434.166H97.4897V447.336H89.7123V434.166H92.2905ZM92.2905 445.145H94.9545V440.719H92.2905V445.145ZM99.1225 451.074V432.705H101.722V439.881H103.484V432.426H106.105V451.977H103.484V442.115H101.722V451.074H99.1225ZM116.643 432.684C120.994 432.694 123.744 434.112 123.755 436.486C123.744 438.817 120.994 440.214 116.643 440.203C112.314 440.214 109.511 438.817 109.511 436.486C109.511 434.112 112.314 432.694 116.643 432.684ZM107.727 443.404V441.213H125.559V443.404H117.997V445.102H123.432V451.762H109.79V445.102H115.268V443.404H107.727ZM112.368 436.486C112.347 437.561 113.904 438.119 116.643 438.119C119.34 438.119 120.919 437.561 120.919 436.486C120.919 435.358 119.34 434.778 116.643 434.789C113.904 434.778 112.347 435.358 112.368 436.486ZM112.497 449.57H120.747V447.271H112.497V449.57ZM142.651 432.426V443.404H139.922V432.426H142.651ZM127.418 442.438V433.543H130.168V440.149C133.133 440.117 135.636 439.902 138.268 439.344L138.59 441.557C135.55 442.201 132.628 442.438 129.116 442.438H127.418ZM129.588 451.74V444.199H142.651V451.74H129.588ZM132.274 449.592H139.965V446.348H132.274V449.592Z" fill="white"/>
<path d="M84.1113 495.356V496.452H70.5977V495.356H76.6738V491.754H72.1914V484.831H82.4346V491.754H77.9521V495.356H84.1113ZM73.4697 490.708H81.1729V485.877H73.4697V490.708ZM96.3719 483.586V489.396H98.8455V490.525H96.3719V498.345H95.077V483.586H96.3719ZM85.5643 494.809V484.848H86.8592V488.749H91.1756V484.848H92.4705V494.809H85.5643ZM86.8592 493.713H91.1756V489.795H86.8592V493.713ZM103.486 484.134C105.694 484.142 107.296 485.487 107.304 487.404C107.296 489.33 105.694 490.658 103.486 490.658C101.253 490.658 99.6428 489.33 99.6511 487.404C99.6428 485.487 101.253 484.142 103.486 484.134ZM100.929 487.404C100.913 488.699 102 489.596 103.486 489.596C104.947 489.596 106.043 488.699 106.043 487.404C106.043 486.126 104.947 485.221 103.486 485.229C102 485.221 100.913 486.126 100.929 487.404ZM101.892 492.933V491.887H111.488V495.439H103.204V497.1H112.019V498.146H101.925V494.46H110.193V492.933H101.892ZM110.193 491.173V483.586H111.488V491.173H110.193ZM129.817 483.603V494.51H128.505V489.247H125.235V488.151H128.505V483.603H129.817ZM117.814 491.737C121.209 490.617 123.575 488.492 123.873 485.827H118.561V484.731H125.301C125.285 488.525 122.57 491.414 118.378 492.783L117.814 491.737ZM120.42 498.029V493.397H121.748V496.934H130.199V498.029H120.42ZM143.472 483.586V487.438H145.696V488.517H143.472V492.451H142.177V483.586H143.472ZM131.95 491.405C135.511 490.376 137.786 488.326 138.051 485.761H132.598V484.682H139.454C139.446 488.442 136.798 491.198 132.498 492.468L131.95 491.405ZM133.976 495.456C133.967 493.688 135.868 492.609 138.807 492.617C141.77 492.609 143.638 493.688 143.638 495.456C143.638 497.249 141.77 498.312 138.807 498.312C135.868 498.312 133.967 497.249 133.976 495.456ZM135.271 495.456C135.254 496.568 136.64 497.274 138.807 497.266C140.973 497.274 142.376 496.568 142.376 495.456C142.376 494.344 140.973 493.655 138.807 493.663C136.64 493.655 135.254 494.344 135.271 495.456ZM159.8 495.373V496.452H146.286V495.373H152.362V492.186H147.88V484.632H149.191V487.305H156.861V484.632H158.14V492.186H153.641V495.373H159.8ZM149.191 491.123H156.861V488.367H149.191V491.123ZM172.874 483.586V492.534H171.562V489.164H169.056V488.085H171.562V483.586H172.874ZM160.655 486.209V485.146H164.324V483.453H165.602V485.146H169.271V486.209H160.655ZM161.535 489.596C161.535 488.052 162.954 486.973 164.955 486.973C166.964 486.973 168.375 488.052 168.391 489.596C168.375 491.189 166.964 492.235 164.955 492.235C162.954 492.235 161.535 491.189 161.535 489.596ZM162.78 489.596C162.78 490.575 163.668 491.223 164.955 491.239C166.242 491.223 167.13 490.575 167.13 489.596C167.13 488.649 166.242 487.985 164.955 487.985C163.668 487.985 162.78 488.649 162.78 489.596ZM163.228 498.146V493.331H172.874V498.146H163.228ZM164.523 497.083H171.596V494.377H164.523V497.083ZM188.438 490.608V491.688H174.991V490.608H188.438ZM175.755 488.683C178.328 488.384 180.81 487.114 180.868 485.429H176.219V484.35H187.243V485.429H182.561C182.619 487.097 185.076 488.384 187.691 488.683L187.21 489.729C184.794 489.421 182.528 488.334 181.715 486.699C180.901 488.334 178.652 489.421 176.219 489.729L175.755 488.683ZM176.618 495.655C176.61 493.962 178.527 492.982 181.715 492.982C184.877 492.982 186.778 493.962 186.795 495.655C186.778 497.365 184.877 498.312 181.715 498.312C178.527 498.312 176.61 497.365 176.618 495.655ZM177.946 495.655C177.929 496.685 179.349 497.274 181.715 497.266C184.055 497.274 185.475 496.685 185.483 495.655C185.475 494.618 184.055 494.028 181.715 494.012C179.349 494.028 177.929 494.618 177.946 495.655ZM196.067 483.852C199.346 483.852 201.272 484.756 201.28 486.392C201.272 488.068 199.346 488.973 196.067 488.981C192.772 488.973 190.837 488.068 190.837 486.392C190.837 484.756 192.772 483.852 196.067 483.852ZM189.343 491.04V489.978H202.791V491.04H189.343ZM190.97 493.314V492.318H201.064V495.622H192.298V497.149H201.512V498.179H191.003V494.659H199.786V493.314H190.97ZM192.199 486.392C192.182 487.421 193.618 487.985 196.067 487.985C198.516 487.985 199.943 487.421 199.952 486.392C199.943 485.42 198.516 484.839 196.067 484.831C193.618 484.839 192.182 485.42 192.199 486.392ZM82.1191 505.603V510.068H84.3271V511.164H82.1191V515.497H80.8076V505.603H82.1191ZM70.5312 513.986C71.71 513.986 73.0879 513.986 74.5322 513.945V512.857C72.814 512.7 71.7017 511.911 71.71 510.683C71.7017 509.338 73.0879 508.508 75.1631 508.508C77.2549 508.508 78.6162 509.338 78.6328 510.683C78.6162 511.903 77.5371 512.691 75.8271 512.857V513.895C77.2051 513.829 78.5996 513.712 79.8945 513.521L80.0107 514.468C76.8066 515.032 73.2788 515.057 70.6807 515.049L70.5312 513.986ZM70.8965 507.943V506.947H74.5322V505.47H75.8271V506.947H79.4463V507.943H70.8965ZM72.3408 517.273V516.228H82.1191V520.345H80.8076V517.273H72.3408ZM72.9551 510.683C72.9468 511.455 73.8018 511.978 75.1631 511.961C76.5244 511.978 77.3877 511.455 77.3877 510.683C77.3877 509.902 76.5244 509.421 75.1631 509.438C73.8018 509.421 72.9468 509.902 72.9551 510.683ZM97.1356 505.603V516.394H95.8407V505.603H97.1356ZM85.2987 510.251C85.2904 508.126 86.9588 506.64 89.1668 506.632C91.3748 506.64 93.0267 508.126 93.035 510.251C93.0267 512.401 91.3748 513.895 89.1668 513.887C86.9588 513.895 85.2904 512.401 85.2987 510.251ZM86.577 510.251C86.5604 511.72 87.6727 512.741 89.1668 512.741C90.6361 512.741 91.7567 511.72 91.7567 510.251C91.7567 508.807 90.6361 507.777 89.1668 507.777C87.6727 507.777 86.5604 508.807 86.577 510.251ZM87.6063 520.029V515.298H88.9012V518.934H97.6004V520.029H87.6063ZM110.724 505.586V511.679H113.198V512.758H110.724V520.345H109.429V505.586H110.724ZM99.2194 509.039V507.96H103.021V505.769H104.316V507.96H108.002V509.039H99.2194ZM100.066 513.654C100.058 511.662 101.585 510.268 103.685 510.268C105.769 510.268 107.288 511.662 107.304 513.654C107.288 515.655 105.769 517.041 103.685 517.041C101.585 517.041 100.058 515.655 100.066 513.654ZM101.311 513.654C101.303 514.999 102.307 515.945 103.685 515.929C105.047 515.945 106.043 514.999 106.059 513.654C106.043 512.318 105.047 511.355 103.685 511.363C102.307 511.355 101.303 512.318 101.311 513.654ZM118.038 509.786C118.038 512.135 119.183 514.667 121.142 515.829L120.395 516.842C118.967 515.979 117.946 514.401 117.432 512.6C116.892 514.567 115.796 516.261 114.319 517.157L113.489 516.178C115.531 514.982 116.776 512.368 116.776 509.836V506.98H118.038V509.786ZM119.515 511.994V510.882H122.022V505.901H123.251V519.598H122.022V511.994H119.515ZM125.043 520.345V505.586H126.305V520.345H125.043ZM141.521 517.356V518.452H128.007V517.356H131.361V513.38C130.099 512.725 129.335 511.662 129.335 510.317C129.335 508.035 131.577 506.532 134.731 506.516C137.885 506.532 140.126 508.035 140.126 510.317C140.126 511.637 139.388 512.683 138.167 513.339V517.356H141.521ZM130.597 510.317C130.589 511.969 132.307 513.073 134.731 513.073C137.13 513.073 138.865 511.969 138.865 510.317C138.865 508.666 137.13 507.578 134.731 507.595C132.307 507.578 130.589 508.666 130.597 510.317ZM132.639 517.356H136.856V513.845C136.217 514.011 135.503 514.103 134.731 514.103C133.975 514.103 133.27 514.02 132.639 513.854V517.356ZM143.92 519.1C143.339 519.091 142.841 518.61 142.858 518.021C142.841 517.439 143.339 516.958 143.92 516.958C144.509 516.958 144.991 517.439 144.983 518.021C144.991 518.61 144.509 519.091 143.92 519.1Z" fill="white"/>
</g>
</g>
<g filter="url(#filter1_d_263_2205)">
<g clip-path="url(#clip5_263_2205)">
<path d="M423 120C423 102.327 437.327 88 455 88H717C758.974 88 793 122.026 793 164V589C793 606.673 778.673 621 761 621H455C437.327 621 423 606.673 423 589V120Z" fill="url(#paint1_linear_263_2205)"/>
</g>
</g>
<circle cx="217" cy="645" r="4" fill="black"/>
<circle cx="233" cy="645" r="4" fill="#888888"/>
</g>
<path d="M453 705H281C271.945 705 264.5 704 256.287 699.231C248.196 692.241 237.602 688 226.005 688C214.408 688 203.091 691.011 195 698C187.615 703.337 180.055 705 171 705H-1V859L226 857.044L453 859L453 705Z" fill="white"/>
<path d="M452 705H279.894C270.839 705 262.672 703.225 255.287 698.318C247.196 691.897 236.602 688 225.005 688C213.408 688 202.815 691.897 194.723 698.318C187.338 703.221 179.171 705 170.116 705H-2" fill="white"/>
<path d="M452 705H279.894C270.839 705 262.672 703.225 255.287 698.318C247.196 691.897 236.602 688 225.005 688C213.408 688 202.815 691.897 194.723 698.318C187.338 703.221 179.171 705 170.116 705H-2" stroke="#DDDDDD" stroke-miterlimit="10"/>
<mask id="path-23-inside-1_263_2205" fill="white">
<path d="M82.8809 760.045C79.9152 760.045 77.5 757.629 77.5 754.664V735.381C77.5 732.415 79.9152 730 82.8809 730H101.387C104.353 730 106.768 732.415 106.768 735.381V754.664C106.768 757.629 104.353 760.045 101.387 760.045H82.8809ZM82.8809 731.376C80.6721 731.376 78.8762 733.172 78.8762 735.381V754.664C78.8762 756.873 80.6721 758.668 82.8809 758.668H101.387C103.596 758.668 105.392 756.873 105.392 754.664V735.381C105.392 733.172 103.596 731.376 101.387 731.376H82.8809Z"/>
</mask>
<path d="M82.8809 760.045C79.9152 760.045 77.5 757.629 77.5 754.664V735.381C77.5 732.415 79.9152 730 82.8809 730H101.387C104.353 730 106.768 732.415 106.768 735.381V754.664C106.768 757.629 104.353 760.045 101.387 760.045H82.8809ZM82.8809 731.376C80.6721 731.376 78.8762 733.172 78.8762 735.381V754.664C78.8762 756.873 80.6721 758.668 82.8809 758.668H101.387C103.596 758.668 105.392 756.873 105.392 754.664V735.381C105.392 733.172 103.596 731.376 101.387 731.376H82.8809Z" fill="#7C8189"/>
<path d="M82.8809 758.545C80.7437 758.545 79 756.801 79 754.664H76C76 758.458 79.0868 761.545 82.8809 761.545V758.545ZM79 754.664V735.381H76V754.664H79ZM79 735.381C79 733.244 80.7437 731.5 82.8809 731.5V728.5C79.0868 728.5 76 731.587 76 735.381H79ZM82.8809 731.5H101.387V728.5H82.8809V731.5ZM101.387 731.5C103.525 731.5 105.268 733.244 105.268 735.381H108.268C108.268 731.587 105.181 728.5 101.387 728.5V731.5ZM105.268 735.381V754.664H108.268V735.381H105.268ZM105.268 754.664C105.268 756.801 103.525 758.545 101.387 758.545V761.545C105.181 761.545 108.268 758.458 108.268 754.664H105.268ZM101.387 758.545H82.8809V761.545H101.387V758.545ZM82.8809 729.876C79.8437 729.876 77.3762 732.344 77.3762 735.381H80.3762C80.3762 734.001 81.5006 732.876 82.8809 732.876V729.876ZM77.3762 735.381V754.664H80.3762V735.381H77.3762ZM77.3762 754.664C77.3762 757.701 79.8437 760.168 82.8809 760.168V757.168C81.5006 757.168 80.3762 756.044 80.3762 754.664H77.3762ZM82.8809 760.168H101.387V757.168H82.8809V760.168ZM101.387 760.168C104.425 760.168 106.892 757.701 106.892 754.664H103.892C103.892 756.044 102.768 757.168 101.387 757.168V760.168ZM106.892 754.664V735.381H103.892V754.664H106.892ZM106.892 735.381C106.892 732.344 104.425 729.876 101.387 729.876V732.876C102.768 732.876 103.892 734.001 103.892 735.381H106.892ZM101.387 729.876H82.8809V732.876H101.387V729.876Z" fill="#7C8189" mask="url(#path-23-inside-1_263_2205)"/>
<mask id="path-25-inside-2_263_2205" fill="white">
<path d="M85.5045 754.48C85.1261 754.48 84.8164 754.17 84.8164 753.792C84.8164 753.413 85.1261 753.104 85.5045 753.104H98.2343C98.6128 753.104 98.9224 753.413 98.9224 753.792C98.9224 754.17 98.6128 754.48 98.2343 754.48H85.5045Z"/>
</mask>
<path d="M85.5045 754.48C85.1261 754.48 84.8164 754.17 84.8164 753.792C84.8164 753.413 85.1261 753.104 85.5045 753.104H98.2343C98.6128 753.104 98.9224 753.413 98.9224 753.792C98.9224 754.17 98.6128 754.48 98.2343 754.48H85.5045Z" fill="#7C8189"/>
<path d="M85.5045 752.98C85.9545 752.98 86.3164 753.342 86.3164 753.792H83.3164C83.3164 754.998 84.2976 755.98 85.5045 755.98V752.98ZM86.3164 753.792C86.3164 754.242 85.9545 754.604 85.5045 754.604V751.604C84.2976 751.604 83.3164 752.585 83.3164 753.792H86.3164ZM85.5045 754.604H98.2343V751.604H85.5045V754.604ZM98.2343 754.604C97.7844 754.604 97.4224 754.242 97.4224 753.792H100.422C100.422 752.585 99.4412 751.604 98.2343 751.604V754.604ZM97.4224 753.792C97.4224 753.342 97.7844 752.98 98.2343 752.98V755.98C99.4412 755.98 100.422 754.998 100.422 753.792H97.4224ZM98.2343 752.98H85.5045V755.98H98.2343V752.98Z" fill="#7C8189" mask="url(#path-25-inside-2_263_2205)"/>
<mask id="path-27-inside-3_263_2205" fill="white">
<path d="M91.8685 743.856C89.6597 743.856 87.8672 742.06 87.8672 739.855C87.8672 737.649 89.6631 735.854 91.8685 735.854C94.0738 735.854 95.8698 737.649 95.8698 739.855C95.8698 742.06 94.0738 743.856 91.8685 743.856ZM91.8685 737.226C90.42 737.226 89.2434 738.403 89.2434 739.851C89.2434 741.3 90.42 742.476 91.8685 742.476C93.3169 742.476 94.4936 741.3 94.4936 739.851C94.4936 738.403 93.3169 737.226 91.8685 737.226Z"/>
</mask>
<path d="M91.8685 743.856C89.6597 743.856 87.8672 742.06 87.8672 739.855C87.8672 737.649 89.6631 735.854 91.8685 735.854C94.0738 735.854 95.8698 737.649 95.8698 739.855C95.8698 742.06 94.0738 743.856 91.8685 743.856ZM91.8685 737.226C90.42 737.226 89.2434 738.403 89.2434 739.851C89.2434 741.3 90.42 742.476 91.8685 742.476C93.3169 742.476 94.4936 741.3 94.4936 739.851C94.4936 738.403 93.3169 737.226 91.8685 737.226Z" fill="#7C8189"/>
<path d="M91.8685 742.356C90.489 742.356 89.3672 741.233 89.3672 739.855H86.3672C86.3672 742.888 88.8304 745.356 91.8685 745.356V742.356ZM89.3672 739.855C89.3672 738.478 90.4916 737.354 91.8685 737.354V734.354C88.8347 734.354 86.3672 736.821 86.3672 739.855H89.3672ZM91.8685 737.354C93.2454 737.354 94.3698 738.478 94.3698 739.855H97.3698C97.3698 736.821 94.9023 734.354 91.8685 734.354V737.354ZM94.3698 739.855C94.3698 741.232 93.2454 742.356 91.8685 742.356V745.356C94.9023 745.356 97.3698 742.889 97.3698 739.855H94.3698ZM91.8685 735.726C89.5916 735.726 87.7434 737.574 87.7434 739.851H90.7434C90.7434 739.231 91.2485 738.726 91.8685 738.726V735.726ZM87.7434 739.851C87.7434 742.128 89.5916 743.976 91.8685 743.976V740.976C91.2485 740.976 90.7434 740.471 90.7434 739.851H87.7434ZM91.8685 743.976C94.1454 743.976 95.9936 742.128 95.9936 739.851H92.9936C92.9936 740.471 92.4885 740.976 91.8685 740.976V743.976ZM95.9936 739.851C95.9936 737.574 94.1454 735.726 91.8685 735.726V738.726C92.4885 738.726 92.9936 739.231 92.9936 739.851H95.9936Z" fill="#7C8189" mask="url(#path-27-inside-3_263_2205)"/>
<mask id="path-29-inside-4_263_2205" fill="white">
<path d="M88.1813 749.826C87.6343 749.826 87.1182 749.589 86.7604 749.172C86.4026 748.759 86.2477 748.212 86.3269 747.672L86.5883 745.935C86.8911 743.932 88.5804 742.48 90.6034 742.48H93.1253C95.1483 742.48 96.8376 743.932 97.1403 745.935L97.4018 747.672C97.4844 748.212 97.3261 748.759 96.9683 749.176C96.6105 749.592 96.0944 749.826 95.5474 749.826H88.1744H88.1813ZM95.3685 748.45C95.771 748.45 96.0772 748.092 96.0187 747.696L95.7848 746.141C95.5852 744.827 94.4568 743.857 93.1287 743.857H90.6068C89.2788 743.857 88.1503 744.827 87.9542 746.141L87.7203 747.696C87.6618 748.092 87.968 748.45 88.3705 748.45H95.3719H95.3685Z"/>
</mask>
<path d="M88.1813 749.826C87.6343 749.826 87.1182 749.589 86.7604 749.172C86.4026 748.759 86.2477 748.212 86.3269 747.672L86.5883 745.935C86.8911 743.932 88.5804 742.48 90.6034 742.48H93.1253C95.1483 742.48 96.8376 743.932 97.1403 745.935L97.4018 747.672C97.4844 748.212 97.3261 748.759 96.9683 749.176C96.6105 749.592 96.0944 749.826 95.5474 749.826H88.1744H88.1813ZM95.3685 748.45C95.771 748.45 96.0772 748.092 96.0187 747.696L95.7848 746.141C95.5852 744.827 94.4568 743.857 93.1287 743.857H90.6068C89.2788 743.857 88.1503 744.827 87.9542 746.141L87.7203 747.696C87.6618 748.092 87.968 748.45 88.3705 748.45H95.3719H95.3685Z" fill="#7C8189"/>
<path d="M86.7604 749.172L87.8979 748.194L87.8939 748.19L86.7604 749.172ZM86.3269 747.672L84.8436 747.449L84.8427 747.455L86.3269 747.672ZM86.5883 745.935L85.1052 745.71L85.105 745.711L86.5883 745.935ZM97.1403 745.935L98.6236 745.711L98.6235 745.71L97.1403 745.935ZM97.4018 747.672L95.9185 747.895L95.919 747.899L97.4018 747.672ZM96.0187 747.696L97.5026 747.477L97.502 747.473L96.0187 747.696ZM95.7848 746.141L97.2681 745.918L97.2678 745.916L95.7848 746.141ZM87.9542 746.141L89.4375 746.364L89.4378 746.363L87.9542 746.141ZM87.7203 747.696L86.237 747.473L86.2364 747.477L87.7203 747.696ZM88.1813 748.326C88.0731 748.326 87.9719 748.281 87.8979 748.195L85.6228 750.15C86.2645 750.897 87.1954 751.326 88.1813 751.326V748.326ZM87.8939 748.19C87.8284 748.114 87.7937 748.008 87.811 747.89L84.8427 747.455C84.7017 748.417 84.9767 749.405 85.6268 750.155L87.8939 748.19ZM87.8102 747.895L88.0716 746.158L85.105 745.711L84.8436 747.449L87.8102 747.895ZM88.0715 746.159C88.2633 744.89 89.3221 743.98 90.6034 743.98V740.98C87.8387 740.98 85.5189 742.974 85.1052 745.71L88.0715 746.159ZM90.6034 743.98H93.1253V740.98H90.6034V743.98ZM93.1253 743.98C94.4066 743.98 95.4654 744.89 95.6572 746.159L98.6235 745.71C98.2098 742.974 95.89 740.98 93.1253 740.98V743.98ZM95.657 746.158L95.9185 747.895L98.8851 747.449L98.6236 745.711L95.657 746.158ZM95.919 747.899C95.9349 748.002 95.9059 748.11 95.8308 748.198L98.1059 750.153C98.7463 749.408 99.0339 748.422 98.8846 747.446L95.919 747.899ZM95.8308 748.198C95.761 748.279 95.662 748.326 95.5474 748.326V751.326C96.5268 751.326 97.46 750.905 98.1059 750.153L95.8308 748.198ZM95.5474 748.326H88.1744V751.326H95.5474V748.326ZM88.1744 751.326H88.1813V748.326H88.1744V751.326ZM95.3685 749.95C96.6909 749.95 97.6944 748.774 97.5026 747.477L94.5349 747.916C94.46 747.409 94.8511 746.95 95.3685 746.95V749.95ZM97.502 747.473L97.2681 745.918L94.3015 746.364L94.5354 747.919L97.502 747.473ZM97.2678 745.916C96.957 743.869 95.1988 742.357 93.1287 742.357V745.357C93.7147 745.357 94.2135 745.785 94.3018 746.366L97.2678 745.916ZM93.1287 742.357H90.6068V745.357H93.1287V742.357ZM90.6068 742.357C88.5375 742.357 86.7766 743.869 86.4706 745.92L89.4378 746.363C89.524 745.785 90.0201 745.357 90.6068 745.357V742.357ZM86.4709 745.918L86.237 747.473L89.2036 747.919L89.4375 746.364L86.4709 745.918ZM86.2364 747.477C86.0446 748.774 87.0481 749.95 88.3705 749.95V746.95C88.8879 746.95 89.279 747.409 89.2041 747.916L86.2364 747.477ZM88.3705 749.95H95.3719V746.95H88.3705V749.95ZM95.3719 746.95H95.3685V749.95H95.3719V746.95Z" fill="#7C8189" mask="url(#path-29-inside-4_263_2205)"/>
<path d="M71.8232 777.179V786.803H70.666V782.159H67.7803V781.192H70.666V777.179H71.8232ZM61.2324 784.356C64.228 783.368 66.3154 781.493 66.5791 779.142H61.8916V778.175H67.8389C67.8242 781.522 65.4292 784.071 61.7305 785.279L61.2324 784.356ZM63.5322 789.908V785.821H64.7041V788.941H72.1602V789.908H63.5322ZM83.8719 777.164V780.562H85.8348V781.515H83.8719V784.986H82.7293V777.164H83.8719ZM73.7059 784.063C76.8479 783.155 78.8548 781.346 79.0892 779.083H74.2771V778.131H80.327C80.3196 781.449 77.9832 783.88 74.1893 785.001L73.7059 784.063ZM75.493 787.638C75.4856 786.078 77.1629 785.125 79.7557 785.133C82.3704 785.125 84.0184 786.078 84.0184 787.638C84.0184 789.22 82.3704 790.157 79.7557 790.157C77.1629 790.157 75.4856 789.22 75.493 787.638ZM76.6355 787.638C76.6209 788.619 77.844 789.242 79.7557 789.234C81.6673 789.242 82.9051 788.619 82.9051 787.638C82.9051 786.656 81.6673 786.048 79.7557 786.056C77.844 786.048 76.6209 786.656 76.6355 787.638ZM98.2789 787.564V788.517H86.3551V787.564H91.7164V784.752H87.7613V778.087H88.9186V780.445H95.6861V778.087H96.8141V784.752H92.8443V787.564H98.2789ZM88.9186 783.814H95.6861V781.383H88.9186V783.814ZM109.815 777.164V785.06H108.658V782.086H106.446V781.134H108.658V777.164H109.815ZM99.0336 779.479V778.541H102.271V777.047H103.399V778.541H106.636V779.479H99.0336ZM99.81 782.467C99.81 781.104 101.062 780.152 102.828 780.152C104.6 780.152 105.845 781.104 105.86 782.467C105.845 783.873 104.6 784.796 102.828 784.796C101.062 784.796 99.81 783.873 99.81 782.467ZM100.909 782.467C100.909 783.331 101.692 783.902 102.828 783.917C103.963 783.902 104.746 783.331 104.746 782.467C104.746 781.632 103.963 781.046 102.828 781.046C101.692 781.046 100.909 781.632 100.909 782.467ZM101.304 790.011V785.763H109.815V790.011H101.304ZM102.447 789.073H108.687V786.686H102.447V789.073ZM123.548 783.36V784.312H111.683V783.36H123.548ZM112.357 781.661C114.627 781.397 116.817 780.277 116.868 778.79H112.767V777.838H122.493V778.79H118.362C118.414 780.262 120.582 781.397 122.889 781.661L122.464 782.584C120.333 782.313 118.333 781.354 117.615 779.911C116.898 781.354 114.913 782.313 112.767 782.584L112.357 781.661ZM113.118 787.813C113.111 786.319 114.803 785.455 117.615 785.455C120.406 785.455 122.083 786.319 122.098 787.813C122.083 789.322 120.406 790.157 117.615 790.157C114.803 790.157 113.111 789.322 113.118 787.813ZM114.29 787.813C114.276 788.722 115.528 789.242 117.615 789.234C119.681 789.242 120.933 788.722 120.941 787.813C120.933 786.898 119.681 786.378 117.615 786.363C115.528 786.378 114.276 786.898 114.29 787.813Z" fill="#222222"/>
<circle cx="225" cy="730" r="31.5" fill="#EF403C"/>
<path d="M210.552 721.909H208.801V714.676L209.676 713.801H216.914V715.552H210.552V721.909Z" fill="white"/>
<path d="M241.187 721.909H239.436V715.552H233.074V713.801H240.311L241.187 714.676V721.909Z" fill="white"/>
<path d="M216.914 746.2H209.676L208.801 745.325V738.092H210.552V744.449H216.914V746.2Z" fill="white"/>
<path d="M240.311 746.2H233.074V744.449H239.436V738.092H241.187V745.325L240.311 746.2Z" fill="white"/>
<path d="M234.515 738.354H233.154V739.714H234.515V738.354Z" fill="white"/>
<path d="M234.515 735.627H233.154V736.987H234.515V735.627Z" fill="white"/>
<path d="M234.361 732H233V734.711H234.361V732Z" fill="white"/>
<path d="M233.153 737H231.793V738.36H233.153V737Z" fill="white"/>
<path d="M231.794 738.354H230.434V739.714H231.794V738.354Z" fill="white"/>
<path d="M230.437 735.635H229.076V738.353H230.437V735.635Z" fill="white"/>
<path d="M227.718 734.258H226.357V736.976H227.718V734.258Z" fill="white"/>
<path d="M233.154 735.619V734.258H230.436V735.619H233.154Z" fill="white"/>
<path d="M229.076 732.918V731.557H226.358V732.918H229.076Z" fill="white"/>
<path d="M229.076 738.354H226.357V739.715H229.076V738.354Z" fill="white"/>
<path d="M229.075 734.258H227.715V735.618H229.075V734.258Z" fill="white"/>
<path d="M230.437 732.898H229.076V734.259H230.437V732.898Z" fill="white"/>
<path d="M231.794 731.547H230.434V732.907H231.794V731.547Z" fill="white"/>
<path d="M226.357 721.09V729.31H234.578V721.09H226.357ZM232.526 727.258H228.415V723.148H232.526V727.258Z" fill="white"/>
<path d="M216.09 731.498V739.719H224.31V731.498H216.09ZM222.258 737.666H218.148V733.556H222.258V737.666Z" fill="white"/>
<path d="M216.09 721.09V729.31H224.31V721.09H216.09ZM222.258 727.258H218.148V723.148H222.258V727.258Z" fill="white"/>
<path d="M205.751 785.675H207.187L208.308 787.14C209.099 786.444 209.597 785.279 209.604 783.697C209.597 780.958 208.11 779.479 206.191 779.479C204.272 779.479 202.785 780.958 202.778 783.697C202.785 786.429 204.272 787.909 206.191 787.916C206.586 787.916 206.967 787.85 207.319 787.726L205.751 785.675ZM201.503 783.697C201.496 780.343 203.466 778.248 206.191 778.248C208.908 778.248 210.886 780.343 210.878 783.697C210.886 785.682 210.197 787.22 209.069 788.15L210.454 789.996H209.018L208.095 788.758C207.524 789.015 206.879 789.146 206.191 789.146C203.466 789.146 201.496 787.052 201.503 783.697ZM212.512 789V778.395H216.115C218.598 778.395 219.734 779.771 219.734 781.661C219.734 783.067 219.104 784.166 217.756 784.635L220.144 789H218.606L216.386 784.876C216.306 784.884 216.218 784.884 216.13 784.884H213.83V789H212.512ZM213.83 783.683H216.071C217.763 783.683 218.423 782.921 218.43 781.661C218.423 780.394 217.763 779.566 216.057 779.566H213.83V783.683ZM235.291 777.164V790.187H234.192V777.164H235.291ZM223.997 786.715C225.813 785.631 226.875 783.25 226.868 780.885V779.654H224.363V778.702H230.369V779.654H227.981V780.885C227.981 783.133 228.999 785.382 230.794 786.422L230.091 787.271C228.809 786.502 227.901 785.096 227.447 783.441C226.978 785.235 226.033 786.766 224.729 787.579L223.997 786.715ZM229.373 782.804V781.866H231.57V777.486H232.654V789.513H231.57V782.804H229.373ZM248.687 782.965V783.858H243.311V785.074H247.164V787.887H239.429V789.161H247.559V790.04H238.287V787.066H246.036V785.938H238.257V785.074H242.183V783.858H236.837V782.965H248.687ZM237.466 781.485C239.854 781.332 241.89 780.519 242.103 779.215H238.052V778.307H242.183V777.091H243.311V778.307H247.486V779.215H243.399C243.604 780.519 245.64 781.332 248.043 781.485L247.691 782.364C245.516 782.181 243.553 781.507 242.754 780.27C241.949 781.507 239.986 782.181 237.803 782.364L237.466 781.485Z" fill="#222222"/>
<path d="M347 748.25C346.238 748.25 345.604 747.987 345.058 747.442C344.513 746.896 344.25 746.262 344.25 745.5C344.25 744.738 344.513 744.104 345.058 743.558C345.604 743.013 346.238 742.75 347 742.75C347.762 742.75 348.396 743.013 348.942 743.558C349.487 744.104 349.75 744.738 349.75 745.5C349.75 746.262 349.487 746.896 348.942 747.442C348.396 747.987 347.762 748.25 347 748.25ZM357.5 748.25C356.738 748.25 356.104 747.987 355.558 747.442C355.013 746.896 354.75 746.262 354.75 745.5C354.75 744.738 355.013 744.104 355.558 743.558C356.104 743.013 356.738 742.75 357.5 742.75C358.262 742.75 358.896 743.013 359.442 743.558C359.987 744.104 360.25 744.738 360.25 745.5C360.25 746.262 359.987 746.896 359.442 747.442C358.896 747.987 358.262 748.25 357.5 748.25ZM368 748.25C367.238 748.25 366.604 747.987 366.058 747.442C365.513 746.896 365.25 746.262 365.25 745.5C365.25 744.738 365.513 744.104 366.058 743.558C366.604 743.013 367.238 742.75 368 742.75C368.762 742.75 369.396 743.013 369.942 743.558C370.487 744.104 370.75 744.738 370.75 745.5C370.75 746.262 370.487 746.896 369.942 747.442C369.396 747.987 368.762 748.25 368 748.25Z" stroke="#7C8189" stroke-width="1.5"/>
<path d="M345.163 778.409V779.376H340.344V786.012C342.695 786.019 344.24 785.938 346.042 785.587L346.188 786.539C344.27 786.905 342.68 786.993 340.183 786.993H339.187V778.409H345.163ZM344.387 782.862V781.91H348.181V777.164H349.338V790.216H348.181V782.862H344.387ZM363.115 787.564V788.517H351.191V787.564H356.553V784.752H352.597V778.087H353.755V780.445H360.522V778.087H361.65V784.752H357.68V787.564H363.115ZM353.755 783.814H360.522V781.383H353.755V783.814ZM374.622 777.164V790.187H373.464V777.164H374.622ZM364.016 786.803C367.539 785.133 369.341 782.635 369.597 779.522H364.617V778.585H370.769C370.754 782.328 369.011 785.646 364.646 787.74L364.016 786.803Z" fill="#222222"/>
</g>
<defs>
<filter id="filter0_d_263_2205" x="36" y="88" width="382" height="545" filterUnits="userSpaceOnUse" color-interpolation-filters="sRGB">
<feFlood flood-opacity="0" result="BackgroundImageFix"/>
<feColorMatrix in="SourceAlpha" type="matrix" values="0 0 0 0 0 0 0 0 0 0 0 0 0 0 0 0 0 0 127 0" result="hardAlpha"/>
<feOffset dx="2" dy="6"/>
<feGaussianBlur stdDeviation="3"/>
<feComposite in2="hardAlpha" operator="out"/>
<feColorMatrix type="matrix" values="0 0 0 0 0 0 0 0 0 0 0 0 0 0 0 0 0 0 0.25 0"/>
<feBlend mode="normal" in2="BackgroundImageFix" result="effect1_dropShadow_263_2205"/>
<feBlend mode="normal" in="SourceGraphic" in2="effect1_dropShadow_263_2205" result="shape"/>
</filter>
<filter id="filter1_d_263_2205" x="419" y="88" width="382" height="545" filterUnits="userSpaceOnUse" color-interpolation-filters="sRGB">
<feFlood flood-opacity="0" result="BackgroundImageFix"/>
<feColorMatrix in="SourceAlpha" type="matrix" values="0 0 0 0 0 0 0 0 0 0 0 0 0 0 0 0 0 0 127 0" result="hardAlpha"/>
<feOffset dx="2" dy="6"/>
<feGaussianBlur stdDeviation="3"/>
<feComposite in2="hardAlpha" operator="out"/>
<feColorMatrix type="matrix" values="0 0 0 0 0 0 0 0 0 0 0 0 0 0 0 0 0 0 0.25 0"/>
<feBlend mode="normal" in2="BackgroundImageFix" result="effect1_dropShadow_263_2205"/>
<feBlend mode="normal" in="SourceGraphic" in2="effect1_dropShadow_263_2205" result="shape"/>
</filter>
<linearGradient id="paint0_linear_263_2205" x1="225" y1="88" x2="225" y2="621" gradientUnits="userSpaceOnUse">
<stop stop-color="#E76065"/>
<stop offset="1" stop-color="#DD507B"/>
</linearGradient>
<linearGradient id="paint1_linear_263_2205" x1="608" y1="88" x2="608" y2="621" gradientUnits="userSpaceOnUse">
<stop stop-color="#3E51B7"/>
<stop offset="1" stop-color="#252C7C"/>
</linearGradient>
<clipPath id="clip0_263_2205">
<rect width="450" height="851" fill="white"/>
</clipPath>
<clipPath id="clip1_263_2205">
<rect width="450" height="654" fill="white"/>
</clipPath>
<clipPath id="clip2_263_2205">
<rect width="157.661" height="18" fill="white" transform="translate(40 50)"/>
</clipPath>
<clipPath id="clip3_263_2205">
<path d="M40 120C40 102.327 54.3269 88 72 88H334C375.974 88 410 122.026 410 164V589C410 606.673 395.673 621 378 621H72C54.3269 621 40 606.673 40 589V120Z" fill="white"/>
</clipPath>
<clipPath id="clip4_263_2205">
<rect x="70" y="309" width="66" height="66" rx="24" fill="white"/>
</clipPath>
<clipPath id="clip5_263_2205">
<path d="M423 120C423 102.327 437.327 88 455 88H717C758.974 88 793 122.026 793 164V589C793 606.673 778.673 621 761 621H455C437.327 621 423 606.673 423 589V120Z" fill="white"/>
</clipPath>
</defs>
</svg>
