<svg width="450" height="851" viewBox="0 0 450 851" fill="none" xmlns="http://www.w3.org/2000/svg">
<rect width="450" height="851" fill="white"/>
<g clip-path="url(#clip0_263_860)">
<path d="M34.3254 20H20.3748C20.1678 20 20 20.1682 20 20.3758V39.6242C20 39.8318 20.1678 40 20.3748 40H34.3254C34.5324 40 34.7002 39.8318 34.7002 39.6242V20.3758C34.7002 20.1682 34.5324 20 34.3254 20Z" fill="#FF3A4A"/>
<path d="M83.7063 20H69.7557C69.5487 20 69.3809 20.1682 69.3809 20.3758V39.6242C69.3809 39.8318 69.5487 40 69.7557 40H83.7063C83.9133 40 84.0811 39.8318 84.0811 39.6242V20.3758C84.0811 20.1682 83.9133 20 83.7063 20Z" fill="#FF3A4A"/>
<path d="M67.2473 20H53.2967C53.0897 20 52.9219 20.1682 52.9219 20.3758V39.6242C52.9219 39.8318 53.0897 40 53.2967 40H67.2473C67.4543 40 67.6221 39.8318 67.6221 39.6242V20.3758C67.6221 20.1682 67.4543 20 67.2473 20Z" fill="#FF3A4A"/>
<path d="M50.7864 20H36.8358C36.6287 20 36.4609 20.1682 36.4609 20.3758V39.6242C36.4609 39.8318 36.6287 40 36.8358 40H50.7864C50.9934 40 51.1612 39.8318 51.1612 39.6242V20.3758C51.1612 20.1682 50.9934 20 50.7864 20Z" fill="#FF3A4A"/>
<path d="M60.2141 22.5611C59.2109 22.5462 58.1944 22.8237 57.4104 23.4561C56.6493 24.0988 56.2825 25.1285 56.353 26.111C56.2591 26.9369 56.3849 27.7967 56.8264 28.5108C57.4103 29.5933 58.5689 30.1415 59.4646 30.9206C60.2381 31.5202 61.1773 32.0587 61.5586 33.0098C61.6957 33.6387 61.7622 34.4193 61.3042 34.9351C60.7553 35.5017 59.7502 35.478 59.1583 34.9954C58.9861 34.8513 58.7665 34.5951 58.7665 34.3024C58.7665 33.697 58.7638 32.9769 58.7638 32.9769H56.333C56.333 34.3457 56.2722 34.9698 56.8184 35.8056C57.4013 36.8186 58.5671 37.3712 59.7062 37.4334C60.21 37.4657 60.7246 37.4919 61.2173 37.3603C62.2661 37.1853 63.2003 36.5153 63.7265 35.5946C64.1932 34.6801 64.0868 33.6183 63.9792 32.6351C63.7572 31.5525 62.9522 30.7201 62.0834 30.0996C61.1263 29.3213 60.036 28.6881 59.2081 27.7622C58.6794 27.2309 58.7741 26.4643 58.7865 25.7838C58.7954 25.07 59.468 24.681 60.1797 24.663C60.8915 24.6452 61.6493 25.1559 61.6493 26.0156V27.0904H64.0711C64.0711 25.9584 64.0906 25.5307 63.8795 24.7876C63.4644 23.6455 62.3649 22.8931 61.204 22.6713C60.8816 22.6036 60.5486 22.5662 60.2142 22.5612L60.2141 22.5611ZM76.6656 22.5611C75.6622 22.5462 74.6456 22.8237 73.8617 23.4561C73.1005 24.0988 72.7338 25.1285 72.8043 26.111C72.7104 26.9369 72.8361 27.7967 73.2777 28.5108C73.8616 29.5933 75.0201 30.1415 75.9158 30.9206C76.6894 31.5202 77.6287 32.0587 78.01 33.0098C78.1472 33.6387 78.2135 34.4193 77.7556 34.9351C77.2066 35.5017 76.2015 35.478 75.6095 34.9954C75.4374 34.8513 75.2178 34.5951 75.2178 34.3024C75.2178 33.697 75.2151 32.9769 75.2151 32.9769H72.7842C72.7842 34.3457 72.7234 34.9698 73.2696 35.8056C73.8526 36.8186 75.0184 37.3712 76.1575 37.4334C76.6613 37.4657 77.1758 37.4919 77.6685 37.3603C78.7174 37.1853 79.6517 36.5153 80.1778 35.5946C80.6445 34.6801 80.5381 33.6183 80.4306 32.6351C80.2085 31.5525 79.4035 30.7201 78.5346 30.0996C77.5775 29.3213 76.4873 28.6881 75.6594 27.7622C75.1308 27.2309 75.2253 26.4643 75.2378 25.7838C75.2465 25.07 75.9192 24.681 76.631 24.663C77.3427 24.6452 78.1006 25.1559 78.1006 26.0156V27.0904H80.5224C80.5224 25.9584 80.542 25.5307 80.3308 24.7876C79.9156 23.6455 78.8162 22.8931 77.6553 22.6713C77.3329 22.6036 77 22.5661 76.6656 22.5611ZM27.2079 22.7225C26.9321 22.7237 26.6463 22.729 26.3476 22.729C25.1528 22.729 24.6146 22.7417 23.748 22.729V37.2116H26.0453V32.848C27.3295 32.8146 28.7368 33.0269 29.8755 32.2831C30.7953 31.7409 31.2947 30.6383 31.1872 29.5854C31.1644 28.1003 31.2184 26.6094 31.1583 25.1274C30.9499 24.2052 30.3881 23.419 29.4957 23.0822C28.772 22.7527 28.0351 22.7189 27.2079 22.7225ZM42.0753 22.7656L39.6475 37.2722H41.9311L42.3327 34.7268H45.3178L45.7081 37.2116H48.0319L45.6055 22.7655L42.0753 22.7656ZM26.0453 24.9307H27.8834C28.7743 24.9307 29.0035 25.6136 29.0035 26.1178V29.5753C29.0035 30.1513 28.4661 30.545 27.9482 30.545H26.0453V24.9307ZM43.8365 25.3631L45.0294 32.545H42.6703L43.8365 25.3631Z" fill="white"/>
</g>
<path d="M32.2344 71.2812V81.4844H30.4844V71.2812H32.2344ZM20.7188 75.7344C20.7188 73.6797 22.3828 72.2109 24.5312 72.2031C26.6797 72.2109 28.3359 73.6797 28.3281 75.7344C28.3359 77.8203 26.6797 79.2812 24.5312 79.2812C22.3828 79.2812 20.7188 77.8203 20.7188 75.7344ZM22.4219 75.7344C22.4141 76.9844 23.3203 77.7656 24.5312 77.7656C25.7109 77.7656 26.625 76.9844 26.625 75.7344C26.625 74.5156 25.7109 73.7188 24.5312 73.7188C23.3203 73.7188 22.4141 74.5156 22.4219 75.7344ZM22.8906 85.1094V80.4531H24.6406V83.7031H32.625V85.1094H22.8906ZM46.8519 77.8438V79.25H33.9769V77.8438H46.8519ZM34.6019 75.8438C37.2191 75.5859 38.9222 74.5391 39.1878 73.3594H35.1488V71.9375H45.6956V73.3594H41.6175C41.8753 74.5234 43.5628 75.5859 46.2425 75.8438L45.6331 77.2188C43.0628 76.9531 41.1644 75.9297 40.3988 74.5C39.6331 75.9297 37.7581 76.9531 35.1956 77.2188L34.6019 75.8438ZM35.4769 82.7812C35.4769 81.1406 37.3284 80.1875 40.3988 80.1875C43.4456 80.1875 45.2816 81.1406 45.2894 82.7812C45.2816 84.4453 43.4456 85.375 40.3988 85.375C37.3284 85.375 35.4769 84.4453 35.4769 82.7812ZM37.2425 82.7812C37.2347 83.6016 38.3441 84.0078 40.3988 84.0156C42.4222 84.0078 43.5394 83.6016 43.555 82.7812C43.5394 81.9609 42.4222 81.5469 40.3988 81.5469C38.3441 81.5469 37.2347 81.9609 37.2425 82.7812ZM59.3131 71.2812V81.7031H57.5788V76.5H54.735V79.4062H48.1256V72.2031H49.86V74.4844H53.0163V72.2031H54.735V75.0938H57.5788V71.2812H59.3131ZM49.86 78.0312H53.0163V75.8281H49.86V78.0312ZM50.0006 85.1094V80.6719H51.7663V83.7031H59.6256V85.1094H50.0006ZM73.2431 73.1562V74.5625H61.5713V73.1562H66.5556V71.4531H68.2744V73.1562H73.2431ZM60.9931 83.875V82.4688H66.5556V80.7344C64.1181 80.5469 62.6416 79.5625 62.6494 78C62.6416 76.2969 64.4697 75.2812 67.415 75.2812C70.3213 75.2812 72.1728 76.2969 72.165 78C72.1728 79.5547 70.6806 80.5391 68.2744 80.7344V82.4688H73.8994V83.875H60.9931ZM64.4306 78C64.4228 78.9062 65.4931 79.3672 67.415 79.375C69.2978 79.3672 70.3838 78.9062 70.3838 78C70.3838 77.1094 69.2978 76.6484 67.415 76.6406C65.4931 76.6484 64.4228 77.1094 64.4306 78Z" fill="#222222"/>
<mask id="path-7-inside-1_263_860" fill="white">
<path d="M20 106H430V141H20V106Z"/>
</mask>
<path d="M430 140H20V142H430V140Z" fill="#777777" mask="url(#path-7-inside-1_263_860)"/>
<path d="M32.4365 123.111V124.063H27.002V125.528H25.874V124.063H20.5273V123.111H32.4365ZM21.2012 121.236C23.5229 120.951 25.874 119.581 25.874 117.94V117.325H27.0605V117.94C27.0532 119.552 29.4263 120.951 31.7334 121.236L31.3086 122.13C29.2871 121.844 27.3022 120.848 26.4673 119.413C25.6396 120.855 23.6475 121.844 21.626 122.13L21.2012 121.236ZM21.3916 129.249C23.7207 129.007 25.8447 127.953 25.8447 126.539V126.114H27.0166V126.539C27.0239 127.975 29.126 129.007 31.4844 129.249L31.1182 130.128C29.0601 129.901 27.207 129.117 26.4307 127.872C25.6543 129.103 23.8159 129.901 21.7725 130.128L21.3916 129.249ZM37.6004 121.163C37.5857 123.25 39.0945 125.55 40.9842 126.451L40.325 127.359C38.8602 126.642 37.6224 125.104 37.0364 123.338C36.4358 125.25 35.1321 126.935 33.6746 127.682L32.9715 126.773C34.8465 125.858 36.4578 123.382 36.4725 121.163V119.464H33.4402V118.512H40.5301V119.464H37.6004V121.163ZM42.1268 130.187V117.164H43.2693V122.438H45.452V123.419H43.2693V130.187H42.1268ZM53.4799 129.146C51.6415 129.125 49.6127 128.033 49.6127 124.107C49.6127 120.35 51.1508 118.248 53.641 118.248C55.5087 118.248 56.8124 119.398 57.0834 121.061H55.7797C55.538 120.123 54.8202 119.42 53.641 119.42C51.8979 119.42 50.8505 120.907 50.8578 123.463H50.9896C51.5976 122.577 52.5717 122.057 53.7143 122.057C55.5966 122.057 57.1713 123.521 57.1713 125.572C57.1713 127.572 55.7138 129.168 53.4799 129.146ZM51.0336 125.602C51.0409 126.847 52.059 127.982 53.4799 127.989C54.8495 127.982 55.8896 126.905 55.8969 125.587C55.8896 124.283 54.8935 123.221 53.5092 123.214C52.1176 123.221 51.0482 124.349 51.0336 125.602ZM62.6281 121.163C62.6135 123.25 64.1223 125.55 66.0119 126.451L65.3527 127.359C63.8879 126.642 62.6501 125.104 62.0642 123.338C61.4636 125.25 60.1599 126.935 58.7023 127.682L57.9992 126.773C59.8742 125.858 61.4855 123.382 61.5002 121.163V119.464H58.468V118.512H65.5578V119.464H62.6281V121.163ZM67.1545 130.187V117.164H68.2971V122.438H70.4797V123.419H68.2971V130.187H67.1545ZM81.6348 117.164V130.216H80.4922V117.164H81.6348ZM71.6152 119.332V118.38H77.6797V123.009H72.8164V126.085C74.9771 126.092 76.9033 125.99 79.2324 125.616L79.3496 126.583C76.9546 126.957 74.9771 127.052 72.7285 127.052H71.6445V122.071H76.5225V119.332H71.6152ZM97.7633 117.164V124.151H96.6207V117.164H97.7633ZM87.3189 120.797C87.3116 119.017 88.7545 117.794 90.732 117.809C92.7096 117.794 94.1378 119.017 94.1451 120.797C94.1378 122.569 92.7096 123.792 90.732 123.785C88.7545 123.792 87.3116 122.569 87.3189 120.797ZM88.4469 120.797C88.4322 121.983 89.3917 122.826 90.732 122.833C92.0577 122.826 93.0172 121.983 93.0172 120.797C93.0172 119.603 92.0577 118.768 90.732 118.775C89.3917 118.768 88.4322 119.603 88.4469 120.797ZM89.3258 130.011V124.811H90.4684V126.393H96.6207V124.811H97.7633V130.011H89.3258ZM90.4684 129.073H96.6207V127.315H90.4684V129.073ZM105.857 117.97V121.617H101.374V123.639C103.821 123.646 105.088 123.595 106.619 123.316L106.736 124.269C105.117 124.532 103.791 124.576 101.155 124.576H100.232V120.738H104.714V118.893H100.203V117.97H105.857ZM101.697 126.817V125.88H110.471V130.216H109.314V126.817H101.697ZM106.721 122.76V121.808H109.314V120.05H106.721V119.112H109.314V117.179H110.471V125.177H109.314V122.76H106.721Z" fill="#777777"/>
<path d="M30.708 162.179V165.167H32.6855V166.134H30.708V169.532H29.5654V162.179H30.708ZM21.1572 168.536V162.838H22.3145V167.569C24.1748 167.562 26.0864 167.416 28.1885 166.983L28.335 167.95C26.123 168.397 24.1528 168.529 22.1973 168.536H21.1572ZM22.4609 175.011V170.25H30.708V175.011H22.4609ZM23.5889 174.073H29.5947V171.158H23.5889V174.073ZM45.0564 169.034V169.972H33.1912V169.034H45.0564ZM34.5096 165.211C34.5096 163.578 36.2967 162.618 39.1238 162.633C41.9217 162.618 43.7161 163.578 43.7234 165.211C43.7161 166.83 41.9217 167.804 39.1238 167.804C36.2967 167.804 34.5096 166.83 34.5096 165.211ZM34.7293 174.908V171.114H35.8865V173.941H43.7381V174.908H34.7293ZM35.6961 165.211C35.6888 166.244 37.0218 166.866 39.1238 166.866C41.2112 166.866 42.5442 166.244 42.5516 165.211C42.5442 164.193 41.2112 163.556 39.1238 163.556C37.0218 163.556 35.6888 164.193 35.6961 165.211ZM50.484 165.665C50.4767 168.045 52.0953 170.433 54.0143 171.305L53.3111 172.213C51.8243 171.495 50.5426 169.95 49.92 168.097C49.3194 170.06 48.0377 171.708 46.5143 172.477L45.7818 171.51C47.7228 170.624 49.3268 168.133 49.3414 165.665V163.292H50.484V165.665ZM55.4352 175.216V162.164H56.5924V175.216H55.4352ZM68.6996 162.164V166.134H70.6625V167.101H68.6996V171.7H67.5424V162.164H68.6996ZM58.5336 169.269C61.661 168.294 63.6898 166.441 63.9315 164.142H59.0756V163.175H65.184C65.184 166.529 62.789 169.02 59.0316 170.191L58.5336 169.269ZM60.5404 174.908V170.733H61.683V173.941H69.3002V174.908H60.5404Z" fill="#777777"/>
<path d="M77.835 174L77.8203 172.403L81.6289 168.902C82.6177 167.958 83.1523 167.372 83.1523 166.529C83.1523 165.584 82.4419 164.999 81.4678 165.006C80.4717 164.999 79.8198 165.628 79.8271 166.646H77.7324C77.7251 164.574 79.2632 163.248 81.4971 163.248C83.7676 163.248 85.2764 164.544 85.2764 166.383C85.2764 167.591 84.6904 168.58 82.5078 170.558L80.8965 172.125V172.184H85.4229V174H77.835ZM87.9793 172.711C87.2908 172.711 86.7342 172.162 86.7488 171.48C86.7342 170.807 87.2908 170.257 87.9793 170.265C88.6312 170.257 89.1951 170.807 89.1951 171.48C89.1951 172.162 88.6312 172.711 87.9793 172.711ZM86.7488 165.899C86.7342 165.226 87.2908 164.676 87.9793 164.684C88.6312 164.676 89.1951 165.226 89.1951 165.899C89.1951 166.581 88.6312 167.13 87.9793 167.13C87.2908 167.13 86.7342 166.581 86.7488 165.899ZM94.5201 174.146C92.3082 174.146 90.6896 172.843 90.6529 171.012H92.7916C92.8429 171.839 93.5973 172.411 94.5201 172.403C95.6187 172.411 96.4024 171.634 96.3951 170.528C96.4024 169.4 95.6041 168.617 94.4908 168.609C93.6925 168.609 93.1358 168.91 92.8209 169.503H90.8287L91.4 163.395H97.9332V165.196H93.2164L92.9234 167.877H93.0113C93.3995 167.357 94.2052 166.976 95.1354 166.983C97.0836 166.976 98.5338 168.434 98.5338 170.47C98.5338 172.616 96.9078 174.146 94.5201 174.146ZM103.595 163.248C105.792 163.255 107.872 164.566 107.872 168.419C107.88 172.022 106.173 174.146 103.507 174.146C101.376 174.146 99.911 172.806 99.6986 171.012H101.867C102.05 171.795 102.658 172.257 103.507 172.257C104.95 172.257 105.712 170.96 105.719 168.844H105.631C105.133 169.781 104.086 170.338 102.907 170.338C101.002 170.338 99.5961 168.902 99.5814 166.925C99.5814 164.793 101.2 163.241 103.595 163.248ZM101.735 166.866C101.735 167.914 102.504 168.727 103.595 168.727C104.672 168.727 105.499 167.87 105.499 166.852C105.485 165.841 104.694 164.984 103.61 164.977C102.526 164.984 101.72 165.812 101.735 166.866Z" fill="#FF3A4A"/>
<path d="M335.156 165.665C335.149 168.045 336.768 170.433 338.687 171.305L337.983 172.213C336.497 171.495 335.215 169.95 334.592 168.097C333.992 170.06 332.71 171.708 331.187 172.477L330.454 171.51C332.395 170.624 333.999 168.133 334.014 165.665V163.292H335.156V165.665ZM340.107 175.216V162.164H341.265V175.216H340.107ZM353.372 162.164V166.134H355.335V167.101H353.372V171.7H352.215V162.164H353.372ZM343.206 169.269C346.333 168.294 348.362 166.441 348.604 164.142H343.748V163.175H349.856C349.856 166.529 347.461 169.02 343.704 170.191L343.206 169.269ZM345.213 174.908V170.733H346.355V173.941H353.972V174.908H345.213ZM366.651 162.179V171.803H365.494V168.287H362.125C361.524 169.056 360.557 169.518 359.444 169.518C357.496 169.518 356.053 168.17 356.06 166.266C356.053 164.354 357.496 163.006 359.444 162.999C360.55 163.006 361.502 163.46 362.11 164.215H365.494V162.179H366.651ZM357.159 166.266C357.159 167.569 358.111 168.5 359.444 168.492C360.726 168.5 361.7 167.569 361.7 166.266C361.7 164.969 360.726 164.032 359.444 164.024C358.111 164.032 357.159 164.969 357.159 166.266ZM358.287 174.908V170.792H359.444V173.941H367.017V174.908H358.287ZM362.63 165.167C362.747 165.504 362.813 165.87 362.813 166.266C362.813 166.646 362.747 167.005 362.637 167.335H365.494V165.167H362.63ZM372.928 164.64C372.935 166.346 374.21 167.87 376.121 168.492L375.579 169.4C374.078 168.902 372.943 167.87 372.379 166.559C371.822 168.053 370.621 169.217 369.061 169.781L368.475 168.858C370.423 168.199 371.786 166.522 371.8 164.64V164.083H368.827V163.131H375.858V164.083H372.928V164.64ZM370.204 172.755C370.211 171.253 371.844 170.382 374.525 170.382C377.198 170.382 378.817 171.253 378.817 172.755C378.817 174.278 377.198 175.157 374.525 175.157C371.844 175.157 370.211 174.278 370.204 172.755ZM371.361 172.755C371.346 173.692 372.562 174.242 374.525 174.234C376.495 174.242 377.696 173.692 377.704 172.755C377.696 171.847 376.495 171.305 374.525 171.305C372.562 171.305 371.346 171.847 371.361 172.755ZM377.557 170.03V162.164H378.7V165.489H380.662V166.456H378.7V170.03H377.557Z" fill="#777777"/>
<path d="M330 176.395H380.955V177.413H330V176.395Z" fill="#777777"/>
<path d="M402.719 162.164V175.187H401.605V168.419H399.833V174.527H398.734V162.442H399.833V167.438H401.605V162.164H402.719ZM391.396 171.612C393.271 170.58 394.274 168.368 394.267 165.724V164.684H391.703V163.717H397.797V164.684H395.38V165.724C395.38 168.104 396.369 170.206 398.222 171.158L397.533 172.052C396.222 171.334 395.314 170.052 394.853 168.463C394.406 170.272 393.483 171.693 392.113 172.491L391.396 171.612ZM414.987 162.179V171.729H413.83V166.734H411.149V165.782H413.83V162.179H414.987ZM404.25 169.122C406.169 168.448 407.56 166.727 407.56 164.859V164.186H404.616V163.233H411.633V164.186H408.718V164.859C408.718 166.544 410.021 168.177 411.926 168.829L411.325 169.752C409.86 169.217 408.725 168.126 408.161 166.778C407.597 168.287 406.396 169.481 404.85 170.06L404.25 169.122ZM406.623 174.908V170.865H407.78V173.941H415.353V174.908H406.623ZM423.344 166.72V168.639H428.72V169.576H416.855V168.639H422.216V166.72H423.344ZM417.573 166.485C419.873 166.17 422.202 164.72 422.202 162.984V162.369H423.359V162.984C423.359 164.72 425.703 166.17 428.003 166.485L427.534 167.408C425.564 167.064 423.601 166.017 422.788 164.515C421.967 166.031 420.012 167.064 418.012 167.408L417.573 166.485ZM418.291 172.916C418.283 171.473 419.961 170.667 422.788 170.66C425.586 170.667 427.255 171.473 427.27 172.916C427.255 174.366 425.586 175.157 422.788 175.157C419.961 175.157 418.283 174.366 418.291 172.916ZM419.462 172.916C419.448 173.773 420.678 174.271 422.788 174.264C424.875 174.271 426.106 173.773 426.113 172.916C426.106 172.052 424.875 171.568 422.788 171.568C420.678 171.568 419.448 172.052 419.462 172.916Z" fill="#777777"/>
<path d="M391 176.395H429.292V177.413H391V176.395Z" fill="#777777"/>
<rect x="20.5" y="206.5" width="199" height="45" rx="3.5" fill="#DDDDDD"/>
<rect x="20.5" y="206.5" width="199" height="45" rx="3.5" stroke="#CCCCCC"/>
<path d="M111.77 224.408C111.761 225.811 113.098 227.04 115.273 227.496L114.625 228.725C112.915 228.334 111.653 227.479 110.998 226.351C110.358 227.579 109.08 228.517 107.32 228.924L106.656 227.695C108.856 227.222 110.184 225.894 110.192 224.408H106.988V223.163H110.192V221.569H111.77V223.163H114.957V224.408H111.77ZM106.009 229.837C108.831 229.837 112.566 229.812 115.804 229.405L115.92 230.551C114.559 230.775 113.156 230.916 111.786 230.999V235.963H110.209V231.082C108.781 231.14 107.42 231.148 106.225 231.148L106.009 229.837ZM116.833 236.411V221.553H118.394V236.411H116.833ZM133.991 233.224V234.519H120.378V233.224H126.338V229.688H127.898V233.224H133.991ZM120.843 228.658C123.706 228.177 126.263 225.969 126.271 223.611V222.482H127.932V223.611C127.932 225.969 130.521 228.177 133.393 228.658L132.713 229.953C130.297 229.48 128.089 227.986 127.11 225.952C126.13 227.978 123.939 229.48 121.54 229.953L120.843 228.658Z" fill="#777777"/>
<rect x="230" y="206" width="200" height="46" rx="4" fill="#373A3F"/>
<path d="M314.008 221.553V232.36H312.431V221.553H314.008ZM301.972 226.234C301.98 224.084 303.69 222.557 305.94 222.549C308.181 222.557 309.891 224.084 309.891 226.234C309.891 228.417 308.181 229.937 305.94 229.937C303.69 229.937 301.98 228.417 301.972 226.234ZM303.516 226.234C303.508 227.637 304.553 228.559 305.94 228.559C307.301 228.559 308.347 227.637 308.347 226.234C308.347 224.865 307.301 223.927 305.94 223.927C304.553 223.927 303.508 224.865 303.516 226.234ZM304.28 236.096V231.265H305.873V234.817H314.456V236.096H304.28ZM329.589 228.542V229.82H316.025V228.542H329.589ZM316.739 226.517C319.437 226.226 321.57 225.014 321.745 223.562H317.271V222.267H328.377V223.562H323.853C324.036 225.006 326.136 226.226 328.892 226.517L328.327 227.762C325.746 227.463 323.612 226.375 322.807 224.807C321.985 226.375 319.869 227.463 317.287 227.762L316.739 226.517ZM317.636 233.688C317.636 231.962 319.57 230.966 322.799 230.966C326.003 230.966 327.92 231.962 327.929 233.688C327.92 235.415 326.003 236.386 322.799 236.378C319.57 236.386 317.636 235.415 317.636 233.688ZM319.23 233.688C319.221 234.626 320.524 235.141 322.799 235.133C325.04 235.141 326.352 234.626 326.352 233.688C326.352 232.726 325.04 232.211 322.799 232.194C320.524 232.211 319.221 232.726 319.23 233.688ZM342.082 221.553V225.969H344.207V227.264H342.082V231.563H340.505V221.553H342.082ZM330.278 229.903C331.432 229.903 332.768 229.903 334.163 229.87V228.866C332.47 228.675 331.391 227.878 331.407 226.683C331.391 225.321 332.81 224.475 334.943 224.491C337.077 224.475 338.471 225.321 338.479 226.683C338.471 227.87 337.417 228.667 335.74 228.866V229.812C337.068 229.746 338.413 229.638 339.658 229.455L339.791 230.584C336.595 231.14 333.067 231.165 330.444 231.165L330.278 229.903ZM330.66 223.993V222.814H334.163V221.42H335.74V222.814H339.243V223.993H330.66ZM332.138 233.489V232.261H342.082V236.411H340.505V233.489H332.138ZM332.901 226.683C332.901 227.38 333.673 227.836 334.943 227.828C336.197 227.836 336.977 227.38 336.969 226.683C336.977 225.969 336.197 225.554 334.943 225.57C333.673 225.554 332.901 225.969 332.901 226.683ZM357.065 221.553V232.36H355.488V221.553H357.065ZM345.029 226.234C345.037 224.084 346.747 222.557 348.997 222.549C351.238 222.557 352.948 224.084 352.948 226.234C352.948 228.417 351.238 229.937 348.997 229.937C346.747 229.937 345.037 228.417 345.029 226.234ZM346.573 226.234C346.565 227.637 347.611 228.559 348.997 228.559C350.358 228.559 351.404 227.637 351.404 226.234C351.404 224.865 350.358 223.927 348.997 223.927C347.611 223.927 346.565 224.865 346.573 226.234ZM347.337 236.096V231.265H348.93V234.817H357.513V236.096H347.337Z" fill="white"/>
<rect x="20" y="282" width="410" height="180" rx="14" fill="#F9F9F9"/>
<path d="M54.8828 306.553V317.36H53.3057V306.553H54.8828ZM42.8467 311.234C42.855 309.084 44.5649 307.557 46.8145 307.549C49.0557 307.557 50.7656 309.084 50.7656 311.234C50.7656 313.417 49.0557 314.937 46.8145 314.937C44.5649 314.937 42.855 313.417 42.8467 311.234ZM44.3906 311.234C44.3823 312.637 45.4282 313.559 46.8145 313.559C48.1758 313.559 49.2217 312.637 49.2217 311.234C49.2217 309.865 48.1758 308.927 46.8145 308.927C45.4282 308.927 44.3823 309.865 44.3906 311.234ZM45.1543 321.096V316.265H46.748V319.817H55.3311V321.096H45.1543ZM70.4637 313.542V314.82H56.9002V313.542H70.4637ZM57.6141 311.517C60.3119 311.226 62.4452 310.014 62.6195 308.562H58.1454V307.267H69.2518V308.562H64.7279C64.9105 310.006 67.0106 311.226 69.7664 311.517L69.202 312.762C66.6204 312.463 64.4871 311.375 63.682 309.807C62.8602 311.375 60.7435 312.463 58.162 312.762L57.6141 311.517ZM58.5106 318.688C58.5106 316.962 60.4447 315.966 63.6737 315.966C66.8778 315.966 68.7953 316.962 68.8036 318.688C68.7953 320.415 66.8778 321.386 63.6737 321.378C60.4447 321.386 58.5106 320.415 58.5106 318.688ZM60.1043 318.688C60.096 319.626 61.3993 320.141 63.6737 320.133C65.9149 320.141 67.2264 319.626 67.2264 318.688C67.2264 317.726 65.9149 317.211 63.6737 317.194C61.3993 317.211 60.096 317.726 60.1043 318.688ZM83.654 306.553V317.543H82.0768V311.932H78.8229V315.069H71.9665V307.532H73.5436V310.056H77.2624V307.532H78.8229V310.653H82.0768V306.553H83.654ZM73.5436 313.791H77.2624V311.268H73.5436V313.791ZM73.9421 321.096V316.464H75.5358V319.817H83.986V321.096H73.9421ZM98.4878 308.628V309.906H86.2525V308.628H91.5982V306.752H93.1587V308.628H98.4878ZM85.605 319.734V318.456H91.5982V316.489C88.9917 316.323 87.4063 315.293 87.4146 313.642C87.4063 311.849 89.3071 310.794 92.3784 310.803C95.4082 310.794 97.334 311.849 97.3257 313.642C97.334 315.293 95.732 316.323 93.1587 316.489V318.456H99.2183V319.734H85.605ZM89.0249 313.642C89.0083 314.679 90.2534 315.244 92.3784 315.252C94.4702 315.244 95.7237 314.679 95.7154 313.642C95.7237 312.612 94.4702 312.048 92.3784 312.048C90.2534 312.048 89.0083 312.612 89.0249 313.642ZM117.364 314.057V315.335H111.454V318.224H109.894V315.335H103.751V314.057H117.364ZM105.445 321.096V316.812H107.022V319.817H115.854V321.096H105.445ZM105.494 312.513V307.233H115.605V312.513H105.494ZM107.038 311.268H114.044V308.479H107.038V311.268ZM123.3 310.919C123.292 313.268 124.844 315.891 127.102 316.962L126.205 318.19C124.537 317.394 123.209 315.717 122.536 313.774C121.856 315.891 120.461 317.726 118.768 318.572L117.838 317.327C120.096 316.24 121.731 313.434 121.739 310.919V309.342H118.386V308.03H126.537V309.342H123.3V310.919ZM128.131 321.411V306.536H129.708V312.43H132.099V313.758H129.708V321.411H128.131ZM146.069 313.359V314.571H132.456V313.359H146.069ZM134.066 316.746V315.617H144.392V318.888H135.66V320.116H144.857V321.229H134.083V317.842H142.832V316.746H134.066ZM134.166 308.03V306.918H144.359V310.139H135.76V311.268H144.608V312.38H134.199V309.093H142.782V308.03H134.166ZM162.472 307.15V312.181H158.189V313.808H164.199V315.086H150.635V313.808H156.645V312.181H152.362V307.15H162.472ZM151.648 320.083C154.512 319.693 156.604 318.224 156.612 316.364V315.933H158.206V316.364C158.197 318.224 160.289 319.693 163.186 320.083L162.588 321.328C160.256 320.963 158.314 319.934 157.409 318.406C156.496 319.934 154.562 320.963 152.229 321.328L151.648 320.083ZM153.906 310.919H160.912V308.396H153.906V310.919ZM180.486 306.536V310.056H182.644V311.367H180.486V315.219H178.908V306.536H180.486ZM169.379 314.355V307.383H170.923V309.541H174.824V307.383H176.385V314.355H169.379ZM170.923 313.11H174.824V310.786H170.923V313.11ZM171.006 321.195V315.999H180.602V317.261H172.583V319.95H180.867V321.195H171.006ZM189.924 307.433C193.045 307.433 195.419 309.084 195.419 311.583C195.419 314.098 193.045 315.742 189.924 315.733C186.811 315.742 184.437 314.098 184.445 311.583C184.437 309.084 186.811 307.433 189.924 307.433ZM183.15 319.485V318.174H196.764V319.485H183.15ZM185.956 311.583C185.948 313.318 187.641 314.438 189.924 314.438C192.198 314.438 193.883 313.318 193.892 311.583C193.883 309.856 192.198 308.703 189.924 308.711C187.641 308.703 185.948 309.856 185.956 311.583ZM209.904 306.536V315.202H208.327V312.396H205.521V311.118H208.327V309.508H205.521V308.229H208.327V306.536H209.904ZM197.486 313.774C199.81 312.903 201.163 310.853 201.172 308.578V307.084H202.732V308.578C202.732 310.67 204.06 312.712 206.302 313.542L205.405 314.787C203.803 314.156 202.608 312.903 201.969 311.342C201.33 313.019 200.084 314.347 198.366 315.02L197.486 313.774ZM198.333 320.033C200.234 319.369 201.255 317.792 201.271 316.348V315.733H202.782V316.348C202.782 317.634 203.421 318.987 204.766 319.809C206.127 318.921 206.775 317.477 206.783 316.348V315.733H208.327V316.348C208.327 317.883 209.34 319.411 211.315 320.033L210.502 321.212C209.041 320.689 208.045 319.693 207.53 318.464C207.057 319.66 206.169 320.772 204.791 321.345C203.372 320.805 202.475 319.743 202.01 318.522C201.471 319.693 200.499 320.689 199.097 321.212L198.333 320.033ZM225.751 312.38V313.675H223.443V321.395H221.866V306.536H223.443V312.38H225.751ZM212.42 317.659V307.98H213.98V316.348C216.055 316.339 218.222 316.165 220.588 315.684L220.77 317.012C218.222 317.518 215.881 317.667 213.648 317.659H212.42ZM239.821 318.24V319.552H226.208V318.24H229.462V314.355C228.241 313.683 227.494 312.621 227.503 311.284C227.494 308.943 229.794 307.408 232.981 307.399C236.177 307.408 238.476 308.943 238.476 311.284C238.476 312.596 237.762 313.65 236.567 314.322V318.24H239.821ZM229.03 311.284C229.03 312.878 230.649 313.916 232.981 313.924C235.297 313.916 236.941 312.878 236.949 311.284C236.941 309.682 235.297 308.661 232.981 308.661C230.649 308.661 229.03 309.682 229.03 311.284ZM231.022 318.24H234.973V314.937C234.367 315.078 233.695 315.152 232.981 315.152C232.284 315.152 231.62 315.078 231.022 314.937V318.24ZM243 316.431C243.025 314.256 243.664 313.592 244.76 312.911C245.457 312.488 245.989 311.874 245.989 311.002C245.989 309.964 245.192 309.309 244.196 309.309C243.299 309.309 242.428 309.856 242.353 311.085H240.56C240.626 308.968 242.22 307.814 244.196 307.814C246.354 307.814 247.798 309.109 247.798 311.002C247.798 312.338 247.159 313.227 246.105 313.874C245.109 314.48 244.719 315.078 244.694 316.431V316.53H243V316.431ZM242.735 318.938C242.727 318.29 243.266 317.759 243.914 317.759C244.553 317.759 245.084 318.29 245.092 318.938C245.084 319.585 244.553 320.108 243.914 320.116C243.266 320.108 242.727 319.585 242.735 318.938Z" fill="#FF3A4A"/>
<path d="M44.0312 353.062C43.4844 353.055 43.0156 352.602 43.0312 352.047C43.0156 351.5 43.4844 351.047 44.0312 351.047C44.5859 351.047 45.0391 351.5 45.0312 352.047C45.0391 352.602 44.5859 353.055 44.0312 353.062ZM61.4694 344.375V351.828H60.2506V344.375H61.4694ZM50.3288 348.25C50.3209 346.352 51.86 345.047 53.9694 345.062C56.0788 345.047 57.6022 346.352 57.61 348.25C57.6022 350.141 56.0788 351.445 53.9694 351.438C51.86 351.445 50.3209 350.141 50.3288 348.25ZM51.5319 348.25C51.5163 349.516 52.5397 350.414 53.9694 350.422C55.3834 350.414 56.4069 349.516 56.4069 348.25C56.4069 346.977 55.3834 346.086 53.9694 346.094C52.5397 346.086 51.5163 346.977 51.5319 348.25ZM52.4694 358.078V352.531H53.6881V354.219H60.2506V352.531H61.4694V358.078H52.4694ZM53.6881 357.078H60.2506V355.203H53.6881V357.078ZM70.1025 345.234V349.125H65.3213V351.281C67.9306 351.289 69.2822 351.234 70.915 350.938L71.04 351.953C69.3134 352.234 67.8994 352.281 65.0869 352.281H64.1025V348.188H68.8838V346.219H64.0713V345.234H70.1025ZM65.665 354.672V353.672H75.0244V358.297H73.79V354.672H65.665ZM71.0244 350.344V349.328H73.79V347.453H71.0244V346.453H73.79V344.391H75.0244V352.922H73.79V350.344H71.0244ZM87.7669 344.375V350.109H90.095V351.125H87.7669V358.266H86.5481V344.375H87.7669ZM76.9388 347.625V346.609H80.5169V344.547H81.7356V346.609H85.2044V347.625H76.9388ZM77.7356 351.969C77.7278 350.094 79.1653 348.781 81.1419 348.781C83.1028 348.781 84.5325 350.094 84.5481 351.969C84.5325 353.852 83.1028 355.156 81.1419 355.156C79.1653 355.156 77.7278 353.852 77.7356 351.969ZM78.9075 351.969C78.8997 353.234 79.845 354.125 81.1419 354.109C82.4231 354.125 83.3606 353.234 83.3763 351.969C83.3606 350.711 82.4231 349.805 81.1419 349.812C79.845 349.805 78.8997 350.711 78.9075 351.969ZM101.994 344.391V354.578H100.775V344.391H101.994ZM90.6656 351.609C92.7672 350.789 94.1969 348.758 94.1969 346.562V345.172H95.4469V346.562C95.4313 348.68 96.8766 350.578 98.9469 351.328L98.3063 352.312C96.6969 351.695 95.4469 350.445 94.8297 348.844C94.2281 350.547 92.9625 351.914 91.3375 352.562L90.6656 351.609ZM93.025 357.969V353.641H94.2438V356.938H102.431V357.969H93.025ZM119.198 344.391V354.547H117.979V344.391H119.198ZM108.057 348.766C108.049 346.766 109.619 345.367 111.698 345.359C113.776 345.367 115.33 346.766 115.338 348.766C115.33 350.789 113.776 352.195 111.698 352.188C109.619 352.195 108.049 350.789 108.057 348.766ZM109.26 348.766C109.244 350.148 110.291 351.109 111.698 351.109C113.08 351.109 114.135 350.148 114.135 348.766C114.135 347.406 113.08 346.438 111.698 346.438C110.291 346.438 109.244 347.406 109.26 348.766ZM110.229 357.969V353.516H111.448V356.938H119.635V357.969H110.229ZM133.893 350.984V352H121.237V350.984H133.893ZM121.956 349.172C124.378 348.891 126.713 347.695 126.768 346.109H122.393V345.094H132.768V346.109H128.362C128.417 347.68 130.729 348.891 133.19 349.172L132.737 350.156C130.463 349.867 128.331 348.844 127.565 347.305C126.799 348.844 124.682 349.867 122.393 350.156L121.956 349.172ZM122.768 355.734C122.76 354.141 124.565 353.219 127.565 353.219C130.542 353.219 132.331 354.141 132.346 355.734C132.331 357.344 130.542 358.234 127.565 358.234C124.565 358.234 122.76 357.344 122.768 355.734ZM124.018 355.734C124.003 356.703 125.338 357.258 127.565 357.25C129.768 357.258 131.104 356.703 131.112 355.734C131.104 354.758 129.768 354.203 127.565 354.188C125.338 354.203 124.003 354.758 124.018 355.734ZM146.261 344.391V354.672H145.026V349.328H141.745V352.297H135.448V345.312H136.667V347.781H140.542V345.312H141.745V348.297H145.026V344.391H146.261ZM136.667 351.281H140.542V348.75H136.667V351.281ZM137.276 357.969V353.656H138.511V356.938H146.573V357.969H137.276ZM160.253 346.438V347.453H148.878V346.438H153.972V344.609H155.175V346.438H160.253ZM148.253 356.641V355.625H153.972V353.672C151.495 353.539 150.003 352.578 150.019 351.016C150.003 349.367 151.745 348.391 154.581 348.406C157.378 348.391 159.152 349.367 159.144 351.016C159.152 352.578 157.628 353.539 155.175 353.672V355.625H160.972V356.641H148.253ZM151.253 351.016C151.238 352.07 152.511 352.68 154.581 352.688C156.628 352.68 157.902 352.07 157.894 351.016C157.902 349.984 156.628 349.375 154.581 349.375C152.511 349.375 151.238 349.984 151.253 351.016ZM172.511 344.375V350.031H174.761V351.062H172.511V358.266H171.293V344.375H172.511ZM161.855 354.656C165.441 352.875 167.394 350.195 167.675 346.906H162.496V345.875H168.918C168.91 349.805 167.066 353.391 162.543 355.625L161.855 354.656ZM182.902 344.891C184.981 344.898 186.488 346.164 186.496 347.969C186.488 349.781 184.981 351.031 182.902 351.031C180.801 351.031 179.285 349.781 179.293 347.969C179.285 346.164 180.801 344.898 182.902 344.891ZM180.496 347.969C180.481 349.188 181.504 350.031 182.902 350.031C184.277 350.031 185.309 349.188 185.309 347.969C185.309 346.766 184.277 345.914 182.902 345.922C181.504 345.914 180.481 346.766 180.496 347.969ZM181.402 353.172V352.188H190.434V355.531H182.637V357.094H190.934V358.078H181.434V354.609H189.215V353.172H181.402ZM189.215 351.516V344.375H190.434V351.516H189.215ZM203.926 344.375V358.266H202.692V344.375H203.926ZM192.754 354.625C194.817 353.688 196.395 351.344 196.395 348.906V347.797H193.129V346.797H196.379V344.641H197.598V346.797H200.833V347.797H197.598V348.906C197.598 351.234 199.223 353.484 201.317 354.375L200.629 355.328C199.02 354.617 197.668 353.117 197.02 351.281C196.395 353.219 195.051 354.82 193.442 355.578L192.754 354.625ZM216.731 344.375V350.109H219.059V351.125H216.731V358.266H215.512V344.375H216.731ZM205.903 347.625V346.609H209.481V344.547H210.7V346.609H214.169V347.625H205.903ZM206.7 351.969C206.692 350.094 208.13 348.781 210.106 348.781C212.067 348.781 213.497 350.094 213.512 351.969C213.497 353.852 212.067 355.156 210.106 355.156C208.13 355.156 206.692 353.852 206.7 351.969ZM207.872 351.969C207.864 353.234 208.809 354.125 210.106 354.109C211.387 354.125 212.325 353.234 212.341 351.969C212.325 350.711 211.387 349.805 210.106 349.812C208.809 349.805 207.864 350.711 207.872 351.969ZM224.458 348.641C224.466 351 226.177 353.398 228.224 354.281L227.536 355.25C225.911 354.516 224.513 352.914 223.864 350.992C223.216 353.031 221.81 354.797 220.224 355.594L219.489 354.625C221.482 353.672 223.216 351.047 223.224 348.641V346.828H219.943V345.812H227.771V346.828H224.458V348.641ZM229.708 358.266V344.375H230.943V358.266H229.708ZM240.568 345.172C242.646 345.18 244.178 346.5 244.178 348.375C244.178 350.273 242.646 351.586 240.568 351.594C238.498 351.586 236.951 350.273 236.959 348.375C236.951 346.5 238.498 345.18 240.568 345.172ZM238.162 348.375C238.154 349.648 239.201 350.578 240.568 350.578C241.943 350.578 242.982 349.648 242.974 348.375C242.982 347.125 241.943 346.203 240.568 346.203C239.201 346.203 238.154 347.125 238.162 348.375ZM238.178 357.891V352.828H239.365V356.883C240.17 356.852 241.24 356.734 242.224 356.406L242.412 357.391C241.06 357.836 239.74 357.898 238.834 357.891H238.178ZM241.928 353.844V352.891H244.849V351.656H246.053V352.891H248.943V353.844H241.928ZM242.849 356.281C242.842 355.078 243.896 354.312 245.428 354.312C246.951 354.312 248.021 355.078 248.037 356.281C248.021 357.484 246.951 358.234 245.428 358.234C243.896 358.234 242.842 357.484 242.849 356.281ZM243.943 356.281C243.943 356.938 244.56 357.352 245.428 357.359C246.295 357.352 246.912 356.938 246.912 356.281C246.912 355.641 246.295 355.211 245.428 355.203C244.56 355.211 243.943 355.641 243.943 356.281ZM246.334 351.328V344.375H247.553V347.516H249.646V348.531H247.553V351.328H246.334ZM256.529 344.625C259.615 344.625 261.428 345.477 261.436 347.016C261.428 348.594 259.615 349.445 256.529 349.453C253.428 349.445 251.607 348.594 251.607 347.016C251.607 345.477 253.428 344.625 256.529 344.625ZM250.201 351.391V350.391H262.857V351.391H250.201ZM251.732 353.531V352.594H261.232V355.703H252.982V357.141H261.654V358.109H251.764V354.797H260.029V353.531H251.732ZM252.889 347.016C252.873 347.984 254.225 348.516 256.529 348.516C258.834 348.516 260.178 347.984 260.186 347.016C260.178 346.102 258.834 345.555 256.529 345.547C254.225 345.555 252.873 346.102 252.889 347.016ZM278.921 344.391V352.734H277.686V350.859H273.999V349.844H277.686V347.969H274.139C273.225 350.203 271.085 351.82 268.108 352.703L267.592 351.734C270.944 350.742 273.046 348.859 273.288 346.453H268.296V345.422H274.624C274.624 345.969 274.561 346.492 274.444 346.984H277.686V344.391H278.921ZM269.733 355.531C269.725 353.875 271.53 352.875 274.374 352.875C277.186 352.875 278.999 353.875 278.999 355.531C278.999 357.195 277.186 358.203 274.374 358.203C271.53 358.203 269.725 357.195 269.733 355.531ZM270.936 355.531C270.944 356.578 272.28 357.211 274.374 357.203C276.436 357.211 277.772 356.578 277.78 355.531C277.772 354.484 276.436 353.852 274.374 353.859C272.28 353.852 270.944 354.484 270.936 355.531ZM293.616 352.344V353.375H287.819V358.266H286.616V353.375H280.898V352.344H293.616ZM282.335 348C282.343 346.117 284.304 344.945 287.226 344.938C290.14 344.945 292.116 346.117 292.116 348C292.116 349.852 290.14 351.023 287.226 351.016C284.304 351.023 282.343 349.852 282.335 348ZM283.601 348C283.585 349.234 285.062 350.031 287.226 350.031C289.39 350.031 290.858 349.234 290.866 348C290.858 346.742 289.39 345.938 287.226 345.938C285.062 345.938 283.585 346.742 283.601 348ZM296.702 355.953L295.484 360.203H294.327L295.187 355.953H296.702ZM313.359 344.391V354.547H312.141V344.391H313.359ZM302.219 348.766C302.211 346.766 303.781 345.367 305.859 345.359C307.938 345.367 309.492 346.766 309.5 348.766C309.492 350.789 307.938 352.195 305.859 352.188C303.781 352.195 302.211 350.789 302.219 348.766ZM303.422 348.766C303.406 350.148 304.453 351.109 305.859 351.109C307.242 351.109 308.297 350.148 308.297 348.766C308.297 347.406 307.242 346.438 305.859 346.438C304.453 346.438 303.406 347.406 303.422 348.766ZM304.391 357.969V353.516H305.609V356.938H313.797V357.969H304.391ZM328.055 350.984V352H315.399V350.984H328.055ZM316.117 349.172C318.539 348.891 320.875 347.695 320.93 346.109H316.555V345.094H326.93V346.109H322.524C322.578 347.68 324.891 348.891 327.352 349.172L326.899 350.156C324.625 349.867 322.492 348.844 321.727 347.305C320.961 348.844 318.844 349.867 316.555 350.156L316.117 349.172ZM316.93 355.734C316.922 354.141 318.727 353.219 321.727 353.219C324.703 353.219 326.492 354.141 326.508 355.734C326.492 357.344 324.703 358.234 321.727 358.234C318.727 358.234 316.922 357.344 316.93 355.734ZM318.18 355.734C318.164 356.703 319.5 357.258 321.727 357.25C323.93 357.258 325.266 356.703 325.274 355.734C325.266 354.758 323.93 354.203 321.727 354.188C319.5 354.203 318.164 354.758 318.18 355.734ZM340.422 344.391V354.672H339.188V349.328H335.907V352.297H329.61V345.312H330.829V347.781H334.704V345.312H335.907V348.297H339.188V344.391H340.422ZM330.829 351.281H334.704V348.75H330.829V351.281ZM331.438 357.969V353.656H332.672V356.938H340.735V357.969H331.438ZM354.415 346.438V347.453H343.04V346.438H348.134V344.609H349.337V346.438H354.415ZM342.415 356.641V355.625H348.134V353.672C345.657 353.539 344.165 352.578 344.181 351.016C344.165 349.367 345.907 348.391 348.743 348.406C351.54 348.391 353.313 349.367 353.306 351.016C353.313 352.578 351.79 353.539 349.337 353.672V355.625H355.134V356.641H342.415ZM345.415 351.016C345.399 352.07 346.673 352.68 348.743 352.688C350.79 352.68 352.063 352.07 352.056 351.016C352.063 349.984 350.79 349.375 348.743 349.375C346.673 349.375 345.399 349.984 345.415 351.016ZM372.322 351.484V352.5H366.666V355.344H365.447V352.5H359.603V351.484H372.322ZM361.228 357.969V353.969H362.462V356.938H370.9V357.969H361.228ZM361.259 349.891V345.062H370.666V349.891H361.259ZM362.462 348.906H369.447V346.031H362.462V348.906ZM377.83 348.641C377.814 350.867 379.424 353.32 381.439 354.281L380.736 355.25C379.174 354.484 377.853 352.844 377.228 350.961C376.588 353 375.197 354.797 373.642 355.594L372.892 354.625C374.892 353.648 376.611 351.008 376.627 348.641V346.828H373.392V345.812H380.955V346.828H377.83V348.641ZM382.658 358.266V344.375H383.877V350H386.205V351.047H383.877V358.266H382.658ZM397.869 348.594V349.578H388.354V344.891H389.573V348.594H397.869ZM386.619 352.469V351.469H399.338V352.469H386.619ZM388.276 357.922V353.891H389.494V356.906H397.948V357.922H388.276ZM51.7506 366.969V368.969H55.7975V366.969H57.0163V373.016H50.5475V366.969H51.7506ZM51.7506 372.016H55.7975V369.922H51.7506V372.016ZM51.9538 375.203V374.219H60.8131V377.578H53.1881V379.109H61.3288V380.109H51.985V376.641H59.5944V375.203H51.9538ZM59.5944 373.562V366.375H60.8131V369.391H62.9069V370.422H60.8131V373.562H59.5944ZM70.3838 371.234V373.281H76.1181V374.281H63.4619V373.281H69.1806V371.234H70.3838ZM64.2275 370.984C66.6806 370.648 69.165 369.102 69.165 367.25V366.594H70.3994V367.25C70.3994 369.102 72.8994 370.648 75.3525 370.984L74.8525 371.969C72.7509 371.602 70.6572 370.484 69.79 368.883C68.915 370.5 66.8291 371.602 64.6963 371.969L64.2275 370.984ZM64.9931 377.844C64.9853 376.305 66.7744 375.445 69.79 375.438C72.7744 375.445 74.5556 376.305 74.5713 377.844C74.5556 379.391 72.7744 380.234 69.79 380.234C66.7744 380.234 64.9853 379.391 64.9931 377.844ZM66.2431 377.844C66.2275 378.758 67.54 379.289 69.79 379.281C72.0166 379.289 73.3291 378.758 73.3369 377.844C73.3291 376.922 72.0166 376.406 69.79 376.406C67.54 376.406 66.2275 376.922 66.2431 377.844ZM85.2513 372.375V373.391H82.2044V376.125C83.5638 376.07 84.9309 375.977 86.22 375.828L86.3138 376.75C83.2356 377.195 79.8763 377.258 77.22 377.25L77.0481 376.219C78.2591 376.219 79.6028 376.211 80.9856 376.172V373.391H78.1106V367.703H85.1888V368.703H79.3138V372.375H85.2513ZM87.1419 380.297V366.375H88.3606V380.297H87.1419ZM95.4469 370.641C95.4547 373 97.1656 375.398 99.2125 376.281L98.525 377.25C96.9 376.516 95.5016 374.914 94.8531 372.992C94.2047 375.031 92.7984 376.797 91.2125 377.594L90.4781 376.625C92.4703 375.672 94.2047 373.047 94.2125 370.641V368.828H90.9313V367.812H98.7594V368.828H95.4469V370.641ZM100.697 380.266V366.375H101.931V380.266H100.697ZM111.557 367.172C113.635 367.18 115.166 368.5 115.166 370.375C115.166 372.273 113.635 373.586 111.557 373.594C109.487 373.586 107.94 372.273 107.948 370.375C107.94 368.5 109.487 367.18 111.557 367.172ZM109.151 370.375C109.143 371.648 110.19 372.578 111.557 372.578C112.932 372.578 113.971 371.648 113.963 370.375C113.971 369.125 112.932 368.203 111.557 368.203C110.19 368.203 109.143 369.125 109.151 370.375ZM109.166 379.891V374.828H110.354V378.883C111.158 378.852 112.229 378.734 113.213 378.406L113.401 379.391C112.049 379.836 110.729 379.898 109.823 379.891H109.166ZM112.916 375.844V374.891H115.838V373.656H117.041V374.891H119.932V375.844H112.916ZM113.838 378.281C113.83 377.078 114.885 376.312 116.416 376.312C117.94 376.312 119.01 377.078 119.026 378.281C119.01 379.484 117.94 380.234 116.416 380.234C114.885 380.234 113.83 379.484 113.838 378.281ZM114.932 378.281C114.932 378.938 115.549 379.352 116.416 379.359C117.283 379.352 117.901 378.938 117.901 378.281C117.901 377.641 117.283 377.211 116.416 377.203C115.549 377.211 114.932 377.641 114.932 378.281ZM117.323 373.328V366.375H118.541V369.516H120.635V370.531H118.541V373.328H117.323ZM124.018 374.719V376.344H130.956V374.719H132.19V380.078H122.799V374.719H124.018ZM121.19 373.734V372.719H133.846V373.734H121.19ZM121.909 370.75C124.385 370.414 126.893 368.953 126.893 367.188V366.531H128.159V367.188C128.151 368.898 130.682 370.438 133.128 370.75L132.674 371.734C130.526 371.414 128.409 370.32 127.526 368.766C126.643 370.328 124.518 371.414 122.378 371.734L121.909 370.75ZM124.018 379.094H130.956V377.312H124.018V379.094ZM146.151 366.375V380.266H144.933V366.375H146.151ZM135.604 376.688V367.75H136.808V375.625C138.933 375.609 141.12 375.445 143.448 374.953L143.62 376C141.151 376.516 138.956 376.688 136.729 376.688H135.604ZM158.956 366.375V371.875H161.284V372.906H158.956V380.297H157.738V366.375H158.956ZM148.816 376.812V367.734H155.3V368.75H150.034V375.781C152.55 375.773 154.323 375.664 156.394 375.281L156.55 376.344C154.37 376.734 152.55 376.812 149.909 376.812H148.816ZM163.183 379.094C162.636 379.086 162.168 378.633 162.183 378.078C162.168 377.531 162.636 377.078 163.183 377.078C163.738 377.078 164.191 377.531 164.183 378.078C164.191 378.633 163.738 379.086 163.183 379.094Z" fill="#555555"/>
<path d="M44.0312 409.062C43.4844 409.055 43.0156 408.602 43.0312 408.047C43.0156 407.5 43.4844 407.047 44.0312 407.047C44.5859 407.047 45.0391 407.5 45.0312 408.047C45.0391 408.602 44.5859 409.055 44.0312 409.062ZM61.4694 400.391V410.547H60.2506V400.391H61.4694ZM50.3288 404.766C50.3209 402.766 51.8913 401.367 53.9694 401.359C56.0475 401.367 57.6022 402.766 57.61 404.766C57.6022 406.789 56.0475 408.195 53.9694 408.188C51.8913 408.195 50.3209 406.789 50.3288 404.766ZM51.5319 404.766C51.5163 406.148 52.5631 407.109 53.9694 407.109C55.3522 407.109 56.4069 406.148 56.4069 404.766C56.4069 403.406 55.3522 402.438 53.9694 402.438C52.5631 402.438 51.5163 403.406 51.5319 404.766ZM52.5006 413.969V409.516H53.7194V412.938H61.9069V413.969H52.5006ZM76.165 406.984V408H63.5088V406.984H76.165ZM64.2275 405.172C66.6494 404.891 68.9853 403.695 69.04 402.109H64.665V401.094H75.04V402.109H70.6338C70.6884 403.68 73.0009 404.891 75.4619 405.172L75.0088 406.156C72.7353 405.867 70.6025 404.844 69.8369 403.305C69.0713 404.844 66.9541 405.867 64.665 406.156L64.2275 405.172ZM65.04 411.734C65.0322 410.141 66.8369 409.219 69.8369 409.219C72.8134 409.219 74.6025 410.141 74.6181 411.734C74.6025 413.344 72.8134 414.234 69.8369 414.234C66.8369 414.234 65.0322 413.344 65.04 411.734ZM66.29 411.734C66.2744 412.703 67.6103 413.258 69.8369 413.25C72.04 413.258 73.3759 412.703 73.3838 411.734C73.3759 410.758 72.04 410.203 69.8369 410.188C67.6103 410.203 66.2744 410.758 66.29 411.734ZM88.5325 400.391V410.672H87.2981V405.328H84.0169V408.297H77.72V401.312H78.9388V403.781H82.8138V401.312H84.0169V404.297H87.2981V400.391H88.5325ZM78.9388 407.281H82.8138V404.75H78.9388V407.281ZM79.5481 413.969V409.656H80.7825V412.938H88.845V413.969H79.5481ZM102.525 402.438V403.453H91.15V402.438H96.2438V400.609H97.4469V402.438H102.525ZM90.525 412.641V411.625H96.2438V409.672C93.7672 409.539 92.275 408.578 92.2906 407.016C92.275 405.367 94.0172 404.391 96.8531 404.406C99.65 404.391 101.423 405.367 101.416 407.016C101.423 408.578 99.9 409.539 97.4469 409.672V411.625H103.244V412.641H90.525ZM93.525 407.016C93.5094 408.07 94.7828 408.68 96.8531 408.688C98.9 408.68 100.173 408.07 100.166 407.016C100.173 405.984 98.9 405.375 96.8531 405.375C94.7828 405.375 93.5094 405.984 93.525 407.016ZM114.783 400.375V406.031H117.033V407.062H114.783V414.266H113.564V400.375H114.783ZM104.127 410.656C107.713 408.875 109.666 406.195 109.947 402.906H104.768V401.875H111.189C111.182 405.805 109.338 409.391 104.814 411.625L104.127 410.656ZM133.94 407.484V408.5H128.284V411.344H127.065V408.5H121.221V407.484H133.94ZM122.846 413.969V409.969H124.081V412.938H132.518V413.969H122.846ZM122.878 405.891V401.062H132.284V405.891H122.878ZM124.081 404.906H131.065V402.031H124.081V404.906ZM139.448 404.641C139.433 406.867 141.042 409.32 143.058 410.281L142.354 411.25C140.792 410.484 139.472 408.844 138.847 406.961C138.206 409 136.815 410.797 135.261 411.594L134.511 410.625C136.511 409.648 138.229 407.008 138.245 404.641V402.828H135.011V401.812H142.573V402.828H139.448V404.641ZM144.276 414.266V400.375H145.495V406H147.823V407.047H145.495V414.266H144.276ZM160.972 411.516V412.547H148.253V411.516H153.972V408.891H149.847V404.609H158.159V402.422H149.816V401.406H159.363V405.609H151.066V407.875H159.691V408.891H155.175V411.516H160.972ZM172.426 401.672C172.433 403.633 174.98 405.32 177.488 405.672L176.988 406.672C174.832 406.312 172.691 405.117 171.801 403.414C170.91 405.133 168.777 406.312 166.613 406.672L166.113 405.672C168.621 405.32 171.16 403.664 171.16 401.672V400.875H172.426V401.672ZM165.457 409.234V408.203H178.113V409.234H172.363V414.266H171.16V409.234H165.457ZM190.434 400.391V410.578H189.215V400.391H190.434ZM179.106 407.609C181.207 406.789 182.637 404.758 182.637 402.562V401.172H183.887V402.562C183.871 404.68 185.317 406.578 187.387 407.328L186.746 408.312C185.137 407.695 183.887 406.445 183.27 404.844C182.668 406.547 181.402 407.914 179.777 408.562L179.106 407.609ZM181.465 413.969V409.641H182.684V412.938H190.871V413.969H181.465ZM200.754 406.375V407.391H197.708V410.125C199.067 410.07 200.434 409.977 201.723 409.828L201.817 410.75C198.739 411.195 195.379 411.258 192.723 411.25L192.551 410.219C193.762 410.219 195.106 410.211 196.489 410.172V407.391H193.614V401.703H200.692V402.703H194.817V406.375H200.754ZM202.645 414.297V400.375H203.864V414.297H202.645ZM210.95 404.641C210.958 407 212.669 409.398 214.716 410.281L214.028 411.25C212.403 410.516 211.005 408.914 210.356 406.992C209.708 409.031 208.302 410.797 206.716 411.594L205.981 410.625C207.973 409.672 209.708 407.047 209.716 404.641V402.828H206.434V401.812H214.262V402.828H210.95V404.641ZM216.2 414.266V400.375H217.434V414.266H216.2ZM227.06 401.172C229.138 401.18 230.669 402.5 230.669 404.375C230.669 406.273 229.138 407.586 227.06 407.594C224.99 407.586 223.443 406.273 223.451 404.375C223.443 402.5 224.99 401.18 227.06 401.172ZM224.654 404.375C224.646 405.648 225.693 406.578 227.06 406.578C228.435 406.578 229.474 405.648 229.466 404.375C229.474 403.125 228.435 402.203 227.06 402.203C225.693 402.203 224.646 403.125 224.654 404.375ZM224.669 413.891V408.828H225.857V412.883C226.662 412.852 227.732 412.734 228.716 412.406L228.904 413.391C227.552 413.836 226.232 413.898 225.326 413.891H224.669ZM228.419 409.844V408.891H231.341V407.656H232.544V408.891H235.435V409.844H228.419ZM229.341 412.281C229.333 411.078 230.388 410.312 231.919 410.312C233.443 410.312 234.513 411.078 234.529 412.281C234.513 413.484 233.443 414.234 231.919 414.234C230.388 414.234 229.333 413.484 229.341 412.281ZM230.435 412.281C230.435 412.938 231.052 413.352 231.919 413.359C232.787 413.352 233.404 412.938 233.404 412.281C233.404 411.641 232.787 411.211 231.919 411.203C231.052 411.211 230.435 411.641 230.435 412.281ZM232.826 407.328V400.375H234.044V403.516H236.138V404.531H234.044V407.328H232.826ZM243.021 400.625C246.107 400.625 247.92 401.477 247.928 403.016C247.92 404.594 246.107 405.445 243.021 405.453C239.92 405.445 238.099 404.594 238.099 403.016C238.099 401.477 239.92 400.625 243.021 400.625ZM236.693 407.391V406.391H249.349V407.391H236.693ZM238.224 409.531V408.594H247.724V411.703H239.474V413.141H248.146V414.109H238.256V410.797H246.521V409.531H238.224ZM239.381 403.016C239.365 403.984 240.717 404.516 243.021 404.516C245.326 404.516 246.67 403.984 246.678 403.016C246.67 402.102 245.326 401.555 243.021 401.547C240.717 401.555 239.365 402.102 239.381 403.016ZM265.413 400.391V408.734H264.178V406.859H260.491V405.844H264.178V403.969H260.631C259.717 406.203 257.577 407.82 254.6 408.703L254.084 407.734C257.436 406.742 259.538 404.859 259.78 402.453H254.788V401.422H261.116C261.116 401.969 261.053 402.492 260.936 402.984H264.178V400.391H265.413ZM256.225 411.531C256.217 409.875 258.022 408.875 260.866 408.875C263.678 408.875 265.491 409.875 265.491 411.531C265.491 413.195 263.678 414.203 260.866 414.203C258.022 414.203 256.217 413.195 256.225 411.531ZM257.428 411.531C257.436 412.578 258.772 413.211 260.866 413.203C262.928 413.211 264.264 412.578 264.272 411.531C264.264 410.484 262.928 409.852 260.866 409.859C258.772 409.852 257.436 410.484 257.428 411.531ZM280.108 408.344V409.375H274.311V414.266H273.108V409.375H267.389V408.344H280.108ZM268.827 404C268.835 402.117 270.796 400.945 273.717 400.938C276.632 400.945 278.608 402.117 278.608 404C278.608 405.852 276.632 407.023 273.717 407.016C270.796 407.023 268.835 405.852 268.827 404ZM270.092 404C270.077 405.234 271.553 406.031 273.717 406.031C275.882 406.031 277.35 405.234 277.358 404C277.35 402.742 275.882 401.938 273.717 401.938C271.553 401.938 270.077 402.742 270.092 404ZM296.124 400.375V408.656H294.89V405.016H292.093V404H294.89V400.375H296.124ZM284.671 407.547C286.734 406.805 288.202 404.922 288.202 402.938V402.422H285.062V401.391H292.546V402.422H289.437V402.922C289.437 404.734 290.827 406.461 292.859 407.156L292.218 408.141C290.663 407.578 289.452 406.406 288.851 404.977C288.257 406.602 286.968 407.898 285.312 408.531L284.671 407.547ZM286.859 411.672C286.851 410.039 288.624 409.086 291.515 409.094C294.398 409.086 296.171 410.039 296.171 411.672C296.171 413.312 294.398 414.25 291.515 414.266C288.624 414.25 286.851 413.312 286.859 411.672ZM288.077 411.672C288.07 412.68 289.382 413.289 291.515 413.281C293.64 413.289 294.952 412.68 294.952 411.672C294.952 410.656 293.64 410.047 291.515 410.047C289.382 410.047 288.07 410.656 288.077 411.672ZM308.961 400.391V404.594H311.039V405.625H308.961V409.703H307.726V400.391H308.961ZM298.054 408.281C299.164 408.281 300.461 408.281 301.82 408.242V407.219C300.203 407.07 299.156 406.328 299.164 405.172C299.156 403.906 300.461 403.125 302.414 403.125C304.383 403.125 305.664 403.906 305.679 405.172C305.664 406.32 304.648 407.062 303.039 407.219V408.195C304.336 408.133 305.648 408.023 306.867 407.844L306.976 408.734C303.961 409.266 300.64 409.289 298.195 409.281L298.054 408.281ZM298.398 402.594V401.656H301.82V400.266H303.039V401.656H306.445V402.594H298.398ZM299.758 411.375V410.391H308.961V414.266H307.726V411.375H299.758ZM300.336 405.172C300.328 405.898 301.133 406.391 302.414 406.375C303.695 406.391 304.508 405.898 304.508 405.172C304.508 404.438 303.695 403.984 302.414 404C301.133 403.984 300.328 404.438 300.336 405.172ZM322.484 400.391V404.969H324.578V406H322.484V410.797H321.266V400.391H322.484ZM311.656 403.094V402.094H315.188V400.391H316.406V402.094H319.938V403.094H311.656ZM312.453 406.453C312.445 404.875 313.789 403.859 315.797 403.859C317.781 403.859 319.125 404.875 319.141 406.453C319.125 408.016 317.781 409.023 315.797 409.016C313.789 409.023 312.445 408.016 312.453 406.453ZM313.625 406.453C313.617 407.43 314.484 408.062 315.797 408.047C317.094 408.062 317.969 407.43 317.984 406.453C317.969 405.461 317.094 404.82 315.797 404.828C314.484 404.82 313.617 405.461 313.625 406.453ZM313.797 413.969V409.969H315V412.938H323.125V413.969H313.797ZM340.344 400.375V408.656H339.11V405.016H336.313V404H339.11V400.375H340.344ZM328.891 407.547C330.954 406.805 332.422 404.922 332.422 402.938V402.422H329.282V401.391H336.766V402.422H333.657V402.922C333.657 404.734 335.047 406.461 337.079 407.156L336.438 408.141C334.883 407.578 333.672 406.406 333.071 404.977C332.477 406.602 331.188 407.898 329.532 408.531L328.891 407.547ZM331.079 411.672C331.071 410.039 332.844 409.086 335.735 409.094C338.618 409.086 340.391 410.039 340.391 411.672C340.391 413.312 338.618 414.25 335.735 414.266C332.844 414.25 331.071 413.312 331.079 411.672ZM332.297 411.672C332.29 412.68 333.602 413.289 335.735 413.281C337.86 413.289 339.172 412.68 339.172 411.672C339.172 410.656 337.86 410.047 335.735 410.047C333.602 410.047 332.29 410.656 332.297 411.672ZM355.056 411.469V412.484H342.337V411.469H348.056V408.469H343.837V401.359H345.071V403.875H352.29V401.359H353.493V408.469H349.259V411.469H355.056ZM345.071 407.469H352.29V404.875H345.071V407.469ZM368.564 411.516V412.547H355.845V411.516H361.564V408.891H357.439V404.609H365.751V402.422H357.408V401.406H366.954V405.609H358.658V407.875H367.283V408.891H362.767V411.516H368.564ZM61.8913 422.375V436.266H60.7038V429.047H58.8131V435.562H57.6413V422.672H58.8131V428H60.7038V422.375H61.8913ZM49.8131 432.453C51.8131 431.352 52.8834 428.992 52.8756 426.172V425.062H50.1413V424.031H56.6413V425.062H54.0631V426.172C54.0631 428.711 55.1178 430.953 57.0944 431.969L56.36 432.922C54.9616 432.156 53.9928 430.789 53.5006 429.094C53.0241 431.023 52.0397 432.539 50.5788 433.391L49.8131 432.453ZM68.3994 426.109C68.3916 428.648 70.1181 431.195 72.165 432.125L71.415 433.094C69.8291 432.328 68.4619 430.68 67.7978 428.703C67.1572 430.797 65.79 432.555 64.165 433.375L63.3838 432.344C65.4541 431.398 67.165 428.742 67.1806 426.109V423.578H68.3994V426.109ZM73.6806 436.297V422.375H74.915V436.297H73.6806ZM88.1888 428.891V429.891H83.8919V433.484H89.6888V434.516H76.97V433.484H82.6888V429.891H78.595V423.516H88.0481V424.516H79.8294V428.891H88.1888ZM97.4156 424.781V425.781H90.4469V424.781H93.3375V422.797H94.5563V424.781H97.4156ZM90.9469 429.875C90.9469 428.031 92.2047 426.727 93.9313 426.719C95.6813 426.727 96.9313 428.031 96.9469 429.875C96.9313 431.742 95.6813 433.055 93.9313 433.062C92.2047 433.055 90.9469 431.742 90.9469 429.875ZM92.0406 429.875C92.0406 431.109 92.8297 431.992 93.9313 431.984C95.0406 431.992 95.8531 431.109 95.8531 429.875C95.8531 428.656 95.0406 427.766 93.9313 427.75C92.8297 427.766 92.0406 428.656 92.0406 429.875ZM98.1344 435.578V422.719H99.2906V428.234H101.134V422.375H102.306V436.266H101.134V429.25H99.2906V435.578H98.1344ZM114.698 424.344C114.69 426.203 117.166 427.781 119.588 428.141L119.135 429.109C116.971 428.742 114.854 427.586 114.01 425.914C113.166 427.586 111.049 428.742 108.916 429.109L108.432 428.141C110.846 427.781 113.315 426.203 113.323 424.344V424.25H108.869V423.25H119.135V424.25H114.698V424.344ZM107.682 431.312V430.297H120.338V431.312H114.588V436.266H113.385V431.312H107.682ZM126.128 426.109C126.12 428.648 127.846 431.195 129.893 432.125L129.143 433.094C127.557 432.328 126.19 430.68 125.526 428.703C124.885 430.797 123.518 432.555 121.893 433.375L121.112 432.344C123.182 431.398 124.893 428.742 124.909 426.109V423.578H126.128V426.109ZM131.409 436.297V422.375H132.643V436.297H131.409ZM146.183 422.375V436.266H144.948V422.375H146.183ZM134.87 432.656C138.628 430.875 140.55 428.211 140.823 424.891H135.511V423.891H142.073C142.058 427.883 140.198 431.422 135.542 433.656L134.87 432.656ZM162.652 422.375V427.844H164.98V428.906H162.652V436.266H161.433V422.375H162.652ZM152.48 432.938V423.562H153.699V427.234H157.761V423.562H158.98V432.938H152.48ZM153.699 431.906H157.761V428.219H153.699V431.906ZM176.269 422.391V425.734H178.379V426.781H176.269V430.047H175.051V422.391H176.269ZM166.004 424.094V423.078H172.301V426.781H167.238V428.703C169.707 428.688 171.496 428.617 173.66 428.219L173.785 429.25C171.558 429.633 169.699 429.719 167.113 429.734H166.035V425.812H171.098V424.094H166.004ZM167.488 436.078V430.672H168.707V432.375H175.051V430.672H176.269V436.078H167.488ZM168.707 435.078H175.051V433.359H168.707V435.078ZM190.371 422.375V436.266H189.152V422.375H190.371ZM179.824 432.688V423.75H181.027V431.625C183.152 431.609 185.34 431.445 187.668 430.953L187.84 432C185.371 432.516 183.176 432.688 180.949 432.688H179.824ZM203.176 422.375V427.875H205.504V428.906H203.176V436.297H201.958V422.375H203.176ZM193.036 432.812V423.734H199.52V424.75H194.254V431.781C196.77 431.773 198.543 431.664 200.614 431.281L200.77 432.344C198.59 432.734 196.77 432.812 194.129 432.812H193.036ZM207.403 435.094C206.856 435.086 206.387 434.633 206.403 434.078C206.387 433.531 206.856 433.078 207.403 433.078C207.958 433.078 208.411 433.531 208.403 434.078C208.411 434.633 207.958 435.086 207.403 435.094Z" fill="#555555"/>
<rect width="450" height="30" transform="translate(0 552)" fill="#F4F4F4"/>
<path d="M18.7627 561.742V573.054H17.7598V561.742H18.7627ZM9.87598 566.554C9.88232 564.154 11.0757 562.625 12.7578 562.618C14.4336 562.625 15.646 564.154 15.6396 566.554C15.646 568.959 14.4336 570.483 12.7578 570.477C11.0757 570.483 9.88232 568.959 9.87598 566.554ZM10.8408 566.554C10.8408 568.388 11.6279 569.594 12.7578 569.588C13.894 569.594 14.6748 568.388 14.6748 566.554C14.6748 564.719 13.894 563.513 12.7578 563.507C11.6279 563.513 10.8408 564.719 10.8408 566.554ZM30.7156 567.328V568.153H20.4324V567.328H22.9841V565.735C22.0828 565.386 21.575 564.814 21.575 564.053C21.575 562.726 23.0984 561.964 25.574 561.958C28.0305 561.964 29.554 562.726 29.5603 564.053C29.554 564.808 29.0525 565.379 28.1638 565.735V567.328H30.7156ZM21.6765 571.01C21.6702 569.721 23.1238 569.01 25.574 569.017C27.9924 569.01 29.4461 569.721 29.4587 571.01C29.4461 572.298 27.9924 573.003 25.574 573.003C23.1238 573.003 21.6702 572.298 21.6765 571.01ZM22.6033 564.053C22.5969 564.878 23.7268 565.354 25.574 565.36C27.4021 565.354 28.5383 564.878 28.5447 564.053C28.5383 563.24 27.4021 562.745 25.574 562.745C23.7268 562.745 22.5969 563.24 22.6033 564.053ZM22.6921 571.01C22.6795 571.778 23.7649 572.235 25.574 572.229C27.364 572.235 28.4495 571.778 28.4558 571.01C28.4495 570.242 27.364 569.791 25.574 569.778C23.7649 569.791 22.6795 570.242 22.6921 571.01ZM23.9744 567.328H27.1736V566.001C26.6975 566.09 26.1643 566.135 25.574 566.135C24.9837 566.135 24.4504 566.09 23.9744 566.008V567.328ZM41.9068 563.494V564.307H40.231V565.894H41.9068V566.744H40.231V568.458H39.2407V561.742H40.231V563.494H41.9068ZM31.6236 565.081C31.6172 563.513 32.874 562.421 34.5816 562.428C36.3018 562.421 37.5396 563.513 37.5523 565.081C37.5396 566.668 36.3018 567.753 34.5816 567.76C32.874 567.753 31.6172 566.668 31.6236 565.081ZM32.6011 565.081C32.5947 566.167 33.439 566.909 34.5816 566.896C35.7368 566.909 36.5684 566.167 36.5747 565.081C36.5684 564.021 35.7368 563.285 34.5816 563.278C33.439 563.285 32.5947 564.021 32.6011 565.081ZM32.8423 569.804V568.979H40.231V573.028H39.2407V569.804H32.8423ZM48.6419 562.618V563.215C48.6355 563.958 48.6355 565.081 48.3499 566.554L47.347 566.478C47.6199 565.132 47.6453 564.173 47.658 563.456H43.0179V562.618H48.6419ZM42.3196 567.607C43.0496 567.607 43.8748 567.601 44.7444 567.576V565.119H45.7346V567.544C46.9851 567.493 48.2801 567.404 49.4544 567.239L49.5179 567.976C47.1502 568.382 44.4334 568.426 42.4212 568.433L42.3196 567.607ZM44.0589 572.787V569.474H45.0618V571.949H51.5999V572.787H44.0589ZM50.2161 570.235V561.742H51.2317V565.424H52.8821V566.274H51.2317V570.235H50.2161ZM58.367 561.514V573.295H57.4275V561.514H58.367ZM72.7132 561.742V573.028H71.7357V567.125H70.1741V572.47H69.222V562.047H70.1741V566.3H71.7357V561.742H72.7132ZM63.0902 569.905C65.7117 568.439 66.7908 566.376 66.9622 564.04H63.5218V563.215H67.9398C67.9271 566.084 66.9178 568.794 63.6741 570.604L63.0902 569.905ZM83.3712 561.755V570.007H82.3809V561.755H83.3712ZM74.3194 565.31C74.3131 563.685 75.5889 562.548 77.2774 562.542C78.9659 562.548 80.2291 563.685 80.2354 565.31C80.2291 566.954 78.9659 568.096 77.2774 568.09C75.5889 568.096 74.3131 566.954 74.3194 565.31ZM75.297 565.31C75.2843 566.433 76.1348 567.214 77.2774 567.214C78.401 567.214 79.2579 566.433 79.2579 565.31C79.2579 564.205 78.401 563.418 77.2774 563.418C76.1348 563.418 75.2843 564.205 75.297 565.31ZM76.0841 572.787V569.169H77.0743V571.949H83.7266V572.787H76.0841ZM94.3846 561.742V568.471H93.3817V565.513H91.1092V564.688H93.3817V561.742H94.3846ZM85.0789 567.569C86.7547 566.966 87.9481 565.437 87.9481 563.824V563.405H85.3963V562.567H91.4774V563.405H88.951V563.812C88.951 565.284 90.0809 566.687 91.7313 567.252L91.2108 568.052C89.9476 567.595 88.9637 566.643 88.4749 565.481C87.9925 566.801 86.9452 567.855 85.5995 568.369L85.0789 567.569ZM86.8563 570.921C86.8499 569.594 88.2909 568.82 90.6395 568.826C92.9818 568.82 94.4227 569.594 94.4227 570.921C94.4227 572.254 92.9818 573.016 90.6395 573.028C88.2909 573.016 86.8499 572.254 86.8563 570.921ZM87.8465 570.921C87.8402 571.74 88.9066 572.235 90.6395 572.229C92.3661 572.235 93.4325 571.74 93.4325 570.921C93.4325 570.096 92.3661 569.601 90.6395 569.601C88.9066 569.601 87.8402 570.096 87.8465 570.921ZM106.338 570.756V571.581H96.0035V570.756H100.65V568.318H97.2223V562.542H98.2252V564.586H104.09V562.542H105.068V568.318H101.628V570.756H106.338ZM98.2252 567.506H104.09V565.398H98.2252V567.506ZM116.335 561.742V573.054H115.332V567.112H112.857V566.287H115.332V561.742H116.335ZM107.004 570.07C108.661 569.296 109.899 567.366 109.899 565.424V564.522H107.309V563.71H109.899V561.958H110.889V563.71H113.441V564.522H110.876V565.424C110.876 567.284 112.152 569.118 113.822 569.867L113.25 570.642C111.962 570.058 110.902 568.82 110.4 567.334C109.911 568.909 108.864 570.223 107.576 570.845L107.004 570.07ZM127.273 561.742V573.054H126.282V561.742H127.273ZM118.589 563.621V562.796H123.845V566.808H119.63V569.474C121.503 569.48 123.172 569.391 125.191 569.067L125.292 569.905C123.216 570.229 121.503 570.312 119.554 570.312H118.614V565.995H122.842V563.621H118.589ZM134.135 568.839C136.452 568.839 137.854 569.601 137.854 570.921C137.854 572.254 136.452 573.016 134.135 573.028C131.811 573.016 130.396 572.254 130.39 570.921C130.396 569.601 131.811 568.839 134.135 568.839ZM129.412 567.658V562.453H130.39V564.18H133.678V562.453H134.668V567.658H129.412ZM130.39 566.846H133.678V564.967H130.39V566.846ZM131.392 570.921C131.38 571.733 132.433 572.216 134.135 572.216C135.842 572.216 136.883 571.733 136.89 570.921C136.883 570.115 135.842 569.639 134.135 569.626C132.433 569.639 131.38 570.115 131.392 570.921ZM136.763 568.534V561.742H137.753V564.586H139.454V565.437H137.753V568.534H136.763ZM144.006 564.04C143.999 565.475 145.237 566.738 146.925 567.227L146.456 568.014C145.116 567.614 144.05 566.744 143.529 565.621C143.034 566.852 141.968 567.804 140.616 568.255L140.133 567.48C141.809 566.935 143.015 565.57 143.015 564.04V563.888H140.413V563.088H143.015V561.691H144.018V563.088H146.595V563.888H144.006V564.04ZM141.885 572.876V569.017H149.223V572.876H141.885ZM142.863 572.063H148.246V569.829H142.863V572.063ZM148.233 568.445V561.755H149.223V568.445H148.233ZM155.889 561.514V573.295H154.949V561.514H155.889ZM167.429 565.678C167.036 564.497 166.141 563.748 164.827 563.748C163.202 563.748 161.913 565.03 161.907 567.404C161.913 569.772 163.202 571.054 164.903 571.061C166.452 571.054 167.525 570.026 167.544 568.395H165.144V567.392H168.661V568.382C168.661 570.661 167.093 572.127 164.903 572.127C162.446 572.127 160.796 570.312 160.802 567.404C160.796 564.497 162.466 562.682 164.827 562.682C166.769 562.682 168.267 563.9 168.61 565.678H167.429ZM171.067 562.809V572H169.975V562.809H171.067ZM175.364 572.14C173.486 572.146 172.216 570.724 172.216 568.585C172.216 566.433 173.486 565.018 175.364 565.018C177.237 565.018 178.494 566.433 178.488 568.585C178.494 570.724 177.237 572.146 175.364 572.14ZM173.308 568.585C173.314 569.962 173.962 571.175 175.364 571.175C176.755 571.175 177.396 569.962 177.396 568.585C177.396 567.214 176.755 565.982 175.364 565.982C173.962 565.982 173.314 567.214 173.308 568.585ZM179.802 572V562.809H180.894V566.198H180.982C181.217 565.83 181.63 565.018 182.976 565.018C184.702 565.018 185.915 566.389 185.921 568.572C185.915 570.762 184.702 572.146 182.988 572.14C181.668 572.146 181.217 571.327 180.982 570.946H180.855V572H179.802ZM180.868 568.547C180.868 570.096 181.566 571.162 182.823 571.162C184.137 571.162 184.81 570.013 184.816 568.547C184.81 567.106 184.156 565.995 182.823 565.995C181.554 565.995 180.868 567.017 180.868 568.547ZM186.753 570.045C186.753 568.464 188.149 568.103 189.342 568.014C189.787 567.982 190.898 567.918 191.209 567.912V567.354C191.209 566.478 190.688 565.97 189.647 565.97C188.778 565.97 188.251 566.37 188.098 566.896H186.956C187.095 565.786 188.175 565.018 189.698 565.018C190.599 565.018 192.294 565.284 192.288 567.455V572H191.209V571.061H191.158C190.929 571.524 190.301 572.159 189.101 572.165C187.794 572.159 186.753 571.391 186.753 570.045ZM187.844 570.096C187.851 570.826 188.454 571.194 189.292 571.188C190.523 571.194 191.209 570.369 191.209 569.499V568.807C190.885 568.826 189.8 568.909 189.469 568.928C188.479 568.991 187.851 569.34 187.844 570.096ZM194.872 562.809V572H193.78V562.809H194.872ZM201.505 565.119C201.41 564.218 200.572 563.697 199.474 563.697C198.255 563.697 197.462 564.332 197.455 565.208C197.462 566.173 198.534 566.535 199.233 566.706L200.147 566.96C201.131 567.214 202.749 567.779 202.749 569.499C202.749 570.997 201.543 572.159 199.41 572.165C197.43 572.159 196.205 571.137 196.097 569.613H197.265C197.36 570.642 198.319 571.13 199.41 571.124C200.68 571.13 201.632 570.477 201.632 569.474C201.632 568.579 200.781 568.236 199.817 567.963L198.687 567.658C197.246 567.239 196.344 566.503 196.351 565.259C196.344 563.704 197.728 562.682 199.512 562.682C201.296 562.682 202.578 563.723 202.622 565.119H201.505ZM203.987 572V565.106H205.079V572H203.987ZM203.771 563.24C203.765 562.834 204.114 562.51 204.533 562.517C204.952 562.51 205.301 562.834 205.308 563.24C205.301 563.64 204.952 563.964 204.533 563.964C204.114 563.964 203.765 563.64 203.771 563.24ZM209.351 574.729C207.682 574.729 206.552 574 206.431 572.724H207.574C207.72 573.428 208.374 573.777 209.351 573.777C210.532 573.777 211.256 573.263 211.256 572.127V570.73H211.167C210.932 571.111 210.494 571.892 209.161 571.898C207.485 571.892 206.228 570.629 206.228 568.458C206.228 566.338 207.441 565.018 209.174 565.018C210.513 565.018 210.945 565.83 211.192 566.198H211.281V565.106H212.347V572.19C212.341 573.968 211.033 574.729 209.351 574.729ZM207.333 568.496C207.333 569.924 208.006 570.921 209.313 570.921C210.576 570.921 211.275 570.013 211.281 568.496C211.275 567.017 210.595 565.995 209.313 565.995C207.987 565.995 207.333 567.106 207.333 568.496ZM214.918 567.861V572H213.827V565.106H214.88V566.186H214.969C215.293 565.481 215.94 565.018 216.988 565.018C218.384 565.018 219.317 565.868 219.311 567.62V572H218.219V567.696C218.219 566.63 217.635 565.995 216.658 565.995C215.655 565.995 214.918 566.668 214.918 567.861ZM223.793 572L223.78 571.162L226.916 567.861C228.002 566.706 228.522 566.084 228.528 565.233C228.522 564.288 227.735 563.678 226.7 563.672C225.602 563.678 224.917 564.37 224.91 565.398H223.831C223.818 563.773 225.075 562.682 226.738 562.682C228.408 562.682 229.588 563.805 229.595 565.233C229.588 566.262 229.112 567.062 227.487 568.737L225.38 570.908V570.984H229.76V572H223.793ZM234.159 572.127C232.502 572.127 231.245 571.105 231.176 569.689H232.28C232.363 570.508 233.162 571.118 234.159 571.124C235.352 571.118 236.216 570.248 236.216 569.093C236.216 567.899 235.321 567.017 234.083 567.011C233.308 566.998 232.705 567.239 232.369 567.836H231.264L231.912 562.809H236.888V563.824H232.864L232.521 566.516H232.61C233.023 566.198 233.638 565.982 234.286 565.982C236.038 565.982 237.326 567.277 237.333 569.067C237.326 570.845 235.993 572.127 234.159 572.127ZM241.859 572.127C240.266 572.108 238.507 571.162 238.507 567.76C238.507 564.503 239.84 562.682 241.999 562.682C243.617 562.682 244.747 563.678 244.982 565.119H243.852C243.643 564.307 243.021 563.697 241.999 563.697C240.488 563.697 239.58 564.986 239.586 567.201H239.701C240.228 566.433 241.072 565.982 242.062 565.982C243.693 565.982 245.058 567.252 245.058 569.029C245.058 570.762 243.795 572.146 241.859 572.127ZM239.739 569.055C239.745 570.134 240.628 571.118 241.859 571.124C243.046 571.118 243.947 570.185 243.954 569.042C243.947 567.912 243.084 566.992 241.884 566.985C240.678 566.992 239.752 567.969 239.739 569.055ZM254.542 565.119C254.447 564.218 253.609 563.697 252.511 563.697C251.292 563.697 250.499 564.332 250.492 565.208C250.499 566.173 251.571 566.535 252.27 566.706L253.184 566.96C254.168 567.214 255.786 567.779 255.786 569.499C255.786 570.997 254.58 572.159 252.447 572.165C250.467 572.159 249.242 571.137 249.134 569.613H250.302C250.397 570.642 251.356 571.13 252.447 571.124C253.717 571.13 254.669 570.477 254.669 569.474C254.669 568.579 253.818 568.236 252.854 567.963L251.724 567.658C250.283 567.239 249.381 566.503 249.388 565.259C249.381 563.704 250.765 562.682 252.549 562.682C254.333 562.682 255.615 563.723 255.659 565.119H254.542ZM262.179 565.119C262.083 564.218 261.245 563.697 260.147 563.697C258.929 563.697 258.135 564.332 258.129 565.208C258.135 566.173 259.208 566.535 259.906 566.706L260.82 566.96C261.804 567.214 263.423 567.779 263.423 569.499C263.423 570.997 262.217 572.159 260.084 572.165C258.103 572.159 256.878 571.137 256.77 569.613H257.938C258.034 570.642 258.992 571.13 260.084 571.124C261.353 571.13 262.306 570.477 262.306 569.474C262.306 568.579 261.455 568.236 260.49 567.963L259.36 567.658C257.919 567.239 257.018 566.503 257.024 565.259C257.018 563.704 258.402 562.682 260.185 562.682C261.969 562.682 263.251 563.723 263.296 565.119H262.179ZM264.8 572V562.809H265.943V570.984H270.209V572H264.8ZM282.739 561.742V564.535H284.441V565.348H282.739V568.28H281.749V561.742H282.739ZM274.132 565.081C274.126 563.507 275.382 562.421 277.09 562.428C278.81 562.421 280.048 563.507 280.061 565.081C280.048 566.649 278.81 567.728 277.09 567.734C275.382 567.728 274.126 566.649 274.132 565.081ZM275.109 565.081C275.103 566.147 275.947 566.884 277.09 566.896C278.245 566.884 279.077 566.147 279.083 565.081C279.077 564.021 278.245 563.266 277.09 563.278C275.947 563.266 275.103 564.021 275.109 565.081ZM275.617 572.876V568.813H282.739V572.876H275.617ZM276.595 572.063H281.749V569.626H276.595V572.063ZM294.641 563.418V564.243H285.399V563.418H289.538V561.933H290.516V563.418H294.641ZM284.891 571.708V570.883H289.538V569.296C287.526 569.188 286.313 568.407 286.326 567.138C286.313 565.798 287.729 565.005 290.033 565.018C292.306 565.005 293.746 565.798 293.74 567.138C293.746 568.407 292.509 569.188 290.516 569.296V570.883H295.225V571.708H284.891ZM287.329 567.138C287.316 567.995 288.351 568.49 290.033 568.496C291.696 568.49 292.731 567.995 292.724 567.138C292.731 566.3 291.696 565.805 290.033 565.805C288.351 565.805 287.316 566.3 287.329 567.138ZM304.627 561.742V566.554H306.429V567.392H304.627V573.028H303.624V561.742H304.627ZM295.727 570.02C296.648 570.02 297.72 570.013 298.838 569.981V568.737C297.524 568.585 296.667 567.811 296.679 566.693C296.667 565.417 297.746 564.592 299.345 564.599C300.92 564.592 302.018 565.417 302.024 566.693C302.018 567.817 301.148 568.585 299.84 568.737V569.943C300.888 569.893 301.954 569.804 302.938 569.664L303.002 570.426C300.539 570.845 297.873 570.87 295.892 570.87L295.727 570.02ZM295.93 563.938V563.126H298.838V561.768H299.84V563.126H302.735V563.938H295.93ZM297.606 566.693C297.612 567.474 298.298 567.988 299.345 567.976C300.374 567.988 301.066 567.474 301.072 566.693C301.066 565.906 300.374 565.373 299.345 565.373C298.298 565.373 297.612 565.906 297.606 566.693ZM313.768 563.824C313.768 565.291 314.898 566.693 316.548 567.265L316.027 568.052C314.758 567.595 313.774 566.649 313.292 565.487C312.803 566.782 311.756 567.823 310.416 568.318L309.896 567.531C311.559 566.935 312.765 565.43 312.765 563.837V563.342H310.213V562.529H316.294V563.342H313.768V563.824ZM311.61 569.931V569.105H319.201V573.028H318.198V569.931H311.61ZM315.939 565.538V564.7H318.198V561.742H319.201V568.509H318.198V565.538H315.939ZM331.103 567.328V568.153H320.82V567.328H323.372V565.735C322.471 565.386 321.963 564.814 321.963 564.053C321.963 562.726 323.486 561.964 325.962 561.958C328.418 561.964 329.942 562.726 329.948 564.053C329.942 564.808 329.44 565.379 328.552 565.735V567.328H331.103ZM322.064 571.01C322.058 569.721 323.512 569.01 325.962 569.017C328.38 569.01 329.834 569.721 329.847 571.01C329.834 572.298 328.38 573.003 325.962 573.003C323.512 573.003 322.058 572.298 322.064 571.01ZM322.991 564.053C322.985 564.878 324.115 565.354 325.962 565.36C327.79 565.354 328.926 564.878 328.933 564.053C328.926 563.24 327.79 562.745 325.962 562.745C324.115 562.745 322.985 563.24 322.991 564.053ZM323.08 571.01C323.067 571.778 324.153 572.235 325.962 572.229C327.752 572.235 328.837 571.778 328.844 571.01C328.837 570.242 327.752 569.791 325.962 569.778C324.153 569.791 323.067 570.242 323.08 571.01ZM324.362 567.328H327.561V566.001C327.085 566.09 326.552 566.135 325.962 566.135C325.371 566.135 324.838 566.09 324.362 566.008V567.328Z" fill="#555555"/>
<path d="M376.432 562.453V565.09H377.555V566.359H376.432V569.182H374.859V562.453H376.432ZM369.195 564.514V563.303H371.08V562.434H372.652V563.303H374.537V564.514H369.195ZM369.586 566.506C369.581 565.446 370.538 564.719 371.861 564.719C373.185 564.719 374.117 565.446 374.117 566.506C374.117 567.561 373.185 568.273 371.861 568.264C370.538 568.273 369.581 567.561 369.586 566.506ZM370.445 571.34V568.674H372.018V570.09H376.695V571.34H370.445ZM371.119 566.506C371.114 566.916 371.412 567.092 371.861 567.092C372.32 567.092 372.628 566.916 372.633 566.506C372.628 566.096 372.32 565.905 371.861 565.9C371.412 565.905 371.114 566.096 371.119 566.506ZM384.991 562.805V563.557C384.996 564.211 384.996 564.948 384.835 565.852H385.9V567.092H382.55V568.146H384.962V571.467H383.4V569.357H378.458V568.146H380.968V567.092H377.648V565.852H383.253C383.385 565.148 383.414 564.577 383.424 564.045H378.634V562.805H384.991ZM394.342 569.211V570.48H386.09V569.211H389.43V567.59H386.901V563.049H393.493V567.59H390.983V569.211H394.342ZM388.454 566.379H391.94V564.299H388.454V566.379ZM401.74 562.434V565.705H402.961V566.994H401.74V571.467H400.168V562.434H401.74ZM394.767 569.426V563.127H396.33V565.197H397.716V563.127H399.279V569.426H394.767ZM396.33 568.166H397.716V566.408H396.33V568.166ZM405.544 562.668C406.94 562.663 408.005 563.547 408.005 564.768C408.005 565.979 406.94 566.857 405.544 566.857C404.138 566.857 403.063 565.979 403.073 564.768C403.063 563.547 404.138 562.663 405.544 562.668ZM404.421 568.42V567.229H410.593V569.855H405.973V570.168H410.788V571.389H404.44V568.732H409.03V568.42H404.421ZM404.587 564.768C404.577 565.329 404.987 565.603 405.544 565.607C406.096 565.603 406.496 565.329 406.491 564.768C406.496 564.206 406.096 563.938 405.544 563.928C404.992 563.938 404.577 564.206 404.587 564.768ZM409.02 566.896V562.434H410.593V566.896H409.02ZM419.035 562.453V568.869H417.463V562.453H419.035ZM411.516 565.305C411.506 563.967 412.634 562.985 414.045 562.99C415.451 562.985 416.579 563.967 416.574 565.305C416.579 566.667 415.451 567.634 414.045 567.639C412.634 567.634 411.506 566.667 411.516 565.305ZM412.854 571.34V568.225H414.436V570.09H419.25V571.34H412.854ZM413.039 565.305C413.034 565.964 413.469 566.276 414.045 566.281C414.592 566.276 415.021 565.964 415.021 565.305C415.021 564.67 414.592 564.343 414.045 564.348C413.469 564.343 413.034 564.67 413.039 565.305ZM428.103 566.516V567.766H419.861V566.516H428.103ZM420.154 565.1C421.775 564.968 422.492 564.504 422.756 564.064H420.612V562.824H427.351V564.064H425.183C425.437 564.504 426.154 564.968 427.82 565.1L427.282 566.32C425.476 566.174 424.431 565.563 423.962 564.768C423.498 565.559 422.478 566.174 420.671 566.32L420.154 565.1ZM420.769 569.787C420.774 568.713 421.975 568.088 423.962 568.088C425.935 568.088 427.121 568.713 427.126 569.787C427.121 570.871 425.935 571.486 423.962 571.486C421.975 571.486 420.774 570.871 420.769 569.787ZM422.37 569.787C422.361 570.153 422.839 570.275 423.962 570.275C425.051 570.275 425.554 570.153 425.554 569.787C425.554 569.421 425.051 569.289 423.962 569.289C422.839 569.289 422.361 569.421 422.37 569.787ZM437.014 571.643C437.566 570.661 438.176 568.723 438.176 566.965C438.176 565.202 437.566 563.264 437.014 562.277H438.459C439.221 563.605 439.714 565.129 439.709 566.965C439.714 568.796 439.221 570.319 438.459 571.643H437.014ZM428.811 566.965C428.806 565.129 429.299 563.605 430.061 562.277H431.506C430.954 563.264 430.344 565.202 430.344 566.965C430.344 568.723 430.954 570.661 431.506 571.643H430.061C429.299 570.319 428.806 568.796 428.811 566.965ZM431.125 568.049V567.014H437.395V568.049H434.885V570.217H433.577V568.049H431.125ZM431.36 565.764C432.805 565.617 433.298 565.109 433.44 564.65H431.662V563.645H436.868V564.65H435.09C435.227 565.109 435.705 565.617 437.161 565.764L436.692 566.789C435.422 566.652 434.665 566.213 434.26 565.622C433.86 566.213 433.103 566.652 431.838 566.789L431.36 565.764Z" fill="#333333"/>
<defs>
<clipPath id="clip0_263_860">
<rect width="64.0816" height="20" fill="white" transform="translate(20 20)"/>
</clipPath>
</defs>
</svg>
