<svg width="400" height="670" viewBox="0 0 400 670" fill="none" xmlns="http://www.w3.org/2000/svg">
<rect width="400" height="670" fill="white"/>
<g clip-path="url(#clip0_579_881)">
<path d="M34.3254 15H20.3748C20.1678 15 20 15.1682 20 15.3758V34.6242C20 34.8318 20.1678 35 20.3748 35H34.3254C34.5324 35 34.7002 34.8318 34.7002 34.6242V15.3758C34.7002 15.1682 34.5324 15 34.3254 15Z" fill="#FF3A4A"/>
<path d="M83.7063 15H69.7557C69.5487 15 69.3809 15.1682 69.3809 15.3758V34.6242C69.3809 34.8318 69.5487 35 69.7557 35H83.7063C83.9133 35 84.0811 34.8318 84.0811 34.6242V15.3758C84.0811 15.1682 83.9133 15 83.7063 15Z" fill="#FF3A4A"/>
<path d="M67.2473 15H53.2967C53.0897 15 52.9219 15.1682 52.9219 15.3758V34.6242C52.9219 34.8318 53.0897 35 53.2967 35H67.2473C67.4543 35 67.6221 34.8318 67.6221 34.6242V15.3758C67.6221 15.1682 67.4543 15 67.2473 15Z" fill="#FF3A4A"/>
<path d="M50.7864 15H36.8358C36.6287 15 36.4609 15.1682 36.4609 15.3758V34.6242C36.4609 34.8318 36.6287 35 36.8358 35H50.7864C50.9934 35 51.1612 34.8318 51.1612 34.6242V15.3758C51.1612 15.1682 50.9934 15 50.7864 15Z" fill="#FF3A4A"/>
<path d="M60.2141 17.5611C59.2109 17.5462 58.1944 17.8237 57.4104 18.4561C56.6493 19.0988 56.2825 20.1285 56.353 21.111C56.2591 21.9369 56.3849 22.7967 56.8264 23.5108C57.4103 24.5933 58.5689 25.1415 59.4646 25.9206C60.2381 26.5202 61.1773 27.0587 61.5586 28.0098C61.6957 28.6387 61.7622 29.4193 61.3042 29.9351C60.7553 30.5017 59.7502 30.478 59.1583 29.9954C58.9861 29.8513 58.7665 29.5951 58.7665 29.3024C58.7665 28.697 58.7638 27.9769 58.7638 27.9769H56.333C56.333 29.3457 56.2722 29.9698 56.8184 30.8056C57.4013 31.8186 58.5671 32.3712 59.7062 32.4334C60.21 32.4657 60.7246 32.4919 61.2173 32.3603C62.2661 32.1853 63.2003 31.5153 63.7265 30.5946C64.1932 29.6801 64.0868 28.6183 63.9792 27.6351C63.7572 26.5525 62.9522 25.7201 62.0834 25.0996C61.1263 24.3213 60.036 23.6881 59.2081 22.7622C58.6794 22.2309 58.7741 21.4643 58.7865 20.7838C58.7954 20.07 59.468 19.681 60.1797 19.663C60.8915 19.6452 61.6493 20.1559 61.6493 21.0156V22.0904H64.0711C64.0711 20.9584 64.0906 20.5307 63.8795 19.7876C63.4644 18.6455 62.3649 17.8931 61.204 17.6713C60.8816 17.6036 60.5486 17.5662 60.2142 17.5612L60.2141 17.5611ZM76.6656 17.5611C75.6622 17.5462 74.6456 17.8237 73.8617 18.4561C73.1005 19.0988 72.7338 20.1285 72.8043 21.111C72.7104 21.9369 72.8361 22.7967 73.2777 23.5108C73.8616 24.5933 75.0201 25.1415 75.9158 25.9206C76.6894 26.5202 77.6287 27.0587 78.01 28.0098C78.1472 28.6387 78.2135 29.4193 77.7556 29.9351C77.2066 30.5017 76.2015 30.478 75.6095 29.9954C75.4374 29.8513 75.2178 29.5951 75.2178 29.3024C75.2178 28.697 75.2151 27.9769 75.2151 27.9769H72.7842C72.7842 29.3457 72.7234 29.9698 73.2696 30.8056C73.8526 31.8186 75.0184 32.3712 76.1575 32.4334C76.6613 32.4657 77.1758 32.4919 77.6685 32.3603C78.7174 32.1853 79.6517 31.5153 80.1778 30.5946C80.6445 29.6801 80.5381 28.6183 80.4306 27.6351C80.2085 26.5525 79.4035 25.7201 78.5346 25.0996C77.5775 24.3213 76.4873 23.6881 75.6594 22.7622C75.1308 22.2309 75.2253 21.4643 75.2378 20.7838C75.2465 20.07 75.9192 19.681 76.631 19.663C77.3427 19.6452 78.1006 20.1559 78.1006 21.0156V22.0904H80.5224C80.5224 20.9584 80.542 20.5307 80.3308 19.7876C79.9156 18.6455 78.8162 17.8931 77.6553 17.6713C77.3329 17.6036 77 17.5661 76.6656 17.5611ZM27.2079 17.7225C26.9321 17.7237 26.6463 17.729 26.3476 17.729C25.1528 17.729 24.6146 17.7417 23.748 17.729V32.2116H26.0453V27.848C27.3295 27.8146 28.7368 28.0269 29.8755 27.2831C30.7953 26.7409 31.2947 25.6383 31.1872 24.5854C31.1644 23.1003 31.2184 21.6094 31.1583 20.1274C30.9499 19.2052 30.3881 18.419 29.4957 18.0822C28.772 17.7527 28.0351 17.7189 27.2079 17.7225ZM42.0753 17.7656L39.6475 32.2722H41.9311L42.3327 29.7268H45.3178L45.7081 32.2116H48.0319L45.6055 17.7655L42.0753 17.7656ZM26.0453 19.9307H27.8834C28.7743 19.9307 29.0035 20.6136 29.0035 21.1178V24.5753C29.0035 25.1513 28.4661 25.545 27.9482 25.545H26.0453V19.9307ZM43.8365 20.3631L45.0294 27.545H42.6703L43.8365 20.3631Z" fill="white"/>
</g>
<path d="M35.2734 54.082V71.7578H33.0859V54.082H35.2734ZM21.1523 61.6016C21.1426 57.793 23.0859 55.3711 25.7617 55.3711C28.4082 55.3711 30.3613 57.793 30.3711 61.6016C30.3613 65.4395 28.4082 67.8516 25.7617 67.8516C23.0859 67.8516 21.1426 65.4395 21.1523 61.6016ZM23.2422 61.6016C23.2422 64.3164 24.2676 65.8887 25.7617 65.8984C27.2461 65.8887 28.2617 64.3164 28.2617 61.6016C28.2617 58.9062 27.2461 57.3242 25.7617 57.3242C24.2676 57.3242 23.2422 58.9062 23.2422 61.6016ZM53.5648 62.5781V64.3164H37.4711V62.5781H41.2211V60.3418C39.8832 59.7754 39.1313 58.8867 39.1313 57.7344C39.1313 55.6152 41.602 54.375 45.4984 54.375C49.3852 54.375 51.8559 55.6152 51.8656 57.7344C51.8559 58.8965 51.0941 59.7852 49.7563 60.3418V62.5781H53.5648ZM39.3461 68.5352C39.3461 66.5039 41.641 65.3711 45.4984 65.3906C49.2973 65.3711 51.602 66.5039 51.6117 68.5352C51.602 70.5859 49.2973 71.6992 45.4984 71.6992C41.641 71.6992 39.3461 70.5859 39.3461 68.5352ZM41.3969 57.7344C41.3773 58.8086 42.891 59.3848 45.4984 59.375C48.0961 59.3848 49.6195 58.8086 49.6195 57.7344C49.6195 56.6504 48.0961 56.0449 45.4984 56.0547C42.891 56.0449 41.3773 56.6504 41.3969 57.7344ZM41.5531 68.5352C41.5434 69.5312 42.9301 70.0684 45.4984 70.0586C48.0277 70.0684 49.4242 69.5312 49.4438 68.5352C49.4242 67.5488 48.0277 67.041 45.4984 67.0312C42.9301 67.041 41.5434 67.5488 41.5531 68.5352ZM43.4086 62.5781H47.5883V60.8984C46.9535 60.9863 46.2504 61.0352 45.4984 61.0352C44.7465 61.0352 44.0434 60.9863 43.4086 60.8984V62.5781ZM70.45 62.1875V63.9453H63.4578V65.4297C66.6121 65.6348 68.4871 66.7285 68.4969 68.5547C68.4871 70.5859 66.1824 71.7188 62.3836 71.7188C58.5262 71.7188 56.2313 70.5859 56.2313 68.5547C56.2313 66.7285 58.1063 65.625 61.3094 65.4199V63.9453H54.3563V62.1875H70.45ZM55.1375 59.668C58.3797 59.3652 60.4988 58.0469 60.8602 56.6016H55.8211V54.8633H69.0047V56.6016H63.9168C64.2684 58.0566 66.368 59.3652 69.6883 59.668L68.9266 61.3867C65.7137 61.0547 63.3406 59.7754 62.3836 57.9883C61.4266 59.7754 59.0828 61.0547 55.8797 61.3867L55.1375 59.668ZM58.4383 68.5547C58.4285 69.5312 59.8152 70.0684 62.3836 70.0586C64.9129 70.0684 66.3094 69.5312 66.3289 68.5547C66.3094 67.5781 64.9129 67.0605 62.3836 67.0508C59.8152 67.0605 58.4285 67.5781 58.4383 68.5547ZM85.9289 54.082V71.7578H83.7414V54.082H85.9289ZM71.8078 61.6016C71.798 57.793 73.7414 55.3711 76.4172 55.3711C79.0637 55.3711 81.0168 57.793 81.0266 61.6016C81.0168 65.4395 79.0637 67.8516 76.4172 67.8516C73.7414 67.8516 71.798 65.4395 71.8078 61.6016ZM73.8977 61.6016C73.8977 64.3164 74.923 65.8887 76.4172 65.8984C77.9016 65.8887 78.9172 64.3164 78.9172 61.6016C78.9172 58.9062 77.9016 57.3242 76.4172 57.3242C74.923 57.3242 73.8977 58.9062 73.8977 61.6016ZM102.834 54.1016V66.9922H100.646V54.1016H102.834ZM88.1461 62.832C91.0074 61.8262 92.4723 59.3359 92.4625 56.7969V55.0781H94.7086V56.7969C94.6988 59.2578 96.1441 61.582 98.9469 62.5195L97.8336 64.2383C95.8219 63.5352 94.3863 62.1289 93.6051 60.3223C92.8238 62.2559 91.359 63.7988 89.2789 64.5508L88.1461 62.832ZM91.1539 71.3867V65.7617H93.3414V69.6289H103.322V71.3867H91.1539ZM125.452 63.2617V64.9805H109.319V63.2617H116.291V61.9531H111.389V54.5508H123.518V56.2305H113.557V57.4414H123.088V59.043H113.557V60.293H123.655V61.9531H118.459V63.2617H125.452ZM111.233 68.8281C111.233 66.9824 113.45 65.9473 117.385 65.957C121.262 65.9473 123.489 66.9824 123.498 68.8281C123.489 70.7227 121.262 71.7188 117.385 71.7188C113.45 71.7188 111.233 70.7227 111.233 68.8281ZM113.401 68.8281C113.401 69.6875 114.729 70.0977 117.385 70.0977C119.993 70.0977 121.311 69.6875 121.33 68.8281C121.311 67.9883 119.993 67.5781 117.385 67.5781C114.729 67.5781 113.401 67.9883 113.401 68.8281ZM140.95 54.1016V66.9922H138.762V54.1016H140.95ZM126.262 62.832C129.124 61.8262 130.589 59.3359 130.579 56.7969V55.0781H132.825V56.7969C132.815 59.2578 134.261 61.582 137.063 62.5195L135.95 64.2383C133.938 63.5352 132.503 62.1289 131.721 60.3223C130.94 62.2559 129.475 63.7988 127.395 64.5508L126.262 62.832ZM129.27 71.3867V65.7617H131.458V69.6289H141.438V71.3867H129.27ZM149.437 58.3203C149.417 61.4746 150.999 64.6582 153.734 65.9766L152.405 67.7148C150.491 66.748 149.114 64.8828 148.363 62.6367C147.591 65.0391 146.146 67.0312 144.124 68.0469L142.796 66.3086C145.638 64.9609 147.259 61.582 147.269 58.3203V55.5078H149.437V58.3203ZM154.788 71.7383V54.082H156.956V60.9961H159.671V62.8516H156.956V71.7383H154.788ZM176.127 62.0898V63.7305H159.994V62.0898H176.127ZM161.869 66.3086V64.7852H174.173V68.8086H164.056V70.0391H174.701V71.543H161.888V67.4023H172.025V66.3086H161.869ZM161.986 55.9766V54.4727H174.134V58.457H164.193V59.6094H174.447V61.0938H162.045V57.0508H171.966V55.9766H161.986ZM187.67 57.207C187.661 59.5508 189.067 61.8359 191.811 62.7734L190.62 64.4727C188.715 63.7598 187.358 62.3828 186.606 60.6445C185.854 62.5879 184.409 64.1113 182.338 64.8828L181.186 63.1641C184.028 62.207 185.473 59.7656 185.483 57.1875V55.1758H187.67V57.207ZM184.389 71.3867V65.7812H186.596V69.6289H196.42V71.3867H184.389ZM190.346 59.7656V57.9883H193.862V54.1016H196.03V67.207H193.862V59.7656H190.346ZM205.727 55.3125V57.0508H200.884V58.7695H205.552V60.4297H200.884V62.2852C203.032 62.2656 204.536 62.1777 206.255 61.8555L206.489 63.6133C204.409 64.0039 202.71 64.0723 199.966 64.0625H198.794V55.3125H205.727ZM201.137 67.3828V65.625H213.227V71.7383H211.059V67.3828H201.137ZM207.29 64.707V54.4336H209.321V58.5156H211.157V54.1016H213.227V64.8438H211.157V60.2539H209.321V64.707H207.29ZM223.628 56.8945V58.6328H214.976V56.8945H218.257V54.5898H220.405V56.8945H223.628ZM215.484 63.6719C215.464 61.2695 217.095 59.5605 219.331 59.5703C221.577 59.5605 223.179 61.2695 223.179 63.6719C223.179 66.123 221.577 67.832 219.331 67.832C217.095 67.832 215.464 66.123 215.484 63.6719ZM217.398 63.6719C217.388 65.0977 218.189 65.9863 219.331 65.9766C220.464 65.9863 221.265 65.0977 221.265 63.6719C221.265 62.2852 220.464 61.3672 219.331 61.3672C218.189 61.3672 217.388 62.2852 217.398 63.6719ZM224.37 70.9375V54.4531H226.402V61.3477H228.12V54.082H230.191V71.7383H228.12V63.1055H226.402V70.9375H224.37ZM247.994 63.9258V65.6836H240.982V71.7188H238.834V65.6836H231.9V63.9258H247.994ZM232.74 61.0352C236.207 60.5957 238.531 58.7305 238.687 56.7969H233.384V55.0781H246.509V56.7969H241.207C241.353 58.7305 243.658 60.5957 247.154 61.0352L246.373 62.7344C243.365 62.3047 241.021 60.9277 239.947 59.0234C238.863 60.9277 236.539 62.3047 233.56 62.7344L232.74 61.0352ZM254.293 58.7109C254.303 61.5625 255.279 64.5312 257.672 66.0352L256.48 67.6953C254.889 66.7383 253.854 65.0977 253.268 63.1738C252.633 65.293 251.5 67.0898 249.84 68.1055L248.492 66.4844C251.061 64.9316 252.193 61.8164 252.203 58.8086V55.6445H254.293V58.7109ZM255.777 61.9531V60.1562H258.297V54.3945H260.348V70.8789H258.297V61.9531H255.777ZM261.93 71.7383V54.082H264.02V71.7383H261.93ZM281.803 67.8125V69.5898H265.67V67.8125H269.401V63.3496C267.995 62.5391 267.145 61.2695 267.155 59.707C267.145 56.8945 269.899 55.0391 273.698 55.0391C277.516 55.0391 280.289 56.8945 280.28 59.707C280.289 61.25 279.459 62.4902 278.092 63.3008V67.8125H281.803ZM269.284 59.707C269.274 61.5137 271.061 62.666 273.698 62.6562C276.325 62.666 278.151 61.5137 278.151 59.707C278.151 57.8711 276.325 56.748 273.698 56.7578C271.061 56.748 269.274 57.8711 269.284 59.707ZM271.549 67.8125H275.885V64.1309C275.211 64.2773 274.479 64.3555 273.698 64.3555C272.936 64.3555 272.213 64.2773 271.549 64.1406V67.8125ZM284.704 70.1562C283.864 70.1562 283.171 69.4727 283.18 68.6328C283.171 67.8125 283.864 67.1387 284.704 67.1289C285.514 67.1387 286.208 67.8125 286.208 68.6328C286.208 69.4727 285.514 70.1562 284.704 70.1562Z" fill="black"/>
<rect x="58.5" y="91.5" width="135" height="135" rx="67.5" fill="white"/>
<rect x="58.5" y="91.5" width="135" height="135" rx="67.5" stroke="#DDDDDD"/>
<path d="M102.719 154.375C102.594 152.859 101.594 151.953 99.5625 151.969C97.6094 151.953 96.7031 152.734 96.6875 153.781C96.6406 154.953 97.7031 155.594 99.8125 156.031L101.688 156.469C106.547 157.5 108.719 159.859 108.75 163.344C108.719 167.781 105.312 170.266 99.5938 170.281C93.75 170.266 89.9531 167.734 89.9062 162.156H95.5938C95.6875 164.266 97.1406 165.375 99.5 165.375C101.547 165.375 102.641 164.547 102.656 163.344C102.641 162.25 101.703 161.609 99.1875 161.062L96.9062 160.562C92.9219 159.688 90.4844 157.719 90.5 154.219C90.4688 149.938 94.25 147.062 99.5625 147.062C104.984 147.062 108.406 149.984 108.438 154.375H102.719ZM138.697 160.566V162.973H116.111V160.566H125.872V158.734H119.009V148.371H135.99V150.723H122.044V152.418H135.388V154.66H122.044V156.41H136.181V158.734H128.907V160.566H138.697ZM118.79 168.359C118.79 165.775 121.894 164.326 127.404 164.34C132.831 164.326 135.949 165.775 135.962 168.359C135.949 171.012 132.831 172.406 127.404 172.406C121.894 172.406 118.79 171.012 118.79 168.359ZM121.825 168.359C121.825 169.562 123.685 170.137 127.404 170.137C131.054 170.137 132.9 169.562 132.927 168.359C132.9 167.184 131.054 166.609 127.404 166.609C123.685 166.609 121.825 167.184 121.825 168.359ZM160.394 147.742V165.789H157.332V147.742H160.394ZM139.832 159.965C143.838 158.557 145.889 155.07 145.875 151.516V149.109H149.019V151.516C149.006 154.961 151.029 158.215 154.953 159.527L153.394 161.934C150.578 160.949 148.568 158.98 147.474 156.451C146.381 159.158 144.33 161.318 141.418 162.371L139.832 159.965ZM144.043 171.941V164.066H147.105V169.48H161.078V171.941H144.043Z" fill="#FF7A00"/>
<rect x="207.5" y="92.5" width="133" height="133" rx="66.5" fill="white"/>
<rect x="207.5" y="92.5" width="133" height="133" rx="66.5" stroke="#FF3A4A" stroke-width="3"/>
<path d="M237.531 170V147.375H243.469V156.625H243.781L250.781 147.375H257.75L250 157.469L257.906 170H250.781L245.562 161.406L243.469 164.094V170H237.531ZM287.134 160.566V162.973H264.548V160.566H274.31V158.734H267.447V148.371H284.427V150.723H270.482V152.418H283.825V154.66H270.482V156.41H284.618V158.734H277.345V160.566H287.134ZM267.228 168.359C267.228 165.775 270.331 164.326 275.841 164.34C281.269 164.326 284.386 165.775 284.4 168.359C284.386 171.012 281.269 172.406 275.841 172.406C270.331 172.406 267.228 171.012 267.228 168.359ZM270.263 168.359C270.263 169.562 272.122 170.137 275.841 170.137C279.491 170.137 281.337 169.562 281.365 168.359C281.337 167.184 279.491 166.609 275.841 166.609C272.122 166.609 270.263 167.184 270.263 168.359ZM308.832 147.742V165.789H305.769V147.742H308.832ZM288.269 159.965C292.275 158.557 294.326 155.07 294.312 151.516V149.109H297.457V151.516C297.443 154.961 299.467 158.215 303.39 159.527L301.832 161.934C299.015 160.949 297.006 158.98 295.912 156.451C294.818 159.158 292.767 161.318 289.855 162.371L288.269 159.965ZM292.48 171.941V164.066H295.543V169.48H309.515V171.941H292.48Z" fill="#E50019"/>
<rect x="58.5" y="239.5" width="135" height="135" rx="67.5" fill="white"/>
<rect x="58.5" y="239.5" width="135" height="135" rx="67.5" stroke="#DDDDDD"/>
<path d="M91.5312 318V295.375H97.4688V313.188H106.688V318H91.5312ZM136.759 308.566V310.973H114.173V308.566H123.935V306.734H117.072V296.371H134.052V298.723H120.107V300.418H133.45V302.66H120.107V304.41H134.243V306.734H126.97V308.566H136.759ZM116.853 316.359C116.853 313.775 119.956 312.326 125.466 312.34C130.894 312.326 134.011 313.775 134.025 316.359C134.011 319.012 130.894 320.406 125.466 320.406C119.956 320.406 116.853 319.012 116.853 316.359ZM119.888 316.359C119.888 317.562 121.747 318.137 125.466 318.137C129.116 318.137 130.962 317.562 130.99 316.359C130.962 315.184 129.116 314.609 125.466 314.609C121.747 314.609 119.888 315.184 119.888 316.359ZM158.457 295.742V313.789H155.394V295.742H158.457ZM137.894 307.965C141.9 306.557 143.951 303.07 143.937 299.516V297.109H147.082V299.516C147.068 302.961 149.092 306.215 153.015 307.527L151.457 309.934C148.64 308.949 146.631 306.98 145.537 304.451C144.443 307.158 142.392 309.318 139.48 310.371L137.894 307.965ZM142.105 319.941V312.066H145.168V317.48H159.14V319.941H142.105Z" fill="#2D2D2D"/>
<rect x="206.5" y="239.5" width="135" height="135" rx="67.5" fill="white"/>
<rect x="206.5" y="239.5" width="135" height="135" rx="67.5" stroke="#DDDDDD"/>
<path d="M245.125 318H238.688L246.219 295.375H254.312L261.812 318H255.406L254.047 313.562H246.469L245.125 318ZM247.844 309.062H252.672L250.344 301.469H250.156L247.844 309.062ZM291.572 308.566V310.973H268.986V308.566H278.747V306.734H271.884V296.371H288.865V298.723H274.919V300.418H288.263V302.66H274.919V304.41H289.056V306.734H281.782V308.566H291.572ZM271.665 316.359C271.665 313.775 274.769 312.326 280.279 312.34C285.706 312.326 288.824 313.775 288.837 316.359C288.824 319.012 285.706 320.406 280.279 320.406C274.769 320.406 271.665 319.012 271.665 316.359ZM274.7 316.359C274.7 317.562 276.56 318.137 280.279 318.137C283.929 318.137 285.775 317.562 285.802 316.359C285.775 315.184 283.929 314.609 280.279 314.609C276.56 314.609 274.7 315.184 274.7 316.359ZM313.269 295.742V313.789H310.207V295.742H313.269ZM292.707 307.965C296.713 306.557 298.764 303.07 298.75 299.516V297.109H301.894V299.516C301.881 302.961 303.904 306.215 307.828 307.527L306.269 309.934C303.453 308.949 301.443 306.98 300.349 304.451C299.256 307.158 297.205 309.318 294.293 310.371L292.707 307.965ZM296.918 319.941V312.066H299.98V317.48H313.953V319.941H296.918Z" fill="#0570AF"/>
<mask id="mask0_579_881" style="mask-type:alpha" maskUnits="userSpaceOnUse" x="20" y="390" width="28" height="28">
<rect x="20" y="390" width="28" height="28" fill="#D9D9D9"/>
</mask>
<g mask="url(#mask0_579_881)">
<path d="M34.0014 415.083C32.4684 415.083 31.0275 414.792 29.6786 414.21C28.3297 413.628 27.1565 412.839 26.1588 411.841C25.1611 410.844 24.3711 409.671 23.789 408.323C23.207 406.975 22.916 405.534 22.916 404.001C22.916 402.468 23.2069 401.027 23.7887 399.679C24.3705 398.33 25.16 397.156 26.1573 396.159C27.1546 395.161 28.3274 394.371 29.6757 393.789C31.024 393.207 32.4645 392.916 33.9973 392.916C35.5303 392.916 36.9712 393.207 38.3201 393.789C39.669 394.37 40.8422 395.16 41.8399 396.157C42.8376 397.155 43.6276 398.327 44.2097 399.676C44.7917 401.024 45.0827 402.465 45.0827 403.997C45.0827 405.53 44.7918 406.971 44.21 408.32C43.6282 409.669 42.8387 410.842 41.8414 411.84C40.8441 412.838 39.6713 413.628 38.323 414.21C36.9747 414.792 35.5342 415.083 34.0014 415.083ZM33.9993 413.333C36.6049 413.333 38.8118 412.429 40.6202 410.62C42.4285 408.812 43.3327 406.605 43.3327 403.999C43.3327 401.394 42.4285 399.187 40.6202 397.379C38.8118 395.57 36.6049 394.666 33.9993 394.666C31.3938 394.666 29.1868 395.57 27.3785 397.379C25.5702 399.187 24.666 401.394 24.666 403.999C24.666 406.605 25.5702 408.812 27.3785 410.62C29.1868 412.429 31.3938 413.333 33.9993 413.333Z" fill="#999999"/>
</g>
<path d="M65.834 395.691V407.293H63.8828V401.475H61.0703V399.893H63.8828V395.691H65.834ZM52.4922 403.865C55.0234 403.03 56.377 400.956 56.377 398.838V398.416H53.0723V396.834H61.6504V398.416H58.3633V398.855C58.3633 400.763 59.6465 402.74 62.1074 403.549L61.123 405.113C59.3477 404.507 58.0908 403.294 57.3965 401.791C56.7021 403.461 55.375 404.797 53.4941 405.447L52.4922 403.865ZM55.4102 411.248V406.273H57.3613V409.666H66.2383V411.248H55.4102ZM72.5755 400.525C72.5755 402.986 73.5863 405.465 75.8099 406.66L74.7201 408.102C73.2435 407.319 72.2416 405.922 71.6703 404.252C71.1078 406.054 70.1058 407.601 68.6205 408.471L67.4779 406.994C69.7279 405.693 70.7211 403.039 70.7298 400.525V400.033H68.0228V398.451H70.7298V396.236H72.5755V398.451H75.2298V400.033H72.5755V400.525ZM74.2455 403.391V401.773H76.3197V395.973H78.1654V410.791H76.3197V403.391H74.2455ZM79.5365 411.564V395.674H81.3998V411.564H79.5365ZM101.334 403.285V404.85H86.8321V403.285H93.1251V401.773H88.6075V396.395H99.5762V397.924H90.5587V400.227H99.6641V401.773H95.0411V403.285H101.334ZM88.5196 408.664C88.5196 406.801 90.6026 405.755 94.0567 405.764C97.4845 405.755 99.5499 406.801 99.5587 408.664C99.5499 410.51 97.4845 411.556 94.0567 411.564C90.6026 411.556 88.5196 410.51 88.5196 408.664ZM90.5059 408.664C90.4971 409.587 91.7452 410.062 94.0567 410.053C96.3331 410.062 97.5899 409.587 97.6075 408.664C97.5899 407.75 96.3331 407.258 94.0567 407.258C91.7452 407.258 90.4971 407.75 90.5059 408.664ZM107.179 396.781C109.702 396.772 111.539 398.363 111.556 400.613C111.539 402.872 109.702 404.454 107.179 404.463C104.683 404.454 102.811 402.872 102.82 400.613C102.811 398.363 104.683 396.772 107.179 396.781ZM102.099 406.66C104.964 406.66 108.928 406.625 112.365 406.133L112.523 407.557C108.963 408.233 105.149 408.26 102.345 408.26L102.099 406.66ZM104.753 400.613C104.745 401.94 105.79 402.758 107.179 402.758C108.585 402.758 109.631 401.94 109.64 400.613C109.631 399.295 108.594 398.469 107.179 398.469C105.79 398.469 104.745 399.295 104.753 400.613ZM113.314 411.582V395.674H115.265V411.582H113.314ZM129.671 395.674V402.002H132.114V403.619H129.671V411.564H127.737V395.674H129.671ZM117.137 399.682V398.117H120.899V395.902H122.85V398.117H126.507V399.682H117.137ZM117.876 404.463C117.858 402.266 119.563 400.71 121.884 400.719C124.169 400.71 125.865 402.266 125.874 404.463C125.865 406.651 124.169 408.189 121.884 408.189C119.563 408.189 117.858 406.651 117.876 404.463ZM119.739 404.463C119.73 405.755 120.636 406.581 121.884 406.572C123.105 406.581 123.993 405.755 124.011 404.463C123.993 403.171 123.105 402.318 121.884 402.318C120.636 402.318 119.73 403.171 119.739 404.463ZM145.694 395.674V411.564H143.725V395.674H145.694ZM132.527 407.188C136.694 405.21 138.61 402.521 138.961 398.908H133.336V397.361H140.947C140.947 402.09 139.111 406.106 133.547 408.752L132.527 407.188Z" fill="#222222"/>
<mask id="mask1_579_881" style="mask-type:alpha" maskUnits="userSpaceOnUse" x="20" y="430" width="22" height="22">
<rect x="20" y="430" width="22" height="22" fill="#D9D9D9"/>
</mask>
<g mask="url(#mask1_579_881)">
<path d="M31.001 449.708C29.7965 449.708 28.6643 449.479 27.6045 449.022C26.5447 448.565 25.6228 447.945 24.8389 447.161C24.055 446.377 23.4343 445.456 22.9769 444.397C22.5196 443.337 22.291 442.205 22.291 441.001C22.291 439.796 22.5196 438.664 22.9767 437.604C23.4338 436.545 24.0541 435.623 24.8377 434.839C25.6213 434.055 26.5428 433.434 27.6022 432.977C28.6615 432.52 29.7934 432.291 30.9977 432.291C32.2022 432.291 33.3344 432.52 34.3942 432.977C35.454 433.434 36.3759 434.054 37.1598 434.838C37.9437 435.621 38.5644 436.543 39.0218 437.602C39.4791 438.662 39.7077 439.793 39.7077 440.998C39.7077 442.202 39.4791 443.334 39.022 444.394C38.5649 445.454 37.9446 446.376 37.161 447.16C36.3774 447.944 35.4559 448.564 34.3965 449.022C33.3372 449.479 32.2053 449.708 31.001 449.708ZM30.9994 448.333C33.0466 448.333 34.7806 447.622 36.2014 446.201C37.6223 444.781 38.3327 443.047 38.3327 440.999C38.3327 438.952 37.6223 437.218 36.2014 435.797C34.7806 434.376 33.0466 433.666 30.9994 433.666C28.9521 433.666 27.2181 434.376 25.7973 435.797C24.3764 437.218 23.666 438.952 23.666 440.999C23.666 443.047 24.3764 444.781 25.7973 446.201C27.2181 447.622 28.9521 448.333 30.9994 448.333Z" fill="#999999"/>
</g>
<path d="M57.6455 434.664V447.687H56.5176V440.875H54.7158V447.042H53.6172V435.016H54.7158V439.923H56.5176V434.664H57.6455ZM46.542 444.083C49.5669 442.391 50.812 440.011 51.0098 437.315H47.04V436.363H52.1377C52.123 439.674 50.9585 442.801 47.2158 444.889L46.542 444.083ZM69.9432 434.679V444.2H68.8006V434.679H69.9432ZM59.4988 438.78C59.4915 436.905 60.9637 435.594 62.9119 435.587C64.8602 435.594 66.3177 436.905 66.325 438.78C66.3177 440.677 64.8602 441.996 62.9119 441.988C60.9637 441.996 59.4915 440.677 59.4988 438.78ZM60.6268 438.78C60.6121 440.077 61.5936 440.978 62.9119 440.978C64.2083 440.978 65.1971 440.077 65.1971 438.78C65.1971 437.506 64.2083 436.598 62.9119 436.598C61.5936 436.598 60.6121 437.506 60.6268 438.78ZM61.535 447.408V443.233H62.6775V446.441H70.3533V447.408H61.535ZM82.651 434.664V442.428H81.4937V439.015H78.8717V438.062H81.4937V434.664H82.651ZM71.9137 441.388C73.8473 440.692 75.2242 438.927 75.2242 437.066V436.583H72.2799V435.616H79.2965V436.583H76.3814V437.052C76.3814 438.751 77.6852 440.37 79.5895 441.021L78.9889 441.944C77.5313 441.417 76.3961 440.318 75.8321 438.978C75.2755 440.501 74.067 441.717 72.5143 442.311L71.9137 441.388ZM73.9645 445.255C73.9571 443.724 75.6197 442.831 78.3297 442.838C81.0323 442.831 82.6949 443.724 82.6949 445.255C82.6949 446.793 81.0323 447.672 78.3297 447.687C75.6197 447.672 73.9571 446.793 73.9645 445.255ZM75.107 445.255C75.0997 446.2 76.3302 446.771 78.3297 446.764C80.3219 446.771 81.5523 446.2 81.5523 445.255C81.5523 444.303 80.3219 443.731 78.3297 443.731C76.3302 443.731 75.0997 444.303 75.107 445.255ZM96.4428 445.064V446.017H84.5189V445.064H89.8803V442.252H85.9252V435.587H87.0824V437.945H93.85V435.587H94.9779V442.252H91.0082V445.064H96.4428ZM87.0824 441.314H93.85V438.883H87.0824V441.314ZM107.92 434.664V447.716H106.763V434.664H107.92ZM97.6662 440.216C97.6735 437.447 99.0505 435.682 100.991 435.675C102.925 435.682 104.324 437.447 104.317 440.216C104.324 442.992 102.925 444.75 100.991 444.742C99.0505 444.75 97.6735 442.992 97.6662 440.216ZM98.7795 440.216C98.7795 442.333 99.6877 443.724 100.991 443.717C102.302 443.724 103.203 442.333 103.203 440.216C103.203 438.099 102.302 436.708 100.991 436.7C99.6877 436.708 98.7795 438.099 98.7795 440.216ZM121.712 441.109V442.062H109.847V441.109H112.791V439.271C111.751 438.868 111.165 438.209 111.165 437.33C111.165 435.799 112.923 434.92 115.779 434.913C118.614 434.92 120.372 435.799 120.379 437.33C120.372 438.202 119.793 438.861 118.768 439.271V441.109H121.712ZM111.282 445.357C111.275 443.871 112.952 443.05 115.779 443.058C118.57 443.05 120.247 443.871 120.262 445.357C120.247 446.844 118.57 447.657 115.779 447.657C112.952 447.657 111.275 446.844 111.282 445.357ZM112.352 437.33C112.344 438.282 113.648 438.832 115.779 438.839C117.889 438.832 119.2 438.282 119.207 437.33C119.2 436.393 117.889 435.821 115.779 435.821C113.648 435.821 112.344 436.393 112.352 437.33ZM112.454 445.357C112.439 446.244 113.692 446.771 115.779 446.764C117.845 446.771 119.097 446.244 119.104 445.357C119.097 444.471 117.845 443.951 115.779 443.937C113.692 443.951 112.439 444.471 112.454 445.357ZM113.934 441.109H117.625V439.579C117.076 439.681 116.46 439.732 115.779 439.732C115.098 439.732 114.483 439.681 113.934 439.586V441.109ZM134.39 441.109V442.032H122.511V441.109H127.887V439.586H124.019V435.279H132.911V436.202H125.147V438.648H132.999V439.586H129V441.109H134.39ZM123.946 445.328C123.939 443.841 125.631 442.992 128.443 442.984C131.234 442.992 132.911 443.841 132.926 445.328C132.911 446.83 131.234 447.672 128.443 447.687C125.631 447.672 123.939 446.83 123.946 445.328ZM125.118 445.328C125.103 446.244 126.356 446.771 128.443 446.764C130.509 446.771 131.761 446.244 131.768 445.328C131.761 444.427 130.509 443.893 128.443 443.893C126.356 443.893 125.103 444.427 125.118 445.328ZM139.437 435.616C141.481 435.624 142.931 436.869 142.938 438.678C142.931 440.494 141.481 441.732 139.437 441.739C137.379 441.732 135.914 440.494 135.921 438.678C135.914 436.869 137.379 435.624 139.437 435.616ZM135.248 443.863C137.65 443.871 140.968 443.849 143.846 443.424L143.934 444.273C140.953 444.83 137.753 444.845 135.409 444.845L135.248 443.863ZM137.049 438.678C137.042 439.894 138.046 440.729 139.437 440.729C140.814 440.729 141.817 439.894 141.81 438.678C141.817 437.469 140.814 436.627 139.437 436.627C138.046 436.627 137.042 437.469 137.049 438.678ZM144.711 447.716V434.664H145.853V447.716H144.711Z" fill="#777777"/>
<path d="M46 448.895H147.611V449.913H46V448.895Z" fill="#777777"/>
<mask id="mask2_579_881" style="mask-type:alpha" maskUnits="userSpaceOnUse" x="200" y="430" width="22" height="22">
<rect x="200" y="430" width="22" height="22" fill="#D9D9D9"/>
</mask>
<g mask="url(#mask2_579_881)">
<path d="M211.001 449.708C209.796 449.708 208.664 449.479 207.604 449.022C206.545 448.565 205.623 447.945 204.839 447.161C204.055 446.377 203.434 445.456 202.977 444.397C202.52 443.337 202.291 442.205 202.291 441.001C202.291 439.796 202.52 438.664 202.977 437.604C203.434 436.545 204.054 435.623 204.838 434.839C205.621 434.055 206.543 433.434 207.602 432.977C208.662 432.52 209.793 432.291 210.998 432.291C212.202 432.291 213.334 432.52 214.394 432.977C215.454 433.434 216.376 434.054 217.16 434.838C217.944 435.621 218.564 436.543 219.022 437.602C219.479 438.662 219.708 439.793 219.708 440.998C219.708 442.202 219.479 443.334 219.022 444.394C218.565 445.454 217.945 446.376 217.161 447.16C216.377 447.944 215.456 448.564 214.397 449.022C213.337 449.479 212.205 449.708 211.001 449.708ZM210.999 448.333C213.047 448.333 214.781 447.622 216.201 446.201C217.622 444.781 218.333 443.047 218.333 440.999C218.333 438.952 217.622 437.218 216.201 435.797C214.781 434.376 213.047 433.666 210.999 433.666C208.952 433.666 207.218 434.376 205.797 435.797C204.376 437.218 203.666 438.952 203.666 440.999C203.666 443.047 204.376 444.781 205.797 446.201C207.218 447.622 208.952 448.333 210.999 448.333Z" fill="#999999"/>
</g>
<path d="M236.972 435.982V437.286C236.957 438.883 236.957 440.67 236.488 443.292L235.316 443.16C235.807 440.67 235.807 438.846 235.814 437.286V436.935H227.787V435.982H236.972ZM226.527 445.841V444.889H231.186V440.23H232.313V444.889H238.393V445.841H226.527ZM251.1 442.091V443.043H247.951V447.687H246.794V443.043H243.454V447.687H242.267V443.043H239.177V442.091H251.1ZM240.524 438.033C240.532 436.297 242.37 435.199 245.109 435.191C247.841 435.199 249.694 436.297 249.694 438.033C249.694 439.769 247.841 440.853 245.109 440.846C242.37 440.853 240.532 439.769 240.524 438.033ZM241.711 438.033C241.696 439.183 243.08 439.923 245.109 439.923C247.138 439.923 248.515 439.183 248.522 438.033C248.515 436.876 247.138 436.129 245.109 436.129C243.08 436.129 241.696 436.876 241.711 438.033ZM256.469 436.554C256.455 438.451 257.832 440.143 259.765 440.816L259.179 441.725C257.671 441.168 256.477 440.047 255.891 438.604C255.319 440.15 254.118 441.366 252.587 441.959L251.987 441.051C253.935 440.326 255.297 438.524 255.297 436.554V435.309H256.469V436.554ZM253.847 444.112V443.16H262.607V447.687H261.464V444.112H253.847ZM261.464 442.516V434.664H262.607V442.516H261.464ZM275.3 434.664V441.476H274.158V439.806H271.081V440.948H265.178V435.279H266.321V437.154H269.954V435.279H271.081V436.539H274.158V434.664H275.3ZM266.321 440.011H269.954V438.062H266.321V440.011ZM266.863 443.028V442.105H275.3V445.167H268.035V446.588H275.798V447.511H266.892V444.288H274.158V443.028H266.863ZM271.081 438.897H274.158V437.433H271.081V438.897ZM287.979 434.664V442.428H286.821V439.015H284.199V438.062H286.821V434.664H287.979ZM277.241 441.388C279.175 440.692 280.552 438.927 280.552 437.066V436.583H277.608V435.616H284.624V436.583H281.709V437.052C281.709 438.751 283.013 440.37 284.917 441.021L284.317 441.944C282.859 441.417 281.724 440.318 281.16 438.978C280.603 440.501 279.395 441.717 277.842 442.311L277.241 441.388ZM279.292 445.255C279.285 443.724 280.947 442.831 283.657 442.838C286.36 442.831 288.023 443.724 288.023 445.255C288.023 446.793 286.36 447.672 283.657 447.687C280.947 447.672 279.285 446.793 279.292 445.255ZM280.435 445.255C280.427 446.2 281.658 446.771 283.657 446.764C285.65 446.771 286.88 446.2 286.88 445.255C286.88 444.303 285.65 443.731 283.657 443.731C281.658 443.731 280.427 444.303 280.435 445.255ZM301.771 445.064V446.017H289.847V445.064H295.208V442.252H291.253V435.587H292.41V437.945H299.178V435.587H300.306V442.252H296.336V445.064H301.771ZM292.41 441.314H299.178V438.883H292.41V441.314ZM313.306 434.664V447.716H312.149V440.86H309.293V439.908H312.149V434.664H313.306ZM302.54 444.273C304.451 443.38 305.88 441.153 305.88 438.912V437.872H302.891V436.935H305.88V434.913H307.022V436.935H309.967V437.872H307.008V438.912C307.008 441.058 308.48 443.175 310.406 444.039L309.747 444.933C308.26 444.259 307.037 442.831 306.458 441.117C305.894 442.933 304.686 444.449 303.199 445.167L302.54 444.273ZM325.926 434.664V447.716H324.784V434.664H325.926ZM315.907 436.832V435.88H321.971V440.509H317.108V443.585C319.269 443.592 321.195 443.49 323.524 443.116L323.641 444.083C321.246 444.457 319.269 444.552 317.02 444.552H315.936V439.571H320.814V436.832H315.907ZM339.718 441.109V442.032H327.838V441.109H333.214V439.586H329.347V435.279H338.239V436.202H330.475V438.648H338.327V439.586H334.328V441.109H339.718ZM329.274 445.328C329.267 443.841 330.958 442.992 333.771 442.984C336.561 442.992 338.239 443.841 338.253 445.328C338.239 446.83 336.561 447.672 333.771 447.687C330.958 447.672 329.267 446.83 329.274 445.328ZM330.446 445.328C330.431 446.244 331.683 446.771 333.771 446.764C335.836 446.771 337.089 446.244 337.096 445.328C337.089 444.427 335.836 443.893 333.771 443.893C331.683 443.893 330.431 444.427 330.446 445.328ZM344.765 435.616C346.808 435.624 348.258 436.869 348.266 438.678C348.258 440.494 346.808 441.732 344.765 441.739C342.707 441.732 341.242 440.494 341.249 438.678C341.242 436.869 342.707 435.624 344.765 435.616ZM340.575 443.863C342.978 443.871 346.296 443.849 349.174 443.424L349.262 444.273C346.281 444.83 343.08 444.845 340.737 444.845L340.575 443.863ZM342.377 438.678C342.37 439.894 343.373 440.729 344.765 440.729C346.142 440.729 347.145 439.894 347.138 438.678C347.145 437.469 346.142 436.627 344.765 436.627C343.373 436.627 342.37 437.469 342.377 438.678ZM350.038 447.716V434.664H351.181V447.716H350.038Z" fill="#777777"/>
<path d="M226 448.895H352.939V449.913H226V448.895Z" fill="#777777"/>
<mask id="mask3_579_881" style="mask-type:alpha" maskUnits="userSpaceOnUse" x="20" y="464" width="22" height="22">
<rect x="20" y="464" width="22" height="22" fill="#D9D9D9"/>
</mask>
<g mask="url(#mask3_579_881)">
<path d="M31.001 483.708C29.7965 483.708 28.6643 483.479 27.6045 483.022C26.5447 482.565 25.6228 481.945 24.8389 481.161C24.055 480.377 23.4343 479.456 22.9769 478.397C22.5196 477.337 22.291 476.205 22.291 475.001C22.291 473.796 22.5196 472.664 22.9767 471.604C23.4338 470.545 24.0541 469.623 24.8377 468.839C25.6213 468.055 26.5428 467.434 27.6022 466.977C28.6615 466.52 29.7934 466.291 30.9977 466.291C32.2022 466.291 33.3344 466.52 34.3942 466.977C35.454 467.434 36.3759 468.054 37.1598 468.838C37.9437 469.621 38.5644 470.543 39.0218 471.602C39.4791 472.662 39.7077 473.793 39.7077 474.998C39.7077 476.202 39.4791 477.334 39.022 478.394C38.5649 479.454 37.9446 480.376 37.161 481.16C36.3774 481.944 35.4559 482.564 34.3965 483.022C33.3372 483.479 32.2053 483.708 31.001 483.708ZM30.9994 482.333C33.0466 482.333 34.7806 481.622 36.2014 480.201C37.6223 478.781 38.3327 477.047 38.3327 474.999C38.3327 472.952 37.6223 471.218 36.2014 469.797C34.7806 468.376 33.0466 467.666 30.9994 467.666C28.9521 467.666 27.2181 468.376 25.7973 469.797C24.3764 471.218 23.666 472.952 23.666 474.999C23.666 477.047 24.3764 478.781 25.7973 480.201C27.2181 481.622 28.9521 482.333 30.9994 482.333Z" fill="#999999"/>
</g>
<path d="M51.1123 472.165C51.105 474.523 52.6211 476.896 54.5107 477.761L53.8223 478.698C52.3428 477.937 51.1196 476.384 50.541 474.531C49.9624 476.479 48.7393 478.149 47.2598 478.933L46.5127 478.01C48.4243 477.072 49.9331 474.567 49.9404 472.165V469.792H51.1123V472.165ZM53.0898 474.055V473.117H56.1807V468.664H57.3232V481.716H56.1807V474.055H53.0898ZM69.9285 468.664V481.716H68.7713V468.664H69.9285ZM59.9529 478.566V469.777H61.0955V473.22H64.9773V469.777H66.1053V478.566H59.9529ZM61.0955 477.6H64.9773V474.143H61.0955V477.6ZM78.3443 470.583C78.3517 472.817 80.9005 474.802 83.1637 475.227L82.6363 476.193C80.6661 475.739 78.6007 474.34 77.7584 472.429C76.9088 474.34 74.8507 475.732 72.8805 476.193L72.3531 475.227C74.609 474.794 77.1358 472.824 77.1432 470.583V469.587H78.3443V470.583ZM71.8551 479.914V478.962H83.7789V479.914H71.8551ZM95.2562 468.664V481.716H94.099V468.664H95.2562ZM85.0023 474.216C85.0097 471.447 86.3866 469.682 88.3275 469.675C90.2611 469.682 91.6601 471.447 91.6527 474.216C91.6601 476.992 90.2611 478.75 88.3275 478.742C86.3866 478.75 85.0097 476.992 85.0023 474.216ZM86.1156 474.216C86.1156 476.333 87.0238 477.724 88.3275 477.717C89.6386 477.724 90.5395 476.333 90.5395 474.216C90.5395 472.099 89.6386 470.708 88.3275 470.7C87.0238 470.708 86.1156 472.099 86.1156 474.216ZM109.048 475.109V476.062H97.1828V475.109H100.127V473.271C99.0871 472.868 98.5012 472.209 98.5012 471.33C98.5012 469.799 100.259 468.92 103.115 468.913C105.95 468.92 107.708 469.799 107.715 471.33C107.708 472.202 107.129 472.861 106.104 473.271V475.109H109.048ZM98.6184 479.357C98.611 477.871 100.288 477.05 103.115 477.058C105.906 477.05 107.583 477.871 107.598 479.357C107.583 480.844 105.906 481.657 103.115 481.657C100.288 481.657 98.611 480.844 98.6184 479.357ZM99.6877 471.33C99.6804 472.282 100.984 472.832 103.115 472.839C105.225 472.832 106.536 472.282 106.543 471.33C106.536 470.393 105.225 469.821 103.115 469.821C100.984 469.821 99.6804 470.393 99.6877 471.33ZM99.7902 479.357C99.7756 480.244 101.028 480.771 103.115 480.764C105.181 480.771 106.433 480.244 106.441 479.357C106.433 478.471 105.181 477.951 103.115 477.937C101.028 477.951 99.7756 478.471 99.7902 479.357ZM101.27 475.109H104.961V473.579C104.412 473.681 103.797 473.732 103.115 473.732C102.434 473.732 101.819 473.681 101.27 473.586V475.109ZM121.961 470.686V471.623H120.027V473.454H121.961V474.436H120.027V476.413H118.885V468.664H120.027V470.686H121.961ZM110.096 472.517C110.088 470.708 111.539 469.448 113.509 469.455C115.494 469.448 116.922 470.708 116.937 472.517C116.922 474.348 115.494 475.6 113.509 475.607C111.539 475.6 110.088 474.348 110.096 472.517ZM111.224 472.517C111.216 473.769 112.19 474.626 113.509 474.611C114.842 474.626 115.801 473.769 115.809 472.517C115.801 471.293 114.842 470.444 113.509 470.437C112.19 470.444 111.216 471.293 111.224 472.517ZM111.502 477.966V477.014H120.027V481.687H118.885V477.966H111.502ZM129.732 469.675V470.363C129.725 471.22 129.725 472.517 129.395 474.216L128.238 474.128C128.553 472.575 128.582 471.469 128.597 470.642H123.243V469.675H129.732ZM122.437 475.432C123.28 475.432 124.232 475.424 125.235 475.395V472.561H126.378V475.358C127.821 475.3 129.315 475.197 130.67 475.007L130.743 475.856C128.011 476.325 124.876 476.376 122.554 476.384L122.437 475.432ZM124.444 481.408V477.585H125.601V480.441H133.145V481.408H124.444ZM131.549 478.464V468.664H132.721V472.912H134.625V473.894H132.721V478.464H131.549ZM147.054 475.109V476.032H135.174V475.109H140.55V473.586H136.683V469.279H145.575V470.202H137.811V472.648H145.663V473.586H141.664V475.109H147.054ZM136.61 479.328C136.603 477.841 138.295 476.992 141.107 476.984C143.898 476.992 145.575 477.841 145.589 479.328C145.575 480.83 143.898 481.672 141.107 481.687C138.295 481.672 136.603 480.83 136.61 479.328ZM137.782 479.328C137.767 480.244 139.02 480.771 141.107 480.764C143.172 480.771 144.425 480.244 144.432 479.328C144.425 478.427 143.172 477.893 141.107 477.893C139.02 477.893 137.767 478.427 137.782 479.328ZM152.101 469.616C154.144 469.624 155.595 470.869 155.602 472.678C155.595 474.494 154.144 475.732 152.101 475.739C150.043 475.732 148.578 474.494 148.585 472.678C148.578 470.869 150.043 469.624 152.101 469.616ZM147.912 477.863C150.314 477.871 153.632 477.849 156.51 477.424L156.598 478.273C153.617 478.83 150.416 478.845 148.073 478.845L147.912 477.863ZM149.713 472.678C149.706 473.894 150.709 474.729 152.101 474.729C153.478 474.729 154.481 473.894 154.474 472.678C154.481 471.469 153.478 470.627 152.101 470.627C150.709 470.627 149.706 471.469 149.713 472.678ZM157.374 481.716V468.664H158.517V481.716H157.374Z" fill="#777777"/>
<path d="M46 482.895H160.275V483.913H46V482.895Z" fill="#777777"/>
<mask id="mask4_579_881" style="mask-type:alpha" maskUnits="userSpaceOnUse" x="200" y="464" width="22" height="22">
<rect x="200" y="464" width="22" height="22" fill="#D9D9D9"/>
</mask>
<g mask="url(#mask4_579_881)">
<path d="M211.001 483.708C209.796 483.708 208.664 483.479 207.604 483.022C206.545 482.565 205.623 481.945 204.839 481.161C204.055 480.377 203.434 479.456 202.977 478.397C202.52 477.337 202.291 476.205 202.291 475.001C202.291 473.796 202.52 472.664 202.977 471.604C203.434 470.545 204.054 469.623 204.838 468.839C205.621 468.055 206.543 467.434 207.602 466.977C208.662 466.52 209.793 466.291 210.998 466.291C212.202 466.291 213.334 466.52 214.394 466.977C215.454 467.434 216.376 468.054 217.16 468.838C217.944 469.621 218.564 470.543 219.022 471.602C219.479 472.662 219.708 473.793 219.708 474.998C219.708 476.202 219.479 477.334 219.022 478.394C218.565 479.454 217.945 480.376 217.161 481.16C216.377 481.944 215.456 482.564 214.397 483.022C213.337 483.479 212.205 483.708 211.001 483.708ZM210.999 482.333C213.047 482.333 214.781 481.622 216.201 480.201C217.622 478.781 218.333 477.047 218.333 474.999C218.333 472.952 217.622 471.218 216.201 469.797C214.781 468.376 213.047 467.666 210.999 467.666C208.952 467.666 207.218 468.376 205.797 469.797C204.376 471.218 203.666 472.952 203.666 474.999C203.666 477.047 204.376 478.781 205.797 480.201C207.218 481.622 208.952 482.333 210.999 482.333Z" fill="#999999"/>
</g>
<path d="M238.393 475.578V476.516H226.513V475.578H231.874V474.289H228.095V469.045H236.913V469.982H229.252V471.198H236.562V472.077H229.252V473.366H236.986V474.289H233.017V475.578H238.393ZM227.963 479.577C227.956 478.222 229.574 477.482 232.46 477.497C235.316 477.482 236.928 478.222 236.942 479.577C236.928 480.947 235.316 481.657 232.46 481.657C229.574 481.657 227.956 480.947 227.963 479.577ZM229.12 479.577C229.105 480.368 230.307 480.778 232.46 480.764C234.591 480.778 235.778 480.368 235.785 479.577C235.778 478.801 234.591 478.369 232.46 478.361C230.307 478.369 229.105 478.801 229.12 479.577ZM249.943 468.679V478.229H248.801V468.679H249.943ZM239.323 475.446C241.293 474.677 242.634 472.773 242.634 470.715V469.411H243.805V470.715C243.791 472.7 245.146 474.479 247.087 475.183L246.486 476.105C244.977 475.527 243.805 474.355 243.227 472.854C242.663 474.45 241.476 475.732 239.953 476.34L239.323 475.446ZM241.535 481.408V477.351H242.678V480.441H250.353V481.408H241.535ZM256.22 472.165C256.22 474.458 257.736 476.823 259.589 477.731L258.886 478.654C257.451 477.907 256.25 476.362 255.671 474.553C255.092 476.472 253.862 478.12 252.397 478.903L251.665 477.98C253.569 477.043 255.078 474.545 255.092 472.165V469.792H256.22V472.165ZM260.791 481.687V468.664H261.933V473.952H264.116V474.948H261.933V481.687H260.791ZM275.256 468.664V481.716H274.099V468.664H275.256ZM265.002 474.216C265.01 471.447 266.387 469.682 268.328 469.675C270.261 469.682 271.66 471.447 271.653 474.216C271.66 476.992 270.261 478.75 268.328 478.742C266.387 478.75 265.01 476.992 265.002 474.216ZM266.116 474.216C266.116 476.333 267.024 477.724 268.328 477.717C269.639 477.724 270.539 476.333 270.539 474.216C270.539 472.099 269.639 470.708 268.328 470.7C267.024 470.708 266.116 472.099 266.116 474.216ZM289.048 475.109V476.062H277.183V475.109H280.127V473.271C279.087 472.868 278.501 472.209 278.501 471.33C278.501 469.799 280.259 468.92 283.115 468.913C285.95 468.92 287.708 469.799 287.715 471.33C287.708 472.202 287.129 472.861 286.104 473.271V475.109H289.048ZM278.618 479.357C278.611 477.871 280.288 477.05 283.115 477.058C285.906 477.05 287.583 477.871 287.598 479.357C287.583 480.844 285.906 481.657 283.115 481.657C280.288 481.657 278.611 480.844 278.618 479.357ZM279.688 471.33C279.68 472.282 280.984 472.832 283.115 472.839C285.225 472.832 286.536 472.282 286.543 471.33C286.536 470.393 285.225 469.821 283.115 469.821C280.984 469.821 279.68 470.393 279.688 471.33ZM279.79 479.357C279.776 480.244 281.028 480.771 283.115 480.764C285.181 480.771 286.433 480.244 286.441 479.357C286.433 478.471 285.181 477.951 283.115 477.937C281.028 477.951 279.776 478.471 279.79 479.357ZM281.27 475.109H284.961V473.579C284.412 473.681 283.797 473.732 283.115 473.732C282.434 473.732 281.819 473.681 281.27 473.586V475.109ZM301.961 470.686V471.623H300.027V473.454H301.961V474.436H300.027V476.413H298.885V468.664H300.027V470.686H301.961ZM290.096 472.517C290.088 470.708 291.539 469.448 293.509 469.455C295.494 469.448 296.922 470.708 296.937 472.517C296.922 474.348 295.494 475.6 293.509 475.607C291.539 475.6 290.088 474.348 290.096 472.517ZM291.224 472.517C291.216 473.769 292.19 474.626 293.509 474.611C294.842 474.626 295.801 473.769 295.809 472.517C295.801 471.293 294.842 470.444 293.509 470.437C292.19 470.444 291.216 471.293 291.224 472.517ZM291.502 477.966V477.014H300.027V481.687H298.885V477.966H291.502ZM309.732 469.675V470.363C309.725 471.22 309.725 472.517 309.395 474.216L308.238 474.128C308.553 472.575 308.582 471.469 308.597 470.642H303.243V469.675H309.732ZM302.437 475.432C303.28 475.432 304.232 475.424 305.235 475.395V472.561H306.378V475.358C307.821 475.3 309.315 475.197 310.67 475.007L310.743 475.856C308.011 476.325 304.876 476.376 302.554 476.384L302.437 475.432ZM304.444 481.408V477.585H305.601V480.441H313.145V481.408H304.444ZM311.549 478.464V468.664H312.721V472.912H314.625V473.894H312.721V478.464H311.549ZM327.054 475.109V476.032H315.174V475.109H320.55V473.586H316.683V469.279H325.575V470.202H317.811V472.648H325.663V473.586H321.664V475.109H327.054ZM316.61 479.328C316.603 477.841 318.295 476.992 321.107 476.984C323.898 476.992 325.575 477.841 325.589 479.328C325.575 480.83 323.898 481.672 321.107 481.687C318.295 481.672 316.603 480.83 316.61 479.328ZM317.782 479.328C317.767 480.244 319.02 480.771 321.107 480.764C323.172 480.771 324.425 480.244 324.432 479.328C324.425 478.427 323.172 477.893 321.107 477.893C319.02 477.893 317.767 478.427 317.782 479.328ZM332.101 469.616C334.144 469.624 335.595 470.869 335.602 472.678C335.595 474.494 334.144 475.732 332.101 475.739C330.043 475.732 328.578 474.494 328.585 472.678C328.578 470.869 330.043 469.624 332.101 469.616ZM327.912 477.863C330.314 477.871 333.632 477.849 336.51 477.424L336.598 478.273C333.617 478.83 330.416 478.845 328.073 478.845L327.912 477.863ZM329.713 472.678C329.706 473.894 330.709 474.729 332.101 474.729C333.478 474.729 334.481 473.894 334.474 472.678C334.481 471.469 333.478 470.627 332.101 470.627C330.709 470.627 329.706 471.469 329.713 472.678ZM337.374 481.716V468.664H338.517V481.716H337.374Z" fill="#777777"/>
<path d="M226 482.895H340.275V483.913H226V482.895Z" fill="#777777"/>
<defs>
<clipPath id="clip0_579_881">
<rect width="64.0816" height="20" fill="white" transform="translate(20 15)"/>
</clipPath>
</defs>
</svg>
