<svg width="400" height="727" viewBox="0 0 400 727" fill="none" xmlns="http://www.w3.org/2000/svg">
<rect width="400" height="727" fill="white"/>
<g clip-path="url(#clip0_263_687)">
<path d="M34.3254 15H20.3748C20.1678 15 20 15.1682 20 15.3758V34.6242C20 34.8318 20.1678 35 20.3748 35H34.3254C34.5324 35 34.7002 34.8318 34.7002 34.6242V15.3758C34.7002 15.1682 34.5324 15 34.3254 15Z" fill="#FF3A4A"/>
<path d="M83.7063 15H69.7557C69.5487 15 69.3809 15.1682 69.3809 15.3758V34.6242C69.3809 34.8318 69.5487 35 69.7557 35H83.7063C83.9133 35 84.0811 34.8318 84.0811 34.6242V15.3758C84.0811 15.1682 83.9133 15 83.7063 15Z" fill="#FF3A4A"/>
<path d="M67.2473 15H53.2967C53.0897 15 52.9219 15.1682 52.9219 15.3758V34.6242C52.9219 34.8318 53.0897 35 53.2967 35H67.2473C67.4543 35 67.6221 34.8318 67.6221 34.6242V15.3758C67.6221 15.1682 67.4543 15 67.2473 15Z" fill="#FF3A4A"/>
<path d="M50.7864 15H36.8358C36.6287 15 36.4609 15.1682 36.4609 15.3758V34.6242C36.4609 34.8318 36.6287 35 36.8358 35H50.7864C50.9934 35 51.1612 34.8318 51.1612 34.6242V15.3758C51.1612 15.1682 50.9934 15 50.7864 15Z" fill="#FF3A4A"/>
<path d="M60.2141 17.5611C59.2109 17.5462 58.1944 17.8237 57.4104 18.4561C56.6493 19.0988 56.2825 20.1285 56.353 21.111C56.2591 21.9369 56.3849 22.7967 56.8264 23.5108C57.4103 24.5933 58.5689 25.1415 59.4646 25.9206C60.2381 26.5202 61.1773 27.0587 61.5586 28.0098C61.6957 28.6387 61.7622 29.4193 61.3042 29.9351C60.7553 30.5017 59.7502 30.478 59.1583 29.9954C58.9861 29.8513 58.7665 29.5951 58.7665 29.3024C58.7665 28.697 58.7638 27.9769 58.7638 27.9769H56.333C56.333 29.3457 56.2722 29.9698 56.8184 30.8056C57.4013 31.8186 58.5671 32.3712 59.7062 32.4334C60.21 32.4657 60.7246 32.4919 61.2173 32.3603C62.2661 32.1853 63.2003 31.5153 63.7265 30.5946C64.1932 29.6801 64.0868 28.6183 63.9792 27.6351C63.7572 26.5525 62.9522 25.7201 62.0834 25.0996C61.1263 24.3213 60.036 23.6881 59.2081 22.7622C58.6794 22.2309 58.7741 21.4643 58.7865 20.7838C58.7954 20.07 59.468 19.681 60.1797 19.663C60.8915 19.6452 61.6493 20.1559 61.6493 21.0156V22.0904H64.0711C64.0711 20.9584 64.0906 20.5307 63.8795 19.7876C63.4644 18.6455 62.3649 17.8931 61.204 17.6713C60.8816 17.6036 60.5486 17.5662 60.2142 17.5612L60.2141 17.5611ZM76.6656 17.5611C75.6622 17.5462 74.6456 17.8237 73.8617 18.4561C73.1005 19.0988 72.7338 20.1285 72.8043 21.111C72.7104 21.9369 72.8361 22.7967 73.2777 23.5108C73.8616 24.5933 75.0201 25.1415 75.9158 25.9206C76.6894 26.5202 77.6287 27.0587 78.01 28.0098C78.1472 28.6387 78.2135 29.4193 77.7556 29.9351C77.2066 30.5017 76.2015 30.478 75.6095 29.9954C75.4374 29.8513 75.2178 29.5951 75.2178 29.3024C75.2178 28.697 75.2151 27.9769 75.2151 27.9769H72.7842C72.7842 29.3457 72.7234 29.9698 73.2696 30.8056C73.8526 31.8186 75.0184 32.3712 76.1575 32.4334C76.6613 32.4657 77.1758 32.4919 77.6685 32.3603C78.7174 32.1853 79.6517 31.5153 80.1778 30.5946C80.6445 29.6801 80.5381 28.6183 80.4306 27.6351C80.2085 26.5525 79.4035 25.7201 78.5346 25.0996C77.5775 24.3213 76.4873 23.6881 75.6594 22.7622C75.1308 22.2309 75.2253 21.4643 75.2378 20.7838C75.2465 20.07 75.9192 19.681 76.631 19.663C77.3427 19.6452 78.1006 20.1559 78.1006 21.0156V22.0904H80.5224C80.5224 20.9584 80.542 20.5307 80.3308 19.7876C79.9156 18.6455 78.8162 17.8931 77.6553 17.6713C77.3329 17.6036 77 17.5661 76.6656 17.5611ZM27.2079 17.7225C26.9321 17.7237 26.6463 17.729 26.3476 17.729C25.1528 17.729 24.6146 17.7417 23.748 17.729V32.2116H26.0453V27.848C27.3295 27.8146 28.7368 28.0269 29.8755 27.2831C30.7953 26.7409 31.2947 25.6383 31.1872 24.5854C31.1644 23.1003 31.2184 21.6094 31.1583 20.1274C30.9499 19.2052 30.3881 18.419 29.4957 18.0822C28.772 17.7527 28.0351 17.7189 27.2079 17.7225ZM42.0753 17.7656L39.6475 32.2722H41.9311L42.3327 29.7268H45.3178L45.7081 32.2116H48.0319L45.6055 17.7655L42.0753 17.7656ZM26.0453 19.9307H27.8834C28.7743 19.9307 29.0035 20.6136 29.0035 21.1178V24.5753C29.0035 25.1513 28.4661 25.545 27.9482 25.545H26.0453V19.9307ZM43.8365 20.3631L45.0294 27.545H42.6703L43.8365 20.3631Z" fill="white"/>
</g>
<path d="M32.2188 66.2656V80.4062H30.4688V66.2656H32.2188ZM20.9219 72.2812C20.9141 69.2344 22.4688 67.2969 24.6094 67.2969C26.7266 67.2969 28.2891 69.2344 28.2969 72.2812C28.2891 75.3516 26.7266 77.2812 24.6094 77.2812C22.4688 77.2812 20.9141 75.3516 20.9219 72.2812ZM22.5938 72.2812C22.5938 74.4531 23.4141 75.7109 24.6094 75.7188C25.7969 75.7109 26.6094 74.4531 26.6094 72.2812C26.6094 70.125 25.7969 68.8594 24.6094 68.8594C23.4141 68.8594 22.5938 70.125 22.5938 72.2812ZM46.8675 73.4531V74.8281H33.9613V73.4531H46.8675ZM35.555 67.9219V66.5625H45.2738V70.1875H37.3206V71.2031H45.555V72.5312H35.6019V68.9219H43.5394V67.9219H35.555ZM35.6488 80.2188V75.8438H45.3206V80.2188H35.6488ZM37.3519 78.8125H43.6019V77.2188H37.3519V78.8125Z" fill="#222222"/>
<mask id="path-7-inside-1_263_687" fill="white">
<path d="M20 101H380V136H20V101Z"/>
</mask>
<path d="M380 135H20V137H380V135Z" fill="#777777" mask="url(#path-7-inside-1_263_687)"/>
<path d="M27.3975 113.014C27.3975 116.302 24.9805 118.646 21.1426 119.664L20.6738 118.756C23.8892 117.906 25.9253 116.178 26.1743 113.951H21.3623V113.014H27.3975ZM22.8125 125.011V120.162H31.2793V125.011H22.8125ZM23.9404 124.073H30.1514V121.085H23.9404V124.073ZM30.1367 119.532V112.179H31.2793V119.532H30.1367ZM34.7732 113.409V116.588H37.6004V113.409H38.6697V121.935H33.6746V113.409H34.7732ZM34.7732 120.982H37.6004V117.525H34.7732V120.982ZM40.325 124.527V112.442H41.4236V117.335H43.24V112.164H44.3533V125.187H43.24V118.287H41.4236V124.527H40.325ZM51.7877 112.413C54.6222 112.42 56.38 113.321 56.3873 114.874C56.38 116.397 54.6222 117.298 51.7877 117.291C48.9532 117.298 47.1734 116.397 47.1734 114.874C47.1734 113.321 48.9532 112.42 51.7877 112.413ZM45.8551 119.239V118.287H57.7203V119.239H52.3443V120.733H56.2701V125.011H47.3053V120.733H51.2164V119.239H45.8551ZM48.36 114.874C48.3526 115.826 49.6783 116.383 51.7877 116.383C53.8751 116.383 55.2081 115.826 55.2154 114.874C55.2081 113.9 53.8751 113.321 51.7877 113.321C49.6783 113.321 48.3526 113.9 48.36 114.874ZM48.4479 124.073H55.1422V121.656H48.4479V124.073Z" fill="#222222"/>
<path d="M33.3438 169.141V170.547H27.7344V175.375H26.0156V170.547H20.4688V169.141H33.3438ZM21.1406 166.828C23.9141 166.477 25.7734 164.984 25.8984 163.438H21.6562V162.062H32.1562V163.438H27.9141C28.0312 164.984 29.875 166.477 32.6719 166.828L32.0469 168.188C29.6406 167.844 27.7656 166.742 26.9062 165.219C26.0391 166.742 24.1797 167.844 21.7969 168.188L21.1406 166.828ZM41.5081 162.438V169.156H34.6956V162.438H41.5081ZM36.3988 175.016V170.406H38.1488V173.609H46.1331V175.016H36.3988ZM36.4144 167.766H39.7894V163.828H36.4144V167.766ZM43.9925 171.359V161.281H45.7425V171.359H43.9925ZM60.3756 167.812V169.234H47.485V167.812H60.3756ZM48.985 172.781C48.985 171.141 50.8366 170.211 53.9069 170.219C56.9538 170.211 58.7897 171.141 58.7975 172.781C58.7897 174.445 56.9538 175.375 53.9069 175.375C50.8366 175.375 48.985 174.445 48.985 172.781ZM49.0631 166.703V161.719H58.8131V163.125H50.7975V165.312H58.8913V166.703H49.0631ZM50.7506 172.781C50.7428 173.617 51.8522 174.031 53.9069 174.031C55.9303 174.031 57.0475 173.617 57.0631 172.781C57.0475 171.984 55.9303 171.547 53.9069 171.547C51.8522 171.547 50.7428 171.984 50.7506 172.781ZM73.8838 168.906V170.312H60.9775V168.906H66.5713V167.734H62.6181V163.984H70.5556V162.938H62.5713V161.578H72.29V165.25H64.3369V166.375H72.5713V167.734H68.29V168.906H73.8838ZM62.415 172.578V171.203H72.3681V175.297H70.6181V172.578H62.415ZM86.3294 161.281V171.703H84.595V166.5H81.7513V169.406H75.1419V162.203H76.8763V164.484H80.0325V162.203H81.7513V165.094H84.595V161.281H86.3294ZM76.8763 168.031H80.0325V165.828H76.8763V168.031ZM77.0169 175.109V170.672H78.7825V173.703H86.6419V175.109H77.0169ZM100.259 163.156V164.562H88.5875V163.156H93.5719V161.453H95.2906V163.156H100.259ZM88.0094 173.875V172.469H93.5719V170.734C91.1344 170.547 89.6578 169.562 89.6656 168C89.6578 166.297 91.4859 165.281 94.4313 165.281C97.3375 165.281 99.1891 166.297 99.1813 168C99.1891 169.555 97.6969 170.539 95.2906 170.734V172.469H100.916V173.875H88.0094ZM91.4469 168C91.4391 168.906 92.5094 169.367 94.4313 169.375C96.3141 169.367 97.4 168.906 97.4 168C97.4 167.109 96.3141 166.648 94.4313 166.641C92.5094 166.648 91.4391 167.109 91.4469 168Z" fill="#222222"/>
<rect x="20.5" y="196.5" width="160.5" height="34" stroke="#777777"/>
<path d="M37.625 219.676C35.4189 219.649 32.9844 218.34 32.9844 213.629C32.9844 209.12 34.8301 206.598 37.8184 206.598C40.0596 206.598 41.624 207.978 41.9492 209.973H40.3848C40.0947 208.848 39.2334 208.004 37.8184 208.004C35.7266 208.004 34.4697 209.788 34.4785 212.855H34.6367C35.3662 211.792 36.5352 211.168 37.9062 211.168C40.165 211.168 42.0547 212.926 42.0547 215.387C42.0547 217.786 40.3057 219.702 37.625 219.676ZM34.6895 215.422C34.6982 216.916 35.9199 218.278 37.625 218.287C39.2686 218.278 40.5166 216.986 40.5254 215.404C40.5166 213.84 39.3213 212.565 37.6602 212.557C35.9902 212.565 34.707 213.919 34.6895 215.422Z" fill="#222222"/>
<path d="M57.5898 219.676C55.0586 219.676 53.2393 218.322 53.1602 216.301H54.7598C54.8477 217.514 56.0518 218.27 57.5723 218.27C59.251 218.27 60.4639 217.364 60.4727 216.037C60.4639 214.648 59.3564 213.673 57.3789 213.664H56.3418V212.275H57.3789C58.9258 212.275 60.0068 211.405 59.998 210.096C60.0068 208.821 59.0752 207.978 57.625 207.969C56.2627 207.978 55.0234 208.725 54.9531 209.973H53.4238C53.5029 207.951 55.3838 206.598 57.6426 206.598C60.0684 206.598 61.5449 208.188 61.5273 210.008C61.5449 211.458 60.7012 212.513 59.3652 212.891V212.979C61.0264 213.233 62.0283 214.42 62.0195 216.037C62.0283 218.129 60.1299 219.676 57.5898 219.676Z" fill="#222222"/>
<path d="M77.3613 219.676C74.54 219.676 72.9053 217.303 72.9141 213.137C72.9053 209.006 74.5576 206.598 77.3613 206.598C80.1562 206.598 81.8086 209.006 81.8086 213.137C81.8086 217.303 80.1826 219.676 77.3613 219.676ZM74.4434 213.137C74.4521 216.433 75.5156 218.27 77.3613 218.27C79.1982 218.27 80.2705 216.433 80.2617 213.137C80.2705 209.841 79.1895 207.978 77.3613 207.969C75.5332 207.978 74.4521 209.841 74.4434 213.137Z" fill="#222222"/>
<path d="M92.5996 219.5L98.4355 208.268V208.18H91.7031V206.773H100.07V208.25L94.252 219.5H92.5996Z" fill="#222222"/>
<path d="M114.695 206.773V219.5H113.096V208.426H113.025L109.932 210.482V208.883L113.096 206.773H114.695Z" fill="#222222"/>
<path d="M130.361 219.676C127.54 219.676 125.905 217.303 125.914 213.137C125.905 209.006 127.558 206.598 130.361 206.598C133.156 206.598 134.809 209.006 134.809 213.137C134.809 217.303 133.183 219.676 130.361 219.676ZM127.443 213.137C127.452 216.433 128.516 218.27 130.361 218.27C132.198 218.27 133.271 216.433 133.262 213.137C133.271 209.841 132.189 207.978 130.361 207.969C128.533 207.978 127.452 209.841 127.443 213.137Z" fill="#222222"/>
<path d="M202.066 213.888V215.045H197.423V213.888H202.066Z" fill="#777777"/>
<rect x="219" y="196.5" width="35" height="34" stroke="#777777"/>
<path d="M236.195 206.773V219.5H234.596V208.426H234.525L231.432 210.482V208.883L234.596 206.773H236.195Z" fill="#222222"/>
<circle cx="268.5" cy="213.5" r="4" fill="#999999"/>
<circle cx="288.5" cy="213.5" r="4" fill="#999999"/>
<circle cx="308.5" cy="213.5" r="4" fill="#999999"/>
<circle cx="328.5" cy="213.5" r="4" fill="#999999"/>
<circle cx="348.5" cy="213.5" r="4" fill="#999999"/>
<circle cx="368.5" cy="213.5" r="4" fill="#999999"/>
<path d="M32.6406 257.734V259.109H21.1094V257.734H26.0312V256.234H27.75V257.734H32.6406ZM20.4688 266.703V265.297H33.375V266.703H30.25V270.406H28.5V266.703H25.3281V270.406H23.5938V266.703H20.4688ZM22.1094 262.141C22.1094 260.602 23.9062 259.758 26.8906 259.75C29.875 259.758 31.6719 260.602 31.6719 262.141C31.6719 263.672 29.875 264.531 26.8906 264.531C23.9062 264.531 22.1094 263.672 22.1094 262.141ZM23.9219 262.141C23.9141 262.844 24.9375 263.211 26.8906 263.203C28.8359 263.211 29.8672 262.844 29.875 262.141C29.8672 261.422 28.8359 261.07 26.8906 261.062C24.9375 261.07 23.9141 261.422 23.9219 262.141ZM46.1331 256.266V270.391H44.4769V263.188H42.8831V269.672H41.2894V256.531H42.8831V261.797H44.4769V256.266H46.1331ZM34.4144 267.094V257.938H39.6956V259.344H36.1644V265.625C37.6956 265.609 38.9613 265.531 40.3988 265.266L40.5238 266.688C38.8128 267.031 37.3363 267.078 35.3675 267.094H34.4144ZM59.1725 256.828V258.234H57.235V260.938H59.0944V262.297H54.7819V263.75H60.36V265.125H47.485V263.75H53.0319V262.297H48.7194V260.938H50.5788V258.234H48.6413V256.828H59.1725ZM49.0788 270.109V266.141H50.8131V268.703H58.9069V270.109H49.0788ZM52.3131 260.938H55.485V258.234H52.3131V260.938ZM72.8213 256.281V266.703H71.0869V261.5H68.2431V264.406H61.6338V257.203H63.3681V259.484H66.5244V257.203H68.2431V260.094H71.0869V256.281H72.8213ZM63.3681 263.031H66.5244V260.828H63.3681V263.031ZM63.5088 270.109V265.672H65.2744V268.703H73.1338V270.109H63.5088ZM86.7513 258.156V259.562H75.0794V258.156H80.0638V256.453H81.7825V258.156H86.7513ZM74.5013 268.875V267.469H80.0638V265.734C77.6263 265.547 76.1497 264.562 76.1575 263C76.1497 261.297 77.9778 260.281 80.9231 260.281C83.8294 260.281 85.6809 261.297 85.6731 263C85.6809 264.555 84.1888 265.539 81.7825 265.734V267.469H87.4075V268.875H74.5013ZM77.9388 263C77.9309 263.906 79.0013 264.367 80.9231 264.375C82.8059 264.367 83.8919 263.906 83.8919 263C83.8919 262.109 82.8059 261.648 80.9231 261.641C79.0013 261.648 77.9309 262.109 77.9388 263Z" fill="#222222"/>
<mask id="path-28-inside-2_263_687" fill="white">
<path d="M20 291H380V326H20V291Z"/>
</mask>
<path d="M380 325H20V327H380V325Z" fill="#777777" mask="url(#path-28-inside-2_263_687)"/>
<path d="M24.4678 314.146C22.1167 314.146 20.7544 312.169 20.7617 308.697C20.7544 305.255 22.1313 303.248 24.4678 303.248C26.7969 303.248 28.1738 305.255 28.1738 308.697C28.1738 312.169 26.8188 314.146 24.4678 314.146ZM22.0361 308.697C22.0435 311.444 22.9297 312.975 24.4678 312.975C25.9985 312.975 26.8921 311.444 26.8848 308.697C26.8921 305.951 25.9912 304.398 24.4678 304.391C22.9443 304.398 22.0435 305.951 22.0361 308.697ZM33.3816 303.395V314H32.0486V304.771H31.99L29.4119 306.485V305.152L32.0486 303.395H33.3816ZM39.3805 314.146C37.0294 314.146 35.6671 312.169 35.6744 308.697C35.6671 305.255 37.044 303.248 39.3805 303.248C41.7096 303.248 43.0865 305.255 43.0865 308.697C43.0865 312.169 41.7315 314.146 39.3805 314.146ZM36.9488 308.697C36.9562 311.444 37.8424 312.975 39.3805 312.975C40.9112 312.975 41.8048 311.444 41.7975 308.697C41.8048 305.951 40.9039 304.398 39.3805 304.391C37.857 304.398 36.9562 305.951 36.9488 308.697ZM48.2943 303.395V314H46.9613V304.771H46.9027L44.3246 306.485V305.152L46.9613 303.395H48.2943ZM50.8215 314L50.8068 313.033L54.425 309.225C55.6774 307.892 56.278 307.174 56.2854 306.192C56.278 305.101 55.3698 304.398 54.176 304.391C52.9089 304.398 52.1179 305.196 52.1105 306.383H50.8654C50.8508 304.508 52.301 303.248 54.2199 303.248C56.1462 303.248 57.5085 304.544 57.5158 306.192C57.5085 307.379 56.9592 308.302 55.0842 310.235L52.6525 312.74V312.828H57.7062V314H50.8215ZM62.9873 314.146C60.8779 314.146 59.3618 313.019 59.2959 311.334H60.6289C60.7021 312.345 61.7056 312.975 62.9727 312.975C64.3716 312.975 65.3823 312.22 65.3896 311.114C65.3823 309.957 64.4595 309.144 62.8115 309.137H61.9473V307.979H62.8115C64.1006 307.979 65.0015 307.254 64.9941 306.163C65.0015 305.101 64.2251 304.398 63.0166 304.391C61.8813 304.398 60.8486 305.021 60.79 306.061H59.5156C59.5815 304.376 61.1489 303.248 63.0312 303.248C65.0527 303.248 66.2832 304.574 66.2686 306.09C66.2832 307.298 65.5801 308.177 64.4668 308.492V308.565C65.8511 308.778 66.686 309.767 66.6787 311.114C66.686 312.857 65.104 314.146 62.9873 314.146ZM68.0193 311.832V310.748L72.7947 303.395H74.4207V310.675H75.9002V311.832H74.4207V314H73.1609V311.832H68.0193ZM69.4402 310.675H73.1609V305.064H73.0291L69.4402 310.587V310.675ZM80.8004 314.146C78.8888 314.146 77.4386 312.967 77.358 311.334H78.6324C78.7276 312.279 79.6505 312.982 80.8004 312.989C82.1773 312.982 83.1734 311.979 83.1734 310.646C83.1734 309.269 82.1407 308.25 80.7125 308.243C79.8189 308.229 79.1231 308.507 78.735 309.195H77.4605L78.2076 303.395H83.9498V304.566H79.3063L78.9107 307.672H79.0133C79.4894 307.306 80.1998 307.057 80.9469 307.057C82.9684 307.057 84.4552 308.551 84.4625 310.616C84.4552 312.667 82.9171 314.146 80.8004 314.146ZM89.685 314.146C87.8466 314.125 85.8178 313.033 85.8178 309.107C85.8178 305.35 87.3559 303.248 89.8461 303.248C91.7138 303.248 93.0175 304.398 93.2885 306.061H91.9848C91.7431 305.123 91.0253 304.42 89.8461 304.42C88.1029 304.42 87.0556 305.907 87.0629 308.463H87.1947C87.8026 307.577 88.7768 307.057 89.9193 307.057C91.8017 307.057 93.3764 308.521 93.3764 310.572C93.3764 312.572 91.9188 314.168 89.685 314.146ZM87.2387 310.602C87.246 311.847 88.2641 312.982 89.685 312.989C91.0546 312.982 92.0946 311.905 92.102 310.587C92.0946 309.283 91.0985 308.221 89.7143 308.214C88.3227 308.221 87.2533 309.349 87.2387 310.602ZM95.2297 314L100.093 304.64V304.566H94.4826V303.395H101.455V304.625L96.6066 314H95.2297ZM106.209 314.146C103.975 314.146 102.437 312.909 102.444 311.188C102.437 309.818 103.389 308.683 104.598 308.492V308.434C103.543 308.192 102.847 307.218 102.854 306.061C102.847 304.442 104.268 303.248 106.209 303.248C108.143 303.248 109.563 304.442 109.578 306.061C109.563 307.218 108.86 308.192 107.82 308.434V308.492C109.021 308.683 109.974 309.818 109.988 311.188C109.974 312.909 108.421 314.146 106.209 314.146ZM103.763 311.114C103.741 312.228 104.686 312.982 106.209 312.989C107.725 312.982 108.67 312.228 108.67 311.114C108.67 309.942 107.637 309.078 106.209 309.078C104.788 309.078 103.741 309.942 103.763 311.114ZM104.129 306.163C104.136 307.232 104.993 307.958 106.209 307.965C107.417 307.958 108.289 307.232 108.289 306.163C108.289 305.101 107.447 304.383 106.209 304.391C104.949 304.383 104.136 305.101 104.129 306.163Z" fill="#222222"/>
<path d="M33.375 362.266V363.688H20.4688V362.266H26.0312V359.516H21.8906V352.203H23.625V354.516H30.1719V352.203H31.9062V359.516H27.75V362.266H33.375ZM23.625 358.109H30.1719V355.906H23.625V358.109ZM45.1175 351.266V355.406H47.0863V356.844H45.1175V361.594H43.3831V351.266H45.1175ZM34.1331 355.766C34.1253 353.68 35.7972 352.211 37.9456 352.203C40.0941 352.211 41.7425 353.68 41.7581 355.766C41.7425 357.82 40.0941 359.312 37.9456 359.312C35.7972 359.312 34.1253 357.82 34.1331 355.766ZM35.8363 355.766C35.8284 356.984 36.7659 357.789 37.9456 357.781C39.1409 357.789 40.0472 356.984 40.055 355.766C40.0472 354.516 39.1409 353.719 37.9456 353.719C36.7659 353.719 35.8284 354.516 35.8363 355.766ZM36.0706 365.109V360.516H37.805V363.703H45.68V365.109H36.0706ZM60.3756 358.328V359.719H54.9225V362.312H53.2038V359.719H47.4694V358.328H60.3756ZM49.0319 365.109V361.016H50.7663V363.703H58.9538V365.109H49.0319ZM49.11 357.016V351.906H58.7194V357.016H49.11ZM50.7975 355.656H57.0006V353.266H50.7975V355.656ZM66.0556 355.281C66.0478 357.461 67.3603 359.945 69.5869 360.984L68.6181 362.359C67.0244 361.609 65.8447 360.094 65.2119 358.328C64.5713 360.266 63.3369 361.922 61.7119 362.703L60.6963 361.344C62.9463 360.273 64.3134 357.633 64.3213 355.281V354.094H61.2431V352.656H69.0088V354.094H66.0556V355.281ZM70.3213 365.391V351.266H72.0556V356.766H74.2275V358.219H72.0556V365.391H70.3213ZM89.7438 351.266V358.844H87.9938V351.266H89.7438ZM78.2281 355.203C78.2281 353.242 79.8531 351.883 82.0406 351.891C84.2203 351.883 85.8453 353.242 85.8375 355.203C85.8453 357.133 84.2203 358.492 82.0406 358.484C79.8531 358.492 78.2281 357.133 78.2281 355.203ZM79.9313 355.203C79.9234 356.336 80.8063 357.055 82.0406 357.062C83.2516 357.055 84.1344 356.336 84.1344 355.203C84.1344 354.07 83.2516 353.336 82.0406 353.344C80.8063 353.336 79.9234 354.07 79.9313 355.203ZM80.4 365.219V359.5H82.1188V360.953H88.0094V359.5H89.7438V365.219H80.4ZM82.1188 363.812H88.0094V362.312H82.1188V363.812ZM98.2363 352.109V356.359H93.7831V358.094C96.0566 358.094 97.3456 358.031 98.8456 357.75L99.0175 359.156C97.33 359.445 95.8691 359.484 93.0956 359.484H92.0644V355.062H96.5019V353.484H92.0331V352.109H98.2363ZM93.6581 362.031V360.641H103.314V365.391H101.58V362.031H93.6581ZM99.08 357.641V356.25H101.58V354.672H99.08V353.281H101.58V351.281H103.314V359.969H101.58V357.641H99.08Z" fill="#222222"/>
<path d="M47.6973 395.16C53.8496 395.209 60.0508 399.335 60.0508 411.811C60.0508 423.529 55.6807 431.488 47.209 431.488C41.1787 431.488 37.0283 427.68 36.2715 422.064H39.7383C40.3975 425.702 42.9854 428.363 47.209 428.363C53.2393 428.363 56.7549 422.87 56.7793 413.178H56.3887C54.582 416.303 51.1152 418.28 47.209 418.256C41.0322 418.28 35.9053 413.446 35.9297 406.781C35.9053 400.385 40.5684 395.111 47.6973 395.16ZM39.2988 406.732C39.2988 411.444 42.8633 415.18 47.6973 415.18C52.6045 415.18 56.4375 411.078 56.1445 406.537C55.7783 401.874 52.3604 398.236 47.6973 398.236C42.8877 398.236 39.2744 402.069 39.2988 406.732ZM72.7266 395.648V431H69.2109V399.262H69.0156L60.666 404.779V401.215L69.1133 395.648H72.7266ZM89.3086 431.488C83.1807 431.439 76.9795 427.313 77.0039 414.74C76.9795 403.095 81.374 395.16 89.8457 395.16C95.8516 395.16 99.9531 398.969 100.734 404.486H97.2676C96.6084 400.922 94.0449 398.261 89.8457 398.285C83.7422 398.261 80.2754 403.754 80.2754 413.373H80.666C82.4482 410.248 85.915 408.295 89.8457 408.295C95.998 408.295 101.125 413.129 101.125 419.818C101.125 426.264 96.4375 431.537 89.3086 431.488ZM80.8613 420.014C81.2275 424.75 84.6455 428.388 89.3086 428.412C94.1426 428.388 97.7314 424.555 97.7559 419.818C97.7314 415.155 94.167 411.371 89.3574 411.371C84.4014 411.371 80.5928 415.473 80.8613 420.014ZM114.387 431.488C107.6 431.488 102.668 427.68 102.473 422.113H105.988C106.184 425.873 109.772 428.363 114.338 428.363C119.318 428.363 122.858 425.482 122.883 421.479C122.858 417.304 119.367 414.398 113.654 414.398H111.457V411.273H113.654C118.293 411.298 121.638 408.686 121.662 404.682C121.638 400.873 118.781 398.212 114.436 398.236C110.285 398.212 106.77 400.653 106.672 404.486H103.303C103.425 398.944 108.356 395.16 114.484 395.16C120.93 395.16 125.031 399.433 124.982 404.535C125.031 408.563 122.59 411.566 118.781 412.641V412.885C123.42 413.69 126.276 417.011 126.252 421.527C126.276 427.216 121.247 431.488 114.387 431.488ZM138.879 431.488C132.678 431.488 128.063 427.582 127.893 422.113H131.262C131.457 425.751 134.655 428.388 138.879 428.412C143.835 428.388 147.351 424.726 147.326 419.867C147.326 414.813 143.566 411.273 138.635 411.225C135.632 411.2 133.19 412.226 131.799 414.496H128.332L130.773 395.648H149.182V398.773H133.703L132.189 410.443H132.482C134.021 408.979 136.584 408.1 139.221 408.1C145.739 408.1 150.744 412.934 150.744 419.818C150.72 426.557 145.739 431.488 138.879 431.488Z" fill="black"/>
<path d="M42.2988 408.912C54.5346 408.912 66.9047 408.251 79.0228 410.101C91.4736 412.002 103.192 417.205 115.725 418.995C127.343 420.655 139.361 420.801 151.084 420.801C157.576 420.801 163.862 420.328 170.304 419.612" stroke="black" stroke-width="3" stroke-linecap="round"/>
<rect x="188.5" y="386.5" width="23" height="23" rx="3.5" stroke="#777777"/>
<mask id="mask0_263_687" style="mask-type:alpha" maskUnits="userSpaceOnUse" x="190" y="388" width="20" height="20">
<rect x="190.5" y="388.5" width="19" height="19" fill="#D9D9D9" stroke="black"/>
</mask>
<g mask="url(#mask0_263_687)">
<path d="M198.366 405.595L198.366 405.595L198.355 405.592C196.909 405.203 195.744 404.431 194.846 403.269C193.948 402.108 193.5 400.791 193.5 399.3C193.5 398.5 193.618 397.73 193.852 396.988C194.081 396.263 194.438 395.611 194.925 395.03C194.991 394.961 195.056 394.934 195.158 394.937C195.277 394.941 195.374 394.981 195.471 395.079C195.542 395.149 195.575 395.225 195.575 395.338C195.575 395.466 195.538 395.566 195.463 395.658L195.457 395.665L195.452 395.673C195.048 396.204 194.754 396.789 194.57 397.423C194.39 398.044 194.3 398.678 194.3 399.325C194.3 400.616 194.689 401.778 195.466 402.791C196.237 403.799 197.245 404.488 198.474 404.852C198.589 404.891 198.669 404.949 198.728 405.02L199.113 404.7L198.728 405.02C198.777 405.078 198.8 405.139 198.8 405.225C198.8 405.361 198.757 405.455 198.652 405.543L198.975 405.925L198.652 405.543C198.57 405.613 198.496 405.634 198.366 405.595ZM202.017 405.618L202.009 405.62L202.001 405.623C201.908 405.652 201.848 405.644 201.756 405.563C201.644 405.464 201.6 405.362 201.6 405.225C201.6 405.148 201.621 405.091 201.674 405.032C201.751 404.945 201.837 404.887 201.935 404.849C203.181 404.467 204.192 403.75 204.954 402.707C205.717 401.662 206.1 400.48 206.1 399.175C206.1 397.543 205.518 396.143 204.363 395.006C203.209 393.87 201.795 393.3 200.15 393.3H200.075H198.868L199.721 394.154L200.121 394.554C200.215 394.647 200.231 394.717 200.226 394.789C200.219 394.889 200.18 394.988 200.071 395.096C199.974 395.194 199.886 395.225 199.788 395.225C199.691 395.225 199.62 395.196 199.545 395.114L199.536 395.104L199.526 395.094L197.603 393.196C197.581 393.173 197.557 393.139 197.537 393.079C197.512 393.006 197.5 392.93 197.5 392.85C197.5 392.807 197.509 392.766 197.529 392.722C197.555 392.667 197.587 392.62 197.629 392.579L199.579 390.629C199.68 390.528 199.765 390.5 199.85 390.5C199.935 390.5 200.02 390.528 200.121 390.629C200.215 390.722 200.241 390.803 200.238 390.895C200.234 391.015 200.194 391.116 200.105 391.214L200.105 391.214L200.101 391.218L199.701 391.668L198.962 392.5H200.075H200.15C202.038 392.5 203.623 393.146 204.936 394.443C206.248 395.74 206.9 397.307 206.9 399.175C206.9 400.684 206.452 402.028 205.551 403.224C204.651 404.418 203.478 405.214 202.017 405.618Z" fill="#777777" stroke="#777777"/>
</g>
<rect x="188.5" y="416.5" width="23" height="23" rx="3.5" stroke="#777777"/>
<mask id="mask1_263_687" style="mask-type:alpha" maskUnits="userSpaceOnUse" x="189" y="417" width="22" height="22">
<rect x="189" y="417" width="22" height="22" fill="#D9D9D9"/>
</mask>
<g mask="url(#mask1_263_687)">
<path d="M206.051 427.985C206.051 426.788 205.722 425.697 205.065 424.712C204.408 423.726 203.546 422.987 202.479 422.493C202.263 422.391 202.101 422.237 201.995 422.031C201.888 421.824 201.88 421.614 201.972 421.4C202.063 421.171 202.228 421.011 202.464 420.919C202.701 420.827 202.934 420.832 203.164 420.932C204.554 421.55 205.657 422.497 206.475 423.772C207.292 425.048 207.701 426.458 207.701 428.003C207.701 429.548 207.292 430.954 206.475 432.22C205.657 433.486 204.554 434.428 203.164 435.045C202.934 435.146 202.701 435.15 202.464 435.059C202.228 434.967 202.063 434.807 201.972 434.577C201.88 434.364 201.888 434.153 201.995 433.947C202.101 433.741 202.263 433.587 202.479 433.485C203.546 432.991 204.408 432.25 205.065 431.262C205.722 430.275 206.051 429.182 206.051 427.985ZM195.601 430.2H193.126C192.892 430.2 192.696 430.121 192.538 429.963C192.38 429.805 192.301 429.609 192.301 429.375V426.625C192.301 426.392 192.38 426.196 192.538 426.038C192.696 425.879 192.892 425.8 193.126 425.8H195.601L198.603 422.798C198.863 422.539 199.161 422.481 199.497 422.625C199.833 422.77 200.001 423.028 200.001 423.399V432.599C200.001 432.971 199.833 433.229 199.497 433.374C199.161 433.519 198.863 433.462 198.603 433.202L195.601 430.2ZM203.851 428C203.851 428.566 203.713 429.146 203.438 429.742C203.163 430.338 202.774 430.789 202.27 431.094C202.132 431.17 201.995 431.174 201.857 431.106C201.72 431.037 201.651 430.915 201.651 430.74V425.261C201.651 425.086 201.72 424.964 201.857 424.895C201.995 424.826 202.132 424.83 202.27 424.907C202.774 425.197 203.163 425.644 203.438 426.247C203.713 426.851 203.851 427.435 203.851 428ZM198.351 425.388L196.288 427.45H193.951V428.55H196.288L198.351 430.613V425.388Z" fill="#777777"/>
</g>
<rect x="232.5" y="386.5" width="147" height="53" stroke="#777777"/>
<path d="M267.932 406.098C270.12 406.124 272.555 407.442 272.555 412.127C272.555 416.653 270.7 419.176 267.721 419.176C265.479 419.176 263.906 417.805 263.59 415.783H265.154C265.436 416.926 266.306 417.77 267.721 417.77C269.795 417.77 271.061 415.977 271.078 412.883H270.902C270.173 413.938 269.004 414.57 267.65 414.57C265.374 414.57 263.484 412.821 263.484 410.369C263.484 407.996 265.225 406.071 267.932 406.098ZM265.031 410.352C265.022 411.925 266.218 413.182 267.879 413.182C269.54 413.182 270.832 411.811 270.832 410.316C270.832 408.857 269.61 407.486 267.932 407.486C266.271 407.486 265.014 408.778 265.031 410.352Z" fill="#222222"/>
<path d="M288.195 406.273V419H286.596V407.926H286.525L283.432 409.982V408.383L286.596 406.273H288.195Z" fill="#222222"/>
<path d="M304.125 419.176C301.919 419.149 299.484 417.84 299.484 413.129C299.484 408.62 301.33 406.098 304.318 406.098C306.56 406.098 308.124 407.478 308.449 409.473H306.885C306.595 408.348 305.733 407.504 304.318 407.504C302.227 407.504 300.97 409.288 300.979 412.355H301.137C301.866 411.292 303.035 410.668 304.406 410.668C306.665 410.668 308.555 412.426 308.555 414.887C308.555 417.286 306.806 419.202 304.125 419.176ZM301.189 414.922C301.198 416.416 302.42 417.778 304.125 417.787C305.769 417.778 307.017 416.486 307.025 414.904C307.017 413.34 305.821 412.065 304.16 412.057C302.49 412.065 301.207 413.419 301.189 414.922Z" fill="#222222"/>
<path d="M324.09 419.176C321.559 419.176 319.739 417.822 319.66 415.801H321.26C321.348 417.014 322.552 417.77 324.072 417.77C325.751 417.77 326.964 416.864 326.973 415.537C326.964 414.148 325.856 413.173 323.879 413.164H322.842V411.775H323.879C325.426 411.775 326.507 410.905 326.498 409.596C326.507 408.321 325.575 407.478 324.125 407.469C322.763 407.478 321.523 408.225 321.453 409.473H319.924C320.003 407.451 321.884 406.098 324.143 406.098C326.568 406.098 328.045 407.688 328.027 409.508C328.045 410.958 327.201 412.013 325.865 412.391V412.479C327.526 412.733 328.528 413.92 328.52 415.537C328.528 417.629 326.63 419.176 324.09 419.176Z" fill="#222222"/>
<path d="M343.844 419.176C341.55 419.176 339.81 417.761 339.713 415.801H341.242C341.356 416.935 342.464 417.778 343.844 417.787C345.496 417.778 346.691 416.574 346.691 414.975C346.691 413.322 345.452 412.101 343.738 412.092C342.666 412.074 341.831 412.408 341.365 413.234H339.836L340.732 406.273H347.623V407.68H342.051L341.576 411.406H341.699C342.271 410.967 343.123 410.668 344.02 410.668C346.445 410.668 348.229 412.461 348.238 414.939C348.229 417.4 346.384 419.176 343.844 419.176Z" fill="#222222"/>
<rect x="20.5" y="470.5" width="174" height="45" rx="3.5" fill="#DDDDDD"/>
<rect x="20.5" y="470.5" width="174" height="45" rx="3.5" stroke="#CCCCCC"/>
<path d="M99.2696 488.408C99.2613 489.811 100.598 491.04 102.773 491.496L102.125 492.725C100.415 492.334 99.1534 491.479 98.4976 490.351C97.8585 491.579 96.5802 492.517 94.8204 492.924L94.1563 491.695C96.356 491.222 97.6842 489.894 97.6925 488.408H94.4884V487.163H97.6925V485.569H99.2696V487.163H102.457V488.408H99.2696ZM93.5089 493.837C96.3311 493.837 100.066 493.812 103.304 493.405L103.42 494.551C102.059 494.775 100.656 494.916 99.2862 494.999V499.963H97.7091V495.082C96.2813 495.14 94.92 495.148 93.7247 495.148L93.5089 493.837ZM104.333 500.411V485.553H105.894V500.411H104.333ZM121.491 497.224V498.519H107.878V497.224H113.838V493.688H115.398V497.224H121.491ZM108.343 492.658C111.206 492.177 113.763 489.969 113.771 487.611V486.482H115.432V487.611C115.432 489.969 118.021 492.177 120.893 492.658L120.213 493.953C117.797 493.48 115.589 491.986 114.61 489.952C113.63 491.978 111.439 493.48 109.04 493.953L108.343 492.658Z" fill="#777777"/>
<rect x="205" y="470" width="175" height="46" rx="4" fill="#373A3F"/>
<path d="M290.23 485.553V489.969H292.355V491.264H290.23V495.563H288.652V485.553H290.23ZM278.426 493.903C279.58 493.903 280.916 493.903 282.311 493.87V492.866C280.617 492.675 279.538 491.878 279.555 490.683C279.538 489.321 280.958 488.475 283.091 488.491C285.224 488.475 286.619 489.321 286.627 490.683C286.619 491.87 285.565 492.667 283.888 492.866V493.812C285.216 493.746 286.561 493.638 287.806 493.455L287.939 494.584C284.743 495.14 281.215 495.165 278.592 495.165L278.426 493.903ZM278.808 487.993V486.814H282.311V485.42H283.888V486.814H287.391V487.993H278.808ZM280.285 497.489V496.261H290.23V500.411H288.652V497.489H280.285ZM281.049 490.683C281.049 491.38 281.821 491.836 283.091 491.828C284.344 491.836 285.125 491.38 285.116 490.683C285.125 489.969 284.344 489.554 283.091 489.57C281.821 489.554 281.049 489.969 281.049 490.683ZM305.213 485.553V496.36H303.636V485.553H305.213ZM293.177 490.234C293.185 488.084 294.895 486.557 297.144 486.549C299.386 486.557 301.096 488.084 301.096 490.234C301.096 492.417 299.386 493.937 297.144 493.937C294.895 493.937 293.185 492.417 293.177 490.234ZM294.721 490.234C294.712 491.637 295.758 492.559 297.144 492.559C298.506 492.559 299.552 491.637 299.552 490.234C299.552 488.865 298.506 487.927 297.144 487.927C295.758 487.927 294.712 488.865 294.721 490.234ZM295.484 500.096V495.265H297.078V498.817H305.661V500.096H295.484Z" fill="white"/>
<rect width="400" height="27" transform="translate(0 566)" fill="#F4F4F4"/>
<path d="M17.2607 574.32V583.892H16.4121V574.32H17.2607ZM9.74121 578.392C9.74658 576.361 10.7563 575.067 12.1797 575.062C13.5977 575.067 14.6235 576.361 14.6182 578.392C14.6235 580.427 13.5977 581.716 12.1797 581.711C10.7563 581.716 9.74658 580.427 9.74121 578.392ZM10.5576 578.392C10.5576 579.944 11.2236 580.964 12.1797 580.959C13.1411 580.964 13.8018 579.944 13.8018 578.392C13.8018 576.839 13.1411 575.819 12.1797 575.813C11.2236 575.819 10.5576 576.839 10.5576 578.392ZM27.3747 579.047V579.745H18.6736V579.047H20.8327V577.699C20.07 577.403 19.6404 576.92 19.6404 576.275C19.6404 575.153 20.9294 574.508 23.0241 574.503C25.1028 574.508 26.3918 575.153 26.3972 576.275C26.3918 576.915 25.9675 577.398 25.2155 577.699V579.047H27.3747ZM19.7263 582.162C19.7209 581.072 20.9509 580.47 23.0241 580.476C25.0705 580.47 26.3005 581.072 26.3112 582.162C26.3005 583.252 25.0705 583.849 23.0241 583.849C20.9509 583.849 19.7209 583.252 19.7263 582.162ZM20.5105 576.275C20.5051 576.974 21.4612 577.376 23.0241 577.382C24.571 577.376 25.5324 576.974 25.5378 576.275C25.5324 575.588 24.571 575.169 23.0241 575.169C21.4612 575.169 20.5051 575.588 20.5105 576.275ZM20.5857 582.162C20.5749 582.812 21.4934 583.199 23.0241 583.193C24.5388 583.199 25.4572 582.812 25.4626 582.162C25.4572 581.512 24.5388 581.131 23.0241 581.12C21.4934 581.131 20.5749 581.512 20.5857 582.162ZM21.6706 579.047H24.3777V577.924C23.9748 578 23.5237 578.037 23.0241 578.037C22.5246 578.037 22.0735 578 21.6706 577.93V579.047ZM36.8442 575.803V576.49H35.4262V577.833H36.8442V578.553H35.4262V580.003H34.5883V574.32H35.4262V575.803H36.8442ZM28.143 577.146C28.1376 575.819 29.2011 574.895 30.6459 574.9C32.1015 574.895 33.1489 575.819 33.1596 577.146C33.1489 578.488 32.1015 579.407 30.6459 579.412C29.2011 579.407 28.1376 578.488 28.143 577.146ZM28.9702 577.146C28.9648 578.064 29.6791 578.692 30.6459 578.682C31.6235 578.692 32.3271 578.064 32.3325 577.146C32.3271 576.249 31.6235 575.625 30.6459 575.62C29.6791 575.625 28.9648 576.249 28.9702 577.146ZM29.1743 581.142V580.443H35.4262V583.87H34.5883V581.142H29.1743ZM42.5431 575.062V575.566C42.5378 576.195 42.5378 577.146 42.2961 578.392L41.4474 578.327C41.6784 577.188 41.6999 576.377 41.7106 575.771H37.7843V575.062H42.5431ZM37.1935 579.283C37.8112 579.283 38.5094 579.278 39.2453 579.256V577.178H40.0832V579.229C41.1413 579.187 42.237 579.111 43.2306 578.972L43.2843 579.595C41.2809 579.938 38.9821 579.976 37.2795 579.981L37.1935 579.283ZM38.6652 583.666V580.862H39.5138V582.957H45.0461V583.666H38.6652ZM43.8752 581.507V574.32H44.7345V577.436H46.131V578.155H44.7345V581.507H43.8752ZM50.7721 574.127V584.096H49.9771V574.127H50.7721ZM62.9112 574.32V583.87H62.084V578.875H60.7627V583.397H59.9571V574.578H60.7627V578.177H62.084V574.32H62.9112ZM54.7686 581.228C56.9869 579.987 57.8999 578.241 58.045 576.265H55.1338V575.566H58.8721C58.8614 577.994 58.0074 580.288 55.2627 581.818L54.7686 581.228ZM71.9295 574.331V581.313H71.0916V574.331H71.9295ZM64.2703 577.339C64.2649 575.964 65.3445 575.002 66.7732 574.997C68.2019 575.002 69.2708 575.964 69.2761 577.339C69.2708 578.73 68.2019 579.697 66.7732 579.691C65.3445 579.697 64.2649 578.73 64.2703 577.339ZM65.0974 577.339C65.0867 578.29 65.8064 578.95 66.7732 578.95C67.7239 578.95 68.449 578.29 68.449 577.339C68.449 576.404 67.7239 575.738 66.7732 575.738C65.8064 575.738 65.0867 576.404 65.0974 577.339ZM65.7634 583.666V580.604H66.6013V582.957H72.2302V583.666H65.7634ZM81.2485 574.32V580.014H80.3999V577.511H78.477V576.812H80.3999V574.32H81.2485ZM73.3745 579.251C74.7925 578.741 75.8022 577.446 75.8022 576.082V575.728H73.643V575.019H78.7886V575.728H76.6509V576.071C76.6509 577.317 77.6069 578.504 79.0034 578.982L78.563 579.659C77.4941 579.272 76.6616 578.467 76.248 577.484C75.8398 578.601 74.9536 579.493 73.8149 579.928L73.3745 579.251ZM74.8784 582.087C74.873 580.964 76.0923 580.309 78.0796 580.314C80.0615 580.309 81.2807 580.964 81.2807 582.087C81.2807 583.215 80.0615 583.859 78.0796 583.87C76.0923 583.859 74.873 583.215 74.8784 582.087ZM75.7163 582.087C75.7109 582.78 76.6133 583.199 78.0796 583.193C79.5405 583.199 80.4429 582.78 80.4429 582.087C80.4429 581.389 79.5405 580.97 78.0796 580.97C76.6133 580.97 75.7109 581.389 75.7163 582.087ZM91.3625 581.947V582.646H82.6184V581.947H86.55V579.885H83.6496V574.997H84.4982V576.727H89.4611V574.997H90.2883V579.885H87.3772V581.947H91.3625ZM84.4982 579.197H89.4611V577.414H84.4982V579.197ZM99.8222 574.32V583.892H98.9736V578.864H96.8788V578.166H98.9736V574.32H99.8222ZM91.9267 581.367C93.3285 580.712 94.3759 579.079 94.3759 577.436V576.673H92.1845V575.985H94.3759V574.503H95.2138V575.985H97.373V576.673H95.203V577.436C95.203 579.009 96.2826 580.562 97.6952 581.195L97.2118 581.851C96.1215 581.356 95.2245 580.309 94.8002 579.052C94.3866 580.384 93.5004 581.496 92.4101 582.022L91.9267 581.367ZM109.077 574.32V583.892H108.239V574.32H109.077ZM101.729 575.91V575.212H106.176V578.606H102.61V580.862C104.194 580.868 105.607 580.792 107.315 580.519L107.401 581.228C105.645 581.501 104.194 581.571 102.546 581.571H101.751V577.919H105.328V575.91H101.729ZM114.883 580.325C116.844 580.325 118.031 580.97 118.031 582.087C118.031 583.215 116.844 583.859 114.883 583.87C112.917 583.859 111.72 583.215 111.714 582.087C111.72 580.97 112.917 580.325 114.883 580.325ZM110.887 579.326V574.922H111.714V576.383H114.496V574.922H115.334V579.326H110.887ZM111.714 578.639H114.496V577.049H111.714V578.639ZM112.563 582.087C112.552 582.774 113.444 583.183 114.883 583.183C116.328 583.183 117.209 582.774 117.214 582.087C117.209 581.405 116.328 581.002 114.883 580.991C113.444 581.002 112.552 581.405 112.563 582.087ZM117.107 580.067V574.32H117.945V576.727H119.384V577.446H117.945V580.067H117.107ZM123.235 576.265C123.23 577.479 124.277 578.547 125.706 578.961L125.309 579.627C124.175 579.289 123.273 578.553 122.833 577.602C122.414 578.644 121.511 579.45 120.367 579.831L119.959 579.176C121.377 578.714 122.398 577.559 122.398 576.265V576.136H120.195V575.459H122.398V574.277H123.246V575.459H125.427V576.136H123.235V576.265ZM121.441 583.741V580.476H127.65V583.741H121.441ZM122.269 583.054H126.823V581.163H122.269V583.054ZM126.813 579.992V574.331H127.65V579.992H126.813ZM133.291 574.127V584.096H132.496V574.127H133.291ZM143.056 577.65C142.723 576.651 141.965 576.018 140.853 576.018C139.478 576.018 138.388 577.103 138.383 579.111C138.388 581.115 139.478 582.2 140.918 582.205C142.228 582.2 143.136 581.33 143.152 579.949H141.122V579.101H144.098V579.938C144.098 581.867 142.771 583.107 140.918 583.107C138.839 583.107 137.443 581.571 137.448 579.111C137.443 576.651 138.855 575.115 140.853 575.115C142.497 575.115 143.765 576.146 144.055 577.65H143.056ZM146.133 575.223V583H145.21V575.223H146.133ZM149.77 583.118C148.18 583.124 147.106 581.92 147.106 580.11C147.106 578.29 148.18 577.092 149.77 577.092C151.354 577.092 152.418 578.29 152.413 580.11C152.418 581.92 151.354 583.124 149.77 583.118ZM148.03 580.11C148.035 581.276 148.583 582.302 149.77 582.302C150.946 582.302 151.489 581.276 151.489 580.11C151.489 578.95 150.946 577.908 149.77 577.908C148.583 577.908 148.035 578.95 148.03 580.11ZM153.525 583V575.223H154.448V578.091H154.524C154.722 577.779 155.071 577.092 156.21 577.092C157.671 577.092 158.697 578.252 158.702 580.1C158.697 581.953 157.671 583.124 156.221 583.118C155.104 583.124 154.722 582.431 154.524 582.108H154.416V583H153.525ZM154.427 580.078C154.427 581.389 155.018 582.291 156.081 582.291C157.193 582.291 157.762 581.319 157.768 580.078C157.762 578.859 157.209 577.919 156.081 577.919C155.007 577.919 154.427 578.784 154.427 580.078ZM159.406 581.346C159.406 580.008 160.588 579.702 161.598 579.627C161.973 579.6 162.913 579.546 163.177 579.541V579.068C163.177 578.327 162.736 577.897 161.855 577.897C161.119 577.897 160.674 578.236 160.545 578.682H159.578C159.696 577.742 160.609 577.092 161.898 577.092C162.661 577.092 164.095 577.317 164.09 579.154V583H163.177V582.205H163.134C162.94 582.597 162.409 583.134 161.393 583.14C160.287 583.134 159.406 582.484 159.406 581.346ZM160.33 581.389C160.335 582.006 160.846 582.318 161.555 582.312C162.597 582.318 163.177 581.62 163.177 580.884V580.298C162.903 580.314 161.984 580.384 161.705 580.4C160.867 580.454 160.335 580.75 160.33 581.389ZM166.276 575.223V583H165.352V575.223H166.276ZM171.889 577.178C171.808 576.415 171.099 575.975 170.17 575.975C169.139 575.975 168.468 576.512 168.462 577.253C168.468 578.069 169.375 578.375 169.966 578.521L170.74 578.735C171.572 578.95 172.942 579.428 172.942 580.884C172.942 582.151 171.921 583.134 170.116 583.14C168.441 583.134 167.404 582.27 167.313 580.98H168.301C168.382 581.851 169.193 582.264 170.116 582.259C171.191 582.264 171.996 581.711 171.996 580.862C171.996 580.105 171.277 579.815 170.46 579.584L169.504 579.326C168.285 578.972 167.522 578.349 167.528 577.296C167.522 575.98 168.693 575.115 170.202 575.115C171.712 575.115 172.797 575.996 172.834 577.178H171.889ZM173.989 583V577.167H174.913V583H173.989ZM173.807 575.588C173.801 575.244 174.097 574.97 174.451 574.976C174.806 574.97 175.101 575.244 175.106 575.588C175.101 575.926 174.806 576.2 174.451 576.2C174.097 576.2 173.801 575.926 173.807 575.588ZM178.528 585.31C177.115 585.31 176.159 584.692 176.057 583.612H177.024C177.148 584.208 177.701 584.504 178.528 584.504C179.527 584.504 180.139 584.069 180.139 583.107V581.926H180.064C179.865 582.248 179.495 582.909 178.367 582.914C176.949 582.909 175.885 581.84 175.885 580.003C175.885 578.209 176.911 577.092 178.378 577.092C179.511 577.092 179.876 577.779 180.086 578.091H180.161V577.167H181.063V583.161C181.058 584.665 179.951 585.31 178.528 585.31ZM176.82 580.035C176.82 581.244 177.389 582.087 178.496 582.087C179.565 582.087 180.155 581.319 180.161 580.035C180.155 578.784 179.581 577.919 178.496 577.919C177.373 577.919 176.82 578.859 176.82 580.035ZM183.239 579.498V583H182.315V577.167H183.206V578.08H183.282C183.556 577.484 184.103 577.092 184.99 577.092C186.171 577.092 186.961 577.812 186.956 579.294V583H186.032V579.358C186.032 578.456 185.538 577.919 184.71 577.919C183.862 577.919 183.239 578.488 183.239 579.498ZM190.748 583L190.737 582.291L193.391 579.498C194.309 578.521 194.749 577.994 194.755 577.274C194.749 576.474 194.083 575.958 193.208 575.953C192.279 575.958 191.699 576.544 191.693 577.414H190.78C190.769 576.039 191.833 575.115 193.24 575.115C194.653 575.115 195.652 576.066 195.657 577.274C195.652 578.145 195.249 578.821 193.874 580.239L192.091 582.076V582.141H195.797V583H190.748ZM199.519 583.107C198.117 583.107 197.054 582.243 196.995 581.045H197.929C197.999 581.738 198.676 582.253 199.519 582.259C200.529 582.253 201.259 581.518 201.259 580.54C201.259 579.53 200.502 578.784 199.455 578.778C198.799 578.768 198.289 578.972 198.004 579.477H197.07L197.618 575.223H201.829V576.082H198.423L198.133 578.359H198.209C198.558 578.091 199.079 577.908 199.627 577.908C201.109 577.908 202.199 579.004 202.205 580.519C202.199 582.022 201.071 583.107 199.519 583.107ZM206.034 583.107C204.686 583.091 203.199 582.291 203.199 579.412C203.199 576.657 204.326 575.115 206.153 575.115C207.522 575.115 208.478 575.958 208.677 577.178H207.721C207.544 576.49 207.017 575.975 206.153 575.975C204.874 575.975 204.106 577.065 204.112 578.939H204.208C204.654 578.29 205.368 577.908 206.206 577.908C207.587 577.908 208.742 578.982 208.742 580.486C208.742 581.953 207.673 583.124 206.034 583.107ZM204.241 580.508C204.246 581.421 204.992 582.253 206.034 582.259C207.039 582.253 207.802 581.464 207.807 580.497C207.802 579.541 207.071 578.762 206.056 578.757C205.035 578.762 204.251 579.589 204.241 580.508ZM216.766 577.178C216.686 576.415 215.977 575.975 215.048 575.975C214.016 575.975 213.345 576.512 213.34 577.253C213.345 578.069 214.253 578.375 214.844 578.521L215.617 578.735C216.449 578.95 217.819 579.428 217.819 580.884C217.819 582.151 216.799 583.134 214.994 583.14C213.318 583.134 212.282 582.27 212.19 580.98H213.178C213.259 581.851 214.07 582.264 214.994 582.259C216.068 582.264 216.874 581.711 216.874 580.862C216.874 580.105 216.154 579.815 215.338 579.584L214.382 579.326C213.162 578.972 212.4 578.349 212.405 577.296C212.4 575.98 213.571 575.115 215.08 575.115C216.589 575.115 217.674 575.996 217.712 577.178H216.766ZM223.228 577.178C223.147 576.415 222.438 575.975 221.509 575.975C220.478 575.975 219.807 576.512 219.801 577.253C219.807 578.069 220.714 578.375 221.305 578.521L222.079 578.735C222.911 578.95 224.281 579.428 224.281 580.884C224.281 582.151 223.26 583.134 221.456 583.14C219.78 583.134 218.743 582.27 218.652 580.98H219.64C219.721 581.851 220.532 582.264 221.456 582.259C222.53 582.264 223.335 581.711 223.335 580.862C223.335 580.105 222.616 579.815 221.799 579.584L220.843 579.326C219.624 578.972 218.861 578.349 218.867 577.296C218.861 575.98 220.032 575.115 221.541 575.115C223.051 575.115 224.136 575.996 224.173 577.178H223.228ZM225.446 583V575.223H226.413V582.141H230.023V583H225.446ZM240.626 574.32V576.684H242.065V577.371H240.626V579.853H239.788V574.32H240.626ZM233.342 577.146C233.337 575.813 234.401 574.895 235.845 574.9C237.301 574.895 238.348 575.813 238.359 577.146C238.348 578.472 237.301 579.385 235.845 579.391C234.401 579.385 233.337 578.472 233.342 577.146ZM234.17 577.146C234.164 578.048 234.879 578.671 235.845 578.682C236.823 578.671 237.527 578.048 237.532 577.146C237.527 576.249 236.823 575.609 235.845 575.62C234.879 575.609 234.164 576.249 234.17 577.146ZM234.599 583.741V580.304H240.626V583.741H234.599ZM235.426 583.054H239.788V580.991H235.426V583.054ZM250.697 575.738V576.437H242.876V575.738H246.378V574.481H247.205V575.738H250.697ZM242.447 582.753V582.055H246.378V580.712C244.676 580.621 243.65 579.96 243.661 578.886C243.65 577.752 244.848 577.081 246.797 577.092C248.72 577.081 249.939 577.752 249.934 578.886C249.939 579.96 248.892 580.621 247.205 580.712V582.055H251.191V582.753H242.447ZM244.509 578.886C244.498 579.611 245.374 580.03 246.797 580.035C248.204 580.03 249.08 579.611 249.075 578.886C249.08 578.177 248.204 577.758 246.797 577.758C245.374 577.758 244.498 578.177 244.509 578.886ZM259.146 574.32V578.392H260.671V579.101H259.146V583.87H258.297V574.32H259.146ZM251.615 581.324C252.394 581.324 253.302 581.319 254.247 581.292V580.239C253.135 580.11 252.41 579.455 252.421 578.51C252.41 577.43 253.323 576.732 254.677 576.737C256.009 576.732 256.938 577.43 256.943 578.51C256.938 579.46 256.202 580.11 255.096 580.239V581.26C255.982 581.217 256.884 581.142 257.717 581.023L257.771 581.668C255.687 582.022 253.431 582.044 251.755 582.044L251.615 581.324ZM251.787 576.179V575.491H254.247V574.342H255.096V575.491H257.545V576.179H251.787ZM253.205 578.51C253.211 579.17 253.791 579.605 254.677 579.595C255.547 579.605 256.132 579.17 256.138 578.51C256.132 577.844 255.547 577.393 254.677 577.393C253.791 577.393 253.211 577.844 253.205 578.51ZM266.88 576.082C266.88 577.323 267.836 578.51 269.233 578.993L268.792 579.659C267.718 579.272 266.886 578.472 266.478 577.489C266.064 578.585 265.178 579.466 264.044 579.885L263.604 579.219C265.011 578.714 266.032 577.441 266.032 576.093V575.674H263.873V574.986H269.018V575.674H266.88V576.082ZM265.054 581.249V580.551H271.478V583.87H270.629V581.249H265.054ZM268.717 577.532V576.823H270.629V574.32H271.478V580.046H270.629V577.532H268.717ZM281.549 579.047V579.745H272.848V579.047H275.007V577.699C274.244 577.403 273.815 576.92 273.815 576.275C273.815 575.153 275.104 574.508 277.198 574.503C279.277 574.508 280.566 575.153 280.572 576.275C280.566 576.915 280.142 577.398 279.39 577.699V579.047H281.549ZM273.901 582.162C273.895 581.072 275.125 580.47 277.198 580.476C279.245 580.47 280.475 581.072 280.486 582.162C280.475 583.252 279.245 583.849 277.198 583.849C275.125 583.849 273.895 583.252 273.901 582.162ZM274.685 576.275C274.679 576.974 275.635 577.376 277.198 577.382C278.745 577.376 279.707 576.974 279.712 576.275C279.707 575.588 278.745 575.169 277.198 575.169C275.635 575.169 274.679 575.588 274.685 576.275ZM274.76 582.162C274.749 582.812 275.668 583.199 277.198 583.193C278.713 583.199 279.632 582.812 279.637 582.162C279.632 581.512 278.713 581.131 277.198 581.12C275.668 581.131 274.749 581.512 274.76 582.162ZM275.845 579.047H278.552V577.924C278.149 578 277.698 578.037 277.198 578.037C276.699 578.037 276.248 578 275.845 577.93V579.047Z" fill="#555555"/>
<path d="M326.432 574.953V577.59H327.555V578.859H326.432V581.682H324.859V574.953H326.432ZM319.195 577.014V575.803H321.08V574.934H322.652V575.803H324.537V577.014H319.195ZM319.586 579.006C319.581 577.946 320.538 577.219 321.861 577.219C323.185 577.219 324.117 577.946 324.117 579.006C324.117 580.061 323.185 580.773 321.861 580.764C320.538 580.773 319.581 580.061 319.586 579.006ZM320.445 583.84V581.174H322.018V582.59H326.695V583.84H320.445ZM321.119 579.006C321.114 579.416 321.412 579.592 321.861 579.592C322.32 579.592 322.628 579.416 322.633 579.006C322.628 578.596 322.32 578.405 321.861 578.4C321.412 578.405 321.114 578.596 321.119 579.006ZM334.991 575.305V576.057C334.996 576.711 334.996 577.448 334.835 578.352H335.9V579.592H332.55V580.646H334.962V583.967H333.4V581.857H328.458V580.646H330.968V579.592H327.648V578.352H333.253C333.385 577.648 333.414 577.077 333.424 576.545H328.634V575.305H334.991ZM344.342 581.711V582.98H336.09V581.711H339.43V580.09H336.901V575.549H343.493V580.09H340.983V581.711H344.342ZM338.454 578.879H341.94V576.799H338.454V578.879ZM351.74 574.934V578.205H352.961V579.494H351.74V583.967H350.168V574.934H351.74ZM344.767 581.926V575.627H346.33V577.697H347.716V575.627H349.279V581.926H344.767ZM346.33 580.666H347.716V578.908H346.33V580.666ZM355.544 575.168C356.94 575.163 358.005 576.047 358.005 577.268C358.005 578.479 356.94 579.357 355.544 579.357C354.138 579.357 353.063 578.479 353.073 577.268C353.063 576.047 354.138 575.163 355.544 575.168ZM354.421 580.92V579.729H360.593V582.355H355.973V582.668H360.788V583.889H354.44V581.232H359.03V580.92H354.421ZM354.587 577.268C354.577 577.829 354.987 578.103 355.544 578.107C356.096 578.103 356.496 577.829 356.491 577.268C356.496 576.706 356.096 576.438 355.544 576.428C354.992 576.438 354.577 576.706 354.587 577.268ZM359.02 579.396V574.934H360.593V579.396H359.02ZM369.035 574.953V581.369H367.463V574.953H369.035ZM361.516 577.805C361.506 576.467 362.634 575.485 364.045 575.49C365.451 575.485 366.579 576.467 366.574 577.805C366.579 579.167 365.451 580.134 364.045 580.139C362.634 580.134 361.506 579.167 361.516 577.805ZM362.854 583.84V580.725H364.436V582.59H369.25V583.84H362.854ZM363.039 577.805C363.034 578.464 363.469 578.776 364.045 578.781C364.592 578.776 365.021 578.464 365.021 577.805C365.021 577.17 364.592 576.843 364.045 576.848C363.469 576.843 363.034 577.17 363.039 577.805ZM378.103 579.016V580.266H369.861V579.016H378.103ZM370.154 577.6C371.775 577.468 372.492 577.004 372.756 576.564H370.612V575.324H377.351V576.564H375.183C375.437 577.004 376.154 577.468 377.82 577.6L377.282 578.82C375.476 578.674 374.431 578.063 373.962 577.268C373.498 578.059 372.478 578.674 370.671 578.82L370.154 577.6ZM370.769 582.287C370.774 581.213 371.975 580.588 373.962 580.588C375.935 580.588 377.121 581.213 377.126 582.287C377.121 583.371 375.935 583.986 373.962 583.986C371.975 583.986 370.774 583.371 370.769 582.287ZM372.37 582.287C372.361 582.653 372.839 582.775 373.962 582.775C375.051 582.775 375.554 582.653 375.554 582.287C375.554 581.921 375.051 581.789 373.962 581.789C372.839 581.789 372.361 581.921 372.37 582.287ZM387.014 584.143C387.566 583.161 388.176 581.223 388.176 579.465C388.176 577.702 387.566 575.764 387.014 574.777H388.459C389.221 576.105 389.714 577.629 389.709 579.465C389.714 581.296 389.221 582.819 388.459 584.143H387.014ZM378.811 579.465C378.806 577.629 379.299 576.105 380.061 574.777H381.506C380.954 575.764 380.344 577.702 380.344 579.465C380.344 581.223 380.954 583.161 381.506 584.143H380.061C379.299 582.819 378.806 581.296 378.811 579.465ZM381.125 580.549V579.514H387.395V580.549H384.885V582.717H383.577V580.549H381.125ZM381.36 578.264C382.805 578.117 383.298 577.609 383.44 577.15H381.662V576.145H386.868V577.15H385.09C385.227 577.609 385.705 578.117 387.161 578.264L386.692 579.289C385.422 579.152 384.665 578.713 384.26 578.122C383.86 578.713 383.103 579.152 381.838 579.289L381.36 578.264Z" fill="#333333"/>
<defs>
<clipPath id="clip0_263_687">
<rect width="64.0816" height="20" fill="white" transform="translate(20 15)"/>
</clipPath>
</defs>
</svg>
