<svg width="400" height="727" viewBox="0 0 400 727" fill="none" xmlns="http://www.w3.org/2000/svg">
<rect width="400" height="727" fill="white"/>
<rect width="400" height="58" fill="white"/>
<mask id="mask0_263_1072" style="mask-type:alpha" maskUnits="userSpaceOnUse" x="14" y="17" width="24" height="24">
<rect x="14" y="17" width="24" height="24" fill="#D9D9D9"/>
</mask>
<g mask="url(#mask0_263_1072)">
<path d="M23.0152 28.9994L30.248 36.2321C30.43 36.4141 30.5227 36.6397 30.526 36.9089C30.5292 37.1782 30.4397 37.4039 30.2577 37.5859C30.0756 37.7679 29.8499 37.8589 29.5807 37.8589C29.3116 37.8589 29.0859 37.7679 28.9038 37.5859L21.4578 30.1301C21.2936 29.9659 21.1762 29.7884 21.1057 29.5974C21.0352 29.4064 21 29.207 21 28.9994C21 28.7917 21.0352 28.5924 21.1057 28.4014C21.1762 28.2104 21.2936 28.0328 21.4578 27.8686L28.9038 20.4224C29.0859 20.2404 29.31 20.1478 29.576 20.1446C29.842 20.1414 30.066 20.2309 30.248 20.4129C30.43 20.5949 30.521 20.8205 30.521 21.0899C30.521 21.359 30.43 21.5846 30.248 21.7666L23.0152 28.9994Z" fill="#222222"/>
</g>
<g clip-path="url(#clip0_263_1072)">
<circle cx="200" cy="178" r="30" fill="#EF403C"/>
<path d="M195.504 181.962L207.889 169.577C208.274 169.192 208.764 169 209.359 169C209.953 169 210.443 169.192 210.828 169.577C211.213 169.962 211.405 170.452 211.405 171.047C211.405 171.641 211.213 172.131 210.828 172.516L196.974 186.37C196.554 186.79 196.064 187 195.504 187C194.945 187 194.455 186.79 194.035 186.37L188.577 180.913C188.192 180.528 188 180.038 188 179.443C188 178.848 188.192 178.359 188.577 177.974C188.962 177.589 189.452 177.397 190.047 177.397C190.641 177.397 191.131 177.589 191.516 177.974L195.504 181.962Z" fill="white"/>
</g>
<path d="M60.2357 247.236V250.342H72.394V247.236H75.1772V257.842H67.6772V260.42H78.2826V262.705H54.3471V260.42H64.9232V257.842H57.4818V247.236H60.2357ZM57.3647 271.934V264.58H60.1772V269.678H75.5873V271.934H57.3647ZM60.2357 255.586H72.394V252.51H60.2357V255.586ZM101.442 246.27V265.342H98.6592V246.27H101.442ZM80.2022 254.531C80.2168 250.737 83.2344 248.042 87.2041 248.027C91.1592 248.042 94.1768 250.737 94.1768 254.531C94.1768 258.384 91.1592 261.064 87.2041 261.064C83.2344 261.064 80.2168 258.384 80.2022 254.531ZM82.9268 254.531C82.9121 257.007 84.7578 258.633 87.2041 258.633C89.6065 258.633 91.4522 257.007 91.4522 254.531C91.4522 252.114 89.6065 250.459 87.2041 250.459C84.7578 250.459 82.9121 252.114 82.9268 254.531ZM84.2744 271.934V263.408H87.0869V269.678H102.233V271.934H84.2744ZM126.77 246.27V265.342H123.987V246.27H126.77ZM105.53 254.531C105.545 250.737 108.562 248.042 112.532 248.027C116.487 248.042 119.504 250.737 119.504 254.531C119.504 258.384 116.487 261.064 112.532 261.064C108.562 261.064 105.545 258.384 105.53 254.531ZM108.254 254.531C108.24 257.007 110.086 258.633 112.532 258.633C114.934 258.633 116.78 257.007 116.78 254.531C116.78 252.114 114.934 250.459 112.532 250.459C110.086 250.459 108.24 252.114 108.254 254.531ZM109.602 271.934V263.408H112.415V269.678H127.561V271.934H109.602ZM154.266 258.604V260.859H130.33V258.604H154.266ZM131.59 255.029C136.351 254.517 140.115 252.378 140.423 249.814H132.528V247.529H152.127V249.814H144.144C144.466 252.363 148.172 254.517 153.035 255.029L152.039 257.227C147.484 256.699 143.719 254.78 142.298 252.012C140.848 254.78 137.113 256.699 132.557 257.227L131.59 255.029ZM133.172 267.686C133.172 264.639 136.585 262.881 142.283 262.881C147.938 262.881 151.321 264.639 151.336 267.686C151.321 270.732 147.938 272.446 142.283 272.432C136.585 272.446 133.172 270.732 133.172 267.686ZM135.985 267.686C135.97 269.341 138.27 270.249 142.283 270.234C146.238 270.249 148.553 269.341 148.553 267.686C148.553 265.986 146.238 265.078 142.283 265.049C138.27 265.078 135.97 265.986 135.985 267.686ZM167.611 246.68C173.529 246.665 176.971 248.262 176.986 251.191C176.971 254.136 173.529 255.732 167.611 255.732C161.693 255.732 158.221 254.136 158.236 251.191C158.221 248.262 161.693 246.665 167.611 246.68ZM155.658 259.57V257.344H179.594V259.57H155.658ZM158.529 263.672V261.592H176.576V267.744H161.283V270.088H177.308V272.227H158.558V265.723H173.822V263.672H158.529ZM161.137 251.191C161.122 252.817 163.436 253.652 167.611 253.652C171.815 253.652 174.13 252.817 174.115 251.191C174.13 249.639 171.815 248.73 167.611 248.73C163.436 248.73 161.122 249.639 161.137 251.191ZM195.679 247.412C199.517 247.412 202.212 249.521 202.241 252.656C202.212 255.322 200.19 257.271 197.144 257.754V260.098C199.458 259.966 201.802 259.746 203.97 259.424L204.175 261.475C198.667 262.471 192.485 262.573 187.974 262.559L187.681 260.303C189.644 260.317 191.943 260.303 194.36 260.215V257.783C191.226 257.344 189.131 255.366 189.146 252.656C189.131 249.521 191.826 247.412 195.679 247.412ZM191.401 271.934V264.58H194.185V269.648H209.302V271.934H191.401ZM191.753 252.656C191.724 254.517 193.364 255.732 195.679 255.732C198.008 255.732 199.604 254.517 199.604 252.656C199.604 250.752 198.008 249.551 195.679 249.551C193.364 249.551 191.724 250.752 191.753 252.656ZM205.581 266.338V246.27H208.364V254.941H212.114V257.285H208.364V266.338H205.581ZM237.061 267.012V269.355H213.038V267.012H219.6V262.383H215.967V254.033H231.378V250.371H215.909V248.086H234.131V256.289H218.721V260.098H234.747V262.383H230.762V267.012H237.061ZM222.296 267.012H228.038V262.383H222.296V267.012ZM260.748 246.27V262.5H258.112V255.586H255.123V262.119H252.516V246.65H255.123V253.33H258.112V246.27H260.748ZM238.219 251.309V249.082H243.522V246.357H246.276V249.082H251.49V251.309H238.219ZM239.244 257.021C239.244 254.253 241.588 252.48 244.869 252.48C248.224 252.48 250.553 254.253 250.553 257.021C250.553 259.702 248.224 261.533 244.869 261.533C241.588 261.533 239.244 259.702 239.244 257.021ZM239.977 270.059C243.302 269.004 245.177 266.426 245.192 264.053V263.262H247.916V264.053C247.902 266.191 248.986 268.418 251.329 269.736C253.702 268.301 254.86 265.928 254.86 264.053V263.262H257.613V264.053C257.599 266.572 259.43 269.092 262.828 270.059L261.51 272.168C258.903 271.318 257.13 269.619 256.207 267.539C255.402 269.575 253.834 271.465 251.403 272.402C248.883 271.494 247.301 269.722 246.495 267.656C245.543 269.634 243.771 271.304 241.295 272.168L239.977 270.059ZM241.735 257.021C241.735 258.516 243.009 259.468 244.869 259.482C246.759 259.468 248.048 258.516 248.033 257.021C248.048 255.454 246.759 254.517 244.869 254.531C243.009 254.517 241.735 255.454 241.735 257.021ZM269.406 261.973V264.756H281.74V261.973H284.523V272.168H266.652V261.973H269.406ZM263.693 260.332V258.018H287.629V260.332H263.693ZM264.982 254.209C270.065 253.55 274.225 250.752 274.24 247.646V246.533H277.082V247.646C277.096 250.664 281.286 253.594 286.31 254.209L285.314 256.406C281.066 255.82 277.36 253.799 275.676 251.001C273.976 253.813 270.256 255.82 266.037 256.406L264.982 254.209ZM269.406 269.941H281.74V266.924H269.406V269.941ZM310.818 246.24V272.49H308.035V246.24H310.818ZM290.632 265.811V248.789H293.386V263.408C297.224 263.394 301.252 263.057 305.456 262.207L305.837 264.551C301.194 265.503 296.975 265.825 292.829 265.811H290.632ZM334.798 246.24V256.406H339.017V258.691H334.798V272.549H332.015V246.24H334.798ZM315.462 266.016V248.76H327.737V251.016H318.245V263.701C322.654 263.687 325.95 263.496 329.7 262.822L330.052 265.166C325.936 265.898 322.449 266.03 317.571 266.016H315.462ZM342.665 270.205C341.522 270.19 340.57 269.268 340.585 268.125C340.57 266.982 341.522 266.045 342.665 266.045C343.793 266.045 344.73 266.982 344.745 268.125C344.73 269.268 343.793 270.19 342.665 270.205Z" fill="#222222"/>
<path d="M100.373 299.379V300.943C100.356 302.859 100.356 305.004 99.7931 308.15L98.3868 307.992C98.9757 305.004 98.9757 302.815 98.9845 300.943V300.521H89.3517V299.379H100.373ZM87.84 311.209V310.066H93.4298V304.477H94.7833V310.066H102.078V311.209H87.84ZM116.308 297.814V307.025H114.99V302.895H112.863V306.92H111.544V298.113H112.863V301.752H114.99V297.814H116.308ZM103.124 306.164C106.368 304.846 108.205 302.728 108.468 300.1H103.757V298.957H109.892C109.883 302.692 107.774 305.514 103.81 307.201L103.124 306.164ZM105.761 308.871V307.746H116.308V313.424H114.955V308.871H105.761ZM131.118 297.797V306.674H129.764V297.797H131.118ZM119.218 305.479V298.729H120.606V304.301C123.19 304.283 125.502 304.107 127.989 303.58L128.2 304.74C125.555 305.276 123.181 305.461 120.483 305.479H119.218ZM120.975 313.213V307.395H131.118V313.213H120.975ZM122.329 312.088H129.764V308.502H122.329V312.088ZM138.545 298.939C140.997 298.948 142.737 300.442 142.746 302.613C142.737 304.793 140.997 306.278 138.545 306.287C136.075 306.278 134.318 304.793 134.326 302.613C134.318 300.442 136.075 298.948 138.545 298.939ZM133.518 308.836C136.401 308.845 140.382 308.818 143.836 308.309L143.942 309.328C140.364 309.996 136.524 310.014 133.711 310.014L133.518 308.836ZM135.68 302.613C135.671 304.072 136.875 305.074 138.545 305.074C140.197 305.074 141.402 304.072 141.393 302.613C141.402 301.163 140.197 300.152 138.545 300.152C136.875 300.152 135.671 301.163 135.68 302.613ZM144.873 313.459V297.797H146.244V313.459H144.873ZM165.739 297.797V307.113H164.351V303.018H161.204V301.875H164.351V297.797H165.739ZM152.854 305.865C155.175 305.03 156.827 302.912 156.827 300.68V300.1H153.294V298.939H161.714V300.1H158.216V300.662C158.216 302.701 159.78 304.644 162.065 305.426L161.345 306.533C159.596 305.9 158.233 304.582 157.557 302.974C156.889 304.802 155.438 306.261 153.575 306.973L152.854 305.865ZM155.315 310.506C155.307 308.669 157.302 307.597 160.554 307.605C163.797 307.597 165.792 308.669 165.792 310.506C165.792 312.352 163.797 313.406 160.554 313.424C157.302 313.406 155.307 312.352 155.315 310.506ZM156.686 310.506C156.678 311.64 158.154 312.325 160.554 312.316C162.944 312.325 164.421 311.64 164.421 310.506C164.421 309.363 162.944 308.678 160.554 308.678C158.154 308.678 156.678 309.363 156.686 310.506ZM182.289 310.277V311.42H167.981V310.277H174.414V306.902H169.668V298.904H171.057V301.734H179.178V298.904H180.532V306.902H175.768V310.277H182.289ZM171.057 305.777H179.178V302.859H171.057V305.777ZM195.816 302.543V303.65H185.111V298.377H186.482V302.543H195.816ZM183.16 306.902V305.777H197.468V306.902H183.16ZM185.023 313.037V308.502H186.394V311.895H195.904V313.037H185.023ZM205.801 298.078V299.59H213.536V298.078H214.907V303.229H204.43V298.078H205.801ZM202.532 305.689V304.582H216.77V305.689H202.532ZM204.254 308.186V307.131H214.942V310.594H205.661V312.158H215.416V313.248H204.289V309.574H213.588V308.186H204.254ZM205.801 302.174H213.536V300.645H205.801V302.174ZM232.019 306.41V307.553H217.711V306.41H224.179V304.758H219.574V300.943H228.785V299.326H219.521V298.201H230.174V301.98H220.945V303.65H230.508V304.758H225.533V306.41H232.019ZM219.31 309.873V308.748H230.261V313.283H228.873V309.873H219.31ZM237.495 302.613C237.504 305.127 238.778 307.702 240.905 308.836L240.114 309.873C238.559 309.021 237.434 307.403 236.862 305.522C236.309 307.526 235.192 309.284 233.628 310.225L232.802 309.17C234.929 307.939 236.186 305.197 236.194 302.613V301.84H233.224V300.697H236.194V298.377H237.513V300.697H240.431V301.84H237.495V302.613ZM239.358 305.145V303.967H241.819V298.184H243.12V312.615H241.819V305.145H239.358ZM244.966 313.424V297.797H246.284V313.424H244.966ZM261.024 297.814V309.24H259.653V297.814H261.024ZM248.491 302.736C248.482 300.486 250.248 298.913 252.586 298.904C254.924 298.913 256.673 300.486 256.682 302.736C256.673 305.013 254.924 306.595 252.586 306.586C250.248 306.595 248.482 305.013 248.491 302.736ZM249.844 302.736C249.827 304.292 251.004 305.373 252.586 305.373C254.142 305.373 255.329 304.292 255.329 302.736C255.329 301.207 254.142 300.117 252.586 300.117C251.004 300.117 249.827 301.207 249.844 302.736ZM250.934 313.09V308.08H252.305V311.93H261.516V313.09H250.934ZM280.396 297.797V313.424H279.007V297.797H280.396ZM267.669 309.363C271.897 307.359 274.059 304.362 274.366 300.627H268.39V299.502H275.773C275.755 303.993 273.663 307.975 268.425 310.488L267.669 309.363ZM290.512 298.482C290.503 300.425 293.325 301.919 296.137 302.262L295.645 303.316C293.184 302.982 290.776 301.884 289.792 300.196C288.79 301.884 286.373 302.982 283.938 303.316L283.463 302.262C286.267 301.919 289.088 300.425 289.088 298.482V297.885H290.512V298.482ZM282.672 305.461V304.336H296.911V305.461H290.46V307.025H295.083V310.576H285.801V312.158H295.557V313.248H284.43V309.539H293.729V308.115H284.395V307.025H289.088V305.461H282.672ZM304.988 298.078C308.46 298.078 310.499 299.036 310.508 300.768C310.499 302.543 308.46 303.501 304.988 303.51C301.499 303.501 299.451 302.543 299.451 300.768C299.451 299.036 301.499 298.078 304.988 298.078ZM297.869 305.689V304.564H312.107V305.689H297.869ZM299.592 308.098V307.043H310.279V310.541H300.998V312.158H310.754V313.248H299.627V309.521H308.926V308.098H299.592ZM300.892 300.768C300.875 301.857 302.395 302.455 304.988 302.455C307.581 302.455 309.093 301.857 309.101 300.768C309.093 299.739 307.581 299.124 304.988 299.115C302.395 299.124 300.875 299.739 300.892 300.768ZM112.518 327.797V343.459H111.129V327.797H112.518ZM100.213 334.459C100.222 331.137 101.874 329.019 104.204 329.01C106.524 329.019 108.203 331.137 108.194 334.459C108.203 337.79 106.524 339.899 104.204 339.891C101.874 339.899 100.222 337.79 100.213 334.459ZM101.549 334.459C101.549 336.999 102.639 338.669 104.204 338.66C105.777 338.669 106.858 336.999 106.858 334.459C106.858 331.919 105.777 330.249 104.204 330.24C102.639 330.249 101.549 331.919 101.549 334.459ZM129.068 335.531V336.674H114.83V335.531H118.363V333.325C117.115 332.842 116.412 332.051 116.412 330.996C116.412 329.159 118.521 328.104 121.949 328.096C125.35 328.104 127.46 329.159 127.469 330.996C127.46 332.042 126.765 332.833 125.535 333.325V335.531H129.068ZM116.552 340.629C116.544 338.845 118.556 337.86 121.949 337.869C125.298 337.86 127.31 338.845 127.328 340.629C127.31 342.413 125.298 343.389 121.949 343.389C118.556 343.389 116.544 342.413 116.552 340.629ZM117.836 330.996C117.827 332.139 119.391 332.798 121.949 332.807C124.48 332.798 126.053 332.139 126.062 330.996C126.053 329.871 124.48 329.186 121.949 329.186C119.391 329.186 117.827 329.871 117.836 330.996ZM117.959 340.629C117.941 341.692 119.444 342.325 121.949 342.316C124.427 342.325 125.93 341.692 125.939 340.629C125.93 339.565 124.427 338.941 121.949 338.924C119.444 338.941 117.941 339.565 117.959 340.629ZM119.734 335.531H124.164V333.694C123.505 333.817 122.766 333.879 121.949 333.879C121.132 333.879 120.393 333.817 119.734 333.703V335.531ZM137.831 330.504V331.629H129.991V330.504H133.243V328.271H134.614V330.504H137.831ZM130.554 336.234C130.554 334.16 131.969 332.692 133.911 332.684C135.88 332.692 137.286 334.16 137.304 336.234C137.286 338.335 135.88 339.812 133.911 339.82C131.969 339.812 130.554 338.335 130.554 336.234ZM131.784 336.234C131.784 337.623 132.672 338.616 133.911 338.607C135.159 338.616 136.073 337.623 136.073 336.234C136.073 334.863 135.159 333.861 133.911 333.844C132.672 333.861 131.784 334.863 131.784 336.234ZM138.64 342.65V328.184H139.941V334.389H142.015V327.797H143.333V343.424H142.015V335.531H139.941V342.65H138.64ZM163.377 326.023V331.121H165.779V333.191H163.377V338.973H160.877V326.023H163.377ZM149.392 331.688C149.383 329.041 151.541 327.166 154.275 327.176C157 327.166 159.119 329.041 159.119 331.688C159.119 334.295 157 336.199 154.275 336.199C151.541 336.199 149.383 334.295 149.392 331.688ZM151.853 343.484V337.605H154.334V341.492H164.021V343.484H151.853ZM151.853 331.688C151.834 333.133 152.918 334.031 154.275 334.031C155.642 334.031 156.687 333.133 156.697 331.688C156.687 330.203 155.642 329.334 154.275 329.344C152.918 329.334 151.834 330.203 151.853 331.688ZM181.141 326.043V339.012H178.66V332.645H175.75V330.633H178.66V326.043H181.141ZM166.063 335.008C169.002 334.09 170.33 331.775 170.34 329.5V329.227H166.766V327.234H176.414V329.227H172.879V329.52C172.869 331.58 174.139 333.777 176.961 334.695L175.731 336.668C173.768 336.023 172.41 334.734 171.639 333.143C170.848 334.91 169.432 336.346 167.332 337.039L166.063 335.008ZM169.344 343.484V337.879H171.844V341.492H181.571V343.484H169.344ZM197.069 326.023V332.977H199.686V335.027H197.069V343.797H194.608V326.023H197.069ZM182.948 330.672V328.68H186.971V326.297H189.471V328.68H193.397V330.672H182.948ZM183.671 335.906C183.661 333.426 185.594 331.658 188.221 331.668C190.809 331.658 192.753 333.426 192.753 335.906C192.753 338.387 190.809 340.135 188.221 340.145C185.594 340.135 183.661 338.387 183.671 335.906ZM186.053 335.906C186.053 337.283 186.962 338.104 188.221 338.094C189.462 338.104 190.37 337.283 190.37 335.906C190.37 334.539 189.462 333.699 188.221 333.68C186.962 333.699 186.053 334.539 186.053 335.906ZM215.341 326.023V343.797H212.997V326.023H215.341ZM199.716 338.348C203.31 336.219 204.892 333.631 205.233 330.145H200.692V328.133H207.704C207.704 329.832 207.519 331.414 207.089 332.879H209.228V326.414H211.552V343.016H209.228V334.852H206.317C205.302 336.883 203.651 338.641 201.122 340.105L199.716 338.348ZM234.034 327.797V343.459H232.645V334.635H229.218V333.492H232.645V327.797H234.034ZM220.938 339.258C223.206 338.159 225.096 335.215 225.104 332.438V330.557H221.536V329.414H230.079V330.557H226.493V332.438C226.502 335.039 228.365 337.869 230.641 338.906L229.815 340.014C228.031 339.135 226.528 337.245 225.816 335.065C225.113 337.386 223.566 339.398 221.782 340.33L220.938 339.258ZM241.567 330.768C241.575 332.815 243.105 334.644 245.399 335.391L244.748 336.48C242.946 335.883 241.584 334.644 240.907 333.07C240.239 334.863 238.798 336.261 236.926 336.938L236.223 335.83C238.561 335.039 240.195 333.026 240.213 330.768V330.1H236.645V328.957H245.082V330.1H241.567V330.768ZM238.297 340.506C238.306 338.704 240.266 337.658 243.483 337.658C246.691 337.658 248.633 338.704 248.633 340.506C248.633 342.334 246.691 343.389 243.483 343.389C240.266 343.389 238.306 342.334 238.297 340.506ZM239.686 340.506C239.668 341.631 241.127 342.29 243.483 342.281C245.847 342.29 247.288 341.631 247.297 340.506C247.288 339.416 245.847 338.766 243.483 338.766C241.127 338.766 239.668 339.416 239.686 340.506ZM247.121 337.236V327.797H248.492V331.787H250.848V332.947H248.492V337.236H247.121ZM264.375 327.814V336.797H262.986V327.814H264.375ZM251.525 335.268C252.852 335.268 254.399 335.268 256.007 335.215V333.527H252.949V328.588H260.367V329.73H254.337V332.42H260.507V333.527H257.396V335.153C258.846 335.083 260.314 334.969 261.685 334.775L261.773 335.777C258.345 336.357 254.557 336.41 251.736 336.41L251.525 335.268ZM254.074 343.213V337.5H255.445V339.17H263.021V337.5H264.375V343.213H254.074ZM255.445 342.088H263.021V340.242H255.445V342.088ZM279.554 327.797V343.424H278.182V327.797H279.554ZM267.688 339.398V329.344H269.042V338.203C271.432 338.186 273.893 338.001 276.513 337.447L276.706 338.625C273.929 339.205 271.459 339.398 268.954 339.398H267.688ZM293.959 327.797V333.984H296.578V335.145H293.959V343.459H292.588V327.797H293.959ZM282.551 339.539V329.326H289.846V330.469H283.922V338.379C286.752 338.37 288.747 338.247 291.076 337.816L291.252 339.012C288.8 339.451 286.752 339.539 283.781 339.539H282.551ZM298.714 342.105C298.099 342.097 297.572 341.587 297.589 340.963C297.572 340.348 298.099 339.838 298.714 339.838C299.338 339.838 299.848 340.348 299.839 340.963C299.848 341.587 299.338 342.097 298.714 342.105Z" fill="#222222"/>
<defs>
<clipPath id="clip0_263_1072">
<rect width="60" height="60" fill="white" transform="translate(170 148)"/>
</clipPath>
</defs>
</svg>
