<svg width="400" height="670" viewBox="0 0 400 670" fill="none" xmlns="http://www.w3.org/2000/svg">
<rect width="400" height="670" fill="white"/>
<rect width="400" height="58" fill="white"/>
<mask id="mask0_579_1133" style="mask-type:alpha" maskUnits="userSpaceOnUse" x="14" y="17" width="24" height="24">
<rect x="14" y="17" width="24" height="24" fill="#D9D9D9"/>
</mask>
<g mask="url(#mask0_579_1133)">
<path d="M23.0152 28.9994L30.248 36.2321C30.43 36.4141 30.5227 36.6397 30.526 36.9089C30.5292 37.1782 30.4397 37.4039 30.2577 37.5859C30.0756 37.7679 29.8499 37.8589 29.5807 37.8589C29.3116 37.8589 29.0859 37.7679 28.9038 37.5859L21.4578 30.1301C21.2936 29.9659 21.1762 29.7884 21.1057 29.5974C21.0352 29.4064 21 29.207 21 28.9994C21 28.7917 21.0352 28.5924 21.1057 28.4014C21.1762 28.2104 21.2936 28.0328 21.4578 27.8686L28.9038 20.4224C29.0859 20.2404 29.31 20.1478 29.576 20.1446C29.842 20.1414 30.066 20.2309 30.248 20.4129C30.43 20.5949 30.521 20.8205 30.521 21.0899C30.521 21.359 30.43 21.5846 30.248 21.7666L23.0152 28.9994Z" fill="#222222"/>
</g>
<path d="M143.367 76.123V102.637H140.086V76.123H143.367ZM122.742 96.3965V78.291H125.994V84.9121H132.41V78.291H135.633V96.3965H122.742ZM125.994 93.7305H132.41V87.4609H125.994V93.7305ZM160.785 77.5V88.5449H148.012V77.5H160.785ZM151.146 93.3496V90.8008H168.666V97.6562H154.398V99.7949H169.457V102.373H151.176V95.3125H165.502V93.3496H151.146ZM151.234 85.9961H157.562V80.1074H151.234V85.9961ZM165.443 89.5996V76.123H168.666V89.5996H165.443ZM194.169 76.1523V95.6934H190.917V85.9375H185.585V91.3867H173.193V77.8809H176.445V82.1582H182.363V77.8809H185.585V83.3008H190.917V76.1523H194.169ZM176.445 88.8086H182.363V84.6777H176.445V88.8086ZM176.708 102.08V93.7598H180.019V99.4434H194.755V102.08H176.708ZM220.288 79.668V82.3047H198.403V79.668H207.749V76.4746H210.972V79.668H220.288ZM197.319 99.7656V97.1289H207.749V93.877C203.179 93.5254 200.41 91.6797 200.425 88.75C200.41 85.5566 203.838 83.6523 209.36 83.6523C214.81 83.6523 218.281 85.5566 218.267 88.75C218.281 91.665 215.483 93.5107 210.972 93.877V97.1289H221.519V99.7656H197.319ZM203.765 88.75C203.75 90.4492 205.757 91.3135 209.36 91.3281C212.891 91.3135 214.927 90.4492 214.927 88.75C214.927 87.0801 212.891 86.2158 209.36 86.2012C205.757 86.2158 203.75 87.0801 203.765 88.75ZM250.143 76.1523V83.8574H253.717V86.5527H250.143V94.0527H246.891V76.1523H250.143ZM228.932 90.8887C230.924 90.8887 233.224 90.874 235.612 90.8154V89.1895C232.667 88.8232 230.792 87.4023 230.807 85.3223C230.792 82.876 233.356 81.3818 237.194 81.3965C241.046 81.3818 243.58 82.876 243.58 85.3223C243.58 87.3877 241.764 88.7939 238.863 89.1748V90.6982C241.119 90.5811 243.39 90.4053 245.514 90.127L245.778 92.3828C240.138 93.3789 233.942 93.4375 229.283 93.4375L228.932 90.8887ZM229.606 80.6348V78.2324H235.612V75.918H238.863V78.2324H244.811V80.6348H229.606ZM232.272 97.7441V95.1953H250.143V102.607H246.891V97.7441H232.272ZM233.942 85.3223C233.912 86.4209 235.143 87.1094 237.194 87.0801C239.244 87.1094 240.475 86.4209 240.475 85.3223C240.475 84.165 239.244 83.5791 237.194 83.5938C235.143 83.5791 233.912 84.165 233.942 85.3223ZM276.554 76.1523V95.2832H273.273V76.1523H276.554ZM254.963 84.502C254.963 80.6494 258.083 77.8955 262.111 77.8809C266.139 77.8955 269.245 80.6494 269.23 84.502C269.245 88.4131 266.139 91.1523 262.111 91.1523C258.083 91.1523 254.963 88.4131 254.963 84.502ZM258.156 84.502C258.141 86.8457 259.841 88.3105 262.111 88.3105C264.323 88.3105 266.037 86.8457 266.037 84.502C266.037 82.2168 264.323 80.7227 262.111 80.7227C259.841 80.7227 258.141 82.2168 258.156 84.502ZM259.035 102.08V93.3496H262.316V99.4434H277.287V102.08H259.035Z" fill="#222222"/>
<circle cx="128" cy="148" r="12" fill="#D9D9D9"/>
<circle cx="176" cy="148" r="12" fill="#D9D9D9"/>
<circle cx="224" cy="148" r="12" fill="#D9D9D9"/>
<circle cx="272" cy="148" r="12" fill="#D9D9D9"/>
<path d="M145.179 189.613C145.16 192.709 146.966 195.883 149.574 197.152L148.421 198.637C146.517 197.641 145.043 195.688 144.271 193.354C143.49 195.834 141.957 197.934 139.964 198.969L138.812 197.465C141.498 196.176 143.314 192.816 143.324 189.613V186.625H145.179V189.613ZM150.882 202.66V185.16H152.738V192.133H155.55V193.715H152.738V202.66H150.882ZM171.947 193.695V195.199H155.99V193.695H159.818V191.342C158.461 190.795 157.699 189.916 157.709 188.754C157.699 186.674 160.111 185.463 163.959 185.473C167.797 185.463 170.199 186.674 170.209 188.754C170.199 189.916 169.438 190.795 168.08 191.352V193.695H171.947ZM157.885 199.496C157.885 197.494 160.15 196.391 163.959 196.391C167.719 196.391 169.984 197.494 169.994 199.496C169.984 201.518 167.719 202.621 163.959 202.621C160.15 202.621 157.885 201.518 157.885 199.496ZM159.623 188.754C159.613 189.926 161.234 190.58 163.959 190.59C166.664 190.58 168.305 189.926 168.295 188.754C168.305 187.582 166.664 186.908 163.959 186.898C161.234 186.908 159.613 187.582 159.623 188.754ZM159.76 199.496C159.75 200.59 161.283 201.215 163.959 201.195C166.596 201.215 168.139 200.59 168.139 199.496C168.139 198.422 166.596 197.816 163.959 197.816C161.283 197.816 159.75 198.422 159.76 199.496ZM161.693 193.695H166.244V191.83C165.561 191.938 164.789 191.996 163.959 191.996C163.139 191.996 162.377 191.938 161.693 191.84V193.695ZM186.625 185.102V189.203H189.184V190.727H186.625V194.73H184.77V185.102H186.625ZM172.895 188.109V186.645H177.192V185.004H179.047V186.645H183.325V188.109H172.895ZM173.852 191.645C173.842 189.877 175.541 188.773 178.11 188.773C180.678 188.773 182.348 189.877 182.348 191.645C182.348 193.422 180.678 194.506 178.11 194.496C175.541 194.506 173.842 193.422 173.852 191.645ZM175.317 196.938V195.551H186.625V199.613H177.172V201.078H187.231V202.484H175.356V198.305H184.789V196.938H175.317ZM175.649 191.645C175.629 192.592 176.596 193.148 178.11 193.148C179.614 193.148 180.59 192.592 180.61 191.645C180.59 190.697 179.614 190.111 178.11 190.102C176.596 190.111 175.629 190.697 175.649 191.645ZM208.736 185.16V202.699H206.88V185.16H208.736ZM195.22 198.5V186.625H197.075V191.117H201.782V186.625H203.618V198.5H195.22ZM197.075 196.977H201.782V192.582H197.075V196.977ZM220.367 186.098V193.305H212.046V186.098H220.367ZM213.863 191.859H218.531V187.602H213.863V191.859ZM214.136 196.41V194.965H225.621V199.32H215.992V201H226.187V202.484H214.175V197.973H223.804V196.41H214.136ZM223.785 194.125V185.16H225.621V194.125H223.785ZM242.604 185.18V198.109H240.748V191.508H236.92V195.199H228.854V186.332H230.709V189.301H235.084V186.332H236.92V190.004H240.748V185.18H242.604ZM230.709 193.695H235.084V190.727H230.709V193.695ZM231.178 202.289V196.84H233.053V200.785H242.994V202.289H231.178ZM260.055 187.621V189.125H245.661V187.621H251.95V185.414H253.786V187.621H260.055ZM244.899 200.688V199.184H251.95V196.869C248.883 196.674 247.018 195.463 247.028 193.52C247.018 191.41 249.254 190.17 252.868 190.18C256.432 190.17 258.698 191.41 258.688 193.52C258.698 195.463 256.813 196.674 253.786 196.869V199.184H260.914V200.688H244.899ZM248.922 193.52C248.903 194.74 250.368 195.404 252.868 195.414C255.329 195.404 256.803 194.74 256.793 193.52C256.803 192.309 255.329 191.645 252.868 191.645C250.368 191.645 248.903 192.309 248.922 193.52ZM103.245 226.246V224.508L109.495 214.859H112.151V224.43H114.084V226.246H112.151V229H110.12V226.246H103.245ZM105.51 224.43H110.12V217.418H109.963L105.51 224.312V224.43ZM121.341 218.316C121.331 221.08 123.157 224.166 125.813 225.426L124.759 226.871C122.796 225.934 121.233 223.961 120.442 221.676C119.641 224.166 118.001 226.324 116.009 227.32L114.915 225.855C117.571 224.576 119.495 221.275 119.505 218.316V216.461H115.559V214.918H125.149V216.461H121.341V218.316ZM127.024 230.66V213.16H128.88V220.094H131.692V221.656H128.88V230.66H127.024ZM146.663 213.16V230.699H144.808V213.16H146.663ZM133.109 216.246V214.742H141.312V221.129H135.023V224.957C137.864 224.947 140.335 224.811 143.265 224.332L143.441 225.855C140.345 226.373 137.708 226.49 134.613 226.5H133.128V219.645H139.417V216.246H133.109ZM165.013 221.188V222.613H148.998V221.188H165.013ZM150.892 225.172V223.844H163.041V227.691H152.767V229.137H163.587V230.445H150.912V226.461H161.205V225.172H150.892ZM151.009 214.918V213.609H163.002V217.398H152.884V218.727H163.295V220.035H151.048V216.168H161.146V214.918H151.009ZM184.018 213.16V219.938H186.83V221.461H184.018V230.699H182.163V213.16H184.018ZM171.127 226.344V214.84H179.311V216.344H172.983V224.801C175.922 224.791 178.12 224.664 180.62 224.215L180.854 225.777C178.11 226.266 175.786 226.354 172.534 226.344H171.127ZM193.696 217.613C193.677 220.807 195.61 224.029 198.325 225.23L197.212 226.695C195.2 225.738 193.608 223.775 192.788 221.383C191.977 223.951 190.366 226.061 188.266 227.086L187.134 225.523C189.887 224.303 191.821 220.953 191.821 217.613V214.625H193.696V217.613ZM199.907 230.699V213.16H201.762V230.699H199.907ZM223.15 213.16V222.555H221.295V213.16H223.15ZM208.99 218.023C209 215.621 210.972 213.951 213.658 213.961C216.334 213.951 218.306 215.621 218.306 218.023C218.306 220.416 216.334 222.086 213.658 222.066C210.972 222.086 209 220.416 208.99 218.023ZM210.806 218.023C210.796 219.537 211.998 220.543 213.658 220.543C215.298 220.543 216.49 219.537 216.49 218.023C216.49 216.529 215.298 215.514 213.658 215.523C211.998 215.514 210.796 216.529 210.806 218.023ZM211.705 230.445V223.395H213.521V225.367H221.314V223.395H223.15V230.445H211.705ZM213.521 228.922H221.314V226.832H213.521V228.922ZM233.863 214.215V219.312H228.082V221.734C231.129 221.734 232.789 221.666 234.762 221.305L234.938 222.809C232.799 223.17 231.002 223.229 227.516 223.238H226.246V217.906H232.008V215.699H226.227V214.215H233.863ZM228.238 226.324V224.82H240.113V230.68H238.258V226.324H228.238ZM234.977 220.855V219.371H238.258V217.203H234.977V215.719H238.258V213.18H240.113V223.941H238.258V220.855H234.977ZM256.041 213.16V220.25H258.854V221.793H256.041V230.66H254.205V213.16H256.041ZM242.311 217.418V215.895H246.627V213.395H248.483V215.895H252.682V217.418H242.311ZM243.209 222.77C243.209 220.387 245.045 218.707 247.565 218.707C250.075 218.707 251.911 220.387 251.92 222.77C251.911 225.172 250.075 226.842 247.565 226.852C245.045 226.842 243.209 225.172 243.209 222.77ZM244.987 222.77C244.977 224.293 246.071 225.309 247.565 225.289C249.049 225.309 250.133 224.293 250.143 222.77C250.133 221.275 249.049 220.24 247.565 220.23C246.071 220.24 244.977 221.275 244.987 222.77ZM264.626 217.945C264.626 220.738 265.798 223.717 268.141 225.152L267.106 226.578C265.466 225.592 264.362 223.844 263.757 221.822C263.122 224.039 261.911 225.934 260.212 226.969L259.059 225.582C261.53 224.098 262.839 221.002 262.829 218.023V214.762H264.626V217.945ZM266.247 220.855V219.312H268.962V213.492H270.72V229.801H268.962V220.855H266.247ZM272.575 230.66V213.16H274.352V230.66H272.575ZM292.195 226.93V228.473H276.179V226.93H280.007V222.359C278.571 221.568 277.693 220.318 277.702 218.746C277.693 215.992 280.398 214.186 284.148 214.176C287.907 214.186 290.612 215.992 290.612 218.746C290.612 220.289 289.773 221.529 288.366 222.32V226.93H292.195ZM279.499 218.746C279.499 220.621 281.404 221.842 284.148 221.852C286.872 221.842 288.806 220.621 288.816 218.746C288.806 216.861 286.872 215.66 284.148 215.66C281.404 215.66 279.499 216.861 279.499 218.746ZM281.843 226.93H286.491V223.043C285.779 223.209 284.987 223.297 284.148 223.297C283.327 223.297 282.546 223.209 281.843 223.043V226.93ZM295.056 229.137C294.295 229.127 293.66 228.512 293.67 227.75C293.66 226.988 294.295 226.363 295.056 226.363C295.808 226.363 296.433 226.988 296.443 227.75C296.433 228.512 295.808 229.127 295.056 229.137Z" fill="#222222"/>
</svg>
