<svg width="450" height="730" viewBox="0 0 450 730" fill="none" xmlns="http://www.w3.org/2000/svg">
<rect width="450" height="730" fill="white"/>
<rect width="450" height="58" fill="white"/>
<mask id="mask0_263_2253" style="mask-type:alpha" maskUnits="userSpaceOnUse" x="14" y="17" width="24" height="24">
<rect x="14" y="17" width="24" height="24" fill="#D9D9D9"/>
</mask>
<g mask="url(#mask0_263_2253)">
<path d="M23.0152 28.9994L30.248 36.2321C30.43 36.4141 30.5227 36.6397 30.526 36.9089C30.5292 37.1782 30.4397 37.4039 30.2577 37.5859C30.0756 37.7679 29.8499 37.8589 29.5807 37.8589C29.3116 37.8589 29.0859 37.7679 28.9038 37.5859L21.4578 30.1301C21.2936 29.9659 21.1762 29.7884 21.1057 29.5974C21.0352 29.4064 21 29.207 21 28.9994C21 28.7917 21.0352 28.5924 21.1057 28.4014C21.1762 28.2104 21.2936 28.0328 21.4578 27.8686L28.9038 20.4224C29.0859 20.2404 29.31 20.1478 29.576 20.1446C29.842 20.1414 30.066 20.2309 30.248 20.4129C30.43 20.5949 30.521 20.8205 30.521 21.0899C30.521 21.359 30.43 21.5846 30.248 21.7666L23.0152 28.9994Z" fill="#222222"/>
</g>
<g clip-path="url(#clip0_263_2253)">
<circle cx="225" cy="188" r="30" fill="#EF403C"/>
<path d="M221.221 201.266C224.521 197.51 226.157 192.366 225.29 187.096" stroke="white" stroke-width="2" stroke-linecap="round" stroke-linejoin="round"/>
<path d="M221.685 189.52C221.797 193.429 220.185 197.111 217.432 199.684" stroke="white" stroke-width="2" stroke-linecap="round" stroke-linejoin="round"/>
<path d="M229.345 189.85C229.342 188.489 229.206 187.11 228.928 185.728H228.931C228.513 183.65 226.491 182.307 224.413 182.725C222.864 183.038 221.719 184.246 221.416 185.701" stroke="white" stroke-width="2" stroke-linecap="round" stroke-linejoin="round"/>
<path d="M225.66 201.777C227.334 199.33 228.497 196.531 229.023 193.559" stroke="white" stroke-width="2" stroke-linecap="round" stroke-linejoin="round"/>
<path d="M217.218 193.344C216.619 194.882 215.631 196.25 214.35 197.301" stroke="white" stroke-width="2" stroke-linecap="round" stroke-linejoin="round"/>
<path d="M232.844 193.919C233.321 191.03 233.29 188.005 232.677 184.967C231.842 180.821 227.804 178.137 223.658 178.973C219.512 179.808 216.829 183.846 217.664 187.992H217.675C217.765 188.434 217.821 188.879 217.849 189.321" stroke="white" stroke-width="2" stroke-linecap="round" stroke-linejoin="round"/>
<path d="M230.66 200.768C231.147 199.769 231.569 198.732 231.92 197.67" stroke="white" stroke-width="2" stroke-linecap="round" stroke-linejoin="round"/>
<path d="M213.699 186.934C213.723 187.532 213.796 188.141 213.918 188.747H213.925C214.353 190.874 213.549 192.962 212 194.275" stroke="white" stroke-width="2" stroke-linecap="round" stroke-linejoin="round"/>
<path d="M236.686 185.699C236.613 185.205 236.526 184.711 236.425 184.213C235.172 177.996 229.118 173.976 222.902 175.229C218.801 176.057 215.651 178.974 214.346 182.65" stroke="white" stroke-width="2" stroke-linecap="round" stroke-linejoin="round"/>
<path d="M236.035 197.258C236.651 194.954 236.982 192.552 236.999 190.102" stroke="white" stroke-width="2" stroke-linecap="round" stroke-linejoin="round"/>
</g>
<path d="M116.357 261.279C116.357 264.15 118.188 267.051 121.601 268.34L120.137 270.479C117.69 269.541 115.976 267.754 115.039 265.601C114.072 268.032 112.285 270.142 109.736 271.24L108.213 269.072C111.758 267.534 113.662 264.194 113.662 261.279V257.881H116.357V261.279ZM113.047 277.686C113.017 274.697 116.43 272.925 121.924 272.91C127.402 272.925 130.845 274.697 130.859 277.686C130.845 280.674 127.402 282.446 121.924 282.432C116.43 282.446 113.017 280.674 113.047 277.686ZM115.801 277.686C115.771 279.355 118.1 280.322 121.924 280.293C125.732 280.322 128.061 279.355 128.076 277.686C128.061 276.001 125.732 275.034 121.924 275.049C118.1 275.034 115.771 276.001 115.801 277.686ZM122.422 271.592V256.738H125V263.096H128.076V256.27H130.713V272.412H128.076V265.381H125V271.592H122.422ZM141.509 264.297C141.509 268.428 143.428 272.632 147.046 274.58L145.494 276.631C142.945 275.283 141.187 272.778 140.235 269.805C139.297 272.983 137.539 275.723 135.005 277.246L133.365 275.137C136.997 273.027 138.872 268.53 138.902 264.297V263.242H134.156V260.957H138.902V257.178H141.509V260.957H146.167V263.242H141.509V264.297ZM144.439 268.779V266.465H148.218V256.797H150.855V281.172H148.218V268.779H144.439ZM153.521 282.49V256.24H156.187V282.49H153.521ZM180.753 256.27V275.342H177.97V256.27H180.753ZM159.513 264.531C159.527 260.737 162.545 258.042 166.515 258.027C170.47 258.042 173.487 260.737 173.487 264.531C173.487 268.384 170.47 271.064 166.515 271.064C162.545 271.064 159.527 268.384 159.513 264.531ZM162.237 264.531C162.223 267.007 164.068 268.633 166.515 268.633C168.917 268.633 170.763 267.007 170.763 264.531C170.763 262.114 168.917 260.459 166.515 260.459C164.068 260.459 162.223 262.114 162.237 264.531ZM163.585 281.934V273.408H166.397V279.678H181.544V281.934H163.585ZM208.249 268.604V270.859H184.313V268.604H208.249ZM185.573 265.029C190.334 264.517 194.098 262.378 194.406 259.814H186.51V257.529H206.11V259.814H198.127C198.449 262.363 202.155 264.517 207.018 265.029L206.022 267.227C201.466 266.699 197.702 264.78 196.281 262.012C194.831 264.78 191.095 266.699 186.54 267.227L185.573 265.029ZM187.155 277.686C187.155 274.639 190.568 272.881 196.266 272.881C201.921 272.881 205.304 274.639 205.319 277.686C205.304 280.732 201.921 282.446 196.266 282.432C190.568 282.446 187.155 280.732 187.155 277.686ZM189.967 277.686C189.953 279.341 192.253 280.249 196.266 280.234C200.221 280.249 202.536 279.341 202.536 277.686C202.536 275.986 200.221 275.078 196.266 275.049C192.253 275.078 189.953 275.986 189.967 277.686ZM221.594 257.822C227.102 257.822 231.291 260.737 231.291 265.146C231.291 269.585 227.102 272.485 221.594 272.471C216.101 272.485 211.911 269.585 211.926 265.146C211.911 260.737 216.101 257.822 221.594 257.822ZM209.641 279.092V276.777H233.664V279.092H209.641ZM214.592 265.146C214.577 268.208 217.566 270.186 221.594 270.186C225.608 270.186 228.581 268.208 228.596 265.146C228.581 262.1 225.608 260.063 221.594 260.078C217.566 260.063 214.577 262.1 214.592 265.146ZM258.992 277.012V279.355H234.969V277.012H245.545V272.412H237.898V264.062H253.308V260.371H237.84V258.086H256.062V266.289H240.652V270.127H256.678V272.412H248.299V277.012H258.992ZM291.044 277.012V279.355H267.021V277.012H277.597V272.412H269.95V264.062H285.36V260.371H269.892V258.086H288.114V266.289H272.704V270.127H288.729V272.412H280.351V277.012H291.044ZM313.149 258.906V261.719C313.149 265.117 313.149 268.794 312.182 274.404L309.34 274.141C310.395 268.882 310.395 265.029 310.395 261.719V261.191H294.926V258.906H313.149ZM292.348 278.77V276.455H316.284V278.77H292.348ZM339.444 256.27V275.342H336.66V256.27H339.444ZM318.203 264.531C318.218 260.737 321.236 258.042 325.205 258.027C329.16 258.042 332.178 260.737 332.178 264.531C332.178 268.384 329.16 271.064 325.205 271.064C321.236 271.064 318.218 268.384 318.203 264.531ZM320.928 264.531C320.913 267.007 322.759 268.633 325.205 268.633C327.608 268.633 329.453 267.007 329.453 264.531C329.453 262.114 327.608 260.459 325.205 260.459C322.759 260.459 320.913 262.114 320.928 264.531ZM322.276 281.934V273.408H325.088V279.678H340.235V281.934H322.276ZM162.947 298.24V308.875H167.166V311.189H162.947V324.49H160.194V298.24H162.947ZM142.352 304.627V302.342H148.826V298.592H151.61V302.342H157.908V304.627H142.352ZM143.699 312.654C143.699 309.08 146.453 306.561 150.233 306.561C153.997 306.561 156.751 309.08 156.766 312.654C156.751 316.258 153.997 318.763 150.233 318.777C146.453 318.763 143.699 316.258 143.699 312.654ZM146.365 312.654C146.351 314.939 147.991 316.463 150.233 316.434C152.459 316.463 154.085 314.939 154.1 312.654C154.085 310.413 152.459 308.86 150.233 308.846C147.991 308.86 146.351 310.413 146.365 312.654ZM177.465 304.92C177.435 309.71 180.336 314.544 184.408 316.346L182.738 318.543C179.721 317.107 177.333 314.163 176.102 310.574C174.887 314.427 172.47 317.591 169.32 319.129L167.621 316.785C171.752 314.954 174.652 309.93 174.652 304.92V300.438H177.465V304.92ZM186.781 324.549V298.24H189.564V324.549H186.781ZM204.785 300.145C204.785 302.093 204.462 303.88 203.832 305.506H207.568V298.797H210.204V312.947H207.568V307.762H202.675C201.005 310.354 198.354 312.42 194.736 313.943L193.329 311.863C198.544 309.783 201.401 306.575 201.913 302.4H194.531V300.145H204.785ZM194.589 322.322C197.944 321.121 199.833 318.338 199.833 315.789V314.207H202.499V315.789C202.47 318.074 203.598 320.433 205.971 321.868C208.373 320.301 209.531 317.752 209.56 315.789V314.207H212.255V315.789C212.241 318.514 214.072 321.209 217.47 322.322L216.122 324.373C213.53 323.45 211.757 321.678 210.849 319.51C210.029 321.619 208.461 323.567 206.015 324.578C203.51 323.626 201.928 321.736 201.137 319.568C200.2 321.663 198.456 323.436 195.996 324.373L194.589 322.322ZM212.9 313.357V298.27H215.537V313.357H212.9ZM224.194 313.973V316.756H236.528V313.973H239.312V324.168H221.44V313.973H224.194ZM218.481 312.332V310.018H242.417V312.332H218.481ZM219.771 306.209C224.854 305.55 229.014 302.752 229.028 299.646V298.533H231.87V299.646C231.885 302.664 236.074 305.594 241.099 306.209L240.103 308.406C235.854 307.82 232.148 305.799 230.464 303.001C228.765 305.813 225.044 307.82 220.825 308.406L219.771 306.209ZM224.194 321.941H236.528V318.924H224.194V321.941ZM265.606 298.24V324.49H262.823V298.24H265.606ZM245.421 317.811V300.789H248.174V315.408C252.012 315.394 256.041 315.057 260.245 314.207L260.626 316.551C255.982 317.503 251.763 317.825 247.618 317.811H245.421ZM289.996 298.24V308.904H293.805V311.189H289.996V324.49H287.213V298.24H289.996ZM268.903 317.107C272.74 313.108 274.132 308.597 274.41 303.338H269.84V301.053H277.047C277.032 307.615 275.861 313.592 271.1 318.66L268.903 317.107ZM276.403 318.865C280.314 314.295 281.456 308.934 281.661 303.338H277.897V301.053H284.283C284.283 307.688 283.448 314.69 278.629 320.389L276.403 318.865ZM298.771 315.701C298.815 311.863 299.943 310.691 301.877 309.49C303.107 308.743 304.045 307.659 304.045 306.121C304.045 304.29 302.638 303.133 300.881 303.133C299.299 303.133 297.761 304.1 297.629 306.268H294.465C294.582 302.532 297.394 300.496 300.881 300.496C304.689 300.496 307.238 302.781 307.238 306.121C307.238 308.479 306.11 310.047 304.25 311.189C302.492 312.259 301.804 313.313 301.76 315.701V315.877H298.771V315.701ZM298.303 320.125C298.288 318.982 299.24 318.045 300.383 318.045C301.511 318.045 302.448 318.982 302.463 320.125C302.448 321.268 301.511 322.19 300.383 322.205C299.24 322.19 298.288 321.268 298.303 320.125Z" fill="#222222"/>
<path d="M167.246 352.908C167.254 354.64 168.459 356.389 170.462 357.145L169.742 358.199C168.239 357.619 167.158 356.503 166.595 355.158C166.024 356.644 164.899 357.971 163.361 358.639L162.605 357.566C164.662 356.67 165.919 354.648 165.927 352.908V350.781H167.246V352.908ZM165.453 362.611C165.435 360.845 167.439 359.808 170.691 359.816C173.925 359.808 175.938 360.845 175.947 362.611C175.938 364.36 173.925 365.389 170.691 365.389C167.439 365.389 165.435 364.36 165.453 362.611ZM166.824 362.611C166.806 363.675 168.292 364.325 170.691 364.316C173.064 364.325 174.558 363.675 174.576 362.611C174.558 361.53 173.064 360.88 170.691 360.871C168.292 360.88 166.806 361.53 166.824 362.611ZM171.166 358.973V350.113H172.466V354.016H174.541V349.814H175.859V359.465H174.541V355.158H172.466V358.973H171.166ZM182.354 354.613C182.363 357.127 183.638 359.702 185.765 360.836L184.974 361.873C183.418 361.021 182.293 359.403 181.722 357.522C181.168 359.526 180.052 361.284 178.487 362.225L177.661 361.17C179.788 359.939 181.045 357.197 181.054 354.613V353.84H178.083V352.697H181.054V350.377H182.372V352.697H185.29V353.84H182.354V354.613ZM184.218 357.145V355.967H186.679V350.184H187.979V364.615H186.679V357.145H184.218ZM189.825 365.424V349.797H191.143V365.424H189.825ZM205.883 349.814V361.24H204.512V349.814H205.883ZM193.35 354.736C193.341 352.486 195.108 350.913 197.446 350.904C199.783 350.913 201.533 352.486 201.541 354.736C201.533 357.013 199.783 358.595 197.446 358.586C195.108 358.595 193.341 357.013 193.35 354.736ZM194.703 354.736C194.686 356.292 195.864 357.373 197.446 357.373C199.001 357.373 200.188 356.292 200.188 354.736C200.188 353.207 199.001 352.117 197.446 352.117C195.864 352.117 194.686 353.207 194.703 354.736ZM195.793 365.09V360.08H197.164V363.93H206.375V365.09H195.793ZM222.416 357.232V358.375H208.177V357.232H222.416ZM208.986 355.193C211.711 354.877 214.339 353.532 214.4 351.748H209.478V350.605H221.15V351.748H216.193C216.255 353.515 218.856 354.877 221.625 355.193L221.115 356.301C218.557 355.976 216.158 354.824 215.297 353.093C214.435 354.824 212.053 355.976 209.478 356.301L208.986 355.193ZM209.9 362.576C209.891 360.783 211.922 359.746 215.297 359.746C218.645 359.746 220.658 360.783 220.675 362.576C220.658 364.387 218.645 365.389 215.297 365.389C211.922 365.389 209.891 364.387 209.9 362.576ZM211.306 362.576C211.289 363.666 212.792 364.29 215.297 364.281C217.775 364.29 219.278 363.666 219.287 362.576C219.278 361.478 217.775 360.854 215.297 360.836C212.792 360.854 211.289 361.478 211.306 362.576ZM241.84 362.33V363.49H227.532V362.33H233.965V359.377H229.325V354.561H238.676V352.1H229.289V350.957H240.03V355.686H230.696V358.234H240.399V359.377H235.319V362.33H241.84ZM255.051 351.467V353.031C255.051 355 255.051 357.224 254.47 360.625L253.064 360.484C253.697 357.285 253.697 354.947 253.697 353.031V352.609H244.275V351.467H255.051ZM242.728 363.121V361.979H256.967V363.121H242.728ZM270.827 349.814V361.24H269.456V349.814H270.827ZM258.294 354.736C258.285 352.486 260.052 350.913 262.39 350.904C264.728 350.913 266.477 352.486 266.485 354.736C266.477 357.013 264.728 358.595 262.39 358.586C260.052 358.595 258.285 357.013 258.294 354.736ZM259.648 354.736C259.63 356.292 260.808 357.373 262.39 357.373C263.945 357.373 265.132 356.292 265.132 354.736C265.132 353.207 263.945 352.117 262.39 352.117C260.808 352.117 259.63 353.207 259.648 354.736ZM260.737 365.09V360.08H262.108V363.93H271.319V365.09H260.737ZM287.36 358.041V359.166H273.122V358.041H287.36ZM274.704 353.453C274.704 351.493 276.848 350.342 280.241 350.359C283.598 350.342 285.751 351.493 285.76 353.453C285.751 355.396 283.598 356.564 280.241 356.564C276.848 356.564 274.704 355.396 274.704 353.453ZM274.967 365.09V360.537H276.356V363.93H285.778V365.09H274.967ZM276.127 353.453C276.119 354.692 277.718 355.439 280.241 355.439C282.746 355.439 284.345 354.692 284.354 353.453C284.345 352.231 282.746 351.467 280.241 351.467C277.718 351.467 276.119 352.231 276.127 353.453ZM113.029 379.1C113.038 381.78 116.096 384.162 118.812 384.672L118.179 385.832C115.815 385.287 113.336 383.608 112.326 381.314C111.306 383.608 108.836 385.278 106.472 385.832L105.839 384.672C108.546 384.153 111.579 381.789 111.587 379.1V377.904H113.029V379.1ZM105.242 390.297V389.154H119.55V390.297H105.242ZM128.296 378.379V388.451H121.089V378.379H128.296ZM122.425 387.326H126.925V379.486H122.425V387.326ZM131.161 392.424V376.797H132.532V383.037H135.151V384.232H132.532V392.424H131.161ZM148.291 385.252V386.377H137.481V378.15H148.115V379.311H138.887V381.631H147.781V382.738H138.887V385.252H148.291ZM135.635 390.385V389.242H149.944V390.385H135.635ZM163.716 377.518V378.66H161.308V382.246H163.664V383.354H158.636V385.27H165.07V386.395H150.832V385.27H157.265V383.354H152.22V382.246H154.576V378.66H152.167V377.518H163.716ZM152.677 392.09V387.766H154.066V390.93H163.488V392.09H152.677ZM155.947 382.246H159.937V378.66H155.947V382.246ZM183.141 376.797V384.883H181.752V380.822H178.272V379.68H181.752V376.797H183.141ZM170.168 383.811C172.524 383.028 174.141 381.068 174.158 378.783V377.307H175.512V378.783C175.494 380.831 177.112 382.712 179.397 383.459L178.658 384.531C176.927 383.916 175.547 382.686 174.853 381.104C174.185 382.888 172.77 384.25 170.924 384.918L170.168 383.811ZM173.016 386.781V385.674H183.141V389.4H174.405V391.105H183.721V392.213H173.051V388.346H181.77V386.781H173.016ZM198.337 376.797V386.113H196.949V382.018H193.802V380.875H196.949V376.797H198.337ZM185.453 384.865C187.773 384.03 189.425 381.912 189.425 379.68V379.1H185.892V377.939H194.312V379.1H190.814V379.662C190.814 381.701 192.379 383.644 194.664 384.426L193.943 385.533C192.194 384.9 190.832 383.582 190.155 381.974C189.487 383.802 188.037 385.261 186.173 385.973L185.453 384.865ZM187.914 389.506C187.905 387.669 189.9 386.597 193.152 386.605C196.395 386.597 198.39 387.669 198.39 389.506C198.39 391.352 196.395 392.406 193.152 392.424C189.9 392.406 187.905 391.352 187.914 389.506ZM189.285 389.506C189.276 390.64 190.753 391.325 193.152 391.316C195.543 391.325 197.019 390.64 197.019 389.506C197.019 388.363 195.543 387.678 193.152 387.678C190.753 387.678 189.276 388.363 189.285 389.506ZM213.974 376.797V392.424H212.638V376.797H213.974ZM200.772 383.547C200.781 380.225 202.1 378.124 204.13 378.115C206.028 378.124 207.311 379.952 207.487 382.896H209.509V377.131H210.827V391.633H209.509V384.039H207.496C207.364 387.08 206.055 388.987 204.13 388.979C202.1 388.987 200.781 386.869 200.772 383.547ZM202.073 383.547C202.056 386.078 202.864 387.678 204.13 387.66C205.404 387.678 206.213 386.078 206.204 383.547C206.213 381.007 205.404 379.416 204.13 379.416C202.864 379.416 202.056 381.007 202.073 383.547ZM221.278 380.998C221.269 383.828 223.088 386.676 225.356 387.713L224.53 388.838C222.754 387.924 221.286 386.061 220.592 383.837C219.898 386.175 218.43 388.179 216.655 389.119L215.758 388.012C218.052 386.887 219.863 383.881 219.871 380.998V378.15H221.278V380.998ZM223.651 383.266V382.141H227.36V376.797H228.731V392.459H227.36V383.266H223.651ZM239.788 379.908C239.797 381.64 241.001 383.389 243.005 384.145L242.284 385.199C240.781 384.619 239.7 383.503 239.138 382.158C238.566 383.644 237.441 384.971 235.903 385.639L235.147 384.566C237.204 383.67 238.461 381.648 238.47 379.908V377.781H239.788V379.908ZM237.995 389.611C237.978 387.845 239.981 386.808 243.233 386.816C246.468 386.808 248.48 387.845 248.489 389.611C248.48 391.36 246.468 392.389 243.233 392.389C239.981 392.389 237.978 391.36 237.995 389.611ZM239.366 389.611C239.349 390.675 240.834 391.325 243.233 391.316C245.606 391.325 247.101 390.675 247.118 389.611C247.101 388.53 245.606 387.88 243.233 387.871C240.834 387.88 239.349 388.53 239.366 389.611ZM243.708 385.973V377.113H245.009V381.016H247.083V376.814H248.401V386.465H247.083V382.158H245.009V385.973H243.708ZM254.897 381.613C254.906 384.127 256.18 386.702 258.307 387.836L257.516 388.873C255.96 388.021 254.835 386.403 254.264 384.522C253.71 386.526 252.594 388.284 251.03 389.225L250.204 388.17C252.33 386.939 253.587 384.197 253.596 381.613V380.84H250.625V379.697H253.596V377.377H254.914V379.697H257.832V380.84H254.897V381.613ZM256.76 384.145V382.967H259.221V377.184H260.522V391.615H259.221V384.145H256.76ZM262.368 392.424V376.797H263.686V392.424H262.368ZM278.426 376.814V388.24H277.054V376.814H278.426ZM265.892 381.736C265.884 379.486 267.65 377.913 269.988 377.904C272.326 377.913 274.075 379.486 274.084 381.736C274.075 384.013 272.326 385.595 269.988 385.586C267.65 385.595 265.884 384.013 265.892 381.736ZM267.246 381.736C267.228 383.292 268.406 384.373 269.988 384.373C271.544 384.373 272.73 383.292 272.73 381.736C272.73 380.207 271.544 379.117 269.988 379.117C268.406 379.117 267.228 380.207 267.246 381.736ZM268.336 392.09V387.08H269.707V390.93H278.918V392.09H268.336ZM294.958 384.232V385.375H280.72V384.232H294.958ZM281.528 382.193C284.253 381.877 286.881 380.532 286.943 378.748H282.021V377.605H293.693V378.748H288.735C288.797 380.515 291.399 381.877 294.167 382.193L293.657 383.301C291.1 382.976 288.7 381.824 287.839 380.093C286.978 381.824 284.596 382.976 282.021 383.301L281.528 382.193ZM282.443 389.576C282.434 387.783 284.464 386.746 287.839 386.746C291.188 386.746 293.2 387.783 293.218 389.576C293.2 391.387 291.188 392.389 287.839 392.389C284.464 392.389 282.434 391.387 282.443 389.576ZM283.849 389.576C283.831 390.666 285.334 391.29 287.839 391.281C290.318 391.29 291.82 390.666 291.829 389.576C291.82 388.478 290.318 387.854 287.839 387.836C285.334 387.854 283.831 388.478 283.849 389.576ZM303.036 377.078C306.507 377.078 308.546 378.036 308.555 379.768C308.546 381.543 306.507 382.501 303.036 382.51C299.546 382.501 297.499 381.543 297.499 379.768C297.499 378.036 299.546 377.078 303.036 377.078ZM295.916 384.689V383.564H310.155V384.689H295.916ZM297.639 387.098V386.043H308.327V389.541H299.045V391.158H308.801V392.248H297.674V388.521H306.973V387.098H297.639ZM298.94 379.768C298.922 380.857 300.443 381.455 303.036 381.455C305.628 381.455 307.14 380.857 307.149 379.768C307.14 378.739 305.628 378.124 303.036 378.115C300.443 378.124 298.922 378.739 298.94 379.768ZM323.181 378.168V381.174H326.837V376.814H328.226V388.223H326.837V382.299H323.181V385.41H316.009V378.168H323.181ZM317.38 384.303H321.827V379.311H317.38V384.303ZM318.189 392.09V387.168H319.577V390.93H328.665V392.09H318.189ZM343.422 376.797V392.459H342.034V383.635H338.606V382.492H342.034V376.797H343.422ZM330.327 388.258C332.594 387.159 334.484 384.215 334.493 381.438V379.557H330.924V378.414H339.467V379.557H335.881V381.438C335.89 384.039 337.753 386.869 340.03 387.906L339.204 389.014C337.419 388.135 335.917 386.245 335.205 384.065C334.502 386.386 332.955 388.398 331.17 389.33L330.327 388.258ZM130.51 411.232V412.393H116.254V411.232H130.51ZM117.977 416.576C117.968 414.783 119.998 413.764 123.373 413.764C126.722 413.764 128.735 414.783 128.752 416.576C128.735 418.387 126.722 419.389 123.373 419.389C119.998 419.389 117.968 418.387 117.977 416.576ZM118.065 409.738V404.43H128.735V405.59H119.418V408.613H128.84V409.738H118.065ZM119.383 416.576C119.366 417.675 120.869 418.299 123.373 418.299C125.852 418.299 127.355 417.675 127.364 416.576C127.355 415.486 125.852 414.854 123.373 414.836C120.869 414.854 119.366 415.486 119.383 416.576ZM145.742 412.41V413.553H131.433V412.41H137.902V410.758H133.297V406.943H142.508V405.326H133.244V404.201H143.896V407.98H134.668V409.65H144.23V410.758H139.256V412.41H145.742ZM133.033 415.873V414.748H143.984V419.283H142.596V415.873H133.033ZM158.864 403.814V408.965H161.22V410.125H158.864V415.521H157.493V403.814H158.864ZM146.683 406.855V405.73H150.655V403.814H152.027V405.73H155.999V406.855H146.683ZM147.579 410.635C147.57 408.859 149.082 407.717 151.341 407.717C153.573 407.717 155.085 408.859 155.103 410.635C155.085 412.393 153.573 413.526 151.341 413.518C149.082 413.526 147.57 412.393 147.579 410.635ZM148.898 410.635C148.889 411.733 149.864 412.445 151.341 412.428C152.8 412.445 153.784 411.733 153.802 410.635C153.784 409.519 152.8 408.798 151.341 408.807C149.864 408.798 148.889 409.519 148.898 410.635ZM149.091 419.09V414.59H150.444V417.93H159.585V419.09H149.091ZM179.414 405.59V406.732H166.74V405.59H172.435V403.709H173.789V405.59H179.414ZM166.002 415.064V413.922H180.31V415.064H173.789V419.459H172.435V415.064H166.002ZM168.023 410.248C168.006 408.561 169.922 407.629 173.121 407.629C176.294 407.629 178.21 408.561 178.219 410.248C178.21 411.9 176.294 412.832 173.121 412.85C169.922 412.832 168.006 411.9 168.023 410.248ZM169.447 410.248C169.43 411.215 170.792 411.786 173.121 411.777C175.424 411.786 176.777 411.215 176.795 410.248C176.777 409.264 175.424 408.692 173.121 408.684C170.792 408.692 169.43 409.264 169.447 410.248ZM194.593 403.797V419.424H193.257V403.797H194.593ZM181.392 410.547C181.401 407.225 182.719 405.124 184.749 405.115C186.648 405.124 187.931 406.952 188.107 409.896H190.128V404.131H191.447V418.633H190.128V411.039H188.115C187.984 414.08 186.674 415.987 184.749 415.979C182.719 415.987 181.401 413.869 181.392 410.547ZM182.693 410.547C182.675 413.078 183.484 414.678 184.749 414.66C186.024 414.678 186.832 413.078 186.823 410.547C186.832 408.007 186.024 406.416 184.749 406.416C183.484 406.416 182.675 408.007 182.693 410.547ZM205.791 407.998C205.791 410.749 207.61 413.588 209.834 414.678L208.99 415.785C207.268 414.889 205.826 413.034 205.132 410.863C204.437 413.166 202.961 415.144 201.203 416.084L200.324 414.977C202.609 413.852 204.42 410.854 204.437 407.998V405.15H205.791V407.998ZM211.275 419.424V403.797H212.646V410.143H215.266V411.338H212.646V419.424H211.275ZM229.988 411.531V412.674H215.749V411.531H219.283V409.325C218.034 408.842 217.331 408.051 217.331 406.996C217.331 405.159 219.441 404.104 222.868 404.096C226.27 404.104 228.379 405.159 228.388 406.996C228.379 408.042 227.685 408.833 226.454 409.325V411.531H229.988ZM217.472 416.629C217.463 414.845 219.476 413.86 222.868 413.869C226.217 413.86 228.23 414.845 228.247 416.629C228.23 418.413 226.217 419.389 222.868 419.389C219.476 419.389 217.463 418.413 217.472 416.629ZM218.755 406.996C218.746 408.139 220.311 408.798 222.868 408.807C225.4 408.798 226.973 408.139 226.982 406.996C226.973 405.871 225.4 405.186 222.868 405.186C220.311 405.186 218.746 405.871 218.755 406.996ZM218.878 416.629C218.861 417.692 220.364 418.325 222.868 418.316C225.347 418.325 226.85 417.692 226.859 416.629C226.85 415.565 225.347 414.941 222.868 414.924C220.364 414.941 218.861 415.565 218.878 416.629ZM220.654 411.531H225.083V409.694C224.424 409.817 223.686 409.879 222.868 409.879C222.051 409.879 221.313 409.817 220.654 409.703V411.531ZM243.163 403.744V407.541H245.536V408.684H243.163V412.393H241.792V403.744H243.163ZM230.981 406.328V405.221H234.954V403.639H236.325V405.221H240.298V406.328H230.981ZM231.878 409.598C231.869 408.016 233.363 407.04 235.639 407.031C237.907 407.04 239.383 408.016 239.401 409.598C239.383 411.188 237.907 412.155 235.639 412.164C233.363 412.155 231.869 411.188 231.878 409.598ZM233.196 414.238V413.201H243.163V416.664H234.585V418.193H243.743V419.248H233.231V415.645H241.792V414.238H233.196ZM233.196 409.598C233.187 410.538 234.154 411.127 235.639 411.127C237.116 411.127 238.083 410.538 238.1 409.598C238.083 408.666 237.116 408.06 235.639 408.051C234.154 408.06 233.187 408.666 233.196 409.598ZM258.14 405.256C258.149 407.462 261.014 409.36 263.835 409.756L263.273 410.881C260.847 410.477 258.439 409.132 257.437 407.216C256.435 409.149 254.036 410.477 251.601 410.881L251.038 409.756C253.86 409.36 256.716 407.497 256.716 405.256V404.359H258.14V405.256ZM250.3 413.764V412.604H264.538V413.764H258.07V419.424H256.716V413.764H250.3ZM274.945 414.291C274.937 415.671 275.684 417.139 277.169 417.982C278.663 417.06 279.454 415.495 279.445 414.291V413.43H280.799V414.291C280.79 415.899 281.977 417.499 283.981 418.193L283.295 419.213C281.731 418.659 280.641 417.569 280.096 416.26C279.612 417.525 278.654 418.729 277.213 419.336C275.693 418.756 274.726 417.613 274.26 416.304C273.697 417.561 272.625 418.65 271.131 419.213L270.428 418.193C272.405 417.455 273.592 415.785 273.609 414.291V413.43H274.945V414.291ZM270.024 408.385C270.015 406.205 271.746 404.72 274.119 404.729C276.492 404.72 278.206 406.205 278.215 408.385C278.206 410.529 276.492 412.006 274.119 412.006C271.746 412.006 270.015 410.529 270.024 408.385ZM271.377 408.385C271.359 409.835 272.511 410.854 274.119 410.863C275.71 410.854 276.861 409.835 276.861 408.385C276.861 406.926 275.71 405.889 274.119 405.906C272.511 405.889 271.359 406.926 271.377 408.385ZM281.186 412.744V403.814H282.557V412.744H281.186ZM288.033 413.184V415.012H295.837V413.184H297.226V419.213H286.662V413.184H288.033ZM284.851 412.076V410.934H299.089V412.076H284.851ZM285.66 408.719C288.446 408.341 291.267 406.697 291.267 404.711V403.973H292.691V404.711C292.682 406.636 295.53 408.367 298.281 408.719L297.771 409.826C295.354 409.466 292.972 408.235 291.979 406.486C290.986 408.244 288.595 409.466 286.187 409.826L285.66 408.719ZM288.033 418.105H295.837V416.102H288.033V418.105ZM312.932 403.797V419.424H311.561V403.797H312.932ZM301.067 415.398V405.344H302.421V414.203C304.811 414.186 307.272 414.001 309.891 413.447L310.085 414.625C307.307 415.205 304.838 415.398 302.333 415.398H301.067ZM327.338 403.797V409.984H329.957V411.145H327.338V419.459H325.967V403.797H327.338ZM315.93 415.539V405.326H323.225V406.469H317.301V414.379C320.131 414.37 322.126 414.247 324.455 413.816L324.631 415.012C322.179 415.451 320.131 415.539 317.16 415.539H315.93ZM332.093 418.105C331.478 418.097 330.951 417.587 330.968 416.963C330.951 416.348 331.478 415.838 332.093 415.838C332.717 415.838 333.227 416.348 333.218 416.963C333.227 417.587 332.717 418.097 332.093 418.105Z" fill="#222222"/>
<rect x="20" y="654" width="160" height="56" rx="8" fill="#EEEEEE"/>
<path d="M72.3379 680.035V681.559H69.623V690.641H67.7676V673.16H69.623V680.035H72.3379ZM56.6543 686.246V674.859H58.4902V684.703C60.9316 684.693 63.4805 684.488 66.2637 683.922L66.4785 685.484C63.4805 686.08 60.7266 686.256 58.0996 686.246H56.6543ZM88.8324 681.266V682.77H81.7621V684.449C84.9652 684.625 86.8695 685.699 86.8793 687.535C86.8695 689.518 84.6039 690.631 80.8441 690.621C77.0355 690.631 74.7699 689.518 74.7699 687.535C74.7699 685.699 76.6742 684.615 79.9262 684.449V682.77H72.8754V681.266H88.8324ZM73.7152 678.883C76.8598 678.561 79.3402 677.135 79.5941 675.445H74.3402V673.961H87.4066V675.445H82.0941C82.348 677.145 84.809 678.561 88.0121 678.883L87.348 680.348C84.3109 679.996 81.8012 678.717 80.8539 676.861C79.8871 678.717 77.3969 679.996 74.3598 680.348L73.7152 678.883ZM76.6449 687.535C76.6352 688.6 78.1684 689.215 80.8441 689.195C83.4809 689.215 85.0238 688.6 85.0238 687.535C85.0238 686.451 83.4809 685.865 80.8441 685.855C78.1684 685.865 76.6352 686.451 76.6449 687.535ZM104.819 673.16V690.66H103.042V673.16H104.819ZM89.9559 680.719C89.9559 676.93 91.4402 674.557 93.7254 674.566C95.8543 674.557 97.2898 676.578 97.5047 679.859H99.4871V673.492H101.264V689.801H99.4871V681.363H97.5145C97.3484 684.781 95.8934 686.9 93.7254 686.891C91.4402 686.9 89.9559 684.518 89.9559 680.719ZM91.6746 680.719C91.6746 683.502 92.4656 685.143 93.7254 685.133C95.0145 685.143 95.8152 683.502 95.8152 680.719C95.8152 677.926 95.0145 676.295 93.7254 676.305C92.4656 676.295 91.6746 677.926 91.6746 680.719ZM124.761 673.16V680.25H127.574V681.793H124.761V690.66H122.925V673.16H124.761ZM111.031 677.418V675.895H115.347V673.395H117.203V675.895H121.402V677.418H111.031ZM111.929 682.77C111.929 680.387 113.765 678.707 116.285 678.707C118.795 678.707 120.63 680.387 120.64 682.77C120.63 685.172 118.795 686.842 116.285 686.852C113.765 686.842 111.929 685.172 111.929 682.77ZM113.707 682.77C113.697 684.293 114.791 685.309 116.285 685.289C117.769 685.309 118.853 684.293 118.863 682.77C118.853 681.275 117.769 680.24 116.285 680.23C114.791 680.24 113.697 681.275 113.707 682.77ZM142.564 673.16V690.66H140.689V673.16H142.564ZM128.189 685.973C132.838 683.756 135.113 680.602 135.475 676.52H129.029V675.035H137.35C137.35 680.162 135.172 684.596 129.166 687.477L128.189 685.973Z" fill="#323C59"/>
<rect x="190" y="654" width="240" height="56" rx="8" fill="#323C59"/>
<path d="M282.748 677.613C282.729 680.709 284.536 683.883 287.143 685.152L285.991 686.637C284.086 685.641 282.612 683.688 281.84 681.354C281.059 683.834 279.526 685.934 277.534 686.969L276.381 685.465C279.067 684.176 280.883 680.816 280.893 677.613V674.625H282.748V677.613ZM288.452 690.66V673.16H290.307V680.133H293.12V681.715H290.307V690.66H288.452ZM309.516 681.695V683.199H293.559V681.695H297.387V679.342C296.03 678.795 295.268 677.916 295.278 676.754C295.268 674.674 297.68 673.463 301.528 673.473C305.366 673.463 307.768 674.674 307.778 676.754C307.768 677.916 307.007 678.795 305.649 679.352V681.695H309.516ZM295.454 687.496C295.454 685.494 297.72 684.391 301.528 684.391C305.288 684.391 307.554 685.494 307.563 687.496C307.554 689.518 305.288 690.621 301.528 690.621C297.72 690.621 295.454 689.518 295.454 687.496ZM297.192 676.754C297.182 677.926 298.804 678.58 301.528 678.59C304.233 678.58 305.874 677.926 305.864 676.754C305.874 675.582 304.233 674.908 301.528 674.898C298.804 674.908 297.182 675.582 297.192 676.754ZM297.329 687.496C297.319 688.59 298.852 689.215 301.528 689.195C304.165 689.215 305.708 688.59 305.708 687.496C305.708 686.422 304.165 685.816 301.528 685.816C298.852 685.816 297.319 686.422 297.329 687.496ZM299.262 681.695H303.813V679.83C303.13 679.938 302.358 679.996 301.528 679.996C300.708 679.996 299.946 679.938 299.262 679.84V681.695ZM324.077 673.16V680.25H326.89V681.793H324.077V690.66H322.241V673.16H324.077ZM310.347 677.418V675.895H314.663V673.395H316.519V675.895H320.718V677.418H310.347ZM311.245 682.77C311.245 680.387 313.081 678.707 315.601 678.707C318.111 678.707 319.946 680.387 319.956 682.77C319.946 685.172 318.111 686.842 315.601 686.852C313.081 686.842 311.245 685.172 311.245 682.77ZM313.023 682.77C313.013 684.293 314.107 685.309 315.601 685.289C317.085 685.309 318.169 684.293 318.179 682.77C318.169 681.275 317.085 680.24 315.601 680.23C314.107 680.24 313.013 681.275 313.023 682.77ZM341.88 673.16V690.66H340.005V673.16H341.88ZM327.505 685.973C332.154 683.756 334.429 680.602 334.791 676.52H328.345V675.035H336.666C336.666 680.162 334.488 684.596 328.482 687.477L327.505 685.973Z" fill="white"/>
<defs>
<clipPath id="clip0_263_2253">
<rect width="60" height="60" fill="white" transform="translate(195 158)"/>
</clipPath>
</defs>
</svg>
