<svg width="450" height="851" viewBox="0 0 450 851" fill="none" xmlns="http://www.w3.org/2000/svg">
<rect width="450" height="851" fill="white"/>
<g clip-path="url(#clip0_263_543)">
<path d="M34.3254 20H20.3748C20.1678 20 20 20.1682 20 20.3758V39.6242C20 39.8318 20.1678 40 20.3748 40H34.3254C34.5324 40 34.7002 39.8318 34.7002 39.6242V20.3758C34.7002 20.1682 34.5324 20 34.3254 20Z" fill="#FF3A4A"/>
<path d="M83.7063 20H69.7557C69.5487 20 69.3809 20.1682 69.3809 20.3758V39.6242C69.3809 39.8318 69.5487 40 69.7557 40H83.7063C83.9133 40 84.0811 39.8318 84.0811 39.6242V20.3758C84.0811 20.1682 83.9133 20 83.7063 20Z" fill="#FF3A4A"/>
<path d="M67.2473 20H53.2967C53.0897 20 52.9219 20.1682 52.9219 20.3758V39.6242C52.9219 39.8318 53.0897 40 53.2967 40H67.2473C67.4543 40 67.6221 39.8318 67.6221 39.6242V20.3758C67.6221 20.1682 67.4543 20 67.2473 20Z" fill="#FF3A4A"/>
<path d="M50.7864 20H36.8358C36.6287 20 36.4609 20.1682 36.4609 20.3758V39.6242C36.4609 39.8318 36.6287 40 36.8358 40H50.7864C50.9934 40 51.1612 39.8318 51.1612 39.6242V20.3758C51.1612 20.1682 50.9934 20 50.7864 20Z" fill="#FF3A4A"/>
<path d="M60.2141 22.5611C59.2109 22.5462 58.1944 22.8237 57.4104 23.4561C56.6493 24.0988 56.2825 25.1285 56.353 26.111C56.2591 26.9369 56.3849 27.7967 56.8264 28.5108C57.4103 29.5933 58.5689 30.1415 59.4646 30.9206C60.2381 31.5202 61.1773 32.0587 61.5586 33.0098C61.6957 33.6387 61.7622 34.4193 61.3042 34.9351C60.7553 35.5017 59.7502 35.478 59.1583 34.9954C58.9861 34.8513 58.7665 34.5951 58.7665 34.3024C58.7665 33.697 58.7638 32.9769 58.7638 32.9769H56.333C56.333 34.3457 56.2722 34.9698 56.8184 35.8056C57.4013 36.8186 58.5671 37.3712 59.7062 37.4334C60.21 37.4657 60.7246 37.4919 61.2173 37.3603C62.2661 37.1853 63.2003 36.5153 63.7265 35.5946C64.1932 34.6801 64.0868 33.6183 63.9792 32.6351C63.7572 31.5525 62.9522 30.7201 62.0834 30.0996C61.1263 29.3213 60.036 28.6881 59.2081 27.7622C58.6794 27.2309 58.7741 26.4643 58.7865 25.7838C58.7954 25.07 59.468 24.681 60.1797 24.663C60.8915 24.6452 61.6493 25.1559 61.6493 26.0156V27.0904H64.0711C64.0711 25.9584 64.0906 25.5307 63.8795 24.7876C63.4644 23.6455 62.3649 22.8931 61.204 22.6713C60.8816 22.6036 60.5486 22.5662 60.2142 22.5612L60.2141 22.5611ZM76.6656 22.5611C75.6622 22.5462 74.6456 22.8237 73.8617 23.4561C73.1005 24.0988 72.7338 25.1285 72.8043 26.111C72.7104 26.9369 72.8361 27.7967 73.2777 28.5108C73.8616 29.5933 75.0201 30.1415 75.9158 30.9206C76.6894 31.5202 77.6287 32.0587 78.01 33.0098C78.1472 33.6387 78.2135 34.4193 77.7556 34.9351C77.2066 35.5017 76.2015 35.478 75.6095 34.9954C75.4374 34.8513 75.2178 34.5951 75.2178 34.3024C75.2178 33.697 75.2151 32.9769 75.2151 32.9769H72.7842C72.7842 34.3457 72.7234 34.9698 73.2696 35.8056C73.8526 36.8186 75.0184 37.3712 76.1575 37.4334C76.6613 37.4657 77.1758 37.4919 77.6685 37.3603C78.7174 37.1853 79.6517 36.5153 80.1778 35.5946C80.6445 34.6801 80.5381 33.6183 80.4306 32.6351C80.2085 31.5525 79.4035 30.7201 78.5346 30.0996C77.5775 29.3213 76.4873 28.6881 75.6594 27.7622C75.1308 27.2309 75.2253 26.4643 75.2378 25.7838C75.2465 25.07 75.9192 24.681 76.631 24.663C77.3427 24.6452 78.1006 25.1559 78.1006 26.0156V27.0904H80.5224C80.5224 25.9584 80.542 25.5307 80.3308 24.7876C79.9156 23.6455 78.8162 22.8931 77.6553 22.6713C77.3329 22.6036 77 22.5661 76.6656 22.5611ZM27.2079 22.7225C26.9321 22.7237 26.6463 22.729 26.3476 22.729C25.1528 22.729 24.6146 22.7417 23.748 22.729V37.2116H26.0453V32.848C27.3295 32.8146 28.7368 33.0269 29.8755 32.2831C30.7953 31.7409 31.2947 30.6383 31.1872 29.5854C31.1644 28.1003 31.2184 26.6094 31.1583 25.1274C30.9499 24.2052 30.3881 23.419 29.4957 23.0822C28.772 22.7527 28.0351 22.7189 27.2079 22.7225ZM42.0753 22.7656L39.6475 37.2722H41.9311L42.3327 34.7268H45.3178L45.7081 37.2116H48.0319L45.6055 22.7655L42.0753 22.7656ZM26.0453 24.9307H27.8834C28.7743 24.9307 29.0035 25.6136 29.0035 26.1178V29.5753C29.0035 30.1513 28.4661 30.545 27.9482 30.545H26.0453V24.9307ZM43.8365 25.3631L45.0294 32.545H42.6703L43.8365 25.3631Z" fill="white"/>
</g>
<path d="M32.2188 71.2656V85.4062H30.4688V71.2656H32.2188ZM20.9219 77.2812C20.9141 74.2344 22.4688 72.2969 24.6094 72.2969C26.7266 72.2969 28.2891 74.2344 28.2969 77.2812C28.2891 80.3516 26.7266 82.2812 24.6094 82.2812C22.4688 82.2812 20.9141 80.3516 20.9219 77.2812ZM22.5938 77.2812C22.5938 79.4531 23.4141 80.7109 24.6094 80.7188C25.7969 80.7109 26.6094 79.4531 26.6094 77.2812C26.6094 75.125 25.7969 73.8594 24.6094 73.8594C23.4141 73.8594 22.5938 75.125 22.5938 77.2812ZM46.8675 78.4531V79.8281H33.9613V78.4531H46.8675ZM35.555 72.9219V71.5625H45.2738V75.1875H37.3206V76.2031H45.555V77.5312H35.6019V73.9219H43.5394V72.9219H35.555ZM35.6488 85.2188V80.8438H45.3206V85.2188H35.6488ZM37.3519 83.8125H43.6019V82.2188H37.3519V83.8125Z" fill="#222222"/>
<mask id="path-7-inside-1_263_543" fill="white">
<path d="M20 106H430V141H20V106Z"/>
</mask>
<path d="M430 140H20V142H430V140Z" fill="#777777" mask="url(#path-7-inside-1_263_543)"/>
<path d="M27.3975 118.014C27.3975 121.302 24.9805 123.646 21.1426 124.664L20.6738 123.756C23.8892 122.906 25.9253 121.178 26.1743 118.951H21.3623V118.014H27.3975ZM22.8125 130.011V125.162H31.2793V130.011H22.8125ZM23.9404 129.073H30.1514V126.085H23.9404V129.073ZM30.1367 124.532V117.179H31.2793V124.532H30.1367ZM34.7732 118.409V121.588H37.6004V118.409H38.6697V126.935H33.6746V118.409H34.7732ZM34.7732 125.982H37.6004V122.525H34.7732V125.982ZM40.325 129.527V117.442H41.4236V122.335H43.24V117.164H44.3533V130.187H43.24V123.287H41.4236V129.527H40.325ZM51.7877 117.413C54.6222 117.42 56.38 118.321 56.3873 119.874C56.38 121.397 54.6222 122.298 51.7877 122.291C48.9532 122.298 47.1734 121.397 47.1734 119.874C47.1734 118.321 48.9532 117.42 51.7877 117.413ZM45.8551 124.239V123.287H57.7203V124.239H52.3443V125.733H56.2701V130.011H47.3053V125.733H51.2164V124.239H45.8551ZM48.36 119.874C48.3526 120.826 49.6783 121.383 51.7877 121.383C53.8751 121.383 55.2081 120.826 55.2154 119.874C55.2081 118.9 53.8751 118.321 51.7877 118.321C49.6783 118.321 48.3526 118.9 48.36 119.874ZM48.4479 129.073H55.1422V126.656H48.4479V129.073Z" fill="#222222"/>
<path d="M33.3438 174.141V175.547H27.7344V180.375H26.0156V175.547H20.4688V174.141H33.3438ZM21.1406 171.828C23.9141 171.477 25.7734 169.984 25.8984 168.438H21.6562V167.062H32.1562V168.438H27.9141C28.0312 169.984 29.875 171.477 32.6719 171.828L32.0469 173.188C29.6406 172.844 27.7656 171.742 26.9062 170.219C26.0391 171.742 24.1797 172.844 21.7969 173.188L21.1406 171.828ZM41.5081 167.438V174.156H34.6956V167.438H41.5081ZM36.3988 180.016V175.406H38.1488V178.609H46.1331V180.016H36.3988ZM36.4144 172.766H39.7894V168.828H36.4144V172.766ZM43.9925 176.359V166.281H45.7425V176.359H43.9925ZM60.3756 172.812V174.234H47.485V172.812H60.3756ZM48.985 177.781C48.985 176.141 50.8366 175.211 53.9069 175.219C56.9538 175.211 58.7897 176.141 58.7975 177.781C58.7897 179.445 56.9538 180.375 53.9069 180.375C50.8366 180.375 48.985 179.445 48.985 177.781ZM49.0631 171.703V166.719H58.8131V168.125H50.7975V170.312H58.8913V171.703H49.0631ZM50.7506 177.781C50.7428 178.617 51.8522 179.031 53.9069 179.031C55.9303 179.031 57.0475 178.617 57.0631 177.781C57.0475 176.984 55.9303 176.547 53.9069 176.547C51.8522 176.547 50.7428 176.984 50.7506 177.781ZM73.8838 173.906V175.312H60.9775V173.906H66.5713V172.734H62.6181V168.984H70.5556V167.938H62.5713V166.578H72.29V170.25H64.3369V171.375H72.5713V172.734H68.29V173.906H73.8838ZM62.415 177.578V176.203H72.3681V180.297H70.6181V177.578H62.415ZM86.3294 166.281V176.703H84.595V171.5H81.7513V174.406H75.1419V167.203H76.8763V169.484H80.0325V167.203H81.7513V170.094H84.595V166.281H86.3294ZM76.8763 173.031H80.0325V170.828H76.8763V173.031ZM77.0169 180.109V175.672H78.7825V178.703H86.6419V180.109H77.0169ZM100.259 168.156V169.562H88.5875V168.156H93.5719V166.453H95.2906V168.156H100.259ZM88.0094 178.875V177.469H93.5719V175.734C91.1344 175.547 89.6578 174.562 89.6656 173C89.6578 171.297 91.4859 170.281 94.4313 170.281C97.3375 170.281 99.1891 171.297 99.1813 173C99.1891 174.555 97.6969 175.539 95.2906 175.734V177.469H100.916V178.875H88.0094ZM91.4469 173C91.4391 173.906 92.5094 174.367 94.4313 174.375C96.3141 174.367 97.4 173.906 97.4 173C97.4 172.109 96.3141 171.648 94.4313 171.641C92.5094 171.648 91.4391 172.109 91.4469 173Z" fill="#222222"/>
<rect x="20.5" y="201.5" width="185.5" height="34" stroke="#777777"/>
<path d="M37.625 224.676C35.4189 224.649 32.9844 223.34 32.9844 218.629C32.9844 214.12 34.8301 211.598 37.8184 211.598C40.0596 211.598 41.624 212.978 41.9492 214.973H40.3848C40.0947 213.848 39.2334 213.004 37.8184 213.004C35.7266 213.004 34.4697 214.788 34.4785 217.855H34.6367C35.3662 216.792 36.5352 216.168 37.9062 216.168C40.165 216.168 42.0547 217.926 42.0547 220.387C42.0547 222.786 40.3057 224.702 37.625 224.676ZM34.6895 220.422C34.6982 221.916 35.9199 223.278 37.625 223.287C39.2686 223.278 40.5166 221.986 40.5254 220.404C40.5166 218.84 39.3213 217.565 37.6602 217.557C35.9902 217.565 34.707 218.919 34.6895 220.422Z" fill="#222222"/>
<path d="M57.5898 224.676C55.0586 224.676 53.2393 223.322 53.1602 221.301H54.7598C54.8477 222.514 56.0518 223.27 57.5723 223.27C59.251 223.27 60.4639 222.364 60.4727 221.037C60.4639 219.648 59.3564 218.673 57.3789 218.664H56.3418V217.275H57.3789C58.9258 217.275 60.0068 216.405 59.998 215.096C60.0068 213.821 59.0752 212.978 57.625 212.969C56.2627 212.978 55.0234 213.725 54.9531 214.973H53.4238C53.5029 212.951 55.3838 211.598 57.6426 211.598C60.0684 211.598 61.5449 213.188 61.5273 215.008C61.5449 216.458 60.7012 217.513 59.3652 217.891V217.979C61.0264 218.233 62.0283 219.42 62.0195 221.037C62.0283 223.129 60.1299 224.676 57.5898 224.676Z" fill="#222222"/>
<path d="M77.3613 224.676C74.54 224.676 72.9053 222.303 72.9141 218.137C72.9053 214.006 74.5576 211.598 77.3613 211.598C80.1562 211.598 81.8086 214.006 81.8086 218.137C81.8086 222.303 80.1826 224.676 77.3613 224.676ZM74.4434 218.137C74.4521 221.433 75.5156 223.27 77.3613 223.27C79.1982 223.27 80.2705 221.433 80.2617 218.137C80.2705 214.841 79.1895 212.978 77.3613 212.969C75.5332 212.978 74.4521 214.841 74.4434 218.137Z" fill="#222222"/>
<path d="M92.5996 224.5L98.4355 213.268V213.18H91.7031V211.773H100.07V213.25L94.252 224.5H92.5996Z" fill="#222222"/>
<path d="M114.695 211.773V224.5H113.096V213.426H113.025L109.932 215.482V213.883L113.096 211.773H114.695Z" fill="#222222"/>
<path d="M130.361 224.676C127.54 224.676 125.905 222.303 125.914 218.137C125.905 214.006 127.558 211.598 130.361 211.598C133.156 211.598 134.809 214.006 134.809 218.137C134.809 222.303 133.183 224.676 130.361 224.676ZM127.443 218.137C127.452 221.433 128.516 223.27 130.361 223.27C132.198 223.27 133.271 221.433 133.262 218.137C133.271 214.841 132.189 212.978 130.361 212.969C128.533 212.978 127.452 214.841 127.443 218.137Z" fill="#222222"/>
<path d="M227.066 218.888V220.045H222.423V218.888H227.066Z" fill="#777777"/>
<rect x="244" y="201.5" width="35" height="34" stroke="#777777"/>
<path d="M261.195 211.773V224.5H259.596V213.426H259.525L256.432 215.482V213.883L259.596 211.773H261.195Z" fill="#222222"/>
<circle cx="293.5" cy="218.5" r="4" fill="#999999"/>
<circle cx="313.5" cy="218.5" r="4" fill="#999999"/>
<circle cx="333.5" cy="218.5" r="4" fill="#999999"/>
<circle cx="353.5" cy="218.5" r="4" fill="#999999"/>
<circle cx="373.5" cy="218.5" r="4" fill="#999999"/>
<circle cx="393.5" cy="218.5" r="4" fill="#999999"/>
<path d="M32.6406 262.734V264.109H21.1094V262.734H26.0312V261.234H27.75V262.734H32.6406ZM20.4688 271.703V270.297H33.375V271.703H30.25V275.406H28.5V271.703H25.3281V275.406H23.5938V271.703H20.4688ZM22.1094 267.141C22.1094 265.602 23.9062 264.758 26.8906 264.75C29.875 264.758 31.6719 265.602 31.6719 267.141C31.6719 268.672 29.875 269.531 26.8906 269.531C23.9062 269.531 22.1094 268.672 22.1094 267.141ZM23.9219 267.141C23.9141 267.844 24.9375 268.211 26.8906 268.203C28.8359 268.211 29.8672 267.844 29.875 267.141C29.8672 266.422 28.8359 266.07 26.8906 266.062C24.9375 266.07 23.9141 266.422 23.9219 267.141ZM46.1331 261.266V275.391H44.4769V268.188H42.8831V274.672H41.2894V261.531H42.8831V266.797H44.4769V261.266H46.1331ZM34.4144 272.094V262.938H39.6956V264.344H36.1644V270.625C37.6956 270.609 38.9613 270.531 40.3988 270.266L40.5238 271.688C38.8128 272.031 37.3363 272.078 35.3675 272.094H34.4144ZM59.1725 261.828V263.234H57.235V265.938H59.0944V267.297H54.7819V268.75H60.36V270.125H47.485V268.75H53.0319V267.297H48.7194V265.938H50.5788V263.234H48.6413V261.828H59.1725ZM49.0788 275.109V271.141H50.8131V273.703H58.9069V275.109H49.0788ZM52.3131 265.938H55.485V263.234H52.3131V265.938ZM72.8213 261.281V271.703H71.0869V266.5H68.2431V269.406H61.6338V262.203H63.3681V264.484H66.5244V262.203H68.2431V265.094H71.0869V261.281H72.8213ZM63.3681 268.031H66.5244V265.828H63.3681V268.031ZM63.5088 275.109V270.672H65.2744V273.703H73.1338V275.109H63.5088ZM86.7513 263.156V264.562H75.0794V263.156H80.0638V261.453H81.7825V263.156H86.7513ZM74.5013 273.875V272.469H80.0638V270.734C77.6263 270.547 76.1497 269.562 76.1575 268C76.1497 266.297 77.9778 265.281 80.9231 265.281C83.8294 265.281 85.6809 266.297 85.6731 268C85.6809 269.555 84.1888 270.539 81.7825 270.734V272.469H87.4075V273.875H74.5013ZM77.9388 268C77.9309 268.906 79.0013 269.367 80.9231 269.375C82.8059 269.367 83.8919 268.906 83.8919 268C83.8919 267.109 82.8059 266.648 80.9231 266.641C79.0013 266.648 77.9309 267.109 77.9388 268Z" fill="#222222"/>
<mask id="path-28-inside-2_263_543" fill="white">
<path d="M20 296H430V331H20V296Z"/>
</mask>
<path d="M430 330H20V332H430V330Z" fill="#777777" mask="url(#path-28-inside-2_263_543)"/>
<path d="M25.5664 313.888V315.045H20.9229V313.888H25.5664ZM32.774 314.811V316.437H35.1471V314.811H36.2164V320.011H31.69V314.811H32.774ZM30.3863 310.738C30.379 308.958 31.7853 307.75 33.7701 307.75C35.5206 307.75 36.8463 308.739 37.0953 310.24H39.8199V307.164H40.9771V314.063H39.8199V311.192H37.1026C36.8756 312.73 35.5353 313.741 33.7701 313.741C31.7853 313.741 30.379 312.525 30.3863 310.738ZM31.485 310.738C31.485 311.932 32.4298 312.782 33.7701 312.789C35.0812 312.782 36.026 311.932 36.026 310.738C36.026 309.552 35.0812 308.717 33.7701 308.717C32.4298 308.717 31.485 309.552 31.485 310.738ZM32.774 319.103H35.1471V317.315H32.774V319.103ZM36.3922 319.234C37.9596 318.583 38.7872 317.154 38.7945 315.836V314.723H39.9371V315.836C39.9225 317.206 40.7501 318.648 42.3395 319.234L41.7389 320.113C40.5377 319.637 39.754 318.714 39.3512 317.638C38.941 318.7 38.1427 319.623 36.9928 320.113L36.3922 319.234ZM53.5824 307.164V320.216H52.4252V307.164H53.5824ZM43.3285 312.716C43.3358 309.947 44.7128 308.182 46.6537 308.175C48.5873 308.182 49.9862 309.947 49.9789 312.716C49.9862 315.492 48.5873 317.25 46.6537 317.242C44.7128 317.25 43.3358 315.492 43.3285 312.716ZM44.4418 312.716C44.4418 314.833 45.35 316.224 46.6537 316.217C47.9647 316.224 48.8656 314.833 48.8656 312.716C48.8656 310.599 47.9647 309.208 46.6537 309.2C45.35 309.208 44.4418 310.599 44.4418 312.716ZM70.8828 313.111V314.063H65.4482V315.528H64.3203V314.063H58.9736V313.111H70.8828ZM59.6475 311.236C61.9692 310.951 64.3203 309.581 64.3203 307.94V307.325H65.5068V307.94C65.4995 309.552 67.8726 310.951 70.1797 311.236L69.7549 312.13C67.7334 311.844 65.7485 310.848 64.9136 309.413C64.0859 310.855 62.0938 311.844 60.0723 312.13L59.6475 311.236ZM59.8379 319.249C62.167 319.007 64.291 317.953 64.291 316.539V316.114H65.4629V316.539C65.4702 317.975 67.5723 319.007 69.9307 319.249L69.5645 320.128C67.5063 319.901 65.6533 319.117 64.877 317.872C64.1006 319.103 62.2622 319.901 60.2188 320.128L59.8379 319.249ZM76.0467 311.163C76.032 313.25 77.5408 315.55 79.4305 316.451L78.7713 317.359C77.3064 316.642 76.0687 315.104 75.4827 313.338C74.8821 315.25 73.5784 316.935 72.1209 317.682L71.4178 316.773C73.2928 315.858 74.9041 313.382 74.9188 311.163V309.464H71.8865V308.512H78.9764V309.464H76.0467V311.163ZM80.573 320.187V307.164H81.7156V312.438H83.8982V313.419H81.7156V320.187H80.573ZM90.8785 308.351V314.342H84.858V308.351H90.8785ZM85.9859 313.419H89.7652V309.288H85.9859V313.419ZM86.3375 319.908V315.807H87.4654V318.941H95.0826V319.908H86.3375ZM93.3395 316.715V307.164H94.482V311.134H96.4449V312.101H94.482V316.715H93.3395ZM111.182 307.164V314.151H110.039V307.164H111.182ZM100.738 310.797C100.73 309.017 102.173 307.794 104.151 307.809C106.128 307.794 107.556 309.017 107.564 310.797C107.556 312.569 106.128 313.792 104.151 313.785C102.173 313.792 100.73 312.569 100.738 310.797ZM101.865 310.797C101.851 311.983 102.81 312.826 104.151 312.833C105.476 312.826 106.436 311.983 106.436 310.797C106.436 309.603 105.476 308.768 104.151 308.775C102.81 308.768 101.851 309.603 101.865 310.797ZM102.744 320.011V314.811H103.887V316.393H110.039V314.811H111.182V320.011H102.744ZM103.887 319.073H110.039V317.315H103.887V319.073ZM119.275 307.97V311.617H114.793V313.639C117.239 313.646 118.506 313.595 120.037 313.316L120.154 314.269C118.536 314.532 117.21 314.576 114.573 314.576H113.65V310.738H118.133V308.893H113.621V307.97H119.275ZM115.115 316.817V315.88H123.89V320.216H122.732V316.817H115.115ZM120.14 312.76V311.808H122.732V310.05H120.14V309.112H122.732V307.179H123.89V315.177H122.732V312.76H120.14Z" fill="#777777"/>
<path d="M33.375 367.266V368.688H20.4688V367.266H26.0312V364.516H21.8906V357.203H23.625V359.516H30.1719V357.203H31.9062V364.516H27.75V367.266H33.375ZM23.625 363.109H30.1719V360.906H23.625V363.109ZM45.1175 356.266V360.406H47.0863V361.844H45.1175V366.594H43.3831V356.266H45.1175ZM34.1331 360.766C34.1253 358.68 35.7972 357.211 37.9456 357.203C40.0941 357.211 41.7425 358.68 41.7581 360.766C41.7425 362.82 40.0941 364.312 37.9456 364.312C35.7972 364.312 34.1253 362.82 34.1331 360.766ZM35.8363 360.766C35.8284 361.984 36.7659 362.789 37.9456 362.781C39.1409 362.789 40.0472 361.984 40.055 360.766C40.0472 359.516 39.1409 358.719 37.9456 358.719C36.7659 358.719 35.8284 359.516 35.8363 360.766ZM36.0706 370.109V365.516H37.805V368.703H45.68V370.109H36.0706ZM60.3756 363.328V364.719H54.9225V367.312H53.2038V364.719H47.4694V363.328H60.3756ZM49.0319 370.109V366.016H50.7663V368.703H58.9538V370.109H49.0319ZM49.11 362.016V356.906H58.7194V362.016H49.11ZM50.7975 360.656H57.0006V358.266H50.7975V360.656ZM66.0556 360.281C66.0478 362.461 67.3603 364.945 69.5869 365.984L68.6181 367.359C67.0244 366.609 65.8447 365.094 65.2119 363.328C64.5713 365.266 63.3369 366.922 61.7119 367.703L60.6963 366.344C62.9463 365.273 64.3134 362.633 64.3213 360.281V359.094H61.2431V357.656H69.0088V359.094H66.0556V360.281ZM70.3213 370.391V356.266H72.0556V361.766H74.2275V363.219H72.0556V370.391H70.3213ZM89.7438 356.266V363.844H87.9938V356.266H89.7438ZM78.2281 360.203C78.2281 358.242 79.8531 356.883 82.0406 356.891C84.2203 356.883 85.8453 358.242 85.8375 360.203C85.8453 362.133 84.2203 363.492 82.0406 363.484C79.8531 363.492 78.2281 362.133 78.2281 360.203ZM79.9313 360.203C79.9234 361.336 80.8063 362.055 82.0406 362.062C83.2516 362.055 84.1344 361.336 84.1344 360.203C84.1344 359.07 83.2516 358.336 82.0406 358.344C80.8063 358.336 79.9234 359.07 79.9313 360.203ZM80.4 370.219V364.5H82.1188V365.953H88.0094V364.5H89.7438V370.219H80.4ZM82.1188 368.812H88.0094V367.312H82.1188V368.812ZM98.2363 357.109V361.359H93.7831V363.094C96.0566 363.094 97.3456 363.031 98.8456 362.75L99.0175 364.156C97.33 364.445 95.8691 364.484 93.0956 364.484H92.0644V360.062H96.5019V358.484H92.0331V357.109H98.2363ZM93.6581 367.031V365.641H103.314V370.391H101.58V367.031H93.6581ZM99.08 362.641V361.25H101.58V359.672H99.08V358.281H101.58V356.281H103.314V364.969H101.58V362.641H99.08Z" fill="#222222"/>
<path d="M60.6973 400.16C66.8496 400.209 73.0508 404.335 73.0508 416.811C73.0508 428.529 68.6807 436.488 60.209 436.488C54.1787 436.488 50.0283 432.68 49.2715 427.064H52.7383C53.3975 430.702 55.9854 433.363 60.209 433.363C66.2393 433.363 69.7549 427.87 69.7793 418.178H69.3887C67.582 421.303 64.1152 423.28 60.209 423.256C54.0322 423.28 48.9053 418.446 48.9297 411.781C48.9053 405.385 53.5684 400.111 60.6973 400.16ZM52.2988 411.732C52.2988 416.444 55.8633 420.18 60.6973 420.18C65.6045 420.18 69.4375 416.078 69.1445 411.537C68.7783 406.874 65.3604 403.236 60.6973 403.236C55.8877 403.236 52.2744 407.069 52.2988 411.732ZM85.7266 400.648V436H82.2109V404.262H82.0156L73.666 409.779V406.215L82.1133 400.648H85.7266ZM102.309 436.488C96.1807 436.439 89.9795 432.313 90.0039 419.74C89.9795 408.095 94.374 400.16 102.846 400.16C108.852 400.16 112.953 403.969 113.734 409.486H110.268C109.608 405.922 107.045 403.261 102.846 403.285C96.7422 403.261 93.2754 408.754 93.2754 418.373H93.666C95.4482 415.248 98.915 413.295 102.846 413.295C108.998 413.295 114.125 418.129 114.125 424.818C114.125 431.264 109.438 436.537 102.309 436.488ZM93.8613 425.014C94.2275 429.75 97.6455 433.388 102.309 433.412C107.143 433.388 110.731 429.555 110.756 424.818C110.731 420.155 107.167 416.371 102.357 416.371C97.4014 416.371 93.5928 420.473 93.8613 425.014ZM127.387 436.488C120.6 436.488 115.668 432.68 115.473 427.113H118.988C119.184 430.873 122.772 433.363 127.338 433.363C132.318 433.363 135.858 430.482 135.883 426.479C135.858 422.304 132.367 419.398 126.654 419.398H124.457V416.273H126.654C131.293 416.298 134.638 413.686 134.662 409.682C134.638 405.873 131.781 403.212 127.436 403.236C123.285 403.212 119.77 405.653 119.672 409.486H116.303C116.425 403.944 121.356 400.16 127.484 400.16C133.93 400.16 138.031 404.433 137.982 409.535C138.031 413.563 135.59 416.566 131.781 417.641V417.885C136.42 418.69 139.276 422.011 139.252 426.527C139.276 432.216 134.247 436.488 127.387 436.488ZM151.879 436.488C145.678 436.488 141.063 432.582 140.893 427.113H144.262C144.457 430.751 147.655 433.388 151.879 433.412C156.835 433.388 160.351 429.726 160.326 424.867C160.326 419.813 156.566 416.273 151.635 416.225C148.632 416.2 146.19 417.226 144.799 419.496H141.332L143.773 400.648H162.182V403.773H146.703L145.189 415.443H145.482C147.021 413.979 149.584 413.1 152.221 413.1C158.739 413.1 163.744 417.934 163.744 424.818C163.72 431.557 158.739 436.488 151.879 436.488Z" fill="black"/>
<path d="M42.2988 413.912C54.5346 413.912 66.9047 413.251 79.0228 415.101C91.4736 417.002 103.192 422.205 115.725 423.995C127.343 425.655 139.361 425.801 151.084 425.801C157.576 425.801 163.862 425.328 170.304 424.612" stroke="black" stroke-width="3" stroke-linecap="round"/>
<rect x="213.5" y="391.5" width="23" height="23" rx="3.5" stroke="#777777"/>
<mask id="mask0_263_543" style="mask-type:alpha" maskUnits="userSpaceOnUse" x="215" y="393" width="20" height="20">
<rect x="215.5" y="393.5" width="19" height="19" fill="#D9D9D9" stroke="black"/>
</mask>
<g mask="url(#mask0_263_543)">
<path d="M223.366 410.595L223.366 410.595L223.355 410.592C221.909 410.203 220.744 409.431 219.846 408.269C218.948 407.108 218.5 405.791 218.5 404.3C218.5 403.5 218.618 402.73 218.852 401.988C219.081 401.263 219.438 400.611 219.925 400.03C219.991 399.961 220.056 399.934 220.158 399.937C220.277 399.941 220.374 399.981 220.471 400.079C220.542 400.149 220.575 400.225 220.575 400.338C220.575 400.466 220.538 400.566 220.463 400.658L220.457 400.665L220.452 400.673C220.048 401.204 219.754 401.789 219.57 402.423C219.39 403.044 219.3 403.678 219.3 404.325C219.3 405.616 219.689 406.778 220.466 407.791C221.237 408.799 222.245 409.488 223.474 409.852C223.589 409.891 223.669 409.949 223.728 410.02L224.113 409.7L223.728 410.02C223.777 410.078 223.8 410.139 223.8 410.225C223.8 410.361 223.757 410.455 223.652 410.543L223.975 410.925L223.652 410.543C223.57 410.613 223.496 410.634 223.366 410.595ZM227.017 410.618L227.009 410.62L227.001 410.623C226.908 410.652 226.848 410.644 226.756 410.563C226.644 410.464 226.6 410.362 226.6 410.225C226.6 410.148 226.621 410.091 226.674 410.032C226.751 409.945 226.837 409.887 226.935 409.849C228.181 409.467 229.192 408.75 229.954 407.707C230.717 406.662 231.1 405.48 231.1 404.175C231.1 402.543 230.518 401.143 229.363 400.006C228.209 398.87 226.795 398.3 225.15 398.3H225.075H223.868L224.721 399.154L225.121 399.554C225.215 399.647 225.231 399.717 225.226 399.789C225.219 399.889 225.18 399.988 225.071 400.096C224.974 400.194 224.886 400.225 224.788 400.225C224.691 400.225 224.62 400.196 224.545 400.114L224.536 400.104L224.526 400.094L222.603 398.196C222.581 398.173 222.557 398.139 222.537 398.079C222.512 398.006 222.5 397.93 222.5 397.85C222.5 397.807 222.509 397.766 222.529 397.722C222.555 397.667 222.587 397.62 222.629 397.579L224.579 395.629C224.68 395.528 224.765 395.5 224.85 395.5C224.935 395.5 225.02 395.528 225.121 395.629C225.215 395.722 225.241 395.803 225.238 395.895C225.234 396.015 225.194 396.116 225.105 396.214L225.105 396.214L225.101 396.218L224.701 396.668L223.962 397.5H225.075H225.15C227.038 397.5 228.623 398.146 229.936 399.443C231.248 400.74 231.9 402.307 231.9 404.175C231.9 405.684 231.452 407.028 230.551 408.224C229.651 409.418 228.478 410.214 227.017 410.618Z" fill="#777777" stroke="#777777"/>
</g>
<rect x="213.5" y="421.5" width="23" height="23" rx="3.5" stroke="#777777"/>
<mask id="mask1_263_543" style="mask-type:alpha" maskUnits="userSpaceOnUse" x="214" y="422" width="22" height="22">
<rect x="214" y="422" width="22" height="22" fill="#D9D9D9"/>
</mask>
<g mask="url(#mask1_263_543)">
<path d="M231.051 432.985C231.051 431.788 230.722 430.697 230.065 429.712C229.408 428.726 228.546 427.987 227.479 427.493C227.263 427.391 227.101 427.237 226.995 427.031C226.888 426.824 226.88 426.614 226.972 426.4C227.063 426.171 227.228 426.011 227.464 425.919C227.701 425.827 227.934 425.832 228.164 425.932C229.554 426.55 230.657 427.497 231.475 428.772C232.292 430.048 232.701 431.458 232.701 433.003C232.701 434.548 232.292 435.954 231.475 437.22C230.657 438.486 229.554 439.428 228.164 440.045C227.934 440.146 227.701 440.15 227.464 440.059C227.228 439.967 227.063 439.807 226.972 439.577C226.88 439.364 226.888 439.153 226.995 438.947C227.101 438.741 227.263 438.587 227.479 438.485C228.546 437.991 229.408 437.25 230.065 436.262C230.722 435.275 231.051 434.182 231.051 432.985ZM220.601 435.2H218.126C217.892 435.2 217.696 435.121 217.538 434.963C217.38 434.805 217.301 434.609 217.301 434.375V431.625C217.301 431.392 217.38 431.196 217.538 431.038C217.696 430.879 217.892 430.8 218.126 430.8H220.601L223.603 427.798C223.863 427.539 224.161 427.481 224.497 427.625C224.833 427.77 225.001 428.028 225.001 428.399V437.599C225.001 437.971 224.833 438.229 224.497 438.374C224.161 438.519 223.863 438.462 223.603 438.202L220.601 435.2ZM228.851 433C228.851 433.566 228.713 434.146 228.438 434.742C228.163 435.338 227.774 435.789 227.27 436.094C227.132 436.17 226.995 436.174 226.857 436.106C226.72 436.037 226.651 435.915 226.651 435.74V430.261C226.651 430.086 226.72 429.964 226.857 429.895C226.995 429.826 227.132 429.83 227.27 429.907C227.774 430.197 228.163 430.644 228.438 431.247C228.713 431.851 228.851 432.435 228.851 433ZM223.351 430.388L221.288 432.45H218.951V433.55H221.288L223.351 435.613V430.388Z" fill="#777777"/>
</g>
<rect x="257.5" y="391.5" width="172" height="53" stroke="#777777"/>
<rect x="20.5" y="475.5" width="199" height="45" rx="3.5" fill="#DDDDDD"/>
<rect x="20.5" y="475.5" width="199" height="45" rx="3.5" stroke="#CCCCCC"/>
<path d="M111.77 493.408C111.761 494.811 113.098 496.04 115.273 496.496L114.625 497.725C112.915 497.334 111.653 496.479 110.998 495.351C110.358 496.579 109.08 497.517 107.32 497.924L106.656 496.695C108.856 496.222 110.184 494.894 110.192 493.408H106.988V492.163H110.192V490.569H111.77V492.163H114.957V493.408H111.77ZM106.009 498.837C108.831 498.837 112.566 498.812 115.804 498.405L115.92 499.551C114.559 499.775 113.156 499.916 111.786 499.999V504.963H110.209V500.082C108.781 500.14 107.42 500.148 106.225 500.148L106.009 498.837ZM116.833 505.411V490.553H118.394V505.411H116.833ZM133.991 502.224V503.519H120.378V502.224H126.338V498.688H127.898V502.224H133.991ZM120.843 497.658C123.706 497.177 126.263 494.969 126.271 492.611V491.482H127.932V492.611C127.932 494.969 130.521 497.177 133.393 497.658L132.713 498.953C130.297 498.48 128.089 496.986 127.11 494.952C126.13 496.978 123.939 498.48 121.54 498.953L120.843 497.658Z" fill="#777777"/>
<rect x="230" y="475" width="200" height="46" rx="4" fill="#373A3F"/>
<path d="M327.73 490.553V494.969H329.855V496.264H327.73V500.563H326.152V490.553H327.73ZM315.926 498.903C317.08 498.903 318.416 498.903 319.811 498.87V497.866C318.117 497.675 317.038 496.878 317.055 495.683C317.038 494.321 318.458 493.475 320.591 493.491C322.724 493.475 324.119 494.321 324.127 495.683C324.119 496.87 323.065 497.667 321.388 497.866V498.812C322.716 498.746 324.061 498.638 325.306 498.455L325.439 499.584C322.243 500.14 318.715 500.165 316.092 500.165L315.926 498.903ZM316.308 492.993V491.814H319.811V490.42H321.388V491.814H324.891V492.993H316.308ZM317.785 502.489V501.261H327.73V505.411H326.152V502.489H317.785ZM318.549 495.683C318.549 496.38 319.321 496.836 320.591 496.828C321.844 496.836 322.625 496.38 322.616 495.683C322.625 494.969 321.844 494.554 320.591 494.57C319.321 494.554 318.549 494.969 318.549 495.683ZM342.713 490.553V501.36H341.136V490.553H342.713ZM330.677 495.234C330.685 493.084 332.395 491.557 334.644 491.549C336.886 491.557 338.596 493.084 338.596 495.234C338.596 497.417 336.886 498.937 334.644 498.937C332.395 498.937 330.685 497.417 330.677 495.234ZM332.221 495.234C332.212 496.637 333.258 497.559 334.644 497.559C336.006 497.559 337.052 496.637 337.052 495.234C337.052 493.865 336.006 492.927 334.644 492.927C333.258 492.927 332.212 493.865 332.221 495.234ZM332.984 505.096V500.265H334.578V503.817H343.161V505.096H332.984Z" fill="white"/>
<rect width="450" height="30" transform="translate(0 611)" fill="#F4F4F4"/>
<path d="M18.7627 620.742V632.054H17.7598V620.742H18.7627ZM9.87598 625.554C9.88232 623.154 11.0757 621.625 12.7578 621.618C14.4336 621.625 15.646 623.154 15.6396 625.554C15.646 627.959 14.4336 629.483 12.7578 629.477C11.0757 629.483 9.88232 627.959 9.87598 625.554ZM10.8408 625.554C10.8408 627.388 11.6279 628.594 12.7578 628.588C13.894 628.594 14.6748 627.388 14.6748 625.554C14.6748 623.719 13.894 622.513 12.7578 622.507C11.6279 622.513 10.8408 623.719 10.8408 625.554ZM30.7156 626.328V627.153H20.4324V626.328H22.9841V624.735C22.0828 624.386 21.575 623.814 21.575 623.053C21.575 621.726 23.0984 620.964 25.574 620.958C28.0305 620.964 29.554 621.726 29.5603 623.053C29.554 623.808 29.0525 624.379 28.1638 624.735V626.328H30.7156ZM21.6765 630.01C21.6702 628.721 23.1238 628.01 25.574 628.017C27.9924 628.01 29.4461 628.721 29.4587 630.01C29.4461 631.298 27.9924 632.003 25.574 632.003C23.1238 632.003 21.6702 631.298 21.6765 630.01ZM22.6033 623.053C22.5969 623.878 23.7268 624.354 25.574 624.36C27.4021 624.354 28.5383 623.878 28.5447 623.053C28.5383 622.24 27.4021 621.745 25.574 621.745C23.7268 621.745 22.5969 622.24 22.6033 623.053ZM22.6921 630.01C22.6795 630.778 23.7649 631.235 25.574 631.229C27.364 631.235 28.4495 630.778 28.4558 630.01C28.4495 629.242 27.364 628.791 25.574 628.778C23.7649 628.791 22.6795 629.242 22.6921 630.01ZM23.9744 626.328H27.1736V625.001C26.6975 625.09 26.1643 625.135 25.574 625.135C24.9837 625.135 24.4504 625.09 23.9744 625.008V626.328ZM41.9068 622.494V623.307H40.231V624.894H41.9068V625.744H40.231V627.458H39.2407V620.742H40.231V622.494H41.9068ZM31.6236 624.081C31.6172 622.513 32.874 621.421 34.5816 621.428C36.3018 621.421 37.5396 622.513 37.5523 624.081C37.5396 625.668 36.3018 626.753 34.5816 626.76C32.874 626.753 31.6172 625.668 31.6236 624.081ZM32.6011 624.081C32.5947 625.167 33.439 625.909 34.5816 625.896C35.7368 625.909 36.5684 625.167 36.5747 624.081C36.5684 623.021 35.7368 622.285 34.5816 622.278C33.439 622.285 32.5947 623.021 32.6011 624.081ZM32.8423 628.804V627.979H40.231V632.028H39.2407V628.804H32.8423ZM48.6419 621.618V622.215C48.6355 622.958 48.6355 624.081 48.3499 625.554L47.347 625.478C47.6199 624.132 47.6453 623.173 47.658 622.456H43.0179V621.618H48.6419ZM42.3196 626.607C43.0496 626.607 43.8748 626.601 44.7444 626.576V624.119H45.7346V626.544C46.9851 626.493 48.2801 626.404 49.4544 626.239L49.5179 626.976C47.1502 627.382 44.4334 627.426 42.4212 627.433L42.3196 626.607ZM44.0589 631.787V628.474H45.0618V630.949H51.5999V631.787H44.0589ZM50.2161 629.235V620.742H51.2317V624.424H52.8821V625.274H51.2317V629.235H50.2161ZM58.367 620.514V632.295H57.4275V620.514H58.367ZM72.7132 620.742V632.028H71.7357V626.125H70.1741V631.47H69.222V621.047H70.1741V625.3H71.7357V620.742H72.7132ZM63.0902 628.905C65.7117 627.439 66.7908 625.376 66.9622 623.04H63.5218V622.215H67.9398C67.9271 625.084 66.9178 627.794 63.6741 629.604L63.0902 628.905ZM83.3712 620.755V629.007H82.3809V620.755H83.3712ZM74.3194 624.31C74.3131 622.685 75.5889 621.548 77.2774 621.542C78.9659 621.548 80.2291 622.685 80.2354 624.31C80.2291 625.954 78.9659 627.096 77.2774 627.09C75.5889 627.096 74.3131 625.954 74.3194 624.31ZM75.297 624.31C75.2843 625.433 76.1348 626.214 77.2774 626.214C78.401 626.214 79.2579 625.433 79.2579 624.31C79.2579 623.205 78.401 622.418 77.2774 622.418C76.1348 622.418 75.2843 623.205 75.297 624.31ZM76.0841 631.787V628.169H77.0743V630.949H83.7266V631.787H76.0841ZM94.3846 620.742V627.471H93.3817V624.513H91.1092V623.688H93.3817V620.742H94.3846ZM85.0789 626.569C86.7547 625.966 87.9481 624.437 87.9481 622.824V622.405H85.3963V621.567H91.4774V622.405H88.951V622.812C88.951 624.284 90.0809 625.687 91.7313 626.252L91.2108 627.052C89.9476 626.595 88.9637 625.643 88.4749 624.481C87.9925 625.801 86.9452 626.855 85.5995 627.369L85.0789 626.569ZM86.8563 629.921C86.8499 628.594 88.2909 627.82 90.6395 627.826C92.9818 627.82 94.4227 628.594 94.4227 629.921C94.4227 631.254 92.9818 632.016 90.6395 632.028C88.2909 632.016 86.8499 631.254 86.8563 629.921ZM87.8465 629.921C87.8402 630.74 88.9066 631.235 90.6395 631.229C92.3661 631.235 93.4325 630.74 93.4325 629.921C93.4325 629.096 92.3661 628.601 90.6395 628.601C88.9066 628.601 87.8402 629.096 87.8465 629.921ZM106.338 629.756V630.581H96.0035V629.756H100.65V627.318H97.2223V621.542H98.2252V623.586H104.09V621.542H105.068V627.318H101.628V629.756H106.338ZM98.2252 626.506H104.09V624.398H98.2252V626.506ZM116.335 620.742V632.054H115.332V626.112H112.857V625.287H115.332V620.742H116.335ZM107.004 629.07C108.661 628.296 109.899 626.366 109.899 624.424V623.522H107.309V622.71H109.899V620.958H110.889V622.71H113.441V623.522H110.876V624.424C110.876 626.284 112.152 628.118 113.822 628.867L113.25 629.642C111.962 629.058 110.902 627.82 110.4 626.334C109.911 627.909 108.864 629.223 107.576 629.845L107.004 629.07ZM127.273 620.742V632.054H126.282V620.742H127.273ZM118.589 622.621V621.796H123.845V625.808H119.63V628.474C121.503 628.48 123.172 628.391 125.191 628.067L125.292 628.905C123.216 629.229 121.503 629.312 119.554 629.312H118.614V624.995H122.842V622.621H118.589ZM134.135 627.839C136.452 627.839 137.854 628.601 137.854 629.921C137.854 631.254 136.452 632.016 134.135 632.028C131.811 632.016 130.396 631.254 130.39 629.921C130.396 628.601 131.811 627.839 134.135 627.839ZM129.412 626.658V621.453H130.39V623.18H133.678V621.453H134.668V626.658H129.412ZM130.39 625.846H133.678V623.967H130.39V625.846ZM131.392 629.921C131.38 630.733 132.433 631.216 134.135 631.216C135.842 631.216 136.883 630.733 136.89 629.921C136.883 629.115 135.842 628.639 134.135 628.626C132.433 628.639 131.38 629.115 131.392 629.921ZM136.763 627.534V620.742H137.753V623.586H139.454V624.437H137.753V627.534H136.763ZM144.006 623.04C143.999 624.475 145.237 625.738 146.925 626.227L146.456 627.014C145.116 626.614 144.05 625.744 143.529 624.621C143.034 625.852 141.968 626.804 140.616 627.255L140.133 626.48C141.809 625.935 143.015 624.57 143.015 623.04V622.888H140.413V622.088H143.015V620.691H144.018V622.088H146.595V622.888H144.006V623.04ZM141.885 631.876V628.017H149.223V631.876H141.885ZM142.863 631.063H148.246V628.829H142.863V631.063ZM148.233 627.445V620.755H149.223V627.445H148.233ZM155.889 620.514V632.295H154.949V620.514H155.889ZM167.429 624.678C167.036 623.497 166.141 622.748 164.827 622.748C163.202 622.748 161.913 624.03 161.907 626.404C161.913 628.772 163.202 630.054 164.903 630.061C166.452 630.054 167.525 629.026 167.544 627.395H165.144V626.392H168.661V627.382C168.661 629.661 167.093 631.127 164.903 631.127C162.446 631.127 160.796 629.312 160.802 626.404C160.796 623.497 162.466 621.682 164.827 621.682C166.769 621.682 168.267 622.9 168.61 624.678H167.429ZM171.067 621.809V631H169.975V621.809H171.067ZM175.364 631.14C173.486 631.146 172.216 629.724 172.216 627.585C172.216 625.433 173.486 624.018 175.364 624.018C177.237 624.018 178.494 625.433 178.488 627.585C178.494 629.724 177.237 631.146 175.364 631.14ZM173.308 627.585C173.314 628.962 173.962 630.175 175.364 630.175C176.755 630.175 177.396 628.962 177.396 627.585C177.396 626.214 176.755 624.982 175.364 624.982C173.962 624.982 173.314 626.214 173.308 627.585ZM179.802 631V621.809H180.894V625.198H180.982C181.217 624.83 181.63 624.018 182.976 624.018C184.702 624.018 185.915 625.389 185.921 627.572C185.915 629.762 184.702 631.146 182.988 631.14C181.668 631.146 181.217 630.327 180.982 629.946H180.855V631H179.802ZM180.868 627.547C180.868 629.096 181.566 630.162 182.823 630.162C184.137 630.162 184.81 629.013 184.816 627.547C184.81 626.106 184.156 624.995 182.823 624.995C181.554 624.995 180.868 626.017 180.868 627.547ZM186.753 629.045C186.753 627.464 188.149 627.103 189.342 627.014C189.787 626.982 190.898 626.918 191.209 626.912V626.354C191.209 625.478 190.688 624.97 189.647 624.97C188.778 624.97 188.251 625.37 188.098 625.896H186.956C187.095 624.786 188.175 624.018 189.698 624.018C190.599 624.018 192.294 624.284 192.288 626.455V631H191.209V630.061H191.158C190.929 630.524 190.301 631.159 189.101 631.165C187.794 631.159 186.753 630.391 186.753 629.045ZM187.844 629.096C187.851 629.826 188.454 630.194 189.292 630.188C190.523 630.194 191.209 629.369 191.209 628.499V627.807C190.885 627.826 189.8 627.909 189.469 627.928C188.479 627.991 187.851 628.34 187.844 629.096ZM194.872 621.809V631H193.78V621.809H194.872ZM201.505 624.119C201.41 623.218 200.572 622.697 199.474 622.697C198.255 622.697 197.462 623.332 197.455 624.208C197.462 625.173 198.534 625.535 199.233 625.706L200.147 625.96C201.131 626.214 202.749 626.779 202.749 628.499C202.749 629.997 201.543 631.159 199.41 631.165C197.43 631.159 196.205 630.137 196.097 628.613H197.265C197.36 629.642 198.319 630.13 199.41 630.124C200.68 630.13 201.632 629.477 201.632 628.474C201.632 627.579 200.781 627.236 199.817 626.963L198.687 626.658C197.246 626.239 196.344 625.503 196.351 624.259C196.344 622.704 197.728 621.682 199.512 621.682C201.296 621.682 202.578 622.723 202.622 624.119H201.505ZM203.987 631V624.106H205.079V631H203.987ZM203.771 622.24C203.765 621.834 204.114 621.51 204.533 621.517C204.952 621.51 205.301 621.834 205.308 622.24C205.301 622.64 204.952 622.964 204.533 622.964C204.114 622.964 203.765 622.64 203.771 622.24ZM209.351 633.729C207.682 633.729 206.552 633 206.431 631.724H207.574C207.72 632.428 208.374 632.777 209.351 632.777C210.532 632.777 211.256 632.263 211.256 631.127V629.73H211.167C210.932 630.111 210.494 630.892 209.161 630.898C207.485 630.892 206.228 629.629 206.228 627.458C206.228 625.338 207.441 624.018 209.174 624.018C210.513 624.018 210.945 624.83 211.192 625.198H211.281V624.106H212.347V631.19C212.341 632.968 211.033 633.729 209.351 633.729ZM207.333 627.496C207.333 628.924 208.006 629.921 209.313 629.921C210.576 629.921 211.275 629.013 211.281 627.496C211.275 626.017 210.595 624.995 209.313 624.995C207.987 624.995 207.333 626.106 207.333 627.496ZM214.918 626.861V631H213.827V624.106H214.88V625.186H214.969C215.293 624.481 215.94 624.018 216.988 624.018C218.384 624.018 219.317 624.868 219.311 626.62V631H218.219V626.696C218.219 625.63 217.635 624.995 216.658 624.995C215.655 624.995 214.918 625.668 214.918 626.861ZM223.793 631L223.78 630.162L226.916 626.861C228.002 625.706 228.522 625.084 228.528 624.233C228.522 623.288 227.735 622.678 226.7 622.672C225.602 622.678 224.917 623.37 224.91 624.398H223.831C223.818 622.773 225.075 621.682 226.738 621.682C228.408 621.682 229.588 622.805 229.595 624.233C229.588 625.262 229.112 626.062 227.487 627.737L225.38 629.908V629.984H229.76V631H223.793ZM234.159 631.127C232.502 631.127 231.245 630.105 231.176 628.689H232.28C232.363 629.508 233.162 630.118 234.159 630.124C235.352 630.118 236.216 629.248 236.216 628.093C236.216 626.899 235.321 626.017 234.083 626.011C233.308 625.998 232.705 626.239 232.369 626.836H231.264L231.912 621.809H236.888V622.824H232.864L232.521 625.516H232.61C233.023 625.198 233.638 624.982 234.286 624.982C236.038 624.982 237.326 626.277 237.333 628.067C237.326 629.845 235.993 631.127 234.159 631.127ZM241.859 631.127C240.266 631.108 238.507 630.162 238.507 626.76C238.507 623.503 239.84 621.682 241.999 621.682C243.617 621.682 244.747 622.678 244.982 624.119H243.852C243.643 623.307 243.021 622.697 241.999 622.697C240.488 622.697 239.58 623.986 239.586 626.201H239.701C240.228 625.433 241.072 624.982 242.062 624.982C243.693 624.982 245.058 626.252 245.058 628.029C245.058 629.762 243.795 631.146 241.859 631.127ZM239.739 628.055C239.745 629.134 240.628 630.118 241.859 630.124C243.046 630.118 243.947 629.185 243.954 628.042C243.947 626.912 243.084 625.992 241.884 625.985C240.678 625.992 239.752 626.969 239.739 628.055ZM254.542 624.119C254.447 623.218 253.609 622.697 252.511 622.697C251.292 622.697 250.499 623.332 250.492 624.208C250.499 625.173 251.571 625.535 252.27 625.706L253.184 625.96C254.168 626.214 255.786 626.779 255.786 628.499C255.786 629.997 254.58 631.159 252.447 631.165C250.467 631.159 249.242 630.137 249.134 628.613H250.302C250.397 629.642 251.356 630.13 252.447 630.124C253.717 630.13 254.669 629.477 254.669 628.474C254.669 627.579 253.818 627.236 252.854 626.963L251.724 626.658C250.283 626.239 249.381 625.503 249.388 624.259C249.381 622.704 250.765 621.682 252.549 621.682C254.333 621.682 255.615 622.723 255.659 624.119H254.542ZM262.179 624.119C262.083 623.218 261.245 622.697 260.147 622.697C258.929 622.697 258.135 623.332 258.129 624.208C258.135 625.173 259.208 625.535 259.906 625.706L260.82 625.96C261.804 626.214 263.423 626.779 263.423 628.499C263.423 629.997 262.217 631.159 260.084 631.165C258.103 631.159 256.878 630.137 256.77 628.613H257.938C258.034 629.642 258.992 630.13 260.084 630.124C261.353 630.13 262.306 629.477 262.306 628.474C262.306 627.579 261.455 627.236 260.49 626.963L259.36 626.658C257.919 626.239 257.018 625.503 257.024 624.259C257.018 622.704 258.402 621.682 260.185 621.682C261.969 621.682 263.251 622.723 263.296 624.119H262.179ZM264.8 631V621.809H265.943V629.984H270.209V631H264.8ZM282.739 620.742V623.535H284.441V624.348H282.739V627.28H281.749V620.742H282.739ZM274.132 624.081C274.126 622.507 275.382 621.421 277.09 621.428C278.81 621.421 280.048 622.507 280.061 624.081C280.048 625.649 278.81 626.728 277.09 626.734C275.382 626.728 274.126 625.649 274.132 624.081ZM275.109 624.081C275.103 625.147 275.947 625.884 277.09 625.896C278.245 625.884 279.077 625.147 279.083 624.081C279.077 623.021 278.245 622.266 277.09 622.278C275.947 622.266 275.103 623.021 275.109 624.081ZM275.617 631.876V627.813H282.739V631.876H275.617ZM276.595 631.063H281.749V628.626H276.595V631.063ZM294.641 622.418V623.243H285.399V622.418H289.538V620.933H290.516V622.418H294.641ZM284.891 630.708V629.883H289.538V628.296C287.526 628.188 286.313 627.407 286.326 626.138C286.313 624.798 287.729 624.005 290.033 624.018C292.306 624.005 293.746 624.798 293.74 626.138C293.746 627.407 292.509 628.188 290.516 628.296V629.883H295.225V630.708H284.891ZM287.329 626.138C287.316 626.995 288.351 627.49 290.033 627.496C291.696 627.49 292.731 626.995 292.724 626.138C292.731 625.3 291.696 624.805 290.033 624.805C288.351 624.805 287.316 625.3 287.329 626.138ZM304.627 620.742V625.554H306.429V626.392H304.627V632.028H303.624V620.742H304.627ZM295.727 629.02C296.648 629.02 297.72 629.013 298.838 628.981V627.737C297.524 627.585 296.667 626.811 296.679 625.693C296.667 624.417 297.746 623.592 299.345 623.599C300.92 623.592 302.018 624.417 302.024 625.693C302.018 626.817 301.148 627.585 299.84 627.737V628.943C300.888 628.893 301.954 628.804 302.938 628.664L303.002 629.426C300.539 629.845 297.873 629.87 295.892 629.87L295.727 629.02ZM295.93 622.938V622.126H298.838V620.768H299.84V622.126H302.735V622.938H295.93ZM297.606 625.693C297.612 626.474 298.298 626.988 299.345 626.976C300.374 626.988 301.066 626.474 301.072 625.693C301.066 624.906 300.374 624.373 299.345 624.373C298.298 624.373 297.612 624.906 297.606 625.693ZM313.768 622.824C313.768 624.291 314.898 625.693 316.548 626.265L316.027 627.052C314.758 626.595 313.774 625.649 313.292 624.487C312.803 625.782 311.756 626.823 310.416 627.318L309.896 626.531C311.559 625.935 312.765 624.43 312.765 622.837V622.342H310.213V621.529H316.294V622.342H313.768V622.824ZM311.61 628.931V628.105H319.201V632.028H318.198V628.931H311.61ZM315.939 624.538V623.7H318.198V620.742H319.201V627.509H318.198V624.538H315.939ZM331.103 626.328V627.153H320.82V626.328H323.372V624.735C322.471 624.386 321.963 623.814 321.963 623.053C321.963 621.726 323.486 620.964 325.962 620.958C328.418 620.964 329.942 621.726 329.948 623.053C329.942 623.808 329.44 624.379 328.552 624.735V626.328H331.103ZM322.064 630.01C322.058 628.721 323.512 628.01 325.962 628.017C328.38 628.01 329.834 628.721 329.847 630.01C329.834 631.298 328.38 632.003 325.962 632.003C323.512 632.003 322.058 631.298 322.064 630.01ZM322.991 623.053C322.985 623.878 324.115 624.354 325.962 624.36C327.79 624.354 328.926 623.878 328.933 623.053C328.926 622.24 327.79 621.745 325.962 621.745C324.115 621.745 322.985 622.24 322.991 623.053ZM323.08 630.01C323.067 630.778 324.153 631.235 325.962 631.229C327.752 631.235 328.837 630.778 328.844 630.01C328.837 629.242 327.752 628.791 325.962 628.778C324.153 628.791 323.067 629.242 323.08 630.01ZM324.362 626.328H327.561V625.001C327.085 625.09 326.552 625.135 325.962 625.135C325.371 625.135 324.838 625.09 324.362 625.008V626.328Z" fill="#555555"/>
<path d="M376.432 621.453V624.09H377.555V625.359H376.432V628.182H374.859V621.453H376.432ZM369.195 623.514V622.303H371.08V621.434H372.652V622.303H374.537V623.514H369.195ZM369.586 625.506C369.581 624.446 370.538 623.719 371.861 623.719C373.185 623.719 374.117 624.446 374.117 625.506C374.117 626.561 373.185 627.273 371.861 627.264C370.538 627.273 369.581 626.561 369.586 625.506ZM370.445 630.34V627.674H372.018V629.09H376.695V630.34H370.445ZM371.119 625.506C371.114 625.916 371.412 626.092 371.861 626.092C372.32 626.092 372.628 625.916 372.633 625.506C372.628 625.096 372.32 624.905 371.861 624.9C371.412 624.905 371.114 625.096 371.119 625.506ZM384.991 621.805V622.557C384.996 623.211 384.996 623.948 384.835 624.852H385.9V626.092H382.55V627.146H384.962V630.467H383.4V628.357H378.458V627.146H380.968V626.092H377.648V624.852H383.253C383.385 624.148 383.414 623.577 383.424 623.045H378.634V621.805H384.991ZM394.342 628.211V629.48H386.09V628.211H389.43V626.59H386.901V622.049H393.493V626.59H390.983V628.211H394.342ZM388.454 625.379H391.94V623.299H388.454V625.379ZM401.74 621.434V624.705H402.961V625.994H401.74V630.467H400.168V621.434H401.74ZM394.767 628.426V622.127H396.33V624.197H397.716V622.127H399.279V628.426H394.767ZM396.33 627.166H397.716V625.408H396.33V627.166ZM405.544 621.668C406.94 621.663 408.005 622.547 408.005 623.768C408.005 624.979 406.94 625.857 405.544 625.857C404.138 625.857 403.063 624.979 403.073 623.768C403.063 622.547 404.138 621.663 405.544 621.668ZM404.421 627.42V626.229H410.593V628.855H405.973V629.168H410.788V630.389H404.44V627.732H409.03V627.42H404.421ZM404.587 623.768C404.577 624.329 404.987 624.603 405.544 624.607C406.096 624.603 406.496 624.329 406.491 623.768C406.496 623.206 406.096 622.938 405.544 622.928C404.992 622.938 404.577 623.206 404.587 623.768ZM409.02 625.896V621.434H410.593V625.896H409.02ZM419.035 621.453V627.869H417.463V621.453H419.035ZM411.516 624.305C411.506 622.967 412.634 621.985 414.045 621.99C415.451 621.985 416.579 622.967 416.574 624.305C416.579 625.667 415.451 626.634 414.045 626.639C412.634 626.634 411.506 625.667 411.516 624.305ZM412.854 630.34V627.225H414.436V629.09H419.25V630.34H412.854ZM413.039 624.305C413.034 624.964 413.469 625.276 414.045 625.281C414.592 625.276 415.021 624.964 415.021 624.305C415.021 623.67 414.592 623.343 414.045 623.348C413.469 623.343 413.034 623.67 413.039 624.305ZM428.103 625.516V626.766H419.861V625.516H428.103ZM420.154 624.1C421.775 623.968 422.492 623.504 422.756 623.064H420.612V621.824H427.351V623.064H425.183C425.437 623.504 426.154 623.968 427.82 624.1L427.282 625.32C425.476 625.174 424.431 624.563 423.962 623.768C423.498 624.559 422.478 625.174 420.671 625.32L420.154 624.1ZM420.769 628.787C420.774 627.713 421.975 627.088 423.962 627.088C425.935 627.088 427.121 627.713 427.126 628.787C427.121 629.871 425.935 630.486 423.962 630.486C421.975 630.486 420.774 629.871 420.769 628.787ZM422.37 628.787C422.361 629.153 422.839 629.275 423.962 629.275C425.051 629.275 425.554 629.153 425.554 628.787C425.554 628.421 425.051 628.289 423.962 628.289C422.839 628.289 422.361 628.421 422.37 628.787ZM437.014 630.643C437.566 629.661 438.176 627.723 438.176 625.965C438.176 624.202 437.566 622.264 437.014 621.277H438.459C439.221 622.605 439.714 624.129 439.709 625.965C439.714 627.796 439.221 629.319 438.459 630.643H437.014ZM428.811 625.965C428.806 624.129 429.299 622.605 430.061 621.277H431.506C430.954 622.264 430.344 624.202 430.344 625.965C430.344 627.723 430.954 629.661 431.506 630.643H430.061C429.299 629.319 428.806 627.796 428.811 625.965ZM431.125 627.049V626.014H437.395V627.049H434.885V629.217H433.577V627.049H431.125ZM431.36 624.764C432.805 624.617 433.298 624.109 433.44 623.65H431.662V622.645H436.868V623.65H435.09C435.227 624.109 435.705 624.617 437.161 624.764L436.692 625.789C435.422 625.652 434.665 625.213 434.26 624.622C433.86 625.213 433.103 625.652 431.838 625.789L431.36 624.764Z" fill="#333333"/>
<defs>
<clipPath id="clip0_263_543">
<rect width="64.0816" height="20" fill="white" transform="translate(20 20)"/>
</clipPath>
</defs>
</svg>
