<svg width="400" height="416" viewBox="0 0 400 416" fill="none" xmlns="http://www.w3.org/2000/svg">
<path d="M28.406 17.156V11.36H29.594V17.156H28.406ZM29 10.532C28.76 10.532 28.58 10.472 28.46 10.352C28.34 10.232 28.28 10.058 28.28 9.83C28.28 9.59 28.34 9.416 28.46 9.308C28.58 9.188 28.76 9.128 29 9.128C29.192 9.128 29.354 9.188 29.486 9.308C29.63 9.416 29.702 9.59 29.702 9.83C29.702 10.07 29.63 10.25 29.486 10.37C29.354 10.478 29.192 10.532 29 10.532ZM29 20.99C27.98 20.99 27.02 20.798 26.12 20.414C25.22 20.03 24.428 19.502 23.744 18.83C23.072 18.146 22.544 17.354 22.16 16.454C21.776 15.554 21.584 14.594 21.584 13.574C21.584 12.542 21.776 11.582 22.16 10.694C22.544 9.794 23.072 9.008 23.744 8.336C24.428 7.652 25.22 7.118 26.12 6.734C27.02 6.35 27.98 6.158 29 6.158C30.032 6.158 30.992 6.35 31.88 6.734C32.78 7.118 33.566 7.652 34.238 8.336C34.922 9.008 35.456 9.794 35.84 10.694C36.224 11.582 36.416 12.542 36.416 13.574C36.416 14.594 36.224 15.554 35.84 16.454C35.456 17.354 34.922 18.146 34.238 18.83C33.566 19.502 32.78 20.03 31.88 20.414C30.992 20.798 30.032 20.99 29 20.99ZM29 19.982C29.888 19.982 30.716 19.82 31.484 19.496C32.264 19.16 32.948 18.698 33.536 18.11C34.124 17.522 34.58 16.844 34.904 16.076C35.24 15.296 35.408 14.462 35.408 13.574C35.408 12.686 35.24 11.858 34.904 11.09C34.58 10.31 34.124 9.626 33.536 9.038C32.948 8.45 32.264 7.994 31.484 7.67C30.716 7.334 29.888 7.166 29 7.166C28.112 7.166 27.278 7.334 26.498 7.67C25.73 7.994 25.052 8.45 24.464 9.038C23.876 9.626 23.414 10.31 23.078 11.09C22.754 11.858 22.592 12.686 22.592 13.574C22.592 14.462 22.754 15.296 23.078 16.076C23.414 16.844 23.876 17.522 24.464 18.11C25.052 18.698 25.73 19.16 26.498 19.496C27.278 19.82 28.112 19.982 29 19.982ZM54.6472 5.79688V10.5605H57.0027V11.7207H54.6472V17.3281H53.2761V5.79688H54.6472ZM42.7292 10.7539C42.7204 8.48633 44.4958 6.91309 46.8249 6.9043C49.1716 6.91309 50.9206 8.48633 50.9382 10.7539C50.9206 13.0127 49.1716 14.6035 46.8249 14.6035C44.4958 14.6035 42.7204 13.0127 42.7292 10.7539ZM44.0827 10.7539C44.0739 12.292 45.278 13.3906 46.8249 13.3906C48.3982 13.3906 49.5759 12.292 49.5847 10.7539C49.5759 9.20703 48.3982 8.11719 46.8249 8.11719C45.278 8.11719 44.0739 9.20703 44.0827 10.7539ZM44.8738 21.0898V16.1328H46.2273V19.9297H55.3679V21.0898H44.8738ZM70.5821 5.81445V17.2754H69.1934V11.2812H65.9766V10.1387H69.1934V5.81445H70.5821ZM57.6973 14.1465C60.0001 13.3379 61.67 11.2725 61.67 9.03125V8.22266H58.1368V7.08008H66.5567V8.22266H63.0587V9.03125C63.0587 11.0527 64.6231 13.0127 66.9083 13.7949L66.1876 14.9023C64.4298 14.2607 63.0675 12.9512 62.3907 11.334C61.7139 13.1445 60.2725 14.5771 58.418 15.2715L57.6973 14.1465ZM60.545 21.0898V16.2383H61.9337V19.9297H71.0216V21.0898H60.545ZM85.0405 5.81445V10.9648H87.3959V12.125H85.0405V17.5215H83.6694V5.81445H85.0405ZM72.8588 8.85547V7.73047H76.8315V5.81445H78.2026V7.73047H82.1752V8.85547H72.8588ZM73.7553 12.6348C73.7465 10.8594 75.2582 9.7168 77.517 9.7168C79.7495 9.7168 81.2612 10.8594 81.2788 12.6348C81.2612 14.3926 79.7495 15.5264 77.517 15.5176C75.2582 15.5264 73.7465 14.3926 73.7553 12.6348ZM75.0737 12.6348C75.0649 13.7334 76.0405 14.4453 77.517 14.4277C78.976 14.4453 79.9604 13.7334 79.978 12.6348C79.9604 11.5186 78.976 10.7979 77.517 10.8066C76.0405 10.7979 75.0649 11.5186 75.0737 12.6348ZM75.267 21.0898V16.5898H76.6205V19.9297H85.7612V21.0898H75.267ZM105.063 5.79688V21.459H103.674V5.79688H105.063ZM92.758 12.459C92.7668 9.13672 94.4191 7.01855 96.7482 7.00977C99.0685 7.01855 100.747 9.13672 100.738 12.459C100.747 15.79 99.0685 17.8994 96.7482 17.8906C94.4191 17.8994 92.7668 15.79 92.758 12.459ZM94.0939 12.459C94.0939 14.999 95.1837 16.6689 96.7482 16.6602C98.3214 16.6689 99.4025 14.999 99.4025 12.459C99.4025 9.91895 98.3214 8.24902 96.7482 8.24023C95.1837 8.24902 94.0939 9.91895 94.0939 12.459ZM121.613 13.5312V14.6738H107.375V13.5312H110.908V11.3252C109.66 10.8418 108.957 10.0508 108.957 8.99609C108.957 7.15918 111.066 6.10449 114.494 6.0957C117.895 6.10449 120.004 7.15918 120.013 8.99609C120.004 10.042 119.31 10.833 118.08 11.3252V13.5312H121.613ZM109.097 18.6289C109.088 16.8447 111.101 15.8604 114.494 15.8691C117.842 15.8604 119.855 16.8447 119.873 18.6289C119.855 20.4131 117.842 21.3887 114.494 21.3887C111.101 21.3887 109.088 20.4131 109.097 18.6289ZM110.38 8.99609C110.372 10.1387 111.936 10.7979 114.494 10.8066C117.025 10.7979 118.598 10.1387 118.607 8.99609C118.598 7.87109 117.025 7.18555 114.494 7.18555C111.936 7.18555 110.372 7.87109 110.38 8.99609ZM110.503 18.6289C110.486 19.6924 111.989 20.3252 114.494 20.3164C116.972 20.3252 118.475 19.6924 118.484 18.6289C118.475 17.5654 116.972 16.9414 114.494 16.9238C111.989 16.9414 110.486 17.5654 110.503 18.6289ZM112.279 13.5312H116.709V11.6943C116.049 11.8174 115.311 11.8789 114.494 11.8789C113.676 11.8789 112.938 11.8174 112.279 11.7031V13.5312ZM129.69 6.07812C133.162 6.07812 135.201 7.03613 135.21 8.76758C135.201 10.543 133.162 11.501 129.69 11.5098C126.201 11.501 124.153 10.543 124.153 8.76758C124.153 7.03613 126.201 6.07812 129.69 6.07812ZM122.571 13.6895V12.5645H136.809V13.6895H122.571ZM124.294 16.0977V15.043H134.981V18.541H125.7V20.1582H135.456V21.248H124.329V17.5215H133.628V16.0977H124.294ZM125.595 8.76758C125.577 9.85742 127.098 10.4551 129.69 10.4551C132.283 10.4551 133.795 9.85742 133.804 8.76758C133.795 7.73926 132.283 7.12402 129.69 7.11523C127.098 7.12402 125.577 7.73926 125.595 8.76758ZM147.076 6.57031C149.414 6.55273 151.092 7.84473 151.084 9.75195C151.092 11.6592 149.414 12.96 147.076 12.9512C144.738 12.96 143.068 11.6592 143.068 9.75195C143.068 7.84473 144.738 6.55273 147.076 6.57031ZM141.89 14.2871C144.826 14.2959 148.842 14.2344 152.314 13.7246L152.402 14.7617C150.908 15.0342 149.361 15.2012 147.849 15.2979V20.9492H146.478V15.377C144.887 15.4473 143.384 15.4561 142.084 15.4648L141.89 14.2871ZM144.421 9.75195C144.404 10.9736 145.52 11.8174 147.076 11.8086C148.649 11.8174 149.774 10.9736 149.765 9.75195C149.774 8.53906 148.649 7.67773 147.076 7.69531C145.52 7.67773 144.404 8.53906 144.421 9.75195ZM153.457 21.4414V5.81445H154.81V21.4414H153.457ZM164.927 8.50391V9.62891H157.087V8.50391H160.339V6.27148H161.71V8.50391H164.927ZM157.649 14.2344C157.649 12.1602 159.064 10.6924 161.007 10.6836C162.976 10.6924 164.382 12.1602 164.399 14.2344C164.382 16.335 162.976 17.8115 161.007 17.8203C159.064 17.8115 157.649 16.335 157.649 14.2344ZM158.88 14.2344C158.88 15.623 159.768 16.6162 161.007 16.6074C162.255 16.6162 163.169 15.623 163.169 14.2344C163.169 12.8633 162.255 11.8613 161.007 11.8438C159.768 11.8613 158.88 12.8633 158.88 14.2344ZM165.735 20.6504V6.18359H167.036V12.3887H169.11V5.79688H170.429V21.4238H169.11V13.5312H167.036V20.6504H165.735ZM181.134 8.9082C181.143 10.6396 182.347 12.3887 184.351 13.1445L183.631 14.1992C182.128 13.6191 181.047 12.5029 180.484 11.1582C179.913 12.6436 178.788 13.9707 177.25 14.6387L176.494 13.5664C178.55 12.6699 179.807 10.6484 179.816 8.9082V6.78125H181.134V8.9082ZM179.341 18.6113C179.324 16.8447 181.328 15.8076 184.58 15.8164C187.814 15.8076 189.827 16.8447 189.836 18.6113C189.827 20.3604 187.814 21.3887 184.58 21.3887C181.328 21.3887 179.324 20.3604 179.341 18.6113ZM180.713 18.6113C180.695 19.6748 182.18 20.3252 184.58 20.3164C186.953 20.3252 188.447 19.6748 188.465 18.6113C188.447 17.5303 186.953 16.8799 184.58 16.8711C182.18 16.8799 180.695 17.5303 180.713 18.6113ZM185.054 14.9727V6.11328H186.355V10.0156H188.429V5.81445H189.748V15.4648H188.429V11.1582H186.355V14.9727H185.054ZM204.628 5.81445V17.3809H203.239V11.9668H198.739V10.8594H203.239V8.97852H198.739V7.87109H203.239V5.81445H204.628ZM192.605 15.0605V6.93945H193.993V13.8828C196.147 13.874 198.221 13.751 200.603 13.3203L200.743 14.4629C198.203 14.9375 196.076 15.043 193.782 15.0605H192.605ZM194.556 21.0898V16.3965H195.944V19.9297H205.05V21.0898H194.556ZM219.754 5.81445V15.0254H218.366V14.1641H215.202V13.25H218.366V5.81445H219.754ZM206.817 11.7031C209.84 11.7207 213.707 11.6855 217.082 11.3164L217.17 12.2129C215.641 12.4326 214.05 12.5645 212.495 12.6348V15.0781H211.141V12.6875C209.664 12.7402 208.241 12.7402 206.975 12.7402L206.817 11.7031ZM208.03 8.46875C208.03 7.01855 209.559 6.11328 211.914 6.11328C214.244 6.11328 215.782 7.01855 215.799 8.46875C215.782 9.92773 214.244 10.7979 211.914 10.8066C209.559 10.7979 208.03 9.92773 208.03 8.46875ZM209.207 16.5898V15.5879H219.754V18.8223H210.631V20.2285H220.264V21.248H209.278V17.8555H218.383V16.5898H209.207ZM209.33 8.46875C209.322 9.29492 210.341 9.85742 211.914 9.85742C213.47 9.85742 214.49 9.29492 214.498 8.46875C214.49 7.63379 213.47 7.07129 211.914 7.08008C210.341 7.07129 209.322 7.63379 209.33 8.46875ZM226.496 6.37695C228.834 6.38574 230.53 7.80957 230.539 9.83984C230.53 11.8789 228.834 13.2852 226.496 13.2852C224.132 13.2852 222.427 11.8789 222.435 9.83984C222.427 7.80957 224.132 6.38574 226.496 6.37695ZM223.789 9.83984C223.771 11.2109 224.923 12.1602 226.496 12.1602C228.043 12.1602 229.203 11.2109 229.203 9.83984C229.203 8.48633 228.043 7.52832 226.496 7.53711C224.923 7.52832 223.771 8.48633 223.789 9.83984ZM224.808 15.6934V14.5859H234.969V18.3477H226.197V20.1055H235.531V21.2129H224.844V17.3105H233.597V15.6934H224.808ZM233.597 13.8301V5.79688H234.969V13.8301H233.597ZM239.829 18.8223L238.458 23.6035H237.157L238.124 18.8223H239.829ZM259.922 13.5312V14.6387H245.666V13.5312H252.117V11.7031H247.476V6.53516H258.146V7.64258H248.83V10.5781H258.252V11.7031H253.453V13.5312H259.922ZM247.389 18.5938C247.38 16.8096 249.41 15.79 252.785 15.7812C256.134 15.79 258.146 16.8096 258.164 18.5938C258.146 20.3955 256.134 21.4062 252.785 21.4238C249.41 21.4062 247.38 20.3955 247.389 18.5938ZM248.795 18.5938C248.777 19.6924 250.28 20.3252 252.785 20.3164C255.264 20.3252 256.766 19.6924 256.775 18.5938C256.766 17.5127 255.264 16.8711 252.785 16.8711C250.28 16.8711 248.777 17.5127 248.795 18.5938ZM265.292 6.37695C267.63 6.38574 269.326 7.80957 269.335 9.83984C269.326 11.8789 267.63 13.2852 265.292 13.2852C262.928 13.2852 261.223 11.8789 261.232 9.83984C261.223 7.80957 262.928 6.38574 265.292 6.37695ZM262.585 9.83984C262.568 11.2109 263.719 12.1602 265.292 12.1602C266.839 12.1602 267.999 11.2109 267.999 9.83984C267.999 8.48633 266.839 7.52832 265.292 7.53711C263.719 7.52832 262.568 8.48633 262.585 9.83984ZM263.605 15.6934V14.5859H273.765V18.3477H264.993V20.1055H274.327V21.2129H263.64V17.3105H272.394V15.6934H263.605ZM272.394 13.8301V5.79688H273.765V13.8301H272.394ZM281.174 6.67578L277.061 21.916H275.69L279.786 6.67578H281.174ZM294.666 5.81445V17.3633H293.277V13.1445H289.234C288.514 14.0674 287.353 14.6211 286.017 14.6211C283.68 14.6211 281.948 13.0039 281.957 10.7188C281.948 8.4248 283.68 6.80762 286.017 6.79883C287.345 6.80762 288.487 7.35254 289.217 8.25781H293.277V5.81445H294.666ZM283.275 10.7188C283.275 12.2832 284.418 13.3994 286.017 13.3906C287.556 13.3994 288.725 12.2832 288.725 10.7188C288.725 9.16309 287.556 8.03809 286.017 8.0293C284.418 8.03809 283.275 9.16309 283.275 10.7188ZM284.629 21.0898V16.1504H286.017V19.9297H295.105V21.0898H284.629ZM289.841 9.40039C289.981 9.80469 290.06 10.2441 290.06 10.7188C290.06 11.1758 289.981 11.6064 289.85 12.002H293.277V9.40039H289.841ZM311.199 13.6543V14.7969H296.908V13.6543H303.341V11.2461H304.695V13.6543H311.199ZM297.769 10.9824C300.529 10.6045 303.324 8.86426 303.324 6.78125V6.04297H304.712V6.78125C304.712 8.86426 307.525 10.6045 310.284 10.9824L309.722 12.0898C307.358 11.6768 305.002 10.4199 304.027 8.61816C303.042 10.4375 300.696 11.6768 298.296 12.0898L297.769 10.9824ZM298.49 17.4336V16.3262H309.388V21.4238H307.999V17.4336H298.49ZM330.553 12.9336V14.0762H324.031V15.834H322.678V14.0762H316.262V12.9336H330.553ZM317.07 10.6836C319.856 10.3408 322.678 8.69727 322.678 6.72852V5.99023H324.102V6.72852C324.093 8.66211 326.94 10.3408 329.709 10.6836L329.199 11.7559C326.773 11.4131 324.392 10.2178 323.39 8.49512C322.396 10.2266 320.006 11.4131 317.58 11.7559L317.07 10.6836ZM317.299 20.2988C320.094 20.0088 322.643 18.7432 322.643 17.0469V16.5371H324.049V17.0469C324.058 18.7695 326.58 20.0088 329.41 20.2988L328.971 21.3535C326.501 21.0811 324.277 20.1406 323.346 18.6465C322.414 20.123 320.208 21.0811 317.756 21.3535L317.299 20.2988ZM336.749 10.5957C336.732 13.1006 338.542 15.8604 340.81 16.9414L340.019 18.0312C338.261 17.1699 336.776 15.3242 336.073 13.2061C335.352 15.5 333.787 17.5215 332.038 18.418L331.195 17.3281C333.445 16.2295 335.378 13.2588 335.396 10.5957V8.55664H331.757V7.41406H340.265V8.55664H336.749V10.5957ZM342.181 21.4238V5.79688H343.552V12.125H346.171V13.3027H343.552V21.4238H342.181ZM46.3777 47.1758C43.8465 47.1758 42.0271 45.8223 41.948 43.8008H43.5477C43.6355 45.0137 44.8396 45.7695 46.3602 45.7695C48.0389 45.7695 49.2518 44.8643 49.2605 43.5371C49.2518 42.1484 48.1443 41.1729 46.1668 41.1641H45.1297V39.7754H46.1668C47.7137 39.7754 48.7947 38.9053 48.7859 37.5957C48.7947 36.3213 47.8631 35.4775 46.4129 35.4688C45.0506 35.4775 43.8113 36.2246 43.741 37.4727H42.2117C42.2908 35.4512 44.1717 34.0977 46.4305 34.0977C48.8563 34.0977 50.3328 35.6885 50.3152 37.5078C50.3328 38.958 49.4891 40.0127 48.1531 40.3906V40.4785C49.8143 40.7334 50.8162 41.9199 50.8074 43.5371C50.8162 45.6289 48.9178 47.1758 46.3777 47.1758ZM57.4611 37.5957C57.4435 40.1006 59.2541 42.8604 61.5216 43.9414L60.7306 45.0312C58.9728 44.1699 57.4875 42.3242 56.7843 40.2061C56.0636 42.5 54.4992 44.5215 52.7502 45.418L51.9064 44.3281C54.1564 43.2295 56.09 40.2588 56.1076 37.5957V35.5566H52.4689V34.4141H60.9767V35.5566H57.4611V37.5957ZM62.8927 48.4238V32.7969H64.2638V39.125H66.883V40.3027H64.2638V48.4238H62.8927ZM80.2691 32.7969V48.459H78.898V32.7969H80.2691ZM68.2456 35.3984V34.2559H75.523V39.8105H69.687V43.502C72.2798 43.5107 74.5913 43.3877 77.3862 42.9395L77.5269 44.0996C74.6529 44.5479 72.2798 44.6621 69.5816 44.6621H68.2808V38.6855H74.1343V35.3984H68.2456ZM95.202 37.543V38.6504H84.497V33.377H85.868V37.543H95.202ZM82.5458 41.9023V40.7773H96.8544V41.9023H82.5458ZM84.4091 48.0371V43.502H85.7802V46.8945H95.2899V48.0371H84.4091ZM114.802 32.7969V48.459H113.414V32.7969H114.802ZM102.832 44.6797V34.1328H104.203V38.2637H108.861V34.1328H110.214V44.6797H102.832ZM104.203 43.5195H108.861V39.3711H104.203V43.5195ZM125.27 33.6758V40.0391H117.94V33.6758H125.27ZM119.294 38.9492H123.917V34.8008H119.294V38.9492ZM119.856 42.7461V41.6387H129.999V45.3652H121.245V47.123H130.561V48.248H119.874V44.3457H128.645V42.7461H119.856ZM128.645 40.8652V32.7969H129.999V40.8652H128.645ZM145.266 32.8145V44.3809H143.877V38.3691H140.186V41.709H133.102V33.8516H134.473V36.6289H138.832V33.8516H140.186V37.209H143.877V32.8145H145.266ZM134.473 40.5664H138.832V37.7188H134.473V40.5664ZM135.159 48.0898V43.2383H136.547V46.9297H145.618V48.0898H135.159ZM161.007 35.1172V36.2598H148.211V35.1172H153.941V33.0605H155.295V35.1172H161.007ZM147.507 46.5957V45.4531H153.941V43.2559C151.155 43.1064 149.476 42.0254 149.494 40.2676C149.476 38.4131 151.436 37.3145 154.627 37.332C157.773 37.3145 159.768 38.4131 159.759 40.2676C159.768 42.0254 158.054 43.1064 155.295 43.2559V45.4531H161.816V46.5957H147.507ZM150.882 40.2676C150.865 41.4541 152.298 42.1396 154.627 42.1484C156.929 42.1396 158.362 41.4541 158.353 40.2676C158.362 39.1074 156.929 38.4219 154.627 38.4219C152.298 38.4219 150.865 39.1074 150.882 40.2676ZM177.013 45.3301V46.4902H162.704V45.3301H169.138V42.377H164.497V37.5605H173.849V35.0996H164.462V33.957H175.202V38.6855H165.868V41.2344H175.571V42.377H170.491V45.3301H177.013ZM187.297 36.998C187.297 39.749 189.116 42.5879 191.34 43.6777L190.496 44.7852C188.773 43.8887 187.332 42.0342 186.637 39.8633C185.943 42.166 184.467 44.1436 182.709 45.084L181.83 43.9766C184.115 42.8516 185.926 39.8545 185.943 36.998V34.1504H187.297V36.998ZM192.781 48.4238V32.7969H194.152V39.1426H196.771V40.3379H194.152V48.4238H192.781ZM211.493 40.5312V41.6738H197.255V40.5312H200.788V38.3252C199.54 37.8418 198.837 37.0508 198.837 35.9961C198.837 34.1592 200.946 33.1045 204.374 33.0957C207.776 33.1045 209.885 34.1592 209.894 35.9961C209.885 37.042 209.191 37.833 207.96 38.3252V40.5312H211.493ZM198.978 45.6289C198.969 43.8447 200.982 42.8604 204.374 42.8691C207.723 42.8604 209.735 43.8447 209.753 45.6289C209.735 47.4131 207.723 48.3887 204.374 48.3887C200.982 48.3887 198.969 47.4131 198.978 45.6289ZM200.261 35.9961C200.252 37.1387 201.817 37.7979 204.374 37.8066C206.905 37.7979 208.479 37.1387 208.487 35.9961C208.479 34.8711 206.905 34.1855 204.374 34.1855C201.817 34.1855 200.252 34.8711 200.261 35.9961ZM200.384 45.6289C200.366 46.6924 201.869 47.3252 204.374 47.3164C206.853 47.3252 208.356 46.6924 208.364 45.6289C208.356 44.5654 206.853 43.9414 204.374 43.9238C201.869 43.9414 200.366 44.5654 200.384 45.6289ZM202.159 40.5312H206.589V38.6943C205.93 38.8174 205.192 38.8789 204.374 38.8789C203.557 38.8789 202.818 38.8174 202.159 38.7031V40.5312ZM224.668 32.7441V36.541H227.041V37.6836H224.668V41.3926H223.297V32.7441H224.668ZM212.487 35.3281V34.2207H216.459V32.6387H217.831V34.2207H221.803V35.3281H212.487ZM213.383 38.5977C213.374 37.0156 214.869 36.04 217.145 36.0312C219.413 36.04 220.889 37.0156 220.907 38.5977C220.889 40.1885 219.413 41.1553 217.145 41.1641C214.869 41.1553 213.374 40.1885 213.383 38.5977ZM214.702 43.2383V42.2012H224.668V45.6641H216.09V47.1934H225.249V48.248H214.737V44.6445H223.297V43.2383H214.702ZM214.702 38.5977C214.693 39.5381 215.66 40.127 217.145 40.127C218.622 40.127 219.588 39.5381 219.606 38.5977C219.588 37.666 218.622 37.0596 217.145 37.0508C215.66 37.0596 214.693 37.666 214.702 38.5977ZM239.646 34.2559C239.654 36.4619 242.52 38.3604 245.341 38.7559L244.779 39.8809C242.353 39.4766 239.945 38.1318 238.943 36.2158C237.941 38.1494 235.541 39.4766 233.107 39.8809L232.544 38.7559C235.365 38.3604 238.222 36.4971 238.222 34.2559V33.3594H239.646V34.2559ZM231.806 42.7637V41.6035H246.044V42.7637H239.575V48.4238H238.222V42.7637H231.806ZM254.271 41.9727V43.9238H257.119V41.9727H258.402V48.2129H252.971V41.9727H254.271ZM251.406 37.0859C251.397 34.9502 253.085 33.5 255.467 33.5C257.567 33.5 259.158 34.6865 259.457 36.4883H262.726V32.7969H264.115V41.0762H262.726V37.6309H259.466C259.193 39.4766 257.585 40.6895 255.467 40.6895C253.085 40.6895 251.397 39.2305 251.406 37.0859ZM252.725 37.0859C252.725 38.5186 253.858 39.5381 255.467 39.5469C257.04 39.5381 258.174 38.5186 258.174 37.0859C258.174 35.6621 257.04 34.6602 255.467 34.6602C253.858 34.6602 252.725 35.6621 252.725 37.0859ZM254.271 47.123H257.119V44.9785H254.271V47.123ZM258.613 47.2812C260.494 46.499 261.487 44.7852 261.496 43.2031V41.8672H262.867V43.2031C262.85 44.8467 263.843 46.5781 265.75 47.2812L265.029 48.3359C263.588 47.7646 262.647 46.6572 262.164 45.3652C261.672 46.6396 260.714 47.7471 259.334 48.3359L258.613 47.2812ZM269.538 42.1836V44.0117H277.343V42.1836H278.732V48.2129H268.167V42.1836H269.538ZM266.357 41.0762V39.9336H280.595V41.0762H266.357ZM267.165 37.7188C269.951 37.3408 272.773 35.6973 272.773 33.7109V32.9727H274.197V33.7109C274.188 35.6357 277.035 37.3672 279.786 37.7188L279.277 38.8262C276.86 38.4658 274.478 37.2354 273.485 35.4863C272.491 37.2441 270.101 38.4658 267.693 38.8262L267.165 37.7188ZM269.538 47.1055H277.343V45.1016H269.538V47.1055ZM294.438 32.7969V48.4238H293.067V32.7969H294.438ZM282.573 44.3984V34.3438H283.926V43.2031C286.317 43.1855 288.778 43.001 291.397 42.4473L291.59 43.625C288.813 44.2051 286.343 44.3984 283.839 44.3984H282.573ZM308.844 32.7969V38.9844H311.463V40.1445H308.844V48.459H307.473V32.7969H308.844ZM297.436 44.5391V34.3262H304.73V35.4688H298.807V43.3789C301.637 43.3701 303.632 43.2471 305.961 42.8164L306.137 44.0117C303.685 44.4512 301.637 44.5391 298.666 44.5391H297.436ZM313.599 47.1055C312.984 47.0967 312.456 46.5869 312.474 45.9629C312.456 45.3477 312.984 44.8379 313.599 44.8379C314.223 44.8379 314.733 45.3477 314.724 45.9629C314.733 46.5869 314.223 47.0967 313.599 47.1055Z" fill="#777777"/>
<rect width="400" height="350" transform="translate(0 66)" fill="#323C59"/>
<path d="M77.3333 119.293C72.6019 119.293 69.262 116.773 69.2767 113.316C69.262 110.621 71.2689 108.424 73.8177 108.014V107.896C71.5911 107.428 70.0824 105.494 70.0677 103.18C70.0824 99.8984 73.1439 97.4961 77.3333 97.4961C81.4935 97.4961 84.5697 99.8984 84.5697 103.18C84.5697 105.509 83.0169 107.428 80.8197 107.896V108.014C83.3538 108.424 85.3753 110.621 85.39 113.316C85.3753 116.773 82.0208 119.293 77.3333 119.293ZM73.2025 112.965C73.1878 114.928 74.8138 116.275 77.3333 116.275C79.8236 116.275 81.4495 114.928 81.4642 112.965C81.4495 110.973 79.721 109.493 77.3333 109.508C74.9456 109.493 73.1878 110.958 73.2025 112.965ZM73.7884 103.531C73.8031 105.392 75.2679 106.666 77.3333 106.666C79.3695 106.666 80.849 105.392 80.849 103.531C80.849 101.729 79.4134 100.484 77.3333 100.484C75.2093 100.484 73.8031 101.729 73.7884 103.531Z" fill="white"/>
<path d="M199.794 97.4961C203.94 97.5254 208.071 100.001 208.085 107.75C208.085 115.06 204.775 119.293 199.56 119.293C195.473 119.293 192.646 116.744 192.177 113.229H195.956C196.337 114.913 197.641 115.982 199.56 115.982C202.636 115.982 204.365 113.272 204.394 108.717H204.16C203.09 110.562 201.039 111.661 198.71 111.646C194.916 111.661 191.987 108.775 191.972 104.762C191.972 100.616 195.092 97.4668 199.794 97.4961ZM195.693 104.674C195.693 106.959 197.392 108.746 199.765 108.746C202.123 108.746 203.94 106.842 203.925 104.645C203.925 102.491 202.197 100.587 199.824 100.572C197.436 100.587 195.663 102.403 195.693 104.674Z" fill="white"/>
<path d="M322.653 119.293C318.126 119.293 314.889 116.832 314.801 113.258H318.639C318.742 114.957 320.441 116.085 322.653 116.07C324.982 116.085 326.666 114.796 326.666 112.906C326.666 111.002 325.026 109.64 322.272 109.625H320.368V106.695H322.272C324.528 106.695 326.095 105.436 326.08 103.59C326.095 101.803 324.747 100.602 322.682 100.602C320.69 100.602 318.976 101.715 318.903 103.502H315.241C315.328 99.9424 318.566 97.4961 322.711 97.4961C327.018 97.4961 329.801 100.133 329.772 103.385C329.801 105.758 328.219 107.472 325.905 107.955V108.131C328.893 108.526 330.592 110.445 330.563 113.111C330.592 116.7 327.238 119.293 322.653 119.293Z" fill="white"/>
<path d="M70.0531 204V201.246L77.5531 194.01C79.6917 191.871 80.805 190.611 80.805 188.824C80.805 186.847 79.2376 185.602 77.1722 185.602C74.9896 185.602 73.5833 186.964 73.598 189.117H69.9652C69.9505 185.104 72.9681 182.496 77.2015 182.496C81.5374 182.496 84.4525 185.089 84.4671 188.648C84.4525 191.036 83.3099 192.97 79.1351 196.91L75.3558 200.66V200.807H84.7894V204H70.0531Z" fill="white"/>
<path d="M200.204 204.293C196.059 204.264 191.928 201.803 191.943 193.98C191.943 186.729 195.239 182.496 200.439 182.496C204.526 182.496 207.338 185.06 207.822 188.502H204.042C203.661 186.876 202.372 185.792 200.439 185.807C197.363 185.792 195.649 188.517 195.634 192.984H195.839C196.923 191.153 198.959 190.069 201.288 190.084C205.097 190.069 208.041 192.955 208.027 196.969C208.041 201.188 204.892 204.322 200.204 204.293ZM196.044 197.086C196.074 199.298 197.802 201.202 200.204 201.217C202.563 201.202 204.321 199.386 204.335 197.057C204.321 194.801 202.621 192.984 200.263 192.984C197.875 192.984 196.074 194.874 196.044 197.086Z" fill="white"/>
<path d="M326.154 182.789V204H322.316V186.51H322.199L317.247 189.674V186.188L322.492 182.789H326.154Z" fill="white"/>
<path d="M69.0277 285.045V281.998L78.1976 267.789H82.9437V281.91H85.7269V285.045H82.9437V289H79.3109V285.045H69.0277ZM72.9242 281.91H79.3695V272.125H79.1351L72.9242 281.764V281.91Z" fill="white"/>
<path d="M194.037 289L203.237 271.129V270.982H192.573V267.789H207.192V271.041L197.993 289H194.037Z" fill="white"/>
<path d="M322.697 289.293C318.463 289.293 315.343 286.759 315.226 283.258H318.947C319.064 284.972 320.69 286.202 322.697 286.217C325.07 286.202 326.784 284.488 326.769 282.145C326.784 279.713 325.026 277.999 322.579 277.984C320.924 277.97 319.723 278.556 319.064 279.801H315.519L316.808 267.789H329.347V270.982H319.943L319.298 276.607H319.503C320.324 275.685 321.862 275.011 323.605 274.996C327.545 275.011 330.475 277.94 330.46 282.027C330.475 286.261 327.282 289.293 322.697 289.293Z" fill="white"/>
<path d="M48.349 360.375C47.9251 357.996 46.0247 356.629 43.6185 356.629C40.3783 356.629 38.0814 359.117 38.0951 363.602C38.0814 368.154 40.3919 370.574 43.6185 370.574C45.9701 370.574 47.8704 369.262 48.349 366.938H51.931C51.3841 370.738 48.2533 373.773 43.5638 373.773C38.3411 373.773 34.4993 369.986 34.513 363.602C34.4993 357.203 38.3822 353.43 43.5638 353.43C47.9388 353.43 51.3158 355.973 51.931 360.375H48.349ZM54.9935 373.5V353.703H58.5482V370.492H67.2982V373.5H54.9935ZM70.1419 373.5V353.703H83.0208V356.684H73.6966V362.098H82.3372V365.078H73.6966V370.492H83.0755V373.5H70.1419ZM88.9544 373.5H85.1536L92.1263 353.703H96.5013L103.501 373.5H99.7005L98.0462 368.605H90.595L88.9544 373.5ZM91.5521 365.734H97.0892L94.3958 357.75H94.2318L91.5521 365.734ZM105.853 373.5V353.703H113.29C117.829 353.703 120.249 356.246 120.263 360.02C120.249 362.713 119.019 364.709 116.695 365.652L120.974 373.5H117.009L113.126 366.254H109.408V373.5H105.853ZM109.408 363.273H112.743C115.423 363.287 116.626 362.139 116.626 360.02C116.626 357.914 115.423 356.684 112.743 356.684H109.408V363.273Z" fill="white"/>
<path d="M199.999 374.293C194.887 374.293 191.84 370.338 191.855 363.395C191.84 356.48 194.916 352.496 199.999 352.496C205.082 352.496 208.144 356.48 208.144 363.395C208.144 370.353 205.097 374.293 199.999 374.293ZM195.693 363.395C195.693 368.492 197.333 371.085 199.999 371.1C202.651 371.085 204.306 368.492 204.306 363.395C204.291 358.341 202.651 355.675 199.999 355.66C197.348 355.675 195.707 358.341 195.693 363.395Z" fill="white"/>
<path d="M292.617 373.5V353.703H300.191C304.484 353.703 306.603 355.891 306.617 358.844C306.603 361.25 305.085 362.59 303.144 363.055V363.246C305.249 363.355 307.382 365.105 307.382 368.113C307.382 371.189 305.154 373.5 300.628 373.5H292.617ZM296.171 370.52H300.081C302.679 370.52 303.759 369.412 303.773 367.84C303.759 366.062 302.378 364.709 300.163 364.695H296.171V370.52ZM296.171 362.125H299.753C301.626 362.125 303.048 361.045 303.062 359.281C303.048 357.764 301.954 356.656 299.835 356.656H296.171V362.125ZM309.433 369.316C309.433 365.98 312.208 365.01 314.956 364.832C315.995 364.75 318.115 364.654 318.771 364.627L318.757 363.438C318.757 361.961 317.814 361.113 316.077 361.113C314.519 361.113 313.562 361.824 313.288 362.891H309.925C310.171 360.361 312.441 358.461 316.16 358.461C318.976 358.461 322.23 359.623 322.23 363.574V373.5H318.894V371.449H318.785C318.128 372.707 316.747 373.801 314.41 373.801C311.579 373.801 309.433 372.256 309.433 369.316ZM312.796 369.289C312.796 370.574 313.849 371.23 315.312 371.23C317.431 371.23 318.785 369.836 318.785 368.168L318.771 366.951C318.142 366.979 316.201 367.102 315.503 367.156C313.849 367.293 312.796 367.99 312.796 369.289ZM331.992 373.801C327.562 373.801 324.882 370.629 324.882 366.145C324.882 361.592 327.644 358.461 331.992 358.461C335.587 358.461 338.117 360.566 338.363 363.766H335.027C334.753 362.344 333.714 361.264 332.019 361.25C329.859 361.264 328.41 363.068 328.41 366.062C328.41 369.125 329.831 370.943 332.019 370.957C333.564 370.943 334.712 370.041 335.027 368.441H338.363C338.103 371.572 335.724 373.801 331.992 373.801ZM340.988 373.5V353.703H344.488V364.613H344.734L350.066 358.652H354.14L348.384 365.051L354.495 373.5H350.339L345.773 367.129L344.488 368.496V373.5H340.988Z" fill="white"/>
</svg>
