<svg width="400" height="727" viewBox="0 0 400 727" fill="none" xmlns="http://www.w3.org/2000/svg">
<rect width="400" height="727" fill="white"/>
<rect width="400" height="58" fill="white"/>
<mask id="mask0_250_991" style="mask-type:alpha" maskUnits="userSpaceOnUse" x="14" y="17" width="24" height="24">
<rect x="14" y="17" width="24" height="24" fill="#D9D9D9"/>
</mask>
<g mask="url(#mask0_250_991)">
<path d="M23.0152 28.9994L30.248 36.2321C30.43 36.4141 30.5227 36.6397 30.526 36.9089C30.5292 37.1782 30.4397 37.4039 30.2577 37.5859C30.0756 37.7679 29.8499 37.8589 29.5807 37.8589C29.3116 37.8589 29.0859 37.7679 28.9038 37.5859L21.4578 30.1301C21.2936 29.9659 21.1762 29.7884 21.1057 29.5974C21.0352 29.4064 21 29.207 21 28.9994C21 28.7917 21.0352 28.5924 21.1057 28.4014C21.1762 28.2104 21.2936 28.0328 21.4578 27.8686L28.9038 20.4224C29.0859 20.2404 29.31 20.1478 29.576 20.1446C29.842 20.1414 30.066 20.2309 30.248 20.4129C30.43 20.5949 30.521 20.8205 30.521 21.0899C30.521 21.359 30.43 21.5846 30.248 21.7666L23.0152 28.9994Z" fill="#222222"/>
</g>
<path d="M172.656 96.0547C176.21 96.0547 178.685 97.9688 178.699 100.867C178.685 103.383 176.73 105.188 173.804 105.557V107.936C176.074 107.812 178.384 107.607 180.503 107.293L180.667 108.906C175.513 109.822 169.689 109.904 165.492 109.891L165.218 108.113C167.105 108.127 169.32 108.113 171.644 108.031V105.57C168.636 105.242 166.626 103.424 166.64 100.867C166.626 97.9688 169.101 96.0547 172.656 96.0547ZM168.664 100.867C168.636 102.713 170.29 103.971 172.656 103.984C175.035 103.971 176.662 102.713 176.675 100.867C176.662 98.9805 175.035 97.7227 172.656 97.7227C170.29 97.7227 168.636 98.9805 168.664 100.867ZM168.773 118.668V111.914H170.933V116.863H185.097V118.668H168.773ZM182.062 113.527V94.9336H184.222V103.164H187.859V104.996H184.222V113.527H182.062ZM192.248 96.3555V100.402H199.029V96.3555H201.135V98.8164H206.877V94.9062H209.037V109.371H206.877V105.543H201.135V107.977H190.115V96.3555H192.248ZM192.248 106.199H199.029V102.098H192.248V106.199ZM192.686 112.406V110.656H209.037V119.215H206.877V112.406H192.686ZM201.135 103.766H206.877V100.594H201.135V103.766ZM231.528 94.9336V102.945H235.192V104.75H231.528V113.145H229.395V94.9336H231.528ZM212.579 99.6641V97.9141H218.758V94.9336H220.891V97.9141H227.071V99.6641H212.579ZM213.973 105.543C213.96 102.781 216.311 101.004 219.825 101.004C223.297 101.004 225.649 102.781 225.676 105.543C225.649 108.277 223.297 110.041 219.825 110.027C216.311 110.041 213.96 108.277 213.973 105.543ZM216.024 105.543C216.01 107.252 217.528 108.359 219.825 108.332C222.094 108.359 223.626 107.252 223.653 105.543C223.626 103.807 222.094 102.686 219.825 102.699C217.528 102.686 216.01 103.807 216.024 105.543ZM216.325 118.695V111.695H218.43V116.891H232.649V118.695H216.325ZM147.307 133.906V158.215H145.201V145.5H141.838V157.012H139.787V134.562H141.838V143.723H145.201V133.906H147.307ZM126.58 151.488C132.227 148.33 134.551 143.887 134.92 138.855H127.51V137.078H137.026C136.998 143.258 134.825 149.096 127.838 152.992L126.58 151.488ZM170.263 133.934V151.707H168.13V133.934H170.263ZM150.766 141.59C150.753 138.09 153.501 135.643 157.138 135.629C160.774 135.643 163.495 138.09 163.509 141.59C163.495 145.131 160.774 147.592 157.138 147.578C153.501 147.592 150.753 145.131 150.766 141.59ZM152.872 141.59C152.845 144.01 154.677 145.691 157.138 145.691C159.558 145.691 161.403 144.01 161.403 141.59C161.403 139.211 159.558 137.516 157.138 137.516C154.677 137.516 152.845 139.211 152.872 141.59ZM154.567 157.695V149.902H156.7V155.891H171.028V157.695H154.567ZM193.984 133.906V148.398H191.824V142.027H186.929V140.25H191.824V133.906H193.984ZM173.941 146.457C177.55 145.158 180.121 141.863 180.121 138.391V137.488H174.624V135.684H187.722V137.488H182.281V138.363C182.281 141.535 184.714 144.557 188.269 145.773L187.148 147.496C184.427 146.512 182.308 144.461 181.255 141.959C180.216 144.803 177.96 147.072 175.062 148.18L173.941 146.457ZM177.769 153.676C177.755 150.818 180.859 149.15 185.917 149.164C190.962 149.15 194.066 150.818 194.066 153.676C194.066 156.547 190.962 158.188 185.917 158.215C180.859 158.188 177.755 156.547 177.769 153.676ZM179.902 153.676C179.888 155.439 182.185 156.506 185.917 156.492C189.636 156.506 191.933 155.439 191.933 153.676C191.933 151.898 189.636 150.832 185.917 150.832C182.185 150.832 179.888 151.898 179.902 153.676ZM219.729 153.32V155.098H197.471V153.32H207.479V148.07H200.096V135.629H202.256V140.031H214.889V135.629H216.994V148.07H209.584V153.32H219.729ZM202.256 146.32H214.889V141.781H202.256V146.32ZM249.835 153.32V155.098H227.577V153.32H237.585V148.07H230.202V135.629H232.362V140.031H244.995V135.629H247.101V148.07H239.691V153.32H249.835ZM232.362 146.32H244.995V141.781H232.362V146.32ZM272.216 137.516V139.293H252.31V137.516H261.224V134.316H263.33V137.516H272.216ZM251.216 155.371V153.594H261.224V150.176C256.89 149.943 254.279 148.262 254.306 145.527C254.279 142.643 257.328 140.934 262.291 140.961C267.185 140.934 270.289 142.643 270.275 145.527C270.289 148.262 267.623 149.943 263.33 150.176V153.594H273.474V155.371H251.216ZM256.466 145.527C256.439 147.373 258.668 148.439 262.291 148.453C265.873 148.439 268.101 147.373 268.088 145.527C268.101 143.723 265.873 142.656 262.291 142.656C258.668 142.656 256.439 143.723 256.466 145.527Z" fill="black"/>
<g clip-path="url(#clip0_250_991)">
<circle cx="200" cy="256" r="70" fill="#F2F3F7"/>
<path d="M199.674 302.966C199.404 302.966 199.135 302.934 198.877 302.869C198.489 302.773 160.4 292.698 160.4 252.955V223.939C160.4 222.879 160.928 221.884 161.811 221.284C162.693 220.684 163.824 220.567 164.814 220.952C168.184 222.28 171.651 222.954 175.106 222.954C183.697 222.954 191.729 219.003 197.122 212.119C197.736 211.337 198.672 210.877 199.674 210.877C200.675 210.877 201.611 211.337 202.225 212.119C207.619 219.003 215.65 222.954 224.241 222.954C227.697 222.954 231.152 222.28 234.533 220.952C235.523 220.556 236.654 220.684 237.536 221.284C238.419 221.884 238.947 222.879 238.947 223.939V252.955C238.947 292.773 200.847 302.773 200.459 302.869C200.201 302.934 199.932 302.966 199.674 302.966Z" fill="#EF403C"/>
<path d="M209.92 250.594H209.847V246.624C209.847 240.986 205.287 236.4 199.68 236.4C194.072 236.4 189.512 240.986 189.512 246.624V250.594H189.439C186.506 250.594 184.133 252.986 184.133 255.93V270.265C184.133 273.214 186.511 275.6 189.439 275.6H209.915C212.848 275.6 215.221 273.209 215.221 270.265V255.93C215.221 252.981 212.843 250.594 209.915 250.594H209.92ZM192.627 246.624C192.627 242.711 195.793 239.527 199.685 239.527C203.577 239.527 206.743 242.711 206.743 246.624V250.594H192.627V246.624ZM201.24 265.372V267.977C201.24 268.842 200.545 269.54 199.685 269.54C198.825 269.54 198.13 268.842 198.13 267.977V265.372C196.482 264.741 195.306 263.136 195.306 261.261C195.306 258.832 197.27 256.858 199.685 256.858C202.1 256.858 204.064 258.832 204.064 261.261C204.064 263.136 202.888 264.741 201.24 265.372Z" fill="white"/>
</g>
<path d="M132.158 358.984C132.147 362.922 134.033 366.789 137.408 368.266L135.838 370.352C133.447 369.18 131.76 366.93 130.857 364.152C129.932 367.082 128.197 369.52 125.76 370.75L124.119 368.641C127.576 367.023 129.498 362.945 129.51 358.984V355.609H132.158V358.984ZM135.065 362.852V360.742H139.518V353.898H142.096V375.109H139.518V362.852H135.065ZM162.217 353.898V375.109H159.592V353.898H162.217ZM145.717 370.117V355.633H148.319V360.93H153.452V355.633H156.03V370.117H145.717ZM148.319 367.984H153.452V362.969H148.319V367.984ZM175.8 356.805C175.8 360.074 178.999 363.367 183.44 364.141L182.269 366.32C178.718 365.582 175.812 363.426 174.429 360.578C173.034 363.402 170.128 365.57 166.589 366.32L165.44 364.141C169.812 363.344 173.022 360.062 173.034 356.805V355.234H175.8V356.805ZM164.855 372.391V370.234H184.214V372.391H164.855ZM207.957 353.898V375.109H205.332V353.898H207.957ZM191.012 362.922C191 358.352 193.332 355.445 196.543 355.445C199.719 355.445 202.062 358.352 202.074 362.922C202.062 367.527 199.719 370.422 196.543 370.422C193.332 370.422 191 367.527 191.012 362.922ZM193.52 362.922C193.52 366.18 194.75 368.066 196.543 368.078C198.324 368.066 199.543 366.18 199.543 362.922C199.543 359.688 198.324 357.789 196.543 357.789C194.75 357.789 193.52 359.688 193.52 362.922ZM229.907 364.094V366.18H210.594V364.094H215.094V361.41C213.489 360.73 212.586 359.664 212.586 358.281C212.586 355.738 215.551 354.25 220.227 354.25C224.891 354.25 227.856 355.738 227.868 358.281C227.856 359.676 226.942 360.742 225.336 361.41V364.094H229.907ZM212.844 371.242C212.844 368.805 215.598 367.445 220.227 367.469C224.786 367.445 227.551 368.805 227.563 371.242C227.551 373.703 224.786 375.039 220.227 375.039C215.598 375.039 212.844 373.703 212.844 371.242ZM215.305 358.281C215.282 359.57 217.098 360.262 220.227 360.25C223.344 360.262 225.172 359.57 225.172 358.281C225.172 356.98 223.344 356.254 220.227 356.266C217.098 356.254 215.282 356.98 215.305 358.281ZM215.493 371.242C215.481 372.438 217.145 373.082 220.227 373.07C223.262 373.082 224.938 372.438 224.961 371.242C224.938 370.059 223.262 369.449 220.227 369.438C217.145 369.449 215.481 370.059 215.493 371.242ZM217.719 364.094H222.735V362.078C221.973 362.184 221.129 362.242 220.227 362.242C219.325 362.242 218.481 362.184 217.719 362.078V364.094ZM244.087 358.984C244.064 362.875 246.115 366.766 249.548 368.242L248.001 370.328C245.564 369.203 243.783 366.965 242.798 364.199C241.826 367.176 239.997 369.613 237.431 370.82L235.837 368.641C239.365 367.117 241.427 363.074 241.439 358.984V355.609H244.087V358.984ZM251.072 375.109V353.898H253.697V375.109H251.072ZM274.615 353.898V375.086H272.107V353.898H274.615ZM256.545 363.062C256.545 358.398 258.35 355.504 261.115 355.516C263.682 355.504 265.428 357.906 265.732 361.867H267.771V354.273H270.256V374.055H267.771V363.977H265.756C265.51 368.113 263.74 370.645 261.115 370.633C258.35 370.645 256.545 367.738 256.545 363.062ZM258.959 363.062C258.947 366.379 259.768 368.16 261.115 368.148C262.521 368.16 263.353 366.379 263.365 363.062C263.353 359.758 262.521 357.965 261.115 357.977C259.768 357.965 258.947 359.758 258.959 363.062Z" fill="#EF403C"/>
<path d="M123.582 396.078V397.59H131.316V396.078H132.687V401.229H122.21V396.078H123.582ZM120.312 403.689V402.582H134.55V403.689H120.312ZM122.035 406.186V405.131H132.722V408.594H123.441V410.158H133.197V411.248H122.07V407.574H131.369V406.186H122.035ZM123.582 400.174H131.316V398.645H123.582V400.174ZM149.8 404.41V405.553H135.491V404.41H141.96V402.758H137.354V398.943H146.565V397.326H137.302V396.201H147.954V399.98H138.725V401.65H148.288V402.758H143.313V404.41H149.8ZM137.091 407.873V406.748H148.042V411.283H146.653V407.873H137.091ZM155.276 400.613C155.284 403.127 156.559 405.702 158.686 406.836L157.895 407.873C156.339 407.021 155.214 405.403 154.643 403.522C154.089 405.526 152.973 407.284 151.408 408.225L150.582 407.17C152.709 405.939 153.966 403.197 153.975 400.613V399.84H151.004V398.697H153.975V396.377H155.293V398.697H158.211V399.84H155.276V400.613ZM157.139 403.145V401.967H159.6V396.184H160.901V410.615H159.6V403.145H157.139ZM162.746 411.424V395.797H164.065V411.424H162.746ZM178.804 395.814V407.24H177.433V395.814H178.804ZM166.271 400.736C166.262 398.486 168.029 396.913 170.367 396.904C172.705 396.913 174.454 398.486 174.463 400.736C174.454 403.013 172.705 404.595 170.367 404.586C168.029 404.595 166.262 403.013 166.271 400.736ZM167.625 400.736C167.607 402.292 168.785 403.373 170.367 403.373C171.922 403.373 173.109 402.292 173.109 400.736C173.109 399.207 171.922 398.117 170.367 398.117C168.785 398.117 167.607 399.207 167.625 400.736ZM168.714 411.09V406.08H170.086V409.93H179.296V411.09H168.714ZM198.176 395.797V411.424H196.787V395.797H198.176ZM185.45 407.363C189.677 405.359 191.839 402.362 192.147 398.627H186.17V397.502H193.553C193.535 401.993 191.444 405.975 186.205 408.488L185.45 407.363ZM208.293 396.482C208.284 398.425 211.105 399.919 213.918 400.262L213.425 401.316C210.965 400.982 208.556 399.884 207.572 398.196C206.57 399.884 204.153 400.982 201.718 401.316L201.244 400.262C204.048 399.919 206.869 398.425 206.869 396.482V395.885H208.293V396.482ZM200.453 403.461V402.336H214.691V403.461H208.24V405.025H212.863V408.576H203.582V410.158H213.338V411.248H202.211V407.539H211.509V406.115H202.175V405.025H206.869V403.461H200.453ZM222.769 396.078C226.24 396.078 228.279 397.036 228.288 398.768C228.279 400.543 226.24 401.501 222.769 401.51C219.279 401.501 217.231 400.543 217.231 398.768C217.231 397.036 219.279 396.078 222.769 396.078ZM215.649 403.689V402.564H229.888V403.689H215.649ZM217.372 406.098V405.043H228.06V408.541H218.778V410.158H228.534V411.248H217.407V407.521H226.706V406.098H217.372ZM218.673 398.768C218.655 399.857 220.176 400.455 222.769 400.455C225.361 400.455 226.873 399.857 226.882 398.768C226.873 397.739 225.361 397.124 222.769 397.115C220.176 397.124 218.655 397.739 218.673 398.768ZM247.888 395.797V411.459H246.5V395.797H247.888ZM235.584 402.459C235.593 399.137 237.245 397.019 239.574 397.01C241.894 397.019 243.573 399.137 243.564 402.459C243.573 405.79 241.894 407.899 239.574 407.891C237.245 407.899 235.593 405.79 235.584 402.459ZM236.92 402.459C236.92 404.999 238.01 406.669 239.574 406.66C241.147 406.669 242.228 404.999 242.228 402.459C242.228 399.919 241.147 398.249 239.574 398.24C238.01 398.249 236.92 399.919 236.92 402.459ZM264.439 403.531V404.674H250.2V403.531H253.734V401.325C252.485 400.842 251.782 400.051 251.782 398.996C251.782 397.159 253.892 396.104 257.319 396.096C260.721 396.104 262.83 397.159 262.839 398.996C262.83 400.042 262.136 400.833 260.905 401.325V403.531H264.439ZM251.923 408.629C251.914 406.845 253.927 405.86 257.319 405.869C260.668 405.86 262.681 406.845 262.698 408.629C262.681 410.413 260.668 411.389 257.319 411.389C253.927 411.389 251.914 410.413 251.923 408.629ZM253.206 398.996C253.197 400.139 254.762 400.798 257.319 400.807C259.851 400.798 261.424 400.139 261.433 398.996C261.424 397.871 259.851 397.186 257.319 397.186C254.762 397.186 253.197 397.871 253.206 398.996ZM253.329 408.629C253.312 409.692 254.815 410.325 257.319 410.316C259.798 410.325 261.301 409.692 261.31 408.629C261.301 407.565 259.798 406.941 257.319 406.924C254.815 406.941 253.312 407.565 253.329 408.629ZM255.105 403.531H259.534V401.694C258.875 401.817 258.137 401.879 257.319 401.879C256.502 401.879 255.764 401.817 255.105 401.703V403.531ZM273.202 398.504V399.629H265.362V398.504H268.614V396.271H269.985V398.504H273.202ZM265.924 404.234C265.924 402.16 267.339 400.692 269.282 400.684C271.25 400.692 272.657 402.16 272.674 404.234C272.657 406.335 271.25 407.812 269.282 407.82C267.339 407.812 265.924 406.335 265.924 404.234ZM267.155 404.234C267.155 405.623 268.042 406.616 269.282 406.607C270.53 406.616 271.444 405.623 271.444 404.234C271.444 402.863 270.53 401.861 269.282 401.844C268.042 401.861 267.155 402.863 267.155 404.234ZM274.01 410.65V396.184H275.311V402.389H277.385V395.797H278.704V411.424H277.385V403.531H275.311V410.65H274.01ZM151.896 435.242V436.385H137.587V435.242H143.986V431.41H145.339V435.242H151.896ZM138.15 430.443C140.883 429.978 143.924 427.692 143.933 425.064V423.869H145.375V425.064C145.383 427.675 148.468 429.978 151.193 430.443L150.578 431.586C148.196 431.094 145.682 429.485 144.671 427.235C143.643 429.477 141.156 431.094 138.765 431.586L138.15 430.443ZM167.022 430.109V431.252H160.571V432.922C163.516 433.054 165.265 434.012 165.282 435.664C165.265 437.413 163.252 438.389 159.903 438.389C156.511 438.389 154.498 437.413 154.507 435.664C154.498 434.012 156.238 433.054 159.218 432.922V431.252H152.784V430.109H167.022ZM153.593 428.07C156.3 427.789 158.91 426.409 159.007 424.66H154.085V423.535H165.757V424.66H160.8C160.896 426.409 163.48 427.789 166.231 428.07L165.722 429.16C163.164 428.853 160.765 427.701 159.903 425.97C159.042 427.701 156.66 428.853 154.085 429.16L153.593 428.07ZM155.913 435.664C155.895 436.701 157.398 437.325 159.903 437.316C162.382 437.325 163.885 436.701 163.893 435.664C163.885 434.601 162.382 433.994 159.903 433.977C157.398 433.994 155.895 434.601 155.913 435.664ZM180.198 422.814V427.965H182.553V429.125H180.198V434.521H178.826V422.814H180.198ZM168.016 425.855V424.73H171.989V422.814H173.36V424.73H177.332V425.855H168.016ZM168.912 429.635C168.904 427.859 170.415 426.717 172.674 426.717C174.907 426.717 176.418 427.859 176.436 429.635C176.418 431.393 174.907 432.526 172.674 432.518C170.415 432.526 168.904 431.393 168.912 429.635ZM170.231 429.635C170.222 430.733 171.198 431.445 172.674 431.428C174.133 431.445 175.117 430.733 175.135 429.635C175.117 428.519 174.133 427.798 172.674 427.807C171.198 427.798 170.222 428.519 170.231 429.635ZM170.424 438.09V433.59H171.778V436.93H180.918V438.09H170.424ZM200.677 422.797V438.424H199.323V430.25H197.161V437.65H195.843V423.219H197.161V429.107H199.323V422.797H200.677ZM187.353 434.1C190.982 432.069 192.477 429.213 192.714 425.979H187.95V424.836H194.067C194.05 428.809 192.652 432.562 188.161 435.066L187.353 434.1ZM215.434 422.814V434.24H214.063V422.814H215.434ZM202.901 427.736C202.892 425.486 204.659 423.913 206.996 423.904C209.334 423.913 211.083 425.486 211.092 427.736C211.083 430.013 209.334 431.595 206.996 431.586C204.659 431.595 202.892 430.013 202.901 427.736ZM204.254 427.736C204.237 429.292 205.414 430.373 206.996 430.373C208.552 430.373 209.739 429.292 209.739 427.736C209.739 426.207 208.552 425.117 206.996 425.117C205.414 425.117 204.237 426.207 204.254 427.736ZM205.344 438.09V433.08H206.715V436.93H215.926V438.09H205.344ZM230.683 422.797V432.113H229.295V428.018H226.148V426.875H229.295V422.797H230.683ZM217.799 430.865C220.119 430.03 221.771 427.912 221.771 425.68V425.1H218.238V423.939H226.658V425.1H223.16V425.662C223.16 427.701 224.724 429.644 227.009 430.426L226.289 431.533C224.54 430.9 223.177 429.582 222.501 427.974C221.833 429.802 220.383 431.261 218.519 431.973L217.799 430.865ZM220.259 435.506C220.251 433.669 222.246 432.597 225.498 432.605C228.741 432.597 230.736 433.669 230.736 435.506C230.736 437.352 228.741 438.406 225.498 438.424C222.246 438.406 220.251 437.352 220.259 435.506ZM221.631 435.506C221.622 436.64 223.098 437.325 225.498 437.316C227.888 437.325 229.365 436.64 229.365 435.506C229.365 434.363 227.888 433.678 225.498 433.678C223.098 433.678 221.622 434.363 221.631 435.506ZM247.233 435.277V436.42H232.925V435.277H239.358V431.902H234.612V423.904H236.001V426.734H244.122V423.904H245.476V431.902H240.712V435.277H247.233ZM236.001 430.777H244.122V427.859H236.001V430.777ZM262.413 430.057V431.146H248.104V430.057H262.413ZM249.827 433.432V432.395H260.62V435.717H251.233V437.211H261.129V438.213H249.844V434.768H259.248V433.432H249.827ZM249.914 424.273V423.271H260.567V426.506H251.338V427.877H260.848V428.879H249.967V425.557H259.178V424.273H249.914ZM140.101 449.797V454.561H142.456V455.721H140.101V461.328H138.73V449.797H140.101ZM128.183 454.754C128.174 452.486 129.949 450.913 132.279 450.904C134.625 450.913 136.374 452.486 136.392 454.754C136.374 457.013 134.625 458.604 132.279 458.604C129.949 458.604 128.174 457.013 128.183 454.754ZM129.536 454.754C129.528 456.292 130.732 457.391 132.279 457.391C133.852 457.391 135.029 456.292 135.038 454.754C135.029 453.207 133.852 452.117 132.279 452.117C130.732 452.117 129.528 453.207 129.536 454.754ZM130.327 465.09V460.133H131.681V463.93H140.821V465.09H130.327ZM156.036 449.814V461.275H154.647V455.281H151.43V454.139H154.647V449.814H156.036ZM143.151 458.146C145.454 457.338 147.124 455.272 147.124 453.031V452.223H143.59V451.08H152.01V452.223H148.512V453.031C148.512 455.053 150.077 457.013 152.362 457.795L151.641 458.902C149.883 458.261 148.521 456.951 147.844 455.334C147.168 457.145 145.726 458.577 143.872 459.271L143.151 458.146ZM145.999 465.09V460.238H147.387V463.93H156.475V465.09H145.999ZM170.371 449.797V456.248H172.99V457.391H170.371V465.424H169V449.797H170.371ZM158.189 453.453V452.311H162.215V449.99H163.586V452.311H167.488V453.453H158.189ZM159.086 458.34C159.077 456.23 160.694 454.754 162.918 454.754C165.124 454.754 166.732 456.23 166.75 458.34C166.732 460.458 165.124 461.926 162.918 461.926C160.694 461.926 159.077 460.458 159.086 458.34ZM160.404 458.34C160.395 459.764 161.459 460.766 162.918 460.748C164.359 460.766 165.414 459.764 165.432 458.34C165.414 456.925 164.359 455.905 162.918 455.914C161.459 455.905 160.395 456.925 160.404 458.34ZM186.851 449.797V465.424H185.533V449.797H186.851ZM173.491 461.047C176.884 459.034 178.589 456.213 178.853 452.943H174.159V451.801H180.224C180.224 453.339 179.978 454.824 179.442 456.213H182.245V450.219H183.564V464.633H182.245V457.338H178.932C177.991 459.157 176.48 460.766 174.3 462.049L173.491 461.047ZM207.137 462.277V463.42H192.828V462.277H199.262V458.902H194.516V450.904H195.904V453.734H204.025V450.904H205.379V458.902H200.615V462.277H207.137ZM195.904 457.777H204.025V454.859H195.904V457.777ZM221.525 452.117V453.26H208.728V452.117H214.458V450.061H215.812V452.117H221.525ZM208.025 463.596V462.453H214.458V460.256C211.672 460.106 209.994 459.025 210.011 457.268C209.994 455.413 211.953 454.314 215.144 454.332C218.29 454.314 220.286 455.413 220.277 457.268C220.286 459.025 218.572 460.106 215.812 460.256V462.453H222.333V463.596H208.025ZM211.4 457.268C211.382 458.454 212.815 459.14 215.144 459.148C217.447 459.14 218.879 458.454 218.87 457.268C218.879 456.107 217.447 455.422 215.144 455.422C212.815 455.422 211.382 456.107 211.4 457.268ZM235.438 449.797V453.805H237.794V454.982H235.438V458.885H234.067V449.797H235.438ZM223.257 452.557V451.414H227.229V449.656H228.6V451.414H232.573V452.557H223.257ZM224.153 456.02C224.144 454.35 225.647 453.286 227.915 453.277C230.156 453.286 231.659 454.35 231.676 456.02C231.659 457.689 230.156 458.771 227.915 458.762C225.647 458.771 224.144 457.689 224.153 456.02ZM225.471 456.02C225.463 457.039 226.438 457.707 227.915 457.707C229.374 457.707 230.358 457.039 230.376 456.02C230.358 455.009 229.374 454.332 227.915 454.35C226.438 454.332 225.463 455.009 225.471 456.02ZM225.559 465.213V459.57H226.93V461.24H234.067V459.57H235.438V465.213H225.559ZM226.93 464.105H234.067V462.33H226.93V464.105ZM251.303 449.797V465.424H249.932V449.797H251.303ZM239.438 461.398V451.344H240.791V460.203C243.182 460.186 245.643 460.001 248.262 459.447L248.455 460.625C245.678 461.205 243.208 461.398 240.703 461.398H239.438ZM265.708 449.797V455.984H268.328V457.145H265.708V465.459H264.337V449.797H265.708ZM254.3 461.539V451.326H261.595V452.469H255.671V460.379C258.501 460.37 260.497 460.247 262.826 459.816L263.001 461.012C260.549 461.451 258.501 461.539 255.531 461.539H254.3ZM270.464 464.105C269.848 464.097 269.321 463.587 269.339 462.963C269.321 462.348 269.848 461.838 270.464 461.838C271.088 461.838 271.597 462.348 271.589 462.963C271.597 463.587 271.088 464.097 270.464 464.105Z" fill="#222222"/>
<circle cx="183" cy="515.5" r="4.5" fill="#323C59"/>
<circle cx="200" cy="515.5" r="4" fill="white" stroke="#323C59"/>
<circle cx="217" cy="515.5" r="4" fill="white" stroke="#323C59"/>
<defs>
<clipPath id="clip0_250_991">
<rect width="140" height="140" fill="white" transform="translate(130 186)"/>
</clipPath>
</defs>
</svg>
