<svg width="400" height="86" viewBox="0 0 400 86" fill="none" xmlns="http://www.w3.org/2000/svg">
<rect width="400" height="86" fill="white"/>
<rect x="20" width="360" height="56" rx="8" fill="#323C59"/>
<path d="M197.329 19.1797V24.375H199.829V25.8984H197.329V30.957H195.473V19.1797H197.329ZM183.442 29.0039C184.8 29.0039 186.372 29.0039 188.013 28.9648V27.7832C186.02 27.5586 184.751 26.6211 184.77 25.2148C184.751 23.6133 186.421 22.6172 188.93 22.6367C191.44 22.6172 193.081 23.6133 193.091 25.2148C193.081 26.6113 191.841 27.5488 189.868 27.7832V28.8965C191.43 28.8184 193.013 28.6914 194.477 28.4766L194.634 29.8047C190.874 30.459 186.723 30.4883 183.638 30.4883L183.442 29.0039ZM183.891 22.0508V20.6641H188.013V19.0234H189.868V20.6641H193.989V22.0508H183.891ZM185.63 33.2227V31.7773H197.329V36.6602H195.473V33.2227H185.63ZM186.528 25.2148C186.528 26.0352 187.436 26.5723 188.93 26.5625C190.405 26.5723 191.323 26.0352 191.313 25.2148C191.323 24.375 190.405 23.8867 188.93 23.9062C187.436 23.8867 186.528 24.375 186.528 25.2148ZM214.956 19.1797V31.8945H213.101V19.1797H214.956ZM200.796 24.6875C200.806 22.1582 202.818 20.3613 205.464 20.3516C208.101 20.3613 210.113 22.1582 210.113 24.6875C210.113 27.2559 208.101 29.043 205.464 29.043C202.818 29.043 200.806 27.2559 200.796 24.6875ZM202.613 24.6875C202.603 26.3379 203.833 27.4219 205.464 27.4219C207.066 27.4219 208.296 26.3379 208.296 24.6875C208.296 23.0762 207.066 21.9727 205.464 21.9727C203.833 21.9727 202.603 23.0762 202.613 24.6875ZM203.511 36.2891V30.6055H205.386V34.7852H215.484V36.2891H203.511Z" fill="white"/>
</svg>
