<svg width="400" height="162" viewBox="0 0 400 162" fill="none" xmlns="http://www.w3.org/2000/svg">
<rect width="360" height="50" transform="translate(20)" fill="#FF3A4A"/>
<path d="M143.325 31V18.9805H147.608C150.405 18.9805 151.775 20.6572 151.775 22.8818C151.775 25.0981 150.397 26.7832 147.608 26.7832H145.151V31H143.325ZM145.151 25.2227H147.426C149.194 25.231 149.932 24.2349 149.932 22.8818C149.932 21.5205 149.194 20.5493 147.426 20.541H145.151V25.2227ZM153.112 31H151.169L155.486 18.9805H157.594L161.927 31H159.985L158.889 27.8291H154.208L153.112 31ZM154.731 26.3018H158.358L156.582 21.1719H156.499L154.731 26.3018ZM169.556 22.1514C169.44 21.0308 168.46 20.3916 167.082 20.3916C165.613 20.3916 164.683 21.147 164.675 22.168C164.675 23.3052 165.912 23.7534 166.867 23.9775L168.029 24.293C169.564 24.6665 171.49 25.5049 171.498 27.6797C171.49 29.7134 169.871 31.1992 167.033 31.1992C164.343 31.1992 162.65 29.8545 162.534 27.6631H164.36C164.468 28.9746 165.63 29.5972 167.033 29.6055C168.568 29.5972 169.681 28.8252 169.689 27.6465C169.681 26.6006 168.684 26.1772 167.414 25.8369L165.987 25.4551C164.053 24.9238 162.857 23.9443 162.849 22.2676C162.857 20.1924 164.7 18.8145 167.132 18.8145C169.573 18.8145 171.274 20.209 171.332 22.1514H169.556ZM179.658 22.1514C179.542 21.0308 178.563 20.3916 177.185 20.3916C175.716 20.3916 174.786 21.147 174.778 22.168C174.778 23.3052 176.014 23.7534 176.969 23.9775L178.131 24.293C179.667 24.6665 181.593 25.5049 181.601 27.6797C181.593 29.7134 179.974 31.1992 177.135 31.1992C174.446 31.1992 172.752 29.8545 172.636 27.6631H174.462C174.57 28.9746 175.732 29.5972 177.135 29.6055C178.671 29.5972 179.783 28.8252 179.791 27.6465C179.783 26.6006 178.787 26.1772 177.517 25.8369L176.089 25.4551C174.155 24.9238 172.96 23.9443 172.951 22.2676C172.96 20.1924 174.802 18.8145 177.235 18.8145C179.675 18.8145 181.377 20.209 181.435 22.1514H179.658ZM196.152 29.3066V30.6348H182.539V29.3066H188.532V26.7002H184.199V21.9688H192.932V19.877H184.166V18.582H194.492V23.2305H185.76V25.4053H194.841V26.7002H190.093V29.3066H196.152ZM213.037 17.5527V28.3604H211.46V17.5527H213.037ZM201.001 22.2344C201.009 20.0845 202.719 18.5571 204.969 18.5488C207.21 18.5571 208.92 20.0845 208.92 22.2344C208.92 24.4175 207.21 25.9365 204.969 25.9365C202.719 25.9365 201.009 24.4175 201.001 22.2344ZM202.545 22.2344C202.536 23.6372 203.582 24.5586 204.969 24.5586C206.33 24.5586 207.376 23.6372 207.376 22.2344C207.376 20.8647 206.33 19.9268 204.969 19.9268C203.582 19.9268 202.536 20.8647 202.545 22.2344ZM203.308 32.0957V27.2646H204.902V30.8174H213.485V32.0957H203.308ZM228.618 24.542V25.8203H215.054V24.542H228.618ZM215.768 22.5166C218.466 22.2261 220.599 21.0142 220.774 19.5615H216.299V18.2666H227.406V19.5615H222.882C223.065 21.0059 225.165 22.2261 227.921 22.5166L227.356 23.7617C224.775 23.4629 222.641 22.3755 221.836 20.8066C221.014 22.3755 218.898 23.4629 216.316 23.7617L215.768 22.5166ZM216.665 29.6885C216.665 27.9619 218.599 26.9658 221.828 26.9658C225.032 26.9658 226.949 27.9619 226.958 29.6885C226.949 31.415 225.032 32.3862 221.828 32.3779C218.599 32.3862 216.665 31.415 216.665 29.6885ZM218.258 29.6885C218.25 30.6265 219.553 31.1411 221.828 31.1328C224.069 31.1411 225.38 30.6265 225.38 29.6885C225.38 28.7256 224.069 28.2109 221.828 28.1943C219.553 28.2109 218.25 28.7256 218.258 29.6885ZM240.995 17.5361V23.5625H243.385V24.874H240.995V32.4111H239.434V17.5361H240.995ZM229.324 21.1553V19.8604H232.993V17.7354H234.57V19.8604H238.139V21.1553H229.324ZM230.087 25.7041C230.087 23.6787 231.648 22.251 233.789 22.251C235.923 22.251 237.483 23.6787 237.492 25.7041C237.483 27.7461 235.923 29.1655 233.789 29.1738C231.648 29.1655 230.087 27.7461 230.087 25.7041ZM231.598 25.7041C231.59 26.999 232.519 27.8623 233.789 27.8457C235.051 27.8623 235.973 26.999 235.981 25.7041C235.973 24.4341 235.051 23.5542 233.789 23.5459C232.519 23.5542 231.59 24.4341 231.598 25.7041ZM256.127 17.5361V32.4111H254.533V17.5361H256.127ZM243.908 28.4268C247.86 26.5425 249.794 23.8613 250.101 20.3916H244.622V19.1299H251.695C251.695 23.4878 249.844 27.2563 244.739 29.7051L243.908 28.4268Z" fill="white"/>
<rect width="360" height="50" transform="translate(20 60)" fill="#373A3F"/>
<path d="M138.838 85.0566V86.335H132.928V89.2236H131.367V86.335H125.225V85.0566H138.838ZM126.918 92.0957V87.8125H128.495V90.8174H137.327V92.0957H126.918ZM126.968 83.5127V78.2334H137.078V83.5127H126.968ZM128.512 82.2676H135.518V79.4785H128.512V82.2676ZM144.773 81.9189C144.765 84.2681 146.317 86.8911 148.575 87.9619L147.679 89.1904C146.01 88.3936 144.682 86.7168 144.01 84.7744C143.329 86.8911 141.934 88.7256 140.241 89.5723L139.311 88.3271C141.569 87.2397 143.204 84.4341 143.213 81.9189V80.3418H139.859V79.0303H148.011V80.3418H144.773V81.9189ZM149.604 92.4111V77.5361H151.181V83.4297H153.572V84.7578H151.181V92.4111H149.604ZM154.842 86.418C154.859 83.2886 155.747 80.6904 157.299 78.4658H158.926C157.781 80.1094 156.685 83.4546 156.685 86.418C156.685 89.3896 157.781 92.7349 158.926 94.3867H157.299C155.747 92.1538 154.859 89.5557 154.842 86.418ZM166.904 82.1514C166.788 81.0308 165.808 80.3916 164.43 80.3916C162.961 80.3916 162.031 81.147 162.023 82.168C162.023 83.3052 163.26 83.7534 164.214 83.9775L165.376 84.293C166.912 84.6665 168.838 85.5049 168.846 87.6797C168.838 89.7134 167.219 91.1992 164.38 91.1992C161.691 91.1992 159.998 89.8545 159.881 87.6631H161.708C161.815 88.9746 162.978 89.5972 164.38 89.6055C165.916 89.5972 167.028 88.8252 167.037 87.6465C167.028 86.6006 166.032 86.1772 164.762 85.8369L163.334 85.4551C161.4 84.9238 160.205 83.9443 160.197 82.2676C160.205 80.1924 162.048 78.8145 164.48 78.8145C166.92 78.8145 168.622 80.209 168.68 82.1514H166.904ZM170.465 78.9805H172.69L176.492 88.2939H176.641L180.443 78.9805H182.667V91H180.924V82.3174H180.808L177.288 90.9834H175.844L172.308 82.3008H172.208V91H170.465V78.9805ZM191.325 82.1514C191.209 81.0308 190.23 80.3916 188.852 80.3916C187.382 80.3916 186.453 81.147 186.444 82.168C186.444 83.3052 187.681 83.7534 188.636 83.9775L189.798 84.293C191.334 84.6665 193.259 85.5049 193.268 87.6797C193.259 89.7134 191.641 91.1992 188.802 91.1992C186.112 91.1992 184.419 89.8545 184.303 87.6631H186.129C186.237 88.9746 187.399 89.5972 188.802 89.6055C190.338 89.5972 191.45 88.8252 191.458 87.6465C191.45 86.6006 190.454 86.1772 189.184 85.8369L187.756 85.4551C185.822 84.9238 184.627 83.9443 184.618 82.2676C184.627 80.1924 186.469 78.8145 188.902 78.8145C191.342 78.8145 193.044 80.209 193.102 82.1514H191.325ZM198.29 86.418C198.273 89.5557 197.385 92.1538 195.833 94.3867H194.206C195.352 92.7349 196.447 89.3896 196.447 86.418C196.447 83.4546 195.352 80.1094 194.206 78.4658H195.833C197.385 80.6904 198.273 83.2886 198.29 86.418ZM213.556 89.3066V90.6348H199.942V89.3066H205.935V86.7002H201.602V81.9688H210.335V79.877H201.569V78.582H211.895V83.2305H203.163V85.4053H212.244V86.7002H207.496V89.3066H213.556ZM230.44 77.5527V88.3604H228.863V77.5527H230.44ZM218.404 82.2344C218.412 80.0845 220.122 78.5571 222.372 78.5488C224.613 78.5571 226.323 80.0845 226.323 82.2344C226.323 84.4175 224.613 85.9365 222.372 85.9365C220.122 85.9365 218.412 84.4175 218.404 82.2344ZM219.948 82.2344C219.939 83.6372 220.985 84.5586 222.372 84.5586C223.733 84.5586 224.779 83.6372 224.779 82.2344C224.779 80.8647 223.733 79.9268 222.372 79.9268C220.985 79.9268 219.939 80.8647 219.948 82.2344ZM220.711 92.0957V87.2646H222.305V90.8174H230.888V92.0957H220.711ZM246.021 84.542V85.8203H232.457V84.542H246.021ZM233.171 82.5166C235.869 82.2261 238.002 81.0142 238.177 79.5615H233.702V78.2666H244.809V79.5615H240.285C240.468 81.0059 242.568 82.2261 245.324 82.5166L244.759 83.7617C242.178 83.4629 240.044 82.3755 239.239 80.8066C238.417 82.3755 236.301 83.4629 233.719 83.7617L233.171 82.5166ZM234.068 89.6885C234.068 87.9619 236.002 86.9658 239.231 86.9658C242.435 86.9658 244.352 87.9619 244.361 89.6885C244.352 91.415 242.435 92.3862 239.231 92.3779C236.002 92.3862 234.068 91.415 234.068 89.6885ZM235.661 89.6885C235.653 90.6265 236.956 91.1411 239.231 91.1328C241.472 91.1411 242.784 90.6265 242.784 89.6885C242.784 88.7256 241.472 88.2109 239.231 88.1943C236.956 88.2109 235.653 88.7256 235.661 89.6885ZM258.398 77.5361V83.5625H260.788V84.874H258.398V92.4111H256.837V77.5361H258.398ZM246.727 81.1553V79.8604H250.396V77.7354H251.973V79.8604H255.542V81.1553H246.727ZM247.49 85.7041C247.49 83.6787 249.051 82.251 251.193 82.251C253.326 82.251 254.886 83.6787 254.895 85.7041C254.886 87.7461 253.326 89.1655 251.193 89.1738C249.051 89.1655 247.49 87.7461 247.49 85.7041ZM249.001 85.7041C248.993 86.999 249.923 87.8623 251.193 87.8457C252.454 87.8623 253.376 86.999 253.384 85.7041C253.376 84.4341 252.454 83.5542 251.193 83.5459C249.923 83.5542 248.993 84.4341 249.001 85.7041ZM273.53 77.5361V92.4111H271.937V77.5361H273.53ZM261.312 88.4268C265.263 86.5425 267.197 83.8613 267.504 80.3916H262.025V79.1299H269.098C269.098 83.4878 267.247 87.2563 262.142 89.7051L261.312 88.4268Z" fill="white"/>
<rect width="400" height="27" transform="translate(0 125)" fill="#F4F4F4"/>
<path d="M17.2607 133.32V142.892H16.4121V133.32H17.2607ZM9.74121 137.392C9.74658 135.361 10.7563 134.067 12.1797 134.062C13.5977 134.067 14.6235 135.361 14.6182 137.392C14.6235 139.427 13.5977 140.716 12.1797 140.711C10.7563 140.716 9.74658 139.427 9.74121 137.392ZM10.5576 137.392C10.5576 138.944 11.2236 139.964 12.1797 139.959C13.1411 139.964 13.8018 138.944 13.8018 137.392C13.8018 135.839 13.1411 134.819 12.1797 134.813C11.2236 134.819 10.5576 135.839 10.5576 137.392ZM27.3747 138.047V138.745H18.6736V138.047H20.8327V136.699C20.07 136.403 19.6404 135.92 19.6404 135.275C19.6404 134.153 20.9294 133.508 23.0241 133.503C25.1028 133.508 26.3918 134.153 26.3972 135.275C26.3918 135.915 25.9675 136.398 25.2155 136.699V138.047H27.3747ZM19.7263 141.162C19.7209 140.072 20.9509 139.47 23.0241 139.476C25.0705 139.47 26.3005 140.072 26.3112 141.162C26.3005 142.252 25.0705 142.849 23.0241 142.849C20.9509 142.849 19.7209 142.252 19.7263 141.162ZM20.5105 135.275C20.5051 135.974 21.4612 136.376 23.0241 136.382C24.571 136.376 25.5324 135.974 25.5378 135.275C25.5324 134.588 24.571 134.169 23.0241 134.169C21.4612 134.169 20.5051 134.588 20.5105 135.275ZM20.5857 141.162C20.5749 141.812 21.4934 142.199 23.0241 142.193C24.5388 142.199 25.4572 141.812 25.4626 141.162C25.4572 140.512 24.5388 140.131 23.0241 140.12C21.4934 140.131 20.5749 140.512 20.5857 141.162ZM21.6706 138.047H24.3777V136.924C23.9748 137 23.5237 137.037 23.0241 137.037C22.5246 137.037 22.0735 137 21.6706 136.93V138.047ZM36.8442 134.803V135.49H35.4262V136.833H36.8442V137.553H35.4262V139.003H34.5883V133.32H35.4262V134.803H36.8442ZM28.143 136.146C28.1376 134.819 29.2011 133.895 30.6459 133.9C32.1015 133.895 33.1489 134.819 33.1596 136.146C33.1489 137.488 32.1015 138.407 30.6459 138.412C29.2011 138.407 28.1376 137.488 28.143 136.146ZM28.9702 136.146C28.9648 137.064 29.6791 137.692 30.6459 137.682C31.6235 137.692 32.3271 137.064 32.3325 136.146C32.3271 135.249 31.6235 134.625 30.6459 134.62C29.6791 134.625 28.9648 135.249 28.9702 136.146ZM29.1743 140.142V139.443H35.4262V142.87H34.5883V140.142H29.1743ZM42.5431 134.062V134.566C42.5378 135.195 42.5378 136.146 42.2961 137.392L41.4474 137.327C41.6784 136.188 41.6999 135.377 41.7106 134.771H37.7843V134.062H42.5431ZM37.1935 138.283C37.8112 138.283 38.5094 138.278 39.2453 138.256V136.178H40.0832V138.229C41.1413 138.187 42.237 138.111 43.2306 137.972L43.2843 138.595C41.2809 138.938 38.9821 138.976 37.2795 138.981L37.1935 138.283ZM38.6652 142.666V139.862H39.5138V141.957H45.0461V142.666H38.6652ZM43.8752 140.507V133.32H44.7345V136.436H46.131V137.155H44.7345V140.507H43.8752ZM50.7721 133.127V143.096H49.9771V133.127H50.7721ZM62.9112 133.32V142.87H62.084V137.875H60.7627V142.397H59.9571V133.578H60.7627V137.177H62.084V133.32H62.9112ZM54.7686 140.228C56.9869 138.987 57.8999 137.241 58.045 135.265H55.1338V134.566H58.8721C58.8614 136.994 58.0074 139.288 55.2627 140.818L54.7686 140.228ZM71.9295 133.331V140.313H71.0916V133.331H71.9295ZM64.2703 136.339C64.2649 134.964 65.3445 134.002 66.7732 133.997C68.2019 134.002 69.2708 134.964 69.2761 136.339C69.2708 137.73 68.2019 138.697 66.7732 138.691C65.3445 138.697 64.2649 137.73 64.2703 136.339ZM65.0974 136.339C65.0867 137.29 65.8064 137.95 66.7732 137.95C67.7239 137.95 68.449 137.29 68.449 136.339C68.449 135.404 67.7239 134.738 66.7732 134.738C65.8064 134.738 65.0867 135.404 65.0974 136.339ZM65.7634 142.666V139.604H66.6013V141.957H72.2302V142.666H65.7634ZM81.2485 133.32V139.014H80.3999V136.511H78.477V135.812H80.3999V133.32H81.2485ZM73.3745 138.251C74.7925 137.741 75.8022 136.446 75.8022 135.082V134.728H73.643V134.019H78.7886V134.728H76.6509V135.071C76.6509 136.317 77.6069 137.504 79.0034 137.982L78.563 138.659C77.4941 138.272 76.6616 137.467 76.248 136.484C75.8398 137.601 74.9536 138.493 73.8149 138.928L73.3745 138.251ZM74.8784 141.087C74.873 139.964 76.0923 139.309 78.0796 139.314C80.0615 139.309 81.2807 139.964 81.2807 141.087C81.2807 142.215 80.0615 142.859 78.0796 142.87C76.0923 142.859 74.873 142.215 74.8784 141.087ZM75.7163 141.087C75.7109 141.78 76.6133 142.199 78.0796 142.193C79.5405 142.199 80.4429 141.78 80.4429 141.087C80.4429 140.389 79.5405 139.97 78.0796 139.97C76.6133 139.97 75.7109 140.389 75.7163 141.087ZM91.3625 140.947V141.646H82.6184V140.947H86.55V138.885H83.6496V133.997H84.4982V135.727H89.4611V133.997H90.2883V138.885H87.3772V140.947H91.3625ZM84.4982 138.197H89.4611V136.414H84.4982V138.197ZM99.8222 133.32V142.892H98.9736V137.864H96.8788V137.166H98.9736V133.32H99.8222ZM91.9267 140.367C93.3285 139.712 94.3759 138.079 94.3759 136.436V135.673H92.1845V134.985H94.3759V133.503H95.2138V134.985H97.373V135.673H95.203V136.436C95.203 138.009 96.2826 139.562 97.6952 140.195L97.2118 140.851C96.1215 140.356 95.2245 139.309 94.8002 138.052C94.3866 139.384 93.5004 140.496 92.4101 141.022L91.9267 140.367ZM109.077 133.32V142.892H108.239V133.32H109.077ZM101.729 134.91V134.212H106.176V137.606H102.61V139.862C104.194 139.868 105.607 139.792 107.315 139.519L107.401 140.228C105.645 140.501 104.194 140.571 102.546 140.571H101.751V136.919H105.328V134.91H101.729ZM114.883 139.325C116.844 139.325 118.031 139.97 118.031 141.087C118.031 142.215 116.844 142.859 114.883 142.87C112.917 142.859 111.72 142.215 111.714 141.087C111.72 139.97 112.917 139.325 114.883 139.325ZM110.887 138.326V133.922H111.714V135.383H114.496V133.922H115.334V138.326H110.887ZM111.714 137.639H114.496V136.049H111.714V137.639ZM112.563 141.087C112.552 141.774 113.444 142.183 114.883 142.183C116.328 142.183 117.209 141.774 117.214 141.087C117.209 140.405 116.328 140.002 114.883 139.991C113.444 140.002 112.552 140.405 112.563 141.087ZM117.107 139.067V133.32H117.945V135.727H119.384V136.446H117.945V139.067H117.107ZM123.235 135.265C123.23 136.479 124.277 137.547 125.706 137.961L125.309 138.627C124.175 138.289 123.273 137.553 122.833 136.602C122.414 137.644 121.511 138.45 120.367 138.831L119.959 138.176C121.377 137.714 122.398 136.559 122.398 135.265V135.136H120.195V134.459H122.398V133.277H123.246V134.459H125.427V135.136H123.235V135.265ZM121.441 142.741V139.476H127.65V142.741H121.441ZM122.269 142.054H126.823V140.163H122.269V142.054ZM126.813 138.992V133.331H127.65V138.992H126.813ZM133.291 133.127V143.096H132.496V133.127H133.291ZM143.056 136.65C142.723 135.651 141.965 135.018 140.853 135.018C139.478 135.018 138.388 136.103 138.383 138.111C138.388 140.115 139.478 141.2 140.918 141.205C142.228 141.2 143.136 140.33 143.152 138.949H141.122V138.101H144.098V138.938C144.098 140.867 142.771 142.107 140.918 142.107C138.839 142.107 137.443 140.571 137.448 138.111C137.443 135.651 138.855 134.115 140.853 134.115C142.497 134.115 143.765 135.146 144.055 136.65H143.056ZM146.133 134.223V142H145.21V134.223H146.133ZM149.77 142.118C148.18 142.124 147.106 140.92 147.106 139.11C147.106 137.29 148.18 136.092 149.77 136.092C151.354 136.092 152.418 137.29 152.413 139.11C152.418 140.92 151.354 142.124 149.77 142.118ZM148.03 139.11C148.035 140.276 148.583 141.302 149.77 141.302C150.946 141.302 151.489 140.276 151.489 139.11C151.489 137.95 150.946 136.908 149.77 136.908C148.583 136.908 148.035 137.95 148.03 139.11ZM153.525 142V134.223H154.448V137.091H154.524C154.722 136.779 155.071 136.092 156.21 136.092C157.671 136.092 158.697 137.252 158.702 139.1C158.697 140.953 157.671 142.124 156.221 142.118C155.104 142.124 154.722 141.431 154.524 141.108H154.416V142H153.525ZM154.427 139.078C154.427 140.389 155.018 141.291 156.081 141.291C157.193 141.291 157.762 140.319 157.768 139.078C157.762 137.859 157.209 136.919 156.081 136.919C155.007 136.919 154.427 137.784 154.427 139.078ZM159.406 140.346C159.406 139.008 160.588 138.702 161.598 138.627C161.973 138.6 162.913 138.546 163.177 138.541V138.068C163.177 137.327 162.736 136.897 161.855 136.897C161.119 136.897 160.674 137.236 160.545 137.682H159.578C159.696 136.742 160.609 136.092 161.898 136.092C162.661 136.092 164.095 136.317 164.09 138.154V142H163.177V141.205H163.134C162.94 141.597 162.409 142.134 161.393 142.14C160.287 142.134 159.406 141.484 159.406 140.346ZM160.33 140.389C160.335 141.006 160.846 141.318 161.555 141.312C162.597 141.318 163.177 140.62 163.177 139.884V139.298C162.903 139.314 161.984 139.384 161.705 139.4C160.867 139.454 160.335 139.75 160.33 140.389ZM166.276 134.223V142H165.352V134.223H166.276ZM171.889 136.178C171.808 135.415 171.099 134.975 170.17 134.975C169.139 134.975 168.468 135.512 168.462 136.253C168.468 137.069 169.375 137.375 169.966 137.521L170.74 137.735C171.572 137.95 172.942 138.428 172.942 139.884C172.942 141.151 171.921 142.134 170.116 142.14C168.441 142.134 167.404 141.27 167.313 139.98H168.301C168.382 140.851 169.193 141.264 170.116 141.259C171.191 141.264 171.996 140.711 171.996 139.862C171.996 139.105 171.277 138.815 170.46 138.584L169.504 138.326C168.285 137.972 167.522 137.349 167.528 136.296C167.522 134.98 168.693 134.115 170.202 134.115C171.712 134.115 172.797 134.996 172.834 136.178H171.889ZM173.989 142V136.167H174.913V142H173.989ZM173.807 134.588C173.801 134.244 174.097 133.97 174.451 133.976C174.806 133.97 175.101 134.244 175.106 134.588C175.101 134.926 174.806 135.2 174.451 135.2C174.097 135.2 173.801 134.926 173.807 134.588ZM178.528 144.31C177.115 144.31 176.159 143.692 176.057 142.612H177.024C177.148 143.208 177.701 143.504 178.528 143.504C179.527 143.504 180.139 143.069 180.139 142.107V140.926H180.064C179.865 141.248 179.495 141.909 178.367 141.914C176.949 141.909 175.885 140.84 175.885 139.003C175.885 137.209 176.911 136.092 178.378 136.092C179.511 136.092 179.876 136.779 180.086 137.091H180.161V136.167H181.063V142.161C181.058 143.665 179.951 144.31 178.528 144.31ZM176.82 139.035C176.82 140.244 177.389 141.087 178.496 141.087C179.565 141.087 180.155 140.319 180.161 139.035C180.155 137.784 179.581 136.919 178.496 136.919C177.373 136.919 176.82 137.859 176.82 139.035ZM183.239 138.498V142H182.315V136.167H183.206V137.08H183.282C183.556 136.484 184.103 136.092 184.99 136.092C186.171 136.092 186.961 136.812 186.956 138.294V142H186.032V138.358C186.032 137.456 185.538 136.919 184.71 136.919C183.862 136.919 183.239 137.488 183.239 138.498ZM190.748 142L190.737 141.291L193.391 138.498C194.309 137.521 194.749 136.994 194.755 136.274C194.749 135.474 194.083 134.958 193.208 134.953C192.279 134.958 191.699 135.544 191.693 136.414H190.78C190.769 135.039 191.833 134.115 193.24 134.115C194.653 134.115 195.652 135.066 195.657 136.274C195.652 137.145 195.249 137.821 193.874 139.239L192.091 141.076V141.141H195.797V142H190.748ZM199.519 142.107C198.117 142.107 197.054 141.243 196.995 140.045H197.929C197.999 140.738 198.676 141.253 199.519 141.259C200.529 141.253 201.259 140.518 201.259 139.54C201.259 138.53 200.502 137.784 199.455 137.778C198.799 137.768 198.289 137.972 198.004 138.477H197.07L197.618 134.223H201.829V135.082H198.423L198.133 137.359H198.209C198.558 137.091 199.079 136.908 199.627 136.908C201.109 136.908 202.199 138.004 202.205 139.519C202.199 141.022 201.071 142.107 199.519 142.107ZM206.034 142.107C204.686 142.091 203.199 141.291 203.199 138.412C203.199 135.657 204.326 134.115 206.153 134.115C207.522 134.115 208.478 134.958 208.677 136.178H207.721C207.544 135.49 207.017 134.975 206.153 134.975C204.874 134.975 204.106 136.065 204.112 137.939H204.208C204.654 137.29 205.368 136.908 206.206 136.908C207.587 136.908 208.742 137.982 208.742 139.486C208.742 140.953 207.673 142.124 206.034 142.107ZM204.241 139.508C204.246 140.421 204.992 141.253 206.034 141.259C207.039 141.253 207.802 140.464 207.807 139.497C207.802 138.541 207.071 137.762 206.056 137.757C205.035 137.762 204.251 138.589 204.241 139.508ZM216.766 136.178C216.686 135.415 215.977 134.975 215.048 134.975C214.016 134.975 213.345 135.512 213.34 136.253C213.345 137.069 214.253 137.375 214.844 137.521L215.617 137.735C216.449 137.95 217.819 138.428 217.819 139.884C217.819 141.151 216.799 142.134 214.994 142.14C213.318 142.134 212.282 141.27 212.19 139.98H213.178C213.259 140.851 214.07 141.264 214.994 141.259C216.068 141.264 216.874 140.711 216.874 139.862C216.874 139.105 216.154 138.815 215.338 138.584L214.382 138.326C213.162 137.972 212.4 137.349 212.405 136.296C212.4 134.98 213.571 134.115 215.08 134.115C216.589 134.115 217.674 134.996 217.712 136.178H216.766ZM223.228 136.178C223.147 135.415 222.438 134.975 221.509 134.975C220.478 134.975 219.807 135.512 219.801 136.253C219.807 137.069 220.714 137.375 221.305 137.521L222.079 137.735C222.911 137.95 224.281 138.428 224.281 139.884C224.281 141.151 223.26 142.134 221.456 142.14C219.78 142.134 218.743 141.27 218.652 139.98H219.64C219.721 140.851 220.532 141.264 221.456 141.259C222.53 141.264 223.335 140.711 223.335 139.862C223.335 139.105 222.616 138.815 221.799 138.584L220.843 138.326C219.624 137.972 218.861 137.349 218.867 136.296C218.861 134.98 220.032 134.115 221.541 134.115C223.051 134.115 224.136 134.996 224.173 136.178H223.228ZM225.446 142V134.223H226.413V141.141H230.023V142H225.446ZM240.626 133.32V135.684H242.065V136.371H240.626V138.853H239.788V133.32H240.626ZM233.342 136.146C233.337 134.813 234.401 133.895 235.845 133.9C237.301 133.895 238.348 134.813 238.359 136.146C238.348 137.472 237.301 138.385 235.845 138.391C234.401 138.385 233.337 137.472 233.342 136.146ZM234.17 136.146C234.164 137.048 234.879 137.671 235.845 137.682C236.823 137.671 237.527 137.048 237.532 136.146C237.527 135.249 236.823 134.609 235.845 134.62C234.879 134.609 234.164 135.249 234.17 136.146ZM234.599 142.741V139.304H240.626V142.741H234.599ZM235.426 142.054H239.788V139.991H235.426V142.054ZM250.697 134.738V135.437H242.876V134.738H246.378V133.481H247.205V134.738H250.697ZM242.447 141.753V141.055H246.378V139.712C244.676 139.621 243.65 138.96 243.661 137.886C243.65 136.752 244.848 136.081 246.797 136.092C248.72 136.081 249.939 136.752 249.934 137.886C249.939 138.96 248.892 139.621 247.205 139.712V141.055H251.191V141.753H242.447ZM244.509 137.886C244.498 138.611 245.374 139.03 246.797 139.035C248.204 139.03 249.08 138.611 249.075 137.886C249.08 137.177 248.204 136.758 246.797 136.758C245.374 136.758 244.498 137.177 244.509 137.886ZM259.146 133.32V137.392H260.671V138.101H259.146V142.87H258.297V133.32H259.146ZM251.615 140.324C252.394 140.324 253.302 140.319 254.247 140.292V139.239C253.135 139.11 252.41 138.455 252.421 137.51C252.41 136.43 253.323 135.732 254.677 135.737C256.009 135.732 256.938 136.43 256.943 137.51C256.938 138.46 256.202 139.11 255.096 139.239V140.26C255.982 140.217 256.884 140.142 257.717 140.023L257.771 140.668C255.687 141.022 253.431 141.044 251.755 141.044L251.615 140.324ZM251.787 135.179V134.491H254.247V133.342H255.096V134.491H257.545V135.179H251.787ZM253.205 137.51C253.211 138.17 253.791 138.605 254.677 138.595C255.547 138.605 256.132 138.17 256.138 137.51C256.132 136.844 255.547 136.393 254.677 136.393C253.791 136.393 253.211 136.844 253.205 137.51ZM266.88 135.082C266.88 136.323 267.836 137.51 269.233 137.993L268.792 138.659C267.718 138.272 266.886 137.472 266.478 136.489C266.064 137.585 265.178 138.466 264.044 138.885L263.604 138.219C265.011 137.714 266.032 136.441 266.032 135.093V134.674H263.873V133.986H269.018V134.674H266.88V135.082ZM265.054 140.249V139.551H271.478V142.87H270.629V140.249H265.054ZM268.717 136.532V135.823H270.629V133.32H271.478V139.046H270.629V136.532H268.717ZM281.549 138.047V138.745H272.848V138.047H275.007V136.699C274.244 136.403 273.815 135.92 273.815 135.275C273.815 134.153 275.104 133.508 277.198 133.503C279.277 133.508 280.566 134.153 280.572 135.275C280.566 135.915 280.142 136.398 279.39 136.699V138.047H281.549ZM273.901 141.162C273.895 140.072 275.125 139.47 277.198 139.476C279.245 139.47 280.475 140.072 280.486 141.162C280.475 142.252 279.245 142.849 277.198 142.849C275.125 142.849 273.895 142.252 273.901 141.162ZM274.685 135.275C274.679 135.974 275.635 136.376 277.198 136.382C278.745 136.376 279.707 135.974 279.712 135.275C279.707 134.588 278.745 134.169 277.198 134.169C275.635 134.169 274.679 134.588 274.685 135.275ZM274.76 141.162C274.749 141.812 275.668 142.199 277.198 142.193C278.713 142.199 279.632 141.812 279.637 141.162C279.632 140.512 278.713 140.131 277.198 140.12C275.668 140.131 274.749 140.512 274.76 141.162ZM275.845 138.047H278.552V136.924C278.149 137 277.698 137.037 277.198 137.037C276.699 137.037 276.248 137 275.845 136.93V138.047Z" fill="#555555"/>
<path d="M326.432 133.953V136.59H327.555V137.859H326.432V140.682H324.859V133.953H326.432ZM319.195 136.014V134.803H321.08V133.934H322.652V134.803H324.537V136.014H319.195ZM319.586 138.006C319.581 136.946 320.538 136.219 321.861 136.219C323.185 136.219 324.117 136.946 324.117 138.006C324.117 139.061 323.185 139.773 321.861 139.764C320.538 139.773 319.581 139.061 319.586 138.006ZM320.445 142.84V140.174H322.018V141.59H326.695V142.84H320.445ZM321.119 138.006C321.114 138.416 321.412 138.592 321.861 138.592C322.32 138.592 322.628 138.416 322.633 138.006C322.628 137.596 322.32 137.405 321.861 137.4C321.412 137.405 321.114 137.596 321.119 138.006ZM334.991 134.305V135.057C334.996 135.711 334.996 136.448 334.835 137.352H335.9V138.592H332.55V139.646H334.962V142.967H333.4V140.857H328.458V139.646H330.968V138.592H327.648V137.352H333.253C333.385 136.648 333.414 136.077 333.424 135.545H328.634V134.305H334.991ZM344.342 140.711V141.98H336.09V140.711H339.43V139.09H336.901V134.549H343.493V139.09H340.983V140.711H344.342ZM338.454 137.879H341.94V135.799H338.454V137.879ZM351.74 133.934V137.205H352.961V138.494H351.74V142.967H350.168V133.934H351.74ZM344.767 140.926V134.627H346.33V136.697H347.716V134.627H349.279V140.926H344.767ZM346.33 139.666H347.716V137.908H346.33V139.666ZM355.544 134.168C356.94 134.163 358.005 135.047 358.005 136.268C358.005 137.479 356.94 138.357 355.544 138.357C354.138 138.357 353.063 137.479 353.073 136.268C353.063 135.047 354.138 134.163 355.544 134.168ZM354.421 139.92V138.729H360.593V141.355H355.973V141.668H360.788V142.889H354.44V140.232H359.03V139.92H354.421ZM354.587 136.268C354.577 136.829 354.987 137.103 355.544 137.107C356.096 137.103 356.496 136.829 356.491 136.268C356.496 135.706 356.096 135.438 355.544 135.428C354.992 135.438 354.577 135.706 354.587 136.268ZM359.02 138.396V133.934H360.593V138.396H359.02ZM369.035 133.953V140.369H367.463V133.953H369.035ZM361.516 136.805C361.506 135.467 362.634 134.485 364.045 134.49C365.451 134.485 366.579 135.467 366.574 136.805C366.579 138.167 365.451 139.134 364.045 139.139C362.634 139.134 361.506 138.167 361.516 136.805ZM362.854 142.84V139.725H364.436V141.59H369.25V142.84H362.854ZM363.039 136.805C363.034 137.464 363.469 137.776 364.045 137.781C364.592 137.776 365.021 137.464 365.021 136.805C365.021 136.17 364.592 135.843 364.045 135.848C363.469 135.843 363.034 136.17 363.039 136.805ZM378.103 138.016V139.266H369.861V138.016H378.103ZM370.154 136.6C371.775 136.468 372.492 136.004 372.756 135.564H370.612V134.324H377.351V135.564H375.183C375.437 136.004 376.154 136.468 377.82 136.6L377.282 137.82C375.476 137.674 374.431 137.063 373.962 136.268C373.498 137.059 372.478 137.674 370.671 137.82L370.154 136.6ZM370.769 141.287C370.774 140.213 371.975 139.588 373.962 139.588C375.935 139.588 377.121 140.213 377.126 141.287C377.121 142.371 375.935 142.986 373.962 142.986C371.975 142.986 370.774 142.371 370.769 141.287ZM372.37 141.287C372.361 141.653 372.839 141.775 373.962 141.775C375.051 141.775 375.554 141.653 375.554 141.287C375.554 140.921 375.051 140.789 373.962 140.789C372.839 140.789 372.361 140.921 372.37 141.287ZM387.014 143.143C387.566 142.161 388.176 140.223 388.176 138.465C388.176 136.702 387.566 134.764 387.014 133.777H388.459C389.221 135.105 389.714 136.629 389.709 138.465C389.714 140.296 389.221 141.819 388.459 143.143H387.014ZM378.811 138.465C378.806 136.629 379.299 135.105 380.061 133.777H381.506C380.954 134.764 380.344 136.702 380.344 138.465C380.344 140.223 380.954 142.161 381.506 143.143H380.061C379.299 141.819 378.806 140.296 378.811 138.465ZM381.125 139.549V138.514H387.395V139.549H384.885V141.717H383.577V139.549H381.125ZM381.36 137.264C382.805 137.117 383.298 136.609 383.44 136.15H381.662V135.145H386.868V136.15H385.09C385.227 136.609 385.705 137.117 387.161 137.264L386.692 138.289C385.422 138.152 384.665 137.713 384.26 137.122C383.86 137.713 383.103 138.152 381.838 138.289L381.36 137.264Z" fill="#333333"/>
</svg>
