<svg width="400" height="86" viewBox="0 0 400 86" fill="none" xmlns="http://www.w3.org/2000/svg">
<rect width="400" height="86" fill="white"/>
<rect x="20" width="360" height="56" rx="8" fill="#323C59"/>
<path d="M197.192 19.1602V25.9375H200.005V27.4609H197.192V36.6992H195.337V19.1602H197.192ZM184.302 32.3438V20.8398H192.485V22.3438H186.157V30.8008C189.096 30.791 191.294 30.6641 193.794 30.2148L194.028 31.7773C191.284 32.2656 188.96 32.3535 185.708 32.3438H184.302ZM208.413 19.5312C212.251 19.5215 214.654 20.7715 214.663 22.8906C214.654 24.9707 212.251 26.2012 208.413 26.1914C204.585 26.2012 202.154 24.9707 202.163 22.8906C202.154 20.7715 204.585 19.5215 208.413 19.5312ZM200.445 29.043V27.5391H216.402V29.043H200.445ZM202.359 36.4453V30.6055H214.448V36.4453H202.359ZM204.077 22.8906C204.068 24.0527 205.718 24.7363 208.413 24.7461C211.089 24.7363 212.759 24.0527 212.749 22.8906C212.759 21.6797 211.089 20.9863 208.413 20.9961C205.718 20.9863 204.068 21.6797 204.077 22.8906ZM204.195 34.9414H212.652V32.0898H204.195V34.9414Z" fill="white"/>
</svg>
