<svg width="400" height="86" viewBox="0 0 400 86" fill="none" xmlns="http://www.w3.org/2000/svg">
<rect width="400" height="86" fill="white"/>
<rect x="20" width="150" height="56" rx="8" fill="#EEEEEE"/>
<path d="M76.2641 19.1797V32.0703H74.4086V25.9961H70.7758V24.4531H74.4086V19.1797H76.2641ZM61.9281 28.6328C65.8246 27.373 68.4711 25 68.852 22.0312H62.8266V20.4883H70.893C70.8734 25.0586 67.7387 28.4961 62.7094 30.1172L61.9281 28.6328ZM64.9945 36.2891V30.7422H66.8695V34.7852H76.7133V36.2891H64.9945ZM93.1687 19.1602V36.6992H91.3133V26.3281H86.0984V24.8047H91.3133V19.1602H93.1687ZM79.4969 32.4805V21.0938H81.3719V30.9375C83.8719 30.8984 86.2254 30.7422 88.7742 30.2344L89.0086 31.7578C86.1863 32.334 83.6473 32.4902 80.9031 32.4805H79.4969ZM110.152 19.1797V36.6602H108.296V19.1797H110.152ZM95.3469 28.7109C98.8723 28.7109 103.306 28.7207 107.3 28.2422L107.398 29.6094C105.708 29.873 103.999 30.0293 102.32 30.1172V36.0938H100.464V30.1953C98.7355 30.2539 97.0852 30.2539 95.5812 30.2539L95.3469 28.7109ZM96.4211 26.7578V20.4102H100.952V21.9141H98.257V25.2637C99.1652 25.2344 100.083 25.1562 101.148 24.9219L101.284 26.4062C99.7414 26.7383 98.55 26.7676 97.2219 26.7578H96.4211ZM101.87 26.7578V20.4102H106.538V21.9141H103.687V25.2734H106.655V26.7578H101.87ZM126.88 19.1602V36.6602H125.005V19.1602H126.88ZM112.505 31.9727C117.154 29.7559 119.429 26.6016 119.791 22.5195H113.345V21.0352H121.666C121.666 26.1621 119.488 30.5957 113.482 33.4766L112.505 31.9727Z" fill="#323C59"/>
<rect x="180" width="200" height="56" rx="8" fill="#323C59"/>
<path d="M277.192 19.1602V25.9375H280.005V27.4609H277.192V36.6992H275.337V19.1602H277.192ZM264.302 32.3438V20.8398H272.485V22.3438H266.157V30.8008C269.096 30.791 271.294 30.6641 273.794 30.2148L274.028 31.7773C271.284 32.2656 268.96 32.3535 265.708 32.3438H264.302ZM288.413 19.5312C292.251 19.5215 294.654 20.7715 294.663 22.8906C294.654 24.9707 292.251 26.2012 288.413 26.1914C284.585 26.2012 282.154 24.9707 282.163 22.8906C282.154 20.7715 284.585 19.5215 288.413 19.5312ZM280.445 29.043V27.5391H296.402V29.043H280.445ZM282.359 36.4453V30.6055H294.448V36.4453H282.359ZM284.077 22.8906C284.068 24.0527 285.718 24.7363 288.413 24.7461C291.089 24.7363 292.759 24.0527 292.749 22.8906C292.759 21.6797 291.089 20.9863 288.413 20.9961C285.718 20.9863 284.068 21.6797 284.077 22.8906ZM284.195 34.9414H292.652V32.0898H284.195V34.9414Z" fill="white"/>
</svg>
