<svg width="400" height="680" viewBox="0 0 400 680" fill="none" xmlns="http://www.w3.org/2000/svg">
<rect width="400" height="680" fill="#F0F2F6"/>
<g clip-path="url(#clip0_250_1600)">
<path d="M78.5993 38.7791H74.7642V33.4434H78.5993V38.7791ZM80.9825 39.1126V31.959H72.377V39.1126C72.377 39.747 72.8934 40.2635 73.5319 40.2676H79.8275C80.466 40.2676 80.9825 39.7511 80.9825 39.1126ZM85.7285 31.6133H83.3453V43.1144H85.7285V31.6133ZM80.6571 46.254C79.1727 46.254 77.9933 46.1605 77.3548 45.9775C76.7285 45.8067 76.3991 45.5017 76.3991 45.0909V42.3336H74.0159V45.0909C74.0159 45.4895 74.0688 46.4371 74.8862 46.9942C75.7403 47.5961 79.128 47.7832 80.5758 47.7832H80.6531C82.0277 47.7832 84.5857 47.5188 85.8668 47.2016V45.6765C85.2649 45.8148 83.1623 46.254 80.6531 46.254" fill="#030000"/>
<path d="M65.3094 35.2979C65.3094 36.3146 65.1142 37.4289 65.0003 37.7502L67.2005 37.7584C67.6072 37.0344 67.6926 35.7086 67.6967 35.2938V35.2532V33.1099C67.6967 32.4755 67.1802 31.959 66.5417 31.959H55.6994V33.4434H65.3135V35.2938L65.3094 35.2979ZM69.1364 39.2428V37.7584H54.1621V39.2428H60.6122V41.5487H55.6384V43.0331H65.2728V47.4945H67.656V42.6955C67.656 42.0611 67.1395 41.5446 66.5051 41.5446H62.9994V39.2387H69.1404L69.1364 39.2428Z" fill="#030000"/>
<path d="M126.999 40.0277H126.99C126.409 39.9179 126.185 39.5193 126.185 39.1696C126.185 39.1614 126.185 39.1533 126.185 39.1452V36.4488H132.741V39.1452V39.1655C132.741 39.5193 132.517 39.9179 131.928 40.0317C131.403 40.1171 130.573 40.2147 129.463 40.2147C128.353 40.2147 127.515 40.1171 126.99 40.0277M130.663 45.1316V41.6748H130.679L130.793 41.6666C131.793 41.6097 132.656 41.4836 133.607 41.2762C133.644 41.2681 133.685 41.2559 133.729 41.2477C134.99 40.9671 135.116 40.1659 135.128 39.682V31.959H132.745V34.9603H126.189V31.959H123.802V39.6739C123.814 40.1456 123.936 40.9142 125.099 41.2152C126.169 41.4511 127.133 41.5975 128.154 41.6544L128.284 41.6666V45.1275H121.891V46.616H137.04V45.1275H130.667L130.663 45.1316ZM126.97 40.0114C126.97 40.0114 126.954 40.0073 126.946 40.0033C126.954 40.0033 126.962 40.0073 126.97 40.0114Z" fill="#030000"/>
<path d="M97.2778 46.2581C95.7934 46.2581 94.61 46.1646 93.9755 45.9816C93.3452 45.8108 93.0198 45.5057 93.0198 45.0909V42.3336H90.6326V45.0909C90.6326 45.4895 90.6895 46.4371 91.5069 46.9942C92.3569 47.5961 95.7487 47.7791 97.1965 47.7791H97.2738C98.6484 47.7791 101.206 47.5148 102.488 47.1976V45.6765C101.886 45.8148 99.783 46.25 97.2738 46.254M96.8142 36.8148H99.9579V43.1103H102.341V31.6133H99.9579V35.3304H97.1274C97.1477 35.1474 97.1599 34.9563 97.168 34.761V34.6268H97.1762V33.114C97.1762 32.4755 96.6597 31.963 96.0212 31.959H89.2742V33.4434H94.7848V34.4845C94.7848 35.9445 94.2846 37.193 93.3208 38.0756C92.3813 38.9337 90.9457 39.4339 89.2051 39.4583V40.9427C89.9697 40.9427 91.877 40.8939 93.581 40.1659C94.9434 39.5803 96.2123 38.5839 96.8101 36.8148" fill="#030000"/>
<path d="M143.49 39.1534C142.254 39.1534 141.343 38.1489 141.343 36.9126C141.343 35.6762 142.25 34.6717 143.49 34.6717C144.731 34.6717 145.638 35.6762 145.638 36.9126C145.638 38.1489 144.731 39.1534 143.49 39.1534ZM149.749 31.6094V35.9731H147.891C147.699 35.3102 147.309 34.7124 146.756 34.2406H148.147V32.7562H144.661V31.2637H142.278V32.7562H138.793V34.2406H140.212C139.415 34.9239 138.956 35.8674 138.956 36.9126C138.956 38.9989 140.81 40.6907 143.494 40.6907C145.951 40.6907 147.691 39.2876 147.984 37.4616H149.753V40.5687H152.136V31.6134H149.753L149.749 31.6094ZM142.978 45.2253V43.3138H149.749V45.2497C149.749 45.6157 149.509 46.0264 148.879 46.124C148.875 46.124 148.867 46.124 148.854 46.1281C148.346 46.2094 147.533 46.2908 146.504 46.2908C145.475 46.2908 144.365 46.2054 143.852 46.124C143.218 46.0305 142.978 45.6116 142.978 45.2497C142.978 45.2415 142.978 45.2293 142.978 45.2253ZM140.591 45.754C140.603 46.2379 140.729 47.0269 141.961 47.3116C143.417 47.6288 144.966 47.7752 146.504 47.7752C148.118 47.7752 149.269 47.6451 150.558 47.3685C150.607 47.3482 150.668 47.3319 150.733 47.3197C151.994 47.0391 152.12 46.2379 152.132 45.754V41.8254H140.595V45.754H140.591Z" fill="#030000"/>
<path d="M113.042 46.7543C111.236 46.7543 110.02 45.7701 110.02 44.5541C110.02 43.3381 111.216 42.358 113.042 42.358C114.868 42.358 116.063 43.3422 116.063 44.5541C116.063 45.766 114.912 46.7543 113.042 46.7543ZM113.042 40.8207C109.727 40.8207 107.478 42.4922 107.478 44.5541C107.478 46.616 109.65 48.2875 113.042 48.2875C116.433 48.2875 118.609 46.616 118.609 44.5541C118.609 42.4922 116.368 40.8207 113.042 40.8207ZM118.398 34.5862V31.6133H116.015V40.5685H118.398V36.0706H120.513V34.5862H118.398ZM113.566 34.6228V34.4886H113.578V33.114C113.578 32.4755 113.062 31.963 112.424 31.963H105.672V33.4474H111.183V34.3584C111.183 35.8144 110.679 37.0019 109.715 37.8153C108.776 38.6042 107.34 39.0313 105.607 39.0516V40.5401H105.88C106.832 40.5401 108.767 40.4791 110.406 39.7145C112.053 38.9418 113.473 37.4899 113.57 34.6268" fill="#030000"/>
<path d="M39.5702 43.6712L39.5491 42.7461C35.9469 42.7367 34.3683 40.4812 34.3543 38.652C34.3402 37.2491 35.3052 35.7619 36.9048 35.7478C38.2539 35.7361 38.9284 36.8018 38.9284 36.8018C38.9284 36.8018 39.4929 35.7174 40.9895 35.7033C42.0551 35.694 43.4909 36.591 43.5096 38.6684C43.526 40.6218 42.1184 42.7624 39.5725 43.6712M38.8769 31.0004C33.9889 31.0425 29.9605 34.6189 30.0003 39.2305C30.019 41.5328 31.2065 43.8843 33.3191 45.4348L32.771 48.0884C43.0833 51.0629 47.9338 43.5658 47.894 39.0924C47.8565 34.5323 43.8515 30.9582 38.8769 31.0004Z" fill="#EF403C"/>
<path d="M39.6553 47.2084L39.571 43.6718C38.0159 44.2269 36.0368 44.323 33.6947 43.6367L33.3223 45.4355C34.9313 46.6159 37.0743 47.3326 39.6553 47.2084Z" fill="#850E11"/>
</g>
<mask id="mask0_250_1600" style="mask-type:alpha" maskUnits="userSpaceOnUse" x="293" y="30" width="20" height="20">
<rect width="20" height="20" transform="matrix(-1 0 0 1 313 30)" fill="#D9D9D9"/>
</mask>
<g mask="url(#mask0_250_1600)">
<path d="M303 47.5C304.75 47.5 306.299 46.9687 307.646 45.9062C308.993 44.8437 309.868 43.4861 310.271 41.8333C310.326 41.625 310.285 41.434 310.146 41.2604C310.007 41.0868 309.819 40.9861 309.583 40.9583C309.361 40.9306 309.16 40.9722 308.979 41.0833C308.799 41.1944 308.674 41.3611 308.604 41.5833C308.271 42.8333 307.583 43.8542 306.542 44.6458C305.5 45.4375 304.319 45.8333 303 45.8333C301.375 45.8333 299.997 45.2674 298.865 44.1354C297.733 43.0035 297.167 41.625 297.167 40C297.167 38.375 297.733 36.9965 298.865 35.8646C299.997 34.7326 301.375 34.1667 303 34.1667C303.958 34.1667 304.854 34.3889 305.688 34.8333C306.521 35.2778 307.222 35.8889 307.792 36.6667H306.333C306.097 36.6667 305.899 36.7465 305.74 36.9062C305.58 37.066 305.5 37.2639 305.5 37.5C305.5 37.7361 305.58 37.934 305.74 38.0938C305.899 38.2535 306.097 38.3333 306.333 38.3333H309.667C309.903 38.3333 310.101 38.2535 310.26 38.0938C310.42 37.934 310.5 37.7361 310.5 37.5V34.1667C310.5 33.9306 310.42 33.7326 310.26 33.5729C310.101 33.4132 309.903 33.3333 309.667 33.3333C309.431 33.3333 309.233 33.4132 309.073 33.5729C308.913 33.7326 308.833 33.9306 308.833 34.1667V35.2917C308.125 34.4028 307.26 33.7153 306.24 33.2292C305.219 32.7431 304.139 32.5 303 32.5C301.958 32.5 300.983 32.6979 300.073 33.0938C299.163 33.4896 298.372 34.0243 297.698 34.6979C297.024 35.3715 296.49 36.1632 296.094 37.0729C295.698 37.9826 295.5 38.9583 295.5 40C295.5 41.0417 295.698 42.0174 296.094 42.9271C296.49 43.8368 297.024 44.6285 297.698 45.3021C298.372 45.9757 299.163 46.5104 300.073 46.9062C300.983 47.3021 301.958 47.5 303 47.5Z" fill="#777777"/>
</g>
<path d="M327.636 33.2656V47.4062H325.902V40.1875H323.167V38.7812H325.902V33.2656H327.636ZM315.761 43.375C317.964 42.375 319.214 39.9688 319.214 37.75V37.0156H316.183V35.625H319.23V33.5625H320.964V35.625H323.917V37.0156H320.949V37.75C320.941 39.8828 322.222 42.1641 324.449 43.1562L323.511 44.4844C321.902 43.7969 320.722 42.3828 320.097 40.6953C319.48 42.4844 318.316 43.9922 316.699 44.7188L315.761 43.375ZM335.722 33.5469C338.847 33.5469 340.808 34.5703 340.816 36.2969C340.808 37.9844 338.847 38.9922 335.722 38.9844C332.629 38.9922 330.629 37.9844 330.629 36.2969C330.629 34.5703 332.629 33.5469 335.722 33.5469ZM329.301 41.3438V39.9375H342.176V41.3438H329.301ZM330.816 47.2188V42.4688H340.613V47.2188H330.816ZM332.441 36.2969C332.426 37.1484 333.66 37.6328 335.722 37.6406C337.785 37.6328 339.019 37.1484 339.019 36.2969C339.019 35.3984 337.785 34.9062 335.722 34.9062C333.66 34.9062 332.426 35.3984 332.441 36.2969ZM332.535 45.8125H338.926V43.8438H332.535V45.8125ZM349.231 34.0625C352.207 34.0625 354.504 35.6484 354.496 38.0469C354.504 40.4766 352.207 42.0625 349.231 42.0625C346.27 42.0625 343.988 40.4766 343.996 38.0469C343.988 35.6484 346.27 34.0625 349.231 34.0625ZM342.809 45.6094V44.1875H355.715V45.6094H342.809ZM345.668 38.0469C345.66 39.6484 347.176 40.6328 349.231 40.6406C351.293 40.6328 352.793 39.6484 352.793 38.0469C352.793 36.4844 351.293 35.4531 349.231 35.4688C347.176 35.4531 345.66 36.4844 345.668 38.0469ZM369.223 44.3125V45.75H356.317V44.3125H361.879V42.0156H357.848V37.3906H365.973V35.6406H357.817V34.2344H367.692V38.7656H359.583V40.5938H368.02V42.0156H363.598V44.3125H369.223Z" fill="#777777"/>
<g clip-path="url(#clip1_250_1600)">
<path d="M30 108C30 90.3269 44.3269 76 62 76H294C335.974 76 370 110.026 370 152V544C370 561.673 355.673 576 338 576H62C44.3269 576 30 561.673 30 544V108Z" fill="url(#paint0_linear_250_1600)"/>
<path d="M324.114 223.769L323.821 210.835C271.327 210.724 248.27 179.257 248.094 153.725C247.919 134.128 261.964 113.411 285.314 113.243C304.977 113.075 314.809 127.969 314.809 127.969C314.809 127.969 323.06 112.851 344.889 112.683C360.456 112.571 381.348 125.057 381.641 154.061C381.875 181.272 361.334 211.171 324.231 223.825M313.99 47.0056C242.71 47.6215 184.013 97.5096 184.598 161.787C184.891 193.87 202.155 226.681 232.996 248.35L224.978 285.36C375.32 326.849 446.073 222.314 445.429 159.884C444.903 96.2778 386.557 46.3897 313.99 47.0056Z" fill="white" fill-opacity="0.2"/>
<path d="M83.3242 177.102V179.262H60.9023V177.102H70.7734V171.441H63.4727V159.793H80.6445V171.441H73.3438V177.102H83.3242ZM65.9883 169.391H78.1016V161.871H65.9883V169.391ZM103.628 157.824V167.312H107.565V169.5H103.628V182.324H101.03V157.824H103.628ZM85.4713 176.5V159.875H88.0416V166.164H94.522V159.875H97.0923V176.5H85.4713ZM88.0416 174.367H94.522V168.215H88.0416V174.367ZM115.126 158.645C118.818 158.672 121.538 160.928 121.552 164.141C121.538 167.367 118.818 169.609 115.126 169.609C111.394 169.609 108.687 167.367 108.673 164.141C108.687 160.928 111.394 158.672 115.126 158.645ZM111.216 164.141C111.202 166.164 112.87 167.504 115.126 167.504C117.368 167.504 119.036 166.164 119.036 164.141C119.036 162.145 117.368 160.805 115.126 160.832C112.87 160.805 111.202 162.145 111.216 164.141ZM112.392 173.492V171.414H128.497V177.594H114.989V179.945H129.318V182.023H112.474V175.652H125.927V173.492H112.392ZM125.9 170.293V157.824H128.497V170.293H125.9ZM158.522 157.852V175.898H155.924V167.395H150.838V165.234H155.924V157.852H158.522ZM138.451 171.086C143.906 169.322 147.612 166 148.145 161.844H139.709V159.684H151.002C150.975 166.082 146.586 170.895 139.545 173.164L138.451 171.086ZM142.744 181.805V174.039H145.369V179.699H159.151V181.805H142.744ZM180.985 157.824V164.004H184.54V166.109H180.985V172.371H178.387V157.824H180.985ZM161.708 170.457C167.45 168.844 170.964 165.645 171.442 161.68H162.802V159.574H174.259C174.259 165.904 169.952 170.484 162.774 172.562L161.708 170.457ZM165.044 177.457C165.016 174.477 168.243 172.631 173.165 172.645C178.1 172.631 181.259 174.477 181.259 177.457C181.259 180.465 178.1 182.283 173.165 182.297C168.243 182.283 165.016 180.465 165.044 177.457ZM167.614 177.457C167.6 179.18 169.733 180.232 173.165 180.246C176.569 180.232 178.716 179.18 178.716 177.457C178.716 175.734 176.569 174.682 173.165 174.695C169.733 174.682 167.6 175.734 167.614 177.457ZM207.796 177.129V179.289H185.374V177.129H195.245V172.098H187.945V159.492H190.542V163.703H202.574V159.492H205.144V172.098H197.816V177.129H207.796ZM190.542 169.992H202.574V165.809H190.542V169.992ZM229.439 157.824V172.672H226.842V167.34H223.014V165.18H226.842V157.824H229.439ZM209.041 162.336V160.258H214.947V157.605H217.518V160.258H223.396V162.336H209.041ZM210.463 167.832C210.463 165.262 212.869 163.457 216.232 163.457C219.596 163.457 221.975 165.262 221.975 167.832C221.975 170.471 219.596 172.221 216.232 172.234C212.869 172.221 210.463 170.471 210.463 167.832ZM212.951 167.832C212.951 169.322 214.277 170.252 216.232 170.266C218.16 170.252 219.486 169.322 219.486 167.832C219.486 166.396 218.16 165.439 216.232 165.453C214.277 165.439 212.951 166.396 212.951 167.832ZM213.279 182.023V173.875H229.439V182.023H213.279ZM215.85 179.918H226.896V175.926H215.85V179.918ZM254.993 169.363V171.469H232.653V169.363H254.993ZM233.829 166.027C238.272 165.549 241.786 163.553 242.073 161.16H234.704V159.027H252.997V161.16H245.545C245.846 163.539 249.305 165.549 253.844 166.027L252.915 168.078C248.663 167.586 245.149 165.795 243.823 163.211C242.469 165.795 238.983 167.586 234.731 168.078L233.829 166.027ZM235.305 177.84C235.305 174.996 238.491 173.355 243.809 173.355C249.086 173.355 252.245 174.996 252.258 177.84C252.245 180.684 249.086 182.283 243.809 182.27C238.491 182.283 235.305 180.684 235.305 177.84ZM237.93 177.84C237.916 179.385 240.063 180.232 243.809 180.219C247.5 180.232 249.661 179.385 249.661 177.84C249.661 176.254 247.5 175.406 243.809 175.379C240.063 175.406 237.916 176.254 237.93 177.84Z" fill="white"/>
<g clip-path="url(#clip2_250_1600)">
<rect x="60" y="288" width="66" height="66" rx="24" fill="#FFF3F3"/>
<path d="M92.9999 328.674C99.3576 328.674 104.512 323.52 104.512 317.162C104.512 310.804 99.3576 305.65 92.9999 305.65C86.6422 305.65 81.4883 310.804 81.4883 317.162C81.4883 323.52 86.6422 328.674 92.9999 328.674Z" fill="#F5A7B1"/>
<path d="M63.0703 355.535C64.3271 341.788 77.2591 330.977 93.0233 330.977C108.788 330.977 121.428 341.544 122.931 355.081" fill="#F5A7B1"/>
</g>
<path d="M75.7051 380.641V386.463H78.584V387.881H75.7051V394.734H74.0293V380.641H75.7051ZM61.1387 386.699C61.1279 383.928 63.2979 382.005 66.1445 381.994C69.0127 382.005 71.1504 383.928 71.1719 386.699C71.1504 389.46 69.0127 391.404 66.1445 391.404C63.2979 391.404 61.1279 389.46 61.1387 386.699ZM62.793 386.699C62.7822 388.579 64.2539 389.922 66.1445 389.922C68.0674 389.922 69.5068 388.579 69.5176 386.699C69.5068 384.809 68.0674 383.477 66.1445 383.477C64.2539 383.477 62.7822 384.809 62.793 386.699ZM63.7598 399.332V393.273H65.4141V397.914H76.5859V399.332H63.7598ZM82.2045 381.822V389.643C85.4487 389.653 87.7368 389.514 90.3686 388.955L90.5834 390.352C87.812 390.921 85.4057 391.071 81.9467 391.061H80.4858V381.822H82.2045ZM82.4409 396.152C82.4301 393.864 84.8686 392.532 88.8432 392.521C92.8071 392.532 95.2455 393.864 95.2455 396.152C95.2455 398.408 92.8071 399.719 88.8432 399.74C84.8686 399.719 82.4301 398.408 82.4409 396.152ZM84.1166 396.152C84.1059 397.527 85.9106 398.365 88.8432 398.365C91.7651 398.365 93.5698 397.527 93.5698 396.152C93.5698 394.734 91.7651 393.886 88.8432 393.875C85.9106 393.886 84.1059 394.734 84.1166 396.152ZM88.0053 387.645V386.312H93.4838V384.271H88.0053V382.918H93.4838V380.641H95.1811V392.371H93.4838V387.645H88.0053ZM112.702 380.641V388.525H115.903V389.922H112.702V399.74H111.026V380.641H112.702ZM97.8134 385.109V383.713H102.733V380.877H104.409V383.713H109.179V385.109H97.8134ZM98.9091 391.082C98.8983 388.504 100.875 386.699 103.593 386.699C106.289 386.699 108.255 388.504 108.276 391.082C108.255 393.671 106.289 395.465 103.593 395.465C100.875 395.465 98.8983 393.671 98.9091 391.082ZM100.52 391.082C100.51 392.822 101.809 394.047 103.593 394.025C105.354 394.047 106.643 392.822 106.665 391.082C106.643 389.353 105.354 388.106 103.593 388.117C101.809 388.106 100.51 389.353 100.52 391.082ZM122.166 386.076C122.166 389.116 123.649 392.393 126.184 393.896L125.217 395.207C123.369 394.09 122.048 392.049 121.382 389.718C120.684 392.264 119.266 394.455 117.354 395.615L116.28 394.348C118.922 392.801 120.534 389.417 120.534 386.141V382.445H122.166V386.076ZM124.078 388.934V387.494H127.323V381.049H128.912V398.773H127.323V388.934H124.078ZM131.233 399.74V380.641H132.866V399.74H131.233ZM152.556 395.873V397.291H135.068V395.873H139.408V390.728C137.775 389.879 136.787 388.504 136.787 386.764C136.787 383.81 139.687 381.865 143.769 381.844C147.851 381.865 150.752 383.81 150.752 386.764C150.752 388.472 149.796 389.825 148.217 390.674V395.873H152.556ZM138.42 386.764C138.409 388.901 140.633 390.33 143.769 390.33C146.874 390.33 149.119 388.901 149.119 386.764C149.119 384.626 146.874 383.219 143.769 383.24C140.633 383.219 138.409 384.626 138.42 386.764ZM141.062 395.873H146.519V391.329C145.692 391.544 144.768 391.662 143.769 391.662C142.792 391.662 141.879 391.555 141.062 391.34V395.873ZM155.661 398.129C154.909 398.118 154.265 397.495 154.286 396.732C154.265 395.98 154.909 395.357 155.661 395.357C156.424 395.357 157.047 395.98 157.036 396.732C157.047 397.495 156.424 398.118 155.661 398.129Z" fill="white"/>
<path d="M62.6396 432.499V434.873H66.7568V432.499H68.0352V434.01H71.5215V431.586H72.833V440.534H71.5215V438.127H68.0352V439.438H61.3447V432.499H62.6396ZM62.6396 438.376H66.7568V435.919H62.6396V438.376ZM62.9883 443.589C62.98 441.829 64.8643 440.833 67.9355 440.816C70.9985 440.833 72.8828 441.829 72.8828 443.589C72.8828 445.315 70.9985 446.312 67.9355 446.312C64.8643 446.312 62.98 445.315 62.9883 443.589ZM64.2832 443.589C64.2749 444.651 65.6694 445.282 67.9355 445.282C70.1934 445.282 71.5879 444.651 71.5879 443.589C71.5879 442.485 70.1934 441.854 67.9355 441.846C65.6694 441.854 64.2749 442.485 64.2832 443.589ZM68.0352 437.048H71.5215V435.072H68.0352V437.048ZM76.5106 440.816C75.9295 440.808 75.4315 440.327 75.4481 439.737C75.4315 439.156 75.9295 438.675 76.5106 438.675C77.0999 438.675 77.5814 439.156 77.5731 439.737C77.5814 440.327 77.0999 440.808 76.5106 440.816ZM83.7575 432.665C86.0734 432.673 87.717 434.084 87.7253 436.135C87.717 438.193 86.0734 439.596 83.7575 439.604C81.425 439.596 79.7648 438.193 79.7731 436.135C79.7648 434.084 81.425 432.673 83.7575 432.665ZM79.0095 442.012C81.7321 442.02 85.4924 441.995 88.7546 441.514L88.8542 442.477C85.4758 443.107 81.8483 443.124 79.1921 443.124L79.0095 442.012ZM81.0514 436.135C81.0431 437.513 82.1804 438.459 83.7575 438.459C85.318 438.459 86.4553 437.513 86.447 436.135C86.4553 434.765 85.318 433.811 83.7575 433.811C82.1804 433.811 81.0431 434.765 81.0514 436.135ZM89.7341 446.378V431.586H91.029V446.378H89.7341ZM105.448 431.603V442.809H104.136V441.281H101.082V440.335H104.136V431.603H105.448ZM93.1958 438.442C95.9434 438.426 99.6455 438.401 102.808 438.011L102.891 438.957C101.58 439.165 100.193 439.297 98.8404 439.38V442.294H97.5288V439.447C96.0347 439.505 94.6153 439.505 93.3784 439.505L93.1958 438.442ZM94.3911 434.773C94.3828 433.221 95.8604 432.2 98.0435 432.2C100.21 432.2 101.688 433.221 101.696 434.773C101.688 436.351 100.21 437.33 98.0435 437.33C95.8604 437.33 94.3828 436.351 94.3911 434.773ZM95.3208 446.029V441.713H96.6323V444.934H105.813V446.029H95.3208ZM95.6362 434.773C95.6196 435.736 96.5991 436.359 98.0435 436.367C99.4463 436.359 100.442 435.736 100.451 434.773C100.442 433.827 99.4463 433.18 98.0435 433.196C96.5991 433.18 95.6196 433.827 95.6362 434.773ZM114.355 431.852C117.634 431.852 119.559 432.756 119.568 434.392C119.559 436.068 117.634 436.973 114.355 436.981C111.059 436.973 109.125 436.068 109.125 434.392C109.125 432.756 111.059 431.852 114.355 431.852ZM107.631 439.04V437.978H121.078V439.04H107.631ZM109.258 441.314V440.318H119.352V443.622H110.586V445.149H119.8V446.179H109.291V442.659H118.074V441.314H109.258ZM110.487 434.392C110.47 435.421 111.906 435.985 114.355 435.985C116.804 435.985 118.231 435.421 118.24 434.392C118.231 433.42 116.804 432.839 114.355 432.831C111.906 432.839 110.47 433.42 110.487 434.392ZM132.717 440.866C135.747 440.866 137.581 441.862 137.581 443.589C137.581 445.332 135.747 446.328 132.717 446.345C129.679 446.328 127.828 445.332 127.819 443.589C127.828 441.862 129.679 440.866 132.717 440.866ZM126.541 439.322V432.516H127.819V434.773H132.119V432.516H133.414V439.322H126.541ZM127.819 438.26H132.119V435.803H127.819V438.26ZM129.131 443.589C129.114 444.651 130.492 445.282 132.717 445.282C134.95 445.282 136.311 444.651 136.319 443.589C136.311 442.535 134.95 441.912 132.717 441.896C130.492 441.912 129.114 442.535 129.131 443.589ZM136.153 440.468V431.586H137.448V435.305H139.673V436.417H137.448V440.468H136.153ZM153.76 439.14V440.219H147.75V443.24H146.455V440.219H140.246V439.14H153.76ZM141.973 446.029V441.779H143.284V444.934H152.249V446.029H141.973ZM142.006 437.446V432.316H152V437.446H142.006ZM143.284 436.4H150.705V433.346H143.284V436.4ZM166.153 431.536V435.122H168.394V436.201H166.153V439.704H164.858V431.536H166.153ZM154.648 433.977V432.931H158.4V431.437H159.695V432.931H163.447V433.977H154.648ZM155.495 437.064C155.487 435.57 156.898 434.649 159.048 434.641C161.189 434.649 162.584 435.57 162.6 437.064C162.584 438.567 161.189 439.48 159.048 439.488C156.898 439.48 155.487 438.567 155.495 437.064ZM156.74 441.447V440.468H166.153V443.738H158.051V445.183H166.701V446.179H156.773V442.775H164.858V441.447H156.74ZM156.74 437.064C156.732 437.953 157.645 438.509 159.048 438.509C160.442 438.509 161.355 437.953 161.372 437.064C161.355 436.185 160.442 435.612 159.048 435.604C157.645 435.612 156.732 436.185 156.74 437.064ZM182.672 431.918V437.629H184.465V431.586H185.71V446.345H184.465V438.708H182.672V445.614H181.46V431.918H182.672ZM173.342 442.493V433.462H176.546V434.541H174.554V441.389C175.11 441.364 175.841 441.298 176.646 441.099L176.762 442.211C175.517 442.485 174.554 442.501 173.923 442.493H173.342ZM177.194 442.493V433.462H180.464V434.541H178.372V441.389C179.07 441.373 179.892 441.306 180.78 441.049L180.896 442.161C179.667 442.485 178.646 442.501 177.791 442.493H177.194ZM199.183 436.068V437.114H189.073V432.134H190.367V436.068H199.183ZM187.23 440.186V439.123H200.743V440.186H187.23ZM188.989 445.979V441.696H190.284V444.9H199.266V445.979H188.989ZM74.1113 465.356V466.452H60.5977V465.356H66.6738V461.754H62.1914V454.831H72.4346V461.754H67.9521V465.356H74.1113ZM63.4697 460.708H71.1729V455.877H63.4697V460.708ZM86.3719 453.586V459.396H88.8455V460.525H86.3719V468.345H85.077V453.586H86.3719ZM75.5643 464.809V454.848H76.8592V458.749H81.1756V454.848H82.4705V464.809H75.5643ZM76.8592 463.713H81.1756V459.795H76.8592V463.713ZM93.486 454.134C95.694 454.142 97.2961 455.487 97.3044 457.404C97.2961 459.33 95.694 460.658 93.486 460.658C91.2531 460.658 89.6428 459.33 89.6511 457.404C89.6428 455.487 91.2531 454.142 93.486 454.134ZM90.9294 457.404C90.9128 458.699 92.0002 459.596 93.486 459.596C94.947 459.596 96.0427 458.699 96.0427 457.404C96.0427 456.126 94.947 455.221 93.486 455.229C92.0002 455.221 90.9128 456.126 90.9294 457.404ZM91.8923 462.933V461.887H101.488V465.439H93.2038V467.1H102.019V468.146H91.9255V464.46H100.193V462.933H91.8923ZM100.193 461.173V453.586H101.488V461.173H100.193ZM119.817 453.603V464.51H118.505V459.247H115.235V458.151H118.505V453.603H119.817ZM107.814 461.737C111.209 460.617 113.575 458.492 113.873 455.827H108.561V454.731H115.301C115.285 458.525 112.57 461.414 108.378 462.783L107.814 461.737ZM110.42 468.029V463.397H111.748V466.934H120.199V468.029H110.42ZM133.472 453.586V457.438H135.696V458.517H133.472V462.451H132.177V453.586H133.472ZM121.95 461.405C125.511 460.376 127.786 458.326 128.051 455.761H122.598V454.682H129.454C129.446 458.442 126.798 461.198 122.498 462.468L121.95 461.405ZM123.976 465.456C123.967 463.688 125.868 462.609 128.807 462.617C131.77 462.609 133.638 463.688 133.638 465.456C133.638 467.249 131.77 468.312 128.807 468.312C125.868 468.312 123.967 467.249 123.976 465.456ZM125.271 465.456C125.254 466.568 126.64 467.274 128.807 467.266C130.973 467.274 132.376 466.568 132.376 465.456C132.376 464.344 130.973 463.655 128.807 463.663C126.64 463.655 125.254 464.344 125.271 465.456ZM149.8 465.373V466.452H136.286V465.373H142.362V462.186H137.88V454.632H139.191V457.305H146.861V454.632H148.14V462.186H143.641V465.373H149.8ZM139.191 461.123H146.861V458.367H139.191V461.123ZM162.874 453.586V462.534H161.562V459.164H159.056V458.085H161.562V453.586H162.874ZM150.655 456.209V455.146H154.324V453.453H155.602V455.146H159.271V456.209H150.655ZM151.535 459.596C151.535 458.052 152.954 456.973 154.955 456.973C156.964 456.973 158.375 458.052 158.391 459.596C158.375 461.189 156.964 462.235 154.955 462.235C152.954 462.235 151.535 461.189 151.535 459.596ZM152.78 459.596C152.78 460.575 153.668 461.223 154.955 461.239C156.242 461.223 157.13 460.575 157.13 459.596C157.13 458.649 156.242 457.985 154.955 457.985C153.668 457.985 152.78 458.649 152.78 459.596ZM153.228 468.146V463.331H162.874V468.146H153.228ZM154.523 467.083H161.596V464.377H154.523V467.083ZM178.438 460.608V461.688H164.991V460.608H178.438ZM165.755 458.683C168.328 458.384 170.81 457.114 170.868 455.429H166.219V454.35H177.243V455.429H172.561C172.619 457.097 175.076 458.384 177.691 458.683L177.21 459.729C174.794 459.421 172.528 458.334 171.715 456.699C170.901 458.334 168.652 459.421 166.219 459.729L165.755 458.683ZM166.618 465.655C166.61 463.962 168.527 462.982 171.715 462.982C174.877 462.982 176.778 463.962 176.795 465.655C176.778 467.365 174.877 468.312 171.715 468.312C168.527 468.312 166.61 467.365 166.618 465.655ZM167.946 465.655C167.929 466.685 169.349 467.274 171.715 467.266C174.055 467.274 175.475 466.685 175.483 465.655C175.475 464.618 174.055 464.028 171.715 464.012C169.349 464.028 167.929 464.618 167.946 465.655ZM186.067 454.549C189.147 454.557 191.462 456.167 191.462 458.6C191.462 461.057 189.147 462.667 186.067 462.65C182.987 462.667 180.671 461.057 180.671 458.6C180.671 456.167 182.987 454.557 186.067 454.549ZM179.343 466.386V465.29H192.857V466.386H179.343ZM181.917 458.6C181.9 460.393 183.685 461.588 186.067 461.588C188.433 461.588 190.201 460.393 190.201 458.6C190.201 456.832 188.433 455.603 186.067 455.611C183.685 455.603 181.9 456.832 181.917 458.6ZM207.209 465.423V466.519H193.696V465.423H199.772V462.634H195.389V458.085H204.221V455.761H195.356V454.682H205.499V459.147H196.684V461.555H205.848V462.634H201.05V465.423H207.209ZM72.833 475.603V486.51H71.5215V481.247H68.251V480.151H71.5215V475.603H72.833ZM60.8301 483.737C64.2251 482.617 66.5908 480.492 66.8896 477.827H61.5771V476.731H68.3174C68.3008 480.525 65.5864 483.414 61.3945 484.783L60.8301 483.737ZM63.4365 490.029V485.397H64.7646V488.934H73.2148V490.029H63.4365ZM86.4881 475.586V479.438H88.7127V480.517H86.4881V484.451H85.1932V475.586H86.4881ZM74.9666 483.405C78.5277 482.376 80.8021 480.326 81.0677 477.761H75.6141V476.682H82.4705C82.4622 480.442 79.8143 483.198 75.5145 484.468L74.9666 483.405ZM76.992 487.456C76.9837 485.688 78.8846 484.609 81.8231 484.617C84.7865 484.609 86.6541 485.688 86.6541 487.456C86.6541 489.249 84.7865 490.312 81.8231 490.312C78.8846 490.312 76.9837 489.249 76.992 487.456ZM78.287 487.456C78.2704 488.568 79.6566 489.274 81.8231 489.266C83.9896 489.274 85.3924 488.568 85.3924 487.456C85.3924 486.344 83.9896 485.655 81.8231 485.663C79.6566 485.655 78.2704 486.344 78.287 487.456ZM102.816 487.373V488.452H89.3024V487.373H95.3786V484.186H90.8962V476.632H92.2077V479.305H99.8776V476.632H101.156V484.186H96.6569V487.373H102.816ZM92.2077 483.123H99.8776V480.367H92.2077V483.123ZM115.89 475.586V484.534H114.579V481.164H112.072V480.085H114.579V475.586H115.89ZM103.671 478.209V477.146H107.34V475.453H108.619V477.146H112.288V478.209H103.671ZM104.551 481.596C104.551 480.052 105.971 478.973 107.971 478.973C109.98 478.973 111.391 480.052 111.408 481.596C111.391 483.189 109.98 484.235 107.971 484.235C105.971 484.235 104.551 483.189 104.551 481.596ZM105.796 481.596C105.796 482.575 106.685 483.223 107.971 483.239C109.258 483.223 110.146 482.575 110.146 481.596C110.146 480.649 109.258 479.985 107.971 479.985C106.685 479.985 105.796 480.649 105.796 481.596ZM106.245 490.146V485.331H115.89V490.146H106.245ZM107.54 489.083H114.612V486.377H107.54V489.083ZM126.931 480.118C126.914 482.484 128.624 485.09 130.766 486.111L130.019 487.141C128.359 486.327 126.956 484.584 126.292 482.583C125.611 484.75 124.133 486.659 122.482 487.506L121.685 486.477C123.81 485.439 125.636 482.633 125.653 480.118V478.192H122.216V477.113H130.251V478.192H126.931V480.118ZM132.061 490.345V475.586H133.356V481.562H135.829V482.675H133.356V490.345H132.061ZM144.072 476.599C144.072 477.171 144.006 477.719 143.89 478.242H147.21V475.603H148.522V484.401H147.21V482.442H143.292V481.363H147.21V479.321H143.533C142.537 481.646 140.221 483.331 137.033 484.202L136.519 483.156C140.121 482.16 142.404 480.185 142.669 477.661H137.266V476.599H144.072ZM138.594 486.095V485.049H148.522V490.328H147.21V486.095H138.594ZM157.362 475.852C160.641 475.852 162.567 476.756 162.575 478.392C162.567 480.068 160.641 480.973 157.362 480.981C154.067 480.973 152.133 480.068 152.133 478.392C152.133 476.756 154.067 475.852 157.362 475.852ZM150.639 483.04V481.978H164.086V483.04H150.639ZM152.266 485.314V484.318H162.359V487.622H153.594V489.149H162.808V490.179H152.299V486.659H161.081V485.314H152.266ZM153.494 478.392C153.477 479.421 154.913 479.985 157.362 479.985C159.811 479.985 161.239 479.421 161.247 478.392C161.239 477.42 159.811 476.839 157.362 476.831C154.913 476.839 153.477 477.42 153.494 478.392ZM180.439 475.603V480.068H182.647V481.164H180.439V485.497H179.128V475.603H180.439ZM168.851 483.986C170.03 483.986 171.408 483.986 172.852 483.945V482.857C171.134 482.7 170.022 481.911 170.03 480.683C170.022 479.338 171.408 478.508 173.483 478.508C175.575 478.508 176.936 479.338 176.953 480.683C176.936 481.903 175.857 482.691 174.147 482.857V483.895C175.525 483.829 176.919 483.712 178.214 483.521L178.331 484.468C175.127 485.032 171.599 485.057 169.001 485.049L168.851 483.986ZM169.216 477.943V476.947H172.852V475.47H174.147V476.947H177.766V477.943H169.216ZM170.661 487.273V486.228H180.439V490.345H179.128V487.273H170.661ZM171.275 480.683C171.267 481.455 172.122 481.978 173.483 481.961C174.844 481.978 175.708 481.455 175.708 480.683C175.708 479.902 174.844 479.421 173.483 479.438C172.122 479.421 171.267 479.902 171.275 480.683ZM195.455 475.603V486.394H194.161V475.603H195.455ZM183.619 480.251C183.61 478.126 185.279 476.64 187.487 476.632C189.695 476.64 191.347 478.126 191.355 480.251C191.347 482.401 189.695 483.895 187.487 483.887C185.279 483.895 183.61 482.401 183.619 480.251ZM184.897 480.251C184.88 481.72 185.993 482.741 187.487 482.741C188.956 482.741 190.077 481.72 190.077 480.251C190.077 478.807 188.956 477.777 187.487 477.777C185.993 477.777 184.88 478.807 184.897 480.251ZM185.926 490.029V485.298H187.221V488.934H195.92V490.029H185.926ZM209.044 475.586V481.679H211.518V482.758H209.044V490.345H207.749V475.586H209.044ZM197.539 479.039V477.96H201.341V475.769H202.636V477.96H206.322V479.039H197.539ZM198.386 483.654C198.378 481.662 199.905 480.268 202.005 480.268C204.089 480.268 205.608 481.662 205.624 483.654C205.608 485.655 204.089 487.041 202.005 487.041C199.905 487.041 198.378 485.655 198.386 483.654ZM199.631 483.654C199.623 484.999 200.627 485.945 202.005 485.929C203.366 485.945 204.363 484.999 204.379 483.654C204.363 482.318 203.366 481.355 202.005 481.363C200.627 481.355 199.623 482.318 199.631 483.654ZM216.357 479.786C216.357 482.135 217.503 484.667 219.462 485.829L218.715 486.842C217.287 485.979 216.266 484.401 215.752 482.6C215.212 484.567 214.116 486.261 212.639 487.157L211.809 486.178C213.851 484.982 215.096 482.368 215.096 479.836V476.98H216.357V479.786ZM217.835 481.994V480.882H220.342V475.901H221.57V489.598H220.342V481.994H217.835ZM223.363 490.345V475.586H224.625V490.345H223.363ZM239.841 487.356V488.452H226.327V487.356H229.681V483.38C228.419 482.725 227.655 481.662 227.655 480.317C227.655 478.035 229.896 476.532 233.051 476.516C236.205 476.532 238.446 478.035 238.446 480.317C238.446 481.637 237.707 482.683 236.487 483.339V487.356H239.841ZM228.917 480.317C228.909 481.969 230.627 483.073 233.051 483.073C235.45 483.073 237.184 481.969 237.184 480.317C237.184 478.666 235.45 477.578 233.051 477.595C230.627 477.578 228.909 478.666 228.917 480.317ZM230.959 487.356H235.176V483.845C234.537 484.011 233.823 484.103 233.051 484.103C232.295 484.103 231.59 484.02 230.959 483.854V487.356ZM242.24 489.1C241.659 489.091 241.161 488.61 241.178 488.021C241.161 487.439 241.659 486.958 242.24 486.958C242.829 486.958 243.311 487.439 243.303 488.021C243.311 488.61 242.829 489.091 242.24 489.1Z" fill="white"/>
</g>
<defs>
<linearGradient id="paint0_linear_250_1600" x1="200" y1="76" x2="200" y2="576" gradientUnits="userSpaceOnUse">
<stop stop-color="#E76065"/>
<stop offset="1" stop-color="#DD507B"/>
</linearGradient>
<clipPath id="clip0_250_1600">
<rect width="157.661" height="18" fill="white" transform="translate(30 31)"/>
</clipPath>
<clipPath id="clip1_250_1600">
<path d="M30 108C30 90.3269 44.3269 76 62 76H294C335.974 76 370 110.026 370 152V544C370 561.673 355.673 576 338 576H62C44.3269 576 30 561.673 30 544V108Z" fill="white"/>
</clipPath>
<clipPath id="clip2_250_1600">
<rect x="60" y="288" width="66" height="66" rx="24" fill="white"/>
</clipPath>
</defs>
</svg>
