<svg width="450" height="851" viewBox="0 0 450 851" fill="none" xmlns="http://www.w3.org/2000/svg">
<rect width="450" height="851" fill="white"/>
<g clip-path="url(#clip0_263_980)">
<circle cx="225" cy="317.5" r="55" fill="#F2F3F7"/>
<path d="M218.091 323.957L238.156 303.775C238.779 303.148 239.573 302.834 240.537 302.834C241.5 302.834 242.294 303.148 242.917 303.775C243.541 304.402 243.852 305.2 243.852 306.169C243.852 307.138 243.541 307.937 242.917 308.564L220.472 331.141C219.792 331.825 218.998 332.167 218.091 332.167C217.185 332.167 216.391 331.825 215.711 331.141L206.869 322.247C206.245 321.62 205.934 320.822 205.934 319.852C205.934 318.883 206.245 318.085 206.869 317.458C207.492 316.831 208.286 316.517 209.249 316.517C210.213 316.517 211.006 316.831 211.63 317.458L218.091 323.957Z" fill="#EF403C"/>
</g>
<path d="M136.163 420.422V435.727H133.538V420.422H136.163ZM118.89 427.102C118.89 424.02 121.386 421.816 124.609 421.805C127.831 421.816 130.316 424.02 130.304 427.102C130.316 430.23 127.831 432.422 124.609 432.422C121.386 432.422 118.89 430.23 118.89 427.102ZM121.445 427.102C121.433 428.977 122.792 430.148 124.609 430.148C126.378 430.148 127.749 428.977 127.749 427.102C127.749 425.273 126.378 424.078 124.609 424.078C122.792 424.078 121.433 425.273 121.445 427.102ZM122.148 441.164V434.18H124.773V439.055H136.749V441.164H122.148ZM158.09 430.266V432.375H138.777V430.266H158.09ZM139.715 427.266C143.64 426.879 146.195 425.309 146.594 423.539H140.535V421.406H156.355V423.539H150.238C150.625 425.285 153.156 426.879 157.176 427.266L156.262 429.328C152.406 428.93 149.558 427.395 148.41 425.25C147.262 427.395 144.449 428.93 140.605 429.328L139.715 427.266ZM141.027 437.672C141.027 435.211 143.805 433.781 148.41 433.781C152.98 433.781 155.734 435.211 155.746 437.672C155.734 440.168 152.98 441.562 148.41 441.562C143.805 441.562 141.027 440.168 141.027 437.672ZM143.676 437.672C143.664 438.902 145.328 439.512 148.41 439.523C151.445 439.512 153.121 438.902 153.144 437.672C153.121 436.441 151.445 435.82 148.41 435.82C145.328 435.82 143.664 436.441 143.676 437.672ZM176.664 420.398V441.609H174.039V420.398H176.664ZM159.719 429.422C159.707 424.852 162.039 421.945 165.25 421.945C168.426 421.945 170.77 424.852 170.782 429.422C170.77 434.027 168.426 436.922 165.25 436.922C162.039 436.922 159.707 434.027 159.719 429.422ZM162.227 429.422C162.227 432.68 163.457 434.566 165.25 434.578C167.032 434.566 168.25 432.68 168.25 429.422C168.25 426.188 167.032 424.289 165.25 424.289C163.457 424.289 162.227 426.188 162.227 429.422ZM190.915 421.312C194.009 421.312 196.212 423.035 196.236 425.578C196.212 427.688 194.63 429.27 192.275 429.703V431.414C194.044 431.309 195.814 431.156 197.454 430.922L197.665 432.82C193.259 433.605 188.337 433.699 184.751 433.688L184.47 431.602C185.993 431.602 187.775 431.59 189.65 431.531V429.715C187.224 429.305 185.607 427.723 185.618 425.578C185.607 423.035 187.81 421.312 190.915 421.312ZM187.376 441.141V435.164H189.978V439.031H202.048V441.141H187.376ZM188.056 425.578C188.033 426.973 189.228 427.84 190.915 427.852C192.615 427.84 193.763 426.973 193.775 425.578C193.763 424.148 192.615 423.305 190.915 423.305C189.228 423.305 188.033 424.148 188.056 425.578ZM198.697 436.594V420.422H201.298V427.266H204.158V429.422H201.298V436.594H198.697ZM224.138 436.969V439.125H204.779V436.969H209.912V433.477H207.076V426.562H219.263V423.961H207.029V421.852H221.842V428.648H209.677V431.367H222.334V433.477H219.24V436.969H224.138ZM212.443 436.969H216.685V433.477H212.443V436.969ZM237.651 429.188V431.297H233.362V434.988C235.213 434.918 237.065 434.789 238.823 434.602L239.033 436.523C234.369 437.215 229.459 437.262 225.463 437.273L225.135 435.117C226.881 435.129 228.791 435.117 230.76 435.082V431.297H226.612V422.344H237.557V424.406H229.19V429.188H237.651ZM240.088 441.609V420.398H242.69V441.609H240.088ZM253.061 434.133C253.038 435.926 253.846 437.777 255.675 438.973C257.514 437.695 258.335 435.738 258.358 434.133V433.148H260.913V434.133C260.901 436.348 262.202 438.469 265.038 439.359L263.725 441.305C261.663 440.578 260.315 439.219 259.589 437.508C258.885 439.184 257.632 440.684 255.686 441.469C253.717 440.73 252.452 439.301 251.772 437.602C251.01 439.23 249.675 440.578 247.717 441.305L246.452 439.359C249.194 438.422 250.518 436.23 250.53 434.133V433.148H253.061V434.133ZM245.585 426.562C245.585 423.633 247.975 421.523 251.186 421.523C253.893 421.523 256.073 423.117 256.612 425.461H260.444V420.398H263.046V432.352H260.444V427.57H256.635C256.143 429.984 253.94 431.613 251.186 431.602C247.975 431.613 245.585 429.516 245.585 426.562ZM248.092 426.562C248.081 428.285 249.393 429.434 251.186 429.445C252.932 429.434 254.233 428.285 254.233 426.562C254.233 424.816 252.932 423.703 251.186 423.703C249.393 423.703 248.081 424.816 248.092 426.562ZM270.464 433.102V435.117H279.792V433.102H282.394V441.328H267.886V433.102H270.464ZM265.566 431.906V429.773H284.878V431.906H265.566ZM266.55 426.609C270.98 426.059 273.874 423.785 273.886 421.43V420.633H276.558V421.43C276.558 423.715 279.464 426.094 283.847 426.609L282.933 428.672C279.382 428.191 276.581 426.609 275.222 424.465C273.851 426.621 271.038 428.191 267.511 428.672L266.55 426.609ZM270.464 439.266H279.792V437.109H270.464V439.266ZM303.5 420.398V441.586H300.922V420.398H303.5ZM287.047 436.266V422.461H289.625V434.039C292.59 433.992 295.754 433.734 299.023 433.078L299.351 435.258C295.625 436.031 292.168 436.277 288.875 436.266H287.047ZM322.684 420.398V428.438H325.942V430.57H322.684V441.609H320.082V420.398H322.684ZM306.957 436.43V422.414H316.871V424.523H309.559V434.25C312.852 434.238 315.465 434.074 318.371 433.57L318.676 435.773C315.383 436.336 312.535 436.43 308.715 436.43H306.957ZM328.93 439.688C327.922 439.688 327.09 438.867 327.102 437.859C327.09 436.875 327.922 436.066 328.93 436.055C329.903 436.066 330.735 436.875 330.735 437.859C330.735 438.867 329.903 439.688 328.93 439.688Z" fill="#222222"/>
<path d="M126.124 464.022C126.109 465.751 127.391 467.304 129.332 467.948L128.746 468.871C127.259 468.358 126.117 467.296 125.56 465.971C124.996 467.443 123.802 468.607 122.257 469.179L121.656 468.241C123.619 467.575 124.959 465.905 124.967 464.037V463.524H122.008V462.587H129.024V463.524H126.124V464.022ZM123.678 474.511V469.94H131.895V474.511H123.678ZM124.806 473.573H130.753V470.863H124.806V473.573ZM130.753 469.34V461.664H131.895V464.916H133.858V465.883H131.895V469.34H130.753ZM139.008 465.165C139 467.545 140.619 469.933 142.538 470.805L141.835 471.713C140.348 470.995 139.066 469.45 138.444 467.597C137.843 469.56 136.561 471.208 135.038 471.977L134.305 471.01C136.246 470.124 137.85 467.633 137.865 465.165V462.792H139.008V465.165ZM143.959 474.716V461.664H145.116V474.716H143.959ZM161.684 463.158V464.11H151.122V463.158H155.868V461.591H156.996V463.158H161.684ZM150.507 471.054V470.102H162.431V471.054H156.996V474.716H155.868V471.054H150.507ZM152.192 467.04C152.177 465.634 153.774 464.857 156.44 464.857C159.084 464.857 160.68 465.634 160.688 467.04C160.68 468.417 159.084 469.193 156.44 469.208C153.774 469.193 152.177 468.417 152.192 467.04ZM153.378 467.04C153.364 467.846 154.499 468.322 156.44 468.314C158.359 468.322 159.487 467.846 159.501 467.04C159.487 466.22 158.359 465.744 156.44 465.736C154.499 465.744 153.364 466.22 153.378 467.04ZM171.221 465.165C171.213 467.523 172.729 469.896 174.619 470.761L173.931 471.698C172.451 470.937 171.228 469.384 170.649 467.531C170.071 469.479 168.848 471.149 167.368 471.933L166.621 471.01C168.533 470.072 170.041 467.567 170.049 465.165V462.792H171.221V465.165ZM173.198 467.055V466.117H176.289V461.664H177.432V474.716H176.289V467.055H173.198ZM190.037 461.664V474.716H188.88V461.664H190.037ZM180.061 471.566V462.777H181.204V466.22H185.086V462.777H186.214V471.566H180.061ZM181.204 470.6H185.086V467.143H181.204V470.6ZM198.453 463.583C198.46 465.817 201.009 467.802 203.272 468.227L202.745 469.193C200.774 468.739 198.709 467.34 197.867 465.429C197.017 467.34 194.959 468.732 192.989 469.193L192.461 468.227C194.717 467.794 197.244 465.824 197.251 463.583V462.587H198.453V463.583ZM191.963 472.914V471.962H203.887V472.914H191.963ZM219.298 461.664V474.687H218.185V461.664H219.298ZM207.945 470.482C208.348 470.482 208.817 470.482 209.322 470.475V464.286H208.224V463.334H214.215V464.286H213.116V470.321C213.607 470.277 214.076 470.233 214.508 470.175L214.581 471.024C212.523 471.405 209.791 471.471 208.092 471.464L207.945 470.482ZM210.377 470.453C210.919 470.438 211.49 470.417 212.047 470.387V464.286H210.377V470.453ZM213.834 467.655V466.615H215.65V461.986H216.749V473.998H215.65V467.655H213.834ZM231.493 461.664V474.716H230.336V461.664H231.493ZM221.239 467.216C221.246 464.447 222.623 462.682 224.564 462.675C226.498 462.682 227.897 464.447 227.89 467.216C227.897 469.992 226.498 471.75 224.564 471.742C222.623 471.75 221.246 469.992 221.239 467.216ZM222.352 467.216C222.352 469.333 223.261 470.724 224.564 470.717C225.875 470.724 226.776 469.333 226.776 467.216C226.776 465.099 225.875 463.708 224.564 463.7C223.261 463.708 222.352 465.099 222.352 467.216ZM238.078 465.663C238.085 467.875 239.689 470.124 241.608 470.951L240.964 471.859C239.44 471.171 238.129 469.669 237.521 467.868C236.913 469.779 235.595 471.435 234.108 472.182L233.42 471.273C235.287 470.38 236.913 467.919 236.921 465.663V463.964H233.844V463.012H241.183V463.964H238.078V465.663ZM243 474.687V461.664H244.157V474.687H243ZM258.007 472.108V473.075H246.083V472.108H251.445V469.647H247.578V465.634H255.371V463.583H247.548V462.631H256.499V466.571H248.72V468.695H256.806V469.647H252.573V472.108H258.007ZM272.949 461.664V474.716H271.792V461.664H272.949ZM262.695 467.216C262.703 464.447 264.08 462.682 266.021 462.675C267.954 462.682 269.353 464.447 269.346 467.216C269.353 469.992 267.954 471.75 266.021 471.742C264.08 471.75 262.703 469.992 262.695 467.216ZM263.809 467.216C263.809 469.333 264.717 470.724 266.021 470.717C267.332 470.724 268.233 469.333 268.233 467.216C268.233 465.099 267.332 463.708 266.021 463.7C264.717 463.708 263.809 465.099 263.809 467.216ZM286.756 468.109V469.032H274.876V468.109H280.252V466.586H276.385V462.279H285.276V463.202H277.513V465.648H285.364V466.586H281.365V468.109H286.756ZM276.311 472.328C276.304 470.841 277.996 469.992 280.809 469.984C283.599 469.992 285.276 470.841 285.291 472.328C285.276 473.83 283.599 474.672 280.809 474.687C277.996 474.672 276.304 473.83 276.311 472.328ZM277.483 472.328C277.469 473.244 278.721 473.771 280.809 473.764C282.874 473.771 284.126 473.244 284.134 472.328C284.126 471.427 282.874 470.893 280.809 470.893C278.721 470.893 277.469 471.427 277.483 472.328ZM297.72 461.664V465.004H299.683V465.985H297.72V469.237H296.578V461.664H297.72ZM287.569 463.964V463.012H290.88V461.547H292.022V463.012H295.333V463.964H287.569ZM288.316 466.85C288.309 465.458 289.561 464.572 291.451 464.564C293.319 464.572 294.571 465.458 294.586 466.85C294.571 468.241 293.319 469.142 291.451 469.135C289.561 469.142 288.309 468.241 288.316 466.85ZM289.415 466.85C289.407 467.699 290.22 468.256 291.451 468.256C292.667 468.256 293.487 467.699 293.502 466.85C293.487 466.007 292.667 465.443 291.451 465.458C290.22 465.443 289.407 466.007 289.415 466.85ZM289.488 474.511V469.809H290.631V471.2H296.578V469.809H297.72V474.511H289.488ZM290.631 473.588H296.578V472.108H290.631V473.588ZM310.941 461.664V474.687H309.798V461.664H310.941ZM301.053 471.332V462.953H302.181V470.336C304.173 470.321 306.224 470.167 308.407 469.706L308.568 470.688C306.253 471.171 304.195 471.332 302.108 471.332H301.053ZM322.946 461.664V466.82H325.128V467.787H322.946V474.716H321.803V461.664H322.946ZM313.439 471.449V462.938H319.518V463.891H314.581V470.482C316.94 470.475 318.602 470.373 320.543 470.014L320.69 471.01C318.646 471.376 316.94 471.449 314.464 471.449H313.439ZM326.908 473.588C326.396 473.581 325.956 473.156 325.971 472.636C325.956 472.123 326.396 471.698 326.908 471.698C327.428 471.698 327.853 472.123 327.846 472.636C327.853 473.156 327.428 473.581 326.908 473.588ZM94.4604 484.664V497.716H93.3032V484.664H94.4604ZM84.2065 490.216C84.2139 487.447 85.5908 485.682 87.5317 485.675C89.4653 485.682 90.8643 487.447 90.8569 490.216C90.8643 492.992 89.4653 494.75 87.5317 494.742C85.5908 494.75 84.2139 492.992 84.2065 490.216ZM85.3198 490.216C85.3198 492.333 86.228 493.724 87.5317 493.717C88.8428 493.724 89.7437 492.333 89.7437 490.216C89.7437 488.099 88.8428 486.708 87.5317 486.7C86.228 486.708 85.3198 488.099 85.3198 490.216ZM108.267 491.109V492.032H96.387V491.109H101.763V489.586H97.8958V485.279H106.787V486.202H99.0237V488.648H106.875V489.586H102.876V491.109H108.267ZM97.8226 495.328C97.8152 493.841 99.5071 492.992 102.32 492.984C105.11 492.992 106.787 493.841 106.802 495.328C106.787 496.83 105.11 497.672 102.32 497.687C99.5071 497.672 97.8152 496.83 97.8226 495.328ZM98.9944 495.328C98.9798 496.244 100.232 496.771 102.32 496.764C104.385 496.771 105.637 496.244 105.645 495.328C105.637 494.427 104.385 493.893 102.32 493.893C100.232 493.893 98.9798 494.427 98.9944 495.328ZM119.129 484.664V490.04H121.312V490.992H119.129V497.687H117.986V484.664H119.129ZM108.978 487.711V486.759H112.332V484.825H113.475V486.759H116.727V487.711H108.978ZM109.725 491.783C109.717 490.025 111.065 488.795 112.918 488.795C114.756 488.795 116.097 490.025 116.111 491.783C116.097 493.548 114.756 494.771 112.918 494.771C111.065 494.771 109.717 493.548 109.725 491.783ZM110.823 491.783C110.816 492.97 111.702 493.805 112.918 493.79C114.119 493.805 114.998 492.97 115.013 491.783C114.998 490.604 114.119 489.754 112.918 489.762C111.702 489.754 110.816 490.604 110.823 491.783ZM126.373 488.663C126.38 490.875 127.984 493.124 129.903 493.951L129.259 494.859C127.735 494.171 126.424 492.669 125.816 490.868C125.208 492.779 123.89 494.435 122.403 495.182L121.715 494.273C123.582 493.38 125.208 490.919 125.216 488.663V486.964H122.14V486.012H129.478V486.964H126.373V488.663ZM131.295 497.687V484.664H132.452V497.687H131.295ZM141.476 485.411C143.424 485.418 144.86 486.656 144.86 488.414C144.86 490.194 143.424 491.424 141.476 491.432C139.535 491.424 138.085 490.194 138.092 488.414C138.085 486.656 139.535 485.418 141.476 485.411ZM139.22 488.414C139.213 489.608 140.194 490.479 141.476 490.479C142.765 490.479 143.739 489.608 143.732 488.414C143.739 487.242 142.765 486.378 141.476 486.378C140.194 486.378 139.213 487.242 139.22 488.414ZM139.235 497.335V492.589H140.348V496.39C141.103 496.361 142.106 496.251 143.029 495.943L143.205 496.866C141.938 497.284 140.7 497.342 139.85 497.335H139.235ZM142.75 493.541V492.647H145.49V491.49H146.618V492.647H149.328V493.541H142.75ZM143.615 495.826C143.607 494.698 144.596 493.98 146.032 493.98C147.46 493.98 148.463 494.698 148.478 495.826C148.463 496.954 147.46 497.657 146.032 497.657C144.596 497.657 143.607 496.954 143.615 495.826ZM144.64 495.826C144.64 496.441 145.219 496.83 146.032 496.837C146.845 496.83 147.423 496.441 147.423 495.826C147.423 495.226 146.845 494.823 146.032 494.815C145.219 494.823 144.64 495.226 144.64 495.826ZM146.881 491.183V484.664H148.024V487.608H149.987V488.561H148.024V491.183H146.881ZM156.44 485.514C159.157 485.521 161.2 486.942 161.2 489.088C161.2 491.256 159.157 492.677 156.44 492.662C153.722 492.677 151.679 491.256 151.679 489.088C151.679 486.942 153.722 485.521 156.44 485.514ZM150.507 495.958V494.991H162.431V495.958H150.507ZM152.778 489.088C152.763 490.67 154.338 491.725 156.44 491.725C158.527 491.725 160.087 490.67 160.087 489.088C160.087 487.528 158.527 486.444 156.44 486.451C154.338 486.444 152.763 487.528 152.778 489.088ZM169.763 485.807V486.964H172.81V484.679H173.967V494.186H172.81V490.714H169.763V491.886H163.786V485.807H169.763ZM164.929 490.963H168.635V486.759H164.929V490.963ZM165.544 497.408V493.336H166.701V496.441H174.26V497.408H165.544ZM169.763 489.762H172.81V487.931H169.763V489.762ZM182.786 485.675C184.705 485.682 186.067 487.447 186.082 490.216C186.067 492.992 184.705 494.75 182.786 494.742C180.852 494.75 179.497 492.992 179.505 490.216C179.497 487.447 180.852 485.682 182.786 485.675ZM180.589 490.216C180.596 492.333 181.497 493.724 182.786 493.717C184.09 493.724 184.968 492.333 184.968 490.216C184.968 488.099 184.09 486.708 182.786 486.7C181.497 486.708 180.596 488.099 180.589 490.216ZM188.235 497.687V484.664H189.378V489.864H191.56V490.86H189.378V497.687H188.235ZM197.281 486.085V490.641H193.516V493.6C195.018 493.592 196.431 493.534 198.116 493.248L198.218 494.186C196.365 494.508 194.893 494.566 193.252 494.566H192.403V489.688H196.167V487.052H192.374V486.085H197.281ZM199.024 497.013V484.957H200.079V489.82H201.998V484.664H203.096V497.687H201.998V490.772H200.079V497.013H199.024ZM212.999 487.125C213.006 488.443 214.296 489.557 216.149 489.967L215.68 490.89C214.178 490.516 213.021 489.725 212.45 488.67C211.893 489.813 210.721 490.685 209.176 491.065L208.678 490.143C210.56 489.725 211.857 488.517 211.857 487.125V487.066H208.956V486.158H211.857V484.708H212.999V486.158H215.9V487.066H212.999V487.125ZM208.063 491.988C210.56 491.981 213.863 491.966 216.749 491.593L216.822 492.428C215.577 492.633 214.288 492.757 213.028 492.838V497.306H211.886V492.896C210.567 492.948 209.315 492.955 208.224 492.955L208.063 491.988ZM217.701 497.701V484.679H218.829V497.701H217.701ZM232.68 495.035V495.987H220.756V495.035H226.088V491.842H227.216V495.035H232.68ZM221.225 491.036C223.502 490.648 226.037 488.744 226.044 486.554V485.558H227.245V486.554C227.252 488.729 229.823 490.648 232.094 491.036L231.581 491.988C229.596 491.578 227.501 490.238 226.659 488.363C225.802 490.23 223.729 491.578 221.737 491.988L221.225 491.036ZM244.216 484.664V497.716H243.073V490.465H239.953V494.42H233.947V485.689H235.104V489.088H238.825V485.689H239.953V489.513H243.073V484.664H244.216ZM235.104 493.468H238.825V490.011H235.104V493.468ZM257.949 491.886V492.823H246.069V491.886H257.949ZM247.622 497.408V493.775H248.764V496.441H256.704V497.408H247.622ZM247.651 490.655V485.162H256.469V486.085H248.808V487.447H256.118V488.341H248.808V489.747H256.542V490.655H247.651ZM264.68 484.898C267.573 484.898 269.272 485.697 269.28 487.14C269.272 488.619 267.573 489.417 264.68 489.425C261.772 489.417 260.066 488.619 260.066 487.14C260.066 485.697 261.772 484.898 264.68 484.898ZM258.747 491.241V490.304H270.613V491.241H258.747ZM260.183 493.248V492.369H269.089V495.284H261.355V496.632H269.485V497.54H260.212V494.435H267.961V493.248H260.183ZM261.267 487.14C261.252 488.048 262.519 488.546 264.68 488.546C266.841 488.546 268.1 488.048 268.108 487.14C268.1 486.283 266.841 485.77 264.68 485.763C262.519 485.77 261.252 486.283 261.267 487.14ZM285.232 485.309V486.29C285.232 487.293 285.232 488.465 284.917 490.011H286.741V490.948H274.891V490.011H283.76C283.899 489.388 283.973 488.832 284.024 488.326L276.224 488.663L276.077 487.74L284.075 487.499C284.097 487.074 284.09 486.671 284.09 486.29V486.246H276.385V485.309H285.232ZM276.282 493.102V492.208H285.335V495.211H277.454V496.588H285.789V497.511H276.311V494.332H284.192V493.102H276.282ZM298.292 484.679V492.633H297.149V484.679H298.292ZM288.199 486.393V485.455H294.146V489.044H289.341V490.934C291.671 490.926 293.406 490.853 295.523 490.538L295.655 491.476C293.465 491.82 291.685 491.893 289.283 491.886H288.228V488.136H293.004V486.393H288.199ZM289.532 494.288V493.336H298.292V497.687H297.149V494.288H289.532ZM306.708 486.92V487.857H300.174V486.92H302.884V485.06H304.027V486.92H306.708ZM300.643 491.695C300.643 489.967 301.822 488.744 303.441 488.736C305.082 488.744 306.253 489.967 306.268 491.695C306.253 493.446 305.082 494.676 303.441 494.684C301.822 494.676 300.643 493.446 300.643 491.695ZM301.668 491.695C301.668 492.853 302.408 493.68 303.441 493.673C304.481 493.68 305.243 492.853 305.243 491.695C305.243 490.553 304.481 489.718 303.441 489.703C302.408 489.718 301.668 490.553 301.668 491.695ZM307.381 497.042V484.986H308.465V490.157H310.194V484.664H311.292V497.687H310.194V491.109H308.465V497.042H307.381ZM319.445 486.51C319.437 488.253 321.759 489.732 324.03 490.069L323.605 490.978C321.576 490.633 319.591 489.549 318.8 487.982C318.009 489.549 316.024 490.633 314.025 490.978L313.571 490.069C315.834 489.732 318.148 488.253 318.156 486.51V486.422H313.981V485.484H323.605V486.422H319.445V486.51ZM312.867 493.043V492.091H324.733V493.043H319.342V497.687H318.214V493.043H312.867ZM330.146 486.334C330.131 488.128 331.537 489.754 333.471 490.392L332.914 491.285C331.383 490.758 330.168 489.674 329.574 488.282C328.988 489.784 327.758 490.978 326.205 491.534L325.619 490.611C327.582 489.93 328.974 488.216 328.974 486.334V485.104H330.146V486.334ZM327.846 497.511V492.311H328.988V493.893H335.141V492.311H336.283V497.511H327.846ZM328.988 496.573H335.141V494.815H328.988V496.573ZM335.141 491.651V484.664H336.283V491.651H335.141ZM342.824 488.165C342.817 490.545 344.435 492.933 346.354 493.805L345.651 494.713C344.164 493.995 342.883 492.45 342.26 490.597C341.66 492.56 340.378 494.208 338.854 494.977L338.122 494.01C340.063 493.124 341.667 490.633 341.682 488.165V485.792H342.824V488.165ZM347.775 497.716V484.664H348.933V497.716H347.775ZM356.792 485.514C359.56 485.528 361.552 486.876 361.552 488.927C361.552 490.868 359.824 492.149 357.348 492.318V495.05H362.783V496.017H350.859V495.05H356.22V492.318C353.759 492.142 352.031 490.86 352.031 488.927C352.031 486.876 354.03 485.528 356.792 485.514ZM353.144 488.927C353.137 490.428 354.682 491.402 356.792 491.417C358.901 491.402 360.439 490.428 360.439 488.927C360.439 487.455 358.901 486.458 356.792 486.466C354.682 486.458 353.137 487.455 353.144 488.927ZM364.9 496.588C364.387 496.581 363.948 496.156 363.962 495.636C363.948 495.123 364.387 494.698 364.9 494.698C365.42 494.698 365.845 495.123 365.837 495.636C365.845 496.156 365.42 496.581 364.9 496.588Z" fill="#888888"/>
<rect x="175" y="542.5" width="100" height="56" rx="8" fill="#EEEEEE"/>
<path d="M215.317 565.039C215.307 566.689 216.88 568.135 219.438 568.672L218.677 570.117C216.665 569.658 215.18 568.652 214.409 567.324C213.657 568.77 212.153 569.873 210.083 570.352L209.302 568.906C211.889 568.35 213.452 566.787 213.462 565.039H209.692V563.574H213.462V561.699H215.317V563.574H219.067V565.039H215.317ZM208.54 571.426C211.86 571.426 216.255 571.396 220.063 570.918L220.2 572.266C218.598 572.529 216.948 572.695 215.337 572.793V578.633H213.481V572.891C211.802 572.959 210.2 572.969 208.794 572.969L208.54 571.426ZM221.274 579.16V561.68H223.11V579.16H221.274ZM241.46 575.41V576.934H225.445V575.41H232.456V571.25H234.292V575.41H241.46ZM225.991 570.039C229.361 569.473 232.368 566.875 232.378 564.102V562.773H234.331V564.102C234.331 566.875 237.378 569.473 240.757 570.039L239.956 571.562C237.114 571.006 234.517 569.248 233.364 566.855C232.212 569.238 229.634 571.006 226.812 571.562L225.991 570.039Z" fill="#323C59"/>
<defs>
<clipPath id="clip0_263_980">
<rect width="110" height="110" fill="white" transform="translate(170 262.5)"/>
</clipPath>
</defs>
</svg>
