<svg width="400" height="727" viewBox="0 0 400 727" fill="none" xmlns="http://www.w3.org/2000/svg">
<rect width="400" height="727" fill="white"/>
<g clip-path="url(#clip0_263_944)">
<path d="M34.3254 15H20.3748C20.1678 15 20 15.1682 20 15.3758V34.6242C20 34.8318 20.1678 35 20.3748 35H34.3254C34.5324 35 34.7002 34.8318 34.7002 34.6242V15.3758C34.7002 15.1682 34.5324 15 34.3254 15Z" fill="#FF3A4A"/>
<path d="M83.7063 15H69.7557C69.5487 15 69.3809 15.1682 69.3809 15.3758V34.6242C69.3809 34.8318 69.5487 35 69.7557 35H83.7063C83.9133 35 84.0811 34.8318 84.0811 34.6242V15.3758C84.0811 15.1682 83.9133 15 83.7063 15Z" fill="#FF3A4A"/>
<path d="M67.2473 15H53.2967C53.0897 15 52.9219 15.1682 52.9219 15.3758V34.6242C52.9219 34.8318 53.0897 35 53.2967 35H67.2473C67.4543 35 67.6221 34.8318 67.6221 34.6242V15.3758C67.6221 15.1682 67.4543 15 67.2473 15Z" fill="#FF3A4A"/>
<path d="M50.7864 15H36.8358C36.6287 15 36.4609 15.1682 36.4609 15.3758V34.6242C36.4609 34.8318 36.6287 35 36.8358 35H50.7864C50.9934 35 51.1612 34.8318 51.1612 34.6242V15.3758C51.1612 15.1682 50.9934 15 50.7864 15Z" fill="#FF3A4A"/>
<path d="M60.2141 17.5611C59.2109 17.5462 58.1944 17.8237 57.4104 18.4561C56.6493 19.0988 56.2825 20.1285 56.353 21.111C56.2591 21.9369 56.3849 22.7967 56.8264 23.5108C57.4103 24.5933 58.5689 25.1415 59.4646 25.9206C60.2381 26.5202 61.1773 27.0587 61.5586 28.0098C61.6957 28.6387 61.7622 29.4193 61.3042 29.9351C60.7553 30.5017 59.7502 30.478 59.1583 29.9954C58.9861 29.8513 58.7665 29.5951 58.7665 29.3024C58.7665 28.697 58.7638 27.9769 58.7638 27.9769H56.333C56.333 29.3457 56.2722 29.9698 56.8184 30.8056C57.4013 31.8186 58.5671 32.3712 59.7062 32.4334C60.21 32.4657 60.7246 32.4919 61.2173 32.3603C62.2661 32.1853 63.2003 31.5153 63.7265 30.5946C64.1932 29.6801 64.0868 28.6183 63.9792 27.6351C63.7572 26.5525 62.9522 25.7201 62.0834 25.0996C61.1263 24.3213 60.036 23.6881 59.2081 22.7622C58.6794 22.2309 58.7741 21.4643 58.7865 20.7838C58.7954 20.07 59.468 19.681 60.1797 19.663C60.8915 19.6452 61.6493 20.1559 61.6493 21.0156V22.0904H64.0711C64.0711 20.9584 64.0906 20.5307 63.8795 19.7876C63.4644 18.6455 62.3649 17.8931 61.204 17.6713C60.8816 17.6036 60.5486 17.5662 60.2142 17.5612L60.2141 17.5611ZM76.6656 17.5611C75.6622 17.5462 74.6456 17.8237 73.8617 18.4561C73.1005 19.0988 72.7338 20.1285 72.8043 21.111C72.7104 21.9369 72.8361 22.7967 73.2777 23.5108C73.8616 24.5933 75.0201 25.1415 75.9158 25.9206C76.6894 26.5202 77.6287 27.0587 78.01 28.0098C78.1472 28.6387 78.2135 29.4193 77.7556 29.9351C77.2066 30.5017 76.2015 30.478 75.6095 29.9954C75.4374 29.8513 75.2178 29.5951 75.2178 29.3024C75.2178 28.697 75.2151 27.9769 75.2151 27.9769H72.7842C72.7842 29.3457 72.7234 29.9698 73.2696 30.8056C73.8526 31.8186 75.0184 32.3712 76.1575 32.4334C76.6613 32.4657 77.1758 32.4919 77.6685 32.3603C78.7174 32.1853 79.6517 31.5153 80.1778 30.5946C80.6445 29.6801 80.5381 28.6183 80.4306 27.6351C80.2085 26.5525 79.4035 25.7201 78.5346 25.0996C77.5775 24.3213 76.4873 23.6881 75.6594 22.7622C75.1308 22.2309 75.2253 21.4643 75.2378 20.7838C75.2465 20.07 75.9192 19.681 76.631 19.663C77.3427 19.6452 78.1006 20.1559 78.1006 21.0156V22.0904H80.5224C80.5224 20.9584 80.542 20.5307 80.3308 19.7876C79.9156 18.6455 78.8162 17.8931 77.6553 17.6713C77.3329 17.6036 77 17.5661 76.6656 17.5611ZM27.2079 17.7225C26.9321 17.7237 26.6463 17.729 26.3476 17.729C25.1528 17.729 24.6146 17.7417 23.748 17.729V32.2116H26.0453V27.848C27.3295 27.8146 28.7368 28.0269 29.8755 27.2831C30.7953 26.7409 31.2947 25.6383 31.1872 24.5854C31.1644 23.1003 31.2184 21.6094 31.1583 20.1274C30.9499 19.2052 30.3881 18.419 29.4957 18.0822C28.772 17.7527 28.0351 17.7189 27.2079 17.7225ZM42.0753 17.7656L39.6475 32.2722H41.9311L42.3327 29.7268H45.3178L45.7081 32.2116H48.0319L45.6055 17.7655L42.0753 17.7656ZM26.0453 19.9307H27.8834C28.7743 19.9307 29.0035 20.6136 29.0035 21.1178V24.5753C29.0035 25.1513 28.4661 25.545 27.9482 25.545H26.0453V19.9307ZM43.8365 20.3631L45.0294 27.545H42.6703L43.8365 20.3631Z" fill="white"/>
</g>
<path d="M32.2344 66.2812V76.4844H30.4844V66.2812H32.2344ZM20.7188 70.7344C20.7188 68.6797 22.3828 67.2109 24.5312 67.2031C26.6797 67.2109 28.3359 68.6797 28.3281 70.7344C28.3359 72.8203 26.6797 74.2812 24.5312 74.2812C22.3828 74.2812 20.7188 72.8203 20.7188 70.7344ZM22.4219 70.7344C22.4141 71.9844 23.3203 72.7656 24.5312 72.7656C25.7109 72.7656 26.625 71.9844 26.625 70.7344C26.625 69.5156 25.7109 68.7188 24.5312 68.7188C23.3203 68.7188 22.4141 69.5156 22.4219 70.7344ZM22.8906 80.1094V75.4531H24.6406V78.7031H32.625V80.1094H22.8906ZM46.8519 72.8438V74.25H33.9769V72.8438H46.8519ZM34.6019 70.8438C37.2191 70.5859 38.9222 69.5391 39.1878 68.3594H35.1488V66.9375H45.6956V68.3594H41.6175C41.8753 69.5234 43.5628 70.5859 46.2425 70.8438L45.6331 72.2188C43.0628 71.9531 41.1644 70.9297 40.3988 69.5C39.6331 70.9297 37.7581 71.9531 35.1956 72.2188L34.6019 70.8438ZM35.4769 77.7812C35.4769 76.1406 37.3284 75.1875 40.3988 75.1875C43.4456 75.1875 45.2816 76.1406 45.2894 77.7812C45.2816 79.4453 43.4456 80.375 40.3988 80.375C37.3284 80.375 35.4769 79.4453 35.4769 77.7812ZM37.2425 77.7812C37.2347 78.6016 38.3441 79.0078 40.3988 79.0156C42.4222 79.0078 43.5394 78.6016 43.555 77.7812C43.5394 76.9609 42.4222 76.5469 40.3988 76.5469C38.3441 76.5469 37.2347 76.9609 37.2425 77.7812ZM59.3131 66.2812V76.7031H57.5788V71.5H54.735V74.4062H48.1256V67.2031H49.86V69.4844H53.0163V67.2031H54.735V70.0938H57.5788V66.2812H59.3131ZM49.86 73.0312H53.0163V70.8281H49.86V73.0312ZM50.0006 80.1094V75.6719H51.7663V78.7031H59.6256V80.1094H50.0006ZM73.2431 68.1562V69.5625H61.5713V68.1562H66.5556V66.4531H68.2744V68.1562H73.2431ZM60.9931 78.875V77.4688H66.5556V75.7344C64.1181 75.5469 62.6416 74.5625 62.6494 73C62.6416 71.2969 64.4697 70.2812 67.415 70.2812C70.3213 70.2812 72.1728 71.2969 72.165 73C72.1728 74.5547 70.6806 75.5391 68.2744 75.7344V77.4688H73.8994V78.875H60.9931ZM64.4306 73C64.4228 73.9062 65.4931 74.3672 67.415 74.375C69.2978 74.3672 70.3838 73.9062 70.3838 73C70.3838 72.1094 69.2978 71.6484 67.415 71.6406C65.4931 71.6484 64.4228 72.1094 64.4306 73Z" fill="#222222"/>
<mask id="path-7-inside-1_263_944" fill="white">
<path d="M20 101H380V136H20V101Z"/>
</mask>
<path d="M380 135H20V137H380V135Z" fill="#777777" mask="url(#path-7-inside-1_263_944)"/>
<path d="M20.7324 121.832V120.748L25.5078 113.395H27.1338V120.675H28.6133V121.832H27.1338V124H25.874V121.832H20.7324ZM22.1533 120.675H25.874V115.064H25.7422L22.1533 120.587V120.675ZM30.0564 124L30.0418 123.033L33.66 119.225C34.9124 117.892 35.513 117.174 35.5203 116.192C35.513 115.101 34.6048 114.398 33.4109 114.391C32.1438 114.398 31.3528 115.196 31.3455 116.383H30.1004C30.0857 114.508 31.5359 113.248 33.4549 113.248C35.3812 113.248 36.7435 114.544 36.7508 116.192C36.7435 117.379 36.1941 118.302 34.3191 120.235L31.8875 122.74V122.828H36.9412V124H30.0564ZM42.2223 124.146C40.1129 124.146 38.5968 123.019 38.5309 121.334H39.8639C39.9371 122.345 40.9405 122.975 42.2076 122.975C43.6065 122.975 44.6173 122.22 44.6246 121.114C44.6173 119.957 43.6944 119.144 42.0465 119.137H41.1822V117.979H42.0465C43.3355 117.979 44.2364 117.254 44.2291 116.163C44.2364 115.101 43.4601 114.398 42.2516 114.391C41.1163 114.398 40.0836 115.021 40.025 116.061H38.7506C38.8165 114.376 40.3839 113.248 42.2662 113.248C44.2877 113.248 45.5182 114.574 45.5035 116.09C45.5182 117.298 44.815 118.177 43.7018 118.492V118.565C45.086 118.778 45.921 119.767 45.9137 121.114C45.921 122.857 44.339 124.146 42.2223 124.146ZM51.0629 124.146C48.829 124.146 47.2909 122.909 47.2982 121.188C47.2909 119.818 48.2431 118.683 49.4516 118.492V118.434C48.3969 118.192 47.7011 117.218 47.7084 116.061C47.7011 114.442 49.122 113.248 51.0629 113.248C52.9965 113.248 54.4174 114.442 54.432 116.061C54.4174 117.218 53.7143 118.192 52.6742 118.434V118.492C53.8754 118.683 54.8275 119.818 54.8422 121.188C54.8275 122.909 53.2748 124.146 51.0629 124.146ZM48.6166 121.114C48.5946 122.228 49.5395 122.982 51.0629 122.989C52.579 122.982 53.5238 122.228 53.5238 121.114C53.5238 119.942 52.4911 119.078 51.0629 119.078C49.642 119.078 48.5946 119.942 48.6166 121.114ZM48.9828 116.163C48.9901 117.232 49.8471 117.958 51.0629 117.965C52.2714 117.958 53.143 117.232 53.143 116.163C53.143 115.101 52.3007 114.383 51.0629 114.391C49.8031 114.383 48.9901 115.101 48.9828 116.163ZM56.051 121.832V120.748L60.8264 113.395H62.4523V120.675H63.9318V121.832H62.4523V124H61.1926V121.832H56.051ZM57.4719 120.675H61.1926V115.064H61.0607L57.4719 120.587V120.675ZM68.9199 124.146C66.686 124.146 65.1479 122.909 65.1553 121.188C65.1479 119.818 66.1001 118.683 67.3086 118.492V118.434C66.2539 118.192 65.5581 117.218 65.5654 116.061C65.5581 114.442 66.979 113.248 68.9199 113.248C70.8535 113.248 72.2744 114.442 72.2891 116.061C72.2744 117.218 71.5713 118.192 70.5312 118.434V118.492C71.7324 118.683 72.6846 119.818 72.6992 121.188C72.6846 122.909 71.1318 124.146 68.9199 124.146ZM66.4736 121.114C66.4517 122.228 67.3965 122.982 68.9199 122.989C70.436 122.982 71.3809 122.228 71.3809 121.114C71.3809 119.942 70.3481 119.078 68.9199 119.078C67.499 119.078 66.4517 119.942 66.4736 121.114ZM66.8398 116.163C66.8472 117.232 67.7041 117.958 68.9199 117.965C70.1284 117.958 71 117.232 71 116.163C71 115.101 70.1577 114.383 68.9199 114.391C67.6602 114.383 66.8472 115.101 66.8398 116.163Z" fill="#222222"/>
<path d="M30.708 157.179V160.167H32.6855V161.134H30.708V164.532H29.5654V157.179H30.708ZM21.1572 163.536V157.838H22.3145V162.569C24.1748 162.562 26.0864 162.416 28.1885 161.983L28.335 162.95C26.123 163.397 24.1528 163.529 22.1973 163.536H21.1572ZM22.4609 170.011V165.25H30.708V170.011H22.4609ZM23.5889 169.073H29.5947V166.158H23.5889V169.073ZM45.0564 164.034V164.972H33.1912V164.034H45.0564ZM34.5096 160.211C34.5096 158.578 36.2967 157.618 39.1238 157.633C41.9217 157.618 43.7161 158.578 43.7234 160.211C43.7161 161.83 41.9217 162.804 39.1238 162.804C36.2967 162.804 34.5096 161.83 34.5096 160.211ZM34.7293 169.908V166.114H35.8865V168.941H43.7381V169.908H34.7293ZM35.6961 160.211C35.6888 161.244 37.0218 161.866 39.1238 161.866C41.2112 161.866 42.5442 161.244 42.5516 160.211C42.5442 159.193 41.2112 158.556 39.1238 158.556C37.0218 158.556 35.6888 159.193 35.6961 160.211ZM50.484 160.665C50.4767 163.045 52.0953 165.433 54.0143 166.305L53.3111 167.213C51.8243 166.495 50.5426 164.95 49.92 163.097C49.3194 165.06 48.0377 166.708 46.5143 167.477L45.7818 166.51C47.7228 165.624 49.3268 163.133 49.3414 160.665V158.292H50.484V160.665ZM55.4352 170.216V157.164H56.5924V170.216H55.4352ZM68.6996 157.164V161.134H70.6625V162.101H68.6996V166.7H67.5424V157.164H68.6996ZM58.5336 164.269C61.661 163.294 63.6898 161.441 63.9315 159.142H59.0756V158.175H65.184C65.184 161.529 62.789 164.02 59.0316 165.191L58.5336 164.269ZM60.5404 169.908V165.733H61.683V168.941H69.3002V169.908H60.5404Z" fill="#777777"/>
<path d="M77.835 169L77.8203 167.403L81.6289 163.902C82.6177 162.958 83.1523 162.372 83.1523 161.529C83.1523 160.584 82.4419 159.999 81.4678 160.006C80.4717 159.999 79.8198 160.628 79.8271 161.646H77.7324C77.7251 159.574 79.2632 158.248 81.4971 158.248C83.7676 158.248 85.2764 159.544 85.2764 161.383C85.2764 162.591 84.6904 163.58 82.5078 165.558L80.8965 167.125V167.184H85.4229V169H77.835ZM87.9793 167.711C87.2908 167.711 86.7342 167.162 86.7488 166.48C86.7342 165.807 87.2908 165.257 87.9793 165.265C88.6312 165.257 89.1951 165.807 89.1951 166.48C89.1951 167.162 88.6312 167.711 87.9793 167.711ZM86.7488 160.899C86.7342 160.226 87.2908 159.676 87.9793 159.684C88.6312 159.676 89.1951 160.226 89.1951 160.899C89.1951 161.581 88.6312 162.13 87.9793 162.13C87.2908 162.13 86.7342 161.581 86.7488 160.899ZM94.5201 169.146C92.3082 169.146 90.6896 167.843 90.6529 166.012H92.7916C92.8429 166.839 93.5973 167.411 94.5201 167.403C95.6187 167.411 96.4024 166.634 96.3951 165.528C96.4024 164.4 95.6041 163.617 94.4908 163.609C93.6925 163.609 93.1358 163.91 92.8209 164.503H90.8287L91.4 158.395H97.9332V160.196H93.2164L92.9234 162.877H93.0113C93.3995 162.357 94.2052 161.976 95.1354 161.983C97.0836 161.976 98.5338 163.434 98.5338 165.47C98.5338 167.616 96.9078 169.146 94.5201 169.146ZM103.595 158.248C105.792 158.255 107.872 159.566 107.872 163.419C107.88 167.022 106.173 169.146 103.507 169.146C101.376 169.146 99.911 167.806 99.6986 166.012H101.867C102.05 166.795 102.658 167.257 103.507 167.257C104.95 167.257 105.712 165.96 105.719 163.844H105.631C105.133 164.781 104.086 165.338 102.907 165.338C101.002 165.338 99.5961 163.902 99.5814 161.925C99.5814 159.793 101.2 158.241 103.595 158.248ZM101.735 161.866C101.735 162.914 102.504 163.727 103.595 163.727C104.672 163.727 105.499 162.87 105.499 161.852C105.485 160.841 104.694 159.984 103.61 159.977C102.526 159.984 101.72 160.812 101.735 161.866Z" fill="#FF3A4A"/>
<path d="M285.156 160.665C285.149 163.045 286.768 165.433 288.687 166.305L287.983 167.213C286.497 166.495 285.215 164.95 284.592 163.097C283.992 165.06 282.71 166.708 281.187 167.477L280.454 166.51C282.395 165.624 283.999 163.133 284.014 160.665V158.292H285.156V160.665ZM290.107 170.216V157.164H291.265V170.216H290.107ZM303.372 157.164V161.134H305.335V162.101H303.372V166.7H302.215V157.164H303.372ZM293.206 164.269C296.333 163.294 298.362 161.441 298.604 159.142H293.748V158.175H299.856C299.856 161.529 297.461 164.02 293.704 165.191L293.206 164.269ZM295.213 169.908V165.733H296.355V168.941H303.972V169.908H295.213ZM316.651 157.179V166.803H315.494V163.287H312.125C311.524 164.056 310.557 164.518 309.444 164.518C307.496 164.518 306.053 163.17 306.06 161.266C306.053 159.354 307.496 158.006 309.444 157.999C310.55 158.006 311.502 158.46 312.11 159.215H315.494V157.179H316.651ZM307.159 161.266C307.159 162.569 308.111 163.5 309.444 163.492C310.726 163.5 311.7 162.569 311.7 161.266C311.7 159.969 310.726 159.032 309.444 159.024C308.111 159.032 307.159 159.969 307.159 161.266ZM308.287 169.908V165.792H309.444V168.941H317.017V169.908H308.287ZM312.63 160.167C312.747 160.504 312.813 160.87 312.813 161.266C312.813 161.646 312.747 162.005 312.637 162.335H315.494V160.167H312.63ZM322.928 159.64C322.935 161.346 324.21 162.87 326.121 163.492L325.579 164.4C324.078 163.902 322.943 162.87 322.379 161.559C321.822 163.053 320.621 164.217 319.061 164.781L318.475 163.858C320.423 163.199 321.786 161.522 321.8 159.64V159.083H318.827V158.131H325.858V159.083H322.928V159.64ZM320.204 167.755C320.211 166.253 321.844 165.382 324.525 165.382C327.198 165.382 328.817 166.253 328.817 167.755C328.817 169.278 327.198 170.157 324.525 170.157C321.844 170.157 320.211 169.278 320.204 167.755ZM321.361 167.755C321.346 168.692 322.562 169.242 324.525 169.234C326.495 169.242 327.696 168.692 327.704 167.755C327.696 166.847 326.495 166.305 324.525 166.305C322.562 166.305 321.346 166.847 321.361 167.755ZM327.557 165.03V157.164H328.7V160.489H330.662V161.456H328.7V165.03H327.557Z" fill="#777777"/>
<path d="M280 171.395H330.955V172.413H280V171.395Z" fill="#777777"/>
<path d="M352.719 157.164V170.187H351.605V163.419H349.833V169.527H348.734V157.442H349.833V162.438H351.605V157.164H352.719ZM341.396 166.612C343.271 165.58 344.274 163.368 344.267 160.724V159.684H341.703V158.717H347.797V159.684H345.38V160.724C345.38 163.104 346.369 165.206 348.222 166.158L347.533 167.052C346.222 166.334 345.314 165.052 344.853 163.463C344.406 165.272 343.483 166.693 342.113 167.491L341.396 166.612ZM364.987 157.179V166.729H363.83V161.734H361.149V160.782H363.83V157.179H364.987ZM354.25 164.122C356.169 163.448 357.56 161.727 357.56 159.859V159.186H354.616V158.233H361.633V159.186H358.718V159.859C358.718 161.544 360.021 163.177 361.926 163.829L361.325 164.752C359.86 164.217 358.725 163.126 358.161 161.778C357.597 163.287 356.396 164.481 354.85 165.06L354.25 164.122ZM356.623 169.908V165.865H357.78V168.941H365.353V169.908H356.623ZM373.344 161.72V163.639H378.72V164.576H366.855V163.639H372.216V161.72H373.344ZM367.573 161.485C369.873 161.17 372.202 159.72 372.202 157.984V157.369H373.359V157.984C373.359 159.72 375.703 161.17 378.003 161.485L377.534 162.408C375.564 162.064 373.601 161.017 372.788 159.515C371.967 161.031 370.012 162.064 368.012 162.408L367.573 161.485ZM368.291 167.916C368.283 166.473 369.961 165.667 372.788 165.66C375.586 165.667 377.255 166.473 377.27 167.916C377.255 169.366 375.586 170.157 372.788 170.157C369.961 170.157 368.283 169.366 368.291 167.916ZM369.462 167.916C369.448 168.773 370.678 169.271 372.788 169.264C374.875 169.271 376.106 168.773 376.113 167.916C376.106 167.052 374.875 166.568 372.788 166.568C370.678 166.568 369.448 167.052 369.462 167.916Z" fill="#777777"/>
<path d="M341 171.395H379.292V172.413H341V171.395Z" fill="#777777"/>
<rect x="20.5" y="201.5" width="174" height="45" rx="3.5" fill="#DDDDDD"/>
<rect x="20.5" y="201.5" width="174" height="45" rx="3.5" stroke="#CCCCCC"/>
<path d="M99.2696 219.408C99.2613 220.811 100.598 222.04 102.773 222.496L102.125 223.725C100.415 223.334 99.1534 222.479 98.4976 221.351C97.8585 222.579 96.5802 223.517 94.8204 223.924L94.1563 222.695C96.356 222.222 97.6842 220.894 97.6925 219.408H94.4884V218.163H97.6925V216.569H99.2696V218.163H102.457V219.408H99.2696ZM93.5089 224.837C96.3311 224.837 100.066 224.812 103.304 224.405L103.42 225.551C102.059 225.775 100.656 225.916 99.2862 225.999V230.963H97.7091V226.082C96.2813 226.14 94.92 226.148 93.7247 226.148L93.5089 224.837ZM104.333 231.411V216.553H105.894V231.411H104.333ZM121.491 228.224V229.519H107.878V228.224H113.838V224.688H115.398V228.224H121.491ZM108.343 223.658C111.206 223.177 113.763 220.969 113.771 218.611V217.482H115.432V218.611C115.432 220.969 118.021 223.177 120.893 223.658L120.213 224.953C117.797 224.48 115.589 222.986 114.61 220.952C113.63 222.978 111.439 224.48 109.04 224.953L108.343 223.658Z" fill="#777777"/>
<rect x="205" y="201" width="175" height="46" rx="4" fill="#373A3F"/>
<path d="M276.508 216.553V227.36H274.931V216.553H276.508ZM264.472 221.234C264.48 219.084 266.19 217.557 268.44 217.549C270.681 217.557 272.391 219.084 272.391 221.234C272.391 223.417 270.681 224.937 268.44 224.937C266.19 224.937 264.48 223.417 264.472 221.234ZM266.016 221.234C266.008 222.637 267.053 223.559 268.44 223.559C269.801 223.559 270.847 222.637 270.847 221.234C270.847 219.865 269.801 218.927 268.44 218.927C267.053 218.927 266.008 219.865 266.016 221.234ZM266.78 231.096V226.265H268.373V229.817H276.956V231.096H266.78ZM292.089 223.542V224.82H278.525V223.542H292.089ZM279.239 221.517C281.937 221.226 284.07 220.014 284.245 218.562H279.771V217.267H290.877V218.562H286.353C286.536 220.006 288.636 221.226 291.392 221.517L290.827 222.762C288.246 222.463 286.112 221.375 285.307 219.807C284.485 221.375 282.369 222.463 279.787 222.762L279.239 221.517ZM280.136 228.688C280.136 226.962 282.07 225.966 285.299 225.966C288.503 225.966 290.42 226.962 290.429 228.688C290.42 230.415 288.503 231.386 285.299 231.378C282.07 231.386 280.136 230.415 280.136 228.688ZM281.73 228.688C281.721 229.626 283.024 230.141 285.299 230.133C287.54 230.141 288.852 229.626 288.852 228.688C288.852 227.726 287.54 227.211 285.299 227.194C283.024 227.211 281.721 227.726 281.73 228.688ZM304.582 216.553V220.969H306.707V222.264H304.582V226.563H303.005V216.553H304.582ZM292.778 224.903C293.932 224.903 295.268 224.903 296.663 224.87V223.866C294.97 223.675 293.891 222.878 293.907 221.683C293.891 220.321 295.31 219.475 297.443 219.491C299.577 219.475 300.971 220.321 300.979 221.683C300.971 222.87 299.917 223.667 298.24 223.866V224.812C299.568 224.746 300.913 224.638 302.158 224.455L302.291 225.584C299.095 226.14 295.567 226.165 292.944 226.165L292.778 224.903ZM293.16 218.993V217.814H296.663V216.42H298.24V217.814H301.743V218.993H293.16ZM294.638 228.489V227.261H304.582V231.411H303.005V228.489H294.638ZM295.401 221.683C295.401 222.38 296.173 222.836 297.443 222.828C298.697 222.836 299.477 222.38 299.469 221.683C299.477 220.969 298.697 220.554 297.443 220.57C296.173 220.554 295.401 220.969 295.401 221.683ZM319.565 216.553V227.36H317.988V216.553H319.565ZM307.529 221.234C307.537 219.084 309.247 217.557 311.497 217.549C313.738 217.557 315.448 219.084 315.448 221.234C315.448 223.417 313.738 224.937 311.497 224.937C309.247 224.937 307.537 223.417 307.529 221.234ZM309.073 221.234C309.065 222.637 310.111 223.559 311.497 223.559C312.858 223.559 313.904 222.637 313.904 221.234C313.904 219.865 312.858 218.927 311.497 218.927C310.111 218.927 309.065 219.865 309.073 221.234ZM309.837 231.096V226.265H311.43V229.817H320.013V231.096H309.837Z" fill="white"/>
<rect x="20" y="277" width="360" height="180" rx="14" fill="#F9F9F9"/>
<path d="M54.8909 312.358H53.3118V301.546H54.8909V312.358ZM42.8512 306.236C42.8512 305.531 43.0234 304.899 43.3677 304.34C43.716 303.78 44.1915 303.344 44.7942 303.031C45.4008 302.714 46.0739 302.555 46.8135 302.555C47.5532 302.555 48.2243 302.714 48.827 303.031C49.4297 303.344 49.9032 303.78 50.2476 304.34C50.592 304.899 50.7642 305.531 50.7642 306.236C50.7642 306.952 50.592 307.592 50.2476 308.155C49.9032 308.715 49.4297 309.151 48.827 309.464C48.2243 309.778 47.5532 309.934 46.8135 309.934C46.07 309.934 45.3969 309.778 44.7942 309.464C44.1915 309.151 43.716 308.715 43.3677 308.155C43.0234 307.592 42.8512 306.952 42.8512 306.236ZM44.395 306.236C44.3911 306.694 44.4929 307.099 44.7003 307.451C44.9116 307.803 45.2012 308.077 45.5691 308.273C45.9369 308.465 46.3517 308.56 46.8135 308.56C47.2675 308.56 47.6765 308.465 48.0404 308.273C48.4083 308.077 48.6959 307.803 48.9033 307.451C49.1146 307.099 49.2203 306.694 49.2203 306.236C49.2203 305.786 49.1146 305.387 48.9033 305.038C48.6959 304.686 48.4083 304.414 48.0404 304.222C47.6725 304.027 47.2636 303.929 46.8135 303.929C46.3557 303.929 45.9408 304.027 45.5691 304.222C45.2012 304.414 44.9116 304.686 44.7003 305.038C44.4929 305.387 44.3911 305.786 44.395 306.236ZM45.1581 311.261H46.7431V314.812H55.3253V316.104H45.1581V311.261ZM70.4643 309.823H56.9042V308.537H70.4643V309.823ZM57.6145 306.518C58.5067 306.42 59.3227 306.23 60.0623 305.948C60.802 305.666 61.3968 305.318 61.8469 304.903C62.3008 304.488 62.5591 304.042 62.6217 303.565H58.1428V302.268H69.2433V303.565H64.7409C64.7996 304.038 65.0539 304.483 65.504 304.897C65.954 305.312 66.5508 305.663 67.2944 305.948C68.0379 306.23 68.8637 306.42 69.7716 306.518L69.2022 307.756C68.3412 307.658 67.5409 307.476 66.8013 307.21C66.0616 306.944 65.4218 306.606 64.8817 306.195C64.3417 305.784 63.9386 305.318 63.6725 304.798C63.4064 305.318 63.0052 305.784 62.4691 306.195C61.933 306.606 61.2951 306.944 60.5554 307.21C59.8197 307.476 59.0214 307.658 58.1604 307.756L57.6145 306.518ZM58.5067 313.685C58.5067 313.114 58.7122 312.625 59.1231 312.218C59.534 311.811 60.1249 311.501 60.8959 311.29C61.6708 311.075 62.5943 310.967 63.6666 310.967C64.7311 310.967 65.6468 311.075 66.4138 311.29C67.1848 311.501 67.7757 311.811 68.1866 312.218C68.5975 312.625 68.805 313.114 68.8089 313.685C68.805 314.256 68.5975 314.744 68.1866 315.147C67.7796 315.554 67.1907 315.861 66.4197 316.068C65.6527 316.28 64.735 316.385 63.6666 316.385C62.5943 316.385 61.6708 316.28 60.8959 316.068C60.1249 315.861 59.534 315.554 59.1231 315.147C58.7122 314.744 58.5067 314.256 58.5067 313.685ZM60.1093 313.685C60.1054 314.155 60.4106 314.515 61.025 314.765C61.6434 315.016 62.5239 315.141 63.6666 315.141C64.7976 315.141 65.6742 315.016 66.2964 314.765C66.9187 314.515 67.2318 314.155 67.2357 313.685C67.2318 313.212 66.9187 312.848 66.2964 312.593C65.6742 312.339 64.7976 312.208 63.6666 312.2C62.5239 312.208 61.6434 312.339 61.025 312.593C60.4106 312.848 60.1054 313.212 60.1093 313.685ZM83.6544 312.54H82.0811V306.94H78.8291V310.063H71.961V302.526H73.5401V305.05H77.2676V302.526H78.8291V305.655H82.0811V301.546H83.6544V312.54ZM77.2676 308.795V306.271H73.5401V308.795H77.2676ZM73.9392 311.46H75.53V314.812H83.989V316.104H73.9392V311.46ZM98.494 304.909H86.2488V303.624H91.6024V301.751H93.1521V303.624H98.494V304.909ZM85.6089 313.45H91.6024V311.496C90.7336 311.441 89.9842 311.292 89.3541 311.049C88.724 310.807 88.2427 310.482 87.91 310.075C87.5774 309.664 87.413 309.185 87.417 308.637C87.413 308.046 87.6107 307.537 88.0098 307.11C88.409 306.684 88.9804 306.359 89.7239 306.136C90.4714 305.913 91.3539 305.801 92.3714 305.801C93.381 305.801 94.2577 305.915 95.0012 306.142C95.7487 306.365 96.324 306.69 96.727 307.116C97.1301 307.543 97.3317 308.05 97.3317 308.637C97.3317 309.181 97.1634 309.658 96.8268 310.069C96.4903 310.476 96.0089 310.801 95.3828 311.044C94.7566 311.286 94.0131 311.437 93.1521 311.496V313.45H99.2219V314.742H85.6089V313.45ZM89.0195 308.637C89.0195 308.981 89.1506 309.275 89.4128 309.517C89.675 309.756 90.0566 309.938 90.5575 310.063C91.0623 310.185 91.667 310.247 92.3714 310.251C93.0719 310.247 93.6706 310.185 94.1676 310.063C94.6686 309.938 95.0521 309.756 95.3182 309.517C95.5882 309.275 95.7232 308.981 95.7232 308.637C95.7232 308.296 95.5882 308.009 95.3182 307.774C95.0521 307.535 94.6686 307.355 94.1676 307.234C93.6667 307.109 93.068 307.046 92.3714 307.046C91.667 307.046 91.0643 307.109 90.5634 307.234C90.0624 307.355 89.6789 307.535 89.4128 307.774C89.1506 308.009 89.0195 308.296 89.0195 308.637ZM117.361 310.339H111.462V313.221H109.9V310.339H103.748V309.054H117.361V310.339ZM105.445 311.812H107.018V314.812H115.853V316.104H105.445V311.812ZM105.498 302.232H115.6V307.516H105.498V302.232ZM114.045 306.271V303.477H107.041V306.271H114.045ZM123.307 305.925C123.304 306.703 123.462 307.492 123.783 308.29C124.104 309.085 124.552 309.809 125.127 310.462C125.706 311.112 126.364 311.609 127.1 311.953L126.207 313.198C125.385 312.803 124.654 312.214 124.012 311.431C123.374 310.648 122.883 309.762 122.538 308.772C122.311 309.48 122.01 310.147 121.634 310.773C121.259 311.4 120.826 311.953 120.337 312.435C119.852 312.912 119.331 313.29 118.776 313.568L117.842 312.323C118.578 311.971 119.241 311.451 119.832 310.762C120.427 310.073 120.893 309.302 121.229 308.449C121.57 307.596 121.742 306.754 121.746 305.925V304.334H118.394V303.031H126.536V304.334H123.307V305.925ZM128.133 301.534H129.712V307.433H132.095V308.766H129.712V316.409H128.133V301.534ZM146.066 309.57H132.453V308.361H146.066V309.57ZM134.067 310.609H144.393V313.891H135.658V315.117H144.857V316.233H134.085V312.84H142.831V311.748H134.067V310.609ZM134.161 301.921H144.352V305.138H135.764V306.271H144.61V307.381H134.202V304.099H142.779V303.031H134.161V301.921ZM162.468 307.187H158.194V308.801H164.199V310.081H150.639V308.801H156.644V307.187H152.365V302.15H162.468V307.187ZM151.643 315.088C152.594 314.959 153.445 314.718 154.197 314.366C154.952 314.01 155.543 313.574 155.969 313.057C156.396 312.54 156.609 311.979 156.609 311.372V310.926H158.2V311.372C158.2 311.979 158.413 312.54 158.84 313.057C159.266 313.574 159.857 314.01 160.613 314.366C161.372 314.718 162.233 314.959 163.196 315.088L162.591 316.321C161.401 316.137 160.352 315.792 159.445 315.288C158.537 314.787 157.86 314.159 157.413 313.403C156.963 314.155 156.282 314.783 155.371 315.288C154.459 315.792 153.41 316.137 152.224 316.321L151.643 315.088ZM160.912 305.925V303.395H153.909V305.925H160.912ZM180.49 305.056H182.644V306.365H180.49V310.222H178.91V301.534H180.49V305.056ZM169.371 302.385H170.927V304.539H174.825V302.385H176.386V309.359H169.371V302.385ZM174.825 308.103V305.784H170.927V308.103H174.825ZM171.009 310.997H180.595V312.253H172.588V314.941H180.877V316.203H171.009V310.997ZM189.923 302.426C190.96 302.426 191.895 302.6 192.729 302.949C193.566 303.297 194.224 303.786 194.701 304.416C195.182 305.042 195.423 305.764 195.423 306.582C195.423 307.404 195.182 308.13 194.701 308.76C194.224 309.39 193.566 309.877 192.729 310.222C191.895 310.566 190.96 310.736 189.923 310.732C188.89 310.736 187.956 310.566 187.123 310.222C186.289 309.877 185.634 309.39 185.156 308.76C184.679 308.13 184.44 307.404 184.44 306.582C184.44 305.764 184.679 305.042 185.156 304.416C185.634 303.786 186.289 303.297 187.123 302.949C187.956 302.6 188.89 302.426 189.923 302.426ZM183.154 313.18H196.767V314.483H183.154V313.18ZM185.954 306.582C185.954 307.15 186.125 307.651 186.465 308.085C186.806 308.515 187.277 308.85 187.88 309.089C188.486 309.324 189.167 309.441 189.923 309.441C190.678 309.441 191.357 309.324 191.96 309.089C192.562 308.85 193.034 308.515 193.374 308.085C193.715 307.651 193.885 307.15 193.885 306.582C193.885 306.019 193.713 305.52 193.368 305.085C193.028 304.647 192.556 304.308 191.954 304.07C191.355 303.827 190.678 303.708 189.923 303.712C189.167 303.708 188.488 303.827 187.886 304.07C187.283 304.308 186.81 304.647 186.465 305.085C186.125 305.52 185.954 306.019 185.954 306.582ZM209.905 310.21H208.331V307.392H205.52V306.124H208.331V304.51H205.52V303.23H208.331V301.534H209.905V310.21ZM197.483 308.766C198.246 308.484 198.904 308.081 199.456 307.557C200.011 307.032 200.434 306.43 200.724 305.749C201.017 305.064 201.166 304.342 201.17 303.583V302.08H202.743V303.583C202.739 304.279 202.878 304.956 203.16 305.614C203.445 306.271 203.858 306.856 204.398 307.369C204.938 307.881 205.574 308.271 206.306 308.537L205.402 309.787C204.612 309.474 203.923 309.02 203.336 308.425C202.749 307.827 202.293 307.13 201.968 306.336C201.643 307.189 201.174 307.934 200.559 308.572C199.945 309.206 199.213 309.689 198.364 310.022L197.483 308.766ZM198.323 315.041C198.937 314.826 199.465 314.523 199.908 314.131C200.35 313.736 200.685 313.296 200.911 312.81C201.142 312.325 201.26 311.836 201.264 311.343V310.738H202.79V311.343C202.786 311.785 202.856 312.221 203.001 312.652C203.146 313.078 203.367 313.48 203.665 313.855C203.962 314.227 204.33 314.548 204.768 314.818C205.203 314.532 205.57 314.192 205.872 313.797C206.177 313.401 206.404 312.992 206.553 312.57C206.705 312.143 206.784 311.734 206.788 311.343V310.738H208.331V311.343C208.331 311.867 208.445 312.374 208.672 312.863C208.899 313.349 209.235 313.783 209.682 314.166C210.132 314.546 210.676 314.838 211.313 315.041L210.497 316.215C209.785 315.961 209.179 315.597 208.678 315.123C208.177 314.65 207.795 314.1 207.533 313.474C207.279 314.108 206.921 314.675 206.459 315.176C206.001 315.681 205.443 316.068 204.786 316.338C204.105 316.08 203.532 315.704 203.066 315.211C202.604 314.722 202.252 314.157 202.009 313.515C201.735 314.121 201.352 314.658 200.859 315.123C200.366 315.593 199.779 315.957 199.098 316.215L198.323 315.041ZM225.754 308.678H223.447V316.391H221.868V301.534H223.447V307.375H225.754V308.678ZM212.423 302.984H213.99V311.355C215.094 311.347 216.187 311.29 217.271 311.184C218.356 311.079 219.459 310.91 220.582 310.68L220.764 312.012C219.567 312.251 218.385 312.419 217.219 312.517C216.052 312.615 214.861 312.664 213.644 312.664H212.423V302.984ZM239.824 314.554H226.212V313.251H229.469V309.359C228.843 309.018 228.358 308.586 228.014 308.061C227.669 307.533 227.497 306.942 227.497 306.289C227.497 305.522 227.73 304.845 228.196 304.258C228.665 303.667 229.315 303.211 230.145 302.89C230.978 302.565 231.923 302.401 232.98 302.397C234.04 302.401 234.987 302.565 235.821 302.89C236.655 303.211 237.306 303.667 237.776 304.258C238.245 304.845 238.48 305.522 238.48 306.289C238.48 306.934 238.312 307.517 237.975 308.038C237.643 308.555 237.171 308.985 236.561 309.329V313.251H239.824V314.554ZM229.029 306.289C229.029 306.813 229.196 307.275 229.528 307.674C229.861 308.069 230.327 308.376 230.925 308.596C231.524 308.811 232.209 308.919 232.98 308.919C233.747 308.919 234.43 308.811 235.029 308.596C235.631 308.376 236.101 308.067 236.437 307.668C236.774 307.269 236.942 306.809 236.942 306.289C236.942 305.76 236.774 305.299 236.437 304.903C236.101 304.504 235.633 304.199 235.034 303.988C234.436 303.772 233.751 303.667 232.98 303.671C232.209 303.667 231.524 303.772 230.925 303.988C230.327 304.199 229.861 304.504 229.528 304.903C229.196 305.299 229.029 305.76 229.029 306.289ZM234.97 313.251V309.934C234.344 310.079 233.68 310.151 232.98 310.151C232.299 310.151 231.645 310.081 231.019 309.94V313.251H234.97ZM243.006 311.431C243.01 310.73 243.078 310.165 243.211 309.734C243.348 309.3 243.538 308.952 243.781 308.69C244.023 308.427 244.348 308.171 244.755 307.921C245.581 307.408 245.994 306.766 245.994 305.995C245.994 305.659 245.914 305.363 245.753 305.109C245.593 304.85 245.376 304.653 245.102 304.516C244.828 304.375 244.524 304.305 244.192 304.305C243.883 304.305 243.593 304.371 243.323 304.504C243.053 304.633 242.83 304.831 242.654 305.097C242.478 305.363 242.378 305.692 242.354 306.083H240.558C240.582 305.398 240.756 304.809 241.081 304.316C241.405 303.823 241.84 303.449 242.384 303.195C242.928 302.941 243.532 302.814 244.198 302.814C244.91 302.814 245.538 302.949 246.082 303.219C246.63 303.485 247.052 303.86 247.35 304.346C247.651 304.827 247.802 305.383 247.802 306.013C247.802 306.651 247.657 307.202 247.367 307.668C247.078 308.134 246.657 308.535 246.105 308.872C245.761 309.079 245.489 309.294 245.289 309.517C245.094 309.736 244.949 309.999 244.855 310.304C244.761 310.605 244.71 310.981 244.702 311.431V311.537H243.006V311.431ZM242.724 313.938C242.72 313.726 242.771 313.531 242.877 313.35C242.982 313.17 243.125 313.028 243.305 312.922C243.489 312.816 243.689 312.763 243.904 312.763C244.111 312.763 244.305 312.816 244.485 312.922C244.665 313.028 244.808 313.17 244.914 313.35C245.023 313.531 245.078 313.726 245.078 313.938C245.078 314.149 245.023 314.344 244.914 314.525C244.808 314.705 244.665 314.847 244.485 314.953C244.305 315.059 244.111 315.112 243.904 315.112C243.689 315.112 243.489 315.059 243.305 314.953C243.125 314.847 242.982 314.705 242.877 314.525C242.771 314.344 242.72 314.149 242.724 313.938Z" fill="#FF3A4A"/>
<path d="M44.0312 348.062C43.4844 348.055 43.0156 347.602 43.0312 347.047C43.0156 346.5 43.4844 346.047 44.0312 346.047C44.5859 346.047 45.0391 346.5 45.0312 347.047C45.0391 347.602 44.5859 348.055 44.0312 348.062ZM61.4694 339.375V346.828H60.2506V339.375H61.4694ZM50.3288 343.25C50.3209 341.352 51.86 340.047 53.9694 340.062C56.0788 340.047 57.6022 341.352 57.61 343.25C57.6022 345.141 56.0788 346.445 53.9694 346.438C51.86 346.445 50.3209 345.141 50.3288 343.25ZM51.5319 343.25C51.5163 344.516 52.5397 345.414 53.9694 345.422C55.3834 345.414 56.4069 344.516 56.4069 343.25C56.4069 341.977 55.3834 341.086 53.9694 341.094C52.5397 341.086 51.5163 341.977 51.5319 343.25ZM52.4694 353.078V347.531H53.6881V349.219H60.2506V347.531H61.4694V353.078H52.4694ZM53.6881 352.078H60.2506V350.203H53.6881V352.078ZM70.1025 340.234V344.125H65.3213V346.281C67.9306 346.289 69.2822 346.234 70.915 345.938L71.04 346.953C69.3134 347.234 67.8994 347.281 65.0869 347.281H64.1025V343.188H68.8838V341.219H64.0713V340.234H70.1025ZM65.665 349.672V348.672H75.0244V353.297H73.79V349.672H65.665ZM71.0244 345.344V344.328H73.79V342.453H71.0244V341.453H73.79V339.391H75.0244V347.922H73.79V345.344H71.0244ZM87.7669 339.375V345.109H90.095V346.125H87.7669V353.266H86.5481V339.375H87.7669ZM76.9388 342.625V341.609H80.5169V339.547H81.7356V341.609H85.2044V342.625H76.9388ZM77.7356 346.969C77.7278 345.094 79.1653 343.781 81.1419 343.781C83.1028 343.781 84.5325 345.094 84.5481 346.969C84.5325 348.852 83.1028 350.156 81.1419 350.156C79.1653 350.156 77.7278 348.852 77.7356 346.969ZM78.9075 346.969C78.8997 348.234 79.845 349.125 81.1419 349.109C82.4231 349.125 83.3606 348.234 83.3763 346.969C83.3606 345.711 82.4231 344.805 81.1419 344.812C79.845 344.805 78.8997 345.711 78.9075 346.969ZM101.994 339.391V349.578H100.775V339.391H101.994ZM90.6656 346.609C92.7672 345.789 94.1969 343.758 94.1969 341.562V340.172H95.4469V341.562C95.4313 343.68 96.8766 345.578 98.9469 346.328L98.3063 347.312C96.6969 346.695 95.4469 345.445 94.8297 343.844C94.2281 345.547 92.9625 346.914 91.3375 347.562L90.6656 346.609ZM93.025 352.969V348.641H94.2438V351.938H102.431V352.969H93.025ZM119.198 339.391V349.547H117.979V339.391H119.198ZM108.057 343.766C108.049 341.766 109.619 340.367 111.698 340.359C113.776 340.367 115.33 341.766 115.338 343.766C115.33 345.789 113.776 347.195 111.698 347.188C109.619 347.195 108.049 345.789 108.057 343.766ZM109.26 343.766C109.244 345.148 110.291 346.109 111.698 346.109C113.08 346.109 114.135 345.148 114.135 343.766C114.135 342.406 113.08 341.438 111.698 341.438C110.291 341.438 109.244 342.406 109.26 343.766ZM110.229 352.969V348.516H111.448V351.938H119.635V352.969H110.229ZM133.893 345.984V347H121.237V345.984H133.893ZM121.956 344.172C124.378 343.891 126.713 342.695 126.768 341.109H122.393V340.094H132.768V341.109H128.362C128.417 342.68 130.729 343.891 133.19 344.172L132.737 345.156C130.463 344.867 128.331 343.844 127.565 342.305C126.799 343.844 124.682 344.867 122.393 345.156L121.956 344.172ZM122.768 350.734C122.76 349.141 124.565 348.219 127.565 348.219C130.542 348.219 132.331 349.141 132.346 350.734C132.331 352.344 130.542 353.234 127.565 353.234C124.565 353.234 122.76 352.344 122.768 350.734ZM124.018 350.734C124.003 351.703 125.338 352.258 127.565 352.25C129.768 352.258 131.104 351.703 131.112 350.734C131.104 349.758 129.768 349.203 127.565 349.188C125.338 349.203 124.003 349.758 124.018 350.734ZM146.261 339.391V349.672H145.026V344.328H141.745V347.297H135.448V340.312H136.667V342.781H140.542V340.312H141.745V343.297H145.026V339.391H146.261ZM136.667 346.281H140.542V343.75H136.667V346.281ZM137.276 352.969V348.656H138.511V351.938H146.573V352.969H137.276ZM160.253 341.438V342.453H148.878V341.438H153.972V339.609H155.175V341.438H160.253ZM148.253 351.641V350.625H153.972V348.672C151.495 348.539 150.003 347.578 150.019 346.016C150.003 344.367 151.745 343.391 154.581 343.406C157.378 343.391 159.152 344.367 159.144 346.016C159.152 347.578 157.628 348.539 155.175 348.672V350.625H160.972V351.641H148.253ZM151.253 346.016C151.238 347.07 152.511 347.68 154.581 347.688C156.628 347.68 157.902 347.07 157.894 346.016C157.902 344.984 156.628 344.375 154.581 344.375C152.511 344.375 151.238 344.984 151.253 346.016ZM172.511 339.375V345.031H174.761V346.062H172.511V353.266H171.293V339.375H172.511ZM161.855 349.656C165.441 347.875 167.394 345.195 167.675 341.906H162.496V340.875H168.918C168.91 344.805 167.066 348.391 162.543 350.625L161.855 349.656ZM182.902 339.891C184.981 339.898 186.488 341.164 186.496 342.969C186.488 344.781 184.981 346.031 182.902 346.031C180.801 346.031 179.285 344.781 179.293 342.969C179.285 341.164 180.801 339.898 182.902 339.891ZM180.496 342.969C180.481 344.188 181.504 345.031 182.902 345.031C184.277 345.031 185.309 344.188 185.309 342.969C185.309 341.766 184.277 340.914 182.902 340.922C181.504 340.914 180.481 341.766 180.496 342.969ZM181.402 348.172V347.188H190.434V350.531H182.637V352.094H190.934V353.078H181.434V349.609H189.215V348.172H181.402ZM189.215 346.516V339.375H190.434V346.516H189.215ZM203.926 339.375V353.266H202.692V339.375H203.926ZM192.754 349.625C194.817 348.688 196.395 346.344 196.395 343.906V342.797H193.129V341.797H196.379V339.641H197.598V341.797H200.833V342.797H197.598V343.906C197.598 346.234 199.223 348.484 201.317 349.375L200.629 350.328C199.02 349.617 197.668 348.117 197.02 346.281C196.395 348.219 195.051 349.82 193.442 350.578L192.754 349.625ZM216.731 339.375V345.109H219.059V346.125H216.731V353.266H215.512V339.375H216.731ZM205.903 342.625V341.609H209.481V339.547H210.7V341.609H214.169V342.625H205.903ZM206.7 346.969C206.692 345.094 208.13 343.781 210.106 343.781C212.067 343.781 213.497 345.094 213.512 346.969C213.497 348.852 212.067 350.156 210.106 350.156C208.13 350.156 206.692 348.852 206.7 346.969ZM207.872 346.969C207.864 348.234 208.809 349.125 210.106 349.109C211.387 349.125 212.325 348.234 212.341 346.969C212.325 345.711 211.387 344.805 210.106 344.812C208.809 344.805 207.864 345.711 207.872 346.969ZM224.458 343.641C224.466 346 226.177 348.398 228.224 349.281L227.536 350.25C225.911 349.516 224.513 347.914 223.864 345.992C223.216 348.031 221.81 349.797 220.224 350.594L219.489 349.625C221.482 348.672 223.216 346.047 223.224 343.641V341.828H219.943V340.812H227.771V341.828H224.458V343.641ZM229.708 353.266V339.375H230.943V353.266H229.708ZM240.568 340.172C242.646 340.18 244.178 341.5 244.178 343.375C244.178 345.273 242.646 346.586 240.568 346.594C238.498 346.586 236.951 345.273 236.959 343.375C236.951 341.5 238.498 340.18 240.568 340.172ZM238.162 343.375C238.154 344.648 239.201 345.578 240.568 345.578C241.943 345.578 242.982 344.648 242.974 343.375C242.982 342.125 241.943 341.203 240.568 341.203C239.201 341.203 238.154 342.125 238.162 343.375ZM238.178 352.891V347.828H239.365V351.883C240.17 351.852 241.24 351.734 242.224 351.406L242.412 352.391C241.06 352.836 239.74 352.898 238.834 352.891H238.178ZM241.928 348.844V347.891H244.849V346.656H246.053V347.891H248.943V348.844H241.928ZM242.849 351.281C242.842 350.078 243.896 349.312 245.428 349.312C246.951 349.312 248.021 350.078 248.037 351.281C248.021 352.484 246.951 353.234 245.428 353.234C243.896 353.234 242.842 352.484 242.849 351.281ZM243.943 351.281C243.943 351.938 244.56 352.352 245.428 352.359C246.295 352.352 246.912 351.938 246.912 351.281C246.912 350.641 246.295 350.211 245.428 350.203C244.56 350.211 243.943 350.641 243.943 351.281ZM246.334 346.328V339.375H247.553V342.516H249.646V343.531H247.553V346.328H246.334ZM256.529 339.625C259.615 339.625 261.428 340.477 261.436 342.016C261.428 343.594 259.615 344.445 256.529 344.453C253.428 344.445 251.607 343.594 251.607 342.016C251.607 340.477 253.428 339.625 256.529 339.625ZM250.201 346.391V345.391H262.857V346.391H250.201ZM251.732 348.531V347.594H261.232V350.703H252.982V352.141H261.654V353.109H251.764V349.797H260.029V348.531H251.732ZM252.889 342.016C252.873 342.984 254.225 343.516 256.529 343.516C258.834 343.516 260.178 342.984 260.186 342.016C260.178 341.102 258.834 340.555 256.529 340.547C254.225 340.555 252.873 341.102 252.889 342.016ZM278.921 339.391V347.734H277.686V345.859H273.999V344.844H277.686V342.969H274.139C273.225 345.203 271.085 346.82 268.108 347.703L267.592 346.734C270.944 345.742 273.046 343.859 273.288 341.453H268.296V340.422H274.624C274.624 340.969 274.561 341.492 274.444 341.984H277.686V339.391H278.921ZM269.733 350.531C269.725 348.875 271.53 347.875 274.374 347.875C277.186 347.875 278.999 348.875 278.999 350.531C278.999 352.195 277.186 353.203 274.374 353.203C271.53 353.203 269.725 352.195 269.733 350.531ZM270.936 350.531C270.944 351.578 272.28 352.211 274.374 352.203C276.436 352.211 277.772 351.578 277.78 350.531C277.772 349.484 276.436 348.852 274.374 348.859C272.28 348.852 270.944 349.484 270.936 350.531ZM293.616 347.344V348.375H287.819V353.266H286.616V348.375H280.898V347.344H293.616ZM282.335 343C282.343 341.117 284.304 339.945 287.226 339.938C290.14 339.945 292.116 341.117 292.116 343C292.116 344.852 290.14 346.023 287.226 346.016C284.304 346.023 282.343 344.852 282.335 343ZM283.601 343C283.585 344.234 285.062 345.031 287.226 345.031C289.39 345.031 290.858 344.234 290.866 343C290.858 341.742 289.39 340.938 287.226 340.938C285.062 340.938 283.585 341.742 283.601 343ZM296.702 350.953L295.484 355.203H294.327L295.187 350.953H296.702ZM313.359 339.391V349.547H312.141V339.391H313.359ZM302.219 343.766C302.211 341.766 303.781 340.367 305.859 340.359C307.938 340.367 309.492 341.766 309.5 343.766C309.492 345.789 307.938 347.195 305.859 347.188C303.781 347.195 302.211 345.789 302.219 343.766ZM303.422 343.766C303.406 345.148 304.453 346.109 305.859 346.109C307.242 346.109 308.297 345.148 308.297 343.766C308.297 342.406 307.242 341.438 305.859 341.438C304.453 341.438 303.406 342.406 303.422 343.766ZM304.391 352.969V348.516H305.609V351.938H313.797V352.969H304.391ZM328.055 345.984V347H315.399V345.984H328.055ZM316.117 344.172C318.539 343.891 320.875 342.695 320.93 341.109H316.555V340.094H326.93V341.109H322.524C322.578 342.68 324.891 343.891 327.352 344.172L326.899 345.156C324.625 344.867 322.492 343.844 321.727 342.305C320.961 343.844 318.844 344.867 316.555 345.156L316.117 344.172ZM316.93 350.734C316.922 349.141 318.727 348.219 321.727 348.219C324.703 348.219 326.492 349.141 326.508 350.734C326.492 352.344 324.703 353.234 321.727 353.234C318.727 353.234 316.922 352.344 316.93 350.734ZM318.18 350.734C318.164 351.703 319.5 352.258 321.727 352.25C323.93 352.258 325.266 351.703 325.274 350.734C325.266 349.758 323.93 349.203 321.727 349.188C319.5 349.203 318.164 349.758 318.18 350.734ZM340.422 339.391V349.672H339.188V344.328H335.907V347.297H329.61V340.312H330.829V342.781H334.704V340.312H335.907V343.297H339.188V339.391H340.422ZM330.829 346.281H334.704V343.75H330.829V346.281ZM331.438 352.969V348.656H332.672V351.938H340.735V352.969H331.438ZM354.415 341.438V342.453H343.04V341.438H348.134V339.609H349.337V341.438H354.415ZM342.415 351.641V350.625H348.134V348.672C345.657 348.539 344.165 347.578 344.181 346.016C344.165 344.367 345.907 343.391 348.743 343.406C351.54 343.391 353.313 344.367 353.306 346.016C353.313 347.578 351.79 348.539 349.337 348.672V350.625H355.134V351.641H342.415ZM345.415 346.016C345.399 347.07 346.673 347.68 348.743 347.688C350.79 347.68 352.063 347.07 352.056 346.016C352.063 344.984 350.79 344.375 348.743 344.375C346.673 344.375 345.399 344.984 345.415 346.016ZM62.6569 368.484V369.5H57.0006V372.344H55.7819V369.5H49.9381V368.484H62.6569ZM51.5631 374.969V370.969H52.7975V373.938H61.235V374.969H51.5631ZM51.5944 366.891V362.062H61.0006V366.891H51.5944ZM52.7975 365.906H59.7819V363.031H52.7975V365.906ZM68.165 365.641C68.1494 367.867 69.7588 370.32 71.7744 371.281L71.0713 372.25C69.5088 371.484 68.1884 369.844 67.5634 367.961C66.9228 370 65.5322 371.797 63.9775 372.594L63.2275 371.625C65.2275 370.648 66.9463 368.008 66.9619 365.641V363.828H63.7275V362.812H71.29V363.828H68.165V365.641ZM72.9931 375.266V361.375H74.2119V367H76.54V368.047H74.2119V375.266H72.9931ZM88.2044 365.594V366.578H78.6888V361.891H79.9075V365.594H88.2044ZM76.9544 369.469V368.469H89.6731V369.469H76.9544ZM78.6106 374.922V370.891H79.8294V373.906H88.2825V374.922H78.6106ZM95.9706 361.969V363.969H100.018V361.969H101.236V368.016H94.7675V361.969H95.9706ZM95.9706 367.016H100.018V364.922H95.9706V367.016ZM96.1738 370.203V369.219H105.033V372.578H97.4081V374.109H105.549V375.109H96.205V371.641H103.814V370.203H96.1738ZM103.814 368.562V361.375H105.033V364.391H107.127V365.422H105.033V368.562H103.814ZM114.604 366.234V368.281H120.338V369.281H107.682V368.281H113.401V366.234H114.604ZM108.448 365.984C110.901 365.648 113.385 364.102 113.385 362.25V361.594H114.619V362.25C114.619 364.102 117.119 365.648 119.573 365.984L119.073 366.969C116.971 366.602 114.877 365.484 114.01 363.883C113.135 365.5 111.049 366.602 108.916 366.969L108.448 365.984ZM109.213 372.844C109.205 371.305 110.994 370.445 114.01 370.438C116.994 370.445 118.776 371.305 118.791 372.844C118.776 374.391 116.994 375.234 114.01 375.234C110.994 375.234 109.205 374.391 109.213 372.844ZM110.463 372.844C110.448 373.758 111.76 374.289 114.01 374.281C116.237 374.289 117.549 373.758 117.557 372.844C117.549 371.922 116.237 371.406 114.01 371.406C111.76 371.406 110.448 371.922 110.463 372.844ZM129.471 367.375V368.391H126.424V371.125C127.784 371.07 129.151 370.977 130.44 370.828L130.534 371.75C127.456 372.195 124.096 372.258 121.44 372.25L121.268 371.219C122.479 371.219 123.823 371.211 125.206 371.172V368.391H122.331V362.703H129.409V363.703H123.534V367.375H129.471ZM131.362 375.297V361.375H132.581V375.297H131.362ZM139.667 365.641C139.675 368 141.386 370.398 143.433 371.281L142.745 372.25C141.12 371.516 139.722 369.914 139.073 367.992C138.425 370.031 137.018 371.797 135.433 372.594L134.698 371.625C136.69 370.672 138.425 368.047 138.433 365.641V363.828H135.151V362.812H142.979V363.828H139.667V365.641ZM144.917 375.266V361.375H146.151V375.266H144.917ZM155.777 362.172C157.855 362.18 159.386 363.5 159.386 365.375C159.386 367.273 157.855 368.586 155.777 368.594C153.707 368.586 152.16 367.273 152.168 365.375C152.16 363.5 153.707 362.18 155.777 362.172ZM153.371 365.375C153.363 366.648 154.41 367.578 155.777 367.578C157.152 367.578 158.191 366.648 158.183 365.375C158.191 364.125 157.152 363.203 155.777 363.203C154.41 363.203 153.363 364.125 153.371 365.375ZM153.386 374.891V369.828H154.574V373.883C155.378 373.852 156.449 373.734 157.433 373.406L157.621 374.391C156.269 374.836 154.949 374.898 154.043 374.891H153.386ZM157.136 370.844V369.891H160.058V368.656H161.261V369.891H164.152V370.844H157.136ZM158.058 373.281C158.05 372.078 159.105 371.312 160.636 371.312C162.16 371.312 163.23 372.078 163.246 373.281C163.23 374.484 162.16 375.234 160.636 375.234C159.105 375.234 158.05 374.484 158.058 373.281ZM159.152 373.281C159.152 373.938 159.769 374.352 160.636 374.359C161.503 374.352 162.121 373.938 162.121 373.281C162.121 372.641 161.503 372.211 160.636 372.203C159.769 372.211 159.152 372.641 159.152 373.281ZM161.543 368.328V361.375H162.761V364.516H164.855V365.531H162.761V368.328H161.543ZM168.238 369.719V371.344H175.176V369.719H176.41V375.078H167.019V369.719H168.238ZM165.41 368.734V367.719H178.066V368.734H165.41ZM166.129 365.75C168.605 365.414 171.113 363.953 171.113 362.188V361.531H172.379V362.188C172.371 363.898 174.902 365.438 177.348 365.75L176.894 366.734C174.746 366.414 172.629 365.32 171.746 363.766C170.863 365.328 168.738 366.414 166.598 366.734L166.129 365.75ZM168.238 374.094H175.176V372.312H168.238V374.094ZM190.371 361.375V375.266H189.152V361.375H190.371ZM179.824 371.688V362.75H181.027V370.625C183.152 370.609 185.34 370.445 187.668 369.953L187.84 371C185.371 371.516 183.176 371.688 180.949 371.688H179.824ZM203.176 361.375V366.875H205.504V367.906H203.176V375.297H201.958V361.375H203.176ZM193.036 371.812V362.734H199.52V363.75H194.254V370.781C196.77 370.773 198.543 370.664 200.614 370.281L200.77 371.344C198.59 371.734 196.77 371.812 194.129 371.812H193.036ZM207.403 374.094C206.856 374.086 206.387 373.633 206.403 373.078C206.387 372.531 206.856 372.078 207.403 372.078C207.958 372.078 208.411 372.531 208.403 373.078C208.411 373.633 207.958 374.086 207.403 374.094Z" fill="#555555"/>
<path d="M44.0312 404.062C43.4844 404.055 43.0156 403.602 43.0312 403.047C43.0156 402.5 43.4844 402.047 44.0312 402.047C44.5859 402.047 45.0391 402.5 45.0312 403.047C45.0391 403.602 44.5859 404.055 44.0312 404.062ZM61.4694 395.391V405.547H60.2506V395.391H61.4694ZM50.3288 399.766C50.3209 397.766 51.8913 396.367 53.9694 396.359C56.0475 396.367 57.6022 397.766 57.61 399.766C57.6022 401.789 56.0475 403.195 53.9694 403.188C51.8913 403.195 50.3209 401.789 50.3288 399.766ZM51.5319 399.766C51.5163 401.148 52.5631 402.109 53.9694 402.109C55.3522 402.109 56.4069 401.148 56.4069 399.766C56.4069 398.406 55.3522 397.438 53.9694 397.438C52.5631 397.438 51.5163 398.406 51.5319 399.766ZM52.5006 408.969V404.516H53.7194V407.938H61.9069V408.969H52.5006ZM76.165 401.984V403H63.5088V401.984H76.165ZM64.2275 400.172C66.6494 399.891 68.9853 398.695 69.04 397.109H64.665V396.094H75.04V397.109H70.6338C70.6884 398.68 73.0009 399.891 75.4619 400.172L75.0088 401.156C72.7353 400.867 70.6025 399.844 69.8369 398.305C69.0713 399.844 66.9541 400.867 64.665 401.156L64.2275 400.172ZM65.04 406.734C65.0322 405.141 66.8369 404.219 69.8369 404.219C72.8134 404.219 74.6025 405.141 74.6181 406.734C74.6025 408.344 72.8134 409.234 69.8369 409.234C66.8369 409.234 65.0322 408.344 65.04 406.734ZM66.29 406.734C66.2744 407.703 67.6103 408.258 69.8369 408.25C72.04 408.258 73.3759 407.703 73.3838 406.734C73.3759 405.758 72.04 405.203 69.8369 405.188C67.6103 405.203 66.2744 405.758 66.29 406.734ZM88.5325 395.391V405.672H87.2981V400.328H84.0169V403.297H77.72V396.312H78.9388V398.781H82.8138V396.312H84.0169V399.297H87.2981V395.391H88.5325ZM78.9388 402.281H82.8138V399.75H78.9388V402.281ZM79.5481 408.969V404.656H80.7825V407.938H88.845V408.969H79.5481ZM102.525 397.438V398.453H91.15V397.438H96.2438V395.609H97.4469V397.438H102.525ZM90.525 407.641V406.625H96.2438V404.672C93.7672 404.539 92.275 403.578 92.2906 402.016C92.275 400.367 94.0172 399.391 96.8531 399.406C99.65 399.391 101.423 400.367 101.416 402.016C101.423 403.578 99.9 404.539 97.4469 404.672V406.625H103.244V407.641H90.525ZM93.525 402.016C93.5094 403.07 94.7828 403.68 96.8531 403.688C98.9 403.68 100.173 403.07 100.166 402.016C100.173 400.984 98.9 400.375 96.8531 400.375C94.7828 400.375 93.5094 400.984 93.525 402.016ZM114.783 395.375V401.031H117.033V402.062H114.783V409.266H113.564V395.375H114.783ZM104.127 405.656C107.713 403.875 109.666 401.195 109.947 397.906H104.768V396.875H111.189C111.182 400.805 109.338 404.391 104.814 406.625L104.127 405.656ZM133.94 402.484V403.5H128.284V406.344H127.065V403.5H121.221V402.484H133.94ZM122.846 408.969V404.969H124.081V407.938H132.518V408.969H122.846ZM122.878 400.891V396.062H132.284V400.891H122.878ZM124.081 399.906H131.065V397.031H124.081V399.906ZM139.448 399.641C139.433 401.867 141.042 404.32 143.058 405.281L142.354 406.25C140.792 405.484 139.472 403.844 138.847 401.961C138.206 404 136.815 405.797 135.261 406.594L134.511 405.625C136.511 404.648 138.229 402.008 138.245 399.641V397.828H135.011V396.812H142.573V397.828H139.448V399.641ZM144.276 409.266V395.375H145.495V401H147.823V402.047H145.495V409.266H144.276ZM160.972 406.516V407.547H148.253V406.516H153.972V403.891H149.847V399.609H158.159V397.422H149.816V396.406H159.363V400.609H151.066V402.875H159.691V403.891H155.175V406.516H160.972ZM172.426 396.672C172.433 398.633 174.98 400.32 177.488 400.672L176.988 401.672C174.832 401.312 172.691 400.117 171.801 398.414C170.91 400.133 168.777 401.312 166.613 401.672L166.113 400.672C168.621 400.32 171.16 398.664 171.16 396.672V395.875H172.426V396.672ZM165.457 404.234V403.203H178.113V404.234H172.363V409.266H171.16V404.234H165.457ZM190.434 395.391V405.578H189.215V395.391H190.434ZM179.106 402.609C181.207 401.789 182.637 399.758 182.637 397.562V396.172H183.887V397.562C183.871 399.68 185.317 401.578 187.387 402.328L186.746 403.312C185.137 402.695 183.887 401.445 183.27 399.844C182.668 401.547 181.402 402.914 179.777 403.562L179.106 402.609ZM181.465 408.969V404.641H182.684V407.938H190.871V408.969H181.465ZM200.754 401.375V402.391H197.708V405.125C199.067 405.07 200.434 404.977 201.723 404.828L201.817 405.75C198.739 406.195 195.379 406.258 192.723 406.25L192.551 405.219C193.762 405.219 195.106 405.211 196.489 405.172V402.391H193.614V396.703H200.692V397.703H194.817V401.375H200.754ZM202.645 409.297V395.375H203.864V409.297H202.645ZM210.95 399.641C210.958 402 212.669 404.398 214.716 405.281L214.028 406.25C212.403 405.516 211.005 403.914 210.356 401.992C209.708 404.031 208.302 405.797 206.716 406.594L205.981 405.625C207.973 404.672 209.708 402.047 209.716 399.641V397.828H206.434V396.812H214.262V397.828H210.95V399.641ZM216.2 409.266V395.375H217.434V409.266H216.2ZM227.06 396.172C229.138 396.18 230.669 397.5 230.669 399.375C230.669 401.273 229.138 402.586 227.06 402.594C224.99 402.586 223.443 401.273 223.451 399.375C223.443 397.5 224.99 396.18 227.06 396.172ZM224.654 399.375C224.646 400.648 225.693 401.578 227.06 401.578C228.435 401.578 229.474 400.648 229.466 399.375C229.474 398.125 228.435 397.203 227.06 397.203C225.693 397.203 224.646 398.125 224.654 399.375ZM224.669 408.891V403.828H225.857V407.883C226.662 407.852 227.732 407.734 228.716 407.406L228.904 408.391C227.552 408.836 226.232 408.898 225.326 408.891H224.669ZM228.419 404.844V403.891H231.341V402.656H232.544V403.891H235.435V404.844H228.419ZM229.341 407.281C229.333 406.078 230.388 405.312 231.919 405.312C233.443 405.312 234.513 406.078 234.529 407.281C234.513 408.484 233.443 409.234 231.919 409.234C230.388 409.234 229.333 408.484 229.341 407.281ZM230.435 407.281C230.435 407.938 231.052 408.352 231.919 408.359C232.787 408.352 233.404 407.938 233.404 407.281C233.404 406.641 232.787 406.211 231.919 406.203C231.052 406.211 230.435 406.641 230.435 407.281ZM232.826 402.328V395.375H234.044V398.516H236.138V399.531H234.044V402.328H232.826ZM243.021 395.625C246.107 395.625 247.92 396.477 247.928 398.016C247.92 399.594 246.107 400.445 243.021 400.453C239.92 400.445 238.099 399.594 238.099 398.016C238.099 396.477 239.92 395.625 243.021 395.625ZM236.693 402.391V401.391H249.349V402.391H236.693ZM238.224 404.531V403.594H247.724V406.703H239.474V408.141H248.146V409.109H238.256V405.797H246.521V404.531H238.224ZM239.381 398.016C239.365 398.984 240.717 399.516 243.021 399.516C245.326 399.516 246.67 398.984 246.678 398.016C246.67 397.102 245.326 396.555 243.021 396.547C240.717 396.555 239.365 397.102 239.381 398.016ZM265.413 395.391V403.734H264.178V401.859H260.491V400.844H264.178V398.969H260.631C259.717 401.203 257.577 402.82 254.6 403.703L254.084 402.734C257.436 401.742 259.538 399.859 259.78 397.453H254.788V396.422H261.116C261.116 396.969 261.053 397.492 260.936 397.984H264.178V395.391H265.413ZM256.225 406.531C256.217 404.875 258.022 403.875 260.866 403.875C263.678 403.875 265.491 404.875 265.491 406.531C265.491 408.195 263.678 409.203 260.866 409.203C258.022 409.203 256.217 408.195 256.225 406.531ZM257.428 406.531C257.436 407.578 258.772 408.211 260.866 408.203C262.928 408.211 264.264 407.578 264.272 406.531C264.264 405.484 262.928 404.852 260.866 404.859C258.772 404.852 257.436 405.484 257.428 406.531ZM280.108 403.344V404.375H274.311V409.266H273.108V404.375H267.389V403.344H280.108ZM268.827 399C268.835 397.117 270.796 395.945 273.717 395.938C276.632 395.945 278.608 397.117 278.608 399C278.608 400.852 276.632 402.023 273.717 402.016C270.796 402.023 268.835 400.852 268.827 399ZM270.092 399C270.077 400.234 271.553 401.031 273.717 401.031C275.882 401.031 277.35 400.234 277.358 399C277.35 397.742 275.882 396.938 273.717 396.938C271.553 396.938 270.077 397.742 270.092 399ZM296.124 395.375V403.656H294.89V400.016H292.093V399H294.89V395.375H296.124ZM284.671 402.547C286.734 401.805 288.202 399.922 288.202 397.938V397.422H285.062V396.391H292.546V397.422H289.437V397.922C289.437 399.734 290.827 401.461 292.859 402.156L292.218 403.141C290.663 402.578 289.452 401.406 288.851 399.977C288.257 401.602 286.968 402.898 285.312 403.531L284.671 402.547ZM286.859 406.672C286.851 405.039 288.624 404.086 291.515 404.094C294.398 404.086 296.171 405.039 296.171 406.672C296.171 408.312 294.398 409.25 291.515 409.266C288.624 409.25 286.851 408.312 286.859 406.672ZM288.077 406.672C288.07 407.68 289.382 408.289 291.515 408.281C293.64 408.289 294.952 407.68 294.952 406.672C294.952 405.656 293.64 405.047 291.515 405.047C289.382 405.047 288.07 405.656 288.077 406.672ZM308.961 395.391V399.594H311.039V400.625H308.961V404.703H307.726V395.391H308.961ZM298.054 403.281C299.164 403.281 300.461 403.281 301.82 403.242V402.219C300.203 402.07 299.156 401.328 299.164 400.172C299.156 398.906 300.461 398.125 302.414 398.125C304.383 398.125 305.664 398.906 305.679 400.172C305.664 401.32 304.648 402.062 303.039 402.219V403.195C304.336 403.133 305.648 403.023 306.867 402.844L306.976 403.734C303.961 404.266 300.64 404.289 298.195 404.281L298.054 403.281ZM298.398 397.594V396.656H301.82V395.266H303.039V396.656H306.445V397.594H298.398ZM299.758 406.375V405.391H308.961V409.266H307.726V406.375H299.758ZM300.336 400.172C300.328 400.898 301.133 401.391 302.414 401.375C303.695 401.391 304.508 400.898 304.508 400.172C304.508 399.438 303.695 398.984 302.414 399C301.133 398.984 300.328 399.438 300.336 400.172ZM322.484 395.391V399.969H324.578V401H322.484V405.797H321.266V395.391H322.484ZM311.656 398.094V397.094H315.188V395.391H316.406V397.094H319.938V398.094H311.656ZM312.453 401.453C312.445 399.875 313.789 398.859 315.797 398.859C317.781 398.859 319.125 399.875 319.141 401.453C319.125 403.016 317.781 404.023 315.797 404.016C313.789 404.023 312.445 403.016 312.453 401.453ZM313.625 401.453C313.617 402.43 314.484 403.062 315.797 403.047C317.094 403.062 317.969 402.43 317.984 401.453C317.969 400.461 317.094 399.82 315.797 399.828C314.484 399.82 313.617 400.461 313.625 401.453ZM313.797 408.969V404.969H315V407.938H323.125V408.969H313.797ZM61.4694 417.375V425.656H60.235V422.016H57.4381V421H60.235V417.375H61.4694ZM50.0163 424.547C52.0788 423.805 53.5475 421.922 53.5475 419.938V419.422H50.4069V418.391H57.8913V419.422H54.7819V419.922C54.7819 421.734 56.1725 423.461 58.2038 424.156L57.5631 425.141C56.0084 424.578 54.7975 423.406 54.1959 421.977C53.6022 423.602 52.3131 424.898 50.6569 425.531L50.0163 424.547ZM52.2038 428.672C52.1959 427.039 53.9694 426.086 56.86 426.094C59.7428 426.086 61.5163 427.039 61.5163 428.672C61.5163 430.312 59.7428 431.25 56.86 431.266C53.9694 431.25 52.1959 430.312 52.2038 428.672ZM53.4225 428.672C53.4147 429.68 54.7272 430.289 56.86 430.281C58.985 430.289 60.2975 429.68 60.2975 428.672C60.2975 427.656 58.985 427.047 56.86 427.047C54.7272 427.047 53.4147 427.656 53.4225 428.672ZM76.1806 428.469V429.484H63.4619V428.469H69.1806V425.469H64.9619V418.359H66.1963V420.875H73.415V418.359H74.6181V425.469H70.3838V428.469H76.1806ZM66.1963 424.469H73.415V421.875H66.1963V424.469ZM89.6888 428.516V429.547H76.97V428.516H82.6888V425.891H78.5638V421.609H86.8763V419.422H78.5325V418.406H88.0794V422.609H79.7825V424.875H88.4075V425.891H83.8919V428.516H89.6888ZM106.111 417.375V431.266H104.924V424.047H103.033V430.562H101.861V417.672H103.033V423H104.924V417.375H106.111ZM94.0331 427.453C96.0331 426.352 97.1034 423.992 97.0956 421.172V420.062H94.3613V419.031H100.861V420.062H98.2831V421.172C98.2831 423.711 99.3378 425.953 101.314 426.969L100.58 427.922C99.1816 427.156 98.2128 425.789 97.7206 424.094C97.2441 426.023 96.2597 427.539 94.7988 428.391L94.0331 427.453ZM112.619 421.109C112.612 423.648 114.338 426.195 116.385 427.125L115.635 428.094C114.049 427.328 112.682 425.68 112.018 423.703C111.377 425.797 110.01 427.555 108.385 428.375L107.604 427.344C109.674 426.398 111.385 423.742 111.401 421.109V418.578H112.619V421.109ZM117.901 431.297V417.375H119.135V431.297H117.901ZM132.409 423.891V424.891H128.112V428.484H133.909V429.516H121.19V428.484H126.909V424.891H122.815V418.516H132.268V419.516H124.049V423.891H132.409ZM141.636 419.781V420.781H134.667V419.781H137.558V417.797H138.776V419.781H141.636ZM135.167 424.875C135.167 423.031 136.425 421.727 138.151 421.719C139.901 421.727 141.151 423.031 141.167 424.875C141.151 426.742 139.901 428.055 138.151 428.062C136.425 428.055 135.167 426.742 135.167 424.875ZM136.261 424.875C136.261 426.109 137.05 426.992 138.151 426.984C139.261 426.992 140.073 426.109 140.073 424.875C140.073 423.656 139.261 422.766 138.151 422.75C137.05 422.766 136.261 423.656 136.261 424.875ZM142.354 430.578V417.719H143.511V423.234H145.354V417.375H146.526V431.266H145.354V424.25H143.511V430.578H142.354ZM158.918 419.344C158.91 421.203 161.386 422.781 163.808 423.141L163.355 424.109C161.191 423.742 159.074 422.586 158.23 420.914C157.386 422.586 155.269 423.742 153.136 424.109L152.652 423.141C155.066 422.781 157.535 421.203 157.543 419.344V419.25H153.089V418.25H163.355V419.25H158.918V419.344ZM151.902 426.312V425.297H164.558V426.312H158.808V431.266H157.605V426.312H151.902ZM170.348 421.109C170.34 423.648 172.066 426.195 174.113 427.125L173.363 428.094C171.777 427.328 170.41 425.68 169.746 423.703C169.105 425.797 167.738 427.555 166.113 428.375L165.332 427.344C167.402 426.398 169.113 423.742 169.129 421.109V418.578H170.348V421.109ZM175.629 431.297V417.375H176.863V431.297H175.629ZM190.402 417.375V431.266H189.168V417.375H190.402ZM179.09 427.656C182.848 425.875 184.77 423.211 185.043 419.891H179.731V418.891H186.293C186.277 422.883 184.418 426.422 179.762 428.656L179.09 427.656ZM206.872 417.375V422.844H209.2V423.906H206.872V431.266H205.653V417.375H206.872ZM196.7 427.938V418.562H197.919V422.234H201.981V418.562H203.2V427.938H196.7ZM197.919 426.906H201.981V423.219H197.919V426.906ZM220.489 417.391V420.734H222.599V421.781H220.489V425.047H219.271V417.391H220.489ZM210.224 419.094V418.078H216.521V421.781H211.458V423.703C213.927 423.688 215.716 423.617 217.88 423.219L218.005 424.25C215.778 424.633 213.919 424.719 211.333 424.734H210.255V420.812H215.318V419.094H210.224ZM211.708 431.078V425.672H212.927V427.375H219.271V425.672H220.489V431.078H211.708ZM212.927 430.078H219.271V428.359H212.927V430.078ZM234.591 417.375V431.266H233.372V417.375H234.591ZM224.044 427.688V418.75H225.247V426.625C227.372 426.609 229.56 426.445 231.888 425.953L232.06 427C229.591 427.516 227.396 427.688 225.169 427.688H224.044ZM247.396 417.375V422.875H249.724V423.906H247.396V431.297H246.178V417.375H247.396ZM237.256 427.812V418.734H243.74V419.75H238.474V426.781C240.99 426.773 242.763 426.664 244.834 426.281L244.99 427.344C242.81 427.734 240.99 427.812 238.349 427.812H237.256ZM251.623 430.094C251.076 430.086 250.607 429.633 250.623 429.078C250.607 428.531 251.076 428.078 251.623 428.078C252.178 428.078 252.631 428.531 252.623 429.078C252.631 429.633 252.178 430.086 251.623 430.094Z" fill="#555555"/>
<rect width="400" height="27" transform="translate(0 507)" fill="#F4F4F4"/>
<path d="M17.2607 515.32V524.892H16.4121V515.32H17.2607ZM9.74121 519.392C9.74658 517.361 10.7563 516.067 12.1797 516.062C13.5977 516.067 14.6235 517.361 14.6182 519.392C14.6235 521.427 13.5977 522.716 12.1797 522.711C10.7563 522.716 9.74658 521.427 9.74121 519.392ZM10.5576 519.392C10.5576 520.944 11.2236 521.964 12.1797 521.959C13.1411 521.964 13.8018 520.944 13.8018 519.392C13.8018 517.839 13.1411 516.819 12.1797 516.813C11.2236 516.819 10.5576 517.839 10.5576 519.392ZM27.3747 520.047V520.745H18.6736V520.047H20.8327V518.699C20.07 518.403 19.6404 517.92 19.6404 517.275C19.6404 516.153 20.9294 515.508 23.0241 515.503C25.1028 515.508 26.3918 516.153 26.3972 517.275C26.3918 517.915 25.9675 518.398 25.2155 518.699V520.047H27.3747ZM19.7263 523.162C19.7209 522.072 20.9509 521.47 23.0241 521.476C25.0705 521.47 26.3005 522.072 26.3112 523.162C26.3005 524.252 25.0705 524.849 23.0241 524.849C20.9509 524.849 19.7209 524.252 19.7263 523.162ZM20.5105 517.275C20.5051 517.974 21.4612 518.376 23.0241 518.382C24.571 518.376 25.5324 517.974 25.5378 517.275C25.5324 516.588 24.571 516.169 23.0241 516.169C21.4612 516.169 20.5051 516.588 20.5105 517.275ZM20.5857 523.162C20.5749 523.812 21.4934 524.199 23.0241 524.193C24.5388 524.199 25.4572 523.812 25.4626 523.162C25.4572 522.512 24.5388 522.131 23.0241 522.12C21.4934 522.131 20.5749 522.512 20.5857 523.162ZM21.6706 520.047H24.3777V518.924C23.9748 519 23.5237 519.037 23.0241 519.037C22.5246 519.037 22.0735 519 21.6706 518.93V520.047ZM36.8442 516.803V517.49H35.4262V518.833H36.8442V519.553H35.4262V521.003H34.5883V515.32H35.4262V516.803H36.8442ZM28.143 518.146C28.1376 516.819 29.2011 515.895 30.6459 515.9C32.1015 515.895 33.1489 516.819 33.1596 518.146C33.1489 519.488 32.1015 520.407 30.6459 520.412C29.2011 520.407 28.1376 519.488 28.143 518.146ZM28.9702 518.146C28.9648 519.064 29.6791 519.692 30.6459 519.682C31.6235 519.692 32.3271 519.064 32.3325 518.146C32.3271 517.249 31.6235 516.625 30.6459 516.62C29.6791 516.625 28.9648 517.249 28.9702 518.146ZM29.1743 522.142V521.443H35.4262V524.87H34.5883V522.142H29.1743ZM42.5431 516.062V516.566C42.5378 517.195 42.5378 518.146 42.2961 519.392L41.4474 519.327C41.6784 518.188 41.6999 517.377 41.7106 516.771H37.7843V516.062H42.5431ZM37.1935 520.283C37.8112 520.283 38.5094 520.278 39.2453 520.256V518.178H40.0832V520.229C41.1413 520.187 42.237 520.111 43.2306 519.972L43.2843 520.595C41.2809 520.938 38.9821 520.976 37.2795 520.981L37.1935 520.283ZM38.6652 524.666V521.862H39.5138V523.957H45.0461V524.666H38.6652ZM43.8752 522.507V515.32H44.7345V518.436H46.131V519.155H44.7345V522.507H43.8752ZM50.7721 515.127V525.096H49.9771V515.127H50.7721ZM62.9112 515.32V524.87H62.084V519.875H60.7627V524.397H59.9571V515.578H60.7627V519.177H62.084V515.32H62.9112ZM54.7686 522.228C56.9869 520.987 57.8999 519.241 58.045 517.265H55.1338V516.566H58.8721C58.8614 518.994 58.0074 521.288 55.2627 522.818L54.7686 522.228ZM71.9295 515.331V522.313H71.0916V515.331H71.9295ZM64.2703 518.339C64.2649 516.964 65.3445 516.002 66.7732 515.997C68.2019 516.002 69.2708 516.964 69.2761 518.339C69.2708 519.73 68.2019 520.697 66.7732 520.691C65.3445 520.697 64.2649 519.73 64.2703 518.339ZM65.0974 518.339C65.0867 519.29 65.8064 519.95 66.7732 519.95C67.7239 519.95 68.449 519.29 68.449 518.339C68.449 517.404 67.7239 516.738 66.7732 516.738C65.8064 516.738 65.0867 517.404 65.0974 518.339ZM65.7634 524.666V521.604H66.6013V523.957H72.2302V524.666H65.7634ZM81.2485 515.32V521.014H80.3999V518.511H78.477V517.812H80.3999V515.32H81.2485ZM73.3745 520.251C74.7925 519.741 75.8022 518.446 75.8022 517.082V516.728H73.643V516.019H78.7886V516.728H76.6509V517.071C76.6509 518.317 77.6069 519.504 79.0034 519.982L78.563 520.659C77.4941 520.272 76.6616 519.467 76.248 518.484C75.8398 519.601 74.9536 520.493 73.8149 520.928L73.3745 520.251ZM74.8784 523.087C74.873 521.964 76.0923 521.309 78.0796 521.314C80.0615 521.309 81.2807 521.964 81.2807 523.087C81.2807 524.215 80.0615 524.859 78.0796 524.87C76.0923 524.859 74.873 524.215 74.8784 523.087ZM75.7163 523.087C75.7109 523.78 76.6133 524.199 78.0796 524.193C79.5405 524.199 80.4429 523.78 80.4429 523.087C80.4429 522.389 79.5405 521.97 78.0796 521.97C76.6133 521.97 75.7109 522.389 75.7163 523.087ZM91.3625 522.947V523.646H82.6184V522.947H86.55V520.885H83.6496V515.997H84.4982V517.727H89.4611V515.997H90.2883V520.885H87.3772V522.947H91.3625ZM84.4982 520.197H89.4611V518.414H84.4982V520.197ZM99.8222 515.32V524.892H98.9736V519.864H96.8788V519.166H98.9736V515.32H99.8222ZM91.9267 522.367C93.3285 521.712 94.3759 520.079 94.3759 518.436V517.673H92.1845V516.985H94.3759V515.503H95.2138V516.985H97.373V517.673H95.203V518.436C95.203 520.009 96.2826 521.562 97.6952 522.195L97.2118 522.851C96.1215 522.356 95.2245 521.309 94.8002 520.052C94.3866 521.384 93.5004 522.496 92.4101 523.022L91.9267 522.367ZM109.077 515.32V524.892H108.239V515.32H109.077ZM101.729 516.91V516.212H106.176V519.606H102.61V521.862C104.194 521.868 105.607 521.792 107.315 521.519L107.401 522.228C105.645 522.501 104.194 522.571 102.546 522.571H101.751V518.919H105.328V516.91H101.729ZM114.883 521.325C116.844 521.325 118.031 521.97 118.031 523.087C118.031 524.215 116.844 524.859 114.883 524.87C112.917 524.859 111.72 524.215 111.714 523.087C111.72 521.97 112.917 521.325 114.883 521.325ZM110.887 520.326V515.922H111.714V517.383H114.496V515.922H115.334V520.326H110.887ZM111.714 519.639H114.496V518.049H111.714V519.639ZM112.563 523.087C112.552 523.774 113.444 524.183 114.883 524.183C116.328 524.183 117.209 523.774 117.214 523.087C117.209 522.405 116.328 522.002 114.883 521.991C113.444 522.002 112.552 522.405 112.563 523.087ZM117.107 521.067V515.32H117.945V517.727H119.384V518.446H117.945V521.067H117.107ZM123.235 517.265C123.23 518.479 124.277 519.547 125.706 519.961L125.309 520.627C124.175 520.289 123.273 519.553 122.833 518.602C122.414 519.644 121.511 520.45 120.367 520.831L119.959 520.176C121.377 519.714 122.398 518.559 122.398 517.265V517.136H120.195V516.459H122.398V515.277H123.246V516.459H125.427V517.136H123.235V517.265ZM121.441 524.741V521.476H127.65V524.741H121.441ZM122.269 524.054H126.823V522.163H122.269V524.054ZM126.813 520.992V515.331H127.65V520.992H126.813ZM133.291 515.127V525.096H132.496V515.127H133.291ZM143.056 518.65C142.723 517.651 141.965 517.018 140.853 517.018C139.478 517.018 138.388 518.103 138.383 520.111C138.388 522.115 139.478 523.2 140.918 523.205C142.228 523.2 143.136 522.33 143.152 520.949H141.122V520.101H144.098V520.938C144.098 522.867 142.771 524.107 140.918 524.107C138.839 524.107 137.443 522.571 137.448 520.111C137.443 517.651 138.855 516.115 140.853 516.115C142.497 516.115 143.765 517.146 144.055 518.65H143.056ZM146.133 516.223V524H145.21V516.223H146.133ZM149.77 524.118C148.18 524.124 147.106 522.92 147.106 521.11C147.106 519.29 148.18 518.092 149.77 518.092C151.354 518.092 152.418 519.29 152.413 521.11C152.418 522.92 151.354 524.124 149.77 524.118ZM148.03 521.11C148.035 522.276 148.583 523.302 149.77 523.302C150.946 523.302 151.489 522.276 151.489 521.11C151.489 519.95 150.946 518.908 149.77 518.908C148.583 518.908 148.035 519.95 148.03 521.11ZM153.525 524V516.223H154.448V519.091H154.524C154.722 518.779 155.071 518.092 156.21 518.092C157.671 518.092 158.697 519.252 158.702 521.1C158.697 522.953 157.671 524.124 156.221 524.118C155.104 524.124 154.722 523.431 154.524 523.108H154.416V524H153.525ZM154.427 521.078C154.427 522.389 155.018 523.291 156.081 523.291C157.193 523.291 157.762 522.319 157.768 521.078C157.762 519.859 157.209 518.919 156.081 518.919C155.007 518.919 154.427 519.784 154.427 521.078ZM159.406 522.346C159.406 521.008 160.588 520.702 161.598 520.627C161.973 520.6 162.913 520.546 163.177 520.541V520.068C163.177 519.327 162.736 518.897 161.855 518.897C161.119 518.897 160.674 519.236 160.545 519.682H159.578C159.696 518.742 160.609 518.092 161.898 518.092C162.661 518.092 164.095 518.317 164.09 520.154V524H163.177V523.205H163.134C162.94 523.597 162.409 524.134 161.393 524.14C160.287 524.134 159.406 523.484 159.406 522.346ZM160.33 522.389C160.335 523.006 160.846 523.318 161.555 523.312C162.597 523.318 163.177 522.62 163.177 521.884V521.298C162.903 521.314 161.984 521.384 161.705 521.4C160.867 521.454 160.335 521.75 160.33 522.389ZM166.276 516.223V524H165.352V516.223H166.276ZM171.889 518.178C171.808 517.415 171.099 516.975 170.17 516.975C169.139 516.975 168.468 517.512 168.462 518.253C168.468 519.069 169.375 519.375 169.966 519.521L170.74 519.735C171.572 519.95 172.942 520.428 172.942 521.884C172.942 523.151 171.921 524.134 170.116 524.14C168.441 524.134 167.404 523.27 167.313 521.98H168.301C168.382 522.851 169.193 523.264 170.116 523.259C171.191 523.264 171.996 522.711 171.996 521.862C171.996 521.105 171.277 520.815 170.46 520.584L169.504 520.326C168.285 519.972 167.522 519.349 167.528 518.296C167.522 516.98 168.693 516.115 170.202 516.115C171.712 516.115 172.797 516.996 172.834 518.178H171.889ZM173.989 524V518.167H174.913V524H173.989ZM173.807 516.588C173.801 516.244 174.097 515.97 174.451 515.976C174.806 515.97 175.101 516.244 175.106 516.588C175.101 516.926 174.806 517.2 174.451 517.2C174.097 517.2 173.801 516.926 173.807 516.588ZM178.528 526.31C177.115 526.31 176.159 525.692 176.057 524.612H177.024C177.148 525.208 177.701 525.504 178.528 525.504C179.527 525.504 180.139 525.069 180.139 524.107V522.926H180.064C179.865 523.248 179.495 523.909 178.367 523.914C176.949 523.909 175.885 522.84 175.885 521.003C175.885 519.209 176.911 518.092 178.378 518.092C179.511 518.092 179.876 518.779 180.086 519.091H180.161V518.167H181.063V524.161C181.058 525.665 179.951 526.31 178.528 526.31ZM176.82 521.035C176.82 522.244 177.389 523.087 178.496 523.087C179.565 523.087 180.155 522.319 180.161 521.035C180.155 519.784 179.581 518.919 178.496 518.919C177.373 518.919 176.82 519.859 176.82 521.035ZM183.239 520.498V524H182.315V518.167H183.206V519.08H183.282C183.556 518.484 184.103 518.092 184.99 518.092C186.171 518.092 186.961 518.812 186.956 520.294V524H186.032V520.358C186.032 519.456 185.538 518.919 184.71 518.919C183.862 518.919 183.239 519.488 183.239 520.498ZM190.748 524L190.737 523.291L193.391 520.498C194.309 519.521 194.749 518.994 194.755 518.274C194.749 517.474 194.083 516.958 193.208 516.953C192.279 516.958 191.699 517.544 191.693 518.414H190.78C190.769 517.039 191.833 516.115 193.24 516.115C194.653 516.115 195.652 517.066 195.657 518.274C195.652 519.145 195.249 519.821 193.874 521.239L192.091 523.076V523.141H195.797V524H190.748ZM199.519 524.107C198.117 524.107 197.054 523.243 196.995 522.045H197.929C197.999 522.738 198.676 523.253 199.519 523.259C200.529 523.253 201.259 522.518 201.259 521.54C201.259 520.53 200.502 519.784 199.455 519.778C198.799 519.768 198.289 519.972 198.004 520.477H197.07L197.618 516.223H201.829V517.082H198.423L198.133 519.359H198.209C198.558 519.091 199.079 518.908 199.627 518.908C201.109 518.908 202.199 520.004 202.205 521.519C202.199 523.022 201.071 524.107 199.519 524.107ZM206.034 524.107C204.686 524.091 203.199 523.291 203.199 520.412C203.199 517.657 204.326 516.115 206.153 516.115C207.522 516.115 208.478 516.958 208.677 518.178H207.721C207.544 517.49 207.017 516.975 206.153 516.975C204.874 516.975 204.106 518.065 204.112 519.939H204.208C204.654 519.29 205.368 518.908 206.206 518.908C207.587 518.908 208.742 519.982 208.742 521.486C208.742 522.953 207.673 524.124 206.034 524.107ZM204.241 521.508C204.246 522.421 204.992 523.253 206.034 523.259C207.039 523.253 207.802 522.464 207.807 521.497C207.802 520.541 207.071 519.762 206.056 519.757C205.035 519.762 204.251 520.589 204.241 521.508ZM216.766 518.178C216.686 517.415 215.977 516.975 215.048 516.975C214.016 516.975 213.345 517.512 213.34 518.253C213.345 519.069 214.253 519.375 214.844 519.521L215.617 519.735C216.449 519.95 217.819 520.428 217.819 521.884C217.819 523.151 216.799 524.134 214.994 524.14C213.318 524.134 212.282 523.27 212.19 521.98H213.178C213.259 522.851 214.07 523.264 214.994 523.259C216.068 523.264 216.874 522.711 216.874 521.862C216.874 521.105 216.154 520.815 215.338 520.584L214.382 520.326C213.162 519.972 212.4 519.349 212.405 518.296C212.4 516.98 213.571 516.115 215.08 516.115C216.589 516.115 217.674 516.996 217.712 518.178H216.766ZM223.228 518.178C223.147 517.415 222.438 516.975 221.509 516.975C220.478 516.975 219.807 517.512 219.801 518.253C219.807 519.069 220.714 519.375 221.305 519.521L222.079 519.735C222.911 519.95 224.281 520.428 224.281 521.884C224.281 523.151 223.26 524.134 221.456 524.14C219.78 524.134 218.743 523.27 218.652 521.98H219.64C219.721 522.851 220.532 523.264 221.456 523.259C222.53 523.264 223.335 522.711 223.335 521.862C223.335 521.105 222.616 520.815 221.799 520.584L220.843 520.326C219.624 519.972 218.861 519.349 218.867 518.296C218.861 516.98 220.032 516.115 221.541 516.115C223.051 516.115 224.136 516.996 224.173 518.178H223.228ZM225.446 524V516.223H226.413V523.141H230.023V524H225.446ZM240.626 515.32V517.684H242.065V518.371H240.626V520.853H239.788V515.32H240.626ZM233.342 518.146C233.337 516.813 234.401 515.895 235.845 515.9C237.301 515.895 238.348 516.813 238.359 518.146C238.348 519.472 237.301 520.385 235.845 520.391C234.401 520.385 233.337 519.472 233.342 518.146ZM234.17 518.146C234.164 519.048 234.879 519.671 235.845 519.682C236.823 519.671 237.527 519.048 237.532 518.146C237.527 517.249 236.823 516.609 235.845 516.62C234.879 516.609 234.164 517.249 234.17 518.146ZM234.599 524.741V521.304H240.626V524.741H234.599ZM235.426 524.054H239.788V521.991H235.426V524.054ZM250.697 516.738V517.437H242.876V516.738H246.378V515.481H247.205V516.738H250.697ZM242.447 523.753V523.055H246.378V521.712C244.676 521.621 243.65 520.96 243.661 519.886C243.65 518.752 244.848 518.081 246.797 518.092C248.72 518.081 249.939 518.752 249.934 519.886C249.939 520.96 248.892 521.621 247.205 521.712V523.055H251.191V523.753H242.447ZM244.509 519.886C244.498 520.611 245.374 521.03 246.797 521.035C248.204 521.03 249.08 520.611 249.075 519.886C249.08 519.177 248.204 518.758 246.797 518.758C245.374 518.758 244.498 519.177 244.509 519.886ZM259.146 515.32V519.392H260.671V520.101H259.146V524.87H258.297V515.32H259.146ZM251.615 522.324C252.394 522.324 253.302 522.319 254.247 522.292V521.239C253.135 521.11 252.41 520.455 252.421 519.51C252.41 518.43 253.323 517.732 254.677 517.737C256.009 517.732 256.938 518.43 256.943 519.51C256.938 520.46 256.202 521.11 255.096 521.239V522.26C255.982 522.217 256.884 522.142 257.717 522.023L257.771 522.668C255.687 523.022 253.431 523.044 251.755 523.044L251.615 522.324ZM251.787 517.179V516.491H254.247V515.342H255.096V516.491H257.545V517.179H251.787ZM253.205 519.51C253.211 520.17 253.791 520.605 254.677 520.595C255.547 520.605 256.132 520.17 256.138 519.51C256.132 518.844 255.547 518.393 254.677 518.393C253.791 518.393 253.211 518.844 253.205 519.51ZM266.88 517.082C266.88 518.323 267.836 519.51 269.233 519.993L268.792 520.659C267.718 520.272 266.886 519.472 266.478 518.489C266.064 519.585 265.178 520.466 264.044 520.885L263.604 520.219C265.011 519.714 266.032 518.441 266.032 517.093V516.674H263.873V515.986H269.018V516.674H266.88V517.082ZM265.054 522.249V521.551H271.478V524.87H270.629V522.249H265.054ZM268.717 518.532V517.823H270.629V515.32H271.478V521.046H270.629V518.532H268.717ZM281.549 520.047V520.745H272.848V520.047H275.007V518.699C274.244 518.403 273.815 517.92 273.815 517.275C273.815 516.153 275.104 515.508 277.198 515.503C279.277 515.508 280.566 516.153 280.572 517.275C280.566 517.915 280.142 518.398 279.39 518.699V520.047H281.549ZM273.901 523.162C273.895 522.072 275.125 521.47 277.198 521.476C279.245 521.47 280.475 522.072 280.486 523.162C280.475 524.252 279.245 524.849 277.198 524.849C275.125 524.849 273.895 524.252 273.901 523.162ZM274.685 517.275C274.679 517.974 275.635 518.376 277.198 518.382C278.745 518.376 279.707 517.974 279.712 517.275C279.707 516.588 278.745 516.169 277.198 516.169C275.635 516.169 274.679 516.588 274.685 517.275ZM274.76 523.162C274.749 523.812 275.668 524.199 277.198 524.193C278.713 524.199 279.632 523.812 279.637 523.162C279.632 522.512 278.713 522.131 277.198 522.12C275.668 522.131 274.749 522.512 274.76 523.162ZM275.845 520.047H278.552V518.924C278.149 519 277.698 519.037 277.198 519.037C276.699 519.037 276.248 519 275.845 518.93V520.047Z" fill="#555555"/>
<path d="M326.432 515.953V518.59H327.555V519.859H326.432V522.682H324.859V515.953H326.432ZM319.195 518.014V516.803H321.08V515.934H322.652V516.803H324.537V518.014H319.195ZM319.586 520.006C319.581 518.946 320.538 518.219 321.861 518.219C323.185 518.219 324.117 518.946 324.117 520.006C324.117 521.061 323.185 521.773 321.861 521.764C320.538 521.773 319.581 521.061 319.586 520.006ZM320.445 524.84V522.174H322.018V523.59H326.695V524.84H320.445ZM321.119 520.006C321.114 520.416 321.412 520.592 321.861 520.592C322.32 520.592 322.628 520.416 322.633 520.006C322.628 519.596 322.32 519.405 321.861 519.4C321.412 519.405 321.114 519.596 321.119 520.006ZM334.991 516.305V517.057C334.996 517.711 334.996 518.448 334.835 519.352H335.9V520.592H332.55V521.646H334.962V524.967H333.4V522.857H328.458V521.646H330.968V520.592H327.648V519.352H333.253C333.385 518.648 333.414 518.077 333.424 517.545H328.634V516.305H334.991ZM344.342 522.711V523.98H336.09V522.711H339.43V521.09H336.901V516.549H343.493V521.09H340.983V522.711H344.342ZM338.454 519.879H341.94V517.799H338.454V519.879ZM351.74 515.934V519.205H352.961V520.494H351.74V524.967H350.168V515.934H351.74ZM344.767 522.926V516.627H346.33V518.697H347.716V516.627H349.279V522.926H344.767ZM346.33 521.666H347.716V519.908H346.33V521.666ZM355.544 516.168C356.94 516.163 358.005 517.047 358.005 518.268C358.005 519.479 356.94 520.357 355.544 520.357C354.138 520.357 353.063 519.479 353.073 518.268C353.063 517.047 354.138 516.163 355.544 516.168ZM354.421 521.92V520.729H360.593V523.355H355.973V523.668H360.788V524.889H354.44V522.232H359.03V521.92H354.421ZM354.587 518.268C354.577 518.829 354.987 519.103 355.544 519.107C356.096 519.103 356.496 518.829 356.491 518.268C356.496 517.706 356.096 517.438 355.544 517.428C354.992 517.438 354.577 517.706 354.587 518.268ZM359.02 520.396V515.934H360.593V520.396H359.02ZM369.035 515.953V522.369H367.463V515.953H369.035ZM361.516 518.805C361.506 517.467 362.634 516.485 364.045 516.49C365.451 516.485 366.579 517.467 366.574 518.805C366.579 520.167 365.451 521.134 364.045 521.139C362.634 521.134 361.506 520.167 361.516 518.805ZM362.854 524.84V521.725H364.436V523.59H369.25V524.84H362.854ZM363.039 518.805C363.034 519.464 363.469 519.776 364.045 519.781C364.592 519.776 365.021 519.464 365.021 518.805C365.021 518.17 364.592 517.843 364.045 517.848C363.469 517.843 363.034 518.17 363.039 518.805ZM378.103 520.016V521.266H369.861V520.016H378.103ZM370.154 518.6C371.775 518.468 372.492 518.004 372.756 517.564H370.612V516.324H377.351V517.564H375.183C375.437 518.004 376.154 518.468 377.82 518.6L377.282 519.82C375.476 519.674 374.431 519.063 373.962 518.268C373.498 519.059 372.478 519.674 370.671 519.82L370.154 518.6ZM370.769 523.287C370.774 522.213 371.975 521.588 373.962 521.588C375.935 521.588 377.121 522.213 377.126 523.287C377.121 524.371 375.935 524.986 373.962 524.986C371.975 524.986 370.774 524.371 370.769 523.287ZM372.37 523.287C372.361 523.653 372.839 523.775 373.962 523.775C375.051 523.775 375.554 523.653 375.554 523.287C375.554 522.921 375.051 522.789 373.962 522.789C372.839 522.789 372.361 522.921 372.37 523.287ZM387.014 525.143C387.566 524.161 388.176 522.223 388.176 520.465C388.176 518.702 387.566 516.764 387.014 515.777H388.459C389.221 517.105 389.714 518.629 389.709 520.465C389.714 522.296 389.221 523.819 388.459 525.143H387.014ZM378.811 520.465C378.806 518.629 379.299 517.105 380.061 515.777H381.506C380.954 516.764 380.344 518.702 380.344 520.465C380.344 522.223 380.954 524.161 381.506 525.143H380.061C379.299 523.819 378.806 522.296 378.811 520.465ZM381.125 521.549V520.514H387.395V521.549H384.885V523.717H383.577V521.549H381.125ZM381.36 519.264C382.805 519.117 383.298 518.609 383.44 518.15H381.662V517.145H386.868V518.15H385.09C385.227 518.609 385.705 519.117 387.161 519.264L386.692 520.289C385.422 520.152 384.665 519.713 384.26 519.122C383.86 519.713 383.103 520.152 381.838 520.289L381.36 519.264Z" fill="#333333"/>
<defs>
<clipPath id="clip0_263_944">
<rect width="64.0816" height="20" fill="white" transform="translate(20 15)"/>
</clipPath>
</defs>
</svg>
