<svg width="400" height="727" viewBox="0 0 400 727" fill="none" xmlns="http://www.w3.org/2000/svg">
<rect width="400" height="727" fill="white"/>
<rect width="400" height="58" fill="white"/>
<mask id="mask0_250_1121" style="mask-type:alpha" maskUnits="userSpaceOnUse" x="14" y="17" width="24" height="24">
<rect x="14" y="17" width="24" height="24" fill="#D9D9D9"/>
</mask>
<g mask="url(#mask0_250_1121)">
<path d="M23.0152 28.9994L30.248 36.2321C30.43 36.4141 30.5227 36.6397 30.526 36.9089C30.5292 37.1782 30.4397 37.4039 30.2577 37.5859C30.0756 37.7679 29.8499 37.8589 29.5807 37.8589C29.3116 37.8589 29.0859 37.7679 28.9038 37.5859L21.4578 30.1301C21.2936 29.9659 21.1762 29.7884 21.1057 29.5974C21.0352 29.4064 21 29.207 21 28.9994C21 28.7917 21.0352 28.5924 21.1057 28.4014C21.1762 28.2104 21.2936 28.0328 21.4578 27.8686L28.9038 20.4224C29.0859 20.2404 29.31 20.1478 29.576 20.1446C29.842 20.1414 30.066 20.2309 30.248 20.4129C30.43 20.5949 30.521 20.8205 30.521 21.0899C30.521 21.359 30.43 21.5846 30.248 21.7666L23.0152 28.9994Z" fill="#222222"/>
</g>
<path d="M173.578 94.9336V112.898H171.418V104.23H166.031V102.426H171.418V94.9336H173.578ZM153.809 108.332C159.401 106.486 163.297 102.986 163.789 98.5977H155.039V96.793H166.141C166.113 103.041 161.643 107.799 154.738 110.055L153.809 108.332ZM158.102 118.695V111.066H160.289V116.891H174.207V118.695H158.102ZM196.069 94.9062V101.25H199.733V103.027H196.069V109.508H193.936V94.9062H196.069ZM177.092 107.785C182.958 106.09 186.704 102.713 187.141 98.4883H178.159V96.7109H189.452C189.438 102.904 185.077 107.443 177.995 109.535L177.092 107.785ZM180.428 114.457C180.415 111.545 183.546 109.768 188.385 109.781C193.266 109.768 196.342 111.545 196.342 114.457C196.342 117.41 193.266 119.16 188.385 119.16C183.546 119.16 180.415 117.41 180.428 114.457ZM182.561 114.457C182.534 116.289 184.817 117.451 188.385 117.438C191.954 117.451 194.264 116.289 194.264 114.457C194.264 112.625 191.954 111.49 188.385 111.504C184.817 111.49 182.534 112.625 182.561 114.457ZM222.962 114.32V116.098H200.704V114.32H210.712V109.07H203.329V96.6289H205.49V101.031H218.122V96.6289H220.228V109.07H212.818V114.32H222.962ZM205.49 107.32H218.122V102.781H205.49V107.32ZM244.496 94.9062V109.645H242.336V104.094H238.207V102.316H242.336V94.9062H244.496ZM224.371 99.2266V97.4766H230.414V94.6875H232.519V97.4766H238.562V99.2266H224.371ZM225.82 104.805C225.82 102.262 228.158 100.484 231.453 100.484C234.762 100.484 237.086 102.262 237.113 104.805C237.086 107.43 234.762 109.152 231.453 109.152C228.158 109.152 225.82 107.43 225.82 104.805ZM227.871 104.805C227.871 106.418 229.334 107.484 231.453 107.512C233.572 107.484 235.035 106.418 235.035 104.805C235.035 103.246 233.572 102.152 231.453 102.152C229.334 102.152 227.871 103.246 227.871 104.805ZM228.609 118.887V110.957H244.496V118.887H228.609ZM230.742 117.137H242.39V112.68H230.742V117.137ZM106.912 141.371C106.885 145.268 109.701 149.561 113.228 151.242L111.998 152.938C109.264 151.598 106.953 148.727 105.859 145.432C104.738 149 102.305 152.145 99.5839 153.539L98.2714 151.844C101.771 150.135 104.779 145.514 104.807 141.371V138.199H99.1464V136.422H112.381V138.199H106.912V141.371ZM115.361 158.215V133.906H117.494V143.75H121.568V145.582H117.494V158.215H115.361ZM135.145 135.574C135.145 136.518 135.036 137.42 134.844 138.281H140.313V133.934H142.473V148.426H140.313V145.199H133.86V143.422H140.313V140.059H134.256C132.616 143.887 128.801 146.662 123.551 148.098L122.704 146.375C128.637 144.734 132.397 141.48 132.834 137.324H123.934V135.574H135.145ZM126.122 151.215V149.492H142.473V158.188H140.313V151.215H126.122ZM154.998 149.109C154.041 149.096 153.22 148.303 153.248 147.332C153.22 146.375 154.041 145.582 154.998 145.582C155.968 145.582 156.761 146.375 156.748 147.332C156.761 148.303 155.968 149.096 154.998 149.109ZM170.53 134.891V137.98H182.561V134.891H184.694V144.598H177.585V147.195H187.592V148.973H165.444V147.195H175.452V144.598H168.397V134.891H170.53ZM168.315 157.695V150.914H170.475V155.891H185.132V157.695H168.315ZM170.53 142.875H182.561V139.676H170.53V142.875ZM209.154 133.934V151.707H207.021V133.934H209.154ZM189.658 141.59C189.644 138.09 192.392 135.643 196.029 135.629C199.665 135.643 202.386 138.09 202.4 141.59C202.386 145.131 199.665 147.592 196.029 147.578C192.392 147.592 189.644 145.131 189.658 141.59ZM191.763 141.59C191.736 144.01 193.568 145.691 196.029 145.691C198.449 145.691 200.294 144.01 200.294 141.59C200.294 139.211 198.449 137.516 196.029 137.516C193.568 137.516 191.736 139.211 191.763 141.59ZM193.458 157.695V149.902H195.591V155.891H209.919V157.695H193.458ZM231.699 133.934V141.289H235.336V143.094H231.699V150.23H229.539V133.934H231.699ZM212.613 147.742C214.555 147.742 216.824 147.742 219.203 147.674V145.883C216.373 145.623 214.541 144.324 214.555 142.301C214.541 140.086 216.824 138.719 220.242 138.719C223.687 138.719 225.93 140.086 225.957 142.301C225.93 144.311 224.152 145.609 221.336 145.883V147.592C223.605 147.482 225.902 147.291 228.035 146.977L228.226 148.535C222.949 149.465 217.139 149.506 212.859 149.492L212.613 147.742ZM213.215 137.789V136.148H219.203V133.715H221.336V136.148H227.297V137.789H213.215ZM215.594 153.156V151.434H231.699V158.215H229.539V153.156H215.594ZM216.605 142.301C216.592 143.572 218 144.434 220.242 144.406C222.484 144.434 223.906 143.572 223.906 142.301C223.906 141.016 222.484 140.223 220.242 140.25C218 140.223 216.592 141.016 216.605 142.301ZM256.432 133.934V151.707H254.299V133.934H256.432ZM236.936 141.59C236.922 138.09 239.67 135.643 243.307 135.629C246.944 135.643 249.664 138.09 249.678 141.59C249.664 145.131 246.944 147.592 243.307 147.578C239.67 147.592 236.922 145.131 236.936 141.59ZM239.041 141.59C239.014 144.01 240.846 145.691 243.307 145.691C245.727 145.691 247.573 144.01 247.573 141.59C247.573 139.211 245.727 137.516 243.307 137.516C240.846 137.516 239.014 139.211 239.041 141.59ZM240.737 157.695V149.902H242.87V155.891H257.198V157.695H240.737ZM274.835 149.793H277.515L279.607 152.527C281.084 151.229 282.013 149.055 282.027 146.102C282.013 140.988 279.238 138.227 275.656 138.227C272.074 138.227 269.298 140.988 269.285 146.102C269.298 151.201 272.074 153.963 275.656 153.977C276.394 153.977 277.105 153.854 277.761 153.621L274.835 149.793ZM266.906 146.102C266.892 139.84 270.57 135.93 275.656 135.93C280.728 135.93 284.419 139.84 284.406 146.102C284.419 149.807 283.134 152.678 281.029 154.414L283.613 157.859H280.933L279.21 155.549C278.144 156.027 276.941 156.273 275.656 156.273C270.57 156.273 266.892 152.363 266.906 146.102ZM287.455 156V136.203H294.182C298.816 136.203 300.936 138.773 300.936 142.301C300.936 144.926 299.76 146.977 297.244 147.852L301.701 156H298.83L294.688 148.303C294.537 148.316 294.373 148.316 294.209 148.316H289.916V156H287.455ZM289.916 146.074H294.1C297.258 146.074 298.488 144.652 298.502 142.301C298.488 139.936 297.258 138.391 294.072 138.391H289.916V146.074Z" fill="black"/>
<g clip-path="url(#clip0_250_1121)">
<circle cx="200" cy="256" r="70" fill="#F2F3F7"/>
<path d="M230.05 282.127H170.541C167.74 282.127 165.467 279.854 165.467 277.053V235.875C165.467 233.074 167.74 230.801 170.541 230.801H230.057C232.858 230.801 235.131 233.074 235.131 235.875V277.06C235.131 279.861 232.858 282.134 230.057 282.134L230.05 282.127Z" fill="#EF403C"/>
<path d="M197.827 260.62C197.71 260.495 195.561 258.369 191.976 257.247C193.611 255.949 194.667 253.955 194.667 251.711C194.667 247.818 191.499 244.65 187.606 244.65C183.712 244.65 180.545 247.818 180.545 251.711C180.545 253.955 181.601 255.949 183.236 257.247C179.643 258.362 177.502 260.495 177.385 260.613C176.93 261.075 176.666 261.742 176.666 262.439V265.914C176.666 267.27 177.649 268.378 178.858 268.378H196.368C197.578 268.378 198.56 267.27 198.56 265.914V262.439C198.56 261.742 198.296 261.075 197.842 260.613L197.827 260.62Z" fill="white"/>
<path d="M206.01 248.143H224.282" stroke="white" stroke-width="4" stroke-linecap="round" stroke-linejoin="round"/>
<path d="M206.01 256.934H216.04" stroke="white" stroke-width="4" stroke-linecap="round" stroke-linejoin="round"/>
</g>
<path d="M158.684 367.305H161.473L162.915 369.203C163.888 368.195 164.462 366.625 164.45 364.516C164.462 360.637 162.516 358.539 159.739 358.539C156.973 358.539 155.016 360.637 155.028 364.516C155.016 368.395 156.973 370.492 159.739 370.492C160.184 370.492 160.606 370.434 161.005 370.328L158.684 367.305ZM151.958 364.516C151.946 359.031 155.274 355.797 159.739 355.797C164.18 355.797 167.532 359.031 167.52 364.516C167.532 367.598 166.477 369.965 164.766 371.453L167.122 374.477H164.145L162.727 372.684C161.813 373.047 160.805 373.234 159.739 373.234C155.274 373.234 151.946 369.988 151.958 364.516ZM169.783 373V356.031H176.158C180.048 356.031 182.122 358.211 182.134 361.445C182.122 363.754 181.068 365.465 179.075 366.273L182.743 373H179.345L176.017 366.789H172.829V373H169.783ZM172.829 364.234H175.689C177.986 364.246 179.017 363.262 179.017 361.445C179.017 359.641 177.986 358.586 175.689 358.586H172.829V364.234ZM206.862 353.898V375.086H204.377V353.898H206.862ZM188.252 369.062C191.311 367.199 192.658 363.379 192.658 359.688V358.281H188.979V356.172H198.588V358.281H195.166V359.688C195.166 363.262 196.444 366.848 199.479 368.594L197.932 370.516C195.975 369.355 194.674 367.34 193.936 364.926C193.186 367.539 191.838 369.766 189.846 371.008L188.252 369.062ZM197.041 363.391V361.281H200.088V354.297H202.549V374.055H200.088V363.391H197.041ZM228.155 363.062V364.984H219.811V366.531H225.788V371.5H213.741V372.953H226.374V374.898H211.186V369.719H223.233V368.406H211.163V366.531H217.233V364.984H208.936V363.062H228.155ZM209.78 360.414C213.964 360.203 216.425 359.078 216.964 357.578H210.788V355.633H217.233V353.852H219.811V355.633H226.303V357.578H220.081C220.596 359.078 223.057 360.203 227.288 360.414L226.514 362.359C222.706 362.125 219.858 361.094 218.522 359.383C217.186 361.094 214.35 362.125 210.507 362.359L209.78 360.414ZM248.511 370.469V372.625H229.152V370.469H237.495V367.023H231.448V360.086H243.636V357.461H231.402V355.352H246.214V362.148H234.05V364.891H246.706V367.023H240.073V370.469H248.511Z" fill="#EF403C"/>
<path d="M152.841 396.764V399.277H157.2V396.764H158.554V398.363H162.245V395.797H163.634V405.271H162.245V402.723H158.554V404.111H151.47V396.764H152.841ZM152.841 402.986H157.2V400.385H152.841V402.986ZM153.21 408.506C153.201 406.643 155.197 405.588 158.448 405.57C161.692 405.588 163.687 406.643 163.687 408.506C163.687 410.334 161.692 411.389 158.448 411.389C155.197 411.389 153.201 410.334 153.21 408.506ZM154.581 408.506C154.572 409.631 156.049 410.299 158.448 410.299C160.839 410.299 162.316 409.631 162.316 408.506C162.316 407.337 160.839 406.669 158.448 406.66C156.049 406.669 154.572 407.337 154.581 408.506ZM158.554 401.58H162.245V399.488H158.554V401.58ZM167.528 405.57C166.913 405.562 166.385 405.052 166.403 404.428C166.385 403.812 166.913 403.303 167.528 403.303C168.152 403.303 168.662 403.812 168.653 404.428C168.662 405.052 168.152 405.562 167.528 405.57ZM175.201 396.939C177.653 396.948 179.394 398.442 179.402 400.613C179.394 402.793 177.653 404.278 175.201 404.287C172.731 404.278 170.974 402.793 170.982 400.613C170.974 398.442 172.731 396.948 175.201 396.939ZM170.174 406.836C173.057 406.845 177.038 406.818 180.492 406.309L180.598 407.328C177.02 407.996 173.18 408.014 170.367 408.014L170.174 406.836ZM172.336 400.613C172.327 402.072 173.531 403.074 175.201 403.074C176.853 403.074 178.058 402.072 178.049 400.613C178.058 399.163 176.853 398.152 175.201 398.152C173.531 398.152 172.327 399.163 172.336 400.613ZM181.529 411.459V395.797H182.9V411.459H181.529ZM198.167 395.814V407.68H196.779V406.062H193.544V405.061H196.779V395.814H198.167ZM185.195 403.057C188.104 403.039 192.024 403.013 195.372 402.6L195.46 403.602C194.072 403.821 192.604 403.962 191.171 404.05V407.135H189.783V404.12C188.201 404.182 186.698 404.182 185.388 404.182L185.195 403.057ZM186.46 399.172C186.451 397.528 188.016 396.447 190.327 396.447C192.621 396.447 194.186 397.528 194.195 399.172C194.186 400.842 192.621 401.879 190.327 401.879C188.016 401.879 186.451 400.842 186.46 399.172ZM187.445 411.09V406.52H188.833V409.93H198.554V411.09H187.445ZM187.779 399.172C187.761 400.191 188.798 400.851 190.327 400.859C191.813 400.851 192.867 400.191 192.876 399.172C192.867 398.17 191.813 397.484 190.327 397.502C188.798 397.484 187.761 398.17 187.779 399.172ZM210.262 399.154C210.271 401.264 211.932 403.162 214.27 403.9L213.566 405.008C211.747 404.384 210.306 403.101 209.594 401.457C208.917 403.232 207.449 404.639 205.586 405.324L204.865 404.217C207.212 403.399 208.864 401.369 208.873 399.154V398.24H205.217V397.115H213.865V398.24H210.262V399.154ZM207.449 411.09V406.186H208.82V409.93H218.031V411.09H207.449ZM216.168 407.275V395.814H217.539V407.275H216.168ZM234.142 408.33V409.49H219.833V408.33H223.859V405.359H221.626V400.543H230.978V398.1H221.591V396.957H232.331V401.686H222.997V404.217H232.701V405.359H230.257V408.33H234.142ZM225.212 408.33H228.904V405.359H225.212V408.33ZM249.321 403.057V404.146H235.012V403.057H249.321ZM236.735 406.432V405.395H247.528V408.717H238.141V410.211H248.038V411.213H236.753V407.768H246.157V406.432H236.735ZM236.823 397.273V396.271H247.475V399.506H238.247V400.877H247.757V401.879H236.876V398.557H246.087V397.273H236.823ZM146.341 422.797V431.287H144.97V427.754H141.806V426.594H144.97V422.797H146.341ZM133.474 430.461C135.777 429.626 137.446 427.561 137.446 425.346V424.889H133.913V423.746H142.333V424.889H138.835V425.346C138.835 427.35 140.4 429.318 142.685 430.109L141.964 431.182C140.206 430.54 138.844 429.23 138.167 427.631C137.499 429.424 136.049 430.874 134.195 431.551L133.474 430.461ZM136.286 438.213V432.043H137.675V433.994H144.97V432.043H146.341V438.213H136.286ZM137.675 437.088H144.97V435.102H137.675V437.088ZM156.44 424.256C156.449 426.462 159.314 428.36 162.135 428.756L161.573 429.881C159.147 429.477 156.739 428.132 155.737 426.216C154.735 428.149 152.336 429.477 149.901 429.881L149.338 428.756C152.16 428.36 155.016 426.497 155.016 424.256V423.359H156.44V424.256ZM148.6 432.764V431.604H162.838V432.764H156.37V438.424H155.016V432.764H148.6ZM176.014 422.744V426.541H178.387V427.684H176.014V431.393H174.643V422.744H176.014ZM163.832 425.328V424.221H167.805V422.639H169.176V424.221H173.148V425.328H163.832ZM164.728 428.598C164.72 427.016 166.214 426.04 168.49 426.031C170.758 426.04 172.234 427.016 172.252 428.598C172.234 430.188 170.758 431.155 168.49 431.164C166.214 431.155 164.72 430.188 164.728 428.598ZM166.047 433.238V432.201H176.014V435.664H167.435V437.193H176.594V438.248H166.082V434.645H174.643V433.238H166.047ZM166.047 428.598C166.038 429.538 167.005 430.127 168.49 430.127C169.967 430.127 170.934 429.538 170.951 428.598C170.934 427.666 169.967 427.06 168.49 427.051C167.005 427.06 166.038 427.666 166.047 428.598ZM190.991 424.256C191 426.462 193.865 428.36 196.686 428.756L196.124 429.881C193.698 429.477 191.29 428.132 190.288 426.216C189.286 428.149 186.886 429.477 184.452 429.881L183.889 428.756C186.711 428.36 189.567 426.497 189.567 424.256V423.359H190.991V424.256ZM183.151 432.764V431.604H197.389V432.764H190.921V438.424H189.567V432.764H183.151ZM207.796 433.291C207.787 434.671 208.535 436.139 210.02 436.982C211.514 436.06 212.305 434.495 212.296 433.291V432.43H213.65V433.291C213.641 434.899 214.827 436.499 216.831 437.193L216.146 438.213C214.581 437.659 213.492 436.569 212.947 435.26C212.463 436.525 211.505 437.729 210.064 438.336C208.543 437.756 207.577 436.613 207.111 435.304C206.548 436.561 205.476 437.65 203.982 438.213L203.279 437.193C205.256 436.455 206.443 434.785 206.46 433.291V432.43H207.796V433.291ZM202.874 427.385C202.866 425.205 204.597 423.72 206.97 423.729C209.343 423.72 211.057 425.205 211.066 427.385C211.057 429.529 209.343 431.006 206.97 431.006C204.597 431.006 202.866 429.529 202.874 427.385ZM204.228 427.385C204.21 428.835 205.362 429.854 206.97 429.863C208.561 429.854 209.712 428.835 209.712 427.385C209.712 425.926 208.561 424.889 206.97 424.906C205.362 424.889 204.21 425.926 204.228 427.385ZM214.036 431.744V422.814H215.408V431.744H214.036ZM220.884 432.184V434.012H228.688V432.184H230.077V438.213H219.512V432.184H220.884ZM217.702 431.076V429.934H231.94V431.076H217.702ZM218.51 427.719C221.297 427.341 224.118 425.697 224.118 423.711V422.973H225.542V423.711C225.533 425.636 228.381 427.367 231.132 427.719L230.622 428.826C228.205 428.466 225.823 427.235 224.83 425.486C223.837 427.244 221.446 428.466 219.038 428.826L218.51 427.719ZM220.884 437.105H228.688V435.102H220.884V437.105ZM245.783 422.797V438.424H244.412V422.797H245.783ZM233.918 434.398V424.344H235.272V433.203C237.662 433.186 240.123 433.001 242.742 432.447L242.936 433.625C240.158 434.205 237.689 434.398 235.184 434.398H233.918ZM260.189 422.797V428.984H262.808V430.145H260.189V438.459H258.818V422.797H260.189ZM248.781 434.539V424.326H256.076V425.469H250.152V433.379C252.982 433.37 254.977 433.247 257.306 432.816L257.482 434.012C255.03 434.451 252.982 434.539 250.011 434.539H248.781ZM264.944 437.105C264.329 437.097 263.802 436.587 263.819 435.963C263.802 435.348 264.329 434.838 264.944 434.838C265.568 434.838 266.078 435.348 266.069 435.963C266.078 436.587 265.568 437.097 264.944 437.105Z" fill="#222222"/>
<circle cx="183" cy="488.5" r="4" fill="white" stroke="#323C59"/>
<circle cx="200" cy="488.5" r="4" fill="white" stroke="#323C59"/>
<circle cx="217" cy="488.5" r="4.5" fill="#323C59"/>
<defs>
<clipPath id="clip0_250_1121">
<rect width="140" height="140" fill="white" transform="translate(130 186)"/>
</clipPath>
</defs>
</svg>
