<svg width="400" height="727" viewBox="0 0 400 727" fill="none" xmlns="http://www.w3.org/2000/svg">
<rect width="400" height="727" fill="white"/>
<rect width="400" height="58" fill="white"/>
<mask id="mask0_263_2253" style="mask-type:alpha" maskUnits="userSpaceOnUse" x="14" y="17" width="24" height="24">
<rect x="14" y="17" width="24" height="24" fill="#D9D9D9"/>
</mask>
<g mask="url(#mask0_263_2253)">
<path d="M23.0152 28.9994L30.248 36.2321C30.43 36.4141 30.5227 36.6397 30.526 36.9089C30.5292 37.1782 30.4397 37.4039 30.2577 37.5859C30.0756 37.7679 29.8499 37.8589 29.5807 37.8589C29.3116 37.8589 29.0859 37.7679 28.9038 37.5859L21.4578 30.1301C21.2936 29.9659 21.1762 29.7884 21.1057 29.5974C21.0352 29.4064 21 29.207 21 28.9994C21 28.7917 21.0352 28.5924 21.1057 28.4014C21.1762 28.2104 21.2936 28.0328 21.4578 27.8686L28.9038 20.4224C29.0859 20.2404 29.31 20.1478 29.576 20.1446C29.842 20.1414 30.066 20.2309 30.248 20.4129C30.43 20.5949 30.521 20.8205 30.521 21.0899C30.521 21.359 30.43 21.5846 30.248 21.7666L23.0152 28.9994Z" fill="#222222"/>
</g>
<g clip-path="url(#clip0_263_2253)">
<circle cx="200" cy="178" r="30" fill="#EF403C"/>
<path d="M196.221 191.266C199.521 187.51 201.157 182.366 200.29 177.096" stroke="white" stroke-width="2" stroke-linecap="round" stroke-linejoin="round"/>
<path d="M196.685 179.52C196.797 183.429 195.185 187.111 192.432 189.684" stroke="white" stroke-width="2" stroke-linecap="round" stroke-linejoin="round"/>
<path d="M204.345 179.85C204.342 178.489 204.206 177.11 203.928 175.728H203.931C203.513 173.65 201.491 172.307 199.413 172.725C197.864 173.038 196.719 174.246 196.416 175.701" stroke="white" stroke-width="2" stroke-linecap="round" stroke-linejoin="round"/>
<path d="M200.66 191.777C202.334 189.33 203.497 186.531 204.023 183.559" stroke="white" stroke-width="2" stroke-linecap="round" stroke-linejoin="round"/>
<path d="M192.218 183.344C191.619 184.882 190.631 186.25 189.35 187.301" stroke="white" stroke-width="2" stroke-linecap="round" stroke-linejoin="round"/>
<path d="M207.844 183.919C208.321 181.03 208.29 178.005 207.677 174.967C206.842 170.821 202.804 168.137 198.658 168.973C194.512 169.808 191.829 173.846 192.664 177.992H192.675C192.765 178.434 192.821 178.879 192.849 179.321" stroke="white" stroke-width="2" stroke-linecap="round" stroke-linejoin="round"/>
<path d="M205.66 190.768C206.147 189.769 206.569 188.732 206.92 187.67" stroke="white" stroke-width="2" stroke-linecap="round" stroke-linejoin="round"/>
<path d="M188.699 176.934C188.723 177.532 188.796 178.141 188.918 178.747H188.925C189.353 180.874 188.549 182.962 187 184.275" stroke="white" stroke-width="2" stroke-linecap="round" stroke-linejoin="round"/>
<path d="M211.686 175.699C211.613 175.205 211.526 174.711 211.425 174.213C210.172 167.996 204.118 163.976 197.902 165.229C193.801 166.057 190.651 168.974 189.346 172.65" stroke="white" stroke-width="2" stroke-linecap="round" stroke-linejoin="round"/>
<path d="M211.035 187.258C211.651 184.954 211.982 182.552 211.999 180.102" stroke="white" stroke-width="2" stroke-linecap="round" stroke-linejoin="round"/>
</g>
<path d="M91.3572 251.279C91.3572 254.15 93.1883 257.051 96.6014 258.34L95.1365 260.479C92.6902 259.541 90.9764 257.754 90.0389 255.601C89.0721 258.032 87.285 260.142 84.7361 261.24L83.2127 259.072C86.7576 257.534 88.6619 254.194 88.6619 251.279V247.881H91.3572V251.279ZM88.0467 267.686C88.0174 264.697 91.4305 262.925 96.9236 262.91C102.402 262.925 105.845 264.697 105.859 267.686C105.845 270.674 102.402 272.446 96.9236 272.432C91.4305 272.446 88.0174 270.674 88.0467 267.686ZM90.8006 267.686C90.7713 269.355 93.1004 270.322 96.9236 270.293C100.732 270.322 103.061 269.355 103.076 267.686C103.061 266.001 100.732 265.034 96.9236 265.049C93.1004 265.034 90.7713 266.001 90.8006 267.686ZM97.4217 261.592V246.738H99.9998V253.096H103.076V246.27H105.713V262.412H103.076V255.381H99.9998V261.592H97.4217ZM116.509 254.297C116.509 258.428 118.428 262.632 122.046 264.58L120.494 266.631C117.945 265.283 116.187 262.778 115.235 259.805C114.297 262.983 112.539 265.723 110.005 267.246L108.365 265.137C111.997 263.027 113.872 258.53 113.902 254.297V253.242H109.156V250.957H113.902V247.178H116.509V250.957H121.167V253.242H116.509V254.297ZM119.439 258.779V256.465H123.218V246.797H125.855V271.172H123.218V258.779H119.439ZM128.521 272.49V246.24H131.187V272.49H128.521ZM155.753 246.27V265.342H152.97V246.27H155.753ZM134.513 254.531C134.527 250.737 137.545 248.042 141.515 248.027C145.47 248.042 148.487 250.737 148.487 254.531C148.487 258.384 145.47 261.064 141.515 261.064C137.545 261.064 134.527 258.384 134.513 254.531ZM137.237 254.531C137.223 257.007 139.068 258.633 141.515 258.633C143.917 258.633 145.763 257.007 145.763 254.531C145.763 252.114 143.917 250.459 141.515 250.459C139.068 250.459 137.223 252.114 137.237 254.531ZM138.585 271.934V263.408H141.397V269.678H156.544V271.934H138.585ZM183.249 258.604V260.859H159.313V258.604H183.249ZM160.573 255.029C165.334 254.517 169.098 252.378 169.406 249.814H161.51V247.529H181.11V249.814H173.127C173.449 252.363 177.155 254.517 182.018 255.029L181.022 257.227C176.466 256.699 172.702 254.78 171.281 252.012C169.831 254.78 166.095 256.699 161.54 257.227L160.573 255.029ZM162.155 267.686C162.155 264.639 165.568 262.881 171.266 262.881C176.921 262.881 180.304 264.639 180.319 267.686C180.304 270.732 176.921 272.446 171.266 272.432C165.568 272.446 162.155 270.732 162.155 267.686ZM164.967 267.686C164.953 269.341 167.253 270.249 171.266 270.234C175.221 270.249 177.536 269.341 177.536 267.686C177.536 265.986 175.221 265.078 171.266 265.049C167.253 265.078 164.953 265.986 164.967 267.686ZM196.594 247.822C202.102 247.822 206.291 250.737 206.291 255.146C206.291 259.585 202.102 262.485 196.594 262.471C191.101 262.485 186.911 259.585 186.926 255.146C186.911 250.737 191.101 247.822 196.594 247.822ZM184.641 269.092V266.777H208.664V269.092H184.641ZM189.592 255.146C189.577 258.208 192.566 260.186 196.594 260.186C200.608 260.186 203.581 258.208 203.596 255.146C203.581 252.1 200.608 250.063 196.594 250.078C192.566 250.063 189.577 252.1 189.592 255.146ZM233.992 267.012V269.355H209.969V267.012H220.545V262.412H212.898V254.062H228.308V250.371H212.84V248.086H231.062V256.289H215.652V260.127H231.678V262.412H223.299V267.012H233.992ZM266.044 267.012V269.355H242.021V267.012H252.597V262.412H244.95V254.062H260.36V250.371H244.892V248.086H263.114V256.289H247.704V260.127H263.729V262.412H255.351V267.012H266.044ZM288.149 248.906V251.719C288.149 255.117 288.149 258.794 287.182 264.404L284.34 264.141C285.395 258.882 285.395 255.029 285.395 251.719V251.191H269.926V248.906H288.149ZM267.348 268.77V266.455H291.284V268.77H267.348ZM314.444 246.27V265.342H311.66V246.27H314.444ZM293.203 254.531C293.218 250.737 296.236 248.042 300.205 248.027C304.16 248.042 307.178 250.737 307.178 254.531C307.178 258.384 304.16 261.064 300.205 261.064C296.236 261.064 293.218 258.384 293.203 254.531ZM295.928 254.531C295.913 257.007 297.759 258.633 300.205 258.633C302.608 258.633 304.453 257.007 304.453 254.531C304.453 252.114 302.608 250.459 300.205 250.459C297.759 250.459 295.913 252.114 295.928 254.531ZM297.276 271.934V263.408H300.088V269.678H315.235V271.934H297.276ZM137.947 288.24V298.875H142.166V301.189H137.947V314.49H135.194V288.24H137.947ZM117.352 294.627V292.342H123.826V288.592H126.61V292.342H132.908V294.627H117.352ZM118.699 302.654C118.699 299.08 121.453 296.561 125.233 296.561C128.997 296.561 131.751 299.08 131.766 302.654C131.751 306.258 128.997 308.763 125.233 308.777C121.453 308.763 118.699 306.258 118.699 302.654ZM121.365 302.654C121.351 304.939 122.991 306.463 125.233 306.434C127.459 306.463 129.085 304.939 129.1 302.654C129.085 300.413 127.459 298.86 125.233 298.846C122.991 298.86 121.351 300.413 121.365 302.654ZM152.465 294.92C152.435 299.71 155.336 304.544 159.408 306.346L157.738 308.543C154.721 307.107 152.333 304.163 151.102 300.574C149.887 304.427 147.47 307.591 144.32 309.129L142.621 306.785C146.752 304.954 149.652 299.93 149.652 294.92V290.438H152.465V294.92ZM161.781 314.549V288.24H164.564V314.549H161.781ZM179.785 290.145C179.785 292.093 179.462 293.88 178.832 295.506H182.568V288.797H185.204V302.947H182.568V297.762H177.675C176.005 300.354 173.354 302.42 169.736 303.943L168.329 301.863C173.544 299.783 176.401 296.575 176.913 292.4H169.531V290.145H179.785ZM169.589 312.322C172.944 311.121 174.833 308.338 174.833 305.789V304.207H177.499V305.789C177.47 308.074 178.598 310.433 180.971 311.868C183.373 310.301 184.531 307.752 184.56 305.789V304.207H187.255V305.789C187.241 308.514 189.072 311.209 192.47 312.322L191.122 314.373C188.53 313.45 186.757 311.678 185.849 309.51C185.029 311.619 183.461 313.567 181.015 314.578C178.51 313.626 176.928 311.736 176.137 309.568C175.2 311.663 173.456 313.436 170.996 314.373L169.589 312.322ZM187.9 303.357V288.27H190.537V303.357H187.9ZM199.194 303.973V306.756H211.528V303.973H214.312V314.168H196.44V303.973H199.194ZM193.481 302.332V300.018H217.417V302.332H193.481ZM194.771 296.209C199.854 295.55 204.014 292.752 204.028 289.646V288.533H206.87V289.646C206.885 292.664 211.074 295.594 216.099 296.209L215.103 298.406C210.854 297.82 207.148 295.799 205.464 293.001C203.765 295.813 200.044 297.82 195.825 298.406L194.771 296.209ZM199.194 311.941H211.528V308.924H199.194V311.941ZM240.606 288.24V314.49H237.823V288.24H240.606ZM220.421 307.811V290.789H223.174V305.408C227.012 305.394 231.041 305.057 235.245 304.207L235.626 306.551C230.982 307.503 226.763 307.825 222.618 307.811H220.421ZM264.996 288.24V298.904H268.805V301.189H264.996V314.49H262.213V288.24H264.996ZM243.903 307.107C247.74 303.108 249.132 298.597 249.41 293.338H244.84V291.053H252.047C252.032 297.615 250.861 303.592 246.1 308.66L243.903 307.107ZM251.403 308.865C255.314 304.295 256.456 298.934 256.661 293.338H252.897V291.053H259.283C259.283 297.688 258.448 304.69 253.629 310.389L251.403 308.865ZM273.771 305.701C273.815 301.863 274.943 300.691 276.877 299.49C278.107 298.743 279.045 297.659 279.045 296.121C279.045 294.29 277.638 293.133 275.881 293.133C274.299 293.133 272.761 294.1 272.629 296.268H269.465C269.582 292.532 272.394 290.496 275.881 290.496C279.689 290.496 282.238 292.781 282.238 296.121C282.238 298.479 281.11 300.047 279.25 301.189C277.492 302.259 276.804 303.313 276.76 305.701V305.877H273.771V305.701ZM273.303 310.125C273.288 308.982 274.24 308.045 275.383 308.045C276.511 308.045 277.448 308.982 277.463 310.125C277.448 311.268 276.511 312.19 275.383 312.205C274.24 312.19 273.288 311.268 273.303 310.125Z" fill="#222222"/>
<path d="M142.246 342.908C142.254 344.64 143.459 346.389 145.462 347.145L144.742 348.199C143.239 347.619 142.158 346.503 141.595 345.158C141.024 346.644 139.899 347.971 138.361 348.639L137.605 347.566C139.662 346.67 140.919 344.648 140.927 342.908V340.781H142.246V342.908ZM140.453 352.611C140.435 350.845 142.439 349.808 145.691 349.816C148.925 349.808 150.938 350.845 150.947 352.611C150.938 354.36 148.925 355.389 145.691 355.389C142.439 355.389 140.435 354.36 140.453 352.611ZM141.824 352.611C141.806 353.675 143.292 354.325 145.691 354.316C148.064 354.325 149.558 353.675 149.576 352.611C149.558 351.53 148.064 350.88 145.691 350.871C143.292 350.88 141.806 351.53 141.824 352.611ZM146.166 348.973V340.113H147.466V344.016H149.541V339.814H150.859V349.465H149.541V345.158H147.466V348.973H146.166ZM157.354 344.613C157.363 347.127 158.638 349.702 160.765 350.836L159.974 351.873C158.418 351.021 157.293 349.403 156.722 347.522C156.168 349.526 155.052 351.284 153.487 352.225L152.661 351.17C154.788 349.939 156.045 347.197 156.054 344.613V343.84H153.083V342.697H156.054V340.377H157.372V342.697H160.29V343.84H157.354V344.613ZM159.218 347.145V345.967H161.679V340.184H162.979V354.615H161.679V347.145H159.218ZM164.825 355.424V339.797H166.143V355.424H164.825ZM180.883 339.814V351.24H179.512V339.814H180.883ZM168.35 344.736C168.341 342.486 170.108 340.913 172.446 340.904C174.783 340.913 176.533 342.486 176.541 344.736C176.533 347.013 174.783 348.595 172.446 348.586C170.108 348.595 168.341 347.013 168.35 344.736ZM169.703 344.736C169.686 346.292 170.864 347.373 172.446 347.373C174.001 347.373 175.188 346.292 175.188 344.736C175.188 343.207 174.001 342.117 172.446 342.117C170.864 342.117 169.686 343.207 169.703 344.736ZM170.793 355.09V350.08H172.164V353.93H181.375V355.09H170.793ZM197.416 347.232V348.375H183.177V347.232H197.416ZM183.986 345.193C186.711 344.877 189.339 343.532 189.4 341.748H184.478V340.605H196.15V341.748H191.193C191.255 343.515 193.856 344.877 196.625 345.193L196.115 346.301C193.557 345.976 191.158 344.824 190.297 343.093C189.435 344.824 187.053 345.976 184.478 346.301L183.986 345.193ZM184.9 352.576C184.891 350.783 186.922 349.746 190.297 349.746C193.645 349.746 195.658 350.783 195.675 352.576C195.658 354.387 193.645 355.389 190.297 355.389C186.922 355.389 184.891 354.387 184.9 352.576ZM186.306 352.576C186.289 353.666 187.792 354.29 190.297 354.281C192.775 354.29 194.278 353.666 194.287 352.576C194.278 351.478 192.775 350.854 190.297 350.836C187.792 350.854 186.289 351.478 186.306 352.576ZM216.84 352.33V353.49H202.532V352.33H208.965V349.377H204.325V344.561H213.676V342.1H204.289V340.957H215.03V345.686H205.696V348.234H215.399V349.377H210.319V352.33H216.84ZM230.051 341.467V343.031C230.051 345 230.051 347.224 229.47 350.625L228.064 350.484C228.697 347.285 228.697 344.947 228.697 343.031V342.609H219.275V341.467H230.051ZM217.728 353.121V351.979H231.967V353.121H217.728ZM245.827 339.814V351.24H244.456V339.814H245.827ZM233.294 344.736C233.285 342.486 235.052 340.913 237.39 340.904C239.728 340.913 241.477 342.486 241.485 344.736C241.477 347.013 239.728 348.595 237.39 348.586C235.052 348.595 233.285 347.013 233.294 344.736ZM234.648 344.736C234.63 346.292 235.808 347.373 237.39 347.373C238.945 347.373 240.132 346.292 240.132 344.736C240.132 343.207 238.945 342.117 237.39 342.117C235.808 342.117 234.63 343.207 234.648 344.736ZM235.737 355.09V350.08H237.108V353.93H246.319V355.09H235.737ZM262.36 348.041V349.166H248.122V348.041H262.36ZM249.704 343.453C249.704 341.493 251.848 340.342 255.241 340.359C258.598 340.342 260.751 341.493 260.76 343.453C260.751 345.396 258.598 346.564 255.241 346.564C251.848 346.564 249.704 345.396 249.704 343.453ZM249.967 355.09V350.537H251.356V353.93H260.778V355.09H249.967ZM251.127 343.453C251.119 344.692 252.718 345.439 255.241 345.439C257.746 345.439 259.345 344.692 259.354 343.453C259.345 342.231 257.746 341.467 255.241 341.467C252.718 341.467 251.119 342.231 251.127 343.453ZM88.0287 369.1C88.0375 371.78 91.0961 374.162 93.812 374.672L93.1791 375.832C90.8149 375.287 88.3364 373.608 87.3256 371.314C86.3061 373.608 83.8364 375.278 81.4721 375.832L80.8393 374.672C83.5463 374.153 86.5786 371.789 86.5873 369.1V367.904H88.0287V369.1ZM80.2416 380.297V379.154H94.5502V380.297H80.2416ZM103.296 368.379V378.451H96.0887V368.379H103.296ZM97.4246 377.326H101.925V369.486H97.4246V377.326ZM106.161 382.424V366.797H107.532V373.037H110.151V374.232H107.532V382.424H106.161ZM123.291 375.252V376.377H112.481V368.15H123.115V369.311H113.887V371.631H122.781V372.738H113.887V375.252H123.291ZM110.635 380.385V379.242H124.944V380.385H110.635ZM138.716 367.518V368.66H136.308V372.246H138.664V373.354H133.636V375.27H140.07V376.395H125.832V375.27H132.265V373.354H127.22V372.246H129.576V368.66H127.167V367.518H138.716ZM127.677 382.09V377.766H129.066V380.93H138.488V382.09H127.677ZM130.947 372.246H134.937V368.66H130.947V372.246ZM158.141 366.797V374.883H156.752V370.822H153.272V369.68H156.752V366.797H158.141ZM145.168 373.811C147.524 373.028 149.141 371.068 149.158 368.783V367.307H150.512V368.783C150.494 370.831 152.112 372.712 154.397 373.459L153.658 374.531C151.927 373.916 150.547 372.686 149.853 371.104C149.185 372.888 147.77 374.25 145.924 374.918L145.168 373.811ZM148.016 376.781V375.674H158.141V379.4H149.405V381.105H158.721V382.213H148.051V378.346H156.77V376.781H148.016ZM173.337 366.797V376.113H171.949V372.018H168.802V370.875H171.949V366.797H173.337ZM160.453 374.865C162.773 374.03 164.425 371.912 164.425 369.68V369.1H160.892V367.939H169.312V369.1H165.814V369.662C165.814 371.701 167.379 373.644 169.664 374.426L168.943 375.533C167.194 374.9 165.832 373.582 165.155 371.974C164.487 373.802 163.037 375.261 161.173 375.973L160.453 374.865ZM162.914 379.506C162.905 377.669 164.9 376.597 168.152 376.605C171.395 376.597 173.39 377.669 173.39 379.506C173.39 381.352 171.395 382.406 168.152 382.424C164.9 382.406 162.905 381.352 162.914 379.506ZM164.285 379.506C164.276 380.64 165.753 381.325 168.152 381.316C170.543 381.325 172.019 380.64 172.019 379.506C172.019 378.363 170.543 377.678 168.152 377.678C165.753 377.678 164.276 378.363 164.285 379.506ZM188.974 366.797V382.424H187.638V366.797H188.974ZM175.772 373.547C175.781 370.225 177.1 368.124 179.13 368.115C181.028 368.124 182.311 369.952 182.487 372.896H184.509V367.131H185.827V381.633H184.509V374.039H182.496C182.364 377.08 181.055 378.987 179.13 378.979C177.1 378.987 175.781 376.869 175.772 373.547ZM177.073 373.547C177.056 376.078 177.864 377.678 179.13 377.66C180.404 377.678 181.213 376.078 181.204 373.547C181.213 371.007 180.404 369.416 179.13 369.416C177.864 369.416 177.056 371.007 177.073 373.547ZM196.278 370.998C196.269 373.828 198.088 376.676 200.356 377.713L199.53 378.838C197.754 377.924 196.286 376.061 195.592 373.837C194.898 376.175 193.43 378.179 191.655 379.119L190.758 378.012C193.052 376.887 194.863 373.881 194.871 370.998V368.15H196.278V370.998ZM198.651 373.266V372.141H202.36V366.797H203.731V382.459H202.36V373.266H198.651ZM214.788 369.908C214.797 371.64 216.001 373.389 218.005 374.145L217.284 375.199C215.781 374.619 214.7 373.503 214.138 372.158C213.566 373.644 212.441 374.971 210.903 375.639L210.147 374.566C212.204 373.67 213.461 371.648 213.47 369.908V367.781H214.788V369.908ZM212.995 379.611C212.978 377.845 214.981 376.808 218.233 376.816C221.468 376.808 223.48 377.845 223.489 379.611C223.48 381.36 221.468 382.389 218.233 382.389C214.981 382.389 212.978 381.36 212.995 379.611ZM214.366 379.611C214.349 380.675 215.834 381.325 218.233 381.316C220.606 381.325 222.101 380.675 222.118 379.611C222.101 378.53 220.606 377.88 218.233 377.871C215.834 377.88 214.349 378.53 214.366 379.611ZM218.708 375.973V367.113H220.009V371.016H222.083V366.814H223.401V376.465H222.083V372.158H220.009V375.973H218.708ZM229.897 371.613C229.906 374.127 231.18 376.702 233.307 377.836L232.516 378.873C230.96 378.021 229.835 376.403 229.264 374.522C228.71 376.526 227.594 378.284 226.03 379.225L225.204 378.17C227.33 376.939 228.587 374.197 228.596 371.613V370.84H225.625V369.697H228.596V367.377H229.914V369.697H232.832V370.84H229.897V371.613ZM231.76 374.145V372.967H234.221V367.184H235.522V381.615H234.221V374.145H231.76ZM237.368 382.424V366.797H238.686V382.424H237.368ZM253.426 366.814V378.24H252.054V366.814H253.426ZM240.892 371.736C240.884 369.486 242.65 367.913 244.988 367.904C247.326 367.913 249.075 369.486 249.084 371.736C249.075 374.013 247.326 375.595 244.988 375.586C242.65 375.595 240.884 374.013 240.892 371.736ZM242.246 371.736C242.228 373.292 243.406 374.373 244.988 374.373C246.544 374.373 247.73 373.292 247.73 371.736C247.73 370.207 246.544 369.117 244.988 369.117C243.406 369.117 242.228 370.207 242.246 371.736ZM243.336 382.09V377.08H244.707V380.93H253.918V382.09H243.336ZM269.958 374.232V375.375H255.72V374.232H269.958ZM256.528 372.193C259.253 371.877 261.881 370.532 261.943 368.748H257.021V367.605H268.693V368.748H263.735C263.797 370.515 266.399 371.877 269.167 372.193L268.657 373.301C266.1 372.976 263.7 371.824 262.839 370.093C261.978 371.824 259.596 372.976 257.021 373.301L256.528 372.193ZM257.443 379.576C257.434 377.783 259.464 376.746 262.839 376.746C266.188 376.746 268.2 377.783 268.218 379.576C268.2 381.387 266.188 382.389 262.839 382.389C259.464 382.389 257.434 381.387 257.443 379.576ZM258.849 379.576C258.831 380.666 260.334 381.29 262.839 381.281C265.318 381.29 266.82 380.666 266.829 379.576C266.82 378.478 265.318 377.854 262.839 377.836C260.334 377.854 258.831 378.478 258.849 379.576ZM278.036 367.078C281.507 367.078 283.546 368.036 283.555 369.768C283.546 371.543 281.507 372.501 278.036 372.51C274.546 372.501 272.499 371.543 272.499 369.768C272.499 368.036 274.546 367.078 278.036 367.078ZM270.916 374.689V373.564H285.155V374.689H270.916ZM272.639 377.098V376.043H283.327V379.541H274.045V381.158H283.801V382.248H272.674V378.521H281.973V377.098H272.639ZM273.94 369.768C273.922 370.857 275.443 371.455 278.036 371.455C280.628 371.455 282.14 370.857 282.149 369.768C282.14 368.739 280.628 368.124 278.036 368.115C275.443 368.124 273.922 368.739 273.94 369.768ZM298.181 368.168V371.174H301.837V366.814H303.226V378.223H301.837V372.299H298.181V375.41H291.009V368.168H298.181ZM292.38 374.303H296.827V369.311H292.38V374.303ZM293.189 382.09V377.168H294.577V380.93H303.665V382.09H293.189ZM318.422 366.797V382.459H317.034V373.635H313.606V372.492H317.034V366.797H318.422ZM305.327 378.258C307.594 377.159 309.484 374.215 309.493 371.438V369.557H305.924V368.414H314.467V369.557H310.881V371.438C310.89 374.039 312.753 376.869 315.03 377.906L314.204 379.014C312.419 378.135 310.917 376.245 310.205 374.065C309.502 376.386 307.955 378.398 306.17 379.33L305.327 378.258ZM105.51 401.232V402.393H91.2543V401.232H105.51ZM92.977 406.576C92.9682 404.783 94.9985 403.764 98.3735 403.764C101.722 403.764 103.735 404.783 103.752 406.576C103.735 408.387 101.722 409.389 98.3735 409.389C94.9985 409.389 92.9682 408.387 92.977 406.576ZM93.0649 399.738V394.43H103.735V395.59H94.4184V398.613H103.84V399.738H93.0649ZM94.3832 406.576C94.3657 407.675 95.8686 408.299 98.3735 408.299C100.852 408.299 102.355 407.675 102.364 406.576C102.355 405.486 100.852 404.854 98.3735 404.836C95.8686 404.854 94.3657 405.486 94.3832 406.576ZM120.742 402.41V403.553H106.433V402.41H112.902V400.758H108.297V396.943H117.508V395.326H108.244V394.201H118.896V397.98H109.668V399.65H119.23V400.758H114.256V402.41H120.742ZM108.033 405.873V404.748H118.984V409.283H117.596V405.873H108.033ZM133.864 393.814V398.965H136.22V400.125H133.864V405.521H132.493V393.814H133.864ZM121.683 396.855V395.73H125.655V393.814H127.027V395.73H130.999V396.855H121.683ZM122.579 400.635C122.57 398.859 124.082 397.717 126.341 397.717C128.573 397.717 130.085 398.859 130.103 400.635C130.085 402.393 128.573 403.526 126.341 403.518C124.082 403.526 122.57 402.393 122.579 400.635ZM123.898 400.635C123.889 401.733 124.864 402.445 126.341 402.428C127.8 402.445 128.784 401.733 128.802 400.635C128.784 399.519 127.8 398.798 126.341 398.807C124.864 398.798 123.889 399.519 123.898 400.635ZM124.091 409.09V404.59H125.444V407.93H134.585V409.09H124.091ZM154.414 395.59V396.732H141.74V395.59H147.435V393.709H148.789V395.59H154.414ZM141.002 405.064V403.922H155.31V405.064H148.789V409.459H147.435V405.064H141.002ZM143.023 400.248C143.006 398.561 144.922 397.629 148.121 397.629C151.294 397.629 153.21 398.561 153.219 400.248C153.21 401.9 151.294 402.832 148.121 402.85C144.922 402.832 143.006 401.9 143.023 400.248ZM144.447 400.248C144.43 401.215 145.792 401.786 148.121 401.777C150.424 401.786 151.777 401.215 151.795 400.248C151.777 399.264 150.424 398.692 148.121 398.684C145.792 398.692 144.43 399.264 144.447 400.248ZM169.593 393.797V409.424H168.257V393.797H169.593ZM156.392 400.547C156.401 397.225 157.719 395.124 159.749 395.115C161.648 395.124 162.931 396.952 163.107 399.896H165.128V394.131H166.447V408.633H165.128V401.039H163.115C162.984 404.08 161.674 405.987 159.749 405.979C157.719 405.987 156.401 403.869 156.392 400.547ZM157.693 400.547C157.675 403.078 158.484 404.678 159.749 404.66C161.024 404.678 161.832 403.078 161.823 400.547C161.832 398.007 161.024 396.416 159.749 396.416C158.484 396.416 157.675 398.007 157.693 400.547ZM180.791 397.998C180.791 400.749 182.61 403.588 184.834 404.678L183.99 405.785C182.268 404.889 180.826 403.034 180.132 400.863C179.437 403.166 177.961 405.144 176.203 406.084L175.324 404.977C177.609 403.852 179.42 400.854 179.437 397.998V395.15H180.791V397.998ZM186.275 409.424V393.797H187.646V400.143H190.266V401.338H187.646V409.424H186.275ZM204.988 401.531V402.674H190.749V401.531H194.283V399.325C193.034 398.842 192.331 398.051 192.331 396.996C192.331 395.159 194.441 394.104 197.868 394.096C201.27 394.104 203.379 395.159 203.388 396.996C203.379 398.042 202.685 398.833 201.454 399.325V401.531H204.988ZM192.472 406.629C192.463 404.845 194.476 403.86 197.868 403.869C201.217 403.86 203.23 404.845 203.247 406.629C203.23 408.413 201.217 409.389 197.868 409.389C194.476 409.389 192.463 408.413 192.472 406.629ZM193.755 396.996C193.746 398.139 195.311 398.798 197.868 398.807C200.4 398.798 201.973 398.139 201.982 396.996C201.973 395.871 200.4 395.186 197.868 395.186C195.311 395.186 193.746 395.871 193.755 396.996ZM193.878 406.629C193.861 407.692 195.364 408.325 197.868 408.316C200.347 408.325 201.85 407.692 201.859 406.629C201.85 405.565 200.347 404.941 197.868 404.924C195.364 404.941 193.861 405.565 193.878 406.629ZM195.654 401.531H200.083V399.694C199.424 399.817 198.686 399.879 197.868 399.879C197.051 399.879 196.313 399.817 195.654 399.703V401.531ZM218.163 393.744V397.541H220.536V398.684H218.163V402.393H216.792V393.744H218.163ZM205.981 396.328V395.221H209.954V393.639H211.325V395.221H215.298V396.328H205.981ZM206.878 399.598C206.869 398.016 208.363 397.04 210.639 397.031C212.907 397.04 214.383 398.016 214.401 399.598C214.383 401.188 212.907 402.155 210.639 402.164C208.363 402.155 206.869 401.188 206.878 399.598ZM208.196 404.238V403.201H218.163V406.664H209.585V408.193H218.743V409.248H208.231V405.645H216.792V404.238H208.196ZM208.196 399.598C208.187 400.538 209.154 401.127 210.639 401.127C212.116 401.127 213.083 400.538 213.1 399.598C213.083 398.666 212.116 398.06 210.639 398.051C209.154 398.06 208.187 398.666 208.196 399.598ZM233.14 395.256C233.149 397.462 236.014 399.36 238.835 399.756L238.273 400.881C235.847 400.477 233.439 399.132 232.437 397.216C231.435 399.149 229.036 400.477 226.601 400.881L226.038 399.756C228.86 399.36 231.716 397.497 231.716 395.256V394.359H233.14V395.256ZM225.3 403.764V402.604H239.538V403.764H233.07V409.424H231.716V403.764H225.3ZM249.945 404.291C249.937 405.671 250.684 407.139 252.169 407.982C253.663 407.06 254.454 405.495 254.445 404.291V403.43H255.799V404.291C255.79 405.899 256.977 407.499 258.981 408.193L258.295 409.213C256.731 408.659 255.641 407.569 255.096 406.26C254.612 407.525 253.654 408.729 252.213 409.336C250.693 408.756 249.726 407.613 249.26 406.304C248.697 407.561 247.625 408.65 246.131 409.213L245.428 408.193C247.405 407.455 248.592 405.785 248.609 404.291V403.43H249.945V404.291ZM245.024 398.385C245.015 396.205 246.746 394.72 249.119 394.729C251.492 394.72 253.206 396.205 253.215 398.385C253.206 400.529 251.492 402.006 249.119 402.006C246.746 402.006 245.015 400.529 245.024 398.385ZM246.377 398.385C246.359 399.835 247.511 400.854 249.119 400.863C250.71 400.854 251.861 399.835 251.861 398.385C251.861 396.926 250.71 395.889 249.119 395.906C247.511 395.889 246.359 396.926 246.377 398.385ZM256.186 402.744V393.814H257.557V402.744H256.186ZM263.033 403.184V405.012H270.837V403.184H272.226V409.213H261.662V403.184H263.033ZM259.851 402.076V400.934H274.089V402.076H259.851ZM260.66 398.719C263.446 398.341 266.267 396.697 266.267 394.711V393.973H267.691V394.711C267.682 396.636 270.53 398.367 273.281 398.719L272.771 399.826C270.354 399.466 267.972 398.235 266.979 396.486C265.986 398.244 263.595 399.466 261.187 399.826L260.66 398.719ZM263.033 408.105H270.837V406.102H263.033V408.105ZM287.932 393.797V409.424H286.561V393.797H287.932ZM276.067 405.398V395.344H277.421V404.203C279.811 404.186 282.272 404.001 284.891 403.447L285.085 404.625C282.307 405.205 279.838 405.398 277.333 405.398H276.067ZM302.338 393.797V399.984H304.957V401.145H302.338V409.459H300.967V393.797H302.338ZM290.93 405.539V395.326H298.225V396.469H292.301V404.379C295.131 404.37 297.126 404.247 299.455 403.816L299.631 405.012C297.179 405.451 295.131 405.539 292.16 405.539H290.93ZM307.093 408.105C306.478 408.097 305.951 407.587 305.968 406.963C305.951 406.348 306.478 405.838 307.093 405.838C307.717 405.838 308.227 406.348 308.218 406.963C308.227 407.587 307.717 408.097 307.093 408.105Z" fill="#222222"/>
<defs>
<clipPath id="clip0_263_2253">
<rect width="60" height="60" fill="white" transform="translate(170 148)"/>
</clipPath>
</defs>
</svg>
