<svg width="380" height="291" viewBox="0 0 380 291" fill="none" xmlns="http://www.w3.org/2000/svg">
<rect x="20" width="340" height="291" rx="2" fill="white"/>
<mask id="mask0_579_800" style="mask-type:alpha" maskUnits="userSpaceOnUse" x="178" y="20" width="24" height="24">
<rect x="178" y="20" width="24" height="24" fill="#D9D9D9"/>
</mask>
<g mask="url(#mask0_579_800)">
<path d="M197.44 40.5C195.556 40.5 193.663 40.0618 191.76 39.1855C189.859 38.3092 188.11 37.073 186.514 35.477C184.924 33.8808 183.691 32.1333 182.815 30.2345C181.938 28.3358 181.5 26.4443 181.5 24.5598C181.5 24.2598 181.6 24.0081 181.8 23.8048C182 23.6016 182.25 23.5 182.55 23.5H185.812C186.064 23.5 186.287 23.5824 186.48 23.7473C186.673 23.9119 186.796 24.1154 186.848 24.3577L187.421 27.3C187.461 27.573 187.453 27.8076 187.396 28.0038C187.34 28.1999 187.238 28.3647 187.092 28.498L184.783 30.7462C185.154 31.4269 185.579 32.0708 186.057 32.678C186.534 33.285 187.051 33.8648 187.608 34.4173C188.156 34.9661 188.74 35.4757 189.358 35.9462C189.976 36.4167 190.643 36.8546 191.36 37.2598L193.604 34.9963C193.76 34.8334 193.95 34.7193 194.172 34.6538C194.395 34.5884 194.626 34.5724 194.866 34.6058L197.642 35.1713C197.895 35.2379 198.101 35.3667 198.26 35.5577C198.42 35.7487 198.5 35.9654 198.5 36.2078V39.45C198.5 39.75 198.398 40 198.195 40.2C197.992 40.4 197.74 40.5 197.44 40.5Z" fill="#02837B"/>
</g>
<path d="M112.912 80.5938V82.5488H95.1658V80.5938H102.814V76.3613H97.1209V66.9941H110.871V76.3613H105.178V80.5938H112.912ZM99.4627 74.4922H108.508V68.9062H99.4627V74.4922ZM128.95 65.4902V72.8809H131.937V74.9004H128.95V84.9121H126.566V65.4902H128.95ZM114.427 80.3574V67.0801H116.79V71.9355H121.366V67.0801H123.751V80.3574H114.427ZM116.79 78.4023H121.366V73.8047H116.79V78.4023ZM137.813 66.1133C140.757 66.124 142.948 67.9395 142.969 70.4961C142.948 73.0635 140.757 74.8682 137.813 74.8789C134.848 74.8682 132.657 73.0635 132.657 70.4961C132.657 67.9395 134.848 66.124 137.813 66.1133ZM134.977 70.4961C134.977 72 136.18 72.9453 137.813 72.9453C139.446 72.9453 140.638 72 140.649 70.4961C140.638 69.0244 139.446 68.0791 137.813 68.0898C136.18 68.0791 134.977 69.0244 134.977 70.4961ZM135.6 78.0156V76.1465H148.491V81.2168H137.985V82.7852H149.071V84.6758H135.643V79.4551H146.106V78.0156H135.6ZM146.085 75.3086V65.4902H148.491V75.3086H146.085ZM171.931 65.5117V79.7559H169.546V73.2246H165.808V71.248H169.546V65.5117H171.931ZM155.925 75.8027C160.104 74.4814 162.865 72 163.327 68.9277H156.935V66.9727H165.937C165.937 72.0967 162.553 75.9209 156.935 77.7148L155.925 75.8027ZM159.277 84.5254V78.3164H161.705V82.5918H172.425V84.5254H159.277ZM189.56 65.4902V70.2168H192.267V72.1719H189.56V76.877H187.175V65.4902H189.56ZM174.177 75.2441C178.57 74.041 181.191 71.667 181.6 68.7559H175.058V66.8223H184.188C184.199 71.9248 180.869 75.5557 175.122 77.1777L174.177 75.2441ZM176.798 81.002C176.776 78.6064 179.376 77.1133 183.286 77.1133C187.229 77.1133 189.774 78.6064 189.774 81.002C189.774 83.4189 187.229 84.9014 183.286 84.8906C179.376 84.9014 176.776 83.4189 176.798 81.002ZM179.161 81.002C179.15 82.2695 180.719 83.0215 183.286 83.0215C185.843 83.0215 187.422 82.2695 187.433 81.002C187.422 79.7236 185.843 78.9824 183.286 78.9824C180.719 78.9824 179.15 79.7236 179.161 81.002ZM210.561 80.6152V82.5703H192.815V80.6152H200.463V76.834H194.77V66.7793H197.155V69.959H206.157V66.7793H208.541V76.834H202.827V80.6152H210.561ZM197.155 74.9004H206.157V71.8711H197.155V74.9004ZM227.652 65.4902V77.2422H225.267V73.2246H222.496V71.248H225.267V65.4902H227.652ZM211.432 69.2285V67.2949H215.943V65.3398H218.307V67.2949H222.818V69.2285H211.432ZM212.527 73.4609C212.516 71.4199 214.439 69.9805 217.125 69.9805C219.832 69.9805 221.733 71.4199 221.744 73.4609C221.733 75.5557 219.832 76.9414 217.125 76.9414C214.439 76.9414 212.516 75.5557 212.527 73.4609ZM214.74 84.6758V78.123H227.652V84.6758H214.74ZM214.805 73.4609C214.805 74.5352 215.728 75.1582 217.125 75.1582C218.511 75.1582 219.445 74.5352 219.445 73.4609C219.445 72.4189 218.511 71.7852 217.125 71.7852C215.728 71.7852 214.805 72.4189 214.805 73.4609ZM217.125 82.7422H225.31V80.0137H217.125V82.7422ZM247.665 74.5352V76.4688H229.962V74.5352H247.665ZM230.822 71.7852C234.42 71.4307 236.762 69.9912 237.127 68.3691H231.574V66.4141H246.076V68.3691H240.468C240.823 69.9697 243.143 71.4307 246.827 71.7852L245.99 73.6758C242.455 73.3105 239.845 71.9033 238.792 69.9375C237.74 71.9033 235.161 73.3105 231.638 73.6758L230.822 71.7852ZM232.025 81.3242C232.025 79.0684 234.571 77.7578 238.792 77.7578C242.982 77.7578 245.506 79.0684 245.517 81.3242C245.506 83.6123 242.982 84.8906 238.792 84.8906C234.571 84.8906 232.025 83.6123 232.025 81.3242ZM234.452 81.3242C234.442 82.4521 235.967 83.0107 238.792 83.0215C241.575 83.0107 243.111 82.4521 243.132 81.3242C243.111 80.1963 241.575 79.627 238.792 79.627C235.967 79.627 234.442 80.1963 234.452 81.3242ZM265.036 65.6406V84.7402H263.403V65.6406H265.036ZM248.901 73.8906C248.912 69.8301 250.523 67.2627 253.005 67.252C255.325 67.2627 256.893 69.4971 257.108 73.0957H259.579V66.0488H261.19V83.7734H259.579V74.4922H257.119C256.958 78.209 255.357 80.54 253.005 80.5293C250.523 80.54 248.912 77.9512 248.901 73.8906ZM250.491 73.8906C250.469 76.9844 251.458 78.9395 253.005 78.918C254.562 78.9395 255.551 76.9844 255.54 73.8906C255.551 70.7861 254.562 68.8418 253.005 68.8418C251.458 68.8418 250.469 70.7861 250.491 73.8906ZM273.963 70.7754C273.952 74.2344 276.176 77.7148 278.947 78.9824L277.938 80.3574C275.768 79.2402 273.974 76.9629 273.125 74.2451C272.277 77.1025 270.483 79.5518 268.313 80.7012L267.217 79.3477C270.021 77.9727 272.234 74.2988 272.244 70.7754V67.2949H273.963V70.7754ZM276.863 73.5469V72.1719H281.397V65.6406H283.072V84.7832H281.397V73.5469H276.863ZM108.438 96.6621V110.67H106.74V103.344H102.809V101.947H106.74V96.6621H108.438ZM92.6895 106.846C95.504 105.857 97.545 103.333 97.545 100.594V99.6055H93.2266V98.209H103.518V99.6055H99.2423V100.594C99.2423 103.064 101.154 105.46 103.947 106.416L103.066 107.77C100.918 106.985 99.253 105.385 98.4259 103.408C97.5987 105.621 95.837 107.372 93.5704 108.221L92.6895 106.846ZM96.17 115.332V109.402H97.8673V113.914H108.975V115.332H96.17ZM126.001 96.6406V104.783H129.052V106.201H126.001V115.74H124.304V96.6406H126.001ZM110.941 110.648C112.499 110.648 114.314 110.638 116.205 110.584V108.479C113.981 108.221 112.531 106.91 112.552 105.02C112.531 102.86 114.357 101.464 117.064 101.475C119.728 101.464 121.586 102.86 121.597 105.02C121.586 106.921 120.115 108.221 117.902 108.479V110.52C119.674 110.434 121.479 110.283 123.144 110.047L123.251 111.336C119.084 112.045 114.572 112.088 111.22 112.088L110.941 110.648ZM111.285 100.357V98.9824H116.205V96.6836H117.902V98.9824H122.8V100.357H111.285ZM114.121 105.02C114.131 106.341 115.292 107.211 117.064 107.189C118.804 107.211 119.975 106.341 119.986 105.02C119.975 103.688 118.804 102.785 117.064 102.785C115.292 102.785 114.131 103.688 114.121 105.02ZM147.218 105.514V106.846H129.729V105.514H147.218ZM131.835 109.639V108.371H145.026V112.432H133.554V114.258H145.649V115.482H131.856V111.271H143.351V109.639H131.835ZM131.942 98.4453V97.2207H144.962V101.174H133.683V102.85H145.306V104.074H132.007V100.014H143.265V98.4453H131.942ZM169.24 96.6406V106.459H167.543V102.656H163.31V101.26H167.543V96.6406H169.24ZM153.707 105.471C158.283 104.364 161.033 102.055 161.366 98.9824H154.695V97.5859H163.16C163.16 102.334 159.808 105.481 154.308 106.867L153.707 105.471ZM156.865 108.65V107.275H169.24V111.938H158.584V114.172H169.885V115.568H156.908V110.648H167.543V108.65H156.865ZM187.298 98.5742V100.486C187.277 102.828 187.277 105.449 186.589 109.295L184.87 109.102C185.59 105.449 185.59 102.774 185.601 100.486V99.9707H173.827V98.5742H187.298ZM171.98 113.033V111.637H178.812V104.805H180.466V111.637H189.382V113.033H171.98ZM206.227 98.123V99.1328C206.216 100.39 206.216 102.291 205.733 104.783L204.035 104.654C204.497 102.377 204.54 100.755 204.562 99.541H196.709V98.123H206.227ZM195.527 106.566C196.763 106.566 198.159 106.556 199.631 106.513V102.355H201.307V106.459C203.423 106.373 205.614 106.223 207.602 105.943L207.709 107.189C203.702 107.877 199.105 107.952 195.699 107.963L195.527 106.566ZM198.471 115.332V109.725H200.168V113.914H211.233V115.332H198.471ZM208.891 111.014V96.6406H210.61V102.871H213.402V104.311H210.61V111.014H208.891ZM229.978 96.6406V115.783H228.302V96.6406H229.978ZM215.283 99.8203V98.4238H224.177V105.213H217.045V109.725C220.213 109.735 223.039 109.585 226.455 109.037L226.627 110.455C223.114 111.003 220.213 111.143 216.916 111.143H215.326V103.838H222.48V99.8203H215.283ZM247.564 96.6406V104.525H250.765V105.922H247.564V115.74H245.888V96.6406H247.564ZM232.675 101.109V99.7129H237.595V96.877H239.271V99.7129H244.04V101.109H232.675ZM233.771 107.082C233.76 104.504 235.736 102.699 238.454 102.699C241.15 102.699 243.116 104.504 243.138 107.082C243.116 109.671 241.15 111.465 238.454 111.465C235.736 111.465 233.76 109.671 233.771 107.082ZM235.382 107.082C235.371 108.822 236.671 110.047 238.454 110.025C240.216 110.047 241.505 108.822 241.526 107.082C241.505 105.353 240.216 104.106 238.454 104.117C236.671 104.106 235.371 105.353 235.382 107.082ZM266.782 105.6V106.975H260.874V111.916H268.844V113.334H251.356V111.916H259.219V106.975H253.59V98.209H266.588V99.584H255.288V105.6H266.782ZM287.396 107.168V108.564H269.908V107.168H277.814V105.148H272.185V100.486H283.443V98.5098H272.121V97.1348H285.141V101.754H273.861V103.795H285.549V105.148H279.469V107.168H287.396ZM271.863 111.4V110.025H285.248V115.568H283.551V111.4H271.863ZM122.57 130.713V132.109H111.204V130.713H116.038V127.877H117.714V130.713H122.57ZM112.386 138.082C112.386 135.515 114.287 133.699 116.898 133.699C119.487 133.699 121.366 135.515 121.388 138.082C121.366 140.628 119.487 142.465 116.898 142.465C114.287 142.465 112.386 140.628 112.386 138.082ZM113.976 138.082C113.954 139.801 115.222 141.015 116.898 141.004C118.573 141.015 119.83 139.801 119.841 138.082C119.83 136.385 118.573 135.149 116.898 135.139C115.222 135.149 113.954 136.385 113.976 138.082ZM122.161 137.094V135.676H125.363V127.641H127.038V146.74H125.363V137.094H122.161ZM147.18 137.094V138.49H129.778V137.094H134.096V134.397C132.571 133.807 131.712 132.84 131.712 131.551C131.712 129.306 134.29 128.017 138.479 128.006C142.636 128.017 145.215 129.306 145.225 131.551C145.215 132.829 144.366 133.796 142.862 134.397V137.094H147.18ZM131.883 143.324C131.873 141.144 134.333 139.94 138.479 139.951C142.572 139.94 145.032 141.144 145.053 143.324C145.032 145.505 142.572 146.697 138.479 146.697C134.333 146.697 131.873 145.505 131.883 143.324ZM133.452 131.551C133.441 132.947 135.353 133.753 138.479 133.764C141.573 133.753 143.496 132.947 143.507 131.551C143.496 130.176 141.573 129.338 138.479 129.338C135.353 129.338 133.441 130.176 133.452 131.551ZM133.602 143.324C133.581 144.624 135.418 145.397 138.479 145.387C141.508 145.397 143.345 144.624 143.356 143.324C143.345 142.024 141.508 141.262 138.479 141.24C135.418 141.262 133.581 142.024 133.602 143.324ZM135.772 137.094H141.186V134.849C140.381 134.999 139.478 135.074 138.479 135.074C137.48 135.074 136.578 134.999 135.772 134.859V137.094ZM163.133 127.641V135.525H166.334V136.922H163.133V146.74H161.457V127.641H163.133ZM148.244 132.109V130.713H153.164V127.877H154.84V130.713H159.609V132.109H148.244ZM149.34 138.082C149.329 135.504 151.306 133.699 154.024 133.699C156.72 133.699 158.686 135.504 158.707 138.082C158.686 140.671 156.72 142.465 154.024 142.465C151.306 142.465 149.329 140.671 149.34 138.082ZM150.951 138.082C150.941 139.822 152.24 141.047 154.024 141.025C155.785 141.047 157.074 139.822 157.096 138.082C157.074 136.353 155.785 135.106 154.024 135.117C152.24 135.106 150.941 136.353 150.951 138.082ZM173.714 132.775C173.704 136.267 176.078 139.769 178.892 141.047L177.861 142.379C175.68 141.326 173.8 139.06 172.887 136.342C172.006 139.221 170.127 141.638 167.892 142.766L166.818 141.348C169.665 140.048 172.017 136.396 172.039 132.775V129.295H173.714V132.775ZM180.976 146.783V127.641H182.673V146.783H180.976ZM193.964 129.059C193.964 130.53 193.695 131.873 193.169 133.098H196.263V128.07H197.874V138.404H196.263V134.494H192.417C191.171 136.406 189.205 137.942 186.573 139.07L185.692 137.824C189.613 136.224 191.88 133.688 192.224 130.455H186.509V129.059H193.964ZM186.638 145.43C189.044 144.56 190.548 142.476 190.548 140.639V139.35H192.159V140.639C192.138 142.357 193.051 144.141 194.855 145.183C196.692 144.033 197.627 142.089 197.638 140.639V139.35H199.271V140.639C199.271 142.615 200.721 144.624 203.181 145.43L202.343 146.676C200.431 145.999 199.088 144.656 198.433 143.045C197.853 144.603 196.692 146.085 194.909 146.848C193.04 146.117 191.88 144.688 191.321 143.077C190.634 144.635 189.312 145.978 187.497 146.676L186.638 145.43ZM200.108 138.705V127.662H201.72V138.705H200.108ZM207.961 139.113V141.348H217.5V139.113H219.198V146.482H206.286V139.113H207.961ZM204.073 137.76V136.363H221.475V137.76H204.073ZM205.061 133.656C208.466 133.194 211.914 131.186 211.914 128.758V127.855H213.655V128.758C213.644 131.11 217.124 133.227 220.487 133.656L219.864 135.01C216.91 134.569 213.998 133.065 212.785 130.928C211.571 133.076 208.649 134.569 205.706 135.01L205.061 133.656ZM207.961 145.129H217.5V142.68H207.961V145.129ZM238.394 127.641V146.74H236.719V127.641H238.394ZM223.892 141.82V129.531H225.547V140.359C228.469 140.338 231.476 140.112 234.678 139.436L234.914 140.875C231.519 141.584 228.501 141.82 225.439 141.82H223.892ZM256.345 127.641V135.525H259.245V136.943H256.345V146.74H254.648V127.641H256.345ZM241.156 141.455C244.034 138.501 245.205 134.945 245.42 131.143H241.757V129.725H247.021C246.999 134.269 245.979 138.759 242.509 142.422L241.156 141.455ZM246.634 142.744C249.62 139.371 250.512 135.128 250.673 131.143H247.622V129.725H252.263C252.252 134.258 251.586 139.532 248.009 143.689L246.634 142.744ZM262.844 140.51C262.866 137.631 263.747 136.75 265.229 135.848C266.121 135.311 266.798 134.451 266.798 133.248C266.798 131.787 265.659 130.853 264.241 130.863C263.016 130.853 261.781 131.583 261.663 133.355H259.708C259.815 130.745 261.781 129.23 264.241 129.23C266.937 129.23 268.688 130.96 268.688 133.334C268.688 135.021 267.893 136.191 266.561 137.008C265.219 137.824 264.735 138.651 264.692 140.51V140.617H262.844V140.51ZM262.458 143.732C262.436 142.98 263.081 142.357 263.833 142.357C264.595 142.357 265.219 142.98 265.208 143.732C265.219 144.495 264.595 145.118 263.833 145.129C263.081 145.118 262.436 144.495 262.458 143.732Z" fill="black"/>
<mask id="path-5-inside-1_579_800" fill="white">
<path d="M20 179H360V235H20V179Z"/>
</mask>
<path d="M20 180H360V178H20V180Z" fill="#DDDDDD" mask="url(#path-5-inside-1_579_800)"/>
<path d="M184.828 202.609V203.625H176.562V202.609H180.078V200.547H181.297V202.609H184.828ZM177.422 207.969C177.422 206.102 178.805 204.781 180.703 204.781C182.586 204.781 183.953 206.102 183.969 207.969C183.953 209.82 182.586 211.156 180.703 211.156C178.805 211.156 177.422 209.82 177.422 207.969ZM178.578 207.969C178.562 209.219 179.484 210.102 180.703 210.094C181.922 210.102 182.836 209.219 182.844 207.969C182.836 206.734 181.922 205.836 180.703 205.828C179.484 205.836 178.562 206.734 178.578 207.969ZM184.531 207.25V206.219H186.859V200.375H188.078V214.266H186.859V207.25H184.531ZM202.727 207.25V208.266H190.071V207.25H193.211V205.289C192.102 204.859 191.477 204.156 191.477 203.219C191.477 201.586 193.352 200.648 196.399 200.641C199.422 200.648 201.297 201.586 201.305 203.219C201.297 204.148 200.68 204.852 199.586 205.289V207.25H202.727ZM191.602 211.781C191.594 210.195 193.383 209.32 196.399 209.328C199.375 209.32 201.164 210.195 201.18 211.781C201.164 213.367 199.375 214.234 196.399 214.234C193.383 214.234 191.594 213.367 191.602 211.781ZM192.743 203.219C192.735 204.234 194.125 204.82 196.399 204.828C198.649 204.82 200.047 204.234 200.055 203.219C200.047 202.219 198.649 201.609 196.399 201.609C194.125 201.609 192.735 202.219 192.743 203.219ZM192.852 211.781C192.836 212.727 194.172 213.289 196.399 213.281C198.602 213.289 199.938 212.727 199.946 211.781C199.938 210.836 198.602 210.281 196.399 210.266C194.172 210.281 192.836 210.836 192.852 211.781ZM194.43 207.25H198.368V205.617C197.782 205.727 197.125 205.781 196.399 205.781C195.672 205.781 195.016 205.727 194.43 205.625V207.25Z" fill="#02837B"/>
<mask id="path-8-inside-2_579_800" fill="white">
<path d="M20 235H360V291H20V235Z"/>
</mask>
<path d="M20 236H360V234H20V236Z" fill="#DDDDDD" mask="url(#path-8-inside-2_579_800)"/>
<path d="M188.062 256.375V270.266H186.844V262.984H183.531V261.969H186.844V256.375H188.062ZM176.578 266.641C180.336 264.82 182.078 262.141 182.328 258.891H177.188V257.891H183.562C183.555 261.828 181.891 265.32 177.25 267.625L176.578 266.641ZM202.774 264.625V265.625H196.977V270.266H195.774V265.625H190.055V264.625H202.774ZM191.68 262.938V256.953H192.899V258.875H199.899V256.953H201.133V262.938H191.68ZM192.899 261.938H199.899V259.875H192.899V261.938Z" fill="#02837B"/>
</svg>
