<svg width="450" height="851" viewBox="0 0 450 851" fill="none" xmlns="http://www.w3.org/2000/svg">
<rect width="450" height="851" fill="white"/>
<rect width="450" height="58" fill="white"/>
<mask id="mask0_263_2064" style="mask-type:alpha" maskUnits="userSpaceOnUse" x="14" y="17" width="24" height="24">
<rect x="14" y="17" width="24" height="24" fill="#D9D9D9"/>
</mask>
<g mask="url(#mask0_263_2064)">
<path d="M23.0152 28.9994L30.248 36.2321C30.43 36.4141 30.5227 36.6397 30.526 36.9089C30.5292 37.1782 30.4397 37.4039 30.2577 37.5859C30.0756 37.7679 29.8499 37.8589 29.5807 37.8589C29.3116 37.8589 29.0859 37.7679 28.9038 37.5859L21.4578 30.1301C21.2936 29.9659 21.1762 29.7884 21.1057 29.5974C21.0352 29.4064 21 29.207 21 28.9994C21 28.7917 21.0352 28.5924 21.1057 28.4014C21.1762 28.2104 21.2936 28.0328 21.4578 27.8686L28.9038 20.4224C29.0859 20.2404 29.31 20.1478 29.576 20.1446C29.842 20.1414 30.066 20.2309 30.248 20.4129C30.43 20.5949 30.521 20.8205 30.521 21.0899C30.521 21.359 30.43 21.5846 30.248 21.7666L23.0152 28.9994Z" fill="#222222"/>
</g>
<path d="M168.06 106.24V132.549H165.277V106.24H168.06ZM147.786 126.25V108.438H150.57V115.176H157.63V108.438H160.384V126.25H147.786ZM150.57 123.965H157.63V117.373H150.57V123.965ZM185.507 107.646V118.457H173.026V107.646H185.507ZM175.751 116.289H182.753V109.902H175.751V116.289ZM176.161 123.115V120.947H193.388V127.48H178.944V130H194.237V132.227H176.22V125.459H190.663V123.115H176.161ZM190.634 119.688V106.24H193.388V119.688H190.634ZM218.862 106.27V125.664H216.079V115.762H210.336V121.299H198.237V107.998H201.02V112.451H207.582V107.998H210.336V113.506H216.079V106.27H218.862ZM201.02 119.043H207.582V114.59H201.02V119.043ZM201.723 131.934V123.76H204.536V129.678H219.448V131.934H201.723ZM245.039 109.932V112.188H223.447V109.932H232.881V106.621H235.635V109.932H245.039ZM222.305 129.531V127.275H232.881V123.804C228.281 123.511 225.483 121.694 225.498 118.779C225.483 115.615 228.838 113.755 234.258 113.77C239.604 113.755 243.003 115.615 242.988 118.779C243.003 121.694 240.176 123.511 235.635 123.804V127.275H246.328V129.531H222.305ZM228.34 118.779C228.311 120.61 230.508 121.606 234.258 121.621C237.949 121.606 240.161 120.61 240.146 118.779C240.161 116.963 237.949 115.967 234.258 115.967C230.508 115.967 228.311 116.963 228.34 118.779ZM275.011 106.27V114.062H278.761V116.348H275.011V123.936H272.228V106.27H275.011ZM254.181 121.006C256.217 121.006 258.575 121.006 261.036 120.947V119.175C258.048 118.838 256.144 117.432 256.173 115.322C256.144 112.92 258.649 111.426 262.413 111.455C266.178 111.426 268.639 112.92 268.654 115.322C268.639 117.417 266.779 118.823 263.82 119.175V120.845C266.163 120.728 268.536 120.537 270.734 120.215L270.968 122.207C265.328 123.188 259.103 123.232 254.474 123.232L254.181 121.006ZM254.855 110.576V108.496H261.036V106.035H263.82V108.496H270.001V110.576H254.855ZM257.462 127.334V125.166H275.011V132.49H272.228V127.334H257.462ZM258.81 115.322C258.81 116.553 260.172 117.358 262.413 117.344C264.625 117.358 266.002 116.553 265.988 115.322C266.002 114.062 264.625 113.33 262.413 113.359C260.172 113.33 258.81 114.062 258.81 115.322ZM301.452 106.27V125.342H298.669V106.27H301.452ZM280.212 114.531C280.226 110.737 283.244 108.042 287.214 108.027C291.169 108.042 294.186 110.737 294.186 114.531C294.186 118.384 291.169 121.064 287.214 121.064C283.244 121.064 280.226 118.384 280.212 114.531ZM282.936 114.531C282.922 117.007 284.767 118.633 287.214 118.633C289.616 118.633 291.462 117.007 291.462 114.531C291.462 112.114 289.616 110.459 287.214 110.459C284.767 110.459 282.922 112.114 282.936 114.531ZM284.284 131.934V123.408H287.096V129.678H302.243V131.934H284.284Z" fill="#222222"/>
<circle cx="153" cy="186" r="12" fill="#444444"/>
<circle cx="201" cy="186" r="12" fill="#444444"/>
<circle cx="249" cy="186" r="12" fill="#D9D9D9"/>
<circle cx="297" cy="186" r="12" fill="#D9D9D9"/>
<path d="M169.916 227.887C169.916 230.943 171.937 234.098 174.408 235.309L173.47 236.539C171.556 235.543 169.955 233.482 169.183 231.07C168.412 233.629 166.771 235.826 164.818 236.871L163.841 235.641C166.38 234.391 168.392 231.061 168.412 227.887V224.723H169.916V227.887ZM176.009 240.582V223.219H177.533V230.27H180.443V231.598H177.533V240.582H176.009ZM196.801 231.812V233.082H180.98V231.812H184.906V229.361C183.52 228.824 182.738 227.945 182.738 226.773C182.738 224.732 185.082 223.561 188.891 223.551C192.67 223.561 195.014 224.732 195.023 226.773C195.014 227.936 194.242 228.814 192.875 229.361V231.812H196.801ZM182.895 237.477C182.885 235.494 185.121 234.4 188.891 234.41C192.611 234.4 194.848 235.494 194.867 237.477C194.848 239.459 192.611 240.543 188.891 240.543C185.121 240.543 182.885 239.459 182.895 237.477ZM184.32 226.773C184.311 228.043 186.049 228.775 188.891 228.785C191.703 228.775 193.451 228.043 193.461 226.773C193.451 225.523 191.703 224.762 188.891 224.762C186.049 224.762 184.311 225.523 184.32 226.773ZM184.457 237.477C184.438 238.658 186.107 239.361 188.891 239.352C191.645 239.361 193.314 238.658 193.324 237.477C193.314 236.295 191.645 235.602 188.891 235.582C186.107 235.602 184.438 236.295 184.457 237.477ZM186.43 231.812H191.352V229.771C190.619 229.908 189.799 229.977 188.891 229.977C187.982 229.977 187.162 229.908 186.43 229.781V231.812ZM211.44 223.16V227.379H214.077V228.648H211.44V232.77H209.916V223.16H211.44ZM197.905 226.031V224.801H202.319V223.043H203.842V224.801H208.256V226.031H197.905ZM198.901 229.664C198.891 227.906 200.551 226.822 203.08 226.812C205.6 226.822 207.241 227.906 207.26 229.664C207.241 231.432 205.6 232.506 203.08 232.516C200.551 232.506 198.891 231.432 198.901 229.664ZM200.366 234.82V233.668H211.44V237.516H201.909V239.215H212.084V240.387H200.405V236.383H209.916V234.82H200.366ZM200.366 229.664C200.356 230.709 201.43 231.363 203.08 231.363C204.721 231.363 205.795 230.709 205.815 229.664C205.795 228.629 204.721 227.955 203.08 227.945C201.43 227.955 200.356 228.629 200.366 229.664ZM233.687 223.219V240.621H232.144V223.219H233.687ZM220.386 236.422V224.703H221.909V229.293H227.085V224.703H228.589V236.422H220.386ZM221.909 235.133H227.085V230.523H221.909V235.133ZM245.318 224.195V231.266H237.173V224.195H245.318ZM238.677 230.055H243.814V225.445H238.677V230.055ZM239.302 234.273V233.043H250.572V237.184H240.845V239.137H251.197V240.387H239.322V236.051H249.068V234.273H239.302ZM249.068 232.184V223.219H250.572V232.184H249.068ZM267.535 223.238V236.09H265.992V229.41H261.891V233.121H254.02V224.391H255.543V227.477H260.387V224.391H261.891V228.121H265.992V223.238H267.535ZM255.543 231.852H260.387V228.688H255.543V231.852ZM256.305 240.211V234.82H257.848V238.922H267.926V240.211H256.305ZM285.026 225.797V227.066H270.807V225.797H277.174V223.512H278.678V225.797H285.026ZM270.026 238.551V237.281H277.174V234.84C274.079 234.674 272.213 233.473 272.233 231.52C272.213 229.459 274.391 228.238 277.936 228.258C281.432 228.238 283.649 229.459 283.639 231.52C283.649 233.473 281.745 234.674 278.678 234.84V237.281H285.924V238.551H270.026ZM273.776 231.52C273.756 232.838 275.348 233.6 277.936 233.609C280.495 233.6 282.086 232.838 282.077 231.52C282.086 230.23 280.495 229.469 277.936 229.469C275.348 229.469 273.756 230.23 273.776 231.52ZM128.352 264.109V262.664L134.719 252.859H136.887V262.566H138.86V264.109H136.887V267H135.207V264.109H128.352ZM130.246 262.566H135.207V255.086H135.032L130.246 262.449V262.566ZM146.038 256.551C146.018 259.334 148.03 262.4 150.55 263.602L149.671 264.812C147.718 263.855 146.067 261.805 145.286 259.451C144.485 262 142.747 264.246 140.804 265.242L139.866 264.031C142.366 262.811 144.514 259.51 144.534 256.551V254.285H140.491V253.016H149.944V254.285H146.038V256.551ZM152.073 268.582V251.219H153.596V258.25H156.507V259.559H153.596V268.582H152.073ZM171.38 251.219V268.621H169.857V251.219H171.38ZM158.021 254.109V252.84H166.107V259.012H159.622V263.113C162.503 263.123 165.071 262.986 168.177 262.488L168.333 263.777C165.14 264.275 162.503 264.402 159.505 264.402H158.06V257.762H164.564V254.109H158.021ZM189.808 259.285V260.496H173.91V259.285H189.808ZM175.824 263.035V261.883H187.816V265.574H177.386V267.234H188.382V268.348H175.843V264.52H186.293V263.035H175.824ZM175.921 252.859V251.746H187.757V255.34H177.504V256.863H188.07V257.977H175.98V254.285H186.214V252.859H175.921ZM208.871 251.219V258.094H211.782V259.383H208.871V268.621H207.348V251.219H208.871ZM196.196 264.266V252.918H204.301V254.188H197.719V262.977C200.864 262.967 203.08 262.83 205.668 262.352L205.864 263.68C203.139 264.168 200.864 264.266 197.563 264.266H196.196ZM218.491 255.887C218.481 259.061 220.639 262.244 223.198 263.406L222.261 264.617C220.278 263.66 218.569 261.6 217.739 259.129C216.938 261.746 215.229 263.943 213.198 264.969L212.221 263.68C214.809 262.498 216.948 259.178 216.968 255.887V252.723H218.491V255.887ZM225.093 268.621V251.219H226.636V268.621H225.093ZM248.16 251.219V260.535H246.636V251.219H248.16ZM234.234 256.062C234.224 253.689 236.148 252.059 238.785 252.078C241.421 252.059 243.326 253.689 243.336 256.062C243.326 258.426 241.421 260.057 238.785 260.047C236.148 260.057 234.224 258.426 234.234 256.062ZM235.738 256.062C235.718 257.645 236.998 258.768 238.785 258.777C240.552 258.768 241.832 257.645 241.832 256.062C241.832 254.471 240.552 253.357 238.785 253.367C236.998 253.357 235.718 254.471 235.738 256.062ZM236.91 268.348V261.414H238.433V263.523H246.636V261.414H248.16V268.348H236.91ZM238.433 267.098H246.636V264.754H238.433V267.098ZM258.951 252.293V257.156H252.975V259.852C256.236 259.861 257.926 259.793 259.967 259.422L260.123 260.691C257.965 261.043 256.197 261.102 252.682 261.102H251.451V255.984H257.428V253.523H251.412V252.293H258.951ZM253.404 264.09V262.84H265.104V268.621H263.561V264.09H253.404ZM260.104 258.68V257.41H263.561V255.066H260.104V253.816H263.561V251.238H265.104V261.902H263.561V258.68H260.104ZM281.032 251.219V258.387H283.942V259.656H281.032V268.582H279.508V251.219H281.032ZM267.496 255.281V254.012H271.969V251.434H273.493V254.012H277.829V255.281H267.496ZM268.493 260.711C268.483 258.367 270.28 256.727 272.75 256.727C275.202 256.727 276.989 258.367 277.008 260.711C276.989 263.064 275.202 264.695 272.75 264.695C270.28 264.695 268.483 263.064 268.493 260.711ZM269.957 260.711C269.948 262.293 271.129 263.406 272.75 263.387C274.352 263.406 275.524 262.293 275.543 260.711C275.524 259.139 274.352 258.006 272.75 258.016C271.129 258.006 269.948 259.139 269.957 260.711ZM289.636 256.16C289.636 258.924 290.983 261.902 293.288 263.27L292.409 264.461C290.729 263.445 289.528 261.59 288.923 259.471C288.288 261.785 286.999 263.777 285.261 264.832L284.284 263.68C286.686 262.273 288.151 259.197 288.151 256.219V252.859H289.636V256.16ZM291.374 258.758V257.449H294.323V251.59H295.768V267.703H294.323V258.758H291.374ZM297.878 268.582V251.219H299.362V268.582H297.878ZM317.263 265.066V266.355H301.364V265.066H305.31V260.389C303.825 259.617 302.927 258.367 302.927 256.785C302.927 254.1 305.564 252.332 309.275 252.312C312.986 252.332 315.622 254.1 315.622 256.785C315.622 258.338 314.753 259.568 313.318 260.34V265.066H317.263ZM304.411 256.785C304.402 258.729 306.423 260.027 309.275 260.027C312.097 260.027 314.138 258.729 314.138 256.785C314.138 254.842 312.097 253.562 309.275 253.582C306.423 253.562 304.402 254.842 304.411 256.785ZM306.814 265.066H311.775V260.936C311.023 261.131 310.183 261.238 309.275 261.238C308.386 261.238 307.556 261.141 306.814 260.945V265.066ZM320.086 267.117C319.402 267.107 318.816 266.541 318.836 265.848C318.816 265.164 319.402 264.598 320.086 264.598C320.779 264.598 321.345 265.164 321.336 265.848C321.345 266.541 320.779 267.107 320.086 267.117Z" fill="#222222"/>
<path d="M28.406 402.156V396.36H29.594V402.156H28.406ZM29 395.532C28.76 395.532 28.58 395.472 28.46 395.352C28.34 395.232 28.28 395.058 28.28 394.83C28.28 394.59 28.34 394.416 28.46 394.308C28.58 394.188 28.76 394.128 29 394.128C29.192 394.128 29.354 394.188 29.486 394.308C29.63 394.416 29.702 394.59 29.702 394.83C29.702 395.07 29.63 395.25 29.486 395.37C29.354 395.478 29.192 395.532 29 395.532ZM29 405.99C27.98 405.99 27.02 405.798 26.12 405.414C25.22 405.03 24.428 404.502 23.744 403.83C23.072 403.146 22.544 402.354 22.16 401.454C21.776 400.554 21.584 399.594 21.584 398.574C21.584 397.542 21.776 396.582 22.16 395.694C22.544 394.794 23.072 394.008 23.744 393.336C24.428 392.652 25.22 392.118 26.12 391.734C27.02 391.35 27.98 391.158 29 391.158C30.032 391.158 30.992 391.35 31.88 391.734C32.78 392.118 33.566 392.652 34.238 393.336C34.922 394.008 35.456 394.794 35.84 395.694C36.224 396.582 36.416 397.542 36.416 398.574C36.416 399.594 36.224 400.554 35.84 401.454C35.456 402.354 34.922 403.146 34.238 403.83C33.566 404.502 32.78 405.03 31.88 405.414C30.992 405.798 30.032 405.99 29 405.99ZM29 404.982C29.888 404.982 30.716 404.82 31.484 404.496C32.264 404.16 32.948 403.698 33.536 403.11C34.124 402.522 34.58 401.844 34.904 401.076C35.24 400.296 35.408 399.462 35.408 398.574C35.408 397.686 35.24 396.858 34.904 396.09C34.58 395.31 34.124 394.626 33.536 394.038C32.948 393.45 32.264 392.994 31.484 392.67C30.716 392.334 29.888 392.166 29 392.166C28.112 392.166 27.278 392.334 26.498 392.67C25.73 392.994 25.052 393.45 24.464 394.038C23.876 394.626 23.414 395.31 23.078 396.09C22.754 396.858 22.592 397.686 22.592 398.574C22.592 399.462 22.754 400.296 23.078 401.076C23.414 401.844 23.876 402.522 24.464 403.11C25.052 403.698 25.73 404.16 26.498 404.496C27.278 404.82 28.112 404.982 29 404.982ZM54.6472 390.797V395.561H57.0027V396.721H54.6472V402.328H53.2761V390.797H54.6472ZM42.7292 395.754C42.7204 393.486 44.4958 391.913 46.8249 391.904C49.1716 391.913 50.9206 393.486 50.9382 395.754C50.9206 398.013 49.1716 399.604 46.8249 399.604C44.4958 399.604 42.7204 398.013 42.7292 395.754ZM44.0827 395.754C44.0739 397.292 45.278 398.391 46.8249 398.391C48.3982 398.391 49.5759 397.292 49.5847 395.754C49.5759 394.207 48.3982 393.117 46.8249 393.117C45.278 393.117 44.0739 394.207 44.0827 395.754ZM44.8738 406.09V401.133H46.2273V404.93H55.3679V406.09H44.8738ZM70.5821 390.814V402.275H69.1934V396.281H65.9766V395.139H69.1934V390.814H70.5821ZM57.6973 399.146C60.0001 398.338 61.67 396.272 61.67 394.031V393.223H58.1368V392.08H66.5567V393.223H63.0587V394.031C63.0587 396.053 64.6231 398.013 66.9083 398.795L66.1876 399.902C64.4298 399.261 63.0675 397.951 62.3907 396.334C61.7139 398.145 60.2725 399.577 58.418 400.271L57.6973 399.146ZM60.545 406.09V401.238H61.9337V404.93H71.0216V406.09H60.545ZM85.0405 390.814V395.965H87.3959V397.125H85.0405V402.521H83.6694V390.814H85.0405ZM72.8588 393.855V392.73H76.8315V390.814H78.2026V392.73H82.1752V393.855H72.8588ZM73.7553 397.635C73.7465 395.859 75.2582 394.717 77.517 394.717C79.7495 394.717 81.2612 395.859 81.2788 397.635C81.2612 399.393 79.7495 400.526 77.517 400.518C75.2582 400.526 73.7465 399.393 73.7553 397.635ZM75.0737 397.635C75.0649 398.733 76.0405 399.445 77.517 399.428C78.976 399.445 79.9604 398.733 79.978 397.635C79.9604 396.519 78.976 395.798 77.517 395.807C76.0405 395.798 75.0649 396.519 75.0737 397.635ZM75.267 406.09V401.59H76.6205V404.93H85.7612V406.09H75.267ZM105.063 390.797V406.459H103.674V390.797H105.063ZM92.758 397.459C92.7668 394.137 94.4191 392.019 96.7482 392.01C99.0685 392.019 100.747 394.137 100.738 397.459C100.747 400.79 99.0685 402.899 96.7482 402.891C94.4191 402.899 92.7668 400.79 92.758 397.459ZM94.0939 397.459C94.0939 399.999 95.1837 401.669 96.7482 401.66C98.3214 401.669 99.4025 399.999 99.4025 397.459C99.4025 394.919 98.3214 393.249 96.7482 393.24C95.1837 393.249 94.0939 394.919 94.0939 397.459ZM121.613 398.531V399.674H107.375V398.531H110.908V396.325C109.66 395.842 108.957 395.051 108.957 393.996C108.957 392.159 111.066 391.104 114.494 391.096C117.895 391.104 120.004 392.159 120.013 393.996C120.004 395.042 119.31 395.833 118.08 396.325V398.531H121.613ZM109.097 403.629C109.088 401.845 111.101 400.86 114.494 400.869C117.842 400.86 119.855 401.845 119.873 403.629C119.855 405.413 117.842 406.389 114.494 406.389C111.101 406.389 109.088 405.413 109.097 403.629ZM110.38 393.996C110.372 395.139 111.936 395.798 114.494 395.807C117.025 395.798 118.598 395.139 118.607 393.996C118.598 392.871 117.025 392.186 114.494 392.186C111.936 392.186 110.372 392.871 110.38 393.996ZM110.503 403.629C110.486 404.692 111.989 405.325 114.494 405.316C116.972 405.325 118.475 404.692 118.484 403.629C118.475 402.565 116.972 401.941 114.494 401.924C111.989 401.941 110.486 402.565 110.503 403.629ZM112.279 398.531H116.709V396.694C116.049 396.817 115.311 396.879 114.494 396.879C113.676 396.879 112.938 396.817 112.279 396.703V398.531ZM129.69 391.078C133.162 391.078 135.201 392.036 135.21 393.768C135.201 395.543 133.162 396.501 129.69 396.51C126.201 396.501 124.153 395.543 124.153 393.768C124.153 392.036 126.201 391.078 129.69 391.078ZM122.571 398.689V397.564H136.809V398.689H122.571ZM124.294 401.098V400.043H134.981V403.541H125.7V405.158H135.456V406.248H124.329V402.521H133.628V401.098H124.294ZM125.595 393.768C125.577 394.857 127.098 395.455 129.69 395.455C132.283 395.455 133.795 394.857 133.804 393.768C133.795 392.739 132.283 392.124 129.69 392.115C127.098 392.124 125.577 392.739 125.595 393.768ZM147.076 391.57C149.414 391.553 151.092 392.845 151.084 394.752C151.092 396.659 149.414 397.96 147.076 397.951C144.738 397.96 143.068 396.659 143.068 394.752C143.068 392.845 144.738 391.553 147.076 391.57ZM141.89 399.287C144.826 399.296 148.842 399.234 152.314 398.725L152.402 399.762C150.908 400.034 149.361 400.201 147.849 400.298V405.949H146.478V400.377C144.887 400.447 143.384 400.456 142.084 400.465L141.89 399.287ZM144.421 394.752C144.404 395.974 145.52 396.817 147.076 396.809C148.649 396.817 149.774 395.974 149.765 394.752C149.774 393.539 148.649 392.678 147.076 392.695C145.52 392.678 144.404 393.539 144.421 394.752ZM153.457 406.441V390.814H154.81V406.441H153.457ZM164.927 393.504V394.629H157.087V393.504H160.339V391.271H161.71V393.504H164.927ZM157.649 399.234C157.649 397.16 159.064 395.692 161.007 395.684C162.976 395.692 164.382 397.16 164.399 399.234C164.382 401.335 162.976 402.812 161.007 402.82C159.064 402.812 157.649 401.335 157.649 399.234ZM158.88 399.234C158.88 400.623 159.768 401.616 161.007 401.607C162.255 401.616 163.169 400.623 163.169 399.234C163.169 397.863 162.255 396.861 161.007 396.844C159.768 396.861 158.88 397.863 158.88 399.234ZM165.735 405.65V391.184H167.036V397.389H169.11V390.797H170.429V406.424H169.11V398.531H167.036V405.65H165.735ZM181.134 393.908C181.143 395.64 182.347 397.389 184.351 398.145L183.631 399.199C182.128 398.619 181.047 397.503 180.484 396.158C179.913 397.644 178.788 398.971 177.25 399.639L176.494 398.566C178.55 397.67 179.807 395.648 179.816 393.908V391.781H181.134V393.908ZM179.341 403.611C179.324 401.845 181.328 400.808 184.58 400.816C187.814 400.808 189.827 401.845 189.836 403.611C189.827 405.36 187.814 406.389 184.58 406.389C181.328 406.389 179.324 405.36 179.341 403.611ZM180.713 403.611C180.695 404.675 182.18 405.325 184.58 405.316C186.953 405.325 188.447 404.675 188.465 403.611C188.447 402.53 186.953 401.88 184.58 401.871C182.18 401.88 180.695 402.53 180.713 403.611ZM185.054 399.973V391.113H186.355V395.016H188.429V390.814H189.748V400.465H188.429V396.158H186.355V399.973H185.054ZM204.628 390.814V402.381H203.239V396.967H198.739V395.859H203.239V393.979H198.739V392.871H203.239V390.814H204.628ZM192.605 400.061V391.939H193.993V398.883C196.147 398.874 198.221 398.751 200.603 398.32L200.743 399.463C198.203 399.938 196.076 400.043 193.782 400.061H192.605ZM194.556 406.09V401.396H195.944V404.93H205.05V406.09H194.556ZM219.754 390.814V400.025H218.366V399.164H215.202V398.25H218.366V390.814H219.754ZM206.817 396.703C209.84 396.721 213.707 396.686 217.082 396.316L217.17 397.213C215.641 397.433 214.05 397.564 212.495 397.635V400.078H211.141V397.688C209.664 397.74 208.241 397.74 206.975 397.74L206.817 396.703ZM208.03 393.469C208.03 392.019 209.559 391.113 211.914 391.113C214.244 391.113 215.782 392.019 215.799 393.469C215.782 394.928 214.244 395.798 211.914 395.807C209.559 395.798 208.03 394.928 208.03 393.469ZM209.207 401.59V400.588H219.754V403.822H210.631V405.229H220.264V406.248H209.278V402.855H218.383V401.59H209.207ZM209.33 393.469C209.322 394.295 210.341 394.857 211.914 394.857C213.47 394.857 214.49 394.295 214.498 393.469C214.49 392.634 213.47 392.071 211.914 392.08C210.341 392.071 209.322 392.634 209.33 393.469ZM226.496 391.377C228.834 391.386 230.53 392.81 230.539 394.84C230.53 396.879 228.834 398.285 226.496 398.285C224.132 398.285 222.427 396.879 222.435 394.84C222.427 392.81 224.132 391.386 226.496 391.377ZM223.789 394.84C223.771 396.211 224.923 397.16 226.496 397.16C228.043 397.16 229.203 396.211 229.203 394.84C229.203 393.486 228.043 392.528 226.496 392.537C224.923 392.528 223.771 393.486 223.789 394.84ZM224.808 400.693V399.586H234.969V403.348H226.197V405.105H235.531V406.213H224.844V402.311H233.597V400.693H224.808ZM233.597 398.83V390.797H234.969V398.83H233.597ZM239.829 403.822L238.458 408.604H237.157L238.124 403.822H239.829ZM259.922 398.531V399.639H245.666V398.531H252.117V396.703H247.476V391.535H258.146V392.643H248.83V395.578H258.252V396.703H253.453V398.531H259.922ZM247.389 403.594C247.38 401.81 249.41 400.79 252.785 400.781C256.134 400.79 258.146 401.81 258.164 403.594C258.146 405.396 256.134 406.406 252.785 406.424C249.41 406.406 247.38 405.396 247.389 403.594ZM248.795 403.594C248.777 404.692 250.28 405.325 252.785 405.316C255.264 405.325 256.766 404.692 256.775 403.594C256.766 402.513 255.264 401.871 252.785 401.871C250.28 401.871 248.777 402.513 248.795 403.594ZM265.292 391.377C267.63 391.386 269.326 392.81 269.335 394.84C269.326 396.879 267.63 398.285 265.292 398.285C262.928 398.285 261.223 396.879 261.232 394.84C261.223 392.81 262.928 391.386 265.292 391.377ZM262.585 394.84C262.568 396.211 263.719 397.16 265.292 397.16C266.839 397.16 267.999 396.211 267.999 394.84C267.999 393.486 266.839 392.528 265.292 392.537C263.719 392.528 262.568 393.486 262.585 394.84ZM263.605 400.693V399.586H273.765V403.348H264.993V405.105H274.327V406.213H263.64V402.311H272.394V400.693H263.605ZM272.394 398.83V390.797H273.765V398.83H272.394ZM281.174 391.676L277.061 406.916H275.69L279.786 391.676H281.174ZM294.666 390.814V402.363H293.277V398.145H289.234C288.514 399.067 287.353 399.621 286.017 399.621C283.68 399.621 281.948 398.004 281.957 395.719C281.948 393.425 283.68 391.808 286.017 391.799C287.345 391.808 288.487 392.353 289.217 393.258H293.277V390.814H294.666ZM283.275 395.719C283.275 397.283 284.418 398.399 286.017 398.391C287.556 398.399 288.725 397.283 288.725 395.719C288.725 394.163 287.556 393.038 286.017 393.029C284.418 393.038 283.275 394.163 283.275 395.719ZM284.629 406.09V401.15H286.017V404.93H295.105V406.09H284.629ZM289.841 394.4C289.981 394.805 290.06 395.244 290.06 395.719C290.06 396.176 289.981 396.606 289.85 397.002H293.277V394.4H289.841ZM311.199 398.654V399.797H296.908V398.654H303.341V396.246H304.695V398.654H311.199ZM297.769 395.982C300.529 395.604 303.324 393.864 303.324 391.781V391.043H304.712V391.781C304.712 393.864 307.525 395.604 310.284 395.982L309.722 397.09C307.358 396.677 305.002 395.42 304.027 393.618C303.042 395.438 300.696 396.677 298.296 397.09L297.769 395.982ZM298.49 402.434V401.326H309.388V406.424H307.999V402.434H298.49ZM330.553 397.934V399.076H324.031V400.834H322.678V399.076H316.262V397.934H330.553ZM317.07 395.684C319.856 395.341 322.678 393.697 322.678 391.729V390.99H324.102V391.729C324.093 393.662 326.94 395.341 329.709 395.684L329.199 396.756C326.773 396.413 324.392 395.218 323.39 393.495C322.396 395.227 320.006 396.413 317.58 396.756L317.07 395.684ZM317.299 405.299C320.094 405.009 322.643 403.743 322.643 402.047V401.537H324.049V402.047C324.058 403.77 326.58 405.009 329.41 405.299L328.971 406.354C326.501 406.081 324.277 405.141 323.346 403.646C322.414 405.123 320.208 406.081 317.756 406.354L317.299 405.299ZM336.749 395.596C336.732 398.101 338.542 400.86 340.81 401.941L340.019 403.031C338.261 402.17 336.776 400.324 336.073 398.206C335.352 400.5 333.787 402.521 332.038 403.418L331.195 402.328C333.445 401.229 335.378 398.259 335.396 395.596V393.557H331.757V392.414H340.265V393.557H336.749V395.596ZM342.181 406.424V390.797H343.552V397.125H346.171V398.303H343.552V406.424H342.181ZM355.77 405.176C353.238 405.176 351.419 403.822 351.34 401.801H352.94C353.027 403.014 354.232 403.77 355.752 403.77C357.431 403.77 358.644 402.864 358.652 401.537C358.644 400.148 357.536 399.173 355.559 399.164H354.522V397.775H355.559C357.106 397.775 358.187 396.905 358.178 395.596C358.187 394.321 357.255 393.478 355.805 393.469C354.442 393.478 353.203 394.225 353.133 395.473H351.604C351.683 393.451 353.564 392.098 355.822 392.098C358.248 392.098 359.725 393.688 359.707 395.508C359.725 396.958 358.881 398.013 357.545 398.391V398.479C359.206 398.733 360.208 399.92 360.199 401.537C360.208 403.629 358.31 405.176 355.77 405.176ZM366.853 395.596C366.835 398.101 368.646 400.86 370.914 401.941L370.122 403.031C368.365 402.17 366.879 400.324 366.176 398.206C365.456 400.5 363.891 402.521 362.142 403.418L361.298 402.328C363.548 401.229 365.482 398.259 365.499 395.596V393.557H361.861V392.414H370.369V393.557H366.853V395.596ZM372.285 406.424V390.797H373.656V397.125H376.275V398.303H373.656V406.424H372.285ZM389.661 390.797V406.459H388.29V390.797H389.661ZM377.638 393.398V392.256H384.915V397.811H379.079V401.502C381.672 401.511 383.983 401.388 386.778 400.939L386.919 402.1C384.045 402.548 381.672 402.662 378.973 402.662H377.673V396.686H383.526V393.398H377.638ZM404.594 395.543V396.65H393.889V391.377H395.26V395.543H404.594ZM391.938 399.902V398.777H406.246V399.902H391.938ZM393.801 406.037V401.502H395.172V404.895H404.682V406.037H393.801ZM58.463 417.797V433.459H57.0744V417.797H58.463ZM46.4923 429.68V419.133H47.8634V423.264H52.5216V419.133H53.8752V429.68H46.4923ZM47.8634 428.52H52.5216V424.371H47.8634V428.52ZM68.9312 418.676V425.039H61.6011V418.676H68.9312ZM62.9546 423.949H67.5777V419.801H62.9546V423.949ZM63.5171 427.746V426.639H73.6597V430.365H64.9058V432.123H74.2222V433.248H63.5347V429.346H72.3062V427.746H63.5171ZM72.3062 425.865V417.797H73.6597V425.865H72.3062ZM88.9266 417.814V429.381H87.538V423.369H83.8466V426.709H76.7626V418.852H78.1337V421.629H82.493V418.852H83.8466V422.209H87.538V417.814H88.9266ZM78.1337 425.566H82.493V422.719H78.1337V425.566ZM78.8192 433.09V428.238H80.2079V431.93H89.2782V433.09H78.8192ZM104.668 420.117V421.26H91.8713V420.117H97.6018V418.061H98.9553V420.117H104.668ZM91.1682 431.596V430.453H97.6018V428.256C94.8157 428.106 93.137 427.025 93.1545 425.268C93.137 423.413 95.0969 422.314 98.2873 422.332C101.434 422.314 103.429 423.413 103.42 425.268C103.429 427.025 101.715 428.106 98.9553 428.256V430.453H105.477V431.596H91.1682ZM94.5432 425.268C94.5256 426.454 95.9582 427.14 98.2873 427.148C100.59 427.14 102.023 426.454 102.014 425.268C102.023 424.107 100.59 423.422 98.2873 423.422C95.9582 423.422 94.5256 424.107 94.5432 425.268ZM120.673 430.33V431.49H106.365V430.33H112.798V427.377H108.158V422.561H117.509V420.1H108.123V418.957H118.863V423.686H109.529V426.234H119.232V427.377H114.152V430.33H120.673ZM130.957 421.998C130.957 424.749 132.777 427.588 135 428.678L134.157 429.785C132.434 428.889 130.993 427.034 130.298 424.863C129.604 427.166 128.127 429.144 126.369 430.084L125.491 428.977C127.776 427.852 129.586 424.854 129.604 421.998V419.15H130.957V421.998ZM136.442 433.424V417.797H137.813V424.143H140.432V425.338H137.813V433.424H136.442ZM155.154 425.531V426.674H140.916V425.531H144.449V423.325C143.201 422.842 142.498 422.051 142.498 420.996C142.498 419.159 144.607 418.104 148.035 418.096C151.436 418.104 153.546 419.159 153.554 420.996C153.546 422.042 152.851 422.833 151.621 423.325V425.531H155.154ZM142.638 430.629C142.63 428.845 144.642 427.86 148.035 427.869C151.383 427.86 153.396 428.845 153.414 430.629C153.396 432.413 151.383 433.389 148.035 433.389C144.642 433.389 142.63 432.413 142.638 430.629ZM143.922 420.996C143.913 422.139 145.477 422.798 148.035 422.807C150.566 422.798 152.139 422.139 152.148 420.996C152.139 419.871 150.566 419.186 148.035 419.186C145.477 419.186 143.913 419.871 143.922 420.996ZM144.045 430.629C144.027 431.692 145.53 432.325 148.035 432.316C150.513 432.325 152.016 431.692 152.025 430.629C152.016 429.565 150.513 428.941 148.035 428.924C145.53 428.941 144.027 429.565 144.045 430.629ZM145.82 425.531H150.25V423.694C149.591 423.817 148.852 423.879 148.035 423.879C147.217 423.879 146.479 423.817 145.82 423.703V425.531ZM168.329 417.744V421.541H170.702V422.684H168.329V426.393H166.958V417.744H168.329ZM156.148 420.328V419.221H160.12V417.639H161.491V419.221H165.464V420.328H156.148ZM157.044 423.598C157.035 422.016 158.529 421.04 160.806 421.031C163.073 421.04 164.55 422.016 164.567 423.598C164.55 425.188 163.073 426.155 160.806 426.164C158.529 426.155 157.035 425.188 157.044 423.598ZM158.362 428.238V427.201H168.329V430.664H159.751V432.193H168.909V433.248H158.398V429.645H166.958V428.238H158.362ZM158.362 423.598C158.354 424.538 159.32 425.127 160.806 425.127C162.282 425.127 163.249 424.538 163.267 423.598C163.249 422.666 162.282 422.06 160.806 422.051C159.32 422.06 158.354 422.666 158.362 423.598ZM183.306 419.256C183.315 421.462 186.18 423.36 189.002 423.756L188.439 424.881C186.013 424.477 183.605 423.132 182.603 421.216C181.601 423.149 179.202 424.477 176.767 424.881L176.205 423.756C179.026 423.36 181.883 421.497 181.883 419.256V418.359H183.306V419.256ZM175.467 427.764V426.604H189.705V427.764H183.236V433.424H181.883V427.764H175.467ZM197.932 426.973V428.924H200.78V426.973H202.063V433.213H196.631V426.973H197.932ZM195.067 422.086C195.058 419.95 196.746 418.5 199.127 418.5C201.228 418.5 202.819 419.687 203.118 421.488H206.387V417.797H207.776V426.076H206.387V422.631H203.126C202.854 424.477 201.246 425.689 199.127 425.689C196.746 425.689 195.058 424.23 195.067 422.086ZM196.385 422.086C196.385 423.519 197.519 424.538 199.127 424.547C200.701 424.538 201.834 423.519 201.834 422.086C201.834 420.662 200.701 419.66 199.127 419.66C197.519 419.66 196.385 420.662 196.385 422.086ZM197.932 432.123H200.78V429.979H197.932V432.123ZM202.274 432.281C204.155 431.499 205.148 429.785 205.157 428.203V426.867H206.528V428.203C206.51 429.847 207.503 431.578 209.411 432.281L208.69 433.336C207.249 432.765 206.308 431.657 205.825 430.365C205.333 431.64 204.374 432.747 202.995 433.336L202.274 432.281ZM213.199 427.184V429.012H221.004V427.184H222.392V433.213H211.828V427.184H213.199ZM210.017 426.076V424.934H224.256V426.076H210.017ZM210.826 422.719C213.612 422.341 216.433 420.697 216.433 418.711V417.973H217.857V418.711C217.848 420.636 220.696 422.367 223.447 422.719L222.937 423.826C220.52 423.466 218.139 422.235 217.145 420.486C216.152 422.244 213.762 423.466 211.353 423.826L210.826 422.719ZM213.199 432.105H221.004V430.102H213.199V432.105ZM238.099 417.797V433.424H236.728V417.797H238.099ZM226.234 429.398V419.344H227.587V428.203C229.978 428.186 232.439 428.001 235.058 427.447L235.251 428.625C232.474 429.205 230.004 429.398 227.499 429.398H226.234ZM252.504 417.797V423.984H255.124V425.145H252.504V433.459H251.133V417.797H252.504ZM241.096 429.539V419.326H248.391V420.469H242.467V428.379C245.297 428.37 247.293 428.247 249.622 427.816L249.797 429.012C247.345 429.451 245.297 429.539 242.327 429.539H241.096ZM257.26 432.105C256.644 432.097 256.117 431.587 256.135 430.963C256.117 430.348 256.644 429.838 257.26 429.838C257.884 429.838 258.393 430.348 258.385 430.963C258.393 431.587 257.884 432.097 257.26 432.105Z" fill="#777777"/>
<rect width="450" height="400" transform="translate(0 451)" fill="#323C59"/>
<path d="M85.6667 504.293C80.9352 504.293 77.5954 501.773 77.61 498.316C77.5954 495.621 79.6022 493.424 82.151 493.014V492.896C79.9245 492.428 78.4157 490.494 78.401 488.18C78.4157 484.898 81.4772 482.496 85.6667 482.496C89.8268 482.496 92.903 484.898 92.903 488.18C92.903 490.509 91.3503 492.428 89.153 492.896V493.014C91.6872 493.424 93.7087 495.621 93.7233 498.316C93.7087 501.773 90.3542 504.293 85.6667 504.293ZM81.5358 497.965C81.5212 499.928 83.1471 501.275 85.6667 501.275C88.1569 501.275 89.7829 499.928 89.7975 497.965C89.7829 495.973 88.0544 494.493 85.6667 494.508C83.279 494.493 81.5212 495.958 81.5358 497.965ZM82.1217 488.531C82.1364 490.392 83.6012 491.666 85.6667 491.666C87.7028 491.666 89.1823 490.392 89.1823 488.531C89.1823 486.729 87.7467 485.484 85.6667 485.484C83.5426 485.484 82.1364 486.729 82.1217 488.531Z" fill="white"/>
<path d="M224.796 482.496C228.941 482.525 233.072 485.001 233.087 492.75C233.087 500.06 229.776 504.293 224.561 504.293C220.474 504.293 217.647 501.744 217.178 498.229H220.958C221.339 499.913 222.642 500.982 224.561 500.982C227.637 500.982 229.366 498.272 229.395 493.717H229.161C228.091 495.562 226.041 496.661 223.712 496.646C219.918 496.661 216.988 493.775 216.973 489.762C216.973 485.616 220.093 482.467 224.796 482.496ZM220.694 489.674C220.694 491.959 222.393 493.746 224.766 493.746C227.125 493.746 228.941 491.842 228.926 489.645C228.926 487.491 227.198 485.587 224.825 485.572C222.437 485.587 220.665 487.403 220.694 489.674Z" fill="white"/>
<path d="M364.318 504.293C359.792 504.293 356.554 501.832 356.466 498.258H360.304C360.407 499.957 362.106 501.085 364.318 501.07C366.647 501.085 368.332 499.796 368.332 497.906C368.332 496.002 366.691 494.64 363.937 494.625H362.033V491.695H363.937C366.193 491.695 367.76 490.436 367.746 488.59C367.76 486.803 366.413 485.602 364.347 485.602C362.355 485.602 360.641 486.715 360.568 488.502H356.906C356.994 484.942 360.231 482.496 364.377 482.496C368.683 482.496 371.466 485.133 371.437 488.385C371.466 490.758 369.884 492.472 367.57 492.955V493.131C370.558 493.526 372.257 495.445 372.228 498.111C372.257 501.7 368.903 504.293 364.318 504.293Z" fill="white"/>
<path d="M78.3864 589V586.246L85.8864 579.01C88.0251 576.871 89.1383 575.611 89.1383 573.824C89.1383 571.847 87.571 570.602 85.5055 570.602C83.3229 570.602 81.9167 571.964 81.9313 574.117H78.2985C78.2839 570.104 81.3014 567.496 85.5348 567.496C89.8708 567.496 92.7858 570.089 92.8005 573.648C92.7858 576.036 91.6432 577.97 87.4684 581.91L83.6891 585.66V585.807H93.1227V589H78.3864Z" fill="white"/>
<path d="M225.206 589.293C221.06 589.264 216.929 586.803 216.944 578.98C216.944 571.729 220.24 567.496 225.44 567.496C229.527 567.496 232.34 570.06 232.823 573.502H229.044C228.663 571.876 227.374 570.792 225.44 570.807C222.364 570.792 220.65 573.517 220.635 577.984H220.84C221.924 576.153 223.961 575.069 226.29 575.084C230.098 575.069 233.043 577.955 233.028 581.969C233.043 586.188 229.893 589.322 225.206 589.293ZM221.046 582.086C221.075 584.298 222.803 586.202 225.206 586.217C227.564 586.202 229.322 584.386 229.337 582.057C229.322 579.801 227.623 577.984 225.264 577.984C222.877 577.984 221.075 579.874 221.046 582.086Z" fill="white"/>
<path d="M367.819 567.789V589H363.981V571.51H363.864L358.913 574.674V571.188L364.157 567.789H367.819Z" fill="white"/>
<path d="M77.361 670.045V666.998L86.5309 652.789H91.277V666.91H94.0602V670.045H91.277V674H87.6442V670.045H77.361ZM81.2575 666.91H87.7028V657.125H87.4684L81.2575 666.764V666.91Z" fill="white"/>
<path d="M219.039 674L228.238 656.129V655.982H217.574V652.789H232.193V656.041L222.994 674H219.039Z" fill="white"/>
<path d="M364.362 674.293C360.129 674.293 357.008 671.759 356.891 668.258H360.612C360.729 669.972 362.355 671.202 364.362 671.217C366.735 671.202 368.449 669.488 368.434 667.145C368.449 664.713 366.691 662.999 364.245 662.984C362.59 662.97 361.388 663.556 360.729 664.801H357.184L358.473 652.789H371.012V655.982H361.608L360.964 661.607H361.169C361.989 660.685 363.527 660.011 365.27 659.996C369.211 660.011 372.14 662.94 372.126 667.027C372.14 671.261 368.947 674.293 364.362 674.293Z" fill="white"/>
<path d="M56.6823 745.375C56.2585 742.996 54.3581 741.629 51.9518 741.629C48.7116 741.629 46.4147 744.117 46.4284 748.602C46.4147 753.154 48.7253 755.574 51.9518 755.574C54.3034 755.574 56.2038 754.262 56.6823 751.938H60.2643C59.7174 755.738 56.5866 758.773 51.8971 758.773C46.6745 758.773 42.8327 754.986 42.8464 748.602C42.8327 742.203 46.7155 738.43 51.8971 738.43C56.2721 738.43 59.6491 740.973 60.2643 745.375H56.6823ZM63.3268 758.5V738.703H66.8815V755.492H75.6315V758.5H63.3268ZM78.4753 758.5V738.703H91.3542V741.684H82.0299V747.098H90.6706V750.078H82.0299V755.492H91.4089V758.5H78.4753ZM97.2878 758.5H93.487L100.46 738.703H104.835L111.835 758.5H108.034L106.38 753.605H98.9284L97.2878 758.5ZM99.8854 750.734H105.423L102.729 742.75H102.565L99.8854 750.734ZM114.186 758.5V738.703H121.624C126.163 738.703 128.583 741.246 128.596 745.02C128.583 747.713 127.352 749.709 125.028 750.652L129.307 758.5H125.342L121.46 751.254H117.741V758.5H114.186ZM117.741 748.273H121.077C123.757 748.287 124.96 747.139 124.96 745.02C124.96 742.914 123.757 741.684 121.077 741.684H117.741V748.273Z" fill="white"/>
<path d="M225.001 759.293C219.888 759.293 216.841 755.338 216.856 748.395C216.841 741.48 219.918 737.496 225.001 737.496C230.084 737.496 233.145 741.48 233.145 748.395C233.145 755.353 230.098 759.293 225.001 759.293ZM220.694 748.395C220.694 753.492 222.335 756.085 225.001 756.1C227.652 756.085 229.307 753.492 229.307 748.395C229.293 743.341 227.652 740.675 225.001 740.66C222.349 740.675 220.709 743.341 220.694 748.395Z" fill="white"/>
<path d="M334.282 758.5V738.703H341.856C346.149 738.703 348.268 740.891 348.282 743.844C348.268 746.25 346.751 747.59 344.809 748.055V748.246C346.915 748.355 349.048 750.105 349.048 753.113C349.048 756.189 346.819 758.5 342.294 758.5H334.282ZM337.837 755.52H341.747C344.344 755.52 345.424 754.412 345.438 752.84C345.424 751.062 344.044 749.709 341.829 749.695H337.837V755.52ZM337.837 747.125H341.419C343.292 747.125 344.714 746.045 344.727 744.281C344.714 742.764 343.62 741.656 341.501 741.656H337.837V747.125ZM351.098 754.316C351.098 750.98 353.874 750.01 356.622 749.832C357.661 749.75 359.78 749.654 360.436 749.627L360.423 748.438C360.423 746.961 359.479 746.113 357.743 746.113C356.184 746.113 355.227 746.824 354.954 747.891H351.59C351.837 745.361 354.106 743.461 357.825 743.461C360.641 743.461 363.895 744.623 363.895 748.574V758.5H360.559V756.449H360.45C359.794 757.707 358.413 758.801 356.075 758.801C353.245 758.801 351.098 757.256 351.098 754.316ZM354.462 754.289C354.462 755.574 355.514 756.23 356.977 756.23C359.096 756.23 360.45 754.836 360.45 753.168L360.436 751.951C359.807 751.979 357.866 752.102 357.169 752.156C355.514 752.293 354.462 752.99 354.462 754.289ZM373.657 758.801C369.227 758.801 366.548 755.629 366.548 751.145C366.548 746.592 369.309 743.461 373.657 743.461C377.253 743.461 379.782 745.566 380.028 748.766H376.692C376.419 747.344 375.38 746.264 373.684 746.25C371.524 746.264 370.075 748.068 370.075 751.062C370.075 754.125 371.497 755.943 373.684 755.957C375.229 755.943 376.378 755.041 376.692 753.441H380.028C379.768 756.572 377.389 758.801 373.657 758.801ZM382.653 758.5V738.703H386.153V749.613H386.399L391.731 743.652H395.805L390.049 750.051L396.161 758.5H392.005L387.438 752.129L386.153 753.496V758.5H382.653Z" fill="white"/>
</svg>
