<svg width="400" height="727" viewBox="0 0 400 727" fill="none" xmlns="http://www.w3.org/2000/svg">
<rect width="400" height="727" fill="white"/>
<rect width="400" height="58" fill="white"/>
<mask id="mask0_250_1779" style="mask-type:alpha" maskUnits="userSpaceOnUse" x="14" y="17" width="24" height="24">
<rect x="14" y="17" width="24" height="24" fill="#D9D9D9"/>
</mask>
<g mask="url(#mask0_250_1779)">
<path d="M23.0152 28.9994L30.248 36.2321C30.43 36.4141 30.5227 36.6397 30.526 36.9089C30.5292 37.1782 30.4397 37.4039 30.2577 37.5859C30.0756 37.7679 29.8499 37.8589 29.5807 37.8589C29.3116 37.8589 29.0859 37.7679 28.9038 37.5859L21.4578 30.1301C21.2936 29.9659 21.1762 29.7884 21.1057 29.5974C21.0352 29.4064 21 29.207 21 28.9994C21 28.7917 21.0352 28.5924 21.1057 28.4014C21.1762 28.2104 21.2936 28.0328 21.4578 27.8686L28.9038 20.4224C29.0859 20.2404 29.31 20.1478 29.576 20.1446C29.842 20.1414 30.066 20.2309 30.248 20.4129C30.43 20.5949 30.521 20.8205 30.521 21.0899C30.521 21.359 30.43 21.5846 30.248 21.7666L23.0152 28.9994Z" fill="#222222"/>
</g>
<path d="M26.2715 84.1699V86.6582H36.1738V84.1699H38.9668V93.4883H32.6191V95.5957H41.6836V97.8809H20.7617V95.5957H29.7754V93.4883H23.4785V84.1699H26.2715ZM23.3516 105.803V99.3535H26.1699V103.518H39.3223V105.803H23.3516ZM26.2715 91.2285H36.1738V88.8418H26.2715V91.2285ZM61.8316 83.332V99.9121H58.9878V83.332H61.8316ZM43.1187 90.5684C43.1187 87.2295 45.8228 84.8428 49.314 84.8301C52.8052 84.8428 55.4966 87.2295 55.4839 90.5684C55.4966 93.958 52.8052 96.332 49.314 96.332C45.8228 96.332 43.1187 93.958 43.1187 90.5684ZM45.8862 90.5684C45.8736 92.5996 47.3462 93.8691 49.314 93.8691C51.231 93.8691 52.7163 92.5996 52.7163 90.5684C52.7163 88.5879 51.231 87.293 49.314 87.293C47.3462 87.293 45.8736 88.5879 45.8862 90.5684ZM46.648 105.803V98.2363H49.4917V103.518H62.4663V105.803H46.648ZM82.8428 83.332V90.0098H85.9405V92.3457H82.8428V98.8457H80.0245V83.332H82.8428ZM64.46 96.1035C66.1866 96.1035 68.1797 96.0908 70.2491 96.04V94.6309C67.6973 94.3135 66.0723 93.082 66.085 91.2793C66.0723 89.1592 68.294 87.8643 71.6202 87.877C74.959 87.8643 77.1553 89.1592 77.1553 91.2793C77.1553 93.0693 75.5811 94.2881 73.0674 94.6182V95.9385C75.0225 95.8369 76.9903 95.6846 78.8311 95.4434L79.0596 97.3984C74.1719 98.2617 68.8018 98.3125 64.7647 98.3125L64.46 96.1035ZM65.044 87.2168V85.1348H70.2491V83.1289H73.0674V85.1348H78.2217V87.2168H65.044ZM67.3545 102.045V99.8359H82.8428V106.26H80.0245V102.045H67.3545ZM68.8018 91.2793C68.7764 92.2314 69.8428 92.8281 71.6202 92.8027C73.3975 92.8281 74.4639 92.2314 74.4639 91.2793C74.4639 90.2764 73.3975 89.7686 71.6202 89.7812C69.8428 89.7686 68.7764 90.2764 68.8018 91.2793ZM105.733 83.332V99.9121H102.889V83.332H105.733ZM87.0201 90.5684C87.0201 87.2295 89.7242 84.8428 93.2154 84.8301C96.7066 84.8428 99.398 87.2295 99.3853 90.5684C99.398 93.958 96.7066 96.332 93.2154 96.332C89.7242 96.332 87.0201 93.958 87.0201 90.5684ZM89.7877 90.5684C89.775 92.5996 91.2476 93.8691 93.2154 93.8691C95.1324 93.8691 96.6177 92.5996 96.6177 90.5684C96.6177 88.5879 95.1324 87.293 93.2154 87.293C91.2476 87.293 89.775 88.5879 89.7877 90.5684ZM90.5494 105.803V98.2363H93.3931V103.518H106.368V105.803H90.5494ZM133.334 83.332V99.9121H130.49V83.332H133.334ZM114.621 90.5684C114.621 87.2295 117.325 84.8428 120.816 84.8301C124.307 84.8428 126.999 87.2295 126.986 90.5684C126.999 93.958 124.307 96.332 120.816 96.332C117.325 96.332 114.621 93.958 114.621 90.5684ZM117.388 90.5684C117.376 92.5996 118.848 93.8691 120.816 93.8691C122.733 93.8691 124.218 92.5996 124.218 90.5684C124.218 88.5879 122.733 87.293 120.816 87.293C118.848 87.293 117.376 88.5879 117.388 90.5684ZM118.15 105.803V98.2363H120.994V103.518H133.968V105.803H118.15ZM157.087 93.9961V96.2812H136.165V93.9961H157.087ZM137.181 90.7461C141.434 90.3271 144.201 88.626 144.633 86.709H138.069V84.3984H155.208V86.709H148.581C149 88.6006 151.742 90.3271 156.097 90.7461L155.107 92.9805C150.93 92.5488 147.845 90.8857 146.601 88.5625C145.357 90.8857 142.31 92.5488 138.146 92.9805L137.181 90.7461ZM138.603 102.02C138.603 99.3535 141.611 97.8047 146.601 97.8047C151.552 97.8047 154.535 99.3535 154.548 102.02C154.535 104.724 151.552 106.234 146.601 106.234C141.611 106.234 138.603 104.724 138.603 102.02ZM141.472 102.02C141.459 103.353 143.262 104.013 146.601 104.025C149.889 104.013 151.704 103.353 151.73 102.02C151.704 100.687 149.889 100.014 146.601 100.014C143.262 100.014 141.459 100.687 141.472 102.02ZM181.869 83.3066V90.0352H185.069V92.3711H181.869V100.09H179.051V83.3066H181.869ZM164.02 90.6191C164.007 87.2295 166.724 84.8428 170.215 84.8301C173.706 84.8428 176.385 87.2295 176.41 90.6191C176.385 93.958 173.706 96.3828 170.215 96.3828C166.724 96.3828 164.007 93.958 164.02 90.6191ZM166.787 90.6191C166.775 92.5996 168.298 93.9072 170.215 93.8945C172.157 93.9072 173.63 92.5996 173.643 90.6191C173.63 88.5879 172.157 87.293 170.215 87.293C168.298 87.293 166.775 88.5879 166.787 90.6191ZM167.168 105.803V98.3379H169.986V103.518H182.783V105.803H167.168ZM205.42 83.3066V106.26H202.703V94.6562H200.164V105.092H197.523V83.7383H200.164V92.3457H202.703V83.3066H205.42ZM186.707 100.547V85.9473H189.55V98.0586C191.531 98.0205 193.689 97.8428 196.101 97.373L196.381 99.8359C193.283 100.382 190.655 100.547 188.23 100.547H186.707Z" fill="black"/>
<path d="M26.1348 128.998C26.126 131.828 27.9453 134.676 30.2129 135.713L29.3867 136.838C27.6113 135.924 26.1436 134.061 25.4492 131.837C24.7549 134.175 23.2871 136.179 21.5117 137.119L20.6152 136.012C22.9092 134.887 24.7197 131.881 24.7285 128.998V126.15H26.1348V128.998ZM28.5078 131.266V130.141H32.2168V124.797H33.5879V140.459H32.2168V131.266H28.5078ZM48.7142 124.797V140.459H47.3255V124.797H48.7142ZM36.7435 136.68V126.133H38.1146V130.264H42.7728V126.133H44.1263V136.68H36.7435ZM38.1146 135.52H42.7728V131.371H38.1146V135.52ZM58.8132 127.1C58.822 129.78 61.8806 132.162 64.5964 132.672L63.9636 133.832C61.5993 133.287 59.1208 131.608 58.1101 129.314C57.0905 131.608 54.6208 133.278 52.2566 133.832L51.6238 132.672C54.3308 132.153 57.363 129.789 57.3718 127.1V125.904H58.8132V127.1ZM51.0261 138.297V137.154H65.3347V138.297H51.0261ZM83.2651 124.797V140.459H81.8764V124.797H83.2651ZM70.9604 131.459C70.9692 128.137 72.6215 126.019 74.9506 126.01C77.2709 126.019 78.9496 128.137 78.9409 131.459C78.9496 134.79 77.2709 136.899 74.9506 136.891C72.6215 136.899 70.9692 134.79 70.9604 131.459ZM72.2963 131.459C72.2963 133.999 73.3862 135.669 74.9506 135.66C76.5239 135.669 77.6049 133.999 77.6049 131.459C77.6049 128.919 76.5239 127.249 74.9506 127.24C73.3862 127.249 72.2963 128.919 72.2963 131.459ZM99.8152 132.531V133.674H85.577V132.531H89.1102V130.325C87.8621 129.842 87.159 129.051 87.159 127.996C87.159 126.159 89.2684 125.104 92.6961 125.096C96.0975 125.104 98.2068 126.159 98.2156 127.996C98.2068 129.042 97.5125 129.833 96.282 130.325V132.531H99.8152ZM87.2996 137.629C87.2908 135.845 89.3035 134.86 92.6961 134.869C96.0447 134.86 98.0574 135.845 98.075 137.629C98.0574 139.413 96.0447 140.389 92.6961 140.389C89.3035 140.389 87.2908 139.413 87.2996 137.629ZM88.5828 127.996C88.574 129.139 90.1385 129.798 92.6961 129.807C95.2273 129.798 96.8006 129.139 96.8094 127.996C96.8006 126.871 95.2273 126.186 92.6961 126.186C90.1385 126.186 88.574 126.871 88.5828 127.996ZM88.7059 137.629C88.6883 138.692 90.1912 139.325 92.6961 139.316C95.1746 139.325 96.6775 138.692 96.6863 137.629C96.6775 136.565 95.1746 135.941 92.6961 135.924C90.1912 135.941 88.6883 136.565 88.7059 137.629ZM90.4812 132.531H94.9109V130.694C94.2518 130.817 93.5135 130.879 92.6961 130.879C91.8787 130.879 91.1404 130.817 90.4812 130.703V132.531ZM107.893 125.078C111.364 125.078 113.403 126.036 113.412 127.768C113.403 129.543 111.364 130.501 107.893 130.51C104.403 130.501 102.356 129.543 102.356 127.768C102.356 126.036 104.403 125.078 107.893 125.078ZM100.774 132.689V131.564H115.012V132.689H100.774ZM102.496 135.098V134.043H113.184V137.541H103.902V139.158H113.658V140.248H102.531V136.521H111.83V135.098H102.496ZM103.797 127.768C103.779 128.857 105.3 129.455 107.893 129.455C110.486 129.455 111.997 128.857 112.006 127.768C111.997 126.739 110.486 126.124 107.893 126.115C105.3 126.124 103.779 126.739 103.797 127.768ZM125.278 125.57C127.616 125.553 129.295 126.845 129.286 128.752C129.295 130.659 127.616 131.96 125.278 131.951C122.94 131.96 121.27 130.659 121.27 128.752C121.27 126.845 122.94 125.553 125.278 125.57ZM120.093 133.287C123.028 133.296 127.045 133.234 130.516 132.725L130.604 133.762C129.11 134.034 127.563 134.201 126.052 134.298V139.949H124.681V134.377C123.09 134.447 121.587 134.456 120.286 134.465L120.093 133.287ZM122.624 128.752C122.606 129.974 123.723 130.817 125.278 130.809C126.851 130.817 127.976 129.974 127.968 128.752C127.976 127.539 126.851 126.678 125.278 126.695C123.723 126.678 122.606 127.539 122.624 128.752ZM131.659 140.441V124.814H133.013V140.441H131.659ZM143.129 127.504V128.629H135.289V127.504H138.541V125.271H139.912V127.504H143.129ZM135.852 133.234C135.852 131.16 137.267 129.692 139.209 129.684C141.178 129.692 142.584 131.16 142.602 133.234C142.584 135.335 141.178 136.812 139.209 136.82C137.267 136.812 135.852 135.335 135.852 133.234ZM137.082 133.234C137.082 134.623 137.97 135.616 139.209 135.607C140.457 135.616 141.371 134.623 141.371 133.234C141.371 131.863 140.457 130.861 139.209 130.844C137.97 130.861 137.082 131.863 137.082 133.234ZM143.938 139.65V125.184H145.239V131.389H147.313V124.797H148.631V140.424H147.313V132.531H145.239V139.65H143.938ZM26.7852 155.182V157.757C28.165 157.678 29.5537 157.555 30.8633 157.361L31.0215 158.803C27.4619 159.462 23.6475 159.497 20.8438 159.488L20.5977 157.906C21.8369 157.897 23.2959 157.889 24.834 157.845V155.182H26.7852ZM20.9668 154.215C23.3574 153.556 24.6758 151.982 24.79 150.207H21.4414V148.625H24.834V146.814H26.7852V148.625H30.2129V150.207H26.8115C26.917 151.903 28.2617 153.424 30.6523 154.039L29.7559 155.568C27.875 155.059 26.5303 153.96 25.8096 152.554C25.1152 154.03 23.7881 155.182 21.8984 155.691L20.9668 154.215ZM31.8125 162.582V146.674H33.7637V162.582H31.8125ZM50.2435 159.084V160.684H35.724V159.084H41.9994V155.797H43.933V159.084H50.2435ZM36.3216 154.812C39.767 154.364 41.8324 152.536 41.973 150.559H37.0072V148.977H41.9994V146.92H43.933V148.977H48.9427V150.559H43.9769C44.1088 152.536 46.1742 154.364 49.6107 154.812L48.89 156.342C46.1478 155.955 44.0209 154.733 42.9662 153.002C41.9203 154.733 39.8109 155.955 37.0599 156.342L36.3216 154.812ZM60.5274 148.273V161H58.2247V150.506H58.1544L55.1837 152.404V150.312L58.3302 148.273H60.5274ZM75.9702 146.674V162.564H74.019V146.674H75.9702ZM62.8041 158.152C64.0698 158.144 65.5024 158.144 67.0053 158.1V156.641C65.2211 156.359 64.0522 155.27 64.0522 153.758C64.0522 151.965 65.643 150.778 67.9545 150.77C70.2924 150.778 71.9096 151.965 71.9096 153.758C71.9096 155.261 70.7407 156.342 68.9565 156.632V158.029C70.3539 157.968 71.7602 157.854 73.0873 157.678L73.228 159.137C69.7387 159.726 65.9418 159.77 63.0854 159.77L62.8041 158.152ZM63.1381 150.049V148.502H67.0053V146.727H68.9565V148.502H72.8061V150.049H63.1381ZM65.9155 153.758C65.8979 154.672 66.7504 155.208 67.9545 155.199C69.1938 155.208 70.0375 154.672 70.0288 153.758C70.0375 152.835 69.1938 152.272 67.9545 152.264C66.7504 152.272 65.8979 152.835 65.9155 153.758ZM85.6564 147.271V148.994H92.5119V147.271H94.4455V153.723H90.0509V155.182H96.3263V156.764H81.842V155.182H88.0822V153.723H83.7228V147.271H85.6564ZM83.6349 162.248V157.783H85.5861V160.666H94.6916V162.248H83.6349ZM85.6564 152.158H92.5119V150.506H85.6564V152.158ZM110.275 146.691V158.17H108.306V146.691H110.275ZM97.3198 151.701C97.3198 149.39 99.1919 147.737 101.609 147.729C104.026 147.737 105.889 149.39 105.88 151.701C105.889 154.048 104.026 155.691 101.609 155.691C99.1919 155.691 97.3198 154.048 97.3198 151.701ZM99.2359 151.701C99.2271 153.107 100.247 153.986 101.609 153.986C102.936 153.986 103.964 153.107 103.964 151.701C103.964 150.33 102.936 149.434 101.609 149.434C100.247 149.434 99.2271 150.33 99.2359 151.701ZM99.7632 162.248V157.01H101.732V160.666H110.714V162.248H99.7632ZM125.472 146.691V158.17H123.503V146.691H125.472ZM112.516 151.701C112.516 149.39 114.389 147.737 116.806 147.729C119.223 147.737 121.086 149.39 121.077 151.701C121.086 154.048 119.223 155.691 116.806 155.691C114.389 155.691 112.516 154.048 112.516 151.701ZM114.433 151.701C114.424 153.107 115.443 153.986 116.806 153.986C118.133 153.986 119.161 153.107 119.161 151.701C119.161 150.33 118.133 149.434 116.806 149.434C115.443 149.434 114.424 150.33 114.433 151.701ZM114.96 162.248V157.01H116.929V160.666H125.911V162.248H114.96ZM141.916 154.074V155.656H127.432V154.074H141.916ZM128.135 151.824C131.079 151.534 132.995 150.356 133.294 149.029H128.75V147.43H140.615V149.029H136.028C136.318 150.339 138.216 151.534 141.231 151.824L140.545 153.371C137.654 153.072 135.518 151.921 134.656 150.312C133.795 151.921 131.686 153.072 128.803 153.371L128.135 151.824ZM129.119 159.629C129.119 157.783 131.202 156.711 134.656 156.711C138.084 156.711 140.15 157.783 140.158 159.629C140.15 161.501 138.084 162.547 134.656 162.547C131.202 162.547 129.119 161.501 129.119 159.629ZM131.106 159.629C131.097 160.552 132.345 161.009 134.656 161.018C136.933 161.009 138.19 160.552 138.207 159.629C138.19 158.706 136.933 158.24 134.656 158.24C132.345 158.24 131.097 158.706 131.106 159.629ZM155.619 146.797V162.459H154.23V146.797H155.619ZM143.314 153.459C143.323 150.137 144.975 148.019 147.304 148.01C149.625 148.019 151.303 150.137 151.295 153.459C151.303 156.79 149.625 158.899 147.304 158.891C144.975 158.899 143.323 156.79 143.314 153.459ZM144.65 153.459C144.65 155.999 145.74 157.669 147.304 157.66C148.878 157.669 149.959 155.999 149.959 153.459C149.959 150.919 148.878 149.249 147.304 149.24C145.74 149.249 144.65 150.919 144.65 153.459ZM175.008 146.797V154.918H173.619V146.797H175.008ZM162.352 153.213C162.976 153.213 163.653 153.204 164.356 153.195V148.977H162.791V147.869H171.246V148.977H169.664V152.984C170.473 152.923 171.264 152.844 172.02 152.756L172.09 153.775C168.961 154.241 165.287 154.364 162.528 154.355L162.352 153.213ZM164.778 156.781V155.674H175.008V159.4H166.184V161.123H175.606V162.248H164.83V158.363H173.637V156.781H164.778ZM165.692 153.169C166.553 153.143 167.441 153.116 168.328 153.063V148.977H165.692V153.169ZM191.593 159.26V160.42H177.285V159.26H180.836V155.05C179.5 154.355 178.691 153.23 178.691 151.807C178.691 149.39 181.064 147.799 184.404 147.781C187.744 147.799 190.117 149.39 190.117 151.807C190.117 153.204 189.335 154.312 188.043 155.006V159.26H191.593ZM180.027 151.807C180.018 153.556 181.838 154.725 184.404 154.725C186.944 154.725 188.781 153.556 188.781 151.807C188.781 150.058 186.944 148.906 184.404 148.924C181.838 148.906 180.018 150.058 180.027 151.807ZM182.189 159.26H186.654V155.542C185.977 155.718 185.221 155.814 184.404 155.814C183.604 155.814 182.857 155.727 182.189 155.551V159.26ZM204.698 146.797V150.805H207.054V151.982H204.698V155.885H203.327V146.797H204.698ZM192.517 149.557V148.414H196.489V146.656H197.86V148.414H201.833V149.557H192.517ZM193.413 153.02C193.404 151.35 194.907 150.286 197.175 150.277C199.416 150.286 200.919 151.35 200.937 153.02C200.919 154.689 199.416 155.771 197.175 155.762C194.907 155.771 193.404 154.689 193.413 153.02ZM194.731 153.02C194.723 154.039 195.698 154.707 197.175 154.707C198.634 154.707 199.618 154.039 199.636 153.02C199.618 152.009 198.634 151.332 197.175 151.35C195.698 151.332 194.723 152.009 194.731 153.02ZM194.819 162.213V156.57H196.19V158.24H203.327V156.57H204.698V162.213H194.819ZM196.19 161.105H203.327V159.33H196.19V161.105ZM220.563 146.797V162.424H219.192V146.797H220.563ZM208.698 158.398V148.344H210.051V157.203C212.442 157.186 214.903 157.001 217.522 156.447L217.715 157.625C214.938 158.205 212.468 158.398 209.963 158.398H208.698ZM234.969 146.797V152.984H237.588V154.145H234.969V162.459H233.597V146.797H234.969ZM223.56 158.539V148.326H230.855V149.469H224.931V157.379C227.761 157.37 229.757 157.247 232.086 156.816L232.261 158.012C229.809 158.451 227.761 158.539 224.791 158.539H223.56ZM239.724 161.105C239.109 161.097 238.581 160.587 238.599 159.963C238.581 159.348 239.109 158.838 239.724 158.838C240.348 158.838 240.858 159.348 240.849 159.963C240.858 160.587 240.348 161.097 239.724 161.105Z" fill="#555555"/>
<rect x="20" y="196" width="360" height="134" rx="14" fill="#F9F9F9"/>
<path d="M45.6953 232.273V245H44.0957V233.926H44.0254L40.9316 235.982V234.383L44.0957 232.273H45.6953ZM49.0619 245.105C48.4466 245.097 47.9193 244.587 47.9369 243.963C47.9193 243.348 48.4466 242.838 49.0619 242.838C49.6859 242.838 50.1957 243.348 50.1869 243.963C50.1957 244.587 49.6859 245.097 49.0619 245.105ZM59.0118 231.43V233.416H66.7462V231.43H68.1173V237.67H63.547V239.34H69.9805V240.482H55.7423V239.34H62.1759V237.67H57.6407V231.43H59.0118ZM57.588 246.09V241.73H58.9766V244.93H68.3985V246.09H57.588ZM59.0118 236.562H66.7462V234.506H59.0118V236.562ZM83.8412 230.814V242.24H82.4702V230.814H83.8412ZM71.308 235.736C71.2993 233.486 73.0659 231.913 75.4037 231.904C77.7416 231.913 79.4907 233.486 79.4995 235.736C79.4907 238.013 77.7416 239.595 75.4037 239.586C73.0659 239.595 71.2993 238.013 71.308 235.736ZM72.6616 235.736C72.644 237.292 73.8217 238.373 75.4037 238.373C76.9594 238.373 78.1459 237.292 78.1459 235.736C78.1459 234.207 76.9594 233.117 75.4037 233.117C73.8217 233.117 72.644 234.207 72.6616 235.736ZM73.7514 246.09V241.08H75.1225V244.93H84.3334V246.09H73.7514ZM99.0906 230.797V240.061H97.702V237.6H94.0457V238.936H86.8738V231.992H94.0457V233.346H97.702V230.797H99.0906ZM88.2449 237.811H92.6922V233.117H88.2449V237.811ZM88.6668 243.471C88.658 241.59 90.6531 240.509 93.9051 240.518C97.1482 240.509 99.1434 241.59 99.1434 243.471C99.1434 245.334 97.1482 246.389 93.9051 246.389C90.6531 246.389 88.658 245.334 88.6668 243.471ZM90.0379 243.471C90.0291 244.604 91.5057 245.299 93.9051 245.299C96.2957 245.299 97.7723 244.604 97.7723 243.471C97.7723 242.293 96.2957 241.607 93.9051 241.59C91.5057 241.607 90.0291 242.293 90.0379 243.471ZM94.0457 236.439H97.702V234.488H94.0457V236.439ZM106.447 231.939C108.9 231.948 110.64 233.442 110.649 235.613C110.64 237.793 108.9 239.278 106.447 239.287C103.978 239.278 102.22 237.793 102.229 235.613C102.22 233.442 103.978 231.948 106.447 231.939ZM101.42 241.836C104.303 241.845 108.284 241.818 111.738 241.309L111.844 242.328C108.267 242.996 104.426 243.014 101.613 243.014L101.42 241.836ZM103.582 235.613C103.573 237.072 104.778 238.074 106.447 238.074C108.1 238.074 109.304 237.072 109.295 235.613C109.304 234.163 108.1 233.152 106.447 233.152C104.778 233.152 103.573 234.163 103.582 235.613ZM112.776 246.459V230.797H114.147V246.459H112.776ZM133.606 230.797V246.424H132.218V230.797H133.606ZM120.88 242.363C125.107 240.359 127.269 237.362 127.577 233.627H121.6V232.502H128.983C128.966 236.993 126.874 240.975 121.636 243.488L120.88 242.363ZM148.803 230.797V246.424H147.414V230.797H148.803ZM136.076 242.363C140.304 240.359 142.466 237.362 142.774 233.627H136.797V232.502H144.18C144.162 236.993 142.071 240.975 136.832 243.488L136.076 242.363ZM165.388 243.33V244.49H151.08V243.33H157.513V240.377H152.873V235.561H162.224V233.1H152.838V231.957H163.578V236.686H154.244V239.234H163.947V240.377H158.867V243.33H165.388ZM183.336 230.814V242.24H181.965V230.814H183.336ZM170.803 235.736C170.794 233.486 172.561 231.913 174.899 231.904C177.237 231.913 178.986 233.486 178.994 235.736C178.986 238.013 177.237 239.595 174.899 239.586C172.561 239.595 170.794 238.013 170.803 235.736ZM172.157 235.736C172.139 237.292 173.317 238.373 174.899 238.373C176.454 238.373 177.641 237.292 177.641 235.736C177.641 234.207 176.454 233.117 174.899 233.117C173.317 233.117 172.139 234.207 172.157 235.736ZM173.246 246.09V241.08H174.617V244.93H183.828V246.09H173.246ZM199.869 238.232V239.375H185.631V238.232H199.869ZM186.439 236.193C189.164 235.877 191.792 234.532 191.853 232.748H186.931V231.605H198.603V232.748H193.646C193.708 234.515 196.309 235.877 199.078 236.193L198.568 237.301C196.01 236.976 193.611 235.824 192.75 234.093C191.888 235.824 189.507 236.976 186.931 237.301L186.439 236.193ZM187.353 243.576C187.344 241.783 189.375 240.746 192.75 240.746C196.098 240.746 198.111 241.783 198.129 243.576C198.111 245.387 196.098 246.389 192.75 246.389C189.375 246.389 187.344 245.387 187.353 243.576ZM188.759 243.576C188.742 244.666 190.245 245.29 192.75 245.281C195.228 245.29 196.731 244.666 196.74 243.576C196.731 242.478 195.228 241.854 192.75 241.836C190.245 241.854 188.742 242.478 188.759 243.576ZM207.946 231.078C211.418 231.078 213.457 232.036 213.466 233.768C213.457 235.543 211.418 236.501 207.946 236.51C204.457 236.501 202.409 235.543 202.409 233.768C202.409 232.036 204.457 231.078 207.946 231.078ZM200.827 238.689V237.564H215.065V238.689H200.827ZM202.55 241.098V240.043H213.237V243.541H203.956V245.158H213.712V246.248H202.585V242.521H211.884V241.098H202.55ZM203.851 233.768C203.833 234.857 205.354 235.455 207.946 235.455C210.539 235.455 212.051 234.857 212.06 233.768C212.051 232.739 210.539 232.124 207.946 232.115C205.354 232.124 203.833 232.739 203.851 233.768ZM232.398 230.797V234.805H234.754V235.982H232.398V239.885H231.027V230.797H232.398ZM220.217 233.557V232.414H224.189V230.656H225.56V232.414H229.533V233.557H220.217ZM221.113 237.02C221.104 235.35 222.607 234.286 224.875 234.277C227.116 234.286 228.619 235.35 228.636 237.02C228.619 238.689 227.116 239.771 224.875 239.762C222.607 239.771 221.104 238.689 221.113 237.02ZM222.431 237.02C222.423 238.039 223.398 238.707 224.875 238.707C226.334 238.707 227.318 238.039 227.336 237.02C227.318 236.009 226.334 235.332 224.875 235.35C223.398 235.332 222.423 236.009 222.431 237.02ZM222.519 246.213V240.57H223.89V242.24H231.027V240.57H232.398V246.213H222.519ZM223.89 245.105H231.027V243.33H223.89V245.105ZM248.263 230.797V246.424H246.892V230.797H248.263ZM236.398 242.398V232.344H237.751V241.203C240.142 241.186 242.603 241.001 245.222 240.447L245.415 241.625C242.638 242.205 240.168 242.398 237.663 242.398H236.398ZM262.668 230.797V236.984H265.288V238.145H262.668V246.459H261.297V230.797H262.668ZM251.26 242.539V232.326H258.555V233.469H252.631V241.379C255.461 241.37 257.457 241.247 259.786 240.816L259.961 242.012C257.509 242.451 255.461 242.539 252.491 242.539H251.26ZM267.424 245.105C266.808 245.097 266.281 244.587 266.299 243.963C266.281 243.348 266.808 242.838 267.424 242.838C268.048 242.838 268.557 243.348 268.549 243.963C268.557 244.587 268.048 245.097 267.424 245.105Z" fill="#555555"/>
<path d="M41.1953 293L41.1777 291.84L45.5195 287.27C47.0225 285.67 47.7432 284.809 47.752 283.631C47.7432 282.321 46.6533 281.478 45.2207 281.469C43.7002 281.478 42.751 282.436 42.7422 283.859H41.248C41.2305 281.609 42.9707 280.098 45.2734 280.098C47.585 280.098 49.2197 281.653 49.2285 283.631C49.2197 285.055 48.5605 286.162 46.3105 288.482L43.3926 291.488V291.594H49.457V293H41.1953ZM52.4896 293.105C51.8744 293.097 51.347 292.587 51.3646 291.963C51.347 291.348 51.8744 290.838 52.4896 290.838C53.1136 290.838 53.6234 291.348 53.6146 291.963C53.6234 292.587 53.1136 293.097 52.4896 293.105ZM71.3868 278.814V283.965H73.7423V285.125H71.3868V290.521H70.0157V278.814H71.3868ZM59.2052 281.855V280.73H63.1778V278.814H64.5489V280.73H68.5216V281.855H59.2052ZM60.1016 285.635C60.0929 283.859 61.6046 282.717 63.8634 282.717C66.0958 282.717 67.6075 283.859 67.6251 285.635C67.6075 287.393 66.0958 288.526 63.8634 288.518C61.6046 288.526 60.0929 287.393 60.1016 285.635ZM61.42 285.635C61.4112 286.733 62.3868 287.445 63.8634 287.428C65.3223 287.445 66.3067 286.733 66.3243 285.635C66.3067 284.519 65.3223 283.798 63.8634 283.807C62.3868 283.798 61.4112 284.519 61.42 285.635ZM61.6134 294.09V289.59H62.9669V292.93H72.1075V294.09H61.6134ZM83.7625 282.998C83.7625 285.749 85.5818 288.588 87.8055 289.678L86.9617 290.785C85.2391 289.889 83.7977 288.034 83.1033 285.863C82.409 288.166 80.9324 290.144 79.1746 291.084L78.2957 289.977C80.5809 288.852 82.3914 285.854 82.409 282.998V280.15H83.7625V282.998ZM89.2469 294.424V278.797H90.618V285.143H93.2371V286.338H90.618V294.424H89.2469ZM105.938 278.814V282.822H108.311V284H105.938V288.131H104.567V278.814H105.938ZM94.3888 280.801V279.658H101.473V283.93H95.7775V286.145C98.5548 286.153 100.568 286.065 103.002 285.67L103.143 286.777C100.638 287.217 98.5461 287.305 95.6369 287.305H94.424V282.857H100.119V280.801H94.3888ZM96.0412 294.213V288.904H105.938V294.213H96.0412ZM97.3947 293.088H104.602V289.977H97.3947V293.088ZM121.152 278.797V282.875H123.49V284.035H121.152V288.131H119.763V278.797H121.152ZM109.638 286.848V279.992H116.582V281.135H110.992V285.723C114.156 285.705 115.975 285.608 118.076 285.178L118.216 286.32C116.028 286.76 114.156 286.848 110.851 286.848H109.638ZM110.939 291.4C110.948 289.528 112.934 288.438 116.125 288.43C119.315 288.438 121.275 289.528 121.275 291.4C121.275 293.299 119.315 294.389 116.125 294.389C112.934 294.389 110.948 293.299 110.939 291.4ZM112.293 291.4C112.301 292.561 113.769 293.272 116.125 293.281C118.462 293.272 119.948 292.561 119.939 291.4C119.948 290.249 118.462 289.555 116.125 289.572C113.769 289.555 112.301 290.249 112.293 291.4ZM140.489 278.814V283.965H142.844V285.125H140.489V290.521H139.117V278.814H140.489ZM128.307 281.855V280.73H132.28V278.814H133.651V280.73H137.623V281.855H128.307ZM129.203 285.635C129.195 283.859 130.706 282.717 132.965 282.717C135.198 282.717 136.709 283.859 136.727 285.635C136.709 287.393 135.198 288.526 132.965 288.518C130.706 288.526 129.195 287.393 129.203 285.635ZM130.522 285.635C130.513 286.733 131.489 287.445 132.965 287.428C134.424 287.445 135.408 286.733 135.426 285.635C135.408 284.519 134.424 283.798 132.965 283.807C131.489 283.798 130.513 284.519 130.522 285.635ZM130.715 294.09V289.59H132.069V292.93H141.209V294.09H130.715ZM160.546 278.797V294.424H159.157V278.797H160.546ZM147.819 290.363C152.047 288.359 154.209 285.362 154.517 281.627H148.54V280.502H155.923C155.905 284.993 153.813 288.975 148.575 291.488L147.819 290.363ZM175.743 278.797V294.424H174.354V278.797H175.743ZM163.016 290.363C167.243 288.359 169.406 285.362 169.713 281.627H163.737V280.502H171.119C171.102 284.993 169.01 288.975 163.772 291.488L163.016 290.363ZM185.912 280.221V287.41H178.687V280.221H185.912ZM180.041 286.303H184.576V281.346H180.041V286.303ZM180.463 294.09V289.168H181.816V292.93H190.957V294.09H180.463ZM188.865 290.258V278.797H190.236V283.561H192.591V284.721H190.236V290.258H188.865ZM210.276 278.814V290.24H208.905V278.814H210.276ZM197.743 283.736C197.734 281.486 199.5 279.913 201.838 279.904C204.176 279.913 205.925 281.486 205.934 283.736C205.925 286.013 204.176 287.595 201.838 287.586C199.5 287.595 197.734 286.013 197.743 283.736ZM199.096 283.736C199.079 285.292 200.256 286.373 201.838 286.373C203.394 286.373 204.58 285.292 204.58 283.736C204.58 282.207 203.394 281.117 201.838 281.117C200.256 281.117 199.079 282.207 199.096 283.736ZM200.186 294.09V289.08H201.557V292.93H210.768V294.09H200.186ZM226.808 286.232V287.375H212.57V286.232H226.808ZM213.379 284.193C216.103 283.877 218.731 282.532 218.793 280.748H213.871V279.605H225.543V280.748H220.586C220.647 282.515 223.249 283.877 226.017 284.193L225.508 285.301C222.95 284.976 220.551 283.824 219.689 282.093C218.828 283.824 216.446 284.976 213.871 285.301L213.379 284.193ZM214.293 291.576C214.284 289.783 216.314 288.746 219.689 288.746C223.038 288.746 225.051 289.783 225.068 291.576C225.051 293.387 223.038 294.389 219.689 294.389C216.314 294.389 214.284 293.387 214.293 291.576ZM215.699 291.576C215.681 292.666 217.184 293.29 219.689 293.281C222.168 293.29 223.671 292.666 223.679 291.576C223.671 290.478 222.168 289.854 219.689 289.836C217.184 289.854 215.681 290.478 215.699 291.576ZM240.651 278.797V294.459H239.263V278.797H240.651ZM228.347 285.459C228.356 282.137 230.008 280.019 232.337 280.01C234.657 280.019 236.336 282.137 236.327 285.459C236.336 288.79 234.657 290.899 232.337 290.891C230.008 290.899 228.356 288.79 228.347 285.459ZM229.683 285.459C229.683 287.999 230.773 289.669 232.337 289.66C233.91 289.669 234.991 287.999 234.991 285.459C234.991 282.919 233.91 281.249 232.337 281.24C230.773 281.249 229.683 282.919 229.683 285.459ZM259.215 278.797V285.16H261.746V286.32H259.215V294.424H257.844V278.797H259.215ZM247.226 290.363C251.261 288.359 253.458 285.345 253.774 281.645H247.947V280.484H255.172C255.163 284.905 253.089 288.939 248 291.453L247.226 290.363ZM274.939 283.174V284.316H264.269V279.113H265.64V283.174H274.939ZM262.318 287.287V286.145H276.573V287.287H262.318ZM264.04 291.523C264.031 289.704 266.062 288.685 269.437 288.693C272.785 288.685 274.798 289.704 274.816 291.523C274.798 293.334 272.785 294.354 269.437 294.354C266.062 294.354 264.031 293.334 264.04 291.523ZM265.446 291.523C265.429 292.613 266.932 293.272 269.437 293.281C271.915 293.272 273.418 292.613 273.427 291.523C273.418 290.416 271.915 289.792 269.437 289.783C266.932 289.792 265.429 290.416 265.446 291.523ZM289.731 278.797V282.805H292.086V283.982H289.731V287.885H288.36V278.797H289.731ZM277.549 281.557V280.414H281.522V278.656H282.893V280.414H286.866V281.557H277.549ZM278.446 285.02C278.437 283.35 279.94 282.286 282.208 282.277C284.449 282.286 285.952 283.35 285.969 285.02C285.952 286.689 284.449 287.771 282.208 287.762C279.94 287.771 278.437 286.689 278.446 285.02ZM279.764 285.02C279.755 286.039 280.731 286.707 282.208 286.707C283.667 286.707 284.651 286.039 284.669 285.02C284.651 284.009 283.667 283.332 282.208 283.35C280.731 283.332 279.755 284.009 279.764 285.02ZM279.852 294.213V288.57H281.223V290.24H288.36V288.57H289.731V294.213H279.852ZM281.223 293.105H288.36V291.33H281.223V293.105ZM305.596 278.797V294.424H304.225V278.797H305.596ZM293.73 290.398V280.344H295.084V289.203C297.475 289.186 299.935 289.001 302.555 288.447L302.748 289.625C299.971 290.205 297.501 290.398 294.996 290.398H293.73ZM320.001 278.797V284.984H322.62V286.145H320.001V294.459H318.63V278.797H320.001ZM308.593 290.539V280.326H315.888V281.469H309.964V289.379C312.794 289.37 314.789 289.247 317.118 288.816L317.294 290.012C314.842 290.451 312.794 290.539 309.824 290.539H308.593ZM324.756 293.105C324.141 293.097 323.614 292.587 323.631 291.963C323.614 291.348 324.141 290.838 324.756 290.838C325.38 290.838 325.89 291.348 325.881 291.963C325.89 292.587 325.38 293.097 324.756 293.105Z" fill="#555555"/>
</svg>
