<svg width="400" height="246" viewBox="0 0 400 246" fill="none" xmlns="http://www.w3.org/2000/svg">
<rect width="400" height="246" fill="white"/>
<rect x="40" width="320" height="110" rx="12" fill="#EF403C"/>
<path d="M82.2291 56.7512C85.6953 56.7512 88.5051 53.9414 88.5051 50.4752C88.5051 47.0091 85.6953 44.1992 82.2291 44.1992C78.763 44.1992 75.9531 47.0091 75.9531 50.4752C75.9531 53.9414 78.763 56.7512 82.2291 56.7512Z" stroke="white" stroke-width="2" stroke-linecap="round" stroke-linejoin="round"/>
<path d="M72.4004 65.7994C72.8128 60.7338 77.0566 56.75 82.2298 56.75C87.403 56.75 91.5512 60.6441 92.0443 65.632" stroke="white" stroke-width="2" stroke-linecap="round" stroke-linejoin="round"/>
<path d="M122.981 44.8984V66.0859H120.473V55.2109H118.2V65.1016H115.763V45.4609H118.2V53.1016H120.473V44.8984H122.981ZM104.63 59.8516C109.141 57.25 111.052 53.8984 111.427 49.6562H105.614V47.5703H113.958C113.958 53.3008 112.153 58.2227 106.13 61.6562L104.63 59.8516ZM142.704 44.9219V60.2266H140.079V44.9219H142.704ZM125.431 51.6016C125.431 48.5195 127.927 46.3164 131.15 46.3047C134.372 46.3164 136.857 48.5195 136.845 51.6016C136.857 54.7305 134.372 56.9219 131.15 56.9219C127.927 56.9219 125.431 54.7305 125.431 51.6016ZM127.986 51.6016C127.974 53.4766 129.333 54.6484 131.15 54.6484C132.919 54.6484 134.29 53.4766 134.29 51.6016C134.29 49.7734 132.919 48.5781 131.15 48.5781C129.333 48.5781 127.974 49.7734 127.986 51.6016ZM128.689 65.6641V58.6797H131.314V63.5547H143.29V65.6641H128.689ZM162.662 45.0625V56.2422H160.834V45.0625H162.662ZM145.951 50.875C145.939 48.0273 148.248 46.0703 151.412 46.0938C154.576 46.0703 156.861 48.0273 156.873 50.875C156.861 53.7109 154.576 55.668 151.412 55.6562C148.248 55.668 145.939 53.7109 145.951 50.875ZM147.756 50.875C147.732 52.7734 149.267 54.1211 151.412 54.1328C153.533 54.1211 155.068 52.7734 155.068 50.875C155.068 48.9648 153.533 47.6289 151.412 47.6406C149.267 47.6289 147.732 48.9648 147.756 50.875ZM149.162 65.6172V57.2969H150.99V59.8281H160.834V57.2969H162.662V65.6172H149.162ZM150.99 64.1172H160.834V61.3047H150.99V64.1172ZM182.901 45.0625V65.8984H181.073V45.0625H182.901ZM167.08 60.5312V47.125H168.885V58.9375C172.073 58.9141 175.354 58.668 178.846 57.9297L179.104 59.5C175.401 60.2734 172.108 60.5312 168.768 60.5312H167.08ZM202.483 45.0625V53.6641H205.647V55.2109H202.483V65.8984H200.632V45.0625H202.483ZM185.913 60.1328C189.053 56.9102 190.331 53.0312 190.565 48.8828H186.569V47.3359H192.311C192.288 52.293 191.175 57.1914 187.389 61.1875L185.913 60.1328ZM191.889 61.5391C195.147 57.8594 196.12 53.2305 196.296 48.8828H192.967V47.3359H198.03C198.018 52.2812 197.292 58.0352 193.389 62.5703L191.889 61.5391ZM209.573 59.1016C209.597 55.9609 210.558 55 212.175 54.0156C213.148 53.4297 213.886 52.4922 213.886 51.1797C213.886 49.5859 212.644 48.5664 211.097 48.5781C209.761 48.5664 208.413 49.3633 208.284 51.2969H206.152C206.269 48.4492 208.413 46.7969 211.097 46.7969C214.038 46.7969 215.948 48.6836 215.948 51.2734C215.948 53.1133 215.081 54.3906 213.628 55.2812C212.163 56.1719 211.636 57.0742 211.589 59.1016V59.2188H209.573V59.1016ZM209.152 62.6172C209.128 61.7969 209.831 61.1172 210.652 61.1172C211.484 61.1172 212.163 61.7969 212.152 62.6172C212.163 63.4492 211.484 64.1289 210.652 64.1406C209.831 64.1289 209.128 63.4492 209.152 62.6172Z" fill="white"/>
<path d="M304.799 55.4805H326.198" stroke="white" stroke-width="2" stroke-linecap="round" stroke-linejoin="round"/>
<path d="M319.199 48.4805L326.199 55.4805L319.199 62.4805" stroke="white" stroke-width="2" stroke-linecap="round" stroke-linejoin="round"/>
<rect x="40" y="126" width="320" height="90" rx="12" fill="#EEEEEE"/>
<g clip-path="url(#clip0_574_640)">
<path d="M71.1992 181.801H92.7992" stroke="#323C59" stroke-width="2" stroke-linecap="round" stroke-linejoin="round"/>
<path d="M81.0391 163.799L90.8343 167.399L90.8376 181.799" stroke="#323C59" stroke-width="2" stroke-linecap="round" stroke-linejoin="round"/>
<path d="M81.0121 181.799V160.199L73.1641 163.472V181.799" stroke="#323C59" stroke-width="2" stroke-linecap="round" stroke-linejoin="round"/>
<path d="M84.2637 169.471V178.526" stroke="#323C59" stroke-width="2" stroke-linecap="round" stroke-linejoin="round"/>
<path d="M87.4883 169.471V178.526" stroke="#323C59" stroke-width="2" stroke-linecap="round" stroke-linejoin="round"/>
<path d="M76.1074 167.07H78.0711" stroke="#323C59" stroke-width="2" stroke-linecap="round" stroke-linejoin="round"/>
<path d="M76.1074 170.998H78.0711" stroke="#323C59" stroke-width="2" stroke-linecap="round" stroke-linejoin="round"/>
</g>
<path d="M120.826 175.812V177.59H104.693V175.812H108.423V171.35C107.017 170.539 106.168 169.27 106.177 167.707C106.168 164.895 108.921 163.039 112.72 163.039C116.539 163.039 119.312 164.895 119.302 167.707C119.312 169.25 118.482 170.49 117.115 171.301V175.812H120.826ZM108.306 167.707C108.296 169.514 110.084 170.666 112.72 170.656C115.347 170.666 117.173 169.514 117.173 167.707C117.173 165.871 115.347 164.748 112.72 164.758C110.084 164.748 108.296 165.871 108.306 167.707ZM110.572 175.812H114.908V172.131C114.234 172.277 113.502 172.355 112.72 172.355C111.959 172.355 111.236 172.277 110.572 172.141V175.812ZM137.906 164.445V166.223H135.504V168.234H137.906V170.031H135.504V172.453H133.336V162.082H135.504V164.445H137.906ZM121.773 167.316C121.764 164.826 123.814 163.078 126.539 163.098C129.254 163.078 131.285 164.826 131.305 167.316C131.285 169.797 129.254 171.545 126.539 171.555C123.814 171.545 121.764 169.797 121.773 167.316ZM123.785 176.301C123.785 174.143 126.109 172.873 129.762 172.863C133.385 172.873 135.67 174.143 135.68 176.301C135.67 178.439 133.385 179.719 129.762 179.719C126.109 179.719 123.785 178.439 123.785 176.301ZM123.902 167.316C123.893 168.781 125.016 169.709 126.539 169.719C128.043 169.709 129.166 168.781 129.176 167.316C129.166 165.861 128.043 164.904 126.539 164.914C125.016 164.904 123.893 165.861 123.902 167.316ZM125.953 176.301C125.953 177.414 127.34 177.98 129.762 177.98C132.174 177.98 133.531 177.414 133.531 176.301C133.531 175.197 132.174 174.602 129.762 174.602C127.34 174.602 125.953 175.197 125.953 176.301ZM153.209 162.082V179.738H151.022V162.082H153.209ZM138.58 174.875C143.209 172.678 145.338 169.689 145.729 165.676H139.479V163.957H147.936C147.936 169.211 145.895 173.674 139.713 176.613L138.58 174.875ZM165.212 163.391V164.445C165.192 165.646 165.192 167.404 164.782 169.641L162.634 169.445C162.985 167.629 163.054 166.271 163.073 165.188H156.208V163.391H165.212ZM155.153 171.047C156.198 171.037 157.37 171.027 158.61 171.008V167.414H160.759V170.939C162.585 170.861 164.46 170.725 166.169 170.48L166.286 172.043C162.614 172.707 158.444 172.775 155.348 172.785L155.153 171.047ZM157.79 179.387V174.133H159.977V177.629H169.997V179.387H157.79ZM167.204 175.305V162.082H169.43V167.59H171.716V169.406H169.43V175.305H167.204ZM186.687 162.219V171.535H185.163V162.219H186.687ZM172.761 167.062C172.751 164.689 174.675 163.059 177.312 163.078C179.948 163.059 181.853 164.689 181.863 167.062C181.853 169.426 179.948 171.057 177.312 171.047C174.675 171.057 172.751 169.426 172.761 167.062ZM174.265 167.062C174.245 168.645 175.525 169.768 177.312 169.777C179.079 169.768 180.359 168.645 180.359 167.062C180.359 165.471 179.079 164.357 177.312 164.367C175.525 164.357 174.245 165.471 174.265 167.062ZM175.437 179.348V172.414H176.96V174.523H185.163V172.414H186.687V179.348H175.437ZM176.96 178.098H185.163V175.754H176.96V178.098ZM203.552 162.219V179.582H202.029V162.219H203.552ZM190.369 175.109V163.938H191.873V173.781C194.529 173.762 197.263 173.557 200.173 172.941L200.388 174.25C197.302 174.895 194.558 175.109 191.775 175.109H190.369ZM219.871 162.219V169.387H222.508V170.676H219.871V179.582H218.328V162.219H219.871ZM206.062 174.777C208.68 172.092 209.744 168.859 209.939 165.402H206.609V164.113H211.395C211.375 168.244 210.447 172.326 207.293 175.656L206.062 174.777ZM211.043 175.949C213.758 172.883 214.568 169.025 214.715 165.402H211.941V164.113H216.16C216.15 168.234 215.545 173.029 212.293 176.809L211.043 175.949ZM225.78 173.918C225.799 171.301 226.6 170.5 227.948 169.68C228.758 169.191 229.373 168.41 229.373 167.316C229.373 165.988 228.338 165.139 227.049 165.148C225.936 165.139 224.813 165.803 224.705 167.414H222.928C223.026 165.041 224.813 163.664 227.049 163.664C229.5 163.664 231.092 165.236 231.092 167.395C231.092 168.928 230.37 169.992 229.159 170.734C227.938 171.477 227.498 172.229 227.459 173.918V174.016H225.78V173.918ZM225.428 176.848C225.409 176.164 225.995 175.598 226.678 175.598C227.371 175.598 227.938 176.164 227.928 176.848C227.938 177.541 227.371 178.107 226.678 178.117C225.995 178.107 225.409 177.541 225.428 176.848Z" fill="#323C59"/>
<path d="M304.799 171.48H326.198" stroke="#323C59" stroke-width="2" stroke-linecap="round" stroke-linejoin="round"/>
<path d="M319.199 164.48L326.199 171.48L319.199 178.48" stroke="#323C59" stroke-width="2" stroke-linecap="round" stroke-linejoin="round"/>
<defs>
<clipPath id="clip0_574_640">
<rect width="24" height="24" fill="white" transform="translate(70 159)"/>
</clipPath>
</defs>
</svg>
