<svg width="450" height="730" viewBox="0 0 450 730" fill="none" xmlns="http://www.w3.org/2000/svg">
<rect width="450" height="730" fill="#F0F2F6"/>
<g clip-path="url(#clip0_250_1600)">
<path d="M88.5993 58.7791H84.7642V53.4434H88.5993V58.7791ZM90.9825 59.1126V51.959H82.377V59.1126C82.377 59.747 82.8934 60.2635 83.5319 60.2676H89.8275C90.466 60.2676 90.9825 59.7511 90.9825 59.1126ZM95.7285 51.6133H93.3453V63.1144H95.7285V51.6133ZM90.6571 66.254C89.1727 66.254 87.9933 66.1605 87.3548 65.9775C86.7285 65.8067 86.3991 65.5017 86.3991 65.0909V62.3336H84.0159V65.0909C84.0159 65.4895 84.0688 66.4371 84.8862 66.9942C85.7403 67.5961 89.128 67.7832 90.5758 67.7832H90.6531C92.0277 67.7832 94.5857 67.5188 95.8668 67.2016V65.6765C95.2649 65.8148 93.1623 66.254 90.6531 66.254" fill="#030000"/>
<path d="M75.3094 55.2979C75.3094 56.3146 75.1142 57.4289 75.0003 57.7502L77.2005 57.7584C77.6072 57.0344 77.6926 55.7086 77.6967 55.2938V55.2532V53.1099C77.6967 52.4755 77.1802 51.959 76.5417 51.959H65.6994V53.4434H75.3135V55.2938L75.3094 55.2979ZM79.1364 59.2428V57.7584H64.1621V59.2428H70.6122V61.5487H65.6384V63.0331H75.2728V67.4945H77.656V62.6955C77.656 62.0611 77.1395 61.5446 76.5051 61.5446H72.9994V59.2387H79.1404L79.1364 59.2428Z" fill="#030000"/>
<path d="M136.999 60.0277H136.99C136.409 59.9179 136.185 59.5193 136.185 59.1696C136.185 59.1614 136.185 59.1533 136.185 59.1452V56.4488H142.741V59.1452V59.1655C142.741 59.5193 142.517 59.9179 141.928 60.0317C141.403 60.1171 140.573 60.2147 139.463 60.2147C138.353 60.2147 137.515 60.1171 136.99 60.0277M140.663 65.1316V61.6748H140.679L140.793 61.6666C141.793 61.6097 142.656 61.4836 143.607 61.2762C143.644 61.2681 143.685 61.2559 143.729 61.2477C144.99 60.9671 145.116 60.1659 145.128 59.682V51.959H142.745V54.9603H136.189V51.959H133.802V59.6739C133.814 60.1456 133.936 60.9142 135.099 61.2152C136.169 61.4511 137.133 61.5975 138.154 61.6544L138.284 61.6666V65.1275H131.891V66.616H147.04V65.1275H140.667L140.663 65.1316ZM136.97 60.0114C136.97 60.0114 136.954 60.0073 136.946 60.0033C136.954 60.0033 136.962 60.0073 136.97 60.0114Z" fill="#030000"/>
<path d="M107.278 66.2581C105.793 66.2581 104.61 66.1646 103.976 65.9816C103.345 65.8108 103.02 65.5057 103.02 65.0909V62.3336H100.633V65.0909C100.633 65.4895 100.689 66.4371 101.507 66.9942C102.357 67.5961 105.749 67.7791 107.196 67.7791H107.274C108.648 67.7791 111.206 67.5148 112.488 67.1976V65.6765C111.886 65.8148 109.783 66.25 107.274 66.254M106.814 56.8148H109.958V63.1103H112.341V51.6133H109.958V55.3304H107.127C107.148 55.1474 107.16 54.9563 107.168 54.761V54.6268H107.176V53.114C107.176 52.4755 106.66 51.963 106.021 51.959H99.2742V53.4434H104.785V54.4845C104.785 55.9445 104.285 57.193 103.321 58.0756C102.381 58.9337 100.946 59.4339 99.2051 59.4583V60.9427C99.9697 60.9427 101.877 60.8939 103.581 60.1659C104.943 59.5803 106.212 58.5839 106.81 56.8148" fill="#030000"/>
<path d="M153.49 59.1534C152.254 59.1534 151.343 58.1489 151.343 56.9126C151.343 55.6762 152.25 54.6717 153.49 54.6717C154.731 54.6717 155.638 55.6762 155.638 56.9126C155.638 58.1489 154.731 59.1534 153.49 59.1534ZM159.749 51.6094V55.9731H157.891C157.699 55.3102 157.309 54.7124 156.756 54.2406H158.147V52.7562H154.661V51.2637H152.278V52.7562H148.793V54.2406H150.212C149.415 54.9239 148.956 55.8674 148.956 56.9126C148.956 58.9989 150.81 60.6907 153.494 60.6907C155.951 60.6907 157.691 59.2876 157.984 57.4616H159.753V60.5687H162.136V51.6134H159.753L159.749 51.6094ZM152.978 65.2253V63.3138H159.749V65.2497C159.749 65.6157 159.509 66.0264 158.879 66.124C158.875 66.124 158.867 66.124 158.854 66.1281C158.346 66.2094 157.533 66.2908 156.504 66.2908C155.475 66.2908 154.365 66.2054 153.852 66.124C153.218 66.0305 152.978 65.6116 152.978 65.2497C152.978 65.2415 152.978 65.2293 152.978 65.2253ZM150.591 65.754C150.603 66.2379 150.729 67.0269 151.961 67.3116C153.417 67.6288 154.966 67.7752 156.504 67.7752C158.118 67.7752 159.269 67.6451 160.558 67.3685C160.607 67.3482 160.668 67.3319 160.733 67.3197C161.994 67.0391 162.12 66.2379 162.132 65.754V61.8254H150.595V65.754H150.591Z" fill="#030000"/>
<path d="M123.042 66.7543C121.236 66.7543 120.02 65.7701 120.02 64.5541C120.02 63.3381 121.216 62.358 123.042 62.358C124.868 62.358 126.063 63.3422 126.063 64.5541C126.063 65.766 124.912 66.7543 123.042 66.7543ZM123.042 60.8207C119.727 60.8207 117.478 62.4922 117.478 64.5541C117.478 66.616 119.65 68.2875 123.042 68.2875C126.433 68.2875 128.609 66.616 128.609 64.5541C128.609 62.4922 126.368 60.8207 123.042 60.8207ZM128.398 54.5862V51.6133H126.015V60.5685H128.398V56.0706H130.513V54.5862H128.398ZM123.566 54.6228V54.4886H123.578V53.114C123.578 52.4755 123.062 51.963 122.424 51.963H115.672V53.4474H121.183V54.3584C121.183 55.8144 120.679 57.0019 119.715 57.8153C118.776 58.6042 117.34 59.0313 115.607 59.0516V60.5401H115.88C116.832 60.5401 118.767 60.4791 120.406 59.7145C122.053 58.9418 123.473 57.4899 123.57 54.6268" fill="#030000"/>
<path d="M49.5702 63.6712L49.5491 62.7461C45.9469 62.7367 44.3683 60.4812 44.3543 58.652C44.3402 57.2491 45.3052 55.7619 46.9048 55.7478C48.2539 55.7361 48.9284 56.8018 48.9284 56.8018C48.9284 56.8018 49.4929 55.7174 50.9895 55.7033C52.0551 55.694 53.4909 56.591 53.5096 58.6684C53.526 60.6218 52.1184 62.7624 49.5725 63.6712M48.8769 51.0004C43.9889 51.0425 39.9605 54.6189 40.0003 59.2305C40.019 61.5328 41.2065 63.8843 43.3191 65.4348L42.771 68.0884C53.0833 71.0629 57.9338 63.5658 57.894 59.0924C57.8565 54.5323 53.8515 50.9582 48.8769 51.0004Z" fill="#EF403C"/>
<path d="M49.6553 67.2084L49.571 63.6718C48.0159 64.2269 46.0368 64.323 43.6947 63.6367L43.3223 65.4355C44.9313 66.6159 47.0743 67.3326 49.6553 67.2084Z" fill="#850E11"/>
</g>
<mask id="mask0_250_1600" style="mask-type:alpha" maskUnits="userSpaceOnUse" x="333" y="50" width="20" height="20">
<rect width="20" height="20" transform="matrix(-1 0 0 1 353 50)" fill="#D9D9D9"/>
</mask>
<g mask="url(#mask0_250_1600)">
<path d="M343 67.5C344.75 67.5 346.299 66.9687 347.646 65.9062C348.993 64.8437 349.868 63.4861 350.271 61.8333C350.326 61.625 350.285 61.434 350.146 61.2604C350.007 61.0868 349.819 60.9861 349.583 60.9583C349.361 60.9306 349.16 60.9722 348.979 61.0833C348.799 61.1944 348.674 61.3611 348.604 61.5833C348.271 62.8333 347.583 63.8542 346.542 64.6458C345.5 65.4375 344.319 65.8333 343 65.8333C341.375 65.8333 339.997 65.2674 338.865 64.1354C337.733 63.0035 337.167 61.625 337.167 60C337.167 58.375 337.733 56.9965 338.865 55.8646C339.997 54.7326 341.375 54.1667 343 54.1667C343.958 54.1667 344.854 54.3889 345.688 54.8333C346.521 55.2778 347.222 55.8889 347.792 56.6667H346.333C346.097 56.6667 345.899 56.7465 345.74 56.9062C345.58 57.066 345.5 57.2639 345.5 57.5C345.5 57.7361 345.58 57.934 345.74 58.0938C345.899 58.2535 346.097 58.3333 346.333 58.3333H349.667C349.903 58.3333 350.101 58.2535 350.26 58.0938C350.42 57.934 350.5 57.7361 350.5 57.5V54.1667C350.5 53.9306 350.42 53.7326 350.26 53.5729C350.101 53.4132 349.903 53.3333 349.667 53.3333C349.431 53.3333 349.233 53.4132 349.073 53.5729C348.913 53.7326 348.833 53.9306 348.833 54.1667V55.2917C348.125 54.4028 347.26 53.7153 346.24 53.2292C345.219 52.7431 344.139 52.5 343 52.5C341.958 52.5 340.983 52.6979 340.073 53.0938C339.163 53.4896 338.372 54.0243 337.698 54.6979C337.024 55.3715 336.49 56.1632 336.094 57.0729C335.698 57.9826 335.5 58.9583 335.5 60C335.5 61.0417 335.698 62.0174 336.094 62.9271C336.49 63.8368 337.024 64.6285 337.698 65.3021C338.372 65.9757 339.163 66.5104 340.073 66.9062C340.983 67.3021 341.958 67.5 343 67.5Z" fill="#777777"/>
</g>
<path d="M367.636 53.2656V67.4062H365.902V60.1875H363.167V58.7812H365.902V53.2656H367.636ZM355.761 63.375C357.964 62.375 359.214 59.9688 359.214 57.75V57.0156H356.183V55.625H359.23V53.5625H360.964V55.625H363.917V57.0156H360.949V57.75C360.941 59.8828 362.222 62.1641 364.449 63.1562L363.511 64.4844C361.902 63.7969 360.722 62.3828 360.097 60.6953C359.48 62.4844 358.316 63.9922 356.699 64.7188L355.761 63.375ZM375.722 53.5469C378.847 53.5469 380.808 54.5703 380.816 56.2969C380.808 57.9844 378.847 58.9922 375.722 58.9844C372.629 58.9922 370.629 57.9844 370.629 56.2969C370.629 54.5703 372.629 53.5469 375.722 53.5469ZM369.301 61.3438V59.9375H382.176V61.3438H369.301ZM370.816 67.2188V62.4688H380.613V67.2188H370.816ZM372.441 56.2969C372.426 57.1484 373.66 57.6328 375.722 57.6406C377.785 57.6328 379.019 57.1484 379.019 56.2969C379.019 55.3984 377.785 54.9062 375.722 54.9062C373.66 54.9062 372.426 55.3984 372.441 56.2969ZM372.535 65.8125H378.926V63.8438H372.535V65.8125ZM389.231 54.0625C392.207 54.0625 394.504 55.6484 394.496 58.0469C394.504 60.4766 392.207 62.0625 389.231 62.0625C386.27 62.0625 383.988 60.4766 383.996 58.0469C383.988 55.6484 386.27 54.0625 389.231 54.0625ZM382.809 65.6094V64.1875H395.715V65.6094H382.809ZM385.668 58.0469C385.66 59.6484 387.176 60.6328 389.231 60.6406C391.293 60.6328 392.793 59.6484 392.793 58.0469C392.793 56.4844 391.293 55.4531 389.231 55.4688C387.176 55.4531 385.66 56.4844 385.668 58.0469ZM409.223 64.3125V65.75H396.317V64.3125H401.879V62.0156H397.848V57.3906H405.973V55.6406H397.817V54.2344H407.692V58.7656H399.583V60.5938H408.02V62.0156H403.598V64.3125H409.223Z" fill="#777777"/>
<g clip-path="url(#clip1_250_1600)">
<path d="M40 132C40 114.327 54.3269 100 72 100H334C375.974 100 410 134.026 410 176V601C410 618.673 395.673 633 378 633H72C54.3269 633 40 618.673 40 601V132Z" fill="url(#paint0_linear_250_1600)"/>
<path d="M364.114 247.769L363.821 234.835C311.327 234.724 288.27 203.257 288.094 177.725C287.919 158.128 301.964 137.411 325.314 137.243C344.977 137.075 354.809 151.969 354.809 151.969C354.809 151.969 363.06 136.851 384.889 136.683C400.456 136.571 421.348 149.057 421.641 178.061C421.875 205.272 401.334 235.171 364.231 247.825M353.99 71.0056C282.71 71.6215 224.013 121.51 224.598 185.787C224.891 217.87 242.155 250.681 272.996 272.35L264.978 309.36C415.32 350.849 486.073 246.314 485.429 183.884C484.903 120.278 426.557 70.3897 353.99 71.0056Z" fill="white" fill-opacity="0.2"/>
<path d="M93.3242 196.102V198.262H70.9023V196.102H80.7734V190.441H73.4727V178.793H90.6445V190.441H83.3438V196.102H93.3242ZM75.9883 188.391H88.1016V180.871H75.9883V188.391ZM113.628 176.824V186.312H117.565V188.5H113.628V201.324H111.03V176.824H113.628ZM95.4713 195.5V178.875H98.0416V185.164H104.522V178.875H107.092V195.5H95.4713ZM98.0416 193.367H104.522V187.215H98.0416V193.367ZM125.126 177.645C128.818 177.672 131.538 179.928 131.552 183.141C131.538 186.367 128.818 188.609 125.126 188.609C121.394 188.609 118.687 186.367 118.673 183.141C118.687 179.928 121.394 177.672 125.126 177.645ZM121.216 183.141C121.202 185.164 122.87 186.504 125.126 186.504C127.368 186.504 129.036 185.164 129.036 183.141C129.036 181.145 127.368 179.805 125.126 179.832C122.87 179.805 121.202 181.145 121.216 183.141ZM122.392 192.492V190.414H138.497V196.594H124.989V198.945H139.318V201.023H122.474V194.652H135.927V192.492H122.392ZM135.9 189.293V176.824H138.497V189.293H135.9ZM168.522 176.852V194.898H165.924V186.395H160.838V184.234H165.924V176.852H168.522ZM148.451 190.086C153.906 188.322 157.612 185 158.145 180.844H149.709V178.684H161.002C160.975 185.082 156.586 189.895 149.545 192.164L148.451 190.086ZM152.744 200.805V193.039H155.369V198.699H169.151V200.805H152.744ZM190.985 176.824V183.004H194.54V185.109H190.985V191.371H188.387V176.824H190.985ZM171.708 189.457C177.45 187.844 180.964 184.645 181.442 180.68H172.802V178.574H184.259C184.259 184.904 179.952 189.484 172.774 191.562L171.708 189.457ZM175.044 196.457C175.016 193.477 178.243 191.631 183.165 191.645C188.1 191.631 191.259 193.477 191.259 196.457C191.259 199.465 188.1 201.283 183.165 201.297C178.243 201.283 175.016 199.465 175.044 196.457ZM177.614 196.457C177.6 198.18 179.733 199.232 183.165 199.246C186.569 199.232 188.716 198.18 188.716 196.457C188.716 194.734 186.569 193.682 183.165 193.695C179.733 193.682 177.6 194.734 177.614 196.457ZM217.796 196.129V198.289H195.374V196.129H205.245V191.098H197.945V178.492H200.542V182.703H212.574V178.492H215.144V191.098H207.816V196.129H217.796ZM200.542 188.992H212.574V184.809H200.542V188.992ZM239.439 176.824V191.672H236.842V186.34H233.014V184.18H236.842V176.824H239.439ZM219.041 181.336V179.258H224.947V176.605H227.518V179.258H233.396V181.336H219.041ZM220.463 186.832C220.463 184.262 222.869 182.457 226.232 182.457C229.596 182.457 231.975 184.262 231.975 186.832C231.975 189.471 229.596 191.221 226.232 191.234C222.869 191.221 220.463 189.471 220.463 186.832ZM222.951 186.832C222.951 188.322 224.277 189.252 226.232 189.266C228.16 189.252 229.486 188.322 229.486 186.832C229.486 185.396 228.16 184.439 226.232 184.453C224.277 184.439 222.951 185.396 222.951 186.832ZM223.279 201.023V192.875H239.439V201.023H223.279ZM225.85 198.918H236.896V194.926H225.85V198.918ZM264.993 188.363V190.469H242.653V188.363H264.993ZM243.829 185.027C248.272 184.549 251.786 182.553 252.073 180.16H244.704V178.027H262.997V180.16H255.545C255.846 182.539 259.305 184.549 263.844 185.027L262.915 187.078C258.663 186.586 255.149 184.795 253.823 182.211C252.469 184.795 248.983 186.586 244.731 187.078L243.829 185.027ZM245.305 196.84C245.305 193.996 248.491 192.355 253.809 192.355C259.086 192.355 262.245 193.996 262.258 196.84C262.245 199.684 259.086 201.283 253.809 201.27C248.491 201.283 245.305 199.684 245.305 196.84ZM247.93 196.84C247.916 198.385 250.063 199.232 253.809 199.219C257.5 199.232 259.661 198.385 259.661 196.84C259.661 195.254 257.5 194.406 253.809 194.379C250.063 194.406 247.916 195.254 247.93 196.84Z" fill="white"/>
<g clip-path="url(#clip2_250_1600)">
<rect x="70" y="321" width="66" height="66" rx="24" fill="#FFF3F3"/>
<path d="M103 361.674C109.358 361.674 114.512 356.52 114.512 350.162C114.512 343.804 109.358 338.65 103 338.65C96.6422 338.65 91.4883 343.804 91.4883 350.162C91.4883 356.52 96.6422 361.674 103 361.674Z" fill="#F5A7B1"/>
<path d="M73.0703 388.535C74.3271 374.788 87.2591 363.977 103.023 363.977C118.788 363.977 131.428 374.544 132.931 388.081" fill="#F5A7B1"/>
</g>
<path d="M85.7051 413.641V419.463H88.584V420.881H85.7051V427.734H84.0293V413.641H85.7051ZM71.1387 419.699C71.1279 416.928 73.2979 415.005 76.1445 414.994C79.0127 415.005 81.1504 416.928 81.1719 419.699C81.1504 422.46 79.0127 424.404 76.1445 424.404C73.2979 424.404 71.1279 422.46 71.1387 419.699ZM72.793 419.699C72.7822 421.579 74.2539 422.922 76.1445 422.922C78.0674 422.922 79.5068 421.579 79.5176 419.699C79.5068 417.809 78.0674 416.477 76.1445 416.477C74.2539 416.477 72.7822 417.809 72.793 419.699ZM73.7598 432.332V426.273H75.4141V430.914H86.5859V432.332H73.7598ZM92.2045 414.822V422.643C95.4487 422.653 97.7368 422.514 100.369 421.955L100.583 423.352C97.812 423.921 95.4057 424.071 91.9467 424.061H90.4858V414.822H92.2045ZM92.4409 429.152C92.4301 426.864 94.8686 425.532 98.8432 425.521C102.807 425.532 105.246 426.864 105.246 429.152C105.246 431.408 102.807 432.719 98.8432 432.74C94.8686 432.719 92.4301 431.408 92.4409 429.152ZM94.1166 429.152C94.1059 430.527 95.9106 431.365 98.8432 431.365C101.765 431.365 103.57 430.527 103.57 429.152C103.57 427.734 101.765 426.886 98.8432 426.875C95.9106 426.886 94.1059 427.734 94.1166 429.152ZM98.0053 420.645V419.312H103.484V417.271H98.0053V415.918H103.484V413.641H105.181V425.371H103.484V420.645H98.0053ZM122.702 413.641V421.525H125.903V422.922H122.702V432.74H121.026V413.641H122.702ZM107.813 418.109V416.713H112.733V413.877H114.409V416.713H119.179V418.109H107.813ZM108.909 424.082C108.898 421.504 110.875 419.699 113.593 419.699C116.289 419.699 118.255 421.504 118.276 424.082C118.255 426.671 116.289 428.465 113.593 428.465C110.875 428.465 108.898 426.671 108.909 424.082ZM110.52 424.082C110.51 425.822 111.809 427.047 113.593 427.025C115.354 427.047 116.643 425.822 116.665 424.082C116.643 422.353 115.354 421.106 113.593 421.117C111.809 421.106 110.51 422.353 110.52 424.082ZM132.166 419.076C132.166 422.116 133.649 425.393 136.184 426.896L135.217 428.207C133.369 427.09 132.048 425.049 131.382 422.718C130.684 425.264 129.266 427.455 127.354 428.615L126.28 427.348C128.922 425.801 130.534 422.417 130.534 419.141V415.445H132.166V419.076ZM134.078 421.934V420.494H137.323V414.049H138.912V431.773H137.323V421.934H134.078ZM141.233 432.74V413.641H142.866V432.74H141.233ZM162.556 428.873V430.291H145.068V428.873H149.408V423.728C147.775 422.879 146.787 421.504 146.787 419.764C146.787 416.81 149.687 414.865 153.769 414.844C157.851 414.865 160.752 416.81 160.752 419.764C160.752 421.472 159.796 422.825 158.217 423.674V428.873H162.556ZM148.42 419.764C148.409 421.901 150.633 423.33 153.769 423.33C156.874 423.33 159.119 421.901 159.119 419.764C159.119 417.626 156.874 416.219 153.769 416.24C150.633 416.219 148.409 417.626 148.42 419.764ZM151.062 428.873H156.519V424.329C155.692 424.544 154.768 424.662 153.769 424.662C152.792 424.662 151.879 424.555 151.062 424.34V428.873ZM165.661 431.129C164.909 431.118 164.265 430.495 164.286 429.732C164.265 428.98 164.909 428.357 165.661 428.357C166.424 428.357 167.047 428.98 167.036 429.732C167.047 430.495 166.424 431.118 165.661 431.129Z" fill="white"/>
<path d="M72.6396 465.499V467.873H76.7568V465.499H78.0352V467.01H81.5215V464.586H82.833V473.534H81.5215V471.127H78.0352V472.438H71.3447V465.499H72.6396ZM72.6396 471.376H76.7568V468.919H72.6396V471.376ZM72.9883 476.589C72.98 474.829 74.8643 473.833 77.9355 473.816C80.9985 473.833 82.8828 474.829 82.8828 476.589C82.8828 478.315 80.9985 479.312 77.9355 479.312C74.8643 479.312 72.98 478.315 72.9883 476.589ZM74.2832 476.589C74.2749 477.651 75.6694 478.282 77.9355 478.282C80.1934 478.282 81.5879 477.651 81.5879 476.589C81.5879 475.485 80.1934 474.854 77.9355 474.846C75.6694 474.854 74.2749 475.485 74.2832 476.589ZM78.0352 470.048H81.5215V468.072H78.0352V470.048ZM86.5106 473.816C85.9295 473.808 85.4315 473.327 85.4481 472.737C85.4315 472.156 85.9295 471.675 86.5106 471.675C87.0999 471.675 87.5814 472.156 87.5731 472.737C87.5814 473.327 87.0999 473.808 86.5106 473.816ZM93.7575 465.665C96.0734 465.673 97.717 467.084 97.7253 469.135C97.717 471.193 96.0734 472.596 93.7575 472.604C91.425 472.596 89.7648 471.193 89.7731 469.135C89.7648 467.084 91.425 465.673 93.7575 465.665ZM89.0095 475.012C91.7321 475.02 95.4924 474.995 98.7546 474.514L98.8542 475.477C95.4758 476.107 91.8483 476.124 89.1921 476.124L89.0095 475.012ZM91.0514 469.135C91.0431 470.513 92.1804 471.459 93.7575 471.459C95.318 471.459 96.4553 470.513 96.447 469.135C96.4553 467.765 95.318 466.811 93.7575 466.811C92.1804 466.811 91.0431 467.765 91.0514 469.135ZM99.7341 479.378V464.586H101.029V479.378H99.7341ZM115.448 464.603V475.809H114.136V474.281H111.082V473.335H114.136V464.603H115.448ZM103.196 471.442C105.943 471.426 109.646 471.401 112.808 471.011L112.891 471.957C111.58 472.165 110.193 472.297 108.84 472.38V475.294H107.529V472.447C106.035 472.505 104.615 472.505 103.378 472.505L103.196 471.442ZM104.391 467.773C104.383 466.221 105.86 465.2 108.043 465.2C110.21 465.2 111.688 466.221 111.696 467.773C111.688 469.351 110.21 470.33 108.043 470.33C105.86 470.33 104.383 469.351 104.391 467.773ZM105.321 479.029V474.713H106.632V477.934H115.813V479.029H105.321ZM105.636 467.773C105.62 468.736 106.599 469.359 108.043 469.367C109.446 469.359 110.442 468.736 110.451 467.773C110.442 466.827 109.446 466.18 108.043 466.196C106.599 466.18 105.62 466.827 105.636 467.773ZM124.355 464.852C127.634 464.852 129.559 465.756 129.568 467.392C129.559 469.068 127.634 469.973 124.355 469.981C121.059 469.973 119.125 469.068 119.125 467.392C119.125 465.756 121.059 464.852 124.355 464.852ZM117.631 472.04V470.978H131.078V472.04H117.631ZM119.258 474.314V473.318H129.352V476.622H120.586V478.149H129.8V479.179H119.291V475.659H128.074V474.314H119.258ZM120.487 467.392C120.47 468.421 121.906 468.985 124.355 468.985C126.804 468.985 128.231 468.421 128.24 467.392C128.231 466.42 126.804 465.839 124.355 465.831C121.906 465.839 120.47 466.42 120.487 467.392ZM142.717 473.866C145.747 473.866 147.581 474.862 147.581 476.589C147.581 478.332 145.747 479.328 142.717 479.345C139.679 479.328 137.828 478.332 137.819 476.589C137.828 474.862 139.679 473.866 142.717 473.866ZM136.541 472.322V465.516H137.819V467.773H142.119V465.516H143.414V472.322H136.541ZM137.819 471.26H142.119V468.803H137.819V471.26ZM139.131 476.589C139.114 477.651 140.492 478.282 142.717 478.282C144.95 478.282 146.311 477.651 146.319 476.589C146.311 475.535 144.95 474.912 142.717 474.896C140.492 474.912 139.114 475.535 139.131 476.589ZM146.153 473.468V464.586H147.448V468.305H149.673V469.417H147.448V473.468H146.153ZM163.76 472.14V473.219H157.75V476.24H156.455V473.219H150.246V472.14H163.76ZM151.973 479.029V474.779H153.284V477.934H162.249V479.029H151.973ZM152.006 470.446V465.316H162V470.446H152.006ZM153.284 469.4H160.705V466.346H153.284V469.4ZM176.153 464.536V468.122H178.394V469.201H176.153V472.704H174.858V464.536H176.153ZM164.648 466.977V465.931H168.4V464.437H169.695V465.931H173.447V466.977H164.648ZM165.495 470.064C165.487 468.57 166.898 467.649 169.048 467.641C171.189 467.649 172.584 468.57 172.6 470.064C172.584 471.567 171.189 472.48 169.048 472.488C166.898 472.48 165.487 471.567 165.495 470.064ZM166.74 474.447V473.468H176.153V476.738H168.051V478.183H176.701V479.179H166.773V475.775H174.858V474.447H166.74ZM166.74 470.064C166.732 470.953 167.645 471.509 169.048 471.509C170.442 471.509 171.355 470.953 171.372 470.064C171.355 469.185 170.442 468.612 169.048 468.604C167.645 468.612 166.732 469.185 166.74 470.064ZM192.672 464.918V470.629H194.465V464.586H195.71V479.345H194.465V471.708H192.672V478.614H191.46V464.918H192.672ZM183.342 475.493V466.462H186.546V467.541H184.554V474.389C185.11 474.364 185.841 474.298 186.646 474.099L186.762 475.211C185.517 475.485 184.554 475.501 183.923 475.493H183.342ZM187.194 475.493V466.462H190.464V467.541H188.372V474.389C189.07 474.373 189.892 474.306 190.78 474.049L190.896 475.161C189.667 475.485 188.646 475.501 187.791 475.493H187.194ZM209.183 469.068V470.114H199.073V465.134H200.367V469.068H209.183ZM197.23 473.186V472.123H210.743V473.186H197.23ZM198.989 478.979V474.696H200.284V477.9H209.266V478.979H198.989ZM84.1113 498.356V499.452H70.5977V498.356H76.6738V494.754H72.1914V487.831H82.4346V494.754H77.9521V498.356H84.1113ZM73.4697 493.708H81.1729V488.877H73.4697V493.708ZM96.3719 486.586V492.396H98.8455V493.525H96.3719V501.345H95.077V486.586H96.3719ZM85.5643 497.809V487.848H86.8592V491.749H91.1756V487.848H92.4705V497.809H85.5643ZM86.8592 496.713H91.1756V492.795H86.8592V496.713ZM103.486 487.134C105.694 487.142 107.296 488.487 107.304 490.404C107.296 492.33 105.694 493.658 103.486 493.658C101.253 493.658 99.6428 492.33 99.6511 490.404C99.6428 488.487 101.253 487.142 103.486 487.134ZM100.929 490.404C100.913 491.699 102 492.596 103.486 492.596C104.947 492.596 106.043 491.699 106.043 490.404C106.043 489.126 104.947 488.221 103.486 488.229C102 488.221 100.913 489.126 100.929 490.404ZM101.892 495.933V494.887H111.488V498.439H103.204V500.1H112.019V501.146H101.925V497.46H110.193V495.933H101.892ZM110.193 494.173V486.586H111.488V494.173H110.193ZM129.817 486.603V497.51H128.505V492.247H125.235V491.151H128.505V486.603H129.817ZM117.814 494.737C121.209 493.617 123.575 491.492 123.873 488.827H118.561V487.731H125.301C125.285 491.525 122.57 494.414 118.378 495.783L117.814 494.737ZM120.42 501.029V496.397H121.748V499.934H130.199V501.029H120.42ZM143.472 486.586V490.438H145.696V491.517H143.472V495.451H142.177V486.586H143.472ZM131.95 494.405C135.511 493.376 137.786 491.326 138.051 488.761H132.598V487.682H139.454C139.446 491.442 136.798 494.198 132.498 495.468L131.95 494.405ZM133.976 498.456C133.967 496.688 135.868 495.609 138.807 495.617C141.77 495.609 143.638 496.688 143.638 498.456C143.638 500.249 141.77 501.312 138.807 501.312C135.868 501.312 133.967 500.249 133.976 498.456ZM135.271 498.456C135.254 499.568 136.64 500.274 138.807 500.266C140.973 500.274 142.376 499.568 142.376 498.456C142.376 497.344 140.973 496.655 138.807 496.663C136.64 496.655 135.254 497.344 135.271 498.456ZM159.8 498.373V499.452H146.286V498.373H152.362V495.186H147.88V487.632H149.191V490.305H156.861V487.632H158.14V495.186H153.641V498.373H159.8ZM149.191 494.123H156.861V491.367H149.191V494.123ZM172.874 486.586V495.534H171.562V492.164H169.056V491.085H171.562V486.586H172.874ZM160.655 489.209V488.146H164.324V486.453H165.602V488.146H169.271V489.209H160.655ZM161.535 492.596C161.535 491.052 162.954 489.973 164.955 489.973C166.964 489.973 168.375 491.052 168.391 492.596C168.375 494.189 166.964 495.235 164.955 495.235C162.954 495.235 161.535 494.189 161.535 492.596ZM162.78 492.596C162.78 493.575 163.668 494.223 164.955 494.239C166.242 494.223 167.13 493.575 167.13 492.596C167.13 491.649 166.242 490.985 164.955 490.985C163.668 490.985 162.78 491.649 162.78 492.596ZM163.228 501.146V496.331H172.874V501.146H163.228ZM164.523 500.083H171.596V497.377H164.523V500.083ZM188.438 493.608V494.688H174.991V493.608H188.438ZM175.755 491.683C178.328 491.384 180.81 490.114 180.868 488.429H176.219V487.35H187.243V488.429H182.561C182.619 490.097 185.076 491.384 187.691 491.683L187.21 492.729C184.794 492.421 182.528 491.334 181.715 489.699C180.901 491.334 178.652 492.421 176.219 492.729L175.755 491.683ZM176.618 498.655C176.61 496.962 178.527 495.982 181.715 495.982C184.877 495.982 186.778 496.962 186.795 498.655C186.778 500.365 184.877 501.312 181.715 501.312C178.527 501.312 176.61 500.365 176.618 498.655ZM177.946 498.655C177.929 499.685 179.349 500.274 181.715 500.266C184.055 500.274 185.475 499.685 185.483 498.655C185.475 497.618 184.055 497.028 181.715 497.012C179.349 497.028 177.929 497.618 177.946 498.655ZM196.067 487.549C199.147 487.557 201.462 489.167 201.462 491.6C201.462 494.057 199.147 495.667 196.067 495.65C192.987 495.667 190.671 494.057 190.671 491.6C190.671 489.167 192.987 487.557 196.067 487.549ZM189.343 499.386V498.29H202.857V499.386H189.343ZM191.917 491.6C191.9 493.393 193.685 494.588 196.067 494.588C198.433 494.588 200.201 493.393 200.201 491.6C200.201 489.832 198.433 488.603 196.067 488.611C193.685 488.603 191.9 489.832 191.917 491.6ZM217.209 498.423V499.519H203.696V498.423H209.772V495.634H205.389V491.085H214.221V488.761H205.356V487.682H215.499V492.147H206.684V494.555H215.848V495.634H211.05V498.423H217.209ZM82.833 508.603V519.51H81.5215V514.247H78.251V513.151H81.5215V508.603H82.833ZM70.8301 516.737C74.2251 515.617 76.5908 513.492 76.8896 510.827H71.5771V509.731H78.3174C78.3008 513.525 75.5864 516.414 71.3945 517.783L70.8301 516.737ZM73.4365 523.029V518.397H74.7646V521.934H83.2148V523.029H73.4365ZM96.4881 508.586V512.438H98.7127V513.517H96.4881V517.451H95.1932V508.586H96.4881ZM84.9666 516.405C88.5277 515.376 90.8021 513.326 91.0677 510.761H85.6141V509.682H92.4705C92.4622 513.442 89.8143 516.198 85.5145 517.468L84.9666 516.405ZM86.992 520.456C86.9837 518.688 88.8846 517.609 91.8231 517.617C94.7865 517.609 96.6541 518.688 96.6541 520.456C96.6541 522.249 94.7865 523.312 91.8231 523.312C88.8846 523.312 86.9837 522.249 86.992 520.456ZM88.287 520.456C88.2704 521.568 89.6566 522.274 91.8231 522.266C93.9896 522.274 95.3924 521.568 95.3924 520.456C95.3924 519.344 93.9896 518.655 91.8231 518.663C89.6566 518.655 88.2704 519.344 88.287 520.456ZM112.816 520.373V521.452H99.3024V520.373H105.379V517.186H100.896V509.632H102.208V512.305H109.878V509.632H111.156V517.186H106.657V520.373H112.816ZM102.208 516.123H109.878V513.367H102.208V516.123ZM125.89 508.586V517.534H124.579V514.164H122.072V513.085H124.579V508.586H125.89ZM113.671 511.209V510.146H117.34V508.453H118.619V510.146H122.288V511.209H113.671ZM114.551 514.596C114.551 513.052 115.971 511.973 117.971 511.973C119.98 511.973 121.391 513.052 121.408 514.596C121.391 516.189 119.98 517.235 117.971 517.235C115.971 517.235 114.551 516.189 114.551 514.596ZM115.796 514.596C115.796 515.575 116.685 516.223 117.971 516.239C119.258 516.223 120.146 515.575 120.146 514.596C120.146 513.649 119.258 512.985 117.971 512.985C116.685 512.985 115.796 513.649 115.796 514.596ZM116.245 523.146V518.331H125.89V523.146H116.245ZM117.54 522.083H124.612V519.377H117.54V522.083ZM136.931 513.118C136.914 515.484 138.624 518.09 140.766 519.111L140.019 520.141C138.359 519.327 136.956 517.584 136.292 515.583C135.611 517.75 134.133 519.659 132.482 520.506L131.685 519.477C133.81 518.439 135.636 515.633 135.653 513.118V511.192H132.216V510.113H140.251V511.192H136.931V513.118ZM142.061 523.345V508.586H143.356V514.562H145.829V515.675H143.356V523.345H142.061ZM154.072 509.599C154.072 510.171 154.006 510.719 153.89 511.242H157.21V508.603H158.522V517.401H157.21V515.442H153.292V514.363H157.21V512.321H153.533C152.537 514.646 150.221 516.331 147.033 517.202L146.519 516.156C150.121 515.16 152.404 513.185 152.669 510.661H147.266V509.599H154.072ZM148.594 519.095V518.049H158.522V523.328H157.21V519.095H148.594ZM167.362 508.852C170.641 508.852 172.567 509.756 172.575 511.392C172.567 513.068 170.641 513.973 167.362 513.981C164.067 513.973 162.133 513.068 162.133 511.392C162.133 509.756 164.067 508.852 167.362 508.852ZM160.639 516.04V514.978H174.086V516.04H160.639ZM162.266 518.314V517.318H172.359V520.622H163.594V522.149H172.808V523.179H162.299V519.659H171.081V518.314H162.266ZM163.494 511.392C163.477 512.421 164.913 512.985 167.362 512.985C169.811 512.985 171.239 512.421 171.247 511.392C171.239 510.42 169.811 509.839 167.362 509.831C164.913 509.839 163.477 510.42 163.494 511.392ZM190.439 508.603V513.068H192.647V514.164H190.439V518.497H189.128V508.603H190.439ZM178.851 516.986C180.03 516.986 181.408 516.986 182.852 516.945V515.857C181.134 515.7 180.022 514.911 180.03 513.683C180.022 512.338 181.408 511.508 183.483 511.508C185.575 511.508 186.936 512.338 186.953 513.683C186.936 514.903 185.857 515.691 184.147 515.857V516.895C185.525 516.829 186.919 516.712 188.214 516.521L188.331 517.468C185.127 518.032 181.599 518.057 179.001 518.049L178.851 516.986ZM179.216 510.943V509.947H182.852V508.47H184.147V509.947H187.766V510.943H179.216ZM180.661 520.273V519.228H190.439V523.345H189.128V520.273H180.661ZM181.275 513.683C181.267 514.455 182.122 514.978 183.483 514.961C184.844 514.978 185.708 514.455 185.708 513.683C185.708 512.902 184.844 512.421 183.483 512.438C182.122 512.421 181.267 512.902 181.275 513.683ZM205.455 508.603V519.394H204.161V508.603H205.455ZM193.619 513.251C193.61 511.126 195.279 509.64 197.487 509.632C199.695 509.64 201.347 511.126 201.355 513.251C201.347 515.401 199.695 516.895 197.487 516.887C195.279 516.895 193.61 515.401 193.619 513.251ZM194.897 513.251C194.88 514.72 195.993 515.741 197.487 515.741C198.956 515.741 200.077 514.72 200.077 513.251C200.077 511.807 198.956 510.777 197.487 510.777C195.993 510.777 194.88 511.807 194.897 513.251ZM195.926 523.029V518.298H197.221V521.934H205.92V523.029H195.926ZM219.044 508.586V514.679H221.518V515.758H219.044V523.345H217.749V508.586H219.044ZM207.539 512.039V510.96H211.341V508.769H212.636V510.96H216.322V512.039H207.539ZM208.386 516.654C208.378 514.662 209.905 513.268 212.005 513.268C214.089 513.268 215.608 514.662 215.624 516.654C215.608 518.655 214.089 520.041 212.005 520.041C209.905 520.041 208.378 518.655 208.386 516.654ZM209.631 516.654C209.623 517.999 210.627 518.945 212.005 518.929C213.366 518.945 214.363 517.999 214.379 516.654C214.363 515.318 213.366 514.355 212.005 514.363C210.627 514.355 209.623 515.318 209.631 516.654ZM226.357 512.786C226.357 515.135 227.503 517.667 229.462 518.829L228.715 519.842C227.287 518.979 226.266 517.401 225.752 515.6C225.212 517.567 224.116 519.261 222.639 520.157L221.809 519.178C223.851 517.982 225.096 515.368 225.096 512.836V509.98H226.357V512.786ZM227.835 514.994V513.882H230.342V508.901H231.57V522.598H230.342V514.994H227.835ZM233.363 523.345V508.586H234.625V523.345H233.363ZM249.841 520.356V521.452H236.327V520.356H239.681V516.38C238.419 515.725 237.655 514.662 237.655 513.317C237.655 511.035 239.896 509.532 243.051 509.516C246.205 509.532 248.446 511.035 248.446 513.317C248.446 514.637 247.707 515.683 246.487 516.339V520.356H249.841ZM238.917 513.317C238.909 514.969 240.627 516.073 243.051 516.073C245.45 516.073 247.184 514.969 247.184 513.317C247.184 511.666 245.45 510.578 243.051 510.595C240.627 510.578 238.909 511.666 238.917 513.317ZM240.959 520.356H245.176V516.845C244.537 517.011 243.823 517.103 243.051 517.103C242.295 517.103 241.59 517.02 240.959 516.854V520.356ZM252.24 522.1C251.659 522.091 251.161 521.61 251.178 521.021C251.161 520.439 251.659 519.958 252.24 519.958C252.829 519.958 253.311 520.439 253.303 521.021C253.311 521.61 252.829 522.091 252.24 522.1Z" fill="white"/>
</g>
<rect width="450" height="80" transform="translate(0 650)" fill="#323C59"/>
<path d="M159.473 681.824V683.895H167.579V681.824H169.434V688.895H164.434V690.613H171.505V692.137H155.548V690.613H162.598V688.895H157.638V681.824H159.473ZM157.559 698.289V693.387H159.434V696.785H169.708V698.289H157.559ZM159.473 687.391H167.579V685.34H159.473V687.391ZM186.945 681.18V693.895H185.089V681.18H186.945ZM172.784 686.688C172.794 684.158 174.806 682.361 177.452 682.352C180.089 682.361 182.101 684.158 182.101 686.688C182.101 689.256 180.089 691.043 177.452 691.043C174.806 691.043 172.794 689.256 172.784 686.688ZM174.601 686.688C174.591 688.338 175.821 689.422 177.452 689.422C179.054 689.422 180.284 688.338 180.284 686.688C180.284 685.076 179.054 683.973 177.452 683.973C175.821 683.973 174.591 685.076 174.601 686.688ZM175.499 698.289V692.605H177.374V696.785H187.472V698.289H175.499ZM203.088 681.18V686.375H205.588V687.898H203.088V692.957H201.232V681.18H203.088ZM189.201 691.004C190.558 691.004 192.13 691.004 193.771 690.965V689.783C191.779 689.559 190.509 688.621 190.529 687.215C190.509 685.613 192.179 684.617 194.689 684.637C197.199 684.617 198.839 685.613 198.849 687.215C198.839 688.611 197.599 689.549 195.627 689.783V690.896C197.189 690.818 198.771 690.691 200.236 690.477L200.392 691.805C196.632 692.459 192.482 692.488 189.396 692.488L189.201 691.004ZM189.65 684.051V682.664H193.771V681.023H195.627V682.664H199.748V684.051H189.65ZM191.388 695.223V693.777H203.088V698.66H201.232V695.223H191.388ZM192.287 687.215C192.287 688.035 193.195 688.572 194.689 688.562C196.164 688.572 197.082 688.035 197.072 687.215C197.082 686.375 196.164 685.887 194.689 685.906C193.195 685.887 192.287 686.375 192.287 687.215ZM220.715 681.18V693.895H218.859V681.18H220.715ZM206.555 686.688C206.564 684.158 208.576 682.361 211.223 682.352C213.859 682.361 215.871 684.158 215.871 686.688C215.871 689.256 213.859 691.043 211.223 691.043C208.576 691.043 206.564 689.256 206.555 686.688ZM208.371 686.688C208.361 688.338 209.592 689.422 211.223 689.422C212.824 689.422 214.055 688.338 214.055 686.688C214.055 685.076 212.824 683.973 211.223 683.973C209.592 683.973 208.361 685.076 208.371 686.688ZM209.27 698.289V692.605H211.145V696.785H221.242V698.289H209.27ZM241.204 681.16V688.25H244.016V689.793H241.204V698.66H239.368V681.16H241.204ZM227.473 685.418V683.895H231.79V681.395H233.645V683.895H237.845V685.418H227.473ZM228.372 690.77C228.372 688.387 230.208 686.707 232.727 686.707C235.237 686.707 237.073 688.387 237.083 690.77C237.073 693.172 235.237 694.842 232.727 694.852C230.208 694.842 228.372 693.172 228.372 690.77ZM230.149 690.77C230.139 692.293 231.233 693.309 232.727 693.289C234.212 693.309 235.296 692.293 235.305 690.77C235.296 689.275 234.212 688.24 232.727 688.23C231.233 688.24 230.139 689.275 230.149 690.77ZM259.007 681.16V698.66H257.132V681.16H259.007ZM244.632 693.973C249.28 691.756 251.556 688.602 251.917 684.52H245.472V683.035H253.792C253.792 688.162 251.614 692.596 245.609 695.477L244.632 693.973Z" fill="white"/>
<mask id="mask1_250_1600" style="mask-type:alpha" maskUnits="userSpaceOnUse" x="269" y="677" width="27" height="26">
<rect x="269.5" y="677" width="26" height="26" fill="#D9D9D9"/>
</mask>
<g mask="url(#mask1_250_1600)">
<path d="M287.022 691.083H274.915C274.608 691.083 274.351 690.979 274.143 690.772C273.936 690.564 273.832 690.307 273.832 690C273.832 689.693 273.936 689.435 274.143 689.228C274.351 689.02 274.608 688.916 274.915 688.916H287.022L281.713 683.608C281.497 683.391 281.393 683.139 281.402 682.85C281.411 682.561 281.524 682.308 281.74 682.091C281.957 681.893 282.21 681.789 282.499 681.78C282.788 681.771 283.04 681.875 283.257 682.091L290.407 689.241C290.515 689.35 290.592 689.467 290.637 689.593C290.682 689.72 290.705 689.855 290.705 690C290.705 690.144 290.682 690.279 290.637 690.406C290.592 690.532 290.515 690.65 290.407 690.758L283.257 697.908C283.058 698.107 282.81 698.206 282.512 698.206C282.214 698.206 281.957 698.107 281.74 697.908C281.524 697.691 281.415 697.434 281.415 697.136C281.415 696.838 281.524 696.581 281.74 696.364L287.022 691.083Z" fill="white"/>
</g>
<defs>
<linearGradient id="paint0_linear_250_1600" x1="225" y1="100" x2="225" y2="633" gradientUnits="userSpaceOnUse">
<stop stop-color="#E76065"/>
<stop offset="1" stop-color="#DD507B"/>
</linearGradient>
<clipPath id="clip0_250_1600">
<rect width="157.661" height="18" fill="white" transform="translate(40 51)"/>
</clipPath>
<clipPath id="clip1_250_1600">
<path d="M40 132C40 114.327 54.3269 100 72 100H334C375.974 100 410 134.026 410 176V601C410 618.673 395.673 633 378 633H72C54.3269 633 40 618.673 40 601V132Z" fill="white"/>
</clipPath>
<clipPath id="clip2_250_1600">
<rect x="70" y="321" width="66" height="66" rx="24" fill="white"/>
</clipPath>
</defs>
</svg>
