<svg width="400" height="86" viewBox="0 0 400 86" fill="none" xmlns="http://www.w3.org/2000/svg">
<rect width="400" height="86" fill="white"/>
<rect x="20" width="150" height="56" rx="8" fill="#EEEEEE"/>
<path d="M74.8043 20.4688C77.4215 20.4785 79.2867 22.8613 79.2965 26.6016C79.2867 30.3809 77.4215 32.7637 74.8043 32.7539C72.1871 32.7637 70.3219 30.3809 70.3316 26.6016C70.3219 22.8613 72.1871 20.4785 74.8043 20.4688ZM72.109 26.6016C72.0992 29.3848 73.2125 31.0938 74.8043 31.0938C76.4254 31.0938 77.5191 29.3848 77.5191 26.6016C77.5191 23.8574 76.4254 22.1387 74.8043 22.1289C73.2125 22.1387 72.0992 23.8574 72.109 26.6016ZM81.8941 36.6602V19.1602H83.7496V26.0156H86.5621V27.5781H83.7496V36.6602H81.8941ZM101.533 19.1602V36.6602H99.6777V19.1602H101.533ZM88.0762 32.207V20.8594H89.9121V30.6055C92.4707 30.5957 95.1562 30.3711 97.959 29.8047L98.2129 31.3672C95.1172 32.002 92.3047 32.2168 89.541 32.207H88.0762ZM111.856 20.2148C115.596 20.2246 118.321 22.0703 118.321 24.8633C118.321 27.4805 116.036 29.2285 112.774 29.4922V32.9297H119.903V34.4727H103.887V32.9297H110.938V29.4922C107.696 29.2285 105.401 27.4805 105.411 24.8633C105.401 22.0703 108.135 20.2246 111.856 20.2148ZM107.207 24.8633C107.207 26.8262 109.161 28.0469 111.856 28.0664C114.571 28.0469 116.514 26.8262 116.524 24.8633C116.514 22.9688 114.571 21.7188 111.856 21.7383C109.161 21.7188 107.207 22.9688 107.207 24.8633Z" fill="#323C59"/>
<rect x="180" width="200" height="56" rx="8" fill="#323C59"/>
<path d="M277.329 19.1797V24.375H279.829V25.8984H277.329V30.957H275.473V19.1797H277.329ZM263.442 29.0039C264.8 29.0039 266.372 29.0039 268.013 28.9648V27.7832C266.02 27.5586 264.751 26.6211 264.77 25.2148C264.751 23.6133 266.421 22.6172 268.93 22.6367C271.44 22.6172 273.081 23.6133 273.091 25.2148C273.081 26.6113 271.841 27.5488 269.868 27.7832V28.8965C271.43 28.8184 273.013 28.6914 274.477 28.4766L274.634 29.8047C270.874 30.459 266.723 30.4883 263.638 30.4883L263.442 29.0039ZM263.891 22.0508V20.6641H268.013V19.0234H269.868V20.6641H273.989V22.0508H263.891ZM265.63 33.2227V31.7773H277.329V36.6602H275.473V33.2227H265.63ZM266.528 25.2148C266.528 26.0352 267.436 26.5723 268.93 26.5625C270.405 26.5723 271.323 26.0352 271.313 25.2148C271.323 24.375 270.405 23.8867 268.93 23.9062C267.436 23.8867 266.528 24.375 266.528 25.2148ZM294.956 19.1797V31.8945H293.101V19.1797H294.956ZM280.796 24.6875C280.806 22.1582 282.818 20.3613 285.464 20.3516C288.101 20.3613 290.113 22.1582 290.113 24.6875C290.113 27.2559 288.101 29.043 285.464 29.043C282.818 29.043 280.806 27.2559 280.796 24.6875ZM282.613 24.6875C282.603 26.3379 283.833 27.4219 285.464 27.4219C287.066 27.4219 288.296 26.3379 288.296 24.6875C288.296 23.0762 287.066 21.9727 285.464 21.9727C283.833 21.9727 282.603 23.0762 282.613 24.6875ZM283.511 36.2891V30.6055H285.386V34.7852H295.484V36.2891H283.511Z" fill="white"/>
</svg>
