<svg width="450" height="730" viewBox="0 0 450 730" fill="none" xmlns="http://www.w3.org/2000/svg">
<rect width="450" height="730" fill="white"/>
<rect width="450" height="58" fill="white"/>
<mask id="mask0_250_876" style="mask-type:alpha" maskUnits="userSpaceOnUse" x="14" y="17" width="24" height="24">
<rect x="14" y="17" width="24" height="24" fill="#D9D9D9"/>
</mask>
<g mask="url(#mask0_250_876)">
<path d="M23.0152 28.9994L30.248 36.2321C30.43 36.4141 30.5227 36.6397 30.526 36.9089C30.5292 37.1782 30.4397 37.4039 30.2577 37.5859C30.0756 37.7679 29.8499 37.8589 29.5807 37.8589C29.3116 37.8589 29.0859 37.7679 28.9038 37.5859L21.4578 30.1301C21.2936 29.9659 21.1762 29.7884 21.1057 29.5974C21.0352 29.4064 21 29.207 21 28.9994C21 28.7917 21.0352 28.5924 21.1057 28.4014C21.1762 28.2104 21.2936 28.0328 21.4578 27.8686L28.9038 20.4224C29.0859 20.2404 29.31 20.1478 29.576 20.1446C29.842 20.1414 30.066 20.2309 30.248 20.4129C30.43 20.5949 30.521 20.8205 30.521 21.0899C30.521 21.359 30.43 21.5846 30.248 21.7666L23.0152 28.9994Z" fill="#222222"/>
</g>
<path d="M39.9824 83.332V100.141H37.1641V91.7871H33.0127C32.4287 94.4785 30.0547 96.3066 27.1348 96.3066C23.6689 96.3066 21.0664 93.8818 21.0664 90.5176C21.0664 87.1279 23.6689 84.7539 27.1348 84.7539C30.1436 84.7539 32.5684 86.6455 33.0635 89.4766H37.1641V83.332H39.9824ZM23.7578 90.5176C23.7578 92.5361 25.2178 93.8691 27.1348 93.8691C29.0137 93.8691 30.4482 92.5361 30.4609 90.5176C30.4482 88.4863 29.0137 87.2168 27.1348 87.2168C25.2178 87.2168 23.7578 88.4863 23.7578 90.5176ZM24.9258 105.803V98.4395H27.7441V103.518H40.5664V105.803H24.9258ZM48.9839 84.9824C52.0816 84.9824 54.3794 87.5723 54.7857 91.7617H59.1655V83.3066H61.9585V106.285H59.1655V94.0469H54.8111C54.5064 98.4775 52.1704 101.207 48.9839 101.207C45.5308 101.207 43.0806 98.0713 43.0933 93.082C43.0806 88.1309 45.5308 84.9824 48.9839 84.9824ZM45.8101 93.082C45.7974 96.6113 47.0923 98.6553 48.9839 98.668C50.8882 98.6553 52.1704 96.6113 52.1831 93.082C52.1704 89.5781 50.8882 87.5215 48.9839 87.5215C47.0923 87.5215 45.7974 89.5781 45.8101 93.082ZM85.6104 93.7168V95.8496H64.6377V93.7168H85.6104ZM67.0752 99.2012V97.2207H83.0713V102.451H69.919V104.051H83.7569V106.006H67.1006V100.623H80.2784V99.2012H67.0752ZM67.2276 85.7695V83.8145H83.0205V88.9941H70.0967V90.4922H83.4268V92.4219H67.3037V87.166H80.2022V85.7695H67.2276ZM100.617 87.3691C100.605 90.416 102.433 93.3867 106 94.6055L104.451 96.8145C101.976 95.8877 100.211 94.0977 99.2335 91.8379C98.2559 94.3643 96.377 96.3447 93.6856 97.3477L92.1876 95.1133C95.8819 93.8691 97.7608 90.6953 97.7735 87.3438V84.7285H100.617V87.3691ZM96.3516 105.803V98.5156H99.2208V103.518H111.992V105.803H96.3516ZM104.096 90.6953V88.3848H108.666V83.332H111.484V100.369H108.666V90.6953H104.096ZM124.091 84.9062V87.166H117.795V89.4004H123.863V91.5586H117.795V93.9707C120.588 93.9453 122.543 93.8311 124.777 93.4121L125.082 95.6973C122.378 96.2051 120.169 96.2939 116.601 96.2812H115.078V84.9062H124.091ZM118.125 100.598V98.3125H133.841V106.26H131.023V100.598H118.125ZM126.123 97.1191V83.7637H128.763V89.0703H131.15V83.332H133.841V97.2969H131.15V91.3301H128.763V97.1191H126.123ZM154.142 83.3066V92.4473H157.671V94.7832H154.142V106.26H151.349V83.3066H154.142ZM136.038 89.0957V86.8359H141.472V83.6367H144.29V86.8359H149.571V89.0957H136.038ZM137.105 96.002C137.079 92.8281 139.542 90.5811 142.894 90.5938C146.194 90.5811 148.645 92.8281 148.657 96.002C148.645 99.1631 146.194 101.385 142.894 101.385C139.542 101.385 137.079 99.1631 137.105 96.002ZM139.796 96.002C139.783 97.8682 141.091 99.0615 142.894 99.0488C144.658 99.0615 145.941 97.8682 145.966 96.002C145.941 94.1357 144.658 92.9043 142.894 92.9043C141.091 92.9043 139.783 94.1357 139.796 96.002ZM165.276 89.3242C165.289 93.0312 166.558 96.8906 169.669 98.8457L168.12 101.004C166.05 99.7598 164.705 97.627 163.943 95.126C163.118 97.8809 161.645 100.217 159.487 101.537L157.735 99.4297C161.074 97.4111 162.547 93.3613 162.559 89.4512V85.3379H165.276V89.3242ZM167.206 93.5391V91.2031H170.481V83.7129H173.147V105.143H170.481V93.5391H167.206ZM175.204 106.26V83.3066H177.921V106.26H175.204ZM201.039 101.156V103.467H180.067V101.156H184.916V95.3545C183.088 94.3008 181.984 92.6504 181.996 90.6191C181.984 86.9629 185.564 84.5508 190.502 84.5508C195.466 84.5508 199.071 86.9629 199.059 90.6191C199.071 92.625 197.992 94.2373 196.215 95.291V101.156H201.039ZM184.764 90.6191C184.751 92.9678 187.074 94.4658 190.502 94.4531C193.917 94.4658 196.291 92.9678 196.291 90.6191C196.291 88.2324 193.917 86.7725 190.502 86.7852C187.074 86.7725 184.751 88.2324 184.764 90.6191ZM187.709 101.156H193.346V96.3701C192.47 96.5605 191.518 96.6621 190.502 96.6621C189.512 96.6621 188.572 96.5605 187.709 96.3828V101.156Z" fill="black"/>
<path d="M30.0898 130.281C29.7207 128.523 28.2178 127.574 26.5391 127.574C24.2363 127.574 22.4521 129.35 22.4434 132.637C22.4521 135.915 24.2363 137.69 26.5391 137.699C28.2178 137.69 29.7119 136.75 30.0898 135.01H31.6719C31.2148 137.611 29.123 139.176 26.5391 139.176C23.2695 139.176 20.9053 136.662 20.9141 132.637C20.9053 128.611 23.2695 126.098 26.5391 126.098C29.1143 126.098 31.1973 127.636 31.6719 130.281H30.0898ZM34.8451 133.27V139H33.3334V126.273H34.8451V130.949H34.9681C35.4164 129.965 36.2689 129.332 37.7806 129.332C39.7318 129.332 41.0326 130.483 41.0326 132.936V139H39.5209V133.041C39.5209 131.538 38.6947 130.686 37.3236 130.686C35.8998 130.686 34.8451 131.617 34.8451 133.27ZM47.0007 139.193C44.3991 139.202 42.6413 137.233 42.6413 134.271C42.6413 131.292 44.3991 129.332 47.0007 129.332C49.5935 129.332 51.3337 131.292 51.3249 134.271C51.3337 137.233 49.5935 139.202 47.0007 139.193ZM44.153 134.271C44.1618 136.179 45.0583 137.857 47.0007 137.857C48.9255 137.857 49.8132 136.179 49.8132 134.271C49.8132 132.373 48.9255 130.668 47.0007 130.668C45.0583 130.668 44.1618 132.373 44.153 134.271ZM56.8536 139.193C54.252 139.202 52.4942 137.233 52.4942 134.271C52.4942 131.292 54.252 129.332 56.8536 129.332C59.4464 129.332 61.1866 131.292 61.1778 134.271C61.1866 137.233 59.4464 139.202 56.8536 139.193ZM54.0059 134.271C54.0147 136.179 54.9112 137.857 56.8536 137.857C58.7784 137.857 59.6661 136.179 59.6661 134.271C59.6661 132.373 58.7784 130.668 56.8536 130.668C54.9112 130.668 54.0147 132.373 54.0059 134.271ZM68.1127 131.934C67.9018 131.143 67.2954 130.624 66.1791 130.615C65.0014 130.624 64.1664 131.257 64.1577 132.057C64.1664 132.689 64.6762 133.12 65.7924 133.393L67.2163 133.744C68.9213 134.148 69.7563 135.001 69.7651 136.328C69.7563 137.98 68.4116 139.202 66.0209 139.193C63.8764 139.202 62.602 138.244 62.3471 136.504H63.9291C64.1049 137.436 64.7817 137.884 65.9858 137.875C67.3481 137.884 68.2006 137.312 68.2006 136.416C68.2006 135.739 67.7172 135.3 66.6362 135.045L65.1948 134.711C63.5336 134.324 62.6459 133.419 62.6459 132.145C62.6459 130.51 64.0786 129.332 66.1791 129.332C68.1567 129.332 69.3959 130.387 69.5893 131.934H68.1127ZM75.3816 139.193C72.6219 139.202 70.9168 137.233 70.9168 134.307C70.9168 131.371 72.6482 129.332 75.241 129.332C77.2449 129.332 79.3631 130.562 79.3543 134.096V134.729H72.4285C72.5076 136.75 73.6854 137.857 75.3816 137.857C76.5242 137.857 77.2449 137.356 77.5965 136.768H79.2137C78.7654 138.218 77.3504 139.202 75.3816 139.193ZM72.4373 133.445H77.825C77.8162 131.854 76.8143 130.668 75.241 130.668C73.5887 130.668 72.5428 131.969 72.4373 133.445ZM86.0874 142.586C85.7622 142.577 85.437 142.568 85.2437 142.551V141.197C85.4019 141.215 85.7446 141.224 85.982 141.232C86.5972 141.224 87.1157 141.188 87.6167 139.791L87.898 139.07L84.3648 129.455H86.0171L88.6187 137.031H88.7241L91.3257 129.455H92.978L88.9351 140.371C88.3726 141.874 87.4409 142.577 86.0874 142.586ZM97.8388 139.193C95.2372 139.202 93.4794 137.233 93.4794 134.271C93.4794 131.292 95.2372 129.332 97.8388 129.332C100.432 129.332 102.172 131.292 102.163 134.271C102.172 137.233 100.432 139.202 97.8388 139.193ZM94.9911 134.271C94.9999 136.179 95.8964 137.857 97.8388 137.857C99.7636 137.857 100.651 136.179 100.651 134.271C100.651 132.373 99.7636 130.668 97.8388 130.668C95.8964 130.668 94.9999 132.373 94.9911 134.271ZM109.819 135.08V129.455H111.313V139H109.819V137.383H109.713C109.265 138.35 108.316 139.123 106.883 139.123C105.073 139.123 103.781 137.945 103.789 135.52V129.455H105.301V135.414C105.301 136.785 106.154 137.673 107.375 137.664C108.456 137.673 109.81 136.864 109.819 135.08ZM113.379 139V129.455H114.838V130.914H114.943C115.286 129.947 116.279 129.306 117.404 129.297C117.632 129.306 118.019 129.314 118.195 129.332V130.861C118.081 130.835 117.676 130.756 117.281 130.756C115.91 130.756 114.89 131.705 114.89 132.988V139H113.379ZM124.981 126.273V139H123.469V126.273H124.981ZM126.572 136.293C126.572 134.104 128.506 133.604 130.158 133.48C130.773 133.437 132.311 133.349 132.742 133.34V132.566C132.742 131.354 132.021 130.65 130.58 130.65C129.376 130.65 128.646 131.204 128.435 131.934H126.853C127.047 130.396 128.541 129.332 130.65 129.332C131.898 129.332 134.245 129.701 134.236 132.707V139H132.742V137.699H132.672C132.355 138.341 131.485 139.22 129.824 139.229C128.013 139.22 126.572 138.156 126.572 136.293ZM128.084 136.363C128.092 137.374 128.927 137.884 130.088 137.875C131.793 137.884 132.742 136.741 132.742 135.537V134.579C132.294 134.605 130.791 134.72 130.334 134.746C128.963 134.834 128.092 135.317 128.084 136.363ZM137.814 133.27V139H136.302V129.455H137.761V130.949H137.884C138.332 129.974 139.229 129.332 140.679 129.332C142.612 129.332 143.904 130.51 143.896 132.936V139H142.384V133.041C142.384 131.564 141.575 130.686 140.222 130.686C138.833 130.686 137.814 131.617 137.814 133.27ZM149.829 142.779C147.517 142.779 145.953 141.769 145.786 140.002H147.368C147.57 140.978 148.475 141.461 149.829 141.461C151.463 141.461 152.465 140.749 152.465 139.176V137.242H152.342C152.017 137.77 151.411 138.851 149.565 138.859C147.245 138.851 145.504 137.102 145.504 134.096C145.504 131.16 147.183 129.332 149.582 129.332C151.437 129.332 152.035 130.457 152.377 130.967H152.5V129.455H153.977V139.264C153.968 141.725 152.158 142.779 149.829 142.779ZM147.034 134.148C147.034 136.126 147.965 137.506 149.776 137.506C151.525 137.506 152.492 136.249 152.5 134.148C152.492 132.101 151.551 130.686 149.776 130.686C147.939 130.686 147.034 132.224 147.034 134.148ZM162.054 135.08V129.455H163.549V139H162.054V137.383H161.949C161.501 138.35 160.552 139.123 159.119 139.123C157.308 139.123 156.016 137.945 156.025 135.52V129.455H157.537V135.414C157.537 136.785 158.389 137.673 159.611 137.664C160.692 137.673 162.046 136.864 162.054 135.08ZM165.157 136.293C165.157 134.104 167.091 133.604 168.743 133.48C169.359 133.437 170.897 133.349 171.327 133.34V132.566C171.327 131.354 170.607 130.65 169.165 130.65C167.961 130.65 167.232 131.204 167.021 131.934H165.439C165.632 130.396 167.126 129.332 169.235 129.332C170.484 129.332 172.83 129.701 172.821 132.707V139H171.327V137.699H171.257C170.941 138.341 170.07 139.22 168.409 139.229C166.599 139.22 165.157 138.156 165.157 136.293ZM166.669 136.363C166.678 137.374 167.513 137.884 168.673 137.875C170.378 137.884 171.327 136.741 171.327 135.537V134.579C170.879 134.605 169.376 134.72 168.919 134.746C167.548 134.834 166.678 135.317 166.669 136.363ZM178.754 142.779C176.443 142.779 174.878 141.769 174.711 140.002H176.293C176.496 140.978 177.401 141.461 178.754 141.461C180.389 141.461 181.391 140.749 181.391 139.176V137.242H181.268C180.943 137.77 180.336 138.851 178.491 138.859C176.17 138.851 174.43 137.102 174.43 134.096C174.43 131.16 176.109 129.332 178.508 129.332C180.363 129.332 180.96 130.457 181.303 130.967H181.426V129.455H182.903V139.264C182.894 141.725 181.083 142.779 178.754 142.779ZM175.959 134.148C175.959 136.126 176.891 137.506 178.702 137.506C180.451 137.506 181.417 136.249 181.426 134.148C181.417 132.101 180.477 130.686 178.702 130.686C176.865 130.686 175.959 132.224 175.959 134.148ZM188.959 139.193C186.199 139.202 184.494 137.233 184.494 134.307C184.494 131.371 186.225 129.332 188.818 129.332C190.822 129.332 192.94 130.562 192.931 134.096V134.729H186.006C186.085 136.75 187.263 137.857 188.959 137.857C190.101 137.857 190.822 137.356 191.174 136.768H192.791C192.343 138.218 190.928 139.202 188.959 139.193ZM186.014 133.445H191.402C191.393 131.854 190.391 130.668 188.818 130.668C187.166 130.668 186.12 131.969 186.014 133.445ZM195.613 139.105C194.997 139.097 194.47 138.587 194.488 137.963C194.47 137.348 194.997 136.838 195.613 136.838C196.237 136.838 196.746 137.348 196.738 137.963C196.746 138.587 196.237 139.097 195.613 139.105Z" fill="#555555"/>
<mask id="path-5-inside-1_250_876" fill="white">
<path d="M20 152H430V218H20V152Z"/>
</mask>
<path d="M430 217H20V219H430V217Z" fill="#CCCCCC" mask="url(#path-5-inside-1_250_876)"/>
<path d="M32.8496 176.814V181.965H35.2051V183.125H32.8496V188.521H31.4785V176.814H32.8496ZM20.668 179.855V178.73H24.6406V176.814H26.0117V178.73H29.9844V179.855H20.668ZM21.5645 183.635C21.5557 181.859 23.0674 180.717 25.3262 180.717C27.5586 180.717 29.0703 181.859 29.0879 183.635C29.0703 185.393 27.5586 186.526 25.3262 186.518C23.0674 186.526 21.5557 185.393 21.5645 183.635ZM22.8828 183.635C22.874 184.733 23.8496 185.445 25.3262 185.428C26.7852 185.445 27.7695 184.733 27.7871 183.635C27.7695 182.519 26.7852 181.798 25.3262 181.807C23.8496 181.798 22.874 182.519 22.8828 183.635ZM23.0762 192.09V187.59H24.4297V190.93H33.5703V192.09H23.0762ZM48.2572 177.57V178.695C48.2572 179.855 48.2572 181.262 47.8705 183.143H50.138V184.268H43.6341V187.15H48.3627V192.424H46.974V188.293H37.306V187.15H42.263V184.268H35.8295V183.143H46.4818C46.8949 181.235 46.8949 179.855 46.8861 178.695H37.64V177.57H48.2572ZM55.2273 178.01C57.3542 178.019 58.8923 179.847 59.1032 182.773H62.6101V176.797H63.9812V192.459H62.6101V183.916H59.1208C58.9714 186.983 57.407 188.899 55.2273 188.891C52.9157 188.899 51.2986 186.79 51.3073 183.459C51.2986 180.137 52.9157 178.019 55.2273 178.01ZM52.6257 183.459C52.6345 185.999 53.6892 187.669 55.2273 187.66C56.7566 187.669 57.8288 185.999 57.8288 183.459C57.8288 180.919 56.7566 179.249 55.2273 179.24C53.6892 179.249 52.6345 180.919 52.6257 183.459Z" fill="#222222"/>
<path d="M394.312 181C394.312 182.938 395.719 184.766 397.75 185.5L397.062 186.453C395.539 185.852 394.32 184.648 393.727 183.133C393.141 184.812 391.875 186.141 390.234 186.797L389.578 185.797C391.664 185.031 393.102 183.086 393.109 180.953V179.234H394.312V181ZM392.094 191.969V187.609H393.328V190.938H401.391V191.969H392.094ZM396.75 182.688V181.656H399.844V178.391H401.078V188.797H399.844V182.688H396.75ZM409.086 179.391V180.422H404.868V182.156H408.93V183.125H404.868V185.047C406.891 185.039 408.157 184.961 409.649 184.672L409.774 185.688C408.141 186.008 406.828 186.07 404.571 186.078H403.696V179.391H409.086ZM405.508 188.531V187.531H414.868V192.266H413.664V188.531H405.508ZM410.602 186.719V178.656H411.743V182.016H413.696V178.391H414.868V186.812H413.696V183.016H411.743V186.719H410.602ZM428.048 178.391V186.828H426.829V178.391H428.048ZM416.673 185.25C417.844 185.25 419.212 185.234 420.626 185.188V183.531H417.907V179.156H424.641V180.172H419.141V182.531H424.751V183.531H421.86V185.141C423.157 185.07 424.462 184.969 425.688 184.797L425.766 185.688C422.727 186.195 419.329 186.227 416.829 186.219L416.673 185.25ZM418.907 192.078V187.516H428.048V192.078H418.907ZM420.11 191.078H426.86V188.5H420.11V191.078Z" fill="#666666"/>
<mask id="path-9-inside-2_250_876" fill="white">
<path d="M20 218H430V284H20V218Z"/>
</mask>
<path d="M430 283H20V285H430V283Z" fill="#CCCCCC" mask="url(#path-9-inside-2_250_876)"/>
<path d="M21.4062 257V244.273H29.123V245.68H22.9883V249.934H28.7188V251.322H22.9883V255.594H29.2109V257H21.4062ZM32.5775 251.27V257H31.0658V247.455H32.5248V248.949H32.6478C33.0961 247.974 33.9925 247.332 35.4427 247.332C37.3763 247.332 38.6683 248.51 38.6595 250.936V257H37.1478V251.041C37.1478 249.564 36.3392 248.686 34.9857 248.686C33.597 248.686 32.5775 249.617 32.5775 251.27ZM44.5925 260.779C42.281 260.779 40.7165 259.769 40.5495 258.002H42.1316C42.3337 258.978 43.239 259.461 44.5925 259.461C46.2273 259.461 47.2292 258.749 47.2292 257.176V255.242H47.1062C46.781 255.77 46.1745 256.851 44.3288 256.859C42.0085 256.851 40.2683 255.102 40.2683 252.096C40.2683 249.16 41.947 247.332 44.3464 247.332C46.2009 247.332 46.7986 248.457 47.1413 248.967H47.2644V247.455H48.7409V257.264C48.7321 259.725 46.9216 260.779 44.5925 260.779ZM41.7976 252.148C41.7976 254.126 42.7292 255.506 44.5398 255.506C46.2888 255.506 47.2556 254.249 47.2644 252.148C47.2556 250.101 46.3152 248.686 44.5398 248.686C42.7029 248.686 41.7976 250.224 41.7976 252.148ZM52.3009 244.273V257H50.7891V244.273H52.3009ZM54.3491 257V247.455H55.8608V257H54.3491ZM54.0502 244.871C54.0414 244.309 54.5248 243.86 55.1049 243.869C55.685 243.86 56.1684 244.309 56.1772 244.871C56.1684 245.425 55.685 245.873 55.1049 245.873C54.5248 245.873 54.0414 245.425 54.0502 244.871ZM63.2176 249.934C63.0066 249.143 62.4002 248.624 61.284 248.615C60.1063 248.624 59.2713 249.257 59.2625 250.057C59.2713 250.689 59.7811 251.12 60.8973 251.393L62.3211 251.744C64.0262 252.148 64.8611 253.001 64.8699 254.328C64.8611 255.98 63.5164 257.202 61.1258 257.193C58.9813 257.202 57.7068 256.244 57.452 254.504H59.034C59.2098 255.436 59.8865 255.884 61.0906 255.875C62.4529 255.884 63.3055 255.312 63.3055 254.416C63.3055 253.739 62.8221 253.3 61.741 253.045L60.2996 252.711C58.6385 252.324 57.7508 251.419 57.7508 250.145C57.7508 248.51 59.1834 247.332 61.284 247.332C63.2615 247.332 64.5008 248.387 64.6941 249.934H63.2176ZM67.9904 251.27V257H66.4787V244.273H67.9904V248.949H68.1134C68.5617 247.965 69.4142 247.332 70.9259 247.332C72.8771 247.332 74.1779 248.483 74.1779 250.936V257H72.6662V251.041C72.6662 249.538 71.84 248.686 70.4689 248.686C69.0451 248.686 67.9904 249.617 67.9904 251.27Z" fill="#222222"/>
<mask id="mask1_250_876" style="mask-type:alpha" maskUnits="userSpaceOnUse" x="410" y="241" width="20" height="20">
<rect width="20" height="20" transform="matrix(-1 0 0 1 430 241)" fill="#D9D9D9"/>
</mask>
<g mask="url(#mask1_250_876)">
<path d="M422.485 251L416.457 257.027C416.306 257.179 416.229 257.367 416.226 257.591C416.223 257.816 416.298 258.004 416.449 258.156C416.601 258.307 416.789 258.383 417.013 258.383C417.238 258.383 417.426 258.307 417.578 258.156L423.783 251.942C423.919 251.806 424.017 251.658 424.076 251.498C424.135 251.339 424.164 251.173 424.164 251C424.164 250.827 424.135 250.661 424.076 250.502C424.017 250.343 423.919 250.195 423.783 250.058L417.578 243.853C417.426 243.701 417.239 243.624 417.017 243.621C416.796 243.619 416.609 243.693 416.457 243.845C416.306 243.996 416.23 244.184 416.23 244.409C416.23 244.633 416.306 244.821 416.457 244.973L422.485 251Z" fill="#222222"/>
</g>
<mask id="path-14-inside-3_250_876" fill="white">
<path d="M20 284H430V350H20V284Z"/>
</mask>
<path d="M430 349H20V351H430V349Z" fill="#CCCCCC" mask="url(#path-14-inside-3_250_876)"/>
<path d="M30.0898 314.281C29.7207 312.523 28.2178 311.574 26.5391 311.574C24.2363 311.574 22.4521 313.35 22.4434 316.637C22.4521 319.915 24.2363 321.69 26.5391 321.699C28.2178 321.69 29.7119 320.75 30.0898 319.01H31.6719C31.2148 321.611 29.123 323.176 26.5391 323.176C23.2695 323.176 20.9053 320.662 20.9141 316.637C20.9053 312.611 23.2695 310.098 26.5391 310.098C29.1143 310.098 31.1973 311.636 31.6719 314.281H30.0898ZM34.8451 317.27V323H33.3334V310.273H34.8451V314.949H34.9681C35.4164 313.965 36.2689 313.332 37.7806 313.332C39.7318 313.332 41.0326 314.483 41.0326 316.936V323H39.5209V317.041C39.5209 315.538 38.6947 314.686 37.3236 314.686C35.8998 314.686 34.8451 315.617 34.8451 317.27ZM43.0984 323V313.455H44.6101V323H43.0984ZM42.7995 310.871C42.7907 310.309 43.2741 309.86 43.8542 309.869C44.4343 309.86 44.9177 310.309 44.9265 310.871C44.9177 311.425 44.4343 311.873 43.8542 311.873C43.2741 311.873 42.7907 311.425 42.7995 310.871ZM48.17 317.27V323H46.6583V313.455H48.1173V314.949H48.2403C48.6886 313.974 49.585 313.332 51.0352 313.332C52.9688 313.332 54.2608 314.51 54.252 316.936V323H52.7403V317.041C52.7403 315.564 51.9317 314.686 50.5782 314.686C49.1895 314.686 48.17 315.617 48.17 317.27ZM60.3256 323.193C57.5659 323.202 55.8608 321.233 55.8608 318.307C55.8608 315.371 57.5922 313.332 60.185 313.332C62.1889 313.332 64.3071 314.562 64.2983 318.096V318.729H57.3725C57.4516 320.75 58.6293 321.857 60.3256 321.857C61.4682 321.857 62.1889 321.356 62.5405 320.768H64.1577C63.7094 322.218 62.2944 323.202 60.3256 323.193ZM57.3813 317.445H62.769C62.7602 315.854 61.7582 314.668 60.185 314.668C58.5327 314.668 57.4868 315.969 57.3813 317.445ZM71.2156 315.934C71.0047 315.143 70.3982 314.624 69.282 314.615C68.1043 314.624 67.2693 315.257 67.2605 316.057C67.2693 316.689 67.7791 317.12 68.8953 317.393L70.3191 317.744C72.0242 318.148 72.8592 319.001 72.868 320.328C72.8592 321.98 71.5145 323.202 69.1238 323.193C66.9793 323.202 65.7049 322.244 65.45 320.504H67.032C67.2078 321.436 67.8846 321.884 69.0887 321.875C70.451 321.884 71.3035 321.312 71.3035 320.416C71.3035 319.739 70.8201 319.3 69.7391 319.045L68.2977 318.711C66.6365 318.324 65.7488 317.419 65.7488 316.145C65.7488 314.51 67.1814 313.332 69.282 313.332C71.2596 313.332 72.4988 314.387 72.6922 315.934H71.2156ZM78.4845 323.193C75.7248 323.202 74.0197 321.233 74.0197 318.307C74.0197 315.371 75.7511 313.332 78.3439 313.332C80.3478 313.332 82.466 314.562 82.4572 318.096V318.729H75.5314C75.6105 320.75 76.7882 321.857 78.4845 321.857C79.6271 321.857 80.3478 321.356 80.6994 320.768H82.3166C81.8683 322.218 80.4533 323.202 78.4845 323.193ZM75.5402 317.445H80.9279C80.9191 315.854 79.9171 314.668 78.3439 314.668C76.6916 314.668 75.6457 315.969 75.5402 317.445Z" fill="#222222"/>
<mask id="mask2_250_876" style="mask-type:alpha" maskUnits="userSpaceOnUse" x="410" y="307" width="20" height="20">
<rect width="20" height="20" transform="matrix(-1 0 0 1 430 307)" fill="#D9D9D9"/>
</mask>
<g mask="url(#mask2_250_876)">
<path d="M422.485 317L416.457 323.027C416.306 323.179 416.229 323.367 416.226 323.591C416.223 323.816 416.298 324.004 416.449 324.156C416.601 324.307 416.789 324.383 417.013 324.383C417.238 324.383 417.426 324.307 417.578 324.156L423.783 317.942C423.919 317.806 424.017 317.658 424.076 317.498C424.135 317.339 424.164 317.173 424.164 317C424.164 316.827 424.135 316.661 424.076 316.502C424.017 316.343 423.919 316.195 423.783 316.058L417.578 309.853C417.426 309.701 417.239 309.624 417.017 309.621C416.796 309.619 416.609 309.693 416.457 309.845C416.306 309.996 416.23 310.184 416.23 310.409C416.23 310.633 416.306 310.821 416.457 310.973L422.485 317Z" fill="#222222"/>
</g>
<mask id="path-19-inside-4_250_876" fill="white">
<path d="M20 350H430V416H20V350Z"/>
</mask>
<path d="M430 415H20V417H430V415Z" fill="#CCCCCC" mask="url(#path-19-inside-4_250_876)"/>
<path d="M26.2754 376.273H27.875V385.361C27.8662 387.805 26.4424 389.176 24.2188 389.176C22.1094 389.176 20.5801 387.972 20.5801 385.994H22.1445C22.1533 387.075 23.0234 387.77 24.2188 387.77C25.5283 387.77 26.2754 386.935 26.2754 385.361V376.273ZM29.6771 386.293C29.6771 384.104 31.6107 383.604 33.263 383.48C33.8783 383.437 35.4164 383.349 35.847 383.34V382.566C35.847 381.354 35.1263 380.65 33.6849 380.65C32.4808 380.65 31.7513 381.204 31.5404 381.934H29.9584C30.1517 380.396 31.6459 379.332 33.7552 379.332C35.0033 379.332 37.35 379.701 37.3412 382.707V389H35.847V387.699H35.7767C35.4603 388.341 34.5902 389.22 32.9291 389.229C31.1185 389.22 29.6771 388.156 29.6771 386.293ZM31.1888 386.363C31.1976 387.374 32.0326 387.884 33.1927 387.875C34.8978 387.884 35.847 386.741 35.847 385.537V384.579C35.3988 384.605 33.8959 384.72 33.4388 384.746C32.0677 384.834 31.1976 385.317 31.1888 386.363ZM39.407 392.586V379.455H40.8659V380.967H41.0417C41.3669 380.457 41.947 379.332 43.8015 379.332C46.2009 379.332 47.862 381.23 47.862 384.254C47.862 387.286 46.2009 389.202 43.8191 389.193C41.9997 389.202 41.3669 388.068 41.0417 387.541H40.9187V392.586H39.407ZM40.8835 384.219C40.8923 386.363 41.8503 387.84 43.6081 387.84C45.4187 387.84 46.3503 386.249 46.3503 384.219C46.3503 382.224 45.445 380.686 43.6081 380.686C41.8239 380.686 40.8923 382.101 40.8835 384.219ZM49.0138 386.293C49.0138 384.104 50.9473 383.604 52.5997 383.48C53.2149 383.437 54.753 383.349 55.1837 383.34V382.566C55.1837 381.354 54.463 380.65 53.0216 380.65C51.8175 380.65 51.088 381.204 50.877 381.934H49.295C49.4884 380.396 50.9825 379.332 53.0919 379.332C54.3399 379.332 56.6866 379.701 56.6778 382.707V389H55.1837V387.699H55.1134C54.797 388.341 53.9268 389.22 52.2657 389.229C50.4552 389.22 49.0138 388.156 49.0138 386.293ZM50.5255 386.363C50.5343 387.374 51.3692 387.884 52.5294 387.875C54.2345 387.884 55.1837 386.741 55.1837 385.537V384.579C54.7354 384.605 53.2325 384.72 52.7755 384.746C51.4044 384.834 50.5343 385.317 50.5255 386.363ZM60.2553 383.27V389H58.7436V379.455H60.2026V380.949H60.3256C60.7739 379.974 61.6704 379.332 63.1205 379.332C65.0541 379.332 66.3461 380.51 66.3373 382.936V389H64.8256V383.041C64.8256 381.564 64.017 380.686 62.6635 380.686C61.2748 380.686 60.2553 381.617 60.2553 383.27ZM72.4109 389.193C69.6512 389.202 67.9461 387.233 67.9461 384.307C67.9461 381.371 69.6775 379.332 72.2703 379.332C74.2742 379.332 76.3924 380.562 76.3836 384.096V384.729H69.4578C69.5369 386.75 70.7146 387.857 72.4109 387.857C73.5535 387.857 74.2742 387.356 74.6258 386.768H76.243C75.7947 388.218 74.3797 389.202 72.4109 389.193ZM69.4666 383.445H74.8543C74.8455 381.854 73.8436 380.668 72.2703 380.668C70.618 380.668 69.5721 381.969 69.4666 383.445ZM83.3009 381.934C83.09 381.143 82.4836 380.624 81.3673 380.615C80.1896 380.624 79.3546 381.257 79.3459 382.057C79.3546 382.689 79.8644 383.12 80.9806 383.393L82.4045 383.744C84.1095 384.148 84.9445 385.001 84.9533 386.328C84.9445 387.98 83.5998 389.202 81.2091 389.193C79.0646 389.202 77.7902 388.244 77.5353 386.504H79.1173C79.2931 387.436 79.9699 387.884 81.174 387.875C82.5363 387.884 83.3888 387.312 83.3888 386.416C83.3888 385.739 82.9054 385.3 81.8244 385.045L80.383 384.711C78.7218 384.324 77.8341 383.419 77.8341 382.145C77.8341 380.51 79.2668 379.332 81.3673 379.332C83.3449 379.332 84.5841 380.387 84.7775 381.934H83.3009ZM90.5698 389.193C87.8101 389.202 86.105 387.233 86.105 384.307C86.105 381.371 87.8364 379.332 90.4292 379.332C92.4331 379.332 94.5513 380.562 94.5425 384.096V384.729H87.6167C87.6958 386.75 88.8736 387.857 90.5698 387.857C91.7124 387.857 92.4331 387.356 92.7847 386.768H94.4019C93.9536 388.218 92.5386 389.202 90.5698 389.193ZM87.6255 383.445H93.0132C93.0044 381.854 92.0025 380.668 90.4292 380.668C88.7769 380.668 87.731 381.969 87.6255 383.445Z" fill="#222222"/>
<mask id="mask3_250_876" style="mask-type:alpha" maskUnits="userSpaceOnUse" x="410" y="373" width="20" height="20">
<rect width="20" height="20" transform="matrix(-1 0 0 1 430 373)" fill="#D9D9D9"/>
</mask>
<g mask="url(#mask3_250_876)">
<path d="M422.485 383L416.457 389.027C416.306 389.179 416.229 389.367 416.226 389.591C416.223 389.816 416.298 390.004 416.449 390.156C416.601 390.307 416.789 390.383 417.013 390.383C417.238 390.383 417.426 390.307 417.578 390.156L423.783 383.942C423.919 383.806 424.017 383.658 424.076 383.498C424.135 383.339 424.164 383.173 424.164 383C424.164 382.827 424.135 382.661 424.076 382.502C424.017 382.343 423.919 382.195 423.783 382.058L417.578 375.853C417.426 375.701 417.239 375.624 417.017 375.621C416.796 375.619 416.609 375.693 416.457 375.845C416.306 375.996 416.23 376.184 416.23 376.409C416.23 376.633 416.306 376.821 416.457 376.973L422.485 383Z" fill="#222222"/>
</g>
<mask id="path-24-inside-5_250_876" fill="white">
<path d="M20 416H430V482H20V416Z"/>
</mask>
<path d="M430 481H20V483H430V481Z" fill="#CCCCCC" mask="url(#path-24-inside-5_250_876)"/>
<path d="M21.9863 442.273L25.7305 452.943H25.8711L29.6328 442.273H31.3027L26.6445 455H24.9746L20.3164 442.273H21.9863ZM32.472 455V445.455H33.9838V455H32.472ZM32.1732 442.871C32.1644 442.309 32.6478 441.86 33.2279 441.869C33.808 441.86 34.2914 442.309 34.3002 442.871C34.2914 443.425 33.808 443.873 33.2279 443.873C32.6478 443.873 32.1644 443.425 32.1732 442.871ZM40.0398 455.193C37.28 455.202 35.5749 453.233 35.5749 450.307C35.5749 447.371 37.3064 445.332 39.8991 445.332C41.903 445.332 44.0212 446.562 44.0124 450.096V450.729H37.0866C37.1657 452.75 38.3435 453.857 40.0398 453.857C41.1823 453.857 41.903 453.356 42.2546 452.768H43.8718C43.4236 454.218 42.0085 455.202 40.0398 455.193ZM37.0954 449.445H42.4831C42.4743 447.854 41.4724 446.668 39.8991 446.668C38.2468 446.668 37.2009 447.969 37.0954 449.445ZM49.7872 445.455V446.721H47.7833V452.258C47.7745 453.479 48.3897 453.682 49.0313 453.682C49.3038 453.682 49.7081 453.655 49.9278 453.646V455.053C49.6905 455.088 49.3214 455.123 48.8731 455.123C47.5987 455.123 46.2628 454.332 46.254 452.645V446.721H44.8126V445.455H46.254V443.17H47.7833V445.455H49.7872ZM52.8901 449.27V455H51.3784V445.455H52.8373V446.949H52.9604C53.4086 445.974 54.3051 445.332 55.7553 445.332C57.6889 445.332 58.9809 446.51 58.9721 448.936V455H57.4604V449.041C57.4604 447.564 56.6518 446.686 55.2983 446.686C53.9096 446.686 52.8901 447.617 52.8901 449.27ZM60.5809 452.293C60.5809 450.104 62.5145 449.604 64.1668 449.48C64.782 449.437 66.3201 449.349 66.7508 449.34V448.566C66.7508 447.354 66.0301 446.65 64.5887 446.65C63.3846 446.65 62.6551 447.204 62.4441 447.934H60.8621C61.0555 446.396 62.5496 445.332 64.659 445.332C65.907 445.332 68.2537 445.701 68.2449 448.707V455H66.7508V453.699H66.6805C66.3641 454.341 65.4939 455.22 63.8328 455.229C62.0223 455.22 60.5809 454.156 60.5809 452.293ZM62.0926 452.363C62.1014 453.374 62.9363 453.884 64.0965 453.875C65.8016 453.884 66.7508 452.741 66.7508 451.537V450.579C66.3025 450.605 64.7996 450.72 64.3426 450.746C62.9715 450.834 62.1014 451.317 62.0926 452.363ZM70.3107 455V445.455H71.7697V446.949H71.8927C72.2882 445.93 73.2111 445.332 74.4591 445.332C75.7072 445.332 76.5597 445.93 77.008 446.949H77.1134C77.5968 445.965 78.6076 445.332 79.9787 445.332C81.675 445.332 82.8966 446.369 82.8966 448.619V455H81.3849V448.637C81.3761 447.23 80.4972 446.686 79.4513 446.686C78.1242 446.686 77.3683 447.582 77.3595 448.795V455H75.8302V448.479C75.839 447.406 75.0656 446.686 73.967 446.686C72.8244 446.686 71.8224 447.652 71.8224 449.041V455H70.3107ZM88.9702 455.193C86.2105 455.202 84.5054 453.233 84.5054 450.307C84.5054 447.371 86.2368 445.332 88.8296 445.332C90.8335 445.332 92.9517 446.562 92.9429 450.096V450.729H86.0171C86.0962 452.75 87.2739 453.857 88.9702 453.857C90.1128 453.857 90.8335 453.356 91.1851 452.768H92.8023C92.354 454.218 90.939 455.202 88.9702 455.193ZM86.0259 449.445H91.4136C91.4048 447.854 90.4029 446.668 88.8296 446.668C87.1773 446.668 86.1314 447.969 86.0259 449.445ZM99.8602 447.934C99.6493 447.143 99.0429 446.624 97.9266 446.615C96.7489 446.624 95.9139 447.257 95.9052 448.057C95.9139 448.689 96.4237 449.12 97.5399 449.393L98.9638 449.744C100.669 450.148 101.504 451.001 101.513 452.328C101.504 453.98 100.159 455.202 97.7684 455.193C95.6239 455.202 94.3495 454.244 94.0946 452.504H95.6766C95.8524 453.436 96.5292 453.884 97.7333 453.875C99.0956 453.884 99.9481 453.312 99.9481 452.416C99.9481 451.739 99.4647 451.3 98.3837 451.045L96.9423 450.711C95.2811 450.324 94.3934 449.419 94.3934 448.145C94.3934 446.51 95.8261 445.332 97.9266 445.332C99.9042 445.332 101.143 446.387 101.337 447.934H99.8602ZM107.129 455.193C104.369 455.202 102.664 453.233 102.664 450.307C102.664 447.371 104.396 445.332 106.989 445.332C108.992 445.332 111.111 446.562 111.102 450.096V450.729H104.176C104.255 452.75 105.433 453.857 107.129 453.857C108.272 453.857 108.992 453.356 109.344 452.768H110.961C110.513 454.218 109.098 455.202 107.129 455.193ZM104.185 449.445H109.573C109.564 447.854 108.562 446.668 106.989 446.668C105.336 446.668 104.29 447.969 104.185 449.445Z" fill="#222222"/>
<mask id="mask4_250_876" style="mask-type:alpha" maskUnits="userSpaceOnUse" x="410" y="439" width="20" height="20">
<rect width="20" height="20" transform="matrix(-1 0 0 1 430 439)" fill="#D9D9D9"/>
</mask>
<g mask="url(#mask4_250_876)">
<path d="M422.485 449L416.457 455.027C416.306 455.179 416.229 455.367 416.226 455.591C416.223 455.816 416.298 456.004 416.449 456.156C416.601 456.307 416.789 456.383 417.013 456.383C417.238 456.383 417.426 456.307 417.578 456.156L423.783 449.942C423.919 449.806 424.017 449.658 424.076 449.498C424.135 449.339 424.164 449.173 424.164 449C424.164 448.827 424.135 448.661 424.076 448.502C424.017 448.343 423.919 448.195 423.783 448.058L417.578 441.853C417.426 441.701 417.239 441.624 417.017 441.621C416.796 441.619 416.609 441.693 416.457 441.845C416.306 441.996 416.23 442.184 416.23 442.409C416.23 442.633 416.306 442.821 416.457 442.973L422.485 449Z" fill="#222222"/>
</g>
<rect x="20" y="654" width="410" height="56" rx="8" fill="#323C59"/>
<path d="M222.329 673.18V678.375H224.829V679.898H222.329V684.957H220.473V673.18H222.329ZM208.442 683.004C209.8 683.004 211.372 683.004 213.013 682.965V681.783C211.02 681.559 209.751 680.621 209.77 679.215C209.751 677.613 211.421 676.617 213.93 676.637C216.44 676.617 218.081 677.613 218.091 679.215C218.081 680.611 216.841 681.549 214.868 681.783V682.896C216.43 682.818 218.013 682.691 219.477 682.477L219.634 683.805C215.874 684.459 211.723 684.488 208.638 684.488L208.442 683.004ZM208.891 676.051V674.664H213.013V673.023H214.868V674.664H218.989V676.051H208.891ZM210.63 687.223V685.777H222.329V690.66H220.473V687.223H210.63ZM211.528 679.215C211.528 680.035 212.436 680.572 213.93 680.562C215.405 680.572 216.323 680.035 216.313 679.215C216.323 678.375 215.405 677.887 213.93 677.906C212.436 677.887 211.528 678.375 211.528 679.215ZM239.956 673.18V685.895H238.101V673.18H239.956ZM225.796 678.688C225.806 676.158 227.818 674.361 230.464 674.352C233.101 674.361 235.113 676.158 235.113 678.688C235.113 681.256 233.101 683.043 230.464 683.043C227.818 683.043 225.806 681.256 225.796 678.688ZM227.613 678.688C227.603 680.338 228.833 681.422 230.464 681.422C232.066 681.422 233.296 680.338 233.296 678.688C233.296 677.076 232.066 675.973 230.464 675.973C228.833 675.973 227.603 677.076 227.613 678.688ZM228.511 690.289V684.605H230.386V688.785H240.484V690.289H228.511Z" fill="white"/>
</svg>
