<svg width="450" height="730" viewBox="0 0 450 730" fill="none" xmlns="http://www.w3.org/2000/svg">
<rect width="450" height="730" fill="white"/>
<rect width="450" height="58" fill="white"/>
<mask id="mask0_250_1061" style="mask-type:alpha" maskUnits="userSpaceOnUse" x="14" y="17" width="24" height="24">
<rect x="14" y="17" width="24" height="24" fill="#D9D9D9"/>
</mask>
<g mask="url(#mask0_250_1061)">
<path d="M23.0152 28.9994L30.248 36.2321C30.43 36.4141 30.5227 36.6397 30.526 36.9089C30.5292 37.1782 30.4397 37.4039 30.2577 37.5859C30.0756 37.7679 29.8499 37.8589 29.5807 37.8589C29.3116 37.8589 29.0859 37.7679 28.9038 37.5859L21.4578 30.1301C21.2936 29.9659 21.1762 29.7884 21.1057 29.5974C21.0352 29.4064 21 29.207 21 28.9994C21 28.7917 21.0352 28.5924 21.1057 28.4014C21.1762 28.2104 21.2936 28.0328 21.4578 27.8686L28.9038 20.4224C29.0859 20.2404 29.31 20.1478 29.576 20.1446C29.842 20.1414 30.066 20.2309 30.248 20.4129C30.43 20.5949 30.521 20.8205 30.521 21.0899C30.521 21.359 30.43 21.5846 30.248 21.7666L23.0152 28.9994Z" fill="#222222"/>
</g>
<path d="M212.503 144.293V146.098H190.246V144.293H200.253V138.359H192.871V126.957H209.742V138.359H202.359V144.293H212.503ZM194.976 136.637H207.664V128.68H194.976V136.637ZM232.697 124.906V134.477H236.771V136.336H232.697V149.215H230.564V124.906H232.697ZM214.896 143.391V126.984H217.029V133.41H224.139V126.984H226.271V143.391H214.896ZM217.029 141.586H224.139V135.133H217.029V141.586ZM244.415 125.809C248.051 125.822 250.69 128.037 250.704 131.195C250.69 134.367 248.051 136.555 244.415 136.555C240.737 136.555 238.085 134.367 238.098 131.195C238.085 128.037 240.737 125.822 244.415 125.809ZM240.204 131.195C240.176 133.328 241.967 134.805 244.415 134.805C246.821 134.805 248.626 133.328 248.626 131.195C248.626 129.09 246.821 127.6 244.415 127.613C241.967 127.6 240.176 129.09 240.204 131.195ZM241.79 140.301V138.578H257.594V144.43H243.95V147.164H258.469V148.887H241.844V142.816H255.461V140.301H241.79ZM255.461 137.402V124.906H257.594V137.402H255.461ZM186.759 163.934V181.898H184.599V173.23H179.212V171.426H184.599V163.934H186.759ZM166.989 177.332C172.581 175.486 176.477 171.986 176.97 167.598H168.22V165.793H179.321C179.294 172.041 174.823 176.799 167.919 179.055L166.989 177.332ZM171.282 187.695V180.066H173.47V185.891H187.388V187.695H171.282ZM209.249 163.906V170.25H212.914V172.027H209.249V178.508H207.117V163.906H209.249ZM190.273 176.785C196.138 175.09 199.884 171.713 200.322 167.488H191.339V165.711H202.632C202.619 171.904 198.257 176.443 191.175 178.535L190.273 176.785ZM193.609 183.457C193.595 180.545 196.726 178.768 201.566 178.781C206.447 178.768 209.523 180.545 209.523 183.457C209.523 186.41 206.447 188.16 201.566 188.16C196.726 188.16 193.595 186.41 193.609 183.457ZM195.742 183.457C195.714 185.289 197.997 186.451 201.566 186.438C205.134 186.451 207.445 185.289 207.445 183.457C207.445 181.625 205.134 180.49 201.566 180.504C197.997 180.49 195.714 181.625 195.742 183.457ZM236.143 183.32V185.098H213.885V183.32H223.893V178.07H216.51V165.629H218.67V170.031H231.303V165.629H233.408V178.07H225.998V183.32H236.143ZM218.67 176.32H231.303V171.781H218.67V176.32ZM257.676 163.906V178.645H255.516V173.094H251.387V171.316H255.516V163.906H257.676ZM237.551 168.227V166.477H243.594V163.688H245.7V166.477H251.743V168.227H237.551ZM239.001 173.805C239.001 171.262 241.338 169.484 244.633 169.484C247.942 169.484 250.266 171.262 250.294 173.805C250.266 176.43 247.942 178.152 244.633 178.152C241.338 178.152 239.001 176.43 239.001 173.805ZM241.051 173.805C241.051 175.418 242.514 176.484 244.633 176.512C246.753 176.484 248.215 175.418 248.215 173.805C248.215 172.246 246.753 171.152 244.633 171.152C242.514 171.152 241.051 172.246 241.051 173.805ZM241.79 187.887V179.957H257.676V187.887H241.79ZM243.922 186.137H255.571V181.68H243.922V186.137ZM283.312 175.473V177.25H261.163V175.473H283.312ZM262.421 172.301C266.659 171.809 270.747 169.717 270.843 166.941H263.187V165.164H281.343V166.941H273.632C273.728 169.689 277.775 171.809 282.081 172.301L281.288 174.023C277.31 173.518 273.577 171.727 272.237 169.033C270.898 171.727 267.193 173.518 263.187 174.023L262.421 172.301ZM263.843 183.785C263.829 180.996 266.987 179.383 272.237 179.383C277.446 179.383 280.577 180.996 280.605 183.785C280.577 186.602 277.446 188.16 272.237 188.16C266.987 188.16 263.829 186.602 263.843 183.785ZM266.03 183.785C266.003 185.48 268.341 186.451 272.237 186.438C276.093 186.451 278.431 185.48 278.444 183.785C278.431 182.076 276.093 181.105 272.237 181.078C268.341 181.105 266.003 182.076 266.03 183.785Z" fill="black"/>
<g clip-path="url(#clip0_250_1061)">
<circle cx="225" cy="296" r="70" fill="#F2F3F7"/>
<path d="M242.598 258.666H207.012C203.558 258.666 200.732 261.492 200.732 264.946V327.053C200.732 330.507 203.558 333.333 207.012 333.333H242.598C246.052 333.333 248.877 330.507 248.877 327.053V264.946C248.877 261.492 246.052 258.666 242.598 258.666ZM244.691 320.501H204.919V267.562H244.691V320.501Z" fill="#EF403C"/>
<path d="M235.661 300.082H233.693V302.05H235.661V300.082Z" fill="#EF403C"/>
<path d="M235.661 296.129H233.693V298.096H235.661V296.129Z" fill="#EF403C"/>
<path d="M235.661 290.191H233.693V294.126H235.661V290.191Z" fill="#EF403C"/>
<path d="M233.698 298.119H231.73V300.087H233.698V298.119Z" fill="#EF403C"/>
<path d="M231.708 300.082H229.74V302.05H231.708V300.082Z" fill="#EF403C"/>
<path d="M229.741 296.129H227.773V300.085H229.741V296.129Z" fill="#EF403C"/>
<path d="M225.788 294.123H223.82V298.079H225.788V294.123Z" fill="#EF403C"/>
<path d="M233.693 296.091V294.123H229.737V296.091H233.693Z" fill="#EF403C"/>
<path d="M221.828 292.176V290.209H217.872V292.176H221.828Z" fill="#EF403C"/>
<path d="M227.754 292.176V290.209H223.798V292.176H227.754Z" fill="#EF403C"/>
<path d="M227.773 280.326V288.238H235.685V280.326H227.773ZM233.697 286.25H229.741V282.294H233.697V286.25Z" fill="#EF403C"/>
<path d="M213.938 294.162V302.074H221.849V294.162H213.938ZM219.861 300.085H215.905V296.13H219.861V300.085Z" fill="#EF403C"/>
<path d="M213.938 280.326V288.238H221.849V280.326H213.938ZM219.861 286.25H215.905V282.294H219.861V286.25Z" fill="#EF403C"/>
<path d="M227.776 300.082H223.82V302.05H227.776V300.082Z" fill="#EF403C"/>
<path d="M227.753 294.123H225.785V296.091H227.753V294.123Z" fill="#EF403C"/>
<path d="M225.788 280.326H223.82V284.282H225.788V280.326Z" fill="#EF403C"/>
<path d="M215.905 290.209H213.938V292.176H215.905V290.209Z" fill="#EF403C"/>
<path d="M225.788 286.252H223.82V288.219H225.788V286.252Z" fill="#EF403C"/>
<path d="M229.741 292.154H227.773V294.122H229.741V292.154Z" fill="#EF403C"/>
<path d="M231.708 290.191H229.74V292.159H231.708V290.191Z" fill="#EF403C"/>
<path d="M223.796 288.217H221.828V290.184H223.796V288.217Z" fill="#EF403C"/>
<path d="M223.796 292.174H221.828V294.141H223.796V292.174Z" fill="#EF403C"/>
<path d="M225.789 329.314C227.257 329.314 228.447 328.124 228.447 326.656C228.447 325.188 227.257 323.998 225.789 323.998C224.321 323.998 223.131 325.188 223.131 326.656C223.131 328.124 224.321 329.314 225.789 329.314Z" fill="white"/>
<path d="M231.734 262.328H219.865V264.338H231.734V262.328Z" fill="white"/>
</g>
<path d="M132.49 406.805C132.49 410.074 135.689 413.367 140.13 414.141L138.959 416.32C135.408 415.582 132.502 413.426 131.119 410.578C129.724 413.402 126.818 415.57 123.279 416.32L122.13 414.141C126.502 413.344 129.713 410.062 129.724 406.805V405.234H132.49V406.805ZM121.545 422.391V420.234H140.904V422.391H121.545ZM152.588 405.961V419.836H142.557V405.961H152.588ZM145.111 417.75H149.986V408H145.111V417.75ZM155.799 425.086V403.898H158.4V412.031H161.658V414.234H158.4V425.086H155.799ZM179.295 415.008V417.07H164.436V405.562H179.108V407.672H167.085V410.227H178.616V412.266H167.085V415.008H179.295ZM162.069 422.508V420.375H181.428V422.508H162.069ZM199.862 404.742V406.852H196.956V410.906H199.745V412.945H193.276V415.125H201.644V417.188H182.331V415.125H190.651V412.945H184.183V410.906H186.972V406.852H184.065V404.742H199.862ZM184.722 424.664V418.711H187.323V422.555H199.464V424.664H184.722ZM189.573 410.906H194.331V406.852H189.573V410.906ZM212.226 405.094C216.691 405.094 220.136 407.473 220.125 411.07C220.136 414.715 216.691 417.094 212.226 417.094C207.785 417.094 204.363 414.715 204.375 411.07C204.363 407.473 207.785 405.094 212.226 405.094ZM202.593 422.414V420.281H221.953V422.414H202.593ZM206.882 411.07C206.871 413.473 209.144 414.949 212.226 414.961C215.32 414.949 217.57 413.473 217.57 411.07C217.57 408.727 215.32 407.18 212.226 407.203C209.144 407.18 206.871 408.727 206.882 411.07ZM242.215 420.469V422.625H222.855V420.469H231.199V417.023H225.152V410.086H237.34V407.461H225.105V405.352H239.918V412.148H227.754V414.891H240.41V417.023H233.777V420.469H242.215ZM266.075 403.898V419.555H263.474V414.023H260.474V411.867H263.474V409.852H260.474V407.742H263.474V403.898H266.075ZM248.356 414.609C249.095 414.609 249.903 414.609 250.747 414.598V407.578H248.895V405.492H260.169V407.578H258.294V414.352C259.091 414.293 259.864 414.223 260.614 414.141L260.731 416.039C256.712 416.684 252.013 416.766 248.638 416.766L248.356 414.609ZM252.153 424.664V418.336H254.778V422.555H266.614V424.664H252.153ZM253.278 414.562C254.099 414.551 254.942 414.516 255.786 414.48V407.578H253.278V414.562ZM286.244 403.898V425.109H283.665V403.898H286.244ZM269.744 407.859V405.75H279.728V413.695H272.439V417.961C275.779 417.938 278.65 417.762 281.955 417.211L282.189 419.344C278.591 419.965 275.427 420.105 271.619 420.094H269.767V411.633H277.08V407.859H269.744ZM305.451 403.898V412.336H308.709V414.492H305.451V425.086H302.873V403.898H305.451ZM288.74 409.242V407.156H293.756V404.203H296.357V407.156H301.232V409.242H288.74ZM289.725 415.617C289.701 412.688 291.975 410.613 295.068 410.625C298.115 410.613 300.377 412.688 300.389 415.617C300.377 418.535 298.115 420.586 295.068 420.586C291.975 420.586 289.701 418.535 289.725 415.617ZM292.209 415.617C292.197 417.34 293.404 418.441 295.068 418.43C296.697 418.441 297.881 417.34 297.904 415.617C297.881 413.895 296.697 412.758 295.068 412.758C293.404 412.758 292.197 413.895 292.209 415.617ZM327.401 403.898V425.086H324.916V403.898H327.401ZM308.955 418.758C313.338 416.168 315.354 412.852 315.752 408.586H310.034V406.477H318.33C318.33 408.527 318.073 410.449 317.498 412.242H320.44V404.414H322.901V424.078H320.44V414.328H316.643C315.413 416.754 313.42 418.875 310.432 420.609L308.955 418.758Z" fill="#EF403C"/>
<path d="M192.818 445.814V457.363H191.429V451.791H187.966V450.631H191.429V445.814H192.818ZM180.109 454.428C183.704 453.241 186.209 450.991 186.525 448.17H180.9V447.01H188.037C188.019 451.026 185.145 454.085 180.707 455.535L180.109 454.428ZM182.869 461.09V456.186H184.275V459.93H193.222V461.09H182.869ZM207.276 445.797V449.875H209.632V451.018H207.276V455.184H205.905V445.797H207.276ZM195.077 454.076C198.848 452.986 201.256 450.815 201.537 448.1H195.763V446.957H203.022C203.014 450.938 200.21 453.856 195.657 455.201L195.077 454.076ZM197.222 458.365C197.213 456.493 199.226 455.351 202.337 455.359C205.475 455.351 207.452 456.493 207.452 458.365C207.452 460.264 205.475 461.389 202.337 461.389C199.226 461.389 197.213 460.264 197.222 458.365ZM198.593 458.365C198.575 459.543 200.043 460.29 202.337 460.281C204.631 460.29 206.116 459.543 206.116 458.365C206.116 457.188 204.631 456.458 202.337 456.467C200.043 456.458 198.575 457.188 198.593 458.365ZM224.565 458.277V459.42H210.256V458.277H216.69V454.902H211.944V446.904H213.332V449.734H221.453V446.904H222.807V454.902H218.043V458.277H224.565ZM213.332 453.777H221.453V450.859H213.332V453.777ZM238.408 445.797V455.271H237.019V451.703H234.365V450.561H237.019V445.797H238.408ZM225.47 448.574V447.449H229.355V445.656H230.709V447.449H234.593V448.574H225.47ZM226.402 452.16C226.402 450.525 227.905 449.383 230.023 449.383C232.15 449.383 233.644 450.525 233.662 452.16C233.644 453.848 232.15 454.955 230.023 454.955C227.905 454.955 226.402 453.848 226.402 452.16ZM227.72 452.16C227.72 453.197 228.661 453.883 230.023 453.9C231.385 453.883 232.326 453.197 232.326 452.16C232.326 451.158 231.385 450.455 230.023 450.455C228.661 450.455 227.72 451.158 227.72 452.16ZM228.195 461.213V456.115H238.408V461.213H228.195ZM229.566 460.088H237.054V457.223H229.566V460.088ZM254.888 453.232V454.375H240.649V453.232H254.888ZM241.458 451.193C244.183 450.877 246.811 449.532 246.872 447.748H241.95V446.605H253.622V447.748H248.665C248.727 449.515 251.328 450.877 254.097 451.193L253.587 452.301C251.029 451.976 248.63 450.824 247.769 449.093C246.907 450.824 244.525 451.976 241.95 452.301L241.458 451.193ZM242.372 458.576C242.363 456.783 244.394 455.746 247.769 455.746C251.117 455.746 253.13 456.783 253.148 458.576C253.13 460.387 251.117 461.389 247.769 461.389C244.394 461.389 242.363 460.387 242.372 458.576ZM243.778 458.576C243.761 459.666 245.264 460.29 247.769 460.281C250.247 460.29 251.75 459.666 251.759 458.576C251.75 457.478 250.247 456.854 247.769 456.836C245.264 456.854 243.761 457.478 243.778 458.576ZM262.965 446.078C266.437 446.078 268.476 447.036 268.485 448.768C268.476 450.543 266.437 451.501 262.965 451.51C259.476 451.501 257.428 450.543 257.428 448.768C257.428 447.036 259.476 446.078 262.965 446.078ZM255.846 453.689V452.564H270.084V453.689H255.846ZM257.569 456.098V455.043H268.256V458.541H258.975V460.158H268.731V461.248H257.604V457.521H266.903V456.098H257.569ZM258.87 448.768C258.852 449.857 260.372 450.455 262.965 450.455C265.558 450.455 267.07 449.857 267.079 448.768C267.07 447.739 265.558 447.124 262.965 447.115C260.372 447.124 258.852 447.739 258.87 448.768ZM172.712 485.26V486.42H158.404V485.26H164.855V481.463H166.243V485.26H172.712ZM159.107 480.9C161.752 480.452 164.82 478.264 164.82 475.768V475.381H159.581V474.221H171.482V475.381H166.243V475.768C166.252 478.264 169.328 480.408 172.027 480.848L171.464 481.938C169.073 481.463 166.551 479.942 165.549 477.78C164.547 479.969 162.033 481.524 159.687 482.008L159.107 480.9ZM186.415 472.797V488.424H185.044V472.797H186.415ZM173.688 484.258C175.024 484.249 176.553 484.24 178.135 484.188V482.482C176.254 482.289 175.042 481.217 175.059 479.652C175.042 477.886 176.544 476.743 178.803 476.752C181.062 476.743 182.591 477.886 182.583 479.652C182.591 481.199 181.378 482.271 179.524 482.482V484.135C181.036 484.064 182.565 483.959 184.006 483.766L184.112 484.82C180.623 485.383 176.799 485.436 173.899 485.436L173.688 484.258ZM174.022 475.855V474.73H178.135V472.814H179.524V474.73H183.602V475.855H174.022ZM176.342 479.652C176.334 480.733 177.353 481.445 178.803 481.428C180.262 481.445 181.273 480.733 181.264 479.652C181.273 478.562 180.262 477.824 178.803 477.824C177.353 477.824 176.334 478.562 176.342 479.652ZM201.014 472.744V476.541H203.387V477.684H201.014V481.393H199.643V472.744H201.014ZM188.832 475.328V474.221H192.805V472.639H194.176V474.221H198.148V475.328H188.832ZM189.728 478.598C189.72 477.016 191.214 476.04 193.49 476.031C195.758 476.04 197.234 477.016 197.252 478.598C197.234 480.188 195.758 481.155 193.49 481.164C191.214 481.155 189.72 480.188 189.728 478.598ZM191.047 483.238V482.201H201.014V485.664H192.435V487.193H201.594V488.248H191.082V484.645H199.643V483.238H191.047ZM191.047 478.598C191.038 479.538 192.005 480.127 193.49 480.127C194.967 480.127 195.934 479.538 195.951 478.598C195.934 477.666 194.967 477.06 193.49 477.051C192.005 477.06 191.038 477.666 191.047 478.598ZM215.991 474.256C216 476.462 218.865 478.36 221.686 478.756L221.124 479.881C218.698 479.477 216.29 478.132 215.288 476.216C214.286 478.149 211.886 479.477 209.452 479.881L208.889 478.756C211.711 478.36 214.567 476.497 214.567 474.256V473.359H215.991V474.256ZM208.151 482.764V481.604H222.389V482.764H215.921V488.424H214.567V482.764H208.151ZM232.796 483.291C232.787 484.671 233.535 486.139 235.02 486.982C236.514 486.06 237.305 484.495 237.296 483.291V482.43H238.65V483.291C238.641 484.899 239.827 486.499 241.831 487.193L241.146 488.213C239.581 487.659 238.492 486.569 237.947 485.26C237.463 486.525 236.505 487.729 235.064 488.336C233.543 487.756 232.577 486.613 232.111 485.304C231.548 486.561 230.476 487.65 228.982 488.213L228.279 487.193C230.256 486.455 231.443 484.785 231.46 483.291V482.43H232.796V483.291ZM227.874 477.385C227.866 475.205 229.597 473.72 231.97 473.729C234.343 473.72 236.057 475.205 236.066 477.385C236.057 479.529 234.343 481.006 231.97 481.006C229.597 481.006 227.866 479.529 227.874 477.385ZM229.228 477.385C229.21 478.835 230.362 479.854 231.97 479.863C233.561 479.854 234.712 478.835 234.712 477.385C234.712 475.926 233.561 474.889 231.97 474.906C230.362 474.889 229.21 475.926 229.228 477.385ZM239.036 481.744V472.814H240.408V481.744H239.036ZM245.884 482.184V484.012H253.688V482.184H255.077V488.213H244.512V482.184H245.884ZM242.702 481.076V479.934H256.94V481.076H242.702ZM243.51 477.719C246.297 477.341 249.118 475.697 249.118 473.711V472.973H250.542V473.711C250.533 475.636 253.381 477.367 256.132 477.719L255.622 478.826C253.205 478.466 250.823 477.235 249.83 475.486C248.837 477.244 246.446 478.466 244.038 478.826L243.51 477.719ZM245.884 487.105H253.688V485.102H245.884V487.105ZM270.783 472.797V488.424H269.412V472.797H270.783ZM258.918 484.398V474.344H260.272V483.203C262.662 483.186 265.123 483.001 267.742 482.447L267.936 483.625C265.158 484.205 262.689 484.398 260.184 484.398H258.918ZM285.189 472.797V478.984H287.808V480.145H285.189V488.459H283.818V472.797H285.189ZM273.781 484.539V474.326H281.076V475.469H275.152V483.379C277.982 483.37 279.977 483.247 282.306 482.816L282.482 484.012C280.03 484.451 277.982 484.539 275.011 484.539H273.781ZM289.944 487.105C289.329 487.097 288.802 486.587 288.819 485.963C288.802 485.348 289.329 484.838 289.944 484.838C290.568 484.838 291.078 485.348 291.069 485.963C291.078 486.587 290.568 487.097 289.944 487.105Z" fill="#222222"/>
<circle cx="208" cy="587.5" r="4" fill="white" stroke="#323C59"/>
<circle cx="225" cy="587.5" r="4.5" fill="#323C59"/>
<circle cx="242" cy="587.5" r="4" fill="white" stroke="#323C59"/>
<rect x="20" y="654" width="150" height="56" rx="8" fill="#EEEEEE"/>
<path d="M76.2641 673.18V686.07H74.4086V679.996H70.7758V678.453H74.4086V673.18H76.2641ZM61.9281 682.633C65.8246 681.373 68.4711 679 68.852 676.031H62.8266V674.488H70.893C70.8734 679.059 67.7387 682.496 62.7094 684.117L61.9281 682.633ZM64.9945 690.289V684.742H66.8695V688.785H76.7133V690.289H64.9945ZM93.1687 673.16V690.699H91.3133V680.328H86.0984V678.805H91.3133V673.16H93.1687ZM79.4969 686.48V675.094H81.3719V684.938C83.8719 684.898 86.2254 684.742 88.7742 684.234L89.0086 685.758C86.1863 686.334 83.6473 686.49 80.9031 686.48H79.4969ZM110.152 673.18V690.66H108.296V673.18H110.152ZM95.3469 682.711C98.8723 682.711 103.306 682.721 107.3 682.242L107.398 683.609C105.708 683.873 103.999 684.029 102.32 684.117V690.094H100.464V684.195C98.7355 684.254 97.0852 684.254 95.5812 684.254L95.3469 682.711ZM96.4211 680.758V674.41H100.952V675.914H98.257V679.264C99.1652 679.234 100.083 679.156 101.148 678.922L101.284 680.406C99.7414 680.738 98.55 680.768 97.2219 680.758H96.4211ZM101.87 680.758V674.41H106.538V675.914H103.687V679.273H106.655V680.758H101.87ZM126.88 673.16V690.66H125.005V673.16H126.88ZM112.505 685.973C117.154 683.756 119.429 680.602 119.791 676.52H113.345V675.035H121.666C121.666 680.162 119.488 684.596 113.482 687.477L112.505 685.973Z" fill="#323C59"/>
<rect x="180" y="654" width="250" height="56" rx="8" fill="#323C59"/>
<path d="M302.192 673.16V679.938H305.005V681.461H302.192V690.699H300.337V673.16H302.192ZM289.302 686.344V674.84H297.485V676.344H291.157V684.801C294.096 684.791 296.294 684.664 298.794 684.215L299.028 685.777C296.284 686.266 293.96 686.354 290.708 686.344H289.302ZM313.413 673.531C317.251 673.521 319.654 674.771 319.663 676.891C319.654 678.971 317.251 680.201 313.413 680.191C309.585 680.201 307.154 678.971 307.163 676.891C307.154 674.771 309.585 673.521 313.413 673.531ZM305.445 683.043V681.539H321.402V683.043H305.445ZM307.359 690.445V684.605H319.448V690.445H307.359ZM309.077 676.891C309.068 678.053 310.718 678.736 313.413 678.746C316.089 678.736 317.759 678.053 317.749 676.891C317.759 675.68 316.089 674.986 313.413 674.996C310.718 674.986 309.068 675.68 309.077 676.891ZM309.195 688.941H317.652V686.09H309.195V688.941Z" fill="white"/>
<defs>
<clipPath id="clip0_250_1061">
<rect width="140" height="140" fill="white" transform="translate(155 226)"/>
</clipPath>
</defs>
</svg>
