<svg width="450" height="730" viewBox="0 0 450 730" fill="none" xmlns="http://www.w3.org/2000/svg">
<rect width="450" height="730" fill="white"/>
<rect width="450" height="58" fill="white"/>
<mask id="mask0_250_1121" style="mask-type:alpha" maskUnits="userSpaceOnUse" x="14" y="17" width="24" height="24">
<rect x="14" y="17" width="24" height="24" fill="#D9D9D9"/>
</mask>
<g mask="url(#mask0_250_1121)">
<path d="M23.0152 28.9994L30.248 36.2321C30.43 36.4141 30.5227 36.6397 30.526 36.9089C30.5292 37.1782 30.4397 37.4039 30.2577 37.5859C30.0756 37.7679 29.8499 37.8589 29.5807 37.8589C29.3116 37.8589 29.0859 37.7679 28.9038 37.5859L21.4578 30.1301C21.2936 29.9659 21.1762 29.7884 21.1057 29.5974C21.0352 29.4064 21 29.207 21 28.9994C21 28.7917 21.0352 28.5924 21.1057 28.4014C21.1762 28.2104 21.2936 28.0328 21.4578 27.8686L28.9038 20.4224C29.0859 20.2404 29.31 20.1478 29.576 20.1446C29.842 20.1414 30.066 20.2309 30.248 20.4129C30.43 20.5949 30.521 20.8205 30.521 21.0899C30.521 21.359 30.43 21.5846 30.248 21.7666L23.0152 28.9994Z" fill="#222222"/>
</g>
<path d="M198.578 124.934V142.898H196.418V134.23H191.031V132.426H196.418V124.934H198.578ZM178.809 138.332C184.401 136.486 188.297 132.986 188.789 128.598H180.039V126.793H191.141C191.113 133.041 186.643 137.799 179.738 140.055L178.809 138.332ZM183.102 148.695V141.066H185.289V146.891H199.207V148.695H183.102ZM221.069 124.906V131.25H224.733V133.027H221.069V139.508H218.936V124.906H221.069ZM202.092 137.785C207.958 136.09 211.704 132.713 212.141 128.488H203.159V126.711H214.452C214.438 132.904 210.077 137.443 202.995 139.535L202.092 137.785ZM205.428 144.457C205.415 141.545 208.546 139.768 213.385 139.781C218.266 139.768 221.342 141.545 221.342 144.457C221.342 147.41 218.266 149.16 213.385 149.16C208.546 149.16 205.415 147.41 205.428 144.457ZM207.561 144.457C207.534 146.289 209.817 147.451 213.385 147.438C216.954 147.451 219.264 146.289 219.264 144.457C219.264 142.625 216.954 141.49 213.385 141.504C209.817 141.49 207.534 142.625 207.561 144.457ZM247.962 144.32V146.098H225.704V144.32H235.712V139.07H228.329V126.629H230.49V131.031H243.122V126.629H245.228V139.07H237.818V144.32H247.962ZM230.49 137.32H243.122V132.781H230.49V137.32ZM269.496 124.906V139.645H267.336V134.094H263.207V132.316H267.336V124.906H269.496ZM249.371 129.227V127.477H255.414V124.688H257.519V127.477H263.562V129.227H249.371ZM250.82 134.805C250.82 132.262 253.158 130.484 256.453 130.484C259.762 130.484 262.086 132.262 262.113 134.805C262.086 137.43 259.762 139.152 256.453 139.152C253.158 139.152 250.82 137.43 250.82 134.805ZM252.871 134.805C252.871 136.418 254.334 137.484 256.453 137.512C258.572 137.484 260.035 136.418 260.035 134.805C260.035 133.246 258.572 132.152 256.453 132.152C254.334 132.152 252.871 133.246 252.871 134.805ZM253.609 148.887V140.957H269.496V148.887H253.609ZM255.742 147.137H267.39V142.68H255.742V147.137ZM131.912 171.371C131.885 175.268 134.701 179.561 138.228 181.242L136.998 182.938C134.264 181.598 131.953 178.727 130.859 175.432C129.738 179 127.305 182.145 124.584 183.539L123.271 181.844C126.771 180.135 129.779 175.514 129.807 171.371V168.199H124.146V166.422H137.381V168.199H131.912V171.371ZM140.361 188.215V163.906H142.494V173.75H146.568V175.582H142.494V188.215H140.361ZM160.145 165.574C160.145 166.518 160.036 167.42 159.844 168.281H165.313V163.934H167.473V178.426H165.313V175.199H158.86V173.422H165.313V170.059H159.256C157.616 173.887 153.801 176.662 148.551 178.098L147.704 176.375C153.637 174.734 157.397 171.48 157.834 167.324H148.934V165.574H160.145ZM151.122 181.215V179.492H167.473V188.188H165.313V181.215H151.122ZM179.998 179.109C179.041 179.096 178.22 178.303 178.248 177.332C178.22 176.375 179.041 175.582 179.998 175.582C180.968 175.582 181.761 176.375 181.748 177.332C181.761 178.303 180.968 179.096 179.998 179.109ZM195.53 164.891V167.98H207.561V164.891H209.694V174.598H202.585V177.195H212.592V178.973H190.444V177.195H200.452V174.598H193.397V164.891H195.53ZM193.315 187.695V180.914H195.475V185.891H210.132V187.695H193.315ZM195.53 172.875H207.561V169.676H195.53V172.875ZM234.154 163.934V181.707H232.021V163.934H234.154ZM214.658 171.59C214.644 168.09 217.392 165.643 221.029 165.629C224.665 165.643 227.386 168.09 227.4 171.59C227.386 175.131 224.665 177.592 221.029 177.578C217.392 177.592 214.644 175.131 214.658 171.59ZM216.763 171.59C216.736 174.01 218.568 175.691 221.029 175.691C223.449 175.691 225.294 174.01 225.294 171.59C225.294 169.211 223.449 167.516 221.029 167.516C218.568 167.516 216.736 169.211 216.763 171.59ZM218.458 187.695V179.902H220.591V185.891H234.919V187.695H218.458ZM256.699 163.934V171.289H260.336V173.094H256.699V180.23H254.539V163.934H256.699ZM237.613 177.742C239.555 177.742 241.824 177.742 244.203 177.674V175.883C241.373 175.623 239.541 174.324 239.555 172.301C239.541 170.086 241.824 168.719 245.242 168.719C248.687 168.719 250.93 170.086 250.957 172.301C250.93 174.311 249.152 175.609 246.336 175.883V177.592C248.605 177.482 250.902 177.291 253.035 176.977L253.226 178.535C247.949 179.465 242.139 179.506 237.859 179.492L237.613 177.742ZM238.215 167.789V166.148H244.203V163.715H246.336V166.148H252.297V167.789H238.215ZM240.594 183.156V181.434H256.699V188.215H254.539V183.156H240.594ZM241.605 172.301C241.592 173.572 243 174.434 245.242 174.406C247.484 174.434 248.906 173.572 248.906 172.301C248.906 171.016 247.484 170.223 245.242 170.25C243 170.223 241.592 171.016 241.605 172.301ZM281.432 163.934V181.707H279.299V163.934H281.432ZM261.936 171.59C261.922 168.09 264.67 165.643 268.307 165.629C271.944 165.643 274.664 168.09 274.678 171.59C274.664 175.131 271.944 177.592 268.307 177.578C264.67 177.592 261.922 175.131 261.936 171.59ZM264.041 171.59C264.014 174.01 265.846 175.691 268.307 175.691C270.727 175.691 272.573 174.01 272.573 171.59C272.573 169.211 270.727 167.516 268.307 167.516C265.846 167.516 264.014 169.211 264.041 171.59ZM265.737 187.695V179.902H267.87V185.891H282.198V187.695H265.737ZM299.835 179.793H302.515L304.607 182.527C306.084 181.229 307.013 179.055 307.027 176.102C307.013 170.988 304.238 168.227 300.656 168.227C297.074 168.227 294.298 170.988 294.285 176.102C294.298 181.201 297.074 183.963 300.656 183.977C301.394 183.977 302.105 183.854 302.761 183.621L299.835 179.793ZM291.906 176.102C291.892 169.84 295.57 165.93 300.656 165.93C305.728 165.93 309.419 169.84 309.406 176.102C309.419 179.807 308.134 182.678 306.029 184.414L308.613 187.859H305.933L304.21 185.549C303.144 186.027 301.941 186.273 300.656 186.273C295.57 186.273 291.892 182.363 291.906 176.102ZM312.455 186V166.203H319.182C323.816 166.203 325.936 168.773 325.936 172.301C325.936 174.926 324.76 176.977 322.244 177.852L326.701 186H323.83L319.688 178.303C319.537 178.316 319.373 178.316 319.209 178.316H314.916V186H312.455ZM314.916 176.074H319.1C322.258 176.074 323.488 174.652 323.502 172.301C323.488 169.936 322.258 168.391 319.072 168.391H314.916V176.074Z" fill="black"/>
<g clip-path="url(#clip0_250_1121)">
<circle cx="225" cy="296" r="70" fill="#F2F3F7"/>
<path d="M255.05 322.127H195.541C192.74 322.127 190.467 319.854 190.467 317.053V275.875C190.467 273.074 192.74 270.801 195.541 270.801H255.057C257.858 270.801 260.131 273.074 260.131 275.875V317.06C260.131 319.861 257.858 322.134 255.057 322.134L255.05 322.127Z" fill="#EF403C"/>
<path d="M222.827 300.62C222.71 300.495 220.561 298.369 216.976 297.247C218.611 295.949 219.667 293.955 219.667 291.711C219.667 287.818 216.499 284.65 212.606 284.65C208.712 284.65 205.545 287.818 205.545 291.711C205.545 293.955 206.601 295.949 208.236 297.247C204.643 298.362 202.502 300.495 202.385 300.613C201.93 301.075 201.666 301.742 201.666 302.439V305.914C201.666 307.27 202.649 308.378 203.858 308.378H221.368C222.578 308.378 223.56 307.27 223.56 305.914V302.439C223.56 301.742 223.296 301.075 222.842 300.613L222.827 300.62Z" fill="white"/>
<path d="M231.01 288.143H249.282" stroke="white" stroke-width="4" stroke-linecap="round" stroke-linejoin="round"/>
<path d="M231.01 296.934H241.04" stroke="white" stroke-width="4" stroke-linecap="round" stroke-linejoin="round"/>
</g>
<path d="M183.684 417.305H186.473L187.915 419.203C188.888 418.195 189.462 416.625 189.45 414.516C189.462 410.637 187.516 408.539 184.739 408.539C181.973 408.539 180.016 410.637 180.028 414.516C180.016 418.395 181.973 420.492 184.739 420.492C185.184 420.492 185.606 420.434 186.005 420.328L183.684 417.305ZM176.958 414.516C176.946 409.031 180.274 405.797 184.739 405.797C189.18 405.797 192.532 409.031 192.52 414.516C192.532 417.598 191.477 419.965 189.766 421.453L192.122 424.477H189.145L187.727 422.684C186.813 423.047 185.805 423.234 184.739 423.234C180.274 423.234 176.946 419.988 176.958 414.516ZM194.783 423V406.031H201.158C205.048 406.031 207.122 408.211 207.134 411.445C207.122 413.754 206.068 415.465 204.075 416.273L207.743 423H204.345L201.017 416.789H197.829V423H194.783ZM197.829 414.234H200.689C202.986 414.246 204.017 413.262 204.017 411.445C204.017 409.641 202.986 408.586 200.689 408.586H197.829V414.234ZM231.862 403.898V425.086H229.377V403.898H231.862ZM213.252 419.062C216.311 417.199 217.658 413.379 217.658 409.688V408.281H213.979V406.172H223.588V408.281H220.166V409.688C220.166 413.262 221.444 416.848 224.479 418.594L222.932 420.516C220.975 419.355 219.674 417.34 218.936 414.926C218.186 417.539 216.838 419.766 214.846 421.008L213.252 419.062ZM222.041 413.391V411.281H225.088V404.297H227.549V424.055H225.088V413.391H222.041ZM253.155 413.062V414.984H244.811V416.531H250.788V421.5H238.741V422.953H251.374V424.898H236.186V419.719H248.233V418.406H236.163V416.531H242.233V414.984H233.936V413.062H253.155ZM234.78 410.414C238.964 410.203 241.425 409.078 241.964 407.578H235.788V405.633H242.233V403.852H244.811V405.633H251.303V407.578H245.081C245.596 409.078 248.057 410.203 252.288 410.414L251.514 412.359C247.706 412.125 244.858 411.094 243.522 409.383C242.186 411.094 239.35 412.125 235.507 412.359L234.78 410.414ZM273.511 420.469V422.625H254.152V420.469H262.495V417.023H256.448V410.086H268.636V407.461H256.402V405.352H271.214V412.148H259.05V414.891H271.706V417.023H265.073V420.469H273.511Z" fill="#EF403C"/>
<path d="M177.841 446.764V449.277H182.2V446.764H183.554V448.363H187.245V445.797H188.634V455.271H187.245V452.723H183.554V454.111H176.47V446.764H177.841ZM177.841 452.986H182.2V450.385H177.841V452.986ZM178.21 458.506C178.201 456.643 180.197 455.588 183.448 455.57C186.692 455.588 188.687 456.643 188.687 458.506C188.687 460.334 186.692 461.389 183.448 461.389C180.197 461.389 178.201 460.334 178.21 458.506ZM179.581 458.506C179.572 459.631 181.049 460.299 183.448 460.299C185.839 460.299 187.316 459.631 187.316 458.506C187.316 457.337 185.839 456.669 183.448 456.66C181.049 456.669 179.572 457.337 179.581 458.506ZM183.554 451.58H187.245V449.488H183.554V451.58ZM192.528 455.57C191.913 455.562 191.385 455.052 191.403 454.428C191.385 453.812 191.913 453.303 192.528 453.303C193.152 453.303 193.662 453.812 193.653 454.428C193.662 455.052 193.152 455.562 192.528 455.57ZM200.201 446.939C202.653 446.948 204.394 448.442 204.402 450.613C204.394 452.793 202.653 454.278 200.201 454.287C197.731 454.278 195.974 452.793 195.982 450.613C195.974 448.442 197.731 446.948 200.201 446.939ZM195.174 456.836C198.057 456.845 202.038 456.818 205.492 456.309L205.598 457.328C202.02 457.996 198.18 458.014 195.367 458.014L195.174 456.836ZM197.336 450.613C197.327 452.072 198.531 453.074 200.201 453.074C201.853 453.074 203.058 452.072 203.049 450.613C203.058 449.163 201.853 448.152 200.201 448.152C198.531 448.152 197.327 449.163 197.336 450.613ZM206.529 461.459V445.797H207.9V461.459H206.529ZM223.167 445.814V457.68H221.779V456.062H218.544V455.061H221.779V445.814H223.167ZM210.195 453.057C213.104 453.039 217.024 453.013 220.372 452.6L220.46 453.602C219.072 453.821 217.604 453.962 216.171 454.05V457.135H214.783V454.12C213.201 454.182 211.698 454.182 210.388 454.182L210.195 453.057ZM211.46 449.172C211.451 447.528 213.016 446.447 215.327 446.447C217.621 446.447 219.186 447.528 219.195 449.172C219.186 450.842 217.621 451.879 215.327 451.879C213.016 451.879 211.451 450.842 211.46 449.172ZM212.445 461.09V456.52H213.833V459.93H223.554V461.09H212.445ZM212.779 449.172C212.761 450.191 213.798 450.851 215.327 450.859C216.813 450.851 217.867 450.191 217.876 449.172C217.867 448.17 216.813 447.484 215.327 447.502C213.798 447.484 212.761 448.17 212.779 449.172ZM235.262 449.154C235.271 451.264 236.932 453.162 239.27 453.9L238.566 455.008C236.747 454.384 235.306 453.101 234.594 451.457C233.917 453.232 232.449 454.639 230.586 455.324L229.865 454.217C232.212 453.399 233.864 451.369 233.873 449.154V448.24H230.217V447.115H238.865V448.24H235.262V449.154ZM232.449 461.09V456.186H233.82V459.93H243.031V461.09H232.449ZM241.168 457.275V445.814H242.539V457.275H241.168ZM259.142 458.33V459.49H244.833V458.33H248.859V455.359H246.626V450.543H255.978V448.1H246.591V446.957H257.331V451.686H247.997V454.217H257.701V455.359H255.257V458.33H259.142ZM250.212 458.33H253.904V455.359H250.212V458.33ZM274.321 453.057V454.146H260.012V453.057H274.321ZM261.735 456.432V455.395H272.528V458.717H263.141V460.211H273.038V461.213H261.753V457.768H271.157V456.432H261.735ZM261.823 447.273V446.271H272.475V449.506H263.247V450.877H272.757V451.879H261.876V448.557H271.087V447.273H261.823ZM171.341 472.797V481.287H169.97V477.754H166.806V476.594H169.97V472.797H171.341ZM158.474 480.461C160.777 479.626 162.446 477.561 162.446 475.346V474.889H158.913V473.746H167.333V474.889H163.835V475.346C163.835 477.35 165.4 479.318 167.685 480.109L166.964 481.182C165.206 480.54 163.844 479.23 163.167 477.631C162.499 479.424 161.049 480.874 159.195 481.551L158.474 480.461ZM161.286 488.213V482.043H162.675V483.994H169.97V482.043H171.341V488.213H161.286ZM162.675 487.088H169.97V485.102H162.675V487.088ZM181.44 474.256C181.449 476.462 184.314 478.36 187.135 478.756L186.573 479.881C184.147 479.477 181.739 478.132 180.737 476.216C179.735 478.149 177.336 479.477 174.901 479.881L174.338 478.756C177.16 478.36 180.016 476.497 180.016 474.256V473.359H181.44V474.256ZM173.6 482.764V481.604H187.838V482.764H181.37V488.424H180.016V482.764H173.6ZM201.014 472.744V476.541H203.387V477.684H201.014V481.393H199.643V472.744H201.014ZM188.832 475.328V474.221H192.805V472.639H194.176V474.221H198.148V475.328H188.832ZM189.728 478.598C189.72 477.016 191.214 476.04 193.49 476.031C195.758 476.04 197.234 477.016 197.252 478.598C197.234 480.188 195.758 481.155 193.49 481.164C191.214 481.155 189.72 480.188 189.728 478.598ZM191.047 483.238V482.201H201.014V485.664H192.435V487.193H201.594V488.248H191.082V484.645H199.643V483.238H191.047ZM191.047 478.598C191.038 479.538 192.005 480.127 193.49 480.127C194.967 480.127 195.934 479.538 195.951 478.598C195.934 477.666 194.967 477.06 193.49 477.051C192.005 477.06 191.038 477.666 191.047 478.598ZM215.991 474.256C216 476.462 218.865 478.36 221.686 478.756L221.124 479.881C218.698 479.477 216.29 478.132 215.288 476.216C214.286 478.149 211.886 479.477 209.452 479.881L208.889 478.756C211.711 478.36 214.567 476.497 214.567 474.256V473.359H215.991V474.256ZM208.151 482.764V481.604H222.389V482.764H215.921V488.424H214.567V482.764H208.151ZM232.796 483.291C232.787 484.671 233.535 486.139 235.02 486.982C236.514 486.06 237.305 484.495 237.296 483.291V482.43H238.65V483.291C238.641 484.899 239.827 486.499 241.831 487.193L241.146 488.213C239.581 487.659 238.492 486.569 237.947 485.26C237.463 486.525 236.505 487.729 235.064 488.336C233.543 487.756 232.577 486.613 232.111 485.304C231.548 486.561 230.476 487.65 228.982 488.213L228.279 487.193C230.256 486.455 231.443 484.785 231.46 483.291V482.43H232.796V483.291ZM227.874 477.385C227.866 475.205 229.597 473.72 231.97 473.729C234.343 473.72 236.057 475.205 236.066 477.385C236.057 479.529 234.343 481.006 231.97 481.006C229.597 481.006 227.866 479.529 227.874 477.385ZM229.228 477.385C229.21 478.835 230.362 479.854 231.97 479.863C233.561 479.854 234.712 478.835 234.712 477.385C234.712 475.926 233.561 474.889 231.97 474.906C230.362 474.889 229.21 475.926 229.228 477.385ZM239.036 481.744V472.814H240.408V481.744H239.036ZM245.884 482.184V484.012H253.688V482.184H255.077V488.213H244.512V482.184H245.884ZM242.702 481.076V479.934H256.94V481.076H242.702ZM243.51 477.719C246.297 477.341 249.118 475.697 249.118 473.711V472.973H250.542V473.711C250.533 475.636 253.381 477.367 256.132 477.719L255.622 478.826C253.205 478.466 250.823 477.235 249.83 475.486C248.837 477.244 246.446 478.466 244.038 478.826L243.51 477.719ZM245.884 487.105H253.688V485.102H245.884V487.105ZM270.783 472.797V488.424H269.412V472.797H270.783ZM258.918 484.398V474.344H260.272V483.203C262.662 483.186 265.123 483.001 267.742 482.447L267.936 483.625C265.158 484.205 262.689 484.398 260.184 484.398H258.918ZM285.189 472.797V478.984H287.808V480.145H285.189V488.459H283.818V472.797H285.189ZM273.781 484.539V474.326H281.076V475.469H275.152V483.379C277.982 483.37 279.977 483.247 282.306 482.816L282.482 484.012C280.03 484.451 277.982 484.539 275.011 484.539H273.781ZM289.944 487.105C289.329 487.097 288.802 486.587 288.819 485.963C288.802 485.348 289.329 484.838 289.944 484.838C290.568 484.838 291.078 485.348 291.069 485.963C291.078 486.587 290.568 487.097 289.944 487.105Z" fill="#222222"/>
<circle cx="208" cy="587.5" r="4" fill="white" stroke="#323C59"/>
<circle cx="225" cy="587.5" r="4" fill="white" stroke="#323C59"/>
<circle cx="242" cy="587.5" r="4.5" fill="#323C59"/>
<rect x="20" y="654" width="410" height="56" rx="8" fill="#323C59"/>
<path d="M222.329 673.18V678.375H224.829V679.898H222.329V684.957H220.473V673.18H222.329ZM208.442 683.004C209.8 683.004 211.372 683.004 213.013 682.965V681.783C211.02 681.559 209.751 680.621 209.77 679.215C209.751 677.613 211.421 676.617 213.93 676.637C216.44 676.617 218.081 677.613 218.091 679.215C218.081 680.611 216.841 681.549 214.868 681.783V682.896C216.43 682.818 218.013 682.691 219.477 682.477L219.634 683.805C215.874 684.459 211.723 684.488 208.638 684.488L208.442 683.004ZM208.891 676.051V674.664H213.013V673.023H214.868V674.664H218.989V676.051H208.891ZM210.63 687.223V685.777H222.329V690.66H220.473V687.223H210.63ZM211.528 679.215C211.528 680.035 212.436 680.572 213.93 680.562C215.405 680.572 216.323 680.035 216.313 679.215C216.323 678.375 215.405 677.887 213.93 677.906C212.436 677.887 211.528 678.375 211.528 679.215ZM239.956 673.18V685.895H238.101V673.18H239.956ZM225.796 678.688C225.806 676.158 227.818 674.361 230.464 674.352C233.101 674.361 235.113 676.158 235.113 678.688C235.113 681.256 233.101 683.043 230.464 683.043C227.818 683.043 225.806 681.256 225.796 678.688ZM227.613 678.688C227.603 680.338 228.833 681.422 230.464 681.422C232.066 681.422 233.296 680.338 233.296 678.688C233.296 677.076 232.066 675.973 230.464 675.973C228.833 675.973 227.603 677.076 227.613 678.688ZM228.511 690.289V684.605H230.386V688.785H240.484V690.289H228.511Z" fill="white"/>
<defs>
<clipPath id="clip0_250_1121">
<rect width="140" height="140" fill="white" transform="translate(155 226)"/>
</clipPath>
</defs>
</svg>
