<svg width="450" height="851" viewBox="0 0 450 851" fill="none" xmlns="http://www.w3.org/2000/svg">
<rect width="450" height="851" fill="white"/>
<rect width="450" height="58" fill="white"/>
<mask id="mask0_250_991" style="mask-type:alpha" maskUnits="userSpaceOnUse" x="14" y="17" width="24" height="24">
<rect x="14" y="17" width="24" height="24" fill="#D9D9D9"/>
</mask>
<g mask="url(#mask0_250_991)">
<path d="M23.0152 28.9994L30.248 36.2321C30.43 36.4141 30.5227 36.6397 30.526 36.9089C30.5292 37.1782 30.4397 37.4039 30.2577 37.5859C30.0756 37.7679 29.8499 37.8589 29.5807 37.8589C29.3116 37.8589 29.0859 37.7679 28.9038 37.5859L21.4578 30.1301C21.2936 29.9659 21.1762 29.7884 21.1057 29.5974C21.0352 29.4064 21 29.207 21 28.9994C21 28.7917 21.0352 28.5924 21.1057 28.4014C21.1762 28.2104 21.2936 28.0328 21.4578 27.8686L28.9038 20.4224C29.0859 20.2404 29.31 20.1478 29.576 20.1446C29.842 20.1414 30.066 20.2309 30.248 20.4129C30.43 20.5949 30.521 20.8205 30.521 21.0899C30.521 21.359 30.43 21.5846 30.248 21.7666L23.0152 28.9994Z" fill="#222222"/>
</g>
<path d="M197.656 136.055C201.21 136.055 203.685 137.969 203.699 140.867C203.685 143.383 201.73 145.188 198.804 145.557V147.936C201.074 147.812 203.384 147.607 205.503 147.293L205.667 148.906C200.513 149.822 194.689 149.904 190.492 149.891L190.218 148.113C192.105 148.127 194.32 148.113 196.644 148.031V145.57C193.636 145.242 191.626 143.424 191.64 140.867C191.626 137.969 194.101 136.055 197.656 136.055ZM193.664 140.867C193.636 142.713 195.29 143.971 197.656 143.984C200.035 143.971 201.662 142.713 201.675 140.867C201.662 138.98 200.035 137.723 197.656 137.723C195.29 137.723 193.636 138.98 193.664 140.867ZM193.773 158.668V151.914H195.933V156.863H210.097V158.668H193.773ZM207.062 153.527V134.934H209.222V143.164H212.859V144.996H209.222V153.527H207.062ZM217.248 136.355V140.402H224.029V136.355H226.135V138.816H231.877V134.906H234.037V149.371H231.877V145.543H226.135V147.977H215.115V136.355H217.248ZM217.248 146.199H224.029V142.098H217.248V146.199ZM217.686 152.406V150.656H234.037V159.215H231.877V152.406H217.686ZM226.135 143.766H231.877V140.594H226.135V143.766ZM256.528 134.934V142.945H260.192V144.75H256.528V153.145H254.395V134.934H256.528ZM237.579 139.664V137.914H243.758V134.934H245.891V137.914H252.071V139.664H237.579ZM238.973 145.543C238.96 142.781 241.311 141.004 244.825 141.004C248.297 141.004 250.649 142.781 250.676 145.543C250.649 148.277 248.297 150.041 244.825 150.027C241.311 150.041 238.96 148.277 238.973 145.543ZM241.024 145.543C241.01 147.252 242.528 148.359 244.825 148.332C247.094 148.359 248.626 147.252 248.653 145.543C248.626 143.807 247.094 142.686 244.825 142.699C242.528 142.686 241.01 143.807 241.024 145.543ZM241.325 158.695V151.695H243.43V156.891H257.649V158.695H241.325ZM172.307 173.906V198.215H170.201V185.5H166.838V197.012H164.787V174.562H166.838V183.723H170.201V173.906H172.307ZM151.58 191.488C157.227 188.33 159.551 183.887 159.92 178.855H152.51V177.078H162.026C161.998 183.258 159.825 189.096 152.838 192.992L151.58 191.488ZM195.263 173.934V191.707H193.13V173.934H195.263ZM175.766 181.59C175.753 178.09 178.501 175.643 182.138 175.629C185.774 175.643 188.495 178.09 188.509 181.59C188.495 185.131 185.774 187.592 182.138 187.578C178.501 187.592 175.753 185.131 175.766 181.59ZM177.872 181.59C177.845 184.01 179.677 185.691 182.138 185.691C184.558 185.691 186.403 184.01 186.403 181.59C186.403 179.211 184.558 177.516 182.138 177.516C179.677 177.516 177.845 179.211 177.872 181.59ZM179.567 197.695V189.902H181.7V195.891H196.028V197.695H179.567ZM218.984 173.906V188.398H216.824V182.027H211.929V180.25H216.824V173.906H218.984ZM198.941 186.457C202.55 185.158 205.121 181.863 205.121 178.391V177.488H199.624V175.684H212.722V177.488H207.281V178.363C207.281 181.535 209.714 184.557 213.269 185.773L212.148 187.496C209.427 186.512 207.308 184.461 206.255 181.959C205.216 184.803 202.96 187.072 200.062 188.18L198.941 186.457ZM202.769 193.676C202.755 190.818 205.859 189.15 210.917 189.164C215.962 189.15 219.066 190.818 219.066 193.676C219.066 196.547 215.962 198.188 210.917 198.215C205.859 198.188 202.755 196.547 202.769 193.676ZM204.902 193.676C204.888 195.439 207.185 196.506 210.917 196.492C214.636 196.506 216.933 195.439 216.933 193.676C216.933 191.898 214.636 190.832 210.917 190.832C207.185 190.832 204.888 191.898 204.902 193.676ZM244.729 193.32V195.098H222.471V193.32H232.479V188.07H225.096V175.629H227.256V180.031H239.889V175.629H241.994V188.07H234.584V193.32H244.729ZM227.256 186.32H239.889V181.781H227.256V186.32ZM274.835 193.32V195.098H252.577V193.32H262.585V188.07H255.202V175.629H257.362V180.031H269.995V175.629H272.101V188.07H264.691V193.32H274.835ZM257.362 186.32H269.995V181.781H257.362V186.32ZM297.216 177.516V179.293H277.31V177.516H286.224V174.316H288.33V177.516H297.216ZM276.216 195.371V193.594H286.224V190.176C281.89 189.943 279.279 188.262 279.306 185.527C279.279 182.643 282.328 180.934 287.291 180.961C292.185 180.934 295.289 182.643 295.275 185.527C295.289 188.262 292.623 189.943 288.33 190.176V193.594H298.474V195.371H276.216ZM281.466 185.527C281.439 187.373 283.668 188.439 287.291 188.453C290.873 188.439 293.101 187.373 293.088 185.527C293.101 183.723 290.873 182.656 287.291 182.656C283.668 182.656 281.439 183.723 281.466 185.527Z" fill="black"/>
<g clip-path="url(#clip0_250_991)">
<circle cx="225" cy="306" r="70" fill="#F2F3F7"/>
<path d="M224.674 352.966C224.404 352.966 224.135 352.934 223.877 352.869C223.489 352.773 185.4 342.698 185.4 302.955V273.939C185.4 272.879 185.928 271.884 186.811 271.284C187.693 270.684 188.824 270.567 189.814 270.952C193.184 272.28 196.651 272.954 200.106 272.954C208.697 272.954 216.729 269.003 222.122 262.119C222.736 261.337 223.672 260.877 224.674 260.877C225.675 260.877 226.611 261.337 227.225 262.119C232.619 269.003 240.65 272.954 249.241 272.954C252.697 272.954 256.152 272.28 259.533 270.952C260.523 270.556 261.654 270.684 262.536 271.284C263.419 271.884 263.947 272.879 263.947 273.939V302.955C263.947 342.773 225.847 352.773 225.459 352.869C225.201 352.934 224.932 352.966 224.674 352.966Z" fill="#EF403C"/>
<path d="M234.92 300.594H234.847V296.624C234.847 290.986 230.287 286.4 224.68 286.4C219.072 286.4 214.512 290.986 214.512 296.624V300.594H214.439C211.506 300.594 209.133 302.986 209.133 305.93V320.265C209.133 323.214 211.511 325.6 214.439 325.6H234.915C237.848 325.6 240.221 323.209 240.221 320.265V305.93C240.221 302.981 237.843 300.594 234.915 300.594H234.92ZM217.627 296.624C217.627 292.711 220.793 289.527 224.685 289.527C228.577 289.527 231.743 292.711 231.743 296.624V300.594H217.627V296.624ZM226.24 315.372V317.977C226.24 318.842 225.545 319.54 224.685 319.54C223.825 319.54 223.13 318.842 223.13 317.977V315.372C221.482 314.741 220.306 313.136 220.306 311.261C220.306 308.832 222.27 306.858 224.685 306.858C227.1 306.858 229.064 308.832 229.064 311.261C229.064 313.136 227.888 314.741 226.24 315.372Z" fill="white"/>
</g>
<path d="M157.158 418.984C157.147 422.922 159.033 426.789 162.408 428.266L160.838 430.352C158.447 429.18 156.76 426.93 155.857 424.152C154.932 427.082 153.197 429.52 150.76 430.75L149.119 428.641C152.576 427.023 154.498 422.945 154.51 418.984V415.609H157.158V418.984ZM160.065 422.852V420.742H164.518V413.898H167.096V435.109H164.518V422.852H160.065ZM187.217 413.898V435.109H184.592V413.898H187.217ZM170.717 430.117V415.633H173.319V420.93H178.452V415.633H181.03V430.117H170.717ZM173.319 427.984H178.452V422.969H173.319V427.984ZM200.8 416.805C200.8 420.074 203.999 423.367 208.44 424.141L207.269 426.32C203.718 425.582 200.812 423.426 199.429 420.578C198.034 423.402 195.128 425.57 191.589 426.32L190.44 424.141C194.812 423.344 198.022 420.062 198.034 416.805V415.234H200.8V416.805ZM189.855 432.391V430.234H209.214V432.391H189.855ZM232.957 413.898V435.109H230.332V413.898H232.957ZM216.012 422.922C216 418.352 218.332 415.445 221.543 415.445C224.719 415.445 227.062 418.352 227.074 422.922C227.062 427.527 224.719 430.422 221.543 430.422C218.332 430.422 216 427.527 216.012 422.922ZM218.52 422.922C218.52 426.18 219.75 428.066 221.543 428.078C223.324 428.066 224.543 426.18 224.543 422.922C224.543 419.688 223.324 417.789 221.543 417.789C219.75 417.789 218.52 419.688 218.52 422.922ZM254.907 424.094V426.18H235.594V424.094H240.094V421.41C238.489 420.73 237.586 419.664 237.586 418.281C237.586 415.738 240.551 414.25 245.227 414.25C249.891 414.25 252.856 415.738 252.868 418.281C252.856 419.676 251.942 420.742 250.336 421.41V424.094H254.907ZM237.844 431.242C237.844 428.805 240.598 427.445 245.227 427.469C249.786 427.445 252.551 428.805 252.563 431.242C252.551 433.703 249.786 435.039 245.227 435.039C240.598 435.039 237.844 433.703 237.844 431.242ZM240.305 418.281C240.282 419.57 242.098 420.262 245.227 420.25C248.344 420.262 250.172 419.57 250.172 418.281C250.172 416.98 248.344 416.254 245.227 416.266C242.098 416.254 240.282 416.98 240.305 418.281ZM240.493 431.242C240.481 432.438 242.145 433.082 245.227 433.07C248.262 433.082 249.938 432.438 249.961 431.242C249.938 430.059 248.262 429.449 245.227 429.438C242.145 429.449 240.481 430.059 240.493 431.242ZM242.719 424.094H247.735V422.078C246.973 422.184 246.129 422.242 245.227 422.242C244.325 422.242 243.481 422.184 242.719 422.078V424.094ZM269.087 418.984C269.064 422.875 271.115 426.766 274.548 428.242L273.001 430.328C270.564 429.203 268.783 426.965 267.798 424.199C266.826 427.176 264.997 429.613 262.431 430.82L260.837 428.641C264.365 427.117 266.427 423.074 266.439 418.984V415.609H269.087V418.984ZM276.072 435.109V413.898H278.697V435.109H276.072ZM299.615 413.898V435.086H297.107V413.898H299.615ZM281.545 423.062C281.545 418.398 283.35 415.504 286.115 415.516C288.682 415.504 290.428 417.906 290.732 421.867H292.771V414.273H295.256V434.055H292.771V423.977H290.756C290.51 428.113 288.74 430.645 286.115 430.633C283.35 430.645 281.545 427.738 281.545 423.062ZM283.959 423.062C283.947 426.379 284.768 428.16 286.115 428.148C287.521 428.16 288.353 426.379 288.365 423.062C288.353 419.758 287.521 417.965 286.115 417.977C284.768 417.965 283.947 419.758 283.959 423.062Z" fill="#EF403C"/>
<path d="M148.582 456.078V457.59H156.316V456.078H157.687V461.229H147.21V456.078H148.582ZM145.312 463.689V462.582H159.55V463.689H145.312ZM147.035 466.186V465.131H157.722V468.594H148.441V470.158H158.197V471.248H147.07V467.574H156.369V466.186H147.035ZM148.582 460.174H156.316V458.645H148.582V460.174ZM174.8 464.41V465.553H160.491V464.41H166.96V462.758H162.354V458.943H171.565V457.326H162.302V456.201H172.954V459.98H163.725V461.65H173.288V462.758H168.313V464.41H174.8ZM162.091 467.873V466.748H173.042V471.283H171.653V467.873H162.091ZM180.276 460.613C180.284 463.127 181.559 465.702 183.686 466.836L182.895 467.873C181.339 467.021 180.214 465.403 179.643 463.522C179.089 465.526 177.973 467.284 176.408 468.225L175.582 467.17C177.709 465.939 178.966 463.197 178.975 460.613V459.84H176.004V458.697H178.975V456.377H180.293V458.697H183.211V459.84H180.276V460.613ZM182.139 463.145V461.967H184.6V456.184H185.901V470.615H184.6V463.145H182.139ZM187.746 471.424V455.797H189.065V471.424H187.746ZM203.804 455.814V467.24H202.433V455.814H203.804ZM191.271 460.736C191.262 458.486 193.029 456.913 195.367 456.904C197.705 456.913 199.454 458.486 199.463 460.736C199.454 463.013 197.705 464.595 195.367 464.586C193.029 464.595 191.262 463.013 191.271 460.736ZM192.625 460.736C192.607 462.292 193.785 463.373 195.367 463.373C196.922 463.373 198.109 462.292 198.109 460.736C198.109 459.207 196.922 458.117 195.367 458.117C193.785 458.117 192.607 459.207 192.625 460.736ZM193.714 471.09V466.08H195.086V469.93H204.296V471.09H193.714ZM223.176 455.797V471.424H221.787V455.797H223.176ZM210.45 467.363C214.677 465.359 216.839 462.362 217.147 458.627H211.17V457.502H218.553C218.535 461.993 216.444 465.975 211.205 468.488L210.45 467.363ZM233.293 456.482C233.284 458.425 236.105 459.919 238.918 460.262L238.425 461.316C235.965 460.982 233.556 459.884 232.572 458.196C231.57 459.884 229.153 460.982 226.718 461.316L226.244 460.262C229.048 459.919 231.869 458.425 231.869 456.482V455.885H233.293V456.482ZM225.453 463.461V462.336H239.691V463.461H233.24V465.025H237.863V468.576H228.582V470.158H238.338V471.248H227.211V467.539H236.509V466.115H227.175V465.025H231.869V463.461H225.453ZM247.769 456.078C251.24 456.078 253.279 457.036 253.288 458.768C253.279 460.543 251.24 461.501 247.769 461.51C244.279 461.501 242.231 460.543 242.231 458.768C242.231 457.036 244.279 456.078 247.769 456.078ZM240.649 463.689V462.564H254.888V463.689H240.649ZM242.372 466.098V465.043H253.06V468.541H243.778V470.158H253.534V471.248H242.407V467.521H251.706V466.098H242.372ZM243.673 458.768C243.655 459.857 245.176 460.455 247.769 460.455C250.361 460.455 251.873 459.857 251.882 458.768C251.873 457.739 250.361 457.124 247.769 457.115C245.176 457.124 243.655 457.739 243.673 458.768ZM272.888 455.797V471.459H271.5V455.797H272.888ZM260.584 462.459C260.593 459.137 262.245 457.019 264.574 457.01C266.894 457.019 268.573 459.137 268.564 462.459C268.573 465.79 266.894 467.899 264.574 467.891C262.245 467.899 260.593 465.79 260.584 462.459ZM261.92 462.459C261.92 464.999 263.01 466.669 264.574 466.66C266.147 466.669 267.228 464.999 267.228 462.459C267.228 459.919 266.147 458.249 264.574 458.24C263.01 458.249 261.92 459.919 261.92 462.459ZM289.439 463.531V464.674H275.2V463.531H278.734V461.325C277.485 460.842 276.782 460.051 276.782 458.996C276.782 457.159 278.892 456.104 282.319 456.096C285.721 456.104 287.83 457.159 287.839 458.996C287.83 460.042 287.136 460.833 285.905 461.325V463.531H289.439ZM276.923 468.629C276.914 466.845 278.927 465.86 282.319 465.869C285.668 465.86 287.681 466.845 287.698 468.629C287.681 470.413 285.668 471.389 282.319 471.389C278.927 471.389 276.914 470.413 276.923 468.629ZM278.206 458.996C278.197 460.139 279.762 460.798 282.319 460.807C284.851 460.798 286.424 460.139 286.433 458.996C286.424 457.871 284.851 457.186 282.319 457.186C279.762 457.186 278.197 457.871 278.206 458.996ZM278.329 468.629C278.312 469.692 279.815 470.325 282.319 470.316C284.798 470.325 286.301 469.692 286.31 468.629C286.301 467.565 284.798 466.941 282.319 466.924C279.815 466.941 278.312 467.565 278.329 468.629ZM280.105 463.531H284.534V461.694C283.875 461.817 283.137 461.879 282.319 461.879C281.502 461.879 280.764 461.817 280.105 461.703V463.531ZM298.202 458.504V459.629H290.362V458.504H293.614V456.271H294.985V458.504H298.202ZM290.924 464.234C290.924 462.16 292.339 460.692 294.282 460.684C296.25 460.692 297.657 462.16 297.674 464.234C297.657 466.335 296.25 467.812 294.282 467.82C292.339 467.812 290.924 466.335 290.924 464.234ZM292.155 464.234C292.155 465.623 293.042 466.616 294.282 466.607C295.53 466.616 296.444 465.623 296.444 464.234C296.444 462.863 295.53 461.861 294.282 461.844C293.042 461.861 292.155 462.863 292.155 464.234ZM299.01 470.65V456.184H300.311V462.389H302.385V455.797H303.704V471.424H302.385V463.531H300.311V470.65H299.01ZM176.896 495.242V496.385H162.587V495.242H168.986V491.41H170.339V495.242H176.896ZM163.15 490.443C165.883 489.978 168.924 487.692 168.933 485.064V483.869H170.375V485.064C170.383 487.675 173.468 489.978 176.193 490.443L175.578 491.586C173.196 491.094 170.682 489.485 169.671 487.235C168.643 489.477 166.156 491.094 163.765 491.586L163.15 490.443ZM192.022 490.109V491.252H185.571V492.922C188.516 493.054 190.265 494.012 190.282 495.664C190.265 497.413 188.252 498.389 184.903 498.389C181.511 498.389 179.498 497.413 179.507 495.664C179.498 494.012 181.238 493.054 184.218 492.922V491.252H177.784V490.109H192.022ZM178.593 488.07C181.3 487.789 183.91 486.409 184.007 484.66H179.085V483.535H190.757V484.66H185.8C185.896 486.409 188.48 487.789 191.231 488.07L190.722 489.16C188.164 488.853 185.765 487.701 184.903 485.97C184.042 487.701 181.66 488.853 179.085 489.16L178.593 488.07ZM180.913 495.664C180.895 496.701 182.398 497.325 184.903 497.316C187.382 497.325 188.885 496.701 188.893 495.664C188.885 494.601 187.382 493.994 184.903 493.977C182.398 493.994 180.895 494.601 180.913 495.664ZM205.198 482.814V487.965H207.553V489.125H205.198V494.521H203.826V482.814H205.198ZM193.016 485.855V484.73H196.989V482.814H198.36V484.73H202.332V485.855H193.016ZM193.912 489.635C193.904 487.859 195.415 486.717 197.674 486.717C199.907 486.717 201.418 487.859 201.436 489.635C201.418 491.393 199.907 492.526 197.674 492.518C195.415 492.526 193.904 491.393 193.912 489.635ZM195.231 489.635C195.222 490.733 196.198 491.445 197.674 491.428C199.133 491.445 200.117 490.733 200.135 489.635C200.117 488.519 199.133 487.798 197.674 487.807C196.198 487.798 195.222 488.519 195.231 489.635ZM195.424 498.09V493.59H196.778V496.93H205.918V498.09H195.424ZM225.677 482.797V498.424H224.323V490.25H222.161V497.65H220.843V483.219H222.161V489.107H224.323V482.797H225.677ZM212.353 494.1C215.982 492.069 217.477 489.213 217.714 485.979H212.95V484.836H219.067C219.05 488.809 217.652 492.562 213.161 495.066L212.353 494.1ZM240.434 482.814V494.24H239.063V482.814H240.434ZM227.901 487.736C227.892 485.486 229.659 483.913 231.996 483.904C234.334 483.913 236.083 485.486 236.092 487.736C236.083 490.013 234.334 491.595 231.996 491.586C229.659 491.595 227.892 490.013 227.901 487.736ZM229.254 487.736C229.237 489.292 230.414 490.373 231.996 490.373C233.552 490.373 234.739 489.292 234.739 487.736C234.739 486.207 233.552 485.117 231.996 485.117C230.414 485.117 229.237 486.207 229.254 487.736ZM230.344 498.09V493.08H231.715V496.93H240.926V498.09H230.344ZM255.683 482.797V492.113H254.295V488.018H251.148V486.875H254.295V482.797H255.683ZM242.799 490.865C245.119 490.03 246.771 487.912 246.771 485.68V485.1H243.238V483.939H251.658V485.1H248.16V485.662C248.16 487.701 249.724 489.644 252.009 490.426L251.289 491.533C249.54 490.9 248.177 489.582 247.501 487.974C246.833 489.802 245.383 491.261 243.519 491.973L242.799 490.865ZM245.259 495.506C245.251 493.669 247.246 492.597 250.498 492.605C253.741 492.597 255.736 493.669 255.736 495.506C255.736 497.352 253.741 498.406 250.498 498.424C247.246 498.406 245.251 497.352 245.259 495.506ZM246.631 495.506C246.622 496.64 248.098 497.325 250.498 497.316C252.888 497.325 254.365 496.64 254.365 495.506C254.365 494.363 252.888 493.678 250.498 493.678C248.098 493.678 246.622 494.363 246.631 495.506ZM272.233 495.277V496.42H257.925V495.277H264.358V491.902H259.612V483.904H261.001V486.734H269.122V483.904H270.476V491.902H265.712V495.277H272.233ZM261.001 490.777H269.122V487.859H261.001V490.777ZM287.413 490.057V491.146H273.104V490.057H287.413ZM274.827 493.432V492.395H285.62V495.717H276.233V497.211H286.129V498.213H274.844V494.768H284.248V493.432H274.827ZM274.914 484.273V483.271H285.567V486.506H276.338V487.877H285.848V488.879H274.967V485.557H284.178V484.273H274.914ZM165.101 509.797V514.561H167.456V515.721H165.101V521.328H163.73V509.797H165.101ZM153.183 514.754C153.174 512.486 154.949 510.913 157.279 510.904C159.625 510.913 161.374 512.486 161.392 514.754C161.374 517.013 159.625 518.604 157.279 518.604C154.949 518.604 153.174 517.013 153.183 514.754ZM154.536 514.754C154.528 516.292 155.732 517.391 157.279 517.391C158.852 517.391 160.029 516.292 160.038 514.754C160.029 513.207 158.852 512.117 157.279 512.117C155.732 512.117 154.528 513.207 154.536 514.754ZM155.327 525.09V520.133H156.681V523.93H165.821V525.09H155.327ZM181.036 509.814V521.275H179.647V515.281H176.43V514.139H179.647V509.814H181.036ZM168.151 518.146C170.454 517.338 172.124 515.272 172.124 513.031V512.223H168.59V511.08H177.01V512.223H173.512V513.031C173.512 515.053 175.077 517.013 177.362 517.795L176.641 518.902C174.883 518.261 173.521 516.951 172.844 515.334C172.168 517.145 170.726 518.577 168.872 519.271L168.151 518.146ZM170.999 525.09V520.238H172.387V523.93H181.475V525.09H170.999ZM195.371 509.797V516.248H197.99V517.391H195.371V525.424H194V509.797H195.371ZM183.189 513.453V512.311H187.215V509.99H188.586V512.311H192.488V513.453H183.189ZM184.086 518.34C184.077 516.23 185.694 514.754 187.918 514.754C190.124 514.754 191.732 516.23 191.75 518.34C191.732 520.458 190.124 521.926 187.918 521.926C185.694 521.926 184.077 520.458 184.086 518.34ZM185.404 518.34C185.395 519.764 186.459 520.766 187.918 520.748C189.359 520.766 190.414 519.764 190.432 518.34C190.414 516.925 189.359 515.905 187.918 515.914C186.459 515.905 185.395 516.925 185.404 518.34ZM211.851 509.797V525.424H210.533V509.797H211.851ZM198.491 521.047C201.884 519.034 203.589 516.213 203.853 512.943H199.159V511.801H205.224C205.224 513.339 204.978 514.824 204.442 516.213H207.245V510.219H208.564V524.633H207.245V517.338H203.932C202.991 519.157 201.48 520.766 199.3 522.049L198.491 521.047ZM232.137 522.277V523.42H217.828V522.277H224.262V518.902H219.516V510.904H220.904V513.734H229.025V510.904H230.379V518.902H225.615V522.277H232.137ZM220.904 517.777H229.025V514.859H220.904V517.777ZM246.525 512.117V513.26H233.728V512.117H239.458V510.061H240.812V512.117H246.525ZM233.025 523.596V522.453H239.458V520.256C236.672 520.106 234.994 519.025 235.011 517.268C234.994 515.413 236.953 514.314 240.144 514.332C243.29 514.314 245.286 515.413 245.277 517.268C245.286 519.025 243.572 520.106 240.812 520.256V522.453H247.333V523.596H233.025ZM236.4 517.268C236.382 518.454 237.815 519.14 240.144 519.148C242.447 519.14 243.879 518.454 243.87 517.268C243.879 516.107 242.447 515.422 240.144 515.422C237.815 515.422 236.382 516.107 236.4 517.268ZM260.438 509.797V513.805H262.794V514.982H260.438V518.885H259.067V509.797H260.438ZM248.257 512.557V511.414H252.229V509.656H253.6V511.414H257.573V512.557H248.257ZM249.153 516.02C249.144 514.35 250.647 513.286 252.915 513.277C255.156 513.286 256.659 514.35 256.676 516.02C256.659 517.689 255.156 518.771 252.915 518.762C250.647 518.771 249.144 517.689 249.153 516.02ZM250.471 516.02C250.463 517.039 251.438 517.707 252.915 517.707C254.374 517.707 255.358 517.039 255.376 516.02C255.358 515.009 254.374 514.332 252.915 514.35C251.438 514.332 250.463 515.009 250.471 516.02ZM250.559 525.213V519.57H251.93V521.24H259.067V519.57H260.438V525.213H250.559ZM251.93 524.105H259.067V522.33H251.93V524.105ZM276.303 509.797V525.424H274.932V509.797H276.303ZM264.438 521.398V511.344H265.791V520.203C268.182 520.186 270.643 520.001 273.262 519.447L273.455 520.625C270.678 521.205 268.208 521.398 265.703 521.398H264.438ZM290.708 509.797V515.984H293.328V517.145H290.708V525.459H289.337V509.797H290.708ZM279.3 521.539V511.326H286.595V512.469H280.671V520.379C283.501 520.37 285.497 520.247 287.826 519.816L288.001 521.012C285.549 521.451 283.501 521.539 280.531 521.539H279.3ZM295.464 524.105C294.848 524.097 294.321 523.587 294.339 522.963C294.321 522.348 294.848 521.838 295.464 521.838C296.088 521.838 296.597 522.348 296.589 522.963C296.597 523.587 296.088 524.097 295.464 524.105Z" fill="#222222"/>
<circle cx="208" cy="633" r="4.5" fill="#323C59"/>
<circle cx="225" cy="633" r="4" fill="white" stroke="#323C59"/>
<circle cx="242" cy="633" r="4" fill="white" stroke="#323C59"/>
<rect x="20" y="735" width="150" height="56" rx="8" fill="#EEEEEE"/>
<path d="M76.2641 754.18V767.07H74.4086V760.996H70.7758V759.453H74.4086V754.18H76.2641ZM61.9281 763.633C65.8246 762.373 68.4711 760 68.852 757.031H62.8266V755.488H70.893C70.8734 760.059 67.7387 763.496 62.7094 765.117L61.9281 763.633ZM64.9945 771.289V765.742H66.8695V769.785H76.7133V771.289H64.9945ZM93.1687 754.16V771.699H91.3133V761.328H86.0984V759.805H91.3133V754.16H93.1687ZM79.4969 767.48V756.094H81.3719V765.938C83.8719 765.898 86.2254 765.742 88.7742 765.234L89.0086 766.758C86.1863 767.334 83.6473 767.49 80.9031 767.48H79.4969ZM110.152 754.18V771.66H108.296V754.18H110.152ZM95.3469 763.711C98.8723 763.711 103.306 763.721 107.3 763.242L107.398 764.609C105.708 764.873 103.999 765.029 102.32 765.117V771.094H100.464V765.195C98.7355 765.254 97.0852 765.254 95.5812 765.254L95.3469 763.711ZM96.4211 761.758V755.41H100.952V756.914H98.257V760.264C99.1652 760.234 100.083 760.156 101.148 759.922L101.284 761.406C99.7414 761.738 98.55 761.768 97.2219 761.758H96.4211ZM101.87 761.758V755.41H106.538V756.914H103.687V760.273H106.655V761.758H101.87ZM126.88 754.16V771.66H125.005V754.16H126.88ZM112.505 766.973C117.154 764.756 119.429 761.602 119.791 757.52H113.345V756.035H121.666C121.666 761.162 119.488 765.596 113.482 768.477L112.505 766.973Z" fill="#323C59"/>
<rect x="180" y="735" width="250" height="56" rx="8" fill="#323C59"/>
<path d="M302.192 754.16V760.938H305.005V762.461H302.192V771.699H300.337V754.16H302.192ZM289.302 767.344V755.84H297.485V757.344H291.157V765.801C294.096 765.791 296.294 765.664 298.794 765.215L299.028 766.777C296.284 767.266 293.96 767.354 290.708 767.344H289.302ZM313.413 754.531C317.251 754.521 319.654 755.771 319.663 757.891C319.654 759.971 317.251 761.201 313.413 761.191C309.585 761.201 307.154 759.971 307.163 757.891C307.154 755.771 309.585 754.521 313.413 754.531ZM305.445 764.043V762.539H321.402V764.043H305.445ZM307.359 771.445V765.605H319.448V771.445H307.359ZM309.077 757.891C309.068 759.053 310.718 759.736 313.413 759.746C316.089 759.736 317.759 759.053 317.749 757.891C317.759 756.68 316.089 755.986 313.413 755.996C310.718 755.986 309.068 756.68 309.077 757.891ZM309.195 769.941H317.652V767.09H309.195V769.941Z" fill="white"/>
<defs>
<clipPath id="clip0_250_991">
<rect width="140" height="140" fill="white" transform="translate(155 236)"/>
</clipPath>
</defs>
</svg>
