<svg width="450" height="851" viewBox="0 0 450 851" fill="none" xmlns="http://www.w3.org/2000/svg">
<rect width="450" height="851" fill="white"/>
<path d="M134.889 232.617H138.291L144.105 246.861H144.334L150.148 232.617H153.551V251H150.885V237.721H150.707L145.324 250.975H143.115L137.707 237.695H137.555V251H134.889V232.617ZM158.756 256.18C158.197 256.167 157.651 256.154 157.309 256.104V253.844C157.613 253.869 158.146 253.882 158.527 253.895C159.365 253.882 160.063 253.831 160.711 252.092L161.041 251.178L155.988 237.213H158.883L162.361 247.902H162.514L165.992 237.213H168.912L163.225 252.828C162.425 255.012 161.028 256.167 158.756 256.18ZM195.496 230.408V253.209H193.084V230.408H195.496ZM177.926 247.75V232.312H180.338V238.152H186.457V232.312H188.844V247.75H177.926ZM180.338 245.77H186.457V240.057H180.338V245.77ZM211.137 231.627V240.996H200.32V231.627H211.137ZM202.682 239.117H208.75V233.582H202.682V239.117ZM203.037 245.033V243.154H217.967V248.816H205.449V251H218.703V252.93H203.088V247.064H215.605V245.033H203.037ZM215.58 242.062V230.408H217.967V242.062H215.58ZM240.564 230.434V247.242H238.152V238.66H233.176V243.459H222.689V231.932H225.102V235.791H230.789V231.932H233.176V236.705H238.152V230.434H240.564ZM225.102 241.504H230.789V237.645H225.102V241.504ZM225.711 252.676V245.592H228.148V250.721H241.072V252.676H225.711ZM263.771 233.607V235.562H245.059V233.607H253.234V230.738H255.621V233.607H263.771ZM244.068 250.594V248.639H253.234V245.63C249.248 245.376 246.823 243.802 246.836 241.275C246.823 238.533 249.73 236.921 254.428 236.934C259.062 236.921 262.007 238.533 261.994 241.275C262.007 243.802 259.557 245.376 255.621 245.63V248.639H264.889V250.594H244.068ZM249.299 241.275C249.273 242.862 251.178 243.726 254.428 243.738C257.627 243.726 259.544 242.862 259.531 241.275C259.544 239.701 257.627 238.838 254.428 238.838C251.178 238.838 249.273 239.701 249.299 241.275ZM291.752 230.408V242.621H289.34V230.408H291.752ZM273.344 236.73C273.356 233.607 275.921 231.437 279.412 231.449C282.891 231.437 285.455 233.607 285.455 236.73C285.455 239.841 282.891 242.012 279.412 241.986C275.921 242.012 273.356 239.841 273.344 236.73ZM275.705 236.73C275.692 238.698 277.254 240.006 279.412 240.006C281.545 240.006 283.094 238.698 283.094 236.73C283.094 234.788 281.545 233.468 279.412 233.48C277.254 233.468 275.692 234.788 275.705 236.73ZM276.873 252.879V243.713H279.234V246.277H289.365V243.713H291.752V252.879H276.873ZM279.234 250.898H289.365V248.182H279.234V250.898ZM306.199 231.779V238.406H298.684V241.555C302.645 241.555 304.803 241.466 307.367 240.996L307.596 242.951C304.815 243.421 302.479 243.497 297.947 243.51H296.297V236.578H303.787V233.709H296.271V231.779H306.199ZM298.887 247.521V245.566H314.324V253.184H311.912V247.521H298.887ZM307.646 240.412V238.482H311.912V235.664H307.646V233.734H311.912V230.434H314.324V244.424H311.912V240.412H307.646Z" fill="#222222"/>
<path d="M95.6016 276.391V286.547H94.3828V276.391H95.6016ZM84.4609 280.766C84.4531 278.766 86.0234 277.367 88.1016 277.359C90.1797 277.367 91.7344 278.766 91.7422 280.766C91.7344 282.789 90.1797 284.195 88.1016 284.188C86.0234 284.195 84.4531 282.789 84.4609 280.766ZM85.6641 280.766C85.6484 282.148 86.6953 283.109 88.1016 283.109C89.4844 283.109 90.5391 282.148 90.5391 280.766C90.5391 279.406 89.4844 278.438 88.1016 278.438C86.6953 278.438 85.6484 279.406 85.6641 280.766ZM86.6328 289.969V285.516H87.8516V288.938H96.0391V289.969H86.6328ZM110.617 282.984V284H97.9609V282.984H110.617ZM98.6797 281.172C101.102 280.891 103.438 279.695 103.492 278.109H99.1172V277.094H109.492V278.109H105.086C105.141 279.68 107.453 280.891 109.914 281.172L109.461 282.156C107.188 281.867 105.055 280.844 104.289 279.305C103.523 280.844 101.406 281.867 99.1172 282.156L98.6797 281.172ZM99.4922 287.734C99.4844 286.141 101.289 285.219 104.289 285.219C107.266 285.219 109.055 286.141 109.07 287.734C109.055 289.344 107.266 290.234 104.289 290.234C101.289 290.234 99.4844 289.344 99.4922 287.734ZM100.742 287.734C100.727 288.703 102.062 289.258 104.289 289.25C106.492 289.258 107.828 288.703 107.836 287.734C107.828 286.758 106.492 286.203 104.289 286.188C102.062 286.203 100.727 286.758 100.742 287.734ZM116.68 280.109C116.672 282.625 118.289 285.156 120.305 286.078L119.57 287.078C117.992 286.266 116.688 284.609 116.07 282.633C115.453 284.711 114.148 286.492 112.57 287.328L111.773 286.344C113.812 285.344 115.422 282.672 115.43 280.109V277.578H116.68V280.109ZM118.789 282.125V281.125H122.086V276.375H123.305V290.297H122.086V282.125H118.789ZM134.523 280.109C134.516 282.625 136.133 285.156 138.148 286.078L137.414 287.078C135.836 286.266 134.531 284.609 133.914 282.633C133.297 284.711 131.992 286.492 130.414 287.328L129.617 286.344C131.656 285.344 133.266 282.672 133.273 280.109V277.578H134.523V280.109ZM136.633 282.125V281.125H139.93V276.375H141.148V290.297H139.93V282.125H136.633ZM154.977 276.375V284.609H153.742V282.422H150.492V283.609H144.117V277.438H150.492V278.641H153.742V276.375H154.977ZM145.336 282.609H149.289V278.438H145.336V282.609ZM145.711 287.641C145.703 285.969 147.477 285.008 150.367 285.016C153.25 285.008 155.023 285.969 155.023 287.641C155.023 289.297 153.25 290.234 150.367 290.234C147.477 290.234 145.703 289.297 145.711 287.641ZM146.93 287.641C146.922 288.648 148.234 289.266 150.367 289.266C152.492 289.266 153.805 288.648 153.805 287.641C153.805 286.594 152.492 285.984 150.367 285.969C148.234 285.984 146.922 286.594 146.93 287.641ZM150.492 281.391H153.742V279.656H150.492V281.391ZM163.617 276.625C166.703 276.625 168.516 277.477 168.523 279.016C168.516 280.594 166.703 281.445 163.617 281.453C160.516 281.445 158.695 280.594 158.695 279.016C158.695 277.477 160.516 276.625 163.617 276.625ZM157.289 283.391V282.391H169.945V283.391H157.289ZM158.82 285.531V284.594H168.32V287.703H160.07V289.141H168.742V290.109H158.852V286.797H167.117V285.531H158.82ZM159.977 279.016C159.961 279.984 161.312 280.516 163.617 280.516C165.922 280.516 167.266 279.984 167.273 279.016C167.266 278.102 165.922 277.555 163.617 277.547C161.312 277.555 159.961 278.102 159.977 279.016ZM179.711 277.062C181.789 277.047 183.281 278.195 183.273 279.891C183.281 281.586 181.789 282.742 179.711 282.734C177.633 282.742 176.148 281.586 176.148 279.891C176.148 278.195 177.633 277.047 179.711 277.062ZM175.102 283.922C177.711 283.93 181.281 283.875 184.367 283.422L184.445 284.344C183.117 284.586 181.742 284.734 180.398 284.82V289.844H179.18V284.891C177.766 284.953 176.43 284.961 175.273 284.969L175.102 283.922ZM177.352 279.891C177.336 280.977 178.328 281.727 179.711 281.719C181.109 281.727 182.109 280.977 182.102 279.891C182.109 278.812 181.109 278.047 179.711 278.062C178.328 278.047 177.336 278.812 177.352 279.891ZM185.383 290.281V276.391H186.586V290.281H185.383ZM195.898 278.781V279.781H188.93V278.781H191.82V276.797H193.039V278.781H195.898ZM189.43 283.875C189.43 282.031 190.688 280.727 192.414 280.719C194.164 280.727 195.414 282.031 195.43 283.875C195.414 285.742 194.164 287.055 192.414 287.062C190.688 287.055 189.43 285.742 189.43 283.875ZM190.523 283.875C190.523 285.109 191.312 285.992 192.414 285.984C193.523 285.992 194.336 285.109 194.336 283.875C194.336 282.656 193.523 281.766 192.414 281.75C191.312 281.766 190.523 282.656 190.523 283.875ZM196.617 289.578V276.719H197.773V282.234H199.617V276.375H200.789V290.266H199.617V283.25H197.773V289.578H196.617ZM218.258 276.375V290.297H217.023V276.375H218.258ZM207.617 286.938V277.562H208.836V281.234H212.977V277.562H214.18V286.938H207.617ZM208.836 285.906H212.977V282.219H208.836V285.906ZM227.883 277.156V282.812H221.367V277.156H227.883ZM222.57 281.844H226.68V278.156H222.57V281.844ZM223.07 285.219V284.234H232.086V287.547H224.305V289.109H232.586V290.109H223.086V286.641H230.883V285.219H223.07ZM230.883 283.547V276.375H232.086V283.547H230.883ZM245.977 276.391V286.672H244.742V281.328H241.461V284.297H235.164V277.312H236.383V279.781H240.258V277.312H241.461V280.297H244.742V276.391H245.977ZM236.383 283.281H240.258V280.75H236.383V283.281ZM236.992 289.969V285.656H238.227V288.938H246.289V289.969H236.992ZM260.289 278.438V279.453H248.914V278.438H254.008V276.609H255.211V278.438H260.289ZM248.289 288.641V287.625H254.008V285.672C251.531 285.539 250.039 284.578 250.055 283.016C250.039 281.367 251.781 280.391 254.617 280.406C257.414 280.391 259.188 281.367 259.18 283.016C259.188 284.578 257.664 285.539 255.211 285.672V287.625H261.008V288.641H248.289ZM251.289 283.016C251.273 284.07 252.547 284.68 254.617 284.688C256.664 284.68 257.938 284.07 257.93 283.016C257.938 281.984 256.664 281.375 254.617 281.375C252.547 281.375 251.273 281.984 251.289 283.016ZM274.82 282.828V283.797H262.102V282.828H274.82ZM263.633 285.828V284.906H273.227V287.859H264.883V289.188H273.68V290.078H263.648V287.016H272.008V285.828H263.633ZM263.711 277.688V276.797H273.18V279.672H264.977V280.891H273.43V281.781H263.758V278.828H271.945V277.688H263.711ZM291.43 276.375V283.828H290.211V276.375H291.43ZM280.289 280.25C280.281 278.352 281.82 277.047 283.93 277.062C286.039 277.047 287.562 278.352 287.57 280.25C287.562 282.141 286.039 283.445 283.93 283.438C281.82 283.445 280.281 282.141 280.289 280.25ZM281.492 280.25C281.477 281.516 282.5 282.414 283.93 282.422C285.344 282.414 286.367 281.516 286.367 280.25C286.367 278.977 285.344 278.086 283.93 278.094C282.5 278.086 281.477 278.977 281.492 280.25ZM282.43 290.078V284.531H283.648V286.219H290.211V284.531H291.43V290.078H282.43ZM283.648 289.078H290.211V287.203H283.648V289.078ZM300.383 277.234V281.125H295.602V283.281C298.211 283.289 299.562 283.234 301.195 282.938L301.32 283.953C299.594 284.234 298.18 284.281 295.367 284.281H294.383V280.188H299.164V278.219H294.352V277.234H300.383ZM295.945 286.672V285.672H305.305V290.297H304.07V286.672H295.945ZM301.305 282.344V281.328H304.07V279.453H301.305V278.453H304.07V276.391H305.305V284.922H304.07V282.344H301.305ZM314.555 278.781V279.781H307.586V278.781H310.477V276.797H311.695V278.781H314.555ZM308.086 283.875C308.086 282.031 309.344 280.727 311.07 280.719C312.82 280.727 314.07 282.031 314.086 283.875C314.07 285.742 312.82 287.055 311.07 287.062C309.344 287.055 308.086 285.742 308.086 283.875ZM309.18 283.875C309.18 285.109 309.969 285.992 311.07 285.984C312.18 285.992 312.992 285.109 312.992 283.875C312.992 282.656 312.18 281.766 311.07 281.75C309.969 281.766 309.18 282.656 309.18 283.875ZM315.273 289.578V276.719H316.43V282.234H318.273V276.375H319.445V290.266H318.273V283.25H316.43V289.578H315.273ZM328.461 278.344C328.453 280.203 330.93 281.781 333.352 282.141L332.898 283.109C330.734 282.742 328.617 281.586 327.773 279.914C326.93 281.586 324.812 282.742 322.68 283.109L322.195 282.141C324.609 281.781 327.078 280.203 327.086 278.344V278.25H322.633V277.25H332.898V278.25H328.461V278.344ZM321.445 285.312V284.297H334.102V285.312H328.352V290.266H327.148V285.312H321.445ZM339.398 280.328C339.398 282.539 340.477 284.922 342.32 286.016L341.617 286.969C340.273 286.156 339.312 284.672 338.828 282.977C338.32 284.828 337.289 286.422 335.898 287.266L335.117 286.344C337.039 285.219 338.211 282.758 338.211 280.375V277.688H339.398V280.328ZM340.789 282.406V281.359H343.148V276.672H344.305V289.562H343.148V282.406H340.789ZM345.992 290.266V276.375H347.18V290.266H345.992ZM361.82 287.453V288.484H349.102V287.453H352.258V283.711C351.07 283.094 350.352 282.094 350.352 280.828C350.352 278.68 352.461 277.266 355.43 277.25C358.398 277.266 360.508 278.68 360.508 280.828C360.508 282.07 359.812 283.055 358.664 283.672V287.453H361.82ZM351.539 280.828C351.531 282.383 353.148 283.422 355.43 283.422C357.688 283.422 359.32 282.383 359.32 280.828C359.32 279.273 357.688 278.25 355.43 278.266C353.148 278.25 351.531 279.273 351.539 280.828ZM353.461 287.453H357.43V284.148C356.828 284.305 356.156 284.391 355.43 284.391C354.719 284.391 354.055 284.312 353.461 284.156V287.453ZM364.398 289.094C363.852 289.086 363.383 288.633 363.398 288.078C363.383 287.531 363.852 287.078 364.398 287.078C364.953 287.078 365.406 287.531 365.398 288.078C365.406 288.633 364.953 289.086 364.398 289.094Z" fill="#818181"/>
<rect x="96" y="345" width="18" height="2" fill="#939393"/>
<rect x="144" y="345" width="18" height="2" fill="#939393"/>
<rect x="192" y="345" width="18" height="2" fill="#939393"/>
<rect x="240" y="345" width="18" height="2" fill="#939393"/>
<rect x="288" y="345" width="18" height="2" fill="#939393"/>
<rect x="336" y="345" width="18" height="2" fill="#939393"/>
<path d="M74.9854 606.293C70.5176 606.293 67.4414 603.817 67.4561 600.375C67.4414 597.636 69.3457 595.365 71.7627 594.984V594.867C69.6533 594.384 68.2617 592.436 68.2764 590.121C68.2617 586.884 71.1035 584.496 74.9854 584.496C78.8525 584.496 81.6943 586.884 81.7236 590.121C81.6943 592.436 80.2881 594.384 78.208 594.867V594.984C80.6104 595.365 82.5146 597.636 82.5439 600.375C82.5146 603.817 79.4092 606.293 74.9854 606.293ZM70.0928 600.229C70.0488 602.455 71.9385 603.964 74.9854 603.979C78.0176 603.964 79.9072 602.455 79.9072 600.229C79.9072 597.885 77.8418 596.156 74.9854 596.156C72.1436 596.156 70.0488 597.885 70.0928 600.229ZM70.8252 590.326C70.8398 592.465 72.5537 593.915 74.9854 593.93C77.4023 593.915 79.1455 592.465 79.1455 590.326C79.1455 588.202 77.4609 586.767 74.9854 586.781C72.4658 586.767 70.8398 588.202 70.8252 590.326Z" fill="#222222"/>
<path d="M224.854 584.496C228.501 584.54 232.559 586.737 232.559 594.545C232.559 602.089 229.468 606.293 224.502 606.293C220.767 606.293 218.145 604.008 217.617 600.639H220.225C220.693 602.543 222.144 603.949 224.502 603.949C227.959 603.949 230.068 600.961 230.098 595.805H229.805C228.589 597.562 226.641 598.617 224.385 598.617C220.591 598.617 217.441 595.702 217.441 591.615C217.441 587.66 220.342 584.452 224.854 584.496ZM220.02 591.586C220.005 594.208 221.997 596.303 224.766 596.303C227.534 596.303 229.688 594.018 229.688 591.527C229.688 589.096 227.651 586.811 224.854 586.811C222.085 586.811 219.99 588.964 220.02 591.586Z" fill="#222222"/>
<path d="M375.059 606.293C370.84 606.293 367.808 604.037 367.676 600.668H370.342C370.488 602.689 372.495 603.949 375.029 603.949C377.827 603.949 379.849 602.44 379.863 600.229C379.849 597.914 378.003 596.288 374.707 596.273H372.979V593.959H374.707C377.285 593.959 379.087 592.509 379.072 590.326C379.087 588.202 377.534 586.796 375.117 586.781C372.847 586.796 370.781 588.041 370.664 590.121H368.115C368.247 586.752 371.382 584.496 375.146 584.496C379.189 584.496 381.65 587.147 381.621 590.18C381.65 592.597 380.244 594.354 378.018 594.984V595.131C380.786 595.556 382.456 597.533 382.441 600.229C382.456 603.715 379.292 606.293 375.059 606.293Z" fill="#222222"/>
<path d="M68.1885 679L68.1592 677.066L75.3955 669.449C77.9004 666.783 79.1016 665.348 79.1162 663.385C79.1016 661.202 77.2852 659.796 74.8975 659.781C72.3633 659.796 70.7812 661.393 70.7666 663.766H68.2764C68.2471 660.016 71.1475 657.496 74.9854 657.496C78.8379 657.496 81.5625 660.089 81.5771 663.385C81.5625 665.758 80.4639 667.604 76.7139 671.471L71.8506 676.48V676.656H81.958V679H68.1885Z" fill="#222222"/>
<path d="M225.176 679.293C221.499 679.249 217.441 677.066 217.441 669.215C217.441 661.7 220.518 657.496 225.498 657.496C229.233 657.496 231.841 659.796 232.383 663.121H229.775C229.292 661.246 227.856 659.84 225.498 659.84C222.012 659.84 219.917 662.813 219.932 667.926H220.195C221.411 666.153 223.359 665.113 225.645 665.113C229.409 665.113 232.559 668.043 232.559 672.145C232.559 676.144 229.644 679.337 225.176 679.293ZM220.283 672.203C220.298 674.693 222.334 676.964 225.176 676.979C227.915 676.964 229.995 674.811 230.01 672.174C229.995 669.566 228.003 667.442 225.234 667.428C222.451 667.442 220.312 669.698 220.283 672.203Z" fill="#222222"/>
<path d="M377.915 657.789V679H375.249V660.543H375.132L369.976 663.971V661.305L375.249 657.789H377.915Z" fill="#222222"/>
<path d="M67.1045 747.664V745.496L76.6553 730.789H79.9072V745.35H82.8662V747.664H79.9072V752H77.3877V747.664H67.1045ZM69.9463 745.35H77.3877V734.129H77.124L69.9463 745.174V745.35Z" fill="#222222"/>
<path d="M219.39 752L229.116 733.279V733.133H217.896V730.789H231.841V733.25L222.144 752H219.39Z" fill="#222222"/>
<path d="M374.956 752.293C371.133 752.293 368.232 749.935 368.071 746.668H370.62C370.811 748.558 372.656 749.964 374.956 749.979C377.71 749.964 379.702 747.957 379.702 745.291C379.702 742.537 377.637 740.501 374.78 740.486C372.993 740.457 371.602 741.014 370.825 742.391H368.276L369.771 730.789H381.255V733.133H371.968L371.177 739.344H371.382C372.334 738.611 373.755 738.113 375.249 738.113C379.292 738.113 382.266 741.102 382.28 745.232C382.266 749.334 379.189 752.293 374.956 752.293Z" fill="#222222"/>
<path d="M66.7578 807.875V821.766H65.5703V814.547H63.6797V821.062H62.5078V808.172H63.6797V813.5H65.5703V807.875H66.7578ZM54.6797 817.953C56.6797 816.852 57.75 814.492 57.7422 811.672V810.562H55.0078V809.531H61.5078V810.562H58.9297V811.672C58.9297 814.211 59.9844 816.453 61.9609 817.469L61.2266 818.422C59.8281 817.656 58.8594 816.289 58.3672 814.594C57.8906 816.523 56.9062 818.039 55.4453 818.891L54.6797 817.953ZM70.3359 809.203V812.594H73.3516V809.203H74.4922V818.297H69.1641V809.203H70.3359ZM70.3359 817.281H73.3516V813.594H70.3359V817.281ZM76.2578 821.062V808.172H77.4297V813.391H79.3672V807.875H80.5547V821.766H79.3672V814.406H77.4297V821.062H76.2578ZM86.3047 808.375C87.5312 808.367 88.5625 808.82 89.2031 809.578H92.7578V807.875H93.9766V815.016H92.7578V813.422H89.2344C88.6016 814.211 87.5547 814.68 86.3047 814.672C84.2109 814.68 82.6875 813.398 82.6953 811.516C82.6875 809.648 84.2109 808.367 86.3047 808.375ZM83.8672 811.516C83.8672 812.773 84.8828 813.672 86.3047 813.688C87.6797 813.672 88.7109 812.773 88.7109 811.516C88.7109 810.266 87.6797 809.375 86.3047 809.391C84.8828 809.375 83.8672 810.266 83.8672 811.516ZM84.9766 816.703V815.719H93.9766V819.047H86.2266V820.594H94.5078V821.578H85.0078V818.109H92.7578V816.703H84.9766ZM89.75 810.562C89.8438 810.859 89.8984 811.18 89.8984 811.516C89.8984 811.844 89.8516 812.148 89.7578 812.438H92.7578V810.562H89.75Z" fill="#222222"/>
<path d="M225 825.293C220.298 825.293 217.573 821.338 217.588 814.395C217.573 807.51 220.327 803.496 225 803.496C229.658 803.496 232.412 807.51 232.412 814.395C232.412 821.338 229.702 825.293 225 825.293ZM220.137 814.395C220.151 819.888 221.924 822.949 225 822.949C228.062 822.949 229.849 819.888 229.834 814.395C229.849 808.901 228.047 805.796 225 805.781C221.953 805.796 220.151 808.901 220.137 814.395Z" fill="#222222"/>
<mask id="mask0_233_3580" style="mask-type:alpha" maskUnits="userSpaceOnUse" x="355" y="794" width="40" height="41">
<rect x="355" y="794.5" width="40" height="40" fill="#D9D9D9"/>
</mask>
<g mask="url(#mask0_233_3580)">
<path d="M370.641 824.5C370.043 824.5 369.479 824.364 368.95 824.093C368.421 823.822 367.983 823.442 367.634 822.955L362.785 816.064C362.454 815.588 362.288 815.066 362.288 814.5C362.288 813.934 362.454 813.413 362.785 812.936L367.634 806.109C367.983 805.622 368.416 805.232 368.934 804.939C369.452 804.646 370.021 804.5 370.641 804.5H385.641C386.386 804.5 387.022 804.762 387.546 805.287C388.071 805.811 388.333 806.447 388.333 807.192V821.808C388.333 822.553 388.071 823.189 387.546 823.713C387.022 824.238 386.386 824.5 385.641 824.5H370.641ZM370.641 822.833H385.641C385.897 822.833 386.132 822.727 386.346 822.513C386.56 822.299 386.666 822.064 386.666 821.808V807.192C386.666 806.936 386.56 806.701 386.346 806.487C386.132 806.273 385.897 806.167 385.641 806.167H370.641C370.32 806.167 370.016 806.247 369.727 806.407C369.439 806.567 369.209 806.765 369.038 807L364.115 813.891C363.987 814.062 363.923 814.265 363.923 814.5C363.923 814.735 363.987 814.938 364.115 815.109L369.038 822C369.209 822.235 369.439 822.433 369.727 822.593C370.016 822.753 370.32 822.833 370.641 822.833ZM377.756 815.68L381.5 819.423C381.656 819.579 381.847 819.662 382.074 819.673C382.3 819.684 382.502 819.6 382.679 819.423C382.857 819.246 382.945 819.049 382.945 818.833C382.945 818.618 382.857 818.421 382.679 818.244L378.936 814.5L382.679 810.756C382.835 810.6 382.919 810.409 382.929 810.182C382.94 809.956 382.857 809.754 382.679 809.577C382.502 809.4 382.305 809.311 382.089 809.311C381.874 809.311 381.677 809.4 381.5 809.577L377.756 813.32L374.013 809.577C373.857 809.421 373.665 809.338 373.439 809.327C373.212 809.316 373.01 809.4 372.833 809.577C372.656 809.754 372.567 809.951 372.567 810.167C372.567 810.383 372.656 810.579 372.833 810.756L376.577 814.5L372.833 818.244C372.677 818.4 372.594 818.591 372.583 818.817C372.573 819.044 372.656 819.246 372.833 819.423C373.01 819.6 373.207 819.689 373.423 819.689C373.639 819.689 373.835 819.6 374.013 819.423L377.756 815.68Z" fill="#797378"/>
</g>
</svg>
