<svg width="450" height="851" viewBox="0 0 450 851" fill="none" xmlns="http://www.w3.org/2000/svg">
<rect width="450" height="851" fill="white"/>
<rect width="450" height="58" fill="white"/>
<mask id="mask0_250_1121" style="mask-type:alpha" maskUnits="userSpaceOnUse" x="14" y="17" width="24" height="24">
<rect x="14" y="17" width="24" height="24" fill="#D9D9D9"/>
</mask>
<g mask="url(#mask0_250_1121)">
<path d="M23.0152 28.9994L30.248 36.2321C30.43 36.4141 30.5227 36.6397 30.526 36.9089C30.5292 37.1782 30.4397 37.4039 30.2577 37.5859C30.0756 37.7679 29.8499 37.8589 29.5807 37.8589C29.3116 37.8589 29.0859 37.7679 28.9038 37.5859L21.4578 30.1301C21.2936 29.9659 21.1762 29.7884 21.1057 29.5974C21.0352 29.4064 21 29.207 21 28.9994C21 28.7917 21.0352 28.5924 21.1057 28.4014C21.1762 28.2104 21.2936 28.0328 21.4578 27.8686L28.9038 20.4224C29.0859 20.2404 29.31 20.1478 29.576 20.1446C29.842 20.1414 30.066 20.2309 30.248 20.4129C30.43 20.5949 30.521 20.8205 30.521 21.0899C30.521 21.359 30.43 21.5846 30.248 21.7666L23.0152 28.9994Z" fill="#222222"/>
</g>
<path d="M198.578 134.934V152.898H196.418V144.23H191.031V142.426H196.418V134.934H198.578ZM178.809 148.332C184.401 146.486 188.297 142.986 188.789 138.598H180.039V136.793H191.141C191.113 143.041 186.643 147.799 179.738 150.055L178.809 148.332ZM183.102 158.695V151.066H185.289V156.891H199.207V158.695H183.102ZM221.069 134.906V141.25H224.733V143.027H221.069V149.508H218.936V134.906H221.069ZM202.092 147.785C207.958 146.09 211.704 142.713 212.141 138.488H203.159V136.711H214.452C214.438 142.904 210.077 147.443 202.995 149.535L202.092 147.785ZM205.428 154.457C205.415 151.545 208.546 149.768 213.385 149.781C218.266 149.768 221.342 151.545 221.342 154.457C221.342 157.41 218.266 159.16 213.385 159.16C208.546 159.16 205.415 157.41 205.428 154.457ZM207.561 154.457C207.534 156.289 209.817 157.451 213.385 157.438C216.954 157.451 219.264 156.289 219.264 154.457C219.264 152.625 216.954 151.49 213.385 151.504C209.817 151.49 207.534 152.625 207.561 154.457ZM247.962 154.32V156.098H225.704V154.32H235.712V149.07H228.329V136.629H230.49V141.031H243.122V136.629H245.228V149.07H237.818V154.32H247.962ZM230.49 147.32H243.122V142.781H230.49V147.32ZM269.496 134.906V149.645H267.336V144.094H263.207V142.316H267.336V134.906H269.496ZM249.371 139.227V137.477H255.414V134.688H257.519V137.477H263.562V139.227H249.371ZM250.82 144.805C250.82 142.262 253.158 140.484 256.453 140.484C259.762 140.484 262.086 142.262 262.113 144.805C262.086 147.43 259.762 149.152 256.453 149.152C253.158 149.152 250.82 147.43 250.82 144.805ZM252.871 144.805C252.871 146.418 254.334 147.484 256.453 147.512C258.572 147.484 260.035 146.418 260.035 144.805C260.035 143.246 258.572 142.152 256.453 142.152C254.334 142.152 252.871 143.246 252.871 144.805ZM253.609 158.887V150.957H269.496V158.887H253.609ZM255.742 157.137H267.39V152.68H255.742V157.137ZM131.912 181.371C131.885 185.268 134.701 189.561 138.228 191.242L136.998 192.938C134.264 191.598 131.953 188.727 130.859 185.432C129.738 189 127.305 192.145 124.584 193.539L123.271 191.844C126.771 190.135 129.779 185.514 129.807 181.371V178.199H124.146V176.422H137.381V178.199H131.912V181.371ZM140.361 198.215V173.906H142.494V183.75H146.568V185.582H142.494V198.215H140.361ZM160.145 175.574C160.145 176.518 160.036 177.42 159.844 178.281H165.313V173.934H167.473V188.426H165.313V185.199H158.86V183.422H165.313V180.059H159.256C157.616 183.887 153.801 186.662 148.551 188.098L147.704 186.375C153.637 184.734 157.397 181.48 157.834 177.324H148.934V175.574H160.145ZM151.122 191.215V189.492H167.473V198.188H165.313V191.215H151.122ZM179.998 189.109C179.041 189.096 178.22 188.303 178.248 187.332C178.22 186.375 179.041 185.582 179.998 185.582C180.968 185.582 181.761 186.375 181.748 187.332C181.761 188.303 180.968 189.096 179.998 189.109ZM195.53 174.891V177.98H207.561V174.891H209.694V184.598H202.585V187.195H212.592V188.973H190.444V187.195H200.452V184.598H193.397V174.891H195.53ZM193.315 197.695V190.914H195.475V195.891H210.132V197.695H193.315ZM195.53 182.875H207.561V179.676H195.53V182.875ZM234.154 173.934V191.707H232.021V173.934H234.154ZM214.658 181.59C214.644 178.09 217.392 175.643 221.029 175.629C224.665 175.643 227.386 178.09 227.4 181.59C227.386 185.131 224.665 187.592 221.029 187.578C217.392 187.592 214.644 185.131 214.658 181.59ZM216.763 181.59C216.736 184.01 218.568 185.691 221.029 185.691C223.449 185.691 225.294 184.01 225.294 181.59C225.294 179.211 223.449 177.516 221.029 177.516C218.568 177.516 216.736 179.211 216.763 181.59ZM218.458 197.695V189.902H220.591V195.891H234.919V197.695H218.458ZM256.699 173.934V181.289H260.336V183.094H256.699V190.23H254.539V173.934H256.699ZM237.613 187.742C239.555 187.742 241.824 187.742 244.203 187.674V185.883C241.373 185.623 239.541 184.324 239.555 182.301C239.541 180.086 241.824 178.719 245.242 178.719C248.687 178.719 250.93 180.086 250.957 182.301C250.93 184.311 249.152 185.609 246.336 185.883V187.592C248.605 187.482 250.902 187.291 253.035 186.977L253.226 188.535C247.949 189.465 242.139 189.506 237.859 189.492L237.613 187.742ZM238.215 177.789V176.148H244.203V173.715H246.336V176.148H252.297V177.789H238.215ZM240.594 193.156V191.434H256.699V198.215H254.539V193.156H240.594ZM241.605 182.301C241.592 183.572 243 184.434 245.242 184.406C247.484 184.434 248.906 183.572 248.906 182.301C248.906 181.016 247.484 180.223 245.242 180.25C243 180.223 241.592 181.016 241.605 182.301ZM281.432 173.934V191.707H279.299V173.934H281.432ZM261.936 181.59C261.922 178.09 264.67 175.643 268.307 175.629C271.944 175.643 274.664 178.09 274.678 181.59C274.664 185.131 271.944 187.592 268.307 187.578C264.67 187.592 261.922 185.131 261.936 181.59ZM264.041 181.59C264.014 184.01 265.846 185.691 268.307 185.691C270.727 185.691 272.573 184.01 272.573 181.59C272.573 179.211 270.727 177.516 268.307 177.516C265.846 177.516 264.014 179.211 264.041 181.59ZM265.737 197.695V189.902H267.87V195.891H282.198V197.695H265.737ZM299.835 189.793H302.515L304.607 192.527C306.084 191.229 307.013 189.055 307.027 186.102C307.013 180.988 304.238 178.227 300.656 178.227C297.074 178.227 294.298 180.988 294.285 186.102C294.298 191.201 297.074 193.963 300.656 193.977C301.394 193.977 302.105 193.854 302.761 193.621L299.835 189.793ZM291.906 186.102C291.892 179.84 295.57 175.93 300.656 175.93C305.728 175.93 309.419 179.84 309.406 186.102C309.419 189.807 308.134 192.678 306.029 194.414L308.613 197.859H305.933L304.21 195.549C303.144 196.027 301.941 196.273 300.656 196.273C295.57 196.273 291.892 192.363 291.906 186.102ZM312.455 196V176.203H319.182C323.816 176.203 325.936 178.773 325.936 182.301C325.936 184.926 324.76 186.977 322.244 187.852L326.701 196H323.83L319.688 188.303C319.537 188.316 319.373 188.316 319.209 188.316H314.916V196H312.455ZM314.916 186.074H319.1C322.258 186.074 323.488 184.652 323.502 182.301C323.488 179.936 322.258 178.391 319.072 178.391H314.916V186.074Z" fill="black"/>
<g clip-path="url(#clip0_250_1121)">
<circle cx="225" cy="306" r="70" fill="#F2F3F7"/>
<path d="M255.05 332.127H195.541C192.74 332.127 190.467 329.854 190.467 327.053V285.875C190.467 283.074 192.74 280.801 195.541 280.801H255.057C257.858 280.801 260.131 283.074 260.131 285.875V327.06C260.131 329.861 257.858 332.134 255.057 332.134L255.05 332.127Z" fill="#EF403C"/>
<path d="M222.827 310.62C222.71 310.495 220.561 308.369 216.976 307.247C218.611 305.949 219.667 303.955 219.667 301.711C219.667 297.818 216.499 294.65 212.606 294.65C208.712 294.65 205.545 297.818 205.545 301.711C205.545 303.955 206.601 305.949 208.236 307.247C204.643 308.362 202.502 310.495 202.385 310.613C201.93 311.075 201.666 311.742 201.666 312.439V315.914C201.666 317.27 202.649 318.378 203.858 318.378H221.368C222.578 318.378 223.56 317.27 223.56 315.914V312.439C223.56 311.742 223.296 311.075 222.842 310.613L222.827 310.62Z" fill="white"/>
<path d="M231.01 298.143H249.282" stroke="white" stroke-width="4" stroke-linecap="round" stroke-linejoin="round"/>
<path d="M231.01 306.934H241.04" stroke="white" stroke-width="4" stroke-linecap="round" stroke-linejoin="round"/>
</g>
<path d="M183.684 427.305H186.473L187.915 429.203C188.888 428.195 189.462 426.625 189.45 424.516C189.462 420.637 187.516 418.539 184.739 418.539C181.973 418.539 180.016 420.637 180.028 424.516C180.016 428.395 181.973 430.492 184.739 430.492C185.184 430.492 185.606 430.434 186.005 430.328L183.684 427.305ZM176.958 424.516C176.946 419.031 180.274 415.797 184.739 415.797C189.18 415.797 192.532 419.031 192.52 424.516C192.532 427.598 191.477 429.965 189.766 431.453L192.122 434.477H189.145L187.727 432.684C186.813 433.047 185.805 433.234 184.739 433.234C180.274 433.234 176.946 429.988 176.958 424.516ZM194.783 433V416.031H201.158C205.048 416.031 207.122 418.211 207.134 421.445C207.122 423.754 206.068 425.465 204.075 426.273L207.743 433H204.345L201.017 426.789H197.829V433H194.783ZM197.829 424.234H200.689C202.986 424.246 204.017 423.262 204.017 421.445C204.017 419.641 202.986 418.586 200.689 418.586H197.829V424.234ZM231.862 413.898V435.086H229.377V413.898H231.862ZM213.252 429.062C216.311 427.199 217.658 423.379 217.658 419.688V418.281H213.979V416.172H223.588V418.281H220.166V419.688C220.166 423.262 221.444 426.848 224.479 428.594L222.932 430.516C220.975 429.355 219.674 427.34 218.936 424.926C218.186 427.539 216.838 429.766 214.846 431.008L213.252 429.062ZM222.041 423.391V421.281H225.088V414.297H227.549V434.055H225.088V423.391H222.041ZM253.155 423.062V424.984H244.811V426.531H250.788V431.5H238.741V432.953H251.374V434.898H236.186V429.719H248.233V428.406H236.163V426.531H242.233V424.984H233.936V423.062H253.155ZM234.78 420.414C238.964 420.203 241.425 419.078 241.964 417.578H235.788V415.633H242.233V413.852H244.811V415.633H251.303V417.578H245.081C245.596 419.078 248.057 420.203 252.288 420.414L251.514 422.359C247.706 422.125 244.858 421.094 243.522 419.383C242.186 421.094 239.35 422.125 235.507 422.359L234.78 420.414ZM273.511 430.469V432.625H254.152V430.469H262.495V427.023H256.448V420.086H268.636V417.461H256.402V415.352H271.214V422.148H259.05V424.891H271.706V427.023H265.073V430.469H273.511Z" fill="#EF403C"/>
<path d="M177.841 456.764V459.277H182.2V456.764H183.554V458.363H187.245V455.797H188.634V465.271H187.245V462.723H183.554V464.111H176.47V456.764H177.841ZM177.841 462.986H182.2V460.385H177.841V462.986ZM178.21 468.506C178.201 466.643 180.197 465.588 183.448 465.57C186.692 465.588 188.687 466.643 188.687 468.506C188.687 470.334 186.692 471.389 183.448 471.389C180.197 471.389 178.201 470.334 178.21 468.506ZM179.581 468.506C179.572 469.631 181.049 470.299 183.448 470.299C185.839 470.299 187.316 469.631 187.316 468.506C187.316 467.337 185.839 466.669 183.448 466.66C181.049 466.669 179.572 467.337 179.581 468.506ZM183.554 461.58H187.245V459.488H183.554V461.58ZM192.528 465.57C191.913 465.562 191.385 465.052 191.403 464.428C191.385 463.812 191.913 463.303 192.528 463.303C193.152 463.303 193.662 463.812 193.653 464.428C193.662 465.052 193.152 465.562 192.528 465.57ZM200.201 456.939C202.653 456.948 204.394 458.442 204.402 460.613C204.394 462.793 202.653 464.278 200.201 464.287C197.731 464.278 195.974 462.793 195.982 460.613C195.974 458.442 197.731 456.948 200.201 456.939ZM195.174 466.836C198.057 466.845 202.038 466.818 205.492 466.309L205.598 467.328C202.02 467.996 198.18 468.014 195.367 468.014L195.174 466.836ZM197.336 460.613C197.327 462.072 198.531 463.074 200.201 463.074C201.853 463.074 203.058 462.072 203.049 460.613C203.058 459.163 201.853 458.152 200.201 458.152C198.531 458.152 197.327 459.163 197.336 460.613ZM206.529 471.459V455.797H207.9V471.459H206.529ZM223.167 455.814V467.68H221.779V466.062H218.544V465.061H221.779V455.814H223.167ZM210.195 463.057C213.104 463.039 217.024 463.013 220.372 462.6L220.46 463.602C219.072 463.821 217.604 463.962 216.171 464.05V467.135H214.783V464.12C213.201 464.182 211.698 464.182 210.388 464.182L210.195 463.057ZM211.46 459.172C211.451 457.528 213.016 456.447 215.327 456.447C217.621 456.447 219.186 457.528 219.195 459.172C219.186 460.842 217.621 461.879 215.327 461.879C213.016 461.879 211.451 460.842 211.46 459.172ZM212.445 471.09V466.52H213.833V469.93H223.554V471.09H212.445ZM212.779 459.172C212.761 460.191 213.798 460.851 215.327 460.859C216.813 460.851 217.867 460.191 217.876 459.172C217.867 458.17 216.813 457.484 215.327 457.502C213.798 457.484 212.761 458.17 212.779 459.172ZM235.262 459.154C235.271 461.264 236.932 463.162 239.27 463.9L238.566 465.008C236.747 464.384 235.306 463.101 234.594 461.457C233.917 463.232 232.449 464.639 230.586 465.324L229.865 464.217C232.212 463.399 233.864 461.369 233.873 459.154V458.24H230.217V457.115H238.865V458.24H235.262V459.154ZM232.449 471.09V466.186H233.82V469.93H243.031V471.09H232.449ZM241.168 467.275V455.814H242.539V467.275H241.168ZM259.142 468.33V469.49H244.833V468.33H248.859V465.359H246.626V460.543H255.978V458.1H246.591V456.957H257.331V461.686H247.997V464.217H257.701V465.359H255.257V468.33H259.142ZM250.212 468.33H253.904V465.359H250.212V468.33ZM274.321 463.057V464.146H260.012V463.057H274.321ZM261.735 466.432V465.395H272.528V468.717H263.141V470.211H273.038V471.213H261.753V467.768H271.157V466.432H261.735ZM261.823 457.273V456.271H272.475V459.506H263.247V460.877H272.757V461.879H261.876V458.557H271.087V457.273H261.823ZM171.341 482.797V491.287H169.97V487.754H166.806V486.594H169.97V482.797H171.341ZM158.474 490.461C160.777 489.626 162.446 487.561 162.446 485.346V484.889H158.913V483.746H167.333V484.889H163.835V485.346C163.835 487.35 165.4 489.318 167.685 490.109L166.964 491.182C165.206 490.54 163.844 489.23 163.167 487.631C162.499 489.424 161.049 490.874 159.195 491.551L158.474 490.461ZM161.286 498.213V492.043H162.675V493.994H169.97V492.043H171.341V498.213H161.286ZM162.675 497.088H169.97V495.102H162.675V497.088ZM181.44 484.256C181.449 486.462 184.314 488.36 187.135 488.756L186.573 489.881C184.147 489.477 181.739 488.132 180.737 486.216C179.735 488.149 177.336 489.477 174.901 489.881L174.338 488.756C177.16 488.36 180.016 486.497 180.016 484.256V483.359H181.44V484.256ZM173.6 492.764V491.604H187.838V492.764H181.37V498.424H180.016V492.764H173.6ZM201.014 482.744V486.541H203.387V487.684H201.014V491.393H199.643V482.744H201.014ZM188.832 485.328V484.221H192.805V482.639H194.176V484.221H198.148V485.328H188.832ZM189.728 488.598C189.72 487.016 191.214 486.04 193.49 486.031C195.758 486.04 197.234 487.016 197.252 488.598C197.234 490.188 195.758 491.155 193.49 491.164C191.214 491.155 189.72 490.188 189.728 488.598ZM191.047 493.238V492.201H201.014V495.664H192.435V497.193H201.594V498.248H191.082V494.645H199.643V493.238H191.047ZM191.047 488.598C191.038 489.538 192.005 490.127 193.49 490.127C194.967 490.127 195.934 489.538 195.951 488.598C195.934 487.666 194.967 487.06 193.49 487.051C192.005 487.06 191.038 487.666 191.047 488.598ZM215.991 484.256C216 486.462 218.865 488.36 221.686 488.756L221.124 489.881C218.698 489.477 216.29 488.132 215.288 486.216C214.286 488.149 211.886 489.477 209.452 489.881L208.889 488.756C211.711 488.36 214.567 486.497 214.567 484.256V483.359H215.991V484.256ZM208.151 492.764V491.604H222.389V492.764H215.921V498.424H214.567V492.764H208.151ZM232.796 493.291C232.787 494.671 233.535 496.139 235.02 496.982C236.514 496.06 237.305 494.495 237.296 493.291V492.43H238.65V493.291C238.641 494.899 239.827 496.499 241.831 497.193L241.146 498.213C239.581 497.659 238.492 496.569 237.947 495.26C237.463 496.525 236.505 497.729 235.064 498.336C233.543 497.756 232.577 496.613 232.111 495.304C231.548 496.561 230.476 497.65 228.982 498.213L228.279 497.193C230.256 496.455 231.443 494.785 231.46 493.291V492.43H232.796V493.291ZM227.874 487.385C227.866 485.205 229.597 483.72 231.97 483.729C234.343 483.72 236.057 485.205 236.066 487.385C236.057 489.529 234.343 491.006 231.97 491.006C229.597 491.006 227.866 489.529 227.874 487.385ZM229.228 487.385C229.21 488.835 230.362 489.854 231.97 489.863C233.561 489.854 234.712 488.835 234.712 487.385C234.712 485.926 233.561 484.889 231.97 484.906C230.362 484.889 229.21 485.926 229.228 487.385ZM239.036 491.744V482.814H240.408V491.744H239.036ZM245.884 492.184V494.012H253.688V492.184H255.077V498.213H244.512V492.184H245.884ZM242.702 491.076V489.934H256.94V491.076H242.702ZM243.51 487.719C246.297 487.341 249.118 485.697 249.118 483.711V482.973H250.542V483.711C250.533 485.636 253.381 487.367 256.132 487.719L255.622 488.826C253.205 488.466 250.823 487.235 249.83 485.486C248.837 487.244 246.446 488.466 244.038 488.826L243.51 487.719ZM245.884 497.105H253.688V495.102H245.884V497.105ZM270.783 482.797V498.424H269.412V482.797H270.783ZM258.918 494.398V484.344H260.272V493.203C262.662 493.186 265.123 493.001 267.742 492.447L267.936 493.625C265.158 494.205 262.689 494.398 260.184 494.398H258.918ZM285.189 482.797V488.984H287.808V490.145H285.189V498.459H283.818V482.797H285.189ZM273.781 494.539V484.326H281.076V485.469H275.152V493.379C277.982 493.37 279.977 493.247 282.306 492.816L282.482 494.012C280.03 494.451 277.982 494.539 275.011 494.539H273.781ZM289.944 497.105C289.329 497.097 288.802 496.587 288.819 495.963C288.802 495.348 289.329 494.838 289.944 494.838C290.568 494.838 291.078 495.348 291.069 495.963C291.078 496.587 290.568 497.097 289.944 497.105Z" fill="#222222"/>
<circle cx="208" cy="633" r="4" fill="white" stroke="#323C59"/>
<circle cx="225" cy="633" r="4" fill="white" stroke="#323C59"/>
<circle cx="242" cy="633" r="4.5" fill="#323C59"/>
<rect x="20" y="735" width="410" height="56" rx="8" fill="#323C59"/>
<path d="M222.329 754.18V759.375H224.829V760.898H222.329V765.957H220.473V754.18H222.329ZM208.442 764.004C209.8 764.004 211.372 764.004 213.013 763.965V762.783C211.02 762.559 209.751 761.621 209.77 760.215C209.751 758.613 211.421 757.617 213.93 757.637C216.44 757.617 218.081 758.613 218.091 760.215C218.081 761.611 216.841 762.549 214.868 762.783V763.896C216.43 763.818 218.013 763.691 219.477 763.477L219.634 764.805C215.874 765.459 211.723 765.488 208.638 765.488L208.442 764.004ZM208.891 757.051V755.664H213.013V754.023H214.868V755.664H218.989V757.051H208.891ZM210.63 768.223V766.777H222.329V771.66H220.473V768.223H210.63ZM211.528 760.215C211.528 761.035 212.436 761.572 213.93 761.562C215.405 761.572 216.323 761.035 216.313 760.215C216.323 759.375 215.405 758.887 213.93 758.906C212.436 758.887 211.528 759.375 211.528 760.215ZM239.956 754.18V766.895H238.101V754.18H239.956ZM225.796 759.688C225.806 757.158 227.818 755.361 230.464 755.352C233.101 755.361 235.113 757.158 235.113 759.688C235.113 762.256 233.101 764.043 230.464 764.043C227.818 764.043 225.806 762.256 225.796 759.688ZM227.613 759.688C227.603 761.338 228.833 762.422 230.464 762.422C232.066 762.422 233.296 761.338 233.296 759.688C233.296 758.076 232.066 756.973 230.464 756.973C228.833 756.973 227.603 758.076 227.613 759.688ZM228.511 771.289V765.605H230.386V769.785H240.484V771.289H228.511Z" fill="white"/>
<defs>
<clipPath id="clip0_250_1121">
<rect width="140" height="140" fill="white" transform="translate(155 236)"/>
</clipPath>
</defs>
</svg>
