<svg width="450" height="851" viewBox="0 0 450 851" fill="none" xmlns="http://www.w3.org/2000/svg">
<rect width="450" height="851" fill="white"/>
<g clip-path="url(#clip0_233_3159)">
<path d="M36.7992 41.2002L21.1992 56.8002" stroke="#555555" stroke-width="2" stroke-linecap="round" stroke-linejoin="round"/>
<path d="M21.1992 41.2002L36.7992 56.8002" stroke="#555555" stroke-width="2" stroke-linecap="round" stroke-linejoin="round"/>
</g>
<path d="M116.268 106.531C116.246 112.214 114.506 117.252 107.48 120.711L106.363 119.186C109.844 117.478 111.917 115.404 113.056 112.966L106.771 113.557L106.471 111.795L113.689 111.312C113.979 110.323 114.141 109.281 114.216 108.186H107.48V106.531H116.268ZM119.211 123.805V104.576H121.252V112.268H124.238V113.943H121.252V123.805H119.211ZM135.281 106.531C135.26 112.214 133.52 117.252 126.494 120.711L125.377 119.186C128.857 117.478 130.931 115.404 132.069 112.966L125.785 113.557L125.484 111.795L132.703 111.312C132.993 110.323 133.154 109.281 133.229 108.186H126.494V106.531H135.281ZM138.225 123.805V104.576H140.266V112.268H143.252V113.943H140.266V123.805H138.225ZM153.049 105.736C157.163 105.747 160.16 107.777 160.16 110.85C160.16 113.729 157.646 115.651 154.059 115.941V119.723H161.9V121.42H144.283V119.723H152.039V115.941C148.473 115.651 145.948 113.729 145.959 110.85C145.948 107.777 148.956 105.747 153.049 105.736ZM147.936 110.85C147.936 113.009 150.084 114.352 153.049 114.373C156.035 114.352 158.173 113.009 158.184 110.85C158.173 108.766 156.035 107.391 153.049 107.412C150.084 107.391 147.936 108.766 147.936 110.85ZM184.631 104.598V118.584H182.59V104.598H184.631ZM169.055 110.656C169.065 107.874 171.278 105.897 174.189 105.887C177.09 105.897 179.303 107.874 179.303 110.656C179.303 113.481 177.09 115.447 174.189 115.447C171.278 115.447 169.065 113.481 169.055 110.656ZM171.053 110.656C171.042 112.472 172.396 113.664 174.189 113.664C175.951 113.664 177.305 112.472 177.305 110.656C177.305 108.884 175.951 107.67 174.189 107.67C172.396 107.67 171.042 108.884 171.053 110.656ZM172.041 123.418V117.166H174.104V121.764H185.211V123.418H172.041ZM205.234 113.643V115.297H187.682V113.643H205.234ZM188.605 111.021C192.097 110.646 194.857 109.077 195.083 107.197H189.293V105.521H203.666V107.197H197.812C198.048 109.066 200.766 110.646 204.332 111.021L203.602 112.633C200.261 112.246 197.5 110.839 196.458 108.809C195.395 110.839 192.655 112.246 189.314 112.633L188.605 111.021ZM189.766 120.303C189.766 118.068 192.269 116.779 196.447 116.779C200.594 116.779 203.075 118.068 203.086 120.303C203.075 122.537 200.594 123.794 196.447 123.783C192.269 123.794 189.766 122.537 189.766 120.303ZM191.828 120.303C191.817 121.517 193.504 122.183 196.447 122.172C199.348 122.183 201.045 121.517 201.045 120.303C201.045 119.057 199.348 118.391 196.447 118.369C193.504 118.391 191.817 119.057 191.828 120.303ZM213.635 109.475C213.635 112.998 215.611 116.511 218.555 117.832L217.309 119.465C215.128 118.369 213.474 116.199 212.625 113.567C211.776 116.339 210.101 118.681 207.877 119.83L206.588 118.176C209.574 116.747 211.562 113.041 211.572 109.475V106.188H213.635V109.475ZM216.428 112.633V110.979H220.725V104.576H222.744V123.869H220.725V112.633H216.428ZM243.326 119.809V121.527H225.709V119.809H233.465V116.436H227.857V110.312H239.158V107.605H227.814V105.93H241.178V111.945H229.877V114.76H241.629V116.436H235.484V119.809H243.326ZM266.057 104.598V118.584H264.016V104.598H266.057ZM250.48 110.656C250.491 107.874 252.704 105.897 255.615 105.887C258.516 105.897 260.729 107.874 260.729 110.656C260.729 113.481 258.516 115.447 255.615 115.447C252.704 115.447 250.491 113.481 250.48 110.656ZM252.479 110.656C252.468 112.472 253.821 113.664 255.615 113.664C257.377 113.664 258.73 112.472 258.73 110.656C258.73 108.884 257.377 107.67 255.615 107.67C253.821 107.67 252.468 108.884 252.479 110.656ZM253.467 123.418V117.166H255.529V121.764H266.637V123.418H253.467ZM286.66 113.643V115.297H269.107V113.643H286.66ZM270.031 111.021C273.522 110.646 276.283 109.077 276.509 107.197H270.719V105.521H285.092V107.197H279.237C279.474 109.066 282.191 110.646 285.758 111.021L285.027 112.633C281.687 112.246 278.926 110.839 277.884 108.809C276.82 110.839 274.081 112.246 270.74 112.633L270.031 111.021ZM271.191 120.303C271.191 118.068 273.694 116.779 277.873 116.779C282.02 116.779 284.501 118.068 284.512 120.303C284.501 122.537 282.02 123.794 277.873 123.783C273.694 123.794 271.191 122.537 271.191 120.303ZM273.254 120.303C273.243 121.517 274.93 122.183 277.873 122.172C280.773 122.183 282.471 121.517 282.471 120.303C282.471 119.057 280.773 118.391 277.873 118.369C274.93 118.391 273.243 119.057 273.254 120.303ZM303.246 104.576V109.41H306.039V111.129H303.246V115.791H301.205V104.576H303.246ZM288.143 108.1V106.467H292.869V104.404H294.91V106.467H299.615V108.1H288.143ZM289.195 112.268C289.185 110.216 291.075 108.884 293.879 108.895C296.65 108.884 298.541 110.216 298.541 112.268C298.541 114.319 296.65 115.662 293.879 115.641C291.075 115.662 289.185 114.319 289.195 112.268ZM290.936 123.59V116.586H292.955V118.455H301.205V116.586H303.246V123.59H290.936ZM291.172 112.268C291.15 113.417 292.246 114.126 293.879 114.137C295.512 114.126 296.607 113.417 296.629 112.268C296.607 111.14 295.512 110.409 293.879 110.42C292.246 110.409 291.15 111.14 291.172 112.268ZM292.955 121.957H301.205V120.045H292.955V121.957ZM323.119 104.576V123.826H321.078V104.576H323.119ZM308.316 118.928V106.445H310.336V117.166C313.15 117.155 316.104 116.908 319.188 116.285L319.467 118.004C316.062 118.702 312.968 118.938 309.928 118.928H308.316ZM341.145 104.576V112.031H344.238V113.707H341.145V123.869H339.104V104.576H341.145ZM326.965 119.078V106.424H335.967V108.078H329.006V117.381C332.239 117.37 334.656 117.23 337.406 116.736L337.664 118.455C334.646 118.992 332.089 119.089 328.512 119.078H326.965Z" fill="#222222"/>
<rect width="410" height="290" transform="translate(20 171)" fill="#FAFAFA"/>
<rect width="45" height="45" transform="translate(40 191)" fill="white"/>
<path d="M64.1838 221.076L64.1437 219.318C57.2994 219.3 54.3 215.015 54.2733 211.539C54.2466 208.874 56.0801 206.048 59.1195 206.021C61.6828 205.999 62.9644 208.024 62.9644 208.024C62.9644 208.024 64.0369 205.963 66.8806 205.937C68.9054 205.919 71.6333 207.623 71.6689 211.57C71.7 215.282 69.0255 219.349 64.1882 221.076M62.8665 197.001C53.5791 197.081 45.9249 203.876 46.0006 212.638C46.0362 217.013 48.2924 221.481 52.3064 224.427L51.2651 229.469C70.859 235.121 80.0752 220.876 79.9995 212.376C79.9283 203.711 72.3186 196.921 62.8665 197.001Z" fill="#EF403C"/>
<path d="M64.3452 227.796L64.185 221.076C61.2301 222.131 57.4697 222.313 53.0196 221.009L52.312 224.427C55.3693 226.67 59.4411 228.032 64.3452 227.796Z" fill="#850E11"/>
<path d="M110.797 207.406V208.484C110.805 209.531 110.805 210.75 110.492 212.328H112.375V213.734H106.766V215.938H110.828V220.891H109.094V217.328H100.781V215.938H105.031V213.734H99.4688V212.328H108.75C109.031 210.875 109.062 209.773 109.062 208.797H101.062V207.406H110.797ZM120.828 207.938V214.656H114.016V207.938H120.828ZM115.719 220.516V215.906H117.469V219.109H125.453V220.516H115.719ZM115.734 213.266H119.109V209.328H115.734V213.266ZM123.312 216.859V206.781H125.062V216.859H123.312ZM138.953 206.781V217.141H137.219V212.391H134.5V210.953H137.219V206.781H138.953ZM127.312 214.266C130.352 213.305 132.359 211.5 132.695 209.266H128.047V207.844H134.594C134.594 211.57 132.133 214.352 128.047 215.656L127.312 214.266ZM129.75 220.609V216.094H131.516V219.203H139.312V220.609H129.75ZM152.094 206.766V210.203H154.062V211.625H152.094V215.047H150.359V206.766H152.094ZM140.906 213.859C144.102 212.984 146.008 211.258 146.305 209.141H141.547V207.734H148.188C148.195 211.445 145.773 214.086 141.594 215.266L140.906 213.859ZM142.812 218.047C142.797 216.305 144.688 215.219 147.531 215.219C150.398 215.219 152.25 216.305 152.25 218.047C152.25 219.805 150.398 220.883 147.531 220.875C144.688 220.883 142.797 219.805 142.812 218.047ZM144.531 218.047C144.523 218.969 145.664 219.516 147.531 219.516C149.391 219.516 150.539 218.969 150.547 218.047C150.539 217.117 149.391 216.578 147.531 216.578C145.664 216.578 144.523 217.117 144.531 218.047ZM167.688 217.766V219.188H154.781V217.766H160.344V215.016H156.203V207.703H157.938V210.016H164.484V207.703H166.219V215.016H162.062V217.766H167.688ZM157.938 213.609H164.484V211.406H157.938V213.609ZM180.438 206.766V215.312H178.703V212.391H176.688V210.953H178.703V206.766H180.438ZM168.641 209.484V208.078H171.922V206.656H173.641V208.078H176.922V209.484H168.641ZM169.438 212.562C169.43 211.078 170.828 210.031 172.781 210.031C174.75 210.031 176.133 211.078 176.141 212.562C176.133 214.086 174.75 215.094 172.781 215.094C170.828 215.094 169.43 214.086 169.438 212.562ZM171.047 220.719V215.953H180.438V220.719H171.047ZM171.094 212.562C171.094 213.344 171.766 213.797 172.781 213.797C173.789 213.797 174.469 213.344 174.469 212.562C174.469 211.805 173.789 211.344 172.781 211.344C171.766 211.344 171.094 211.805 171.094 212.562ZM172.781 219.312H178.734V217.328H172.781V219.312ZM188.797 215.594C191.867 215.602 193.805 216.57 193.812 218.25C193.805 219.891 191.867 220.875 188.797 220.875C185.758 220.875 183.797 219.891 183.797 218.25C183.797 216.57 185.758 215.602 188.797 215.594ZM182.469 214.578V213.172H187.438V210.609H189.156V213.172H195.281V214.578H182.469ZM183.938 208.812V207.438H193.719V208.609C193.727 209.727 193.727 210.914 193.328 212.359L191.609 212.203C191.961 210.836 191.984 209.836 191.984 208.812H183.938ZM185.547 218.25C185.531 219.078 186.758 219.531 188.797 219.531C190.844 219.531 192.078 219.078 192.094 218.25C192.078 217.391 190.844 216.906 188.797 216.906C186.758 216.906 185.531 217.391 185.547 218.25ZM207.406 206.766V210.734H209.391V212.172H207.406V216.984H205.672V206.766H207.406ZM196.859 214.594V207.938H203.188V209.328H198.578V213.172C201.234 213.172 202.711 213.086 204.391 212.734L204.578 214.141C202.727 214.508 201.086 214.594 198 214.594H196.859ZM198.359 220.609V215.906H200.094V219.203H207.969V220.609H198.359Z" fill="#222222"/>
<rect x="40" y="256" width="370" height="1" fill="#EAEAEA"/>
<path d="M52.4951 288.447V289.604H40.4834V288.447H43.3545V285.02C42.2778 284.426 41.6187 283.489 41.626 282.31C41.6187 280.244 43.6475 278.889 46.46 278.882C49.2798 278.889 51.3086 280.244 51.3086 282.31C51.3086 283.467 50.6787 284.397 49.624 284.99V288.447H52.4951ZM42.9736 282.31C42.9736 283.716 44.4019 284.631 46.46 284.639C48.5034 284.631 49.9536 283.716 49.9609 282.31C49.9536 280.896 48.5034 279.995 46.46 279.995C44.4019 279.995 42.9736 280.896 42.9736 282.31ZM44.7314 288.447H48.2178V285.532C47.6831 285.657 47.0898 285.723 46.46 285.723C45.8447 285.723 45.2588 285.657 44.7314 285.532V288.447ZM58.0469 280.918C58.0469 282.463 59.314 283.906 61.3135 284.463L60.6543 285.547C59.1309 285.115 57.9883 284.177 57.3877 282.961C56.8164 284.316 55.6738 285.393 54.1064 285.884L53.4473 284.814C55.4395 284.177 56.6699 282.61 56.6699 280.918V280.757H53.8135V279.644H56.6699V278.062H58.0615V279.644H60.9033V280.757H58.0469V280.918ZM55.5566 288.784C55.5493 287.246 57.2412 286.375 59.9951 286.367C62.7417 286.375 64.4263 287.246 64.4336 288.784C64.4263 290.33 62.7417 291.223 59.9951 291.216C57.2412 291.223 55.5493 290.33 55.5566 288.784ZM56.9336 288.784C56.9263 289.634 58.0688 290.139 59.9951 290.146C61.9214 290.139 63.0493 289.634 63.0566 288.784C63.0493 287.935 61.9214 287.451 59.9951 287.451C58.0688 287.451 56.9263 287.935 56.9336 288.784ZM60.4932 282.939V281.797H62.998V278.12H64.3896V286.074H62.998V282.939H60.4932ZM76.8555 278.94V280.098C76.8555 281.343 76.8555 282.698 76.4893 284.565H78.3789V285.708H73.0615V291.26H71.6553V285.708H66.4111V284.565H75.083C75.4712 282.69 75.4712 281.321 75.4785 280.098V280.083H67.876V278.94H76.8555ZM91.3721 284.99V286.104H86.1572V288.521H84.7803V286.104H79.3604V284.99H91.3721ZM80.8545 290.967V287.378H82.2314V289.839H90.0391V290.967H80.8545ZM80.9424 283.833V278.53H82.3193V280.127H88.3984V278.53H89.79V283.833H80.9424ZM82.3193 282.72H88.3984V281.167H82.3193V282.72Z" fill="#818181"/>
<path d="M135.323 278.179V287.803H134.166V283.159H131.28V282.192H134.166V278.179H135.323ZM124.732 285.356C127.728 284.368 129.815 282.493 130.079 280.142H125.392V279.175H131.339C131.324 282.522 128.929 285.071 125.23 286.279L124.732 285.356ZM127.032 290.908V286.821H128.204V289.941H135.66V290.908H127.032ZM147.672 278.164V281.562H149.635V282.515H147.672V285.986H146.529V278.164H147.672ZM137.506 285.063C140.648 284.155 142.655 282.346 142.889 280.083H138.077V279.131H144.127C144.12 282.449 141.783 284.88 137.989 286.001L137.506 285.063ZM139.293 288.638C139.286 287.078 140.963 286.125 143.556 286.133C146.17 286.125 147.818 287.078 147.818 288.638C147.818 290.22 146.17 291.157 143.556 291.157C140.963 291.157 139.286 290.22 139.293 288.638ZM140.436 288.638C140.421 289.619 141.644 290.242 143.556 290.234C145.467 290.242 146.705 289.619 146.705 288.638C146.705 287.656 145.467 287.048 143.556 287.056C141.644 287.048 140.421 287.656 140.436 288.638ZM162.379 288.564V289.517H150.455V288.564H155.816V285.752H151.861V279.087H153.019V281.445H159.786V279.087H160.914V285.752H156.944V288.564H162.379ZM153.019 284.814H159.786V282.383H153.019V284.814ZM174.215 278.164V286.06H173.058V283.086H170.846V282.134H173.058V278.164H174.215ZM163.434 280.479V279.541H166.671V278.047H167.799V279.541H171.036V280.479H163.434ZM164.21 283.467C164.21 282.104 165.462 281.152 167.228 281.152C169 281.152 170.245 282.104 170.26 283.467C170.245 284.873 169 285.796 167.228 285.796C165.462 285.796 164.21 284.873 164.21 283.467ZM165.309 283.467C165.309 284.331 166.092 284.902 167.228 284.917C168.363 284.902 169.146 284.331 169.146 283.467C169.146 282.632 168.363 282.046 167.228 282.046C166.092 282.046 165.309 282.632 165.309 283.467ZM165.704 291.011V286.763H174.215V291.011H165.704ZM166.847 290.073H173.087V287.686H166.847V290.073ZM182.271 286.396C185.062 286.396 186.834 287.275 186.842 288.784C186.834 290.278 185.062 291.157 182.271 291.157C179.481 291.157 177.708 290.278 177.716 288.784C177.708 287.275 179.481 286.396 182.271 286.396ZM176.397 285.181V284.243H181.305V281.724H182.433V284.243H188.248V285.181H176.397ZM177.804 279.775V278.838H186.739V279.937C186.732 280.991 186.732 282.046 186.373 283.394L185.245 283.262C185.597 281.921 185.597 280.955 185.597 279.937V279.775H177.804ZM178.858 288.784C178.851 289.692 180.199 290.249 182.271 290.249C184.352 290.249 185.685 289.692 185.699 288.784C185.685 287.854 184.352 287.283 182.271 287.275C180.199 287.283 178.851 287.854 178.858 288.784ZM199.527 278.164V282.046H201.505V283.013H199.527V287.598H198.385V278.164H199.527ZM189.962 285.283V279.292H195.763V280.259H191.104V284.316C193.719 284.324 195.206 284.243 196.949 283.892L197.096 284.844C195.265 285.195 193.712 285.283 190.973 285.283H189.962ZM191.383 290.908V286.646H192.511V289.941H200.128V290.908H191.383ZM216.256 278.164V282.134H218.219V283.101H216.256V287.7H215.099V278.164H216.256ZM206.09 285.269C209.217 284.294 211.246 282.441 211.488 280.142H206.632V279.175H212.74C212.74 282.529 210.345 285.02 206.588 286.191L206.09 285.269ZM208.097 290.908V286.733H209.239V289.941H216.856V290.908H208.097ZM229.835 278.164V287.861H228.678V284.082H226.451V283.115H228.678V281.606H226.451V280.654H228.678V278.164H229.835ZM219.068 284.902C219.588 284.902 220.152 284.895 220.753 284.888V280.171H219.435V279.233H226.349V280.171H225.016V284.734C225.616 284.697 226.209 284.646 226.773 284.58L226.832 285.444C224.305 285.833 221.332 285.876 219.215 285.884L219.068 284.902ZM221.441 290.908V287.056H222.599V289.941H230.187V290.908H221.441ZM221.866 284.866C222.533 284.851 223.221 284.829 223.902 284.8V280.171H221.866V284.866ZM242.755 278.179V287.7H241.612V278.179H242.755ZM232.311 282.28C232.303 280.405 233.775 279.094 235.724 279.087C237.672 279.094 239.129 280.405 239.137 282.28C239.129 284.177 237.672 285.496 235.724 285.488C233.775 285.496 232.303 284.177 232.311 282.28ZM233.438 282.28C233.424 283.577 234.405 284.478 235.724 284.478C237.02 284.478 238.009 283.577 238.009 282.28C238.009 281.006 237.02 280.098 235.724 280.098C234.405 280.098 233.424 281.006 233.438 282.28ZM234.347 290.908V286.733H235.489V289.941H243.165V290.908H234.347ZM256.832 284.36V285.312H244.967V284.36H256.832ZM245.641 282.661C247.911 282.397 250.101 281.277 250.152 279.79H246.051V278.838H255.777V279.79H251.646C251.698 281.262 253.866 282.397 256.173 282.661L255.748 283.584C253.617 283.313 251.617 282.354 250.899 280.911C250.182 282.354 248.197 283.313 246.051 283.584L245.641 282.661ZM246.402 288.813C246.395 287.319 248.087 286.455 250.899 286.455C253.69 286.455 255.367 287.319 255.382 288.813C255.367 290.322 253.69 291.157 250.899 291.157C248.087 291.157 246.395 290.322 246.402 288.813ZM247.574 288.813C247.56 289.722 248.812 290.242 250.899 290.234C252.965 290.242 254.217 289.722 254.225 288.813C254.217 287.898 252.965 287.378 250.899 287.363C248.812 287.378 247.56 287.898 247.574 288.813Z" fill="#222222"/>
<path d="M50.7959 309.12V312.226H52.7002V313.383H50.7959V316.781H49.4043V309.12H50.7959ZM40.9961 316.02V309.867H42.3584V311.771H45.8008V309.867H47.1777V316.02H40.9961ZM42.3584 314.921H45.8008V312.87H42.3584V314.921ZM42.4316 322.055V317.47H50.8984V318.583H43.8232V320.956H51.1328V322.055H42.4316ZM64.0674 312.958V314.071H55.0293V309.589H56.4062V312.958H64.0674ZM53.4326 316.84V315.727H65.4443V316.84H53.4326ZM54.9268 321.938V318.085H56.3184V320.795H64.1553V321.938H54.9268ZM77.2803 309.12V322.274H75.8887V309.12H77.2803ZM66.8652 314.701C66.8652 311.896 68.2788 310.109 70.2637 310.102C72.2119 310.109 73.6475 311.896 73.6475 314.701C73.6475 317.536 72.2119 319.323 70.2637 319.315C68.2788 319.323 66.8652 317.536 66.8652 314.701ZM68.2129 314.701C68.2056 316.789 69.0405 318.07 70.2637 318.07C71.4648 318.07 72.2998 316.789 72.2998 314.701C72.2998 312.643 71.4648 311.354 70.2637 311.347C69.0405 311.354 68.2056 312.643 68.2129 314.701Z" fill="#818181"/>
<path d="M131.397 310.014C131.397 313.302 128.98 315.646 125.143 316.664L124.674 315.756C127.889 314.906 129.925 313.178 130.174 310.951H125.362V310.014H131.397ZM126.812 322.011V317.162H135.279V322.011H126.812ZM127.94 321.073H134.151V318.085H127.94V321.073ZM134.137 316.532V309.179H135.279V316.532H134.137ZM139.073 310.409V313.588H141.9V310.409H142.97V318.935H137.975V310.409H139.073ZM139.073 317.982H141.9V314.525H139.073V317.982ZM144.625 321.527V309.442H145.724V314.335H147.54V309.164H148.653V322.187H147.54V315.287H145.724V321.527H144.625ZM156.388 309.413C159.222 309.42 160.98 310.321 160.987 311.874C160.98 313.397 159.222 314.298 156.388 314.291C153.553 314.298 151.773 313.397 151.773 311.874C151.773 310.321 153.553 309.42 156.388 309.413ZM150.455 316.239V315.287H162.32V316.239H156.944V317.733H160.87V322.011H151.905V317.733H155.816V316.239H150.455ZM152.96 311.874C152.953 312.826 154.278 313.383 156.388 313.383C158.475 313.383 159.808 312.826 159.815 311.874C159.808 310.9 158.475 310.321 156.388 310.321C154.278 310.321 152.953 310.9 152.96 311.874ZM153.048 321.073H159.742V318.656H153.048V321.073Z" fill="#222222"/>
<path d="M52.4805 347.532V348.675H49.4336V353.245H48.0273V348.675H44.8926V353.245H43.457V348.675H40.4688V347.532H52.4805ZM41.7725 343.519C41.7798 341.746 43.6694 340.618 46.4453 340.618C49.2212 340.618 51.1255 341.746 51.1182 343.519C51.1255 345.269 49.2212 346.375 46.4453 346.36C43.6694 346.375 41.7798 345.269 41.7725 343.519ZM43.208 343.519C43.2007 344.595 44.4971 345.262 46.4453 345.262C48.4009 345.262 49.6899 344.595 49.6973 343.519C49.6899 342.413 48.4009 341.739 46.4453 341.731C44.4971 341.739 43.2007 342.413 43.208 343.519ZM64.8145 341.98V343.108H54.0186V341.98H58.7354V340.311H60.1123V341.98H64.8145ZM53.4473 351.795V350.667H56.5234V348.323C55.5713 347.906 55.0366 347.232 55.0439 346.346C55.0366 344.778 56.7139 343.855 59.4238 343.87C62.1118 343.855 63.7964 344.778 63.7891 346.346C63.7964 347.232 63.2617 347.906 62.3096 348.323V350.667H65.459V351.795H53.4473ZM56.4648 346.346C56.4502 347.232 57.5488 347.737 59.4238 347.737C61.2695 347.737 62.3755 347.232 62.3682 346.346C62.3755 345.452 61.2695 344.947 59.4238 344.939C57.5488 344.947 56.4502 345.452 56.4648 346.346ZM57.915 350.667H60.9473V348.711C60.4858 348.785 59.9731 348.821 59.4238 348.821C58.8745 348.821 58.3691 348.785 57.915 348.711V350.667ZM70.1318 340.56C72.1094 340.574 73.5669 341.783 73.5742 343.504C73.5669 345.232 72.1094 346.434 70.1318 346.434C68.1323 346.434 66.6821 345.232 66.6748 343.504C66.6821 341.783 68.1323 340.574 70.1318 340.56ZM68.0371 343.504C68.0298 344.588 68.9233 345.306 70.1318 345.306C71.333 345.306 72.2266 344.588 72.2266 343.504C72.2266 342.435 71.333 341.717 70.1318 341.731C68.9233 341.717 68.0298 342.435 68.0371 343.504ZM68.667 348.514V347.4H77.2949V350.711H70.0586V351.971H77.7344V353.084H68.7109V349.671H75.918V348.514H68.667ZM75.9033 346.8V340.12H77.2949V346.8H75.9033ZM84.1943 343.46C84.1797 345.855 85.6299 348.272 87.666 349.173L86.8311 350.271C85.3223 349.554 84.1284 348.082 83.5132 346.287C82.9053 348.213 81.6968 349.795 80.1221 350.564L79.2725 349.393C81.3379 348.477 82.7881 345.965 82.7881 343.46V341.219H84.1943V343.46ZM88.8525 353.274V340.12H90.2441V353.274H88.8525Z" fill="#818181"/>
<path d="M124.996 352L124.981 351.033L128.6 347.225C129.852 345.892 130.453 345.174 130.46 344.192C130.453 343.101 129.544 342.398 128.351 342.391C127.083 342.398 126.292 343.196 126.285 344.383H125.04C125.025 342.508 126.476 341.248 128.395 341.248C130.321 341.248 131.683 342.544 131.69 344.192C131.683 345.379 131.134 346.302 129.259 348.235L126.827 350.74V350.828H131.881V352H124.996ZM137.271 352.146C134.92 352.146 133.558 350.169 133.565 346.697C133.558 343.255 134.935 341.248 137.271 341.248C139.601 341.248 140.978 343.255 140.978 346.697C140.978 350.169 139.623 352.146 137.271 352.146ZM134.84 346.697C134.847 349.444 135.733 350.975 137.271 350.975C138.802 350.975 139.696 349.444 139.688 346.697C139.696 343.951 138.795 342.398 137.271 342.391C135.748 342.398 134.847 343.951 134.84 346.697ZM142.735 352L142.721 351.033L146.339 347.225C147.591 345.892 148.192 345.174 148.199 344.192C148.192 343.101 147.284 342.398 146.09 342.391C144.823 342.398 144.032 343.196 144.024 344.383H142.779C142.765 342.508 144.215 341.248 146.134 341.248C148.06 341.248 149.422 342.544 149.43 344.192C149.422 345.379 148.873 346.302 146.998 348.235L144.566 350.74V350.828H149.62V352H142.735ZM151.041 349.832V348.748L155.816 341.395H157.442V348.675H158.922V349.832H157.442V352H156.183V349.832H151.041ZM152.462 348.675H156.183V343.064H156.051L152.462 348.587V348.675ZM161.09 352.088C160.577 352.081 160.138 351.656 160.152 351.136C160.138 350.623 160.577 350.198 161.09 350.198C161.61 350.198 162.035 350.623 162.027 351.136C162.035 351.656 161.61 352.081 161.09 352.088ZM167.081 352.146C164.73 352.146 163.368 350.169 163.375 346.697C163.368 343.255 164.745 341.248 167.081 341.248C169.41 341.248 170.787 343.255 170.787 346.697C170.787 350.169 169.432 352.146 167.081 352.146ZM164.649 346.697C164.657 349.444 165.543 350.975 167.081 350.975C168.612 350.975 169.505 349.444 169.498 346.697C169.505 343.951 168.604 342.398 167.081 342.391C165.558 342.398 164.657 343.951 164.649 346.697ZM172.589 352L177.452 342.64V342.566H171.842V341.395H178.814V342.625L173.966 352H172.589ZM179.605 352.088C179.093 352.081 178.653 351.656 178.668 351.136C178.653 350.623 179.093 350.198 179.605 350.198C180.125 350.198 180.55 350.623 180.543 351.136C180.55 351.656 180.125 352.081 179.605 352.088ZM185.597 352.146C183.246 352.146 181.883 350.169 181.891 346.697C181.883 343.255 183.26 341.248 185.597 341.248C187.926 341.248 189.303 343.255 189.303 346.697C189.303 350.169 187.948 352.146 185.597 352.146ZM183.165 346.697C183.172 349.444 184.059 350.975 185.597 350.975C187.127 350.975 188.021 349.444 188.014 346.697C188.021 343.951 187.12 342.398 185.597 342.391C184.073 342.398 183.172 343.951 183.165 346.697ZM194.605 352.146C192.372 352.146 190.833 350.909 190.841 349.188C190.833 347.818 191.786 346.683 192.994 346.492V346.434C191.939 346.192 191.244 345.218 191.251 344.061C191.244 342.442 192.665 341.248 194.605 341.248C196.539 341.248 197.96 342.442 197.975 344.061C197.96 345.218 197.257 346.192 196.217 346.434V346.492C197.418 346.683 198.37 347.818 198.385 349.188C198.37 350.909 196.817 352.146 194.605 352.146ZM192.159 349.114C192.137 350.228 193.082 350.982 194.605 350.989C196.122 350.982 197.066 350.228 197.066 349.114C197.066 347.942 196.034 347.078 194.605 347.078C193.185 347.078 192.137 347.942 192.159 349.114ZM192.525 344.163C192.533 345.232 193.39 345.958 194.605 345.965C195.814 345.958 196.686 345.232 196.686 344.163C196.686 343.101 195.843 342.383 194.605 342.391C193.346 342.383 192.533 343.101 192.525 344.163ZM207.672 341.395V352H206.339V342.771H206.28L203.702 344.485V343.152L206.339 341.395H207.672ZM214.161 352.146C212.052 352.146 210.536 351.019 210.47 349.334H211.803C211.876 350.345 212.879 350.975 214.146 350.975C215.545 350.975 216.556 350.22 216.563 349.114C216.556 347.957 215.633 347.144 213.985 347.137H213.121V345.979H213.985C215.274 345.979 216.175 345.254 216.168 344.163C216.175 343.101 215.399 342.398 214.19 342.391C213.055 342.398 212.022 343.021 211.964 344.061H210.689C210.755 342.376 212.323 341.248 214.205 341.248C216.227 341.248 217.457 342.574 217.442 344.09C217.457 345.298 216.754 346.177 215.641 346.492V346.565C217.025 346.778 217.86 347.767 217.853 349.114C217.86 350.857 216.278 352.146 214.161 352.146ZM220.665 350.594C220.152 350.586 219.713 350.162 219.728 349.642C219.713 349.129 220.152 348.704 220.665 348.704C221.185 348.704 221.61 349.129 221.603 349.642C221.61 350.162 221.185 350.586 220.665 350.594ZM219.728 343.753C219.713 343.24 220.152 342.815 220.665 342.815C221.185 342.815 221.61 343.24 221.603 343.753C221.61 344.273 221.185 344.698 220.665 344.705C220.152 344.698 219.713 344.273 219.728 343.753ZM227.315 341.395V352H225.982V342.771H225.924L223.346 344.485V343.152L225.982 341.395H227.315ZM233.688 352.146C231.454 352.146 229.916 350.909 229.923 349.188C229.916 347.818 230.868 346.683 232.076 346.492V346.434C231.021 346.192 230.326 345.218 230.333 344.061C230.326 342.442 231.747 341.248 233.688 341.248C235.621 341.248 237.042 342.442 237.057 344.061C237.042 345.218 236.339 346.192 235.299 346.434V346.492C236.5 346.683 237.452 347.818 237.467 349.188C237.452 350.909 235.899 352.146 233.688 352.146ZM231.241 349.114C231.219 350.228 232.164 350.982 233.688 350.989C235.204 350.982 236.148 350.228 236.148 349.114C236.148 347.942 235.116 347.078 233.688 347.078C232.267 347.078 231.219 347.942 231.241 349.114ZM231.607 344.163C231.615 345.232 232.472 345.958 233.688 345.965C234.896 345.958 235.768 345.232 235.768 344.163C235.768 343.101 234.925 342.383 233.688 342.391C232.428 342.383 231.615 343.101 231.607 344.163ZM240.147 350.594C239.635 350.586 239.195 350.162 239.21 349.642C239.195 349.129 239.635 348.704 240.147 348.704C240.667 348.704 241.092 349.129 241.085 349.642C241.092 350.162 240.667 350.586 240.147 350.594ZM239.21 343.753C239.195 343.24 239.635 342.815 240.147 342.815C240.667 342.815 241.092 343.24 241.085 343.753C241.092 344.273 240.667 344.698 240.147 344.705C239.635 344.698 239.195 344.273 239.21 343.753ZM242.784 349.832V348.748L247.56 341.395H249.186V348.675H250.665V349.832H249.186V352H247.926V349.832H242.784ZM244.205 348.675H247.926V343.064H247.794L244.205 348.587V348.675ZM256.012 341.395V352H254.679V342.771H254.62L252.042 344.485V343.152L254.679 341.395H256.012Z" fill="#222222"/>
<rect x="40" y="374" width="370" height="1" fill="#EAEAEA"/>
<path d="M50.8838 396.809V397.746C50.8838 398.713 50.8838 399.885 50.5615 401.452H52.4512V402.39H47.0312V404.792H50.9717V409.187H49.8145V405.744H41.7578V404.792H45.8887V402.39H40.5273V401.452H49.4043C49.7485 399.863 49.7485 398.713 49.7412 397.746H42.0361V396.809H50.8838ZM60.2881 397.307V403.342H54.1797V397.307H60.2881ZM55.3076 402.419H59.1602V398.259H55.3076V402.419ZM55.835 408.747V404.631H56.9775V407.795H64.6533V408.747H55.835ZM63.1006 405.539V396.179H64.2432V405.539H63.1006ZM77.251 396.179V405.803H76.0938V401.159H73.208V400.192H76.0938V396.179H77.251ZM66.6602 403.356C69.6558 402.368 71.7432 400.493 72.0068 398.142H67.3193V397.175H73.2666C73.252 400.522 70.8569 403.071 67.1582 404.279L66.6602 403.356ZM68.96 408.908V404.821H70.1318V407.941H77.5879V408.908H68.96ZM89.5996 396.164V399.562H91.5625V400.515H89.5996V403.986H88.457V396.164H89.5996ZM79.4336 403.063C82.5757 402.155 84.5825 400.346 84.8169 398.083H80.0049V397.131H86.0547C86.0474 400.449 83.7109 402.88 79.917 404.001L79.4336 403.063ZM81.2207 406.638C81.2134 405.078 82.8906 404.125 85.4834 404.133C88.0981 404.125 89.7461 405.078 89.7461 406.638C89.7461 408.22 88.0981 409.157 85.4834 409.157C82.8906 409.157 81.2134 408.22 81.2207 406.638ZM82.3633 406.638C82.3486 407.619 83.5718 408.242 85.4834 408.234C87.395 408.242 88.6328 407.619 88.6328 406.638C88.6328 405.656 87.395 405.048 85.4834 405.056C83.5718 405.048 82.3486 405.656 82.3633 406.638ZM104.307 406.564V407.517H92.3828V406.564H97.7441V403.752H93.7891V397.087H94.9463V399.445H101.714V397.087H102.842V403.752H98.8721V406.564H104.307ZM94.9463 402.814H101.714V400.383H94.9463V402.814ZM116.143 396.164V404.06H114.985V401.086H112.773V400.134H114.985V396.164H116.143ZM105.361 398.479V397.541H108.599V396.047H109.727V397.541H112.964V398.479H105.361ZM106.138 401.467C106.138 400.104 107.39 399.152 109.155 399.152C110.928 399.152 112.173 400.104 112.188 401.467C112.173 402.873 110.928 403.796 109.155 403.796C107.39 403.796 106.138 402.873 106.138 401.467ZM107.236 401.467C107.236 402.331 108.02 402.902 109.155 402.917C110.291 402.902 111.074 402.331 111.074 401.467C111.074 400.632 110.291 400.046 109.155 400.046C108.02 400.046 107.236 400.632 107.236 401.467ZM107.632 409.011V404.763H116.143V409.011H107.632ZM108.774 408.073H115.015V405.686H108.774V408.073ZM124.199 404.396C126.99 404.396 128.762 405.275 128.77 406.784C128.762 408.278 126.99 409.157 124.199 409.157C121.409 409.157 119.636 408.278 119.644 406.784C119.636 405.275 121.409 404.396 124.199 404.396ZM118.325 403.181V402.243H123.232V399.724H124.36V402.243H130.176V403.181H118.325ZM119.731 397.775V396.838H128.667V397.937C128.66 398.991 128.66 400.046 128.301 401.394L127.173 401.262C127.524 399.921 127.524 398.955 127.524 397.937V397.775H119.731ZM120.786 406.784C120.779 407.692 122.126 408.249 124.199 408.249C126.279 408.249 127.612 407.692 127.627 406.784C127.612 405.854 126.279 405.283 124.199 405.275C122.126 405.283 120.779 405.854 120.786 406.784ZM141.455 396.164V400.046H143.433V401.013H141.455V405.598H140.312V396.164H141.455ZM131.89 403.283V397.292H137.69V398.259H133.032V402.316C135.647 402.324 137.134 402.243 138.877 401.892L139.023 402.844C137.192 403.195 135.64 403.283 132.9 403.283H131.89ZM133.311 408.908V404.646H134.438V407.941H142.056V408.908H133.311ZM158.447 397.482V398.786C158.433 400.383 158.433 402.17 157.964 404.792L156.792 404.66C157.283 402.17 157.283 400.346 157.29 398.786V398.435H149.263V397.482H158.447ZM148.003 407.341V406.389H152.661V401.73H153.789V406.389H159.868V407.341H148.003ZM172.026 396.179V403.854H170.928V400.412H169.155V403.767H168.057V396.428H169.155V399.46H170.928V396.179H172.026ZM161.04 403.137C163.743 402.038 165.273 400.273 165.493 398.083H161.567V397.131H166.68C166.672 400.244 164.915 402.595 161.611 404.001L161.04 403.137ZM163.237 405.393V404.455H172.026V409.187H170.898V405.393H163.237ZM184.99 396.164V405.935H183.892V396.164H184.99ZM173.975 403.166C175.652 402.375 176.677 400.573 176.67 399.035V397.087H177.783V399.035C177.783 400.559 178.735 402.126 180.391 402.829L179.746 403.737C178.545 403.188 177.688 402.185 177.241 401.005C176.78 402.302 175.864 403.452 174.619 404.06L173.975 403.166ZM176.45 408.908V404.733H177.593V407.941H185.386V408.908H176.45ZM179.263 400.427V399.475H181.313V396.428H182.427V405.568H181.313V400.427H179.263ZM197.69 396.164V409.216H196.548V402.038H193.794V401.086H196.548V396.164H197.69ZM187.495 406.066V397.365H193.574V398.317H188.652V401.027H193.003V401.965H188.652V405.114C191.04 405.107 192.578 405.041 194.365 404.719L194.497 405.671C192.6 405.979 191.011 406.066 188.491 406.066H187.495Z" fill="#818181"/>
<path d="M210.43 397.602V407.5H209.186V398.887H209.131L206.725 400.486V399.242L209.186 397.602H210.43ZM216.295 407.637C214.511 407.637 213.157 406.536 213.082 405.012H214.271C214.36 405.894 215.222 406.55 216.295 406.557C217.58 406.55 218.51 405.613 218.51 404.369C218.51 403.084 217.546 402.134 216.213 402.127C215.379 402.113 214.729 402.373 214.367 403.016H213.178L213.875 397.602H219.234V398.695H214.9L214.531 401.594H214.627C215.071 401.252 215.734 401.02 216.432 401.02C218.318 401.02 219.706 402.414 219.713 404.342C219.706 406.256 218.271 407.637 216.295 407.637ZM221.736 407.5L226.275 398.764V398.695H221.039V397.602H227.547V398.75L223.021 407.5H221.736ZM229.734 407.5L234.273 398.764V398.695H229.037V397.602H235.545V398.75L231.02 407.5H229.734ZM241.41 402.018V403.098H237.076V402.018H241.41ZM246.701 397.602V407.5H245.457V398.887H245.402L242.996 400.486V399.242L245.457 397.602H246.701ZM252.58 407.637C250.386 407.637 249.114 405.791 249.121 402.551C249.114 399.338 250.399 397.465 252.58 397.465C254.754 397.465 256.039 399.338 256.039 402.551C256.039 405.791 254.774 407.637 252.58 407.637ZM250.311 402.551C250.317 405.114 251.145 406.543 252.58 406.543C254.009 406.543 254.843 405.114 254.836 402.551C254.843 399.987 254.002 398.538 252.58 398.531C251.158 398.538 250.317 399.987 250.311 402.551ZM260.92 407.637C258.726 407.637 257.454 405.791 257.461 402.551C257.454 399.338 258.739 397.465 260.92 397.465C263.094 397.465 264.379 399.338 264.379 402.551C264.379 405.791 263.114 407.637 260.92 407.637ZM258.65 402.551C258.657 405.114 259.484 406.543 260.92 406.543C262.349 406.543 263.183 405.114 263.176 402.551C263.183 399.987 262.342 398.538 260.92 398.531C259.498 398.538 258.657 399.987 258.65 402.551ZM269.26 407.637C267.065 407.637 265.794 405.791 265.801 402.551C265.794 399.338 267.079 397.465 269.26 397.465C271.434 397.465 272.719 399.338 272.719 402.551C272.719 405.791 271.454 407.637 269.26 407.637ZM266.99 402.551C266.997 405.114 267.824 406.543 269.26 406.543C270.688 406.543 271.522 405.114 271.516 402.551C271.522 399.987 270.682 398.538 269.26 398.531C267.838 398.538 266.997 399.987 266.99 402.551Z" fill="#2B87DE"/>
<path d="M47.2803 428.526C47.2729 432.284 45.9912 435.726 41.3037 438.033L40.6592 437.154C43.1055 435.96 44.5776 434.452 45.3687 432.701L40.9082 433.126L40.7178 432.115L45.7202 431.778C45.9546 431.046 46.0864 430.277 46.1377 429.479H41.377V428.526H47.2803ZM49.4629 440.187V427.164H50.6055V432.467H52.7148V433.434H50.6055V440.187H49.4629ZM60.2441 428.526C60.2368 432.284 58.9551 435.726 54.2676 438.033L53.623 437.154C56.0693 435.96 57.5415 434.452 58.3325 432.701L53.8721 433.126L53.6816 432.115L58.6841 431.778C58.9185 431.046 59.0503 430.277 59.1016 429.479H54.3408V428.526H60.2441ZM62.4268 440.187V427.164H63.5693V432.467H65.6787V433.434H63.5693V440.187H62.4268ZM72.3877 428.014C75.1562 428.028 77.1484 429.376 77.1484 431.427C77.1484 433.368 75.4199 434.649 72.9443 434.818V437.55H78.3789V438.517H66.4551V437.55H71.8164V434.818C69.3555 434.642 67.627 433.36 67.627 431.427C67.627 429.376 69.6265 428.028 72.3877 428.014ZM68.7402 431.427C68.7329 432.928 70.2783 433.902 72.3877 433.917C74.4971 433.902 76.0352 432.928 76.0352 431.427C76.0352 429.955 74.4971 428.958 72.3877 428.966C70.2783 428.958 68.7329 429.955 68.7402 431.427ZM93.9355 427.179V436.7H92.793V427.179H93.9355ZM83.4912 431.28C83.4839 429.405 84.9561 428.094 86.9043 428.087C88.8525 428.094 90.3101 429.405 90.3174 431.28C90.3101 433.177 88.8525 434.496 86.9043 434.488C84.9561 434.496 83.4839 433.177 83.4912 431.28ZM84.6191 431.28C84.6045 432.577 85.5859 433.478 86.9043 433.478C88.2007 433.478 89.1895 432.577 89.1895 431.28C89.1895 430.006 88.2007 429.098 86.9043 429.098C85.5859 429.098 84.6045 430.006 84.6191 431.28ZM85.5273 439.908V435.733H86.6699V438.941H94.3457V439.908H85.5273ZM108.013 433.36V434.312H96.1475V433.36H108.013ZM96.8213 431.661C99.0918 431.397 101.282 430.277 101.333 428.79H97.2314V427.838H106.958V428.79H102.827C102.878 430.262 105.046 431.397 107.354 431.661L106.929 432.584C104.797 432.313 102.798 431.354 102.08 429.911C101.362 431.354 99.3774 432.313 97.2314 432.584L96.8213 431.661ZM97.583 437.813C97.5757 436.319 99.2676 435.455 102.08 435.455C104.871 435.455 106.548 436.319 106.562 437.813C106.548 439.322 104.871 440.157 102.08 440.157C99.2676 440.157 97.5757 439.322 97.583 437.813ZM98.7549 437.813C98.7402 438.722 99.9927 439.242 102.08 439.234C104.146 439.242 105.398 438.722 105.405 437.813C105.398 436.898 104.146 436.378 102.08 436.363C99.9927 436.378 98.7402 436.898 98.7549 437.813ZM113.696 430.665C113.689 433.023 115.205 435.396 117.095 436.261L116.406 437.198C114.927 436.437 113.704 434.884 113.125 433.031C112.546 434.979 111.323 436.649 109.844 437.433L109.097 436.51C111.008 435.572 112.517 433.067 112.524 430.665V428.292H113.696V430.665ZM115.674 432.555V431.617H118.765V427.164H119.907V440.216H118.765V432.555H115.674ZM137.749 433.829V434.781H132.446V437.447H131.304V434.781H125.825V433.829H137.749ZM127.349 439.908V436.158H128.506V438.941H136.416V439.908H127.349ZM127.378 432.335V427.809H136.196V432.335H127.378ZM128.506 431.412H135.054V428.717H128.506V431.412ZM143.066 428.116C145.11 428.124 146.56 429.369 146.567 431.178C146.56 432.994 145.11 434.232 143.066 434.239C141.008 434.232 139.543 432.994 139.551 431.178C139.543 429.369 141.008 428.124 143.066 428.116ZM138.877 436.363C141.279 436.371 144.597 436.349 147.476 435.924L147.563 436.773C144.583 437.33 141.382 437.345 139.038 437.345L138.877 436.363ZM140.679 431.178C140.671 432.394 141.675 433.229 143.066 433.229C144.443 433.229 145.447 432.394 145.439 431.178C145.447 429.969 144.443 429.127 143.066 429.127C141.675 429.127 140.671 429.969 140.679 431.178ZM148.34 440.216V427.164H149.482V440.216H148.34Z" fill="#818181"/>
<path d="M162.43 428.602V438.5H161.186V429.887H161.131L158.725 431.486V430.242L161.186 428.602H162.43ZM168.295 438.637C166.511 438.637 165.157 437.536 165.082 436.012H166.271C166.36 436.894 167.222 437.55 168.295 437.557C169.58 437.55 170.51 436.613 170.51 435.369C170.51 434.084 169.546 433.134 168.213 433.127C167.379 433.113 166.729 433.373 166.367 434.016H165.178L165.875 428.602H171.234V429.695H166.9L166.531 432.594H166.627C167.071 432.252 167.734 432.02 168.432 432.02C170.318 432.02 171.706 433.414 171.713 435.342C171.706 437.256 170.271 438.637 168.295 438.637ZM173.736 438.5L178.275 429.764V429.695H173.039V428.602H179.547V429.75L175.021 438.5H173.736ZM181.734 438.5L186.273 429.764V429.695H181.037V428.602H187.545V429.75L183.02 438.5H181.734ZM193.41 433.018V434.098H189.076V433.018H193.41ZM198.469 438.637C196.5 438.637 195.085 437.584 195.023 436.012H196.268C196.336 436.955 197.272 437.543 198.455 437.543C199.761 437.543 200.704 436.839 200.711 435.807C200.704 434.727 199.843 433.968 198.305 433.961H197.498V432.881H198.305C199.508 432.881 200.349 432.204 200.342 431.186C200.349 430.194 199.624 429.538 198.496 429.531C197.437 429.538 196.473 430.119 196.418 431.09H195.229C195.29 429.518 196.753 428.465 198.51 428.465C200.396 428.465 201.545 429.702 201.531 431.117C201.545 432.245 200.889 433.065 199.85 433.359V433.428C201.142 433.626 201.921 434.549 201.914 435.807C201.921 437.434 200.444 438.637 198.469 438.637ZM204.006 438.5L208.545 429.764V429.695H203.309V428.602H209.816V429.75L205.291 438.5H204.006ZM214.506 438.637C212.722 438.637 211.368 437.536 211.293 436.012H212.482C212.571 436.894 213.433 437.55 214.506 437.557C215.791 437.55 216.721 436.613 216.721 435.369C216.721 434.084 215.757 433.134 214.424 433.127C213.59 433.113 212.94 433.373 212.578 434.016H211.389L212.086 428.602H217.445V429.695H213.111L212.742 432.594H212.838C213.282 432.252 213.945 432.02 214.643 432.02C216.529 432.02 217.917 433.414 217.924 435.342C217.917 437.256 216.481 438.637 214.506 438.637ZM219.387 436.477V435.465L223.844 428.602H225.361V435.396H226.742V436.477H225.361V438.5H224.186V436.477H219.387ZM220.713 435.396H224.186V430.16H224.062L220.713 435.314V435.396Z" fill="#2B87DE"/>
<g clip-path="url(#clip1_233_3159)">
<circle cx="29" cy="553.5" r="8" fill="white" stroke="#D9D9D9"/>
<mask id="mask0_233_3159" style="mask-type:alpha" maskUnits="userSpaceOnUse" x="20" y="544" width="18" height="19">
<rect x="20" y="544.75" width="18" height="17.5" fill="#D9D9D9"/>
</mask>
<g mask="url(#mask0_233_3159)">
</g>
</g>
<path d="M45.6113 561.488V547.44H48.7168V548.48H46.7979V560.434H48.7168V561.488H45.6113ZM60.4062 546.664V553.432H59.249V546.664H60.4062ZM49.8594 552.011C50.3794 552.011 50.9434 552.003 51.5293 551.996V548.48H50.2256V547.558H57.2715V548.48H55.9531V551.82C56.627 551.769 57.2861 551.703 57.916 551.63L57.9746 552.479C55.3672 552.868 52.3057 552.97 50.0059 552.963L49.8594 552.011ZM51.8809 554.984V554.062H60.4062V557.167H53.0527V558.603H60.9043V559.54H51.9248V556.303H59.2637V554.984H51.8809ZM52.6426 551.974C53.3604 551.952 54.1001 551.93 54.8398 551.886V548.48H52.6426V551.974ZM69.1367 547.88C69.144 549.718 71.5317 551.3 73.8828 551.63L73.4141 552.567C71.3926 552.23 69.3857 551.11 68.5508 549.513C67.7158 551.125 65.7163 552.23 63.6875 552.567L63.2188 551.63C65.5698 551.3 67.9502 549.748 67.9502 547.88V547.133H69.1367V547.88ZM62.6035 554.97V554.003H74.4688V554.97H69.0781V559.687H67.9502V554.97H62.6035ZM78.541 561.488H75.4355V560.434H77.3545V548.48H75.4355V547.44H78.541V561.488ZM95.5625 546.664V559.687H94.4346V552.875H92.6328V559.042H91.5342V547.016H92.6328V551.923H94.4346V546.664H95.5625ZM84.459 556.083C87.4839 554.391 88.729 552.011 88.9268 549.315H84.957V548.363H90.0547C90.04 551.674 88.8755 554.801 85.1328 556.889L84.459 556.083ZM108.16 546.679V556.2H107.018V546.679H108.16ZM97.7158 550.78C97.7085 548.905 99.1807 547.594 101.129 547.587C103.077 547.594 104.535 548.905 104.542 550.78C104.535 552.677 103.077 553.996 101.129 553.988C99.1807 553.996 97.7085 552.677 97.7158 550.78ZM98.8438 550.78C98.8291 552.077 99.8105 552.978 101.129 552.978C102.425 552.978 103.414 552.077 103.414 550.78C103.414 549.506 102.425 548.598 101.129 548.598C99.8105 548.598 98.8291 549.506 98.8438 550.78ZM99.752 559.408V555.233H100.895V558.441H108.57V559.408H99.752ZM121.168 546.664V554.428H120.011V551.015H117.389V550.062H120.011V546.664H121.168ZM110.431 553.388C112.364 552.692 113.741 550.927 113.741 549.066V548.583H110.797V547.616H117.813V548.583H114.898V549.052C114.898 550.751 116.202 552.37 118.106 553.021L117.506 553.944C116.048 553.417 114.913 552.318 114.349 550.978C113.792 552.501 112.584 553.717 111.031 554.311L110.431 553.388ZM112.481 557.255C112.474 555.724 114.137 554.831 116.847 554.838C119.549 554.831 121.212 555.724 121.212 557.255C121.212 558.793 119.549 559.672 116.847 559.687C114.137 559.672 112.474 558.793 112.481 557.255ZM113.624 557.255C113.617 558.2 114.847 558.771 116.847 558.764C118.839 558.771 120.069 558.2 120.069 557.255C120.069 556.303 118.839 555.731 116.847 555.731C114.847 555.731 113.617 556.303 113.624 557.255ZM135.26 557.064V558.017H123.336V557.064H128.697V554.252H124.742V547.587H125.899V549.945H132.667V547.587H133.795V554.252H129.825V557.064H135.26ZM125.899 553.314H132.667V550.883H125.899V553.314ZM151.197 546.664V559.687H150.099V546.664H151.197ZM139.903 556.215C141.72 555.131 142.782 552.75 142.774 550.385V549.154H140.27V548.202H146.275V549.154H143.888V550.385C143.888 552.633 144.906 554.882 146.7 555.922L145.997 556.771C144.715 556.002 143.807 554.596 143.353 552.941C142.884 554.735 141.939 556.266 140.636 557.079L139.903 556.215ZM145.279 552.304V551.366H147.477V546.986H148.561V559.013H147.477V552.304H145.279ZM157.159 558.646C155.05 558.646 153.534 557.519 153.468 555.834H154.801C154.874 556.845 155.877 557.475 157.145 557.475C158.543 557.475 159.554 556.72 159.562 555.614C159.554 554.457 158.631 553.644 156.983 553.637H156.119V552.479H156.983C158.272 552.479 159.173 551.754 159.166 550.663C159.173 549.601 158.397 548.898 157.188 548.891C156.053 548.898 155.021 549.521 154.962 550.561H153.688C153.753 548.876 155.321 547.748 157.203 547.748C159.225 547.748 160.455 549.074 160.44 550.59C160.455 551.798 159.752 552.677 158.639 552.992V553.065C160.023 553.278 160.858 554.267 160.851 555.614C160.858 557.357 159.276 558.646 157.159 558.646ZM166.695 550.663C166.681 552.75 168.189 555.05 170.079 555.951L169.42 556.859C167.955 556.142 166.717 554.604 166.131 552.838C165.531 554.75 164.227 556.435 162.77 557.182L162.066 556.273C163.941 555.358 165.553 552.882 165.567 550.663V548.964H162.535V548.012H169.625V548.964H166.695V550.663ZM171.222 559.687V546.664H172.364V551.938H174.547V552.919H172.364V559.687H171.222ZM190.147 546.664V559.687H189.049V546.664H190.147ZM178.854 556.215C180.67 555.131 181.732 552.75 181.725 550.385V549.154H179.22V548.202H185.226V549.154H182.838V550.385C182.838 552.633 183.856 554.882 185.65 555.922L184.947 556.771C183.666 556.002 182.757 554.596 182.303 552.941C181.834 554.735 180.89 556.266 179.586 557.079L178.854 556.215ZM184.229 552.304V551.366H186.427V546.986H187.511V559.013H186.427V552.304H184.229ZM197.867 554.896C200.658 554.896 202.43 555.775 202.438 557.284C202.43 558.778 200.658 559.657 197.867 559.657C195.077 559.657 193.304 558.778 193.312 557.284C193.304 555.775 195.077 554.896 197.867 554.896ZM191.993 553.681V552.743H196.9V550.224H198.028V552.743H203.844V553.681H191.993ZM193.399 548.275V547.338H202.335V548.437C202.328 549.491 202.328 550.546 201.969 551.894L200.841 551.762C201.192 550.421 201.192 549.455 201.192 548.437V548.275H193.399ZM194.454 557.284C194.447 558.192 195.794 558.749 197.867 558.749C199.947 558.749 201.28 558.192 201.295 557.284C201.28 556.354 199.947 555.783 197.867 555.775C195.794 555.783 194.447 556.354 194.454 557.284ZM220.587 553.109V554.032H208.707V553.109H214.083V551.586H210.216V547.279H219.107V548.202H211.344V550.648H219.195V551.586H215.196V553.109H220.587ZM210.143 557.328C210.135 555.841 211.827 554.992 214.64 554.984C217.43 554.992 219.107 555.841 219.122 557.328C219.107 558.83 217.43 559.672 214.64 559.687C211.827 559.672 210.135 558.83 210.143 557.328ZM211.314 557.328C211.3 558.244 212.552 558.771 214.64 558.764C216.705 558.771 217.958 558.244 217.965 557.328C217.958 556.427 216.705 555.893 214.64 555.893C212.552 555.893 211.3 556.427 211.314 557.328ZM225.934 547.616C227.977 547.624 229.427 548.869 229.435 550.678C229.427 552.494 227.977 553.732 225.934 553.739C223.875 553.732 222.411 552.494 222.418 550.678C222.411 548.869 223.875 547.624 225.934 547.616ZM221.744 555.863C224.146 555.871 227.464 555.849 230.343 555.424L230.431 556.273C227.45 556.83 224.249 556.845 221.905 556.845L221.744 555.863ZM223.546 550.678C223.539 551.894 224.542 552.729 225.934 552.729C227.311 552.729 228.314 551.894 228.307 550.678C228.314 549.469 227.311 548.627 225.934 548.627C224.542 548.627 223.539 549.469 223.546 550.678ZM231.207 559.716V546.664H232.35V559.716H231.207Z" fill="#222222"/>
<mask id="mask1_233_3159" style="mask-type:alpha" maskUnits="userSpaceOnUse" x="406" y="541" width="24" height="24">
<rect x="406" y="541" width="24" height="24" fill="#D9D9D9"/>
</mask>
<g mask="url(#mask1_233_3159)">
<path d="M418.6 553L414.7 549.1C414.516 548.917 414.425 548.683 414.425 548.4C414.425 548.117 414.516 547.883 414.7 547.7C414.883 547.517 415.116 547.425 415.4 547.425C415.683 547.425 415.916 547.517 416.1 547.7L420.7 552.3C420.8 552.4 420.871 552.508 420.912 552.625C420.954 552.742 420.975 552.867 420.975 553C420.975 553.133 420.954 553.258 420.912 553.375C420.871 553.492 420.8 553.6 420.7 553.7L416.1 558.3C415.916 558.483 415.683 558.575 415.4 558.575C415.116 558.575 414.883 558.483 414.7 558.3C414.516 558.117 414.425 557.883 414.425 557.6C414.425 557.317 414.516 557.083 414.7 556.9L418.6 553Z" fill="#A2A2A2"/>
</g>
<g clip-path="url(#clip2_233_3159)">
<mask id="mask2_233_3159" style="mask-type:alpha" maskUnits="userSpaceOnUse" x="20" y="580" width="18" height="18">
<rect x="20" y="580" width="18" height="18" fill="#D9D9D9"/>
</mask>
<g mask="url(#mask2_233_3159)">
<path d="M27.4996 591.131L31.9246 586.706C32.0621 586.569 32.2371 586.5 32.4496 586.5C32.6621 586.5 32.8371 586.569 32.9746 586.706C33.1121 586.844 33.1809 587.019 33.1809 587.231C33.1809 587.444 33.1121 587.619 32.9746 587.756L28.0246 592.706C27.8746 592.856 27.6996 592.931 27.4996 592.931C27.2996 592.931 27.1246 592.856 26.9746 592.706L25.0246 590.756C24.8871 590.619 24.8184 590.444 24.8184 590.231C24.8184 590.019 24.8871 589.844 25.0246 589.706C25.1621 589.569 25.3371 589.5 25.5496 589.5C25.7621 589.5 25.9371 589.569 26.0746 589.706L27.4996 591.131Z" fill="#D9D9D9"/>
</g>
</g>
<path d="M54.708 583.164V586.387H56.6709V587.324H54.708V590.708H53.5654V583.164H54.708ZM44.7764 587.017C44.769 585.2 46.2192 583.948 48.1895 583.955C50.1743 583.948 51.6025 585.2 51.6172 587.017C51.6025 588.826 50.1743 590.071 48.1895 590.078C46.2192 590.071 44.769 588.826 44.7764 587.017ZM45.9043 587.017C45.897 588.247 46.8711 589.097 48.1895 589.111C49.5225 589.097 50.4819 588.247 50.4893 587.017C50.4819 585.793 49.5225 584.922 48.1895 584.937C46.8711 584.922 45.897 585.793 45.9043 587.017ZM46.4902 596.011V591.323H54.708V596.011H46.4902ZM47.6182 595.073H53.5654V592.261H47.6182V595.073ZM68.7412 585.098V586.05H58.0771V585.098H62.8525V583.384H63.9805V585.098H68.7412ZM57.4912 594.663V593.711H62.8525V591.88C60.5308 591.755 59.1318 590.854 59.1465 589.39C59.1318 587.844 60.7651 586.929 63.4238 586.943C66.0459 586.929 67.7085 587.844 67.7012 589.39C67.7085 590.854 66.2803 591.755 63.9805 591.88V593.711H69.415V594.663H57.4912ZM60.3037 589.39C60.2891 590.378 61.4829 590.95 63.4238 590.957C65.3428 590.95 66.5366 590.378 66.5293 589.39C66.5366 588.423 65.3428 587.852 63.4238 587.852C61.4829 587.852 60.2891 588.423 60.3037 589.39ZM80.5625 583.164V588.716H82.6426V589.683H80.5625V596.187H79.4053V583.164H80.5625ZM70.2939 592.715C71.356 592.715 72.5938 592.708 73.8828 592.671V591.235C72.3667 591.06 71.3779 590.166 71.3926 588.877C71.3779 587.405 72.623 586.453 74.4688 586.46C76.2852 586.453 77.5522 587.405 77.5596 588.877C77.5522 590.173 76.5488 591.06 75.04 591.235V592.627C76.2485 592.568 77.479 592.466 78.6143 592.305L78.6875 593.184C75.8457 593.667 72.7695 593.696 70.4844 593.696L70.2939 592.715ZM70.5283 585.698V584.761H73.8828V583.193H75.04V584.761H78.3799V585.698H70.5283ZM72.4619 588.877C72.4692 589.778 73.2603 590.371 74.4688 590.356C75.6553 590.371 76.4536 589.778 76.4609 588.877C76.4536 587.969 75.6553 587.354 74.4688 587.354C73.2603 587.354 72.4692 587.969 72.4619 588.877ZM90.9922 587.441V588.379H88.3555V590.195C89.5713 590.144 90.7871 590.056 91.915 589.932L92.0029 590.781C89.1978 591.169 86.0996 591.25 83.6533 591.25L83.4775 590.312C84.6201 590.305 85.9019 590.291 87.2129 590.247V588.379H84.6641V584.014H90.8896V584.966H85.8213V587.441H90.9922ZM85.7041 595.908V592.246H86.8467V594.941H94.5811V595.908H85.7041ZM92.999 592.92V583.179H94.1562V592.92H92.999ZM110.885 583.164V596.216H109.728V583.164H110.885ZM100.631 588.716C100.638 585.947 102.015 584.182 103.956 584.175C105.89 584.182 107.289 585.947 107.281 588.716C107.289 591.492 105.89 593.25 103.956 593.242C102.015 593.25 100.638 591.492 100.631 588.716ZM101.744 588.716C101.744 590.833 102.652 592.224 103.956 592.217C105.267 592.224 106.168 590.833 106.168 588.716C106.168 586.599 105.267 585.208 103.956 585.2C102.652 585.208 101.744 586.599 101.744 588.716ZM124.977 589.609V590.562H113.111V589.609H116.056V587.771C115.016 587.368 114.43 586.709 114.43 585.83C114.43 584.299 116.188 583.42 119.044 583.413C121.878 583.42 123.636 584.299 123.644 585.83C123.636 586.702 123.058 587.361 122.032 587.771V589.609H124.977ZM114.547 593.857C114.54 592.371 116.217 591.55 119.044 591.558C121.834 591.55 123.512 592.371 123.526 593.857C123.512 595.344 121.834 596.157 119.044 596.157C116.217 596.157 114.54 595.344 114.547 593.857ZM115.616 585.83C115.609 586.782 116.913 587.332 119.044 587.339C121.153 587.332 122.464 586.782 122.472 585.83C122.464 584.893 121.153 584.321 119.044 584.321C116.913 584.321 115.609 584.893 115.616 585.83ZM115.719 593.857C115.704 594.744 116.957 595.271 119.044 595.264C121.109 595.271 122.362 594.744 122.369 593.857C122.362 592.971 121.109 592.451 119.044 592.437C116.957 592.451 115.704 592.971 115.719 593.857ZM117.198 589.609H120.89V588.079C120.34 588.181 119.725 588.232 119.044 588.232C118.363 588.232 117.748 588.181 117.198 588.086V589.609ZM130.484 587.163C130.47 589.25 131.979 591.55 133.868 592.451L133.209 593.359C131.744 592.642 130.506 591.104 129.92 589.338C129.32 591.25 128.016 592.935 126.559 593.682L125.855 592.773C127.73 591.858 129.342 589.382 129.356 587.163V585.464H126.324V584.512H133.414V585.464H130.484V587.163ZM135.011 596.187V583.164H136.153V588.438H138.336V589.419H136.153V596.187H135.011ZM152.97 583.179V587.119H154.918V588.086H152.97V591.909H151.812V583.179H152.97ZM142.745 590.576C143.785 590.576 145.001 590.576 146.275 590.54V589.58C144.759 589.441 143.778 588.745 143.785 587.661C143.778 586.475 145.001 585.742 146.832 585.742C148.678 585.742 149.879 586.475 149.894 587.661C149.879 588.738 148.927 589.434 147.418 589.58V590.496C148.634 590.437 149.864 590.334 151.007 590.166L151.109 591.001C148.282 591.499 145.169 591.521 142.877 591.514L142.745 590.576ZM143.067 585.244V584.365H146.275V583.062H147.418V584.365H150.611V585.244H143.067ZM144.342 593.477V592.554H152.97V596.187H151.812V593.477H144.342ZM144.884 587.661C144.876 588.342 145.631 588.804 146.832 588.789C148.033 588.804 148.795 588.342 148.795 587.661C148.795 586.973 148.033 586.548 146.832 586.562C145.631 586.548 144.876 586.973 144.884 587.661ZM166.52 583.179V592.7H165.377V583.179H166.52ZM156.075 587.28C156.068 585.405 157.54 584.094 159.488 584.087C161.437 584.094 162.894 585.405 162.901 587.28C162.894 589.177 161.437 590.496 159.488 590.488C157.54 590.496 156.068 589.177 156.075 587.28ZM157.203 587.28C157.188 588.577 158.17 589.478 159.488 589.478C160.785 589.478 161.773 588.577 161.773 587.28C161.773 586.006 160.785 585.098 159.488 585.098C158.17 585.098 157.188 586.006 157.203 587.28ZM158.111 595.908V591.733H159.254V594.941H166.93V595.908H158.111ZM178.912 583.164V586.167H180.875V587.148H178.912V590.239H177.77V583.164H178.912ZM168.761 589.434C171.983 588.665 173.902 587.017 174.107 584.907H169.347V583.955H175.367C175.36 587.222 173.045 589.434 169.2 590.386L168.761 589.434ZM170.182 596.011V590.913H171.251V592.495H173.595V590.913H174.664V596.011H170.182ZM171.251 595.088H173.595V593.389H171.251V595.088ZM174.737 595.249C176.275 594.575 177.037 593.125 177.052 591.88V590.781H178.15V591.836C178.15 593.125 178.905 594.583 180.421 595.249L179.806 596.128C178.714 595.637 177.989 594.736 177.601 593.718C177.206 594.736 176.466 595.637 175.367 596.128L174.737 595.249ZM182.501 590.957C182.516 588.196 183.263 585.896 184.61 583.94H185.724C184.735 585.383 183.812 588.35 183.805 590.957C183.812 593.572 184.735 596.531 185.724 597.988H184.61C183.263 596.025 182.516 593.726 182.501 590.957ZM194.688 587.734C194.381 586.27 193.128 585.479 191.729 585.479C189.811 585.479 188.324 586.958 188.316 589.697C188.324 592.429 189.811 593.909 191.729 593.916C193.128 593.909 194.374 593.125 194.688 591.675H196.007C195.626 593.843 193.883 595.146 191.729 595.146C189.005 595.146 187.035 593.052 187.042 589.697C187.035 586.343 189.005 584.248 191.729 584.248C193.875 584.248 195.611 585.53 196.007 587.734H194.688ZM199.171 584.395V595H197.853V584.395H199.171ZM204.122 590.957C204.107 593.726 203.36 596.025 202.013 597.988H200.899C201.888 596.531 202.811 593.572 202.818 590.957C202.811 588.35 201.888 585.383 200.899 583.94H202.013C203.36 585.896 204.107 588.196 204.122 590.957Z" fill="#818181"/>
<g clip-path="url(#clip3_233_3159)">
<mask id="mask3_233_3159" style="mask-type:alpha" maskUnits="userSpaceOnUse" x="20" y="607" width="18" height="18">
<rect x="20" y="607" width="18" height="18" fill="#D9D9D9"/>
</mask>
<g mask="url(#mask3_233_3159)">
<path d="M27.4996 618.131L31.9246 613.706C32.0621 613.569 32.2371 613.5 32.4496 613.5C32.6621 613.5 32.8371 613.569 32.9746 613.706C33.1121 613.844 33.1809 614.019 33.1809 614.231C33.1809 614.444 33.1121 614.619 32.9746 614.756L28.0246 619.706C27.8746 619.856 27.6996 619.931 27.4996 619.931C27.2996 619.931 27.1246 619.856 26.9746 619.706L25.0246 617.756C24.8871 617.619 24.8184 617.444 24.8184 617.231C24.8184 617.019 24.8871 616.844 25.0246 616.706C25.1621 616.569 25.3371 616.5 25.5496 616.5C25.7621 616.5 25.9371 616.569 26.0746 616.706L27.4996 618.131Z" fill="#D9D9D9"/>
</g>
</g>
<path d="M55.2646 610.164V623.216H54.1074V610.164H55.2646ZM45.0107 615.716C45.0181 612.947 46.395 611.182 48.3359 611.175C50.2695 611.182 51.6685 612.947 51.6611 615.716C51.6685 618.492 50.2695 620.25 48.3359 620.242C46.395 620.25 45.0181 618.492 45.0107 615.716ZM46.124 615.716C46.124 617.833 47.0322 619.224 48.3359 619.217C49.647 619.224 50.5479 617.833 50.5479 615.716C50.5479 613.599 49.647 612.208 48.3359 612.2C47.0322 612.208 46.124 613.599 46.124 615.716ZM69.4004 616.888V617.84H57.4766V616.888H69.4004ZM58.9854 611.409V610.486H67.8623V613.562H60.1719V614.866H68.1406V615.76H59.0293V612.698H66.7051V611.409H58.9854ZM59.1025 623.011V619.026H67.8623V623.011H59.1025ZM60.2305 622.073H66.7344V619.964H60.2305V622.073ZM72.5938 621.019L71.4512 625.003H70.3672L71.1729 621.019H72.5938ZM81.9395 612.757C81.9468 614.2 82.9502 615.657 84.6201 616.287L84.0195 617.166C82.7671 616.683 81.8662 615.752 81.3975 614.632C80.9214 615.87 79.9839 616.976 78.7021 617.532L78.0723 616.639C79.7861 615.892 80.8335 614.207 80.8408 612.757V610.984H81.9395V612.757ZM80.4453 620.843C80.4307 619.371 82.1006 618.506 84.8105 618.514C87.5059 618.506 89.1831 619.371 89.1904 620.843C89.1831 622.3 87.5059 623.157 84.8105 623.157C82.1006 623.157 80.4307 622.3 80.4453 620.843ZM81.5879 620.843C81.5732 621.729 82.811 622.271 84.8105 622.264C86.7881 622.271 88.0332 621.729 88.0479 620.843C88.0332 619.942 86.7881 619.4 84.8105 619.393C82.811 619.4 81.5732 619.942 81.5879 620.843ZM85.2061 617.811V610.428H86.29V613.68H88.0186V610.179H89.1172V618.221H88.0186V614.632H86.29V617.811H85.2061ZM101.817 610.179V619.817H100.66V615.306H96.9102V614.383H100.66V612.815H96.9102V611.893H100.66V610.179H101.817ZM91.7979 617.884V611.116H92.9551V616.902C94.7495 616.895 96.478 616.792 98.4629 616.434L98.5801 617.386C96.4634 617.781 94.6909 617.869 92.7793 617.884H91.7979ZM93.4238 622.908V618.997H94.5811V621.941H102.169V622.908H93.4238ZM114.723 610.179V617.854H113.565V617.137H110.929V616.375H113.565V610.179H114.723ZM103.941 615.086C106.461 615.101 109.684 615.071 112.496 614.764L112.569 615.511C111.295 615.694 109.969 615.804 108.673 615.862V617.898H107.545V615.906C106.314 615.95 105.128 615.95 104.073 615.95L103.941 615.086ZM104.952 612.391C104.952 611.182 106.227 610.428 108.189 610.428C110.13 610.428 111.412 611.182 111.427 612.391C111.412 613.606 110.13 614.332 108.189 614.339C106.227 614.332 104.952 613.606 104.952 612.391ZM105.934 619.158V618.323H114.723V621.019H107.12V622.19H115.147V623.04H105.992V620.213H113.58V619.158H105.934ZM106.036 612.391C106.029 613.079 106.878 613.548 108.189 613.548C109.486 613.548 110.335 613.079 110.343 612.391C110.335 611.695 109.486 611.226 108.189 611.233C106.878 611.226 106.029 611.695 106.036 612.391ZM120.641 610.647C122.589 610.655 124.002 611.841 124.01 613.533C124.002 615.232 122.589 616.404 120.641 616.404C118.67 616.404 117.25 615.232 117.257 613.533C117.25 611.841 118.67 610.655 120.641 610.647ZM118.385 613.533C118.37 614.676 119.33 615.467 120.641 615.467C121.93 615.467 122.896 614.676 122.896 613.533C122.896 612.405 121.93 611.607 120.641 611.614C119.33 611.607 118.37 612.405 118.385 613.533ZM119.234 618.411V617.488H127.701V620.623H120.392V622.088H128.17V623.011H119.264V619.759H126.559V618.411H119.234ZM126.559 616.858V610.164H127.701V616.858H126.559ZM132.052 621.019L130.909 625.003H129.825L130.631 621.019H132.052ZM148.692 611.614V612.552H138.131V611.614H142.877V610.091H144.005V611.614H148.692ZM137.516 619.437V618.484H149.439V619.437H146.29V623.216H145.147V619.437H141.778V623.216H140.621V619.437H137.516ZM139.2 615.452C139.186 614.068 140.782 613.299 143.448 613.299C146.092 613.299 147.689 614.068 147.696 615.452C147.689 616.829 146.092 617.605 143.448 617.605C140.782 617.605 139.186 616.829 139.2 615.452ZM140.387 615.452C140.372 616.25 141.507 616.719 143.448 616.712C145.367 616.719 146.495 616.25 146.51 615.452C146.495 614.646 145.367 614.192 143.448 614.178C141.507 614.192 140.372 614.646 140.387 615.452ZM161.612 610.164V623.187H160.514V616.36H158.595V622.513H157.54V610.457H158.595V615.408H160.514V610.164H161.612ZM150.963 619.964V611.761H155.841V612.713H152.105V618.982C153.9 618.975 155.138 618.909 156.588 618.616L156.69 619.583C155.123 619.905 153.797 619.957 151.798 619.964H150.963ZM174.181 610.765V611.717H172.174V614.705H174.137V615.628H169.947V617.225H175.309V618.162H163.443V617.225H168.805V615.628H164.601V614.705H166.563V611.717H164.557V610.765H174.181ZM164.981 622.908V619.305H166.139V621.941H173.99V622.908H164.981ZM167.706 614.705H171.031V611.717H167.706V614.705ZM187.203 610.179V619.817H186.046V614.808H182.97V617.591H177.066V611.043H178.209V613.357H181.842V611.043H182.97V613.841H186.046V610.179H187.203ZM178.209 616.639H181.842V614.266H178.209V616.639ZM178.78 622.908V618.865H179.938V621.941H187.496V622.908H178.78ZM200.621 612.098V613.05H189.957V612.098H194.732V610.384H195.86V612.098H200.621ZM189.371 621.663V620.711H194.732V618.88C192.411 618.755 191.012 617.854 191.026 616.39C191.012 614.844 192.645 613.929 195.304 613.943C197.926 613.929 199.588 614.844 199.581 616.39C199.588 617.854 198.16 618.755 195.86 618.88V620.711H201.295V621.663H189.371ZM192.184 616.39C192.169 617.378 193.363 617.95 195.304 617.957C197.223 617.95 198.417 617.378 198.409 616.39C198.417 615.423 197.223 614.852 195.304 614.852C193.363 614.852 192.169 615.423 192.184 616.39ZM204.474 621.019L203.331 625.003H202.247L203.053 621.019H204.474ZM220.733 610.179V619.729H219.576V614.734H216.896V613.782H219.576V610.179H220.733ZM209.996 617.122C211.915 616.448 213.307 614.727 213.307 612.859V612.186H210.362V611.233H217.379V612.186H214.464V612.859C214.464 614.544 215.768 616.177 217.672 616.829L217.071 617.752C215.606 617.217 214.471 616.126 213.907 614.778C213.343 616.287 212.142 617.481 210.597 618.06L209.996 617.122ZM212.369 622.908V618.865H213.526V621.941H221.1V622.908H212.369ZM227.311 614.163C227.296 616.25 228.805 618.55 230.694 619.451L230.035 620.359C228.57 619.642 227.333 618.104 226.747 616.338C226.146 618.25 224.842 619.935 223.385 620.682L222.682 619.773C224.557 618.858 226.168 616.382 226.183 614.163V612.464H223.15V611.512H230.24V612.464H227.311V614.163ZM231.837 623.187V610.164H232.979V615.438H235.162V616.419H232.979V623.187H231.837ZM240.45 613.665C240.443 616.023 241.959 618.396 243.849 619.261L243.16 620.198C241.681 619.437 240.458 617.884 239.879 616.031C239.3 617.979 238.077 619.649 236.598 620.433L235.851 619.51C237.762 618.572 239.271 616.067 239.278 613.665V611.292H240.45V613.665ZM242.428 615.555V614.617H245.519V610.164H246.661V623.216H245.519V615.555H242.428ZM259.625 610.164V617.884H258.468V615.833H255.421V616.946H249.444V611.16H255.421V612.288H258.468V610.164H259.625ZM250.587 616.009H254.293V612.098H250.587V616.009ZM250.938 620.726C250.931 619.158 252.594 618.257 255.304 618.265C258.006 618.257 259.669 619.158 259.669 620.726C259.669 622.278 258.006 623.157 255.304 623.157C252.594 623.157 250.931 622.278 250.938 620.726ZM252.081 620.726C252.074 621.67 253.304 622.249 255.304 622.249C257.296 622.249 258.526 621.67 258.526 620.726C258.526 619.744 257.296 619.173 255.304 619.158C253.304 619.173 252.074 619.744 252.081 620.726ZM255.421 614.866H258.468V613.24H255.421V614.866ZM271.974 610.164V613.167H273.937V614.148H271.974V617.239H270.831V610.164H271.974ZM261.822 616.434C265.045 615.665 266.964 614.017 267.169 611.907H262.408V610.955H268.429C268.421 614.222 266.107 616.434 262.262 617.386L261.822 616.434ZM263.243 623.011V617.913H264.312V619.495H266.656V617.913H267.726V623.011H263.243ZM264.312 622.088H266.656V620.389H264.312V622.088ZM267.799 622.249C269.337 621.575 270.099 620.125 270.113 618.88V617.781H271.212V618.836C271.212 620.125 271.966 621.583 273.482 622.249L272.867 623.128C271.776 622.637 271.051 621.736 270.663 620.718C270.267 621.736 269.527 622.637 268.429 623.128L267.799 622.249Z" fill="#818181"/>
<rect x="20" y="659" width="410" height="48" rx="6" fill="#FAFAFA"/>
<path d="M209.469 676.344V686.516H207.984V676.344H209.469ZM198.141 680.75C198.148 678.727 199.758 677.289 201.875 677.281C203.984 677.289 205.594 678.727 205.594 680.75C205.594 682.805 203.984 684.234 201.875 684.234C199.758 684.234 198.148 682.805 198.141 680.75ZM199.594 680.75C199.586 682.07 200.57 682.938 201.875 682.938C203.156 682.938 204.141 682.07 204.141 680.75C204.141 679.461 203.156 678.578 201.875 678.578C200.57 678.578 199.586 679.461 199.594 680.75ZM200.312 690.031V685.484H201.812V688.828H209.891V690.031H200.312ZM224.453 682.922V684.125H211.688V682.922H224.453ZM212.359 681.016C214.898 680.742 216.906 679.602 217.07 678.234H212.859V677.016H223.312V678.234H219.055C219.227 679.594 221.203 680.742 223.797 681.016L223.266 682.188C220.836 681.906 218.828 680.883 218.07 679.406C217.297 680.883 215.305 681.906 212.875 682.188L212.359 681.016ZM213.203 687.766C213.203 686.141 215.023 685.203 218.062 685.203C221.078 685.203 222.883 686.141 222.891 687.766C222.883 689.391 221.078 690.305 218.062 690.297C215.023 690.305 213.203 689.391 213.203 687.766ZM214.703 687.766C214.695 688.648 215.922 689.133 218.062 689.125C220.172 689.133 221.406 688.648 221.406 687.766C221.406 686.859 220.172 686.375 218.062 686.359C215.922 686.375 214.695 686.859 214.703 687.766ZM236.422 676.328V682H238.672V683.234H236.422V690.328H234.953V676.328H236.422ZM225.438 679.734V678.516H228.891V676.516H230.375V678.516H233.734V679.734H225.438ZM226.156 684.016C226.156 682.109 227.625 680.766 229.641 680.766C231.648 680.766 233.117 682.109 233.125 684.016C233.117 685.938 231.648 687.273 229.641 687.281C227.625 687.273 226.156 685.938 226.156 684.016ZM227.578 684.016C227.57 685.234 228.445 686.047 229.641 686.031C230.828 686.047 231.695 685.234 231.703 684.016C231.695 682.82 230.828 681.992 229.641 681.984C228.445 681.992 227.57 682.82 227.578 684.016ZM250.984 676.328V690.328H249.484V676.328H250.984ZM239.484 686.578C243.203 684.805 245.023 682.281 245.312 679.016H240.156V677.828H246.812C246.812 681.93 245.07 685.477 240.266 687.781L239.484 686.578Z" fill="#BEBEBE"/>
<defs>
<clipPath id="clip0_233_3159">
<rect width="18" height="18" fill="white" transform="translate(20 40)"/>
</clipPath>
<clipPath id="clip1_233_3159">
<rect width="18" height="18" fill="white" transform="translate(20 544)"/>
</clipPath>
<clipPath id="clip2_233_3159">
<rect width="18" height="17" fill="white" transform="translate(20 581)"/>
</clipPath>
<clipPath id="clip3_233_3159">
<rect width="18" height="17" fill="white" transform="translate(20 608)"/>
</clipPath>
</defs>
</svg>
