<svg width="450" height="851" viewBox="0 0 450 851" fill="none" xmlns="http://www.w3.org/2000/svg">
<rect width="450" height="851" fill="white"/>
<path d="M134.889 224.617H138.291L144.105 238.861H144.334L150.148 224.617H153.551V243H150.885V229.721H150.707L145.324 242.975H143.115L137.707 229.695H137.555V243H134.889V224.617ZM158.756 248.18C158.197 248.167 157.651 248.154 157.309 248.104V245.844C157.613 245.869 158.146 245.882 158.527 245.895C159.365 245.882 160.063 245.831 160.711 244.092L161.041 243.178L155.988 229.213H158.883L162.361 239.902H162.514L165.992 229.213H168.912L163.225 244.828C162.425 247.012 161.028 248.167 158.756 248.18ZM195.496 222.408V245.209H193.084V222.408H195.496ZM177.926 239.75V224.312H180.338V230.152H186.457V224.312H188.844V239.75H177.926ZM180.338 237.77H186.457V232.057H180.338V237.77ZM211.137 223.627V232.996H200.32V223.627H211.137ZM202.682 231.117H208.75V225.582H202.682V231.117ZM203.037 237.033V235.154H217.967V240.816H205.449V243H218.703V244.93H203.088V239.064H215.605V237.033H203.037ZM215.58 234.062V222.408H217.967V234.062H215.58ZM240.564 222.434V239.242H238.152V230.66H233.176V235.459H222.689V223.932H225.102V227.791H230.789V223.932H233.176V228.705H238.152V222.434H240.564ZM225.102 233.504H230.789V229.645H225.102V233.504ZM225.711 244.676V237.592H228.148V242.721H241.072V244.676H225.711ZM263.771 225.607V227.562H245.059V225.607H253.234V222.738H255.621V225.607H263.771ZM244.068 242.594V240.639H253.234V237.63C249.248 237.376 246.823 235.802 246.836 233.275C246.823 230.533 249.73 228.921 254.428 228.934C259.062 228.921 262.007 230.533 261.994 233.275C262.007 235.802 259.557 237.376 255.621 237.63V240.639H264.889V242.594H244.068ZM249.299 233.275C249.273 234.862 251.178 235.726 254.428 235.738C257.627 235.726 259.544 234.862 259.531 233.275C259.544 231.701 257.627 230.838 254.428 230.838C251.178 230.838 249.273 231.701 249.299 233.275ZM291.752 222.408V234.621H289.34V222.408H291.752ZM273.344 228.73C273.356 225.607 275.921 223.437 279.412 223.449C282.891 223.437 285.455 225.607 285.455 228.73C285.455 231.841 282.891 234.012 279.412 233.986C275.921 234.012 273.356 231.841 273.344 228.73ZM275.705 228.73C275.692 230.698 277.254 232.006 279.412 232.006C281.545 232.006 283.094 230.698 283.094 228.73C283.094 226.788 281.545 225.468 279.412 225.48C277.254 225.468 275.692 226.788 275.705 228.73ZM276.873 244.879V235.713H279.234V238.277H289.365V235.713H291.752V244.879H276.873ZM279.234 242.898H289.365V240.182H279.234V242.898ZM306.199 223.779V230.406H298.684V233.555C302.645 233.555 304.803 233.466 307.367 232.996L307.596 234.951C304.815 235.421 302.479 235.497 297.947 235.51H296.297V228.578H303.787V225.709H296.271V223.779H306.199ZM298.887 239.521V237.566H314.324V245.184H311.912V239.521H298.887ZM307.646 232.412V230.482H311.912V227.664H307.646V225.734H311.912V222.434H314.324V236.424H311.912V232.412H307.646Z" fill="#222222"/>
<path d="M95.6016 268.391V278.547H94.3828V268.391H95.6016ZM84.4609 272.766C84.4531 270.766 86.0234 269.367 88.1016 269.359C90.1797 269.367 91.7344 270.766 91.7422 272.766C91.7344 274.789 90.1797 276.195 88.1016 276.188C86.0234 276.195 84.4531 274.789 84.4609 272.766ZM85.6641 272.766C85.6484 274.148 86.6953 275.109 88.1016 275.109C89.4844 275.109 90.5391 274.148 90.5391 272.766C90.5391 271.406 89.4844 270.438 88.1016 270.438C86.6953 270.438 85.6484 271.406 85.6641 272.766ZM86.6328 281.969V277.516H87.8516V280.938H96.0391V281.969H86.6328ZM110.617 274.984V276H97.9609V274.984H110.617ZM98.6797 273.172C101.102 272.891 103.438 271.695 103.492 270.109H99.1172V269.094H109.492V270.109H105.086C105.141 271.68 107.453 272.891 109.914 273.172L109.461 274.156C107.188 273.867 105.055 272.844 104.289 271.305C103.523 272.844 101.406 273.867 99.1172 274.156L98.6797 273.172ZM99.4922 279.734C99.4844 278.141 101.289 277.219 104.289 277.219C107.266 277.219 109.055 278.141 109.07 279.734C109.055 281.344 107.266 282.234 104.289 282.234C101.289 282.234 99.4844 281.344 99.4922 279.734ZM100.742 279.734C100.727 280.703 102.062 281.258 104.289 281.25C106.492 281.258 107.828 280.703 107.836 279.734C107.828 278.758 106.492 278.203 104.289 278.188C102.062 278.203 100.727 278.758 100.742 279.734ZM116.68 272.109C116.672 274.625 118.289 277.156 120.305 278.078L119.57 279.078C117.992 278.266 116.688 276.609 116.07 274.633C115.453 276.711 114.148 278.492 112.57 279.328L111.773 278.344C113.812 277.344 115.422 274.672 115.43 272.109V269.578H116.68V272.109ZM118.789 274.125V273.125H122.086V268.375H123.305V282.297H122.086V274.125H118.789ZM134.523 272.109C134.516 274.625 136.133 277.156 138.148 278.078L137.414 279.078C135.836 278.266 134.531 276.609 133.914 274.633C133.297 276.711 131.992 278.492 130.414 279.328L129.617 278.344C131.656 277.344 133.266 274.672 133.273 272.109V269.578H134.523V272.109ZM136.633 274.125V273.125H139.93V268.375H141.148V282.297H139.93V274.125H136.633ZM154.977 268.375V276.609H153.742V274.422H150.492V275.609H144.117V269.438H150.492V270.641H153.742V268.375H154.977ZM145.336 274.609H149.289V270.438H145.336V274.609ZM145.711 279.641C145.703 277.969 147.477 277.008 150.367 277.016C153.25 277.008 155.023 277.969 155.023 279.641C155.023 281.297 153.25 282.234 150.367 282.234C147.477 282.234 145.703 281.297 145.711 279.641ZM146.93 279.641C146.922 280.648 148.234 281.266 150.367 281.266C152.492 281.266 153.805 280.648 153.805 279.641C153.805 278.594 152.492 277.984 150.367 277.969C148.234 277.984 146.922 278.594 146.93 279.641ZM150.492 273.391H153.742V271.656H150.492V273.391ZM163.617 268.625C166.703 268.625 168.516 269.477 168.523 271.016C168.516 272.594 166.703 273.445 163.617 273.453C160.516 273.445 158.695 272.594 158.695 271.016C158.695 269.477 160.516 268.625 163.617 268.625ZM157.289 275.391V274.391H169.945V275.391H157.289ZM158.82 277.531V276.594H168.32V279.703H160.07V281.141H168.742V282.109H158.852V278.797H167.117V277.531H158.82ZM159.977 271.016C159.961 271.984 161.312 272.516 163.617 272.516C165.922 272.516 167.266 271.984 167.273 271.016C167.266 270.102 165.922 269.555 163.617 269.547C161.312 269.555 159.961 270.102 159.977 271.016ZM179.711 269.062C181.789 269.047 183.281 270.195 183.273 271.891C183.281 273.586 181.789 274.742 179.711 274.734C177.633 274.742 176.148 273.586 176.148 271.891C176.148 270.195 177.633 269.047 179.711 269.062ZM175.102 275.922C177.711 275.93 181.281 275.875 184.367 275.422L184.445 276.344C183.117 276.586 181.742 276.734 180.398 276.82V281.844H179.18V276.891C177.766 276.953 176.43 276.961 175.273 276.969L175.102 275.922ZM177.352 271.891C177.336 272.977 178.328 273.727 179.711 273.719C181.109 273.727 182.109 272.977 182.102 271.891C182.109 270.812 181.109 270.047 179.711 270.062C178.328 270.047 177.336 270.812 177.352 271.891ZM185.383 282.281V268.391H186.586V282.281H185.383ZM195.898 270.781V271.781H188.93V270.781H191.82V268.797H193.039V270.781H195.898ZM189.43 275.875C189.43 274.031 190.688 272.727 192.414 272.719C194.164 272.727 195.414 274.031 195.43 275.875C195.414 277.742 194.164 279.055 192.414 279.062C190.688 279.055 189.43 277.742 189.43 275.875ZM190.523 275.875C190.523 277.109 191.312 277.992 192.414 277.984C193.523 277.992 194.336 277.109 194.336 275.875C194.336 274.656 193.523 273.766 192.414 273.75C191.312 273.766 190.523 274.656 190.523 275.875ZM196.617 281.578V268.719H197.773V274.234H199.617V268.375H200.789V282.266H199.617V275.25H197.773V281.578H196.617ZM218.258 268.375V282.297H217.023V268.375H218.258ZM207.617 278.938V269.562H208.836V273.234H212.977V269.562H214.18V278.938H207.617ZM208.836 277.906H212.977V274.219H208.836V277.906ZM227.883 269.156V274.812H221.367V269.156H227.883ZM222.57 273.844H226.68V270.156H222.57V273.844ZM223.07 277.219V276.234H232.086V279.547H224.305V281.109H232.586V282.109H223.086V278.641H230.883V277.219H223.07ZM230.883 275.547V268.375H232.086V275.547H230.883ZM245.977 268.391V278.672H244.742V273.328H241.461V276.297H235.164V269.312H236.383V271.781H240.258V269.312H241.461V272.297H244.742V268.391H245.977ZM236.383 275.281H240.258V272.75H236.383V275.281ZM236.992 281.969V277.656H238.227V280.938H246.289V281.969H236.992ZM260.289 270.438V271.453H248.914V270.438H254.008V268.609H255.211V270.438H260.289ZM248.289 280.641V279.625H254.008V277.672C251.531 277.539 250.039 276.578 250.055 275.016C250.039 273.367 251.781 272.391 254.617 272.406C257.414 272.391 259.188 273.367 259.18 275.016C259.188 276.578 257.664 277.539 255.211 277.672V279.625H261.008V280.641H248.289ZM251.289 275.016C251.273 276.07 252.547 276.68 254.617 276.688C256.664 276.68 257.938 276.07 257.93 275.016C257.938 273.984 256.664 273.375 254.617 273.375C252.547 273.375 251.273 273.984 251.289 275.016ZM274.82 274.828V275.797H262.102V274.828H274.82ZM263.633 277.828V276.906H273.227V279.859H264.883V281.188H273.68V282.078H263.648V279.016H272.008V277.828H263.633ZM263.711 269.688V268.797H273.18V271.672H264.977V272.891H273.43V273.781H263.758V270.828H271.945V269.688H263.711ZM291.43 268.375V275.828H290.211V268.375H291.43ZM280.289 272.25C280.281 270.352 281.82 269.047 283.93 269.062C286.039 269.047 287.562 270.352 287.57 272.25C287.562 274.141 286.039 275.445 283.93 275.438C281.82 275.445 280.281 274.141 280.289 272.25ZM281.492 272.25C281.477 273.516 282.5 274.414 283.93 274.422C285.344 274.414 286.367 273.516 286.367 272.25C286.367 270.977 285.344 270.086 283.93 270.094C282.5 270.086 281.477 270.977 281.492 272.25ZM282.43 282.078V276.531H283.648V278.219H290.211V276.531H291.43V282.078H282.43ZM283.648 281.078H290.211V279.203H283.648V281.078ZM300.383 269.234V273.125H295.602V275.281C298.211 275.289 299.562 275.234 301.195 274.938L301.32 275.953C299.594 276.234 298.18 276.281 295.367 276.281H294.383V272.188H299.164V270.219H294.352V269.234H300.383ZM295.945 278.672V277.672H305.305V282.297H304.07V278.672H295.945ZM301.305 274.344V273.328H304.07V271.453H301.305V270.453H304.07V268.391H305.305V276.922H304.07V274.344H301.305ZM314.555 270.781V271.781H307.586V270.781H310.477V268.797H311.695V270.781H314.555ZM308.086 275.875C308.086 274.031 309.344 272.727 311.07 272.719C312.82 272.727 314.07 274.031 314.086 275.875C314.07 277.742 312.82 279.055 311.07 279.062C309.344 279.055 308.086 277.742 308.086 275.875ZM309.18 275.875C309.18 277.109 309.969 277.992 311.07 277.984C312.18 277.992 312.992 277.109 312.992 275.875C312.992 274.656 312.18 273.766 311.07 273.75C309.969 273.766 309.18 274.656 309.18 275.875ZM315.273 281.578V268.719H316.43V274.234H318.273V268.375H319.445V282.266H318.273V275.25H316.43V281.578H315.273ZM328.461 270.344C328.453 272.203 330.93 273.781 333.352 274.141L332.898 275.109C330.734 274.742 328.617 273.586 327.773 271.914C326.93 273.586 324.812 274.742 322.68 275.109L322.195 274.141C324.609 273.781 327.078 272.203 327.086 270.344V270.25H322.633V269.25H332.898V270.25H328.461V270.344ZM321.445 277.312V276.297H334.102V277.312H328.352V282.266H327.148V277.312H321.445ZM339.398 272.328C339.398 274.539 340.477 276.922 342.32 278.016L341.617 278.969C340.273 278.156 339.312 276.672 338.828 274.977C338.32 276.828 337.289 278.422 335.898 279.266L335.117 278.344C337.039 277.219 338.211 274.758 338.211 272.375V269.688H339.398V272.328ZM340.789 274.406V273.359H343.148V268.672H344.305V281.562H343.148V274.406H340.789ZM345.992 282.266V268.375H347.18V282.266H345.992ZM361.82 279.453V280.484H349.102V279.453H352.258V275.711C351.07 275.094 350.352 274.094 350.352 272.828C350.352 270.68 352.461 269.266 355.43 269.25C358.398 269.266 360.508 270.68 360.508 272.828C360.508 274.07 359.812 275.055 358.664 275.672V279.453H361.82ZM351.539 272.828C351.531 274.383 353.148 275.422 355.43 275.422C357.688 275.422 359.32 274.383 359.32 272.828C359.32 271.273 357.688 270.25 355.43 270.266C353.148 270.25 351.531 271.273 351.539 272.828ZM353.461 279.453H357.43V276.148C356.828 276.305 356.156 276.391 355.43 276.391C354.719 276.391 354.055 276.312 353.461 276.156V279.453ZM364.398 281.094C363.852 281.086 363.383 280.633 363.398 280.078C363.383 279.531 363.852 279.078 364.398 279.078C364.953 279.078 365.406 279.531 365.398 280.078C365.406 280.633 364.953 281.086 364.398 281.094Z" fill="#818181"/>
<circle cx="105" cy="346" r="9" fill="#FEE500"/>
<circle cx="153" cy="346" r="9" fill="#FEE500"/>
<rect x="192" y="345" width="18" height="2" fill="#939393"/>
<rect x="240" y="345" width="18" height="2" fill="#939393"/>
<rect x="288" y="345" width="18" height="2" fill="#939393"/>
<rect x="336" y="345" width="18" height="2" fill="#939393"/>
<path d="M74.9854 606.293C70.5176 606.293 67.4414 603.817 67.4561 600.375C67.4414 597.636 69.3457 595.365 71.7627 594.984V594.867C69.6533 594.384 68.2617 592.436 68.2764 590.121C68.2617 586.884 71.1035 584.496 74.9854 584.496C78.8525 584.496 81.6943 586.884 81.7236 590.121C81.6943 592.436 80.2881 594.384 78.208 594.867V594.984C80.6104 595.365 82.5146 597.636 82.5439 600.375C82.5146 603.817 79.4092 606.293 74.9854 606.293ZM70.0928 600.229C70.0488 602.455 71.9385 603.964 74.9854 603.979C78.0176 603.964 79.9072 602.455 79.9072 600.229C79.9072 597.885 77.8418 596.156 74.9854 596.156C72.1436 596.156 70.0488 597.885 70.0928 600.229ZM70.8252 590.326C70.8398 592.465 72.5537 593.915 74.9854 593.93C77.4023 593.915 79.1455 592.465 79.1455 590.326C79.1455 588.202 77.4609 586.767 74.9854 586.781C72.4658 586.767 70.8398 588.202 70.8252 590.326Z" fill="#222222"/>
<path d="M224.854 584.496C228.501 584.54 232.559 586.737 232.559 594.545C232.559 602.089 229.468 606.293 224.502 606.293C220.767 606.293 218.145 604.008 217.617 600.639H220.225C220.693 602.543 222.144 603.949 224.502 603.949C227.959 603.949 230.068 600.961 230.098 595.805H229.805C228.589 597.562 226.641 598.617 224.385 598.617C220.591 598.617 217.441 595.702 217.441 591.615C217.441 587.66 220.342 584.452 224.854 584.496ZM220.02 591.586C220.005 594.208 221.997 596.303 224.766 596.303C227.534 596.303 229.688 594.018 229.688 591.527C229.688 589.096 227.651 586.811 224.854 586.811C222.085 586.811 219.99 588.964 220.02 591.586Z" fill="#222222"/>
<path d="M375.059 606.293C370.84 606.293 367.808 604.037 367.676 600.668H370.342C370.488 602.689 372.495 603.949 375.029 603.949C377.827 603.949 379.849 602.44 379.863 600.229C379.849 597.914 378.003 596.288 374.707 596.273H372.979V593.959H374.707C377.285 593.959 379.087 592.509 379.072 590.326C379.087 588.202 377.534 586.796 375.117 586.781C372.847 586.796 370.781 588.041 370.664 590.121H368.115C368.247 586.752 371.382 584.496 375.146 584.496C379.189 584.496 381.65 587.147 381.621 590.18C381.65 592.597 380.244 594.354 378.018 594.984V595.131C380.786 595.556 382.456 597.533 382.441 600.229C382.456 603.715 379.292 606.293 375.059 606.293Z" fill="#222222"/>
<path d="M68.1885 679L68.1592 677.066L75.3955 669.449C77.9004 666.783 79.1016 665.348 79.1162 663.385C79.1016 661.202 77.2852 659.796 74.8975 659.781C72.3633 659.796 70.7812 661.393 70.7666 663.766H68.2764C68.2471 660.016 71.1475 657.496 74.9854 657.496C78.8379 657.496 81.5625 660.089 81.5771 663.385C81.5625 665.758 80.4639 667.604 76.7139 671.471L71.8506 676.48V676.656H81.958V679H68.1885Z" fill="#222222"/>
<path d="M225.176 679.293C221.499 679.249 217.441 677.066 217.441 669.215C217.441 661.7 220.518 657.496 225.498 657.496C229.233 657.496 231.841 659.796 232.383 663.121H229.775C229.292 661.246 227.856 659.84 225.498 659.84C222.012 659.84 219.917 662.813 219.932 667.926H220.195C221.411 666.153 223.359 665.113 225.645 665.113C229.409 665.113 232.559 668.043 232.559 672.145C232.559 676.144 229.644 679.337 225.176 679.293ZM220.283 672.203C220.298 674.693 222.334 676.964 225.176 676.979C227.915 676.964 229.995 674.811 230.01 672.174C229.995 669.566 228.003 667.442 225.234 667.428C222.451 667.442 220.312 669.698 220.283 672.203Z" fill="#222222"/>
<path d="M377.915 657.789V679H375.249V660.543H375.132L369.976 663.971V661.305L375.249 657.789H377.915Z" fill="#222222"/>
<path d="M67.1045 747.664V745.496L76.6553 730.789H79.9072V745.35H82.8662V747.664H79.9072V752H77.3877V747.664H67.1045ZM69.9463 745.35H77.3877V734.129H77.124L69.9463 745.174V745.35Z" fill="#222222"/>
<path d="M219.39 752L229.116 733.279V733.133H217.896V730.789H231.841V733.25L222.144 752H219.39Z" fill="#222222"/>
<path d="M374.956 752.293C371.133 752.293 368.232 749.935 368.071 746.668H370.62C370.811 748.558 372.656 749.964 374.956 749.979C377.71 749.964 379.702 747.957 379.702 745.291C379.702 742.537 377.637 740.501 374.78 740.486C372.993 740.457 371.602 741.014 370.825 742.391H368.276L369.771 730.789H381.255V733.133H371.968L371.177 739.344H371.382C372.334 738.611 373.755 738.113 375.249 738.113C379.292 738.113 382.266 741.102 382.28 745.232C382.266 749.334 379.189 752.293 374.956 752.293Z" fill="#222222"/>
<path d="M66.7578 807.875V821.766H65.5703V814.547H63.6797V821.062H62.5078V808.172H63.6797V813.5H65.5703V807.875H66.7578ZM54.6797 817.953C56.6797 816.852 57.75 814.492 57.7422 811.672V810.562H55.0078V809.531H61.5078V810.562H58.9297V811.672C58.9297 814.211 59.9844 816.453 61.9609 817.469L61.2266 818.422C59.8281 817.656 58.8594 816.289 58.3672 814.594C57.8906 816.523 56.9062 818.039 55.4453 818.891L54.6797 817.953ZM70.3359 809.203V812.594H73.3516V809.203H74.4922V818.297H69.1641V809.203H70.3359ZM70.3359 817.281H73.3516V813.594H70.3359V817.281ZM76.2578 821.062V808.172H77.4297V813.391H79.3672V807.875H80.5547V821.766H79.3672V814.406H77.4297V821.062H76.2578ZM86.3047 808.375C87.5312 808.367 88.5625 808.82 89.2031 809.578H92.7578V807.875H93.9766V815.016H92.7578V813.422H89.2344C88.6016 814.211 87.5547 814.68 86.3047 814.672C84.2109 814.68 82.6875 813.398 82.6953 811.516C82.6875 809.648 84.2109 808.367 86.3047 808.375ZM83.8672 811.516C83.8672 812.773 84.8828 813.672 86.3047 813.688C87.6797 813.672 88.7109 812.773 88.7109 811.516C88.7109 810.266 87.6797 809.375 86.3047 809.391C84.8828 809.375 83.8672 810.266 83.8672 811.516ZM84.9766 816.703V815.719H93.9766V819.047H86.2266V820.594H94.5078V821.578H85.0078V818.109H92.7578V816.703H84.9766ZM89.75 810.562C89.8438 810.859 89.8984 811.18 89.8984 811.516C89.8984 811.844 89.8516 812.148 89.7578 812.438H92.7578V810.562H89.75Z" fill="#222222"/>
<path d="M225 825.293C220.298 825.293 217.573 821.338 217.588 814.395C217.573 807.51 220.327 803.496 225 803.496C229.658 803.496 232.412 807.51 232.412 814.395C232.412 821.338 229.702 825.293 225 825.293ZM220.137 814.395C220.151 819.888 221.924 822.949 225 822.949C228.062 822.949 229.849 819.888 229.834 814.395C229.849 808.901 228.047 805.796 225 805.781C221.953 805.796 220.151 808.901 220.137 814.395Z" fill="#222222"/>
<mask id="mask0_238_2412" style="mask-type:alpha" maskUnits="userSpaceOnUse" x="355" y="794" width="40" height="41">
<rect x="355" y="794.5" width="40" height="40" fill="#D9D9D9"/>
</mask>
<g mask="url(#mask0_238_2412)">
<path d="M370.641 824.5C370.043 824.5 369.479 824.364 368.95 824.093C368.421 823.822 367.983 823.442 367.634 822.955L362.785 816.064C362.454 815.588 362.288 815.066 362.288 814.5C362.288 813.934 362.454 813.413 362.785 812.936L367.634 806.109C367.983 805.622 368.416 805.232 368.934 804.939C369.452 804.646 370.021 804.5 370.641 804.5H385.641C386.386 804.5 387.022 804.762 387.546 805.287C388.071 805.811 388.333 806.447 388.333 807.192V821.808C388.333 822.553 388.071 823.189 387.546 823.713C387.022 824.238 386.386 824.5 385.641 824.5H370.641ZM370.641 822.833H385.641C385.897 822.833 386.132 822.727 386.346 822.513C386.56 822.299 386.666 822.064 386.666 821.808V807.192C386.666 806.936 386.56 806.701 386.346 806.487C386.132 806.273 385.897 806.167 385.641 806.167H370.641C370.32 806.167 370.016 806.247 369.727 806.407C369.439 806.567 369.209 806.765 369.038 807L364.115 813.891C363.987 814.062 363.923 814.265 363.923 814.5C363.923 814.735 363.987 814.938 364.115 815.109L369.038 822C369.209 822.235 369.439 822.433 369.727 822.593C370.016 822.753 370.32 822.833 370.641 822.833ZM377.756 815.68L381.5 819.423C381.656 819.579 381.847 819.662 382.074 819.673C382.3 819.684 382.502 819.6 382.679 819.423C382.857 819.246 382.945 819.049 382.945 818.833C382.945 818.618 382.857 818.421 382.679 818.244L378.936 814.5L382.679 810.756C382.835 810.6 382.919 810.409 382.929 810.183C382.94 809.956 382.857 809.754 382.679 809.577C382.502 809.4 382.305 809.311 382.089 809.311C381.874 809.311 381.677 809.4 381.5 809.577L377.756 813.32L374.013 809.577C373.857 809.421 373.665 809.338 373.439 809.327C373.212 809.316 373.01 809.4 372.833 809.577C372.656 809.754 372.567 809.951 372.567 810.167C372.567 810.383 372.656 810.579 372.833 810.756L376.577 814.5L372.833 818.244C372.677 818.4 372.594 818.591 372.583 818.817C372.573 819.044 372.656 819.246 372.833 819.423C373.01 819.6 373.207 819.689 373.423 819.689C373.639 819.689 373.835 819.6 374.013 819.423L377.756 815.68Z" fill="#797378"/>
</g>
</svg>
