<svg width="450" height="851" viewBox="0 0 450 851" fill="none" xmlns="http://www.w3.org/2000/svg">
<rect width="450" height="851" fill="white"/>
<rect width="450" height="851" fill="black" fill-opacity="0.5"/>
<rect x="25" y="280" width="400" height="291" rx="2" fill="white"/>
<mask id="mask0_250_1491" style="mask-type:alpha" maskUnits="userSpaceOnUse" x="213" y="300" width="24" height="24">
<rect x="213" y="300" width="24" height="24" fill="#D9D9D9"/>
</mask>
<g mask="url(#mask0_250_1491)">
<path d="M232.44 320.5C230.556 320.5 228.663 320.062 226.76 319.186C224.859 318.309 223.11 317.073 221.514 315.477C219.924 313.881 218.691 312.133 217.815 310.235C216.938 308.336 216.5 306.444 216.5 304.56C216.5 304.26 216.6 304.008 216.8 303.805C217 303.602 217.25 303.5 217.55 303.5H220.812C221.064 303.5 221.287 303.582 221.48 303.747C221.673 303.912 221.796 304.115 221.848 304.358L222.421 307.3C222.461 307.573 222.453 307.808 222.396 308.004C222.34 308.2 222.238 308.365 222.092 308.498L219.783 310.746C220.154 311.427 220.579 312.071 221.057 312.678C221.534 313.285 222.051 313.865 222.608 314.417C223.156 314.966 223.74 315.476 224.358 315.946C224.976 316.417 225.643 316.855 226.36 317.26L228.604 314.996C228.76 314.833 228.95 314.719 229.172 314.654C229.395 314.588 229.626 314.572 229.866 314.606L232.642 315.171C232.895 315.238 233.101 315.367 233.26 315.558C233.42 315.749 233.5 315.965 233.5 316.208V319.45C233.5 319.75 233.398 320 233.195 320.2C232.992 320.4 232.74 320.5 232.44 320.5Z" fill="#02837B"/>
</g>
<path d="M147.912 360.594V362.549H130.166V360.594H137.814V356.361H132.121V346.994H145.871V356.361H140.178V360.594H147.912ZM134.463 354.492H143.508V348.906H134.463V354.492ZM163.95 345.49V352.881H166.937V354.9H163.95V364.912H161.566V345.49H163.95ZM149.427 360.357V347.08H151.79V351.936H156.366V347.08H158.751V360.357H149.427ZM151.79 358.402H156.366V353.805H151.79V358.402ZM172.813 346.113C175.757 346.124 177.948 347.939 177.969 350.496C177.948 353.063 175.757 354.868 172.813 354.879C169.848 354.868 167.657 353.063 167.657 350.496C167.657 347.939 169.848 346.124 172.813 346.113ZM169.977 350.496C169.977 352 171.18 352.945 172.813 352.945C174.446 352.945 175.638 352 175.649 350.496C175.638 349.024 174.446 348.079 172.813 348.09C171.18 348.079 169.977 349.024 169.977 350.496ZM170.6 358.016V356.146H183.491V361.217H172.985V362.785H184.071V364.676H170.643V359.455H181.106V358.016H170.6ZM181.085 355.309V345.49H183.491V355.309H181.085ZM206.931 345.512V359.756H204.546V353.225H200.808V351.248H204.546V345.512H206.931ZM190.925 355.803C195.104 354.481 197.865 352 198.327 348.928H191.935V346.973H200.937C200.937 352.097 197.553 355.921 191.935 357.715L190.925 355.803ZM194.277 364.525V358.316H196.705V362.592H207.425V364.525H194.277ZM224.56 345.49V350.217H227.267V352.172H224.56V356.877H222.175V345.49H224.56ZM209.177 355.244C213.57 354.041 216.191 351.667 216.6 348.756H210.058V346.822H219.188C219.199 351.925 215.869 355.556 210.122 357.178L209.177 355.244ZM211.798 361.002C211.776 358.606 214.376 357.113 218.286 357.113C222.229 357.113 224.774 358.606 224.774 361.002C224.774 363.419 222.229 364.901 218.286 364.891C214.376 364.901 211.776 363.419 211.798 361.002ZM214.161 361.002C214.15 362.27 215.719 363.021 218.286 363.021C220.843 363.021 222.422 362.27 222.433 361.002C222.422 359.724 220.843 358.982 218.286 358.982C215.719 358.982 214.15 359.724 214.161 361.002ZM245.561 360.615V362.57H227.815V360.615H235.463V356.834H229.77V346.779H232.155V349.959H241.157V346.779H243.541V356.834H237.827V360.615H245.561ZM232.155 354.9H241.157V351.871H232.155V354.9ZM262.652 345.49V357.242H260.267V353.225H257.496V351.248H260.267V345.49H262.652ZM246.432 349.229V347.295H250.943V345.34H253.307V347.295H257.818V349.229H246.432ZM247.527 353.461C247.516 351.42 249.439 349.98 252.125 349.98C254.832 349.98 256.733 351.42 256.744 353.461C256.733 355.556 254.832 356.941 252.125 356.941C249.439 356.941 247.516 355.556 247.527 353.461ZM249.74 364.676V358.123H262.652V364.676H249.74ZM249.805 353.461C249.805 354.535 250.728 355.158 252.125 355.158C253.511 355.158 254.445 354.535 254.445 353.461C254.445 352.419 253.511 351.785 252.125 351.785C250.728 351.785 249.805 352.419 249.805 353.461ZM252.125 362.742H260.31V360.014H252.125V362.742ZM282.665 354.535V356.469H264.962V354.535H282.665ZM265.822 351.785C269.42 351.431 271.762 349.991 272.127 348.369H266.574V346.414H281.076V348.369H275.468C275.823 349.97 278.143 351.431 281.827 351.785L280.99 353.676C277.455 353.311 274.845 351.903 273.792 349.938C272.74 351.903 270.161 353.311 266.638 353.676L265.822 351.785ZM267.025 361.324C267.025 359.068 269.571 357.758 273.792 357.758C277.982 357.758 280.506 359.068 280.517 361.324C280.506 363.612 277.982 364.891 273.792 364.891C269.571 364.891 267.025 363.612 267.025 361.324ZM269.452 361.324C269.442 362.452 270.967 363.011 273.792 363.021C276.575 363.011 278.111 362.452 278.132 361.324C278.111 360.196 276.575 359.627 273.792 359.627C270.967 359.627 269.442 360.196 269.452 361.324ZM300.036 345.641V364.74H298.403V345.641H300.036ZM283.901 353.891C283.912 349.83 285.523 347.263 288.005 347.252C290.325 347.263 291.893 349.497 292.108 353.096H294.579V346.049H296.19V363.773H294.579V354.492H292.119C291.958 358.209 290.357 360.54 288.005 360.529C285.523 360.54 283.912 357.951 283.901 353.891ZM285.491 353.891C285.469 356.984 286.458 358.939 288.005 358.918C289.562 358.939 290.551 356.984 290.54 353.891C290.551 350.786 289.562 348.842 288.005 348.842C286.458 348.842 285.469 350.786 285.491 353.891ZM308.963 350.775C308.952 354.234 311.176 357.715 313.947 358.982L312.938 360.357C310.768 359.24 308.974 356.963 308.125 354.245C307.277 357.103 305.483 359.552 303.313 360.701L302.217 359.348C305.021 357.973 307.234 354.299 307.244 350.775V347.295H308.963V350.775ZM311.863 353.547V352.172H316.397V345.641H318.072V364.783H316.397V353.547H311.863ZM143.438 376.662V390.67H141.74V383.344H137.809V381.947H141.74V376.662H143.438ZM127.69 386.846C130.504 385.857 132.545 383.333 132.545 380.594V379.605H128.227V378.209H138.518V379.605H134.242V380.594C134.242 383.064 136.154 385.46 138.947 386.416L138.066 387.77C135.918 386.985 134.253 385.385 133.426 383.408C132.599 385.621 130.837 387.372 128.57 388.221L127.69 386.846ZM131.17 395.332V389.402H132.867V393.914H143.975V395.332H131.17ZM161.001 376.641V384.783H164.052V386.201H161.001V395.74H159.304V376.641H161.001ZM145.941 390.648C147.499 390.648 149.314 390.638 151.205 390.584V388.479C148.981 388.221 147.531 386.91 147.552 385.02C147.531 382.86 149.357 381.464 152.064 381.475C154.728 381.464 156.586 382.86 156.597 385.02C156.586 386.921 155.115 388.221 152.902 388.479V390.52C154.674 390.434 156.479 390.283 158.144 390.047L158.251 391.336C154.084 392.045 149.572 392.088 146.22 392.088L145.941 390.648ZM146.285 380.357V378.982H151.205V376.684H152.902V378.982H157.8V380.357H146.285ZM149.121 385.02C149.131 386.341 150.292 387.211 152.064 387.189C153.804 387.211 154.975 386.341 154.986 385.02C154.975 383.688 153.804 382.785 152.064 382.785C150.292 382.785 149.131 383.688 149.121 385.02ZM182.218 385.514V386.846H164.729V385.514H182.218ZM166.835 389.639V388.371H180.026V392.432H168.554V394.258H180.649V395.482H166.856V391.271H178.351V389.639H166.835ZM166.942 378.445V377.221H179.962V381.174H168.683V382.85H180.306V384.074H167.007V380.014H178.265V378.445H166.942ZM204.24 376.641V386.459H202.543V382.656H198.31V381.26H202.543V376.641H204.24ZM188.707 385.471C193.283 384.364 196.033 382.055 196.366 378.982H189.695V377.586H198.16C198.16 382.334 194.808 385.481 189.308 386.867L188.707 385.471ZM191.865 388.65V387.275H204.24V391.938H193.584V394.172H204.885V395.568H191.908V390.648H202.543V388.65H191.865ZM222.298 378.574V380.486C222.277 382.828 222.277 385.449 221.589 389.295L219.87 389.102C220.59 385.449 220.59 382.774 220.601 380.486V379.971H208.827V378.574H222.298ZM206.98 393.033V391.637H213.812V384.805H215.466V391.637H224.382V393.033H206.98ZM241.227 378.123V379.133C241.216 380.39 241.216 382.291 240.733 384.783L239.035 384.654C239.497 382.377 239.54 380.755 239.562 379.541H231.709V378.123H241.227ZM230.527 386.566C231.763 386.566 233.159 386.556 234.631 386.513V382.355H236.307V386.459C238.423 386.373 240.614 386.223 242.602 385.943L242.709 387.189C238.702 387.877 234.105 387.952 230.699 387.963L230.527 386.566ZM233.471 395.332V389.725H235.168V393.914H246.233V395.332H233.471ZM243.891 391.014V376.641H245.61V382.871H248.402V384.311H245.61V391.014H243.891ZM264.978 376.641V395.783H263.302V376.641H264.978ZM250.283 379.82V378.424H259.177V385.213H252.045V389.725C255.213 389.735 258.039 389.585 261.455 389.037L261.627 390.455C258.114 391.003 255.213 391.143 251.916 391.143H250.326V383.838H257.48V379.82H250.283ZM282.564 376.641V384.525H285.765V385.922H282.564V395.74H280.888V376.641H282.564ZM267.675 381.109V379.713H272.595V376.877H274.271V379.713H279.04V381.109H267.675ZM268.771 387.082C268.76 384.504 270.736 382.699 273.454 382.699C276.15 382.699 278.116 384.504 278.138 387.082C278.116 389.671 276.15 391.465 273.454 391.465C270.736 391.465 268.76 389.671 268.771 387.082ZM270.382 387.082C270.371 388.822 271.671 390.047 273.454 390.025C275.216 390.047 276.505 388.822 276.526 387.082C276.505 385.353 275.216 384.106 273.454 384.117C271.671 384.106 270.371 385.353 270.382 387.082ZM301.782 385.6V386.975H295.874V391.916H303.844V393.334H286.356V391.916H294.219V386.975H288.59V378.209H301.588V379.584H290.288V385.6H301.782ZM322.396 387.168V388.564H304.908V387.168H312.814V385.148H307.185V380.486H318.443V378.51H307.121V377.135H320.141V381.754H308.861V383.795H320.549V385.148H314.469V387.168H322.396ZM306.863 391.4V390.025H320.248V395.568H318.551V391.4H306.863ZM157.57 410.713V412.109H146.204V410.713H151.038V407.877H152.714V410.713H157.57ZM147.386 418.082C147.386 415.515 149.287 413.699 151.898 413.699C154.487 413.699 156.366 415.515 156.388 418.082C156.366 420.628 154.487 422.465 151.898 422.465C149.287 422.465 147.386 420.628 147.386 418.082ZM148.976 418.082C148.954 419.801 150.222 421.015 151.898 421.004C153.573 421.015 154.83 419.801 154.841 418.082C154.83 416.385 153.573 415.149 151.898 415.139C150.222 415.149 148.954 416.385 148.976 418.082ZM157.161 417.094V415.676H160.363V407.641H162.038V426.74H160.363V417.094H157.161ZM182.18 417.094V418.49H164.778V417.094H169.096V414.397C167.571 413.807 166.712 412.84 166.712 411.551C166.712 409.306 169.29 408.017 173.479 408.006C177.636 408.017 180.215 409.306 180.225 411.551C180.215 412.829 179.366 413.796 177.862 414.397V417.094H182.18ZM166.883 423.324C166.873 421.144 169.333 419.94 173.479 419.951C177.572 419.94 180.032 421.144 180.053 423.324C180.032 425.505 177.572 426.697 173.479 426.697C169.333 426.697 166.873 425.505 166.883 423.324ZM168.452 411.551C168.441 412.947 170.353 413.753 173.479 413.764C176.573 413.753 178.496 412.947 178.507 411.551C178.496 410.176 176.573 409.338 173.479 409.338C170.353 409.338 168.441 410.176 168.452 411.551ZM168.602 423.324C168.581 424.624 170.418 425.397 173.479 425.387C176.508 425.397 178.345 424.624 178.356 423.324C178.345 422.024 176.508 421.262 173.479 421.24C170.418 421.262 168.581 422.024 168.602 423.324ZM170.772 417.094H176.186V414.849C175.381 414.999 174.478 415.074 173.479 415.074C172.48 415.074 171.578 414.999 170.772 414.859V417.094ZM198.133 407.641V415.525H201.334V416.922H198.133V426.74H196.457V407.641H198.133ZM183.244 412.109V410.713H188.164V407.877H189.84V410.713H194.609V412.109H183.244ZM184.34 418.082C184.329 415.504 186.306 413.699 189.024 413.699C191.72 413.699 193.686 415.504 193.707 418.082C193.686 420.671 191.72 422.465 189.024 422.465C186.306 422.465 184.329 420.671 184.34 418.082ZM185.951 418.082C185.941 419.822 187.24 421.047 189.024 421.025C190.785 421.047 192.074 419.822 192.096 418.082C192.074 416.353 190.785 415.106 189.024 415.117C187.24 415.106 185.941 416.353 185.951 418.082ZM208.714 412.775C208.704 416.267 211.078 419.769 213.892 421.047L212.861 422.379C210.68 421.326 208.8 419.06 207.887 416.342C207.006 419.221 205.127 421.638 202.892 422.766L201.818 421.348C204.665 420.048 207.017 416.396 207.039 412.775V409.295H208.714V412.775ZM215.976 426.783V407.641H217.673V426.783H215.976ZM228.964 409.059C228.964 410.53 228.695 411.873 228.169 413.098H231.263V408.07H232.874V418.404H231.263V414.494H227.417C226.171 416.406 224.205 417.942 221.573 419.07L220.692 417.824C224.613 416.224 226.88 413.688 227.224 410.455H221.509V409.059H228.964ZM221.638 425.43C224.044 424.56 225.548 422.476 225.548 420.639V419.35H227.159V420.639C227.138 422.357 228.051 424.141 229.855 425.183C231.692 424.033 232.627 422.089 232.638 420.639V419.35H234.271V420.639C234.271 422.615 235.721 424.624 238.181 425.43L237.343 426.676C235.431 425.999 234.088 424.656 233.433 423.045C232.853 424.603 231.692 426.085 229.909 426.848C228.04 426.117 226.88 424.688 226.321 423.077C225.634 424.635 224.312 425.978 222.497 426.676L221.638 425.43ZM235.108 418.705V407.662H236.72V418.705H235.108ZM242.961 419.113V421.348H252.5V419.113H254.198V426.482H241.286V419.113H242.961ZM239.073 417.76V416.363H256.475V417.76H239.073ZM240.061 413.656C243.466 413.194 246.914 411.186 246.914 408.758V407.855H248.655V408.758C248.644 411.11 252.124 413.227 255.487 413.656L254.864 415.01C251.91 414.569 248.998 413.065 247.785 410.928C246.571 413.076 243.649 414.569 240.706 415.01L240.061 413.656ZM242.961 425.129H252.5V422.68H242.961V425.129ZM273.394 407.641V426.74H271.719V407.641H273.394ZM258.892 421.82V409.531H260.547V420.359C263.469 420.338 266.476 420.112 269.678 419.436L269.914 420.875C266.519 421.584 263.501 421.82 260.439 421.82H258.892ZM291.345 407.641V415.525H294.245V416.943H291.345V426.74H289.648V407.641H291.345ZM276.156 421.455C279.034 418.501 280.205 414.945 280.42 411.143H276.757V409.725H282.021C281.999 414.269 280.979 418.759 277.509 422.422L276.156 421.455ZM281.634 422.744C284.62 419.371 285.512 415.128 285.673 411.143H282.622V409.725H287.263C287.252 414.258 286.586 419.532 283.009 423.689L281.634 422.744ZM297.844 420.51C297.866 417.631 298.747 416.75 300.229 415.848C301.121 415.311 301.798 414.451 301.798 413.248C301.798 411.787 300.659 410.853 299.241 410.863C298.016 410.853 296.781 411.583 296.663 413.355H294.708C294.815 410.745 296.781 409.23 299.241 409.23C301.937 409.23 303.688 410.96 303.688 413.334C303.688 415.021 302.893 416.191 301.561 417.008C300.219 417.824 299.735 418.651 299.692 420.51V420.617H297.844V420.51ZM297.458 423.732C297.436 422.98 298.081 422.357 298.833 422.357C299.595 422.357 300.219 422.98 300.208 423.732C300.219 424.495 299.595 425.118 298.833 425.129C298.081 425.118 297.436 424.495 297.458 423.732Z" fill="black"/>
<mask id="path-5-inside-1_250_1491" fill="white">
<path d="M25 459H425V515H25V459Z"/>
</mask>
<path d="M25 460H425V458H25V460Z" fill="#DDDDDD" mask="url(#path-5-inside-1_250_1491)"/>
<path d="M219.828 482.609V483.625H211.562V482.609H215.078V480.547H216.297V482.609H219.828ZM212.422 487.969C212.422 486.102 213.805 484.781 215.703 484.781C217.586 484.781 218.953 486.102 218.969 487.969C218.953 489.82 217.586 491.156 215.703 491.156C213.805 491.156 212.422 489.82 212.422 487.969ZM213.578 487.969C213.562 489.219 214.484 490.102 215.703 490.094C216.922 490.102 217.836 489.219 217.844 487.969C217.836 486.734 216.922 485.836 215.703 485.828C214.484 485.836 213.562 486.734 213.578 487.969ZM219.531 487.25V486.219H221.859V480.375H223.078V494.266H221.859V487.25H219.531ZM237.727 487.25V488.266H225.071V487.25H228.211V485.289C227.102 484.859 226.477 484.156 226.477 483.219C226.477 481.586 228.352 480.648 231.399 480.641C234.422 480.648 236.297 481.586 236.305 483.219C236.297 484.148 235.68 484.852 234.586 485.289V487.25H237.727ZM226.602 491.781C226.594 490.195 228.383 489.32 231.399 489.328C234.375 489.32 236.164 490.195 236.18 491.781C236.164 493.367 234.375 494.234 231.399 494.234C228.383 494.234 226.594 493.367 226.602 491.781ZM227.743 483.219C227.735 484.234 229.125 484.82 231.399 484.828C233.649 484.82 235.047 484.234 235.055 483.219C235.047 482.219 233.649 481.609 231.399 481.609C229.125 481.609 227.735 482.219 227.743 483.219ZM227.852 491.781C227.836 492.727 229.172 493.289 231.399 493.281C233.602 493.289 234.938 492.727 234.946 491.781C234.938 490.836 233.602 490.281 231.399 490.266C229.172 490.281 227.836 490.836 227.852 491.781ZM229.43 487.25H233.368V485.617C232.782 485.727 232.125 485.781 231.399 485.781C230.672 485.781 230.016 485.727 229.43 485.625V487.25Z" fill="#02837B"/>
<mask id="path-8-inside-2_250_1491" fill="white">
<path d="M25 515H425V571H25V515Z"/>
</mask>
<path d="M25 516H425V514H25V516Z" fill="#DDDDDD" mask="url(#path-8-inside-2_250_1491)"/>
<path d="M223.062 536.375V550.266H221.844V542.984H218.531V541.969H221.844V536.375H223.062ZM211.578 546.641C215.336 544.82 217.078 542.141 217.328 538.891H212.188V537.891H218.562C218.555 541.828 216.891 545.32 212.25 547.625L211.578 546.641ZM237.774 544.625V545.625H231.977V550.266H230.774V545.625H225.055V544.625H237.774ZM226.68 542.938V536.953H227.899V538.875H234.899V536.953H236.133V542.938H226.68ZM227.899 541.938H234.899V539.875H227.899V541.938Z" fill="#02837B"/>
</svg>
