<svg width="450" height="730" viewBox="0 0 450 730" fill="none" xmlns="http://www.w3.org/2000/svg">
<rect width="450" height="730" fill="white"/>
<rect width="450" height="58" fill="white"/>
<mask id="mask0_250_991" style="mask-type:alpha" maskUnits="userSpaceOnUse" x="14" y="17" width="24" height="24">
<rect x="14" y="17" width="24" height="24" fill="#D9D9D9"/>
</mask>
<g mask="url(#mask0_250_991)">
<path d="M23.0152 28.9994L30.248 36.2321C30.43 36.4141 30.5227 36.6397 30.526 36.9089C30.5292 37.1782 30.4397 37.4039 30.2577 37.5859C30.0756 37.7679 29.8499 37.8589 29.5807 37.8589C29.3116 37.8589 29.0859 37.7679 28.9038 37.5859L21.4578 30.1301C21.2936 29.9659 21.1762 29.7884 21.1057 29.5974C21.0352 29.4064 21 29.207 21 28.9994C21 28.7917 21.0352 28.5924 21.1057 28.4014C21.1762 28.2104 21.2936 28.0328 21.4578 27.8686L28.9038 20.4224C29.0859 20.2404 29.31 20.1478 29.576 20.1446C29.842 20.1414 30.066 20.2309 30.248 20.4129C30.43 20.5949 30.521 20.8205 30.521 21.0899C30.521 21.359 30.43 21.5846 30.248 21.7666L23.0152 28.9994Z" fill="#222222"/>
</g>
<path d="M197.656 126.055C201.21 126.055 203.685 127.969 203.699 130.867C203.685 133.383 201.73 135.188 198.804 135.557V137.936C201.074 137.812 203.384 137.607 205.503 137.293L205.667 138.906C200.513 139.822 194.689 139.904 190.492 139.891L190.218 138.113C192.105 138.127 194.32 138.113 196.644 138.031V135.57C193.636 135.242 191.626 133.424 191.64 130.867C191.626 127.969 194.101 126.055 197.656 126.055ZM193.664 130.867C193.636 132.713 195.29 133.971 197.656 133.984C200.035 133.971 201.662 132.713 201.675 130.867C201.662 128.98 200.035 127.723 197.656 127.723C195.29 127.723 193.636 128.98 193.664 130.867ZM193.773 148.668V141.914H195.933V146.863H210.097V148.668H193.773ZM207.062 143.527V124.934H209.222V133.164H212.859V134.996H209.222V143.527H207.062ZM217.248 126.355V130.402H224.029V126.355H226.135V128.816H231.877V124.906H234.037V139.371H231.877V135.543H226.135V137.977H215.115V126.355H217.248ZM217.248 136.199H224.029V132.098H217.248V136.199ZM217.686 142.406V140.656H234.037V149.215H231.877V142.406H217.686ZM226.135 133.766H231.877V130.594H226.135V133.766ZM256.528 124.934V132.945H260.192V134.75H256.528V143.145H254.395V124.934H256.528ZM237.579 129.664V127.914H243.758V124.934H245.891V127.914H252.071V129.664H237.579ZM238.973 135.543C238.96 132.781 241.311 131.004 244.825 131.004C248.297 131.004 250.649 132.781 250.676 135.543C250.649 138.277 248.297 140.041 244.825 140.027C241.311 140.041 238.96 138.277 238.973 135.543ZM241.024 135.543C241.01 137.252 242.528 138.359 244.825 138.332C247.094 138.359 248.626 137.252 248.653 135.543C248.626 133.807 247.094 132.686 244.825 132.699C242.528 132.686 241.01 133.807 241.024 135.543ZM241.325 148.695V141.695H243.43V146.891H257.649V148.695H241.325ZM172.307 163.906V188.215H170.201V175.5H166.838V187.012H164.787V164.562H166.838V173.723H170.201V163.906H172.307ZM151.58 181.488C157.227 178.33 159.551 173.887 159.92 168.855H152.51V167.078H162.026C161.998 173.258 159.825 179.096 152.838 182.992L151.58 181.488ZM195.263 163.934V181.707H193.13V163.934H195.263ZM175.766 171.59C175.753 168.09 178.501 165.643 182.138 165.629C185.774 165.643 188.495 168.09 188.509 171.59C188.495 175.131 185.774 177.592 182.138 177.578C178.501 177.592 175.753 175.131 175.766 171.59ZM177.872 171.59C177.845 174.01 179.677 175.691 182.138 175.691C184.558 175.691 186.403 174.01 186.403 171.59C186.403 169.211 184.558 167.516 182.138 167.516C179.677 167.516 177.845 169.211 177.872 171.59ZM179.567 187.695V179.902H181.7V185.891H196.028V187.695H179.567ZM218.984 163.906V178.398H216.824V172.027H211.929V170.25H216.824V163.906H218.984ZM198.941 176.457C202.55 175.158 205.121 171.863 205.121 168.391V167.488H199.624V165.684H212.722V167.488H207.281V168.363C207.281 171.535 209.714 174.557 213.269 175.773L212.148 177.496C209.427 176.512 207.308 174.461 206.255 171.959C205.216 174.803 202.96 177.072 200.062 178.18L198.941 176.457ZM202.769 183.676C202.755 180.818 205.859 179.15 210.917 179.164C215.962 179.15 219.066 180.818 219.066 183.676C219.066 186.547 215.962 188.188 210.917 188.215C205.859 188.188 202.755 186.547 202.769 183.676ZM204.902 183.676C204.888 185.439 207.185 186.506 210.917 186.492C214.636 186.506 216.933 185.439 216.933 183.676C216.933 181.898 214.636 180.832 210.917 180.832C207.185 180.832 204.888 181.898 204.902 183.676ZM244.729 183.32V185.098H222.471V183.32H232.479V178.07H225.096V165.629H227.256V170.031H239.889V165.629H241.994V178.07H234.584V183.32H244.729ZM227.256 176.32H239.889V171.781H227.256V176.32ZM274.835 183.32V185.098H252.577V183.32H262.585V178.07H255.202V165.629H257.362V170.031H269.995V165.629H272.101V178.07H264.691V183.32H274.835ZM257.362 176.32H269.995V171.781H257.362V176.32ZM297.216 167.516V169.293H277.31V167.516H286.224V164.316H288.33V167.516H297.216ZM276.216 185.371V183.594H286.224V180.176C281.89 179.943 279.279 178.262 279.306 175.527C279.279 172.643 282.328 170.934 287.291 170.961C292.185 170.934 295.289 172.643 295.275 175.527C295.289 178.262 292.623 179.943 288.33 180.176V183.594H298.474V185.371H276.216ZM281.466 175.527C281.439 177.373 283.668 178.439 287.291 178.453C290.873 178.439 293.101 177.373 293.088 175.527C293.101 173.723 290.873 172.656 287.291 172.656C283.668 172.656 281.439 173.723 281.466 175.527Z" fill="black"/>
<g clip-path="url(#clip0_250_991)">
<circle cx="225" cy="296" r="70" fill="#F2F3F7"/>
<path d="M224.674 342.966C224.404 342.966 224.135 342.934 223.877 342.869C223.489 342.773 185.4 332.698 185.4 292.955V263.939C185.4 262.879 185.928 261.884 186.811 261.284C187.693 260.684 188.824 260.567 189.814 260.952C193.184 262.28 196.651 262.954 200.106 262.954C208.697 262.954 216.729 259.003 222.122 252.119C222.736 251.337 223.672 250.877 224.674 250.877C225.675 250.877 226.611 251.337 227.225 252.119C232.619 259.003 240.65 262.954 249.241 262.954C252.697 262.954 256.152 262.28 259.533 260.952C260.523 260.556 261.654 260.684 262.536 261.284C263.419 261.884 263.947 262.879 263.947 263.939V292.955C263.947 332.773 225.847 342.773 225.459 342.869C225.201 342.934 224.932 342.966 224.674 342.966Z" fill="#EF403C"/>
<path d="M234.92 290.594H234.847V286.624C234.847 280.986 230.287 276.4 224.68 276.4C219.072 276.4 214.512 280.986 214.512 286.624V290.594H214.439C211.506 290.594 209.133 292.986 209.133 295.93V310.265C209.133 313.214 211.511 315.6 214.439 315.6H234.915C237.848 315.6 240.221 313.209 240.221 310.265V295.93C240.221 292.981 237.843 290.594 234.915 290.594H234.92ZM217.627 286.624C217.627 282.711 220.793 279.527 224.685 279.527C228.577 279.527 231.743 282.711 231.743 286.624V290.594H217.627V286.624ZM226.24 305.372V307.977C226.24 308.842 225.545 309.54 224.685 309.54C223.825 309.54 223.13 308.842 223.13 307.977V305.372C221.482 304.741 220.306 303.136 220.306 301.261C220.306 298.832 222.27 296.858 224.685 296.858C227.1 296.858 229.064 298.832 229.064 301.261C229.064 303.136 227.888 304.741 226.24 305.372Z" fill="white"/>
</g>
<path d="M157.158 408.984C157.147 412.922 159.033 416.789 162.408 418.266L160.838 420.352C158.447 419.18 156.76 416.93 155.857 414.152C154.932 417.082 153.197 419.52 150.76 420.75L149.119 418.641C152.576 417.023 154.498 412.945 154.51 408.984V405.609H157.158V408.984ZM160.065 412.852V410.742H164.518V403.898H167.096V425.109H164.518V412.852H160.065ZM187.217 403.898V425.109H184.592V403.898H187.217ZM170.717 420.117V405.633H173.319V410.93H178.452V405.633H181.03V420.117H170.717ZM173.319 417.984H178.452V412.969H173.319V417.984ZM200.8 406.805C200.8 410.074 203.999 413.367 208.44 414.141L207.269 416.32C203.718 415.582 200.812 413.426 199.429 410.578C198.034 413.402 195.128 415.57 191.589 416.32L190.44 414.141C194.812 413.344 198.022 410.062 198.034 406.805V405.234H200.8V406.805ZM189.855 422.391V420.234H209.214V422.391H189.855ZM232.957 403.898V425.109H230.332V403.898H232.957ZM216.012 412.922C216 408.352 218.332 405.445 221.543 405.445C224.719 405.445 227.062 408.352 227.074 412.922C227.062 417.527 224.719 420.422 221.543 420.422C218.332 420.422 216 417.527 216.012 412.922ZM218.52 412.922C218.52 416.18 219.75 418.066 221.543 418.078C223.324 418.066 224.543 416.18 224.543 412.922C224.543 409.688 223.324 407.789 221.543 407.789C219.75 407.789 218.52 409.688 218.52 412.922ZM254.907 414.094V416.18H235.594V414.094H240.094V411.41C238.489 410.73 237.586 409.664 237.586 408.281C237.586 405.738 240.551 404.25 245.227 404.25C249.891 404.25 252.856 405.738 252.868 408.281C252.856 409.676 251.942 410.742 250.336 411.41V414.094H254.907ZM237.844 421.242C237.844 418.805 240.598 417.445 245.227 417.469C249.786 417.445 252.551 418.805 252.563 421.242C252.551 423.703 249.786 425.039 245.227 425.039C240.598 425.039 237.844 423.703 237.844 421.242ZM240.305 408.281C240.282 409.57 242.098 410.262 245.227 410.25C248.344 410.262 250.172 409.57 250.172 408.281C250.172 406.98 248.344 406.254 245.227 406.266C242.098 406.254 240.282 406.98 240.305 408.281ZM240.493 421.242C240.481 422.438 242.145 423.082 245.227 423.07C248.262 423.082 249.938 422.438 249.961 421.242C249.938 420.059 248.262 419.449 245.227 419.438C242.145 419.449 240.481 420.059 240.493 421.242ZM242.719 414.094H247.735V412.078C246.973 412.184 246.129 412.242 245.227 412.242C244.325 412.242 243.481 412.184 242.719 412.078V414.094ZM269.087 408.984C269.064 412.875 271.115 416.766 274.548 418.242L273.001 420.328C270.564 419.203 268.783 416.965 267.798 414.199C266.826 417.176 264.997 419.613 262.431 420.82L260.837 418.641C264.365 417.117 266.427 413.074 266.439 408.984V405.609H269.087V408.984ZM276.072 425.109V403.898H278.697V425.109H276.072ZM299.615 403.898V425.086H297.107V403.898H299.615ZM281.545 413.062C281.545 408.398 283.35 405.504 286.115 405.516C288.682 405.504 290.428 407.906 290.732 411.867H292.771V404.273H295.256V424.055H292.771V413.977H290.756C290.51 418.113 288.74 420.645 286.115 420.633C283.35 420.645 281.545 417.738 281.545 413.062ZM283.959 413.062C283.947 416.379 284.768 418.16 286.115 418.148C287.521 418.16 288.353 416.379 288.365 413.062C288.353 409.758 287.521 407.965 286.115 407.977C284.768 407.965 283.947 409.758 283.959 413.062Z" fill="#EF403C"/>
<path d="M148.582 446.078V447.59H156.316V446.078H157.687V451.229H147.21V446.078H148.582ZM145.312 453.689V452.582H159.55V453.689H145.312ZM147.035 456.186V455.131H157.722V458.594H148.441V460.158H158.197V461.248H147.07V457.574H156.369V456.186H147.035ZM148.582 450.174H156.316V448.645H148.582V450.174ZM174.8 454.41V455.553H160.491V454.41H166.96V452.758H162.354V448.943H171.565V447.326H162.302V446.201H172.954V449.98H163.725V451.65H173.288V452.758H168.313V454.41H174.8ZM162.091 457.873V456.748H173.042V461.283H171.653V457.873H162.091ZM180.276 450.613C180.284 453.127 181.559 455.702 183.686 456.836L182.895 457.873C181.339 457.021 180.214 455.403 179.643 453.522C179.089 455.526 177.973 457.284 176.408 458.225L175.582 457.17C177.709 455.939 178.966 453.197 178.975 450.613V449.84H176.004V448.697H178.975V446.377H180.293V448.697H183.211V449.84H180.276V450.613ZM182.139 453.145V451.967H184.6V446.184H185.901V460.615H184.6V453.145H182.139ZM187.746 461.424V445.797H189.065V461.424H187.746ZM203.804 445.814V457.24H202.433V445.814H203.804ZM191.271 450.736C191.262 448.486 193.029 446.913 195.367 446.904C197.705 446.913 199.454 448.486 199.463 450.736C199.454 453.013 197.705 454.595 195.367 454.586C193.029 454.595 191.262 453.013 191.271 450.736ZM192.625 450.736C192.607 452.292 193.785 453.373 195.367 453.373C196.922 453.373 198.109 452.292 198.109 450.736C198.109 449.207 196.922 448.117 195.367 448.117C193.785 448.117 192.607 449.207 192.625 450.736ZM193.714 461.09V456.08H195.086V459.93H204.296V461.09H193.714ZM223.176 445.797V461.424H221.787V445.797H223.176ZM210.45 457.363C214.677 455.359 216.839 452.362 217.147 448.627H211.17V447.502H218.553C218.535 451.993 216.444 455.975 211.205 458.488L210.45 457.363ZM233.293 446.482C233.284 448.425 236.105 449.919 238.918 450.262L238.425 451.316C235.965 450.982 233.556 449.884 232.572 448.196C231.57 449.884 229.153 450.982 226.718 451.316L226.244 450.262C229.048 449.919 231.869 448.425 231.869 446.482V445.885H233.293V446.482ZM225.453 453.461V452.336H239.691V453.461H233.24V455.025H237.863V458.576H228.582V460.158H238.338V461.248H227.211V457.539H236.509V456.115H227.175V455.025H231.869V453.461H225.453ZM247.769 446.078C251.24 446.078 253.279 447.036 253.288 448.768C253.279 450.543 251.24 451.501 247.769 451.51C244.279 451.501 242.231 450.543 242.231 448.768C242.231 447.036 244.279 446.078 247.769 446.078ZM240.649 453.689V452.564H254.888V453.689H240.649ZM242.372 456.098V455.043H253.06V458.541H243.778V460.158H253.534V461.248H242.407V457.521H251.706V456.098H242.372ZM243.673 448.768C243.655 449.857 245.176 450.455 247.769 450.455C250.361 450.455 251.873 449.857 251.882 448.768C251.873 447.739 250.361 447.124 247.769 447.115C245.176 447.124 243.655 447.739 243.673 448.768ZM272.888 445.797V461.459H271.5V445.797H272.888ZM260.584 452.459C260.593 449.137 262.245 447.019 264.574 447.01C266.894 447.019 268.573 449.137 268.564 452.459C268.573 455.79 266.894 457.899 264.574 457.891C262.245 457.899 260.593 455.79 260.584 452.459ZM261.92 452.459C261.92 454.999 263.01 456.669 264.574 456.66C266.147 456.669 267.228 454.999 267.228 452.459C267.228 449.919 266.147 448.249 264.574 448.24C263.01 448.249 261.92 449.919 261.92 452.459ZM289.439 453.531V454.674H275.2V453.531H278.734V451.325C277.485 450.842 276.782 450.051 276.782 448.996C276.782 447.159 278.892 446.104 282.319 446.096C285.721 446.104 287.83 447.159 287.839 448.996C287.83 450.042 287.136 450.833 285.905 451.325V453.531H289.439ZM276.923 458.629C276.914 456.845 278.927 455.86 282.319 455.869C285.668 455.86 287.681 456.845 287.698 458.629C287.681 460.413 285.668 461.389 282.319 461.389C278.927 461.389 276.914 460.413 276.923 458.629ZM278.206 448.996C278.197 450.139 279.762 450.798 282.319 450.807C284.851 450.798 286.424 450.139 286.433 448.996C286.424 447.871 284.851 447.186 282.319 447.186C279.762 447.186 278.197 447.871 278.206 448.996ZM278.329 458.629C278.312 459.692 279.815 460.325 282.319 460.316C284.798 460.325 286.301 459.692 286.31 458.629C286.301 457.565 284.798 456.941 282.319 456.924C279.815 456.941 278.312 457.565 278.329 458.629ZM280.105 453.531H284.534V451.694C283.875 451.817 283.137 451.879 282.319 451.879C281.502 451.879 280.764 451.817 280.105 451.703V453.531ZM298.202 448.504V449.629H290.362V448.504H293.614V446.271H294.985V448.504H298.202ZM290.924 454.234C290.924 452.16 292.339 450.692 294.282 450.684C296.25 450.692 297.657 452.16 297.674 454.234C297.657 456.335 296.25 457.812 294.282 457.82C292.339 457.812 290.924 456.335 290.924 454.234ZM292.155 454.234C292.155 455.623 293.042 456.616 294.282 456.607C295.53 456.616 296.444 455.623 296.444 454.234C296.444 452.863 295.53 451.861 294.282 451.844C293.042 451.861 292.155 452.863 292.155 454.234ZM299.01 460.65V446.184H300.311V452.389H302.385V445.797H303.704V461.424H302.385V453.531H300.311V460.65H299.01ZM176.896 485.242V486.385H162.587V485.242H168.986V481.41H170.339V485.242H176.896ZM163.15 480.443C165.883 479.978 168.924 477.692 168.933 475.064V473.869H170.375V475.064C170.383 477.675 173.468 479.978 176.193 480.443L175.578 481.586C173.196 481.094 170.682 479.485 169.671 477.235C168.643 479.477 166.156 481.094 163.765 481.586L163.15 480.443ZM192.022 480.109V481.252H185.571V482.922C188.516 483.054 190.265 484.012 190.282 485.664C190.265 487.413 188.252 488.389 184.903 488.389C181.511 488.389 179.498 487.413 179.507 485.664C179.498 484.012 181.238 483.054 184.218 482.922V481.252H177.784V480.109H192.022ZM178.593 478.07C181.3 477.789 183.91 476.409 184.007 474.66H179.085V473.535H190.757V474.66H185.8C185.896 476.409 188.48 477.789 191.231 478.07L190.722 479.16C188.164 478.853 185.765 477.701 184.903 475.97C184.042 477.701 181.66 478.853 179.085 479.16L178.593 478.07ZM180.913 485.664C180.895 486.701 182.398 487.325 184.903 487.316C187.382 487.325 188.885 486.701 188.893 485.664C188.885 484.601 187.382 483.994 184.903 483.977C182.398 483.994 180.895 484.601 180.913 485.664ZM205.198 472.814V477.965H207.553V479.125H205.198V484.521H203.826V472.814H205.198ZM193.016 475.855V474.73H196.989V472.814H198.36V474.73H202.332V475.855H193.016ZM193.912 479.635C193.904 477.859 195.415 476.717 197.674 476.717C199.907 476.717 201.418 477.859 201.436 479.635C201.418 481.393 199.907 482.526 197.674 482.518C195.415 482.526 193.904 481.393 193.912 479.635ZM195.231 479.635C195.222 480.733 196.198 481.445 197.674 481.428C199.133 481.445 200.117 480.733 200.135 479.635C200.117 478.519 199.133 477.798 197.674 477.807C196.198 477.798 195.222 478.519 195.231 479.635ZM195.424 488.09V483.59H196.778V486.93H205.918V488.09H195.424ZM225.677 472.797V488.424H224.323V480.25H222.161V487.65H220.843V473.219H222.161V479.107H224.323V472.797H225.677ZM212.353 484.1C215.982 482.069 217.477 479.213 217.714 475.979H212.95V474.836H219.067C219.05 478.809 217.652 482.562 213.161 485.066L212.353 484.1ZM240.434 472.814V484.24H239.063V472.814H240.434ZM227.901 477.736C227.892 475.486 229.659 473.913 231.996 473.904C234.334 473.913 236.083 475.486 236.092 477.736C236.083 480.013 234.334 481.595 231.996 481.586C229.659 481.595 227.892 480.013 227.901 477.736ZM229.254 477.736C229.237 479.292 230.414 480.373 231.996 480.373C233.552 480.373 234.739 479.292 234.739 477.736C234.739 476.207 233.552 475.117 231.996 475.117C230.414 475.117 229.237 476.207 229.254 477.736ZM230.344 488.09V483.08H231.715V486.93H240.926V488.09H230.344ZM255.683 472.797V482.113H254.295V478.018H251.148V476.875H254.295V472.797H255.683ZM242.799 480.865C245.119 480.03 246.771 477.912 246.771 475.68V475.1H243.238V473.939H251.658V475.1H248.16V475.662C248.16 477.701 249.724 479.644 252.009 480.426L251.289 481.533C249.54 480.9 248.177 479.582 247.501 477.974C246.833 479.802 245.383 481.261 243.519 481.973L242.799 480.865ZM245.259 485.506C245.251 483.669 247.246 482.597 250.498 482.605C253.741 482.597 255.736 483.669 255.736 485.506C255.736 487.352 253.741 488.406 250.498 488.424C247.246 488.406 245.251 487.352 245.259 485.506ZM246.631 485.506C246.622 486.64 248.098 487.325 250.498 487.316C252.888 487.325 254.365 486.64 254.365 485.506C254.365 484.363 252.888 483.678 250.498 483.678C248.098 483.678 246.622 484.363 246.631 485.506ZM272.233 485.277V486.42H257.925V485.277H264.358V481.902H259.612V473.904H261.001V476.734H269.122V473.904H270.476V481.902H265.712V485.277H272.233ZM261.001 480.777H269.122V477.859H261.001V480.777ZM287.413 480.057V481.146H273.104V480.057H287.413ZM274.827 483.432V482.395H285.62V485.717H276.233V487.211H286.129V488.213H274.844V484.768H284.248V483.432H274.827ZM274.914 474.273V473.271H285.567V476.506H276.338V477.877H285.848V478.879H274.967V475.557H284.178V474.273H274.914ZM165.101 499.797V504.561H167.456V505.721H165.101V511.328H163.73V499.797H165.101ZM153.183 504.754C153.174 502.486 154.949 500.913 157.279 500.904C159.625 500.913 161.374 502.486 161.392 504.754C161.374 507.013 159.625 508.604 157.279 508.604C154.949 508.604 153.174 507.013 153.183 504.754ZM154.536 504.754C154.528 506.292 155.732 507.391 157.279 507.391C158.852 507.391 160.029 506.292 160.038 504.754C160.029 503.207 158.852 502.117 157.279 502.117C155.732 502.117 154.528 503.207 154.536 504.754ZM155.327 515.09V510.133H156.681V513.93H165.821V515.09H155.327ZM181.036 499.814V511.275H179.647V505.281H176.43V504.139H179.647V499.814H181.036ZM168.151 508.146C170.454 507.338 172.124 505.272 172.124 503.031V502.223H168.59V501.08H177.01V502.223H173.512V503.031C173.512 505.053 175.077 507.013 177.362 507.795L176.641 508.902C174.883 508.261 173.521 506.951 172.844 505.334C172.168 507.145 170.726 508.577 168.872 509.271L168.151 508.146ZM170.999 515.09V510.238H172.387V513.93H181.475V515.09H170.999ZM195.371 499.797V506.248H197.99V507.391H195.371V515.424H194V499.797H195.371ZM183.189 503.453V502.311H187.215V499.99H188.586V502.311H192.488V503.453H183.189ZM184.086 508.34C184.077 506.23 185.694 504.754 187.918 504.754C190.124 504.754 191.732 506.23 191.75 508.34C191.732 510.458 190.124 511.926 187.918 511.926C185.694 511.926 184.077 510.458 184.086 508.34ZM185.404 508.34C185.395 509.764 186.459 510.766 187.918 510.748C189.359 510.766 190.414 509.764 190.432 508.34C190.414 506.925 189.359 505.905 187.918 505.914C186.459 505.905 185.395 506.925 185.404 508.34ZM211.851 499.797V515.424H210.533V499.797H211.851ZM198.491 511.047C201.884 509.034 203.589 506.213 203.853 502.943H199.159V501.801H205.224C205.224 503.339 204.978 504.824 204.442 506.213H207.245V500.219H208.564V514.633H207.245V507.338H203.932C202.991 509.157 201.48 510.766 199.3 512.049L198.491 511.047ZM232.137 512.277V513.42H217.828V512.277H224.262V508.902H219.516V500.904H220.904V503.734H229.025V500.904H230.379V508.902H225.615V512.277H232.137ZM220.904 507.777H229.025V504.859H220.904V507.777ZM246.525 502.117V503.26H233.728V502.117H239.458V500.061H240.812V502.117H246.525ZM233.025 513.596V512.453H239.458V510.256C236.672 510.106 234.994 509.025 235.011 507.268C234.994 505.413 236.953 504.314 240.144 504.332C243.29 504.314 245.286 505.413 245.277 507.268C245.286 509.025 243.572 510.106 240.812 510.256V512.453H247.333V513.596H233.025ZM236.4 507.268C236.382 508.454 237.815 509.14 240.144 509.148C242.447 509.14 243.879 508.454 243.87 507.268C243.879 506.107 242.447 505.422 240.144 505.422C237.815 505.422 236.382 506.107 236.4 507.268ZM260.438 499.797V503.805H262.794V504.982H260.438V508.885H259.067V499.797H260.438ZM248.257 502.557V501.414H252.229V499.656H253.6V501.414H257.573V502.557H248.257ZM249.153 506.02C249.144 504.35 250.647 503.286 252.915 503.277C255.156 503.286 256.659 504.35 256.676 506.02C256.659 507.689 255.156 508.771 252.915 508.762C250.647 508.771 249.144 507.689 249.153 506.02ZM250.471 506.02C250.463 507.039 251.438 507.707 252.915 507.707C254.374 507.707 255.358 507.039 255.376 506.02C255.358 505.009 254.374 504.332 252.915 504.35C251.438 504.332 250.463 505.009 250.471 506.02ZM250.559 515.213V509.57H251.93V511.24H259.067V509.57H260.438V515.213H250.559ZM251.93 514.105H259.067V512.33H251.93V514.105ZM276.303 499.797V515.424H274.932V499.797H276.303ZM264.438 511.398V501.344H265.791V510.203C268.182 510.186 270.643 510.001 273.262 509.447L273.455 510.625C270.678 511.205 268.208 511.398 265.703 511.398H264.438ZM290.708 499.797V505.984H293.328V507.145H290.708V515.459H289.337V499.797H290.708ZM279.3 511.539V501.326H286.595V502.469H280.671V510.379C283.501 510.37 285.497 510.247 287.826 509.816L288.001 511.012C285.549 511.451 283.501 511.539 280.531 511.539H279.3ZM295.464 514.105C294.848 514.097 294.321 513.587 294.339 512.963C294.321 512.348 294.848 511.838 295.464 511.838C296.088 511.838 296.597 512.348 296.589 512.963C296.597 513.587 296.088 514.097 295.464 514.105Z" fill="#222222"/>
<circle cx="208" cy="587.5" r="4.5" fill="#323C59"/>
<circle cx="225" cy="587.5" r="4" fill="white" stroke="#323C59"/>
<circle cx="242" cy="587.5" r="4" fill="white" stroke="#323C59"/>
<rect x="20" y="654" width="150" height="56" rx="8" fill="#EEEEEE"/>
<path d="M76.2641 673.18V686.07H74.4086V679.996H70.7758V678.453H74.4086V673.18H76.2641ZM61.9281 682.633C65.8246 681.373 68.4711 679 68.852 676.031H62.8266V674.488H70.893C70.8734 679.059 67.7387 682.496 62.7094 684.117L61.9281 682.633ZM64.9945 690.289V684.742H66.8695V688.785H76.7133V690.289H64.9945ZM93.1687 673.16V690.699H91.3133V680.328H86.0984V678.805H91.3133V673.16H93.1687ZM79.4969 686.48V675.094H81.3719V684.938C83.8719 684.898 86.2254 684.742 88.7742 684.234L89.0086 685.758C86.1863 686.334 83.6473 686.49 80.9031 686.48H79.4969ZM110.152 673.18V690.66H108.296V673.18H110.152ZM95.3469 682.711C98.8723 682.711 103.306 682.721 107.3 682.242L107.398 683.609C105.708 683.873 103.999 684.029 102.32 684.117V690.094H100.464V684.195C98.7355 684.254 97.0852 684.254 95.5812 684.254L95.3469 682.711ZM96.4211 680.758V674.41H100.952V675.914H98.257V679.264C99.1652 679.234 100.083 679.156 101.148 678.922L101.284 680.406C99.7414 680.738 98.55 680.768 97.2219 680.758H96.4211ZM101.87 680.758V674.41H106.538V675.914H103.687V679.273H106.655V680.758H101.87ZM126.88 673.16V690.66H125.005V673.16H126.88ZM112.505 685.973C117.154 683.756 119.429 680.602 119.791 676.52H113.345V675.035H121.666C121.666 680.162 119.488 684.596 113.482 687.477L112.505 685.973Z" fill="#323C59"/>
<rect x="180" y="654" width="250" height="56" rx="8" fill="#323C59"/>
<path d="M302.192 673.16V679.938H305.005V681.461H302.192V690.699H300.337V673.16H302.192ZM289.302 686.344V674.84H297.485V676.344H291.157V684.801C294.096 684.791 296.294 684.664 298.794 684.215L299.028 685.777C296.284 686.266 293.96 686.354 290.708 686.344H289.302ZM313.413 673.531C317.251 673.521 319.654 674.771 319.663 676.891C319.654 678.971 317.251 680.201 313.413 680.191C309.585 680.201 307.154 678.971 307.163 676.891C307.154 674.771 309.585 673.521 313.413 673.531ZM305.445 683.043V681.539H321.402V683.043H305.445ZM307.359 690.445V684.605H319.448V690.445H307.359ZM309.077 676.891C309.068 678.053 310.718 678.736 313.413 678.746C316.089 678.736 317.759 678.053 317.749 676.891C317.759 675.68 316.089 674.986 313.413 674.996C310.718 674.986 309.068 675.68 309.077 676.891ZM309.195 688.941H317.652V686.09H309.195V688.941Z" fill="white"/>
<defs>
<clipPath id="clip0_250_991">
<rect width="140" height="140" fill="white" transform="translate(155 226)"/>
</clipPath>
</defs>
</svg>
