<svg width="450" height="851" viewBox="0 0 450 851" fill="none" xmlns="http://www.w3.org/2000/svg">
<rect width="450" height="851" fill="white"/>
<rect width="450" height="58" fill="white"/>
<mask id="mask0_250_1431" style="mask-type:alpha" maskUnits="userSpaceOnUse" x="14" y="17" width="24" height="24">
<rect x="14" y="17" width="24" height="24" fill="#D9D9D9"/>
</mask>
<g mask="url(#mask0_250_1431)">
<path d="M23.0152 28.9994L30.248 36.2321C30.43 36.4141 30.5227 36.6397 30.526 36.9089C30.5292 37.1782 30.4397 37.4039 30.2577 37.5859C30.0756 37.7679 29.8499 37.8589 29.5807 37.8589C29.3116 37.8589 29.0859 37.7679 28.9038 37.5859L21.4578 30.1301C21.2936 29.9659 21.1762 29.7884 21.1057 29.5974C21.0352 29.4064 21 29.207 21 28.9994C21 28.7917 21.0352 28.5924 21.1057 28.4014C21.1762 28.2104 21.2936 28.0328 21.4578 27.8686L28.9038 20.4224C29.0859 20.2404 29.31 20.1478 29.576 20.1446C29.842 20.1414 30.066 20.2309 30.248 20.4129C30.43 20.5949 30.521 20.8205 30.521 21.0899C30.521 21.359 30.43 21.5846 30.248 21.7666L23.0152 28.9994Z" fill="#222222"/>
</g>
<path d="M29.2422 88.8164C29.2295 93.082 31.2734 97.2715 34.9297 98.8711L33.2285 101.131C30.6387 99.8613 28.8105 97.4238 27.833 94.415C26.8301 97.5889 24.9512 100.229 22.3105 101.562L20.5332 99.2773C24.2783 97.5254 26.3604 93.1074 26.373 88.8164V85.1602H29.2422V88.8164ZM32.3906 93.0059V90.7207H37.2148V83.3066H40.0078V106.285H37.2148V93.0059H32.3906ZM61.8062 83.3066V106.285H58.9624V83.3066H61.8062ZM43.9312 100.877V85.1855H46.7495V90.9238H52.3101V85.1855H55.103V100.877H43.9312ZM46.7495 98.5664H52.3101V93.1328H46.7495V98.5664ZM76.5205 86.4551C76.5205 89.9971 79.9864 93.5645 84.7979 94.4023L83.5284 96.7637C79.6817 95.9639 76.5332 93.6279 75.0352 90.543C73.5245 93.6025 70.376 95.9512 66.542 96.7637L65.2979 94.4023C70.0332 93.5391 73.5118 89.9844 73.5245 86.4551V84.7539H76.5205V86.4551ZM64.6631 103.34V101.004H85.6358V103.34H64.6631ZM111.357 83.3066V106.285H108.514V83.3066H111.357ZM93.0001 93.082C92.9874 88.1309 95.5137 84.9824 98.9923 84.9824C102.433 84.9824 104.972 88.1309 104.984 93.082C104.972 98.0713 102.433 101.207 98.9923 101.207C95.5137 101.207 92.9874 98.0713 93.0001 93.082ZM95.7169 93.082C95.7169 96.6113 97.0499 98.6553 98.9923 98.668C100.922 98.6553 102.242 96.6113 102.242 93.082C102.242 89.5781 100.922 87.5215 98.9923 87.5215C97.0499 87.5215 95.7169 89.5781 95.7169 93.082ZM135.136 94.3516V96.6113H114.214V94.3516H119.089V91.4443C117.35 90.708 116.373 89.5527 116.373 88.0547C116.373 85.2998 119.585 83.6875 124.65 83.6875C129.703 83.6875 132.915 85.2998 132.927 88.0547C132.915 89.5654 131.924 90.7207 130.185 91.4443V94.3516H135.136ZM116.652 102.096C116.652 99.4551 119.635 97.9824 124.65 98.0078C129.588 97.9824 132.585 99.4551 132.597 102.096C132.585 104.762 129.588 106.209 124.65 106.209C119.635 106.209 116.652 104.762 116.652 102.096ZM119.318 88.0547C119.293 89.4512 121.26 90.2002 124.65 90.1875C128.027 90.2002 130.007 89.4512 130.007 88.0547C130.007 86.6455 128.027 85.8584 124.65 85.8711C121.26 85.8584 119.293 86.6455 119.318 88.0547ZM119.521 102.096C119.508 103.391 121.311 104.089 124.65 104.076C127.938 104.089 129.754 103.391 129.779 102.096C129.754 100.813 127.938 100.153 124.65 100.141C121.311 100.153 119.508 100.813 119.521 102.096ZM121.933 94.3516H127.367V92.168C126.542 92.2822 125.628 92.3457 124.65 92.3457C123.672 92.3457 122.758 92.2822 121.933 92.168V94.3516ZM146.601 83.6621C151.831 83.6748 154.865 85.0586 154.878 87.5977C154.865 90.1621 151.831 91.5459 146.601 91.5586C141.383 91.5459 138.323 90.1621 138.323 87.5977C138.323 85.0586 141.383 83.6748 146.601 83.6621ZM136.165 95.0371V92.7773H157.087V95.0371H136.165ZM138.628 98.668V96.5859H154.472V102.197H141.421V103.898H155.107V106.057H138.653V100.191H151.704V98.668H138.628ZM141.294 87.5977C141.281 88.8672 143.109 89.4512 146.601 89.4512C150.143 89.4512 151.958 88.8672 151.958 87.5977C151.958 86.417 150.143 85.7441 146.601 85.7441C143.109 85.7441 141.281 86.417 141.294 87.5977ZM171.256 84.3223C174.747 84.3096 177.274 86.2646 177.274 89.1465C177.274 91.9775 174.747 93.958 171.256 93.9453C167.803 93.958 165.289 91.9775 165.289 89.1465C165.289 86.2646 167.803 84.3096 171.256 84.3223ZM163.791 95.5195C167.93 95.5195 173.732 95.4434 178.67 94.707L178.873 96.7891C176.893 97.1699 174.836 97.4111 172.83 97.5635V105.549H169.986V97.7285C167.866 97.8174 165.873 97.8428 164.147 97.8555L163.791 95.5195ZM168.031 89.1465C168.019 90.6826 169.377 91.6475 171.256 91.6348C173.211 91.6475 174.582 90.6826 174.582 89.1465C174.582 87.5596 173.211 86.582 171.256 86.6074C169.377 86.582 168.019 87.5596 168.031 89.1465ZM180.168 106.234V83.332H182.961V106.234H180.168ZM196.914 86.9629V89.2227H185.666V86.9629H189.931V83.9668H192.724V86.9629H196.914ZM186.326 95.7734C186.3 92.6504 188.421 90.4287 191.328 90.4414C194.248 90.4287 196.33 92.6504 196.33 95.7734C196.33 98.96 194.248 101.182 191.328 101.182C188.421 101.182 186.3 98.96 186.326 95.7734ZM188.814 95.7734C188.801 97.627 189.842 98.7822 191.328 98.7695C192.8 98.7822 193.841 97.627 193.841 95.7734C193.841 93.9707 192.8 92.7773 191.328 92.7773C189.842 92.7773 188.801 93.9707 188.814 95.7734ZM197.879 105.219V83.7891H200.519V92.752H202.754V83.3066H205.445V106.26H202.754V95.0371H200.519V105.219H197.879ZM232.538 83.3066V96.9414H229.719V91.3301H225.809V89.0195H229.719V83.3066H232.538ZM213.241 94.6562C216.935 93.3867 218.878 90.3018 218.878 87.2676V87.0898H214.104V84.8047H226.495V87.0898H221.747V87.2422C221.747 90.0352 223.6 92.8535 227.155 94.0469L225.733 96.2812C223.181 95.418 221.379 93.666 220.363 91.5078C219.36 93.9453 217.443 95.9258 214.714 96.8906L213.241 94.6562ZM216.973 101.893C216.948 99.1377 219.931 97.5254 224.768 97.5254C229.631 97.5254 232.601 99.1377 232.614 101.893C232.601 104.647 229.631 106.247 224.768 106.26C219.931 106.247 216.948 104.647 216.973 101.893ZM219.766 101.893C219.754 103.314 221.582 104.089 224.768 104.076C227.98 104.089 229.796 103.314 229.796 101.893C229.796 100.458 227.98 99.6836 224.768 99.6836C221.582 99.6836 219.754 100.458 219.766 101.893ZM256.24 101.182V103.492H235.268V101.182H244.307V96.7129H237.578V84.8301H240.397V88.5879H251.035V84.8301H253.854V96.7129H247.1V101.182H256.24ZM240.397 94.4277H251.035V90.8477H240.397V94.4277ZM274.827 85.2109C274.815 88.0928 278.052 91.0254 282.952 91.6602L281.835 93.9453C277.938 93.3613 274.84 91.4443 273.342 88.8545C271.844 91.4443 268.759 93.3613 264.9 93.9453L263.783 91.6602C268.632 91.0254 271.857 88.1182 271.857 85.2109V84.043H274.827V85.2109ZM262.868 98.2617V95.9258H283.79V98.2617H274.675V106.26H271.882V98.2617H262.868ZM298.352 84.6777V86.9375H293.528C293.566 89.6289 295.547 92.2188 299.165 93.2344L297.743 95.4434C295.09 94.6562 293.173 92.9932 292.132 90.873C291.091 93.1582 289.136 94.9609 286.393 95.8242L284.971 93.6152C288.64 92.5361 290.621 89.7939 290.684 86.9375H285.733V84.6777H298.352ZM288.755 105.98V96.7637H291.548V99.125H301.12V96.7637H303.938V105.98H288.755ZM291.548 103.695H301.12V101.309H291.548V103.695ZM301.095 95.748V83.3066H303.938V95.748H301.095ZM41.9883 120.506V122.791H38.8652V125.432H41.9883V127.793H38.8652V130.865H36.0469V117.307H38.8652V120.506H41.9883ZM21.0156 124.137C21.0029 120.912 23.6689 118.602 27.2109 118.627C30.7402 118.602 33.3809 120.912 33.4062 124.137C33.3809 127.412 30.7402 129.685 27.2109 129.697C23.6689 129.685 21.0029 127.412 21.0156 124.137ZM23.5801 134.141V131.855H38.8652V140.26H36.0469V134.141H23.5801ZM23.7832 124.137C23.7705 126.092 25.2305 127.298 27.2109 127.285C29.166 127.298 30.626 126.092 30.6387 124.137C30.626 122.22 29.166 121.026 27.2109 121.014C25.2305 121.026 23.7705 122.22 23.7832 124.137ZM55.5347 119.008V120.379C55.5093 121.94 55.5093 124.226 54.9761 127.133L52.1831 126.879C52.6402 124.518 52.729 122.753 52.7544 121.344H43.8296V119.008H55.5347ZM42.4585 128.961C43.8169 128.948 45.3404 128.936 46.9527 128.91V124.238H49.7456V128.821C52.1196 128.72 54.5571 128.542 56.7788 128.225L56.9312 130.256C52.1577 131.119 46.7368 131.208 42.7124 131.221L42.4585 128.961ZM45.8862 139.803V132.973H48.73V137.518H61.7554V139.803H45.8862ZM58.1245 134.496V117.307H61.0191V124.467H63.9898V126.828H61.0191V134.496H58.1245ZM84.4678 117.307V140.26H81.751V117.307H84.4678ZM64.8916 127.234C64.8916 122.182 66.8467 119.046 69.8428 119.059C72.6231 119.046 74.5147 121.648 74.8448 125.939H77.0537V117.713H79.7452V139.143H77.0537V128.225H74.8702C74.6036 132.706 72.6866 135.448 69.8428 135.436C66.8467 135.448 64.8916 132.3 64.8916 127.234ZM67.5069 127.234C67.4942 130.827 68.3829 132.757 69.8428 132.744C71.3662 132.757 72.2676 130.827 72.2803 127.234C72.2676 123.654 71.3662 121.712 69.8428 121.725C68.3829 121.712 67.4942 123.654 67.5069 127.234ZM113.211 128.301V130.561H92.2637V128.301H101.354V126.117H94.8282V118.348H110.672V120.557H97.6466V123.883H110.799V126.117H104.121V128.301H113.211ZM94.7012 136.07C94.7012 133.379 97.71 131.868 102.699 131.881C107.65 131.868 110.634 133.379 110.647 136.07C110.634 138.736 107.65 140.247 102.699 140.26C97.71 140.247 94.7012 138.736 94.7012 136.07ZM97.5704 136.07C97.5577 137.403 99.3604 138.089 102.699 138.076C105.987 138.089 107.803 137.403 107.828 136.07C107.803 134.75 105.987 134.039 102.699 134.039C99.3604 134.039 97.5577 134.75 97.5704 136.07ZM121.654 118.906C125.297 118.894 127.951 121.191 127.976 124.441C127.951 127.704 125.297 129.989 121.654 130.002C118.048 129.989 115.344 127.704 115.357 124.441C115.344 121.191 118.048 118.894 121.654 118.906ZM114.316 133.176C118.455 133.176 124.18 133.125 129.144 132.414L129.373 134.471C124.231 135.448 118.721 135.486 114.671 135.486L114.316 133.176ZM118.15 124.441C118.137 126.358 119.648 127.539 121.654 127.539C123.685 127.539 125.196 126.358 125.209 124.441C125.196 122.537 123.698 121.344 121.654 121.344C119.648 121.344 118.137 122.537 118.15 124.441ZM130.515 140.285V117.307H133.334V140.285H130.515ZM147.362 120.963V123.223H136.114V120.963H140.38V117.967H143.173V120.963H147.362ZM136.775 129.773C136.749 126.65 138.869 124.429 141.776 124.441C144.696 124.429 146.778 126.65 146.778 129.773C146.778 132.96 144.696 135.182 141.776 135.182C138.869 135.182 136.749 132.96 136.775 129.773ZM139.263 129.773C139.25 131.627 140.291 132.782 141.776 132.77C143.249 132.782 144.29 131.627 144.29 129.773C144.29 127.971 143.249 126.777 141.776 126.777C140.291 126.777 139.25 127.971 139.263 129.773ZM148.327 139.219V117.789H150.968V126.752H153.202V117.307H155.894V140.26H153.202V129.037H150.968V139.219H148.327ZM184.688 130.104V132.389H175.572V140.234H172.779V132.389H163.766V130.104H184.688ZM164.858 126.346C169.364 125.774 172.386 123.35 172.589 120.836H165.695V118.602H182.758V120.836H175.864C176.055 123.35 179.051 125.774 183.596 126.346L182.58 128.555C178.67 127.996 175.623 126.206 174.227 123.73C172.818 126.206 169.796 127.996 165.924 128.555L164.858 126.346ZM192.877 123.324C192.889 127.031 194.159 130.891 197.269 132.846L195.72 135.004C193.651 133.76 192.305 131.627 191.544 129.126C190.718 131.881 189.246 134.217 187.088 135.537L185.336 133.43C188.674 131.411 190.147 127.361 190.16 123.451V119.338H192.877V123.324ZM194.806 127.539V125.203H198.082V117.713H200.748V139.143H198.082V127.539H194.806ZM202.804 140.26V117.307H205.521V140.26H202.804ZM228.64 135.156V137.467H207.667V135.156H212.517V129.354C210.689 128.301 209.584 126.65 209.597 124.619C209.584 120.963 213.164 118.551 218.103 118.551C223.067 118.551 226.672 120.963 226.659 124.619C226.672 126.625 225.593 128.237 223.816 129.291V135.156H228.64ZM212.364 124.619C212.352 126.968 214.675 128.466 218.103 128.453C221.518 128.466 223.892 126.968 223.892 124.619C223.892 122.232 221.518 120.772 218.103 120.785C214.675 120.772 212.352 122.232 212.364 124.619ZM215.31 135.156H220.946V130.37C220.071 130.561 219.118 130.662 218.103 130.662C217.113 130.662 216.173 130.561 215.31 130.383V135.156ZM232.411 138.203C231.319 138.203 230.418 137.314 230.43 136.223C230.418 135.156 231.319 134.28 232.411 134.268C233.465 134.28 234.366 135.156 234.366 136.223C234.366 137.314 233.465 138.203 232.411 138.203Z" fill="black"/>
<mask id="path-4-inside-1_250_1431" fill="white">
<path d="M20 166H430V226H20V166Z"/>
</mask>
<path d="M430 225H20V227H430V225Z" fill="#CCCCCC" mask="url(#path-4-inside-1_250_1431)"/>
<mask id="mask1_250_1431" style="mask-type:alpha" maskUnits="userSpaceOnUse" x="20" y="178" width="36" height="36">
<rect x="20" y="178" width="36" height="36" fill="#D9D9D9"/>
</mask>
<g mask="url(#mask1_250_1431)">
<circle cx="38.0008" cy="196.001" r="13.2" fill="white"/>
<path d="M35.8692 199.217L32.3847 195.733C32.1769 195.525 31.9158 195.419 31.6013 195.414C31.287 195.409 31.0212 195.515 30.8037 195.733C30.5864 195.95 30.4778 196.214 30.4778 196.523C30.4778 196.833 30.5864 197.096 30.8037 197.314L34.92 201.43C35.1913 201.701 35.5077 201.836 35.8692 201.836C36.2307 201.836 36.547 201.701 36.8183 201.43L45.1635 193.085C45.371 192.877 45.4773 192.616 45.4823 192.301C45.487 191.987 45.3808 191.721 45.1635 191.504C44.946 191.286 44.6825 191.178 44.373 191.178C44.0635 191.178 43.8 191.286 43.5825 191.504L35.8692 199.217ZM38.0007 210.248C36.0297 210.248 34.177 209.874 32.4428 209.126C30.7085 208.378 29.2 207.363 27.9173 206.081C26.6345 204.798 25.6189 203.291 24.8704 201.557C24.1222 199.824 23.748 197.971 23.748 196.001C23.748 194.03 24.122 192.177 24.87 190.443C25.618 188.709 26.6332 187.2 27.9154 185.917C29.1977 184.635 30.7055 183.619 32.439 182.87C34.1725 182.122 36.0247 181.748 37.9954 181.748C39.9664 181.748 41.819 182.122 43.5533 182.87C45.2875 183.618 46.796 184.633 48.0788 185.915C49.3615 187.198 50.3772 188.706 51.1257 190.439C51.8739 192.173 52.248 194.025 52.248 195.995C52.248 197.966 51.874 199.819 51.126 201.553C50.378 203.288 49.3629 204.796 48.0807 206.079C46.7984 207.362 45.2905 208.377 43.557 209.126C41.8235 209.874 39.9714 210.248 38.0007 210.248Z" fill="#EF403C"/>
</g>
<path d="M79.2227 189.889V191.471H77.0605V193.299H79.2227V194.934H77.0605V197.061H75.1094V187.674H77.0605V189.889H79.2227ZM64.7031 192.402C64.6943 190.17 66.54 188.57 68.9922 188.588C71.4355 188.57 73.2637 190.17 73.2812 192.402C73.2637 194.67 71.4355 196.243 68.9922 196.252C66.54 196.243 64.6943 194.67 64.7031 192.402ZM66.4785 199.328V197.746H77.0605V203.564H75.1094V199.328H66.4785ZM66.6191 192.402C66.6104 193.756 67.6211 194.591 68.9922 194.582C70.3457 194.591 71.3564 193.756 71.3652 192.402C71.3564 191.075 70.3457 190.249 68.9922 190.24C67.6211 190.249 66.6104 191.075 66.6191 192.402ZM88.6009 188.852V189.801C88.5834 190.882 88.5834 192.464 88.2142 194.477L86.2806 194.301C86.597 192.666 86.6586 191.444 86.6761 190.469H80.4974V188.852H88.6009ZM79.5482 195.742C80.4886 195.733 81.5433 195.725 82.6595 195.707V192.473H84.5931V195.646C86.2367 195.575 87.9242 195.452 89.4623 195.232L89.5677 196.639C86.263 197.236 82.5101 197.298 79.724 197.307L79.5482 195.742ZM81.9213 203.248V198.52H83.89V201.666H92.9076V203.248H81.9213ZM90.3939 199.574V187.674H92.3978V192.631H94.4545V194.266H92.3978V199.574H90.3939ZM112.139 187.691V199.293H110.188V193.475H107.375V191.893H110.188V187.691H112.139ZM98.797 195.865C101.328 195.03 102.682 192.956 102.682 190.838V190.416H99.377V188.834H107.955V190.416H104.668V190.855C104.668 192.763 105.951 194.74 108.412 195.549L107.428 197.113C105.652 196.507 104.396 195.294 103.701 193.791C103.007 195.461 101.68 196.797 99.7989 197.447L98.797 195.865ZM101.715 203.248V198.273H103.666V201.666H112.543V203.248H101.715ZM118.88 192.525C118.88 194.986 119.891 197.465 122.115 198.66L121.025 200.102C119.548 199.319 118.546 197.922 117.975 196.252C117.413 198.054 116.411 199.601 114.925 200.471L113.783 198.994C116.033 197.693 117.026 195.039 117.035 192.525V192.033H114.328V190.451H117.035V188.236H118.88V190.451H121.535V192.033H118.88V192.525ZM120.55 195.391V193.773H122.624V187.973H124.47V202.791H122.624V195.391H120.55ZM125.841 203.564V187.674H127.705V203.564H125.841ZM147.639 195.285V196.85H133.137V195.285H139.43V193.773H134.912V188.395H145.881V189.924H136.863V192.227H145.969V193.773H141.346V195.285H147.639ZM134.824 200.664C134.824 198.801 136.907 197.755 140.361 197.764C143.789 197.755 145.855 198.801 145.863 200.664C145.855 202.51 143.789 203.556 140.361 203.564C136.907 203.556 134.824 202.51 134.824 200.664ZM136.811 200.664C136.802 201.587 138.05 202.062 140.361 202.053C142.638 202.062 143.895 201.587 143.912 200.664C143.895 199.75 142.638 199.258 140.361 199.258C138.05 199.258 136.802 199.75 136.811 200.664ZM153.484 188.781C156.006 188.772 157.843 190.363 157.861 192.613C157.843 194.872 156.006 196.454 153.484 196.463C150.988 196.454 149.116 194.872 149.125 192.613C149.116 190.363 150.988 188.772 153.484 188.781ZM148.404 198.66C151.269 198.66 155.233 198.625 158.669 198.133L158.828 199.557C155.268 200.233 151.454 200.26 148.65 200.26L148.404 198.66ZM151.058 192.613C151.049 193.94 152.095 194.758 153.484 194.758C154.89 194.758 155.936 193.94 155.945 192.613C155.936 191.295 154.899 190.469 153.484 190.469C152.095 190.469 151.049 191.295 151.058 192.613ZM159.619 203.582V187.674H161.57V203.582H159.619Z" fill="#222222"/>
<mask id="mask2_250_1431" style="mask-type:alpha" maskUnits="userSpaceOnUse" x="26" y="244" width="30" height="30">
<rect x="26" y="244" width="30" height="30" fill="#D9D9D9"/>
</mask>
<g mask="url(#mask2_250_1431)">
<circle cx="41" cy="259" r="11" fill="white"/>
<path d="M39.224 261.681L36.3202 258.777C36.1471 258.604 35.9295 258.515 35.6674 258.511C35.4055 258.507 35.184 258.596 35.0027 258.777C34.8217 258.958 34.7312 259.178 34.7312 259.436C34.7312 259.693 34.8217 259.913 35.0027 260.094L38.433 263.525C38.6591 263.75 38.9227 263.863 39.224 263.863C39.5252 263.863 39.7889 263.75 40.0149 263.525L46.9693 256.57C47.1422 256.397 47.2308 256.18 47.2349 255.917C47.2389 255.656 47.1503 255.434 46.9693 255.253C46.788 255.072 46.5685 254.981 46.3105 254.981C46.0526 254.981 45.833 255.072 45.6518 255.253L39.224 261.681ZM41.0002 270.873C39.3577 270.873 37.8139 270.561 36.3687 269.938C34.9235 269.315 33.6664 268.469 32.5974 267.4C31.5285 266.332 30.6821 265.075 30.0584 263.631C29.4348 262.186 29.123 260.643 29.123 259C29.123 257.358 29.4347 255.814 30.058 254.369C30.6814 252.923 31.5273 251.666 32.5959 250.597C33.6644 249.528 34.921 248.682 36.3655 248.058C37.8101 247.435 39.3536 247.123 40.9959 247.123C42.6384 247.123 44.1822 247.435 45.6274 248.058C47.0726 248.681 48.3297 249.527 49.3987 250.596C50.4676 251.664 51.314 252.921 51.9377 254.366C52.5613 255.81 52.873 257.354 52.873 258.996C52.873 260.638 52.5614 262.182 51.938 263.627C51.3147 265.073 50.4688 266.33 49.4002 267.399C48.3317 268.468 47.0751 269.314 45.6305 269.938C44.186 270.561 42.6425 270.873 41.0002 270.873Z" fill="#EF403C"/>
</g>
<path d="M76.0156 252.375V266.297H74.7812V252.375H76.0156ZM65.0781 258.297C65.0859 255.344 66.5547 253.461 68.625 253.453C70.6875 253.461 72.1797 255.344 72.1719 258.297C72.1797 261.258 70.6875 263.133 68.625 263.125C66.5547 263.133 65.0859 261.258 65.0781 258.297ZM66.2656 258.297C66.2656 260.555 67.2344 262.039 68.625 262.031C70.0234 262.039 70.9844 260.555 70.9844 258.297C70.9844 256.039 70.0234 254.555 68.625 254.547C67.2344 254.555 66.2656 256.039 66.2656 258.297ZM90.7269 259.25V260.266H78.0706V259.25H81.2113V257.289C80.1019 256.859 79.4769 256.156 79.4769 255.219C79.4769 253.586 81.3519 252.648 84.3988 252.641C87.4222 252.648 89.2972 253.586 89.305 255.219C89.2972 256.148 88.68 256.852 87.5863 257.289V259.25H90.7269ZM79.6019 263.781C79.5941 262.195 81.3831 261.32 84.3988 261.328C87.3753 261.32 89.1644 262.195 89.18 263.781C89.1644 265.367 87.3753 266.234 84.3988 266.234C81.3831 266.234 79.5941 265.367 79.6019 263.781ZM80.7425 255.219C80.7347 256.234 82.1253 256.82 84.3988 256.828C86.6488 256.82 88.0472 256.234 88.055 255.219C88.0472 254.219 86.6488 253.609 84.3988 253.609C82.1253 253.609 80.7347 254.219 80.7425 255.219ZM80.8519 263.781C80.8363 264.727 82.1722 265.289 84.3988 265.281C86.6019 265.289 87.9378 264.727 87.9456 263.781C87.9378 262.836 86.6019 262.281 84.3988 262.266C82.1722 262.281 80.8363 262.836 80.8519 263.781ZM82.43 259.25H86.3675V257.617C85.7816 257.727 85.1253 257.781 84.3988 257.781C83.6722 257.781 83.0159 257.727 82.43 257.625V259.25ZM104.501 254.531V255.531H102.438V257.484H104.501V258.531H102.438V260.641H101.219V252.375H102.438V254.531H104.501ZM91.8444 256.484C91.8366 254.555 93.3834 253.211 95.485 253.219C97.6022 253.211 99.1256 254.555 99.1413 256.484C99.1256 258.438 97.6022 259.773 95.485 259.781C93.3834 259.773 91.8366 258.438 91.8444 256.484ZM93.0475 256.484C93.0397 257.82 94.0788 258.734 95.485 258.719C96.9069 258.734 97.9303 257.82 97.9381 256.484C97.9303 255.18 96.9069 254.273 95.485 254.266C94.0788 254.273 93.0397 255.18 93.0475 256.484ZM93.3444 262.297V261.281H102.438V266.266H101.219V262.297H93.3444ZM112.79 253.453V254.188C112.782 255.102 112.782 256.484 112.431 258.297L111.196 258.203C111.532 256.547 111.563 255.367 111.579 254.484H105.868V253.453H112.79ZM105.009 259.594C105.907 259.594 106.923 259.586 107.993 259.555V256.531H109.212V259.516C110.751 259.453 112.345 259.344 113.79 259.141L113.868 260.047C110.954 260.547 107.61 260.602 105.134 260.609L105.009 259.594ZM107.149 265.969V261.891H108.384V264.938H116.431V265.969H107.149ZM114.728 262.828V252.375H115.978V256.906H118.009V257.953H115.978V262.828H114.728ZM134.963 259.25V260.234H122.291V259.25H128.025V257.625H123.9V253.031H133.384V254.016H125.103V256.625H133.478V257.625H129.213V259.25H134.963ZM123.822 263.75C123.814 262.164 125.619 261.258 128.619 261.25C131.595 261.258 133.384 262.164 133.4 263.75C133.384 265.352 131.595 266.25 128.619 266.266C125.619 266.25 123.814 265.352 123.822 263.75ZM125.072 263.75C125.056 264.727 126.392 265.289 128.619 265.281C130.822 265.289 132.158 264.727 132.166 263.75C132.158 262.789 130.822 262.219 128.619 262.219C126.392 262.219 125.056 262.789 125.072 263.75ZM140.346 253.391C142.525 253.398 144.072 254.727 144.08 256.656C144.072 258.594 142.525 259.914 140.346 259.922C138.15 259.914 136.588 258.594 136.596 256.656C136.588 254.727 138.15 253.398 140.346 253.391ZM135.877 262.188C138.439 262.195 141.978 262.172 145.049 261.719L145.143 262.625C141.963 263.219 138.549 263.234 136.049 263.234L135.877 262.188ZM137.799 256.656C137.791 257.953 138.861 258.844 140.346 258.844C141.814 258.844 142.885 257.953 142.877 256.656C142.885 255.367 141.814 254.469 140.346 254.469C138.861 254.469 137.791 255.367 137.799 256.656ZM145.971 266.297V252.375H147.189V266.297H145.971Z" fill="#555555"/>
<mask id="mask3_250_1431" style="mask-type:alpha" maskUnits="userSpaceOnUse" x="400" y="247" width="24" height="24">
<rect x="400" y="247" width="24" height="24" fill="#D9D9D9"/>
</mask>
<g mask="url(#mask3_250_1431)">
<path d="M412.947 259.001L408.874 254.928C408.735 254.789 408.664 254.615 408.661 254.405C408.658 254.196 408.729 254.019 408.874 253.874C409.019 253.729 409.194 253.656 409.4 253.656C409.607 253.656 409.782 253.729 409.927 253.874L414.422 258.368C414.515 258.461 414.581 258.56 414.62 258.664C414.658 258.768 414.678 258.88 414.678 259.001C414.678 259.121 414.658 259.233 414.62 259.337C414.581 259.441 414.515 259.54 414.422 259.633L409.927 264.128C409.789 264.266 409.615 264.337 409.405 264.34C409.196 264.343 409.019 264.272 408.874 264.128C408.729 263.983 408.656 263.807 408.656 263.601C408.656 263.394 408.729 263.219 408.874 263.074L412.947 259.001Z" fill="#555555"/>
</g>
<mask id="mask4_250_1431" style="mask-type:alpha" maskUnits="userSpaceOnUse" x="26" y="298" width="30" height="30">
<rect x="26" y="298" width="30" height="30" fill="#D9D9D9"/>
</mask>
<g mask="url(#mask4_250_1431)">
<circle cx="41" cy="313" r="11" fill="white"/>
<path d="M39.224 315.681L36.3202 312.777C36.1471 312.604 35.9295 312.515 35.6674 312.511C35.4055 312.507 35.184 312.596 35.0027 312.777C34.8217 312.958 34.7312 313.178 34.7312 313.436C34.7312 313.693 34.8217 313.913 35.0027 314.094L38.433 317.525C38.6591 317.75 38.9227 317.863 39.224 317.863C39.5252 317.863 39.7889 317.75 40.0149 317.525L46.9693 310.57C47.1422 310.397 47.2308 310.18 47.2349 309.917C47.2389 309.656 47.1503 309.434 46.9693 309.253C46.788 309.072 46.5685 308.981 46.3105 308.981C46.0526 308.981 45.833 309.072 45.6518 309.253L39.224 315.681ZM41.0002 324.873C39.3577 324.873 37.8139 324.561 36.3687 323.938C34.9235 323.315 33.6664 322.469 32.5974 321.4C31.5285 320.332 30.6821 319.075 30.0584 317.631C29.4348 316.186 29.123 314.643 29.123 313C29.123 311.358 29.4347 309.814 30.058 308.369C30.6814 306.923 31.5273 305.666 32.5959 304.597C33.6644 303.528 34.921 302.682 36.3655 302.058C37.8101 301.435 39.3536 301.123 40.9959 301.123C42.6384 301.123 44.1822 301.435 45.6274 302.058C47.0726 302.681 48.3297 303.527 49.3987 304.596C50.4676 305.664 51.314 306.921 51.9377 308.366C52.5613 309.81 52.873 311.354 52.873 312.996C52.873 314.638 52.5614 316.182 51.938 317.627C51.3147 319.073 50.4688 320.33 49.4002 321.399C48.3317 322.468 47.0751 323.314 45.6305 323.938C44.186 324.561 42.6425 324.873 41.0002 324.873Z" fill="#EF403C"/>
</g>
<path d="M76.4219 306.375V320.266H75.2188V313H73.2969V319.578H72.125V306.75H73.2969V311.984H75.2188V306.375H76.4219ZM64.5781 316.422C67.8047 314.617 69.1328 312.078 69.3438 309.203H65.1094V308.188H70.5469C70.5312 311.719 69.2891 315.055 65.2969 317.281L64.5781 316.422ZM89.5394 306.391V316.547H88.3206V306.391H89.5394ZM78.3988 310.766C78.3909 308.766 79.9613 307.367 82.0394 307.359C84.1175 307.367 85.6722 308.766 85.68 310.766C85.6722 312.789 84.1175 314.195 82.0394 314.188C79.9613 314.195 78.3909 312.789 78.3988 310.766ZM79.6019 310.766C79.5863 312.148 80.6331 313.109 82.0394 313.109C83.4222 313.109 84.4769 312.148 84.4769 310.766C84.4769 309.406 83.4222 308.438 82.0394 308.438C80.6331 308.438 79.5863 309.406 79.6019 310.766ZM80.5706 319.969V315.516H81.7894V318.938H89.9769V319.969H80.5706ZM103.094 306.375V314.656H101.86V311.016H99.0631V310H101.86V306.375H103.094ZM91.6413 313.547C93.7038 312.805 95.1725 310.922 95.1725 308.938V308.422H92.0319V307.391H99.5163V308.422H96.4069V308.922C96.4069 310.734 97.7975 312.461 99.8288 313.156L99.1881 314.141C97.6334 313.578 96.4225 312.406 95.8209 310.977C95.2272 312.602 93.9381 313.898 92.2819 314.531L91.6413 313.547ZM93.8288 317.672C93.8209 316.039 95.5944 315.086 98.485 315.094C101.368 315.086 103.141 316.039 103.141 317.672C103.141 319.312 101.368 320.25 98.485 320.266C95.5944 320.25 93.8209 319.312 93.8288 317.672ZM95.0475 317.672C95.0397 318.68 96.3522 319.289 98.485 319.281C100.61 319.289 101.923 318.68 101.923 317.672C101.923 316.656 100.61 316.047 98.485 316.047C96.3522 316.047 95.0397 316.656 95.0475 317.672ZM117.806 317.469V318.484H105.087V317.469H110.806V314.469H106.587V307.359H107.821V309.875H115.04V307.359H116.243V314.469H112.009V317.469H117.806ZM107.821 313.469H115.04V310.875H107.821V313.469ZM125.564 307.672C125.572 309.633 128.118 311.32 130.626 311.672L130.126 312.672C127.97 312.312 125.829 311.117 124.939 309.414C124.048 311.133 121.915 312.312 119.751 312.672L119.251 311.672C121.759 311.32 124.298 309.664 124.298 307.672V306.875H125.564V307.672ZM118.595 315.234V314.203H131.251V315.234H125.501V320.266H124.298V315.234H118.595ZM137.103 308.672C137.111 310.484 138.611 312.094 140.681 312.719L140.056 313.688C138.431 313.172 137.127 312.055 136.502 310.617C135.884 312.156 134.572 313.359 132.916 313.922L132.275 312.953C134.369 312.289 135.861 310.578 135.869 308.672V308.312H132.619V307.312H140.306V308.312H137.103V308.672ZM134.572 320.078V314.578H135.791V316.266H142.353V314.578H143.572V320.078H134.572ZM135.791 319.078H142.353V317.25H135.791V319.078ZM142.353 313.891V306.375H143.572V313.891H142.353ZM156.557 307.281V312.938H150.041V307.281H156.557ZM151.041 319.266C153.432 319 155.729 317.648 155.729 316.266H151.619V315.312H155.744V313.953H156.963V315.312H161.119V316.266H156.994C156.987 317.617 159.221 318.969 161.604 319.266L161.182 320.219C159.096 319.93 157.19 318.945 156.362 317.664C155.526 318.977 153.573 319.93 151.479 320.219L151.041 319.266ZM151.244 311.969H155.354V308.281H151.244V311.969ZM159.557 314.359V306.375H160.76V314.359H159.557ZM177.964 306.375V320.297H176.729V306.375H177.964ZM167.026 312.297C167.034 309.344 168.503 307.461 170.573 307.453C172.636 307.461 174.128 309.344 174.12 312.297C174.128 315.258 172.636 317.133 170.573 317.125C168.503 317.133 167.034 315.258 167.026 312.297ZM168.214 312.297C168.214 314.555 169.183 316.039 170.573 316.031C171.972 316.039 172.933 314.555 172.933 312.297C172.933 310.039 171.972 308.555 170.573 308.547C169.183 308.555 168.214 310.039 168.214 312.297ZM192.675 313.25V314.266H180.019V313.25H183.159V311.289C182.05 310.859 181.425 310.156 181.425 309.219C181.425 307.586 183.3 306.648 186.347 306.641C189.37 306.648 191.245 307.586 191.253 309.219C191.245 310.148 190.628 310.852 189.534 311.289V313.25H192.675ZM181.55 317.781C181.542 316.195 183.331 315.32 186.347 315.328C189.323 315.32 191.113 316.195 191.128 317.781C191.113 319.367 189.323 320.234 186.347 320.234C183.331 320.234 181.542 319.367 181.55 317.781ZM182.691 309.219C182.683 310.234 184.073 310.82 186.347 310.828C188.597 310.82 189.995 310.234 190.003 309.219C189.995 308.219 188.597 307.609 186.347 307.609C184.073 307.609 182.683 308.219 182.691 309.219ZM182.8 317.781C182.784 318.727 184.12 319.289 186.347 319.281C188.55 319.289 189.886 318.727 189.894 317.781C189.886 316.836 188.55 316.281 186.347 316.266C184.12 316.281 182.784 316.836 182.8 317.781ZM184.378 313.25H188.316V311.617C187.73 311.727 187.073 311.781 186.347 311.781C185.62 311.781 184.964 311.727 184.378 311.625V313.25ZM209.894 313.25V314.234H197.223V313.25H202.957V311.625H198.832V307.031H208.316V308.016H200.035V310.625H208.41V311.625H204.144V313.25H209.894ZM198.754 317.75C198.746 316.164 200.551 315.258 203.551 315.25C206.527 315.258 208.316 316.164 208.332 317.75C208.316 319.352 206.527 320.25 203.551 320.266C200.551 320.25 198.746 319.352 198.754 317.75ZM200.004 317.75C199.988 318.727 201.324 319.289 203.551 319.281C205.754 319.289 207.09 318.727 207.098 317.75C207.09 316.789 205.754 316.219 203.551 316.219C201.324 316.219 199.988 316.789 200.004 317.75ZM215.277 307.391C217.457 307.398 219.004 308.727 219.012 310.656C219.004 312.594 217.457 313.914 215.277 313.922C213.082 313.914 211.52 312.594 211.527 310.656C211.52 308.727 213.082 307.398 215.277 307.391ZM210.809 316.188C213.371 316.195 216.91 316.172 219.981 315.719L220.074 316.625C216.895 317.219 213.481 317.234 210.981 317.234L210.809 316.188ZM212.731 310.656C212.723 311.953 213.793 312.844 215.277 312.844C216.746 312.844 217.817 311.953 217.809 310.656C217.817 309.367 216.746 308.469 215.277 308.469C213.793 308.469 212.723 309.367 212.731 310.656ZM220.902 320.297V306.375H222.121V320.297H220.902Z" fill="#555555"/>
<mask id="mask5_250_1431" style="mask-type:alpha" maskUnits="userSpaceOnUse" x="400" y="301" width="24" height="24">
<rect x="400" y="301" width="24" height="24" fill="#D9D9D9"/>
</mask>
<g mask="url(#mask5_250_1431)">
<path d="M412.947 313.001L408.874 308.928C408.735 308.789 408.664 308.615 408.661 308.405C408.658 308.196 408.729 308.019 408.874 307.874C409.019 307.729 409.194 307.656 409.4 307.656C409.607 307.656 409.782 307.729 409.927 307.874L414.422 312.368C414.515 312.461 414.581 312.56 414.62 312.664C414.658 312.768 414.678 312.88 414.678 313.001C414.678 313.121 414.658 313.233 414.62 313.337C414.581 313.441 414.515 313.54 414.422 313.633L409.927 318.128C409.789 318.266 409.615 318.337 409.405 318.34C409.196 318.343 409.019 318.272 408.874 318.128C408.729 317.983 408.656 317.807 408.656 317.601C408.656 317.394 408.729 317.219 408.874 317.074L412.947 313.001Z" fill="#555555"/>
</g>
<rect x="20" y="735" width="410" height="56" rx="8" fill="#323C59"/>
<path d="M222.329 754.18V759.375H224.829V760.898H222.329V765.957H220.473V754.18H222.329ZM208.442 764.004C209.8 764.004 211.372 764.004 213.013 763.965V762.783C211.02 762.559 209.751 761.621 209.77 760.215C209.751 758.613 211.421 757.617 213.93 757.637C216.44 757.617 218.081 758.613 218.091 760.215C218.081 761.611 216.841 762.549 214.868 762.783V763.896C216.43 763.818 218.013 763.691 219.477 763.477L219.634 764.805C215.874 765.459 211.723 765.488 208.638 765.488L208.442 764.004ZM208.891 757.051V755.664H213.013V754.023H214.868V755.664H218.989V757.051H208.891ZM210.63 768.223V766.777H222.329V771.66H220.473V768.223H210.63ZM211.528 760.215C211.528 761.035 212.436 761.572 213.93 761.562C215.405 761.572 216.323 761.035 216.313 760.215C216.323 759.375 215.405 758.887 213.93 758.906C212.436 758.887 211.528 759.375 211.528 760.215ZM239.956 754.18V766.895H238.101V754.18H239.956ZM225.796 759.688C225.806 757.158 227.818 755.361 230.464 755.352C233.101 755.361 235.113 757.158 235.113 759.688C235.113 762.256 233.101 764.043 230.464 764.043C227.818 764.043 225.806 762.256 225.796 759.688ZM227.613 759.688C227.603 761.338 228.833 762.422 230.464 762.422C232.066 762.422 233.296 761.338 233.296 759.688C233.296 758.076 232.066 756.973 230.464 756.973C228.833 756.973 227.603 758.076 227.613 759.688ZM228.511 771.289V765.605H230.386V769.785H240.484V771.289H228.511Z" fill="white"/>
</svg>
