<svg width="400" height="350" viewBox="0 0 400 350" fill="none" xmlns="http://www.w3.org/2000/svg">
<rect width="400" height="350" fill="#323C59"/>
<path d="M77.3333 53.293C72.6019 53.293 69.262 50.7734 69.2767 47.3164C69.262 44.6211 71.2689 42.4238 73.8177 42.0137V41.8965C71.5911 41.4277 70.0824 39.4941 70.0677 37.1797C70.0824 33.8984 73.1439 31.4961 77.3333 31.4961C81.4935 31.4961 84.5697 33.8984 84.5697 37.1797C84.5697 39.5088 83.0169 41.4277 80.8197 41.8965V42.0137C83.3538 42.4238 85.3753 44.6211 85.39 47.3164C85.3753 50.7734 82.0208 53.293 77.3333 53.293ZM73.2025 46.9648C73.1878 48.9277 74.8138 50.2754 77.3333 50.2754C79.8236 50.2754 81.4495 48.9277 81.4642 46.9648C81.4495 44.9727 79.721 43.4932 77.3333 43.5078C74.9456 43.4932 73.1878 44.958 73.2025 46.9648ZM73.7884 37.5312C73.8031 39.3916 75.2679 40.666 77.3333 40.666C79.3695 40.666 80.849 39.3916 80.849 37.5312C80.849 35.7295 79.4134 34.4844 77.3333 34.4844C75.2093 34.4844 73.8031 35.7295 73.7884 37.5312Z" fill="white"/>
<path d="M199.794 31.4961C203.94 31.5254 208.071 34.001 208.085 41.75C208.085 49.0596 204.775 53.293 199.56 53.293C195.473 53.293 192.646 50.7441 192.177 47.2285H195.956C196.337 48.9131 197.641 49.9824 199.56 49.9824C202.636 49.9824 204.365 47.2725 204.394 42.7168H204.16C203.09 44.5625 201.039 45.6611 198.71 45.6465C194.916 45.6611 191.987 42.7754 191.972 38.7617C191.972 34.6162 195.092 31.4668 199.794 31.4961ZM195.693 38.6738C195.693 40.959 197.392 42.7461 199.765 42.7461C202.123 42.7461 203.94 40.8418 203.925 38.6445C203.925 36.4912 202.197 34.5869 199.824 34.5723C197.436 34.5869 195.663 36.4033 195.693 38.6738Z" fill="white"/>
<path d="M322.653 53.293C318.126 53.293 314.889 50.832 314.801 47.2578H318.639C318.742 48.957 320.441 50.085 322.653 50.0703C324.982 50.085 326.666 48.7959 326.666 46.9062C326.666 45.002 325.026 43.6396 322.272 43.625H320.368V40.6953H322.272C324.528 40.6953 326.095 39.4355 326.08 37.5898C326.095 35.8027 324.747 34.6016 322.682 34.6016C320.69 34.6016 318.976 35.7148 318.903 37.502H315.241C315.328 33.9424 318.566 31.4961 322.711 31.4961C327.018 31.4961 329.801 34.1328 329.772 37.3848C329.801 39.7578 328.219 41.4717 325.905 41.9551V42.1309C328.893 42.5264 330.592 44.4453 330.563 47.1113C330.592 50.7002 327.238 53.293 322.653 53.293Z" fill="white"/>
<path d="M70.0531 138V135.246L77.5531 128.01C79.6917 125.871 80.805 124.611 80.805 122.824C80.805 120.847 79.2376 119.602 77.1722 119.602C74.9896 119.602 73.5833 120.964 73.598 123.117H69.9652C69.9505 119.104 72.9681 116.496 77.2015 116.496C81.5374 116.496 84.4525 119.089 84.4671 122.648C84.4525 125.036 83.3099 126.97 79.1351 130.91L75.3558 134.66V134.807H84.7894V138H70.0531Z" fill="white"/>
<path d="M200.204 138.293C196.059 138.264 191.928 135.803 191.943 127.98C191.943 120.729 195.239 116.496 200.439 116.496C204.526 116.496 207.338 119.06 207.822 122.502H204.042C203.661 120.876 202.372 119.792 200.439 119.807C197.363 119.792 195.649 122.517 195.634 126.984H195.839C196.923 125.153 198.959 124.069 201.288 124.084C205.097 124.069 208.041 126.955 208.027 130.969C208.041 135.188 204.892 138.322 200.204 138.293ZM196.044 131.086C196.074 133.298 197.802 135.202 200.204 135.217C202.563 135.202 204.321 133.386 204.335 131.057C204.321 128.801 202.621 126.984 200.263 126.984C197.875 126.984 196.074 128.874 196.044 131.086Z" fill="white"/>
<path d="M326.154 116.789V138H322.316V120.51H322.199L317.247 123.674V120.188L322.492 116.789H326.154Z" fill="white"/>
<path d="M69.0277 219.045V215.998L78.1976 201.789H82.9437V215.91H85.7269V219.045H82.9437V223H79.3109V219.045H69.0277ZM72.9242 215.91H79.3695V206.125H79.1351L72.9242 215.764V215.91Z" fill="white"/>
<path d="M194.037 223L203.237 205.129V204.982H192.573V201.789H207.192V205.041L197.993 223H194.037Z" fill="white"/>
<path d="M322.697 223.293C318.463 223.293 315.343 220.759 315.226 217.258H318.947C319.064 218.972 320.69 220.202 322.697 220.217C325.07 220.202 326.784 218.488 326.769 216.145C326.784 213.713 325.026 211.999 322.579 211.984C320.924 211.97 319.723 212.556 319.064 213.801H315.519L316.808 201.789H329.347V204.982H319.943L319.298 210.607H319.503C320.324 209.685 321.862 209.011 323.605 208.996C327.545 209.011 330.475 211.94 330.46 216.027C330.475 220.261 327.282 223.293 322.697 223.293Z" fill="white"/>
<path d="M48.349 294.375C47.9251 291.996 46.0247 290.629 43.6185 290.629C40.3783 290.629 38.0814 293.117 38.0951 297.602C38.0814 302.154 40.3919 304.574 43.6185 304.574C45.9701 304.574 47.8704 303.262 48.349 300.938H51.931C51.3841 304.738 48.2533 307.773 43.5638 307.773C38.3411 307.773 34.4993 303.986 34.513 297.602C34.4993 291.203 38.3822 287.43 43.5638 287.43C47.9388 287.43 51.3158 289.973 51.931 294.375H48.349ZM54.9935 307.5V287.703H58.5482V304.492H67.2982V307.5H54.9935ZM70.1419 307.5V287.703H83.0208V290.684H73.6966V296.098H82.3372V299.078H73.6966V304.492H83.0755V307.5H70.1419ZM88.9544 307.5H85.1536L92.1263 287.703H96.5013L103.501 307.5H99.7005L98.0462 302.605H90.595L88.9544 307.5ZM91.5521 299.734H97.0892L94.3958 291.75H94.2318L91.5521 299.734ZM105.853 307.5V287.703H113.29C117.829 287.703 120.249 290.246 120.263 294.02C120.249 296.713 119.019 298.709 116.695 299.652L120.974 307.5H117.009L113.126 300.254H109.408V307.5H105.853ZM109.408 297.273H112.743C115.423 297.287 116.626 296.139 116.626 294.02C116.626 291.914 115.423 290.684 112.743 290.684H109.408V297.273Z" fill="white"/>
<path d="M199.999 308.293C194.887 308.293 191.84 304.338 191.855 297.395C191.84 290.48 194.916 286.496 199.999 286.496C205.082 286.496 208.144 290.48 208.144 297.395C208.144 304.353 205.097 308.293 199.999 308.293ZM195.693 297.395C195.693 302.492 197.333 305.085 199.999 305.1C202.651 305.085 204.306 302.492 204.306 297.395C204.291 292.341 202.651 289.675 199.999 289.66C197.348 289.675 195.707 292.341 195.693 297.395Z" fill="white"/>
<path d="M292.617 307.5V287.703H300.191C304.484 287.703 306.603 289.891 306.617 292.844C306.603 295.25 305.085 296.59 303.144 297.055V297.246C305.249 297.355 307.382 299.105 307.382 302.113C307.382 305.189 305.154 307.5 300.628 307.5H292.617ZM296.171 304.52H300.081C302.679 304.52 303.759 303.412 303.773 301.84C303.759 300.062 302.378 298.709 300.163 298.695H296.171V304.52ZM296.171 296.125H299.753C301.626 296.125 303.048 295.045 303.062 293.281C303.048 291.764 301.954 290.656 299.835 290.656H296.171V296.125ZM309.433 303.316C309.433 299.98 312.208 299.01 314.956 298.832C315.995 298.75 318.115 298.654 318.771 298.627L318.757 297.438C318.757 295.961 317.814 295.113 316.077 295.113C314.519 295.113 313.562 295.824 313.288 296.891H309.925C310.171 294.361 312.441 292.461 316.16 292.461C318.976 292.461 322.23 293.623 322.23 297.574V307.5H318.894V305.449H318.785C318.128 306.707 316.747 307.801 314.41 307.801C311.579 307.801 309.433 306.256 309.433 303.316ZM312.796 303.289C312.796 304.574 313.849 305.23 315.312 305.23C317.431 305.23 318.785 303.836 318.785 302.168L318.771 300.951C318.142 300.979 316.201 301.102 315.503 301.156C313.849 301.293 312.796 301.99 312.796 303.289ZM331.992 307.801C327.562 307.801 324.882 304.629 324.882 300.145C324.882 295.592 327.644 292.461 331.992 292.461C335.587 292.461 338.117 294.566 338.363 297.766H335.027C334.753 296.344 333.714 295.264 332.019 295.25C329.859 295.264 328.41 297.068 328.41 300.062C328.41 303.125 329.831 304.943 332.019 304.957C333.564 304.943 334.712 304.041 335.027 302.441H338.363C338.103 305.572 335.724 307.801 331.992 307.801ZM340.988 307.5V287.703H344.488V298.613H344.734L350.066 292.652H354.14L348.384 299.051L354.495 307.5H350.339L345.773 301.129L344.488 302.496V307.5H340.988Z" fill="white"/>
</svg>
