<svg width="405" height="124" viewBox="0 0 405 124" fill="none" xmlns="http://www.w3.org/2000/svg">
<path d="M404.667 13.2281H251.778C243.729 13.2281 237.111 12.5088 229.811 9.07825C222.618 4.05083 213.202 1 202.894 1C192.585 1 182.526 3.16556 175.334 8.19298C168.769 12.0316 162.049 13.2281 154 13.2281H1.11133V124L202.889 122.593L404.667 124L404.667 13.2281Z" fill="white"/>
<path d="M403.778 13.2281H250.795C242.746 13.2281 235.232 12.5299 228.667 9C221.475 4.38117 212.314 1 202.005 1C191.696 1 182.082 4.38117 174.889 9C168.325 12.5266 161.264 13.2281 153.215 13.2281H0.222656" fill="white"/>
<path d="M403.778 13.2281H250.795C242.746 13.2281 235.232 12.5299 228.667 9C221.475 4.38117 212.314 1 202.005 1C191.696 1 182.082 4.38117 174.889 9C168.325 12.5266 161.264 13.2281 153.215 13.2281H0.222656" stroke="#DDDDDD" stroke-miterlimit="10"/>
<mask id="path-4-inside-1_586_2852" fill="white">
<path d="M72.3809 73.0446C69.4152 73.0446 67 70.6294 67 67.6637V48.3809C67 45.4152 69.4152 43 72.3809 43H90.8874C93.8531 43 96.2683 45.4152 96.2683 48.3809V67.6637C96.2683 70.6294 93.8531 73.0446 90.8874 73.0446H72.3809ZM72.3809 44.3762C70.1721 44.3762 68.3762 46.1721 68.3762 48.3809V67.6637C68.3762 69.8725 70.1721 71.6684 72.3809 71.6684H90.8874C93.0962 71.6684 94.8921 69.8725 94.8921 67.6637V48.3809C94.8921 46.1721 93.0962 44.3762 90.8874 44.3762H72.3809Z"/>
</mask>
<path d="M72.3809 73.0446C69.4152 73.0446 67 70.6294 67 67.6637V48.3809C67 45.4152 69.4152 43 72.3809 43H90.8874C93.8531 43 96.2683 45.4152 96.2683 48.3809V67.6637C96.2683 70.6294 93.8531 73.0446 90.8874 73.0446H72.3809ZM72.3809 44.3762C70.1721 44.3762 68.3762 46.1721 68.3762 48.3809V67.6637C68.3762 69.8725 70.1721 71.6684 72.3809 71.6684H90.8874C93.0962 71.6684 94.8921 69.8725 94.8921 67.6637V48.3809C94.8921 46.1721 93.0962 44.3762 90.8874 44.3762H72.3809Z" fill="#7C8189"/>
<path d="M72.3809 71.5446C70.2437 71.5446 68.5 69.801 68.5 67.6637H65.5C65.5 71.4578 68.5868 74.5446 72.3809 74.5446V71.5446ZM68.5 67.6637V48.3809H65.5V67.6637H68.5ZM68.5 48.3809C68.5 46.2437 70.2437 44.5 72.3809 44.5V41.5C68.5868 41.5 65.5 44.5868 65.5 48.3809H68.5ZM72.3809 44.5H90.8874V41.5H72.3809V44.5ZM90.8874 44.5C93.0246 44.5 94.7683 46.2437 94.7683 48.3809H97.7683C97.7683 44.5868 94.6815 41.5 90.8874 41.5V44.5ZM94.7683 48.3809V67.6637H97.7683V48.3809H94.7683ZM94.7683 67.6637C94.7683 69.801 93.0246 71.5446 90.8874 71.5446V74.5446C94.6815 74.5446 97.7683 71.4578 97.7683 67.6637H94.7683ZM90.8874 71.5446H72.3809V74.5446H90.8874V71.5446ZM72.3809 42.8762C69.3437 42.8762 66.8762 45.3437 66.8762 48.3809H69.8762C69.8762 47.0006 71.0006 45.8762 72.3809 45.8762V42.8762ZM66.8762 48.3809V67.6637H69.8762V48.3809H66.8762ZM66.8762 67.6637C66.8762 70.7009 69.3437 73.1684 72.3809 73.1684V70.1684C71.0006 70.1684 69.8762 69.0441 69.8762 67.6637H66.8762ZM72.3809 73.1684H90.8874V70.1684H72.3809V73.1684ZM90.8874 73.1684C93.9246 73.1684 96.3921 70.7009 96.3921 67.6637H93.3921C93.3921 69.0441 92.2677 70.1684 90.8874 70.1684V73.1684ZM96.3921 67.6637V48.3809H93.3921V67.6637H96.3921ZM96.3921 48.3809C96.3921 45.3437 93.9246 42.8762 90.8874 42.8762V45.8762C92.2677 45.8762 93.3921 47.0006 93.3921 48.3809H96.3921ZM90.8874 42.8762H72.3809V45.8762H90.8874V42.8762Z" fill="#7C8189" mask="url(#path-4-inside-1_586_2852)"/>
<mask id="path-6-inside-2_586_2852" fill="white">
<path d="M75.0045 67.4778C74.6261 67.4778 74.3164 67.1681 74.3164 66.7897C74.3164 66.4112 74.6261 66.1016 75.0045 66.1016H87.7343C88.1128 66.1016 88.4224 66.4112 88.4224 66.7897C88.4224 67.1681 88.1128 67.4778 87.7343 67.4778H75.0045Z"/>
</mask>
<path d="M75.0045 67.4778C74.6261 67.4778 74.3164 67.1681 74.3164 66.7897C74.3164 66.4112 74.6261 66.1016 75.0045 66.1016H87.7343C88.1128 66.1016 88.4224 66.4112 88.4224 66.7897C88.4224 67.1681 88.1128 67.4778 87.7343 67.4778H75.0045Z" fill="#7C8189"/>
<path d="M75.0045 65.9778C75.4545 65.9778 75.8164 66.3397 75.8164 66.7897H72.8164C72.8164 67.9965 73.7976 68.9778 75.0045 68.9778V65.9778ZM75.8164 66.7897C75.8164 67.2396 75.4545 67.6016 75.0045 67.6016V64.6016C73.7976 64.6016 72.8164 65.5828 72.8164 66.7897H75.8164ZM75.0045 67.6016H87.7343V64.6016H75.0045V67.6016ZM87.7343 67.6016C87.2844 67.6016 86.9224 67.2396 86.9224 66.7897H89.9224C89.9224 65.5828 88.9412 64.6016 87.7343 64.6016V67.6016ZM86.9224 66.7897C86.9224 66.3397 87.2844 65.9778 87.7343 65.9778V68.9778C88.9412 68.9778 89.9224 67.9965 89.9224 66.7897H86.9224ZM87.7343 65.9778H75.0045V68.9778H87.7343V65.9778Z" fill="#7C8189" mask="url(#path-6-inside-2_586_2852)"/>
<mask id="path-8-inside-3_586_2852" fill="white">
<path d="M81.3685 56.8542C79.1597 56.8542 77.3672 55.0582 77.3672 52.8529C77.3672 50.6475 79.1631 48.8516 81.3685 48.8516C83.5738 48.8516 85.3698 50.6475 85.3698 52.8529C85.3698 55.0582 83.5738 56.8542 81.3685 56.8542ZM81.3685 50.2243C79.92 50.2243 78.7434 51.401 78.7434 52.8494C78.7434 54.2979 79.92 55.4745 81.3685 55.4745C82.8169 55.4745 83.9936 54.2979 83.9936 52.8494C83.9936 51.401 82.8169 50.2243 81.3685 50.2243Z"/>
</mask>
<path d="M81.3685 56.8542C79.1597 56.8542 77.3672 55.0582 77.3672 52.8529C77.3672 50.6475 79.1631 48.8516 81.3685 48.8516C83.5738 48.8516 85.3698 50.6475 85.3698 52.8529C85.3698 55.0582 83.5738 56.8542 81.3685 56.8542ZM81.3685 50.2243C79.92 50.2243 78.7434 51.401 78.7434 52.8494C78.7434 54.2979 79.92 55.4745 81.3685 55.4745C82.8169 55.4745 83.9936 54.2979 83.9936 52.8494C83.9936 51.401 82.8169 50.2243 81.3685 50.2243Z" fill="#7C8189"/>
<path d="M81.3685 55.3542C79.989 55.3542 78.8672 54.2306 78.8672 52.8529H75.8672C75.8672 55.8858 78.3304 58.3542 81.3685 58.3542V55.3542ZM78.8672 52.8529C78.8672 51.4759 79.9916 50.3516 81.3685 50.3516V47.3516C78.3347 47.3516 75.8672 49.8191 75.8672 52.8529H78.8672ZM81.3685 50.3516C82.7454 50.3516 83.8698 51.4759 83.8698 52.8529H86.8698C86.8698 49.8191 84.4023 47.3516 81.3685 47.3516V50.3516ZM83.8698 52.8529C83.8698 54.2298 82.7454 55.3542 81.3685 55.3542V58.3542C84.4023 58.3542 86.8698 55.8866 86.8698 52.8529H83.8698ZM81.3685 48.7243C79.0916 48.7243 77.2434 50.5725 77.2434 52.8494H80.2434C80.2434 52.2294 80.7485 51.7243 81.3685 51.7243V48.7243ZM77.2434 52.8494C77.2434 55.1263 79.0916 56.9745 81.3685 56.9745V53.9745C80.7485 53.9745 80.2434 53.4694 80.2434 52.8494H77.2434ZM81.3685 56.9745C83.6454 56.9745 85.4936 55.1263 85.4936 52.8494H82.4936C82.4936 53.4694 81.9885 53.9745 81.3685 53.9745V56.9745ZM85.4936 52.8494C85.4936 50.5725 83.6454 48.7243 81.3685 48.7243V51.7243C81.9885 51.7243 82.4936 52.2294 82.4936 52.8494H85.4936Z" fill="#7C8189" mask="url(#path-8-inside-3_586_2852)"/>
<mask id="path-10-inside-4_586_2852" fill="white">
<path d="M77.6813 62.822C77.1343 62.822 76.6182 62.5846 76.2604 62.1683C75.9026 61.7555 75.7477 61.2084 75.8269 60.6683L76.0883 58.9308C76.3911 56.9285 78.0804 55.4766 80.1034 55.4766H82.6253C84.6483 55.4766 86.3376 56.9285 86.6403 58.9308L86.9018 60.6683C86.9844 61.2084 86.8261 61.7555 86.4683 62.1718C86.1105 62.5881 85.5944 62.822 85.0474 62.822H77.6744H77.6813ZM84.8685 61.4458C85.271 61.4458 85.5772 61.088 85.5187 60.6924L85.2848 59.1373C85.0852 57.823 83.9568 56.8528 82.6287 56.8528H80.1068C78.7788 56.8528 77.6503 57.823 77.4542 59.1373L77.2203 60.6924C77.1618 61.088 77.468 61.4458 77.8705 61.4458H84.8719H84.8685Z"/>
</mask>
<path d="M77.6813 62.822C77.1343 62.822 76.6182 62.5846 76.2604 62.1683C75.9026 61.7555 75.7477 61.2084 75.8269 60.6683L76.0883 58.9308C76.3911 56.9285 78.0804 55.4766 80.1034 55.4766H82.6253C84.6483 55.4766 86.3376 56.9285 86.6403 58.9308L86.9018 60.6683C86.9844 61.2084 86.8261 61.7555 86.4683 62.1718C86.1105 62.5881 85.5944 62.822 85.0474 62.822H77.6744H77.6813ZM84.8685 61.4458C85.271 61.4458 85.5772 61.088 85.5187 60.6924L85.2848 59.1373C85.0852 57.823 83.9568 56.8528 82.6287 56.8528H80.1068C78.7788 56.8528 77.6503 57.823 77.4542 59.1373L77.2203 60.6924C77.1618 61.088 77.468 61.4458 77.8705 61.4458H84.8719H84.8685Z" fill="#7C8189"/>
<path d="M76.2604 62.1683L77.3979 61.1906L77.3939 61.1859L76.2604 62.1683ZM75.8269 60.6683L74.3436 60.445L74.3427 60.4508L75.8269 60.6683ZM76.0883 58.9308L74.6052 58.7066L74.605 58.7076L76.0883 58.9308ZM86.6403 58.9308L88.1236 58.7076L88.1235 58.7066L86.6403 58.9308ZM86.9018 60.6683L85.4185 60.8915L85.419 60.8949L86.9018 60.6683ZM85.5187 60.6924L87.0026 60.473L87.002 60.4692L85.5187 60.6924ZM85.2848 59.1373L86.7681 58.9141L86.7678 58.9121L85.2848 59.1373ZM77.4542 59.1373L78.9375 59.3604L78.9378 59.3586L77.4542 59.1373ZM77.2203 60.6924L75.737 60.4692L75.7364 60.473L77.2203 60.6924ZM77.6813 61.322C77.5731 61.322 77.4719 61.2766 77.3979 61.1906L75.1228 63.1461C75.7645 63.8926 76.6954 64.322 77.6813 64.322V61.322ZM77.3939 61.1859C77.3284 61.1103 77.2937 61.0037 77.311 60.8857L74.3427 60.4508C74.2017 61.4132 74.4767 62.4006 75.1268 63.1507L77.3939 61.1859ZM77.3102 60.8915L77.5716 59.1541L74.605 58.7076L74.3436 60.445L77.3102 60.8915ZM77.5715 59.1551C77.7633 57.8863 78.8221 56.9766 80.1034 56.9766V53.9766C77.3387 53.9766 75.0189 55.9706 74.6052 58.7066L77.5715 59.1551ZM80.1034 56.9766H82.6253V53.9766H80.1034V56.9766ZM82.6253 56.9766C83.9066 56.9766 84.9654 57.8863 85.1572 59.1551L88.1235 58.7066C87.7098 55.9706 85.39 53.9766 82.6253 53.9766V56.9766ZM85.157 59.154L85.4185 60.8915L88.3851 60.445L88.1236 58.7076L85.157 59.154ZM85.419 60.8949C85.4349 60.9986 85.4059 61.1066 85.3308 61.194L87.6059 63.1495C88.2463 62.4043 88.5339 61.4183 88.3846 60.4416L85.419 60.8949ZM85.3308 61.194C85.261 61.2752 85.162 61.322 85.0474 61.322V64.322C86.0268 64.322 86.96 63.901 87.6059 63.1495L85.3308 61.194ZM85.0474 61.322H77.6744V64.322H85.0474V61.322ZM77.6744 64.322H77.6813V61.322H77.6744V64.322ZM84.8685 62.9458C86.1909 62.9458 87.1944 61.7705 87.0026 60.473L84.0349 60.9117C83.96 60.4056 84.3511 59.9458 84.8685 59.9458V62.9458ZM87.002 60.4692L86.7681 58.9141L83.8015 59.3604L84.0354 60.9155L87.002 60.4692ZM86.7678 58.9121C86.457 56.8653 84.6988 55.3528 82.6287 55.3528V58.3528C83.2147 58.3528 83.7135 58.7807 83.8018 59.3624L86.7678 58.9121ZM82.6287 55.3528H80.1068V58.3528H82.6287V55.3528ZM80.1068 55.3528C78.0375 55.3528 76.2766 56.8652 75.9706 58.9159L78.9378 59.3586C79.024 58.7808 79.5201 58.3528 80.1068 58.3528V55.3528ZM75.9709 58.9141L75.737 60.4692L78.7036 60.9155L78.9375 59.3604L75.9709 58.9141ZM75.7364 60.473C75.5446 61.7705 76.5481 62.9458 77.8705 62.9458V59.9458C78.3879 59.9458 78.779 60.4056 78.7041 60.9117L75.7364 60.473ZM77.8705 62.9458H84.8719V59.9458H77.8705V62.9458ZM84.8719 59.9458H84.8685V62.9458H84.8719V59.9458Z" fill="#7C8189" mask="url(#path-10-inside-4_586_2852)"/>
<path d="M61.3232 90.1787V99.8027H60.166V95.1592H57.2803V94.1924H60.166V90.1787H61.3232ZM50.7324 97.3564C53.728 96.3677 55.8154 94.4927 56.0791 92.1416H51.3916V91.1748H57.3389C57.3242 94.522 54.9292 97.0708 51.2305 98.2793L50.7324 97.3564ZM53.0322 102.908V98.8213H54.2041V101.941H61.6602V102.908H53.0322ZM73.3719 90.1641V93.5625H75.3348V94.5146H73.3719V97.9863H72.2293V90.1641H73.3719ZM63.2059 97.0635C66.3479 96.1553 68.3548 94.3462 68.5892 92.083H63.7771V91.1309H69.827C69.8196 94.4487 67.4832 96.8804 63.6893 98.001L63.2059 97.0635ZM64.993 100.638C64.9856 99.0776 66.6629 98.1255 69.2557 98.1328C71.8704 98.1255 73.5184 99.0776 73.5184 100.638C73.5184 102.22 71.8704 103.157 69.2557 103.157C66.6629 103.157 64.9856 102.22 64.993 100.638ZM66.1355 100.638C66.1209 101.619 67.344 102.242 69.2557 102.234C71.1673 102.242 72.4051 101.619 72.4051 100.638C72.4051 99.6562 71.1673 99.0483 69.2557 99.0557C67.344 99.0483 66.1209 99.6562 66.1355 100.638ZM87.7789 100.564V101.517H75.8551V100.564H81.2164V97.752H77.2613V91.0869H78.4186V93.4453H85.1861V91.0869H86.3141V97.752H82.3443V100.564H87.7789ZM78.4186 96.8145H85.1861V94.3828H78.4186V96.8145ZM99.3148 90.1641V98.0596H98.1576V95.0859H95.9457V94.1338H98.1576V90.1641H99.3148ZM88.5336 92.4785V91.541H91.7709V90.0469H92.8988V91.541H96.1361V92.4785H88.5336ZM89.31 95.4668C89.31 94.1045 90.5624 93.1523 92.3275 93.1523C94.1 93.1523 95.3451 94.1045 95.3598 95.4668C95.3451 96.873 94.1 97.7959 92.3275 97.7959C90.5624 97.7959 89.31 96.873 89.31 95.4668ZM90.4086 95.4668C90.4086 96.3311 91.1923 96.9023 92.3275 96.917C93.4628 96.9023 94.2465 96.3311 94.2465 95.4668C94.2465 94.6318 93.4628 94.0459 92.3275 94.0459C91.1923 94.0459 90.4086 94.6318 90.4086 95.4668ZM90.8041 103.011V98.7627H99.3148V103.011H90.8041ZM91.9467 102.073H98.1869V99.6855H91.9467V102.073ZM113.048 96.3604V97.3125H101.183V96.3604H113.048ZM101.857 94.6611C104.127 94.3975 106.317 93.2769 106.368 91.79H102.267V90.8379H111.993V91.79H107.862C107.914 93.2622 110.082 94.3975 112.389 94.6611L111.964 95.584C109.833 95.313 107.833 94.3535 107.115 92.9106C106.398 94.3535 104.413 95.313 102.267 95.584L101.857 94.6611ZM102.618 100.813C102.611 99.3193 104.303 98.4551 107.115 98.4551C109.906 98.4551 111.583 99.3193 111.598 100.813C111.583 102.322 109.906 103.157 107.115 103.157C104.303 103.157 102.611 102.322 102.618 100.813ZM103.79 100.813C103.776 101.722 105.028 102.242 107.115 102.234C109.181 102.242 110.433 101.722 110.441 100.813C110.433 99.8979 109.181 99.3779 107.115 99.3633C105.028 99.3779 103.776 99.8979 103.79 100.813Z" fill="#222222"/>
<circle cx="202" cy="43" r="31.5" fill="#EF403C"/>
<path d="M187.552 34.9092H185.801V27.6764L186.676 26.8008H193.914V28.5521H187.552V34.9092Z" fill="white"/>
<path d="M218.187 34.9092H216.436V28.5521H210.074V26.8008H217.311L218.187 27.6764V34.9092Z" fill="white"/>
<path d="M193.914 59.2021H186.676L185.801 58.3265V51.0938H187.552V57.4509H193.914V59.2021Z" fill="white"/>
<path d="M217.311 59.2021H210.074V57.4509H216.436V51.0938H218.187V58.3265L217.311 59.2021Z" fill="white"/>
<path d="M211.515 51.3555H210.154V52.7159H211.515V51.3555Z" fill="white"/>
<path d="M211.515 48.6289H210.154V49.9894H211.515V48.6289Z" fill="white"/>
<path d="M211.361 45H210V47.7108H211.361V45Z" fill="white"/>
<path d="M210.153 50H208.793V51.3605H210.153V50Z" fill="white"/>
<path d="M208.794 51.3555H207.434V52.7159H208.794V51.3555Z" fill="white"/>
<path d="M207.437 48.6328H206.076V51.3511H207.437V48.6328Z" fill="white"/>
<path d="M204.718 47.2578H203.357V49.9761H204.718V47.2578Z" fill="white"/>
<path d="M210.154 48.6188V47.2578H207.436V48.6188H210.154Z" fill="white"/>
<path d="M206.076 45.9196V44.5586H203.358V45.9196H206.076Z" fill="white"/>
<path d="M206.076 51.3555H203.357V52.7165H206.076V51.3555Z" fill="white"/>
<path d="M206.075 47.2578H204.715V48.6183H206.075V47.2578Z" fill="white"/>
<path d="M207.437 45.8984H206.076V47.2589H207.437V45.8984Z" fill="white"/>
<path d="M208.794 44.5469H207.434V45.9073H208.794V44.5469Z" fill="white"/>
<path d="M203.357 34.0898V42.3104H211.578V34.0898H203.357ZM209.526 40.2581H205.415V36.1478H209.526V40.2581Z" fill="white"/>
<path d="M193.09 44.5V52.7206H201.31V44.5H193.09ZM199.258 50.6683H195.148V46.558H199.258V50.6683Z" fill="white"/>
<path d="M193.09 34.0898V42.3104H201.31V34.0898H193.09ZM199.258 40.2581H195.148V36.1478H199.258V40.2581Z" fill="white"/>
<path d="M182.751 98.6748H184.187L185.308 100.14C186.099 99.4438 186.597 98.2793 186.604 96.6973C186.597 93.958 185.11 92.4785 183.191 92.4785C181.272 92.4785 179.785 93.958 179.778 96.6973C179.785 99.4292 181.272 100.909 183.191 100.916C183.586 100.916 183.967 100.85 184.319 100.726L182.751 98.6748ZM178.503 96.6973C178.496 93.3428 180.466 91.248 183.191 91.248C185.908 91.248 187.886 93.3428 187.878 96.6973C187.886 98.6821 187.197 100.22 186.069 101.15L187.454 102.996H186.018L185.095 101.758C184.524 102.015 183.879 102.146 183.191 102.146C180.466 102.146 178.496 100.052 178.503 96.6973ZM189.512 102V91.3945H193.115C195.598 91.3945 196.734 92.7715 196.734 94.6611C196.734 96.0674 196.104 97.166 194.756 97.6348L197.144 102H195.606L193.386 97.8765C193.306 97.8838 193.218 97.8838 193.13 97.8838H190.83V102H189.512ZM190.83 96.6826H193.071C194.763 96.6826 195.423 95.9209 195.43 94.6611C195.423 93.394 194.763 92.5664 193.057 92.5664H190.83V96.6826ZM212.291 90.1641V103.187H211.192V90.1641H212.291ZM200.997 99.7148C202.813 98.6309 203.875 96.2505 203.868 93.8848V92.6543H201.363V91.7021H207.369V92.6543H204.981V93.8848C204.981 96.1333 205.999 98.3818 207.794 99.4219L207.091 100.271C205.809 99.5024 204.901 98.0962 204.447 96.4409C203.978 98.2354 203.033 99.7661 201.729 100.579L200.997 99.7148ZM206.373 95.8037V94.8662H208.57V90.4863H209.654V102.513H208.57V95.8037H206.373ZM225.687 95.9648V96.8584H220.311V98.0742H224.164V100.887H216.429V102.161H224.559V103.04H215.287V100.066H223.036V98.9385H215.257V98.0742H219.183V96.8584H213.837V95.9648H225.687ZM214.466 94.4854C216.854 94.3315 218.89 93.5186 219.103 92.2148H215.052V91.3066H219.183V90.0908H220.311V91.3066H224.486V92.2148H220.399C220.604 93.5186 222.64 94.3315 225.043 94.4854L224.691 95.3643C222.516 95.1812 220.553 94.5073 219.754 93.2695C218.949 94.5073 216.986 95.1812 214.803 95.3643L214.466 94.4854Z" fill="#222222"/>
<path d="M311.5 61.25C310.738 61.25 310.104 60.9874 309.558 60.4415C309.013 59.8957 308.75 59.262 308.75 58.5C308.75 57.738 309.013 57.1043 309.558 56.5585C310.104 56.0126 310.738 55.75 311.5 55.75C312.262 55.75 312.896 56.0126 313.442 56.5585C313.987 57.1043 314.25 57.738 314.25 58.5C314.25 59.262 313.987 59.8957 313.442 60.4415C312.896 60.9874 312.262 61.25 311.5 61.25ZM322 61.25C321.238 61.25 320.604 60.9874 320.058 60.4415C319.513 59.8957 319.25 59.262 319.25 58.5C319.25 57.738 319.513 57.1043 320.058 56.5585C320.604 56.0126 321.238 55.75 322 55.75C322.762 55.75 323.396 56.0126 323.942 56.5585C324.487 57.1043 324.75 57.738 324.75 58.5C324.75 59.262 324.487 59.8957 323.942 60.4415C323.396 60.9874 322.762 61.25 322 61.25ZM332.5 61.25C331.738 61.25 331.104 60.9874 330.558 60.4415C330.013 59.8957 329.75 59.262 329.75 58.5C329.75 57.738 330.013 57.1043 330.558 56.5585C331.104 56.0126 331.738 55.75 332.5 55.75C333.262 55.75 333.896 56.0126 334.442 56.5585C334.987 57.1043 335.25 57.738 335.25 58.5C335.25 59.262 334.987 59.8957 334.442 60.4415C333.896 60.9874 333.262 61.25 332.5 61.25Z" stroke="#7C8189" stroke-width="1.5"/>
<path d="M309.663 91.4092V92.376H304.844V99.0117C307.195 99.019 308.74 98.9385 310.542 98.5869L310.688 99.5391C308.77 99.9053 307.18 99.9932 304.683 99.9932H303.687V91.4092H309.663ZM308.887 95.8623V94.9102H312.681V90.1641H313.838V103.216H312.681V95.8623H308.887ZM327.615 100.564V101.517H315.691V100.564H321.053V97.752H317.097V91.0869H318.255V93.4453H325.022V91.0869H326.15V97.752H322.18V100.564H327.615ZM318.255 96.8145H325.022V94.3828H318.255V96.8145ZM339.122 90.1641V103.187H337.964V90.1641H339.122ZM328.516 99.8027C332.039 98.1328 333.841 95.6353 334.097 92.5225H329.117V91.585H335.269C335.254 95.3276 333.511 98.6455 329.146 100.74L328.516 99.8027Z" fill="#222222"/>
</svg>
