<svg width="400" height="727" viewBox="0 0 400 727" fill="none" xmlns="http://www.w3.org/2000/svg">
<rect width="400" height="727" fill="white"/>
<rect width="400" height="58" fill="white"/>
<mask id="mask0_586_2626" style="mask-type:alpha" maskUnits="userSpaceOnUse" x="14" y="17" width="24" height="24">
<rect x="14" y="17" width="24" height="24" fill="#D9D9D9"/>
</mask>
<g mask="url(#mask0_586_2626)">
<path d="M23.0152 28.9994L30.248 36.2321C30.43 36.4141 30.5227 36.6397 30.526 36.9089C30.5292 37.1782 30.4397 37.4039 30.2577 37.5859C30.0756 37.7679 29.8499 37.8589 29.5807 37.8589C29.3116 37.8589 29.0859 37.7679 28.9038 37.5859L21.4578 30.1301C21.2936 29.9659 21.1762 29.7884 21.1057 29.5974C21.0352 29.4064 21 29.207 21 28.9994C21 28.7917 21.0352 28.5924 21.1057 28.4014C21.1762 28.2104 21.2936 28.0328 21.4578 27.8686L28.9038 20.4224C29.0859 20.2404 29.31 20.1478 29.576 20.1446C29.842 20.1414 30.066 20.2309 30.248 20.4129C30.43 20.5949 30.521 20.8205 30.521 21.0899C30.521 21.359 30.43 21.5846 30.248 21.7666L23.0152 28.9994Z" fill="#222222"/>
</g>
<path d="M114.927 76.1523V96.3086H111.675V91.0938H107.749V88.4863H111.675V85.5273H107.749V82.8906H111.675V76.1523H114.927ZM92.8074 81.6895V79.082H98.7254V76.123H101.977V79.082H107.602V81.6895H92.8074ZM94.1844 87.9297C94.1697 84.8975 96.7332 82.7734 100.307 82.7734C103.911 82.7734 106.504 84.8975 106.518 87.9297C106.504 90.9766 103.911 93.0713 100.307 93.0859C96.7332 93.0713 94.1697 90.9766 94.1844 87.9297ZM97.2312 87.9297C97.2166 89.585 98.491 90.5664 100.307 90.5664C102.138 90.5664 103.428 89.585 103.442 87.9297C103.428 86.3184 102.138 85.3369 100.307 85.3223C98.491 85.3369 97.2166 86.3184 97.2312 87.9297ZM97.4656 102.08V94.5801H100.776V99.4434H115.512V102.08H97.4656ZM141.045 76.123V102.607H137.94V89.1895H135.215V101.318H132.139V76.5918H135.215V86.4941H137.94V76.123H141.045ZM117.637 94.9023C121.563 92.6758 123.145 88.0615 123.145 82.8906V81.6309H118.428V79.0234H130.645V81.6309H126.309V82.8906C126.309 87.5928 127.891 91.9434 131.817 93.9648L129.912 96.4551C127.393 95.0928 125.738 92.7637 124.8 89.8926C123.907 93.1885 122.251 95.8398 119.629 97.3926L117.637 94.9023ZM171.955 76.123V102.637H168.673V76.123H171.955ZM151.33 96.3965V78.291H154.582V84.9121H160.998V78.291H164.22V96.3965H151.33ZM154.582 93.7305H160.998V87.4609H154.582V93.7305ZM189.372 77.5V88.5449H176.599V77.5H189.372ZM179.734 93.3496V90.8008H197.253V97.6562H182.986V99.7949H198.044V102.373H179.763V95.3125H194.089V93.3496H179.734ZM179.821 85.9961H186.15V80.1074H179.821V85.9961ZM194.03 89.5996V76.123H197.253V89.5996H194.03ZM222.757 76.1523V95.6934H219.505V85.9375H214.173V91.3867H201.78V77.8809H205.032V82.1582H210.95V77.8809H214.173V83.3008H219.505V76.1523H222.757ZM205.032 88.8086H210.95V84.6777H205.032V88.8086ZM205.296 102.08V93.7598H208.606V99.4434H223.343V102.08H205.296ZM248.875 79.668V82.3047H226.991V79.668H236.336V76.4746H239.559V79.668H248.875ZM225.907 99.7656V97.1289H236.336V93.877C231.766 93.5254 228.997 91.6797 229.012 88.75C228.997 85.5566 232.425 83.6523 237.948 83.6523C243.397 83.6523 246.869 85.5566 246.854 88.75C246.869 91.665 244.071 93.5107 239.559 93.877V97.1289H250.106V99.7656H225.907ZM232.352 88.75C232.337 90.4492 234.344 91.3135 237.948 91.3281C241.478 91.3135 243.514 90.4492 243.514 88.75C243.514 87.0801 241.478 86.2158 237.948 86.2012C234.344 86.2158 232.337 87.0801 232.352 88.75ZM279.814 76.123V90.332H276.533V76.123H279.814ZM258.222 83.5059C258.222 79.8291 261.269 77.2803 265.371 77.2949C269.458 77.2803 272.504 79.8291 272.49 83.5059C272.504 87.124 269.458 89.6729 265.371 89.6582C261.269 89.6729 258.222 87.124 258.222 83.5059ZM261.416 83.5059C261.401 85.6299 263.056 86.9775 265.371 86.9922C267.641 86.9775 269.296 85.6299 269.296 83.5059C269.296 81.3818 267.641 80.0049 265.371 80.0195C263.056 80.0049 261.401 81.3818 261.416 83.5059ZM262.295 102.285V91.5625H265.517V94.2871H276.562V91.5625H279.814V102.285H262.295ZM265.517 99.6484H276.562V96.8359H265.517V99.6484ZM295.737 77.7051V85.6738H287.388V88.9258C291.651 88.9258 294.068 88.8086 296.88 88.2812L297.202 90.918C294.038 91.46 291.299 91.5332 286.099 91.5332H284.165V83.2422H292.486V80.2832H284.107V77.7051H295.737ZM287.154 96.3086V93.7012H305.259V102.607H302.007V96.3086H287.154ZM297.32 88.0762V85.4688H302.007V82.5098H297.32V79.9023H302.007V76.1523H305.259V92.4414H302.007V88.0762H297.32Z" fill="#222222"/>
<circle cx="128" cy="148" r="12" fill="#444444"/>
<circle cx="176" cy="148" r="12" fill="#444444"/>
<circle cx="224" cy="148" r="12" fill="#D9D9D9"/>
<circle cx="272" cy="148" r="12" fill="#D9D9D9"/>
<path d="M154.994 199.145V200.434H139.095V199.145H146.244V195.863H141.088V190.512H151.478V187.777H141.048V186.508H152.982V191.762H142.611V194.594H153.392V195.863H147.748V199.145H154.994ZM169.672 187.074V188.812C169.672 191 169.672 193.471 169.027 197.25L167.465 197.094C168.168 193.539 168.168 190.941 168.168 188.812V188.344H157.699V187.074H169.672ZM155.98 200.023V198.754H171.801V200.023H155.98ZM187.202 185.238V197.934H185.678V185.238H187.202ZM173.276 190.707C173.266 188.207 175.229 186.459 177.827 186.449C180.424 186.459 182.368 188.207 182.377 190.707C182.368 193.236 180.424 194.994 177.827 194.984C175.229 194.994 173.266 193.236 173.276 190.707ZM174.78 190.707C174.76 192.436 176.069 193.637 177.827 193.637C179.555 193.637 180.873 192.436 180.873 190.707C180.873 189.008 179.555 187.797 177.827 187.797C176.069 187.797 174.76 189.008 174.78 190.707ZM175.991 202.211V196.645H177.514V200.922H187.748V202.211H175.991ZM208.687 185.219V202.621H207.144V185.219H208.687ZM195.386 198.422V186.703H196.909V191.293H202.085V186.703H203.589V198.422H195.386ZM196.909 197.133H202.085V192.523H196.909V197.133ZM220.318 186.195V193.266H212.173V186.195H220.318ZM213.677 192.055H218.814V187.445H213.677V192.055ZM214.302 196.273V195.043H225.572V199.184H215.845V201.137H226.197V202.387H214.322V198.051H224.068V196.273H214.302ZM224.068 194.184V185.219H225.572V194.184H224.068ZM242.535 185.238V198.09H240.992V191.41H236.891V195.121H229.02V186.391H230.543V189.477H235.387V186.391H236.891V190.121H240.992V185.238H242.535ZM230.543 193.852H235.387V190.688H230.543V193.852ZM231.305 202.211V196.82H232.848V200.922H242.926V202.211H231.305ZM260.026 187.797V189.066H245.807V187.797H252.174V185.512H253.678V187.797H260.026ZM245.026 200.551V199.281H252.174V196.84C249.079 196.674 247.213 195.473 247.233 193.52C247.213 191.459 249.391 190.238 252.936 190.258C256.432 190.238 258.649 191.459 258.639 193.52C258.649 195.473 256.745 196.674 253.678 196.84V199.281H260.924V200.551H245.026ZM248.776 193.52C248.756 194.838 250.348 195.6 252.936 195.609C255.495 195.6 257.086 194.838 257.077 193.52C257.086 192.23 255.495 191.469 252.936 191.469C250.348 191.469 248.756 192.23 248.776 193.52ZM122.547 226.109V224.664L128.914 214.859H131.082V224.566H133.055V226.109H131.082V229H129.402V226.109H122.547ZM124.441 224.566H129.402V217.086H129.227L124.441 224.449V224.566ZM140.233 218.551C140.213 221.334 142.225 224.4 144.745 225.602L143.866 226.812C141.912 225.855 140.262 223.805 139.481 221.451C138.68 224 136.942 226.246 134.998 227.242L134.061 226.031C136.561 224.811 138.709 221.51 138.729 218.551V216.285H134.686V215.016H144.139V216.285H140.233V218.551ZM146.268 230.582V213.219H147.791V220.25H150.702V221.559H147.791V230.582H146.268ZM165.575 213.219V230.621H164.052V213.219H165.575ZM152.216 216.109V214.84H160.302V221.012H153.817V225.113C156.698 225.123 159.266 224.986 162.372 224.488L162.528 225.777C159.335 226.275 156.698 226.402 153.7 226.402H152.255V219.762H158.759V216.109H152.216ZM184.003 221.285V222.496H168.105V221.285H184.003ZM170.019 225.035V223.883H182.011V227.574H171.581V229.234H182.577V230.348H170.038V226.52H180.488V225.035H170.019ZM170.116 214.859V213.746H181.952V217.34H171.698V218.863H182.265V219.977H170.175V216.285H180.409V214.859H170.116ZM203.965 213.219V222.535H202.441V213.219H203.965ZM190.039 218.062C190.029 215.689 191.953 214.059 194.59 214.078C197.227 214.059 199.131 215.689 199.141 218.062C199.131 220.426 197.227 222.057 194.59 222.047C191.953 222.057 190.029 220.426 190.039 218.062ZM191.543 218.062C191.523 219.645 192.803 220.768 194.59 220.777C196.357 220.768 197.637 219.645 197.637 218.062C197.637 216.471 196.357 215.357 194.59 215.367C192.803 215.357 191.523 216.471 191.543 218.062ZM192.715 230.348V223.414H194.238V225.523H202.441V223.414H203.965V230.348H192.715ZM194.238 229.098H202.441V226.754H194.238V229.098ZM214.756 214.293V219.156H208.78V221.852C212.041 221.861 213.731 221.793 215.772 221.422L215.928 222.691C213.77 223.043 212.002 223.102 208.487 223.102H207.256V217.984H213.233V215.523H207.217V214.293H214.756ZM209.209 226.09V224.84H220.909V230.621H219.366V226.09H209.209ZM215.909 220.68V219.41H219.366V217.066H215.909V215.816H219.366V213.238H220.909V223.902H219.366V220.68H215.909ZM236.837 213.219V220.387H239.747V221.656H236.837V230.582H235.313V213.219H236.837ZM223.302 217.281V216.012H227.774V213.434H229.298V216.012H233.634V217.281H223.302ZM224.298 222.711C224.288 220.367 226.085 218.727 228.555 218.727C231.007 218.727 232.794 220.367 232.813 222.711C232.794 225.064 231.007 226.695 228.555 226.695C226.085 226.695 224.288 225.064 224.298 222.711ZM225.762 222.711C225.753 224.293 226.934 225.406 228.555 225.387C230.157 225.406 231.329 224.293 231.348 222.711C231.329 221.139 230.157 220.006 228.555 220.016C226.934 220.006 225.753 221.139 225.762 222.711ZM245.441 218.16C245.441 220.924 246.788 223.902 249.093 225.27L248.214 226.461C246.534 225.445 245.333 223.59 244.728 221.471C244.093 223.785 242.804 225.777 241.066 226.832L240.089 225.68C242.491 224.273 243.956 221.197 243.956 218.219V214.859H245.441V218.16ZM247.179 220.758V219.449H250.128V213.59H251.573V229.703H250.128V220.758H247.179ZM253.683 230.582V213.219H255.167V230.582H253.683ZM273.068 227.066V228.355H257.17V227.066H261.115V222.389C259.63 221.617 258.732 220.367 258.732 218.785C258.732 216.1 261.369 214.332 265.08 214.312C268.791 214.332 271.427 216.1 271.427 218.785C271.427 220.338 270.558 221.568 269.123 222.34V227.066H273.068ZM260.216 218.785C260.207 220.729 262.228 222.027 265.08 222.027C267.902 222.027 269.943 220.729 269.943 218.785C269.943 216.842 267.902 215.562 265.08 215.582C262.228 215.562 260.207 216.842 260.216 218.785ZM262.619 227.066H267.58V222.936C266.828 223.131 265.988 223.238 265.08 223.238C264.191 223.238 263.361 223.141 262.619 222.945V227.066ZM275.891 229.117C275.207 229.107 274.621 228.541 274.641 227.848C274.621 227.164 275.207 226.598 275.891 226.598C276.584 226.598 277.15 227.164 277.141 227.848C277.15 228.541 276.584 229.107 275.891 229.117Z" fill="#222222"/>
</svg>
