<svg width="120" height="121" viewBox="0 0 120 121" fill="none" xmlns="http://www.w3.org/2000/svg">
<rect x="-0.00195312" y="0.161133" width="120" height="120" rx="24" fill="white"/>
<g clip-path="url(#clip0_62_121)">
<path d="M33.6068 95.1921C30.6645 95.1921 28.2734 92.801 28.2734 89.8588V51.9388C28.2734 48.9966 30.6645 46.6055 33.6068 46.6055C36.549 46.6055 38.9401 48.9966 38.9401 51.9388V89.8588C38.9401 92.801 36.549 95.1921 33.6068 95.1921Z" fill="#A6F4C2"/>
<path d="M51.1986 95.1921C48.2563 95.1921 45.8652 92.801 45.8652 89.8588V51.9388C45.8652 48.9966 48.2563 46.6055 51.1986 46.6055C54.1408 46.6055 56.5319 48.9966 56.5319 51.9388V89.8588C56.5319 92.801 54.1408 95.1921 51.1986 95.1921Z" fill="#A6F4C2"/>
<path d="M68.7982 95.1921C65.856 95.1921 63.4648 92.801 63.4648 89.8588V51.9388C63.4648 48.9966 65.856 46.6055 68.7982 46.6055C71.7404 46.6055 74.1315 48.9966 74.1315 51.9388V89.8588C74.1315 92.801 71.7404 95.1921 68.7982 95.1921Z" fill="#A6F4C2"/>
<path d="M86.388 95.1921C83.4458 95.1921 81.0547 92.801 81.0547 89.8588V51.9388C81.0547 48.9966 83.4458 46.6055 86.388 46.6055C89.3302 46.6055 91.7214 48.9966 91.7214 51.9388V89.8588C91.7214 92.801 89.3302 95.1921 86.388 95.1921Z" fill="#A6F4C2"/>
<path d="M95.8288 52.2141H24.1665C22.7443 52.2141 21.5977 51.0585 21.5977 49.6452V45.4408C21.5977 44.5074 22.1043 43.6452 22.9221 43.1919L58.7443 23.2808C59.5177 22.8452 60.4688 22.8452 61.2421 23.2808L97.0732 43.183C97.891 43.6363 98.3977 44.4985 98.3977 45.4319V49.6363C98.3977 51.0585 97.2421 52.2052 95.8288 52.2052V52.2141Z" fill="#00C18A"/>
<path d="M94.0332 86.8545H25.9621C23.5517 86.8545 21.5977 88.8085 21.5977 91.2189V93.8234C21.5977 96.2338 23.5517 98.1878 25.9621 98.1878H94.0332C96.4436 98.1878 98.3977 96.2338 98.3977 93.8234V91.2189C98.3977 88.8085 96.4436 86.8545 94.0332 86.8545Z" fill="#00C18A"/>
</g>
<defs>
<clipPath id="clip0_62_121">
<rect width="76.8" height="75.2267" fill="white" transform="translate(21.5977 22.9609)"/>
</clipPath>
</defs>
</svg>
