<svg width="340" height="341" viewBox="0 0 340 341" fill="none" xmlns="http://www.w3.org/2000/svg">
<g opacity="0.5" clip-path="url(#clip0_490_1692)">
<path d="M166.778 224.363C166.16 224.325 165.693 223.783 165.731 223.164C165.75 222.546 166.293 222.079 166.912 222.117C167.53 222.155 167.997 222.698 167.959 223.317C167.921 223.897 167.435 224.363 166.855 224.363H166.778ZM184.331 221.365C184.16 220.785 184.483 220.147 185.083 219.976C185.683 219.785 186.301 220.128 186.492 220.728C186.682 221.308 186.339 221.946 185.74 222.136C185.625 222.155 185.511 222.174 185.426 222.174C184.94 222.174 184.483 221.86 184.34 221.365H184.331ZM148.207 219.871C147.646 219.624 147.379 218.948 147.627 218.386C147.893 217.825 148.55 217.558 149.131 217.806C149.692 218.072 149.959 218.729 149.692 219.291C149.502 219.719 149.093 219.966 148.664 219.966C148.512 219.966 148.36 219.947 148.217 219.871H148.207ZM201.189 213.266C200.817 212.761 200.903 212.048 201.417 211.695C201.903 211.324 202.616 211.41 202.997 211.905C203.368 212.409 203.264 213.123 202.769 213.475C202.559 213.628 202.321 213.704 202.093 213.704C201.76 213.704 201.417 213.551 201.189 213.275V213.266ZM132.34 209.24C131.892 208.812 131.873 208.098 132.301 207.641C132.73 207.213 133.463 207.194 133.891 207.622C134.339 208.05 134.358 208.764 133.929 209.211C133.701 209.44 133.406 209.554 133.12 209.554C132.835 209.554 132.559 209.44 132.33 209.24H132.34ZM214.163 199.808C213.639 199.475 213.487 198.78 213.83 198.247C214.163 197.723 214.858 197.571 215.391 197.914C215.914 198.247 216.066 198.942 215.724 199.446V199.465C215.495 199.779 215.143 199.97 214.772 199.97C214.562 199.97 214.363 199.913 214.172 199.798L214.163 199.808ZM121.165 193.764C120.898 193.203 121.126 192.527 121.688 192.26C122.25 191.984 122.926 192.222 123.192 192.784C123.478 193.345 123.23 194.002 122.669 194.288C122.516 194.364 122.354 194.402 122.183 194.402C121.774 194.402 121.355 194.154 121.174 193.764H121.165ZM221.682 182.667C221.083 182.533 220.693 181.934 220.835 181.334C220.969 180.734 221.568 180.344 222.168 180.468C222.768 180.62 223.158 181.201 223.034 181.819C222.92 182.343 222.454 182.705 221.93 182.705C221.854 182.705 221.778 182.686 221.682 182.667ZM116.024 175.366C115.967 174.748 116.415 174.205 117.033 174.148C117.652 174.072 118.195 174.538 118.252 175.157C118.328 175.776 117.881 176.318 117.262 176.375H117.148C116.567 176.375 116.082 175.947 116.024 175.366ZM221.54 163.051C221.445 162.432 221.873 161.87 222.492 161.775C223.11 161.68 223.672 162.108 223.767 162.727C223.843 163.346 223.415 163.907 222.815 164.002C222.758 164.002 222.701 164.021 222.644 164.021C222.101 164.021 221.616 163.612 221.54 163.041V163.051ZM118.376 157.721C117.776 157.549 117.424 156.931 117.586 156.331C117.738 155.731 118.357 155.37 118.956 155.522C119.556 155.693 119.908 156.312 119.765 156.912C119.632 157.416 119.166 157.759 118.68 157.759C118.585 157.759 118.49 157.74 118.385 157.721H118.376ZM215.857 145.652C215.571 145.11 215.781 144.415 216.323 144.129C216.866 143.825 217.561 144.034 217.846 144.577C218.142 145.119 217.942 145.814 217.399 146.09C217.228 146.185 217.047 146.223 216.856 146.223C216.466 146.223 216.066 146.014 215.867 145.643L215.857 145.652ZM125.933 140.589C125.41 140.227 125.296 139.542 125.648 139.028C126 138.524 126.695 138.39 127.199 138.742C127.704 139.104 127.837 139.808 127.485 140.322C127.257 140.617 126.923 140.789 126.562 140.789C126.333 140.789 126.114 140.732 125.924 140.579L125.933 140.589ZM204.53 131.29C204.063 130.881 204.006 130.167 204.415 129.691C204.825 129.225 205.539 129.187 206.005 129.596C206.472 130.005 206.51 130.719 206.1 131.195C205.872 131.442 205.577 131.566 205.253 131.566C204.987 131.566 204.73 131.471 204.52 131.29H204.53ZM138.907 127.14C138.555 126.636 138.679 125.922 139.212 125.579C139.717 125.218 140.411 125.351 140.764 125.865C141.116 126.369 140.992 127.083 140.478 127.416C140.269 127.569 140.05 127.626 139.821 127.626C139.469 127.626 139.126 127.454 138.898 127.14H138.907ZM192.974 123.562C192.412 123.276 192.184 122.619 192.469 122.058C192.736 121.496 193.412 121.268 193.973 121.534V121.554C194.535 121.82 194.763 122.496 194.478 123.057C194.288 123.448 193.897 123.676 193.488 123.676C193.317 123.676 193.155 123.638 192.983 123.562H192.974ZM155.765 119.041C155.613 118.441 155.975 117.823 156.574 117.67C157.174 117.518 157.793 117.88 157.945 118.479C158.097 119.079 157.736 119.698 157.136 119.85C157.041 119.869 156.946 119.888 156.85 119.888C156.346 119.888 155.898 119.555 155.765 119.041ZM175.383 118.479C174.765 118.422 174.317 117.861 174.393 117.261C174.45 116.623 175.012 116.195 175.631 116.252C176.25 116.309 176.697 116.871 176.621 117.489C176.564 118.07 176.078 118.498 175.498 118.498C175.498 118.498 175.421 118.498 175.383 118.479Z" fill="#009AE7" fill-opacity="0.03"/>
<path d="M167.453 240.676C166.216 240.619 165.245 239.591 165.273 238.354C165.33 237.098 166.377 236.146 167.615 236.175C168.852 236.213 169.823 237.26 169.776 238.497C169.738 239.715 168.748 240.676 167.548 240.676H167.453ZM183.987 237.06C183.683 235.842 184.435 234.623 185.634 234.338C186.833 234.033 188.052 234.766 188.356 235.984C188.661 237.183 187.909 238.402 186.709 238.706C186.519 238.744 186.357 238.763 186.186 238.763C185.158 238.763 184.235 238.069 183.987 237.06ZM148.378 237.326C147.197 236.936 146.559 235.661 146.931 234.48C147.321 233.3 148.577 232.663 149.767 233.034C150.948 233.424 151.604 234.68 151.233 235.861C150.919 236.822 150.034 237.421 149.072 237.421C148.844 237.421 148.625 237.383 148.378 237.326ZM201.635 230.74C201.035 229.655 201.406 228.284 202.501 227.685C203.586 227.066 204.957 227.437 205.557 228.532C206.175 229.617 205.785 230.987 204.709 231.606C204.357 231.796 203.976 231.882 203.605 231.882C202.815 231.882 202.054 231.473 201.635 230.74ZM130.958 228.903C129.93 228.208 129.645 226.8 130.339 225.772C131.015 224.744 132.424 224.458 133.452 225.153C134.48 225.829 134.766 227.238 134.071 228.265C133.643 228.922 132.929 229.274 132.196 229.274C131.786 229.274 131.348 229.141 130.958 228.903ZM216.922 219.89C216.037 219.005 216.037 217.587 216.903 216.701C217.788 215.816 219.206 215.816 220.092 216.682C220.977 217.568 220.977 218.986 220.111 219.871C219.663 220.318 219.102 220.547 218.521 220.547C217.94 220.547 217.379 220.318 216.931 219.89H216.922ZM116.461 216.064C115.652 215.121 115.766 213.703 116.709 212.894C117.661 212.085 119.069 212.2 119.897 213.161C120.707 214.103 120.592 215.521 119.631 216.33C119.222 216.692 118.689 216.873 118.165 216.873C117.527 216.873 116.909 216.597 116.461 216.064ZM228.64 205.261C227.554 204.662 227.155 203.272 227.754 202.206C228.354 201.121 229.725 200.721 230.829 201.321C231.895 201.92 232.295 203.291 231.695 204.376C231.305 205.109 230.534 205.537 229.725 205.537C229.372 205.537 228.992 205.442 228.64 205.261ZM106.029 199.769C105.505 198.646 105.991 197.314 107.114 196.79C108.256 196.267 109.589 196.771 110.093 197.895C110.617 199.018 110.131 200.35 109.008 200.874C108.694 201.007 108.37 201.083 108.066 201.083C107.199 201.083 106.4 200.598 106.019 199.769H106.029ZM235.979 187.987C234.779 187.701 234.027 186.502 234.313 185.284C234.598 184.084 235.817 183.313 237.016 183.618C238.234 183.894 238.986 185.122 238.701 186.321C238.453 187.349 237.54 188.063 236.502 188.063C236.331 188.063 236.169 188.044 235.979 187.987ZM100.384 181.258C100.194 180.02 101.041 178.878 102.259 178.669C103.497 178.478 104.639 179.326 104.829 180.544C105.039 181.781 104.192 182.923 102.973 183.114C102.859 183.133 102.726 183.152 102.621 183.152C101.536 183.152 100.574 182.362 100.394 181.258H100.384ZM235.979 167.248C235.921 166.01 236.883 164.963 238.139 164.906C239.377 164.849 240.424 165.81 240.481 167.048C240.538 168.285 239.577 169.332 238.339 169.389C238.339 169.389 238.263 169.408 238.225 169.408C237.026 169.408 236.036 168.456 235.979 167.248ZM101.964 164.402C100.746 164.25 99.8605 163.126 99.9937 161.908C100.146 160.671 101.269 159.786 102.507 159.938C103.725 160.09 104.61 161.194 104.477 162.432C104.325 163.574 103.373 164.421 102.25 164.421C102.154 164.421 102.059 164.421 101.964 164.402ZM232.675 149.44C232.285 148.26 232.923 146.984 234.103 146.594C235.284 146.204 236.559 146.842 236.949 148.022C237.34 149.202 236.702 150.477 235.522 150.868C235.274 150.944 235.055 150.982 234.808 150.982C233.865 150.982 232.99 150.382 232.666 149.44H232.675ZM106.124 146.118C104.982 145.633 104.439 144.32 104.905 143.177C105.391 142.035 106.704 141.493 107.847 141.959C109.008 142.445 109.532 143.758 109.065 144.919V144.9C108.713 145.785 107.866 146.29 106.98 146.29C106.695 146.29 106.4 146.233 106.114 146.118H106.124ZM224.68 133.184C223.966 132.156 224.251 130.747 225.279 130.053C226.307 129.358 227.697 129.624 228.392 130.652C229.087 131.68 228.82 133.089 227.792 133.783C227.421 134.05 226.964 134.174 226.536 134.174C225.803 134.174 225.108 133.812 224.68 133.184ZM115.09 129.653C114.12 128.882 113.948 127.454 114.719 126.483C115.49 125.513 116.899 125.341 117.87 126.112C118.841 126.883 119.012 128.301 118.241 129.282C117.813 129.843 117.137 130.129 116.48 130.129C115.995 130.129 115.509 129.976 115.09 129.662V129.653ZM212.553 119.716C211.601 118.907 211.487 117.48 212.267 116.547C213.076 115.595 214.495 115.481 215.437 116.271H215.456C216.398 117.08 216.522 118.498 215.723 119.44C215.275 119.983 214.637 120.249 214 120.249C213.495 120.249 212.972 120.078 212.553 119.726V119.716ZM128.179 116.223C127.446 115.233 127.674 113.825 128.683 113.092C129.692 112.359 131.101 112.588 131.834 113.596C132.548 114.586 132.319 115.995 131.31 116.728C130.92 117.023 130.463 117.156 129.997 117.156C129.302 117.156 128.607 116.842 128.179 116.214V116.223ZM200.207 111.522C199.103 110.96 198.665 109.609 199.236 108.504C199.817 107.4 201.168 106.944 202.273 107.534C203.377 108.095 203.815 109.447 203.244 110.551C202.853 111.341 202.044 111.788 201.235 111.788C200.883 111.788 200.54 111.693 200.207 111.522ZM144.437 106.886C144.008 105.725 144.608 104.45 145.788 104.022C146.95 103.593 148.244 104.193 148.654 105.354C149.082 106.515 148.482 107.81 147.321 108.238C147.054 108.333 146.797 108.371 146.55 108.371C145.627 108.371 144.77 107.81 144.427 106.886H144.437ZM183.13 105.525C181.912 105.259 181.122 104.079 181.369 102.86C181.617 101.642 182.797 100.852 184.016 101.1C185.234 101.347 186.024 102.546 185.777 103.765C185.567 104.831 184.615 105.564 183.587 105.564C183.435 105.564 183.283 105.544 183.14 105.525H183.13ZM162.627 102.337C162.532 101.081 163.455 100.015 164.693 99.9195C165.93 99.8053 167.015 100.748 167.11 101.985C167.206 103.222 166.263 104.307 165.026 104.402H164.854C163.693 104.402 162.694 103.498 162.627 102.337Z" fill="#009AE7" fill-opacity="0.05"/>
<path d="M168.111 256.98C166.235 256.942 164.769 255.4 164.808 253.525C164.846 251.669 166.388 250.185 168.263 250.223C170.119 250.261 171.604 251.822 171.566 253.668C171.528 255.505 170.005 256.971 168.168 256.971H168.111V256.98ZM183.54 252.574C183.169 250.756 184.35 248.976 186.168 248.595C188.005 248.205 189.785 249.385 190.165 251.222C190.537 253.04 189.356 254.82 187.538 255.201C187.31 255.258 187.091 255.277 186.862 255.277C185.282 255.277 183.883 254.173 183.54 252.574ZM148.749 254.353C146.95 253.906 145.846 252.069 146.313 250.242C146.76 248.443 148.597 247.358 150.425 247.805C152.224 248.272 153.309 250.109 152.862 251.917C152.471 253.43 151.101 254.468 149.578 254.468C149.311 254.468 149.035 254.43 148.749 254.353ZM201.617 247.472C200.846 245.788 201.598 243.779 203.282 243.008C204.967 242.218 206.976 242.97 207.747 244.674C208.537 246.359 207.785 248.367 206.081 249.138C205.633 249.347 205.158 249.442 204.691 249.442C203.397 249.442 202.178 248.709 201.617 247.472ZM130.502 247.453C128.836 246.606 128.179 244.569 129.017 242.913C129.883 241.248 131.901 240.61 133.577 241.447C135.223 242.295 135.88 244.331 135.042 245.987C134.443 247.149 133.262 247.824 132.025 247.824C131.521 247.824 130.997 247.71 130.502 247.453ZM218.084 238.487C216.961 236.984 217.237 234.871 218.722 233.738C220.207 232.615 222.32 232.891 223.443 234.376C224.566 235.842 224.309 237.954 222.824 239.106C222.206 239.572 221.473 239.801 220.759 239.801C219.75 239.801 218.75 239.354 218.074 238.487H218.084ZM114.225 236.689C112.797 235.489 112.616 233.348 113.816 231.93C115.015 230.502 117.138 230.321 118.556 231.521C119.984 232.72 120.165 234.842 118.965 236.26C118.309 237.069 117.357 237.479 116.376 237.479C115.624 237.479 114.853 237.212 114.215 236.689H114.225ZM232.134 226.019C230.687 224.839 230.506 222.698 231.686 221.26C232.867 219.833 235.008 219.633 236.427 220.813C237.873 222.012 238.073 224.135 236.874 225.572C236.217 226.381 235.246 226.79 234.266 226.79C233.514 226.79 232.743 226.543 232.124 226.019H232.134ZM100.784 222.526C99.6613 221.042 99.9564 218.929 101.441 217.796C102.945 216.673 105.039 216.968 106.163 218.453C107.286 219.938 106.991 222.05 105.506 223.174C104.906 223.64 104.173 223.868 103.478 223.868C102.45 223.868 101.432 223.402 100.775 222.517L100.784 222.526ZM243.004 210.715C241.338 209.868 240.681 207.85 241.519 206.175V206.194C242.347 204.528 244.384 203.853 246.041 204.69C247.706 205.518 248.382 207.555 247.544 209.211V209.23C246.945 210.391 245.764 211.086 244.527 211.086C244.023 211.086 243.499 210.953 243.004 210.715ZM90.8564 205.728C90.0854 204.024 90.8564 202.035 92.5413 201.264C94.2451 200.512 96.2345 201.264 97.0056 202.967C97.7766 204.671 97.0056 206.66 95.3207 207.431C94.8734 207.641 94.3974 207.726 93.931 207.726C92.6365 207.726 91.418 206.974 90.8564 205.718V205.728ZM250.248 193.393C248.43 192.945 247.326 191.128 247.773 189.3C248.201 187.501 250.038 186.397 251.856 186.845C253.656 187.273 254.76 189.11 254.312 190.918C253.941 192.46 252.57 193.488 251.047 193.488C250.781 193.488 250.505 193.469 250.238 193.393H250.248ZM84.9168 187.149C84.5646 185.312 85.7449 183.551 87.563 183.171C89.4001 182.809 91.1801 183.999 91.5418 185.836C91.913 187.654 90.7327 189.433 88.8956 189.795C88.6671 189.852 88.4482 189.871 88.2388 189.871C86.6682 189.871 85.2404 188.748 84.9168 187.149ZM253.398 174.881C251.523 174.843 250.038 173.32 250.057 171.445C250.096 169.589 251.638 168.104 253.494 168.123C255.369 168.161 256.854 169.684 256.816 171.559C256.797 173.396 255.274 174.881 253.437 174.881H253.398ZM86.5445 171.169C84.6883 171.112 83.2224 169.56 83.2605 167.704C83.3176 165.849 84.8692 164.364 86.7253 164.421C88.6005 164.478 90.0664 166.039 90.0093 167.885C89.9522 169.722 88.4482 171.169 86.6301 171.169H86.5349H86.5445ZM248.315 153.542C247.925 151.724 249.087 149.925 250.905 149.526C252.723 149.155 254.522 150.316 254.922 152.134C255.293 153.951 254.131 155.75 252.313 156.15C252.085 156.188 251.847 156.226 251.618 156.226C250.038 156.226 248.658 155.141 248.315 153.542ZM88.4387 152.495C86.6396 152.029 85.5545 150.173 86.04 148.374C86.5064 146.575 88.3435 145.49 90.1425 145.957C91.9416 146.423 93.0267 148.279 92.5603 150.078C92.17 151.601 90.7993 152.609 89.2954 152.609C89.0098 152.609 88.7147 152.571 88.4292 152.495H88.4387ZM242.595 136.477C241.824 134.773 242.557 132.765 244.241 131.994C245.926 131.204 247.935 131.937 248.725 133.622C249.515 135.306 248.782 137.315 247.097 138.105C246.631 138.333 246.145 138.419 245.669 138.419C244.394 138.419 243.175 137.686 242.595 136.467V136.477ZM94.4831 134.716C92.8363 133.85 92.1986 131.813 93.0553 130.157C93.9215 128.511 95.9585 127.873 97.6148 128.73C99.2615 129.596 99.8993 131.613 99.0426 133.27V133.289C98.4429 134.431 97.2626 135.087 96.0442 135.087C95.5206 135.087 94.9971 134.973 94.4831 134.716ZM233.238 121.106C232.096 119.621 232.372 117.508 233.837 116.357C235.322 115.215 237.436 115.491 238.578 116.956C239.72 118.431 239.444 120.554 237.978 121.696C237.359 122.162 236.626 122.41 235.913 122.41C234.904 122.41 233.904 121.963 233.228 121.096L233.238 121.106ZM104.325 118.727C102.898 117.527 102.736 115.386 103.935 113.968V113.987C105.154 112.559 107.276 112.397 108.695 113.597C110.103 114.796 110.284 116.937 109.066 118.355C108.409 119.145 107.457 119.536 106.496 119.536C105.725 119.536 104.954 119.269 104.316 118.727H104.325ZM220.673 108.238V108.219C219.226 107.058 219.026 104.916 220.188 103.47C221.368 102.023 223.491 101.823 224.947 103.003C226.394 104.164 226.594 106.306 225.413 107.753C224.757 108.562 223.786 108.99 222.805 108.99C222.053 108.99 221.282 108.742 220.664 108.238H220.673ZM117.49 105.335C116.367 103.831 116.681 101.737 118.166 100.605C119.67 99.5008 121.783 99.8149 122.887 101.3C124.01 102.803 123.696 104.916 122.192 106.03C121.592 106.477 120.879 106.706 120.184 106.706C119.156 106.706 118.137 106.239 117.48 105.335H117.49ZM207.452 99.4818C205.805 98.5967 205.167 96.5599 206.043 94.9228C206.909 93.2668 208.946 92.6291 210.602 93.5142C212.249 94.3803 212.868 96.4171 212.011 98.0732C211.411 99.2153 210.231 99.872 209.032 99.872C208.489 99.872 207.947 99.7388 207.452 99.4818ZM133.32 95.2464C132.568 93.5428 133.339 91.5536 135.042 90.8017C136.746 90.0498 138.736 90.8397 139.488 92.5244C140.24 94.2471 139.469 96.2363 137.765 96.9882C137.317 97.1785 136.861 97.2737 136.413 97.2737C135.1 97.2737 133.862 96.5218 133.32 95.2464ZM190.689 92.886C188.89 92.4006 187.824 90.5637 188.309 88.7649C188.795 86.966 190.651 85.9001 192.431 86.3855C194.249 86.8518 195.296 88.7078 194.83 90.5066C194.42 92.0104 193.05 93.0003 191.565 93.0003C191.26 93.0003 190.984 92.9622 190.68 92.886H190.689ZM150.986 88.9457C150.653 87.1088 151.853 85.348 153.671 84.9864C155.508 84.6533 157.269 85.8525 157.63 87.6704C157.983 89.5073 156.783 91.268 154.946 91.6297C154.737 91.6678 154.518 91.6868 154.308 91.6868C152.719 91.6868 151.31 90.5637 150.986 88.9457ZM172.889 90.2211C171.033 90.164 169.567 88.5936 169.643 86.7376C169.7 84.8817 171.252 83.416 173.127 83.4921C174.983 83.5492 176.449 85.1006 176.373 86.9851C176.316 88.803 174.821 90.2306 172.994 90.2306H172.879L172.889 90.2211Z" fill="#009AE7" fill-opacity="0.1"/>
<path d="M164.284 268.715C164.322 266.24 166.368 264.232 168.843 264.27C171.337 264.308 173.327 266.335 173.288 268.829C173.269 271.303 171.223 273.312 168.748 273.274C166.254 273.255 164.265 271.208 164.284 268.715ZM183.074 268.001C182.626 265.564 184.254 263.223 186.691 262.766C189.128 262.338 191.469 263.965 191.926 266.402C192.354 268.838 190.746 271.189 188.309 271.637C188.023 271.675 187.766 271.713 187.5 271.713C185.358 271.713 183.445 270.18 183.074 268.001ZM149.225 271.17V271.151C146.788 270.666 145.208 268.286 145.722 265.84C146.227 263.404 148.606 261.843 151.043 262.347C153.48 262.833 155.041 265.212 154.527 267.658C154.099 269.8 152.223 271.256 150.12 271.256C149.815 271.256 149.52 271.218 149.216 271.161L149.225 271.17ZM201.378 263.746C200.474 261.443 201.626 258.835 203.948 257.931V257.95C206.271 257.027 208.879 258.198 209.764 260.52C210.669 262.823 209.498 265.431 207.194 266.335C206.652 266.545 206.109 266.64 205.586 266.64C203.767 266.64 202.064 265.555 201.388 263.756L201.378 263.746ZM130.445 265.374C128.16 264.422 127.065 261.776 128.027 259.483C128.979 257.179 131.625 256.085 133.919 257.065C136.203 258.017 137.298 260.644 136.337 262.937C135.623 264.679 133.957 265.707 132.196 265.707C131.615 265.707 131.035 265.593 130.454 265.374H130.445ZM218.531 256.132C217.217 254.01 217.855 251.259 219.959 249.927C222.082 248.613 224.851 249.251 226.165 251.373C227.498 253.477 226.841 256.247 224.737 257.579C223.985 258.026 223.167 258.255 222.358 258.255C220.854 258.255 219.397 257.503 218.531 256.132ZM113.14 256.151C111.055 254.762 110.493 251.992 111.864 249.908C113.235 247.842 116.024 247.262 118.108 248.632C120.174 250.003 120.754 252.792 119.384 254.876C118.499 256.189 117.08 256.903 115.614 256.903C114.767 256.903 113.911 256.656 113.14 256.151ZM233.951 245.387C232.267 243.588 232.362 240.733 234.18 239.029C235.998 237.344 238.854 237.44 240.538 239.257C242.242 241.075 242.128 243.931 240.31 245.634V245.615C239.444 246.424 238.34 246.834 237.254 246.834C236.036 246.834 234.837 246.348 233.951 245.387ZM97.8714 243.807C96.0914 242.065 96.0534 239.229 97.7953 237.449C99.5372 235.669 102.393 235.65 104.173 237.373C105.934 239.115 105.972 241.97 104.23 243.75C103.345 244.654 102.183 245.101 101.022 245.101C99.8799 245.101 98.7376 244.673 97.8714 243.807ZM247.04 231.919C245.031 230.454 244.584 227.627 246.05 225.619C247.516 223.61 250.324 223.163 252.332 224.629C254.341 226.094 254.788 228.902 253.322 230.929C252.437 232.129 251.076 232.766 249.686 232.766C248.763 232.766 247.83 232.5 247.04 231.919ZM85.2305 228.807C83.8027 226.761 84.3263 223.953 86.3728 222.544C88.4193 221.136 91.2274 221.64 92.6361 223.687C94.0449 225.733 93.5404 228.541 91.4748 229.949C90.7038 230.492 89.8091 230.739 88.9238 230.739C87.496 230.739 86.0968 230.063 85.2305 228.807ZM257.32 216.196C255.093 215.149 254.112 212.446 255.159 210.209V210.19C256.225 207.944 258.91 206.983 261.156 208.049C263.402 209.096 264.364 211.78 263.317 214.036C262.546 215.663 260.918 216.624 259.233 216.624C258.595 216.624 257.939 216.472 257.32 216.196ZM75.6737 211.675C74.6838 209.381 75.7118 206.745 77.9963 205.727C80.2618 204.737 82.927 205.765 83.9265 208.049C84.9164 210.314 83.8884 212.979 81.6039 213.979C81.0233 214.245 80.4045 214.35 79.8049 214.35C78.082 214.35 76.4257 213.36 75.6833 211.666L75.6737 211.675ZM264.478 198.826C262.06 198.208 260.613 195.752 261.232 193.354H261.213C261.832 190.936 264.288 189.47 266.686 190.089C269.104 190.708 270.551 193.163 269.932 195.562C269.428 197.608 267.591 198.96 265.582 198.96C265.23 198.96 264.849 198.902 264.478 198.826ZM69.5341 193.03C68.9725 190.613 70.486 188.195 72.9133 187.653C75.3501 187.091 77.7488 188.614 78.3104 191.05C78.853 193.468 77.3395 195.866 74.9122 196.428C74.5791 196.504 74.2364 196.542 73.9032 196.542C71.8567 196.542 70.0006 195.114 69.5341 193.04V193.03ZM268.19 180.391C265.715 180.257 263.821 178.125 263.954 175.651C264.107 173.176 266.22 171.282 268.695 171.415C271.189 171.568 273.083 173.69 272.931 176.165C272.797 178.563 270.808 180.419 268.447 180.419C268.352 180.419 268.276 180.419 268.181 180.4L268.19 180.391ZM67.0022 173.566C66.926 171.092 68.8773 168.988 71.3522 168.912C73.8461 168.836 75.9307 170.787 76.0069 173.262C76.083 175.756 74.1317 177.821 71.6568 177.916H71.5045C69.0868 177.916 67.0973 176.003 67.0022 173.566ZM263.26 157.748C262.945 155.293 264.668 153.018 267.124 152.704C269.599 152.371 271.846 154.093 272.188 156.568C272.521 159.023 270.798 161.298 268.324 161.612C268.114 161.65 267.933 161.65 267.724 161.65C265.516 161.65 263.583 160.023 263.26 157.748ZM71.9709 159.128C69.5151 158.738 67.8493 156.425 68.2206 153.97C68.6108 151.514 70.9239 149.848 73.3797 150.239C75.8355 150.629 77.5013 152.942 77.1111 155.397C76.7779 157.605 74.8646 159.185 72.6848 159.185C72.4374 159.185 72.1994 159.166 71.9709 159.128ZM259.214 140.302C258.424 137.942 259.681 135.391 262.041 134.601C264.402 133.811 266.953 135.067 267.743 137.437C268.533 139.798 267.257 142.348 264.906 143.138C264.421 143.31 263.954 143.386 263.459 143.386C261.584 143.386 259.823 142.187 259.205 140.312L259.214 140.302ZM75.8546 140.749C73.513 139.883 72.3136 137.304 73.1703 134.972C74.0175 132.631 76.6066 131.432 78.9291 132.288C81.2707 133.135 82.4701 135.724 81.6325 138.046C80.9566 139.883 79.2337 141.006 77.3966 141.006C76.8921 141.006 76.3686 140.911 75.8546 140.74V140.749ZM251.932 123.932C250.714 121.752 251.466 119.021 253.636 117.802C255.797 116.584 258.548 117.355 259.766 119.506C260.985 121.686 260.214 124.417 258.062 125.635C257.367 126.026 256.596 126.216 255.854 126.216C254.274 126.216 252.76 125.388 251.932 123.932ZM83.1745 123.446C81.0328 122.152 80.3474 119.392 81.6134 117.26C82.8889 115.137 85.6494 114.443 87.7816 115.728C89.9233 117.003 90.6086 119.753 89.3426 121.895C88.4955 123.304 87.001 124.084 85.478 124.084C84.688 124.084 83.8884 123.875 83.1745 123.446ZM241.69 109.255C240.081 107.361 240.3 104.506 242.195 102.898C244.089 101.28 246.916 101.527 248.534 103.421C250.143 105.315 249.924 108.151 248.03 109.76C247.182 110.474 246.135 110.826 245.126 110.826C243.851 110.826 242.575 110.302 241.69 109.255ZM93.5975 107.809C91.7414 106.162 91.57 103.307 93.2453 101.451C94.8921 99.5951 97.7477 99.4428 99.6039 101.089C101.441 102.745 101.612 105.591 99.956 107.447C99.0518 108.437 97.8334 108.951 96.5959 108.951C95.5298 108.951 94.4542 108.58 93.5975 107.809ZM228.83 96.7778C226.898 95.2455 226.584 92.4092 228.116 90.4581C229.677 88.507 232.505 88.1929 234.456 89.7443C236.388 91.3052 236.702 94.1319 235.151 96.083C234.265 97.1871 232.961 97.7677 231.648 97.7677C230.658 97.7677 229.658 97.4345 228.83 96.7778ZM106.8 94.4555C105.296 92.4663 105.677 89.6586 107.666 88.1358V88.1548C109.637 86.632 112.464 87.0317 113.968 89.0019C115.472 90.9911 115.091 93.7988 113.101 95.3216C112.292 95.9403 111.34 96.2353 110.379 96.2353C109.027 96.2353 107.676 95.6167 106.8 94.4555ZM214.666 87.4219C212.468 86.2417 211.649 83.5197 212.829 81.3306C214.01 79.132 216.751 78.3326 218.921 79.5128C221.111 80.6929 221.939 83.415 220.758 85.6041C219.93 87.1079 218.398 87.9644 216.78 87.9644C216.066 87.9644 215.333 87.7931 214.657 87.4219H214.666ZM122.306 83.8623C121.202 81.6257 122.116 78.9322 124.353 77.8281C126.58 76.7431 129.283 77.6378 130.368 79.8744C131.473 82.1016 130.559 84.8046 128.322 85.9086C127.684 86.2132 127.008 86.356 126.352 86.356C124.686 86.356 123.087 85.4327 122.297 83.8623H122.306ZM198.17 80.4455C195.791 79.6936 194.477 77.1619 195.229 74.8015C195.981 72.4411 198.494 71.1086 200.874 71.8605C203.234 72.6124 204.548 75.1441 203.815 77.5045C203.196 79.4366 201.435 80.6549 199.522 80.6549C199.075 80.6549 198.599 80.5978 198.17 80.4455ZM139.545 76.3814C138.888 73.983 140.296 71.5084 142.695 70.8517C145.094 70.1949 147.569 71.6036 148.226 74.002C148.882 76.4005 147.474 78.8751 145.075 79.5318C144.685 79.646 144.285 79.7031 143.895 79.7031C141.905 79.7031 140.106 78.3897 139.545 76.3814ZM180.656 76.7336C178.181 76.4481 176.401 74.2209 176.677 71.7463C176.963 69.2908 179.19 67.511 181.646 67.787C184.121 68.0725 185.901 70.2996 185.625 72.7552C185.358 75.0585 183.407 76.7717 181.16 76.7717C180.989 76.7717 180.827 76.7526 180.656 76.7336ZM157.887 72.3079C157.697 69.8142 159.534 67.6537 162.028 67.4539C164.503 67.2635 166.663 69.1194 166.863 71.594C167.054 74.0686 165.217 76.2292 162.723 76.429C162.608 76.429 162.494 76.4481 162.389 76.4481C160.048 76.4481 158.077 74.6492 157.887 72.3079Z" fill="#009AE7" fill-opacity="0.2"/>
<path d="M169.348 289.568C166.235 289.549 163.741 287.017 163.76 283.905C163.76 280.811 166.292 278.299 169.405 278.318C172.517 278.337 175.011 280.869 174.992 283.962C174.992 287.074 172.46 289.568 169.386 289.568H169.348ZM182.55 283.381C182.046 280.307 184.13 277.414 187.205 276.928C190.279 276.424 193.173 278.518 193.659 281.582C194.144 284.657 192.069 287.55 189.004 288.035C188.69 288.092 188.385 288.111 188.081 288.111C185.377 288.111 182.979 286.141 182.55 283.391V283.381ZM149.711 287.845C146.655 287.322 144.589 284.39 145.113 281.335C145.656 278.28 148.568 276.214 151.624 276.738C154.679 277.28 156.745 280.183 156.221 283.248C155.736 285.989 153.356 287.921 150.672 287.921C150.358 287.921 150.034 287.902 149.72 287.845H149.711ZM200.978 279.755C200.008 276.833 201.578 273.626 204.519 272.645C207.461 271.655 210.65 273.226 211.649 276.167C212.639 279.108 211.068 282.296 208.127 283.296C207.527 283.505 206.928 283.591 206.328 283.591C203.986 283.591 201.788 282.106 200.988 279.745L200.978 279.755ZM130.635 282.867C127.694 281.839 126.152 278.632 127.18 275.7C128.208 272.76 131.416 271.218 134.347 272.255C137.289 273.283 138.831 276.49 137.803 279.422C136.994 281.744 134.823 283.191 132.491 283.191C131.872 283.191 131.235 283.096 130.635 282.877V282.867ZM218.588 273.197C217.141 270.437 218.179 267.049 220.911 265.583C223.671 264.117 227.06 265.174 228.526 267.905C229.992 270.647 228.935 274.054 226.203 275.501V275.52C225.375 275.967 224.461 276.176 223.576 276.176C221.549 276.176 219.597 275.091 218.588 273.197ZM112.635 274.844C109.913 273.34 108.923 269.933 110.427 267.192C111.912 264.47 115.338 263.48 118.061 264.984C120.783 266.468 121.773 269.895 120.288 272.617C119.26 274.492 117.328 275.539 115.338 275.539C114.434 275.539 113.501 275.31 112.635 274.844ZM234.884 263.822C232.99 261.348 233.456 257.826 235.912 255.932C238.387 254.038 241.909 254.505 243.803 256.96C245.698 259.435 245.231 262.966 242.775 264.85C241.747 265.64 240.548 266.011 239.339 266.011C237.654 266.011 235.979 265.26 234.875 263.822H234.884ZM96.2057 263.984C93.7499 262.071 93.3405 258.531 95.2538 256.094C97.1671 253.658 100.708 253.229 103.145 255.161C105.601 257.074 106.01 260.596 104.097 263.051C102.993 264.46 101.336 265.193 99.6705 265.193C98.4521 265.193 97.2337 264.803 96.2057 263.994V263.984ZM249.4 251.878C247.135 249.755 247.002 246.215 249.115 243.93C251.237 241.665 254.778 241.532 257.063 243.645C259.328 245.767 259.462 249.327 257.348 251.592C256.244 252.791 254.74 253.391 253.227 253.391C251.856 253.391 250.485 252.887 249.4 251.868V251.878ZM81.7658 250.583C79.6621 248.28 79.8335 244.73 82.137 242.636C84.4215 240.533 87.991 240.704 90.0851 243.007C92.1697 245.291 91.9984 248.861 89.7139 250.935C88.6288 251.925 87.2771 252.42 85.9254 252.42C84.3834 252.42 82.8699 251.802 81.7658 250.583ZM261.746 237.696C259.157 235.993 258.443 232.5 260.157 229.911C261.879 227.303 265.373 226.589 267.962 228.321C270.551 230.025 271.265 233.518 269.552 236.097C268.466 237.753 266.686 238.629 264.84 238.629C263.774 238.629 262.698 238.325 261.746 237.687V237.696ZM69.7626 234.965C68.0778 232.338 68.8203 228.873 71.4284 227.179C74.0365 225.495 77.5204 226.237 79.2147 228.864C80.8996 231.472 80.138 234.955 77.5299 236.63C76.5971 237.249 75.5405 237.535 74.4934 237.535C72.6373 237.535 70.8382 236.63 69.7721 234.965H69.7626ZM271.589 221.688C268.761 220.412 267.486 217.091 268.761 214.264C270.037 211.409 273.359 210.152 276.186 211.409C279.032 212.684 280.289 216.025 279.032 218.851C278.09 220.936 276.034 222.173 273.873 222.173C273.102 222.173 272.331 222.021 271.589 221.688ZM60.4818 217.576C59.2634 214.73 60.577 211.409 63.4231 210.171C66.2692 208.953 69.5913 210.266 70.8097 213.112C72.0471 215.968 70.7335 219.28 67.8684 220.498C67.1545 220.812 66.3835 220.964 65.6505 220.964C63.4707 220.964 61.3956 219.689 60.4723 217.566L60.4818 217.576ZM278.699 204.28C275.701 203.49 273.902 200.416 274.682 197.418C275.453 194.419 278.528 192.602 281.545 193.392C284.544 194.182 286.343 197.256 285.562 200.254C284.905 202.786 282.621 204.47 280.127 204.47C279.66 204.47 279.185 204.394 278.699 204.28ZM54.1804 198.921V198.902C53.4475 195.904 55.2846 192.849 58.3021 192.097C61.3005 191.345 64.356 193.182 65.108 196.209C65.8599 199.226 64.0228 202.262 61.0054 203.014C60.558 203.128 60.0821 203.185 59.6347 203.185C57.1217 203.185 54.8182 201.482 54.1804 198.931V198.921ZM282.84 185.939C279.746 185.663 277.462 182.941 277.719 179.829C278.004 176.736 280.736 174.451 283.83 174.727C286.923 175.013 289.208 177.745 288.932 180.838C288.665 183.76 286.209 185.958 283.325 185.958C283.173 185.958 283.011 185.958 282.84 185.939ZM51.0297 179.458C50.7822 176.364 53.1143 173.661 56.2079 173.423C59.3015 173.176 62.0048 175.489 62.2428 178.601C62.4903 181.694 60.1772 184.397 57.0837 184.645C56.9314 184.645 56.7791 184.664 56.6363 184.664C53.7331 184.664 51.2772 182.418 51.0297 179.467V179.458ZM277.833 162.002C277.585 158.89 279.898 156.187 283.011 155.968C286.105 155.721 288.808 158.033 289.046 161.146C289.293 164.239 286.961 166.942 283.868 167.18C283.715 167.18 283.563 167.199 283.42 167.199C280.517 167.199 278.061 164.953 277.833 162.002ZM56.227 165.847C53.1334 165.581 50.8489 162.849 51.1249 159.756V159.775C51.3914 156.663 54.1233 154.379 57.2169 154.655C60.3105 154.921 62.595 157.634 62.319 160.746C62.0715 163.668 59.6156 165.886 56.7315 165.866C56.5601 165.866 56.3983 165.866 56.227 165.847ZM274.977 144.376C274.244 141.358 276.081 138.303 279.099 137.57C282.116 136.819 285.172 138.655 285.905 141.682C286.657 144.699 284.82 147.754 281.802 148.487C281.336 148.601 280.879 148.659 280.431 148.659C277.918 148.659 275.615 146.955 274.977 144.385V144.376ZM58.4924 147.183C55.494 146.412 53.695 143.338 54.4565 140.321C55.2465 137.323 58.3021 135.524 61.3195 136.286C64.3179 137.075 66.1169 140.15 65.3554 143.148C64.6987 145.679 62.4142 147.364 59.9012 147.364C59.4538 147.364 58.9588 147.307 58.4924 147.174V147.183ZM269.314 127.444C268.076 124.588 269.39 121.295 272.255 120.058C275.101 118.84 278.404 120.153 279.641 123.018C280.86 125.873 279.546 129.166 276.7 130.385C275.967 130.699 275.215 130.851 274.473 130.851C272.293 130.851 270.218 129.576 269.314 127.444ZM63.8134 129.166C60.9863 127.891 59.7108 124.569 60.9673 121.723C62.2428 118.897 65.5649 117.621 68.3919 118.897C71.238 120.153 72.5135 123.475 71.238 126.321C70.3147 128.405 68.2587 129.661 66.0979 129.661C65.3269 129.661 64.5559 129.49 63.8134 129.176V129.166ZM260.937 111.692C259.252 109.084 260.014 105.601 262.622 103.925C265.249 102.241 268.714 102.983 270.408 105.61C272.074 108.218 271.332 111.701 268.704 113.376C267.762 113.995 266.715 114.271 265.687 114.271C263.831 114.271 262.013 113.348 260.947 111.682L260.937 111.692ZM72.0281 112.253C69.439 110.55 68.7251 107.038 70.4385 104.449C72.1423 101.86 75.6357 101.127 78.2248 102.859C80.8329 104.563 81.5468 108.056 79.8335 110.645C78.7483 112.291 76.9493 113.177 75.1217 113.177C74.0556 113.177 72.98 112.872 72.0281 112.253ZM250.076 97.5486V97.5295C247.992 95.2453 248.163 91.6762 250.466 89.6013C252.751 87.4979 256.32 87.6692 258.396 89.9725C260.499 92.2567 260.328 95.8259 258.024 97.9198C256.958 98.8906 255.607 99.3855 254.255 99.3855C252.713 99.3855 251.199 98.7668 250.076 97.5486ZM82.889 96.8919C80.6235 94.7884 80.4902 91.2288 82.5844 88.9636V88.9446C84.707 86.6794 88.2671 86.5461 90.5325 88.6591C92.817 90.7625 92.9503 94.3221 90.8371 96.6063V96.5873C89.7329 97.7865 88.229 98.3861 86.7155 98.3861C85.3448 98.3861 83.9741 97.9007 82.889 96.8823V96.8919ZM237.026 85.385C234.589 83.4529 234.18 79.9123 236.103 77.4758C238.016 75.0393 241.557 74.63 243.994 76.5335C246.43 78.4656 246.859 81.9872 244.936 84.4427C243.832 85.8513 242.176 86.5842 240.51 86.5842C239.291 86.5842 238.054 86.194 237.026 85.385ZM96.1295 83.5576C94.2353 81.102 94.6827 77.5805 97.1385 75.6674C99.6134 73.7734 103.135 74.2398 105.03 76.6953C106.924 79.1509 106.476 82.6915 104.002 84.5855H104.021C102.993 85.3755 101.793 85.7467 100.584 85.7467C98.8995 85.7467 97.2242 84.9948 96.12 83.5576H96.1295ZM222.158 75.5152C222.158 75.5152 222.082 75.4771 222.024 75.458C222.024 75.458 221.929 75.4009 221.872 75.3629C219.15 73.8781 218.141 70.4708 219.645 67.7297C221.13 65.0076 224.556 63.9988 227.279 65.493C227.336 65.5311 227.393 65.5501 227.45 65.5882C227.507 65.6072 227.545 65.6263 227.583 65.6643C230.306 67.1491 231.296 70.5755 229.792 73.2975C228.764 75.1535 226.85 76.2004 224.861 76.2004C223.938 76.2004 223.024 75.972 222.158 75.5056V75.5152ZM111.398 72.5932C109.932 69.8521 110.969 66.4638 113.701 64.9981C116.443 63.5229 119.85 64.5698 121.316 67.3014C122.782 70.0425 121.744 73.4498 119.013 74.9155C118.165 75.3629 117.252 75.5723 116.366 75.5723C114.358 75.5723 112.407 74.5063 111.398 72.5932ZM205.557 68.1104C202.635 67.1015 201.074 63.8941 202.102 60.9531C203.13 58.0312 206.338 56.4703 209.269 57.4982C212.211 58.5071 213.753 61.7336 212.725 64.665C211.916 66.9873 209.745 68.434 207.413 68.434C206.794 68.434 206.176 68.3388 205.557 68.1199V68.1104ZM128.255 64.3033C127.265 61.3624 128.836 58.1739 131.777 57.1746C134.719 56.1657 137.907 57.7552 138.926 60.7056C139.916 63.6466 138.326 66.835 135.385 67.8344C134.804 68.0438 134.185 68.139 133.586 68.139C131.244 68.139 129.045 66.6542 128.255 64.3128V64.3033ZM188.28 63.6466C185.225 63.1231 183.159 60.2107 183.683 57.1556C184.206 54.0813 187.119 52.035 190.194 52.5585C193.249 53.082 195.296 55.9944 194.772 59.0496C194.306 61.7907 191.945 63.7227 189.242 63.7227C188.928 63.7227 188.604 63.7037 188.29 63.6466H188.28ZM146.255 58.8687C145.751 55.8136 147.826 52.9202 150.91 52.4157C153.965 51.9113 156.859 53.9957 157.364 57.0699C157.868 60.1251 155.784 63.028 152.709 63.5229C152.404 63.58 152.109 63.599 151.805 63.599C149.082 63.599 146.703 61.6479 146.255 58.8782V58.8687ZM170.509 62.1143C167.396 62.0952 164.883 59.5635 164.902 56.4703C164.922 53.358 167.453 50.8453 170.547 50.8644C173.66 50.8644 176.173 53.3961 176.154 56.5083C176.154 59.6016 173.622 62.1143 170.528 62.1143H170.509Z" fill="#009AE7" fill-opacity="0.3"/>
<path d="M174.052 297.687C173.88 295.213 175.756 293.052 178.23 292.891C180.705 292.719 182.866 294.594 183.028 297.069C183.199 299.562 181.324 301.704 178.849 301.866C178.735 301.885 178.64 301.885 178.535 301.885C176.193 301.885 174.204 300.067 174.052 297.687ZM159.383 301.752C156.908 301.542 155.071 299.372 155.271 296.897C155.462 294.423 157.632 292.586 160.107 292.776C162.582 292.986 164.438 295.156 164.228 297.63C164.038 299.972 162.068 301.771 159.745 301.771C159.612 301.771 159.498 301.752 159.374 301.752H159.383ZM192.727 295.698C192.204 293.262 193.736 290.863 196.183 290.34C198.601 289.816 200.999 291.349 201.532 293.766C202.056 296.203 200.542 298.601 198.096 299.134C197.782 299.21 197.439 299.248 197.144 299.248C195.06 299.248 193.203 297.802 192.737 295.708L192.727 295.698ZM140.184 298.753C137.766 298.192 136.243 295.774 136.805 293.357C137.366 290.939 139.784 289.436 142.221 289.997C144.639 290.559 146.143 292.976 145.581 295.394C145.096 297.478 143.259 298.868 141.193 298.868C140.86 298.868 140.517 298.83 140.184 298.753ZM210.937 290.987C210.052 288.665 211.222 286.057 213.545 285.191C215.868 284.306 218.476 285.467 219.361 287.799C220.227 290.121 219.056 292.729 216.734 293.595C216.21 293.804 215.668 293.899 215.144 293.899C213.326 293.899 211.622 292.795 210.946 290.997L210.937 290.987ZM121.613 292.957C119.309 292.034 118.158 289.417 119.081 287.104C120.004 284.801 122.603 283.668 124.935 284.572C127.239 285.495 128.371 288.094 127.448 290.425C126.753 292.186 125.068 293.271 123.269 293.271C122.727 293.271 122.165 293.157 121.622 292.957H121.613ZM228.251 283.677C227.033 281.507 227.823 278.766 229.974 277.548C232.154 276.349 234.886 277.139 236.104 279.29C237.304 281.469 236.533 284.201 234.362 285.419C233.668 285.79 232.916 285.981 232.183 285.981C230.593 285.981 229.07 285.153 228.242 283.677H228.251ZM104.118 284.505H104.098C101.957 283.268 101.214 280.508 102.452 278.357C103.689 276.206 106.45 275.473 108.601 276.71C110.762 277.948 111.485 280.708 110.248 282.859C109.419 284.306 107.906 285.105 106.345 285.105C105.574 285.105 104.803 284.915 104.118 284.505ZM244.281 273.912C242.758 271.942 243.139 269.115 245.109 267.612V267.593C247.08 266.079 249.907 266.45 251.43 268.421C252.953 270.391 252.572 273.218 250.601 274.74C249.773 275.359 248.821 275.683 247.86 275.683C246.508 275.683 245.176 275.064 244.281 273.922V273.912ZM88.0118 273.589C86.0604 272.056 85.7463 269.22 87.2788 267.269C88.8209 265.318 91.648 265.004 93.5993 266.536C95.5506 268.078 95.8838 270.905 94.3322 272.856C93.447 273.979 92.1429 274.559 90.8103 274.559C89.8394 274.559 88.8399 274.245 88.0118 273.579V273.589ZM258.721 261.891C256.941 260.169 256.865 257.313 258.588 255.515H258.607C260.311 253.735 263.166 253.678 264.965 255.4C266.745 257.123 266.802 259.978 265.079 261.758C264.194 262.681 263.014 263.148 261.834 263.148C260.71 263.148 259.587 262.739 258.721 261.891ZM73.7051 260.426C72.0203 258.608 72.1155 255.772 73.9145 254.068C75.7326 252.364 78.5882 252.459 80.2731 254.277C81.9769 256.095 81.8817 258.95 80.0636 260.635C79.1974 261.463 78.0933 261.853 76.9891 261.853C75.7897 261.853 74.5904 261.387 73.7051 260.426ZM271.21 247.862C269.182 246.416 268.716 243.608 270.162 241.581C271.609 239.553 274.417 239.068 276.426 240.515C278.472 241.961 278.939 244.769 277.492 246.796C276.607 248.034 275.226 248.69 273.818 248.69C272.913 248.69 272.019 248.405 271.21 247.862ZM61.5116 245.293C60.0838 243.246 60.6073 240.439 62.6348 239.03C64.7004 237.621 67.4894 238.126 68.9172 240.172C70.326 242.218 69.8024 245.026 67.7749 246.435C66.9849 246.977 66.0901 247.244 65.2049 247.244C63.7771 247.244 62.3778 246.549 61.5116 245.293ZM281.509 232.13C279.3 231.007 278.415 228.285 279.557 226.076C280.681 223.868 283.384 222.983 285.592 224.106C287.82 225.229 288.686 227.951 287.563 230.16C286.773 231.72 285.183 232.615 283.546 232.615C282.87 232.615 282.156 232.463 281.499 232.13H281.509ZM51.6692 228.532C50.5651 226.295 51.4789 223.602 53.7158 222.507C55.9431 221.403 58.6465 222.317 59.7506 224.554C60.8358 226.781 59.922 229.484 57.6851 230.569C57.0473 230.883 56.3715 231.035 55.6957 231.035C54.0489 231.035 52.4498 230.112 51.6597 228.522L51.6692 228.532ZM289.428 215.084C287.068 214.275 285.811 211.724 286.592 209.363C287.401 207.022 289.952 205.747 292.294 206.546C294.654 207.336 295.911 209.906 295.121 212.247C294.483 214.122 292.741 215.302 290.847 215.302C290.38 215.302 289.895 215.226 289.419 215.074L289.428 215.084ZM44.3874 210.515C43.6354 208.136 44.93 205.604 47.2906 204.852C49.6513 204.081 52.1832 205.395 52.9543 207.764C53.7253 210.125 52.4117 212.657 50.051 213.427C49.5846 213.58 49.1277 213.637 48.6613 213.637C46.7671 213.637 45.0061 212.419 44.3874 210.525V210.515ZM294.73 197.067C292.294 196.619 290.656 194.268 291.094 191.832C291.542 189.376 293.874 187.758 296.329 188.196C298.766 188.624 300.404 190.975 299.966 193.412C299.575 195.601 297.681 197.124 295.539 197.124C295.273 197.124 295.016 197.105 294.73 197.067ZM39.8374 191.613C39.4281 189.157 41.0749 186.854 43.5307 186.435C45.9865 186.026 48.2901 187.692 48.7089 190.147C49.1182 192.584 47.4524 194.906 44.9966 195.325C44.7491 195.363 44.5111 195.382 44.2636 195.382C42.1029 195.382 40.1896 193.812 39.8374 191.613ZM297.319 178.44C294.845 178.364 292.893 176.299 292.95 173.805C293.026 171.312 295.092 169.361 297.586 169.437C300.061 169.513 302.031 171.578 301.955 174.072C301.879 176.508 299.889 178.44 297.453 178.44H297.319ZM38.0669 172.235C38.0289 169.76 40.0183 167.695 42.4932 167.657C44.9871 167.619 47.0336 169.608 47.0717 172.083C47.1097 174.576 45.1394 176.623 42.6455 176.661H42.5693C40.1135 176.661 38.105 174.691 38.0669 172.235ZM292.122 155.722C291.837 153.247 293.607 151.011 296.063 150.715C298.538 150.411 300.775 152.181 301.07 154.656C301.374 157.111 299.604 159.358 297.129 159.662C296.958 159.681 296.777 159.681 296.606 159.681C294.359 159.681 292.408 158.016 292.122 155.722ZM43.0548 157.873C40.5989 157.559 38.876 155.284 39.1902 152.828C39.5233 150.354 41.7793 148.631 44.2541 148.945C46.71 149.278 48.4519 151.553 48.1187 154.009C47.8237 156.255 45.8913 157.911 43.6544 157.911C43.4641 157.911 43.2642 157.911 43.0548 157.873ZM288.676 137.924C288.02 135.544 289.428 133.07 291.827 132.413C294.226 131.756 296.701 133.165 297.358 135.563C298.014 137.962 296.586 140.436 294.188 141.093C293.798 141.207 293.398 141.245 293.007 141.245C291.018 141.245 289.219 139.932 288.676 137.924ZM46.2626 139.37C43.8829 138.676 42.4932 136.182 43.188 133.803C43.8829 131.404 46.3768 130.034 48.7565 130.709C51.1362 131.404 52.5259 133.898 51.831 136.296C51.2694 138.266 49.4704 139.542 47.5 139.542C47.1098 139.542 46.6719 139.485 46.2626 139.37ZM282.632 120.839C281.642 118.574 282.67 115.909 284.955 114.91C287.22 113.92 289.885 114.948 290.885 117.232C291.875 119.497 290.828 122.162 288.562 123.162C287.982 123.428 287.363 123.533 286.763 123.533C285.04 123.533 283.384 122.524 282.642 120.83L282.632 120.839ZM52.1737 121.515C49.9083 120.487 48.9088 117.822 49.9463 115.557C50.9744 113.282 53.6396 112.293 55.9051 113.321C58.1515 114.367 59.17 117.032 58.1325 119.279C57.3614 120.944 55.7337 121.924 54.0204 121.924C53.4016 121.924 52.7639 121.791 52.1642 121.515H52.1737ZM274.179 104.831C272.847 102.727 273.485 99.9577 275.607 98.6252C277.711 97.3118 280.481 97.9495 281.794 100.053H281.813C283.127 102.156 282.489 104.945 280.386 106.258C279.634 106.725 278.815 106.953 277.987 106.953C276.483 106.953 275.027 106.201 274.179 104.831ZM60.6168 104.736C58.5132 103.384 57.9135 100.595 59.2652 98.511C60.6168 96.4076 63.4058 95.808 65.4904 97.1595C67.5751 98.511 68.1747 101.3 66.8231 103.384C65.9569 104.717 64.5195 105.449 63.0536 105.449C62.2065 105.449 61.3688 105.221 60.6168 104.736ZM263.452 90.2401C261.843 88.3461 262.043 85.5099 263.937 83.8823C265.831 82.2739 268.658 82.4928 270.296 84.3868C271.904 86.2618 271.685 89.1075 269.791 90.7255C268.944 91.4584 267.916 91.8106 266.869 91.8106C265.612 91.8106 264.337 91.2681 263.452 90.2401ZM71.3921 89.336C69.5359 87.7084 69.3455 84.8531 71.0018 82.9972C72.6295 81.1222 75.4851 80.9319 77.3413 82.5879C79.2165 84.2155 79.3878 87.0708 77.7506 88.9457C76.8463 89.9546 75.6089 90.4686 74.3714 90.4686C73.3053 90.4686 72.2488 90.0974 71.3921 89.3455V89.336ZM247.022 73.0512C245.147 71.4237 244.938 68.5684 246.575 66.6934C248.203 64.8184 251.058 64.609 252.934 66.2461C254.809 67.8736 255.018 70.7289 253.381 72.6039C252.477 73.6128 251.22 74.1458 249.964 74.1458C248.936 74.1458 247.879 73.7841 247.022 73.0607V73.0512ZM84.3566 75.7257C82.7479 73.8317 82.9859 70.9764 84.8801 69.3869C86.7744 67.7784 89.6205 68.0164 91.2196 69.9104C92.8283 71.8234 92.5903 74.6502 90.6961 76.2682C89.8489 76.982 88.8209 77.3151 87.7929 77.3151C86.5174 77.3151 85.2418 76.7726 84.3566 75.7257ZM99.1678 64.1712C97.8542 62.0488 98.511 59.2791 100.634 57.9847C102.756 56.6713 105.526 57.328 106.821 59.4505C108.134 61.5729 107.478 64.3425 105.355 65.6369C104.622 66.0843 103.794 66.3127 102.994 66.3127C101.49 66.3127 100.015 65.5418 99.1678 64.1712ZM226.652 61.097C224.444 59.9549 223.578 57.2328 224.72 55.0247C225.862 52.8071 228.585 51.9505 230.793 53.1117C233.011 54.2538 233.848 56.9759 232.706 59.1649C231.916 60.7068 230.346 61.6015 228.708 61.6015C228.013 61.6015 227.3 61.4301 226.643 61.097H226.652ZM115.521 54.9296C114.55 52.6358 115.597 49.9994 117.882 49.0191C120.166 48.0292 122.812 49.0952 123.793 51.3604C124.764 53.6447 123.717 56.2906 121.432 57.2899C120.851 57.5374 120.252 57.6421 119.671 57.6421C117.929 57.6421 116.254 56.6332 115.53 54.92L115.521 54.9296ZM210.004 53.9397C207.643 53.1307 206.406 50.5609 207.205 48.2196C208.015 45.8783 210.585 44.6219 212.926 45.4214C215.287 46.2494 216.524 48.8002 215.725 51.1606C215.087 53.0165 213.345 54.1777 211.47 54.1777C210.984 54.1777 210.499 54.1015 210.004 53.9302V53.9397ZM133.054 48.1815C132.417 45.7831 133.864 43.3085 136.262 42.6708V42.6898C138.661 42.0331 141.117 43.4798 141.755 45.8783C142.392 48.2767 140.965 50.7323 138.566 51.37C138.176 51.4842 137.776 51.5222 137.405 51.5222C135.415 51.5222 133.597 50.1898 133.054 48.1815ZM192.49 49.3046C190.034 48.8573 188.435 46.5064 188.891 44.0509C189.339 41.6143 191.69 40.0058 194.146 40.4722C196.583 40.9195 198.201 43.2609 197.744 45.7069C197.335 47.877 195.44 49.3998 193.318 49.3808C193.032 49.3808 192.775 49.3617 192.49 49.3046ZM151.397 44.0509C151.112 41.5763 152.901 39.3586 155.376 39.0826C157.832 38.7971 160.069 40.5864 160.345 43.042C160.63 45.5166 158.841 47.7532 156.366 48.0292C156.195 48.0483 156.033 48.0483 155.861 48.0483C153.596 48.0483 151.664 46.3637 151.397 44.0509ZM174.48 47.3345C171.986 47.2393 170.054 45.1644 170.13 42.6708C170.225 40.1962 172.31 38.2451 174.804 38.3403C177.279 38.4354 179.23 40.5198 179.135 42.9944C179.04 45.4309 177.05 47.344 174.632 47.344H174.48V47.3345Z" fill="#009AE7" fill-opacity="0.2"/>
<path d="M168.711 314.828C166.854 314.809 165.351 313.286 165.37 311.411C165.389 309.556 166.912 308.052 168.768 308.071C170.643 308.071 172.147 309.603 172.128 311.469C172.109 313.325 170.605 314.828 168.749 314.828H168.711ZM184.141 310.774C183.912 308.918 185.226 307.233 187.063 307.005C188.919 306.757 190.604 308.071 190.832 309.927C191.08 311.783 189.766 313.467 187.91 313.696C187.777 313.715 187.624 313.715 187.501 313.715C185.816 313.715 184.369 312.477 184.141 310.774ZM149.521 313.363V313.382C147.684 313.096 146.408 311.392 146.675 309.556C146.941 307.7 148.645 306.424 150.482 306.691C152.338 306.957 153.614 308.68 153.347 310.517C153.1 312.201 151.663 313.401 150.006 313.401C149.854 313.401 149.683 313.401 149.521 313.363ZM202.673 307.642C202.207 305.844 203.273 303.988 205.072 303.521C206.89 303.055 208.727 304.121 209.194 305.92C209.679 307.719 208.594 309.575 206.795 310.041C206.51 310.117 206.214 310.155 205.929 310.155C204.425 310.155 203.064 309.165 202.664 307.642H202.673ZM130.712 309.365C128.913 308.861 127.875 306.986 128.389 305.206C128.894 303.407 130.75 302.379 132.549 302.884C134.348 303.388 135.386 305.244 134.871 307.043C134.462 308.528 133.111 309.498 131.626 309.498C131.321 309.498 131.007 309.46 130.702 309.365H130.712ZM220.616 302.094C219.921 300.371 220.75 298.401 222.453 297.687H222.472C224.176 296.973 226.166 297.801 226.861 299.524C227.575 301.247 226.746 303.217 225.024 303.931C224.614 304.102 224.176 304.178 223.748 304.178C222.415 304.178 221.159 303.388 220.616 302.094ZM112.598 302.893C110.894 302.16 110.104 300.171 110.837 298.448C111.589 296.745 113.578 295.955 115.282 296.707C116.986 297.459 117.776 299.429 117.043 301.151C116.481 302.427 115.244 303.179 113.93 303.179C113.483 303.179 113.026 303.083 112.598 302.893ZM237.683 294.213C236.741 292.605 237.312 290.539 238.921 289.597C240.53 288.674 242.595 289.226 243.537 290.834C244.48 292.462 243.909 294.527 242.3 295.45C241.776 295.764 241.196 295.898 240.615 295.898C239.454 295.898 238.312 295.298 237.693 294.213H237.683ZM95.4925 294.108C93.9028 293.157 93.3698 291.091 94.3312 289.473C95.283 287.874 97.3677 287.37 98.9668 288.331C100.575 289.283 101.089 291.348 100.128 292.966C99.4903 294.013 98.3862 294.594 97.2249 294.594C96.6442 294.594 96.0445 294.441 95.502 294.108H95.4925ZM253.551 284.162C252.428 282.678 252.704 280.565 254.17 279.413C255.655 278.29 257.768 278.547 258.91 280.032C260.033 281.516 259.776 283.629 258.292 284.781C257.673 285.247 256.959 285.476 256.226 285.476C255.217 285.476 254.217 285.028 253.542 284.162H253.551ZM79.7009 283.134C78.235 281.973 77.997 279.851 79.1583 278.414C80.3196 276.948 82.4613 276.71 83.8986 277.871C85.3645 279.032 85.6025 281.155 84.4412 282.62C83.7654 283.468 82.7945 283.896 81.795 283.896C81.062 283.896 80.3101 283.648 79.6913 283.144L79.7009 283.134ZM267.934 272.075C266.62 270.781 266.62 268.63 267.915 267.316C269.229 265.984 271.37 265.984 272.693 267.297C274.026 268.61 274.026 270.742 272.712 272.075C272.056 272.732 271.189 273.065 270.314 273.065C269.467 273.065 268.61 272.722 267.934 272.075ZM65.5084 270.162C64.2139 268.81 64.271 266.697 65.6226 265.403C66.9553 264.109 69.0875 264.166 70.382 265.517C71.6766 266.85 71.6194 268.982 70.2868 270.276C69.63 270.895 68.7829 271.218 67.9452 271.218C67.06 271.218 66.1652 270.857 65.5084 270.171V270.162ZM280.594 258.179C279.09 257.075 278.814 254.953 279.937 253.449C281.06 251.974 283.183 251.669 284.658 252.792C286.143 253.915 286.438 256.038 285.315 257.522C284.658 258.408 283.649 258.874 282.612 258.874C281.898 258.874 281.184 258.645 280.584 258.179H280.594ZM53.1626 255.4C52.0775 253.896 52.4106 251.802 53.9146 250.698C55.4185 249.613 57.5317 249.927 58.6168 251.45C59.721 252.954 59.3879 255.067 57.8839 256.152C57.2842 256.58 56.5894 256.809 55.8945 256.809C54.8474 256.809 53.8289 256.323 53.1531 255.4H53.1626ZM291.264 242.722C289.656 241.799 289.075 239.762 289.989 238.125C290.912 236.498 292.968 235.936 294.586 236.85C296.214 237.773 296.785 239.829 295.881 241.447C295.243 242.551 294.101 243.17 292.921 243.17C292.378 243.17 291.797 243.017 291.274 242.722H291.264ZM42.9109 239.144C42.0257 237.497 42.6444 235.451 44.2816 234.566C45.9093 233.681 47.9749 234.28 48.8601 235.936C49.7454 237.564 49.1457 239.61 47.4894 240.514C46.9849 240.781 46.4424 240.905 45.8998 240.905C44.7004 240.905 43.5392 240.267 42.9204 239.144H42.9109ZM299.812 226C298.089 225.305 297.242 223.335 297.956 221.612C298.651 219.87 300.602 219.042 302.344 219.737C304.067 220.432 304.895 222.402 304.2 224.125C303.677 225.438 302.42 226.247 301.069 226.247C300.659 226.247 300.222 226.171 299.812 226ZM34.8961 221.669C34.2393 219.928 35.1056 217.976 36.8475 217.32C38.5894 216.644 40.5408 217.529 41.2166 219.271C41.8734 221.013 40.9881 222.964 39.2462 223.62C38.8559 223.773 38.4561 223.849 38.0468 223.849C36.6952 223.849 35.4006 223.021 34.8961 221.669ZM306.095 208.278C304.296 207.831 303.191 205.994 303.658 204.176C304.124 202.377 305.961 201.292 307.76 201.739C309.559 202.206 310.645 204.043 310.197 205.841C309.807 207.383 308.436 208.392 306.913 208.392C306.647 208.392 306.371 208.354 306.085 208.278H306.095ZM29.2515 203.272C28.8422 201.473 29.9654 199.655 31.7645 199.217C33.5826 198.789 35.4006 199.912 35.8385 201.73C36.2668 203.548 35.1436 205.346 33.3255 205.775C33.059 205.851 32.802 205.87 32.5355 205.87C31.0125 205.87 29.6323 204.823 29.2515 203.262V203.272ZM309.959 189.88C308.103 189.671 306.77 188.005 306.999 186.149C307.208 184.293 308.893 182.961 310.73 183.189C312.586 183.418 313.919 185.083 313.691 186.939C313.5 188.643 312.044 189.918 310.35 189.918C310.216 189.918 310.083 189.899 309.959 189.88ZM26.1008 184.312C25.9104 182.456 27.2811 180.81 29.1183 180.62C30.9744 180.429 32.6212 181.781 32.8115 183.637C33.0019 185.493 31.6502 187.158 29.7941 187.33C29.6799 187.349 29.5656 187.349 29.4609 187.349C27.7571 187.349 26.2722 186.054 26.1008 184.312ZM307.894 167.828C307.856 165.972 309.341 164.43 311.197 164.392C313.072 164.354 314.614 165.839 314.642 167.714C314.661 169.57 313.177 171.111 311.32 171.149H311.244C309.407 171.149 307.903 169.684 307.884 167.828H307.894ZM28.747 168.58C26.8718 168.504 25.425 166.952 25.4821 165.077C25.5583 163.221 27.1098 161.756 28.985 161.832C30.8412 161.889 32.307 163.459 32.2309 165.315C32.1738 167.133 30.6698 168.58 28.8708 168.58H28.7375H28.747ZM306.342 149.563C306.057 147.726 307.313 146.004 309.169 145.718C311.006 145.433 312.729 146.708 313.015 148.545C313.3 150.382 312.025 152.105 310.188 152.39C310.016 152.409 309.855 152.428 309.683 152.428C308.036 152.428 306.609 151.229 306.342 149.563ZM30.2129 149.83C28.3758 149.525 27.1384 147.784 27.4525 145.947C27.7666 144.11 29.499 142.872 31.3361 143.187C33.1732 143.491 34.4107 145.233 34.0966 147.07C33.83 148.716 32.3927 149.887 30.7745 149.887C30.5842 149.887 30.4033 149.868 30.2129 149.83ZM302.382 131.661C301.859 129.881 302.887 128.006 304.667 127.482C306.466 126.959 308.341 127.987 308.846 129.786C309.369 131.565 308.341 133.44 306.561 133.964C306.237 134.059 305.923 134.097 305.609 134.097C304.162 134.097 302.811 133.145 302.382 131.661ZM34.1727 131.47C32.3927 130.909 31.3932 129.015 31.9548 127.235C32.4974 125.455 34.3916 124.465 36.1717 125.027C37.9517 125.588 38.9511 127.482 38.3895 129.262C37.9421 130.709 36.6095 131.623 35.1627 131.623C34.839 131.623 34.5059 131.565 34.1727 131.47ZM296.1 114.443C295.348 112.739 296.119 110.731 297.823 109.979C299.527 109.227 301.516 109.998 302.268 111.702C303.02 113.406 302.249 115.395 300.545 116.166C300.098 116.356 299.641 116.451 299.174 116.451C297.88 116.451 296.662 115.699 296.1 114.443ZM40.5217 113.786C38.8369 112.996 38.104 110.988 38.894 109.304C39.6841 107.619 41.6925 106.886 43.3773 107.648C45.0622 108.457 45.7951 110.465 45.005 112.149C44.4434 113.368 43.225 114.101 41.9495 114.101C41.4641 114.101 40.9977 113.986 40.5217 113.786ZM287.581 98.187C286.61 96.6165 287.114 94.5322 288.704 93.5518C290.294 92.581 292.378 93.0855 293.34 94.6749C294.31 96.2549 293.825 98.3297 292.235 99.31C291.674 99.6432 291.074 99.8145 290.474 99.8145C289.332 99.8145 288.228 99.2339 287.59 98.187H287.581ZM49.1552 97.1019C47.5751 96.1121 47.1277 94.0087 48.1272 92.4478C49.1362 90.8774 51.2208 90.4015 52.8009 91.4008C54.362 92.4097 54.8284 94.4941 53.8289 96.074C53.1912 97.0829 52.087 97.6349 50.9828 97.6349C50.3641 97.6349 49.7263 97.4636 49.1647 97.1115L49.1552 97.1019ZM277.005 83.2252C275.825 81.7785 276.053 79.6656 277.491 78.4758C278.938 77.2957 281.07 77.5241 282.231 78.9612C283.411 80.4079 283.183 82.5399 281.746 83.7106C281.127 84.234 280.375 84.4815 279.623 84.4815C278.633 84.4815 277.672 84.0532 276.996 83.2252H277.005ZM59.9209 81.7023C58.4931 80.5031 58.3122 78.3616 59.5116 76.9435C60.711 75.5158 62.8527 75.335 64.271 76.5342C65.6988 77.7335 65.8606 79.8749 64.6612 81.2931C64.0045 82.083 63.0526 82.4923 62.0912 82.4923C61.3202 82.4923 60.5491 82.2258 59.9114 81.7023H59.9209ZM264.517 69.7957H264.536C263.165 68.5204 263.089 66.3789 264.384 65.0369C265.659 63.6854 267.801 63.6092 269.143 64.8846C270.495 66.16 270.571 68.3014 269.295 69.6625C268.638 70.3573 267.734 70.7094 266.839 70.7094C266.011 70.7094 265.174 70.4049 264.517 69.7862V69.7957ZM72.6094 67.8636C71.372 66.4741 71.4671 64.3421 72.8569 63.1048C74.2466 61.8485 76.3598 61.9627 77.6163 63.3332C78.8727 64.7228 78.7585 66.8548 77.3878 68.1111C76.731 68.6917 75.9219 68.9772 75.1223 68.9772C74.199 68.9772 73.2852 68.606 72.6094 67.8731V67.8636ZM250.362 58.1746C248.839 57.0896 248.487 54.9862 249.572 53.4729C250.657 51.9501 252.761 51.617 254.284 52.6829C255.807 53.768 256.159 55.8714 255.074 57.3847C254.417 58.3269 253.389 58.8123 252.314 58.8123C251.638 58.8123 250.962 58.6029 250.362 58.1746ZM234.704 47.0485C233.181 45.9635 232.829 43.86 233.914 42.3467C234.999 40.8239 237.103 40.4908 238.626 41.5568C240.149 42.6418 240.501 44.7452 239.416 46.2585C238.759 47.2008 237.731 47.6862 236.655 47.6862C235.98 47.6862 235.304 47.4768 234.704 47.0485ZM87.0684 55.8523C86.0023 54.32 86.3925 52.2166 87.9346 51.1601C89.4766 50.1132 91.5707 50.4844 92.6273 52.0262C93.6934 53.5681 93.3031 55.662 91.7611 56.7375C91.1805 57.1277 90.5046 57.318 89.8478 57.318C88.7817 57.318 87.7252 56.8136 87.0684 55.8523ZM102.993 45.8778C102.146 44.2122 102.803 42.1849 104.478 41.3379C106.125 40.4908 108.171 41.1665 109.019 42.8226C109.866 44.4882 109.19 46.5155 107.534 47.3626C107.048 47.629 106.525 47.7337 105.992 47.7337C104.773 47.7337 103.574 47.058 102.993 45.8778ZM120.079 38.0923C119.48 36.3316 120.403 34.4185 122.164 33.7999C123.906 33.1812 125.838 34.1044 126.457 35.8652C127.076 37.626 126.152 39.539 124.391 40.1577C124.02 40.2909 123.639 40.348 123.268 40.348C121.878 40.348 120.565 39.4819 120.079 38.1019V38.0923ZM214.448 39.7199C212.687 39.1012 211.745 37.1882 212.345 35.4274C212.944 33.6666 214.857 32.7244 216.618 33.324C218.379 33.9236 219.341 35.8366 218.722 37.6165C218.256 39.006 216.942 39.9007 215.533 39.9007C215.181 39.8817 214.8 39.8246 214.448 39.7103V39.7199ZM138.06 32.6292C137.689 30.7923 138.85 29.0125 140.687 28.6318C142.506 28.2606 144.286 29.4217 144.685 31.2396C145.057 33.0765 143.876 34.8563 142.058 35.237C141.83 35.2941 141.592 35.3132 141.363 35.3132C139.802 35.3132 138.403 34.2282 138.06 32.6292ZM196.743 34.961C194.906 34.5898 193.726 32.8195 194.078 30.9826C194.43 29.1648 196.22 27.9655 198.057 28.3367C199.875 28.6984 201.074 30.4782 200.703 32.2961C200.389 33.9141 198.98 35.0181 197.4 35.0181C197.172 35.0181 196.953 34.9991 196.743 34.961ZM156.612 29.5931C156.479 27.7181 157.869 26.1096 159.744 25.9763C161.581 25.8431 163.209 27.2327 163.342 29.1076C163.475 30.9636 162.067 32.5816 160.21 32.7053H159.963C158.221 32.7053 156.736 31.3538 156.603 29.5931H156.612ZM178.553 32.6197C176.697 32.5055 175.269 30.897 175.402 29.041C175.497 27.1851 177.106 25.7574 178.962 25.8716C180.818 26.0049 182.246 27.5943 182.132 29.4503C182.018 31.2301 180.542 32.6197 178.753 32.6197H178.543H178.553Z" fill="#009AE7" fill-opacity="0.1"/>
<path d="M175.326 325.174C175.269 323.937 176.23 322.89 177.468 322.832C178.705 322.756 179.752 323.737 179.828 324.974C179.885 326.211 178.924 327.258 177.687 327.315C177.687 327.315 177.61 327.334 177.572 327.334C176.373 327.334 175.374 326.383 175.326 325.174ZM158.621 327.106C157.383 327.011 156.441 325.945 156.536 324.688C156.631 323.451 157.697 322.537 158.935 322.623C160.172 322.718 161.114 323.784 161.038 325.022C160.943 326.202 159.953 327.106 158.792 327.106H158.621ZM194.021 323.394C193.811 322.157 194.639 320.996 195.858 320.786C197.095 320.577 198.257 321.405 198.466 322.623C198.675 323.841 197.847 325.003 196.629 325.231C196.496 325.25 196.362 325.25 196.258 325.25C195.173 325.25 194.211 324.479 194.03 323.394H194.021ZM139.735 324.574C138.517 324.327 137.708 323.147 137.955 321.928C138.203 320.71 139.383 319.901 140.602 320.148C141.82 320.396 142.61 321.576 142.382 322.794C142.153 323.86 141.22 324.612 140.173 324.612C140.021 324.612 139.869 324.593 139.745 324.574H139.735ZM212.382 319.339C212.03 318.159 212.697 316.903 213.886 316.541C215.086 316.189 216.342 316.855 216.704 318.045C217.056 319.244 216.39 320.501 215.181 320.862C214.972 320.919 214.753 320.958 214.543 320.958C213.572 320.958 212.668 320.32 212.382 319.349V319.339ZM121.279 319.758C120.098 319.368 119.46 318.093 119.832 316.912C120.222 315.732 121.497 315.095 122.678 315.485C123.858 315.856 124.496 317.141 124.106 318.321C123.801 319.273 122.925 319.882 121.964 319.882C121.735 319.882 121.497 319.844 121.269 319.768L121.279 319.758ZM230.106 313.134C229.621 311.992 230.125 310.659 231.268 310.174C232.41 309.67 233.742 310.193 234.228 311.335C234.732 312.458 234.209 313.791 233.067 314.295C232.781 314.428 232.467 314.485 232.162 314.485C231.296 314.485 230.478 313.981 230.097 313.134H230.106ZM103.555 312.744C102.431 312.22 101.946 310.869 102.469 309.765C102.993 308.623 104.326 308.137 105.449 308.661C106.591 309.184 107.077 310.536 106.534 311.659C106.163 312.487 105.354 312.953 104.506 312.953C104.183 312.953 103.85 312.896 103.555 312.744ZM246.964 304.825C246.326 303.759 246.678 302.369 247.754 301.751C248.82 301.113 250.21 301.465 250.848 302.541C251.466 303.607 251.114 304.996 250.039 305.615C249.686 305.843 249.287 305.929 248.896 305.929C248.125 305.929 247.373 305.539 246.964 304.825ZM86.7921 303.664C85.7451 303.007 85.4214 301.618 86.0782 300.571C86.735 299.524 88.1247 299.181 89.1718 299.838C90.2189 300.494 90.5425 301.884 89.8857 302.95C89.4764 303.626 88.7435 303.997 87.9915 303.997C87.5822 303.997 87.1633 303.883 86.7921 303.654V303.664ZM262.679 294.555C261.927 293.566 262.118 292.157 263.108 291.405C264.079 290.653 265.487 290.825 266.258 291.814C267.01 292.804 266.82 294.213 265.849 294.965C265.44 295.279 264.945 295.431 264.478 295.431C263.803 295.431 263.127 295.127 262.679 294.546V294.555ZM71.2671 292.642C70.2961 291.852 70.1438 290.453 70.9149 289.473C71.7049 288.493 73.1327 288.35 74.0846 289.13C75.0555 289.92 75.2078 291.319 74.4178 292.3C73.9704 292.842 73.3326 293.128 72.6758 293.128C72.1713 293.128 71.6859 292.976 71.2671 292.642ZM277.043 282.458C276.177 281.554 276.177 280.136 277.081 279.27C277.967 278.404 279.385 278.404 280.251 279.289C281.136 280.193 281.117 281.611 280.232 282.478C279.785 282.906 279.223 283.134 278.652 283.134C278.071 283.134 277.491 282.915 277.043 282.458ZM57.1793 279.813C56.3131 278.908 56.3321 277.49 57.2174 276.624C58.1217 275.758 59.54 275.777 60.4062 276.662C61.2724 277.557 61.2533 278.985 60.3681 279.851C59.9207 280.279 59.3591 280.488 58.788 280.488C58.2073 280.488 57.6077 280.26 57.1793 279.813ZM289.817 268.696C288.866 267.925 288.694 266.507 289.465 265.546C290.255 264.575 291.654 264.403 292.635 265.174C293.606 265.964 293.758 267.373 292.987 268.344C292.54 268.905 291.883 269.191 291.226 269.191C290.741 269.191 290.236 269.039 289.817 268.705V268.696ZM44.7669 265.355C44.0149 264.365 44.2053 262.957 45.1952 262.205C46.1852 261.453 47.5939 261.643 48.3459 262.633C49.0979 263.623 48.9075 265.032 47.9176 265.784C47.5083 266.088 47.0323 266.231 46.5659 266.231C45.871 266.231 45.1952 265.926 44.7669 265.346V265.355ZM300.84 253.468C299.774 252.83 299.45 251.44 300.088 250.374C300.745 249.327 302.135 248.985 303.182 249.642C304.248 250.298 304.571 251.688 303.934 252.735C303.505 253.43 302.772 253.801 302.001 253.801C301.611 253.801 301.192 253.687 300.84 253.468ZM34.1915 249.508C33.5728 248.423 33.925 247.053 35.0006 246.434C36.0667 245.796 37.4565 246.149 38.0752 247.243C38.7129 248.309 38.3417 249.699 37.2661 250.317C36.9139 250.527 36.5141 250.622 36.1429 250.622C35.3719 250.622 34.6009 250.232 34.1915 249.518V249.508ZM309.94 237.04C308.817 236.517 308.312 235.184 308.836 234.061C309.359 232.919 310.692 232.434 311.815 232.957C312.938 233.462 313.443 234.813 312.919 235.936C312.548 236.764 311.72 237.25 310.873 237.25C310.559 237.25 310.235 237.173 309.93 237.04H309.94ZM25.5961 232.481C25.1107 231.339 25.6342 230.026 26.7764 229.521C27.9187 229.036 29.2513 229.559 29.7368 230.701C30.2222 231.844 29.6987 233.176 28.5565 233.661C28.2709 233.795 27.9568 233.852 27.6522 233.852C26.786 233.852 25.9674 233.347 25.5866 232.481H25.5961ZM317.012 219.623C315.832 219.252 315.175 217.967 315.566 216.787C315.937 215.606 317.193 214.969 318.383 215.34C319.563 215.711 320.22 216.986 319.849 218.167C319.544 219.118 318.669 219.727 317.707 219.727C317.479 219.727 317.241 219.689 317.012 219.613V219.623ZM19.1329 214.559C18.7997 213.379 19.4661 212.123 20.6749 211.78C21.8553 211.428 23.1117 212.094 23.4734 213.303C23.8066 214.483 23.1403 215.74 21.9314 216.092C21.722 216.149 21.5221 216.187 21.3127 216.187C20.3418 216.187 19.4375 215.549 19.1329 214.559ZM321.924 201.492C320.706 201.273 319.897 200.083 320.144 198.865C320.373 197.646 321.553 196.837 322.79 197.085C324.009 197.313 324.799 198.494 324.57 199.712C324.361 200.778 323.409 201.53 322.362 201.53C322.229 201.53 322.076 201.53 321.934 201.492H321.924ZM14.8685 196C14.6591 194.763 15.4872 193.621 16.7056 193.411C17.9431 193.202 19.0853 194.03 19.3138 195.248C19.5041 196.485 18.676 197.646 17.4576 197.856C17.3243 197.875 17.1911 197.875 17.0864 197.875C16.0012 197.875 15.0589 197.104 14.878 196H14.8685ZM324.608 182.885C323.371 182.808 322.429 181.742 322.505 180.505C322.6 179.249 323.666 178.326 324.903 178.402C326.141 178.478 327.083 179.563 327.007 180.8C326.912 181.98 325.941 182.904 324.761 182.904C324.704 182.904 324.665 182.885 324.608 182.885ZM12.8696 177.041C12.8124 175.803 13.7929 174.756 15.0303 174.699C16.2678 174.642 17.3148 175.604 17.3719 176.86C17.429 178.097 16.4676 179.144 15.2112 179.201H15.116C13.9166 179.201 12.9267 178.249 12.8696 177.041ZM322.619 161.984C322.562 160.746 323.504 159.7 324.742 159.623C325.998 159.547 327.045 160.509 327.121 161.746C327.197 162.983 326.236 164.049 324.999 164.125H324.865C323.685 164.125 322.686 163.183 322.619 161.984ZM15.2683 160.404C14.0118 160.29 13.0885 159.224 13.1837 157.986C13.2789 156.73 14.364 155.807 15.6014 155.902C16.8389 155.997 17.7622 157.082 17.667 158.319C17.5718 159.5 16.6009 160.404 15.4396 160.404H15.2683ZM320.496 143.605C320.268 142.368 321.077 141.207 322.314 140.978C323.533 140.769 324.694 141.578 324.923 142.796C325.132 144.033 324.323 145.195 323.104 145.423C322.971 145.442 322.838 145.461 322.714 145.461C321.629 145.461 320.687 144.69 320.506 143.605H320.496ZM17.5718 141.749C16.3534 141.502 15.5634 140.322 15.8299 139.103C16.0774 137.885 17.2577 137.095 18.4761 137.342C19.6945 137.59 20.4846 138.77 20.2371 139.988C20.0086 141.054 19.0758 141.806 18.0287 141.806C17.8955 141.806 17.7336 141.787 17.5813 141.749H17.5718ZM316.146 125.607C315.794 124.408 316.47 123.152 317.65 122.79C318.831 122.419 320.106 123.095 320.468 124.275C320.82 125.474 320.163 126.73 318.964 127.092C318.754 127.168 318.535 127.206 318.307 127.206C317.355 127.206 316.451 126.568 316.146 125.607ZM22.1694 123.523C20.9891 123.123 20.3513 121.867 20.7416 120.687C21.1318 119.506 22.4073 118.869 23.5877 119.259C24.768 119.649 25.4057 120.924 24.9964 122.086C24.6918 123.047 23.8161 123.647 22.8738 123.647C22.6263 123.647 22.3883 123.608 22.1599 123.513L22.1694 123.523ZM309.673 108.256C309.188 107.114 309.693 105.782 310.816 105.277C311.958 104.773 313.291 105.296 313.795 106.42C314.3 107.562 313.776 108.894 312.653 109.399C312.348 109.532 312.034 109.589 311.73 109.589C310.863 109.589 310.045 109.084 309.664 108.256H309.673ZM28.9182 105.991C27.795 105.468 27.3095 104.116 27.8521 103.012H27.833C28.3756 101.889 29.7273 101.404 30.8314 101.927C31.9546 102.451 32.4401 103.802 31.9166 104.925C31.5263 105.734 30.7172 106.22 29.87 106.22C29.5464 106.22 29.2132 106.144 28.9182 105.991ZM301.183 91.8099C300.545 90.7439 300.888 89.3543 301.954 88.7167C303.02 88.079 304.41 88.4311 305.047 89.5066C305.685 90.5726 305.333 91.9432 304.257 92.5808C303.905 92.7997 303.505 92.8949 303.115 92.8949C302.344 92.8949 301.592 92.5047 301.183 91.8099ZM37.7135 89.3924C36.6664 88.7357 36.3428 87.3271 36.9996 86.2801C37.6564 85.2332 39.0461 84.9096 40.0932 85.5853C41.1593 86.2421 41.4639 87.6316 40.8071 88.6786C40.3787 89.3543 39.6458 89.7255 38.8938 89.7255C38.5035 89.7255 38.0657 89.6113 37.7135 89.3924ZM290.75 76.515C289.979 75.5347 290.17 74.1356 291.14 73.3647C292.111 72.5937 293.539 72.7841 294.291 73.7549V73.7739C295.062 74.7447 294.872 76.1533 293.901 76.9243C293.492 77.2383 292.997 77.3906 292.53 77.3906C291.854 77.3906 291.179 77.0861 290.75 76.5055V76.515ZM48.4411 73.9643C47.4702 73.1743 47.3369 71.7752 48.1079 70.8139C48.898 69.8336 50.3163 69.6908 51.2777 70.4808C52.2486 71.2708 52.3819 72.6889 51.6108 73.6502C51.1635 74.1927 50.5067 74.4782 49.8689 74.4782C49.3644 74.4782 48.8599 74.3259 48.4411 73.9738V73.9643ZM278.547 62.6192C277.662 61.7341 277.662 60.3159 278.547 59.4308C279.451 58.5456 280.851 58.5647 281.736 59.4498C282.621 60.335 282.621 61.7531 281.717 62.6382C281.289 63.0665 280.727 63.2759 280.137 63.2759C279.556 63.2759 278.976 63.057 278.547 62.6192ZM60.9487 59.9733C60.0825 59.0786 60.1206 57.651 61.0249 56.8039C61.9101 55.9187 63.3284 55.9568 64.1946 56.861C65.0608 57.7652 65.0418 59.1833 64.1375 60.0494C63.7092 60.4587 63.1476 60.6681 62.5764 60.6681C61.9768 60.6681 61.3961 60.4396 60.9487 59.9733ZM264.745 50.2938C263.774 49.5229 263.603 48.1143 264.374 47.1244C265.145 46.1441 266.554 46.0013 267.524 46.7627C268.495 47.5337 268.667 48.9423 267.896 49.9131C267.467 50.4746 266.792 50.7792 266.135 50.7792C265.649 50.7792 265.164 50.6079 264.745 50.2938ZM75.0841 47.6003C74.3321 46.6105 74.5415 45.2018 75.5314 44.4499C76.5214 43.7171 77.9302 43.9074 78.6822 44.8973C79.4151 45.8871 79.2247 47.3148 78.2348 48.0667C77.8255 48.3712 77.3495 48.495 76.8831 48.495C76.1882 48.495 75.5124 48.1904 75.0841 47.6003ZM249.534 39.7387C248.468 39.101 248.125 37.7114 248.763 36.6455C249.42 35.5985 250.81 35.2559 251.857 35.8936C252.923 36.5312 253.265 37.9208 252.628 38.9868C252.199 39.6816 251.447 40.0718 250.695 40.0718C250.305 40.0718 249.886 39.9576 249.534 39.7292V39.7387ZM90.6186 37.0452C89.9999 35.9792 90.3521 34.5896 91.4468 33.971C92.5129 33.3523 93.9026 33.7235 94.5213 34.799C95.1401 35.884 94.7688 37.2546 93.6932 37.8732C93.341 38.0826 92.9412 38.1778 92.57 38.1778C91.7799 38.1778 91.028 37.7876 90.6186 37.0547V37.0452ZM236.046 32.4482C234.923 31.9247 234.456 30.5732 234.98 29.4501C235.522 28.327 236.874 27.8606 237.997 28.4031C239.121 28.9266 239.587 30.2781 239.044 31.4012C238.654 32.2102 237.864 32.6766 237.017 32.6766C236.703 32.6766 236.36 32.6004 236.046 32.4482ZM107.305 28.4317C106.82 27.2896 107.362 25.9571 108.504 25.4717C109.647 24.9863 110.96 25.5288 111.446 26.6709C111.931 27.813 111.389 29.1265 110.265 29.6119C109.97 29.7451 109.666 29.8022 109.38 29.8022C108.495 29.8022 107.676 29.2788 107.295 28.4317H107.305ZM218.912 25.4527C217.732 25.0624 217.094 23.7871 217.484 22.6069C217.894 21.4267 219.169 20.808 220.35 21.1983C221.511 21.5885 222.149 22.8639 221.758 24.044C221.435 24.9863 220.559 25.5859 219.617 25.5859C219.369 25.5859 219.131 25.5478 218.903 25.4527H218.912ZM124.915 21.8931C124.582 20.6938 125.267 19.4375 126.457 19.0949C127.656 18.7617 128.894 19.428 129.255 20.6367C129.588 21.8359 128.903 23.0732 127.713 23.4254C127.504 23.4825 127.285 23.5015 127.075 23.5015C126.105 23.5015 125.2 22.8639 124.915 21.8931ZM201.036 20.5986C199.818 20.3322 199.047 19.152 199.294 17.9337C199.561 16.7154 200.741 15.9255 201.959 16.192C203.178 16.4394 203.949 17.6387 203.701 18.8569C203.473 19.9039 202.54 20.6367 201.493 20.6367C201.341 20.6367 201.188 20.6177 201.046 20.5986H201.036ZM143.2 17.5054C142.991 16.2871 143.819 15.126 145.056 14.9356C146.275 14.7262 147.436 15.5543 147.645 16.7916C147.836 18.0098 147.008 19.171 145.77 19.3804C145.656 19.3994 145.523 19.3994 145.418 19.3994C144.333 19.3994 143.372 18.6095 143.21 17.5054H143.2ZM182.712 17.9337C181.475 17.8195 180.552 16.7535 180.647 15.4972C180.761 14.2599 181.846 13.3367 183.084 13.4509C184.321 13.546 185.244 14.6311 185.149 15.8684C185.035 17.0486 184.064 17.9337 182.903 17.9337H182.712ZM161.857 15.3639C161.8 14.1266 162.78 13.0797 164.018 13.0226C165.274 12.9845 166.302 13.9458 166.359 15.2021C166.397 16.4394 165.436 17.4864 164.199 17.5244C164.199 17.5244 164.141 17.5435 164.103 17.5435C162.904 17.5435 161.895 16.5917 161.857 15.3639Z" fill="#009AE7" fill-opacity="0.05"/>
<path d="M167.482 340.211C166.864 340.192 166.359 339.688 166.378 339.069C166.378 338.451 166.902 337.946 167.52 337.965C168.139 337.965 168.625 338.47 168.625 339.088C168.605 339.707 168.101 340.211 167.501 340.211H167.482ZM185.149 338.413C185.092 337.794 185.539 337.251 186.158 337.175C186.777 337.118 187.319 337.566 187.395 338.184C187.453 338.803 187.005 339.364 186.387 339.421H186.272C185.692 339.421 185.206 338.993 185.149 338.413ZM148.626 338.879C148.007 338.784 147.579 338.222 147.655 337.623C147.731 337.004 148.293 336.576 148.911 336.642C149.53 336.718 149.958 337.28 149.882 337.88C149.806 338.46 149.321 338.869 148.759 338.869H148.626V338.879ZM203.758 335.672C203.625 335.072 204.025 334.472 204.624 334.339C205.224 334.206 205.824 334.606 205.957 335.205C206.09 335.805 205.691 336.404 205.091 336.538C204.996 336.557 204.919 336.576 204.843 336.576C204.32 336.576 203.853 336.205 203.758 335.681V335.672ZM130.017 335.453C129.417 335.3 129.046 334.682 129.188 334.082C129.322 333.482 129.94 333.111 130.54 333.254C131.14 333.406 131.511 334.006 131.368 334.606C131.235 335.129 130.788 335.472 130.283 335.472C130.188 335.472 130.093 335.472 130.017 335.453ZM221.929 330.894C221.72 330.313 222.044 329.675 222.643 329.466C223.224 329.276 223.862 329.599 224.071 330.18C224.262 330.779 223.938 331.417 223.357 331.607C223.224 331.646 223.11 331.665 223.005 331.665C222.539 331.665 222.082 331.36 221.939 330.894H221.929ZM111.902 329.951C111.322 329.723 111.017 329.085 111.246 328.505C111.455 327.924 112.093 327.62 112.692 327.829C113.273 328.038 113.578 328.695 113.368 329.276C113.197 329.723 112.75 330.028 112.302 330.028C112.169 330.028 112.036 329.989 111.912 329.951H111.902ZM239.463 324.146C239.197 323.584 239.444 322.908 240.006 322.642C240.567 322.375 241.243 322.642 241.51 323.203C241.757 323.765 241.51 324.422 240.948 324.688C240.796 324.764 240.624 324.802 240.482 324.802C240.053 324.802 239.653 324.555 239.473 324.146H239.463ZM94.5402 322.49V322.509C93.9786 322.233 93.7501 321.557 94.0166 320.995C94.3022 320.434 94.9685 320.205 95.5396 320.491C96.1012 320.757 96.3297 321.433 96.0441 321.995C95.8537 322.385 95.4444 322.632 95.0351 322.632C94.8638 322.632 94.702 322.594 94.5497 322.499L94.5402 322.49ZM256.13 315.475C255.816 314.952 255.978 314.257 256.502 313.943C257.044 313.629 257.739 313.79 258.063 314.314C258.377 314.856 258.196 315.551 257.672 315.865C257.482 315.979 257.301 316.018 257.092 316.018C256.72 316.018 256.34 315.827 256.14 315.475H256.13ZM78.0727 313.191C77.5492 312.858 77.3969 312.163 77.7396 311.63C78.0727 311.106 78.7676 310.954 79.2911 311.297C79.8147 311.63 79.967 312.325 79.6338 312.858C79.4054 313.191 79.0532 313.362 78.6819 313.362C78.4725 313.362 78.2726 313.305 78.0822 313.191H78.0727ZM271.741 305.034C271.37 304.549 271.456 303.835 271.951 303.464C272.455 303.093 273.15 303.178 273.531 303.683C273.902 304.168 273.835 304.882 273.321 305.263C273.112 305.415 272.874 305.481 272.645 305.481C272.312 305.481 271.97 305.329 271.741 305.034ZM62.7476 302.112C62.2621 301.722 62.1859 301.008 62.5762 300.523C62.9665 300.056 63.6804 299.98 64.1659 300.37H64.1468C64.6323 300.761 64.7084 301.455 64.3181 301.941C64.0897 302.226 63.7756 302.35 63.4519 302.35C63.1854 302.35 62.9475 302.274 62.738 302.103L62.7476 302.112ZM286.086 292.937C285.657 292.471 285.677 291.776 286.124 291.348C286.571 290.919 287.285 290.938 287.714 291.386C288.142 291.814 288.123 292.547 287.675 292.956C287.447 293.185 287.171 293.27 286.885 293.27C286.6 293.27 286.305 293.156 286.076 292.937H286.086ZM48.755 289.397C48.3267 288.949 48.3267 288.235 48.774 287.798C49.2214 287.369 49.9353 287.369 50.3637 287.817C50.792 288.245 50.792 288.959 50.3446 289.397C50.1162 289.615 49.8401 289.73 49.5546 289.73C49.269 289.73 48.9739 289.615 48.7455 289.397H48.755ZM298.984 279.289C298.517 278.899 298.441 278.185 298.831 277.718C299.241 277.233 299.955 277.176 300.421 277.566C300.906 277.956 300.964 278.67 300.573 279.165C300.345 279.432 300.031 279.555 299.688 279.555C299.441 279.555 299.184 279.479 298.974 279.289H298.984ZM36.2854 275.187C35.9142 274.701 35.9808 274.006 36.4758 273.607C36.9613 273.236 37.6752 273.312 38.0655 273.797C38.4367 274.283 38.3701 274.996 37.856 275.368C37.6466 275.539 37.4087 275.615 37.1612 275.615C36.8471 275.615 36.5044 275.463 36.2759 275.187H36.2854ZM310.292 264.289C309.768 263.956 309.635 263.261 309.968 262.728C310.302 262.205 310.996 262.052 311.529 262.414C312.053 262.757 312.186 263.442 311.844 263.975C311.634 264.289 311.263 264.479 310.901 264.479C310.692 264.479 310.473 264.422 310.282 264.289H310.292ZM25.4626 259.692C25.1485 259.149 25.3103 258.455 25.8339 258.131C26.3574 257.798 27.0523 257.96 27.3949 258.502C27.7091 259.026 27.5472 259.72 27.0237 260.044C26.8333 260.158 26.6334 260.215 26.424 260.215C26.0528 260.215 25.6911 260.025 25.4722 259.692H25.4626ZM319.858 248.128C319.297 247.852 319.087 247.157 319.373 246.615C319.658 246.072 320.325 245.844 320.877 246.129C321.438 246.405 321.667 247.081 321.381 247.643C321.172 248.033 320.782 248.242 320.372 248.242C320.201 248.242 320.039 248.204 319.868 248.128H319.858ZM16.4484 243.065C16.1819 242.522 16.4103 241.846 16.991 241.561C17.5335 241.294 18.2094 241.542 18.4759 242.103C18.7424 242.665 18.514 243.341 17.9524 243.607C17.781 243.683 17.6382 243.721 17.4669 243.721C17.0576 243.721 16.6388 243.474 16.4579 243.065H16.4484ZM327.588 230.987C327.007 230.777 326.721 230.12 326.931 229.54C327.159 228.959 327.816 228.674 328.397 228.883C328.977 229.112 329.263 229.768 329.053 230.349C328.882 230.796 328.454 231.063 328.006 231.063C327.873 231.063 327.721 231.044 327.597 230.987H327.588ZM9.29981 225.571C9.0904 224.971 9.41404 224.334 9.99468 224.124C10.5944 223.934 11.2321 224.239 11.4415 224.838C11.6319 225.419 11.3273 226.056 10.7467 226.266C10.6134 226.304 10.4801 226.323 10.3754 226.323C9.90901 226.323 9.47115 226.018 9.30933 225.571H9.29981ZM333.384 213.112C332.785 212.96 332.433 212.341 332.575 211.742C332.728 211.142 333.346 210.781 333.946 210.933C334.546 211.085 334.917 211.704 334.774 212.303C334.641 212.808 334.175 213.15 333.67 213.15C333.575 213.15 333.48 213.15 333.384 213.112ZM4.14065 207.364C4.00739 206.764 4.38814 206.164 4.98782 206.031C5.5875 205.879 6.20622 206.279 6.33948 206.878C6.47275 207.497 6.092 208.097 5.49231 208.23C5.39713 208.249 5.30194 208.249 5.22579 208.249C4.7213 208.249 4.25488 207.887 4.14065 207.364ZM337.173 194.724C336.554 194.629 336.126 194.068 336.202 193.449C336.297 192.83 336.859 192.402 337.478 192.497C338.096 192.592 338.525 193.154 338.429 193.772C338.353 194.334 337.868 194.724 337.325 194.724H337.173ZM1.00899 188.719C0.951874 188.1 1.39926 187.538 2.01797 187.462C2.63669 187.405 3.17926 187.833 3.25541 188.452C3.31252 189.071 2.88418 189.632 2.26546 189.708H2.1322C1.57059 189.708 1.08514 189.28 1.00899 188.719ZM338.839 176.003C338.239 175.984 337.735 175.46 337.754 174.842C337.773 174.223 338.296 173.738 338.915 173.757C339.534 173.776 340.019 174.28 340 174.918C339.981 175.518 339.476 176.003 338.877 176.003H338.839ZM1.12321 170.94C0.504493 170.94 0 170.454 0 169.816C0 169.198 0.504493 168.693 1.12321 168.693C1.74193 168.693 2.24642 169.198 2.24642 169.836C2.24642 170.435 1.74193 170.94 1.12321 170.94ZM337.201 156.187C337.163 155.569 337.611 155.026 338.229 154.969C338.848 154.931 339.391 155.378 339.448 155.997C339.505 156.615 339.039 157.158 338.42 157.215H338.325C337.744 157.215 337.259 156.787 337.201 156.187ZM2.0846 152.19C1.46589 152.114 1.01851 151.552 1.09466 150.933C1.17081 150.315 1.73241 149.886 2.33209 149.944C2.95081 150.02 3.39819 150.581 3.32204 151.2C3.26493 151.78 2.77947 152.19 2.21787 152.19H2.0846ZM334.622 137.713H334.603C334.489 137.095 334.888 136.514 335.507 136.381C336.107 136.267 336.707 136.666 336.821 137.266C336.954 137.885 336.535 138.465 335.935 138.598C335.859 138.618 335.783 138.618 335.707 138.618C335.183 138.618 334.717 138.246 334.622 137.713ZM5.12108 133.649C4.5214 133.497 4.15017 132.897 4.29295 132.298C4.42622 131.698 5.0259 131.317 5.62558 131.451C6.2443 131.584 6.61553 132.203 6.49178 132.802C6.35852 133.326 5.8921 133.687 5.38761 133.687C5.31146 133.687 5.21627 133.668 5.12108 133.649ZM329.967 119.639C329.777 119.04 330.101 118.402 330.7 118.231C331.3 118.021 331.919 118.364 332.109 118.944V118.964C332.299 119.544 331.976 120.182 331.376 120.372C331.262 120.41 331.148 120.429 331.043 120.429C330.576 120.429 330.12 120.115 329.977 119.639H329.967ZM10.2422 115.575C9.66152 115.366 9.33789 114.709 9.5473 114.129C9.75671 113.548 10.3945 113.234 10.9941 113.434C11.5748 113.643 11.8794 114.281 11.67 114.88C11.5177 115.347 11.0703 115.632 10.6039 115.632C10.4897 115.632 10.3564 115.613 10.2517 115.575H10.2422ZM323.371 102.184C323.104 101.622 323.371 100.947 323.932 100.699C324.494 100.452 325.17 100.699 325.417 101.261C325.684 101.841 325.417 102.498 324.856 102.745C324.703 102.822 324.551 102.86 324.389 102.86C323.961 102.86 323.561 102.593 323.38 102.184H323.371ZM17.3051 98.1484C16.7435 97.8819 16.515 97.2061 16.7815 96.6446C17.0481 96.083 17.7239 95.8546 18.2855 96.1211C18.8471 96.3876 19.0756 97.0633 18.809 97.6249C18.6187 98.0341 18.2094 98.2626 17.8001 98.2626C17.6287 98.2626 17.4669 98.2245 17.3146 98.1484H17.3051ZM314.871 85.566C314.556 85.0235 314.737 84.3287 315.261 84.0241C315.803 83.71 316.498 83.8909 316.803 84.4334V84.4144C317.117 84.9569 316.936 85.6516 316.413 85.9562C316.222 86.0704 316.041 86.1275 315.851 86.1275C315.461 86.1275 315.08 85.9181 314.88 85.566H314.871ZM26.2527 81.6257C25.7101 81.3116 25.5578 80.6168 25.8815 80.0648C26.2146 79.5413 26.9095 79.389 27.4425 79.7126C27.9661 80.0457 28.1374 80.7405 27.7947 81.2735C27.5853 81.6066 27.2141 81.797 26.8429 81.797C26.6334 81.797 26.4335 81.7399 26.2622 81.6257H26.2527ZM304.571 70.0046C304.219 69.5002 304.305 68.8054 304.819 68.4247C305.304 68.0535 306.018 68.1582 306.399 68.6531C306.751 69.1575 306.665 69.8523 306.151 70.2235C305.961 70.3758 305.723 70.4519 305.495 70.4519C305.142 70.4519 304.8 70.2996 304.571 70.0046ZM36.9613 66.1975C36.4758 65.8073 36.3806 65.1125 36.7709 64.6271C37.1421 64.1227 37.856 64.0465 38.351 64.4368C38.8365 64.827 38.9317 65.5218 38.5414 66.0072C38.3129 66.2927 37.9988 66.4355 37.6561 66.4355C37.4087 66.4355 37.1707 66.3593 36.9613 66.188V66.1975ZM292.625 55.6805C292.216 55.2332 292.235 54.5193 292.682 54.091C293.13 53.6627 293.863 53.7008 294.272 54.1481C294.7 54.5955 294.662 55.3093 294.215 55.7376C294.005 55.947 293.729 56.0422 293.444 56.0422C293.139 56.0422 292.844 55.9279 292.616 55.6805H292.625ZM49.3166 52.0638C48.8692 51.6355 48.8692 50.9216 49.2976 50.4934C49.745 50.046 50.4589 50.046 50.8872 50.4743C51.3346 50.9216 51.3346 51.6355 50.9062 52.0733C50.6778 52.3017 50.3827 52.4064 50.0971 52.4064C49.8116 52.4064 49.5165 52.2922 49.3071 52.0733L49.3166 52.0638ZM279.166 42.7745C278.699 42.3843 278.642 41.6705 279.032 41.2041C279.442 40.7377 280.156 40.6806 280.622 41.0708C281.088 41.4611 281.146 42.1749 280.755 42.6698C280.527 42.9173 280.213 43.06 279.889 43.06C279.623 43.06 279.366 42.9649 279.156 42.7745H279.166ZM63.1759 39.4053C62.7856 38.9199 62.8523 38.2251 63.3472 37.8348C63.8327 37.4446 64.5466 37.5208 64.9273 38.0062C65.3176 38.4916 65.2415 39.2054 64.756 39.5766C64.5466 39.7479 64.3086 39.8431 64.0611 39.8431C63.728 39.8431 63.4044 39.6908 63.1759 39.4148V39.4053ZM264.326 31.4675C263.821 31.1154 263.669 30.4206 264.021 29.9066C264.355 29.3831 265.068 29.2499 265.582 29.5925V29.6116C266.106 29.9447 266.239 30.6585 265.878 31.1725C265.668 31.4865 265.316 31.6579 264.954 31.6579C264.726 31.6579 264.507 31.6008 264.316 31.4675H264.326ZM78.3678 28.3743C78.0347 27.8508 78.1965 27.137 78.72 26.8134C79.2435 26.4802 79.9384 26.623 80.2716 27.1465C80.5952 27.67 80.4429 28.3647 79.9194 28.7074C79.729 28.8216 79.5291 28.8787 79.3197 28.8787C78.9485 28.8787 78.5867 28.6883 78.3678 28.3743ZM244.032 19.7893C243.489 19.5133 243.28 18.8185 243.566 18.276C243.87 17.7335 244.537 17.5051 245.089 17.8096C245.65 18.0952 245.86 18.79 245.574 19.3325C245.365 19.7037 244.974 19.9321 244.565 19.9321C244.394 19.9321 244.213 19.894 244.042 19.7988L244.032 19.7893ZM94.702 19.0755C94.4164 18.533 94.6639 17.8572 95.2255 17.5717C95.7681 17.2862 96.4439 17.5336 96.7295 18.0952C96.996 18.6377 96.7675 19.3134 96.2059 19.599C96.0536 19.6751 95.8918 19.7132 95.7205 19.7132C95.3112 19.7132 94.8924 19.4848 94.7115 19.0755H94.702ZM111.959 11.6517C111.75 11.0711 112.055 10.4334 112.635 10.2241V10.205C113.235 9.99563 113.873 10.3192 114.082 10.8998C114.292 11.4804 113.987 12.1181 113.406 12.3465C113.273 12.3846 113.159 12.4036 113.035 12.4036C112.569 12.4036 112.131 12.1276 111.969 11.6517H111.959ZM223.376 11.1853C222.777 10.976 222.453 10.3383 222.662 9.75769C222.853 9.15808 223.491 8.84399 224.09 9.04386C224.671 9.25325 224.995 9.89094 224.785 10.4715C224.633 10.9379 224.204 11.2424 223.738 11.2424C223.605 11.2424 223.491 11.2234 223.386 11.1853H223.376ZM129.94 6.19808C129.788 5.57943 130.169 4.97982 130.768 4.82753C131.368 4.67525 131.968 5.05596 132.12 5.67461C132.272 6.27422 131.892 6.87383 131.292 7.02612C131.197 7.04515 131.121 7.06419 131.025 7.06419C130.521 7.06419 130.055 6.70251 129.94 6.19808ZM205.367 6.21711C204.767 6.08387 204.377 5.48425 204.501 4.88464C204.634 4.26599 205.234 3.8948 205.833 4.01853C206.452 4.15178 206.823 4.75139 206.7 5.351C206.585 5.87448 206.119 6.23615 205.614 6.23615C205.538 6.23615 205.443 6.23615 205.367 6.21711ZM148.397 2.72413C148.321 2.10548 148.768 1.54393 149.387 1.46779C150.006 1.39165 150.548 1.83898 150.644 2.45763C150.72 3.05724 150.272 3.61879 149.654 3.69493V3.71396H149.52C148.959 3.71396 148.473 3.3047 148.397 2.72413ZM186.939 3.28567V3.3047C186.32 3.22856 185.872 2.68606 185.93 2.06741C186.006 1.44876 186.548 1.00143 187.167 1.05853C187.786 1.13467 188.233 1.67718 188.176 2.29583C188.119 2.87641 187.633 3.3047 187.053 3.3047C187.053 3.3047 186.977 3.3047 186.939 3.28567ZM167.149 1.33455C167.149 0.715896 167.635 0.211459 168.253 0.211459C168.872 0.192424 169.396 0.696861 169.396 1.31551C169.396 1.93416 168.91 2.45763 168.291 2.45763H168.272C167.654 2.45763 167.149 1.95319 167.149 1.33455Z" fill="#009AE7" fill-opacity="0.03"/>
</g>
<defs>
<clipPath id="clip0_490_1692">
<rect width="340" height="340" fill="white" transform="translate(0 0.211914)"/>
</clipPath>
</defs>
</svg>
