<svg width="140" height="140" viewBox="0 0 140 140" fill="none" xmlns="http://www.w3.org/2000/svg">
<rect width="140" height="140" fill="white"/>
<path d="M110.249 50.1506C109.287 46.5334 106.441 43.6798 102.82 42.7018C96.2717 40.9468 70 40.9468 70 40.9468C70 40.9468 43.7416 40.9468 37.1804 42.7018C33.5724 43.6664 30.7261 46.52 29.7506 50.1506C28 56.7152 28 70.4205 28 70.4205C28 70.4205 28 84.1257 29.7506 90.6903C30.7127 94.3075 33.559 97.1611 37.1804 98.1391C43.7416 99.8941 70 99.8941 70 99.8941C70 99.8941 96.2717 99.8941 102.82 98.1391C106.428 97.1745 109.274 94.3209 110.249 90.6903C112 84.1257 112 70.4205 112 70.4205C112 70.4205 112 56.7152 110.249 50.1506Z" fill="#FF3000"/>
<path d="M61.608 83.0539L83.4298 70.4205L61.608 57.787V83.0539Z" fill="white"/>
</svg>
