<svg width="140" height="140" viewBox="0 0 140 140" fill="none" xmlns="http://www.w3.org/2000/svg">
<rect width="140" height="140" fill="white"/>
<g clip-path="url(#clip0_508_1245)">
<path d="M42.3364 102.896C39.2524 102.896 36.7461 100.389 36.7461 97.3054V57.5585C36.7461 54.4746 39.2524 51.9683 42.3364 51.9683C45.4203 51.9683 47.9266 54.4746 47.9266 57.5585V97.3054C47.9266 100.389 45.4203 102.896 42.3364 102.896Z" fill="#A6F4C2"/>
<path d="M60.7758 102.896C57.6919 102.896 55.1855 100.389 55.1855 97.3054V57.5585C55.1855 54.4746 57.6919 51.9683 60.7758 51.9683C63.8598 51.9683 66.3661 54.4746 66.3661 57.5585V97.3054C66.3661 100.389 63.8598 102.896 60.7758 102.896Z" fill="#A6F4C2"/>
<path d="M79.225 102.896C76.1411 102.896 73.6348 100.389 73.6348 97.3054V57.5585C73.6348 54.4746 76.1411 51.9683 79.225 51.9683C82.309 51.9683 84.8153 54.4746 84.8153 57.5585V97.3054C84.8153 100.389 82.309 102.896 79.225 102.896Z" fill="#A6F4C2"/>
<path d="M97.6586 102.896C94.5747 102.896 92.0684 100.389 92.0684 97.3054V57.5585C92.0684 54.4746 94.5747 51.9683 97.6586 51.9683C100.743 51.9683 103.249 54.4746 103.249 57.5585V97.3054C103.249 100.389 100.743 102.896 97.6586 102.896Z" fill="#A6F4C2"/>
<path d="M107.553 57.8474H32.4387C30.948 57.8474 29.7461 56.6362 29.7461 55.1547V50.7477C29.7461 49.7694 30.2772 48.8657 31.1343 48.3905L68.6824 27.5201C69.493 27.0636 70.4899 27.0636 71.3005 27.5201L108.858 48.3812C109.715 48.8564 110.246 49.7601 110.246 50.7384V55.1454C110.246 56.6362 109.035 57.8381 107.553 57.8381V57.8474Z" fill="#00C18A"/>
<path d="M105.671 94.1558H34.3208C31.7943 94.1558 29.7461 96.2039 29.7461 98.7305V101.46C29.7461 103.987 31.7943 106.035 34.3208 106.035H105.671C108.198 106.035 110.246 103.987 110.246 101.46V98.7305C110.246 96.2039 108.198 94.1558 105.671 94.1558Z" fill="#00C18A"/>
</g>
<defs>
<clipPath id="clip0_508_1245">
<rect width="80.5" height="78.8509" fill="white" transform="translate(29.75 27.1855)"/>
</clipPath>
</defs>
</svg>
