<svg width="120" height="121" viewBox="0 0 120 121" fill="none" xmlns="http://www.w3.org/2000/svg">
<rect x="-0.00195312" y="0.161133" width="120" height="120" rx="24" fill="white"/>
<g clip-path="url(#clip0_62_121)">
<path d="M33.6068 94.1921C30.6645 94.1921 28.2734 91.801 28.2734 88.8588V50.9388C28.2734 47.9966 30.6645 45.6055 33.6068 45.6055C36.549 45.6055 38.9401 47.9966 38.9401 50.9388V88.8588C38.9401 91.801 36.549 94.1921 33.6068 94.1921Z" fill="#A6F4C2"/>
<path d="M51.1986 94.1921C48.2563 94.1921 45.8652 91.801 45.8652 88.8588V50.9388C45.8652 47.9966 48.2563 45.6055 51.1986 45.6055C54.1408 45.6055 56.5319 47.9966 56.5319 50.9388V88.8588C56.5319 91.801 54.1408 94.1921 51.1986 94.1921Z" fill="#A6F4C2"/>
<path d="M68.7982 94.1921C65.856 94.1921 63.4648 91.801 63.4648 88.8588V50.9388C63.4648 47.9966 65.856 45.6055 68.7982 45.6055C71.7404 45.6055 74.1315 47.9966 74.1315 50.9388V88.8588C74.1315 91.801 71.7404 94.1921 68.7982 94.1921Z" fill="#A6F4C2"/>
<path d="M86.388 94.1921C83.4458 94.1921 81.0547 91.801 81.0547 88.8588V50.9388C81.0547 47.9966 83.4458 45.6055 86.388 45.6055C89.3302 45.6055 91.7214 47.9966 91.7214 50.9388V88.8588C91.7214 91.801 89.3302 94.1921 86.388 94.1921Z" fill="#A6F4C2"/>
<path d="M95.8288 51.2141H24.1665C22.7443 51.2141 21.5977 50.0585 21.5977 48.6452V44.4408C21.5977 43.5074 22.1043 42.6452 22.9221 42.1919L58.7443 22.2808C59.5177 21.8452 60.4688 21.8452 61.2421 22.2808L97.0732 42.183C97.891 42.6363 98.3977 43.4985 98.3977 44.4319V48.6363C98.3977 50.0585 97.2421 51.2052 95.8288 51.2052V51.2141Z" fill="#00C18A"/>
<path d="M94.0332 85.8545H25.9621C23.5517 85.8545 21.5977 87.8085 21.5977 90.2189V92.8234C21.5977 95.2338 23.5517 97.1878 25.9621 97.1878H94.0332C96.4436 97.1878 98.3977 95.2338 98.3977 92.8234V90.2189C98.3977 87.8085 96.4436 85.8545 94.0332 85.8545Z" fill="#00C18A"/>
</g>
<defs>
<clipPath id="clip0_62_121">
<rect width="76.8" height="75.2267" fill="white" transform="translate(21.5977 21.9609)"/>
</clipPath>
</defs>
</svg>
