<svg width="150" height="150" viewBox="0 0 150 150" fill="none" xmlns="http://www.w3.org/2000/svg">
<rect width="150" height="150" fill="white"/>
<g clip-path="url(#clip0_933_2199)">
<path d="M70.5381 97.4249L45.0684 88.1288L27 103.174L63.2276 116.203C67.7783 117.842 72.8523 116.928 76.5551 113.81L123 74.653L105.533 68.2793L70.5381 97.4249Z" fill="#0047A0"/>
<path d="M98.9362 65.868L122.996 45.8277L86.7724 32.8028C82.2217 31.1639 77.1477 32.0787 73.4449 35.1962L27 74.3489L51.0595 83.1334L80.0589 58.9784L98.9362 65.868Z" fill="#CD2E3A"/>
<path opacity="0.5" d="M98.9353 65.8682L80.0623 58.9785L51.0586 83.1335L69.9359 90.0232L98.9353 65.8682Z" fill="#3F4D56"/>
<path d="M98.9353 65.8682L80.0623 58.9785L51.0586 83.1335L69.9359 90.0232L98.9353 65.8682Z" fill="#091F2C"/>
</g>
<defs>
<clipPath id="clip0_933_2199">
<rect width="96" height="85" fill="white" transform="translate(27 32)"/>
</clipPath>
</defs>
</svg>
