<svg width="97" height="97" viewBox="0 0 97 97" fill="none" xmlns="http://www.w3.org/2000/svg">
<g clip-path="url(#clip0_551_3010)">
<path d="M56.8782 24.4599C56.1679 25.1702 55.641 25.9721 55.2973 26.8427C52.525 25.1931 48.882 25.5597 46.4992 27.9425C45.5369 28.9048 44.9068 30.0618 44.609 31.299C42.2834 30.7835 39.7402 31.425 37.9302 33.2351C37.2887 33.8766 36.7846 34.6098 36.441 35.4117L27.7231 26.6938C24.9049 23.8756 20.3226 23.8756 17.5045 26.6938C14.6863 29.5119 14.6863 34.0943 17.5045 36.9124L37.85 57.258C35.9827 56.9716 34.0696 56.6623 32.0992 56.4331C28.1928 55.9634 25.9818 57.258 24.8018 58.4379C24.0916 59.1482 23.5646 60.0188 23.2553 60.9926C22.3274 63.8909 23.3813 67.8775 29.1092 70.352C31.4462 71.3601 43.7498 76.4465 56.7293 77.0078C62.7894 77.2713 68.2538 75.0145 72.9736 70.2947L79.8013 63.467C88.0266 55.2417 86.251 43.637 79.7784 37.1644L67.0739 24.4599C64.2557 21.6418 59.6734 21.6418 56.8553 24.4599L56.8782 24.4599ZM76.5135 40.4293C80.6147 44.5305 83.3412 53.3744 76.5364 60.1792L69.7087 67.0069C65.8939 70.8217 61.7126 72.5744 56.9469 72.3682C44.7808 71.8412 33.1646 67.0527 30.9651 66.0904C28.5364 65.0365 27.2878 63.6274 27.6773 62.3902C27.7574 62.1267 27.8949 61.8976 28.0897 61.7028C28.7197 61.0728 29.9455 60.8322 31.5493 61.0155C33.7374 61.279 35.914 61.6226 38.0104 61.9549C40.2672 62.31 42.398 62.6537 44.1851 62.814C45.1474 62.9057 46.0868 62.3787 46.4992 61.4852C46.9231 60.6031 46.7398 59.5491 46.041 58.8503L20.8037 33.6131C19.7956 32.605 19.7956 30.9554 20.8037 29.9472C21.8119 28.9391 23.4615 28.9391 24.4696 29.9472L42.0543 47.532C42.9593 48.437 44.4257 48.437 45.3307 47.532C46.2357 46.6269 46.2357 45.1606 45.3307 44.2556L41.2295 40.1544C40.2214 39.1463 40.2214 37.4966 41.2295 36.4885C42.2376 35.4804 43.8873 35.4804 44.8954 36.4885L50.3827 41.9759C51.2877 42.8809 52.7541 42.8809 53.6591 41.9759C54.5641 41.0709 54.5641 39.6045 53.6591 38.6995L49.8099 34.8503C48.8018 33.8422 48.8018 32.1926 49.8099 31.1845C50.818 30.1764 52.4677 30.1764 53.4758 31.1845L58.7111 36.4198C59.6161 37.3248 61.0825 37.3248 61.9875 36.4198C62.8925 35.5148 62.8925 34.0484 61.9875 33.1434L60.2004 31.3563C59.1923 30.3482 59.1923 28.6986 60.2004 27.6904C61.2085 26.6823 62.8581 26.6823 63.8662 27.6904L76.5708 40.395L76.5135 40.4293Z" fill="#334B89"/>
<path d="M60.1541 27.7357C59.146 28.7438 59.146 30.3935 60.1541 31.4016L61.9412 33.1887C62.8462 34.0937 62.8462 35.5601 61.9412 36.4651C61.0362 37.3701 59.5698 37.3701 58.6648 36.4651L53.4295 31.2298C52.4214 30.2217 50.7718 30.2216 49.7637 31.2298C48.7555 32.2379 48.7555 33.8875 49.7637 34.8956L53.6128 38.7448C54.5178 39.6498 54.5178 41.1162 53.6128 42.0212C52.7078 42.9262 51.2415 42.9262 50.3364 42.0212L44.8491 36.5338C43.841 35.5257 42.1913 35.5257 41.1832 36.5338C40.1751 37.5419 40.1751 39.1916 41.1832 40.1997L45.2844 44.3009C46.1894 45.2059 46.1894 46.6722 45.2844 47.5772C44.3794 48.4823 42.9131 48.4823 42.008 47.5772L24.4233 29.9925C23.4152 28.9844 21.7656 28.9844 20.7575 29.9925C19.7494 31.0006 19.7494 32.6503 20.7575 33.6584L46.0061 58.9071C46.6935 59.5944 46.8768 60.6484 46.4644 61.5419C46.0405 62.424 45.124 62.951 44.1503 62.8708C42.3632 62.7104 40.2324 62.3667 37.9756 62.0116C35.8792 61.6794 33.7026 61.3357 31.5145 61.0722C29.9107 60.8889 28.6849 61.1295 28.0548 61.7596C27.8715 61.9429 27.7226 62.1834 27.6424 62.4469C27.2529 63.6842 28.5016 65.0932 30.9303 66.1472C33.1298 67.1095 44.746 71.898 56.9121 72.425C61.6777 72.6312 65.8591 70.8784 69.6739 67.0636L76.5016 60.2359C83.3063 53.4312 80.5913 44.5987 76.4787 40.4861L63.7741 27.7816C62.766 26.7734 61.1164 26.7734 60.1083 27.7816L60.1541 27.7357Z" fill="white"/>
<path d="M68.1404 77.3613L86.0561 59.4456L89.4153 62.8048L71.4996 80.7205L68.1404 77.3613Z" fill="#D9D9D9" stroke="#334B89" stroke-width="4.75061"/>
</g>
<defs>
<clipPath id="clip0_551_3010">
<rect width="61.4037" height="74.3888" fill="white" transform="translate(0.77832 43.4189) rotate(-45)"/>
</clipPath>
</defs>
</svg>
