<svg width="52" height="76" viewBox="0 0 52 76" fill="none" xmlns="http://www.w3.org/2000/svg">
<g clip-path="url(#clip0_657_658)">
<path d="M46.0744 38.9532L35.1872 41.8922C35.1061 41.9142 35.0251 41.9313 34.9416 41.9411V4.90876C34.9416 3.85405 34.0847 3 33.0264 3H18.9767C17.9184 3 17.0615 3.85405 17.0615 4.90876V41.9411C16.978 41.9289 16.8969 41.9142 16.8159 41.8922L5.9287 38.9532C4.21484 38.4907 2.84473 40.4019 3.84162 41.8677L24.4178 72.1606C25.179 73.279 26.8315 73.279 27.5926 72.1606L48.1688 41.8677C49.1657 40.4019 47.7956 38.4907 46.0818 38.9532H46.0744Z" fill="white" stroke="#334B89" stroke-width="5"/>
</g>
<defs>
<clipPath id="clip0_657_658">
<rect width="51" height="76" fill="white" transform="translate(0.5)"/>
</clipPath>
</defs>
</svg>
