<svg width="212" height="184" viewBox="0 0 212 184" fill="none" xmlns="http://www.w3.org/2000/svg">
<rect x="85.7227" y="88.0488" width="60" height="92.7273" rx="4" fill="#BAE6FD" stroke="#BAE6FD" stroke-width="5" stroke-linejoin="round"/>
<rect x="75.3379" y="77.2812" width="60" height="92.7273" rx="4" stroke="#0EA5E9" stroke-width="5" stroke-linejoin="round"/>
<path d="M75.3379 152.663H135.338" stroke="#0EA5E9" stroke-width="5" stroke-linecap="round"/>
<path d="M97.3379 88.0488H113.338" stroke="#0EA5E9" stroke-width="5" stroke-linecap="round"/>
<circle cx="105.529" cy="118.695" r="12" fill="white"/>
<path d="M99.5293 115.634L105.567 121.695L118.067 109.195" stroke="#0EA5E9" stroke-width="5" stroke-linecap="round" stroke-linejoin="round"/>
<path d="M74.9535 49.6007C74.9535 49.6007 79.6236 53.3746 85.5745 48.8791C86.9022 47.8767 88.6231 45.8319 87.8611 44.3091L85.1875 41.8083C85.1875 41.8083 79.2582 49.714 72.2848 46.5211L74.9546 49.6021L74.9535 49.6007Z" fill="#0284C7"/>
<path d="M79.9195 34.596L77.1804 30.5409C77.1804 30.5409 62.6805 34.9246 72.2852 46.5198L74.955 49.6008C74.955 49.6008 65.4717 40.3043 79.9197 34.5947L79.9195 34.596Z" fill="#38BDF8"/>
<path d="M87.8616 44.3099L84.7336 41.0441C84.7336 41.0441 83.1831 40.4589 81.3995 41.4482C78.1885 43.2279 74.7889 48.2001 80.1043 58.0664L83.3244 59.6127C83.3244 59.6127 79.9812 54.1443 81.7115 49.3268C82.5416 47.0143 85.6281 43.3239 87.8603 44.3097L87.8616 44.3099Z" fill="#38BDF8"/>
<path d="M26.4729 92.652L27.8313 89.5119C31.6117 81.6685 25.7125 75.6541 25.7125 75.6541L21.2683 73.3439C24.1238 78.1778 23.093 84.6696 22.09 88.4559C21.5898 90.3448 23.8224 93.2429 26.4726 92.6511L26.4729 92.652Z" fill="#0891B2"/>
<path d="M36.5349 79.9506C36.5349 79.9506 34.3396 80.0652 33.4467 82.1286C32.5537 84.1921 29.923 93.6413 37.8783 95.6611C37.8783 95.6611 36.1646 86.1487 36.8687 83.5302C37.5729 80.9117 36.534 79.9508 36.534 79.9508L36.5349 79.9506Z" fill="#0891B2"/>
<path d="M22.088 88.4562C22.1584 92.7068 27.0674 90.6541 27.0674 90.6541C32.2735 87.1665 36.5341 79.9501 36.5341 79.9501C38.2096 80.6754 40.6712 83.2105 40.6712 83.2105C40.6712 83.2105 41.3926 84.3203 40.4636 85.8822C39.5746 87.377 37.7608 89.8103 34.8392 92.3402C30.9856 95.8887 26.9611 94.113 26.9611 94.113C26.9611 94.113 20.5748 92.186 22.0868 88.4555L22.088 88.4562Z" fill="#7DD3FC"/>
<path d="M34.5321 93.9237C34.5321 93.9237 41.4679 95.7112 47.3222 88.6447L51.8318 92.962C51.8318 92.962 47.9457 97.96 41.0331 96.9157C41.0331 96.9157 36.4961 95.8402 34.533 93.9234L34.5321 93.9237Z" fill="#7DD3FC"/>
<path d="M195.181 80.0715C191.948 78.7975 188.48 78.1231 185.006 78.0928C183.049 78.0758 181.076 78.2651 179.209 78.8527C177.343 79.4404 175.582 80.4429 174.266 81.891C173.176 83.0901 172.393 84.6605 172.491 86.2776C176.639 83.1315 182.051 81.7024 187.211 82.3906C189.009 82.6306 190.764 83.1131 192.508 83.6094C192.667 83.6547 192.836 83.7001 192.995 83.6574C193.162 83.6127 193.288 83.4799 193.404 83.3517C194.09 82.5938 194.739 81.8036 195.351 80.9845C195.462 80.8353 195.577 80.671 195.576 80.485C195.576 80.2989 195.386 80.1517 195.182 80.0715H195.181Z" fill="#06B6D4"/>
<path d="M182.237 96.5254C183.264 95.3619 184.235 94.3752 185.287 93.0612C186.029 92.1336 185.491 90.6631 184.893 89.6364C184.295 88.6096 183.354 87.8194 182.336 87.2055C180.95 86.3686 179.398 85.825 177.809 85.5147C175.566 85.0769 173.115 85.1315 171.156 86.3075C169.069 87.5598 167.334 89.3162 167.098 91.7379C166.861 94.1596 168.104 97.1368 169.139 99.3389C169.591 100.302 170.085 101.068 170.888 102.021C170.994 102.147 171.162 102.222 171.326 102.237C171.465 102.25 171.602 102.202 171.731 102.152C172.469 101.866 173.166 101.479 173.798 101.003C173.903 100.924 174.013 100.83 174.035 100.701C174.053 100.587 173.997 100.476 173.943 100.374C172.662 97.9861 171.134 95.6295 170.763 92.9448C170.676 92.3124 170.658 91.6525 170.874 91.0516C171.206 90.1261 172.054 89.4681 172.961 89.0888C175.19 88.1566 177.841 88.6878 179.862 90.0124C180.427 90.3825 180.96 90.8183 181.35 91.3698C182.342 92.7706 182.256 94.6395 182.237 96.5261L182.237 96.5254Z" fill="#06B6D4"/>
<path d="M185.287 93.0617C184.398 94.3232 183.728 95.1179 182.751 96.3387C182.369 96.8165 181.832 97.1755 181.254 97.3773C180.406 97.6731 179.468 97.4772 178.622 97.1768C174.697 95.7812 171.723 92.0152 171.277 87.8726C171.198 87.1429 171.193 86.3968 171.368 85.6842C171.827 83.8226 173.323 82.2476 174.868 81.113C175.667 80.5266 176.39 80.1421 177.251 79.6504C175.52 81.3707 175.354 82.5355 175.14 84.0974C174.976 85.2984 175.269 86.2292 175.51 87.417C175.656 88.1296 176.061 89.0026 176.409 89.6402C176.821 90.3922 177.427 91.022 178.089 91.5656C178.737 92.0967 179.449 92.5562 180.222 92.8797C181.762 93.5232 184.046 93.9216 185.287 93.0617Z" fill="#22D3EE"/>
<path d="M121.211 36.9371C120.866 38.9676 119.188 40.46 117.657 41.838C116.127 43.216 114.54 44.8734 114.487 46.9323C114.482 47.1137 114.493 47.3065 114.598 47.4535C114.686 47.5786 114.829 47.6521 114.965 47.7211C115.72 48.1037 116.474 48.4863 117.23 48.8692C117.701 49.1084 118.186 49.3514 118.712 49.3987C118.841 49.4107 118.976 49.4089 119.091 49.3482C119.334 49.2198 119.378 48.8983 119.421 48.6264C119.642 47.2245 120.585 46.0454 121.616 45.0699C122.647 44.094 123.807 43.2393 124.673 42.1158C125.416 41.1489 125.922 39.9997 126.13 38.7973C126.173 38.5517 126.201 38.2904 126.11 38.0583C126.011 37.8044 125.784 37.6258 125.566 37.4618C124.679 36.7949 123.767 36.1637 122.831 35.5678C122.49 35.3515 122.031 35.1427 121.715 35.3912C121.239 35.7642 121.725 36.5948 121.212 36.9357L121.211 36.9371Z" fill="#3B82F6"/>
<path d="M169.762 59.8643C168.257 59.595 166.688 59.9276 165.306 60.5814C163.924 61.2353 162.709 62.1952 161.575 63.2204C160.522 64.1719 159.515 65.1961 158.304 65.9369C157.093 66.6776 155.618 67.117 154.242 66.7674C154.404 68.0533 154.922 69.293 155.726 70.3106C155.83 70.4429 155.941 70.5733 156.087 70.6583C156.278 70.7708 156.509 70.7934 156.731 70.8029C158.298 70.8728 159.884 70.4533 161.211 69.6171C162.598 68.7431 163.672 67.4562 164.952 66.432C166.927 64.8512 169.409 63.9168 171.936 63.8015C171.377 62.5212 170.731 61.2797 169.763 59.8643H169.762Z" fill="#38BDF8"/>
<path d="M149.979 5.07785C149.251 7.46957 147.163 9.17191 145.076 10.5493C144.972 10.6174 144.861 10.6958 144.831 10.8154C144.795 10.9595 144.89 11.1007 144.981 11.2197C145.495 11.894 146.009 12.5683 146.522 13.2426C146.621 13.3723 146.724 13.5052 146.866 13.5855C147.211 13.7808 147.641 13.5988 147.994 13.4181C149.246 12.7754 150.508 12.1225 151.589 11.2202C152.669 10.3179 153.567 9.13159 153.871 7.75737C153.905 7.60363 153.93 7.44123 153.883 7.29199C153.824 7.11154 153.668 6.9822 153.52 6.86441C152.67 6.19027 151.81 5.53051 150.939 4.88592C150.799 4.78335 150.651 4.67709 150.479 4.65856C150.307 4.64002 150.083 4.73797 149.98 5.07707L149.979 5.07785Z" fill="#22D3EE"/>
<path d="M13.1049 57.6506C12.675 59.8238 12.3906 62.0244 12.2536 64.2353C12.2442 64.3856 12.2376 64.5462 12.3141 64.6756C12.4785 64.9544 12.8867 64.9175 13.2004 64.84C14.886 64.4215 16.5385 63.8697 18.1363 63.1903C18.5955 62.9957 19.1152 62.7018 19.1577 62.2058C19.1879 61.8524 18.9555 61.5359 18.7306 61.2628C17.558 59.838 16.2362 58.5379 14.7925 57.3889C14.5827 57.2217 14.354 57.0516 14.0876 57.0242C13.8202 56.9968 13.5141 57.1754 13.104 57.6516L13.1049 57.6506Z" fill="#22D3EE"/>
<path d="M3.03275 112.316C4.67777 111.548 6.59967 111.667 8.37532 112.045C10.151 112.422 11.881 113.04 13.6859 113.23C15.2607 113.396 16.8706 113.227 18.3764 112.738C18.5063 112.696 18.6422 112.646 18.7249 112.538C18.7994 112.439 18.8167 112.309 18.8276 112.186C18.9585 110.794 18.7821 109.375 18.3146 108.057C15.7708 108.895 13.0365 107.935 10.3979 107.473C7.56478 106.976 4.62943 107.068 1.83215 107.741C1.74089 107.763 1.64287 107.79 1.58662 107.864C1.5364 107.93 1.53003 108.018 1.52655 108.1C1.455 109.666 1.67353 111.245 2.16931 112.733C2.39308 112.655 2.58831 112.525 3.03275 112.316Z" fill="#38BDF8"/>
<path d="M108.04 0.435309C106.746 1.65228 105.598 3.01571 104.528 4.43299C104.071 5.0377 103.614 5.85311 104.006 6.50128C104.253 6.90946 104.75 7.07764 105.209 7.2052C106.814 7.65212 108.454 7.97526 110.11 8.17273C110.247 8.18879 110.391 8.20391 110.519 8.15195C110.65 8.09903 110.746 7.98187 110.817 7.85998C111.193 7.22788 111.07 6.42853 110.913 5.71044C110.584 4.20056 110.159 2.71147 109.641 1.25544C109.539 0.968208 109.425 0.669634 109.192 0.473104C108.96 0.276574 108.455 0.0450841 108.041 0.436254L108.04 0.435309Z" fill="#06B6D4"/>
<path d="M143.565 37.7876C142.799 38.6946 142.211 39.8502 142.356 41.0275C142.474 41.9808 143.082 42.8416 143.894 43.3537C144.707 43.8658 145.706 44.0454 146.661 43.9452C147.108 43.898 147.557 43.7893 147.936 43.5474C148.365 43.2734 148.675 42.8463 148.904 42.3919C149.576 41.0539 149.531 39.2965 148.537 38.1769C148.224 37.8235 147.833 37.5457 147.414 37.3274C146.843 37.0298 146.205 36.8371 145.562 36.8711C144.92 36.9051 144.166 37.077 143.566 37.7885L143.565 37.7876Z" fill="#38BDF8"/>
<path d="M208.17 102.647C205.874 102.681 203.94 104.277 201.81 105.139C199.695 105.996 197.33 106.126 195.079 105.759C194.967 105.74 194.84 105.725 194.754 105.797C194.672 105.865 194.66 105.984 194.655 106.091C194.613 107.05 194.687 108.014 194.876 108.955C194.981 109.475 195.127 110.002 195.446 110.426C195.872 110.993 196.56 111.31 197.252 111.47C199.04 111.886 200.922 111.393 202.6 110.646C204.277 109.899 205.837 108.898 207.541 108.216C208.214 107.947 208.912 107.728 209.632 107.654C209.784 107.638 209.962 107.612 210.031 107.477C210.078 107.387 210.056 107.277 210.032 107.177C209.665 105.641 209.084 104.155 208.169 102.649L208.17 102.647Z" fill="#3B82F6"/>
<path d="M184.669 36.5693C183.613 38.3844 182.757 40.3157 182.121 42.3169C182.046 42.5521 181.995 42.8564 182.192 43.0038C182.302 43.086 182.453 43.0841 182.59 43.0784C184.399 43.001 186.208 42.9244 188.017 42.8469C188.427 42.829 188.898 42.7808 189.135 42.4454C189.451 41.9975 189.138 41.389 188.827 40.9374C187.88 39.5588 186.932 38.1803 185.986 36.8018C185.848 36.6014 185.695 36.3889 185.463 36.3133C185.232 36.2377 184.822 36.3048 184.668 36.5693H184.669Z" fill="#38BDF8"/>
<path d="M201.885 59.7017C201.869 61.3628 201.884 63.0238 201.93 64.6849C201.936 64.9428 201.954 65.2263 202.134 65.4115C202.341 65.6269 202.679 65.6269 202.977 65.6127C204.433 65.5419 205.888 65.471 207.344 65.4001C207.484 65.3935 207.627 65.386 207.759 65.3378C208.276 65.1497 208.386 64.4789 208.397 63.9299C208.424 62.6308 208.371 61.3287 208.235 60.0362C208.205 59.7471 208.16 59.4353 207.952 59.2321C207.747 59.0309 207.437 58.9912 207.151 58.9657C205.657 58.8324 204.154 58.8183 202.658 58.9213C202.477 58.9335 202.289 58.9505 202.133 59.0431C201.977 59.1357 201.89 59.3285 201.886 59.7026L201.885 59.7017Z" fill="#06B6D4"/>
<path d="M49.6648 52.1532C49.2368 52.946 48.7946 53.8067 48.9089 54.7006C48.9628 55.1191 49.1366 55.5131 49.3492 55.8769C49.7394 56.5459 50.2969 57.1553 51.0263 57.4151C51.615 57.6249 52.2641 57.5899 52.8783 57.4756C53.4886 57.3613 54.0933 57.1666 54.6054 56.8151C55.6353 56.1074 56.1749 54.7648 55.9575 53.5346C55.7402 52.3034 54.7963 51.2386 53.6124 50.8389C52.4285 50.4393 50.6182 50.3863 49.6639 52.1532H49.6648Z" fill="#06B6D4"/>
<path d="M29.6346 25.7209C29.9709 24.0455 30.3073 22.3701 30.6427 20.695C32.3536 20.1557 34.2438 20.2021 35.9263 20.8257C37.6088 21.4494 39.0726 22.6453 40.0196 24.17C40.0828 24.2725 40.1469 24.3873 40.1316 24.506C40.1166 24.6193 40.0345 24.7104 39.9565 24.793C38.7601 26.0603 37.5629 27.328 36.3664 28.5954C34.8977 26.6097 32.3143 25.5096 29.6346 25.7209Z" fill="#3B82F6"/>
<path d="M72.3907 8.47958C71.8994 11.5882 69.9416 14.4331 67.2129 16.0025C68.547 17.2658 69.9615 18.4431 71.4458 19.5259C71.5743 19.6194 71.7142 19.7167 71.8739 19.7215C72.0269 19.7262 72.1677 19.644 72.2972 19.5618C75.9131 17.2715 77.9294 12.6993 77.1811 8.48525C75.7449 8.47202 74.3088 8.45879 72.3907 8.47958Z" fill="#7DD3FC"/>
</svg>
