<?xml version="1.0" encoding="UTF-8"?>
<svg id="_레이어_1" data-name="레이어 1" xmlns="http://www.w3.org/2000/svg" viewBox="0 0 700.81 148.47">
  <defs>
    <style>
      .cls-1 {
        fill: #1d90d0;
        stroke-width: 0px;
      }
    </style>
  </defs>
  <rect class="cls-1" x="19.03" y="16.04" width="16.04" height="16.04"/>
  <rect class="cls-1" x="2.99" width="16.04" height="16.04"/>
  <rect class="cls-1" x="2.99" y="32.08" width="16.04" height="16.04"/>
  <path class="cls-1" d="M588.79,59.44c0-3.28-1.04-5.99-3.13-8.11-2.09-2.12-5.01-3.18-8.77-3.18-1.92,0-3.64.31-5.18.93-1.54.61-2.82,1.44-3.85,2.46-1.09,1.03-1.93,2.22-2.52,3.59-.58,1.37-.87,2.81-.87,4.31,0,3.22,1.01,5.87,3.03,7.95,2.02,2.09,5.15,3.13,9.39,3.13,3.9,0,6.86-1.08,8.88-3.24,2.02-2.15,3.03-4.77,3.03-7.85M563.03,121.43h29.35v-15.39h-29.35v15.39ZM603.16,59.44c0,2.81-.69,5.39-2.05,7.75-1.37,2.36-3.22,4.39-5.54,6.11-2.4,1.71-5.18,3.06-8.37,4.05-3.18.99-6.62,1.49-10.31,1.49-3.9,0-7.47-.48-10.73-1.44-3.25-.96-6.04-2.29-8.36-4-2.4-1.71-4.26-3.75-5.59-6.11-1.34-2.36-2-4.97-2-7.85s.7-5.4,2.1-7.8c1.4-2.39,3.34-4.45,5.8-6.16,2.39-1.71,5.21-3.05,8.46-4,3.25-.96,6.69-1.44,10.31-1.44,3.42,0,6.71.39,9.85,1.18,3.15.79,5.95,1.97,8.41,3.54,2.4,1.64,4.33,3.68,5.8,6.11,1.47,2.43,2.21,5.28,2.21,8.57M548.56,119.89v-22.06h20.63v-6.37h-33.25v-8.21h81.69v8.21h-34.07v6.37h23.19v31.61h-48.13c-2.87,0-5.27-.84-7.18-2.51-1.91-1.68-2.87-4.02-2.87-7.03"/>
  <rect class="cls-1" x="335.36" y="41.17" width="14.27" height="88.26"/>
  <g>
    <path class="cls-1" d="M413.92,81.92v-8.11h-34.69c-.07-.34-.1-.72-.1-1.13v-6.57h24.53v-8.11h-24.53v-6.98h28.63v-8.21h-42.9v29.66c0,2.81.96,5.1,2.87,6.87,1.91,1.71,4.28,2.57,7.08,2.57h39.1Z"/>
    <path class="cls-1" d="M436.6,113.42v-23.6h-61.6v8.11h47.13v7.7h-47.13v14.16c0,3.01.93,5.37,2.77,7.08,1.91,1.71,4.34,2.57,7.28,2.57h51.54v-8h-47.34v-8.01h47.34Z"/>
    <path class="cls-1" d="M472.77,95.16h-7.8v-20.32h7.8v20.32ZM472.77,44.36v22.48h-7.8v-22.48h-14.06v49.47c0,2.94.94,5.25,2.82,6.93,1.88,1.68,4.29,2.51,7.24,2.51h25.96v-58.91h-14.16Z"/>
    <path class="cls-1" d="M644.98,93.62v-17.4h22.68v-8.11h-22.68v-15.96h29.56v-8.21h-43.92v48.34c0,3.01.89,5.3,2.67,6.87,1.85,1.71,4.28,2.56,7.28,2.56h39.2v-8.11h-34.79Z"/>
    <path class="cls-1" d="M323.1,94.54c-2.7-1.91-5.08-4.34-7.13-7.28-2.05-2.94-3.68-6.25-4.87-9.9-1.2-3.66-1.8-7.51-1.8-11.55v-13.75h16.83v-8.21h-48.03v8.21h16.52v13.75c0,4.1-.62,8.02-1.85,11.75-1.23,3.73-2.84,7.03-4.83,9.9-2.05,2.88-4.41,5.25-7.08,7.14-2.67,1.88-5.44,3.03-8.31,3.44l6.98,6.26c2.32-.27,4.68-.94,7.08-2,2.39-1.06,4.65-2.41,6.77-4.05,2.05-1.57,3.85-3.35,5.39-5.34,1.54-1.98,2.62-4,3.23-6.05.54,1.98,1.6,3.99,3.18,6,1.57,2.02,3.42,3.85,5.55,5.49,2.05,1.64,4.29,3.01,6.72,4.1,2.43,1.09,4.77,1.71,7.03,1.84l7.08-6.26c-2.94-.41-5.76-1.57-8.46-3.49"/>
    <path class="cls-1" d="M513.41,41.18v29.05h-6.88v-29.05h-13.65l.1,88.26h13.55v-51.1h6.88v51.1h13.43c0-6.87.01-83.4.01-88.26h-13.44Z"/>
  </g>
  <polygon class="cls-1" points="422.23 40.87 422.23 57.9 410.53 57.9 410.53 66.22 422.23 66.22 422.23 85.2 436.6 85.2 436.6 40.87 422.23 40.87"/>
  <g>
    <path class="cls-1" d="M686.33,41.28s.1,25.34.1,26.84h-14.88v8h14.88v53.31h14.31c0-1.69,0-7.64.01-15.73.01-25.6.04-72.43.04-72.43h-14.47Z"/>
    <path class="cls-1" d="M246.95,41.18v50.09c-1.58.75-3.64,1.33-6.21,1.74-2.56.41-5.28.62-8.16.62h-26.99v-41.77h29.38v-8.11h-43.85v48.54c0,3.08.92,5.43,2.77,7.03,1.85,1.6,4.24,2.41,7.18,2.41h30.58c2.87,0,5.63-.29,8.26-.87,2.63-.58,4.98-1.45,7.03-2.62v31.2h14.27V41.18h-14.27Z"/>
    <path class="cls-1" d="M127.79,65.94c-6.71-18.73-24.36-33.86-55.95-33.86h-36.78v13.01c0,.11.03.21.03.32v77.49c0,.18-.02.34-.03.52v13.98h18.08l14.35,10.7v-74.5l-14.35-10.7,42.07-10.53.1,81.61v.24c1.14-.41,2.26-.87,3.36-1.34t0,0c.68-.26,1.28-.58,1.94-.86,4.88-2.08,9.17-4.66,12.81-7.71,12.1-10.11,17.56-24.83,17.56-39.66,0-6.36-1.05-12.73-3.2-18.73"/>
  </g>
</svg>