<svg width="40" height="18" viewBox="0 0 40 18" fill="none" xmlns="http://www.w3.org/2000/svg">
<g clip-path="url(#clip0_491_1710)">
<path d="M9.79641 14.3518L6.54541 10.25L11.2645 4.28032H8.69103C7.53353 4.28032 6.74304 4.64408 6.04159 5.48541L3.55502 8.62759V0H1.06195C0.475596 0 0 0.486501 0 1.09351V17.1949H2.49308C3.0816 17.1949 3.55502 16.7062 3.55502 16.1014V11.8189L5.57685 14.3652L7.29247 16.5388C7.63994 16.9874 8.09599 17.1971 8.56072 17.1971H12.0419L9.79423 14.3563L9.79641 14.3518Z" fill="#221E1F"/>
<path d="M16.1883 17.1927C14.2707 17.1927 12.9395 15.8314 12.9395 13.8564V1.09128C12.9395 0.486501 13.4172 0 14.0057 0H16.501V13.1712C16.501 13.7135 16.9288 14.1532 17.4544 14.1532H19.9952V16.1014C19.9952 16.704 19.5196 17.1949 18.9289 17.1949H16.1883V17.1927Z" fill="#221E1F"/>
<path d="M3.89302 8.18812L3.89736 8.18142C3.89736 8.18142 3.89302 8.18588 3.88867 8.18812H3.89084H3.89302ZM20.5063 3.33203L20.2891 3.56859C20.2761 3.57305 19.6116 4.27379 17.6918 4.27379H8.62509C7.19395 4.27379 6.51856 4.87411 6.00388 5.52129L5.71722 5.88282C5.71722 5.88282 5.70202 5.89844 5.69767 5.90736L3.89736 8.18142C4.55103 7.67484 5.4501 7.37133 6.36438 7.37133H17.6896C19.0665 7.37133 20.3847 6.95178 20.4933 5.89621C20.5063 5.8114 20.5063 5.75784 20.5063 5.75784V3.33203Z" fill="#ED1B23"/>
<path d="M24.9121 12.0757C24.9121 8.5965 26.8449 7.02988 29.7506 7.02988C30.4933 7.02988 31.4988 6.99194 31.9071 6.81787V8.50054C31.9071 8.92232 31.1448 9.05622 29.9178 9.05622C27.8895 9.05622 27.1446 10.0872 27.1446 12.0957C27.1446 14.2738 27.8895 15.3651 29.414 15.3651C30.5498 15.3651 31.4597 15.2111 32.2806 14.8117V16.3805C32.2806 16.6863 32.1112 16.8581 31.8897 16.9741C31.4771 17.2219 30.1958 17.3937 29.49 17.3937C26.0457 17.3937 24.9121 15.3852 24.9121 12.0779V12.0757Z" fill="#ED1B23"/>
<path d="M33.8987 16.876C33.7141 16.7421 33.5078 16.5122 33.5078 16.2265L33.5274 14.7938C34.307 15.1955 35.3125 15.4053 36.281 15.4053C37.3604 15.4053 37.7708 14.9478 37.7708 14.3743C37.7708 13.8007 37.545 13.437 36.8218 13.1692L35.8728 12.8233C34.4959 12.3278 33.5664 11.5244 33.5664 9.85962C33.5664 7.77525 34.9998 7.02988 37.2127 7.02988C38.0879 7.02988 38.9261 6.99194 39.3322 6.81787V8.50054C39.3322 8.90224 38.4397 9.01829 37.3061 9.01829C36.3006 9.01829 35.7989 9.24815 35.7989 9.89756C35.7989 10.3171 35.9661 10.6429 36.6155 10.8728L37.5471 11.1986C38.924 11.6784 40.0033 12.5376 40.0033 14.2761C40.0033 16.2466 38.9044 17.3915 36.1703 17.3915C35.4254 17.3915 34.3852 17.1817 33.9009 16.876H33.8987Z" fill="#ED1B23"/>
</g>
<defs>
<clipPath id="clip0_491_1710">
<rect width="40" height="17.3913" fill="white"/>
</clipPath>
</defs>
</svg>
