<svg width="800" height="400" viewBox="0 0 800 400" fill="none" xmlns="http://www.w3.org/2000/svg">
<rect x="0.5" y="0.5" width="799" height="399" fill="white"/>
<rect x="0.5" y="0.5" width="799" height="399" stroke="black"/>
<g filter="url(#filter0_d_179_581)">
<rect x="75" y="72.9854" width="442.588" height="131.58" rx="5.95392" transform="rotate(-3 75 72.9854)" fill="#0EA5E9" shape-rendering="crispEdges"/>
<path d="M174.92 139.419C166.043 137.952 158.158 132.213 152.921 126.478C147.955 132.748 140.759 138.777 133.797 141.073C132.46 141.501 130.83 141.801 129.317 141.594C127.657 141.324 126.039 140.478 125.28 138.3C124.031 134.931 125.759 132.408 129.184 130.87C137.228 127.371 146.599 120.513 146.431 113.224L146.286 110.441C146.028 105.518 148.886 104.081 151.882 103.924C154.879 103.767 157.872 104.898 158.13 109.821L158.275 112.603C158.863 119.727 167.593 126.567 176.068 128.556C179.763 129.435 181.951 131.61 181.35 135.147C181.019 137.025 180.012 138.294 178.262 139.029C177.211 139.442 176.076 139.645 174.92 139.419ZM179.428 162.65L129.841 165.248C124.632 165.521 123.225 163.234 123.094 160.737C122.94 157.811 124.116 155.675 129.325 155.402L178.912 152.803C184.121 152.53 185.514 154.532 185.667 157.457C185.798 159.955 184.637 162.377 179.428 162.65ZM217.637 159.717L199.229 160.682C194.02 160.955 193.337 158.844 193.188 155.99L190.66 107.758C190.507 104.833 190.943 102.234 196.151 101.961L214.559 100.997C219.768 100.724 220.473 103.262 220.627 106.188L223.154 154.42C223.304 157.274 222.845 159.444 217.637 159.717ZM204.207 150.548L211.627 150.159L209.582 111.131L202.161 111.52L204.207 150.548ZM239.206 160.375C235.996 160.543 233.349 159.18 233.098 154.399L230.544 105.668C230.294 100.888 232.93 99.3184 235.998 99.1576C238.995 99.0006 241.845 100.139 242.103 105.062L243 122.186L247.495 121.95C252.704 121.677 254.111 123.965 254.242 126.462C254.396 129.387 253.22 131.524 248.011 131.797L243.516 132.032L244.657 153.794C244.915 158.717 242.274 160.214 239.206 160.375ZM309.988 135.989L268.82 138.147C263.54 138.423 262.917 136.095 262.76 133.098L261.246 104.202C261.003 99.5643 263.519 98.4308 266.73 98.2625L307.185 96.1424C311.751 95.9031 312.731 98.2127 312.865 100.781C312.985 103.064 312.192 105.682 307.697 105.917L273.021 107.734L273.294 112.943L307.97 111.126C312.536 110.886 313.516 113.196 313.65 115.765C313.77 118.048 312.977 120.665 308.482 120.901L273.806 122.718L274.087 128.069L309.476 126.214C314.328 125.96 315.052 128.855 315.153 130.782C315.287 133.35 314.626 135.746 309.988 135.989ZM315.02 155.543L265.432 158.142C260.223 158.415 258.816 156.128 258.685 153.631C258.532 150.705 259.707 148.569 264.916 148.296L314.504 145.697C319.712 145.424 321.105 147.426 321.258 150.351C321.389 152.849 320.228 155.271 315.02 155.543ZM382.951 132.738L331.08 135.456C326.3 135.707 325.557 133.814 325.418 131.174C325.31 129.105 325.825 126.645 330.605 126.395L350.654 125.344L350.378 120.064L335.394 120.849C330.186 121.122 328.801 119.263 328.67 116.766C328.516 113.841 329.715 112.132 334.923 111.859L337.991 111.699L337.569 103.636L334.857 103.778C329.649 104.051 328.264 102.192 328.133 99.695C327.98 96.7696 329.178 95.0613 334.386 94.7883L375.412 92.6383C380.621 92.3653 381.991 93.939 382.144 96.8643C382.275 99.3616 381.092 101.355 375.883 101.628L373.172 101.77L373.594 109.833L376.662 109.672C381.871 109.399 383.241 110.973 383.395 113.898C383.525 116.395 382.342 118.389 377.134 118.662L361.936 119.458L362.213 124.738L382.476 123.676C387.256 123.426 388.026 125.818 388.134 127.887C388.273 130.527 387.731 132.487 382.951 132.738ZM379.901 153.717L338.09 155.908C332.882 156.181 332.199 154.071 332.049 151.217L331.675 144.082C331.425 139.302 334.069 137.875 337.137 137.714C340.205 137.554 342.991 138.838 343.234 143.476L343.391 146.473L379.422 144.584C384.06 144.341 384.968 146.655 385.08 148.795C385.215 151.364 384.539 153.474 379.901 153.717ZM349.55 111.093L362.036 110.439L361.613 102.376L349.127 103.03L349.55 111.093ZM469.237 149.178L426 151.444C420.791 151.717 420.108 149.607 419.959 146.753L419.08 129.986C418.83 125.205 421.109 123.655 424.177 123.494C427.031 123.345 429.817 124.629 430.26 128.971L462.652 127.273C462.631 122.767 465.203 121.344 468.128 121.191C471.196 121.03 473.63 122.405 473.876 127.114L474.755 143.881C474.905 146.735 474.446 148.905 469.237 149.178ZM430.944 142.027L463.336 140.33L463.131 136.406L430.738 138.103L430.944 142.027ZM428.466 120.694C418.478 121.217 413.762 117.243 413.167 105.899C412.573 94.5542 416.84 89.9663 426.829 89.4428C436.817 88.9193 441.541 93.0361 442.135 104.381C442.763 116.367 438.455 120.17 428.466 120.694ZM427.973 111.276C431.398 111.096 431.965 109.636 431.718 104.926C431.475 100.289 430.751 98.7528 427.326 98.9323C423.901 99.1117 423.341 100.715 423.584 105.353C423.831 110.062 424.548 111.455 427.973 111.276ZM468.523 119.167C465.455 119.328 463.386 118.077 463.128 113.154L462.844 107.731L456.922 108.041L457.203 113.393C457.461 118.316 455.677 119.769 452.609 119.929C449.541 120.09 447.472 118.839 447.214 113.916L446.189 94.3664C445.939 89.586 447.79 88.0581 450.858 87.8973C453.784 87.744 455.928 89.0625 456.178 93.8429L456.414 98.3379L462.336 98.0276L462.1 93.5326C461.85 88.7522 463.701 87.2242 466.769 87.0634C469.694 86.9101 471.838 88.2287 472.089 93.0091L473.117 112.63C473.375 117.553 471.591 119.006 468.523 119.167Z" fill="white"/>
</g>
<rect x="351.621" y="186.433" width="374.805" height="131.58" rx="5.95392" transform="rotate(5 351.621 186.433)" fill="#BAE6FD"/>
<mask id="path-5-outside-1_179_581" maskUnits="userSpaceOnUse" x="377.389" y="216.661" width="308.471" height="102.119" fill="black">
<rect fill="white" x="377.389" y="216.661" width="308.471" height="102.119"/>
<path d="M390.401 284.765C388.758 284.693 386.951 284.033 385.98 282.012C384.327 278.783 385.909 276.268 389.033 274.175C391.395 272.588 393.182 271.023 394.405 269.337C396.91 266.114 398.004 262.624 398.328 258.923L399.231 248.602L394.889 248.222C389.409 247.743 388.624 245.236 388.824 242.958C389.073 240.111 390.315 238.212 395.724 238.685L414.372 240.316C419.781 240.79 420.674 242.876 420.425 245.723C420.226 248 419.018 250.333 413.537 249.854L410.619 249.598L410.221 254.154C409.536 261.983 408.285 268.902 416.265 276.055C419.127 278.6 420.1 281.411 417.911 284.303C416.7 285.847 415.137 286.499 413.422 286.421C412.354 286.327 411.228 286.085 410.229 285.209C406.984 282.128 404.625 278.766 402.912 275.389C400.865 278.294 398.242 281.22 394.79 283.787C393.642 284.619 391.902 284.825 390.401 284.765ZM426.375 289.204C423.67 288.967 421.446 287.338 421.87 282.498L423.258 266.626L418.49 266.209C413.294 265.754 412.478 263.603 412.733 260.685C412.957 258.123 414.224 255.938 419.349 256.387L424.118 256.804L426.123 233.885C426.54 229.117 429.084 227.905 431.718 228.135C434.28 228.36 436.576 229.995 436.158 234.763L431.905 283.376C431.482 288.216 429.009 289.434 426.375 289.204ZM410.998 235.431L399.895 234.46C394.414 233.98 393.629 231.473 393.829 229.195C394.078 226.348 395.32 224.449 400.729 224.922L411.832 225.894C417.242 226.367 418.135 228.453 417.886 231.3C417.687 233.578 416.479 235.911 410.998 235.431ZM441.393 290.518C438.688 290.281 436.464 288.652 436.888 283.812L441.141 235.199C441.558 230.431 444.102 229.219 446.736 229.449C449.298 229.673 451.594 231.309 451.176 236.077L446.923 284.69C446.5 289.53 444.027 290.748 441.393 290.518ZM505.183 296.887L464.47 293.325C459.275 292.871 458.892 290.686 459.141 287.839L460.187 275.881C460.505 272.251 462.295 269.826 467.206 270.256L507.918 273.818C513.114 274.272 513.497 276.457 513.247 279.304L512.201 291.262C511.784 296.03 508.884 297.211 505.183 296.887ZM471.064 284.364L500.957 286.979L501.325 282.78L471.431 280.164L471.064 284.364ZM473.976 267.477C463.37 266.549 459.047 261.868 459.75 253.825C459.906 252.046 460.399 250.511 461.306 249.156C457.416 248.529 456.752 247.108 456.932 245.044C457.188 242.126 458.575 241.028 463.771 241.482L488.54 243.649C493.735 244.104 494.911 245.426 494.655 248.344C494.475 250.408 493.502 251.686 489.563 251.628C490.215 253.191 490.505 254.795 490.356 256.503C489.602 265.115 484.581 268.405 473.976 267.477ZM474.648 259.79C478.207 260.102 479.084 257.453 479.252 255.531C479.42 253.61 479.016 250.849 475.458 250.538C472.112 250.245 471.022 252.875 470.854 254.797C470.685 256.718 471.303 259.498 474.648 259.79ZM483.649 239.707L469.271 238.449C466.638 238.219 464.89 237.707 464.169 236.927C463.371 236.212 463.025 235.249 463.131 234.039C463.374 231.263 464.618 230.153 469.956 230.62L484.334 231.878C489.672 232.345 490.705 233.655 490.462 236.43C490.356 237.64 489.848 238.528 489.009 239.1C488.093 239.737 486.282 239.938 483.649 239.707ZM508.13 271.398C504.927 271.118 502.495 269.399 502.913 264.63L503.212 261.214L499.226 260.865C493.816 260.392 493.239 257.974 493.482 255.198C493.681 252.921 494.701 250.285 500.11 250.758L504.096 251.107L504.999 240.786C505.416 236.017 508.245 234.831 511.306 235.098C514.295 235.36 516.959 236.884 516.529 241.795L514.443 265.639C514.013 270.55 511.19 271.665 508.13 271.398ZM591.732 304.459C588.671 304.192 586.091 302.532 586.508 297.763L586.801 294.418L551.142 291.298C545.662 290.818 544.877 288.311 545.076 286.034C545.325 283.187 546.567 281.287 551.977 281.76L593.4 285.384C598.596 285.839 598.979 288.024 598.73 290.871L598.039 298.772C597.609 303.683 594.721 304.721 591.732 304.459ZM562.552 279.745C552.018 278.823 547.474 275.844 548.171 267.872C548.881 259.758 554.016 257.626 564.408 258.535C574.799 259.444 579.493 262.365 578.777 270.55C578.029 279.091 573.157 280.673 562.552 279.745ZM563.212 272.2C566.842 272.518 567.505 271.5 567.673 269.579C567.841 267.657 567.365 266.539 563.735 266.222C560.248 265.917 559.443 266.922 559.275 268.844C559.106 270.765 559.725 271.895 563.212 272.2ZM576.236 257.777L552.891 255.734C550.257 255.504 548.509 254.992 547.782 254.283C546.984 253.568 546.638 252.605 546.744 251.395C546.999 248.477 548.386 247.379 553.582 247.834L576.928 249.876C582.123 250.331 583.299 251.653 583.043 254.571C582.937 255.781 582.429 256.669 581.59 257.241C580.68 257.807 578.87 258.007 576.236 257.777ZM572.643 247.206L558.265 245.948C555.632 245.718 553.884 245.207 553.157 244.497C552.359 243.782 552.006 242.891 552.112 241.681C552.355 238.905 553.587 237.937 558.925 238.404L573.303 239.662C578.641 240.129 579.686 241.296 579.443 244.072C579.338 245.282 578.836 246.099 577.997 246.671C577.087 247.237 575.276 247.437 572.643 247.206ZM593.631 282.751C590.428 282.471 587.996 280.752 588.414 275.983L590.836 248.296C591.253 243.527 594.082 242.34 597.143 242.608C600.132 242.87 602.796 244.394 602.366 249.305L601.488 259.34L605.972 259.733C611.168 260.187 612.244 262.648 612.026 265.139C611.771 268.058 610.309 270.01 605.113 269.555L600.629 269.163L599.944 276.992C599.514 281.903 596.691 283.019 593.631 282.751ZM663.555 310.815L621.491 307.135C616.295 306.68 615.912 304.495 616.161 301.648L617.376 287.769C617.793 283 620.266 281.782 623.327 282.05C626.245 282.305 628.76 283.888 628.594 288.248L659.84 290.982C660.433 286.659 663.185 285.537 666.103 285.792C669.163 286.06 671.381 287.76 670.97 292.458L669.756 306.337C669.507 309.184 668.751 311.269 663.555 310.815ZM627.628 299.28L658.874 302.014L659.148 298.882L627.902 296.149L627.628 299.28ZM670.179 284.284L618.435 279.757C613.88 279.359 613.194 277.362 613.43 274.658C613.624 272.451 614.612 270.171 619.238 270.576L670.983 275.103C675.609 275.507 676.187 277.925 675.993 280.131C675.757 282.836 674.735 284.683 670.179 284.284ZM624.547 268.1C621.681 268.064 618.776 267.666 618.53 263.915C618.349 260.242 620.389 259.058 624.134 258.883C632.691 258.628 640.933 257.054 641.506 250.506L641.581 249.652C641.817 246.947 644.792 246.562 647.781 246.823C650.77 247.085 653.633 247.981 653.396 250.685L653.315 251.611C652.755 258.016 661 261.32 668.903 262.8C672.561 263.622 674.364 265.143 673.548 268.729C672.655 272.38 669.725 272.267 666.896 271.805C659.052 270.473 651.342 266.786 646.359 262.262C640.666 265.852 632.504 268.15 624.547 268.1Z"/>
</mask>
<path d="M390.401 284.765C388.758 284.693 386.951 284.033 385.98 282.012C384.327 278.783 385.909 276.268 389.033 274.175C391.395 272.588 393.182 271.023 394.405 269.337C396.91 266.114 398.004 262.624 398.328 258.923L399.231 248.602L394.889 248.222C389.409 247.743 388.624 245.236 388.824 242.958C389.073 240.111 390.315 238.212 395.724 238.685L414.372 240.316C419.781 240.79 420.674 242.876 420.425 245.723C420.226 248 419.018 250.333 413.537 249.854L410.619 249.598L410.221 254.154C409.536 261.983 408.285 268.902 416.265 276.055C419.127 278.6 420.1 281.411 417.911 284.303C416.7 285.847 415.137 286.499 413.422 286.421C412.354 286.327 411.228 286.085 410.229 285.209C406.984 282.128 404.625 278.766 402.912 275.389C400.865 278.294 398.242 281.22 394.79 283.787C393.642 284.619 391.902 284.825 390.401 284.765ZM426.375 289.204C423.67 288.967 421.446 287.338 421.87 282.498L423.258 266.626L418.49 266.209C413.294 265.754 412.478 263.603 412.733 260.685C412.957 258.123 414.224 255.938 419.349 256.387L424.118 256.804L426.123 233.885C426.54 229.117 429.084 227.905 431.718 228.135C434.28 228.36 436.576 229.995 436.158 234.763L431.905 283.376C431.482 288.216 429.009 289.434 426.375 289.204ZM410.998 235.431L399.895 234.46C394.414 233.98 393.629 231.473 393.829 229.195C394.078 226.348 395.32 224.449 400.729 224.922L411.832 225.894C417.242 226.367 418.135 228.453 417.886 231.3C417.687 233.578 416.479 235.911 410.998 235.431ZM441.393 290.518C438.688 290.281 436.464 288.652 436.888 283.812L441.141 235.199C441.558 230.431 444.102 229.219 446.736 229.449C449.298 229.673 451.594 231.309 451.176 236.077L446.923 284.69C446.5 289.53 444.027 290.748 441.393 290.518ZM505.183 296.887L464.47 293.325C459.275 292.871 458.892 290.686 459.141 287.839L460.187 275.881C460.505 272.251 462.295 269.826 467.206 270.256L507.918 273.818C513.114 274.272 513.497 276.457 513.247 279.304L512.201 291.262C511.784 296.03 508.884 297.211 505.183 296.887ZM471.064 284.364L500.957 286.979L501.325 282.78L471.431 280.164L471.064 284.364ZM473.976 267.477C463.37 266.549 459.047 261.868 459.75 253.825C459.906 252.046 460.399 250.511 461.306 249.156C457.416 248.529 456.752 247.108 456.932 245.044C457.188 242.126 458.575 241.028 463.771 241.482L488.54 243.649C493.735 244.104 494.911 245.426 494.655 248.344C494.475 250.408 493.502 251.686 489.563 251.628C490.215 253.191 490.505 254.795 490.356 256.503C489.602 265.115 484.581 268.405 473.976 267.477ZM474.648 259.79C478.207 260.102 479.084 257.453 479.252 255.531C479.42 253.61 479.016 250.849 475.458 250.538C472.112 250.245 471.022 252.875 470.854 254.797C470.685 256.718 471.303 259.498 474.648 259.79ZM483.649 239.707L469.271 238.449C466.638 238.219 464.89 237.707 464.169 236.927C463.371 236.212 463.025 235.249 463.131 234.039C463.374 231.263 464.618 230.153 469.956 230.62L484.334 231.878C489.672 232.345 490.705 233.655 490.462 236.43C490.356 237.64 489.848 238.528 489.009 239.1C488.093 239.737 486.282 239.938 483.649 239.707ZM508.13 271.398C504.927 271.118 502.495 269.399 502.913 264.63L503.212 261.214L499.226 260.865C493.816 260.392 493.239 257.974 493.482 255.198C493.681 252.921 494.701 250.285 500.11 250.758L504.096 251.107L504.999 240.786C505.416 236.017 508.245 234.831 511.306 235.098C514.295 235.36 516.959 236.884 516.529 241.795L514.443 265.639C514.013 270.55 511.19 271.665 508.13 271.398ZM591.732 304.459C588.671 304.192 586.091 302.532 586.508 297.763L586.801 294.418L551.142 291.298C545.662 290.818 544.877 288.311 545.076 286.034C545.325 283.187 546.567 281.287 551.977 281.76L593.4 285.384C598.596 285.839 598.979 288.024 598.73 290.871L598.039 298.772C597.609 303.683 594.721 304.721 591.732 304.459ZM562.552 279.745C552.018 278.823 547.474 275.844 548.171 267.872C548.881 259.758 554.016 257.626 564.408 258.535C574.799 259.444 579.493 262.365 578.777 270.55C578.029 279.091 573.157 280.673 562.552 279.745ZM563.212 272.2C566.842 272.518 567.505 271.5 567.673 269.579C567.841 267.657 567.365 266.539 563.735 266.222C560.248 265.917 559.443 266.922 559.275 268.844C559.106 270.765 559.725 271.895 563.212 272.2ZM576.236 257.777L552.891 255.734C550.257 255.504 548.509 254.992 547.782 254.283C546.984 253.568 546.638 252.605 546.744 251.395C546.999 248.477 548.386 247.379 553.582 247.834L576.928 249.876C582.123 250.331 583.299 251.653 583.043 254.571C582.937 255.781 582.429 256.669 581.59 257.241C580.68 257.807 578.87 258.007 576.236 257.777ZM572.643 247.206L558.265 245.948C555.632 245.718 553.884 245.207 553.157 244.497C552.359 243.782 552.006 242.891 552.112 241.681C552.355 238.905 553.587 237.937 558.925 238.404L573.303 239.662C578.641 240.129 579.686 241.296 579.443 244.072C579.338 245.282 578.836 246.099 577.997 246.671C577.087 247.237 575.276 247.437 572.643 247.206ZM593.631 282.751C590.428 282.471 587.996 280.752 588.414 275.983L590.836 248.296C591.253 243.527 594.082 242.34 597.143 242.608C600.132 242.87 602.796 244.394 602.366 249.305L601.488 259.34L605.972 259.733C611.168 260.187 612.244 262.648 612.026 265.139C611.771 268.058 610.309 270.01 605.113 269.555L600.629 269.163L599.944 276.992C599.514 281.903 596.691 283.019 593.631 282.751ZM663.555 310.815L621.491 307.135C616.295 306.68 615.912 304.495 616.161 301.648L617.376 287.769C617.793 283 620.266 281.782 623.327 282.05C626.245 282.305 628.76 283.888 628.594 288.248L659.84 290.982C660.433 286.659 663.185 285.537 666.103 285.792C669.163 286.06 671.381 287.76 670.97 292.458L669.756 306.337C669.507 309.184 668.751 311.269 663.555 310.815ZM627.628 299.28L658.874 302.014L659.148 298.882L627.902 296.149L627.628 299.28ZM670.179 284.284L618.435 279.757C613.88 279.359 613.194 277.362 613.43 274.658C613.624 272.451 614.612 270.171 619.238 270.576L670.983 275.103C675.609 275.507 676.187 277.925 675.993 280.131C675.757 282.836 674.735 284.683 670.179 284.284ZM624.547 268.1C621.681 268.064 618.776 267.666 618.53 263.915C618.349 260.242 620.389 259.058 624.134 258.883C632.691 258.628 640.933 257.054 641.506 250.506L641.581 249.652C641.817 246.947 644.792 246.562 647.781 246.823C650.77 247.085 653.633 247.981 653.396 250.685L653.315 251.611C652.755 258.016 661 261.32 668.903 262.8C672.561 263.622 674.364 265.143 673.548 268.729C672.655 272.38 669.725 272.267 666.896 271.805C659.052 270.473 651.342 266.786 646.359 262.262C640.666 265.852 632.504 268.15 624.547 268.1Z" fill="#0284C7"/>
<path d="M390.401 284.765L390.141 290.714L390.153 290.714L390.165 290.715L390.401 284.765ZM385.98 282.012L391.348 279.435L391.314 279.365L391.28 279.297L385.98 282.012ZM389.033 274.175L392.348 279.12L392.352 279.117L389.033 274.175ZM394.405 269.337L389.704 265.683L389.644 265.761L389.586 265.841L394.405 269.337ZM399.231 248.602L405.162 249.121L405.681 243.19L399.75 242.671L399.231 248.602ZM410.619 249.598L411.138 243.667L405.207 243.148L404.688 249.08L410.619 249.598ZM416.265 276.055L412.292 280.489L412.3 280.496L412.308 280.504L416.265 276.055ZM417.911 284.303L422.595 287.978L422.627 287.938L422.658 287.897L417.911 284.303ZM413.422 286.421L412.903 292.352L413.027 292.363L413.151 292.369L413.422 286.421ZM410.229 285.209L406.129 289.527L406.215 289.608L406.303 289.685L410.229 285.209ZM402.912 275.389L408.222 272.696L403.746 263.87L398.045 271.959L402.912 275.389ZM394.79 283.787L398.283 288.609L398.313 288.587L398.343 288.565L394.79 283.787ZM423.258 266.626L429.19 267.145L429.708 261.214L423.777 260.695L423.258 266.626ZM424.118 256.804L423.599 262.735L429.53 263.254L430.049 257.323L424.118 256.804ZM390.662 278.817C390.507 278.81 390.589 278.783 390.801 278.899C390.916 278.962 391.042 279.054 391.156 279.173C391.271 279.294 391.329 279.395 391.348 279.435L380.613 284.589C382.84 289.227 387.114 290.581 390.141 290.714L390.662 278.817ZM391.28 279.297C391.188 279.118 391.255 279.176 391.267 279.428C391.28 279.7 391.218 279.947 391.149 280.101C391.095 280.221 391.088 280.171 391.284 279.968C391.482 279.764 391.818 279.476 392.348 279.12L385.718 269.229C383.752 270.547 381.52 272.468 380.281 275.234C378.884 278.354 379.125 281.688 380.681 284.726L391.28 279.297ZM392.352 279.117C395.018 277.327 397.431 275.305 399.224 272.834L389.586 265.841C388.932 266.741 387.772 267.849 385.713 269.232L392.352 279.117ZM399.106 272.991C402.448 268.691 403.857 264.045 404.259 259.441L392.397 258.404C392.152 261.202 391.372 263.537 389.704 265.683L399.106 272.991ZM404.259 259.441L405.162 249.121L393.3 248.083L392.397 258.404L404.259 259.441ZM399.75 242.671L395.408 242.291L394.371 254.154L398.712 254.533L399.75 242.671ZM395.408 242.291C394.45 242.207 393.979 242.057 393.822 241.993C393.692 241.941 393.907 242.003 394.193 242.327C394.49 242.665 394.65 243.043 394.715 243.323C394.769 243.555 394.741 243.639 394.755 243.477L382.892 242.439C382.724 244.361 382.873 247.494 385.26 250.202C387.559 252.81 390.914 253.851 394.371 254.154L395.408 242.291ZM394.755 243.477C394.788 243.093 394.83 243.099 394.749 243.297C394.701 243.412 394.614 243.587 394.467 243.784C394.317 243.985 394.136 244.169 393.936 244.321C393.526 244.632 393.255 244.647 393.437 244.615C393.646 244.578 394.183 244.527 395.205 244.616L396.243 232.754C393.081 232.477 389.553 232.701 386.742 234.832C383.704 237.135 383.067 240.439 382.892 242.439L394.755 243.477ZM395.205 244.616L413.853 246.248L414.891 234.385L396.243 232.754L395.205 244.616ZM413.853 246.248C414.874 246.337 415.395 246.481 415.594 246.554C415.768 246.617 415.504 246.554 415.154 246.177C414.983 245.993 414.837 245.78 414.724 245.556C414.614 245.336 414.558 245.15 414.531 245.027C414.485 244.819 414.528 244.82 414.494 245.204L426.357 246.242C426.532 244.241 426.478 240.877 423.887 238.081C421.488 235.495 418.053 234.662 414.891 234.385L413.853 246.248ZM414.494 245.204C414.48 245.366 414.466 245.278 414.56 245.059C414.673 244.794 414.896 244.45 415.247 244.169C415.584 243.9 415.807 243.876 415.67 243.905C415.504 243.94 415.014 244.006 414.056 243.922L413.018 255.785C416.475 256.087 419.96 255.644 422.677 253.475C425.498 251.223 426.188 248.163 426.357 246.242L414.494 245.204ZM414.056 243.922L411.138 243.667L410.1 255.53L413.018 255.785L414.056 243.922ZM404.688 249.08L404.289 253.635L416.152 254.673L416.55 250.117L404.688 249.08ZM404.289 253.635C403.984 257.125 403.364 261.789 404.12 266.335C404.952 271.336 407.343 276.053 412.292 280.489L420.239 271.621C417.208 268.904 416.233 266.586 415.867 264.381C415.424 261.722 415.772 259.012 416.152 254.673L404.289 253.635ZM412.308 280.504C412.753 280.9 413.005 281.202 413.135 281.39C413.261 281.573 413.226 281.582 413.188 281.421C413.169 281.339 413.153 281.229 413.153 281.101C413.153 280.971 413.168 280.852 413.193 280.751C413.243 280.542 413.301 280.528 413.163 280.71L422.658 287.897C424.661 285.25 425.571 282.035 424.776 278.677C424.055 275.631 422.119 273.294 420.223 271.607L412.308 280.504ZM413.226 280.629C413.182 280.684 413.172 280.686 413.203 280.661C413.236 280.635 413.295 280.594 413.377 280.556C413.46 280.519 413.54 280.495 413.607 280.483C413.671 280.471 413.704 280.474 413.694 280.473L413.151 292.369C416.78 292.534 420.192 291.041 422.595 287.978L413.226 280.629ZM413.941 280.49C413.803 280.477 413.723 280.466 413.682 280.458C413.643 280.451 413.654 280.451 413.699 280.466C413.747 280.482 413.822 280.512 413.912 280.562C414.003 280.613 414.086 280.673 414.155 280.733L406.303 289.685C408.69 291.779 411.31 292.213 412.903 292.352L413.941 280.49ZM414.329 280.892C411.618 278.318 409.654 275.518 408.222 272.696L397.602 278.082C399.596 282.014 402.351 285.939 406.129 289.527L414.329 280.892ZM398.045 271.959C396.297 274.44 394.099 276.881 391.238 279.009L398.343 288.565C402.385 285.559 405.433 282.147 407.779 278.819L398.045 271.959ZM391.298 278.965C391.49 278.825 391.632 278.766 391.672 278.75C391.713 278.734 391.693 278.746 391.597 278.765C391.504 278.783 391.369 278.801 391.195 278.812C391.023 278.822 390.834 278.824 390.638 278.816L390.165 290.715C392.014 290.788 395.46 290.653 398.283 288.609L391.298 278.965ZM426.894 283.272C426.722 283.257 426.754 283.235 426.911 283.306C427.096 283.389 427.358 283.56 427.582 283.837C427.801 284.109 427.835 284.299 427.819 284.228C427.797 284.132 427.735 283.765 427.801 283.017L415.938 281.979C415.65 285.271 416.159 288.644 418.317 291.318C420.509 294.033 423.514 294.93 425.856 295.135L426.894 283.272ZM427.801 283.017L429.19 267.145L417.327 266.107L415.938 281.979L427.801 283.017ZM423.777 260.695L419.008 260.278L417.971 272.14L422.739 272.557L423.777 260.695ZM419.008 260.278C418.068 260.195 417.633 260.059 417.513 260.013C417.43 259.98 417.736 260.085 418.09 260.498C418.258 260.695 418.39 260.908 418.485 261.116C418.578 261.318 418.619 261.479 418.636 261.566C418.653 261.65 418.648 261.669 418.646 261.601C418.645 261.531 418.647 261.405 418.664 261.204L406.802 260.166C406.634 262.086 406.623 265.415 409.045 268.243C411.39 270.983 414.834 271.866 417.971 272.14L419.008 260.278ZM418.664 261.204C418.687 260.947 418.716 260.968 418.644 261.141C418.554 261.36 418.35 261.706 417.985 262.005C417.63 262.298 417.367 262.345 417.44 262.329C417.547 262.306 417.962 262.242 418.83 262.318L419.868 250.455C416.586 250.168 413.131 250.58 410.422 252.808C407.649 255.088 406.976 258.181 406.802 260.166L418.664 261.204ZM418.83 262.318L423.599 262.735L424.637 250.873L419.868 250.455L418.83 262.318ZM430.049 257.323L432.054 234.404L420.191 233.367L418.186 256.285L430.049 257.323ZM432.054 234.404C432.116 233.699 432.236 233.38 432.265 233.311C432.285 233.266 432.213 233.444 431.959 233.66C431.705 233.878 431.436 233.992 431.252 234.038C431.094 234.078 431.061 234.055 431.199 234.067L432.237 222.204C429.901 222 426.829 222.379 424.219 224.611C421.62 226.834 420.483 230.04 420.191 233.367L432.054 234.404ZM431.199 234.067C431.304 234.076 431.244 234.087 431.082 234.013C430.896 233.928 430.65 233.764 430.441 233.507C430.233 233.252 430.196 233.071 430.208 233.124C430.227 233.201 430.289 233.539 430.227 234.245L442.09 235.282C442.381 231.954 441.815 228.615 439.67 225.983C437.511 223.335 434.575 222.409 432.237 222.204L431.199 234.067ZM430.227 234.245L425.974 282.857L437.837 283.895L442.09 235.282L430.227 234.245ZM425.974 282.857C425.909 283.605 425.784 283.958 425.744 284.054C425.714 284.126 425.776 283.95 426.035 283.722C426.299 283.49 426.588 283.361 426.8 283.307C426.982 283.259 427.033 283.285 426.894 283.272L425.856 295.135C428.201 295.34 431.296 294.956 433.903 292.66C436.463 290.407 437.548 287.189 437.837 283.895L425.974 282.857ZM411.517 229.5L400.414 228.528L399.376 240.391L410.479 241.362L411.517 229.5ZM400.414 228.528C399.456 228.445 398.984 228.294 398.827 228.231C398.697 228.179 398.913 228.241 399.198 228.565C399.495 228.902 399.655 229.28 399.72 229.56C399.774 229.792 399.746 229.876 399.76 229.714L387.897 228.676C387.729 230.598 387.878 233.731 390.266 236.439C392.565 239.047 395.919 240.088 399.376 240.391L400.414 228.528ZM399.76 229.714C399.794 229.33 399.835 229.337 399.754 229.534C399.706 229.65 399.619 229.824 399.472 230.021C399.322 230.222 399.141 230.406 398.941 230.558C398.531 230.869 398.26 230.885 398.442 230.853C398.651 230.816 399.189 230.764 400.21 230.853L401.248 218.991C398.086 218.714 394.558 218.938 391.747 221.069C388.709 223.372 388.072 226.676 387.897 228.676L399.76 229.714ZM400.21 230.853L411.314 231.825L412.351 219.962L401.248 218.991L400.21 230.853ZM411.314 231.825C412.335 231.914 412.856 232.058 413.055 232.131C413.228 232.194 412.965 232.132 412.615 231.755C412.444 231.57 412.297 231.358 412.185 231.133C412.075 230.914 412.019 230.727 411.992 230.605C411.946 230.396 411.988 230.397 411.955 230.781L423.817 231.819C423.992 229.819 423.939 226.454 421.347 223.659C418.949 221.072 415.514 220.239 412.351 219.962L411.314 231.825ZM411.955 230.781C411.941 230.943 411.927 230.855 412.021 230.636C412.133 230.372 412.356 230.027 412.708 229.747C413.045 229.477 413.268 229.453 413.131 229.482C412.965 229.517 412.475 229.584 411.517 229.5L410.479 241.362C413.936 241.665 417.42 241.222 420.137 239.052C422.958 236.8 423.649 233.741 423.817 231.819L411.955 230.781ZM441.912 284.586C441.74 284.571 441.772 284.549 441.929 284.62C442.114 284.703 442.376 284.874 442.6 285.151C442.819 285.423 442.853 285.613 442.837 285.542C442.815 285.445 442.753 285.079 442.819 284.331L430.956 283.293C430.668 286.585 431.177 289.958 433.335 292.631C435.527 295.347 438.532 296.244 440.874 296.449L441.912 284.586ZM442.819 284.331L447.072 235.718L435.209 234.68L430.956 283.293L442.819 284.331ZM447.072 235.718C447.134 235.012 447.254 234.693 447.283 234.625C447.303 234.58 447.231 234.757 446.977 234.974C446.723 235.192 446.453 235.305 446.27 235.352C446.112 235.392 446.079 235.368 446.217 235.381L447.255 223.518C444.919 223.314 441.847 223.693 439.237 225.925C436.638 228.148 435.5 231.354 435.209 234.68L447.072 235.718ZM446.217 235.381C446.322 235.39 446.262 235.401 446.1 235.327C445.914 235.242 445.668 235.078 445.459 234.821C445.251 234.566 445.214 234.385 445.226 234.438C445.245 234.515 445.307 234.853 445.245 235.558L457.108 236.596C457.399 233.268 456.833 229.929 454.688 227.297C452.529 224.649 449.592 223.723 447.255 223.518L446.217 235.381ZM445.245 235.558L440.992 284.171L452.855 285.209L457.108 236.596L445.245 235.558ZM440.992 284.171C440.927 284.918 440.802 285.272 440.762 285.368C440.732 285.44 440.794 285.264 441.053 285.036C441.317 284.804 441.606 284.675 441.818 284.62C442 284.573 442.051 284.598 441.912 284.586L440.874 296.449C443.219 296.654 446.314 296.27 448.921 293.974C451.481 291.721 452.566 288.503 452.855 285.209L440.992 284.171ZM471.064 284.364L465.133 283.845L464.614 289.776L470.545 290.295L471.064 284.364ZM500.957 286.979L500.438 292.91L506.37 293.429L506.889 287.498L500.957 286.979ZM501.325 282.78L507.256 283.299L507.775 277.367L501.844 276.848L501.325 282.78ZM471.431 280.164L471.95 274.233L466.019 273.714L465.5 279.645L471.431 280.164ZM461.306 249.156L466.253 252.469L471.419 244.756L462.254 243.278L461.306 249.156ZM489.563 251.628L489.65 245.675L480.572 245.542L484.068 253.921L489.563 251.628ZM464.169 236.927L468.543 232.888L468.352 232.681L468.143 232.494L464.169 236.927ZM489.009 239.1L485.655 234.181L485.633 234.196L485.611 234.212L489.009 239.1ZM503.212 261.214L509.143 261.732L509.662 255.801L503.73 255.282L503.212 261.214ZM504.096 251.107L503.577 257.038L509.508 257.557L510.027 251.626L504.096 251.107ZM505.702 290.956L464.989 287.394L463.952 299.257L504.664 302.819L505.702 290.956ZM464.989 287.394C464.538 287.355 464.213 287.303 463.988 287.255C463.763 287.206 463.671 287.169 463.673 287.169C463.678 287.172 463.795 287.22 463.968 287.348C464.147 287.48 464.351 287.671 464.54 287.924C464.937 288.457 465.025 288.936 465.039 289.043C465.045 289.085 465.038 289.058 465.039 288.931C465.04 288.804 465.049 288.622 465.072 288.358L453.21 287.32C453.084 288.762 452.815 292.116 454.988 295.035C457.253 298.077 460.829 298.984 463.952 299.257L464.989 287.394ZM465.072 288.358L466.119 276.4L454.256 275.362L453.21 287.32L465.072 288.358ZM466.119 276.4C466.163 275.897 466.241 275.659 466.264 275.601C466.277 275.568 466.212 275.739 465.991 275.941C465.887 276.036 465.781 276.107 465.691 276.155C465.602 276.202 465.555 276.212 465.575 276.207C465.628 276.193 465.955 276.123 466.687 276.187L467.725 264.325C464.293 264.024 460.717 264.629 457.957 267.151C455.294 269.586 454.477 272.831 454.256 275.362L466.119 276.4ZM466.687 276.187L507.399 279.749L508.437 267.886L467.725 264.325L466.687 276.187ZM507.399 279.749C507.85 279.788 508.176 279.841 508.4 279.889C508.625 279.937 508.718 279.975 508.716 279.974C508.71 279.972 508.594 279.923 508.421 279.796C508.241 279.663 508.037 279.472 507.849 279.219C507.452 278.686 507.364 278.207 507.349 278.1C507.344 278.058 507.351 278.085 507.349 278.212C507.348 278.339 507.339 278.521 507.316 278.785L519.179 279.823C519.305 278.381 519.573 275.027 517.4 272.108C515.135 269.066 511.559 268.16 508.437 267.886L507.399 279.749ZM507.316 278.785L506.27 290.743L518.133 291.781L519.179 279.823L507.316 278.785ZM506.27 290.743C506.215 291.376 506.102 291.578 506.125 291.534C506.138 291.507 506.18 291.432 506.263 291.336C506.347 291.239 506.447 291.149 506.555 291.075C506.774 290.925 506.894 290.927 506.757 290.951C506.603 290.977 506.269 291.006 505.702 290.956L504.664 302.819C507.102 303.032 510.399 302.879 513.292 300.894C516.433 298.738 517.821 295.337 518.133 291.781L506.27 290.743ZM470.545 290.295L500.438 292.91L501.476 281.048L471.583 278.432L470.545 290.295ZM506.889 287.498L507.256 283.299L495.394 282.261L495.026 286.46L506.889 287.498ZM501.844 276.848L471.95 274.233L470.912 286.096L500.806 288.711L501.844 276.848ZM465.5 279.645L465.133 283.845L476.995 284.882L477.362 280.683L465.5 279.645ZM474.494 261.546C469.825 261.137 467.711 259.978 466.807 259.085C466.112 258.398 465.433 257.181 465.681 254.344L453.819 253.306C453.363 258.512 454.495 263.658 458.437 267.554C462.17 271.244 467.521 272.889 473.457 273.409L474.494 261.546ZM465.681 254.344C465.764 253.397 465.99 252.861 466.253 252.469L456.359 245.843C454.807 248.161 454.047 250.694 453.819 253.306L465.681 254.344ZM462.254 243.278C461.573 243.168 461.292 243.062 461.254 243.046C461.233 243.038 461.586 243.181 461.995 243.63C462.443 244.122 462.695 244.69 462.801 245.159C462.888 245.548 462.848 245.745 462.864 245.563L451.001 244.525C450.854 246.212 450.908 249.141 453.191 251.648C455.211 253.866 458.03 254.659 460.358 255.034L462.254 243.278ZM462.864 245.563C462.895 245.206 462.927 245.397 462.728 245.804C462.617 246.032 462.446 246.304 462.196 246.571C461.946 246.841 461.678 247.041 461.433 247.179C460.98 247.436 460.756 247.399 461.126 247.362C461.486 247.327 462.146 247.317 463.252 247.414L464.289 235.551C461.635 235.319 458.324 235.254 455.564 236.818C452.02 238.825 451.198 242.275 451.001 244.525L462.864 245.563ZM463.252 247.414L488.021 249.581L489.058 237.718L464.289 235.551L463.252 247.414ZM488.021 249.581C489.127 249.677 489.775 249.802 490.123 249.899C490.481 249.999 490.254 249.997 489.852 249.665C489.636 249.487 489.406 249.243 489.206 248.934C489.007 248.627 488.885 248.33 488.815 248.087C488.69 247.651 488.755 247.469 488.724 247.825L500.587 248.863C500.783 246.613 500.573 243.073 497.431 240.481C494.985 238.462 491.713 237.95 489.058 237.718L488.021 249.581ZM488.724 247.825C488.712 247.968 488.711 247.744 488.878 247.36C489.077 246.903 489.433 246.405 489.94 246.024C490.401 245.677 490.746 245.608 490.704 245.617C490.647 245.63 490.339 245.685 489.65 245.675L489.475 257.581C491.843 257.616 494.728 257.322 497.097 255.54C499.8 253.508 500.429 250.659 500.587 248.863L488.724 247.825ZM484.068 253.921C484.387 254.686 484.482 255.327 484.424 255.984L496.287 257.022C496.528 254.262 496.043 251.697 495.058 249.336L484.068 253.921ZM484.424 255.984C484.141 259.216 483.211 260.178 482.558 260.613C481.574 261.269 479.334 261.969 474.494 261.546L473.457 273.409C479.222 273.913 484.796 273.432 489.162 270.522C493.859 267.391 495.816 262.402 496.287 257.022L484.424 255.984ZM474.129 265.722C477.669 266.031 480.819 264.804 482.886 262.199C484.631 259.999 485.058 257.483 485.183 256.05L473.321 255.012C473.314 255.09 473.305 255.153 473.296 255.202C473.287 255.251 473.281 255.271 473.282 255.266C473.284 255.26 473.299 255.214 473.338 255.136C473.377 255.058 473.446 254.938 473.558 254.797C473.805 254.486 474.177 254.182 474.631 254C475.061 253.827 475.3 253.871 475.167 253.859L474.129 265.722ZM485.183 256.05C485.309 254.618 485.325 252.066 483.988 249.596C482.405 246.672 479.516 244.916 475.977 244.606L474.939 256.469C475.072 256.48 474.829 256.482 474.435 256.237C474.02 255.979 473.706 255.615 473.517 255.265C473.431 255.108 473.384 254.978 473.359 254.894C473.334 254.81 473.328 254.762 473.327 254.756C473.326 254.75 473.329 254.771 473.33 254.821C473.33 254.871 473.328 254.935 473.321 255.012L485.183 256.05ZM475.977 244.606C472.425 244.296 469.38 245.618 467.375 248.043C465.632 250.152 465.069 252.603 464.922 254.278L476.785 255.315C476.79 255.256 476.801 255.222 476.797 255.235C476.793 255.246 476.737 255.407 476.553 255.63C476.348 255.879 476.026 256.148 475.606 256.32C475.19 256.49 474.918 256.467 474.939 256.469L475.977 244.606ZM464.922 254.278C464.776 255.952 464.905 258.464 466.255 260.843C467.808 263.579 470.577 265.411 474.129 265.722L475.167 253.859C475.147 253.857 475.419 253.882 475.798 254.122C476.182 254.364 476.452 254.685 476.611 254.965C476.754 255.217 476.781 255.385 476.783 255.397C476.785 255.41 476.78 255.375 476.785 255.315L464.922 254.278ZM484.168 233.776L469.79 232.518L468.753 244.381L483.13 245.639L484.168 233.776ZM469.79 232.518C468.699 232.423 468.033 232.287 467.697 232.187C467.538 232.139 467.551 232.129 467.673 232.193C467.786 232.253 468.143 232.455 468.543 232.888L459.795 240.967C461.233 242.523 463.07 243.235 464.309 243.602C465.685 244.011 467.211 244.246 468.753 244.381L469.79 232.518ZM468.143 232.494C468.443 232.762 468.737 233.162 468.914 233.654C469.082 234.121 469.07 234.464 469.062 234.558L457.2 233.52C456.955 236.312 457.802 239.216 460.195 241.361L468.143 232.494ZM469.062 234.558C469.093 234.201 469.122 234.417 468.915 234.848C468.798 235.092 468.617 235.381 468.353 235.666C468.088 235.951 467.804 236.162 467.547 236.306C467.073 236.571 466.839 236.531 467.229 236.495C467.604 236.46 468.289 236.451 469.438 236.551L470.475 224.689C467.78 224.453 464.463 224.381 461.719 225.922C458.133 227.934 457.383 231.42 457.2 233.52L469.062 234.558ZM469.438 236.551L483.815 237.809L484.853 225.947L470.475 224.689L469.438 236.551ZM483.815 237.809C484.963 237.91 485.637 238.037 486 238.137C486.377 238.241 486.14 238.24 485.719 237.896C485.492 237.709 485.249 237.453 485.037 237.125C484.826 236.799 484.698 236.483 484.625 236.223C484.496 235.762 484.562 235.555 484.531 235.912L496.393 236.949C496.577 234.849 496.444 231.286 493.262 228.681C490.827 226.688 487.548 226.183 484.853 225.947L483.815 237.809ZM484.531 235.912C484.539 235.814 484.585 235.514 484.796 235.131C485.016 234.732 485.327 234.405 485.655 234.181L492.363 244.02C494.862 242.316 496.152 239.704 496.393 236.949L484.531 235.912ZM485.611 234.212C486.004 233.938 486.311 233.835 486.401 233.807C486.497 233.777 486.481 233.793 486.307 233.813C485.941 233.854 485.256 233.871 484.168 233.776L483.13 245.639C484.675 245.774 486.212 245.806 487.639 245.646C488.964 245.497 490.779 245.121 492.408 243.989L485.611 234.212ZM508.649 265.466C508.477 265.451 508.351 265.43 508.267 265.411C508.183 265.392 508.151 265.379 508.161 265.383C508.172 265.387 508.227 265.411 508.309 265.467C508.394 265.524 508.491 265.605 508.586 265.711C508.682 265.817 508.754 265.925 508.803 266.017C508.85 266.108 508.863 266.159 508.861 266.149C508.853 266.119 508.785 265.826 508.844 265.149L496.981 264.111C496.683 267.524 497.323 271 499.741 273.683C502.087 276.286 505.193 277.117 507.611 277.329L508.649 265.466ZM508.844 265.149L509.143 261.732L497.28 260.695L496.981 264.111L508.844 265.149ZM503.73 255.282L499.745 254.934L498.707 266.796L502.693 267.145L503.73 255.282ZM499.745 254.934C498.787 254.85 498.375 254.705 498.294 254.671C498.266 254.659 498.339 254.686 498.469 254.78C498.603 254.878 498.766 255.025 498.924 255.227C499.083 255.43 499.198 255.638 499.275 255.828C499.35 256.011 499.379 256.147 499.388 256.205C499.398 256.261 499.392 256.254 499.391 256.164C499.39 256.073 499.394 255.931 499.413 255.717L487.551 254.68C487.403 256.371 487.283 259.671 489.544 262.563C491.838 265.496 495.359 266.503 498.707 266.796L499.745 254.934ZM499.413 255.717C499.436 255.46 499.463 255.439 499.422 255.551C499.367 255.698 499.214 256.013 498.886 256.317C498.731 256.46 498.577 256.562 498.45 256.629C498.325 256.694 498.256 256.71 498.273 256.706C498.325 256.693 498.708 256.612 499.591 256.689L500.629 244.827C497.038 244.513 493.467 245.107 490.798 247.577C488.214 249.968 487.696 253.022 487.551 254.68L499.413 255.717ZM499.591 256.689L503.577 257.038L504.615 245.175L500.629 244.827L499.591 256.689ZM510.027 251.626L510.93 241.305L499.067 240.267L498.165 250.588L510.027 251.626ZM510.93 241.305C510.958 240.987 511 240.764 511.037 240.619C511.073 240.475 511.102 240.415 511.102 240.416C511.1 240.419 511.073 240.474 511.006 240.557C510.939 240.641 510.849 240.73 510.741 240.811C510.634 240.892 510.532 240.947 510.45 240.983C510.37 241.018 510.321 241.028 510.317 241.029C510.313 241.03 510.349 241.022 510.432 241.019C510.514 241.015 510.632 241.016 510.787 241.03L511.825 229.167C509.486 228.963 506.335 229.224 503.581 231.296C500.698 233.466 499.374 236.761 499.067 240.267L510.93 241.305ZM510.787 241.03C510.951 241.044 511.076 241.064 511.165 241.083C511.209 241.092 511.242 241.101 511.264 241.107C511.275 241.111 511.283 241.113 511.289 241.115C511.294 241.117 511.297 241.118 511.297 241.118C511.297 241.118 511.294 241.117 511.289 241.115C511.284 241.112 511.276 241.109 511.265 241.103C511.244 241.093 511.214 241.077 511.177 241.053C511.1 241.003 511.003 240.929 510.903 240.825C510.803 240.72 510.722 240.609 510.664 240.505C510.606 240.403 510.586 240.336 510.584 240.328C510.582 240.322 510.658 240.592 510.598 241.276L522.46 242.314C522.773 238.743 522.029 235.222 519.496 232.581C517.102 230.086 514.031 229.36 511.825 229.167L510.787 241.03ZM510.598 241.276L508.512 265.12L520.374 266.158L522.46 242.314L510.598 241.276ZM508.512 265.12C508.451 265.819 508.328 266.093 508.32 266.109C508.319 266.112 508.344 266.058 508.413 265.972C508.483 265.885 508.577 265.79 508.693 265.703C508.808 265.616 508.918 265.557 509.007 265.518C509.094 265.481 509.147 265.47 509.153 265.469C509.157 265.468 509.119 265.476 509.03 265.479C508.941 265.483 508.815 265.481 508.649 265.466L507.611 277.329C509.889 277.528 513.067 277.314 515.853 275.218C518.768 273.024 520.066 269.682 520.374 266.158L508.512 265.12ZM586.801 294.418L592.732 294.936L593.251 289.005L587.32 288.486L586.801 294.418ZM547.782 254.283L551.94 250.021L551.85 249.933L551.756 249.85L547.782 254.283ZM581.59 257.241L584.734 262.297L584.841 262.231L584.945 262.16L581.59 257.241ZM553.157 244.497L557.314 240.236L557.224 240.148L557.131 240.064L553.157 244.497ZM577.997 246.671L581.141 251.727L581.247 251.661L581.351 251.59L577.997 246.671ZM601.488 259.34L595.557 258.822L595.038 264.753L600.969 265.272L601.488 259.34ZM600.629 269.163L601.148 263.231L595.217 262.712L594.698 268.644L600.629 269.163ZM592.251 298.528C592.096 298.515 591.98 298.495 591.899 298.477C591.818 298.46 591.784 298.446 591.788 298.447C591.792 298.449 591.838 298.468 591.911 298.516C591.985 298.565 592.076 298.637 592.167 298.735C592.26 298.834 592.333 298.938 592.385 299.032C592.436 299.125 592.453 299.184 592.454 299.187C592.454 299.189 592.436 299.124 592.426 298.976C592.415 298.827 592.412 298.599 592.439 298.282L580.577 297.244C580.27 300.751 581.001 304.225 583.464 306.863C585.816 309.381 588.875 310.186 591.213 310.391L592.251 298.528ZM592.439 298.282L592.732 294.936L580.87 293.899L580.577 297.244L592.439 298.282ZM587.32 288.486L551.661 285.367L550.623 297.229L586.282 300.349L587.32 288.486ZM551.661 285.367C550.703 285.283 550.232 285.132 550.074 285.069C549.945 285.017 550.16 285.079 550.446 285.403C550.743 285.74 550.902 286.118 550.968 286.398C551.022 286.63 550.993 286.714 551.007 286.552L539.145 285.515C538.977 287.436 539.126 290.569 541.513 293.277C543.812 295.885 547.166 296.927 550.623 297.229L551.661 285.367ZM551.007 286.552C551.041 286.168 551.083 286.175 551.001 286.372C550.954 286.488 550.866 286.662 550.72 286.859C550.57 287.061 550.388 287.245 550.188 287.396C549.778 287.707 549.508 287.723 549.69 287.691C549.898 287.654 550.436 287.602 551.458 287.692L552.495 275.829C549.333 275.552 545.805 275.776 542.994 277.907C539.957 280.21 539.32 283.514 539.145 285.515L551.007 286.552ZM551.458 287.692L592.882 291.316L593.919 279.453L552.495 275.829L551.458 287.692ZM592.882 291.316C593.333 291.355 593.658 291.407 593.883 291.455C594.108 291.504 594.2 291.541 594.198 291.541C594.193 291.538 594.076 291.49 593.903 291.362C593.723 291.23 593.52 291.039 593.331 290.786C592.934 290.253 592.846 289.774 592.832 289.667C592.826 289.625 592.833 289.652 592.832 289.779C592.831 289.906 592.822 290.088 592.799 290.352L604.661 291.39C604.787 289.948 605.056 286.594 602.883 283.675C600.618 280.633 597.041 279.726 593.919 279.453L592.882 291.316ZM592.799 290.352L592.107 298.253L603.97 299.29L604.661 291.39L592.799 290.352ZM592.107 298.253C592.047 298.937 591.926 299.189 591.929 299.184C591.932 299.176 591.964 299.114 592.038 299.023C592.114 298.931 592.212 298.836 592.33 298.75C592.446 298.665 592.554 298.608 592.639 298.573C592.68 298.556 592.712 298.545 592.735 298.539C592.746 298.535 592.754 298.533 592.76 298.532C592.765 298.53 592.768 298.53 592.768 298.53C592.768 298.53 592.766 298.53 592.76 298.531C592.754 298.532 592.746 298.533 592.734 298.534C592.711 298.537 592.678 298.54 592.633 298.541C592.541 298.545 592.415 298.543 592.251 298.528L591.213 310.391C593.419 310.584 596.57 310.402 599.36 308.361C602.314 306.2 603.657 302.861 603.97 299.29L592.107 298.253ZM563.071 273.814C557.97 273.367 555.732 272.48 554.826 271.769C554.532 271.538 553.867 271.084 554.102 268.391L542.24 267.353C541.778 272.632 543.037 277.654 547.474 281.136C551.299 284.138 556.601 285.201 562.033 285.676L563.071 273.814ZM554.102 268.391C554.343 265.646 555.105 265.264 555.474 265.066C556.512 264.509 558.872 264.027 563.889 264.466L564.927 252.604C559.552 252.133 554.148 252.263 549.843 254.574C544.869 257.243 542.71 261.985 542.24 267.353L554.102 268.391ZM563.889 264.466C568.928 264.907 571.164 265.778 572.085 266.5C572.394 266.742 573.09 267.233 572.845 270.031L584.708 271.069C585.179 265.682 583.887 260.62 579.43 257.127C575.586 254.115 570.279 253.072 564.927 252.604L563.889 264.466ZM572.845 270.031C572.57 273.178 571.77 273.336 571.652 273.396C570.688 273.889 568.399 274.28 563.071 273.814L562.033 285.676C567.311 286.138 572.76 286.202 577.07 284C582.226 281.366 584.236 276.463 584.708 271.069L572.845 270.031ZM562.693 278.132C564.68 278.306 567.68 278.366 570.189 276.583C573.116 274.504 573.495 271.353 573.604 270.097L561.742 269.06C561.719 269.317 561.711 269.079 561.878 268.656C562.092 268.116 562.534 267.415 563.293 266.875C563.977 266.39 564.541 266.306 564.589 266.299C564.623 266.294 564.39 266.327 563.731 266.269L562.693 278.132ZM573.604 270.097C573.714 268.842 573.889 265.673 571.367 263.117C569.205 260.926 566.241 260.464 564.254 260.291L563.216 272.153C563.875 272.211 564.099 272.283 564.066 272.273C564.02 272.258 563.479 272.077 562.89 271.48C562.236 270.817 561.922 270.05 561.806 269.481C561.715 269.035 561.764 268.803 561.742 269.06L573.604 270.097ZM564.254 260.291C562.259 260.116 559.354 260.092 556.883 261.794C553.987 263.789 553.475 266.817 553.343 268.325L565.206 269.363C565.221 269.193 565.221 269.467 565.028 269.919C564.792 270.471 564.342 271.116 563.638 271.601C563.002 272.039 562.487 272.119 562.434 272.126C562.396 272.132 562.61 272.1 563.216 272.153L564.254 260.291ZM553.343 268.325C553.211 269.833 553.189 272.903 555.695 275.371C557.833 277.476 560.698 277.957 562.693 278.132L563.731 266.269C563.124 266.216 562.92 266.148 562.956 266.16C563.007 266.176 563.5 266.344 564.05 266.886C564.659 267.486 564.99 268.199 565.127 268.784C565.238 269.263 565.191 269.532 565.206 269.363L553.343 268.325ZM576.755 251.845L553.41 249.803L552.372 261.666L575.717 263.708L576.755 251.845ZM553.41 249.803C552.325 249.708 551.633 249.571 551.26 249.464C551.079 249.412 551.059 249.392 551.147 249.435C551.218 249.47 551.546 249.637 551.94 250.021L543.625 258.545C545.04 259.926 546.789 260.571 547.983 260.912C549.325 261.296 550.823 261.53 552.372 261.666L553.41 249.803ZM551.756 249.85C552.056 250.118 552.35 250.518 552.527 251.01C552.695 251.477 552.683 251.82 552.675 251.914L540.813 250.876C540.568 253.668 541.415 256.572 543.808 258.717L551.756 249.85ZM552.675 251.914C552.706 251.558 552.739 251.748 552.54 252.156C552.429 252.384 552.257 252.655 552.008 252.923C551.757 253.192 551.489 253.392 551.245 253.53C550.791 253.787 550.568 253.75 550.937 253.714C551.297 253.679 551.957 253.668 553.063 253.765L554.101 241.903C551.446 241.67 548.136 241.606 545.376 243.169C541.832 245.177 541.01 248.626 540.813 250.876L552.675 251.914ZM553.063 253.765L576.409 255.808L577.446 243.945L554.101 241.903L553.063 253.765ZM576.409 255.808C577.515 255.904 578.163 256.029 578.511 256.126C578.869 256.226 578.642 256.224 578.24 255.892C578.024 255.713 577.794 255.47 577.594 255.161C577.395 254.854 577.273 254.557 577.203 254.314C577.078 253.877 577.143 253.696 577.112 254.052L588.975 255.09C589.171 252.84 588.961 249.3 585.819 246.708C583.373 244.689 580.101 244.177 577.446 243.945L576.409 255.808ZM577.112 254.052C577.121 253.955 577.166 253.655 577.377 253.271C577.597 252.873 577.908 252.546 578.236 252.322L584.945 262.16C587.443 260.456 588.734 257.844 588.975 255.09L577.112 254.052ZM578.447 252.185C578.819 251.954 579.089 251.875 579.137 251.862C579.196 251.845 579.146 251.865 578.951 251.885C578.548 251.926 577.836 251.94 576.755 251.845L575.717 263.708C577.27 263.844 578.78 263.873 580.168 263.73C581.448 263.599 583.167 263.272 584.734 262.297L578.447 252.185ZM573.162 241.275L558.784 240.017L557.746 251.88L572.124 253.138L573.162 241.275ZM558.784 240.017C557.7 239.922 557.007 239.785 556.634 239.678C556.454 239.627 556.433 239.606 556.521 239.649C556.593 239.685 556.921 239.851 557.314 240.236L548.999 248.759C550.415 250.14 552.164 250.785 553.358 251.127C554.699 251.51 556.197 251.744 557.746 251.88L558.784 240.017ZM557.131 240.064C557.348 240.258 557.662 240.63 557.867 241.176C558.066 241.703 558.052 242.098 558.043 242.2L546.181 241.162C545.924 244.094 546.884 246.871 549.183 248.931L557.131 240.064ZM558.043 242.2C558.075 241.835 558.104 242.087 557.871 242.56C557.739 242.828 557.538 243.139 557.248 243.439C556.958 243.739 556.653 243.952 556.386 244.092C555.905 244.346 555.68 244.298 556.11 244.264C556.517 244.232 557.231 244.232 558.406 244.335L559.444 232.473C556.83 232.244 553.548 232.126 550.83 233.56C547.127 235.514 546.365 239.056 546.181 241.162L558.043 242.2ZM558.406 244.335L572.784 245.593L573.822 233.731L559.444 232.473L558.406 244.335ZM572.784 245.593C573.96 245.696 574.662 245.82 575.058 245.922C575.476 246.03 575.245 246.038 574.815 245.705C574.578 245.52 574.314 245.258 574.08 244.911C573.847 244.566 573.703 244.224 573.619 243.938C573.472 243.432 573.544 243.188 573.512 243.553L585.375 244.591C585.559 242.485 585.423 238.864 582.117 236.298C579.689 234.413 576.436 233.959 573.822 233.731L572.784 245.593ZM573.512 243.553C573.521 243.448 573.574 243.097 573.823 242.66C574.079 242.212 574.405 241.914 574.643 241.752L581.351 251.59C583.747 249.956 585.122 247.479 585.375 244.591L573.512 243.553ZM574.853 241.614C575.225 241.383 575.495 241.305 575.544 241.291C575.602 241.275 575.553 241.294 575.358 241.314C574.954 241.356 574.243 241.37 573.162 241.275L572.124 253.138C573.676 253.273 575.187 253.302 576.574 253.16C577.854 253.028 579.573 252.701 581.141 251.727L574.853 241.614ZM594.15 276.82C593.978 276.805 593.852 276.783 593.768 276.765C593.684 276.746 593.652 276.732 593.662 276.736C593.673 276.74 593.728 276.764 593.81 276.82C593.895 276.878 593.992 276.958 594.087 277.064C594.183 277.171 594.255 277.278 594.304 277.37C594.351 277.461 594.364 277.512 594.362 277.502C594.354 277.472 594.286 277.179 594.345 276.502L582.482 275.464C582.184 278.877 582.824 282.353 585.242 285.036C587.588 287.639 590.694 288.471 593.112 288.682L594.15 276.82ZM594.345 276.502L596.767 248.815L584.905 247.777L582.482 275.464L594.345 276.502ZM596.767 248.815C596.795 248.497 596.837 248.274 596.874 248.129C596.91 247.985 596.939 247.924 596.939 247.925C596.937 247.929 596.91 247.984 596.843 248.067C596.776 248.15 596.686 248.239 596.578 248.321C596.471 248.401 596.369 248.457 596.287 248.493C596.207 248.527 596.159 248.538 596.154 248.539C596.151 248.54 596.187 248.532 596.269 248.528C596.352 248.525 596.469 248.526 596.624 248.539L597.662 236.677C595.324 236.472 592.172 236.734 589.418 238.806C586.535 240.976 585.212 244.27 584.905 247.777L596.767 248.815ZM596.624 248.539C596.788 248.554 596.913 248.574 597.003 248.593C597.047 248.602 597.079 248.611 597.101 248.617C597.112 248.62 597.121 248.623 597.126 248.625C597.132 248.627 597.134 248.628 597.134 248.628C597.134 248.628 597.131 248.627 597.126 248.624C597.121 248.622 597.113 248.618 597.102 248.613C597.082 248.603 597.051 248.586 597.014 248.562C596.937 248.513 596.84 248.439 596.74 248.335C596.64 248.23 596.559 248.119 596.501 248.015C596.443 247.913 596.423 247.846 596.421 247.838C596.419 247.832 596.495 248.102 596.435 248.786L608.298 249.824C608.61 246.253 607.867 242.732 605.333 240.091C602.939 237.596 599.868 236.87 597.662 236.677L596.624 248.539ZM596.435 248.786L595.557 258.822L607.42 259.859L608.298 249.824L596.435 248.786ZM600.969 265.272L605.453 265.664L606.491 253.802L602.007 253.409L600.969 265.272ZM605.453 265.664C606.326 265.74 606.764 265.881 606.916 265.942C607.045 265.993 606.867 265.946 606.617 265.67C606.357 265.383 606.204 265.052 606.137 264.792C606.08 264.57 606.106 264.487 606.095 264.62L617.957 265.658C618.151 263.439 617.832 260.313 615.441 257.674C613.141 255.136 609.856 254.096 606.491 253.802L605.453 265.664ZM606.095 264.62C606.066 264.948 606.026 264.941 606.106 264.756C606.151 264.653 606.23 264.502 606.359 264.332C606.49 264.16 606.647 264.003 606.819 263.872C607.173 263.603 607.402 263.587 607.244 263.617C607.059 263.652 606.567 263.705 605.632 263.624L604.594 275.486C607.767 275.764 611.239 275.471 614.026 273.351C616.994 271.095 617.763 267.881 617.957 265.658L606.095 264.62ZM605.632 263.624L601.148 263.231L600.11 275.094L604.594 275.486L605.632 263.624ZM594.698 268.644L594.013 276.473L605.875 277.511L606.56 269.682L594.698 268.644ZM594.013 276.473C593.952 277.172 593.829 277.447 593.821 277.463C593.82 277.466 593.845 277.411 593.914 277.325C593.984 277.238 594.078 277.143 594.194 277.056C594.309 276.97 594.419 276.91 594.508 276.872C594.595 276.834 594.648 276.823 594.654 276.822C594.658 276.821 594.62 276.829 594.531 276.832C594.442 276.836 594.316 276.834 594.15 276.82L593.112 288.682C595.39 288.882 598.568 288.668 601.354 286.571C604.269 284.377 605.567 281.036 605.875 277.511L594.013 276.473ZM628.594 288.248L622.644 288.021L622.428 293.686L628.075 294.18L628.594 288.248ZM659.84 290.982L659.321 296.913L664.967 297.407L665.738 291.792L659.84 290.982ZM627.628 299.28L621.697 298.762L621.178 304.693L627.11 305.212L627.628 299.28ZM658.874 302.014L658.355 307.945L664.287 308.464L664.806 302.533L658.874 302.014ZM659.148 298.882L665.08 299.401L665.598 293.47L659.667 292.951L659.148 298.882ZM627.902 296.149L628.421 290.217L622.49 289.699L621.971 295.63L627.902 296.149ZM624.547 268.1L624.473 274.053L624.491 274.053L624.509 274.053L624.547 268.1ZM618.53 263.915L612.583 264.208L612.586 264.256L612.589 264.304L618.53 263.915ZM624.134 258.883L623.957 252.932L623.907 252.933L623.857 252.936L624.134 258.883ZM668.903 262.8L670.209 256.991L670.105 256.968L670 256.948L668.903 262.8ZM673.548 268.729L679.332 270.144L679.343 270.097L679.354 270.05L673.548 268.729ZM666.896 271.805L665.9 277.675L665.917 277.678L665.935 277.68L666.896 271.805ZM646.359 262.262L650.361 257.854L647.01 254.812L643.183 257.226L646.359 262.262ZM664.074 304.884L622.009 301.203L620.972 313.066L663.036 316.746L664.074 304.884ZM622.009 301.203C621.558 301.164 621.233 301.112 621.008 301.064C620.783 301.015 620.691 300.978 620.693 300.979C620.699 300.981 620.815 301.029 620.988 301.157C621.168 301.289 621.371 301.48 621.56 301.733C621.957 302.266 622.045 302.745 622.059 302.852C622.065 302.895 622.058 302.867 622.059 302.74C622.06 302.613 622.069 302.432 622.093 302.167L610.23 301.129C610.104 302.571 609.835 305.926 612.008 308.844C614.273 311.886 617.85 312.793 620.972 313.066L622.009 301.203ZM622.093 302.167L623.307 288.288L611.444 287.25L610.23 301.129L622.093 302.167ZM623.307 288.288C623.37 287.562 623.49 287.248 623.514 287.194C623.523 287.173 623.504 287.221 623.44 287.308C623.375 287.398 623.277 287.508 623.145 287.617C623.012 287.726 622.874 287.81 622.746 287.871C622.62 287.93 622.524 287.957 622.476 287.968C622.395 287.986 622.481 287.953 622.808 287.981L623.846 276.119C621.497 275.913 618.303 276.179 615.575 278.424C612.832 280.684 611.73 283.979 611.444 287.25L623.307 288.288ZM622.808 287.981C622.945 287.993 623.049 288.01 623.123 288.027C623.159 288.034 623.186 288.042 623.204 288.047C623.222 288.052 623.23 288.056 623.23 288.056C623.23 288.056 623.193 288.041 623.132 288.003C623.07 287.963 622.99 287.903 622.907 287.82C622.823 287.736 622.752 287.645 622.697 287.555C622.642 287.466 622.617 287.401 622.609 287.378C622.594 287.333 622.664 287.509 622.644 288.021L634.543 288.475C634.673 285.082 633.753 281.825 631.327 279.399C629.023 277.096 626.128 276.318 623.846 276.119L622.808 287.981ZM628.075 294.18L659.321 296.913L660.358 285.051L629.113 282.317L628.075 294.18ZM665.738 291.792C665.808 291.283 665.907 291.123 665.884 291.164C665.872 291.186 665.836 291.245 665.767 291.323C665.697 291.402 665.612 291.479 665.514 291.548C665.418 291.615 665.329 291.66 665.261 291.688C665.194 291.716 665.155 291.724 665.155 291.724C665.155 291.724 665.164 291.722 665.183 291.72C665.201 291.718 665.229 291.715 665.266 291.714C665.341 291.71 665.447 291.712 665.584 291.724L666.622 279.861C664.339 279.661 661.353 279.924 658.685 281.793C655.874 283.761 654.403 286.808 653.941 290.172L665.738 291.792ZM665.584 291.724C665.885 291.75 665.952 291.795 665.87 291.76C665.822 291.74 665.735 291.696 665.626 291.618C665.514 291.538 665.4 291.436 665.295 291.312C665.19 291.188 665.118 291.071 665.072 290.977C665.028 290.886 665.019 290.84 665.024 290.863C665.038 290.92 665.1 291.24 665.039 291.939L676.902 292.977C677.187 289.715 676.66 286.305 674.382 283.616C672.112 280.936 669.034 280.072 666.622 279.861L665.584 291.724ZM665.039 291.939L663.825 305.818L675.687 306.856L676.902 292.977L665.039 291.939ZM663.825 305.818C663.802 306.083 663.779 306.263 663.758 306.388C663.737 306.514 663.726 306.539 663.739 306.498C663.771 306.396 663.941 305.94 664.425 305.483C664.654 305.267 664.888 305.114 665.088 305.015C665.281 304.919 665.404 304.892 665.409 304.891C665.412 304.89 665.314 304.911 665.084 304.92C664.855 304.928 664.525 304.923 664.074 304.884L663.036 316.746C666.158 317.019 669.838 316.747 672.596 314.145C675.243 311.648 675.561 308.298 675.687 306.856L663.825 305.818ZM627.11 305.212L658.355 307.945L659.393 296.083L628.147 293.349L627.11 305.212ZM664.806 302.533L665.08 299.401L653.217 298.363L652.943 301.495L664.806 302.533ZM659.667 292.951L628.421 290.217L627.383 302.08L658.629 304.814L659.667 292.951ZM621.971 295.63L621.697 298.762L633.56 299.799L633.834 296.668L621.971 295.63ZM670.698 278.353L618.954 273.826L617.916 285.688L669.66 290.216L670.698 278.353ZM618.954 273.826C618.197 273.76 617.926 273.651 617.943 273.658C618.006 273.684 618.393 273.864 618.781 274.347C619.169 274.831 619.298 275.296 619.334 275.495C619.359 275.638 619.326 275.583 619.362 275.176L607.499 274.139C607.348 275.867 607.283 279.044 609.491 281.797C611.713 284.568 615.026 285.436 617.916 285.688L618.954 273.826ZM619.362 275.176C619.382 274.948 619.405 274.958 619.351 275.103C619.285 275.281 619.111 275.637 618.741 275.984C618.358 276.342 618 276.47 617.885 276.5C617.815 276.518 618.04 276.447 618.719 276.507L619.757 264.644C616.53 264.362 613.157 264.9 610.603 267.291C608.155 269.582 607.642 272.503 607.499 274.139L619.362 275.176ZM618.719 276.507L670.464 281.034L671.502 269.171L619.757 264.644L618.719 276.507ZM670.464 281.034C671.143 281.093 671.352 281.202 671.287 281.172C671.179 281.123 670.848 280.934 670.533 280.515C670.229 280.11 670.12 279.728 670.086 279.542C670.058 279.389 670.082 279.384 670.062 279.612L681.925 280.65C682.068 279.015 682.07 276.049 680.057 273.367C677.957 270.569 674.729 269.454 671.502 269.171L670.464 281.034ZM670.062 279.612C670.027 280.019 669.985 280.067 670.035 279.931C670.104 279.74 670.312 279.306 670.778 278.897C671.244 278.488 671.657 278.378 671.723 278.363C671.741 278.359 671.455 278.419 670.698 278.353L669.66 290.216C672.551 290.468 675.964 290.189 678.633 287.846C681.286 285.518 681.774 282.379 681.925 280.65L670.062 279.612ZM624.621 262.146C624 262.138 623.593 262.111 623.307 262.069C623.017 262.026 623.064 261.995 623.276 262.104C623.395 262.166 623.563 262.269 623.745 262.431C623.93 262.596 624.095 262.791 624.226 263.001C624.497 263.436 624.483 263.706 624.471 263.526L612.589 264.304C612.7 266.001 613.141 267.726 614.116 269.292C615.108 270.887 616.448 271.984 617.836 272.697C620.324 273.975 623.06 274.035 624.473 274.053L624.621 262.146ZM624.477 263.623C624.458 263.242 624.519 263.3 624.412 263.6C624.355 263.76 624.261 263.96 624.112 264.173C623.962 264.386 623.79 264.566 623.617 264.706C623.278 264.982 623.055 265.015 623.204 264.975C623.364 264.932 623.732 264.862 624.411 264.831L623.857 252.936C621.685 253.037 618.601 253.437 616.104 255.468C613.185 257.842 612.436 261.219 612.583 264.208L624.477 263.623ZM624.312 264.835C628.731 264.703 633.779 264.233 637.97 262.604C642.344 260.905 646.878 257.414 647.437 251.025L635.575 249.987C635.561 250.145 635.688 250.716 633.658 251.504C631.446 252.364 628.094 252.808 623.957 252.932L624.312 264.835ZM647.437 251.025L647.512 250.171L635.65 249.133L635.575 249.987L647.437 251.025ZM647.512 250.171C647.472 250.63 647.263 251.318 646.721 251.94C646.229 252.505 645.738 252.702 645.617 252.744C645.509 252.782 645.585 252.739 645.936 252.718C646.268 252.698 646.711 252.706 647.262 252.755L648.3 240.892C646.576 240.741 644.051 240.676 641.68 241.506C640.412 241.95 638.946 242.734 637.737 244.124C636.478 245.571 635.808 247.321 635.65 249.133L647.512 250.171ZM647.262 252.755C647.813 252.803 648.251 252.872 648.574 252.949C648.917 253.03 648.984 253.086 648.884 253.03C648.772 252.967 648.323 252.688 647.937 252.047C647.511 251.339 647.425 250.626 647.465 250.166L659.327 251.204C659.486 249.393 659.13 247.553 658.141 245.909C657.192 244.331 655.884 243.304 654.712 242.646C652.522 241.417 650.024 241.043 648.3 240.892L647.262 252.755ZM647.465 250.166L647.384 251.092L659.246 252.13L659.327 251.204L647.465 250.166ZM647.384 251.092C646.82 257.533 650.945 261.77 654.842 264.14C658.72 266.498 663.575 267.859 667.807 268.652L670 256.948C666.329 256.26 663.109 255.23 661.029 253.965C660.018 253.351 659.552 252.845 659.366 252.564C659.245 252.381 659.231 252.305 659.246 252.13L647.384 251.092ZM667.598 268.609C668.261 268.758 668.612 268.891 668.761 268.961C668.901 269.026 668.688 268.955 668.402 268.625C668.256 268.456 668.117 268.249 668.007 268.013C667.897 267.778 667.839 267.564 667.811 267.397C667.757 267.083 667.827 267.036 667.743 267.408L679.354 270.05C680.018 267.132 679.867 263.676 677.405 260.831C675.298 258.397 672.331 257.468 670.209 256.991L667.598 268.609ZM667.765 267.314C667.722 267.489 667.756 267.221 668.098 266.84C668.263 266.655 668.459 266.492 668.671 266.362C668.878 266.234 669.061 266.161 669.189 266.121C669.417 266.051 669.458 266.089 669.165 266.081C668.876 266.073 668.47 266.029 667.857 265.929L665.935 277.68C667.33 277.909 670.035 278.324 672.707 277.498C674.198 277.037 675.708 276.189 676.962 274.79C678.193 273.418 678.928 271.795 679.332 270.144L667.765 267.314ZM667.893 265.935C661.047 264.772 654.415 261.534 650.361 257.854L642.357 266.67C648.269 272.038 657.057 276.173 665.9 277.675L667.893 265.935ZM643.183 257.226C638.541 260.153 631.515 262.19 624.585 262.146L624.509 274.053C633.492 274.111 642.79 271.551 649.534 267.298L643.183 257.226Z" fill="white" mask="url(#path-5-outside-1_179_581)"/>
<defs>
<filter id="filter0_d_179_581" x="75" y="49.8223" width="458.792" height="164.487" filterUnits="userSpaceOnUse" color-interpolation-filters="sRGB">
<feFlood flood-opacity="0" result="BackgroundImageFix"/>
<feColorMatrix in="SourceAlpha" type="matrix" values="0 0 0 0 0 0 0 0 0 0 0 0 0 0 0 0 0 0 127 0" result="hardAlpha"/>
<feOffset dx="9.9232" dy="9.9232"/>
<feComposite in2="hardAlpha" operator="out"/>
<feColorMatrix type="matrix" values="0 0 0 0 0.490196 0 0 0 0 0.827451 0 0 0 0 0.988235 0 0 0 1 0"/>
<feBlend mode="normal" in2="BackgroundImageFix" result="effect1_dropShadow_179_581"/>
<feBlend mode="normal" in="SourceGraphic" in2="effect1_dropShadow_179_581" result="shape"/>
</filter>
</defs>
</svg>
