<svg width="400" height="900" viewBox="0 0 400 900" fill="none" xmlns="http://www.w3.org/2000/svg">
<rect width="400" height="900" fill="white"/>
<rect width="400" height="58" fill="white"/>
<path d="M374.001 30.4008L369.101 35.3008C368.917 35.4841 368.684 35.5758 368.401 35.5758C368.117 35.5758 367.884 35.4841 367.701 35.3008C367.517 35.1174 367.426 34.8841 367.426 34.6008C367.426 34.3174 367.517 34.0841 367.701 33.9008L372.601 29.0008L367.701 24.1008C367.517 23.9174 367.426 23.6841 367.426 23.4008C367.426 23.1174 367.517 22.8841 367.701 22.7008C367.884 22.5174 368.117 22.4258 368.401 22.4258C368.684 22.4258 368.917 22.5174 369.101 22.7008L374.001 27.6008L378.901 22.7008C379.084 22.5174 379.317 22.4258 379.601 22.4258C379.884 22.4258 380.117 22.5174 380.301 22.7008C380.484 22.8841 380.576 23.1174 380.576 23.4008C380.576 23.6841 380.484 23.9174 380.301 24.1008L375.401 29.0008L380.301 33.9008C380.484 34.0841 380.576 34.3174 380.576 34.6008C380.576 34.8841 380.484 35.1174 380.301 35.3008C380.117 35.4841 379.884 35.5758 379.601 35.5758C379.317 35.5758 379.084 35.4841 378.901 35.3008L374.001 30.4008Z" fill="black"/>
<path d="M138.323 112.926V114.684H131.312V120.719H129.163V114.684H122.23V112.926H138.323ZM123.07 110.035C126.536 109.596 128.861 107.73 129.017 105.797H123.714V104.078H136.839V105.797H131.536C131.683 107.73 133.988 109.596 137.484 110.035L136.702 111.734C133.695 111.305 131.351 109.928 130.277 108.023C129.193 109.928 126.868 111.305 123.89 111.734L123.07 110.035ZM148.529 104.547V112.945H140.013V104.547H148.529ZM142.142 120.27V114.508H144.33V118.512H154.31V120.27H142.142ZM142.162 111.207H146.38V106.285H142.162V111.207ZM151.634 115.699V103.102H153.822V115.699H151.634ZM171.098 103.082V116.305H169.027V103.082H171.098ZM155.883 112.281C158.236 111.139 159.34 108.795 159.34 106.695V104.293H161.449V106.695C161.449 108.756 162.465 110.807 164.711 111.812L163.5 113.492C162.016 112.799 161 111.607 160.414 110.172C159.789 111.793 158.686 113.17 157.074 113.922L155.883 112.281ZM159.281 120.387V114.723H161.449V118.629H171.586V120.387H159.281ZM163.129 109.059V107.281H165.492V103.395H167.562V115.777H165.492V109.059H163.129ZM187.69 103.082V120.758H185.541V111.227H182.221V109.469H185.541V103.082H187.69ZM173.686 116.695V104.605H181.948V106.383H175.873V109.547H181.245V111.266H175.873V114.898C178.559 114.889 180.571 114.791 182.846 114.43L183.061 116.188C180.493 116.578 178.227 116.676 175.073 116.695H173.686ZM205.005 103.082V120.738H202.915V103.082H205.005ZM189.946 110.719C189.946 106.832 191.45 104.42 193.755 104.43C195.893 104.42 197.348 106.422 197.602 109.723H199.302V103.395H201.372V119.879H199.302V111.48H197.622C197.417 114.928 195.942 117.037 193.755 117.027C191.45 117.037 189.946 114.615 189.946 110.719ZM191.958 110.719C191.948 113.482 192.632 114.967 193.755 114.957C194.927 114.967 195.62 113.482 195.63 110.719C195.62 107.965 194.927 106.471 193.755 106.48C192.632 106.471 191.948 107.965 191.958 110.719ZM219.185 113.98C222.847 113.98 225.093 115.221 225.103 117.34C225.093 119.488 222.847 120.729 219.185 120.738C215.494 120.729 213.209 119.488 213.209 117.34C213.209 115.221 215.494 113.98 219.185 113.98ZM211.607 112.438V104.195H213.755V106.578H217.877V104.195H220.025V112.438H211.607ZM213.755 110.719H217.877V108.277H213.755V110.719ZM215.377 117.34C215.377 118.434 216.763 119.029 219.185 119.02C221.597 119.029 222.955 118.434 222.955 117.34C222.955 116.246 221.597 115.689 219.185 115.68C216.763 115.689 215.377 116.246 215.377 117.34ZM222.759 113.551V103.082H224.927V107.301H227.388V109.117H224.927V113.551H222.759ZM244 111.91V113.648H237.184V116.891H235.035V113.648H227.867V111.91H244ZM229.82 120.387V115.27H231.988V118.629H242.223V120.387H229.82ZM229.918 110.27V103.883H241.93V110.27H229.918ZM232.027 108.57H239.781V105.582H232.027V108.57ZM258.6 103.082V110.113H261.315V111.91H258.6V120.738H256.452V103.082H258.6ZM244.674 107.535V105.797H248.854V103.336H251.022V105.797H255.084V107.535H244.674ZM245.495 112.848C245.475 110.406 247.37 108.678 249.948 108.688C252.487 108.678 254.371 110.406 254.381 112.848C254.371 115.279 252.487 116.988 249.948 116.988C247.37 116.988 245.475 115.279 245.495 112.848ZM247.565 112.848C247.555 114.283 248.561 115.201 249.948 115.191C251.305 115.201 252.291 114.283 252.311 112.848C252.291 111.412 251.305 110.465 249.948 110.465C248.561 110.465 247.555 111.412 247.565 112.848ZM266.481 104.371C268.073 104.371 269.391 105.26 270.182 106.812H274.313V103.082H276.462V120.758H274.313V114.078H270.339C269.567 115.836 268.18 116.852 266.481 116.852C263.825 116.852 261.94 114.439 261.95 110.602C261.94 106.793 263.825 104.371 266.481 104.371ZM264.04 110.602C264.03 113.316 265.026 114.889 266.481 114.898C267.946 114.889 268.932 113.316 268.942 110.602C268.932 107.906 267.946 106.324 266.481 106.324C265.026 106.324 264.03 107.906 264.04 110.602ZM270.798 108.59C270.925 109.205 270.993 109.879 270.993 110.602C270.993 111.207 270.944 111.783 270.846 112.32H274.313V108.59H270.798ZM91.159 142.254H93.4832L94.6844 143.836C95.4949 142.996 95.9734 141.688 95.9637 139.93C95.9734 136.697 94.3523 134.949 92.0379 134.949C89.7332 134.949 88.1023 136.697 88.1121 139.93C88.1023 143.162 89.7332 144.91 92.0379 144.91C92.409 144.91 92.7605 144.861 93.0926 144.773L91.159 142.254ZM85.5535 139.93C85.5437 135.359 88.3172 132.664 92.0379 132.664C95.7391 132.664 98.532 135.359 98.5223 139.93C98.532 142.498 97.6531 144.471 96.2273 145.711L98.1902 148.23H95.7098L94.5281 146.736C93.7664 147.039 92.9266 147.195 92.0379 147.195C88.3172 147.195 85.5437 144.49 85.5535 139.93ZM100.407 147V132.859H105.72C108.962 132.859 110.691 134.676 110.7 137.371C110.691 139.295 109.812 140.721 108.152 141.395L111.208 147H108.376L105.603 141.824H102.946V147H100.407ZM102.946 139.695H105.329C107.243 139.705 108.103 138.885 108.103 137.371C108.103 135.867 107.243 134.988 105.329 134.988H102.946V139.695ZM126.121 132.645V134.246C126.111 136.385 126.14 138.855 125.339 142.586L123.211 142.371C123.523 140.945 123.709 139.686 123.816 138.562L113.406 139.148L113.093 137.293L123.943 136.902C123.982 135.984 123.992 135.164 123.992 134.402H113.64V132.645H126.121ZM111.765 146.57V144.773H117.703V140.418H119.851V144.773H127.859V146.57H111.765ZM142.986 139.363V141.102H130.604V132.625H142.85V134.383H132.752V139.363H142.986ZM128.65 146.492V144.695H144.783V146.492H128.65ZM160.077 132.41V134.012H156.454C156.6 135.096 158.104 135.984 160.468 136.258L159.745 137.84C157.655 137.557 156.151 136.766 155.389 135.672C154.628 136.824 153.095 137.674 150.956 137.996L150.233 136.434C152.645 136.131 154.139 135.145 154.286 134.012H150.682V132.41H154.296V131.043H156.444V132.41H160.077ZM149.843 138.934C151.18 138.934 152.704 138.924 154.296 138.885V137.273H156.444V138.816C157.909 138.738 159.364 138.631 160.721 138.465L160.878 139.949C157.216 140.535 153.163 140.574 150.077 140.574L149.843 138.934ZM152.069 143.172V141.59H163.866V145.77H154.276V146.961H164.491V148.582H152.108V144.285H161.698V143.172H152.069ZM161.698 140.906V131.082H163.866V135.008H166.249V136.785H163.866V140.906H161.698ZM171.669 132.078C173.095 132.068 174.335 132.596 175.165 133.484H179.384V131.082H181.552V141.473H179.384V139.227H175.155C174.316 140.096 173.085 140.623 171.669 140.613C169.003 140.623 167.001 138.836 167.001 136.355C167.001 133.855 169.003 132.068 171.669 132.078ZM169.071 136.355C169.071 137.801 170.155 138.777 171.669 138.777C173.134 138.777 174.218 137.801 174.228 136.355C174.218 134.861 173.134 133.934 171.669 133.934C170.155 133.934 169.071 134.861 169.071 136.355ZM169.579 145.281C169.56 143.104 171.874 141.834 175.575 141.844C179.286 141.834 181.601 143.104 181.611 145.281C181.601 147.449 179.286 148.719 175.575 148.719C171.874 148.719 169.56 147.449 169.579 145.281ZM171.708 145.281C171.689 146.404 173.124 147.01 175.575 147.02C178.075 147.01 179.482 146.404 179.482 145.281C179.482 144.129 178.075 143.514 175.575 143.504C173.124 143.514 171.689 144.129 171.708 145.281ZM176.142 135.223C176.239 135.584 176.298 135.955 176.298 136.355C176.298 136.746 176.239 137.117 176.152 137.469H179.384V135.223H176.142ZM191.679 131.355C195.703 131.365 198.037 132.43 198.046 134.383C198.037 136.355 195.703 137.42 191.679 137.43C187.666 137.42 185.312 136.355 185.312 134.383C185.312 132.43 187.666 131.365 191.679 131.355ZM183.652 140.105V138.367H199.746V140.105H183.652ZM185.546 142.898V141.297H197.734V145.613H187.695V146.922H198.222V148.582H185.566V144.07H195.605V142.898H185.546ZM187.597 134.383C187.587 135.359 188.994 135.809 191.679 135.809C194.404 135.809 195.8 135.359 195.8 134.383C195.8 133.475 194.404 132.957 191.679 132.957C188.994 132.957 187.587 133.475 187.597 134.383ZM211.582 134.676C211.582 136.873 213.086 139.021 215.899 139.891L214.786 141.59C212.784 140.945 211.329 139.617 210.518 137.938C209.727 139.764 208.223 141.219 206.133 141.941L205.02 140.223C207.862 139.285 209.375 137 209.395 134.676V134.168H205.586V132.43H215.293V134.168H211.582V134.676ZM207.911 148.387V142.742H210.098V146.629H220.079V148.387H207.911ZM217.403 143.914V131.102H219.59V143.914H217.403ZM236.866 131.082V142.176H234.796V137.371H233.077V141.59H231.046V131.434H233.077V135.613H234.796V131.082H236.866ZM221.671 134.695V132.996H225.011V131.238H227.159V132.996H230.46V134.695H221.671ZM222.296 138.465C222.276 136.629 223.878 135.408 226.085 135.418C228.331 135.408 229.913 136.629 229.932 138.465C229.913 140.301 228.331 141.512 226.085 141.512C223.878 141.512 222.276 140.301 222.296 138.465ZM224.229 138.465C224.229 139.373 224.981 139.949 226.085 139.949C227.198 139.949 227.96 139.373 227.96 138.465C227.96 137.557 227.198 136.98 226.085 136.98C224.981 136.98 224.229 137.557 224.229 138.465ZM224.854 145.574C224.845 143.543 227.13 142.4 230.909 142.391C234.679 142.4 236.954 143.543 236.964 145.574C236.954 147.566 234.679 148.719 230.909 148.719C227.13 148.719 224.845 147.566 224.854 145.574ZM227.022 145.574C227.012 146.541 228.389 147.068 230.909 147.059C233.419 147.068 234.766 146.541 234.776 145.574C234.766 144.549 233.419 144.031 230.909 144.051C228.389 144.031 227.012 144.549 227.022 145.574ZM247.267 133.895V135.633H238.614V133.895H241.896V131.59H244.044V133.895H247.267ZM239.122 140.672C239.103 138.27 240.734 136.561 242.97 136.57C245.216 136.561 246.818 138.27 246.818 140.672C246.818 143.123 245.216 144.832 242.97 144.832C240.734 144.832 239.103 143.123 239.122 140.672ZM241.036 140.672C241.027 142.098 241.827 142.986 242.97 142.977C244.103 142.986 244.904 142.098 244.904 140.672C244.904 139.285 244.103 138.367 242.97 138.367C241.827 138.367 241.027 139.285 241.036 140.672ZM248.009 147.938V131.453H250.04V138.348H251.759V131.082H253.829V148.738H251.759V140.105H250.04V147.938H248.009ZM275.979 140.926V142.684H268.967V148.719H266.818V142.684H259.885V140.926H275.979ZM260.725 138.035C264.191 137.596 266.516 135.73 266.672 133.797H261.369V132.078H274.494V133.797H269.191C269.338 135.73 271.643 137.596 275.139 138.035L274.357 139.734C271.35 139.305 269.006 137.928 267.932 136.023C266.848 137.928 264.523 139.305 261.545 139.734L260.725 138.035ZM282.278 135.711C282.287 138.562 283.264 141.531 285.657 143.035L284.465 144.695C282.873 143.738 281.838 142.098 281.252 140.174C280.618 142.293 279.485 144.09 277.825 145.105L276.477 143.484C279.045 141.932 280.178 138.816 280.188 135.809V132.645H282.278V135.711ZM283.762 138.953V137.156H286.282V131.395H288.332V147.879H286.282V138.953H283.762ZM289.914 148.738V131.082H292.004V148.738H289.914ZM309.788 144.812V146.59H293.655V144.812H297.386V140.35C295.979 139.539 295.13 138.27 295.139 136.707C295.13 133.895 297.884 132.039 301.682 132.039C305.501 132.039 308.274 133.895 308.264 136.707C308.274 138.25 307.444 139.49 306.077 140.301V144.812H309.788ZM297.268 136.707C297.259 138.514 299.046 139.666 301.682 139.656C304.309 139.666 306.136 138.514 306.136 136.707C306.136 134.871 304.309 133.748 301.682 133.758C299.046 133.748 297.259 134.871 297.268 136.707ZM299.534 144.812H303.87V141.131C303.196 141.277 302.464 141.355 301.682 141.355C300.921 141.355 300.198 141.277 299.534 141.141V144.812ZM312.689 147.156C311.849 147.156 311.155 146.473 311.165 145.633C311.155 144.812 311.849 144.139 312.689 144.129C313.499 144.139 314.193 144.812 314.193 145.633C314.193 146.473 313.499 147.156 312.689 147.156Z" fill="black"/>
<path d="M150.945 172.581C150.952 174.332 152.336 175.928 154.285 176.565L153.699 177.459C152.183 176.946 150.981 175.877 150.388 174.5C149.817 175.979 148.601 177.151 147.048 177.708L146.448 176.814C148.403 176.126 149.78 174.427 149.788 172.581V172.024H146.741V171.087H153.948V172.024H150.945V172.581ZM148.249 179.686V178.733H157.009V183.187H155.867V179.686H148.249ZM155.867 178.045V170.164H157.009V178.045H155.867ZM169.658 170.179V180.066H168.501V178.719H165.806V177.884H168.501V170.179H169.658ZM158.848 176.214C161.272 176.199 164.539 176.177 167.329 175.833L167.403 176.668C166.245 176.851 165.022 176.968 163.828 177.042V179.612H162.671V177.1C161.353 177.151 160.1 177.151 159.009 177.151L158.848 176.214ZM159.903 172.977C159.895 171.607 161.199 170.706 163.125 170.706C165.037 170.706 166.341 171.607 166.348 172.977C166.341 174.368 165.037 175.232 163.125 175.232C161.199 175.232 159.895 174.368 159.903 172.977ZM160.723 182.908V179.1H161.88V181.941H169.981V182.908H160.723ZM161.001 172.977C160.987 173.826 161.851 174.375 163.125 174.383C164.363 174.375 165.242 173.826 165.249 172.977C165.242 172.142 164.363 171.57 163.125 171.585C161.851 171.57 160.987 172.142 161.001 172.977ZM175.848 171.116C177.891 171.124 179.341 172.369 179.349 174.178C179.341 175.994 177.891 177.232 175.848 177.239C173.79 177.232 172.325 175.994 172.332 174.178C172.325 172.369 173.79 171.124 175.848 171.116ZM171.658 179.363C174.061 179.371 177.378 179.349 180.257 178.924L180.345 179.773C177.364 180.33 174.163 180.345 171.819 180.345L171.658 179.363ZM173.46 174.178C173.453 175.394 174.456 176.229 175.848 176.229C177.225 176.229 178.228 175.394 178.221 174.178C178.228 172.969 177.225 172.127 175.848 172.127C174.456 172.127 173.453 172.969 173.46 174.178ZM181.121 183.216V170.164H182.264V183.216H181.121ZM197.894 170.164V174.134H199.857V175.101H197.894V179.773H196.752V170.164H197.894ZM187.963 174.295C187.955 172.405 189.435 171.094 191.376 171.087C193.331 171.094 194.789 172.405 194.803 174.295C194.789 176.177 193.331 177.503 191.376 177.503C189.435 177.503 187.955 176.177 187.963 174.295ZM189.09 174.295C189.083 175.577 190.087 176.492 191.376 176.492C192.687 176.492 193.668 175.577 193.675 174.295C193.668 173.006 192.687 172.098 191.376 172.098C190.087 172.098 189.083 173.006 189.09 174.295ZM189.75 182.908V178.777H190.878V181.941H198.495V182.908H189.75ZM211.496 170.164V183.187H210.368V176.448H208.493V182.513H207.409V170.457H208.493V175.467H210.368V170.164H211.496ZM201.037 179.817V171.761H202.179V178.792C203.468 178.785 204.86 178.689 206.442 178.367L206.588 179.393C204.772 179.722 203.278 179.817 201.842 179.817H201.037ZM224.203 170.164V183.187H223.09V170.164H224.203ZM213.202 175.789C213.21 173.021 214.308 171.27 216 171.263C217.582 171.27 218.652 172.793 218.798 175.247H220.483V170.442H221.581V182.527H220.483V176.199H218.805C218.696 178.733 217.604 180.323 216 180.315C214.308 180.323 213.21 178.558 213.202 175.789ZM214.286 175.789C214.272 177.898 214.946 179.231 216 179.217C217.062 179.231 217.736 177.898 217.729 175.789C217.736 173.672 217.062 172.347 216 172.347C214.946 172.347 214.272 173.672 214.286 175.789ZM239.468 170.149V175.291H241.372V176.272H239.468V183.187H238.325V170.149H239.468ZM229.565 179.773V171.541H232.876V172.493H230.708V178.799C231.352 178.777 232.143 178.719 233.008 178.528L233.125 179.495C231.894 179.751 230.913 179.773 230.137 179.773H229.565ZM233.623 179.773V171.541H237.095V172.493H234.765V178.807C235.784 178.792 236.596 178.733 237.519 178.499L237.637 179.466C236.494 179.744 235.571 179.773 234.253 179.773H233.623ZM251.912 170.164V175.35H254.094V176.316H251.912V183.216H250.769V170.164H251.912ZM242.346 172.332V171.38H248.264V176.038H243.518V179.085C245.935 179.092 247.627 178.997 249.597 178.631L249.714 179.583C247.664 179.957 245.928 180.052 243.416 180.066H242.376V175.086H247.122V172.332H242.346ZM132.941 199.675H134.377L135.497 201.14C136.288 200.444 136.786 199.279 136.794 197.697C136.786 194.958 135.3 193.479 133.381 193.479C131.462 193.479 129.975 194.958 129.968 197.697C129.975 200.429 131.462 201.909 133.381 201.916C133.776 201.916 134.157 201.85 134.509 201.726L132.941 199.675ZM128.693 197.697C128.686 194.343 130.656 192.248 133.381 192.248C136.098 192.248 138.075 194.343 138.068 197.697C138.075 199.682 137.387 201.22 136.259 202.15L137.643 203.996H136.208L135.285 202.758C134.714 203.015 134.069 203.146 133.381 203.146C130.656 203.146 128.686 201.052 128.693 197.697ZM139.702 203V192.395H143.305C145.788 192.395 146.923 193.771 146.923 195.661C146.923 197.067 146.294 198.166 144.946 198.635L147.334 203H145.796L143.576 198.876C143.496 198.884 143.408 198.884 143.32 198.884H141.02V203H139.702ZM141.02 197.683H143.261C144.953 197.683 145.612 196.921 145.62 195.661C145.612 194.394 144.953 193.566 143.247 193.566H141.02V197.683ZM158.298 192.438V193.698C158.284 195.28 158.298 197.067 157.756 199.719L156.628 199.587C156.877 198.408 157.009 197.375 157.082 196.459L149.128 196.936L148.938 195.925L157.134 195.588C157.163 194.899 157.17 194.284 157.17 193.698V193.391H149.319V192.438H158.298ZM147.883 202.414V201.433H152.541V198.063H153.669V201.433H159.748V202.414H147.883ZM171.065 197.434V198.386H162.07V192.38H170.933V193.332H163.213V197.434H171.065ZM160.547 202.414V201.447H172.471V202.414H160.547ZM185.12 197.214V198.122H173.196V197.214H185.12ZM174.632 200.026V199.162H183.626V201.931H175.804V203.176H184.051V204.011H174.646V201.14H182.483V200.026H174.632ZM174.705 192.395V191.56H183.582V194.255H175.892V195.397H183.816V196.232H174.749V193.464H182.425V192.395H174.705ZM196.898 192.292V193.156H193.998C194.027 194.233 195.419 195.083 197.206 195.368L196.796 196.218C195.235 195.954 194.005 195.273 193.448 194.321C192.899 195.324 191.661 196.057 190.087 196.35L189.676 195.515C191.471 195.207 192.848 194.284 192.87 193.156H189.984V192.292H192.87V191.135H193.998V192.292H196.898ZM189.325 197.243C190.372 197.243 191.595 197.236 192.87 197.192V195.749H193.998V197.148C195.199 197.089 196.407 197.001 197.528 196.848L197.601 197.653C194.855 198.122 191.764 198.151 189.471 198.137L189.325 197.243ZM191.024 200.012V199.147H199.505V201.945H192.196V203.161H200.004V204.04H191.053V201.11H198.363V200.012H191.024ZM198.348 198.576V191.164H199.505V194.313H201.454V195.266H199.505V198.576H198.348ZM205.592 191.955C206.691 191.948 207.621 192.365 208.229 193.054H211.642V191.164H212.799V198.884H211.642V197.023H208.229C207.628 197.712 206.691 198.129 205.592 198.122C203.644 198.129 202.201 196.855 202.208 195.046C202.201 193.222 203.644 191.948 205.592 191.955ZM203.307 195.046C203.307 196.254 204.259 197.148 205.592 197.141C206.881 197.148 207.848 196.254 207.848 195.046C207.848 193.808 206.881 192.944 205.592 192.951C204.259 192.944 203.307 193.808 203.307 195.046ZM204.113 201.667C204.105 200.1 205.775 199.191 208.478 199.191C211.173 199.191 212.843 200.1 212.843 201.667C212.843 203.249 211.173 204.157 208.478 204.157C205.775 204.157 204.105 203.249 204.113 201.667ZM205.241 201.667C205.233 202.648 206.478 203.242 208.478 203.234C210.477 203.242 211.723 202.648 211.715 201.667C211.723 200.678 210.477 200.092 208.478 200.085C206.478 200.092 205.233 200.678 205.241 201.667ZM208.778 193.991C208.895 194.313 208.961 194.665 208.961 195.046C208.961 195.412 208.895 195.756 208.786 196.071H211.642V193.991H208.778ZM221.171 193.42V194.357H214.638V193.42H217.348V191.56H218.49V193.42H221.171ZM215.107 198.195C215.107 196.467 216.286 195.244 217.904 195.236C219.545 195.244 220.717 196.467 220.732 198.195C220.717 199.946 219.545 201.176 217.904 201.184C216.286 201.176 215.107 199.946 215.107 198.195ZM216.132 198.195C216.132 199.353 216.872 200.18 217.904 200.173C218.945 200.18 219.706 199.353 219.706 198.195C219.706 197.053 218.945 196.218 217.904 196.203C216.872 196.218 216.132 197.053 216.132 198.195ZM221.845 203.542V191.486H222.929V196.657H224.657V191.164H225.756V204.187H224.657V197.609H222.929V203.542H221.845ZM237.373 193.01C237.366 194.753 239.687 196.232 241.958 196.569L241.533 197.478C239.504 197.133 237.519 196.049 236.728 194.482C235.937 196.049 233.952 197.133 231.953 197.478L231.499 196.569C233.762 196.232 236.076 194.753 236.084 193.01V192.922H231.909V191.984H241.533V192.922H237.373V193.01ZM230.796 199.543V198.591H242.661V199.543H237.27V204.187H236.142V199.543H230.796ZM247.327 194.87C247.327 196.943 248.337 199.177 250.066 200.202L249.407 201.096C248.147 200.334 247.246 198.942 246.792 197.353C246.316 199.089 245.349 200.583 244.046 201.374L243.313 200.51C245.115 199.455 246.213 197.148 246.213 194.914V192.395H247.327V194.87ZM248.63 196.818V195.837H250.842V191.442H251.926V203.527H250.842V196.818H248.63ZM253.508 204.187V191.164H254.622V204.187H253.508ZM268.047 201.55V202.517H256.123V201.55H259.082V198.042C257.969 197.463 257.295 196.525 257.295 195.339C257.295 193.325 259.273 191.999 262.056 191.984C264.839 191.999 266.817 193.325 266.817 195.339C266.817 196.503 266.165 197.426 265.088 198.005V201.55H268.047ZM258.409 195.339C258.401 196.796 259.917 197.771 262.056 197.771C264.173 197.771 265.704 196.796 265.704 195.339C265.704 193.881 264.173 192.922 262.056 192.937C259.917 192.922 258.401 193.881 258.409 195.339ZM260.21 201.55H263.931V198.452C263.367 198.598 262.737 198.679 262.056 198.679C261.39 198.679 260.767 198.605 260.21 198.459V201.55ZM270.164 203.088C269.652 203.081 269.212 202.656 269.227 202.136C269.212 201.623 269.652 201.198 270.164 201.198C270.684 201.198 271.109 201.623 271.102 202.136C271.109 202.656 270.684 203.081 270.164 203.088Z" fill="#707070"/>
<path d="M141.25 304.25V288.25H157.75" stroke="#CECECE" stroke-width="2"/>
<path d="M242.75 288L258.75 288L258.75 304.5" stroke="#CECECE" stroke-width="2"/>
<path d="M141.25 389.5V405.5H157.75" stroke="#CECECE" stroke-width="2"/>
<path d="M242.75 405.75L258.75 405.75L258.75 389.25" stroke="#CECECE" stroke-width="2"/>
<path d="M173.25 333.333V320H186.583V325.333H178.583V333.333H173.25ZM173.25 373.333V360H178.583V368H186.583V373.333H173.25ZM213.25 373.333V368H221.25V360H226.583V373.333H213.25ZM221.25 333.333V325.333H213.25V320H226.583V333.333H221.25ZM214.583 361.333H218.583V365.333H214.583V361.333ZM214.583 353.333H218.583V357.333H214.583V353.333ZM210.583 357.333H214.583V361.333H210.583V357.333ZM206.583 361.333H210.583V365.333H206.583V361.333ZM202.583 357.333H206.583V361.333H202.583V357.333ZM210.583 349.333H214.583V353.333H210.583V349.333ZM206.583 353.333H210.583V357.333H206.583V353.333ZM202.583 349.333H206.583V353.333H202.583V349.333ZM218.583 328V344H202.583V328H218.583ZM197.25 349.333V365.333H181.25V349.333H197.25ZM197.25 328V344H181.25V328H197.25ZM193.25 361.333V353.333H185.25V361.333H193.25ZM193.25 340V332H185.25V340H193.25ZM214.583 340V332H206.583V340H214.583Z" fill="#5F6368"/>
<line x1="142.25" y1="346.5" x2="258.25" y2="346.5" stroke="#0077FA" stroke-width="3"/>
<rect width="400" height="900" fill="black" fill-opacity="0.5"/>
</svg>
