<svg width="400" height="80" viewBox="0 0 400 80" fill="none" xmlns="http://www.w3.org/2000/svg">
<rect width="400" height="80" fill="white"/>
<rect x="20" width="360" height="50" rx="8" fill="#0077FA"/>
<path d="M197.252 18.0527V22.4688H199.377V23.7637H197.252V28.0635H195.675V18.0527H197.252ZM185.448 26.4033C186.602 26.4033 187.938 26.4033 189.333 26.3701V25.3657C187.64 25.1748 186.561 24.3779 186.577 23.1826C186.561 21.8213 187.98 20.9746 190.113 20.9912C192.247 20.9746 193.641 21.8213 193.649 23.1826C193.641 24.3696 192.587 25.1665 190.91 25.3657V26.312C192.238 26.2456 193.583 26.1377 194.828 25.9551L194.961 27.084C191.765 27.6401 188.237 27.665 185.614 27.665L185.448 26.4033ZM185.83 20.4932V19.3145H189.333V17.9199H190.91V19.3145H194.413V20.4932H185.83ZM187.308 29.9893V28.7607H197.252V32.9111H195.675V29.9893H187.308ZM188.071 23.1826C188.071 23.8799 188.843 24.3364 190.113 24.3281C191.367 24.3364 192.147 23.8799 192.139 23.1826C192.147 22.4688 191.367 22.0537 190.113 22.0703C188.843 22.0537 188.071 22.4688 188.071 23.1826ZM212.575 18.0527V28.8604H210.998V18.0527H212.575ZM200.539 22.7344C200.547 20.5845 202.257 19.0571 204.507 19.0488C206.748 19.0571 208.458 20.5845 208.458 22.7344C208.458 24.9175 206.748 26.4365 204.507 26.4365C202.257 26.4365 200.547 24.9175 200.539 22.7344ZM202.083 22.7344C202.075 24.1372 203.121 25.0586 204.507 25.0586C205.868 25.0586 206.914 24.1372 206.914 22.7344C206.914 21.3647 205.868 20.4268 204.507 20.4268C203.121 20.4268 202.075 21.3647 202.083 22.7344ZM202.847 32.5957V27.7646H204.44V31.3174H213.023V32.5957H202.847Z" fill="white"/>
</svg>
