<svg width="400" height="727" viewBox="0 0 400 727" fill="none" xmlns="http://www.w3.org/2000/svg">
<rect width="400" height="727" fill="#F4F7FE"/>
<rect width="400" height="58" fill="#F4F7FE"/>
<path d="M374.001 30.4008L369.101 35.3008C368.917 35.4841 368.684 35.5758 368.401 35.5758C368.117 35.5758 367.884 35.4841 367.701 35.3008C367.517 35.1174 367.426 34.8841 367.426 34.6008C367.426 34.3174 367.517 34.0841 367.701 33.9008L372.601 29.0008L367.701 24.1008C367.517 23.9174 367.426 23.6841 367.426 23.4008C367.426 23.1174 367.517 22.8841 367.701 22.7008C367.884 22.5174 368.117 22.4258 368.401 22.4258C368.684 22.4258 368.917 22.5174 369.101 22.7008L374.001 27.6008L378.901 22.7008C379.084 22.5174 379.317 22.4258 379.601 22.4258C379.884 22.4258 380.117 22.5174 380.301 22.7008C380.484 22.8841 380.576 23.1174 380.576 23.4008C380.576 23.6841 380.484 23.9174 380.301 24.1008L375.401 29.0008L380.301 33.9008C380.484 34.0841 380.576 34.3174 380.576 34.6008C380.576 34.8841 380.484 35.1174 380.301 35.3008C380.117 35.4841 379.884 35.5758 379.601 35.5758C379.317 35.5758 379.084 35.4841 378.901 35.3008L374.001 30.4008Z" fill="black"/>
<path d="M63.1569 73.3945V84H61.8386V73.3945H63.1569ZM72.437 76.7344C72.1294 75.2695 70.877 74.4785 69.478 74.4785C67.5591 74.4785 66.0723 75.958 66.0649 78.6973C66.0723 81.4292 67.5591 82.9087 69.478 82.916C70.877 82.9087 72.1221 82.125 72.437 80.6748H73.7554C73.3745 82.8428 71.6314 84.1465 69.478 84.1465C66.7534 84.1465 64.7832 82.0518 64.7905 78.6973C64.7832 75.3428 66.7534 73.248 69.478 73.248C71.624 73.248 73.3599 74.5298 73.7554 76.7344H72.437ZM84.6983 74.0098C84.691 75.7529 87.0128 77.2324 89.2833 77.5693L88.8585 78.4775C86.8297 78.1333 84.8448 77.0493 84.0538 75.4819C83.2628 77.0493 81.2779 78.1333 79.2784 78.4775L78.8243 77.5693C81.0875 77.2324 83.402 75.7529 83.4093 74.0098V73.9219H79.2345V72.9844H88.8585V73.9219H84.6983V74.0098ZM78.1212 80.543V79.5908H89.9864V80.543H84.5958V85.1865H83.4679V80.543H78.1212ZM97.5819 73.3066V79.3418H91.4735V73.3066H97.5819ZM92.6015 78.4189H96.454V74.2588H92.6015V78.4189ZM93.1288 84.7471V80.6309H94.2714V83.7949H101.947V84.7471H93.1288ZM100.394 81.5391V72.1787H101.537V81.5391H100.394ZM115.329 78.3604V79.3271H103.449V78.3604H115.329ZM104.884 82.8135C104.877 81.3193 106.569 80.4697 109.382 80.4697C112.172 80.4697 113.849 81.3193 113.864 82.8135C113.849 84.3223 112.172 85.1572 109.382 85.1572C106.569 85.1572 104.877 84.3223 104.884 82.8135ZM104.958 77.1152V72.6914H113.849V73.6582H106.086V76.1777H113.937V77.1152H104.958ZM106.056 82.8135C106.042 83.729 107.294 84.249 109.382 84.249C111.447 84.249 112.699 83.729 112.707 82.8135C112.699 81.9053 111.447 81.3779 109.382 81.3633C107.294 81.3779 106.042 81.9053 106.056 82.8135ZM128.022 79.3418V80.2939H116.098V79.3418H121.489V77.9648H117.651V74.7861H125.327V73.4385H117.607V72.501H126.484V75.6504H118.793V77.042H126.762V77.9648H122.617V79.3418H128.022ZM117.431 82.2275V81.29H126.557V85.0693H125.4V82.2275H117.431ZM140.642 78.3604V79.3125H128.777V78.3604H140.642ZM129.45 76.6611C131.721 76.3975 133.911 75.2769 133.962 73.79H129.861V72.8379H139.587V73.79H135.456C135.508 75.2622 137.676 76.3975 139.983 76.6611L139.558 77.584C137.427 77.313 135.427 76.3535 134.709 74.9106C133.992 76.3535 132.007 77.313 129.861 77.584L129.45 76.6611ZM130.212 82.8135C130.205 81.3193 131.897 80.4551 134.709 80.4551C137.5 80.4551 139.177 81.3193 139.192 82.8135C139.177 84.3223 137.5 85.1572 134.709 85.1572C131.897 85.1572 130.205 84.3223 130.212 82.8135ZM131.384 82.8135C131.369 83.7217 132.622 84.2417 134.709 84.2344C136.775 84.2417 138.027 83.7217 138.034 82.8135C138.027 81.8979 136.775 81.3779 134.709 81.3633C132.622 81.3779 131.369 81.8979 131.384 82.8135ZM147.373 73.0137C150.09 73.021 152.134 74.4419 152.134 76.5879C152.134 78.7559 150.09 80.1768 147.373 80.1621C144.656 80.1768 142.612 78.7559 142.612 76.5879C142.612 74.4419 144.656 73.021 147.373 73.0137ZM141.441 83.458V82.4912H153.364V83.458H141.441ZM143.711 76.5879C143.696 78.1699 145.271 79.2246 147.373 79.2246C149.461 79.2246 151.021 78.1699 151.021 76.5879C151.021 75.0278 149.461 73.9438 147.373 73.9512C145.271 73.9438 143.696 75.0278 143.711 76.5879ZM166.028 82.6084V83.5752H154.104V82.6084H159.466V80.1475H155.599V76.1338H163.392V74.083H155.569V73.1309H164.519V77.0713H156.741V79.1953H164.827V80.1475H160.594V82.6084H166.028ZM171.917 72.7207V74.5957H175.711V72.7207H176.854V78.3896H170.79V72.7207H171.917ZM171.917 77.4521H175.711V75.4893H171.917V77.4521ZM172.108 80.4404V79.5176H180.414V82.667H173.265V84.1025H180.897V85.04H172.137V81.7881H179.271V80.4404H172.108ZM179.271 78.9023V72.1641H180.414V74.9912H182.376V75.958H180.414V78.9023H179.271ZM185.592 79.6201V81.3486H192.111V79.6201H193.253V85.0107H184.45V79.6201H185.592ZM182.897 78.4482V77.4961H191.766C192.118 75.8774 192.118 74.7129 192.111 73.7168H184.406V72.7646H193.253V73.7168C193.253 74.7129 193.253 75.8701 192.894 77.4961H194.821V78.4482H182.897ZM185.592 84.0732H192.111V82.2568H185.592V84.0732Z" fill="black"/>
<line x1="209.75" y1="72" x2="209.75" y2="87" stroke="#C6C6C8" stroke-width="0.5"/>
<circle cx="281.5" cy="61" r="3" fill="#0077FA"/>
<path d="M236.33 79.3711V80.8652H231.145V85.3477H229.299V80.8652H224.172V79.3711H236.33ZM224.772 77.1299C227.468 76.8003 228.962 75.4966 229.16 74.1855H225.271V72.7207H235.246V74.1855H231.357C231.547 75.4966 233.02 76.8003 235.759 77.1299L235.085 78.5947C232.741 78.2798 231.064 77.2837 230.258 75.9141C229.445 77.2837 227.783 78.2798 225.461 78.5947L224.772 77.1299ZM244.028 73.0869V79.5176H237.51V73.0869H244.028ZM239.062 85.0547V80.6309H240.952V83.5459H248.349V85.0547H239.062ZM239.355 78.0381H242.168V74.5664H239.355V78.0381ZM246.123 81.5098V72.0322H247.998V81.5098H246.123ZM260.955 72.0176V81.9932H259.182V72.0176H260.955ZM249.338 78.8438C251.155 77.9722 251.887 76.229 251.887 74.6543V72.9111H253.704V74.6543C253.696 76.1924 254.363 77.7231 256.077 78.5068L255.037 79.9424C253.967 79.4443 253.25 78.6021 252.81 77.584C252.341 78.7485 251.543 79.7153 250.364 80.2646L249.338 78.8438ZM251.917 85.1133V80.8213H253.792V83.6191H261.292V85.1133H251.917ZM254.861 76.5879V75.0645H256.487V72.2227H258.259V81.5977H256.487V76.5879H254.861ZM273.413 72.0176V85.377H271.568V78.2285H269.224V76.7197H271.568V72.0176H273.413ZM262.779 82.3594V73.1309H269.004V74.6396H264.639V76.8516H268.521V78.3164H264.639V80.8359C266.492 80.8213 267.972 80.7554 269.62 80.499L269.81 81.9932C267.862 82.2861 266.119 82.3521 263.833 82.3594H262.779ZM282.467 80.3232H284.356L285.162 81.356C285.667 80.77 285.96 79.8691 285.953 78.6973C285.96 76.4268 284.876 75.2036 283.243 75.1963C281.595 75.2036 280.519 76.4268 280.519 78.6973C280.519 80.9604 281.595 82.1909 283.243 82.1982C283.456 82.1982 283.661 82.1763 283.851 82.1323L282.467 80.3232ZM278.277 78.6973C278.277 75.2329 280.416 73.248 283.243 73.248C286.048 73.248 288.194 75.2329 288.194 78.6973C288.194 80.5942 287.55 82.0444 286.51 82.9746L288.019 84.8789H285.953L285.104 83.8242C284.532 84.0366 283.902 84.1465 283.243 84.1465C280.416 84.1465 278.277 82.147 278.277 78.6973ZM289.491 84V73.3945H293.651C296.061 73.3945 297.445 74.7495 297.445 76.8516C297.445 78.3018 296.779 79.3564 295.57 79.8765L297.826 84H295.394L293.366 80.2354H291.688V84H289.491ZM291.688 78.4482H293.241C294.545 78.4482 295.182 77.9136 295.175 76.8516C295.182 75.7822 294.545 75.2036 293.241 75.1963H291.688V78.4482ZM310.373 82.3301V83.8682H298.171V82.3301H303.312V80.3232H299.577V75.8408H307.121V74.376H299.562V72.8818H308.966V77.3057H301.452V78.7998H309.274V80.3232H305.172V82.3301H310.373ZM316.247 72.6182V74.2002H318.972V72.6182H320.847V78.4336H314.387V72.6182H316.247ZM315.72 80.748V79.2979H324.568V82.916H317.58V83.7803H324.948V85.2598H315.749V81.583H322.707V80.748H315.72ZM316.247 76.9688H318.972V75.6064H316.247V76.9688ZM322.693 78.7998V72.0176H324.568V74.6104H326.369V76.1191H324.568V78.7998H322.693ZM329.951 79.6055V81.0264H335.503V79.6055H337.349V85.2012H328.12V79.6055H329.951ZM326.655 78.7266V77.2324H335.239C335.496 75.9434 335.532 74.9473 335.547 74.0537H328.149V72.5596H337.407V73.6289C337.415 74.6396 337.415 75.7163 337.092 77.2324H338.857V78.7266H326.655ZM329.951 83.6924H335.503V82.4473H329.951V83.6924Z" fill="black"/>
<rect x="16" y="119" width="368" height="472.467" rx="18" fill="#EEEEEE"/>
<path d="M140.399 167.837V169.331H134.439V174.461H132.613V169.331H126.719V167.837H140.399ZM127.433 165.38C130.38 165.006 132.355 163.421 132.488 161.777H127.981V160.316H139.137V161.777H134.63C134.754 163.421 136.713 165.006 139.685 165.38L139.021 166.824C136.464 166.459 134.472 165.289 133.559 163.67C132.637 165.289 130.662 166.459 128.13 166.824L127.433 165.38ZM149.073 160.715V167.854H141.835V160.715H149.073ZM143.645 174.079V169.182H145.504V172.585H153.987V174.079H143.645ZM143.661 166.376H147.247V162.192H143.661V166.376ZM151.713 170.194V159.486H153.572V170.194H151.713ZM168.257 159.47V170.709H166.497V159.47H168.257ZM155.324 167.289C157.325 166.318 158.263 164.326 158.263 162.541V160.499H160.056V162.541C160.056 164.292 160.919 166.036 162.828 166.891L161.799 168.318C160.537 167.729 159.674 166.716 159.176 165.496C158.645 166.874 157.707 168.044 156.337 168.684L155.324 167.289ZM158.213 174.179V169.364H160.056V172.685H168.672V174.179H158.213ZM161.483 164.55V163.039H163.492V159.735H165.252V170.261H163.492V164.55H161.483ZM182.36 159.47V174.494H180.534V166.393H177.712V164.898H180.534V159.47H182.36ZM170.457 171.041V160.765H177.479V162.275H172.316V164.965H176.882V166.426H172.316V169.514C174.599 169.505 176.309 169.422 178.243 169.115L178.426 170.609C176.242 170.941 174.317 171.024 171.636 171.041H170.457ZM197.078 159.47V174.478H195.301V159.47H197.078ZM184.278 165.961C184.278 162.657 185.556 160.607 187.515 160.615C189.333 160.607 190.57 162.309 190.786 165.114H192.23V159.735H193.99V173.747H192.23V166.608H190.802C190.628 169.539 189.375 171.332 187.515 171.323C185.556 171.332 184.278 169.273 184.278 165.961ZM185.988 165.961C185.98 168.31 186.561 169.572 187.515 169.563C188.511 169.572 189.101 168.31 189.109 165.961C189.101 163.62 188.511 162.35 187.515 162.358C186.561 162.35 185.98 163.62 185.988 165.961ZM204.026 163.072C204.018 165.861 205.354 168.601 207.745 169.646L206.632 171.124C204.939 170.294 203.744 168.7 203.104 166.733C202.449 168.808 201.22 170.535 199.494 171.406L198.332 169.912C200.78 168.767 202.142 165.878 202.15 163.072V160.682H204.026V163.072ZM206.084 165.812V164.317H209.239V159.47H211.065V174.494H209.239V165.812H206.084ZM218.868 160.134V162.043H222.371V160.134H224.197V166.675H217.042V160.134H218.868ZM218.553 169.198V167.754H228.364V171.688H220.396V172.884H228.829V174.345H218.57V170.344H226.522V169.198H218.553ZM218.868 165.214H222.371V163.438H218.868V165.214ZM226.522 167.156V159.47H228.364V162.508H230.456V164.002H228.364V167.156H226.522ZM234.383 168.02V169.746H241.04V168.02H242.866V174.295H232.573V168.02H234.383ZM230.88 166.907V165.43H240.725C241.04 163.844 241.073 162.649 241.073 161.595H232.573V160.117H242.916V161.279C242.924 162.425 242.924 163.67 242.551 165.43H244.593V166.907H230.88ZM234.383 172.801H241.04V171.174H234.383V172.801ZM257.069 159.47V162.956H259.161V164.483H257.069V168.219H255.226V159.47H257.069ZM245.747 167.422V160.35H247.573V162.392H251.076V160.35H252.902V167.422H245.747ZM247.39 174.262V168.949H257.169V170.427H249.233V172.801H257.451V174.262H247.39ZM247.573 165.961H251.076V163.819H247.573V165.961ZM272.119 159.47V174.478H270.259V159.47H272.119ZM259.684 170.344C263.619 168.476 265.428 165.936 265.76 162.524H260.448V161.063H267.636C267.636 165.529 265.902 169.323 260.647 171.821L259.684 170.344Z" fill="black"/>
<path d="M149.681 194.742V199.338H151.509V200.176H149.681V206.028H148.69V194.742H149.681ZM141.022 203.096C143.936 201.648 145.523 199.471 145.751 196.799H141.543V195.961H146.761C146.754 199.154 145.256 202.067 141.581 203.883L141.022 203.096ZM160.859 194.742V199.401H162.573V200.239H160.859V206.028H159.856V194.742H160.859ZM151.883 202.905C153.585 201.16 154.277 199.059 154.404 196.812H152.239V195.974H155.349C155.337 198.659 154.734 201.312 152.683 203.477L151.883 202.905ZM155.121 203.667C156.885 201.674 157.412 199.167 157.508 196.812H155.705V195.974H158.447C158.441 198.652 158.047 201.769 155.933 204.226L155.121 203.667ZM173.218 200.48V201.306H168.635V203.616H167.632V201.306H162.884V200.48H173.218ZM164.052 197.307C164.046 195.904 165.626 195.041 168.039 195.034C170.451 195.041 172.012 195.904 172.012 197.307C172.012 198.697 170.451 199.56 168.039 199.554C165.626 199.56 164.046 198.697 164.052 197.307ZM164.217 205.787V202.486H165.22V204.937H172.063V205.787H164.217ZM165.119 197.307C165.106 198.183 166.28 198.741 168.039 198.741C169.79 198.741 170.958 198.183 170.958 197.307C170.958 196.405 169.79 195.853 168.039 195.847C166.28 195.853 165.106 196.405 165.119 197.307ZM182.575 196.342C182.569 197.853 184.581 199.135 186.549 199.427L186.181 200.214C184.422 199.916 182.702 198.976 182.017 197.618C181.331 198.976 179.611 199.916 177.878 200.214L177.484 199.427C179.446 199.135 181.452 197.853 181.458 196.342V196.266H177.84V195.453H186.181V196.266H182.575V196.342ZM176.875 202.004V201.179H187.158V202.004H182.486V206.028H181.509V202.004H176.875ZM193.741 195.732V200.963H188.447V195.732H193.741ZM189.425 200.163H192.763V196.558H189.425V200.163ZM189.882 205.647V202.08H190.872V204.822H197.524V205.647H189.882ZM196.178 202.867V194.755H197.169V202.867H196.178ZM208.411 194.742V203.21H207.458V194.742H208.411ZM198.864 200.811C200.317 200.125 201.206 198.563 201.2 197.23V195.542H202.165V197.23C202.165 198.551 202.99 199.909 204.424 200.519L203.866 201.306C202.825 200.83 202.082 199.96 201.695 198.938C201.295 200.062 200.501 201.058 199.422 201.585L198.864 200.811ZM201.009 205.787V202.169H202V204.949H208.753V205.787H201.009ZM203.447 198.437V197.611H205.224V194.971H206.189V202.893H205.224V198.437H203.447ZM219.157 194.742V206.054H218.167V199.833H215.781V199.008H218.167V194.742H219.157ZM210.322 203.324V195.783H215.59V196.608H211.324V198.957H215.095V199.77H211.324V202.499C213.394 202.493 214.727 202.436 216.276 202.156L216.39 202.981C214.746 203.248 213.368 203.324 211.185 203.324H210.322ZM228.984 201.839C231.301 201.839 232.704 202.601 232.704 203.921C232.704 205.254 231.301 206.016 228.984 206.028C226.661 206.016 225.245 205.254 225.239 203.921C225.245 202.601 226.661 201.839 228.984 201.839ZM224.262 200.658V195.453H225.239V197.18H228.527V195.453H229.517V200.658H224.262ZM225.239 199.846H228.527V197.967H225.239V199.846ZM226.242 203.921C226.229 204.733 227.283 205.216 228.984 205.216C230.692 205.216 231.733 204.733 231.739 203.921C231.733 203.115 230.692 202.639 228.984 202.626C227.283 202.639 226.229 203.115 226.242 203.921ZM231.612 201.534V194.742H232.602V197.586H234.303V198.437H232.602V201.534H231.612ZM245.076 200.519V201.344H240.48V203.654H239.49V201.344H234.742V200.519H245.076ZM236.062 205.787V202.537H237.065V204.949H243.92V205.787H236.062ZM236.087 199.224V195.301H243.73V199.224H236.087ZM237.065 198.424H242.74V196.088H237.065V198.424ZM258.419 196.037V196.862H249.266V196.037H253.379V194.679H254.357V196.037H258.419ZM248.732 202.88V202.055H259.066V202.88H254.357V206.054H253.379V202.88H248.732ZM250.192 199.401C250.18 198.183 251.564 197.51 253.874 197.51C256.166 197.51 257.549 198.183 257.556 199.401C257.549 200.595 256.166 201.268 253.874 201.28C251.564 201.268 250.18 200.595 250.192 199.401ZM251.221 199.401C251.208 200.1 252.192 200.512 253.874 200.506C255.537 200.512 256.515 200.1 256.527 199.401C256.515 198.69 255.537 198.278 253.874 198.271C252.192 198.278 251.208 198.69 251.221 199.401ZM77.0139 220.118H78.258L79.2292 221.388C79.9148 220.785 80.3464 219.775 80.3528 218.404C80.3464 216.03 79.0579 214.748 77.3948 214.748C75.7317 214.748 74.4431 216.03 74.4368 218.404C74.4431 220.772 75.7317 222.054 77.3948 222.061C77.7375 222.061 78.0676 222.003 78.3723 221.896L77.0139 220.118ZM73.3323 218.404C73.3259 215.497 75.0334 213.682 77.3948 213.682C79.7497 213.682 81.4636 215.497 81.4573 218.404C81.4636 220.125 80.8669 221.458 79.8894 222.264L81.0891 223.863H79.845L79.0452 222.791C78.55 223.013 77.9914 223.127 77.3948 223.127C75.0334 223.127 73.3259 221.312 73.3323 218.404ZM82.873 223V213.809H85.9961C88.1479 213.809 89.1318 215.002 89.1318 216.64C89.1318 217.858 88.5859 218.811 87.418 219.217L89.4873 223H88.1543L86.231 219.426C86.1611 219.433 86.085 219.433 86.0088 219.433H84.0156V223H82.873ZM84.0156 218.392H85.958C87.4243 218.392 87.9956 217.731 88.002 216.64C87.9956 215.542 87.4243 214.824 85.9453 214.824H84.0156V218.392ZM99.5171 213.72V214.469H97.0034C97.0288 215.402 98.2349 216.138 99.7837 216.386L99.4282 217.122C98.0762 216.894 97.0098 216.303 96.5274 215.478C96.0513 216.348 94.9785 216.982 93.6138 217.236L93.2583 216.513C94.8135 216.246 96.0069 215.446 96.0259 214.469H93.5249V213.72H96.0259V212.717H97.0034V213.72H99.5171ZM92.9536 218.011C93.8614 218.011 94.9214 218.004 96.0259 217.966V216.716H97.0034V217.928C98.0445 217.877 99.0918 217.801 100.063 217.668L100.126 218.366C97.7461 218.772 95.0674 218.798 93.0806 218.785L92.9536 218.011ZM94.4263 220.41V219.661H101.777V222.086H95.4419V223.14H102.209V223.901H94.4517V221.362H100.787V220.41H94.4263ZM100.774 219.166V212.742H101.777V215.472H103.465V216.297H101.777V219.166H100.774ZM107.052 213.428C108.004 213.421 108.81 213.783 109.337 214.38H112.295V212.742H113.298V219.433H112.295V217.82H109.337C108.817 218.417 108.004 218.779 107.052 218.772C105.364 218.779 104.113 217.674 104.119 216.106C104.113 214.526 105.364 213.421 107.052 213.428ZM105.072 216.106C105.072 217.154 105.897 217.928 107.052 217.922C108.169 217.928 109.007 217.154 109.007 216.106C109.007 215.034 108.169 214.285 107.052 214.291C105.897 214.285 105.072 215.034 105.072 216.106ZM105.77 221.845C105.763 220.486 107.211 219.699 109.553 219.699C111.889 219.699 113.336 220.486 113.336 221.845C113.336 223.216 111.889 224.003 109.553 224.003C107.211 224.003 105.763 223.216 105.77 221.845ZM106.747 221.845C106.741 222.695 107.82 223.209 109.553 223.203C111.286 223.209 112.365 222.695 112.359 221.845C112.365 220.988 111.286 220.48 109.553 220.474C107.82 220.48 106.741 220.988 106.747 221.845ZM109.813 215.192C109.915 215.472 109.972 215.776 109.972 216.106C109.972 216.424 109.915 216.722 109.82 216.995H112.295V215.192H109.813ZM120.059 213.479C122.414 213.485 124.185 214.716 124.185 216.576C124.185 218.455 122.414 219.687 120.059 219.674C117.704 219.687 115.933 218.455 115.933 216.576C115.933 214.716 117.704 213.485 120.059 213.479ZM114.917 222.53V221.692H125.251V222.53H114.917ZM116.885 216.576C116.872 217.947 118.237 218.861 120.059 218.861C121.868 218.861 123.22 217.947 123.22 216.576C123.22 215.224 121.868 214.285 120.059 214.291C118.237 214.285 116.872 215.224 116.885 216.576ZM136.226 221.794V222.632H125.892V221.794H130.539V219.661H127.187V216.183H133.941V214.405H127.162V213.58H134.919V216.995H128.178V218.836H135.185V219.661H131.516V221.794H136.226ZM150.204 221.743V222.581H139.87V221.743H144.517V218.988H141.089V213.694H148.922V218.988H145.494V221.743H150.204ZM142.067 218.188H147.957V214.494H142.067V218.188ZM159.58 212.742V217.186H161.472V218.049H159.58V224.028H158.59V212.742H159.58ZM151.316 221.324V213.707H152.306V216.69H155.607V213.707H156.597V221.324H151.316ZM152.306 220.486H155.607V217.49H152.306V220.486ZM165.02 213.161C166.709 213.167 167.934 214.196 167.94 215.662C167.934 217.135 166.709 218.15 165.02 218.15C163.313 218.15 162.081 217.135 162.088 215.662C162.081 214.196 163.313 213.167 165.02 213.161ZM163.065 215.662C163.053 216.652 163.884 217.338 165.02 217.338C166.138 217.338 166.975 216.652 166.975 215.662C166.975 214.685 166.138 213.993 165.02 213.999C163.884 213.993 163.053 214.685 163.065 215.662ZM163.802 219.89V219.09H171.139V221.807H164.805V223.076H171.546V223.876H163.827V221.058H170.149V219.89H163.802ZM170.149 218.544V212.742H171.139V218.544H170.149ZM181.499 214.342C181.493 215.853 183.505 217.135 185.473 217.427L185.105 218.214C183.347 217.916 181.626 216.976 180.941 215.618C180.255 216.976 178.535 217.916 176.802 218.214L176.409 217.427C178.37 217.135 180.376 215.853 180.382 214.342V214.266H176.764V213.453H185.105V214.266H181.499V214.342ZM175.799 220.004V219.179H186.082V220.004H181.411V224.028H180.433V220.004H175.799ZM192.665 213.732V218.963H187.371V213.732H192.665ZM188.349 218.163H191.688V214.558H188.349V218.163ZM188.806 223.647V220.08H189.796V222.822H196.448V223.647H188.806ZM195.103 220.867V212.755H196.093V220.867H195.103ZM208.046 218.112V218.95H197.75V218.112H208.046ZM198.994 221.972C198.988 220.677 200.454 219.94 202.891 219.94C205.31 219.94 206.764 220.677 206.776 221.972C206.764 223.279 205.31 224.003 202.891 224.003C200.454 224.003 198.988 223.279 198.994 221.972ZM199.057 217.033V213.199H206.764V214.037H200.035V216.221H206.84V217.033H199.057ZM200.01 221.972C199.997 222.765 201.082 223.216 202.891 223.216C204.682 223.216 205.767 222.765 205.773 221.972C205.767 221.185 204.682 220.728 202.891 220.715C201.082 220.728 199.997 221.185 200.01 221.972ZM219.047 218.963V219.788H208.713V218.963H213.384V217.77H210.058V215.015H216.711V213.847H210.02V213.034H217.714V215.764H211.048V216.97H217.955V217.77H214.362V218.963H219.047ZM209.868 221.464V220.651H217.777V223.927H216.774V221.464H209.868ZM229.984 218.112V218.938H219.701V218.112H229.984ZM220.285 216.64C222.252 216.411 224.15 215.44 224.195 214.151H220.64V213.326H229.07V214.151H225.49C225.534 215.427 227.413 216.411 229.413 216.64L229.044 217.439C227.197 217.205 225.464 216.373 224.842 215.123C224.22 216.373 222.5 217.205 220.64 217.439L220.285 216.64ZM220.945 221.972C220.938 220.677 222.405 219.928 224.842 219.928C227.261 219.928 228.714 220.677 228.727 221.972C228.714 223.279 227.261 224.003 224.842 224.003C222.405 224.003 220.938 223.279 220.945 221.972ZM221.96 221.972C221.948 222.759 223.033 223.209 224.842 223.203C226.632 223.209 227.718 222.759 227.724 221.972C227.718 221.178 226.632 220.728 224.842 220.715C223.033 220.728 221.948 221.178 221.96 221.972ZM235.818 212.945C238.325 212.945 239.798 213.637 239.804 214.888C239.798 216.17 238.325 216.862 235.818 216.868C233.298 216.862 231.819 216.17 231.819 214.888C231.819 213.637 233.298 212.945 235.818 212.945ZM230.676 218.442V217.63H240.959V218.442H230.676ZM231.92 220.182V219.42H239.639V221.946H232.936V223.114H239.982V223.901H231.945V221.21H238.661V220.182H231.92ZM232.86 214.888C232.847 215.675 233.945 216.106 235.818 216.106C237.69 216.106 238.782 215.675 238.788 214.888C238.782 214.145 237.69 213.701 235.818 213.694C233.945 213.701 232.847 214.145 232.86 214.888ZM246.114 213.225V214.85H249.402V213.225H250.392V218.138H245.136V213.225H246.114ZM246.114 217.325H249.402V215.624H246.114V217.325ZM246.279 219.915V219.115H253.477V221.845H247.282V223.089H253.896V223.901H246.304V221.083H252.487V219.915H246.279ZM252.487 218.582V212.742H253.477V215.192H255.178V216.03H253.477V218.582H252.487ZM257.965 219.204V220.702H263.615V219.204H264.605V223.876H256.975V219.204H257.965ZM255.629 218.188V217.363H263.316C263.621 215.96 263.621 214.951 263.615 214.088H256.937V213.263H264.605V214.088C264.605 214.951 264.605 215.954 264.294 217.363H265.963V218.188H255.629ZM257.965 223.063H263.615V221.489H257.965V223.063ZM275.428 212.742V215.472H277.129V216.31H275.428V219.344H274.438V212.742H275.428ZM267.087 218.633V213.39H268.065V215.116H271.353V213.39H272.343V218.633H267.087ZM268.065 217.833H271.353V215.916H268.065V217.833ZM268.344 223.876V219.979H275.517V220.778H269.334V223.063H275.733V223.876H268.344ZM280.602 213.618C282.265 213.625 283.445 215.154 283.458 217.554C283.445 219.959 282.265 221.483 280.602 221.477C278.926 221.483 277.751 219.959 277.758 217.554C277.751 215.154 278.926 213.625 280.602 213.618ZM278.697 217.554C278.704 219.388 279.484 220.594 280.602 220.588C281.731 220.594 282.493 219.388 282.493 217.554C282.493 215.719 281.731 214.513 280.602 214.507C279.484 214.513 278.704 215.719 278.697 217.554ZM285.324 224.028V212.742H286.314V217.249H288.206V218.112H286.314V224.028H285.324ZM301.892 221.756V222.581H291.558V221.756H296.205V219.318H292.777V213.542H293.78V215.586H299.645V213.542H300.623V219.318H297.182V221.756H301.892ZM293.78 218.506H299.645V216.398H293.78V218.506ZM305.885 215.954C305.885 217.75 306.761 219.687 308.259 220.575L307.688 221.35C306.596 220.689 305.815 219.483 305.422 218.106C305.009 219.61 304.171 220.905 303.041 221.591L302.406 220.842C303.968 219.928 304.92 217.928 304.92 215.992V213.809H305.885V215.954ZM307.015 217.643V216.792H308.932V212.983H309.871V223.457H308.932V217.643H307.015ZM311.242 224.028V212.742H312.207V224.028H311.242ZM323.843 221.743V222.581H313.509V221.743H316.073V218.703C315.108 218.201 314.524 217.389 314.524 216.36C314.524 214.615 316.238 213.466 318.65 213.453C321.062 213.466 322.776 214.615 322.776 216.36C322.776 217.37 322.211 218.169 321.278 218.671V221.743H323.843ZM315.489 216.36C315.483 217.624 316.797 218.468 318.65 218.468C320.485 218.468 321.812 217.624 321.812 216.36C321.812 215.097 320.485 214.266 318.65 214.278C316.797 214.266 315.483 215.097 315.489 216.36ZM317.051 221.743H320.275V219.058C319.787 219.185 319.241 219.255 318.65 219.255C318.073 219.255 317.533 219.191 317.051 219.064V221.743ZM325.677 223.076C325.233 223.07 324.852 222.702 324.865 222.251C324.852 221.807 325.233 221.438 325.677 221.438C326.128 221.438 326.496 221.807 326.49 222.251C326.496 222.702 326.128 223.07 325.677 223.076Z" fill="black"/>
<g clip-path="url(#clip0_911_715)">
<path d="M358.274 263H41.7261C33.0408 263 26 270.041 26 278.726V563.741C26 572.426 33.0408 579.467 41.7261 579.467H358.274C366.959 579.467 374 572.426 374 563.741V278.726C374 270.041 366.959 263 358.274 263Z" fill="white"/>
<mask id="mask0_911_715" style="mask-type:luminance" maskUnits="userSpaceOnUse" x="26" y="263" width="348" height="317">
<path d="M358.274 263H41.7261C33.0408 263 26 270.041 26 278.726V563.741C26 572.426 33.0408 579.467 41.7261 579.467H358.274C366.959 579.467 374 572.426 374 563.741V278.726C374 270.041 366.959 263 358.274 263Z" fill="white"/>
</mask>
<g mask="url(#mask0_911_715)">
<path d="M66.2657 288.703C63.2788 287.384 59.6357 288.791 57.4674 291.23C55.2991 293.669 54.3113 296.923 53.5739 300.099C52.6944 303.868 52.0923 307.893 53.3642 311.55C54.3282 314.31 56.2767 316.6 58.2488 318.762C62.0408 322.916 66.0763 326.846 70.3283 330.53" fill="#282828"/>
<path d="M13.005 373.997C11.8481 380.776 7.00408 421.714 12.5212 434.365C13.9623 437.673 15.8938 441.272 19.865 442.49C21.8608 443.102 24.0934 443.008 26.2515 442.838C31.1226 442.453 42.4309 441.624 47.258 440.866C69.0492 437.446 90.5055 443.271 111.955 438.35C113.542 437.984 115.389 437.413 115.849 436.097C116.187 435.126 115.598 434.155 115.03 433.296C106.502 420.445 113.795 369.644 112.706 362.49C111.617 355.332 108.332 348.035 101.296 344C96.9901 341.531 84.667 335.252 79.3833 334.779C66.8741 333.659 62.4361 335.8 50.6779 340.073C42.0283 343.215 23.4135 352.02 19.016 358.863C15.9716 363.603 13.9014 368.751 13.005 374.001V373.997Z" fill="#F6EFEE"/>
<path d="M77.1466 360.099L82.5675 349.827L91.5141 355.376L93.2992 340.34L94.3639 340.467L92.3806 357.175L82.9791 351.344L77.4944 361.739L50.7188 340.625L51.3827 339.783L77.1466 360.099Z" fill="#CDC4C2"/>
<path d="M101.699 386.557L100.637 386.706L99.6562 379.741L100.718 379.592L101.699 386.557Z" fill="#CDC4C2"/>
<path d="M71.839 318.693C71.247 320.723 67.5971 328.087 66.5992 330.685C66.5451 330.827 66.4909 330.969 66.4334 331.111C65.7738 332.809 65.0736 334.45 64.3632 336.131C63.8761 337.281 62.8884 338.634 63.2064 339.679C63.7205 341.374 82.5857 351.275 82.9815 350.115C83.2115 349.442 84.0978 338.715 84.2805 337.535C84.5984 335.495 84.7101 333.543 84.9198 331.504C85.1329 329.423 85.302 327.326 85.4746 325.249C85.6031 323.693 85.4306 321.904 85.7519 320.381C80.8098 319.299 78.0496 319.769 73.9633 316.914" fill="#FFC2B0"/>
<path d="M38.3758 368.967C48.6524 377.376 50.3403 399.807 58.9222 409.992C59.5277 410.709 60.1535 411.453 60.989 411.869C61.9193 412.333 62.9983 412.333 64.0334 412.326C85.4458 412.187 106.862 412.049 128.274 411.91C132.448 411.883 136.72 411.873 140.658 413.283C144.595 414.694 148.198 417.836 149.006 422C149.094 422.45 149.138 422.954 148.874 423.326C148.611 423.705 148.117 423.824 147.663 423.874C143.388 424.348 139.562 421.138 135.303 420.532C131.873 420.045 85.5168 429.253 78.1933 430.477C70.3895 431.783 62.6634 433.64 54.7919 434.415C53.1615 434.574 51.46 434.679 49.931 434.083C48.6456 433.583 47.5936 432.625 46.572 431.685C39.5361 425.197 32.676 412.921 26.002 406.051" fill="#FFC2B0"/>
<path d="M18.9727 385.257C20.7925 394.14 22.8695 402.976 25.2036 411.757C25.3084 412.146 25.4336 412.569 25.7888 412.809C26.3435 413.188 27.1317 412.928 27.7575 412.657C37.229 408.54 46.3555 403.767 55.032 398.396C54.0409 386.461 47.6544 366.152 44.8806 354.451" fill="#F4EFEE"/>
<path d="M91.7227 432.237H168.449L175.647 388.506C175.853 387.251 174.987 386.094 173.841 386.094H100.849C99.9629 386.094 99.2018 386.797 99.0428 387.768L91.7227 432.234V432.237Z" fill="#9A9A9A"/>
<path d="M135.9 397.27C135.9 398.525 136.915 399.54 138.17 399.54C139.425 399.54 140.44 398.525 140.44 397.27C140.44 396.015 139.425 395 138.17 395C136.915 395 135.9 396.015 135.9 397.27Z" fill="#232021"/>
<path d="M55.6312 398.658L53.437 399.997L52.8788 399.082L54.4324 398.133L50.0547 376.277L51.1058 376.066L55.6312 398.658Z" fill="#CDC4C2"/>
<path d="M61.3866 412.232L56.4276 417.651L55.6367 416.927L60.5955 411.508L61.3866 412.232Z" fill="#F88F73"/>
<path d="M83.939 340.904L84.9808 331.829L76.4497 326.393C76.4497 326.393 74.8023 334.782 83.939 340.904Z" fill="#FFB5A6"/>
<path d="M96.0606 316.488C97.6741 313.741 98.7126 313.366 100.062 310.464C100.725 309.036 101.036 307.456 101.162 305.894C101.662 299.764 106.598 296.848 102.176 293.456C98.9426 290.973 95.8339 291.446 94.2644 291.017C94.2644 291.017 88.7743 284.322 81.5083 283.318C70.041 281.731 66.2964 286.934 63.5496 290.025C60.9822 292.918 58.2524 298.059 57.8092 301.96C57.3661 305.856 57.8633 309.76 58.7496 313.474C59.4058 316.218 59.9877 317.226 61.4524 319.522C62.9137 321.819 66.5873 324.16 69.104 324.86" fill="#282828"/>
<path d="M73.5887 315.454C75.6352 317.392 76.0242 308.326 77.0526 307.447C77.9456 306.679 82.7693 300.901 84.0852 300.6C84.1156 300.594 84.1528 300.587 84.19 300.58C84.7042 300.479 85.7393 300.384 87.001 300.509C88.0463 300.536 89.0847 300.641 90.1029 300.874C92.0378 301.321 93.9085 302.271 95.1567 303.8C96.141 305.008 96.6856 306.506 96.9935 308.019C97.281 309.433 97.3723 310.874 97.5144 312.308C97.8594 313.289 98.015 314.385 98.015 315.548C98.1875 315.914 98.2349 316.323 98.262 316.715C98.4582 319.777 97.714 322.781 96.5266 325.575C95.3427 328.369 93.7258 330.977 92.1122 333.575C91.7875 334.099 91.456 334.633 90.9858 335.06C89.6361 336.284 87.3461 336.406 85.4348 335.773C85.4145 335.767 85.3942 335.757 85.374 335.75C80.7228 334.711 75.7502 328.257 73.6766 324.465C70.7608 326.488 65.1523 321.732 65.5041 316.976C65.6495 314.983 68.765 310.877 73.5921 315.45L73.5887 315.454Z" fill="#FFC2B0"/>
<path d="M91.6859 323C91.5133 323 91.3442 322.98 91.1988 322.959C91.0262 322.936 90.9011 322.777 90.9248 322.604C90.9484 322.432 91.104 322.307 91.2799 322.33C91.5201 322.361 91.7704 322.395 91.9768 322.327L92.0343 322.31C92.1155 322.283 92.2575 322.239 92.3286 322.195C91.696 319.631 91.5336 317.74 91.7535 315.46C91.7704 315.284 91.9294 315.156 92.0985 315.176C92.2744 315.193 92.3996 315.348 92.3827 315.521C92.1696 317.737 92.3286 319.577 92.9544 322.09C93.0897 322.631 92.5078 322.821 92.2305 322.912L92.1763 322.929C92.014 322.983 91.8482 323 91.6892 323H91.6859Z" fill="#D2626E"/>
<path d="M86.7772 311.687C86.7433 311.687 86.7061 311.681 86.6723 311.67C85.3057 311.187 83.8782 310.93 82.4304 310.906C82.2545 310.906 82.1158 310.761 82.1192 310.585C82.1192 310.409 82.2647 310.273 82.4406 310.273C83.9594 310.297 85.4545 310.568 86.8854 311.075C87.0512 311.133 87.1357 311.315 87.0782 311.481C87.0309 311.61 86.9091 311.691 86.7805 311.691L86.7772 311.687Z" fill="#D2626E"/>
<path d="M97.8384 312.584C98.8972 318.121 97.7335 326.257 94.8515 331.06C93.5965 333.154 89.7064 337.744 86.8887 335.508" fill="#FFC2B0"/>
<path d="M83.9941 324.674C83.9941 324.871 84.0246 325.07 84.0753 325.263C84.3561 326.312 85.0969 327.228 86.0035 327.81C87.617 328.845 90.2622 329.285 91.7642 327.78C92.028 327.516 92.2614 327.194 92.3088 326.816C92.3561 326.41 92.0787 326.119 91.7878 325.882C91.1316 325.347 90.3198 325.046 89.5451 324.725C88.8043 324.417 88.05 324.143 87.2923 323.89C86.8018 323.724 86.3079 323.572 85.8174 323.416C85.2931 323.25 84.7011 323.291 84.3256 323.734C84.0922 324.005 84.0009 324.336 83.9975 324.678L83.9941 324.674Z" fill="white"/>
<path d="M97.9941 312.247C97.9738 312.247 97.9535 312.247 97.9332 312.24C96.5125 311.959 95.0613 311.912 93.6237 312.098C93.4478 312.118 93.2888 311.996 93.2685 311.824C93.2448 311.651 93.37 311.492 93.5425 311.469C95.0478 311.272 96.5666 311.323 98.055 311.618C98.2275 311.651 98.3391 311.82 98.3053 311.99C98.2749 312.142 98.1429 312.247 97.9941 312.247Z" fill="#B9626D"/>
<path d="M97.9941 312.247C97.9738 312.247 97.9535 312.247 97.9332 312.24C96.5125 311.959 95.0613 311.912 93.6237 312.098C93.4478 312.118 93.2888 311.996 93.2685 311.824C93.2448 311.651 93.37 311.492 93.5425 311.469C95.0478 311.272 96.5666 311.323 98.055 311.618C98.2275 311.651 98.3391 311.82 98.3053 311.99C98.2749 312.142 98.1429 312.247 97.9941 312.247Z" fill="#D2626E"/>
<path d="M88.1546 297.268C88.1546 297.268 92.4032 309.929 71.4509 310.978C71.4509 310.978 68.9849 297.423 88.1546 297.268Z" fill="#282828"/>
<path d="M85.752 297.268C85.752 297.268 90.8936 311.123 100.061 310.467L100.189 297.268H85.752Z" fill="#282828"/>
<path d="M86.5737 315.324C86.7111 314.487 86.41 313.741 85.9011 313.657C85.3923 313.574 84.8685 314.185 84.7311 315.022C84.5938 315.859 84.8949 316.605 85.4037 316.688C85.9125 316.772 86.4364 316.161 86.5737 315.324Z" fill="#232021"/>
<path d="M96.7183 316.99C96.8556 316.153 96.5545 315.407 96.0457 315.323C95.5368 315.24 95.013 315.851 94.8757 316.688C94.7383 317.525 95.0394 318.271 95.5482 318.354C96.0571 318.438 96.5809 317.827 96.7183 316.99Z" fill="#232021"/>
<path d="M160.594 300.942C160.594 295.402 156.06 290.872 150.524 290.872H121.335C115.795 290.872 111.265 295.405 111.264 300.942C111.264 306.327 115.553 310.761 120.884 311.001L121.138 311.009L121.383 311.014L123.11 316.627L126.268 311.012H150.524C156.064 311.012 160.594 306.479 160.594 300.942ZM161.271 300.942C161.271 306.852 156.437 311.689 150.524 311.689H126.664L122.928 318.333L120.879 311.677C115.177 311.434 110.588 306.7 110.588 300.942C110.588 295.032 115.421 290.195 121.335 290.195H150.524C156.434 290.195 161.271 295.028 161.271 300.942Z" fill="#CCCCCC"/>
<path d="M124.524 303.09C125.741 303.09 126.727 302.104 126.727 300.888C126.727 299.671 125.741 298.686 124.524 298.686C123.308 298.686 122.322 299.671 122.322 300.888C122.322 302.104 123.308 303.09 124.524 303.09Z" fill="#CCCCCC"/>
<path d="M135.837 303.09C137.053 303.09 138.039 302.104 138.039 300.888C138.039 299.671 137.053 298.686 135.837 298.686C134.621 298.686 133.635 299.671 133.635 300.888C133.635 302.104 134.621 303.09 135.837 303.09Z" fill="#CCCCCC"/>
<path d="M147.151 303.09C148.368 303.09 149.353 302.104 149.353 300.888C149.353 299.671 148.368 298.686 147.151 298.686C145.935 298.686 144.949 299.671 144.949 300.888C144.949 302.104 145.935 303.09 147.151 303.09Z" fill="#CCCCCC"/>
<path d="M346.006 284.502H198.406C196.155 284.502 194.33 286.327 194.33 288.578V324.543C194.33 326.794 196.155 328.619 198.406 328.619H346.006C348.257 328.619 350.082 326.794 350.082 324.543V288.578C350.082 286.327 348.257 284.502 346.006 284.502Z" fill="white"/>
<path d="M349.575 288.578C349.574 286.607 347.976 285.009 346.006 285.009H198.406C196.435 285.009 194.837 286.607 194.837 288.578V324.542C194.837 326.513 196.435 328.111 198.406 328.111H346.006C347.976 328.111 349.575 326.513 349.575 324.542V288.578ZM350.589 324.542C350.589 327.074 348.537 329.126 346.006 329.126H198.406C195.874 329.126 193.822 327.074 193.822 324.542V288.578C193.822 286.046 195.874 283.994 198.406 283.994H346.006C348.537 283.994 350.589 286.046 350.589 288.578V324.542Z" fill="#BBBBBB"/>
<path d="M217.163 260.822V284.501H216.148V260.822H217.163Z" fill="#BBBBBB"/>
<path d="M329.468 260.822V284.501H328.453V260.822H329.468Z" fill="#BBBBBB"/>
<path d="M299.24 298.33H301.489V314.043H299.24V298.33ZM296.551 303.861H299.51V305.687H296.551V303.861ZM289.041 308.698H290.31C291.178 308.698 291.978 308.687 292.711 308.664C293.455 308.642 294.177 308.602 294.876 308.546C295.575 308.489 296.291 308.41 297.024 308.309L297.244 310.085C296.489 310.209 295.744 310.299 295.011 310.356C294.29 310.412 293.546 310.451 292.779 310.474C292.012 310.496 291.189 310.508 290.31 310.508H289.041V308.698ZM289.041 299.649H296.297V301.476H291.29V309.256H289.041V299.649ZM290.766 304.013H295.773V305.772H290.766V304.013Z" fill="black"/>
<path d="M279.012 301.932H281.482V303.742H279.012V301.932ZM283.985 298.363H286.133V310.067H283.985V298.363ZM280.873 298.617H282.97V309.611H280.873V298.617ZM275.579 311.945H286.522V313.754H275.579V311.945ZM275.579 308.714H277.845V313.078H275.579V308.714ZM275.545 299.395H277.304V301.408C277.304 302.332 277.18 303.229 276.932 304.097C276.695 304.965 276.317 305.749 275.799 306.448C275.291 307.136 274.621 307.677 273.786 308.072L272.568 306.346C273.29 305.997 273.865 305.557 274.294 305.027C274.733 304.497 275.049 303.917 275.241 303.285C275.444 302.654 275.545 302.028 275.545 301.408V299.395ZM275.985 299.395H277.71V301.408C277.71 302.017 277.8 302.609 277.981 303.184C278.161 303.759 278.449 304.289 278.843 304.773C279.249 305.247 279.773 305.647 280.416 305.974L279.198 307.683C278.432 307.31 277.812 306.803 277.338 306.16C276.864 305.518 276.52 304.79 276.306 303.979C276.092 303.155 275.985 302.298 275.985 301.408V299.395Z" fill="black"/>
<path d="M258.008 299.581H265.602V307.175H258.008V299.581ZM263.403 301.374H260.223V305.382H263.403V301.374ZM267.987 298.363H270.236V309.492H267.987V298.363ZM259.801 311.894H270.642V313.687H259.801V311.894ZM259.801 308.494H262.05V312.689H259.801V308.494Z" fill="black"/>
<path d="M247.454 300.088H249.416V300.562C249.416 301.103 249.326 301.628 249.146 302.135C248.977 302.642 248.717 303.116 248.368 303.556C248.018 303.984 247.59 304.373 247.082 304.723C246.586 305.061 246.011 305.349 245.357 305.585C244.703 305.822 243.976 305.991 243.175 306.093L242.346 304.351C243.046 304.26 243.666 304.125 244.207 303.945C244.759 303.753 245.239 303.533 245.645 303.285C246.05 303.026 246.389 302.749 246.659 302.456C246.93 302.163 247.127 301.853 247.251 301.526C247.387 301.199 247.454 300.878 247.454 300.562V300.088ZM248.114 300.088H250.059V300.562C250.059 300.878 250.121 301.199 250.245 301.526C250.38 301.853 250.583 302.163 250.854 302.456C251.125 302.749 251.463 303.026 251.869 303.285C252.286 303.533 252.765 303.753 253.306 303.945C253.848 304.125 254.468 304.26 255.167 304.351L254.338 306.093C253.537 305.991 252.81 305.822 252.156 305.585C251.502 305.349 250.922 305.061 250.414 304.723C249.918 304.373 249.495 303.984 249.146 303.556C248.807 303.116 248.548 302.642 248.368 302.135C248.198 301.628 248.114 301.103 248.114 300.562V300.088ZM247.573 308.291H249.822V314.025H247.573V308.291ZM241.67 306.989H255.843V308.799H241.67V306.989ZM242.922 299.158H254.541V300.934H242.922V299.158Z" fill="black"/>
<path d="M386.016 497.383H0.335938V581.273H386.016V497.383Z" fill="#CDCDCD"/>
<path d="M386.016 437.061H0.335938V520.951H386.016V437.061Z" fill="#9A9A9A"/>
<path d="M203.858 419.016H73.7023C71.6155 419.016 69.9238 420.707 69.9238 422.794V500.031C69.9238 502.118 71.6155 503.809 73.7023 503.809H203.858C205.944 503.809 207.636 502.118 207.636 500.031V422.794C207.636 420.707 205.944 419.016 203.858 419.016Z" fill="white"/>
<path d="M206.791 422.794C206.791 421.174 205.477 419.861 203.858 419.861H73.7022C72.0825 419.861 70.7695 421.174 70.7695 422.794V500.031C70.7695 501.651 72.0825 502.964 73.7022 502.964H203.858C205.477 502.963 206.791 501.65 206.791 500.031V422.794ZM208.482 500.031C208.482 502.585 206.412 504.655 203.858 504.655H73.7022C71.1484 504.655 69.0781 502.585 69.0781 500.031V422.794C69.0781 420.24 71.1484 418.17 73.7022 418.17H203.858C206.412 418.17 208.482 420.24 208.482 422.794V500.031Z" fill="black"/>
<path d="M172.943 433.459V427.309H175.37C175.834 427.309 176.231 427.392 176.559 427.558C176.889 427.722 177.141 427.955 177.313 428.258C177.487 428.558 177.574 428.911 177.574 429.318C177.574 429.726 177.486 430.077 177.31 430.372C177.134 430.664 176.878 430.888 176.544 431.044C176.212 431.201 175.809 431.279 175.337 431.279H173.712V430.234H175.127C175.375 430.234 175.581 430.2 175.745 430.131C175.909 430.063 176.032 429.961 176.112 429.825C176.194 429.689 176.235 429.52 176.235 429.318C176.235 429.113 176.194 428.941 176.112 428.801C176.032 428.661 175.908 428.555 175.742 428.483C175.578 428.409 175.371 428.372 175.121 428.372H174.244V433.459H172.943ZM176.265 430.66L177.793 433.459H176.358L174.862 430.66H176.265Z" fill="black"/>
<path d="M168.65 431.321H169.755L170.311 432.036L170.857 432.672L171.888 433.964H170.674L169.966 433.093L169.602 432.576L168.65 431.321ZM171.981 430.384C171.981 431.055 171.853 431.625 171.599 432.096C171.347 432.566 171.003 432.925 170.566 433.174C170.132 433.42 169.643 433.543 169.101 433.543C168.554 433.543 168.064 433.419 167.629 433.171C167.195 432.922 166.851 432.563 166.599 432.093C166.347 431.622 166.221 431.053 166.221 430.384C166.221 429.713 166.347 429.143 166.599 428.672C166.851 428.202 167.195 427.843 167.629 427.597C168.064 427.349 168.554 427.225 169.101 427.225C169.643 427.225 170.132 427.349 170.566 427.597C171.003 427.843 171.347 428.202 171.599 428.672C171.853 429.143 171.981 429.713 171.981 430.384ZM170.662 430.384C170.662 429.949 170.597 429.583 170.467 429.285C170.339 428.986 170.158 428.76 169.924 428.606C169.689 428.452 169.415 428.375 169.101 428.375C168.786 428.375 168.512 428.452 168.278 428.606C168.044 428.76 167.861 428.986 167.731 429.285C167.603 429.583 167.539 429.949 167.539 430.384C167.539 430.818 167.603 431.185 167.731 431.483C167.861 431.781 168.044 432.008 168.278 432.162C168.512 432.316 168.786 432.393 169.101 432.393C169.415 432.393 169.689 432.316 169.924 432.162C170.158 432.008 170.339 431.781 170.467 431.483C170.597 431.185 170.662 430.818 170.662 430.384Z" fill="black"/>
<path d="M157.242 430.838H158.349V431.65H161.521V430.838H162.637V434.127H157.242V430.838ZM158.349 432.521V433.231H161.521V432.521H158.349ZM157.275 426.686H162.231V427.582H157.275V426.686ZM156.404 429.426H163.499V430.33H156.404V429.426ZM161.554 426.686H162.662V427.311C162.662 427.638 162.654 427.985 162.637 428.352C162.62 428.712 162.558 429.138 162.451 429.628L161.318 429.705C161.436 429.197 161.504 428.755 161.521 428.377C161.543 427.999 161.554 427.644 161.554 427.311V426.686Z" fill="black"/>
<path d="M148.846 426.719H149.962V427.649H151.501V426.719H152.609V430.144H148.846V426.719ZM149.962 428.487V429.273H151.501V428.487H149.962ZM153.658 426.381H154.782V430.356H153.658V426.381ZM154.334 427.878H155.814V428.799H154.334V427.878ZM149.615 430.651H154.782V432.791H150.74V433.713H149.624V431.988H153.674V431.514H149.615V430.651ZM149.624 433.282H155.011V434.161H149.624V433.282Z" fill="black"/>
<path d="M138.881 429.992H145.968V430.879H138.881V429.992ZM142.407 431.311C143.253 431.311 143.918 431.438 144.403 431.691C144.888 431.945 145.13 432.3 145.13 432.757C145.13 433.219 144.888 433.577 144.403 433.831C143.918 434.085 143.253 434.211 142.407 434.211C141.562 434.211 140.896 434.085 140.412 433.831C139.932 433.577 139.693 433.219 139.693 432.757C139.693 432.3 139.932 431.945 140.412 431.691C140.896 431.438 141.562 431.311 142.407 431.311ZM142.407 432.173C142.058 432.173 141.765 432.196 141.528 432.241C141.297 432.28 141.122 432.342 141.003 432.427C140.885 432.512 140.826 432.622 140.826 432.757C140.826 432.892 140.885 433.005 141.003 433.095C141.122 433.18 141.297 433.242 141.528 433.281C141.765 433.321 142.058 433.34 142.407 433.34C142.757 433.34 143.047 433.321 143.278 433.281C143.515 433.242 143.693 433.18 143.811 433.095C143.93 433.005 143.989 432.892 143.989 432.757C143.989 432.622 143.93 432.512 143.811 432.427C143.693 432.342 143.515 432.28 143.278 432.241C143.047 432.196 142.757 432.173 142.407 432.173ZM141.655 427.184H142.653V427.37C142.653 427.601 142.61 427.827 142.526 428.046C142.441 428.261 142.314 428.461 142.145 428.647C141.982 428.827 141.776 428.991 141.528 429.137C141.28 429.278 140.992 429.397 140.665 429.493C140.338 429.588 139.975 429.656 139.574 429.696L139.185 428.816C139.529 428.788 139.834 428.74 140.099 428.672C140.369 428.599 140.6 428.514 140.792 428.419C140.989 428.317 141.15 428.21 141.274 428.097C141.404 427.984 141.5 427.866 141.562 427.742C141.624 427.612 141.655 427.488 141.655 427.37V427.184ZM142.204 427.184H143.194V427.37C143.194 427.494 143.225 427.618 143.287 427.742C143.349 427.866 143.442 427.987 143.566 428.106C143.696 428.218 143.856 428.326 144.048 428.427C144.245 428.523 144.476 428.605 144.741 428.672C145.012 428.74 145.319 428.788 145.663 428.816L145.274 429.696C144.874 429.656 144.51 429.591 144.183 429.501C143.856 429.405 143.569 429.284 143.321 429.137C143.078 428.991 142.872 428.827 142.703 428.647C142.54 428.461 142.416 428.261 142.331 428.046C142.247 427.832 142.204 427.607 142.204 427.37V427.184ZM139.532 426.744H145.333V427.632H139.532V426.744Z" fill="black"/>
<path d="M131.109 430.576H138.196V431.464H131.109V430.576ZM131.972 426.525H137.334V428.648H133.097V429.494H131.989V427.853H136.226V427.38H131.972V426.525ZM131.989 429.164H137.486V430.018H131.989V429.164ZM134.095 429.578H135.211V431.058H134.095V429.578ZM131.887 431.904H137.384V434.187H136.26V432.8H131.887V431.904Z" fill="black"/>
<path d="M123.338 429.958H130.416V430.872H123.338V429.958ZM124.192 428.529H129.613V429.417H124.192V428.529ZM124.192 426.584H129.57V427.489H125.308V428.969H124.192V426.584ZM126.847 431.328C127.693 431.328 128.358 431.455 128.843 431.709C129.328 431.957 129.57 432.312 129.57 432.774C129.57 433.231 129.328 433.583 128.843 433.831C128.358 434.085 127.693 434.212 126.847 434.212C126.002 434.212 125.336 434.085 124.852 433.831C124.372 433.583 124.133 433.231 124.133 432.774C124.133 432.312 124.372 431.957 124.852 431.709C125.336 431.455 126.002 431.328 126.847 431.328ZM126.847 432.182C126.498 432.182 126.205 432.205 125.968 432.25C125.737 432.289 125.562 432.354 125.444 432.444C125.325 432.529 125.266 432.639 125.266 432.774C125.266 432.904 125.325 433.014 125.444 433.104C125.562 433.189 125.737 433.254 125.968 433.299C126.205 433.338 126.498 433.358 126.847 433.358C127.197 433.358 127.487 433.338 127.718 433.299C127.955 433.254 128.133 433.189 128.251 433.104C128.37 433.014 128.429 432.904 128.429 432.774C128.429 432.639 128.37 432.529 128.251 432.444C128.133 432.354 127.955 432.289 127.718 432.25C127.487 432.205 127.197 432.182 126.847 432.182Z" fill="black"/>
<path d="M115.939 426.99H119.737V430.787H115.939V426.99ZM118.637 427.886H117.047V429.89H118.637V427.886ZM120.929 426.381H122.054V431.945H120.929V426.381ZM116.836 433.146H122.257V434.043H116.836V433.146ZM116.836 431.446H117.961V433.544H116.836V431.446Z" fill="black"/>
<path d="M110.662 427.242H111.643V427.479C111.643 427.75 111.598 428.012 111.507 428.266C111.423 428.519 111.293 428.756 111.118 428.976C110.944 429.19 110.729 429.385 110.476 429.56C110.228 429.729 109.94 429.872 109.613 429.991C109.286 430.109 108.922 430.194 108.522 430.245L108.108 429.374C108.457 429.328 108.767 429.261 109.038 429.171C109.314 429.075 109.554 428.965 109.757 428.841C109.96 428.711 110.129 428.573 110.264 428.426C110.4 428.28 110.498 428.125 110.56 427.961C110.628 427.798 110.662 427.637 110.662 427.479V427.242ZM110.992 427.242H111.964V427.479C111.964 427.637 111.995 427.798 112.057 427.961C112.125 428.125 112.226 428.28 112.362 428.426C112.497 428.573 112.666 428.711 112.869 428.841C113.078 428.965 113.317 429.075 113.588 429.171C113.858 429.261 114.168 429.328 114.518 429.374L114.104 430.245C113.703 430.194 113.34 430.109 113.013 429.991C112.686 429.872 112.395 429.729 112.142 429.56C111.894 429.385 111.682 429.19 111.507 428.976C111.338 428.756 111.209 428.519 111.118 428.266C111.034 428.012 110.992 427.75 110.992 427.479V427.242ZM110.721 431.344H111.846V434.211H110.721V431.344ZM107.77 430.693H114.856V431.598H107.77V430.693ZM108.395 426.777H114.205V427.665H108.395V426.777Z" fill="black"/>
<path d="M100.233 426.601C100.639 426.601 100.997 426.68 101.307 426.838C101.623 426.99 101.871 427.201 102.052 427.472C102.238 427.737 102.331 428.044 102.331 428.394C102.331 428.743 102.238 429.053 102.052 429.324C101.871 429.589 101.623 429.797 101.307 429.95C100.997 430.102 100.639 430.178 100.233 430.178C99.8387 430.178 99.4835 430.102 99.1678 429.95C98.8521 429.797 98.6012 429.589 98.4151 429.324C98.2347 429.053 98.1445 428.743 98.1445 428.394C98.1445 428.044 98.2347 427.734 98.4151 427.463C98.6012 427.193 98.8521 426.981 99.1678 426.829C99.4835 426.677 99.8387 426.601 100.233 426.601ZM100.242 427.514C100.05 427.514 99.8782 427.551 99.7259 427.624C99.5737 427.692 99.4525 427.79 99.3623 427.92C99.2777 428.05 99.2354 428.208 99.2354 428.394C99.2354 428.58 99.2777 428.74 99.3623 428.876C99.4525 429.005 99.5709 429.104 99.7175 429.172C99.8697 429.239 100.044 429.273 100.242 429.273C100.433 429.273 100.603 429.239 100.749 429.172C100.901 429.104 101.02 429.005 101.104 428.876C101.195 428.74 101.24 428.58 101.24 428.394C101.24 428.208 101.195 428.05 101.104 427.92C101.02 427.79 100.901 427.692 100.749 427.624C100.597 427.551 100.428 427.514 100.242 427.514ZM103.413 426.381H104.538V430.296H103.413V426.381ZM99.32 430.618H104.538V432.757H100.436V433.713H99.3285V431.945H103.422V431.48H99.32V430.618ZM99.3285 433.248H104.732V434.127H99.3285V433.248Z" fill="black"/>
<path d="M95.2514 426.381H96.3846V434.212H95.2514V426.381ZM96.1393 429.29H97.5178V430.22H96.1393V429.29ZM90.4902 426.99H91.6065V428.901H93.1795V426.99H94.2958V432.394H90.4902V426.99ZM91.6065 429.772V431.497H93.1795V429.772H91.6065Z" fill="black"/>
<path d="M82.4746 432.384H89.5698V433.298H82.4746V432.384ZM85.4514 430.659H86.5677V432.604H85.4514V430.659ZM83.2188 426.955H88.7918V430.803H83.2188V426.955ZM87.6839 427.843H84.3266V429.906H87.6839V427.843Z" fill="black"/>
<path d="M121.64 449.529H114.408V456.761H121.64V449.529ZM120.605 455.73H115.44V450.564H120.605V455.73Z" fill="black"/>
<path d="M123.704 449.529H122.672V450.561H123.704V449.529Z" fill="black"/>
<path d="M126.807 451.596V450.564H128.87V449.529H125.771V451.596H126.807Z" fill="black"/>
<path d="M130.936 452.628V451.596H133.003V449.529H131.971V450.564H130.936V449.529H129.904V452.628H130.936Z" fill="black"/>
<path d="M136.101 450.564V452.628H135.069V450.564H134.034V452.628H130.936V453.663H133.002V454.695H134.034V453.663H135.069V454.695H134.034V455.73H135.069V456.761H136.101V455.73H137.136V452.628H139.199V454.695H140.235V451.596H138.168V449.529H135.069V450.564H136.101Z" fill="black"/>
<path d="M141.268 449.529V456.761H148.5V449.529H141.268ZM147.468 455.73H142.303V450.564H147.468V455.73Z" fill="black"/>
<path d="M119.573 451.596H116.475V454.694H119.573V451.596Z" fill="black"/>
<path d="M127.837 455.729H128.869V453.663H127.837V452.627H126.806V453.663H125.77V452.627H124.739V451.596H122.672V452.627H123.704V453.663H124.739V454.694H126.806V456.761H127.837V455.729Z" fill="black"/>
<path d="M146.433 451.596H143.334V454.694H146.433V451.596Z" fill="black"/>
<path d="M129.901 452.627H128.869V453.659H129.901V452.627Z" fill="black"/>
<path d="M123.704 453.662H122.672V454.694H123.704V453.662Z" fill="black"/>
<path d="M130.936 453.662H129.904V454.694H130.936V453.662Z" fill="black"/>
<path d="M130.936 456.762H131.971V455.73H133.002V454.695H130.936V456.762Z" fill="black"/>
<path d="M123.704 455.73H122.672V457.797H123.704V455.73Z" fill="black"/>
<path d="M126.806 459.861V456.762H125.771V455.73H124.739V457.794H125.771V458.829H124.739V457.794H123.704V458.829H122.672V459.861H120.605V460.896H124.739V459.861H126.806Z" fill="black"/>
<path d="M129.901 455.73H128.869V456.762H129.901V455.73Z" fill="black"/>
<path d="M134.034 455.73H133.002V456.762H134.034V455.73Z" fill="black"/>
<path d="M138.168 455.73H137.137V456.762H138.168V455.73Z" fill="black"/>
<path d="M139.2 457.794V458.829H140.235V455.73H139.2V456.762H138.168V457.794H139.2Z" fill="black"/>
<path d="M134.034 459.86V460.895H133.003V459.86H134.034V457.793H133.003V458.829H131.971V457.793H130.936V456.762H129.904V458.829H130.936V459.86H128.869V460.895H129.904V461.927H134.034V462.959H135.07V459.86H134.034Z" fill="black"/>
<path d="M135.067 456.762H134.035V457.793H135.067V456.762Z" fill="black"/>
<path d="M121.641 458.828V457.793H119.574V458.828H118.539V459.86H120.606V458.828H121.641Z" fill="black"/>
<path d="M136.102 457.793H135.07V458.825H136.102V457.793Z" fill="black"/>
<path d="M138.168 457.793H137.137V458.828H136.102V459.86H137.137V460.895H138.168V459.86H139.2V458.828H138.168V457.793Z" fill="black"/>
<path d="M142.303 457.793H141.268V458.825H142.303V457.793Z" fill="black"/>
<path d="M144.366 457.793H143.334V458.828H142.303V459.86H144.366V457.793Z" fill="black"/>
<path d="M147.467 460.895H146.432V459.86H147.467V458.828H146.432V457.793H145.4V461.927H146.432V462.958H147.467V460.895Z" fill="black"/>
<path d="M148.499 457.793H147.467V458.825H148.499V457.793Z" fill="black"/>
<path d="M115.44 465.025H116.475V459.86H115.44V458.828H114.408V460.895H115.44V461.927H114.408V462.958H115.44V465.025Z" fill="black"/>
<path d="M117.506 458.828H116.475V459.86H117.506V458.828Z" fill="black"/>
<path d="M128.87 458.828H127.838V459.86H128.87V458.828Z" fill="black"/>
<path d="M140.231 459.859H139.199V460.891H140.231V459.859Z" fill="black"/>
<path d="M142.303 459.859H141.268V460.891H142.303V459.859Z" fill="black"/>
<path d="M119.574 462.958H121.641V461.926H120.606V460.895H119.574V462.958Z" fill="black"/>
<path d="M127.837 461.926V460.895H124.739V461.926H122.672V462.958H124.739V463.993H125.77V462.958H126.806V461.926H127.837Z" fill="black"/>
<path d="M136.102 462.958H135.07V463.993H137.137V460.895H136.102V462.958Z" fill="black"/>
<path d="M138.168 461.926V463.993H139.2V462.958H140.235V463.993H143.333V461.926H141.267V460.895H140.235V461.926H138.168Z" fill="black"/>
<path d="M144.369 460.895H143.334V461.926H144.369V460.895Z" fill="black"/>
<path d="M118.538 462.959H117.506V463.991H118.538V462.959Z" fill="black"/>
<path d="M128.87 463.994H130.937V462.959H126.807V463.994H127.838V465.026H126.807V466.061H128.87V463.994Z" fill="black"/>
<path d="M133.002 463.994H131.971V465.026H134.034V462.959H133.002V463.994Z" fill="black"/>
<path d="M146.432 462.959H145.4V463.991H146.432V462.959Z" fill="black"/>
<path d="M148.499 462.959H147.467V463.991H148.499V462.959Z" fill="black"/>
<path d="M147.467 480.521H145.4V481.553H144.368V479.486H145.4V478.451H144.368V474.318H140.235V472.251H141.266V471.219H138.168V470.187H137.136V472.254H136.104V469.156H135.073V471.222H134.041V468.124H135.073V467.092H134.041V466.06H133.009V467.092H131.978V465.025H129.911V466.057H130.942V467.089H129.911V468.12H128.879V469.152H127.847V467.085H126.816V466.054H125.784V465.022H122.685V463.99H119.587V465.022H121.654V466.054H119.587V465.022H117.52V466.054H118.552V467.085H116.485V468.117H115.453V469.149H117.52V468.117H119.587V467.085H123.72V466.054H124.752V468.12H120.618V469.152H122.685V470.184H120.618V471.216H121.65V472.247H123.717V473.279H124.749V471.212H123.717V469.145H125.784V470.177H130.949V468.11H133.016V469.142H131.984V470.174H133.016V472.241H135.083V473.272H138.181V472.241H139.213V473.272H138.181V474.304H137.15V476.371H138.181V475.339H139.213V476.371H138.181V478.438H139.213V479.473H142.312V481.54H143.343V482.571H144.378V483.603H145.41V482.571H146.442V481.54H148.509V479.473H147.477V480.504L147.467 480.521ZM143.333 478.455H140.235V475.356H143.333V478.455Z" fill="black"/>
<path d="M147.463 463.994H146.432V465.026H147.463V463.994Z" fill="black"/>
<path d="M116.475 466.06H115.44V465.025H114.408V467.092H116.475V466.06Z" fill="black"/>
<path d="M135.067 465.025H134.035V466.057H135.067V465.025Z" fill="black"/>
<path d="M142.302 467.092H139.2V466.06H140.235V465.025H138.168V466.06H137.137V467.092H138.168V470.191H142.302V467.092Z" fill="black"/>
<path d="M144.366 466.06V465.025H142.303V466.06H143.334V467.092H145.401V466.06H144.366Z" fill="black"/>
<path d="M146.432 465.025H145.4V466.057H146.432V465.025Z" fill="black"/>
<path d="M148.499 465.025H147.467V466.057H148.499V465.025Z" fill="black"/>
<path d="M145.4 469.159H144.365V470.19H146.432V469.159H148.499V467.092H145.4V469.159Z" fill="black"/>
<path d="M137.133 468.123H136.102V469.155H137.133V468.123Z" fill="black"/>
<path d="M144.369 468.123H143.334V469.155H144.369V468.123Z" fill="black"/>
<path d="M120.606 469.158H118.539V470.19H120.606V469.158Z" fill="black"/>
<path d="M117.506 470.191H115.439V471.223H117.506V470.191Z" fill="black"/>
<path d="M125.77 470.191H124.738V471.223H125.77V470.191Z" fill="black"/>
<path d="M144.366 473.29V470.191H143.334V471.227H142.303V472.258H141.268V473.29H144.366Z" fill="black"/>
<path d="M116.475 474.325H115.44V471.227H114.408V475.357H116.475V474.325Z" fill="black"/>
<path d="M120.606 471.227H119.574V472.258H120.606V471.227Z" fill="black"/>
<path d="M128.87 472.258H127.838V471.227H126.807V472.258H125.771V473.29H128.87V472.258Z" fill="black"/>
<path d="M129.901 471.227H128.869V472.258H129.901V471.227Z" fill="black"/>
<path d="M131.967 471.227H130.936V472.258H131.967V471.227Z" fill="black"/>
<path d="M147.463 471.227H146.432V472.258H147.463V471.227Z" fill="black"/>
<path d="M117.506 472.258H116.475V473.29H117.506V472.258Z" fill="black"/>
<path d="M121.637 472.258H120.605V473.29H121.637V472.258Z" fill="black"/>
<path d="M146.432 472.258H145.4V474.325H146.432V472.258Z" fill="black"/>
<path d="M118.538 473.289H117.506V474.321H118.538V473.289Z" fill="black"/>
<path d="M123.704 473.289H122.672V474.321H123.704V473.289Z" fill="black"/>
<path d="M125.77 473.289H124.738V474.321H125.77V473.289Z" fill="black"/>
<path d="M130.936 473.289H129.904V474.321H130.936V473.289Z" fill="black"/>
<path d="M135.067 473.289H134.035V474.321H135.067V473.289Z" fill="black"/>
<path d="M147.467 475.356H146.432V476.391H148.498V473.289H147.467V475.356Z" fill="black"/>
<path d="M121.641 474.324H119.574V475.356H121.641V474.324Z" fill="black"/>
<path d="M124.735 474.324H123.703V475.356H124.735V474.324Z" fill="black"/>
<path d="M135.071 477.423H134.035V476.391H135.071V475.356H134.035V474.324H131.972V475.356H129.905V474.324H127.838V475.356H126.807V477.423H127.838V476.391H133.004V478.454H131.972V479.49H134.035V480.521H135.071V479.49H136.102V480.521H138.169V481.556H140.236V480.521H139.201V479.49H137.137V478.454H136.102V477.423H137.137V476.391H135.071V477.423Z" fill="black"/>
<path d="M136.102 474.324H135.07V475.356H136.102V474.324Z" fill="black"/>
<path d="M123.704 475.355H122.672V476.387H123.704V475.355Z" fill="black"/>
<path d="M125.77 475.355H124.738V476.387H125.77V475.355Z" fill="black"/>
<path d="M114.408 476.391V483.623H121.64V476.391H114.408ZM120.605 482.588H115.44V477.422H120.605V482.588Z" fill="black"/>
<path d="M142.303 476.391H141.268V477.426H142.303V476.391Z" fill="black"/>
<path d="M146.432 476.391H145.4V478.457H146.432V476.391Z" fill="black"/>
<path d="M123.704 477.424H122.672V478.456H123.704V477.424Z" fill="black"/>
<path d="M125.77 482.589V481.557H126.805V480.522H127.837V479.491H128.868V478.456H126.805V477.424H125.77V480.522H124.738V481.557H123.703V482.589H124.738V483.621H126.805V482.589H125.77Z" fill="black"/>
<path d="M129.904 479.491H130.936V478.456H131.971V477.424H128.869V478.456H129.904V479.491Z" fill="black"/>
<path d="M148.499 477.424H147.467V478.456H148.499V477.424Z" fill="black"/>
<path d="M119.573 478.455H116.475V481.554H119.573V478.455Z" fill="black"/>
<path d="M147.463 478.455H146.432V479.49H147.463V478.455Z" fill="black"/>
<path d="M129.901 479.49H128.869V480.522H129.901V479.49Z" fill="black"/>
<path d="M131.967 479.49H130.936V480.522H131.967V479.49Z" fill="black"/>
<path d="M130.936 480.521H129.904V481.553H130.936V480.521Z" fill="black"/>
<path d="M134.034 480.521H133.002V481.553H134.034V480.521Z" fill="black"/>
<path d="M128.87 481.557V482.588H127.838V483.62H129.905V481.557H128.87Z" fill="black"/>
<path d="M133.002 481.557H130.936V482.588H133.002V481.557Z" fill="black"/>
<path d="M135.067 481.557H134.035V482.588H135.067V481.557Z" fill="black"/>
<path d="M138.168 481.557H136.102V482.588H138.168V481.557Z" fill="black"/>
<path d="M134.034 482.588H133.002V483.62H134.034V482.588Z" fill="black"/>
<path d="M136.102 482.588H135.07V483.62H136.102V482.588Z" fill="black"/>
<path d="M142.302 482.588H138.168V483.62H142.302V482.588Z" fill="black"/>
<path d="M147.463 482.588H146.432V483.62H147.463V482.588Z" fill="black"/>
<path d="M152.09 450.037C152.09 447.774 150.255 445.939 147.992 445.939H114.916C112.653 445.939 110.818 447.774 110.818 450.037V483.113C110.818 485.376 112.653 487.211 114.916 487.211H147.992C150.255 487.211 152.09 485.376 152.09 483.113V450.037ZM153.758 483.113C153.758 486.297 151.176 488.879 147.992 488.879H114.916C111.732 488.879 109.15 486.297 109.15 483.113V450.037C109.15 446.853 111.732 444.271 114.916 444.271H147.992C151.176 444.272 153.758 446.853 153.758 450.037V483.113Z" fill="black"/>
<path d="M345.122 389.586H193.176V579.466H345.122V389.586Z" fill="#333333"/>
<path d="M331.93 362.262H206.368C199.082 362.262 193.176 368.168 193.176 375.454V578.188C193.176 585.474 199.082 591.381 206.368 591.381H331.93C339.216 591.381 345.122 585.474 345.122 578.188V375.454C345.122 368.168 339.216 362.262 331.93 362.262Z" fill="white"/>
<path d="M193.176 389.586H345.122V578.776C345.122 585.734 339.473 591.38 332.519 591.38H205.78C198.821 591.38 193.176 585.731 193.176 578.776V389.586Z" fill="#333333"/>
<path d="M343.816 375.247C343.816 368.823 338.608 363.614 332.183 363.614H206.161C199.737 363.614 194.528 368.823 194.528 375.247V578.394C194.528 584.819 199.737 590.027 206.161 590.027H332.183C338.608 590.027 343.816 584.819 343.816 578.394V375.247ZM346.522 578.394C346.522 586.314 340.103 592.733 332.183 592.733H206.161C198.242 592.733 191.822 586.314 191.822 578.394V375.247C191.822 367.328 198.242 360.908 206.161 360.908H332.183C340.103 360.908 346.522 367.328 346.522 375.247V578.394Z" fill="black"/>
<path d="M332.182 591.945C339.666 591.945 345.733 585.878 345.733 578.394V375.247C345.733 367.763 339.666 361.696 332.182 361.696H206.16C198.677 361.696 192.61 367.763 192.61 375.247V578.394C192.61 585.878 198.676 591.945 206.16 591.945H332.182ZM206.16 594.651C197.182 594.651 189.903 587.373 189.903 578.394V375.247C189.903 366.269 197.182 358.99 206.16 358.99H332.182C341.161 358.99 348.439 366.269 348.439 375.247V578.394C348.439 587.373 341.161 594.651 332.182 594.651H206.16Z" fill="#BDBFC1"/>
<path d="M343.816 375.247C343.816 368.823 338.608 363.614 332.183 363.614H206.161C199.737 363.614 194.528 368.823 194.528 375.247V578.394C194.528 584.819 199.737 590.027 206.161 590.027H332.183C338.608 590.027 343.816 584.819 343.816 578.394V375.247ZM346.522 578.394C346.522 586.314 340.103 592.733 332.183 592.733H206.161C198.242 592.733 191.822 586.314 191.822 578.394V375.247C191.822 367.328 198.242 360.908 206.161 360.908H332.183C340.103 360.908 346.522 367.328 346.522 375.247V578.394Z" fill="black"/>
<path d="M348.651 399.174H348.647C347.444 399.174 346.469 400.149 346.469 401.352V447.286C346.469 448.489 347.444 449.464 348.647 449.464H348.651C349.854 449.464 350.829 448.489 350.829 447.286V401.352C350.829 400.149 349.854 399.174 348.651 399.174Z" fill="#BDBFC1"/>
<path d="M348.651 463.668H348.647C347.444 463.668 346.469 464.643 346.469 465.846V491.822C346.469 493.025 347.444 494 348.647 494H348.651C349.854 494 350.829 493.025 350.829 491.822V465.846C350.829 464.643 349.854 463.668 348.651 463.668Z" fill="#BDBFC1"/>
<path d="M319.465 411.961H219.267C214.679 411.961 210.959 415.681 210.959 420.269V521.069C210.959 525.658 214.679 529.377 219.267 529.377H319.465C324.054 529.377 327.773 525.658 327.773 521.069V420.269C327.773 415.681 324.054 411.961 319.465 411.961Z" fill="white"/>
<path d="M326.757 420.268C326.757 416.24 323.492 412.975 319.464 412.975H219.266C215.238 412.975 211.973 416.24 211.973 420.268V521.068C211.973 525.096 215.238 528.362 219.266 528.362H319.464C323.492 528.362 326.757 525.096 326.757 521.068V420.268ZM328.787 521.068C328.787 526.217 324.613 530.391 319.464 530.391H219.266C214.117 530.391 209.943 526.217 209.943 521.068V420.268C209.943 415.119 214.117 410.945 219.266 410.945H319.464C324.613 410.945 328.787 415.119 328.787 420.268V521.068Z" fill="#006BEE"/>
<path d="M316.816 521.65C318.6 521.65 320.047 520.204 320.047 518.419V422.916C320.047 421.132 318.6 419.686 316.816 419.686H221.915C220.131 419.686 218.684 421.132 218.684 422.916V518.419C218.684 520.204 220.131 521.65 221.915 521.65H316.816ZM221.915 523.679C219.01 523.679 216.655 521.325 216.655 518.419V422.916C216.655 420.011 219.01 417.656 221.915 417.656H316.816C319.721 417.656 322.076 420.011 322.076 422.916V518.419C322.076 521.325 319.721 523.679 316.816 523.679H221.915Z" fill="#FF003A"/>
<path d="M247.893 433.375H232.072V449.196H247.893V433.375ZM245.633 446.936H234.332V435.635H245.633V446.936Z" fill="black"/>
<path d="M252.412 433.375H250.152V435.635H252.412V433.375Z" fill="black"/>
<path d="M259.195 437.894V435.635H263.714V433.375H256.936V437.894H259.195Z" fill="black"/>
<path d="M268.232 440.154V437.894H272.755V433.375H270.495V435.635H268.232V433.375H265.973V440.154H268.232Z" fill="black"/>
<path d="M279.534 435.635V440.154H277.274V435.635H275.015V440.154H268.232V442.417H272.755V444.677H275.015V442.417H277.274V444.677H275.015V446.936H277.274V449.196H279.534V446.936H281.794V440.154H286.316V444.677H288.576V437.894H284.057V433.375H277.274V435.635H279.534Z" fill="black"/>
<path d="M290.836 433.375V449.196H306.657V433.375H290.836ZM304.397 446.936H293.096V435.635H304.397V446.936Z" fill="black"/>
<path d="M243.371 437.895H236.592V444.673H243.371V437.895Z" fill="black"/>
<path d="M261.454 446.936H263.713V442.417H261.454V440.154H259.194V442.417H256.935V440.154H254.672V437.895H250.152V440.154H252.412V442.417H254.672V444.677H259.194V449.196H261.454V446.936Z" fill="black"/>
<path d="M302.138 437.895H295.355V444.673H302.138V437.895Z" fill="black"/>
<path d="M265.973 440.154H263.713V442.414H265.973V440.154Z" fill="black"/>
<path d="M252.412 442.416H250.152V444.676H252.412V442.416Z" fill="black"/>
<path d="M268.232 442.416H265.973V444.676H268.232V442.416Z" fill="black"/>
<path d="M268.232 449.195H270.495V446.935H272.755V444.676H268.232V449.195Z" fill="black"/>
<path d="M252.412 446.936H250.152V451.455H252.412V446.936Z" fill="black"/>
<path d="M259.194 455.977V449.195H256.934V446.936H254.671V451.455H256.934V453.718H254.671V451.455H252.412V453.718H250.152V455.977H245.633V458.237H254.671V455.977H259.194Z" fill="black"/>
<path d="M265.973 446.936H263.713V449.195H265.973V446.936Z" fill="black"/>
<path d="M275.016 446.936H272.756V449.195H275.016V446.936Z" fill="black"/>
<path d="M284.055 446.936H281.795V449.195H284.055V446.936Z" fill="black"/>
<path d="M286.316 451.455V453.718H288.576V446.936H286.316V449.195H284.057V451.455H286.316Z" fill="black"/>
<path d="M275.014 455.978V458.237H272.755V455.978H275.014V451.455H272.755V453.718H270.495V451.455H268.232V449.195H265.973V453.718H268.232V455.978H263.713V458.237H265.973V460.497H275.014V462.756H277.274V455.978H275.014Z" fill="black"/>
<path d="M277.275 449.195H275.016V451.455H277.275V449.195Z" fill="black"/>
<path d="M247.894 453.718V451.455H243.374V453.718H241.111V455.978H245.634V453.718H247.894Z" fill="black"/>
<path d="M279.535 451.455H277.275V453.715H279.535V451.455Z" fill="black"/>
<path d="M284.058 451.455H281.795V453.718H279.535V455.978H281.795V458.237H284.058V455.978H286.317V453.718H284.058V451.455Z" fill="black"/>
<path d="M293.096 451.455H290.836V453.715H293.096V451.455Z" fill="black"/>
<path d="M297.618 451.455H295.355V453.718H293.096V455.978H297.618V451.455Z" fill="black"/>
<path d="M304.398 458.237H302.139V455.978H304.398V453.718H302.139V451.455H299.879V460.497H302.139V462.757H304.398V458.237Z" fill="black"/>
<path d="M306.656 451.455H304.396V453.715H306.656V451.455Z" fill="black"/>
<path d="M234.332 467.277H236.592V455.978H234.332V453.719H232.072V458.238H234.332V460.498H232.072V462.757H234.332V467.277Z" fill="black"/>
<path d="M238.851 453.719H236.592V455.978H238.851V453.719Z" fill="black"/>
<path d="M263.715 453.719H261.455V455.978H263.715V453.719Z" fill="black"/>
<path d="M288.576 455.979H286.316V458.238H288.576V455.979Z" fill="black"/>
<path d="M293.096 455.979H290.836V458.238H293.096V455.979Z" fill="black"/>
<path d="M243.373 462.758H247.892V460.498H245.633V458.238H243.373V462.758Z" fill="black"/>
<path d="M261.454 460.498V458.238H254.672V460.498H250.152V462.758H254.672V465.017H256.935V462.758H259.194V460.498H261.454Z" fill="black"/>
<path d="M279.535 462.758H277.275V465.017H281.795V458.238H279.535V462.758Z" fill="black"/>
<path d="M284.057 460.498V465.017H286.316V462.758H288.576V465.017H295.355V460.498H290.836V458.238H288.576V460.498H284.057Z" fill="black"/>
<path d="M297.615 458.238H295.355V460.498H297.615V458.238Z" fill="black"/>
<path d="M241.111 462.758H238.852V465.017H241.111V462.758Z" fill="black"/>
<path d="M263.715 465.017H268.234V462.758H259.195V465.017H261.455V467.277H259.195V469.54H263.715V465.017Z" fill="black"/>
<path d="M272.756 465.017H270.496V467.277H275.015V462.758H272.756V465.017Z" fill="black"/>
<path d="M302.139 462.758H299.879V465.017H302.139V462.758Z" fill="black"/>
<path d="M306.656 462.758H304.396V465.017H306.656V462.758Z" fill="black"/>
<path d="M304.397 501.181H299.878V503.441H297.618V498.921H299.878V496.662H297.618V487.62H288.576V483.1H290.836V480.841H284.057V478.581H281.797V483.1H279.538V476.322H277.278V480.841H275.019V474.062H277.278V471.802H275.019V469.543H272.759V471.802H270.499V467.283H265.98V469.543H268.24V471.802H265.98V474.062H263.72V476.322H261.461V471.802H259.201V469.543H256.941V467.283H250.163V465.023H243.38V467.283H247.9V469.543H243.38V467.283H238.861V469.543H241.121V471.802H236.601V474.062H234.342V476.322H238.861V474.062H243.38V471.802H252.422V469.543H254.682V474.062H245.64V476.322H250.159V478.581H245.64V480.841H247.9V483.1H252.419V485.36H254.678V480.841H252.419V476.322H256.938V478.581H268.24V474.062H272.759V476.322H270.499V478.581H272.759V483.1H277.278V485.36H284.057V483.1H286.317V485.36H284.057V487.62H281.797V492.139H284.057V489.879H286.317V492.139H284.057V496.658H286.317V498.918H293.099V503.437H295.359V505.697H297.618V507.956H299.878V505.697H302.137V503.437H306.657V498.918H304.397V501.178V501.181ZM295.355 496.658H288.576V489.879H295.355V496.658Z" fill="black"/>
<path d="M304.398 465.016H302.139V467.275H304.398V465.016Z" fill="black"/>
<path d="M236.592 469.538H234.332V467.275H232.072V471.798H236.592V469.538Z" fill="black"/>
<path d="M277.275 467.275H275.016V469.535H277.275V467.275Z" fill="black"/>
<path d="M293.096 471.798H286.318V469.538H288.577V467.275H284.058V469.538H281.795V471.798H284.058V478.577H293.096V471.798Z" fill="black"/>
<path d="M297.618 469.538V467.275H293.096V469.538H295.355V471.798H299.878V469.538H297.618Z" fill="black"/>
<path d="M302.139 467.275H299.879V469.535H302.139V467.275Z" fill="black"/>
<path d="M306.656 467.275H304.396V469.535H306.656V467.275Z" fill="black"/>
<path d="M299.879 476.318H297.619V478.578H302.138V476.318H306.658V471.799H299.879V476.318Z" fill="black"/>
<path d="M281.795 474.059H279.535V476.318H281.795V474.059Z" fill="black"/>
<path d="M297.615 474.059H295.355V476.318H297.615V474.059Z" fill="black"/>
<path d="M245.631 476.318H241.111V478.578H245.631V476.318Z" fill="black"/>
<path d="M238.851 478.578H234.332V480.838H238.851V478.578Z" fill="black"/>
<path d="M256.932 478.578H254.672V480.838H256.932V478.578Z" fill="black"/>
<path d="M297.618 485.36V478.578H295.355V480.841H293.096V483.101H290.836V485.36H297.618Z" fill="black"/>
<path d="M236.592 487.619H234.332V480.84H232.072V489.878H236.592V487.619Z" fill="black"/>
<path d="M245.633 480.84H243.373V483.099H245.633V480.84Z" fill="black"/>
<path d="M263.714 483.099H261.455V480.84H259.195V483.099H256.936V485.359H263.714V483.099Z" fill="black"/>
<path d="M265.973 480.84H263.713V483.099H265.973V480.84Z" fill="black"/>
<path d="M270.492 480.84H268.232V483.099H270.492V480.84Z" fill="black"/>
<path d="M304.398 480.84H302.139V483.099H304.398V480.84Z" fill="black"/>
<path d="M238.851 483.1H236.592V485.359H238.851V483.1Z" fill="black"/>
<path d="M247.892 483.1H245.633V485.359H247.892V483.1Z" fill="black"/>
<path d="M302.139 483.1H299.879V487.619H302.139V483.1Z" fill="black"/>
<path d="M241.111 485.359H238.852V487.619H241.111V485.359Z" fill="black"/>
<path d="M252.412 485.359H250.152V487.619H252.412V485.359Z" fill="black"/>
<path d="M256.932 485.359H254.672V487.619H256.932V485.359Z" fill="black"/>
<path d="M268.232 485.359H265.973V487.619H268.232V485.359Z" fill="black"/>
<path d="M277.275 485.359H275.016V487.619H277.275V485.359Z" fill="black"/>
<path d="M304.398 489.879H302.139V492.138H306.658V485.359H304.398V489.879Z" fill="black"/>
<path d="M247.892 487.619H243.373V489.879H247.892V487.619Z" fill="black"/>
<path d="M254.672 487.619H252.412V489.879H254.672V487.619Z" fill="black"/>
<path d="M277.276 494.401H275.016V492.138H277.276V489.879H275.016V487.619H270.497V489.879H265.974V487.619H261.455V489.879H259.195V494.401H261.455V492.138H272.756V496.658H270.497V498.921H275.016V501.18H277.276V498.921H279.535V501.18H284.058V503.44H288.577V501.18H286.318V498.921H281.795V496.658H279.535V494.401H281.795V492.138H277.276V494.401Z" fill="black"/>
<path d="M279.535 487.619H277.275V489.879H279.535V487.619Z" fill="black"/>
<path d="M252.412 489.879H250.152V492.139H252.412V489.879Z" fill="black"/>
<path d="M256.932 489.879H254.672V492.139H256.932V489.879Z" fill="black"/>
<path d="M232.072 492.139V507.959H247.893V492.139H232.072ZM245.633 505.7H234.332V494.398H245.633V505.7Z" fill="black"/>
<path d="M293.096 492.139H290.836V494.398H293.096V492.139Z" fill="black"/>
<path d="M302.139 492.139H299.879V496.658H302.139V492.139Z" fill="black"/>
<path d="M252.412 494.402H250.152V496.662H252.412V494.402Z" fill="black"/>
<path d="M256.935 505.7V503.441H259.194V501.181H261.454V498.922H263.714V496.659H259.194V494.402H256.935V501.181H254.672V503.441H252.412V505.7H254.672V507.963H259.194V505.7H256.935Z" fill="black"/>
<path d="M265.973 498.922H268.232V496.659H270.495V494.402H263.713V496.659H265.973V498.922Z" fill="black"/>
<path d="M306.656 494.402H304.396V496.662H306.656V494.402Z" fill="black"/>
<path d="M243.371 496.658H236.592V503.44H243.371V496.658Z" fill="black"/>
<path d="M304.398 496.658H302.139V498.918H304.398V496.658Z" fill="black"/>
<path d="M265.973 498.922H263.713V501.182H265.973V498.922Z" fill="black"/>
<path d="M270.492 498.922H268.232V501.182H270.492V498.922Z" fill="black"/>
<path d="M268.232 501.182H265.973V503.441H268.232V501.182Z" fill="black"/>
<path d="M275.016 501.182H272.756V503.441H275.016V501.182Z" fill="black"/>
<path d="M263.715 503.441V505.701H261.455V507.964H265.974V503.441H263.715Z" fill="black"/>
<path d="M272.752 503.441H268.232V505.701H272.752V503.441Z" fill="black"/>
<path d="M277.275 503.441H275.016V505.701H277.275V503.441Z" fill="black"/>
<path d="M284.054 503.441H279.535V505.701H284.054V503.441Z" fill="black"/>
<path d="M275.016 505.699H272.756V507.959H275.016V505.699Z" fill="black"/>
<path d="M279.535 505.699H277.275V507.959H279.535V505.699Z" fill="black"/>
<path d="M293.099 505.699H284.057V507.959H293.099V505.699Z" fill="black"/>
<path d="M304.398 505.699H302.139V507.959H304.398V505.699Z" fill="black"/>
<path d="M323.743 555.866C323.498 555.866 323.287 555.779 323.11 555.605C322.936 555.429 322.85 555.218 322.85 554.972C322.85 554.729 322.936 554.52 323.11 554.347C323.287 554.173 323.498 554.086 323.743 554.086C323.982 554.086 324.19 554.173 324.369 554.347C324.548 554.52 324.637 554.729 324.637 554.972C324.637 555.136 324.595 555.286 324.51 555.423C324.429 555.557 324.321 555.665 324.186 555.747C324.052 555.826 323.905 555.866 323.743 555.866Z" fill="white"/>
<path d="M314.896 551.922H316.291V554.637H314.896V551.922ZM318.42 551.922H319.814V554.637H318.42V551.922ZM312.967 554.438H321.765V555.571H312.967V554.438ZM317.35 547.465C318.049 547.465 318.671 547.573 319.217 547.79C319.769 548.007 320.199 548.311 320.506 548.702C320.821 549.087 320.978 549.545 320.978 550.076C320.978 550.6 320.821 551.058 320.506 551.45C320.199 551.834 319.769 552.135 319.217 552.351C318.671 552.568 318.049 552.677 317.35 552.677C316.658 552.677 316.036 552.568 315.484 552.351C314.938 552.135 314.508 551.834 314.194 551.45C313.879 551.058 313.722 550.6 313.722 550.076C313.722 549.545 313.879 549.087 314.194 548.702C314.508 548.311 314.938 548.007 315.484 547.79C316.036 547.573 316.658 547.465 317.35 547.465ZM317.35 548.545C316.903 548.545 316.508 548.608 316.165 548.734C315.83 548.853 315.567 549.024 315.379 549.248C315.19 549.471 315.096 549.747 315.096 550.076C315.096 550.391 315.19 550.663 315.379 550.894C315.567 551.118 315.83 551.292 316.165 551.418C316.508 551.537 316.903 551.596 317.35 551.596C317.804 551.596 318.199 551.537 318.535 551.418C318.878 551.292 319.14 551.118 319.322 550.894C319.51 550.663 319.605 550.391 319.605 550.076C319.605 549.747 319.51 549.471 319.322 549.248C319.14 549.024 318.878 548.853 318.535 548.734C318.199 548.608 317.804 548.545 317.35 548.545Z" fill="white"/>
<path d="M307.137 550.254H308.752V551.387H307.137V550.254ZM305.071 547.832H306.13V549.457C306.13 550.009 306.091 550.551 306.015 551.083C305.938 551.614 305.812 552.114 305.637 552.582C305.469 553.05 305.246 553.473 304.966 553.851C304.693 554.221 304.361 554.526 303.97 554.763L303.131 553.715C303.494 553.498 303.798 553.232 304.043 552.918C304.288 552.603 304.487 552.257 304.641 551.88C304.795 551.502 304.903 551.111 304.966 550.705C305.036 550.293 305.071 549.877 305.071 549.457V547.832ZM305.375 547.832H306.413V549.394C306.413 549.793 306.441 550.188 306.497 550.579C306.56 550.971 306.658 551.345 306.791 551.701C306.923 552.058 307.098 552.386 307.315 552.687C307.539 552.988 307.818 553.246 308.154 553.463L307.388 554.554C307.011 554.316 306.689 554.015 306.424 553.652C306.165 553.281 305.959 552.865 305.805 552.404C305.651 551.942 305.539 551.457 305.469 550.946C305.406 550.436 305.375 549.919 305.375 549.394V547.832ZM310.324 546.982H311.656V556.693H310.324V546.982ZM308.353 547.14H309.653V556.263H308.353V547.14Z" fill="white"/>
<path d="M299.892 546.992H301.287V556.703H299.892V546.992ZM300.972 550.778H302.681V551.931H300.972V550.778ZM293.621 548.418H299.284V549.53H293.621V548.418ZM296.473 550.086C296.942 550.086 297.361 550.187 297.732 550.39C298.102 550.585 298.392 550.855 298.602 551.197C298.819 551.54 298.927 551.938 298.927 552.393C298.927 552.847 298.819 553.249 298.602 553.599C298.392 553.941 298.102 554.214 297.732 554.416C297.368 554.612 296.949 554.71 296.473 554.71C296.005 554.71 295.582 554.612 295.205 554.416C294.834 554.214 294.54 553.941 294.324 553.599C294.114 553.249 294.009 552.847 294.009 552.393C294.009 551.938 294.114 551.54 294.324 551.197C294.54 550.855 294.834 550.585 295.205 550.39C295.582 550.187 296.005 550.086 296.473 550.086ZM296.473 551.218C296.25 551.218 296.054 551.264 295.886 551.354C295.718 551.445 295.586 551.578 295.488 551.753C295.39 551.928 295.341 552.141 295.341 552.393C295.341 552.637 295.39 552.851 295.488 553.032C295.586 553.207 295.718 553.343 295.886 553.441C296.054 553.532 296.25 553.578 296.473 553.578C296.69 553.578 296.882 553.532 297.05 553.441C297.218 553.343 297.351 553.207 297.449 553.032C297.546 552.851 297.595 552.637 297.595 552.393C297.595 552.141 297.546 551.928 297.449 551.753C297.351 551.578 297.218 551.445 297.05 551.354C296.882 551.264 296.69 551.218 296.473 551.218ZM295.76 547.149H297.165V548.848H295.76V547.149Z" fill="white"/>
<path d="M290.968 546.982H292.3V554.281H290.968V546.982ZM289.793 549.814H291.335V550.936H289.793V549.814ZM288.85 547.161H290.15V554.008H288.85V547.161ZM285.704 555.413H292.562V556.535H285.704V555.413ZM285.704 553.442H287.098V556.147H285.704V553.442ZM286.941 547.79H288.283C288.283 548.636 288.164 549.405 287.927 550.097C287.689 550.789 287.301 551.401 286.763 551.932C286.231 552.463 285.515 552.928 284.613 553.327L283.963 552.33C284.704 552.016 285.291 551.659 285.725 551.261C286.165 550.862 286.476 550.411 286.658 549.908C286.847 549.405 286.941 548.842 286.941 548.22V547.79ZM284.477 547.79H287.371V548.901H284.477V547.79ZM286.993 549.635V550.579L284.246 550.883L284.078 549.782L286.993 549.635Z" fill="white"/>
<path d="M277.986 547.549H279.192V548.251C279.192 548.671 279.133 549.08 279.014 549.478C278.902 549.87 278.734 550.24 278.511 550.59C278.287 550.939 278.011 551.257 277.682 551.544C277.361 551.824 276.99 552.065 276.571 552.268C276.151 552.47 275.69 552.621 275.186 552.719L274.589 551.555C275.022 551.478 275.417 551.362 275.774 551.209C276.137 551.048 276.455 550.856 276.728 550.632C277 550.408 277.231 550.167 277.42 549.908C277.609 549.643 277.749 549.37 277.839 549.09C277.937 548.804 277.986 548.524 277.986 548.251V547.549ZM278.259 547.549H279.475V548.251C279.475 548.531 279.521 548.814 279.612 549.101C279.709 549.387 279.849 549.664 280.031 549.929C280.22 550.188 280.45 550.426 280.723 550.642C280.996 550.859 281.31 551.048 281.667 551.209C282.023 551.362 282.425 551.478 282.873 551.555L282.275 552.719C281.772 552.621 281.31 552.47 280.891 552.268C280.471 552.065 280.097 551.824 279.769 551.544C279.447 551.264 279.171 550.95 278.94 550.6C278.717 550.251 278.545 549.877 278.427 549.478C278.315 549.08 278.259 548.671 278.259 548.251V547.549ZM274.379 554.375H283.177V555.518H274.379V554.375Z" fill="white"/>
<path d="M262.307 551.345H271.094V552.352H262.307V551.345ZM263.292 552.844H270.056V555.151H264.687V555.98H263.303V554.271H268.682V553.788H263.292V552.844ZM263.303 555.676H270.329V556.62H263.303V555.676ZM263.376 547.15H270.025V549.447H264.771V550.233H263.397V548.566H268.651V548.094H263.376V547.15ZM263.397 549.95H270.203V550.894H263.397V549.95Z" fill="white"/>
<path d="M253.688 551.47H260.514V552.572H253.688V551.47ZM252.66 554.396H261.458V555.529H252.66V554.396ZM253.688 547.779H260.441V548.912H255.072V551.932H253.688V547.779Z" fill="white"/>
<path d="M243.998 547.789H250.122V548.911H243.998V547.789ZM243.002 554.458H251.789V555.58H243.002V554.458ZM249.556 547.789H250.94V548.649C250.94 549.04 250.933 549.46 250.919 549.907C250.912 550.355 250.877 550.855 250.814 551.407C250.751 551.959 250.646 552.592 250.5 553.305L249.115 553.158C249.339 552.172 249.469 551.316 249.503 550.589C249.538 549.855 249.556 549.208 249.556 548.649V547.789ZM249.808 550.128V551.187L243.883 551.501L243.705 550.316L249.808 550.128ZM246.116 552.13H247.522V554.867H246.116V552.13Z" fill="white"/>
<path d="M236.363 555.771V548.145H239.372C239.948 548.145 240.44 548.248 240.847 548.454C241.256 548.657 241.568 548.946 241.781 549.321C241.997 549.694 242.105 550.132 242.105 550.636C242.105 551.142 241.996 551.578 241.778 551.943C241.559 552.305 241.243 552.583 240.828 552.777C240.416 552.971 239.917 553.067 239.331 553.067H237.317V551.772H239.071C239.378 551.772 239.634 551.729 239.838 551.645C240.041 551.561 240.193 551.434 240.292 551.265C240.394 551.096 240.445 550.887 240.445 550.636C240.445 550.383 240.394 550.169 240.292 549.995C240.193 549.821 240.04 549.69 239.834 549.601C239.63 549.509 239.373 549.463 239.063 549.463H237.976V555.771H236.363ZM240.482 552.3L242.377 555.771H240.597L238.743 552.3H240.482Z" fill="white"/>
<path d="M231.04 553.118H232.41L233.099 554.005L233.777 554.794L235.054 556.395H233.55L232.671 555.315L232.22 554.675L231.04 553.118ZM235.17 551.957C235.17 552.788 235.012 553.496 234.697 554.079C234.384 554.663 233.957 555.108 233.416 555.416C232.877 555.721 232.271 555.874 231.598 555.874C230.921 555.874 230.313 555.72 229.774 555.412C229.235 555.104 228.809 554.659 228.497 554.075C228.184 553.492 228.027 552.786 228.027 551.957C228.027 551.125 228.184 550.417 228.497 549.834C228.809 549.251 229.235 548.806 229.774 548.501C230.313 548.193 230.921 548.039 231.598 548.039C232.271 548.039 232.877 548.193 233.416 548.501C233.957 548.806 234.384 549.251 234.697 549.834C235.012 550.417 235.17 551.125 235.17 551.957ZM233.535 551.957C233.535 551.418 233.454 550.964 233.293 550.594C233.134 550.224 232.909 549.943 232.619 549.752C232.328 549.561 231.988 549.465 231.598 549.465C231.209 549.465 230.869 549.561 230.578 549.752C230.288 549.943 230.062 550.224 229.9 550.594C229.742 550.964 229.662 551.418 229.662 551.957C229.662 552.495 229.742 552.95 229.9 553.319C230.062 553.689 230.288 553.97 230.578 554.161C230.869 554.352 231.209 554.448 231.598 554.448C231.988 554.448 232.328 554.352 232.619 554.161C232.909 553.97 233.134 553.689 233.293 553.319C233.454 552.95 233.535 552.495 233.535 551.957Z" fill="white"/>
<path d="M212.541 551.646V547.354H216.834V551.646H212.541ZM213.613 550.57H215.761V548.422H213.613V550.57ZM212.541 557.011V552.718H216.834V557.011H212.541ZM213.613 555.939H215.761V553.791H213.613V555.939ZM217.906 551.646V547.354H222.199V551.646H217.906ZM218.978 550.57H221.126V548.422H218.978V550.57ZM221.126 557.011V555.939H222.199V557.011H221.126ZM217.906 553.791V552.718H218.978V553.791H217.906ZM218.978 554.863V553.791H220.051V554.863H218.978ZM217.906 555.939V554.866H218.978V555.939H217.906ZM218.978 557.011V555.939H220.051V557.011H218.978ZM220.054 555.939V554.866H221.126V555.939H220.054ZM220.054 553.791V552.718H221.126V553.791H220.054ZM221.126 554.863V553.791H222.199V554.863H221.126Z" fill="#006BEE"/>
<path d="M249.107 375.141L244.395 379.12L241.127 377.939L245.839 373.961L248.88 375.057L249.11 375.138L249.107 375.141Z" fill="#0A1F2C"/>
<path d="M252.923 376.516L245.234 383.008C244.713 383.447 244 383.572 243.36 383.342L237.309 381.161L240.279 378.654L244.392 380.139L249.95 375.447L252.92 376.52L252.923 376.516Z" fill="#00479F"/>
<g style="mix-blend-mode:multiply">
<path d="M252.923 371.919L252.077 372.632L249.107 375.139L248.877 375.058L245.836 373.962L241.124 377.94L238.154 376.867L237.309 376.563L240.529 373.843L244.994 370.075C245.512 369.635 246.225 369.51 246.865 369.74L248.871 370.464L249.649 370.745L252.92 371.922L252.923 371.919Z" fill="#CB2E3A"/>
</g>
<path d="M258.04 373.542H262.532C262.702 373.542 262.759 373.6 262.759 373.769V376.989C262.759 377.159 262.702 377.216 262.532 377.216H260.757V378.89H263.635V379.668H256.938V378.89H259.809V377.213H258.033C257.864 377.213 257.814 377.165 257.814 376.993V373.766C257.814 373.597 257.871 373.539 258.04 373.539V373.542ZM261.859 376.445V374.314H258.713V376.445H261.859Z" fill="#19242F"/>
<path d="M267.898 378.511C267.898 378.68 267.84 378.737 267.671 378.737H264.681C264.512 378.737 264.461 378.68 264.461 378.511V373.582H265.367V375.317H266.988V373.582H267.898V378.511ZM266.988 377.969V376.106H265.367V377.969H266.988ZM269.86 373.217V375.869H270.847V376.687H269.86V380.473H268.943V373.217H269.86Z" fill="#19242F"/>
<path d="M271.365 375.04C271.382 374.049 272.201 373.261 273.192 373.278C273.219 373.278 273.243 373.278 273.27 373.278C274.403 373.278 275.174 374.049 275.174 375.037C275.174 376.025 274.403 376.813 273.27 376.813C272.285 376.877 271.433 376.13 271.369 375.145C271.369 375.108 271.365 375.071 271.365 375.037V375.04ZM273.27 376.048C273.794 376.065 274.234 375.656 274.251 375.132C274.251 375.105 274.251 375.078 274.251 375.051C274.264 374.509 273.838 374.056 273.297 374.043C272.756 374.029 272.302 374.455 272.289 374.996C272.289 375.013 272.289 375.034 272.289 375.051C272.262 375.575 272.664 376.021 273.189 376.048C273.216 376.048 273.243 376.048 273.27 376.048ZM272.559 380.426C272.39 380.426 272.333 380.368 272.333 380.199V378.748C272.333 378.579 272.39 378.521 272.559 378.521H276.25V377.977H272.333V377.263H276.987C277.156 377.263 277.214 377.32 277.214 377.49V378.934C277.214 379.103 277.156 379.161 276.987 379.161H273.314V379.712H277.369V380.426H272.559ZM277.227 373.207V376.962H276.311V373.207H277.227Z" fill="#19242F"/>
<path d="M283.248 373.372V374.36C283.319 375.409 284.023 376.305 285.024 376.623L284.439 377.313C283.759 376.988 283.181 376.488 282.761 375.862C282.569 376.42 281.862 377.08 281.107 377.499L280.387 376.884C281.577 376.298 282.267 375.409 282.274 374.377V373.372H283.248ZM282.034 380.337C281.865 380.337 281.814 380.28 281.814 380.111V377.993H282.741V379.559H286.844V380.337H282.034ZM286.672 373.217V378.551H285.762V373.217H286.672Z" fill="#19242F"/>
<path d="M294.258 377.627H291.494V379.031H290.554V377.627H287.57V376.856H294.258V377.627ZM288.372 376.041V373.277H289.282V374.049H292.533V373.277H293.446V376.041C293.446 376.21 293.389 376.268 293.219 376.268H288.589C288.419 376.268 288.369 376.21 288.369 376.038L288.372 376.041ZM288.622 380.337C288.453 380.337 288.402 380.279 288.402 380.11V378.138H289.329V379.559H293.666V380.337H288.622ZM292.533 375.513V374.793H289.282V375.513H292.533Z" fill="#19242F"/>
<path d="M294.637 376.461H301.328V377.232H294.637V376.461ZM295.405 373.396H300.546V374.168H298.51C298.73 374.905 299.914 375.27 301 375.409L300.448 376.076C299.501 375.92 298.422 375.565 297.959 374.939C297.454 375.548 296.45 375.93 295.486 376.076L294.928 375.419C296.233 375.199 297.245 374.834 297.434 374.171H295.408V373.4L295.405 373.396ZM297.975 377.726C299.718 377.726 300.668 378.318 300.668 379.171C300.668 380.023 299.734 380.615 297.975 380.615C296.216 380.615 295.283 380.023 295.283 379.171C295.283 378.318 296.23 377.726 297.975 377.726ZM297.975 378.423C296.954 378.423 296.315 378.707 296.315 379.161C296.315 379.638 296.954 379.898 297.975 379.898C298.997 379.898 299.636 379.638 299.636 379.161C299.636 378.684 298.997 378.423 297.975 378.423Z" fill="#19242F"/>
<path style="mix-blend-mode:multiply" d="M196.295 419.537L113.531 444.464C110.869 445.259 109.407 447.536 109.414 450.313L109.489 483.027C109.495 485.648 110.815 487.712 113.277 488.618L196.295 519.543V419.537Z" fill="url(#paint0_linear_911_715)"/>
</g>
</g>
<path d="M56.0887 602.42V606.043H57.9344V606.945H56.0887V611.225H55.0223V602.42H56.0887ZM47.161 609.064V603.473H52.5751V604.375H48.2274V608.162C50.6678 608.169 52.0555 608.094 53.6825 607.766L53.8192 608.654C52.1102 608.982 50.661 609.064 48.1044 609.064H47.161ZM48.4872 614.314V610.336H49.5399V613.412H56.6493V614.314H48.4872ZM60.4025 612.551L59.3361 616.27H58.3244L59.0763 612.551H60.4025ZM75.3737 603.773V604.648H65.5163V603.773H69.946V602.352H70.9987V603.773H75.3737ZM64.9421 611.074V610.186H76.071V611.074H73.1316V614.602H72.0652V611.074H68.9206V614.602H67.8405V611.074H64.9421ZM66.5144 607.355C66.5007 606.063 67.9909 605.346 70.4792 605.346C72.947 605.346 74.4372 606.063 74.4441 607.355C74.4372 608.641 72.947 609.365 70.4792 609.365C67.9909 609.365 66.5007 608.641 66.5144 607.355ZM67.6218 607.355C67.6081 608.101 68.6677 608.538 70.4792 608.531C72.2702 608.538 73.323 608.101 73.3366 607.355C73.323 606.604 72.2702 606.18 70.4792 606.166C68.6677 606.18 67.6081 606.604 67.6218 607.355ZM87.1523 602.42V614.574H86.1269V608.203H84.3359V613.945H83.3516V602.693H84.3359V607.314H86.1269V602.42H87.1523ZM77.2129 611.566V603.91H81.7656V604.799H78.2793V610.65C79.9541 610.644 81.1094 610.582 82.4629 610.309L82.5586 611.211C81.0957 611.512 79.8584 611.56 77.9922 611.566H77.2129ZM98.6028 602.98V603.869H96.7298V606.658H98.5618V607.52H94.6516V609.01H99.6555V609.885H88.5813V609.01H93.5852V607.52H89.6614V606.658H91.4934V603.869H89.6204V602.98H98.6028ZM90.0169 614.314V610.951H91.0969V613.412H98.4251V614.314H90.0169ZM92.5598 606.658H95.6634V603.869H92.5598V606.658ZM113.396 603.65V605.004C113.389 606.562 113.389 608.128 112.959 610.391L111.906 610.268C112.337 608.121 112.337 606.521 112.344 605.004V604.539H104.797V603.65H113.396ZM103.635 612.852V611.963H106.383V607.957H107.449V611.963H109.418V607.957H110.471V611.963H114.709V612.852H103.635ZM119.009 606.166C119.016 608.121 120.007 610.124 121.661 611.006L121.046 611.812C119.836 611.149 118.961 609.892 118.517 608.429C118.086 609.987 117.218 611.354 116.001 612.086L115.359 611.266C117.013 610.309 117.99 608.176 117.997 606.166V605.564H115.687V604.676H117.997V602.871H119.023V604.676H121.292V605.564H119.009V606.166ZM120.458 608.135V607.219H122.372V602.721H123.384V613.945H122.372V608.135H120.458ZM124.819 614.574V602.42H125.845V614.574H124.819ZM140.939 603.473V604.334H131.082V603.473H135.511V602.242H136.578V603.473H140.939ZM130.507 610.199V609.324H135.511V608.319C133.324 608.251 132.093 607.649 132.093 606.576C132.093 605.435 133.522 604.812 136.045 604.812C138.553 604.812 139.982 605.435 139.982 606.576C139.982 607.649 138.752 608.251 136.578 608.319V609.324H141.582V610.199H130.507ZM131.697 612.031V611.184H140.105V614.574H139.039V612.031H131.697ZM133.201 606.576C133.187 607.219 134.219 607.567 136.045 607.574C137.856 607.567 138.882 607.219 138.888 606.576C138.882 605.954 137.856 605.585 136.045 605.592C134.219 605.585 133.187 605.954 133.201 606.576ZM153.401 608.832V609.707H142.327V608.832H153.401ZM143.558 605.264C143.558 603.739 145.226 602.844 147.864 602.857C150.476 602.844 152.15 603.739 152.157 605.264C152.15 606.774 150.476 607.684 147.864 607.684C145.226 607.684 143.558 606.774 143.558 605.264ZM143.763 614.314V610.773H144.843V613.412H152.171V614.314H143.763ZM144.665 605.264C144.658 606.228 145.902 606.809 147.864 606.809C149.812 606.809 151.057 606.228 151.063 605.264C151.057 604.313 149.812 603.719 147.864 603.719C145.902 603.719 144.658 604.313 144.665 605.264ZM160.292 603.104C161.913 603.09 163.075 604.225 163.082 605.852C163.075 607.472 161.913 608.606 160.292 608.6C158.659 608.606 157.51 607.472 157.517 605.852C157.51 604.225 158.659 603.09 160.292 603.104ZM158.488 605.852C158.474 606.932 159.247 607.704 160.292 607.711C161.325 607.704 162.09 606.932 162.097 605.852C162.09 604.758 161.325 603.985 160.292 603.979C159.247 603.985 158.474 604.758 158.488 605.852ZM159.691 614.41V609.598H160.757V611.047H166.65V609.598H167.703V614.41H159.691ZM160.757 613.535H166.65V611.936H160.757V613.535ZM164.052 608.955V602.666H165.064V605.223H166.677V602.434H167.703V609.051H166.677V606.125H165.064V608.955H164.052ZM176.522 604.375C176.515 606.029 177.773 607.547 179.557 608.162L178.996 609.01C177.615 608.524 176.542 607.499 176.016 606.214C175.503 607.629 174.409 608.723 172.967 609.256L172.406 608.395C174.245 607.745 175.462 606.146 175.469 604.307V603.049H176.522V604.375ZM173.979 611.266V610.391H181.936V614.574H180.869V611.266H173.979ZM180.869 609.789V602.42H181.936V605.646H183.768V606.562H181.936V609.789H180.869ZM194.644 602.42V614.574H193.619V602.42H194.644ZM184.103 611.334C185.798 610.322 186.789 608.101 186.783 605.893V604.744H184.445V603.855H190.05V604.744H187.822V605.893C187.822 607.991 188.772 610.09 190.447 611.061L189.79 611.854C188.594 611.136 187.746 609.823 187.323 608.278C186.885 609.953 186.003 611.382 184.786 612.141L184.103 611.334ZM189.12 607.684V606.809H191.171V602.721H192.183V613.945H191.171V607.684H189.12ZM203.627 605.688C203.62 607.909 205.131 610.138 206.922 610.951L206.266 611.799C204.878 611.129 203.682 609.687 203.101 607.957C202.54 609.789 201.344 611.327 199.922 612.045L199.238 611.143C201.05 610.315 202.547 607.991 202.56 605.688V603.473H203.627V605.688ZM208.248 614.602V602.42H209.328V614.602H208.248ZM221.544 602.42V614.574H220.505V602.42H221.544ZM211.277 607.67C211.283 605.086 212.309 603.452 213.888 603.445C215.364 603.452 216.362 604.874 216.499 607.164H218.071V602.68H219.097V613.959H218.071V608.053H216.506C216.404 610.418 215.385 611.901 213.888 611.895C212.309 611.901 211.283 610.254 211.277 607.67ZM212.288 607.67C212.275 609.639 212.904 610.883 213.888 610.869C214.879 610.883 215.508 609.639 215.501 607.67C215.508 605.694 214.879 604.457 213.888 604.457C212.904 604.457 212.275 605.694 212.288 607.67ZM232.776 606.111V606.973H224.45V602.871H225.516V606.111H232.776ZM222.932 609.502V608.627H234.061V609.502H222.932ZM224.381 614.273V610.746H225.448V613.385H232.844V614.273H224.381ZM247.405 602.42V607.232H249.442V608.135H247.405V614.602H246.339V602.42H247.405ZM238.532 611.553V603.609H244.206V604.498H239.599V610.65C241.8 610.644 243.352 610.548 245.163 610.213L245.3 611.143C243.393 611.484 241.8 611.553 239.489 611.553H238.532ZM254.139 605.688C254.132 607.909 255.643 610.138 257.434 610.951L256.778 611.799C255.39 611.129 254.194 609.687 253.613 607.957C253.052 609.789 251.856 611.327 250.434 612.045L249.75 611.143C251.562 610.315 253.059 607.991 253.073 605.688V603.473H254.139V605.688ZM258.76 614.602V602.42H259.84V614.602H258.76ZM270.477 610.062C272.973 610.062 274.483 610.883 274.483 612.305C274.483 613.74 272.973 614.561 270.477 614.574C267.975 614.561 266.451 613.74 266.444 612.305C266.451 610.883 267.975 610.062 270.477 610.062ZM265.391 608.791V603.186H266.444V605.045H269.985V603.186H271.052V608.791H265.391ZM266.444 607.916H269.985V605.893H266.444V607.916ZM267.524 612.305C267.511 613.18 268.645 613.699 270.477 613.699C272.316 613.699 273.437 613.18 273.444 612.305C273.437 611.437 272.316 610.924 270.477 610.91C268.645 610.924 267.511 611.437 267.524 612.305ZM273.307 609.734V602.42H274.374V605.482H276.206V606.398H274.374V609.734H273.307ZM287.807 608.641V609.529H282.858V612.018H281.791V609.529H276.678V608.641H287.807ZM278.1 614.314V610.814H279.18V613.412H286.563V614.314H278.1ZM278.127 607.246V603.021H286.358V607.246H278.127ZM279.18 606.385H285.291V603.869H279.18V606.385ZM294.581 604.525V605.4H288.484V604.525H291.013V602.789H292.08V604.525H294.581ZM288.921 608.982C288.921 607.369 290.022 606.228 291.533 606.221C293.064 606.228 294.158 607.369 294.171 608.982C294.158 610.616 293.064 611.765 291.533 611.771C290.022 611.765 288.921 610.616 288.921 608.982ZM289.878 608.982C289.878 610.062 290.569 610.835 291.533 610.828C292.503 610.835 293.214 610.062 293.214 608.982C293.214 607.916 292.503 607.137 291.533 607.123C290.569 607.137 289.878 607.916 289.878 608.982ZM295.21 613.973V602.721H296.222V607.547H297.835V602.42H298.861V614.574H297.835V608.436H296.222V613.973H295.21ZM303.585 603.363C305.376 603.37 306.647 605.018 306.661 607.602C306.647 610.192 305.376 611.833 303.585 611.826C301.78 611.833 300.515 610.192 300.522 607.602C300.515 605.018 301.78 603.37 303.585 603.363ZM301.534 607.602C301.541 609.577 302.382 610.876 303.585 610.869C304.801 610.876 305.622 609.577 305.622 607.602C305.622 605.626 304.801 604.327 303.585 604.32C302.382 604.327 301.541 605.626 301.534 607.602ZM308.671 614.574V602.42H309.737V605.482H311.706V606.398H309.737V609.105H311.706V610.008H309.737V614.574H308.671ZM324.886 602.42V605.537H326.718V606.453H324.886V609.488H323.82V602.42H324.886ZM315.411 604.566V603.678H318.501V602.311H319.568V603.678H322.658V604.566H315.411ZM316.109 607.26C316.102 605.961 317.271 605.134 319.034 605.127C320.778 605.134 321.947 605.961 321.96 607.26C321.947 608.559 320.778 609.399 319.034 609.393C317.271 609.399 316.102 608.559 316.109 607.26ZM317.134 607.26C317.127 608.053 317.886 608.572 319.034 608.572C320.169 608.572 320.935 608.053 320.949 607.26C320.935 606.474 320.169 605.947 319.034 605.961C317.886 605.947 317.127 606.474 317.134 607.26ZM317.202 614.41V610.021H318.269V611.32H323.82V610.021H324.886V614.41H317.202ZM318.269 613.549H323.82V612.168H318.269V613.549ZM337.225 602.42V614.574H336.159V602.42H337.225ZM327.997 611.443V603.623H329.049V610.514C330.909 610.5 332.823 610.356 334.86 609.926L335.01 610.842C332.85 611.293 330.929 611.443 328.981 611.443H327.997ZM348.43 602.42V607.232H350.467V608.135H348.43V614.602H347.363V602.42H348.43ZM339.556 611.553V603.609H345.23V604.498H340.623V610.65C342.824 610.644 344.376 610.548 346.187 610.213L346.324 611.143C344.417 611.484 342.824 611.553 340.514 611.553H339.556ZM352.128 613.549C351.65 613.542 351.239 613.146 351.253 612.66C351.239 612.182 351.65 611.785 352.128 611.785C352.613 611.785 353.01 612.182 353.003 612.66C353.01 613.146 352.613 613.542 352.128 613.549Z" fill="#EB003B"/>
<defs>
<linearGradient id="paint0_linear_911_715" x1="109.417" y1="469.54" x2="196.295" y2="469.54" gradientUnits="userSpaceOnUse">
<stop stop-color="#4381EE"/>
<stop offset="1" stop-color="#B0C6EC" stop-opacity="0.7"/>
</linearGradient>
<clipPath id="clip0_911_715">
<rect width="348" height="316.467" fill="white" transform="translate(26 263)"/>
</clipPath>
</defs>
</svg>
