<svg width="400" height="128" viewBox="0 0 400 128" fill="none" xmlns="http://www.w3.org/2000/svg">
<path d="M160.938 56.7148V63.9609H164.384V66.4766H160.938V74.7891H157.903V56.7148H160.938ZM141.716 64.5898C141.702 60.9395 144.628 58.3691 148.388 58.3555C152.147 58.3691 155.032 60.9395 155.059 64.5898C155.032 68.1855 152.147 70.7969 148.388 70.7969C144.628 70.7969 141.702 68.1855 141.716 64.5898ZM144.696 64.5898C144.682 66.7227 146.323 68.1309 148.388 68.1172C150.479 68.1309 152.065 66.7227 152.079 64.5898C152.065 62.4023 150.479 61.0078 148.388 61.0078C146.323 61.0078 144.682 62.4023 144.696 64.5898ZM145.106 80.9414V72.9023H148.141V78.4805H161.923V80.9414H145.106ZM177.769 58.793V60.7617H182.746V56.7422H185.781V74.7344H182.746V68.5H177.769V70.6328H166.148V58.793H177.769ZM169.183 68.2539H174.761V61.1992H169.183V68.2539ZM169.484 80.9414V73.0664H172.574V78.4805H186.328V80.9414H169.484ZM177.769 66.0664H182.746V63.25H177.769V66.0664ZM209.311 56.7422V74.5977H206.248V56.7422H209.311ZM189.158 64.5352C189.158 60.9395 192.07 58.3691 195.83 58.3555C199.59 58.3691 202.488 60.9395 202.475 64.5352C202.488 68.1855 199.59 70.7422 195.83 70.7422C192.07 70.7422 189.158 68.1855 189.158 64.5352ZM192.139 64.5352C192.125 66.7227 193.711 68.0898 195.83 68.0898C197.895 68.0898 199.494 66.7227 199.494 64.5352C199.494 62.4023 197.895 61.0078 195.83 61.0078C193.711 61.0078 192.125 62.4023 192.139 64.5352ZM192.959 80.9414V72.793H196.021V78.4805H209.994V80.9414H192.959ZM234.891 68.2266V70.6875H212.36V68.2266H234.891ZM213.454 64.7266C218.034 64.2754 221.014 62.4434 221.479 60.3789H214.411V57.8906H232.868V60.3789H225.731C226.182 62.416 229.135 64.2754 233.825 64.7266L232.758 67.1328C228.26 66.668 224.938 64.877 223.598 62.375C222.258 64.877 218.977 66.668 214.493 67.1328L213.454 64.7266ZM214.985 76.8672C214.985 73.9961 218.225 72.3281 223.598 72.3281C228.93 72.3281 232.143 73.9961 232.157 76.8672C232.143 79.7793 228.93 81.4062 223.598 81.4062C218.225 81.4062 214.985 79.7793 214.985 76.8672ZM218.075 76.8672C218.061 78.3027 220.003 79.0137 223.598 79.0273C227.139 79.0137 229.094 78.3027 229.122 76.8672C229.094 75.4316 227.139 74.707 223.598 74.707C220.003 74.707 218.061 75.4316 218.075 76.8672ZM256.562 56.7148V81.4609H253.499V56.7148H256.562ZM236.792 67.2422C236.778 61.9102 239.499 58.5195 243.245 58.5195C246.95 58.5195 249.685 61.9102 249.698 67.2422C249.685 72.6152 246.95 75.9922 243.245 75.9922C239.499 75.9922 236.778 72.6152 236.792 67.2422ZM239.718 67.2422C239.718 71.043 241.153 73.2441 243.245 73.2578C245.323 73.2441 246.745 71.043 246.745 67.2422C246.745 63.4688 245.323 61.2539 243.245 61.2539C241.153 61.2539 239.718 63.4688 239.718 67.2422ZM133.553 96.7812C137.162 96.7812 139.733 98.791 139.76 101.758C139.733 104.219 137.887 106.064 135.139 106.57V108.566C137.203 108.443 139.268 108.266 141.182 107.992L141.428 110.207C136.287 111.123 130.545 111.232 126.362 111.219L126.034 108.785C127.811 108.785 129.889 108.771 132.076 108.703V106.584C129.246 106.105 127.36 104.26 127.373 101.758C127.36 98.791 129.93 96.7812 133.553 96.7812ZM129.424 119.914V112.941H132.459V117.453H146.541V119.914H129.424ZM130.217 101.758C130.19 103.385 131.584 104.396 133.553 104.41C135.535 104.396 136.875 103.385 136.889 101.758C136.875 100.09 135.535 99.1055 133.553 99.1055C131.584 99.1055 130.19 100.09 130.217 101.758ZM142.631 114.609V95.7422H145.666V103.727H149.002V106.242H145.666V114.609H142.631ZM172.313 115.047V117.562H149.727V115.047H155.716V110.973H152.407V102.906H166.626V99.8711H152.352V97.4102H169.634V105.34H155.442V108.512H170.208V110.973H166.599V115.047H172.313ZM158.669 115.047H163.618V110.973H158.669V115.047ZM188.078 105.969V108.43H183.074V112.736C185.234 112.654 187.394 112.504 189.445 112.285L189.691 114.527C184.249 115.334 178.521 115.389 173.859 115.402L173.476 112.887C175.513 112.9 177.742 112.887 180.039 112.846V108.43H175.199V97.9844H187.968V100.391H178.206V105.969H188.078ZM190.921 120.461V95.7148H193.956V120.461H190.921ZM206.057 111.738C206.029 113.83 206.973 115.99 209.105 117.385C211.252 115.895 212.209 113.611 212.236 111.738V110.59H215.217V111.738C215.203 114.322 216.721 116.797 220.029 117.836L218.498 120.105C216.092 119.258 214.52 117.672 213.672 115.676C212.852 117.631 211.389 119.381 209.119 120.297C206.822 119.436 205.346 117.768 204.553 115.785C203.664 117.686 202.105 119.258 199.822 120.105L198.346 117.836C201.545 116.742 203.09 114.186 203.104 111.738V110.59H206.057V111.738ZM197.334 102.906C197.334 99.4883 200.123 97.0273 203.869 97.0273C207.027 97.0273 209.57 98.8867 210.199 101.621H214.67V95.7148H217.705V109.66H214.67V104.082H210.227C209.652 106.898 207.082 108.799 203.869 108.785C200.123 108.799 197.334 106.352 197.334 102.906ZM200.26 102.906C200.246 104.916 201.777 106.256 203.869 106.27C205.906 106.256 207.424 104.916 207.424 102.906C207.424 100.869 205.906 99.5703 203.869 99.5703C201.777 99.5703 200.246 100.869 200.26 102.906ZM227.399 97.5195C230.735 97.5195 233.21 100.309 233.647 104.82H238.364V95.7148H241.372V120.461H238.364V107.281H233.674C233.346 112.053 230.831 114.992 227.399 114.992C223.68 114.992 221.042 111.615 221.055 106.242C221.042 100.91 223.68 97.5195 227.399 97.5195ZM223.981 106.242C223.967 110.043 225.362 112.244 227.399 112.258C229.45 112.244 230.831 110.043 230.844 106.242C230.831 102.469 229.45 100.254 227.399 100.254C225.362 100.254 223.967 102.469 223.981 106.242ZM266.87 114.938V117.426H244.284V114.938H249.507V108.689C247.538 107.555 246.349 105.777 246.362 103.59C246.349 99.6523 250.204 97.0547 255.523 97.0547C260.868 97.0547 264.751 99.6523 264.737 103.59C264.751 105.75 263.589 107.486 261.675 108.621V114.938H266.87ZM249.343 103.59C249.329 106.119 251.831 107.732 255.523 107.719C259.2 107.732 261.757 106.119 261.757 103.59C261.757 101.02 259.2 99.4473 255.523 99.4609C251.831 99.4473 249.329 101.02 249.343 103.59ZM252.515 114.938H258.585V109.783C257.642 109.988 256.616 110.098 255.523 110.098C254.456 110.098 253.444 109.988 252.515 109.797V114.938ZM270.931 118.219C269.756 118.219 268.785 117.262 268.799 116.086C268.785 114.938 269.756 113.994 270.931 113.98C272.066 113.994 273.037 114.938 273.037 116.086C273.037 117.262 272.066 118.219 270.931 118.219Z" fill="#0077FA"/>
</svg>
