<svg width="400" height="80" viewBox="0 0 400 80" fill="none" xmlns="http://www.w3.org/2000/svg">
<rect width="400" height="80" fill="white"/>
<rect x="20" width="360" height="50" rx="8" fill="black"/>
<path d="M131.128 27.5986H132.921L134.083 29.1011C134.872 28.3457 135.353 27.1255 135.361 25.4902C135.353 22.5684 133.817 20.9829 131.759 20.9912C129.684 20.9829 128.148 22.5684 128.14 25.4902C128.148 28.4121 129.684 29.9976 131.759 29.9893C132.141 29.9893 132.498 29.9395 132.838 29.8315L131.128 27.5986ZM126.33 25.4902C126.33 21.647 128.629 19.3145 131.759 19.3145C134.863 19.3145 137.171 21.647 137.171 25.4902C137.171 27.7065 136.407 29.4165 135.162 30.4707L136.789 32.5791H134.913L133.9 31.251C133.253 31.5249 132.531 31.666 131.759 31.666C128.629 31.666 126.33 29.3252 126.33 25.4902ZM139.229 31.5V19.4805H143.513C146.31 19.4805 147.68 21.0327 147.68 23.249C147.68 24.8677 146.949 26.0879 145.488 26.644L148.145 31.5H146.069L143.629 26.9678H143.513H141.056V31.5H139.229ZM141.056 25.3906H143.33C145.098 25.3823 145.837 24.6021 145.837 23.249C145.837 21.896 145.098 21.0493 143.33 21.041H141.056V25.3906ZM161.791 19.2314V20.3936H158.604C158.678 21.4644 160.098 22.3359 162.123 22.6182L161.592 23.7637C159.815 23.498 158.487 22.7676 157.848 21.7632C157.209 22.8257 155.864 23.606 154.055 23.8965L153.523 22.7676C155.565 22.4688 156.985 21.5225 157.06 20.3936H153.872V19.2314H157.06V17.9863H158.604V19.2314H161.791ZM153.158 24.8096C154.32 24.8096 155.665 24.8013 157.06 24.7598V23.2656H158.604V24.7017C159.907 24.6353 161.21 24.5356 162.422 24.3779L162.538 25.4736C159.417 25.9883 155.947 26.0215 153.324 26.0215L153.158 24.8096ZM155.051 28.1797V27.0176H164.879V30.3711H156.661V31.5664H165.427V32.7617H155.084V29.2754H163.318V28.1797H155.051ZM163.302 26.4033V18.0361H164.879V21.4893H167.004V22.7676H164.879V26.4033H163.302ZM171.984 18.8994C173.221 18.8911 174.275 19.356 174.973 20.1279H178.691V18.0361H180.269V26.8184H178.691V24.8096H174.964C174.267 25.5732 173.213 26.0298 171.984 26.0215C169.743 26.0298 168.075 24.5439 168.083 22.4688C168.075 20.3687 169.743 18.8911 171.984 18.8994ZM169.594 22.4688C169.585 23.772 170.59 24.6934 171.984 24.6768C173.337 24.6934 174.342 23.772 174.342 22.4688C174.342 21.1323 173.337 20.2441 171.984 20.2607C170.59 20.2441 169.585 21.1323 169.594 22.4688ZM170.258 30.0225C170.25 28.2046 172.175 27.1421 175.288 27.1504C178.384 27.1421 180.31 28.2046 180.318 30.0225C180.31 31.832 178.384 32.8862 175.288 32.8779C172.175 32.8862 170.25 31.832 170.258 30.0225ZM171.802 30.0225C171.793 31.0435 173.105 31.6411 175.288 31.6328C177.471 31.6411 178.774 31.0435 178.774 30.0225C178.774 28.96 177.471 28.3706 175.288 28.3623C173.105 28.3706 171.793 28.96 171.802 30.0225ZM175.695 21.3896C175.794 21.7217 175.853 22.0869 175.853 22.4688C175.853 22.834 175.794 23.1909 175.695 23.5146H178.691V21.3896H175.695ZM189.333 18.9326C192.454 18.9326 194.828 20.5845 194.828 23.083C194.828 25.5981 192.454 27.2417 189.333 27.2334C186.22 27.2417 183.846 25.5981 183.854 23.083C183.846 20.5845 186.22 18.9326 189.333 18.9326ZM182.56 30.9854V29.6738H196.173V30.9854H182.56ZM185.365 23.083C185.357 24.8179 187.05 25.9385 189.333 25.9385C191.607 25.9385 193.292 24.8179 193.301 23.083C193.292 21.3564 191.607 20.2026 189.333 20.2109C187.05 20.2026 185.357 21.3564 185.365 23.083ZM210.865 29.8066V31.1348H197.252V29.8066H203.245V27.2002H198.912V22.4688H207.645V20.377H198.879V19.082H209.205V23.7305H200.473V25.9053H209.554V27.2002H204.806V29.8066H210.865ZM218.22 18.667V20.6924H222.121V18.667H223.682V25.1582H216.676V18.667H218.22ZM218.17 27.582V26.3369H227.782V30.0889H219.747V31.5H228.297V32.7617H218.203V28.9268H226.222V27.582H218.17ZM218.22 23.8965H222.121V21.9043H218.22V23.8965ZM226.205 25.6895V18.0361H227.782V21.1572H229.94V22.4355H227.782V25.6895H226.205ZM234.074 26.5195V28.3789H241.097V26.5195H242.641V32.7285H232.514V26.5195H234.074ZM230.787 25.3076V24.0293H240.74C241.097 22.3276 241.113 21.0659 241.113 19.9785H232.497V18.6836H242.674V19.8125C242.682 20.9414 242.682 22.228 242.292 24.0293H244.4V25.3076H230.787ZM234.074 31.4336H241.097V29.6074H234.074V31.4336ZM257.167 18.0361V21.5557H259.325V22.8672H257.167V26.7188H255.59V18.0361H257.167ZM246.061 25.8555V18.8828H247.604V21.041H251.506V18.8828H253.066V25.8555H246.061ZM247.604 24.6104H251.506V22.2861H247.604V24.6104ZM247.688 32.6953V27.499H257.283V28.7607H249.265V31.4502H257.549V32.6953H247.688ZM272.54 18.0361V32.9111H270.946V18.0361H272.54ZM260.321 28.9268C264.272 27.0425 266.207 24.3613 266.514 20.8916H261.035V19.6299H268.107C268.107 23.9878 266.256 27.7563 261.151 30.2051L260.321 28.9268Z" fill="white"/>
</svg>
