<svg width="400" height="727" viewBox="0 0 400 727" fill="none" xmlns="http://www.w3.org/2000/svg">
<rect width="400" height="727" fill="white"/>
<g clip-path="url(#clip0_911_2916)">
<circle cx="200" cy="248" r="80" fill="#FAFAFA"/>
<g clip-path="url(#clip1_911_2916)">
<path d="M129.947 313.362C129.947 291.395 147.704 273.592 169.614 273.592H219.393C241.303 273.592 259.06 291.395 259.06 313.362" fill="#FB7F77"/>
<path d="M175.082 273.592C175.082 280.067 194.229 296.086 194.229 296.086C194.229 296.086 213.376 280.067 213.376 273.592H175.082Z" fill="#FFADA1"/>
<path d="M187.837 257.963L168.377 262.697C168.377 262.697 141.712 219.493 174.945 205.888C174.945 205.888 183.184 189.759 204.399 195.461C216.977 198.843 232.971 216.561 223.563 230.982C224.673 241.052 219.13 255.389 221.69 262.705L187.837 257.972V257.963Z" fill="#353535"/>
<path d="M168.378 263.335C168.157 263.335 167.954 263.224 167.835 263.029C167.801 262.969 164.131 256.987 161.233 248.905C158.537 241.41 155.969 230.498 159.012 221.134C161.326 213.987 166.538 208.693 174.506 205.378C175.608 203.458 184.465 189.436 204.57 194.841C213.24 197.169 222.284 205.497 225.598 214.199C227.904 220.241 227.429 226.096 224.225 231.136C224.691 235.818 223.801 241.316 222.937 246.628C221.928 252.831 220.97 258.695 222.301 262.485C222.377 262.697 222.335 262.927 222.191 263.097C222.047 263.267 221.826 263.36 221.615 263.326L187.881 258.61L168.539 263.318C168.488 263.326 168.437 263.335 168.386 263.335H168.378ZM195.628 194.858C181.515 194.858 175.794 205.633 175.514 206.169C175.447 206.305 175.328 206.407 175.192 206.466C167.479 209.627 162.445 214.692 160.224 221.516C155.011 237.586 166.852 258.805 168.691 261.958L187.694 257.335C187.77 257.318 187.855 257.31 187.932 257.327L220.809 261.924C219.818 257.879 220.725 252.296 221.682 246.415C222.547 241.095 223.445 235.597 222.937 231.042C222.92 230.898 222.954 230.745 223.039 230.626C226.124 225.901 226.598 220.377 224.412 214.65C221.225 206.288 212.554 198.3 204.239 196.065C201.078 195.215 198.213 194.858 195.636 194.858H195.628Z" fill="#353535"/>
<path d="M182.938 278.749V253.068H206.068V278.749" fill="#FFADA1"/>
<path d="M208.025 227.27H217.044C222.019 227.27 226.062 231.315 226.062 236.311C226.062 241.3 222.028 245.353 217.044 245.353H208.025V227.278V227.27Z" fill="#F5ABA2"/>
<path d="M213.941 240.96H217.044C219.603 240.96 221.688 238.87 221.688 236.303C221.688 233.737 219.603 231.646 217.044 231.646H213.941V240.96Z" fill="#DE8988"/>
<path d="M216.221 233.668V230.141C215.187 220.462 195.159 209.023 195.159 209.023C184.496 209.023 175.69 216.969 174.291 227.269H171.079C166.104 227.269 162.061 231.314 162.061 236.311C162.061 241.307 166.095 245.352 171.079 245.352H174.588C176.664 254.819 185.081 261.906 195.15 261.906C206.788 261.906 216.213 252.448 216.213 240.789V233.668H216.221Z" fill="#FFBCAF"/>
<path d="M174.182 240.958H171.08C168.521 240.958 166.436 238.868 166.436 236.301C166.436 233.735 168.521 231.645 171.08 231.645H174.182V240.958Z" fill="#DE8988"/>
<path d="M198.126 240.5C197.973 240.5 197.829 240.432 197.727 240.305C197.549 240.084 197.592 239.761 197.812 239.591C198.931 238.699 199.278 237.186 198.66 235.903L196.524 231.501C196.397 231.246 196.507 230.94 196.761 230.821C197.015 230.702 197.32 230.804 197.439 231.059L199.575 235.461C200.406 237.177 199.94 239.2 198.448 240.39C198.355 240.466 198.244 240.5 198.134 240.5H198.126Z" fill="#DE8988"/>
<path d="M184.504 240.729C186.348 240.729 187.843 240.006 187.843 239.115C187.843 238.223 186.348 237.5 184.504 237.5C182.659 237.5 181.164 238.223 181.164 239.115C181.164 240.006 182.659 240.729 184.504 240.729Z" fill="#FF8A84"/>
<path d="M212.738 239.115C212.738 240.007 211.246 240.729 209.398 240.729C207.55 240.729 206.059 240.007 206.059 239.115C206.059 238.222 207.55 237.5 209.398 237.5C211.246 237.5 212.738 238.222 212.738 239.115Z" fill="#FF8A84"/>
<path d="M191.523 232.664C191.523 234.083 190.718 235.23 189.717 235.23C188.717 235.23 187.912 234.083 187.912 232.664C187.912 231.245 188.717 230.098 189.717 230.098C190.718 230.098 191.523 231.245 191.523 232.664Z" fill="#353535"/>
<path d="M206.126 232.664C206.126 234.083 205.321 235.23 204.321 235.23C203.321 235.23 202.516 234.083 202.516 232.664C202.516 231.245 203.321 230.098 204.321 230.098C205.321 230.098 206.126 231.245 206.126 232.664Z" fill="#353535"/>
<path d="M185.186 209.984C185.186 209.984 185.847 222.4 180.134 226.708C174.421 231.017 167.717 227.924 167.717 227.924L170.31 219.052L185.194 209.984H185.186Z" fill="#353535"/>
<path d="M167.717 222.91C167.717 222.91 169.514 239.252 177.735 239.507C177.735 239.507 174.828 228.23 177.735 222.91H167.717Z" fill="#353535"/>
<path d="M153.493 313.998C153.145 313.998 152.857 313.709 152.857 313.361V303.954C152.857 303.605 153.145 303.316 153.493 303.316C153.84 303.316 154.128 303.605 154.128 303.954V313.361C154.128 313.709 153.84 313.998 153.493 313.998Z" fill="#C74A47"/>
<path d="M196.882 247.018C193.576 247.018 191.415 245.862 191.28 245.786C191.034 245.65 190.94 245.344 191.076 245.098C191.212 244.851 191.517 244.758 191.763 244.894C191.805 244.919 196.407 247.35 202.324 244.868C202.586 244.758 202.883 244.885 202.985 245.14C203.095 245.403 202.968 245.701 202.713 245.803C200.552 246.704 198.569 247.01 196.882 247.01V247.018Z" fill="#DE8988"/>
<path d="M191.837 225.646C191.719 225.646 191.609 225.603 191.507 225.527C189.93 224.201 188.549 225.374 188.396 225.51C188.193 225.697 187.871 225.68 187.676 225.476C187.489 225.272 187.498 224.949 187.71 224.762C188.447 224.082 190.329 223.198 192.16 224.745C192.371 224.923 192.405 225.246 192.219 225.467C192.117 225.586 191.973 225.646 191.829 225.646H191.837Z" fill="#DE8988"/>
<path d="M205.613 225.646C205.494 225.646 205.367 225.603 205.274 225.518C204.613 224.923 203.985 224.634 203.434 224.668C202.833 224.702 202.485 225.102 202.477 225.119C202.299 225.331 201.977 225.357 201.765 225.178C201.553 225 201.519 224.685 201.697 224.464C201.722 224.43 202.316 223.725 203.35 223.648C204.206 223.58 205.087 223.954 205.969 224.753C206.181 224.94 206.197 225.263 206.003 225.476C205.901 225.586 205.765 225.646 205.621 225.646H205.613Z" fill="#DE8988"/>
<path d="M268.045 244.078V241.911L268.028 231.866L246.652 235.206L246.592 217.853C246.592 217.853 246.609 216.629 246.618 215.737C246.626 214.539 246.177 213.349 245.253 212.584C244.567 212.015 243.694 211.675 242.77 211.743C240.837 211.87 239.388 213.596 239.396 215.542L239.473 218.847L239.498 239.09H239.269C237.201 239.09 235.531 240.772 235.531 242.837V248.395C235.531 250.409 236.091 252.389 237.176 254.08C238.244 255.737 239.786 257.777 241.939 259.519V267.439H264.307V257.879C266.621 255.176 268.028 251.675 268.028 247.834H268.002C268.036 247.426 268.053 247.01 268.053 246.593V244.086L268.045 244.078Z" fill="#FFBCAF"/>
<path d="M257.44 245.59C255.686 245.59 254.219 244.358 253.88 242.701C253.541 244.434 251.965 245.726 250.117 245.616C248.185 245.505 246.718 243.797 246.71 241.851L246.625 231.118C246.625 230.039 247.032 228.959 247.871 228.28C248.49 227.778 249.269 227.472 250.126 227.472C251.88 227.472 253.346 228.705 253.685 230.362C254.016 228.705 255.474 227.447 257.22 227.438C258.974 227.438 260.441 228.671 260.78 230.328C261.119 228.594 262.695 227.302 264.543 227.413C266.475 227.523 267.942 229.231 267.95 231.177L268.035 241.91C268.035 242.99 267.628 244.069 266.789 244.749C266.17 245.25 265.391 245.548 264.534 245.556C262.78 245.556 261.314 244.324 260.975 242.667C260.644 244.324 259.186 245.582 257.44 245.59Z" fill="#FFBCAF"/>
<path d="M253.846 243.66C253.567 243.66 253.338 243.431 253.338 243.15V235.018C253.338 234.737 253.567 234.508 253.846 234.508C254.126 234.508 254.354 234.737 254.354 235.018V243.15C254.354 243.431 254.126 243.66 253.846 243.66Z" fill="#DE8988"/>
<path d="M260.94 243.66C260.66 243.66 260.432 243.431 260.432 243.15V235.018C260.432 234.737 260.66 234.508 260.94 234.508C261.219 234.508 261.448 234.737 261.448 235.018V243.15C261.448 243.431 261.219 243.66 260.94 243.66Z" fill="#DE8988"/>
<path d="M239.25 239.082H243.759C246.319 239.082 248.404 241.164 248.404 243.739C248.404 246.305 246.327 248.396 243.759 248.396" fill="#FFBBAE"/>
<path d="M243.76 248.896C243.48 248.896 243.251 248.667 243.251 248.386C243.251 248.106 243.48 247.876 243.76 247.876C246.04 247.876 247.896 246.015 247.896 243.729C247.896 241.443 246.04 239.582 243.76 239.582H239.251C238.971 239.582 238.742 239.353 238.742 239.072C238.742 238.792 238.971 238.562 239.251 238.562H243.76C246.599 238.562 248.913 240.882 248.913 243.729C248.913 246.576 246.599 248.896 243.76 248.896Z" fill="#DE8988"/>
<path d="M237.965 313.361V267.43H270.054V313.361" fill="#FB7F77"/>
<path d="M263.161 201.435L260.406 198.605L249.879 209.899L251.667 211.735L263.161 201.435Z" fill="#FFFF68"/>
<path d="M251.966 192.767L248.186 191.68L244.592 206.713L247.05 207.418L251.966 192.767Z" fill="#FFFF68"/>
<path d="M237.48 191L233.641 191.892L237.785 206.772L240.277 206.203L237.48 191Z" fill="#FFFF68"/>
</g>
</g>
<path d="M94.0543 342.082V359.758H91.8668V342.082H94.0543ZM79.9332 349.602C79.9234 345.793 81.8668 343.371 84.5426 343.371C87.1891 343.371 89.1422 345.793 89.152 349.602C89.1422 353.439 87.1891 355.852 84.5426 355.852C81.8668 355.852 79.9234 353.439 79.9332 349.602ZM82.023 349.602C82.023 352.316 83.0484 353.889 84.5426 353.898C86.027 353.889 87.0426 352.316 87.0426 349.602C87.0426 346.906 86.027 345.324 84.5426 345.324C83.0484 345.324 82.023 346.906 82.023 349.602ZM111.467 343.977V345.734H97.0527V343.977H103.205V342.043H105.354V343.977H111.467ZM96.252 355.266V353.488H112.385V355.266H105.354V359.758H103.205V355.266H96.252ZM98.3027 349.523C98.3027 347.59 100.549 346.535 104.279 346.535C108.01 346.535 110.256 347.59 110.256 349.523C110.256 351.447 108.01 352.512 104.279 352.512C100.549 352.512 98.3027 351.447 98.3027 349.523ZM100.568 349.523C100.559 350.432 101.838 350.9 104.279 350.891C106.711 350.9 108 350.432 108.01 349.523C108 348.625 106.711 348.156 104.279 348.156C101.838 348.156 100.559 348.625 100.568 349.523ZM131.409 342.082V347.043H133.889V348.84H131.409V354.855H129.241V342.082H131.409ZM118.225 351.867V343.547H126.136V345.285H120.374V350.09C123.694 350.09 125.54 349.982 127.639 349.543L127.874 351.301C125.559 351.76 123.509 351.867 119.651 351.867H118.225ZM120.1 359.387V353.508H122.268V357.629H132.112V359.387H120.1ZM149.603 342.082V359.738H147.532V342.082H149.603ZM134.193 354.465C137.845 352.307 139.525 349.543 139.857 345.988H135.13V344.23H142.005C142.005 345.119 141.946 345.988 141.82 346.828H143.88V342.512H145.95V358.898H143.88V353H141.126V351.223H143.88V348.605H141.448C140.609 351.535 138.773 354.055 135.462 356.008L134.193 354.465ZM165.55 347.082V348.801H153.324V342.727H155.472V347.082H165.55ZM151.234 352.57V350.852H167.367V352.57H151.234ZM153.168 359.328V354.133H155.336V357.57H165.668V359.328H153.168ZM187.153 342.082V351.086H185.004V342.082H187.153ZM172.465 349.367C175.327 348.459 176.83 346.193 176.821 343.879V342.512H179.067V343.879C179.057 346.125 180.551 348.225 183.344 349.074L182.289 350.754C180.239 350.119 178.774 348.811 177.973 347.131C177.172 348.957 175.668 350.393 173.559 351.066L172.465 349.367ZM175.473 353.586V351.906H187.192V356.496H177.641V357.863H187.719V359.582H175.512V354.875H185.024V353.586H175.473ZM204.565 342.082V359.738H202.495V342.082H204.565ZM189.057 354.719C191.606 353.166 192.729 349.982 192.729 346.906V345.734H189.663V343.977H197.671V345.734H194.819V346.906C194.819 349.885 195.884 352.873 198.413 354.328L197.124 355.93C195.493 354.963 194.409 353.283 193.794 351.271C193.169 353.449 192.046 355.305 190.386 356.34L189.057 354.719ZM196.382 349.992V348.234H198.921V342.414H200.971V358.879H198.921V349.992H196.382ZM217.125 346.32C217.115 349.602 218.687 352.824 221.5 354.055L220.191 355.793C218.199 354.816 216.793 352.941 216.041 350.627C215.269 353.068 213.824 355.1 211.793 356.125L210.425 354.367C213.306 353.02 214.908 349.621 214.918 346.32V343.508H217.125V346.32ZM219.546 349.543V347.785H223.257V342.082H225.406V359.758H223.257V349.543H219.546ZM242.174 342.082V359.758H239.986V342.082H242.174ZM228.424 355.598V343.527H230.592V347.941H234.869V343.527H237.018V355.598H228.424ZM230.592 353.82H234.869V349.641H230.592V353.82ZM253.493 344.504C253.493 347.229 256.159 349.973 259.86 350.617L258.883 352.434C255.924 351.818 253.502 350.021 252.35 347.648C251.188 350.002 248.766 351.809 245.817 352.434L244.86 350.617C248.502 349.953 251.178 347.219 251.188 344.504V343.195H253.493V344.504ZM244.371 357.492V355.695H260.504V357.492H244.371ZM280.29 342.082V359.758H278.103V342.082H280.29ZM266.169 349.602C266.159 345.793 268.103 343.371 270.779 343.371C273.425 343.371 275.378 345.793 275.388 349.602C275.378 353.439 273.425 355.852 270.779 355.852C268.103 355.852 266.159 353.439 266.169 349.602ZM268.259 349.602C268.259 352.316 269.284 353.889 270.779 353.898C272.263 353.889 273.279 352.316 273.279 349.602C273.279 346.906 272.263 345.324 270.779 345.324C269.284 345.324 268.259 346.906 268.259 349.602ZM298.582 350.578V352.316H282.488V350.578H286.238V348.342C284.9 347.775 284.148 346.887 284.148 345.734C284.148 343.615 286.619 342.375 290.515 342.375C294.402 342.375 296.873 343.615 296.882 345.734C296.873 346.896 296.111 347.785 294.773 348.342V350.578H298.582ZM284.363 356.535C284.363 354.504 286.658 353.371 290.515 353.391C294.314 353.371 296.619 354.504 296.629 356.535C296.619 358.586 294.314 359.699 290.515 359.699C286.658 359.699 284.363 358.586 284.363 356.535ZM286.414 345.734C286.394 346.809 287.908 347.385 290.515 347.375C293.113 347.385 294.636 346.809 294.636 345.734C294.636 344.65 293.113 344.045 290.515 344.055C287.908 344.045 286.394 344.65 286.414 345.734ZM286.57 356.535C286.56 357.531 287.947 358.068 290.515 358.059C293.045 358.068 294.441 357.531 294.461 356.535C294.441 355.549 293.045 355.041 290.515 355.031C287.947 355.041 286.56 355.549 286.57 356.535ZM288.425 350.578H292.605V348.898C291.97 348.986 291.267 349.035 290.515 349.035C289.763 349.035 289.06 348.986 288.425 348.898V350.578ZM306.053 346.32C306.033 349.562 307.742 352.805 310.604 354.035L309.314 355.773C307.283 354.836 305.799 352.971 304.979 350.666C304.168 353.146 302.645 355.178 300.506 356.184L299.178 354.367C302.117 353.098 303.836 349.729 303.846 346.32V343.508H306.053V346.32ZM311.873 359.758V342.082H314.061V359.758H311.873ZM319.696 356.613L318.055 362.082H316.2L317.215 356.613H319.696ZM70.1816 379.926V381.684H63.1699V387.719H61.0215V381.684H54.0879V379.926H70.1816ZM54.9277 377.035C58.3945 376.596 60.7188 374.73 60.875 372.797H55.5723V371.078H68.6973V372.797H63.3945C63.541 374.73 65.8457 376.596 69.3418 377.035L68.5605 378.734C65.5527 378.305 63.209 376.928 62.1348 375.023C61.0508 376.928 58.7266 378.305 55.748 378.734L54.9277 377.035ZM80.3871 371.547V379.945H71.8715V371.547H80.3871ZM74.0004 387.27V381.508H76.1879V385.512H86.1684V387.27H74.0004ZM74.0199 378.207H78.2387V373.285H74.0199V378.207ZM83.4926 382.699V370.102H85.6801V382.699H83.4926ZM102.956 370.082V383.305H100.886V370.082H102.956ZM87.741 379.281C90.0945 378.139 91.198 375.795 91.198 373.695V371.293H93.3074V373.695C93.3074 375.756 94.323 377.807 96.5691 378.812L95.3582 380.492C93.8738 379.799 92.8582 378.607 92.2723 377.172C91.6473 378.793 90.5438 380.17 88.9324 380.922L87.741 379.281ZM91.1395 387.387V381.723H93.3074V385.629H103.444V387.387H91.1395ZM94.9871 376.059V374.281H97.3504V370.395H99.4207V382.777H97.3504V376.059H94.9871ZM119.548 370.082V387.758H117.4V378.227H114.079V376.469H117.4V370.082H119.548ZM105.544 383.695V371.605H113.806V373.383H107.732V376.547H113.103V378.266H107.732V381.898C110.417 381.889 112.429 381.791 114.704 381.43L114.919 383.188C112.351 383.578 110.085 383.676 106.931 383.695H105.544ZM134.158 380.98C137.82 380.98 140.066 382.221 140.076 384.34C140.066 386.488 137.82 387.729 134.158 387.738C130.467 387.729 128.182 386.488 128.182 384.34C128.182 382.221 130.467 380.98 134.158 380.98ZM126.58 379.438V371.195H128.729V373.578H132.85V371.195H134.998V379.438H126.58ZM128.729 377.719H132.85V375.277H128.729V377.719ZM130.35 384.34C130.35 385.434 131.736 386.029 134.158 386.02C136.57 386.029 137.928 385.434 137.928 384.34C137.928 383.246 136.57 382.689 134.158 382.68C131.736 382.689 130.35 383.246 130.35 384.34ZM137.732 380.551V370.082H139.9V374.301H142.361V376.117H139.9V380.551H137.732ZM158.973 378.91V380.648H152.157V383.891H150.008V380.648H142.84V378.91H158.973ZM144.793 387.387V382.27H146.961V385.629H157.196V387.387H144.793ZM144.891 377.27V370.883H156.903V377.27H144.891ZM147 375.57H154.754V372.582H147V375.57ZM179.306 371.977V373.734H164.892V371.977H171.044V370.043H173.193V371.977H179.306ZM164.091 383.266V381.488H180.224V383.266H173.193V387.758H171.044V383.266H164.091ZM166.142 377.523C166.142 375.59 168.388 374.535 172.118 374.535C175.849 374.535 178.095 375.59 178.095 377.523C178.095 379.447 175.849 380.512 172.118 380.512C168.388 380.512 166.142 379.447 166.142 377.523ZM168.407 377.523C168.398 378.432 169.677 378.9 172.118 378.891C174.55 378.9 175.839 378.432 175.849 377.523C175.839 376.625 174.55 376.156 172.118 376.156C169.677 376.156 168.398 376.625 168.407 377.523ZM192.021 373.676C192.021 375.873 193.525 378.021 196.338 378.891L195.225 380.59C193.223 379.945 191.768 378.617 190.957 376.938C190.166 378.764 188.662 380.219 186.572 380.941L185.459 379.223C188.301 378.285 189.814 376 189.834 373.676V373.168H186.025V371.43H195.732V373.168H192.021V373.676ZM188.35 387.387V381.742H190.537V385.629H200.518V387.387H188.35ZM197.842 382.914V370.102H200.029V382.914H197.842ZM217.305 370.082V381.176H215.235V376.371H213.516V380.59H211.485V370.434H213.516V374.613H215.235V370.082H217.305ZM202.11 373.695V371.996H205.45V370.238H207.598V371.996H210.899V373.695H202.11ZM202.735 377.465C202.715 375.629 204.317 374.408 206.524 374.418C208.77 374.408 210.352 375.629 210.371 377.465C210.352 379.301 208.77 380.512 206.524 380.512C204.317 380.512 202.715 379.301 202.735 377.465ZM204.668 377.465C204.668 378.373 205.42 378.949 206.524 378.949C207.637 378.949 208.399 378.373 208.399 377.465C208.399 376.557 207.637 375.98 206.524 375.98C205.42 375.98 204.668 376.557 204.668 377.465ZM205.293 384.574C205.284 382.543 207.569 381.4 211.348 381.391C215.118 381.4 217.393 382.543 217.403 384.574C217.393 386.566 215.118 387.719 211.348 387.719C207.569 387.719 205.284 386.566 205.293 384.574ZM207.461 384.574C207.452 385.541 208.829 386.068 211.348 386.059C213.858 386.068 215.205 385.541 215.215 384.574C215.205 383.549 213.858 383.031 211.348 383.051C208.829 383.031 207.452 383.549 207.461 384.574ZM229.6 377.406V379.164H226.026V382.24C227.569 382.182 229.112 382.074 230.577 381.918L230.753 383.52C226.866 384.096 222.774 384.135 219.444 384.145L219.171 382.348C220.626 382.357 222.218 382.348 223.858 382.318V379.164H220.401V371.703H229.522V373.422H222.55V377.406H229.6ZM231.632 387.758V370.082H233.8V387.758H231.632ZM250.275 375.082V376.801H238.048V370.727H240.196V375.082H250.275ZM235.958 380.57V378.852H252.091V380.57H235.958ZM237.892 387.328V382.133H240.06V385.57H250.392V387.328H237.892ZM263.635 372.68C263.625 374.584 265.061 376.537 267.756 377.328L266.74 379.047C264.748 378.451 263.322 377.221 262.551 375.678C261.75 377.387 260.256 378.793 258.205 379.438L257.131 377.738C259.885 376.84 261.438 374.691 261.447 372.66V372.602H257.736V370.844H267.287V372.602H263.635V372.68ZM260.354 381.586V379.867H271.994V384.457H262.541V385.844H272.561V387.543H260.373V382.836H269.826V381.586H260.354ZM266.799 375.551V373.812H269.826V370.082H271.994V379.125H269.826V375.551H266.799ZM280.305 375.688C280.305 378.305 281.78 381.156 284.504 382.445L283.293 384.086C281.379 383.207 280.002 381.449 279.26 379.389C278.489 381.615 277.034 383.49 275.012 384.398L273.821 382.719C276.604 381.469 278.157 378.461 278.157 375.688V374.77H274.387V373.031H278.157V370.453H280.325V373.031H284.036V374.77H280.305V375.688ZM285.754 387.738V370.082H287.922V377.074H290.637V378.891H287.922V387.738H285.754ZM305.686 370.082V379.555H303.499V370.082H305.686ZM291.292 375.004C291.292 372.553 293.323 370.854 296.057 370.863C298.782 370.854 300.813 372.553 300.804 375.004C300.813 377.416 298.782 379.115 296.057 379.105C293.323 379.115 291.292 377.416 291.292 375.004ZM293.421 375.004C293.411 376.42 294.514 377.318 296.057 377.328C297.571 377.318 298.675 376.42 298.675 375.004C298.675 373.588 297.571 372.67 296.057 372.68C294.514 372.67 293.411 373.588 293.421 375.004ZM294.007 387.523V380.375H296.155V382.191H303.518V380.375H305.686V387.523H294.007ZM296.155 385.766H303.518V383.891H296.155V385.766ZM322.591 370.082V387.738H320.443V370.082H322.591ZM308.88 383.305V371.801H311.029V381.449C313.499 381.41 316.136 381.195 318.861 380.648L319.134 382.465C316.029 383.109 313.148 383.314 310.404 383.305H308.88ZM338.578 370.082V376.781H341.293V378.559H338.578V387.758H336.41V370.082H338.578ZM325.472 383.441V371.762H333.734V373.52H327.64V381.625C330.384 381.615 332.562 381.479 334.984 381.059L335.238 382.895C332.494 383.363 330.121 383.441 326.937 383.441H325.472ZM343.783 386.156C342.943 386.156 342.25 385.473 342.26 384.633C342.25 383.812 342.943 383.139 343.783 383.129C344.594 383.139 345.287 383.812 345.287 384.633C345.287 385.473 344.594 386.156 343.783 386.156Z" fill="#111827"/>
<path d="M78.4262 414.312L77.4262 413.297L79.895 410.789L77.4262 408.281L78.4262 407.266L80.895 409.773L83.3637 407.266L84.3637 408.281L81.895 410.789L84.3637 413.297L83.3637 414.312L80.895 411.805L78.4262 414.312ZM76.6762 410.734C76.6762 410.258 76.9731 409.867 77.5669 409.875C78.1606 409.867 78.4575 410.258 78.4575 410.734C78.4575 411.219 78.1684 411.57 77.5669 411.562C76.9731 411.57 76.6762 411.219 76.6762 410.734ZM79.9419 414.094C79.9497 413.625 80.2466 413.25 80.8325 413.25C81.4106 413.25 81.7309 413.625 81.7231 414.094C81.7309 414.562 81.4106 414.938 80.8325 414.938C80.2466 414.938 79.9497 414.562 79.9419 414.094ZM79.9419 407.484C79.9497 407.008 80.2466 406.633 80.8325 406.625C81.4106 406.633 81.7309 407.008 81.7231 407.484C81.7309 407.945 81.4106 408.32 80.8325 408.328C80.2466 408.32 79.9497 407.945 79.9419 407.484ZM83.1919 410.734C83.1997 410.258 83.52 409.867 84.0981 409.875C84.6762 409.867 84.9966 410.258 85.0044 410.734C84.9966 411.219 84.6762 411.57 84.0981 411.562C83.52 411.57 83.1997 411.219 83.1919 410.734ZM102.286 411.766V412.797H98.9425V417.266H97.7237V412.797H94.13V417.266H92.8956V412.797H89.5675V411.766H102.286ZM91.2706 410.328V404.031H100.692V405.031H92.4894V406.625H100.364V407.609H92.4894V409.312H100.849V410.328H91.2706ZM114.341 410.609V411.609H110.029V414.516H115.81V415.531H103.091V414.516H108.81V411.609H104.732V404.516H114.185V405.531H105.982V407.516H113.888V408.516H105.982V410.609H114.341ZM128.068 403.375V417.297H126.849V403.375H128.068ZM117.381 405.688V404.672H123.849V409.609H118.662V412.891C120.967 412.898 123.021 412.789 125.506 412.391L125.631 413.422C123.076 413.82 120.967 413.922 118.568 413.922H117.412V408.609H122.615V405.688H117.381ZM141.607 403.375V410.453H140.389V407.5H137.49C137.232 409.102 135.811 410.18 133.936 410.172C131.842 410.18 130.318 408.875 130.326 407C130.318 405.148 131.842 403.867 133.936 403.875C135.795 403.867 137.209 404.906 137.482 406.469H140.389V403.375H141.607ZM131.498 407C131.498 408.266 132.514 409.164 133.936 409.156C135.311 409.164 136.342 408.266 136.342 407C136.342 405.766 135.311 404.875 133.936 404.891C132.514 404.875 131.498 405.766 131.498 407ZM132.607 412.203V411.219H141.607V414.547H133.857V416.094H142.139V417.078H132.639V413.609H140.389V412.203H132.607ZM156.272 410.703V411.703H143.616V410.703H156.272ZM145.022 406.625C145.022 404.883 146.928 403.859 149.944 403.875C152.928 403.859 154.842 404.883 154.85 406.625C154.842 408.352 152.928 409.391 149.944 409.391C146.928 409.391 145.022 408.352 145.022 406.625ZM145.256 416.969V412.922H146.491V415.938H154.866V416.969H145.256ZM146.287 406.625C146.28 407.727 147.702 408.391 149.944 408.391C152.17 408.391 153.592 407.727 153.6 406.625C153.592 405.539 152.17 404.859 149.944 404.859C147.702 404.859 146.28 405.539 146.287 406.625ZM172.71 403.375V417.266H171.538V403.375H172.71ZM160.804 413.375C163.827 411.586 165.343 409.078 165.585 406.172H161.429V405.156H166.804C166.804 405.867 166.741 406.57 166.616 407.25H168.726V403.75H169.897V416.562H168.726V411.75H166.147V410.734H168.726V408.266H166.374C165.702 410.617 164.179 412.695 161.554 414.266L160.804 413.375ZM187.031 410.359V411.375H174.327V410.359H180.046V408.219H181.249V410.359H187.031ZM175.093 407.984C177.546 407.648 180.031 406.102 180.031 404.25V403.594H181.265V404.25C181.265 406.102 183.765 407.648 186.218 407.984L185.718 408.969C183.617 408.602 181.523 407.484 180.656 405.883C179.781 407.5 177.695 408.602 175.562 408.969L175.093 407.984ZM175.734 413.719V412.734H185.421V417.266H184.187V413.719H175.734ZM195.594 407.656C195.602 409.891 196.734 412.18 198.625 413.188L197.922 414.109C196.539 413.352 195.539 411.914 195.031 410.242C194.539 412.023 193.547 413.586 192.156 414.422L191.422 413.484C193.312 412.391 194.43 409.953 194.438 407.656V406.969H191.797V405.953H194.438V403.891H195.609V405.953H198.203V406.969H195.594V407.656ZM197.25 409.906V408.859H199.438V403.719H200.594V416.547H199.438V409.906H197.25ZM202.234 417.266V403.375H203.406V417.266H202.234ZM216.555 403.375V411.797H215.321V408.625H212.961V407.609H215.321V403.375H216.555ZM205.055 405.844V404.844H208.508V403.25H209.711V404.844H213.164V405.844H205.055ZM205.883 409.031C205.883 407.578 207.219 406.562 209.102 406.562C210.992 406.562 212.321 407.578 212.336 409.031C212.321 410.531 210.992 411.516 209.102 411.516C207.219 411.516 205.883 410.531 205.883 409.031ZM207.055 409.031C207.055 409.953 207.891 410.562 209.102 410.578C210.313 410.562 211.149 409.953 211.149 409.031C211.149 408.141 210.313 407.516 209.102 407.516C207.891 407.516 207.055 408.141 207.055 409.031ZM207.477 417.078V412.547H216.555V417.078H207.477ZM208.696 416.078H215.352V413.531H208.696V416.078ZM229.297 403.375V409.109H231.626V410.125H229.297V417.266H228.079V403.375H229.297ZM218.469 406.625V405.609H222.047V403.547H223.266V405.609H226.735V406.625H218.469ZM219.266 410.969C219.258 409.094 220.696 407.781 222.672 407.781C224.633 407.781 226.063 409.094 226.079 410.969C226.063 412.852 224.633 414.156 222.672 414.156C220.696 414.156 219.258 412.852 219.266 410.969ZM220.438 410.969C220.43 412.234 221.376 413.125 222.672 413.109C223.954 413.125 224.891 412.234 224.907 410.969C224.891 409.711 223.954 408.805 222.672 408.812C221.376 408.805 220.43 409.711 220.438 410.969ZM243.509 403.375V410.578H242.306V403.375H243.509ZM232.149 409.469C234.243 408.742 235.728 406.883 235.728 404.844V403.781H236.978V404.844C236.962 406.805 238.462 408.539 240.524 409.219L239.915 410.172C238.282 409.617 236.993 408.453 236.368 406.953C235.743 408.57 234.438 409.844 232.79 410.438L232.149 409.469ZM234.493 412.266V411.281H243.524V414.609H235.728V416.109H244.024V417.109H234.524V413.656H242.306V412.266H234.493ZM256.228 404.672C256.236 406.633 258.783 408.32 261.291 408.672L260.791 409.672C258.634 409.312 256.494 408.117 255.603 406.414C254.712 408.133 252.58 409.312 250.416 409.672L249.916 408.672C252.423 408.32 254.962 406.664 254.962 404.672V403.875H256.228V404.672ZM249.259 412.234V411.203H261.916V412.234H256.166V417.266H254.962V412.234H249.259ZM271.166 412.703C271.158 413.93 271.823 415.234 273.143 415.984C274.471 415.164 275.174 413.773 275.166 412.703V411.938H276.369V412.703C276.362 414.133 277.416 415.555 279.198 416.172L278.588 417.078C277.198 416.586 276.229 415.617 275.744 414.453C275.315 415.578 274.463 416.648 273.182 417.188C271.83 416.672 270.971 415.656 270.557 414.492C270.057 415.609 269.104 416.578 267.776 417.078L267.151 416.172C268.908 415.516 269.963 414.031 269.979 412.703V411.938H271.166V412.703ZM266.791 407.453C266.783 405.516 268.323 404.195 270.432 404.203C272.541 404.195 274.065 405.516 274.073 407.453C274.065 409.359 272.541 410.672 270.432 410.672C268.323 410.672 266.783 409.359 266.791 407.453ZM267.994 407.453C267.979 408.742 269.002 409.648 270.432 409.656C271.846 409.648 272.869 408.742 272.869 407.453C272.869 406.156 271.846 405.234 270.432 405.25C269.002 405.234 267.979 406.156 267.994 407.453ZM276.713 411.328V403.391H277.932V411.328H276.713ZM282.799 411.719V413.344H289.737V411.719H290.971V417.078H281.581V411.719H282.799ZM279.971 410.734V409.719H292.628V410.734H279.971ZM280.69 407.75C283.167 407.414 285.674 405.953 285.674 404.188V403.531H286.94V404.188C286.932 405.898 289.463 407.438 291.909 407.75L291.456 408.734C289.307 408.414 287.19 407.32 286.307 405.766C285.424 407.328 283.299 408.414 281.159 408.734L280.69 407.75ZM282.799 416.094H289.737V414.312H282.799V416.094ZM304.932 403.375V417.266H303.714V403.375H304.932ZM294.386 413.688V404.75H295.589V412.625C297.714 412.609 299.901 412.445 302.229 411.953L302.401 413C299.932 413.516 297.737 413.688 295.511 413.688H294.386ZM317.737 403.375V408.875H320.066V409.906H317.737V417.297H316.519V403.375H317.737ZM307.597 413.812V404.734H314.081V405.75H308.816V412.781C311.331 412.773 313.105 412.664 315.175 412.281L315.331 413.344C313.152 413.734 311.331 413.812 308.691 413.812H307.597ZM321.964 416.094C321.418 416.086 320.949 415.633 320.964 415.078C320.949 414.531 321.418 414.078 321.964 414.078C322.519 414.078 322.972 414.531 322.964 415.078C322.972 415.633 322.519 416.086 321.964 416.094Z" fill="#707070"/>
<defs>
<clipPath id="clip0_911_2916">
<rect width="160" height="145" fill="white" transform="translate(120 168)"/>
</clipPath>
<clipPath id="clip1_911_2916">
<rect width="140.106" height="123" fill="white" transform="translate(129.947 191)"/>
</clipPath>
</defs>
</svg>
