<svg width="400" height="727" viewBox="0 0 400 727" fill="none" xmlns="http://www.w3.org/2000/svg">
<rect width="400" height="727" fill="#EBF5FF"/>
<rect width="400" height="58" fill="#EBF5FF"/>
<path d="M374.001 30.4008L369.101 35.3008C368.917 35.4841 368.684 35.5758 368.401 35.5758C368.117 35.5758 367.884 35.4841 367.701 35.3008C367.517 35.1174 367.426 34.8841 367.426 34.6008C367.426 34.3174 367.517 34.0841 367.701 33.9008L372.601 29.0008L367.701 24.1008C367.517 23.9174 367.426 23.6841 367.426 23.4008C367.426 23.1174 367.517 22.8841 367.701 22.7008C367.884 22.5174 368.117 22.4258 368.401 22.4258C368.684 22.4258 368.917 22.5174 369.101 22.7008L374.001 27.6008L378.901 22.7008C379.084 22.5174 379.317 22.4258 379.601 22.4258C379.884 22.4258 380.117 22.5174 380.301 22.7008C380.484 22.8841 380.576 23.1174 380.576 23.4008C380.576 23.6841 380.484 23.9174 380.301 24.1008L375.401 29.0008L380.301 33.9008C380.484 34.0841 380.576 34.3174 380.576 34.6008C380.576 34.8841 380.484 35.1174 380.301 35.3008C380.117 35.4841 379.884 35.5758 379.601 35.5758C379.317 35.5758 379.084 35.4841 378.901 35.3008L374.001 30.4008Z" fill="black"/>
<path d="M112.434 137.97V139.323H95.7407V137.97H103.247V133.52H97.7095V124.968H110.363V133.52H104.826V137.97H112.434ZM99.2886 126.26V132.228H108.804V126.26H99.2886ZM127.58 123.43V130.607H130.635V132.002H127.58V141.661H125.98V123.43H127.58ZM115.829 124.988V129.808H121.161V124.988H122.76V137.293H114.229V124.988H115.829ZM115.829 135.939H121.161V131.1H115.829V135.939ZM136.368 124.106C139.095 124.127 141.084 125.768 141.084 128.146C141.084 130.525 139.095 132.166 136.368 132.166C133.599 132.166 131.63 130.525 131.63 128.146C131.63 125.768 133.599 124.127 136.368 124.106ZM136.368 125.46C134.542 125.46 133.189 126.567 133.209 128.146C133.189 129.746 134.542 130.854 136.368 130.854C138.172 130.854 139.526 129.746 139.526 128.146C139.526 126.567 138.172 125.46 136.368 125.46ZM146.252 123.43V132.802H144.653V123.43H146.252ZM146.252 133.684V138.072H136.019V140.123H146.909V141.415H134.44V136.862H144.653V134.976H134.399V133.684H146.252ZM168.832 123.45V136.821H167.233V123.45H168.832ZM169.406 139.918V141.271H157.061V135.591H158.66V139.918H169.406ZM160.239 126.301C160.219 129.069 162.126 131.571 164.833 132.556L163.992 133.848C161.88 133.038 160.239 131.397 159.44 129.295C158.63 131.53 156.968 133.325 154.846 134.176L153.964 132.925C156.733 131.858 158.599 129.172 158.599 126.301V124.476H160.239V126.301ZM188.182 133.089V134.401H180.758V137.97H179.158V134.401H171.488V133.089H188.182ZM186.316 139.918V141.271H173.621V136.288H175.221V139.918H186.316ZM175.323 124.024V126.362H184.347V124.024H185.946V131.305H173.724V124.024H175.323ZM175.323 129.992H184.347V127.593H175.323V129.992ZM205.85 132.104V133.438H189.238V132.104H205.85ZM197.544 135.037C201.461 135.037 203.799 136.247 203.819 138.339C203.799 140.451 201.461 141.62 197.544 141.62C193.606 141.62 191.248 140.451 191.248 138.339C191.248 136.247 193.606 135.037 197.544 135.037ZM197.544 136.309C194.611 136.329 192.868 137.047 192.889 138.339C192.868 139.61 194.611 140.328 197.544 140.328C200.436 140.328 202.199 139.61 202.199 138.339C202.199 137.047 200.436 136.329 197.544 136.309ZM204.373 124.373V125.706H198.59C198.651 127.777 201.687 129.356 204.927 129.726L204.332 131.018C201.348 130.638 198.549 129.305 197.544 127.265C196.549 129.305 193.76 130.638 190.756 131.018L190.182 129.726C193.36 129.356 196.416 127.777 196.498 125.706H190.756V124.373H204.373ZM216.186 124.455C218.627 124.435 220.37 126.137 220.37 128.577C220.37 131.018 218.627 132.699 216.186 132.699C213.725 132.699 212.003 131.018 212.023 128.577C212.003 126.137 213.725 124.435 216.186 124.455ZM216.186 125.768C214.628 125.768 213.459 126.937 213.479 128.577C213.459 130.197 214.628 131.366 216.186 131.366C217.745 131.366 218.873 130.197 218.893 128.577C218.873 126.937 217.745 125.768 216.186 125.768ZM227.302 123.45V133.376H225.764V128.987H223.344V133.232H221.826V123.799H223.344V127.634H225.764V123.45H227.302ZM216.884 134.196V136.37H225.723V134.196H227.302V141.415H215.284V134.196H216.884ZM216.884 140.103H225.723V137.703H216.884V140.103ZM249.43 123.43V141.702H247.81V123.43H249.43ZM237.064 124.988V129.808H242.499V124.988H244.078V137.293H235.465V124.988H237.064ZM237.064 135.939H242.499V131.1H237.064V135.939ZM261.643 124.455V131.879H253.091V124.455H261.643ZM254.671 125.768V130.607H260.064V125.768H254.671ZM267.16 123.43V132.843H265.581V123.43H267.16ZM267.16 133.745V138.093H256.947V140.144H267.816V141.456H255.347V136.903H265.581V135.037H255.327V133.745H267.16ZM284.971 123.45V136.944H283.351V129.931H279.044V133.827H270.78V124.66H272.379V127.9H277.465V124.66H279.044V128.577H283.351V123.45H284.971ZM285.381 139.918V141.271H273.179V135.611H274.799V139.918H285.381ZM272.379 132.494H277.465V129.172H272.379V132.494ZM303.336 126.137V127.47H288.407V126.137H295.092V123.737H296.671V126.137H303.336ZM304.28 138.195V139.528H287.586V138.195H295.092V135.632C291.852 135.458 289.883 134.196 289.904 132.146C289.883 129.972 292.18 128.7 295.892 128.721C299.563 128.7 301.88 129.972 301.88 132.146C301.88 134.196 299.891 135.458 296.671 135.632V138.195H304.28ZM295.892 129.992C293.165 129.992 291.503 130.792 291.524 132.146C291.503 133.54 293.165 134.319 295.892 134.34C298.579 134.319 300.24 133.54 300.24 132.146C300.24 130.792 298.579 129.992 295.892 129.992ZM124.324 169.205C121.74 169.164 118.91 167.646 118.91 162.15C118.91 156.9 121.063 153.947 124.55 153.947C127.154 153.947 128.979 155.547 129.369 157.885H127.544C127.195 156.572 126.211 155.588 124.55 155.588C122.109 155.588 120.653 157.68 120.653 161.248H120.838C121.699 160.018 123.053 159.279 124.652 159.279C127.298 159.279 129.492 161.33 129.492 164.201C129.492 166.99 127.441 169.226 124.324 169.205ZM124.324 167.585C126.252 167.585 127.687 166.067 127.708 164.222C127.687 162.396 126.313 160.899 124.365 160.899C122.417 160.899 120.92 162.479 120.899 164.242C120.899 165.985 122.335 167.585 124.324 167.585ZM137.132 158.028C137.111 160.961 139.223 164.181 141.869 165.432L140.946 166.703C138.895 165.708 137.162 163.535 136.352 161.063C135.512 163.75 133.676 166.108 131.636 167.154L130.651 165.883C133.276 164.611 135.532 161.146 135.553 158.028V155.649H131.307V154.316H141.233V155.649H137.132V158.028ZM145.068 152.43V159.812H148.124V161.187H145.068V170.661H143.469V152.43H145.068ZM163.741 152.43V170.702H162.141V152.43H163.741ZM158.204 154.132V160.612H151.395V164.919C154.42 164.919 157.117 164.786 160.378 164.263L160.542 165.616C157.178 166.149 154.41 166.272 151.272 166.272H149.755V159.3H156.584V155.465H149.714V154.132H158.204ZM183.09 160.899V162.171H166.397V160.899H183.09ZM180.999 163.627V167.503H170.048V169.246H181.593V170.415H168.427V166.396H179.399V164.837H168.407V163.627H180.999ZM180.937 152.983V156.757H170.171V158.356H181.265V159.525H168.571V155.649H179.317V154.152H168.509V152.983H180.937ZM204.05 152.43V162.212H202.451V152.43H204.05ZM193.837 163.135V165.35H202.451V163.135H204.05V170.415H192.238V163.135H193.837ZM193.837 169.103H202.451V166.642H193.837V169.103ZM194.207 153.332C196.975 153.312 198.985 155.014 198.985 157.516C198.985 159.997 196.975 161.699 194.207 161.699C191.438 161.699 189.428 159.997 189.428 157.516C189.428 155.014 191.438 153.312 194.207 153.332ZM194.207 154.686C192.34 154.665 190.987 155.854 191.007 157.516C190.987 159.177 192.34 160.366 194.207 160.366C196.052 160.366 197.406 159.177 197.406 157.516C197.406 155.854 196.052 154.665 194.207 154.686ZM215.381 153.558V158.664H209.106V161.494C212.531 161.494 214.294 161.443 216.448 161.043L216.612 162.376C214.335 162.745 212.49 162.807 208.798 162.807H207.506V157.434H213.782V154.85H207.465V153.558H215.381ZM221.841 152.45V163.647H220.221V160.264H216.591V158.931H220.221V156.47H216.591V155.157H220.221V152.45H221.841ZM221.841 164.632V170.702H220.221V165.944H209.557V164.632H221.841ZM238.566 152.43V159.956H241.621V161.289H238.566V170.661H236.966V152.43H238.566ZM235.202 155.362V156.695H224.354V155.362H229.05V152.655H230.65V155.362H235.202ZM229.87 158.213C232.454 158.213 234.321 159.936 234.341 162.396C234.321 164.857 232.454 166.58 229.87 166.58C227.266 166.58 225.379 164.857 225.4 162.396C225.379 159.936 227.266 158.213 229.87 158.213ZM229.87 159.566C228.168 159.566 226.917 160.756 226.938 162.396C226.917 164.058 228.168 165.227 229.87 165.206C231.552 165.227 232.783 164.058 232.803 162.396C232.783 160.756 231.552 159.566 229.87 159.566ZM247.6 157.618C247.6 160.51 249.015 163.647 251.435 165.083L250.512 166.334C248.759 165.268 247.497 163.319 246.862 161.104C246.185 163.524 244.831 165.606 243.006 166.724L241.981 165.514C244.503 164.037 246.041 160.797 246.041 157.68V154.152H247.6V157.618ZM257.813 152.43V170.661H256.254V152.43H257.813ZM254.039 152.819V169.738H252.522V160.346H249.425V158.972H252.522V152.819H254.039ZM276.609 166.97V168.323H259.915V166.97H264.058V162.048C262.499 161.238 261.556 159.925 261.556 158.274C261.556 155.444 264.324 153.599 268.221 153.578C272.117 153.599 274.886 155.444 274.886 158.274C274.886 159.895 273.973 161.197 272.466 162.007V166.97H276.609ZM268.221 154.911C265.227 154.891 263.114 156.244 263.114 158.274C263.114 160.305 265.227 161.679 268.221 161.679C271.195 161.679 273.327 160.305 273.327 158.274C273.327 156.244 271.195 154.891 268.221 154.911ZM265.637 166.97H270.846V162.622C270.056 162.837 269.174 162.95 268.221 162.95C267.288 162.95 266.416 162.848 265.637 162.643V166.97ZM279.572 169.123C278.855 169.123 278.239 168.528 278.26 167.79C278.239 167.072 278.855 166.478 279.572 166.478C280.29 166.478 280.885 167.072 280.885 167.79C280.885 168.528 280.29 169.123 279.572 169.123Z" fill="#222222"/>
<circle cx="115" cy="266" r="10" fill="#0077FA"/>
<circle cx="149" cy="266" r="10" fill="#0077FA"/>
<circle cx="183" cy="266" r="10" fill="#0077FA"/>
<circle cx="217" cy="266" r="10" fill="#0077FA"/>
<circle cx="251" cy="266" r="10" fill="#CEDFE0"/>
<circle cx="285" cy="266" r="10" fill="#CEDFE0"/>
</svg>
