<svg width="400" height="86" viewBox="0 0 400 86" fill="none" xmlns="http://www.w3.org/2000/svg">
<rect width="400" height="86" fill="white"/>
<rect x="20" width="360" height="56" rx="8" fill="#0077FA"/>
<path d="M144.459 29.8691H146.357L147.588 31.46C148.423 30.6602 148.933 29.3682 148.941 27.6367C148.933 24.543 147.307 22.8643 145.127 22.873C142.93 22.8643 141.304 24.543 141.295 27.6367C141.304 30.7305 142.93 32.4092 145.127 32.4004C145.531 32.4004 145.909 32.3477 146.27 32.2334L144.459 29.8691ZM139.379 27.6367C139.379 23.5674 141.813 21.0977 145.127 21.0977C148.414 21.0977 150.857 23.5674 150.857 27.6367C150.857 29.9834 150.049 31.7939 148.73 32.9102L150.453 35.1426H148.467L147.395 33.7363C146.709 34.0264 145.944 34.1758 145.127 34.1758C141.813 34.1758 139.379 31.6973 139.379 27.6367ZM153.037 34V21.2734H157.572C160.534 21.2734 161.984 22.917 161.984 25.2637C161.984 26.9775 161.211 28.2695 159.664 28.8584L162.477 34H160.279L157.695 29.2012H157.572H154.971V34H153.037ZM154.971 27.5312H157.379C159.251 27.5225 160.033 26.6963 160.033 25.2637C160.033 23.8311 159.251 22.9346 157.379 22.9258H154.971V27.5312ZM176.117 21.2031V22.6797C176.108 24.5957 176.126 26.7754 175.449 30.0449L173.814 29.8691C174.104 28.5244 174.263 27.3379 174.359 26.2744L164.885 26.8281L164.639 25.3867L174.438 25C174.474 24.1475 174.482 23.3916 174.482 22.6797V22.5742H165.113V21.2031H176.117ZM163.408 33.4551V32.0664H168.875V28.0762H170.527V32.0664H177.77V33.4551H163.408ZM191.727 27.2148V28.5859H180.758V21.1504H191.586V22.5215H182.41V27.2148H191.727ZM178.965 33.4199V32.0312H193.379V33.4199H178.965ZM208.039 21.0098V22.2402H204.664C204.743 23.374 206.246 24.2969 208.391 24.5957L207.828 25.8086C205.947 25.5273 204.541 24.7539 203.864 23.6904C203.188 24.8154 201.764 25.6416 199.848 25.9492L199.285 24.7539C201.447 24.4375 202.95 23.4355 203.029 22.2402H199.654V21.0098H203.029V19.6914H204.664V21.0098H208.039ZM198.898 26.916C200.129 26.916 201.553 26.9072 203.029 26.8633V25.2812H204.664V26.8018C206.044 26.7314 207.424 26.626 208.707 26.459L208.83 27.6191C205.525 28.1641 201.852 28.1992 199.074 28.1992L198.898 26.916ZM200.902 30.4844V29.2539H211.309V32.8047H202.607V34.0703H211.889V35.3359H200.938V31.6445H209.656V30.4844H200.902ZM209.639 28.6035V19.7441H211.309V23.4004H213.559V24.7539H211.309V28.6035H209.639ZM218.832 20.6582C220.142 20.6494 221.258 21.1416 221.996 21.959H225.934V19.7441H227.604V29.043H225.934V26.916H221.987C221.249 27.7246 220.133 28.208 218.832 28.1992C216.459 28.208 214.692 26.6348 214.701 24.4375C214.692 22.2139 216.459 20.6494 218.832 20.6582ZM216.301 24.4375C216.292 25.8174 217.355 26.793 218.832 26.7754C220.265 26.793 221.328 25.8174 221.328 24.4375C221.328 23.0225 220.265 22.082 218.832 22.0996C217.355 22.082 216.292 23.0225 216.301 24.4375ZM217.004 32.4355C216.995 30.5107 219.034 29.3857 222.33 29.3945C225.608 29.3857 227.647 30.5107 227.656 32.4355C227.647 34.3516 225.608 35.4678 222.33 35.459C219.034 35.4678 216.995 34.3516 217.004 32.4355ZM218.639 32.4355C218.63 33.5166 220.019 34.1494 222.33 34.1406C224.642 34.1494 226.021 33.5166 226.021 32.4355C226.021 31.3105 224.642 30.6865 222.33 30.6777C220.019 30.6865 218.63 31.3105 218.639 32.4355ZM222.761 23.2949C222.866 23.6465 222.928 24.0332 222.928 24.4375C222.928 24.8242 222.866 25.2021 222.761 25.5449H225.934V23.2949H222.761ZM242.299 19.7441V26.125H244.83V27.5137H242.299V35.4941H240.646V19.7441H242.299ZM229.941 23.5762V22.2051H233.826V19.9551H235.496V22.2051H239.275V23.5762H229.941ZM230.75 28.3926C230.75 26.248 232.402 24.7363 234.67 24.7363C236.929 24.7363 238.581 26.248 238.59 28.3926C238.581 30.5547 236.929 32.0576 234.67 32.0664C232.402 32.0576 230.75 30.5547 230.75 28.3926ZM232.35 28.3926C232.341 29.7637 233.325 30.6777 234.67 30.6602C236.006 30.6777 236.981 29.7637 236.99 28.3926C236.981 27.0479 236.006 26.1162 234.67 26.1074C233.325 26.1162 232.341 27.0479 232.35 28.3926ZM258.682 19.7441V35.4941H256.994V19.7441H258.682ZM245.744 31.2754C249.928 29.2803 251.976 26.4414 252.301 22.7676H246.5V21.4316H253.988C253.988 26.0459 252.028 30.0361 246.623 32.6289L245.744 31.2754Z" fill="white"/>
</svg>
