<svg width="400" height="900" viewBox="0 0 400 900" fill="none" xmlns="http://www.w3.org/2000/svg">
<rect width="400" height="900" fill="white"/>
<rect width="400" height="58" fill="white"/>
<path d="M374.001 30.4008L369.101 35.3008C368.917 35.4841 368.684 35.5758 368.401 35.5758C368.117 35.5758 367.884 35.4841 367.701 35.3008C367.517 35.1174 367.426 34.8841 367.426 34.6008C367.426 34.3174 367.517 34.0841 367.701 33.9008L372.601 29.0008L367.701 24.1008C367.517 23.9174 367.426 23.6841 367.426 23.4008C367.426 23.1174 367.517 22.8841 367.701 22.7008C367.884 22.5174 368.117 22.4258 368.401 22.4258C368.684 22.4258 368.917 22.5174 369.101 22.7008L374.001 27.6008L378.901 22.7008C379.084 22.5174 379.317 22.4258 379.601 22.4258C379.884 22.4258 380.117 22.5174 380.301 22.7008C380.484 22.8841 380.576 23.1174 380.576 23.4008C380.576 23.6841 380.484 23.9174 380.301 24.1008L375.401 29.0008L380.301 33.9008C380.484 34.0841 380.576 34.3174 380.576 34.6008C380.576 34.8841 380.484 35.1174 380.301 35.3008C380.117 35.4841 379.884 35.5758 379.601 35.5758C379.317 35.5758 379.084 35.4841 378.901 35.3008L374.001 30.4008Z" fill="black"/>
<path d="M138.323 102.926V104.684H131.312V110.719H129.163V104.684H122.23V102.926H138.323ZM123.07 100.035C126.536 99.5957 128.861 97.7305 129.017 95.7969H123.714V94.0781H136.839V95.7969H131.536C131.683 97.7305 133.988 99.5957 137.484 100.035L136.702 101.734C133.695 101.305 131.351 99.9277 130.277 98.0234C129.193 99.9277 126.868 101.305 123.89 101.734L123.07 100.035ZM148.529 94.5469V102.945H140.013V94.5469H148.529ZM142.142 110.27V104.508H144.33V108.512H154.31V110.27H142.142ZM142.162 101.207H146.38V96.2852H142.162V101.207ZM151.634 105.699V93.1016H153.822V105.699H151.634ZM171.098 93.082V106.305H169.027V93.082H171.098ZM155.883 102.281C158.236 101.139 159.34 98.7949 159.34 96.6953V94.293H161.449V96.6953C161.449 98.7559 162.465 100.807 164.711 101.812L163.5 103.492C162.016 102.799 161 101.607 160.414 100.172C159.789 101.793 158.686 103.17 157.074 103.922L155.883 102.281ZM159.281 110.387V104.723H161.449V108.629H171.586V110.387H159.281ZM163.129 99.0586V97.2812H165.492V93.3945H167.562V105.777H165.492V99.0586H163.129ZM187.69 93.082V110.758H185.541V101.227H182.221V99.4688H185.541V93.082H187.69ZM173.686 106.695V94.6055H181.948V96.3828H175.873V99.5469H181.245V101.266H175.873V104.898C178.559 104.889 180.571 104.791 182.846 104.43L183.061 106.188C180.493 106.578 178.227 106.676 175.073 106.695H173.686ZM205.005 93.082V110.738H202.915V93.082H205.005ZM189.946 100.719C189.946 96.832 191.45 94.4199 193.755 94.4297C195.893 94.4199 197.348 96.4219 197.602 99.7227H199.302V93.3945H201.372V109.879H199.302V101.48H197.622C197.417 104.928 195.942 107.037 193.755 107.027C191.45 107.037 189.946 104.615 189.946 100.719ZM191.958 100.719C191.948 103.482 192.632 104.967 193.755 104.957C194.927 104.967 195.62 103.482 195.63 100.719C195.62 97.9648 194.927 96.4707 193.755 96.4805C192.632 96.4707 191.948 97.9648 191.958 100.719ZM219.185 103.98C222.847 103.98 225.093 105.221 225.103 107.34C225.093 109.488 222.847 110.729 219.185 110.738C215.494 110.729 213.209 109.488 213.209 107.34C213.209 105.221 215.494 103.98 219.185 103.98ZM211.607 102.438V94.1953H213.755V96.5781H217.877V94.1953H220.025V102.438H211.607ZM213.755 100.719H217.877V98.2773H213.755V100.719ZM215.377 107.34C215.377 108.434 216.763 109.029 219.185 109.02C221.597 109.029 222.955 108.434 222.955 107.34C222.955 106.246 221.597 105.689 219.185 105.68C216.763 105.689 215.377 106.246 215.377 107.34ZM222.759 103.551V93.082H224.927V97.3008H227.388V99.1172H224.927V103.551H222.759ZM244 101.91V103.648H237.184V106.891H235.035V103.648H227.867V101.91H244ZM229.82 110.387V105.27H231.988V108.629H242.223V110.387H229.82ZM229.918 100.27V93.8828H241.93V100.27H229.918ZM232.027 98.5703H239.781V95.582H232.027V98.5703ZM258.6 93.082V100.113H261.315V101.91H258.6V110.738H256.452V93.082H258.6ZM244.674 97.5352V95.7969H248.854V93.3359H251.022V95.7969H255.084V97.5352H244.674ZM245.495 102.848C245.475 100.406 247.37 98.6777 249.948 98.6875C252.487 98.6777 254.371 100.406 254.381 102.848C254.371 105.279 252.487 106.988 249.948 106.988C247.37 106.988 245.475 105.279 245.495 102.848ZM247.565 102.848C247.555 104.283 248.561 105.201 249.948 105.191C251.305 105.201 252.291 104.283 252.311 102.848C252.291 101.412 251.305 100.465 249.948 100.465C248.561 100.465 247.555 101.412 247.565 102.848ZM266.481 94.3711C268.073 94.3711 269.391 95.2598 270.182 96.8125H274.313V93.082H276.462V110.758H274.313V104.078H270.339C269.567 105.836 268.18 106.852 266.481 106.852C263.825 106.852 261.94 104.439 261.95 100.602C261.94 96.793 263.825 94.3711 266.481 94.3711ZM264.04 100.602C264.03 103.316 265.026 104.889 266.481 104.898C267.946 104.889 268.932 103.316 268.942 100.602C268.932 97.9062 267.946 96.3242 266.481 96.3242C265.026 96.3242 264.03 97.9062 264.04 100.602ZM270.798 98.5898C270.925 99.2051 270.993 99.8789 270.993 100.602C270.993 101.207 270.944 101.783 270.846 102.32H274.313V98.5898H270.798ZM91.159 132.254H93.4832L94.6844 133.836C95.4949 132.996 95.9734 131.688 95.9637 129.93C95.9734 126.697 94.3523 124.949 92.0379 124.949C89.7332 124.949 88.1023 126.697 88.1121 129.93C88.1023 133.162 89.7332 134.91 92.0379 134.91C92.409 134.91 92.7605 134.861 93.0926 134.773L91.159 132.254ZM85.5535 129.93C85.5437 125.359 88.3172 122.664 92.0379 122.664C95.7391 122.664 98.532 125.359 98.5223 129.93C98.532 132.498 97.6531 134.471 96.2273 135.711L98.1902 138.23H95.7098L94.5281 136.736C93.7664 137.039 92.9266 137.195 92.0379 137.195C88.3172 137.195 85.5437 134.49 85.5535 129.93ZM100.407 137V122.859H105.72C108.962 122.859 110.691 124.676 110.7 127.371C110.691 129.295 109.812 130.721 108.152 131.395L111.208 137H108.376L105.603 131.824H102.946V137H100.407ZM102.946 129.695H105.329C107.243 129.705 108.103 128.885 108.103 127.371C108.103 125.867 107.243 124.988 105.329 124.988H102.946V129.695ZM126.121 122.645V124.246C126.111 126.385 126.14 128.855 125.339 132.586L123.211 132.371C123.523 130.945 123.709 129.686 123.816 128.562L113.406 129.148L113.093 127.293L123.943 126.902C123.982 125.984 123.992 125.164 123.992 124.402H113.64V122.645H126.121ZM111.765 136.57V134.773H117.703V130.418H119.851V134.773H127.859V136.57H111.765ZM142.986 129.363V131.102H130.604V122.625H142.85V124.383H132.752V129.363H142.986ZM128.65 136.492V134.695H144.783V136.492H128.65ZM160.077 122.41V124.012H156.454C156.6 125.096 158.104 125.984 160.468 126.258L159.745 127.84C157.655 127.557 156.151 126.766 155.389 125.672C154.628 126.824 153.095 127.674 150.956 127.996L150.233 126.434C152.645 126.131 154.139 125.145 154.286 124.012H150.682V122.41H154.296V121.043H156.444V122.41H160.077ZM149.843 128.934C151.18 128.934 152.704 128.924 154.296 128.885V127.273H156.444V128.816C157.909 128.738 159.364 128.631 160.721 128.465L160.878 129.949C157.216 130.535 153.163 130.574 150.077 130.574L149.843 128.934ZM152.069 133.172V131.59H163.866V135.77H154.276V136.961H164.491V138.582H152.108V134.285H161.698V133.172H152.069ZM161.698 130.906V121.082H163.866V125.008H166.249V126.785H163.866V130.906H161.698ZM171.669 122.078C173.095 122.068 174.335 122.596 175.165 123.484H179.384V121.082H181.552V131.473H179.384V129.227H175.155C174.316 130.096 173.085 130.623 171.669 130.613C169.003 130.623 167.001 128.836 167.001 126.355C167.001 123.855 169.003 122.068 171.669 122.078ZM169.071 126.355C169.071 127.801 170.155 128.777 171.669 128.777C173.134 128.777 174.218 127.801 174.228 126.355C174.218 124.861 173.134 123.934 171.669 123.934C170.155 123.934 169.071 124.861 169.071 126.355ZM169.579 135.281C169.56 133.104 171.874 131.834 175.575 131.844C179.286 131.834 181.601 133.104 181.611 135.281C181.601 137.449 179.286 138.719 175.575 138.719C171.874 138.719 169.56 137.449 169.579 135.281ZM171.708 135.281C171.689 136.404 173.124 137.01 175.575 137.02C178.075 137.01 179.482 136.404 179.482 135.281C179.482 134.129 178.075 133.514 175.575 133.504C173.124 133.514 171.689 134.129 171.708 135.281ZM176.142 125.223C176.239 125.584 176.298 125.955 176.298 126.355C176.298 126.746 176.239 127.117 176.152 127.469H179.384V125.223H176.142ZM191.679 121.355C195.703 121.365 198.037 122.43 198.046 124.383C198.037 126.355 195.703 127.42 191.679 127.43C187.666 127.42 185.312 126.355 185.312 124.383C185.312 122.43 187.666 121.365 191.679 121.355ZM183.652 130.105V128.367H199.746V130.105H183.652ZM185.546 132.898V131.297H197.734V135.613H187.695V136.922H198.222V138.582H185.566V134.07H195.605V132.898H185.546ZM187.597 124.383C187.587 125.359 188.994 125.809 191.679 125.809C194.404 125.809 195.8 125.359 195.8 124.383C195.8 123.475 194.404 122.957 191.679 122.957C188.994 122.957 187.587 123.475 187.597 124.383ZM211.582 124.676C211.582 126.873 213.086 129.021 215.899 129.891L214.786 131.59C212.784 130.945 211.329 129.617 210.518 127.938C209.727 129.764 208.223 131.219 206.133 131.941L205.02 130.223C207.862 129.285 209.375 127 209.395 124.676V124.168H205.586V122.43H215.293V124.168H211.582V124.676ZM207.911 138.387V132.742H210.098V136.629H220.079V138.387H207.911ZM217.403 133.914V121.102H219.59V133.914H217.403ZM236.866 121.082V132.176H234.796V127.371H233.077V131.59H231.046V121.434H233.077V125.613H234.796V121.082H236.866ZM221.671 124.695V122.996H225.011V121.238H227.159V122.996H230.46V124.695H221.671ZM222.296 128.465C222.276 126.629 223.878 125.408 226.085 125.418C228.331 125.408 229.913 126.629 229.932 128.465C229.913 130.301 228.331 131.512 226.085 131.512C223.878 131.512 222.276 130.301 222.296 128.465ZM224.229 128.465C224.229 129.373 224.981 129.949 226.085 129.949C227.198 129.949 227.96 129.373 227.96 128.465C227.96 127.557 227.198 126.98 226.085 126.98C224.981 126.98 224.229 127.557 224.229 128.465ZM224.854 135.574C224.845 133.543 227.13 132.4 230.909 132.391C234.679 132.4 236.954 133.543 236.964 135.574C236.954 137.566 234.679 138.719 230.909 138.719C227.13 138.719 224.845 137.566 224.854 135.574ZM227.022 135.574C227.012 136.541 228.389 137.068 230.909 137.059C233.419 137.068 234.766 136.541 234.776 135.574C234.766 134.549 233.419 134.031 230.909 134.051C228.389 134.031 227.012 134.549 227.022 135.574ZM247.267 123.895V125.633H238.614V123.895H241.896V121.59H244.044V123.895H247.267ZM239.122 130.672C239.103 128.27 240.734 126.561 242.97 126.57C245.216 126.561 246.818 128.27 246.818 130.672C246.818 133.123 245.216 134.832 242.97 134.832C240.734 134.832 239.103 133.123 239.122 130.672ZM241.036 130.672C241.027 132.098 241.827 132.986 242.97 132.977C244.103 132.986 244.904 132.098 244.904 130.672C244.904 129.285 244.103 128.367 242.97 128.367C241.827 128.367 241.027 129.285 241.036 130.672ZM248.009 137.938V121.453H250.04V128.348H251.759V121.082H253.829V138.738H251.759V130.105H250.04V137.938H248.009ZM275.979 130.926V132.684H268.967V138.719H266.818V132.684H259.885V130.926H275.979ZM260.725 128.035C264.191 127.596 266.516 125.73 266.672 123.797H261.369V122.078H274.494V123.797H269.191C269.338 125.73 271.643 127.596 275.139 128.035L274.357 129.734C271.35 129.305 269.006 127.928 267.932 126.023C266.848 127.928 264.523 129.305 261.545 129.734L260.725 128.035ZM282.278 125.711C282.287 128.562 283.264 131.531 285.657 133.035L284.465 134.695C282.873 133.738 281.838 132.098 281.252 130.174C280.618 132.293 279.485 134.09 277.825 135.105L276.477 133.484C279.045 131.932 280.178 128.816 280.188 125.809V122.645H282.278V125.711ZM283.762 128.953V127.156H286.282V121.395H288.332V137.879H286.282V128.953H283.762ZM289.914 138.738V121.082H292.004V138.738H289.914ZM309.788 134.812V136.59H293.655V134.812H297.386V130.35C295.979 129.539 295.13 128.27 295.139 126.707C295.13 123.895 297.884 122.039 301.682 122.039C305.501 122.039 308.274 123.895 308.264 126.707C308.274 128.25 307.444 129.49 306.077 130.301V134.812H309.788ZM297.268 126.707C297.259 128.514 299.046 129.666 301.682 129.656C304.309 129.666 306.136 128.514 306.136 126.707C306.136 124.871 304.309 123.748 301.682 123.758C299.046 123.748 297.259 124.871 297.268 126.707ZM299.534 134.812H303.87V131.131C303.196 131.277 302.464 131.355 301.682 131.355C300.921 131.355 300.198 131.277 299.534 131.141V134.812ZM312.689 137.156C311.849 137.156 311.155 136.473 311.165 135.633C311.155 134.812 311.849 134.139 312.689 134.129C313.499 134.139 314.193 134.812 314.193 135.633C314.193 136.473 313.499 137.156 312.689 137.156Z" fill="black"/>
<path d="M150.945 162.581C150.952 164.332 152.336 165.928 154.285 166.565L153.699 167.459C152.183 166.946 150.981 165.877 150.388 164.5C149.817 165.979 148.601 167.151 147.048 167.708L146.448 166.814C148.403 166.126 149.78 164.427 149.788 162.581V162.024H146.741V161.087H153.948V162.024H150.945V162.581ZM148.249 169.686V168.733H157.009V173.187H155.867V169.686H148.249ZM155.867 168.045V160.164H157.009V168.045H155.867ZM169.658 160.179V170.066H168.501V168.719H165.806V167.884H168.501V160.179H169.658ZM158.848 166.214C161.272 166.199 164.539 166.177 167.329 165.833L167.403 166.668C166.245 166.851 165.022 166.968 163.828 167.042V169.612H162.671V167.1C161.353 167.151 160.1 167.151 159.009 167.151L158.848 166.214ZM159.903 162.977C159.895 161.607 161.199 160.706 163.125 160.706C165.037 160.706 166.341 161.607 166.348 162.977C166.341 164.368 165.037 165.232 163.125 165.232C161.199 165.232 159.895 164.368 159.903 162.977ZM160.723 172.908V169.1H161.88V171.941H169.981V172.908H160.723ZM161.001 162.977C160.987 163.826 161.851 164.375 163.125 164.383C164.363 164.375 165.242 163.826 165.249 162.977C165.242 162.142 164.363 161.57 163.125 161.585C161.851 161.57 160.987 162.142 161.001 162.977ZM175.848 161.116C177.891 161.124 179.341 162.369 179.349 164.178C179.341 165.994 177.891 167.232 175.848 167.239C173.79 167.232 172.325 165.994 172.332 164.178C172.325 162.369 173.79 161.124 175.848 161.116ZM171.658 169.363C174.061 169.371 177.378 169.349 180.257 168.924L180.345 169.773C177.364 170.33 174.163 170.345 171.819 170.345L171.658 169.363ZM173.46 164.178C173.453 165.394 174.456 166.229 175.848 166.229C177.225 166.229 178.228 165.394 178.221 164.178C178.228 162.969 177.225 162.127 175.848 162.127C174.456 162.127 173.453 162.969 173.46 164.178ZM181.121 173.216V160.164H182.264V173.216H181.121ZM197.894 160.164V164.134H199.857V165.101H197.894V169.773H196.752V160.164H197.894ZM187.963 164.295C187.955 162.405 189.435 161.094 191.376 161.087C193.331 161.094 194.789 162.405 194.803 164.295C194.789 166.177 193.331 167.503 191.376 167.503C189.435 167.503 187.955 166.177 187.963 164.295ZM189.09 164.295C189.083 165.577 190.087 166.492 191.376 166.492C192.687 166.492 193.668 165.577 193.675 164.295C193.668 163.006 192.687 162.098 191.376 162.098C190.087 162.098 189.083 163.006 189.09 164.295ZM189.75 172.908V168.777H190.878V171.941H198.495V172.908H189.75ZM211.496 160.164V173.187H210.368V166.448H208.493V172.513H207.409V160.457H208.493V165.467H210.368V160.164H211.496ZM201.037 169.817V161.761H202.179V168.792C203.468 168.785 204.86 168.689 206.442 168.367L206.588 169.393C204.772 169.722 203.278 169.817 201.842 169.817H201.037ZM224.203 160.164V173.187H223.09V160.164H224.203ZM213.202 165.789C213.21 163.021 214.308 161.27 216 161.263C217.582 161.27 218.652 162.793 218.798 165.247H220.483V160.442H221.581V172.527H220.483V166.199H218.805C218.696 168.733 217.604 170.323 216 170.315C214.308 170.323 213.21 168.558 213.202 165.789ZM214.286 165.789C214.272 167.898 214.946 169.231 216 169.217C217.062 169.231 217.736 167.898 217.729 165.789C217.736 163.672 217.062 162.347 216 162.347C214.946 162.347 214.272 163.672 214.286 165.789ZM239.468 160.149V165.291H241.372V166.272H239.468V173.187H238.325V160.149H239.468ZM229.565 169.773V161.541H232.876V162.493H230.708V168.799C231.352 168.777 232.143 168.719 233.008 168.528L233.125 169.495C231.894 169.751 230.913 169.773 230.137 169.773H229.565ZM233.623 169.773V161.541H237.095V162.493H234.765V168.807C235.784 168.792 236.596 168.733 237.519 168.499L237.637 169.466C236.494 169.744 235.571 169.773 234.253 169.773H233.623ZM251.912 160.164V165.35H254.094V166.316H251.912V173.216H250.769V160.164H251.912ZM242.346 162.332V161.38H248.264V166.038H243.518V169.085C245.935 169.092 247.627 168.997 249.597 168.631L249.714 169.583C247.664 169.957 245.928 170.052 243.416 170.066H242.376V165.086H247.122V162.332H242.346ZM132.941 189.675H134.377L135.497 191.14C136.288 190.444 136.786 189.279 136.794 187.697C136.786 184.958 135.3 183.479 133.381 183.479C131.462 183.479 129.975 184.958 129.968 187.697C129.975 190.429 131.462 191.909 133.381 191.916C133.776 191.916 134.157 191.85 134.509 191.726L132.941 189.675ZM128.693 187.697C128.686 184.343 130.656 182.248 133.381 182.248C136.098 182.248 138.075 184.343 138.068 187.697C138.075 189.682 137.387 191.22 136.259 192.15L137.643 193.996H136.208L135.285 192.758C134.714 193.015 134.069 193.146 133.381 193.146C130.656 193.146 128.686 191.052 128.693 187.697ZM139.702 193V182.395H143.305C145.788 182.395 146.923 183.771 146.923 185.661C146.923 187.067 146.294 188.166 144.946 188.635L147.334 193H145.796L143.576 188.876C143.496 188.884 143.408 188.884 143.32 188.884H141.02V193H139.702ZM141.02 187.683H143.261C144.953 187.683 145.612 186.921 145.62 185.661C145.612 184.394 144.953 183.566 143.247 183.566H141.02V187.683ZM158.298 182.438V183.698C158.284 185.28 158.298 187.067 157.756 189.719L156.628 189.587C156.877 188.408 157.009 187.375 157.082 186.459L149.128 186.936L148.938 185.925L157.134 185.588C157.163 184.899 157.17 184.284 157.17 183.698V183.391H149.319V182.438H158.298ZM147.883 192.414V191.433H152.541V188.063H153.669V191.433H159.748V192.414H147.883ZM171.065 187.434V188.386H162.07V182.38H170.933V183.332H163.213V187.434H171.065ZM160.547 192.414V191.447H172.471V192.414H160.547ZM185.12 187.214V188.122H173.196V187.214H185.12ZM174.632 190.026V189.162H183.626V191.931H175.804V193.176H184.051V194.011H174.646V191.14H182.483V190.026H174.632ZM174.705 182.395V181.56H183.582V184.255H175.892V185.397H183.816V186.232H174.749V183.464H182.425V182.395H174.705ZM196.898 182.292V183.156H193.998C194.027 184.233 195.419 185.083 197.206 185.368L196.796 186.218C195.235 185.954 194.005 185.273 193.448 184.321C192.899 185.324 191.661 186.057 190.087 186.35L189.676 185.515C191.471 185.207 192.848 184.284 192.87 183.156H189.984V182.292H192.87V181.135H193.998V182.292H196.898ZM189.325 187.243C190.372 187.243 191.595 187.236 192.87 187.192V185.749H193.998V187.148C195.199 187.089 196.407 187.001 197.528 186.848L197.601 187.653C194.855 188.122 191.764 188.151 189.471 188.137L189.325 187.243ZM191.024 190.012V189.147H199.505V191.945H192.196V193.161H200.004V194.04H191.053V191.11H198.363V190.012H191.024ZM198.348 188.576V181.164H199.505V184.313H201.454V185.266H199.505V188.576H198.348ZM205.592 181.955C206.691 181.948 207.621 182.365 208.229 183.054H211.642V181.164H212.799V188.884H211.642V187.023H208.229C207.628 187.712 206.691 188.129 205.592 188.122C203.644 188.129 202.201 186.855 202.208 185.046C202.201 183.222 203.644 181.948 205.592 181.955ZM203.307 185.046C203.307 186.254 204.259 187.148 205.592 187.141C206.881 187.148 207.848 186.254 207.848 185.046C207.848 183.808 206.881 182.944 205.592 182.951C204.259 182.944 203.307 183.808 203.307 185.046ZM204.113 191.667C204.105 190.1 205.775 189.191 208.478 189.191C211.173 189.191 212.843 190.1 212.843 191.667C212.843 193.249 211.173 194.157 208.478 194.157C205.775 194.157 204.105 193.249 204.113 191.667ZM205.241 191.667C205.233 192.648 206.478 193.242 208.478 193.234C210.477 193.242 211.723 192.648 211.715 191.667C211.723 190.678 210.477 190.092 208.478 190.085C206.478 190.092 205.233 190.678 205.241 191.667ZM208.778 183.991C208.895 184.313 208.961 184.665 208.961 185.046C208.961 185.412 208.895 185.756 208.786 186.071H211.642V183.991H208.778ZM221.171 183.42V184.357H214.638V183.42H217.348V181.56H218.49V183.42H221.171ZM215.107 188.195C215.107 186.467 216.286 185.244 217.904 185.236C219.545 185.244 220.717 186.467 220.732 188.195C220.717 189.946 219.545 191.176 217.904 191.184C216.286 191.176 215.107 189.946 215.107 188.195ZM216.132 188.195C216.132 189.353 216.872 190.18 217.904 190.173C218.945 190.18 219.706 189.353 219.706 188.195C219.706 187.053 218.945 186.218 217.904 186.203C216.872 186.218 216.132 187.053 216.132 188.195ZM221.845 193.542V181.486H222.929V186.657H224.657V181.164H225.756V194.187H224.657V187.609H222.929V193.542H221.845ZM237.373 183.01C237.366 184.753 239.687 186.232 241.958 186.569L241.533 187.478C239.504 187.133 237.519 186.049 236.728 184.482C235.937 186.049 233.952 187.133 231.953 187.478L231.499 186.569C233.762 186.232 236.076 184.753 236.084 183.01V182.922H231.909V181.984H241.533V182.922H237.373V183.01ZM230.796 189.543V188.591H242.661V189.543H237.27V194.187H236.142V189.543H230.796ZM247.327 184.87C247.327 186.943 248.337 189.177 250.066 190.202L249.407 191.096C248.147 190.334 247.246 188.942 246.792 187.353C246.316 189.089 245.349 190.583 244.046 191.374L243.313 190.51C245.115 189.455 246.213 187.148 246.213 184.914V182.395H247.327V184.87ZM248.63 186.818V185.837H250.842V181.442H251.926V193.527H250.842V186.818H248.63ZM253.508 194.187V181.164H254.622V194.187H253.508ZM268.047 191.55V192.517H256.123V191.55H259.082V188.042C257.969 187.463 257.295 186.525 257.295 185.339C257.295 183.325 259.273 181.999 262.056 181.984C264.839 181.999 266.817 183.325 266.817 185.339C266.817 186.503 266.165 187.426 265.088 188.005V191.55H268.047ZM258.409 185.339C258.401 186.796 259.917 187.771 262.056 187.771C264.173 187.771 265.704 186.796 265.704 185.339C265.704 183.881 264.173 182.922 262.056 182.937C259.917 182.922 258.401 183.881 258.409 185.339ZM260.21 191.55H263.931V188.452C263.367 188.598 262.737 188.679 262.056 188.679C261.39 188.679 260.767 188.605 260.21 188.459V191.55ZM270.164 193.088C269.652 193.081 269.212 192.656 269.227 192.136C269.212 191.623 269.652 191.198 270.164 191.198C270.684 191.198 271.109 191.623 271.102 192.136C271.109 192.656 270.684 193.081 270.164 193.088Z" fill="#707070"/>
<path d="M141.25 274.25V258.25H157.75" stroke="#CECECE" stroke-width="2"/>
<path d="M242.75 258L258.75 258L258.75 274.5" stroke="#CECECE" stroke-width="2"/>
<path d="M141.25 359.5V375.5H157.75" stroke="#CECECE" stroke-width="2"/>
<path d="M242.75 375.75L258.75 375.75L258.75 359.25" stroke="#CECECE" stroke-width="2"/>
<path d="M173.25 303.333V290H186.583V295.333H178.583V303.333H173.25ZM173.25 343.333V330H178.583V338H186.583V343.333H173.25ZM213.25 343.333V338H221.25V330H226.583V343.333H213.25ZM221.25 303.333V295.333H213.25V290H226.583V303.333H221.25ZM214.583 331.333H218.583V335.333H214.583V331.333ZM214.583 323.333H218.583V327.333H214.583V323.333ZM210.583 327.333H214.583V331.333H210.583V327.333ZM206.583 331.333H210.583V335.333H206.583V331.333ZM202.583 327.333H206.583V331.333H202.583V327.333ZM210.583 319.333H214.583V323.333H210.583V319.333ZM206.583 323.333H210.583V327.333H206.583V323.333ZM202.583 319.333H206.583V323.333H202.583V319.333ZM218.583 298V314H202.583V298H218.583ZM197.25 319.333V335.333H181.25V319.333H197.25ZM197.25 298V314H181.25V298H197.25ZM193.25 331.333V323.333H185.25V331.333H193.25ZM193.25 310V302H185.25V310H193.25ZM214.583 310V302H206.583V310H214.583Z" fill="#5F6368"/>
<line x1="142.25" y1="316.5" x2="258.25" y2="316.5" stroke="#0077FA" stroke-width="3"/>
<rect width="400" height="900" fill="black" fill-opacity="0.5"/>
</svg>
