<svg width="400" height="128" viewBox="0 0 400 128" fill="none" xmlns="http://www.w3.org/2000/svg">
<path d="M174.043 64.0703V66.5586H183.86V69.0195H161.274V66.5586H171.035V64.0703H174.043ZM181.809 57.3984V59.7227H174.727C175.301 61.4863 178.227 62.9766 182.766 63.25L181.809 65.5195C177.229 65.1641 173.852 63.6055 172.567 61.2539C171.268 63.6055 167.877 65.1641 163.324 65.5195L162.34 63.25C166.797 62.9902 169.75 61.4727 170.379 59.7227H163.352V57.3984H181.809ZM181.727 71.7812V74.0781H163.352V71.7812H171.008V69.7852H174.07V71.7812H181.727ZM172.512 74.9805C177.297 74.9805 180.086 76.1016 180.086 78.2344C180.086 80.3945 177.297 81.5156 172.512 81.5156C167.699 81.5156 164.992 80.3945 164.992 78.2344C164.992 76.1016 167.699 74.9805 172.512 74.9805ZM172.512 77.0312C169.641 77.0312 168.11 77.3867 168.11 78.2344C168.11 79.082 169.641 79.4922 172.512 79.4922C175.438 79.4922 176.914 79.082 176.942 78.2344C176.914 77.3867 175.438 77.0312 172.512 77.0312ZM191.585 58.5195C195.303 58.5195 197.983 61.9102 198.01 67.2422C197.983 72.6289 195.303 75.9922 191.585 75.9922C187.839 75.9922 185.132 72.6289 185.159 67.2422C185.132 61.9102 187.839 58.5195 191.585 58.5195ZM191.585 61.2539C189.507 61.2539 188.085 63.4688 188.085 67.2422C188.085 71.043 189.507 73.2578 191.585 73.2578C193.69 73.2578 195.085 71.043 195.085 67.2422C195.085 63.4688 193.69 61.2539 191.585 61.2539ZM204.3 56.7148V66.2031H208.1V68.7734H204.3V81.4336H201.264V56.7148H204.3ZM231.165 75.9375V78.4258H208.579V75.9375H213.802V69.6758C211.833 68.5547 210.644 66.791 210.658 64.5898C210.63 60.6523 214.513 58.0547 219.818 58.0547C225.15 58.0547 229.033 60.6523 229.033 64.5898C229.033 66.75 227.884 68.4863 225.97 69.6211V75.9375H231.165ZM219.818 60.4609C216.126 60.4609 213.611 62.0195 213.638 64.5898C213.611 67.1328 216.126 68.7188 219.818 68.7188C223.509 68.7188 226.052 67.1328 226.052 64.5898C226.052 62.0195 223.509 60.4609 219.818 60.4609ZM216.81 75.9375H222.88V70.7695C221.937 70.9883 220.911 71.0977 219.818 71.0977C218.751 71.0977 217.74 70.9883 216.81 70.7969V75.9375ZM237.305 59.2031L237.004 73.1758H233.914L233.586 59.2031H237.305ZM235.473 79.2188C234.297 79.2188 233.34 78.2617 233.34 77.0859C233.34 75.9375 234.297 74.9805 235.473 74.9805C236.594 74.9805 237.578 75.9375 237.578 77.0859C237.578 78.2617 236.594 79.2188 235.473 79.2188ZM93.2877 95.7148V120.461H90.2252V95.7148H93.2877ZM79.9713 97.5195C83.6901 97.5195 86.3971 100.91 86.4245 106.242C86.3971 111.629 83.6901 114.992 79.9713 114.992C76.2252 114.992 73.5182 111.629 73.5182 106.242C73.5182 100.91 76.2252 97.5195 79.9713 97.5195ZM79.9713 100.254C77.8659 100.254 76.444 102.469 76.444 106.242C76.444 110.043 77.8659 112.258 79.9713 112.258C82.0495 112.258 83.4713 110.043 83.4713 106.242C83.4713 102.469 82.0495 100.254 79.9713 100.254ZM117.638 95.7148V120.434H114.739V95.7148H117.638ZM112.607 96.1797V119.23H109.736V106.789H106.181V104.328H109.736V96.1797H112.607ZM103.993 102.469C103.993 106.652 105.497 110.836 109.025 112.859L107.22 115.102C104.937 113.734 103.419 111.383 102.571 108.566C101.696 111.615 100.124 114.213 97.7863 115.676L95.927 113.406C99.509 111.246 101.068 106.762 101.068 102.469V100.828H96.7746V98.3672H107.986V100.828H103.993V102.469ZM148.619 108.047V110.48H126.088V108.047H148.619ZM145.858 112.613V120.434H142.823V115.02H128.576V112.613H145.858ZM138.83 95.7695V98.0938H146.405V100.473H139.049C139.377 102.578 142.276 104.301 147.498 104.656L146.541 106.98C142.139 106.611 138.871 105.23 137.326 103.07C135.782 105.23 132.5 106.611 128.112 106.98L127.155 104.656C132.323 104.301 135.248 102.578 135.604 100.473H128.303V98.0938H135.823V95.7695H138.83ZM162.415 97.793V99.7617H167.391V95.7422H170.427V113.734H167.391V107.5H162.415V109.633H150.794V97.793H162.415ZM153.829 100.199V107.254H159.407V100.199H153.829ZM170.974 117.48V119.941H154.13V112.066H157.22V117.48H170.974ZM162.415 105.066H167.391V102.25H162.415V105.066ZM184.605 96.0977C190.238 96.0977 193.492 97.6016 193.519 100.336C193.492 103.098 190.238 104.574 184.605 104.602C178.972 104.574 175.691 103.098 175.691 100.336C175.691 97.6016 178.972 96.0977 184.605 96.0977ZM184.605 98.3398C180.831 98.3398 178.863 99.0508 178.89 100.336C178.863 101.703 180.831 102.332 184.605 102.332C188.433 102.332 190.374 101.703 190.374 100.336C190.374 99.0508 188.433 98.3398 184.605 98.3398ZM195.898 105.914V108.348H173.367V105.914H195.898ZM193.081 110.016V116.059H179.027V117.891H193.765V120.215H176.046V113.898H190.101V112.258H176.019V110.016H193.081ZM222.669 95.7422V102.934H226.004V105.449H222.669V112.449H219.633V95.7422H222.669ZM202.872 109.496C204.731 109.496 206.878 109.482 209.106 109.414V107.91C206.358 107.568 204.622 106.242 204.622 104.301C204.622 102.031 207.001 100.609 210.583 100.637C214.192 100.609 216.544 102.031 216.544 104.301C216.544 106.229 214.848 107.541 212.141 107.883V109.305C214.247 109.209 216.366 109.045 218.348 108.785L218.594 110.891C213.317 111.82 207.547 111.875 203.2 111.875L202.872 109.496ZM222.669 113.516V120.434H219.633V115.895H205.989V113.516H222.669ZM217.692 97.6836V99.9258H203.501V97.6836H209.106V95.5234H212.141V97.6836H217.692ZM210.583 102.688C208.669 102.66 207.52 103.234 207.547 104.301C207.52 105.312 208.669 105.969 210.583 105.941C212.497 105.969 213.645 105.312 213.645 104.301C213.645 103.234 212.497 102.66 210.583 102.688ZM247.319 95.7422V113.598H244.257V95.7422H247.319ZM248.003 117.48V119.941H230.968V111.793H234.03V117.48H248.003ZM233.839 97.3555C237.585 97.3555 240.484 99.9531 240.484 103.535C240.484 107.199 237.585 109.742 233.839 109.742C230.066 109.742 227.167 107.199 227.167 103.535C227.167 99.9531 230.066 97.3555 233.839 97.3555ZM233.839 100.008C231.734 100.008 230.12 101.402 230.148 103.535C230.12 105.723 231.734 107.09 233.839 107.09C235.89 107.09 237.503 105.723 237.503 103.535C237.503 101.402 235.89 100.008 233.839 100.008ZM269.865 95.6602V101.238H273.338V103.699H269.865V109.141H266.83V95.6602H269.865ZM269.865 110.234V116.195H256.74V117.945H270.631V120.215H253.732V114.09H266.83V112.449H253.705V110.234H269.865ZM265.052 97.7109V100.035H250.396V97.7109H256.22V95.5234H259.256V97.7109H265.052ZM257.724 100.801C261.388 100.828 263.74 102.387 263.767 104.848C263.74 107.391 261.388 108.895 257.724 108.895C254.06 108.895 251.654 107.391 251.654 104.848C251.654 102.387 254.06 100.828 257.724 100.801ZM257.724 102.988C255.81 102.988 254.607 103.672 254.607 104.848C254.607 106.051 255.81 106.707 257.724 106.707C259.638 106.707 260.869 106.051 260.869 104.848C260.869 103.672 259.638 102.988 257.724 102.988ZM295.336 95.7148V120.434H292.438V95.7148H295.336ZM290.086 96.3164V119.258H287.215V107.883H282.813C281.364 110.727 279.039 113.188 275.539 115.211L273.817 113.051C278.944 110.029 281.281 106.16 281.746 101.184H275.074V98.7227H284.754C284.754 101.115 284.467 103.357 283.797 105.449H287.215V96.3164H290.086ZM320.233 114.938V117.426H297.647V114.938H302.87V108.676C300.901 107.555 299.712 105.791 299.725 103.59C299.698 99.6523 303.581 97.0547 308.886 97.0547C314.218 97.0547 318.1 99.6523 318.1 103.59C318.1 105.75 316.952 107.486 315.038 108.621V114.938H320.233ZM308.886 99.4609C305.194 99.4609 302.679 101.02 302.706 103.59C302.679 106.133 305.194 107.719 308.886 107.719C312.577 107.719 315.12 106.133 315.12 103.59C315.12 101.02 312.577 99.4609 308.886 99.4609ZM305.878 114.938H311.948V109.77C311.005 109.988 309.979 110.098 308.886 110.098C307.819 110.098 306.807 109.988 305.878 109.797V114.938ZM324.294 118.219C323.119 118.219 322.161 117.262 322.161 116.086C322.161 114.938 323.119 113.98 324.294 113.98C325.415 113.98 326.4 114.938 326.4 116.086C326.4 117.262 325.415 118.219 324.294 118.219Z" fill="#0077FA"/>
</svg>
