<svg width="400" height="86" viewBox="0 0 400 86" fill="none" xmlns="http://www.w3.org/2000/svg">
<rect width="400" height="86" fill="white"/>
<rect x="20" width="360" height="56" rx="8" fill="#0077FA"/>
<path d="M196.973 19.7617V24.4375H199.223V25.8086H196.973V30.3613H195.303V19.7617H196.973ZM184.475 28.6035C185.696 28.6035 187.111 28.6035 188.588 28.5684V27.5049C186.795 27.3027 185.652 26.459 185.67 25.1934C185.652 23.752 187.155 22.8555 189.414 22.873C191.673 22.8555 193.149 23.752 193.158 25.1934C193.149 26.4502 192.033 27.2939 190.258 27.5049V28.5068C191.664 28.4365 193.088 28.3223 194.406 28.1289L194.547 29.3242C191.163 29.9131 187.428 29.9395 184.65 29.9395L184.475 28.6035ZM184.879 22.3457V21.0977H188.588V19.6211H190.258V21.0977H193.967V22.3457H184.879ZM186.443 32.4004V31.0996H196.973V35.4941H195.303V32.4004H186.443ZM187.252 25.1934C187.252 25.9316 188.069 26.415 189.414 26.4062C190.741 26.415 191.567 25.9316 191.559 25.1934C191.567 24.4375 190.741 23.998 189.414 24.0156C188.069 23.998 187.252 24.4375 187.252 25.1934ZM213.197 19.7617V31.2051H211.527V19.7617H213.197ZM200.453 24.7188C200.462 22.4424 202.272 20.8252 204.654 20.8164C207.027 20.8252 208.838 22.4424 208.838 24.7188C208.838 27.0303 207.027 28.6387 204.654 28.6387C202.272 28.6387 200.462 27.0303 200.453 24.7188ZM202.088 24.7188C202.079 26.2041 203.187 27.1797 204.654 27.1797C206.096 27.1797 207.203 26.2041 207.203 24.7188C207.203 23.2686 206.096 22.2754 204.654 22.2754C203.187 22.2754 202.079 23.2686 202.088 24.7188ZM202.896 35.1602V30.0449H204.584V33.8066H213.672V35.1602H202.896Z" fill="white"/>
</svg>
