<svg width="400" height="89" viewBox="0 0 400 89" fill="none" xmlns="http://www.w3.org/2000/svg">
<path d="M174.043 64.0703V66.5586H183.86V69.0195H161.274V66.5586H171.035V64.0703H174.043ZM162.34 63.25C166.797 62.9766 169.75 61.4727 170.365 59.7227H163.352V57.3984H181.809V59.7227H174.727C175.315 61.4863 178.24 62.9766 182.766 63.25L181.809 65.5195C177.229 65.1641 173.852 63.6191 172.567 61.2676C171.268 63.6055 167.891 65.1641 163.324 65.5195L162.34 63.25ZM163.352 74.0781V71.7812H171.008V69.7852H174.07V71.7812H181.727V74.0781H163.352ZM164.992 78.2344C164.979 76.1152 167.699 74.9805 172.512 74.9805C177.297 74.9805 180.086 76.1152 180.086 78.2344C180.086 80.3945 177.297 81.5293 172.512 81.5156C167.699 81.5293 164.979 80.3945 164.992 78.2344ZM168.11 78.2344C168.096 79.0684 169.654 79.4922 172.512 79.4922C175.424 79.4922 176.914 79.0684 176.942 78.2344C176.914 77.3867 175.424 77.0312 172.512 77.0312C169.654 77.0312 168.096 77.3867 168.11 78.2344ZM191.585 58.5195C195.303 58.5195 197.983 61.9102 198.01 67.2422C197.983 72.6152 195.303 75.9922 191.585 75.9922C187.825 75.9922 185.145 72.6152 185.159 67.2422C185.145 61.9102 187.825 58.5195 191.585 58.5195ZM188.085 67.2422C188.071 71.043 189.507 73.2441 191.585 73.2578C193.676 73.2441 195.071 71.043 195.085 67.2422C195.071 63.4688 193.676 61.2539 191.585 61.2539C189.507 61.2539 188.071 63.4688 188.085 67.2422ZM201.264 81.4336V56.7148H204.3V66.2031H208.1V68.7734H204.3V81.4336H201.264ZM231.165 75.9375V78.4258H208.579V75.9375H213.802V69.6895C211.833 68.5547 210.644 66.7773 210.658 64.5898C210.644 60.6523 214.499 58.0547 219.818 58.0547C225.163 58.0547 229.046 60.6523 229.033 64.5898C229.046 66.75 227.884 68.4863 225.97 69.6211V75.9375H231.165ZM213.638 64.5898C213.624 67.1191 216.126 68.7324 219.818 68.7188C223.495 68.7324 226.052 67.1191 226.052 64.5898C226.052 62.0195 223.495 60.4473 219.818 60.4609C216.126 60.4473 213.624 62.0195 213.638 64.5898ZM216.81 75.9375H222.88V70.7832C221.937 70.9883 220.911 71.0977 219.818 71.0977C218.751 71.0977 217.74 70.9883 216.81 70.7969V75.9375ZM237.305 59.2031L237.004 73.1758H233.914L233.586 59.2031H237.305ZM233.34 77.0859C233.326 75.9375 234.297 74.9941 235.473 74.9805C236.607 74.9941 237.578 75.9375 237.578 77.0859C237.578 78.2617 236.607 79.2188 235.473 79.2188C234.297 79.2188 233.326 78.2617 233.34 77.0859Z" fill="#0077FA"/>
</svg>
