<svg width="400" height="727" viewBox="0 0 400 727" fill="none" xmlns="http://www.w3.org/2000/svg">
<rect width="400" height="727" fill="white"/>
<rect width="400" height="58" fill="white"/>
<path d="M374.001 30.4008L369.101 35.3008C368.917 35.4841 368.684 35.5758 368.401 35.5758C368.117 35.5758 367.884 35.4841 367.701 35.3008C367.517 35.1174 367.426 34.8841 367.426 34.6008C367.426 34.3174 367.517 34.0841 367.701 33.9008L372.601 29.0008L367.701 24.1008C367.517 23.9174 367.426 23.6841 367.426 23.4008C367.426 23.1174 367.517 22.8841 367.701 22.7008C367.884 22.5174 368.117 22.4258 368.401 22.4258C368.684 22.4258 368.917 22.5174 369.101 22.7008L374.001 27.6008L378.901 22.7008C379.084 22.5174 379.317 22.4258 379.601 22.4258C379.884 22.4258 380.117 22.5174 380.301 22.7008C380.484 22.8841 380.576 23.1174 380.576 23.4008C380.576 23.6841 380.484 23.9174 380.301 24.1008L375.401 29.0008L380.301 33.9008C380.484 34.0841 380.576 34.3174 380.576 34.6008C380.576 34.8841 380.484 35.1174 380.301 35.3008C380.117 35.4841 379.884 35.5758 379.601 35.5758C379.317 35.5758 379.084 35.4841 378.901 35.3008L374.001 30.4008Z" fill="black"/>
<path d="M115.077 92.3223V93.751H108.324V99.5586H106.598V93.751H99.9182V92.3223H115.077ZM113.649 83.9355V85.3457H108.509C108.537 87.4053 111.097 89.2422 114.242 89.6689L113.593 91.0605C110.866 90.6338 108.509 89.2886 107.507 87.3867C106.477 89.2886 104.13 90.6338 101.44 91.0605L100.772 89.6689C103.88 89.2422 106.44 87.4053 106.505 85.3457H101.328V83.9355H113.649ZM124.736 84.3623V92.1738H116.831V84.3623H124.736ZM118.557 85.791V90.7637H122.991V85.791H118.557ZM129.745 82.9707V94.8828H127.983V82.9707H129.745ZM130.246 97.6289V99.0762H118.872V93.7324H120.653V97.6289H130.246ZM147.178 90.7637V92.2109H132V90.7637H147.178ZM145.415 87.8877V89.3164H133.893V83.5459H145.304V84.9932H135.637V87.8877H145.415ZM139.57 93.5098C143.151 93.5098 145.304 94.6045 145.304 96.5342C145.304 98.4639 143.151 99.5586 139.57 99.54C135.971 99.5586 133.8 98.4639 133.8 96.5342C133.8 94.6045 135.971 93.5098 139.57 93.5098ZM139.57 94.8643C137.028 94.8828 135.581 95.4766 135.581 96.5342C135.581 97.5918 137.028 98.1855 139.57 98.1855C142.075 98.1855 143.541 97.5918 143.541 96.5342C143.541 95.4766 142.075 94.8828 139.57 94.8643ZM163.237 92.0254V93.4541H148.022V92.0254H154.758V90.4482H149.971V86.2178H159.563V84.7334H149.934V83.3418H161.326V87.5166H151.715V89.0752H161.66V90.4482H156.502V92.0254H163.237ZM161.419 94.623V99.4473H159.638V96.0332H149.729V94.623H161.419ZM179.241 90.7822V92.2109H164.082V90.7822H179.241ZM171.652 93.4912C175.233 93.4912 177.386 94.6045 177.386 96.5342C177.386 98.4639 175.233 99.5586 171.652 99.54C168.053 99.5586 165.882 98.4639 165.882 96.5342C165.882 94.6045 168.053 93.4912 171.652 93.4912ZM171.652 94.8643C169.11 94.8828 167.663 95.458 167.663 96.5342C167.663 97.5918 169.11 98.1484 171.652 98.1484C174.157 98.1484 175.623 97.5918 175.623 96.5342C175.623 95.458 174.157 94.8828 171.652 94.8643ZM177.887 83.7686V85.2158H172.84C173.034 86.8301 175.391 88.2031 178.462 88.5186L177.831 89.9102C174.955 89.5762 172.571 88.3608 171.671 86.6074C170.743 88.3608 168.368 89.5762 165.492 89.9102L164.88 88.5186C167.895 88.2031 170.27 86.8394 170.483 85.2158H165.473V83.7686H177.887ZM190.152 87.1826C190.133 90.1328 191.84 93.1387 194.327 94.3447L193.232 95.7549C191.423 94.8179 190.022 92.9531 189.298 90.7266C188.547 93.1016 187.09 95.0869 185.198 96.0703L184.103 94.6416C186.664 93.417 188.389 90.2256 188.389 87.1826V84.3438H190.152V87.1826ZM197.333 82.9521V89.5762H200.004V91.0791H197.333V99.5771H195.57V82.9521H197.333ZM206.582 86.4219C206.582 88.5742 208.178 90.5967 210.739 91.4131L209.83 92.7861C207.918 92.1553 206.471 90.8472 205.729 89.1865C204.977 90.9956 203.502 92.4243 201.517 93.1201L200.608 91.7285C203.187 90.8564 204.783 88.7041 204.801 86.4219V85.6982H201.072V84.2695H210.238V85.6982H206.582V86.4219ZM214.208 82.9707V95.1055H212.446V82.9707H214.208ZM214.709 97.7959V99.2246H203.335V93.9551H205.117V97.7959H214.709ZM225.722 84.7334V85.7539C225.722 87.1455 225.722 89.2979 225.24 92.2666L223.495 92.1367C223.913 89.4741 223.959 87.5537 223.978 86.1621H217.224V84.7334H225.722ZM221.454 89.4834V94.4561C223.226 94.4004 225.026 94.2798 226.687 94.0664L226.78 95.3838C223.31 95.9404 219.451 96.0146 216.5 95.9961L216.296 94.5674C217.335 94.5581 218.495 94.5488 219.71 94.5117V89.4834H221.454ZM229.414 82.9521V89.8174H231.956V91.3203H229.414V99.5771H227.633V82.9521H229.414ZM250.53 82.9521V99.6143H248.768V82.9521H250.53ZM239.453 84.3438V88.6113H243.925V84.3438H245.669V95.625H237.691V84.3438H239.453ZM239.453 94.1777H243.925V90.0029H239.453V94.1777ZM266.311 84.5479V86.3291C266.293 88.4258 266.293 90.6152 265.699 93.7881L263.974 93.6025C264.549 90.5967 264.549 88.3701 264.549 86.3291V85.9766H254.362V84.5479H266.311ZM267.963 95.8662V97.332H252.804V95.8662H256.385V90.4854H258.147V95.8662H260.541V90.4854H262.267V95.8662H267.963ZM281.796 82.9521V89.6875H284.468V91.1533H281.796V99.5771H280.052V82.9521H281.796ZM278.604 85.5498V86.9971H268.752V85.5498H272.852V83.1748H274.615V85.5498H278.604ZM273.743 88.2217C276.118 88.2217 277.862 89.8174 277.881 92.0811C277.862 94.3633 276.118 95.9404 273.743 95.959C271.349 95.9404 269.605 94.3633 269.605 92.0811C269.605 89.8174 271.349 88.2217 273.743 88.2217ZM273.743 89.6689C272.333 89.6689 271.275 90.6523 271.294 92.0811C271.275 93.5283 272.333 94.4932 273.743 94.4746C275.153 94.4932 276.192 93.5283 276.192 92.0811C276.192 90.6523 275.153 89.6689 273.743 89.6689ZM289.394 84.1953C290.906 84.1953 292.159 85.0674 292.901 86.5703H297.002V82.9521H298.746V99.6143H297.002V93.2314H293.012C292.298 94.9014 290.99 95.8662 289.394 95.8662C286.908 95.8662 285.164 93.6025 285.182 90.0215C285.164 86.459 286.908 84.1953 289.394 84.1953ZM289.394 85.7725C287.891 85.7725 286.852 87.4053 286.852 90.0215C286.852 92.6562 287.891 94.2891 289.394 94.2891C290.897 94.2891 291.936 92.6562 291.936 90.0215C291.936 87.4053 290.897 85.7725 289.394 85.7725ZM293.402 88.0176C293.523 88.6299 293.606 89.2979 293.606 90.0215C293.606 90.6523 293.551 91.2368 293.439 91.7842H297.002V88.0176H293.402ZM117.374 110.583V112.55H125.074V110.583H126.837V117.3H122.087V118.933H128.803V120.38H113.644V118.933H120.342V117.3H115.63V110.583H117.374ZM117.374 115.871H125.074V113.923H117.374V115.871ZM127.096 124.796V126.225H115.555V121.567H117.337V124.796H127.096ZM143.471 109.971V122.05H141.709V109.971H143.471ZM143.972 124.796V126.225H132.598V120.825H134.379V124.796H143.972ZM134.454 111.084C136.959 111.084 138.87 112.791 138.87 115.203C138.87 117.652 136.959 119.341 134.454 119.341C131.949 119.341 130.019 117.652 130.019 115.203C130.019 112.791 131.949 111.084 134.454 111.084ZM134.454 112.624C132.895 112.624 131.745 113.682 131.745 115.203C131.745 116.762 132.895 117.801 134.454 117.801C135.975 117.801 137.144 116.762 137.144 115.203C137.144 113.682 135.975 112.624 134.454 112.624ZM154.494 111.195C156.006 111.195 157.258 112.067 158 113.57H162.101V109.952H163.845V126.614H162.101V120.231H158.112C157.397 121.901 156.089 122.866 154.494 122.866C152.007 122.866 150.263 120.603 150.282 117.021C150.263 113.459 152.007 111.195 154.494 111.195ZM154.494 112.772C152.991 112.772 151.952 114.405 151.952 117.021C151.952 119.656 152.991 121.289 154.494 121.289C155.996 121.289 157.036 119.656 157.036 117.021C157.036 114.405 155.996 112.772 154.494 112.772ZM158.501 115.018C158.622 115.63 158.705 116.298 158.705 117.021C158.705 117.652 158.65 118.237 158.538 118.784H162.101V115.018H158.501ZM181.222 119.73V121.122H174.431V126.577H172.705V121.122H166.007V119.73H181.222ZM169.644 110.62V112.791H177.548V110.62H179.311V117.838H167.9V110.62H169.644ZM169.644 116.428H177.548V114.201H169.644V116.428ZM197.263 117.578V118.933H182.048V117.578H197.263ZM195.389 120.102V123.757H185.629V125.13H195.908V126.373H183.866V122.588H193.645V121.363H183.848V120.102H195.389ZM195.352 110.379V113.979H185.74V115.24H195.63V116.483H183.996V112.81H193.589V111.622H183.959V110.379H195.352ZM215.447 109.971V114.906H217.822V116.354H215.447V121.159H213.684V109.971H215.447ZM202.255 119.304C203.544 119.304 205.038 119.304 206.597 119.248V118.135C204.704 117.94 203.498 117.049 203.516 115.704C203.498 114.183 205.075 113.236 207.469 113.255C209.844 113.236 211.421 114.183 211.421 115.704C211.421 117.04 210.233 117.931 208.359 118.135V119.192C209.844 119.118 211.347 118.998 212.738 118.803L212.887 120.064C209.306 120.695 205.372 120.714 202.44 120.714L202.255 119.304ZM215.447 121.938V126.577H213.684V123.312H204.333V121.938H215.447ZM212.274 111.381V112.698H202.682V111.381H206.597V109.822H208.359V111.381H212.274ZM207.469 114.461C206.04 114.442 205.186 114.906 205.186 115.704C205.186 116.483 206.04 116.984 207.469 116.984C208.879 116.984 209.732 116.483 209.732 115.704C209.732 114.906 208.879 114.442 207.469 114.461ZM232.193 109.971V122.05H230.43V109.971H232.193ZM232.694 124.796V126.225H221.32V120.825H223.101V124.796H232.694ZM223.176 111.084C225.68 111.084 227.592 112.791 227.592 115.203C227.592 117.652 225.68 119.341 223.176 119.341C220.671 119.341 218.741 117.652 218.741 115.203C218.741 112.791 220.671 111.084 223.176 111.084ZM223.176 112.624C221.617 112.624 220.467 113.682 220.467 115.203C220.467 116.762 221.617 117.801 223.176 117.801C224.697 117.801 225.866 116.762 225.866 115.203C225.866 113.682 224.697 112.624 223.176 112.624ZM247.51 109.952V114.127H249.923V115.611H247.51V119.638H245.748V109.952H247.51ZM238.623 120.324V121.938H245.748V120.324H247.51V126.373H236.879V120.324H238.623ZM238.623 124.963H245.748V123.312H238.623V124.963ZM244.375 111.585V112.995H234.466V111.585H238.548V109.804H240.311V111.585H244.375ZM239.421 113.682C241.814 113.682 243.447 114.813 243.447 116.595C243.447 118.357 241.814 119.526 239.421 119.508C236.99 119.526 235.376 118.357 235.376 116.595C235.376 114.813 236.99 113.682 239.421 113.682ZM239.421 114.999C238.01 114.98 237.064 115.63 237.083 116.595C237.064 117.578 238.01 118.209 239.421 118.209C240.831 118.209 241.777 117.578 241.796 116.595C241.777 115.63 240.831 114.98 239.421 114.999ZM264.293 109.952V126.577H262.531V109.952H264.293ZM253.253 111.566V120.825C255.675 120.807 258.226 120.612 260.898 120.064L261.139 121.549C258.189 122.143 255.517 122.347 252.901 122.347H251.509V111.566H253.253ZM279.481 109.952V116.391H282.153V117.838H279.481V126.614H277.718V109.952H279.481ZM275.009 111.548V112.977H268.997V121.011C271.79 121.001 273.887 120.881 276.252 120.454L276.475 121.938C273.877 122.402 271.669 122.495 268.571 122.477H267.235V111.548H275.009ZM284.463 125.13C283.74 125.13 283.127 124.536 283.146 123.812C283.127 123.089 283.74 122.495 284.463 122.495C285.168 122.495 285.781 123.089 285.781 123.812C285.781 124.536 285.168 125.13 284.463 125.13Z" fill="#111827"/>
<path d="M89.7852 325.535C89.7852 325.535 85.9431 285.735 123.798 275.921C123.798 275.921 160.575 264.425 176.307 277.533C176.307 277.533 191.868 285.871 191.366 306.14C191.366 306.14 191.163 315.315 182.762 319.215C182.762 319.215 176.173 340.189 128.375 338.104C128.375 338.104 98.6612 347.047 89.7852 325.531V325.535Z" fill="#F7F7F7"/>
<path d="M126.262 248.914L123.709 276.925C123.709 276.925 126.683 291.065 147.962 288.744C147.962 288.744 155.071 288.088 155.979 281.03L156.097 252.435L126.262 248.917V248.914Z" fill="#FFB1B3"/>
<mask id="mask0_916_852" style="mask-type:luminance" maskUnits="userSpaceOnUse" x="123" y="248" width="34" height="41">
<path d="M126.264 248.912L123.711 276.923C123.711 276.923 126.685 291.063 147.964 288.742C147.964 288.742 155.073 288.086 155.981 281.028L156.099 252.433L126.264 248.915V248.912Z" fill="white"/>
</mask>
<g mask="url(#mask0_916_852)">
<path d="M124.393 252.845C124.393 252.845 140.662 284.643 151.728 288.255L154.711 288.676C154.711 288.676 155.791 287.565 155.861 280.641L156.533 252.285L124.393 252.842V252.845Z" fill="#FF9AA2"/>
</g>
<path d="M155.848 197.846C155.848 197.846 177.378 210.161 165.029 233.825L155.848 197.846Z" fill="#111827"/>
<path d="M165.289 257.182C163.901 262.065 159.484 265.514 154.41 265.744C147.098 266.07 128.793 264.071 122.879 251.9L122.482 249.955C118.262 250.288 110.412 237.836 109.153 235.522C107.889 233.207 110.076 231.837 110.076 231.837C110.076 231.837 100.416 200.786 125.368 194.209C125.368 194.209 153.349 185.959 163.994 214.097C164.354 215.041 164.605 216.024 164.766 217.022C164.841 217.476 164.929 218.027 165.02 218.662C165.099 219.201 165.189 219.809 165.277 220.465C166.469 228.93 168.333 246.464 165.283 257.179L165.289 257.182Z" fill="#FFB1B3"/>
<path d="M151.833 194.276C146.624 189.133 127.574 190.374 127.574 190.374C114.532 191.699 110.357 199.377 109.026 204.456C108.391 206.876 107.308 209.139 106.004 211.275C99.9567 221.164 109.728 237.555 109.728 237.555C110.161 248.173 125.62 255.994 125.62 255.994L123.786 248.89C121.191 248.24 117.684 242.011 117.684 242.011C116.511 239.803 116.544 237.709 116.843 236.215C117.128 234.787 118.395 233.755 119.851 233.813C126.228 234.064 127.477 241.521 127.477 241.521L130.248 243.484L130.203 240.096C130.182 238.369 130.351 236.635 130.814 234.971C131.864 231.199 131.419 225.158 130.989 221.449C130.989 221.449 131.129 219.394 131.794 217.464C132.569 215.543 134.804 213.934 135.131 213.71C140.18 211.021 147.816 210.016 151.727 209.668C153.022 209.553 154.317 209.602 155.597 209.814C156.108 209.898 156.622 209.974 157.136 210.034C158.964 210.252 162.189 212.793 164.772 217.026C163.97 202.26 157.046 199.419 151.836 194.276H151.833Z" fill="#111827"/>
<path d="M152.324 254.876C152.324 254.876 158.163 256.038 162.807 251.924" stroke="#D05F6B" stroke-width="1.21009" stroke-miterlimit="10" stroke-linecap="round"/>
<path d="M156.689 231.094L156.31 233.698C156.223 234.304 156.392 234.918 156.779 235.39L159.983 239.298C160.655 240.324 160.503 241.685 159.623 242.538L156.035 245.3" stroke="#D05F6B" stroke-width="1.21009" stroke-miterlimit="10" stroke-linecap="round"/>
<path d="M141.387 233.505C141.387 233.505 144.787 229.896 149.31 231.559" stroke="#D05F6B" stroke-width="1.21009" stroke-miterlimit="10" stroke-linecap="round"/>
<path d="M158.838 227.234C158.838 227.234 161.104 224.415 164.795 225.195" stroke="#D05F6B" stroke-width="1.21009" stroke-miterlimit="10" stroke-linecap="round"/>
<path d="M149.738 239.005C149.835 237.407 149.271 236.073 148.478 236.025C147.686 235.977 146.966 237.234 146.87 238.832C146.773 240.429 147.338 241.763 148.13 241.811C148.922 241.859 149.642 240.602 149.738 239.005Z" fill="#282828"/>
<path d="M163.826 234.046C163.923 232.448 163.359 231.114 162.566 231.066C161.774 231.019 161.054 232.275 160.958 233.873C160.861 235.47 161.425 236.804 162.218 236.852C163.01 236.9 163.73 235.643 163.826 234.046Z" fill="#282828"/>
<path d="M130.248 243.484C130.248 243.484 145.311 238.711 144.206 230.567C141.786 212.688 151.724 209.668 151.724 209.668L133.742 203.158L120.939 213.995L130.248 243.487V243.484Z" fill="#111827"/>
<path d="M120.477 304.221C120.477 304.221 128.745 317.934 128.442 338.708" stroke="#D8D8D8" stroke-width="1.51261" stroke-miterlimit="10" stroke-linecap="round"/>
<path d="M174.023 287.988C174.023 287.988 184.309 300.594 182.999 320.258" stroke="#D8D8D8" stroke-width="1.51261" stroke-miterlimit="10" stroke-linecap="round"/>
<path d="M176.588 209.887L179.056 211.036" stroke="#CAE1EC" stroke-width="1.21009" stroke-miterlimit="10" stroke-linecap="round"/>
<path d="M183.863 213.273L219.918 230.048" stroke="#CAE1EC" stroke-width="1.21009" stroke-miterlimit="10" stroke-linecap="round" stroke-dasharray="5.3 5.3"/>
<path d="M222.324 231.166L224.793 232.313" stroke="#CAE1EC" stroke-width="1.21009" stroke-miterlimit="10" stroke-linecap="round"/>
<path d="M172.656 269.831L175.306 269.199" stroke="#CAE1EC" stroke-width="1.21009" stroke-miterlimit="10" stroke-linecap="round"/>
<path d="M180.43 267.978L218.853 258.809" stroke="#CAE1EC" stroke-width="1.21009" stroke-miterlimit="10" stroke-linecap="round" stroke-dasharray="5.27 5.27"/>
<path d="M221.414 258.197L224.064 257.564" stroke="#CAE1EC" stroke-width="1.21009" stroke-miterlimit="10" stroke-linecap="round"/>
<path d="M309.219 170.594C309.198 163.948 300.545 159.849 294.301 163.185L240.607 191.898C234.366 195.235 229.323 203.327 229.344 209.971L229.782 352.952C229.804 359.598 236.937 365.304 243.178 361.964L294.816 330.223C301.06 326.883 306.103 318.794 306.082 312.147L309.222 170.588L309.219 170.594Z" fill="#2B2B2B"/>
<path d="M298.546 165.81C304.79 162.47 309.866 165.15 309.887 171.797L310.326 314.778C310.347 321.424 305.304 329.514 299.06 332.854L245.365 361.566C239.124 364.903 234.048 362.223 234.027 355.579L233.588 212.598C233.567 205.952 238.61 197.862 244.851 194.525L298.546 165.813V165.81ZM308.898 315.54L308.459 172.559C308.441 166.76 303.997 164.412 298.549 167.326L244.854 196.038C239.408 198.951 234.989 206.039 235.007 211.839L235.445 354.82C235.464 360.619 239.911 362.967 245.356 360.054L299.051 331.341C304.499 328.428 308.916 321.34 308.898 315.54Z" fill="#2B2B2B"/>
<path d="M298.55 167.324C303.998 164.41 308.442 166.758 308.46 172.557L308.899 315.538C308.917 321.338 304.5 328.426 299.052 331.339L245.357 360.052C239.912 362.965 235.465 360.617 235.447 354.818L235.008 211.837C234.99 206.037 239.41 198.949 244.855 196.036L298.55 167.324Z" fill="white"/>
<g opacity="0.2">
<path d="M246.359 195.23C240.911 198.144 236.494 205.232 236.512 211.031L236.951 354.012C236.969 359.812 241.413 362.156 246.861 359.243L245.188 360.135C239.74 363.049 235.293 360.704 235.275 354.905L234.836 211.924C234.818 206.124 239.238 199.036 244.686 196.123L246.359 195.23Z" fill="white"/>
<path d="M298.714 167.232C304.162 164.319 308.609 166.666 308.628 172.466L309.066 315.447C309.084 321.246 304.665 328.331 299.216 331.244L297.543 332.137C302.992 329.224 307.408 322.138 307.39 316.339L306.952 173.358C306.933 167.559 302.489 165.211 297.041 168.124L298.714 167.232Z" fill="white"/>
</g>
<path d="M266.799 192.475L279.783 185.447" stroke="#6F6F6F" stroke-width="1.51261" stroke-miterlimit="10" stroke-linecap="round"/>
<path d="M268.996 272.326L288.394 261.901C291.225 260.379 292.992 257.426 292.992 254.211V224.473" stroke="#0045A4" stroke-width="1.51261" stroke-miterlimit="10" stroke-linecap="round"/>
<path d="M288.573 223.136V254.139C288.573 255.77 287.692 257.27 286.274 258.066L266.358 269.235C264.903 270.052 263.109 268.999 263.109 267.332V245.227C263.109 237.893 267.118 231.144 273.559 227.638L285.348 221.218C286.8 220.426 288.573 221.479 288.573 223.133V223.136Z" stroke="#EE2A38" stroke-width="1.51261" stroke-miterlimit="10" stroke-linecap="round"/>
<path d="M276.473 243.281V245.432" stroke="#EE2A38" stroke-width="1.51261" stroke-miterlimit="10" stroke-linecap="round"/>
<path d="M272.139 250.222C272.139 250.222 275.348 251.229 279.835 246.223" stroke="#EE2A38" stroke-width="1.51261" stroke-miterlimit="10" stroke-linecap="round"/>
<path d="M271.698 244.407C272.126 244.407 272.473 243.903 272.473 243.282C272.473 242.66 272.126 242.156 271.698 242.156C271.271 242.156 270.924 242.66 270.924 243.282C270.924 243.903 271.271 244.407 271.698 244.407Z" fill="#EE2A38"/>
<path d="M280.153 240.104C280.581 240.104 280.928 239.6 280.928 238.979C280.928 238.357 280.581 237.854 280.153 237.854C279.726 237.854 279.379 238.357 279.379 238.979C279.379 239.6 279.726 240.104 280.153 240.104Z" fill="#EE2A38"/>
<mask id="path-37-inside-1_916_852" fill="white">
<path d="M96.002 373H303.998V398H96.002V373Z"/>
</mask>
<path d="M303.998 397H96.002V399H303.998V397Z" fill="#0077FA" mask="url(#path-37-inside-1_916_852)"/>
<path fill-rule="evenodd" clip-rule="evenodd" d="M115.6 378.218C116.547 378.47 117.292 379.219 117.544 380.174C118.002 381.9 117.998 385.502 117.998 385.502C117.998 385.502 117.998 389.103 117.54 390.83C117.288 391.781 116.543 392.53 115.596 392.786C113.881 393.248 107 393.248 107 393.248C107 393.248 100.119 393.248 98.4041 392.786C97.4572 392.534 96.7121 391.785 96.4599 390.83C96.002 389.103 96.002 385.502 96.002 385.502C96.002 385.502 96.002 381.9 96.4638 380.17C96.716 379.219 97.4611 378.47 98.408 378.214C100.123 377.752 107.004 377.752 107.004 377.752C107.004 377.752 113.881 377.752 115.6 378.218ZM104.753 382.23V388.773L110.504 385.502L104.753 382.23Z" fill="#FF0000"/>
<path d="M141.386 377.674V382.332H143.6V383.949H141.386V389.293H139.434V377.674H141.386ZM142.018 391.666V393.248H131.208V388.08H133.159V391.666H142.018ZM133.317 378.729C135.725 378.729 137.589 380.398 137.606 382.736C137.589 385.039 135.725 386.727 133.317 386.727C130.909 386.727 129.011 385.039 129.028 382.736C129.011 380.398 130.909 378.729 133.317 378.729ZM133.317 380.434C131.981 380.434 130.927 381.33 130.944 382.736C130.927 384.107 131.981 385.004 133.317 385.004C134.653 385.004 135.69 384.107 135.69 382.736C135.69 381.33 134.653 380.434 133.317 380.434ZM152.205 379.01V380.275H155.404V377.691H157.356V389.258H155.404V385.25H152.205V386.621H144.735V379.01H152.205ZM146.686 380.557V385.092H150.272V380.557H146.686ZM157.707 391.666V393.248H146.879V388.186H148.865V391.666H157.707ZM152.205 383.686H155.404V381.875H152.205V383.686ZM172.482 377.691V389.17H170.513V377.691H172.482ZM172.921 391.666V393.248H161.97V388.01H163.939V391.666H172.921ZM163.816 378.729C166.224 378.729 168.087 380.398 168.087 382.701C168.087 385.057 166.224 386.691 163.816 386.691C161.39 386.691 159.527 385.057 159.527 382.701C159.527 380.398 161.39 378.729 163.816 378.729ZM163.816 380.434C162.462 380.434 161.425 381.33 161.443 382.701C161.425 384.107 162.462 384.986 163.816 384.986C165.134 384.986 166.171 384.107 166.171 382.701C166.171 381.33 165.134 380.434 163.816 380.434ZM188.927 385.074V386.656H174.442V385.074H188.927ZM181.667 387.711C185.095 387.711 187.151 388.783 187.169 390.629C187.151 392.492 185.095 393.547 181.667 393.547C178.204 393.547 176.13 392.492 176.13 390.629C176.13 388.783 178.204 387.711 181.667 387.711ZM181.667 389.24C179.347 389.24 178.099 389.715 178.116 390.629C178.099 391.543 179.347 392.018 181.667 392.018C183.934 392.018 185.2 391.543 185.218 390.629C185.2 389.715 183.934 389.24 181.667 389.24ZM187.626 378.43V380.029H183.038C183.328 381.348 185.235 382.534 188.241 382.824L187.556 384.371C184.673 384.063 182.528 382.93 181.667 381.312C180.806 382.921 178.696 384.063 175.813 384.371L175.145 382.824C178.09 382.534 180.006 381.348 180.313 380.029H175.761V378.43H187.626ZM206.769 377.674V393.582H204.8V377.674H206.769ZM198.209 378.834C200.599 378.834 202.339 381.014 202.357 384.441C202.339 387.904 200.599 390.066 198.209 390.066C195.8 390.066 194.06 387.904 194.06 384.441C194.06 381.014 195.8 378.834 198.209 378.834ZM198.209 380.592C196.855 380.592 195.941 382.016 195.941 384.441C195.941 386.885 196.855 388.309 198.209 388.309C199.545 388.309 200.459 386.885 200.459 384.441C200.459 382.016 199.545 380.592 198.209 380.592ZM222.054 377.674V386.305H220.103V382.139H217.396V380.557H220.103V377.674H222.054ZM222.335 387.113V388.59H211.12V387.113H215.761V385.83H217.712V387.113H222.335ZM216.728 389.1C219.593 389.1 221.263 389.855 221.263 391.314C221.263 392.791 219.593 393.547 216.728 393.547C213.862 393.547 212.21 392.791 212.21 391.314C212.21 389.855 213.862 389.1 216.728 389.1ZM216.728 390.453C214.97 390.453 214.091 390.77 214.108 391.314C214.091 391.912 214.97 392.193 216.728 392.193C218.485 392.193 219.364 391.912 219.364 391.314C219.364 390.77 218.485 390.453 216.728 390.453ZM216.534 378.377V382.561H211.331V383.949C213.88 383.94 215.646 383.879 217.677 383.492L217.853 385.021C215.567 385.408 213.599 385.461 210.628 385.461H209.362V381.172H214.583V379.854H209.345V378.377H216.534ZM237.655 377.674V393.564H235.791V377.674H237.655ZM234.28 378.061V392.809H232.434V385.496H229.604C228.672 387.324 227.178 388.906 224.928 390.207L223.821 388.818C227.117 386.876 228.619 384.389 228.918 381.189H224.629V379.607H230.852C230.852 381.146 230.667 382.587 230.237 383.932H232.434V378.061H234.28ZM250.804 380.205V381.77H243.017V380.205H245.97V378.131H247.903V380.205H250.804ZM246.937 382.613C248.958 382.613 250.399 384.143 250.399 386.305C250.399 388.502 248.958 390.049 246.937 390.049C244.933 390.049 243.456 388.502 243.474 386.305C243.456 384.143 244.933 382.613 246.937 382.613ZM246.937 384.23C245.899 384.23 245.179 385.057 245.196 386.305C245.179 387.588 245.899 388.396 246.937 388.379C247.956 388.396 248.677 387.588 248.677 386.305C248.677 385.057 247.956 384.23 246.937 384.23ZM256.71 377.674V393.564H254.847V385.795H253.3V392.844H251.472V378.008H253.3V384.213H254.847V377.674H256.71ZM272.768 390.049V391.648H258.248V390.049H264.506V386.955H259.848V378.729H261.799V381.33H269.164V378.729H271.116V386.955H266.44V390.049H272.768ZM261.799 385.373H269.164V382.895H261.799V385.373ZM278.402 381.84C278.402 384.406 279.299 387.078 281.443 388.432L280.371 389.926C278.938 389.064 278.007 387.579 277.488 385.83C276.908 387.755 275.888 389.381 274.394 390.295L273.181 388.836C275.484 387.43 276.521 384.635 276.521 381.928V379.08H278.402V381.84ZM287.156 377.674V393.564H285.275V377.674H287.156ZM283.851 377.955V392.791H282.006V384.758H279.738V383.141H282.006V377.955H283.851ZM303.161 390.031V391.631H288.642V390.031H291.999V386.006C290.734 385.285 289.969 384.151 289.978 382.736C289.96 380.205 292.456 378.535 295.866 378.535C299.294 378.535 301.79 380.205 301.79 382.736C301.79 384.125 301.052 385.241 299.821 385.971V390.031H303.161ZM295.866 380.082C293.493 380.082 291.876 381.084 291.894 382.736C291.876 384.371 293.493 385.391 295.866 385.391C298.239 385.391 299.874 384.371 299.874 382.736C299.874 381.084 298.239 380.082 295.866 380.082ZM293.933 390.031H297.835V386.709C297.229 386.85 296.569 386.92 295.866 386.92C295.181 386.92 294.53 386.85 293.933 386.727V390.031Z" fill="#0077FA"/>
<rect x="20" y="468" width="360" height="160" rx="15" fill="#FDEAEF"/>
<mask id="mask1_916_852" style="mask-type:alpha" maskUnits="userSpaceOnUse" x="32" y="480" width="24" height="24">
<rect x="32" y="480" width="24" height="24" fill="#D9D9D9"/>
</mask>
<g mask="url(#mask1_916_852)">
<path d="M43 497H45V491H43V497ZM44 489C44.2833 489 44.5208 488.904 44.7125 488.713C44.9042 488.521 45 488.283 45 488C45 487.717 44.9042 487.479 44.7125 487.287C44.5208 487.096 44.2833 487 44 487C43.7167 487 43.4792 487.096 43.2875 487.287C43.0958 487.479 43 487.717 43 488C43 488.283 43.0958 488.521 43.2875 488.713C43.4792 488.904 43.7167 489 44 489ZM44 502C42.6167 502 41.3167 501.737 40.1 501.212C38.8833 500.688 37.825 499.975 36.925 499.075C36.025 498.175 35.3125 497.117 34.7875 495.9C34.2625 494.683 34 493.383 34 492C34 490.617 34.2625 489.317 34.7875 488.1C35.3125 486.883 36.025 485.825 36.925 484.925C37.825 484.025 38.8833 483.312 40.1 482.788C41.3167 482.262 42.6167 482 44 482C45.3833 482 46.6833 482.262 47.9 482.788C49.1167 483.312 50.175 484.025 51.075 484.925C51.975 485.825 52.6875 486.883 53.2125 488.1C53.7375 489.317 54 490.617 54 492C54 493.383 53.7375 494.683 53.2125 495.9C52.6875 497.117 51.975 498.175 51.075 499.075C50.175 499.975 49.1167 500.688 47.9 501.212C46.6833 501.737 45.3833 502 44 502ZM44 500C46.2333 500 48.125 499.225 49.675 497.675C51.225 496.125 52 494.233 52 492C52 489.767 51.225 487.875 49.675 486.325C48.125 484.775 46.2333 484 44 484C41.7667 484 39.875 484.775 38.325 486.325C36.775 487.875 36 489.767 36 492C36 494.233 36.775 496.125 38.325 497.675C39.875 499.225 41.7667 500 44 500Z" fill="#FF0000"/>
</g>
<path d="M70.0611 485.926C72.9185 485.926 74.5728 486.678 74.5864 488.059C74.5728 489.289 73.2398 490.021 70.895 490.15V490.875H75.7349V492.256H64.3872V490.875H69.1724V490.15C66.8482 490.007 65.522 489.275 65.522 488.059C65.522 486.678 67.19 485.926 70.0611 485.926ZM70.0611 487.211C68.229 487.211 67.3404 487.484 67.354 488.059C67.3404 488.66 68.229 488.906 70.0611 488.906C71.9068 488.906 72.7818 488.66 72.7818 488.059C72.7818 487.484 71.9068 487.211 70.0611 487.211ZM74.354 492.939V496.111H67.4224V496.863H74.6821V498.176H65.7134V494.895H72.6314V494.238H65.6997V492.939H74.354ZM86.0232 485.816V490.465H87.8553V491.928H86.0232V498.258H84.2732V485.816H86.0232ZM78.3396 486.801V489.836H80.9236V486.801H82.66V495.373H76.6033V486.801H78.3396ZM78.3396 493.965H80.9236V491.189H78.3396V493.965ZM99.4014 492.543V493.938H88.0128V492.543H99.4014ZM98.294 496.645V498.039H89.4483V494.621H91.1983V496.645H98.294ZM98.0206 486.104V489.535H91.171V490.424H98.253V491.736H89.4346V488.291H96.2706V487.443H89.4073V486.104H98.0206ZM109.957 486.678V487.949H107.537C107.673 488.599 108.617 489.139 110.244 489.289L109.67 490.547C108.207 490.369 107.188 489.856 106.662 489.139C106.115 489.897 105.076 490.444 103.586 490.643L103.011 489.398C104.673 489.221 105.616 488.626 105.759 487.949H103.326V486.678H105.787V485.775H107.509V486.678H109.957ZM107.509 490.178V491.135C108.487 491.087 109.458 491.012 110.367 490.902L110.49 492.078C107.92 492.488 105.103 492.516 102.943 492.516L102.765 491.217C103.674 491.217 104.714 491.217 105.787 491.189V490.178H107.509ZM112.746 493.117V496.193H106.074V496.891H113.156V498.176H104.324V495.018H110.996V494.375H104.31V493.117H112.746ZM112.746 485.816V488.469H114.332V489.891H112.746V492.652H110.996V485.816H112.746ZM118.085 486.486C119.076 486.486 119.944 486.849 120.546 487.457H123.362V485.816H125.099V493.104H123.362V491.613H120.532C119.931 492.215 119.069 492.577 118.085 492.57C116.198 492.584 114.763 491.285 114.776 489.535C114.763 487.758 116.198 486.486 118.085 486.486ZM118.085 487.977C117.114 487.977 116.417 488.551 116.431 489.535C116.417 490.492 117.114 491.107 118.085 491.094C119.028 491.107 119.712 490.492 119.712 489.535C119.712 488.551 119.028 487.977 118.085 487.977ZM120.847 493.363C123.485 493.363 125.126 494.266 125.14 495.811C125.126 497.355 123.485 498.258 120.847 498.258C118.222 498.258 116.567 497.355 116.567 495.811C116.567 494.266 118.222 493.363 120.847 493.363ZM120.847 494.689C119.192 494.689 118.276 495.059 118.276 495.811C118.276 496.535 119.192 496.904 120.847 496.904C122.528 496.904 123.431 496.535 123.431 495.811C123.431 495.059 122.528 494.689 120.847 494.689ZM121.298 488.838C121.339 489.057 121.366 489.296 121.366 489.535C121.366 489.774 121.339 490 121.298 490.219H123.362V488.838H121.298ZM132.229 493.432C134.813 493.432 136.426 494.32 136.426 495.838C136.426 497.383 134.813 498.271 132.229 498.271C129.59 498.271 127.963 497.383 127.963 495.838C127.963 494.32 129.59 493.432 132.229 493.432ZM132.229 494.785C130.588 494.785 129.699 495.127 129.713 495.838C129.699 496.549 130.588 496.918 132.229 496.918C133.842 496.918 134.703 496.549 134.703 495.838C134.703 495.127 133.842 494.785 132.229 494.785ZM136.303 485.816V488.701H137.985V490.164H136.303V493.158H134.553V485.816H136.303ZM128.537 486.596V488.168H131.08V486.596H132.83V492.447H126.801V486.596H128.537ZM128.537 491.066H131.08V489.521H128.537V491.066ZM140.535 486.445V488.045H142.982V486.445H144.705V488.66H147.001V485.816H148.738V492.625H147.001V490.082H144.705V492.27H138.785V486.445H140.535ZM140.535 490.875H142.982V489.385H140.535V490.875ZM142.162 493.145V494.293H147.001V493.145H148.738V498.094H140.439V493.145H142.162ZM142.162 496.699H147.001V495.633H142.162V496.699Z" fill="#111827"/>
<mask id="mask2_916_852" style="mask-type:alpha" maskUnits="userSpaceOnUse" x="32" y="514" width="20" height="20">
<rect x="32" y="514" width="20" height="20" fill="#D9D9D9"/>
</mask>
<g mask="url(#mask2_916_852)">
<path d="M40.1042 526.312L46.3333 520.083C46.4849 519.93 46.6616 519.854 46.8635 519.854C47.0656 519.854 47.2431 519.93 47.3958 520.083C47.5486 520.235 47.625 520.413 47.625 520.616C47.625 520.818 47.5513 520.993 47.404 521.14L40.6458 527.916C40.4943 528.069 40.3176 528.145 40.1156 528.145C39.9135 528.145 39.7361 528.069 39.5833 527.916L36.6042 524.937C36.4514 524.784 36.375 524.607 36.375 524.406C36.375 524.204 36.4514 524.027 36.6042 523.874C36.7569 523.722 36.9352 523.645 37.139 523.645C37.3426 523.645 37.5185 523.722 37.6667 523.874L40.1042 526.312Z" fill="#FF0000"/>
</g>
<path d="M67.3965 517.135V527.081H66.0049V525.821H63.3682V524.84H66.0049V517.135H67.3965ZM67.7188 528.839V529.967H58.2412V526.114H59.6182V528.839H67.7188ZM56.4248 523.126C58.8564 523.111 62.123 523.082 64.9209 522.73L65.0088 523.727C63.8882 523.91 62.709 524.034 61.5518 524.107V526.671H60.1602V524.181C58.8857 524.239 57.6626 524.247 56.6006 524.239L56.4248 523.126ZM60.7168 517.633C62.6357 517.633 63.9688 518.556 63.9688 519.947C63.9688 521.339 62.6357 522.232 60.7168 522.232C58.7686 522.232 57.4502 521.339 57.4502 519.947C57.4502 518.556 58.7686 517.633 60.7168 517.633ZM60.7168 518.673C59.5449 518.658 58.7539 519.156 58.7686 519.947C58.7539 520.724 59.5449 521.207 60.7168 521.207C61.8447 521.207 62.6357 520.724 62.6504 519.947C62.6357 519.156 61.8447 518.658 60.7168 518.673ZM76.5447 518.497V519.61H69.1619V518.497H72.2381V517.003H73.615V518.497H76.5447ZM72.9119 520.211C74.6844 520.211 75.9295 521.192 75.9441 522.657C75.9295 524.122 74.6844 525.089 72.9119 525.089C71.1248 525.089 69.8943 524.122 69.8943 522.657C69.8943 521.192 71.1248 520.211 72.9119 520.211ZM72.9119 521.266C71.8719 521.266 71.198 521.808 71.198 522.657C71.198 523.507 71.8719 524.034 72.9119 524.034C73.9373 524.034 74.6404 523.507 74.6551 522.657C74.6404 521.808 73.9373 521.266 72.9119 521.266ZM80.0896 517.12V525.572H78.698V523.888H76.574V522.76H78.698V521.31H76.5887V520.182H78.698V517.12H80.0896ZM75.7244 525.704C78.4783 525.704 80.1629 526.524 80.1629 527.96C80.1629 529.381 78.4783 530.23 75.7244 530.216C72.9559 530.23 71.2713 529.381 71.2713 527.96C71.2713 526.524 72.9559 525.704 75.7244 525.704ZM75.7244 526.773C73.8348 526.773 72.7215 527.184 72.7215 527.96C72.7215 528.722 73.8348 529.161 75.7244 529.146C77.5701 529.161 78.6834 528.722 78.6834 527.96C78.6834 527.184 77.5701 526.773 75.7244 526.773ZM95.4857 517.105V521.031H97.39V522.203H95.4857V526.759H94.0941V517.105H95.4857ZM96.0424 528.839V529.967H87.1654V525.748H88.557V528.839H96.0424ZM88.8646 518.014C90.8422 518.014 92.351 519.361 92.3656 521.28C92.351 523.185 90.8422 524.547 88.8646 524.547C86.8871 524.547 85.3637 523.185 85.3783 521.28C85.3637 519.361 86.8871 518.014 88.8646 518.014ZM88.8646 519.229C87.6635 519.229 86.726 520.064 86.7406 521.28C86.726 522.496 87.6635 523.331 88.8646 523.331C90.0805 523.331 91.0033 522.496 91.0033 521.28C91.0033 520.064 90.0805 519.229 88.8646 519.229ZM109.131 517.12V530.245H107.798V517.12H109.131ZM106.465 517.369V529.601H105.132V523.272H103.653C103.535 525.836 102.437 527.433 100.811 527.418C99.0969 527.433 97.9836 525.631 97.9836 522.789C97.9836 519.947 99.0969 518.16 100.811 518.175C102.407 518.16 103.491 519.676 103.653 522.145H105.132V517.369H106.465ZM100.811 519.479C99.8586 519.479 99.2727 520.694 99.2727 522.789C99.2727 524.884 99.8586 526.1 100.811 526.1C101.778 526.1 102.378 524.884 102.378 522.789C102.378 520.694 101.778 519.479 100.811 519.479ZM124.791 517.12V523.756H123.414V521.09H120.85C120.565 522.555 119.239 523.536 117.496 523.536C115.504 523.536 114.054 522.291 114.054 520.519C114.054 518.775 115.504 517.545 117.496 517.545C119.239 517.545 120.565 518.512 120.85 519.947H123.414V517.12H124.791ZM117.496 518.688C116.265 518.673 115.387 519.435 115.387 520.519C115.387 521.646 116.265 522.394 117.496 522.394C118.697 522.394 119.576 521.646 119.576 520.519C119.576 519.435 118.697 518.673 117.496 518.688ZM124.791 524.444V527.711H117.628V528.971H125.26V530.084H116.236V526.671H123.414V525.528H116.207V524.444H124.791ZM137.015 517.647V518.497C137.015 519.354 137.015 520.445 136.752 521.808H138.539V522.892H133.192V524.444H137.03V527.726H129.339V529H137.367V530.113H127.948V526.744H135.653V525.543H127.933V524.444H131.815V522.892H126.527V521.808H135.36C135.609 520.526 135.638 519.574 135.638 518.761H128.036V517.647H137.015ZM145.167 517.34C148.126 517.34 149.855 518.131 149.855 519.596C149.855 521.061 148.126 521.866 145.167 521.866C142.208 521.866 140.48 521.061 140.48 519.596C140.48 518.131 142.208 517.34 145.167 517.34ZM145.167 518.365C143.073 518.365 141.915 518.819 141.93 519.596C141.915 520.401 143.073 520.826 145.167 520.826C147.262 520.826 148.419 520.401 148.419 519.596C148.419 518.819 147.262 518.365 145.167 518.365ZM151.159 522.672V523.785H139.191V522.672H151.159ZM149.65 524.796V527.872H142.003V529.044H150.016V530.113H140.641V526.861H148.273V525.836H140.626V524.796H149.65ZM161.867 517.999V523.653H155.729V517.999H161.867ZM157.092 519.112V522.54H160.505V519.112H157.092ZM165.529 517.12V520.167H167.434V521.324H165.529V524.562H164.138V517.12H165.529ZM165.734 525.294V526.407H162.146C162.336 527.652 164.042 528.802 166.276 529.132L165.764 530.201C163.771 529.894 162.131 528.978 161.369 527.726C160.622 528.985 158.989 529.894 157.004 530.187L156.491 529.117C158.74 528.802 160.41 527.689 160.637 526.407H157.019V525.294H165.734ZM179.848 525.03V526.173H174.546V530.26H173.169V526.173H167.881V525.03H179.848ZM178.706 518.702V519.83H174.56C174.641 521.28 176.618 522.694 179.116 523.009L178.618 524.122C176.509 523.829 174.714 522.84 173.872 521.5C173.015 522.855 171.206 523.829 169.096 524.122L168.584 523.009C171.081 522.694 173.074 521.31 173.169 519.83H169.009V518.702H173.169V517.12H174.546V518.702H178.706ZM191.165 518.38V519.669C191.165 521.295 191.165 523.111 190.667 525.792L189.26 525.646C189.773 523.111 189.773 521.251 189.773 519.669V519.508H181.804V518.38H191.165ZM192.512 527.315V528.473H180.545V527.315H185.1V522.687H186.477V527.315H192.512ZM207.513 517.12V524.928H206.121V521.603H203.675V520.46H206.121V517.12H207.513ZM203.118 525.294C205.872 525.294 207.557 526.202 207.557 527.77C207.557 529.337 205.872 530.23 203.118 530.245C200.364 530.23 198.665 529.337 198.68 527.77C198.665 526.202 200.364 525.294 203.118 525.294ZM203.118 526.378C201.199 526.378 200.057 526.876 200.057 527.77C200.057 528.648 201.199 529.161 203.118 529.146C205.037 529.161 206.18 528.648 206.18 527.77C206.18 526.876 205.037 526.378 203.118 526.378ZM201.273 519.435C201.273 521.104 202.459 522.716 204.437 523.39L203.719 524.488C202.247 523.976 201.163 522.928 200.599 521.632C200.02 523.104 198.87 524.283 197.303 524.854L196.571 523.741C198.607 523.038 199.852 521.266 199.852 519.449V519.156H197.01V518.028H204.085V519.156H201.273V519.435ZM215.929 518.233V519.347H218.785V517.135H220.177V526.7H218.785V523.302H215.929V524.444H209.835V518.233H215.929ZM211.212 519.361V523.346H214.566V519.361H211.212ZM220.47 528.839V529.967H211.607V525.821H213.014V528.839H220.47ZM215.929 522.159H218.785V520.489H215.929V522.159ZM227.875 517.34C230.834 517.34 232.562 518.131 232.562 519.596C232.562 521.061 230.834 521.866 227.875 521.866C224.916 521.866 223.187 521.061 223.187 519.596C223.187 518.131 224.916 517.34 227.875 517.34ZM227.875 518.365C225.78 518.365 224.623 518.819 224.637 519.596C224.623 520.401 225.78 520.826 227.875 520.826C229.97 520.826 231.127 520.401 231.127 519.596C231.127 518.819 229.97 518.365 227.875 518.365ZM233.866 522.672V523.785H221.898V522.672H233.866ZM232.357 524.796V527.872H224.711V529.044H232.723V530.113H223.348V526.861H230.98V525.836H223.334V524.796H232.357ZM248.149 517.12V522.203H250.258V523.375H248.149V530.245H246.757V517.12H248.149ZM239.799 518.219V521.588H243.271V518.219H244.648V527.125H238.422V518.219H239.799ZM239.799 525.982H243.271V522.687H239.799V525.982ZM260.813 517.12V522.247H262.922V523.419H260.813V530.274H259.436V517.12H260.813ZM257.107 518.307V523.126H252.507V525.968C254.763 525.96 256.433 525.88 258.352 525.528L258.484 526.656C256.433 527.037 254.66 527.125 252.199 527.14H251.13V521.998H255.73V519.435H251.101V518.307H257.107ZM265.332 518.189V520.079H269.17V518.189H270.547V524.137H267.939V526.378C269.089 526.327 270.239 526.239 271.309 526.1L271.411 527.125C268.643 527.579 265.581 527.623 263.311 527.623L263.091 526.466C264.124 526.458 265.325 526.458 266.562 526.422V524.137H263.94V518.189H265.332ZM265.332 523.023H269.17V521.134H265.332V523.023ZM273.491 517.12V522.54H275.513V523.712H273.491V530.245H272.1V517.12H273.491ZM291.246 524.518V525.646H285.914V530.23H284.551V525.646H279.278V524.518H291.246ZM290.118 517.896V519.01H286.06C286.082 520.636 288.104 522.086 290.587 522.423L290.074 523.521C287.921 523.185 286.06 522.123 285.269 520.621C284.456 522.123 282.603 523.185 280.479 523.521L279.952 522.423C282.405 522.086 284.427 520.636 284.478 519.01H280.391V517.896H290.118ZM295.941 520.709C295.941 522.804 296.82 525.045 298.578 526.114L297.801 527.184C296.571 526.444 295.736 525.133 295.296 523.609C294.806 525.279 293.905 526.7 292.63 527.477L291.766 526.437C293.626 525.323 294.593 523.009 294.593 520.768V518.321H295.941V520.709ZM303.236 517.12V530.245H301.903V517.12H303.236ZM300.511 517.369V529.601H299.193V522.892H297.157V521.734H299.193V517.369H300.511ZM316.617 527.447V528.604H304.606V527.447H307.477V524.02C306.4 523.426 305.748 522.481 305.748 521.31C305.748 519.244 307.77 517.882 310.582 517.882C313.409 517.882 315.431 519.244 315.431 521.31C315.431 522.467 314.801 523.397 313.746 523.99V527.447H316.617ZM310.582 518.995C308.517 518.995 307.096 519.889 307.096 521.31C307.096 522.716 308.517 523.639 310.582 523.639C312.633 523.639 314.083 522.716 314.083 521.31C314.083 519.889 312.633 518.995 310.582 518.995ZM308.854 527.447H312.34V524.518C311.805 524.657 311.212 524.723 310.582 524.723C309.967 524.723 309.381 524.657 308.854 524.532V527.447ZM318.764 529.103C318.192 529.103 317.709 528.634 317.724 528.062C317.709 527.491 318.192 527.022 318.764 527.022C319.32 527.022 319.804 527.491 319.804 528.062C319.804 528.634 319.32 529.103 318.764 529.103Z" fill="#6B7280"/>
<mask id="mask3_916_852" style="mask-type:alpha" maskUnits="userSpaceOnUse" x="32" y="537" width="20" height="20">
<rect x="32" y="537" width="20" height="20" fill="#D9D9D9"/>
</mask>
<g mask="url(#mask3_916_852)">
<path d="M40.1042 549.312L46.3333 543.083C46.4849 542.93 46.6616 542.854 46.8635 542.854C47.0656 542.854 47.2431 542.93 47.3958 543.083C47.5486 543.235 47.625 543.413 47.625 543.616C47.625 543.818 47.5513 543.993 47.404 544.14L40.6458 550.916C40.4943 551.069 40.3176 551.145 40.1156 551.145C39.9135 551.145 39.7361 551.069 39.5833 550.916L36.6042 547.937C36.4514 547.784 36.375 547.607 36.375 547.406C36.375 547.204 36.4514 547.027 36.6042 546.874C36.7569 546.722 36.9352 546.645 37.139 546.645C37.3426 546.645 37.5185 546.722 37.6667 546.874L40.1042 549.312Z" fill="#FF0000"/>
</g>
<path d="M67.4404 540.12V553.274H66.0488V545.496H62.1377V544.354H66.0488V540.12H67.4404ZM58.5928 541.57V548.953C60.4678 548.924 62.2402 548.814 64.1445 548.426L64.3203 549.568C62.2109 550.008 60.3066 550.11 58.2412 550.11H57.1865V541.57H58.5928ZM81.1443 547.649V548.777H75.783V553.23H74.4207V548.777H69.1326V547.649H81.1443ZM79.6355 540.823V545.979H70.6414V540.823H79.6355ZM72.0037 541.937V544.896H78.2439V541.937H72.0037ZM87.0482 540.75V542.581H90.4906V540.75H91.8676V546.551H85.6859V540.75H87.0482ZM87.0482 545.452H90.4906V543.636H87.0482V545.452ZM95.4857 540.12V542.918H97.39V544.09H95.4857V547.107H94.0941V540.12H95.4857ZM90.7982 547.767V550.887H87.8393V552.044C89.663 552.037 90.5785 552.007 91.6625 551.766L91.809 552.806C90.5639 553.069 89.5678 553.099 87.2973 553.099H86.4916V549.876H89.4652V548.836H86.4623V547.767H90.7982ZM95.4857 547.767V553.187H94.1088V548.88H91.3695V547.767H95.4857ZM108.765 540.12V553.245H107.388V546.463H104.444V545.32H107.388V540.12H108.765ZM104.487 541.526C104.473 545.335 102.993 548.602 98.5402 550.813L97.8078 549.715C101.287 548.016 102.832 545.65 103.081 542.64H98.3937V541.526H104.487ZM122.762 545.276V546.419H120.726V553.23H119.334V540.12H120.726V545.276H122.762ZM112.376 541.395V548.777C114.207 548.777 116.119 548.624 118.206 548.191L118.367 549.363C116.126 549.817 114.046 549.935 112.083 549.935H110.999V541.395H112.376ZM130.087 541.102C131.866 541.102 133.17 542.61 133.382 545.042H136.092V540.12H137.469V553.274H136.092V546.17H133.397C133.243 548.726 131.91 550.315 130.087 550.315C128.124 550.315 126.747 548.528 126.761 545.701C126.747 542.889 128.124 541.102 130.087 541.102ZM130.087 542.347C128.9 542.347 128.08 543.636 128.08 545.701C128.08 547.781 128.9 549.07 130.087 549.07C131.273 549.07 132.093 547.781 132.093 545.701C132.093 543.636 131.273 542.347 130.087 542.347ZM151.173 545.95V547.063H145.871V548.836H144.479V547.063H139.191V545.95H151.173ZM149.826 543.694V544.822H140.685V540.574H149.694V541.717H142.077V543.694H149.826ZM142.091 548.06V549.48H148.258V548.06H149.65V553.084H140.714V548.06H142.091ZM142.091 551.941H148.258V550.55H142.091V551.941ZM156.689 543.987C156.689 546.185 158.124 548.455 160.146 549.319L159.384 550.403C157.839 549.722 156.608 548.279 156 546.521C155.392 548.396 154.154 549.993 152.631 550.74L151.825 549.642C153.803 548.719 155.268 546.243 155.282 543.987V542.596H152.279V541.438H159.677V542.596H156.689V543.987ZM162.724 540.12V553.245H161.332V540.12H162.724ZM171.528 540.823C173.52 540.823 174.971 542.098 174.971 543.87C174.971 545.657 173.52 546.917 171.528 546.917C169.551 546.917 168.071 545.657 168.086 543.87C168.071 542.098 169.551 540.823 171.528 540.823ZM171.528 541.98C170.342 541.98 169.433 542.757 169.433 543.87C169.433 544.983 170.342 545.774 171.528 545.774C172.729 545.774 173.623 544.983 173.623 543.87C173.623 542.757 172.729 541.98 171.528 541.98ZM178.193 540.12V542.991H180.097V544.148H178.193V546.653H176.802V540.12H178.193ZM170.561 548.016V551.751C171.33 551.714 172.217 551.604 173.052 551.326L173.257 552.425C172.041 552.835 170.854 552.894 169.873 552.894H169.199V548.016H170.561ZM179.424 548.06V549.129H172.803V548.06H175.454V546.99H176.816V548.06H179.424ZM176.113 549.51C177.563 549.51 178.589 550.242 178.589 551.385C178.589 552.513 177.563 553.23 176.113 553.216C174.634 553.23 173.623 552.513 173.637 551.385C173.623 550.242 174.634 549.51 176.113 549.51ZM176.113 550.506C175.381 550.506 174.868 550.843 174.868 551.385C174.868 551.912 175.381 552.249 176.113 552.249C176.831 552.249 177.344 551.912 177.344 551.385C177.344 550.843 176.831 550.506 176.113 550.506ZM192.512 546.976V548.089H180.545V546.976H192.512ZM191.165 551.839V552.967H182.053V549.158H183.46V551.839H191.165ZM186.521 540.56C189.363 540.545 191.209 541.541 191.209 543.182C191.209 544.837 189.363 545.833 186.521 545.848C183.665 545.833 181.834 544.837 181.834 543.182C181.834 541.541 183.665 540.545 186.521 540.56ZM186.521 541.673C184.514 541.673 183.254 542.244 183.269 543.182C183.254 544.148 184.514 544.705 186.521 544.705C188.528 544.705 189.773 544.148 189.773 543.182C189.773 542.244 188.528 541.673 186.521 541.673ZM202.488 548.367C205.33 548.367 207.117 549.261 207.132 550.799C207.117 552.322 205.33 553.23 202.488 553.216C199.676 553.23 197.874 552.322 197.874 550.799C197.874 549.261 199.676 548.367 202.488 548.367ZM202.488 549.422C200.496 549.422 199.251 549.935 199.266 550.799C199.251 551.648 200.496 552.146 202.488 552.146C204.495 552.146 205.74 551.648 205.755 550.799C205.74 549.935 204.495 549.422 202.488 549.422ZM207.029 540.765V541.863C207.029 542.918 207.029 544.002 206.663 545.35L205.301 545.203C205.653 543.863 205.653 542.896 205.653 541.878H197.977V540.765H207.029ZM208.524 546.155V547.283H196.585V546.155H201.375V543.694H202.738V546.155H208.524ZM219.547 540.12V544.002H221.451V545.159H219.547V549.656H218.141V540.12H219.547ZM215.987 541.116C215.987 544.559 213.644 547.063 209.806 548.221L209.22 547.107C212.289 546.185 214.2 544.441 214.479 542.273H209.776V541.116H215.987ZM220.089 551.839V552.967H211.212V548.675H212.618V551.839H220.089ZM233.192 540.12V553.245H231.859V540.12H233.192ZM230.526 540.369V552.601H229.193V546.272H227.714C227.596 548.836 226.498 550.433 224.872 550.418C223.158 550.433 222.045 548.631 222.045 545.789C222.045 542.947 223.158 541.16 224.872 541.175C226.469 541.16 227.553 542.676 227.714 545.145H229.193V540.369H230.526ZM224.872 542.479C223.92 542.479 223.334 543.694 223.334 545.789C223.334 547.884 223.92 549.1 224.872 549.1C225.839 549.1 226.439 547.884 226.439 545.789C226.439 543.694 225.839 542.479 224.872 542.479ZM239.294 543.46C239.294 545.862 240.641 548.25 242.648 549.158L241.798 550.271C240.304 549.524 239.184 548.038 238.605 546.243C238.026 548.133 236.877 549.729 235.368 550.521L234.489 549.393C236.525 548.426 237.887 545.892 237.887 543.46V541.219H239.294V543.46ZM245.504 540.12V553.274H244.128V545.613H241.198V544.485H244.128V540.12H245.504ZM258.191 541.175V542.2H255.378C255.444 543.145 256.696 543.921 258.484 544.163L258.015 545.174C256.447 544.939 255.276 544.302 254.719 543.416C254.148 544.354 252.954 545.035 251.364 545.291L250.896 544.295C252.697 544.024 253.943 543.196 254.016 542.2H251.203V541.175H254.016V540.076H255.378V541.175H258.191ZM255.378 544.734V545.994C256.528 545.943 257.678 545.855 258.747 545.716L258.85 546.683C256.096 547.137 253.034 547.166 250.72 547.166L250.573 546.097C251.599 546.097 252.785 546.089 254.016 546.053V544.734H255.378ZM260.915 548.045V551.004H253.664V552.059H261.399V553.113H252.273V550.037H259.538V549.07H252.243V548.045H260.915ZM260.915 540.12V543.167H262.79V544.295H260.915V547.503H259.524V540.12H260.915ZM266.885 540.882C267.976 540.875 268.906 541.285 269.521 541.966H272.803V540.12H274.194V547.869H272.803V546.097H269.507C268.899 546.771 267.969 547.173 266.885 547.166C264.907 547.181 263.442 545.862 263.442 544.031C263.442 542.186 264.907 540.867 266.885 540.882ZM266.885 542.083C265.654 542.068 264.775 542.859 264.775 544.031C264.775 545.174 265.654 545.994 266.885 545.979C268.086 545.994 268.965 545.174 268.965 544.031C268.965 542.859 268.086 542.068 266.885 542.083ZM269.8 548.162C272.524 548.162 274.238 549.085 274.238 550.696C274.238 552.293 272.524 553.23 269.8 553.216C267.061 553.23 265.347 552.293 265.361 550.696C265.347 549.085 267.061 548.162 269.8 548.162ZM269.8 549.231C267.881 549.231 266.709 549.759 266.724 550.696C266.709 551.604 267.881 552.117 269.8 552.117C271.733 552.117 272.876 551.604 272.876 550.696C272.876 549.759 271.733 549.231 269.8 549.231ZM270.151 543.079C270.247 543.372 270.298 543.694 270.298 544.031C270.298 544.354 270.247 544.668 270.166 544.954H272.803V543.079H270.151ZM281.892 540.34C284.851 540.34 286.58 541.131 286.58 542.596C286.58 544.061 284.851 544.866 281.892 544.866C278.933 544.866 277.205 544.061 277.205 542.596C277.205 541.131 278.933 540.34 281.892 540.34ZM281.892 541.365C279.798 541.365 278.64 541.819 278.655 542.596C278.64 543.401 279.798 543.826 281.892 543.826C283.987 543.826 285.144 543.401 285.144 542.596C285.144 541.819 283.987 541.365 281.892 541.365ZM287.884 545.672V546.785H275.916V545.672H287.884ZM286.375 547.796V550.872H278.728V552.044H286.741V553.113H277.366V549.861H284.998V548.836H277.351V547.796H286.375ZM296.805 542.859C296.805 544.559 298.065 546.155 300.086 546.8L299.369 547.884C297.86 547.386 296.717 546.353 296.131 545.042C295.538 546.47 294.373 547.598 292.806 548.147L292.088 547.049C294.124 546.36 295.384 544.661 295.399 542.859V542.288H292.454V541.16H299.691V542.288H296.805V542.859ZM302.826 540.135V549.715H301.434V540.135H302.826ZM303.221 551.839V552.967H294.242V548.807H295.648V551.839H303.221ZM315.797 540.12V548.396H314.479V544.734H312.955V547.942H311.652V540.369H312.955V543.592H314.479V540.12H315.797ZM311.168 541.614V542.713H304.532V541.614H307.184V540.223H308.561V541.614H311.168ZM307.858 543.328C309.528 543.328 310.699 544.222 310.699 545.584C310.699 546.946 309.528 547.84 307.858 547.84C306.217 547.84 305.045 546.946 305.045 545.584C305.045 544.222 306.217 543.328 307.858 543.328ZM307.858 544.354C306.935 544.354 306.29 544.837 306.29 545.584C306.29 546.331 306.935 546.829 307.858 546.829C308.81 546.829 309.44 546.331 309.44 545.584C309.44 544.837 308.81 544.354 307.858 544.354ZM311.403 548.587C314.186 548.587 315.856 549.422 315.87 550.916C315.856 552.381 314.186 553.23 311.403 553.216C308.619 553.23 306.949 552.381 306.964 550.916C306.949 549.422 308.619 548.587 311.403 548.587ZM311.403 549.656C309.454 549.656 308.326 550.096 308.341 550.916C308.326 551.707 309.454 552.161 311.403 552.146C313.365 552.161 314.464 551.707 314.479 550.916C314.464 550.096 313.365 549.656 311.403 549.656ZM323.759 542.288V543.416H317.24V542.288H319.818V540.501H321.195V542.288H323.759ZM320.507 544.207C322.177 544.207 323.349 545.452 323.363 547.225C323.349 549.012 322.177 550.271 320.507 550.271C318.866 550.271 317.65 549.012 317.665 547.225C317.65 545.452 318.866 544.207 320.507 544.207ZM320.507 545.364C319.555 545.364 318.896 546.141 318.896 547.225C318.896 548.338 319.555 549.085 320.507 549.085C321.444 549.085 322.133 548.338 322.133 547.225C322.133 546.141 321.444 545.364 320.507 545.364ZM328.505 540.12V553.245H327.187V546.727H325.678V552.63H324.359V540.413H325.678V545.584H327.187V540.12H328.505ZM68.4512 566.518V567.646H63.1191V572.23H61.7568V567.646H56.4834V566.518H68.4512ZM67.3232 559.896V561.01H63.2656C63.2876 562.636 65.3091 564.086 67.792 564.423L67.2793 565.521C65.126 565.185 63.2656 564.123 62.4746 562.621C61.6616 564.123 59.8086 565.185 57.6846 565.521L57.1572 564.423C59.6108 564.086 61.6323 562.636 61.6836 561.01H57.5967V559.896H67.3232ZM73.1463 562.709C73.1463 564.804 74.0252 567.045 75.783 568.114L75.0066 569.184C73.7762 568.444 72.9412 567.133 72.5018 565.609C72.011 567.279 71.1102 568.7 69.8357 569.477L68.9715 568.437C70.8318 567.323 71.7986 565.009 71.7986 562.768V560.321H73.1463V562.709ZM80.4412 559.12V572.245H79.1082V559.12H80.4412ZM77.7166 559.369V571.601H76.3982V564.892H74.3621V563.734H76.3982V559.369H77.7166ZM93.8229 569.447V570.604H81.8111V569.447H84.6822V566.02C83.6056 565.426 82.9537 564.481 82.9537 563.31C82.9537 561.244 84.9752 559.882 87.7877 559.882C90.6148 559.882 92.6363 561.244 92.6363 563.31C92.6363 564.467 92.0064 565.397 90.9518 565.99V569.447H93.8229ZM87.7877 560.995C85.7223 560.995 84.3014 561.889 84.3014 563.31C84.3014 564.716 85.7223 565.639 87.7877 565.639C89.8385 565.639 91.2887 564.716 91.2887 563.31C91.2887 561.889 89.8385 560.995 87.7877 560.995ZM86.0592 569.447H89.5455V566.518C89.0108 566.657 88.4176 566.723 87.7877 566.723C87.1725 566.723 86.5865 566.657 86.0592 566.532V569.447ZM95.9691 571.103C95.3979 571.103 94.9145 570.634 94.9291 570.062C94.9145 569.491 95.3979 569.022 95.9691 569.022C96.5258 569.022 97.0092 569.491 97.0092 570.062C97.0092 570.634 96.5258 571.103 95.9691 571.103Z" fill="#6B7280"/>
<mask id="mask4_916_852" style="mask-type:alpha" maskUnits="userSpaceOnUse" x="32" y="578" width="20" height="20">
<rect x="32" y="578" width="20" height="20" fill="#D9D9D9"/>
</mask>
<g mask="url(#mask4_916_852)">
<path d="M40.1042 590.312L46.3333 584.083C46.4849 583.93 46.6616 583.854 46.8635 583.854C47.0656 583.854 47.2431 583.93 47.3958 584.083C47.5486 584.235 47.625 584.413 47.625 584.616C47.625 584.818 47.5513 584.993 47.404 585.14L40.6458 591.916C40.4943 592.069 40.3176 592.145 40.1156 592.145C39.9135 592.145 39.7361 592.069 39.5833 591.916L36.6042 588.937C36.4514 588.784 36.375 588.607 36.375 588.406C36.375 588.204 36.4514 588.027 36.6042 587.874C36.7569 587.722 36.9352 587.645 37.139 587.645C37.3426 587.645 37.5185 587.722 37.6667 587.874L40.1042 590.312Z" fill="#FF0000"/>
</g>
<path d="M63.1191 582.424V590.949H56.9814V582.424H63.1191ZM58.3438 583.522V589.821H61.7422V583.522H58.3438ZM66.708 581.12V586.262H68.8174V587.434H66.708V594.245H65.3164V581.12H66.708ZM75.8123 582.98C75.8123 585.119 78.0975 587.141 80.617 587.595L79.9725 588.752C77.8777 588.298 75.9441 586.921 75.0945 585.075C74.2303 586.906 72.304 588.283 70.202 588.752L69.5867 587.595C72.077 587.126 74.3475 585.119 74.3475 582.98V581.984H75.8123V582.98ZM81.159 591.359V592.517H69.1473V591.359H81.159ZM92.3727 582.395V583.991C92.3727 585.91 92.3727 587.712 91.8014 590.437L90.4244 590.305C90.7027 589.104 90.8492 588.049 90.9225 587.067L83.0416 587.492L82.8658 586.35L90.9957 586.042C91.0177 585.339 91.0177 584.665 91.025 583.991V583.537H83.232V582.395H92.3727ZM93.7789 591.345V592.487H81.8111V591.345H93.7789ZM96.8334 591.989L95.6615 596.032H94.4164L95.1928 591.989H96.8334ZM106.004 583.522C106.004 585.295 107.19 587.023 109.168 587.712L108.406 588.796C106.971 588.247 105.901 587.163 105.345 585.793C104.773 587.316 103.653 588.518 102.107 589.104L101.36 588.005C103.396 587.272 104.612 585.456 104.627 583.479V581.926H106.004V583.522ZM112.317 581.135V590.92H110.926V585.266H108.157V584.123H110.926V581.135H112.317ZM112.61 592.839V593.967H103.748V589.821H105.154V592.839H112.61ZM124.527 581.677V582.541C124.527 583.413 124.527 584.511 124.249 585.939H126.051V587.053H114.039V585.939H122.857C123.121 584.606 123.15 583.603 123.15 582.79H115.548V581.677H124.527ZM124.542 588.225V591.667H116.851V593H124.879V594.113H115.46V590.598H123.165V589.338H115.445V588.225H124.542ZM136.927 581.12V586.247H139.037V587.419H136.927V594.274H135.55V581.12H136.927ZM133.221 582.307V587.126H128.622V589.968C130.878 589.96 132.547 589.88 134.466 589.528L134.598 590.656C132.547 591.037 130.775 591.125 128.314 591.14H127.245V585.998H131.844V583.435H127.215V582.307H133.221ZM146.032 582.98C146.032 585.119 148.317 587.141 150.836 587.595L150.192 588.752C148.097 588.298 146.163 586.921 145.314 585.075C144.45 586.906 142.523 588.283 140.421 588.752L139.806 587.595C142.296 587.126 144.567 585.119 144.567 582.98V581.984H146.032V582.98ZM151.378 591.359V592.517H139.367V591.359H151.378ZM155.971 581.955C157.992 581.955 159.501 583.229 159.501 585.075C159.501 586.701 158.329 587.88 156.674 588.137V590.217C157.839 590.166 159.003 590.078 160.087 589.938L160.19 590.979C157.421 591.462 154.36 591.477 152.089 591.462L151.869 590.319C152.887 590.312 154.059 590.305 155.282 590.275V588.137C153.583 587.895 152.426 586.708 152.441 585.075C152.426 583.229 153.905 581.955 155.971 581.955ZM155.971 583.127C154.711 583.142 153.788 583.903 153.788 585.075C153.788 586.247 154.711 587.023 155.971 587.009C157.216 587.023 158.124 586.247 158.139 585.075C158.124 583.903 157.216 583.142 155.971 583.127ZM162.27 581.12V586.452H164.291V587.624H162.27V594.245H160.878V581.12H162.27ZM178.369 581.12V584.079H180.273V585.207H178.369V588.093H176.977V581.12H178.369ZM174.824 582.028C174.824 585.383 172.554 587.507 168.657 588.342L168.071 587.214C171.382 586.547 173.096 585.002 173.286 583.142H168.657V582.028H174.824ZM178.428 588.649V589.704H171.338V590.832H178.281V591.843H171.338V593.029H178.721V594.084H169.946V588.649H178.428ZM191.589 581.12V594.274H190.198V581.12H191.589ZM184.573 582.102C186.521 582.102 187.957 583.889 187.957 586.701C187.957 589.528 186.521 591.315 184.573 591.315C182.595 591.315 181.174 589.528 181.174 586.701C181.174 583.889 182.595 582.102 184.573 582.102ZM184.573 583.347C183.357 583.347 182.522 584.636 182.522 586.701C182.522 588.781 183.357 590.07 184.573 590.07C185.774 590.07 186.609 588.781 186.609 586.701C186.609 584.636 185.774 583.347 184.573 583.347ZM207.674 581.12V587.756H206.297V585.09H203.734C203.448 586.555 202.122 587.536 200.379 587.536C198.387 587.536 196.937 586.291 196.937 584.519C196.937 582.775 198.387 581.545 200.379 581.545C202.122 581.545 203.448 582.512 203.734 583.947H206.297V581.12H207.674ZM200.379 582.688C199.149 582.673 198.27 583.435 198.27 584.519C198.27 585.646 199.149 586.394 200.379 586.394C201.58 586.394 202.459 585.646 202.459 584.519C202.459 583.435 201.58 582.673 200.379 582.688ZM207.674 588.444V591.711H200.511V592.971H208.143V594.084H199.119V590.671H206.297V589.528H199.09V588.444H207.674ZM219.898 581.647V582.497C219.898 583.354 219.898 584.445 219.635 585.808H221.422V586.892H216.075V588.444H219.913V591.726H212.223V593H220.25V594.113H210.831V590.744H218.536V589.543H210.816V588.444H214.698V586.892H209.41V585.808H218.243C218.492 584.526 218.521 583.574 218.521 582.761H210.919V581.647H219.898ZM228.051 581.34C231.01 581.34 232.738 582.131 232.738 583.596C232.738 585.061 231.01 585.866 228.051 585.866C225.092 585.866 223.363 585.061 223.363 583.596C223.363 582.131 225.092 581.34 228.051 581.34ZM228.051 582.365C225.956 582.365 224.799 582.819 224.813 583.596C224.799 584.401 225.956 584.826 228.051 584.826C230.145 584.826 231.303 584.401 231.303 583.596C231.303 582.819 230.145 582.365 228.051 582.365ZM234.042 586.672V587.785H222.074V586.672H234.042ZM232.533 588.796V591.872H224.887V593.044H232.899V594.113H223.524V590.861H231.156V589.836H223.51V588.796H232.533ZM248.325 581.12V586.35H250.361V587.507H248.325V594.23H246.933V581.12H248.325ZM244.897 582.497C244.882 586.291 243.212 589.675 238.891 591.813L238.115 590.729C241.403 589.089 243.19 586.716 243.476 583.654H238.774V582.497H244.897ZM261.662 581.12V594.274H260.271V581.12H261.662ZM257.649 582.307V587.097H252.932V589.968C255.056 589.96 256.916 589.865 259.113 589.499L259.245 590.642C256.916 591.037 254.939 591.125 252.624 591.125H251.511V585.983H256.228V583.435H251.496V582.307H257.649ZM274.048 584.958V586.071H265.01V581.589H266.387V584.958H274.048ZM275.425 587.727V588.84H263.413V587.727H275.425ZM274.136 592.795V593.938H264.907V590.085H266.299V592.795H274.136ZM285.533 589.294C288.243 589.294 289.883 590.202 289.883 591.755C289.883 593.322 288.243 594.23 285.533 594.245C282.794 594.23 281.124 593.322 281.124 591.755C281.124 590.202 282.794 589.294 285.533 589.294ZM285.533 590.393C283.629 590.393 282.501 590.876 282.515 591.755C282.501 592.634 283.629 593.132 285.533 593.132C287.422 593.132 288.521 592.634 288.521 591.755C288.521 590.876 287.422 590.393 285.533 590.393ZM289.766 581.12V584.328H291.671V585.515H289.766V588.957H288.375V581.12H289.766ZM281.329 581.94V583.83H284.771V581.94H286.148V588.034H279.966V581.94H281.329ZM281.329 586.921H284.771V584.929H281.329V586.921ZM298.607 583.288V584.416H292.088V583.288H294.666V581.501H296.043V583.288H298.607ZM295.355 585.207C297.025 585.207 298.197 586.452 298.211 588.225C298.197 590.012 297.025 591.271 295.355 591.271C293.714 591.271 292.498 590.012 292.513 588.225C292.498 586.452 293.714 585.207 295.355 585.207ZM295.355 586.364C294.403 586.364 293.744 587.141 293.744 588.225C293.744 589.338 294.403 590.085 295.355 590.085C296.292 590.085 296.981 589.338 296.981 588.225C296.981 587.141 296.292 586.364 295.355 586.364ZM303.353 581.12V594.245H302.035V587.727H300.526V593.63H299.207V581.413H300.526V586.584H302.035V581.12H303.353ZM316.749 586.555V587.668H311.446V588.811H315.24V591.887H307.594V593.044H315.607V594.113H306.232V590.876H313.863V589.88H306.217V588.811H310.055V587.668H304.781V586.555H316.749ZM315.211 581.545V585.588H306.32V581.545H315.211ZM307.682 582.644V584.489H313.82V582.644H307.682ZM329.413 587.976V589.089H317.445V587.976H329.413ZM328.065 592.839V593.967H318.954V590.158H320.36V592.839H328.065ZM323.422 581.56C326.264 581.545 328.109 582.541 328.109 584.182C328.109 585.837 326.264 586.833 323.422 586.848C320.565 586.833 318.734 585.837 318.734 584.182C318.734 582.541 320.565 581.545 323.422 581.56ZM323.422 582.673C321.415 582.673 320.155 583.244 320.17 584.182C320.155 585.148 321.415 585.705 323.422 585.705C325.429 585.705 326.674 585.148 326.674 584.182C326.674 583.244 325.429 582.673 323.422 582.673ZM67.748 600.12V613.245H66.415V600.12H67.748ZM65.082 600.398V612.586H63.7637V605.906H61.7275V604.764H63.7637V600.398H65.082ZM60.4385 603.782C60.4385 606.023 61.3467 608.265 63.1924 609.334L62.3574 610.359C61.105 609.612 60.2407 608.287 59.7939 606.697C59.3179 608.411 58.4243 609.869 57.1426 610.667L56.293 609.627C58.1533 608.499 59.1055 606.111 59.1055 603.782V602.728H56.6885V601.6H62.6943V602.728H60.4385V603.782ZM80.075 600.12V613.245H78.698V606.463H75.7537V605.32H78.698V600.12H80.075ZM75.7977 601.526C75.783 605.335 74.3035 608.602 69.8504 610.813L69.118 609.715C72.597 608.016 74.1424 605.65 74.3914 602.64H69.7039V601.526H75.7977ZM96.4672 601.57V602.713H85.7885V601.57H90.4613V600.062H91.8383V601.57H96.4672ZM97.185 608.616V609.759H91.8383V613.26H90.4613V609.759H85.1732V608.616H97.185ZM91.1498 603.387C93.8744 603.387 95.515 604.163 95.515 605.599C95.515 607.005 93.8744 607.781 91.1498 607.796C88.4105 607.781 86.7699 607.005 86.7846 605.599C86.7699 604.163 88.4105 603.387 91.1498 603.387ZM91.1498 604.427C89.2602 604.427 88.2201 604.837 88.2201 605.599C88.2201 606.331 89.2602 606.741 91.1498 606.741C93.0248 606.741 94.0648 606.331 94.0795 605.599C94.0648 604.837 93.0248 604.427 91.1498 604.427ZM108.802 601.175V602.2H105.989C106.055 603.145 107.308 603.921 109.095 604.163L108.626 605.174C107.059 604.939 105.887 604.302 105.33 603.416C104.759 604.354 103.565 605.035 101.976 605.291L101.507 604.295C103.309 604.024 104.554 603.196 104.627 602.2H101.814V601.175H104.627V600.076H105.989V601.175H108.802ZM105.989 604.734V605.994C107.139 605.943 108.289 605.855 109.358 605.716L109.461 606.683C106.707 607.137 103.646 607.166 101.331 607.166L101.185 606.097C102.21 606.097 103.396 606.089 104.627 606.053V604.734H105.989ZM111.526 608.045V611.004H104.275V612.059H112.01V613.113H102.884V610.037H110.149V609.07H102.854V608.045H111.526ZM111.526 600.12V603.167H113.401V604.295H111.526V607.503H110.135V600.12H111.526ZM117.496 600.882C118.587 600.875 119.517 601.285 120.133 601.966H123.414V600.12H124.805V607.869H123.414V606.097H120.118C119.51 606.771 118.58 607.173 117.496 607.166C115.518 607.181 114.054 605.862 114.054 604.031C114.054 602.186 115.518 600.867 117.496 600.882ZM117.496 602.083C116.265 602.068 115.387 602.859 115.387 604.031C115.387 605.174 116.265 605.994 117.496 605.979C118.697 605.994 119.576 605.174 119.576 604.031C119.576 602.859 118.697 602.068 117.496 602.083ZM120.411 608.162C123.136 608.162 124.849 609.085 124.849 610.696C124.849 612.293 123.136 613.23 120.411 613.216C117.672 613.23 115.958 612.293 115.972 610.696C115.958 609.085 117.672 608.162 120.411 608.162ZM120.411 609.231C118.492 609.231 117.32 609.759 117.335 610.696C117.32 611.604 118.492 612.117 120.411 612.117C122.345 612.117 123.487 611.604 123.487 610.696C123.487 609.759 122.345 609.231 120.411 609.231ZM120.763 603.079C120.858 603.372 120.909 603.694 120.909 604.031C120.909 604.354 120.858 604.668 120.777 604.954H123.414V603.079H120.763ZM133.016 602.288V603.416H126.498V602.288H129.076V600.501H130.453V602.288H133.016ZM129.764 604.207C131.434 604.207 132.606 605.452 132.621 607.225C132.606 609.012 131.434 610.271 129.764 610.271C128.124 610.271 126.908 609.012 126.922 607.225C126.908 605.452 128.124 604.207 129.764 604.207ZM129.764 605.364C128.812 605.364 128.153 606.141 128.153 607.225C128.153 608.338 128.812 609.085 129.764 609.085C130.702 609.085 131.39 608.338 131.39 607.225C131.39 606.141 130.702 605.364 129.764 605.364ZM137.762 600.12V613.245H136.444V606.727H134.935V612.63H133.617V600.413H134.935V605.584H136.444V600.12H137.762ZM151.159 607.518V608.646H145.827V613.23H144.464V608.646H139.191V607.518H151.159ZM150.031 600.896V602.01H145.973C145.995 603.636 148.017 605.086 150.499 605.423L149.987 606.521C147.833 606.185 145.973 605.123 145.182 603.621C144.369 605.123 142.516 606.185 140.392 606.521L139.865 605.423C142.318 605.086 144.34 603.636 144.391 602.01H140.304V600.896H150.031ZM155.854 603.709C155.854 605.804 156.733 608.045 158.49 609.114L157.714 610.184C156.484 609.444 155.649 608.133 155.209 606.609C154.718 608.279 153.818 609.7 152.543 610.477L151.679 609.437C153.539 608.323 154.506 606.009 154.506 603.768V601.321H155.854V603.709ZM163.149 600.12V613.245H161.816V600.12H163.149ZM160.424 600.369V612.601H159.106V605.892H157.07V604.734H159.106V600.369H160.424ZM176.53 610.447V611.604H164.519V610.447H167.39V607.02C166.313 606.426 165.661 605.481 165.661 604.31C165.661 602.244 167.683 600.882 170.495 600.882C173.322 600.882 175.344 602.244 175.344 604.31C175.344 605.467 174.714 606.397 173.659 606.99V610.447H176.53ZM170.495 601.995C168.43 601.995 167.009 602.889 167.009 604.31C167.009 605.716 168.43 606.639 170.495 606.639C172.546 606.639 173.996 605.716 173.996 604.31C173.996 602.889 172.546 601.995 170.495 601.995ZM168.767 610.447H172.253V607.518C171.718 607.657 171.125 607.723 170.495 607.723C169.88 607.723 169.294 607.657 168.767 607.532V610.447ZM178.677 612.103C178.105 612.103 177.622 611.634 177.637 611.062C177.622 610.491 178.105 610.022 178.677 610.022C179.233 610.022 179.717 610.491 179.717 611.062C179.717 611.634 179.233 612.103 178.677 612.103Z" fill="#6B7280"/>
</svg>
