<svg width="330" height="319" viewBox="0 0 330 319" fill="none" xmlns="http://www.w3.org/2000/svg">
<rect y="0.5" width="330" height="318" rx="20" fill="white"/>
<g clip-path="url(#clip0_911_2801)">
<path d="M302.001 30.1342L296.284 35.8509C296.07 36.0648 295.798 36.1717 295.468 36.1717C295.137 36.1717 294.865 36.0648 294.651 35.8509C294.437 35.637 294.33 35.3648 294.33 35.0342C294.33 34.7037 294.437 34.4315 294.651 34.2176L300.368 28.5009L294.651 22.7842C294.437 22.5704 294.33 22.2981 294.33 21.9676C294.33 21.637 294.437 21.3648 294.651 21.1509C294.865 20.937 295.137 20.8301 295.468 20.8301C295.798 20.8301 296.07 20.937 296.284 21.1509L302.001 26.8676L307.718 21.1509C307.931 20.937 308.204 20.8301 308.534 20.8301C308.865 20.8301 309.137 20.937 309.351 21.1509C309.565 21.3648 309.672 21.637 309.672 21.9676C309.672 22.2981 309.565 22.5704 309.351 22.7842L303.634 28.5009L309.351 34.2176C309.565 34.4315 309.672 34.7037 309.672 35.0342C309.672 35.3648 309.565 35.637 309.351 35.8509C309.137 36.0648 308.865 36.1717 308.534 36.1717C308.204 36.1717 307.931 36.0648 307.718 35.8509L302.001 30.1342Z" fill="#4A4A4A"/>
</g>
<rect x="139.25" y="63.25" width="36.2178" height="48.5" rx="2.25" stroke="#A0C5E8" stroke-width="1.5"/>
<path d="M144.027 71.9159C144.027 71.1986 144.61 70.6172 145.328 70.6172H150.53C151.249 70.6172 151.831 71.1986 151.831 71.9159V77.1107C151.831 77.8279 151.249 78.4094 150.53 78.4094H145.328C144.61 78.4094 144.027 77.8279 144.027 77.1107V71.9159Z" fill="#C8DDF6"/>
<path d="M156.059 71.915C156.059 71.5563 156.35 71.2656 156.709 71.2656H170.04C170.399 71.2656 170.69 71.5563 170.69 71.915C170.69 72.2736 170.399 72.5643 170.04 72.5643H156.709C156.35 72.5643 156.059 72.2736 156.059 71.915Z" fill="#C8DDF6"/>
<path d="M156.059 76.4619C156.059 76.1032 156.35 75.8125 156.709 75.8125H162.237C162.596 75.8125 162.887 76.1032 162.887 76.4619C162.887 76.8205 162.596 77.1112 162.237 77.1112H156.709C156.35 77.1112 156.059 76.8205 156.059 76.4619Z" fill="#C8DDF6"/>
<path d="M144.027 84.9022C144.027 84.185 144.61 83.6035 145.328 83.6035H150.53C151.249 83.6035 151.831 84.185 151.831 84.9022V90.097C151.831 90.8143 151.249 91.3957 150.53 91.3957H145.328C144.61 91.3957 144.027 90.8143 144.027 90.097V84.9022Z" fill="#C8DDF6"/>
<path d="M156.059 84.9013C156.059 84.5427 156.35 84.252 156.709 84.252H170.04C170.399 84.252 170.69 84.5427 170.69 84.9013C170.69 85.2599 170.399 85.5507 170.04 85.5507H156.709C156.35 85.5507 156.059 85.2599 156.059 84.9013Z" fill="#C8DDF6"/>
<path d="M156.059 89.4482C156.059 89.0896 156.35 88.7988 156.709 88.7988H162.237C162.596 88.7988 162.887 89.0896 162.887 89.4482C162.887 89.8068 162.596 90.0975 162.237 90.0975H156.709C156.35 90.0975 156.059 89.8068 156.059 89.4482Z" fill="#C8DDF6"/>
<path d="M144.027 97.8905C144.027 97.1732 144.61 96.5918 145.328 96.5918H150.53C151.249 96.5918 151.831 97.1732 151.831 97.8905V103.085C151.831 103.803 151.249 104.384 150.53 104.384H145.328C144.61 104.384 144.027 103.803 144.027 103.085V97.8905Z" fill="#0073F1"/>
<path d="M156.059 97.8896C156.059 97.531 156.35 97.2402 156.709 97.2402H163.862C164.221 97.2402 164.513 97.531 164.513 97.8896C164.513 98.2482 164.221 98.5389 163.862 98.5389H156.709C156.35 98.5389 156.059 98.2482 156.059 97.8896Z" fill="#0073F1"/>
<path d="M156.059 102.436C156.059 102.078 156.35 101.787 156.709 101.787H162.237C162.596 101.787 162.887 102.078 162.887 102.436C162.887 102.795 162.596 103.086 162.237 103.086H156.709C156.35 103.086 156.059 102.795 156.059 102.436Z" fill="#0073F1"/>
<path d="M149.82 99.1146C149.951 98.9923 150.157 98.9994 150.28 99.1305C150.402 99.2616 150.395 99.4673 150.264 99.5896L147.825 101.862C147.702 101.977 147.511 101.979 147.386 101.866L145.76 100.405L145.736 100.382C145.626 100.26 145.623 100.072 145.736 99.9466C145.848 99.8217 146.036 99.8044 146.169 99.9016L146.195 99.9225L147.599 101.184L149.82 99.1146Z" fill="white"/>
<path d="M165.568 102.5L168.831 95.167C168.944 94.9132 169.275 94.849 169.475 95.0421L173.827 99.2516C174.034 99.4522 173.967 99.7997 173.7 99.9092L166.085 103.032C165.751 103.169 165.421 102.829 165.568 102.5Z" fill="#FDDCCB"/>
<path d="M166.999 102.676L166.059 103.051C165.728 103.183 165.402 102.849 165.543 102.522L165.919 101.646C166.027 101.395 166.348 101.324 166.552 101.505L167.116 102.005C167.339 102.203 167.275 102.565 166.999 102.676Z" fill="#C2C8D3"/>
<rect width="24.4202" height="8.13262" rx="0.4" transform="matrix(0.704981 -0.709226 0.710263 0.703937 168.576 94.4316)" fill="#68D88F"/>
<path d="M75.0609 145.066V148.348H78.6156V143.602H80.7836V156.453H78.6156V150.086H75.0609V153.445H66.7602V145.066H75.0609ZM68.9281 151.727H72.9125V146.785H68.9281V151.727ZM69.2016 160.887V155.242H71.3695V159.129H81.2328V160.887H69.2016ZM97.6883 143.582V161.258H95.5203V151.609H92.1219V149.832H95.5203V143.582H97.6883ZM82.6492 156.18C85.4715 154.842 87.1414 151.502 87.1609 148.27V147.098H83.3719V145.32H93.157V147.098H89.368V148.27C89.368 151.326 91.0184 154.549 93.8602 155.789L92.5711 157.527C90.5203 156.551 89.0555 154.588 88.284 152.254C87.5125 154.744 86.0086 156.844 83.9578 157.879L82.6492 156.18ZM120.209 153.426V155.184H113.197V161.219H111.048V155.184H104.115V153.426H120.209ZM104.955 150.535C108.421 150.096 110.746 148.23 110.902 146.297H105.599V144.578H118.724V146.297H113.421C113.568 148.23 115.873 150.096 119.369 150.535L118.587 152.234C115.58 151.805 113.236 150.428 112.162 148.523C111.078 150.428 108.754 151.805 105.775 152.234L104.955 150.535ZM130.414 145.047V153.445H121.898V145.047H130.414ZM124.027 160.77V155.008H126.215V159.012H136.195V160.77H124.027ZM124.047 151.707H128.266V146.785H124.047V151.707ZM133.52 156.199V143.602H135.707V156.199H133.52ZM152.983 143.582V156.805H150.912V143.582H152.983ZM137.768 152.781C140.121 151.639 141.225 149.295 141.225 147.195V144.793H143.334V147.195C143.334 149.256 144.35 151.307 146.596 152.312L145.385 153.992C143.901 153.299 142.885 152.107 142.299 150.672C141.674 152.293 140.571 153.67 138.959 154.422L137.768 152.781ZM141.166 160.887V155.223H143.334V159.129H153.471V160.887H141.166ZM145.014 149.559V147.781H147.377V143.895H149.448V156.277H147.377V149.559H145.014ZM169.575 143.582V161.258H167.427V151.727H164.106V149.969H167.427V143.582H169.575ZM155.571 157.195V145.105H163.833V146.883H157.759V150.047H163.13V151.766H157.759V155.398C160.444 155.389 162.456 155.291 164.731 154.93L164.946 156.688C162.378 157.078 160.112 157.176 156.958 157.195H155.571ZM186.89 143.582V161.238H184.8V143.582H186.89ZM171.831 151.219C171.831 147.332 173.335 144.92 175.64 144.93C177.779 144.92 179.234 146.922 179.487 150.223H181.187V143.895H183.257V160.379H181.187V151.98H179.507C179.302 155.428 177.827 157.537 175.64 157.527C173.335 157.537 171.831 155.115 171.831 151.219ZM173.843 151.219C173.833 153.982 174.517 155.467 175.64 155.457C176.812 155.467 177.505 153.982 177.515 151.219C177.505 148.465 176.812 146.971 175.64 146.98C174.517 146.971 173.833 148.465 173.843 151.219ZM201.07 154.48C204.732 154.48 206.979 155.721 206.988 157.84C206.979 159.988 204.732 161.229 201.07 161.238C197.379 161.229 195.094 159.988 195.094 157.84C195.094 155.721 197.379 154.48 201.07 154.48ZM193.492 152.938V144.695H195.641V147.078H199.762V144.695H201.91V152.938H193.492ZM195.641 151.219H199.762V148.777H195.641V151.219ZM197.262 157.84C197.262 158.934 198.648 159.529 201.07 159.52C203.482 159.529 204.84 158.934 204.84 157.84C204.84 156.746 203.482 156.189 201.07 156.18C198.648 156.189 197.262 156.746 197.262 157.84ZM204.645 154.051V143.582H206.812V147.801H209.273V149.617H206.812V154.051H204.645ZM225.885 152.41V154.148H219.069V157.391H216.92V154.148H209.752V152.41H225.885ZM211.705 160.887V155.77H213.873V159.129H224.108V160.887H211.705ZM211.803 150.77V144.383H223.815V150.77H211.803ZM213.913 149.07H221.666V146.082H213.913V149.07ZM240.583 143.602V149.148H243.044V150.945H240.583V156.785H238.415V143.602H240.583ZM226.677 147.293V145.555H230.837V143.582H233.005V145.555H237.145V147.293H226.677ZM227.575 151.395C227.575 149.363 229.343 148.016 231.911 148.016C234.46 148.016 236.218 149.363 236.227 151.395C236.218 153.416 234.46 154.734 231.911 154.734C229.343 154.734 227.575 153.416 227.575 151.395ZM229.274 160.887V155.75H231.442V159.129H241.286V160.887H229.274ZM229.684 151.395C229.675 152.459 230.573 153.064 231.911 153.055C233.249 153.064 234.157 152.459 234.157 151.395C234.157 150.32 233.249 149.695 231.911 149.695C230.573 149.695 229.675 150.32 229.684 151.395ZM263.103 145.477V147.234H248.689V145.477H254.841V143.543H256.99V145.477H263.103ZM247.888 156.766V154.988H264.021V156.766H256.99V161.258H254.841V156.766H247.888ZM249.939 151.023C249.939 149.09 252.185 148.035 255.916 148.035C259.646 148.035 261.892 149.09 261.892 151.023C261.892 152.947 259.646 154.012 255.916 154.012C252.185 154.012 249.939 152.947 249.939 151.023ZM252.205 151.023C252.195 151.932 253.474 152.4 255.916 152.391C258.347 152.4 259.636 151.932 259.646 151.023C259.636 150.125 258.347 149.656 255.916 149.656C253.474 149.656 252.195 150.125 252.205 151.023ZM52.8531 171.602V184.492H50.6656V171.602H52.8531ZM38.1656 180.332C41.027 179.326 42.4918 176.836 42.482 174.297V172.578H44.7281V174.297C44.7184 176.758 46.1637 179.082 48.9664 180.02L47.8531 181.738C45.8414 181.035 44.4059 179.629 43.6246 177.822C42.8434 179.756 41.3785 181.299 39.2984 182.051L38.1656 180.332ZM41.1734 188.887V183.262H43.3609V187.129H53.3414V188.887H41.1734ZM61.3789 175.352C61.3691 177.285 62.8828 179.189 65.6562 179.941L64.6406 181.621C62.6094 181.064 61.1445 179.883 60.334 178.35C59.5625 180.078 58.0977 181.445 55.9883 182.07L54.9727 180.391C57.7363 179.551 59.2109 177.48 59.2109 175.352V175.254H55.5195V173.535H59.2109V171.504H61.3984V173.535H65.0703V175.254H61.3789V175.352ZM57.8438 185.898C57.8242 183.799 60.1289 182.617 63.8398 182.617C67.5703 182.617 69.8652 183.799 69.875 185.898C69.8652 187.998 67.5703 189.219 63.8398 189.219C60.1289 189.219 57.8242 187.998 57.8438 185.898ZM59.9922 185.898C59.9824 186.943 61.3887 187.539 63.8398 187.539C66.3398 187.539 67.707 186.943 67.707 185.898C67.707 184.844 66.3398 184.287 63.8398 184.277C61.3887 184.287 59.9824 184.844 59.9922 185.898ZM64.543 178.184V176.426H67.6484V171.582H69.8164V182.266H67.6484V178.184H64.543ZM78.4398 175.82C78.4301 179.102 80.0023 182.324 82.8148 183.555L81.5063 185.293C79.5141 184.316 78.1078 182.441 77.3559 180.127C76.5844 182.568 75.1391 184.6 73.1078 185.625L71.7406 183.867C74.6215 182.52 76.223 179.121 76.2328 175.82V173.008H78.4398V175.82ZM80.8617 179.043V177.285H84.5727V171.582H86.7211V189.258H84.5727V179.043H80.8617ZM104.915 179.59V181.23H88.782V179.59H104.915ZM90.657 183.809V182.285H102.962V186.309H92.8445V187.539H103.489V189.043H90.6766V184.902H100.813V183.809H90.657ZM90.7742 173.477V171.973H102.923V175.957H92.9812V177.109H103.235V178.594H90.8328V174.551H100.755V173.477H90.7742ZM116.361 174.648C116.361 176.826 117.757 178.965 120.541 179.883L119.447 181.562C117.464 180.898 116.068 179.58 115.296 177.93C114.515 179.736 113.05 181.172 110.99 181.875L109.838 180.195C112.679 179.248 114.173 176.963 114.173 174.648V174.434H110.443V172.695H120.033V174.434H116.361V174.648ZM112.201 184.785V183.047H123.959V189.238H121.791V184.785H112.201ZM121.791 182.227V171.582H123.959V175.996H126.42V177.812H123.959V182.227H121.791ZM133.383 174.121C133.373 176.523 134.779 178.721 137.543 179.59L136.371 181.289C134.447 180.605 133.1 179.316 132.348 177.646C131.566 179.57 130.092 181.084 127.953 181.836L126.801 180.078C129.721 179.121 131.186 176.768 131.195 174.219V172.539H133.383V174.121ZM129.73 185.84C129.711 183.691 132.006 182.432 135.727 182.441C139.467 182.432 141.752 183.691 141.762 185.84C141.752 187.988 139.467 189.219 135.727 189.219C132.006 189.219 129.711 187.988 129.73 185.84ZM131.879 185.84C131.869 186.914 133.275 187.51 135.727 187.52C138.197 187.51 139.594 186.914 139.594 185.84C139.594 184.727 138.197 184.131 135.727 184.121C133.275 184.131 131.869 184.727 131.879 185.84ZM136.02 176.777V175H139.535V171.582H141.703V181.973H139.535V176.777H136.02ZM157.631 171.582V178.613H160.346V180.41H157.631V189.238H155.483V171.582H157.631ZM143.705 176.035V174.297H147.885V171.836H150.053V174.297H154.116V176.035H143.705ZM144.526 181.348C144.506 178.906 146.401 177.178 148.979 177.188C151.518 177.178 153.403 178.906 153.413 181.348C153.403 183.779 151.518 185.488 148.979 185.488C146.401 185.488 144.506 183.779 144.526 181.348ZM146.596 181.348C146.586 182.783 147.592 183.701 148.979 183.691C150.336 183.701 151.323 182.783 151.342 181.348C151.323 179.912 150.336 178.965 148.979 178.965C147.592 178.965 146.586 179.912 146.596 181.348ZM165.513 172.871C167.104 172.871 168.423 173.76 169.214 175.312H173.345V171.582H175.493V189.258H173.345V182.578H169.37C168.598 184.336 167.212 185.352 165.513 185.352C162.856 185.352 160.971 182.939 160.981 179.102C160.971 175.293 162.856 172.871 165.513 172.871ZM163.071 179.102C163.061 181.816 164.057 183.389 165.513 183.398C166.977 183.389 167.964 181.816 167.973 179.102C167.964 176.406 166.977 174.824 165.513 174.824C164.057 174.824 163.061 176.406 163.071 179.102ZM169.829 177.09C169.956 177.705 170.024 178.379 170.024 179.102C170.024 179.707 169.975 180.283 169.878 180.82H173.345V177.09H169.829ZM197.115 171.582V189.238H195.045V171.582H197.115ZM181.607 184.219C184.156 182.666 185.279 179.482 185.279 176.406V175.234H182.212V173.477H190.22V175.234H187.369V176.406C187.369 179.385 188.433 182.373 190.962 183.828L189.673 185.43C188.043 184.463 186.959 182.783 186.343 180.771C185.718 182.949 184.595 184.805 182.935 185.84L181.607 184.219ZM188.931 179.492V177.734H191.47V171.914H193.521V188.379H191.47V179.492H188.931ZM214.859 179.219V180.82H207.906V182.109H212.887V186.25H202.848V187.461H213.375V189.082H200.719V184.766H210.758V183.672H200.699V182.109H205.758V180.82H198.844V179.219H214.859ZM199.547 177.012C203.033 176.836 205.084 175.898 205.533 174.648H200.387V173.027H205.758V171.543H207.906V173.027H213.316V174.648H208.131C208.561 175.898 210.611 176.836 214.137 177.012L213.492 178.633C210.318 178.438 207.945 177.578 206.832 176.152C205.719 177.578 203.355 178.438 200.152 178.633L199.547 177.012ZM224.303 174.395V176.133H215.651V174.395H218.932V172.09H221.08V174.395H224.303ZM216.159 181.172C216.139 178.77 217.77 177.061 220.006 177.07C222.252 177.061 223.854 178.77 223.854 181.172C223.854 183.623 222.252 185.332 220.006 185.332C217.77 185.332 216.139 183.623 216.159 181.172ZM218.073 181.172C218.063 182.598 218.864 183.486 220.006 183.477C221.139 183.486 221.94 182.598 221.94 181.172C221.94 179.785 221.139 178.867 220.006 178.867C218.864 178.867 218.063 179.785 218.073 181.172ZM225.045 188.438V171.953H227.077V178.848H228.795V171.582H230.866V189.238H228.795V180.605H227.077V188.438H225.045ZM253.015 181.426V183.184H246.003V189.219H243.855V183.184H236.921V181.426H253.015ZM237.761 178.535C241.228 178.096 243.552 176.23 243.708 174.297H238.405V172.578H251.53V174.297H246.228C246.374 176.23 248.679 178.096 252.175 178.535L251.394 180.234C248.386 179.805 246.042 178.428 244.968 176.523C243.884 178.428 241.56 179.805 238.581 180.234L237.761 178.535ZM259.314 176.211C259.324 179.062 260.3 182.031 262.693 183.535L261.502 185.195C259.91 184.238 258.875 182.598 258.289 180.674C257.654 182.793 256.521 184.59 254.861 185.605L253.513 183.984C256.082 182.432 257.214 179.316 257.224 176.309V173.145H259.314V176.211ZM260.798 179.453V177.656H263.318V171.895H265.369V188.379H263.318V179.453H260.798ZM266.951 189.238V171.582H269.041V189.238H266.951ZM286.824 185.312V187.09H270.691V185.312H274.422V180.85C273.016 180.039 272.166 178.77 272.176 177.207C272.166 174.395 274.92 172.539 278.719 172.539C282.537 172.539 285.311 174.395 285.301 177.207C285.311 178.75 284.48 179.99 283.113 180.801V185.312H286.824ZM274.305 177.207C274.295 179.014 276.082 180.166 278.719 180.156C281.346 180.166 283.172 179.014 283.172 177.207C283.172 175.371 281.346 174.248 278.719 174.258C276.082 174.248 274.295 175.371 274.305 177.207ZM276.57 185.312H280.906V181.631C280.232 181.777 279.5 181.855 278.719 181.855C277.957 181.855 277.234 181.777 276.57 181.641V185.312ZM289.725 187.656C288.885 187.656 288.192 186.973 288.202 186.133C288.192 185.312 288.885 184.639 289.725 184.629C290.536 184.639 291.229 185.312 291.229 186.133C291.229 186.973 290.536 187.656 289.725 187.656Z" fill="black"/>
<rect x="14.5" y="255" width="301" height="49" rx="7.5" fill="black"/>
<rect x="14.5" y="255" width="301" height="49" rx="7.5" stroke="black"/>
<path d="M162.252 272.553V276.969H164.377V278.264H162.252V282.563H160.675V272.553H162.252ZM150.448 280.903C151.602 280.903 152.938 280.903 154.333 280.87V279.866C152.64 279.675 151.561 278.878 151.577 277.683C151.561 276.321 152.98 275.475 155.113 275.491C157.247 275.475 158.641 276.321 158.649 277.683C158.641 278.87 157.587 279.667 155.91 279.866V280.812C157.238 280.746 158.583 280.638 159.828 280.455L159.961 281.584C156.765 282.14 153.237 282.165 150.614 282.165L150.448 280.903ZM150.83 274.993V273.814H154.333V272.42H155.91V273.814H159.413V274.993H150.83ZM152.308 284.489V283.261H162.252V287.411H160.675V284.489H152.308ZM153.071 277.683C153.071 278.38 153.843 278.836 155.113 278.828C156.367 278.836 157.147 278.38 157.139 277.683C157.147 276.969 156.367 276.554 155.113 276.57C153.843 276.554 153.071 276.969 153.071 277.683ZM177.575 272.553V283.36H175.998V272.553H177.575ZM165.539 277.234C165.547 275.084 167.257 273.557 169.507 273.549C171.748 273.557 173.458 275.084 173.458 277.234C173.458 279.417 171.748 280.937 169.507 280.937C167.257 280.937 165.547 279.417 165.539 277.234ZM167.083 277.234C167.075 278.637 168.121 279.559 169.507 279.559C170.868 279.559 171.914 278.637 171.914 277.234C171.914 275.865 170.868 274.927 169.507 274.927C168.121 274.927 167.075 275.865 167.083 277.234ZM167.847 287.096V282.265H169.44V285.817H178.023V287.096H167.847Z" fill="white"/>
<defs>
<clipPath id="clip0_911_2801">
<rect width="302" height="28" fill="white" transform="translate(14 14.5)"/>
</clipPath>
</defs>
</svg>
