<svg width="400" height="86" viewBox="0 0 400 86" fill="none" xmlns="http://www.w3.org/2000/svg">
<rect width="400" height="86" fill="white"/>
<rect x="20" width="360" height="56" rx="8" fill="#0077FA"/>
<path d="M182.615 19.7441V35.4941H181.033V19.7441H182.615ZM168.992 30.9414C172.341 28.9551 173.94 26.3096 174.23 23.0664H169.766V21.6953H175.883C175.883 22.5039 175.821 23.2861 175.698 24.0508H177.816V20.1484H179.398V34.7207H177.816V29.3594H175.127V27.9883H177.816V25.4219H175.391C174.626 28.0674 172.947 30.3701 169.977 32.1367L168.992 30.9414ZM199.033 27.5664V28.9375H184.637V27.5664H190.982V25.2637H192.635V27.5664H199.033ZM185.463 24.8066C188.478 24.4199 190.956 22.6445 190.965 20.6582V19.9902H192.652V20.6582C192.644 22.6709 195.113 24.4199 198.154 24.8066L197.504 26.125C195.008 25.7207 192.802 24.5078 191.8 22.7676C190.798 24.5078 188.592 25.7207 186.078 26.125L185.463 24.8066ZM186.236 31.6445V30.3262H197.24V35.4941H195.553V31.6445H186.236ZM206.029 23.0312C206.029 25.0703 207.532 26.9863 209.967 27.7598L209.105 29.0605C207.295 28.4629 205.933 27.2236 205.212 25.6504C204.509 27.3643 203.103 28.7178 201.23 29.377L200.369 28.0586C202.821 27.2236 204.333 25.1846 204.342 23.0312V22.3457H200.809V20.9922H209.492V22.3457H206.029V23.0312ZM202.953 35.1602V30.168H204.641V33.8066H213.729V35.1602H202.953ZM211.584 31.2578V19.7617H213.254V31.2578H211.584ZM229.18 19.7441V29.6758H227.598V25.2812H225.77V29.1309H224.205V20.043H225.77V23.9102H227.598V19.7441H229.18ZM215.662 22.8555V21.5371H218.844V19.8672H220.496V21.5371H223.625V22.8555H215.662ZM216.277 26.3008C216.277 24.666 217.684 23.5938 219.652 23.5938C221.665 23.5938 223.062 24.666 223.062 26.3008C223.062 27.9355 221.665 29.0078 219.652 29.0078C217.684 29.0078 216.277 27.9355 216.277 26.3008ZM217.771 26.3008C217.771 27.1973 218.536 27.7861 219.652 27.7949C220.786 27.7861 221.56 27.1973 221.551 26.3008C221.56 25.4043 220.786 24.8154 219.652 24.8242C218.536 24.8154 217.771 25.4043 217.771 26.3008ZM218.58 32.6992C218.562 30.915 220.566 29.9043 223.906 29.9043C227.255 29.9043 229.259 30.915 229.268 32.6992C229.259 34.4658 227.255 35.4678 223.906 35.459C220.566 35.4678 218.562 34.4658 218.58 32.6992ZM220.232 32.6992C220.215 33.6484 221.568 34.1934 223.906 34.1758C226.253 34.1934 227.589 33.6484 227.598 32.6992C227.589 31.7061 226.253 31.1787 223.906 31.1875C221.568 31.1787 220.215 31.7061 220.232 32.6992Z" fill="white"/>
</svg>
