<svg width="400" height="80" viewBox="0 0 400 80" fill="none" xmlns="http://www.w3.org/2000/svg">
<rect width="400" height="80" fill="white"/>
<rect x="20" width="360" height="50" rx="8" fill="#0077FA"/>
<path d="M183.831 18.0361V32.9111H182.337V18.0361H183.831ZM170.965 28.6113C174.127 26.7354 175.638 24.2368 175.912 21.1738H171.695V19.8789H177.473C177.473 20.6426 177.415 21.3813 177.298 22.1035H179.299V18.418H180.793V32.1807H179.299V27.1172H176.759V25.8223H179.299V23.3984H177.008C176.286 25.897 174.7 28.0718 171.895 29.7402L170.965 28.6113ZM199.337 25.4238V26.7188H185.74V25.4238H191.733V23.249H193.294V25.4238H199.337ZM186.521 22.8174C189.368 22.4521 191.708 20.7754 191.717 18.8994V18.2686H193.311V18.8994C193.302 20.8003 195.635 22.4521 198.507 22.8174L197.893 24.0625C195.535 23.6807 193.452 22.5352 192.505 20.8916C191.559 22.5352 189.476 23.6807 187.102 24.0625L186.521 22.8174ZM187.251 29.2754V28.0303H197.644V32.9111H196.05V29.2754H187.251ZM205.944 21.1406C205.944 23.0664 207.364 24.876 209.663 25.6064L208.85 26.835C207.14 26.2705 205.853 25.1001 205.172 23.6143C204.508 25.2329 203.18 26.5112 201.412 27.1338L200.599 25.8887C202.915 25.1001 204.342 23.1743 204.351 21.1406V20.4932H201.014V19.2148H209.215V20.4932H205.944V21.1406ZM203.039 32.5957V27.8809H204.633V31.3174H213.216V32.5957H203.039ZM211.19 28.9102V18.0527H212.768V28.9102H211.19ZM227.809 18.0361V27.416H226.314V23.2656H224.588V26.9014H223.11V18.3184H224.588V21.9707H226.314V18.0361H227.809ZM215.042 20.9746V19.7295H218.047V18.1523H219.607V19.7295H222.562V20.9746H215.042ZM215.623 24.2285C215.623 22.6846 216.951 21.6719 218.811 21.6719C220.711 21.6719 222.031 22.6846 222.031 24.2285C222.031 25.7725 220.711 26.7852 218.811 26.7852C216.951 26.7852 215.623 25.7725 215.623 24.2285ZM217.034 24.2285C217.034 25.0752 217.756 25.6313 218.811 25.6396C219.881 25.6313 220.612 25.0752 220.604 24.2285C220.612 23.3818 219.881 22.8257 218.811 22.834C217.756 22.8257 217.034 23.3818 217.034 24.2285ZM217.798 30.2715C217.781 28.5864 219.674 27.6318 222.828 27.6318C225.991 27.6318 227.883 28.5864 227.892 30.2715C227.883 31.9399 225.991 32.8862 222.828 32.8779C219.674 32.8862 217.781 31.9399 217.798 30.2715ZM219.358 30.2715C219.342 31.168 220.62 31.6826 222.828 31.666C225.044 31.6826 226.306 31.168 226.314 30.2715C226.306 29.3335 225.044 28.8354 222.828 28.8438C220.62 28.8354 219.342 29.3335 219.358 30.2715Z" fill="white"/>
</svg>
