<svg width="400" height="80" viewBox="0 0 400 80" fill="none" xmlns="http://www.w3.org/2000/svg">
<rect width="400" height="80" fill="white"/>
<rect x="20" width="360" height="50" rx="8" fill="#0077FA"/>
<path d="M176.51 21.8213C176.493 24.5356 178.137 27.2749 180.444 28.2959L179.498 29.541C177.788 28.7275 176.435 27.0591 175.738 25.0254C175.049 27.2085 173.679 29.0015 171.895 29.873L170.932 28.5449C173.272 27.5073 174.916 24.6602 174.916 21.8213V19.2812H176.51V21.8213ZM181.789 32.9443V18.0361H183.366V32.9443H181.789ZM190.937 20.709C190.928 22.6099 192.248 24.4111 194.522 25.1748L193.726 26.4033C192.041 25.8223 190.804 24.6602 190.156 23.1992C189.509 24.8013 188.214 26.0713 186.471 26.6855L185.624 25.457C187.948 24.6685 189.351 22.7427 189.359 20.6924V20.2939H186.089V19.0156H194.141V20.2939H190.937V20.709ZM187.6 29.0098V27.7314H197.428V32.9111H195.851V29.0098H187.6ZM195.851 27.001V18.0361H197.428V21.8545H199.586V23.1826H197.428V27.001H195.851ZM212.021 18.0361V24.0625H214.411V25.374H212.021V32.9111H210.46V18.0361H212.021ZM200.35 21.6553V20.3604H204.019V18.2354H205.596V20.3604H209.165V21.6553H200.35ZM201.113 26.2041C201.113 24.1787 202.674 22.751 204.815 22.751C206.949 22.751 208.509 24.1787 208.518 26.2041C208.509 28.2461 206.949 29.6655 204.815 29.6738C202.674 29.6655 201.113 28.2461 201.113 26.2041ZM202.624 26.2041C202.616 27.499 203.545 28.3623 204.815 28.3457C206.077 28.3623 206.999 27.499 207.007 26.2041C206.999 24.9341 206.077 24.0542 204.815 24.0459C203.545 24.0542 202.616 24.9341 202.624 26.2041ZM227.493 18.0361V32.9111H225.899V18.0361H227.493ZM215.274 28.9268C219.226 27.0425 221.16 24.3613 221.467 20.8916H215.988V19.6299H223.061C223.061 23.9878 221.209 27.7563 216.104 30.2051L215.274 28.9268Z" fill="white"/>
</svg>
