<svg width="280" height="280" viewBox="0 0 280 280" fill="none" xmlns="http://www.w3.org/2000/svg">
<g clip-path="url(#clip0_912_4690)">
<rect width="280" height="280" rx="140" fill="black"/>
<g opacity="0.6">
<path d="M279.42 -1.21885e-05L0.580078 0L0.580093 348.547L279.42 348.547L279.42 -1.21885e-05Z" fill="#6B7280"/>
<path d="M-37.25 362.436C-37.25 292.741 11.5045 236.258 71.6622 236.258H208.338C268.495 236.258 317.25 292.741 317.25 362.436" fill="#DDDDDD"/>
<path d="M203.782 250.001L188.355 223.639H140.936H139.028H91.6081L76.1816 250.001L115.178 301.076L139.982 266.74L164.785 301.076L203.782 250.001Z" fill="#CCCCCC"/>
<path d="M180.885 228.266H140.795H139.166H99.0762L139.981 262.044L180.885 228.266Z" fill="#D69F99"/>
<path d="M108.244 230.356V179.746H171.718V230.356" fill="#D69F99"/>
<path d="M123.429 108.835L100.789 150.936L75.5902 134.384C75.5902 134.384 47.7387 81.8675 93.4133 65.7337C93.4133 65.7337 104.908 31.8851 141.973 29.4441C179.062 27.0264 229.39 49.8323 222.456 108.533L123.429 108.812V108.835Z" fill="#353535"/>
<path d="M190.346 115.924H215.103C228.761 115.924 239.859 126.99 239.859 140.659C239.859 154.306 228.784 165.395 215.103 165.395H190.346V115.947V115.924Z" fill="#E2A9A1"/>
<path d="M206.562 153.399H215.078C222.105 153.399 227.829 147.68 227.829 140.66C227.829 133.639 222.105 127.92 215.078 127.92H206.562" fill="#C98887"/>
<path d="M212.821 133.43V77.496C212.821 77.496 178.176 66.0117 155.001 66.0117C125.73 66.0117 101.555 87.7483 97.7159 115.924H88.8975C75.2393 115.924 64.1406 126.99 64.1406 140.66C64.1406 154.329 75.2161 165.395 88.8975 165.395H98.5303C104.231 191.293 127.336 210.682 154.978 210.682C186.901 210.682 212.798 184.807 212.798 152.911V146.1" fill="#FFBBAE"/>
<path d="M97.4132 127.896H88.8972C81.8703 127.896 76.1465 133.615 76.1465 140.636C76.1465 147.657 81.8703 153.376 88.8972 153.376H97.4132" fill="#C98887"/>
<path d="M146.778 142.38C146.778 144.821 142.683 146.797 137.611 146.797C132.538 146.797 128.443 144.821 128.443 142.38C128.443 139.939 132.538 137.963 137.611 137.963C142.683 137.963 146.778 139.939 146.778 142.38Z" fill="#FF8882"/>
<path d="M210.62 142.38C210.62 144.821 206.525 146.797 201.453 146.797C196.38 146.797 192.285 144.821 192.285 142.38C192.285 139.939 196.38 137.963 201.453 137.963C206.525 137.963 210.62 139.939 210.62 142.38Z" fill="#FF8882"/>
<path d="M149.339 134.988C151.896 134.988 153.97 131.813 153.97 127.897C153.97 123.981 151.896 120.807 149.339 120.807C146.782 120.807 144.709 123.981 144.709 127.897C144.709 131.813 146.782 134.988 149.339 134.988Z" fill="#353535"/>
<path d="M191.802 135.454C194.359 135.454 196.432 132.28 196.432 128.364C196.432 124.448 194.359 121.273 191.802 121.273C189.245 121.273 187.172 124.448 187.172 128.364C187.172 132.28 189.245 135.454 191.802 135.454Z" fill="#353535"/>
<path d="M183.24 169.232C182.984 169.232 182.751 169.279 182.519 169.395C170.861 174.719 153.178 169.372 152.992 169.325C152.084 169.046 151.084 169.558 150.805 170.465C150.525 171.371 151.037 172.371 151.968 172.65C152.736 172.882 171.117 178.462 183.984 172.58C184.869 172.185 185.241 171.139 184.845 170.279C184.543 169.628 183.915 169.256 183.263 169.256L183.24 169.232Z" fill="#C98887"/>
<path d="M172.118 154.238C171.211 154.238 170.443 153.517 170.373 152.587C170.327 151.634 171.048 150.797 172.025 150.751C175.329 150.565 175.957 149.24 176.167 148.798C177.819 145.38 173.677 137.453 170.699 133.268C170.141 132.478 170.327 131.385 171.118 130.827C171.909 130.27 172.979 130.456 173.561 131.246C174.468 132.525 182.379 143.939 179.331 150.309C178.168 152.703 175.795 154.029 172.235 154.238C172.211 154.238 172.165 154.238 172.142 154.238H172.118Z" fill="#C98887"/>
<path d="M157.016 114.019C156.737 114.019 156.458 113.949 156.202 113.81C156.109 113.763 150.222 110.741 142.102 112.787C141.171 113.019 140.217 112.461 139.984 111.508C139.752 110.578 140.31 109.625 141.264 109.393C150.78 107.021 157.575 110.578 157.854 110.741C158.692 111.206 159.017 112.252 158.552 113.112C158.249 113.693 157.645 114.042 157.016 114.042V114.019Z" fill="#353535"/>
<path d="M184.148 114.019C183.52 114.019 182.915 113.693 182.612 113.089C182.17 112.252 182.473 111.183 183.333 110.741C183.613 110.578 190.407 107.021 199.923 109.393C200.854 109.625 201.436 110.578 201.203 111.508C200.97 112.438 200.016 113.019 199.086 112.787C190.942 110.764 185.055 113.786 184.985 113.81C184.73 113.949 184.45 114.019 184.171 114.019H184.148Z" fill="#353535"/>
<path d="M122.148 68.3374C122.148 68.3374 143.345 96.8623 182.248 88.7721C221.152 80.6819 215.94 40.324 215.94 40.324L198.419 33.745C198.419 33.745 119.751 -5.52028 93.4121 65.7569L122.148 68.3374Z" fill="#353535"/>
<path d="M75.7031 108.858L92.4326 128.968L104.881 150.193L110.651 99.6755C110.651 99.6755 131.383 85.355 131.22 64.9668" fill="#353535"/>
<path d="M225.292 118.39L212.844 139.615L207.074 89.0975C207.074 89.0975 186.342 74.777 186.505 54.3888C186.505 54.3888 232.901 43.4625 225.315 118.413L225.292 118.39Z" fill="#353535"/>
</g>
</g>
<defs>
<clipPath id="clip0_912_4690">
<rect width="280" height="280" rx="140" fill="white"/>
</clipPath>
</defs>
</svg>
