<svg width="400" height="727" viewBox="0 0 400 727" fill="none" xmlns="http://www.w3.org/2000/svg">
<rect width="400" height="727" fill="white"/>
<rect width="400" height="58" fill="white"/>
<path d="M374.001 30.4008L369.101 35.3008C368.917 35.4841 368.684 35.5758 368.401 35.5758C368.117 35.5758 367.884 35.4841 367.701 35.3008C367.517 35.1174 367.426 34.8841 367.426 34.6008C367.426 34.3174 367.517 34.0841 367.701 33.9008L372.601 29.0008L367.701 24.1008C367.517 23.9174 367.426 23.6841 367.426 23.4008C367.426 23.1174 367.517 22.8841 367.701 22.7008C367.884 22.5174 368.117 22.4258 368.401 22.4258C368.684 22.4258 368.917 22.5174 369.101 22.7008L374.001 27.6008L378.901 22.7008C379.084 22.5174 379.317 22.4258 379.601 22.4258C379.884 22.4258 380.117 22.5174 380.301 22.7008C380.484 22.8841 380.576 23.1174 380.576 23.4008C380.576 23.6841 380.484 23.9174 380.301 24.1008L375.401 29.0008L380.301 33.9008C380.484 34.0841 380.576 34.3174 380.576 34.6008C380.576 34.8841 380.484 35.1174 380.301 35.3008C380.117 35.4841 379.884 35.5758 379.601 35.5758C379.317 35.5758 379.084 35.4841 378.901 35.3008L374.001 30.4008Z" fill="black"/>
<circle cx="128" cy="61" r="3" fill="#0077FA"/>
<path d="M63.677 73.3945V84H61.4797V73.3945H63.677ZM72.2539 77.0859C72.0781 75.9141 71.1772 75.2036 69.9395 75.1963C68.2915 75.2036 67.2002 76.4634 67.2002 78.6973C67.2002 80.9824 68.3062 82.1909 69.9248 82.1982C71.1333 82.1909 72.0415 81.5317 72.2539 80.3818L74.4805 80.3965C74.2388 82.3594 72.5908 84.1465 69.8955 84.1465C67.061 84.1465 64.959 82.147 64.959 78.6973C64.959 75.2329 67.0977 73.248 69.8955 73.248C72.3418 73.248 74.1875 74.647 74.4805 77.0859H72.2539ZM90.5357 79.3711V80.8652H85.3502V85.3477H83.5045V80.8652H78.3775V79.3711H90.5357ZM78.9781 77.1299C81.6734 76.8003 83.1676 75.4966 83.3653 74.1855H79.4762V72.7207H89.4518V74.1855H85.5626C85.753 75.4966 87.2252 76.8003 89.9645 77.1299L89.2906 78.5947C86.9469 78.2798 85.2696 77.2837 84.464 75.9141C83.651 77.2837 81.9884 78.2798 79.6666 78.5947L78.9781 77.1299ZM98.2338 73.0869V79.5176H91.7152V73.0869H98.2338ZM93.268 85.0547V80.6309H95.1576V83.5459H102.555V85.0547H93.268ZM93.5609 78.0381H96.3734V74.5664H93.5609V78.0381ZM100.329 81.5098V72.0322H102.204V81.5098H100.329ZM115.893 78.1113V79.6348H103.705V78.1113H115.893ZM105.097 82.8867C105.097 81.3193 106.855 80.4331 109.77 80.4404C112.663 80.4331 114.399 81.3193 114.413 82.8867C114.399 84.4614 112.663 85.355 109.77 85.3477C106.855 85.355 105.097 84.4614 105.097 82.8867ZM105.185 77.1738V72.3691H114.428V73.8779H107.045V75.6943H114.501V77.1738H105.185ZM107.001 82.8867C106.994 83.5898 107.924 83.9268 109.77 83.9268C111.579 83.9268 112.531 83.5898 112.538 82.8867C112.531 82.2129 111.579 81.8613 109.77 81.8613C107.924 81.8613 106.994 82.2129 107.001 82.8867ZM128.557 79.166V80.6602H116.354V79.166H121.525V78.1992H117.878V74.5371H125.202V73.7168H117.849V72.2666H127.077V75.8848H119.738V76.7637H127.326V78.1992H123.386V79.166H128.557ZM117.717 82.8867V81.4219H127.15V85.2891H125.261V82.8867H117.717ZM141.191 78.1553V79.6641H129.033V78.1553H141.191ZM129.575 76.207C132.08 75.98 133.45 75.0645 133.757 74.127H130.146V72.6328H140.093V74.127H136.452C136.753 75.0571 138.115 75.98 140.679 76.207L140.019 77.6719C137.5 77.4302 135.808 76.478 135.097 75.189C134.394 76.478 132.717 77.4302 130.19 77.6719L129.575 76.207ZM130.425 82.8867C130.425 81.3193 132.182 80.4111 135.097 80.4111C137.991 80.4111 139.726 81.3193 139.741 82.8867C139.726 84.4614 137.991 85.355 135.097 85.3477C132.182 85.355 130.425 84.4614 130.425 82.8867ZM132.329 82.8867C132.322 83.5752 133.252 83.8975 135.097 83.8975C136.907 83.8975 137.859 83.5752 137.866 82.8867C137.859 82.1909 136.907 81.8613 135.097 81.8613C133.252 81.8613 132.322 82.1909 132.329 82.8867ZM147.776 72.6914C150.588 72.6987 152.793 74.2222 152.8 76.5293C152.793 78.8584 150.588 80.3745 147.776 80.3672C144.956 80.3745 142.766 78.8584 142.766 76.5293C142.766 74.2222 144.956 72.6987 147.776 72.6914ZM141.697 83.7217V82.2129H153.899V83.7217H141.697ZM144.583 76.5293C144.575 77.9795 145.923 78.8438 147.776 78.8438C149.614 78.8438 150.947 77.9795 150.955 76.5293C150.947 75.1011 149.614 74.2002 147.776 74.2148C145.923 74.2002 144.575 75.1011 144.583 76.5293ZM166.563 82.3301V83.8682H154.361V82.3301H159.502V80.3232H155.767V75.8408H163.311V74.376H155.752V72.8818H165.157V77.3057H157.642V78.7998H165.464V80.3232H161.363V82.3301H166.563ZM172.438 72.6182V74.2002H175.162V72.6182H177.037V78.4336H170.577V72.6182H172.438ZM171.91 80.748V79.2979H180.758V82.916H173.771V83.7803H181.139V85.2598H171.939V81.583H178.897V80.748H171.91ZM172.438 76.9688H175.162V75.6064H172.438V76.9688ZM178.883 78.7998V72.0176H180.758V74.6104H182.56V76.1191H180.758V78.7998H178.883ZM186.141 79.6055V81.0264H191.693V79.6055H193.539V85.2012H184.31V79.6055H186.141ZM182.846 78.7266V77.2324H191.429C191.686 75.9434 191.722 74.9473 191.737 74.0537H184.34V72.5596H193.597V73.6289C193.605 74.6396 193.605 75.7163 193.283 77.2324H195.048V78.7266H182.846ZM186.141 83.6924H191.693V82.4473H186.141V83.6924Z" fill="black"/>
<line x1="209.75" y1="72" x2="209.75" y2="87" stroke="#C6C6C8" stroke-width="0.5"/>
<path d="M230.954 74.0098C230.947 75.7529 233.269 77.2324 235.539 77.5693L235.114 78.4775C233.085 78.1333 231.101 77.0493 230.31 75.4819C229.519 77.0493 227.534 78.1333 225.534 78.4775L225.08 77.5693C227.343 77.2324 229.658 75.7529 229.665 74.0098V73.9219H225.49V72.9844H235.114V73.9219H230.954V74.0098ZM224.377 80.543V79.5908H236.242V80.543H230.852V85.1865H229.724V80.543H224.377ZM243.838 73.3066V79.3418H237.729V73.3066H243.838ZM238.857 78.4189H242.71V74.2588H238.857V78.4189ZM239.385 84.7471V80.6309H240.527V83.7949H248.203V84.7471H239.385ZM246.65 81.5391V72.1787H247.793V81.5391H246.65ZM260.764 72.1641V81.9346H259.666V72.1641H260.764ZM249.749 79.166C251.426 78.375 252.451 76.5732 252.444 75.0352V73.0869H253.557V75.0352C253.557 76.5586 254.509 78.126 256.165 78.8291L255.52 79.7373C254.319 79.188 253.462 78.1846 253.015 77.0054C252.554 78.3018 251.638 79.4517 250.393 80.0596L249.749 79.166ZM252.224 84.9082V80.7334H253.367V83.9414H261.16V84.9082H252.224ZM255.037 76.4268V75.4746H257.087V72.4277H258.201V81.5684H257.087V76.4268H255.037ZM273.164 72.1641V85.2158H272.022V78.0381H269.268V77.0859H272.022V72.1641H273.164ZM262.969 82.0664V73.3652H269.048V74.3174H264.126V77.0273H268.477V77.9648H264.126V81.1143C266.514 81.1069 268.052 81.041 269.839 80.7188L269.971 81.6709C268.074 81.9785 266.485 82.0664 263.965 82.0664H262.969ZM282.979 80.6748H284.415L285.536 82.1396C286.327 81.4438 286.825 80.2793 286.832 78.6973C286.825 75.958 285.338 74.4785 283.419 74.4785C281.5 74.4785 280.013 75.958 280.006 78.6973C280.013 81.4292 281.5 82.9087 283.419 82.916C283.814 82.916 284.195 82.8501 284.547 82.7256L282.979 80.6748ZM278.731 78.6973C278.724 75.3428 280.694 73.248 283.419 73.248C286.136 73.248 288.114 75.3428 288.106 78.6973C288.114 80.6821 287.425 82.2202 286.297 83.1504L287.682 84.9961H286.246L285.323 83.7583C284.752 84.0146 284.107 84.1465 283.419 84.1465C280.694 84.1465 278.724 82.0518 278.731 78.6973ZM289.74 84V73.3945H293.344C295.826 73.3945 296.962 74.7715 296.962 76.6611C296.962 78.0674 296.332 79.166 294.984 79.6348L297.372 84H295.834L293.615 79.8765C293.534 79.8838 293.446 79.8838 293.358 79.8838H291.058V84H289.74ZM291.058 78.6826H293.3C294.992 78.6826 295.651 77.9209 295.658 76.6611C295.651 75.394 294.992 74.5664 293.285 74.5664H291.058V78.6826ZM309.845 82.6084V83.5752H297.921V82.6084H303.283V80.1475H299.416V76.1338H307.209V74.083H299.386V73.1309H308.337V77.0713H300.558V79.1953H308.644V80.1475H304.411V82.6084H309.845ZM315.735 72.7207V74.5957H319.529V72.7207H320.671V78.3896H314.607V72.7207H315.735ZM315.735 77.4521H319.529V75.4893H315.735V77.4521ZM315.925 80.4404V79.5176H324.231V82.667H317.082V84.1025H324.714V85.04H315.954V81.7881H323.088V80.4404H315.925ZM323.088 78.9023V72.1641H324.231V74.9912H326.194V75.958H324.231V78.9023H323.088ZM329.409 79.6201V81.3486H335.928V79.6201H337.07V85.0107H328.267V79.6201H329.409ZM326.714 78.4482V77.4961H335.583C335.935 75.8774 335.935 74.7129 335.928 73.7168H328.223V72.7646H337.07V73.7168C337.07 74.7129 337.07 75.8701 336.711 77.4961H338.638V78.4482H326.714ZM329.409 84.0732H335.928V82.2568H329.409V84.0732Z" fill="black"/>
<rect x="16" y="133" width="368" height="479.077" rx="18" fill="#0077FA"/>
<path d="M115.209 185.141V186.651H101.496V185.141H107.406V181.87H103.007V174.632H113.632V181.87H109.233V185.141H115.209ZM104.817 180.426H111.806V176.109H104.817V180.426ZM127.603 173.47V179.181H129.91V180.741H127.603V188.478H125.76V173.47H127.603ZM116.38 184.958V174.698H118.206V178.45H121.742V174.698H123.585V184.958H116.38ZM118.206 183.447H121.742V179.895H118.206V183.447ZM134.451 173.951C136.725 173.959 138.419 175.362 138.435 177.338C138.419 179.322 136.725 180.716 134.451 180.725C132.16 180.716 130.467 179.322 130.467 177.338C130.467 175.362 132.16 173.959 134.451 173.951ZM132.26 177.338C132.26 178.5 133.189 179.23 134.451 179.23C135.713 179.23 136.634 178.5 136.642 177.338C136.634 176.201 135.713 175.47 134.451 175.479C133.189 175.47 132.26 176.201 132.26 177.338ZM132.741 183.148V181.704H142.702V185.622H134.584V186.834H143.15V188.295H132.774V184.261H140.859V183.148H132.741ZM140.843 181.057V173.47H142.702V181.057H140.843ZM161.927 181.837V183.331H155.967V188.461H154.141V183.331H148.248V181.837H161.927ZM148.961 179.38C151.908 179.006 153.884 177.421 154.017 175.777H149.509V174.316H160.666V175.777H156.158C156.283 177.421 158.242 179.006 161.213 179.38L160.549 180.824C157.993 180.459 156.001 179.289 155.087 177.67C154.166 179.289 152.19 180.459 149.659 180.824L148.961 179.38ZM170.602 174.715V181.854H163.364V174.715H170.602ZM165.173 188.079V183.182H167.033V186.585H175.516V188.079H165.173ZM165.19 180.376H168.776V176.192H165.19V180.376ZM173.242 184.194V173.486H175.101V184.194H173.242ZM190.649 180.426V181.937H176.952V180.426H190.649ZM178.546 185.705C178.546 183.962 180.513 182.974 183.776 182.982C187.013 182.974 188.964 183.962 188.972 185.705C188.964 187.473 187.013 188.461 183.776 188.461C180.513 188.461 178.546 187.473 178.546 185.705ZM178.629 179.247V173.951H188.989V175.445H180.472V177.77H189.072V179.247H178.629ZM180.422 185.705C180.414 186.593 181.593 187.033 183.776 187.033C185.926 187.033 187.113 186.593 187.129 185.705C187.113 184.858 185.926 184.394 183.776 184.394C181.593 184.394 180.414 184.858 180.422 185.705ZM205.001 181.588V183.082H191.288V181.588H197.232V180.343H193.031V176.358H201.465V175.246H192.982V173.802H203.308V177.703H194.858V178.898H203.607V180.343H199.058V181.588H205.001ZM192.816 185.489V184.028H203.391V188.378H201.531V185.489H192.816ZM219.337 180.459V181.953H205.657V180.459H219.337ZM206.321 178.334C209.102 178.06 210.912 176.948 211.194 175.694H206.902V174.184H218.108V175.694H213.775C214.049 176.931 215.842 178.06 218.689 178.334L218.042 179.795C215.311 179.513 213.294 178.425 212.48 176.906C211.667 178.425 209.675 179.513 206.952 179.795L206.321 178.334ZM207.251 185.705C207.251 183.962 209.218 182.949 212.48 182.949C215.718 182.949 217.668 183.962 217.677 185.705C217.668 187.473 215.718 188.461 212.48 188.461C209.218 188.461 207.251 187.473 207.251 185.705ZM209.127 185.705C209.119 186.577 210.297 187.008 212.48 187.017C214.63 187.008 215.817 186.577 215.834 185.705C215.817 184.833 214.63 184.394 212.48 184.394C210.297 184.394 209.119 184.833 209.127 185.705ZM226.045 174.134V176.043H229.547V174.134H231.374V180.675H224.218V174.134H226.045ZM225.729 183.198V181.754H235.541V185.688H227.572V186.884H236.005V188.345H225.746V184.344H233.698V183.198H225.729ZM226.045 179.214H229.547V177.438H226.045V179.214ZM233.698 181.156V173.47H235.541V176.508H237.632V178.002H235.541V181.156H233.698ZM241.559 182.02V183.746H248.216V182.02H250.042V188.295H239.749V182.02H241.559ZM238.056 180.907V179.43H247.901C248.216 177.844 248.249 176.649 248.249 175.595H239.749V174.117H250.092V175.279C250.101 176.425 250.101 177.67 249.727 179.43H251.769V180.907H238.056ZM241.559 186.801H248.216V185.174H241.559V186.801ZM259.232 173.702C262.652 173.71 264.636 174.615 264.644 176.275C264.636 177.952 262.652 178.857 259.232 178.865C255.82 178.857 253.82 177.952 253.82 176.275C253.82 174.615 255.82 173.71 259.232 173.702ZM252.408 181.14V179.662H266.088V181.14H252.408ZM254.019 183.514V182.152H264.378V185.821H255.845V186.934H264.793V188.345H254.035V184.51H262.569V183.514H254.019ZM255.762 176.275C255.754 177.105 256.949 177.487 259.232 177.487C261.548 177.487 262.735 177.105 262.735 176.275C262.735 175.503 261.548 175.063 259.232 175.063C256.949 175.063 255.754 175.503 255.762 176.275ZM275.353 174.134C277.635 174.125 279.287 175.404 279.287 177.288C279.287 179.139 277.635 180.434 275.353 180.426C273.095 180.434 271.451 179.139 271.451 177.288C271.451 175.404 273.095 174.125 275.353 174.134ZM270.472 181.455C273.178 181.455 276.971 181.405 280.2 180.924L280.333 182.285C279.038 182.534 277.693 182.692 276.382 182.792V188.013H274.522V182.899C273.136 182.958 271.833 182.974 270.704 182.982L270.472 181.455ZM273.244 177.288C273.236 178.292 274.124 178.923 275.353 178.915C276.631 178.923 277.527 178.292 277.527 177.288C277.527 176.25 276.631 175.611 275.353 175.628C274.124 175.611 273.236 176.25 273.244 177.288ZM281.18 188.461V173.486H283.006V188.461H281.18ZM292.129 175.86V177.338H284.774V175.86H287.563V173.901H289.389V175.86H292.129ZM285.206 181.621C285.189 179.579 286.576 178.126 288.476 178.135C290.386 178.126 291.747 179.579 291.747 181.621C291.747 183.705 290.386 185.157 288.476 185.157C286.576 185.157 285.189 183.705 285.206 181.621ZM286.833 181.621C286.825 182.833 287.505 183.588 288.476 183.58C289.439 183.588 290.12 182.833 290.12 181.621C290.12 180.442 289.439 179.662 288.476 179.662C287.505 179.662 286.825 180.442 286.833 181.621ZM292.76 187.797V173.785H294.486V179.646H295.947V173.47H297.707V188.478H295.947V181.14H294.486V187.797H292.76ZM110.395 198.98V211H108.237V198.98H110.395ZM120.398 203.031C120.14 201.587 118.986 200.757 117.525 200.757C115.558 200.757 114.164 202.268 114.172 204.99C114.164 207.754 115.566 209.224 117.525 209.224C118.953 209.224 120.107 208.427 120.398 207.016H122.572C122.24 209.323 120.339 211.166 117.492 211.166C114.321 211.166 111.989 208.867 111.997 204.99C111.989 201.105 114.346 198.814 117.492 198.814C120.148 198.814 122.199 200.358 122.572 203.031H120.398ZM140.851 205.837V207.331H134.891V212.461H133.065V207.331H127.172V205.837H140.851ZM127.885 203.38C130.832 203.006 132.808 201.421 132.941 199.777H128.433V198.316H139.59V199.777H135.082C135.207 201.421 137.166 203.006 140.137 203.38L139.473 204.824C136.917 204.459 134.925 203.289 134.011 201.67C133.09 203.289 131.114 204.459 128.583 204.824L127.885 203.38ZM149.526 198.715V205.854H142.288V198.715H149.526ZM144.097 212.079V207.182H145.957V210.585H154.44V212.079H144.097ZM144.114 204.376H147.7V200.192H144.114V204.376ZM152.166 208.194V197.486H154.025V208.194H152.166ZM169.573 204.426V205.937H155.876V204.426H169.573ZM157.47 209.705C157.47 207.962 159.437 206.974 162.7 206.982C165.937 206.974 167.888 207.962 167.896 209.705C167.888 211.473 165.937 212.461 162.7 212.461C159.437 212.461 157.47 211.473 157.47 209.705ZM157.553 203.247V197.951H167.913V199.445H159.396V201.77H167.996V203.247H157.553ZM159.346 209.705C159.338 210.593 160.517 211.033 162.7 211.033C164.85 211.033 166.037 210.593 166.053 209.705C166.037 208.858 164.85 208.394 162.7 208.394C160.517 208.394 159.338 208.858 159.346 209.705ZM183.925 205.588V207.082H170.212V205.588H176.156V204.343H171.955V200.358H180.389V199.246H171.906V197.802H182.232V201.703H173.781V202.898H182.531V204.343H177.982V205.588H183.925ZM171.74 209.489V208.028H182.315V212.378H180.455V209.489H171.74ZM198.261 204.459V205.953H184.581V204.459H198.261ZM185.245 202.334C188.026 202.06 189.836 200.948 190.118 199.694H185.826V198.184H197.032V199.694H192.699C192.973 200.931 194.766 202.06 197.613 202.334L196.966 203.795C194.235 203.513 192.218 202.425 191.404 200.906C190.591 202.425 188.599 203.513 185.876 203.795L185.245 202.334ZM186.175 209.705C186.175 207.962 188.142 206.949 191.404 206.949C194.642 206.949 196.592 207.962 196.601 209.705C196.592 211.473 194.642 212.461 191.404 212.461C188.142 212.461 186.175 211.473 186.175 209.705ZM188.051 209.705C188.043 210.577 189.221 211.008 191.404 211.017C193.554 211.008 194.741 210.577 194.758 209.705C194.741 208.833 193.554 208.394 191.404 208.394C189.221 208.394 188.043 208.833 188.051 209.705ZM205.757 197.702C209.177 197.71 211.161 198.615 211.169 200.275C211.161 201.952 209.177 202.857 205.757 202.865C202.345 202.857 200.345 201.952 200.345 200.275C200.345 198.615 202.345 197.71 205.757 197.702ZM198.934 205.14V203.662H212.613V205.14H198.934ZM200.544 207.514V206.152H210.903V209.821H202.37V210.934H211.318V212.345H200.56V208.51H209.094V207.514H200.544ZM202.287 200.275C202.279 201.105 203.474 201.487 205.757 201.487C208.073 201.487 209.26 201.105 209.26 200.275C209.26 199.503 208.073 199.063 205.757 199.063C203.474 199.063 202.279 199.503 202.287 200.275ZM229.481 197.486V208.443H227.622V197.486H229.481ZM216.997 204.907C219.429 204.052 220.674 201.936 220.666 199.777V198.316H222.575V199.777C222.566 201.869 223.795 203.845 226.177 204.642L225.231 206.103C223.521 205.505 222.301 204.31 221.637 202.774C220.973 204.417 219.728 205.729 217.96 206.368L216.997 204.907ZM219.553 212.179V207.397H221.413V210.685H229.896V212.179H219.553ZM236.728 200.674C236.72 202.317 238.006 203.936 240.364 204.575L239.5 206.003C237.774 205.53 236.529 204.525 235.84 203.222C235.184 204.691 233.939 205.854 232.146 206.385L231.283 204.957C233.632 204.243 234.885 202.483 234.885 200.674V200.591H231.747V199.13H234.885V197.403H236.745V199.13H239.866V200.591H236.728V200.674ZM233.723 209.639C233.706 207.854 235.665 206.85 238.82 206.85C241.991 206.85 243.941 207.854 243.95 209.639C243.941 211.423 241.991 212.461 238.82 212.461C235.665 212.461 233.706 211.423 233.723 209.639ZM235.549 209.639C235.541 210.527 236.736 211.033 238.82 211.033C240.945 211.033 242.107 210.527 242.107 209.639C242.107 208.742 240.945 208.269 238.82 208.261C236.736 208.269 235.541 208.742 235.549 209.639ZM239.417 203.081V201.587H242.057V197.47H243.9V206.551H242.057V203.081H239.417ZM257.439 197.47V203.446H259.746V204.974H257.439V212.478H255.613V197.47H257.439ZM245.602 201.255V199.777H249.155V197.686H250.997V199.777H254.45V201.255H245.602ZM246.299 205.771C246.283 203.695 247.893 202.226 250.084 202.234C252.242 202.226 253.845 203.695 253.853 205.771C253.845 207.837 252.242 209.29 250.084 209.29C247.893 209.29 246.283 207.837 246.299 205.771ZM248.059 205.771C248.051 206.991 248.906 207.771 250.084 207.763C251.238 207.771 252.076 206.991 252.093 205.771C252.076 204.55 251.238 203.745 250.084 203.745C248.906 203.745 248.051 204.55 248.059 205.771ZM264.719 201.404C264.727 203.828 265.557 206.352 267.591 207.63L266.578 209.041C265.225 208.228 264.345 206.833 263.847 205.198C263.308 206.999 262.345 208.526 260.934 209.39L259.788 208.012C261.971 206.692 262.934 204.044 262.943 201.487V198.798H264.719V201.404ZM265.981 204.16V202.633H268.122V197.735H269.865V211.747H268.122V204.16H265.981ZM271.21 212.478V197.47H272.986V212.478H271.21ZM288.103 209.141V210.651H274.39V209.141H277.561V205.347C276.365 204.658 275.643 203.579 275.651 202.251C275.643 199.86 277.984 198.283 281.213 198.283C284.458 198.283 286.816 199.86 286.808 202.251C286.816 203.562 286.11 204.617 284.948 205.306V209.141H288.103ZM277.461 202.251C277.453 203.787 278.972 204.766 281.213 204.758C283.446 204.766 284.998 203.787 284.998 202.251C284.998 200.69 283.446 199.736 281.213 199.744C278.972 199.736 277.453 200.69 277.461 202.251ZM279.387 209.141H283.072V206.011C282.499 206.136 281.877 206.202 281.213 206.202C280.565 206.202 279.951 206.136 279.387 206.02V209.141ZM290.568 211.133C289.854 211.133 289.265 210.552 289.273 209.838C289.265 209.141 289.854 208.568 290.568 208.56C291.257 208.568 291.846 209.141 291.846 209.838C291.846 210.552 291.257 211.133 290.568 211.133Z" fill="white"/>
<path d="M132.827 233.809V243H131.685V233.809H132.827ZM140.87 236.703C140.603 235.434 139.518 234.748 138.306 234.748C136.643 234.748 135.354 236.03 135.348 238.404C135.354 240.772 136.643 242.054 138.306 242.061C139.518 242.054 140.597 241.375 140.87 240.118H142.013C141.683 241.997 140.172 243.127 138.306 243.127C135.944 243.127 134.237 241.312 134.243 238.404C134.237 235.497 135.944 233.682 138.306 233.682C140.165 233.682 141.67 234.792 142.013 236.703H140.87ZM151.497 234.342C151.49 235.853 153.502 237.135 155.47 237.427L155.102 238.214C153.344 237.916 151.623 236.976 150.938 235.618C150.252 236.976 148.532 237.916 146.799 238.214L146.406 237.427C148.367 237.135 150.373 235.853 150.379 234.342V234.266H146.761V233.453H155.102V234.266H151.497V234.342ZM145.796 240.004V239.179H156.08V240.004H151.408V244.028H150.43V240.004H145.796ZM162.662 233.732V238.963H157.368V233.732H162.662ZM158.346 238.163H161.685V234.558H158.346V238.163ZM158.803 243.647V240.08H159.793V242.822H166.446V243.647H158.803ZM165.1 240.867V232.755H166.09V240.867H165.1ZM178.043 238.112V238.95H167.747V238.112H178.043ZM168.991 241.972C168.985 240.677 170.451 239.94 172.889 239.94C175.307 239.94 176.761 240.677 176.773 241.972C176.761 243.279 175.307 244.003 172.889 244.003C170.451 244.003 168.985 243.279 168.991 241.972ZM169.055 237.033V233.199H176.761V234.037H170.032V236.221H176.837V237.033H169.055ZM170.007 241.972C169.994 242.765 171.08 243.216 172.889 243.216C174.679 243.216 175.764 242.765 175.77 241.972C175.764 241.185 174.679 240.728 172.889 240.715C171.08 240.728 169.994 241.185 170.007 241.972ZM189.044 238.963V239.788H178.71V238.963H183.382V237.77H180.055V235.015H186.708V233.847H180.017V233.034H187.711V235.764H181.046V236.97H187.952V237.77H184.359V238.963H189.044ZM179.865 241.464V240.651H187.774V243.927H186.771V241.464H179.865ZM199.981 238.112V238.938H189.698V238.112H199.981ZM190.282 236.64C192.25 236.411 194.147 235.44 194.192 234.151H190.637V233.326H199.067V234.151H195.487C195.531 235.427 197.41 236.411 199.41 236.64L199.042 237.439C197.194 237.205 195.461 236.373 194.839 235.123C194.217 236.373 192.497 237.205 190.637 237.439L190.282 236.64ZM190.942 241.972C190.936 240.677 192.402 239.928 194.839 239.928C197.258 239.928 198.711 240.677 198.724 241.972C198.711 243.279 197.258 244.003 194.839 244.003C192.402 244.003 190.936 243.279 190.942 241.972ZM191.958 241.972C191.945 242.759 193.03 243.209 194.839 243.203C196.629 243.209 197.715 242.759 197.721 241.972C197.715 241.178 196.629 240.728 194.839 240.715C193.03 240.728 191.945 241.178 191.958 241.972ZM205.815 233.479C208.17 233.485 209.941 234.716 209.941 236.576C209.941 238.455 208.17 239.687 205.815 239.674C203.46 239.687 201.689 238.455 201.689 236.576C201.689 234.716 203.46 233.485 205.815 233.479ZM200.673 242.53V241.692H211.007V242.53H200.673ZM202.641 236.576C202.628 237.947 203.993 238.861 205.815 238.861C207.624 238.861 208.976 237.947 208.976 236.576C208.976 235.224 207.624 234.285 205.815 234.291C203.993 234.285 202.628 235.224 202.641 236.576ZM221.982 241.794V242.632H211.648V241.794H216.295V239.661H212.943V236.183H219.697V234.405H212.918V233.58H220.675V236.995H213.934V238.836H220.941V239.661H217.272V241.794H221.982ZM234.361 232.742V237.186H236.252V238.049H234.361V244.028H233.371V232.742H234.361ZM226.096 241.324V233.707H227.086V236.69H230.387V233.707H231.377V241.324H226.096ZM227.086 240.486H230.387V237.49H227.086V240.486ZM246.885 238.227V239.064H242.226V244.041H241.236V239.064H236.602V238.227H239.566C240.03 236.494 240.112 235.186 240.137 234.354H237.427V233.542H241.109V233.885C241.109 234.596 241.109 236.081 240.588 238.227H244.295C244.689 236.475 244.733 235.192 244.74 234.354H241.947V233.542H245.73V234.037C245.723 234.818 245.723 236.214 245.304 238.227H246.885ZM251.589 235.776C251.583 237.839 252.985 239.909 254.648 240.664L254.039 241.451C252.751 240.829 251.64 239.49 251.1 237.884C250.58 239.585 249.469 241.013 248.148 241.68L247.514 240.842C249.196 240.074 250.586 237.916 250.599 235.776V233.72H251.589V235.776ZM255.88 244.054V232.742H256.883V244.054H255.88ZM264.265 233.732V234.735H266.906V232.755H267.909V240.994H266.906V237.985H264.265V239.001H259.086V233.732H264.265ZM260.076 238.201H263.288V234.558H260.076V238.201ZM260.609 243.787V240.258H261.612V242.949H268.163V243.787H260.609ZM264.265 237.16H266.906V235.573H264.265V237.16ZM142.111 251.999V252.812H132.957V251.999H137.071V250.679H138.048V251.999H142.111ZM132.424 258.778V257.953H142.758V258.778H140.029V262.054H139.038V258.778H136.118V262.054H135.116V258.778H132.424ZM133.884 255.325C133.871 254.125 135.255 253.459 137.566 253.459C139.857 253.459 141.241 254.125 141.247 255.325C141.241 256.519 139.857 257.191 137.566 257.191C135.255 257.191 133.871 256.519 133.884 255.325ZM134.912 255.325C134.9 256.017 135.884 256.423 137.566 256.417C139.229 256.423 140.206 256.017 140.219 255.325C140.206 254.627 139.229 254.233 137.566 254.221C135.884 254.233 134.9 254.627 134.912 255.325ZM153.048 250.742V262.028H152.096V256.112H150.433V261.444H149.519V250.996H150.433V255.287H152.096V250.742H153.048ZM143.818 259.235V252.126H148.046V252.951H144.809V258.385C146.364 258.378 147.437 258.321 148.693 258.067L148.782 258.905C147.424 259.185 146.275 259.229 144.542 259.235H143.818ZM163.68 251.263V252.088H161.941V254.678H163.642V255.478H160.012V256.861H164.658V257.674H154.375V256.861H159.021V255.478H155.378V254.678H157.079V252.088H155.34V251.263H163.68ZM155.708 261.787V258.664H156.711V260.949H163.515V261.787H155.708ZM158.069 254.678H160.951V252.088H158.069V254.678ZM177.417 251.885V253.142C177.411 254.589 177.411 256.042 177.011 258.144L176.034 258.029C176.433 256.036 176.433 254.551 176.44 253.142V252.71H169.432V251.885H177.417ZM168.353 260.429V259.604H170.905V255.884H171.895V259.604H173.723V255.884H174.701V259.604H178.636V260.429H168.353ZM182.629 254.221C182.635 256.036 183.556 257.896 185.092 258.715L184.521 259.464C183.397 258.848 182.585 257.68 182.172 256.322C181.772 257.769 180.966 259.039 179.836 259.718L179.239 258.956C180.775 258.067 181.683 256.087 181.69 254.221V253.662H179.544V252.837H181.69V251.161H182.642V252.837H184.749V253.662H182.629V254.221ZM183.975 256.049V255.198H185.752V251.021H186.691V261.444H185.752V256.049H183.975ZM188.025 262.028V250.742H188.977V262.028H188.025ZM192.157 260.149L191.167 263.603H190.227L190.926 260.149H192.157ZM199.077 251.377C200.581 251.364 201.66 252.418 201.666 253.929C201.66 255.433 200.581 256.487 199.077 256.48C197.559 256.487 196.493 255.433 196.499 253.929C196.493 252.418 197.559 251.364 199.077 251.377ZM197.401 253.929C197.388 254.932 198.105 255.649 199.077 255.655C200.035 255.649 200.746 254.932 200.752 253.929C200.746 252.913 200.035 252.196 199.077 252.189C198.105 252.196 197.388 252.913 197.401 253.929ZM198.518 261.876V257.407H199.508V258.753H204.98V257.407H205.957V261.876H198.518ZM199.508 261.063H204.98V259.578H199.508V261.063ZM202.568 256.811V250.971H203.507V253.345H205.005V250.755H205.957V256.899H205.005V254.183H203.507V256.811H202.568ZM214.146 252.558C214.14 254.094 215.308 255.503 216.965 256.074L216.444 256.861C215.162 256.411 214.165 255.458 213.677 254.265C213.201 255.579 212.185 256.595 210.846 257.09L210.325 256.29C212.033 255.687 213.163 254.202 213.169 252.494V251.326H214.146V252.558ZM211.785 258.956V258.144H219.174V262.028H218.184V258.956H211.785ZM218.184 257.585V250.742H219.174V253.738H220.875V254.589H219.174V257.585H218.184ZM230.974 250.742V262.028H230.022V250.742H230.974ZM221.186 259.02C222.76 258.08 223.681 256.017 223.674 253.967V252.9H221.504V252.075H226.709V252.9H224.639V253.967C224.639 255.916 225.522 257.864 227.077 258.766L226.467 259.502C225.357 258.835 224.569 257.617 224.176 256.182C223.77 257.737 222.951 259.064 221.821 259.769L221.186 259.02ZM225.845 255.63V254.817H227.75V251.021H228.689V261.444H227.75V255.63H225.845ZM239.316 253.776C239.309 255.839 240.712 257.909 242.375 258.664L241.766 259.451C240.477 258.829 239.366 257.49 238.827 255.884C238.306 257.585 237.195 259.013 235.875 259.68L235.24 258.842C236.923 258.074 238.313 255.916 238.325 253.776V251.72H239.316V253.776ZM243.607 262.054V250.742H244.61V262.054H243.607ZM255.953 250.742V262.028H254.988V250.742H255.953ZM246.419 255.617C246.425 253.218 247.377 251.701 248.844 251.694C250.215 251.701 251.142 253.021 251.268 255.147H252.728V250.983H253.681V261.457H252.728V255.973H251.275C251.18 258.169 250.234 259.546 248.844 259.54C247.377 259.546 246.425 258.017 246.419 255.617ZM247.358 255.617C247.346 257.445 247.93 258.601 248.844 258.588C249.764 258.601 250.348 257.445 250.342 255.617C250.348 253.783 249.764 252.634 248.844 252.634C247.93 252.634 247.346 253.783 247.358 255.617ZM266.37 256.036V256.849H262.879V259.769H267.589V260.606H257.255V259.769H261.901V256.849H258.575V251.669H266.256V252.481H259.578V256.036H266.37ZM116.186 270.342C116.18 271.853 118.192 273.135 120.16 273.427L119.792 274.214C118.033 273.916 116.313 272.976 115.628 271.618C114.942 272.976 113.222 273.916 111.489 274.214L111.095 273.427C113.057 273.135 115.063 271.853 115.069 270.342V270.266H111.451V269.453H119.792V270.266H116.186V270.342ZM110.486 276.004V275.179H120.769V276.004H116.097V280.028H115.12V276.004H110.486ZM127.352 269.732V274.963H122.058V269.732H127.352ZM123.036 274.163H126.375V270.558H123.036V274.163ZM123.493 279.647V276.08H124.483V278.822H131.135V279.647H123.493ZM129.79 276.867V268.755H130.78V276.867H129.79ZM142.022 268.742V277.21H141.07V268.742H142.022ZM132.475 274.811C133.929 274.125 134.817 272.563 134.811 271.23V269.542H135.776V271.23C135.776 272.551 136.601 273.909 138.035 274.519L137.477 275.306C136.436 274.83 135.693 273.96 135.306 272.938C134.906 274.062 134.113 275.058 133.033 275.585L132.475 274.811ZM134.62 279.787V276.169H135.611V278.949H142.365V279.787H134.62ZM137.058 272.437V271.611H138.835V268.971H139.8V276.893H138.835V272.437H137.058ZM152.769 268.742V280.054H151.778V273.833H149.392V273.008H151.778V268.742H152.769ZM143.933 277.324V269.783H149.201V270.608H144.936V272.957H148.706V273.77H144.936V276.499C147.005 276.493 148.338 276.436 149.887 276.156L150.001 276.981C148.357 277.248 146.98 277.324 144.796 277.324H143.933ZM162.595 275.839C164.912 275.839 166.315 276.601 166.315 277.921C166.315 279.254 164.912 280.016 162.595 280.028C160.272 280.016 158.857 279.254 158.85 277.921C158.857 276.601 160.272 275.839 162.595 275.839ZM157.873 274.658V269.453H158.85V271.18H162.138V269.453H163.128V274.658H157.873ZM158.85 273.846H162.138V271.967H158.85V273.846ZM159.853 277.921C159.84 278.733 160.894 279.216 162.595 279.216C164.303 279.216 165.344 278.733 165.35 277.921C165.344 277.115 164.303 276.639 162.595 276.626C160.894 276.639 159.84 277.115 159.853 277.921ZM165.223 275.534V268.742H166.213V271.586H167.915V272.437H166.213V275.534H165.223ZM178.687 274.519V275.344H174.091V277.654H173.101V275.344H168.353V274.519H178.687ZM169.673 279.787V276.537H170.676V278.949H177.532V279.787H169.673ZM169.699 273.224V269.301H177.341V273.224H169.699ZM170.676 272.424H176.351V270.088H170.676V272.424ZM181.588 275.369V276.778H183.645V275.369H184.571V279.876H180.649V275.369H181.588ZM179.519 271.84C179.512 270.297 180.731 269.25 182.451 269.25C183.968 269.25 185.117 270.107 185.333 271.408H187.694V268.742H188.697V274.722H187.694V272.233H185.339C185.143 273.566 183.981 274.442 182.451 274.442C180.731 274.442 179.512 273.389 179.519 271.84ZM180.471 271.84C180.471 272.875 181.29 273.611 182.451 273.617C183.587 273.611 184.406 272.875 184.406 271.84C184.406 270.812 183.587 270.088 182.451 270.088C181.29 270.088 180.471 270.812 180.471 271.84ZM181.588 279.089H183.645V277.54H181.588V279.089ZM184.724 279.203C186.082 278.638 186.799 277.4 186.806 276.258V275.293H187.796V276.258C187.783 277.445 188.501 278.695 189.878 279.203L189.358 279.965C188.316 279.552 187.637 278.752 187.288 277.819C186.933 278.74 186.241 279.54 185.244 279.965L184.724 279.203ZM199.622 268.742V280.054H198.619V268.742H199.622ZM190.735 273.554C190.742 271.154 191.935 269.625 193.617 269.618C195.293 269.625 196.505 271.154 196.499 273.554C196.505 275.959 195.293 277.483 193.617 277.477C191.935 277.483 190.742 275.959 190.735 273.554ZM191.7 273.554C191.7 275.388 192.487 276.594 193.617 276.588C194.753 276.594 195.534 275.388 195.534 273.554C195.534 271.719 194.753 270.513 193.617 270.507C192.487 270.513 191.7 271.719 191.7 273.554ZM205.754 269.225V270.85H209.042V269.225H210.033V274.138H204.777V269.225H205.754ZM205.754 273.325H209.042V271.624H205.754V273.325ZM205.919 275.915V275.115H213.118V277.845H206.922V279.089H213.536V279.901H205.945V277.083H212.127V275.915H205.919ZM212.127 274.582V268.742H213.118V271.192H214.819V272.03H213.118V274.582H212.127ZM217.606 275.204V276.702H223.255V275.204H224.245V279.876H216.615V275.204H217.606ZM215.27 274.188V273.363H222.957C223.261 271.96 223.261 270.951 223.255 270.088H216.577V269.263H224.245V270.088C224.245 270.951 224.245 271.954 223.934 273.363H225.604V274.188H215.27ZM217.606 279.063H223.255V277.489H217.606V279.063ZM235.068 268.704V271.446H236.782V272.271H235.068V274.95H234.078V268.704H235.068ZM226.27 270.57V269.771H229.14V268.628H230.13V269.771H232.999V270.57H226.27ZM226.918 272.932C226.912 271.789 227.991 271.084 229.635 271.078C231.272 271.084 232.339 271.789 232.351 272.932C232.339 274.081 231.272 274.779 229.635 274.785C227.991 274.779 226.912 274.081 226.918 272.932ZM227.87 276.283V275.534H235.068V278.035H228.873V279.14H235.487V279.901H227.895V277.299H234.078V276.283H227.87ZM227.87 272.932C227.864 273.611 228.562 274.036 229.635 274.036C230.701 274.036 231.399 273.611 231.412 272.932C231.399 272.259 230.701 271.821 229.635 271.814C228.562 271.821 227.864 272.259 227.87 272.932ZM245.885 269.796C245.892 271.389 247.961 272.76 249.998 273.046L249.592 273.858C247.84 273.566 246.101 272.595 245.377 271.211C244.654 272.608 242.921 273.566 241.163 273.858L240.756 273.046C242.794 272.76 244.857 271.415 244.857 269.796V269.148H245.885V269.796ZM240.223 275.94V275.103H250.506V275.94H245.834V280.028H244.857V275.94H240.223ZM258.022 276.321C258.016 277.318 258.556 278.378 259.628 278.987C260.707 278.321 261.279 277.191 261.272 276.321V275.699H262.25V276.321C262.244 277.483 263.101 278.638 264.548 279.14L264.053 279.876C262.923 279.476 262.136 278.689 261.742 277.743C261.393 278.657 260.701 279.527 259.66 279.965C258.562 279.546 257.864 278.721 257.527 277.775C257.121 278.683 256.347 279.47 255.268 279.876L254.76 279.14C256.188 278.606 257.045 277.4 257.058 276.321V275.699H258.022V276.321ZM254.468 272.056C254.461 270.481 255.712 269.409 257.426 269.415C259.14 269.409 260.377 270.481 260.384 272.056C260.377 273.604 259.14 274.671 257.426 274.671C255.712 274.671 254.461 273.604 254.468 272.056ZM255.445 272.056C255.433 273.103 256.264 273.839 257.426 273.846C258.575 273.839 259.406 273.103 259.406 272.056C259.406 271.002 258.575 270.253 257.426 270.266C256.264 270.253 255.433 271.002 255.445 272.056ZM262.529 275.204V268.755H263.519V275.204H262.529ZM268.211 269.618C269.747 269.625 270.858 270.945 271.01 273.059H273.543V268.742H274.533V280.054H273.543V273.884H271.023C270.915 276.099 269.785 277.483 268.211 277.477C266.541 277.483 265.373 275.959 265.38 273.554C265.373 271.154 266.541 269.625 268.211 269.618ZM266.332 273.554C266.338 275.388 267.1 276.594 268.211 276.588C269.315 276.594 270.09 275.388 270.09 273.554C270.09 271.719 269.315 270.513 268.211 270.507C267.1 270.513 266.338 271.719 266.332 273.554ZM286.486 277.743V278.581H276.152V277.743H278.716V274.703C277.751 274.201 277.167 273.389 277.167 272.36C277.167 270.615 278.881 269.466 281.293 269.453C283.706 269.466 285.419 270.615 285.419 272.36C285.419 273.37 284.854 274.169 283.921 274.671V277.743H286.486ZM278.132 272.36C278.126 273.624 279.44 274.468 281.293 274.468C283.128 274.468 284.455 273.624 284.455 272.36C284.455 271.097 283.128 270.266 281.293 270.278C279.44 270.266 278.126 271.097 278.132 272.36ZM279.694 277.743H282.918V275.058C282.43 275.185 281.884 275.255 281.293 275.255C280.716 275.255 280.176 275.191 279.694 275.064V277.743ZM288.321 279.076C287.876 279.07 287.495 278.702 287.508 278.251C287.495 277.807 287.876 277.438 288.321 277.438C288.771 277.438 289.139 277.807 289.133 278.251C289.139 278.702 288.771 279.07 288.321 279.076Z" fill="white"/>
<path d="M358.866 319.102H41.1341C32.7758 319.102 26 325.886 26 334.256V584.672C26 593.041 32.7758 599.826 41.1341 599.826H358.866C367.224 599.826 374 593.041 374 584.672V334.256C374 325.886 367.224 319.102 358.866 319.102Z" fill="#DAE0EB"/>
<mask id="mask0_911_377" style="mask-type:luminance" maskUnits="userSpaceOnUse" x="26" y="319" width="348" height="281">
<path d="M358.866 319.102H41.1341C32.7758 319.102 26 325.886 26 334.256V584.672C26 593.041 32.7758 599.826 41.1341 599.826H358.866C367.224 599.826 374 593.041 374 584.672V334.256C374 325.886 367.224 319.102 358.866 319.102Z" fill="white"/>
</mask>
<g mask="url(#mask0_911_377)">
<g filter="url(#filter0_d_911_377)">
<path d="M92.0859 352.852V565.051C92.0859 568.553 94.9234 571.394 98.4203 571.394H440.465C443.962 571.394 446.799 568.553 446.799 565.051V352.852H92.0859Z" fill="white"/>
<path d="M98.4203 333.822H440.465C443.962 333.822 446.799 336.664 446.799 340.165V355.387H92.0859V340.165C92.0859 336.664 94.9234 333.822 98.4203 333.822Z" fill="#E3E9F2"/>
<path d="M399.98 349.995H183.036C180.064 349.995 177.652 347.581 177.652 344.604C177.652 341.627 180.064 339.213 183.036 339.213H399.98C402.953 339.213 405.364 341.627 405.364 344.604C405.364 347.581 402.953 349.995 399.98 349.995Z" fill="white"/>
<path d="M152.051 347.774C151.97 347.774 151.889 347.744 151.828 347.683C151.703 347.558 151.703 347.358 151.828 347.236L154.456 344.605L151.828 341.973C151.703 341.848 151.703 341.648 151.828 341.526C151.953 341.404 152.153 341.401 152.275 341.526L155.126 344.381C155.251 344.506 155.251 344.706 155.126 344.828L152.275 347.683C152.214 347.744 152.133 347.774 152.051 347.774Z" fill="#A9B8D0"/>
<path d="M142.549 347.776C142.468 347.776 142.387 347.745 142.326 347.684L139.475 344.829C139.35 344.704 139.35 344.504 139.475 344.382L142.326 341.528C142.451 341.402 142.65 341.402 142.772 341.528C142.894 341.653 142.897 341.853 142.772 341.975L140.144 344.606L142.772 347.237C142.897 347.362 142.897 347.562 142.772 347.684C142.711 347.745 142.63 347.776 142.549 347.776Z" fill="#A9B8D0"/>
<path d="M103.447 347.46C105.021 347.46 106.298 346.181 106.298 344.605C106.298 343.028 105.021 341.75 103.447 341.75C101.872 341.75 100.596 343.028 100.596 344.605C100.596 346.181 101.872 347.46 103.447 347.46Z" fill="#FF858B"/>
<path d="M112.568 347.46C114.142 347.46 115.419 346.181 115.419 344.605C115.419 343.028 114.142 341.75 112.568 341.75C110.993 341.75 109.717 343.028 109.717 344.605C109.717 346.181 110.993 347.46 112.568 347.46Z" fill="#FFCC6E"/>
<path d="M121.689 347.46C123.263 347.46 124.54 346.181 124.54 344.605C124.54 343.028 123.263 341.75 121.689 341.75C120.114 341.75 118.838 343.028 118.838 344.605C118.838 346.181 120.114 347.46 121.689 347.46Z" fill="#6DED85"/>
<path d="M166.043 348.412C163.947 348.412 162.242 346.705 162.242 344.605C162.242 342.506 163.947 340.799 166.043 340.799C168.14 340.799 169.845 342.506 169.845 344.605C169.845 344.991 169.787 345.371 169.672 345.736C169.622 345.902 169.446 345.997 169.277 345.946C169.111 345.895 169.016 345.716 169.067 345.55C169.162 345.245 169.209 344.93 169.209 344.609C169.209 342.861 167.789 341.439 166.043 341.439C164.298 341.439 162.878 342.861 162.878 344.609C162.878 346.356 164.298 347.778 166.043 347.778C166.889 347.778 167.684 347.45 168.282 346.85C168.407 346.725 168.607 346.725 168.729 346.85C168.854 346.976 168.854 347.176 168.729 347.297C168.012 348.015 167.058 348.412 166.04 348.412H166.043Z" fill="#A9B8D0"/>
<path d="M169.524 346.147C169.43 346.147 169.338 346.103 169.281 346.028L168.192 344.681C168.08 344.545 168.104 344.345 168.239 344.234C168.375 344.125 168.574 344.146 168.686 344.281L169.531 345.327L170.387 344.291C170.498 344.156 170.698 344.135 170.833 344.247C170.968 344.359 170.989 344.559 170.877 344.694L169.775 346.032C169.714 346.106 169.626 346.147 169.531 346.147H169.524Z" fill="#A9B8D0"/>
<path d="M183.443 346.628C182.78 346.628 182.114 346.374 181.61 345.869C180.599 344.857 180.599 343.208 181.61 342.195C182.621 341.182 184.268 341.182 185.279 342.195C186.291 343.208 186.291 344.857 185.279 345.869C184.772 346.377 184.109 346.628 183.446 346.628H183.443ZM183.443 342.07C182.939 342.07 182.439 342.263 182.056 342.645C181.292 343.411 181.292 344.657 182.056 345.422C182.821 346.188 184.065 346.188 184.83 345.422C185.594 344.657 185.594 343.411 184.83 342.645C184.447 342.263 183.947 342.07 183.443 342.07Z" fill="#A9B8D0"/>
<path d="M186.868 347.776C186.787 347.776 186.706 347.746 186.645 347.685L184.832 345.87C184.707 345.744 184.707 345.545 184.832 345.423C184.957 345.301 185.157 345.297 185.279 345.423L187.091 347.238C187.216 347.363 187.216 347.563 187.091 347.685C187.03 347.746 186.949 347.776 186.868 347.776Z" fill="#A9B8D0"/>
<path d="M446.799 355.387H92.0859V362.786H446.799V355.387Z" fill="#002C78"/>
<path d="M135.07 388.472V387.223H141.81V388.472H138.942L141.929 392.123L140.914 392.966L138.493 389.949L136.108 393.166L135.057 392.323L138.046 388.476H135.074L135.07 388.472ZM144.404 396.133C144.404 396.519 144.323 396.898 144.161 397.247C144.002 397.589 143.782 397.9 143.508 398.165C143.227 398.432 142.899 398.645 142.537 398.791C141.777 399.099 140.924 399.099 140.16 398.791C139.798 398.645 139.467 398.435 139.186 398.165C138.915 397.9 138.696 397.589 138.537 397.247C138.212 396.539 138.212 395.726 138.537 395.019C138.696 394.673 138.915 394.362 139.186 394.101C139.467 393.83 139.798 393.62 140.16 393.474C140.921 393.166 141.773 393.166 142.537 393.474C142.896 393.62 143.227 393.833 143.508 394.101C143.779 394.365 144.002 394.677 144.161 395.019C144.323 395.367 144.408 395.747 144.404 396.133ZM142.97 396.119C142.974 395.689 142.801 395.279 142.49 394.985C142.186 394.677 141.77 394.504 141.34 394.511C140.454 394.511 139.734 395.232 139.734 396.119C139.734 397.006 140.454 397.728 141.34 397.728C141.773 397.734 142.186 397.565 142.493 397.26C142.808 396.966 142.98 396.549 142.974 396.119M143.944 393.112V390.569H141.76V389.302H143.944V386.881H145.405V393.115H143.944V393.112Z" fill="#444548"/>
<path d="M142.97 396.119C142.974 395.689 142.801 395.279 142.49 394.985C142.186 394.677 141.77 394.504 141.34 394.511C140.454 394.511 139.734 395.232 139.734 396.119C139.734 397.006 140.454 397.728 141.34 397.728C141.773 397.734 142.186 397.565 142.493 397.26C142.808 396.966 142.98 396.549 142.974 396.119M135.07 388.472V387.223H141.81V388.472H138.942L141.929 392.123L140.914 392.966L138.493 389.949L136.108 393.166L135.057 392.323L138.046 388.476H135.074L135.07 388.472ZM144.404 396.133C144.404 396.519 144.323 396.898 144.161 397.247C144.002 397.589 143.782 397.9 143.508 398.165C143.227 398.432 142.899 398.645 142.537 398.791C141.777 399.099 140.924 399.099 140.16 398.791C139.798 398.645 139.467 398.435 139.186 398.165C138.915 397.9 138.696 397.589 138.537 397.247C138.212 396.539 138.212 395.726 138.537 395.019C138.696 394.673 138.915 394.362 139.186 394.101C139.467 393.83 139.798 393.62 140.16 393.474C140.921 393.166 141.773 393.166 142.537 393.474C142.896 393.62 143.227 393.833 143.508 394.101C143.779 394.365 144.002 394.677 144.161 395.019C144.323 395.367 144.408 395.747 144.404 396.133ZM143.944 393.112V390.569H141.76V389.302H143.944V386.881H145.405V393.115H143.944V393.112Z" stroke="#444548" stroke-width="0.6"/>
<path d="M147.133 394.311H157.925V395.601H153.254V398.632H151.793V395.601H147.133V394.311ZM149.436 388.564H155.611V387.074H157.059V392.73H148.005V387.074H149.439V388.564H149.436ZM155.611 389.831H149.439V391.453H155.615V389.831H155.611Z" fill="#444548" stroke="#444548" stroke-width="0.6"/>
<path d="M167.287 398.782H159.9V397.129L164.114 393.201C164.179 393.14 164.25 393.072 164.327 392.998C164.95 392.412 165.89 391.528 165.89 390.451C165.89 389.374 165.311 388.043 163.681 388.043C162.383 388.043 161.507 388.876 161.344 390.268L161.307 390.549L159.907 390.343L159.951 390.048C160.428 387.078 162.684 386.76 163.634 386.76C165.853 386.76 167.287 388.24 167.287 390.532C167.287 391.999 166.306 392.964 165.518 393.739L165.386 393.868L161.503 397.495H167.283V398.778L167.287 398.782Z" fill="#444548" stroke="#444548" stroke-width="0.6"/>
<path d="M176.109 395.28H174.804V386.926H173.566L168.148 395.084V396.564H173.485V398.782H174.801V396.564H176.339V395.28H176.109ZM169.582 395.28L173.488 389.29V395.28H169.582Z" fill="#444548" stroke="#444548" stroke-width="0.6"/>
<path d="M125.838 392.473C124.336 391.43 122.277 391.803 121.232 393.307C121.194 393.357 121.161 393.412 121.13 393.462C120.143 395.007 118.093 395.457 116.551 394.468C115.861 394.024 115.361 393.344 115.141 392.551L115.131 392.517L115.12 392.477C114.995 392.05 114.938 391.603 114.948 391.159C114.948 388.186 117.995 384.878 122.381 384.878C125.801 384.905 128.861 387.014 130.109 390.205L130.075 390.103C128.381 385.155 123 382.517 118.056 384.217C114.234 385.531 111.664 389.131 111.664 393.178C111.664 397.855 115.029 401.861 119.703 401.861C122.977 401.969 125.953 399.961 127.082 396.883C127.752 395.305 127.231 393.469 125.834 392.48" fill="#002852"/>
<path d="M130.166 390.384C128.979 387.095 125.871 384.894 122.381 384.867C117.994 384.867 114.947 388.176 114.947 391.149C114.934 391.596 114.991 392.04 115.116 392.466C115.059 392.246 115.032 392.019 115.028 391.789C115.028 388.694 118.123 386.547 121.305 386.547C125.614 386.547 129.107 390.045 129.107 394.359C129.107 397.631 127.264 400.618 124.339 402.074C128.083 400.716 130.579 397.157 130.579 393.167C130.579 392.223 130.44 391.281 130.163 390.38" fill="#FF0028"/>
<path d="M238.99 391.887L237.996 393.31C236.902 392.854 236.149 392.072 235.695 391.105C235.212 392.214 234.416 393.139 233.209 393.665L232.215 392.2C234.047 391.389 234.757 389.768 234.757 388.275V386.753L236.235 386.767H236.561V388.275C236.561 389.725 237.257 391.162 238.99 391.887ZM234.544 396.04V394.561H243.55V399.141H241.675V396.04H234.544ZM241.774 386.027H243.55V393.978H241.774V390.721H240.751V393.907H239.004V386.226H240.751V389.213H241.774V386.027Z" fill="#002C78"/>
<path d="M220.101 386.781H226.067C226.067 390.237 223.936 392.598 220.129 393.65L219.391 392.2C222.203 391.432 223.78 390.009 224.078 388.274H220.101V386.781ZM223.51 395.357V397.505H228.424V395.357H223.51ZM221.663 398.97V393.878H230.271V398.97H221.663ZM228.396 386.041H230.271V393.338H228.396V390.649H226.138V389.127H228.396V386.041Z" fill="#002C78"/>
<path d="M213.979 387.179L213.965 388.644H206.252V387.179H209.164V385.928H211.053V387.179H213.979ZM208.695 391.318C208.695 391.944 209.277 392.271 210.115 392.271C210.954 392.271 211.536 391.944 211.536 391.318C211.536 390.692 210.954 390.365 210.115 390.365C209.277 390.365 208.695 390.692 208.695 391.318ZM213.326 391.318C213.326 392.698 212.005 393.637 210.115 393.637C208.226 393.637 206.905 392.698 206.905 391.318C206.905 389.924 208.226 389 210.115 389C212.005 389 213.326 389.924 213.326 391.318ZM214.703 397.52V396.609H209.917V397.52H214.703ZM214.703 395.187V394.191H216.564V398.985H208.056V394.191H209.917V395.187H214.703ZM218.297 389.171V390.707H216.564V393.694H214.689V386.027H216.564V389.171H218.297Z" fill="#002C78"/>
<path d="M199.08 397.762C200.898 397.762 201.736 397.52 201.736 396.98C201.736 396.439 200.898 396.212 199.08 396.212C197.276 396.212 196.438 396.439 196.438 396.98C196.438 397.52 197.276 397.762 199.08 397.762ZM199.08 394.832C201.964 394.832 203.626 395.572 203.626 396.98C203.626 398.373 201.964 399.127 199.08 399.127C196.211 399.127 194.549 398.373 194.549 396.98C194.549 395.572 196.211 394.832 199.08 394.832ZM200.032 392.784H205.018V394.249H193.186V392.784H198.157V391.973H194.663V386.369H203.668V387.791H196.524V388.474H203.37V389.84H196.524V390.551H203.768V391.973H200.032V392.784Z" fill="#002C78"/>
<path d="M288.832 503.641V505.533C288.832 508.008 289.783 510.411 291.942 511.379L290.834 512.872C289.4 512.175 288.448 510.895 287.908 509.316C287.34 510.995 286.36 512.36 284.897 513.1L283.732 511.592C285.948 510.568 286.943 508.022 286.943 505.533V503.641H288.832ZM293.022 502.617H294.897V515.759H293.022V508.235H290.508V506.728H293.022V502.617Z" fill="black"/>
<path d="M277.882 506.129H279.913V502.631H281.788V510.539H279.913V507.637H277.882V506.129ZM278.706 508.69L277.853 510.126C276.39 509.742 275.368 508.931 274.771 507.893C274.189 509.088 273.166 510.012 271.646 510.453L270.766 509.003C272.839 508.405 273.748 506.926 273.777 505.461H271.22V503.982H273.777V502.588H275.652V503.982H278.237V505.461H275.652C275.68 506.812 276.618 508.135 278.706 508.69ZM277.371 514.294C279.075 514.294 279.97 513.966 279.97 513.255C279.97 512.544 279.075 512.203 277.371 512.203C275.638 512.203 274.757 512.544 274.757 513.255C274.757 513.966 275.638 514.294 277.371 514.294ZM277.371 510.766C280.14 510.766 281.845 511.676 281.845 513.255C281.845 514.82 280.14 515.73 277.371 515.73C274.587 515.73 272.882 514.82 272.882 513.255C272.882 511.676 274.587 510.766 277.371 510.766Z" fill="black"/>
<path d="M268.649 502.645V512.188H266.76V502.645H268.649ZM265.794 508.718L264.842 510.211C263.393 509.713 262.399 508.746 261.831 507.523C261.234 508.846 260.212 509.913 258.692 510.439L257.74 508.945C259.913 508.206 260.851 506.371 260.851 504.636V503.356H262.754V504.636C262.754 506.357 263.663 508.035 265.794 508.718ZM261.817 514.009H268.976V515.502H259.942V511.278H261.817V514.009Z" fill="black"/>
<path d="M250.049 514.094V512.899H244.765V514.094H250.049ZM250.049 511.448V510.083H251.924V515.587H242.904V510.083H244.765V511.448H250.049ZM251.668 507.736H253.344V509.244H241.498V507.736H249.807C250.063 506.499 250.106 505.517 250.106 504.65H242.961V503.156H251.952V504.209C251.952 505.233 251.952 506.271 251.668 507.736Z" fill="black"/>
<path d="M233.234 507.481V506.172H230.663V507.481H233.234ZM235.08 503.2V508.946H228.816V503.2H230.663V504.764H233.234V503.2H235.08ZM231.97 513.355V514.18H239.1V515.631H230.109V512.018H236.884V511.222H230.095V509.799H238.731V513.355H231.97ZM238.731 505.163H240.45V506.684H238.731V509.287H236.856V502.631H238.731V505.163Z" fill="black"/>
<path d="M224.91 502.617H226.685V515.717H224.91V509.174H223.844V515.134H222.097V511.336L221.046 512.744C219.881 512.118 219.129 511.066 218.66 509.757C218.234 511.265 217.467 512.502 216.245 513.228L215.123 511.805C217.069 510.668 217.694 508.349 217.694 505.832V505.476H215.549V503.954H221.472V505.476H219.512V505.832C219.512 508.122 220.165 510.298 222.097 511.308V502.831H223.844V507.638H224.91V502.617Z" fill="black"/>
<path d="M210.526 510.58C209.787 510.58 209.219 509.983 209.219 509.229C209.219 508.447 209.787 507.85 210.526 507.85C211.264 507.85 211.818 508.447 211.818 509.229C211.818 509.983 211.264 510.58 210.526 510.58Z" fill="black"/>
<path d="M202.443 514.094V512.899H197.16V514.094H202.443ZM202.443 511.448V510.083H204.318V515.587H195.299V510.083H197.16V511.448H202.443ZM204.063 507.736H205.739V509.244H193.893V507.736H202.202C202.458 506.499 202.5 505.517 202.5 504.65H195.356V503.156H204.347V504.209C204.347 505.233 204.347 506.271 204.063 507.736Z" fill="black"/>
<path d="M185.626 507.481V506.172H183.056V507.481H185.626ZM187.473 503.2V508.946H181.209V503.2H183.056V504.764H185.626V503.2H187.473ZM184.362 513.355V514.18H191.493V515.631H182.502V512.018H189.277V511.222H182.487V509.799H191.123V513.355H184.362ZM191.123 505.163H192.842V506.684H191.123V509.287H189.248V502.631H191.123V505.163Z" fill="black"/>
<path d="M165.677 508.178L165.052 506.713C167.524 506.499 168.802 505.632 169.101 504.736H165.621V503.242H175.294V504.736H171.799C172.098 505.632 173.376 506.499 175.862 506.713L175.208 508.178C172.751 507.95 171.132 507.04 170.45 505.788C169.754 507.04 168.149 507.95 165.677 508.178ZM170.422 514.294C172.169 514.294 173.063 513.981 173.063 513.298C173.063 512.615 172.169 512.317 170.422 512.317C168.674 512.317 167.78 512.615 167.78 513.298C167.78 513.981 168.674 514.294 170.422 514.294ZM170.422 510.866C173.248 510.866 174.967 511.762 174.967 513.298C174.967 514.848 173.248 515.744 170.422 515.744C167.595 515.744 165.89 514.848 165.89 513.298C165.89 511.762 167.595 510.866 170.422 510.866ZM164.541 508.675H176.359V510.155H164.541V508.675Z" fill="black"/>
<path d="M152.781 513.355V511.876H161.957V515.688H160.082V513.355H152.781ZM158.335 509.643H163.321V511.136H151.475V509.643H156.46V508.704H152.952V505.106H160.025V504.309H152.923V502.887H161.872V506.428H154.798V507.282H162.142V508.704H158.335V509.643Z" fill="black"/>
<path d="M148.904 506.229V507.708H139.856V502.986H148.833V504.48H141.717V506.229H148.904ZM144.288 514.308C146.035 514.308 146.93 514.009 146.93 513.327C146.93 512.644 146.035 512.331 144.288 512.331C142.541 512.331 141.646 512.644 141.646 513.327C141.646 514.009 142.541 514.308 144.288 514.308ZM144.288 510.909C147.115 510.909 148.833 511.776 148.833 513.327C148.833 514.863 147.115 515.73 144.288 515.73C141.462 515.73 139.757 514.863 139.757 513.327C139.757 511.776 141.462 510.909 144.288 510.909ZM138.422 508.619H150.254V510.155H138.422V508.619Z" fill="black"/>
<path d="M136.207 502.631V511.947H134.318V502.631H136.207ZM130.511 508.519V505.148H127.841V508.519H130.511ZM132.343 503.669V509.998H125.994V503.669H132.343ZM129.375 513.953H136.534V515.46H127.5V511.122H129.375V513.953Z" fill="black"/>
<path d="M113.525 509.116L112.843 507.651C115.513 507.324 116.905 506.044 117.09 504.792H113.326V503.299H123.027V504.792H119.32C119.505 506.044 120.883 507.324 123.539 507.651L122.871 509.116C120.584 508.803 118.979 507.822 118.198 506.485C117.417 507.822 115.812 508.803 113.525 509.116ZM124.107 509.87V511.363H119.093V515.758H117.218V511.363H112.289V509.87H124.107Z" fill="black"/>
<path d="M233.981 544.523L233.305 545.606C231.938 545.173 230.964 544.292 230.437 543.154C229.896 544.455 228.868 545.498 227.407 545.999L226.703 544.902C228.624 544.238 229.693 542.667 229.693 541.001V540.757H227.095V539.633H233.656V540.757H231.1V540.987C231.1 542.504 232.114 543.927 233.981 544.523ZM232.412 549.9C234.116 549.9 235.104 549.467 235.104 548.681C235.104 547.882 234.116 547.462 232.412 547.462C230.707 547.462 229.72 547.882 229.72 548.681C229.72 549.467 230.707 549.9 232.412 549.9ZM232.412 546.365C234.928 546.365 236.484 547.218 236.484 548.681C236.484 550.131 234.928 550.998 232.412 550.998C229.896 550.998 228.34 550.131 228.34 548.681C228.34 547.218 229.896 546.365 232.412 546.365ZM236.348 541.746H238.08V542.897H236.348V546.08H234.955V538.766H236.348V541.746Z" fill="black"/>
<path d="M216.302 540.174V546.717C217.384 546.69 218.561 546.595 219.886 546.351L220.035 547.543C218.398 547.841 216.991 547.909 215.72 547.909H214.908V540.174H216.302ZM223.431 538.766H224.756V550.998H223.431V544.78H221.983V550.388H220.671V539.009H221.983V543.629H223.431V538.766Z" fill="black"/>
<path d="M206.447 544.251L205.824 545.348C204.404 544.955 203.335 544.102 202.767 543.005C202.226 544.224 201.171 545.159 199.696 545.592L199.047 544.508C200.9 543.953 202.009 542.585 202.05 541.122H199.399V540.011H202.05V538.697H203.443V540.011H206.068V541.122H203.443C203.484 542.49 204.607 543.763 206.447 544.251ZM207.569 549.724V548.423H202.348V549.724H207.569ZM207.569 547.326V546.053H208.949V550.848H200.968V546.053H202.348V547.326H207.569ZM207.556 538.765H208.949V545.524H207.556V538.765Z" fill="black"/>
<path d="M191.943 552.65L190.969 552.217C192.132 550.28 192.673 547.991 192.673 545.715C192.673 543.453 192.132 541.163 190.969 539.213L191.943 538.793C193.214 540.838 193.958 543.046 193.958 545.715C193.958 548.411 193.214 550.591 191.943 552.65Z" fill="black"/>
<path d="M186.797 550.13C184.294 550.13 182.373 548.261 182.373 544.997C182.373 541.746 184.348 539.795 186.864 539.795C188.109 539.795 189.083 540.391 189.692 541.055L188.839 542.057C188.325 541.529 187.703 541.163 186.891 541.163C185.173 541.163 183.983 542.599 183.983 544.942C183.983 547.313 185.092 548.762 186.851 548.762C187.757 548.762 188.461 548.356 189.056 547.706L189.894 548.695C189.096 549.616 188.082 550.13 186.797 550.13Z" fill="black"/>
<path d="M178.738 549.954V539.984H180.307V549.954H178.738Z" fill="black"/>
<path d="M175.824 552.65C174.566 550.591 173.822 548.411 173.822 545.715C173.822 543.046 174.566 540.838 175.824 538.793L176.798 539.213C175.635 541.163 175.094 543.453 175.094 545.715C175.094 547.991 175.635 550.28 176.798 552.217L175.824 552.65Z" fill="black"/>
<path d="M167.072 548.41H171.929V549.562H160.863V548.41H165.679V546.324H162.203V542.382H169.237V540.743H162.175V539.619H170.617V543.493H163.569V545.2H170.887V546.324H167.072V548.41Z" fill="black"/>
<path d="M156.116 540.188V541.312H148.73V540.188H151.733V538.779H153.126V540.188H156.116ZM150.773 544.184C150.773 544.942 151.449 545.403 152.436 545.403C153.41 545.403 154.087 544.942 154.087 544.184C154.087 543.439 153.41 542.978 152.436 542.978C151.449 542.978 150.773 543.439 150.773 544.184ZM153.126 546.419V547.57C154.222 547.503 155.331 547.435 156.373 547.286L156.468 548.302C153.776 548.762 150.881 548.803 148.662 548.803L148.486 547.652C149.46 547.652 150.583 547.652 151.733 547.611V546.419C150.353 546.202 149.447 545.362 149.447 544.184C149.447 542.816 150.664 541.908 152.436 541.908C154.195 541.908 155.413 542.816 155.413 544.184C155.413 545.376 154.506 546.202 153.126 546.419ZM157.063 538.752H158.47V550.997H157.063V538.752Z" fill="black"/>
<path d="M143.239 544.563L142.549 545.647C141.196 545.173 140.222 544.211 139.695 543.032C139.153 544.346 138.125 545.403 136.678 545.904L135.961 544.807C137.855 544.157 138.964 542.545 138.964 540.892V540.648H136.38V539.524H142.914V540.648H140.371V540.879C140.371 542.396 141.413 543.926 143.239 544.563ZM137.855 547.801V546.676H146.093V550.997H144.7V547.801H137.855ZM144.7 538.752H146.093V546.067H144.7V542.978H142.562V541.827H144.7V538.752Z" fill="black"/>
<path d="M131.065 544.143L130.389 545.227C128.982 544.793 127.94 543.886 127.386 542.734C126.831 543.981 125.789 544.97 124.328 545.444L123.625 544.346C125.546 543.75 126.655 542.247 126.655 540.675V540.621H124.004V539.497H130.686V540.621H128.076V540.675C128.076 542.166 129.185 543.574 131.065 544.143ZM132.215 549.724V548.37H126.993V549.724H132.215ZM132.215 547.272V545.958H133.595V550.848H125.614V545.958H126.993V547.272H132.215ZM132.202 538.752H133.595V545.403H132.202V538.752Z" fill="black"/>
<path d="M293.377 541.95H295.582V538.564H296.976V545.974H295.582V543.102H293.377V541.95ZM294.135 544.443L293.486 545.513C292.092 545.12 291.064 544.267 290.51 543.197C289.969 544.416 288.94 545.378 287.506 545.825L286.83 544.741C288.71 544.158 289.766 542.709 289.766 541.178V541.07H287.195V539.959H289.766V538.51H291.172V539.959H293.729V541.07H291.159V541.178C291.159 542.574 292.268 543.901 294.135 544.443ZM292.904 549.726C294.649 549.726 295.637 549.292 295.637 548.52C295.637 547.748 294.649 547.328 292.904 547.328C291.172 547.328 290.185 547.748 290.185 548.52C290.185 549.292 291.172 549.726 292.904 549.726ZM292.904 546.244C295.461 546.244 297.03 547.084 297.03 548.52C297.03 549.956 295.461 550.809 292.904 550.809C290.347 550.809 288.792 549.956 288.792 548.52C288.792 547.084 290.347 546.244 292.904 546.244Z" fill="black"/>
<path d="M284.477 538.592V547.532H283.084V538.592H284.477ZM281.812 544.498L281.095 545.609C279.702 545.094 278.701 544.091 278.173 542.818C277.619 544.186 276.604 545.297 275.17 545.839L274.453 544.715C276.374 544.01 277.443 542.263 277.443 540.475V539.256H278.863V540.475C278.863 542.209 279.932 543.848 281.812 544.498ZM277.903 549.442H284.829V550.58H276.496V546.692H277.903V549.442Z" fill="black"/>
<path d="M266.416 552.083V551.216H268.107V539.838H266.416V538.984H269.284V552.083H266.416Z" fill="black"/>
<path d="M250.32 552.083V538.984H253.175V539.838H251.484V551.216H253.175V552.083H250.32Z" fill="black"/>
<path d="M213.921 430.668L213.177 428.924C216.119 428.67 217.641 427.638 217.996 426.571H213.853V424.793H225.369V426.571H221.209C221.564 427.638 223.086 428.67 226.045 428.924L225.267 430.668C222.342 430.398 220.414 429.314 219.603 427.824C218.774 429.314 216.863 430.398 213.921 430.668ZM219.569 437.949C221.649 437.949 222.714 437.577 222.714 436.764C222.714 435.951 221.649 435.596 219.569 435.596C217.489 435.596 216.424 435.951 216.424 436.764C216.424 437.577 217.489 437.949 219.569 437.949ZM219.569 433.869C222.934 433.869 224.98 434.935 224.98 436.764C224.98 438.61 222.934 439.676 219.569 439.676C216.204 439.676 214.175 438.61 214.175 436.764C214.175 434.935 216.204 433.869 219.569 433.869ZM212.568 431.261H226.637V433.022H212.568V431.261Z" fill="black"/>
<path d="M198.569 436.831V435.07H209.493V439.608H207.261V436.831H198.569ZM205.181 432.412H211.116V434.19H197.014V432.412H202.949V431.294H198.772V427.011H207.193V426.062H198.738V424.369H209.392V428.585H200.971V429.601H209.713V431.294H205.181V432.412Z" fill="black"/>
<path d="M193.954 428.349V430.11H183.182V424.488H193.869V426.266H185.398V428.349H193.954ZM188.458 437.966C190.538 437.966 191.603 437.611 191.603 436.798C191.603 435.985 190.538 435.613 188.458 435.613C186.378 435.613 185.313 435.985 185.313 436.798C185.313 437.611 186.378 437.966 188.458 437.966ZM188.458 433.92C191.823 433.92 193.869 434.952 193.869 436.798C193.869 438.627 191.823 439.66 188.458 439.66C185.093 439.66 183.064 438.627 183.064 436.798C183.064 434.952 185.093 433.92 188.458 433.92ZM181.475 431.193H195.56V433.022H181.475V431.193Z" fill="black"/>
<path d="M178.838 424.064V435.155H176.589V424.064H178.838ZM172.057 431.074V427.061H168.878V431.074H172.057ZM174.238 425.301V432.835H166.68V425.301H174.238ZM170.704 437.543H179.227V439.337H168.472V434.173H170.704V437.543Z" fill="black"/>
<path d="M151.834 431.785L151.023 430.041C154.202 429.651 155.859 428.127 156.079 426.637H151.598V424.859H163.147V426.637H158.734C158.953 428.127 160.594 429.651 163.756 430.041L162.961 431.785C160.239 431.412 158.328 430.244 157.398 428.652C156.468 430.244 154.557 431.412 151.834 431.785ZM164.432 432.682V434.46H158.463V439.692H156.231V434.46H150.363V432.682H164.432Z" fill="black"/>
<path d="M188.394 476.794L187.447 478.656C184.741 478.114 182.746 476.607 181.748 474.626C180.75 476.607 178.772 478.131 176.066 478.656L175.119 476.794C178.62 476.184 180.564 473.712 180.564 471.477V470.359H182.949V471.477C182.949 473.763 184.876 476.184 188.394 476.794ZM174.781 481.332H188.884V483.143H174.781V481.332Z" fill="#006BEE"/>
<path d="M169.897 469.428H172.129V485.073H169.897V469.428ZM159.988 470.681H162.203V474.457H165.45V470.681H167.665V481.433H159.988V470.681ZM162.203 476.201V479.655H165.45V476.201H162.203Z" fill="#006BEE"/>
<path d="M149.522 470.647V472.899C149.522 475.845 150.655 478.707 153.225 479.858L151.906 481.636C150.198 480.806 149.065 479.282 148.423 477.403C147.746 479.401 146.579 481.026 144.838 481.907L143.451 480.112C146.089 478.893 147.273 475.862 147.273 472.899V470.647H149.522ZM154.51 469.428H156.742V485.073H154.51V476.116H151.517V474.321H154.51V469.428Z" fill="#006BEE"/>
<path d="M136.064 478.504H138.989V469.445H141.221V481.264H138.989V480.028H136.064V478.504ZM133.071 471.596C132.023 471.596 131.295 472.002 131.295 472.764C131.295 473.526 132.023 473.915 133.071 473.915C134.102 473.915 134.83 473.526 134.83 472.764C134.83 472.002 134.102 471.596 133.071 471.596ZM133.071 475.541C130.788 475.541 129.182 474.423 129.182 472.764C129.182 471.105 130.788 469.97 133.071 469.97C135.337 469.97 136.943 471.105 136.943 472.764C136.943 474.423 135.337 475.541 133.071 475.541ZM132.242 482.991H141.56V484.769H130.01V480.13H132.175V478.047C130.805 478.115 129.503 478.132 128.336 478.132L128.049 476.354C130.89 476.337 134.677 476.303 137.958 475.88L138.11 477.471C136.893 477.691 135.641 477.827 134.39 477.911V480.858H132.242V482.991Z" fill="#006BEE"/>
<path d="M125.496 469.445V480.536H123.247V469.445H125.496ZM118.715 476.455V472.442H115.536V476.455H118.715ZM120.896 470.681V478.216H113.338V470.681H120.896ZM117.362 482.923H125.885V484.718H115.13V479.554H117.362V482.923Z" fill="#006BEE"/>
<path d="M131.472 435.877C129.72 435.877 128.239 435.271 127.028 434.056C125.818 432.84 125.209 431.357 125.209 429.606C125.209 427.855 125.814 426.368 127.028 425.156C128.243 423.944 129.724 423.334 131.472 423.334C133.221 423.334 134.705 423.94 135.916 425.156C137.127 426.372 137.736 427.855 137.736 429.606C137.736 430.313 137.624 430.981 137.397 431.607C137.171 432.234 136.866 432.789 136.481 433.27L141.875 438.671C142.051 438.847 142.139 439.074 142.139 439.345C142.139 439.616 142.051 439.843 141.875 440.019C141.699 440.195 141.473 440.283 141.202 440.283C140.932 440.283 140.705 440.195 140.529 440.019L135.135 434.618C134.655 435.004 134.1 435.309 133.474 435.535C132.849 435.762 132.183 435.874 131.476 435.874L131.472 435.877ZM131.472 433.947C132.676 433.947 133.701 433.524 134.543 432.681C135.385 431.837 135.808 430.811 135.808 429.606C135.808 428.4 135.385 427.374 134.543 426.531C133.701 425.688 132.676 425.264 131.472 425.264C130.268 425.264 129.244 425.688 128.402 426.531C127.559 427.374 127.137 428.4 127.137 429.606C127.137 430.811 127.559 431.837 128.402 432.681C129.244 433.524 130.268 433.947 131.472 433.947Z" fill="black"/>
<path d="M385.857 413.131H119.358C115.747 413.131 112.82 416.062 112.82 419.677V444.964C112.82 448.579 115.747 451.51 119.358 451.51H385.857C389.467 451.51 392.394 448.579 392.394 444.964V419.677C392.394 416.062 389.467 413.131 385.857 413.131Z" stroke="#006BEE" stroke-width="5" stroke-miterlimit="10"/>
<path d="M254.188 541.738L256.294 539.628C256.464 539.459 256.731 539.442 256.92 539.584L259.856 541.789C260.048 541.934 260.316 541.914 260.485 541.741C261.719 540.475 266.603 535.592 270.032 534.047C270.214 533.966 270.431 534.013 270.57 534.159L272.014 535.686C272.183 535.866 272.19 536.144 272.027 536.33C270.641 537.921 264.546 544.972 261.614 549.28C261.455 549.517 261.127 549.557 260.911 549.371C259.876 548.487 257.042 545.954 254.154 542.378C253.998 542.188 254.015 541.907 254.188 541.735V541.738Z" fill="#FF3433"/>
<path d="M112.289 526.617H406.672" stroke="#DDDDDD" stroke-miterlimit="10" stroke-linecap="round"/>
</g>
</g>
<defs>
<filter id="filter0_d_911_377" x="86.0859" y="329.822" width="374.713" height="257.572" filterUnits="userSpaceOnUse" color-interpolation-filters="sRGB">
<feFlood flood-opacity="0" result="BackgroundImageFix"/>
<feColorMatrix in="SourceAlpha" type="matrix" values="0 0 0 0 0 0 0 0 0 0 0 0 0 0 0 0 0 0 127 0" result="hardAlpha"/>
<feOffset dx="4" dy="6"/>
<feGaussianBlur stdDeviation="5"/>
<feComposite in2="hardAlpha" operator="out"/>
<feColorMatrix type="matrix" values="0 0 0 0 0.568627 0 0 0 0 0.643137 0 0 0 0 0.784314 0 0 0 1 0"/>
<feBlend mode="normal" in2="BackgroundImageFix" result="effect1_dropShadow_911_377"/>
<feBlend mode="normal" in="SourceGraphic" in2="effect1_dropShadow_911_377" result="shape"/>
</filter>
</defs>
</svg>
