<svg width="400" height="80" viewBox="0 0 400 80" fill="none" xmlns="http://www.w3.org/2000/svg">
<rect width="400" height="80" fill="white"/>
<rect x="20" width="360" height="50" rx="8" fill="black"/>
<path d="M124.555 19.4805V31.5H122.729V19.4805H124.555ZM135.13 23.3984C134.839 21.8462 133.553 20.9829 132.025 20.9912C129.95 20.9829 128.415 22.5767 128.406 25.4902C128.415 28.4204 129.958 29.9976 132.025 29.9893C133.536 29.9976 134.814 29.1509 135.13 27.6152L136.973 27.6318C136.591 30.0059 134.657 31.666 132.009 31.666C128.879 31.666 126.597 29.3335 126.597 25.4902C126.597 21.647 128.896 19.3145 132.009 19.3145C134.549 19.3145 136.566 20.8169 136.973 23.3984H135.13ZM155.981 26.4199V27.6982H149.938V32.8945H148.395V27.6982H142.418V26.4199H155.981ZM143.182 24.0459C145.954 23.6641 148.262 22.0122 148.312 20.1777H143.68V18.916H154.703V20.1777H150.104C150.129 22.0122 152.42 23.6641 155.234 24.0459L154.653 25.291C152.213 24.9092 150.104 23.7056 149.2 22.0122C148.287 23.7056 146.187 24.9092 143.779 25.291L143.182 24.0459ZM164.963 19.2979V26.2871H157.891V19.2979H164.963ZM159.435 25.0254H163.402V20.5762H159.435V25.0254ZM159.717 32.4629V27.6816H161.311V31.168H169.894V32.4629H159.717ZM167.868 28.7109V18.0527H169.445V28.7109H167.868ZM185.383 25.0254V26.3203H171.803V25.0254H185.383ZM173.413 30.1885C173.413 28.4619 175.347 27.4824 178.576 27.4824C181.78 27.4824 183.698 28.4619 183.706 30.1885C183.698 31.915 181.78 32.8862 178.576 32.8779C175.347 32.8862 173.413 31.915 173.413 30.1885ZM173.496 23.7305V18.5674H183.706V19.8623H175.057V22.4521H183.806V23.7305H173.496ZM175.007 30.1885C174.999 31.1431 176.302 31.6577 178.576 31.666C180.817 31.6577 182.129 31.1431 182.129 30.1885C182.129 29.2422 180.817 28.7109 178.576 28.6943C176.302 28.7109 174.999 29.2422 175.007 30.1885ZM200.092 26.1543V27.4326H186.479V26.1543H192.505V24.7432H188.222V20.958H196.805V19.6299H188.188V18.3848H198.382V22.1201H189.782V23.5146H198.681V24.7432H194.065V26.1543H200.092ZM188.006 29.7402V28.4785H198.465V32.7949H196.871V29.7402H188.006ZM214.751 25.042V26.3203H201.188V25.042H214.751ZM201.901 23.0166C204.599 22.7261 206.732 21.5142 206.907 20.0615H202.433V18.7666H213.539V20.0615H209.015C209.198 21.5059 211.298 22.7261 214.054 23.0166L213.489 24.2617C210.908 23.9629 208.774 22.8755 207.969 21.3066C207.147 22.8755 205.031 23.9629 202.449 24.2617L201.901 23.0166ZM202.798 30.1885C202.798 28.4619 204.732 27.4658 207.961 27.4658C211.165 27.4658 213.083 28.4619 213.091 30.1885C213.083 31.915 211.165 32.8862 207.961 32.8779C204.732 32.8862 202.798 31.915 202.798 30.1885ZM204.392 30.1885C204.383 31.1265 205.687 31.6411 207.961 31.6328C210.202 31.6411 211.514 31.1265 211.514 30.1885C211.514 29.2256 210.202 28.7109 207.961 28.6943C205.687 28.7109 204.383 29.2256 204.392 30.1885ZM232.365 18.0527V28.9434H230.788V18.0527H232.365ZM220.113 25.5898C222.446 24.7266 223.824 22.585 223.832 20.3438V18.8662H225.442V20.3438C225.434 22.5186 226.812 24.5107 229.111 25.3076L228.298 26.5693C226.58 25.9302 225.31 24.6685 224.646 23.0581C223.99 24.7847 222.703 26.1626 220.96 26.835L220.113 25.5898ZM222.637 32.5957V27.9141H224.23V31.3174H232.813V32.5957H222.637ZM239.936 21.207C239.936 22.9585 241.372 24.5938 243.638 25.2246L242.891 26.4531C241.164 25.9634 239.869 24.9009 239.188 23.5229C238.541 25.0586 237.246 26.2788 235.47 26.835L234.723 25.623C236.98 24.9009 238.375 23.1245 238.375 21.207V21.0244H235.138V19.7627H238.375V17.9697H239.952V19.7627H243.173V21.0244H239.936V21.207ZM237.113 30.1221C237.105 28.3789 239.022 27.3911 242.144 27.3828C245.256 27.3911 247.166 28.3789 247.174 30.1221C247.166 31.8735 245.256 32.8862 242.144 32.8779C239.022 32.8862 237.105 31.8735 237.113 30.1221ZM238.674 30.1221C238.666 31.085 239.96 31.6577 242.144 31.666C244.327 31.6577 245.605 31.085 245.613 30.1221C245.605 29.1592 244.327 28.6113 242.144 28.6113C239.96 28.6113 238.666 29.1592 238.674 30.1221ZM242.708 23.498V22.2031H245.547V18.0361H247.124V27.0508H245.547V23.498H242.708ZM261.003 18.0361V24.0625H263.394V25.374H261.003V32.9111H259.442V18.0361H261.003ZM249.332 21.6553V20.3604H253.001V18.2354H254.578V20.3604H258.147V21.6553H249.332ZM250.096 26.2041C250.096 24.1787 251.656 22.751 253.798 22.751C255.931 22.751 257.492 24.1787 257.5 26.2041C257.492 28.2461 255.931 29.6655 253.798 29.6738C251.656 29.6655 250.096 28.2461 250.096 26.2041ZM251.606 26.2041C251.598 27.499 252.528 28.3623 253.798 28.3457C255.06 28.3623 255.981 27.499 255.989 26.2041C255.981 24.9341 255.06 24.0542 253.798 24.0459C252.528 24.0542 251.598 24.9341 251.606 26.2041ZM276.476 18.0361V32.9111H274.882V18.0361H276.476ZM264.257 28.9268C268.208 27.0425 270.142 24.3613 270.449 20.8916H264.971V19.6299H272.043C272.043 23.9878 270.192 27.7563 265.087 30.2051L264.257 28.9268Z" fill="white"/>
</svg>
