<svg width="400" height="727" viewBox="0 0 400 727" fill="none" xmlns="http://www.w3.org/2000/svg">
<rect width="400" height="727" fill="white"/>
<rect width="400" height="58" fill="white"/>
<path d="M374.001 30.4008L369.101 35.3008C368.917 35.4841 368.684 35.5758 368.401 35.5758C368.117 35.5758 367.884 35.4841 367.701 35.3008C367.517 35.1174 367.426 34.8841 367.426 34.6008C367.426 34.3174 367.517 34.0841 367.701 33.9008L372.601 29.0008L367.701 24.1008C367.517 23.9174 367.426 23.6841 367.426 23.4008C367.426 23.1174 367.517 22.8841 367.701 22.7008C367.884 22.5174 368.117 22.4258 368.401 22.4258C368.684 22.4258 368.917 22.5174 369.101 22.7008L374.001 27.6008L378.901 22.7008C379.084 22.5174 379.317 22.4258 379.601 22.4258C379.884 22.4258 380.117 22.5174 380.301 22.7008C380.484 22.8841 380.576 23.1174 380.576 23.4008C380.576 23.6841 380.484 23.9174 380.301 24.1008L375.401 29.0008L380.301 33.9008C380.484 34.0841 380.576 34.3174 380.576 34.6008C380.576 34.8841 380.484 35.1174 380.301 35.3008C380.117 35.4841 379.884 35.5758 379.601 35.5758C379.317 35.5758 379.084 35.4841 378.901 35.3008L374.001 30.4008Z" fill="black"/>
<circle cx="128" cy="61" r="3" fill="#0077FA"/>
<path d="M63.677 73.3945V84H61.4797V73.3945H63.677ZM72.2539 77.0859C72.0781 75.9141 71.1772 75.2036 69.9395 75.1963C68.2915 75.2036 67.2002 76.4634 67.2002 78.6973C67.2002 80.9824 68.3062 82.1909 69.9248 82.1982C71.1333 82.1909 72.0415 81.5317 72.2539 80.3818L74.4805 80.3965C74.2388 82.3594 72.5908 84.1465 69.8955 84.1465C67.061 84.1465 64.959 82.147 64.959 78.6973C64.959 75.2329 67.0977 73.248 69.8955 73.248C72.3418 73.248 74.1875 74.647 74.4805 77.0859H72.2539ZM90.5357 79.3711V80.8652H85.3502V85.3477H83.5045V80.8652H78.3775V79.3711H90.5357ZM78.9781 77.1299C81.6734 76.8003 83.1676 75.4966 83.3653 74.1855H79.4762V72.7207H89.4518V74.1855H85.5626C85.753 75.4966 87.2252 76.8003 89.9645 77.1299L89.2906 78.5947C86.9469 78.2798 85.2696 77.2837 84.464 75.9141C83.651 77.2837 81.9884 78.2798 79.6666 78.5947L78.9781 77.1299ZM98.2338 73.0869V79.5176H91.7152V73.0869H98.2338ZM93.268 85.0547V80.6309H95.1576V83.5459H102.555V85.0547H93.268ZM93.5609 78.0381H96.3734V74.5664H93.5609V78.0381ZM100.329 81.5098V72.0322H102.204V81.5098H100.329ZM115.893 78.1113V79.6348H103.705V78.1113H115.893ZM105.097 82.8867C105.097 81.3193 106.855 80.4331 109.77 80.4404C112.663 80.4331 114.399 81.3193 114.413 82.8867C114.399 84.4614 112.663 85.355 109.77 85.3477C106.855 85.355 105.097 84.4614 105.097 82.8867ZM105.185 77.1738V72.3691H114.428V73.8779H107.045V75.6943H114.501V77.1738H105.185ZM107.001 82.8867C106.994 83.5898 107.924 83.9268 109.77 83.9268C111.579 83.9268 112.531 83.5898 112.538 82.8867C112.531 82.2129 111.579 81.8613 109.77 81.8613C107.924 81.8613 106.994 82.2129 107.001 82.8867ZM128.557 79.166V80.6602H116.354V79.166H121.525V78.1992H117.878V74.5371H125.202V73.7168H117.849V72.2666H127.077V75.8848H119.738V76.7637H127.326V78.1992H123.386V79.166H128.557ZM117.717 82.8867V81.4219H127.15V85.2891H125.261V82.8867H117.717ZM141.191 78.1553V79.6641H129.033V78.1553H141.191ZM129.575 76.207C132.08 75.98 133.45 75.0645 133.757 74.127H130.146V72.6328H140.093V74.127H136.452C136.753 75.0571 138.115 75.98 140.679 76.207L140.019 77.6719C137.5 77.4302 135.808 76.478 135.097 75.189C134.394 76.478 132.717 77.4302 130.19 77.6719L129.575 76.207ZM130.425 82.8867C130.425 81.3193 132.182 80.4111 135.097 80.4111C137.991 80.4111 139.726 81.3193 139.741 82.8867C139.726 84.4614 137.991 85.355 135.097 85.3477C132.182 85.355 130.425 84.4614 130.425 82.8867ZM132.329 82.8867C132.322 83.5752 133.252 83.8975 135.097 83.8975C136.907 83.8975 137.859 83.5752 137.866 82.8867C137.859 82.1909 136.907 81.8613 135.097 81.8613C133.252 81.8613 132.322 82.1909 132.329 82.8867ZM147.776 72.6914C150.588 72.6987 152.793 74.2222 152.8 76.5293C152.793 78.8584 150.588 80.3745 147.776 80.3672C144.956 80.3745 142.766 78.8584 142.766 76.5293C142.766 74.2222 144.956 72.6987 147.776 72.6914ZM141.697 83.7217V82.2129H153.899V83.7217H141.697ZM144.583 76.5293C144.575 77.9795 145.923 78.8438 147.776 78.8438C149.614 78.8438 150.947 77.9795 150.955 76.5293C150.947 75.1011 149.614 74.2002 147.776 74.2148C145.923 74.2002 144.575 75.1011 144.583 76.5293ZM166.563 82.3301V83.8682H154.361V82.3301H159.502V80.3232H155.767V75.8408H163.311V74.376H155.752V72.8818H165.157V77.3057H157.642V78.7998H165.464V80.3232H161.363V82.3301H166.563ZM172.438 72.6182V74.2002H175.162V72.6182H177.037V78.4336H170.577V72.6182H172.438ZM171.91 80.748V79.2979H180.758V82.916H173.771V83.7803H181.139V85.2598H171.939V81.583H178.897V80.748H171.91ZM172.438 76.9688H175.162V75.6064H172.438V76.9688ZM178.883 78.7998V72.0176H180.758V74.6104H182.56V76.1191H180.758V78.7998H178.883ZM186.141 79.6055V81.0264H191.693V79.6055H193.539V85.2012H184.31V79.6055H186.141ZM182.846 78.7266V77.2324H191.429C191.686 75.9434 191.722 74.9473 191.737 74.0537H184.34V72.5596H193.597V73.6289C193.605 74.6396 193.605 75.7163 193.283 77.2324H195.048V78.7266H182.846ZM186.141 83.6924H191.693V82.4473H186.141V83.6924Z" fill="black"/>
<line x1="209.75" y1="72" x2="209.75" y2="87" stroke="#C6C6C8" stroke-width="0.5"/>
<path d="M230.954 74.0098C230.947 75.7529 233.269 77.2324 235.539 77.5693L235.114 78.4775C233.085 78.1333 231.101 77.0493 230.31 75.4819C229.519 77.0493 227.534 78.1333 225.534 78.4775L225.08 77.5693C227.343 77.2324 229.658 75.7529 229.665 74.0098V73.9219H225.49V72.9844H235.114V73.9219H230.954V74.0098ZM224.377 80.543V79.5908H236.242V80.543H230.852V85.1865H229.724V80.543H224.377ZM243.838 73.3066V79.3418H237.729V73.3066H243.838ZM238.857 78.4189H242.71V74.2588H238.857V78.4189ZM239.385 84.7471V80.6309H240.527V83.7949H248.203V84.7471H239.385ZM246.65 81.5391V72.1787H247.793V81.5391H246.65ZM260.764 72.1641V81.9346H259.666V72.1641H260.764ZM249.749 79.166C251.426 78.375 252.451 76.5732 252.444 75.0352V73.0869H253.557V75.0352C253.557 76.5586 254.509 78.126 256.165 78.8291L255.52 79.7373C254.319 79.188 253.462 78.1846 253.015 77.0054C252.554 78.3018 251.638 79.4517 250.393 80.0596L249.749 79.166ZM252.224 84.9082V80.7334H253.367V83.9414H261.16V84.9082H252.224ZM255.037 76.4268V75.4746H257.087V72.4277H258.201V81.5684H257.087V76.4268H255.037ZM273.164 72.1641V85.2158H272.022V78.0381H269.268V77.0859H272.022V72.1641H273.164ZM262.969 82.0664V73.3652H269.048V74.3174H264.126V77.0273H268.477V77.9648H264.126V81.1143C266.514 81.1069 268.052 81.041 269.839 80.7188L269.971 81.6709C268.074 81.9785 266.485 82.0664 263.965 82.0664H262.969ZM282.979 80.6748H284.415L285.536 82.1396C286.327 81.4438 286.825 80.2793 286.832 78.6973C286.825 75.958 285.338 74.4785 283.419 74.4785C281.5 74.4785 280.013 75.958 280.006 78.6973C280.013 81.4292 281.5 82.9087 283.419 82.916C283.814 82.916 284.195 82.8501 284.547 82.7256L282.979 80.6748ZM278.731 78.6973C278.724 75.3428 280.694 73.248 283.419 73.248C286.136 73.248 288.114 75.3428 288.106 78.6973C288.114 80.6821 287.425 82.2202 286.297 83.1504L287.682 84.9961H286.246L285.323 83.7583C284.752 84.0146 284.107 84.1465 283.419 84.1465C280.694 84.1465 278.724 82.0518 278.731 78.6973ZM289.74 84V73.3945H293.344C295.826 73.3945 296.962 74.7715 296.962 76.6611C296.962 78.0674 296.332 79.166 294.984 79.6348L297.372 84H295.834L293.615 79.8765C293.534 79.8838 293.446 79.8838 293.358 79.8838H291.058V84H289.74ZM291.058 78.6826H293.3C294.992 78.6826 295.651 77.9209 295.658 76.6611C295.651 75.394 294.992 74.5664 293.285 74.5664H291.058V78.6826ZM309.845 82.6084V83.5752H297.921V82.6084H303.283V80.1475H299.416V76.1338H307.209V74.083H299.386V73.1309H308.337V77.0713H300.558V79.1953H308.644V80.1475H304.411V82.6084H309.845ZM315.735 72.7207V74.5957H319.529V72.7207H320.671V78.3896H314.607V72.7207H315.735ZM315.735 77.4521H319.529V75.4893H315.735V77.4521ZM315.925 80.4404V79.5176H324.231V82.667H317.082V84.1025H324.714V85.04H315.954V81.7881H323.088V80.4404H315.925ZM323.088 78.9023V72.1641H324.231V74.9912H326.194V75.958H324.231V78.9023H323.088ZM329.409 79.6201V81.3486H335.928V79.6201H337.07V85.0107H328.267V79.6201H329.409ZM326.714 78.4482V77.4961H335.583C335.935 75.8774 335.935 74.7129 335.928 73.7168H328.223V72.7646H337.07V73.7168C337.07 74.7129 337.07 75.8701 336.711 77.4961H338.638V78.4482H326.714ZM329.409 84.0732H335.928V82.2568H329.409V84.0732Z" fill="black"/>
<rect x="16" y="119" width="368" height="479.077" rx="18" fill="#0077FA"/>
<path d="M115.209 171.141V172.651H101.496V171.141H107.406V167.87H103.007V160.632H113.632V167.87H109.233V171.141H115.209ZM104.817 166.426H111.806V162.109H104.817V166.426ZM127.603 159.47V165.181H129.91V166.741H127.603V174.478H125.76V159.47H127.603ZM116.38 170.958V160.698H118.206V164.45H121.742V160.698H123.585V170.958H116.38ZM118.206 169.447H121.742V165.895H118.206V169.447ZM134.451 159.951C136.725 159.959 138.419 161.362 138.435 163.338C138.419 165.322 136.725 166.716 134.451 166.725C132.16 166.716 130.467 165.322 130.467 163.338C130.467 161.362 132.16 159.959 134.451 159.951ZM132.26 163.338C132.26 164.5 133.189 165.23 134.451 165.23C135.713 165.23 136.634 164.5 136.642 163.338C136.634 162.201 135.713 161.47 134.451 161.479C133.189 161.47 132.26 162.201 132.26 163.338ZM132.741 169.148V167.704H142.702V171.622H134.584V172.834H143.15V174.295H132.774V170.261H140.859V169.148H132.741ZM140.843 167.057V159.47H142.702V167.057H140.843ZM161.927 167.837V169.331H155.967V174.461H154.141V169.331H148.248V167.837H161.927ZM148.961 165.38C151.908 165.006 153.884 163.421 154.017 161.777H149.509V160.316H160.666V161.777H156.158C156.283 163.421 158.242 165.006 161.213 165.38L160.549 166.824C157.993 166.459 156.001 165.289 155.087 163.67C154.166 165.289 152.19 166.459 149.659 166.824L148.961 165.38ZM170.602 160.715V167.854H163.364V160.715H170.602ZM165.173 174.079V169.182H167.033V172.585H175.516V174.079H165.173ZM165.19 166.376H168.776V162.192H165.19V166.376ZM173.242 170.194V159.486H175.101V170.194H173.242ZM190.649 166.426V167.937H176.952V166.426H190.649ZM178.546 171.705C178.546 169.962 180.513 168.974 183.776 168.982C187.013 168.974 188.964 169.962 188.972 171.705C188.964 173.473 187.013 174.461 183.776 174.461C180.513 174.461 178.546 173.473 178.546 171.705ZM178.629 165.247V159.951H188.989V161.445H180.472V163.77H189.072V165.247H178.629ZM180.422 171.705C180.414 172.593 181.593 173.033 183.776 173.033C185.926 173.033 187.113 172.593 187.129 171.705C187.113 170.858 185.926 170.394 183.776 170.394C181.593 170.394 180.414 170.858 180.422 171.705ZM205.001 167.588V169.082H191.288V167.588H197.232V166.343H193.031V162.358H201.465V161.246H192.982V159.802H203.308V163.703H194.858V164.898H203.607V166.343H199.058V167.588H205.001ZM192.816 171.489V170.028H203.391V174.378H201.531V171.489H192.816ZM219.337 166.459V167.953H205.657V166.459H219.337ZM206.321 164.334C209.102 164.06 210.912 162.948 211.194 161.694H206.902V160.184H218.108V161.694H213.775C214.049 162.931 215.842 164.06 218.689 164.334L218.042 165.795C215.311 165.513 213.294 164.425 212.48 162.906C211.667 164.425 209.675 165.513 206.952 165.795L206.321 164.334ZM207.251 171.705C207.251 169.962 209.218 168.949 212.48 168.949C215.718 168.949 217.668 169.962 217.677 171.705C217.668 173.473 215.718 174.461 212.48 174.461C209.218 174.461 207.251 173.473 207.251 171.705ZM209.127 171.705C209.119 172.577 210.297 173.008 212.48 173.017C214.63 173.008 215.817 172.577 215.834 171.705C215.817 170.833 214.63 170.394 212.48 170.394C210.297 170.394 209.119 170.833 209.127 171.705ZM226.045 160.134V162.043H229.547V160.134H231.374V166.675H224.218V160.134H226.045ZM225.729 169.198V167.754H235.541V171.688H227.572V172.884H236.005V174.345H225.746V170.344H233.698V169.198H225.729ZM226.045 165.214H229.547V163.438H226.045V165.214ZM233.698 167.156V159.47H235.541V162.508H237.632V164.002H235.541V167.156H233.698ZM241.559 168.02V169.746H248.216V168.02H250.042V174.295H239.749V168.02H241.559ZM238.056 166.907V165.43H247.901C248.216 163.844 248.249 162.649 248.249 161.595H239.749V160.117H250.092V161.279C250.101 162.425 250.101 163.67 249.727 165.43H251.769V166.907H238.056ZM241.559 172.801H248.216V171.174H241.559V172.801ZM259.232 159.702C262.652 159.71 264.636 160.615 264.644 162.275C264.636 163.952 262.652 164.857 259.232 164.865C255.82 164.857 253.82 163.952 253.82 162.275C253.82 160.615 255.82 159.71 259.232 159.702ZM252.408 167.14V165.662H266.088V167.14H252.408ZM254.019 169.514V168.152H264.378V171.821H255.845V172.934H264.793V174.345H254.035V170.51H262.569V169.514H254.019ZM255.762 162.275C255.754 163.105 256.949 163.487 259.232 163.487C261.548 163.487 262.735 163.105 262.735 162.275C262.735 161.503 261.548 161.063 259.232 161.063C256.949 161.063 255.754 161.503 255.762 162.275ZM275.353 160.134C277.635 160.125 279.287 161.404 279.287 163.288C279.287 165.139 277.635 166.434 275.353 166.426C273.095 166.434 271.451 165.139 271.451 163.288C271.451 161.404 273.095 160.125 275.353 160.134ZM270.472 167.455C273.178 167.455 276.971 167.405 280.2 166.924L280.333 168.285C279.038 168.534 277.693 168.692 276.382 168.792V174.013H274.522V168.899C273.136 168.958 271.833 168.974 270.704 168.982L270.472 167.455ZM273.244 163.288C273.236 164.292 274.124 164.923 275.353 164.915C276.631 164.923 277.527 164.292 277.527 163.288C277.527 162.25 276.631 161.611 275.353 161.628C274.124 161.611 273.236 162.25 273.244 163.288ZM281.18 174.461V159.486H283.006V174.461H281.18ZM292.129 161.86V163.338H284.774V161.86H287.563V159.901H289.389V161.86H292.129ZM285.206 167.621C285.189 165.579 286.576 164.126 288.476 164.135C290.386 164.126 291.747 165.579 291.747 167.621C291.747 169.705 290.386 171.157 288.476 171.157C286.576 171.157 285.189 169.705 285.206 167.621ZM286.833 167.621C286.825 168.833 287.505 169.588 288.476 169.58C289.439 169.588 290.12 168.833 290.12 167.621C290.12 166.442 289.439 165.662 288.476 165.662C287.505 165.662 286.825 166.442 286.833 167.621ZM292.76 173.797V159.785H294.486V165.646H295.947V159.47H297.707V174.478H295.947V167.14H294.486V173.797H292.76ZM110.395 184.98V197H108.237V184.98H110.395ZM120.398 189.031C120.14 187.587 118.986 186.757 117.525 186.757C115.558 186.757 114.164 188.268 114.172 190.99C114.164 193.754 115.566 195.224 117.525 195.224C118.953 195.224 120.107 194.427 120.398 193.016H122.572C122.24 195.323 120.339 197.166 117.492 197.166C114.321 197.166 111.989 194.867 111.997 190.99C111.989 187.105 114.346 184.814 117.492 184.814C120.148 184.814 122.199 186.358 122.572 189.031H120.398ZM140.851 191.837V193.331H134.891V198.461H133.065V193.331H127.172V191.837H140.851ZM127.885 189.38C130.832 189.006 132.808 187.421 132.941 185.777H128.433V184.316H139.59V185.777H135.082C135.207 187.421 137.166 189.006 140.137 189.38L139.473 190.824C136.917 190.459 134.925 189.289 134.011 187.67C133.09 189.289 131.114 190.459 128.583 190.824L127.885 189.38ZM149.526 184.715V191.854H142.288V184.715H149.526ZM144.097 198.079V193.182H145.957V196.585H154.44V198.079H144.097ZM144.114 190.376H147.7V186.192H144.114V190.376ZM152.166 194.194V183.486H154.025V194.194H152.166ZM169.573 190.426V191.937H155.876V190.426H169.573ZM157.47 195.705C157.47 193.962 159.437 192.974 162.7 192.982C165.937 192.974 167.888 193.962 167.896 195.705C167.888 197.473 165.937 198.461 162.7 198.461C159.437 198.461 157.47 197.473 157.47 195.705ZM157.553 189.247V183.951H167.913V185.445H159.396V187.77H167.996V189.247H157.553ZM159.346 195.705C159.338 196.593 160.517 197.033 162.7 197.033C164.85 197.033 166.037 196.593 166.053 195.705C166.037 194.858 164.85 194.394 162.7 194.394C160.517 194.394 159.338 194.858 159.346 195.705ZM183.925 191.588V193.082H170.212V191.588H176.156V190.343H171.955V186.358H180.389V185.246H171.906V183.802H182.232V187.703H173.781V188.898H182.531V190.343H177.982V191.588H183.925ZM171.74 195.489V194.028H182.315V198.378H180.455V195.489H171.74ZM198.261 190.459V191.953H184.581V190.459H198.261ZM185.245 188.334C188.026 188.06 189.836 186.948 190.118 185.694H185.826V184.184H197.032V185.694H192.699C192.973 186.931 194.766 188.06 197.613 188.334L196.966 189.795C194.235 189.513 192.218 188.425 191.404 186.906C190.591 188.425 188.599 189.513 185.876 189.795L185.245 188.334ZM186.175 195.705C186.175 193.962 188.142 192.949 191.404 192.949C194.642 192.949 196.592 193.962 196.601 195.705C196.592 197.473 194.642 198.461 191.404 198.461C188.142 198.461 186.175 197.473 186.175 195.705ZM188.051 195.705C188.043 196.577 189.221 197.008 191.404 197.017C193.554 197.008 194.741 196.577 194.758 195.705C194.741 194.833 193.554 194.394 191.404 194.394C189.221 194.394 188.043 194.833 188.051 195.705ZM205.757 183.702C209.177 183.71 211.161 184.615 211.169 186.275C211.161 187.952 209.177 188.857 205.757 188.865C202.345 188.857 200.345 187.952 200.345 186.275C200.345 184.615 202.345 183.71 205.757 183.702ZM198.934 191.14V189.662H212.613V191.14H198.934ZM200.544 193.514V192.152H210.903V195.821H202.37V196.934H211.318V198.345H200.56V194.51H209.094V193.514H200.544ZM202.287 186.275C202.279 187.105 203.474 187.487 205.757 187.487C208.073 187.487 209.26 187.105 209.26 186.275C209.26 185.503 208.073 185.063 205.757 185.063C203.474 185.063 202.279 185.503 202.287 186.275ZM229.481 183.486V194.443H227.622V183.486H229.481ZM216.997 190.907C219.429 190.052 220.674 187.936 220.666 185.777V184.316H222.575V185.777C222.566 187.869 223.795 189.845 226.177 190.642L225.231 192.103C223.521 191.505 222.301 190.31 221.637 188.774C220.973 190.417 219.728 191.729 217.96 192.368L216.997 190.907ZM219.553 198.179V193.397H221.413V196.685H229.896V198.179H219.553ZM236.728 186.674C236.72 188.317 238.006 189.936 240.364 190.575L239.5 192.003C237.774 191.53 236.529 190.525 235.84 189.222C235.184 190.691 233.939 191.854 232.146 192.385L231.283 190.957C233.632 190.243 234.885 188.483 234.885 186.674V186.591H231.747V185.13H234.885V183.403H236.745V185.13H239.866V186.591H236.728V186.674ZM233.723 195.639C233.706 193.854 235.665 192.85 238.82 192.85C241.991 192.85 243.941 193.854 243.95 195.639C243.941 197.423 241.991 198.461 238.82 198.461C235.665 198.461 233.706 197.423 233.723 195.639ZM235.549 195.639C235.541 196.527 236.736 197.033 238.82 197.033C240.945 197.033 242.107 196.527 242.107 195.639C242.107 194.742 240.945 194.269 238.82 194.261C236.736 194.269 235.541 194.742 235.549 195.639ZM239.417 189.081V187.587H242.057V183.47H243.9V192.551H242.057V189.081H239.417ZM257.439 183.47V189.446H259.746V190.974H257.439V198.478H255.613V183.47H257.439ZM245.602 187.255V185.777H249.155V183.686H250.997V185.777H254.45V187.255H245.602ZM246.299 191.771C246.283 189.695 247.893 188.226 250.084 188.234C252.242 188.226 253.845 189.695 253.853 191.771C253.845 193.837 252.242 195.29 250.084 195.29C247.893 195.29 246.283 193.837 246.299 191.771ZM248.059 191.771C248.051 192.991 248.906 193.771 250.084 193.763C251.238 193.771 252.076 192.991 252.093 191.771C252.076 190.55 251.238 189.745 250.084 189.745C248.906 189.745 248.051 190.55 248.059 191.771ZM264.719 187.404C264.727 189.828 265.557 192.352 267.591 193.63L266.578 195.041C265.225 194.228 264.345 192.833 263.847 191.198C263.308 192.999 262.345 194.526 260.934 195.39L259.788 194.012C261.971 192.692 262.934 190.044 262.943 187.487V184.798H264.719V187.404ZM265.981 190.16V188.633H268.122V183.735H269.865V197.747H268.122V190.16H265.981ZM271.21 198.478V183.47H272.986V198.478H271.21ZM288.103 195.141V196.651H274.39V195.141H277.561V191.347C276.365 190.658 275.643 189.579 275.651 188.251C275.643 185.86 277.984 184.283 281.213 184.283C284.458 184.283 286.816 185.86 286.808 188.251C286.816 189.562 286.11 190.617 284.948 191.306V195.141H288.103ZM277.461 188.251C277.453 189.787 278.972 190.766 281.213 190.758C283.446 190.766 284.998 189.787 284.998 188.251C284.998 186.69 283.446 185.736 281.213 185.744C278.972 185.736 277.453 186.69 277.461 188.251ZM279.387 195.141H283.072V192.011C282.499 192.136 281.877 192.202 281.213 192.202C280.565 192.202 279.951 192.136 279.387 192.02V195.141ZM290.568 197.133C289.854 197.133 289.265 196.552 289.273 195.838C289.265 195.141 289.854 194.568 290.568 194.56C291.257 194.568 291.846 195.141 291.846 195.838C291.846 196.552 291.257 197.133 290.568 197.133Z" fill="white"/>
<path d="M132.827 219.809V229H131.685V219.809H132.827ZM140.87 222.703C140.603 221.434 139.518 220.748 138.306 220.748C136.643 220.748 135.354 222.03 135.348 224.404C135.354 226.772 136.643 228.054 138.306 228.061C139.518 228.054 140.597 227.375 140.87 226.118H142.013C141.683 227.997 140.172 229.127 138.306 229.127C135.944 229.127 134.237 227.312 134.243 224.404C134.237 221.497 135.944 219.682 138.306 219.682C140.165 219.682 141.67 220.792 142.013 222.703H140.87ZM151.497 220.342C151.49 221.853 153.502 223.135 155.47 223.427L155.102 224.214C153.344 223.916 151.623 222.976 150.938 221.618C150.252 222.976 148.532 223.916 146.799 224.214L146.406 223.427C148.367 223.135 150.373 221.853 150.379 220.342V220.266H146.761V219.453H155.102V220.266H151.497V220.342ZM145.796 226.004V225.179H156.08V226.004H151.408V230.028H150.43V226.004H145.796ZM162.662 219.732V224.963H157.368V219.732H162.662ZM158.346 224.163H161.685V220.558H158.346V224.163ZM158.803 229.647V226.08H159.793V228.822H166.446V229.647H158.803ZM165.1 226.867V218.755H166.09V226.867H165.1ZM178.043 224.112V224.95H167.747V224.112H178.043ZM168.991 227.972C168.985 226.677 170.451 225.94 172.889 225.94C175.307 225.94 176.761 226.677 176.773 227.972C176.761 229.279 175.307 230.003 172.889 230.003C170.451 230.003 168.985 229.279 168.991 227.972ZM169.055 223.033V219.199H176.761V220.037H170.032V222.221H176.837V223.033H169.055ZM170.007 227.972C169.994 228.765 171.08 229.216 172.889 229.216C174.679 229.216 175.764 228.765 175.77 227.972C175.764 227.185 174.679 226.728 172.889 226.715C171.08 226.728 169.994 227.185 170.007 227.972ZM189.044 224.963V225.788H178.71V224.963H183.382V223.77H180.055V221.015H186.708V219.847H180.017V219.034H187.711V221.764H181.046V222.97H187.952V223.77H184.359V224.963H189.044ZM179.865 227.464V226.651H187.774V229.927H186.771V227.464H179.865ZM199.981 224.112V224.938H189.698V224.112H199.981ZM190.282 222.64C192.25 222.411 194.147 221.44 194.192 220.151H190.637V219.326H199.067V220.151H195.487C195.531 221.427 197.41 222.411 199.41 222.64L199.042 223.439C197.194 223.205 195.461 222.373 194.839 221.123C194.217 222.373 192.497 223.205 190.637 223.439L190.282 222.64ZM190.942 227.972C190.936 226.677 192.402 225.928 194.839 225.928C197.258 225.928 198.711 226.677 198.724 227.972C198.711 229.279 197.258 230.003 194.839 230.003C192.402 230.003 190.936 229.279 190.942 227.972ZM191.958 227.972C191.945 228.759 193.03 229.209 194.839 229.203C196.629 229.209 197.715 228.759 197.721 227.972C197.715 227.178 196.629 226.728 194.839 226.715C193.03 226.728 191.945 227.178 191.958 227.972ZM205.815 219.479C208.17 219.485 209.941 220.716 209.941 222.576C209.941 224.455 208.17 225.687 205.815 225.674C203.46 225.687 201.689 224.455 201.689 222.576C201.689 220.716 203.46 219.485 205.815 219.479ZM200.673 228.53V227.692H211.007V228.53H200.673ZM202.641 222.576C202.628 223.947 203.993 224.861 205.815 224.861C207.624 224.861 208.976 223.947 208.976 222.576C208.976 221.224 207.624 220.285 205.815 220.291C203.993 220.285 202.628 221.224 202.641 222.576ZM221.982 227.794V228.632H211.648V227.794H216.295V225.661H212.943V222.183H219.697V220.405H212.918V219.58H220.675V222.995H213.934V224.836H220.941V225.661H217.272V227.794H221.982ZM234.361 218.742V223.186H236.252V224.049H234.361V230.028H233.371V218.742H234.361ZM226.096 227.324V219.707H227.086V222.69H230.387V219.707H231.377V227.324H226.096ZM227.086 226.486H230.387V223.49H227.086V226.486ZM246.885 224.227V225.064H242.226V230.041H241.236V225.064H236.602V224.227H239.566C240.03 222.494 240.112 221.186 240.137 220.354H237.427V219.542H241.109V219.885C241.109 220.596 241.109 222.081 240.588 224.227H244.295C244.689 222.475 244.733 221.192 244.74 220.354H241.947V219.542H245.73V220.037C245.723 220.818 245.723 222.214 245.304 224.227H246.885ZM251.589 221.776C251.583 223.839 252.985 225.909 254.648 226.664L254.039 227.451C252.751 226.829 251.64 225.49 251.1 223.884C250.58 225.585 249.469 227.013 248.148 227.68L247.514 226.842C249.196 226.074 250.586 223.916 250.599 221.776V219.72H251.589V221.776ZM255.88 230.054V218.742H256.883V230.054H255.88ZM264.265 219.732V220.735H266.906V218.755H267.909V226.994H266.906V223.985H264.265V225.001H259.086V219.732H264.265ZM260.076 224.201H263.288V220.558H260.076V224.201ZM260.609 229.787V226.258H261.612V228.949H268.163V229.787H260.609ZM264.265 223.16H266.906V221.573H264.265V223.16ZM142.111 237.999V238.812H132.957V237.999H137.071V236.679H138.048V237.999H142.111ZM132.424 244.778V243.953H142.758V244.778H140.029V248.054H139.038V244.778H136.118V248.054H135.116V244.778H132.424ZM133.884 241.325C133.871 240.125 135.255 239.459 137.566 239.459C139.857 239.459 141.241 240.125 141.247 241.325C141.241 242.519 139.857 243.191 137.566 243.191C135.255 243.191 133.871 242.519 133.884 241.325ZM134.912 241.325C134.9 242.017 135.884 242.423 137.566 242.417C139.229 242.423 140.206 242.017 140.219 241.325C140.206 240.627 139.229 240.233 137.566 240.221C135.884 240.233 134.9 240.627 134.912 241.325ZM153.048 236.742V248.028H152.096V242.112H150.433V247.444H149.519V236.996H150.433V241.287H152.096V236.742H153.048ZM143.818 245.235V238.126H148.046V238.951H144.809V244.385C146.364 244.378 147.437 244.321 148.693 244.067L148.782 244.905C147.424 245.185 146.275 245.229 144.542 245.235H143.818ZM163.68 237.263V238.088H161.941V240.678H163.642V241.478H160.012V242.861H164.658V243.674H154.375V242.861H159.021V241.478H155.378V240.678H157.079V238.088H155.34V237.263H163.68ZM155.708 247.787V244.664H156.711V246.949H163.515V247.787H155.708ZM158.069 240.678H160.951V238.088H158.069V240.678ZM177.417 237.885V239.142C177.411 240.589 177.411 242.042 177.011 244.144L176.034 244.029C176.433 242.036 176.433 240.551 176.44 239.142V238.71H169.432V237.885H177.417ZM168.353 246.429V245.604H170.905V241.884H171.895V245.604H173.723V241.884H174.701V245.604H178.636V246.429H168.353ZM182.629 240.221C182.635 242.036 183.556 243.896 185.092 244.715L184.521 245.464C183.397 244.848 182.585 243.68 182.172 242.322C181.772 243.769 180.966 245.039 179.836 245.718L179.239 244.956C180.775 244.067 181.683 242.087 181.69 240.221V239.662H179.544V238.837H181.69V237.161H182.642V238.837H184.749V239.662H182.629V240.221ZM183.975 242.049V241.198H185.752V237.021H186.691V247.444H185.752V242.049H183.975ZM188.025 248.028V236.742H188.977V248.028H188.025ZM192.157 246.149L191.167 249.603H190.227L190.926 246.149H192.157ZM199.077 237.377C200.581 237.364 201.66 238.418 201.666 239.929C201.66 241.433 200.581 242.487 199.077 242.48C197.559 242.487 196.493 241.433 196.499 239.929C196.493 238.418 197.559 237.364 199.077 237.377ZM197.401 239.929C197.388 240.932 198.105 241.649 199.077 241.655C200.035 241.649 200.746 240.932 200.752 239.929C200.746 238.913 200.035 238.196 199.077 238.189C198.105 238.196 197.388 238.913 197.401 239.929ZM198.518 247.876V243.407H199.508V244.753H204.98V243.407H205.957V247.876H198.518ZM199.508 247.063H204.98V245.578H199.508V247.063ZM202.568 242.811V236.971H203.507V239.345H205.005V236.755H205.957V242.899H205.005V240.183H203.507V242.811H202.568ZM214.146 238.558C214.14 240.094 215.308 241.503 216.965 242.074L216.444 242.861C215.162 242.411 214.165 241.458 213.677 240.265C213.201 241.579 212.185 242.595 210.846 243.09L210.325 242.29C212.033 241.687 213.163 240.202 213.169 238.494V237.326H214.146V238.558ZM211.785 244.956V244.144H219.174V248.028H218.184V244.956H211.785ZM218.184 243.585V236.742H219.174V239.738H220.875V240.589H219.174V243.585H218.184ZM230.974 236.742V248.028H230.022V236.742H230.974ZM221.186 245.02C222.76 244.08 223.681 242.017 223.674 239.967V238.9H221.504V238.075H226.709V238.9H224.639V239.967C224.639 241.916 225.522 243.864 227.077 244.766L226.467 245.502C225.357 244.835 224.569 243.617 224.176 242.182C223.77 243.737 222.951 245.064 221.821 245.769L221.186 245.02ZM225.845 241.63V240.817H227.75V237.021H228.689V247.444H227.75V241.63H225.845ZM239.316 239.776C239.309 241.839 240.712 243.909 242.375 244.664L241.766 245.451C240.477 244.829 239.366 243.49 238.827 241.884C238.306 243.585 237.195 245.013 235.875 245.68L235.24 244.842C236.923 244.074 238.313 241.916 238.325 239.776V237.72H239.316V239.776ZM243.607 248.054V236.742H244.61V248.054H243.607ZM255.953 236.742V248.028H254.988V236.742H255.953ZM246.419 241.617C246.425 239.218 247.377 237.701 248.844 237.694C250.215 237.701 251.142 239.021 251.268 241.147H252.728V236.983H253.681V247.457H252.728V241.973H251.275C251.18 244.169 250.234 245.546 248.844 245.54C247.377 245.546 246.425 244.017 246.419 241.617ZM247.358 241.617C247.346 243.445 247.93 244.601 248.844 244.588C249.764 244.601 250.348 243.445 250.342 241.617C250.348 239.783 249.764 238.634 248.844 238.634C247.93 238.634 247.346 239.783 247.358 241.617ZM266.37 242.036V242.849H262.879V245.769H267.589V246.606H257.255V245.769H261.901V242.849H258.575V237.669H266.256V238.481H259.578V242.036H266.37ZM116.186 256.342C116.18 257.853 118.192 259.135 120.16 259.427L119.792 260.214C118.033 259.916 116.313 258.976 115.628 257.618C114.942 258.976 113.222 259.916 111.489 260.214L111.095 259.427C113.057 259.135 115.063 257.853 115.069 256.342V256.266H111.451V255.453H119.792V256.266H116.186V256.342ZM110.486 262.004V261.179H120.769V262.004H116.097V266.028H115.12V262.004H110.486ZM127.352 255.732V260.963H122.058V255.732H127.352ZM123.036 260.163H126.375V256.558H123.036V260.163ZM123.493 265.647V262.08H124.483V264.822H131.135V265.647H123.493ZM129.79 262.867V254.755H130.78V262.867H129.79ZM142.022 254.742V263.21H141.07V254.742H142.022ZM132.475 260.811C133.929 260.125 134.817 258.563 134.811 257.23V255.542H135.776V257.23C135.776 258.551 136.601 259.909 138.035 260.519L137.477 261.306C136.436 260.83 135.693 259.96 135.306 258.938C134.906 260.062 134.113 261.058 133.033 261.585L132.475 260.811ZM134.62 265.787V262.169H135.611V264.949H142.365V265.787H134.62ZM137.058 258.437V257.611H138.835V254.971H139.8V262.893H138.835V258.437H137.058ZM152.769 254.742V266.054H151.778V259.833H149.392V259.008H151.778V254.742H152.769ZM143.933 263.324V255.783H149.201V256.608H144.936V258.957H148.706V259.77H144.936V262.499C147.005 262.493 148.338 262.436 149.887 262.156L150.001 262.981C148.357 263.248 146.98 263.324 144.796 263.324H143.933ZM162.595 261.839C164.912 261.839 166.315 262.601 166.315 263.921C166.315 265.254 164.912 266.016 162.595 266.028C160.272 266.016 158.857 265.254 158.85 263.921C158.857 262.601 160.272 261.839 162.595 261.839ZM157.873 260.658V255.453H158.85V257.18H162.138V255.453H163.128V260.658H157.873ZM158.85 259.846H162.138V257.967H158.85V259.846ZM159.853 263.921C159.84 264.733 160.894 265.216 162.595 265.216C164.303 265.216 165.344 264.733 165.35 263.921C165.344 263.115 164.303 262.639 162.595 262.626C160.894 262.639 159.84 263.115 159.853 263.921ZM165.223 261.534V254.742H166.213V257.586H167.915V258.437H166.213V261.534H165.223ZM178.687 260.519V261.344H174.091V263.654H173.101V261.344H168.353V260.519H178.687ZM169.673 265.787V262.537H170.676V264.949H177.532V265.787H169.673ZM169.699 259.224V255.301H177.341V259.224H169.699ZM170.676 258.424H176.351V256.088H170.676V258.424ZM181.588 261.369V262.778H183.645V261.369H184.571V265.876H180.649V261.369H181.588ZM179.519 257.84C179.512 256.297 180.731 255.25 182.451 255.25C183.968 255.25 185.117 256.107 185.333 257.408H187.694V254.742H188.697V260.722H187.694V258.233H185.339C185.143 259.566 183.981 260.442 182.451 260.442C180.731 260.442 179.512 259.389 179.519 257.84ZM180.471 257.84C180.471 258.875 181.29 259.611 182.451 259.617C183.587 259.611 184.406 258.875 184.406 257.84C184.406 256.812 183.587 256.088 182.451 256.088C181.29 256.088 180.471 256.812 180.471 257.84ZM181.588 265.089H183.645V263.54H181.588V265.089ZM184.724 265.203C186.082 264.638 186.799 263.4 186.806 262.258V261.293H187.796V262.258C187.783 263.445 188.501 264.695 189.878 265.203L189.358 265.965C188.316 265.552 187.637 264.752 187.288 263.819C186.933 264.74 186.241 265.54 185.244 265.965L184.724 265.203ZM199.622 254.742V266.054H198.619V254.742H199.622ZM190.735 259.554C190.742 257.154 191.935 255.625 193.617 255.618C195.293 255.625 196.505 257.154 196.499 259.554C196.505 261.959 195.293 263.483 193.617 263.477C191.935 263.483 190.742 261.959 190.735 259.554ZM191.7 259.554C191.7 261.388 192.487 262.594 193.617 262.588C194.753 262.594 195.534 261.388 195.534 259.554C195.534 257.719 194.753 256.513 193.617 256.507C192.487 256.513 191.7 257.719 191.7 259.554ZM205.754 255.225V256.85H209.042V255.225H210.033V260.138H204.777V255.225H205.754ZM205.754 259.325H209.042V257.624H205.754V259.325ZM205.919 261.915V261.115H213.118V263.845H206.922V265.089H213.536V265.901H205.945V263.083H212.127V261.915H205.919ZM212.127 260.582V254.742H213.118V257.192H214.819V258.03H213.118V260.582H212.127ZM217.606 261.204V262.702H223.255V261.204H224.245V265.876H216.615V261.204H217.606ZM215.27 260.188V259.363H222.957C223.261 257.96 223.261 256.951 223.255 256.088H216.577V255.263H224.245V256.088C224.245 256.951 224.245 257.954 223.934 259.363H225.604V260.188H215.27ZM217.606 265.063H223.255V263.489H217.606V265.063ZM235.068 254.704V257.446H236.782V258.271H235.068V260.95H234.078V254.704H235.068ZM226.27 256.57V255.771H229.14V254.628H230.13V255.771H232.999V256.57H226.27ZM226.918 258.932C226.912 257.789 227.991 257.084 229.635 257.078C231.272 257.084 232.339 257.789 232.351 258.932C232.339 260.081 231.272 260.779 229.635 260.785C227.991 260.779 226.912 260.081 226.918 258.932ZM227.87 262.283V261.534H235.068V264.035H228.873V265.14H235.487V265.901H227.895V263.299H234.078V262.283H227.87ZM227.87 258.932C227.864 259.611 228.562 260.036 229.635 260.036C230.701 260.036 231.399 259.611 231.412 258.932C231.399 258.259 230.701 257.821 229.635 257.814C228.562 257.821 227.864 258.259 227.87 258.932ZM245.885 255.796C245.892 257.389 247.961 258.76 249.998 259.046L249.592 259.858C247.84 259.566 246.101 258.595 245.377 257.211C244.654 258.608 242.921 259.566 241.163 259.858L240.756 259.046C242.794 258.76 244.857 257.415 244.857 255.796V255.148H245.885V255.796ZM240.223 261.94V261.103H250.506V261.94H245.834V266.028H244.857V261.94H240.223ZM258.022 262.321C258.016 263.318 258.556 264.378 259.628 264.987C260.707 264.321 261.279 263.191 261.272 262.321V261.699H262.25V262.321C262.244 263.483 263.101 264.638 264.548 265.14L264.053 265.876C262.923 265.476 262.136 264.689 261.742 263.743C261.393 264.657 260.701 265.527 259.66 265.965C258.562 265.546 257.864 264.721 257.527 263.775C257.121 264.683 256.347 265.47 255.268 265.876L254.76 265.14C256.188 264.606 257.045 263.4 257.058 262.321V261.699H258.022V262.321ZM254.468 258.056C254.461 256.481 255.712 255.409 257.426 255.415C259.14 255.409 260.377 256.481 260.384 258.056C260.377 259.604 259.14 260.671 257.426 260.671C255.712 260.671 254.461 259.604 254.468 258.056ZM255.445 258.056C255.433 259.103 256.264 259.839 257.426 259.846C258.575 259.839 259.406 259.103 259.406 258.056C259.406 257.002 258.575 256.253 257.426 256.266C256.264 256.253 255.433 257.002 255.445 258.056ZM262.529 261.204V254.755H263.519V261.204H262.529ZM268.211 255.618C269.747 255.625 270.858 256.945 271.01 259.059H273.543V254.742H274.533V266.054H273.543V259.884H271.023C270.915 262.099 269.785 263.483 268.211 263.477C266.541 263.483 265.373 261.959 265.38 259.554C265.373 257.154 266.541 255.625 268.211 255.618ZM266.332 259.554C266.338 261.388 267.1 262.594 268.211 262.588C269.315 262.594 270.09 261.388 270.09 259.554C270.09 257.719 269.315 256.513 268.211 256.507C267.1 256.513 266.338 257.719 266.332 259.554ZM286.486 263.743V264.581H276.152V263.743H278.716V260.703C277.751 260.201 277.167 259.389 277.167 258.36C277.167 256.615 278.881 255.466 281.293 255.453C283.706 255.466 285.419 256.615 285.419 258.36C285.419 259.37 284.854 260.169 283.921 260.671V263.743H286.486ZM278.132 258.36C278.126 259.624 279.44 260.468 281.293 260.468C283.128 260.468 284.455 259.624 284.455 258.36C284.455 257.097 283.128 256.266 281.293 256.278C279.44 256.266 278.126 257.097 278.132 258.36ZM279.694 263.743H282.918V261.058C282.43 261.185 281.884 261.255 281.293 261.255C280.716 261.255 280.176 261.191 279.694 261.064V263.743ZM288.321 265.076C287.876 265.07 287.495 264.702 287.508 264.251C287.495 263.807 287.876 263.438 288.321 263.438C288.771 263.438 289.139 263.807 289.133 264.251C289.139 264.702 288.771 265.07 288.321 265.076Z" fill="white"/>
<path d="M358.866 305.102H41.1341C32.7758 305.102 26 311.886 26 320.256V570.672C26 579.041 32.7758 585.826 41.1341 585.826H358.866C367.224 585.826 374 579.041 374 570.672V320.256C374 311.886 367.224 305.102 358.866 305.102Z" fill="#DAE0EB"/>
<mask id="mask0_911_377" style="mask-type:luminance" maskUnits="userSpaceOnUse" x="26" y="305" width="348" height="281">
<path d="M358.866 305.102H41.1341C32.7758 305.102 26 311.886 26 320.256V570.672C26 579.041 32.7758 585.826 41.1341 585.826H358.866C367.224 585.826 374 579.041 374 570.672V320.256C374 311.886 367.224 305.102 358.866 305.102Z" fill="white"/>
</mask>
<g mask="url(#mask0_911_377)">
<g filter="url(#filter0_d_911_377)">
<path d="M92.0859 338.852V551.051C92.0859 554.553 94.9234 557.394 98.4203 557.394H440.465C443.962 557.394 446.799 554.553 446.799 551.051V338.852H92.0859Z" fill="white"/>
<path d="M98.4203 319.822H440.465C443.962 319.822 446.799 322.664 446.799 326.165V341.387H92.0859V326.165C92.0859 322.664 94.9234 319.822 98.4203 319.822Z" fill="#E3E9F2"/>
<path d="M399.98 335.995H183.036C180.064 335.995 177.652 333.581 177.652 330.604C177.652 327.627 180.064 325.213 183.036 325.213H399.98C402.953 325.213 405.364 327.627 405.364 330.604C405.364 333.581 402.953 335.995 399.98 335.995Z" fill="white"/>
<path d="M152.051 333.774C151.97 333.774 151.889 333.744 151.828 333.683C151.703 333.558 151.703 333.358 151.828 333.236L154.456 330.605L151.828 327.973C151.703 327.848 151.703 327.648 151.828 327.526C151.953 327.404 152.153 327.401 152.275 327.526L155.126 330.381C155.251 330.506 155.251 330.706 155.126 330.828L152.275 333.683C152.214 333.744 152.133 333.774 152.051 333.774Z" fill="#A9B8D0"/>
<path d="M142.549 333.776C142.468 333.776 142.387 333.745 142.326 333.684L139.475 330.829C139.35 330.704 139.35 330.504 139.475 330.382L142.326 327.528C142.451 327.402 142.65 327.402 142.772 327.528C142.894 327.653 142.897 327.853 142.772 327.975L140.144 330.606L142.772 333.237C142.897 333.362 142.897 333.562 142.772 333.684C142.711 333.745 142.63 333.776 142.549 333.776Z" fill="#A9B8D0"/>
<path d="M103.447 333.46C105.021 333.46 106.298 332.181 106.298 330.605C106.298 329.028 105.021 327.75 103.447 327.75C101.872 327.75 100.596 329.028 100.596 330.605C100.596 332.181 101.872 333.46 103.447 333.46Z" fill="#FF858B"/>
<path d="M112.568 333.46C114.142 333.46 115.419 332.181 115.419 330.605C115.419 329.028 114.142 327.75 112.568 327.75C110.993 327.75 109.717 329.028 109.717 330.605C109.717 332.181 110.993 333.46 112.568 333.46Z" fill="#FFCC6E"/>
<path d="M121.689 333.46C123.263 333.46 124.54 332.181 124.54 330.605C124.54 329.028 123.263 327.75 121.689 327.75C120.114 327.75 118.838 329.028 118.838 330.605C118.838 332.181 120.114 333.46 121.689 333.46Z" fill="#6DED85"/>
<path d="M166.043 334.412C163.947 334.412 162.242 332.705 162.242 330.605C162.242 328.506 163.947 326.799 166.043 326.799C168.14 326.799 169.845 328.506 169.845 330.605C169.845 330.991 169.787 331.371 169.672 331.736C169.622 331.902 169.446 331.997 169.277 331.946C169.111 331.895 169.016 331.716 169.067 331.55C169.162 331.245 169.209 330.93 169.209 330.609C169.209 328.861 167.789 327.439 166.043 327.439C164.298 327.439 162.878 328.861 162.878 330.609C162.878 332.356 164.298 333.778 166.043 333.778C166.889 333.778 167.684 333.45 168.282 332.85C168.407 332.725 168.607 332.725 168.729 332.85C168.854 332.976 168.854 333.176 168.729 333.297C168.012 334.015 167.058 334.412 166.04 334.412H166.043Z" fill="#A9B8D0"/>
<path d="M169.524 332.147C169.43 332.147 169.338 332.103 169.281 332.028L168.192 330.681C168.08 330.545 168.104 330.345 168.239 330.234C168.375 330.125 168.574 330.146 168.686 330.281L169.531 331.327L170.387 330.291C170.498 330.156 170.698 330.135 170.833 330.247C170.968 330.359 170.989 330.559 170.877 330.694L169.775 332.032C169.714 332.106 169.626 332.147 169.531 332.147H169.524Z" fill="#A9B8D0"/>
<path d="M183.443 332.628C182.78 332.628 182.114 332.374 181.61 331.869C180.599 330.857 180.599 329.208 181.61 328.195C182.621 327.182 184.268 327.182 185.279 328.195C186.291 329.208 186.291 330.857 185.279 331.869C184.772 332.377 184.109 332.628 183.446 332.628H183.443ZM183.443 328.07C182.939 328.07 182.439 328.263 182.056 328.645C181.292 329.411 181.292 330.657 182.056 331.422C182.821 332.188 184.065 332.188 184.83 331.422C185.594 330.657 185.594 329.411 184.83 328.645C184.447 328.263 183.947 328.07 183.443 328.07Z" fill="#A9B8D0"/>
<path d="M186.868 333.776C186.787 333.776 186.706 333.746 186.645 333.685L184.832 331.87C184.707 331.744 184.707 331.545 184.832 331.423C184.957 331.301 185.157 331.297 185.279 331.423L187.091 333.238C187.216 333.363 187.216 333.563 187.091 333.685C187.03 333.746 186.949 333.776 186.868 333.776Z" fill="#A9B8D0"/>
<path d="M446.799 341.387H92.0859V348.786H446.799V341.387Z" fill="#002C78"/>
<path d="M135.07 374.472V373.223H141.81V374.472H138.942L141.929 378.123L140.914 378.966L138.493 375.949L136.108 379.166L135.057 378.323L138.046 374.476H135.074L135.07 374.472ZM144.404 382.133C144.404 382.519 144.323 382.898 144.161 383.247C144.002 383.589 143.782 383.9 143.508 384.165C143.227 384.432 142.899 384.645 142.537 384.791C141.777 385.099 140.924 385.099 140.16 384.791C139.798 384.645 139.467 384.435 139.186 384.165C138.915 383.9 138.696 383.589 138.537 383.247C138.212 382.539 138.212 381.726 138.537 381.019C138.696 380.673 138.915 380.362 139.186 380.101C139.467 379.83 139.798 379.62 140.16 379.474C140.921 379.166 141.773 379.166 142.537 379.474C142.896 379.62 143.227 379.833 143.508 380.101C143.779 380.365 144.002 380.677 144.161 381.019C144.323 381.367 144.408 381.747 144.404 382.133ZM142.97 382.119C142.974 381.689 142.801 381.279 142.49 380.985C142.186 380.677 141.77 380.504 141.34 380.511C140.454 380.511 139.734 381.232 139.734 382.119C139.734 383.006 140.454 383.728 141.34 383.728C141.773 383.734 142.186 383.565 142.493 383.26C142.808 382.966 142.98 382.549 142.974 382.119M143.944 379.112V376.569H141.76V375.302H143.944V372.881H145.405V379.115H143.944V379.112Z" fill="#444548"/>
<path d="M142.97 382.119C142.974 381.689 142.801 381.279 142.49 380.985C142.186 380.677 141.77 380.504 141.34 380.511C140.454 380.511 139.734 381.232 139.734 382.119C139.734 383.006 140.454 383.728 141.34 383.728C141.773 383.734 142.186 383.565 142.493 383.26C142.808 382.966 142.98 382.549 142.974 382.119M135.07 374.472V373.223H141.81V374.472H138.942L141.929 378.123L140.914 378.966L138.493 375.949L136.108 379.166L135.057 378.323L138.046 374.476H135.074L135.07 374.472ZM144.404 382.133C144.404 382.519 144.323 382.898 144.161 383.247C144.002 383.589 143.782 383.9 143.508 384.165C143.227 384.432 142.899 384.645 142.537 384.791C141.777 385.099 140.924 385.099 140.16 384.791C139.798 384.645 139.467 384.435 139.186 384.165C138.915 383.9 138.696 383.589 138.537 383.247C138.212 382.539 138.212 381.726 138.537 381.019C138.696 380.673 138.915 380.362 139.186 380.101C139.467 379.83 139.798 379.62 140.16 379.474C140.921 379.166 141.773 379.166 142.537 379.474C142.896 379.62 143.227 379.833 143.508 380.101C143.779 380.365 144.002 380.677 144.161 381.019C144.323 381.367 144.408 381.747 144.404 382.133ZM143.944 379.112V376.569H141.76V375.302H143.944V372.881H145.405V379.115H143.944V379.112Z" stroke="#444548" stroke-width="0.6"/>
<path d="M147.133 380.311H157.925V381.601H153.254V384.632H151.793V381.601H147.133V380.311ZM149.436 374.564H155.611V373.074H157.059V378.73H148.005V373.074H149.439V374.564H149.436ZM155.611 375.831H149.439V377.453H155.615V375.831H155.611Z" fill="#444548" stroke="#444548" stroke-width="0.6"/>
<path d="M167.287 384.782H159.9V383.129L164.114 379.201C164.179 379.14 164.25 379.072 164.327 378.998C164.95 378.412 165.89 377.528 165.89 376.451C165.89 375.374 165.311 374.043 163.681 374.043C162.383 374.043 161.507 374.876 161.344 376.268L161.307 376.549L159.907 376.343L159.951 376.048C160.428 373.078 162.684 372.76 163.634 372.76C165.853 372.76 167.287 374.24 167.287 376.532C167.287 377.999 166.306 378.964 165.518 379.739L165.386 379.868L161.503 383.495H167.283V384.778L167.287 384.782Z" fill="#444548" stroke="#444548" stroke-width="0.6"/>
<path d="M176.109 381.28H174.804V372.926H173.566L168.148 381.084V382.564H173.485V384.782H174.801V382.564H176.339V381.28H176.109ZM169.582 381.28L173.488 375.29V381.28H169.582Z" fill="#444548" stroke="#444548" stroke-width="0.6"/>
<path d="M125.838 378.473C124.336 377.43 122.277 377.803 121.232 379.307C121.194 379.357 121.161 379.412 121.13 379.462C120.143 381.007 118.093 381.457 116.551 380.468C115.861 380.024 115.361 379.344 115.141 378.551L115.131 378.517L115.12 378.477C114.995 378.05 114.938 377.603 114.948 377.159C114.948 374.186 117.995 370.878 122.381 370.878C125.801 370.905 128.861 373.014 130.109 376.205L130.075 376.103C128.381 371.155 123 368.517 118.056 370.217C114.234 371.531 111.664 375.131 111.664 379.178C111.664 383.855 115.029 387.861 119.703 387.861C122.977 387.969 125.953 385.961 127.082 382.883C127.752 381.305 127.231 379.469 125.834 378.48" fill="#002852"/>
<path d="M130.166 376.384C128.979 373.095 125.871 370.894 122.381 370.867C117.994 370.867 114.947 374.176 114.947 377.149C114.934 377.596 114.991 378.04 115.116 378.466C115.059 378.246 115.032 378.019 115.028 377.789C115.028 374.694 118.123 372.547 121.305 372.547C125.614 372.547 129.107 376.045 129.107 380.359C129.107 383.631 127.264 386.618 124.339 388.074C128.083 386.716 130.579 383.157 130.579 379.167C130.579 378.223 130.44 377.281 130.163 376.38" fill="#FF0028"/>
<path d="M238.99 377.887L237.996 379.31C236.902 378.854 236.149 378.072 235.695 377.105C235.212 378.214 234.416 379.139 233.209 379.665L232.215 378.2C234.047 377.389 234.757 375.768 234.757 374.275V372.753L236.235 372.767H236.561V374.275C236.561 375.725 237.257 377.162 238.99 377.887ZM234.544 382.04V380.561H243.55V385.141H241.675V382.04H234.544ZM241.774 372.027H243.55V379.978H241.774V376.721H240.751V379.907H239.004V372.226H240.751V375.213H241.774V372.027Z" fill="#002C78"/>
<path d="M220.101 372.781H226.067C226.067 376.237 223.936 378.598 220.129 379.65L219.391 378.2C222.203 377.432 223.78 376.009 224.078 374.274H220.101V372.781ZM223.51 381.357V383.505H228.424V381.357H223.51ZM221.663 384.97V379.878H230.271V384.97H221.663ZM228.396 372.041H230.271V379.338H228.396V376.649H226.138V375.127H228.396V372.041Z" fill="#002C78"/>
<path d="M213.979 373.179L213.965 374.644H206.252V373.179H209.164V371.928H211.053V373.179H213.979ZM208.695 377.318C208.695 377.944 209.277 378.271 210.115 378.271C210.954 378.271 211.536 377.944 211.536 377.318C211.536 376.692 210.954 376.365 210.115 376.365C209.277 376.365 208.695 376.692 208.695 377.318ZM213.326 377.318C213.326 378.698 212.005 379.637 210.115 379.637C208.226 379.637 206.905 378.698 206.905 377.318C206.905 375.924 208.226 375 210.115 375C212.005 375 213.326 375.924 213.326 377.318ZM214.703 383.52V382.609H209.917V383.52H214.703ZM214.703 381.187V380.191H216.564V384.985H208.056V380.191H209.917V381.187H214.703ZM218.297 375.171V376.707H216.564V379.694H214.689V372.027H216.564V375.171H218.297Z" fill="#002C78"/>
<path d="M199.08 383.762C200.898 383.762 201.736 383.52 201.736 382.98C201.736 382.439 200.898 382.212 199.08 382.212C197.276 382.212 196.438 382.439 196.438 382.98C196.438 383.52 197.276 383.762 199.08 383.762ZM199.08 380.832C201.964 380.832 203.626 381.572 203.626 382.98C203.626 384.373 201.964 385.127 199.08 385.127C196.211 385.127 194.549 384.373 194.549 382.98C194.549 381.572 196.211 380.832 199.08 380.832ZM200.032 378.784H205.018V380.249H193.186V378.784H198.157V377.973H194.663V372.369H203.668V373.791H196.524V374.474H203.37V375.84H196.524V376.551H203.768V377.973H200.032V378.784Z" fill="#002C78"/>
<path d="M288.832 489.641V491.533C288.832 494.008 289.783 496.411 291.942 497.379L290.834 498.872C289.4 498.175 288.448 496.895 287.908 495.316C287.34 496.995 286.36 498.36 284.897 499.1L283.732 497.592C285.948 496.568 286.943 494.022 286.943 491.533V489.641H288.832ZM293.022 488.617H294.897V501.759H293.022V494.235H290.508V492.728H293.022V488.617Z" fill="black"/>
<path d="M277.882 492.129H279.913V488.631H281.788V496.539H279.913V493.637H277.882V492.129ZM278.706 494.69L277.853 496.126C276.39 495.742 275.368 494.931 274.771 493.893C274.189 495.088 273.166 496.012 271.646 496.453L270.766 495.003C272.839 494.405 273.748 492.926 273.777 491.461H271.22V489.982H273.777V488.588H275.652V489.982H278.237V491.461H275.652C275.68 492.812 276.618 494.135 278.706 494.69ZM277.371 500.294C279.075 500.294 279.97 499.966 279.97 499.255C279.97 498.544 279.075 498.203 277.371 498.203C275.638 498.203 274.757 498.544 274.757 499.255C274.757 499.966 275.638 500.294 277.371 500.294ZM277.371 496.766C280.14 496.766 281.845 497.676 281.845 499.255C281.845 500.82 280.14 501.73 277.371 501.73C274.587 501.73 272.882 500.82 272.882 499.255C272.882 497.676 274.587 496.766 277.371 496.766Z" fill="black"/>
<path d="M268.649 488.645V498.188H266.76V488.645H268.649ZM265.794 494.718L264.842 496.211C263.393 495.713 262.399 494.746 261.831 493.523C261.234 494.846 260.212 495.913 258.692 496.439L257.74 494.945C259.913 494.206 260.851 492.371 260.851 490.636V489.356H262.754V490.636C262.754 492.357 263.663 494.035 265.794 494.718ZM261.817 500.009H268.976V501.502H259.942V497.278H261.817V500.009Z" fill="black"/>
<path d="M250.049 500.094V498.899H244.765V500.094H250.049ZM250.049 497.448V496.083H251.924V501.587H242.904V496.083H244.765V497.448H250.049ZM251.668 493.736H253.344V495.244H241.498V493.736H249.807C250.063 492.499 250.106 491.517 250.106 490.65H242.961V489.156H251.952V490.209C251.952 491.233 251.952 492.271 251.668 493.736Z" fill="black"/>
<path d="M233.234 493.481V492.172H230.663V493.481H233.234ZM235.08 489.2V494.946H228.816V489.2H230.663V490.764H233.234V489.2H235.08ZM231.97 499.355V500.18H239.1V501.631H230.109V498.018H236.884V497.222H230.095V495.799H238.731V499.355H231.97ZM238.731 491.163H240.45V492.684H238.731V495.287H236.856V488.631H238.731V491.163Z" fill="black"/>
<path d="M224.91 488.617H226.685V501.717H224.91V495.174H223.844V501.134H222.097V497.336L221.046 498.744C219.881 498.118 219.129 497.066 218.66 495.757C218.234 497.265 217.467 498.502 216.245 499.228L215.123 497.805C217.069 496.668 217.694 494.349 217.694 491.832V491.476H215.549V489.954H221.472V491.476H219.512V491.832C219.512 494.122 220.165 496.298 222.097 497.308V488.831H223.844V493.638H224.91V488.617Z" fill="black"/>
<path d="M210.526 496.58C209.787 496.58 209.219 495.983 209.219 495.229C209.219 494.447 209.787 493.85 210.526 493.85C211.264 493.85 211.818 494.447 211.818 495.229C211.818 495.983 211.264 496.58 210.526 496.58Z" fill="black"/>
<path d="M202.443 500.094V498.899H197.16V500.094H202.443ZM202.443 497.448V496.083H204.318V501.587H195.299V496.083H197.16V497.448H202.443ZM204.063 493.736H205.739V495.244H193.893V493.736H202.202C202.458 492.499 202.5 491.517 202.5 490.65H195.356V489.156H204.347V490.209C204.347 491.233 204.347 492.271 204.063 493.736Z" fill="black"/>
<path d="M185.626 493.481V492.172H183.056V493.481H185.626ZM187.473 489.2V494.946H181.209V489.2H183.056V490.764H185.626V489.2H187.473ZM184.362 499.355V500.18H191.493V501.631H182.502V498.018H189.277V497.222H182.487V495.799H191.123V499.355H184.362ZM191.123 491.163H192.842V492.684H191.123V495.287H189.248V488.631H191.123V491.163Z" fill="black"/>
<path d="M165.677 494.178L165.052 492.713C167.524 492.499 168.802 491.632 169.101 490.736H165.621V489.242H175.294V490.736H171.799C172.098 491.632 173.376 492.499 175.862 492.713L175.208 494.178C172.751 493.95 171.132 493.04 170.45 491.788C169.754 493.04 168.149 493.95 165.677 494.178ZM170.422 500.294C172.169 500.294 173.063 499.981 173.063 499.298C173.063 498.615 172.169 498.317 170.422 498.317C168.674 498.317 167.78 498.615 167.78 499.298C167.78 499.981 168.674 500.294 170.422 500.294ZM170.422 496.866C173.248 496.866 174.967 497.762 174.967 499.298C174.967 500.848 173.248 501.744 170.422 501.744C167.595 501.744 165.89 500.848 165.89 499.298C165.89 497.762 167.595 496.866 170.422 496.866ZM164.541 494.675H176.359V496.155H164.541V494.675Z" fill="black"/>
<path d="M152.781 499.355V497.876H161.957V501.688H160.082V499.355H152.781ZM158.335 495.643H163.321V497.136H151.475V495.643H156.46V494.704H152.952V491.106H160.025V490.309H152.923V488.887H161.872V492.428H154.798V493.282H162.142V494.704H158.335V495.643Z" fill="black"/>
<path d="M148.904 492.229V493.708H139.856V488.986H148.833V490.48H141.717V492.229H148.904ZM144.288 500.308C146.035 500.308 146.93 500.009 146.93 499.327C146.93 498.644 146.035 498.331 144.288 498.331C142.541 498.331 141.646 498.644 141.646 499.327C141.646 500.009 142.541 500.308 144.288 500.308ZM144.288 496.909C147.115 496.909 148.833 497.776 148.833 499.327C148.833 500.863 147.115 501.73 144.288 501.73C141.462 501.73 139.757 500.863 139.757 499.327C139.757 497.776 141.462 496.909 144.288 496.909ZM138.422 494.619H150.254V496.155H138.422V494.619Z" fill="black"/>
<path d="M136.207 488.631V497.947H134.318V488.631H136.207ZM130.511 494.519V491.148H127.841V494.519H130.511ZM132.343 489.669V495.998H125.994V489.669H132.343ZM129.375 499.953H136.534V501.46H127.5V497.122H129.375V499.953Z" fill="black"/>
<path d="M113.525 495.116L112.843 493.651C115.513 493.324 116.905 492.044 117.09 490.792H113.326V489.299H123.027V490.792H119.32C119.505 492.044 120.883 493.324 123.539 493.651L122.871 495.116C120.584 494.803 118.979 493.822 118.198 492.485C117.417 493.822 115.812 494.803 113.525 495.116ZM124.107 495.87V497.363H119.093V501.758H117.218V497.363H112.289V495.87H124.107Z" fill="black"/>
<path d="M233.981 530.523L233.305 531.606C231.938 531.173 230.964 530.292 230.437 529.154C229.896 530.455 228.868 531.498 227.407 531.999L226.703 530.902C228.624 530.238 229.693 528.667 229.693 527.001V526.757H227.095V525.633H233.656V526.757H231.1V526.987C231.1 528.504 232.114 529.927 233.981 530.523ZM232.412 535.9C234.116 535.9 235.104 535.467 235.104 534.681C235.104 533.882 234.116 533.462 232.412 533.462C230.707 533.462 229.72 533.882 229.72 534.681C229.72 535.467 230.707 535.9 232.412 535.9ZM232.412 532.365C234.928 532.365 236.484 533.218 236.484 534.681C236.484 536.131 234.928 536.998 232.412 536.998C229.896 536.998 228.34 536.131 228.34 534.681C228.34 533.218 229.896 532.365 232.412 532.365ZM236.348 527.746H238.08V528.897H236.348V532.08H234.955V524.766H236.348V527.746Z" fill="black"/>
<path d="M216.302 526.174V532.717C217.384 532.69 218.561 532.595 219.886 532.351L220.035 533.543C218.398 533.841 216.991 533.909 215.72 533.909H214.908V526.174H216.302ZM223.431 524.766H224.756V536.998H223.431V530.78H221.983V536.388H220.671V525.009H221.983V529.629H223.431V524.766Z" fill="black"/>
<path d="M206.447 530.251L205.824 531.348C204.404 530.955 203.335 530.102 202.767 529.005C202.226 530.224 201.171 531.159 199.696 531.592L199.047 530.508C200.9 529.953 202.009 528.585 202.05 527.122H199.399V526.011H202.05V524.697H203.443V526.011H206.068V527.122H203.443C203.484 528.49 204.607 529.763 206.447 530.251ZM207.569 535.724V534.423H202.348V535.724H207.569ZM207.569 533.326V532.053H208.949V536.848H200.968V532.053H202.348V533.326H207.569ZM207.556 524.765H208.949V531.524H207.556V524.765Z" fill="black"/>
<path d="M191.943 538.65L190.969 538.217C192.132 536.28 192.673 533.991 192.673 531.715C192.673 529.453 192.132 527.163 190.969 525.213L191.943 524.793C193.214 526.838 193.958 529.046 193.958 531.715C193.958 534.411 193.214 536.591 191.943 538.65Z" fill="black"/>
<path d="M186.797 536.13C184.294 536.13 182.373 534.261 182.373 530.997C182.373 527.746 184.348 525.795 186.864 525.795C188.109 525.795 189.083 526.391 189.692 527.055L188.839 528.057C188.325 527.529 187.703 527.163 186.891 527.163C185.173 527.163 183.983 528.599 183.983 530.942C183.983 533.313 185.092 534.762 186.851 534.762C187.757 534.762 188.461 534.356 189.056 533.706L189.894 534.695C189.096 535.616 188.082 536.13 186.797 536.13Z" fill="black"/>
<path d="M178.738 535.954V525.984H180.307V535.954H178.738Z" fill="black"/>
<path d="M175.824 538.65C174.566 536.591 173.822 534.411 173.822 531.715C173.822 529.046 174.566 526.838 175.824 524.793L176.798 525.213C175.635 527.163 175.094 529.453 175.094 531.715C175.094 533.991 175.635 536.28 176.798 538.217L175.824 538.65Z" fill="black"/>
<path d="M167.072 534.41H171.929V535.562H160.863V534.41H165.679V532.324H162.203V528.382H169.237V526.743H162.175V525.619H170.617V529.493H163.569V531.2H170.887V532.324H167.072V534.41Z" fill="black"/>
<path d="M156.116 526.188V527.312H148.73V526.188H151.733V524.779H153.126V526.188H156.116ZM150.773 530.184C150.773 530.942 151.449 531.403 152.436 531.403C153.41 531.403 154.087 530.942 154.087 530.184C154.087 529.439 153.41 528.978 152.436 528.978C151.449 528.978 150.773 529.439 150.773 530.184ZM153.126 532.419V533.57C154.222 533.503 155.331 533.435 156.373 533.286L156.468 534.302C153.776 534.762 150.881 534.803 148.662 534.803L148.486 533.652C149.46 533.652 150.583 533.652 151.733 533.611V532.419C150.353 532.202 149.447 531.362 149.447 530.184C149.447 528.816 150.664 527.908 152.436 527.908C154.195 527.908 155.413 528.816 155.413 530.184C155.413 531.376 154.506 532.202 153.126 532.419ZM157.063 524.752H158.47V536.997H157.063V524.752Z" fill="black"/>
<path d="M143.239 530.563L142.549 531.647C141.196 531.173 140.222 530.211 139.695 529.032C139.153 530.346 138.125 531.403 136.678 531.904L135.961 530.807C137.855 530.157 138.964 528.545 138.964 526.892V526.648H136.38V525.524H142.914V526.648H140.371V526.879C140.371 528.396 141.413 529.926 143.239 530.563ZM137.855 533.801V532.676H146.093V536.997H144.7V533.801H137.855ZM144.7 524.752H146.093V532.067H144.7V528.978H142.562V527.827H144.7V524.752Z" fill="black"/>
<path d="M131.065 530.143L130.389 531.227C128.982 530.793 127.94 529.886 127.386 528.734C126.831 529.981 125.789 530.97 124.328 531.444L123.625 530.346C125.546 529.75 126.655 528.247 126.655 526.675V526.621H124.004V525.497H130.686V526.621H128.076V526.675C128.076 528.166 129.185 529.574 131.065 530.143ZM132.215 535.724V534.37H126.993V535.724H132.215ZM132.215 533.272V531.958H133.595V536.848H125.614V531.958H126.993V533.272H132.215ZM132.202 524.752H133.595V531.403H132.202V524.752Z" fill="black"/>
<path d="M293.377 527.95H295.582V524.564H296.976V531.974H295.582V529.102H293.377V527.95ZM294.135 530.443L293.486 531.513C292.092 531.12 291.064 530.267 290.51 529.197C289.969 530.416 288.94 531.378 287.506 531.825L286.83 530.741C288.71 530.158 289.766 528.709 289.766 527.178V527.07H287.195V525.959H289.766V524.51H291.172V525.959H293.729V527.07H291.159V527.178C291.159 528.574 292.268 529.901 294.135 530.443ZM292.904 535.726C294.649 535.726 295.637 535.292 295.637 534.52C295.637 533.748 294.649 533.328 292.904 533.328C291.172 533.328 290.185 533.748 290.185 534.52C290.185 535.292 291.172 535.726 292.904 535.726ZM292.904 532.244C295.461 532.244 297.03 533.084 297.03 534.52C297.03 535.956 295.461 536.809 292.904 536.809C290.347 536.809 288.792 535.956 288.792 534.52C288.792 533.084 290.347 532.244 292.904 532.244Z" fill="black"/>
<path d="M284.477 524.592V533.532H283.084V524.592H284.477ZM281.812 530.498L281.095 531.609C279.702 531.094 278.701 530.091 278.173 528.818C277.619 530.186 276.604 531.297 275.17 531.839L274.453 530.715C276.374 530.01 277.443 528.263 277.443 526.475V525.256H278.863V526.475C278.863 528.209 279.932 529.848 281.812 530.498ZM277.903 535.442H284.829V536.58H276.496V532.692H277.903V535.442Z" fill="black"/>
<path d="M266.416 538.083V537.216H268.107V525.838H266.416V524.984H269.284V538.083H266.416Z" fill="black"/>
<path d="M250.32 538.083V524.984H253.175V525.838H251.484V537.216H253.175V538.083H250.32Z" fill="black"/>
<path d="M213.921 416.668L213.177 414.924C216.119 414.67 217.641 413.638 217.996 412.571H213.853V410.793H225.369V412.571H221.209C221.564 413.638 223.086 414.67 226.045 414.924L225.267 416.668C222.342 416.398 220.414 415.314 219.603 413.824C218.774 415.314 216.863 416.398 213.921 416.668ZM219.569 423.949C221.649 423.949 222.714 423.577 222.714 422.764C222.714 421.951 221.649 421.596 219.569 421.596C217.489 421.596 216.424 421.951 216.424 422.764C216.424 423.577 217.489 423.949 219.569 423.949ZM219.569 419.869C222.934 419.869 224.98 420.935 224.98 422.764C224.98 424.61 222.934 425.676 219.569 425.676C216.204 425.676 214.175 424.61 214.175 422.764C214.175 420.935 216.204 419.869 219.569 419.869ZM212.568 417.261H226.637V419.022H212.568V417.261Z" fill="black"/>
<path d="M198.569 422.831V421.07H209.493V425.608H207.261V422.831H198.569ZM205.181 418.412H211.116V420.19H197.014V418.412H202.949V417.294H198.772V413.011H207.193V412.062H198.738V410.369H209.392V414.585H200.971V415.601H209.713V417.294H205.181V418.412Z" fill="black"/>
<path d="M193.954 414.349V416.11H183.182V410.488H193.869V412.266H185.398V414.349H193.954ZM188.458 423.966C190.538 423.966 191.603 423.611 191.603 422.798C191.603 421.985 190.538 421.613 188.458 421.613C186.378 421.613 185.313 421.985 185.313 422.798C185.313 423.611 186.378 423.966 188.458 423.966ZM188.458 419.92C191.823 419.92 193.869 420.952 193.869 422.798C193.869 424.627 191.823 425.66 188.458 425.66C185.093 425.66 183.064 424.627 183.064 422.798C183.064 420.952 185.093 419.92 188.458 419.92ZM181.475 417.193H195.56V419.022H181.475V417.193Z" fill="black"/>
<path d="M178.838 410.064V421.155H176.589V410.064H178.838ZM172.057 417.074V413.061H168.878V417.074H172.057ZM174.238 411.301V418.835H166.68V411.301H174.238ZM170.704 423.543H179.227V425.337H168.472V420.173H170.704V423.543Z" fill="black"/>
<path d="M151.834 417.785L151.023 416.041C154.202 415.651 155.859 414.127 156.079 412.637H151.598V410.859H163.147V412.637H158.734C158.953 414.127 160.594 415.651 163.756 416.041L162.961 417.785C160.239 417.412 158.328 416.244 157.398 414.652C156.468 416.244 154.557 417.412 151.834 417.785ZM164.432 418.682V420.46H158.463V425.692H156.231V420.46H150.363V418.682H164.432Z" fill="black"/>
<path d="M188.394 462.794L187.447 464.656C184.741 464.114 182.746 462.607 181.748 460.626C180.75 462.607 178.772 464.131 176.066 464.656L175.119 462.794C178.62 462.184 180.564 459.712 180.564 457.477V456.359H182.949V457.477C182.949 459.763 184.876 462.184 188.394 462.794ZM174.781 467.332H188.884V469.143H174.781V467.332Z" fill="#006BEE"/>
<path d="M169.897 455.428H172.129V471.073H169.897V455.428ZM159.988 456.681H162.203V460.457H165.45V456.681H167.665V467.433H159.988V456.681ZM162.203 462.201V465.655H165.45V462.201H162.203Z" fill="#006BEE"/>
<path d="M149.522 456.647V458.899C149.522 461.845 150.655 464.707 153.225 465.858L151.906 467.636C150.198 466.806 149.065 465.282 148.423 463.403C147.746 465.401 146.579 467.026 144.838 467.907L143.451 466.112C146.089 464.893 147.273 461.862 147.273 458.899V456.647H149.522ZM154.51 455.428H156.742V471.073H154.51V462.116H151.517V460.321H154.51V455.428Z" fill="#006BEE"/>
<path d="M136.064 464.504H138.989V455.445H141.221V467.264H138.989V466.028H136.064V464.504ZM133.071 457.596C132.023 457.596 131.295 458.002 131.295 458.764C131.295 459.526 132.023 459.915 133.071 459.915C134.102 459.915 134.83 459.526 134.83 458.764C134.83 458.002 134.102 457.596 133.071 457.596ZM133.071 461.541C130.788 461.541 129.182 460.423 129.182 458.764C129.182 457.105 130.788 455.97 133.071 455.97C135.337 455.97 136.943 457.105 136.943 458.764C136.943 460.423 135.337 461.541 133.071 461.541ZM132.242 468.991H141.56V470.769H130.01V466.13H132.175V464.047C130.805 464.115 129.503 464.132 128.336 464.132L128.049 462.354C130.89 462.337 134.677 462.303 137.958 461.88L138.11 463.471C136.893 463.691 135.641 463.827 134.39 463.911V466.858H132.242V468.991Z" fill="#006BEE"/>
<path d="M125.496 455.445V466.536H123.247V455.445H125.496ZM118.715 462.455V458.442H115.536V462.455H118.715ZM120.896 456.681V464.216H113.338V456.681H120.896ZM117.362 468.923H125.885V470.718H115.13V465.554H117.362V468.923Z" fill="#006BEE"/>
<path d="M131.472 421.877C129.72 421.877 128.239 421.271 127.028 420.056C125.818 418.84 125.209 417.357 125.209 415.606C125.209 413.855 125.814 412.368 127.028 411.156C128.243 409.944 129.724 409.334 131.472 409.334C133.221 409.334 134.705 409.94 135.916 411.156C137.127 412.372 137.736 413.855 137.736 415.606C137.736 416.313 137.624 416.981 137.397 417.607C137.171 418.234 136.866 418.789 136.481 419.27L141.875 424.671C142.051 424.847 142.139 425.074 142.139 425.345C142.139 425.616 142.051 425.843 141.875 426.019C141.699 426.195 141.473 426.283 141.202 426.283C140.932 426.283 140.705 426.195 140.529 426.019L135.135 420.618C134.655 421.004 134.1 421.309 133.474 421.535C132.849 421.762 132.183 421.874 131.476 421.874L131.472 421.877ZM131.472 419.947C132.676 419.947 133.701 419.524 134.543 418.681C135.385 417.837 135.808 416.811 135.808 415.606C135.808 414.4 135.385 413.374 134.543 412.531C133.701 411.688 132.676 411.264 131.472 411.264C130.268 411.264 129.244 411.688 128.402 412.531C127.559 413.374 127.137 414.4 127.137 415.606C127.137 416.811 127.559 417.837 128.402 418.681C129.244 419.524 130.268 419.947 131.472 419.947Z" fill="black"/>
<path d="M385.857 399.131H119.358C115.747 399.131 112.82 402.062 112.82 405.677V430.964C112.82 434.579 115.747 437.51 119.358 437.51H385.857C389.467 437.51 392.394 434.579 392.394 430.964V405.677C392.394 402.062 389.467 399.131 385.857 399.131Z" stroke="#006BEE" stroke-width="5" stroke-miterlimit="10"/>
<path d="M254.188 527.738L256.294 525.628C256.464 525.459 256.731 525.442 256.92 525.584L259.856 527.789C260.048 527.934 260.316 527.914 260.485 527.741C261.719 526.475 266.603 521.592 270.032 520.047C270.214 519.966 270.431 520.013 270.57 520.159L272.014 521.686C272.183 521.866 272.19 522.144 272.027 522.33C270.641 523.921 264.546 530.972 261.614 535.28C261.455 535.517 261.127 535.557 260.911 535.371C259.876 534.487 257.042 531.954 254.154 528.378C253.998 528.188 254.015 527.907 254.188 527.735V527.738Z" fill="#FF3433"/>
<path d="M112.289 512.617H406.672" stroke="#DDDDDD" stroke-miterlimit="10" stroke-linecap="round"/>
</g>
</g>
<defs>
<filter id="filter0_d_911_377" x="86.0859" y="315.822" width="374.713" height="257.572" filterUnits="userSpaceOnUse" color-interpolation-filters="sRGB">
<feFlood flood-opacity="0" result="BackgroundImageFix"/>
<feColorMatrix in="SourceAlpha" type="matrix" values="0 0 0 0 0 0 0 0 0 0 0 0 0 0 0 0 0 0 127 0" result="hardAlpha"/>
<feOffset dx="4" dy="6"/>
<feGaussianBlur stdDeviation="5"/>
<feComposite in2="hardAlpha" operator="out"/>
<feColorMatrix type="matrix" values="0 0 0 0 0.568627 0 0 0 0 0.643137 0 0 0 0 0.784314 0 0 0 1 0"/>
<feBlend mode="normal" in2="BackgroundImageFix" result="effect1_dropShadow_911_377"/>
<feBlend mode="normal" in="SourceGraphic" in2="effect1_dropShadow_911_377" result="shape"/>
</filter>
</defs>
</svg>
