<svg width="400" height="727" viewBox="0 0 400 727" fill="none" xmlns="http://www.w3.org/2000/svg">
<rect width="400" height="727" fill="white"/>
<rect width="400" height="58" fill="white"/>
<path d="M374.001 30.4008L369.101 35.3008C368.917 35.4841 368.684 35.5758 368.401 35.5758C368.117 35.5758 367.884 35.4841 367.701 35.3008C367.517 35.1174 367.426 34.8841 367.426 34.6008C367.426 34.3174 367.517 34.0841 367.701 33.9008L372.601 29.0008L367.701 24.1008C367.517 23.9174 367.426 23.6841 367.426 23.4008C367.426 23.1174 367.517 22.8841 367.701 22.7008C367.884 22.5174 368.117 22.4258 368.401 22.4258C368.684 22.4258 368.917 22.5174 369.101 22.7008L374.001 27.6008L378.901 22.7008C379.084 22.5174 379.317 22.4258 379.601 22.4258C379.884 22.4258 380.117 22.5174 380.301 22.7008C380.484 22.8841 380.576 23.1174 380.576 23.4008C380.576 23.6841 380.484 23.9174 380.301 24.1008L375.401 29.0008L380.301 33.9008C380.484 34.0841 380.576 34.3174 380.576 34.6008C380.576 34.8841 380.484 35.1174 380.301 35.3008C380.117 35.4841 379.884 35.5758 379.601 35.5758C379.317 35.5758 379.084 35.4841 378.901 35.3008L374.001 30.4008Z" fill="black"/>
<rect x="46.5" y="88.5" width="307" height="307" rx="153.5" stroke="#E5E7EB" stroke-width="13"/>
<g clip-path="url(#clip0_912_4534)">
<rect x="60" y="102" width="280" height="280" rx="140" fill="black"/>
<g opacity="0.6">
<path d="M339.5 102L60.5 102L60.5 450.747L339.5 450.747L339.5 102Z" fill="#6B7280"/>
<path d="M268.859 341.017L131.148 341.017C104.232 341.017 79.5939 350.723 60.5 366.8L60.5 450.754L339.5 450.754L339.5 366.8C320.413 350.723 295.774 341.017 268.852 341.017L268.859 341.017Z" fill="#DDDDDD"/>
<path d="M175.07 206.059L152.255 248.523L126.865 231.829C126.865 231.829 98.7964 178.858 144.826 162.591C144.826 162.591 156.41 128.449 193.764 125.989C231.139 123.549 281.859 146.554 274.871 205.76L175.077 206.045L175.077 206.065L175.07 206.059Z" fill="#353534"/>
<path d="M264.31 355.25L248.761 328.66L200.975 328.66L199.05 328.66L151.265 328.66L135.723 355.25L175.022 406.764L200.013 372.134L225.01 406.764L264.31 355.25Z" fill="#CCCBCC"/>
<path d="M241.237 333.33L200.833 333.33L199.192 333.33L158.795 333.33L200.012 367.396L241.237 333.33Z" fill="#D29D97"/>
<path d="M168.035 335.438L168.035 284.392L232 284.392L232 335.437" fill="#D29D97"/>
<path d="M237.436 213.207L262.386 213.207C276.152 213.207 287.336 224.371 287.336 238.157C287.336 251.924 276.172 263.107 262.386 263.107L237.436 263.107L237.436 213.214L237.436 213.207Z" fill="#FAB9AC"/>
<path d="M253.777 251.002L262.358 251.002C269.441 251.002 275.21 245.234 275.21 238.151C275.21 231.068 269.441 225.299 262.358 225.299L253.777 225.299" fill="#C48685"/>
<path d="M260.088 230.866L260.088 174.452C260.088 174.452 225.174 162.868 201.823 162.868C172.325 162.868 147.964 184.789 144.094 213.209L135.208 213.209C121.442 213.209 110.258 224.373 110.258 238.159C110.258 251.946 121.421 263.11 135.208 263.11L144.914 263.11C150.662 289.232 173.945 308.787 201.796 308.787C233.965 308.787 260.06 282.691 260.06 250.523L260.06 243.65" fill="#FAB9AC"/>
<path d="M143.79 225.28L135.209 225.28C128.126 225.28 122.357 231.048 122.357 238.131C122.357 245.214 128.126 250.982 135.209 250.982L143.79 250.982" fill="#C48685"/>
<path d="M178.633 239.887C178.633 242.347 174.505 244.34 169.395 244.34C164.284 244.34 160.156 242.347 160.156 239.887C160.156 237.426 164.284 235.433 169.395 235.433C174.505 235.433 178.633 237.426 178.633 239.887Z" fill="#F4867F"/>
<path d="M247.522 239.887C247.522 242.347 243.394 244.34 238.283 244.34C233.173 244.34 229.045 242.347 229.045 239.887C229.045 237.426 233.173 235.433 238.283 235.433C243.394 235.433 247.522 237.426 247.522 239.887Z" fill="#F4867F"/>
<path d="M185.874 225.281C185.874 221.331 183.786 218.13 181.21 218.13C178.635 218.13 176.547 221.331 176.547 225.281C176.547 229.23 178.635 232.432 181.21 232.432C183.786 232.432 185.874 229.23 185.874 225.281Z" fill="#353534"/>
<path d="M228.672 225.748C228.672 221.798 226.585 218.597 224.009 218.597C221.434 218.597 219.346 221.798 219.346 225.748C219.346 229.697 221.434 232.898 224.009 232.898C226.585 232.898 228.672 229.697 228.672 225.748Z" fill="#353534"/>
<path d="M217.099 260.887C216.841 260.887 216.604 260.934 216.374 261.049C204.627 266.417 186.808 261.029 186.618 260.981C185.703 260.697 184.693 261.219 184.415 262.134C184.137 263.049 184.652 264.059 185.588 264.337C186.36 264.574 204.885 270.2 217.851 264.269C218.739 263.869 219.119 262.818 218.719 261.951C218.414 261.293 217.784 260.92 217.126 260.92L217.106 260.9L217.099 260.887Z" fill="#C48685"/>
<path d="M188.951 211.283C188.666 211.283 188.388 211.216 188.131 211.073C188.036 211.026 182.105 207.976 173.924 210.043C172.988 210.28 172.026 209.718 171.789 208.755C171.551 207.82 172.114 206.857 173.076 206.62C182.667 204.227 189.513 207.813 189.798 207.983C190.645 208.45 190.971 209.508 190.503 210.375C190.198 210.958 189.588 211.311 188.957 211.311L188.957 211.29L188.951 211.283Z" fill="#353534"/>
<path d="M216.295 211.283C215.665 211.283 215.055 210.958 214.75 210.348C214.302 209.501 214.607 208.423 215.475 207.982C215.753 207.82 222.606 204.234 232.197 206.62C233.132 206.857 233.722 207.813 233.484 208.755C233.247 209.69 232.291 210.28 231.349 210.043C223.141 208.003 217.21 211.053 217.142 211.073C216.885 211.215 216.6 211.283 216.322 211.283L216.302 211.283L216.295 211.283Z" fill="#353534"/>
<path d="M159.027 162.434C159.027 162.434 180.384 191.207 219.589 183.046C258.793 174.886 253.54 134.183 253.54 134.183L235.883 127.547C235.883 127.547 159.609 98.4084 133.066 170.304L159.02 162.441L159.027 162.434Z" fill="#353534"/>
<path d="M118.391 200.791L132.753 221.071L143.442 242.477L148.397 191.526C148.397 191.526 166.196 177.081 166.054 156.517" fill="#353534"/>
<path d="M274.342 215.69L261.796 237.096L255.98 186.145C255.98 186.145 235.09 171.701 235.253 151.136C235.253 151.136 282.008 140.115 274.363 215.711L274.342 215.69Z" fill="#353534"/>
<path d="M202.834 232.433L202.834 247.412" stroke="#C48685" stroke-width="1.5" stroke-miterlimit="10" stroke-linecap="round"/>
</g>
<g opacity="0.5">
<path d="M199.997 187.053C214.673 187.053 228.471 192.768 238.848 203.145C249.226 213.523 254.941 227.321 254.941 241.997C254.941 256.673 249.226 270.471 238.848 280.848C228.471 291.226 214.673 296.941 199.997 296.941C185.321 296.941 171.523 291.226 161.145 280.848C150.768 270.471 145.053 256.673 145.053 241.997C145.053 227.321 150.768 213.523 161.145 203.145C171.523 192.768 185.321 187.053 199.997 187.053ZM199.997 178.826C165.109 178.826 136.826 207.109 136.826 241.997C136.826 276.885 165.109 305.168 199.997 305.168C234.885 305.168 263.168 276.885 263.168 241.997C263.168 207.109 234.885 178.826 199.997 178.826Z" fill="white"/>
</g>
<path d="M210.862 235.482C213.621 235.482 215.857 233.246 215.857 230.487C215.857 227.728 213.621 225.492 210.862 225.492C208.103 225.492 205.867 227.728 205.867 230.487C205.867 233.246 208.103 235.482 210.862 235.482Z" fill="white"/>
<path d="M189.286 235.482C192.045 235.482 194.281 233.246 194.281 230.487C194.281 227.728 192.045 225.492 189.286 225.492C186.527 225.492 184.291 227.728 184.291 230.487C184.291 233.246 186.527 235.482 189.286 235.482Z" fill="white"/>
<path d="M184.85 243.869C182.658 243.869 181.321 246.267 182.456 248.141C186.046 254.073 192.56 258.037 199.999 258.037C207.439 258.037 213.953 254.073 217.543 248.141C218.677 246.267 217.34 243.869 215.149 243.869H184.847H184.85Z" fill="white"/>
</g>
<path d="M119.915 465.688V468.094H102.852V459.48H105.915V465.688H119.915ZM122.457 470.555V472.961H112.915V477.582H109.907V472.961H99.8989V470.555H122.457ZM120.106 480.48V482.941H102.633V475.586H105.641V480.48H120.106ZM143.636 460.902V463.145C143.608 466.152 143.663 469.598 142.542 474.82L139.562 474.52C139.985 472.537 140.245 470.773 140.409 469.188L125.835 470.008L125.397 467.41L140.573 466.863C140.628 465.578 140.642 464.43 140.655 463.363H126.163V460.902H143.636ZM146.069 477.883V480.398H123.538V477.883H131.851V471.785H134.858V477.883H146.069ZM167.767 458.715V471.977H164.705V458.715H167.767ZM154.423 473.125V475.668H164.732V473.125H167.767V483.133H151.416V473.125H154.423ZM154.423 480.672H164.732V478.047H154.423V480.672ZM154.287 459.809C158.087 459.781 160.931 462.16 160.931 465.605C160.931 468.969 158.087 471.348 154.287 471.348C150.459 471.348 147.615 468.969 147.615 465.605C147.615 462.16 150.459 459.781 154.287 459.809ZM154.287 462.352C152.127 462.352 150.568 463.609 150.595 465.605C150.568 467.574 152.127 468.832 154.287 468.859C156.42 468.832 157.951 467.574 157.951 465.605C157.951 463.609 156.42 462.352 154.287 462.352ZM191.379 458.715V483.461H188.317V458.715H191.379ZM178.063 460.52C181.781 460.52 184.488 463.91 184.516 469.242C184.488 474.629 181.781 477.992 178.063 477.992C174.317 477.992 171.61 474.629 171.61 469.242C171.61 463.91 174.317 460.52 178.063 460.52ZM178.063 463.254C175.957 463.254 174.535 465.469 174.535 469.242C174.535 473.043 175.957 475.258 178.063 475.258C180.141 475.258 181.563 473.043 181.563 469.242C181.563 465.469 180.141 463.254 178.063 463.254ZM219.9 458.715V468.094H223.7V470.582H219.9V483.461H216.865V458.715H219.9ZM213.118 461.066V463.527H204.587V474.875C208.429 474.875 211.464 474.684 214.868 474.082L215.224 476.652C211.396 477.309 208.06 477.418 203.603 477.418H201.552V461.066H213.118ZM252.85 477.965V480.453H230.264V477.965H239.998V473.152H232.752V460.355H235.788V464.402H247.245V460.355H250.28V473.152H243.006V477.965H252.85ZM235.788 470.691H247.245V466.836H235.788V470.691ZM274.466 458.715V483.461H271.403V458.715H274.466ZM261.149 460.52C264.868 460.52 267.575 463.91 267.603 469.242C267.575 474.629 264.868 477.992 261.149 477.992C257.403 477.992 254.696 474.629 254.696 469.242C254.696 463.91 257.403 460.52 261.149 460.52ZM261.149 463.254C259.044 463.254 257.622 465.469 257.622 469.242C257.622 473.043 259.044 475.258 261.149 475.258C263.228 475.258 264.649 473.043 264.649 469.242C264.649 465.469 263.228 463.254 261.149 463.254ZM298.871 458.715V483.434H295.972V458.715H298.871ZM293.621 459.316V482.258H290.75V470.883H286.347C284.898 473.727 282.574 476.188 279.074 478.211L277.351 476.051C282.478 473.029 284.816 469.16 285.281 464.184H278.609V461.723H288.289C288.289 464.115 288.001 466.357 287.332 468.449H290.75V459.316H293.621ZM108.286 497.715V512.398H105.251V506.355H101.04V503.867H105.251V497.715H108.286ZM99.9191 513.027C105.169 513.027 108.368 514.75 108.368 517.73C108.368 520.711 105.169 522.434 99.9191 522.434C94.6965 522.434 91.4973 520.711 91.5246 517.73C91.4973 514.75 94.6965 513.027 99.9191 513.027ZM99.9191 515.352C96.4738 515.352 94.5324 516.172 94.5324 517.73C94.5324 519.262 96.4738 520.082 99.9191 520.082C103.364 520.082 105.333 519.262 105.333 517.73C105.333 516.172 103.364 515.352 99.9191 515.352ZM96.6652 501.953C96.6652 504.961 98.6613 507.996 102.489 509.281L100.958 511.688C98.2102 510.758 96.2551 508.871 95.1887 506.547C94.0949 509.186 92.0305 511.291 89.091 512.344L87.5051 509.938C91.4699 508.57 93.5754 505.234 93.5754 501.98V501.789H88.4348V499.328H101.779V501.789H96.6652V501.953ZM123.914 499.793V501.762H128.89V497.742H131.926V515.734H128.89V509.5H123.914V511.633H112.293V499.793H123.914ZM115.328 502.199V509.254H120.906V502.199H115.328ZM132.472 519.48V521.941H115.629V514.066H118.719V519.48H132.472ZM123.914 507.066H128.89V504.25H123.914V507.066ZM146.104 498.098C151.737 498.098 154.991 499.602 155.018 502.336C154.991 505.098 151.737 506.574 146.104 506.602C140.471 506.574 137.19 505.098 137.19 502.336C137.19 499.602 140.471 498.098 146.104 498.098ZM146.104 500.34C142.33 500.34 140.362 501.051 140.389 502.336C140.362 503.703 142.33 504.332 146.104 504.332C149.932 504.332 151.873 503.703 151.873 502.336C151.873 501.051 149.932 500.34 146.104 500.34ZM157.397 507.914V510.348H134.866V507.914H157.397ZM154.58 512.016V518.059H140.526V519.891H155.264V522.215H137.545V515.898H151.6V514.258H137.518V512.016H154.58ZM183.949 497.715V507.121H187.749V509.691H183.949V522.434H180.914V497.715H183.949ZM168.472 499.738V505.918H174.296V499.738H177.331V516.637H165.464V499.738H168.472ZM168.472 514.148H174.296V508.297H168.472V514.148ZM207.588 497.715V507.203H211.389V509.746H207.588V522.461H204.58V497.715H207.588ZM200.588 499.875V509.199H192.275V514.121C196.186 514.094 199.234 513.93 202.693 513.328L202.967 515.789C199.166 516.473 195.775 516.637 191.291 516.637H189.268V506.766H197.553V502.336H189.213V499.875H200.588ZM216.133 499.711V503.02H222.559V499.711H225.594V511.004H220.891V514.969C222.915 514.859 224.952 514.709 226.852 514.449L227.071 516.691C221.903 517.594 216.243 517.621 212.004 517.648L211.567 515.133C213.44 515.119 215.6 515.119 217.856 515.051V511.004H213.126V499.711H216.133ZM216.133 508.57H222.559V505.344H216.133V508.57ZM231.309 497.715V507.75H234.891V510.293H231.309V522.434H228.274V497.715H231.309ZM258.038 511.496V513.957H248.222V522.406H245.214V513.957H235.507V511.496H258.038ZM255.96 499.109V501.516H248.55C248.728 504.223 251.982 506.82 256.862 507.449L255.769 509.828C251.558 509.24 248.276 507.312 246.773 504.633C245.269 507.312 241.987 509.24 237.831 509.828L236.683 507.449C241.536 506.82 244.79 504.223 245.023 501.516H237.585V499.109H255.96ZM266.857 504.195C266.857 508.188 268.252 512.344 271.588 514.449L269.92 516.773C267.691 515.434 266.242 513.123 265.435 510.402C264.533 513.396 262.947 515.926 260.623 517.348L258.736 515.078C262.318 512.891 263.931 508.543 263.931 504.332V499.902H266.857V504.195ZM280.474 497.715V522.434H277.549V497.715H280.474ZM275.334 498.152V521.23H272.463V508.734H268.935V506.219H272.463V498.152H275.334ZM305.371 516.938V519.426H282.785V516.938H288.008V510.676C286.039 509.555 284.85 507.791 284.864 505.59C284.836 501.652 288.719 499.055 294.024 499.055C299.356 499.055 303.239 501.652 303.239 505.59C303.239 507.75 302.09 509.486 300.176 510.621V516.938H305.371ZM294.024 501.461C290.332 501.461 287.817 503.02 287.844 505.59C287.817 508.133 290.332 509.719 294.024 509.719C297.715 509.719 300.258 508.133 300.258 505.59C300.258 503.02 297.715 501.461 294.024 501.461ZM291.016 516.938H297.086V511.77C296.143 511.988 295.117 512.098 294.024 512.098C292.957 512.098 291.946 511.988 291.016 511.797V516.938ZM309.432 520.219C308.257 520.219 307.3 519.262 307.3 518.086C307.3 516.938 308.257 515.98 309.432 515.98C310.554 515.98 311.538 516.938 311.538 518.086C311.538 519.262 310.554 520.219 309.432 520.219Z" fill="#111827"/>
<defs>
<clipPath id="clip0_912_4534">
<rect x="60" y="102" width="280" height="280" rx="140" fill="white"/>
</clipPath>
</defs>
</svg>
