<svg width="400" height="379" viewBox="0 0 400 379" fill="none" xmlns="http://www.w3.org/2000/svg">
<rect x="15" width="370" height="379" rx="15" fill="white"/>
<path d="M353.001 33.4008L348.101 38.3008C347.917 38.4841 347.684 38.5758 347.401 38.5758C347.117 38.5758 346.884 38.4841 346.701 38.3008C346.517 38.1174 346.426 37.8841 346.426 37.6008C346.426 37.3174 346.517 37.0841 346.701 36.9008L351.601 32.0008L346.701 27.1008C346.517 26.9174 346.426 26.6841 346.426 26.4008C346.426 26.1174 346.517 25.8841 346.701 25.7008C346.884 25.5174 347.117 25.4258 347.401 25.4258C347.684 25.4258 347.917 25.5174 348.101 25.7008L353.001 30.6008L357.901 25.7008C358.084 25.5174 358.317 25.4258 358.601 25.4258C358.884 25.4258 359.117 25.5174 359.301 25.7008C359.484 25.8841 359.576 26.1174 359.576 26.4008C359.576 26.6841 359.484 26.9174 359.301 27.1008L354.401 32.0008L359.301 36.9008C359.484 37.0841 359.576 37.3174 359.576 37.6008C359.576 37.8841 359.484 38.1174 359.301 38.3008C359.117 38.4841 358.884 38.5758 358.601 38.5758C358.317 38.5758 358.084 38.4841 357.901 38.3008L353.001 33.4008Z" fill="black"/>
<rect x="35" y="56" width="330" height="51" rx="8" fill="#E5E7EB"/>
<circle cx="66" cy="81.5" r="10" stroke="#9CA3AF" stroke-width="2"/>
<path d="M101.138 73.7617V85.293H99.4677V79.3691H96.4619V78.0156H99.4677V73.7617H101.138ZM88.0244 82.0059C90.4414 81.1885 91.9531 79.1143 91.9443 76.9434V76.3281H88.5341V74.957H97.0244V76.3281H93.6494V76.9434C93.6406 78.9033 95.0644 80.8809 97.4463 81.6719L96.5849 83.0078C94.8183 82.3926 93.5088 81.127 92.8232 79.5625C92.1377 81.3027 90.7578 82.6914 88.8857 83.3594L88.0244 82.0059ZM90.9072 89.1602V84.2559H92.5771V87.8066H101.56V89.1602H90.9072ZM107.914 78.5781C107.914 81.0566 109.066 83.5791 111.237 84.748L110.305 85.9785C108.776 85.1699 107.721 83.667 107.15 81.8828C106.587 83.79 105.533 85.4336 104.012 86.3477L103.028 85.082C105.207 83.8164 106.332 81.1182 106.35 78.5781V77.9453H103.502V76.5742H106.35V74.3066H107.914V76.5742H110.709V77.9453H107.914V78.5781ZM109.672 81.2676V79.8789H111.94V74.0781H113.522V88.7031H111.94V81.2676H109.672ZM115.121 89.4941V73.7441H116.721V89.4941H115.121ZM132.779 81.4082V82.7441H118.4V81.4082H124.781V79.7383H120.193V74.4648H131.004V75.7832H121.845V78.4023H131.109V79.7383H126.398V81.4082H132.779ZM120.105 86.6289C120.105 84.8008 122.153 83.7725 125.572 83.7637C128.965 83.7725 130.995 84.8008 131.004 86.6289C130.995 88.457 128.965 89.4854 125.572 89.4941C122.153 89.4854 120.105 88.457 120.105 86.6289ZM121.793 86.6289C121.784 87.6396 123.164 88.1934 125.572 88.1758C127.945 88.1934 129.334 87.6396 129.334 86.6289C129.334 85.6357 127.945 85.0645 125.572 85.0645C123.164 85.0645 121.784 85.6357 121.793 86.6289ZM138.73 74.8691C141.217 74.8604 143.01 76.3984 143.019 78.6133C143.01 80.8281 141.217 82.3662 138.73 82.375C136.251 82.3662 134.432 80.8281 134.44 78.6133C134.432 76.3984 136.251 74.8604 138.73 74.8691ZM133.685 84.748C136.55 84.748 140.522 84.7217 143.968 84.2207L144.091 85.4336C140.531 86.1191 136.708 86.1367 133.896 86.1367L133.685 84.748ZM136.093 78.6133C136.075 80.0107 137.2 80.916 138.73 80.916C140.259 80.916 141.384 80.0107 141.384 78.6133C141.384 77.2334 140.259 76.3105 138.73 76.3105C137.2 76.3105 136.075 77.2334 136.093 78.6133ZM144.952 89.5293V73.7441H146.622V89.5293H144.952Z" fill="#111827"/>
<rect x="35.5" y="119.5" width="329" height="177" rx="7.5" fill="white"/>
<rect x="35.5" y="119.5" width="329" height="177" rx="7.5" stroke="#D1D5DB"/>
<mask id="path-7-inside-1_931_3283" fill="white">
<path d="M51 127H349V171H51V127Z"/>
</mask>
<path d="M349 171V170H51V171V172H349V171Z" fill="#D1D5DB" mask="url(#path-7-inside-1_931_3283)"/>
<path d="M52.2305 150.457C52.2305 147.703 53.0508 145.403 54.4277 143.44H56.1855C55.1748 144.898 54.1641 147.835 54.1641 150.457C54.1641 153.079 55.1748 156.023 56.1855 157.488H54.4277C53.0508 155.511 52.2305 153.218 52.2305 150.457ZM67.7947 142.562V149.388H66.1687V142.562H67.7947ZM56.9695 147.762C57.4456 147.762 57.951 147.754 58.4783 147.747V144.671H57.3211V143.411H64.5135V144.671H63.327V147.549C63.9275 147.505 64.5135 147.447 65.0701 147.381L65.1434 148.553C62.5066 148.97 59.4598 149.051 57.1453 149.051L56.9695 147.762ZM58.9178 151.219V149.944H67.7947V153.357H60.5584V154.397H68.2195V155.687H58.9471V152.171H66.1834V151.219H58.9178ZM60.0457 147.71C60.617 147.696 61.1956 147.674 61.7742 147.645V144.671H60.0457V147.71ZM76.3131 143.66C76.3058 145.323 78.1734 147.015 81.0006 147.381L80.3561 148.699C78.1075 148.362 76.3204 147.256 75.4562 145.762C74.5919 147.256 72.8121 148.362 70.5855 148.699L69.941 147.381C72.7389 147.015 74.5992 145.337 74.5992 143.66V142.986H76.3131V143.66ZM69.4137 151.189V149.842H81.484V151.189H76.2252V155.804H74.6139V151.189H69.4137ZM86.018 150.457C86.018 153.218 85.1977 155.511 83.8207 157.488H82.0629C83.0736 156.023 84.0844 153.079 84.0844 150.457C84.0844 147.835 83.0736 144.898 82.0629 143.44H83.8207C85.1977 145.403 86.018 147.703 86.018 150.457ZM102.015 142.562V155.804H100.447V149.007H99.0264V155.188H97.5029V142.913H99.0264V147.688H100.447V142.562H102.015ZM90.5449 151.907C93.3647 150.281 94.5586 148.187 94.793 145.535H91.1602V144.231H96.375C96.375 147.813 95.2471 150.889 91.4824 153.035L90.5449 151.907ZM114.342 142.576V152.142H112.701V142.576H114.342ZM103.546 146.751C103.546 144.825 105.106 143.448 107.12 143.44C109.134 143.448 110.687 144.825 110.679 146.751C110.687 148.707 109.134 150.076 107.12 150.076C105.106 150.076 103.546 148.707 103.546 146.751ZM105.142 146.751C105.135 147.923 105.985 148.655 107.12 148.655C108.226 148.655 109.083 147.923 109.083 146.751C109.083 145.608 108.226 144.861 107.12 144.861C105.985 144.861 105.135 145.608 105.142 146.751ZM105.582 155.54V151.175H107.222V154.222H114.708V155.54H105.582ZM127.064 142.562V150.428H125.438V147.19H123.182V145.857H125.438V142.562H127.064ZM115.931 149.109C118.063 148.377 119.183 146.597 119.183 144.847V144.744H116.429V143.426H123.578V144.744H120.838V144.832C120.838 146.443 121.908 148.069 123.959 148.758L123.138 150.047C121.666 149.549 120.626 148.538 120.04 147.293C119.462 148.699 118.356 149.842 116.781 150.398L115.931 149.109ZM118.085 153.284C118.07 151.695 119.791 150.765 122.582 150.765C125.387 150.765 127.101 151.695 127.108 153.284C127.101 154.874 125.387 155.796 122.582 155.804C119.791 155.796 118.07 154.874 118.085 153.284ZM119.696 153.284C119.689 154.104 120.743 154.551 122.582 154.544C124.435 154.551 125.482 154.104 125.482 153.284C125.482 152.457 124.435 152.01 122.582 152.01C120.743 152.01 119.689 152.457 119.696 153.284ZM140.739 152.874V154.207H128.639V152.874H133.854V150.296H129.972V143.44H131.598V145.608H137.736V143.44H139.362V150.296H135.465V152.874H140.739ZM131.598 148.978H137.736V146.912H131.598V148.978ZM151.462 143.66C151.455 145.323 153.322 147.015 156.149 147.381L155.505 148.699C153.256 148.362 151.469 147.256 150.605 145.762C149.741 147.256 147.961 148.362 145.734 148.699L145.09 147.381C147.888 147.015 149.748 145.337 149.748 143.66V142.986H151.462V143.66ZM144.562 151.189V149.842H156.633V151.189H151.374V155.804H149.763V151.189H144.562ZM165.034 143.353V144.656H162.251C162.273 146.209 163.415 147.703 165.503 148.289L164.682 149.563C163.152 149.109 162.046 148.15 161.445 146.927C160.845 148.245 159.717 149.285 158.135 149.783L157.314 148.509C159.431 147.886 160.574 146.304 160.61 144.656H157.754V143.353H165.034ZM159.497 155.643V150.325H161.108V151.688H166.631V150.325H168.257V155.643H159.497ZM161.108 154.324H166.631V152.947H161.108V154.324ZM166.616 149.739V142.562H168.257V149.739H166.616ZM171.502 150.999C170.872 150.999 170.352 150.486 170.359 149.856C170.352 149.241 170.872 148.736 171.502 148.729C172.109 148.736 172.629 149.241 172.629 149.856C172.629 150.486 172.109 150.999 171.502 150.999ZM184.693 142.562V155.818H183.052V142.562H184.693ZM174.102 148.201C174.095 145.345 175.552 143.528 177.559 143.528C179.544 143.528 181.009 145.345 181.016 148.201C181.009 151.08 179.544 152.889 177.559 152.889C175.552 152.889 174.095 151.08 174.102 148.201ZM175.669 148.201C175.669 150.237 176.438 151.417 177.559 151.424C178.672 151.417 179.434 150.237 179.434 148.201C179.434 146.18 178.672 144.993 177.559 144.993C176.438 144.993 175.669 146.18 175.669 148.201ZM198.411 148.934V150.237H186.341V148.934H189.154V147.256C188.15 146.832 187.586 146.165 187.586 145.301C187.586 143.711 189.439 142.781 192.362 142.781C195.277 142.781 197.13 143.711 197.137 145.301C197.13 146.172 196.558 146.839 195.555 147.256V148.934H198.411ZM187.747 153.401C187.747 151.878 189.468 151.028 192.362 151.043C195.211 151.028 196.939 151.878 196.946 153.401C196.939 154.939 195.211 155.774 192.362 155.774C189.468 155.774 187.747 154.939 187.747 153.401ZM189.285 145.301C189.271 146.106 190.406 146.539 192.362 146.531C194.31 146.539 195.452 146.106 195.452 145.301C195.452 144.488 194.31 144.034 192.362 144.041C190.406 144.034 189.271 144.488 189.285 145.301ZM189.403 153.401C189.395 154.148 190.435 154.551 192.362 154.544C194.258 154.551 195.306 154.148 195.321 153.401C195.306 152.662 194.258 152.281 192.362 152.273C190.435 152.281 189.395 152.662 189.403 153.401ZM190.794 148.934H193.929V147.674C193.453 147.74 192.925 147.776 192.362 147.776C191.798 147.776 191.27 147.74 190.794 147.674V148.934ZM214.349 148.904V150.208H202.264V148.904H207.509V147.645H203.744V143.162H212.885V144.437H205.37V146.355H212.958V147.645H209.105V148.904H214.349ZM203.671 153.387C203.671 151.834 205.407 150.962 208.285 150.97C211.141 150.962 212.863 151.834 212.87 153.387C212.863 154.925 211.141 155.796 208.285 155.804C205.407 155.796 203.671 154.925 203.671 153.387ZM205.326 153.387C205.319 154.156 206.359 154.551 208.285 154.544C210.182 154.551 211.229 154.156 211.244 153.387C211.229 152.625 210.182 152.215 208.285 152.215C206.359 152.215 205.319 152.625 205.326 153.387ZM219.22 143.484C221.322 143.477 222.853 144.803 222.868 146.678C222.853 148.56 221.322 149.878 219.22 149.886C217.14 149.878 215.58 148.56 215.587 146.678C215.58 144.803 217.14 143.477 219.22 143.484ZM214.987 151.717C217.375 151.717 220.678 151.688 223.542 151.277L223.673 152.464C220.707 153.028 217.528 153.05 215.192 153.05L214.987 151.717ZM217.199 146.678C217.191 147.784 218.063 148.465 219.22 148.465C220.392 148.465 221.264 147.784 221.271 146.678C221.264 145.579 220.4 144.891 219.22 144.891C218.063 144.891 217.191 145.579 217.199 146.678ZM224.333 155.818V142.562H225.959V155.818H224.333Z" fill="#111827"/>
<path d="M246.601 149.001L242.701 145.101C242.517 144.917 242.426 144.684 242.426 144.401C242.426 144.117 242.517 143.884 242.701 143.701C242.884 143.517 243.117 143.426 243.401 143.426C243.684 143.426 243.917 143.517 244.101 143.701L248.701 148.301C248.801 148.401 248.872 148.509 248.913 148.626C248.955 148.742 248.976 148.867 248.976 149.001C248.976 149.134 248.955 149.259 248.913 149.376C248.872 149.492 248.801 149.601 248.701 149.701L244.101 154.301C243.917 154.484 243.684 154.576 243.401 154.576C243.117 154.576 242.884 154.484 242.701 154.301C242.517 154.117 242.426 153.884 242.426 153.601C242.426 153.317 242.517 153.084 242.701 152.901L246.601 149.001Z" fill="#9CA3AF"/>
<circle cx="338" cy="149" r="10" stroke="#9CA3AF" stroke-width="2"/>
<mask id="path-12-inside-2_931_3283" fill="white">
<path d="M51 177H349V221H51V177Z"/>
</mask>
<path d="M349 221V220H51V221V222H349V221Z" fill="#D1D5DB" mask="url(#path-12-inside-2_931_3283)"/>
<path d="M52.2305 200.457C52.2305 197.703 53.0508 195.403 54.4277 193.44H56.1855C55.1748 194.898 54.1641 197.835 54.1641 200.457C54.1641 203.079 55.1748 206.023 56.1855 207.488H54.4277C53.0508 205.511 52.2305 203.218 52.2305 200.457ZM67.7947 192.562V199.388H66.1687V192.562H67.7947ZM56.9695 197.762C57.4456 197.762 57.951 197.754 58.4783 197.747V194.671H57.3211V193.411H64.5135V194.671H63.327V197.549C63.9275 197.505 64.5135 197.447 65.0701 197.381L65.1434 198.553C62.5066 198.97 59.4598 199.051 57.1453 199.051L56.9695 197.762ZM58.9178 201.219V199.944H67.7947V203.357H60.5584V204.397H68.2195V205.687H58.9471V202.171H66.1834V201.219H58.9178ZM60.0457 197.71C60.617 197.696 61.1956 197.674 61.7742 197.645V194.671H60.0457V197.71ZM76.3131 193.66C76.3058 195.323 78.1734 197.015 81.0006 197.381L80.3561 198.699C78.1075 198.362 76.3204 197.256 75.4562 195.762C74.5919 197.256 72.8121 198.362 70.5855 198.699L69.941 197.381C72.7389 197.015 74.5992 195.337 74.5992 193.66V192.986H76.3131V193.66ZM69.4137 201.189V199.842H81.484V201.189H76.2252V205.804H74.6139V201.189H69.4137ZM86.018 200.457C86.018 203.218 85.1977 205.511 83.8207 207.488H82.0629C83.0736 206.023 84.0844 203.079 84.0844 200.457C84.0844 197.835 83.0736 194.898 82.0629 193.44H83.8207C85.1977 195.403 86.018 197.703 86.018 200.457ZM101.458 193.777V195.052C101.443 196.7 101.443 198.538 100.931 201.307L99.29 201.131C99.8101 198.553 99.8101 196.67 99.8174 195.081H91.9072V193.777H101.458ZM90.6475 204.09V202.757H95.1006V198.157H96.7119V202.757H102.718V204.09H90.6475ZM115.396 199.988V201.307H112.452V205.804H110.797V201.307H107.867V205.804H106.197V201.307H103.297V199.988H115.396ZM104.571 195.989C104.564 194.188 106.497 193.038 109.317 193.03C112.137 193.038 114.085 194.188 114.093 195.989C114.085 197.769 112.137 198.89 109.317 198.89C106.497 198.89 104.564 197.769 104.571 195.989ZM106.241 195.989C106.234 197 107.45 197.593 109.317 197.601C111.192 197.593 112.408 197 112.408 195.989C112.408 194.949 111.192 194.349 109.317 194.349C107.45 194.349 106.234 194.949 106.241 195.989ZM120.912 194.451C120.904 196.194 122.003 197.835 124.105 198.494L123.299 199.783C121.776 199.278 120.685 198.267 120.084 196.971C119.491 198.362 118.378 199.468 116.81 200.003L115.99 198.729C118.129 198.003 119.234 196.246 119.227 194.451V193.191H120.912V194.451ZM117.967 202.391V201.087H127.005V205.804H125.365V202.391H117.967ZM125.365 200.486V192.562H127.005V200.486H125.365ZM139.728 192.562V199.402H138.102V197.967H135.436V198.978H129.24V193.147H130.866V194.817H133.825V193.147H135.436V194.319H138.102V192.562H139.728ZM130.866 197.688H133.825V196.062H130.866V197.688ZM130.997 201.219V199.944H139.728V203.343H132.638V204.354H140.153V205.643H131.012V202.142H138.102V201.219H130.997ZM135.436 196.722H138.102V195.55H135.436V196.722ZM152.392 192.562V200.428H150.766V197.19H148.51V195.857H150.766V192.562H152.392ZM141.259 199.109C143.39 198.377 144.511 196.597 144.511 194.847V194.744H141.757V193.426H148.905V194.744H146.166V194.832C146.166 196.443 147.236 198.069 149.286 198.758L148.466 200.047C146.994 199.549 145.954 198.538 145.368 197.293C144.789 198.699 143.683 199.842 142.109 200.398L141.259 199.109ZM143.412 203.284C143.398 201.695 145.119 200.765 147.909 200.765C150.715 200.765 152.428 201.695 152.436 203.284C152.428 204.874 150.715 205.796 147.909 205.804C145.119 205.796 143.398 204.874 143.412 203.284ZM145.024 203.284C145.016 204.104 146.071 204.551 147.909 204.544C149.762 204.551 150.81 204.104 150.81 203.284C150.81 202.457 149.762 202.01 147.909 202.01C146.071 202.01 145.016 202.457 145.024 203.284ZM166.066 202.874V204.207H153.967V202.874H159.182V200.296H155.3V193.44H156.926V195.608H163.063V193.44H164.689V200.296H160.793V202.874H166.066ZM156.926 198.978H163.063V196.912H156.926V198.978ZM180.994 192.562V205.818H179.368V199.051H176.804V197.732H179.368V192.562H180.994ZM169.861 202.039C171.926 201.102 173.098 198.846 173.098 196.766V196.077H170.256V194.773H173.113V192.84H174.739V194.773H177.507V196.077H174.724V196.766C174.717 198.765 175.918 200.904 178.005 201.834L177.127 203.079C175.618 202.435 174.512 201.109 173.926 199.527C173.347 201.204 172.256 202.618 170.74 203.299L169.861 202.039ZM193.584 192.562V205.818H191.973V192.562H193.584ZM183.272 195.037V193.719H189.512V198.685H184.956V201.351C187.044 201.336 188.838 201.226 190.904 200.882L191.05 202.215C188.802 202.603 186.824 202.691 184.444 202.684H183.287V197.396H187.857V195.037H183.272ZM210.562 198.904V200.208H198.478V198.904H203.722V197.645H199.957V193.162H209.098V194.437H201.583V196.355H209.171V197.645H205.318V198.904H210.562ZM199.884 203.387C199.884 201.834 201.62 200.962 204.498 200.97C207.354 200.962 209.076 201.834 209.083 203.387C209.076 204.925 207.354 205.796 204.498 205.804C201.62 205.796 199.884 204.925 199.884 203.387ZM201.539 203.387C201.532 204.156 202.572 204.551 204.498 204.544C206.395 204.551 207.442 204.156 207.457 203.387C207.442 202.625 206.395 202.215 204.498 202.215C202.572 202.215 201.532 202.625 201.539 203.387ZM215.433 193.484C217.535 193.477 219.066 194.803 219.081 196.678C219.066 198.56 217.535 199.878 215.433 199.886C213.353 199.878 211.793 198.56 211.801 196.678C211.793 194.803 213.353 193.477 215.433 193.484ZM211.2 201.717C213.588 201.717 216.891 201.688 219.755 201.277L219.887 202.464C216.92 203.028 213.742 203.05 211.405 203.05L211.2 201.717ZM213.412 196.678C213.405 197.784 214.276 198.465 215.433 198.465C216.605 198.465 217.477 197.784 217.484 196.678C217.477 195.579 216.613 194.891 215.433 194.891C214.276 194.891 213.405 195.579 213.412 196.678ZM220.546 205.818V192.562H222.172V205.818H220.546Z" fill="#111827"/>
<path d="M242.601 199.001L238.701 195.101C238.517 194.917 238.426 194.684 238.426 194.401C238.426 194.117 238.517 193.884 238.701 193.701C238.884 193.517 239.117 193.426 239.401 193.426C239.684 193.426 239.917 193.517 240.101 193.701L244.701 198.301C244.801 198.401 244.872 198.509 244.913 198.626C244.955 198.742 244.976 198.867 244.976 199.001C244.976 199.134 244.955 199.259 244.913 199.376C244.872 199.492 244.801 199.601 244.701 199.701L240.101 204.301C239.917 204.484 239.684 204.576 239.401 204.576C239.117 204.576 238.884 204.484 238.701 204.301C238.517 204.117 238.426 203.884 238.426 203.601C238.426 203.317 238.517 203.084 238.701 202.901L242.601 199.001Z" fill="#9CA3AF"/>
<circle cx="338" cy="199" r="10" stroke="#9CA3AF" stroke-width="2"/>
<path d="M52.2305 248.957C52.2305 246.203 53.0508 243.903 54.4277 241.94H56.1855C55.1748 243.398 54.1641 246.335 54.1641 248.957C54.1641 251.579 55.1748 254.523 56.1855 255.988H54.4277C53.0508 254.011 52.2305 251.718 52.2305 248.957ZM67.7947 241.062V247.888H66.1687V241.062H67.7947ZM56.9695 246.262C57.4456 246.262 57.951 246.254 58.4783 246.247V243.171H57.3211V241.911H64.5135V243.171H63.327V246.049C63.9275 246.005 64.5135 245.947 65.0701 245.881L65.1434 247.053C62.5066 247.47 59.4598 247.551 57.1453 247.551L56.9695 246.262ZM58.9178 249.719V248.444H67.7947V251.857H60.5584V252.897H68.2195V254.187H58.9471V250.671H66.1834V249.719H58.9178ZM60.0457 246.21C60.617 246.196 61.1956 246.174 61.7742 246.145V243.171H60.0457V246.21ZM76.3131 242.16C76.3058 243.823 78.1734 245.515 81.0006 245.881L80.3561 247.199C78.1075 246.862 76.3204 245.756 75.4562 244.262C74.5919 245.756 72.8121 246.862 70.5855 247.199L69.941 245.881C72.7389 245.515 74.5992 243.837 74.5992 242.16V241.486H76.3131V242.16ZM69.4137 249.689V248.342H81.484V249.689H76.2252V254.304H74.6139V249.689H69.4137ZM86.018 248.957C86.018 251.718 85.1977 254.011 83.8207 255.988H82.0629C83.0736 254.523 84.0844 251.579 84.0844 248.957C84.0844 246.335 83.0736 243.398 82.0629 241.94H83.8207C85.1977 243.903 86.018 246.203 86.018 248.957ZM94.7783 243.522C94.7856 244.951 95.6206 246.394 97.3564 247.053L96.4922 248.298C95.313 247.851 94.4927 247.001 94.0166 245.976C93.5332 247.155 92.6689 248.166 91.4092 248.693L90.5303 247.448C92.354 246.643 93.2036 244.987 93.2109 243.522V241.882H94.7783V243.522ZM92.9619 251.843C92.9546 250.319 94.7124 249.411 97.5029 249.411C100.271 249.411 102.037 250.319 102.044 251.843C102.037 253.374 100.271 254.289 97.5029 254.289C94.7124 254.289 92.9546 253.374 92.9619 251.843ZM94.5879 251.843C94.5806 252.626 95.6646 253.051 97.5029 253.044C99.312 253.051 100.396 252.626 100.403 251.843C100.396 251.066 99.312 250.642 97.5029 250.642C95.6646 250.642 94.5806 251.066 94.5879 251.843ZM97.5762 248.781V241.325H99.0996V244.416H100.418V241.076H101.971V249.191H100.418V245.749H99.0996V248.781H97.5762ZM107.354 245.104C107.354 247.155 108.197 249.221 110.05 250.217L109.141 251.418C107.911 250.766 107.076 249.602 106.6 248.21C106.131 249.711 105.296 251 104.058 251.726L103.106 250.495C104.981 249.411 105.809 247.199 105.816 245.104V244.694H103.56V243.376H105.816V241.53H107.354V243.376H109.566V244.694H107.354V245.104ZM108.746 247.492V246.145H110.474V241.311H112.013V253.659H110.474V247.492H108.746ZM113.155 254.304V241.062H114.708V254.304H113.155ZM127.005 241.076V250.642H125.365V241.076H127.005ZM116.21 245.251C116.21 243.325 117.77 241.948 119.784 241.94C121.798 241.948 123.351 243.325 123.343 245.251C123.351 247.207 121.798 248.576 119.784 248.576C117.77 248.576 116.21 247.207 116.21 245.251ZM117.806 245.251C117.799 246.423 118.649 247.155 119.784 247.155C120.89 247.155 121.747 246.423 121.747 245.251C121.747 244.108 120.89 243.361 119.784 243.361C118.649 243.361 117.799 244.108 117.806 245.251ZM118.246 254.04V249.675H119.886V252.722H127.372V254.04H118.246ZM133.576 242.951C133.568 244.694 134.667 246.335 136.769 246.994L135.963 248.283C134.44 247.778 133.349 246.767 132.748 245.471C132.155 246.862 131.041 247.968 129.474 248.503L128.654 247.229C130.792 246.503 131.898 244.746 131.891 242.951V241.691H133.576V242.951ZM130.631 250.891V249.587H139.669V254.304H138.029V250.891H130.631ZM138.029 248.986V241.062H139.669V248.986H138.029ZM152.392 241.062V248.928H150.766V245.69H148.51V244.357H150.766V241.062H152.392ZM141.259 247.609C143.39 246.877 144.511 245.097 144.511 243.347V243.244H141.757V241.926H148.905V243.244H146.166V243.332C146.166 244.943 147.236 246.569 149.286 247.258L148.466 248.547C146.994 248.049 145.954 247.038 145.368 245.793C144.789 247.199 143.683 248.342 142.109 248.898L141.259 247.609ZM143.412 251.784C143.398 250.195 145.119 249.265 147.909 249.265C150.715 249.265 152.428 250.195 152.436 251.784C152.428 253.374 150.715 254.296 147.909 254.304C145.119 254.296 143.398 253.374 143.412 251.784ZM145.024 251.784C145.016 252.604 146.071 253.051 147.909 253.044C149.762 253.051 150.81 252.604 150.81 251.784C150.81 250.957 149.762 250.51 147.909 250.51C146.071 250.51 145.016 250.957 145.024 251.784ZM166.066 251.374V252.707H153.967V251.374H159.182V248.796H155.3V241.94H156.926V244.108H163.063V241.94H164.689V248.796H160.793V251.374H166.066ZM156.926 247.478H163.063V245.412H156.926V247.478ZM167.422 248.957C167.422 246.203 168.242 243.903 169.619 241.94H171.377C170.366 243.398 169.355 246.335 169.355 248.957C169.355 251.579 170.366 254.523 171.377 255.988H169.619C168.242 254.011 167.422 251.718 167.422 248.957ZM183.03 241.062V247.712H181.404V245.134H179.016C178.694 246.577 177.346 247.529 175.618 247.536C173.611 247.529 172.117 246.276 172.117 244.475C172.117 242.709 173.611 241.472 175.618 241.472C177.339 241.472 178.679 242.409 179.009 243.815H181.404V241.062H183.03ZM173.67 244.475C173.67 245.537 174.483 246.203 175.618 246.203C176.716 246.203 177.529 245.537 177.537 244.475C177.529 243.464 176.716 242.79 175.618 242.79C174.483 242.79 173.67 243.464 173.67 244.475ZM174.299 249.616V248.356H183.03V251.784H175.94V252.854H183.455V254.143H174.314V250.583H181.404V249.616H174.299ZM195.225 241.589V242.468C195.232 243.303 195.232 244.387 194.976 245.705H196.704V246.979H191.431V248.386H195.21V251.813H187.637V252.897H195.547V254.172H186.011V250.686H193.584V249.66H185.996V248.386H189.82V246.979H184.605V245.705H193.328C193.555 244.541 193.592 243.654 193.599 242.878H186.099V241.589H195.225ZM208.358 241.062V248.928H206.732V245.69H204.476V244.357H206.732V241.062H208.358ZM197.225 247.609C199.356 246.877 200.477 245.097 200.477 243.347V243.244H197.723V241.926H204.871V243.244H202.132V243.332C202.132 244.943 203.201 246.569 205.252 247.258L204.432 248.547C202.96 248.049 201.92 247.038 201.334 245.793C200.755 247.199 199.649 248.342 198.074 248.898L197.225 247.609ZM199.378 251.784C199.363 250.195 201.085 249.265 203.875 249.265C206.68 249.265 208.394 250.195 208.402 251.784C208.394 253.374 206.68 254.296 203.875 254.304C201.085 254.296 199.363 253.374 199.378 251.784ZM200.989 251.784C200.982 252.604 202.037 253.051 203.875 253.044C205.728 253.051 206.776 252.604 206.776 251.784C206.776 250.957 205.728 250.51 203.875 250.51C202.037 250.51 200.982 250.957 200.989 251.784ZM222.032 251.374V252.707H209.933V251.374H215.147V248.796H211.266V241.94H212.892V244.108H219.029V241.94H220.655V248.796H216.759V251.374H222.032ZM212.892 247.478H219.029V245.412H212.892V247.478ZM226.537 248.957C226.537 251.718 225.717 254.011 224.34 255.988H222.582C223.593 254.523 224.603 251.579 224.603 248.957C224.603 246.335 223.593 243.398 222.582 241.94H224.34C225.717 243.903 226.537 246.203 226.537 248.957ZM238.066 242.16C238.059 243.823 239.926 245.515 242.753 245.881L242.109 247.199C239.86 246.862 238.073 245.756 237.209 244.262C236.345 245.756 234.565 246.862 232.338 247.199L231.694 245.881C234.492 245.515 236.352 243.837 236.352 242.16V241.486H238.066V242.16ZM231.166 249.689V248.342H243.237V249.689H237.978V254.304H236.367V249.689H231.166ZM251.638 241.853V243.156H248.855C248.877 244.709 250.019 246.203 252.107 246.789L251.286 248.063C249.756 247.609 248.65 246.65 248.049 245.427C247.448 246.745 246.321 247.785 244.738 248.283L243.918 247.009C246.035 246.386 247.177 244.804 247.214 243.156H244.358V241.853H251.638ZM246.101 254.143V248.825H247.712V250.188H253.235V248.825H254.861V254.143H246.101ZM247.712 252.824H253.235V251.447H247.712V252.824ZM253.22 248.239V241.062H254.861V248.239H253.22ZM258.105 249.499C257.476 249.499 256.956 248.986 256.963 248.356C256.956 247.741 257.476 247.236 258.105 247.229C258.713 247.236 259.233 247.741 259.233 248.356C259.233 248.986 258.713 249.499 258.105 249.499ZM62.4551 262.062V275.318H60.8145V262.062H62.4551ZM51.8643 267.701C51.8569 264.845 53.3145 263.028 55.3213 263.028C57.3062 263.028 58.771 264.845 58.7783 267.701C58.771 270.58 57.3062 272.389 55.3213 272.389C53.3145 272.389 51.8569 270.58 51.8643 267.701ZM53.4316 267.701C53.4316 269.737 54.2007 270.917 55.3213 270.924C56.4346 270.917 57.1963 269.737 57.1963 267.701C57.1963 265.68 56.4346 264.493 55.3213 264.493C54.2007 264.493 53.4316 265.68 53.4316 267.701ZM76.1736 268.434V269.737H64.1033V268.434H66.9158V266.756C65.9124 266.332 65.3484 265.665 65.3484 264.801C65.3484 263.211 67.2015 262.281 70.1238 262.281C73.0389 262.281 74.8919 263.211 74.8992 264.801C74.8919 265.672 74.3206 266.339 73.3172 266.756V268.434H76.1736ZM65.5096 272.901C65.5096 271.378 67.2308 270.528 70.1238 270.543C72.9729 270.528 74.7015 271.378 74.7088 272.901C74.7015 274.439 72.9729 275.274 70.1238 275.274C67.2308 275.274 65.5096 274.439 65.5096 272.901ZM67.0477 264.801C67.033 265.606 68.1683 266.039 70.1238 266.031C72.0721 266.039 73.2146 265.606 73.2146 264.801C73.2146 263.988 72.0721 263.534 70.1238 263.541C68.1683 263.534 67.033 263.988 67.0477 264.801ZM67.1648 272.901C67.1575 273.648 68.1976 274.051 70.1238 274.044C72.0208 274.051 73.0682 273.648 73.0828 272.901C73.0682 272.162 72.0208 271.781 70.1238 271.773C68.1976 271.781 67.1575 272.162 67.1648 272.901ZM68.5564 268.434H71.6912V267.174C71.2151 267.24 70.6878 267.276 70.1238 267.276C69.5599 267.276 69.0325 267.24 68.5564 267.174V268.434ZM92.1117 268.404V269.708H80.0268V268.404H85.2709V267.145H81.5063V262.662H90.6469V263.937H83.1322V265.855H90.7201V267.145H86.8676V268.404H92.1117ZM81.433 272.887C81.433 271.334 83.1688 270.462 86.0473 270.47C88.9037 270.462 90.6249 271.334 90.6322 272.887C90.6249 274.425 88.9037 275.296 86.0473 275.304C83.1688 275.296 81.433 274.425 81.433 272.887ZM83.0883 272.887C83.081 273.656 84.121 274.051 86.0473 274.044C87.9442 274.051 88.9916 273.656 89.0063 272.887C88.9916 272.125 87.9442 271.715 86.0473 271.715C84.121 271.715 83.081 272.125 83.0883 272.887ZM96.9826 262.984C99.0847 262.977 100.615 264.303 100.63 266.178C100.615 268.06 99.0847 269.378 96.9826 269.386C94.9025 269.378 93.3425 268.06 93.3498 266.178C93.3425 264.303 94.9025 262.977 96.9826 262.984ZM92.7492 271.217C95.1369 271.217 98.4401 271.188 101.304 270.777L101.436 271.964C98.4694 272.528 95.2907 272.55 92.9543 272.55L92.7492 271.217ZM94.9611 266.178C94.9538 267.284 95.8254 267.965 96.9826 267.965C98.1545 267.965 99.0261 267.284 99.0334 266.178C99.0261 265.079 98.1618 264.391 96.9826 264.391C95.8254 264.391 94.9538 265.079 94.9611 266.178ZM102.095 275.318V262.062H103.721V275.318H102.095ZM110.247 265.24C110.24 267.701 111.419 270.118 113.528 271.041L112.547 272.345C111.053 271.612 109.998 270.206 109.434 268.47C108.855 270.301 107.771 271.825 106.248 272.594L105.223 271.275C107.383 270.265 108.584 267.716 108.592 265.24V263.131H110.247V265.24ZM112.063 267.657V266.339H114.847V262.062H116.458V275.318H114.847V267.657H112.063Z" fill="#111827"/>
<path d="M279.601 258.001L275.701 254.101C275.517 253.917 275.426 253.684 275.426 253.401C275.426 253.117 275.517 252.884 275.701 252.701C275.884 252.517 276.117 252.426 276.401 252.426C276.684 252.426 276.917 252.517 277.101 252.701L281.701 257.301C281.801 257.401 281.872 257.509 281.913 257.626C281.955 257.742 281.976 257.867 281.976 258.001C281.976 258.134 281.955 258.259 281.913 258.376C281.872 258.492 281.801 258.601 281.701 258.701L277.101 263.301C276.917 263.484 276.684 263.576 276.401 263.576C276.117 263.576 275.884 263.484 275.701 263.301C275.517 263.117 275.426 262.884 275.426 262.601C275.426 262.317 275.517 262.084 275.701 261.901L279.601 258.001Z" fill="#9CA3AF"/>
<circle cx="338" cy="258" r="10" stroke="#9CA3AF" stroke-width="2"/>
<rect x="35" y="309" width="330" height="50" rx="8" fill="#9CA3AF"/>
<path d="M197.596 326.262V330.938H199.846V332.309H197.596V336.861H195.926V326.262H197.596ZM185.098 335.104C186.32 335.104 187.735 335.104 189.211 335.068V334.005C187.418 333.803 186.276 332.959 186.293 331.693C186.276 330.252 187.779 329.355 190.037 329.373C192.296 329.355 193.773 330.252 193.782 331.693C193.773 332.95 192.657 333.794 190.881 334.005V335.007C192.287 334.937 193.711 334.822 195.03 334.629L195.17 335.824C191.786 336.413 188.051 336.439 185.274 336.439L185.098 335.104ZM185.502 328.846V327.598H189.211V326.121H190.881V327.598H194.59V328.846H185.502ZM187.067 338.9V337.6H197.596V341.994H195.926V338.9H187.067ZM187.875 331.693C187.875 332.432 188.693 332.915 190.037 332.906C191.365 332.915 192.191 332.432 192.182 331.693C192.191 330.938 191.365 330.498 190.037 330.516C188.693 330.498 187.875 330.938 187.875 331.693ZM213.461 326.262V337.705H211.791V326.262H213.461ZM200.716 331.219C200.725 328.942 202.536 327.325 204.918 327.316C207.291 327.325 209.101 328.942 209.101 331.219C209.101 333.53 207.291 335.139 204.918 335.139C202.536 335.139 200.725 333.53 200.716 331.219ZM202.351 331.219C202.342 332.704 203.45 333.68 204.918 333.68C206.359 333.68 207.466 332.704 207.466 331.219C207.466 329.769 206.359 328.775 204.918 328.775C203.45 328.775 202.342 329.769 202.351 331.219ZM203.16 341.66V336.545H204.847V340.307H213.935V341.66H203.16Z" fill="white"/>
</svg>
