<svg width="400" height="58" viewBox="0 0 400 58" fill="none" xmlns="http://www.w3.org/2000/svg">
<rect width="400" height="58" fill="white"/>
<path d="M374.001 30.4008L369.101 35.3008C368.917 35.4841 368.684 35.5758 368.401 35.5758C368.117 35.5758 367.884 35.4841 367.701 35.3008C367.517 35.1174 367.426 34.8841 367.426 34.6008C367.426 34.3174 367.517 34.0841 367.701 33.9008L372.601 29.0008L367.701 24.1008C367.517 23.9174 367.426 23.6841 367.426 23.4008C367.426 23.1174 367.517 22.8841 367.701 22.7008C367.884 22.5174 368.117 22.4258 368.401 22.4258C368.684 22.4258 368.917 22.5174 369.101 22.7008L374.001 27.6008L378.901 22.7008C379.084 22.5174 379.317 22.4258 379.601 22.4258C379.884 22.4258 380.117 22.5174 380.301 22.7008C380.484 22.8841 380.576 23.1174 380.576 23.4008C380.576 23.6841 380.484 23.9174 380.301 24.1008L375.401 29.0008L380.301 33.9008C380.484 34.0841 380.576 34.3174 380.576 34.6008C380.576 34.8841 380.484 35.1174 380.301 35.3008C380.117 35.4841 379.884 35.5758 379.601 35.5758C379.317 35.5758 379.084 35.4841 378.901 35.3008L374.001 30.4008Z" fill="black"/>
</svg>
