<svg width="280" height="280" viewBox="0 0 280 280" fill="none" xmlns="http://www.w3.org/2000/svg">
<rect width="280" height="280" rx="140" fill="white"/>
<mask id="mask0_942_514" style="mask-type:alpha" maskUnits="userSpaceOnUse" x="78" y="78" width="124" height="124">
<rect x="78.8848" y="78.8848" width="122.231" height="122.231" fill="#D9D9D9"/>
</mask>
<g mask="url(#mask0_942_514)">
<path d="M132.87 149.167L121.92 138.218C120.986 137.284 119.798 136.817 118.355 136.817C116.912 136.817 115.724 137.284 114.79 138.218C113.856 139.151 113.389 140.34 113.389 141.783C113.389 143.226 113.856 144.414 114.79 145.348L129.305 159.863C130.323 160.881 131.512 161.391 132.87 161.391C134.228 161.391 135.416 160.881 136.435 159.863L165.21 131.087C166.144 130.154 166.611 128.965 166.611 127.522C166.611 126.079 166.144 124.891 165.21 123.957C164.277 123.023 163.088 122.557 161.645 122.557C160.202 122.557 159.014 123.023 158.08 123.957L132.87 149.167ZM140 190.93C132.955 190.93 126.334 189.593 120.137 186.919C113.941 184.245 108.551 180.617 103.967 176.033C99.3836 171.449 95.7548 166.059 93.081 159.863C90.4072 153.666 89.0703 147.045 89.0703 140C89.0703 132.955 90.4072 126.334 93.081 120.137C95.7548 113.941 99.3836 108.551 103.967 103.967C108.551 99.3836 113.941 95.7548 120.137 93.081C126.334 90.4072 132.955 89.0703 140 89.0703C147.045 89.0703 153.666 90.4072 159.863 93.081C166.059 95.7548 171.449 99.3836 176.033 103.967C180.617 108.551 184.245 113.941 186.919 120.137C189.593 126.334 190.93 132.955 190.93 140C190.93 147.045 189.593 153.666 186.919 159.863C184.245 166.059 180.617 171.449 176.033 176.033C171.449 180.617 166.059 184.245 159.863 186.919C153.666 189.593 147.045 190.93 140 190.93Z" fill="#0077FA"/>
</g>
</svg>
