<svg width="400" height="727" viewBox="0 0 400 727" fill="none" xmlns="http://www.w3.org/2000/svg">
<rect width="400" height="727" fill="white"/>
<rect width="400" height="58" fill="white"/>
<path d="M374.001 30.4008L369.101 35.3008C368.917 35.4841 368.684 35.5758 368.401 35.5758C368.117 35.5758 367.884 35.4841 367.701 35.3008C367.517 35.1174 367.426 34.8841 367.426 34.6008C367.426 34.3174 367.517 34.0841 367.701 33.9008L372.601 29.0008L367.701 24.1008C367.517 23.9174 367.426 23.6841 367.426 23.4008C367.426 23.1174 367.517 22.8841 367.701 22.7008C367.884 22.5174 368.117 22.4258 368.401 22.4258C368.684 22.4258 368.917 22.5174 369.101 22.7008L374.001 27.6008L378.901 22.7008C379.084 22.5174 379.317 22.4258 379.601 22.4258C379.884 22.4258 380.117 22.5174 380.301 22.7008C380.484 22.8841 380.576 23.1174 380.576 23.4008C380.576 23.6841 380.484 23.9174 380.301 24.1008L375.401 29.0008L380.301 33.9008C380.484 34.0841 380.576 34.3174 380.576 34.6008C380.576 34.8841 380.484 35.1174 380.301 35.3008C380.117 35.4841 379.884 35.5758 379.601 35.5758C379.317 35.5758 379.084 35.4841 378.901 35.3008L374.001 30.4008Z" fill="black"/>
<path d="M115.077 92.3223V93.751H108.324V99.5586H106.598V93.751H99.9182V92.3223H115.077ZM113.649 83.9355V85.3457H108.509C108.537 87.4053 111.097 89.2422 114.242 89.6689L113.593 91.0605C110.866 90.6338 108.509 89.2886 107.507 87.3867C106.477 89.2886 104.13 90.6338 101.44 91.0605L100.772 89.6689C103.88 89.2422 106.44 87.4053 106.505 85.3457H101.328V83.9355H113.649ZM124.736 84.3623V92.1738H116.831V84.3623H124.736ZM118.557 85.791V90.7637H122.991V85.791H118.557ZM129.745 82.9707V94.8828H127.983V82.9707H129.745ZM130.246 97.6289V99.0762H118.872V93.7324H120.653V97.6289H130.246ZM147.178 90.7637V92.2109H132V90.7637H147.178ZM145.415 87.8877V89.3164H133.893V83.5459H145.304V84.9932H135.637V87.8877H145.415ZM139.57 93.5098C143.151 93.5098 145.304 94.6045 145.304 96.5342C145.304 98.4639 143.151 99.5586 139.57 99.54C135.971 99.5586 133.8 98.4639 133.8 96.5342C133.8 94.6045 135.971 93.5098 139.57 93.5098ZM139.57 94.8643C137.028 94.8828 135.581 95.4766 135.581 96.5342C135.581 97.5918 137.028 98.1855 139.57 98.1855C142.075 98.1855 143.541 97.5918 143.541 96.5342C143.541 95.4766 142.075 94.8828 139.57 94.8643ZM163.237 92.0254V93.4541H148.022V92.0254H154.758V90.4482H149.971V86.2178H159.563V84.7334H149.934V83.3418H161.326V87.5166H151.715V89.0752H161.66V90.4482H156.502V92.0254H163.237ZM161.419 94.623V99.4473H159.638V96.0332H149.729V94.623H161.419ZM179.241 90.7822V92.2109H164.082V90.7822H179.241ZM171.652 93.4912C175.233 93.4912 177.386 94.6045 177.386 96.5342C177.386 98.4639 175.233 99.5586 171.652 99.54C168.053 99.5586 165.882 98.4639 165.882 96.5342C165.882 94.6045 168.053 93.4912 171.652 93.4912ZM171.652 94.8643C169.11 94.8828 167.663 95.458 167.663 96.5342C167.663 97.5918 169.11 98.1484 171.652 98.1484C174.157 98.1484 175.623 97.5918 175.623 96.5342C175.623 95.458 174.157 94.8828 171.652 94.8643ZM177.887 83.7686V85.2158H172.84C173.034 86.8301 175.391 88.2031 178.462 88.5186L177.831 89.9102C174.955 89.5762 172.571 88.3608 171.671 86.6074C170.743 88.3608 168.368 89.5762 165.492 89.9102L164.88 88.5186C167.895 88.2031 170.27 86.8394 170.483 85.2158H165.473V83.7686H177.887ZM190.152 87.1826C190.133 90.1328 191.84 93.1387 194.327 94.3447L193.232 95.7549C191.423 94.8179 190.022 92.9531 189.298 90.7266C188.547 93.1016 187.09 95.0869 185.198 96.0703L184.103 94.6416C186.664 93.417 188.389 90.2256 188.389 87.1826V84.3438H190.152V87.1826ZM197.333 82.9521V89.5762H200.004V91.0791H197.333V99.5771H195.57V82.9521H197.333ZM206.582 86.4219C206.582 88.5742 208.178 90.5967 210.739 91.4131L209.83 92.7861C207.918 92.1553 206.471 90.8472 205.729 89.1865C204.977 90.9956 203.502 92.4243 201.517 93.1201L200.608 91.7285C203.187 90.8564 204.783 88.7041 204.801 86.4219V85.6982H201.072V84.2695H210.238V85.6982H206.582V86.4219ZM214.208 82.9707V95.1055H212.446V82.9707H214.208ZM214.709 97.7959V99.2246H203.335V93.9551H205.117V97.7959H214.709ZM225.722 84.7334V85.7539C225.722 87.1455 225.722 89.2979 225.24 92.2666L223.495 92.1367C223.913 89.4741 223.959 87.5537 223.978 86.1621H217.224V84.7334H225.722ZM221.454 89.4834V94.4561C223.226 94.4004 225.026 94.2798 226.687 94.0664L226.78 95.3838C223.31 95.9404 219.451 96.0146 216.5 95.9961L216.296 94.5674C217.335 94.5581 218.495 94.5488 219.71 94.5117V89.4834H221.454ZM229.414 82.9521V89.8174H231.956V91.3203H229.414V99.5771H227.633V82.9521H229.414ZM250.53 82.9521V99.6143H248.768V82.9521H250.53ZM239.453 84.3438V88.6113H243.925V84.3438H245.669V95.625H237.691V84.3438H239.453ZM239.453 94.1777H243.925V90.0029H239.453V94.1777ZM266.311 84.5479V86.3291C266.293 88.4258 266.293 90.6152 265.699 93.7881L263.974 93.6025C264.549 90.5967 264.549 88.3701 264.549 86.3291V85.9766H254.362V84.5479H266.311ZM267.963 95.8662V97.332H252.804V95.8662H256.385V90.4854H258.147V95.8662H260.541V90.4854H262.267V95.8662H267.963ZM281.796 82.9521V89.6875H284.468V91.1533H281.796V99.5771H280.052V82.9521H281.796ZM278.604 85.5498V86.9971H268.752V85.5498H272.852V83.1748H274.615V85.5498H278.604ZM273.743 88.2217C276.118 88.2217 277.862 89.8174 277.881 92.0811C277.862 94.3633 276.118 95.9404 273.743 95.959C271.349 95.9404 269.605 94.3633 269.605 92.0811C269.605 89.8174 271.349 88.2217 273.743 88.2217ZM273.743 89.6689C272.333 89.6689 271.275 90.6523 271.294 92.0811C271.275 93.5283 272.333 94.4932 273.743 94.4746C275.153 94.4932 276.192 93.5283 276.192 92.0811C276.192 90.6523 275.153 89.6689 273.743 89.6689ZM289.394 84.1953C290.906 84.1953 292.159 85.0674 292.901 86.5703H297.002V82.9521H298.746V99.6143H297.002V93.2314H293.012C292.298 94.9014 290.99 95.8662 289.394 95.8662C286.908 95.8662 285.164 93.6025 285.182 90.0215C285.164 86.459 286.908 84.1953 289.394 84.1953ZM289.394 85.7725C287.891 85.7725 286.852 87.4053 286.852 90.0215C286.852 92.6562 287.891 94.2891 289.394 94.2891C290.897 94.2891 291.936 92.6562 291.936 90.0215C291.936 87.4053 290.897 85.7725 289.394 85.7725ZM293.402 88.0176C293.523 88.6299 293.606 89.2979 293.606 90.0215C293.606 90.6523 293.551 91.2368 293.439 91.7842H297.002V88.0176H293.402ZM117.374 110.583V112.55H125.074V110.583H126.837V117.3H122.087V118.933H128.803V120.38H113.644V118.933H120.342V117.3H115.63V110.583H117.374ZM117.374 115.871H125.074V113.923H117.374V115.871ZM127.096 124.796V126.225H115.555V121.567H117.337V124.796H127.096ZM143.471 109.971V122.05H141.709V109.971H143.471ZM143.972 124.796V126.225H132.598V120.825H134.379V124.796H143.972ZM134.454 111.084C136.959 111.084 138.87 112.791 138.87 115.203C138.87 117.652 136.959 119.341 134.454 119.341C131.949 119.341 130.019 117.652 130.019 115.203C130.019 112.791 131.949 111.084 134.454 111.084ZM134.454 112.624C132.895 112.624 131.745 113.682 131.745 115.203C131.745 116.762 132.895 117.801 134.454 117.801C135.975 117.801 137.144 116.762 137.144 115.203C137.144 113.682 135.975 112.624 134.454 112.624ZM154.494 111.195C156.006 111.195 157.258 112.067 158 113.57H162.101V109.952H163.845V126.614H162.101V120.231H158.112C157.397 121.901 156.089 122.866 154.494 122.866C152.007 122.866 150.263 120.603 150.282 117.021C150.263 113.459 152.007 111.195 154.494 111.195ZM154.494 112.772C152.991 112.772 151.952 114.405 151.952 117.021C151.952 119.656 152.991 121.289 154.494 121.289C155.996 121.289 157.036 119.656 157.036 117.021C157.036 114.405 155.996 112.772 154.494 112.772ZM158.501 115.018C158.622 115.63 158.705 116.298 158.705 117.021C158.705 117.652 158.65 118.237 158.538 118.784H162.101V115.018H158.501ZM181.222 119.73V121.122H174.431V126.577H172.705V121.122H166.007V119.73H181.222ZM169.644 110.62V112.791H177.548V110.62H179.311V117.838H167.9V110.62H169.644ZM169.644 116.428H177.548V114.201H169.644V116.428ZM197.263 117.578V118.933H182.048V117.578H197.263ZM195.389 120.102V123.757H185.629V125.13H195.908V126.373H183.866V122.588H193.645V121.363H183.848V120.102H195.389ZM195.352 110.379V113.979H185.74V115.24H195.63V116.483H183.996V112.81H193.589V111.622H183.959V110.379H195.352ZM215.447 109.971V114.906H217.822V116.354H215.447V121.159H213.684V109.971H215.447ZM202.255 119.304C203.544 119.304 205.038 119.304 206.597 119.248V118.135C204.704 117.94 203.498 117.049 203.516 115.704C203.498 114.183 205.075 113.236 207.469 113.255C209.844 113.236 211.421 114.183 211.421 115.704C211.421 117.04 210.233 117.931 208.359 118.135V119.192C209.844 119.118 211.347 118.998 212.738 118.803L212.887 120.064C209.306 120.695 205.372 120.714 202.44 120.714L202.255 119.304ZM215.447 121.938V126.577H213.684V123.312H204.333V121.938H215.447ZM212.274 111.381V112.698H202.682V111.381H206.597V109.822H208.359V111.381H212.274ZM207.469 114.461C206.04 114.442 205.186 114.906 205.186 115.704C205.186 116.483 206.04 116.984 207.469 116.984C208.879 116.984 209.732 116.483 209.732 115.704C209.732 114.906 208.879 114.442 207.469 114.461ZM232.193 109.971V122.05H230.43V109.971H232.193ZM232.694 124.796V126.225H221.32V120.825H223.101V124.796H232.694ZM223.176 111.084C225.68 111.084 227.592 112.791 227.592 115.203C227.592 117.652 225.68 119.341 223.176 119.341C220.671 119.341 218.741 117.652 218.741 115.203C218.741 112.791 220.671 111.084 223.176 111.084ZM223.176 112.624C221.617 112.624 220.467 113.682 220.467 115.203C220.467 116.762 221.617 117.801 223.176 117.801C224.697 117.801 225.866 116.762 225.866 115.203C225.866 113.682 224.697 112.624 223.176 112.624ZM247.51 109.952V114.127H249.923V115.611H247.51V119.638H245.748V109.952H247.51ZM238.623 120.324V121.938H245.748V120.324H247.51V126.373H236.879V120.324H238.623ZM238.623 124.963H245.748V123.312H238.623V124.963ZM244.375 111.585V112.995H234.466V111.585H238.548V109.804H240.311V111.585H244.375ZM239.421 113.682C241.814 113.682 243.447 114.813 243.447 116.595C243.447 118.357 241.814 119.526 239.421 119.508C236.99 119.526 235.376 118.357 235.376 116.595C235.376 114.813 236.99 113.682 239.421 113.682ZM239.421 114.999C238.01 114.98 237.064 115.63 237.083 116.595C237.064 117.578 238.01 118.209 239.421 118.209C240.831 118.209 241.777 117.578 241.796 116.595C241.777 115.63 240.831 114.98 239.421 114.999ZM264.293 109.952V126.577H262.531V109.952H264.293ZM253.253 111.566V120.825C255.675 120.807 258.226 120.612 260.898 120.064L261.139 121.549C258.189 122.143 255.517 122.347 252.901 122.347H251.509V111.566H253.253ZM279.481 109.952V116.391H282.153V117.838H279.481V126.614H277.718V109.952H279.481ZM275.009 111.548V112.977H268.997V121.011C271.79 121.001 273.887 120.881 276.252 120.454L276.475 121.938C273.877 122.402 271.669 122.495 268.571 122.477H267.235V111.548H275.009ZM284.463 125.13C283.74 125.13 283.127 124.536 283.146 123.812C283.127 123.089 283.74 122.495 284.463 122.495C285.168 122.495 285.781 123.089 285.781 123.812C285.781 124.536 285.168 125.13 284.463 125.13Z" fill="#111827"/>
<path d="M89.7852 315.535C89.7852 315.535 85.9431 275.735 123.798 265.921C123.798 265.921 160.575 254.425 176.307 267.533C176.307 267.533 191.868 275.871 191.366 296.14C191.366 296.14 191.163 305.315 182.762 309.215C182.762 309.215 176.173 330.189 128.375 328.104C128.375 328.104 98.6612 337.047 89.7852 315.531V315.535Z" fill="#F7F7F7"/>
<path d="M126.262 238.914L123.709 266.925C123.709 266.925 126.683 281.065 147.962 278.744C147.962 278.744 155.071 278.088 155.979 271.03L156.097 242.435L126.262 238.917V238.914Z" fill="#FFB1B3"/>
<mask id="mask0_916_852" style="mask-type:luminance" maskUnits="userSpaceOnUse" x="123" y="238" width="34" height="41">
<path d="M126.264 238.912L123.711 266.923C123.711 266.923 126.685 281.063 147.964 278.742C147.964 278.742 155.073 278.086 155.981 271.028L156.099 242.433L126.264 238.915V238.912Z" fill="white"/>
</mask>
<g mask="url(#mask0_916_852)">
<path d="M124.393 242.845C124.393 242.845 140.662 274.643 151.728 278.255L154.711 278.676C154.711 278.676 155.791 277.565 155.861 270.641L156.533 242.285L124.393 242.842V242.845Z" fill="#FF9AA2"/>
</g>
<path d="M155.848 187.846C155.848 187.846 177.378 200.161 165.029 223.825L155.848 187.846Z" fill="#111827"/>
<path d="M165.289 247.182C163.901 252.065 159.484 255.514 154.41 255.744C147.098 256.07 128.793 254.071 122.879 241.9L122.482 239.955C118.262 240.288 110.412 227.836 109.153 225.522C107.889 223.207 110.076 221.837 110.076 221.837C110.076 221.837 100.416 190.786 125.368 184.209C125.368 184.209 153.349 175.959 163.994 204.097C164.354 205.041 164.605 206.024 164.766 207.022C164.841 207.476 164.929 208.027 165.02 208.662C165.099 209.201 165.189 209.809 165.277 210.465C166.469 218.93 168.333 236.464 165.283 247.179L165.289 247.182Z" fill="#FFB1B3"/>
<path d="M151.833 184.276C146.624 179.133 127.574 180.374 127.574 180.374C114.532 181.699 110.357 189.377 109.026 194.456C108.391 196.876 107.308 199.139 106.004 201.275C99.9567 211.164 109.728 227.555 109.728 227.555C110.161 238.173 125.62 245.994 125.62 245.994L123.786 238.89C121.191 238.24 117.684 232.011 117.684 232.011C116.511 229.803 116.544 227.709 116.843 226.215C117.128 224.787 118.395 223.755 119.851 223.813C126.228 224.064 127.477 231.521 127.477 231.521L130.248 233.484L130.203 230.096C130.182 228.369 130.351 226.635 130.814 224.971C131.864 221.199 131.419 215.158 130.989 211.449C130.989 211.449 131.129 209.394 131.794 207.464C132.569 205.543 134.804 203.934 135.131 203.71C140.18 201.021 147.816 200.016 151.727 199.668C153.022 199.553 154.317 199.602 155.597 199.814C156.108 199.898 156.622 199.974 157.136 200.034C158.964 200.252 162.189 202.793 164.772 207.026C163.97 192.26 157.046 189.419 151.836 184.276H151.833Z" fill="#111827"/>
<path d="M152.324 244.876C152.324 244.876 158.163 246.038 162.807 241.924" stroke="#D05F6B" stroke-width="1.21009" stroke-miterlimit="10" stroke-linecap="round"/>
<path d="M156.689 221.094L156.31 223.698C156.223 224.304 156.392 224.918 156.779 225.39L159.983 229.298C160.655 230.324 160.503 231.685 159.623 232.538L156.035 235.3" stroke="#D05F6B" stroke-width="1.21009" stroke-miterlimit="10" stroke-linecap="round"/>
<path d="M141.387 223.505C141.387 223.505 144.787 219.896 149.31 221.559" stroke="#D05F6B" stroke-width="1.21009" stroke-miterlimit="10" stroke-linecap="round"/>
<path d="M158.838 217.234C158.838 217.234 161.104 214.415 164.795 215.195" stroke="#D05F6B" stroke-width="1.21009" stroke-miterlimit="10" stroke-linecap="round"/>
<path d="M149.738 229.005C149.835 227.407 149.271 226.073 148.478 226.025C147.686 225.977 146.966 227.234 146.87 228.832C146.773 230.429 147.338 231.763 148.13 231.811C148.922 231.859 149.642 230.602 149.738 229.005Z" fill="#282828"/>
<path d="M163.826 224.046C163.923 222.448 163.359 221.114 162.566 221.066C161.774 221.019 161.054 222.275 160.958 223.873C160.861 225.47 161.425 226.804 162.218 226.852C163.01 226.9 163.73 225.643 163.826 224.046Z" fill="#282828"/>
<path d="M130.248 233.484C130.248 233.484 145.311 228.711 144.206 220.567C141.786 202.688 151.724 199.668 151.724 199.668L133.742 193.158L120.939 203.995L130.248 233.487V233.484Z" fill="#111827"/>
<path d="M120.477 294.221C120.477 294.221 128.745 307.934 128.442 328.708" stroke="#D8D8D8" stroke-width="1.51261" stroke-miterlimit="10" stroke-linecap="round"/>
<path d="M174.023 277.988C174.023 277.988 184.309 290.594 182.999 310.258" stroke="#D8D8D8" stroke-width="1.51261" stroke-miterlimit="10" stroke-linecap="round"/>
<path d="M176.588 199.887L179.056 201.036" stroke="#CAE1EC" stroke-width="1.21009" stroke-miterlimit="10" stroke-linecap="round"/>
<path d="M183.863 203.273L219.918 220.048" stroke="#CAE1EC" stroke-width="1.21009" stroke-miterlimit="10" stroke-linecap="round" stroke-dasharray="5.3 5.3"/>
<path d="M222.324 221.166L224.793 222.313" stroke="#CAE1EC" stroke-width="1.21009" stroke-miterlimit="10" stroke-linecap="round"/>
<path d="M172.656 259.831L175.306 259.199" stroke="#CAE1EC" stroke-width="1.21009" stroke-miterlimit="10" stroke-linecap="round"/>
<path d="M180.43 257.978L218.853 248.809" stroke="#CAE1EC" stroke-width="1.21009" stroke-miterlimit="10" stroke-linecap="round" stroke-dasharray="5.27 5.27"/>
<path d="M221.414 248.197L224.064 247.564" stroke="#CAE1EC" stroke-width="1.21009" stroke-miterlimit="10" stroke-linecap="round"/>
<path d="M309.219 160.594C309.198 153.948 300.545 149.849 294.301 153.185L240.607 181.898C234.366 185.235 229.323 193.327 229.344 199.971L229.782 342.952C229.804 349.598 236.937 355.304 243.178 351.964L294.816 320.223C301.06 316.883 306.103 308.794 306.082 302.147L309.222 160.588L309.219 160.594Z" fill="#2B2B2B"/>
<path d="M298.546 155.81C304.79 152.47 309.866 155.15 309.887 161.797L310.326 304.778C310.347 311.424 305.304 319.514 299.06 322.854L245.365 351.566C239.124 354.903 234.048 352.223 234.027 345.579L233.588 202.598C233.567 195.952 238.61 187.862 244.851 184.525L298.546 155.813V155.81ZM308.898 305.54L308.459 162.559C308.441 156.76 303.997 154.412 298.549 157.326L244.854 186.038C239.408 188.951 234.989 196.039 235.007 201.839L235.445 344.82C235.464 350.619 239.911 352.967 245.356 350.054L299.051 321.341C304.499 318.428 308.916 311.34 308.898 305.54Z" fill="#2B2B2B"/>
<path d="M298.55 157.324C303.998 154.41 308.442 156.758 308.46 162.557L308.899 305.538C308.917 311.338 304.5 318.426 299.052 321.339L245.357 350.052C239.912 352.965 235.465 350.617 235.447 344.818L235.008 201.837C234.99 196.037 239.41 188.949 244.855 186.036L298.55 157.324Z" fill="white"/>
<g opacity="0.2">
<path d="M246.359 185.23C240.911 188.144 236.494 195.232 236.512 201.031L236.951 344.012C236.969 349.812 241.413 352.156 246.861 349.243L245.188 350.135C239.74 353.049 235.293 350.704 235.275 344.905L234.836 201.924C234.818 196.124 239.238 189.036 244.686 186.123L246.359 185.23Z" fill="white"/>
<path d="M298.714 157.232C304.162 154.319 308.609 156.666 308.628 162.466L309.066 305.447C309.084 311.246 304.665 318.331 299.216 321.244L297.543 322.137C302.992 319.224 307.408 312.138 307.39 306.339L306.952 163.358C306.933 157.559 302.489 155.211 297.041 158.124L298.714 157.232Z" fill="white"/>
</g>
<path d="M266.799 182.475L279.783 175.447" stroke="#6F6F6F" stroke-width="1.51261" stroke-miterlimit="10" stroke-linecap="round"/>
<path d="M268.996 262.326L288.394 251.901C291.225 250.379 292.992 247.426 292.992 244.211V214.473" stroke="#0045A4" stroke-width="1.51261" stroke-miterlimit="10" stroke-linecap="round"/>
<path d="M288.573 213.136V244.139C288.573 245.77 287.692 247.27 286.274 248.066L266.358 259.235C264.903 260.052 263.109 258.999 263.109 257.332V235.227C263.109 227.893 267.118 221.144 273.559 217.638L285.348 211.218C286.8 210.426 288.573 211.479 288.573 213.133V213.136Z" stroke="#EE2A38" stroke-width="1.51261" stroke-miterlimit="10" stroke-linecap="round"/>
<path d="M276.473 233.281V235.432" stroke="#EE2A38" stroke-width="1.51261" stroke-miterlimit="10" stroke-linecap="round"/>
<path d="M272.139 240.222C272.139 240.222 275.348 241.229 279.835 236.223" stroke="#EE2A38" stroke-width="1.51261" stroke-miterlimit="10" stroke-linecap="round"/>
<path d="M271.698 234.407C272.126 234.407 272.473 233.903 272.473 233.282C272.473 232.66 272.126 232.156 271.698 232.156C271.271 232.156 270.924 232.66 270.924 233.282C270.924 233.903 271.271 234.407 271.698 234.407Z" fill="#EE2A38"/>
<path d="M280.153 230.104C280.581 230.104 280.928 229.6 280.928 228.979C280.928 228.357 280.581 227.854 280.153 227.854C279.726 227.854 279.379 228.357 279.379 228.979C279.379 229.6 279.726 230.104 280.153 230.104Z" fill="#EE2A38"/>
<mask id="path-37-inside-1_916_852" fill="white">
<path d="M96.002 363H303.998V388H96.002V363Z"/>
</mask>
<path d="M303.998 387H96.002V389H303.998V387Z" fill="#0077FA" mask="url(#path-37-inside-1_916_852)"/>
<path fill-rule="evenodd" clip-rule="evenodd" d="M115.6 368.218C116.547 368.47 117.292 369.219 117.544 370.174C118.002 371.9 117.998 375.502 117.998 375.502C117.998 375.502 117.998 379.103 117.54 380.83C117.288 381.781 116.543 382.53 115.596 382.786C113.881 383.248 107 383.248 107 383.248C107 383.248 100.119 383.248 98.4041 382.786C97.4572 382.534 96.7121 381.785 96.4599 380.83C96.002 379.103 96.002 375.502 96.002 375.502C96.002 375.502 96.002 371.9 96.4638 370.17C96.716 369.219 97.4611 368.47 98.408 368.214C100.123 367.752 107.004 367.752 107.004 367.752C107.004 367.752 113.881 367.752 115.6 368.218ZM104.753 372.23V378.773L110.504 375.502L104.753 372.23Z" fill="#FF0000"/>
<path d="M141.386 367.674V372.332H143.6V373.949H141.386V379.293H139.434V367.674H141.386ZM142.018 381.666V383.248H131.208V378.08H133.159V381.666H142.018ZM133.317 368.729C135.725 368.729 137.589 370.398 137.606 372.736C137.589 375.039 135.725 376.727 133.317 376.727C130.909 376.727 129.011 375.039 129.028 372.736C129.011 370.398 130.909 368.729 133.317 368.729ZM133.317 370.434C131.981 370.434 130.927 371.33 130.944 372.736C130.927 374.107 131.981 375.004 133.317 375.004C134.653 375.004 135.69 374.107 135.69 372.736C135.69 371.33 134.653 370.434 133.317 370.434ZM152.205 369.01V370.275H155.404V367.691H157.356V379.258H155.404V375.25H152.205V376.621H144.735V369.01H152.205ZM146.686 370.557V375.092H150.272V370.557H146.686ZM157.707 381.666V383.248H146.879V378.186H148.865V381.666H157.707ZM152.205 373.686H155.404V371.875H152.205V373.686ZM172.482 367.691V379.17H170.513V367.691H172.482ZM172.921 381.666V383.248H161.97V378.01H163.939V381.666H172.921ZM163.816 368.729C166.224 368.729 168.087 370.398 168.087 372.701C168.087 375.057 166.224 376.691 163.816 376.691C161.39 376.691 159.527 375.057 159.527 372.701C159.527 370.398 161.39 368.729 163.816 368.729ZM163.816 370.434C162.462 370.434 161.425 371.33 161.443 372.701C161.425 374.107 162.462 374.986 163.816 374.986C165.134 374.986 166.171 374.107 166.171 372.701C166.171 371.33 165.134 370.434 163.816 370.434ZM188.927 375.074V376.656H174.442V375.074H188.927ZM181.667 377.711C185.095 377.711 187.151 378.783 187.169 380.629C187.151 382.492 185.095 383.547 181.667 383.547C178.204 383.547 176.13 382.492 176.13 380.629C176.13 378.783 178.204 377.711 181.667 377.711ZM181.667 379.24C179.347 379.24 178.099 379.715 178.116 380.629C178.099 381.543 179.347 382.018 181.667 382.018C183.934 382.018 185.2 381.543 185.218 380.629C185.2 379.715 183.934 379.24 181.667 379.24ZM187.626 368.43V370.029H183.038C183.328 371.348 185.235 372.534 188.241 372.824L187.556 374.371C184.673 374.063 182.528 372.93 181.667 371.312C180.806 372.921 178.696 374.063 175.813 374.371L175.145 372.824C178.09 372.534 180.006 371.348 180.313 370.029H175.761V368.43H187.626ZM206.769 367.674V383.582H204.8V367.674H206.769ZM198.209 368.834C200.599 368.834 202.339 371.014 202.357 374.441C202.339 377.904 200.599 380.066 198.209 380.066C195.8 380.066 194.06 377.904 194.06 374.441C194.06 371.014 195.8 368.834 198.209 368.834ZM198.209 370.592C196.855 370.592 195.941 372.016 195.941 374.441C195.941 376.885 196.855 378.309 198.209 378.309C199.545 378.309 200.459 376.885 200.459 374.441C200.459 372.016 199.545 370.592 198.209 370.592ZM222.054 367.674V376.305H220.103V372.139H217.396V370.557H220.103V367.674H222.054ZM222.335 377.113V378.59H211.12V377.113H215.761V375.83H217.712V377.113H222.335ZM216.728 379.1C219.593 379.1 221.263 379.855 221.263 381.314C221.263 382.791 219.593 383.547 216.728 383.547C213.862 383.547 212.21 382.791 212.21 381.314C212.21 379.855 213.862 379.1 216.728 379.1ZM216.728 380.453C214.97 380.453 214.091 380.77 214.108 381.314C214.091 381.912 214.97 382.193 216.728 382.193C218.485 382.193 219.364 381.912 219.364 381.314C219.364 380.77 218.485 380.453 216.728 380.453ZM216.534 368.377V372.561H211.331V373.949C213.88 373.94 215.646 373.879 217.677 373.492L217.853 375.021C215.567 375.408 213.599 375.461 210.628 375.461H209.362V371.172H214.583V369.854H209.345V368.377H216.534ZM237.655 367.674V383.564H235.791V367.674H237.655ZM234.28 368.061V382.809H232.434V375.496H229.604C228.672 377.324 227.178 378.906 224.928 380.207L223.821 378.818C227.117 376.876 228.619 374.389 228.918 371.189H224.629V369.607H230.852C230.852 371.146 230.667 372.587 230.237 373.932H232.434V368.061H234.28ZM250.804 370.205V371.77H243.017V370.205H245.97V368.131H247.903V370.205H250.804ZM246.937 372.613C248.958 372.613 250.399 374.143 250.399 376.305C250.399 378.502 248.958 380.049 246.937 380.049C244.933 380.049 243.456 378.502 243.474 376.305C243.456 374.143 244.933 372.613 246.937 372.613ZM246.937 374.23C245.899 374.23 245.179 375.057 245.196 376.305C245.179 377.588 245.899 378.396 246.937 378.379C247.956 378.396 248.677 377.588 248.677 376.305C248.677 375.057 247.956 374.23 246.937 374.23ZM256.71 367.674V383.564H254.847V375.795H253.3V382.844H251.472V368.008H253.3V374.213H254.847V367.674H256.71ZM272.768 380.049V381.648H258.248V380.049H264.506V376.955H259.848V368.729H261.799V371.33H269.164V368.729H271.116V376.955H266.44V380.049H272.768ZM261.799 375.373H269.164V372.895H261.799V375.373ZM278.402 371.84C278.402 374.406 279.299 377.078 281.443 378.432L280.371 379.926C278.938 379.064 278.007 377.579 277.488 375.83C276.908 377.755 275.888 379.381 274.394 380.295L273.181 378.836C275.484 377.43 276.521 374.635 276.521 371.928V369.08H278.402V371.84ZM287.156 367.674V383.564H285.275V367.674H287.156ZM283.851 367.955V382.791H282.006V374.758H279.738V373.141H282.006V367.955H283.851ZM303.161 380.031V381.631H288.642V380.031H291.999V376.006C290.734 375.285 289.969 374.151 289.978 372.736C289.96 370.205 292.456 368.535 295.866 368.535C299.294 368.535 301.79 370.205 301.79 372.736C301.79 374.125 301.052 375.241 299.821 375.971V380.031H303.161ZM295.866 370.082C293.493 370.082 291.876 371.084 291.894 372.736C291.876 374.371 293.493 375.391 295.866 375.391C298.239 375.391 299.874 374.371 299.874 372.736C299.874 371.084 298.239 370.082 295.866 370.082ZM293.933 380.031H297.835V376.709C297.229 376.85 296.569 376.92 295.866 376.92C295.181 376.92 294.53 376.85 293.933 376.727V380.031Z" fill="#0077FA"/>
<rect x="20" y="428" width="360" height="160" rx="15" fill="#FDEAEF"/>
<mask id="mask1_916_852" style="mask-type:alpha" maskUnits="userSpaceOnUse" x="32" y="440" width="24" height="24">
<rect x="32" y="440" width="24" height="24" fill="#D9D9D9"/>
</mask>
<g mask="url(#mask1_916_852)">
<path d="M43 457H45V451H43V457ZM44 449C44.2833 449 44.5208 448.904 44.7125 448.713C44.9042 448.521 45 448.283 45 448C45 447.717 44.9042 447.479 44.7125 447.287C44.5208 447.096 44.2833 447 44 447C43.7167 447 43.4792 447.096 43.2875 447.287C43.0958 447.479 43 447.717 43 448C43 448.283 43.0958 448.521 43.2875 448.713C43.4792 448.904 43.7167 449 44 449ZM44 462C42.6167 462 41.3167 461.737 40.1 461.212C38.8833 460.688 37.825 459.975 36.925 459.075C36.025 458.175 35.3125 457.117 34.7875 455.9C34.2625 454.683 34 453.383 34 452C34 450.617 34.2625 449.317 34.7875 448.1C35.3125 446.883 36.025 445.825 36.925 444.925C37.825 444.025 38.8833 443.312 40.1 442.788C41.3167 442.262 42.6167 442 44 442C45.3833 442 46.6833 442.262 47.9 442.788C49.1167 443.312 50.175 444.025 51.075 444.925C51.975 445.825 52.6875 446.883 53.2125 448.1C53.7375 449.317 54 450.617 54 452C54 453.383 53.7375 454.683 53.2125 455.9C52.6875 457.117 51.975 458.175 51.075 459.075C50.175 459.975 49.1167 460.688 47.9 461.212C46.6833 461.737 45.3833 462 44 462ZM44 460C46.2333 460 48.125 459.225 49.675 457.675C51.225 456.125 52 454.233 52 452C52 449.767 51.225 447.875 49.675 446.325C48.125 444.775 46.2333 444 44 444C41.7667 444 39.875 444.775 38.325 446.325C36.775 447.875 36 449.767 36 452C36 454.233 36.775 456.125 38.325 457.675C39.875 459.225 41.7667 460 44 460Z" fill="#FF0000"/>
</g>
<path d="M70.0611 445.926C72.9185 445.926 74.5728 446.678 74.5864 448.059C74.5728 449.289 73.2398 450.021 70.895 450.15V450.875H75.7349V452.256H64.3872V450.875H69.1724V450.15C66.8482 450.007 65.522 449.275 65.522 448.059C65.522 446.678 67.19 445.926 70.0611 445.926ZM70.0611 447.211C68.229 447.211 67.3404 447.484 67.354 448.059C67.3404 448.66 68.229 448.906 70.0611 448.906C71.9068 448.906 72.7818 448.66 72.7818 448.059C72.7818 447.484 71.9068 447.211 70.0611 447.211ZM74.354 452.939V456.111H67.4224V456.863H74.6821V458.176H65.7134V454.895H72.6314V454.238H65.6997V452.939H74.354ZM86.0232 445.816V450.465H87.8553V451.928H86.0232V458.258H84.2732V445.816H86.0232ZM78.3396 446.801V449.836H80.9236V446.801H82.66V455.373H76.6033V446.801H78.3396ZM78.3396 453.965H80.9236V451.189H78.3396V453.965ZM99.4014 452.543V453.938H88.0128V452.543H99.4014ZM98.294 456.645V458.039H89.4483V454.621H91.1983V456.645H98.294ZM98.0206 446.104V449.535H91.171V450.424H98.253V451.736H89.4346V448.291H96.2706V447.443H89.4073V446.104H98.0206ZM109.957 446.678V447.949H107.537C107.673 448.599 108.617 449.139 110.244 449.289L109.67 450.547C108.207 450.369 107.188 449.856 106.662 449.139C106.115 449.897 105.076 450.444 103.586 450.643L103.011 449.398C104.673 449.221 105.616 448.626 105.759 447.949H103.326V446.678H105.787V445.775H107.509V446.678H109.957ZM107.509 450.178V451.135C108.487 451.087 109.458 451.012 110.367 450.902L110.49 452.078C107.92 452.488 105.103 452.516 102.943 452.516L102.765 451.217C103.674 451.217 104.714 451.217 105.787 451.189V450.178H107.509ZM112.746 453.117V456.193H106.074V456.891H113.156V458.176H104.324V455.018H110.996V454.375H104.31V453.117H112.746ZM112.746 445.816V448.469H114.332V449.891H112.746V452.652H110.996V445.816H112.746ZM118.085 446.486C119.076 446.486 119.944 446.849 120.546 447.457H123.362V445.816H125.099V453.104H123.362V451.613H120.532C119.931 452.215 119.069 452.577 118.085 452.57C116.198 452.584 114.763 451.285 114.776 449.535C114.763 447.758 116.198 446.486 118.085 446.486ZM118.085 447.977C117.114 447.977 116.417 448.551 116.431 449.535C116.417 450.492 117.114 451.107 118.085 451.094C119.028 451.107 119.712 450.492 119.712 449.535C119.712 448.551 119.028 447.977 118.085 447.977ZM120.847 453.363C123.485 453.363 125.126 454.266 125.14 455.811C125.126 457.355 123.485 458.258 120.847 458.258C118.222 458.258 116.567 457.355 116.567 455.811C116.567 454.266 118.222 453.363 120.847 453.363ZM120.847 454.689C119.192 454.689 118.276 455.059 118.276 455.811C118.276 456.535 119.192 456.904 120.847 456.904C122.528 456.904 123.431 456.535 123.431 455.811C123.431 455.059 122.528 454.689 120.847 454.689ZM121.298 448.838C121.339 449.057 121.366 449.296 121.366 449.535C121.366 449.774 121.339 450 121.298 450.219H123.362V448.838H121.298ZM132.229 453.432C134.813 453.432 136.426 454.32 136.426 455.838C136.426 457.383 134.813 458.271 132.229 458.271C129.59 458.271 127.963 457.383 127.963 455.838C127.963 454.32 129.59 453.432 132.229 453.432ZM132.229 454.785C130.588 454.785 129.699 455.127 129.713 455.838C129.699 456.549 130.588 456.918 132.229 456.918C133.842 456.918 134.703 456.549 134.703 455.838C134.703 455.127 133.842 454.785 132.229 454.785ZM136.303 445.816V448.701H137.985V450.164H136.303V453.158H134.553V445.816H136.303ZM128.537 446.596V448.168H131.08V446.596H132.83V452.447H126.801V446.596H128.537ZM128.537 451.066H131.08V449.521H128.537V451.066ZM140.535 446.445V448.045H142.982V446.445H144.705V448.66H147.001V445.816H148.738V452.625H147.001V450.082H144.705V452.27H138.785V446.445H140.535ZM140.535 450.875H142.982V449.385H140.535V450.875ZM142.162 453.145V454.293H147.001V453.145H148.738V458.094H140.439V453.145H142.162ZM142.162 456.699H147.001V455.633H142.162V456.699Z" fill="#111827"/>
<mask id="mask2_916_852" style="mask-type:alpha" maskUnits="userSpaceOnUse" x="32" y="474" width="20" height="20">
<rect x="32" y="474" width="20" height="20" fill="#D9D9D9"/>
</mask>
<g mask="url(#mask2_916_852)">
<path d="M40.1042 486.312L46.3333 480.083C46.4849 479.93 46.6616 479.854 46.8635 479.854C47.0656 479.854 47.2431 479.93 47.3958 480.083C47.5486 480.235 47.625 480.413 47.625 480.616C47.625 480.818 47.5513 480.993 47.404 481.14L40.6458 487.916C40.4943 488.069 40.3176 488.145 40.1156 488.145C39.9135 488.145 39.7361 488.069 39.5833 487.916L36.6042 484.937C36.4514 484.784 36.375 484.607 36.375 484.406C36.375 484.204 36.4514 484.027 36.6042 483.874C36.7569 483.722 36.9352 483.645 37.139 483.645C37.3426 483.645 37.5185 483.722 37.6667 483.874L40.1042 486.312Z" fill="#FF0000"/>
</g>
<path d="M67.3965 477.135V487.081H66.0049V485.821H63.3682V484.84H66.0049V477.135H67.3965ZM67.7188 488.839V489.967H58.2412V486.114H59.6182V488.839H67.7188ZM56.4248 483.126C58.8564 483.111 62.123 483.082 64.9209 482.73L65.0088 483.727C63.8882 483.91 62.709 484.034 61.5518 484.107V486.671H60.1602V484.181C58.8857 484.239 57.6626 484.247 56.6006 484.239L56.4248 483.126ZM60.7168 477.633C62.6357 477.633 63.9688 478.556 63.9688 479.947C63.9688 481.339 62.6357 482.232 60.7168 482.232C58.7686 482.232 57.4502 481.339 57.4502 479.947C57.4502 478.556 58.7686 477.633 60.7168 477.633ZM60.7168 478.673C59.5449 478.658 58.7539 479.156 58.7686 479.947C58.7539 480.724 59.5449 481.207 60.7168 481.207C61.8447 481.207 62.6357 480.724 62.6504 479.947C62.6357 479.156 61.8447 478.658 60.7168 478.673ZM76.5447 478.497V479.61H69.1619V478.497H72.2381V477.003H73.615V478.497H76.5447ZM72.9119 480.211C74.6844 480.211 75.9295 481.192 75.9441 482.657C75.9295 484.122 74.6844 485.089 72.9119 485.089C71.1248 485.089 69.8943 484.122 69.8943 482.657C69.8943 481.192 71.1248 480.211 72.9119 480.211ZM72.9119 481.266C71.8719 481.266 71.198 481.808 71.198 482.657C71.198 483.507 71.8719 484.034 72.9119 484.034C73.9373 484.034 74.6404 483.507 74.6551 482.657C74.6404 481.808 73.9373 481.266 72.9119 481.266ZM80.0896 477.12V485.572H78.698V483.888H76.574V482.76H78.698V481.31H76.5887V480.182H78.698V477.12H80.0896ZM75.7244 485.704C78.4783 485.704 80.1629 486.524 80.1629 487.96C80.1629 489.381 78.4783 490.23 75.7244 490.216C72.9559 490.23 71.2713 489.381 71.2713 487.96C71.2713 486.524 72.9559 485.704 75.7244 485.704ZM75.7244 486.773C73.8348 486.773 72.7215 487.184 72.7215 487.96C72.7215 488.722 73.8348 489.161 75.7244 489.146C77.5701 489.161 78.6834 488.722 78.6834 487.96C78.6834 487.184 77.5701 486.773 75.7244 486.773ZM95.4857 477.105V481.031H97.39V482.203H95.4857V486.759H94.0941V477.105H95.4857ZM96.0424 488.839V489.967H87.1654V485.748H88.557V488.839H96.0424ZM88.8646 478.014C90.8422 478.014 92.351 479.361 92.3656 481.28C92.351 483.185 90.8422 484.547 88.8646 484.547C86.8871 484.547 85.3637 483.185 85.3783 481.28C85.3637 479.361 86.8871 478.014 88.8646 478.014ZM88.8646 479.229C87.6635 479.229 86.726 480.064 86.7406 481.28C86.726 482.496 87.6635 483.331 88.8646 483.331C90.0805 483.331 91.0033 482.496 91.0033 481.28C91.0033 480.064 90.0805 479.229 88.8646 479.229ZM109.131 477.12V490.245H107.798V477.12H109.131ZM106.465 477.369V489.601H105.132V483.272H103.653C103.535 485.836 102.437 487.433 100.811 487.418C99.0969 487.433 97.9836 485.631 97.9836 482.789C97.9836 479.947 99.0969 478.16 100.811 478.175C102.407 478.16 103.491 479.676 103.653 482.145H105.132V477.369H106.465ZM100.811 479.479C99.8586 479.479 99.2727 480.694 99.2727 482.789C99.2727 484.884 99.8586 486.1 100.811 486.1C101.778 486.1 102.378 484.884 102.378 482.789C102.378 480.694 101.778 479.479 100.811 479.479ZM124.791 477.12V483.756H123.414V481.09H120.85C120.565 482.555 119.239 483.536 117.496 483.536C115.504 483.536 114.054 482.291 114.054 480.519C114.054 478.775 115.504 477.545 117.496 477.545C119.239 477.545 120.565 478.512 120.85 479.947H123.414V477.12H124.791ZM117.496 478.688C116.265 478.673 115.387 479.435 115.387 480.519C115.387 481.646 116.265 482.394 117.496 482.394C118.697 482.394 119.576 481.646 119.576 480.519C119.576 479.435 118.697 478.673 117.496 478.688ZM124.791 484.444V487.711H117.628V488.971H125.26V490.084H116.236V486.671H123.414V485.528H116.207V484.444H124.791ZM137.015 477.647V478.497C137.015 479.354 137.015 480.445 136.752 481.808H138.539V482.892H133.192V484.444H137.03V487.726H129.339V489H137.367V490.113H127.948V486.744H135.653V485.543H127.933V484.444H131.815V482.892H126.527V481.808H135.36C135.609 480.526 135.638 479.574 135.638 478.761H128.036V477.647H137.015ZM145.167 477.34C148.126 477.34 149.855 478.131 149.855 479.596C149.855 481.061 148.126 481.866 145.167 481.866C142.208 481.866 140.48 481.061 140.48 479.596C140.48 478.131 142.208 477.34 145.167 477.34ZM145.167 478.365C143.073 478.365 141.915 478.819 141.93 479.596C141.915 480.401 143.073 480.826 145.167 480.826C147.262 480.826 148.419 480.401 148.419 479.596C148.419 478.819 147.262 478.365 145.167 478.365ZM151.159 482.672V483.785H139.191V482.672H151.159ZM149.65 484.796V487.872H142.003V489.044H150.016V490.113H140.641V486.861H148.273V485.836H140.626V484.796H149.65ZM161.867 477.999V483.653H155.729V477.999H161.867ZM157.092 479.112V482.54H160.505V479.112H157.092ZM165.529 477.12V480.167H167.434V481.324H165.529V484.562H164.138V477.12H165.529ZM165.734 485.294V486.407H162.146C162.336 487.652 164.042 488.802 166.276 489.132L165.764 490.201C163.771 489.894 162.131 488.978 161.369 487.726C160.622 488.985 158.989 489.894 157.004 490.187L156.491 489.117C158.74 488.802 160.41 487.689 160.637 486.407H157.019V485.294H165.734ZM179.848 485.03V486.173H174.546V490.26H173.169V486.173H167.881V485.03H179.848ZM178.706 478.702V479.83H174.56C174.641 481.28 176.618 482.694 179.116 483.009L178.618 484.122C176.509 483.829 174.714 482.84 173.872 481.5C173.015 482.855 171.206 483.829 169.096 484.122L168.584 483.009C171.081 482.694 173.074 481.31 173.169 479.83H169.009V478.702H173.169V477.12H174.546V478.702H178.706ZM191.165 478.38V479.669C191.165 481.295 191.165 483.111 190.667 485.792L189.26 485.646C189.773 483.111 189.773 481.251 189.773 479.669V479.508H181.804V478.38H191.165ZM192.512 487.315V488.473H180.545V487.315H185.1V482.687H186.477V487.315H192.512ZM207.513 477.12V484.928H206.121V481.603H203.675V480.46H206.121V477.12H207.513ZM203.118 485.294C205.872 485.294 207.557 486.202 207.557 487.77C207.557 489.337 205.872 490.23 203.118 490.245C200.364 490.23 198.665 489.337 198.68 487.77C198.665 486.202 200.364 485.294 203.118 485.294ZM203.118 486.378C201.199 486.378 200.057 486.876 200.057 487.77C200.057 488.648 201.199 489.161 203.118 489.146C205.037 489.161 206.18 488.648 206.18 487.77C206.18 486.876 205.037 486.378 203.118 486.378ZM201.273 479.435C201.273 481.104 202.459 482.716 204.437 483.39L203.719 484.488C202.247 483.976 201.163 482.928 200.599 481.632C200.02 483.104 198.87 484.283 197.303 484.854L196.571 483.741C198.607 483.038 199.852 481.266 199.852 479.449V479.156H197.01V478.028H204.085V479.156H201.273V479.435ZM215.929 478.233V479.347H218.785V477.135H220.177V486.7H218.785V483.302H215.929V484.444H209.835V478.233H215.929ZM211.212 479.361V483.346H214.566V479.361H211.212ZM220.47 488.839V489.967H211.607V485.821H213.014V488.839H220.47ZM215.929 482.159H218.785V480.489H215.929V482.159ZM227.875 477.34C230.834 477.34 232.562 478.131 232.562 479.596C232.562 481.061 230.834 481.866 227.875 481.866C224.916 481.866 223.187 481.061 223.187 479.596C223.187 478.131 224.916 477.34 227.875 477.34ZM227.875 478.365C225.78 478.365 224.623 478.819 224.637 479.596C224.623 480.401 225.78 480.826 227.875 480.826C229.97 480.826 231.127 480.401 231.127 479.596C231.127 478.819 229.97 478.365 227.875 478.365ZM233.866 482.672V483.785H221.898V482.672H233.866ZM232.357 484.796V487.872H224.711V489.044H232.723V490.113H223.348V486.861H230.98V485.836H223.334V484.796H232.357ZM248.149 477.12V482.203H250.258V483.375H248.149V490.245H246.757V477.12H248.149ZM239.799 478.219V481.588H243.271V478.219H244.648V487.125H238.422V478.219H239.799ZM239.799 485.982H243.271V482.687H239.799V485.982ZM260.813 477.12V482.247H262.922V483.419H260.813V490.274H259.436V477.12H260.813ZM257.107 478.307V483.126H252.507V485.968C254.763 485.96 256.433 485.88 258.352 485.528L258.484 486.656C256.433 487.037 254.66 487.125 252.199 487.14H251.13V481.998H255.73V479.435H251.101V478.307H257.107ZM265.332 478.189V480.079H269.17V478.189H270.547V484.137H267.939V486.378C269.089 486.327 270.239 486.239 271.309 486.1L271.411 487.125C268.643 487.579 265.581 487.623 263.311 487.623L263.091 486.466C264.124 486.458 265.325 486.458 266.562 486.422V484.137H263.94V478.189H265.332ZM265.332 483.023H269.17V481.134H265.332V483.023ZM273.491 477.12V482.54H275.513V483.712H273.491V490.245H272.1V477.12H273.491ZM291.246 484.518V485.646H285.914V490.23H284.551V485.646H279.278V484.518H291.246ZM290.118 477.896V479.01H286.06C286.082 480.636 288.104 482.086 290.587 482.423L290.074 483.521C287.921 483.185 286.06 482.123 285.269 480.621C284.456 482.123 282.603 483.185 280.479 483.521L279.952 482.423C282.405 482.086 284.427 480.636 284.478 479.01H280.391V477.896H290.118ZM295.941 480.709C295.941 482.804 296.82 485.045 298.578 486.114L297.801 487.184C296.571 486.444 295.736 485.133 295.296 483.609C294.806 485.279 293.905 486.7 292.63 487.477L291.766 486.437C293.626 485.323 294.593 483.009 294.593 480.768V478.321H295.941V480.709ZM303.236 477.12V490.245H301.903V477.12H303.236ZM300.511 477.369V489.601H299.193V482.892H297.157V481.734H299.193V477.369H300.511ZM316.617 487.447V488.604H304.606V487.447H307.477V484.02C306.4 483.426 305.748 482.481 305.748 481.31C305.748 479.244 307.77 477.882 310.582 477.882C313.409 477.882 315.431 479.244 315.431 481.31C315.431 482.467 314.801 483.397 313.746 483.99V487.447H316.617ZM310.582 478.995C308.517 478.995 307.096 479.889 307.096 481.31C307.096 482.716 308.517 483.639 310.582 483.639C312.633 483.639 314.083 482.716 314.083 481.31C314.083 479.889 312.633 478.995 310.582 478.995ZM308.854 487.447H312.34V484.518C311.805 484.657 311.212 484.723 310.582 484.723C309.967 484.723 309.381 484.657 308.854 484.532V487.447ZM318.764 489.103C318.192 489.103 317.709 488.634 317.724 488.062C317.709 487.491 318.192 487.022 318.764 487.022C319.32 487.022 319.804 487.491 319.804 488.062C319.804 488.634 319.32 489.103 318.764 489.103Z" fill="#6B7280"/>
<mask id="mask3_916_852" style="mask-type:alpha" maskUnits="userSpaceOnUse" x="32" y="497" width="20" height="20">
<rect x="32" y="497" width="20" height="20" fill="#D9D9D9"/>
</mask>
<g mask="url(#mask3_916_852)">
<path d="M40.1042 509.312L46.3333 503.083C46.4849 502.93 46.6616 502.854 46.8635 502.854C47.0656 502.854 47.2431 502.93 47.3958 503.083C47.5486 503.235 47.625 503.413 47.625 503.616C47.625 503.818 47.5513 503.993 47.404 504.14L40.6458 510.916C40.4943 511.069 40.3176 511.145 40.1156 511.145C39.9135 511.145 39.7361 511.069 39.5833 510.916L36.6042 507.937C36.4514 507.784 36.375 507.607 36.375 507.406C36.375 507.204 36.4514 507.027 36.6042 506.874C36.7569 506.722 36.9352 506.645 37.139 506.645C37.3426 506.645 37.5185 506.722 37.6667 506.874L40.1042 509.312Z" fill="#FF0000"/>
</g>
<path d="M67.4404 500.12V513.274H66.0488V505.496H62.1377V504.354H66.0488V500.12H67.4404ZM58.5928 501.57V508.953C60.4678 508.924 62.2402 508.814 64.1445 508.426L64.3203 509.568C62.2109 510.008 60.3066 510.11 58.2412 510.11H57.1865V501.57H58.5928ZM81.1443 507.649V508.777H75.783V513.23H74.4207V508.777H69.1326V507.649H81.1443ZM79.6355 500.823V505.979H70.6414V500.823H79.6355ZM72.0037 501.937V504.896H78.2439V501.937H72.0037ZM87.0482 500.75V502.581H90.4906V500.75H91.8676V506.551H85.6859V500.75H87.0482ZM87.0482 505.452H90.4906V503.636H87.0482V505.452ZM95.4857 500.12V502.918H97.39V504.09H95.4857V507.107H94.0941V500.12H95.4857ZM90.7982 507.767V510.887H87.8393V512.044C89.663 512.037 90.5785 512.007 91.6625 511.766L91.809 512.806C90.5639 513.069 89.5678 513.099 87.2973 513.099H86.4916V509.876H89.4652V508.836H86.4623V507.767H90.7982ZM95.4857 507.767V513.187H94.1088V508.88H91.3695V507.767H95.4857ZM108.765 500.12V513.245H107.388V506.463H104.444V505.32H107.388V500.12H108.765ZM104.487 501.526C104.473 505.335 102.993 508.602 98.5402 510.813L97.8078 509.715C101.287 508.016 102.832 505.65 103.081 502.64H98.3937V501.526H104.487ZM122.762 505.276V506.419H120.726V513.23H119.334V500.12H120.726V505.276H122.762ZM112.376 501.395V508.777C114.207 508.777 116.119 508.624 118.206 508.191L118.367 509.363C116.126 509.817 114.046 509.935 112.083 509.935H110.999V501.395H112.376ZM130.087 501.102C131.866 501.102 133.17 502.61 133.382 505.042H136.092V500.12H137.469V513.274H136.092V506.17H133.397C133.243 508.726 131.91 510.315 130.087 510.315C128.124 510.315 126.747 508.528 126.761 505.701C126.747 502.889 128.124 501.102 130.087 501.102ZM130.087 502.347C128.9 502.347 128.08 503.636 128.08 505.701C128.08 507.781 128.9 509.07 130.087 509.07C131.273 509.07 132.093 507.781 132.093 505.701C132.093 503.636 131.273 502.347 130.087 502.347ZM151.173 505.95V507.063H145.871V508.836H144.479V507.063H139.191V505.95H151.173ZM149.826 503.694V504.822H140.685V500.574H149.694V501.717H142.077V503.694H149.826ZM142.091 508.06V509.48H148.258V508.06H149.65V513.084H140.714V508.06H142.091ZM142.091 511.941H148.258V510.55H142.091V511.941ZM156.689 503.987C156.689 506.185 158.124 508.455 160.146 509.319L159.384 510.403C157.839 509.722 156.608 508.279 156 506.521C155.392 508.396 154.154 509.993 152.631 510.74L151.825 509.642C153.803 508.719 155.268 506.243 155.282 503.987V502.596H152.279V501.438H159.677V502.596H156.689V503.987ZM162.724 500.12V513.245H161.332V500.12H162.724ZM171.528 500.823C173.52 500.823 174.971 502.098 174.971 503.87C174.971 505.657 173.52 506.917 171.528 506.917C169.551 506.917 168.071 505.657 168.086 503.87C168.071 502.098 169.551 500.823 171.528 500.823ZM171.528 501.98C170.342 501.98 169.433 502.757 169.433 503.87C169.433 504.983 170.342 505.774 171.528 505.774C172.729 505.774 173.623 504.983 173.623 503.87C173.623 502.757 172.729 501.98 171.528 501.98ZM178.193 500.12V502.991H180.097V504.148H178.193V506.653H176.802V500.12H178.193ZM170.561 508.016V511.751C171.33 511.714 172.217 511.604 173.052 511.326L173.257 512.425C172.041 512.835 170.854 512.894 169.873 512.894H169.199V508.016H170.561ZM179.424 508.06V509.129H172.803V508.06H175.454V506.99H176.816V508.06H179.424ZM176.113 509.51C177.563 509.51 178.589 510.242 178.589 511.385C178.589 512.513 177.563 513.23 176.113 513.216C174.634 513.23 173.623 512.513 173.637 511.385C173.623 510.242 174.634 509.51 176.113 509.51ZM176.113 510.506C175.381 510.506 174.868 510.843 174.868 511.385C174.868 511.912 175.381 512.249 176.113 512.249C176.831 512.249 177.344 511.912 177.344 511.385C177.344 510.843 176.831 510.506 176.113 510.506ZM192.512 506.976V508.089H180.545V506.976H192.512ZM191.165 511.839V512.967H182.053V509.158H183.46V511.839H191.165ZM186.521 500.56C189.363 500.545 191.209 501.541 191.209 503.182C191.209 504.837 189.363 505.833 186.521 505.848C183.665 505.833 181.834 504.837 181.834 503.182C181.834 501.541 183.665 500.545 186.521 500.56ZM186.521 501.673C184.514 501.673 183.254 502.244 183.269 503.182C183.254 504.148 184.514 504.705 186.521 504.705C188.528 504.705 189.773 504.148 189.773 503.182C189.773 502.244 188.528 501.673 186.521 501.673ZM202.488 508.367C205.33 508.367 207.117 509.261 207.132 510.799C207.117 512.322 205.33 513.23 202.488 513.216C199.676 513.23 197.874 512.322 197.874 510.799C197.874 509.261 199.676 508.367 202.488 508.367ZM202.488 509.422C200.496 509.422 199.251 509.935 199.266 510.799C199.251 511.648 200.496 512.146 202.488 512.146C204.495 512.146 205.74 511.648 205.755 510.799C205.74 509.935 204.495 509.422 202.488 509.422ZM207.029 500.765V501.863C207.029 502.918 207.029 504.002 206.663 505.35L205.301 505.203C205.653 503.863 205.653 502.896 205.653 501.878H197.977V500.765H207.029ZM208.524 506.155V507.283H196.585V506.155H201.375V503.694H202.738V506.155H208.524ZM219.547 500.12V504.002H221.451V505.159H219.547V509.656H218.141V500.12H219.547ZM215.987 501.116C215.987 504.559 213.644 507.063 209.806 508.221L209.22 507.107C212.289 506.185 214.2 504.441 214.479 502.273H209.776V501.116H215.987ZM220.089 511.839V512.967H211.212V508.675H212.618V511.839H220.089ZM233.192 500.12V513.245H231.859V500.12H233.192ZM230.526 500.369V512.601H229.193V506.272H227.714C227.596 508.836 226.498 510.433 224.872 510.418C223.158 510.433 222.045 508.631 222.045 505.789C222.045 502.947 223.158 501.16 224.872 501.175C226.469 501.16 227.553 502.676 227.714 505.145H229.193V500.369H230.526ZM224.872 502.479C223.92 502.479 223.334 503.694 223.334 505.789C223.334 507.884 223.92 509.1 224.872 509.1C225.839 509.1 226.439 507.884 226.439 505.789C226.439 503.694 225.839 502.479 224.872 502.479ZM239.294 503.46C239.294 505.862 240.641 508.25 242.648 509.158L241.798 510.271C240.304 509.524 239.184 508.038 238.605 506.243C238.026 508.133 236.877 509.729 235.368 510.521L234.489 509.393C236.525 508.426 237.887 505.892 237.887 503.46V501.219H239.294V503.46ZM245.504 500.12V513.274H244.128V505.613H241.198V504.485H244.128V500.12H245.504ZM258.191 501.175V502.2H255.378C255.444 503.145 256.696 503.921 258.484 504.163L258.015 505.174C256.447 504.939 255.276 504.302 254.719 503.416C254.148 504.354 252.954 505.035 251.364 505.291L250.896 504.295C252.697 504.024 253.943 503.196 254.016 502.2H251.203V501.175H254.016V500.076H255.378V501.175H258.191ZM255.378 504.734V505.994C256.528 505.943 257.678 505.855 258.747 505.716L258.85 506.683C256.096 507.137 253.034 507.166 250.72 507.166L250.573 506.097C251.599 506.097 252.785 506.089 254.016 506.053V504.734H255.378ZM260.915 508.045V511.004H253.664V512.059H261.399V513.113H252.273V510.037H259.538V509.07H252.243V508.045H260.915ZM260.915 500.12V503.167H262.79V504.295H260.915V507.503H259.524V500.12H260.915ZM266.885 500.882C267.976 500.875 268.906 501.285 269.521 501.966H272.803V500.12H274.194V507.869H272.803V506.097H269.507C268.899 506.771 267.969 507.173 266.885 507.166C264.907 507.181 263.442 505.862 263.442 504.031C263.442 502.186 264.907 500.867 266.885 500.882ZM266.885 502.083C265.654 502.068 264.775 502.859 264.775 504.031C264.775 505.174 265.654 505.994 266.885 505.979C268.086 505.994 268.965 505.174 268.965 504.031C268.965 502.859 268.086 502.068 266.885 502.083ZM269.8 508.162C272.524 508.162 274.238 509.085 274.238 510.696C274.238 512.293 272.524 513.23 269.8 513.216C267.061 513.23 265.347 512.293 265.361 510.696C265.347 509.085 267.061 508.162 269.8 508.162ZM269.8 509.231C267.881 509.231 266.709 509.759 266.724 510.696C266.709 511.604 267.881 512.117 269.8 512.117C271.733 512.117 272.876 511.604 272.876 510.696C272.876 509.759 271.733 509.231 269.8 509.231ZM270.151 503.079C270.247 503.372 270.298 503.694 270.298 504.031C270.298 504.354 270.247 504.668 270.166 504.954H272.803V503.079H270.151ZM281.892 500.34C284.851 500.34 286.58 501.131 286.58 502.596C286.58 504.061 284.851 504.866 281.892 504.866C278.933 504.866 277.205 504.061 277.205 502.596C277.205 501.131 278.933 500.34 281.892 500.34ZM281.892 501.365C279.798 501.365 278.64 501.819 278.655 502.596C278.64 503.401 279.798 503.826 281.892 503.826C283.987 503.826 285.144 503.401 285.144 502.596C285.144 501.819 283.987 501.365 281.892 501.365ZM287.884 505.672V506.785H275.916V505.672H287.884ZM286.375 507.796V510.872H278.728V512.044H286.741V513.113H277.366V509.861H284.998V508.836H277.351V507.796H286.375ZM296.805 502.859C296.805 504.559 298.065 506.155 300.086 506.8L299.369 507.884C297.86 507.386 296.717 506.353 296.131 505.042C295.538 506.47 294.373 507.598 292.806 508.147L292.088 507.049C294.124 506.36 295.384 504.661 295.399 502.859V502.288H292.454V501.16H299.691V502.288H296.805V502.859ZM302.826 500.135V509.715H301.434V500.135H302.826ZM303.221 511.839V512.967H294.242V508.807H295.648V511.839H303.221ZM315.797 500.12V508.396H314.479V504.734H312.955V507.942H311.652V500.369H312.955V503.592H314.479V500.12H315.797ZM311.168 501.614V502.713H304.532V501.614H307.184V500.223H308.561V501.614H311.168ZM307.858 503.328C309.528 503.328 310.699 504.222 310.699 505.584C310.699 506.946 309.528 507.84 307.858 507.84C306.217 507.84 305.045 506.946 305.045 505.584C305.045 504.222 306.217 503.328 307.858 503.328ZM307.858 504.354C306.935 504.354 306.29 504.837 306.29 505.584C306.29 506.331 306.935 506.829 307.858 506.829C308.81 506.829 309.44 506.331 309.44 505.584C309.44 504.837 308.81 504.354 307.858 504.354ZM311.403 508.587C314.186 508.587 315.856 509.422 315.87 510.916C315.856 512.381 314.186 513.23 311.403 513.216C308.619 513.23 306.949 512.381 306.964 510.916C306.949 509.422 308.619 508.587 311.403 508.587ZM311.403 509.656C309.454 509.656 308.326 510.096 308.341 510.916C308.326 511.707 309.454 512.161 311.403 512.146C313.365 512.161 314.464 511.707 314.479 510.916C314.464 510.096 313.365 509.656 311.403 509.656ZM323.759 502.288V503.416H317.24V502.288H319.818V500.501H321.195V502.288H323.759ZM320.507 504.207C322.177 504.207 323.349 505.452 323.363 507.225C323.349 509.012 322.177 510.271 320.507 510.271C318.866 510.271 317.65 509.012 317.665 507.225C317.65 505.452 318.866 504.207 320.507 504.207ZM320.507 505.364C319.555 505.364 318.896 506.141 318.896 507.225C318.896 508.338 319.555 509.085 320.507 509.085C321.444 509.085 322.133 508.338 322.133 507.225C322.133 506.141 321.444 505.364 320.507 505.364ZM328.505 500.12V513.245H327.187V506.727H325.678V512.63H324.359V500.413H325.678V505.584H327.187V500.12H328.505ZM68.4512 526.518V527.646H63.1191V532.23H61.7568V527.646H56.4834V526.518H68.4512ZM67.3232 519.896V521.01H63.2656C63.2876 522.636 65.3091 524.086 67.792 524.423L67.2793 525.521C65.126 525.185 63.2656 524.123 62.4746 522.621C61.6616 524.123 59.8086 525.185 57.6846 525.521L57.1572 524.423C59.6108 524.086 61.6323 522.636 61.6836 521.01H57.5967V519.896H67.3232ZM73.1463 522.709C73.1463 524.804 74.0252 527.045 75.783 528.114L75.0066 529.184C73.7762 528.444 72.9412 527.133 72.5018 525.609C72.011 527.279 71.1102 528.7 69.8357 529.477L68.9715 528.437C70.8318 527.323 71.7986 525.009 71.7986 522.768V520.321H73.1463V522.709ZM80.4412 519.12V532.245H79.1082V519.12H80.4412ZM77.7166 519.369V531.601H76.3982V524.892H74.3621V523.734H76.3982V519.369H77.7166ZM93.8229 529.447V530.604H81.8111V529.447H84.6822V526.02C83.6056 525.426 82.9537 524.481 82.9537 523.31C82.9537 521.244 84.9752 519.882 87.7877 519.882C90.6148 519.882 92.6363 521.244 92.6363 523.31C92.6363 524.467 92.0064 525.397 90.9518 525.99V529.447H93.8229ZM87.7877 520.995C85.7223 520.995 84.3014 521.889 84.3014 523.31C84.3014 524.716 85.7223 525.639 87.7877 525.639C89.8385 525.639 91.2887 524.716 91.2887 523.31C91.2887 521.889 89.8385 520.995 87.7877 520.995ZM86.0592 529.447H89.5455V526.518C89.0108 526.657 88.4176 526.723 87.7877 526.723C87.1725 526.723 86.5865 526.657 86.0592 526.532V529.447ZM95.9691 531.103C95.3979 531.103 94.9145 530.634 94.9291 530.062C94.9145 529.491 95.3979 529.022 95.9691 529.022C96.5258 529.022 97.0092 529.491 97.0092 530.062C97.0092 530.634 96.5258 531.103 95.9691 531.103Z" fill="#6B7280"/>
<mask id="mask4_916_852" style="mask-type:alpha" maskUnits="userSpaceOnUse" x="32" y="538" width="20" height="20">
<rect x="32" y="538" width="20" height="20" fill="#D9D9D9"/>
</mask>
<g mask="url(#mask4_916_852)">
<path d="M40.1042 550.312L46.3333 544.083C46.4849 543.93 46.6616 543.854 46.8635 543.854C47.0656 543.854 47.2431 543.93 47.3958 544.083C47.5486 544.235 47.625 544.413 47.625 544.616C47.625 544.818 47.5513 544.993 47.404 545.14L40.6458 551.916C40.4943 552.069 40.3176 552.145 40.1156 552.145C39.9135 552.145 39.7361 552.069 39.5833 551.916L36.6042 548.937C36.4514 548.784 36.375 548.607 36.375 548.406C36.375 548.204 36.4514 548.027 36.6042 547.874C36.7569 547.722 36.9352 547.645 37.139 547.645C37.3426 547.645 37.5185 547.722 37.6667 547.874L40.1042 550.312Z" fill="#FF0000"/>
</g>
<path d="M63.1191 542.424V550.949H56.9814V542.424H63.1191ZM58.3438 543.522V549.821H61.7422V543.522H58.3438ZM66.708 541.12V546.262H68.8174V547.434H66.708V554.245H65.3164V541.12H66.708ZM75.8123 542.98C75.8123 545.119 78.0975 547.141 80.617 547.595L79.9725 548.752C77.8777 548.298 75.9441 546.921 75.0945 545.075C74.2303 546.906 72.304 548.283 70.202 548.752L69.5867 547.595C72.077 547.126 74.3475 545.119 74.3475 542.98V541.984H75.8123V542.98ZM81.159 551.359V552.517H69.1473V551.359H81.159ZM92.3727 542.395V543.991C92.3727 545.91 92.3727 547.712 91.8014 550.437L90.4244 550.305C90.7027 549.104 90.8492 548.049 90.9225 547.067L83.0416 547.492L82.8658 546.35L90.9957 546.042C91.0177 545.339 91.0177 544.665 91.025 543.991V543.537H83.232V542.395H92.3727ZM93.7789 551.345V552.487H81.8111V551.345H93.7789ZM96.8334 551.989L95.6615 556.032H94.4164L95.1928 551.989H96.8334ZM106.004 543.522C106.004 545.295 107.19 547.023 109.168 547.712L108.406 548.796C106.971 548.247 105.901 547.163 105.345 545.793C104.773 547.316 103.653 548.518 102.107 549.104L101.36 548.005C103.396 547.272 104.612 545.456 104.627 543.479V541.926H106.004V543.522ZM112.317 541.135V550.92H110.926V545.266H108.157V544.123H110.926V541.135H112.317ZM112.61 552.839V553.967H103.748V549.821H105.154V552.839H112.61ZM124.527 541.677V542.541C124.527 543.413 124.527 544.511 124.249 545.939H126.051V547.053H114.039V545.939H122.857C123.121 544.606 123.15 543.603 123.15 542.79H115.548V541.677H124.527ZM124.542 548.225V551.667H116.851V553H124.879V554.113H115.46V550.598H123.165V549.338H115.445V548.225H124.542ZM136.927 541.12V546.247H139.037V547.419H136.927V554.274H135.55V541.12H136.927ZM133.221 542.307V547.126H128.622V549.968C130.878 549.96 132.547 549.88 134.466 549.528L134.598 550.656C132.547 551.037 130.775 551.125 128.314 551.14H127.245V545.998H131.844V543.435H127.215V542.307H133.221ZM146.032 542.98C146.032 545.119 148.317 547.141 150.836 547.595L150.192 548.752C148.097 548.298 146.163 546.921 145.314 545.075C144.45 546.906 142.523 548.283 140.421 548.752L139.806 547.595C142.296 547.126 144.567 545.119 144.567 542.98V541.984H146.032V542.98ZM151.378 551.359V552.517H139.367V551.359H151.378ZM155.971 541.955C157.992 541.955 159.501 543.229 159.501 545.075C159.501 546.701 158.329 547.88 156.674 548.137V550.217C157.839 550.166 159.003 550.078 160.087 549.938L160.19 550.979C157.421 551.462 154.36 551.477 152.089 551.462L151.869 550.319C152.887 550.312 154.059 550.305 155.282 550.275V548.137C153.583 547.895 152.426 546.708 152.441 545.075C152.426 543.229 153.905 541.955 155.971 541.955ZM155.971 543.127C154.711 543.142 153.788 543.903 153.788 545.075C153.788 546.247 154.711 547.023 155.971 547.009C157.216 547.023 158.124 546.247 158.139 545.075C158.124 543.903 157.216 543.142 155.971 543.127ZM162.27 541.12V546.452H164.291V547.624H162.27V554.245H160.878V541.12H162.27ZM178.369 541.12V544.079H180.273V545.207H178.369V548.093H176.977V541.12H178.369ZM174.824 542.028C174.824 545.383 172.554 547.507 168.657 548.342L168.071 547.214C171.382 546.547 173.096 545.002 173.286 543.142H168.657V542.028H174.824ZM178.428 548.649V549.704H171.338V550.832H178.281V551.843H171.338V553.029H178.721V554.084H169.946V548.649H178.428ZM191.589 541.12V554.274H190.198V541.12H191.589ZM184.573 542.102C186.521 542.102 187.957 543.889 187.957 546.701C187.957 549.528 186.521 551.315 184.573 551.315C182.595 551.315 181.174 549.528 181.174 546.701C181.174 543.889 182.595 542.102 184.573 542.102ZM184.573 543.347C183.357 543.347 182.522 544.636 182.522 546.701C182.522 548.781 183.357 550.07 184.573 550.07C185.774 550.07 186.609 548.781 186.609 546.701C186.609 544.636 185.774 543.347 184.573 543.347ZM207.674 541.12V547.756H206.297V545.09H203.734C203.448 546.555 202.122 547.536 200.379 547.536C198.387 547.536 196.937 546.291 196.937 544.519C196.937 542.775 198.387 541.545 200.379 541.545C202.122 541.545 203.448 542.512 203.734 543.947H206.297V541.12H207.674ZM200.379 542.688C199.149 542.673 198.27 543.435 198.27 544.519C198.27 545.646 199.149 546.394 200.379 546.394C201.58 546.394 202.459 545.646 202.459 544.519C202.459 543.435 201.58 542.673 200.379 542.688ZM207.674 548.444V551.711H200.511V552.971H208.143V554.084H199.119V550.671H206.297V549.528H199.09V548.444H207.674ZM219.898 541.647V542.497C219.898 543.354 219.898 544.445 219.635 545.808H221.422V546.892H216.075V548.444H219.913V551.726H212.223V553H220.25V554.113H210.831V550.744H218.536V549.543H210.816V548.444H214.698V546.892H209.41V545.808H218.243C218.492 544.526 218.521 543.574 218.521 542.761H210.919V541.647H219.898ZM228.051 541.34C231.01 541.34 232.738 542.131 232.738 543.596C232.738 545.061 231.01 545.866 228.051 545.866C225.092 545.866 223.363 545.061 223.363 543.596C223.363 542.131 225.092 541.34 228.051 541.34ZM228.051 542.365C225.956 542.365 224.799 542.819 224.813 543.596C224.799 544.401 225.956 544.826 228.051 544.826C230.145 544.826 231.303 544.401 231.303 543.596C231.303 542.819 230.145 542.365 228.051 542.365ZM234.042 546.672V547.785H222.074V546.672H234.042ZM232.533 548.796V551.872H224.887V553.044H232.899V554.113H223.524V550.861H231.156V549.836H223.51V548.796H232.533ZM248.325 541.12V546.35H250.361V547.507H248.325V554.23H246.933V541.12H248.325ZM244.897 542.497C244.882 546.291 243.212 549.675 238.891 551.813L238.115 550.729C241.403 549.089 243.19 546.716 243.476 543.654H238.774V542.497H244.897ZM261.662 541.12V554.274H260.271V541.12H261.662ZM257.649 542.307V547.097H252.932V549.968C255.056 549.96 256.916 549.865 259.113 549.499L259.245 550.642C256.916 551.037 254.939 551.125 252.624 551.125H251.511V545.983H256.228V543.435H251.496V542.307H257.649ZM274.048 544.958V546.071H265.01V541.589H266.387V544.958H274.048ZM275.425 547.727V548.84H263.413V547.727H275.425ZM274.136 552.795V553.938H264.907V550.085H266.299V552.795H274.136ZM285.533 549.294C288.243 549.294 289.883 550.202 289.883 551.755C289.883 553.322 288.243 554.23 285.533 554.245C282.794 554.23 281.124 553.322 281.124 551.755C281.124 550.202 282.794 549.294 285.533 549.294ZM285.533 550.393C283.629 550.393 282.501 550.876 282.515 551.755C282.501 552.634 283.629 553.132 285.533 553.132C287.422 553.132 288.521 552.634 288.521 551.755C288.521 550.876 287.422 550.393 285.533 550.393ZM289.766 541.12V544.328H291.671V545.515H289.766V548.957H288.375V541.12H289.766ZM281.329 541.94V543.83H284.771V541.94H286.148V548.034H279.966V541.94H281.329ZM281.329 546.921H284.771V544.929H281.329V546.921ZM298.607 543.288V544.416H292.088V543.288H294.666V541.501H296.043V543.288H298.607ZM295.355 545.207C297.025 545.207 298.197 546.452 298.211 548.225C298.197 550.012 297.025 551.271 295.355 551.271C293.714 551.271 292.498 550.012 292.513 548.225C292.498 546.452 293.714 545.207 295.355 545.207ZM295.355 546.364C294.403 546.364 293.744 547.141 293.744 548.225C293.744 549.338 294.403 550.085 295.355 550.085C296.292 550.085 296.981 549.338 296.981 548.225C296.981 547.141 296.292 546.364 295.355 546.364ZM303.353 541.12V554.245H302.035V547.727H300.526V553.63H299.207V541.413H300.526V546.584H302.035V541.12H303.353ZM316.749 546.555V547.668H311.446V548.811H315.24V551.887H307.594V553.044H315.607V554.113H306.232V550.876H313.863V549.88H306.217V548.811H310.055V547.668H304.781V546.555H316.749ZM315.211 541.545V545.588H306.32V541.545H315.211ZM307.682 542.644V544.489H313.82V542.644H307.682ZM329.413 547.976V549.089H317.445V547.976H329.413ZM328.065 552.839V553.967H318.954V550.158H320.36V552.839H328.065ZM323.422 541.56C326.264 541.545 328.109 542.541 328.109 544.182C328.109 545.837 326.264 546.833 323.422 546.848C320.565 546.833 318.734 545.837 318.734 544.182C318.734 542.541 320.565 541.545 323.422 541.56ZM323.422 542.673C321.415 542.673 320.155 543.244 320.17 544.182C320.155 545.148 321.415 545.705 323.422 545.705C325.429 545.705 326.674 545.148 326.674 544.182C326.674 543.244 325.429 542.673 323.422 542.673ZM67.748 560.12V573.245H66.415V560.12H67.748ZM65.082 560.398V572.586H63.7637V565.906H61.7275V564.764H63.7637V560.398H65.082ZM60.4385 563.782C60.4385 566.023 61.3467 568.265 63.1924 569.334L62.3574 570.359C61.105 569.612 60.2407 568.287 59.7939 566.697C59.3179 568.411 58.4243 569.869 57.1426 570.667L56.293 569.627C58.1533 568.499 59.1055 566.111 59.1055 563.782V562.728H56.6885V561.6H62.6943V562.728H60.4385V563.782ZM80.075 560.12V573.245H78.698V566.463H75.7537V565.32H78.698V560.12H80.075ZM75.7977 561.526C75.783 565.335 74.3035 568.602 69.8504 570.813L69.118 569.715C72.597 568.016 74.1424 565.65 74.3914 562.64H69.7039V561.526H75.7977ZM96.4672 561.57V562.713H85.7885V561.57H90.4613V560.062H91.8383V561.57H96.4672ZM97.185 568.616V569.759H91.8383V573.26H90.4613V569.759H85.1732V568.616H97.185ZM91.1498 563.387C93.8744 563.387 95.515 564.163 95.515 565.599C95.515 567.005 93.8744 567.781 91.1498 567.796C88.4105 567.781 86.7699 567.005 86.7846 565.599C86.7699 564.163 88.4105 563.387 91.1498 563.387ZM91.1498 564.427C89.2602 564.427 88.2201 564.837 88.2201 565.599C88.2201 566.331 89.2602 566.741 91.1498 566.741C93.0248 566.741 94.0648 566.331 94.0795 565.599C94.0648 564.837 93.0248 564.427 91.1498 564.427ZM108.802 561.175V562.2H105.989C106.055 563.145 107.308 563.921 109.095 564.163L108.626 565.174C107.059 564.939 105.887 564.302 105.33 563.416C104.759 564.354 103.565 565.035 101.976 565.291L101.507 564.295C103.309 564.024 104.554 563.196 104.627 562.2H101.814V561.175H104.627V560.076H105.989V561.175H108.802ZM105.989 564.734V565.994C107.139 565.943 108.289 565.855 109.358 565.716L109.461 566.683C106.707 567.137 103.646 567.166 101.331 567.166L101.185 566.097C102.21 566.097 103.396 566.089 104.627 566.053V564.734H105.989ZM111.526 568.045V571.004H104.275V572.059H112.01V573.113H102.884V570.037H110.149V569.07H102.854V568.045H111.526ZM111.526 560.12V563.167H113.401V564.295H111.526V567.503H110.135V560.12H111.526ZM117.496 560.882C118.587 560.875 119.517 561.285 120.133 561.966H123.414V560.12H124.805V567.869H123.414V566.097H120.118C119.51 566.771 118.58 567.173 117.496 567.166C115.518 567.181 114.054 565.862 114.054 564.031C114.054 562.186 115.518 560.867 117.496 560.882ZM117.496 562.083C116.265 562.068 115.387 562.859 115.387 564.031C115.387 565.174 116.265 565.994 117.496 565.979C118.697 565.994 119.576 565.174 119.576 564.031C119.576 562.859 118.697 562.068 117.496 562.083ZM120.411 568.162C123.136 568.162 124.849 569.085 124.849 570.696C124.849 572.293 123.136 573.23 120.411 573.216C117.672 573.23 115.958 572.293 115.972 570.696C115.958 569.085 117.672 568.162 120.411 568.162ZM120.411 569.231C118.492 569.231 117.32 569.759 117.335 570.696C117.32 571.604 118.492 572.117 120.411 572.117C122.345 572.117 123.487 571.604 123.487 570.696C123.487 569.759 122.345 569.231 120.411 569.231ZM120.763 563.079C120.858 563.372 120.909 563.694 120.909 564.031C120.909 564.354 120.858 564.668 120.777 564.954H123.414V563.079H120.763ZM133.016 562.288V563.416H126.498V562.288H129.076V560.501H130.453V562.288H133.016ZM129.764 564.207C131.434 564.207 132.606 565.452 132.621 567.225C132.606 569.012 131.434 570.271 129.764 570.271C128.124 570.271 126.908 569.012 126.922 567.225C126.908 565.452 128.124 564.207 129.764 564.207ZM129.764 565.364C128.812 565.364 128.153 566.141 128.153 567.225C128.153 568.338 128.812 569.085 129.764 569.085C130.702 569.085 131.39 568.338 131.39 567.225C131.39 566.141 130.702 565.364 129.764 565.364ZM137.762 560.12V573.245H136.444V566.727H134.935V572.63H133.617V560.413H134.935V565.584H136.444V560.12H137.762ZM151.159 567.518V568.646H145.827V573.23H144.464V568.646H139.191V567.518H151.159ZM150.031 560.896V562.01H145.973C145.995 563.636 148.017 565.086 150.499 565.423L149.987 566.521C147.833 566.185 145.973 565.123 145.182 563.621C144.369 565.123 142.516 566.185 140.392 566.521L139.865 565.423C142.318 565.086 144.34 563.636 144.391 562.01H140.304V560.896H150.031ZM155.854 563.709C155.854 565.804 156.733 568.045 158.49 569.114L157.714 570.184C156.484 569.444 155.649 568.133 155.209 566.609C154.718 568.279 153.818 569.7 152.543 570.477L151.679 569.437C153.539 568.323 154.506 566.009 154.506 563.768V561.321H155.854V563.709ZM163.149 560.12V573.245H161.816V560.12H163.149ZM160.424 560.369V572.601H159.106V565.892H157.07V564.734H159.106V560.369H160.424ZM176.53 570.447V571.604H164.519V570.447H167.39V567.02C166.313 566.426 165.661 565.481 165.661 564.31C165.661 562.244 167.683 560.882 170.495 560.882C173.322 560.882 175.344 562.244 175.344 564.31C175.344 565.467 174.714 566.397 173.659 566.99V570.447H176.53ZM170.495 561.995C168.43 561.995 167.009 562.889 167.009 564.31C167.009 565.716 168.43 566.639 170.495 566.639C172.546 566.639 173.996 565.716 173.996 564.31C173.996 562.889 172.546 561.995 170.495 561.995ZM168.767 570.447H172.253V567.518C171.718 567.657 171.125 567.723 170.495 567.723C169.88 567.723 169.294 567.657 168.767 567.532V570.447ZM178.677 572.103C178.105 572.103 177.622 571.634 177.637 571.062C177.622 570.491 178.105 570.022 178.677 570.022C179.233 570.022 179.717 570.491 179.717 571.062C179.717 571.634 179.233 572.103 178.677 572.103Z" fill="#6B7280"/>
</svg>
