<svg width="400" height="128" viewBox="0 0 400 128" fill="none" xmlns="http://www.w3.org/2000/svg">
<path d="M119.915 63.6875V66.0938H102.852V57.4805H105.915V63.6875H119.915ZM122.457 68.5547V70.9609H112.915V75.582H109.907V70.9609H99.8989V68.5547H122.457ZM120.106 78.4805V80.9414H102.633V73.5859H105.641V78.4805H120.106ZM143.636 58.9023V61.1445C143.608 64.1523 143.663 67.5977 142.542 72.8203L139.562 72.5195C139.985 70.5371 140.245 68.7734 140.409 67.1875L125.835 68.0078L125.397 65.4102L140.573 64.8633C140.628 63.5781 140.642 62.4297 140.655 61.3633H126.163V58.9023H143.636ZM146.069 75.8828V78.3984H123.538V75.8828H131.851V69.7852H134.858V75.8828H146.069ZM167.767 56.7148V69.9766H164.705V56.7148H167.767ZM154.423 71.125V73.668H164.732V71.125H167.767V81.1328H151.416V71.125H154.423ZM154.423 78.6719H164.732V76.0469H154.423V78.6719ZM154.287 57.8086C158.087 57.7812 160.931 60.1602 160.931 63.6055C160.931 66.9688 158.087 69.3477 154.287 69.3477C150.459 69.3477 147.615 66.9688 147.615 63.6055C147.615 60.1602 150.459 57.7812 154.287 57.8086ZM154.287 60.3516C152.127 60.3516 150.568 61.6094 150.595 63.6055C150.568 65.5742 152.127 66.832 154.287 66.8594C156.42 66.832 157.951 65.5742 157.951 63.6055C157.951 61.6094 156.42 60.3516 154.287 60.3516ZM191.379 56.7148V81.4609H188.317V56.7148H191.379ZM178.063 58.5195C181.781 58.5195 184.488 61.9102 184.516 67.2422C184.488 72.6289 181.781 75.9922 178.063 75.9922C174.317 75.9922 171.61 72.6289 171.61 67.2422C171.61 61.9102 174.317 58.5195 178.063 58.5195ZM178.063 61.2539C175.957 61.2539 174.535 63.4688 174.535 67.2422C174.535 71.043 175.957 73.2578 178.063 73.2578C180.141 73.2578 181.563 71.043 181.563 67.2422C181.563 63.4688 180.141 61.2539 178.063 61.2539ZM219.9 56.7148V66.0938H223.7V68.582H219.9V81.4609H216.865V56.7148H219.9ZM213.118 59.0664V61.5273H204.587V72.875C208.429 72.875 211.464 72.6836 214.868 72.082L215.224 74.6523C211.396 75.3086 208.06 75.418 203.603 75.418H201.552V59.0664H213.118ZM252.85 75.9648V78.4531H230.264V75.9648H239.998V71.1523H232.752V58.3555H235.788V62.4023H247.245V58.3555H250.28V71.1523H243.006V75.9648H252.85ZM235.788 68.6914H247.245V64.8359H235.788V68.6914ZM274.466 56.7148V81.4609H271.403V56.7148H274.466ZM261.149 58.5195C264.868 58.5195 267.575 61.9102 267.603 67.2422C267.575 72.6289 264.868 75.9922 261.149 75.9922C257.403 75.9922 254.696 72.6289 254.696 67.2422C254.696 61.9102 257.403 58.5195 261.149 58.5195ZM261.149 61.2539C259.044 61.2539 257.622 63.4688 257.622 67.2422C257.622 71.043 259.044 73.2578 261.149 73.2578C263.228 73.2578 264.649 71.043 264.649 67.2422C264.649 63.4688 263.228 61.2539 261.149 61.2539ZM298.871 56.7148V81.4336H295.972V56.7148H298.871ZM293.621 57.3164V80.2578H290.75V68.8828H286.347C284.898 71.7266 282.574 74.1875 279.074 76.2109L277.351 74.0508C282.478 71.0293 284.816 67.1602 285.281 62.1836H278.609V59.7227H288.289C288.289 62.1152 288.001 64.3574 287.332 66.4492H290.75V57.3164H293.621ZM108.286 95.7148V110.398H105.251V104.355H101.04V101.867H105.251V95.7148H108.286ZM99.9191 111.027C105.169 111.027 108.368 112.75 108.368 115.73C108.368 118.711 105.169 120.434 99.9191 120.434C94.6965 120.434 91.4973 118.711 91.5246 115.73C91.4973 112.75 94.6965 111.027 99.9191 111.027ZM99.9191 113.352C96.4738 113.352 94.5324 114.172 94.5324 115.73C94.5324 117.262 96.4738 118.082 99.9191 118.082C103.364 118.082 105.333 117.262 105.333 115.73C105.333 114.172 103.364 113.352 99.9191 113.352ZM96.6652 99.9531C96.6652 102.961 98.6613 105.996 102.489 107.281L100.958 109.688C98.2102 108.758 96.2551 106.871 95.1887 104.547C94.0949 107.186 92.0305 109.291 89.091 110.344L87.5051 107.938C91.4699 106.57 93.5754 103.234 93.5754 99.9805V99.7891H88.4348V97.3281H101.779V99.7891H96.6652V99.9531ZM123.914 97.793V99.7617H128.89V95.7422H131.926V113.734H128.89V107.5H123.914V109.633H112.293V97.793H123.914ZM115.328 100.199V107.254H120.906V100.199H115.328ZM132.472 117.48V119.941H115.629V112.066H118.719V117.48H132.472ZM123.914 105.066H128.89V102.25H123.914V105.066ZM146.104 96.0977C151.737 96.0977 154.991 97.6016 155.018 100.336C154.991 103.098 151.737 104.574 146.104 104.602C140.471 104.574 137.19 103.098 137.19 100.336C137.19 97.6016 140.471 96.0977 146.104 96.0977ZM146.104 98.3398C142.33 98.3398 140.362 99.0508 140.389 100.336C140.362 101.703 142.33 102.332 146.104 102.332C149.932 102.332 151.873 101.703 151.873 100.336C151.873 99.0508 149.932 98.3398 146.104 98.3398ZM157.397 105.914V108.348H134.866V105.914H157.397ZM154.58 110.016V116.059H140.526V117.891H155.264V120.215H137.545V113.898H151.6V112.258H137.518V110.016H154.58ZM183.949 95.7148V105.121H187.749V107.691H183.949V120.434H180.914V95.7148H183.949ZM168.472 97.7383V103.918H174.296V97.7383H177.331V114.637H165.464V97.7383H168.472ZM168.472 112.148H174.296V106.297H168.472V112.148ZM207.588 95.7148V105.203H211.389V107.746H207.588V120.461H204.58V95.7148H207.588ZM200.588 97.875V107.199H192.275V112.121C196.186 112.094 199.234 111.93 202.693 111.328L202.967 113.789C199.166 114.473 195.775 114.637 191.291 114.637H189.268V104.766H197.553V100.336H189.213V97.875H200.588ZM216.133 97.7109V101.02H222.559V97.7109H225.594V109.004H220.891V112.969C222.915 112.859 224.952 112.709 226.852 112.449L227.071 114.691C221.903 115.594 216.243 115.621 212.004 115.648L211.567 113.133C213.44 113.119 215.6 113.119 217.856 113.051V109.004H213.126V97.7109H216.133ZM216.133 106.57H222.559V103.344H216.133V106.57ZM231.309 95.7148V105.75H234.891V108.293H231.309V120.434H228.274V95.7148H231.309ZM258.038 109.496V111.957H248.222V120.406H245.214V111.957H235.507V109.496H258.038ZM255.96 97.1094V99.5156H248.55C248.728 102.223 251.982 104.82 256.862 105.449L255.769 107.828C251.558 107.24 248.276 105.312 246.773 102.633C245.269 105.312 241.987 107.24 237.831 107.828L236.683 105.449C241.536 104.82 244.79 102.223 245.023 99.5156H237.585V97.1094H255.96ZM266.857 102.195C266.857 106.188 268.252 110.344 271.588 112.449L269.92 114.773C267.691 113.434 266.242 111.123 265.435 108.402C264.533 111.396 262.947 113.926 260.623 115.348L258.736 113.078C262.318 110.891 263.931 106.543 263.931 102.332V97.9023H266.857V102.195ZM280.474 95.7148V120.434H277.549V95.7148H280.474ZM275.334 96.1523V119.23H272.463V106.734H268.935V104.219H272.463V96.1523H275.334ZM305.371 114.938V117.426H282.785V114.938H288.008V108.676C286.039 107.555 284.85 105.791 284.864 103.59C284.836 99.6523 288.719 97.0547 294.024 97.0547C299.356 97.0547 303.239 99.6523 303.239 103.59C303.239 105.75 302.09 107.486 300.176 108.621V114.938H305.371ZM294.024 99.4609C290.332 99.4609 287.817 101.02 287.844 103.59C287.817 106.133 290.332 107.719 294.024 107.719C297.715 107.719 300.258 106.133 300.258 103.59C300.258 101.02 297.715 99.4609 294.024 99.4609ZM291.016 114.938H297.086V109.77C296.143 109.988 295.117 110.098 294.024 110.098C292.957 110.098 291.946 109.988 291.016 109.797V114.938ZM309.432 118.219C308.257 118.219 307.3 117.262 307.3 116.086C307.3 114.938 308.257 113.98 309.432 113.98C310.554 113.98 311.538 114.938 311.538 116.086C311.538 117.262 310.554 118.219 309.432 118.219Z" fill="#111827"/>
</svg>
