<svg width="400" height="96" viewBox="0 0 400 96" fill="none" xmlns="http://www.w3.org/2000/svg">
<rect width="400" height="96" fill="white"/>
<rect x="20" y="10" width="360" height="56" rx="8" fill="#0077FA"/>
<path d="M174.863 33.752C174.846 36.626 176.586 39.5264 179.029 40.6074L178.027 41.9258C176.217 41.0645 174.784 39.2979 174.046 37.1445C173.316 39.4561 171.866 41.3545 169.977 42.2773L168.957 40.8711C171.436 39.7725 173.176 36.7578 173.176 33.752V31.0625H174.863V33.752ZM180.453 45.5293V29.7441H182.123V45.5293H180.453ZM190.139 32.5742C190.13 34.5869 191.527 36.4941 193.936 37.3027L193.092 38.6035C191.308 37.9883 189.998 36.7578 189.312 35.2109C188.627 36.9072 187.256 38.252 185.41 38.9023L184.514 37.6016C186.975 36.7666 188.46 34.7275 188.469 32.5566V32.1348H185.006V30.7812H193.531V32.1348H190.139V32.5742ZM186.605 41.3633V40.0098H197.012V45.4941H195.342V41.3633H186.605ZM195.342 39.2363V29.7441H197.012V33.7871H199.297V35.1934H197.012V39.2363H195.342ZM212.463 29.7441V36.125H214.994V37.5137H212.463V45.4941H210.811V29.7441H212.463ZM200.105 33.5762V32.2051H203.99V29.9551H205.66V32.2051H209.439V33.5762H200.105ZM200.914 38.3926C200.914 36.248 202.566 34.7363 204.834 34.7363C207.093 34.7363 208.745 36.248 208.754 38.3926C208.745 40.5547 207.093 42.0576 204.834 42.0664C202.566 42.0576 200.914 40.5547 200.914 38.3926ZM202.514 38.3926C202.505 39.7637 203.489 40.6777 204.834 40.6602C206.17 40.6777 207.146 39.7637 207.154 38.3926C207.146 37.0479 206.17 36.1162 204.834 36.1074C203.489 36.1162 202.505 37.0479 202.514 38.3926ZM228.846 29.7441V45.4941H227.158V29.7441H228.846ZM215.908 41.2754C220.092 39.2803 222.14 36.4414 222.465 32.7676H216.664V31.4316H224.152C224.152 36.0459 222.192 40.0361 216.787 42.6289L215.908 41.2754Z" fill="white"/>
</svg>
