<svg width="400" height="88" viewBox="0 0 400 88" fill="none" xmlns="http://www.w3.org/2000/svg">
<g clip-path="url(#clip0_946_554)">
<g filter="url(#filter0_d_946_554)">
<path d="M0 34C0 22.9543 8.95431 14 20 14H380C391.046 14 400 22.9543 400 34V88H0V34Z" fill="white" shape-rendering="crispEdges"/>
<mask id="path-2-inside-1_946_554" fill="white">
<path d="M24 34H200V64H24V34Z"/>
</mask>
<path d="M200 34H199.5V64H200H200.5V34H200Z" fill="#C6C6C8" mask="url(#path-2-inside-1_946_554)"/>
<g clip-path="url(#clip1_946_554)">
<path d="M90.9916 59.9407H88.2617V58.0816H90.9916C91.5927 58.0816 92.0823 57.592 92.0823 56.9909V54.7754H93.9414V56.9909C93.9414 58.6176 92.6183 59.9407 90.9916 59.9407Z" fill="#2DA9FE"/>
<path d="M77.6797 59.9407H74.9499C73.3231 59.9407 72 58.6176 72 56.9909V54.7754H73.8592V56.9909C73.8592 57.592 74.3487 58.0816 74.9499 58.0816H77.6797V59.9407Z" fill="#2DA9FE"/>
<path d="M93.9414 43.1654H92.0823V40.9499C92.0823 40.3487 91.5927 39.8592 90.9916 39.8592H88.2617V38H90.9916C92.6183 38 93.9414 39.3231 93.9414 40.9499V43.1654Z" fill="#2DA9FE"/>
<path d="M73.8592 43.1654H72V40.9499C72 39.3231 73.3231 38 74.9499 38H77.6797V39.8592H74.9499C74.3487 39.8592 73.8592 40.3487 73.8592 40.9499V43.1654Z" fill="#2DA9FE"/>
<path d="M81.0164 43.293H77.6297C77.3747 43.293 77.168 43.4997 77.168 43.7547V47.1414C77.168 47.3964 77.3747 47.6031 77.6297 47.6031H81.0164C81.2714 47.6031 81.4781 47.3964 81.4781 47.1414V43.7547C81.4781 43.4997 81.2714 43.293 81.0164 43.293Z" fill="#7892A0"/>
<path d="M88.3172 43.293H84.9304C84.6755 43.293 84.4688 43.4997 84.4688 43.7547V47.1414C84.4688 47.3964 84.6755 47.6031 84.9304 47.6031H88.3172C88.5722 47.6031 88.7789 47.3964 88.7789 47.1414V43.7547C88.7789 43.4997 88.5722 43.293 88.3172 43.293Z" fill="#7892A0"/>
<path d="M81.0164 50.4688H77.6297C77.3747 50.4688 77.168 50.6755 77.168 50.9304V54.3172C77.168 54.5722 77.3747 54.7789 77.6297 54.7789H81.0164C81.2714 54.7789 81.4781 54.5722 81.4781 54.3172V50.9304C81.4781 50.6755 81.2714 50.4688 81.0164 50.4688Z" fill="#7892A0"/>
<path d="M88.3172 50.4688H84.9304C84.6755 50.4688 84.4688 50.6755 84.4688 50.9304V54.3172C84.4688 54.5722 84.6755 54.7789 84.9304 54.7789H88.3172C88.5722 54.7789 88.7789 54.5722 88.7789 54.3172V50.9304C88.7789 50.6755 88.5722 50.4688 88.3172 50.4688Z" fill="#2DA9FE"/>
</g>
<path d="M118.096 47.5332V48.9551H116.332V55.2305H114.582V42.8164H116.332V47.5332H118.096ZM108.649 44.0059V50.7461C110.242 50.7256 111.951 50.5752 113.748 50.2129L113.926 51.6621C111.848 52.0859 109.825 52.1953 107.993 52.1953H106.913V44.0059H108.649ZM122.369 43.6504C124.338 43.6367 125.814 44.9219 125.814 46.6992C125.814 48.4902 124.338 49.7617 122.369 49.7617C120.4 49.7617 118.91 48.4902 118.91 46.6992C118.91 44.9219 120.4 43.6367 122.369 43.6504ZM122.369 45.1543C121.384 45.1543 120.633 45.7285 120.646 46.6992C120.633 47.6836 121.384 48.2441 122.369 48.2441C123.353 48.2441 124.105 47.6836 124.119 46.6992C124.105 45.7285 123.367 45.1543 122.369 45.1543ZM128.795 42.8164V55.2852H127.058V42.8164H128.795ZM118.39 51.3203C120.605 51.334 123.681 51.293 126.347 50.9238L126.484 52.1816C123.722 52.7148 120.769 52.7422 118.595 52.7422L118.39 51.3203ZM137.285 50.5684H139.049L139.801 51.5391C140.273 50.9854 140.539 50.1514 140.539 49.0508C140.539 46.9316 139.541 45.7832 138.01 45.7832C136.479 45.7832 135.467 46.9316 135.467 49.0508C135.467 51.1699 136.479 52.3184 138.01 52.3184C138.208 52.3184 138.4 52.2979 138.584 52.2637L137.285 50.5684ZM142.631 49.0508C142.631 50.8145 142.03 52.1748 141.059 53.0293L142.467 54.8203H140.539L139.746 53.8223C139.213 54.0342 138.625 54.1367 138.01 54.1367C135.371 54.1367 133.375 52.2637 133.375 49.0508C133.375 45.8242 135.371 43.9648 138.01 43.9648C140.621 43.9648 142.631 45.8242 142.631 49.0508ZM143.841 54V44.1016H147.724C149.98 44.1016 151.265 45.373 151.265 47.3281C151.265 48.6816 150.643 49.666 149.515 50.1445L151.621 54H149.351L147.464 50.4863H145.892V54H143.841ZM145.892 48.8184H147.341C148.558 48.8184 149.146 48.3125 149.146 47.3281C149.146 46.3301 148.558 45.7832 147.341 45.7832H145.892V48.8184Z" fill="#111827"/>
<g clip-path="url(#clip2_946_554)">
<path d="M266.731 59.6366H264.039V57.8032H266.731C267.324 57.8032 267.807 57.3205 267.807 56.7277V54.543H269.64V56.7277C269.64 58.3319 268.335 59.6366 266.731 59.6366Z" fill="#2DA9FE"/>
<path d="M253.605 59.6366H250.913C249.309 59.6366 248.004 58.3319 248.004 56.7277V54.543H249.837V56.7277C249.837 57.3205 250.32 57.8032 250.913 57.8032H253.605V59.6366Z" fill="#2DA9FE"/>
<path d="M269.64 43.0936H267.807V40.9089C267.807 40.3161 267.324 39.8333 266.731 39.8333H264.039V38H266.731C268.335 38 269.64 39.3047 269.64 40.9089V43.0936Z" fill="#2DA9FE"/>
<path d="M249.833 43.0936H248V40.9089C248 39.3047 249.305 38 250.909 38H253.601V39.8333H250.909C250.316 39.8333 249.833 40.3161 249.833 40.9089V43.0936Z" fill="#2DA9FE"/>
<path d="M269.346 48.0039H248V50.0909H269.346V48.0039Z" fill="#7892A0"/>
</g>
<path d="M286.7 50.5684H288.463L289.215 51.5391C289.687 50.9854 289.954 50.1514 289.954 49.0508C289.954 46.9316 288.956 45.7832 287.424 45.7832C285.893 45.7832 284.881 46.9316 284.881 49.0508C284.881 51.1699 285.893 52.3184 287.424 52.3184C287.622 52.3184 287.814 52.2979 287.998 52.2637L286.7 50.5684ZM292.045 49.0508C292.045 50.8145 291.444 52.1748 290.473 53.0293L291.881 54.8203H289.954L289.161 53.8223C288.627 54.0342 288.039 54.1367 287.424 54.1367C284.786 54.1367 282.789 52.2637 282.789 49.0508C282.789 45.8242 284.786 43.9648 287.424 43.9648C290.036 43.9648 292.045 45.8242 292.045 49.0508ZM293.256 54V44.1016H297.138C299.394 44.1016 300.679 45.373 300.679 47.3281C300.679 48.6816 300.057 49.666 298.929 50.1445L301.035 54H298.765L296.879 50.4863H295.306V54H293.256ZM295.306 48.8184H296.756C297.972 48.8184 298.56 48.3125 298.56 47.3281C298.56 46.3301 297.972 45.7832 296.756 45.7832H295.306V48.8184ZM311.467 43.6777V44.9492H309.047C309.184 45.5986 310.127 46.1387 311.754 46.2891L311.18 47.5469C309.717 47.3691 308.699 46.8564 308.172 46.1387C307.625 46.8975 306.586 47.4443 305.096 47.6426L304.522 46.3984C306.183 46.2207 307.126 45.626 307.27 44.9492H304.836V43.6777H307.297V42.7754H309.02V43.6777H311.467ZM309.02 47.1777V48.1348C309.997 48.0869 310.968 48.0117 311.877 47.9023L312 49.0781C309.43 49.4883 306.614 49.5156 304.453 49.5156L304.276 48.2168C305.185 48.2168 306.224 48.2168 307.297 48.1895V47.1777H309.02ZM314.256 50.1172V53.1934H307.584V53.8906H314.666V55.1758H305.834V52.0176H312.506V51.375H305.821V50.1172H314.256ZM314.256 42.8164V45.4688H315.842V46.8906H314.256V49.6523H312.506V42.8164H314.256ZM319.595 43.4863C320.586 43.4863 321.455 43.8486 322.056 44.457H324.873V42.8164H326.609V50.1035H324.873V48.6133H322.043C321.441 49.2148 320.58 49.5771 319.595 49.5703C317.709 49.584 316.273 48.2852 316.287 46.5352C316.273 44.7578 317.709 43.4863 319.595 43.4863ZM319.595 44.9766C318.625 44.9766 317.927 45.5508 317.941 46.5352C317.927 47.4922 318.625 48.1074 319.595 48.0938C320.539 48.1074 321.222 47.4922 321.222 46.5352C321.222 45.5508 320.539 44.9766 319.595 44.9766ZM322.357 50.3633C324.996 50.3633 326.636 51.2656 326.65 52.8105C326.636 54.3555 324.996 55.2578 322.357 55.2578C319.732 55.2578 318.078 54.3555 318.078 52.8105C318.078 51.2656 319.732 50.3633 322.357 50.3633ZM322.357 51.6895C320.703 51.6895 319.787 52.0586 319.787 52.8105C319.787 53.5352 320.703 53.9043 322.357 53.9043C324.039 53.9043 324.941 53.5352 324.941 52.8105C324.941 52.0586 324.039 51.6895 322.357 51.6895ZM322.808 45.8379C322.849 46.0566 322.877 46.2959 322.877 46.5352C322.877 46.7744 322.849 47 322.808 47.2188H324.873V45.8379H322.808Z" fill="#111827"/>
</g>
</g>
<defs>
<filter id="filter0_d_946_554" x="-10" y="2" width="420" height="94" filterUnits="userSpaceOnUse" color-interpolation-filters="sRGB">
<feFlood flood-opacity="0" result="BackgroundImageFix"/>
<feColorMatrix in="SourceAlpha" type="matrix" values="0 0 0 0 0 0 0 0 0 0 0 0 0 0 0 0 0 0 127 0" result="hardAlpha"/>
<feOffset dy="-2"/>
<feGaussianBlur stdDeviation="5"/>
<feComposite in2="hardAlpha" operator="out"/>
<feColorMatrix type="matrix" values="0 0 0 0 0 0 0 0 0 0 0 0 0 0 0 0 0 0 0.12 0"/>
<feBlend mode="normal" in2="BackgroundImageFix" result="effect1_dropShadow_946_554"/>
<feBlend mode="normal" in="SourceGraphic" in2="effect1_dropShadow_946_554" result="shape"/>
</filter>
<clipPath id="clip0_946_554">
<rect width="400" height="88" fill="white"/>
</clipPath>
<clipPath id="clip1_946_554">
<rect width="22" height="22" fill="white" transform="translate(72 38)"/>
</clipPath>
<clipPath id="clip2_946_554">
<rect width="22" height="22" fill="white" transform="translate(248 38)"/>
</clipPath>
</defs>
</svg>
