<svg width="400" height="727" viewBox="0 0 400 727" fill="none" xmlns="http://www.w3.org/2000/svg">
<rect width="400" height="727" fill="#F4F7FE"/>
<rect width="400" height="58" fill="#F4F7FE"/>
<path d="M374.001 30.4008L369.101 35.3008C368.917 35.4841 368.684 35.5758 368.401 35.5758C368.117 35.5758 367.884 35.4841 367.701 35.3008C367.517 35.1174 367.426 34.8841 367.426 34.6008C367.426 34.3174 367.517 34.0841 367.701 33.9008L372.601 29.0008L367.701 24.1008C367.517 23.9174 367.426 23.6841 367.426 23.4008C367.426 23.1174 367.517 22.8841 367.701 22.7008C367.884 22.5174 368.117 22.4258 368.401 22.4258C368.684 22.4258 368.917 22.5174 369.101 22.7008L374.001 27.6008L378.901 22.7008C379.084 22.5174 379.317 22.4258 379.601 22.4258C379.884 22.4258 380.117 22.5174 380.301 22.7008C380.484 22.8841 380.576 23.1174 380.576 23.4008C380.576 23.6841 380.484 23.9174 380.301 24.1008L375.401 29.0008L380.301 33.9008C380.484 34.0841 380.576 34.3174 380.576 34.6008C380.576 34.8841 380.484 35.1174 380.301 35.3008C380.117 35.4841 379.884 35.5758 379.601 35.5758C379.317 35.5758 379.084 35.4841 378.901 35.3008L374.001 30.4008Z" fill="black"/>
<path d="M63.1569 73.3945V84H61.8386V73.3945H63.1569ZM72.437 76.7344C72.1294 75.2695 70.877 74.4785 69.478 74.4785C67.5591 74.4785 66.0723 75.958 66.0649 78.6973C66.0723 81.4292 67.5591 82.9087 69.478 82.916C70.877 82.9087 72.1221 82.125 72.437 80.6748H73.7554C73.3745 82.8428 71.6314 84.1465 69.478 84.1465C66.7534 84.1465 64.7832 82.0518 64.7905 78.6973C64.7832 75.3428 66.7534 73.248 69.478 73.248C71.624 73.248 73.3599 74.5298 73.7554 76.7344H72.437ZM84.6983 74.0098C84.691 75.7529 87.0128 77.2324 89.2833 77.5693L88.8585 78.4775C86.8297 78.1333 84.8448 77.0493 84.0538 75.4819C83.2628 77.0493 81.2779 78.1333 79.2784 78.4775L78.8243 77.5693C81.0875 77.2324 83.402 75.7529 83.4093 74.0098V73.9219H79.2345V72.9844H88.8585V73.9219H84.6983V74.0098ZM78.1212 80.543V79.5908H89.9864V80.543H84.5958V85.1865H83.4679V80.543H78.1212ZM97.5819 73.3066V79.3418H91.4735V73.3066H97.5819ZM92.6015 78.4189H96.454V74.2588H92.6015V78.4189ZM93.1288 84.7471V80.6309H94.2714V83.7949H101.947V84.7471H93.1288ZM100.394 81.5391V72.1787H101.537V81.5391H100.394ZM115.329 78.3604V79.3271H103.449V78.3604H115.329ZM104.884 82.8135C104.877 81.3193 106.569 80.4697 109.382 80.4697C112.172 80.4697 113.849 81.3193 113.864 82.8135C113.849 84.3223 112.172 85.1572 109.382 85.1572C106.569 85.1572 104.877 84.3223 104.884 82.8135ZM104.958 77.1152V72.6914H113.849V73.6582H106.086V76.1777H113.937V77.1152H104.958ZM106.056 82.8135C106.042 83.729 107.294 84.249 109.382 84.249C111.447 84.249 112.699 83.729 112.707 82.8135C112.699 81.9053 111.447 81.3779 109.382 81.3633C107.294 81.3779 106.042 81.9053 106.056 82.8135ZM128.022 79.3418V80.2939H116.098V79.3418H121.489V77.9648H117.651V74.7861H125.327V73.4385H117.607V72.501H126.484V75.6504H118.793V77.042H126.762V77.9648H122.617V79.3418H128.022ZM117.431 82.2275V81.29H126.557V85.0693H125.4V82.2275H117.431ZM140.642 78.3604V79.3125H128.777V78.3604H140.642ZM129.45 76.6611C131.721 76.3975 133.911 75.2769 133.962 73.79H129.861V72.8379H139.587V73.79H135.456C135.508 75.2622 137.676 76.3975 139.983 76.6611L139.558 77.584C137.427 77.313 135.427 76.3535 134.709 74.9106C133.992 76.3535 132.007 77.313 129.861 77.584L129.45 76.6611ZM130.212 82.8135C130.205 81.3193 131.897 80.4551 134.709 80.4551C137.5 80.4551 139.177 81.3193 139.192 82.8135C139.177 84.3223 137.5 85.1572 134.709 85.1572C131.897 85.1572 130.205 84.3223 130.212 82.8135ZM131.384 82.8135C131.369 83.7217 132.622 84.2417 134.709 84.2344C136.775 84.2417 138.027 83.7217 138.034 82.8135C138.027 81.8979 136.775 81.3779 134.709 81.3633C132.622 81.3779 131.369 81.8979 131.384 82.8135ZM147.373 73.0137C150.09 73.021 152.134 74.4419 152.134 76.5879C152.134 78.7559 150.09 80.1768 147.373 80.1621C144.656 80.1768 142.612 78.7559 142.612 76.5879C142.612 74.4419 144.656 73.021 147.373 73.0137ZM141.441 83.458V82.4912H153.364V83.458H141.441ZM143.711 76.5879C143.696 78.1699 145.271 79.2246 147.373 79.2246C149.461 79.2246 151.021 78.1699 151.021 76.5879C151.021 75.0278 149.461 73.9438 147.373 73.9512C145.271 73.9438 143.696 75.0278 143.711 76.5879ZM166.028 82.6084V83.5752H154.104V82.6084H159.466V80.1475H155.599V76.1338H163.392V74.083H155.569V73.1309H164.519V77.0713H156.741V79.1953H164.827V80.1475H160.594V82.6084H166.028ZM171.917 72.7207V74.5957H175.711V72.7207H176.854V78.3896H170.79V72.7207H171.917ZM171.917 77.4521H175.711V75.4893H171.917V77.4521ZM172.108 80.4404V79.5176H180.414V82.667H173.265V84.1025H180.897V85.04H172.137V81.7881H179.271V80.4404H172.108ZM179.271 78.9023V72.1641H180.414V74.9912H182.376V75.958H180.414V78.9023H179.271ZM185.592 79.6201V81.3486H192.111V79.6201H193.253V85.0107H184.45V79.6201H185.592ZM182.897 78.4482V77.4961H191.766C192.118 75.8774 192.118 74.7129 192.111 73.7168H184.406V72.7646H193.253V73.7168C193.253 74.7129 193.253 75.8701 192.894 77.4961H194.821V78.4482H182.897ZM185.592 84.0732H192.111V82.2568H185.592V84.0732Z" fill="black"/>
<line x1="209.75" y1="72" x2="209.75" y2="87" stroke="#C6C6C8" stroke-width="0.5"/>
<circle cx="281.5" cy="61" r="3" fill="#0077FA"/>
<path d="M236.33 79.3711V80.8652H231.145V85.3477H229.299V80.8652H224.172V79.3711H236.33ZM224.772 77.1299C227.468 76.8003 228.962 75.4966 229.16 74.1855H225.271V72.7207H235.246V74.1855H231.357C231.547 75.4966 233.02 76.8003 235.759 77.1299L235.085 78.5947C232.741 78.2798 231.064 77.2837 230.258 75.9141C229.445 77.2837 227.783 78.2798 225.461 78.5947L224.772 77.1299ZM244.028 73.0869V79.5176H237.51V73.0869H244.028ZM239.062 85.0547V80.6309H240.952V83.5459H248.349V85.0547H239.062ZM239.355 78.0381H242.168V74.5664H239.355V78.0381ZM246.123 81.5098V72.0322H247.998V81.5098H246.123ZM260.955 72.0176V81.9932H259.182V72.0176H260.955ZM249.338 78.8438C251.155 77.9722 251.887 76.229 251.887 74.6543V72.9111H253.704V74.6543C253.696 76.1924 254.363 77.7231 256.077 78.5068L255.037 79.9424C253.967 79.4443 253.25 78.6021 252.81 77.584C252.341 78.7485 251.543 79.7153 250.364 80.2646L249.338 78.8438ZM251.917 85.1133V80.8213H253.792V83.6191H261.292V85.1133H251.917ZM254.861 76.5879V75.0645H256.487V72.2227H258.259V81.5977H256.487V76.5879H254.861ZM273.413 72.0176V85.377H271.568V78.2285H269.224V76.7197H271.568V72.0176H273.413ZM262.779 82.3594V73.1309H269.004V74.6396H264.639V76.8516H268.521V78.3164H264.639V80.8359C266.492 80.8213 267.972 80.7554 269.62 80.499L269.81 81.9932C267.862 82.2861 266.119 82.3521 263.833 82.3594H262.779ZM282.467 80.3232H284.356L285.162 81.356C285.667 80.77 285.96 79.8691 285.953 78.6973C285.96 76.4268 284.876 75.2036 283.243 75.1963C281.595 75.2036 280.519 76.4268 280.519 78.6973C280.519 80.9604 281.595 82.1909 283.243 82.1982C283.456 82.1982 283.661 82.1763 283.851 82.1323L282.467 80.3232ZM278.277 78.6973C278.277 75.2329 280.416 73.248 283.243 73.248C286.048 73.248 288.194 75.2329 288.194 78.6973C288.194 80.5942 287.55 82.0444 286.51 82.9746L288.019 84.8789H285.953L285.104 83.8242C284.532 84.0366 283.902 84.1465 283.243 84.1465C280.416 84.1465 278.277 82.147 278.277 78.6973ZM289.491 84V73.3945H293.651C296.061 73.3945 297.445 74.7495 297.445 76.8516C297.445 78.3018 296.779 79.3564 295.57 79.8765L297.826 84H295.394L293.366 80.2354H291.688V84H289.491ZM291.688 78.4482H293.241C294.545 78.4482 295.182 77.9136 295.175 76.8516C295.182 75.7822 294.545 75.2036 293.241 75.1963H291.688V78.4482ZM310.373 82.3301V83.8682H298.171V82.3301H303.312V80.3232H299.577V75.8408H307.121V74.376H299.562V72.8818H308.966V77.3057H301.452V78.7998H309.274V80.3232H305.172V82.3301H310.373ZM316.247 72.6182V74.2002H318.972V72.6182H320.847V78.4336H314.387V72.6182H316.247ZM315.72 80.748V79.2979H324.568V82.916H317.58V83.7803H324.948V85.2598H315.749V81.583H322.707V80.748H315.72ZM316.247 76.9688H318.972V75.6064H316.247V76.9688ZM322.693 78.7998V72.0176H324.568V74.6104H326.369V76.1191H324.568V78.7998H322.693ZM329.951 79.6055V81.0264H335.503V79.6055H337.349V85.2012H328.12V79.6055H329.951ZM326.655 78.7266V77.2324H335.239C335.496 75.9434 335.532 74.9473 335.547 74.0537H328.149V72.5596H337.407V73.6289C337.415 74.6396 337.415 75.7163 337.092 77.2324H338.857V78.7266H326.655ZM329.951 83.6924H335.503V82.4473H329.951V83.6924Z" fill="black"/>
<rect x="16" y="133" width="368" height="472.467" rx="18" fill="#EEEEEE"/>
<path d="M140.399 181.837V183.331H134.439V188.461H132.613V183.331H126.719V181.837H140.399ZM127.433 179.38C130.38 179.006 132.355 177.421 132.488 175.777H127.981V174.316H139.137V175.777H134.63C134.754 177.421 136.713 179.006 139.685 179.38L139.021 180.824C136.464 180.459 134.472 179.289 133.559 177.67C132.637 179.289 130.662 180.459 128.13 180.824L127.433 179.38ZM149.073 174.715V181.854H141.835V174.715H149.073ZM143.645 188.079V183.182H145.504V186.585H153.987V188.079H143.645ZM143.661 180.376H147.247V176.192H143.661V180.376ZM151.713 184.194V173.486H153.572V184.194H151.713ZM168.257 173.47V184.709H166.497V173.47H168.257ZM155.324 181.289C157.325 180.318 158.263 178.326 158.263 176.541V174.499H160.056V176.541C160.056 178.292 160.919 180.036 162.828 180.891L161.799 182.318C160.537 181.729 159.674 180.716 159.176 179.496C158.645 180.874 157.707 182.044 156.337 182.684L155.324 181.289ZM158.213 188.179V183.364H160.056V186.685H168.672V188.179H158.213ZM161.483 178.55V177.039H163.492V173.735H165.252V184.261H163.492V178.55H161.483ZM182.36 173.47V188.494H180.534V180.393H177.712V178.898H180.534V173.47H182.36ZM170.457 185.041V174.765H177.479V176.275H172.316V178.965H176.882V180.426H172.316V183.514C174.599 183.505 176.309 183.422 178.243 183.115L178.426 184.609C176.242 184.941 174.317 185.024 171.636 185.041H170.457ZM197.078 173.47V188.478H195.301V173.47H197.078ZM184.278 179.961C184.278 176.657 185.556 174.607 187.515 174.615C189.333 174.607 190.57 176.309 190.786 179.114H192.23V173.735H193.99V187.747H192.23V180.608H190.802C190.628 183.539 189.375 185.332 187.515 185.323C185.556 185.332 184.278 183.273 184.278 179.961ZM185.988 179.961C185.98 182.31 186.561 183.572 187.515 183.563C188.511 183.572 189.101 182.31 189.109 179.961C189.101 177.62 188.511 176.35 187.515 176.358C186.561 176.35 185.98 177.62 185.988 179.961ZM204.026 177.072C204.018 179.861 205.354 182.601 207.745 183.646L206.632 185.124C204.939 184.294 203.744 182.7 203.104 180.733C202.449 182.808 201.22 184.535 199.494 185.406L198.332 183.912C200.78 182.767 202.142 179.878 202.15 177.072V174.682H204.026V177.072ZM206.084 179.812V178.317H209.239V173.47H211.065V188.494H209.239V179.812H206.084ZM218.868 174.134V176.043H222.371V174.134H224.197V180.675H217.042V174.134H218.868ZM218.553 183.198V181.754H228.364V185.688H220.396V186.884H228.829V188.345H218.57V184.344H226.522V183.198H218.553ZM218.868 179.214H222.371V177.438H218.868V179.214ZM226.522 181.156V173.47H228.364V176.508H230.456V178.002H228.364V181.156H226.522ZM234.383 182.02V183.746H241.04V182.02H242.866V188.295H232.573V182.02H234.383ZM230.88 180.907V179.43H240.725C241.04 177.844 241.073 176.649 241.073 175.595H232.573V174.117H242.916V175.279C242.924 176.425 242.924 177.67 242.551 179.43H244.593V180.907H230.88ZM234.383 186.801H241.04V185.174H234.383V186.801ZM257.069 173.47V176.956H259.161V178.483H257.069V182.219H255.226V173.47H257.069ZM245.747 181.422V174.35H247.573V176.392H251.076V174.35H252.902V181.422H245.747ZM247.39 188.262V182.949H257.169V184.427H249.233V186.801H257.451V188.262H247.39ZM247.573 179.961H251.076V177.819H247.573V179.961ZM272.119 173.47V188.478H270.259V173.47H272.119ZM259.684 184.344C263.619 182.476 265.428 179.936 265.76 176.524H260.448V175.063H267.636C267.636 179.529 265.902 183.323 260.647 185.821L259.684 184.344Z" fill="black"/>
<path d="M149.681 208.742V213.338H151.509V214.176H149.681V220.028H148.69V208.742H149.681ZM141.022 217.096C143.936 215.648 145.523 213.471 145.751 210.799H141.543V209.961H146.761C146.754 213.154 145.256 216.067 141.581 217.883L141.022 217.096ZM160.859 208.742V213.401H162.573V214.239H160.859V220.028H159.856V208.742H160.859ZM151.883 216.905C153.585 215.16 154.277 213.059 154.404 210.812H152.239V209.974H155.349C155.337 212.659 154.734 215.312 152.683 217.477L151.883 216.905ZM155.121 217.667C156.885 215.674 157.412 213.167 157.508 210.812H155.705V209.974H158.447C158.441 212.652 158.047 215.769 155.933 218.226L155.121 217.667ZM173.218 214.48V215.306H168.635V217.616H167.632V215.306H162.884V214.48H173.218ZM164.052 211.307C164.046 209.904 165.626 209.041 168.039 209.034C170.451 209.041 172.012 209.904 172.012 211.307C172.012 212.697 170.451 213.56 168.039 213.554C165.626 213.56 164.046 212.697 164.052 211.307ZM164.217 219.787V216.486H165.22V218.937H172.063V219.787H164.217ZM165.119 211.307C165.106 212.183 166.28 212.741 168.039 212.741C169.79 212.741 170.958 212.183 170.958 211.307C170.958 210.405 169.79 209.853 168.039 209.847C166.28 209.853 165.106 210.405 165.119 211.307ZM182.575 210.342C182.569 211.853 184.581 213.135 186.549 213.427L186.181 214.214C184.422 213.916 182.702 212.976 182.017 211.618C181.331 212.976 179.611 213.916 177.878 214.214L177.484 213.427C179.446 213.135 181.452 211.853 181.458 210.342V210.266H177.84V209.453H186.181V210.266H182.575V210.342ZM176.875 216.004V215.179H187.158V216.004H182.486V220.028H181.509V216.004H176.875ZM193.741 209.732V214.963H188.447V209.732H193.741ZM189.425 214.163H192.763V210.558H189.425V214.163ZM189.882 219.647V216.08H190.872V218.822H197.524V219.647H189.882ZM196.178 216.867V208.755H197.169V216.867H196.178ZM208.411 208.742V217.21H207.458V208.742H208.411ZM198.864 214.811C200.317 214.125 201.206 212.563 201.2 211.23V209.542H202.165V211.23C202.165 212.551 202.99 213.909 204.424 214.519L203.866 215.306C202.825 214.83 202.082 213.96 201.695 212.938C201.295 214.062 200.501 215.058 199.422 215.585L198.864 214.811ZM201.009 219.787V216.169H202V218.949H208.753V219.787H201.009ZM203.447 212.437V211.611H205.224V208.971H206.189V216.893H205.224V212.437H203.447ZM219.157 208.742V220.054H218.167V213.833H215.781V213.008H218.167V208.742H219.157ZM210.322 217.324V209.783H215.59V210.608H211.324V212.957H215.095V213.77H211.324V216.499C213.394 216.493 214.727 216.436 216.276 216.156L216.39 216.981C214.746 217.248 213.368 217.324 211.185 217.324H210.322ZM228.984 215.839C231.301 215.839 232.704 216.601 232.704 217.921C232.704 219.254 231.301 220.016 228.984 220.028C226.661 220.016 225.245 219.254 225.239 217.921C225.245 216.601 226.661 215.839 228.984 215.839ZM224.262 214.658V209.453H225.239V211.18H228.527V209.453H229.517V214.658H224.262ZM225.239 213.846H228.527V211.967H225.239V213.846ZM226.242 217.921C226.229 218.733 227.283 219.216 228.984 219.216C230.692 219.216 231.733 218.733 231.739 217.921C231.733 217.115 230.692 216.639 228.984 216.626C227.283 216.639 226.229 217.115 226.242 217.921ZM231.612 215.534V208.742H232.602V211.586H234.303V212.437H232.602V215.534H231.612ZM245.076 214.519V215.344H240.48V217.654H239.49V215.344H234.742V214.519H245.076ZM236.062 219.787V216.537H237.065V218.949H243.92V219.787H236.062ZM236.087 213.224V209.301H243.73V213.224H236.087ZM237.065 212.424H242.74V210.088H237.065V212.424ZM258.419 210.037V210.862H249.266V210.037H253.379V208.679H254.357V210.037H258.419ZM248.732 216.88V216.055H259.066V216.88H254.357V220.054H253.379V216.88H248.732ZM250.192 213.401C250.18 212.183 251.564 211.51 253.874 211.51C256.166 211.51 257.549 212.183 257.556 213.401C257.549 214.595 256.166 215.268 253.874 215.28C251.564 215.268 250.18 214.595 250.192 213.401ZM251.221 213.401C251.208 214.1 252.192 214.512 253.874 214.506C255.537 214.512 256.515 214.1 256.527 213.401C256.515 212.69 255.537 212.278 253.874 212.271C252.192 212.278 251.208 212.69 251.221 213.401ZM77.0139 234.118H78.258L79.2292 235.388C79.9148 234.785 80.3464 233.775 80.3528 232.404C80.3464 230.03 79.0579 228.748 77.3948 228.748C75.7317 228.748 74.4431 230.03 74.4368 232.404C74.4431 234.772 75.7317 236.054 77.3948 236.061C77.7375 236.061 78.0676 236.003 78.3723 235.896L77.0139 234.118ZM73.3323 232.404C73.3259 229.497 75.0334 227.682 77.3948 227.682C79.7497 227.682 81.4636 229.497 81.4573 232.404C81.4636 234.125 80.8669 235.458 79.8894 236.264L81.0891 237.863H79.845L79.0452 236.791C78.55 237.013 77.9914 237.127 77.3948 237.127C75.0334 237.127 73.3259 235.312 73.3323 232.404ZM82.873 237V227.809H85.9961C88.1479 227.809 89.1318 229.002 89.1318 230.64C89.1318 231.858 88.5859 232.811 87.418 233.217L89.4873 237H88.1543L86.231 233.426C86.1611 233.433 86.085 233.433 86.0088 233.433H84.0156V237H82.873ZM84.0156 232.392H85.958C87.4243 232.392 87.9956 231.731 88.002 230.64C87.9956 229.542 87.4243 228.824 85.9453 228.824H84.0156V232.392ZM99.5171 227.72V228.469H97.0034C97.0288 229.402 98.2349 230.138 99.7837 230.386L99.4282 231.122C98.0762 230.894 97.0098 230.303 96.5274 229.478C96.0513 230.348 94.9785 230.982 93.6138 231.236L93.2583 230.513C94.8135 230.246 96.0069 229.446 96.0259 228.469H93.5249V227.72H96.0259V226.717H97.0034V227.72H99.5171ZM92.9536 232.011C93.8614 232.011 94.9214 232.004 96.0259 231.966V230.716H97.0034V231.928C98.0445 231.877 99.0918 231.801 100.063 231.668L100.126 232.366C97.7461 232.772 95.0674 232.798 93.0806 232.785L92.9536 232.011ZM94.4263 234.41V233.661H101.777V236.086H95.4419V237.14H102.209V237.901H94.4517V235.362H100.787V234.41H94.4263ZM100.774 233.166V226.742H101.777V229.472H103.465V230.297H101.777V233.166H100.774ZM107.052 227.428C108.004 227.421 108.81 227.783 109.337 228.38H112.295V226.742H113.298V233.433H112.295V231.82H109.337C108.817 232.417 108.004 232.779 107.052 232.772C105.364 232.779 104.113 231.674 104.119 230.106C104.113 228.526 105.364 227.421 107.052 227.428ZM105.072 230.106C105.072 231.154 105.897 231.928 107.052 231.922C108.169 231.928 109.007 231.154 109.007 230.106C109.007 229.034 108.169 228.285 107.052 228.291C105.897 228.285 105.072 229.034 105.072 230.106ZM105.77 235.845C105.763 234.486 107.211 233.699 109.553 233.699C111.889 233.699 113.336 234.486 113.336 235.845C113.336 237.216 111.889 238.003 109.553 238.003C107.211 238.003 105.763 237.216 105.77 235.845ZM106.747 235.845C106.741 236.695 107.82 237.209 109.553 237.203C111.286 237.209 112.365 236.695 112.359 235.845C112.365 234.988 111.286 234.48 109.553 234.474C107.82 234.48 106.741 234.988 106.747 235.845ZM109.813 229.192C109.915 229.472 109.972 229.776 109.972 230.106C109.972 230.424 109.915 230.722 109.82 230.995H112.295V229.192H109.813ZM120.059 227.479C122.414 227.485 124.185 228.716 124.185 230.576C124.185 232.455 122.414 233.687 120.059 233.674C117.704 233.687 115.933 232.455 115.933 230.576C115.933 228.716 117.704 227.485 120.059 227.479ZM114.917 236.53V235.692H125.251V236.53H114.917ZM116.885 230.576C116.872 231.947 118.237 232.861 120.059 232.861C121.868 232.861 123.22 231.947 123.22 230.576C123.22 229.224 121.868 228.285 120.059 228.291C118.237 228.285 116.872 229.224 116.885 230.576ZM136.226 235.794V236.632H125.892V235.794H130.539V233.661H127.187V230.183H133.941V228.405H127.162V227.58H134.919V230.995H128.178V232.836H135.185V233.661H131.516V235.794H136.226ZM150.204 235.743V236.581H139.87V235.743H144.517V232.988H141.089V227.694H148.922V232.988H145.494V235.743H150.204ZM142.067 232.188H147.957V228.494H142.067V232.188ZM159.58 226.742V231.186H161.472V232.049H159.58V238.028H158.59V226.742H159.58ZM151.316 235.324V227.707H152.306V230.69H155.607V227.707H156.597V235.324H151.316ZM152.306 234.486H155.607V231.49H152.306V234.486ZM165.02 227.161C166.709 227.167 167.934 228.196 167.94 229.662C167.934 231.135 166.709 232.15 165.02 232.15C163.313 232.15 162.081 231.135 162.088 229.662C162.081 228.196 163.313 227.167 165.02 227.161ZM163.065 229.662C163.053 230.652 163.884 231.338 165.02 231.338C166.138 231.338 166.975 230.652 166.975 229.662C166.975 228.685 166.138 227.993 165.02 227.999C163.884 227.993 163.053 228.685 163.065 229.662ZM163.802 233.89V233.09H171.139V235.807H164.805V237.076H171.546V237.876H163.827V235.058H170.149V233.89H163.802ZM170.149 232.544V226.742H171.139V232.544H170.149ZM181.499 228.342C181.493 229.853 183.505 231.135 185.473 231.427L185.105 232.214C183.347 231.916 181.626 230.976 180.941 229.618C180.255 230.976 178.535 231.916 176.802 232.214L176.409 231.427C178.37 231.135 180.376 229.853 180.382 228.342V228.266H176.764V227.453H185.105V228.266H181.499V228.342ZM175.799 234.004V233.179H186.082V234.004H181.411V238.028H180.433V234.004H175.799ZM192.665 227.732V232.963H187.371V227.732H192.665ZM188.349 232.163H191.688V228.558H188.349V232.163ZM188.806 237.647V234.08H189.796V236.822H196.448V237.647H188.806ZM195.103 234.867V226.755H196.093V234.867H195.103ZM208.046 232.112V232.95H197.75V232.112H208.046ZM198.994 235.972C198.988 234.677 200.454 233.94 202.891 233.94C205.31 233.94 206.764 234.677 206.776 235.972C206.764 237.279 205.31 238.003 202.891 238.003C200.454 238.003 198.988 237.279 198.994 235.972ZM199.057 231.033V227.199H206.764V228.037H200.035V230.221H206.84V231.033H199.057ZM200.01 235.972C199.997 236.765 201.082 237.216 202.891 237.216C204.682 237.216 205.767 236.765 205.773 235.972C205.767 235.185 204.682 234.728 202.891 234.715C201.082 234.728 199.997 235.185 200.01 235.972ZM219.047 232.963V233.788H208.713V232.963H213.384V231.77H210.058V229.015H216.711V227.847H210.02V227.034H217.714V229.764H211.048V230.97H217.955V231.77H214.362V232.963H219.047ZM209.868 235.464V234.651H217.777V237.927H216.774V235.464H209.868ZM229.984 232.112V232.938H219.701V232.112H229.984ZM220.285 230.64C222.252 230.411 224.15 229.44 224.195 228.151H220.64V227.326H229.07V228.151H225.49C225.534 229.427 227.413 230.411 229.413 230.64L229.044 231.439C227.197 231.205 225.464 230.373 224.842 229.123C224.22 230.373 222.5 231.205 220.64 231.439L220.285 230.64ZM220.945 235.972C220.938 234.677 222.405 233.928 224.842 233.928C227.261 233.928 228.714 234.677 228.727 235.972C228.714 237.279 227.261 238.003 224.842 238.003C222.405 238.003 220.938 237.279 220.945 235.972ZM221.96 235.972C221.948 236.759 223.033 237.209 224.842 237.203C226.632 237.209 227.718 236.759 227.724 235.972C227.718 235.178 226.632 234.728 224.842 234.715C223.033 234.728 221.948 235.178 221.96 235.972ZM235.818 226.945C238.325 226.945 239.798 227.637 239.804 228.888C239.798 230.17 238.325 230.862 235.818 230.868C233.298 230.862 231.819 230.17 231.819 228.888C231.819 227.637 233.298 226.945 235.818 226.945ZM230.676 232.442V231.63H240.959V232.442H230.676ZM231.92 234.182V233.42H239.639V235.946H232.936V237.114H239.982V237.901H231.945V235.21H238.661V234.182H231.92ZM232.86 228.888C232.847 229.675 233.945 230.106 235.818 230.106C237.69 230.106 238.782 229.675 238.788 228.888C238.782 228.145 237.69 227.701 235.818 227.694C233.945 227.701 232.847 228.145 232.86 228.888ZM246.114 227.225V228.85H249.402V227.225H250.392V232.138H245.136V227.225H246.114ZM246.114 231.325H249.402V229.624H246.114V231.325ZM246.279 233.915V233.115H253.477V235.845H247.282V237.089H253.896V237.901H246.304V235.083H252.487V233.915H246.279ZM252.487 232.582V226.742H253.477V229.192H255.178V230.03H253.477V232.582H252.487ZM257.965 233.204V234.702H263.615V233.204H264.605V237.876H256.975V233.204H257.965ZM255.629 232.188V231.363H263.316C263.621 229.96 263.621 228.951 263.615 228.088H256.937V227.263H264.605V228.088C264.605 228.951 264.605 229.954 264.294 231.363H265.963V232.188H255.629ZM257.965 237.063H263.615V235.489H257.965V237.063ZM275.428 226.742V229.472H277.129V230.31H275.428V233.344H274.438V226.742H275.428ZM267.087 232.633V227.39H268.065V229.116H271.353V227.39H272.343V232.633H267.087ZM268.065 231.833H271.353V229.916H268.065V231.833ZM268.344 237.876V233.979H275.517V234.778H269.334V237.063H275.733V237.876H268.344ZM280.602 227.618C282.265 227.625 283.445 229.154 283.458 231.554C283.445 233.959 282.265 235.483 280.602 235.477C278.926 235.483 277.751 233.959 277.758 231.554C277.751 229.154 278.926 227.625 280.602 227.618ZM278.697 231.554C278.704 233.388 279.484 234.594 280.602 234.588C281.731 234.594 282.493 233.388 282.493 231.554C282.493 229.719 281.731 228.513 280.602 228.507C279.484 228.513 278.704 229.719 278.697 231.554ZM285.324 238.028V226.742H286.314V231.249H288.206V232.112H286.314V238.028H285.324ZM301.892 235.756V236.581H291.558V235.756H296.205V233.318H292.777V227.542H293.78V229.586H299.645V227.542H300.623V233.318H297.182V235.756H301.892ZM293.78 232.506H299.645V230.398H293.78V232.506ZM305.885 229.954C305.885 231.75 306.761 233.687 308.259 234.575L307.688 235.35C306.596 234.689 305.815 233.483 305.422 232.106C305.009 233.61 304.171 234.905 303.041 235.591L302.406 234.842C303.968 233.928 304.92 231.928 304.92 229.992V227.809H305.885V229.954ZM307.015 231.643V230.792H308.932V226.983H309.871V237.457H308.932V231.643H307.015ZM311.242 238.028V226.742H312.207V238.028H311.242ZM323.843 235.743V236.581H313.509V235.743H316.073V232.703C315.108 232.201 314.524 231.389 314.524 230.36C314.524 228.615 316.238 227.466 318.65 227.453C321.062 227.466 322.776 228.615 322.776 230.36C322.776 231.37 322.211 232.169 321.278 232.671V235.743H323.843ZM315.489 230.36C315.483 231.624 316.797 232.468 318.65 232.468C320.485 232.468 321.812 231.624 321.812 230.36C321.812 229.097 320.485 228.266 318.65 228.278C316.797 228.266 315.483 229.097 315.489 230.36ZM317.051 235.743H320.275V233.058C319.787 233.185 319.241 233.255 318.65 233.255C318.073 233.255 317.533 233.191 317.051 233.064V235.743ZM325.677 237.076C325.233 237.07 324.852 236.702 324.865 236.251C324.852 235.807 325.233 235.438 325.677 235.438C326.128 235.438 326.496 235.807 326.49 236.251C326.496 236.702 326.128 237.07 325.677 237.076Z" fill="black"/>
<g clip-path="url(#clip0_911_715)">
<path d="M358.274 277H41.7261C33.0408 277 26 284.041 26 292.726V577.741C26 586.426 33.0408 593.467 41.7261 593.467H358.274C366.959 593.467 374 586.426 374 577.741V292.726C374 284.041 366.959 277 358.274 277Z" fill="white"/>
<mask id="mask0_911_715" style="mask-type:luminance" maskUnits="userSpaceOnUse" x="26" y="277" width="348" height="317">
<path d="M358.274 277H41.7261C33.0408 277 26 284.041 26 292.726V577.741C26 586.426 33.0408 593.467 41.7261 593.467H358.274C366.959 593.467 374 586.426 374 577.741V292.726C374 284.041 366.959 277 358.274 277Z" fill="white"/>
</mask>
<g mask="url(#mask0_911_715)">
<path d="M66.2657 302.703C63.2788 301.384 59.6357 302.791 57.4674 305.23C55.2991 307.669 54.3113 310.923 53.5739 314.099C52.6944 317.868 52.0923 321.893 53.3642 325.55C54.3282 328.31 56.2767 330.6 58.2488 332.762C62.0408 336.916 66.0763 340.846 70.3283 344.53" fill="#282828"/>
<path d="M13.005 387.997C11.8481 394.776 7.00408 435.714 12.5212 448.365C13.9623 451.673 15.8938 455.272 19.865 456.49C21.8608 457.102 24.0934 457.008 26.2515 456.838C31.1226 456.453 42.4309 455.624 47.258 454.866C69.0492 451.446 90.5055 457.271 111.955 452.35C113.542 451.984 115.389 451.413 115.849 450.097C116.187 449.126 115.598 448.155 115.03 447.296C106.502 434.445 113.795 383.644 112.706 376.49C111.617 369.332 108.332 362.035 101.296 358C96.9901 355.531 84.667 349.252 79.3833 348.779C66.8741 347.659 62.4361 349.8 50.6779 354.073C42.0283 357.215 23.4135 366.02 19.016 372.863C15.9716 377.603 13.9014 382.751 13.005 388.001V387.997Z" fill="#F6EFEE"/>
<path d="M77.1466 374.099L82.5675 363.827L91.5141 369.376L93.2992 354.34L94.3639 354.467L92.3806 371.175L82.9791 365.344L77.4944 375.739L50.7188 354.625L51.3827 353.783L77.1466 374.099Z" fill="#CDC4C2"/>
<path d="M101.699 400.557L100.637 400.706L99.6562 393.741L100.718 393.592L101.699 400.557Z" fill="#CDC4C2"/>
<path d="M71.839 332.693C71.247 334.723 67.5971 342.087 66.5992 344.685C66.5451 344.827 66.4909 344.969 66.4334 345.111C65.7738 346.809 65.0736 348.45 64.3632 350.131C63.8761 351.281 62.8884 352.634 63.2064 353.679C63.7205 355.374 82.5857 365.275 82.9815 364.115C83.2115 363.442 84.0978 352.715 84.2805 351.535C84.5984 349.495 84.7101 347.543 84.9198 345.504C85.1329 343.423 85.302 341.326 85.4746 339.249C85.6031 337.693 85.4306 335.904 85.7519 334.381C80.8098 333.299 78.0496 333.769 73.9633 330.914" fill="#FFC2B0"/>
<path d="M38.3758 382.967C48.6524 391.376 50.3403 413.807 58.9222 423.992C59.5277 424.709 60.1535 425.453 60.989 425.869C61.9193 426.333 62.9983 426.333 64.0334 426.326C85.4458 426.187 106.862 426.049 128.274 425.91C132.448 425.883 136.72 425.873 140.658 427.283C144.595 428.694 148.198 431.836 149.006 436C149.094 436.45 149.138 436.954 148.874 437.326C148.611 437.705 148.117 437.824 147.663 437.874C143.388 438.348 139.562 435.138 135.303 434.532C131.873 434.045 85.5168 443.253 78.1933 444.477C70.3895 445.783 62.6634 447.64 54.7919 448.415C53.1615 448.574 51.46 448.679 49.931 448.083C48.6456 447.583 47.5936 446.625 46.572 445.685C39.5361 439.197 32.676 426.921 26.002 420.051" fill="#FFC2B0"/>
<path d="M18.9727 399.257C20.7925 408.14 22.8695 416.976 25.2036 425.757C25.3084 426.146 25.4336 426.569 25.7888 426.809C26.3435 427.188 27.1317 426.928 27.7575 426.657C37.229 422.54 46.3555 417.767 55.032 412.396C54.0409 400.461 47.6544 380.152 44.8806 368.451" fill="#F4EFEE"/>
<path d="M91.7227 446.237H168.449L175.647 402.506C175.853 401.251 174.987 400.094 173.841 400.094H100.849C99.9629 400.094 99.2018 400.797 99.0428 401.768L91.7227 446.234V446.237Z" fill="#9A9A9A"/>
<path d="M135.9 411.27C135.9 412.525 136.915 413.54 138.17 413.54C139.425 413.54 140.44 412.525 140.44 411.27C140.44 410.015 139.425 409 138.17 409C136.915 409 135.9 410.015 135.9 411.27Z" fill="#232021"/>
<path d="M55.6312 412.658L53.437 413.997L52.8788 413.082L54.4324 412.133L50.0547 390.277L51.1058 390.066L55.6312 412.658Z" fill="#CDC4C2"/>
<path d="M61.3866 426.232L56.4276 431.651L55.6367 430.927L60.5955 425.508L61.3866 426.232Z" fill="#F88F73"/>
<path d="M83.939 354.904L84.9808 345.829L76.4497 340.393C76.4497 340.393 74.8023 348.782 83.939 354.904Z" fill="#FFB5A6"/>
<path d="M96.0606 330.488C97.6741 327.741 98.7126 327.366 100.062 324.464C100.725 323.036 101.036 321.456 101.162 319.894C101.662 313.764 106.598 310.848 102.176 307.456C98.9426 304.973 95.8339 305.446 94.2644 305.017C94.2644 305.017 88.7743 298.322 81.5083 297.318C70.041 295.731 66.2964 300.934 63.5496 304.025C60.9822 306.918 58.2524 312.059 57.8092 315.96C57.3661 319.856 57.8633 323.76 58.7496 327.474C59.4058 330.218 59.9877 331.226 61.4524 333.522C62.9137 335.819 66.5873 338.16 69.104 338.86" fill="#282828"/>
<path d="M73.5887 329.454C75.6352 331.392 76.0242 322.326 77.0526 321.447C77.9456 320.679 82.7693 314.901 84.0852 314.6C84.1156 314.594 84.1528 314.587 84.19 314.58C84.7042 314.479 85.7393 314.384 87.001 314.509C88.0463 314.536 89.0847 314.641 90.1029 314.874C92.0378 315.321 93.9085 316.271 95.1567 317.8C96.141 319.008 96.6856 320.506 96.9935 322.019C97.281 323.433 97.3723 324.874 97.5144 326.308C97.8594 327.289 98.015 328.385 98.015 329.548C98.1875 329.914 98.2349 330.323 98.262 330.715C98.4582 333.777 97.714 336.781 96.5266 339.575C95.3427 342.369 93.7258 344.977 92.1122 347.575C91.7875 348.099 91.456 348.633 90.9858 349.06C89.6361 350.284 87.3461 350.406 85.4348 349.773C85.4145 349.767 85.3942 349.757 85.374 349.75C80.7228 348.711 75.7502 342.257 73.6766 338.465C70.7608 340.488 65.1523 335.732 65.5041 330.976C65.6495 328.983 68.765 324.877 73.5921 329.45L73.5887 329.454Z" fill="#FFC2B0"/>
<path d="M91.6859 337C91.5133 337 91.3442 336.98 91.1988 336.959C91.0262 336.936 90.9011 336.777 90.9248 336.604C90.9484 336.432 91.104 336.307 91.2799 336.33C91.5201 336.361 91.7704 336.395 91.9768 336.327L92.0343 336.31C92.1155 336.283 92.2575 336.239 92.3286 336.195C91.696 333.631 91.5336 331.74 91.7535 329.46C91.7704 329.284 91.9294 329.156 92.0985 329.176C92.2744 329.193 92.3996 329.348 92.3827 329.521C92.1696 331.737 92.3286 333.577 92.9544 336.09C93.0897 336.631 92.5078 336.821 92.2305 336.912L92.1763 336.929C92.014 336.983 91.8482 337 91.6892 337H91.6859Z" fill="#D2626E"/>
<path d="M86.7772 325.687C86.7433 325.687 86.7061 325.681 86.6723 325.67C85.3057 325.187 83.8782 324.93 82.4304 324.906C82.2545 324.906 82.1158 324.761 82.1192 324.585C82.1192 324.409 82.2647 324.273 82.4406 324.273C83.9594 324.297 85.4545 324.568 86.8854 325.075C87.0512 325.133 87.1357 325.315 87.0782 325.481C87.0309 325.61 86.9091 325.691 86.7805 325.691L86.7772 325.687Z" fill="#D2626E"/>
<path d="M97.8384 326.584C98.8972 332.121 97.7335 340.257 94.8515 345.06C93.5965 347.154 89.7064 351.744 86.8887 349.508" fill="#FFC2B0"/>
<path d="M83.9941 338.674C83.9941 338.871 84.0246 339.07 84.0753 339.263C84.3561 340.312 85.0969 341.228 86.0035 341.81C87.617 342.845 90.2622 343.285 91.7642 341.78C92.028 341.516 92.2614 341.194 92.3088 340.816C92.3561 340.41 92.0787 340.119 91.7878 339.882C91.1316 339.347 90.3198 339.046 89.5451 338.725C88.8043 338.417 88.05 338.143 87.2923 337.89C86.8018 337.724 86.3079 337.572 85.8174 337.416C85.2931 337.25 84.7011 337.291 84.3256 337.734C84.0922 338.005 84.0009 338.336 83.9975 338.678L83.9941 338.674Z" fill="white"/>
<path d="M97.9941 326.247C97.9738 326.247 97.9535 326.247 97.9332 326.24C96.5125 325.959 95.0613 325.912 93.6237 326.098C93.4478 326.118 93.2888 325.996 93.2685 325.824C93.2448 325.651 93.37 325.492 93.5425 325.469C95.0478 325.272 96.5666 325.323 98.055 325.618C98.2275 325.651 98.3391 325.82 98.3053 325.99C98.2749 326.142 98.1429 326.247 97.9941 326.247Z" fill="#B9626D"/>
<path d="M97.9941 326.247C97.9738 326.247 97.9535 326.247 97.9332 326.24C96.5125 325.959 95.0613 325.912 93.6237 326.098C93.4478 326.118 93.2888 325.996 93.2685 325.824C93.2448 325.651 93.37 325.492 93.5425 325.469C95.0478 325.272 96.5666 325.323 98.055 325.618C98.2275 325.651 98.3391 325.82 98.3053 325.99C98.2749 326.142 98.1429 326.247 97.9941 326.247Z" fill="#D2626E"/>
<path d="M88.1546 311.268C88.1546 311.268 92.4032 323.929 71.4509 324.978C71.4509 324.978 68.9849 311.423 88.1546 311.268Z" fill="#282828"/>
<path d="M85.752 311.268C85.752 311.268 90.8936 325.123 100.061 324.467L100.189 311.268H85.752Z" fill="#282828"/>
<path d="M86.5737 329.324C86.7111 328.487 86.41 327.741 85.9011 327.657C85.3923 327.574 84.8685 328.185 84.7311 329.022C84.5938 329.859 84.8949 330.605 85.4037 330.688C85.9125 330.772 86.4364 330.161 86.5737 329.324Z" fill="#232021"/>
<path d="M96.7183 330.99C96.8556 330.153 96.5545 329.407 96.0457 329.323C95.5368 329.24 95.013 329.851 94.8757 330.688C94.7383 331.525 95.0394 332.271 95.5482 332.354C96.0571 332.438 96.5809 331.827 96.7183 330.99Z" fill="#232021"/>
<path d="M160.594 314.942C160.594 309.402 156.06 304.872 150.524 304.872H121.335C115.795 304.872 111.265 309.405 111.264 314.942C111.264 320.327 115.553 324.761 120.884 325.001L121.138 325.009L121.383 325.014L123.11 330.627L126.268 325.012H150.524C156.064 325.012 160.594 320.479 160.594 314.942ZM161.271 314.942C161.271 320.852 156.437 325.689 150.524 325.689H126.664L122.928 332.333L120.879 325.677C115.177 325.434 110.588 320.7 110.588 314.942C110.588 309.032 115.421 304.195 121.335 304.195H150.524C156.434 304.195 161.271 309.028 161.271 314.942Z" fill="#CCCCCC"/>
<path d="M124.524 317.09C125.741 317.09 126.727 316.104 126.727 314.888C126.727 313.671 125.741 312.686 124.524 312.686C123.308 312.686 122.322 313.671 122.322 314.888C122.322 316.104 123.308 317.09 124.524 317.09Z" fill="#CCCCCC"/>
<path d="M135.837 317.09C137.053 317.09 138.039 316.104 138.039 314.888C138.039 313.671 137.053 312.686 135.837 312.686C134.621 312.686 133.635 313.671 133.635 314.888C133.635 316.104 134.621 317.09 135.837 317.09Z" fill="#CCCCCC"/>
<path d="M147.151 317.09C148.368 317.09 149.353 316.104 149.353 314.888C149.353 313.671 148.368 312.686 147.151 312.686C145.935 312.686 144.949 313.671 144.949 314.888C144.949 316.104 145.935 317.09 147.151 317.09Z" fill="#CCCCCC"/>
<path d="M346.006 298.502H198.406C196.155 298.502 194.33 300.327 194.33 302.578V338.543C194.33 340.794 196.155 342.619 198.406 342.619H346.006C348.257 342.619 350.082 340.794 350.082 338.543V302.578C350.082 300.327 348.257 298.502 346.006 298.502Z" fill="white"/>
<path d="M349.575 302.578C349.574 300.607 347.976 299.009 346.006 299.009H198.406C196.435 299.009 194.837 300.607 194.837 302.578V338.542C194.837 340.513 196.435 342.111 198.406 342.111H346.006C347.976 342.111 349.575 340.513 349.575 338.542V302.578ZM350.589 338.542C350.589 341.074 348.537 343.126 346.006 343.126H198.406C195.874 343.126 193.822 341.074 193.822 338.542V302.578C193.822 300.046 195.874 297.994 198.406 297.994H346.006C348.537 297.994 350.589 300.046 350.589 302.578V338.542Z" fill="#BBBBBB"/>
<path d="M217.163 274.822V298.501H216.148V274.822H217.163Z" fill="#BBBBBB"/>
<path d="M329.468 274.822V298.501H328.453V274.822H329.468Z" fill="#BBBBBB"/>
<path d="M299.24 312.33H301.489V328.043H299.24V312.33ZM296.551 317.861H299.51V319.687H296.551V317.861ZM289.041 322.698H290.31C291.178 322.698 291.978 322.687 292.711 322.664C293.455 322.642 294.177 322.602 294.876 322.546C295.575 322.489 296.291 322.41 297.024 322.309L297.244 324.085C296.489 324.209 295.744 324.299 295.011 324.356C294.29 324.412 293.546 324.451 292.779 324.474C292.012 324.496 291.189 324.508 290.31 324.508H289.041V322.698ZM289.041 313.649H296.297V315.476H291.29V323.256H289.041V313.649ZM290.766 318.013H295.773V319.772H290.766V318.013Z" fill="black"/>
<path d="M279.012 315.932H281.482V317.742H279.012V315.932ZM283.985 312.363H286.133V324.067H283.985V312.363ZM280.873 312.617H282.97V323.611H280.873V312.617ZM275.579 325.945H286.522V327.754H275.579V325.945ZM275.579 322.714H277.845V327.078H275.579V322.714ZM275.545 313.395H277.304V315.408C277.304 316.332 277.18 317.229 276.932 318.097C276.695 318.965 276.317 319.749 275.799 320.448C275.291 321.136 274.621 321.677 273.786 322.072L272.568 320.346C273.29 319.997 273.865 319.557 274.294 319.027C274.733 318.497 275.049 317.917 275.241 317.285C275.444 316.654 275.545 316.028 275.545 315.408V313.395ZM275.985 313.395H277.71V315.408C277.71 316.017 277.8 316.609 277.981 317.184C278.161 317.759 278.449 318.289 278.843 318.773C279.249 319.247 279.773 319.647 280.416 319.974L279.198 321.683C278.432 321.31 277.812 320.803 277.338 320.16C276.864 319.518 276.52 318.79 276.306 317.979C276.092 317.155 275.985 316.298 275.985 315.408V313.395Z" fill="black"/>
<path d="M258.008 313.581H265.602V321.175H258.008V313.581ZM263.403 315.374H260.223V319.382H263.403V315.374ZM267.987 312.363H270.236V323.492H267.987V312.363ZM259.801 325.894H270.642V327.687H259.801V325.894ZM259.801 322.494H262.05V326.689H259.801V322.494Z" fill="black"/>
<path d="M247.454 314.088H249.416V314.562C249.416 315.103 249.326 315.628 249.146 316.135C248.977 316.642 248.717 317.116 248.368 317.556C248.018 317.984 247.59 318.373 247.082 318.723C246.586 319.061 246.011 319.349 245.357 319.585C244.703 319.822 243.976 319.991 243.175 320.093L242.346 318.351C243.046 318.26 243.666 318.125 244.207 317.945C244.759 317.753 245.239 317.533 245.645 317.285C246.05 317.026 246.389 316.749 246.659 316.456C246.93 316.163 247.127 315.853 247.251 315.526C247.387 315.199 247.454 314.878 247.454 314.562V314.088ZM248.114 314.088H250.059V314.562C250.059 314.878 250.121 315.199 250.245 315.526C250.38 315.853 250.583 316.163 250.854 316.456C251.125 316.749 251.463 317.026 251.869 317.285C252.286 317.533 252.765 317.753 253.306 317.945C253.848 318.125 254.468 318.26 255.167 318.351L254.338 320.093C253.537 319.991 252.81 319.822 252.156 319.585C251.502 319.349 250.922 319.061 250.414 318.723C249.918 318.373 249.495 317.984 249.146 317.556C248.807 317.116 248.548 316.642 248.368 316.135C248.198 315.628 248.114 315.103 248.114 314.562V314.088ZM247.573 322.291H249.822V328.025H247.573V322.291ZM241.67 320.989H255.843V322.799H241.67V320.989ZM242.922 313.158H254.541V314.934H242.922V313.158Z" fill="black"/>
<path d="M386.016 511.383H0.335938V595.273H386.016V511.383Z" fill="#CDCDCD"/>
<path d="M386.016 451.061H0.335938V534.951H386.016V451.061Z" fill="#9A9A9A"/>
<path d="M203.858 433.016H73.7023C71.6155 433.016 69.9238 434.707 69.9238 436.794V514.031C69.9238 516.118 71.6155 517.809 73.7023 517.809H203.858C205.944 517.809 207.636 516.118 207.636 514.031V436.794C207.636 434.707 205.944 433.016 203.858 433.016Z" fill="white"/>
<path d="M206.791 436.794C206.791 435.174 205.477 433.861 203.858 433.861H73.7022C72.0825 433.861 70.7695 435.174 70.7695 436.794V514.031C70.7695 515.651 72.0825 516.964 73.7022 516.964H203.858C205.477 516.963 206.791 515.65 206.791 514.031V436.794ZM208.482 514.031C208.482 516.585 206.412 518.655 203.858 518.655H73.7022C71.1484 518.655 69.0781 516.585 69.0781 514.031V436.794C69.0781 434.24 71.1484 432.17 73.7022 432.17H203.858C206.412 432.17 208.482 434.24 208.482 436.794V514.031Z" fill="black"/>
<path d="M172.943 447.459V441.309H175.37C175.834 441.309 176.231 441.392 176.559 441.558C176.889 441.722 177.141 441.955 177.313 442.258C177.487 442.558 177.574 442.911 177.574 443.318C177.574 443.726 177.486 444.077 177.31 444.372C177.134 444.664 176.878 444.888 176.544 445.044C176.212 445.201 175.809 445.279 175.337 445.279H173.712V444.234H175.127C175.375 444.234 175.581 444.2 175.745 444.131C175.909 444.063 176.032 443.961 176.112 443.825C176.194 443.689 176.235 443.52 176.235 443.318C176.235 443.113 176.194 442.941 176.112 442.801C176.032 442.661 175.908 442.555 175.742 442.483C175.578 442.409 175.371 442.372 175.121 442.372H174.244V447.459H172.943ZM176.265 444.66L177.793 447.459H176.358L174.862 444.66H176.265Z" fill="black"/>
<path d="M168.65 445.321H169.755L170.311 446.036L170.857 446.672L171.888 447.964H170.674L169.966 447.093L169.602 446.576L168.65 445.321ZM171.981 444.384C171.981 445.055 171.853 445.625 171.599 446.096C171.347 446.566 171.003 446.925 170.566 447.174C170.132 447.42 169.643 447.543 169.101 447.543C168.554 447.543 168.064 447.419 167.629 447.171C167.195 446.922 166.851 446.563 166.599 446.093C166.347 445.622 166.221 445.053 166.221 444.384C166.221 443.713 166.347 443.143 166.599 442.672C166.851 442.202 167.195 441.843 167.629 441.597C168.064 441.349 168.554 441.225 169.101 441.225C169.643 441.225 170.132 441.349 170.566 441.597C171.003 441.843 171.347 442.202 171.599 442.672C171.853 443.143 171.981 443.713 171.981 444.384ZM170.662 444.384C170.662 443.949 170.597 443.583 170.467 443.285C170.339 442.986 170.158 442.76 169.924 442.606C169.689 442.452 169.415 442.375 169.101 442.375C168.786 442.375 168.512 442.452 168.278 442.606C168.044 442.76 167.861 442.986 167.731 443.285C167.603 443.583 167.539 443.949 167.539 444.384C167.539 444.818 167.603 445.185 167.731 445.483C167.861 445.781 168.044 446.008 168.278 446.162C168.512 446.316 168.786 446.393 169.101 446.393C169.415 446.393 169.689 446.316 169.924 446.162C170.158 446.008 170.339 445.781 170.467 445.483C170.597 445.185 170.662 444.818 170.662 444.384Z" fill="black"/>
<path d="M157.242 444.838H158.349V445.65H161.521V444.838H162.637V448.127H157.242V444.838ZM158.349 446.521V447.231H161.521V446.521H158.349ZM157.275 440.686H162.231V441.582H157.275V440.686ZM156.404 443.426H163.499V444.33H156.404V443.426ZM161.554 440.686H162.662V441.311C162.662 441.638 162.654 441.985 162.637 442.352C162.62 442.712 162.558 443.138 162.451 443.628L161.318 443.705C161.436 443.197 161.504 442.755 161.521 442.377C161.543 441.999 161.554 441.644 161.554 441.311V440.686Z" fill="black"/>
<path d="M148.846 440.719H149.962V441.649H151.501V440.719H152.609V444.144H148.846V440.719ZM149.962 442.487V443.273H151.501V442.487H149.962ZM153.658 440.381H154.782V444.356H153.658V440.381ZM154.334 441.878H155.814V442.799H154.334V441.878ZM149.615 444.651H154.782V446.791H150.74V447.713H149.624V445.988H153.674V445.514H149.615V444.651ZM149.624 447.282H155.011V448.161H149.624V447.282Z" fill="black"/>
<path d="M138.881 443.992H145.968V444.879H138.881V443.992ZM142.407 445.311C143.253 445.311 143.918 445.438 144.403 445.691C144.888 445.945 145.13 446.3 145.13 446.757C145.13 447.219 144.888 447.577 144.403 447.831C143.918 448.085 143.253 448.211 142.407 448.211C141.562 448.211 140.896 448.085 140.412 447.831C139.932 447.577 139.693 447.219 139.693 446.757C139.693 446.3 139.932 445.945 140.412 445.691C140.896 445.438 141.562 445.311 142.407 445.311ZM142.407 446.173C142.058 446.173 141.765 446.196 141.528 446.241C141.297 446.28 141.122 446.342 141.003 446.427C140.885 446.512 140.826 446.622 140.826 446.757C140.826 446.892 140.885 447.005 141.003 447.095C141.122 447.18 141.297 447.242 141.528 447.281C141.765 447.321 142.058 447.34 142.407 447.34C142.757 447.34 143.047 447.321 143.278 447.281C143.515 447.242 143.693 447.18 143.811 447.095C143.93 447.005 143.989 446.892 143.989 446.757C143.989 446.622 143.93 446.512 143.811 446.427C143.693 446.342 143.515 446.28 143.278 446.241C143.047 446.196 142.757 446.173 142.407 446.173ZM141.655 441.184H142.653V441.37C142.653 441.601 142.61 441.827 142.526 442.046C142.441 442.261 142.314 442.461 142.145 442.647C141.982 442.827 141.776 442.991 141.528 443.137C141.28 443.278 140.992 443.397 140.665 443.493C140.338 443.588 139.975 443.656 139.574 443.696L139.185 442.816C139.529 442.788 139.834 442.74 140.099 442.672C140.369 442.599 140.6 442.514 140.792 442.419C140.989 442.317 141.15 442.21 141.274 442.097C141.404 441.984 141.5 441.866 141.562 441.742C141.624 441.612 141.655 441.488 141.655 441.37V441.184ZM142.204 441.184H143.194V441.37C143.194 441.494 143.225 441.618 143.287 441.742C143.349 441.866 143.442 441.987 143.566 442.106C143.696 442.218 143.856 442.326 144.048 442.427C144.245 442.523 144.476 442.605 144.741 442.672C145.012 442.74 145.319 442.788 145.663 442.816L145.274 443.696C144.874 443.656 144.51 443.591 144.183 443.501C143.856 443.405 143.569 443.284 143.321 443.137C143.078 442.991 142.872 442.827 142.703 442.647C142.54 442.461 142.416 442.261 142.331 442.046C142.247 441.832 142.204 441.607 142.204 441.37V441.184ZM139.532 440.744H145.333V441.632H139.532V440.744Z" fill="black"/>
<path d="M131.109 444.576H138.196V445.464H131.109V444.576ZM131.972 440.525H137.334V442.648H133.097V443.494H131.989V441.853H136.226V441.38H131.972V440.525ZM131.989 443.164H137.486V444.018H131.989V443.164ZM134.095 443.578H135.211V445.058H134.095V443.578ZM131.887 445.904H137.384V448.187H136.26V446.8H131.887V445.904Z" fill="black"/>
<path d="M123.338 443.958H130.416V444.872H123.338V443.958ZM124.192 442.529H129.613V443.417H124.192V442.529ZM124.192 440.584H129.57V441.489H125.308V442.969H124.192V440.584ZM126.847 445.328C127.693 445.328 128.358 445.455 128.843 445.709C129.328 445.957 129.57 446.312 129.57 446.774C129.57 447.231 129.328 447.583 128.843 447.831C128.358 448.085 127.693 448.212 126.847 448.212C126.002 448.212 125.336 448.085 124.852 447.831C124.372 447.583 124.133 447.231 124.133 446.774C124.133 446.312 124.372 445.957 124.852 445.709C125.336 445.455 126.002 445.328 126.847 445.328ZM126.847 446.182C126.498 446.182 126.205 446.205 125.968 446.25C125.737 446.289 125.562 446.354 125.444 446.444C125.325 446.529 125.266 446.639 125.266 446.774C125.266 446.904 125.325 447.014 125.444 447.104C125.562 447.189 125.737 447.254 125.968 447.299C126.205 447.338 126.498 447.358 126.847 447.358C127.197 447.358 127.487 447.338 127.718 447.299C127.955 447.254 128.133 447.189 128.251 447.104C128.37 447.014 128.429 446.904 128.429 446.774C128.429 446.639 128.37 446.529 128.251 446.444C128.133 446.354 127.955 446.289 127.718 446.25C127.487 446.205 127.197 446.182 126.847 446.182Z" fill="black"/>
<path d="M115.939 440.99H119.737V444.787H115.939V440.99ZM118.637 441.886H117.047V443.89H118.637V441.886ZM120.929 440.381H122.054V445.945H120.929V440.381ZM116.836 447.146H122.257V448.043H116.836V447.146ZM116.836 445.446H117.961V447.544H116.836V445.446Z" fill="black"/>
<path d="M110.662 441.242H111.643V441.479C111.643 441.75 111.598 442.012 111.507 442.266C111.423 442.519 111.293 442.756 111.118 442.976C110.944 443.19 110.729 443.385 110.476 443.56C110.228 443.729 109.94 443.872 109.613 443.991C109.286 444.109 108.922 444.194 108.522 444.245L108.108 443.374C108.457 443.328 108.767 443.261 109.038 443.171C109.314 443.075 109.554 442.965 109.757 442.841C109.96 442.711 110.129 442.573 110.264 442.426C110.4 442.28 110.498 442.125 110.56 441.961C110.628 441.798 110.662 441.637 110.662 441.479V441.242ZM110.992 441.242H111.964V441.479C111.964 441.637 111.995 441.798 112.057 441.961C112.125 442.125 112.226 442.28 112.362 442.426C112.497 442.573 112.666 442.711 112.869 442.841C113.078 442.965 113.317 443.075 113.588 443.171C113.858 443.261 114.168 443.328 114.518 443.374L114.104 444.245C113.703 444.194 113.34 444.109 113.013 443.991C112.686 443.872 112.395 443.729 112.142 443.56C111.894 443.385 111.682 443.19 111.507 442.976C111.338 442.756 111.209 442.519 111.118 442.266C111.034 442.012 110.992 441.75 110.992 441.479V441.242ZM110.721 445.344H111.846V448.211H110.721V445.344ZM107.77 444.693H114.856V445.598H107.77V444.693ZM108.395 440.777H114.205V441.665H108.395V440.777Z" fill="black"/>
<path d="M100.233 440.601C100.639 440.601 100.997 440.68 101.307 440.838C101.623 440.99 101.871 441.201 102.052 441.472C102.238 441.737 102.331 442.044 102.331 442.394C102.331 442.743 102.238 443.053 102.052 443.324C101.871 443.589 101.623 443.797 101.307 443.95C100.997 444.102 100.639 444.178 100.233 444.178C99.8387 444.178 99.4835 444.102 99.1678 443.95C98.8521 443.797 98.6012 443.589 98.4151 443.324C98.2347 443.053 98.1445 442.743 98.1445 442.394C98.1445 442.044 98.2347 441.734 98.4151 441.463C98.6012 441.193 98.8521 440.981 99.1678 440.829C99.4835 440.677 99.8387 440.601 100.233 440.601ZM100.242 441.514C100.05 441.514 99.8782 441.551 99.7259 441.624C99.5737 441.692 99.4525 441.79 99.3623 441.92C99.2777 442.05 99.2354 442.208 99.2354 442.394C99.2354 442.58 99.2777 442.74 99.3623 442.876C99.4525 443.005 99.5709 443.104 99.7175 443.172C99.8697 443.239 100.044 443.273 100.242 443.273C100.433 443.273 100.603 443.239 100.749 443.172C100.901 443.104 101.02 443.005 101.104 442.876C101.195 442.74 101.24 442.58 101.24 442.394C101.24 442.208 101.195 442.05 101.104 441.92C101.02 441.79 100.901 441.692 100.749 441.624C100.597 441.551 100.428 441.514 100.242 441.514ZM103.413 440.381H104.538V444.296H103.413V440.381ZM99.32 444.618H104.538V446.757H100.436V447.713H99.3285V445.945H103.422V445.48H99.32V444.618ZM99.3285 447.248H104.732V448.127H99.3285V447.248Z" fill="black"/>
<path d="M95.2514 440.381H96.3846V448.212H95.2514V440.381ZM96.1393 443.29H97.5178V444.22H96.1393V443.29ZM90.4902 440.99H91.6065V442.901H93.1795V440.99H94.2958V446.394H90.4902V440.99ZM91.6065 443.772V445.497H93.1795V443.772H91.6065Z" fill="black"/>
<path d="M82.4746 446.384H89.5698V447.298H82.4746V446.384ZM85.4514 444.659H86.5677V446.604H85.4514V444.659ZM83.2188 440.955H88.7918V444.803H83.2188V440.955ZM87.6839 441.843H84.3266V443.906H87.6839V441.843Z" fill="black"/>
<path d="M121.64 463.529H114.408V470.761H121.64V463.529ZM120.605 469.73H115.44V464.564H120.605V469.73Z" fill="black"/>
<path d="M123.704 463.529H122.672V464.561H123.704V463.529Z" fill="black"/>
<path d="M126.807 465.596V464.564H128.87V463.529H125.771V465.596H126.807Z" fill="black"/>
<path d="M130.936 466.628V465.596H133.003V463.529H131.971V464.564H130.936V463.529H129.904V466.628H130.936Z" fill="black"/>
<path d="M136.101 464.564V466.628H135.069V464.564H134.034V466.628H130.936V467.663H133.002V468.695H134.034V467.663H135.069V468.695H134.034V469.73H135.069V470.761H136.101V469.73H137.136V466.628H139.199V468.695H140.235V465.596H138.168V463.529H135.069V464.564H136.101Z" fill="black"/>
<path d="M141.268 463.529V470.761H148.5V463.529H141.268ZM147.468 469.73H142.303V464.564H147.468V469.73Z" fill="black"/>
<path d="M119.573 465.596H116.475V468.694H119.573V465.596Z" fill="black"/>
<path d="M127.837 469.729H128.869V467.663H127.837V466.627H126.806V467.663H125.77V466.627H124.739V465.596H122.672V466.627H123.704V467.663H124.739V468.694H126.806V470.761H127.837V469.729Z" fill="black"/>
<path d="M146.433 465.596H143.334V468.694H146.433V465.596Z" fill="black"/>
<path d="M129.901 466.627H128.869V467.659H129.901V466.627Z" fill="black"/>
<path d="M123.704 467.662H122.672V468.694H123.704V467.662Z" fill="black"/>
<path d="M130.936 467.662H129.904V468.694H130.936V467.662Z" fill="black"/>
<path d="M130.936 470.762H131.971V469.73H133.002V468.695H130.936V470.762Z" fill="black"/>
<path d="M123.704 469.73H122.672V471.797H123.704V469.73Z" fill="black"/>
<path d="M126.806 473.861V470.762H125.771V469.73H124.739V471.794H125.771V472.829H124.739V471.794H123.704V472.829H122.672V473.861H120.605V474.896H124.739V473.861H126.806Z" fill="black"/>
<path d="M129.901 469.73H128.869V470.762H129.901V469.73Z" fill="black"/>
<path d="M134.034 469.73H133.002V470.762H134.034V469.73Z" fill="black"/>
<path d="M138.168 469.73H137.137V470.762H138.168V469.73Z" fill="black"/>
<path d="M139.2 471.794V472.829H140.235V469.73H139.2V470.762H138.168V471.794H139.2Z" fill="black"/>
<path d="M134.034 473.86V474.895H133.003V473.86H134.034V471.793H133.003V472.829H131.971V471.793H130.936V470.762H129.904V472.829H130.936V473.86H128.869V474.895H129.904V475.927H134.034V476.959H135.07V473.86H134.034Z" fill="black"/>
<path d="M135.067 470.762H134.035V471.793H135.067V470.762Z" fill="black"/>
<path d="M121.641 472.828V471.793H119.574V472.828H118.539V473.86H120.606V472.828H121.641Z" fill="black"/>
<path d="M136.102 471.793H135.07V472.825H136.102V471.793Z" fill="black"/>
<path d="M138.168 471.793H137.137V472.828H136.102V473.86H137.137V474.895H138.168V473.86H139.2V472.828H138.168V471.793Z" fill="black"/>
<path d="M142.303 471.793H141.268V472.825H142.303V471.793Z" fill="black"/>
<path d="M144.366 471.793H143.334V472.828H142.303V473.86H144.366V471.793Z" fill="black"/>
<path d="M147.467 474.895H146.432V473.86H147.467V472.828H146.432V471.793H145.4V475.927H146.432V476.958H147.467V474.895Z" fill="black"/>
<path d="M148.499 471.793H147.467V472.825H148.499V471.793Z" fill="black"/>
<path d="M115.44 479.025H116.475V473.86H115.44V472.828H114.408V474.895H115.44V475.927H114.408V476.958H115.44V479.025Z" fill="black"/>
<path d="M117.506 472.828H116.475V473.86H117.506V472.828Z" fill="black"/>
<path d="M128.87 472.828H127.838V473.86H128.87V472.828Z" fill="black"/>
<path d="M140.231 473.859H139.199V474.891H140.231V473.859Z" fill="black"/>
<path d="M142.303 473.859H141.268V474.891H142.303V473.859Z" fill="black"/>
<path d="M119.574 476.958H121.641V475.926H120.606V474.895H119.574V476.958Z" fill="black"/>
<path d="M127.837 475.926V474.895H124.739V475.926H122.672V476.958H124.739V477.993H125.77V476.958H126.806V475.926H127.837Z" fill="black"/>
<path d="M136.102 476.958H135.07V477.993H137.137V474.895H136.102V476.958Z" fill="black"/>
<path d="M138.168 475.926V477.993H139.2V476.958H140.235V477.993H143.333V475.926H141.267V474.895H140.235V475.926H138.168Z" fill="black"/>
<path d="M144.369 474.895H143.334V475.926H144.369V474.895Z" fill="black"/>
<path d="M118.538 476.959H117.506V477.991H118.538V476.959Z" fill="black"/>
<path d="M128.87 477.994H130.937V476.959H126.807V477.994H127.838V479.026H126.807V480.061H128.87V477.994Z" fill="black"/>
<path d="M133.002 477.994H131.971V479.026H134.034V476.959H133.002V477.994Z" fill="black"/>
<path d="M146.432 476.959H145.4V477.991H146.432V476.959Z" fill="black"/>
<path d="M148.499 476.959H147.467V477.991H148.499V476.959Z" fill="black"/>
<path d="M147.467 494.521H145.4V495.553H144.368V493.486H145.4V492.451H144.368V488.318H140.235V486.251H141.266V485.219H138.168V484.187H137.136V486.254H136.104V483.156H135.073V485.222H134.041V482.124H135.073V481.092H134.041V480.06H133.009V481.092H131.978V479.025H129.911V480.057H130.942V481.089H129.911V482.12H128.879V483.152H127.847V481.085H126.816V480.054H125.784V479.022H122.685V477.99H119.587V479.022H121.654V480.054H119.587V479.022H117.52V480.054H118.552V481.085H116.485V482.117H115.453V483.149H117.52V482.117H119.587V481.085H123.72V480.054H124.752V482.12H120.618V483.152H122.685V484.184H120.618V485.216H121.65V486.247H123.717V487.279H124.749V485.212H123.717V483.145H125.784V484.177H130.949V482.11H133.016V483.142H131.984V484.174H133.016V486.241H135.083V487.272H138.181V486.241H139.213V487.272H138.181V488.304H137.15V490.371H138.181V489.339H139.213V490.371H138.181V492.438H139.213V493.473H142.312V495.54H143.343V496.571H144.378V497.603H145.41V496.571H146.442V495.54H148.509V493.473H147.477V494.504L147.467 494.521ZM143.333 492.455H140.235V489.356H143.333V492.455Z" fill="black"/>
<path d="M147.463 477.994H146.432V479.026H147.463V477.994Z" fill="black"/>
<path d="M116.475 480.06H115.44V479.025H114.408V481.092H116.475V480.06Z" fill="black"/>
<path d="M135.067 479.025H134.035V480.057H135.067V479.025Z" fill="black"/>
<path d="M142.302 481.092H139.2V480.06H140.235V479.025H138.168V480.06H137.137V481.092H138.168V484.191H142.302V481.092Z" fill="black"/>
<path d="M144.366 480.06V479.025H142.303V480.06H143.334V481.092H145.401V480.06H144.366Z" fill="black"/>
<path d="M146.432 479.025H145.4V480.057H146.432V479.025Z" fill="black"/>
<path d="M148.499 479.025H147.467V480.057H148.499V479.025Z" fill="black"/>
<path d="M145.4 483.159H144.365V484.19H146.432V483.159H148.499V481.092H145.4V483.159Z" fill="black"/>
<path d="M137.133 482.123H136.102V483.155H137.133V482.123Z" fill="black"/>
<path d="M144.369 482.123H143.334V483.155H144.369V482.123Z" fill="black"/>
<path d="M120.606 483.158H118.539V484.19H120.606V483.158Z" fill="black"/>
<path d="M117.506 484.191H115.439V485.223H117.506V484.191Z" fill="black"/>
<path d="M125.77 484.191H124.738V485.223H125.77V484.191Z" fill="black"/>
<path d="M144.366 487.29V484.191H143.334V485.227H142.303V486.258H141.268V487.29H144.366Z" fill="black"/>
<path d="M116.475 488.325H115.44V485.227H114.408V489.357H116.475V488.325Z" fill="black"/>
<path d="M120.606 485.227H119.574V486.258H120.606V485.227Z" fill="black"/>
<path d="M128.87 486.258H127.838V485.227H126.807V486.258H125.771V487.29H128.87V486.258Z" fill="black"/>
<path d="M129.901 485.227H128.869V486.258H129.901V485.227Z" fill="black"/>
<path d="M131.967 485.227H130.936V486.258H131.967V485.227Z" fill="black"/>
<path d="M147.463 485.227H146.432V486.258H147.463V485.227Z" fill="black"/>
<path d="M117.506 486.258H116.475V487.29H117.506V486.258Z" fill="black"/>
<path d="M121.637 486.258H120.605V487.29H121.637V486.258Z" fill="black"/>
<path d="M146.432 486.258H145.4V488.325H146.432V486.258Z" fill="black"/>
<path d="M118.538 487.289H117.506V488.321H118.538V487.289Z" fill="black"/>
<path d="M123.704 487.289H122.672V488.321H123.704V487.289Z" fill="black"/>
<path d="M125.77 487.289H124.738V488.321H125.77V487.289Z" fill="black"/>
<path d="M130.936 487.289H129.904V488.321H130.936V487.289Z" fill="black"/>
<path d="M135.067 487.289H134.035V488.321H135.067V487.289Z" fill="black"/>
<path d="M147.467 489.356H146.432V490.391H148.498V487.289H147.467V489.356Z" fill="black"/>
<path d="M121.641 488.324H119.574V489.356H121.641V488.324Z" fill="black"/>
<path d="M124.735 488.324H123.703V489.356H124.735V488.324Z" fill="black"/>
<path d="M135.071 491.423H134.035V490.391H135.071V489.356H134.035V488.324H131.972V489.356H129.905V488.324H127.838V489.356H126.807V491.423H127.838V490.391H133.004V492.454H131.972V493.49H134.035V494.521H135.071V493.49H136.102V494.521H138.169V495.556H140.236V494.521H139.201V493.49H137.137V492.454H136.102V491.423H137.137V490.391H135.071V491.423Z" fill="black"/>
<path d="M136.102 488.324H135.07V489.356H136.102V488.324Z" fill="black"/>
<path d="M123.704 489.355H122.672V490.387H123.704V489.355Z" fill="black"/>
<path d="M125.77 489.355H124.738V490.387H125.77V489.355Z" fill="black"/>
<path d="M114.408 490.391V497.623H121.64V490.391H114.408ZM120.605 496.588H115.44V491.422H120.605V496.588Z" fill="black"/>
<path d="M142.303 490.391H141.268V491.426H142.303V490.391Z" fill="black"/>
<path d="M146.432 490.391H145.4V492.457H146.432V490.391Z" fill="black"/>
<path d="M123.704 491.424H122.672V492.456H123.704V491.424Z" fill="black"/>
<path d="M125.77 496.589V495.557H126.805V494.522H127.837V493.491H128.868V492.456H126.805V491.424H125.77V494.522H124.738V495.557H123.703V496.589H124.738V497.621H126.805V496.589H125.77Z" fill="black"/>
<path d="M129.904 493.491H130.936V492.456H131.971V491.424H128.869V492.456H129.904V493.491Z" fill="black"/>
<path d="M148.499 491.424H147.467V492.456H148.499V491.424Z" fill="black"/>
<path d="M119.573 492.455H116.475V495.554H119.573V492.455Z" fill="black"/>
<path d="M147.463 492.455H146.432V493.49H147.463V492.455Z" fill="black"/>
<path d="M129.901 493.49H128.869V494.522H129.901V493.49Z" fill="black"/>
<path d="M131.967 493.49H130.936V494.522H131.967V493.49Z" fill="black"/>
<path d="M130.936 494.521H129.904V495.553H130.936V494.521Z" fill="black"/>
<path d="M134.034 494.521H133.002V495.553H134.034V494.521Z" fill="black"/>
<path d="M128.87 495.557V496.588H127.838V497.62H129.905V495.557H128.87Z" fill="black"/>
<path d="M133.002 495.557H130.936V496.588H133.002V495.557Z" fill="black"/>
<path d="M135.067 495.557H134.035V496.588H135.067V495.557Z" fill="black"/>
<path d="M138.168 495.557H136.102V496.588H138.168V495.557Z" fill="black"/>
<path d="M134.034 496.588H133.002V497.62H134.034V496.588Z" fill="black"/>
<path d="M136.102 496.588H135.07V497.62H136.102V496.588Z" fill="black"/>
<path d="M142.302 496.588H138.168V497.62H142.302V496.588Z" fill="black"/>
<path d="M147.463 496.588H146.432V497.62H147.463V496.588Z" fill="black"/>
<path d="M152.09 464.037C152.09 461.774 150.255 459.939 147.992 459.939H114.916C112.653 459.939 110.818 461.774 110.818 464.037V497.113C110.818 499.376 112.653 501.211 114.916 501.211H147.992C150.255 501.211 152.09 499.376 152.09 497.113V464.037ZM153.758 497.113C153.758 500.297 151.176 502.879 147.992 502.879H114.916C111.732 502.879 109.15 500.297 109.15 497.113V464.037C109.15 460.853 111.732 458.271 114.916 458.271H147.992C151.176 458.272 153.758 460.853 153.758 464.037V497.113Z" fill="black"/>
<path d="M345.122 403.586H193.176V593.466H345.122V403.586Z" fill="#333333"/>
<path d="M331.93 376.262H206.368C199.082 376.262 193.176 382.168 193.176 389.454V592.188C193.176 599.474 199.082 605.381 206.368 605.381H331.93C339.216 605.381 345.122 599.474 345.122 592.188V389.454C345.122 382.168 339.216 376.262 331.93 376.262Z" fill="white"/>
<path d="M193.176 403.586H345.122V592.776C345.122 599.734 339.473 605.38 332.519 605.38H205.78C198.821 605.38 193.176 599.731 193.176 592.776V403.586Z" fill="#333333"/>
<path d="M343.816 389.247C343.816 382.823 338.608 377.614 332.183 377.614H206.161C199.737 377.614 194.528 382.823 194.528 389.247V592.394C194.528 598.819 199.737 604.027 206.161 604.027H332.183C338.608 604.027 343.816 598.819 343.816 592.394V389.247ZM346.522 592.394C346.522 600.314 340.103 606.733 332.183 606.733H206.161C198.242 606.733 191.822 600.314 191.822 592.394V389.247C191.822 381.328 198.242 374.908 206.161 374.908H332.183C340.103 374.908 346.522 381.328 346.522 389.247V592.394Z" fill="black"/>
<path d="M332.182 605.945C339.666 605.945 345.733 599.878 345.733 592.394V389.247C345.733 381.763 339.666 375.696 332.182 375.696H206.16C198.677 375.696 192.61 381.763 192.61 389.247V592.394C192.61 599.878 198.676 605.945 206.16 605.945H332.182ZM206.16 608.651C197.182 608.651 189.903 601.373 189.903 592.394V389.247C189.903 380.269 197.182 372.99 206.16 372.99H332.182C341.161 372.99 348.439 380.269 348.439 389.247V592.394C348.439 601.373 341.161 608.651 332.182 608.651H206.16Z" fill="#BDBFC1"/>
<path d="M343.816 389.247C343.816 382.823 338.608 377.614 332.183 377.614H206.161C199.737 377.614 194.528 382.823 194.528 389.247V592.394C194.528 598.819 199.737 604.027 206.161 604.027H332.183C338.608 604.027 343.816 598.819 343.816 592.394V389.247ZM346.522 592.394C346.522 600.314 340.103 606.733 332.183 606.733H206.161C198.242 606.733 191.822 600.314 191.822 592.394V389.247C191.822 381.328 198.242 374.908 206.161 374.908H332.183C340.103 374.908 346.522 381.328 346.522 389.247V592.394Z" fill="black"/>
<path d="M348.651 413.174H348.647C347.444 413.174 346.469 414.149 346.469 415.352V461.286C346.469 462.489 347.444 463.464 348.647 463.464H348.651C349.854 463.464 350.829 462.489 350.829 461.286V415.352C350.829 414.149 349.854 413.174 348.651 413.174Z" fill="#BDBFC1"/>
<path d="M348.651 477.668H348.647C347.444 477.668 346.469 478.643 346.469 479.846V505.822C346.469 507.025 347.444 508 348.647 508H348.651C349.854 508 350.829 507.025 350.829 505.822V479.846C350.829 478.643 349.854 477.668 348.651 477.668Z" fill="#BDBFC1"/>
<path d="M319.465 425.961H219.267C214.679 425.961 210.959 429.681 210.959 434.269V535.069C210.959 539.658 214.679 543.377 219.267 543.377H319.465C324.054 543.377 327.773 539.658 327.773 535.069V434.269C327.773 429.681 324.054 425.961 319.465 425.961Z" fill="white"/>
<path d="M326.757 434.268C326.757 430.24 323.492 426.975 319.464 426.975H219.266C215.238 426.975 211.973 430.24 211.973 434.268V535.068C211.973 539.096 215.238 542.362 219.266 542.362H319.464C323.492 542.362 326.757 539.096 326.757 535.068V434.268ZM328.787 535.068C328.787 540.217 324.613 544.391 319.464 544.391H219.266C214.117 544.391 209.943 540.217 209.943 535.068V434.268C209.943 429.119 214.117 424.945 219.266 424.945H319.464C324.613 424.945 328.787 429.119 328.787 434.268V535.068Z" fill="#006BEE"/>
<path d="M316.816 535.65C318.6 535.65 320.047 534.204 320.047 532.419V436.916C320.047 435.132 318.6 433.686 316.816 433.686H221.915C220.131 433.686 218.684 435.132 218.684 436.916V532.419C218.684 534.204 220.131 535.65 221.915 535.65H316.816ZM221.915 537.679C219.01 537.679 216.655 535.325 216.655 532.419V436.916C216.655 434.011 219.01 431.656 221.915 431.656H316.816C319.721 431.656 322.076 434.011 322.076 436.916V532.419C322.076 535.325 319.721 537.679 316.816 537.679H221.915Z" fill="#FF003A"/>
<path d="M247.893 447.375H232.072V463.196H247.893V447.375ZM245.633 460.936H234.332V449.635H245.633V460.936Z" fill="black"/>
<path d="M252.412 447.375H250.152V449.635H252.412V447.375Z" fill="black"/>
<path d="M259.195 451.894V449.635H263.714V447.375H256.936V451.894H259.195Z" fill="black"/>
<path d="M268.232 454.154V451.894H272.755V447.375H270.495V449.635H268.232V447.375H265.973V454.154H268.232Z" fill="black"/>
<path d="M279.534 449.635V454.154H277.274V449.635H275.015V454.154H268.232V456.417H272.755V458.677H275.015V456.417H277.274V458.677H275.015V460.936H277.274V463.196H279.534V460.936H281.794V454.154H286.316V458.677H288.576V451.894H284.057V447.375H277.274V449.635H279.534Z" fill="black"/>
<path d="M290.836 447.375V463.196H306.657V447.375H290.836ZM304.397 460.936H293.096V449.635H304.397V460.936Z" fill="black"/>
<path d="M243.371 451.895H236.592V458.673H243.371V451.895Z" fill="black"/>
<path d="M261.454 460.936H263.713V456.417H261.454V454.154H259.194V456.417H256.935V454.154H254.672V451.895H250.152V454.154H252.412V456.417H254.672V458.677H259.194V463.196H261.454V460.936Z" fill="black"/>
<path d="M302.138 451.895H295.355V458.673H302.138V451.895Z" fill="black"/>
<path d="M265.973 454.154H263.713V456.414H265.973V454.154Z" fill="black"/>
<path d="M252.412 456.416H250.152V458.676H252.412V456.416Z" fill="black"/>
<path d="M268.232 456.416H265.973V458.676H268.232V456.416Z" fill="black"/>
<path d="M268.232 463.195H270.495V460.935H272.755V458.676H268.232V463.195Z" fill="black"/>
<path d="M252.412 460.936H250.152V465.455H252.412V460.936Z" fill="black"/>
<path d="M259.194 469.977V463.195H256.934V460.936H254.671V465.455H256.934V467.718H254.671V465.455H252.412V467.718H250.152V469.977H245.633V472.237H254.671V469.977H259.194Z" fill="black"/>
<path d="M265.973 460.936H263.713V463.195H265.973V460.936Z" fill="black"/>
<path d="M275.016 460.936H272.756V463.195H275.016V460.936Z" fill="black"/>
<path d="M284.055 460.936H281.795V463.195H284.055V460.936Z" fill="black"/>
<path d="M286.316 465.455V467.718H288.576V460.936H286.316V463.195H284.057V465.455H286.316Z" fill="black"/>
<path d="M275.014 469.978V472.237H272.755V469.978H275.014V465.455H272.755V467.718H270.495V465.455H268.232V463.195H265.973V467.718H268.232V469.978H263.713V472.237H265.973V474.497H275.014V476.756H277.274V469.978H275.014Z" fill="black"/>
<path d="M277.275 463.195H275.016V465.455H277.275V463.195Z" fill="black"/>
<path d="M247.894 467.718V465.455H243.374V467.718H241.111V469.978H245.634V467.718H247.894Z" fill="black"/>
<path d="M279.535 465.455H277.275V467.715H279.535V465.455Z" fill="black"/>
<path d="M284.058 465.455H281.795V467.718H279.535V469.978H281.795V472.237H284.058V469.978H286.317V467.718H284.058V465.455Z" fill="black"/>
<path d="M293.096 465.455H290.836V467.715H293.096V465.455Z" fill="black"/>
<path d="M297.618 465.455H295.355V467.718H293.096V469.978H297.618V465.455Z" fill="black"/>
<path d="M304.398 472.237H302.139V469.978H304.398V467.718H302.139V465.455H299.879V474.497H302.139V476.757H304.398V472.237Z" fill="black"/>
<path d="M306.656 465.455H304.396V467.715H306.656V465.455Z" fill="black"/>
<path d="M234.332 481.277H236.592V469.978H234.332V467.719H232.072V472.238H234.332V474.498H232.072V476.757H234.332V481.277Z" fill="black"/>
<path d="M238.851 467.719H236.592V469.978H238.851V467.719Z" fill="black"/>
<path d="M263.715 467.719H261.455V469.978H263.715V467.719Z" fill="black"/>
<path d="M288.576 469.979H286.316V472.238H288.576V469.979Z" fill="black"/>
<path d="M293.096 469.979H290.836V472.238H293.096V469.979Z" fill="black"/>
<path d="M243.373 476.758H247.892V474.498H245.633V472.238H243.373V476.758Z" fill="black"/>
<path d="M261.454 474.498V472.238H254.672V474.498H250.152V476.758H254.672V479.017H256.935V476.758H259.194V474.498H261.454Z" fill="black"/>
<path d="M279.535 476.758H277.275V479.017H281.795V472.238H279.535V476.758Z" fill="black"/>
<path d="M284.057 474.498V479.017H286.316V476.758H288.576V479.017H295.355V474.498H290.836V472.238H288.576V474.498H284.057Z" fill="black"/>
<path d="M297.615 472.238H295.355V474.498H297.615V472.238Z" fill="black"/>
<path d="M241.111 476.758H238.852V479.017H241.111V476.758Z" fill="black"/>
<path d="M263.715 479.017H268.234V476.758H259.195V479.017H261.455V481.277H259.195V483.54H263.715V479.017Z" fill="black"/>
<path d="M272.756 479.017H270.496V481.277H275.015V476.758H272.756V479.017Z" fill="black"/>
<path d="M302.139 476.758H299.879V479.017H302.139V476.758Z" fill="black"/>
<path d="M306.656 476.758H304.396V479.017H306.656V476.758Z" fill="black"/>
<path d="M304.397 515.181H299.878V517.441H297.618V512.921H299.878V510.662H297.618V501.62H288.576V497.1H290.836V494.841H284.057V492.581H281.797V497.1H279.538V490.322H277.278V494.841H275.019V488.062H277.278V485.802H275.019V483.543H272.759V485.802H270.499V481.283H265.98V483.543H268.24V485.802H265.98V488.062H263.72V490.322H261.461V485.802H259.201V483.543H256.941V481.283H250.163V479.023H243.38V481.283H247.9V483.543H243.38V481.283H238.861V483.543H241.121V485.802H236.601V488.062H234.342V490.322H238.861V488.062H243.38V485.802H252.422V483.543H254.682V488.062H245.64V490.322H250.159V492.581H245.64V494.841H247.9V497.1H252.419V499.36H254.678V494.841H252.419V490.322H256.938V492.581H268.24V488.062H272.759V490.322H270.499V492.581H272.759V497.1H277.278V499.36H284.057V497.1H286.317V499.36H284.057V501.62H281.797V506.139H284.057V503.879H286.317V506.139H284.057V510.658H286.317V512.918H293.099V517.437H295.359V519.697H297.618V521.956H299.878V519.697H302.137V517.437H306.657V512.918H304.397V515.178V515.181ZM295.355 510.658H288.576V503.879H295.355V510.658Z" fill="black"/>
<path d="M304.398 479.016H302.139V481.275H304.398V479.016Z" fill="black"/>
<path d="M236.592 483.538H234.332V481.275H232.072V485.798H236.592V483.538Z" fill="black"/>
<path d="M277.275 481.275H275.016V483.535H277.275V481.275Z" fill="black"/>
<path d="M293.096 485.798H286.318V483.538H288.577V481.275H284.058V483.538H281.795V485.798H284.058V492.577H293.096V485.798Z" fill="black"/>
<path d="M297.618 483.538V481.275H293.096V483.538H295.355V485.798H299.878V483.538H297.618Z" fill="black"/>
<path d="M302.139 481.275H299.879V483.535H302.139V481.275Z" fill="black"/>
<path d="M306.656 481.275H304.396V483.535H306.656V481.275Z" fill="black"/>
<path d="M299.879 490.318H297.619V492.578H302.138V490.318H306.658V485.799H299.879V490.318Z" fill="black"/>
<path d="M281.795 488.059H279.535V490.318H281.795V488.059Z" fill="black"/>
<path d="M297.615 488.059H295.355V490.318H297.615V488.059Z" fill="black"/>
<path d="M245.631 490.318H241.111V492.578H245.631V490.318Z" fill="black"/>
<path d="M238.851 492.578H234.332V494.838H238.851V492.578Z" fill="black"/>
<path d="M256.932 492.578H254.672V494.838H256.932V492.578Z" fill="black"/>
<path d="M297.618 499.36V492.578H295.355V494.841H293.096V497.101H290.836V499.36H297.618Z" fill="black"/>
<path d="M236.592 501.619H234.332V494.84H232.072V503.878H236.592V501.619Z" fill="black"/>
<path d="M245.633 494.84H243.373V497.099H245.633V494.84Z" fill="black"/>
<path d="M263.714 497.099H261.455V494.84H259.195V497.099H256.936V499.359H263.714V497.099Z" fill="black"/>
<path d="M265.973 494.84H263.713V497.099H265.973V494.84Z" fill="black"/>
<path d="M270.492 494.84H268.232V497.099H270.492V494.84Z" fill="black"/>
<path d="M304.398 494.84H302.139V497.099H304.398V494.84Z" fill="black"/>
<path d="M238.851 497.1H236.592V499.359H238.851V497.1Z" fill="black"/>
<path d="M247.892 497.1H245.633V499.359H247.892V497.1Z" fill="black"/>
<path d="M302.139 497.1H299.879V501.619H302.139V497.1Z" fill="black"/>
<path d="M241.111 499.359H238.852V501.619H241.111V499.359Z" fill="black"/>
<path d="M252.412 499.359H250.152V501.619H252.412V499.359Z" fill="black"/>
<path d="M256.932 499.359H254.672V501.619H256.932V499.359Z" fill="black"/>
<path d="M268.232 499.359H265.973V501.619H268.232V499.359Z" fill="black"/>
<path d="M277.275 499.359H275.016V501.619H277.275V499.359Z" fill="black"/>
<path d="M304.398 503.879H302.139V506.138H306.658V499.359H304.398V503.879Z" fill="black"/>
<path d="M247.892 501.619H243.373V503.879H247.892V501.619Z" fill="black"/>
<path d="M254.672 501.619H252.412V503.879H254.672V501.619Z" fill="black"/>
<path d="M277.276 508.401H275.016V506.138H277.276V503.879H275.016V501.619H270.497V503.879H265.974V501.619H261.455V503.879H259.195V508.401H261.455V506.138H272.756V510.658H270.497V512.921H275.016V515.18H277.276V512.921H279.535V515.18H284.058V517.44H288.577V515.18H286.318V512.921H281.795V510.658H279.535V508.401H281.795V506.138H277.276V508.401Z" fill="black"/>
<path d="M279.535 501.619H277.275V503.879H279.535V501.619Z" fill="black"/>
<path d="M252.412 503.879H250.152V506.139H252.412V503.879Z" fill="black"/>
<path d="M256.932 503.879H254.672V506.139H256.932V503.879Z" fill="black"/>
<path d="M232.072 506.139V521.959H247.893V506.139H232.072ZM245.633 519.7H234.332V508.398H245.633V519.7Z" fill="black"/>
<path d="M293.096 506.139H290.836V508.398H293.096V506.139Z" fill="black"/>
<path d="M302.139 506.139H299.879V510.658H302.139V506.139Z" fill="black"/>
<path d="M252.412 508.402H250.152V510.662H252.412V508.402Z" fill="black"/>
<path d="M256.935 519.7V517.441H259.194V515.181H261.454V512.922H263.714V510.659H259.194V508.402H256.935V515.181H254.672V517.441H252.412V519.7H254.672V521.963H259.194V519.7H256.935Z" fill="black"/>
<path d="M265.973 512.922H268.232V510.659H270.495V508.402H263.713V510.659H265.973V512.922Z" fill="black"/>
<path d="M306.656 508.402H304.396V510.662H306.656V508.402Z" fill="black"/>
<path d="M243.371 510.658H236.592V517.44H243.371V510.658Z" fill="black"/>
<path d="M304.398 510.658H302.139V512.918H304.398V510.658Z" fill="black"/>
<path d="M265.973 512.922H263.713V515.182H265.973V512.922Z" fill="black"/>
<path d="M270.492 512.922H268.232V515.182H270.492V512.922Z" fill="black"/>
<path d="M268.232 515.182H265.973V517.441H268.232V515.182Z" fill="black"/>
<path d="M275.016 515.182H272.756V517.441H275.016V515.182Z" fill="black"/>
<path d="M263.715 517.441V519.701H261.455V521.964H265.974V517.441H263.715Z" fill="black"/>
<path d="M272.752 517.441H268.232V519.701H272.752V517.441Z" fill="black"/>
<path d="M277.275 517.441H275.016V519.701H277.275V517.441Z" fill="black"/>
<path d="M284.054 517.441H279.535V519.701H284.054V517.441Z" fill="black"/>
<path d="M275.016 519.699H272.756V521.959H275.016V519.699Z" fill="black"/>
<path d="M279.535 519.699H277.275V521.959H279.535V519.699Z" fill="black"/>
<path d="M293.099 519.699H284.057V521.959H293.099V519.699Z" fill="black"/>
<path d="M304.398 519.699H302.139V521.959H304.398V519.699Z" fill="black"/>
<path d="M323.743 569.866C323.498 569.866 323.287 569.779 323.11 569.605C322.936 569.429 322.85 569.218 322.85 568.972C322.85 568.729 322.936 568.52 323.11 568.347C323.287 568.173 323.498 568.086 323.743 568.086C323.982 568.086 324.19 568.173 324.369 568.347C324.548 568.52 324.637 568.729 324.637 568.972C324.637 569.136 324.595 569.286 324.51 569.423C324.429 569.557 324.321 569.665 324.186 569.747C324.052 569.826 323.905 569.866 323.743 569.866Z" fill="white"/>
<path d="M314.896 565.922H316.291V568.637H314.896V565.922ZM318.42 565.922H319.814V568.637H318.42V565.922ZM312.967 568.438H321.765V569.571H312.967V568.438ZM317.35 561.465C318.049 561.465 318.671 561.573 319.217 561.79C319.769 562.007 320.199 562.311 320.506 562.702C320.821 563.087 320.978 563.545 320.978 564.076C320.978 564.6 320.821 565.058 320.506 565.45C320.199 565.834 319.769 566.135 319.217 566.351C318.671 566.568 318.049 566.677 317.35 566.677C316.658 566.677 316.036 566.568 315.484 566.351C314.938 566.135 314.508 565.834 314.194 565.45C313.879 565.058 313.722 564.6 313.722 564.076C313.722 563.545 313.879 563.087 314.194 562.702C314.508 562.311 314.938 562.007 315.484 561.79C316.036 561.573 316.658 561.465 317.35 561.465ZM317.35 562.545C316.903 562.545 316.508 562.608 316.165 562.734C315.83 562.853 315.567 563.024 315.379 563.248C315.19 563.471 315.096 563.747 315.096 564.076C315.096 564.391 315.19 564.663 315.379 564.894C315.567 565.118 315.83 565.292 316.165 565.418C316.508 565.537 316.903 565.596 317.35 565.596C317.804 565.596 318.199 565.537 318.535 565.418C318.878 565.292 319.14 565.118 319.322 564.894C319.51 564.663 319.605 564.391 319.605 564.076C319.605 563.747 319.51 563.471 319.322 563.248C319.14 563.024 318.878 562.853 318.535 562.734C318.199 562.608 317.804 562.545 317.35 562.545Z" fill="white"/>
<path d="M307.137 564.254H308.752V565.387H307.137V564.254ZM305.071 561.832H306.13V563.457C306.13 564.009 306.091 564.551 306.015 565.083C305.938 565.614 305.812 566.114 305.637 566.582C305.469 567.05 305.246 567.473 304.966 567.851C304.693 568.221 304.361 568.526 303.97 568.763L303.131 567.715C303.494 567.498 303.798 567.232 304.043 566.918C304.288 566.603 304.487 566.257 304.641 565.88C304.795 565.502 304.903 565.111 304.966 564.705C305.036 564.293 305.071 563.877 305.071 563.457V561.832ZM305.375 561.832H306.413V563.394C306.413 563.793 306.441 564.188 306.497 564.579C306.56 564.971 306.658 565.345 306.791 565.701C306.923 566.058 307.098 566.386 307.315 566.687C307.539 566.988 307.818 567.246 308.154 567.463L307.388 568.554C307.011 568.316 306.689 568.015 306.424 567.652C306.165 567.281 305.959 566.865 305.805 566.404C305.651 565.942 305.539 565.457 305.469 564.946C305.406 564.436 305.375 563.919 305.375 563.394V561.832ZM310.324 560.982H311.656V570.693H310.324V560.982ZM308.353 561.14H309.653V570.263H308.353V561.14Z" fill="white"/>
<path d="M299.892 560.992H301.287V570.703H299.892V560.992ZM300.972 564.778H302.681V565.931H300.972V564.778ZM293.621 562.418H299.284V563.53H293.621V562.418ZM296.473 564.086C296.942 564.086 297.361 564.187 297.732 564.39C298.102 564.585 298.392 564.855 298.602 565.197C298.819 565.54 298.927 565.938 298.927 566.393C298.927 566.847 298.819 567.249 298.602 567.599C298.392 567.941 298.102 568.214 297.732 568.416C297.368 568.612 296.949 568.71 296.473 568.71C296.005 568.71 295.582 568.612 295.205 568.416C294.834 568.214 294.54 567.941 294.324 567.599C294.114 567.249 294.009 566.847 294.009 566.393C294.009 565.938 294.114 565.54 294.324 565.197C294.54 564.855 294.834 564.585 295.205 564.39C295.582 564.187 296.005 564.086 296.473 564.086ZM296.473 565.218C296.25 565.218 296.054 565.264 295.886 565.354C295.718 565.445 295.586 565.578 295.488 565.753C295.39 565.928 295.341 566.141 295.341 566.393C295.341 566.637 295.39 566.851 295.488 567.032C295.586 567.207 295.718 567.343 295.886 567.441C296.054 567.532 296.25 567.578 296.473 567.578C296.69 567.578 296.882 567.532 297.05 567.441C297.218 567.343 297.351 567.207 297.449 567.032C297.546 566.851 297.595 566.637 297.595 566.393C297.595 566.141 297.546 565.928 297.449 565.753C297.351 565.578 297.218 565.445 297.05 565.354C296.882 565.264 296.69 565.218 296.473 565.218ZM295.76 561.149H297.165V562.848H295.76V561.149Z" fill="white"/>
<path d="M290.968 560.982H292.3V568.281H290.968V560.982ZM289.793 563.814H291.335V564.936H289.793V563.814ZM288.85 561.161H290.15V568.008H288.85V561.161ZM285.704 569.413H292.562V570.535H285.704V569.413ZM285.704 567.442H287.098V570.147H285.704V567.442ZM286.941 561.79H288.283C288.283 562.636 288.164 563.405 287.927 564.097C287.689 564.789 287.301 565.401 286.763 565.932C286.231 566.463 285.515 566.928 284.613 567.327L283.963 566.33C284.704 566.016 285.291 565.659 285.725 565.261C286.165 564.862 286.476 564.411 286.658 563.908C286.847 563.405 286.941 562.842 286.941 562.22V561.79ZM284.477 561.79H287.371V562.901H284.477V561.79ZM286.993 563.635V564.579L284.246 564.883L284.078 563.782L286.993 563.635Z" fill="white"/>
<path d="M277.986 561.549H279.192V562.251C279.192 562.671 279.133 563.08 279.014 563.478C278.902 563.87 278.734 564.24 278.511 564.59C278.287 564.939 278.011 565.257 277.682 565.544C277.361 565.824 276.99 566.065 276.571 566.268C276.151 566.47 275.69 566.621 275.186 566.719L274.589 565.555C275.022 565.478 275.417 565.362 275.774 565.209C276.137 565.048 276.455 564.856 276.728 564.632C277 564.408 277.231 564.167 277.42 563.908C277.609 563.643 277.749 563.37 277.839 563.09C277.937 562.804 277.986 562.524 277.986 562.251V561.549ZM278.259 561.549H279.475V562.251C279.475 562.531 279.521 562.814 279.612 563.101C279.709 563.387 279.849 563.664 280.031 563.929C280.22 564.188 280.45 564.426 280.723 564.642C280.996 564.859 281.31 565.048 281.667 565.209C282.023 565.362 282.425 565.478 282.873 565.555L282.275 566.719C281.772 566.621 281.31 566.47 280.891 566.268C280.471 566.065 280.097 565.824 279.769 565.544C279.447 565.264 279.171 564.95 278.94 564.6C278.717 564.251 278.545 563.877 278.427 563.478C278.315 563.08 278.259 562.671 278.259 562.251V561.549ZM274.379 568.375H283.177V569.518H274.379V568.375Z" fill="white"/>
<path d="M262.307 565.345H271.094V566.352H262.307V565.345ZM263.292 566.844H270.056V569.151H264.687V569.98H263.303V568.271H268.682V567.788H263.292V566.844ZM263.303 569.676H270.329V570.62H263.303V569.676ZM263.376 561.15H270.025V563.447H264.771V564.233H263.397V562.566H268.651V562.094H263.376V561.15ZM263.397 563.95H270.203V564.894H263.397V563.95Z" fill="white"/>
<path d="M253.688 565.47H260.514V566.572H253.688V565.47ZM252.66 568.396H261.458V569.529H252.66V568.396ZM253.688 561.779H260.441V562.912H255.072V565.932H253.688V561.779Z" fill="white"/>
<path d="M243.998 561.789H250.122V562.911H243.998V561.789ZM243.002 568.458H251.789V569.58H243.002V568.458ZM249.556 561.789H250.94V562.649C250.94 563.04 250.933 563.46 250.919 563.907C250.912 564.355 250.877 564.855 250.814 565.407C250.751 565.959 250.646 566.592 250.5 567.305L249.115 567.158C249.339 566.172 249.469 565.316 249.503 564.589C249.538 563.855 249.556 563.208 249.556 562.649V561.789ZM249.808 564.128V565.187L243.883 565.501L243.705 564.316L249.808 564.128ZM246.116 566.13H247.522V568.867H246.116V566.13Z" fill="white"/>
<path d="M236.363 569.771V562.145H239.372C239.948 562.145 240.44 562.248 240.847 562.454C241.256 562.657 241.568 562.946 241.781 563.321C241.997 563.694 242.105 564.132 242.105 564.636C242.105 565.142 241.996 565.578 241.778 565.943C241.559 566.305 241.243 566.583 240.828 566.777C240.416 566.971 239.917 567.067 239.331 567.067H237.317V565.772H239.071C239.378 565.772 239.634 565.729 239.838 565.645C240.041 565.561 240.193 565.434 240.292 565.265C240.394 565.096 240.445 564.887 240.445 564.636C240.445 564.383 240.394 564.169 240.292 563.995C240.193 563.821 240.04 563.69 239.834 563.601C239.63 563.509 239.373 563.463 239.063 563.463H237.976V569.771H236.363ZM240.482 566.3L242.377 569.771H240.597L238.743 566.3H240.482Z" fill="white"/>
<path d="M231.04 567.118H232.41L233.099 568.005L233.777 568.794L235.054 570.395H233.55L232.671 569.315L232.22 568.675L231.04 567.118ZM235.17 565.957C235.17 566.788 235.012 567.496 234.697 568.079C234.384 568.663 233.957 569.108 233.416 569.416C232.877 569.721 232.271 569.874 231.598 569.874C230.921 569.874 230.313 569.72 229.774 569.412C229.235 569.104 228.809 568.659 228.497 568.075C228.184 567.492 228.027 566.786 228.027 565.957C228.027 565.125 228.184 564.417 228.497 563.834C228.809 563.251 229.235 562.806 229.774 562.501C230.313 562.193 230.921 562.039 231.598 562.039C232.271 562.039 232.877 562.193 233.416 562.501C233.957 562.806 234.384 563.251 234.697 563.834C235.012 564.417 235.17 565.125 235.17 565.957ZM233.535 565.957C233.535 565.418 233.454 564.964 233.293 564.594C233.134 564.224 232.909 563.943 232.619 563.752C232.328 563.561 231.988 563.465 231.598 563.465C231.209 563.465 230.869 563.561 230.578 563.752C230.288 563.943 230.062 564.224 229.9 564.594C229.742 564.964 229.662 565.418 229.662 565.957C229.662 566.495 229.742 566.95 229.9 567.319C230.062 567.689 230.288 567.97 230.578 568.161C230.869 568.352 231.209 568.448 231.598 568.448C231.988 568.448 232.328 568.352 232.619 568.161C232.909 567.97 233.134 567.689 233.293 567.319C233.454 566.95 233.535 566.495 233.535 565.957Z" fill="white"/>
<path d="M212.541 565.646V561.354H216.834V565.646H212.541ZM213.613 564.57H215.761V562.422H213.613V564.57ZM212.541 571.011V566.718H216.834V571.011H212.541ZM213.613 569.939H215.761V567.791H213.613V569.939ZM217.906 565.646V561.354H222.199V565.646H217.906ZM218.978 564.57H221.126V562.422H218.978V564.57ZM221.126 571.011V569.939H222.199V571.011H221.126ZM217.906 567.791V566.718H218.978V567.791H217.906ZM218.978 568.863V567.791H220.051V568.863H218.978ZM217.906 569.939V568.866H218.978V569.939H217.906ZM218.978 571.011V569.939H220.051V571.011H218.978ZM220.054 569.939V568.866H221.126V569.939H220.054ZM220.054 567.791V566.718H221.126V567.791H220.054ZM221.126 568.863V567.791H222.199V568.863H221.126Z" fill="#006BEE"/>
<path d="M249.107 389.141L244.395 393.12L241.127 391.939L245.839 387.961L248.88 389.057L249.11 389.138L249.107 389.141Z" fill="#0A1F2C"/>
<path d="M252.923 390.516L245.234 397.008C244.713 397.447 244 397.572 243.36 397.342L237.309 395.161L240.279 392.654L244.392 394.139L249.95 389.447L252.92 390.52L252.923 390.516Z" fill="#00479F"/>
<g style="mix-blend-mode:multiply">
<path d="M252.923 385.919L252.077 386.632L249.107 389.139L248.877 389.058L245.836 387.962L241.124 391.94L238.154 390.867L237.309 390.563L240.529 387.843L244.994 384.075C245.512 383.635 246.225 383.51 246.865 383.74L248.871 384.464L249.649 384.745L252.92 385.922L252.923 385.919Z" fill="#CB2E3A"/>
</g>
<path d="M258.04 387.542H262.532C262.702 387.542 262.759 387.6 262.759 387.769V390.989C262.759 391.159 262.702 391.216 262.532 391.216H260.757V392.89H263.635V393.668H256.938V392.89H259.809V391.213H258.033C257.864 391.213 257.814 391.165 257.814 390.993V387.766C257.814 387.597 257.871 387.539 258.04 387.539V387.542ZM261.859 390.445V388.314H258.713V390.445H261.859Z" fill="#19242F"/>
<path d="M267.898 392.511C267.898 392.68 267.84 392.737 267.671 392.737H264.681C264.512 392.737 264.461 392.68 264.461 392.511V387.582H265.367V389.317H266.988V387.582H267.898V392.511ZM266.988 391.969V390.106H265.367V391.969H266.988ZM269.86 387.217V389.869H270.847V390.687H269.86V394.473H268.943V387.217H269.86Z" fill="#19242F"/>
<path d="M271.365 389.04C271.382 388.049 272.201 387.261 273.192 387.278C273.219 387.278 273.243 387.278 273.27 387.278C274.403 387.278 275.174 388.049 275.174 389.037C275.174 390.025 274.403 390.813 273.27 390.813C272.285 390.877 271.433 390.13 271.369 389.145C271.369 389.108 271.365 389.071 271.365 389.037V389.04ZM273.27 390.048C273.794 390.065 274.234 389.656 274.251 389.132C274.251 389.105 274.251 389.078 274.251 389.051C274.264 388.509 273.838 388.056 273.297 388.043C272.756 388.029 272.302 388.455 272.289 388.996C272.289 389.013 272.289 389.034 272.289 389.051C272.262 389.575 272.664 390.021 273.189 390.048C273.216 390.048 273.243 390.048 273.27 390.048ZM272.559 394.426C272.39 394.426 272.333 394.368 272.333 394.199V392.748C272.333 392.579 272.39 392.521 272.559 392.521H276.25V391.977H272.333V391.263H276.987C277.156 391.263 277.214 391.32 277.214 391.49V392.934C277.214 393.103 277.156 393.161 276.987 393.161H273.314V393.712H277.369V394.426H272.559ZM277.227 387.207V390.962H276.311V387.207H277.227Z" fill="#19242F"/>
<path d="M283.248 387.372V388.36C283.319 389.409 284.023 390.305 285.024 390.623L284.439 391.313C283.759 390.988 283.181 390.488 282.761 389.862C282.569 390.42 281.862 391.08 281.107 391.499L280.387 390.884C281.577 390.298 282.267 389.409 282.274 388.377V387.372H283.248ZM282.034 394.337C281.865 394.337 281.814 394.28 281.814 394.111V391.993H282.741V393.559H286.844V394.337H282.034ZM286.672 387.217V392.551H285.762V387.217H286.672Z" fill="#19242F"/>
<path d="M294.258 391.627H291.494V393.031H290.554V391.627H287.57V390.856H294.258V391.627ZM288.372 390.041V387.277H289.282V388.049H292.533V387.277H293.446V390.041C293.446 390.21 293.389 390.268 293.219 390.268H288.589C288.419 390.268 288.369 390.21 288.369 390.038L288.372 390.041ZM288.622 394.337C288.453 394.337 288.402 394.279 288.402 394.11V392.138H289.329V393.559H293.666V394.337H288.622ZM292.533 389.513V388.793H289.282V389.513H292.533Z" fill="#19242F"/>
<path d="M294.637 390.461H301.328V391.232H294.637V390.461ZM295.405 387.396H300.546V388.168H298.51C298.73 388.905 299.914 389.27 301 389.409L300.448 390.076C299.501 389.92 298.422 389.565 297.959 388.939C297.454 389.548 296.45 389.93 295.486 390.076L294.928 389.419C296.233 389.199 297.245 388.834 297.434 388.171H295.408V387.4L295.405 387.396ZM297.975 391.726C299.718 391.726 300.668 392.318 300.668 393.171C300.668 394.023 299.734 394.615 297.975 394.615C296.216 394.615 295.283 394.023 295.283 393.171C295.283 392.318 296.23 391.726 297.975 391.726ZM297.975 392.423C296.954 392.423 296.315 392.707 296.315 393.161C296.315 393.638 296.954 393.898 297.975 393.898C298.997 393.898 299.636 393.638 299.636 393.161C299.636 392.684 298.997 392.423 297.975 392.423Z" fill="#19242F"/>
<path style="mix-blend-mode:multiply" d="M196.295 433.537L113.531 458.464C110.869 459.259 109.407 461.536 109.414 464.313L109.489 497.027C109.495 499.648 110.815 501.712 113.277 502.618L196.295 533.543V433.537Z" fill="url(#paint0_linear_911_715)"/>
</g>
</g>
<path d="M56.0887 616.42V620.043H57.9344V620.945H56.0887V625.225H55.0223V616.42H56.0887ZM47.161 623.064V617.473H52.5751V618.375H48.2274V622.162C50.6678 622.169 52.0555 622.094 53.6825 621.766L53.8192 622.654C52.1102 622.982 50.661 623.064 48.1044 623.064H47.161ZM48.4872 628.314V624.336H49.5399V627.412H56.6493V628.314H48.4872ZM60.4025 626.551L59.3361 630.27H58.3244L59.0763 626.551H60.4025ZM75.3737 617.773V618.648H65.5163V617.773H69.946V616.352H70.9987V617.773H75.3737ZM64.9421 625.074V624.186H76.071V625.074H73.1316V628.602H72.0652V625.074H68.9206V628.602H67.8405V625.074H64.9421ZM66.5144 621.355C66.5007 620.063 67.9909 619.346 70.4792 619.346C72.947 619.346 74.4372 620.063 74.4441 621.355C74.4372 622.641 72.947 623.365 70.4792 623.365C67.9909 623.365 66.5007 622.641 66.5144 621.355ZM67.6218 621.355C67.6081 622.101 68.6677 622.538 70.4792 622.531C72.2702 622.538 73.323 622.101 73.3366 621.355C73.323 620.604 72.2702 620.18 70.4792 620.166C68.6677 620.18 67.6081 620.604 67.6218 621.355ZM87.1523 616.42V628.574H86.1269V622.203H84.3359V627.945H83.3516V616.693H84.3359V621.314H86.1269V616.42H87.1523ZM77.2129 625.566V617.91H81.7656V618.799H78.2793V624.65C79.9541 624.644 81.1094 624.582 82.4629 624.309L82.5586 625.211C81.0957 625.512 79.8584 625.56 77.9922 625.566H77.2129ZM98.6028 616.98V617.869H96.7298V620.658H98.5618V621.52H94.6516V623.01H99.6555V623.885H88.5813V623.01H93.5852V621.52H89.6614V620.658H91.4934V617.869H89.6204V616.98H98.6028ZM90.0169 628.314V624.951H91.0969V627.412H98.4251V628.314H90.0169ZM92.5598 620.658H95.6634V617.869H92.5598V620.658ZM113.396 617.65V619.004C113.389 620.562 113.389 622.128 112.959 624.391L111.906 624.268C112.337 622.121 112.337 620.521 112.344 619.004V618.539H104.797V617.65H113.396ZM103.635 626.852V625.963H106.383V621.957H107.449V625.963H109.418V621.957H110.471V625.963H114.709V626.852H103.635ZM119.009 620.166C119.016 622.121 120.007 624.124 121.661 625.006L121.046 625.812C119.836 625.149 118.961 623.892 118.517 622.429C118.086 623.987 117.218 625.354 116.001 626.086L115.359 625.266C117.013 624.309 117.99 622.176 117.997 620.166V619.564H115.687V618.676H117.997V616.871H119.023V618.676H121.292V619.564H119.009V620.166ZM120.458 622.135V621.219H122.372V616.721H123.384V627.945H122.372V622.135H120.458ZM124.819 628.574V616.42H125.845V628.574H124.819ZM140.939 617.473V618.334H131.082V617.473H135.511V616.242H136.578V617.473H140.939ZM130.507 624.199V623.324H135.511V622.319C133.324 622.251 132.093 621.649 132.093 620.576C132.093 619.435 133.522 618.812 136.045 618.812C138.553 618.812 139.982 619.435 139.982 620.576C139.982 621.649 138.752 622.251 136.578 622.319V623.324H141.582V624.199H130.507ZM131.697 626.031V625.184H140.105V628.574H139.039V626.031H131.697ZM133.201 620.576C133.187 621.219 134.219 621.567 136.045 621.574C137.856 621.567 138.882 621.219 138.888 620.576C138.882 619.954 137.856 619.585 136.045 619.592C134.219 619.585 133.187 619.954 133.201 620.576ZM153.401 622.832V623.707H142.327V622.832H153.401ZM143.558 619.264C143.558 617.739 145.226 616.844 147.864 616.857C150.476 616.844 152.15 617.739 152.157 619.264C152.15 620.774 150.476 621.684 147.864 621.684C145.226 621.684 143.558 620.774 143.558 619.264ZM143.763 628.314V624.773H144.843V627.412H152.171V628.314H143.763ZM144.665 619.264C144.658 620.228 145.902 620.809 147.864 620.809C149.812 620.809 151.057 620.228 151.063 619.264C151.057 618.313 149.812 617.719 147.864 617.719C145.902 617.719 144.658 618.313 144.665 619.264ZM160.292 617.104C161.913 617.09 163.075 618.225 163.082 619.852C163.075 621.472 161.913 622.606 160.292 622.6C158.659 622.606 157.51 621.472 157.517 619.852C157.51 618.225 158.659 617.09 160.292 617.104ZM158.488 619.852C158.474 620.932 159.247 621.704 160.292 621.711C161.325 621.704 162.09 620.932 162.097 619.852C162.09 618.758 161.325 617.985 160.292 617.979C159.247 617.985 158.474 618.758 158.488 619.852ZM159.691 628.41V623.598H160.757V625.047H166.65V623.598H167.703V628.41H159.691ZM160.757 627.535H166.65V625.936H160.757V627.535ZM164.052 622.955V616.666H165.064V619.223H166.677V616.434H167.703V623.051H166.677V620.125H165.064V622.955H164.052ZM176.522 618.375C176.515 620.029 177.773 621.547 179.557 622.162L178.996 623.01C177.615 622.524 176.542 621.499 176.016 620.214C175.503 621.629 174.409 622.723 172.967 623.256L172.406 622.395C174.245 621.745 175.462 620.146 175.469 618.307V617.049H176.522V618.375ZM173.979 625.266V624.391H181.936V628.574H180.869V625.266H173.979ZM180.869 623.789V616.42H181.936V619.646H183.768V620.562H181.936V623.789H180.869ZM194.644 616.42V628.574H193.619V616.42H194.644ZM184.103 625.334C185.798 624.322 186.789 622.101 186.783 619.893V618.744H184.445V617.855H190.05V618.744H187.822V619.893C187.822 621.991 188.772 624.09 190.447 625.061L189.79 625.854C188.594 625.136 187.746 623.823 187.323 622.278C186.885 623.953 186.003 625.382 184.786 626.141L184.103 625.334ZM189.12 621.684V620.809H191.171V616.721H192.183V627.945H191.171V621.684H189.12ZM203.627 619.688C203.62 621.909 205.131 624.138 206.922 624.951L206.266 625.799C204.878 625.129 203.682 623.687 203.101 621.957C202.54 623.789 201.344 625.327 199.922 626.045L199.238 625.143C201.05 624.315 202.547 621.991 202.56 619.688V617.473H203.627V619.688ZM208.248 628.602V616.42H209.328V628.602H208.248ZM221.544 616.42V628.574H220.505V616.42H221.544ZM211.277 621.67C211.283 619.086 212.309 617.452 213.888 617.445C215.364 617.452 216.362 618.874 216.499 621.164H218.071V616.68H219.097V627.959H218.071V622.053H216.506C216.404 624.418 215.385 625.901 213.888 625.895C212.309 625.901 211.283 624.254 211.277 621.67ZM212.288 621.67C212.275 623.639 212.904 624.883 213.888 624.869C214.879 624.883 215.508 623.639 215.501 621.67C215.508 619.694 214.879 618.457 213.888 618.457C212.904 618.457 212.275 619.694 212.288 621.67ZM232.776 620.111V620.973H224.45V616.871H225.516V620.111H232.776ZM222.932 623.502V622.627H234.061V623.502H222.932ZM224.381 628.273V624.746H225.448V627.385H232.844V628.273H224.381ZM247.405 616.42V621.232H249.442V622.135H247.405V628.602H246.339V616.42H247.405ZM238.532 625.553V617.609H244.206V618.498H239.599V624.65C241.8 624.644 243.352 624.548 245.163 624.213L245.3 625.143C243.393 625.484 241.8 625.553 239.489 625.553H238.532ZM254.139 619.688C254.132 621.909 255.643 624.138 257.434 624.951L256.778 625.799C255.39 625.129 254.194 623.687 253.613 621.957C253.052 623.789 251.856 625.327 250.434 626.045L249.75 625.143C251.562 624.315 253.059 621.991 253.073 619.688V617.473H254.139V619.688ZM258.76 628.602V616.42H259.84V628.602H258.76ZM270.477 624.062C272.973 624.062 274.483 624.883 274.483 626.305C274.483 627.74 272.973 628.561 270.477 628.574C267.975 628.561 266.451 627.74 266.444 626.305C266.451 624.883 267.975 624.062 270.477 624.062ZM265.391 622.791V617.186H266.444V619.045H269.985V617.186H271.052V622.791H265.391ZM266.444 621.916H269.985V619.893H266.444V621.916ZM267.524 626.305C267.511 627.18 268.645 627.699 270.477 627.699C272.316 627.699 273.437 627.18 273.444 626.305C273.437 625.437 272.316 624.924 270.477 624.91C268.645 624.924 267.511 625.437 267.524 626.305ZM273.307 623.734V616.42H274.374V619.482H276.206V620.398H274.374V623.734H273.307ZM287.807 622.641V623.529H282.858V626.018H281.791V623.529H276.678V622.641H287.807ZM278.1 628.314V624.814H279.18V627.412H286.563V628.314H278.1ZM278.127 621.246V617.021H286.358V621.246H278.127ZM279.18 620.385H285.291V617.869H279.18V620.385ZM294.581 618.525V619.4H288.484V618.525H291.013V616.789H292.08V618.525H294.581ZM288.921 622.982C288.921 621.369 290.022 620.228 291.533 620.221C293.064 620.228 294.158 621.369 294.171 622.982C294.158 624.616 293.064 625.765 291.533 625.771C290.022 625.765 288.921 624.616 288.921 622.982ZM289.878 622.982C289.878 624.062 290.569 624.835 291.533 624.828C292.503 624.835 293.214 624.062 293.214 622.982C293.214 621.916 292.503 621.137 291.533 621.123C290.569 621.137 289.878 621.916 289.878 622.982ZM295.21 627.973V616.721H296.222V621.547H297.835V616.42H298.861V628.574H297.835V622.436H296.222V627.973H295.21ZM303.585 617.363C305.376 617.37 306.647 619.018 306.661 621.602C306.647 624.192 305.376 625.833 303.585 625.826C301.78 625.833 300.515 624.192 300.522 621.602C300.515 619.018 301.78 617.37 303.585 617.363ZM301.534 621.602C301.541 623.577 302.382 624.876 303.585 624.869C304.801 624.876 305.622 623.577 305.622 621.602C305.622 619.626 304.801 618.327 303.585 618.32C302.382 618.327 301.541 619.626 301.534 621.602ZM308.671 628.574V616.42H309.737V619.482H311.706V620.398H309.737V623.105H311.706V624.008H309.737V628.574H308.671ZM324.886 616.42V619.537H326.718V620.453H324.886V623.488H323.82V616.42H324.886ZM315.411 618.566V617.678H318.501V616.311H319.568V617.678H322.658V618.566H315.411ZM316.109 621.26C316.102 619.961 317.271 619.134 319.034 619.127C320.778 619.134 321.947 619.961 321.96 621.26C321.947 622.559 320.778 623.399 319.034 623.393C317.271 623.399 316.102 622.559 316.109 621.26ZM317.134 621.26C317.127 622.053 317.886 622.572 319.034 622.572C320.169 622.572 320.935 622.053 320.949 621.26C320.935 620.474 320.169 619.947 319.034 619.961C317.886 619.947 317.127 620.474 317.134 621.26ZM317.202 628.41V624.021H318.269V625.32H323.82V624.021H324.886V628.41H317.202ZM318.269 627.549H323.82V626.168H318.269V627.549ZM337.225 616.42V628.574H336.159V616.42H337.225ZM327.997 625.443V617.623H329.049V624.514C330.909 624.5 332.823 624.356 334.86 623.926L335.01 624.842C332.85 625.293 330.929 625.443 328.981 625.443H327.997ZM348.43 616.42V621.232H350.467V622.135H348.43V628.602H347.363V616.42H348.43ZM339.556 625.553V617.609H345.23V618.498H340.623V624.65C342.824 624.644 344.376 624.548 346.187 624.213L346.324 625.143C344.417 625.484 342.824 625.553 340.514 625.553H339.556ZM352.128 627.549C351.65 627.542 351.239 627.146 351.253 626.66C351.239 626.182 351.65 625.785 352.128 625.785C352.613 625.785 353.01 626.182 353.003 626.66C353.01 627.146 352.613 627.542 352.128 627.549Z" fill="#EB003B"/>
<defs>
<linearGradient id="paint0_linear_911_715" x1="109.417" y1="483.54" x2="196.295" y2="483.54" gradientUnits="userSpaceOnUse">
<stop stop-color="#4381EE"/>
<stop offset="1" stop-color="#B0C6EC" stop-opacity="0.7"/>
</linearGradient>
<clipPath id="clip0_911_715">
<rect width="348" height="316.467" fill="white" transform="translate(26 277)"/>
</clipPath>
</defs>
</svg>
