<svg width="400" height="727" viewBox="0 0 400 727" fill="none" xmlns="http://www.w3.org/2000/svg">
<rect width="400" height="727" fill="white"/>
<g clip-path="url(#clip0_911_2916)">
<circle cx="200" cy="220" r="80" fill="#FAFAFA"/>
<g clip-path="url(#clip1_911_2916)">
<path d="M129.947 285.362C129.947 263.395 147.704 245.592 169.614 245.592H219.393C241.303 245.592 259.06 263.395 259.06 285.362" fill="#FB7F77"/>
<path d="M175.082 245.592C175.082 252.067 194.229 268.086 194.229 268.086C194.229 268.086 213.376 252.067 213.376 245.592H175.082Z" fill="#FFADA1"/>
<path d="M187.837 229.963L168.377 234.697C168.377 234.697 141.712 191.493 174.945 177.888C174.945 177.888 183.184 161.759 204.399 167.461C216.977 170.843 232.971 188.561 223.563 202.982C224.673 213.052 219.13 227.389 221.69 234.705L187.837 229.972V229.963Z" fill="#353535"/>
<path d="M168.378 235.335C168.157 235.335 167.954 235.224 167.835 235.029C167.801 234.969 164.131 228.987 161.233 220.905C158.537 213.41 155.969 202.498 159.012 193.134C161.326 185.987 166.538 180.693 174.506 177.378C175.608 175.458 184.465 161.436 204.57 166.841C213.24 169.169 222.284 177.497 225.598 186.199C227.904 192.241 227.429 198.096 224.225 203.136C224.691 207.818 223.801 213.316 222.937 218.628C221.928 224.831 220.97 230.695 222.301 234.485C222.377 234.697 222.335 234.927 222.191 235.097C222.047 235.267 221.826 235.36 221.615 235.326L187.881 230.61L168.539 235.318C168.488 235.326 168.437 235.335 168.386 235.335H168.378ZM195.628 166.858C181.515 166.858 175.794 177.633 175.514 178.169C175.447 178.305 175.328 178.407 175.192 178.466C167.479 181.627 162.445 186.692 160.224 193.516C155.011 209.586 166.852 230.805 168.691 233.958L187.694 229.335C187.77 229.318 187.855 229.31 187.932 229.327L220.809 233.924C219.818 229.879 220.725 224.296 221.682 218.415C222.547 213.095 223.445 207.597 222.937 203.042C222.92 202.898 222.954 202.745 223.039 202.626C226.124 197.901 226.598 192.377 224.412 186.65C221.225 178.288 212.554 170.3 204.239 168.065C201.078 167.215 198.213 166.858 195.636 166.858H195.628Z" fill="#353535"/>
<path d="M182.938 250.749V225.068H206.068V250.749" fill="#FFADA1"/>
<path d="M208.025 199.27H217.044C222.019 199.27 226.062 203.315 226.062 208.311C226.062 213.3 222.028 217.353 217.044 217.353H208.025V199.278V199.27Z" fill="#F5ABA2"/>
<path d="M213.941 212.96H217.044C219.603 212.96 221.688 210.87 221.688 208.303C221.688 205.737 219.603 203.646 217.044 203.646H213.941V212.96Z" fill="#DE8988"/>
<path d="M216.221 205.668V202.141C215.187 192.462 195.159 181.023 195.159 181.023C184.496 181.023 175.69 188.969 174.291 199.269H171.079C166.104 199.269 162.061 203.314 162.061 208.311C162.061 213.307 166.095 217.352 171.079 217.352H174.588C176.664 226.819 185.081 233.906 195.15 233.906C206.788 233.906 216.213 224.448 216.213 212.789V205.668H216.221Z" fill="#FFBCAF"/>
<path d="M174.182 212.958H171.08C168.521 212.958 166.436 210.868 166.436 208.301C166.436 205.735 168.521 203.645 171.08 203.645H174.182V212.958Z" fill="#DE8988"/>
<path d="M198.126 212.5C197.973 212.5 197.829 212.432 197.727 212.305C197.549 212.084 197.592 211.761 197.812 211.591C198.931 210.699 199.278 209.186 198.66 207.903L196.524 203.501C196.397 203.246 196.507 202.94 196.761 202.821C197.015 202.702 197.32 202.804 197.439 203.059L199.575 207.461C200.406 209.177 199.94 211.2 198.448 212.39C198.355 212.466 198.244 212.5 198.134 212.5H198.126Z" fill="#DE8988"/>
<path d="M184.504 212.729C186.348 212.729 187.843 212.006 187.843 211.115C187.843 210.223 186.348 209.5 184.504 209.5C182.659 209.5 181.164 210.223 181.164 211.115C181.164 212.006 182.659 212.729 184.504 212.729Z" fill="#FF8A84"/>
<path d="M212.738 211.115C212.738 212.007 211.246 212.729 209.398 212.729C207.55 212.729 206.059 212.007 206.059 211.115C206.059 210.222 207.55 209.5 209.398 209.5C211.246 209.5 212.738 210.222 212.738 211.115Z" fill="#FF8A84"/>
<path d="M191.523 204.664C191.523 206.083 190.718 207.23 189.717 207.23C188.717 207.23 187.912 206.083 187.912 204.664C187.912 203.245 188.717 202.098 189.717 202.098C190.718 202.098 191.523 203.245 191.523 204.664Z" fill="#353535"/>
<path d="M206.126 204.664C206.126 206.083 205.321 207.23 204.321 207.23C203.321 207.23 202.516 206.083 202.516 204.664C202.516 203.245 203.321 202.098 204.321 202.098C205.321 202.098 206.126 203.245 206.126 204.664Z" fill="#353535"/>
<path d="M185.186 181.984C185.186 181.984 185.847 194.4 180.134 198.708C174.421 203.017 167.717 199.924 167.717 199.924L170.31 191.052L185.194 181.984H185.186Z" fill="#353535"/>
<path d="M167.717 194.91C167.717 194.91 169.514 211.252 177.735 211.507C177.735 211.507 174.828 200.23 177.735 194.91H167.717Z" fill="#353535"/>
<path d="M153.493 285.998C153.145 285.998 152.857 285.709 152.857 285.361V275.954C152.857 275.605 153.145 275.316 153.493 275.316C153.84 275.316 154.128 275.605 154.128 275.954V285.361C154.128 285.709 153.84 285.998 153.493 285.998Z" fill="#C74A47"/>
<path d="M196.882 219.018C193.576 219.018 191.415 217.862 191.28 217.786C191.034 217.65 190.94 217.344 191.076 217.098C191.212 216.851 191.517 216.758 191.763 216.894C191.805 216.919 196.407 219.35 202.324 216.868C202.586 216.758 202.883 216.885 202.985 217.14C203.095 217.403 202.968 217.701 202.713 217.803C200.552 218.704 198.569 219.01 196.882 219.01V219.018Z" fill="#DE8988"/>
<path d="M191.837 197.646C191.719 197.646 191.609 197.603 191.507 197.527C189.93 196.201 188.549 197.374 188.396 197.51C188.193 197.697 187.871 197.68 187.676 197.476C187.489 197.272 187.498 196.949 187.71 196.762C188.447 196.082 190.329 195.198 192.16 196.745C192.371 196.923 192.405 197.246 192.219 197.467C192.117 197.586 191.973 197.646 191.829 197.646H191.837Z" fill="#DE8988"/>
<path d="M205.613 197.646C205.494 197.646 205.367 197.603 205.274 197.518C204.613 196.923 203.985 196.634 203.434 196.668C202.833 196.702 202.485 197.102 202.477 197.119C202.299 197.331 201.977 197.357 201.765 197.178C201.553 197 201.519 196.685 201.697 196.464C201.722 196.43 202.316 195.725 203.35 195.648C204.206 195.58 205.087 195.954 205.969 196.753C206.181 196.94 206.197 197.263 206.003 197.476C205.901 197.586 205.765 197.646 205.621 197.646H205.613Z" fill="#DE8988"/>
<path d="M268.045 216.078V213.911L268.028 203.866L246.652 207.206L246.592 189.853C246.592 189.853 246.609 188.629 246.618 187.737C246.626 186.539 246.177 185.349 245.253 184.584C244.567 184.015 243.694 183.675 242.77 183.743C240.837 183.87 239.388 185.596 239.396 187.542L239.473 190.847L239.498 211.09H239.269C237.201 211.09 235.531 212.772 235.531 214.837V220.395C235.531 222.409 236.091 224.389 237.176 226.08C238.244 227.737 239.786 229.777 241.939 231.519V239.439H264.307V229.879C266.621 227.176 268.028 223.675 268.028 219.834H268.002C268.036 219.426 268.053 219.01 268.053 218.593V216.086L268.045 216.078Z" fill="#FFBCAF"/>
<path d="M257.44 217.59C255.686 217.59 254.219 216.358 253.88 214.701C253.541 216.434 251.965 217.726 250.117 217.616C248.185 217.505 246.718 215.797 246.71 213.851L246.625 203.118C246.625 202.039 247.032 200.959 247.871 200.28C248.49 199.778 249.269 199.472 250.126 199.472C251.88 199.472 253.346 200.705 253.685 202.362C254.016 200.705 255.474 199.447 257.22 199.438C258.974 199.438 260.441 200.671 260.78 202.328C261.119 200.594 262.695 199.302 264.543 199.413C266.475 199.523 267.942 201.231 267.95 203.177L268.035 213.91C268.035 214.99 267.628 216.069 266.789 216.749C266.17 217.25 265.391 217.548 264.534 217.556C262.78 217.556 261.314 216.324 260.975 214.667C260.644 216.324 259.186 217.582 257.44 217.59Z" fill="#FFBCAF"/>
<path d="M253.846 215.66C253.567 215.66 253.338 215.431 253.338 215.15V207.018C253.338 206.737 253.567 206.508 253.846 206.508C254.126 206.508 254.354 206.737 254.354 207.018V215.15C254.354 215.431 254.126 215.66 253.846 215.66Z" fill="#DE8988"/>
<path d="M260.94 215.66C260.66 215.66 260.432 215.431 260.432 215.15V207.018C260.432 206.737 260.66 206.508 260.94 206.508C261.219 206.508 261.448 206.737 261.448 207.018V215.15C261.448 215.431 261.219 215.66 260.94 215.66Z" fill="#DE8988"/>
<path d="M239.25 211.082H243.759C246.319 211.082 248.404 213.164 248.404 215.739C248.404 218.305 246.327 220.396 243.759 220.396" fill="#FFBBAE"/>
<path d="M243.76 220.896C243.48 220.896 243.251 220.667 243.251 220.386C243.251 220.106 243.48 219.876 243.76 219.876C246.04 219.876 247.896 218.015 247.896 215.729C247.896 213.443 246.04 211.582 243.76 211.582H239.251C238.971 211.582 238.742 211.353 238.742 211.072C238.742 210.792 238.971 210.562 239.251 210.562H243.76C246.599 210.562 248.913 212.882 248.913 215.729C248.913 218.576 246.599 220.896 243.76 220.896Z" fill="#DE8988"/>
<path d="M237.965 285.361V239.43H270.054V285.361" fill="#FB7F77"/>
<path d="M263.161 173.435L260.406 170.605L249.879 181.899L251.667 183.735L263.161 173.435Z" fill="#FFFF68"/>
<path d="M251.966 164.767L248.186 163.68L244.592 178.713L247.05 179.418L251.966 164.767Z" fill="#FFFF68"/>
<path d="M237.48 163L233.641 163.892L237.785 178.772L240.277 178.203L237.48 163Z" fill="#FFFF68"/>
</g>
</g>
<path d="M94.0543 314.082V331.758H91.8668V314.082H94.0543ZM79.9332 321.602C79.9234 317.793 81.8668 315.371 84.5426 315.371C87.1891 315.371 89.1422 317.793 89.152 321.602C89.1422 325.439 87.1891 327.852 84.5426 327.852C81.8668 327.852 79.9234 325.439 79.9332 321.602ZM82.023 321.602C82.023 324.316 83.0484 325.889 84.5426 325.898C86.027 325.889 87.0426 324.316 87.0426 321.602C87.0426 318.906 86.027 317.324 84.5426 317.324C83.0484 317.324 82.023 318.906 82.023 321.602ZM111.467 315.977V317.734H97.0527V315.977H103.205V314.043H105.354V315.977H111.467ZM96.252 327.266V325.488H112.385V327.266H105.354V331.758H103.205V327.266H96.252ZM98.3027 321.523C98.3027 319.59 100.549 318.535 104.279 318.535C108.01 318.535 110.256 319.59 110.256 321.523C110.256 323.447 108.01 324.512 104.279 324.512C100.549 324.512 98.3027 323.447 98.3027 321.523ZM100.568 321.523C100.559 322.432 101.838 322.9 104.279 322.891C106.711 322.9 108 322.432 108.01 321.523C108 320.625 106.711 320.156 104.279 320.156C101.838 320.156 100.559 320.625 100.568 321.523ZM131.409 314.082V319.043H133.889V320.84H131.409V326.855H129.241V314.082H131.409ZM118.225 323.867V315.547H126.136V317.285H120.374V322.09C123.694 322.09 125.54 321.982 127.639 321.543L127.874 323.301C125.559 323.76 123.509 323.867 119.651 323.867H118.225ZM120.1 331.387V325.508H122.268V329.629H132.112V331.387H120.1ZM149.603 314.082V331.738H147.532V314.082H149.603ZM134.193 326.465C137.845 324.307 139.525 321.543 139.857 317.988H135.13V316.23H142.005C142.005 317.119 141.946 317.988 141.82 318.828H143.88V314.512H145.95V330.898H143.88V325H141.126V323.223H143.88V320.605H141.448C140.609 323.535 138.773 326.055 135.462 328.008L134.193 326.465ZM165.55 319.082V320.801H153.324V314.727H155.472V319.082H165.55ZM151.234 324.57V322.852H167.367V324.57H151.234ZM153.168 331.328V326.133H155.336V329.57H165.668V331.328H153.168ZM187.153 314.082V323.086H185.004V314.082H187.153ZM172.465 321.367C175.327 320.459 176.83 318.193 176.821 315.879V314.512H179.067V315.879C179.057 318.125 180.551 320.225 183.344 321.074L182.289 322.754C180.239 322.119 178.774 320.811 177.973 319.131C177.172 320.957 175.668 322.393 173.559 323.066L172.465 321.367ZM175.473 325.586V323.906H187.192V328.496H177.641V329.863H187.719V331.582H175.512V326.875H185.024V325.586H175.473ZM204.565 314.082V331.738H202.495V314.082H204.565ZM189.057 326.719C191.606 325.166 192.729 321.982 192.729 318.906V317.734H189.663V315.977H197.671V317.734H194.819V318.906C194.819 321.885 195.884 324.873 198.413 326.328L197.124 327.93C195.493 326.963 194.409 325.283 193.794 323.271C193.169 325.449 192.046 327.305 190.386 328.34L189.057 326.719ZM196.382 321.992V320.234H198.921V314.414H200.971V330.879H198.921V321.992H196.382ZM217.125 318.32C217.115 321.602 218.687 324.824 221.5 326.055L220.191 327.793C218.199 326.816 216.793 324.941 216.041 322.627C215.269 325.068 213.824 327.1 211.793 328.125L210.425 326.367C213.306 325.02 214.908 321.621 214.918 318.32V315.508H217.125V318.32ZM219.546 321.543V319.785H223.257V314.082H225.406V331.758H223.257V321.543H219.546ZM242.174 314.082V331.758H239.986V314.082H242.174ZM228.424 327.598V315.527H230.592V319.941H234.869V315.527H237.018V327.598H228.424ZM230.592 325.82H234.869V321.641H230.592V325.82ZM253.493 316.504C253.493 319.229 256.159 321.973 259.86 322.617L258.883 324.434C255.924 323.818 253.502 322.021 252.35 319.648C251.188 322.002 248.766 323.809 245.817 324.434L244.86 322.617C248.502 321.953 251.178 319.219 251.188 316.504V315.195H253.493V316.504ZM244.371 329.492V327.695H260.504V329.492H244.371ZM280.29 314.082V331.758H278.103V314.082H280.29ZM266.169 321.602C266.159 317.793 268.103 315.371 270.779 315.371C273.425 315.371 275.378 317.793 275.388 321.602C275.378 325.439 273.425 327.852 270.779 327.852C268.103 327.852 266.159 325.439 266.169 321.602ZM268.259 321.602C268.259 324.316 269.284 325.889 270.779 325.898C272.263 325.889 273.279 324.316 273.279 321.602C273.279 318.906 272.263 317.324 270.779 317.324C269.284 317.324 268.259 318.906 268.259 321.602ZM298.582 322.578V324.316H282.488V322.578H286.238V320.342C284.9 319.775 284.148 318.887 284.148 317.734C284.148 315.615 286.619 314.375 290.515 314.375C294.402 314.375 296.873 315.615 296.882 317.734C296.873 318.896 296.111 319.785 294.773 320.342V322.578H298.582ZM284.363 328.535C284.363 326.504 286.658 325.371 290.515 325.391C294.314 325.371 296.619 326.504 296.629 328.535C296.619 330.586 294.314 331.699 290.515 331.699C286.658 331.699 284.363 330.586 284.363 328.535ZM286.414 317.734C286.394 318.809 287.908 319.385 290.515 319.375C293.113 319.385 294.636 318.809 294.636 317.734C294.636 316.65 293.113 316.045 290.515 316.055C287.908 316.045 286.394 316.65 286.414 317.734ZM286.57 328.535C286.56 329.531 287.947 330.068 290.515 330.059C293.045 330.068 294.441 329.531 294.461 328.535C294.441 327.549 293.045 327.041 290.515 327.031C287.947 327.041 286.56 327.549 286.57 328.535ZM288.425 322.578H292.605V320.898C291.97 320.986 291.267 321.035 290.515 321.035C289.763 321.035 289.06 320.986 288.425 320.898V322.578ZM306.053 318.32C306.033 321.562 307.742 324.805 310.604 326.035L309.314 327.773C307.283 326.836 305.799 324.971 304.979 322.666C304.168 325.146 302.645 327.178 300.506 328.184L299.178 326.367C302.117 325.098 303.836 321.729 303.846 318.32V315.508H306.053V318.32ZM311.873 331.758V314.082H314.061V331.758H311.873ZM319.696 328.613L318.055 334.082H316.2L317.215 328.613H319.696ZM70.1816 351.926V353.684H63.1699V359.719H61.0215V353.684H54.0879V351.926H70.1816ZM54.9277 349.035C58.3945 348.596 60.7188 346.73 60.875 344.797H55.5723V343.078H68.6973V344.797H63.3945C63.541 346.73 65.8457 348.596 69.3418 349.035L68.5605 350.734C65.5527 350.305 63.209 348.928 62.1348 347.023C61.0508 348.928 58.7266 350.305 55.748 350.734L54.9277 349.035ZM80.3871 343.547V351.945H71.8715V343.547H80.3871ZM74.0004 359.27V353.508H76.1879V357.512H86.1684V359.27H74.0004ZM74.0199 350.207H78.2387V345.285H74.0199V350.207ZM83.4926 354.699V342.102H85.6801V354.699H83.4926ZM102.956 342.082V355.305H100.886V342.082H102.956ZM87.741 351.281C90.0945 350.139 91.198 347.795 91.198 345.695V343.293H93.3074V345.695C93.3074 347.756 94.323 349.807 96.5691 350.812L95.3582 352.492C93.8738 351.799 92.8582 350.607 92.2723 349.172C91.6473 350.793 90.5438 352.17 88.9324 352.922L87.741 351.281ZM91.1395 359.387V353.723H93.3074V357.629H103.444V359.387H91.1395ZM94.9871 348.059V346.281H97.3504V342.395H99.4207V354.777H97.3504V348.059H94.9871ZM119.548 342.082V359.758H117.4V350.227H114.079V348.469H117.4V342.082H119.548ZM105.544 355.695V343.605H113.806V345.383H107.732V348.547H113.103V350.266H107.732V353.898C110.417 353.889 112.429 353.791 114.704 353.43L114.919 355.188C112.351 355.578 110.085 355.676 106.931 355.695H105.544ZM134.158 352.98C137.82 352.98 140.066 354.221 140.076 356.34C140.066 358.488 137.82 359.729 134.158 359.738C130.467 359.729 128.182 358.488 128.182 356.34C128.182 354.221 130.467 352.98 134.158 352.98ZM126.58 351.438V343.195H128.729V345.578H132.85V343.195H134.998V351.438H126.58ZM128.729 349.719H132.85V347.277H128.729V349.719ZM130.35 356.34C130.35 357.434 131.736 358.029 134.158 358.02C136.57 358.029 137.928 357.434 137.928 356.34C137.928 355.246 136.57 354.689 134.158 354.68C131.736 354.689 130.35 355.246 130.35 356.34ZM137.732 352.551V342.082H139.9V346.301H142.361V348.117H139.9V352.551H137.732ZM158.973 350.91V352.648H152.157V355.891H150.008V352.648H142.84V350.91H158.973ZM144.793 359.387V354.27H146.961V357.629H157.196V359.387H144.793ZM144.891 349.27V342.883H156.903V349.27H144.891ZM147 347.57H154.754V344.582H147V347.57ZM179.306 343.977V345.734H164.892V343.977H171.044V342.043H173.193V343.977H179.306ZM164.091 355.266V353.488H180.224V355.266H173.193V359.758H171.044V355.266H164.091ZM166.142 349.523C166.142 347.59 168.388 346.535 172.118 346.535C175.849 346.535 178.095 347.59 178.095 349.523C178.095 351.447 175.849 352.512 172.118 352.512C168.388 352.512 166.142 351.447 166.142 349.523ZM168.407 349.523C168.398 350.432 169.677 350.9 172.118 350.891C174.55 350.9 175.839 350.432 175.849 349.523C175.839 348.625 174.55 348.156 172.118 348.156C169.677 348.156 168.398 348.625 168.407 349.523ZM192.021 345.676C192.021 347.873 193.525 350.021 196.338 350.891L195.225 352.59C193.223 351.945 191.768 350.617 190.957 348.938C190.166 350.764 188.662 352.219 186.572 352.941L185.459 351.223C188.301 350.285 189.814 348 189.834 345.676V345.168H186.025V343.43H195.732V345.168H192.021V345.676ZM188.35 359.387V353.742H190.537V357.629H200.518V359.387H188.35ZM197.842 354.914V342.102H200.029V354.914H197.842ZM217.305 342.082V353.176H215.235V348.371H213.516V352.59H211.485V342.434H213.516V346.613H215.235V342.082H217.305ZM202.11 345.695V343.996H205.45V342.238H207.598V343.996H210.899V345.695H202.11ZM202.735 349.465C202.715 347.629 204.317 346.408 206.524 346.418C208.77 346.408 210.352 347.629 210.371 349.465C210.352 351.301 208.77 352.512 206.524 352.512C204.317 352.512 202.715 351.301 202.735 349.465ZM204.668 349.465C204.668 350.373 205.42 350.949 206.524 350.949C207.637 350.949 208.399 350.373 208.399 349.465C208.399 348.557 207.637 347.98 206.524 347.98C205.42 347.98 204.668 348.557 204.668 349.465ZM205.293 356.574C205.284 354.543 207.569 353.4 211.348 353.391C215.118 353.4 217.393 354.543 217.403 356.574C217.393 358.566 215.118 359.719 211.348 359.719C207.569 359.719 205.284 358.566 205.293 356.574ZM207.461 356.574C207.452 357.541 208.829 358.068 211.348 358.059C213.858 358.068 215.205 357.541 215.215 356.574C215.205 355.549 213.858 355.031 211.348 355.051C208.829 355.031 207.452 355.549 207.461 356.574ZM229.6 349.406V351.164H226.026V354.24C227.569 354.182 229.112 354.074 230.577 353.918L230.753 355.52C226.866 356.096 222.774 356.135 219.444 356.145L219.171 354.348C220.626 354.357 222.218 354.348 223.858 354.318V351.164H220.401V343.703H229.522V345.422H222.55V349.406H229.6ZM231.632 359.758V342.082H233.8V359.758H231.632ZM250.275 347.082V348.801H238.048V342.727H240.196V347.082H250.275ZM235.958 352.57V350.852H252.091V352.57H235.958ZM237.892 359.328V354.133H240.06V357.57H250.392V359.328H237.892ZM263.635 344.68C263.625 346.584 265.061 348.537 267.756 349.328L266.74 351.047C264.748 350.451 263.322 349.221 262.551 347.678C261.75 349.387 260.256 350.793 258.205 351.438L257.131 349.738C259.885 348.84 261.438 346.691 261.447 344.66V344.602H257.736V342.844H267.287V344.602H263.635V344.68ZM260.354 353.586V351.867H271.994V356.457H262.541V357.844H272.561V359.543H260.373V354.836H269.826V353.586H260.354ZM266.799 347.551V345.812H269.826V342.082H271.994V351.125H269.826V347.551H266.799ZM280.305 347.688C280.305 350.305 281.78 353.156 284.504 354.445L283.293 356.086C281.379 355.207 280.002 353.449 279.26 351.389C278.489 353.615 277.034 355.49 275.012 356.398L273.821 354.719C276.604 353.469 278.157 350.461 278.157 347.688V346.77H274.387V345.031H278.157V342.453H280.325V345.031H284.036V346.77H280.305V347.688ZM285.754 359.738V342.082H287.922V349.074H290.637V350.891H287.922V359.738H285.754ZM305.686 342.082V351.555H303.499V342.082H305.686ZM291.292 347.004C291.292 344.553 293.323 342.854 296.057 342.863C298.782 342.854 300.813 344.553 300.804 347.004C300.813 349.416 298.782 351.115 296.057 351.105C293.323 351.115 291.292 349.416 291.292 347.004ZM293.421 347.004C293.411 348.42 294.514 349.318 296.057 349.328C297.571 349.318 298.675 348.42 298.675 347.004C298.675 345.588 297.571 344.67 296.057 344.68C294.514 344.67 293.411 345.588 293.421 347.004ZM294.007 359.523V352.375H296.155V354.191H303.518V352.375H305.686V359.523H294.007ZM296.155 357.766H303.518V355.891H296.155V357.766ZM322.591 342.082V359.738H320.443V342.082H322.591ZM308.88 355.305V343.801H311.029V353.449C313.499 353.41 316.136 353.195 318.861 352.648L319.134 354.465C316.029 355.109 313.148 355.314 310.404 355.305H308.88ZM338.578 342.082V348.781H341.293V350.559H338.578V359.758H336.41V342.082H338.578ZM325.472 355.441V343.762H333.734V345.52H327.64V353.625C330.384 353.615 332.562 353.479 334.984 353.059L335.238 354.895C332.494 355.363 330.121 355.441 326.937 355.441H325.472ZM343.783 358.156C342.943 358.156 342.25 357.473 342.26 356.633C342.25 355.812 342.943 355.139 343.783 355.129C344.594 355.139 345.287 355.812 345.287 356.633C345.287 357.473 344.594 358.156 343.783 358.156Z" fill="#111827"/>
<path d="M78.4262 386.312L77.4262 385.297L79.895 382.789L77.4262 380.281L78.4262 379.266L80.895 381.773L83.3637 379.266L84.3637 380.281L81.895 382.789L84.3637 385.297L83.3637 386.312L80.895 383.805L78.4262 386.312ZM76.6762 382.734C76.6762 382.258 76.9731 381.867 77.5669 381.875C78.1606 381.867 78.4575 382.258 78.4575 382.734C78.4575 383.219 78.1684 383.57 77.5669 383.562C76.9731 383.57 76.6762 383.219 76.6762 382.734ZM79.9419 386.094C79.9497 385.625 80.2466 385.25 80.8325 385.25C81.4106 385.25 81.7309 385.625 81.7231 386.094C81.7309 386.562 81.4106 386.938 80.8325 386.938C80.2466 386.938 79.9497 386.562 79.9419 386.094ZM79.9419 379.484C79.9497 379.008 80.2466 378.633 80.8325 378.625C81.4106 378.633 81.7309 379.008 81.7231 379.484C81.7309 379.945 81.4106 380.32 80.8325 380.328C80.2466 380.32 79.9497 379.945 79.9419 379.484ZM83.1919 382.734C83.1997 382.258 83.52 381.867 84.0981 381.875C84.6762 381.867 84.9966 382.258 85.0044 382.734C84.9966 383.219 84.6762 383.57 84.0981 383.562C83.52 383.57 83.1997 383.219 83.1919 382.734ZM102.286 383.766V384.797H98.9425V389.266H97.7237V384.797H94.13V389.266H92.8956V384.797H89.5675V383.766H102.286ZM91.2706 382.328V376.031H100.692V377.031H92.4894V378.625H100.364V379.609H92.4894V381.312H100.849V382.328H91.2706ZM114.341 382.609V383.609H110.029V386.516H115.81V387.531H103.091V386.516H108.81V383.609H104.732V376.516H114.185V377.531H105.982V379.516H113.888V380.516H105.982V382.609H114.341ZM128.068 375.375V389.297H126.849V375.375H128.068ZM117.381 377.688V376.672H123.849V381.609H118.662V384.891C120.967 384.898 123.021 384.789 125.506 384.391L125.631 385.422C123.076 385.82 120.967 385.922 118.568 385.922H117.412V380.609H122.615V377.688H117.381ZM141.607 375.375V382.453H140.389V379.5H137.49C137.232 381.102 135.811 382.18 133.936 382.172C131.842 382.18 130.318 380.875 130.326 379C130.318 377.148 131.842 375.867 133.936 375.875C135.795 375.867 137.209 376.906 137.482 378.469H140.389V375.375H141.607ZM131.498 379C131.498 380.266 132.514 381.164 133.936 381.156C135.311 381.164 136.342 380.266 136.342 379C136.342 377.766 135.311 376.875 133.936 376.891C132.514 376.875 131.498 377.766 131.498 379ZM132.607 384.203V383.219H141.607V386.547H133.857V388.094H142.139V389.078H132.639V385.609H140.389V384.203H132.607ZM156.272 382.703V383.703H143.616V382.703H156.272ZM145.022 378.625C145.022 376.883 146.928 375.859 149.944 375.875C152.928 375.859 154.842 376.883 154.85 378.625C154.842 380.352 152.928 381.391 149.944 381.391C146.928 381.391 145.022 380.352 145.022 378.625ZM145.256 388.969V384.922H146.491V387.938H154.866V388.969H145.256ZM146.287 378.625C146.28 379.727 147.702 380.391 149.944 380.391C152.17 380.391 153.592 379.727 153.6 378.625C153.592 377.539 152.17 376.859 149.944 376.859C147.702 376.859 146.28 377.539 146.287 378.625ZM172.71 375.375V389.266H171.538V375.375H172.71ZM160.804 385.375C163.827 383.586 165.343 381.078 165.585 378.172H161.429V377.156H166.804C166.804 377.867 166.741 378.57 166.616 379.25H168.726V375.75H169.897V388.562H168.726V383.75H166.147V382.734H168.726V380.266H166.374C165.702 382.617 164.179 384.695 161.554 386.266L160.804 385.375ZM187.031 382.359V383.375H174.327V382.359H180.046V380.219H181.249V382.359H187.031ZM175.093 379.984C177.546 379.648 180.031 378.102 180.031 376.25V375.594H181.265V376.25C181.265 378.102 183.765 379.648 186.218 379.984L185.718 380.969C183.617 380.602 181.523 379.484 180.656 377.883C179.781 379.5 177.695 380.602 175.562 380.969L175.093 379.984ZM175.734 385.719V384.734H185.421V389.266H184.187V385.719H175.734ZM195.594 379.656C195.602 381.891 196.734 384.18 198.625 385.188L197.922 386.109C196.539 385.352 195.539 383.914 195.031 382.242C194.539 384.023 193.547 385.586 192.156 386.422L191.422 385.484C193.312 384.391 194.43 381.953 194.438 379.656V378.969H191.797V377.953H194.438V375.891H195.609V377.953H198.203V378.969H195.594V379.656ZM197.25 381.906V380.859H199.438V375.719H200.594V388.547H199.438V381.906H197.25ZM202.234 389.266V375.375H203.406V389.266H202.234ZM216.555 375.375V383.797H215.321V380.625H212.961V379.609H215.321V375.375H216.555ZM205.055 377.844V376.844H208.508V375.25H209.711V376.844H213.164V377.844H205.055ZM205.883 381.031C205.883 379.578 207.219 378.562 209.102 378.562C210.992 378.562 212.321 379.578 212.336 381.031C212.321 382.531 210.992 383.516 209.102 383.516C207.219 383.516 205.883 382.531 205.883 381.031ZM207.055 381.031C207.055 381.953 207.891 382.562 209.102 382.578C210.313 382.562 211.149 381.953 211.149 381.031C211.149 380.141 210.313 379.516 209.102 379.516C207.891 379.516 207.055 380.141 207.055 381.031ZM207.477 389.078V384.547H216.555V389.078H207.477ZM208.696 388.078H215.352V385.531H208.696V388.078ZM229.297 375.375V381.109H231.626V382.125H229.297V389.266H228.079V375.375H229.297ZM218.469 378.625V377.609H222.047V375.547H223.266V377.609H226.735V378.625H218.469ZM219.266 382.969C219.258 381.094 220.696 379.781 222.672 379.781C224.633 379.781 226.063 381.094 226.079 382.969C226.063 384.852 224.633 386.156 222.672 386.156C220.696 386.156 219.258 384.852 219.266 382.969ZM220.438 382.969C220.43 384.234 221.376 385.125 222.672 385.109C223.954 385.125 224.891 384.234 224.907 382.969C224.891 381.711 223.954 380.805 222.672 380.812C221.376 380.805 220.43 381.711 220.438 382.969ZM243.509 375.375V382.578H242.306V375.375H243.509ZM232.149 381.469C234.243 380.742 235.728 378.883 235.728 376.844V375.781H236.978V376.844C236.962 378.805 238.462 380.539 240.524 381.219L239.915 382.172C238.282 381.617 236.993 380.453 236.368 378.953C235.743 380.57 234.438 381.844 232.79 382.438L232.149 381.469ZM234.493 384.266V383.281H243.524V386.609H235.728V388.109H244.024V389.109H234.524V385.656H242.306V384.266H234.493ZM256.228 376.672C256.236 378.633 258.783 380.32 261.291 380.672L260.791 381.672C258.634 381.312 256.494 380.117 255.603 378.414C254.712 380.133 252.58 381.312 250.416 381.672L249.916 380.672C252.423 380.32 254.962 378.664 254.962 376.672V375.875H256.228V376.672ZM249.259 384.234V383.203H261.916V384.234H256.166V389.266H254.962V384.234H249.259ZM271.166 384.703C271.158 385.93 271.823 387.234 273.143 387.984C274.471 387.164 275.174 385.773 275.166 384.703V383.938H276.369V384.703C276.362 386.133 277.416 387.555 279.198 388.172L278.588 389.078C277.198 388.586 276.229 387.617 275.744 386.453C275.315 387.578 274.463 388.648 273.182 389.188C271.83 388.672 270.971 387.656 270.557 386.492C270.057 387.609 269.104 388.578 267.776 389.078L267.151 388.172C268.908 387.516 269.963 386.031 269.979 384.703V383.938H271.166V384.703ZM266.791 379.453C266.783 377.516 268.323 376.195 270.432 376.203C272.541 376.195 274.065 377.516 274.073 379.453C274.065 381.359 272.541 382.672 270.432 382.672C268.323 382.672 266.783 381.359 266.791 379.453ZM267.994 379.453C267.979 380.742 269.002 381.648 270.432 381.656C271.846 381.648 272.869 380.742 272.869 379.453C272.869 378.156 271.846 377.234 270.432 377.25C269.002 377.234 267.979 378.156 267.994 379.453ZM276.713 383.328V375.391H277.932V383.328H276.713ZM282.799 383.719V385.344H289.737V383.719H290.971V389.078H281.581V383.719H282.799ZM279.971 382.734V381.719H292.628V382.734H279.971ZM280.69 379.75C283.167 379.414 285.674 377.953 285.674 376.188V375.531H286.94V376.188C286.932 377.898 289.463 379.438 291.909 379.75L291.456 380.734C289.307 380.414 287.19 379.32 286.307 377.766C285.424 379.328 283.299 380.414 281.159 380.734L280.69 379.75ZM282.799 388.094H289.737V386.312H282.799V388.094ZM304.932 375.375V389.266H303.714V375.375H304.932ZM294.386 385.688V376.75H295.589V384.625C297.714 384.609 299.901 384.445 302.229 383.953L302.401 385C299.932 385.516 297.737 385.688 295.511 385.688H294.386ZM317.737 375.375V380.875H320.066V381.906H317.737V389.297H316.519V375.375H317.737ZM307.597 385.812V376.734H314.081V377.75H308.816V384.781C311.331 384.773 313.105 384.664 315.175 384.281L315.331 385.344C313.152 385.734 311.331 385.812 308.691 385.812H307.597ZM321.964 388.094C321.418 388.086 320.949 387.633 320.964 387.078C320.949 386.531 321.418 386.078 321.964 386.078C322.519 386.078 322.972 386.531 322.964 387.078C322.972 387.633 322.519 388.086 321.964 388.094Z" fill="#707070"/>
<defs>
<clipPath id="clip0_911_2916">
<rect width="160" height="145" fill="white" transform="translate(120 140)"/>
</clipPath>
<clipPath id="clip1_911_2916">
<rect width="140.106" height="123" fill="white" transform="translate(129.947 163)"/>
</clipPath>
</defs>
</svg>
