<svg width="400" height="96" viewBox="0 0 400 96" fill="none" xmlns="http://www.w3.org/2000/svg">
<rect width="400" height="96" fill="white"/>
<rect x="20" y="10" width="360" height="56" rx="8" fill="black"/>
<path d="M120.234 31.2734V44H118.301V31.2734H120.234ZM131.432 35.4219C131.124 33.7783 129.762 32.8643 128.145 32.873C125.947 32.8643 124.321 34.5518 124.312 37.6367C124.321 40.7393 125.956 42.4092 128.145 42.4004C129.744 42.4092 131.098 41.5127 131.432 39.8867L133.383 39.9043C132.979 42.418 130.931 44.1758 128.127 44.1758C124.813 44.1758 122.396 41.7061 122.396 37.6367C122.396 33.5674 124.831 31.0977 128.127 31.0977C130.816 31.0977 132.952 32.6885 133.383 35.4219H131.432ZM153.51 38.6211V39.9746H147.111V45.4766H145.477V39.9746H139.148V38.6211H153.51ZM139.957 36.1074C142.893 35.7031 145.336 33.9541 145.389 32.0117H140.484V30.6758H152.156V32.0117H147.287C147.313 33.9541 149.739 35.7031 152.719 36.1074L152.104 37.4258C149.52 37.0215 147.287 35.7471 146.329 33.9541C145.362 35.7471 143.139 37.0215 140.59 37.4258L139.957 36.1074ZM163.02 31.0801V38.4805H155.531V31.0801H163.02ZM157.166 37.1445H161.367V32.4336H157.166V37.1445ZM157.465 45.0195V39.957H159.152V43.6484H168.24V45.0195H157.465ZM166.096 41.0469V29.7617H167.766V41.0469H166.096ZM184.641 37.1445V38.5156H170.262V37.1445H184.641ZM171.967 42.6113C171.967 40.7832 174.015 39.7461 177.434 39.7461C180.826 39.7461 182.856 40.7832 182.865 42.6113C182.856 44.4395 180.826 45.4678 177.434 45.459C174.015 45.4678 171.967 44.4395 171.967 42.6113ZM172.055 35.7734V30.3066H182.865V31.6777H173.707V34.4199H182.971V35.7734H172.055ZM173.654 42.6113C173.646 43.6221 175.025 44.167 177.434 44.1758C179.807 44.167 181.195 43.6221 181.195 42.6113C181.195 41.6094 179.807 41.0469 177.434 41.0293C175.025 41.0469 173.646 41.6094 173.654 42.6113ZM200.215 38.3398V39.6934H185.801V38.3398H192.182V36.8457H187.646V32.8379H196.734V31.4316H187.611V30.1133H198.404V34.0684H189.299V35.5449H198.721V36.8457H193.834V38.3398H200.215ZM187.418 42.1367V40.8008H198.492V45.3711H196.805V42.1367H187.418ZM215.736 37.1621V38.5156H201.375V37.1621H215.736ZM202.131 35.0176C204.987 34.71 207.246 33.4268 207.431 31.8887H202.693V30.5176H214.453V31.8887H209.663C209.856 33.418 212.08 34.71 214.998 35.0176L214.4 36.3359C211.667 36.0195 209.408 34.8682 208.556 33.207C207.686 34.8682 205.444 36.0195 202.711 36.3359L202.131 35.0176ZM203.08 42.6113C203.08 40.7832 205.128 39.7285 208.547 39.7285C211.939 39.7285 213.97 40.7832 213.979 42.6113C213.97 44.4395 211.939 45.4678 208.547 45.459C205.128 45.4678 203.08 44.4395 203.08 42.6113ZM204.768 42.6113C204.759 43.6045 206.139 44.1494 208.547 44.1406C210.92 44.1494 212.309 43.6045 212.309 42.6113C212.309 41.5918 210.92 41.0469 208.547 41.0293C206.139 41.0469 204.759 41.5918 204.768 42.6113ZM234.387 29.7617V41.293H232.717V29.7617H234.387ZM221.414 37.7422C223.884 36.8281 225.343 34.5605 225.352 32.1875V30.623H227.057V32.1875C227.048 34.4902 228.507 36.5996 230.941 37.4434L230.08 38.7793C228.261 38.1025 226.916 36.7666 226.213 35.0615C225.519 36.8896 224.156 38.3486 222.311 39.0605L221.414 37.7422ZM224.086 45.1602V40.2031H225.773V43.8066H234.861V45.1602H224.086ZM242.402 33.1016C242.402 34.9561 243.923 36.6875 246.322 37.3555L245.531 38.6562C243.703 38.1377 242.332 37.0127 241.611 35.5537C240.926 37.1797 239.555 38.4717 237.674 39.0605L236.883 37.7773C239.273 37.0127 240.75 35.1318 240.75 33.1016V32.9082H237.322V31.5723H240.75V29.6738H242.42V31.5723H245.83V32.9082H242.402V33.1016ZM239.414 42.541C239.405 40.6953 241.436 39.6494 244.74 39.6406C248.036 39.6494 250.058 40.6953 250.066 42.541C250.058 44.3955 248.036 45.4678 244.74 45.459C241.436 45.4678 239.405 44.3955 239.414 42.541ZM241.066 42.541C241.058 43.5605 242.429 44.167 244.74 44.1758C247.052 44.167 248.405 43.5605 248.414 42.541C248.405 41.5215 247.052 40.9414 244.74 40.9414C242.429 40.9414 241.058 41.5215 241.066 42.541ZM245.338 35.5273V34.1562H248.344V29.7441H250.014V39.2891H248.344V35.5273H245.338ZM264.709 29.7441V36.125H267.24V37.5137H264.709V45.4941H263.057V29.7441H264.709ZM252.352 33.5762V32.2051H256.236V29.9551H257.906V32.2051H261.686V33.5762H252.352ZM253.16 38.3926C253.16 36.248 254.812 34.7363 257.08 34.7363C259.339 34.7363 260.991 36.248 261 38.3926C260.991 40.5547 259.339 42.0576 257.08 42.0664C254.812 42.0576 253.16 40.5547 253.16 38.3926ZM254.76 38.3926C254.751 39.7637 255.735 40.6777 257.08 40.6602C258.416 40.6777 259.392 39.7637 259.4 38.3926C259.392 37.0479 258.416 36.1162 257.08 36.1074C255.735 36.1162 254.751 37.0479 254.76 38.3926ZM281.092 29.7441V45.4941H279.404V29.7441H281.092ZM268.154 41.2754C272.338 39.2803 274.386 36.4414 274.711 32.7676H268.91V31.4316H276.398C276.398 36.0459 274.438 40.0361 269.033 42.6289L268.154 41.2754Z" fill="white"/>
</svg>
