<svg width="400" height="727" viewBox="0 0 400 727" fill="none" xmlns="http://www.w3.org/2000/svg">
<rect width="400" height="727" fill="#EBF5FF"/>
<rect width="400" height="58" fill="#EBF5FF"/>
<path d="M374.001 30.4008L369.101 35.3008C368.917 35.4841 368.684 35.5758 368.401 35.5758C368.117 35.5758 367.884 35.4841 367.701 35.3008C367.517 35.1174 367.426 34.8841 367.426 34.6008C367.426 34.3174 367.517 34.0841 367.701 33.9008L372.601 29.0008L367.701 24.1008C367.517 23.9174 367.426 23.6841 367.426 23.4008C367.426 23.1174 367.517 22.8841 367.701 22.7008C367.884 22.5174 368.117 22.4258 368.401 22.4258C368.684 22.4258 368.917 22.5174 369.101 22.7008L374.001 27.6008L378.901 22.7008C379.084 22.5174 379.317 22.4258 379.601 22.4258C379.884 22.4258 380.117 22.5174 380.301 22.7008C380.484 22.8841 380.576 23.1174 380.576 23.4008C380.576 23.6841 380.484 23.9174 380.301 24.1008L375.401 29.0008L380.301 33.9008C380.484 34.0841 380.576 34.3174 380.576 34.6008C380.576 34.8841 380.484 35.1174 380.301 35.3008C380.117 35.4841 379.884 35.5758 379.601 35.5758C379.317 35.5758 379.084 35.4841 378.901 35.3008L374.001 30.4008Z" fill="black"/>
<path d="M112.434 127.97V129.323H95.7407V127.97H103.247V123.52H97.7095V114.968H110.363V123.52H104.826V127.97H112.434ZM99.2886 116.26V122.228H108.804V116.26H99.2886ZM127.58 113.43V120.607H130.635V122.002H127.58V131.661H125.98V113.43H127.58ZM115.829 114.988V119.808H121.161V114.988H122.76V127.293H114.229V114.988H115.829ZM115.829 125.939H121.161V121.1H115.829V125.939ZM136.368 114.106C139.095 114.127 141.084 115.768 141.084 118.146C141.084 120.525 139.095 122.166 136.368 122.166C133.599 122.166 131.63 120.525 131.63 118.146C131.63 115.768 133.599 114.127 136.368 114.106ZM136.368 115.46C134.542 115.46 133.189 116.567 133.209 118.146C133.189 119.746 134.542 120.854 136.368 120.854C138.172 120.854 139.526 119.746 139.526 118.146C139.526 116.567 138.172 115.46 136.368 115.46ZM146.252 113.43V122.802H144.653V113.43H146.252ZM146.252 123.684V128.072H136.019V130.123H146.909V131.415H134.44V126.862H144.653V124.976H134.399V123.684H146.252ZM168.832 113.45V126.821H167.233V113.45H168.832ZM169.406 129.918V131.271H157.061V125.591H158.66V129.918H169.406ZM160.239 116.301C160.219 119.069 162.126 121.571 164.833 122.556L163.992 123.848C161.88 123.038 160.239 121.397 159.44 119.295C158.63 121.53 156.968 123.325 154.846 124.176L153.964 122.925C156.733 121.858 158.599 119.172 158.599 116.301V114.476H160.239V116.301ZM188.182 123.089V124.401H180.758V127.97H179.158V124.401H171.488V123.089H188.182ZM186.316 129.918V131.271H173.621V126.288H175.221V129.918H186.316ZM175.323 114.024V116.362H184.347V114.024H185.946V121.305H173.724V114.024H175.323ZM175.323 119.992H184.347V117.593H175.323V119.992ZM205.85 122.104V123.438H189.238V122.104H205.85ZM197.544 125.037C201.461 125.037 203.799 126.247 203.819 128.339C203.799 130.451 201.461 131.62 197.544 131.62C193.606 131.62 191.248 130.451 191.248 128.339C191.248 126.247 193.606 125.037 197.544 125.037ZM197.544 126.309C194.611 126.329 192.868 127.047 192.889 128.339C192.868 129.61 194.611 130.328 197.544 130.328C200.436 130.328 202.199 129.61 202.199 128.339C202.199 127.047 200.436 126.329 197.544 126.309ZM204.373 114.373V115.706H198.59C198.651 117.777 201.687 119.356 204.927 119.726L204.332 121.018C201.348 120.638 198.549 119.305 197.544 117.265C196.549 119.305 193.76 120.638 190.756 121.018L190.182 119.726C193.36 119.356 196.416 117.777 196.498 115.706H190.756V114.373H204.373ZM216.186 114.455C218.627 114.435 220.37 116.137 220.37 118.577C220.37 121.018 218.627 122.699 216.186 122.699C213.725 122.699 212.003 121.018 212.023 118.577C212.003 116.137 213.725 114.435 216.186 114.455ZM216.186 115.768C214.628 115.768 213.459 116.937 213.479 118.577C213.459 120.197 214.628 121.366 216.186 121.366C217.745 121.366 218.873 120.197 218.893 118.577C218.873 116.937 217.745 115.768 216.186 115.768ZM227.302 113.45V123.376H225.764V118.987H223.344V123.232H221.826V113.799H223.344V117.634H225.764V113.45H227.302ZM216.884 124.196V126.37H225.723V124.196H227.302V131.415H215.284V124.196H216.884ZM216.884 130.103H225.723V127.703H216.884V130.103ZM249.43 113.43V131.702H247.81V113.43H249.43ZM237.064 114.988V119.808H242.499V114.988H244.078V127.293H235.465V114.988H237.064ZM237.064 125.939H242.499V121.1H237.064V125.939ZM261.643 114.455V121.879H253.091V114.455H261.643ZM254.671 115.768V120.607H260.064V115.768H254.671ZM267.16 113.43V122.843H265.581V113.43H267.16ZM267.16 123.745V128.093H256.947V130.144H267.816V131.456H255.347V126.903H265.581V125.037H255.327V123.745H267.16ZM284.971 113.45V126.944H283.351V119.931H279.044V123.827H270.78V114.66H272.379V117.9H277.465V114.66H279.044V118.577H283.351V113.45H284.971ZM285.381 129.918V131.271H273.179V125.611H274.799V129.918H285.381ZM272.379 122.494H277.465V119.172H272.379V122.494ZM303.336 116.137V117.47H288.407V116.137H295.092V113.737H296.671V116.137H303.336ZM304.28 128.195V129.528H287.586V128.195H295.092V125.632C291.852 125.458 289.883 124.196 289.904 122.146C289.883 119.972 292.18 118.7 295.892 118.721C299.563 118.7 301.88 119.972 301.88 122.146C301.88 124.196 299.891 125.458 296.671 125.632V128.195H304.28ZM295.892 119.992C293.165 119.992 291.503 120.792 291.524 122.146C291.503 123.54 293.165 124.319 295.892 124.34C298.579 124.319 300.24 123.54 300.24 122.146C300.24 120.792 298.579 119.992 295.892 119.992ZM124.324 159.205C121.74 159.164 118.91 157.646 118.91 152.15C118.91 146.9 121.063 143.947 124.55 143.947C127.154 143.947 128.979 145.547 129.369 147.885H127.544C127.195 146.572 126.211 145.588 124.55 145.588C122.109 145.588 120.653 147.68 120.653 151.248H120.838C121.699 150.018 123.053 149.279 124.652 149.279C127.298 149.279 129.492 151.33 129.492 154.201C129.492 156.99 127.441 159.226 124.324 159.205ZM124.324 157.585C126.252 157.585 127.687 156.067 127.708 154.222C127.687 152.396 126.313 150.899 124.365 150.899C122.417 150.899 120.92 152.479 120.899 154.242C120.899 155.985 122.335 157.585 124.324 157.585ZM137.132 148.028C137.111 150.961 139.223 154.181 141.869 155.432L140.946 156.703C138.895 155.708 137.162 153.535 136.352 151.063C135.512 153.75 133.676 156.108 131.636 157.154L130.651 155.883C133.276 154.611 135.532 151.146 135.553 148.028V145.649H131.307V144.316H141.233V145.649H137.132V148.028ZM145.068 142.43V149.812H148.124V151.187H145.068V160.661H143.469V142.43H145.068ZM163.741 142.43V160.702H162.141V142.43H163.741ZM158.204 144.132V150.612H151.395V154.919C154.42 154.919 157.117 154.786 160.378 154.263L160.542 155.616C157.178 156.149 154.41 156.272 151.272 156.272H149.755V149.3H156.584V145.465H149.714V144.132H158.204ZM183.09 150.899V152.171H166.397V150.899H183.09ZM180.999 153.627V157.503H170.048V159.246H181.593V160.415H168.427V156.396H179.399V154.837H168.407V153.627H180.999ZM180.937 142.983V146.757H170.171V148.356H181.265V149.525H168.571V145.649H179.317V144.152H168.509V142.983H180.937ZM204.05 142.43V152.212H202.451V142.43H204.05ZM193.837 153.135V155.35H202.451V153.135H204.05V160.415H192.238V153.135H193.837ZM193.837 159.103H202.451V156.642H193.837V159.103ZM194.207 143.332C196.975 143.312 198.985 145.014 198.985 147.516C198.985 149.997 196.975 151.699 194.207 151.699C191.438 151.699 189.428 149.997 189.428 147.516C189.428 145.014 191.438 143.312 194.207 143.332ZM194.207 144.686C192.34 144.665 190.987 145.854 191.007 147.516C190.987 149.177 192.34 150.366 194.207 150.366C196.052 150.366 197.406 149.177 197.406 147.516C197.406 145.854 196.052 144.665 194.207 144.686ZM215.381 143.558V148.664H209.106V151.494C212.531 151.494 214.294 151.443 216.448 151.043L216.612 152.376C214.335 152.745 212.49 152.807 208.798 152.807H207.506V147.434H213.782V144.85H207.465V143.558H215.381ZM221.841 142.45V153.647H220.221V150.264H216.591V148.931H220.221V146.47H216.591V145.157H220.221V142.45H221.841ZM221.841 154.632V160.702H220.221V155.944H209.557V154.632H221.841ZM238.566 142.43V149.956H241.621V151.289H238.566V160.661H236.966V142.43H238.566ZM235.202 145.362V146.695H224.354V145.362H229.05V142.655H230.65V145.362H235.202ZM229.87 148.213C232.454 148.213 234.321 149.936 234.341 152.396C234.321 154.857 232.454 156.58 229.87 156.58C227.266 156.58 225.379 154.857 225.4 152.396C225.379 149.936 227.266 148.213 229.87 148.213ZM229.87 149.566C228.168 149.566 226.917 150.756 226.938 152.396C226.917 154.058 228.168 155.227 229.87 155.206C231.552 155.227 232.783 154.058 232.803 152.396C232.783 150.756 231.552 149.566 229.87 149.566ZM247.6 147.618C247.6 150.51 249.015 153.647 251.435 155.083L250.512 156.334C248.759 155.268 247.497 153.319 246.862 151.104C246.185 153.524 244.831 155.606 243.006 156.724L241.981 155.514C244.503 154.037 246.041 150.797 246.041 147.68V144.152H247.6V147.618ZM257.813 142.43V160.661H256.254V142.43H257.813ZM254.039 142.819V159.738H252.522V150.346H249.425V148.972H252.522V142.819H254.039ZM276.609 156.97V158.323H259.915V156.97H264.058V152.048C262.499 151.238 261.556 149.925 261.556 148.274C261.556 145.444 264.324 143.599 268.221 143.578C272.117 143.599 274.886 145.444 274.886 148.274C274.886 149.895 273.973 151.197 272.466 152.007V156.97H276.609ZM268.221 144.911C265.227 144.891 263.114 146.244 263.114 148.274C263.114 150.305 265.227 151.679 268.221 151.679C271.195 151.679 273.327 150.305 273.327 148.274C273.327 146.244 271.195 144.891 268.221 144.911ZM265.637 156.97H270.846V152.622C270.056 152.837 269.174 152.95 268.221 152.95C267.288 152.95 266.416 152.848 265.637 152.643V156.97ZM279.572 159.123C278.855 159.123 278.239 158.528 278.26 157.79C278.239 157.072 278.855 156.478 279.572 156.478C280.29 156.478 280.885 157.072 280.885 157.79C280.885 158.528 280.29 159.123 279.572 159.123Z" fill="#222222"/>
<circle cx="115" cy="226" r="10" fill="#0077FA"/>
<circle cx="149" cy="226" r="10" fill="#0077FA"/>
<circle cx="183" cy="226" r="10" fill="#0077FA"/>
<circle cx="217" cy="226" r="10" fill="#0077FA"/>
<circle cx="251" cy="226" r="10" fill="#0077FA"/>
<circle cx="285" cy="226" r="10" fill="#CEDFE0"/>
</svg>
