<svg width="400" height="725" viewBox="0 0 400 725" fill="none" xmlns="http://www.w3.org/2000/svg">
<rect width="400" height="725" fill="white"/>
<mask id="mask0_909_3126" style="mask-type:alpha" maskUnits="userSpaceOnUse" x="345" y="20" width="30" height="30">
<rect x="345" y="20" width="30" height="30" fill="#D9D9D9"/>
</mask>
<g mask="url(#mask0_909_3126)">
<path d="M360.001 36.6582L353.684 42.9754C353.454 43.205 353.178 43.3198 352.855 43.3198C352.532 43.3198 352.256 43.205 352.026 42.9754C351.796 42.7458 351.682 42.4696 351.682 42.1466C351.682 41.8237 351.796 41.5475 352.026 41.3179L358.343 35.0007L352.026 28.6835C351.796 28.4539 351.682 28.1777 351.682 27.8548C351.682 27.5319 351.796 27.2556 352.026 27.026C352.256 26.7964 352.532 26.6816 352.855 26.6816C353.178 26.6816 353.454 26.7964 353.684 27.026L360.001 33.3432L366.318 27.026C366.547 26.7964 366.824 26.6816 367.147 26.6816C367.47 26.6816 367.746 26.7964 367.975 27.026C368.205 27.2556 368.32 27.5319 368.32 27.8548C368.32 28.1777 368.205 28.4539 367.975 28.6835L361.658 35.0007L367.975 41.3179C368.205 41.5475 368.32 41.8237 368.32 42.1466C368.32 42.4696 368.205 42.7458 367.975 42.9754C367.746 43.205 367.47 43.3198 367.147 43.3198C366.824 43.3198 366.547 43.205 366.318 42.9754L360.001 36.6582Z" fill="#111827"/>
</g>
<path d="M43.1875 83.9922V95.2656H40.9609V83.9922H43.1875ZM31.6328 96.2734V98.6406H40.9844V96.2734H43.1875V104.734H29.4531V96.2734H31.6328ZM31.6328 102.906H40.9844V100.398H31.6328V102.906ZM31.7969 84.9531C35.0078 84.9531 37.375 86.9453 37.375 89.8281C37.375 92.7109 35.0078 94.7031 31.7969 94.6797C28.5859 94.7031 26.1953 92.7109 26.1953 89.8281C26.1953 86.9453 28.5859 84.9531 31.7969 84.9531ZM31.7969 86.8281C29.8047 86.8047 28.375 88.0469 28.375 89.8281C28.375 91.6328 29.8047 92.8516 31.7969 92.8516C33.7656 92.8516 35.1953 91.6328 35.1953 89.8281C35.1953 88.0469 33.7656 86.8047 31.7969 86.8281ZM56.5234 85.2578V91.375H49.5859V94.2812C53.2422 94.293 55.2344 94.2109 57.6016 93.7656L57.8125 95.5703C55.2578 96.0156 53.1016 96.0859 48.9062 96.0859H47.3828V89.6875H54.2969V87.0391H47.3594V85.2578H56.5234ZM64.0234 84.0156V96.9297H61.7969V93.2266H57.8594V91.4453H61.7969V88.8438H57.8594V87.0625H61.7969V84.0156H64.0234ZM64.0234 97.9844V105.016H61.7969V99.7891H49.7734V97.9844H64.0234ZM90.625 83.9922V96.4844H88.3984V91.1641H84.4844V89.3359H88.3984V83.9922H90.625ZM83.5938 97.0703C88 97.0703 90.6953 98.5234 90.6953 101.031C90.6953 103.539 88 104.969 83.5938 104.992C79.1875 104.969 76.4688 103.539 76.4922 101.031C76.4688 98.5234 79.1875 97.0703 83.5938 97.0703ZM83.5938 98.8047C80.5234 98.8047 78.6953 99.6016 78.6953 101.031C78.6953 102.438 80.5234 103.258 83.5938 103.234C86.6641 103.258 88.4922 102.438 88.4922 101.031C88.4922 99.6016 86.6641 98.8047 83.5938 98.8047ZM80.6406 87.6953C80.6406 90.3672 82.5391 92.9453 85.7031 94.0234L84.5547 95.7812C82.1992 94.9609 80.4648 93.2852 79.5625 91.2109C78.6367 93.5664 76.7969 95.4531 74.2891 96.3672L73.1172 94.5859C76.375 93.4609 78.3672 90.625 78.3672 87.7188V87.25H73.8203V85.4453H85.1406V87.25H80.6406V87.6953ZM113.078 100.539V102.391H93.8594V100.539H102.32V96.2266H96.0625V85.4219H98.2891V89.0312H108.602V85.4219H110.805V96.2266H104.523V100.539H113.078ZM98.2891 94.4219H108.602V90.8359H98.2891V94.4219ZM130.961 83.9922V92.3594H134.219V94.2109H130.961V104.969H128.734V83.9922H130.961ZM125.477 86.1953C125.453 92.2656 122.781 97.6797 115.867 101.102L114.625 99.3672C119.887 96.7422 122.746 92.9453 123.203 88.0469H115.68V86.1953H125.477ZM151.844 85.3984V94.4453H142.023V85.3984H151.844ZM144.203 87.1797V92.6641H149.664V87.1797H144.203ZM157.703 83.9922V88.8672H160.75V90.7188H157.703V95.8984H155.477V83.9922H157.703ZM158.031 97.0703V98.8516H152.289C152.594 100.844 155.324 102.684 158.898 103.211L158.078 104.922C154.891 104.43 152.266 102.965 151.047 100.961C149.852 102.977 147.238 104.43 144.062 104.898L143.242 103.188C146.84 102.684 149.512 100.902 149.875 98.8516H144.086V97.0703H158.031ZM178.938 90.1328V91.9141H164.477V84.7422H166.68V90.1328H178.938ZM181.141 94.5625V96.3438H161.922V94.5625H181.141ZM179.078 102.672V104.5H164.312V98.3359H166.539V102.672H179.078ZM190.422 90.1797C190.422 93.6953 192.719 97.3281 195.953 98.7109L194.734 100.445C192.262 99.3555 190.293 97.0469 189.32 94.2344C188.348 97.2344 186.367 99.7891 183.93 100.984L182.641 99.2266C185.805 97.75 188.148 93.7891 188.172 90.1797V87.9531H183.367V86.1016H195.203V87.9531H190.422V90.1797ZM200.078 83.9922V104.992H197.852V83.9922H200.078ZM42.2969 113.016V119.25H45.2969V121.078H42.2969V127.148H40.0703V113.016H42.2969ZM25.6328 124.805C27.2617 124.805 29.1484 124.805 31.1172 124.734V123.328C28.7266 123.082 27.2031 121.957 27.2266 120.258C27.2031 118.336 29.1953 117.141 32.2188 117.164C35.2188 117.141 37.2109 118.336 37.2109 120.258C37.2109 121.945 35.7109 123.07 33.3438 123.328V124.664C35.2188 124.57 37.1172 124.418 38.875 124.172L39.0625 125.766C34.5391 126.562 29.5703 126.586 25.8672 126.586L25.6328 124.805ZM42.2969 128.133V133.992H40.0703V129.867H28.2578V128.133H42.2969ZM38.2891 114.797V116.461H26.1719V114.797H31.1172V112.828H33.3438V114.797H38.2891ZM32.2188 118.688C30.4141 118.664 29.3359 119.25 29.3359 120.258C29.3359 121.242 30.4141 121.875 32.2188 121.875C34 121.875 35.0781 121.242 35.0781 120.258C35.0781 119.25 34 118.664 32.2188 118.688ZM63.9297 113.016V128.273H61.7031V113.016H63.9297ZM64.5625 131.742V133.547H50.1953V126.727H52.4453V131.742H64.5625ZM52.5391 114.422C55.7031 114.422 58.1172 116.578 58.1172 119.625C58.1172 122.719 55.7031 124.852 52.5391 124.852C49.375 124.852 46.9375 122.719 46.9375 119.625C46.9375 116.578 49.375 114.422 52.5391 114.422ZM52.5391 116.367C50.5703 116.367 49.1172 117.703 49.1172 119.625C49.1172 121.594 50.5703 122.906 52.5391 122.906C54.4609 122.906 55.9375 121.594 55.9375 119.625C55.9375 117.703 54.4609 116.367 52.5391 116.367ZM77.6406 116.461V118.266H67.2109V116.461H71.3359V113.602H73.5391V116.461H77.6406ZM72.4375 119.531C75.1094 119.531 76.9844 121.523 77.0078 124.359C76.9844 127.219 75.1094 129.234 72.4375 129.234C69.8125 129.234 67.8672 127.219 67.8906 124.359C67.8672 121.523 69.8125 119.531 72.4375 119.531ZM72.4375 121.383C70.9141 121.383 69.8594 122.625 69.8594 124.359C69.8594 126.141 70.9141 127.336 72.4375 127.336C73.9375 127.336 75.0391 126.141 75.0391 124.359C75.0391 122.625 73.9375 121.383 72.4375 121.383ZM85.2344 112.992V133.992H83.125V123.562H80.7109V133.008H78.6016V113.461H80.7109V121.734H83.125V112.992H85.2344ZM107.148 124.828V126.633H98.6172V133.969H96.4375V126.633H88V124.828H107.148ZM105.344 114.234V116.016H98.8516C98.8867 118.617 102.121 120.938 106.094 121.477L105.273 123.234C101.828 122.695 98.8516 120.996 97.5859 118.594C96.2852 120.996 93.3203 122.695 89.9219 123.234L89.0781 121.477C93.0039 120.938 96.2383 118.617 96.3203 116.016H89.7812V114.234H105.344ZM115.141 118.734C115.141 122.086 116.547 125.672 119.359 127.383L118.117 129.094C116.148 127.91 114.812 125.812 114.109 123.375C113.324 126.047 111.883 128.32 109.844 129.562L108.461 127.898C111.438 126.117 112.984 122.414 112.984 118.828V114.914H115.141V118.734ZM126.812 112.992V133.992H124.68V112.992H126.812ZM122.453 113.391V132.961H120.344V122.227H117.086V120.375H120.344V113.391H122.453ZM148.703 129.516V131.367H129.484V129.516H134.078V124.031C132.355 123.082 131.312 121.57 131.312 119.695C131.312 116.391 134.547 114.211 139.047 114.211C143.57 114.211 146.805 116.391 146.805 119.695C146.805 121.547 145.797 123.035 144.109 123.984V129.516H148.703ZM139.047 115.992C135.742 115.992 133.469 117.422 133.469 119.695C133.469 121.945 135.742 123.422 139.047 123.422C142.328 123.422 144.648 121.945 144.648 119.695C144.648 117.422 142.328 115.992 139.047 115.992ZM136.281 129.516H141.859V124.828C141.004 125.051 140.055 125.156 139.047 125.156C138.062 125.156 137.125 125.051 136.281 124.852V129.516ZM152.617 132.164C151.703 132.164 150.93 131.414 150.953 130.5C150.93 129.586 151.703 128.836 152.617 128.836C153.508 128.836 154.281 129.586 154.281 130.5C154.281 131.414 153.508 132.164 152.617 132.164Z" fill="#111827"/>
<path d="M33.1406 172.109H31.8438L31.9688 168.25L28.6719 170.281L28.0312 169.156L31.4375 167.344L28.0312 165.516L28.6719 164.391L31.9688 166.438L31.8438 162.562H33.1406L33.0156 166.438L36.3125 164.391L36.9688 165.516L33.5469 167.344L36.9688 169.156L36.3125 170.281L33.0156 168.25L33.1406 172.109ZM52.125 160.328V167.844H50.6406V160.328H52.125ZM44.4219 168.516V170.094H50.6562V168.516H52.125V174.156H42.9688V168.516H44.4219ZM44.4219 172.938H50.6562V171.266H44.4219V172.938ZM44.5312 160.969C46.6719 160.969 48.25 162.297 48.25 164.219C48.25 166.141 46.6719 167.469 44.5312 167.453C42.3906 167.469 40.7969 166.141 40.7969 164.219C40.7969 162.297 42.3906 160.969 44.5312 160.969ZM44.5312 162.219C43.2031 162.203 42.25 163.031 42.25 164.219C42.25 165.422 43.2031 166.234 44.5312 166.234C45.8438 166.234 46.7969 165.422 46.7969 164.219C46.7969 163.031 45.8438 162.203 44.5312 162.219ZM61.0156 161.172V165.25H56.3906V167.188C58.8281 167.195 60.1562 167.141 61.7344 166.844L61.875 168.047C60.1719 168.344 58.7344 168.391 55.9375 168.391H54.9219V164.125H59.5312V162.359H54.9062V161.172H61.0156ZM66.0156 160.344V168.953H64.5312V166.484H61.9062V165.297H64.5312V163.562H61.9062V162.375H64.5312V160.344H66.0156ZM66.0156 169.656V174.344H64.5312V170.859H56.5156V169.656H66.0156ZM79.1719 160.344V164.844H81.2031V166.078H79.1719V170.812H77.6875V160.344H79.1719ZM76.5312 161.969V163.172H68.1875V161.969H71.625V160.328H73.1094V161.969H76.5312ZM72.3594 163.844C74.375 163.844 75.75 164.891 75.75 166.484C75.75 168.078 74.375 169.109 72.3594 169.109C70.3281 169.109 68.9531 168.078 68.9531 166.484C68.9531 164.891 70.3281 163.844 72.3594 163.844ZM72.3594 164.984C71.1719 164.984 70.375 165.562 70.3906 166.484C70.375 167.391 71.1719 167.953 72.3594 167.953C73.5469 167.953 74.3438 167.391 74.3594 166.484C74.3438 165.562 73.5469 164.984 72.3594 164.984ZM79.7656 172.828V174.031H70.2969V169.984H71.7812V172.828H79.7656ZM96.9062 160.328V164.125H98.9375V165.375H96.9062V169.312H95.4219V160.328H96.9062ZM92.4375 169.422C95.2969 169.422 97.0625 170.328 97.0625 171.875C97.0625 173.391 95.2969 174.312 92.4375 174.297C89.5469 174.312 87.7812 173.391 87.7969 171.875C87.7812 170.328 89.5469 169.422 92.4375 169.422ZM92.4375 170.562C90.4219 170.562 89.25 171.016 89.2656 171.875C89.25 172.688 90.4219 173.172 92.4375 173.172C94.4219 173.172 95.5938 172.688 95.5938 171.875C95.5938 171.016 94.4219 170.562 92.4375 170.562ZM94.2656 161.828V163H85.9219V161.828H89.3594V160.219H90.8438V161.828H94.2656ZM90.0938 163.641C92.1094 163.641 93.4844 164.641 93.4844 166.141C93.4844 167.641 92.1094 168.625 90.0938 168.609C88.0469 168.625 86.6875 167.641 86.6875 166.141C86.6875 164.641 88.0469 163.641 90.0938 163.641ZM90.0938 164.75C88.9062 164.75 88.1094 165.281 88.125 166.141C88.1094 166.969 88.9062 167.484 90.0938 167.484C91.2812 167.484 92.0781 166.969 92.0938 166.141C92.0781 165.281 91.2812 164.75 90.0938 164.75ZM110.875 160.906V165.703H106.844V167.328H112.5V168.531H99.7344V167.328H105.375V165.703H101.359V160.906H110.875ZM102.812 162.078V164.516H109.406V162.078H102.812ZM110.938 169.859V174.328H109.438V171.031H101.156V169.859H110.938ZM119.938 160.562C123.094 160.562 124.938 161.406 124.938 162.969C124.938 164.531 123.094 165.391 119.938 165.391C116.781 165.391 114.938 164.531 114.938 162.969C114.938 161.406 116.781 160.562 119.938 160.562ZM119.938 161.656C117.703 161.656 116.469 162.141 116.484 162.969C116.469 163.828 117.703 164.281 119.938 164.281C122.172 164.281 123.406 163.828 123.406 162.969C123.406 162.141 122.172 161.656 119.938 161.656ZM126.328 166.25V167.438H113.562V166.25H126.328ZM124.719 168.516V171.797H116.562V173.047H125.109V174.188H115.109V170.719H123.25V169.625H115.094V168.516H124.719ZM142.969 160.328V174.359H141.5V166.719H138.719V165.5H141.5V160.328H142.969ZM138.484 161.578V162.781H133.438V165.5H137.891V166.688H133.438V169.812C135.781 169.805 137.406 169.75 139.266 169.422L139.422 170.625C137.391 170.953 135.625 171.031 133.031 171.047H131.938V161.578H138.484ZM156.719 160.328V174.328H155.234V160.328H156.719ZM150.391 164.828C150.391 167.062 151.875 169.344 154.047 170.266L153.234 171.406C151.625 170.703 150.336 169.25 149.688 167.484C149.055 169.352 147.789 170.906 146.156 171.641L145.328 170.5C147.5 169.531 148.938 167.172 148.938 164.828V163.906H145.75V162.719H148.922V160.609H150.391V162.719H153.531V163.906H150.391V164.828ZM168 163.891C167.984 166.453 169.531 169.016 171.703 169.984L170.812 171.156C169.203 170.391 167.93 168.82 167.281 166.906C166.625 168.953 165.336 170.648 163.656 171.469L162.75 170.219C164.953 169.234 166.5 166.562 166.5 163.891V161.5H168V163.891ZM174.453 160.328V174.359H172.969V160.328H174.453ZM179.203 171.922L177.953 176.234H176.625L177.453 171.922H179.203ZM191.859 161.562C191.844 163.422 194.125 165.172 196.875 165.531L196.297 166.75C194.008 166.383 191.992 165.195 191.094 163.547C190.172 165.203 188.164 166.383 185.891 166.75L185.297 165.531C188.047 165.172 190.297 163.438 190.312 161.562V160.797H191.859V161.562ZM197.453 168.125V169.344H191.766V174.328H190.312V169.344H184.688V168.125H197.453ZM210.188 160.328V168.656H208.703V165.109H206.094V163.891H208.703V160.328H210.188ZM205.5 169.047C208.438 169.047 210.234 170.016 210.234 171.688C210.234 173.359 208.438 174.312 205.5 174.328C202.562 174.312 200.75 173.359 200.766 171.688C200.75 170.016 202.562 169.047 205.5 169.047ZM205.5 170.203C203.453 170.203 202.234 170.734 202.234 171.688C202.234 172.625 203.453 173.172 205.5 173.156C207.547 173.172 208.766 172.625 208.766 171.688C208.766 170.734 207.547 170.203 205.5 170.203ZM203.531 162.797C203.531 164.578 204.797 166.297 206.906 167.016L206.141 168.188C204.57 167.641 203.414 166.523 202.812 165.141C202.195 166.711 200.969 167.969 199.297 168.578L198.516 167.391C200.688 166.641 202.016 164.75 202.016 162.812V162.5H198.984V161.297H206.531V162.5H203.531V162.797ZM223.25 160.328V166H225.5V167.234H223.25V174.328H221.781V160.328H223.25ZM220.562 162.516V163.734H212.266V162.516H215.719V160.516H217.203V162.516H220.562ZM216.469 164.766C218.469 164.766 219.938 166.109 219.953 168.016C219.938 169.938 218.469 171.266 216.469 171.281C214.453 171.266 212.984 169.938 212.984 168.016C212.984 166.109 214.453 164.766 216.469 164.766ZM216.469 165.984C215.281 165.984 214.391 166.812 214.406 168.016C214.391 169.234 215.281 170.047 216.469 170.031C217.656 170.047 218.531 169.234 218.531 168.016C218.531 166.812 217.656 165.984 216.469 165.984ZM237.766 160.328V167.531H236.297V160.328H237.766ZM237.781 168.203V171.703H230.062V173H238.25V174.188H228.625V170.578H236.312V169.375H228.578V168.203H237.781ZM231.266 161.781C231.25 163.656 232.609 165.359 234.75 166.031L234.016 167.188C232.383 166.656 231.156 165.547 230.531 164.125C229.891 165.656 228.641 166.875 226.969 167.453L226.219 166.281C228.406 165.547 229.75 163.719 229.75 161.781V160.703H231.266V161.781ZM251.078 161.562C251.062 163.422 253.344 165.172 256.094 165.531L255.516 166.75C253.227 166.383 251.211 165.195 250.312 163.547C249.391 165.203 247.383 166.383 245.109 166.75L244.516 165.531C247.266 165.172 249.516 163.438 249.531 161.562V160.797H251.078V161.562ZM256.672 168.125V169.344H250.984V174.328H249.531V169.344H243.906V168.125H256.672ZM266.5 169.578C266.5 170.781 267.094 172.055 268.359 172.812C269.648 171.992 270.281 170.648 270.281 169.578V168.906H271.734V169.578C271.734 171.031 272.688 172.438 274.516 173.031L273.781 174.125C272.398 173.648 271.461 172.719 270.969 171.562C270.523 172.695 269.688 173.719 268.406 174.25C267.062 173.742 266.211 172.75 265.781 171.609C265.273 172.711 264.352 173.641 263.031 174.125L262.281 173.031C264.078 172.391 265.047 170.938 265.062 169.578V168.906H266.5V169.578ZM273.25 160.344V168.312H271.766V160.344H273.25ZM265.656 161.109C267.797 161.109 269.375 162.469 269.375 164.422C269.375 166.359 267.797 167.703 265.656 167.703C263.516 167.703 261.922 166.359 261.922 164.422C261.922 162.469 263.516 161.109 265.656 161.109ZM265.656 162.375C264.328 162.359 263.375 163.188 263.375 164.422C263.375 165.641 264.328 166.469 265.656 166.469C266.969 166.469 267.922 165.641 267.922 164.422C267.922 163.188 266.969 162.359 265.656 162.375ZM278.516 168.719V170.203H285.094V168.719H286.578V174.156H277.047V168.719H278.516ZM278.516 172.969H285.094V171.359H278.516V172.969ZM288.234 166.609V167.844H275.469V166.609H288.234ZM282.609 161.078C282.609 162.688 284.844 164.25 287.531 164.578L287 165.75C284.727 165.43 282.75 164.359 281.859 162.875C280.945 164.367 278.961 165.43 276.719 165.75L276.156 164.578C278.875 164.234 281.094 162.734 281.094 161.078V160.484H282.609V161.078ZM300.922 160.328V174.328H299.438V160.328H300.922ZM291.625 161.688V169.484C293.664 169.469 295.812 169.305 298.062 168.844L298.266 170.094C295.781 170.594 293.531 170.766 291.328 170.766H290.156V161.688H291.625ZM314.031 160.328V165.75H316.281V166.969H314.031V174.359H312.547V160.328H314.031ZM310.266 161.672V162.875H305.203V169.641C307.555 169.633 309.32 169.531 311.312 169.172L311.5 170.422C309.312 170.812 307.453 170.891 304.844 170.875H303.719V161.672H310.266ZM318.547 173.109C317.938 173.109 317.422 172.609 317.438 172C317.422 171.391 317.938 170.891 318.547 170.891C319.141 170.891 319.656 171.391 319.656 172C319.656 172.609 319.141 173.109 318.547 173.109Z" fill="#111827"/>
<path d="M39.0449 231.537V232.662H26.3711V231.537H32.0664V229.709H33.4199V231.537H39.0449ZM39.9414 239.781V240.924H36.1621V245.459H34.791V240.924H30.748V245.459H29.3594V240.924H25.6328V239.781H39.9414ZM32.752 233.559C35.9336 233.559 37.8496 234.473 37.8496 236.143C37.8496 237.795 35.9336 238.727 32.752 238.727C29.5527 238.727 27.6367 237.795 27.6543 236.143C27.6367 234.473 29.5527 233.559 32.752 233.559ZM32.752 234.613C30.4141 234.631 29.0605 235.176 29.0781 236.143C29.0605 237.109 30.4141 237.654 32.752 237.654C35.0547 237.654 36.4082 237.109 36.4258 236.143C36.4082 235.176 35.0547 234.631 32.752 234.613ZM54.5488 229.797V245.424H53.2305V237.232H50.9277V244.615H49.6621V230.148H50.9277V236.09H53.2305V229.797H54.5488ZM47.623 231.713V232.855H43.1406V240.379C45.2939 240.37 46.7881 240.291 48.5195 239.939L48.6426 241.1C46.7617 241.486 45.1621 241.557 42.7715 241.557H41.7695V231.713H47.623ZM69.6309 230.518V231.66H67.2227V235.246H69.5781V236.354H64.5508V238.27H70.9844V239.395H56.7461V238.27H63.1797V236.354H58.1348V235.246H60.4902V231.66H58.082V230.518H69.6309ZM69.4023 243.93V245.09H58.5918V240.766H59.9805V243.93H69.4023ZM61.8613 235.246H65.8516V231.66H61.8613V235.246ZM91.0586 238.094V239.219H76.8027V238.094H83.2363V236.547H78.7012V230.254H89.2832V231.379H80.0898V232.838H88.8613V233.893H80.0898V235.439H89.3711V236.547H84.6074V238.094H91.0586ZM83.9395 240.396C87.3672 240.379 89.3008 241.258 89.3184 242.893C89.3008 244.527 87.3672 245.389 83.9395 245.389C80.4766 245.389 78.543 244.527 78.543 242.893C78.543 241.258 80.4766 240.379 83.9395 240.396ZM83.9395 241.434C81.3555 241.434 79.9141 241.961 79.9316 242.893C79.9141 243.842 81.3555 244.334 83.9395 244.316C86.4883 244.334 87.9297 243.842 87.9297 242.893C87.9297 241.961 86.4883 241.434 83.9395 241.434ZM105.279 229.814V241.275H103.908V229.814H105.279ZM105.771 243.93V245.09H95.1895V240.221H96.5605V243.93H105.771ZM97.9141 232.258C97.8965 234.631 99.5312 236.775 101.852 237.619L101.131 238.727C99.3203 238.032 97.9141 236.626 97.2285 234.824C96.5342 236.74 95.1104 238.278 93.291 239.008L92.5352 237.936C94.9082 237.021 96.5078 234.719 96.5078 232.258V230.693H97.9141V232.258ZM113.172 233.998C113.172 236.758 115 239.588 117.215 240.678L116.371 241.785C114.648 240.88 113.207 239.034 112.521 236.863C111.818 239.175 110.342 241.144 108.584 242.084L107.705 240.977C109.99 239.852 111.801 236.846 111.818 233.998V231.15H113.172V233.998ZM120.027 229.797V236.143H122.646V237.338H120.027V245.424H118.656V229.797H120.027Z" fill="#0077FA"/>
<mask id="path-6-inside-1_909_3126" fill="white">
<path d="M25 258H375V309H25V258Z"/>
</mask>
<path d="M375 308H25V310H375V308Z" fill="#0077FA" mask="url(#path-6-inside-1_909_3126)"/>
<path d="M26.6406 291V276.152H28.4863V283.494H28.6709L35.2744 276.152H37.6943L31.4805 282.858L37.6943 291H35.4385L30.332 284.13L28.4863 286.222V291H26.6406ZM51.8652 275.558V276.85H46.4307V278.818H51.1064V280.069H46.4307V282.243C48.8403 282.233 50.5938 282.161 52.6855 281.771L52.8496 283.022C50.5732 283.433 48.7275 283.535 46.0615 283.535H44.9131V275.558H51.8652ZM59.5352 274.45V284.294H57.9971V274.45H59.5352ZM55.9873 274.778V284.15H54.4287V279.864H51.9678V278.552H54.4287V274.778H55.9873ZM59.5352 285.135V289.318H49.0762V291.164H60.2734V292.456H47.4766V288.108H57.9561V286.427H47.4355V285.135H59.5352ZM69.3174 276.46V282.756H64.375V286.816C66.4771 286.806 68.4663 286.734 70.8965 286.304L71.0195 287.637C68.415 288.108 66.3438 288.149 64.0264 288.17H62.8164V281.423H67.7793V277.793H62.7754V276.46H69.3174ZM77.7871 274.43V292.661H76.249V274.43H77.7871ZM74.0547 274.881V291.697H72.5371V282.325H70.1992V281.013H72.5371V274.881H74.0547ZM94.9111 275.086V276.46C94.8906 277.957 94.8906 279.741 94.4395 282.12L92.8398 282.038C93.0347 281.043 93.1475 280.172 93.2295 279.372L82.1143 279.905L81.8887 278.552L93.291 278.183C93.3115 277.578 93.3115 277.003 93.3115 276.46V276.378H82.3398V275.086H94.9111ZM96.9619 283.248V284.581H80.3711V283.248H87.1387V280.767H88.7588V283.248H96.9619ZM94.8496 286.427V292.415H82.4014V286.427H94.8496ZM84.001 287.719V291.103H93.25V287.719H84.001Z" fill="#111827"/>
<path d="M33.5254 344.012C33.5078 346.104 36.3027 347.879 39.0273 348.283L38.5176 349.373C36.0742 348.96 33.7012 347.659 32.752 345.77C31.8027 347.659 29.4209 348.96 27.0215 349.373L26.4766 348.283C29.1836 347.879 31.9785 346.104 31.9785 344.012V343.906H26.9688V342.781H38.5176V343.906H33.5254V344.012ZM39.8711 350.709V351.852H33.4023V357.424H32.0488V351.852H25.6328V350.709H39.8711ZM49.3457 343.168V350.41H42.0156V343.168H49.3457ZM43.3691 344.311V349.303H47.9922V344.311H43.3691ZM54.0918 341.814V353.047H52.7207V341.814H54.0918ZM54.584 355.754V356.896H44.002V351.957H45.373V355.754H54.584ZM71.002 349.232V350.393H56.7461V349.232H71.002ZM69.332 346.613V347.738H58.5566V342.43H69.2266V343.59H59.9102V346.613H69.332ZM63.8652 351.764C67.2227 351.764 69.2266 352.783 69.2441 354.576C69.2266 356.387 67.2227 357.389 63.8652 357.389C60.4902 357.389 58.4688 356.387 58.4688 354.576C58.4688 352.783 60.4902 351.764 63.8652 351.764ZM63.8652 352.836C61.3516 352.854 59.8574 353.486 59.875 354.576C59.8574 355.684 61.3516 356.299 63.8652 356.299C66.3438 356.299 67.8555 355.684 67.8555 354.576C67.8555 353.486 66.3438 352.854 63.8652 352.836ZM86.5938 350.41V351.553H72.2852V350.41H78.7539V348.758H74.1484V344.943H83.3594V343.326H74.0957V342.201H84.748V345.98H75.5195V347.65H85.082V348.758H80.1074V350.41H86.5938ZM84.8359 352.748V357.283H83.4473V353.873H73.8848V352.748H84.8359ZM100.814 341.814V353.381H99.4258V347.369H95.7344V350.709H88.6504V342.852H90.0215V345.629H94.3809V342.852H95.7344V346.209H99.4258V341.814H100.814ZM101.166 355.93V357.09H90.707V352.238H92.0957V355.93H101.166ZM90.0215 349.566H94.3809V346.719H90.0215V349.566ZM116.916 344.117V345.26H104.119V344.117H109.85V342.061H111.203V344.117H116.916ZM117.725 354.453V355.596H103.416V354.453H109.85V352.256C107.072 352.106 105.385 351.025 105.402 349.268C105.385 347.404 107.354 346.314 110.535 346.332C113.682 346.314 115.668 347.404 115.668 349.268C115.668 351.025 113.963 352.106 111.203 352.256V354.453H117.725ZM110.535 347.422C108.197 347.422 106.773 348.107 106.791 349.268C106.773 350.463 108.197 351.131 110.535 351.148C112.838 351.131 114.262 350.463 114.262 349.268C114.262 348.107 112.838 347.422 110.535 347.422Z" fill="#0077FA"/>
<mask id="path-10-inside-2_909_3126" fill="white">
<path d="M25 370H375V421H25V370Z"/>
</mask>
<path d="M375 420H25V422H375V420Z" fill="#0077FA" mask="url(#path-10-inside-2_909_3126)"/>
<path d="M31.5625 403.205C28.9785 403.164 26.1484 401.646 26.1484 396.15C26.1484 390.9 28.3018 387.947 31.7881 387.947C34.3926 387.947 36.2178 389.547 36.6074 391.885H34.7822C34.4336 390.572 33.4492 389.588 31.7881 389.588C29.3477 389.588 27.8916 391.68 27.8916 395.248H28.0762C28.9375 394.018 30.291 393.279 31.8906 393.279C34.5361 393.279 36.7305 395.33 36.7305 398.201C36.7305 400.99 34.6797 403.226 31.5625 403.205ZM31.5625 401.585C33.4902 401.585 34.9258 400.067 34.9463 398.222C34.9258 396.396 33.5518 394.899 31.6035 394.899C29.6553 394.899 28.1582 396.479 28.1377 398.242C28.1377 399.985 29.5732 401.585 31.5625 401.585ZM44.4004 403.205C41.4473 403.205 39.335 401.626 39.2324 399.268H41.0986C41.2012 400.683 42.6162 401.564 44.3799 401.564C46.3281 401.564 47.7637 400.498 47.7637 398.96C47.7637 397.34 46.4717 396.191 44.1543 396.191H42.9443V394.571H44.1543C45.959 394.571 47.21 393.566 47.21 392.028C47.21 390.552 46.123 389.547 44.4414 389.547C42.8623 389.547 41.4062 390.429 41.3242 391.885H39.54C39.6426 389.526 41.8164 387.947 44.4619 387.947C47.292 387.947 49.0146 389.793 48.9941 391.926C49.0146 393.607 48.0303 394.858 46.4717 395.289V395.392C48.3994 395.699 49.5889 397.073 49.5684 398.96C49.5889 401.4 47.3535 403.205 44.4004 403.205ZM57.0947 403.205C53.793 403.205 51.9062 400.437 51.9062 395.576C51.9062 390.757 53.834 387.947 57.0947 387.947C60.3555 387.947 62.2832 390.757 62.2832 395.576C62.2832 400.437 60.376 403.205 57.0947 403.205ZM57.0947 401.564C59.2275 401.564 60.4785 399.411 60.4785 395.576C60.4785 391.741 59.2275 389.547 57.0947 389.547C54.9619 389.547 53.6904 391.741 53.6904 395.576C53.6904 399.411 54.9414 401.564 57.0947 401.564ZM64.8057 403L71.6143 389.896V389.793H63.7598V388.152H73.5215V389.875L66.7334 403H64.8057ZM81.1709 388.152V403H79.3047V390.08H79.2227L75.6133 392.479V390.613L79.3047 388.152H81.1709ZM89.9893 403.205C86.6875 403.205 84.8008 400.437 84.8008 395.576C84.8008 390.757 86.7285 387.947 89.9893 387.947C93.25 387.947 95.1777 390.757 95.1777 395.576C95.1777 400.437 93.2705 403.205 89.9893 403.205ZM89.9893 401.564C92.1221 401.564 93.373 399.411 93.373 395.576C93.373 391.741 92.1221 389.547 89.9893 389.547C87.8564 389.547 86.585 391.741 86.585 395.576C86.585 399.411 87.8359 401.564 89.9893 401.564Z" fill="#111827"/>
<path d="M207.793 394.776V396.396H201.292V394.776H207.793ZM225.2 388.152V403H223.334V390.08H223.252L219.642 392.479V390.613L223.334 388.152H225.2ZM239.145 401.998H237.44L237.615 397.814L234.065 400.047L233.221 398.588L236.93 396.637L233.221 394.686L234.065 393.209L237.615 395.441L237.44 391.258H239.145L238.987 395.441L242.537 393.209L243.381 394.686L239.672 396.637L243.381 398.588L242.537 400.047L238.987 397.814L239.145 401.998ZM257.82 401.998H256.115L256.29 397.814L252.74 400.047L251.896 398.588L255.605 396.637L251.896 394.686L252.74 393.209L256.29 395.441L256.115 391.258H257.82L257.662 395.441L261.212 393.209L262.056 394.686L258.347 396.637L262.056 398.588L261.212 400.047L257.662 397.814L257.82 401.998ZM276.495 401.998H274.79L274.965 397.814L271.415 400.047L270.571 398.588L274.28 396.637L270.571 394.686L271.415 393.209L274.965 395.441L274.79 391.258H276.495L276.337 395.441L279.887 393.209L280.731 394.686L277.022 396.637L280.731 398.588L279.887 400.047L276.337 397.814L276.495 401.998ZM295.17 401.998H293.465L293.64 397.814L290.09 400.047L289.246 398.588L292.955 396.637L289.246 394.686L290.09 393.209L293.64 395.441L293.465 391.258H295.17L295.012 395.441L298.562 393.209L299.406 394.686L295.697 396.637L299.406 398.588L298.562 400.047L295.012 397.814L295.17 401.998ZM313.845 401.998H312.14L312.315 397.814L308.765 400.047L307.921 398.588L311.63 396.637L307.921 394.686L308.765 393.209L312.315 395.441L312.14 391.258H313.845L313.687 395.441L317.237 393.209L318.081 394.686L314.372 396.637L318.081 398.588L317.237 400.047L313.687 397.814L313.845 401.998ZM332.52 401.998H330.815L330.99 397.814L327.44 400.047L326.596 398.588L330.305 396.637L326.596 394.686L327.44 393.209L330.99 395.441L330.815 391.258H332.52L332.362 395.441L335.912 393.209L336.756 394.686L333.047 396.637L336.756 398.588L335.912 400.047L332.362 397.814L332.52 401.998Z" fill="#111827"/>
<path d="M39.0449 455.537V456.662H26.3711V455.537H32.0664V453.709H33.4199V455.537H39.0449ZM39.9414 463.781V464.924H36.1621V469.459H34.791V464.924H30.748V469.459H29.3594V464.924H25.6328V463.781H39.9414ZM32.752 457.559C35.9336 457.559 37.8496 458.473 37.8496 460.143C37.8496 461.795 35.9336 462.727 32.752 462.727C29.5527 462.727 27.6367 461.795 27.6543 460.143C27.6367 458.473 29.5527 457.559 32.752 457.559ZM32.752 458.613C30.4141 458.631 29.0605 459.176 29.0781 460.143C29.0605 461.109 30.4141 461.654 32.752 461.654C35.0547 461.654 36.4082 461.109 36.4258 460.143C36.4082 459.176 35.0547 458.631 32.752 458.613ZM54.5488 453.797V469.424H53.2305V461.232H50.9277V468.615H49.6621V454.148H50.9277V460.09H53.2305V453.797H54.5488ZM47.623 455.713V456.855H43.1406V464.379C45.2939 464.37 46.7881 464.291 48.5195 463.939L48.6426 465.1C46.7617 465.486 45.1621 465.557 42.7715 465.557H41.7695V455.713H47.623ZM69.6309 454.518V455.66H67.2227V459.246H69.5781V460.354H64.5508V462.27H70.9844V463.395H56.7461V462.27H63.1797V460.354H58.1348V459.246H60.4902V455.66H58.082V454.518H69.6309ZM69.4023 467.93V469.09H58.5918V464.766H59.9805V467.93H69.4023ZM61.8613 459.246H65.8516V455.66H61.8613V459.246ZM89.7754 453.814V465.381H88.3867V459.369H84.6953V462.709H77.6113V454.852H78.9824V457.629H83.3418V454.852H84.6953V458.209H88.3867V453.814H89.7754ZM90.127 467.93V469.09H79.668V464.238H81.0566V467.93H90.127ZM78.9824 461.566H83.3418V458.719H78.9824V461.566ZM105.877 456.117V457.26H93.0801V456.117H98.8105V454.061H100.164V456.117H105.877ZM106.686 466.453V467.596H92.377V466.453H98.8105V464.256C96.0332 464.106 94.3457 463.025 94.3633 461.268C94.3457 459.404 96.3145 458.314 99.4961 458.332C102.643 458.314 104.629 459.404 104.629 461.268C104.629 463.025 102.924 464.106 100.164 464.256V466.453H106.686ZM99.4961 459.422C97.1582 459.422 95.7344 460.107 95.752 461.268C95.7344 462.463 97.1582 463.131 99.4961 463.148C101.799 463.131 103.223 462.463 103.223 461.268C103.223 460.107 101.799 459.422 99.4961 459.422Z" fill="#0077FA"/>
<mask id="path-15-inside-3_909_3126" fill="white">
<path d="M25 482H375V533H25V482Z"/>
</mask>
<path d="M375 532H25V534H375V532Z" fill="#0077FA" mask="url(#path-15-inside-3_909_3126)"/>
<path d="M31.2549 515.205C27.9531 515.205 26.0664 512.437 26.0664 507.576C26.0664 502.757 27.9941 499.947 31.2549 499.947C34.5156 499.947 36.4434 502.757 36.4434 507.576C36.4434 512.437 34.5361 515.205 31.2549 515.205ZM31.2549 513.564C33.3877 513.564 34.6387 511.411 34.6387 507.576C34.6387 503.741 33.3877 501.547 31.2549 501.547C29.1221 501.547 27.8506 503.741 27.8506 507.576C27.8506 511.411 29.1016 513.564 31.2549 513.564ZM44.1543 500.152V515H42.2881V502.08H42.2061L38.5967 504.479V502.613L42.2881 500.152H44.1543ZM52.9727 515.205C49.6709 515.205 47.7842 512.437 47.7842 507.576C47.7842 502.757 49.7119 499.947 52.9727 499.947C56.2334 499.947 58.1611 502.757 58.1611 507.576C58.1611 512.437 56.2539 515.205 52.9727 515.205ZM52.9727 513.564C55.1055 513.564 56.3564 511.411 56.3564 507.576C56.3564 503.741 55.1055 501.547 52.9727 501.547C50.8398 501.547 49.5684 503.741 49.5684 507.576C49.5684 511.411 50.8193 513.564 52.9727 513.564ZM65.8721 500.152V515H64.0059V502.08H63.9238L60.3145 504.479V502.613L64.0059 500.152H65.8721ZM69.8301 515L69.8096 513.646L74.875 508.314C76.6387 506.448 77.4795 505.443 77.4795 504.069C77.4795 502.552 76.1875 501.547 74.5264 501.547C72.7627 501.547 71.6348 502.675 71.6348 504.336H69.8916C69.8711 501.711 71.9014 499.947 74.5879 499.947C77.2744 499.947 79.2021 501.752 79.2021 504.069C79.2021 505.73 78.4229 507.022 75.7979 509.729L72.3936 513.236V513.359H79.4688V515H69.8301ZM87.2822 515.205C84.3291 515.205 82.2168 513.626 82.1143 511.268H83.9805C84.083 512.683 85.498 513.564 87.2617 513.564C89.21 513.564 90.6455 512.498 90.6455 510.96C90.6455 509.34 89.3535 508.191 87.0361 508.191H85.8262V506.571H87.0361C88.8408 506.571 90.0918 505.566 90.0918 504.028C90.0918 502.552 89.0049 501.547 87.3232 501.547C85.7441 501.547 84.2881 502.429 84.2061 503.885H82.4219C82.5244 501.526 84.6982 499.947 87.3438 499.947C90.1738 499.947 91.8965 501.793 91.876 503.926C91.8965 505.607 90.9121 506.858 89.3535 507.289V507.392C91.2812 507.699 92.4707 509.073 92.4502 510.96C92.4707 513.4 90.2354 515.205 87.2822 515.205ZM94.7471 511.965V510.447L101.433 500.152H103.709V510.345H105.78V511.965H103.709V515H101.945V511.965H94.7471ZM96.7363 510.345H101.945V502.49H101.761L96.7363 510.222V510.345ZM113.061 515.205C110.374 515.205 108.344 513.544 108.241 511.268H110.025C110.169 512.601 111.461 513.585 113.061 513.585C114.988 513.585 116.383 512.17 116.383 510.304C116.383 508.376 114.927 506.961 112.938 506.94C111.687 506.92 110.723 507.31 110.169 508.273H108.385L109.431 500.152H117.47V501.793H110.969L110.415 506.141H110.559C111.215 505.628 112.22 505.279 113.266 505.279C116.096 505.279 118.188 507.371 118.188 510.263C118.188 513.134 116.014 515.205 113.061 515.205ZM125.919 515.205C123.335 515.164 120.505 513.646 120.505 508.15C120.505 502.9 122.658 499.947 126.145 499.947C128.749 499.947 130.574 501.547 130.964 503.885H129.139C128.79 502.572 127.806 501.588 126.145 501.588C123.704 501.588 122.248 503.68 122.248 507.248H122.433C123.294 506.018 124.647 505.279 126.247 505.279C128.893 505.279 131.087 507.33 131.087 510.201C131.087 512.99 129.036 515.226 125.919 515.205ZM125.919 513.585C127.847 513.585 129.282 512.067 129.303 510.222C129.282 508.396 127.908 506.899 125.96 506.899C124.012 506.899 122.515 508.479 122.494 510.242C122.494 511.985 123.93 513.585 125.919 513.585ZM134.102 515L140.91 501.896V501.793H133.056V500.152H142.817V501.875L136.029 515H134.102ZM149.893 515.205C146.775 515.205 144.602 513.482 144.622 511.062C144.602 509.135 145.935 507.556 147.637 507.289V507.207C146.16 506.858 145.196 505.505 145.196 503.885C145.196 501.608 147.186 499.947 149.893 499.947C152.6 499.947 154.589 501.608 154.609 503.885C154.589 505.505 153.604 506.858 152.148 507.207V507.289C153.83 507.556 155.163 509.135 155.184 511.062C155.163 513.482 152.989 515.205 149.893 515.205ZM149.893 513.585C152.025 513.585 153.338 512.519 153.338 510.96C153.338 509.319 151.882 508.109 149.893 508.109C147.903 508.109 146.427 509.319 146.468 510.96C146.427 512.519 147.76 513.585 149.893 513.585ZM149.893 506.551C151.574 506.551 152.805 505.525 152.805 504.028C152.805 502.552 151.636 501.547 149.893 501.547C148.129 501.547 146.98 502.552 146.98 504.028C146.98 505.525 148.19 506.551 149.893 506.551Z" fill="#111827"/>
<path d="M38.5176 565.797V581.459H37.1289V565.797H38.5176ZM30.2031 567.01C32.5234 567.027 34.1934 569.137 34.1934 572.459C34.1934 575.781 32.5234 577.891 30.2031 577.891C27.8652 577.891 26.2129 575.781 26.2129 572.459C26.2129 569.137 27.8652 567.027 30.2031 567.01ZM30.2031 568.24C28.6387 568.258 27.5488 569.91 27.5488 572.459C27.5488 575.008 28.6387 576.66 30.2031 576.66C31.7676 576.66 32.8574 575.008 32.8574 572.459C32.8574 569.91 31.7676 568.258 30.2031 568.24ZM55.4805 573.865V575.008H41.1719V573.865H55.4805ZM53.6348 566.184V569.875H44.4062V571.439H53.9688V572.512H43.0352V568.838H52.2461V567.291H42.9824V566.184H53.6348ZM53.6348 576.432V581.213H43.123V576.432H53.6348ZM44.4766 577.557V580.088H52.2812V577.557H44.4766ZM57.7129 575.148C57.7305 571.826 58.627 569.066 60.2441 566.729H61.5801C60.3848 568.469 59.2773 572.02 59.2773 575.148C59.2773 578.277 60.3848 581.846 61.5801 583.586H60.2441C58.627 581.23 57.7305 578.471 57.7129 575.148ZM75.7656 565.797V573.9H74.4121V565.797H75.7656ZM75.7832 574.691V578.436H67.0117V580.123H76.3457V581.248H65.6582V577.363H74.4121V575.799H65.623V574.691H75.7832ZM68.418 567.449C68.4004 569.664 70.0879 571.615 72.4082 572.371L71.7227 573.443C69.8945 572.819 68.4355 571.51 67.7324 569.822C67.0293 571.642 65.5615 573.074 63.707 573.742L62.9863 572.652C65.3418 571.826 67.0117 569.752 67.0117 567.449V566.254H68.418V567.449ZM91.3926 565.797V575.061H90.0039V572.6H86.3477V573.936H79.1758V566.992H86.3477V568.346H90.0039V565.797H91.3926ZM80.5469 568.117V572.811H84.9941V568.117H80.5469ZM86.207 575.518C89.459 575.518 91.4453 576.59 91.4453 578.471C91.4453 580.334 89.459 581.389 86.207 581.389C82.9551 581.389 80.9688 580.334 80.9688 578.471C80.9688 576.59 82.9551 575.518 86.207 575.518ZM86.207 576.59C83.8164 576.607 82.3223 577.293 82.3398 578.471C82.3223 579.596 83.8164 580.299 86.207 580.299C88.5977 580.299 90.0742 579.596 90.0742 578.471C90.0742 577.293 88.5977 576.607 86.207 576.59ZM86.3477 571.439H90.0039V569.488H86.3477V571.439ZM97.8965 575.148C97.8789 578.471 96.9824 581.23 95.3652 583.586H94.0293C95.2246 581.846 96.332 578.277 96.332 575.148C96.332 572.02 95.2246 568.469 94.0293 566.729H95.3652C96.9824 569.066 97.8789 571.826 97.8965 575.148Z" fill="#0077FA"/>
<mask id="path-19-inside-4_909_3126" fill="white">
<path d="M25 594H375V645H25V594Z"/>
</mask>
<path d="M375 644H25V646H375V644Z" fill="#0077FA" mask="url(#path-19-inside-4_909_3126)"/>
<path d="M35.3564 611.619C35.3564 616.233 31.9727 619.494 26.5996 620.93L25.9434 619.658C30.4551 618.469 33.2954 616.059 33.6543 612.932H26.9072V611.619H35.3564ZM40.791 610.45V620.745H39.1914V610.45H40.791ZM40.791 621.627V628.415H28.9375V621.627H40.791ZM30.5166 622.919V627.103H39.2119V622.919H30.5166ZM46.1025 612.173V616.623H50.0605V612.173H51.5576V624.108H44.5645V612.173H46.1025ZM46.1025 622.775H50.0605V617.936H46.1025V622.775ZM59.5146 610.43V628.661H57.9561V619.002H55.4131V627.738H53.875V610.819H55.4131V617.669H57.9561V610.43H59.5146ZM70.3428 610.778C74.3008 610.778 76.7822 612.05 76.7822 614.224C76.7822 616.356 74.3008 617.607 70.3428 617.607C66.3848 617.607 63.8828 616.356 63.8828 614.224C63.8828 612.05 66.3848 610.778 70.3428 610.778ZM70.3428 612.05C67.3896 612.05 65.5234 612.85 65.5439 614.224C65.5234 615.557 67.3896 616.336 70.3428 616.336C73.2549 616.336 75.1416 615.557 75.1416 614.224C75.1416 612.85 73.2549 612.05 70.3428 612.05ZM76.6182 622.427V628.415H64.0674V622.427H69.543V620.335H62.0371V619.002H78.6484V620.335H71.1221V622.427H76.6182ZM65.667 623.719V627.103H75.0391V623.719H65.667Z" fill="#111827"/>
</svg>
