<svg width="400" height="101" viewBox="0 0 400 101" fill="none" xmlns="http://www.w3.org/2000/svg">
<path d="M0 10C0 4.47715 4.47715 0 10 0H390C395.523 0 400 4.47715 400 10V101H0V10Z" fill="white"/>
<rect x="15" y="15" width="370" height="56" rx="8" fill="#0077FA"/>
<path d="M165.853 35.2617V46.7051H164.184V35.2617H165.853ZM166.328 49.3066V50.6602H155.553V45.5449H157.24V49.3066H166.328ZM157.31 36.3164C159.684 36.3164 161.494 37.9336 161.494 40.2188C161.494 42.5391 159.684 44.1387 157.31 44.1387C154.937 44.1387 153.109 42.5391 153.109 40.2188C153.109 37.9336 154.937 36.3164 157.31 36.3164ZM157.31 37.7754C155.834 37.7754 154.744 38.7773 154.744 40.2188C154.744 41.6953 155.834 42.6797 157.31 42.6797C158.752 42.6797 159.859 41.6953 159.859 40.2188C159.859 38.7773 158.752 37.7754 157.31 37.7754ZM182.351 42.6621V44.0156H167.99V42.6621H182.351ZM175.161 45.2285C178.554 45.2285 180.593 46.2832 180.593 48.1113C180.593 49.9395 178.554 50.9766 175.161 50.959C171.751 50.9766 169.695 49.9395 169.695 48.1113C169.695 46.2832 171.751 45.2285 175.161 45.2285ZM175.161 46.5293C172.753 46.5469 171.382 47.0918 171.382 48.1113C171.382 49.1133 172.753 49.6406 175.161 49.6406C177.534 49.6406 178.923 49.1133 178.923 48.1113C178.923 47.0918 177.534 46.5469 175.161 46.5293ZM181.068 36.0176V37.3887H176.286C176.471 38.918 178.703 40.2188 181.613 40.5176L181.015 41.8359C178.29 41.5195 176.032 40.3682 175.179 38.707C174.3 40.3682 172.05 41.5195 169.325 41.8359L168.745 40.5176C171.602 40.2188 173.852 38.9268 174.054 37.3887H169.308V36.0176H181.068ZM196.317 35.2617V46.8984H194.647V40.957H191.202V44.2793H183.942V36.2988H185.612V38.9707H189.549V36.2988H191.202V39.6035H194.647V35.2617H196.317ZM196.669 49.3066V50.6602H186.034V45.7559H187.721V49.3066H196.669ZM185.612 42.9258H189.549V40.2539H185.612V42.9258ZM212.023 37.459V38.8125H199.068V37.459H204.729V35.4727H206.381V37.459H212.023ZM212.797 47.8652V49.2188H198.383V47.8652H204.729V45.7734C201.969 45.6064 200.299 44.5166 200.299 42.7676C200.299 40.8691 202.303 39.7617 205.555 39.7617C208.771 39.7617 210.793 40.8691 210.793 42.7676C210.793 44.5166 209.114 45.6064 206.381 45.7734V47.8652H212.797ZM205.555 41.0801C203.305 41.0801 201.986 41.6777 202.004 42.7676C201.986 43.8574 203.305 44.4551 205.555 44.4727C207.77 44.4551 209.088 43.8574 209.088 42.7676C209.088 41.6777 207.77 41.0801 205.555 41.0801ZM232.028 47.6367V49.0254H217.614V47.6367H221.059V43.5234C219.767 42.8115 218.985 41.6777 218.985 40.2715C218.985 37.793 221.411 36.1582 224.786 36.1582C228.178 36.1582 230.604 37.793 230.604 40.2715C230.604 41.6602 229.848 42.7764 228.583 43.4883V47.6367H232.028ZM224.786 37.4941C222.307 37.4941 220.602 38.5664 220.602 40.2715C220.602 41.959 222.307 43.0664 224.786 43.0664C227.247 43.0664 228.987 41.959 228.987 40.2715C228.987 38.5664 227.247 37.4941 224.786 37.4941ZM222.712 47.6367H226.895V44.1211C226.254 44.2881 225.542 44.3672 224.786 44.3672C224.048 44.3672 223.344 44.2881 222.712 44.1387V47.6367ZM238.33 38.6016C238.33 40.4473 239.859 42.1875 242.25 42.8555L241.459 44.1562C239.64 43.6377 238.26 42.5127 237.539 41.0625C236.854 42.6885 235.482 43.9717 233.602 44.5605L232.811 43.2773C235.201 42.5039 236.678 40.623 236.678 38.6016V38.4082H233.25V37.0723H236.678V35.1738H238.348V37.0723H241.758V38.4082H238.33V38.6016ZM245.941 35.2441V44.7891H244.272V41.0273H241.266V39.6562H244.272V35.2441H245.941ZM240.668 45.1406C243.955 45.1406 245.994 46.1953 245.994 48.041C245.994 49.9043 243.955 50.9766 240.668 50.959C237.363 50.9766 235.324 49.9043 235.342 48.041C235.324 46.1953 237.363 45.1406 240.668 45.1406ZM240.668 46.4414C238.365 46.4414 236.994 47.0215 236.994 48.041C236.994 49.0605 238.365 49.6758 240.668 49.6758C242.988 49.6758 244.342 49.0605 244.342 48.041C244.342 47.0215 242.988 46.4414 240.668 46.4414Z" fill="white"/>
</svg>
