<svg width="400" height="727" viewBox="0 0 400 727" fill="none" xmlns="http://www.w3.org/2000/svg">
<rect width="400" height="727" fill="#EBF5FF"/>
<rect width="400" height="58" fill="#EBF5FF"/>
<path d="M374.001 30.4008L369.101 35.3008C368.917 35.4841 368.684 35.5758 368.401 35.5758C368.117 35.5758 367.884 35.4841 367.701 35.3008C367.517 35.1174 367.426 34.8841 367.426 34.6008C367.426 34.3174 367.517 34.0841 367.701 33.9008L372.601 29.0008L367.701 24.1008C367.517 23.9174 367.426 23.6841 367.426 23.4008C367.426 23.1174 367.517 22.8841 367.701 22.7008C367.884 22.5174 368.117 22.4258 368.401 22.4258C368.684 22.4258 368.917 22.5174 369.101 22.7008L374.001 27.6008L378.901 22.7008C379.084 22.5174 379.317 22.4258 379.601 22.4258C379.884 22.4258 380.117 22.5174 380.301 22.7008C380.484 22.8841 380.576 23.1174 380.576 23.4008C380.576 23.6841 380.484 23.9174 380.301 24.1008L375.401 29.0008L380.301 33.9008C380.484 34.0841 380.576 34.3174 380.576 34.6008C380.576 34.8841 380.484 35.1174 380.301 35.3008C380.117 35.4841 379.884 35.5758 379.601 35.5758C379.317 35.5758 379.084 35.4841 378.901 35.3008L374.001 30.4008Z" fill="black"/>
<path d="M79.2976 123.43V141.702H77.6775V123.43H79.2976ZM66.9314 124.988V129.808H72.3659V124.988H73.945V137.293H65.3318V124.988H66.9314ZM66.9314 135.939H72.3659V131.1H66.9314V135.939ZM91.5104 124.455V131.879H82.9586V124.455H91.5104ZM84.5377 125.768V130.607H89.9313V125.768H84.5377ZM97.027 123.43V132.843H95.4479V123.43H97.027ZM97.027 133.745V138.093H86.8141V140.144H97.6832V141.456H85.2145V136.903H95.4479V135.037H85.194V133.745H97.027ZM114.838 123.45V136.944H113.218V129.931H108.912V133.827H100.647V124.66H102.247V127.9H107.333V124.66H108.912V128.577H113.218V123.45H114.838ZM115.249 139.918V141.271H103.046V135.611H104.667V139.918H115.249ZM102.247 132.494H107.333V129.172H102.247V132.494ZM133.204 126.137V127.47H118.274V126.137H124.959V123.737H126.539V126.137H133.204ZM134.147 138.195V139.528H117.454V138.195H124.959V135.632C121.719 135.458 119.75 134.196 119.771 132.146C119.75 129.972 122.047 128.7 125.759 128.721C129.43 128.7 131.748 129.972 131.748 132.146C131.748 134.196 129.758 135.458 126.539 135.632V138.195H134.147ZM125.759 129.992C123.032 129.992 121.371 130.792 121.391 132.146C121.371 133.54 123.032 134.319 125.759 134.34C128.446 134.319 130.107 133.54 130.107 132.146C130.107 130.792 128.446 129.992 125.759 129.992ZM151.856 131.899V133.171H135.162V131.899H151.856ZM149.764 134.627V138.503H138.813V140.246H150.359V141.415H137.193V137.396H148.164V135.837H137.172V134.627H149.764ZM149.703 123.983V127.757H138.936V129.356H150.031V130.525H137.336V126.649H148.082V125.152H137.275V123.983H149.703ZM172.016 123.45V129.459H174.764V130.812H172.016V137.108H170.416V123.45H172.016ZM168.673 125.686V126.998H157.804V125.686H162.439V123.45H164.038V125.686H168.673ZM163.239 128.003C165.843 128.003 167.607 129.336 167.627 131.407C167.607 133.458 165.843 134.771 163.239 134.771C160.614 134.771 158.829 133.458 158.85 131.407C158.829 129.336 160.614 128.003 163.239 128.003ZM163.239 129.274C161.516 129.274 160.367 130.115 160.388 131.407C160.367 132.699 161.516 133.52 163.239 133.499C164.941 133.52 166.089 132.699 166.11 131.407C166.089 130.115 164.941 129.274 163.239 129.274ZM172.857 139.918V141.271H160.614V136.021H162.193V139.918H172.857ZM190.607 123.45V136.944H188.986V129.931H184.68V133.827H176.415V124.66H178.015V127.9H183.101V124.66H184.68V128.577H188.986V123.45H190.607ZM191.017 139.918V141.271H178.815V135.611H180.435V139.918H191.017ZM178.015 132.494H183.101V129.172H178.015V132.494ZM207.362 125.173V126.526H200.615V135.816C203.896 135.816 206.07 135.704 208.593 135.222L208.798 136.555C206.111 137.067 203.896 137.19 200.39 137.19H198.995V125.173H207.362ZM213.207 123.43V141.702H211.587V131.407H206.275V130.074H211.587V123.43H213.207ZM235.705 123.43V133.212H234.105V123.43H235.705ZM225.492 134.135V136.35H234.105V134.135H235.705V141.415H223.892V134.135H225.492ZM225.492 140.103H234.105V137.642H225.492V140.103ZM225.861 124.332C228.63 124.312 230.639 126.014 230.639 128.516C230.639 130.997 228.63 132.699 225.861 132.699C223.093 132.699 221.083 130.997 221.083 128.516C221.083 126.014 223.093 124.312 225.861 124.332ZM225.861 125.686C223.995 125.665 222.641 126.854 222.662 128.516C222.641 130.177 223.995 131.366 225.861 131.366C227.707 131.366 229.06 130.177 229.06 128.516C229.06 126.854 227.707 125.665 225.861 125.686ZM247.036 124.558V129.664H240.761V132.494C244.185 132.494 245.949 132.443 248.102 132.043L248.266 133.376C245.99 133.745 244.144 133.807 240.453 133.807H239.161V128.434H245.436V125.85H239.12V124.558H247.036ZM253.496 123.45V134.647H251.876V131.264H248.246V129.931H251.876V127.47H248.246V126.157H251.876V123.45H253.496ZM253.496 135.632V141.702H251.876V136.944H241.212V135.632H253.496ZM265.216 126.588V127.9H256.07V126.588H259.864V123.983H261.464V126.588H265.216ZM260.643 129.131C262.94 129.131 264.581 130.854 264.601 133.273C264.581 135.714 262.94 137.457 260.643 137.457C258.367 137.457 256.726 135.714 256.726 133.273C256.726 130.854 258.367 129.131 260.643 129.131ZM260.643 130.484C259.208 130.505 258.162 131.674 258.162 133.273C258.162 134.894 259.208 136.062 260.643 136.042C262.099 136.062 263.166 134.894 263.166 133.273C263.166 131.674 262.099 130.505 260.643 130.484ZM271.635 123.43V141.661H270.097V132.453H267.677V140.759H266.16V123.881H267.677V131.12H270.097V123.43H271.635ZM287.899 126.014C287.878 128.454 291.139 130.525 294.318 130.997L293.723 132.269C290.873 131.787 288.104 130.269 286.997 128.064C285.889 130.269 283.11 131.787 280.311 132.269L279.675 130.997C282.833 130.525 286.094 128.454 286.094 126.014V125.891H280.25V124.578H293.723V125.891H287.899V126.014ZM295.302 133.827V135.16H287.755V141.661H286.176V135.16H278.691V133.827H295.302ZM301.834 128.618C301.834 131.51 303.249 134.647 305.669 136.083L304.747 137.334C302.993 136.268 301.732 134.319 301.096 132.104C300.419 134.524 299.066 136.606 297.241 137.724L296.215 136.514C298.738 135.037 300.276 131.797 300.276 128.68V125.152H301.834V128.618ZM312.047 123.43V141.661H310.489V123.43H312.047ZM308.274 123.819V140.738H306.756V131.346H303.66V129.972H306.756V123.819H308.274ZM330.843 137.97V139.323H314.15V137.97H318.292V133.048C316.734 132.238 315.79 130.925 315.79 129.274C315.79 126.444 318.559 124.599 322.455 124.578C326.352 124.599 329.12 126.444 329.12 129.274C329.12 130.895 328.208 132.197 326.701 133.007V137.97H330.843ZM322.455 125.911C319.461 125.891 317.349 127.244 317.349 129.274C317.349 131.305 319.461 132.679 322.455 132.679C325.429 132.679 327.562 131.305 327.562 129.274C327.562 127.244 325.429 125.891 322.455 125.911ZM319.871 137.97H325.08V133.622C324.291 133.837 323.409 133.95 322.455 133.95C321.522 133.95 320.651 133.848 319.871 133.643V137.97ZM333.807 140.123C333.089 140.123 332.474 139.528 332.494 138.79C332.474 138.072 333.089 137.478 333.807 137.478C334.525 137.478 335.119 138.072 335.119 138.79C335.119 139.528 334.525 140.123 333.807 140.123Z" fill="#222222"/>
<circle cx="115" cy="237" r="10" fill="#0077FA"/>
<circle cx="149" cy="237" r="10" fill="#0077FA"/>
<circle cx="183" cy="237" r="10" fill="#0077FA"/>
<circle cx="217" cy="237" r="10" fill="#0077FA"/>
<circle cx="251" cy="237" r="10" fill="#0077FA"/>
<circle cx="285" cy="237" r="10" fill="#CEDFE0"/>
</svg>
