<svg width="400" height="364" viewBox="0 0 400 364" fill="none" xmlns="http://www.w3.org/2000/svg">
<path d="M0 10C0 4.47715 4.47715 0 10 0H390C395.523 0 400 4.47715 400 10V86H0V10Z" fill="white"/>
<rect x="15" y="15" width="370" height="56" rx="8" fill="#9CA3AF"/>
<path d="M197.473 35.2441V41.3438H200.004V42.7148H197.473V51.0293H195.803V35.2441H197.473ZM193.237 36.7559V38.1094H187.541V45.7207C190.187 45.7119 192.173 45.5977 194.414 45.1934L194.625 46.5996C192.164 47.0391 190.073 47.127 187.137 47.1094H185.871V36.7559H193.237ZM207.572 35.5781C211.035 35.5781 213.197 36.7031 213.197 38.6016C213.197 40.4648 211.035 41.5723 207.572 41.5723C204.127 41.5723 201.947 40.4648 201.947 38.6016C201.947 36.7031 204.127 35.5781 207.572 35.5781ZM207.572 36.8965C205.146 36.8965 203.652 37.5117 203.67 38.6016C203.652 39.6562 205.146 40.2539 207.572 40.2715C209.98 40.2539 211.474 39.6562 211.474 38.6016C211.474 37.5117 209.98 36.8965 207.572 36.8965ZM213.004 45.5449V50.8008H202.123V45.5449H213.004ZM203.775 46.8809V49.4473H211.386V46.8809H203.775ZM214.761 42.7852V44.1387H200.4V42.7852H214.761Z" fill="white"/>
<rect width="400" height="248" transform="translate(0 86)" fill="#E8EAED"/>
<g filter="url(#filter0_d_907_2021)">
<rect x="4" y="90" width="35.6" height="40" rx="6" fill="white"/>
<path d="M23.5183 102.559V119H21.4406V105.153L17.2517 106.68V104.805L23.1926 102.559H23.5183Z" fill="black"/>
</g>
<g filter="url(#filter1_d_907_2021)">
<rect x="43.5996" y="90" width="35.6" height="40" rx="6" fill="white"/>
<path d="M67.0036 117.293V119H56.301V117.506L61.6579 111.543C62.3168 110.809 62.8259 110.188 63.1853 109.679C63.5521 109.162 63.8067 108.702 63.9489 108.297C64.0987 107.886 64.1735 107.466 64.1735 107.04C64.1735 106.5 64.0612 106.014 63.8366 105.58C63.6195 105.138 63.2976 104.786 62.8708 104.524C62.444 104.262 61.9274 104.131 61.321 104.131C60.5948 104.131 59.9883 104.273 59.5017 104.558C59.0225 104.835 58.6631 105.224 58.4235 105.726C58.184 106.227 58.0642 106.804 58.0642 107.455H55.9865C55.9865 106.534 56.1887 105.692 56.593 104.928C56.9973 104.165 57.5962 103.558 58.3898 103.109C59.1835 102.652 60.1605 102.424 61.321 102.424C62.3542 102.424 63.2377 102.607 63.9714 102.974C64.7051 103.333 65.2666 103.843 65.656 104.501C66.0528 105.153 66.2512 105.917 66.2512 106.792C66.2512 107.272 66.1688 107.758 66.0041 108.252C65.8469 108.739 65.626 109.226 65.3415 109.712C65.0645 110.199 64.7388 110.678 64.3645 111.15C63.9976 111.622 63.6045 112.086 63.1853 112.542L58.8054 117.293H67.0036Z" fill="black"/>
</g>
<g filter="url(#filter2_d_907_2021)">
<rect x="83.1992" y="90" width="35.6" height="40" rx="6" fill="white"/>
<path d="M98.9216 109.802H100.404C101.13 109.802 101.729 109.682 102.201 109.443C102.68 109.196 103.036 108.863 103.268 108.443C103.507 108.017 103.627 107.537 103.627 107.006C103.627 106.377 103.522 105.849 103.313 105.422C103.103 104.996 102.789 104.674 102.369 104.457C101.95 104.239 101.418 104.131 100.775 104.131C100.191 104.131 99.674 104.247 99.2248 104.479C98.7831 104.704 98.4349 105.026 98.1804 105.445C97.9333 105.864 97.8098 106.358 97.8098 106.927H95.7321C95.7321 106.096 95.9418 105.34 96.361 104.659C96.7803 103.977 97.368 103.435 98.1242 103.03C98.8879 102.626 99.7714 102.424 100.775 102.424C101.763 102.424 102.628 102.6 103.369 102.952C104.11 103.296 104.687 103.813 105.098 104.501C105.51 105.183 105.716 106.033 105.716 107.051C105.716 107.463 105.619 107.904 105.424 108.376C105.237 108.84 104.941 109.274 104.537 109.679C104.14 110.083 103.623 110.416 102.987 110.678C102.351 110.933 101.587 111.06 100.696 111.06H98.9216V109.802ZM98.9216 111.509V110.263H100.696C101.737 110.263 102.598 110.386 103.279 110.633C103.96 110.88 104.496 111.21 104.885 111.622C105.282 112.033 105.559 112.486 105.716 112.98C105.881 113.467 105.963 113.954 105.963 114.44C105.963 115.204 105.832 115.882 105.57 116.473C105.315 117.065 104.952 117.566 104.481 117.978C104.016 118.39 103.47 118.701 102.841 118.91C102.212 119.12 101.527 119.225 100.786 119.225C100.075 119.225 99.4045 119.124 98.7756 118.921C98.1542 118.719 97.6039 118.427 97.1247 118.045C96.6455 117.656 96.2712 117.181 96.0017 116.619C95.7321 116.05 95.5974 115.403 95.5974 114.676H97.675C97.675 115.245 97.7985 115.743 98.0456 116.17C98.3002 116.597 98.6595 116.93 99.1237 117.169C99.5954 117.402 100.149 117.518 100.786 117.518C101.422 117.518 101.969 117.409 102.425 117.192C102.89 116.967 103.245 116.63 103.492 116.181C103.747 115.732 103.874 115.167 103.874 114.485C103.874 113.804 103.732 113.246 103.447 112.812C103.163 112.37 102.759 112.045 102.235 111.835C101.718 111.618 101.108 111.509 100.404 111.509H98.9216Z" fill="black"/>
</g>
<g filter="url(#filter3_d_907_2021)">
<rect x="122.801" y="90" width="35.6" height="40" rx="6" fill="white"/>
<path d="M146.542 113.497V115.204H134.727V113.98L142.05 102.648H143.745L141.926 105.928L137.086 113.497H146.542ZM144.262 102.648V119H142.184V102.648H144.262Z" fill="black"/>
</g>
<g filter="url(#filter4_d_907_2021)">
<rect x="162.4" y="90" width="35.6" height="40" rx="6" fill="white"/>
<path d="M177.718 111.217L176.056 110.791L176.876 102.648H185.265V104.569H178.639L178.145 109.016C178.445 108.844 178.823 108.683 179.279 108.533C179.744 108.383 180.275 108.309 180.874 108.309C181.63 108.309 182.308 108.44 182.907 108.702C183.506 108.956 184.015 109.323 184.434 109.802C184.861 110.281 185.187 110.858 185.411 111.532C185.636 112.206 185.748 112.958 185.748 113.789C185.748 114.575 185.64 115.298 185.423 115.957C185.213 116.615 184.895 117.192 184.468 117.686C184.041 118.173 183.502 118.551 182.851 118.82C182.207 119.09 181.447 119.225 180.571 119.225C179.912 119.225 179.287 119.135 178.696 118.955C178.112 118.768 177.587 118.487 177.123 118.113C176.667 117.731 176.292 117.259 176 116.698C175.716 116.129 175.536 115.462 175.461 114.699H177.438C177.528 115.313 177.707 115.829 177.977 116.249C178.246 116.668 178.598 116.986 179.032 117.203C179.474 117.413 179.987 117.518 180.571 117.518C181.065 117.518 181.503 117.431 181.885 117.259C182.267 117.087 182.589 116.84 182.851 116.518C183.113 116.196 183.311 115.807 183.446 115.35C183.588 114.893 183.659 114.381 183.659 113.812C183.659 113.295 183.588 112.816 183.446 112.374C183.304 111.932 183.09 111.547 182.806 111.217C182.529 110.888 182.188 110.633 181.784 110.454C181.38 110.266 180.915 110.173 180.391 110.173C179.695 110.173 179.167 110.266 178.808 110.454C178.456 110.641 178.093 110.895 177.718 111.217Z" fill="black"/>
</g>
<g filter="url(#filter5_d_907_2021)">
<rect x="202" y="90" width="35.6" height="40" rx="6" fill="white"/>
<path d="M222.664 102.626H222.843V104.389H222.664C221.563 104.389 220.642 104.569 219.901 104.928C219.16 105.28 218.572 105.756 218.138 106.354C217.704 106.946 217.389 107.612 217.195 108.354C217.007 109.095 216.914 109.847 216.914 110.611V113.014C216.914 113.74 217 114.384 217.172 114.946C217.344 115.5 217.58 115.968 217.88 116.35C218.179 116.731 218.516 117.02 218.89 117.214C219.272 117.409 219.669 117.506 220.081 117.506C220.56 117.506 220.987 117.417 221.361 117.237C221.735 117.05 222.05 116.791 222.304 116.462C222.566 116.125 222.765 115.728 222.9 115.271C223.034 114.815 223.102 114.313 223.102 113.767C223.102 113.28 223.042 112.812 222.922 112.363C222.802 111.906 222.619 111.502 222.372 111.15C222.125 110.791 221.814 110.51 221.44 110.308C221.073 110.098 220.635 109.993 220.126 109.993C219.549 109.993 219.01 110.135 218.508 110.42C218.014 110.697 217.606 111.064 217.284 111.521C216.97 111.97 216.79 112.46 216.745 112.992L215.645 112.98C215.75 112.142 215.944 111.427 216.229 110.835C216.521 110.236 216.88 109.75 217.307 109.375C217.741 108.994 218.224 108.717 218.756 108.544C219.295 108.365 219.864 108.275 220.463 108.275C221.279 108.275 221.982 108.428 222.574 108.735C223.165 109.042 223.652 109.454 224.034 109.971C224.416 110.48 224.696 111.056 224.876 111.7C225.063 112.337 225.157 112.992 225.157 113.666C225.157 114.437 225.048 115.159 224.831 115.833C224.614 116.507 224.288 117.098 223.854 117.607C223.427 118.117 222.9 118.513 222.271 118.798C221.642 119.082 220.912 119.225 220.081 119.225C219.197 119.225 218.426 119.045 217.767 118.686C217.108 118.319 216.562 117.832 216.128 117.226C215.693 116.619 215.368 115.945 215.151 115.204C214.933 114.463 214.825 113.71 214.825 112.947V111.97C214.825 110.817 214.941 109.686 215.173 108.578C215.405 107.47 215.806 106.467 216.375 105.568C216.951 104.67 217.749 103.955 218.767 103.423C219.785 102.892 221.084 102.626 222.664 102.626Z" fill="black"/>
</g>
<g filter="url(#filter6_d_907_2021)">
<rect x="241.6" y="90" width="35.6" height="40" rx="6" fill="white"/>
<path d="M264.858 102.648V103.816L258.086 119H255.896L262.656 104.355H253.807V102.648H264.858Z" fill="black"/>
</g>
<g filter="url(#filter7_d_907_2021)">
<rect x="281.199" y="90" width="35.6" height="40" rx="6" fill="white"/>
<path d="M304.199 114.575C304.199 115.571 303.967 116.417 303.503 117.113C303.046 117.802 302.425 118.326 301.638 118.686C300.86 119.045 299.98 119.225 298.999 119.225C298.018 119.225 297.135 119.045 296.349 118.686C295.563 118.326 294.941 117.802 294.485 117.113C294.028 116.417 293.8 115.571 293.8 114.575C293.8 113.924 293.923 113.329 294.17 112.79C294.425 112.243 294.78 111.768 295.237 111.363C295.701 110.959 296.248 110.648 296.877 110.431C297.513 110.207 298.213 110.094 298.977 110.094C299.98 110.094 300.875 110.289 301.661 110.678C302.447 111.06 303.065 111.588 303.514 112.262C303.971 112.936 304.199 113.707 304.199 114.575ZM302.11 114.53C302.11 113.924 301.979 113.389 301.717 112.924C301.455 112.453 301.088 112.086 300.616 111.824C300.145 111.562 299.598 111.431 298.977 111.431C298.34 111.431 297.79 111.562 297.326 111.824C296.869 112.086 296.514 112.453 296.259 112.924C296.004 113.389 295.877 113.924 295.877 114.53C295.877 115.159 296.001 115.698 296.248 116.147C296.502 116.589 296.862 116.93 297.326 117.169C297.798 117.402 298.355 117.518 298.999 117.518C299.643 117.518 300.197 117.402 300.661 117.169C301.126 116.93 301.481 116.589 301.728 116.147C301.983 115.698 302.11 115.159 302.11 114.53ZM303.817 106.905C303.817 107.698 303.607 108.413 303.188 109.05C302.769 109.686 302.196 110.188 301.47 110.555C300.744 110.922 299.92 111.105 298.999 111.105C298.063 111.105 297.229 110.922 296.495 110.555C295.769 110.188 295.2 109.686 294.788 109.05C294.376 108.413 294.17 107.698 294.17 106.905C294.17 105.954 294.376 105.145 294.788 104.479C295.207 103.813 295.78 103.304 296.506 102.952C297.232 102.6 298.06 102.424 298.988 102.424C299.924 102.424 300.755 102.6 301.481 102.952C302.207 103.304 302.776 103.813 303.188 104.479C303.607 105.145 303.817 105.954 303.817 106.905ZM301.739 106.938C301.739 106.392 301.623 105.909 301.391 105.49C301.159 105.07 300.837 104.741 300.425 104.501C300.014 104.254 299.535 104.131 298.988 104.131C298.441 104.131 297.962 104.247 297.55 104.479C297.146 104.704 296.828 105.026 296.596 105.445C296.371 105.864 296.259 106.362 296.259 106.938C296.259 107.5 296.371 107.99 296.596 108.41C296.828 108.829 297.15 109.155 297.562 109.387C297.974 109.619 298.453 109.735 298.999 109.735C299.546 109.735 300.021 109.619 300.425 109.387C300.837 109.155 301.159 108.829 301.391 108.41C301.623 107.99 301.739 107.5 301.739 106.938Z" fill="black"/>
</g>
<g filter="url(#filter8_d_907_2021)">
<rect x="320.801" y="90" width="35.6" height="40" rx="6" fill="white"/>
<path d="M335.557 117.259H335.771C336.969 117.259 337.942 117.091 338.691 116.754C339.439 116.417 340.016 115.964 340.42 115.395C340.824 114.826 341.101 114.186 341.251 113.475C341.401 112.756 341.476 112.018 341.476 111.262V108.758C341.476 108.017 341.39 107.358 341.217 106.781C341.053 106.205 340.821 105.722 340.521 105.333C340.229 104.943 339.896 104.647 339.522 104.445C339.147 104.243 338.751 104.142 338.331 104.142C337.852 104.142 337.422 104.239 337.04 104.434C336.665 104.621 336.347 104.887 336.085 105.231C335.831 105.576 335.636 105.98 335.501 106.444C335.366 106.909 335.299 107.414 335.299 107.96C335.299 108.447 335.359 108.919 335.479 109.375C335.599 109.832 335.782 110.244 336.029 110.611C336.276 110.978 336.583 111.27 336.95 111.487C337.324 111.696 337.762 111.801 338.264 111.801C338.728 111.801 339.162 111.711 339.567 111.532C339.978 111.345 340.342 111.094 340.656 110.779C340.978 110.457 341.232 110.094 341.42 109.69C341.614 109.286 341.727 108.863 341.757 108.421H342.745C342.745 109.042 342.621 109.656 342.374 110.263C342.135 110.862 341.798 111.408 341.363 111.902C340.929 112.396 340.42 112.793 339.836 113.093C339.252 113.385 338.616 113.531 337.927 113.531C337.118 113.531 336.418 113.374 335.827 113.059C335.235 112.745 334.749 112.325 334.367 111.801C333.993 111.277 333.712 110.693 333.525 110.049C333.345 109.398 333.255 108.739 333.255 108.073C333.255 107.294 333.364 106.564 333.581 105.883C333.798 105.201 334.12 104.603 334.547 104.086C334.973 103.562 335.501 103.154 336.13 102.862C336.766 102.57 337.5 102.424 338.331 102.424C339.267 102.424 340.064 102.611 340.723 102.985C341.382 103.36 341.918 103.861 342.329 104.49C342.749 105.119 343.056 105.827 343.25 106.613C343.445 107.399 343.542 108.208 343.542 109.039V109.791C343.542 110.637 343.486 111.498 343.374 112.374C343.269 113.243 343.063 114.074 342.756 114.867C342.457 115.661 342.019 116.372 341.442 117.001C340.866 117.622 340.113 118.117 339.185 118.483C338.264 118.843 337.126 119.022 335.771 119.022H335.557V117.259Z" fill="black"/>
</g>
<g filter="url(#filter9_d_907_2021)">
<rect x="360.4" y="90" width="35.6" height="40" rx="6" fill="white"/>
<path d="M373.45 102.559V119H371.372V105.153L367.183 106.68V104.805L373.124 102.559H373.45ZM389.824 109.521V112.015C389.824 113.355 389.704 114.485 389.465 115.406C389.225 116.327 388.881 117.068 388.431 117.63C387.982 118.191 387.439 118.599 386.803 118.854C386.174 119.101 385.463 119.225 384.669 119.225C384.04 119.225 383.46 119.146 382.928 118.989C382.397 118.832 381.918 118.581 381.491 118.236C381.072 117.884 380.712 117.428 380.413 116.866C380.113 116.305 379.885 115.623 379.728 114.822C379.571 114.021 379.492 113.085 379.492 112.015V109.521C379.492 108.181 379.612 107.058 379.851 106.152C380.098 105.246 380.446 104.52 380.896 103.974C381.345 103.42 381.884 103.023 382.513 102.783C383.149 102.544 383.861 102.424 384.647 102.424C385.283 102.424 385.867 102.502 386.399 102.66C386.938 102.809 387.417 103.053 387.836 103.39C388.255 103.719 388.611 104.161 388.903 104.715C389.203 105.261 389.431 105.931 389.588 106.725C389.745 107.519 389.824 108.451 389.824 109.521ZM387.735 112.352V109.173C387.735 108.44 387.69 107.796 387.6 107.242C387.518 106.68 387.394 106.201 387.23 105.804C387.065 105.407 386.855 105.085 386.601 104.838C386.354 104.591 386.065 104.412 385.736 104.299C385.414 104.18 385.051 104.12 384.647 104.12C384.153 104.12 383.715 104.213 383.333 104.4C382.951 104.58 382.629 104.868 382.367 105.265C382.112 105.662 381.918 106.182 381.783 106.826C381.648 107.47 381.581 108.252 381.581 109.173V112.352C381.581 113.085 381.622 113.733 381.704 114.294C381.794 114.856 381.925 115.343 382.097 115.754C382.27 116.159 382.479 116.492 382.726 116.754C382.973 117.016 383.258 117.211 383.58 117.338C383.909 117.458 384.272 117.518 384.669 117.518C385.178 117.518 385.624 117.42 386.006 117.226C386.387 117.031 386.706 116.728 386.96 116.316C387.222 115.897 387.417 115.361 387.544 114.71C387.671 114.051 387.735 113.265 387.735 112.352Z" fill="black"/>
</g>
<g filter="url(#filter10_d_907_2021)">
<rect x="4" y="140" width="35.6" height="40" rx="6" fill="white"/>
<path d="M15.4529 154.671H17.3159V158.489H26.4239V154.671H28.3329V165.895H15.4529V154.671ZM17.3159 160.168V164.216H26.4239V160.168H17.3159Z" fill="black"/>
</g>
<g filter="url(#filter11_d_907_2021)">
<rect x="43.5996" y="140" width="35.6" height="40" rx="6" fill="white"/>
<path d="M60.6185 155.108H62.1825V157.638C62.1825 158.727 62.0138 159.723 61.6765 160.628C61.3545 161.517 60.8945 162.315 60.2965 163.02C59.6985 163.725 58.9932 164.331 58.1805 164.837C57.3678 165.328 56.4708 165.719 55.4895 166.01L54.5695 164.515C55.4588 164.285 56.2715 163.963 57.0075 163.549C57.7435 163.12 58.3798 162.614 58.9165 162.031C59.4685 161.433 59.8902 160.766 60.1815 160.03C60.4728 159.294 60.6185 158.497 60.6185 157.638V155.108ZM60.9635 155.108H62.5275V157.638C62.5275 158.497 62.6732 159.294 62.9645 160.03C63.2712 160.766 63.6928 161.433 64.2295 162.031C64.7662 162.614 65.4025 163.12 66.1385 163.549C66.8745 163.963 67.6872 164.285 68.5765 164.515L67.6565 166.01C66.6752 165.719 65.7782 165.328 64.9655 164.837C64.1528 164.331 63.4475 163.725 62.8495 163.02C62.2515 162.315 61.7838 161.517 61.4465 160.628C61.1245 159.723 60.9635 158.727 60.9635 157.638V155.108ZM55.1675 154.694H68.0245V156.258H55.1675V154.694Z" fill="black"/>
</g>
<g filter="url(#filter12_d_907_2021)">
<rect x="83.1992" y="140" width="35.6" height="40" rx="6" fill="white"/>
<path d="M94.6981 154.901H107.394V156.465H96.6071V164.837H94.6981V154.901ZM94.6981 164.285H107.601V165.826H94.6981V164.285Z" fill="black"/>
</g>
<g filter="url(#filter13_d_907_2021)">
<rect x="122.801" y="140" width="35.6" height="40" rx="6" fill="white"/>
<path d="M134.139 155.016H147.065V165.872H145.179V156.58H134.139V155.016Z" fill="black"/>
</g>
<g filter="url(#filter14_d_907_2021)">
<rect x="162.4" y="140" width="35.6" height="40" rx="6" fill="white"/>
<path d="M179.373 154.51H181.006V157.868C181.006 158.957 180.83 159.953 180.477 160.858C180.125 161.763 179.619 162.56 178.959 163.25C178.315 163.925 177.556 164.507 176.682 164.998C175.824 165.489 174.888 165.864 173.876 166.125L172.956 164.584C173.876 164.369 174.72 164.063 175.486 163.664C176.268 163.25 176.951 162.759 177.533 162.192C178.116 161.625 178.568 160.981 178.89 160.26C179.212 159.524 179.373 158.727 179.373 157.868V154.51ZM179.626 154.51H181.259V157.868C181.259 158.727 181.42 159.524 181.742 160.26C182.064 160.981 182.517 161.625 183.099 162.192C183.682 162.759 184.357 163.25 185.123 163.664C185.905 164.063 186.756 164.369 187.676 164.584L186.756 166.125C185.744 165.864 184.801 165.489 183.927 164.998C183.069 164.507 182.317 163.925 181.673 163.25C181.029 162.56 180.523 161.763 180.155 160.858C179.803 159.953 179.626 158.957 179.626 157.868V154.51Z" fill="black"/>
</g>
<g filter="url(#filter15_d_907_2021)">
<rect x="202" y="140" width="35.6" height="40" rx="6" fill="white"/>
<path d="M210.578 163.48H229.277V165.067H210.578V163.48ZM215.385 154.349H217.271V164.124H215.385V154.349ZM222.607 154.349H224.493V164.078H222.607V154.349Z" fill="black"/>
</g>
<g filter="url(#filter16_d_907_2021)">
<rect x="241.6" y="140" width="35.6" height="40" rx="6" fill="white"/>
<path d="M260.574 150.324H262.483V170.748H260.574V150.324ZM255.675 155.982H261.08V157.569H255.675V155.982ZM255.675 161.456H261.08V163.066H255.675V161.456Z" fill="black"/>
</g>
<g filter="url(#filter17_d_907_2021)">
<rect x="281.199" y="140" width="35.6" height="40" rx="6" fill="white"/>
<path d="M298.126 156.304H303.393V157.891H298.126V156.304ZM298.126 161.962H303.393V163.572H298.126V161.962ZM296.792 150.301H298.701V170.725H296.792V150.301Z" fill="black"/>
</g>
<g filter="url(#filter18_d_907_2021)">
<rect x="320.801" y="140" width="35.6" height="40" rx="6" fill="white"/>
<path d="M340.557 150.278H342.374V170.725H340.557V150.278ZM336.371 158.489H341.27V160.076H336.371V158.489ZM335.175 150.623H336.992V169.966H335.175V150.623Z" fill="black"/>
</g>
<g filter="url(#filter19_d_907_2021)">
<rect x="360.4" y="140" width="35.6" height="40" rx="6" fill="white"/>
<path d="M380.869 150.324H382.709V170.771H380.869V150.324ZM372.98 158.466H377.626V160.076H372.98V158.466ZM376.752 150.646H378.569V170.035H376.752V150.646Z" fill="black"/>
</g>
<g filter="url(#filter20_d_907_2021)">
<rect x="22" y="190" width="36" height="40" rx="6" fill="white"/>
<path d="M33.6069 204.924H46.6019V215.803H33.6069V204.924ZM44.6929 206.488H35.5159V214.239H44.6929V206.488Z" fill="black"/>
</g>
<g filter="url(#filter21_d_907_2021)">
<rect x="62" y="190" width="36" height="40" rx="6" fill="white"/>
<path d="M73.6529 214.124H86.8319V215.688H73.6529V214.124ZM73.6529 205.016H75.5619V214.722H73.6529V205.016Z" fill="black"/>
</g>
<g filter="url(#filter22_d_907_2021)">
<rect x="102" y="190" width="36" height="40" rx="6" fill="white"/>
<path d="M120.001 204.579C120.921 204.579 121.772 204.725 122.554 205.016C123.336 205.292 124.026 205.691 124.624 206.212C125.222 206.718 125.682 207.316 126.004 208.006C126.341 208.696 126.51 209.463 126.51 210.306C126.51 211.134 126.341 211.901 126.004 212.606C125.682 213.311 125.222 213.925 124.624 214.446C124.026 214.952 123.336 215.343 122.554 215.619C121.772 215.895 120.921 216.033 120.001 216.033C119.096 216.033 118.253 215.895 117.471 215.619C116.689 215.343 115.999 214.952 115.401 214.446C114.803 213.925 114.335 213.311 113.998 212.606C113.676 211.901 113.515 211.134 113.515 210.306C113.515 209.463 113.676 208.696 113.998 208.006C114.335 207.316 114.803 206.718 115.401 206.212C115.999 205.691 116.689 205.292 117.471 205.016C118.253 204.725 119.096 204.579 120.001 204.579ZM120.001 206.235C119.142 206.235 118.36 206.411 117.655 206.764C116.95 207.117 116.39 207.6 115.976 208.213C115.562 208.826 115.355 209.524 115.355 210.306C115.355 211.088 115.562 211.793 115.976 212.422C116.39 213.035 116.95 213.526 117.655 213.894C118.36 214.247 119.142 214.423 120.001 214.423C120.89 214.423 121.68 214.247 122.37 213.894C123.06 213.526 123.612 213.035 124.026 212.422C124.44 211.793 124.647 211.088 124.647 210.306C124.647 209.524 124.44 208.826 124.026 208.213C123.612 207.6 123.06 207.117 122.37 206.764C121.68 206.411 120.89 206.235 120.001 206.235Z" fill="black"/>
</g>
<g filter="url(#filter23_d_907_2021)">
<rect x="142" y="190" width="36" height="40" rx="6" fill="white"/>
<path d="M153.469 204.671H166.487V211.042H155.332V215.297H153.515V209.524H164.67V206.212H153.469V204.671ZM153.515 214.423H166.855V216.01H153.515V214.423Z" fill="black"/>
</g>
<g filter="url(#filter24_d_907_2021)">
<rect x="182" y="190" width="36" height="40" rx="6" fill="white"/>
<path d="M193.216 206.235H207.016V207.822H193.216V206.235ZM200.116 209.294C201.113 209.294 201.994 209.463 202.761 209.8C203.528 210.122 204.133 210.567 204.578 211.134C205.023 211.701 205.245 212.353 205.245 213.089C205.245 213.84 205.023 214.507 204.578 215.09C204.133 215.657 203.528 216.102 202.761 216.424C201.994 216.746 201.113 216.907 200.116 216.907C199.15 216.907 198.276 216.746 197.494 216.424C196.727 216.102 196.122 215.657 195.677 215.09C195.232 214.507 195.01 213.84 195.01 213.089C195.01 212.353 195.232 211.701 195.677 211.134C196.122 210.567 196.727 210.122 197.494 209.8C198.276 209.463 199.15 209.294 200.116 209.294ZM200.139 210.904C199.526 210.904 198.981 210.996 198.506 211.18C198.031 211.364 197.655 211.625 197.379 211.962C197.103 212.284 196.965 212.66 196.965 213.089C196.965 213.518 197.103 213.902 197.379 214.239C197.655 214.561 198.031 214.822 198.506 215.021C198.981 215.205 199.526 215.297 200.139 215.297C200.737 215.297 201.274 215.205 201.749 215.021C202.224 214.822 202.6 214.561 202.876 214.239C203.152 213.902 203.29 213.518 203.29 213.089C203.29 212.66 203.152 212.284 202.876 211.962C202.6 211.625 202.224 211.364 201.749 211.18C201.274 210.996 200.737 210.904 200.139 210.904ZM199.173 203.452H201.082V207.546H199.173V203.452Z" fill="black"/>
</g>
<g filter="url(#filter25_d_907_2021)">
<rect x="222" y="190" width="36" height="40" rx="6" fill="white"/>
<path d="M230.617 212.951H249.339V214.515H230.617V212.951ZM239.012 204.28H240.898V213.48H239.012V204.28Z" fill="black"/>
</g>
<g filter="url(#filter26_d_907_2021)">
<rect x="262" y="190" width="36" height="40" rx="6" fill="white"/>
<path d="M281.128 200.324H283.037V220.748H281.128V200.324ZM276.252 208.535H281.634V210.145H276.252V208.535Z" fill="black"/>
</g>
<g filter="url(#filter27_d_907_2021)">
<rect x="302" y="190" width="36" height="40" rx="6" fill="white"/>
<path d="M318.437 200.347H320.323V220.771H318.437V200.347ZM319.84 208.673H325.153V210.26H319.84V208.673Z" fill="black"/>
</g>
<g filter="url(#filter28_d_907_2021)">
<rect x="342" y="190" width="36" height="40" rx="6" fill="white"/>
<path d="M359.15 200.324H361.059V220.748H359.15V200.324Z" fill="black"/>
</g>
<g filter="url(#filter29_d_907_2021)">
<rect x="4" y="240" width="48" height="40" rx="6" fill="#CCCED5"/>
<path d="M28.6821 250.789C28.3052 250.404 27.6948 250.404 27.3179 250.789L18.7847 259.505C18.1767 260.127 18.6069 261.189 19.4668 261.189H22.5V268.478C22.5 269.042 22.9477 269.5 23.5 269.5H32.5C33.0522 269.5 33.5 269.042 33.5 268.478V261.189H36.5332C37.3931 261.189 37.8232 260.127 37.2153 259.505L28.6821 250.789Z" fill="#3D3D3F"/>
</g>
<g filter="url(#filter30_d_907_2021)">
<rect x="56" y="240" width="37.7143" height="40" rx="6" fill="white"/>
<path d="M68.648 254.648H81.459V266.056H79.527V256.212H68.648V254.648ZM80.171 259.616V261.134L68.441 261.893L68.188 260.168L80.171 259.616Z" fill="black"/>
</g>
<g filter="url(#filter31_d_907_2021)">
<rect x="97.7148" y="240" width="37.7143" height="40" rx="6" fill="white"/>
<path d="M110.248 254.855H123.151V256.419H112.134V265.113H110.248V254.855ZM110.248 264.308H123.335V265.872H110.248V264.308ZM110.685 259.478H122.99V261.042H110.685V259.478Z" fill="black"/>
</g>
<g filter="url(#filter32_d_907_2021)">
<rect x="139.428" y="240" width="37.7143" height="40" rx="6" fill="white"/>
<path d="M157.205 257.96H158.838V258.788C158.838 259.8 158.677 260.728 158.355 261.571C158.033 262.399 157.573 263.135 156.975 263.779C156.377 264.423 155.671 264.975 154.859 265.435C154.061 265.895 153.18 266.248 152.214 266.493L151.294 264.998C152.183 264.783 152.988 264.492 153.709 264.124C154.429 263.741 155.05 263.281 155.572 262.744C156.093 262.207 156.492 261.609 156.768 260.95C157.059 260.291 157.205 259.57 157.205 258.788V257.96ZM157.803 257.96H159.436V258.788C159.436 259.57 159.574 260.291 159.85 260.95C160.141 261.609 160.547 262.207 161.069 262.744C161.605 263.281 162.234 263.741 162.955 264.124C163.675 264.492 164.473 264.783 165.347 264.998L164.45 266.493C163.484 266.248 162.594 265.895 161.782 265.435C160.969 264.975 160.264 264.423 159.666 263.779C159.083 263.135 158.623 262.399 158.286 261.571C157.964 260.728 157.803 259.8 157.803 258.788V257.96ZM151.869 256.603H164.795V258.19H151.869V256.603ZM157.389 253.59H159.298V257.385H157.389V253.59Z" fill="black"/>
</g>
<g filter="url(#filter33_d_907_2021)">
<rect x="181.143" y="240" width="37.7143" height="40" rx="6" fill="white"/>
<path d="M193.4 254.901H206.809V256.465H193.4V254.901ZM193.101 264.423H207.131V265.987H193.101V264.423ZM196.091 256.143H198V265.044H196.091V256.143ZM202.232 256.143H204.141V265.044H202.232V256.143Z" fill="black"/>
</g>
<g filter="url(#filter34_d_907_2021)">
<rect x="222.857" y="240" width="37.7143" height="40" rx="6" fill="white"/>
<path d="M232.331 257.017H251.053V258.581H232.331V257.017ZM237.276 258.098H239.185V267.528H237.276V258.098ZM244.107 258.098H246.016V267.528H244.107V258.098Z" fill="black"/>
</g>
<g filter="url(#filter35_d_907_2021)">
<rect x="264.572" y="240" width="37.7143" height="40" rx="6" fill="white"/>
<path d="M274.184 257.063H292.906V258.627H274.184V257.063ZM282.579 258.052H284.488V267.551H282.579V258.052Z" fill="black"/>
</g>
<g filter="url(#filter36_d_907_2021)">
<rect x="306.285" y="240" width="37.7143" height="40" rx="6" fill="white"/>
<path d="M315.897 257.063H334.619V258.627H315.897V257.063ZM324.292 258.052H326.201V267.551H324.292V258.052Z" fill="black"/>
</g>
<g filter="url(#filter37_d_907_2021)">
<rect x="348" y="240" width="48" height="40" rx="6" fill="#CCCED5"/>
<path d="M382 251H367C366.31 251 365.77 251.35 365.41 251.88L360 260L365.41 268.11C365.77 268.64 366.31 269 367 269H382C383.1 269 384 268.1 384 267V253C384 251.9 383.1 251 382 251ZM382 267H367.07L362.4 260L367.06 253H382V267ZM370.41 265L374 261.41L377.59 265L379 263.59L375.41 260L379 256.41L377.59 255L374 258.59L370.41 255L369 256.41L372.59 260L369 263.59L370.41 265Z" fill="#3D3D3F"/>
</g>
<g filter="url(#filter38_d_907_2021)">
<rect x="4" y="290" width="53" height="40" rx="6" fill="#CCCED5"/>
<path d="M18.2759 311.858H16.6426C16.6475 311.404 16.6865 311.023 16.7598 310.715C16.833 310.403 16.9551 310.12 17.126 309.866C17.3018 309.612 17.5337 309.343 17.8218 309.06C18.0464 308.845 18.249 308.643 18.4297 308.452C18.6104 308.257 18.7544 308.052 18.8618 307.837C18.9692 307.617 19.0229 307.366 19.0229 307.083C19.0229 306.775 18.9717 306.514 18.8691 306.299C18.7666 306.084 18.6152 305.92 18.415 305.808C18.2197 305.696 17.9756 305.64 17.6826 305.64C17.4385 305.64 17.209 305.688 16.9941 305.786C16.7793 305.879 16.606 306.025 16.4741 306.226C16.3423 306.421 16.2715 306.68 16.2617 307.002H14.4966C14.5063 306.387 14.6528 305.869 14.936 305.449C15.2192 305.029 15.6001 304.714 16.0786 304.504C16.5571 304.294 17.0918 304.189 17.6826 304.189C18.3369 304.189 18.896 304.302 19.3599 304.526C19.8237 304.746 20.1777 305.068 20.4219 305.493C20.6709 305.913 20.7954 306.421 20.7954 307.017C20.7954 307.446 20.71 307.837 20.5391 308.188C20.3682 308.535 20.146 308.86 19.8726 309.163C19.5991 309.46 19.3037 309.758 18.9863 310.056C18.7129 310.305 18.5273 310.576 18.4297 310.869C18.332 311.157 18.2808 311.487 18.2759 311.858ZM16.4961 314.143C16.4961 313.879 16.5864 313.657 16.7671 313.477C16.9478 313.291 17.1943 313.198 17.5068 313.198C17.8193 313.198 18.0659 313.291 18.2466 313.477C18.4272 313.657 18.5176 313.879 18.5176 314.143C18.5176 314.407 18.4272 314.631 18.2466 314.817C18.0659 314.998 17.8193 315.088 17.5068 315.088C17.1943 315.088 16.9478 314.998 16.7671 314.817C16.5864 314.631 16.4961 314.407 16.4961 314.143ZM26.9844 304.299V315H25.2192V306.394L22.6045 307.28V305.823L26.772 304.299H26.9844ZM37.8389 313.594V315H30.6904V313.792L34.1621 310.005C34.543 309.575 34.8433 309.204 35.063 308.892C35.2827 308.579 35.4365 308.298 35.5244 308.049C35.6172 307.795 35.6636 307.549 35.6636 307.31C35.6636 306.973 35.6001 306.677 35.4731 306.423C35.3511 306.165 35.1704 305.962 34.9312 305.815C34.6919 305.664 34.4014 305.588 34.0596 305.588C33.6641 305.588 33.332 305.674 33.0635 305.845C32.7949 306.016 32.5923 306.252 32.4556 306.555C32.3188 306.853 32.2505 307.195 32.2505 307.581H30.4854C30.4854 306.96 30.627 306.394 30.9102 305.881C31.1934 305.364 31.6035 304.954 32.1406 304.651C32.6777 304.343 33.3247 304.189 34.0815 304.189C34.7944 304.189 35.3999 304.309 35.8979 304.548C36.396 304.788 36.7744 305.127 37.0332 305.566C37.2969 306.006 37.4287 306.526 37.4287 307.126C37.4287 307.458 37.375 307.788 37.2676 308.115C37.1602 308.442 37.0063 308.77 36.8062 309.097C36.6108 309.419 36.3789 309.744 36.1104 310.071C35.8418 310.393 35.5464 310.72 35.2241 311.052L32.917 313.594H37.8389ZM41.2886 308.87H42.3433C42.7534 308.87 43.0928 308.799 43.3613 308.657C43.6348 308.516 43.8374 308.32 43.9692 308.071C44.1011 307.822 44.167 307.537 44.167 307.214C44.167 306.877 44.106 306.589 43.9839 306.35C43.8667 306.106 43.686 305.918 43.4419 305.786C43.2026 305.654 42.8975 305.588 42.5264 305.588C42.2139 305.588 41.9307 305.652 41.6768 305.779C41.4277 305.901 41.23 306.077 41.0835 306.306C40.937 306.531 40.8638 306.799 40.8638 307.112H39.0913C39.0913 306.545 39.2402 306.042 39.5381 305.603C39.8359 305.164 40.2412 304.819 40.7539 304.57C41.2715 304.316 41.8525 304.189 42.4971 304.189C43.1855 304.189 43.7861 304.304 44.2988 304.534C44.8164 304.758 45.2192 305.095 45.5073 305.544C45.7954 305.994 45.9395 306.55 45.9395 307.214C45.9395 307.517 45.8687 307.825 45.7271 308.137C45.5854 308.45 45.3755 308.735 45.0972 308.994C44.8188 309.248 44.4722 309.456 44.0571 309.617C43.6421 309.773 43.1611 309.851 42.6143 309.851H41.2886V308.87ZM41.2886 310.247V309.28H42.6143C43.2393 309.28 43.7715 309.353 44.2109 309.5C44.6553 309.646 45.0166 309.849 45.2949 310.107C45.5732 310.361 45.7759 310.652 45.9028 310.979C46.0347 311.306 46.1006 311.653 46.1006 312.019C46.1006 312.517 46.0103 312.961 45.8296 313.352C45.6538 313.738 45.4023 314.065 45.0752 314.333C44.748 314.602 44.3647 314.805 43.9253 314.941C43.4907 315.078 43.0171 315.146 42.5044 315.146C42.0454 315.146 41.606 315.083 41.186 314.956C40.7661 314.829 40.3901 314.641 40.0581 314.392C39.7261 314.138 39.4624 313.823 39.2671 313.447C39.0767 313.066 38.9814 312.627 38.9814 312.129H40.7466C40.7466 312.446 40.8198 312.727 40.9663 312.971C41.1177 313.21 41.3276 313.398 41.5962 313.535C41.8696 313.672 42.1821 313.74 42.5337 313.74C42.9048 313.74 43.2246 313.674 43.4932 313.542C43.7617 313.411 43.9668 313.215 44.1084 312.957C44.2549 312.698 44.3281 312.385 44.3281 312.019C44.3281 311.604 44.2476 311.267 44.0864 311.008C43.9253 310.75 43.6958 310.559 43.3979 310.437C43.1001 310.31 42.7485 310.247 42.3433 310.247H41.2886Z" fill="#3D3D3F"/>
</g>
<g filter="url(#filter39_d_907_2021)">
<rect x="61" y="290" width="30" height="40" rx="6" fill="#CCCED5"/>
<path d="M76.8862 320.301L76.8789 321.561C76.8789 322.059 76.7544 322.571 76.5054 323.099C76.2563 323.626 75.9268 324.061 75.5166 324.402L74.5718 323.853C74.7085 323.633 74.833 323.411 74.9453 323.187C75.0576 322.962 75.1479 322.723 75.2163 322.469C75.2847 322.215 75.3188 321.934 75.3188 321.626V320.301H76.8862Z" fill="black"/>
<path d="M77.3965 300.959C77.8452 300.959 78.209 300.595 78.209 300.146C78.209 299.698 77.8452 299.334 77.3965 299.334C76.9478 299.334 76.584 299.698 76.584 300.146C76.584 300.595 76.9478 300.959 77.3965 300.959Z" fill="#3D3D3F"/>
<path d="M73.6048 300.959C74.0535 300.959 74.4173 300.595 74.4173 300.146C74.4173 299.698 74.0535 299.334 73.6048 299.334C73.1561 299.334 72.7923 299.698 72.7923 300.146C72.7923 300.595 73.1561 300.959 73.6048 300.959Z" fill="#3D3D3F"/>
<path d="M75.5007 303.667C74.699 303.667 74.0111 303.229 73.6319 302.584H72.7273C73.1607 303.694 74.2386 304.48 75.5007 304.48C76.7627 304.48 77.8407 303.694 78.274 302.584H77.3694C76.9902 303.229 76.3023 303.667 75.5007 303.667ZM75.4952 296.084C72.5052 296.084 70.084 298.511 70.084 301.501C70.084 304.491 72.5052 306.917 75.4952 306.917C78.4907 306.917 80.9173 304.491 80.9173 301.501C80.9173 298.511 78.4907 296.084 75.4952 296.084ZM75.5007 305.834C73.1065 305.834 71.1673 303.895 71.1673 301.501C71.1673 299.106 73.1065 297.167 75.5007 297.167C77.8948 297.167 79.834 299.106 79.834 301.501C79.834 303.895 77.8948 305.834 75.5007 305.834Z" fill="#3D3D3F"/>
</g>
<g filter="url(#filter40_d_907_2021)">
<rect x="95" y="290" width="30" height="40" rx="6" fill="white"/>
<path d="M109.99 300C104.47 300 100 304.48 100 310C100 315.52 104.47 320 109.99 320C115.52 320 120 315.52 120 310C120 304.48 115.52 300 109.99 300ZM116.92 306H113.97C113.65 304.75 113.19 303.55 112.59 302.44C114.43 303.07 115.96 304.35 116.92 306ZM110 302.04C110.83 303.24 111.48 304.57 111.91 306H108.09C108.52 304.57 109.17 303.24 110 302.04ZM102.26 312C102.1 311.36 102 310.69 102 310C102 309.31 102.1 308.64 102.26 308H105.64C105.56 308.66 105.5 309.32 105.5 310C105.5 310.68 105.56 311.34 105.64 312H102.26ZM103.08 314H106.03C106.35 315.25 106.81 316.45 107.41 317.56C105.57 316.93 104.04 315.66 103.08 314ZM106.03 306H103.08C104.04 304.34 105.57 303.07 107.41 302.44C106.81 303.55 106.35 304.75 106.03 306ZM110 317.96C109.17 316.76 108.52 315.43 108.09 314H111.91C111.48 315.43 110.83 316.76 110 317.96ZM112.34 312H107.66C107.57 311.34 107.5 310.68 107.5 310C107.5 309.32 107.57 308.65 107.66 308H112.34C112.43 308.65 112.5 309.32 112.5 310C112.5 310.68 112.43 311.34 112.34 312ZM112.59 317.56C113.19 316.45 113.65 315.25 113.97 314H116.92C115.96 315.65 114.43 316.93 112.59 317.56ZM114.36 312C114.44 311.34 114.5 310.68 114.5 310C114.5 309.32 114.44 308.66 114.36 308H117.74C117.9 308.64 118 309.31 118 310C118 310.69 117.9 311.36 117.74 312H114.36Z" fill="#4C4C4C"/>
</g>
<g filter="url(#filter41_d_907_2021)">
<rect x="129" y="290" width="181" height="40" rx="6" fill="white"/>
<path d="M199.5 307V313H239.5V307" stroke="#191919" stroke-width="2"/>
</g>
<g filter="url(#filter42_d_907_2021)">
<rect x="314" y="290" width="30" height="40" rx="6" fill="#CCCED5"/>
<path d="M327.585 317.899C327.585 317.548 327.694 317.252 327.911 317.012C328.135 316.765 328.457 316.642 328.876 316.642C329.296 316.642 329.614 316.765 329.831 317.012C330.056 317.252 330.168 317.548 330.168 317.899C330.168 318.244 330.056 318.536 329.831 318.775C329.614 319.015 329.296 319.135 328.876 319.135C328.457 319.135 328.135 319.015 327.911 318.775C327.694 318.536 327.585 318.244 327.585 317.899Z" fill="black"/>
</g>
<g filter="url(#filter43_d_907_2021)">
<rect x="348" y="290" width="48" height="40" rx="6" fill="#CCCED5"/>
<mask id="mask0_907_2021" style="mask-type:alpha" maskUnits="userSpaceOnUse" x="358" y="296" width="28" height="28">
<rect x="358" y="296" width="28" height="28" fill="#D9D9D9"/>
</mask>
<g mask="url(#mask0_907_2021)">
<path d="M369.083 314.667C366.964 314.667 365.17 313.933 363.702 312.465C362.234 310.997 361.5 309.203 361.5 307.083C361.5 304.964 362.234 303.17 363.702 301.702C365.17 300.234 366.964 299.5 369.083 299.5C371.203 299.5 372.997 300.234 374.465 301.702C375.933 303.17 376.667 304.964 376.667 307.083C376.667 307.939 376.531 308.746 376.258 309.504C375.986 310.262 375.617 310.933 375.15 311.517L381.683 318.05C381.897 318.264 382.004 318.536 382.004 318.867C382.004 319.197 381.897 319.469 381.683 319.683C381.469 319.897 381.197 320.004 380.867 320.004C380.536 320.004 380.264 319.897 380.05 319.683L373.517 313.15C372.933 313.617 372.262 313.986 371.504 314.258C370.746 314.531 369.939 314.667 369.083 314.667ZM369.083 312.333C370.542 312.333 371.781 311.823 372.802 310.802C373.823 309.781 374.333 308.542 374.333 307.083C374.333 305.625 373.823 304.385 372.802 303.365C371.781 302.344 370.542 301.833 369.083 301.833C367.625 301.833 366.385 302.344 365.365 303.365C364.344 304.385 363.833 305.625 363.833 307.083C363.833 308.542 364.344 309.781 365.365 310.802C366.385 311.823 367.625 312.333 369.083 312.333Z" fill="#3D3D3F"/>
</g>
</g>
<rect width="400" height="30" transform="translate(0 334)" fill="#E8EAED"/>
<defs>
<filter id="filter0_d_907_2021" x="4" y="90" width="35.5996" height="41" filterUnits="userSpaceOnUse" color-interpolation-filters="sRGB">
<feFlood flood-opacity="0" result="BackgroundImageFix"/>
<feColorMatrix in="SourceAlpha" type="matrix" values="0 0 0 0 0 0 0 0 0 0 0 0 0 0 0 0 0 0 127 0" result="hardAlpha"/>
<feOffset dy="1"/>
<feColorMatrix type="matrix" values="0 0 0 0 0 0 0 0 0 0 0 0 0 0 0 0 0 0 0.27 0"/>
<feBlend mode="normal" in2="BackgroundImageFix" result="effect1_dropShadow_907_2021"/>
<feBlend mode="normal" in="SourceGraphic" in2="effect1_dropShadow_907_2021" result="shape"/>
</filter>
<filter id="filter1_d_907_2021" x="43.5996" y="90" width="35.5996" height="41" filterUnits="userSpaceOnUse" color-interpolation-filters="sRGB">
<feFlood flood-opacity="0" result="BackgroundImageFix"/>
<feColorMatrix in="SourceAlpha" type="matrix" values="0 0 0 0 0 0 0 0 0 0 0 0 0 0 0 0 0 0 127 0" result="hardAlpha"/>
<feOffset dy="1"/>
<feColorMatrix type="matrix" values="0 0 0 0 0 0 0 0 0 0 0 0 0 0 0 0 0 0 0.27 0"/>
<feBlend mode="normal" in2="BackgroundImageFix" result="effect1_dropShadow_907_2021"/>
<feBlend mode="normal" in="SourceGraphic" in2="effect1_dropShadow_907_2021" result="shape"/>
</filter>
<filter id="filter2_d_907_2021" x="83.1992" y="90" width="35.5996" height="41" filterUnits="userSpaceOnUse" color-interpolation-filters="sRGB">
<feFlood flood-opacity="0" result="BackgroundImageFix"/>
<feColorMatrix in="SourceAlpha" type="matrix" values="0 0 0 0 0 0 0 0 0 0 0 0 0 0 0 0 0 0 127 0" result="hardAlpha"/>
<feOffset dy="1"/>
<feColorMatrix type="matrix" values="0 0 0 0 0 0 0 0 0 0 0 0 0 0 0 0 0 0 0.27 0"/>
<feBlend mode="normal" in2="BackgroundImageFix" result="effect1_dropShadow_907_2021"/>
<feBlend mode="normal" in="SourceGraphic" in2="effect1_dropShadow_907_2021" result="shape"/>
</filter>
<filter id="filter3_d_907_2021" x="122.801" y="90" width="35.5996" height="41" filterUnits="userSpaceOnUse" color-interpolation-filters="sRGB">
<feFlood flood-opacity="0" result="BackgroundImageFix"/>
<feColorMatrix in="SourceAlpha" type="matrix" values="0 0 0 0 0 0 0 0 0 0 0 0 0 0 0 0 0 0 127 0" result="hardAlpha"/>
<feOffset dy="1"/>
<feColorMatrix type="matrix" values="0 0 0 0 0 0 0 0 0 0 0 0 0 0 0 0 0 0 0.27 0"/>
<feBlend mode="normal" in2="BackgroundImageFix" result="effect1_dropShadow_907_2021"/>
<feBlend mode="normal" in="SourceGraphic" in2="effect1_dropShadow_907_2021" result="shape"/>
</filter>
<filter id="filter4_d_907_2021" x="162.4" y="90" width="35.5996" height="41" filterUnits="userSpaceOnUse" color-interpolation-filters="sRGB">
<feFlood flood-opacity="0" result="BackgroundImageFix"/>
<feColorMatrix in="SourceAlpha" type="matrix" values="0 0 0 0 0 0 0 0 0 0 0 0 0 0 0 0 0 0 127 0" result="hardAlpha"/>
<feOffset dy="1"/>
<feColorMatrix type="matrix" values="0 0 0 0 0 0 0 0 0 0 0 0 0 0 0 0 0 0 0.27 0"/>
<feBlend mode="normal" in2="BackgroundImageFix" result="effect1_dropShadow_907_2021"/>
<feBlend mode="normal" in="SourceGraphic" in2="effect1_dropShadow_907_2021" result="shape"/>
</filter>
<filter id="filter5_d_907_2021" x="202" y="90" width="35.5996" height="41" filterUnits="userSpaceOnUse" color-interpolation-filters="sRGB">
<feFlood flood-opacity="0" result="BackgroundImageFix"/>
<feColorMatrix in="SourceAlpha" type="matrix" values="0 0 0 0 0 0 0 0 0 0 0 0 0 0 0 0 0 0 127 0" result="hardAlpha"/>
<feOffset dy="1"/>
<feColorMatrix type="matrix" values="0 0 0 0 0 0 0 0 0 0 0 0 0 0 0 0 0 0 0.27 0"/>
<feBlend mode="normal" in2="BackgroundImageFix" result="effect1_dropShadow_907_2021"/>
<feBlend mode="normal" in="SourceGraphic" in2="effect1_dropShadow_907_2021" result="shape"/>
</filter>
<filter id="filter6_d_907_2021" x="241.6" y="90" width="35.5996" height="41" filterUnits="userSpaceOnUse" color-interpolation-filters="sRGB">
<feFlood flood-opacity="0" result="BackgroundImageFix"/>
<feColorMatrix in="SourceAlpha" type="matrix" values="0 0 0 0 0 0 0 0 0 0 0 0 0 0 0 0 0 0 127 0" result="hardAlpha"/>
<feOffset dy="1"/>
<feColorMatrix type="matrix" values="0 0 0 0 0 0 0 0 0 0 0 0 0 0 0 0 0 0 0.27 0"/>
<feBlend mode="normal" in2="BackgroundImageFix" result="effect1_dropShadow_907_2021"/>
<feBlend mode="normal" in="SourceGraphic" in2="effect1_dropShadow_907_2021" result="shape"/>
</filter>
<filter id="filter7_d_907_2021" x="281.199" y="90" width="35.5996" height="41" filterUnits="userSpaceOnUse" color-interpolation-filters="sRGB">
<feFlood flood-opacity="0" result="BackgroundImageFix"/>
<feColorMatrix in="SourceAlpha" type="matrix" values="0 0 0 0 0 0 0 0 0 0 0 0 0 0 0 0 0 0 127 0" result="hardAlpha"/>
<feOffset dy="1"/>
<feColorMatrix type="matrix" values="0 0 0 0 0 0 0 0 0 0 0 0 0 0 0 0 0 0 0.27 0"/>
<feBlend mode="normal" in2="BackgroundImageFix" result="effect1_dropShadow_907_2021"/>
<feBlend mode="normal" in="SourceGraphic" in2="effect1_dropShadow_907_2021" result="shape"/>
</filter>
<filter id="filter8_d_907_2021" x="320.801" y="90" width="35.5996" height="41" filterUnits="userSpaceOnUse" color-interpolation-filters="sRGB">
<feFlood flood-opacity="0" result="BackgroundImageFix"/>
<feColorMatrix in="SourceAlpha" type="matrix" values="0 0 0 0 0 0 0 0 0 0 0 0 0 0 0 0 0 0 127 0" result="hardAlpha"/>
<feOffset dy="1"/>
<feColorMatrix type="matrix" values="0 0 0 0 0 0 0 0 0 0 0 0 0 0 0 0 0 0 0.27 0"/>
<feBlend mode="normal" in2="BackgroundImageFix" result="effect1_dropShadow_907_2021"/>
<feBlend mode="normal" in="SourceGraphic" in2="effect1_dropShadow_907_2021" result="shape"/>
</filter>
<filter id="filter9_d_907_2021" x="360.4" y="90" width="35.5996" height="41" filterUnits="userSpaceOnUse" color-interpolation-filters="sRGB">
<feFlood flood-opacity="0" result="BackgroundImageFix"/>
<feColorMatrix in="SourceAlpha" type="matrix" values="0 0 0 0 0 0 0 0 0 0 0 0 0 0 0 0 0 0 127 0" result="hardAlpha"/>
<feOffset dy="1"/>
<feColorMatrix type="matrix" values="0 0 0 0 0 0 0 0 0 0 0 0 0 0 0 0 0 0 0.27 0"/>
<feBlend mode="normal" in2="BackgroundImageFix" result="effect1_dropShadow_907_2021"/>
<feBlend mode="normal" in="SourceGraphic" in2="effect1_dropShadow_907_2021" result="shape"/>
</filter>
<filter id="filter10_d_907_2021" x="4" y="140" width="35.5996" height="41" filterUnits="userSpaceOnUse" color-interpolation-filters="sRGB">
<feFlood flood-opacity="0" result="BackgroundImageFix"/>
<feColorMatrix in="SourceAlpha" type="matrix" values="0 0 0 0 0 0 0 0 0 0 0 0 0 0 0 0 0 0 127 0" result="hardAlpha"/>
<feOffset dy="1"/>
<feColorMatrix type="matrix" values="0 0 0 0 0 0 0 0 0 0 0 0 0 0 0 0 0 0 0.27 0"/>
<feBlend mode="normal" in2="BackgroundImageFix" result="effect1_dropShadow_907_2021"/>
<feBlend mode="normal" in="SourceGraphic" in2="effect1_dropShadow_907_2021" result="shape"/>
</filter>
<filter id="filter11_d_907_2021" x="43.5996" y="140" width="35.5996" height="41" filterUnits="userSpaceOnUse" color-interpolation-filters="sRGB">
<feFlood flood-opacity="0" result="BackgroundImageFix"/>
<feColorMatrix in="SourceAlpha" type="matrix" values="0 0 0 0 0 0 0 0 0 0 0 0 0 0 0 0 0 0 127 0" result="hardAlpha"/>
<feOffset dy="1"/>
<feColorMatrix type="matrix" values="0 0 0 0 0 0 0 0 0 0 0 0 0 0 0 0 0 0 0.27 0"/>
<feBlend mode="normal" in2="BackgroundImageFix" result="effect1_dropShadow_907_2021"/>
<feBlend mode="normal" in="SourceGraphic" in2="effect1_dropShadow_907_2021" result="shape"/>
</filter>
<filter id="filter12_d_907_2021" x="83.1992" y="140" width="35.5996" height="41" filterUnits="userSpaceOnUse" color-interpolation-filters="sRGB">
<feFlood flood-opacity="0" result="BackgroundImageFix"/>
<feColorMatrix in="SourceAlpha" type="matrix" values="0 0 0 0 0 0 0 0 0 0 0 0 0 0 0 0 0 0 127 0" result="hardAlpha"/>
<feOffset dy="1"/>
<feColorMatrix type="matrix" values="0 0 0 0 0 0 0 0 0 0 0 0 0 0 0 0 0 0 0.27 0"/>
<feBlend mode="normal" in2="BackgroundImageFix" result="effect1_dropShadow_907_2021"/>
<feBlend mode="normal" in="SourceGraphic" in2="effect1_dropShadow_907_2021" result="shape"/>
</filter>
<filter id="filter13_d_907_2021" x="122.801" y="140" width="35.5996" height="41" filterUnits="userSpaceOnUse" color-interpolation-filters="sRGB">
<feFlood flood-opacity="0" result="BackgroundImageFix"/>
<feColorMatrix in="SourceAlpha" type="matrix" values="0 0 0 0 0 0 0 0 0 0 0 0 0 0 0 0 0 0 127 0" result="hardAlpha"/>
<feOffset dy="1"/>
<feColorMatrix type="matrix" values="0 0 0 0 0 0 0 0 0 0 0 0 0 0 0 0 0 0 0.27 0"/>
<feBlend mode="normal" in2="BackgroundImageFix" result="effect1_dropShadow_907_2021"/>
<feBlend mode="normal" in="SourceGraphic" in2="effect1_dropShadow_907_2021" result="shape"/>
</filter>
<filter id="filter14_d_907_2021" x="162.4" y="140" width="35.5996" height="41" filterUnits="userSpaceOnUse" color-interpolation-filters="sRGB">
<feFlood flood-opacity="0" result="BackgroundImageFix"/>
<feColorMatrix in="SourceAlpha" type="matrix" values="0 0 0 0 0 0 0 0 0 0 0 0 0 0 0 0 0 0 127 0" result="hardAlpha"/>
<feOffset dy="1"/>
<feColorMatrix type="matrix" values="0 0 0 0 0 0 0 0 0 0 0 0 0 0 0 0 0 0 0.27 0"/>
<feBlend mode="normal" in2="BackgroundImageFix" result="effect1_dropShadow_907_2021"/>
<feBlend mode="normal" in="SourceGraphic" in2="effect1_dropShadow_907_2021" result="shape"/>
</filter>
<filter id="filter15_d_907_2021" x="202" y="140" width="35.5996" height="41" filterUnits="userSpaceOnUse" color-interpolation-filters="sRGB">
<feFlood flood-opacity="0" result="BackgroundImageFix"/>
<feColorMatrix in="SourceAlpha" type="matrix" values="0 0 0 0 0 0 0 0 0 0 0 0 0 0 0 0 0 0 127 0" result="hardAlpha"/>
<feOffset dy="1"/>
<feColorMatrix type="matrix" values="0 0 0 0 0 0 0 0 0 0 0 0 0 0 0 0 0 0 0.27 0"/>
<feBlend mode="normal" in2="BackgroundImageFix" result="effect1_dropShadow_907_2021"/>
<feBlend mode="normal" in="SourceGraphic" in2="effect1_dropShadow_907_2021" result="shape"/>
</filter>
<filter id="filter16_d_907_2021" x="241.6" y="140" width="35.5996" height="41" filterUnits="userSpaceOnUse" color-interpolation-filters="sRGB">
<feFlood flood-opacity="0" result="BackgroundImageFix"/>
<feColorMatrix in="SourceAlpha" type="matrix" values="0 0 0 0 0 0 0 0 0 0 0 0 0 0 0 0 0 0 127 0" result="hardAlpha"/>
<feOffset dy="1"/>
<feColorMatrix type="matrix" values="0 0 0 0 0 0 0 0 0 0 0 0 0 0 0 0 0 0 0.27 0"/>
<feBlend mode="normal" in2="BackgroundImageFix" result="effect1_dropShadow_907_2021"/>
<feBlend mode="normal" in="SourceGraphic" in2="effect1_dropShadow_907_2021" result="shape"/>
</filter>
<filter id="filter17_d_907_2021" x="281.199" y="140" width="35.5996" height="41" filterUnits="userSpaceOnUse" color-interpolation-filters="sRGB">
<feFlood flood-opacity="0" result="BackgroundImageFix"/>
<feColorMatrix in="SourceAlpha" type="matrix" values="0 0 0 0 0 0 0 0 0 0 0 0 0 0 0 0 0 0 127 0" result="hardAlpha"/>
<feOffset dy="1"/>
<feColorMatrix type="matrix" values="0 0 0 0 0 0 0 0 0 0 0 0 0 0 0 0 0 0 0.27 0"/>
<feBlend mode="normal" in2="BackgroundImageFix" result="effect1_dropShadow_907_2021"/>
<feBlend mode="normal" in="SourceGraphic" in2="effect1_dropShadow_907_2021" result="shape"/>
</filter>
<filter id="filter18_d_907_2021" x="320.801" y="140" width="35.5996" height="41" filterUnits="userSpaceOnUse" color-interpolation-filters="sRGB">
<feFlood flood-opacity="0" result="BackgroundImageFix"/>
<feColorMatrix in="SourceAlpha" type="matrix" values="0 0 0 0 0 0 0 0 0 0 0 0 0 0 0 0 0 0 127 0" result="hardAlpha"/>
<feOffset dy="1"/>
<feColorMatrix type="matrix" values="0 0 0 0 0 0 0 0 0 0 0 0 0 0 0 0 0 0 0.27 0"/>
<feBlend mode="normal" in2="BackgroundImageFix" result="effect1_dropShadow_907_2021"/>
<feBlend mode="normal" in="SourceGraphic" in2="effect1_dropShadow_907_2021" result="shape"/>
</filter>
<filter id="filter19_d_907_2021" x="360.4" y="140" width="35.5996" height="41" filterUnits="userSpaceOnUse" color-interpolation-filters="sRGB">
<feFlood flood-opacity="0" result="BackgroundImageFix"/>
<feColorMatrix in="SourceAlpha" type="matrix" values="0 0 0 0 0 0 0 0 0 0 0 0 0 0 0 0 0 0 127 0" result="hardAlpha"/>
<feOffset dy="1"/>
<feColorMatrix type="matrix" values="0 0 0 0 0 0 0 0 0 0 0 0 0 0 0 0 0 0 0.27 0"/>
<feBlend mode="normal" in2="BackgroundImageFix" result="effect1_dropShadow_907_2021"/>
<feBlend mode="normal" in="SourceGraphic" in2="effect1_dropShadow_907_2021" result="shape"/>
</filter>
<filter id="filter20_d_907_2021" x="22" y="190" width="36" height="41" filterUnits="userSpaceOnUse" color-interpolation-filters="sRGB">
<feFlood flood-opacity="0" result="BackgroundImageFix"/>
<feColorMatrix in="SourceAlpha" type="matrix" values="0 0 0 0 0 0 0 0 0 0 0 0 0 0 0 0 0 0 127 0" result="hardAlpha"/>
<feOffset dy="1"/>
<feColorMatrix type="matrix" values="0 0 0 0 0 0 0 0 0 0 0 0 0 0 0 0 0 0 0.27 0"/>
<feBlend mode="normal" in2="BackgroundImageFix" result="effect1_dropShadow_907_2021"/>
<feBlend mode="normal" in="SourceGraphic" in2="effect1_dropShadow_907_2021" result="shape"/>
</filter>
<filter id="filter21_d_907_2021" x="62" y="190" width="36" height="41" filterUnits="userSpaceOnUse" color-interpolation-filters="sRGB">
<feFlood flood-opacity="0" result="BackgroundImageFix"/>
<feColorMatrix in="SourceAlpha" type="matrix" values="0 0 0 0 0 0 0 0 0 0 0 0 0 0 0 0 0 0 127 0" result="hardAlpha"/>
<feOffset dy="1"/>
<feColorMatrix type="matrix" values="0 0 0 0 0 0 0 0 0 0 0 0 0 0 0 0 0 0 0.27 0"/>
<feBlend mode="normal" in2="BackgroundImageFix" result="effect1_dropShadow_907_2021"/>
<feBlend mode="normal" in="SourceGraphic" in2="effect1_dropShadow_907_2021" result="shape"/>
</filter>
<filter id="filter22_d_907_2021" x="102" y="190" width="36" height="41" filterUnits="userSpaceOnUse" color-interpolation-filters="sRGB">
<feFlood flood-opacity="0" result="BackgroundImageFix"/>
<feColorMatrix in="SourceAlpha" type="matrix" values="0 0 0 0 0 0 0 0 0 0 0 0 0 0 0 0 0 0 127 0" result="hardAlpha"/>
<feOffset dy="1"/>
<feColorMatrix type="matrix" values="0 0 0 0 0 0 0 0 0 0 0 0 0 0 0 0 0 0 0.27 0"/>
<feBlend mode="normal" in2="BackgroundImageFix" result="effect1_dropShadow_907_2021"/>
<feBlend mode="normal" in="SourceGraphic" in2="effect1_dropShadow_907_2021" result="shape"/>
</filter>
<filter id="filter23_d_907_2021" x="142" y="190" width="36" height="41" filterUnits="userSpaceOnUse" color-interpolation-filters="sRGB">
<feFlood flood-opacity="0" result="BackgroundImageFix"/>
<feColorMatrix in="SourceAlpha" type="matrix" values="0 0 0 0 0 0 0 0 0 0 0 0 0 0 0 0 0 0 127 0" result="hardAlpha"/>
<feOffset dy="1"/>
<feColorMatrix type="matrix" values="0 0 0 0 0 0 0 0 0 0 0 0 0 0 0 0 0 0 0.27 0"/>
<feBlend mode="normal" in2="BackgroundImageFix" result="effect1_dropShadow_907_2021"/>
<feBlend mode="normal" in="SourceGraphic" in2="effect1_dropShadow_907_2021" result="shape"/>
</filter>
<filter id="filter24_d_907_2021" x="182" y="190" width="36" height="41" filterUnits="userSpaceOnUse" color-interpolation-filters="sRGB">
<feFlood flood-opacity="0" result="BackgroundImageFix"/>
<feColorMatrix in="SourceAlpha" type="matrix" values="0 0 0 0 0 0 0 0 0 0 0 0 0 0 0 0 0 0 127 0" result="hardAlpha"/>
<feOffset dy="1"/>
<feColorMatrix type="matrix" values="0 0 0 0 0 0 0 0 0 0 0 0 0 0 0 0 0 0 0.27 0"/>
<feBlend mode="normal" in2="BackgroundImageFix" result="effect1_dropShadow_907_2021"/>
<feBlend mode="normal" in="SourceGraphic" in2="effect1_dropShadow_907_2021" result="shape"/>
</filter>
<filter id="filter25_d_907_2021" x="222" y="190" width="36" height="41" filterUnits="userSpaceOnUse" color-interpolation-filters="sRGB">
<feFlood flood-opacity="0" result="BackgroundImageFix"/>
<feColorMatrix in="SourceAlpha" type="matrix" values="0 0 0 0 0 0 0 0 0 0 0 0 0 0 0 0 0 0 127 0" result="hardAlpha"/>
<feOffset dy="1"/>
<feColorMatrix type="matrix" values="0 0 0 0 0 0 0 0 0 0 0 0 0 0 0 0 0 0 0.27 0"/>
<feBlend mode="normal" in2="BackgroundImageFix" result="effect1_dropShadow_907_2021"/>
<feBlend mode="normal" in="SourceGraphic" in2="effect1_dropShadow_907_2021" result="shape"/>
</filter>
<filter id="filter26_d_907_2021" x="262" y="190" width="36" height="41" filterUnits="userSpaceOnUse" color-interpolation-filters="sRGB">
<feFlood flood-opacity="0" result="BackgroundImageFix"/>
<feColorMatrix in="SourceAlpha" type="matrix" values="0 0 0 0 0 0 0 0 0 0 0 0 0 0 0 0 0 0 127 0" result="hardAlpha"/>
<feOffset dy="1"/>
<feColorMatrix type="matrix" values="0 0 0 0 0 0 0 0 0 0 0 0 0 0 0 0 0 0 0.27 0"/>
<feBlend mode="normal" in2="BackgroundImageFix" result="effect1_dropShadow_907_2021"/>
<feBlend mode="normal" in="SourceGraphic" in2="effect1_dropShadow_907_2021" result="shape"/>
</filter>
<filter id="filter27_d_907_2021" x="302" y="190" width="36" height="41" filterUnits="userSpaceOnUse" color-interpolation-filters="sRGB">
<feFlood flood-opacity="0" result="BackgroundImageFix"/>
<feColorMatrix in="SourceAlpha" type="matrix" values="0 0 0 0 0 0 0 0 0 0 0 0 0 0 0 0 0 0 127 0" result="hardAlpha"/>
<feOffset dy="1"/>
<feColorMatrix type="matrix" values="0 0 0 0 0 0 0 0 0 0 0 0 0 0 0 0 0 0 0.27 0"/>
<feBlend mode="normal" in2="BackgroundImageFix" result="effect1_dropShadow_907_2021"/>
<feBlend mode="normal" in="SourceGraphic" in2="effect1_dropShadow_907_2021" result="shape"/>
</filter>
<filter id="filter28_d_907_2021" x="342" y="190" width="36" height="41" filterUnits="userSpaceOnUse" color-interpolation-filters="sRGB">
<feFlood flood-opacity="0" result="BackgroundImageFix"/>
<feColorMatrix in="SourceAlpha" type="matrix" values="0 0 0 0 0 0 0 0 0 0 0 0 0 0 0 0 0 0 127 0" result="hardAlpha"/>
<feOffset dy="1"/>
<feColorMatrix type="matrix" values="0 0 0 0 0 0 0 0 0 0 0 0 0 0 0 0 0 0 0.27 0"/>
<feBlend mode="normal" in2="BackgroundImageFix" result="effect1_dropShadow_907_2021"/>
<feBlend mode="normal" in="SourceGraphic" in2="effect1_dropShadow_907_2021" result="shape"/>
</filter>
<filter id="filter29_d_907_2021" x="4" y="240" width="48" height="41" filterUnits="userSpaceOnUse" color-interpolation-filters="sRGB">
<feFlood flood-opacity="0" result="BackgroundImageFix"/>
<feColorMatrix in="SourceAlpha" type="matrix" values="0 0 0 0 0 0 0 0 0 0 0 0 0 0 0 0 0 0 127 0" result="hardAlpha"/>
<feOffset dy="1"/>
<feColorMatrix type="matrix" values="0 0 0 0 0 0 0 0 0 0 0 0 0 0 0 0 0 0 0.27 0"/>
<feBlend mode="normal" in2="BackgroundImageFix" result="effect1_dropShadow_907_2021"/>
<feBlend mode="normal" in="SourceGraphic" in2="effect1_dropShadow_907_2021" result="shape"/>
</filter>
<filter id="filter30_d_907_2021" x="56" y="240" width="37.7148" height="41" filterUnits="userSpaceOnUse" color-interpolation-filters="sRGB">
<feFlood flood-opacity="0" result="BackgroundImageFix"/>
<feColorMatrix in="SourceAlpha" type="matrix" values="0 0 0 0 0 0 0 0 0 0 0 0 0 0 0 0 0 0 127 0" result="hardAlpha"/>
<feOffset dy="1"/>
<feColorMatrix type="matrix" values="0 0 0 0 0 0 0 0 0 0 0 0 0 0 0 0 0 0 0.27 0"/>
<feBlend mode="normal" in2="BackgroundImageFix" result="effect1_dropShadow_907_2021"/>
<feBlend mode="normal" in="SourceGraphic" in2="effect1_dropShadow_907_2021" result="shape"/>
</filter>
<filter id="filter31_d_907_2021" x="97.7148" y="240" width="37.7148" height="41" filterUnits="userSpaceOnUse" color-interpolation-filters="sRGB">
<feFlood flood-opacity="0" result="BackgroundImageFix"/>
<feColorMatrix in="SourceAlpha" type="matrix" values="0 0 0 0 0 0 0 0 0 0 0 0 0 0 0 0 0 0 127 0" result="hardAlpha"/>
<feOffset dy="1"/>
<feColorMatrix type="matrix" values="0 0 0 0 0 0 0 0 0 0 0 0 0 0 0 0 0 0 0.27 0"/>
<feBlend mode="normal" in2="BackgroundImageFix" result="effect1_dropShadow_907_2021"/>
<feBlend mode="normal" in="SourceGraphic" in2="effect1_dropShadow_907_2021" result="shape"/>
</filter>
<filter id="filter32_d_907_2021" x="139.428" y="240" width="37.7148" height="41" filterUnits="userSpaceOnUse" color-interpolation-filters="sRGB">
<feFlood flood-opacity="0" result="BackgroundImageFix"/>
<feColorMatrix in="SourceAlpha" type="matrix" values="0 0 0 0 0 0 0 0 0 0 0 0 0 0 0 0 0 0 127 0" result="hardAlpha"/>
<feOffset dy="1"/>
<feColorMatrix type="matrix" values="0 0 0 0 0 0 0 0 0 0 0 0 0 0 0 0 0 0 0.27 0"/>
<feBlend mode="normal" in2="BackgroundImageFix" result="effect1_dropShadow_907_2021"/>
<feBlend mode="normal" in="SourceGraphic" in2="effect1_dropShadow_907_2021" result="shape"/>
</filter>
<filter id="filter33_d_907_2021" x="181.143" y="240" width="37.7148" height="41" filterUnits="userSpaceOnUse" color-interpolation-filters="sRGB">
<feFlood flood-opacity="0" result="BackgroundImageFix"/>
<feColorMatrix in="SourceAlpha" type="matrix" values="0 0 0 0 0 0 0 0 0 0 0 0 0 0 0 0 0 0 127 0" result="hardAlpha"/>
<feOffset dy="1"/>
<feColorMatrix type="matrix" values="0 0 0 0 0 0 0 0 0 0 0 0 0 0 0 0 0 0 0.27 0"/>
<feBlend mode="normal" in2="BackgroundImageFix" result="effect1_dropShadow_907_2021"/>
<feBlend mode="normal" in="SourceGraphic" in2="effect1_dropShadow_907_2021" result="shape"/>
</filter>
<filter id="filter34_d_907_2021" x="222.857" y="240" width="37.7148" height="41" filterUnits="userSpaceOnUse" color-interpolation-filters="sRGB">
<feFlood flood-opacity="0" result="BackgroundImageFix"/>
<feColorMatrix in="SourceAlpha" type="matrix" values="0 0 0 0 0 0 0 0 0 0 0 0 0 0 0 0 0 0 127 0" result="hardAlpha"/>
<feOffset dy="1"/>
<feColorMatrix type="matrix" values="0 0 0 0 0 0 0 0 0 0 0 0 0 0 0 0 0 0 0.27 0"/>
<feBlend mode="normal" in2="BackgroundImageFix" result="effect1_dropShadow_907_2021"/>
<feBlend mode="normal" in="SourceGraphic" in2="effect1_dropShadow_907_2021" result="shape"/>
</filter>
<filter id="filter35_d_907_2021" x="264.572" y="240" width="37.7148" height="41" filterUnits="userSpaceOnUse" color-interpolation-filters="sRGB">
<feFlood flood-opacity="0" result="BackgroundImageFix"/>
<feColorMatrix in="SourceAlpha" type="matrix" values="0 0 0 0 0 0 0 0 0 0 0 0 0 0 0 0 0 0 127 0" result="hardAlpha"/>
<feOffset dy="1"/>
<feColorMatrix type="matrix" values="0 0 0 0 0 0 0 0 0 0 0 0 0 0 0 0 0 0 0.27 0"/>
<feBlend mode="normal" in2="BackgroundImageFix" result="effect1_dropShadow_907_2021"/>
<feBlend mode="normal" in="SourceGraphic" in2="effect1_dropShadow_907_2021" result="shape"/>
</filter>
<filter id="filter36_d_907_2021" x="306.285" y="240" width="37.7148" height="41" filterUnits="userSpaceOnUse" color-interpolation-filters="sRGB">
<feFlood flood-opacity="0" result="BackgroundImageFix"/>
<feColorMatrix in="SourceAlpha" type="matrix" values="0 0 0 0 0 0 0 0 0 0 0 0 0 0 0 0 0 0 127 0" result="hardAlpha"/>
<feOffset dy="1"/>
<feColorMatrix type="matrix" values="0 0 0 0 0 0 0 0 0 0 0 0 0 0 0 0 0 0 0.27 0"/>
<feBlend mode="normal" in2="BackgroundImageFix" result="effect1_dropShadow_907_2021"/>
<feBlend mode="normal" in="SourceGraphic" in2="effect1_dropShadow_907_2021" result="shape"/>
</filter>
<filter id="filter37_d_907_2021" x="348" y="240" width="48" height="41" filterUnits="userSpaceOnUse" color-interpolation-filters="sRGB">
<feFlood flood-opacity="0" result="BackgroundImageFix"/>
<feColorMatrix in="SourceAlpha" type="matrix" values="0 0 0 0 0 0 0 0 0 0 0 0 0 0 0 0 0 0 127 0" result="hardAlpha"/>
<feOffset dy="1"/>
<feColorMatrix type="matrix" values="0 0 0 0 0 0 0 0 0 0 0 0 0 0 0 0 0 0 0.27 0"/>
<feBlend mode="normal" in2="BackgroundImageFix" result="effect1_dropShadow_907_2021"/>
<feBlend mode="normal" in="SourceGraphic" in2="effect1_dropShadow_907_2021" result="shape"/>
</filter>
<filter id="filter38_d_907_2021" x="4" y="290" width="53" height="41" filterUnits="userSpaceOnUse" color-interpolation-filters="sRGB">
<feFlood flood-opacity="0" result="BackgroundImageFix"/>
<feColorMatrix in="SourceAlpha" type="matrix" values="0 0 0 0 0 0 0 0 0 0 0 0 0 0 0 0 0 0 127 0" result="hardAlpha"/>
<feOffset dy="1"/>
<feColorMatrix type="matrix" values="0 0 0 0 0 0 0 0 0 0 0 0 0 0 0 0 0 0 0.27 0"/>
<feBlend mode="normal" in2="BackgroundImageFix" result="effect1_dropShadow_907_2021"/>
<feBlend mode="normal" in="SourceGraphic" in2="effect1_dropShadow_907_2021" result="shape"/>
</filter>
<filter id="filter39_d_907_2021" x="61" y="290" width="30" height="41" filterUnits="userSpaceOnUse" color-interpolation-filters="sRGB">
<feFlood flood-opacity="0" result="BackgroundImageFix"/>
<feColorMatrix in="SourceAlpha" type="matrix" values="0 0 0 0 0 0 0 0 0 0 0 0 0 0 0 0 0 0 127 0" result="hardAlpha"/>
<feOffset dy="1"/>
<feColorMatrix type="matrix" values="0 0 0 0 0 0 0 0 0 0 0 0 0 0 0 0 0 0 0.27 0"/>
<feBlend mode="normal" in2="BackgroundImageFix" result="effect1_dropShadow_907_2021"/>
<feBlend mode="normal" in="SourceGraphic" in2="effect1_dropShadow_907_2021" result="shape"/>
</filter>
<filter id="filter40_d_907_2021" x="95" y="290" width="30" height="41" filterUnits="userSpaceOnUse" color-interpolation-filters="sRGB">
<feFlood flood-opacity="0" result="BackgroundImageFix"/>
<feColorMatrix in="SourceAlpha" type="matrix" values="0 0 0 0 0 0 0 0 0 0 0 0 0 0 0 0 0 0 127 0" result="hardAlpha"/>
<feOffset dy="1"/>
<feColorMatrix type="matrix" values="0 0 0 0 0 0 0 0 0 0 0 0 0 0 0 0 0 0 0.27 0"/>
<feBlend mode="normal" in2="BackgroundImageFix" result="effect1_dropShadow_907_2021"/>
<feBlend mode="normal" in="SourceGraphic" in2="effect1_dropShadow_907_2021" result="shape"/>
</filter>
<filter id="filter41_d_907_2021" x="129" y="290" width="181" height="41" filterUnits="userSpaceOnUse" color-interpolation-filters="sRGB">
<feFlood flood-opacity="0" result="BackgroundImageFix"/>
<feColorMatrix in="SourceAlpha" type="matrix" values="0 0 0 0 0 0 0 0 0 0 0 0 0 0 0 0 0 0 127 0" result="hardAlpha"/>
<feOffset dy="1"/>
<feColorMatrix type="matrix" values="0 0 0 0 0 0 0 0 0 0 0 0 0 0 0 0 0 0 0.27 0"/>
<feBlend mode="normal" in2="BackgroundImageFix" result="effect1_dropShadow_907_2021"/>
<feBlend mode="normal" in="SourceGraphic" in2="effect1_dropShadow_907_2021" result="shape"/>
</filter>
<filter id="filter42_d_907_2021" x="314" y="290" width="30" height="41" filterUnits="userSpaceOnUse" color-interpolation-filters="sRGB">
<feFlood flood-opacity="0" result="BackgroundImageFix"/>
<feColorMatrix in="SourceAlpha" type="matrix" values="0 0 0 0 0 0 0 0 0 0 0 0 0 0 0 0 0 0 127 0" result="hardAlpha"/>
<feOffset dy="1"/>
<feColorMatrix type="matrix" values="0 0 0 0 0 0 0 0 0 0 0 0 0 0 0 0 0 0 0.27 0"/>
<feBlend mode="normal" in2="BackgroundImageFix" result="effect1_dropShadow_907_2021"/>
<feBlend mode="normal" in="SourceGraphic" in2="effect1_dropShadow_907_2021" result="shape"/>
</filter>
<filter id="filter43_d_907_2021" x="348" y="290" width="48" height="41" filterUnits="userSpaceOnUse" color-interpolation-filters="sRGB">
<feFlood flood-opacity="0" result="BackgroundImageFix"/>
<feColorMatrix in="SourceAlpha" type="matrix" values="0 0 0 0 0 0 0 0 0 0 0 0 0 0 0 0 0 0 127 0" result="hardAlpha"/>
<feOffset dy="1"/>
<feColorMatrix type="matrix" values="0 0 0 0 0 0 0 0 0 0 0 0 0 0 0 0 0 0 0.27 0"/>
<feBlend mode="normal" in2="BackgroundImageFix" result="effect1_dropShadow_907_2021"/>
<feBlend mode="normal" in="SourceGraphic" in2="effect1_dropShadow_907_2021" result="shape"/>
</filter>
</defs>
</svg>
