<svg width="400" height="86" viewBox="0 0 400 86" fill="none" xmlns="http://www.w3.org/2000/svg">
<rect width="400" height="86" fill="white"/>
<rect x="20" width="360" height="56" rx="8" fill="#0077FA"/>
<path d="M141.129 20.8418V22.7051H148.424V20.8418H150.094V27.2051H145.594V28.752H151.958V30.123H137.596V28.752H143.942V27.2051H139.477V20.8418H141.129ZM139.407 35.6602V31.248H141.094V34.3066H150.34V35.6602H139.407ZM141.129 25.8516H148.424V24.0059H141.129V25.8516ZM165.853 20.2617V31.7051H164.184V20.2617H165.853ZM153.109 25.2188C153.118 22.9424 154.929 21.3252 157.31 21.3164C159.684 21.3252 161.494 22.9424 161.494 25.2188C161.494 27.5303 159.684 29.1387 157.31 29.1387C154.929 29.1387 153.118 27.5303 153.109 25.2188ZM154.744 25.2188C154.735 26.7041 155.843 27.6797 157.31 27.6797C158.752 27.6797 159.859 26.7041 159.859 25.2188C159.859 23.7686 158.752 22.7754 157.31 22.7754C155.843 22.7754 154.735 23.7686 154.744 25.2188ZM155.553 35.6602V30.5449H157.24V34.3066H166.328V35.6602H155.553ZM181.05 20.2617V31.7051H179.38V20.2617H181.05ZM168.306 25.2188C168.315 22.9424 170.125 21.3252 172.507 21.3164C174.88 21.3252 176.691 22.9424 176.691 25.2188C176.691 27.5303 174.88 29.1387 172.507 29.1387C170.125 29.1387 168.315 27.5303 168.306 25.2188ZM169.941 25.2188C169.932 26.7041 171.039 27.6797 172.507 27.6797C173.949 27.6797 175.056 26.7041 175.056 25.2188C175.056 23.7686 173.949 22.7754 172.507 22.7754C171.039 22.7754 169.932 23.7686 169.941 25.2188ZM170.749 35.6602V30.5449H172.437V34.3066H181.525V35.6602H170.749ZM197.547 27.6621V29.0156H183.186V27.6621H197.547ZM183.942 25.5176C186.798 25.21 189.057 23.9268 189.242 22.3887H184.505V21.0176H196.264V22.3887H191.474C191.668 23.918 193.891 25.21 196.809 25.5176L196.212 26.8359C193.478 26.5195 191.219 25.3682 190.367 23.707C189.497 25.3682 187.256 26.5195 184.522 26.8359L183.942 25.5176ZM184.891 33.1113C184.891 31.2832 186.939 30.2285 190.358 30.2285C193.751 30.2285 195.781 31.2832 195.79 33.1113C195.781 34.9395 193.751 35.9678 190.358 35.959C186.939 35.9678 184.891 34.9395 184.891 33.1113ZM186.579 33.1113C186.57 34.1045 187.95 34.6494 190.358 34.6406C192.731 34.6494 194.12 34.1045 194.12 33.1113C194.12 32.0918 192.731 31.5469 190.358 31.5293C187.95 31.5469 186.57 32.0918 186.579 33.1113ZM208.201 24.252C208.183 27.126 209.923 30.0264 212.367 31.1074L211.365 32.4258C209.554 31.5645 208.121 29.7979 207.383 27.6445C206.654 29.9561 205.203 31.8545 203.314 32.7773L202.294 31.3711C204.773 30.2725 206.513 27.2578 206.513 24.252V21.5625H208.201V24.252ZM213.79 36.0293V20.2441H215.46V36.0293H213.79ZM223.116 23.0742C223.107 25.0869 224.505 26.9941 226.913 27.8027L226.069 29.1035C224.285 28.4883 222.975 27.2578 222.29 25.7109C221.604 27.4072 220.233 28.752 218.387 29.4023L217.491 28.1016C219.952 27.2666 221.437 25.2275 221.446 23.0566V22.6348H217.983V21.2812H226.509V22.6348H223.116V23.0742ZM219.583 31.8633V30.5098H229.989V35.9941H228.319V31.8633H219.583ZM228.319 29.7363V20.2441H229.989V24.2871H232.274V25.6934H229.989V29.7363H228.319ZM245.08 20.2441V26.625H247.611V28.0137H245.08V35.9941H243.428V20.2441H245.08ZM232.723 24.0762V22.7051H236.607V20.4551H238.277V22.7051H242.057V24.0762H232.723ZM233.531 28.8926C233.531 26.748 235.184 25.2363 237.451 25.2363C239.71 25.2363 241.362 26.748 241.371 28.8926C241.362 31.0547 239.71 32.5576 237.451 32.5664C235.184 32.5576 233.531 31.0547 233.531 28.8926ZM235.131 28.8926C235.122 30.2637 236.107 31.1777 237.451 31.1602C238.787 31.1777 239.763 30.2637 239.772 28.8926C239.763 27.5479 238.787 26.6162 237.451 26.6074C236.107 26.6162 235.122 27.5479 235.131 28.8926ZM261.103 20.2441V35.9941H259.415V20.2441H261.103ZM248.165 31.7754C252.349 29.7803 254.397 26.9414 254.722 23.2676H248.921V21.9316H256.41C256.41 26.5459 254.45 30.5361 249.044 33.1289L248.165 31.7754Z" fill="white"/>
</svg>
