<svg width="400" height="86" viewBox="0 0 400 86" fill="none" xmlns="http://www.w3.org/2000/svg">
<rect width="400" height="86" fill="white"/>
<rect x="20" width="360" height="56" rx="8" fill="#0077FA"/>
<path d="M197.596 20.2617V24.9375H199.846V26.3086H197.596V30.8613H195.926V20.2617H197.596ZM185.098 29.1035C186.32 29.1035 187.735 29.1035 189.211 29.0684V28.0049C187.418 27.8027 186.276 26.959 186.293 25.6934C186.276 24.252 187.779 23.3555 190.037 23.373C192.296 23.3555 193.773 24.252 193.782 25.6934C193.773 26.9502 192.657 27.7939 190.881 28.0049V29.0068C192.287 28.9365 193.711 28.8223 195.03 28.6289L195.17 29.8242C191.786 30.4131 188.051 30.4395 185.274 30.4395L185.098 29.1035ZM185.502 22.8457V21.5977H189.211V20.1211H190.881V21.5977H194.59V22.8457H185.502ZM187.067 32.9004V31.5996H197.596V35.9941H195.926V32.9004H187.067ZM187.875 25.6934C187.875 26.4316 188.693 26.915 190.037 26.9062C191.365 26.915 192.191 26.4316 192.182 25.6934C192.191 24.9375 191.365 24.498 190.037 24.5156C188.693 24.498 187.875 24.9375 187.875 25.6934ZM213.461 20.2617V31.7051H211.791V20.2617H213.461ZM200.716 25.2188C200.725 22.9424 202.536 21.3252 204.918 21.3164C207.291 21.3252 209.101 22.9424 209.101 25.2188C209.101 27.5303 207.291 29.1387 204.918 29.1387C202.536 29.1387 200.725 27.5303 200.716 25.2188ZM202.351 25.2188C202.342 26.7041 203.45 27.6797 204.918 27.6797C206.359 27.6797 207.466 26.7041 207.466 25.2188C207.466 23.7686 206.359 22.7754 204.918 22.7754C203.45 22.7754 202.342 23.7686 202.351 25.2188ZM203.16 35.6602V30.5449H204.847V34.3066H213.935V35.6602H203.16Z" fill="white"/>
</svg>
