<svg width="400" height="727" viewBox="0 0 400 727" fill="none" xmlns="http://www.w3.org/2000/svg">
<rect width="400" height="727" fill="white"/>
<path d="M106.63 99.5596V101.713H89.5474V99.5596H96.7456V95.7451H91.3521V86.5986H104.723V95.7451H99.3501V99.5596H106.63ZM93.9361 88.6904V93.6943H102.139V88.6904H93.9361ZM122.001 85.2246V92.1973H124.749V94.3916H122.001V103.887H119.376V85.2246H122.001ZM110.476 86.7012V91.2539H114.352V86.7012H116.956V99.5596H107.872V86.7012H110.476ZM110.476 97.4473H114.352V93.2842H110.476V97.4473ZM130.318 85.7783C133.148 85.7783 135.301 87.542 135.301 90.0439C135.301 92.5049 133.148 94.2891 130.318 94.2891C127.426 94.2891 125.293 92.5049 125.293 90.0439C125.293 87.542 127.426 85.7783 130.318 85.7783ZM130.318 87.9111C128.882 87.9111 127.816 88.6904 127.836 90.0439C127.816 91.377 128.882 92.1768 130.318 92.1768C131.733 92.1768 132.779 91.377 132.779 90.0439C132.779 88.6904 131.733 87.9111 130.318 87.9111ZM140.633 85.2246V94.5762H138.008V85.2246H140.633ZM140.633 95.3555V100.421H130.707V101.631H141.146V103.682H128.144V98.5137H138.029V97.3652H128.103V95.3555H140.633ZM162.782 85.2451V98.8623H160.157V85.2451H162.782ZM163.275 101.467V103.559H150.273V97.5498H152.918V101.467H163.275ZM154.313 88.0752C154.292 90.5361 155.605 92.9561 158.681 93.9404L157.348 95.9912C155.246 95.2939 153.79 93.8994 152.959 92.1152C152.129 94.0327 150.632 95.5708 148.447 96.3193L147.094 94.248C150.232 93.2021 151.585 90.5977 151.585 88.0752V86.2705H154.313V88.0752ZM181.947 94.8018V96.8525H174.913V99.8672H172.329V96.8525H164.864V94.8018H181.947ZM180.061 101.467V103.559H166.874V98.3906H169.458V101.467H180.061ZM169.643 85.8193V87.7676H177.128V85.8193H179.733V93.4893H167.059V85.8193H169.643ZM169.643 91.418H177.128V89.7158H169.643V91.418ZM199.636 93.8174V95.9297H182.614V93.8174H199.636ZM191.105 96.9756C195.145 96.9756 197.585 98.2471 197.606 100.441C197.585 102.656 195.145 103.887 191.105 103.887C187.023 103.887 184.563 102.656 184.563 100.441C184.563 98.2471 187.023 96.9756 191.105 96.9756ZM191.105 99.0059C188.521 99.0059 187.208 99.457 187.229 100.441C187.208 101.405 188.521 101.856 191.105 101.856C193.627 101.856 194.96 101.405 194.981 100.441C194.96 99.457 193.627 99.0059 191.105 99.0059ZM198.098 86.0859V88.1777H193.012C193.432 89.48 195.329 90.772 198.918 91.0898L197.995 93.1406C194.478 92.8022 192.099 91.4692 191.105 89.6543C190.12 91.4692 187.782 92.8022 184.234 93.1406L183.373 91.0898C186.88 90.772 188.797 89.4902 189.238 88.1777H184.173V86.0859H198.098ZM208.854 85.4912C213.141 85.4912 215.622 86.6191 215.643 88.6699C215.622 90.7412 213.141 91.8691 208.854 91.8691C204.548 91.8691 202.046 90.7412 202.046 88.6699C202.046 86.6191 204.548 85.4912 208.854 85.4912ZM208.854 87.3984C206.106 87.3984 204.773 87.8496 204.794 88.6699C204.773 89.5928 206.106 89.9414 208.854 89.9414C211.623 89.9414 212.936 89.5928 212.936 88.6699C212.936 87.8496 211.623 87.3984 208.854 87.3984ZM217.365 92.751V94.8223H200.344V92.751H217.365ZM215.294 95.9092V100.667H204.896V101.795H215.786V103.764H202.333V98.8418H212.71V97.8164H202.312V95.9092H215.294ZM238.12 85.2246V103.928H235.474V85.2246H238.12ZM227.989 86.5371C230.799 86.5371 232.89 89.1211 232.89 93.1816C232.89 97.2832 230.799 99.8467 227.989 99.8467C225.118 99.8467 223.026 97.2832 223.047 93.1816C223.026 89.1211 225.118 86.5371 227.989 86.5371ZM227.989 88.8955C226.533 88.8955 225.569 90.4131 225.569 93.1816C225.569 95.9707 226.533 97.4678 227.989 97.4678C229.404 97.4678 230.368 95.9707 230.368 93.1816C230.368 90.4131 229.404 88.8955 227.989 88.8955ZM257.244 94.0635V96.1553H240.222V94.0635H244.057V91.8281C242.694 91.2231 241.925 90.3003 241.925 89.1006C241.925 86.8447 244.57 85.4912 248.733 85.4912C252.855 85.4912 255.501 86.8447 255.521 89.1006C255.511 90.3105 254.711 91.2539 253.327 91.8486V94.0635H257.244ZM248.713 97.1396C252.753 97.1396 255.193 98.3291 255.214 100.482C255.193 102.677 252.753 103.866 248.713 103.866C244.611 103.866 242.171 102.677 242.171 100.482C242.171 98.3291 244.611 97.1396 248.713 97.1396ZM248.713 99.1084C246.129 99.1084 244.816 99.5596 244.837 100.482C244.816 101.446 246.129 101.918 248.713 101.918C251.235 101.918 252.568 101.446 252.589 100.482C252.568 99.5596 251.235 99.1084 248.713 99.1084ZM248.733 87.501C246.088 87.501 244.632 88.0547 244.652 89.1006C244.632 90.126 246.088 90.6387 248.733 90.6387C251.338 90.6387 252.814 90.126 252.814 89.1006C252.814 88.0547 251.338 87.501 248.733 87.501ZM246.703 94.0635H250.722V92.5049C250.107 92.5767 249.441 92.6074 248.733 92.6074C248.005 92.6074 247.328 92.5767 246.703 92.4844V94.0635ZM272.676 85.2246V92.5254H275.424V94.6787H272.676V103.887H270.092V85.2246H272.676ZM268.821 88.0137V90.1055H257.849V88.0137H262.074V85.5117H264.699V88.0137H268.821ZM263.386 91.1514C266.114 91.1514 268.144 92.9971 268.144 95.6016C268.144 98.2061 266.114 100.052 263.386 100.052C260.638 100.052 258.608 98.2061 258.608 95.6016C258.608 92.9971 260.638 91.1514 263.386 91.1514ZM263.386 93.2637C262.074 93.2842 261.11 94.166 261.11 95.6016C261.11 97.0576 262.074 97.9189 263.386 97.8984C264.699 97.9189 265.642 97.0576 265.642 95.6016C265.642 94.166 264.699 93.2842 263.386 93.2637ZM291.411 85.2246V103.928H288.806V96.4014H285.607V94.248H288.806V91.3154H285.669V89.1826H288.806V85.2246H291.411ZM284.684 86.7832V93.9609H278.942V97.5908C281.249 97.5806 283.3 97.4678 285.648 97.1191L285.853 99.252C283.064 99.7031 280.685 99.7441 277.814 99.7441H276.337V91.9307H282.121V88.8545H276.296V86.7832H284.684ZM303.049 86.7422V88.1572H306.536V85.2451H309.14V98.8213H306.536V94.248H303.049V95.8271H294.19V86.7422H303.049ZM296.794 88.8135V93.7969H300.486V88.8135H296.794ZM309.53 101.467V103.559H296.712V97.5293H299.358V101.467H309.53ZM303.049 92.1768H306.536V90.2695H303.049V92.1768ZM96.4327 115.742V119.167H99.919V114.245H102.523V127.821H99.919V121.238H96.4327V124.725H87.5733V115.742H96.4327ZM90.1778 117.813V122.674H93.8692V117.813H90.1778ZM102.975 130.467V132.559H90.1368V126.529H92.7618V130.467H102.975ZM120.294 114.225V132.928H117.669V122.858H114.326V120.726H117.669V114.225H120.294ZM111.578 118.9C111.578 122.182 113.075 125.606 116.233 126.96L114.695 129.031C112.532 128.016 111.065 126.058 110.266 123.679C109.456 126.222 107.969 128.344 105.795 129.421L104.236 127.35C107.374 125.914 108.892 122.366 108.892 118.9V118.121H105.016V116.029H115.454V118.121H111.578V118.9ZM131.43 114.901V116.768H138.916V114.901H141.52V122.53H136.475V124.109H143.694V126.201H126.673V124.109H133.85V122.53H128.847V114.901H131.43ZM131.43 120.438H138.916V118.777H131.43V120.438ZM141.766 130.467V132.559H128.723V127.268H131.348V130.467H141.766ZM160.029 114.245V127.657H157.404V114.245H160.029ZM160.521 130.467V132.559H147.519V126.304H150.165V130.467H160.521ZM149.796 115.435C152.667 115.435 154.902 117.403 154.902 120.131C154.902 122.92 152.667 124.868 149.796 124.868C146.925 124.868 144.689 122.92 144.689 120.131C144.689 117.403 146.925 115.435 149.796 115.435ZM149.796 117.711C148.34 117.69 147.232 118.613 147.253 120.131C147.232 121.689 148.34 122.592 149.796 122.592C151.211 122.592 152.318 121.689 152.318 120.131C152.318 118.613 151.211 117.69 149.796 117.711ZM177.758 114.245V127.657H175.133V114.245H177.758ZM178.251 130.467V132.559H165.249V126.304H167.894V130.467H178.251ZM167.525 115.435C170.396 115.435 172.632 117.403 172.632 120.131C172.632 122.92 170.396 124.868 167.525 124.868C164.654 124.868 162.419 122.92 162.419 120.131C162.419 117.403 164.654 115.435 167.525 115.435ZM167.525 117.711C166.069 117.69 164.962 118.613 164.982 120.131C164.962 121.689 166.069 122.592 167.525 122.592C168.94 122.592 170.048 121.689 170.048 120.131C170.048 118.613 168.94 117.69 167.525 117.711ZM196.882 122.817V124.93H179.861V122.817H196.882ZM188.351 125.976C192.391 125.976 194.832 127.247 194.852 129.441C194.832 131.656 192.391 132.887 188.351 132.887C184.27 132.887 181.809 131.656 181.809 129.441C181.809 127.247 184.27 125.976 188.351 125.976ZM188.351 128.006C185.767 128.006 184.455 128.457 184.475 129.441C184.455 130.405 185.767 130.856 188.351 130.856C190.874 130.856 192.207 130.405 192.227 129.441C192.207 128.457 190.874 128.006 188.351 128.006ZM195.344 115.086V117.178H190.258C190.679 118.48 192.576 119.772 196.165 120.09L195.242 122.141C191.725 121.802 189.346 120.469 188.351 118.654C187.367 120.469 185.029 121.802 181.481 122.141L180.62 120.09C184.127 119.772 186.044 118.49 186.485 117.178H181.42V115.086H195.344ZM206.101 114.491C210.387 114.491 212.869 115.619 212.889 117.67C212.869 119.741 210.387 120.869 206.101 120.869C201.794 120.869 199.292 119.741 199.292 117.67C199.292 115.619 201.794 114.491 206.101 114.491ZM206.101 116.398C203.353 116.398 202.02 116.85 202.041 117.67C202.02 118.593 203.353 118.941 206.101 118.941C208.87 118.941 210.182 118.593 210.182 117.67C210.182 116.85 208.87 116.398 206.101 116.398ZM214.612 121.751V123.822H197.59V121.751H214.612ZM212.541 124.909V129.667H202.143V130.795H213.033V132.764H199.58V127.842H209.957V126.816H199.559V124.909H212.541ZM228.743 117.075V119.146H219.719V117.075H222.959V114.737H225.543V117.075H228.743ZM224.272 119.987C226.651 119.987 228.353 121.833 228.373 124.417C228.353 127.021 226.651 128.867 224.272 128.867C221.893 128.867 220.15 127.021 220.15 124.417C220.15 121.833 221.893 119.987 224.272 119.987ZM224.272 122.161C223.185 122.161 222.447 123.002 222.447 124.417C222.447 125.832 223.185 126.652 224.272 126.652C225.318 126.652 226.056 125.832 226.077 124.417C226.056 123.002 225.318 122.161 224.272 122.161ZM235.879 114.225V132.887H233.398V123.904H231.88V132.087H229.44V114.594H231.88V121.812H233.398V114.225H235.879ZM242.493 115.537C245.344 115.537 247.395 118.121 247.415 122.182C247.395 126.283 245.344 128.847 242.493 128.847C239.643 128.847 237.551 126.283 237.572 122.182C237.551 118.121 239.643 115.537 242.493 115.537ZM242.493 117.896C241.058 117.896 240.094 119.413 240.094 122.182C240.094 124.971 241.058 126.468 242.493 126.468C243.949 126.468 244.893 124.971 244.913 122.182C244.893 119.413 243.949 117.896 242.493 117.896ZM254.839 118.552V120.746H252.194V124.068H254.839V126.201H252.194V132.887H249.569V114.225H252.194V118.552H254.839ZM270.005 114.225V118.716H272.528V120.89H270.005V125.155H267.38V114.225H270.005ZM260.387 125.873V127.288H267.38V125.873H270.005V132.682H257.782V125.873H260.387ZM260.387 130.631H267.38V129.298H260.387V130.631ZM266.273 115.865V117.916H255.198V115.865H259.444V114.102H262.048V115.865H266.273ZM260.736 118.449C263.443 118.449 265.329 119.762 265.329 121.751C265.329 123.74 263.443 125.053 260.736 125.053C257.987 125.053 256.101 123.74 256.101 121.751C256.101 119.762 257.987 118.449 260.736 118.449ZM260.736 120.377C259.485 120.356 258.644 120.869 258.664 121.751C258.644 122.653 259.485 123.146 260.736 123.146C261.987 123.146 262.848 122.653 262.848 121.751C262.848 120.869 261.987 120.356 260.736 120.377ZM288.616 114.225V132.887H286.012V114.225H288.616ZM276.517 116.009V126.037C279.039 126.006 281.746 125.771 284.494 125.237L284.822 127.391C281.541 128.067 278.465 128.293 275.573 128.272H273.933V116.009H276.517ZM305.382 114.225V121.156H308.13V123.289H305.382V132.928H302.757V114.225H305.382ZM300.152 115.947V118.06H294V126.242C296.707 126.211 298.942 126.088 301.424 125.647L301.711 127.842C298.819 128.334 296.276 128.416 292.975 128.396H291.396V115.947H300.152ZM310.807 131.185C309.843 131.185 309.063 130.405 309.084 129.462C309.063 128.519 309.843 127.76 310.807 127.76C311.709 127.76 312.509 128.519 312.509 129.462C312.509 130.405 311.709 131.185 310.807 131.185Z" fill="#111827"/>
<path d="M92.2461 152.618V154.171H98.3252V152.618H99.7168V157.921H95.9668V159.21H101.27V160.353H89.3018V159.21H94.5898V157.921H90.8691V152.618H92.2461ZM92.2461 156.793H98.3252V155.255H92.2461V156.793ZM99.9219 163.839V164.967H90.8105V161.29H92.2168V163.839H99.9219ZM113.149 152.135V161.671H111.758V152.135H113.149ZM113.545 163.839V164.967H104.565V160.704H105.972V163.839H113.545ZM106.03 153.014C108.008 153.014 109.517 154.361 109.517 156.266C109.517 158.199 108.008 159.532 106.03 159.532C104.053 159.532 102.529 158.199 102.529 156.266C102.529 154.361 104.053 153.014 106.03 153.014ZM106.03 154.229C104.8 154.229 103.892 155.064 103.892 156.266C103.892 157.496 104.8 158.316 106.03 158.316C107.231 158.316 108.154 157.496 108.154 156.266C108.154 155.064 107.231 154.229 106.03 154.229ZM126.113 152.135V161.671H124.722V152.135H126.113ZM126.509 163.839V164.967H117.529V160.704H118.936V163.839H126.509ZM118.994 153.014C120.972 153.014 122.48 154.361 122.48 156.266C122.48 158.199 120.972 159.532 118.994 159.532C117.017 159.532 115.493 158.199 115.493 156.266C115.493 154.361 117.017 153.014 118.994 153.014ZM118.994 154.229C117.764 154.229 116.855 155.064 116.855 156.266C116.855 157.496 117.764 158.316 118.994 158.316C120.195 158.316 121.118 157.496 121.118 156.266C121.118 155.064 120.195 154.229 118.994 154.229ZM140.161 158.302V159.43H128.193V158.302H140.161ZM134.17 160.44C136.997 160.44 138.696 161.319 138.696 162.843C138.696 164.366 136.997 165.23 134.17 165.216C131.328 165.23 129.614 164.366 129.614 162.843C129.614 161.319 131.328 160.44 134.17 160.44ZM134.17 161.524C132.163 161.539 131.021 161.993 131.021 162.843C131.021 163.678 132.163 164.117 134.17 164.117C136.147 164.117 137.305 163.678 137.305 162.843C137.305 161.993 136.147 161.539 134.17 161.524ZM139.092 152.765V153.907H135.107C135.261 155.182 137.122 156.266 139.546 156.515L139.048 157.613C136.777 157.35 134.895 156.39 134.185 155.006C133.452 156.39 131.577 157.35 129.307 157.613L128.823 156.515C131.204 156.266 133.079 155.189 133.247 153.907H129.292V152.765H139.092ZM148.467 153.526V154.332C148.467 155.431 148.467 157.13 148.086 159.474L146.709 159.371C147.039 157.269 147.075 155.753 147.09 154.654H141.758V153.526H148.467ZM145.098 157.276V161.202C146.497 161.158 147.917 161.063 149.229 160.895L149.302 161.935C146.562 162.374 143.516 162.433 141.187 162.418L141.025 161.29C141.846 161.283 142.761 161.275 143.721 161.246V157.276H145.098ZM151.382 152.12V157.54H153.389V158.727H151.382V165.245H149.976V152.12H151.382ZM168.667 152.135V161.671H167.275V152.135H168.667ZM169.062 163.839V164.967H160.083V160.704H161.489V163.839H169.062ZM161.548 153.014C163.525 153.014 165.034 154.361 165.034 156.266C165.034 158.199 163.525 159.532 161.548 159.532C159.57 159.532 158.047 158.199 158.047 156.266C158.047 154.361 159.57 153.014 161.548 153.014ZM161.548 154.229C160.317 154.229 159.409 155.064 159.409 156.266C159.409 157.496 160.317 158.316 161.548 158.316C162.749 158.316 163.672 157.496 163.672 156.266C163.672 155.064 162.749 154.229 161.548 154.229ZM182.715 158.302V159.43H170.747V158.302H182.715ZM176.724 160.44C179.551 160.44 181.25 161.319 181.25 162.843C181.25 164.366 179.551 165.23 176.724 165.216C173.882 165.23 172.168 164.366 172.168 162.843C172.168 161.319 173.882 160.44 176.724 160.44ZM176.724 161.524C174.717 161.539 173.574 161.993 173.574 162.843C173.574 163.678 174.717 164.117 176.724 164.117C178.701 164.117 179.858 163.678 179.858 162.843C179.858 161.993 178.701 161.539 176.724 161.524ZM181.646 152.765V153.907H177.661C177.815 155.182 179.675 156.266 182.1 156.515L181.602 157.613C179.331 157.35 177.449 156.39 176.738 155.006C176.006 156.39 174.131 157.35 171.86 157.613L171.377 156.515C173.757 156.266 175.632 155.189 175.801 153.907H171.846V152.765H181.646ZM190.435 153.277C190.42 155.021 192.559 156.661 195.137 156.998L194.595 158.141C192.449 157.796 190.559 156.683 189.717 155.138C188.853 156.69 186.97 157.796 184.839 158.141L184.282 156.998C186.86 156.661 188.97 155.035 188.984 153.277V152.56H190.435V153.277ZM195.679 159.43V160.572H190.347V165.245H188.984V160.572H183.711V159.43H195.679ZM206.987 152.105V155.914H208.906V157.071H206.987V161.612H205.596V152.105H206.987ZM203.12 153.233V154.361H198.638V158.185C201.194 158.192 202.637 158.111 204.277 157.774L204.438 158.902C202.666 159.254 201.113 159.342 198.301 159.342H197.261V153.233H203.12ZM207.544 163.839V164.967H198.667V160.631H200.059V163.839H207.544ZM225.283 158.287V159.43H213.301V158.287H225.283ZM223.892 156.017V157.145H214.795V152.589H223.804V153.731H216.172V156.017H223.892ZM219.277 160.455C222.104 160.455 223.804 161.319 223.804 162.843C223.804 164.366 222.104 165.23 219.277 165.216C216.436 165.23 214.722 164.366 214.722 162.843C214.722 161.319 216.436 160.455 219.277 160.455ZM219.277 161.524C217.271 161.539 216.128 162.008 216.128 162.843C216.128 163.678 217.271 164.146 219.277 164.146C221.255 164.146 222.412 163.678 222.412 162.843C222.412 162.008 221.255 161.539 219.277 161.524ZM238.262 159.283V160.411H226.25V159.283H231.567V158.038H227.788V154.698H235.361V153.526H227.759V152.428H236.753V155.724H229.165V156.954H237.017V158.038H232.944V159.283H238.262ZM236.826 161.334V165.143H235.42V162.447H227.598V161.334H236.826ZM245.205 152.34C248.164 152.34 249.893 153.131 249.893 154.596C249.893 156.061 248.164 156.866 245.205 156.866C242.246 156.866 240.518 156.061 240.518 154.596C240.518 153.131 242.246 152.34 245.205 152.34ZM245.205 153.365C243.11 153.365 241.953 153.819 241.968 154.596C241.953 155.401 243.11 155.826 245.205 155.826C247.3 155.826 248.457 155.401 248.457 154.596C248.457 153.819 247.3 153.365 245.205 153.365ZM251.196 157.672V158.785H239.229V157.672H251.196ZM249.688 159.796V162.872H242.041V164.044H250.054V165.113H240.679V161.861H248.311V160.836H240.664V159.796H249.688ZM262.344 154.288V155.416H255.825V154.288H258.403V152.501H259.78V154.288H262.344ZM259.092 156.207C260.762 156.207 261.934 157.452 261.948 159.225C261.934 161.012 260.762 162.271 259.092 162.271C257.451 162.271 256.235 161.012 256.25 159.225C256.235 157.452 257.451 156.207 259.092 156.207ZM259.092 157.364C258.14 157.364 257.48 158.141 257.48 159.225C257.48 160.338 258.14 161.085 259.092 161.085C260.029 161.085 260.718 160.338 260.718 159.225C260.718 158.141 260.029 157.364 259.092 157.364ZM267.09 152.12V165.245H265.771V158.727H264.263V164.63H262.944V152.413H264.263V157.584H265.771V152.12H267.09ZM280.786 159.518V160.646H275.454V165.23H274.092V160.646H268.818V159.518H280.786ZM279.658 152.896V154.01H275.601C275.623 155.636 277.644 157.086 280.127 157.423L279.614 158.521C277.461 158.185 275.601 157.123 274.81 155.621C273.997 157.123 272.144 158.185 270.02 158.521L269.492 157.423C271.946 157.086 273.967 155.636 274.019 154.01H269.932V152.896H279.658ZM285.781 155.709C285.781 157.804 286.66 160.045 288.418 161.114L287.642 162.184C286.411 161.444 285.576 160.133 285.137 158.609C284.646 160.279 283.745 161.7 282.471 162.477L281.606 161.437C283.467 160.323 284.434 158.009 284.434 155.768V153.321H285.781V155.709ZM293.076 152.12V165.245H291.743V152.12H293.076ZM290.352 152.369V164.601H289.033V157.892H286.997V156.734H289.033V152.369H290.352ZM306.758 162.447V163.604H294.746V162.447H297.617V159.02C296.541 158.426 295.889 157.481 295.889 156.31C295.889 154.244 297.91 152.882 300.723 152.882C303.55 152.882 305.571 154.244 305.571 156.31C305.571 157.467 304.941 158.397 303.887 158.99V162.447H306.758ZM300.723 153.995C298.657 153.995 297.236 154.889 297.236 156.31C297.236 157.716 298.657 158.639 300.723 158.639C302.773 158.639 304.224 157.716 304.224 156.31C304.224 154.889 302.773 153.995 300.723 153.995ZM298.994 162.447H302.48V159.518C301.946 159.657 301.353 159.723 300.723 159.723C300.107 159.723 299.521 159.657 298.994 159.532V162.447ZM309.204 164.103C308.633 164.103 308.149 163.634 308.164 163.062C308.149 162.491 308.633 162.022 309.204 162.022C309.761 162.022 310.244 162.491 310.244 163.062C310.244 163.634 309.761 164.103 309.204 164.103Z" fill="#6B7280"/>
<g clip-path="url(#clip0_904_6994)">
<path d="M194.632 374.873C239.453 374.873 275.788 338.713 275.788 294.108C275.788 249.503 239.453 213.344 194.632 213.344C149.811 213.344 113.477 249.503 113.477 294.108C113.477 338.713 149.811 374.873 194.632 374.873Z" fill="url(#paint0_linear_904_6994)"/>
<path d="M157.248 323.021L198.391 344.172L190.931 374.999C190.931 374.999 179.032 374.992 163.565 368.962C148.097 362.932 138.502 352.434 138.502 352.434L157.248 323.021Z" fill="white"/>
<path d="M110.835 260.975C110.835 260.975 110.368 261.369 109.566 262.086" stroke="#D5DCE5" stroke-width="3" stroke-linecap="round" stroke-linejoin="round"/>
<path d="M107.113 264.348C95.1402 275.67 61.9072 311.39 124.28 307.002C186.75 302.609 212.479 292.629 246.561 287.377C279.135 282.357 292.515 284.051 282.403 304.565" stroke="#D5DCE5" stroke-linecap="round" stroke-linejoin="round" stroke-dasharray="3 3"/>
<path d="M281.644 306.053C281.39 306.538 281.123 307.032 280.846 307.538" stroke="#D5DCE5" stroke-width="3" stroke-linecap="round" stroke-linejoin="round"/>
<path d="M223.834 336.099L216.225 337.369L199.13 339.931L184.805 342.113C175.826 343.406 165.93 343.022 160.778 336.409C153.531 327.137 148.47 314.727 152.056 301.215C154.221 293.044 156.342 283.391 158.653 281.57L156.63 264.772C156.004 259.597 159.712 254.924 164.912 254.301C170.088 253.679 174.761 257.345 175.41 262.449C175.532 263.409 178.276 269.567 178.276 276.035C178.276 279.411 176.327 288.398 176.327 288.398L205.29 282.96L212.899 281.691" fill="#FAB9AC"/>
<path d="M258.312 243.083C258.301 242.861 258.288 242.642 258.257 242.43C258.257 242.426 258.257 242.42 258.257 242.416C258.257 242.399 258.251 242.379 258.247 242.362C258.224 242.197 258.193 242.036 258.159 241.877C258.153 241.854 258.153 241.827 258.146 241.803C258.139 241.776 258.129 241.753 258.122 241.726C258.092 241.601 258.058 241.48 258.017 241.359C258.007 241.329 258 241.295 257.99 241.265C257.987 241.251 257.98 241.241 257.977 241.228C257.923 241.076 257.868 240.925 257.804 240.78C257.804 240.78 257.804 240.777 257.804 240.773C257.797 240.76 257.791 240.746 257.784 240.733C257.726 240.605 257.665 240.48 257.601 240.356C257.598 240.346 257.591 240.332 257.584 240.322C257.567 240.292 257.547 240.261 257.53 240.231C257.479 240.14 257.425 240.053 257.371 239.965C257.358 239.945 257.347 239.925 257.334 239.904C257.317 239.878 257.293 239.851 257.273 239.824C257.219 239.746 257.161 239.669 257.104 239.591C257.084 239.568 257.067 239.537 257.046 239.514C257.009 239.467 256.972 239.423 256.935 239.376C255.463 237.666 253.991 235.952 252.52 234.241C251.407 232.945 249.668 232.164 247.469 232.164H203.162C198.142 232.164 192.641 236.238 190.871 241.265L153.247 348.23C152.147 351.355 152.753 354.109 154.57 355.748C154.397 355.593 154.235 355.432 154.086 355.257C155.558 356.97 157.029 358.681 158.501 360.391C159.617 361.687 161.356 362.465 163.549 362.465H207.855C208.132 362.465 208.413 362.448 208.697 362.425C208.765 362.418 208.833 362.411 208.9 362.405C209.181 362.374 209.458 362.337 209.736 362.283C209.76 362.28 209.783 362.273 209.807 362.267C209.983 362.233 210.159 362.196 210.335 362.152C210.392 362.139 210.446 362.118 210.5 362.102C210.703 362.048 210.903 361.987 211.103 361.923C211.197 361.893 211.289 361.873 211.383 361.842C211.431 361.825 211.475 361.805 211.522 361.788C211.647 361.745 211.766 361.698 211.891 361.647C211.999 361.603 212.111 361.566 212.219 361.519C212.29 361.489 212.361 361.455 212.429 361.421C212.527 361.378 212.625 361.334 212.723 361.287C212.798 361.253 212.869 361.223 212.943 361.186C213.078 361.118 213.214 361.044 213.349 360.974C213.41 360.94 213.471 360.91 213.532 360.879C213.555 360.866 213.579 360.856 213.599 360.842C213.806 360.728 214.009 360.607 214.212 360.482C214.246 360.462 214.276 360.438 214.307 360.418C214.367 360.381 214.425 360.341 214.482 360.304C214.587 360.236 214.689 360.172 214.79 360.102C214.899 360.028 215 359.95 215.105 359.873C215.163 359.832 215.217 359.795 215.271 359.751C215.294 359.735 215.322 359.718 215.345 359.698C215.528 359.56 215.707 359.418 215.883 359.273C215.917 359.246 215.947 359.22 215.978 359.193C216.029 359.149 216.079 359.105 216.13 359.058C216.225 358.977 216.32 358.896 216.411 358.815C216.509 358.728 216.6 358.634 216.698 358.543C216.749 358.492 216.8 358.445 216.851 358.398C216.878 358.371 216.908 358.344 216.932 358.321C217.111 358.142 217.287 357.96 217.456 357.772C217.47 357.758 217.48 357.741 217.494 357.728C217.541 357.674 217.588 357.62 217.632 357.563C217.751 357.425 217.872 357.29 217.987 357.149C218.025 357.105 218.055 357.058 218.089 357.014C218.174 356.906 218.255 356.799 218.333 356.691C218.4 356.6 218.475 356.509 218.542 356.415C218.58 356.364 218.607 356.307 218.644 356.257C218.769 356.075 218.887 355.886 219.002 355.698C219.053 355.614 219.114 355.533 219.165 355.449C219.199 355.388 219.232 355.327 219.266 355.27C219.293 355.22 219.324 355.169 219.351 355.115C219.493 354.859 219.625 354.6 219.747 354.334C219.767 354.29 219.784 354.25 219.804 354.206C219.929 353.927 220.044 353.644 220.146 353.358L257.77 246.392C257.838 246.204 257.895 246.015 257.95 245.83C257.967 245.773 257.98 245.716 257.997 245.655C258.034 245.527 258.065 245.403 258.095 245.275C258.112 245.207 258.122 245.137 258.139 245.069C258.163 244.955 258.186 244.844 258.203 244.733C258.217 244.659 258.227 244.588 258.237 244.514C258.251 244.409 258.264 244.305 258.278 244.201C258.281 244.164 258.288 244.127 258.291 244.09C258.295 244.046 258.295 244.005 258.298 243.965C258.305 243.884 258.308 243.803 258.312 243.726C258.315 243.645 258.318 243.568 258.318 243.49C258.318 243.409 258.318 243.325 258.318 243.244C258.318 243.207 258.318 243.17 258.318 243.137C258.318 243.113 258.315 243.093 258.312 243.069V243.083Z" fill="#1A3E4F"/>
<path d="M247.468 232.168C252.489 232.168 255.124 236.242 253.355 241.269L215.73 348.234C213.961 353.261 208.46 357.335 203.439 357.335H159.136C154.116 357.335 151.48 353.261 153.246 348.234L190.871 241.269C192.637 236.242 198.141 232.168 203.162 232.168H247.468Z" fill="#1A3E4F"/>
<path d="M212.804 348.21L250.428 241.252C251.649 237.78 249.826 234.959 246.358 234.959H202.052C198.587 234.959 194.775 237.78 193.557 241.252L155.932 348.21C154.711 351.682 156.535 354.503 160.002 354.503H204.308C207.773 354.503 211.586 351.682 212.804 348.21Z" fill="white"/>
<path d="M222.64 301.768C224.125 301.768 224.94 302.879 224.467 304.249L221.598 312.505C221.121 313.875 219.534 314.983 218.049 314.983H173.902C172.42 314.983 171.604 313.871 172.078 312.505L174.947 304.249C175.424 302.879 177.011 301.768 178.493 301.768H222.64Z" fill="#EAEEF8"/>
<path d="M185.983 304.053C186.954 304.053 187.489 304.777 187.177 305.672L185.303 311.069C184.992 311.965 183.953 312.689 182.982 312.689H176.801C175.833 312.689 175.299 311.965 175.61 311.069L177.484 305.672C177.796 304.777 178.834 304.053 179.802 304.053H185.983Z" fill="#BFCFEA"/>
<path d="M216.586 307.536C217.094 307.536 217.635 307.155 217.797 306.691C217.96 306.223 217.682 305.846 217.175 305.846H192.133C191.625 305.846 191.084 306.226 190.921 306.691C190.759 307.159 191.036 307.536 191.544 307.536H216.586Z" fill="#BFCFEA"/>
<path d="M208.575 310.817C209.083 310.817 209.624 310.437 209.786 309.972C209.949 309.504 209.671 309.127 209.164 309.127H190.986C190.479 309.127 189.937 309.507 189.775 309.972C189.613 310.44 189.89 310.817 190.397 310.817H208.575Z" fill="#BFCFEA"/>
<path d="M216.671 318.096C218.156 318.096 218.972 319.207 218.498 320.577L215.629 328.833C215.152 330.203 213.565 331.311 212.08 331.311H167.933C166.451 331.311 165.636 330.2 166.109 328.833L168.978 320.577C169.455 319.207 171.042 318.096 172.524 318.096H216.671Z" fill="#F6F8FC"/>
<path d="M180.014 320.385C180.985 320.385 181.52 321.109 181.208 322.008L179.334 327.405C179.023 328.3 177.984 329.024 177.013 329.024H170.832C169.865 329.024 169.33 328.3 169.641 327.405L171.516 322.008C171.827 321.112 172.866 320.385 173.833 320.385H180.014Z" fill="#D7E1F3"/>
<path d="M210.617 323.866C211.125 323.866 211.666 323.485 211.829 323.021C211.991 322.553 211.714 322.176 211.206 322.176H186.164C185.656 322.176 185.115 322.556 184.953 323.021C184.79 323.489 185.068 323.866 185.575 323.866H210.617Z" fill="#D7E1F3"/>
<path d="M202.606 327.149C203.114 327.149 203.655 326.769 203.818 326.304C203.98 325.836 203.703 325.459 203.195 325.459H185.017C184.51 325.459 183.969 325.839 183.806 326.304C183.644 326.772 183.921 327.149 184.429 327.149H202.606Z" fill="#D7E1F3"/>
<path d="M240.704 268.364L251.398 275.542C255.208 278.098 260.394 277.095 262.962 273.303C265.53 269.512 264.522 264.351 260.712 261.795L250.018 254.617C246.208 252.062 241.022 253.065 238.454 256.856C235.886 260.647 236.895 265.809 240.704 268.364Z" fill="#FAB9AC"/>
<path d="M234.462 283.374L245.156 290.552C248.966 293.108 254.152 292.104 256.72 288.313C259.288 284.522 258.279 279.361 254.47 276.805L243.776 269.627C239.966 267.072 234.78 268.075 232.212 271.866C229.644 275.657 230.652 280.819 234.462 283.374Z" fill="#FAB9AC"/>
<path d="M228.21 298.407L238.904 305.585C242.714 308.141 247.9 307.137 250.468 303.346C253.036 299.555 252.028 294.394 248.218 291.838L237.524 284.66C233.714 282.105 228.528 283.108 225.96 286.899C223.392 290.69 224.4 295.852 228.21 298.407Z" fill="#FAB9AC"/>
<path d="M221.958 313.44L232.652 320.619C236.462 323.174 241.648 322.171 244.216 318.38C246.784 314.589 245.776 309.427 241.966 306.872L231.272 299.693C227.462 297.138 222.276 298.141 219.708 301.932C217.14 305.724 218.149 310.885 221.958 313.44Z" fill="#FAB9AC"/>
<path d="M228.832 298.48L241.373 306.733" stroke="#C48685" stroke-width="1.5" stroke-miterlimit="10" stroke-linecap="round"/>
<path d="M235.166 283.25L247.707 291.502" stroke="#C48685" stroke-width="1.5" stroke-miterlimit="10" stroke-linecap="round"/>
<path d="M241.463 268.107L254.004 276.356" stroke="#C48685" stroke-width="1.5" stroke-miterlimit="10" stroke-linecap="round"/>
<path d="M218.102 253.207C229.997 253.207 235.938 262.803 231.367 274.644C226.797 286.482 213.45 296.081 201.555 296.081C189.659 296.081 183.718 286.485 188.289 274.644C192.856 262.806 206.206 253.207 218.102 253.207Z" fill="white"/>
<path d="M204.746 279.486L201.501 274.244C201.308 273.931 200.973 273.772 200.503 273.766C200.03 273.759 199.566 273.917 199.113 274.244C198.659 274.57 198.341 274.968 198.162 275.432C197.983 275.897 197.993 276.294 198.196 276.621L202.029 282.812C202.283 283.22 202.682 283.425 203.227 283.425C203.771 283.425 204.33 283.22 204.898 282.812L222.359 270.261C222.792 269.948 223.106 269.557 223.296 269.082C223.485 268.611 223.478 268.21 223.275 267.884C223.072 267.557 222.737 267.392 222.271 267.392C221.804 267.392 221.34 267.557 220.887 267.884L204.749 279.486H204.746ZM201.562 296.078C198.582 296.078 196 295.516 193.811 294.391C191.626 293.267 189.934 291.738 188.74 289.809C187.546 287.88 186.886 285.61 186.761 283.004C186.635 280.398 187.146 277.611 188.29 274.648C189.433 271.682 191.074 268.897 193.212 266.288C195.351 263.679 197.759 261.409 200.442 259.48C203.125 257.551 205.994 256.022 209.049 254.898C212.104 253.773 215.122 253.211 218.099 253.211C221.076 253.211 223.661 253.773 225.85 254.898C228.036 256.022 229.727 257.551 230.921 259.48C232.116 261.409 232.775 263.679 232.901 266.284C233.026 268.89 232.515 271.678 231.371 274.641C230.228 277.607 228.587 280.392 226.449 283.001C224.311 285.61 221.902 287.88 219.219 289.809C216.536 291.738 213.667 293.267 210.612 294.391C207.557 295.516 204.539 296.078 201.562 296.078Z" fill="#00D974"/>
<path d="M283.455 363.899C299.773 363.899 313.001 350.735 313.001 334.497C313.001 318.258 299.773 305.094 283.455 305.094C267.138 305.094 253.91 318.258 253.91 334.497C253.91 350.735 267.138 363.899 283.455 363.899Z" fill="#7CABD4"/>
<path d="M269.76 340.476V332.752H267.977V330.85C269.245 330.8 269.952 330.389 270.169 329.281H272.195V340.476H269.76Z" fill="white"/>
<path d="M281.573 338.332H285.677V340.476H278.43V338.638L282.175 334.463C282.933 333.608 283.264 333.059 283.264 332.369C283.264 331.679 282.764 331.221 281.996 331.221C281.228 331.221 280.663 331.628 280.612 332.78H278.43C278.416 330.342 280.06 329.076 282.036 329.076C284.012 329.076 285.666 330.339 285.666 332.295C285.666 333.8 284.949 334.719 283.664 336.099L281.573 338.335V338.332Z" fill="white"/>
<path d="M296.08 333.725C297.762 333.903 298.929 335.193 298.929 336.802V337.146C298.929 339.418 297.119 340.681 295.015 340.681C293.052 340.681 291.537 339.57 291.27 337.833L293.438 337.371C293.617 338.062 294.22 338.533 295.015 338.533C295.86 338.533 296.541 337.998 296.541 337.014V336.924C296.541 335.954 295.861 335.378 294.693 335.378H293.269V333.695L295.668 331.385H291.882V329.277H298.503V331.385L296.077 333.722L296.08 333.725Z" fill="white"/>
<path d="M128.441 271.819C145.872 271.819 160.002 257.756 160.002 240.409C160.002 223.063 145.872 209 128.441 209C111.01 209 96.8789 223.063 96.8789 240.409C96.8789 257.756 111.01 271.819 128.441 271.819Z" fill="#7CABD4"/>
<path d="M134.545 242.471V246.211" stroke="white" stroke-width="1.5" stroke-linecap="round" stroke-linejoin="round"/>
<path d="M139.443 242.471V246.211" stroke="white" stroke-width="1.5" stroke-linecap="round" stroke-linejoin="round"/>
<path d="M132.199 248.379C132.199 248.379 136.814 253.419 141.784 248.473" stroke="white" stroke-width="1.5" stroke-linecap="round" stroke-linejoin="round"/>
<path d="M136.993 255.668C142.161 255.668 146.351 251.499 146.351 246.356C146.351 241.212 142.161 237.043 136.993 237.043C131.824 237.043 127.635 241.212 127.635 246.356C127.635 251.499 131.824 255.668 136.993 255.668Z" stroke="white" stroke-width="1.5" stroke-linecap="round" stroke-linejoin="round"/>
<path d="M126.726 252.969H114.908C114.12 252.969 113.48 252.332 113.48 251.548V226.458C113.48 225.673 114.12 225.037 114.908 225.037H133.654C134.443 225.037 135.082 225.673 135.082 226.458V234.488" stroke="white" stroke-width="1.5" stroke-linecap="round" stroke-linejoin="round"/>
<path d="M117.939 235.107L120.274 237.43L124.682 233.043" stroke="white" stroke-width="1.5" stroke-linecap="round" stroke-linejoin="round"/>
<path d="M117.939 243.224L120.274 245.547L124.682 241.16" stroke="white" stroke-width="1.5" stroke-linecap="round" stroke-linejoin="round"/>
</g>
<path d="M90.1855 459.744V475.494H88.5859V467.408H86.7051V474.721H85.123V460.043H86.7051V466.002H88.5859V459.744H90.1855ZM81.3613 463.91C81.3613 466.74 82.4336 469.307 84.7188 470.484L83.7344 471.768C82.1875 470.933 81.1504 469.465 80.5879 467.637C80.0518 469.711 79.0059 471.363 77.4062 472.312L76.3691 471.047C78.6719 469.746 79.7441 467.039 79.7441 463.91V462.891H76.791V461.537H84.1035V462.891H81.3613V463.91ZM97.2695 460.746C99.7656 460.746 101.541 462.275 101.559 464.49C101.541 466.45 100.152 467.874 98.0957 468.164V470.66C99.5811 470.59 101.093 470.467 102.508 470.256L102.631 471.469C99.0625 472.137 95.248 472.154 92.4355 472.154L92.2246 470.783C93.4639 470.783 94.9053 470.783 96.4258 470.73V468.164C94.3867 467.865 92.9629 466.441 92.9805 464.49C92.9629 462.275 94.791 460.746 97.2695 460.746ZM97.2695 462.188C95.7402 462.188 94.6152 463.084 94.6328 464.49C94.6152 465.879 95.7402 466.811 97.2695 466.793C98.7988 466.811 99.9238 465.879 99.9238 464.49C99.9238 463.084 98.7988 462.188 97.2695 462.188ZM105.162 459.744V475.529H103.492V459.744H105.162ZM120.279 460.482V461.66C120.279 462.82 120.279 464.209 119.928 466.037H122.107V467.391H115.709V470.08H120.35V475.494H118.68V471.416H109.17V470.08H114.039V467.391H107.693V466.037H118.24C118.609 464.279 118.627 462.961 118.627 461.836H109.504V460.482H120.279ZM131.564 461.08V468.48H124.076V461.08H131.564ZM125.711 462.434V467.145H129.912V462.434H125.711ZM136.311 459.762V471.047H134.641V459.762H136.311ZM136.785 473.648V475.02H126.01V469.957H127.697V473.648H136.785ZM156.262 459.762V471.293H154.592V459.762H156.262ZM156.736 473.807V475.16H145.961V470.203H147.648V473.807H156.736ZM148.932 462.188C148.914 464.49 150.391 466.6 152.816 467.443L151.955 468.779C150.136 468.103 148.791 466.767 148.088 465.053C147.394 466.881 146.031 468.349 144.186 469.061L143.289 467.742C145.768 466.828 147.227 464.561 147.227 462.188V460.623H148.932V462.188ZM171.854 459.762V471.697H170.184V470.186H167.02V469.008H170.184V459.762H171.854ZM172.24 473.807V475.16H160.867V470.537H162.52V473.807H172.24ZM158.688 466.951C161.605 466.934 165.525 466.898 168.883 466.477L168.988 467.672C167.644 467.892 166.229 468.041 164.84 468.129V471.205H163.17V468.217C161.641 468.287 160.173 468.296 158.898 468.287L158.688 466.951ZM163.838 460.359C166.141 460.359 167.74 461.467 167.74 463.137C167.74 464.807 166.141 465.879 163.838 465.879C161.5 465.879 159.918 464.807 159.918 463.137C159.918 461.467 161.5 460.359 163.838 460.359ZM163.838 461.607C162.432 461.59 161.482 462.188 161.5 463.137C161.482 464.068 162.432 464.648 163.838 464.648C165.191 464.648 166.141 464.068 166.158 463.137C166.141 462.188 165.191 461.59 163.838 461.607ZM186.707 459.762V464.438H188.957V465.809H186.707V470.361H185.037V459.762H186.707ZM174.209 468.604C175.431 468.604 176.846 468.604 178.322 468.551V467.496C176.529 467.312 175.387 466.468 175.404 465.193C175.387 463.752 176.881 462.855 179.148 462.873C181.398 462.855 182.893 463.752 182.893 465.193C182.893 466.459 181.768 467.303 179.992 467.496V468.498C181.398 468.428 182.822 468.313 184.141 468.129L184.281 469.324C180.889 469.922 177.162 469.939 174.385 469.939L174.209 468.604ZM186.707 471.1V475.494H185.037V472.4H176.178V471.1H186.707ZM183.701 461.098V462.346H174.613V461.098H178.322V459.621H179.992V461.098H183.701ZM179.148 464.016C177.795 463.998 176.986 464.438 176.986 465.193C176.986 465.932 177.795 466.406 179.148 466.406C180.484 466.406 181.293 465.932 181.293 465.193C181.293 464.438 180.484 463.998 179.148 464.016ZM202.932 459.762V471.205H201.262V459.762H202.932ZM203.406 473.807V475.16H192.631V470.045H194.318V473.807H203.406ZM194.389 460.816C196.762 460.816 198.572 462.434 198.572 464.719C198.572 467.039 196.762 468.639 194.389 468.639C192.016 468.639 190.188 467.039 190.188 464.719C190.188 462.434 192.016 460.816 194.389 460.816ZM194.389 462.275C192.912 462.275 191.822 463.277 191.822 464.719C191.822 466.195 192.912 467.18 194.389 467.18C195.83 467.18 196.938 466.195 196.938 464.719C196.938 463.277 195.83 462.275 194.389 462.275ZM219.789 467.162V468.516H205.428V467.162H219.789ZM212.6 469.729C215.992 469.729 218.031 470.783 218.031 472.611C218.031 474.439 215.992 475.477 212.6 475.459C209.189 475.477 207.133 474.439 207.133 472.611C207.133 470.783 209.189 469.729 212.6 469.729ZM212.6 471.029C210.191 471.047 208.82 471.592 208.82 472.611C208.82 473.613 210.191 474.141 212.6 474.141C214.973 474.141 216.361 473.613 216.361 472.611C216.361 471.592 214.973 471.047 212.6 471.029ZM218.506 460.518V461.889H213.725C213.909 463.418 216.142 464.719 219.051 465.018L218.453 466.336C215.729 466.02 213.47 464.868 212.617 463.207C211.738 464.868 209.488 466.02 206.764 466.336L206.184 465.018C209.04 464.719 211.29 463.427 211.492 461.889H206.746V460.518H218.506ZM228.912 460.342V462.205H236.207V460.342H237.877V466.705H233.377V468.252H239.74V469.623H225.379V468.252H231.725V466.705H227.26V460.342H228.912ZM228.912 465.352H236.207V463.506H228.912V465.352ZM238.123 473.807V475.16H227.189V470.748H228.877V473.807H238.123ZM253.996 459.762V471.205H252.326V459.762H253.996ZM254.471 473.807V475.16H243.695V470.045H245.383V473.807H254.471ZM245.453 460.816C247.826 460.816 249.637 462.434 249.637 464.719C249.637 467.039 247.826 468.639 245.453 468.639C243.08 468.639 241.252 467.039 241.252 464.719C241.252 462.434 243.08 460.816 245.453 460.816ZM245.453 462.275C243.977 462.275 242.887 463.277 242.887 464.719C242.887 466.195 243.977 467.18 245.453 467.18C246.895 467.18 248.002 466.195 248.002 464.719C248.002 463.277 246.895 462.275 245.453 462.275ZM273.947 459.762V471.205H272.277V459.762H273.947ZM274.422 473.807V475.16H263.646V470.045H265.334V473.807H274.422ZM265.404 460.816C267.777 460.816 269.588 462.434 269.588 464.719C269.588 467.039 267.777 468.639 265.404 468.639C263.031 468.639 261.203 467.039 261.203 464.719C261.203 462.434 263.031 460.816 265.404 460.816ZM265.404 462.275C263.928 462.275 262.838 463.277 262.838 464.719C262.838 466.195 263.928 467.18 265.404 467.18C266.846 467.18 267.953 466.195 267.953 464.719C267.953 463.277 266.846 462.275 265.404 462.275ZM290.805 467.162V468.516H276.443V467.162H290.805ZM283.615 469.729C287.008 469.729 289.047 470.783 289.047 472.611C289.047 474.439 287.008 475.477 283.615 475.459C280.205 475.477 278.148 474.439 278.148 472.611C278.148 470.783 280.205 469.729 283.615 469.729ZM283.615 471.029C281.207 471.047 279.836 471.592 279.836 472.611C279.836 473.613 281.207 474.141 283.615 474.141C285.988 474.141 287.377 473.613 287.377 472.611C287.377 471.592 285.988 471.047 283.615 471.029ZM289.521 460.518V461.889H284.74C284.925 463.418 287.157 464.719 290.066 465.018L289.469 466.336C286.744 466.02 284.485 464.868 283.633 463.207C282.754 464.868 280.504 466.02 277.779 466.336L277.199 465.018C280.056 464.719 282.306 463.427 282.508 461.889H277.762V460.518H289.521Z" fill="#111827"/>
<circle cx="313" cy="467.5" r="10" stroke="#9CA3AF" stroke-width="2"/>
<defs>
<linearGradient id="paint0_linear_904_6994" x1="137.25" y1="351.217" x2="251.463" y2="236.447" gradientUnits="userSpaceOnUse">
<stop stop-color="#E9EFF9"/>
<stop offset="1" stop-color="white"/>
</linearGradient>
<clipPath id="clip0_904_6994">
<rect width="226" height="166" fill="white" transform="translate(87 209)"/>
</clipPath>
</defs>
</svg>
