<svg width="400" height="292" viewBox="0 0 400 292" fill="none" xmlns="http://www.w3.org/2000/svg">
<rect x="20" y="0.5" width="360" height="291" rx="2" fill="white"/>
<mask id="mask0_937_377" style="mask-type:alpha" maskUnits="userSpaceOnUse" x="188" y="20" width="24" height="25">
<rect x="188" y="20.5" width="24" height="24" fill="#D9D9D9"/>
</mask>
<g mask="url(#mask0_937_377)">
<path d="M200 37.6152C201.148 37.6152 202.12 37.2163 202.918 36.4183C203.716 35.6202 204.115 34.6475 204.115 33.5C204.115 32.3525 203.716 31.3798 202.918 30.5818C202.12 29.7838 201.148 29.3848 200 29.3848C198.852 29.3848 197.88 29.7838 197.082 30.5818C196.284 31.3798 195.885 32.3525 195.885 33.5C195.885 34.6475 196.284 35.6202 197.082 36.4183C197.88 37.2163 198.852 37.6152 200 37.6152ZM200 36.1155C199.262 36.1155 198.641 35.8642 198.139 35.3615C197.636 34.859 197.385 34.2385 197.385 33.5C197.385 32.7615 197.636 32.141 198.139 31.6385C198.641 31.1358 199.262 30.8845 200 30.8845C200.738 30.8845 201.359 31.1358 201.862 31.6385C202.364 32.141 202.616 32.7615 202.616 33.5C202.616 34.2385 202.364 34.859 201.862 35.3615C201.359 35.8642 200.738 36.1155 200 36.1155ZM192.308 41C191.803 41 191.375 40.825 191.025 40.475C190.675 40.125 190.5 39.6974 190.5 39.1923V27.8077C190.5 27.3026 190.675 26.875 191.025 26.525C191.375 26.175 191.803 26 192.308 26H195.361L196.669 24.5827C196.833 24.4019 197.032 24.2596 197.264 24.1557C197.497 24.0519 197.742 24 198 24H202C202.258 24 202.503 24.0519 202.735 24.1557C202.968 24.2596 203.167 24.4019 203.331 24.5827L204.638 26H207.692C208.197 26 208.625 26.175 208.975 26.525C209.325 26.875 209.5 27.3026 209.5 27.8077V39.1923C209.5 39.6974 209.325 40.125 208.975 40.475C208.625 40.825 208.197 41 207.692 41H192.308Z" fill="#02837B"/>
</g>
<path d="M111.084 81.0938V83.0488H93.3382V81.0938H100.987V76.8613H95.2933V67.4941H109.043V76.8613H103.35V81.0938H111.084ZM97.6351 69.4062V74.9922H106.68V69.4062H97.6351ZM127.123 65.9902V73.3809H130.109V75.4004H127.123V85.4121H124.738V65.9902H127.123ZM114.963 67.5801V72.4355H119.539V67.5801H121.924V80.8574H112.599V67.5801H114.963ZM114.963 78.9023H119.539V74.3047H114.963V78.9023ZM135.986 66.6133C138.929 66.6133 141.12 68.4395 141.142 70.9961C141.12 73.5742 138.929 75.3789 135.986 75.3789C133.021 75.3789 130.829 73.5742 130.829 70.9961C130.829 68.4395 133.021 66.6133 135.986 66.6133ZM135.986 68.5898C134.353 68.5898 133.15 69.5137 133.15 70.9961C133.15 72.5 134.353 73.4453 135.986 73.4453C137.618 73.4453 138.822 72.5 138.822 70.9961C138.822 69.5137 137.618 68.5898 135.986 68.5898ZM146.663 65.9902V75.8086H144.257V65.9902H146.663ZM146.663 76.6465V81.7168H136.157V83.2852H147.243V85.1758H133.816V79.9551H144.279V78.5156H133.773V76.6465H146.663ZM170.018 66.0117V80.1914H167.611V66.0117H170.018ZM170.555 83.0918V85.0254H157.17V78.8379H159.576V83.0918H170.555ZM161.08 68.9766C161.08 71.6836 162.67 74.2402 165.742 75.2715L164.518 77.1621C162.305 76.3887 160.726 74.8418 159.877 72.8652C158.996 74.9814 157.396 76.6787 155.108 77.5059L153.861 75.6152C157.02 74.498 158.609 71.7695 158.609 68.9766V67.0859H161.08V68.9766ZM190.138 76.0449V77.957H182.64V81.3086H180.277V77.957H172.392V76.0449H190.138ZM188.183 83.0918V85.0254H174.541V79.6758H176.904V83.0918H188.183ZM177.076 66.6133V68.8047H185.455V66.6133H187.818V74.5195H174.712V66.6133H177.076ZM177.076 72.6289H185.455V70.5879H177.076V72.6289ZM208.69 75.0352V76.9688H190.987V75.0352H208.69ZM199.817 78.2578C204.007 78.2578 206.521 79.5684 206.542 81.8242C206.521 84.1016 204.007 85.3906 199.817 85.3906C195.585 85.3906 193.05 84.1016 193.05 81.8242C193.05 79.5684 195.585 78.2578 199.817 78.2578ZM199.817 80.127C196.981 80.127 195.456 80.707 195.478 81.8242C195.456 82.9414 196.981 83.5215 199.817 83.5215C202.589 83.5215 204.136 82.9414 204.157 81.8242C204.136 80.707 202.589 80.127 199.817 80.127ZM207.101 66.9141V68.8691H201.493C201.848 70.4805 204.179 71.9307 207.853 72.2852L207.015 74.1758C203.491 73.7998 200.87 72.4141 199.817 70.4375C198.765 72.4033 196.187 73.7998 192.663 74.1758L191.847 72.2852C195.445 71.9307 197.787 70.4805 198.163 68.8691H192.599V66.9141H207.101ZM226.061 66.1406V85.2402H224.428V66.1406H226.061ZM222.215 66.5488V84.2734H220.604V74.9922H218.155C217.972 78.709 216.393 81.0293 214.03 81.0293C211.538 81.0293 209.926 78.4512 209.926 74.3906C209.926 70.3301 211.538 67.752 214.03 67.752C216.35 67.752 217.918 69.9971 218.133 73.5957H220.604V66.5488H222.215ZM214.03 69.3418C212.483 69.3418 211.495 71.2754 211.516 74.3906C211.495 77.4844 212.483 79.4395 214.03 79.418C215.577 79.4395 216.565 77.4844 216.565 74.3906C216.565 71.2754 215.577 69.3418 214.03 69.3418ZM234.988 71.2754C234.988 74.7344 237.201 78.2148 239.973 79.4824L238.963 80.8574C236.793 79.7402 234.999 77.4521 234.15 74.7344C233.302 77.5918 231.508 80.041 229.338 81.2012L228.242 79.8477C231.035 78.4727 233.269 74.7988 233.269 71.2754V67.7949H234.988V71.2754ZM244.098 66.1406V85.2832H242.422V74.0469H237.889V72.6719H242.422V66.1406H244.098ZM258.321 71.2754C258.321 74.6484 260.555 78.1074 263.262 79.4395L262.231 80.793C260.126 79.6865 258.364 77.4307 257.526 74.7773C256.667 77.6025 254.862 80.0088 252.714 81.1582L251.639 79.8047C254.432 78.4297 256.645 74.7559 256.667 71.2754V67.7949H258.321V71.2754ZM266.7 66.1406V73.8965H269.901V75.3574H266.7V85.2402H265.024V66.1406H266.7ZM277.367 70.2441C277.367 72.8223 279.408 75.1426 282.266 76.0449L281.406 77.3984C279.183 76.6465 277.41 75.0781 276.551 73.0586C275.713 75.2393 273.919 76.958 271.653 77.7852L270.772 76.4316C273.629 75.4219 275.67 72.9512 275.67 70.2441V69.127H271.201V67.752H281.772V69.127H277.367V70.2441ZM286.262 66.1621V80.1699H284.586V66.1621H286.262ZM286.863 83.4141V84.832H273.93V78.8379H275.606V83.4141H286.863ZM297.767 66.4844C302.021 66.4844 304.513 67.6445 304.513 69.7715C304.513 71.9414 302.021 73.1016 297.767 73.123C293.513 73.1016 291 71.9414 291 69.7715C291 67.6445 293.513 66.4844 297.767 66.4844ZM297.767 67.752C294.588 67.752 292.74 68.5254 292.761 69.7715C292.74 71.1035 294.588 71.834 297.767 71.834C300.925 71.834 302.795 71.1035 302.795 69.7715C302.795 68.5254 300.925 67.752 297.767 67.752ZM306.468 74.4121V75.7871H289.066V74.4121H306.468ZM304.234 77.4414V81.7168H292.89V83.6934H304.814V85.0254H291.214V80.4707H302.58V78.7305H291.172V77.4414H304.234ZM85.829 98.7949V100.062H81.5751C81.6073 101.631 83.6591 102.898 86.2802 103.307L85.6786 104.553C83.3905 104.166 81.5859 103.167 80.7802 101.76C79.9638 103.242 78.1484 104.316 75.8388 104.746L75.2372 103.521C77.8583 103.07 79.8886 101.717 79.9208 100.062H75.6884V98.7949H79.9208V97.0977H81.5751V98.7949H85.829ZM81.5751 103.865V105.928C83.3368 105.842 85.1093 105.702 86.7529 105.477L86.8603 106.658C82.8212 107.346 78.3095 107.389 74.9364 107.367L74.7216 106.057C76.2577 106.057 78.0517 106.046 79.9208 105.992V103.865H81.5751ZM89.6532 108.85V112.953H78.9325V114.736H90.3837V116.025H77.2568V111.729H87.9775V110.117H77.2138V108.85H89.6532ZM89.6532 97.1406V101.76H92.5107V103.156H89.6532V108.012H87.956V97.1406H89.6532ZM98.5804 98.3008C100.192 98.29 101.567 98.8916 102.448 99.9121H107.453V97.1406H109.151V108.463H107.453V105.734H102.469C101.567 106.755 100.192 107.356 98.5804 107.346C95.723 107.367 93.6175 105.498 93.6175 102.834C93.6175 100.148 95.723 98.2793 98.5804 98.3008ZM98.5804 99.7617C96.6254 99.7402 95.2289 101.029 95.2289 102.834C95.2289 104.617 96.6254 105.906 98.5804 105.906C100.471 105.906 101.889 104.617 101.889 102.834C101.889 101.029 100.471 99.7402 98.5804 99.7617ZM102.813 108.914C106.766 108.914 109.215 110.246 109.215 112.545C109.215 114.865 106.766 116.197 102.813 116.197C98.8382 116.197 96.4105 114.865 96.4105 112.545C96.4105 110.246 98.8382 108.914 102.813 108.914ZM102.813 110.225C99.891 110.225 98.0648 111.105 98.0648 112.545C98.0648 113.984 99.891 114.844 102.813 114.844C105.756 114.844 107.561 113.984 107.561 112.545C107.561 111.105 105.756 110.225 102.813 110.225ZM103.264 101.287C103.425 101.76 103.522 102.275 103.522 102.834C103.522 103.371 103.425 103.876 103.264 104.338H107.453V101.287H103.264ZM126.672 97.1406V105.025H129.873V106.422H126.672V116.24H124.996V97.1406H126.672ZM123.148 100.213V101.609H111.783V100.213H116.703V97.377H118.379V100.213H123.148ZM117.562 103.199C120.269 103.199 122.224 105.004 122.246 107.582C122.224 110.16 120.269 111.965 117.562 111.965C114.834 111.965 112.857 110.16 112.879 107.582C112.857 105.004 114.834 103.199 117.562 103.199ZM117.562 104.617C115.779 104.617 114.469 105.863 114.49 107.582C114.469 109.322 115.779 110.547 117.562 110.525C119.324 110.547 120.613 109.322 120.635 107.582C120.613 105.863 119.324 104.617 117.562 104.617ZM145.782 99.0742V100.986C145.761 103.328 145.761 105.949 145.073 109.795L143.355 109.602C144.085 105.949 144.085 103.264 144.085 100.986V100.471H132.312V99.0742H145.782ZM147.866 112.137V113.533H130.464V112.137H137.296V105.305H138.95V112.137H147.866ZM171.543 106.594V107.947H154.119V106.594H162.004V104.359H156.332V98.043H169.373V99.3965H157.986V102.984H169.502V104.359H163.637V106.594H171.543ZM162.82 109.344C166.924 109.344 169.373 110.59 169.395 112.781C169.373 114.994 166.924 116.219 162.82 116.24C158.695 116.219 156.225 114.994 156.225 112.781C156.225 110.59 158.695 109.344 162.82 109.344ZM162.82 110.676C159.748 110.676 157.922 111.471 157.943 112.781C157.922 114.113 159.748 114.887 162.82 114.887C165.85 114.887 167.697 114.113 167.697 112.781C167.697 111.471 165.85 110.676 162.82 110.676ZM177.957 98.3008C179.568 98.29 180.943 98.8916 181.824 99.9121H186.83V97.1406H188.527V108.463H186.83V105.734H181.845C180.943 106.755 179.568 107.356 177.957 107.346C175.099 107.367 172.994 105.498 172.994 102.834C172.994 100.148 175.099 98.2793 177.957 98.3008ZM177.957 99.7617C176.002 99.7402 174.605 101.029 174.605 102.834C174.605 104.617 176.002 105.906 177.957 105.906C179.847 105.906 181.265 104.617 181.265 102.834C181.265 101.029 179.847 99.7402 177.957 99.7617ZM182.189 108.914C186.142 108.914 188.591 110.246 188.591 112.545C188.591 114.865 186.142 116.197 182.189 116.197C178.214 116.197 175.787 114.865 175.787 112.545C175.787 110.246 178.214 108.914 182.189 108.914ZM182.189 110.225C179.267 110.225 177.441 111.105 177.441 112.545C177.441 113.984 179.267 114.844 182.189 114.844C185.132 114.844 186.937 113.984 186.937 112.545C186.937 111.105 185.132 110.225 182.189 110.225ZM182.64 101.287C182.801 101.76 182.898 102.275 182.898 102.834C182.898 103.371 182.801 103.876 182.64 104.338H186.83V101.287H182.64ZM197.647 100.234C197.647 102.834 199.624 105.219 202.396 106.164L201.472 107.496C199.355 106.723 197.69 105.144 196.853 103.156C196.036 105.401 194.339 107.174 192.104 108.033L191.202 106.68C194.06 105.605 195.972 103.049 195.993 100.105V98.1289H197.647V100.234ZM206.198 97.1406V102.125H209.077V103.543H206.198V108.764H204.522V97.1406H206.198ZM200.075 109.258C204.007 109.258 206.37 110.525 206.37 112.717C206.37 114.951 204.007 116.197 200.075 116.197C196.144 116.197 193.737 114.951 193.737 112.717C193.737 110.525 196.144 109.258 200.075 109.258ZM200.075 110.611C197.196 110.611 195.413 111.406 195.435 112.717C195.413 114.07 197.196 114.844 200.075 114.865C202.976 114.844 204.737 114.07 204.737 112.717C204.737 111.406 202.976 110.611 200.075 110.611ZM218.541 97.4844C222.795 97.4844 225.288 98.6445 225.288 100.771C225.288 102.941 222.795 104.102 218.541 104.123C214.288 104.102 211.774 102.941 211.774 100.771C211.774 98.6445 214.288 97.4844 218.541 97.4844ZM218.541 98.752C215.362 98.752 213.514 99.5254 213.536 100.771C213.514 102.104 215.362 102.834 218.541 102.834C221.7 102.834 223.569 102.104 223.569 100.771C223.569 99.5254 221.7 98.752 218.541 98.752ZM227.243 105.412V106.787H209.84V105.412H227.243ZM225.008 108.441V112.717H213.664V114.693H225.588V116.025H211.989V111.471H223.354V109.73H211.946V108.441H225.008ZM248.943 102.555V103.951H243.035V106.529H250.919V107.926H233.495V106.529H241.359V103.951H235.859V97.5703H237.535V102.555H248.943ZM248.749 109.881V116.24H247.052V111.256H235.536V109.881H248.749ZM266.893 97.1406V105.283H269.944V106.701H266.893V116.24H265.196V97.1406H266.893ZM251.833 111.148C253.39 111.148 255.206 111.148 257.096 111.084V108.957C254.873 108.71 253.423 107.41 253.444 105.52C253.423 103.371 255.249 101.975 257.956 101.975C260.62 101.975 262.468 103.371 262.489 105.52C262.468 107.41 260.996 108.71 258.794 108.979V111.02C260.577 110.934 262.371 110.794 264.036 110.547L264.143 111.836C259.975 112.545 255.464 112.588 252.112 112.588L251.833 111.148ZM263.692 99.4824V100.857H252.177V99.4824H257.096V97.1836H258.794V99.4824H263.692ZM257.956 103.285C256.194 103.285 255.012 104.188 255.012 105.52C255.012 106.852 256.194 107.711 257.956 107.689C259.696 107.711 260.878 106.852 260.878 105.52C260.878 104.188 259.696 103.285 257.956 103.285ZM285.424 97.1406V105.025H288.625V106.422H285.424V116.24H283.748V97.1406H285.424ZM281.901 100.213V101.609H270.535V100.213H275.455V97.377H277.131V100.213H281.901ZM276.315 103.199C279.022 103.199 280.977 105.004 280.998 107.582C280.977 110.16 279.022 111.965 276.315 111.965C273.586 111.965 271.61 110.16 271.631 107.582C271.61 105.004 273.586 103.199 276.315 103.199ZM276.315 104.617C274.531 104.617 273.221 105.863 273.242 107.582C273.221 109.322 274.531 110.547 276.315 110.525C278.076 110.547 279.365 109.322 279.387 107.582C279.365 105.863 278.076 104.617 276.315 104.617ZM304.642 106.1V107.475H298.734V112.416H306.705V113.834H289.216V112.416H297.08V107.475H291.451V98.709H304.449V100.084H293.148V106.1H304.642ZM325.257 107.668V109.064H307.769V107.668H315.675V105.648H310.046V100.986H321.304V99.0098H309.982V97.6348H323.001V102.254H311.722V104.295H323.409V105.648H317.329V107.668H325.257ZM323.108 110.525V116.068H321.411V111.9H309.724V110.525H323.108ZM132.57 131.213V132.609H121.204V131.213H126.038V128.377H127.714V131.213H132.57ZM126.898 134.199C129.476 134.199 131.366 136.025 131.388 138.582C131.366 141.117 129.476 142.965 126.898 142.965C124.298 142.965 122.386 141.117 122.386 138.582C122.386 136.025 124.298 134.199 126.898 134.199ZM126.898 135.639C125.222 135.66 123.954 136.885 123.976 138.582C123.954 140.301 125.222 141.525 126.898 141.504C128.573 141.525 129.841 140.301 129.841 138.582C129.841 136.885 128.573 135.66 126.898 135.639ZM137.038 128.141V147.24H135.363V137.594H132.161V136.176H135.363V128.141H137.038ZM157.18 137.594V138.99H139.778V137.594H144.096V134.908C142.571 134.317 141.712 133.34 141.712 132.051C141.712 129.795 144.29 128.506 148.479 128.506C152.626 128.506 155.225 129.795 155.225 132.051C155.225 133.329 154.377 134.307 152.862 134.887V137.594H157.18ZM148.479 140.451C152.583 140.451 155.032 141.633 155.053 143.824C155.032 145.994 152.583 147.197 148.479 147.197C144.333 147.197 141.883 145.994 141.883 143.824C141.883 141.633 144.333 140.451 148.479 140.451ZM148.479 141.74C145.407 141.762 143.581 142.514 143.602 143.824C143.581 145.113 145.407 145.887 148.479 145.887C151.508 145.887 153.356 145.113 153.356 143.824C153.356 142.514 151.508 141.762 148.479 141.74ZM148.479 129.838C145.364 129.838 143.43 130.676 143.452 132.051C143.43 133.447 145.364 134.264 148.479 134.264C151.573 134.264 153.507 133.447 153.507 132.051C153.507 130.676 151.573 129.838 148.479 129.838ZM145.772 137.594H151.186V135.359C150.381 135.499 149.478 135.574 148.479 135.574C147.48 135.574 146.578 135.499 145.772 135.359V137.594ZM173.133 128.141V136.025H176.334V137.422H173.133V147.24H171.457V128.141H173.133ZM169.609 131.213V132.609H158.244V131.213H163.164V128.377H164.84V131.213H169.609ZM164.024 134.199C166.731 134.199 168.686 136.004 168.707 138.582C168.686 141.16 166.731 142.965 164.024 142.965C161.295 142.965 159.318 141.16 159.34 138.582C159.318 136.004 161.295 134.199 164.024 134.199ZM164.024 135.617C162.24 135.617 160.93 136.863 160.951 138.582C160.93 140.322 162.24 141.547 164.024 141.525C165.785 141.547 167.074 140.322 167.096 138.582C167.074 136.863 165.785 135.617 164.024 135.617ZM183.714 133.275C183.693 136.756 186.078 140.279 188.892 141.547L187.861 142.879C185.691 141.815 183.811 139.57 182.898 136.842C182.006 139.731 180.127 142.138 177.892 143.266L176.818 141.848C179.654 140.537 182.017 136.906 182.039 133.275V129.795H183.714V133.275ZM192.673 128.141V147.283H190.976V128.141H192.673ZM203.964 129.559C203.964 131.03 203.695 132.373 203.169 133.598H206.263V128.57H207.874V138.904H206.263V134.994H202.417C201.182 136.906 199.205 138.442 196.573 139.57L195.692 138.324C199.603 136.724 201.88 134.199 202.224 130.955H196.509V129.559H203.964ZM211.72 128.162V139.205H210.108V128.162H211.72ZM202.159 141.139C202.138 142.857 203.051 144.63 204.866 145.672C206.692 144.533 207.616 142.6 207.638 141.139V139.85H209.271V141.139C209.271 143.115 210.731 145.113 213.181 145.93L212.343 147.176C210.431 146.499 209.088 145.156 208.433 143.523C207.842 145.092 206.692 146.585 204.909 147.348C203.04 146.606 201.88 145.188 201.321 143.566C200.634 145.135 199.312 146.488 197.497 147.176L196.638 145.93C199.044 145.049 200.548 142.986 200.548 141.139V139.85H202.159V141.139ZM217.961 139.613V141.848H227.5V139.613H229.198V146.982H216.286V139.613H217.961ZM217.961 145.629H227.5V143.18H217.961V145.629ZM231.475 136.863V138.26H214.073V136.863H231.475ZM223.655 129.258C223.655 131.621 227.135 133.727 230.487 134.156L229.864 135.51C226.899 135.069 223.998 133.555 222.795 131.406C221.571 133.565 218.649 135.069 215.706 135.51L215.061 134.156C218.456 133.705 221.914 131.686 221.914 129.258V128.355H223.655V129.258ZM248.394 128.141V147.24H246.719V128.141H248.394ZM235.547 130.031V140.859C238.458 140.849 241.476 140.612 244.678 139.936L244.914 141.375C241.519 142.084 238.49 142.32 235.439 142.32H233.892V130.031H235.547ZM266.345 128.141V136.025H269.245V137.443H266.345V147.24H264.648V128.141H266.345ZM257.021 130.225C256.999 134.779 255.968 139.248 252.509 142.922L251.156 141.955C254.045 139.001 255.205 135.445 255.431 131.643H251.757V130.225H257.021ZM262.263 130.225C262.242 134.758 261.576 140.021 258.009 144.189L256.634 143.244C259.62 139.871 260.523 135.628 260.673 131.643H257.622V130.225H262.263ZM272.844 141.01C272.866 138.131 273.747 137.25 275.229 136.348C276.11 135.811 276.798 134.951 276.798 133.748C276.798 132.287 275.659 131.363 274.241 131.363C273.016 131.363 271.792 132.094 271.663 133.855H269.708C269.815 131.256 271.792 129.73 274.241 129.73C276.927 129.73 278.688 131.471 278.688 133.834C278.688 135.51 277.893 136.691 276.561 137.508C275.229 138.324 274.735 139.141 274.692 141.01V141.117H272.844V141.01ZM273.833 145.629C273.081 145.629 272.436 145.006 272.458 144.232C272.436 143.48 273.081 142.857 273.833 142.857C274.585 142.857 275.208 143.48 275.208 144.232C275.208 145.006 274.585 145.629 273.833 145.629Z" fill="#111827"/>
<mask id="path-5-inside-1_937_377" fill="white">
<path d="M20 179.5H380V235.5H20V179.5Z"/>
</mask>
<path d="M20 180.5H380V178.5H20V180.5Z" fill="#DDDDDD" mask="url(#path-5-inside-1_937_377)"/>
<path d="M194.828 203.109V204.125H186.562V203.109H190.078V201.047H191.297V203.109H194.828ZM187.422 208.469C187.422 206.602 188.805 205.281 190.703 205.281C192.586 205.281 193.953 206.602 193.969 208.469C193.953 210.32 192.586 211.656 190.703 211.656C188.805 211.656 187.422 210.32 187.422 208.469ZM188.578 208.469C188.562 209.719 189.484 210.602 190.703 210.594C191.922 210.602 192.836 209.719 192.844 208.469C192.836 207.234 191.922 206.336 190.703 206.328C189.484 206.336 188.562 207.234 188.578 208.469ZM194.531 207.75V206.719H196.859V200.875H198.078V214.766H196.859V207.75H194.531ZM212.727 207.75V208.766H200.071V207.75H203.211V205.789C202.102 205.359 201.477 204.656 201.477 203.719C201.477 202.086 203.352 201.148 206.399 201.141C209.422 201.148 211.297 202.086 211.305 203.719C211.297 204.648 210.68 205.352 209.586 205.789V207.75H212.727ZM201.602 212.281C201.594 210.695 203.383 209.82 206.399 209.828C209.375 209.82 211.164 210.695 211.18 212.281C211.164 213.867 209.375 214.734 206.399 214.734C203.383 214.734 201.594 213.867 201.602 212.281ZM202.743 203.719C202.735 204.734 204.125 205.32 206.399 205.328C208.649 205.32 210.047 204.734 210.055 203.719C210.047 202.719 208.649 202.109 206.399 202.109C204.125 202.109 202.735 202.719 202.743 203.719ZM202.852 212.281C202.836 213.227 204.172 213.789 206.399 213.781C208.602 213.789 209.938 213.227 209.946 212.281C209.938 211.336 208.602 210.781 206.399 210.766C204.172 210.781 202.836 211.336 202.852 212.281ZM204.43 207.75H208.368V206.117C207.782 206.227 207.125 206.281 206.399 206.281C205.672 206.281 205.016 206.227 204.43 206.125V207.75Z" fill="#02837B"/>
<mask id="path-8-inside-2_937_377" fill="white">
<path d="M20 235.5H380V291.5H20V235.5Z"/>
</mask>
<path d="M20 236.5H380V234.5H20V236.5Z" fill="#DDDDDD" mask="url(#path-8-inside-2_937_377)"/>
<path d="M198.062 256.875V270.766H196.844V263.484H193.531V262.469H196.844V256.875H198.062ZM186.578 267.141C190.336 265.32 192.078 262.641 192.328 259.391H187.188V258.391H193.562C193.555 262.328 191.891 265.82 187.25 268.125L186.578 267.141ZM212.774 265.125V266.125H206.977V270.766H205.774V266.125H200.055V265.125H212.774ZM201.68 263.438V257.453H202.899V259.375H209.899V257.453H211.133V263.438H201.68ZM202.899 262.438H209.899V260.375H202.899V262.438Z" fill="#02837B"/>
</svg>
