<svg width="400" height="406" viewBox="0 0 400 406" fill="none" xmlns="http://www.w3.org/2000/svg">
<rect x="15" width="370" height="406" rx="15" fill="white"/>
<mask id="mask0_937_380" style="mask-type:alpha" maskUnits="userSpaceOnUse" x="325" y="20" width="40" height="40">
<rect x="325" y="20" width="40" height="40" fill="#D9D9D9"/>
</mask>
<g mask="url(#mask0_937_380)">
<path d="M344.999 41.4736L336.262 50.2111C336.062 50.412 335.818 50.515 335.533 50.5203C335.248 50.5256 334.999 50.4225 334.788 50.2111C334.576 49.9995 334.471 49.7536 334.471 49.4736C334.471 49.1939 334.576 48.9482 334.788 48.7365L343.525 39.9995L334.788 31.2624C334.587 31.0615 334.484 30.8185 334.479 30.5332C334.473 30.2479 334.576 29.9995 334.788 29.7878C334.999 29.5764 335.245 29.4707 335.525 29.4707C335.805 29.4707 336.051 29.5764 336.262 29.7878L344.999 38.5253L353.737 29.7878C353.937 29.587 354.18 29.4839 354.466 29.4786C354.751 29.4733 354.999 29.5764 355.211 29.7878C355.423 29.9995 355.528 30.2453 355.528 30.5253C355.528 30.805 355.423 31.0507 355.211 31.2624L346.474 39.9995L355.211 48.7365C355.412 48.9374 355.515 49.1804 355.52 49.4657C355.526 49.751 355.423 49.9995 355.211 50.2111C354.999 50.4225 354.754 50.5282 354.474 50.5282C354.194 50.5282 353.948 50.4225 353.737 50.2111L344.999 41.4736Z" fill="#6B7280"/>
</g>
<rect x="35" y="76" width="330" height="56" rx="8" fill="#0077FA"/>
<path d="M62.457 104.001L66.1851 108.606L72.5448 98.957" stroke="white" stroke-width="2" stroke-linecap="round" stroke-linejoin="round"/>
<circle cx="67.5" cy="104" r="11.5" stroke="white" stroke-width="2"/>
<path d="M105.264 95.1797V107.992H103.409V101.41H100.069V99.9062H103.409V95.1797H105.264ZM90.6937 104.34C93.3793 103.432 95.059 101.127 95.0492 98.7148V98.0312H91.2602V96.5078H100.694V98.0312H96.9437V98.7148C96.934 100.893 98.516 103.09 101.162 103.969L100.205 105.453C98.2426 104.77 96.7875 103.363 96.0258 101.625C95.2641 103.559 93.7309 105.102 91.6508 105.844L90.6937 104.34ZM93.8969 112.289V106.84H95.7523V110.785H105.733V112.289H93.8969ZM112.794 100.531C112.794 103.285 114.073 106.088 116.485 107.387L115.45 108.754C113.751 107.855 112.579 106.186 111.944 104.203C111.319 106.322 110.147 108.148 108.458 109.164L107.364 107.758C109.786 106.352 111.036 103.354 111.055 100.531V99.8281H107.891V98.3047H111.055V95.7852H112.794V98.3047H115.899V99.8281H112.794V100.531ZM114.747 103.52V101.977H117.266V95.5312H119.024V111.781H117.266V103.52H114.747ZM120.802 112.66V95.1602H122.579V112.66H120.802ZM140.421 103.676V105.16H124.445V103.676H131.534V101.82H126.437V95.9609H138.448V97.4258H128.273V100.336H138.566V101.82H133.331V103.676H140.421ZM126.339 109.477C126.339 107.445 128.614 106.303 132.413 106.293C136.183 106.303 138.439 107.445 138.448 109.477C138.439 111.508 136.183 112.65 132.413 112.66C128.614 112.65 126.339 111.508 126.339 109.477ZM128.214 109.477C128.204 110.6 129.737 111.215 132.413 111.195C135.05 111.215 136.593 110.6 136.593 109.477C136.593 108.373 135.05 107.738 132.413 107.738C129.737 107.738 128.204 108.373 128.214 109.477ZM147.033 96.4102C149.796 96.4004 151.789 98.1094 151.798 100.57C151.789 103.031 149.796 104.74 147.033 104.75C144.279 104.74 142.257 103.031 142.267 100.57C142.257 98.1094 144.279 96.4004 147.033 96.4102ZM141.427 107.387C144.611 107.387 149.025 107.357 152.853 106.801L152.99 108.148C149.035 108.91 144.787 108.93 141.662 108.93L141.427 107.387ZM144.103 100.57C144.084 102.123 145.334 103.129 147.033 103.129C148.732 103.129 149.982 102.123 149.982 100.57C149.982 99.0371 148.732 98.0117 147.033 98.0117C145.334 98.0117 144.084 99.0371 144.103 100.57ZM153.947 112.699V95.1602H155.802V112.699H153.947Z" fill="white"/>
<rect x="35.5" y="148.5" width="329" height="165" rx="7.5" stroke="#D1D5DB"/>
<mask id="path-9-inside-1_937_380" fill="white">
<path d="M55 168H345V223H55V168Z"/>
</mask>
<path d="M345 222H55V224H345V222Z" fill="#D1D5DB" mask="url(#path-9-inside-1_937_380)"/>
<path d="M56.7322 197.188C56.7322 194.25 57.6072 191.797 59.0759 189.703H60.9509C59.8728 191.25 58.7947 194.391 58.7947 197.188C58.7947 199.984 59.8728 203.125 60.9509 204.688H59.0759C57.6072 202.578 56.7322 200.141 56.7322 197.188ZM73.3341 188.766V196.047H71.5997V188.766H73.3341ZM73.3341 196.641V200.281H65.6153V201.391H73.7872V202.766H63.8966V199.016H71.6153V198H63.8653V196.641H73.3341ZM69.8341 189.672V191.016H68.5684V194.094C69.2091 194.039 69.8341 193.977 70.4278 193.906L70.5059 195.156C67.6934 195.594 64.4434 195.688 61.9747 195.688L61.7872 194.312L63.3966 194.297V191.016H62.1622V189.672H69.8341ZM65.0684 194.266C65.6778 194.25 66.295 194.227 66.9122 194.188V191.016H65.0684V194.266ZM82.4203 189.938C82.4203 191.719 84.4047 193.516 87.4203 193.906L86.7328 195.312C84.3344 194.953 82.4281 193.773 81.5141 192.172C80.5844 193.773 78.6859 194.953 76.3109 195.312L75.6234 193.906C78.6078 193.516 80.5922 191.719 80.5922 189.938V189.219H82.4203V189.938ZM87.9359 196.531V197.969H82.3266V202.891H80.6078V197.969H75.0609V196.531H87.9359ZM92.7722 197.188C92.7722 200.141 91.8972 202.578 90.4284 204.688H88.5534C89.6316 203.125 90.7097 199.984 90.7097 197.188C90.7097 194.391 89.6316 191.25 88.5534 189.703H90.4284C91.8972 191.797 92.7722 194.25 92.7722 197.188ZM110.617 199.75V201.172H97.7103V199.75H103.273V196.672H99.1322V189.859H109.132V196.672H104.992V199.75H110.617ZM100.835 191.25V195.312H107.413V191.25H100.835ZM122.281 188.766V194.141H124.453V195.609H122.281V202.891H120.547V188.766H122.281ZM113.437 189.922V193.453H116.765V189.922H118.5V199.578H111.718V189.922H113.437ZM113.437 198.156H116.765V194.812H113.437V198.156ZM128.727 189.219C130.867 189.219 132.461 190.547 132.477 192.406C132.461 194.281 130.867 195.594 128.727 195.594C126.57 195.594 124.977 194.281 124.977 192.406C124.977 190.547 126.57 189.219 128.727 189.219ZM128.727 190.656C127.539 190.656 126.664 191.328 126.664 192.406C126.664 193.5 127.539 194.188 128.727 194.188C129.914 194.188 130.789 193.5 130.789 192.406C130.789 191.328 129.914 190.656 128.727 190.656ZM136.492 188.766V195.906H134.742V188.766H136.492ZM136.492 196.516V200.203H128.852V201.344H136.914V202.719H127.148V198.922H134.758V197.875H127.117V196.516H136.492ZM153.477 188.781V199.094H151.727V188.781H153.477ZM153.868 201.203V202.609H144.133V198.109H145.883V201.203H153.868ZM146.977 190.938C146.977 192.906 148.133 194.766 150.368 195.516L149.477 196.891C147.868 196.328 146.719 195.203 146.102 193.766C145.462 195.305 144.298 196.539 142.633 197.141L141.727 195.766C144.024 194.953 145.18 192.969 145.18 190.938V189.562H146.977V190.938ZM168.11 196.078V197.469H162.657V199.906H160.938V197.469H155.204V196.078H168.11ZM166.688 201.203V202.609H156.767V198.719H158.485V201.203H166.688ZM158.61 189.219V190.812H164.704V189.219H166.423V194.969H156.892V189.219H158.61ZM158.61 193.594H164.704V192.109H158.61V193.594ZM181.603 195.344V196.75H168.728V195.344H181.603ZM175.15 197.688C178.197 197.688 180.025 198.641 180.04 200.281C180.025 201.938 178.197 202.875 175.15 202.875C172.072 202.875 170.228 201.938 170.228 200.281C170.228 198.641 172.072 197.688 175.15 197.688ZM175.15 199.047C173.087 199.047 171.978 199.469 171.993 200.281C171.978 201.094 173.087 201.516 175.15 201.516C177.165 201.516 178.29 201.094 178.306 200.281C178.29 199.469 177.165 199.047 175.15 199.047ZM180.447 189.438V190.859H176.368C176.626 192.031 178.322 193.086 180.993 193.344L180.384 194.719C177.822 194.445 175.915 193.438 175.15 192C174.384 193.43 172.509 194.445 169.947 194.719L169.353 193.344C171.97 193.086 173.673 192.031 173.947 190.859H169.9V189.438H180.447ZM198.603 195.531V196.922H185.713V195.531H191.307V194.188H187.291V189.406H197.041V190.766H189.025V192.812H197.119V194.188H193.01V195.531H198.603ZM192.135 197.734C195.182 197.734 197.01 198.656 197.025 200.312C197.01 201.953 195.182 202.891 192.135 202.891C189.057 202.891 187.213 201.953 187.213 200.312C187.213 198.656 189.057 197.734 192.135 197.734ZM192.135 199.062C190.072 199.062 188.963 199.5 188.978 200.312C188.963 201.125 190.072 201.547 192.135 201.547C194.15 201.547 195.275 201.125 195.291 200.312C195.275 199.5 194.15 199.062 192.135 199.062ZM203.799 189.75C206.033 189.734 207.674 191.156 207.69 193.156C207.674 195.172 206.033 196.578 203.799 196.578C201.58 196.578 199.924 195.172 199.924 193.156C199.924 191.156 201.58 189.734 203.799 189.75ZM203.799 191.25C202.565 191.25 201.643 191.984 201.643 193.156C201.643 194.344 202.565 195.062 203.799 195.062C205.049 195.062 205.987 194.344 205.987 193.156C205.987 191.984 205.049 191.25 203.799 191.25ZM210.987 188.766V202.906H209.252V188.766H210.987ZM199.283 198.531C201.83 198.531 205.362 198.5 208.408 198.062L208.549 199.328C205.377 199.938 201.987 199.953 199.502 199.953L199.283 198.531Z" fill="#111827"/>
<mask id="mask1_937_380" style="mask-type:alpha" maskUnits="userSpaceOnUse" x="213" y="178" width="35" height="35">
<rect x="213" y="178" width="35" height="35" fill="#D9D9D9"/>
</mask>
<g mask="url(#mask1_937_380)">
<path d="M230.5 199.489C230.344 199.489 230.202 199.463 230.074 199.412C229.946 199.361 229.821 199.275 229.701 199.155L222.9 192.354C222.724 192.178 222.636 191.963 222.637 191.709C222.637 191.454 222.73 191.234 222.915 191.049C223.1 190.864 223.317 190.771 223.568 190.771C223.817 190.771 224.035 190.864 224.22 191.049L230.5 197.345L236.795 191.049C236.971 190.874 237.184 190.786 237.433 190.786C237.683 190.786 237.9 190.879 238.085 191.064C238.27 191.249 238.363 191.467 238.363 191.717C238.363 191.967 238.27 192.184 238.085 192.369L231.299 199.155C231.179 199.275 231.055 199.361 230.926 199.412C230.798 199.463 230.656 199.489 230.5 199.489Z" fill="#6B7280"/>
</g>
<path d="M327.457 195.501L331.185 200.106L337.545 190.457" stroke="#0077FA" stroke-width="2" stroke-linecap="round" stroke-linejoin="round"/>
<circle cx="332.5" cy="195.5" r="11.5" stroke="#0077FA" stroke-width="2"/>
<mask id="path-16-inside-2_937_380" fill="white">
<path d="M55 239H345V294H55V239Z"/>
</mask>
<path d="M345 293H55V295H345V293Z" fill="#D1D5DB" mask="url(#path-16-inside-2_937_380)"/>
<path d="M56.4781 268.188C56.4781 265.25 57.3531 262.797 58.8219 260.703H60.6969C59.6188 262.25 58.5406 265.391 58.5406 268.188C58.5406 270.984 59.6188 274.125 60.6969 275.688H58.8219C57.3531 273.578 56.4781 271.141 56.4781 268.188ZM73.08 259.766V267.047H71.3456V259.766H73.08ZM73.08 267.641V271.281H65.3613V272.391H73.5331V273.766H63.6425V270.016H71.3613V269H63.6113V267.641H73.08ZM69.58 260.672V262.016H68.3144V265.094C68.955 265.039 69.58 264.977 70.1738 264.906L70.2519 266.156C67.4394 266.594 64.1894 266.688 61.7206 266.688L61.5331 265.312L63.1425 265.297V262.016H61.9081V260.672H69.58ZM64.8144 265.266C65.4238 265.25 66.0409 265.227 66.6581 265.188V262.016H64.8144V265.266ZM82.1663 260.938C82.1663 262.719 84.1506 264.516 87.1663 264.906L86.4788 266.312C84.0803 265.953 82.1741 264.773 81.26 263.172C80.3303 264.773 78.4319 265.953 76.0569 266.312L75.3694 264.906C78.3538 264.516 80.3381 262.719 80.3381 260.938V260.219H82.1663V260.938ZM87.6819 267.531V268.969H82.0725V273.891H80.3538V268.969H74.8069V267.531H87.6819ZM92.5181 268.188C92.5181 271.141 91.6431 273.578 90.1744 275.688H88.2994C89.3775 274.125 90.4556 270.984 90.4556 268.188C90.4556 265.391 89.3775 262.25 88.2994 260.703H90.1744C91.6431 262.797 92.5181 265.25 92.5181 268.188ZM109.628 261.234V262.609H98.0969V261.234H103.019V259.734H104.738V261.234H109.628ZM110.363 268.797V270.203H107.238V273.906H105.488V270.203H102.316V273.906H100.581V270.203H97.4563V268.797H110.363ZM103.878 263.25C106.863 263.25 108.659 264.094 108.659 265.641C108.659 267.172 106.863 268.031 103.878 268.031C100.894 268.031 99.0969 267.172 99.0969 265.641C99.0969 264.094 100.894 263.25 103.878 263.25ZM103.878 264.562C101.925 264.562 100.894 264.922 100.909 265.641C100.894 266.344 101.925 266.719 103.878 266.703C105.831 266.719 106.863 266.344 106.863 265.641C106.863 264.922 105.831 264.562 103.878 264.562ZM123.121 259.766V273.891H121.464V266.688H119.871V273.172H118.277V260.031H119.871V265.297H121.464V259.766H123.121ZM116.683 261.438V262.844H113.152V269.125C114.691 269.109 115.957 269.031 117.386 268.766L117.511 270.188C115.808 270.531 114.324 270.578 112.355 270.594H111.402V261.438H116.683ZM136.16 260.328V261.734H134.223V264.438H136.082V265.797H131.769V267.25H137.348V268.625H124.473V267.25H130.019V265.797H125.707V264.438H127.566V261.734H125.629V260.328H136.16ZM135.894 272.203V273.609H126.066V269.641H127.801V272.203H135.894ZM129.301 264.438H132.473V261.734H129.301V264.438ZM144.848 260.297V261.828H150.942V260.297H152.661V266.031H148.754V267.328H154.333V268.734H141.458V267.328H147.004V266.031H143.129V260.297H144.848ZM144.848 264.641H150.942V263.172H144.848V264.641ZM152.879 272.203V273.609H143.051V269.641H144.786V272.203H152.879ZM166.731 259.781V269.984H164.981V259.781H166.731ZM167.122 272.203V273.609H157.388V268.953H159.138V272.203H167.122ZM159.028 260.703C161.169 260.703 162.825 262.188 162.825 264.234C162.825 266.328 161.169 267.781 159.028 267.781C156.872 267.781 155.216 266.328 155.216 264.234C155.216 262.188 156.872 260.703 159.028 260.703ZM159.028 262.219C157.825 262.219 156.903 263.016 156.919 264.234C156.903 265.484 157.825 266.266 159.028 266.266C160.2 266.266 161.122 265.484 161.122 264.234C161.122 263.016 160.2 262.219 159.028 262.219ZM180.239 259.781V269.984H178.489V259.781H180.239ZM180.63 272.203V273.609H170.896V268.953H172.646V272.203H180.63ZM172.536 260.703C174.677 260.703 176.333 262.188 176.333 264.234C176.333 266.328 174.677 267.781 172.536 267.781C170.38 267.781 168.724 266.328 168.724 264.234C168.724 262.188 170.38 260.703 172.536 260.703ZM172.536 262.219C171.333 262.219 170.411 263.016 170.427 264.234C170.411 265.484 171.333 266.266 172.536 266.266C173.708 266.266 174.63 265.484 174.63 264.234C174.63 263.016 173.708 262.219 172.536 262.219ZM194.857 266.344V267.75H181.982V266.344H194.857ZM188.404 268.688C191.451 268.688 193.279 269.641 193.294 271.281C193.279 272.938 191.451 273.875 188.404 273.875C185.326 273.875 183.482 272.938 183.482 271.281C183.482 269.641 185.326 268.688 188.404 268.688ZM188.404 270.047C186.341 270.047 185.232 270.469 185.248 271.281C185.232 272.094 186.341 272.516 188.404 272.516C190.419 272.516 191.544 272.094 191.56 271.281C191.544 270.469 190.419 270.047 188.404 270.047ZM193.701 260.438V261.859H189.623C189.88 263.031 191.576 264.086 194.248 264.344L193.638 265.719C191.076 265.445 189.169 264.438 188.404 263C187.638 264.43 185.763 265.445 183.201 265.719L182.607 264.344C185.224 264.086 186.927 263.031 187.201 261.859H183.154V260.438H193.701ZM211.858 266.531V267.922H198.967V266.531H204.561V265.188H200.545V260.406H210.295V261.766H202.279V263.812H210.373V265.188H206.264V266.531H211.858ZM205.389 268.734C208.436 268.734 210.264 269.656 210.279 271.312C210.264 272.953 208.436 273.891 205.389 273.891C202.311 273.891 200.467 272.953 200.467 271.312C200.467 269.656 202.311 268.734 205.389 268.734ZM205.389 270.062C203.326 270.062 202.217 270.5 202.233 271.312C202.217 272.125 203.326 272.547 205.389 272.547C207.404 272.547 208.529 272.125 208.545 271.312C208.529 270.5 207.404 270.062 205.389 270.062ZM217.053 260.75C219.288 260.734 220.928 262.156 220.944 264.156C220.928 266.172 219.288 267.578 217.053 267.578C214.834 267.578 213.178 266.172 213.178 264.156C213.178 262.156 214.834 260.734 217.053 260.75ZM217.053 262.25C215.819 262.25 214.897 262.984 214.897 264.156C214.897 265.344 215.819 266.062 217.053 266.062C218.303 266.062 219.241 265.344 219.241 264.156C219.241 262.984 218.303 262.25 217.053 262.25ZM224.241 259.766V273.906H222.506V259.766H224.241ZM212.538 269.531C215.084 269.531 218.616 269.5 221.663 269.062L221.803 270.328C218.631 270.938 215.241 270.953 212.756 270.953L212.538 269.531Z" fill="#111827"/>
<mask id="mask2_937_380" style="mask-type:alpha" maskUnits="userSpaceOnUse" x="226" y="249" width="35" height="35">
<rect x="226" y="249" width="35" height="35" fill="#D9D9D9"/>
</mask>
<g mask="url(#mask2_937_380)">
<path d="M243.5 270.489C243.344 270.489 243.202 270.463 243.074 270.412C242.946 270.361 242.821 270.275 242.701 270.155L235.9 263.354C235.724 263.178 235.636 262.963 235.637 262.709C235.637 262.454 235.73 262.234 235.915 262.049C236.1 261.864 236.317 261.771 236.568 261.771C236.817 261.771 237.035 261.864 237.22 262.049L243.5 268.345L249.795 262.049C249.971 261.874 250.184 261.786 250.433 261.786C250.683 261.786 250.9 261.879 251.085 262.064C251.27 262.249 251.363 262.467 251.363 262.717C251.363 262.967 251.27 263.184 251.085 263.369L244.299 270.155C244.179 270.275 244.055 270.361 243.926 270.412C243.798 270.463 243.656 270.489 243.5 270.489Z" fill="#6B7280"/>
</g>
<path d="M327.457 266.501L331.185 271.106L337.545 261.457" stroke="#0077FA" stroke-width="2" stroke-linecap="round" stroke-linejoin="round"/>
<circle cx="332.5" cy="266.5" r="11.5" stroke="#0077FA" stroke-width="2"/>
<rect x="35" y="330" width="330" height="56" rx="8" fill="#0077FA"/>
<path d="M197.596 350.262V354.938H199.846V356.309H197.596V360.861H195.926V350.262H197.596ZM185.098 359.104C186.32 359.104 187.735 359.104 189.211 359.051V357.996C187.418 357.812 186.276 356.968 186.293 355.693C186.276 354.252 187.77 353.355 190.037 353.373C192.287 353.355 193.782 354.252 193.782 355.693C193.782 356.959 192.657 357.803 190.881 357.996V358.998C192.287 358.928 193.711 358.813 195.03 358.629L195.17 359.824C191.778 360.422 188.051 360.439 185.274 360.439L185.098 359.104ZM197.596 361.6V365.994H195.926V362.9H187.067V361.6H197.596ZM194.59 351.598V352.846H185.502V351.598H189.211V350.121H190.881V351.598H194.59ZM190.037 354.516C188.684 354.498 187.875 354.938 187.875 355.693C187.875 356.432 188.684 356.906 190.037 356.906C191.373 356.906 192.182 356.432 192.182 355.693C192.182 354.938 191.373 354.498 190.037 354.516ZM213.461 350.262V361.705H211.791V350.262H213.461ZM213.935 364.307V365.66H203.16V360.545H204.847V364.307H213.935ZM204.918 351.316C207.291 351.316 209.101 352.934 209.101 355.219C209.101 357.539 207.291 359.139 204.918 359.139C202.545 359.139 200.716 357.539 200.716 355.219C200.716 352.934 202.545 351.316 204.918 351.316ZM204.918 352.775C203.441 352.775 202.351 353.777 202.351 355.219C202.351 356.695 203.441 357.68 204.918 357.68C206.359 357.68 207.466 356.695 207.466 355.219C207.466 353.777 206.359 352.775 204.918 352.775Z" fill="white"/>
</svg>
