<svg width="400" height="643" viewBox="0 0 400 643" fill="none" xmlns="http://www.w3.org/2000/svg">
<rect width="400" height="643" fill="white"/>
<mask id="mask0_907_2891" style="mask-type:alpha" maskUnits="userSpaceOnUse" x="345" y="20" width="30" height="30">
<rect x="345" y="20" width="30" height="30" fill="#D9D9D9"/>
</mask>
<g mask="url(#mask0_907_2891)">
<path d="M360.001 36.6582L353.684 42.9754C353.454 43.205 353.178 43.3198 352.855 43.3198C352.532 43.3198 352.256 43.205 352.026 42.9754C351.796 42.7458 351.682 42.4696 351.682 42.1466C351.682 41.8237 351.796 41.5475 352.026 41.3179L358.343 35.0007L352.026 28.6835C351.796 28.4539 351.682 28.1777 351.682 27.8548C351.682 27.5319 351.796 27.2556 352.026 27.026C352.256 26.7964 352.532 26.6816 352.855 26.6816C353.178 26.6816 353.454 26.7964 353.684 27.026L360.001 33.3432L366.318 27.026C366.547 26.7964 366.824 26.6816 367.147 26.6816C367.47 26.6816 367.746 26.7964 367.975 27.026C368.205 27.2556 368.32 27.5319 368.32 27.8548C368.32 28.1777 368.205 28.4539 367.975 28.6835L361.658 35.0007L367.975 41.3179C368.205 41.5475 368.32 41.8237 368.32 42.1466C368.32 42.4696 368.205 42.7458 367.975 42.9754C367.746 43.205 367.47 43.3198 367.147 43.3198C366.824 43.3198 366.547 43.205 366.318 42.9754L360.001 36.6582Z" fill="#111827"/>
</g>
<path d="M43.8438 86.2422V88.0234H26.7578V86.2422H34.2344V83.8984H36.4375V86.2422H43.8438ZM44.9922 97.4219V99.2266H40.1406V105.016H37.8906V99.2266H32.8281V105.016H30.6016V99.2266H25.7734V97.4219H44.9922ZM35.3359 89.1016C39.6953 89.1016 42.3203 90.3438 42.3203 92.6172C42.3203 94.8672 39.6953 96.1328 35.3359 96.1328C30.9531 96.1328 28.3281 94.8672 28.3516 92.6172C28.3281 90.3438 30.9531 89.1016 35.3359 89.1016ZM35.3359 90.7891C32.3125 90.8125 30.6484 91.4219 30.6484 92.6172C30.6484 93.7891 32.3125 94.4219 35.3359 94.4219C38.3359 94.4219 40 93.7891 40.0234 92.6172C40 91.4219 38.3359 90.8125 35.3359 90.7891ZM64.5391 83.9922V104.992H62.4062V94.1406H59.6875V103.914H57.6484V84.4141H59.6875V92.3125H62.4062V83.9922H64.5391ZM55.0938 86.5234V88.3281H49.4453V98.0547C52.0234 98.0312 53.9688 97.9141 56.2188 97.4922L56.3828 99.3203C53.8516 99.8359 51.6953 99.9297 48.625 99.9531H47.2188V86.5234H55.0938ZM84.6016 84.8828V86.7109H81.5547V91.1172H84.5078V92.875H77.9219V95.2422H86.4062V97.0234H67.2578V95.2422H75.7188V92.875H69.1094V91.1172H72.0859V86.7109H69.0156V84.8828H84.6016ZM84.25 102.742V104.547H69.6719V98.7109H71.9219V102.742H84.25ZM74.2891 91.1172H79.3281V86.7109H74.2891V91.1172ZM111.367 84.0156V99.5312H109.141V91.6094H104.547V96.0391H94.8672V85.3984H97.0938V88.9609H102.344V85.3984H104.547V89.8047H109.141V84.0156H111.367ZM111.836 102.742V104.547H97.6562V98.0078H99.9062V102.742H111.836ZM97.0938 94.2344H102.344V90.6719H97.0938V94.2344ZM132.789 86.9453V88.75H115.516V86.9453H123.062V84.2969H125.266V86.9453H132.789ZM133.82 100.82V102.625H114.602V100.82H123.062V98.0312C119.383 97.8086 117.156 96.3555 117.156 94.0234C117.156 91.4922 119.828 90.0156 124.164 90.0156C128.453 90.0156 131.148 91.4922 131.148 94.0234C131.148 96.3555 128.91 97.8086 125.266 98.0312V100.82H133.82ZM124.164 91.7734C121.164 91.7734 119.406 92.5703 119.43 94.0234C119.406 95.4766 121.164 96.2734 124.164 96.2969C127.117 96.2734 128.875 95.4766 128.875 94.0234C128.875 92.5703 127.117 91.7734 124.164 91.7734ZM154.539 93.625V95.3359H135.32V93.625H154.539ZM152.172 96.8125V101.43H139.844V103.164H152.828V104.734H137.617V99.9531H149.969V98.4062H137.594V96.8125H152.172ZM152.125 84.5312V89.0781H139.984V90.6719H152.477V92.2422H137.781V87.6016H149.898V86.1016H137.734V84.5312H152.125ZM178.445 83.9922V88.375H181.492V90.2266H178.445V94.6094H176.219V83.9922H178.445ZM178.445 95.5703V100.891H167.102V102.953H179.172V104.734H164.922V99.2266H176.242V97.3047H164.875V95.5703H178.445ZM167.781 84.7188C170.969 84.7188 173.289 86.6406 173.289 89.4062C173.289 92.1719 170.969 94.0938 167.781 94.0938C164.594 94.0938 162.25 92.1719 162.273 89.4062C162.25 86.6406 164.594 84.7188 167.781 84.7188ZM167.781 86.5469C165.836 86.5469 164.43 87.6953 164.43 89.4062C164.43 91.1172 165.836 92.3125 167.781 92.3125C169.703 92.3125 171.133 91.1172 171.133 89.4062C171.133 87.6953 169.703 86.5469 167.781 86.5469ZM200.172 83.9922V105.039H197.969V96.25H193.867V94.3984H197.969V90.5078H193.984V88.6797H197.969V83.9922H200.172ZM192.719 85.8438V93.5078H185.688V98.3359C188.664 98.3242 191.148 98.1836 194.148 97.75L194.336 99.5781C191.055 100.094 188.383 100.188 185.055 100.188H183.461V91.75H190.539V87.6484H183.414V85.8438H192.719ZM222.578 95.8281V97.6328H214.047V104.969H211.867V97.6328H203.43V95.8281H222.578ZM220.773 85.2344V87.0156H214.281C214.316 89.6172 217.551 91.9375 221.523 92.4766L220.703 94.2344C217.258 93.6953 214.281 91.9961 213.016 89.5938C211.715 91.9961 208.75 93.6953 205.352 94.2344L204.508 92.4766C208.434 91.9375 211.668 89.6172 211.75 87.0156H205.211V85.2344H220.773ZM230.57 89.7344C230.57 93.0859 231.977 96.6719 234.789 98.3828L233.547 100.094C231.578 98.9102 230.242 96.8125 229.539 94.375C228.754 97.0469 227.312 99.3203 225.273 100.562L223.891 98.8984C226.867 97.1172 228.414 93.4141 228.414 89.8281V85.9141H230.57V89.7344ZM242.242 83.9922V104.992H240.109V83.9922H242.242ZM237.883 84.3906V103.961H235.773V93.2266H232.516V91.375H235.773V84.3906H237.883ZM264.133 100.516V102.367H244.914V100.516H249.508V95.0312C247.785 94.082 246.742 92.5703 246.742 90.6953C246.742 87.3906 249.977 85.2109 254.477 85.2109C259 85.2109 262.234 87.3906 262.234 90.6953C262.234 92.5469 261.227 94.0352 259.539 94.9844V100.516H264.133ZM254.477 86.9922C251.172 86.9922 248.898 88.4219 248.898 90.6953C248.898 92.9453 251.172 94.4219 254.477 94.4219C257.758 94.4219 260.078 92.9453 260.078 90.6953C260.078 88.4219 257.758 86.9922 254.477 86.9922ZM251.711 100.516H257.289V95.8281C256.434 96.0508 255.484 96.1562 254.477 96.1562C253.492 96.1562 252.555 96.0508 251.711 95.8516V100.516ZM268.047 103.164C267.133 103.164 266.359 102.414 266.383 101.5C266.359 100.586 267.133 99.8359 268.047 99.8359C268.938 99.8359 269.711 100.586 269.711 101.5C269.711 102.414 268.938 103.164 268.047 103.164Z" fill="#111827"/>
<path d="M39.0449 163.537V164.662H26.3711V163.537H32.0664V161.709H33.4199V163.537H39.0449ZM39.9414 171.781V172.924H36.1621V177.459H34.791V172.924H30.748V177.459H29.3594V172.924H25.6328V171.781H39.9414ZM32.752 165.559C35.9336 165.559 37.8496 166.473 37.8496 168.143C37.8496 169.795 35.9336 170.727 32.752 170.727C29.5527 170.727 27.6367 169.795 27.6543 168.143C27.6367 166.473 29.5527 165.559 32.752 165.559ZM32.752 166.613C30.4141 166.631 29.0605 167.176 29.0781 168.143C29.0605 169.109 30.4141 169.654 32.752 169.654C35.0547 169.654 36.4082 169.109 36.4258 168.143C36.4082 167.176 35.0547 166.631 32.752 166.613ZM54.5488 161.797V177.424H53.2305V169.232H50.9277V176.615H49.6621V162.148H50.9277V168.09H53.2305V161.797H54.5488ZM47.623 163.713V164.855H43.1406V172.379C45.2939 172.37 46.7881 172.291 48.5195 171.939L48.6426 173.1C46.7617 173.486 45.1621 173.557 42.7715 173.557H41.7695V163.713H47.623ZM69.6309 162.518V163.66H67.2227V167.246H69.5781V168.354H64.5508V170.27H70.9844V171.395H56.7461V170.27H63.1797V168.354H58.1348V167.246H60.4902V163.66H58.082V162.518H69.6309ZM69.4023 175.93V177.09H58.5918V172.766H59.9805V175.93H69.4023ZM61.8613 167.246H65.8516V163.66H61.8613V167.246ZM89.7754 161.814V173.381H88.3867V167.369H84.6953V170.709H77.6113V162.852H78.9824V165.629H83.3418V162.852H84.6953V166.209H88.3867V161.814H89.7754ZM90.127 175.93V177.09H79.668V172.238H81.0566V175.93H90.127ZM78.9824 169.566H83.3418V166.719H78.9824V169.566ZM105.877 164.117V165.26H93.0801V164.117H98.8105V162.061H100.164V164.117H105.877ZM106.686 174.453V175.596H92.377V174.453H98.8105V172.256C96.0332 172.106 94.3457 171.025 94.3633 169.268C94.3457 167.404 96.3145 166.314 99.4961 166.332C102.643 166.314 104.629 167.404 104.629 169.268C104.629 171.025 102.924 172.106 100.164 172.256V174.453H106.686ZM99.4961 167.422C97.1582 167.422 95.7344 168.107 95.752 169.268C95.7344 170.463 97.1582 171.131 99.4961 171.148C101.799 171.131 103.223 170.463 103.223 169.268C103.223 168.107 101.799 167.422 99.4961 167.422Z" fill="#0077FA"/>
<mask id="path-5-inside-1_907_2891" fill="white">
<path d="M25 190H375V241H25V190Z"/>
</mask>
<path d="M375 240H25V242H375V240Z" fill="#0077FA" mask="url(#path-5-inside-1_907_2891)"/>
<path d="M31.2549 223.205C27.9531 223.205 26.0664 220.437 26.0664 215.576C26.0664 210.757 27.9941 207.947 31.2549 207.947C34.5156 207.947 36.4434 210.757 36.4434 215.576C36.4434 220.437 34.5361 223.205 31.2549 223.205ZM31.2549 221.564C33.3877 221.564 34.6387 219.411 34.6387 215.576C34.6387 211.741 33.3877 209.547 31.2549 209.547C29.1221 209.547 27.8506 211.741 27.8506 215.576C27.8506 219.411 29.1016 221.564 31.2549 221.564ZM44.1543 208.152V223H42.2881V210.08H42.2061L38.5967 212.479V210.613L42.2881 208.152H44.1543ZM52.9727 223.205C49.6709 223.205 47.7842 220.437 47.7842 215.576C47.7842 210.757 49.7119 207.947 52.9727 207.947C56.2334 207.947 58.1611 210.757 58.1611 215.576C58.1611 220.437 56.2539 223.205 52.9727 223.205ZM52.9727 221.564C55.1055 221.564 56.3564 219.411 56.3564 215.576C56.3564 211.741 55.1055 209.547 52.9727 209.547C50.8398 209.547 49.5684 211.741 49.5684 215.576C49.5684 219.411 50.8193 221.564 52.9727 221.564ZM65.4824 223.205C62.1807 223.205 60.2939 220.437 60.2939 215.576C60.2939 210.757 62.2217 207.947 65.4824 207.947C68.7432 207.947 70.6709 210.757 70.6709 215.576C70.6709 220.437 68.7637 223.205 65.4824 223.205ZM65.4824 221.564C67.6152 221.564 68.8662 219.411 68.8662 215.576C68.8662 211.741 67.6152 209.547 65.4824 209.547C63.3496 209.547 62.0781 211.741 62.0781 215.576C62.0781 219.411 63.3291 221.564 65.4824 221.564ZM77.9922 223.205C74.6904 223.205 72.8037 220.437 72.8037 215.576C72.8037 210.757 74.7314 207.947 77.9922 207.947C81.2529 207.947 83.1807 210.757 83.1807 215.576C83.1807 220.437 81.2734 223.205 77.9922 223.205ZM77.9922 221.564C80.125 221.564 81.376 219.411 81.376 215.576C81.376 211.741 80.125 209.547 77.9922 209.547C75.8594 209.547 74.5879 211.741 74.5879 215.576C74.5879 219.411 75.8389 221.564 77.9922 221.564ZM90.502 223.205C87.2002 223.205 85.3135 220.437 85.3135 215.576C85.3135 210.757 87.2412 207.947 90.502 207.947C93.7627 207.947 95.6904 210.757 95.6904 215.576C95.6904 220.437 93.7832 223.205 90.502 223.205ZM90.502 221.564C92.6348 221.564 93.8857 219.411 93.8857 215.576C93.8857 211.741 92.6348 209.547 90.502 209.547C88.3691 209.547 87.0977 211.741 87.0977 215.576C87.0977 219.411 88.3486 221.564 90.502 221.564ZM103.012 223.205C99.71 223.205 97.8232 220.437 97.8232 215.576C97.8232 210.757 99.751 207.947 103.012 207.947C106.272 207.947 108.2 210.757 108.2 215.576C108.2 220.437 106.293 223.205 103.012 223.205ZM103.012 221.564C105.145 221.564 106.396 219.411 106.396 215.576C106.396 211.741 105.145 209.547 103.012 209.547C100.879 209.547 99.6074 211.741 99.6074 215.576C99.6074 219.411 100.858 221.564 103.012 221.564ZM115.521 223.205C112.22 223.205 110.333 220.437 110.333 215.576C110.333 210.757 112.261 207.947 115.521 207.947C118.782 207.947 120.71 210.757 120.71 215.576C120.71 220.437 118.803 223.205 115.521 223.205ZM115.521 221.564C117.654 221.564 118.905 219.411 118.905 215.576C118.905 211.741 117.654 209.547 115.521 209.547C113.389 209.547 112.117 211.741 112.117 215.576C112.117 219.411 113.368 221.564 115.521 221.564ZM128.031 223.205C124.729 223.205 122.843 220.437 122.843 215.576C122.843 210.757 124.771 207.947 128.031 207.947C131.292 207.947 133.22 210.757 133.22 215.576C133.22 220.437 131.312 223.205 128.031 223.205ZM128.031 221.564C130.164 221.564 131.415 219.411 131.415 215.576C131.415 211.741 130.164 209.547 128.031 209.547C125.898 209.547 124.627 211.741 124.627 215.576C124.627 219.411 125.878 221.564 128.031 221.564ZM140.541 223.205C137.239 223.205 135.353 220.437 135.353 215.576C135.353 210.757 137.28 207.947 140.541 207.947C143.802 207.947 145.729 210.757 145.729 215.576C145.729 220.437 143.822 223.205 140.541 223.205ZM140.541 221.564C142.674 221.564 143.925 219.411 143.925 215.576C143.925 211.741 142.674 209.547 140.541 209.547C138.408 209.547 137.137 211.741 137.137 215.576C137.137 219.411 138.388 221.564 140.541 221.564ZM153.051 223.205C149.749 223.205 147.862 220.437 147.862 215.576C147.862 210.757 149.79 207.947 153.051 207.947C156.312 207.947 158.239 210.757 158.239 215.576C158.239 220.437 156.332 223.205 153.051 223.205ZM153.051 221.564C155.184 221.564 156.435 219.411 156.435 215.576C156.435 211.741 155.184 209.547 153.051 209.547C150.918 209.547 149.646 211.741 149.646 215.576C149.646 219.411 150.897 221.564 153.051 221.564Z" fill="#9CA3AF"/>
<path d="M33.5254 276.012C33.5078 278.104 36.3027 279.879 39.0273 280.283L38.5176 281.373C36.0742 280.96 33.7012 279.659 32.752 277.77C31.8027 279.659 29.4209 280.96 27.0215 281.373L26.4766 280.283C29.1836 279.879 31.9785 278.104 31.9785 276.012V275.906H26.9688V274.781H38.5176V275.906H33.5254V276.012ZM39.8711 282.709V283.852H33.4023V289.424H32.0488V283.852H25.6328V282.709H39.8711ZM49.3457 275.168V282.41H42.0156V275.168H49.3457ZM43.3691 276.311V281.303H47.9922V276.311H43.3691ZM54.0918 273.814V285.047H52.7207V273.814H54.0918ZM54.584 287.754V288.896H44.002V283.957H45.373V287.754H54.584ZM71.002 281.232V282.393H56.7461V281.232H71.002ZM69.332 278.613V279.738H58.5566V274.43H69.2266V275.59H59.9102V278.613H69.332ZM63.8652 283.764C67.2227 283.764 69.2266 284.783 69.2441 286.576C69.2266 288.387 67.2227 289.389 63.8652 289.389C60.4902 289.389 58.4688 288.387 58.4688 286.576C58.4688 284.783 60.4902 283.764 63.8652 283.764ZM63.8652 284.836C61.3516 284.854 59.8574 285.486 59.875 286.576C59.8574 287.684 61.3516 288.299 63.8652 288.299C66.3438 288.299 67.8555 287.684 67.8555 286.576C67.8555 285.486 66.3438 284.854 63.8652 284.836ZM86.5938 282.41V283.553H72.2852V282.41H78.7539V280.758H74.1484V276.943H83.3594V275.326H74.0957V274.201H84.748V277.98H75.5195V279.65H85.082V280.758H80.1074V282.41H86.5938ZM84.8359 284.748V289.283H83.4473V285.873H73.8848V284.748H84.8359ZM100.814 273.814V285.381H99.4258V279.369H95.7344V282.709H88.6504V274.852H90.0215V277.629H94.3809V274.852H95.7344V278.209H99.4258V273.814H100.814ZM101.166 287.93V289.09H90.707V284.238H92.0957V287.93H101.166ZM90.0215 281.566H94.3809V278.719H90.0215V281.566ZM116.916 276.117V277.26H104.119V276.117H109.85V274.061H111.203V276.117H116.916ZM117.725 286.453V287.596H103.416V286.453H109.85V284.256C107.072 284.106 105.385 283.025 105.402 281.268C105.385 279.404 107.354 278.314 110.535 278.332C113.682 278.314 115.668 279.404 115.668 281.268C115.668 283.025 113.963 284.106 111.203 284.256V286.453H117.725ZM110.535 279.422C108.197 279.422 106.773 280.107 106.791 281.268C106.773 282.463 108.197 283.131 110.535 283.148C112.838 283.131 114.262 282.463 114.262 281.268C114.262 280.107 112.838 279.422 110.535 279.422Z" fill="#9CA3AF"/>
<mask id="path-9-inside-2_907_2891" fill="white">
<path d="M25 302H375V353H25V302Z"/>
</mask>
<path d="M375 352H25V354H375V352Z" fill="#D1D5DB" mask="url(#path-9-inside-2_907_2891)"/>
<path d="M31.5625 335.205C28.9888 335.174 26.1484 333.646 26.1484 328.15C26.1484 322.89 28.3018 319.947 31.7881 319.947C34.4028 319.947 36.228 321.557 36.6074 323.885H34.7822C34.4438 322.572 33.439 321.588 31.7881 321.588C29.3477 321.588 27.8813 323.669 27.8916 327.248H28.0762C28.9272 326.007 30.291 325.279 31.8906 325.279C34.5259 325.279 36.7305 327.33 36.7305 330.201C36.7305 333 34.6899 335.236 31.5625 335.205ZM28.1377 330.242C28.1479 331.985 29.5732 333.575 31.5625 333.585C33.48 333.575 34.936 332.067 34.9463 330.222C34.936 328.396 33.5415 326.91 31.6035 326.899C29.6553 326.91 28.1582 328.489 28.1377 330.242ZM44.4004 335.205C41.4473 335.205 39.3247 333.626 39.2324 331.268H41.0986C41.2012 332.683 42.606 333.564 44.3799 333.564C46.3384 333.564 47.7534 332.508 47.7637 330.96C47.7534 329.34 46.4614 328.202 44.1543 328.191H42.9443V326.571H44.1543C45.959 326.571 47.2202 325.556 47.21 324.028C47.2202 322.542 46.1333 321.557 44.4414 321.547C42.8521 321.557 41.4062 322.429 41.3242 323.885H39.54C39.6323 321.526 41.8267 319.947 44.4619 319.947C47.292 319.947 49.0146 321.803 48.9941 323.926C49.0146 325.618 48.0303 326.848 46.4717 327.289V327.392C48.4097 327.689 49.5786 329.073 49.5684 330.96C49.5786 333.4 47.3638 335.205 44.4004 335.205ZM57.0947 335.205C53.8032 335.205 51.896 332.437 51.9062 327.576C51.896 322.757 53.8237 319.947 57.0947 319.947C60.3555 319.947 62.2832 322.757 62.2832 327.576C62.2832 332.437 60.3862 335.205 57.0947 335.205ZM53.6904 327.576C53.7007 331.421 54.9414 333.564 57.0947 333.564C59.2378 333.564 60.4888 331.421 60.4785 327.576C60.4888 323.731 59.2275 321.557 57.0947 321.547C54.9619 321.557 53.7007 323.731 53.6904 327.576ZM64.8057 335L71.6143 321.896V321.793H63.7598V320.152H73.5215V321.875L66.7334 335H64.8057ZM81.1709 320.152V335H79.3047V322.08H79.2227L75.6133 324.479V322.613L79.3047 320.152H81.1709ZM89.9893 335.205C86.6978 335.205 84.7905 332.437 84.8008 327.576C84.7905 322.757 86.7183 319.947 89.9893 319.947C93.25 319.947 95.1777 322.757 95.1777 327.576C95.1777 332.437 93.2808 335.205 89.9893 335.205ZM86.585 327.576C86.5952 331.421 87.8359 333.564 89.9893 333.564C92.1323 333.564 93.3833 331.421 93.373 327.576C93.3833 323.731 92.1221 321.557 89.9893 321.547C87.8564 321.557 86.5952 323.731 86.585 327.576Z" fill="#111827"/>
<path d="M207.793 326.776V328.396H201.292V326.776H207.793ZM225.2 320.152V335H223.334V322.08H223.252L219.642 324.479V322.613L223.334 320.152H225.2ZM239.145 333.998H237.44L237.615 329.814L234.065 332.047L233.221 330.588L236.93 328.637L233.221 326.686L234.065 325.209L237.615 327.441L237.44 323.258H239.145L238.987 327.441L242.537 325.209L243.381 326.686L239.672 328.637L243.381 330.588L242.537 332.047L238.987 329.814L239.145 333.998ZM257.82 333.998H256.115L256.29 329.814L252.74 332.047L251.896 330.588L255.605 328.637L251.896 326.686L252.74 325.209L256.29 327.441L256.115 323.258H257.82L257.662 327.441L261.212 325.209L262.056 326.686L258.347 328.637L262.056 330.588L261.212 332.047L257.662 329.814L257.82 333.998ZM276.495 333.998H274.79L274.965 329.814L271.415 332.047L270.571 330.588L274.28 328.637L270.571 326.686L271.415 325.209L274.965 327.441L274.79 323.258H276.495L276.337 327.441L279.887 325.209L280.731 326.686L277.022 328.637L280.731 330.588L279.887 332.047L276.337 329.814L276.495 333.998ZM295.17 333.998H293.465L293.64 329.814L290.09 332.047L289.246 330.588L292.955 328.637L289.246 326.686L290.09 325.209L293.64 327.441L293.465 323.258H295.17L295.012 327.441L298.562 325.209L299.406 326.686L295.697 328.637L299.406 330.588L298.562 332.047L295.012 329.814L295.17 333.998ZM313.845 333.998H312.14L312.315 329.814L308.765 332.047L307.921 330.588L311.63 328.637L307.921 326.686L308.765 325.209L312.315 327.441L312.14 323.258H313.845L313.687 327.441L317.237 325.209L318.081 326.686L314.372 328.637L318.081 330.588L317.237 332.047L313.687 329.814L313.845 333.998ZM332.52 333.998H330.815L330.99 329.814L327.44 332.047L326.596 330.588L330.305 328.637L326.596 326.686L327.44 325.209L330.99 327.441L330.815 323.258H332.52L332.362 327.441L335.912 325.209L336.756 326.686L333.047 328.637L336.756 330.588L335.912 332.047L332.362 329.814L332.52 333.998Z" fill="#111827"/>
<path d="M38.5176 385.797V401.459H37.1289V385.797H38.5176ZM30.2031 387.01C32.5234 387.027 34.1934 389.137 34.1934 392.459C34.1934 395.781 32.5234 397.891 30.2031 397.891C27.8652 397.891 26.2129 395.781 26.2129 392.459C26.2129 389.137 27.8652 387.027 30.2031 387.01ZM30.2031 388.24C28.6387 388.258 27.5488 389.91 27.5488 392.459C27.5488 395.008 28.6387 396.66 30.2031 396.66C31.7676 396.66 32.8574 395.008 32.8574 392.459C32.8574 389.91 31.7676 388.258 30.2031 388.24ZM55.4805 393.865V395.008H41.1719V393.865H55.4805ZM53.6348 386.184V389.875H44.4062V391.439H53.9688V392.512H43.0352V388.838H52.2461V387.291H42.9824V386.184H53.6348ZM53.6348 396.432V401.213H43.123V396.432H53.6348ZM44.4766 397.557V400.088H52.2812V397.557H44.4766ZM57.7129 395.148C57.7305 391.826 58.627 389.066 60.2441 386.729H61.5801C60.3848 388.469 59.2773 392.02 59.2773 395.148C59.2773 398.277 60.3848 401.846 61.5801 403.586H60.2441C58.627 401.23 57.7305 398.471 57.7129 395.148ZM75.7656 385.797V393.9H74.4121V385.797H75.7656ZM75.7832 394.691V398.436H67.0117V400.123H76.3457V401.248H65.6582V397.363H74.4121V395.799H65.623V394.691H75.7832ZM68.418 387.449C68.4004 389.664 70.0879 391.615 72.4082 392.371L71.7227 393.443C69.8945 392.819 68.4355 391.51 67.7324 389.822C67.0293 391.642 65.5615 393.074 63.707 393.742L62.9863 392.652C65.3418 391.826 67.0117 389.752 67.0117 387.449V386.254H68.418V387.449ZM91.3926 385.797V395.061H90.0039V392.6H86.3477V393.936H79.1758V386.992H86.3477V388.346H90.0039V385.797H91.3926ZM80.5469 388.117V392.811H84.9941V388.117H80.5469ZM86.207 395.518C89.459 395.518 91.4453 396.59 91.4453 398.471C91.4453 400.334 89.459 401.389 86.207 401.389C82.9551 401.389 80.9688 400.334 80.9688 398.471C80.9688 396.59 82.9551 395.518 86.207 395.518ZM86.207 396.59C83.8164 396.607 82.3223 397.293 82.3398 398.471C82.3223 399.596 83.8164 400.299 86.207 400.299C88.5977 400.299 90.0742 399.596 90.0742 398.471C90.0742 397.293 88.5977 396.607 86.207 396.59ZM86.3477 391.439H90.0039V389.488H86.3477V391.439ZM97.8965 395.148C97.8789 398.471 96.9824 401.23 95.3652 403.586H94.0293C95.2246 401.846 96.332 398.277 96.332 395.148C96.332 392.02 95.2246 388.469 94.0293 386.729H95.3652C96.9824 389.066 97.8789 391.826 97.8965 395.148Z" fill="#9CA3AF"/>
<mask id="path-14-inside-3_907_2891" fill="white">
<path d="M25 414H375V465H25V414Z"/>
</mask>
<path d="M375 464H25V466H375V464Z" fill="#D1D5DB" mask="url(#path-14-inside-3_907_2891)"/>
<path d="M35.3564 431.619C35.3564 436.233 31.9727 439.494 26.5996 440.93L25.9434 439.658C30.4551 438.469 33.2954 436.059 33.6543 432.932H26.9072V431.619H35.3564ZM40.791 430.45V440.745H39.1914V430.45H40.791ZM40.791 441.627V448.415H28.9375V441.627H40.791ZM30.5166 442.919V447.103H39.2119V442.919H30.5166ZM46.1025 432.173V436.623H50.0605V432.173H51.5576V444.108H44.5645V432.173H46.1025ZM46.1025 442.775H50.0605V437.936H46.1025V442.775ZM59.5146 430.43V448.661H57.9561V439.002H55.4131V447.738H53.875V430.819H55.4131V437.669H57.9561V430.43H59.5146ZM70.3428 430.778C74.3008 430.778 76.7822 432.05 76.7822 434.224C76.7822 436.356 74.3008 437.607 70.3428 437.607C66.3848 437.607 63.8828 436.356 63.8828 434.224C63.8828 432.05 66.3848 430.778 70.3428 430.778ZM70.3428 432.05C67.3896 432.05 65.5234 432.85 65.5439 434.224C65.5234 435.557 67.3896 436.336 70.3428 436.336C73.2549 436.336 75.1416 435.557 75.1416 434.224C75.1416 432.85 73.2549 432.05 70.3428 432.05ZM76.6182 442.427V448.415H64.0674V442.427H69.543V440.335H62.0371V439.002H78.6484V440.335H71.1221V442.427H76.6182ZM65.667 443.719V447.103H75.0391V443.719H65.667Z" fill="#111827"/>
</svg>
