<svg width="400" height="727" viewBox="0 0 400 727" fill="none" xmlns="http://www.w3.org/2000/svg">
<rect width="400" height="727" fill="#EBF5FF"/>
<rect width="400" height="58" fill="#EBF5FF"/>
<path d="M374.001 30.4008L369.101 35.3008C368.917 35.4841 368.684 35.5758 368.401 35.5758C368.117 35.5758 367.884 35.4841 367.701 35.3008C367.517 35.1174 367.426 34.8841 367.426 34.6008C367.426 34.3174 367.517 34.0841 367.701 33.9008L372.601 29.0008L367.701 24.1008C367.517 23.9174 367.426 23.6841 367.426 23.4008C367.426 23.1174 367.517 22.8841 367.701 22.7008C367.884 22.5174 368.117 22.4258 368.401 22.4258C368.684 22.4258 368.917 22.5174 369.101 22.7008L374.001 27.6008L378.901 22.7008C379.084 22.5174 379.317 22.4258 379.601 22.4258C379.884 22.4258 380.117 22.5174 380.301 22.7008C380.484 22.8841 380.576 23.1174 380.576 23.4008C380.576 23.6841 380.484 23.9174 380.301 24.1008L375.401 29.0008L380.301 33.9008C380.484 34.0841 380.576 34.3174 380.576 34.6008C380.576 34.8841 380.484 35.1174 380.301 35.3008C380.117 35.4841 379.884 35.5758 379.601 35.5758C379.317 35.5758 379.084 35.4841 378.901 35.3008L374.001 30.4008Z" fill="black"/>
<path d="M57.4581 128.775C57.4581 132.148 59.6924 135.607 62.3995 136.939L61.3682 138.293C59.2627 137.187 57.501 134.931 56.6631 132.277C55.8038 135.103 53.9991 137.509 51.8506 138.658L50.7764 137.305C53.5694 135.93 55.7823 132.256 55.8038 128.775V125.295H57.4581V128.775ZM65.837 123.641V131.396H69.0381V132.857H65.837V142.74H64.1612V123.641H65.837ZM87.0317 133.094V134.49H69.6294V133.094H73.9477V130.408C72.4223 129.817 71.563 128.84 71.563 127.551C71.563 125.295 74.1411 124.006 78.3306 124.006C82.477 124.006 85.0766 125.295 85.0766 127.551C85.0766 128.829 84.228 129.807 82.7134 130.387V133.094H87.0317ZM78.3306 135.951C82.4341 135.951 84.8833 137.133 84.9048 139.324C84.8833 141.494 82.4341 142.697 78.3306 142.697C74.1841 142.697 71.7348 141.494 71.7348 139.324C71.7348 137.133 74.1841 135.951 78.3306 135.951ZM78.3306 137.24C75.2583 137.262 73.4321 138.014 73.4536 139.324C73.4321 140.613 75.2583 141.387 78.3306 141.387C81.3598 141.387 83.2075 140.613 83.2075 139.324C83.2075 138.014 81.3598 137.262 78.3306 137.24ZM78.3306 125.338C75.2153 125.338 73.2817 126.176 73.3032 127.551C73.2817 128.947 75.2153 129.764 78.3306 129.764C81.4243 129.764 83.3579 128.947 83.3579 127.551C83.3579 126.176 81.4243 125.338 78.3306 125.338ZM75.6235 133.094H81.0376V130.859C80.2319 130.999 79.3296 131.074 78.3306 131.074C77.3315 131.074 76.4292 130.999 75.6235 130.859V133.094ZM102.984 123.641V131.525H106.185V132.922H102.984V142.74H101.309V123.641H102.984ZM99.4609 126.713V128.109H88.0956V126.713H93.0155V123.877H94.6913V126.713H99.4609ZM93.8749 129.699C96.582 129.699 98.537 131.504 98.5585 134.082C98.537 136.66 96.582 138.465 93.8749 138.465C91.1464 138.465 89.1698 136.66 89.1913 134.082C89.1698 131.504 91.1464 129.699 93.8749 129.699ZM93.8749 131.117C92.0917 131.117 90.7812 132.363 90.8027 134.082C90.7812 135.822 92.0917 137.047 93.8749 137.025C95.6366 137.047 96.9257 135.822 96.9472 134.082C96.9257 132.363 95.6366 131.117 93.8749 131.117ZM122.525 123.641V133.545H120.87V123.641H122.525ZM122.546 134.512V139.088H111.826V141.15H123.234V142.525H110.171V137.777H120.87V135.865H110.128V134.512H122.546ZM113.544 125.66C113.523 128.367 115.585 130.752 118.421 131.676L117.583 132.986C115.349 132.224 113.566 130.623 112.706 128.561C111.847 130.784 110.053 132.535 107.786 133.352L106.906 132.02C109.785 131.01 111.826 128.475 111.826 125.66V124.199H113.544V125.66ZM146.18 123.641V142.783H144.483V123.641H146.18ZM133.225 125.273V130.322H138.918V125.273H140.573V138.164H131.549V125.273H133.225ZM133.225 136.746H138.918V131.676H133.225V136.746ZM158.974 124.715V132.492H150.015V124.715H158.974ZM151.67 126.09V131.16H157.32V126.09H151.67ZM164.754 123.641V133.502H163.099V123.641H164.754ZM164.754 134.447V139.002H154.054V141.15H165.441V142.525H152.379V137.756H163.099V135.801H152.357V134.447H164.754ZM183.413 123.662V137.799H181.716V130.451H177.204V134.533H168.546V124.93H170.222V128.324H175.55V124.93H177.204V129.033H181.716V123.662H183.413ZM183.843 140.914V142.332H171.06V136.402H172.757V140.914H183.843ZM170.222 133.137H175.55V129.656H170.222V133.137ZM202.653 126.477V127.873H187.012V126.477H194.016V123.963H195.67V126.477H202.653ZM203.641 139.109V140.506H186.153V139.109H194.016V136.424C190.622 136.241 188.559 134.92 188.581 132.771C188.559 130.494 190.965 129.162 194.854 129.184C198.7 129.162 201.128 130.494 201.128 132.771C201.128 134.92 199.044 136.241 195.67 136.424V139.109H203.641ZM194.854 130.516C191.997 130.516 190.256 131.354 190.278 132.771C190.256 134.232 191.997 135.049 194.854 135.07C197.669 135.049 199.409 134.232 199.409 132.771C199.409 131.354 197.669 130.516 194.854 130.516ZM222.193 132.514V133.846H204.705V132.514H222.193ZM220.002 135.371V139.432H208.529V141.258H220.625V142.482H206.832V138.271H218.326V136.639H206.811V135.371H220.002ZM219.938 124.221V128.174H208.658V129.85H220.281V131.074H206.982V127.014H218.24V125.445H206.918V124.221H219.938ZM245.806 132.729V134.146H228.382V132.729H245.806ZM243.765 129.527V130.902H230.595V124.414H243.636V125.832H232.249V129.527H243.765ZM237.083 135.822C241.186 135.822 243.636 137.068 243.657 139.26C243.636 141.473 241.186 142.697 237.083 142.697C232.958 142.697 230.487 141.473 230.487 139.26C230.487 137.068 232.958 135.822 237.083 135.822ZM237.083 137.133C234.011 137.154 232.184 137.928 232.206 139.26C232.184 140.613 234.011 141.365 237.083 141.365C240.112 141.365 241.96 140.613 241.96 139.26C241.96 137.928 240.112 137.154 237.083 137.133ZM264.422 134.168V135.564H246.934V134.168H254.84V132.148H249.211V127.486H260.469V125.51H249.147V124.135H262.166V128.754H250.887V130.795H262.575V132.148H256.494V134.168H264.422ZM262.274 137.025V142.568H260.576V138.4H248.889V137.025H262.274ZM275.068 126.949V128.324H265.486V126.949H269.461V124.221H271.136V126.949H275.068ZM270.277 129.613C272.683 129.613 274.402 131.418 274.424 133.953C274.402 136.51 272.683 138.336 270.277 138.336C267.892 138.336 266.174 136.51 266.174 133.953C266.174 131.418 267.892 129.613 270.277 129.613ZM270.277 131.031C268.773 131.053 267.678 132.277 267.678 133.953C267.678 135.65 268.773 136.875 270.277 136.854C271.803 136.875 272.92 135.65 272.92 133.953C272.92 132.277 271.803 131.053 270.277 131.031ZM281.793 123.641V142.74H280.181V133.094H277.646V141.795H276.056V124.113H277.646V131.697H280.181V123.641H281.793ZM298.831 126.348C298.809 128.904 302.225 131.074 305.555 131.568L304.932 132.9C301.946 132.396 299.046 130.806 297.885 128.496C296.725 130.806 293.814 132.396 290.881 132.9L290.215 131.568C293.524 131.074 296.94 128.904 296.94 126.348V126.219H290.817V124.844H304.932V126.219H298.831V126.348ZM306.587 134.533V135.93H298.68V142.74H297.026V135.93H289.184V134.533H306.587ZM313.43 129.076C313.43 132.105 314.912 135.393 317.447 136.896L316.481 138.207C314.644 137.09 313.322 135.049 312.656 132.729C311.947 135.264 310.529 137.444 308.617 138.615L307.543 137.348C310.186 135.801 311.797 132.406 311.797 129.141V125.445H313.43V129.076ZM324.129 123.641V142.74H322.496V123.641H324.129ZM320.176 124.049V141.773H318.586V131.934H315.342V130.494H318.586V124.049H320.176ZM343.82 138.873V140.291H326.332V138.873H330.671V133.717C329.039 132.868 328.05 131.493 328.05 129.764C328.05 126.799 330.951 124.865 335.033 124.844C339.115 124.865 342.015 126.799 342.015 129.764C342.015 131.461 341.059 132.825 339.48 133.674V138.873H343.82ZM335.033 126.24C331.896 126.219 329.683 127.637 329.683 129.764C329.683 131.891 331.896 133.33 335.033 133.33C338.148 133.33 340.382 131.891 340.382 129.764C340.382 127.637 338.148 126.219 335.033 126.24ZM332.326 138.873H337.783V134.318C336.956 134.544 336.032 134.662 335.033 134.662C334.055 134.662 333.142 134.555 332.326 134.34V138.873ZM346.925 141.129C346.173 141.129 345.528 140.506 345.55 139.732C345.528 138.98 346.173 138.357 346.925 138.357C347.677 138.357 348.3 138.98 348.3 139.732C348.3 140.506 347.677 141.129 346.925 141.129Z" fill="#222222"/>
<circle cx="115" cy="239" r="10" fill="#0077FA"/>
<circle cx="149" cy="239" r="10" fill="#0077FA"/>
<circle cx="183" cy="239" r="10" fill="#0077FA"/>
<circle cx="217" cy="239" r="10" fill="#0077FA"/>
<circle cx="251" cy="239" r="10" fill="#0077FA"/>
<circle cx="285" cy="239" r="10" fill="#CEDFE0"/>
</svg>
