<svg width="400" height="727" viewBox="0 0 400 727" fill="none" xmlns="http://www.w3.org/2000/svg">
<rect width="400" height="727" fill="white"/>
<path d="M198.42 83.1166L189.399 79.8319L183 85.148L195.831 89.7517C197.442 90.3308 199.239 90.0076 200.551 88.906L217 75.0704L210.814 72.8184L198.42 83.1166Z" fill="#0047A0"/>
<path d="M208.477 71.9661L216.998 64.8851L204.169 60.283C202.558 59.7039 200.761 60.0271 199.449 61.1286L183 74.9627L191.521 78.0666L201.792 69.5318L208.477 71.9661Z" fill="#CD2E3A"/>
<path opacity="0.5" d="M208.478 71.9676L201.794 69.5332L191.521 78.0681L198.207 80.5024L208.478 71.9676Z" fill="#3F4D56"/>
<path d="M208.478 71.9676L201.794 69.5332L191.521 78.0681L198.207 80.5024L208.478 71.9676Z" fill="#091F2C"/>
<path d="M106.63 139.595V141.748H89.5474V139.595H96.7456V135.78H91.3521V126.634H104.723V135.78H99.3501V139.595H106.63ZM93.9361 128.726V133.729H102.139V128.726H93.9361ZM122.001 125.26V132.232H124.749V134.427H122.001V143.922H119.376V125.26H122.001ZM110.476 126.736V131.289H114.352V126.736H116.956V139.595H107.872V126.736H110.476ZM110.476 137.482H114.352V133.319H110.476V137.482ZM130.318 125.813C133.148 125.813 135.301 127.577 135.301 130.079C135.301 132.54 133.148 134.324 130.318 134.324C127.426 134.324 125.293 132.54 125.293 130.079C125.293 127.577 127.426 125.813 130.318 125.813ZM130.318 127.946C128.882 127.946 127.816 128.726 127.836 130.079C127.816 131.412 128.882 132.212 130.318 132.212C131.733 132.212 132.779 131.412 132.779 130.079C132.779 128.726 131.733 127.946 130.318 127.946ZM140.633 125.26V134.611H138.008V125.26H140.633ZM140.633 135.391V140.456H130.707V141.666H141.146V143.717H128.144V138.549H138.029V137.4H128.103V135.391H140.633ZM162.782 125.28V138.897H160.157V125.28H162.782ZM163.275 141.502V143.594H150.273V137.585H152.918V141.502H163.275ZM154.313 128.11C154.292 130.571 155.605 132.991 158.681 133.976L157.348 136.026C155.246 135.329 153.79 133.935 152.959 132.15C152.129 134.068 150.632 135.606 148.447 136.354L147.094 134.283C150.232 133.237 151.585 130.633 151.585 128.11V126.306H154.313V128.11ZM181.947 134.837V136.888H174.913V139.902H172.329V136.888H164.864V134.837H181.947ZM180.061 141.502V143.594H166.874V138.426H169.458V141.502H180.061ZM169.643 125.854V127.803H177.128V125.854H179.733V133.524H167.059V125.854H169.643ZM169.643 131.453H177.128V129.751H169.643V131.453ZM199.636 133.853V135.965H182.614V133.853H199.636ZM191.105 137.011C195.145 137.011 197.585 138.282 197.606 140.477C197.585 142.691 195.145 143.922 191.105 143.922C187.023 143.922 184.563 142.691 184.563 140.477C184.563 138.282 187.023 137.011 191.105 137.011ZM191.105 139.041C188.521 139.041 187.208 139.492 187.229 140.477C187.208 141.44 188.521 141.892 191.105 141.892C193.627 141.892 194.96 141.44 194.981 140.477C194.96 139.492 193.627 139.041 191.105 139.041ZM198.098 126.121V128.213H193.012C193.432 129.515 195.329 130.807 198.918 131.125L197.995 133.176C194.478 132.837 192.099 131.504 191.105 129.689C190.12 131.504 187.782 132.837 184.234 133.176L183.373 131.125C186.88 130.807 188.797 129.525 189.238 128.213H184.173V126.121H198.098ZM208.854 125.526C213.141 125.526 215.622 126.654 215.643 128.705C215.622 130.776 213.141 131.904 208.854 131.904C204.548 131.904 202.046 130.776 202.046 128.705C202.046 126.654 204.548 125.526 208.854 125.526ZM208.854 127.434C206.106 127.434 204.773 127.885 204.794 128.705C204.773 129.628 206.106 129.977 208.854 129.977C211.623 129.977 212.936 129.628 212.936 128.705C212.936 127.885 211.623 127.434 208.854 127.434ZM217.365 132.786V134.857H200.344V132.786H217.365ZM215.294 135.944V140.702H204.896V141.83H215.786V143.799H202.333V138.877H212.71V137.852H202.312V135.944H215.294ZM238.12 125.26V143.963H235.474V125.26H238.12ZM227.989 126.572C230.799 126.572 232.89 129.156 232.89 133.217C232.89 137.318 230.799 139.882 227.989 139.882C225.118 139.882 223.026 137.318 223.047 133.217C223.026 129.156 225.118 126.572 227.989 126.572ZM227.989 128.931C226.533 128.931 225.569 130.448 225.569 133.217C225.569 136.006 226.533 137.503 227.989 137.503C229.404 137.503 230.368 136.006 230.368 133.217C230.368 130.448 229.404 128.931 227.989 128.931ZM257.244 134.099V136.19H240.222V134.099H244.057V131.863C242.694 131.258 241.925 130.335 241.925 129.136C241.925 126.88 244.57 125.526 248.733 125.526C252.855 125.526 255.501 126.88 255.521 129.136C255.511 130.346 254.711 131.289 253.327 131.884V134.099H257.244ZM248.713 137.175C252.753 137.175 255.193 138.364 255.214 140.518C255.193 142.712 252.753 143.901 248.713 143.901C244.611 143.901 242.171 142.712 242.171 140.518C242.171 138.364 244.611 137.175 248.713 137.175ZM248.713 139.144C246.129 139.144 244.816 139.595 244.837 140.518C244.816 141.481 246.129 141.953 248.713 141.953C251.235 141.953 252.568 141.481 252.589 140.518C252.568 139.595 251.235 139.144 248.713 139.144ZM248.733 127.536C246.088 127.536 244.632 128.09 244.652 129.136C244.632 130.161 246.088 130.674 248.733 130.674C251.338 130.674 252.814 130.161 252.814 129.136C252.814 128.09 251.338 127.536 248.733 127.536ZM246.703 134.099H250.722V132.54C250.107 132.612 249.441 132.643 248.733 132.643C248.005 132.643 247.328 132.612 246.703 132.52V134.099ZM272.676 125.26V132.561H275.424V134.714H272.676V143.922H270.092V125.26H272.676ZM268.821 128.049V130.141H257.849V128.049H262.074V125.547H264.699V128.049H268.821ZM263.386 131.187C266.114 131.187 268.144 133.032 268.144 135.637C268.144 138.241 266.114 140.087 263.386 140.087C260.638 140.087 258.608 138.241 258.608 135.637C258.608 133.032 260.638 131.187 263.386 131.187ZM263.386 133.299C262.074 133.319 261.11 134.201 261.11 135.637C261.11 137.093 262.074 137.954 263.386 137.934C264.699 137.954 265.642 137.093 265.642 135.637C265.642 134.201 264.699 133.319 263.386 133.299ZM291.411 125.26V143.963H288.806V136.437H285.607V134.283H288.806V131.351H285.669V129.218H288.806V125.26H291.411ZM284.684 126.818V133.996H278.942V137.626C281.249 137.616 283.3 137.503 285.648 137.154L285.853 139.287C283.064 139.738 280.685 139.779 277.814 139.779H276.337V131.966H282.121V128.89H276.296V126.818H284.684ZM303.049 126.777V128.192H306.536V125.28H309.14V138.856H306.536V134.283H303.049V135.862H294.19V126.777H303.049ZM296.794 128.849V133.832H300.486V128.849H296.794ZM309.53 141.502V143.594H296.712V137.564H299.358V141.502H309.53ZM303.049 132.212H306.536V130.305H303.049V132.212ZM149.283 154.28V168.328H146.637V166.257H142.987V164.206H146.637V154.28H149.283ZM149.713 170.502V172.594H135.788V166.893H138.188V163.304C136.516 163.375 134.927 163.396 133.533 163.406L133.204 161.335C135.419 161.325 138.147 161.294 140.895 161.13C141.12 159.52 141.213 158.238 141.243 157.254H134.907V155.183H143.868V155.88C143.868 156.844 143.868 158.556 143.499 160.925C144.104 160.863 144.709 160.802 145.304 160.72L145.468 162.565C143.93 162.842 142.341 163.027 140.772 163.14V167.159H138.413V170.502H149.713ZM165.864 154.28V160.002H168.386V162.135H165.864V168.205H163.239V154.28H165.864ZM162.131 156.229V158.3H151.057V156.229H155.302V154.239H157.906V156.229H162.131ZM156.594 158.956C159.301 158.956 161.188 160.412 161.188 162.565C161.188 164.719 159.301 166.134 156.594 166.134C153.866 166.134 151.959 164.719 151.959 162.565C151.959 160.412 153.866 158.956 156.594 158.956ZM156.594 160.945C155.343 160.966 154.502 161.54 154.523 162.565C154.502 163.591 155.343 164.145 156.594 164.145C157.845 164.145 158.706 163.591 158.706 162.565C158.706 161.54 157.845 160.966 156.594 160.945ZM166.54 170.502V172.594H153.764V167.139H156.368V170.502H166.54ZM184.413 154.26V172.963H181.768V154.26H184.413ZM174.282 155.572C177.092 155.572 179.184 158.156 179.184 162.217C179.184 166.318 177.092 168.882 174.282 168.882C171.411 168.882 169.319 166.318 169.34 162.217C169.319 158.156 171.411 155.572 174.282 155.572ZM174.282 157.931C172.826 157.931 171.862 159.448 171.862 162.217C171.862 165.006 172.826 166.503 174.282 166.503C175.697 166.503 176.661 165.006 176.661 162.217C176.661 159.448 175.697 157.931 174.282 157.931ZM206.604 154.26V163.837H203.979V154.26H206.604ZM206.604 164.575V169.559H196.534V170.728H207.116V172.799H193.95V167.692H204.02V166.605H193.909V164.575H206.604ZM201.887 155.408V157.397H200.349V161.109C201.118 161.058 201.876 160.986 202.604 160.904L202.728 162.771C199.016 163.365 194.771 163.468 191.53 163.468L191.243 161.417L193.253 161.396V157.397H191.735V155.408H201.887ZM195.755 161.335L197.826 161.273V157.397H195.755V161.335ZM225.748 168.595V170.748H208.665V168.595H212.479V164.021C211.034 163.16 210.162 161.837 210.162 160.187C210.162 157.172 213.115 155.162 217.176 155.162C221.216 155.162 224.189 157.172 224.21 160.187C224.2 161.796 223.349 163.109 221.954 163.98V168.595H225.748ZM217.176 157.233C214.51 157.233 212.746 158.3 212.746 160.187C212.746 162.012 214.51 163.14 217.176 163.14C219.821 163.14 221.605 162.012 221.626 160.187C221.605 158.3 219.821 157.233 217.176 157.233ZM215.063 168.595H219.309V164.965C218.642 165.098 217.924 165.17 217.176 165.17C216.427 165.17 215.72 165.108 215.063 164.965V168.595ZM235.397 157.11V159.182H226.374V157.11H229.614V154.772H232.198V157.11H235.397ZM230.927 160.022C233.306 160.022 235.008 161.868 235.028 164.452C235.008 167.057 233.306 168.902 230.927 168.902C228.548 168.902 226.805 167.057 226.805 164.452C226.805 161.868 228.548 160.022 230.927 160.022ZM230.927 162.196C229.84 162.196 229.101 163.037 229.101 164.452C229.101 165.867 229.84 166.688 230.927 166.688C231.973 166.688 232.711 165.867 232.731 164.452C232.711 163.037 231.973 162.196 230.927 162.196ZM242.534 154.26V172.922H240.053V163.939H238.535V172.122H236.095V154.629H238.535V161.848H240.053V154.26H242.534ZM261.207 168.595V170.748H244.124V168.595H247.938V164.021C246.492 163.16 245.621 161.837 245.621 160.187C245.621 157.172 248.574 155.162 252.635 155.162C256.675 155.162 259.648 157.172 259.669 160.187C259.658 161.796 258.807 163.109 257.413 163.98V168.595H261.207ZM252.635 157.233C249.969 157.233 248.205 158.3 248.205 160.187C248.205 162.012 249.969 163.14 252.635 163.14C255.28 163.14 257.064 162.012 257.085 160.187C257.064 158.3 255.28 157.233 252.635 157.233ZM250.522 168.595H254.767V164.965C254.101 165.098 253.383 165.17 252.635 165.17C251.886 165.17 251.178 165.108 250.522 164.965V168.595ZM264.273 171.22C263.309 171.22 262.53 170.44 262.55 169.497C262.53 168.554 263.309 167.795 264.273 167.795C265.175 167.795 265.975 168.554 265.975 169.497C265.975 170.44 265.175 171.22 264.273 171.22Z" fill="#111827"/>
<mask id="path-6-inside-1_898_5666" fill="white">
<path d="M20 228.035H380V441.035H20V228.035Z"/>
</mask>
<path d="M20 228.035V228.535H380V228.035V227.535H20V228.035ZM380 441.035V440.535H20V441.035V441.535H380V441.035Z" fill="#6B7280" mask="url(#path-6-inside-1_898_5666)"/>
<rect x="20" y="251.535" width="42" height="42" rx="21" fill="#EEEEEE"/>
<mask id="mask0_898_5666" style="mask-type:alpha" maskUnits="userSpaceOnUse" x="29" y="260" width="24" height="25">
<rect x="29" y="260.535" width="24" height="24" fill="#D9D9D9"/>
</mask>
<g mask="url(#mask0_898_5666)">
<path d="M41 278.035C42.25 278.035 43.3125 277.598 44.1875 276.723C45.0625 275.848 45.5 274.785 45.5 273.535C45.5 272.285 45.0625 271.223 44.1875 270.348C43.3125 269.473 42.25 269.035 41 269.035C39.75 269.035 38.6875 269.473 37.8125 270.348C36.9375 271.223 36.5 272.285 36.5 273.535C36.5 274.785 36.9375 275.848 37.8125 276.723C38.6875 277.598 39.75 278.035 41 278.035ZM41 276.035C40.3 276.035 39.7083 275.793 39.225 275.31C38.7417 274.827 38.5 274.235 38.5 273.535C38.5 272.835 38.7417 272.243 39.225 271.76C39.7083 271.277 40.3 271.035 41 271.035C41.7 271.035 42.2917 271.277 42.775 271.76C43.2583 272.243 43.5 272.835 43.5 273.535C43.5 274.235 43.2583 274.827 42.775 275.31C42.2917 275.793 41.7 276.035 41 276.035ZM33 281.535C32.45 281.535 31.9792 281.339 31.5875 280.948C31.1958 280.556 31 280.085 31 279.535V267.535C31 266.985 31.1958 266.514 31.5875 266.123C31.9792 265.731 32.45 265.535 33 265.535H36.15L38 263.535H44L45.85 265.535H49C49.55 265.535 50.0208 265.731 50.4125 266.123C50.8042 266.514 51 266.985 51 267.535V279.535C51 280.085 50.8042 280.556 50.4125 280.948C50.0208 281.339 49.55 281.535 49 281.535H33ZM33 279.535H49V267.535H44.95L43.125 265.535H38.875L37.05 267.535H33V279.535Z" fill="#111827"/>
</g>
<path d="M87.7715 254.379C87.7539 259.02 86.3301 263.15 80.582 265.98L79.668 264.732C82.5156 263.335 84.2119 261.639 85.1523 259.635L80.002 260.127L79.7559 258.686L85.6621 258.281C85.8994 257.481 86.04 256.629 86.1016 255.732H80.582V254.379H87.7715ZM91.8496 252.779V259.072H94.293V260.443H91.8496V268.512H90.1797V252.779H91.8496ZM101.781 254.555V258.65H103.891V253.078H105.49V267.756H103.891V260.021H101.781V264.381H95.6641V254.555H101.781ZM97.2461 255.873V263.045H100.217V255.873H97.2461ZM108.689 252.779V268.529H107.09V252.779H108.689ZM122.963 252.779V258.932H125.494V260.338H122.963V268.564H121.311V252.779H122.963ZM118.516 254.203V259.986H112.996V263.396C115.703 263.388 117.707 263.291 120.01 262.869L120.168 264.223C117.707 264.68 115.58 264.785 112.627 264.803H111.344V258.633H116.863V255.557H111.309V254.203H118.516ZM131.594 262.184C131.611 258.879 132.543 256.119 134.195 253.764H135.918C134.705 255.504 133.545 259.055 133.545 262.184C133.545 265.33 134.705 268.863 135.918 270.621H134.195C132.543 268.266 131.611 265.506 131.594 262.184ZM150.174 252.779V260.918H148.486V252.779H150.174ZM150.174 261.639V265.541H141.402V267.035H150.719V268.371H139.768V264.328H148.521V262.957H139.715V261.639H150.174ZM146.324 253.816V255.135H144.812V258.861C145.577 258.809 146.333 258.738 147.045 258.65L147.115 259.863C143.969 260.338 140.295 260.443 137.535 260.443L137.342 259.107L139.258 259.09V255.135H137.764V253.816H146.324ZM140.857 259.055C141.631 259.028 142.422 259.002 143.213 258.949V255.135H140.857V259.055ZM160.703 254.168C160.686 256.26 163.252 258.229 166.346 258.633L165.695 260.004C163.12 259.591 160.853 258.255 159.842 256.4C158.805 258.264 156.546 259.591 153.988 260.004L153.32 258.633C156.414 258.229 158.945 256.277 158.963 254.168V253.307H160.703V254.168ZM166.996 261.551V262.922H160.598V268.529H158.963V262.922H152.635V261.551H166.996ZM172.516 262.184C172.498 265.506 171.566 268.266 169.914 270.621H168.191C169.404 268.863 170.564 265.33 170.564 262.184C170.564 259.055 169.404 255.504 168.191 253.764H169.914C171.566 256.119 172.498 258.879 172.516 262.184Z" fill="#111827"/>
<path d="M91.125 279.379V289.629H89.6406V279.379H91.125ZM91.5469 291.863V293.066H81.9688V288.66H83.4688V291.863H91.5469ZM84.6094 281.535C84.5938 283.582 85.9062 285.457 88.0625 286.207L87.2969 287.395C85.6797 286.793 84.4844 285.605 83.8594 284.082C83.2422 285.707 82.0312 287.012 80.3906 287.645L79.5938 286.473C81.7969 285.66 83.0938 283.645 83.0938 281.535V280.145H84.6094V281.535ZM104.984 279.379V289.988H103.5V288.645H100.688V287.598H103.5V279.379H104.984ZM105.328 291.863V293.066H95.2188V288.957H96.6875V291.863H105.328ZM93.2812 285.77C95.875 285.754 99.3594 285.723 102.344 285.348L102.438 286.41C101.242 286.605 99.9844 286.738 98.75 286.816V289.551H97.2656V286.895C95.9062 286.957 94.6016 286.965 93.4688 286.957L93.2812 285.77ZM97.8594 279.91C99.9062 279.91 101.328 280.895 101.328 282.379C101.328 283.863 99.9062 284.816 97.8594 284.816C95.7812 284.816 94.375 283.863 94.375 282.379C94.375 280.895 95.7812 279.91 97.8594 279.91ZM97.8594 281.02C96.6094 281.004 95.7656 281.535 95.7812 282.379C95.7656 283.207 96.6094 283.723 97.8594 283.723C99.0625 283.723 99.9062 283.207 99.9219 282.379C99.9062 281.535 99.0625 281.004 97.8594 281.02ZM119.938 285.957V287.16H107.172V285.957H119.938ZM113.547 288.238C116.562 288.238 118.375 289.176 118.375 290.801C118.375 292.426 116.562 293.348 113.547 293.332C110.516 293.348 108.688 292.426 108.688 290.801C108.688 289.176 110.516 288.238 113.547 288.238ZM113.547 289.395C111.406 289.41 110.188 289.895 110.188 290.801C110.188 291.691 111.406 292.16 113.547 292.16C115.656 292.16 116.891 291.691 116.891 290.801C116.891 289.895 115.656 289.41 113.547 289.395ZM118.797 280.051V281.27H114.547C114.711 282.629 116.695 283.785 119.281 284.051L118.75 285.223C116.328 284.941 114.32 283.918 113.562 282.441C112.781 283.918 110.781 284.941 108.359 285.223L107.844 284.051C110.383 283.785 112.383 282.637 112.562 281.27H108.344V280.051H118.797ZM132.672 279.363V287.629H131.188V285.551H128.141V286.691H121.641V280.41H128.141V281.566H131.188V279.363H132.672ZM123.109 281.598V285.504H126.688V281.598H123.109ZM127.984 288.02C130.922 288.02 132.719 288.988 132.719 290.691C132.719 292.379 130.922 293.348 127.984 293.332C125.047 293.348 123.234 292.379 123.25 290.691C123.234 288.988 125.047 288.02 127.984 288.02ZM127.984 289.16C125.938 289.176 124.719 289.707 124.719 290.691C124.719 291.629 125.938 292.191 127.984 292.191C130.031 292.191 131.25 291.629 131.25 290.691C131.25 289.707 130.031 289.176 127.984 289.16ZM128.141 284.348H131.188V282.754H128.141V284.348ZM139.969 282.926C139.953 285.488 141.5 288.051 143.672 289.02L142.781 290.191C141.172 289.426 139.898 287.855 139.25 285.941C138.594 287.988 137.305 289.684 135.625 290.504L134.719 289.254C136.922 288.27 138.469 285.598 138.469 282.926V280.535H139.969V282.926ZM146.422 279.363V293.395H144.938V279.363H146.422ZM157.344 288.363H159.031L160.125 289.77C160.867 289.066 161.328 287.926 161.328 286.379C161.328 283.629 159.875 282.145 157.938 282.145C155.984 282.145 154.531 283.629 154.531 286.379C154.531 289.129 155.984 290.613 157.938 290.613C158.297 290.613 158.633 290.566 158.953 290.457L157.344 288.363ZM163.031 286.379C163.031 288.457 162.312 290.074 161.141 291.066L162.672 293.051H160.906L159.953 291.801C159.344 292.059 158.664 292.191 157.938 292.191C154.984 292.191 152.828 289.988 152.828 286.379C152.828 282.754 154.984 280.566 157.938 280.566C160.859 280.566 163.031 282.754 163.031 286.379ZM164.969 292.035V280.723H169C171.625 280.723 172.922 282.191 172.922 284.27C172.922 285.793 172.234 286.949 170.859 287.457L173.359 292.035H171.406L169.109 287.77H169H166.688V292.035H164.969ZM166.688 286.285H168.828C170.5 286.285 171.188 285.551 171.188 284.27C171.188 282.988 170.5 282.191 168.828 282.191H166.688V286.285ZM185.484 280.66V281.973C185.469 283.676 185.484 285.613 184.891 288.52L183.438 288.363C183.695 287.168 183.844 286.113 183.922 285.16L175.5 285.66L175.281 284.379L184 284.035C184.031 283.285 184.031 282.605 184.031 281.973V281.879H175.703V280.66H185.484ZM186.953 290.316V291.551H174.188V290.316H179.047V286.77H180.516V290.316H186.953ZM199.359 286.004V287.223H189.609V280.613H199.234V281.832H191.078V286.004H199.359ZM200.828 290.285V291.52H188.016V290.285H200.828ZM212.859 281.348C212.859 283.629 215.297 285.785 217.984 286.27L217.297 287.504C215.062 287.02 213 285.551 212.094 283.582C211.172 285.535 209.117 287.004 206.875 287.504L206.219 286.27C208.875 285.77 211.297 283.629 211.297 281.348V280.285H212.859V281.348ZM218.562 290.285V291.52H205.75V290.285H218.562ZM231.516 279.379V289.895H230.109V284.848H228.422V289.457H227.016V279.629H228.422V283.613H230.109V279.379H231.516ZM231.938 291.863V293.066H222.188V288.629H223.672V291.863H231.938ZM225.797 280.566C225.797 284.051 224.297 286.723 220.375 288.379L219.656 287.316C221.562 286.527 222.805 285.52 223.547 284.285L219.891 284.691L219.672 283.441L224.062 283.176C224.203 282.73 224.305 282.262 224.359 281.77H220.312V280.566H225.797ZM249.141 285.707V286.895H244.078V280.629H249V281.832H245.562V285.707H249.141ZM250.125 290.41V291.613H237.312V290.41H242.938V287.566H244.391V290.41H250.125ZM243.203 280.645V281.848H239.859V285.676C241.023 285.66 242.117 285.566 243.328 285.301L243.453 286.535C241.953 286.863 240.688 286.895 239.203 286.895H238.375V280.645H243.203ZM262.469 283.457V284.645H252.828V279.863H254.297V283.457H262.469ZM263.938 286.41V287.598H251.125V286.41H263.938ZM262.562 291.816V293.035H252.719V288.926H254.203V291.816H262.562ZM276.984 280.488V281.582H273.984C274.055 282.59 275.391 283.418 277.297 283.676L276.797 284.754C275.125 284.504 273.875 283.824 273.281 282.879C272.672 283.879 271.398 284.605 269.703 284.879L269.203 283.816C271.125 283.527 272.453 282.645 272.531 281.582H269.531V280.488H272.531V279.316H273.984V280.488H276.984ZM273.984 284.285V285.629C275.211 285.574 276.438 285.48 277.578 285.332L277.688 286.363C274.75 286.848 271.484 286.879 269.016 286.879L268.859 285.738C269.953 285.738 271.219 285.73 272.531 285.691V284.285H273.984ZM279.891 287.816V290.973H272.156V292.098H280.406V293.223H270.672V289.941H278.422V288.91H270.641V287.816H279.891ZM279.891 279.363V282.613H281.891V283.816H279.891V287.238H278.406V279.363H279.891ZM286.578 280.176C287.742 280.168 288.734 280.605 289.391 281.332H292.891V279.363H294.375V287.629H292.891V285.738H289.375C288.727 286.457 287.734 286.887 286.578 286.879C284.469 286.895 282.906 285.488 282.906 283.535C282.906 281.566 284.469 280.16 286.578 280.176ZM286.578 281.457C285.266 281.441 284.328 282.285 284.328 283.535C284.328 284.754 285.266 285.629 286.578 285.613C287.859 285.629 288.797 284.754 288.797 283.535C288.797 282.285 287.859 281.441 286.578 281.457ZM289.688 287.941C292.594 287.941 294.422 288.926 294.422 290.645C294.422 292.348 292.594 293.348 289.688 293.332C286.766 293.348 284.938 292.348 284.953 290.645C284.938 288.926 286.766 287.941 289.688 287.941ZM289.688 289.082C287.641 289.082 286.391 289.645 286.406 290.645C286.391 291.613 287.641 292.16 289.688 292.16C291.75 292.16 292.969 291.613 292.969 290.645C292.969 289.645 291.75 289.082 289.688 289.082ZM290.062 282.52C290.164 282.832 290.219 283.176 290.219 283.535C290.219 283.879 290.164 284.215 290.078 284.52H292.891V282.52H290.062Z" fill="#6B7280"/>
<rect x="20" y="313.535" width="42" height="42" rx="21" fill="#EEEEEE"/>
<mask id="mask1_898_5666" style="mask-type:alpha" maskUnits="userSpaceOnUse" x="29" y="322" width="24" height="25">
<rect x="29" y="322.535" width="24" height="24" fill="#D9D9D9"/>
</mask>
<g mask="url(#mask1_898_5666)">
<path d="M34 343.535C33.45 343.535 32.9792 343.339 32.5875 342.948C32.1958 342.556 32 342.085 32 341.535V327.535C32 326.985 32.1958 326.514 32.5875 326.123C32.9792 325.731 33.45 325.535 34 325.535H48C48.55 325.535 49.0208 325.731 49.4125 326.123C49.8042 326.514 50 326.985 50 327.535V341.535C50 342.085 49.8042 342.556 49.4125 342.948C49.0208 343.339 48.55 343.535 48 343.535H34ZM34 341.535H48V327.535H34V341.535ZM35 339.535H47L43.25 334.535L40.25 338.535L38 335.535L35 339.535ZM37.5 332.535C37.9167 332.535 38.2708 332.389 38.5625 332.098C38.8542 331.806 39 331.452 39 331.035C39 330.618 38.8542 330.264 38.5625 329.973C38.2708 329.681 37.9167 329.535 37.5 329.535C37.0833 329.535 36.7292 329.681 36.4375 329.973C36.1458 330.264 36 330.618 36 331.035C36 331.452 36.1458 331.806 36.4375 332.098C36.7292 332.389 37.0833 332.535 37.5 332.535Z" fill="#111827"/>
</g>
<path d="M87.7715 316.379C87.7539 321.02 86.3301 325.15 80.582 327.98L79.668 326.732C82.5156 325.335 84.2119 323.639 85.1523 321.635L80.002 322.127L79.7559 320.686L85.6621 320.281C85.8994 319.481 86.04 318.629 86.1016 317.732H80.582V316.379H87.7715ZM91.8496 314.779V321.072H94.293V322.443H91.8496V330.512H90.1797V314.779H91.8496ZM101.781 316.555V320.65H103.891V315.078H105.49V329.756H103.891V322.021H101.781V326.381H95.6641V316.555H101.781ZM97.2461 317.873V325.045H100.217V317.873H97.2461ZM108.689 314.779V330.529H107.09V314.779H108.689ZM122.963 314.779V320.932H125.494V322.338H122.963V330.564H121.311V314.779H122.963ZM118.516 316.203V321.986H112.996V325.396C115.703 325.388 117.707 325.291 120.01 324.869L120.168 326.223C117.707 326.68 115.58 326.785 112.627 326.803H111.344V320.633H116.863V317.557H111.309V316.203H118.516ZM131.594 324.184C131.611 320.879 132.543 318.119 134.195 315.764H135.918C134.705 317.504 133.545 321.055 133.545 324.184C133.545 327.33 134.705 330.863 135.918 332.621H134.195C132.543 330.266 131.611 327.506 131.594 324.184ZM150.174 314.779V322.918H148.486V314.779H150.174ZM150.174 323.639V327.541H141.402V329.035H150.719V330.371H139.768V326.328H148.521V324.957H139.715V323.639H150.174ZM146.324 315.816V317.135H144.812V320.861C145.577 320.809 146.333 320.738 147.045 320.65L147.115 321.863C143.969 322.338 140.295 322.443 137.535 322.443L137.342 321.107L139.258 321.09V317.135H137.764V315.816H146.324ZM140.857 321.055C141.631 321.028 142.422 321.002 143.213 320.949V317.135H140.857V321.055ZM160.703 316.168C160.686 318.26 163.252 320.229 166.346 320.633L165.695 322.004C163.12 321.591 160.853 320.255 159.842 318.4C158.805 320.264 156.546 321.591 153.988 322.004L153.32 320.633C156.414 320.229 158.945 318.277 158.963 316.168V315.307H160.703V316.168ZM166.996 323.551V324.922H160.598V330.529H158.963V324.922H152.635V323.551H166.996ZM172.516 324.184C172.498 327.506 171.566 330.266 169.914 332.621H168.191C169.404 330.863 170.564 327.33 170.564 324.184C170.564 321.055 169.404 317.504 168.191 315.764H169.914C171.566 318.119 172.498 320.879 172.516 324.184Z" fill="#111827"/>
<path d="M90.4844 341.363V347.223H92.5938V348.473H90.4844V355.363H89V341.363H90.4844ZM79.3438 351.551C80.4453 351.551 81.7266 351.551 83.0625 351.504V350.082C81.4844 349.863 80.4531 348.91 80.4688 347.551C80.4531 345.973 81.8125 344.926 83.8125 344.926C85.7969 344.926 87.1719 345.973 87.1875 347.551C87.1719 348.91 86.125 349.871 84.5469 350.098V351.441C85.7891 351.395 87.0391 351.293 88.2031 351.129L88.2969 352.223C85.2656 352.77 81.9844 352.785 79.5781 352.785L79.3438 351.551ZM88 343.02V344.207H79.6094V343.02H83.0625V341.395H84.5469V343.02H88ZM83.8125 346.082C82.6406 346.082 81.8594 346.66 81.8594 347.551C81.8594 348.441 82.6406 348.988 83.8125 348.988C84.9844 348.988 85.7656 348.441 85.7656 347.551C85.7656 346.66 84.9844 346.082 83.8125 346.082ZM100.484 342.551V343.738H103.531V341.379H105.016V351.582H103.531V347.957H100.484V349.176H93.9844V342.551H100.484ZM95.4531 343.754V348.004H99.0312V343.754H95.4531ZM105.328 353.863V355.066H95.875V350.645H97.375V353.863H105.328ZM100.484 346.738H103.531V344.957H100.484V346.738ZM117.328 342.223C117.328 345.629 115.688 348.113 111.875 349.582L111.188 348.488C113 347.824 114.234 346.926 114.984 345.816L111.391 346.207L111.172 344.988L115.562 344.707C115.695 344.309 115.789 343.887 115.844 343.441H111.812V342.223H117.328ZM123.016 341.379V349.145H121.609V345.91H119.922V349.02H118.516V341.629H119.922V344.707H121.609V341.379H123.016ZM115.156 349.723V351.207H121.562V349.723H123.016V355.191H113.672V349.723H115.156ZM115.156 354.004H121.562V352.395H115.156V354.004ZM136.578 341.363V355.395H135.109V349.848H132.375V348.645H135.109V346.941H132.375V345.723H135.109V341.363H136.578ZM129.875 345.863C129.875 348.082 131.297 350.379 133.453 351.316L132.609 352.457C131.016 351.746 129.789 350.277 129.172 348.504C128.547 350.371 127.32 351.934 125.719 352.676L124.906 351.535C127.031 350.566 128.406 348.176 128.406 345.863V344.941H125.297V343.754H128.422V341.645H129.906V343.754H132.938V344.941H129.875V345.863ZM143.875 344.926C143.859 347.488 145.406 350.051 147.578 351.02L146.688 352.191C145.078 351.426 143.805 349.855 143.156 347.941C142.5 349.988 141.211 351.684 139.531 352.504L138.625 351.254C140.828 350.27 142.375 347.598 142.375 344.926V342.535H143.875V344.926ZM150.328 341.363V355.395H148.844V341.363H150.328ZM168.406 341.379V348.66H167V345.566H165.359V348.504H163.984V341.629H165.359V344.363H167V341.379H168.406ZM168.406 349.238V352.691H160.531V354.004H168.938V355.191H159.047V351.566H166.938V350.426H159.016V349.238H168.406ZM159.797 342.035C161.672 342.02 163.016 343.238 163.016 345.113C163.016 346.926 161.672 348.191 159.797 348.191C157.922 348.191 156.578 346.926 156.594 345.113C156.578 343.238 157.922 342.02 159.797 342.035ZM159.797 343.176C158.703 343.176 157.922 343.973 157.922 345.113C157.922 346.238 158.703 347.004 159.797 347.004C160.875 347.004 161.656 346.238 161.672 345.113C161.656 343.973 160.875 343.176 159.797 343.176ZM172.453 342.16V344.27H175.953V342.16H177.422V344.832H180.484V341.363H181.969V349.473H180.484V346.066H177.422V348.754H170.969V342.16H172.453ZM172.453 347.566H175.953V345.441H172.453V347.566ZM181.969 350.129V355.191H172.734V350.129H181.969ZM174.203 351.316V353.988H180.516V351.316H174.203ZM196.172 341.363V355.363H194.75V341.363H196.172ZM193.328 341.629V354.676H191.906V347.926H190.328C190.203 350.66 189.031 352.363 187.297 352.348C185.469 352.363 184.281 350.441 184.281 347.41C184.281 344.379 185.469 342.473 187.297 342.488C189 342.473 190.156 344.09 190.328 346.723H191.906V341.629H193.328ZM187.297 343.879C186.281 343.879 185.656 345.176 185.656 347.41C185.656 349.645 186.281 350.941 187.297 350.941C188.328 350.941 188.969 349.645 188.969 347.41C188.969 345.176 188.328 343.879 187.297 343.879ZM213.547 341.363V355.395H212.062V347.613H209.172V346.395H212.062V341.363H213.547ZM206.859 345.301C206.859 347.676 208.344 350.223 210.5 351.176L209.609 352.363C207.992 351.582 206.742 349.949 206.125 348.035C205.5 350.074 204.227 351.816 202.609 352.645L201.703 351.488C203.844 350.473 205.344 347.816 205.359 345.301V343.988H202.266V342.77H209.969V343.988H206.859V345.301ZM220.578 343.941C220.578 345.723 221.812 347.348 223.938 348.02L223.234 349.176C221.641 348.668 220.477 347.613 219.859 346.285C219.25 347.816 218.023 349.027 216.344 349.613L215.578 348.426C217.766 347.707 219.078 345.895 219.094 343.957V343.566H216.016V342.363H223.594V343.566H220.578V343.941ZM226.688 341.363V344.832H228.719V346.051H226.688V349.77H225.203V341.363H226.688ZM222.172 350.113C225.062 350.113 226.812 351.066 226.812 352.707C226.812 354.363 225.062 355.348 222.172 355.332C219.25 355.348 217.469 354.363 217.469 352.707C217.469 351.066 219.25 350.113 222.172 350.113ZM222.172 351.285C220.141 351.285 218.938 351.801 218.953 352.707C218.938 353.645 220.141 354.16 222.172 354.16C224.188 354.16 225.359 353.645 225.359 352.707C225.359 351.801 224.188 351.285 222.172 351.285Z" fill="#6B7280"/>
<rect x="20" y="375.535" width="42" height="42" rx="21" fill="#EEEEEE"/>
<mask id="mask2_898_5666" style="mask-type:alpha" maskUnits="userSpaceOnUse" x="29" y="384" width="24" height="25">
<rect x="29" y="384.535" width="24" height="24" fill="#D9D9D9"/>
</mask>
<g mask="url(#mask2_898_5666)">
<path d="M33 403.535V401.535H35V394.535C35 393.152 35.4167 391.923 36.25 390.848C37.0833 389.773 38.1667 389.068 39.5 388.735V388.035C39.5 387.618 39.6458 387.264 39.9375 386.973C40.2292 386.681 40.5833 386.535 41 386.535C41.4167 386.535 41.7708 386.681 42.0625 386.973C42.3542 387.264 42.5 387.618 42.5 388.035V388.735C43.8333 389.068 44.9167 389.773 45.75 390.848C46.5833 391.923 47 393.152 47 394.535V401.535H49V403.535H33ZM41 406.535C40.45 406.535 39.9792 406.339 39.5875 405.948C39.1958 405.556 39 405.085 39 404.535H43C43 405.085 42.8042 405.556 42.4125 405.948C42.0208 406.339 41.55 406.535 41 406.535ZM37 401.535H45V394.535C45 393.435 44.6083 392.493 43.825 391.71C43.0417 390.927 42.1 390.535 41 390.535C39.9 390.535 38.9583 390.927 38.175 391.71C37.3917 392.493 37 393.435 37 394.535V401.535Z" fill="#111827"/>
</g>
<path d="M91.9551 376.779V380.066H94.2402V381.455H91.9551V384.742H90.2852V376.779H91.9551ZM91.9551 385.463V389.453H83.4473V391H92.5V392.336H81.8125V388.205H90.3027V386.764H81.7773V385.463H91.9551ZM83.957 377.324C86.3477 377.324 88.0879 378.766 88.0879 380.84C88.0879 382.914 86.3477 384.355 83.957 384.355C81.5664 384.355 79.8086 382.914 79.8262 380.84C79.8086 378.766 81.5664 377.324 83.957 377.324ZM83.957 378.695C82.498 378.695 81.4434 379.557 81.4434 380.84C81.4434 382.123 82.498 383.02 83.957 383.02C85.3984 383.02 86.4707 382.123 86.4707 380.84C86.4707 379.557 85.3984 378.695 83.957 378.695ZM108.197 376.797V386.131H106.527V376.797H108.197ZM103.17 377.729V382.158H97.5977V384.057C100.349 384.065 102.379 383.969 104.77 383.582L104.98 384.953C102.414 385.357 100.252 385.445 97.2812 385.428H95.9629V380.857H101.518V379.064H95.9277V377.729H103.17ZM108.197 386.922V392.336H97.8438V386.922H108.197ZM99.4961 388.258V390.982H106.562V388.258H99.4961ZM116.037 386.184C116.055 382.879 116.986 380.119 118.639 377.764H120.361C119.148 379.504 117.988 383.055 117.988 386.184C117.988 389.33 119.148 392.863 120.361 394.621H118.639C116.986 392.266 116.055 389.506 116.037 386.184ZM127.076 379.662C127.076 381.789 128.5 383.863 130.873 384.689L129.959 385.99C128.236 385.331 126.953 384.03 126.285 382.387C125.6 384.215 124.255 385.656 122.4 386.359L121.504 385.041C123.947 384.162 125.406 381.982 125.424 379.609V377.746H127.076V379.662ZM134.652 376.797V388.539H132.982V381.754H129.66V380.383H132.982V376.797H134.652ZM135.004 390.842V392.195H124.369V387.221H126.057V390.842H135.004ZM143.881 377.904V379.258H139.328V381.016H143.705V382.299H139.328V384.215C141.438 384.197 142.826 384.118 144.443 383.811L144.602 385.182C142.756 385.533 141.262 385.604 138.748 385.586H137.729V377.904H143.881ZM150.508 376.797V386.359H148.926V382.158H146.992V386.236H145.428V377.078H146.992V380.805H148.926V376.797H150.508ZM150.508 387.115V392.529H148.855V388.469H139.803V387.115H150.508ZM156.959 386.184C156.941 389.506 156.01 392.266 154.357 394.621H152.635C153.848 392.863 155.008 389.33 155.008 386.184C155.008 383.055 153.848 379.504 152.635 377.764H154.357C156.01 380.119 156.941 382.879 156.959 386.184Z" fill="#111827"/>
<path d="M91.1094 404.113V405.316H89.0625V408.941H91.0312V410.113H80.7656V408.941H82.75V405.316H80.7031V404.113H91.1094ZM92.3125 411.598V412.832H86.625V417.348H85.1562V412.832H79.5V411.598H92.3125ZM84.2344 408.941H87.6094V405.316H84.2344V408.941ZM98.4844 406.926C98.4688 409.488 100.016 412.051 102.188 413.02L101.297 414.191C99.6875 413.426 98.4141 411.855 97.7656 409.941C97.1094 411.988 95.8203 413.684 94.1406 414.504L93.2344 413.254C95.4375 412.27 96.9844 409.598 96.9844 406.926V404.535H98.4844V406.926ZM104.938 403.363V417.395H103.453V403.363H104.938ZM122.078 403.363V406.285H124.109V407.52H122.078V410.441H120.594V403.363H122.078ZM122.078 411.082V414.629H114.516V416.004H122.562V417.191H113.062V413.52H120.609V412.238H113.031V411.082H122.078ZM114.969 403.848C117.094 403.848 118.641 405.129 118.641 406.973C118.641 408.816 117.094 410.098 114.969 410.098C112.844 410.098 111.281 408.816 111.297 406.973C111.281 405.129 112.844 403.848 114.969 403.848ZM114.969 405.066C113.672 405.066 112.734 405.832 112.734 406.973C112.734 408.113 113.672 408.91 114.969 408.91C116.25 408.91 117.203 408.113 117.203 406.973C117.203 405.832 116.25 405.066 114.969 405.066ZM136.516 403.379V411.676H135.031V403.379H136.516ZM132.047 404.207V408.145H127.094V409.832C129.539 409.84 131.344 409.754 133.469 409.41L133.656 410.629C131.375 410.988 129.453 411.066 126.812 411.051H125.641V406.988H130.578V405.395H125.609V404.207H132.047ZM136.516 412.379V417.191H127.312V412.379H136.516ZM128.781 413.566V415.988H135.062V413.566H128.781ZM155.422 409.941V411.16H142.641V409.941H155.422ZM153.938 407.52V408.723H144.234V403.863H153.844V405.082H145.703V407.52H153.938ZM149.016 412.254C152.031 412.254 153.844 413.176 153.844 414.801C153.844 416.426 152.031 417.348 149.016 417.332C145.984 417.348 144.156 416.426 144.156 414.801C144.156 413.176 145.984 412.254 149.016 412.254ZM149.016 413.395C146.875 413.41 145.656 413.91 145.656 414.801C145.656 415.691 146.875 416.191 149.016 416.191C151.125 416.191 152.359 415.691 152.359 414.801C152.359 413.91 151.125 413.41 149.016 413.395ZM169.266 411.004V412.207H156.453V411.004H162.125V409.676H158.094V406.113H166.172V404.863H158.062V403.691H167.656V407.207H159.562V408.52H167.938V409.676H163.594V411.004H169.266ZM167.734 413.191V417.254H166.234V414.379H157.891V413.191H167.734ZM181.594 404.254V410.004H174.938V404.254H181.594ZM176.391 405.441V408.848H180.125V405.441H176.391ZM185.797 403.363V411.363H184.328V403.363H185.797ZM186.125 412.27V413.395H182.031C182.133 414.613 184.078 415.887 186.625 416.176L186.125 417.316C183.93 417.059 182.125 416.113 181.281 414.879C180.422 416.129 178.578 417.043 176.375 417.316L175.859 416.176C178.406 415.934 180.398 414.645 180.5 413.395H176.422V412.27H180.531V410.957H182V412.27H186.125ZM199.109 404.598C199.094 406.457 201.375 408.207 204.125 408.566L203.547 409.785C201.258 409.418 199.242 408.23 198.344 406.582C197.422 408.238 195.414 409.418 193.141 409.785L192.547 408.566C195.297 408.207 197.547 406.473 197.562 404.598V403.832H199.109V404.598ZM204.703 411.16V412.379H199.016V417.363H197.562V412.379H191.938V411.16H204.703ZM217.375 403.379V413.629H215.891V403.379H217.375ZM217.797 415.863V417.066H208.219V412.66H209.719V415.863H217.797ZM210.859 405.535C210.844 407.582 212.156 409.457 214.312 410.207L213.547 411.395C211.93 410.793 210.734 409.605 210.109 408.082C209.492 409.707 208.281 411.012 206.641 411.645L205.844 410.473C208.047 409.66 209.344 407.645 209.344 405.535V404.145H210.859V405.535ZM225.969 403.598C229.125 403.598 230.969 404.441 230.969 406.004C230.969 407.566 229.125 408.426 225.969 408.426C222.812 408.426 220.969 407.566 220.969 406.004C220.969 404.441 222.812 403.598 225.969 403.598ZM225.969 404.691C223.734 404.691 222.5 405.176 222.516 406.004C222.5 406.863 223.734 407.316 225.969 407.316C228.203 407.316 229.438 406.863 229.438 406.004C229.438 405.176 228.203 404.691 225.969 404.691ZM232.359 409.285V410.473H219.594V409.285H232.359ZM230.75 411.551V414.832H222.594V416.082H231.141V417.223H221.141V413.754H229.281V412.66H221.125V411.551H230.75ZM241.922 404.004C244.031 404.004 245.562 405.176 245.562 406.91C245.562 408.629 244.031 409.816 241.922 409.801C239.812 409.816 238.312 408.629 238.312 406.91C238.312 405.176 239.812 404.004 241.922 404.004ZM241.922 405.207C240.656 405.207 239.734 405.879 239.75 406.91C239.734 407.926 240.656 408.598 241.922 408.582C243.219 408.598 244.141 407.926 244.141 406.91C244.141 405.879 243.219 405.207 241.922 405.207ZM248.969 403.379V417.363H247.5V403.379H248.969ZM237.312 410.895C239.891 410.895 243.469 410.832 246.531 410.379L246.641 411.488C245.367 411.73 244.039 411.879 242.75 411.973V416.926H241.266V412.051C239.906 412.113 238.625 412.121 237.516 412.129L237.312 410.895ZM262.156 403.379V407.879H264.188V409.113H262.156V413.848H260.672V403.379H262.156ZM259.516 405.004V406.207H251.172V405.004H254.609V403.363H256.094V405.004H259.516ZM255.344 406.879C257.359 406.879 258.734 407.926 258.734 409.52C258.734 411.113 257.359 412.145 255.344 412.145C253.312 412.145 251.938 411.113 251.938 409.52C251.938 407.926 253.312 406.879 255.344 406.879ZM255.344 408.02C254.156 408.02 253.359 408.598 253.375 409.52C253.359 410.426 254.156 410.988 255.344 410.988C256.531 410.988 257.328 410.426 257.344 409.52C257.328 408.598 256.531 408.02 255.344 408.02ZM262.75 415.863V417.066H253.281V413.02H254.766V415.863H262.75ZM280.547 403.363V410.988H279.078V407.895H276.453V406.676H279.078V403.363H280.547ZM272.906 411.613V413.223H279.078V411.613H280.547V417.191H271.438V411.613H272.906ZM272.906 415.988H279.078V414.379H272.906V415.988ZM273.906 405.551C273.906 407.285 275.172 409.035 277.281 409.754L276.516 410.91C274.938 410.355 273.781 409.238 273.172 407.848C272.555 409.402 271.336 410.637 269.672 411.223L268.906 410.051C271.062 409.301 272.391 407.457 272.391 405.535V405.348H269.359V404.145H276.906V405.348H273.906V405.551ZM293.906 404.191V405.301C293.906 406.488 293.906 407.879 293.562 409.723H295.531V410.941H282.719V409.723H292.062C292.43 407.902 292.438 406.574 292.438 405.395H284.328V404.191H293.906ZM294.328 415.848V417.066H284.391V412.395H285.859V415.848H294.328Z" fill="#6B7280"/>
<mask id="mask3_898_5666" style="mask-type:alpha" maskUnits="userSpaceOnUse" x="20" y="495" width="24" height="25">
<rect x="20" y="495.035" width="24" height="24" fill="#D9D9D9"/>
</mask>
<g mask="url(#mask3_898_5666)">
<path d="M32 512.035C32.2833 512.035 32.5208 511.939 32.7125 511.748C32.9042 511.556 33 511.318 33 511.035C33 510.752 32.9042 510.514 32.7125 510.323C32.5208 510.131 32.2833 510.035 32 510.035C31.7167 510.035 31.4792 510.131 31.2875 510.323C31.0958 510.514 31 510.752 31 511.035C31 511.318 31.0958 511.556 31.2875 511.748C31.4792 511.939 31.7167 512.035 32 512.035ZM31 508.035H33V502.035H31V508.035ZM32 517.035C30.6167 517.035 29.3167 516.773 28.1 516.248C26.8833 515.723 25.825 515.01 24.925 514.11C24.025 513.21 23.3125 512.152 22.7875 510.935C22.2625 509.718 22 508.418 22 507.035C22 505.652 22.2625 504.352 22.7875 503.135C23.3125 501.918 24.025 500.86 24.925 499.96C25.825 499.06 26.8833 498.348 28.1 497.823C29.3167 497.298 30.6167 497.035 32 497.035C33.3833 497.035 34.6833 497.298 35.9 497.823C37.1167 498.348 38.175 499.06 39.075 499.96C39.975 500.86 40.6875 501.918 41.2125 503.135C41.7375 504.352 42 505.652 42 507.035C42 508.418 41.7375 509.718 41.2125 510.935C40.6875 512.152 39.975 513.21 39.075 514.11C38.175 515.01 37.1167 515.723 35.9 516.248C34.6833 516.773 33.3833 517.035 32 517.035ZM32 515.035C34.2333 515.035 36.125 514.26 37.675 512.71C39.225 511.16 40 509.268 40 507.035C40 504.802 39.225 502.91 37.675 501.36C36.125 499.81 34.2333 499.035 32 499.035C29.7667 499.035 27.875 499.81 26.325 501.36C24.775 502.91 24 504.802 24 507.035C24 509.268 24.775 511.16 26.325 512.71C27.875 514.26 29.7667 515.035 32 515.035Z" fill="#6B7280"/>
</g>
<path d="M65.877 474.739V480.617H64.6582V474.739H65.877ZM56.6094 479.31C57.041 479.31 57.5107 479.303 57.9932 479.297V476.44H56.9141V475.488H63.0967V476.44H62.0049V479.132C62.5571 479.094 63.103 479.043 63.6172 478.979L63.668 479.855C61.3955 480.198 58.7485 480.281 56.749 480.274L56.6094 479.31ZM58.3232 482.09V481.138H65.877V483.956H59.542V485.035H66.2705V486H58.3613V483.08H64.6836V482.09H58.3232ZM59.1484 479.271C59.707 479.252 60.2783 479.233 60.8496 479.202V476.44H59.1484V479.271ZM73.4814 475.742C73.4751 477.253 75.3223 478.668 77.5566 478.967L77.0869 479.957C75.2271 479.659 73.5957 478.694 72.853 477.354C72.1104 478.694 70.479 479.659 68.6318 479.957L68.1494 478.967C70.3774 478.668 72.2183 477.272 72.2246 475.742V475.12H73.4814V475.742ZM67.6543 482.064V481.074H78.0264V482.064H73.4053V486.114H72.2246V482.064H67.6543ZM91.585 474.752V483.334H90.3662V481.849H87.9541V480.884H90.3662V474.752H91.585ZM81.9873 479.183C83.4155 479.176 85.1929 479.157 86.9512 479.043C87.1416 477.888 87.1924 476.999 87.1987 476.364H83.0156V475.387H88.4111V475.831C88.4048 476.447 88.4048 477.5 88.1699 478.948C88.5889 478.903 89.0015 478.859 89.4014 478.802L89.4902 479.678C88.4683 479.849 87.4082 479.963 86.3672 480.033V482.598H85.1611V480.097C84.0757 480.147 83.0474 480.16 82.1523 480.16L81.9873 479.183ZM83.6504 485.873V482.407H84.8564V484.896H91.8643V485.873H83.6504ZM102.236 474.752V478.408H103.887V479.411H102.236V483.258H101.03V474.752H102.236ZM93.3115 477.05V476.072H96.1045V474.739H97.3105V476.072H100.091V477.05H93.3115ZM93.9336 479.741C93.9272 478.44 95.0508 477.589 96.7012 477.596C98.3325 477.589 99.4561 478.44 99.4561 479.741C99.4561 481.03 98.3325 481.868 96.7012 481.874C95.0508 481.868 93.9272 481.03 93.9336 479.741ZM95.0254 485.873V482.585H96.2314V484.896H102.719V485.873H95.0254ZM95.1016 479.741C95.0889 480.484 95.7363 480.941 96.7012 480.935C97.666 480.941 98.3135 480.484 98.3262 479.741C98.3135 478.992 97.666 478.529 96.7012 478.522C95.7363 478.529 95.0889 478.992 95.1016 479.741ZM109.714 474.93C112.278 474.923 113.77 475.615 113.776 476.885C113.77 478.161 112.278 478.853 109.714 478.853C107.149 478.853 105.645 478.161 105.651 476.885C105.645 475.615 107.149 474.923 109.714 474.93ZM104.534 480.516V479.551H114.906V480.516H104.534ZM105.778 482.293V481.392H113.599V484.058H106.972V485.073H113.916V486H105.791V483.182H112.405V482.293H105.778ZM106.908 476.885C106.902 477.589 107.905 477.951 109.714 477.951C111.536 477.951 112.539 477.589 112.532 476.885C112.539 476.212 111.536 475.818 109.714 475.818C107.905 475.818 106.902 476.212 106.908 476.885ZM125.697 476.517V477.507H118.956V476.517H121.711V474.892H122.917V476.517H125.697ZM119.616 480.985C119.616 479.449 120.765 478.345 122.333 478.345C123.875 478.345 125.012 479.449 125.012 480.985C125.012 482.515 123.875 483.632 122.333 483.639C120.765 483.632 119.616 482.515 119.616 480.985ZM120.746 480.985C120.74 481.957 121.419 482.61 122.333 482.598C123.228 482.61 123.914 481.957 123.907 480.985C123.914 480.033 123.228 479.373 122.333 479.36C121.419 479.373 120.74 480.033 120.746 480.985ZM125.456 480.414V479.424H127.233V474.739H128.427V486.114H127.233V480.414H125.456ZM140.551 480.287V481.265H130.179V480.287H132.667V478.757C131.785 478.402 131.29 477.831 131.296 477.075C131.29 475.723 132.857 474.936 135.358 474.942C137.853 474.936 139.415 475.723 139.421 477.075C139.415 477.831 138.919 478.402 138.037 478.764V480.287H140.551ZM131.41 484.058C131.41 482.756 132.883 482.039 135.358 482.039C137.802 482.039 139.275 482.756 139.281 484.058C139.275 485.372 137.802 486.089 135.358 486.089C132.883 486.089 131.41 485.372 131.41 484.058ZM132.54 477.075C132.534 477.837 133.587 478.262 135.358 478.269C137.117 478.262 138.183 477.837 138.177 477.075C138.183 476.313 137.117 475.875 135.358 475.869C133.587 475.875 132.534 476.313 132.54 477.075ZM132.629 484.058C132.623 484.769 133.619 485.175 135.358 485.162C137.072 485.175 138.075 484.769 138.075 484.058C138.075 483.359 137.072 482.966 135.358 482.966C133.619 482.966 132.623 483.359 132.629 484.058ZM133.886 480.287H136.844V479.075C136.399 479.145 135.898 479.183 135.358 479.183C134.825 479.183 134.33 479.145 133.886 479.081V480.287ZM150.275 474.739V479.348H152.104V480.351H150.275V486.114H149.082V474.739H150.275ZM141.351 477.507V476.517H144.156V474.892H145.362V476.517H148.092V477.507H141.351ZM141.935 480.985C141.935 479.437 143.128 478.345 144.766 478.345C146.397 478.345 147.59 479.437 147.597 480.985C147.59 482.547 146.397 483.632 144.766 483.639C143.128 483.632 141.935 482.547 141.935 480.985ZM143.09 480.985C143.083 481.976 143.794 482.636 144.766 482.623C145.73 482.636 146.435 481.976 146.441 480.985C146.435 480.014 145.73 479.341 144.766 479.335C143.794 479.341 143.083 480.014 143.09 480.985ZM156.839 478.091C156.833 479.995 158.083 481.963 159.835 482.712L159.175 483.651C157.835 483.061 156.769 481.804 156.242 480.287C155.715 481.912 154.649 483.296 153.322 483.943L152.624 482.991C154.338 482.185 155.607 480.052 155.62 478.091V476.885H153.018V475.882H159.429V476.885H156.839V478.091ZM160.863 486.114V474.739H162.069V486.114H160.863ZM170.22 475.349C171.94 475.355 173.203 476.447 173.203 477.989C173.203 479.538 171.94 480.624 170.22 480.63C168.506 480.624 167.224 479.538 167.236 477.989C167.224 476.447 168.506 475.355 170.22 475.349ZM168.201 485.81V481.582H169.382V484.819C170.048 484.788 170.816 484.692 171.54 484.451L171.718 485.403C170.658 485.765 169.636 485.81 168.785 485.81H168.201ZM168.404 477.989C168.398 478.96 169.191 479.64 170.22 479.64C171.254 479.64 172.035 478.96 172.035 477.989C172.035 477.024 171.254 476.352 170.22 476.352C169.191 476.352 168.398 477.024 168.404 477.989ZM171.324 482.547V481.62H173.622V480.693H174.803V481.62H177.062V482.547H171.324ZM172.048 484.502C172.035 483.512 172.911 482.883 174.193 482.877C175.45 482.883 176.339 483.512 176.339 484.502C176.339 485.479 175.45 486.095 174.193 486.089C172.911 486.095 172.035 485.479 172.048 484.502ZM173.114 484.502C173.114 484.965 173.565 485.251 174.193 485.251C174.809 485.251 175.253 484.965 175.26 484.502C175.253 484.039 174.809 483.74 174.193 483.74C173.565 483.74 173.114 484.039 173.114 484.502ZM174.79 480.401V474.739H175.996V477.228H177.646V478.23H175.996V480.401H174.79ZM187.498 478.065V479.03H179.665V475.146H180.858V478.065H187.498ZM178.281 481.43V480.465H188.691V481.43H178.281ZM179.576 485.848V482.509H180.782V484.857H187.574V485.848H179.576ZM202.187 474.752V481.48H200.98V480.097H198.111V479.106H200.98V477.723H198.232C197.496 479.551 195.788 480.839 193.325 481.544L192.843 480.604C195.534 479.836 197.108 478.389 197.324 476.555H193.427V475.564H198.632C198.632 475.983 198.587 476.39 198.511 476.771H200.98V474.752H202.187ZM194.607 483.829C194.607 482.452 196.105 481.614 198.441 481.607C200.746 481.614 202.256 482.452 202.263 483.829C202.256 485.213 200.746 486.063 198.441 486.063C196.105 486.063 194.607 485.213 194.607 483.829ZM195.801 483.829C195.801 484.629 196.816 485.092 198.441 485.099C200.035 485.092 201.05 484.629 201.057 483.829C201.05 483.017 200.035 482.553 198.441 482.56C196.816 482.553 195.801 483.017 195.801 483.829ZM214.336 481.201V482.204H209.689V486.114H208.509V482.204H203.926V481.201H214.336ZM205.056 477.697C205.062 476.148 206.7 475.171 209.105 475.171C211.511 475.171 213.162 476.148 213.155 477.697C213.162 479.227 211.511 480.198 209.105 480.198C206.7 480.198 205.062 479.227 205.056 477.697ZM206.3 477.697C206.293 478.643 207.417 479.233 209.105 479.233C210.8 479.233 211.917 478.643 211.924 477.697C211.917 476.739 210.8 476.142 209.105 476.136C207.417 476.142 206.293 476.739 206.3 477.697ZM221.052 475.374C222.575 475.361 223.667 476.428 223.667 477.964C223.667 479.487 222.575 480.56 221.052 480.554C219.522 480.56 218.443 479.487 218.449 477.964C218.443 476.428 219.522 475.361 221.052 475.374ZM219.528 477.964C219.522 478.916 220.169 479.557 221.052 479.563C221.928 479.557 222.562 478.916 222.575 477.964C222.562 476.993 221.928 476.345 221.052 476.352C220.169 476.345 219.522 476.993 219.528 477.964ZM220.455 485.975V481.43H221.648V482.674H226.866V481.43H228.047V485.975H220.455ZM221.648 484.997H226.866V483.651H221.648V484.997ZM224.454 480.858V474.955H225.571V477.278H226.904V474.752H228.047V480.935H226.904V478.281H225.571V480.858H224.454ZM239.003 474.739V486.14H237.797V474.739H239.003ZM229.977 479.576C229.977 477.145 231.202 475.596 232.922 475.59C234.61 475.596 235.854 477.145 235.854 479.576C235.854 482.033 234.61 483.582 232.922 483.575C231.202 483.582 229.977 482.033 229.977 479.576ZM231.145 479.576C231.138 481.385 231.862 482.496 232.922 482.496C233.963 482.496 234.687 481.385 234.687 479.576C234.687 477.792 233.963 476.675 232.922 476.669C231.862 476.675 231.138 477.792 231.145 479.576ZM253.476 474.739V481.506H252.27V478.624H250.149V477.634H252.27V474.739H253.476ZM243.992 480.478C245.757 479.862 246.842 478.326 246.836 476.758V476.504H244.373V475.526H250.505V476.504H248.067V476.745C248.061 478.186 249.089 479.589 250.81 480.173L250.188 481.125C248.912 480.687 247.972 479.773 247.477 478.649C246.982 479.919 245.985 480.941 244.627 481.442L243.992 480.478ZM245.82 483.969C245.814 482.617 247.274 481.83 249.667 481.823C252.047 481.83 253.507 482.617 253.514 483.969C253.507 485.321 252.047 486.108 249.667 486.114C247.274 486.108 245.814 485.321 245.82 483.969ZM247.014 483.969C247.007 484.737 247.998 485.175 249.667 485.162C251.324 485.175 252.314 484.737 252.32 483.969C252.314 483.194 251.324 482.756 249.667 482.763C247.998 482.756 247.007 483.194 247.014 483.969ZM259.15 476.555C259.144 478.046 260.198 479.437 261.893 479.995L261.245 480.947C260.001 480.509 259.068 479.621 258.573 478.497C258.078 479.773 257.113 480.776 255.786 481.265L255.139 480.3C256.916 479.671 257.944 478.154 257.957 476.453V475.336H259.15V476.555ZM256.675 483.981C256.675 482.648 258.128 481.868 260.496 481.874C262.832 481.868 264.267 482.648 264.267 483.981C264.267 485.327 262.832 486.095 260.496 486.089C258.128 486.095 256.675 485.327 256.675 483.981ZM257.881 483.981C257.875 484.73 258.852 485.137 260.496 485.149C262.127 485.137 263.092 484.73 263.086 483.981C263.092 483.258 262.127 482.826 260.496 482.826C258.852 482.826 257.875 483.258 257.881 483.981ZM262.959 481.607V474.739H264.165V477.596H265.815V478.611H264.165V481.607H262.959ZM270.538 476.758C270.532 478.192 271.56 479.595 273.28 480.186L272.658 481.125C271.382 480.687 270.437 479.773 269.941 478.649C269.446 479.9 268.45 480.903 267.098 481.379L266.476 480.427C268.221 479.83 269.313 478.313 269.307 476.771V476.453H266.844V475.476H272.976V476.453H270.538V476.758ZM268.24 483.093V482.115H275.946V486.114H274.74V483.093H268.24ZM272.633 478.624V477.634H274.74V474.739H275.946V481.544H274.74V478.624H272.633ZM282.878 475.425C285.265 475.425 287.08 476.688 287.08 478.599C287.08 480.522 285.265 481.779 282.878 481.772C280.498 481.779 278.682 480.522 278.688 478.599C278.682 476.688 280.498 475.425 282.878 475.425ZM277.698 484.642V483.639H288.108V484.642H277.698ZM279.844 478.599C279.837 479.925 281.132 480.782 282.878 480.782C284.617 480.782 285.906 479.925 285.912 478.599C285.906 477.278 284.617 476.396 282.878 476.402C281.132 476.396 279.837 477.278 279.844 478.599ZM299.344 483.74V484.756H288.934V483.74H293.517V481.747H290.203V478.129H296.881V476.529H290.178V475.539H298.074V479.094H291.396V480.757H298.341V481.747H294.71V483.74H299.344ZM307.316 476.783C307.31 478.237 308.319 479.614 310.059 480.198L309.449 481.138C308.161 480.693 307.215 479.805 306.72 478.688C306.225 479.913 305.234 480.884 303.901 481.354L303.254 480.414C305.031 479.811 306.104 478.338 306.11 476.771V476.466H303.609V475.488H309.767V476.466H307.316V476.783ZM304.765 483.131V482.153H312.28V486.114H311.074V483.131H304.765ZM311.074 481.595V474.739H312.28V477.659H313.931V478.675H312.28V481.595H311.074ZM324.963 480.274V481.239H314.578V480.274H319.187V479.068H315.873V475.26H323.681V476.212H317.066V478.104H323.757V479.068H320.354V480.274H324.963ZM315.81 484.045C315.81 482.725 317.289 481.982 319.758 481.976C322.208 481.982 323.674 482.725 323.681 484.045C323.674 485.365 322.208 486.108 319.758 486.114C317.289 486.108 315.81 485.365 315.81 484.045ZM317.028 484.045C317.022 484.775 318.019 485.175 319.758 485.162C321.472 485.175 322.475 484.775 322.475 484.045C322.475 483.328 321.472 482.915 319.758 482.915C318.019 482.915 317.022 483.328 317.028 484.045ZM334.675 474.739V479.348H336.503V480.351H334.675V486.114H333.481V474.739H334.675ZM325.75 477.507V476.517H328.556V474.892H329.762V476.517H332.491V477.507H325.75ZM326.334 480.985C326.334 479.437 327.527 478.345 329.165 478.345C330.796 478.345 331.99 479.437 331.996 480.985C331.99 482.547 330.796 483.632 329.165 483.639C327.527 483.632 326.334 482.547 326.334 480.985ZM327.489 480.985C327.483 481.976 328.194 482.636 329.165 482.623C330.13 482.636 330.834 481.976 330.841 480.985C330.834 480.014 330.13 479.341 329.165 479.335C328.194 479.341 327.483 480.014 327.489 480.985ZM341.238 478.091C341.232 479.995 342.482 481.963 344.234 482.712L343.574 483.651C342.235 483.061 341.168 481.804 340.642 480.287C340.115 481.912 339.048 483.296 337.722 483.943L337.023 482.991C338.737 482.185 340.007 480.052 340.02 478.091V476.885H337.417V475.882H343.828V476.885H341.238V478.091ZM345.263 486.114V474.739H346.469V486.114H345.263ZM354.619 475.349C356.339 475.355 357.603 476.447 357.603 477.989C357.603 479.538 356.339 480.624 354.619 480.63C352.905 480.624 351.623 479.538 351.636 477.989C351.623 476.447 352.905 475.355 354.619 475.349ZM352.601 485.81V481.582H353.781V484.819C354.448 484.788 355.216 484.692 355.939 484.451L356.117 485.403C355.057 485.765 354.035 485.81 353.185 485.81H352.601ZM352.804 477.989C352.797 478.96 353.591 479.64 354.619 479.64C355.654 479.64 356.435 478.96 356.435 477.989C356.435 477.024 355.654 476.352 354.619 476.352C353.591 476.352 352.797 477.024 352.804 477.989ZM355.724 482.547V481.62H358.021V480.693H359.202V481.62H361.462V482.547H355.724ZM356.447 484.502C356.435 483.512 357.311 482.883 358.593 482.877C359.85 482.883 360.738 483.512 360.738 484.502C360.738 485.479 359.85 486.095 358.593 486.089C357.311 486.095 356.435 485.479 356.447 484.502ZM357.514 484.502C357.514 484.965 357.964 485.251 358.593 485.251C359.208 485.251 359.653 484.965 359.659 484.502C359.653 484.039 359.208 483.74 358.593 483.74C357.964 483.74 357.514 484.039 357.514 484.502ZM359.189 480.401V474.739H360.396V477.228H362.046V478.23H360.396V480.401H359.189ZM367.873 474.93C370.438 474.923 371.929 475.615 371.936 476.885C371.929 478.161 370.438 478.853 367.873 478.853C365.309 478.853 363.804 478.161 363.811 476.885C363.804 475.615 365.309 474.923 367.873 474.93ZM362.693 480.516V479.551H373.065V480.516H362.693ZM363.938 482.293V481.392H371.758V484.058H365.131V485.073H372.075V486H363.95V483.182H370.564V482.293H363.938ZM365.067 476.885C365.061 477.589 366.064 477.951 367.873 477.951C369.695 477.951 370.698 477.589 370.691 476.885C370.698 476.212 369.695 475.818 367.873 475.818C366.064 475.818 365.061 476.212 365.067 476.885ZM62.2461 493.742C62.2397 495.253 64.0869 496.668 66.3213 496.967L65.8516 497.957C63.9917 497.659 62.3604 496.694 61.6177 495.354C60.875 496.694 59.2437 497.659 57.3965 497.957L56.9141 496.967C59.1421 496.668 60.9829 495.272 60.9893 493.742V493.12H62.2461V493.742ZM56.4189 500.064V499.074H66.791V500.064H62.1699V504.114H60.9893V500.064H56.4189ZM74.7764 500.255C74.7764 501.232 75.2588 502.267 76.2935 502.883C77.3345 502.216 77.8486 501.131 77.8486 500.255V499.709H79.0293V500.255C79.0229 501.436 79.8037 502.578 81.2891 503.061L80.6924 503.949C79.5688 503.562 78.8008 502.8 78.4072 501.874C78.0454 502.788 77.3662 503.619 76.3252 504.051C75.2334 503.638 74.5415 502.832 74.1924 501.905C73.7798 502.8 73.0308 503.556 71.958 503.949L71.3486 503.061C72.8086 502.54 73.6021 501.353 73.6084 500.255V499.709H74.7764V500.255ZM71.0566 496.065C71.063 494.472 72.3452 493.38 74.0908 493.374C75.8301 493.38 77.1123 494.472 77.1123 496.065C77.1123 497.64 75.8301 498.731 74.0908 498.731C72.3452 498.731 71.063 497.64 71.0566 496.065ZM72.2373 496.065C72.231 497.056 73.0117 497.729 74.0908 497.729C75.1572 497.729 75.9316 497.056 75.9316 496.065C75.9316 495.069 75.1572 494.396 74.0908 494.402C73.0117 494.396 72.231 495.069 72.2373 496.065ZM79.0547 499.227V492.752H80.2607V499.227H79.0547ZM84.5391 499.557V500.763H89.8838V499.557H91.0898V503.975H83.3457V499.557H84.5391ZM82.0635 498.846V497.843H92.4355V498.846H82.0635ZM82.6221 496.192C84.8247 495.907 86.6274 494.694 86.6338 493.349V492.866H87.8652V493.349C87.8716 494.656 89.687 495.926 91.8643 496.192L91.4326 497.145C89.5918 496.891 87.9858 496.015 87.2559 494.802C86.5195 496.021 84.9072 496.891 83.0791 497.145L82.6221 496.192ZM84.5391 503.01H89.8838V501.702H84.5391V503.01ZM102.744 492.739V504.114H101.538V492.739H102.744ZM93.9971 501.22V493.844H95.1904V500.179C96.8535 500.172 98.5991 500.026 100.421 499.658L100.586 500.674C98.5737 501.086 96.7456 501.226 94.9492 501.22H93.9971ZM113.396 492.739V497.145H115.224V498.135H113.396V504.14H112.189V492.739H113.396ZM105.017 501.309V493.831H110.336V494.809H106.223V500.306C108.133 500.299 109.562 500.217 111.187 499.925L111.339 500.94C109.555 501.258 108.044 501.315 105.931 501.309H105.017ZM117.064 503.124C116.569 503.118 116.157 502.718 116.163 502.223C116.157 501.728 116.569 501.321 117.064 501.321C117.553 501.321 117.959 501.728 117.966 502.223C117.959 502.718 117.553 503.118 117.064 503.124ZM60.4307 512.821C60.437 514.364 61.459 515.849 63.1729 516.452L62.5127 517.392C61.2749 516.916 60.3418 515.976 59.853 514.802C59.3643 516.109 58.3931 517.144 57.0537 517.658L56.4062 516.706C58.1772 516.078 59.231 514.497 59.2373 512.783V511.438H60.4307V512.821ZM58.4756 521.873V518.28H59.6943V520.896H66.1562V521.873H58.4756ZM62.2969 514.332V513.342H64.6963V510.752H65.9023V519.232H64.6963V514.332H62.2969ZM72.5674 511.552V512.529H69.2793V513.799H72.4404V514.726H69.2793V516.109C70.8027 516.097 71.7993 516.04 72.9736 515.817L73.0879 516.808C71.7549 517.055 70.6694 517.106 68.8604 517.1H68.124V511.552H72.5674ZM69.6221 519.182V518.204H77.3535V522.114H76.1602V519.182H69.6221ZM73.6846 517.569V510.955H74.8145V513.646H76.2109V510.752H77.3535V517.658H76.2109V514.624H74.8145V517.569H73.6846ZM91.585 510.752V519.334H90.3662V517.849H87.9541V516.884H90.3662V510.752H91.585ZM81.9873 515.183C83.4155 515.176 85.1929 515.157 86.9512 515.043C87.1416 513.888 87.1924 512.999 87.1987 512.364H83.0156V511.387H88.4111V511.831C88.4048 512.447 88.4048 513.5 88.1699 514.948C88.5889 514.903 89.0015 514.859 89.4014 514.802L89.4902 515.678C88.4683 515.849 87.4082 515.963 86.3672 516.033V518.598H85.1611V516.097C84.0757 516.147 83.0474 516.16 82.1523 516.16L81.9873 515.183ZM83.6504 521.873V518.407H84.8564V520.896H91.8643V521.873H83.6504ZM102.236 510.752V514.408H103.887V515.411H102.236V519.258H101.03V510.752H102.236ZM93.3115 513.05V512.072H96.1045V510.739H97.3105V512.072H100.091V513.05H93.3115ZM93.9336 515.741C93.9272 514.44 95.0508 513.589 96.7012 513.596C98.3325 513.589 99.4561 514.44 99.4561 515.741C99.4561 517.03 98.3325 517.868 96.7012 517.874C95.0508 517.868 93.9272 517.03 93.9336 515.741ZM95.0254 521.873V518.585H96.2314V520.896H102.719V521.873H95.0254ZM95.1016 515.741C95.0889 516.484 95.7363 516.941 96.7012 516.935C97.666 516.941 98.3135 516.484 98.3262 515.741C98.3135 514.992 97.666 514.529 96.7012 514.522C95.7363 514.529 95.0889 514.992 95.1016 515.741ZM109.714 510.93C112.278 510.923 113.77 511.615 113.776 512.885C113.77 514.161 112.278 514.853 109.714 514.853C107.149 514.853 105.645 514.161 105.651 512.885C105.645 511.615 107.149 510.923 109.714 510.93ZM104.534 516.516V515.551H114.906V516.516H104.534ZM105.778 518.293V517.392H113.599V520.058H106.972V521.073H113.916V522H105.791V519.182H112.405V518.293H105.778ZM106.908 512.885C106.902 513.589 107.905 513.951 109.714 513.951C111.536 513.951 112.539 513.589 112.532 512.885C112.539 512.212 111.536 511.818 109.714 511.818C107.905 511.818 106.902 512.212 106.908 512.885ZM125.697 512.517V513.507H118.956V512.517H121.711V510.892H122.917V512.517H125.697ZM119.616 516.985C119.616 515.449 120.765 514.345 122.333 514.345C123.875 514.345 125.012 515.449 125.012 516.985C125.012 518.515 123.875 519.632 122.333 519.639C120.765 519.632 119.616 518.515 119.616 516.985ZM120.746 516.985C120.74 517.957 121.419 518.61 122.333 518.598C123.228 518.61 123.914 517.957 123.907 516.985C123.914 516.033 123.228 515.373 122.333 515.36C121.419 515.373 120.74 516.033 120.746 516.985ZM125.456 516.414V515.424H127.233V510.739H128.427V522.114H127.233V516.414H125.456ZM140.551 516.287V517.265H130.179V516.287H132.667V514.757C131.785 514.402 131.29 513.831 131.296 513.075C131.29 511.723 132.857 510.936 135.358 510.942C137.853 510.936 139.415 511.723 139.421 513.075C139.415 513.831 138.919 514.402 138.037 514.764V516.287H140.551ZM131.41 520.058C131.41 518.756 132.883 518.039 135.358 518.039C137.802 518.039 139.275 518.756 139.281 520.058C139.275 521.372 137.802 522.089 135.358 522.089C132.883 522.089 131.41 521.372 131.41 520.058ZM132.54 513.075C132.534 513.837 133.587 514.262 135.358 514.269C137.117 514.262 138.183 513.837 138.177 513.075C138.183 512.313 137.117 511.875 135.358 511.869C133.587 511.875 132.534 512.313 132.54 513.075ZM132.629 520.058C132.623 520.769 133.619 521.175 135.358 521.162C137.072 521.175 138.075 520.769 138.075 520.058C138.075 519.359 137.072 518.966 135.358 518.966C133.619 518.966 132.623 519.359 132.629 520.058ZM133.886 516.287H136.844V515.075C136.399 515.145 135.898 515.183 135.358 515.183C134.825 515.183 134.33 515.145 133.886 515.081V516.287ZM150.275 510.739V515.348H152.104V516.351H150.275V522.114H149.082V510.739H150.275ZM141.351 513.507V512.517H144.156V510.892H145.362V512.517H148.092V513.507H141.351ZM141.935 516.985C141.935 515.437 143.128 514.345 144.766 514.345C146.397 514.345 147.59 515.437 147.597 516.985C147.59 518.547 146.397 519.632 144.766 519.639C143.128 519.632 141.935 518.547 141.935 516.985ZM143.09 516.985C143.083 517.976 143.794 518.636 144.766 518.623C145.73 518.636 146.435 517.976 146.441 516.985C146.435 516.014 145.73 515.341 144.766 515.335C143.794 515.341 143.083 516.014 143.09 516.985ZM156.839 514.091C156.833 515.995 158.083 517.963 159.835 518.712L159.175 519.651C157.835 519.061 156.769 517.804 156.242 516.287C155.715 517.912 154.649 519.296 153.322 519.943L152.624 518.991C154.338 518.185 155.607 516.052 155.62 514.091V512.885H153.018V511.882H159.429V512.885H156.839V514.091ZM160.863 522.114V510.739H162.069V522.114H160.863ZM170.22 511.349C171.94 511.355 173.203 512.447 173.203 513.989C173.203 515.538 171.94 516.624 170.22 516.63C168.506 516.624 167.224 515.538 167.236 513.989C167.224 512.447 168.506 511.355 170.22 511.349ZM168.201 521.81V517.582H169.382V520.819C170.048 520.788 170.816 520.692 171.54 520.451L171.718 521.403C170.658 521.765 169.636 521.81 168.785 521.81H168.201ZM168.404 513.989C168.398 514.96 169.191 515.64 170.22 515.64C171.254 515.64 172.035 514.96 172.035 513.989C172.035 513.024 171.254 512.352 170.22 512.352C169.191 512.352 168.398 513.024 168.404 513.989ZM171.324 518.547V517.62H173.622V516.693H174.803V517.62H177.062V518.547H171.324ZM172.048 520.502C172.035 519.512 172.911 518.883 174.193 518.877C175.45 518.883 176.339 519.512 176.339 520.502C176.339 521.479 175.45 522.095 174.193 522.089C172.911 522.095 172.035 521.479 172.048 520.502ZM173.114 520.502C173.114 520.965 173.565 521.251 174.193 521.251C174.809 521.251 175.253 520.965 175.26 520.502C175.253 520.039 174.809 519.74 174.193 519.74C173.565 519.74 173.114 520.039 173.114 520.502ZM174.79 516.401V510.739H175.996V513.228H177.646V514.23H175.996V516.401H174.79ZM181.341 511.59C183.042 511.596 184.254 513.145 184.261 515.576C184.254 518.033 183.042 519.582 181.341 519.575C179.64 519.582 178.427 518.033 178.434 515.576C178.427 513.145 179.64 511.596 181.341 511.59ZM179.589 515.576C179.583 517.385 180.306 518.496 181.341 518.496C182.395 518.496 183.105 517.385 183.105 515.576C183.105 513.792 182.395 512.675 181.341 512.669C180.306 512.675 179.583 513.792 179.589 515.576ZM185.949 522.114V510.739H187.155V515.195H188.983V516.211H187.155V522.114H185.949ZM198.746 515.982V516.947H195.306V519.728H199.939V520.718H189.529V519.728H194.112V516.947H190.824V511.615H198.645V512.593H192.03V515.982H198.746ZM209.562 512.618V513.596H203.913V512.618H206.147V511.069H207.341V512.618H209.562ZM204.281 516.896C204.275 515.367 205.316 514.281 206.744 514.281C208.185 514.281 209.213 515.367 209.22 516.896C209.213 518.452 208.185 519.543 206.744 519.537C205.316 519.543 204.275 518.452 204.281 516.896ZM205.348 516.896C205.341 517.861 205.925 518.509 206.744 518.509C207.563 518.509 208.153 517.861 208.153 516.896C208.153 515.951 207.563 515.291 206.744 515.284C205.925 515.291 205.341 515.951 205.348 516.896ZM210.083 521.581V510.993H211.226V515.475H212.533V510.739H213.676V522.114H212.533V516.465H211.226V521.581H210.083ZM224.124 510.739V513.621H225.762V514.611H224.124V517.455H222.905V510.739H224.124ZM215.656 516.63V511.577H220.734V512.555H216.85V515.652C219.09 515.64 220.354 515.576 221.788 515.284L221.902 516.262C220.379 516.573 219.021 516.63 216.558 516.63H215.656ZM216.621 519.88C216.621 518.49 218.094 517.677 220.442 517.671C222.766 517.677 224.213 518.49 224.213 519.88C224.213 521.283 222.766 522.095 220.442 522.089C218.094 522.095 216.621 521.283 216.621 519.88ZM217.814 519.88C217.808 520.667 218.798 521.13 220.442 521.124C222.055 521.13 223.051 520.667 223.058 519.88C223.051 519.093 222.055 518.642 220.442 518.648C218.798 518.642 217.808 519.093 217.814 519.88ZM239.041 510.739V522.114H237.822V510.739H239.041ZM229.697 519.067C232.719 517.626 234.198 515.576 234.433 512.923H230.243V511.958H235.651C235.651 515.291 234.236 518.172 230.332 520.045L229.697 519.067ZM250.01 513.812V514.789H242.202V510.942H243.396V513.812H250.01ZM240.818 516.985V515.995H251.203V516.985H240.818ZM242.05 519.981C242.05 518.655 243.529 517.906 245.998 517.912C248.448 517.906 249.915 518.655 249.921 519.981C249.915 521.314 248.448 522.063 245.998 522.063C243.529 522.063 242.05 521.314 242.05 519.981ZM243.269 519.981C243.262 520.711 244.259 521.13 245.998 521.137C247.712 521.13 248.715 520.711 248.715 519.981C248.715 519.245 247.712 518.858 245.998 518.852C244.259 518.858 243.262 519.245 243.269 519.981ZM258.935 511.463C260.731 511.463 262.026 512.567 262.032 514.167C262.026 515.583 261.01 516.611 259.531 516.827V518.623C260.604 518.572 261.696 518.477 262.718 518.331L262.807 519.207C260.236 519.683 257.475 519.696 255.443 519.702L255.291 518.712C256.186 518.712 257.227 518.706 258.325 518.674V516.827C256.853 516.604 255.831 515.576 255.837 514.167C255.831 512.567 257.145 511.463 258.935 511.463ZM257.03 514.167C257.018 515.164 257.83 515.843 258.935 515.83C260.039 515.843 260.852 515.164 260.852 514.167C260.852 513.151 260.039 512.504 258.935 512.504C257.83 512.504 257.018 513.151 257.03 514.167ZM263.429 522.14V510.739H264.635V522.14H263.429ZM273.737 513.634C273.737 515.716 274.905 517.792 276.645 518.572L275.908 519.537C274.62 518.89 273.642 517.607 273.141 516.052C272.639 517.69 271.649 519.074 270.335 519.753L269.573 518.775C271.338 517.931 272.512 515.741 272.519 513.634V511.691H273.737V513.634ZM275.388 515.5V514.522H277.927V510.739H279.12V522.14H277.927V515.5H275.388ZM290.292 510.739V522.14H289.086V510.739H290.292ZM281.507 519.41V511.691H282.713V514.611H285.772V511.691H286.966V519.41H281.507ZM282.713 518.42H285.772V515.563H282.713V518.42ZM297.884 512.352C297.884 514.205 299.858 515.957 302.048 516.351L301.489 517.354C299.667 516.96 297.998 515.767 297.262 514.167C296.513 515.76 294.843 516.947 293.021 517.354L292.488 516.351C294.646 515.944 296.608 514.205 296.614 512.352V511.488H297.884V512.352ZM292.107 520.616V519.613H302.518V520.616H292.107ZM312.547 514.065V515.03H304.714V511.146H305.907V514.065H312.547ZM303.33 517.43V516.465H313.74V517.43H303.33ZM304.625 521.848V518.509H305.831V520.857H312.623V521.848H304.625ZM327.235 510.739V517.506H326.029V514.624H323.909V513.634H326.029V510.739H327.235ZM317.752 516.478C319.517 515.862 320.602 514.326 320.596 512.758V512.504H318.133V511.526H324.265V512.504H321.827V512.745C321.821 514.186 322.849 515.589 324.569 516.173L323.947 517.125C322.671 516.687 321.732 515.773 321.237 514.649C320.742 515.919 319.745 516.941 318.387 517.442L317.752 516.478ZM319.58 519.969C319.574 518.617 321.034 517.83 323.427 517.823C325.807 517.83 327.267 518.617 327.273 519.969C327.267 521.321 325.807 522.108 323.427 522.114C321.034 522.108 319.574 521.321 319.58 519.969ZM320.773 519.969C320.767 520.737 321.757 521.175 323.427 521.162C325.083 521.175 326.074 520.737 326.08 519.969C326.074 519.194 325.083 518.756 323.427 518.763C321.757 518.756 320.767 519.194 320.773 519.969ZM332.91 512.555C332.904 514.046 333.958 515.437 335.652 515.995L335.005 516.947C333.761 516.509 332.828 515.621 332.333 514.497C331.837 515.773 330.873 516.776 329.546 517.265L328.898 516.3C330.676 515.671 331.704 514.154 331.717 512.453V511.336H332.91V512.555ZM330.435 519.981C330.435 518.648 331.888 517.868 334.256 517.874C336.592 517.868 338.026 518.648 338.026 519.981C338.026 521.327 336.592 522.095 334.256 522.089C331.888 522.095 330.435 521.327 330.435 519.981ZM331.641 519.981C331.634 520.73 332.612 521.137 334.256 521.149C335.887 521.137 336.852 520.73 336.846 519.981C336.852 519.258 335.887 518.826 334.256 518.826C332.612 518.826 331.634 519.258 331.641 519.981ZM336.719 517.607V510.739H337.925V513.596H339.575V514.611H337.925V517.607H336.719ZM344.298 512.758C344.292 514.192 345.32 515.595 347.04 516.186L346.418 517.125C345.142 516.687 344.196 515.773 343.701 514.649C343.206 515.9 342.209 516.903 340.857 517.379L340.235 516.427C341.981 515.83 343.073 514.313 343.066 512.771V512.453H340.604V511.476H346.735V512.453H344.298V512.758ZM342 519.093V518.115H349.706V522.114H348.5V519.093H342ZM346.393 514.624V513.634H348.5V510.739H349.706V517.544H348.5V514.624H346.393ZM356.638 511.425C359.024 511.425 360.84 512.688 360.84 514.599C360.84 516.522 359.024 517.779 356.638 517.772C354.257 517.779 352.442 516.522 352.448 514.599C352.442 512.688 354.257 511.425 356.638 511.425ZM351.458 520.642V519.639H361.868V520.642H351.458ZM353.604 514.599C353.597 515.925 354.892 516.782 356.638 516.782C358.377 516.782 359.666 515.925 359.672 514.599C359.666 513.278 358.377 512.396 356.638 512.402C354.892 512.396 353.597 513.278 353.604 514.599ZM373.104 519.74V520.756H362.693V519.74H367.276V517.747H363.963V514.129H370.641V512.529H363.938V511.539H371.834V515.094H365.156V516.757H372.101V517.747H368.47V519.74H373.104ZM60.3672 531.634C60.3545 533.646 61.5288 535.709 63.2236 536.534L62.4746 537.499C61.2368 536.852 60.2783 535.582 59.7769 534.065C59.269 535.677 58.2725 537.042 56.9775 537.715L56.2285 536.737C57.9741 535.899 59.1548 533.716 59.1611 531.634V529.691H60.3672V531.634ZM64.0742 540.114V528.739H65.2803V533.271H67.1084V534.3H65.2803V540.114H64.0742ZM78.0264 534.287V535.265H67.6543V534.287H70.1426V532.757C69.2603 532.402 68.7651 531.831 68.7715 531.075C68.7651 529.723 70.333 528.936 72.834 528.942C75.3286 528.936 76.8901 529.723 76.8965 531.075C76.8901 531.831 76.395 532.402 75.5127 532.764V534.287H78.0264ZM68.8857 538.058C68.8857 536.756 70.3584 536.039 72.834 536.039C75.2778 536.039 76.7505 536.756 76.7568 538.058C76.7505 539.372 75.2778 540.089 72.834 540.089C70.3584 540.089 68.8857 539.372 68.8857 538.058ZM70.0156 531.075C70.0093 531.837 71.063 532.262 72.834 532.269C74.5923 532.262 75.6587 531.837 75.6523 531.075C75.6587 530.313 74.5923 529.875 72.834 529.869C71.063 529.875 70.0093 530.313 70.0156 531.075ZM70.1045 538.058C70.0981 538.769 71.0947 539.175 72.834 539.162C74.5479 539.175 75.5508 538.769 75.5508 538.058C75.5508 537.359 74.5479 536.966 72.834 536.966C71.0947 536.966 70.0981 537.359 70.1045 538.058ZM71.3613 534.287H74.3193V533.075C73.875 533.145 73.3735 533.183 72.834 533.183C72.3008 533.183 71.8057 533.145 71.3613 533.081V534.287ZM90.9248 528.739V533.271H92.6895V534.274H90.9248V540.102H89.7188V528.739H90.9248ZM82.0762 537.067C84.9263 535.646 86.4751 533.589 86.7227 530.936H82.6475V529.933H87.9541C87.9414 533.221 86.4941 536.16 82.749 538.007L82.0762 537.067ZM102.49 531.812V532.789H94.6826V528.942H95.876V531.812H102.49ZM93.2988 534.985V533.995H103.684V534.985H93.2988ZM94.5303 537.981C94.5303 536.655 96.0093 535.906 98.4785 535.912C100.929 535.906 102.395 536.655 102.401 537.981C102.395 539.314 100.929 540.063 98.4785 540.063C96.0093 540.063 94.5303 539.314 94.5303 537.981ZM95.749 537.981C95.7427 538.711 96.7393 539.13 98.4785 539.137C100.192 539.13 101.195 538.711 101.195 537.981C101.195 537.245 100.192 536.858 98.4785 536.852C96.7393 536.858 95.7427 537.245 95.749 537.981ZM113.472 528.739V531.596H115.122V532.611H113.472V535.366H112.266V528.739H113.472ZM104.547 530.821V529.856H107.34V528.638H108.546V529.856H111.326V530.821H104.547ZM105.169 533.284C105.163 532.072 106.28 531.285 107.937 531.291C109.574 531.285 110.691 532.072 110.691 533.284C110.691 534.497 109.574 535.29 107.937 535.277C106.28 535.29 105.163 534.497 105.169 533.284ZM106.197 539.975V535.836H107.391V536.94H112.266V535.836H113.472V539.975H106.197ZM106.337 533.284C106.324 533.963 106.972 534.382 107.937 534.389C108.901 534.382 109.549 533.963 109.562 533.284C109.549 532.618 108.901 532.186 107.937 532.192C106.972 532.186 106.324 532.618 106.337 533.284ZM107.391 539.01H112.266V537.88H107.391V539.01ZM125.215 528.739V540.114H124.009V528.739H125.215ZM116.468 537.22V529.844H117.661V536.179C119.324 536.172 121.07 536.026 122.892 535.658L123.057 536.674C121.044 537.086 119.216 537.226 117.42 537.22H116.468ZM135.866 528.739V533.145H137.694V534.135H135.866V540.14H134.66V528.739H135.866ZM127.487 537.309V529.831H132.807V530.809H128.693V536.306C130.604 536.299 132.032 536.217 133.657 535.925L133.81 536.94C132.026 537.258 130.515 537.315 128.401 537.309H127.487ZM139.535 539.124C139.04 539.118 138.627 538.718 138.634 538.223C138.627 537.728 139.04 537.321 139.535 537.321C140.024 537.321 140.43 537.728 140.437 538.223C140.43 538.718 140.024 539.118 139.535 539.124Z" fill="#6B7280"/>
</svg>
