<svg width="400" height="643" viewBox="0 0 400 643" fill="none" xmlns="http://www.w3.org/2000/svg">
<rect width="400" height="643" fill="white"/>
<mask id="mask0_909_3091" style="mask-type:alpha" maskUnits="userSpaceOnUse" x="345" y="20" width="30" height="30">
<rect x="345" y="20" width="30" height="30" fill="#D9D9D9"/>
</mask>
<g mask="url(#mask0_909_3091)">
<path d="M360.001 36.6582L353.684 42.9754C353.454 43.205 353.178 43.3198 352.855 43.3198C352.532 43.3198 352.256 43.205 352.026 42.9754C351.796 42.7458 351.682 42.4696 351.682 42.1466C351.682 41.8237 351.796 41.5475 352.026 41.3179L358.343 35.0007L352.026 28.6835C351.796 28.4539 351.682 28.1777 351.682 27.8548C351.682 27.5319 351.796 27.2556 352.026 27.026C352.256 26.7964 352.532 26.6816 352.855 26.6816C353.178 26.6816 353.454 26.7964 353.684 27.026L360.001 33.3432L366.318 27.026C366.547 26.7964 366.824 26.6816 367.147 26.6816C367.47 26.6816 367.746 26.7964 367.975 27.026C368.205 27.2556 368.32 27.5319 368.32 27.8548C368.32 28.1777 368.205 28.4539 367.975 28.6835L361.658 35.0007L367.975 41.3179C368.205 41.5475 368.32 41.8237 368.32 42.1466C368.32 42.4696 368.205 42.7458 367.975 42.9754C367.746 43.205 367.47 43.3198 367.147 43.3198C366.824 43.3198 366.547 43.205 366.318 42.9754L360.001 36.6582Z" fill="#111827"/>
</g>
<path d="M33.5078 90.1797C33.5078 93.6953 35.8047 97.3281 39.0391 98.7109L37.8203 100.445C35.3477 99.3555 33.3789 97.0469 32.4062 94.2344C31.4336 97.2344 29.4531 99.7891 27.0156 100.984L25.7266 99.2266C28.8906 97.75 31.2344 93.7891 31.2578 90.1797V87.9531H26.4531V86.1016H38.2891V87.9531H33.5078V90.1797ZM43.1641 83.9922V104.992H40.9375V83.9922H43.1641ZM63.2969 85.0469V86.6406C63.2969 88.293 63.2969 90.168 62.7578 92.7109H65.7344V94.5391H46.5156V92.7109H60.5078C61.0703 90.2617 61.0938 88.4688 61.0938 86.875H48.9297V85.0469H63.2969ZM63.3203 97.2109V104.734H48.8594V97.2109H63.3203ZM51.0391 98.9688V102.93H61.1172V98.9688H51.0391ZM79.6328 88.2344C79.6328 90.2148 80.582 92.6875 82.7031 94.1406C84.7891 92.7109 85.75 90.2734 85.75 88.2344V85.6094H88V88.2344C87.9766 90.7891 89.3594 93.4141 92.1719 94.5859L90.9531 96.25C88.9375 95.3711 87.5781 93.7305 86.8516 91.7734C86.1484 93.7891 84.8125 95.5703 82.6797 96.5078C80.5352 95.5703 79.1758 93.7188 78.4844 91.7031C77.7461 93.6367 76.3867 95.3477 74.4062 96.25L73.2109 94.5859C75.9531 93.3672 77.3828 90.5781 77.4062 88.2344V85.6094H79.6328V88.2344ZM92.3125 100.398V102.227H73.1172V100.398H92.3125ZM110.852 90.1328V91.9141H96.3906V84.7422H98.5938V90.1328H110.852ZM113.055 94.5625V96.3438H93.8359V94.5625H113.055ZM110.992 102.672V104.5H96.2266V98.3359H98.4531V102.672H110.992ZM138.531 86.2422V88.0234H121.445V86.2422H128.922V83.8984H131.125V86.2422H138.531ZM139.68 97.4219V99.2266H134.828V105.016H132.578V99.2266H127.516V105.016H125.289V99.2266H120.461V97.4219H139.68ZM130.023 89.1016C134.383 89.1016 137.008 90.3438 137.008 92.6172C137.008 94.8672 134.383 96.1328 130.023 96.1328C125.641 96.1328 123.016 94.8672 123.039 92.6172C123.016 90.3438 125.641 89.1016 130.023 89.1016ZM130.023 90.7891C127 90.8125 125.336 91.4219 125.336 92.6172C125.336 93.7891 127 94.4219 130.023 94.4219C133.023 94.4219 134.688 93.7891 134.711 92.6172C134.688 91.4219 133.023 90.8125 130.023 90.7891ZM159.227 83.9922V104.992H157.094V94.1406H154.375V103.914H152.336V84.4141H154.375V92.3125H157.094V83.9922H159.227ZM149.781 86.5234V88.3281H144.133V98.0547C146.711 98.0312 148.656 97.9141 150.906 97.4922L151.07 99.3203C148.539 99.8359 146.383 99.9297 143.312 99.9531H141.906V86.5234H149.781ZM179.289 84.8828V86.7109H176.242V91.1172H179.195V92.875H172.609V95.2422H181.094V97.0234H161.945V95.2422H170.406V92.875H163.797V91.1172H166.773V86.7109H163.703V84.8828H179.289ZM178.938 102.742V104.547H164.359V98.7109H166.609V102.742H178.938ZM168.977 91.1172H174.016V86.7109H168.977V91.1172ZM201.836 94.9609V96.7422H182.688V94.9609H201.836ZM199.68 102.742V104.547H185.102V98.4531H187.352V102.742H199.68ZM192.25 84.6953C196.797 84.6719 199.75 86.2656 199.75 88.8906C199.75 91.5391 196.797 93.1328 192.25 93.1562C187.68 93.1328 184.75 91.5391 184.75 88.8906C184.75 86.2656 187.68 84.6719 192.25 84.6953ZM192.25 86.4766C189.039 86.4766 187.023 87.3906 187.047 88.8906C187.023 90.4375 189.039 91.3281 192.25 91.3281C195.461 91.3281 197.453 90.4375 197.453 88.8906C197.453 87.3906 195.461 86.4766 192.25 86.4766ZM44.9219 124.031V125.789H25.7266V124.031H34.2109V122.203H28.2344V113.555H42.5781V115.312H30.4844V117.023H42.0391V118.688H30.4844V120.469H42.7188V122.203H36.4375V124.031H44.9219ZM35.3359 127.172C39.9531 127.148 42.5781 128.367 42.5781 130.57C42.5781 132.797 39.9531 133.969 35.3359 133.945C30.6719 133.969 28.0469 132.797 28.0469 130.57C28.0469 128.367 30.6719 127.148 35.3359 127.172ZM35.3359 128.836C32.0312 128.836 30.25 129.445 30.2734 130.57C30.25 131.695 32.0312 132.281 35.3359 132.258C38.5938 132.281 40.3516 131.695 40.3516 130.57C40.3516 129.445 38.5938 128.836 35.3359 128.836ZM63.9297 113.016V128.391H61.7031V113.016H63.9297ZM64.5625 131.742V133.547H50.1953V126.938H52.4453V131.742H64.5625ZM54.1562 116.25C54.1328 119.32 56.1016 122.133 59.3359 123.258L58.1875 125.039C55.7617 124.137 53.9688 122.355 53.0312 120.07C52.1055 122.508 50.2891 124.465 47.8281 125.414L46.6328 123.656C49.9375 122.438 51.8828 119.414 51.8828 116.25V114.164H54.1562V116.25ZM74.5469 118.336C74.5234 122.062 76.6797 125.859 79.8203 127.383L78.4375 129.164C76.1523 127.98 74.3828 125.625 73.4688 122.812C72.5195 125.812 70.6797 128.32 68.2891 129.562L66.9062 127.758C70.1406 126.211 72.3203 122.18 72.3203 118.336V114.75H74.5469V118.336ZM83.6172 112.992V121.359H86.9922V123.258H83.6172V133.992H81.3906V112.992H83.6172ZM104.359 112.992V121.359H107.617V123.211H104.359V133.969H102.133V112.992H104.359ZM98.875 115.195C98.8516 121.266 96.1797 126.68 89.2656 130.102L88.0234 128.367C93.2852 125.742 96.1445 121.945 96.6016 117.047H89.0781V115.195H98.875ZM120.297 114.562C123.145 114.562 125.23 116.977 125.57 120.867H129.906V112.992H132.109V134.039H129.906V122.672H125.594C125.348 126.762 123.215 129.305 120.297 129.305C117.156 129.305 114.953 126.445 114.977 121.922C114.953 117.422 117.156 114.562 120.297 114.562ZM120.297 116.555C118.398 116.555 117.086 118.617 117.086 121.922C117.086 125.25 118.398 127.312 120.297 127.312C122.195 127.312 123.508 125.25 123.508 121.922C123.508 118.617 122.195 116.555 120.297 116.555ZM152.734 112.992V134.039H150.508V112.992H152.734ZM146.734 114.938V116.789H138.93V126.984C142.914 126.973 145.457 126.867 148.422 126.328L148.656 128.18C145.516 128.742 142.773 128.883 138.414 128.883H136.68V114.938H146.734ZM173.5 113.016V128.273H171.273V113.016H173.5ZM174.133 131.742V133.547H159.766V126.727H162.016V131.742H174.133ZM162.109 114.422C165.273 114.422 167.688 116.578 167.688 119.625C167.688 122.719 165.273 124.852 162.109 124.852C158.945 124.852 156.508 122.719 156.508 119.625C156.508 116.578 158.945 114.422 162.109 114.422ZM162.109 116.367C160.141 116.367 158.688 117.703 158.688 119.625C158.688 121.594 160.141 122.906 162.109 122.906C164.031 122.906 165.508 121.594 165.508 119.625C165.508 117.703 164.031 116.367 162.109 116.367ZM193.188 112.992V121.359H196.445V123.211H193.188V133.969H190.961V112.992H193.188ZM187.703 115.195C187.68 121.266 185.008 126.68 178.094 130.102L176.852 128.367C182.113 125.742 184.973 121.945 185.43 117.047H177.906V115.195H187.703ZM216.789 129.516V131.367H197.57V129.516H202.164V124.031C200.441 123.082 199.398 121.57 199.398 119.695C199.398 116.391 202.633 114.211 207.133 114.211C211.656 114.211 214.891 116.391 214.891 119.695C214.891 121.547 213.883 123.035 212.195 123.984V129.516H216.789ZM207.133 115.992C203.828 115.992 201.555 117.422 201.555 119.695C201.555 121.945 203.828 123.422 207.133 123.422C210.414 123.422 212.734 121.945 212.734 119.695C212.734 117.422 210.414 115.992 207.133 115.992ZM204.367 129.516H209.945V124.828C209.09 125.051 208.141 125.156 207.133 125.156C206.148 125.156 205.211 125.051 204.367 124.852V129.516ZM221.758 126.961C221.781 123.891 222.695 122.953 224.242 121.992C225.227 121.383 225.977 120.539 225.977 119.297C225.977 117.82 224.852 116.906 223.445 116.906C222.18 116.906 220.961 117.68 220.844 119.414H218.312C218.406 116.438 220.656 114.797 223.445 114.797C226.492 114.797 228.531 116.625 228.531 119.297C228.531 121.172 227.641 122.438 226.141 123.352C224.734 124.195 224.195 125.062 224.148 126.961V127.102H221.758V126.961ZM223.047 132.164C222.133 132.164 221.359 131.414 221.383 130.5C221.359 129.586 222.133 128.836 223.047 128.836C223.938 128.836 224.711 129.586 224.711 130.5C224.711 131.414 223.938 132.164 223.047 132.164Z" fill="#111827"/>
<path d="M39.0449 192.537V193.662H26.3711V192.537H32.0664V190.709H33.4199V192.537H39.0449ZM39.9414 200.781V201.924H36.1621V206.459H34.791V201.924H30.748V206.459H29.3594V201.924H25.6328V200.781H39.9414ZM32.752 194.559C35.9336 194.559 37.8496 195.473 37.8496 197.143C37.8496 198.795 35.9336 199.727 32.752 199.727C29.5527 199.727 27.6367 198.795 27.6543 197.143C27.6367 195.473 29.5527 194.559 32.752 194.559ZM32.752 195.613C30.4141 195.631 29.0605 196.176 29.0781 197.143C29.0605 198.109 30.4141 198.654 32.752 198.654C35.0547 198.654 36.4082 198.109 36.4258 197.143C36.4082 196.176 35.0547 195.631 32.752 195.613ZM54.5488 190.797V206.424H53.2305V198.232H50.9277V205.615H49.6621V191.148H50.9277V197.09H53.2305V190.797H54.5488ZM47.623 192.713V193.855H43.1406V201.379C45.2939 201.37 46.7881 201.291 48.5195 200.939L48.6426 202.1C46.7617 202.486 45.1621 202.557 42.7715 202.557H41.7695V192.713H47.623ZM69.6309 191.518V192.66H67.2227V196.246H69.5781V197.354H64.5508V199.27H70.9844V200.395H56.7461V199.27H63.1797V197.354H58.1348V196.246H60.4902V192.66H58.082V191.518H69.6309ZM69.4023 204.93V206.09H58.5918V201.766H59.9805V204.93H69.4023ZM61.8613 196.246H65.8516V192.66H61.8613V196.246ZM91.0586 199.094V200.219H76.8027V199.094H83.2363V197.547H78.7012V191.254H89.2832V192.379H80.0898V193.838H88.8613V194.893H80.0898V196.439H89.3711V197.547H84.6074V199.094H91.0586ZM83.9395 201.396C87.3672 201.379 89.3008 202.258 89.3184 203.893C89.3008 205.527 87.3672 206.389 83.9395 206.389C80.4766 206.389 78.543 205.527 78.543 203.893C78.543 202.258 80.4766 201.379 83.9395 201.396ZM83.9395 202.434C81.3555 202.434 79.9141 202.961 79.9316 203.893C79.9141 204.842 81.3555 205.334 83.9395 205.316C86.4883 205.334 87.9297 204.842 87.9297 203.893C87.9297 202.961 86.4883 202.434 83.9395 202.434ZM105.279 190.814V202.275H103.908V190.814H105.279ZM105.771 204.93V206.09H95.1895V201.221H96.5605V204.93H105.771ZM97.9141 193.258C97.8965 195.631 99.5312 197.775 101.852 198.619L101.131 199.727C99.3203 199.032 97.9141 197.626 97.2285 195.824C96.5342 197.74 95.1104 199.278 93.291 200.008L92.5352 198.936C94.9082 198.021 96.5078 195.719 96.5078 193.258V191.693H97.9141V193.258ZM113.172 194.998C113.172 197.758 115 200.588 117.215 201.678L116.371 202.785C114.648 201.88 113.207 200.034 112.521 197.863C111.818 200.175 110.342 202.144 108.584 203.084L107.705 201.977C109.99 200.852 111.801 197.846 111.818 194.998V192.15H113.172V194.998ZM120.027 190.797V197.143H122.646V198.338H120.027V206.424H118.656V190.797H120.027Z" fill="#0077FA"/>
<mask id="path-5-inside-1_909_3091" fill="white">
<path d="M25 219H375V270H25V219Z"/>
</mask>
<path d="M375 269H25V271H375V269Z" fill="#0077FA" mask="url(#path-5-inside-1_909_3091)"/>
<path d="M31.9727 238.875C31.9727 241.418 33.8184 243.817 36.4844 244.781L35.582 246.032C33.5825 245.243 31.9829 243.664 31.2036 241.674C30.4346 243.879 28.7734 245.622 26.6201 246.483L25.7588 245.171C28.4966 244.166 30.3833 241.613 30.3936 238.813V236.558H31.9727V238.875ZM29.0605 253.271V247.55H30.6807V251.918H41.2627V253.271H29.0605ZM35.1719 241.09V239.736H39.2324V235.45H40.8525V249.108H39.2324V241.09H35.1719ZM51.7832 236.763V238.116H46.2461V240.393H51.5781V241.664H46.2461V244.187C48.9019 244.176 50.563 244.074 52.5215 243.694L52.6855 245.027C50.5425 245.448 48.8198 245.53 45.8564 245.54H44.708V236.763H51.7832ZM47.0869 248.76V247.447H59.3711V253.661H57.792V248.76H47.0869ZM53.7725 246.381V235.799H55.2695V240.208H57.833V235.45H59.3711V246.504H57.833V241.521H55.2695V246.381H53.7725Z" fill="#9CA3AF"/>
<path d="M39.0449 304.537V305.662H26.3711V304.537H32.0664V302.709H33.4199V304.537H39.0449ZM25.6328 313.924V312.781H39.9414V313.924H36.1621V318.459H34.791V313.924H30.748V318.459H29.3594V313.924H25.6328ZM27.6543 309.143C27.6367 307.481 29.5527 306.559 32.752 306.559C35.9248 306.559 37.8408 307.481 37.8496 309.143C37.8408 310.795 35.9248 311.727 32.752 311.727C29.5527 311.727 27.6367 310.795 27.6543 309.143ZM29.0781 309.143C29.0605 310.101 30.4229 310.663 32.752 310.654C35.0547 310.663 36.4082 310.101 36.4258 309.143C36.4082 308.176 35.0547 307.631 32.752 307.613C30.4229 307.631 29.0605 308.176 29.0781 309.143ZM54.5488 302.797V318.424H53.2305V310.232H50.9277V317.615H49.6621V303.148H50.9277V309.09H53.2305V302.797H54.5488ZM41.7695 314.557V304.713H47.623V305.855H43.1406V313.379C45.2939 313.37 46.7793 313.291 48.5195 312.939L48.6426 314.1C46.7617 314.486 45.1709 314.548 42.7715 314.557H41.7695ZM69.6309 303.518V304.66H67.2227V308.246H69.5781V309.354H64.5508V311.27H70.9844V312.395H56.7461V311.27H63.1797V309.354H58.1348V308.246H60.4902V304.66H58.082V303.518H69.6309ZM58.5918 318.09V313.766H59.9805V316.93H69.4023V318.09H58.5918ZM61.8613 308.246H65.8516V304.66H61.8613V308.246ZM89.7754 302.814V314.381H88.3867V308.369H84.6953V311.709H77.6113V303.852H78.9824V306.629H83.3418V303.852H84.6953V307.209H88.3867V302.814H89.7754ZM78.9824 310.566H83.3418V307.719H78.9824V310.566ZM79.668 318.09V313.238H81.0566V316.93H90.127V318.09H79.668ZM105.877 305.117V306.26H93.0801V305.117H98.8105V303.061H100.164V305.117H105.877ZM92.377 316.596V315.453H98.8105V313.256C96.0244 313.106 94.3457 312.025 94.3633 310.268C94.3457 308.413 96.3057 307.314 99.4961 307.332C102.643 307.314 104.638 308.413 104.629 310.268C104.638 312.025 102.924 313.106 100.164 313.256V315.453H106.686V316.596H92.377ZM95.752 310.268C95.7344 311.454 97.167 312.14 99.4961 312.148C101.799 312.14 103.231 311.454 103.223 310.268C103.231 309.107 101.799 308.422 99.4961 308.422C97.167 308.422 95.7344 309.107 95.752 310.268Z" fill="#9CA3AF"/>
<mask id="path-9-inside-2_909_3091" fill="white">
<path d="M25 331H375V382H25V331Z"/>
</mask>
<path d="M375 381H25V383H375V381Z" fill="#0077FA" mask="url(#path-9-inside-2_909_3091)"/>
<path d="M31.2549 364.205C27.9531 364.205 26.0664 361.437 26.0664 356.576C26.0664 351.757 27.9941 348.947 31.2549 348.947C34.5156 348.947 36.4434 351.757 36.4434 356.576C36.4434 361.437 34.5361 364.205 31.2549 364.205ZM31.2549 362.564C33.3877 362.564 34.6387 360.411 34.6387 356.576C34.6387 352.741 33.3877 350.547 31.2549 350.547C29.1221 350.547 27.8506 352.741 27.8506 356.576C27.8506 360.411 29.1016 362.564 31.2549 362.564ZM44.1543 349.152V364H42.2881V351.08H42.2061L38.5967 353.479V351.613L42.2881 349.152H44.1543ZM52.9727 364.205C49.6709 364.205 47.7842 361.437 47.7842 356.576C47.7842 351.757 49.7119 348.947 52.9727 348.947C56.2334 348.947 58.1611 351.757 58.1611 356.576C58.1611 361.437 56.2539 364.205 52.9727 364.205ZM52.9727 362.564C55.1055 362.564 56.3564 360.411 56.3564 356.576C56.3564 352.741 55.1055 350.547 52.9727 350.547C50.8398 350.547 49.5684 352.741 49.5684 356.576C49.5684 360.411 50.8193 362.564 52.9727 362.564ZM65.8721 349.152V364H64.0059V351.08H63.9238L60.3145 353.479V351.613L64.0059 349.152H65.8721ZM69.8301 364L69.8096 362.646L74.875 357.314C76.6387 355.448 77.4795 354.443 77.4795 353.069C77.4795 351.552 76.1875 350.547 74.5264 350.547C72.7627 350.547 71.6348 351.675 71.6348 353.336H69.8916C69.8711 350.711 71.9014 348.947 74.5879 348.947C77.2744 348.947 79.2021 350.752 79.2021 353.069C79.2021 354.73 78.4229 356.022 75.7979 358.729L72.3936 362.236V362.359H79.4688V364H69.8301ZM87.2822 364.205C84.3291 364.205 82.2168 362.626 82.1143 360.268H83.9805C84.083 361.683 85.498 362.564 87.2617 362.564C89.21 362.564 90.6455 361.498 90.6455 359.96C90.6455 358.34 89.3535 357.191 87.0361 357.191H85.8262V355.571H87.0361C88.8408 355.571 90.0918 354.566 90.0918 353.028C90.0918 351.552 89.0049 350.547 87.3232 350.547C85.7441 350.547 84.2881 351.429 84.2061 352.885H82.4219C82.5244 350.526 84.6982 348.947 87.3438 348.947C90.1738 348.947 91.8965 350.793 91.876 352.926C91.8965 354.607 90.9121 355.858 89.3535 356.289V356.392C91.2812 356.699 92.4707 358.073 92.4502 359.96C92.4707 362.4 90.2354 364.205 87.2822 364.205ZM94.7471 360.965V359.447L101.433 349.152H103.709V359.345H105.78V360.965H103.709V364H101.945V360.965H94.7471ZM96.7363 359.345H101.945V351.49H101.761L96.7363 359.222V359.345ZM113.061 364.205C110.374 364.205 108.344 362.544 108.241 360.268H110.025C110.169 361.601 111.461 362.585 113.061 362.585C114.988 362.585 116.383 361.17 116.383 359.304C116.383 357.376 114.927 355.961 112.938 355.94C111.687 355.92 110.723 356.31 110.169 357.273H108.385L109.431 349.152H117.47V350.793H110.969L110.415 355.141H110.559C111.215 354.628 112.22 354.279 113.266 354.279C116.096 354.279 118.188 356.371 118.188 359.263C118.188 362.134 116.014 364.205 113.061 364.205ZM125.919 364.205C123.335 364.164 120.505 362.646 120.505 357.15C120.505 351.9 122.658 348.947 126.145 348.947C128.749 348.947 130.574 350.547 130.964 352.885H129.139C128.79 351.572 127.806 350.588 126.145 350.588C123.704 350.588 122.248 352.68 122.248 356.248H122.433C123.294 355.018 124.647 354.279 126.247 354.279C128.893 354.279 131.087 356.33 131.087 359.201C131.087 361.99 129.036 364.226 125.919 364.205ZM125.919 362.585C127.847 362.585 129.282 361.067 129.303 359.222C129.282 357.396 127.908 355.899 125.96 355.899C124.012 355.899 122.515 357.479 122.494 359.242C122.494 360.985 123.93 362.585 125.919 362.585ZM134.102 364L140.91 350.896V350.793H133.056V349.152H142.817V350.875L136.029 364H134.102ZM149.893 364.205C146.775 364.205 144.602 362.482 144.622 360.062C144.602 358.135 145.935 356.556 147.637 356.289V356.207C146.16 355.858 145.196 354.505 145.196 352.885C145.196 350.608 147.186 348.947 149.893 348.947C152.6 348.947 154.589 350.608 154.609 352.885C154.589 354.505 153.604 355.858 152.148 356.207V356.289C153.83 356.556 155.163 358.135 155.184 360.062C155.163 362.482 152.989 364.205 149.893 364.205ZM149.893 362.585C152.025 362.585 153.338 361.519 153.338 359.96C153.338 358.319 151.882 357.109 149.893 357.109C147.903 357.109 146.427 358.319 146.468 359.96C146.427 361.519 147.76 362.585 149.893 362.585ZM149.893 355.551C151.574 355.551 152.805 354.525 152.805 353.028C152.805 351.552 151.636 350.547 149.893 350.547C148.129 350.547 146.98 351.552 146.98 353.028C146.98 354.525 148.19 355.551 149.893 355.551Z" fill="#111827"/>
<path d="M33.5254 417.012C33.5078 419.104 36.3027 420.879 39.0273 421.283L38.5176 422.373C36.0742 421.96 33.7012 420.659 32.752 418.77C31.8027 420.659 29.4209 421.96 27.0215 422.373L26.4766 421.283C29.1836 420.879 31.9785 419.104 31.9785 417.012V416.906H26.9688V415.781H38.5176V416.906H33.5254V417.012ZM39.8711 423.709V424.852H33.4023V430.424H32.0488V424.852H25.6328V423.709H39.8711ZM49.3457 416.168V423.41H42.0156V416.168H49.3457ZM43.3691 417.311V422.303H47.9922V417.311H43.3691ZM54.0918 414.814V426.047H52.7207V414.814H54.0918ZM54.584 428.754V429.896H44.002V424.957H45.373V428.754H54.584ZM71.002 422.232V423.393H56.7461V422.232H71.002ZM69.332 419.613V420.738H58.5566V415.43H69.2266V416.59H59.9102V419.613H69.332ZM63.8652 424.764C67.2227 424.764 69.2266 425.783 69.2441 427.576C69.2266 429.387 67.2227 430.389 63.8652 430.389C60.4902 430.389 58.4688 429.387 58.4688 427.576C58.4688 425.783 60.4902 424.764 63.8652 424.764ZM63.8652 425.836C61.3516 425.854 59.8574 426.486 59.875 427.576C59.8574 428.684 61.3516 429.299 63.8652 429.299C66.3438 429.299 67.8555 428.684 67.8555 427.576C67.8555 426.486 66.3438 425.854 63.8652 425.836ZM86.5938 423.41V424.553H72.2852V423.41H78.7539V421.758H74.1484V417.943H83.3594V416.326H74.0957V415.201H84.748V418.98H75.5195V420.65H85.082V421.758H80.1074V423.41H86.5938ZM84.8359 425.748V430.283H83.4473V426.873H73.8848V425.748H84.8359ZM100.814 414.814V426.381H99.4258V420.369H95.7344V423.709H88.6504V415.852H90.0215V418.629H94.3809V415.852H95.7344V419.209H99.4258V414.814H100.814ZM101.166 428.93V430.09H90.707V425.238H92.0957V428.93H101.166ZM90.0215 422.566H94.3809V419.719H90.0215V422.566ZM116.916 417.117V418.26H104.119V417.117H109.85V415.061H111.203V417.117H116.916ZM117.725 427.453V428.596H103.416V427.453H109.85V425.256C107.072 425.106 105.385 424.025 105.402 422.268C105.385 420.404 107.354 419.314 110.535 419.332C113.682 419.314 115.668 420.404 115.668 422.268C115.668 424.025 113.963 425.106 111.203 425.256V427.453H117.725ZM110.535 420.422C108.197 420.422 106.773 421.107 106.791 422.268C106.773 423.463 108.197 424.131 110.535 424.148C112.838 424.131 114.262 423.463 114.262 422.268C114.262 421.107 112.838 420.422 110.535 420.422Z" fill="#9CA3AF"/>
<mask id="path-13-inside-3_909_3091" fill="white">
<path d="M25 443H375V494H25V443Z"/>
</mask>
<path d="M375 493H25V495H375V493Z" fill="#D1D5DB" mask="url(#path-13-inside-3_909_3091)"/>
<path d="M31.5625 476.205C28.9888 476.174 26.1484 474.646 26.1484 469.15C26.1484 463.89 28.3018 460.947 31.7881 460.947C34.4028 460.947 36.228 462.557 36.6074 464.885H34.7822C34.4438 463.572 33.439 462.588 31.7881 462.588C29.3477 462.588 27.8813 464.669 27.8916 468.248H28.0762C28.9272 467.007 30.291 466.279 31.8906 466.279C34.5259 466.279 36.7305 468.33 36.7305 471.201C36.7305 474 34.6899 476.236 31.5625 476.205ZM28.1377 471.242C28.1479 472.985 29.5732 474.575 31.5625 474.585C33.48 474.575 34.936 473.067 34.9463 471.222C34.936 469.396 33.5415 467.91 31.6035 467.899C29.6553 467.91 28.1582 469.489 28.1377 471.242ZM44.4004 476.205C41.4473 476.205 39.3247 474.626 39.2324 472.268H41.0986C41.2012 473.683 42.606 474.564 44.3799 474.564C46.3384 474.564 47.7534 473.508 47.7637 471.96C47.7534 470.34 46.4614 469.202 44.1543 469.191H42.9443V467.571H44.1543C45.959 467.571 47.2202 466.556 47.21 465.028C47.2202 463.542 46.1333 462.557 44.4414 462.547C42.8521 462.557 41.4062 463.429 41.3242 464.885H39.54C39.6323 462.526 41.8267 460.947 44.4619 460.947C47.292 460.947 49.0146 462.803 48.9941 464.926C49.0146 466.618 48.0303 467.848 46.4717 468.289V468.392C48.4097 468.689 49.5786 470.073 49.5684 471.96C49.5786 474.4 47.3638 476.205 44.4004 476.205ZM57.0947 476.205C53.8032 476.205 51.896 473.437 51.9062 468.576C51.896 463.757 53.8237 460.947 57.0947 460.947C60.3555 460.947 62.2832 463.757 62.2832 468.576C62.2832 473.437 60.3862 476.205 57.0947 476.205ZM53.6904 468.576C53.7007 472.421 54.9414 474.564 57.0947 474.564C59.2378 474.564 60.4888 472.421 60.4785 468.576C60.4888 464.731 59.2275 462.557 57.0947 462.547C54.9619 462.557 53.7007 464.731 53.6904 468.576ZM64.8057 476L71.6143 462.896V462.793H63.7598V461.152H73.5215V462.875L66.7334 476H64.8057ZM81.1709 461.152V476H79.3047V463.08H79.2227L75.6133 465.479V463.613L79.3047 461.152H81.1709ZM89.9893 476.205C86.6978 476.205 84.7905 473.437 84.8008 468.576C84.7905 463.757 86.7183 460.947 89.9893 460.947C93.25 460.947 95.1777 463.757 95.1777 468.576C95.1777 473.437 93.2808 476.205 89.9893 476.205ZM86.585 468.576C86.5952 472.421 87.8359 474.564 89.9893 474.564C92.1323 474.564 93.3833 472.421 93.373 468.576C93.3833 464.731 92.1221 462.557 89.9893 462.547C87.8564 462.557 86.5952 464.731 86.585 468.576Z" fill="#111827"/>
<path d="M207.793 467.776V469.396H201.292V467.776H207.793ZM225.2 461.152V476H223.334V463.08H223.252L219.642 465.479V463.613L223.334 461.152H225.2ZM239.145 474.998H237.44L237.615 470.814L234.065 473.047L233.221 471.588L236.93 469.637L233.221 467.686L234.065 466.209L237.615 468.441L237.44 464.258H239.145L238.987 468.441L242.537 466.209L243.381 467.686L239.672 469.637L243.381 471.588L242.537 473.047L238.987 470.814L239.145 474.998ZM257.82 474.998H256.115L256.29 470.814L252.74 473.047L251.896 471.588L255.605 469.637L251.896 467.686L252.74 466.209L256.29 468.441L256.115 464.258H257.82L257.662 468.441L261.212 466.209L262.056 467.686L258.347 469.637L262.056 471.588L261.212 473.047L257.662 470.814L257.82 474.998ZM276.495 474.998H274.79L274.965 470.814L271.415 473.047L270.571 471.588L274.28 469.637L270.571 467.686L271.415 466.209L274.965 468.441L274.79 464.258H276.495L276.337 468.441L279.887 466.209L280.731 467.686L277.022 469.637L280.731 471.588L279.887 473.047L276.337 470.814L276.495 474.998ZM295.17 474.998H293.465L293.64 470.814L290.09 473.047L289.246 471.588L292.955 469.637L289.246 467.686L290.09 466.209L293.64 468.441L293.465 464.258H295.17L295.012 468.441L298.562 466.209L299.406 467.686L295.697 469.637L299.406 471.588L298.562 473.047L295.012 470.814L295.17 474.998ZM313.845 474.998H312.14L312.315 470.814L308.765 473.047L307.921 471.588L311.63 469.637L307.921 467.686L308.765 466.209L312.315 468.441L312.14 464.258H313.845L313.687 468.441L317.237 466.209L318.081 467.686L314.372 469.637L318.081 471.588L317.237 473.047L313.687 470.814L313.845 474.998ZM332.52 474.998H330.815L330.99 470.814L327.44 473.047L326.596 471.588L330.305 469.637L326.596 467.686L327.44 466.209L330.99 468.441L330.815 464.258H332.52L332.362 468.441L335.912 466.209L336.756 467.686L333.047 469.637L336.756 471.588L335.912 473.047L332.362 470.814L332.52 474.998Z" fill="#111827"/>
<path d="M38.5176 526.797V542.459H37.1289V526.797H38.5176ZM30.2031 528.01C32.5234 528.027 34.1934 530.137 34.1934 533.459C34.1934 536.781 32.5234 538.891 30.2031 538.891C27.8652 538.891 26.2129 536.781 26.2129 533.459C26.2129 530.137 27.8652 528.027 30.2031 528.01ZM30.2031 529.24C28.6387 529.258 27.5488 530.91 27.5488 533.459C27.5488 536.008 28.6387 537.66 30.2031 537.66C31.7676 537.66 32.8574 536.008 32.8574 533.459C32.8574 530.91 31.7676 529.258 30.2031 529.24ZM55.4805 534.865V536.008H41.1719V534.865H55.4805ZM53.6348 527.184V530.875H44.4062V532.439H53.9688V533.512H43.0352V529.838H52.2461V528.291H42.9824V527.184H53.6348ZM53.6348 537.432V542.213H43.123V537.432H53.6348ZM44.4766 538.557V541.088H52.2812V538.557H44.4766ZM57.7129 536.148C57.7305 532.826 58.627 530.066 60.2441 527.729H61.5801C60.3848 529.469 59.2773 533.02 59.2773 536.148C59.2773 539.277 60.3848 542.846 61.5801 544.586H60.2441C58.627 542.23 57.7305 539.471 57.7129 536.148ZM75.7656 526.797V534.9H74.4121V526.797H75.7656ZM75.7832 535.691V539.436H67.0117V541.123H76.3457V542.248H65.6582V538.363H74.4121V536.799H65.623V535.691H75.7832ZM68.418 528.449C68.4004 530.664 70.0879 532.615 72.4082 533.371L71.7227 534.443C69.8945 533.819 68.4355 532.51 67.7324 530.822C67.0293 532.642 65.5615 534.074 63.707 534.742L62.9863 533.652C65.3418 532.826 67.0117 530.752 67.0117 528.449V527.254H68.418V528.449ZM91.3926 526.797V536.061H90.0039V533.6H86.3477V534.936H79.1758V527.992H86.3477V529.346H90.0039V526.797H91.3926ZM80.5469 529.117V533.811H84.9941V529.117H80.5469ZM86.207 536.518C89.459 536.518 91.4453 537.59 91.4453 539.471C91.4453 541.334 89.459 542.389 86.207 542.389C82.9551 542.389 80.9688 541.334 80.9688 539.471C80.9688 537.59 82.9551 536.518 86.207 536.518ZM86.207 537.59C83.8164 537.607 82.3223 538.293 82.3398 539.471C82.3223 540.596 83.8164 541.299 86.207 541.299C88.5977 541.299 90.0742 540.596 90.0742 539.471C90.0742 538.293 88.5977 537.607 86.207 537.59ZM86.3477 532.439H90.0039V530.488H86.3477V532.439ZM97.8965 536.148C97.8789 539.471 96.9824 542.23 95.3652 544.586H94.0293C95.2246 542.846 96.332 539.277 96.332 536.148C96.332 533.02 95.2246 529.469 94.0293 527.729H95.3652C96.9824 530.066 97.8789 532.826 97.8965 536.148Z" fill="#9CA3AF"/>
<mask id="path-18-inside-4_909_3091" fill="white">
<path d="M25 555H375V606H25V555Z"/>
</mask>
<path d="M375 605H25V607H375V605Z" fill="#D1D5DB" mask="url(#path-18-inside-4_909_3091)"/>
<path d="M35.3564 572.619C35.3564 577.233 31.9727 580.494 26.5996 581.93L25.9434 580.658C30.4551 579.469 33.2954 577.059 33.6543 573.932H26.9072V572.619H35.3564ZM40.791 571.45V581.745H39.1914V571.45H40.791ZM40.791 582.627V589.415H28.9375V582.627H40.791ZM30.5166 583.919V588.103H39.2119V583.919H30.5166ZM46.1025 573.173V577.623H50.0605V573.173H51.5576V585.108H44.5645V573.173H46.1025ZM46.1025 583.775H50.0605V578.936H46.1025V583.775ZM59.5146 571.43V589.661H57.9561V580.002H55.4131V588.738H53.875V571.819H55.4131V578.669H57.9561V571.43H59.5146ZM70.3428 571.778C74.3008 571.778 76.7822 573.05 76.7822 575.224C76.7822 577.356 74.3008 578.607 70.3428 578.607C66.3848 578.607 63.8828 577.356 63.8828 575.224C63.8828 573.05 66.3848 571.778 70.3428 571.778ZM70.3428 573.05C67.3896 573.05 65.5234 573.85 65.5439 575.224C65.5234 576.557 67.3896 577.336 70.3428 577.336C73.2549 577.336 75.1416 576.557 75.1416 575.224C75.1416 573.85 73.2549 573.05 70.3428 573.05ZM76.6182 583.427V589.415H64.0674V583.427H69.543V581.335H62.0371V580.002H78.6484V581.335H71.1221V583.427H76.6182ZM65.667 584.719V588.103H75.0391V584.719H65.667Z" fill="#111827"/>
</svg>
