<svg width="400" height="727" viewBox="0 0 400 727" fill="none" xmlns="http://www.w3.org/2000/svg">
<rect width="400" height="727" fill="white"/>
<path d="M172.129 106.517C172.129 111.233 168.786 114.535 163.352 115.971L162.572 114.433C167.002 113.284 169.689 110.987 170.037 108.075H163.598V106.517H172.129ZM177.646 105.389V115.725H175.697V105.389H177.646ZM177.646 116.545V123.497H165.608V116.545H177.646ZM167.535 118.104V121.938H175.738V118.104H167.535ZM182.599 107.07V111.459H186.106V107.07H187.91V119.211H180.753V107.07H182.599ZM182.599 117.632H186.106V112.997H182.599V117.632ZM195.949 105.368V123.743H194.083V114.166H191.807V122.841H189.961V105.717H191.807V112.566H194.083V105.368H195.949ZM206.234 105.676C210.274 105.676 212.797 106.968 212.797 109.183C212.797 111.336 210.274 112.628 206.234 112.628C202.215 112.628 199.672 111.336 199.672 109.183C199.672 106.968 202.215 105.676 206.234 105.676ZM206.234 107.193C203.404 107.193 201.661 107.911 201.682 109.183C201.661 110.413 203.404 111.11 206.234 111.11C209.044 111.11 210.787 110.413 210.787 109.183C210.787 107.911 209.044 107.193 206.234 107.193ZM212.571 117.386V123.518H199.877V117.386H205.271V115.458H197.867V113.879H214.622V115.458H207.198V117.386H212.571ZM201.805 118.944V121.938H210.685V118.944H201.805ZM230.813 105.368V115.745H228.886V105.368H230.813ZM218.673 106.435V112.874C221.636 112.854 224.241 112.638 226.999 112.054L227.266 113.674C224.23 114.289 221.462 114.515 218.242 114.515H216.725V106.435H218.673ZM230.813 116.586V123.497H218.775V116.586H230.813ZM220.683 118.124V121.938H228.906V118.124H220.683ZM236.628 120.585L234.987 126.245H233.244L234.331 120.585H236.628ZM141.659 148.826V150.446H124.842V148.826H132.245V144.581H126.77V135.845H139.649V144.581H134.173V148.826H141.659ZM128.657 137.403V143.043H137.742V137.403H128.657ZM156.886 134.368V141.484H159.839V143.125H156.886V152.743H154.938V134.368H156.886ZM145.197 135.906V140.623H150.057V135.906H151.985V148.375H143.269V135.906H145.197ZM145.197 146.775H150.057V142.161H145.197V146.775ZM165.51 134.983C168.279 135.004 170.309 136.706 170.329 139.105C170.309 141.525 168.279 143.207 165.51 143.207C162.721 143.207 160.67 141.525 160.67 139.105C160.67 136.706 162.721 135.004 165.51 134.983ZM165.51 136.624C163.808 136.604 162.557 137.608 162.577 139.105C162.557 140.623 163.808 141.628 165.51 141.628C167.192 141.628 168.443 140.623 168.443 139.105C168.443 137.608 167.192 136.604 165.51 136.624ZM175.538 134.368V143.72H173.59V134.368H175.538ZM175.538 144.561V149.195H165.407V150.959H176.154V152.518H163.521V147.739H173.611V146.119H163.459V144.561H175.538ZM197.975 134.389V147.842H196.026V134.389H197.975ZM198.528 150.774V152.354H185.957V146.57H187.926V150.774H198.528ZM189.423 137.219C189.402 139.905 191.125 142.366 193.955 143.351L192.95 144.909C190.828 144.12 189.259 142.561 188.439 140.562C187.628 142.694 186.039 144.407 183.886 145.237L182.84 143.699C185.731 142.633 187.434 139.987 187.434 137.219V135.394H189.423V137.219ZM217.263 143.986V145.545H209.962V148.929H208.034V145.545H200.446V143.986H217.263ZM215.396 150.774V152.354H202.538V147.329H204.466V150.774H215.396ZM204.589 134.942V137.178H213.1V134.942H215.048V142.366H202.661V134.942H204.589ZM204.589 140.808H213.1V138.634H204.589V140.808ZM234.951 143.022V144.602H218.196V143.022H234.951ZM226.563 146.017C230.521 146.017 232.9 147.247 232.9 149.38C232.9 151.513 230.521 152.723 226.563 152.702C222.585 152.723 220.185 151.513 220.185 149.38C220.185 147.247 222.585 146.017 226.563 146.017ZM226.563 147.534C223.754 147.555 222.154 148.19 222.154 149.38C222.154 150.549 223.754 151.164 226.563 151.164C229.332 151.164 230.952 150.549 230.952 149.38C230.952 148.19 229.332 147.555 226.563 147.534ZM233.454 135.271V136.87H227.876C228.091 138.654 230.696 140.172 234.09 140.521L233.392 142.059C230.214 141.689 227.578 140.346 226.584 138.408C225.558 140.346 222.933 141.689 219.755 142.059L219.078 140.521C222.411 140.172 225.036 138.665 225.271 136.87H219.734V135.271H233.454ZM245.001 135.394C247.462 135.373 249.225 137.096 249.225 139.577C249.225 142.038 247.462 143.761 245.001 143.761C242.54 143.761 240.776 142.038 240.797 139.577C240.776 137.096 242.54 135.373 245.001 135.394ZM245.001 136.973C243.565 136.973 242.54 137.998 242.54 139.577C242.54 141.115 243.565 142.161 245.001 142.161C246.416 142.161 247.441 141.115 247.462 139.577C247.441 137.998 246.416 136.973 245.001 136.973ZM256.301 134.389V144.376H254.455V140.09H252.301V144.253H250.497V134.717H252.301V138.47H254.455V134.389H256.301ZM245.965 145.176V147.186H254.393V145.176H256.301V152.518H244.037V145.176H245.965ZM245.965 150.938H254.393V148.765H245.965V150.938ZM264.35 135.681C267.262 135.66 269.334 137.465 269.354 140.049C269.334 142.633 267.262 144.438 264.35 144.438C261.459 144.438 259.326 142.633 259.346 140.049C259.326 137.465 261.459 135.66 264.35 135.681ZM264.35 137.362C262.566 137.362 261.254 138.429 261.274 140.049C261.254 141.669 262.566 142.735 264.35 142.735C266.134 142.735 267.447 141.669 267.447 140.049C267.447 138.429 266.134 137.362 264.35 137.362ZM273.558 134.368V152.784H271.61V134.368H273.558ZM258.464 147.206C261.807 147.206 266.442 147.165 270.462 146.591L270.605 148.006C266.442 148.806 261.992 148.826 258.711 148.826L258.464 147.206ZM110.927 163.389V176.739H108.979V163.389H110.927ZM111.48 179.774V181.354H98.9092V175.386H100.878V179.774H111.48ZM100.96 164.619C103.729 164.619 105.841 166.506 105.841 169.172C105.841 171.879 103.729 173.745 100.96 173.745C98.1914 173.745 96.0586 171.879 96.0586 169.172C96.0586 166.506 98.1914 164.619 100.96 164.619ZM100.96 166.321C99.2373 166.321 97.9658 167.49 97.9658 169.172C97.9658 170.895 99.2373 172.043 100.96 172.043C102.642 172.043 103.934 170.895 103.934 169.172C103.934 167.49 102.642 166.321 100.96 166.321ZM130.174 172.022V173.602H113.419V172.022H130.174ZM121.786 175.017C125.744 175.017 128.123 176.247 128.123 178.38C128.123 180.513 125.744 181.723 121.786 181.702C117.808 181.723 115.408 180.513 115.408 178.38C115.408 176.247 117.808 175.017 121.786 175.017ZM121.786 176.534C118.977 176.555 117.377 177.19 117.377 178.38C117.377 179.549 118.977 180.164 121.786 180.164C124.555 180.164 126.175 179.549 126.175 178.38C126.175 177.19 124.555 176.555 121.786 176.534ZM128.677 164.271V165.87H123.099C123.314 167.654 125.918 169.172 129.312 169.521L128.615 171.059C125.436 170.689 122.801 169.346 121.807 167.408C120.781 169.346 118.156 170.689 114.977 171.059L114.301 169.521C117.633 169.172 120.258 167.665 120.494 165.87H114.957V164.271H128.677ZM145.268 164.988C145.248 167.429 148.242 169.726 151.851 170.197L151.093 171.797C148.088 171.315 145.443 169.756 144.263 167.593C143.054 169.767 140.418 171.315 137.434 171.797L136.655 170.197C140.264 169.726 143.218 167.449 143.238 164.988V163.983H145.268V164.988ZM152.61 173.602V175.201H145.145V181.743H143.238V175.201H135.855V173.602H152.61ZM168.022 163.348V168.68H170.709V170.3H168.022V176.657H166.074V163.348H168.022ZM162.608 164.927V166.506H156.333V171.858C159.911 171.869 161.931 171.756 164.228 171.284L164.454 172.863C161.972 173.355 159.799 173.479 155.861 173.479H154.405V164.927H162.608ZM168.801 179.774V181.354H156.374V175.283H158.322V179.774H168.801ZM186.531 163.368V181.784H184.583V163.368H186.531ZM176.708 164.742C179.435 164.742 181.445 167.244 181.445 171.182C181.445 175.14 179.435 177.642 176.708 177.642C173.939 177.642 171.95 175.14 171.95 171.182C171.95 167.244 173.939 164.742 176.708 164.742ZM176.708 166.485C175.005 166.485 173.837 168.29 173.837 171.182C173.837 174.094 175.005 175.898 176.708 175.898C178.389 175.898 179.558 174.094 179.558 171.182C179.558 168.29 178.389 166.485 176.708 166.485ZM209.07 163.368V172.822H207.122V168.105H203.246V166.526H207.122V163.368H209.07ZM209.07 173.684V178.257H199V179.959H209.706V181.518H197.093V176.78H207.142V175.222H197.052V173.684H209.07ZM200.21 165.562C200.21 167.9 201.892 170.074 204.661 170.956L203.635 172.474C201.615 171.776 200.087 170.392 199.288 168.639C198.478 170.607 196.898 172.156 194.735 172.904L193.689 171.346C196.56 170.423 198.262 168.146 198.283 165.562V163.963H200.21V165.562ZM226.799 163.368V174.299H224.851V169.644H221.426V168.044H224.851V163.368H226.799ZM220.647 174.812C224.502 174.812 226.861 176.083 226.861 178.277C226.861 180.472 224.502 181.723 220.647 181.743C216.791 181.723 214.412 180.472 214.433 178.277C214.412 176.083 216.791 174.812 220.647 174.812ZM220.647 176.329C217.96 176.329 216.361 177.026 216.361 178.277C216.361 179.508 217.96 180.226 220.647 180.205C223.333 180.226 224.933 179.508 224.933 178.277C224.933 177.026 223.333 176.329 220.647 176.329ZM218.063 166.608C218.063 168.946 219.724 171.202 222.493 172.146L221.488 173.684C219.427 172.966 217.909 171.5 217.12 169.685C216.309 171.746 214.7 173.396 212.505 174.196L211.48 172.638C214.33 171.653 216.074 169.172 216.074 166.629V166.219H212.095V164.64H222V166.219H218.063V166.608ZM240.16 171.141V172.74H236.284V176.145C237.987 176.062 239.699 175.95 241.309 175.775L241.452 177.211C237.412 177.826 233.044 177.867 229.558 177.888L229.312 176.268C230.86 176.268 232.573 176.257 234.336 176.206V172.74H230.645V165.07H240.078V166.649H232.573V171.141H240.16ZM244.406 163.368V181.784H242.457V163.368H244.406ZM253.46 175.488C253.46 177.078 254.239 178.749 255.921 179.774C257.603 178.667 258.403 176.883 258.403 175.488V174.504H260.31V175.488C260.31 177.396 261.561 179.262 264.001 180.041L262.996 181.497C261.192 180.851 259.961 179.621 259.325 178.093C258.751 179.59 257.644 180.954 255.942 181.661C254.198 180.995 253.091 179.692 252.517 178.175C251.85 179.631 250.64 180.851 248.907 181.497L247.964 180.041C250.302 179.221 251.573 177.272 251.594 175.488V174.504H253.46V175.488ZM252.025 164.373C254.393 164.373 256.29 165.778 256.721 167.859H260.31V163.368H262.258V173.786H260.31V169.459H256.741C256.362 171.602 254.445 173.048 252.025 173.048C249.256 173.048 247.226 171.264 247.226 168.721C247.226 166.178 249.256 164.373 252.025 164.373ZM252.025 166.014C250.322 166.014 249.072 167.101 249.092 168.721C249.072 170.3 250.322 171.428 252.025 171.428C253.686 171.428 254.937 170.3 254.937 168.721C254.937 167.101 253.686 166.014 252.025 166.014ZM269.652 164.742C272.143 164.742 273.968 166.854 274.266 170.259H278.06V163.368H279.987V181.784H278.06V171.838H274.286C274.071 175.417 272.205 177.642 269.652 177.642C266.903 177.642 264.976 175.14 264.996 171.182C264.976 167.244 266.903 164.742 269.652 164.742ZM269.652 166.485C267.99 166.485 266.842 168.29 266.842 171.182C266.842 174.094 267.99 175.898 269.652 175.898C271.313 175.898 272.461 174.094 272.461 171.182C272.461 168.29 271.313 166.485 269.652 166.485ZM299.214 177.826V179.446H282.398V177.826H286.417V173.027C284.91 172.197 283.997 170.874 283.997 169.233C283.997 166.342 286.827 164.435 290.765 164.435C294.723 164.435 297.553 166.342 297.553 169.233C297.553 170.854 296.671 172.156 295.194 172.986V177.826H299.214ZM290.765 165.993C287.873 165.993 285.884 167.244 285.884 169.233C285.884 171.202 287.873 172.494 290.765 172.494C293.636 172.494 295.666 171.202 295.666 169.233C295.666 167.244 293.636 165.993 290.765 165.993ZM288.345 177.826H293.226V173.725C292.477 173.919 291.647 174.012 290.765 174.012C289.903 174.012 289.083 173.919 288.345 173.745V177.826ZM302.219 180.144C301.419 180.144 300.742 179.487 300.763 178.688C300.742 177.888 301.419 177.231 302.219 177.231C302.998 177.231 303.675 177.888 303.675 178.688C303.675 179.487 302.998 180.144 302.219 180.144Z" fill="#111827"/>
<ellipse cx="200" cy="316.987" rx="89.9878" ry="89.9866" fill="#FAFAFA"/>
<path d="M183.152 286.996L172.72 306.397L161.107 298.77C161.107 298.77 148.273 274.569 169.321 267.134C169.321 267.134 174.617 251.536 191.698 250.412C208.79 249.297 231.982 259.807 228.787 286.857L183.152 286.986V286.996Z" fill="#353535"/>
<path d="M115.205 406.975C115.205 374.859 137.672 348.83 165.395 348.83H228.378C256.1 348.83 278.568 374.859 278.568 406.975" fill="#DDDDDD"/>
<path d="M226.278 355.164L219.169 343.016H197.317H196.438H174.585L167.477 355.164L185.447 378.7L196.877 362.877L208.307 378.7L226.278 355.164Z" fill="#CCCCCC"/>
<path d="M215.729 345.146H197.254H196.504H178.029L196.879 360.712L215.729 345.146Z" fill="#D69F99"/>
<path d="M182.25 346.111V322.789H211.501V346.111" fill="#D69F99"/>
<path d="M213.992 290.264H225.401C231.695 290.264 236.809 295.363 236.809 301.662C236.809 307.951 231.706 313.061 225.401 313.061H213.992V290.274V290.264Z" fill="#E2A9A1"/>
<path d="M221.467 307.532H225.391C228.629 307.532 231.267 304.897 231.267 301.662C231.267 298.426 228.629 295.791 225.391 295.791H221.467" fill="#C98887"/>
<path d="M224.348 298.331V272.556C224.348 272.556 208.382 267.264 197.703 267.264C184.214 267.264 173.074 277.28 171.304 290.264H167.241C160.947 290.264 155.832 295.364 155.832 301.663C155.832 307.962 160.936 313.061 167.241 313.061H171.68C174.307 324.996 184.954 333.93 197.692 333.93C212.403 333.93 224.337 322.007 224.337 307.309V304.17" fill="#FFBBAE"/>
<path d="M171.165 295.781H167.241C164.003 295.781 161.365 298.417 161.365 301.652C161.365 304.887 164.003 307.523 167.241 307.523H171.165" fill="#C98887"/>
<path d="M188.447 302.455C188.447 303.58 186.56 304.491 184.223 304.491C181.885 304.491 179.998 303.58 179.998 302.455C179.998 301.331 181.885 300.42 184.223 300.42C186.56 300.42 188.447 301.331 188.447 302.455Z" fill="#FF8882"/>
<path d="M219.953 302.455C219.953 303.58 218.066 304.491 215.728 304.491C213.391 304.491 211.504 303.58 211.504 302.455C211.504 301.331 213.391 300.42 215.728 300.42C218.066 300.42 219.953 301.331 219.953 302.455Z" fill="#FF8882"/>
<path d="M189.63 299.049C190.808 299.049 191.764 297.586 191.764 295.781C191.764 293.977 190.808 292.514 189.63 292.514C188.451 292.514 187.496 293.977 187.496 295.781C187.496 297.586 188.451 299.049 189.63 299.049Z" fill="#353535"/>
<path d="M209.196 299.263C210.375 299.263 211.33 297.801 211.33 295.996C211.33 294.191 210.375 292.729 209.196 292.729C208.018 292.729 207.062 294.191 207.062 295.996C207.062 297.801 208.018 299.263 209.196 299.263Z" fill="#353535"/>
<path d="M205.252 314.83C205.134 314.83 205.026 314.852 204.919 314.905C199.547 317.358 191.398 314.894 191.313 314.873C190.894 314.744 190.433 314.98 190.305 315.398C190.176 315.816 190.412 316.276 190.841 316.405C191.195 316.512 199.665 319.083 205.595 316.373C206.002 316.191 206.174 315.709 205.991 315.312C205.852 315.012 205.563 314.841 205.262 314.841L205.252 314.83Z" fill="#C98887"/>
<path d="M200.125 307.919C199.707 307.919 199.353 307.586 199.321 307.158C199.3 306.719 199.632 306.333 200.083 306.312C201.605 306.226 201.895 305.615 201.991 305.412C202.752 303.837 200.844 300.184 199.471 298.255C199.214 297.891 199.3 297.388 199.664 297.131C200.029 296.874 200.522 296.959 200.79 297.323C201.208 297.913 204.854 303.173 203.449 306.108C202.913 307.212 201.82 307.822 200.179 307.919C200.168 307.919 200.147 307.919 200.136 307.919H200.125Z" fill="#C98887"/>
<path d="M193.166 289.387C193.037 289.387 192.909 289.355 192.791 289.291C192.748 289.269 190.035 287.877 186.293 288.819C185.864 288.927 185.424 288.669 185.317 288.23C185.21 287.802 185.467 287.362 185.907 287.255C190.292 286.163 193.423 287.802 193.552 287.877C193.938 288.091 194.088 288.573 193.874 288.969C193.734 289.237 193.456 289.398 193.166 289.398V289.387Z" fill="#353535"/>
<path d="M205.67 289.387C205.38 289.387 205.102 289.237 204.962 288.959C204.759 288.573 204.898 288.08 205.295 287.877C205.423 287.802 208.554 286.163 212.94 287.255C213.369 287.362 213.637 287.802 213.529 288.23C213.422 288.659 212.983 288.927 212.554 288.819C208.801 287.887 206.088 289.28 206.056 289.291C205.938 289.355 205.809 289.387 205.681 289.387H205.67Z" fill="#353535"/>
<path d="M182.564 268.335C182.564 268.335 192.332 281.48 210.26 277.752C228.188 274.023 225.786 255.426 225.786 255.426L217.712 252.394C217.712 252.394 181.46 234.3 169.322 267.146L182.564 268.335Z" fill="#353535"/>
<path d="M161.16 287.007L168.87 296.274L174.606 306.055L177.265 282.776C177.265 282.776 186.819 276.176 186.744 266.781" fill="#353535"/>
<path d="M230.095 291.402L224.359 301.183L221.7 277.903C221.7 277.903 212.146 271.304 212.221 261.909C212.221 261.909 233.601 256.874 230.106 291.412L230.095 291.402Z" fill="#353535"/>
<path d="M148.435 367.642L145.046 368.21L137.433 369.356L131.054 370.331C127.054 370.91 122.647 370.738 120.353 367.781C117.125 363.636 115.345 353.094 116.943 347.052C117.908 343.399 126.786 337.4 127.815 336.575L129.831 331.904C129.552 329.59 131.204 327.501 133.52 327.222C135.825 326.944 137.905 328.583 138.195 330.865C138.248 331.293 138.216 331.85 138.141 332.407C137.948 333.907 137.519 335.364 136.919 336.757L135.686 339.617L140.65 338.867L144.038 338.299" fill="#FFBBAE"/>
<path d="M143.202 360.99L148.885 360.133C150.911 359.823 152.809 361.215 153.109 363.24C153.42 365.265 152.026 367.161 150 367.461L144.317 368.318C142.29 368.629 140.392 367.236 140.092 365.211C139.781 363.186 141.175 361.29 143.202 360.99Z" fill="#FFBBAE"/>
<path d="M142.085 353.652L147.767 352.795C149.794 352.485 151.692 353.877 151.992 355.902C152.303 357.927 150.909 359.823 148.882 360.123L143.2 360.98C141.173 361.291 139.275 359.898 138.975 357.873C138.664 355.848 140.058 353.952 142.085 353.652Z" fill="#FFBBAE"/>
<path d="M140.973 346.324L146.656 345.467C148.683 345.157 150.58 346.549 150.881 348.574C151.192 350.599 149.798 352.495 147.771 352.795L142.088 353.652C140.062 353.963 138.164 352.57 137.864 350.545C137.553 348.52 138.947 346.624 140.973 346.324Z" fill="#FFBBAE"/>
<path d="M139.858 338.984L145.541 338.127C147.567 337.817 149.465 339.209 149.765 341.234C150.076 343.259 148.682 345.155 146.656 345.455L140.973 346.312C138.947 346.623 137.049 345.23 136.748 343.205C136.438 341.181 137.831 339.284 139.858 338.984Z" fill="#FFBBAE"/>
<path d="M140.24 346.353L146.877 345.41" stroke="#C98887" stroke-width="1.5" stroke-miterlimit="10" stroke-linecap="round"/>
<path d="M140.854 353.769L147.491 352.826" stroke="#C98887" stroke-width="1.5" stroke-miterlimit="10" stroke-linecap="round"/>
<path d="M142.164 361.171L148.801 360.229" stroke="#C98887" stroke-width="1.5" stroke-miterlimit="10" stroke-linecap="round"/>
<path d="M150.24 367.891H115.283V407H150.24V367.891Z" fill="#EEEEEE"/>
<path d="M273.831 367.642L270.443 368.21L262.83 369.356L256.45 370.331C252.451 370.909 248.044 370.738 245.749 367.781C242.522 363.635 240.742 353.094 242.339 347.052C243.304 343.399 244.248 339.081 245.277 338.267L244.377 330.757C244.098 328.443 245.749 326.354 248.065 326.076C250.37 325.797 252.451 327.436 252.74 329.718C252.794 330.147 254.016 332.9 254.016 335.792C254.016 337.303 253.148 341.32 253.148 341.32L266.047 338.888L269.435 338.321" fill="#FFBBAE"/>
<path d="M275.535 367.891H240.578V407H275.535V367.891Z" fill="#EEEEEE"/>
<path d="M277.914 314.057H253.091C251.812 314.057 250.775 315.093 250.775 316.371V361.858C250.775 363.136 251.812 364.172 253.091 364.172H277.914C279.193 364.172 280.23 363.136 280.23 361.858V316.371C280.23 315.093 279.193 314.057 277.914 314.057Z" fill="#9FC0E2"/>
<path d="M277.752 315.641H253.24C252.66 315.641 252.189 316.111 252.189 316.69V361.535C252.189 362.115 252.66 362.585 253.24 362.585H277.752C278.332 362.585 278.802 362.115 278.802 361.535V316.69C278.802 316.111 278.332 315.641 277.752 315.641Z" fill="white"/>
<path d="M267.147 338.879C268.595 338.247 269.613 336.801 269.613 335.119C269.613 332.848 267.769 331.016 265.507 331.016C263.244 331.016 261.4 332.858 261.4 335.119C261.4 336.801 262.419 338.247 263.866 338.879C260.617 338.965 258.012 341.621 258.012 344.889V347.203H273.023V344.889C273.023 341.621 270.417 338.965 267.169 338.879H267.147Z" fill="#697E8E"/>
<path d="M274.532 351.86L280.162 350.713C282.167 350.306 284.129 351.603 284.536 353.606C284.944 355.609 283.646 357.57 281.641 357.977L276.012 359.123C274.007 359.53 272.045 358.234 271.637 356.231C271.23 354.227 272.527 352.267 274.532 351.86Z" fill="#FFBBAE"/>
<path d="M274.532 344.596L280.162 343.45C282.167 343.043 284.129 344.339 284.536 346.342C284.944 348.346 283.646 350.306 281.641 350.713L276.012 351.859C274.007 352.267 272.045 350.97 271.637 348.967C271.23 346.964 272.527 345.003 274.532 344.596Z" fill="#FFBBAE"/>
<path d="M274.532 337.323L280.162 336.176C282.167 335.769 284.129 337.066 284.536 339.069C284.944 341.072 283.646 343.033 281.641 343.44L276.012 344.586C274.007 344.993 272.045 343.697 271.637 341.693C271.23 339.69 272.527 337.73 274.532 337.323Z" fill="#FFBBAE"/>
<path d="M274.532 330.049L280.162 328.903C282.167 328.496 284.129 329.792 284.536 331.795C284.944 333.799 283.646 335.759 281.641 336.166L276.012 337.313C274.007 337.72 272.045 336.423 271.637 334.42C271.23 332.417 272.527 330.456 274.532 330.049Z" fill="#FFBBAE"/>
<path d="M274.799 337.398L281.372 336.123" stroke="#C98887" stroke-width="1.5" stroke-miterlimit="10" stroke-linecap="round"/>
<path d="M274.799 344.769L281.372 343.494" stroke="#C98887" stroke-width="1.5" stroke-miterlimit="10" stroke-linecap="round"/>
<path d="M274.799 352.097L281.372 350.822" stroke="#C98887" stroke-width="1.5" stroke-miterlimit="10" stroke-linecap="round"/>
<ellipse cx="252.215" cy="315.828" rx="6.93394" ry="6.93384" fill="white"/>
<path d="M251.179 317.395L249.484 315.699C249.383 315.598 249.256 315.547 249.103 315.544C248.95 315.542 248.82 315.593 248.714 315.699C248.609 315.805 248.556 315.933 248.556 316.084C248.556 316.234 248.609 316.363 248.714 316.468L250.717 318.471C250.849 318.603 251.003 318.669 251.179 318.669C251.355 318.669 251.509 318.603 251.641 318.471L255.702 314.411C255.803 314.31 255.855 314.183 255.857 314.03C255.859 313.877 255.808 313.747 255.702 313.641C255.596 313.536 255.468 313.483 255.317 313.483C255.167 313.483 255.038 313.536 254.933 313.641L251.179 317.395ZM252.216 322.762C251.257 322.762 250.356 322.58 249.512 322.216C248.668 321.852 247.934 321.358 247.31 320.734C246.686 320.111 246.192 319.377 245.827 318.533C245.463 317.69 245.281 316.789 245.281 315.83C245.281 314.871 245.463 313.969 245.827 313.125C246.191 312.281 246.685 311.547 247.309 310.923C247.933 310.299 248.667 309.805 249.51 309.441C250.354 309.077 251.255 308.895 252.214 308.895C253.173 308.895 254.074 309.077 254.918 309.44C255.762 309.804 256.496 310.298 257.12 310.922C257.745 311.546 258.239 312.28 258.603 313.123C258.967 313.967 259.149 314.868 259.149 315.827C259.149 316.786 258.967 317.688 258.603 318.531C258.239 319.375 257.745 320.109 257.121 320.734C256.497 321.358 255.764 321.852 254.92 322.216C254.077 322.58 253.175 322.762 252.216 322.762Z" fill="#21DB88"/>
</svg>
