<svg width="400" height="364" viewBox="0 0 400 364" fill="none" xmlns="http://www.w3.org/2000/svg">
<path d="M0 10C0 4.47715 4.47715 0 10 0H390C395.523 0 400 4.47715 400 10V86H0V10Z" fill="white"/>
<rect x="15" y="15" width="110" height="56" rx="8" fill="#E5E7EB"/>
<path d="M68.2464 35.2441V51.0293H66.5765V35.2441H68.2464ZM59.8265 36.4219C62.1644 36.4219 63.887 38.5664 63.887 41.9414C63.887 45.334 62.1644 47.4785 59.8265 47.4785C57.4534 47.4785 55.7484 45.334 55.7484 41.9414C55.7484 38.5664 57.4534 36.4219 59.8265 36.4219ZM59.8265 37.916C58.3675 37.916 57.3655 39.4629 57.3655 41.9414C57.3655 44.4375 58.3675 45.9844 59.8265 45.9844C61.2679 45.9844 62.2698 44.4375 62.2698 41.9414C62.2698 39.4629 61.2679 37.916 59.8265 37.916ZM83.5309 35.2617V46.793H81.861V40.8691H78.8552V39.5156H81.861V35.2617H83.5309ZM83.9528 49.3066V50.6602H73.3005V45.7559H74.9704V49.3066H83.9528ZM76.0427 38.4434C76.0427 40.4121 77.4665 42.3809 79.8395 43.1719L78.9782 44.5078C77.2116 43.8838 75.902 42.6182 75.2165 41.0625C74.5309 42.7939 73.1511 44.1914 71.279 44.8594L70.4177 43.5059C72.8434 42.6797 74.3376 40.6055 74.3376 38.4434V37.8281H70.9274V36.457H79.4177V37.8281H76.0427V38.4434Z" fill="#111827"/>
<rect x="135" y="15" width="250" height="56" rx="8" fill="#9CA3AF"/>
<path d="M257.473 35.2441V41.3438H260.004V42.7148H257.473V51.0293H255.803V35.2441H257.473ZM253.237 36.7559V38.1094H247.541V45.7207C250.187 45.7119 252.173 45.5977 254.414 45.1934L254.625 46.5996C252.164 47.0391 250.073 47.127 247.137 47.1094H245.871V36.7559H253.237ZM267.572 35.5781C271.035 35.5781 273.197 36.7031 273.197 38.6016C273.197 40.4648 271.035 41.5723 267.572 41.5723C264.127 41.5723 261.947 40.4648 261.947 38.6016C261.947 36.7031 264.127 35.5781 267.572 35.5781ZM267.572 36.8965C265.146 36.8965 263.652 37.5117 263.67 38.6016C263.652 39.6562 265.146 40.2539 267.572 40.2715C269.98 40.2539 271.474 39.6562 271.474 38.6016C271.474 37.5117 269.98 36.8965 267.572 36.8965ZM273.004 45.5449V50.8008H262.123V45.5449H273.004ZM263.775 46.8809V49.4473H271.386V46.8809H263.775ZM274.761 42.7852V44.1387H260.4V42.7852H274.761Z" fill="white"/>
<rect width="400" height="278" transform="translate(0 86)" fill="#D1D3D9"/>
<g filter="url(#filter1_d_907_2700)">
<rect x="6" y="92" width="126" height="46" rx="4.6" fill="white"/>
</g>
<path d="M67.8784 116H70.0024V98.3853H67.854L63.1665 101.754V103.964L67.8296 100.717H67.8784V116Z" fill="black"/>
<g filter="url(#filter2_d_907_2700)">
<rect x="137" y="92" width="126" height="46" rx="4.6" fill="white"/>
</g>
<path d="M186.017 130.75H187.564L188.087 129.041H190.572L191.095 130.75H192.647L190.196 123.704H188.463L186.017 130.75ZM189.288 125.11H189.376L190.235 127.938H188.424L189.288 125.11ZM195.844 130.75H199.008C200.512 130.75 201.444 129.974 201.444 128.738V128.729C201.444 127.825 200.766 127.127 199.833 127.054V126.966C200.556 126.858 201.107 126.209 201.107 125.467V125.457C201.107 124.373 200.292 123.704 198.925 123.704H195.844V130.75ZM198.549 124.798C199.252 124.798 199.657 125.14 199.657 125.711V125.721C199.657 126.302 199.223 126.634 198.427 126.634H197.318V124.798H198.549ZM198.598 127.605C199.467 127.605 199.94 127.957 199.94 128.611V128.621C199.94 129.29 199.481 129.651 198.632 129.651H197.318V127.605H198.598ZM207.771 130.931C209.47 130.931 210.676 129.925 210.827 128.45L210.832 128.396H209.396L209.387 128.436C209.23 129.188 208.62 129.681 207.775 129.681C206.662 129.681 205.974 128.743 205.974 127.229V127.22C205.974 125.706 206.662 124.773 207.771 124.773C208.61 124.773 209.24 125.311 209.392 126.102V126.136H210.827V126.077C210.69 124.588 209.44 123.523 207.771 123.523C205.725 123.523 204.465 124.935 204.465 127.22V127.229C204.465 129.515 205.729 130.931 207.771 130.931Z" fill="black"/>
<path d="M192.848 116H204.469V114.047H195.863V113.998L200.05 109.701C203.285 106.393 204.176 104.94 204.176 103.012V102.987C204.176 100.229 201.845 98.0923 198.659 98.0923C195.375 98.0923 192.738 100.351 192.738 103.402V103.476H194.862V103.415C194.862 101.522 196.498 100.009 198.695 100.009C200.612 100.009 201.967 101.303 201.979 103.097V103.122C201.979 104.586 201.43 105.539 199.049 108.017L192.848 114.486V116Z" fill="black"/>
<g filter="url(#filter3_d_907_2700)">
<rect x="268" y="92" width="126" height="46" rx="4.6" fill="white"/>
</g>
<path d="M318.516 130.75H321.289C323.398 130.75 324.595 129.461 324.595 127.186V127.176C324.595 124.969 323.384 123.704 321.289 123.704H318.516V130.75ZM319.99 129.534V124.92H321.055C322.334 124.92 323.091 125.75 323.091 127.2V127.21C323.091 128.714 322.358 129.534 321.055 129.534H319.99ZM327.996 130.75H332.664V129.534H329.471V127.752H332.483V126.619H329.471V124.92H332.664V123.704H327.996V130.75ZM336.217 130.75H337.691V127.977H340.558V126.81H337.691V124.92H340.831V123.704H336.217V130.75Z" fill="black"/>
<path d="M329.463 116.293C332.991 116.293 335.579 114.12 335.579 111.178V111.154C335.579 108.651 333.833 107.052 331.27 106.833V106.784C333.467 106.32 335.005 104.831 335.005 102.658V102.633C335.005 99.96 332.796 98.0923 329.439 98.0923C326.143 98.0923 323.873 100.009 323.592 102.877L323.58 103H325.691L325.704 102.877C325.887 101.095 327.364 99.9966 329.439 99.9966C331.587 99.9966 332.796 101.059 332.796 102.902V102.926C332.796 104.684 331.331 105.978 329.231 105.978H327.12V107.833H329.329C331.795 107.833 333.345 109.042 333.345 111.203V111.227C333.345 113.095 331.771 114.389 329.463 114.389C327.12 114.389 325.533 113.192 325.35 111.459L325.337 111.337H323.226L323.238 111.483C323.47 114.267 325.826 116.293 329.463 116.293Z" fill="black"/>
<g filter="url(#filter4_d_907_2700)">
<rect x="6" y="145" width="126" height="46" rx="4.6" fill="white"/>
</g>
<path d="M60.1094 183.931C62.0332 183.931 63.2344 182.759 63.2344 180.889V179.995H60.2754V181.069H61.7988L61.7939 181.201C61.7646 182.09 61.1006 182.681 60.1338 182.681C58.9717 182.681 58.2344 181.738 58.2344 180.21V180.2C58.2344 178.701 58.9375 177.773 60.0752 177.773C60.9004 177.773 61.501 178.188 61.7012 178.887L61.7109 178.936H63.1758L63.166 178.887C62.9561 177.48 61.7402 176.523 60.0752 176.523C58.0244 176.523 56.7305 177.954 56.7305 180.215V180.225C56.7305 182.52 58.0146 183.931 60.1094 183.931ZM66.6504 183.75H68.125V180.781H71.2988V183.75H72.7734V176.704H71.2988V179.565H68.125V176.704H66.6504V183.75ZM76.4824 183.75H77.957V176.704H76.4824V183.75Z" fill="black"/>
<path d="M69.7461 169H71.8701V165.338H74.3604V163.409H71.8701V151.385H68.623L60.896 163.348V165.338H69.7461V169ZM63.0688 163.409V163.36L69.6729 153.265H69.7461V163.409H63.0688Z" fill="black"/>
<g filter="url(#filter5_d_907_2700)">
<rect x="137" y="145" width="126" height="46" rx="4.6" fill="white"/>
</g>
<path d="M189.718 183.931C191.241 183.931 192.125 183.066 192.125 181.582V176.704H190.65V181.572C190.65 182.28 190.323 182.656 189.698 182.656C189.122 182.656 188.8 182.275 188.771 181.733V181.704H187.34V181.743C187.379 183.066 188.263 183.931 189.718 183.931ZM195.839 183.75H197.313V181.597L198.012 180.757L200.058 183.75H201.825L199.076 179.79L201.645 176.704H200.004L197.401 179.868H197.313V176.704H195.839V183.75ZM204.938 183.75H209.548V182.534H206.413V176.704H204.938V183.75Z" fill="black"/>
<path d="M198.671 169.293C202.333 169.293 204.933 166.827 204.945 163.299V163.275C204.945 159.894 202.504 157.44 199.123 157.44C197.414 157.44 195.949 158.075 195.119 159.259H195.07L195.668 153.338H203.944V151.385H193.861L192.958 161.432H194.899C195.131 161.029 195.412 160.687 195.729 160.394C196.51 159.686 197.536 159.332 198.732 159.332C201.063 159.332 202.736 160.992 202.748 163.312V163.336C202.748 165.704 201.088 167.364 198.695 167.364C196.583 167.364 195.021 166.034 194.801 164.288L194.789 164.19H192.628L192.641 164.325C192.897 167.193 195.302 169.293 198.671 169.293Z" fill="black"/>
<g filter="url(#filter6_d_907_2700)">
<rect x="268" y="145" width="126" height="46" rx="4.6" fill="white"/>
</g>
<path d="M316.04 183.75H317.354V178.955H317.451L319.258 183.75H320.181L321.987 178.955H322.085V183.75H323.398V176.704H321.709L319.766 181.86H319.678L317.729 176.704H316.04V183.75ZM327.112 183.75H328.523V179.243H328.602L331.863 183.75H333.084V176.704H331.673V181.191H331.595L328.343 176.704H327.112V183.75ZM339.879 183.931C341.959 183.931 343.268 182.505 343.268 180.229V180.22C343.268 177.944 341.954 176.523 339.879 176.523C337.804 176.523 336.485 177.939 336.485 180.22V180.229C336.485 182.505 337.784 183.931 339.879 183.931ZM339.879 182.681C338.717 182.681 337.989 181.719 337.989 180.229V180.22C337.989 178.726 338.731 177.773 339.879 177.773C341.021 177.773 341.764 178.726 341.764 180.22V180.229C341.764 181.719 341.026 182.681 339.879 182.681Z" fill="black"/>
<path d="M329.585 169.293C333.187 169.293 335.823 166.778 335.823 163.312V163.287C335.823 159.942 333.333 157.464 329.976 157.464C327.583 157.464 325.777 158.734 325.069 160.296H325.02C325.02 160.162 325.02 160.04 325.032 159.918C325.13 156.219 326.424 153.033 329.708 153.033C331.514 153.033 332.771 153.937 333.296 155.389L333.345 155.523H335.579L335.542 155.365C334.957 152.801 332.723 151.092 329.732 151.092C325.423 151.092 322.896 154.559 322.896 160.492V160.516C322.896 167.047 326.338 169.293 329.585 169.293ZM325.545 163.287V163.275C325.545 161.029 327.291 159.393 329.598 159.393C331.917 159.393 333.589 161.041 333.589 163.336V163.36C333.589 165.582 331.807 167.34 329.561 167.34C327.303 167.34 325.545 165.545 325.545 163.287Z" fill="black"/>
<g filter="url(#filter7_d_907_2700)">
<rect x="6" y="198" width="126" height="46" rx="4.6" fill="white"/>
</g>
<path d="M51.1992 236.75H52.6738V234.528H54.1045C55.5889 234.528 56.5801 233.571 56.5801 232.121V232.111C56.5801 230.661 55.5889 229.704 54.1045 229.704H51.1992V236.75ZM53.7432 230.871C54.5879 230.871 55.0859 231.315 55.0859 232.116V232.126C55.0859 232.927 54.5879 233.376 53.7432 233.376H52.6738V230.871H53.7432ZM63.0186 236.931C63.4727 236.931 63.8926 236.862 64.2686 236.73L64.8057 237.448H66.1777L65.2305 236.184C65.9824 235.549 66.4072 234.528 66.4072 233.229V233.22C66.4072 230.944 65.0938 229.523 63.0186 229.523C60.9434 229.523 59.625 230.939 59.625 233.22V233.229C59.625 235.505 60.9238 236.931 63.0186 236.931ZM63.0186 235.681C61.8564 235.681 61.1289 234.719 61.1289 233.229V233.22C61.1289 231.726 61.8711 230.773 63.0186 230.773C64.1611 230.773 64.9033 231.726 64.9033 233.22V233.229C64.9033 233.991 64.708 234.611 64.3662 235.041L63.9121 234.431H62.54L63.4434 235.632C63.3066 235.666 63.165 235.681 63.0186 235.681ZM69.8086 236.75H71.2832V234.172H72.4893L73.8027 236.75H75.4727L73.9883 233.952C74.7939 233.635 75.2627 232.858 75.2627 231.955V231.945C75.2627 230.559 74.3447 229.704 72.7432 229.704H69.8086V236.75ZM71.2832 233.098V230.856H72.5625C73.2998 230.856 73.7539 231.296 73.7539 231.975V231.984C73.7539 232.678 73.3193 233.098 72.582 233.098H71.2832ZM81.2715 236.931C83.0293 236.931 84.1133 236.047 84.1133 234.65V234.646C84.1133 233.547 83.4639 232.951 81.9746 232.644L81.2275 232.492C80.3975 232.321 80.0557 232.048 80.0557 231.589V231.584C80.0557 231.057 80.5391 230.725 81.2666 230.72C82.0088 230.72 82.4971 231.071 82.5801 231.574L82.5898 231.633H83.9766L83.9717 231.569C83.8789 230.393 82.9121 229.523 81.2666 229.523C79.7041 229.523 78.5811 230.388 78.5811 231.696V231.701C78.5811 232.771 79.2109 233.454 80.6758 233.752L81.418 233.903C82.292 234.084 82.6387 234.343 82.6387 234.807V234.812C82.6387 235.354 82.0967 235.729 81.3105 235.729C80.4854 235.729 79.9141 235.373 79.8604 234.846L79.8555 234.797H78.4346L78.4395 234.875C78.5225 236.125 79.5869 236.931 81.2715 236.931Z" fill="black"/>
<path d="M63.1055 222H65.4126L73.2495 206.424V204.385H61.5918V206.338H71.0767V206.387L63.1055 222Z" fill="black"/>
<g filter="url(#filter8_d_907_2700)">
<rect x="137" y="198" width="126" height="46" rx="4.6" fill="white"/>
</g>
<path d="M188.351 236.75H189.825V230.92H191.939V229.704H186.236V230.92H188.351V236.75ZM198.192 236.931C200.009 236.931 201.142 235.881 201.142 234.318V229.704H199.667V234.187C199.667 235.1 199.14 235.681 198.192 235.681C197.245 235.681 196.713 235.1 196.713 234.187V229.704H195.238V234.318C195.238 235.886 196.386 236.931 198.192 236.931ZM206.696 236.75H208.513L210.861 229.704H209.201L207.648 235.109H207.561L206.003 229.704H204.348L206.696 236.75Z" fill="black"/>
<path d="M198.5 222.293C202.235 222.293 204.896 220.193 204.896 217.239V217.215C204.896 215.042 203.371 213.235 201.112 212.71V212.662C203.041 212.063 204.262 210.599 204.262 208.743V208.719C204.262 206.058 201.833 204.092 198.5 204.092C195.167 204.092 192.738 206.058 192.738 208.719V208.743C192.738 210.599 193.959 212.063 195.888 212.662V212.71C193.629 213.235 192.104 215.042 192.104 217.215V217.239C192.104 220.193 194.765 222.293 198.5 222.293ZM198.5 211.844C196.376 211.844 194.923 210.635 194.923 208.926V208.902C194.923 207.193 196.376 205.984 198.5 205.984C200.624 205.984 202.077 207.193 202.077 208.902V208.926C202.077 210.635 200.624 211.844 198.5 211.844ZM198.5 220.376C196.071 220.376 194.337 219.009 194.337 217.105V217.081C194.337 215.152 196.059 213.772 198.5 213.772C200.941 213.772 202.663 215.152 202.663 217.081V217.105C202.663 219.009 200.929 220.376 198.5 220.376Z" fill="black"/>
<g filter="url(#filter9_d_907_2700)">
<rect x="268" y="198" width="126" height="46" rx="4.6" fill="white"/>
</g>
<path d="M313.18 236.75H314.571L315.89 232.004H315.968L317.301 236.75H318.683L320.553 229.704H319.029L317.94 234.738H317.862L316.554 229.704H315.309L314.024 234.738H313.946L312.848 229.704H311.314L313.18 236.75ZM323.412 236.75H325.004L326.542 234.279H326.591L328.134 236.75H329.813L327.538 233.229V233.21L329.848 229.704H328.197L326.713 232.243H326.654L325.16 229.704H323.422L325.648 233.186V233.2L323.412 236.75ZM335.08 236.75H336.555V234.118L339.011 229.704H337.414L335.866 232.668H335.778L334.226 229.704H332.629L335.08 234.118V236.75ZM342.017 236.75H347.456V235.534H343.823V235.446L347.358 230.661V229.704H342.1V230.92H345.562V231.008L342.017 235.788V236.75Z" fill="black"/>
<path d="M329.415 204.092C325.813 204.092 323.177 206.607 323.177 210.074V210.098C323.177 213.443 325.667 215.921 329.024 215.921C331.417 215.921 333.223 214.651 333.931 213.089H333.98C333.98 213.223 333.98 213.345 333.968 213.467C333.87 217.166 332.576 220.352 329.292 220.352C327.486 220.352 326.229 219.449 325.704 217.996L325.655 217.862H323.421L323.458 218.021C324.043 220.584 326.277 222.293 329.268 222.293C333.577 222.293 336.104 218.826 336.104 212.894V212.869C336.104 206.338 332.662 204.092 329.415 204.092ZM329.402 213.992C327.083 213.992 325.411 212.344 325.411 210.049V210.025C325.411 207.803 327.193 206.045 329.439 206.045C331.697 206.045 333.455 207.84 333.455 210.098V210.11C333.455 212.356 331.709 213.992 329.402 213.992Z" fill="black"/>
<g filter="url(#filter10_d_907_2700)">
<rect x="137" y="251" width="126" height="46" rx="4.6" fill="white"/>
</g>
<path d="M198.488 283.293C202.541 283.293 204.97 279.79 204.97 274.199V274.174C204.97 268.583 202.541 265.092 198.488 265.092C194.435 265.092 192.03 268.583 192.03 274.174V274.199C192.03 279.79 194.435 283.293 198.488 283.293ZM198.488 281.376C195.802 281.376 194.24 278.618 194.24 274.199V274.174C194.24 269.755 195.802 267.021 198.488 267.021C201.173 267.021 202.76 269.755 202.76 274.174V274.199C202.76 278.618 201.173 281.376 198.488 281.376Z" fill="black"/>
<path d="M329.714 271.025C329.422 270.732 329.422 270.257 329.714 269.964C330.007 269.672 330.482 269.672 330.775 269.964L333.25 272.439L335.725 269.964C336.018 269.672 336.493 269.672 336.786 269.964C337.078 270.257 337.078 270.732 336.786 271.025L334.311 273.5L336.786 275.975C337.078 276.268 337.078 276.743 336.786 277.036C336.493 277.328 336.018 277.328 335.725 277.036L333.25 274.561L330.775 277.036C330.482 277.328 330.007 277.328 329.714 277.036C329.422 276.743 329.422 276.268 329.714 275.975L332.189 273.5L329.714 271.025Z" fill="black"/>
<path fill-rule="evenodd" clip-rule="evenodd" d="M326.621 265.879L319 273.5L326.621 281.121C327.184 281.684 327.947 282 328.743 282H339C340.657 282 342 280.657 342 279V268C342 266.343 340.657 265 339 265H328.743C327.947 265 327.184 265.316 326.621 265.879ZM339 280.7H328.743C328.292 280.7 327.859 280.521 327.541 280.202L320.839 273.5L327.541 266.798C327.859 266.479 328.292 266.3 328.743 266.3H339C339.939 266.3 340.7 267.061 340.7 268V279C340.7 279.939 339.939 280.7 339 280.7Z" fill="black"/>
<defs>
<filter id="filter1_d_907_2700" x="6" y="92" width="126" height="47" filterUnits="userSpaceOnUse" color-interpolation-filters="sRGB">
<feFlood flood-opacity="0" result="BackgroundImageFix"/>
<feColorMatrix in="SourceAlpha" type="matrix" values="0 0 0 0 0 0 0 0 0 0 0 0 0 0 0 0 0 0 127 0" result="hardAlpha"/>
<feOffset dy="1"/>
<feColorMatrix type="matrix" values="0 0 0 0 0 0 0 0 0 0 0 0 0 0 0 0 0 0 0.3 0"/>
<feBlend mode="normal" in2="BackgroundImageFix" result="effect1_dropShadow_907_2700"/>
<feBlend mode="normal" in="SourceGraphic" in2="effect1_dropShadow_907_2700" result="shape"/>
</filter>
<filter id="filter2_d_907_2700" x="137" y="92" width="126" height="47" filterUnits="userSpaceOnUse" color-interpolation-filters="sRGB">
<feFlood flood-opacity="0" result="BackgroundImageFix"/>
<feColorMatrix in="SourceAlpha" type="matrix" values="0 0 0 0 0 0 0 0 0 0 0 0 0 0 0 0 0 0 127 0" result="hardAlpha"/>
<feOffset dy="1"/>
<feColorMatrix type="matrix" values="0 0 0 0 0 0 0 0 0 0 0 0 0 0 0 0 0 0 0.3 0"/>
<feBlend mode="normal" in2="BackgroundImageFix" result="effect1_dropShadow_907_2700"/>
<feBlend mode="normal" in="SourceGraphic" in2="effect1_dropShadow_907_2700" result="shape"/>
</filter>
<filter id="filter3_d_907_2700" x="268" y="92" width="126" height="47" filterUnits="userSpaceOnUse" color-interpolation-filters="sRGB">
<feFlood flood-opacity="0" result="BackgroundImageFix"/>
<feColorMatrix in="SourceAlpha" type="matrix" values="0 0 0 0 0 0 0 0 0 0 0 0 0 0 0 0 0 0 127 0" result="hardAlpha"/>
<feOffset dy="1"/>
<feColorMatrix type="matrix" values="0 0 0 0 0 0 0 0 0 0 0 0 0 0 0 0 0 0 0.3 0"/>
<feBlend mode="normal" in2="BackgroundImageFix" result="effect1_dropShadow_907_2700"/>
<feBlend mode="normal" in="SourceGraphic" in2="effect1_dropShadow_907_2700" result="shape"/>
</filter>
<filter id="filter4_d_907_2700" x="6" y="145" width="126" height="47" filterUnits="userSpaceOnUse" color-interpolation-filters="sRGB">
<feFlood flood-opacity="0" result="BackgroundImageFix"/>
<feColorMatrix in="SourceAlpha" type="matrix" values="0 0 0 0 0 0 0 0 0 0 0 0 0 0 0 0 0 0 127 0" result="hardAlpha"/>
<feOffset dy="1"/>
<feColorMatrix type="matrix" values="0 0 0 0 0 0 0 0 0 0 0 0 0 0 0 0 0 0 0.3 0"/>
<feBlend mode="normal" in2="BackgroundImageFix" result="effect1_dropShadow_907_2700"/>
<feBlend mode="normal" in="SourceGraphic" in2="effect1_dropShadow_907_2700" result="shape"/>
</filter>
<filter id="filter5_d_907_2700" x="137" y="145" width="126" height="47" filterUnits="userSpaceOnUse" color-interpolation-filters="sRGB">
<feFlood flood-opacity="0" result="BackgroundImageFix"/>
<feColorMatrix in="SourceAlpha" type="matrix" values="0 0 0 0 0 0 0 0 0 0 0 0 0 0 0 0 0 0 127 0" result="hardAlpha"/>
<feOffset dy="1"/>
<feColorMatrix type="matrix" values="0 0 0 0 0 0 0 0 0 0 0 0 0 0 0 0 0 0 0.3 0"/>
<feBlend mode="normal" in2="BackgroundImageFix" result="effect1_dropShadow_907_2700"/>
<feBlend mode="normal" in="SourceGraphic" in2="effect1_dropShadow_907_2700" result="shape"/>
</filter>
<filter id="filter6_d_907_2700" x="268" y="145" width="126" height="47" filterUnits="userSpaceOnUse" color-interpolation-filters="sRGB">
<feFlood flood-opacity="0" result="BackgroundImageFix"/>
<feColorMatrix in="SourceAlpha" type="matrix" values="0 0 0 0 0 0 0 0 0 0 0 0 0 0 0 0 0 0 127 0" result="hardAlpha"/>
<feOffset dy="1"/>
<feColorMatrix type="matrix" values="0 0 0 0 0 0 0 0 0 0 0 0 0 0 0 0 0 0 0.3 0"/>
<feBlend mode="normal" in2="BackgroundImageFix" result="effect1_dropShadow_907_2700"/>
<feBlend mode="normal" in="SourceGraphic" in2="effect1_dropShadow_907_2700" result="shape"/>
</filter>
<filter id="filter7_d_907_2700" x="6" y="198" width="126" height="47" filterUnits="userSpaceOnUse" color-interpolation-filters="sRGB">
<feFlood flood-opacity="0" result="BackgroundImageFix"/>
<feColorMatrix in="SourceAlpha" type="matrix" values="0 0 0 0 0 0 0 0 0 0 0 0 0 0 0 0 0 0 127 0" result="hardAlpha"/>
<feOffset dy="1"/>
<feColorMatrix type="matrix" values="0 0 0 0 0 0 0 0 0 0 0 0 0 0 0 0 0 0 0.3 0"/>
<feBlend mode="normal" in2="BackgroundImageFix" result="effect1_dropShadow_907_2700"/>
<feBlend mode="normal" in="SourceGraphic" in2="effect1_dropShadow_907_2700" result="shape"/>
</filter>
<filter id="filter8_d_907_2700" x="137" y="198" width="126" height="47" filterUnits="userSpaceOnUse" color-interpolation-filters="sRGB">
<feFlood flood-opacity="0" result="BackgroundImageFix"/>
<feColorMatrix in="SourceAlpha" type="matrix" values="0 0 0 0 0 0 0 0 0 0 0 0 0 0 0 0 0 0 127 0" result="hardAlpha"/>
<feOffset dy="1"/>
<feColorMatrix type="matrix" values="0 0 0 0 0 0 0 0 0 0 0 0 0 0 0 0 0 0 0.3 0"/>
<feBlend mode="normal" in2="BackgroundImageFix" result="effect1_dropShadow_907_2700"/>
<feBlend mode="normal" in="SourceGraphic" in2="effect1_dropShadow_907_2700" result="shape"/>
</filter>
<filter id="filter9_d_907_2700" x="268" y="198" width="126" height="47" filterUnits="userSpaceOnUse" color-interpolation-filters="sRGB">
<feFlood flood-opacity="0" result="BackgroundImageFix"/>
<feColorMatrix in="SourceAlpha" type="matrix" values="0 0 0 0 0 0 0 0 0 0 0 0 0 0 0 0 0 0 127 0" result="hardAlpha"/>
<feOffset dy="1"/>
<feColorMatrix type="matrix" values="0 0 0 0 0 0 0 0 0 0 0 0 0 0 0 0 0 0 0.3 0"/>
<feBlend mode="normal" in2="BackgroundImageFix" result="effect1_dropShadow_907_2700"/>
<feBlend mode="normal" in="SourceGraphic" in2="effect1_dropShadow_907_2700" result="shape"/>
</filter>
<filter id="filter10_d_907_2700" x="137" y="251" width="126" height="47" filterUnits="userSpaceOnUse" color-interpolation-filters="sRGB">
<feFlood flood-opacity="0" result="BackgroundImageFix"/>
<feColorMatrix in="SourceAlpha" type="matrix" values="0 0 0 0 0 0 0 0 0 0 0 0 0 0 0 0 0 0 127 0" result="hardAlpha"/>
<feOffset dy="1"/>
<feColorMatrix type="matrix" values="0 0 0 0 0 0 0 0 0 0 0 0 0 0 0 0 0 0 0.3 0"/>
<feBlend mode="normal" in2="BackgroundImageFix" result="effect1_dropShadow_907_2700"/>
<feBlend mode="normal" in="SourceGraphic" in2="effect1_dropShadow_907_2700" result="shape"/>
</filter>
</defs>
</svg>
