<svg width="400" height="727" viewBox="0 0 400 727" fill="none" xmlns="http://www.w3.org/2000/svg">
<rect width="400" height="727" fill="white"/>
<path d="M106.63 119.56V121.713H89.5474V119.56H96.7456V115.745H91.3521V106.599H104.723V115.745H99.3501V119.56H106.63ZM93.9361 108.69V113.694H102.139V108.69H93.9361ZM122.001 105.225V112.197H124.749V114.392H122.001V123.887H119.376V105.225H122.001ZM110.476 106.701V111.254H114.352V106.701H116.956V119.56H107.872V106.701H110.476ZM110.476 117.447H114.352V113.284H110.476V117.447ZM130.318 105.778C133.148 105.778 135.301 107.542 135.301 110.044C135.301 112.505 133.148 114.289 130.318 114.289C127.426 114.289 125.293 112.505 125.293 110.044C125.293 107.542 127.426 105.778 130.318 105.778ZM130.318 107.911C128.882 107.911 127.816 108.69 127.836 110.044C127.816 111.377 128.882 112.177 130.318 112.177C131.733 112.177 132.779 111.377 132.779 110.044C132.779 108.69 131.733 107.911 130.318 107.911ZM140.633 105.225V114.576H138.008V105.225H140.633ZM140.633 115.355V120.421H130.707V121.631H141.146V123.682H128.144V118.514H138.029V117.365H128.103V115.355H140.633ZM162.782 105.245V118.862H160.157V105.245H162.782ZM163.275 121.467V123.559H150.273V117.55H152.918V121.467H163.275ZM154.313 108.075C154.292 110.536 155.605 112.956 158.681 113.94L157.348 115.991C155.246 115.294 153.79 113.899 152.959 112.115C152.129 114.033 150.632 115.571 148.447 116.319L147.094 114.248C150.232 113.202 151.585 110.598 151.585 108.075V106.271H154.313V108.075ZM181.947 114.802V116.853H174.913V119.867H172.329V116.853H164.864V114.802H181.947ZM180.061 121.467V123.559H166.874V118.391H169.458V121.467H180.061ZM169.643 105.819V107.768H177.128V105.819H179.733V113.489H167.059V105.819H169.643ZM169.643 111.418H177.128V109.716H169.643V111.418ZM199.636 113.817V115.93H182.614V113.817H199.636ZM191.105 116.976C195.145 116.976 197.585 118.247 197.606 120.441C197.585 122.656 195.145 123.887 191.105 123.887C187.023 123.887 184.563 122.656 184.563 120.441C184.563 118.247 187.023 116.976 191.105 116.976ZM191.105 119.006C188.521 119.006 187.208 119.457 187.229 120.441C187.208 121.405 188.521 121.856 191.105 121.856C193.627 121.856 194.96 121.405 194.981 120.441C194.96 119.457 193.627 119.006 191.105 119.006ZM198.098 106.086V108.178H193.012C193.432 109.48 195.329 110.772 198.918 111.09L197.995 113.141C194.478 112.802 192.099 111.469 191.105 109.654C190.12 111.469 187.782 112.802 184.234 113.141L183.373 111.09C186.88 110.772 188.797 109.49 189.238 108.178H184.173V106.086H198.098ZM208.854 105.491C213.141 105.491 215.622 106.619 215.643 108.67C215.622 110.741 213.141 111.869 208.854 111.869C204.548 111.869 202.046 110.741 202.046 108.67C202.046 106.619 204.548 105.491 208.854 105.491ZM208.854 107.398C206.106 107.398 204.773 107.85 204.794 108.67C204.773 109.593 206.106 109.941 208.854 109.941C211.623 109.941 212.936 109.593 212.936 108.67C212.936 107.85 211.623 107.398 208.854 107.398ZM217.365 112.751V114.822H200.344V112.751H217.365ZM215.294 115.909V120.667H204.896V121.795H215.786V123.764H202.333V118.842H212.71V117.816H202.312V115.909H215.294ZM238.12 105.225V123.928H235.474V105.225H238.12ZM227.989 106.537C230.799 106.537 232.89 109.121 232.89 113.182C232.89 117.283 230.799 119.847 227.989 119.847C225.118 119.847 223.026 117.283 223.047 113.182C223.026 109.121 225.118 106.537 227.989 106.537ZM227.989 108.896C226.533 108.896 225.569 110.413 225.569 113.182C225.569 115.971 226.533 117.468 227.989 117.468C229.404 117.468 230.368 115.971 230.368 113.182C230.368 110.413 229.404 108.896 227.989 108.896ZM257.244 114.063V116.155H240.222V114.063H244.057V111.828C242.694 111.223 241.925 110.3 241.925 109.101C241.925 106.845 244.57 105.491 248.733 105.491C252.855 105.491 255.501 106.845 255.521 109.101C255.511 110.311 254.711 111.254 253.327 111.849V114.063H257.244ZM248.713 117.14C252.753 117.14 255.193 118.329 255.214 120.482C255.193 122.677 252.753 123.866 248.713 123.866C244.611 123.866 242.171 122.677 242.171 120.482C242.171 118.329 244.611 117.14 248.713 117.14ZM248.713 119.108C246.129 119.108 244.816 119.56 244.837 120.482C244.816 121.446 246.129 121.918 248.713 121.918C251.235 121.918 252.568 121.446 252.589 120.482C252.568 119.56 251.235 119.108 248.713 119.108ZM248.733 107.501C246.088 107.501 244.632 108.055 244.652 109.101C244.632 110.126 246.088 110.639 248.733 110.639C251.338 110.639 252.814 110.126 252.814 109.101C252.814 108.055 251.338 107.501 248.733 107.501ZM246.703 114.063H250.722V112.505C250.107 112.577 249.441 112.607 248.733 112.607C248.005 112.607 247.328 112.577 246.703 112.484V114.063ZM272.676 105.225V112.525H275.424V114.679H272.676V123.887H270.092V105.225H272.676ZM268.821 108.014V110.105H257.849V108.014H262.074V105.512H264.699V108.014H268.821ZM263.386 111.151C266.114 111.151 268.144 112.997 268.144 115.602C268.144 118.206 266.114 120.052 263.386 120.052C260.638 120.052 258.608 118.206 258.608 115.602C258.608 112.997 260.638 111.151 263.386 111.151ZM263.386 113.264C262.074 113.284 261.11 114.166 261.11 115.602C261.11 117.058 262.074 117.919 263.386 117.898C264.699 117.919 265.642 117.058 265.642 115.602C265.642 114.166 264.699 113.284 263.386 113.264ZM291.411 105.225V123.928H288.806V116.401H285.607V114.248H288.806V111.315H285.669V109.183H288.806V105.225H291.411ZM284.684 106.783V113.961H278.942V117.591C281.249 117.581 283.3 117.468 285.648 117.119L285.853 119.252C283.064 119.703 280.685 119.744 277.814 119.744H276.337V111.931H282.121V108.854H276.296V106.783H284.684ZM303.049 106.742V108.157H306.536V105.245H309.14V118.821H306.536V114.248H303.049V115.827H294.19V106.742H303.049ZM296.794 108.813V113.797H300.486V108.813H296.794ZM309.53 121.467V123.559H296.712V117.529H299.358V121.467H309.53ZM303.049 112.177H306.536V110.27H303.049V112.177ZM96.4327 135.742V139.167H99.919V134.245H102.523V147.821H99.919V141.238H96.4327V144.725H87.5733V135.742H96.4327ZM90.1778 137.813V142.674H93.8692V137.813H90.1778ZM102.975 150.467V152.559H90.1368V146.529H92.7618V150.467H102.975ZM120.294 134.225V152.928H117.669V142.858H114.326V140.726H117.669V134.225H120.294ZM111.578 138.9C111.578 142.182 113.075 145.606 116.233 146.96L114.695 149.031C112.532 148.016 111.065 146.058 110.266 143.679C109.456 146.222 107.969 148.344 105.795 149.421L104.236 147.35C107.374 145.914 108.892 142.366 108.892 138.9V138.121H105.016V136.029H115.454V138.121H111.578V138.9ZM131.43 134.901V136.768H138.916V134.901H141.52V142.53H136.475V144.109H143.694V146.201H126.673V144.109H133.85V142.53H128.847V134.901H131.43ZM131.43 140.438H138.916V138.777H131.43V140.438ZM141.766 150.467V152.559H128.723V147.268H131.348V150.467H141.766ZM160.029 134.245V147.657H157.404V134.245H160.029ZM160.521 150.467V152.559H147.519V146.304H150.165V150.467H160.521ZM149.796 135.435C152.667 135.435 154.902 137.403 154.902 140.131C154.902 142.92 152.667 144.868 149.796 144.868C146.925 144.868 144.689 142.92 144.689 140.131C144.689 137.403 146.925 135.435 149.796 135.435ZM149.796 137.711C148.34 137.69 147.232 138.613 147.253 140.131C147.232 141.689 148.34 142.592 149.796 142.592C151.211 142.592 152.318 141.689 152.318 140.131C152.318 138.613 151.211 137.69 149.796 137.711ZM177.758 134.245V147.657H175.133V134.245H177.758ZM178.251 150.467V152.559H165.249V146.304H167.894V150.467H178.251ZM167.525 135.435C170.396 135.435 172.632 137.403 172.632 140.131C172.632 142.92 170.396 144.868 167.525 144.868C164.654 144.868 162.419 142.92 162.419 140.131C162.419 137.403 164.654 135.435 167.525 135.435ZM167.525 137.711C166.069 137.69 164.962 138.613 164.982 140.131C164.962 141.689 166.069 142.592 167.525 142.592C168.94 142.592 170.048 141.689 170.048 140.131C170.048 138.613 168.94 137.69 167.525 137.711ZM196.882 142.817V144.93H179.861V142.817H196.882ZM188.351 145.976C192.391 145.976 194.832 147.247 194.852 149.441C194.832 151.656 192.391 152.887 188.351 152.887C184.27 152.887 181.809 151.656 181.809 149.441C181.809 147.247 184.27 145.976 188.351 145.976ZM188.351 148.006C185.767 148.006 184.455 148.457 184.475 149.441C184.455 150.405 185.767 150.856 188.351 150.856C190.874 150.856 192.207 150.405 192.227 149.441C192.207 148.457 190.874 148.006 188.351 148.006ZM195.344 135.086V137.178H190.258C190.679 138.48 192.576 139.772 196.165 140.09L195.242 142.141C191.725 141.802 189.346 140.469 188.351 138.654C187.367 140.469 185.029 141.802 181.481 142.141L180.62 140.09C184.127 139.772 186.044 138.49 186.485 137.178H181.42V135.086H195.344ZM206.101 134.491C210.387 134.491 212.869 135.619 212.889 137.67C212.869 139.741 210.387 140.869 206.101 140.869C201.794 140.869 199.292 139.741 199.292 137.67C199.292 135.619 201.794 134.491 206.101 134.491ZM206.101 136.398C203.353 136.398 202.02 136.85 202.041 137.67C202.02 138.593 203.353 138.941 206.101 138.941C208.87 138.941 210.182 138.593 210.182 137.67C210.182 136.85 208.87 136.398 206.101 136.398ZM214.612 141.751V143.822H197.59V141.751H214.612ZM212.541 144.909V149.667H202.143V150.795H213.033V152.764H199.58V147.842H209.957V146.816H199.559V144.909H212.541ZM228.743 137.075V139.146H219.719V137.075H222.959V134.737H225.543V137.075H228.743ZM224.272 139.987C226.651 139.987 228.353 141.833 228.373 144.417C228.353 147.021 226.651 148.867 224.272 148.867C221.893 148.867 220.15 147.021 220.15 144.417C220.15 141.833 221.893 139.987 224.272 139.987ZM224.272 142.161C223.185 142.161 222.447 143.002 222.447 144.417C222.447 145.832 223.185 146.652 224.272 146.652C225.318 146.652 226.056 145.832 226.077 144.417C226.056 143.002 225.318 142.161 224.272 142.161ZM235.879 134.225V152.887H233.398V143.904H231.88V152.087H229.44V134.594H231.88V141.812H233.398V134.225H235.879ZM242.493 135.537C245.344 135.537 247.395 138.121 247.415 142.182C247.395 146.283 245.344 148.847 242.493 148.847C239.643 148.847 237.551 146.283 237.572 142.182C237.551 138.121 239.643 135.537 242.493 135.537ZM242.493 137.896C241.058 137.896 240.094 139.413 240.094 142.182C240.094 144.971 241.058 146.468 242.493 146.468C243.949 146.468 244.893 144.971 244.913 142.182C244.893 139.413 243.949 137.896 242.493 137.896ZM254.839 138.552V140.746H252.194V144.068H254.839V146.201H252.194V152.887H249.569V134.225H252.194V138.552H254.839ZM270.005 134.225V138.716H272.528V140.89H270.005V145.155H267.38V134.225H270.005ZM260.387 145.873V147.288H267.38V145.873H270.005V152.682H257.782V145.873H260.387ZM260.387 150.631H267.38V149.298H260.387V150.631ZM266.273 135.865V137.916H255.198V135.865H259.444V134.102H262.048V135.865H266.273ZM260.736 138.449C263.443 138.449 265.329 139.762 265.329 141.751C265.329 143.74 263.443 145.053 260.736 145.053C257.987 145.053 256.101 143.74 256.101 141.751C256.101 139.762 257.987 138.449 260.736 138.449ZM260.736 140.377C259.485 140.356 258.644 140.869 258.664 141.751C258.644 142.653 259.485 143.146 260.736 143.146C261.987 143.146 262.848 142.653 262.848 141.751C262.848 140.869 261.987 140.356 260.736 140.377ZM288.616 134.225V152.887H286.012V134.225H288.616ZM276.517 136.009V146.037C279.039 146.006 281.746 145.771 284.494 145.237L284.822 147.391C281.541 148.067 278.465 148.293 275.573 148.272H273.933V136.009H276.517ZM305.382 134.225V141.156H308.13V143.289H305.382V152.928H302.757V134.225H305.382ZM300.152 135.947V138.06H294V146.242C296.707 146.211 298.942 146.088 301.424 145.647L301.711 147.842C298.819 148.334 296.276 148.416 292.975 148.396H291.396V135.947H300.152ZM310.807 151.185C309.843 151.185 309.063 150.405 309.084 149.462C309.063 148.519 309.843 147.76 310.807 147.76C311.709 147.76 312.509 148.519 312.509 149.462C312.509 150.405 311.709 151.185 310.807 151.185Z" fill="#111827"/>
<path d="M92.2461 172.618V174.171H98.3252V172.618H99.7168V177.921H95.9668V179.21H101.27V180.353H89.3018V179.21H94.5898V177.921H90.8691V172.618H92.2461ZM92.2461 176.793H98.3252V175.255H92.2461V176.793ZM99.9219 183.839V184.967H90.8105V181.29H92.2168V183.839H99.9219ZM113.149 172.135V181.671H111.758V172.135H113.149ZM113.545 183.839V184.967H104.565V180.704H105.972V183.839H113.545ZM106.03 173.014C108.008 173.014 109.517 174.361 109.517 176.266C109.517 178.199 108.008 179.532 106.03 179.532C104.053 179.532 102.529 178.199 102.529 176.266C102.529 174.361 104.053 173.014 106.03 173.014ZM106.03 174.229C104.8 174.229 103.892 175.064 103.892 176.266C103.892 177.496 104.8 178.316 106.03 178.316C107.231 178.316 108.154 177.496 108.154 176.266C108.154 175.064 107.231 174.229 106.03 174.229ZM126.113 172.135V181.671H124.722V172.135H126.113ZM126.509 183.839V184.967H117.529V180.704H118.936V183.839H126.509ZM118.994 173.014C120.972 173.014 122.48 174.361 122.48 176.266C122.48 178.199 120.972 179.532 118.994 179.532C117.017 179.532 115.493 178.199 115.493 176.266C115.493 174.361 117.017 173.014 118.994 173.014ZM118.994 174.229C117.764 174.229 116.855 175.064 116.855 176.266C116.855 177.496 117.764 178.316 118.994 178.316C120.195 178.316 121.118 177.496 121.118 176.266C121.118 175.064 120.195 174.229 118.994 174.229ZM140.161 178.302V179.43H128.193V178.302H140.161ZM134.17 180.44C136.997 180.44 138.696 181.319 138.696 182.843C138.696 184.366 136.997 185.23 134.17 185.216C131.328 185.23 129.614 184.366 129.614 182.843C129.614 181.319 131.328 180.44 134.17 180.44ZM134.17 181.524C132.163 181.539 131.021 181.993 131.021 182.843C131.021 183.678 132.163 184.117 134.17 184.117C136.147 184.117 137.305 183.678 137.305 182.843C137.305 181.993 136.147 181.539 134.17 181.524ZM139.092 172.765V173.907H135.107C135.261 175.182 137.122 176.266 139.546 176.515L139.048 177.613C136.777 177.35 134.895 176.39 134.185 175.006C133.452 176.39 131.577 177.35 129.307 177.613L128.823 176.515C131.204 176.266 133.079 175.189 133.247 173.907H129.292V172.765H139.092ZM148.467 173.526V174.332C148.467 175.431 148.467 177.13 148.086 179.474L146.709 179.371C147.039 177.269 147.075 175.753 147.09 174.654H141.758V173.526H148.467ZM145.098 177.276V181.202C146.497 181.158 147.917 181.063 149.229 180.895L149.302 181.935C146.562 182.374 143.516 182.433 141.187 182.418L141.025 181.29C141.846 181.283 142.761 181.275 143.721 181.246V177.276H145.098ZM151.382 172.12V177.54H153.389V178.727H151.382V185.245H149.976V172.12H151.382ZM168.667 172.135V181.671H167.275V172.135H168.667ZM169.062 183.839V184.967H160.083V180.704H161.489V183.839H169.062ZM161.548 173.014C163.525 173.014 165.034 174.361 165.034 176.266C165.034 178.199 163.525 179.532 161.548 179.532C159.57 179.532 158.047 178.199 158.047 176.266C158.047 174.361 159.57 173.014 161.548 173.014ZM161.548 174.229C160.317 174.229 159.409 175.064 159.409 176.266C159.409 177.496 160.317 178.316 161.548 178.316C162.749 178.316 163.672 177.496 163.672 176.266C163.672 175.064 162.749 174.229 161.548 174.229ZM182.715 178.302V179.43H170.747V178.302H182.715ZM176.724 180.44C179.551 180.44 181.25 181.319 181.25 182.843C181.25 184.366 179.551 185.23 176.724 185.216C173.882 185.23 172.168 184.366 172.168 182.843C172.168 181.319 173.882 180.44 176.724 180.44ZM176.724 181.524C174.717 181.539 173.574 181.993 173.574 182.843C173.574 183.678 174.717 184.117 176.724 184.117C178.701 184.117 179.858 183.678 179.858 182.843C179.858 181.993 178.701 181.539 176.724 181.524ZM181.646 172.765V173.907H177.661C177.815 175.182 179.675 176.266 182.1 176.515L181.602 177.613C179.331 177.35 177.449 176.39 176.738 175.006C176.006 176.39 174.131 177.35 171.86 177.613L171.377 176.515C173.757 176.266 175.632 175.189 175.801 173.907H171.846V172.765H181.646ZM190.435 173.277C190.42 175.021 192.559 176.661 195.137 176.998L194.595 178.141C192.449 177.796 190.559 176.683 189.717 175.138C188.853 176.69 186.97 177.796 184.839 178.141L184.282 176.998C186.86 176.661 188.97 175.035 188.984 173.277V172.56H190.435V173.277ZM195.679 179.43V180.572H190.347V185.245H188.984V180.572H183.711V179.43H195.679ZM206.987 172.105V175.914H208.906V177.071H206.987V181.612H205.596V172.105H206.987ZM203.12 173.233V174.361H198.638V178.185C201.194 178.192 202.637 178.111 204.277 177.774L204.438 178.902C202.666 179.254 201.113 179.342 198.301 179.342H197.261V173.233H203.12ZM207.544 183.839V184.967H198.667V180.631H200.059V183.839H207.544ZM225.283 178.287V179.43H213.301V178.287H225.283ZM223.892 176.017V177.145H214.795V172.589H223.804V173.731H216.172V176.017H223.892ZM219.277 180.455C222.104 180.455 223.804 181.319 223.804 182.843C223.804 184.366 222.104 185.23 219.277 185.216C216.436 185.23 214.722 184.366 214.722 182.843C214.722 181.319 216.436 180.455 219.277 180.455ZM219.277 181.524C217.271 181.539 216.128 182.008 216.128 182.843C216.128 183.678 217.271 184.146 219.277 184.146C221.255 184.146 222.412 183.678 222.412 182.843C222.412 182.008 221.255 181.539 219.277 181.524ZM238.262 179.283V180.411H226.25V179.283H231.567V178.038H227.788V174.698H235.361V173.526H227.759V172.428H236.753V175.724H229.165V176.954H237.017V178.038H232.944V179.283H238.262ZM236.826 181.334V185.143H235.42V182.447H227.598V181.334H236.826ZM245.205 172.34C248.164 172.34 249.893 173.131 249.893 174.596C249.893 176.061 248.164 176.866 245.205 176.866C242.246 176.866 240.518 176.061 240.518 174.596C240.518 173.131 242.246 172.34 245.205 172.34ZM245.205 173.365C243.11 173.365 241.953 173.819 241.968 174.596C241.953 175.401 243.11 175.826 245.205 175.826C247.3 175.826 248.457 175.401 248.457 174.596C248.457 173.819 247.3 173.365 245.205 173.365ZM251.196 177.672V178.785H239.229V177.672H251.196ZM249.688 179.796V182.872H242.041V184.044H250.054V185.113H240.679V181.861H248.311V180.836H240.664V179.796H249.688ZM262.344 174.288V175.416H255.825V174.288H258.403V172.501H259.78V174.288H262.344ZM259.092 176.207C260.762 176.207 261.934 177.452 261.948 179.225C261.934 181.012 260.762 182.271 259.092 182.271C257.451 182.271 256.235 181.012 256.25 179.225C256.235 177.452 257.451 176.207 259.092 176.207ZM259.092 177.364C258.14 177.364 257.48 178.141 257.48 179.225C257.48 180.338 258.14 181.085 259.092 181.085C260.029 181.085 260.718 180.338 260.718 179.225C260.718 178.141 260.029 177.364 259.092 177.364ZM267.09 172.12V185.245H265.771V178.727H264.263V184.63H262.944V172.413H264.263V177.584H265.771V172.12H267.09ZM280.786 179.518V180.646H275.454V185.23H274.092V180.646H268.818V179.518H280.786ZM279.658 172.896V174.01H275.601C275.623 175.636 277.644 177.086 280.127 177.423L279.614 178.521C277.461 178.185 275.601 177.123 274.81 175.621C273.997 177.123 272.144 178.185 270.02 178.521L269.492 177.423C271.946 177.086 273.967 175.636 274.019 174.01H269.932V172.896H279.658ZM285.781 175.709C285.781 177.804 286.66 180.045 288.418 181.114L287.642 182.184C286.411 181.444 285.576 180.133 285.137 178.609C284.646 180.279 283.745 181.7 282.471 182.477L281.606 181.437C283.467 180.323 284.434 178.009 284.434 175.768V173.321H285.781V175.709ZM293.076 172.12V185.245H291.743V172.12H293.076ZM290.352 172.369V184.601H289.033V177.892H286.997V176.734H289.033V172.369H290.352ZM306.758 182.447V183.604H294.746V182.447H297.617V179.02C296.541 178.426 295.889 177.481 295.889 176.31C295.889 174.244 297.91 172.882 300.723 172.882C303.55 172.882 305.571 174.244 305.571 176.31C305.571 177.467 304.941 178.397 303.887 178.99V182.447H306.758ZM300.723 173.995C298.657 173.995 297.236 174.889 297.236 176.31C297.236 177.716 298.657 178.639 300.723 178.639C302.773 178.639 304.224 177.716 304.224 176.31C304.224 174.889 302.773 173.995 300.723 173.995ZM298.994 182.447H302.48V179.518C301.946 179.657 301.353 179.723 300.723 179.723C300.107 179.723 299.521 179.657 298.994 179.532V182.447ZM309.204 184.103C308.633 184.103 308.149 183.634 308.164 183.062C308.149 182.491 308.633 182.022 309.204 182.022C309.761 182.022 310.244 182.491 310.244 183.062C310.244 183.634 309.761 184.103 309.204 184.103Z" fill="#6B7280"/>
<g clip-path="url(#clip0_904_6994)">
<path d="M194.632 394.873C239.453 394.873 275.788 358.713 275.788 314.108C275.788 269.503 239.453 233.344 194.632 233.344C149.811 233.344 113.477 269.503 113.477 314.108C113.477 358.713 149.811 394.873 194.632 394.873Z" fill="url(#paint0_linear_904_6994)"/>
<path d="M157.248 343.021L198.391 364.172L190.931 394.999C190.931 394.999 179.032 394.992 163.565 388.962C148.097 382.932 138.502 372.434 138.502 372.434L157.248 343.021Z" fill="white"/>
<path d="M110.835 280.975C110.835 280.975 110.368 281.369 109.566 282.086" stroke="#D5DCE5" stroke-width="3" stroke-linecap="round" stroke-linejoin="round"/>
<path d="M107.113 284.348C95.1402 295.67 61.9072 331.39 124.28 327.002C186.75 322.609 212.479 312.629 246.561 307.377C279.135 302.357 292.515 304.051 282.403 324.565" stroke="#D5DCE5" stroke-linecap="round" stroke-linejoin="round" stroke-dasharray="3 3"/>
<path d="M281.644 326.053C281.39 326.538 281.123 327.032 280.846 327.538" stroke="#D5DCE5" stroke-width="3" stroke-linecap="round" stroke-linejoin="round"/>
<path d="M223.834 356.099L216.225 357.369L199.13 359.931L184.805 362.113C175.826 363.406 165.93 363.022 160.778 356.409C153.531 347.137 148.47 334.727 152.056 321.215C154.221 313.044 156.342 303.391 158.653 301.57L156.63 284.772C156.004 279.597 159.712 274.924 164.912 274.301C170.088 273.679 174.761 277.345 175.41 282.449C175.532 283.409 178.276 289.567 178.276 296.035C178.276 299.411 176.327 308.398 176.327 308.398L205.29 302.96L212.899 301.691" fill="#FAB9AC"/>
<path d="M258.312 263.083C258.301 262.861 258.288 262.642 258.257 262.43C258.257 262.426 258.257 262.42 258.257 262.416C258.257 262.399 258.251 262.379 258.247 262.362C258.224 262.197 258.193 262.036 258.159 261.877C258.153 261.854 258.153 261.827 258.146 261.803C258.139 261.776 258.129 261.753 258.122 261.726C258.092 261.601 258.058 261.48 258.017 261.359C258.007 261.329 258 261.295 257.99 261.265C257.987 261.251 257.98 261.241 257.977 261.228C257.923 261.076 257.868 260.925 257.804 260.78C257.804 260.78 257.804 260.777 257.804 260.773C257.797 260.76 257.791 260.746 257.784 260.733C257.726 260.605 257.665 260.48 257.601 260.356C257.598 260.346 257.591 260.332 257.584 260.322C257.567 260.292 257.547 260.261 257.53 260.231C257.479 260.14 257.425 260.053 257.371 259.965C257.358 259.945 257.347 259.925 257.334 259.904C257.317 259.878 257.293 259.851 257.273 259.824C257.219 259.746 257.161 259.669 257.104 259.591C257.084 259.568 257.067 259.537 257.046 259.514C257.009 259.467 256.972 259.423 256.935 259.376C255.463 257.666 253.991 255.952 252.52 254.241C251.407 252.945 249.668 252.164 247.469 252.164H203.162C198.142 252.164 192.641 256.238 190.871 261.265L153.247 368.23C152.147 371.355 152.753 374.109 154.57 375.748C154.397 375.593 154.235 375.432 154.086 375.257C155.558 376.97 157.029 378.681 158.501 380.391C159.617 381.687 161.356 382.465 163.549 382.465H207.855C208.132 382.465 208.413 382.448 208.697 382.425C208.765 382.418 208.833 382.411 208.9 382.405C209.181 382.374 209.458 382.337 209.736 382.283C209.76 382.28 209.783 382.273 209.807 382.267C209.983 382.233 210.159 382.196 210.335 382.152C210.392 382.139 210.446 382.118 210.5 382.102C210.703 382.048 210.903 381.987 211.103 381.923C211.197 381.893 211.289 381.873 211.383 381.842C211.431 381.825 211.475 381.805 211.522 381.788C211.647 381.745 211.766 381.698 211.891 381.647C211.999 381.603 212.111 381.566 212.219 381.519C212.29 381.489 212.361 381.455 212.429 381.421C212.527 381.378 212.625 381.334 212.723 381.287C212.798 381.253 212.869 381.223 212.943 381.186C213.078 381.118 213.214 381.044 213.349 380.974C213.41 380.94 213.471 380.91 213.532 380.879C213.555 380.866 213.579 380.856 213.599 380.842C213.806 380.728 214.009 380.607 214.212 380.482C214.246 380.462 214.276 380.438 214.307 380.418C214.367 380.381 214.425 380.341 214.482 380.304C214.587 380.236 214.689 380.172 214.79 380.102C214.899 380.028 215 379.95 215.105 379.873C215.163 379.832 215.217 379.795 215.271 379.751C215.294 379.735 215.322 379.718 215.345 379.698C215.528 379.56 215.707 379.418 215.883 379.273C215.917 379.246 215.947 379.22 215.978 379.193C216.029 379.149 216.079 379.105 216.13 379.058C216.225 378.977 216.32 378.896 216.411 378.815C216.509 378.728 216.6 378.634 216.698 378.543C216.749 378.492 216.8 378.445 216.851 378.398C216.878 378.371 216.908 378.344 216.932 378.321C217.111 378.142 217.287 377.96 217.456 377.772C217.47 377.758 217.48 377.741 217.494 377.728C217.541 377.674 217.588 377.62 217.632 377.563C217.751 377.425 217.872 377.29 217.987 377.149C218.025 377.105 218.055 377.058 218.089 377.014C218.174 376.906 218.255 376.799 218.333 376.691C218.4 376.6 218.475 376.509 218.542 376.415C218.58 376.364 218.607 376.307 218.644 376.257C218.769 376.075 218.887 375.886 219.002 375.698C219.053 375.614 219.114 375.533 219.165 375.449C219.199 375.388 219.232 375.327 219.266 375.27C219.293 375.22 219.324 375.169 219.351 375.115C219.493 374.859 219.625 374.6 219.747 374.334C219.767 374.29 219.784 374.25 219.804 374.206C219.929 373.927 220.044 373.644 220.146 373.358L257.77 266.392C257.838 266.204 257.895 266.015 257.95 265.83C257.967 265.773 257.98 265.716 257.997 265.655C258.034 265.527 258.065 265.403 258.095 265.275C258.112 265.207 258.122 265.137 258.139 265.069C258.163 264.955 258.186 264.844 258.203 264.733C258.217 264.659 258.227 264.588 258.237 264.514C258.251 264.409 258.264 264.305 258.278 264.201C258.281 264.164 258.288 264.127 258.291 264.09C258.295 264.046 258.295 264.005 258.298 263.965C258.305 263.884 258.308 263.803 258.312 263.726C258.315 263.645 258.318 263.568 258.318 263.49C258.318 263.409 258.318 263.325 258.318 263.244C258.318 263.207 258.318 263.17 258.318 263.137C258.318 263.113 258.315 263.093 258.312 263.069V263.083Z" fill="#1A3E4F"/>
<path d="M247.468 252.168C252.489 252.168 255.124 256.242 253.355 261.269L215.73 368.234C213.961 373.261 208.46 377.335 203.439 377.335H159.136C154.116 377.335 151.48 373.261 153.246 368.234L190.871 261.269C192.637 256.242 198.141 252.168 203.162 252.168H247.468Z" fill="#1A3E4F"/>
<path d="M212.804 368.21L250.428 261.252C251.649 257.78 249.826 254.959 246.358 254.959H202.052C198.587 254.959 194.775 257.78 193.557 261.252L155.932 368.21C154.711 371.682 156.535 374.503 160.002 374.503H204.308C207.773 374.503 211.586 371.682 212.804 368.21Z" fill="white"/>
<path d="M222.64 321.768C224.125 321.768 224.94 322.879 224.467 324.249L221.598 332.505C221.121 333.875 219.534 334.983 218.049 334.983H173.902C172.42 334.983 171.604 333.871 172.078 332.505L174.947 324.249C175.424 322.879 177.011 321.768 178.493 321.768H222.64Z" fill="#EAEEF8"/>
<path d="M185.983 324.053C186.954 324.053 187.489 324.777 187.177 325.672L185.303 331.069C184.992 331.965 183.953 332.689 182.982 332.689H176.801C175.833 332.689 175.299 331.965 175.61 331.069L177.484 325.672C177.796 324.777 178.834 324.053 179.802 324.053H185.983Z" fill="#BFCFEA"/>
<path d="M216.586 327.536C217.094 327.536 217.635 327.155 217.797 326.691C217.96 326.223 217.682 325.846 217.175 325.846H192.133C191.625 325.846 191.084 326.226 190.921 326.691C190.759 327.159 191.036 327.536 191.544 327.536H216.586Z" fill="#BFCFEA"/>
<path d="M208.575 330.817C209.083 330.817 209.624 330.437 209.786 329.972C209.949 329.504 209.671 329.127 209.164 329.127H190.986C190.479 329.127 189.937 329.507 189.775 329.972C189.613 330.44 189.89 330.817 190.397 330.817H208.575Z" fill="#BFCFEA"/>
<path d="M216.671 338.096C218.156 338.096 218.972 339.207 218.498 340.577L215.629 348.833C215.152 350.203 213.565 351.311 212.08 351.311H167.933C166.451 351.311 165.636 350.2 166.109 348.833L168.978 340.577C169.455 339.207 171.042 338.096 172.524 338.096H216.671Z" fill="#F6F8FC"/>
<path d="M180.014 340.385C180.985 340.385 181.52 341.109 181.208 342.008L179.334 347.405C179.023 348.3 177.984 349.024 177.013 349.024H170.832C169.865 349.024 169.33 348.3 169.641 347.405L171.516 342.008C171.827 341.112 172.866 340.385 173.833 340.385H180.014Z" fill="#D7E1F3"/>
<path d="M210.617 343.866C211.125 343.866 211.666 343.485 211.829 343.021C211.991 342.553 211.714 342.176 211.206 342.176H186.164C185.656 342.176 185.115 342.556 184.953 343.021C184.79 343.489 185.068 343.866 185.575 343.866H210.617Z" fill="#D7E1F3"/>
<path d="M202.606 347.149C203.114 347.149 203.655 346.769 203.818 346.304C203.98 345.836 203.703 345.459 203.195 345.459H185.017C184.51 345.459 183.969 345.839 183.806 346.304C183.644 346.772 183.921 347.149 184.429 347.149H202.606Z" fill="#D7E1F3"/>
<path d="M240.704 288.364L251.398 295.542C255.208 298.098 260.394 297.095 262.962 293.303C265.53 289.512 264.522 284.351 260.712 281.795L250.018 274.617C246.208 272.062 241.022 273.065 238.454 276.856C235.886 280.647 236.895 285.809 240.704 288.364Z" fill="#FAB9AC"/>
<path d="M234.462 303.374L245.156 310.552C248.966 313.108 254.152 312.104 256.72 308.313C259.288 304.522 258.279 299.361 254.47 296.805L243.776 289.627C239.966 287.072 234.78 288.075 232.212 291.866C229.644 295.657 230.652 300.819 234.462 303.374Z" fill="#FAB9AC"/>
<path d="M228.21 318.407L238.904 325.585C242.714 328.141 247.9 327.137 250.468 323.346C253.036 319.555 252.028 314.394 248.218 311.838L237.524 304.66C233.714 302.105 228.528 303.108 225.96 306.899C223.392 310.69 224.4 315.852 228.21 318.407Z" fill="#FAB9AC"/>
<path d="M221.958 333.44L232.652 340.619C236.462 343.174 241.648 342.171 244.216 338.38C246.784 334.589 245.776 329.427 241.966 326.872L231.272 319.693C227.462 317.138 222.276 318.141 219.708 321.932C217.14 325.724 218.149 330.885 221.958 333.44Z" fill="#FAB9AC"/>
<path d="M228.832 318.48L241.373 326.733" stroke="#C48685" stroke-width="1.5" stroke-miterlimit="10" stroke-linecap="round"/>
<path d="M235.166 303.25L247.707 311.502" stroke="#C48685" stroke-width="1.5" stroke-miterlimit="10" stroke-linecap="round"/>
<path d="M241.463 288.107L254.004 296.356" stroke="#C48685" stroke-width="1.5" stroke-miterlimit="10" stroke-linecap="round"/>
<path d="M218.102 273.207C229.997 273.207 235.938 282.803 231.367 294.644C226.797 306.482 213.45 316.081 201.555 316.081C189.659 316.081 183.718 306.485 188.289 294.644C192.856 282.806 206.206 273.207 218.102 273.207Z" fill="white"/>
<path d="M204.746 299.486L201.501 294.244C201.308 293.931 200.973 293.772 200.503 293.766C200.03 293.759 199.566 293.917 199.113 294.244C198.659 294.57 198.341 294.968 198.162 295.432C197.983 295.897 197.993 296.294 198.196 296.621L202.029 302.812C202.283 303.22 202.682 303.425 203.227 303.425C203.771 303.425 204.33 303.22 204.898 302.812L222.359 290.261C222.792 289.948 223.106 289.557 223.296 289.082C223.485 288.611 223.478 288.21 223.275 287.884C223.072 287.557 222.737 287.392 222.271 287.392C221.804 287.392 221.34 287.557 220.887 287.884L204.749 299.486H204.746ZM201.562 316.078C198.582 316.078 196 315.516 193.811 314.391C191.626 313.267 189.934 311.738 188.74 309.809C187.546 307.88 186.886 305.61 186.761 303.004C186.635 300.398 187.146 297.611 188.29 294.648C189.433 291.682 191.074 288.897 193.212 286.288C195.351 283.679 197.759 281.409 200.442 279.48C203.125 277.551 205.994 276.022 209.049 274.898C212.104 273.773 215.122 273.211 218.099 273.211C221.076 273.211 223.661 273.773 225.85 274.898C228.036 276.022 229.727 277.551 230.921 279.48C232.116 281.409 232.775 283.679 232.901 286.284C233.026 288.89 232.515 291.678 231.371 294.641C230.228 297.607 228.587 300.392 226.449 303.001C224.311 305.61 221.902 307.88 219.219 309.809C216.536 311.738 213.667 313.267 210.612 314.391C207.557 315.516 204.539 316.078 201.562 316.078Z" fill="#00D974"/>
<path d="M283.455 383.899C299.773 383.899 313.001 370.735 313.001 354.497C313.001 338.258 299.773 325.094 283.455 325.094C267.138 325.094 253.91 338.258 253.91 354.497C253.91 370.735 267.138 383.899 283.455 383.899Z" fill="#7CABD4"/>
<path d="M269.76 360.476V352.752H267.977V350.85C269.245 350.8 269.952 350.389 270.169 349.281H272.195V360.476H269.76Z" fill="white"/>
<path d="M281.573 358.332H285.677V360.476H278.43V358.638L282.175 354.463C282.933 353.608 283.264 353.059 283.264 352.369C283.264 351.679 282.764 351.221 281.996 351.221C281.228 351.221 280.663 351.628 280.612 352.78H278.43C278.416 350.342 280.06 349.076 282.036 349.076C284.012 349.076 285.666 350.339 285.666 352.295C285.666 353.8 284.949 354.719 283.664 356.099L281.573 358.335V358.332Z" fill="white"/>
<path d="M296.08 353.725C297.762 353.903 298.929 355.193 298.929 356.802V357.146C298.929 359.418 297.119 360.681 295.015 360.681C293.052 360.681 291.537 359.57 291.27 357.833L293.438 357.371C293.617 358.062 294.22 358.533 295.015 358.533C295.86 358.533 296.541 357.998 296.541 357.014V356.924C296.541 355.954 295.861 355.378 294.693 355.378H293.269V353.695L295.668 351.385H291.882V349.277H298.503V351.385L296.077 353.722L296.08 353.725Z" fill="white"/>
<path d="M128.441 291.819C145.872 291.819 160.002 277.756 160.002 260.409C160.002 243.063 145.872 229 128.441 229C111.01 229 96.8789 243.063 96.8789 260.409C96.8789 277.756 111.01 291.819 128.441 291.819Z" fill="#7CABD4"/>
<path d="M134.545 262.471V266.211" stroke="white" stroke-width="1.5" stroke-linecap="round" stroke-linejoin="round"/>
<path d="M139.443 262.471V266.211" stroke="white" stroke-width="1.5" stroke-linecap="round" stroke-linejoin="round"/>
<path d="M132.199 268.379C132.199 268.379 136.814 273.419 141.784 268.473" stroke="white" stroke-width="1.5" stroke-linecap="round" stroke-linejoin="round"/>
<path d="M136.993 275.668C142.161 275.668 146.351 271.499 146.351 266.356C146.351 261.212 142.161 257.043 136.993 257.043C131.824 257.043 127.635 261.212 127.635 266.356C127.635 271.499 131.824 275.668 136.993 275.668Z" stroke="white" stroke-width="1.5" stroke-linecap="round" stroke-linejoin="round"/>
<path d="M126.726 272.969H114.908C114.12 272.969 113.48 272.332 113.48 271.548V246.458C113.48 245.673 114.12 245.037 114.908 245.037H133.654C134.443 245.037 135.082 245.673 135.082 246.458V254.488" stroke="white" stroke-width="1.5" stroke-linecap="round" stroke-linejoin="round"/>
<path d="M117.939 255.107L120.274 257.43L124.682 253.043" stroke="white" stroke-width="1.5" stroke-linecap="round" stroke-linejoin="round"/>
<path d="M117.939 263.224L120.274 265.547L124.682 261.16" stroke="white" stroke-width="1.5" stroke-linecap="round" stroke-linejoin="round"/>
</g>
<path d="M90.1855 519.744V535.494H88.5859V527.408H86.7051V534.721H85.123V520.043H86.7051V526.002H88.5859V519.744H90.1855ZM81.3613 523.91C81.3613 526.74 82.4336 529.307 84.7188 530.484L83.7344 531.768C82.1875 530.933 81.1504 529.465 80.5879 527.637C80.0518 529.711 79.0059 531.363 77.4062 532.312L76.3691 531.047C78.6719 529.746 79.7441 527.039 79.7441 523.91V522.891H76.791V521.537H84.1035V522.891H81.3613V523.91ZM97.2695 520.746C99.7656 520.746 101.541 522.275 101.559 524.49C101.541 526.45 100.152 527.874 98.0957 528.164V530.66C99.5811 530.59 101.093 530.467 102.508 530.256L102.631 531.469C99.0625 532.137 95.248 532.154 92.4355 532.154L92.2246 530.783C93.4639 530.783 94.9053 530.783 96.4258 530.73V528.164C94.3867 527.865 92.9629 526.441 92.9805 524.49C92.9629 522.275 94.791 520.746 97.2695 520.746ZM97.2695 522.188C95.7402 522.188 94.6152 523.084 94.6328 524.49C94.6152 525.879 95.7402 526.811 97.2695 526.793C98.7988 526.811 99.9238 525.879 99.9238 524.49C99.9238 523.084 98.7988 522.188 97.2695 522.188ZM105.162 519.744V535.529H103.492V519.744H105.162ZM120.279 520.482V521.66C120.279 522.82 120.279 524.209 119.928 526.037H122.107V527.391H115.709V530.08H120.35V535.494H118.68V531.416H109.17V530.08H114.039V527.391H107.693V526.037H118.24C118.609 524.279 118.627 522.961 118.627 521.836H109.504V520.482H120.279ZM131.564 521.08V528.48H124.076V521.08H131.564ZM125.711 522.434V527.145H129.912V522.434H125.711ZM136.311 519.762V531.047H134.641V519.762H136.311ZM136.785 533.648V535.02H126.01V529.957H127.697V533.648H136.785ZM156.262 519.762V531.293H154.592V519.762H156.262ZM156.736 533.807V535.16H145.961V530.203H147.648V533.807H156.736ZM148.932 522.188C148.914 524.49 150.391 526.6 152.816 527.443L151.955 528.779C150.136 528.103 148.791 526.767 148.088 525.053C147.394 526.881 146.031 528.349 144.186 529.061L143.289 527.742C145.768 526.828 147.227 524.561 147.227 522.188V520.623H148.932V522.188ZM171.854 519.762V531.697H170.184V530.186H167.02V529.008H170.184V519.762H171.854ZM172.24 533.807V535.16H160.867V530.537H162.52V533.807H172.24ZM158.688 526.951C161.605 526.934 165.525 526.898 168.883 526.477L168.988 527.672C167.644 527.892 166.229 528.041 164.84 528.129V531.205H163.17V528.217C161.641 528.287 160.173 528.296 158.898 528.287L158.688 526.951ZM163.838 520.359C166.141 520.359 167.74 521.467 167.74 523.137C167.74 524.807 166.141 525.879 163.838 525.879C161.5 525.879 159.918 524.807 159.918 523.137C159.918 521.467 161.5 520.359 163.838 520.359ZM163.838 521.607C162.432 521.59 161.482 522.188 161.5 523.137C161.482 524.068 162.432 524.648 163.838 524.648C165.191 524.648 166.141 524.068 166.158 523.137C166.141 522.188 165.191 521.59 163.838 521.607ZM186.707 519.762V524.438H188.957V525.809H186.707V530.361H185.037V519.762H186.707ZM174.209 528.604C175.431 528.604 176.846 528.604 178.322 528.551V527.496C176.529 527.312 175.387 526.468 175.404 525.193C175.387 523.752 176.881 522.855 179.148 522.873C181.398 522.855 182.893 523.752 182.893 525.193C182.893 526.459 181.768 527.303 179.992 527.496V528.498C181.398 528.428 182.822 528.313 184.141 528.129L184.281 529.324C180.889 529.922 177.162 529.939 174.385 529.939L174.209 528.604ZM186.707 531.1V535.494H185.037V532.4H176.178V531.1H186.707ZM183.701 521.098V522.346H174.613V521.098H178.322V519.621H179.992V521.098H183.701ZM179.148 524.016C177.795 523.998 176.986 524.438 176.986 525.193C176.986 525.932 177.795 526.406 179.148 526.406C180.484 526.406 181.293 525.932 181.293 525.193C181.293 524.438 180.484 523.998 179.148 524.016ZM202.932 519.762V531.205H201.262V519.762H202.932ZM203.406 533.807V535.16H192.631V530.045H194.318V533.807H203.406ZM194.389 520.816C196.762 520.816 198.572 522.434 198.572 524.719C198.572 527.039 196.762 528.639 194.389 528.639C192.016 528.639 190.188 527.039 190.188 524.719C190.188 522.434 192.016 520.816 194.389 520.816ZM194.389 522.275C192.912 522.275 191.822 523.277 191.822 524.719C191.822 526.195 192.912 527.18 194.389 527.18C195.83 527.18 196.938 526.195 196.938 524.719C196.938 523.277 195.83 522.275 194.389 522.275ZM219.789 527.162V528.516H205.428V527.162H219.789ZM212.6 529.729C215.992 529.729 218.031 530.783 218.031 532.611C218.031 534.439 215.992 535.477 212.6 535.459C209.189 535.477 207.133 534.439 207.133 532.611C207.133 530.783 209.189 529.729 212.6 529.729ZM212.6 531.029C210.191 531.047 208.82 531.592 208.82 532.611C208.82 533.613 210.191 534.141 212.6 534.141C214.973 534.141 216.361 533.613 216.361 532.611C216.361 531.592 214.973 531.047 212.6 531.029ZM218.506 520.518V521.889H213.725C213.909 523.418 216.142 524.719 219.051 525.018L218.453 526.336C215.729 526.02 213.47 524.868 212.617 523.207C211.738 524.868 209.488 526.02 206.764 526.336L206.184 525.018C209.04 524.719 211.29 523.427 211.492 521.889H206.746V520.518H218.506ZM228.912 520.342V522.205H236.207V520.342H237.877V526.705H233.377V528.252H239.74V529.623H225.379V528.252H231.725V526.705H227.26V520.342H228.912ZM228.912 525.352H236.207V523.506H228.912V525.352ZM238.123 533.807V535.16H227.189V530.748H228.877V533.807H238.123ZM253.996 519.762V531.205H252.326V519.762H253.996ZM254.471 533.807V535.16H243.695V530.045H245.383V533.807H254.471ZM245.453 520.816C247.826 520.816 249.637 522.434 249.637 524.719C249.637 527.039 247.826 528.639 245.453 528.639C243.08 528.639 241.252 527.039 241.252 524.719C241.252 522.434 243.08 520.816 245.453 520.816ZM245.453 522.275C243.977 522.275 242.887 523.277 242.887 524.719C242.887 526.195 243.977 527.18 245.453 527.18C246.895 527.18 248.002 526.195 248.002 524.719C248.002 523.277 246.895 522.275 245.453 522.275ZM273.947 519.762V531.205H272.277V519.762H273.947ZM274.422 533.807V535.16H263.646V530.045H265.334V533.807H274.422ZM265.404 520.816C267.777 520.816 269.588 522.434 269.588 524.719C269.588 527.039 267.777 528.639 265.404 528.639C263.031 528.639 261.203 527.039 261.203 524.719C261.203 522.434 263.031 520.816 265.404 520.816ZM265.404 522.275C263.928 522.275 262.838 523.277 262.838 524.719C262.838 526.195 263.928 527.18 265.404 527.18C266.846 527.18 267.953 526.195 267.953 524.719C267.953 523.277 266.846 522.275 265.404 522.275ZM290.805 527.162V528.516H276.443V527.162H290.805ZM283.615 529.729C287.008 529.729 289.047 530.783 289.047 532.611C289.047 534.439 287.008 535.477 283.615 535.459C280.205 535.477 278.148 534.439 278.148 532.611C278.148 530.783 280.205 529.729 283.615 529.729ZM283.615 531.029C281.207 531.047 279.836 531.592 279.836 532.611C279.836 533.613 281.207 534.141 283.615 534.141C285.988 534.141 287.377 533.613 287.377 532.611C287.377 531.592 285.988 531.047 283.615 531.029ZM289.521 520.518V521.889H284.74C284.925 523.418 287.157 524.719 290.066 525.018L289.469 526.336C286.744 526.02 284.485 524.868 283.633 523.207C282.754 524.868 280.504 526.02 277.779 526.336L277.199 525.018C280.056 524.719 282.306 523.427 282.508 521.889H277.762V520.518H289.521Z" fill="#111827"/>
<circle cx="313" cy="527.5" r="10" stroke="#9CA3AF" stroke-width="2"/>
<defs>
<linearGradient id="paint0_linear_904_6994" x1="137.25" y1="371.217" x2="251.463" y2="256.447" gradientUnits="userSpaceOnUse">
<stop stop-color="#E9EFF9"/>
<stop offset="1" stop-color="white"/>
</linearGradient>
<clipPath id="clip0_904_6994">
<rect width="226" height="166" fill="white" transform="translate(87 229)"/>
</clipPath>
</defs>
</svg>
