<svg width="400" height="292" viewBox="0 0 400 292" fill="none" xmlns="http://www.w3.org/2000/svg">
<rect x="20" y="0.5" width="360" height="291" rx="2" fill="white"/>
<mask id="mask0_937_378" style="mask-type:alpha" maskUnits="userSpaceOnUse" x="188" y="20" width="24" height="25">
<rect x="188" y="20.5" width="24" height="24" fill="#D9D9D9"/>
</mask>
<g mask="url(#mask0_937_378)">
<path d="M197.077 34.3463H206.423L203.319 30.2693L200.942 33.3077L199.373 31.3655L197.077 34.3463ZM196.058 38C195.553 38 195.125 37.825 194.775 37.475C194.425 37.125 194.25 36.6974 194.25 36.1923V24.8077C194.25 24.3026 194.425 23.875 194.775 23.525C195.125 23.175 195.553 23 196.058 23H207.442C207.947 23 208.375 23.175 208.725 23.525C209.075 23.875 209.25 24.3026 209.25 24.8077V36.1923C209.25 36.6974 209.075 37.125 208.725 37.475C208.375 37.825 207.947 38 207.442 38H196.058ZM196.058 36.5H207.442C207.519 36.5 207.59 36.4679 207.654 36.4038C207.718 36.3398 207.75 36.2692 207.75 36.1923V24.8077C207.75 24.7307 207.718 24.6602 207.654 24.5962C207.59 24.5321 207.519 24.5 207.442 24.5H196.058C195.981 24.5 195.91 24.5321 195.846 24.5962C195.782 24.6602 195.75 24.7307 195.75 24.8077V36.1923C195.75 36.2692 195.782 36.3398 195.846 36.4038C195.91 36.4679 195.981 36.5 196.058 36.5ZM192.558 41.5C192.053 41.5 191.625 41.325 191.275 40.975C190.925 40.625 190.75 40.1974 190.75 39.6923V26.8077H192.25V39.6923C192.25 39.7693 192.282 39.8398 192.346 39.9038C192.41 39.9679 192.481 40 192.558 40H205.442V41.5H192.558ZM196.058 24.5H207.442C207.519 24.5 207.59 24.5321 207.654 24.5962C207.718 24.6602 207.75 24.7307 207.75 24.8077V36.1923C207.75 36.2692 207.718 36.3398 207.654 36.4038C207.59 36.4679 207.519 36.5 207.442 36.5H196.058C195.981 36.5 195.91 36.4679 195.846 36.4038C195.782 36.3398 195.75 36.2692 195.75 36.1923V24.8077C195.75 24.7307 195.782 24.6602 195.846 24.5962C195.91 24.5321 195.981 24.5 196.058 24.5Z" fill="#02837B"/>
</g>
<path d="M92.5107 81.0938V83.0488H74.7646V81.0938H82.413V76.8613H76.7197V67.4941H90.4697V76.8613H84.7763V81.0938H92.5107ZM79.0614 74.9922H88.1064V69.4062H79.0614V74.9922ZM108.549 65.9902V73.3809H111.536V75.4004H108.549V85.4121H106.164V65.9902H108.549ZM94.0257 80.8574V67.5801H96.389V72.4355H100.965V67.5801H103.35V80.8574H94.0257ZM96.389 78.9023H100.965V74.3047H96.389V78.9023ZM117.412 66.6133C120.355 66.624 122.547 68.4395 122.568 70.9961C122.547 73.5635 120.355 75.3682 117.412 75.3789C114.447 75.3682 112.256 73.5635 112.256 70.9961C112.256 68.4395 114.447 66.624 117.412 66.6133ZM114.576 70.9961C114.576 72.5 115.779 73.4453 117.412 73.4453C119.045 73.4453 120.237 72.5 120.248 70.9961C120.237 69.5244 119.045 68.5791 117.412 68.5898C115.779 68.5791 114.576 69.5244 114.576 70.9961ZM115.199 78.5156V76.6465H128.09V81.7168H117.584V83.2852H128.67V85.1758H115.242V79.9551H125.705V78.5156H115.199ZM125.683 75.8086V65.9902H128.09V75.8086H125.683ZM151.53 66.0117V80.2559H149.145V73.7246H145.407V71.748H149.145V66.0117H151.53ZM135.524 76.3027C139.703 74.9814 142.464 72.5 142.925 69.4277H136.534V67.4727H145.536C145.536 72.5967 142.152 76.4209 136.534 78.2148L135.524 76.3027ZM138.876 85.0254V78.8164H141.303V83.0918H152.024V85.0254H138.876ZM169.158 65.9902V70.7168H171.865V72.6719H169.158V77.377H166.774V65.9902H169.158ZM153.776 75.7441C158.169 74.541 160.79 72.167 161.198 69.2559H154.656V67.3223H163.787C163.798 72.4248 160.468 76.0557 154.721 77.6777L153.776 75.7441ZM156.397 81.502C156.375 79.1064 158.975 77.6133 162.885 77.6133C166.827 77.6133 169.373 79.1064 169.373 81.502C169.373 83.9189 166.827 85.4014 162.885 85.3906C158.975 85.4014 156.375 83.9189 156.397 81.502ZM158.76 81.502C158.749 82.7695 160.318 83.5215 162.885 83.5215C165.442 83.5215 167.021 82.7695 167.031 81.502C167.021 80.2236 165.442 79.4824 162.885 79.4824C160.318 79.4824 158.749 80.2236 158.76 81.502ZM190.16 81.1152V83.0703H172.414V81.1152H180.062V77.334H174.369V67.2793H176.753V70.459H185.755V67.2793H188.14V77.334H182.425V81.1152H190.16ZM176.753 75.4004H185.755V72.3711H176.753V75.4004ZM207.251 65.9902V77.7422H204.866V73.7246H202.095V71.748H204.866V65.9902H207.251ZM191.03 69.7285V67.7949H195.542V65.8398H197.905V67.7949H202.417V69.7285H191.03ZM192.126 73.9609C192.115 71.9199 194.038 70.4805 196.724 70.4805C199.431 70.4805 201.332 71.9199 201.343 73.9609C201.332 76.0557 199.431 77.4414 196.724 77.4414C194.038 77.4414 192.115 76.0557 192.126 73.9609ZM194.339 85.1758V78.623H207.251V85.1758H194.339ZM194.403 73.9609C194.403 75.0352 195.327 75.6582 196.724 75.6582C198.109 75.6582 199.044 75.0352 199.044 73.9609C199.044 72.9189 198.109 72.2852 196.724 72.2852C195.327 72.2852 194.403 72.9189 194.403 73.9609ZM196.724 83.2422H204.909V80.5137H196.724V83.2422ZM227.264 75.0352V76.9688H209.561V75.0352H227.264ZM210.42 72.2852C214.019 71.9307 216.361 70.4912 216.726 68.8691H211.172V66.9141H225.674V68.8691H220.067C220.421 70.4697 222.742 71.9307 226.426 72.2852L225.588 74.1758C222.054 73.8105 219.444 72.4033 218.391 70.4375C217.338 72.4033 214.76 73.8105 211.237 74.1758L210.42 72.2852ZM211.623 81.8242C211.623 79.5684 214.169 78.2578 218.391 78.2578C222.581 78.2578 225.105 79.5684 225.116 81.8242C225.105 84.1123 222.581 85.3906 218.391 85.3906C214.169 85.3906 211.623 84.1123 211.623 81.8242ZM214.051 81.8242C214.04 82.9521 215.566 83.5107 218.391 83.5215C221.173 83.5107 222.709 82.9521 222.731 81.8242C222.709 80.6963 221.173 80.127 218.391 80.127C215.566 80.127 214.04 80.6963 214.051 81.8242ZM244.635 66.1406V85.2402H243.002V66.1406H244.635ZM228.5 74.3906C228.511 70.3301 230.122 67.7627 232.603 67.752C234.924 67.7627 236.492 69.9971 236.707 73.5957H239.178V66.5488H240.789V84.2734H239.178V74.9922H236.718C236.557 78.709 234.956 81.04 232.603 81.0293C230.122 81.04 228.511 78.4512 228.5 74.3906ZM230.09 74.3906C230.068 77.4844 231.057 79.4395 232.603 79.418C234.161 79.4395 235.149 77.4844 235.139 74.3906C235.149 71.2861 234.161 69.3418 232.603 69.3418C231.057 69.3418 230.068 71.2861 230.09 74.3906ZM253.562 71.2754C253.551 74.7344 255.775 78.2148 258.546 79.4824L257.536 80.8574C255.367 79.7402 253.573 77.4629 252.724 74.7451C251.875 77.6025 250.081 80.0518 247.911 81.2012L246.816 79.8477C249.619 78.4727 251.832 74.7988 251.843 71.2754V67.7949H253.562V71.2754ZM256.462 74.0469V72.6719H260.995V66.1406H262.671V85.2832H260.995V74.0469H256.462ZM286.283 66.1406V85.2402H284.586V66.1406H286.283ZM270.729 80.2773C275.896 77.8281 278.538 74.165 278.914 69.5996H271.61V68.2246H280.633C280.612 73.7139 278.055 78.5801 271.653 81.6523L270.729 80.2773ZM304.857 66.1406V85.2402H303.16V66.1406H304.857ZM289.302 80.2773C294.469 77.8281 297.112 74.165 297.488 69.5996H290.183V68.2246H299.207C299.185 73.7139 296.629 78.5801 290.226 81.6523L289.302 80.2773ZM313.892 67.5371C316.889 67.5479 319.016 69.374 319.026 72.0273C319.016 74.6914 316.889 76.5068 313.892 76.5176C310.873 76.5068 308.725 74.6914 308.735 72.0273C308.725 69.374 310.873 67.5479 313.892 67.5371ZM307.747 79.6328C311.271 79.6436 316.137 79.6113 320.358 78.9883L320.487 80.2344C316.115 81.0508 311.421 81.0723 307.983 81.0723L307.747 79.6328ZM310.39 72.0273C310.379 73.8105 311.851 75.0352 313.892 75.0352C315.911 75.0352 317.383 73.8105 317.372 72.0273C317.383 70.2549 315.911 69.0195 313.892 69.0195C311.851 69.0195 310.379 70.2549 310.39 72.0273ZM321.626 85.2832V66.1406H323.302V85.2832H321.626ZM81.1454 102.275C81.1454 105.638 83.3691 109.107 86.0868 110.439L85.0556 111.793C82.9501 110.697 81.1884 108.431 80.3398 105.777C79.4911 108.592 77.6864 111.009 75.538 112.158L74.4638 110.805C77.2568 109.43 79.4697 105.767 79.4911 102.275V98.7949H81.1454V102.275ZM87.8486 116.24V97.1406H89.5243V104.896H92.7255V106.357H89.5243V116.24H87.8486ZM100.192 101.244C100.202 103.822 102.233 106.143 105.09 107.045L104.231 108.398C102.007 107.636 100.245 106.067 99.3754 104.059C98.5482 106.229 96.7543 107.947 94.4769 108.785L93.5961 107.432C96.4642 106.433 98.4837 103.951 98.4945 101.244V100.127H94.0257V98.752H104.596V100.127H100.192V101.244ZM96.7543 115.832V109.838H98.43V114.414H109.688V115.832H96.7543ZM107.411 111.17V97.1621H109.086V111.17H107.411ZM122.482 99.2676V100.256C122.471 101.771 122.471 104.295 121.924 107.84L120.226 107.689C120.753 104.488 120.796 102.168 120.785 100.643H112.771V99.2676H122.482ZM111.697 110.633C112.954 110.622 114.35 110.611 115.822 110.579V104.725H117.476V110.525C119.593 110.45 121.762 110.311 123.75 110.074L123.836 111.342C119.818 111.965 115.328 112.051 111.912 112.029L111.697 110.633ZM124.953 116.24V97.1406H126.629V105.133H129.722V106.594H126.629V116.24H124.953ZM152.969 106.594V107.947H135.546V106.594H143.43V104.359H137.758V98.043H150.799V99.3965H139.413V102.984H150.928V104.359H145.063V106.594H152.969ZM137.651 112.781C137.64 110.601 140.122 109.354 144.247 109.344C148.34 109.354 150.799 110.601 150.821 112.781C150.799 114.983 148.34 116.219 144.247 116.24C140.122 116.219 137.64 114.983 137.651 112.781ZM139.37 112.781C139.348 114.124 141.185 114.897 144.247 114.887C147.276 114.897 149.113 114.124 149.124 112.781C149.113 111.46 147.276 110.676 144.247 110.676C141.185 110.676 139.348 111.46 139.37 112.781ZM159.383 98.3008C160.994 98.29 162.359 98.9023 163.25 99.9121H168.256V97.1406H169.953V108.463H168.256V105.734H163.25C162.369 106.744 160.994 107.356 159.383 107.346C156.526 107.356 154.409 105.487 154.42 102.834C154.409 100.159 156.526 98.29 159.383 98.3008ZM156.031 102.834C156.031 104.606 157.428 105.917 159.383 105.906C161.274 105.917 162.692 104.606 162.692 102.834C162.692 101.019 161.274 99.751 159.383 99.7617C157.428 99.751 156.031 101.019 156.031 102.834ZM157.213 112.545C157.202 110.246 159.651 108.914 163.615 108.914C167.568 108.914 170.018 110.246 170.018 112.545C170.018 114.865 167.568 116.197 163.615 116.197C159.651 116.197 157.202 114.865 157.213 112.545ZM158.867 112.545C158.857 113.984 160.683 114.854 163.615 114.844C166.548 114.854 168.374 113.984 168.363 112.545C168.374 111.095 166.548 110.235 163.615 110.225C160.683 110.235 158.857 111.095 158.867 112.545ZM164.056 101.287C164.228 101.76 164.324 102.275 164.324 102.834C164.324 103.371 164.228 103.876 164.067 104.338H168.256V101.287H164.056ZM179.074 100.234C179.074 102.834 181.05 105.219 183.822 106.164L182.898 107.496C180.793 106.723 179.128 105.144 178.29 103.146C177.473 105.412 175.765 107.163 173.531 108.033L172.628 106.68C175.486 105.616 177.409 103.06 177.419 100.105V98.1289H179.074V100.234ZM175.164 112.717C175.174 110.536 177.57 109.258 181.502 109.258C185.422 109.258 187.796 110.536 187.796 112.717C187.796 114.94 185.422 116.197 181.502 116.197C177.57 116.197 175.174 114.94 175.164 112.717ZM176.861 112.717C176.839 114.07 178.623 114.854 181.502 114.865C184.391 114.854 186.153 114.07 186.164 112.717C186.153 111.417 184.391 110.611 181.502 110.611C178.623 110.611 176.839 111.417 176.861 112.717ZM185.949 108.764V97.1406H187.625V102.125H190.503V103.543H187.625V108.764H185.949ZM207.638 97.1406V116.24H206.005V97.1406H207.638ZM191.503 105.391C191.514 101.33 193.125 98.7627 195.606 98.752C197.927 98.7627 199.495 100.997 199.71 104.596H202.181V97.5488H203.792V115.273H202.181V105.992H199.721C199.56 109.709 197.959 112.04 195.606 112.029C193.125 112.04 191.514 109.451 191.503 105.391ZM193.093 105.391C193.071 108.484 194.06 110.439 195.606 110.418C197.164 110.439 198.152 108.484 198.142 105.391C198.152 102.286 197.164 100.342 195.606 100.342C194.06 100.342 193.071 102.286 193.093 105.391ZM219.498 98.3438C222.022 98.3545 223.87 100.202 223.881 102.855C223.87 105.52 222.022 107.324 219.498 107.324C216.941 107.324 215.126 105.52 215.137 102.855C215.126 100.202 216.941 98.3545 219.498 98.3438ZM216.662 102.855C216.641 104.628 217.854 105.917 219.498 105.906C221.12 105.917 222.323 104.628 222.334 102.855C222.323 101.083 221.12 99.8047 219.498 99.8047C217.854 99.8047 216.641 101.083 216.662 102.855ZM218.273 110.955V109.602H231.142V116.24H229.488V110.955H218.273ZM225.406 108.398V97.5273H226.996V102.082H229.531V97.1621H231.142V108.527H229.531V103.479H226.996V108.398H225.406ZM239.167 102.576C239.167 105.616 240.65 108.893 243.185 110.396L242.218 111.707C240.37 110.59 239.049 108.549 238.383 106.218C237.685 108.764 236.267 110.955 234.355 112.115L233.281 110.848C235.923 109.301 237.535 105.917 237.535 102.641V98.9453H239.167V102.576ZM241.079 105.434V103.994H244.324V97.5488H245.913V115.273H244.324V105.434H241.079ZM248.234 116.24V97.1406H249.867V116.24H248.234ZM261.587 99.9551C261.597 103.231 265.336 106.143 268.655 106.766L267.882 108.184C264.992 107.518 261.963 105.466 260.727 102.662C259.481 105.466 256.463 107.507 253.573 108.184L252.8 106.766C256.108 106.132 259.814 103.242 259.825 99.9551V98.4941H261.587V99.9551ZM252.069 113.641V112.244H269.557V113.641H252.069ZM285.424 97.1406V105.025H288.625V106.422H285.424V116.24H283.748V97.1406H285.424ZM270.535 101.609V100.213H275.455V97.377H277.131V100.213H281.901V101.609H270.535ZM271.631 107.582C271.62 105.004 273.597 103.199 276.315 103.199C279.011 103.199 280.977 105.004 280.998 107.582C280.977 110.171 279.011 111.965 276.315 111.965C273.597 111.965 271.62 110.171 271.631 107.582ZM273.242 107.582C273.232 109.322 274.531 110.547 276.315 110.525C278.076 110.547 279.365 109.322 279.387 107.582C279.365 105.853 278.076 104.606 276.315 104.617C274.531 104.606 273.232 105.853 273.242 107.582ZM304.642 106.1V107.475H298.734V112.416H306.705V113.834H289.216V112.416H297.08V107.475H291.451V98.709H304.449V100.084H293.148V106.1H304.642ZM325.257 107.668V109.064H307.769V107.668H315.675V105.648H310.046V100.986H321.304V99.0098H309.982V97.6348H323.001V102.254H311.722V104.295H323.409V105.648H317.329V107.668H325.257ZM309.724 111.9V110.525H323.108V116.068H321.411V111.9H309.724ZM132.57 131.213V132.609H121.204V131.213H126.038V128.377H127.714V131.213H132.57ZM122.386 138.582C122.386 136.015 124.287 134.199 126.898 134.199C129.487 134.199 131.366 136.015 131.388 138.582C131.366 141.128 129.487 142.965 126.898 142.965C124.287 142.965 122.386 141.128 122.386 138.582ZM123.976 138.582C123.954 140.301 125.222 141.515 126.898 141.504C128.573 141.515 129.83 140.301 129.841 138.582C129.83 136.885 128.573 135.649 126.898 135.639C125.222 135.649 123.954 136.885 123.976 138.582ZM132.161 137.594V136.176H135.363V128.141H137.038V147.24H135.363V137.594H132.161ZM157.18 137.594V138.99H139.778V137.594H144.096V134.897C142.571 134.307 141.712 133.34 141.712 132.051C141.712 129.806 144.29 128.517 148.479 128.506C152.636 128.517 155.215 129.806 155.225 132.051C155.215 133.329 154.366 134.296 152.862 134.897V137.594H157.18ZM141.883 143.824C141.873 141.644 144.333 140.44 148.479 140.451C152.572 140.44 155.032 141.644 155.053 143.824C155.032 146.005 152.572 147.197 148.479 147.197C144.333 147.197 141.873 146.005 141.883 143.824ZM143.452 132.051C143.441 133.447 145.353 134.253 148.479 134.264C151.573 134.253 153.496 133.447 153.507 132.051C153.496 130.676 151.573 129.838 148.479 129.838C145.353 129.838 143.441 130.676 143.452 132.051ZM143.602 143.824C143.581 145.124 145.418 145.897 148.479 145.887C151.508 145.897 153.345 145.124 153.356 143.824C153.345 142.524 151.508 141.762 148.479 141.74C145.418 141.762 143.581 142.524 143.602 143.824ZM145.772 137.594H151.186V135.349C150.381 135.499 149.478 135.574 148.479 135.574C147.48 135.574 146.578 135.499 145.772 135.359V137.594ZM173.133 128.141V136.025H176.334V137.422H173.133V147.24H171.457V128.141H173.133ZM158.244 132.609V131.213H163.164V128.377H164.84V131.213H169.609V132.609H158.244ZM159.34 138.582C159.329 136.004 161.306 134.199 164.024 134.199C166.72 134.199 168.686 136.004 168.707 138.582C168.686 141.171 166.72 142.965 164.024 142.965C161.306 142.965 159.329 141.171 159.34 138.582ZM160.951 138.582C160.941 140.322 162.24 141.547 164.024 141.525C165.785 141.547 167.074 140.322 167.096 138.582C167.074 136.853 165.785 135.606 164.024 135.617C162.24 135.606 160.941 136.853 160.951 138.582ZM183.714 133.275C183.704 136.767 186.078 140.269 188.892 141.547L187.861 142.879C185.68 141.826 183.8 139.56 182.887 136.842C182.006 139.721 180.127 142.138 177.892 143.266L176.818 141.848C179.665 140.548 182.017 136.896 182.039 133.275V129.795H183.714V133.275ZM190.976 147.283V128.141H192.673V147.283H190.976ZM203.964 129.559C203.964 131.03 203.695 132.373 203.169 133.598H206.263V128.57H207.874V138.904H206.263V134.994H202.417C201.171 136.906 199.205 138.442 196.573 139.57L195.692 138.324C199.613 136.724 201.88 134.188 202.224 130.955H196.509V129.559H203.964ZM196.638 145.93C199.044 145.06 200.548 142.976 200.548 141.139V139.85H202.159V141.139C202.138 142.857 203.051 144.641 204.855 145.683C206.692 144.533 207.627 142.589 207.638 141.139V139.85H209.271V141.139C209.271 143.115 210.721 145.124 213.181 145.93L212.343 147.176C210.431 146.499 209.088 145.156 208.433 143.545C207.853 145.103 206.692 146.585 204.909 147.348C203.04 146.617 201.88 145.188 201.321 143.577C200.634 145.135 199.312 146.478 197.497 147.176L196.638 145.93ZM210.108 139.205V128.162H211.72V139.205H210.108ZM217.961 139.613V141.848H227.5V139.613H229.198V146.982H216.286V139.613H217.961ZM214.073 138.26V136.863H231.475V138.26H214.073ZM215.061 134.156C218.466 133.694 221.914 131.686 221.914 129.258V128.355H223.655V129.258C223.644 131.61 227.124 133.727 230.487 134.156L229.864 135.51C226.91 135.069 223.998 133.565 222.785 131.428C221.571 133.576 218.649 135.069 215.706 135.51L215.061 134.156ZM217.961 145.629H227.5V143.18H217.961V145.629ZM248.394 128.141V147.24H246.719V128.141H248.394ZM233.892 142.32V130.031H235.547V140.859C238.469 140.838 241.476 140.612 244.678 139.936L244.914 141.375C241.519 142.084 238.501 142.32 235.439 142.32H233.892ZM266.345 128.141V136.025H269.245V137.443H266.345V147.24H264.648V128.141H266.345ZM251.156 141.955C254.034 139.001 255.205 135.445 255.42 131.643H251.757V130.225H257.021C256.999 134.769 255.979 139.259 252.509 142.922L251.156 141.955ZM256.634 143.244C259.62 139.871 260.512 135.628 260.673 131.643H257.622V130.225H262.263C262.252 134.758 261.586 140.032 258.009 144.189L256.634 143.244ZM272.844 141.01C272.866 138.131 273.747 137.25 275.229 136.348C276.121 135.811 276.798 134.951 276.798 133.748C276.798 132.287 275.659 131.353 274.241 131.363C273.016 131.353 271.781 132.083 271.663 133.855H269.708C269.815 131.245 271.781 129.73 274.241 129.73C276.937 129.73 278.688 131.46 278.688 133.834C278.688 135.521 277.893 136.691 276.561 137.508C275.219 138.324 274.735 139.151 274.692 141.01V141.117H272.844V141.01ZM272.458 144.232C272.436 143.48 273.081 142.857 273.833 142.857C274.595 142.857 275.219 143.48 275.208 144.232C275.219 144.995 274.595 145.618 273.833 145.629C273.081 145.618 272.436 144.995 272.458 144.232Z" fill="#111827"/>
<mask id="path-5-inside-1_937_378" fill="white">
<path d="M20 179.5H380V235.5H20V179.5Z"/>
</mask>
<path d="M20 180.5H380V178.5H20V180.5Z" fill="#DDDDDD" mask="url(#path-5-inside-1_937_378)"/>
<path d="M194.828 203.109V204.125H186.562V203.109H190.078V201.047H191.297V203.109H194.828ZM187.422 208.469C187.422 206.602 188.805 205.281 190.703 205.281C192.586 205.281 193.953 206.602 193.969 208.469C193.953 210.32 192.586 211.656 190.703 211.656C188.805 211.656 187.422 210.32 187.422 208.469ZM188.578 208.469C188.562 209.719 189.484 210.602 190.703 210.594C191.922 210.602 192.836 209.719 192.844 208.469C192.836 207.234 191.922 206.336 190.703 206.328C189.484 206.336 188.562 207.234 188.578 208.469ZM194.531 207.75V206.719H196.859V200.875H198.078V214.766H196.859V207.75H194.531ZM212.727 207.75V208.766H200.071V207.75H203.211V205.789C202.102 205.359 201.477 204.656 201.477 203.719C201.477 202.086 203.352 201.148 206.399 201.141C209.422 201.148 211.297 202.086 211.305 203.719C211.297 204.648 210.68 205.352 209.586 205.789V207.75H212.727ZM201.602 212.281C201.594 210.695 203.383 209.82 206.399 209.828C209.375 209.82 211.164 210.695 211.18 212.281C211.164 213.867 209.375 214.734 206.399 214.734C203.383 214.734 201.594 213.867 201.602 212.281ZM202.743 203.719C202.735 204.734 204.125 205.32 206.399 205.328C208.649 205.32 210.047 204.734 210.055 203.719C210.047 202.719 208.649 202.109 206.399 202.109C204.125 202.109 202.735 202.719 202.743 203.719ZM202.852 212.281C202.836 213.227 204.172 213.789 206.399 213.781C208.602 213.789 209.938 213.227 209.946 212.281C209.938 211.336 208.602 210.781 206.399 210.766C204.172 210.781 202.836 211.336 202.852 212.281ZM204.43 207.75H208.368V206.117C207.782 206.227 207.125 206.281 206.399 206.281C205.672 206.281 205.016 206.227 204.43 206.125V207.75Z" fill="#02837B"/>
<mask id="path-8-inside-2_937_378" fill="white">
<path d="M20 235.5H380V291.5H20V235.5Z"/>
</mask>
<path d="M20 236.5H380V234.5H20V236.5Z" fill="#DDDDDD" mask="url(#path-8-inside-2_937_378)"/>
<path d="M198.062 256.875V270.766H196.844V263.484H193.531V262.469H196.844V256.875H198.062ZM186.578 267.141C190.336 265.32 192.078 262.641 192.328 259.391H187.188V258.391H193.562C193.555 262.328 191.891 265.82 187.25 268.125L186.578 267.141ZM212.774 265.125V266.125H206.977V270.766H205.774V266.125H200.055V265.125H212.774ZM201.68 263.438V257.453H202.899V259.375H209.899V257.453H211.133V263.438H201.68ZM202.899 262.438H209.899V260.375H202.899V262.438Z" fill="#02837B"/>
</svg>
