<svg width="400" height="292" viewBox="0 0 400 292" fill="none" xmlns="http://www.w3.org/2000/svg">
<rect width="400" height="292" fill="white"/>
<mask id="path-1-inside-1_909_4095" fill="white">
<path d="M0 0H133.333V73H0V0Z"/>
</mask>
<path d="M0 0V-1H-1V0H0ZM133.333 0H134.333V-1H133.333V0ZM133.333 73V74H134.333V73H133.333ZM0 73H-1V74H0V73ZM0 1H133.333V-1H0V1ZM132.333 0V73H134.333V0H132.333ZM133.333 72H0V74H133.333V72ZM1 73V0H-1V73H1Z" fill="#E6E6E6" mask="url(#path-1-inside-1_909_4095)"/>
<path d="M60.8805 47L70.3434 28.7188V28.543H59.4157V25.7891H73.6833V28.6602L64.2497 47H60.8805Z" fill="#334569"/>
<mask id="path-4-inside-2_909_4095" fill="white">
<path d="M133.334 0H266.667V73H133.334V0Z"/>
</mask>
<path d="M266.667 0H267.667V-1H266.667V0ZM266.667 73V74H267.667V73H266.667ZM133.334 1H266.667V-1H133.334V1ZM265.667 0V73H267.667V0H265.667ZM266.667 72H133.334V74H266.667V72Z" fill="#E6E6E6" mask="url(#path-4-inside-2_909_4095)"/>
<path d="M199.986 47.293C195.972 47.293 192.955 44.832 192.808 41.4629H195.943C196.119 43.2793 197.847 44.5977 199.986 44.5977C202.564 44.5977 204.41 42.7227 204.41 40.2031C204.41 37.625 202.506 35.75 199.84 35.7207C198.14 35.7207 196.851 36.2773 196.119 37.5957H193.072L194.449 25.7891H206.461V28.543H197.115L196.412 34.4902H196.617C197.496 33.6406 198.99 33.0547 200.601 33.0547C204.586 33.0547 207.545 36.0137 207.545 40.1152C207.545 44.3047 204.41 47.293 199.986 47.293Z" fill="#334569"/>
<mask id="path-7-inside-3_909_4095" fill="white">
<path d="M266.666 0H399.999V73H266.666V0Z"/>
</mask>
<path d="M399.999 0H400.999V-1H399.999V0ZM399.999 73V74H400.999V73H399.999ZM266.666 1H399.999V-1H266.666V1ZM398.999 0V73H400.999V0H398.999ZM399.999 72H266.666V74H399.999V72Z" fill="#E6E6E6" mask="url(#path-7-inside-3_909_4095)"/>
<path d="M333.347 47.293C328.748 47.293 325.525 44.8027 325.554 41.3457C325.525 38.6211 327.488 36.3945 329.978 36.0137V35.8965C327.81 35.3984 326.345 33.4648 326.345 31.1504C326.345 27.8984 329.304 25.4961 333.347 25.4961C337.361 25.4961 340.291 27.8984 340.32 31.1504C340.291 33.4648 338.826 35.3984 336.687 35.8965V36.0137C339.148 36.3945 341.111 38.6211 341.14 41.3457C341.111 44.8027 337.888 47.293 333.347 47.293ZM333.347 44.627C336.101 44.627 337.859 43.1914 337.859 41.1113C337.859 38.9141 335.955 37.332 333.347 37.332C330.711 37.332 328.777 38.9141 328.836 41.1113C328.777 43.1914 330.535 44.627 333.347 44.627ZM333.347 34.7832C335.574 34.7832 337.156 33.4355 337.156 31.4434C337.156 29.4805 335.603 28.1328 333.347 28.1328C331.004 28.1328 329.48 29.4512 329.48 31.4434C329.48 33.4355 331.091 34.7832 333.347 34.7832Z" fill="#334569"/>
<mask id="path-10-inside-4_909_4095" fill="white">
<path d="M0 73H133.333V146H0V73Z"/>
</mask>
<path d="M133.333 146V147H134.333V146H133.333ZM0 146H-1V147H0V146ZM132.333 73V146H134.333V73H132.333ZM133.333 145H0V147H133.333V145ZM1 146V73H-1V146H1Z" fill="#E6E6E6" mask="url(#path-10-inside-4_909_4095)"/>
<path d="M66.6667 120.293C61.7448 120.293 58.8737 116.338 58.8737 109.395C58.8737 102.51 61.8034 98.4961 66.6667 98.4961C71.53 98.4961 74.4596 102.51 74.4596 109.395C74.4596 116.338 71.5592 120.293 66.6667 120.293ZM66.6667 117.51C69.5378 117.51 71.237 114.697 71.237 109.395C71.237 104.121 69.5085 101.221 66.6667 101.221C63.8249 101.221 62.0964 104.121 62.0964 109.395C62.0964 114.697 63.7956 117.51 66.6667 117.51Z" fill="#334569"/>
<mask id="path-13-inside-5_909_4095" fill="white">
<path d="M133.334 73H266.667V146H133.334V73Z"/>
</mask>
<path d="M266.667 146V147H267.667V146H266.667ZM265.667 73V146H267.667V73H265.667ZM266.667 145H133.334V147H266.667V145Z" fill="#E6E6E6" mask="url(#path-13-inside-5_909_4095)"/>
<path d="M191.885 115.869V113.262L201.26 98.7891H205.245V113.145H208.145V115.869H205.245V120H202.198V115.869H191.885ZM195.284 113.145H202.198V102.627H201.964L195.284 112.969V113.145Z" fill="#334569"/>
<mask id="path-16-inside-6_909_4095" fill="white">
<path d="M266.666 73H399.999V146H266.666V73Z"/>
</mask>
<path d="M399.999 146V147H400.999V146H399.999ZM398.999 73V146H400.999V73H398.999ZM399.999 145H266.666V147H399.999V145Z" fill="#E6E6E6" mask="url(#path-16-inside-6_909_4095)"/>
<path d="M333.157 98.4961C337.053 98.5254 341.155 100.869 341.155 108.633C341.155 116.074 337.962 120.293 332.864 120.293C328.967 120.293 326.214 117.891 325.715 114.434H328.909C329.348 116.221 330.725 117.48 332.864 117.48C336.145 117.48 338.049 114.609 338.079 109.775H337.815C336.673 111.562 334.68 112.646 332.395 112.646C328.587 112.646 325.54 109.746 325.54 105.674C325.54 101.631 328.557 98.4668 333.157 98.4961ZM333.157 101.191C330.579 101.191 328.674 103.184 328.674 105.615C328.674 108.076 330.52 110.01 333.098 110.01C335.647 110.01 337.639 107.93 337.639 105.586C337.639 103.301 335.764 101.191 333.157 101.191Z" fill="#334569"/>
<mask id="path-19-inside-7_909_4095" fill="white">
<path d="M0 146H133.333V219H0V146Z"/>
</mask>
<path d="M133.333 219V220H134.333V219H133.333ZM0 219H-1V220H0V219ZM132.333 146V219H134.333V146H132.333ZM133.333 218H0V220H133.333V218ZM1 219V146H-1V219H1Z" fill="#E6E6E6" mask="url(#path-19-inside-7_909_4095)"/>
<path d="M66.8717 193.293C62.946 193.264 58.8444 190.949 58.8444 183.098C58.8444 175.715 62.0378 171.496 67.1354 171.496C71.0319 171.496 73.7565 173.928 74.2546 177.297H71.0612C70.651 175.568 69.2741 174.309 67.1354 174.309C63.8542 174.309 61.9499 177.18 61.9499 181.955H62.1842C63.3268 180.168 65.319 179.084 67.6335 179.084C71.4128 179.084 74.4596 181.984 74.4596 186.057C74.4596 190.158 71.4421 193.322 66.8717 193.293ZM66.8425 190.598C69.4206 190.598 71.3249 188.605 71.3249 186.115C71.3249 183.684 69.4792 181.721 66.9303 181.721C64.3229 181.721 62.36 183.771 62.3307 186.145C62.36 188.488 64.235 190.598 66.8425 190.598Z" fill="#334569"/>
<mask id="path-22-inside-8_909_4095" fill="white">
<path d="M133.334 146H266.667V219H133.334V146Z"/>
</mask>
<path d="M266.667 219V220H267.667V219H266.667ZM265.667 146V219H267.667V146H265.667ZM266.667 218H133.334V220H266.667V218Z" fill="#E6E6E6" mask="url(#path-22-inside-8_909_4095)"/>
<path d="M200.045 193.293C195.65 193.293 192.515 190.92 192.398 187.463H195.679C195.797 189.338 197.642 190.51 200.015 190.51C202.564 190.51 204.439 189.104 204.439 187.053C204.439 184.973 202.681 183.449 199.664 183.449H197.847V180.812H199.664C202.066 180.812 203.765 179.465 203.765 177.443C203.765 175.51 202.33 174.191 200.074 174.191C197.935 174.191 196.06 175.363 195.972 177.297H192.867C192.955 173.84 196.148 171.496 200.103 171.496C204.263 171.496 206.9 174.133 206.871 177.268C206.9 179.67 205.406 181.428 203.121 181.984V182.131C206.021 182.541 207.691 184.475 207.691 187.17C207.691 190.715 204.439 193.293 200.045 193.293Z" fill="#334569"/>
<mask id="path-25-inside-9_909_4095" fill="white">
<path d="M266.666 146H399.999V219H266.666V146Z"/>
</mask>
<path d="M399.999 219V220H400.999V219H399.999ZM398.999 146V219H400.999V146H398.999ZM399.999 218H266.666V220H399.999V218Z" fill="#E6E6E6" mask="url(#path-25-inside-9_909_4095)"/>
<path d="M326.287 193V190.656L333.64 183.244C335.955 180.812 337.127 179.465 337.127 177.619C337.127 175.539 335.427 174.191 333.201 174.191C330.857 174.191 329.334 175.686 329.334 177.941H326.287C326.257 174.074 329.216 171.496 333.259 171.496C337.361 171.496 340.174 174.074 340.203 177.531C340.174 179.904 339.06 181.779 335.076 185.705L330.769 190.07V190.246H340.554V193H326.287Z" fill="#334569"/>
<mask id="path-28-inside-10_909_4095" fill="white">
<path d="M0 219H133.333V292H0V219Z"/>
</mask>
<path d="M0 219H133.333V292H0V219Z" fill="#F3F3F3"/>
<path d="M133.333 292V293H134.333V292H133.333ZM0 292H-1V293H0V292ZM132.333 219V292H134.333V219H132.333ZM133.333 291H0V293H133.333V291ZM1 292V219H-1V292H1Z" fill="#E6E6E6" mask="url(#path-28-inside-10_909_4095)"/>
<path d="M65.766 261.5L69.666 257.6L73.566 261.5L75.666 259.4L71.766 255.5L75.666 251.6L73.566 249.5L69.666 253.4L65.766 249.5L63.666 251.6L67.566 255.5L63.666 259.4L65.766 261.5ZM62.166 267.5C61.691 267.5 61.241 267.394 60.816 267.181C60.391 266.969 60.041 266.675 59.766 266.3L51.666 255.5L59.766 244.7C60.041 244.325 60.391 244.031 60.816 243.819C61.241 243.606 61.691 243.5 62.166 243.5H78.666C79.491 243.5 80.1973 243.794 80.7848 244.381C81.3723 244.969 81.666 245.675 81.666 246.5V264.5C81.666 265.325 81.3723 266.031 80.7848 266.619C80.1973 267.206 79.491 267.5 78.666 267.5H62.166ZM55.416 255.5L62.166 264.5H78.666V246.5H62.166L55.416 255.5Z" fill="#334569"/>
<mask id="path-31-inside-11_909_4095" fill="white">
<path d="M133.334 219H266.667V292H133.334V219Z"/>
</mask>
<path d="M266.667 292V293H267.667V292H266.667ZM265.667 219V292H267.667V219H265.667ZM266.667 291H133.334V293H266.667V291Z" fill="#E6E6E6" mask="url(#path-31-inside-11_909_4095)"/>
<path d="M203.209 244.789V266H199.957V248.012H199.84L194.771 251.322V248.246L200.045 244.789H203.209Z" fill="#334569"/>
<mask id="path-34-inside-12_909_4095" fill="white">
<path d="M266.666 219H399.999V292H266.666V219Z"/>
</mask>
<path d="M266.666 219H399.999V292H266.666V219Z" fill="#4094ED"/>
<path d="M399.999 292V293H400.999V292H399.999ZM398.999 219V292H400.999V219H398.999ZM399.999 291H266.666V293H399.999V291Z" fill="#E6E6E6" mask="url(#path-34-inside-12_909_4095)"/>
<path d="M312.214 245.512V259.691H309.829V252.58H306.391V250.646H309.829V245.512H312.214ZM312.708 262.592V264.525H299.473V258.445H301.858V262.592H312.708ZM303.083 249.379C303.083 251.721 304.651 254.127 307.659 255.115L306.456 257.027C304.286 256.286 302.75 254.814 301.901 252.967C301.042 255.019 299.42 256.641 297.132 257.436L295.907 255.502C299.001 254.492 300.655 251.936 300.655 249.357V248.842H296.616V246.908H307.1V248.842H303.083V249.379ZM320.893 251.42C320.893 254.428 322.139 257.457 324.846 258.918L323.514 260.68C321.71 259.724 320.485 258.016 319.798 255.975C319.11 258.177 317.885 260.057 316.059 261.131L314.663 259.326C317.413 257.736 318.637 254.492 318.637 251.42V250.818H315.329V248.885H318.637V246.178H320.893V248.885H324.137V250.818H320.893V251.42ZM331.678 245.49V264.912H329.401V245.49H331.678ZM327.725 245.855V263.967H325.469V254.922H322.934V252.945H325.469V245.855H327.725ZM340.938 248.562C340.917 250.99 342.485 253.311 345.514 254.277L344.311 256.146C342.12 255.448 340.584 253.987 339.757 252.129C338.897 254.127 337.318 255.685 335.051 256.447L333.827 254.557C336.964 253.525 338.532 251.033 338.532 248.369V246.5H340.938V248.562ZM349.296 245.49V250.367H352.003V252.365H349.296V257.242H346.911V245.49H349.296ZM349.296 258.102V264.912H346.911V260.014H336.362V258.102H349.296ZM369.706 245.49V264.912H367.428V245.49H369.706ZM365.753 245.855V263.967H363.497V254.191H360.704V252.258H363.497V245.855H365.753ZM358.985 250.797C358.985 254.084 360.167 257.371 362.938 258.961L361.52 260.723C359.726 259.648 358.534 257.801 357.868 255.588C357.18 257.983 355.945 260.024 354.108 261.174L352.647 259.391C355.462 257.693 356.686 254.17 356.686 250.797V249.508H353.313V247.574H362.122V249.508H358.985V250.797Z" fill="white"/>
</svg>
