<svg width="400" height="292" viewBox="0 0 400 292" fill="none" xmlns="http://www.w3.org/2000/svg">
<rect x="20" y="0.5" width="360" height="291" rx="2" fill="white"/>
<mask id="mask0_936_377" style="mask-type:alpha" maskUnits="userSpaceOnUse" x="188" y="20" width="24" height="25">
<rect x="188" y="20.5" width="24" height="24" fill="#02837B"/>
</mask>
<g mask="url(#mask0_936_377)">
<path d="M193 39.5C192.717 39.5 192.479 39.4042 192.287 39.2125C192.096 39.0208 192 38.7833 192 38.5C192 38.2167 192.096 37.9792 192.287 37.7875C192.479 37.5958 192.717 37.5 193 37.5H194V30.5C194 29.1167 194.417 27.8875 195.25 26.8125C196.083 25.7375 197.167 25.0333 198.5 24.7V24C198.5 23.5833 198.646 23.2292 198.938 22.9375C199.229 22.6458 199.583 22.5 200 22.5C200.417 22.5 200.771 22.6458 201.062 22.9375C201.354 23.2292 201.5 23.5833 201.5 24V24.7C202.833 25.0333 203.917 25.7375 204.75 26.8125C205.583 27.8875 206 29.1167 206 30.5V37.5H207C207.283 37.5 207.521 37.5958 207.713 37.7875C207.904 37.9792 208 38.2167 208 38.5C208 38.7833 207.904 39.0208 207.713 39.2125C207.521 39.4042 207.283 39.5 207 39.5H193ZM200 42.5C199.45 42.5 198.979 42.3042 198.588 41.9125C198.196 41.5208 198 41.05 198 40.5H202C202 41.05 201.804 41.5208 201.413 41.9125C201.021 42.3042 200.55 42.5 200 42.5Z" fill="#02837B"/>
</g>
<path d="M141.486 81.0938V83.0488H123.739V81.0938H131.388V76.8613H125.695V67.4941H139.445V76.8613H133.751V81.0938H141.486ZM128.036 74.9922H137.081V69.4062H128.036V74.9922ZM157.524 65.9902V73.3809H160.51V75.4004H157.524V85.4121H155.139V65.9902H157.524ZM143.001 80.8574V67.5801H145.364V72.4355H149.94V67.5801H152.325V80.8574H143.001ZM145.364 78.9023H149.94V74.3047H145.364V78.9023ZM166.387 66.6133C169.33 66.624 171.522 68.4395 171.543 70.9961C171.522 73.5635 169.33 75.3682 166.387 75.3789C163.422 75.3682 161.231 73.5635 161.231 70.9961C161.231 68.4395 163.422 66.624 166.387 66.6133ZM163.551 70.9961C163.551 72.5 164.754 73.4453 166.387 73.4453C168.02 73.4453 169.212 72.5 169.223 70.9961C169.212 69.5244 168.02 68.5791 166.387 68.5898C164.754 68.5791 163.551 69.5244 163.551 70.9961ZM164.174 78.5156V76.6465H177.065V81.7168H166.559V83.2852H177.645V85.1758H164.217V79.9551H174.68V78.5156H164.174ZM174.658 75.8086V65.9902H177.065V75.8086H174.658ZM200.419 66.0117V80.1914H198.013V66.0117H200.419ZM184.263 75.6152C187.41 74.5088 189.021 71.7695 189.011 68.9766V67.0859H191.481V68.9766C191.471 71.6836 193.061 74.2402 196.144 75.2715L194.919 77.1621C192.706 76.3887 191.127 74.8418 190.268 72.8545C189.408 74.9814 187.797 76.6787 185.509 77.5059L184.263 75.6152ZM187.571 85.0254V78.8379H189.978V83.0918H200.956V85.0254H187.571ZM220.539 76.0449V77.957H213.041V81.3086H210.678V77.957H202.793V76.0449H220.539ZM204.942 85.0254V79.6758H207.305V83.0918H218.584V85.0254H204.942ZM205.114 74.5195V66.6133H207.477V68.8047H215.856V66.6133H218.219V74.5195H205.114ZM207.477 72.6289H215.856V70.5879H207.477V72.6289ZM239.092 75.0352V76.9688H221.389V75.0352H239.092ZM222.248 72.2852C225.847 71.9307 228.188 70.4912 228.554 68.8691H223V66.9141H237.502V68.8691H231.894C232.249 70.4697 234.569 71.9307 238.254 72.2852L237.416 74.1758C233.882 73.8105 231.271 72.4033 230.219 70.4375C229.166 72.4033 226.588 73.8105 223.064 74.1758L222.248 72.2852ZM223.451 81.8242C223.451 79.5684 225.997 78.2578 230.219 78.2578C234.408 78.2578 236.932 79.5684 236.943 81.8242C236.932 84.1123 234.408 85.3906 230.219 85.3906C225.997 85.3906 223.451 84.1123 223.451 81.8242ZM225.879 81.8242C225.868 82.9521 227.393 83.5107 230.219 83.5215C233.001 83.5107 234.537 82.9521 234.558 81.8242C234.537 80.6963 233.001 80.127 230.219 80.127C227.393 80.127 225.868 80.6963 225.879 81.8242ZM256.462 66.1406V85.2402H254.829V66.1406H256.462ZM240.327 74.3906C240.338 70.3301 241.95 67.7627 244.431 67.752C246.751 67.7627 248.32 69.9971 248.534 73.5957H251.005V66.5488H252.617V84.2734H251.005V74.9922H248.545C248.384 78.709 246.784 81.04 244.431 81.0293C241.95 81.04 240.338 78.4512 240.327 74.3906ZM241.917 74.3906C241.896 77.4844 242.884 79.4395 244.431 79.418C245.989 79.4395 246.977 77.4844 246.966 74.3906C246.977 71.2861 245.989 69.3418 244.431 69.3418C242.884 69.3418 241.896 71.2861 241.917 74.3906ZM265.389 71.2754C265.379 74.7344 267.602 78.2148 270.374 79.4824L269.364 80.8574C267.194 79.7402 265.4 77.4629 264.552 74.7451C263.703 77.6025 261.909 80.0518 259.739 81.2012L258.643 79.8477C261.447 78.4727 263.66 74.7988 263.671 71.2754V67.7949H265.389V71.2754ZM268.29 74.0469V72.6719H272.823V66.1406H274.499V85.2832H272.823V74.0469H268.29ZM147.936 97.1406V101.287H150.815V102.705H147.936V106.873H146.261V97.1406H147.936ZM133.37 102.082C133.359 99.5791 135.465 97.8604 138.333 97.8496C141.212 97.8604 143.296 99.5791 143.296 102.082C143.296 104.596 141.212 106.325 138.333 106.336C135.465 106.325 133.359 104.596 133.37 102.082ZM135.024 102.082C135.014 103.758 136.421 104.961 138.333 104.961C140.234 104.961 141.652 103.758 141.642 102.082C141.652 100.428 140.234 99.2461 138.333 99.2676C136.421 99.2461 135.014 100.428 135.024 102.082ZM135.755 109.129V107.775H147.936V112.438H137.452V114.629H148.645V115.982H135.798V111.148H146.261V109.129H135.755ZM167.348 97.1621V108.484H165.672V97.1621H167.348ZM152.545 99.6758V98.3223H161.268V103.5H154.221V106.143C157.637 106.164 160.183 106.057 163.288 105.541L163.481 106.959C160.269 107.453 157.659 107.561 154.135 107.561H152.588V102.168H159.592V99.6758H152.545ZM154.93 115.982V109.516H167.348V115.982H154.93ZM156.584 114.607H165.694V110.891H156.584V114.607ZM178.853 97.4844C183.097 97.4844 185.589 98.6553 185.599 100.771C185.589 102.941 183.097 104.112 178.853 104.123C174.589 104.112 172.086 102.941 172.086 100.771C172.086 98.6553 174.589 97.4844 178.853 97.4844ZM170.152 106.787V105.412H187.555V106.787H170.152ZM172.258 109.73V108.441H185.32V112.717H173.976V114.693H185.9V116.025H172.301V111.471H183.666V109.73H172.258ZM173.848 100.771C173.826 102.104 175.684 102.834 178.853 102.834C182.022 102.834 183.87 102.104 183.881 100.771C183.87 99.5146 182.022 98.7627 178.853 98.752C175.684 98.7627 173.826 99.5146 173.848 100.771ZM211.296 112.395V113.791H193.807V112.395H201.671V108.27H195.87V98.4941H197.567V101.953H207.493V98.4941H209.147V108.27H203.325V112.395H211.296ZM197.567 106.895H207.493V103.328H197.567V106.895ZM228.688 97.1406V116.24H227.033V106.357H224.283V115.252H222.694V97.5703H224.283V104.918H227.033V97.1406H228.688ZM213.348 111.299V99.4824H215.024V109.795C216.914 109.784 218.955 109.645 221.276 109.172L221.49 110.676C218.826 111.159 216.635 111.299 214.529 111.299H213.348ZM246.38 106.1V107.475H240.472V112.416H248.443V113.834H230.955V112.416H238.818V107.475H233.189V98.709H246.187V100.084H234.886V106.1H246.38ZM266.995 107.668V109.064H249.507V107.668H257.413V105.648H251.784V100.986H263.042V99.0098H251.72V97.6348H264.739V102.254H253.46V104.295H265.147V105.648H259.067V107.668H266.995ZM251.462 111.9V110.525H264.847V116.068H263.149V111.9H251.462ZM132.57 131.213V132.609H121.204V131.213H126.038V128.377H127.714V131.213H132.57ZM122.386 138.582C122.386 136.015 124.287 134.199 126.898 134.199C129.487 134.199 131.366 136.015 131.388 138.582C131.366 141.128 129.487 142.965 126.898 142.965C124.287 142.965 122.386 141.128 122.386 138.582ZM123.976 138.582C123.954 140.301 125.222 141.515 126.898 141.504C128.573 141.515 129.83 140.301 129.841 138.582C129.83 136.885 128.573 135.649 126.898 135.639C125.222 135.649 123.954 136.885 123.976 138.582ZM132.161 137.594V136.176H135.363V128.141H137.038V147.24H135.363V137.594H132.161ZM157.18 137.594V138.99H139.778V137.594H144.096V134.897C142.571 134.307 141.712 133.34 141.712 132.051C141.712 129.806 144.29 128.517 148.479 128.506C152.636 128.517 155.215 129.806 155.225 132.051C155.215 133.329 154.366 134.296 152.862 134.897V137.594H157.18ZM141.883 143.824C141.873 141.644 144.333 140.44 148.479 140.451C152.572 140.44 155.032 141.644 155.053 143.824C155.032 146.005 152.572 147.197 148.479 147.197C144.333 147.197 141.873 146.005 141.883 143.824ZM143.452 132.051C143.441 133.447 145.353 134.253 148.479 134.264C151.573 134.253 153.496 133.447 153.507 132.051C153.496 130.676 151.573 129.838 148.479 129.838C145.353 129.838 143.441 130.676 143.452 132.051ZM143.602 143.824C143.581 145.124 145.418 145.897 148.479 145.887C151.508 145.897 153.345 145.124 153.356 143.824C153.345 142.524 151.508 141.762 148.479 141.74C145.418 141.762 143.581 142.524 143.602 143.824ZM145.772 137.594H151.186V135.349C150.381 135.499 149.478 135.574 148.479 135.574C147.48 135.574 146.578 135.499 145.772 135.359V137.594ZM173.133 128.141V136.025H176.334V137.422H173.133V147.24H171.457V128.141H173.133ZM158.244 132.609V131.213H163.164V128.377H164.84V131.213H169.609V132.609H158.244ZM159.34 138.582C159.329 136.004 161.306 134.199 164.024 134.199C166.72 134.199 168.686 136.004 168.707 138.582C168.686 141.171 166.72 142.965 164.024 142.965C161.306 142.965 159.329 141.171 159.34 138.582ZM160.951 138.582C160.941 140.322 162.24 141.547 164.024 141.525C165.785 141.547 167.074 140.322 167.096 138.582C167.074 136.853 165.785 135.606 164.024 135.617C162.24 135.606 160.941 136.853 160.951 138.582ZM183.714 133.275C183.704 136.767 186.078 140.269 188.892 141.547L187.861 142.879C185.68 141.826 183.8 139.56 182.887 136.842C182.006 139.721 180.127 142.138 177.892 143.266L176.818 141.848C179.665 140.548 182.017 136.896 182.039 133.275V129.795H183.714V133.275ZM190.976 147.283V128.141H192.673V147.283H190.976ZM203.964 129.559C203.964 131.03 203.695 132.373 203.169 133.598H206.263V128.57H207.874V138.904H206.263V134.994H202.417C201.171 136.906 199.205 138.442 196.573 139.57L195.692 138.324C199.613 136.724 201.88 134.188 202.224 130.955H196.509V129.559H203.964ZM196.638 145.93C199.044 145.06 200.548 142.976 200.548 141.139V139.85H202.159V141.139C202.138 142.857 203.051 144.641 204.855 145.683C206.692 144.533 207.627 142.589 207.638 141.139V139.85H209.271V141.139C209.271 143.115 210.721 145.124 213.181 145.93L212.343 147.176C210.431 146.499 209.088 145.156 208.433 143.545C207.853 145.103 206.692 146.585 204.909 147.348C203.04 146.617 201.88 145.188 201.321 143.577C200.634 145.135 199.312 146.478 197.497 147.176L196.638 145.93ZM210.108 139.205V128.162H211.72V139.205H210.108ZM217.961 139.613V141.848H227.5V139.613H229.198V146.982H216.286V139.613H217.961ZM214.073 138.26V136.863H231.475V138.26H214.073ZM215.061 134.156C218.466 133.694 221.914 131.686 221.914 129.258V128.355H223.655V129.258C223.644 131.61 227.124 133.727 230.487 134.156L229.864 135.51C226.91 135.069 223.998 133.565 222.785 131.428C221.571 133.576 218.649 135.069 215.706 135.51L215.061 134.156ZM217.961 145.629H227.5V143.18H217.961V145.629ZM248.394 128.141V147.24H246.719V128.141H248.394ZM233.892 142.32V130.031H235.547V140.859C238.469 140.838 241.476 140.612 244.678 139.936L244.914 141.375C241.519 142.084 238.501 142.32 235.439 142.32H233.892ZM266.345 128.141V136.025H269.245V137.443H266.345V147.24H264.648V128.141H266.345ZM251.156 141.955C254.034 139.001 255.205 135.445 255.42 131.643H251.757V130.225H257.021C256.999 134.769 255.979 139.259 252.509 142.922L251.156 141.955ZM256.634 143.244C259.62 139.871 260.512 135.628 260.673 131.643H257.622V130.225H262.263C262.252 134.758 261.586 140.032 258.009 144.189L256.634 143.244ZM272.844 141.01C272.866 138.131 273.747 137.25 275.229 136.348C276.121 135.811 276.798 134.951 276.798 133.748C276.798 132.287 275.659 131.353 274.241 131.363C273.016 131.353 271.781 132.083 271.663 133.855H269.708C269.815 131.245 271.781 129.73 274.241 129.73C276.937 129.73 278.688 131.46 278.688 133.834C278.688 135.521 277.893 136.691 276.561 137.508C275.219 138.324 274.735 139.151 274.692 141.01V141.117H272.844V141.01ZM272.458 144.232C272.436 143.48 273.081 142.857 273.833 142.857C274.595 142.857 275.219 143.48 275.208 144.232C275.219 144.995 274.595 145.618 273.833 145.629C273.081 145.618 272.436 144.995 272.458 144.232Z" fill="#111827"/>
<mask id="path-5-inside-1_936_377" fill="white">
<path d="M20 179.5H380V235.5H20V179.5Z"/>
</mask>
<path d="M20 180.5H380V178.5H20V180.5Z" fill="#DDDDDD" mask="url(#path-5-inside-1_936_377)"/>
<path d="M194.828 203.109V204.125H186.562V203.109H190.078V201.047H191.297V203.109H194.828ZM187.422 208.469C187.422 206.602 188.805 205.281 190.703 205.281C192.586 205.281 193.953 206.602 193.969 208.469C193.953 210.32 192.586 211.656 190.703 211.656C188.805 211.656 187.422 210.32 187.422 208.469ZM188.578 208.469C188.562 209.719 189.484 210.602 190.703 210.594C191.922 210.602 192.836 209.719 192.844 208.469C192.836 207.234 191.922 206.336 190.703 206.328C189.484 206.336 188.562 207.234 188.578 208.469ZM194.531 207.75V206.719H196.859V200.875H198.078V214.766H196.859V207.75H194.531ZM212.727 207.75V208.766H200.071V207.75H203.211V205.789C202.102 205.359 201.477 204.656 201.477 203.719C201.477 202.086 203.352 201.148 206.399 201.141C209.422 201.148 211.297 202.086 211.305 203.719C211.297 204.648 210.68 205.352 209.586 205.789V207.75H212.727ZM201.602 212.281C201.594 210.695 203.383 209.82 206.399 209.828C209.375 209.82 211.164 210.695 211.18 212.281C211.164 213.867 209.375 214.734 206.399 214.734C203.383 214.734 201.594 213.867 201.602 212.281ZM202.743 203.719C202.735 204.734 204.125 205.32 206.399 205.328C208.649 205.32 210.047 204.734 210.055 203.719C210.047 202.719 208.649 202.109 206.399 202.109C204.125 202.109 202.735 202.719 202.743 203.719ZM202.852 212.281C202.836 213.227 204.172 213.789 206.399 213.781C208.602 213.789 209.938 213.227 209.946 212.281C209.938 211.336 208.602 210.781 206.399 210.766C204.172 210.781 202.836 211.336 202.852 212.281ZM204.43 207.75H208.368V206.117C207.782 206.227 207.125 206.281 206.399 206.281C205.672 206.281 205.016 206.227 204.43 206.125V207.75Z" fill="#02837B"/>
<mask id="path-8-inside-2_936_377" fill="white">
<path d="M20 235.5H380V291.5H20V235.5Z"/>
</mask>
<path d="M20 236.5H380V234.5H20V236.5Z" fill="#DDDDDD" mask="url(#path-8-inside-2_936_377)"/>
<path d="M198.062 256.875V270.766H196.844V263.484H193.531V262.469H196.844V256.875H198.062ZM186.578 267.141C190.336 265.32 192.078 262.641 192.328 259.391H187.188V258.391H193.562C193.555 262.328 191.891 265.82 187.25 268.125L186.578 267.141ZM212.774 265.125V266.125H206.977V270.766H205.774V266.125H200.055V265.125H212.774ZM201.68 263.438V257.453H202.899V259.375H209.899V257.453H211.133V263.438H201.68ZM202.899 262.438H209.899V260.375H202.899V262.438Z" fill="#02837B"/>
</svg>
