<svg width="400" height="106" viewBox="0 0 400 106" fill="none" xmlns="http://www.w3.org/2000/svg">
<g filter="url(#filter0_d_956_1012)">
<rect x="10" y="10" width="380" height="86" rx="20" fill="#F9FAFB" shape-rendering="crispEdges"/>
<circle cx="48" cy="43" r="18" fill="#E8E8EA"/>
<circle cx="48" cy="37" r="4" fill="#A8A8AA"/>
<path d="M41 50C41 48.9494 41.1681 47.9091 41.4948 46.9385C41.8214 45.9679 42.3002 45.086 42.9038 44.3431C43.5074 43.6003 44.2239 43.011 45.0126 42.609C45.8012 42.2069 46.6464 42 47.5 42C48.3536 42 49.1988 42.2069 49.9874 42.609C50.7761 43.011 51.4926 43.6003 52.0962 44.3431C52.6998 45.086 53.1786 45.9679 53.5052 46.9385C53.8319 47.9091 54 48.9494 54 50L47.5 50L41 50Z" fill="#A8A8AA"/>
<path d="M85.7598 35.4004V32.8164H83.1758V31.2988H85.7598V28.7148H87.2637V31.2988H89.8613V32.8164H87.2637V35.4004H85.7598ZM95.4395 37.1367C93.2383 37.1367 91.6797 35.9609 91.6797 34.3477C91.6797 33.0898 92.6094 32.0645 93.7988 31.873V31.8184C92.7598 31.5996 92.0488 30.6973 92.0488 29.6172C92.0488 28.0859 93.4844 26.9648 95.4395 26.9648C97.3809 26.9648 98.8164 28.0859 98.8164 29.6172C98.8164 30.6973 98.0918 31.5996 97.0664 31.8184V31.873C98.2559 32.0645 99.1992 33.0898 99.1992 34.3477C99.1992 35.9609 97.627 37.1367 95.4395 37.1367ZM95.4395 35.7285C96.6016 35.7285 97.3672 35.0996 97.3672 34.1836C97.3672 33.2539 96.5469 32.5703 95.4395 32.5703C94.3184 32.5703 93.498 33.2539 93.5117 34.1836C93.498 35.0996 94.2637 35.7285 95.4395 35.7285ZM95.4395 31.2441C96.3965 31.2441 97.0801 30.6426 97.0801 29.7812C97.0801 28.9473 96.4102 28.3594 95.4395 28.3594C94.4551 28.3594 93.7852 28.9336 93.7852 29.7812C93.7852 30.6426 94.4688 31.2441 95.4395 31.2441ZM100.676 37V35.7148L104.176 32.3379C105.174 31.3398 105.693 30.752 105.693 29.918C105.693 29.002 104.969 28.4141 103.998 28.4141C102.973 28.4141 102.316 29.0566 102.33 30.0547H100.635C100.621 28.1816 102.029 26.9648 104.012 26.9648C106.035 26.9648 107.402 28.168 107.402 29.8359C107.402 30.957 106.855 31.8594 104.914 33.6914L103.15 35.4414V35.5098H107.553V37H100.676ZM112.434 37V35.7148L115.934 32.3379C116.932 31.3398 117.451 30.752 117.451 29.918C117.451 29.002 116.727 28.4141 115.756 28.4141C114.73 28.4141 114.074 29.0566 114.088 30.0547H112.393C112.379 28.1816 113.787 26.9648 115.77 26.9648C117.793 26.9648 119.16 28.168 119.16 29.8359C119.16 30.957 118.613 31.8594 116.672 33.6914L114.908 35.4414V35.5098H119.311V37H112.434ZM125.381 31.3398V32.7754H120.924V31.3398H125.381ZM127.076 37L131.369 28.6602V28.5918H126.393V27.1016H133.215V28.6191L128.922 37H127.076ZM138.082 37.1367C135.703 37.1367 134.281 35.291 134.281 32.0508C134.281 28.8242 135.703 26.9648 138.082 26.9648C140.447 26.9648 141.883 28.8242 141.883 32.0508C141.883 35.291 140.461 37.1367 138.082 37.1367ZM138.082 35.6465C139.326 35.6465 140.092 34.4297 140.092 32.0508C140.092 29.6855 139.312 28.4414 138.082 28.4414C136.852 28.4414 136.072 29.6855 136.072 32.0508C136.072 34.4297 136.838 35.6465 138.082 35.6465ZM146.969 37.1367C144.768 37.1367 143.209 35.9609 143.209 34.3477C143.209 33.0898 144.139 32.0645 145.328 31.873V31.8184C144.289 31.5996 143.578 30.6973 143.578 29.6172C143.578 28.0859 145.014 26.9648 146.969 26.9648C148.91 26.9648 150.346 28.0859 150.346 29.6172C150.346 30.6973 149.621 31.5996 148.596 31.8184V31.873C149.785 32.0645 150.729 33.0898 150.729 34.3477C150.729 35.9609 149.156 37.1367 146.969 37.1367ZM146.969 35.7285C148.131 35.7285 148.896 35.0996 148.896 34.1836C148.896 33.2539 148.076 32.5703 146.969 32.5703C145.848 32.5703 145.027 33.2539 145.041 34.1836C145.027 35.0996 145.793 35.7285 146.969 35.7285ZM146.969 31.2441C147.926 31.2441 148.609 30.6426 148.609 29.7812C148.609 28.9473 147.939 28.3594 146.969 28.3594C145.984 28.3594 145.314 28.9336 145.314 29.7812C145.314 30.6426 145.998 31.2441 146.969 31.2441ZM156.717 31.3398V32.7754H152.26V31.3398H156.717ZM162.432 27.1016V37H160.641V28.8379H160.586L158.275 30.3145V28.6875L160.723 27.1016H162.432ZM168.488 37.1367C166.109 37.1367 164.688 35.291 164.688 32.0508C164.688 28.8242 166.109 26.9648 168.488 26.9648C170.854 26.9648 172.289 28.8242 172.289 32.0508C172.289 35.291 170.867 37.1367 168.488 37.1367ZM168.488 35.6465C169.732 35.6465 170.498 34.4297 170.498 32.0508C170.498 29.6855 169.719 28.4414 168.488 28.4414C167.258 28.4414 166.479 29.6855 166.479 32.0508C166.479 34.4297 167.244 35.6465 168.488 35.6465ZM177.43 37.1367C175.051 37.1367 173.629 35.291 173.629 32.0508C173.629 28.8242 175.051 26.9648 177.43 26.9648C179.795 26.9648 181.23 28.8242 181.23 32.0508C181.23 35.291 179.809 37.1367 177.43 37.1367ZM177.43 35.6465C178.674 35.6465 179.439 34.4297 179.439 32.0508C179.439 29.6855 178.66 28.4414 177.43 28.4414C176.199 28.4414 175.42 29.6855 175.42 32.0508C175.42 34.4297 176.186 35.6465 177.43 35.6465ZM182.816 37L187.109 28.6602V28.5918H182.133V27.1016H188.955V28.6191L184.662 37H182.816Z" fill="#111827"/>
<path d="M83.5039 61.7891V48.6777H86.4023V49.6484H84.6113V60.8047H86.4023V61.7891H83.5039ZM89.6973 59L86.9902 49.1016H88.2344L90.2988 57.1133H90.3945L92.4863 49.1016H93.8672L95.9727 57.1133H96.0547L98.1191 49.1016H99.3633L96.6562 59H95.3848L93.2246 51.166H93.1426L90.9688 59H89.6973ZM102.932 59.1504C100.785 59.1504 99.459 57.6328 99.459 55.3496C99.459 53.0664 100.799 51.4805 102.822 51.4805C104.381 51.4805 106.021 52.4375 106.021 55.1855V55.6777H100.635C100.689 57.25 101.605 58.1113 102.932 58.1113C103.82 58.1113 104.381 57.7285 104.654 57.2637H105.912C105.557 58.3848 104.463 59.1504 102.932 59.1504ZM100.648 54.6797H104.832C104.832 53.4355 104.039 52.5195 102.822 52.5195C101.537 52.5195 100.717 53.5312 100.648 54.6797ZM107.703 59V49.1016H108.879V52.752H108.975C109.234 52.3555 109.672 51.4805 111.121 51.4805C112.98 51.4805 114.293 52.957 114.293 55.3086C114.293 57.6602 112.98 59.1504 111.135 59.1504C109.713 59.1504 109.234 58.2754 108.975 57.8652H108.838V59H107.703ZM108.852 55.2812C108.852 56.9492 109.604 58.0977 110.957 58.0977C112.365 58.0977 113.104 56.8672 113.104 55.2812C113.104 53.7363 112.393 52.5332 110.957 52.5332C109.59 52.5332 108.852 53.6406 108.852 55.2812ZM116.945 48.4727V50.2227H120.486V48.4727H121.553V53.7637H115.893V48.4727H116.945ZM116.945 52.8887H120.486V51.0566H116.945V52.8887ZM124.875 47.9531V50.5918H126.707V51.4941H124.875V54.2422H123.809V47.9531H124.875ZM124.875 54.8164V57.7559H118.203V59.0957H125.326V59.9707H117.15V56.9355H123.809V55.6777H117.123V54.8164H124.875ZM137.508 47.9668V56.8809H136.441V47.9668H137.508ZM137.891 58.9453V59.8477H129.66V56.0605H130.727V58.9453H137.891ZM131.779 49.8672C131.766 51.7129 133.037 53.3809 134.842 54.0371L134.281 54.8984C132.873 54.3584 131.779 53.2646 131.246 51.8633C130.706 53.3535 129.599 54.5498 128.184 55.1172L127.596 54.2832C129.441 53.5723 130.686 51.7812 130.686 49.8672V48.6504H131.779V49.8672ZM142.348 61.7891H139.449V60.8047H141.24V49.6484H139.449V48.6777H142.348V61.7891ZM83.5039 79.7891V66.6777H86.4023V67.6484H84.6113V78.8047H86.4023V79.7891H83.5039ZM98.3926 75.6465V76.5488H87.2637V75.6465H92.2676V72.6797H88.5762V66.9785H97.0117V72.6797H93.3203V75.6465H98.3926ZM89.6289 67.8398V71.8184H95.9727V67.8398H89.6289ZM108.77 65.9531V70.7383H110.807V71.668H108.77V78.1074H107.703V65.9531H108.77ZM100.936 66.9922V70.2051H104.49V66.9922H105.557V75.1953H99.8691V66.9922H100.936ZM100.936 74.293H104.49V71.0664H100.936V74.293ZM114.908 66.4043C116.727 66.418 118.053 67.5117 118.053 69.0977C118.053 70.6836 116.727 71.7773 114.908 71.7773C113.062 71.7773 111.75 70.6836 111.75 69.0977C111.75 67.5117 113.062 66.418 114.908 66.4043ZM114.908 67.3066C113.691 67.3066 112.789 68.0449 112.803 69.0977C112.789 70.1641 113.691 70.9023 114.908 70.9023C116.111 70.9023 117.014 70.1641 117.014 69.0977C117.014 68.0449 116.111 67.3066 114.908 67.3066ZM121.498 65.9531V72.2012H120.432V65.9531H121.498ZM121.498 72.7891V75.7148H114.676V77.082H121.936V77.9434H113.623V74.9082H120.432V73.6504H113.596V72.7891H121.498ZM137.111 65.9668V74.8809H136.045V65.9668H137.111ZM137.494 76.9453V77.8477H129.264V74.0605H130.33V76.9453H137.494ZM131.383 67.8672C131.369 69.7129 132.641 71.3809 134.445 72.0371L133.885 72.8984C132.477 72.3584 131.383 71.2646 130.85 69.8633C130.31 71.3535 129.202 72.5498 127.787 73.1172L127.199 72.2832C129.045 71.5723 130.289 69.7812 130.289 67.8672V66.6504H131.383V67.8672ZM150.291 72.3926V73.2676H145.342V75.6465H144.275V73.2676H139.162V72.3926H150.291ZM149.047 76.9453V77.8477H140.584V74.5254H141.65V76.9453H149.047ZM141.719 66.3496V67.9082H147.734V66.3496H148.801V71.2031H140.652V66.3496H141.719ZM141.719 70.3281H147.734V68.7285H141.719V70.3281ZM162.35 71.7363V72.625H151.275V71.7363H162.35ZM156.812 73.6914C159.424 73.6914 160.982 74.498 160.996 75.8926C160.982 77.3008 159.424 78.0801 156.812 78.0801C154.188 78.0801 152.615 77.3008 152.615 75.8926C152.615 74.498 154.188 73.6914 156.812 73.6914ZM156.812 74.5391C154.857 74.5527 153.695 75.0312 153.709 75.8926C153.695 76.7402 154.857 77.2188 156.812 77.2188C158.74 77.2188 159.916 76.7402 159.916 75.8926C159.916 75.0312 158.74 74.5527 156.812 74.5391ZM161.365 66.582V67.4707H157.51C157.551 68.8516 159.574 69.9043 161.734 70.1504L161.338 71.0117C159.349 70.7588 157.482 69.8701 156.812 68.5098C156.149 69.8701 154.29 70.7588 152.287 71.0117L151.904 70.1504C154.023 69.9043 156.061 68.8516 156.115 67.4707H152.287V66.582H161.365ZM166.15 79.7891H163.252V78.8047H165.043V67.6484H163.252V66.6777H166.15V79.7891ZM174.203 66.4453V67.9902H180.219V66.4453H181.285V71.2988H177.73V72.5977H182.734V73.4863H171.66V72.5977H176.664V71.2988H173.137V66.4453H174.203ZM174.203 70.4375H180.219V68.8379H174.203V70.4375ZM181.504 76.9453V77.8477H173.096V74.457H174.176V76.9453H181.504ZM193.795 65.9668V74.8535H192.729V65.9668H193.795ZM194.178 76.9453V77.8477H185.947V73.9512H187.014V76.9453H194.178ZM187.232 66.8145C189.051 66.8145 190.418 68.0449 190.418 69.7949C190.418 71.5723 189.051 72.7891 187.232 72.7891C185.414 72.7891 184.047 71.5723 184.047 69.7949C184.047 68.0449 185.414 66.8145 187.232 66.8145ZM187.232 67.7578C186.002 67.7578 185.086 68.6055 185.1 69.7949C185.086 71.0117 186.002 71.8457 187.232 71.8457C188.436 71.8457 189.365 71.0117 189.365 69.7949C189.365 68.6055 188.436 67.7578 187.232 67.7578ZM205.348 65.9668V69.6445H207.166V70.5469H205.348V74.1152H204.268V65.9668H205.348ZM195.805 72.8711C196.775 72.8711 197.91 72.8711 199.1 72.8301V71.9414C197.685 71.8184 196.775 71.1553 196.775 70.1504C196.775 69.043 197.91 68.3594 199.619 68.3594C201.342 68.3594 202.463 69.043 202.477 70.1504C202.463 71.1484 201.574 71.8115 200.166 71.9414V72.7891C201.301 72.7344 202.449 72.6455 203.516 72.4883L203.611 73.2676C200.973 73.7324 198.061 73.7461 195.928 73.7461L195.805 72.8711ZM205.348 74.7168V78.1074H204.268V75.5781H197.295V74.7168H205.348ZM203.146 67.0742V67.8945H196.105V67.0742H199.1V65.8574H200.166V67.0742H203.146ZM199.619 69.125C198.498 69.1113 197.801 69.5078 197.801 70.1504C197.801 70.7793 198.498 71.2168 199.619 71.2031C200.74 71.2168 201.451 70.7793 201.451 70.1504C201.451 69.5078 200.74 69.1113 199.619 69.125ZM217.994 65.9668V74.8535H216.928V65.9668H217.994ZM218.377 76.9453V77.8477H210.146V73.9512H211.213V76.9453H218.377ZM211.432 66.8145C213.25 66.8145 214.617 68.0449 214.617 69.7949C214.617 71.5723 213.25 72.7891 211.432 72.7891C209.613 72.7891 208.246 71.5723 208.246 69.7949C208.246 68.0449 209.613 66.8145 211.432 66.8145ZM211.432 67.7578C210.201 67.7578 209.285 68.6055 209.299 69.7949C209.285 71.0117 210.201 71.8457 211.432 71.8457C212.635 71.8457 213.564 71.0117 213.564 69.7949C213.564 68.6055 212.635 67.7578 211.432 67.7578ZM233.607 65.9668V74.8535H232.541V65.9668H233.607ZM233.99 76.9453V77.8477H225.76V73.9512H226.826V76.9453H233.99ZM227.045 66.8145C228.863 66.8145 230.23 68.0449 230.23 69.7949C230.23 71.5723 228.863 72.7891 227.045 72.7891C225.227 72.7891 223.859 71.5723 223.859 69.7949C223.859 68.0449 225.227 66.8145 227.045 66.8145ZM227.045 67.7578C225.814 67.7578 224.898 68.6055 224.912 69.7949C224.898 71.0117 225.814 71.8457 227.045 71.8457C228.248 71.8457 229.178 71.0117 229.178 69.7949C229.178 68.6055 228.248 67.7578 227.045 67.7578ZM246.746 71.7363V72.625H235.672V71.7363H246.746ZM241.209 73.6914C243.82 73.6914 245.379 74.498 245.393 75.8926C245.379 77.3008 243.82 78.0801 241.209 78.0801C238.584 78.0801 237.012 77.3008 237.012 75.8926C237.012 74.498 238.584 73.6914 241.209 73.6914ZM241.209 74.5391C239.254 74.5527 238.092 75.0312 238.105 75.8926C238.092 76.7402 239.254 77.2188 241.209 77.2188C243.137 77.2188 244.312 76.7402 244.312 75.8926C244.312 75.0312 243.137 74.5527 241.209 74.5391ZM245.762 66.582V67.4707H241.906C241.947 68.8516 243.971 69.9043 246.131 70.1504L245.734 71.0117C243.745 70.7588 241.879 69.8701 241.209 68.5098C240.546 69.8701 238.687 70.7588 236.684 71.0117L236.301 70.1504C238.42 69.9043 240.457 68.8516 240.512 67.4707H236.684V66.582H245.762ZM257.848 65.9668V74.9629H256.768V70.2871H253.896V72.8848H248.387V66.7734H249.453V68.9336H252.844V66.7734H253.896V69.3848H256.768V65.9668H257.848ZM258.121 76.9453V77.8477H249.986V74.0742H251.066V76.9453H258.121ZM249.453 71.9961H252.844V69.7812H249.453V71.9961ZM270.371 67.7578V68.6465H260.418V67.7578H264.875V66.1582H265.928V67.7578H270.371ZM271 75.7969V76.6855H259.871V75.7969H264.875V74.0879C262.715 73.9717 261.402 73.1309 261.416 71.7637C261.402 70.3145 262.934 69.4668 265.408 69.4805C267.855 69.4668 269.4 70.3145 269.4 71.7637C269.4 73.1309 268.074 73.9717 265.928 74.0879V75.7969H271ZM265.408 70.3281C263.59 70.3281 262.482 70.8613 262.496 71.7637C262.482 72.6934 263.59 73.2129 265.408 73.2266C267.199 73.2129 268.307 72.6934 268.307 71.7637C268.307 70.8613 267.199 70.3281 265.408 70.3281ZM272.982 79.7891V66.6777H275.881V67.6484H274.09V78.8047H275.881V79.7891H272.982ZM280.598 77.1367C278.629 77.1367 277.221 76.084 277.152 74.5117H278.396C278.465 75.4551 279.408 76.043 280.584 76.043C281.883 76.043 282.84 75.332 282.84 74.3066C282.84 73.2266 281.979 72.4609 280.434 72.4609H279.627V71.3809H280.434C281.637 71.3809 282.471 70.7109 282.471 69.6855C282.471 68.7012 281.746 68.0312 280.625 68.0312C279.572 68.0312 278.602 68.6191 278.547 69.5898H277.357C277.426 68.0176 278.875 66.9648 280.639 66.9648C282.525 66.9648 283.674 68.1953 283.66 69.6172C283.674 70.7383 283.018 71.5723 281.979 71.8594V71.9277C283.264 72.1328 284.057 73.0488 284.043 74.3066C284.057 75.9336 282.566 77.1367 280.598 77.1367ZM285.82 77L285.807 76.0977L289.184 72.543C290.359 71.2988 290.92 70.6289 290.92 69.7129C290.92 68.7012 290.059 68.0312 288.951 68.0312C287.775 68.0312 287.023 68.7832 287.023 69.8906H285.861C285.848 68.1406 287.201 66.9648 288.992 66.9648C290.783 66.9648 292.068 68.168 292.068 69.7129C292.068 70.8203 291.549 71.6816 289.799 73.4863L287.529 75.8242V75.9062H292.246V77H285.82ZM294.037 77L294.023 76.0977L297.4 72.543C298.576 71.2988 299.137 70.6289 299.137 69.7129C299.137 68.7012 298.275 68.0312 297.168 68.0312C295.992 68.0312 295.24 68.7832 295.24 69.8906H294.078C294.064 68.1406 295.418 66.9648 297.209 66.9648C299 66.9648 300.285 68.168 300.285 69.7129C300.285 70.8203 299.766 71.6816 298.016 73.4863L295.746 75.8242V75.9062H300.463V77H294.037ZM305.562 77.1367C303.484 77.1367 302.035 75.9883 302.049 74.375C302.035 73.0898 302.924 72.0371 304.059 71.8594V71.8047C303.074 71.5723 302.432 70.6699 302.432 69.5898C302.432 68.0723 303.758 66.9648 305.562 66.9648C307.367 66.9648 308.693 68.0723 308.707 69.5898C308.693 70.6699 308.037 71.5723 307.066 71.8047V71.8594C308.188 72.0371 309.076 73.0898 309.09 74.375C309.076 75.9883 307.627 77.1367 305.562 77.1367ZM305.562 76.0566C306.984 76.0566 307.859 75.3457 307.859 74.3066C307.859 73.2129 306.889 72.4062 305.562 72.4062C304.236 72.4062 303.252 73.2129 303.279 74.3066C303.252 75.3457 304.141 76.0566 305.562 76.0566ZM305.562 71.3672C306.684 71.3672 307.504 70.6836 307.504 69.6855C307.504 68.7012 306.725 68.0312 305.562 68.0312C304.387 68.0312 303.621 68.7012 303.621 69.6855C303.621 70.6836 304.428 71.3672 305.562 71.3672ZM314.162 77.1367C312.193 77.1367 310.785 76.084 310.717 74.5117H311.961C312.029 75.4551 312.973 76.043 314.148 76.043C315.447 76.043 316.404 75.332 316.404 74.3066C316.404 73.2266 315.543 72.4609 313.998 72.4609H313.191V71.3809H313.998C315.201 71.3809 316.035 70.7109 316.035 69.6855C316.035 68.7012 315.311 68.0312 314.189 68.0312C313.137 68.0312 312.166 68.6191 312.111 69.5898H310.922C310.99 68.0176 312.439 66.9648 314.203 66.9648C316.09 66.9648 317.238 68.1953 317.225 69.6172C317.238 70.7383 316.582 71.5723 315.543 71.8594V71.9277C316.828 72.1328 317.621 73.0488 317.607 74.3066C317.621 75.9336 316.131 77.1367 314.162 77.1367ZM319.385 77L319.371 76.0977L322.748 72.543C323.924 71.2988 324.484 70.6289 324.484 69.7129C324.484 68.7012 323.623 68.0312 322.516 68.0312C321.34 68.0312 320.588 68.7832 320.588 69.8906H319.426C319.412 68.1406 320.766 66.9648 322.557 66.9648C324.348 66.9648 325.633 68.168 325.633 69.7129C325.633 70.8203 325.113 71.6816 323.363 73.4863L321.094 75.8242V75.9062H325.811V77H319.385ZM329.939 79.7891H327.041V78.8047H328.832V67.6484H327.041V66.6777H329.939V79.7891ZM343.051 71.5996V72.4473H331.922V71.5996H343.051ZM341.656 73.418V76.002H334.355V77.1641H342.053V77.9434H333.275V75.2637H340.59V74.2246H333.262V73.418H341.656ZM341.615 66.3223V68.8379H334.438V69.9043H341.834V70.6836H333.371V68.0996H340.535V67.1016H333.33V66.3223H341.615ZM356.982 65.9531V71.1348H358.924V72.0371H356.982V78.1074H355.902V65.9531H356.982ZM347.398 74.8672C348.39 74.8672 349.545 74.8672 350.748 74.8262V73.4727C349.333 73.3154 348.41 72.4883 348.424 71.2852C348.41 69.918 349.572 69.0293 351.295 69.0293C352.99 69.0293 354.166 69.918 354.18 71.2852C354.166 72.4883 353.229 73.3154 351.828 73.4863V74.7852C352.963 74.7305 354.104 74.6416 355.164 74.4844L355.232 75.3047C352.58 75.7559 349.709 75.7832 347.576 75.7832L347.398 74.8672ZM354.945 67.4434V68.3184H347.617V67.4434H350.748V65.9805H351.828V67.4434H354.945ZM351.295 69.8633C350.174 69.8633 349.422 70.4375 349.422 71.2852C349.422 72.1328 350.174 72.6797 351.295 72.666C352.402 72.6797 353.154 72.1328 353.154 71.2852C353.154 70.4375 352.402 69.8633 351.295 69.8633ZM360.934 73.5547C360.455 73.5547 360.045 73.1582 360.059 72.666C360.045 72.1875 360.455 71.791 360.934 71.791C361.412 71.791 361.809 72.1875 361.809 72.666C361.809 73.1582 361.412 73.5547 360.934 73.5547ZM364.488 73.5547C364.01 73.5547 363.6 73.1582 363.613 72.666C363.6 72.1875 364.01 71.791 364.488 71.791C364.967 71.791 365.363 72.1875 365.363 72.666C365.363 73.1582 364.967 73.5547 364.488 73.5547ZM368.043 73.5547C367.564 73.5547 367.154 73.1582 367.168 72.666C367.154 72.1875 367.564 71.791 368.043 71.791C368.521 71.791 368.918 72.1875 368.918 72.666C368.918 73.1582 368.521 73.5547 368.043 73.5547Z" fill="#111827"/>
</g>
<defs>
<filter id="filter0_d_956_1012" x="0" y="0" width="400" height="106" filterUnits="userSpaceOnUse" color-interpolation-filters="sRGB">
<feFlood flood-opacity="0" result="BackgroundImageFix"/>
<feColorMatrix in="SourceAlpha" type="matrix" values="0 0 0 0 0 0 0 0 0 0 0 0 0 0 0 0 0 0 127 0" result="hardAlpha"/>
<feOffset/>
<feGaussianBlur stdDeviation="5"/>
<feComposite in2="hardAlpha" operator="out"/>
<feColorMatrix type="matrix" values="0 0 0 0 0 0 0 0 0 0 0 0 0 0 0 0 0 0 0.15 0"/>
<feBlend mode="normal" in2="BackgroundImageFix" result="effect1_dropShadow_956_1012"/>
<feBlend mode="normal" in="SourceGraphic" in2="effect1_dropShadow_956_1012" result="shape"/>
</filter>
</defs>
</svg>
