<svg width="400" height="643" viewBox="0 0 400 643" fill="none" xmlns="http://www.w3.org/2000/svg">
<rect width="400" height="643" fill="white"/>
<mask id="mask0_907_2042" style="mask-type:alpha" maskUnits="userSpaceOnUse" x="345" y="20" width="30" height="30">
<rect x="345" y="20" width="30" height="30" fill="#D9D9D9"/>
</mask>
<g mask="url(#mask0_907_2042)">
<path d="M360.001 36.6582L353.684 42.9754C353.454 43.205 353.178 43.3198 352.855 43.3198C352.532 43.3198 352.256 43.205 352.026 42.9754C351.796 42.7458 351.682 42.4696 351.682 42.1466C351.682 41.8237 351.796 41.5475 352.026 41.3179L358.343 35.0007L352.026 28.6835C351.796 28.4539 351.682 28.1777 351.682 27.8548C351.682 27.5319 351.796 27.2556 352.026 27.026C352.256 26.7964 352.532 26.6816 352.855 26.6816C353.178 26.6816 353.454 26.7964 353.684 27.026L360.001 33.3432L366.318 27.026C366.547 26.7964 366.824 26.6816 367.147 26.6816C367.47 26.6816 367.746 26.7964 367.975 27.026C368.205 27.2556 368.32 27.5319 368.32 27.8548C368.32 28.1777 368.205 28.4539 367.975 28.6835L361.658 35.0007L367.975 41.3179C368.205 41.5475 368.32 41.8237 368.32 42.1466C368.32 42.4696 368.205 42.7458 367.975 42.9754C367.746 43.205 367.47 43.3198 367.147 43.3198C366.824 43.3198 366.547 43.205 366.318 42.9754L360.001 36.6582Z" fill="#111827"/>
</g>
<path d="M43.1641 83.9922V105.039H40.9375V83.9922H43.1641ZM31.9375 85.5625C35.0547 85.5625 37.3516 88.4219 37.3516 92.9219C37.3516 97.4453 35.0547 100.305 31.9375 100.305C28.7734 100.305 26.5 97.4453 26.5 92.9219C26.5 88.4219 28.7734 85.5625 31.9375 85.5625ZM31.9375 87.5547C29.9922 87.5547 28.6562 89.6172 28.6562 92.9219C28.6562 96.25 29.9922 98.3125 31.9375 98.3125C33.8594 98.3125 35.1953 96.25 35.1953 92.9219C35.1953 89.6172 33.8594 87.5547 31.9375 87.5547ZM65.7109 94.75V96.5312H46.4922V94.75H65.7109ZM63.2969 84.4609V89.6406H51.1562V91.4453H63.7188V93.1562H48.9531V88H61.0703V86.2188H48.9062V84.4609H63.2969ZM63.3203 98.2422V104.734H49.0469V98.2422H63.3203ZM51.25 100.023V102.93H61.1172V100.023H51.25ZM76.8203 84.3438C81.5547 84.3438 84.3203 85.6094 84.3203 87.9531C84.3203 90.2969 81.5547 91.5859 76.8203 91.5859C72.0859 91.5859 69.3203 90.2969 69.3203 87.9531C69.3203 85.6094 72.0859 84.3438 76.8203 84.3438ZM76.8203 85.9844C73.4688 85.9844 71.6172 86.7109 71.6406 87.9531C71.6172 89.2422 73.4688 89.9219 76.8203 89.9219C80.1719 89.9219 82.0234 89.2422 82.0234 87.9531C82.0234 86.7109 80.1719 85.9844 76.8203 85.9844ZM86.4062 92.875V94.6562H67.2578V92.875H86.4062ZM83.9922 96.2734V101.195H71.7578V103.07H84.5781V104.781H69.5781V99.5781H81.7891V97.9375H69.5547V96.2734H83.9922ZM110.359 83.9922V88.375H113.406V90.2266H110.359V94.6094H108.133V83.9922H110.359ZM110.359 95.5703V100.891H99.0156V102.953H111.086V104.734H96.8359V99.2266H108.156V97.3047H96.7891V95.5703H110.359ZM99.6953 84.7188C102.883 84.7188 105.203 86.6406 105.203 89.4062C105.203 92.1719 102.883 94.0938 99.6953 94.0938C96.5078 94.0938 94.1641 92.1719 94.1875 89.4062C94.1641 86.6406 96.5078 84.7188 99.6953 84.7188ZM99.6953 86.5469C97.75 86.5469 96.3438 87.6953 96.3438 89.4062C96.3438 91.1172 97.75 92.3125 99.6953 92.3125C101.617 92.3125 103.047 91.1172 103.047 89.4062C103.047 87.6953 101.617 86.5469 99.6953 86.5469ZM132.086 83.9922V105.039H129.883V96.25H125.781V94.3984H129.883V90.5078H125.898V88.6797H129.883V83.9922H132.086ZM124.633 85.8438V93.5078H117.602V98.3359C120.578 98.3242 123.062 98.1836 126.062 97.75L126.25 99.5781C122.969 100.094 120.297 100.188 116.969 100.188H115.375V91.75H122.453V87.6484H115.328V85.8438H124.633ZM154.492 95.8281V97.6328H145.961V104.969H143.781V97.6328H135.344V95.8281H154.492ZM152.688 85.2344V87.0156H146.195C146.23 89.6172 149.465 91.9375 153.438 92.4766L152.617 94.2344C149.172 93.6953 146.195 91.9961 144.93 89.5938C143.629 91.9961 140.664 93.6953 137.266 94.2344L136.422 92.4766C140.348 91.9375 143.582 89.6172 143.664 87.0156H137.125V85.2344H152.688ZM162.484 89.7344C162.484 93.0859 163.891 96.6719 166.703 98.3828L165.461 100.094C163.492 98.9102 162.156 96.8125 161.453 94.375C160.668 97.0469 159.227 99.3203 157.188 100.562L155.805 98.8984C158.781 97.1172 160.328 93.4141 160.328 89.8281V85.9141H162.484V89.7344ZM174.156 83.9922V104.992H172.023V83.9922H174.156ZM169.797 84.3906V103.961H167.688V93.2266H164.43V91.375H167.688V84.3906H169.797ZM196.047 100.516V102.367H176.828V100.516H181.422V95.0312C179.699 94.082 178.656 92.5703 178.656 90.6953C178.656 87.3906 181.891 85.2109 186.391 85.2109C190.914 85.2109 194.148 87.3906 194.148 90.6953C194.148 92.5469 193.141 94.0352 191.453 94.9844V100.516H196.047ZM186.391 86.9922C183.086 86.9922 180.812 88.4219 180.812 90.6953C180.812 92.9453 183.086 94.4219 186.391 94.4219C189.672 94.4219 191.992 92.9453 191.992 90.6953C191.992 88.4219 189.672 86.9922 186.391 86.9922ZM183.625 100.516H189.203V95.8281C188.348 96.0508 187.398 96.1562 186.391 96.1562C185.406 96.1562 184.469 96.0508 183.625 95.8516V100.516ZM199.961 103.164C199.047 103.164 198.273 102.414 198.297 101.5C198.273 100.586 199.047 99.8359 199.961 99.8359C200.852 99.8359 201.625 100.586 201.625 101.5C201.625 102.414 200.852 103.164 199.961 103.164Z" fill="#111827"/>
<path d="M38.5176 161.797V177.459H37.1289V161.797H38.5176ZM26.2129 168.459C26.2217 165.137 27.874 163.019 30.2031 163.01C32.5234 163.019 34.2021 165.137 34.1934 168.459C34.2021 171.79 32.5234 173.899 30.2031 173.891C27.874 173.899 26.2217 171.79 26.2129 168.459ZM27.5488 168.459C27.5488 170.999 28.6387 172.669 30.2031 172.66C31.7764 172.669 32.8574 170.999 32.8574 168.459C32.8574 165.919 31.7764 164.249 30.2031 164.24C28.6387 164.249 27.5488 165.919 27.5488 168.459ZM55.4805 169.865V171.008H41.1719V169.865H55.4805ZM42.9824 163.291V162.184H53.6348V165.875H44.4062V167.439H53.9688V168.512H43.0352V164.838H52.2461V163.291H42.9824ZM43.123 177.213V172.432H53.6348V177.213H43.123ZM44.4766 176.088H52.2812V173.557H44.4766V176.088ZM57.7129 171.148C57.7305 167.835 58.627 165.075 60.2441 162.729H61.5801C60.3936 164.46 59.2861 168.02 59.2773 171.148C59.2861 174.286 60.3936 177.837 61.5801 179.586H60.2441C58.627 177.23 57.7305 174.471 57.7129 171.148ZM75.7656 161.797V169.9H74.4121V161.797H75.7656ZM62.9863 168.652C65.3418 167.835 67.0117 165.743 67.0117 163.449V162.254H68.418V163.449C68.4004 165.655 70.0879 167.606 72.4082 168.371L71.7227 169.443C69.8857 168.819 68.4355 167.51 67.7324 165.822C67.0293 167.642 65.5615 169.074 63.707 169.742L62.9863 168.652ZM65.623 171.799V170.691H75.7832V174.436H67.0117V176.123H76.3457V177.248H65.6582V173.363H74.4121V171.799H65.623ZM91.3926 161.797V171.061H90.0039V168.6H86.3477V169.936H79.1758V162.992H86.3477V164.346H90.0039V161.797H91.3926ZM80.5469 168.811H84.9941V164.117H80.5469V168.811ZM80.9688 174.471C80.96 172.59 82.9551 171.509 86.207 171.518C89.4502 171.509 91.4453 172.59 91.4453 174.471C91.4453 176.334 89.4502 177.389 86.207 177.389C82.9551 177.389 80.96 176.334 80.9688 174.471ZM82.3398 174.471C82.3311 175.604 83.8076 176.299 86.207 176.299C88.5977 176.299 90.0742 175.604 90.0742 174.471C90.0742 173.293 88.5977 172.607 86.207 172.59C83.8076 172.607 82.3311 173.293 82.3398 174.471ZM86.3477 167.439H90.0039V165.488H86.3477V167.439ZM97.8965 171.148C97.8789 174.471 96.9824 177.23 95.3652 179.586H94.0293C95.2158 177.837 96.3232 174.286 96.332 171.148C96.3232 168.02 95.2158 164.46 94.0293 162.729H95.3652C96.9824 165.075 97.8789 167.835 97.8965 171.148Z" fill="#0077FA"/>
<mask id="path-5-inside-1_907_2042" fill="white">
<path d="M25 190H375V241H25V190Z"/>
</mask>
<path d="M375 240H25V242H375V240Z" fill="#0077FA" mask="url(#path-5-inside-1_907_2042)"/>
<path d="M35.3564 207.619C35.3564 212.223 31.9727 215.504 26.5996 216.93L25.9434 215.658C30.4448 214.469 33.2954 212.049 33.644 208.932H26.9072V207.619H35.3564ZM28.9375 224.415V217.627H40.791V224.415H28.9375ZM30.5166 223.103H39.2119V218.919H30.5166V223.103ZM39.1914 216.745V206.45H40.791V216.745H39.1914ZM46.1025 208.173V212.623H50.0605V208.173H51.5576V220.108H44.5645V208.173H46.1025ZM46.1025 218.775H50.0605V213.936H46.1025V218.775ZM53.875 223.738V206.819H55.4131V213.669H57.9561V206.43H59.5146V224.661H57.9561V215.002H55.4131V223.738H53.875ZM70.3428 206.778C74.311 206.789 76.772 208.05 76.7822 210.224C76.772 212.356 74.311 213.618 70.3428 213.607C66.3745 213.618 63.8828 212.356 63.8828 210.224C63.8828 208.05 66.3745 206.789 70.3428 206.778ZM62.0371 216.335V215.002H78.6484V216.335H71.1221V218.427H76.6182V224.415H64.0674V218.427H69.543V216.335H62.0371ZM65.5439 210.224C65.5337 211.557 67.3896 212.336 70.3428 212.336C73.2651 212.336 75.1313 211.557 75.1416 210.224C75.1313 208.86 73.2651 208.05 70.3428 208.05C67.3896 208.05 65.5337 208.86 65.5439 210.224ZM65.667 223.103H75.0391V219.719H65.667V223.103Z" fill="#111827"/>
<mask id="mask1_907_2042" style="mask-type:alpha" maskUnits="userSpaceOnUse" x="25" y="251" width="24" height="24">
<rect x="25" y="251" width="24" height="24" fill="#D9D9D9"/>
</mask>
<g mask="url(#mask1_907_2042)">
<path d="M34.5497 266.15L43.0247 257.675C43.2247 257.475 43.4581 257.375 43.7247 257.375C43.9914 257.375 44.2247 257.475 44.4247 257.675C44.6247 257.875 44.7247 258.113 44.7247 258.388C44.7247 258.663 44.6247 258.9 44.4247 259.1L35.2497 268.3C35.0497 268.5 34.8164 268.6 34.5497 268.6C34.2831 268.6 34.0497 268.5 33.8497 268.3L29.5497 264C29.3497 263.8 29.2539 263.562 29.2622 263.287C29.2706 263.012 29.3747 262.775 29.5747 262.575C29.7747 262.375 30.0122 262.275 30.2872 262.275C30.5622 262.275 30.7997 262.375 30.9997 262.575L34.5497 266.15Z" fill="#9CA3AF"/>
</g>
<path d="M79.748 254.816C82.2002 254.834 83.9404 256.311 83.9492 258.49C83.9404 260.459 82.5166 261.856 80.4336 262.103V264.766C81.9805 264.687 83.5625 264.555 85.0391 264.326L85.1445 265.346C81.5674 266.014 77.7266 266.022 74.9141 266.031L74.7207 264.871C75.9951 264.871 77.4805 264.871 79.0449 264.818V262.103C76.9531 261.848 75.5205 260.459 75.5293 258.49C75.5205 256.311 77.2783 254.834 79.748 254.816ZM76.8828 258.49C76.874 259.94 78.0781 260.96 79.748 260.951C81.4004 260.96 82.6045 259.94 82.5957 258.49C82.6045 257.022 81.4004 256.029 79.748 256.029C78.0781 256.029 76.874 257.022 76.8828 258.49ZM86.0762 269.459V253.797H87.4473V269.459H86.0762ZM102.617 254.57V255.695C102.617 256.855 102.617 258.262 102.23 260.143H104.498V261.268H97.9941V264.15H102.723V269.424H101.334V265.293H91.666V264.15H96.623V261.268H90.1895V260.143H100.842C101.255 258.235 101.255 256.855 101.246 255.695H92V254.57H102.617ZM118.648 253.814V265.24H117.277V253.814H118.648ZM106.115 258.736C106.106 256.486 107.873 254.913 110.211 254.904C112.549 254.913 114.298 256.486 114.307 258.736C114.298 261.013 112.549 262.595 110.211 262.586C107.873 262.595 106.106 261.013 106.115 258.736ZM107.469 258.736C107.451 260.292 108.629 261.373 110.211 261.373C111.767 261.373 112.953 260.292 112.953 258.736C112.953 257.207 111.767 256.117 110.211 256.117C108.629 256.117 107.451 257.207 107.469 258.736ZM108.559 269.09V264.08H109.93V267.93H119.141V269.09H108.559ZM134.188 253.797V269.459H132.799V253.797H134.188ZM121.883 260.459C121.892 257.137 123.544 255.019 125.873 255.01C128.193 255.019 129.872 257.137 129.863 260.459C129.872 263.79 128.193 265.899 125.873 265.891C123.544 265.899 121.892 263.79 121.883 260.459ZM123.219 260.459C123.219 262.999 124.309 264.669 125.873 264.66C127.446 264.669 128.527 262.999 128.527 260.459C128.527 257.919 127.446 256.249 125.873 256.24C124.309 256.249 123.219 257.919 123.219 260.459ZM141.5 258.244C141.5 260.731 142.713 263.412 144.787 264.643L143.996 265.715C142.484 264.801 141.403 263.131 140.858 261.224C140.287 263.307 139.127 265.1 137.562 266.049L136.684 265.012C138.846 263.746 140.164 260.978 140.164 258.297V255.273H141.5V258.244ZM143.064 260.582V259.404H145.719V254.131H147.02V268.633H145.719V260.582H143.064ZM148.918 269.424V253.797H150.254V269.424H148.918ZM166.725 266.26V267.42H152.416V266.26H155.967V262.05C154.631 261.355 153.822 260.23 153.822 258.807C153.822 256.39 156.195 254.799 159.535 254.781C162.875 254.799 165.248 256.39 165.248 258.807C165.248 260.204 164.466 261.312 163.174 262.006V266.26H166.725ZM155.158 258.807C155.149 260.556 156.969 261.725 159.535 261.725C162.075 261.725 163.912 260.556 163.912 258.807C163.912 257.058 162.075 255.906 159.535 255.924C156.969 255.906 155.149 257.058 155.158 258.807ZM157.32 266.26H161.785V262.542C161.108 262.718 160.353 262.814 159.535 262.814C158.735 262.814 157.988 262.727 157.32 262.551V266.26ZM170.469 264.326C170.486 261.971 171.207 261.25 172.42 260.512C173.149 260.072 173.703 259.369 173.703 258.385C173.703 257.189 172.771 256.425 171.611 256.434C170.609 256.425 169.599 257.022 169.502 258.473H167.902C167.99 256.337 169.599 255.098 171.611 255.098C173.817 255.098 175.25 256.513 175.25 258.455C175.25 259.835 174.6 260.793 173.51 261.461C172.411 262.129 172.016 262.806 171.98 264.326V264.414H170.469V264.326ZM170.152 266.963C170.135 266.348 170.662 265.838 171.277 265.838C171.901 265.838 172.411 266.348 172.402 266.963C172.411 267.587 171.901 268.097 171.277 268.105C170.662 268.097 170.135 267.587 170.152 266.963Z" fill="#111827"/>
</svg>
