<svg width="400" height="727" viewBox="0 0 400 727" fill="none" xmlns="http://www.w3.org/2000/svg">
<rect width="400" height="727" fill="white"/>
<path d="M198.42 103.117L189.399 99.8319L183 105.148L195.831 109.752C197.442 110.331 199.239 110.008 200.551 108.906L217 95.0704L210.814 92.8184L198.42 103.117Z" fill="#0047A0"/>
<path d="M208.477 91.9661L216.998 84.8851L204.169 80.283C202.558 79.7039 200.761 80.0271 199.449 81.1286L183 94.9627L191.521 98.0666L201.792 89.5318L208.477 91.9661Z" fill="#CD2E3A"/>
<path opacity="0.5" d="M208.478 91.9676L201.794 89.5332L191.521 98.0681L198.207 100.502L208.478 91.9676Z" fill="#3F4D56"/>
<path d="M208.478 91.9676L201.794 89.5332L191.521 98.0681L198.207 100.502L208.478 91.9676Z" fill="#091F2C"/>
<path d="M106.63 159.595V161.748H89.5474V159.595H96.7456V155.78H91.3521V146.634H104.723V155.78H99.3501V159.595H106.63ZM93.9361 148.726V153.729H102.139V148.726H93.9361ZM122.001 145.26V152.232H124.749V154.427H122.001V163.922H119.376V145.26H122.001ZM110.476 146.736V151.289H114.352V146.736H116.956V159.595H107.872V146.736H110.476ZM110.476 157.482H114.352V153.319H110.476V157.482ZM130.318 145.813C133.148 145.813 135.301 147.577 135.301 150.079C135.301 152.54 133.148 154.324 130.318 154.324C127.426 154.324 125.293 152.54 125.293 150.079C125.293 147.577 127.426 145.813 130.318 145.813ZM130.318 147.946C128.882 147.946 127.816 148.726 127.836 150.079C127.816 151.412 128.882 152.212 130.318 152.212C131.733 152.212 132.779 151.412 132.779 150.079C132.779 148.726 131.733 147.946 130.318 147.946ZM140.633 145.26V154.611H138.008V145.26H140.633ZM140.633 155.391V160.456H130.707V161.666H141.146V163.717H128.144V158.549H138.029V157.4H128.103V155.391H140.633ZM162.782 145.28V158.897H160.157V145.28H162.782ZM163.275 161.502V163.594H150.273V157.585H152.918V161.502H163.275ZM154.313 148.11C154.292 150.571 155.605 152.991 158.681 153.976L157.348 156.026C155.246 155.329 153.79 153.935 152.959 152.15C152.129 154.068 150.632 155.606 148.447 156.354L147.094 154.283C150.232 153.237 151.585 150.633 151.585 148.11V146.306H154.313V148.11ZM181.947 154.837V156.888H174.913V159.902H172.329V156.888H164.864V154.837H181.947ZM180.061 161.502V163.594H166.874V158.426H169.458V161.502H180.061ZM169.643 145.854V147.803H177.128V145.854H179.733V153.524H167.059V145.854H169.643ZM169.643 151.453H177.128V149.751H169.643V151.453ZM199.636 153.853V155.965H182.614V153.853H199.636ZM191.105 157.011C195.145 157.011 197.585 158.282 197.606 160.477C197.585 162.691 195.145 163.922 191.105 163.922C187.023 163.922 184.563 162.691 184.563 160.477C184.563 158.282 187.023 157.011 191.105 157.011ZM191.105 159.041C188.521 159.041 187.208 159.492 187.229 160.477C187.208 161.44 188.521 161.892 191.105 161.892C193.627 161.892 194.96 161.44 194.981 160.477C194.96 159.492 193.627 159.041 191.105 159.041ZM198.098 146.121V148.213H193.012C193.432 149.515 195.329 150.807 198.918 151.125L197.995 153.176C194.478 152.837 192.099 151.504 191.105 149.689C190.12 151.504 187.782 152.837 184.234 153.176L183.373 151.125C186.88 150.807 188.797 149.525 189.238 148.213H184.173V146.121H198.098ZM208.854 145.526C213.141 145.526 215.622 146.654 215.643 148.705C215.622 150.776 213.141 151.904 208.854 151.904C204.548 151.904 202.046 150.776 202.046 148.705C202.046 146.654 204.548 145.526 208.854 145.526ZM208.854 147.434C206.106 147.434 204.773 147.885 204.794 148.705C204.773 149.628 206.106 149.977 208.854 149.977C211.623 149.977 212.936 149.628 212.936 148.705C212.936 147.885 211.623 147.434 208.854 147.434ZM217.365 152.786V154.857H200.344V152.786H217.365ZM215.294 155.944V160.702H204.896V161.83H215.786V163.799H202.333V158.877H212.71V157.852H202.312V155.944H215.294ZM238.12 145.26V163.963H235.474V145.26H238.12ZM227.989 146.572C230.799 146.572 232.89 149.156 232.89 153.217C232.89 157.318 230.799 159.882 227.989 159.882C225.118 159.882 223.026 157.318 223.047 153.217C223.026 149.156 225.118 146.572 227.989 146.572ZM227.989 148.931C226.533 148.931 225.569 150.448 225.569 153.217C225.569 156.006 226.533 157.503 227.989 157.503C229.404 157.503 230.368 156.006 230.368 153.217C230.368 150.448 229.404 148.931 227.989 148.931ZM257.244 154.099V156.19H240.222V154.099H244.057V151.863C242.694 151.258 241.925 150.335 241.925 149.136C241.925 146.88 244.57 145.526 248.733 145.526C252.855 145.526 255.501 146.88 255.521 149.136C255.511 150.346 254.711 151.289 253.327 151.884V154.099H257.244ZM248.713 157.175C252.753 157.175 255.193 158.364 255.214 160.518C255.193 162.712 252.753 163.901 248.713 163.901C244.611 163.901 242.171 162.712 242.171 160.518C242.171 158.364 244.611 157.175 248.713 157.175ZM248.713 159.144C246.129 159.144 244.816 159.595 244.837 160.518C244.816 161.481 246.129 161.953 248.713 161.953C251.235 161.953 252.568 161.481 252.589 160.518C252.568 159.595 251.235 159.144 248.713 159.144ZM248.733 147.536C246.088 147.536 244.632 148.09 244.652 149.136C244.632 150.161 246.088 150.674 248.733 150.674C251.338 150.674 252.814 150.161 252.814 149.136C252.814 148.09 251.338 147.536 248.733 147.536ZM246.703 154.099H250.722V152.54C250.107 152.612 249.441 152.643 248.733 152.643C248.005 152.643 247.328 152.612 246.703 152.52V154.099ZM272.676 145.26V152.561H275.424V154.714H272.676V163.922H270.092V145.26H272.676ZM268.821 148.049V150.141H257.849V148.049H262.074V145.547H264.699V148.049H268.821ZM263.386 151.187C266.114 151.187 268.144 153.032 268.144 155.637C268.144 158.241 266.114 160.087 263.386 160.087C260.638 160.087 258.608 158.241 258.608 155.637C258.608 153.032 260.638 151.187 263.386 151.187ZM263.386 153.299C262.074 153.319 261.11 154.201 261.11 155.637C261.11 157.093 262.074 157.954 263.386 157.934C264.699 157.954 265.642 157.093 265.642 155.637C265.642 154.201 264.699 153.319 263.386 153.299ZM291.411 145.26V163.963H288.806V156.437H285.607V154.283H288.806V151.351H285.669V149.218H288.806V145.26H291.411ZM284.684 146.818V153.996H278.942V157.626C281.249 157.616 283.3 157.503 285.648 157.154L285.853 159.287C283.064 159.738 280.685 159.779 277.814 159.779H276.337V151.966H282.121V148.89H276.296V146.818H284.684ZM303.049 146.777V148.192H306.536V145.28H309.14V158.856H306.536V154.283H303.049V155.862H294.19V146.777H303.049ZM296.794 148.849V153.832H300.486V148.849H296.794ZM309.53 161.502V163.594H296.712V157.564H299.358V161.502H309.53ZM303.049 152.212H306.536V150.305H303.049V152.212ZM149.283 174.28V188.328H146.637V186.257H142.987V184.206H146.637V174.28H149.283ZM149.713 190.502V192.594H135.788V186.893H138.188V183.304C136.516 183.375 134.927 183.396 133.533 183.406L133.204 181.335C135.419 181.325 138.147 181.294 140.895 181.13C141.12 179.52 141.213 178.238 141.243 177.254H134.907V175.183H143.868V175.88C143.868 176.844 143.868 178.556 143.499 180.925C144.104 180.863 144.709 180.802 145.304 180.72L145.468 182.565C143.93 182.842 142.341 183.027 140.772 183.14V187.159H138.413V190.502H149.713ZM165.864 174.28V180.002H168.386V182.135H165.864V188.205H163.239V174.28H165.864ZM162.131 176.229V178.3H151.057V176.229H155.302V174.239H157.906V176.229H162.131ZM156.594 178.956C159.301 178.956 161.188 180.412 161.188 182.565C161.188 184.719 159.301 186.134 156.594 186.134C153.866 186.134 151.959 184.719 151.959 182.565C151.959 180.412 153.866 178.956 156.594 178.956ZM156.594 180.945C155.343 180.966 154.502 181.54 154.523 182.565C154.502 183.591 155.343 184.145 156.594 184.145C157.845 184.145 158.706 183.591 158.706 182.565C158.706 181.54 157.845 180.966 156.594 180.945ZM166.54 190.502V192.594H153.764V187.139H156.368V190.502H166.54ZM184.413 174.26V192.963H181.768V174.26H184.413ZM174.282 175.572C177.092 175.572 179.184 178.156 179.184 182.217C179.184 186.318 177.092 188.882 174.282 188.882C171.411 188.882 169.319 186.318 169.34 182.217C169.319 178.156 171.411 175.572 174.282 175.572ZM174.282 177.931C172.826 177.931 171.862 179.448 171.862 182.217C171.862 185.006 172.826 186.503 174.282 186.503C175.697 186.503 176.661 185.006 176.661 182.217C176.661 179.448 175.697 177.931 174.282 177.931ZM206.604 174.26V183.837H203.979V174.26H206.604ZM206.604 184.575V189.559H196.534V190.728H207.116V192.799H193.95V187.692H204.02V186.605H193.909V184.575H206.604ZM201.887 175.408V177.397H200.349V181.109C201.118 181.058 201.876 180.986 202.604 180.904L202.728 182.771C199.016 183.365 194.771 183.468 191.53 183.468L191.243 181.417L193.253 181.396V177.397H191.735V175.408H201.887ZM195.755 181.335L197.826 181.273V177.397H195.755V181.335ZM225.748 188.595V190.748H208.665V188.595H212.479V184.021C211.034 183.16 210.162 181.837 210.162 180.187C210.162 177.172 213.115 175.162 217.176 175.162C221.216 175.162 224.189 177.172 224.21 180.187C224.2 181.796 223.349 183.109 221.954 183.98V188.595H225.748ZM217.176 177.233C214.51 177.233 212.746 178.3 212.746 180.187C212.746 182.012 214.51 183.14 217.176 183.14C219.821 183.14 221.605 182.012 221.626 180.187C221.605 178.3 219.821 177.233 217.176 177.233ZM215.063 188.595H219.309V184.965C218.642 185.098 217.924 185.17 217.176 185.17C216.427 185.17 215.72 185.108 215.063 184.965V188.595ZM235.397 177.11V179.182H226.374V177.11H229.614V174.772H232.198V177.11H235.397ZM230.927 180.022C233.306 180.022 235.008 181.868 235.028 184.452C235.008 187.057 233.306 188.902 230.927 188.902C228.548 188.902 226.805 187.057 226.805 184.452C226.805 181.868 228.548 180.022 230.927 180.022ZM230.927 182.196C229.84 182.196 229.101 183.037 229.101 184.452C229.101 185.867 229.84 186.688 230.927 186.688C231.973 186.688 232.711 185.867 232.731 184.452C232.711 183.037 231.973 182.196 230.927 182.196ZM242.534 174.26V192.922H240.053V183.939H238.535V192.122H236.095V174.629H238.535V181.848H240.053V174.26H242.534ZM261.207 188.595V190.748H244.124V188.595H247.938V184.021C246.492 183.16 245.621 181.837 245.621 180.187C245.621 177.172 248.574 175.162 252.635 175.162C256.675 175.162 259.648 177.172 259.669 180.187C259.658 181.796 258.807 183.109 257.413 183.98V188.595H261.207ZM252.635 177.233C249.969 177.233 248.205 178.3 248.205 180.187C248.205 182.012 249.969 183.14 252.635 183.14C255.28 183.14 257.064 182.012 257.085 180.187C257.064 178.3 255.28 177.233 252.635 177.233ZM250.522 188.595H254.767V184.965C254.101 185.098 253.383 185.17 252.635 185.17C251.886 185.17 251.178 185.108 250.522 184.965V188.595ZM264.273 191.22C263.309 191.22 262.53 190.44 262.55 189.497C262.53 188.554 263.309 187.795 264.273 187.795C265.175 187.795 265.975 188.554 265.975 189.497C265.975 190.44 265.175 191.22 264.273 191.22Z" fill="#111827"/>
<mask id="path-6-inside-1_898_5666" fill="white">
<path d="M20 298.035H380V511.035H20V298.035Z"/>
</mask>
<path d="M20 298.535H380V297.535H20V298.535ZM380 510.535H20V511.535H380V510.535Z" fill="#6B7280" mask="url(#path-6-inside-1_898_5666)"/>
<rect x="20" y="321.535" width="42" height="42" rx="21" fill="#EEEEEE"/>
<mask id="mask0_898_5666" style="mask-type:alpha" maskUnits="userSpaceOnUse" x="29" y="330" width="24" height="25">
<rect x="29" y="330.535" width="24" height="24" fill="#D9D9D9"/>
</mask>
<g mask="url(#mask0_898_5666)">
<path d="M41 348.035C42.25 348.035 43.3125 347.598 44.1875 346.723C45.0625 345.848 45.5 344.785 45.5 343.535C45.5 342.285 45.0625 341.223 44.1875 340.348C43.3125 339.473 42.25 339.035 41 339.035C39.75 339.035 38.6875 339.473 37.8125 340.348C36.9375 341.223 36.5 342.285 36.5 343.535C36.5 344.785 36.9375 345.848 37.8125 346.723C38.6875 347.598 39.75 348.035 41 348.035ZM41 346.035C40.3 346.035 39.7083 345.793 39.225 345.31C38.7417 344.827 38.5 344.235 38.5 343.535C38.5 342.835 38.7417 342.243 39.225 341.76C39.7083 341.277 40.3 341.035 41 341.035C41.7 341.035 42.2917 341.277 42.775 341.76C43.2583 342.243 43.5 342.835 43.5 343.535C43.5 344.235 43.2583 344.827 42.775 345.31C42.2917 345.793 41.7 346.035 41 346.035ZM33 351.535C32.45 351.535 31.9792 351.339 31.5875 350.948C31.1958 350.556 31 350.085 31 349.535V337.535C31 336.985 31.1958 336.514 31.5875 336.123C31.9792 335.731 32.45 335.535 33 335.535H36.15L38 333.535H44L45.85 335.535H49C49.55 335.535 50.0208 335.731 50.4125 336.123C50.8042 336.514 51 336.985 51 337.535V349.535C51 350.085 50.8042 350.556 50.4125 350.948C50.0208 351.339 49.55 351.535 49 351.535H33ZM33 349.535H49V337.535H44.95L43.125 335.535H38.875L37.05 337.535H33V349.535Z" fill="#111827"/>
</g>
<path d="M87.7715 324.379C87.7539 329.02 86.3301 333.15 80.582 335.98L79.668 334.732C82.5156 333.335 84.2119 331.639 85.1523 329.635L80.002 330.127L79.7559 328.686L85.6621 328.281C85.8994 327.481 86.04 326.629 86.1016 325.732H80.582V324.379H87.7715ZM91.8496 322.779V329.072H94.293V330.443H91.8496V338.512H90.1797V322.779H91.8496ZM101.781 324.555V328.65H103.891V323.078H105.49V337.756H103.891V330.021H101.781V334.381H95.6641V324.555H101.781ZM97.2461 325.873V333.045H100.217V325.873H97.2461ZM108.689 322.779V338.529H107.09V322.779H108.689ZM122.963 322.779V328.932H125.494V330.338H122.963V338.564H121.311V322.779H122.963ZM118.516 324.203V329.986H112.996V333.396C115.703 333.388 117.707 333.291 120.01 332.869L120.168 334.223C117.707 334.68 115.58 334.785 112.627 334.803H111.344V328.633H116.863V325.557H111.309V324.203H118.516ZM131.594 332.184C131.611 328.879 132.543 326.119 134.195 323.764H135.918C134.705 325.504 133.545 329.055 133.545 332.184C133.545 335.33 134.705 338.863 135.918 340.621H134.195C132.543 338.266 131.611 335.506 131.594 332.184ZM150.174 322.779V330.918H148.486V322.779H150.174ZM150.174 331.639V335.541H141.402V337.035H150.719V338.371H139.768V334.328H148.521V332.957H139.715V331.639H150.174ZM146.324 323.816V325.135H144.812V328.861C145.577 328.809 146.333 328.738 147.045 328.65L147.115 329.863C143.969 330.338 140.295 330.443 137.535 330.443L137.342 329.107L139.258 329.09V325.135H137.764V323.816H146.324ZM140.857 329.055C141.631 329.028 142.422 329.002 143.213 328.949V325.135H140.857V329.055ZM160.703 324.168C160.686 326.26 163.252 328.229 166.346 328.633L165.695 330.004C163.12 329.591 160.853 328.255 159.842 326.4C158.805 328.264 156.546 329.591 153.988 330.004L153.32 328.633C156.414 328.229 158.945 326.277 158.963 324.168V323.307H160.703V324.168ZM166.996 331.551V332.922H160.598V338.529H158.963V332.922H152.635V331.551H166.996ZM172.516 332.184C172.498 335.506 171.566 338.266 169.914 340.621H168.191C169.404 338.863 170.564 335.33 170.564 332.184C170.564 329.055 169.404 325.504 168.191 323.764H169.914C171.566 326.119 172.498 328.879 172.516 332.184Z" fill="#111827"/>
<path d="M91.125 349.379V359.629H89.6406V349.379H91.125ZM91.5469 361.863V363.066H81.9688V358.66H83.4688V361.863H91.5469ZM84.6094 351.535C84.5938 353.582 85.9062 355.457 88.0625 356.207L87.2969 357.395C85.6797 356.793 84.4844 355.605 83.8594 354.082C83.2422 355.707 82.0312 357.012 80.3906 357.645L79.5938 356.473C81.7969 355.66 83.0938 353.645 83.0938 351.535V350.145H84.6094V351.535ZM104.984 349.379V359.988H103.5V358.645H100.688V357.598H103.5V349.379H104.984ZM105.328 361.863V363.066H95.2188V358.957H96.6875V361.863H105.328ZM93.2812 355.77C95.875 355.754 99.3594 355.723 102.344 355.348L102.438 356.41C101.242 356.605 99.9844 356.738 98.75 356.816V359.551H97.2656V356.895C95.9062 356.957 94.6016 356.965 93.4688 356.957L93.2812 355.77ZM97.8594 349.91C99.9062 349.91 101.328 350.895 101.328 352.379C101.328 353.863 99.9062 354.816 97.8594 354.816C95.7812 354.816 94.375 353.863 94.375 352.379C94.375 350.895 95.7812 349.91 97.8594 349.91ZM97.8594 351.02C96.6094 351.004 95.7656 351.535 95.7812 352.379C95.7656 353.207 96.6094 353.723 97.8594 353.723C99.0625 353.723 99.9062 353.207 99.9219 352.379C99.9062 351.535 99.0625 351.004 97.8594 351.02ZM119.938 355.957V357.16H107.172V355.957H119.938ZM113.547 358.238C116.562 358.238 118.375 359.176 118.375 360.801C118.375 362.426 116.562 363.348 113.547 363.332C110.516 363.348 108.688 362.426 108.688 360.801C108.688 359.176 110.516 358.238 113.547 358.238ZM113.547 359.395C111.406 359.41 110.188 359.895 110.188 360.801C110.188 361.691 111.406 362.16 113.547 362.16C115.656 362.16 116.891 361.691 116.891 360.801C116.891 359.895 115.656 359.41 113.547 359.395ZM118.797 350.051V351.27H114.547C114.711 352.629 116.695 353.785 119.281 354.051L118.75 355.223C116.328 354.941 114.32 353.918 113.562 352.441C112.781 353.918 110.781 354.941 108.359 355.223L107.844 354.051C110.383 353.785 112.383 352.637 112.562 351.27H108.344V350.051H118.797ZM132.672 349.363V357.629H131.188V355.551H128.141V356.691H121.641V350.41H128.141V351.566H131.188V349.363H132.672ZM123.109 351.598V355.504H126.688V351.598H123.109ZM127.984 358.02C130.922 358.02 132.719 358.988 132.719 360.691C132.719 362.379 130.922 363.348 127.984 363.332C125.047 363.348 123.234 362.379 123.25 360.691C123.234 358.988 125.047 358.02 127.984 358.02ZM127.984 359.16C125.938 359.176 124.719 359.707 124.719 360.691C124.719 361.629 125.938 362.191 127.984 362.191C130.031 362.191 131.25 361.629 131.25 360.691C131.25 359.707 130.031 359.176 127.984 359.16ZM128.141 354.348H131.188V352.754H128.141V354.348ZM139.969 352.926C139.953 355.488 141.5 358.051 143.672 359.02L142.781 360.191C141.172 359.426 139.898 357.855 139.25 355.941C138.594 357.988 137.305 359.684 135.625 360.504L134.719 359.254C136.922 358.27 138.469 355.598 138.469 352.926V350.535H139.969V352.926ZM146.422 349.363V363.395H144.938V349.363H146.422ZM157.344 358.363H159.031L160.125 359.77C160.867 359.066 161.328 357.926 161.328 356.379C161.328 353.629 159.875 352.145 157.938 352.145C155.984 352.145 154.531 353.629 154.531 356.379C154.531 359.129 155.984 360.613 157.938 360.613C158.297 360.613 158.633 360.566 158.953 360.457L157.344 358.363ZM163.031 356.379C163.031 358.457 162.312 360.074 161.141 361.066L162.672 363.051H160.906L159.953 361.801C159.344 362.059 158.664 362.191 157.938 362.191C154.984 362.191 152.828 359.988 152.828 356.379C152.828 352.754 154.984 350.566 157.938 350.566C160.859 350.566 163.031 352.754 163.031 356.379ZM164.969 362.035V350.723H169C171.625 350.723 172.922 352.191 172.922 354.27C172.922 355.793 172.234 356.949 170.859 357.457L173.359 362.035H171.406L169.109 357.77H169H166.688V362.035H164.969ZM166.688 356.285H168.828C170.5 356.285 171.188 355.551 171.188 354.27C171.188 352.988 170.5 352.191 168.828 352.191H166.688V356.285ZM185.484 350.66V351.973C185.469 353.676 185.484 355.613 184.891 358.52L183.438 358.363C183.695 357.168 183.844 356.113 183.922 355.16L175.5 355.66L175.281 354.379L184 354.035C184.031 353.285 184.031 352.605 184.031 351.973V351.879H175.703V350.66H185.484ZM186.953 360.316V361.551H174.188V360.316H179.047V356.77H180.516V360.316H186.953ZM199.359 356.004V357.223H189.609V350.613H199.234V351.832H191.078V356.004H199.359ZM200.828 360.285V361.52H188.016V360.285H200.828ZM212.859 351.348C212.859 353.629 215.297 355.785 217.984 356.27L217.297 357.504C215.062 357.02 213 355.551 212.094 353.582C211.172 355.535 209.117 357.004 206.875 357.504L206.219 356.27C208.875 355.77 211.297 353.629 211.297 351.348V350.285H212.859V351.348ZM218.562 360.285V361.52H205.75V360.285H218.562ZM231.516 349.379V359.895H230.109V354.848H228.422V359.457H227.016V349.629H228.422V353.613H230.109V349.379H231.516ZM231.938 361.863V363.066H222.188V358.629H223.672V361.863H231.938ZM225.797 350.566C225.797 354.051 224.297 356.723 220.375 358.379L219.656 357.316C221.562 356.527 222.805 355.52 223.547 354.285L219.891 354.691L219.672 353.441L224.062 353.176C224.203 352.73 224.305 352.262 224.359 351.77H220.312V350.566H225.797ZM249.141 355.707V356.895H244.078V350.629H249V351.832H245.562V355.707H249.141ZM250.125 360.41V361.613H237.312V360.41H242.938V357.566H244.391V360.41H250.125ZM243.203 350.645V351.848H239.859V355.676C241.023 355.66 242.117 355.566 243.328 355.301L243.453 356.535C241.953 356.863 240.688 356.895 239.203 356.895H238.375V350.645H243.203ZM262.469 353.457V354.645H252.828V349.863H254.297V353.457H262.469ZM263.938 356.41V357.598H251.125V356.41H263.938ZM262.562 361.816V363.035H252.719V358.926H254.203V361.816H262.562ZM276.984 350.488V351.582H273.984C274.055 352.59 275.391 353.418 277.297 353.676L276.797 354.754C275.125 354.504 273.875 353.824 273.281 352.879C272.672 353.879 271.398 354.605 269.703 354.879L269.203 353.816C271.125 353.527 272.453 352.645 272.531 351.582H269.531V350.488H272.531V349.316H273.984V350.488H276.984ZM273.984 354.285V355.629C275.211 355.574 276.438 355.48 277.578 355.332L277.688 356.363C274.75 356.848 271.484 356.879 269.016 356.879L268.859 355.738C269.953 355.738 271.219 355.73 272.531 355.691V354.285H273.984ZM279.891 357.816V360.973H272.156V362.098H280.406V363.223H270.672V359.941H278.422V358.91H270.641V357.816H279.891ZM279.891 349.363V352.613H281.891V353.816H279.891V357.238H278.406V349.363H279.891ZM286.578 350.176C287.742 350.168 288.734 350.605 289.391 351.332H292.891V349.363H294.375V357.629H292.891V355.738H289.375C288.727 356.457 287.734 356.887 286.578 356.879C284.469 356.895 282.906 355.488 282.906 353.535C282.906 351.566 284.469 350.16 286.578 350.176ZM286.578 351.457C285.266 351.441 284.328 352.285 284.328 353.535C284.328 354.754 285.266 355.629 286.578 355.613C287.859 355.629 288.797 354.754 288.797 353.535C288.797 352.285 287.859 351.441 286.578 351.457ZM289.688 357.941C292.594 357.941 294.422 358.926 294.422 360.645C294.422 362.348 292.594 363.348 289.688 363.332C286.766 363.348 284.938 362.348 284.953 360.645C284.938 358.926 286.766 357.941 289.688 357.941ZM289.688 359.082C287.641 359.082 286.391 359.645 286.406 360.645C286.391 361.613 287.641 362.16 289.688 362.16C291.75 362.16 292.969 361.613 292.969 360.645C292.969 359.645 291.75 359.082 289.688 359.082ZM290.062 352.52C290.164 352.832 290.219 353.176 290.219 353.535C290.219 353.879 290.164 354.215 290.078 354.52H292.891V352.52H290.062Z" fill="#6B7280"/>
<rect x="20" y="383.535" width="42" height="42" rx="21" fill="#EEEEEE"/>
<mask id="mask1_898_5666" style="mask-type:alpha" maskUnits="userSpaceOnUse" x="29" y="392" width="24" height="25">
<rect x="29" y="392.535" width="24" height="24" fill="#D9D9D9"/>
</mask>
<g mask="url(#mask1_898_5666)">
<path d="M34 413.535C33.45 413.535 32.9792 413.339 32.5875 412.948C32.1958 412.556 32 412.085 32 411.535V397.535C32 396.985 32.1958 396.514 32.5875 396.123C32.9792 395.731 33.45 395.535 34 395.535H48C48.55 395.535 49.0208 395.731 49.4125 396.123C49.8042 396.514 50 396.985 50 397.535V411.535C50 412.085 49.8042 412.556 49.4125 412.948C49.0208 413.339 48.55 413.535 48 413.535H34ZM34 411.535H48V397.535H34V411.535ZM35 409.535H47L43.25 404.535L40.25 408.535L38 405.535L35 409.535ZM37.5 402.535C37.9167 402.535 38.2708 402.389 38.5625 402.098C38.8542 401.806 39 401.452 39 401.035C39 400.618 38.8542 400.264 38.5625 399.973C38.2708 399.681 37.9167 399.535 37.5 399.535C37.0833 399.535 36.7292 399.681 36.4375 399.973C36.1458 400.264 36 400.618 36 401.035C36 401.452 36.1458 401.806 36.4375 402.098C36.7292 402.389 37.0833 402.535 37.5 402.535Z" fill="#111827"/>
</g>
<path d="M87.7715 386.379C87.7539 391.02 86.3301 395.15 80.582 397.98L79.668 396.732C82.5156 395.335 84.2119 393.639 85.1523 391.635L80.002 392.127L79.7559 390.686L85.6621 390.281C85.8994 389.481 86.04 388.629 86.1016 387.732H80.582V386.379H87.7715ZM91.8496 384.779V391.072H94.293V392.443H91.8496V400.512H90.1797V384.779H91.8496ZM101.781 386.555V390.65H103.891V385.078H105.49V399.756H103.891V392.021H101.781V396.381H95.6641V386.555H101.781ZM97.2461 387.873V395.045H100.217V387.873H97.2461ZM108.689 384.779V400.529H107.09V384.779H108.689ZM122.963 384.779V390.932H125.494V392.338H122.963V400.564H121.311V384.779H122.963ZM118.516 386.203V391.986H112.996V395.396C115.703 395.388 117.707 395.291 120.01 394.869L120.168 396.223C117.707 396.68 115.58 396.785 112.627 396.803H111.344V390.633H116.863V387.557H111.309V386.203H118.516ZM131.594 394.184C131.611 390.879 132.543 388.119 134.195 385.764H135.918C134.705 387.504 133.545 391.055 133.545 394.184C133.545 397.33 134.705 400.863 135.918 402.621H134.195C132.543 400.266 131.611 397.506 131.594 394.184ZM150.174 384.779V392.918H148.486V384.779H150.174ZM150.174 393.639V397.541H141.402V399.035H150.719V400.371H139.768V396.328H148.521V394.957H139.715V393.639H150.174ZM146.324 385.816V387.135H144.812V390.861C145.577 390.809 146.333 390.738 147.045 390.65L147.115 391.863C143.969 392.338 140.295 392.443 137.535 392.443L137.342 391.107L139.258 391.09V387.135H137.764V385.816H146.324ZM140.857 391.055C141.631 391.028 142.422 391.002 143.213 390.949V387.135H140.857V391.055ZM160.703 386.168C160.686 388.26 163.252 390.229 166.346 390.633L165.695 392.004C163.12 391.591 160.853 390.255 159.842 388.4C158.805 390.264 156.546 391.591 153.988 392.004L153.32 390.633C156.414 390.229 158.945 388.277 158.963 386.168V385.307H160.703V386.168ZM166.996 393.551V394.922H160.598V400.529H158.963V394.922H152.635V393.551H166.996ZM172.516 394.184C172.498 397.506 171.566 400.266 169.914 402.621H168.191C169.404 400.863 170.564 397.33 170.564 394.184C170.564 391.055 169.404 387.504 168.191 385.764H169.914C171.566 388.119 172.498 390.879 172.516 394.184Z" fill="#111827"/>
<path d="M90.4844 411.363V417.223H92.5938V418.473H90.4844V425.363H89V411.363H90.4844ZM79.3438 421.551C80.4453 421.551 81.7266 421.551 83.0625 421.504V420.082C81.4844 419.863 80.4531 418.91 80.4688 417.551C80.4531 415.973 81.8125 414.926 83.8125 414.926C85.7969 414.926 87.1719 415.973 87.1875 417.551C87.1719 418.91 86.125 419.871 84.5469 420.098V421.441C85.7891 421.395 87.0391 421.293 88.2031 421.129L88.2969 422.223C85.2656 422.77 81.9844 422.785 79.5781 422.785L79.3438 421.551ZM88 413.02V414.207H79.6094V413.02H83.0625V411.395H84.5469V413.02H88ZM83.8125 416.082C82.6406 416.082 81.8594 416.66 81.8594 417.551C81.8594 418.441 82.6406 418.988 83.8125 418.988C84.9844 418.988 85.7656 418.441 85.7656 417.551C85.7656 416.66 84.9844 416.082 83.8125 416.082ZM100.484 412.551V413.738H103.531V411.379H105.016V421.582H103.531V417.957H100.484V419.176H93.9844V412.551H100.484ZM95.4531 413.754V418.004H99.0312V413.754H95.4531ZM105.328 423.863V425.066H95.875V420.645H97.375V423.863H105.328ZM100.484 416.738H103.531V414.957H100.484V416.738ZM117.328 412.223C117.328 415.629 115.688 418.113 111.875 419.582L111.188 418.488C113 417.824 114.234 416.926 114.984 415.816L111.391 416.207L111.172 414.988L115.562 414.707C115.695 414.309 115.789 413.887 115.844 413.441H111.812V412.223H117.328ZM123.016 411.379V419.145H121.609V415.91H119.922V419.02H118.516V411.629H119.922V414.707H121.609V411.379H123.016ZM115.156 419.723V421.207H121.562V419.723H123.016V425.191H113.672V419.723H115.156ZM115.156 424.004H121.562V422.395H115.156V424.004ZM136.578 411.363V425.395H135.109V419.848H132.375V418.645H135.109V416.941H132.375V415.723H135.109V411.363H136.578ZM129.875 415.863C129.875 418.082 131.297 420.379 133.453 421.316L132.609 422.457C131.016 421.746 129.789 420.277 129.172 418.504C128.547 420.371 127.32 421.934 125.719 422.676L124.906 421.535C127.031 420.566 128.406 418.176 128.406 415.863V414.941H125.297V413.754H128.422V411.645H129.906V413.754H132.938V414.941H129.875V415.863ZM143.875 414.926C143.859 417.488 145.406 420.051 147.578 421.02L146.688 422.191C145.078 421.426 143.805 419.855 143.156 417.941C142.5 419.988 141.211 421.684 139.531 422.504L138.625 421.254C140.828 420.27 142.375 417.598 142.375 414.926V412.535H143.875V414.926ZM150.328 411.363V425.395H148.844V411.363H150.328ZM168.406 411.379V418.66H167V415.566H165.359V418.504H163.984V411.629H165.359V414.363H167V411.379H168.406ZM168.406 419.238V422.691H160.531V424.004H168.938V425.191H159.047V421.566H166.938V420.426H159.016V419.238H168.406ZM159.797 412.035C161.672 412.02 163.016 413.238 163.016 415.113C163.016 416.926 161.672 418.191 159.797 418.191C157.922 418.191 156.578 416.926 156.594 415.113C156.578 413.238 157.922 412.02 159.797 412.035ZM159.797 413.176C158.703 413.176 157.922 413.973 157.922 415.113C157.922 416.238 158.703 417.004 159.797 417.004C160.875 417.004 161.656 416.238 161.672 415.113C161.656 413.973 160.875 413.176 159.797 413.176ZM172.453 412.16V414.27H175.953V412.16H177.422V414.832H180.484V411.363H181.969V419.473H180.484V416.066H177.422V418.754H170.969V412.16H172.453ZM172.453 417.566H175.953V415.441H172.453V417.566ZM181.969 420.129V425.191H172.734V420.129H181.969ZM174.203 421.316V423.988H180.516V421.316H174.203ZM196.172 411.363V425.363H194.75V411.363H196.172ZM193.328 411.629V424.676H191.906V417.926H190.328C190.203 420.66 189.031 422.363 187.297 422.348C185.469 422.363 184.281 420.441 184.281 417.41C184.281 414.379 185.469 412.473 187.297 412.488C189 412.473 190.156 414.09 190.328 416.723H191.906V411.629H193.328ZM187.297 413.879C186.281 413.879 185.656 415.176 185.656 417.41C185.656 419.645 186.281 420.941 187.297 420.941C188.328 420.941 188.969 419.645 188.969 417.41C188.969 415.176 188.328 413.879 187.297 413.879ZM213.547 411.363V425.395H212.062V417.613H209.172V416.395H212.062V411.363H213.547ZM206.859 415.301C206.859 417.676 208.344 420.223 210.5 421.176L209.609 422.363C207.992 421.582 206.742 419.949 206.125 418.035C205.5 420.074 204.227 421.816 202.609 422.645L201.703 421.488C203.844 420.473 205.344 417.816 205.359 415.301V413.988H202.266V412.77H209.969V413.988H206.859V415.301ZM220.578 413.941C220.578 415.723 221.812 417.348 223.938 418.02L223.234 419.176C221.641 418.668 220.477 417.613 219.859 416.285C219.25 417.816 218.023 419.027 216.344 419.613L215.578 418.426C217.766 417.707 219.078 415.895 219.094 413.957V413.566H216.016V412.363H223.594V413.566H220.578V413.941ZM226.688 411.363V414.832H228.719V416.051H226.688V419.77H225.203V411.363H226.688ZM222.172 420.113C225.062 420.113 226.812 421.066 226.812 422.707C226.812 424.363 225.062 425.348 222.172 425.332C219.25 425.348 217.469 424.363 217.469 422.707C217.469 421.066 219.25 420.113 222.172 420.113ZM222.172 421.285C220.141 421.285 218.938 421.801 218.953 422.707C218.938 423.645 220.141 424.16 222.172 424.16C224.188 424.16 225.359 423.645 225.359 422.707C225.359 421.801 224.188 421.285 222.172 421.285Z" fill="#6B7280"/>
<rect x="20" y="445.535" width="42" height="42" rx="21" fill="#EEEEEE"/>
<mask id="mask2_898_5666" style="mask-type:alpha" maskUnits="userSpaceOnUse" x="29" y="454" width="24" height="25">
<rect x="29" y="454.535" width="24" height="24" fill="#D9D9D9"/>
</mask>
<g mask="url(#mask2_898_5666)">
<path d="M33 473.535V471.535H35V464.535C35 463.152 35.4167 461.923 36.25 460.848C37.0833 459.773 38.1667 459.068 39.5 458.735V458.035C39.5 457.618 39.6458 457.264 39.9375 456.973C40.2292 456.681 40.5833 456.535 41 456.535C41.4167 456.535 41.7708 456.681 42.0625 456.973C42.3542 457.264 42.5 457.618 42.5 458.035V458.735C43.8333 459.068 44.9167 459.773 45.75 460.848C46.5833 461.923 47 463.152 47 464.535V471.535H49V473.535H33ZM41 476.535C40.45 476.535 39.9792 476.339 39.5875 475.948C39.1958 475.556 39 475.085 39 474.535H43C43 475.085 42.8042 475.556 42.4125 475.948C42.0208 476.339 41.55 476.535 41 476.535ZM37 471.535H45V464.535C45 463.435 44.6083 462.493 43.825 461.71C43.0417 460.927 42.1 460.535 41 460.535C39.9 460.535 38.9583 460.927 38.175 461.71C37.3917 462.493 37 463.435 37 464.535V471.535Z" fill="#111827"/>
</g>
<path d="M91.9551 446.779V450.066H94.2402V451.455H91.9551V454.742H90.2852V446.779H91.9551ZM91.9551 455.463V459.453H83.4473V461H92.5V462.336H81.8125V458.205H90.3027V456.764H81.7773V455.463H91.9551ZM83.957 447.324C86.3477 447.324 88.0879 448.766 88.0879 450.84C88.0879 452.914 86.3477 454.355 83.957 454.355C81.5664 454.355 79.8086 452.914 79.8262 450.84C79.8086 448.766 81.5664 447.324 83.957 447.324ZM83.957 448.695C82.498 448.695 81.4434 449.557 81.4434 450.84C81.4434 452.123 82.498 453.02 83.957 453.02C85.3984 453.02 86.4707 452.123 86.4707 450.84C86.4707 449.557 85.3984 448.695 83.957 448.695ZM108.197 446.797V456.131H106.527V446.797H108.197ZM103.17 447.729V452.158H97.5977V454.057C100.349 454.065 102.379 453.969 104.77 453.582L104.98 454.953C102.414 455.357 100.252 455.445 97.2812 455.428H95.9629V450.857H101.518V449.064H95.9277V447.729H103.17ZM108.197 456.922V462.336H97.8438V456.922H108.197ZM99.4961 458.258V460.982H106.562V458.258H99.4961ZM116.037 456.184C116.055 452.879 116.986 450.119 118.639 447.764H120.361C119.148 449.504 117.988 453.055 117.988 456.184C117.988 459.33 119.148 462.863 120.361 464.621H118.639C116.986 462.266 116.055 459.506 116.037 456.184ZM127.076 449.662C127.076 451.789 128.5 453.863 130.873 454.689L129.959 455.99C128.236 455.331 126.953 454.03 126.285 452.387C125.6 454.215 124.255 455.656 122.4 456.359L121.504 455.041C123.947 454.162 125.406 451.982 125.424 449.609V447.746H127.076V449.662ZM134.652 446.797V458.539H132.982V451.754H129.66V450.383H132.982V446.797H134.652ZM135.004 460.842V462.195H124.369V457.221H126.057V460.842H135.004ZM143.881 447.904V449.258H139.328V451.016H143.705V452.299H139.328V454.215C141.438 454.197 142.826 454.118 144.443 453.811L144.602 455.182C142.756 455.533 141.262 455.604 138.748 455.586H137.729V447.904H143.881ZM150.508 446.797V456.359H148.926V452.158H146.992V456.236H145.428V447.078H146.992V450.805H148.926V446.797H150.508ZM150.508 457.115V462.529H148.855V458.469H139.803V457.115H150.508ZM156.959 456.184C156.941 459.506 156.01 462.266 154.357 464.621H152.635C153.848 462.863 155.008 459.33 155.008 456.184C155.008 453.055 153.848 449.504 152.635 447.764H154.357C156.01 450.119 156.941 452.879 156.959 456.184Z" fill="#111827"/>
<path d="M91.1094 474.113V475.316H89.0625V478.941H91.0312V480.113H80.7656V478.941H82.75V475.316H80.7031V474.113H91.1094ZM92.3125 481.598V482.832H86.625V487.348H85.1562V482.832H79.5V481.598H92.3125ZM84.2344 478.941H87.6094V475.316H84.2344V478.941ZM98.4844 476.926C98.4688 479.488 100.016 482.051 102.188 483.02L101.297 484.191C99.6875 483.426 98.4141 481.855 97.7656 479.941C97.1094 481.988 95.8203 483.684 94.1406 484.504L93.2344 483.254C95.4375 482.27 96.9844 479.598 96.9844 476.926V474.535H98.4844V476.926ZM104.938 473.363V487.395H103.453V473.363H104.938ZM122.078 473.363V476.285H124.109V477.52H122.078V480.441H120.594V473.363H122.078ZM122.078 481.082V484.629H114.516V486.004H122.562V487.191H113.062V483.52H120.609V482.238H113.031V481.082H122.078ZM114.969 473.848C117.094 473.848 118.641 475.129 118.641 476.973C118.641 478.816 117.094 480.098 114.969 480.098C112.844 480.098 111.281 478.816 111.297 476.973C111.281 475.129 112.844 473.848 114.969 473.848ZM114.969 475.066C113.672 475.066 112.734 475.832 112.734 476.973C112.734 478.113 113.672 478.91 114.969 478.91C116.25 478.91 117.203 478.113 117.203 476.973C117.203 475.832 116.25 475.066 114.969 475.066ZM136.516 473.379V481.676H135.031V473.379H136.516ZM132.047 474.207V478.145H127.094V479.832C129.539 479.84 131.344 479.754 133.469 479.41L133.656 480.629C131.375 480.988 129.453 481.066 126.812 481.051H125.641V476.988H130.578V475.395H125.609V474.207H132.047ZM136.516 482.379V487.191H127.312V482.379H136.516ZM128.781 483.566V485.988H135.062V483.566H128.781ZM155.422 479.941V481.16H142.641V479.941H155.422ZM153.938 477.52V478.723H144.234V473.863H153.844V475.082H145.703V477.52H153.938ZM149.016 482.254C152.031 482.254 153.844 483.176 153.844 484.801C153.844 486.426 152.031 487.348 149.016 487.332C145.984 487.348 144.156 486.426 144.156 484.801C144.156 483.176 145.984 482.254 149.016 482.254ZM149.016 483.395C146.875 483.41 145.656 483.91 145.656 484.801C145.656 485.691 146.875 486.191 149.016 486.191C151.125 486.191 152.359 485.691 152.359 484.801C152.359 483.91 151.125 483.41 149.016 483.395ZM169.266 481.004V482.207H156.453V481.004H162.125V479.676H158.094V476.113H166.172V474.863H158.062V473.691H167.656V477.207H159.562V478.52H167.938V479.676H163.594V481.004H169.266ZM167.734 483.191V487.254H166.234V484.379H157.891V483.191H167.734ZM181.594 474.254V480.004H174.938V474.254H181.594ZM176.391 475.441V478.848H180.125V475.441H176.391ZM185.797 473.363V481.363H184.328V473.363H185.797ZM186.125 482.27V483.395H182.031C182.133 484.613 184.078 485.887 186.625 486.176L186.125 487.316C183.93 487.059 182.125 486.113 181.281 484.879C180.422 486.129 178.578 487.043 176.375 487.316L175.859 486.176C178.406 485.934 180.398 484.645 180.5 483.395H176.422V482.27H180.531V480.957H182V482.27H186.125ZM199.109 474.598C199.094 476.457 201.375 478.207 204.125 478.566L203.547 479.785C201.258 479.418 199.242 478.23 198.344 476.582C197.422 478.238 195.414 479.418 193.141 479.785L192.547 478.566C195.297 478.207 197.547 476.473 197.562 474.598V473.832H199.109V474.598ZM204.703 481.16V482.379H199.016V487.363H197.562V482.379H191.938V481.16H204.703ZM217.375 473.379V483.629H215.891V473.379H217.375ZM217.797 485.863V487.066H208.219V482.66H209.719V485.863H217.797ZM210.859 475.535C210.844 477.582 212.156 479.457 214.312 480.207L213.547 481.395C211.93 480.793 210.734 479.605 210.109 478.082C209.492 479.707 208.281 481.012 206.641 481.645L205.844 480.473C208.047 479.66 209.344 477.645 209.344 475.535V474.145H210.859V475.535ZM225.969 473.598C229.125 473.598 230.969 474.441 230.969 476.004C230.969 477.566 229.125 478.426 225.969 478.426C222.812 478.426 220.969 477.566 220.969 476.004C220.969 474.441 222.812 473.598 225.969 473.598ZM225.969 474.691C223.734 474.691 222.5 475.176 222.516 476.004C222.5 476.863 223.734 477.316 225.969 477.316C228.203 477.316 229.438 476.863 229.438 476.004C229.438 475.176 228.203 474.691 225.969 474.691ZM232.359 479.285V480.473H219.594V479.285H232.359ZM230.75 481.551V484.832H222.594V486.082H231.141V487.223H221.141V483.754H229.281V482.66H221.125V481.551H230.75ZM241.922 474.004C244.031 474.004 245.562 475.176 245.562 476.91C245.562 478.629 244.031 479.816 241.922 479.801C239.812 479.816 238.312 478.629 238.312 476.91C238.312 475.176 239.812 474.004 241.922 474.004ZM241.922 475.207C240.656 475.207 239.734 475.879 239.75 476.91C239.734 477.926 240.656 478.598 241.922 478.582C243.219 478.598 244.141 477.926 244.141 476.91C244.141 475.879 243.219 475.207 241.922 475.207ZM248.969 473.379V487.363H247.5V473.379H248.969ZM237.312 480.895C239.891 480.895 243.469 480.832 246.531 480.379L246.641 481.488C245.367 481.73 244.039 481.879 242.75 481.973V486.926H241.266V482.051C239.906 482.113 238.625 482.121 237.516 482.129L237.312 480.895ZM262.156 473.379V477.879H264.188V479.113H262.156V483.848H260.672V473.379H262.156ZM259.516 475.004V476.207H251.172V475.004H254.609V473.363H256.094V475.004H259.516ZM255.344 476.879C257.359 476.879 258.734 477.926 258.734 479.52C258.734 481.113 257.359 482.145 255.344 482.145C253.312 482.145 251.938 481.113 251.938 479.52C251.938 477.926 253.312 476.879 255.344 476.879ZM255.344 478.02C254.156 478.02 253.359 478.598 253.375 479.52C253.359 480.426 254.156 480.988 255.344 480.988C256.531 480.988 257.328 480.426 257.344 479.52C257.328 478.598 256.531 478.02 255.344 478.02ZM262.75 485.863V487.066H253.281V483.02H254.766V485.863H262.75ZM280.547 473.363V480.988H279.078V477.895H276.453V476.676H279.078V473.363H280.547ZM272.906 481.613V483.223H279.078V481.613H280.547V487.191H271.438V481.613H272.906ZM272.906 485.988H279.078V484.379H272.906V485.988ZM273.906 475.551C273.906 477.285 275.172 479.035 277.281 479.754L276.516 480.91C274.938 480.355 273.781 479.238 273.172 477.848C272.555 479.402 271.336 480.637 269.672 481.223L268.906 480.051C271.062 479.301 272.391 477.457 272.391 475.535V475.348H269.359V474.145H276.906V475.348H273.906V475.551ZM293.906 474.191V475.301C293.906 476.488 293.906 477.879 293.562 479.723H295.531V480.941H282.719V479.723H292.062C292.43 477.902 292.438 476.574 292.438 475.395H284.328V474.191H293.906ZM294.328 485.848V487.066H284.391V482.395H285.859V485.848H294.328Z" fill="#6B7280"/>
<mask id="mask3_898_5666" style="mask-type:alpha" maskUnits="userSpaceOnUse" x="20" y="565" width="24" height="25">
<rect x="20" y="565.035" width="24" height="24" fill="#D9D9D9"/>
</mask>
<g mask="url(#mask3_898_5666)">
<path d="M32 582.035C32.2833 582.035 32.5208 581.939 32.7125 581.748C32.9042 581.556 33 581.318 33 581.035C33 580.752 32.9042 580.514 32.7125 580.323C32.5208 580.131 32.2833 580.035 32 580.035C31.7167 580.035 31.4792 580.131 31.2875 580.323C31.0958 580.514 31 580.752 31 581.035C31 581.318 31.0958 581.556 31.2875 581.748C31.4792 581.939 31.7167 582.035 32 582.035ZM31 578.035H33V572.035H31V578.035ZM32 587.035C30.6167 587.035 29.3167 586.773 28.1 586.248C26.8833 585.723 25.825 585.01 24.925 584.11C24.025 583.21 23.3125 582.152 22.7875 580.935C22.2625 579.718 22 578.418 22 577.035C22 575.652 22.2625 574.352 22.7875 573.135C23.3125 571.918 24.025 570.86 24.925 569.96C25.825 569.06 26.8833 568.348 28.1 567.823C29.3167 567.298 30.6167 567.035 32 567.035C33.3833 567.035 34.6833 567.298 35.9 567.823C37.1167 568.348 38.175 569.06 39.075 569.96C39.975 570.86 40.6875 571.918 41.2125 573.135C41.7375 574.352 42 575.652 42 577.035C42 578.418 41.7375 579.718 41.2125 580.935C40.6875 582.152 39.975 583.21 39.075 584.11C38.175 585.01 37.1167 585.723 35.9 586.248C34.6833 586.773 33.3833 587.035 32 587.035ZM32 585.035C34.2333 585.035 36.125 584.26 37.675 582.71C39.225 581.16 40 579.268 40 577.035C40 574.802 39.225 572.91 37.675 571.36C36.125 569.81 34.2333 569.035 32 569.035C29.7667 569.035 27.875 569.81 26.325 571.36C24.775 572.91 24 574.802 24 577.035C24 579.268 24.775 581.16 26.325 582.71C27.875 584.26 29.7667 585.035 32 585.035Z" fill="#6B7280"/>
</g>
<path d="M65.877 544.739V550.617H64.6582V544.739H65.877ZM65.877 551.138V553.956H59.542V555.035H66.2705V556H58.3613V553.08H64.6836V552.09H58.3232V551.138H65.877ZM63.0967 545.488V546.44H62.0049V549.132C62.5571 549.094 63.103 549.043 63.6172 548.979L63.668 549.855C61.3955 550.198 58.7422 550.274 56.749 550.274L56.6094 549.31L57.9932 549.297V546.44H56.9141V545.488H63.0967ZM59.1484 549.271C59.707 549.252 60.2783 549.233 60.8496 549.195V546.44H59.1484V549.271ZM73.4814 545.742C73.4688 547.253 75.3223 548.675 77.5566 548.967L77.0869 549.957C75.2271 549.659 73.5894 548.694 72.8594 547.354C72.1104 548.7 70.479 549.659 68.6318 549.957L68.1494 548.967C70.3838 548.675 72.2119 547.266 72.2246 545.742V545.12H73.4814V545.742ZM78.0264 551.074V552.064H73.4053V556.114H72.2246V552.064H67.6543V551.074H78.0264ZM91.585 544.752V553.334H90.3662V551.849H87.9541V550.884H90.3662V544.752H91.585ZM91.8643 554.896V555.873H83.6504V552.407H84.8564V554.896H91.8643ZM81.9873 549.183C83.4092 549.176 85.1929 549.157 86.9512 549.043C87.1416 547.894 87.1924 546.999 87.2051 546.364H83.0156V545.387H88.4111V545.831C88.4111 546.447 88.4111 547.5 88.1699 548.941C88.5889 548.903 89.0015 548.859 89.4014 548.802L89.4902 549.678C88.4683 549.855 87.4082 549.963 86.3672 550.033V552.598H85.1611V550.097C84.0757 550.147 83.0474 550.16 82.1523 550.16L81.9873 549.183ZM102.236 544.752V548.408H103.887V549.411H102.236V553.258H101.03V544.752H102.236ZM100.091 546.072V547.05H93.3115V546.072H96.1045V544.739H97.3105V546.072H100.091ZM96.7012 547.596C98.3389 547.596 99.4561 548.446 99.4561 549.741C99.4561 551.036 98.3389 551.874 96.7012 551.874C95.0508 551.874 93.9336 551.036 93.9336 549.741C93.9336 548.446 95.0508 547.596 96.7012 547.596ZM96.7012 548.522C95.7363 548.522 95.0889 548.992 95.1016 549.741C95.0889 550.478 95.7363 550.935 96.7012 550.935C97.666 550.935 98.3135 550.478 98.3262 549.741C98.3135 548.992 97.666 548.522 96.7012 548.522ZM102.719 554.896V555.873H95.0254V552.585H96.2314V554.896H102.719ZM109.714 544.93C112.278 544.93 113.776 545.615 113.776 546.885C113.776 548.154 112.278 548.853 109.714 548.853C107.149 548.853 105.651 548.154 105.651 546.885C105.651 545.615 107.149 544.93 109.714 544.93ZM109.714 545.818C107.898 545.818 106.896 546.212 106.908 546.885C106.896 547.583 107.898 547.951 109.714 547.951C111.529 547.951 112.532 547.583 112.532 546.885C112.532 546.212 111.529 545.818 109.714 545.818ZM114.906 549.551V550.516H104.534V549.551H114.906ZM113.599 551.392V554.058H106.972V555.073H113.916V556H105.791V553.182H112.405V552.293H105.778V551.392H113.599ZM125.697 546.517V547.507H118.956V546.517H121.711V544.892H122.917V546.517H125.697ZM122.333 548.345C123.869 548.345 125.012 549.449 125.012 550.985C125.012 552.521 123.869 553.626 122.333 553.639C120.759 553.626 119.616 552.521 119.616 550.985C119.616 549.449 120.759 548.345 122.333 548.345ZM122.333 549.36C121.419 549.373 120.733 550.033 120.746 550.985C120.733 551.963 121.419 552.61 122.333 552.598C123.234 552.61 123.907 551.963 123.907 550.985C123.907 550.033 123.234 549.373 122.333 549.36ZM128.427 544.739V556.114H127.233V550.414H125.456V549.424H127.233V544.739H128.427ZM140.551 550.287V551.265H130.179V550.287H132.667V548.751C131.791 548.396 131.296 547.824 131.296 547.075C131.296 545.729 132.857 544.942 135.358 544.942C137.847 544.942 139.421 545.729 139.421 547.075C139.421 547.824 138.919 548.402 138.037 548.751V550.287H140.551ZM135.358 552.039C137.809 552.039 139.281 552.763 139.281 554.058C139.281 555.378 137.809 556.089 135.358 556.089C132.883 556.089 131.41 555.378 131.41 554.058C131.41 552.763 132.883 552.039 135.358 552.039ZM135.358 552.966C133.619 552.966 132.629 553.359 132.629 554.058C132.629 554.769 133.619 555.175 135.358 555.162C137.072 555.175 138.075 554.769 138.075 554.058C138.075 553.359 137.072 552.966 135.358 552.966ZM135.358 545.869C133.594 545.869 132.527 546.313 132.54 547.075C132.527 547.837 133.594 548.269 135.358 548.269C137.123 548.269 138.177 547.837 138.177 547.075C138.177 546.313 137.123 545.869 135.358 545.869ZM133.886 550.287H136.844V549.068C136.399 549.145 135.898 549.183 135.358 549.183C134.825 549.183 134.33 549.145 133.886 549.081V550.287ZM150.275 544.739V549.348H152.104V550.351H150.275V556.114H149.082V544.739H150.275ZM148.092 546.517V547.507H141.351V546.517H144.156V544.892H145.362V546.517H148.092ZM144.766 548.345C146.391 548.345 147.584 549.437 147.597 550.985C147.584 552.547 146.391 553.626 144.766 553.639C143.128 553.626 141.935 552.547 141.935 550.985C141.935 549.437 143.128 548.345 144.766 548.345ZM144.766 549.335C143.801 549.335 143.077 550.008 143.09 550.985C143.077 551.976 143.801 552.636 144.766 552.623C145.73 552.636 146.441 551.976 146.441 550.985C146.441 550.008 145.73 549.335 144.766 549.335ZM156.839 548.091C156.839 549.995 158.083 551.963 159.835 552.712L159.175 553.651C157.835 553.061 156.769 551.811 156.242 550.287C155.715 551.912 154.643 553.296 153.322 553.943L152.624 552.991C154.338 552.191 155.607 550.046 155.62 548.091V546.885H153.018V545.882H159.429V546.885H156.839V548.091ZM162.069 544.739V556.114H160.863V544.739H162.069ZM170.22 545.349C171.946 545.349 173.203 546.453 173.203 547.989C173.203 549.538 171.946 550.63 170.22 550.63C168.506 550.63 167.224 549.538 167.236 547.989C167.224 546.453 168.506 545.349 170.22 545.349ZM170.22 546.352C169.191 546.352 168.404 547.024 168.404 547.989C168.404 548.954 169.191 549.64 170.22 549.64C171.261 549.64 172.035 548.954 172.035 547.989C172.035 547.024 171.261 546.352 170.22 546.352ZM175.996 544.739V547.228H177.646V548.23H175.996V550.401H174.79V544.739H175.996ZM169.382 551.582V554.819C170.048 554.788 170.816 554.692 171.54 554.451L171.718 555.403C170.664 555.759 169.636 555.81 168.785 555.81H168.201V551.582H169.382ZM177.062 551.62V552.547H171.324V551.62H173.622V550.693H174.803V551.62H177.062ZM174.193 552.877C175.45 552.877 176.339 553.512 176.339 554.502C176.339 555.479 175.45 556.102 174.193 556.089C172.911 556.102 172.035 555.479 172.048 554.502C172.035 553.512 172.911 552.877 174.193 552.877ZM174.193 553.74C173.559 553.74 173.114 554.032 173.114 554.502C173.114 554.959 173.559 555.251 174.193 555.251C174.815 555.251 175.26 554.959 175.26 554.502C175.26 554.032 174.815 553.74 174.193 553.74ZM187.498 548.065V549.03H179.665V545.146H180.858V548.065H187.498ZM188.691 550.465V551.43H178.281V550.465H188.691ZM187.574 554.857V555.848H179.576V552.509H180.782V554.857H187.574ZM202.187 544.752V551.48H200.98V550.097H198.111V549.106H200.98V547.723H198.226C197.496 549.551 195.788 550.839 193.325 551.544L192.843 550.604C195.534 549.83 197.108 548.389 197.324 546.555H193.427V545.564H198.632C198.632 545.983 198.587 546.39 198.518 546.771H200.98V544.752H202.187ZM198.441 551.607C200.739 551.607 202.25 552.445 202.263 553.829C202.25 555.213 200.739 556.063 198.441 556.063C196.105 556.063 194.607 555.213 194.607 553.829C194.607 552.445 196.105 551.607 198.441 551.607ZM198.441 552.56C196.816 552.56 195.801 553.017 195.801 553.829C195.801 554.629 196.816 555.099 198.441 555.099C200.041 555.099 201.044 554.629 201.057 553.829C201.044 553.017 200.041 552.56 198.441 552.56ZM214.336 551.201V552.204H209.689V556.114H208.509V552.204H203.926V551.201H214.336ZM209.105 545.171C211.505 545.171 213.155 546.148 213.155 547.697C213.155 549.233 211.505 550.198 209.105 550.198C206.693 550.198 205.056 549.233 205.056 547.697C205.056 546.148 206.693 545.171 209.105 545.171ZM209.105 546.136C207.417 546.148 206.287 546.732 206.3 547.697C206.287 548.649 207.417 549.233 209.105 549.233C210.794 549.233 211.924 548.649 211.924 547.697C211.924 546.732 210.794 546.148 209.105 546.136ZM221.052 545.374C222.575 545.361 223.667 546.428 223.667 547.964C223.667 549.487 222.575 550.554 221.052 550.554C219.528 550.554 218.437 549.487 218.449 547.964C218.437 546.428 219.528 545.361 221.052 545.374ZM221.052 546.352C220.163 546.352 219.528 546.986 219.528 547.964C219.528 548.916 220.163 549.563 221.052 549.563C221.928 549.563 222.562 548.916 222.575 547.964C222.562 546.986 221.928 546.352 221.052 546.352ZM228.047 544.752V550.935H226.904V548.281H225.571V550.858H224.454V544.955H225.571V547.278H226.904V544.752H228.047ZM221.648 551.43V552.674H226.866V551.43H228.047V555.975H220.455V551.43H221.648ZM221.648 554.997H226.866V553.651H221.648V554.997ZM239.003 544.739V556.14H237.797V544.739H239.003ZM232.922 545.59C234.61 545.59 235.854 547.139 235.854 549.576C235.854 552.026 234.61 553.575 232.922 553.575C231.208 553.575 229.977 552.026 229.977 549.576C229.977 547.139 231.208 545.59 232.922 545.59ZM232.922 546.669C231.868 546.669 231.145 547.786 231.145 549.576C231.145 551.379 231.868 552.496 232.922 552.496C233.963 552.496 234.687 551.379 234.687 549.576C234.687 547.786 233.963 546.669 232.922 546.669ZM253.476 544.739V551.506H252.27V548.624H250.149V547.634H252.27V544.739H253.476ZM249.667 551.823C252.054 551.823 253.514 552.61 253.514 553.969C253.514 555.327 252.054 556.102 249.667 556.114C247.28 556.102 245.808 555.327 245.82 553.969C245.808 552.61 247.28 551.823 249.667 551.823ZM249.667 552.763C248.004 552.763 247.014 553.194 247.014 553.969C247.014 554.73 248.004 555.175 249.667 555.162C251.33 555.175 252.32 554.73 252.32 553.969C252.32 553.194 251.33 552.763 249.667 552.763ZM248.067 546.745C248.067 548.192 249.096 549.589 250.81 550.173L250.188 551.125C248.912 550.681 247.972 549.773 247.483 548.649C246.982 549.925 245.985 550.947 244.627 551.442L243.992 550.478C245.757 549.868 246.836 548.332 246.836 546.758V546.504H244.373V545.526H250.505V546.504H248.067V546.745ZM259.15 546.555C259.15 548.053 260.191 549.437 261.893 549.995L261.245 550.947C260.001 550.509 259.068 549.621 258.579 548.497C258.078 549.773 257.113 550.77 255.786 551.265L255.139 550.3C256.916 549.665 257.944 548.154 257.957 546.453V545.336H259.15V546.555ZM264.165 544.739V547.596H265.815V548.611H264.165V551.607H262.959V544.739H264.165ZM260.496 551.874C262.832 551.874 264.267 552.648 264.267 553.981C264.267 555.327 262.832 556.102 260.496 556.089C258.135 556.102 256.675 555.327 256.675 553.981C256.675 552.648 258.135 551.874 260.496 551.874ZM260.496 552.826C258.846 552.826 257.868 553.258 257.881 553.981C257.868 554.73 258.846 555.137 260.496 555.149C262.134 555.137 263.086 554.73 263.086 553.981C263.086 553.258 262.134 552.826 260.496 552.826ZM270.538 546.758C270.538 548.192 271.566 549.602 273.28 550.186L272.658 551.125C271.382 550.681 270.437 549.773 269.941 548.649C269.446 549.9 268.45 550.903 267.098 551.379L266.476 550.427C268.228 549.83 269.307 548.307 269.307 546.771V546.453H266.844V545.476H272.976V546.453H270.538V546.758ZM275.946 552.115V556.114H274.74V553.093H268.24V552.115H275.946ZM275.946 544.739V551.544H274.74V548.624H272.633V547.634H274.74V544.739H275.946ZM282.878 545.425C285.265 545.425 287.08 546.682 287.08 548.599C287.08 550.516 285.265 551.785 282.878 551.772C280.491 551.785 278.688 550.516 278.688 548.599C278.688 546.682 280.491 545.425 282.878 545.425ZM282.878 546.402C281.139 546.39 279.831 547.278 279.844 548.599C279.831 549.932 281.139 550.782 282.878 550.782C284.617 550.782 285.912 549.932 285.912 548.599C285.912 547.278 284.617 546.39 282.878 546.402ZM288.108 553.639V554.642H277.698V553.639H288.108ZM299.344 553.74V554.756H288.934V553.74H293.517V551.747H290.203V548.129H296.881V546.529H290.178V545.539H298.074V549.094H291.396V550.757H298.341V551.747H294.71V553.74H299.344ZM307.316 546.783C307.316 548.23 308.319 549.614 310.059 550.198L309.449 551.138C308.161 550.693 307.215 549.805 306.72 548.688C306.225 549.919 305.241 550.884 303.901 551.354L303.254 550.414C305.031 549.805 306.098 548.345 306.11 546.771V546.466H303.609V545.488H309.767V546.466H307.316V546.783ZM312.28 544.739V547.659H313.931V548.675H312.28V551.595H311.074V544.739H312.28ZM312.28 552.153V556.114H311.074V553.131H304.765V552.153H312.28ZM324.963 550.274V551.239H314.578V550.274H319.187V549.068H315.873V545.26H323.681V546.212H317.066V548.104H323.757V549.068H320.354V550.274H324.963ZM319.758 551.976C322.208 551.976 323.681 552.725 323.681 554.045C323.681 555.365 322.208 556.102 319.758 556.114C317.295 556.102 315.81 555.365 315.81 554.045C315.81 552.725 317.295 551.976 319.758 551.976ZM319.758 552.915C318.019 552.915 317.028 553.321 317.028 554.045C317.028 554.769 318.019 555.175 319.758 555.162C321.472 555.175 322.475 554.769 322.475 554.045C322.475 553.321 321.472 552.915 319.758 552.915ZM334.675 544.739V549.348H336.503V550.351H334.675V556.114H333.481V544.739H334.675ZM332.491 546.517V547.507H325.75V546.517H328.556V544.892H329.762V546.517H332.491ZM329.165 548.345C330.79 548.345 331.983 549.437 331.996 550.985C331.983 552.547 330.79 553.626 329.165 553.639C327.527 553.626 326.334 552.547 326.334 550.985C326.334 549.437 327.527 548.345 329.165 548.345ZM329.165 549.335C328.2 549.335 327.477 550.008 327.489 550.985C327.477 551.976 328.2 552.636 329.165 552.623C330.13 552.636 330.841 551.976 330.841 550.985C330.841 550.008 330.13 549.335 329.165 549.335ZM341.238 548.091C341.238 549.995 342.482 551.963 344.234 552.712L343.574 553.651C342.235 553.061 341.168 551.811 340.642 550.287C340.115 551.912 339.042 553.296 337.722 553.943L337.023 552.991C338.737 552.191 340.007 550.046 340.02 548.091V546.885H337.417V545.882H343.828V546.885H341.238V548.091ZM346.469 544.739V556.114H345.263V544.739H346.469ZM354.619 545.349C356.346 545.349 357.603 546.453 357.603 547.989C357.603 549.538 356.346 550.63 354.619 550.63C352.905 550.63 351.623 549.538 351.636 547.989C351.623 546.453 352.905 545.349 354.619 545.349ZM354.619 546.352C353.591 546.352 352.804 547.024 352.804 547.989C352.804 548.954 353.591 549.64 354.619 549.64C355.66 549.64 356.435 548.954 356.435 547.989C356.435 547.024 355.66 546.352 354.619 546.352ZM360.396 544.739V547.228H362.046V548.23H360.396V550.401H359.189V544.739H360.396ZM353.781 551.582V554.819C354.448 554.788 355.216 554.692 355.939 554.451L356.117 555.403C355.063 555.759 354.035 555.81 353.185 555.81H352.601V551.582H353.781ZM361.462 551.62V552.547H355.724V551.62H358.021V550.693H359.202V551.62H361.462ZM358.593 552.877C359.85 552.877 360.738 553.512 360.738 554.502C360.738 555.479 359.85 556.102 358.593 556.089C357.311 556.102 356.435 555.479 356.447 554.502C356.435 553.512 357.311 552.877 358.593 552.877ZM358.593 553.74C357.958 553.74 357.514 554.032 357.514 554.502C357.514 554.959 357.958 555.251 358.593 555.251C359.215 555.251 359.659 554.959 359.659 554.502C359.659 554.032 359.215 553.74 358.593 553.74ZM367.873 544.93C370.438 544.93 371.936 545.615 371.936 546.885C371.936 548.154 370.438 548.853 367.873 548.853C365.309 548.853 363.811 548.154 363.811 546.885C363.811 545.615 365.309 544.93 367.873 544.93ZM367.873 545.818C366.058 545.818 365.055 546.212 365.067 546.885C365.055 547.583 366.058 547.951 367.873 547.951C369.688 547.951 370.691 547.583 370.691 546.885C370.691 546.212 369.688 545.818 367.873 545.818ZM373.065 549.551V550.516H362.693V549.551H373.065ZM371.758 551.392V554.058H365.131V555.073H372.075V556H363.95V553.182H370.564V552.293H363.938V551.392H371.758ZM62.2461 563.742C62.2334 565.253 64.0869 566.675 66.3213 566.967L65.8516 567.957C63.9917 567.659 62.354 566.694 61.624 565.354C60.875 566.7 59.2437 567.659 57.3965 567.957L56.9141 566.967C59.1484 566.675 60.9766 565.266 60.9893 563.742V563.12H62.2461V563.742ZM66.791 569.074V570.064H62.1699V574.114H60.9893V570.064H56.4189V569.074H66.791ZM74.7764 570.255C74.7764 571.232 75.2588 572.267 76.2871 572.883C77.3345 572.216 77.8486 571.125 77.8486 570.255V569.709H79.0293V570.255C79.0293 571.436 79.8037 572.578 81.2891 573.061L80.6924 573.949C79.5688 573.562 78.8071 572.807 78.4072 571.867C78.0454 572.788 77.3662 573.619 76.3252 574.051C75.2334 573.638 74.5415 572.832 74.1924 571.905C73.7798 572.8 73.0308 573.556 71.958 573.949L71.3486 573.061C72.8086 572.54 73.5957 571.359 73.6084 570.255V569.709H74.7764V570.255ZM80.2607 562.752V569.227H79.0547V562.752H80.2607ZM74.0908 563.374C75.8301 563.374 77.1123 564.479 77.1123 566.065C77.1123 567.64 75.8301 568.731 74.0908 568.731C72.3516 568.731 71.0566 567.64 71.0566 566.065C71.0566 564.479 72.3516 563.374 74.0908 563.374ZM74.0908 564.402C73.0117 564.39 72.2373 565.062 72.2373 566.065C72.2373 567.056 73.0117 567.729 74.0908 567.729C75.1572 567.729 75.9316 567.056 75.9316 566.065C75.9316 565.062 75.1572 564.39 74.0908 564.402ZM84.5391 569.557V570.763H89.8838V569.557H91.0898V573.975H83.3457V569.557H84.5391ZM84.5391 573.01H89.8838V571.702H84.5391V573.01ZM92.4355 567.843V568.846H82.0635V567.843H92.4355ZM87.8652 563.349C87.8652 564.656 89.6807 565.926 91.8643 566.192L91.4326 567.145C89.5854 566.884 87.9795 566.015 87.2559 564.809C86.5132 566.021 84.9009 566.884 83.0791 567.145L82.6221 566.192C84.8311 565.913 86.6338 564.694 86.6338 563.349V562.866H87.8652V563.349ZM102.744 562.739V574.114H101.538V562.739H102.744ZM95.1904 563.844V570.179C96.8472 570.166 98.5928 570.033 100.421 569.658L100.586 570.674C98.5674 571.08 96.7393 571.22 94.9492 571.22H93.9971V563.844H95.1904ZM113.396 562.739V567.145H115.224V568.135H113.396V574.14H112.189V562.739H113.396ZM110.336 563.831V564.809H106.223V570.306C108.133 570.299 109.568 570.217 111.187 569.925L111.339 570.94C109.562 571.258 108.051 571.321 105.931 571.309H105.017V563.831H110.336ZM117.064 573.124C116.569 573.124 116.15 572.718 116.163 572.223C116.15 571.728 116.569 571.321 117.064 571.321C117.547 571.321 117.966 571.728 117.966 572.223C117.966 572.718 117.547 573.124 117.064 573.124ZM60.4307 582.821C60.4307 584.357 61.459 585.855 63.1729 586.452L62.5127 587.392C61.2686 586.916 60.3418 585.976 59.8594 584.789C59.3643 586.109 58.3931 587.15 57.0537 587.658L56.4062 586.706C58.1709 586.071 59.2246 584.497 59.2373 582.783V581.438H60.4307V582.821ZM65.9023 580.752V589.232H64.6963V584.332H62.2969V583.342H64.6963V580.752H65.9023ZM66.1562 590.896V591.873H58.4756V588.28H59.6943V590.896H66.1562ZM72.5674 581.552V582.529H69.2793V583.799H72.4404V584.726H69.2793V586.109C70.8027 586.097 71.8057 586.04 72.9736 585.817L73.0879 586.808C71.7549 587.062 70.6758 587.112 68.8604 587.1H68.124V581.552H72.5674ZM77.3535 580.752V587.658H76.2109V584.624H74.8145V587.569H73.6846V580.955H74.8145V583.646H76.2109V580.752H77.3535ZM77.3535 588.204V592.114H76.1602V589.182H69.6221V588.204H77.3535ZM91.585 580.752V589.334H90.3662V587.849H87.9541V586.884H90.3662V580.752H91.585ZM91.8643 590.896V591.873H83.6504V588.407H84.8564V590.896H91.8643ZM81.9873 585.183C83.4092 585.176 85.1929 585.157 86.9512 585.043C87.1416 583.894 87.1924 582.999 87.2051 582.364H83.0156V581.387H88.4111V581.831C88.4111 582.447 88.4111 583.5 88.1699 584.941C88.5889 584.903 89.0015 584.859 89.4014 584.802L89.4902 585.678C88.4683 585.855 87.4082 585.963 86.3672 586.033V588.598H85.1611V586.097C84.0757 586.147 83.0474 586.16 82.1523 586.16L81.9873 585.183ZM102.236 580.752V584.408H103.887V585.411H102.236V589.258H101.03V580.752H102.236ZM100.091 582.072V583.05H93.3115V582.072H96.1045V580.739H97.3105V582.072H100.091ZM96.7012 583.596C98.3389 583.596 99.4561 584.446 99.4561 585.741C99.4561 587.036 98.3389 587.874 96.7012 587.874C95.0508 587.874 93.9336 587.036 93.9336 585.741C93.9336 584.446 95.0508 583.596 96.7012 583.596ZM96.7012 584.522C95.7363 584.522 95.0889 584.992 95.1016 585.741C95.0889 586.478 95.7363 586.935 96.7012 586.935C97.666 586.935 98.3135 586.478 98.3262 585.741C98.3135 584.992 97.666 584.522 96.7012 584.522ZM102.719 590.896V591.873H95.0254V588.585H96.2314V590.896H102.719ZM109.714 580.93C112.278 580.93 113.776 581.615 113.776 582.885C113.776 584.154 112.278 584.853 109.714 584.853C107.149 584.853 105.651 584.154 105.651 582.885C105.651 581.615 107.149 580.93 109.714 580.93ZM109.714 581.818C107.898 581.818 106.896 582.212 106.908 582.885C106.896 583.583 107.898 583.951 109.714 583.951C111.529 583.951 112.532 583.583 112.532 582.885C112.532 582.212 111.529 581.818 109.714 581.818ZM114.906 585.551V586.516H104.534V585.551H114.906ZM113.599 587.392V590.058H106.972V591.073H113.916V592H105.791V589.182H112.405V588.293H105.778V587.392H113.599ZM125.697 582.517V583.507H118.956V582.517H121.711V580.892H122.917V582.517H125.697ZM122.333 584.345C123.869 584.345 125.012 585.449 125.012 586.985C125.012 588.521 123.869 589.626 122.333 589.639C120.759 589.626 119.616 588.521 119.616 586.985C119.616 585.449 120.759 584.345 122.333 584.345ZM122.333 585.36C121.419 585.373 120.733 586.033 120.746 586.985C120.733 587.963 121.419 588.61 122.333 588.598C123.234 588.61 123.907 587.963 123.907 586.985C123.907 586.033 123.234 585.373 122.333 585.36ZM128.427 580.739V592.114H127.233V586.414H125.456V585.424H127.233V580.739H128.427ZM140.551 586.287V587.265H130.179V586.287H132.667V584.751C131.791 584.396 131.296 583.824 131.296 583.075C131.296 581.729 132.857 580.942 135.358 580.942C137.847 580.942 139.421 581.729 139.421 583.075C139.421 583.824 138.919 584.402 138.037 584.751V586.287H140.551ZM135.358 588.039C137.809 588.039 139.281 588.763 139.281 590.058C139.281 591.378 137.809 592.089 135.358 592.089C132.883 592.089 131.41 591.378 131.41 590.058C131.41 588.763 132.883 588.039 135.358 588.039ZM135.358 588.966C133.619 588.966 132.629 589.359 132.629 590.058C132.629 590.769 133.619 591.175 135.358 591.162C137.072 591.175 138.075 590.769 138.075 590.058C138.075 589.359 137.072 588.966 135.358 588.966ZM135.358 581.869C133.594 581.869 132.527 582.313 132.54 583.075C132.527 583.837 133.594 584.269 135.358 584.269C137.123 584.269 138.177 583.837 138.177 583.075C138.177 582.313 137.123 581.869 135.358 581.869ZM133.886 586.287H136.844V585.068C136.399 585.145 135.898 585.183 135.358 585.183C134.825 585.183 134.33 585.145 133.886 585.081V586.287ZM150.275 580.739V585.348H152.104V586.351H150.275V592.114H149.082V580.739H150.275ZM148.092 582.517V583.507H141.351V582.517H144.156V580.892H145.362V582.517H148.092ZM144.766 584.345C146.391 584.345 147.584 585.437 147.597 586.985C147.584 588.547 146.391 589.626 144.766 589.639C143.128 589.626 141.935 588.547 141.935 586.985C141.935 585.437 143.128 584.345 144.766 584.345ZM144.766 585.335C143.801 585.335 143.077 586.008 143.09 586.985C143.077 587.976 143.801 588.636 144.766 588.623C145.73 588.636 146.441 587.976 146.441 586.985C146.441 586.008 145.73 585.335 144.766 585.335ZM156.839 584.091C156.839 585.995 158.083 587.963 159.835 588.712L159.175 589.651C157.835 589.061 156.769 587.811 156.242 586.287C155.715 587.912 154.643 589.296 153.322 589.943L152.624 588.991C154.338 588.191 155.607 586.046 155.62 584.091V582.885H153.018V581.882H159.429V582.885H156.839V584.091ZM162.069 580.739V592.114H160.863V580.739H162.069ZM170.22 581.349C171.946 581.349 173.203 582.453 173.203 583.989C173.203 585.538 171.946 586.63 170.22 586.63C168.506 586.63 167.224 585.538 167.236 583.989C167.224 582.453 168.506 581.349 170.22 581.349ZM170.22 582.352C169.191 582.352 168.404 583.024 168.404 583.989C168.404 584.954 169.191 585.64 170.22 585.64C171.261 585.64 172.035 584.954 172.035 583.989C172.035 583.024 171.261 582.352 170.22 582.352ZM175.996 580.739V583.228H177.646V584.23H175.996V586.401H174.79V580.739H175.996ZM169.382 587.582V590.819C170.048 590.788 170.816 590.692 171.54 590.451L171.718 591.403C170.664 591.759 169.636 591.81 168.785 591.81H168.201V587.582H169.382ZM177.062 587.62V588.547H171.324V587.62H173.622V586.693H174.803V587.62H177.062ZM174.193 588.877C175.45 588.877 176.339 589.512 176.339 590.502C176.339 591.479 175.45 592.102 174.193 592.089C172.911 592.102 172.035 591.479 172.048 590.502C172.035 589.512 172.911 588.877 174.193 588.877ZM174.193 589.74C173.559 589.74 173.114 590.032 173.114 590.502C173.114 590.959 173.559 591.251 174.193 591.251C174.815 591.251 175.26 590.959 175.26 590.502C175.26 590.032 174.815 589.74 174.193 589.74ZM181.341 581.59C183.042 581.59 184.248 583.139 184.261 585.576C184.248 588.026 183.042 589.575 181.341 589.575C179.64 589.575 178.421 588.026 178.434 585.576C178.421 583.139 179.64 581.59 181.341 581.59ZM181.341 582.669C180.3 582.669 179.589 583.786 179.589 585.576C179.589 587.379 180.3 588.496 181.341 588.496C182.395 588.496 183.105 587.379 183.105 585.576C183.105 583.786 182.395 582.669 181.341 582.669ZM187.155 580.739V585.195H188.983V586.211H187.155V592.114H185.949V580.739H187.155ZM198.733 581.831V582.948C198.733 584.357 198.733 585.932 198.302 588.255L197.083 588.128C197.527 585.932 197.527 584.319 197.527 582.948V582.809H190.621V581.831H198.733ZM199.901 589.575V590.578H189.529V589.575H193.478V585.563H194.671V589.575H199.901ZM209.562 582.618V583.596H203.913V582.618H206.147V581.069H207.341V582.618H209.562ZM206.744 584.281C208.191 584.281 209.207 585.36 209.22 586.896C209.207 588.445 208.191 589.537 206.744 589.537C205.322 589.537 204.269 588.445 204.281 586.896C204.269 585.36 205.322 584.281 206.744 584.281ZM206.744 585.284C205.919 585.284 205.348 585.957 205.348 586.896C205.348 587.861 205.919 588.509 206.744 588.509C207.557 588.509 208.153 587.861 208.153 586.896C208.153 585.957 207.557 585.284 206.744 585.284ZM213.676 580.739V592.114H212.533V586.465H211.226V591.581H210.083V580.993H211.226V585.475H212.533V580.739H213.676ZM224.124 580.739V583.621H225.762V584.611H224.124V587.455H222.905V580.739H224.124ZM220.442 587.671C222.766 587.671 224.213 588.483 224.213 589.88C224.213 591.276 222.766 592.102 220.442 592.089C218.094 592.102 216.621 591.276 216.621 589.88C216.621 588.483 218.094 587.671 220.442 587.671ZM220.442 588.648C218.792 588.636 217.802 589.093 217.814 589.88C217.802 590.667 218.792 591.124 220.442 591.124C222.055 591.124 223.045 590.667 223.058 589.88C223.045 589.093 222.055 588.636 220.442 588.648ZM220.734 581.577V582.555H216.85V585.652C219.09 585.646 220.354 585.576 221.788 585.284L221.902 586.262C220.379 586.579 219.021 586.63 216.558 586.63H215.656V581.577H220.734ZM239.041 580.739V592.114H237.822V580.739H239.041ZM235.651 581.958C235.651 585.284 234.229 588.179 230.332 590.045L229.697 589.067C232.725 587.626 234.198 585.576 234.433 582.923H230.243V581.958H235.651ZM250.01 583.812V584.789H242.202V580.942H243.396V583.812H250.01ZM251.203 585.995V586.985H240.818V585.995H251.203ZM245.998 587.912C248.448 587.912 249.921 588.661 249.921 589.981C249.921 591.314 248.448 592.063 245.998 592.063C243.535 592.063 242.05 591.314 242.05 589.981C242.05 588.661 243.535 587.912 245.998 587.912ZM245.998 588.852C244.259 588.864 243.269 589.245 243.269 589.981C243.269 590.705 244.259 591.137 245.998 591.137C247.712 591.137 248.715 590.705 248.715 589.981C248.715 589.245 247.712 588.864 245.998 588.852ZM258.935 581.463C260.737 581.463 262.02 582.567 262.032 584.167C262.02 585.583 261.017 586.611 259.531 586.82V588.623C260.604 588.572 261.696 588.483 262.718 588.331L262.807 589.207C260.229 589.689 257.475 589.702 255.443 589.702L255.291 588.712C256.186 588.712 257.227 588.712 258.325 588.674V586.82C256.853 586.604 255.824 585.576 255.837 584.167C255.824 582.567 257.145 581.463 258.935 581.463ZM258.935 582.504C257.83 582.504 257.018 583.151 257.03 584.167C257.018 585.17 257.83 585.843 258.935 585.83C260.039 585.843 260.852 585.17 260.852 584.167C260.852 583.151 260.039 582.504 258.935 582.504ZM264.635 580.739V592.14H263.429V580.739H264.635ZM273.737 583.634C273.737 585.716 274.905 587.785 276.645 588.572L275.908 589.537C274.613 588.89 273.642 587.601 273.141 586.046C272.639 587.684 271.643 589.067 270.335 589.753L269.573 588.775C271.338 587.938 272.519 585.741 272.519 583.634V581.691H273.737V583.634ZM279.12 580.739V592.14H277.927V585.5H275.388V584.522H277.927V580.739H279.12ZM290.292 580.739V592.14H289.086V580.739H290.292ZM282.713 581.691V584.611H285.772V581.691H286.966V589.41H281.507V581.691H282.713ZM282.713 588.42H285.772V585.563H282.713V588.42ZM297.884 582.352C297.884 584.205 299.864 585.957 302.048 586.351L301.489 587.354C299.674 586.96 297.998 585.767 297.262 584.167C296.513 585.754 294.843 586.947 293.021 587.354L292.488 586.351C294.646 585.944 296.614 584.205 296.614 582.352V581.488H297.884V582.352ZM302.518 589.613V590.616H292.107V589.613H302.518ZM312.547 584.065V585.03H304.714V581.146H305.907V584.065H312.547ZM313.74 586.465V587.43H303.33V586.465H313.74ZM312.623 590.857V591.848H304.625V588.509H305.831V590.857H312.623ZM327.235 580.739V587.506H326.029V584.624H323.909V583.634H326.029V580.739H327.235ZM323.427 587.823C325.813 587.823 327.273 588.61 327.273 589.969C327.273 591.327 325.813 592.102 323.427 592.114C321.04 592.102 319.567 591.327 319.58 589.969C319.567 588.61 321.04 587.823 323.427 587.823ZM323.427 588.763C321.764 588.763 320.773 589.194 320.773 589.969C320.773 590.73 321.764 591.175 323.427 591.162C325.09 591.175 326.08 590.73 326.08 589.969C326.08 589.194 325.09 588.763 323.427 588.763ZM321.827 582.745C321.827 584.192 322.855 585.589 324.569 586.173L323.947 587.125C322.671 586.681 321.732 585.773 321.243 584.649C320.742 585.925 319.745 586.947 318.387 587.442L317.752 586.478C319.517 585.868 320.596 584.332 320.596 582.758V582.504H318.133V581.526H324.265V582.504H321.827V582.745ZM332.91 582.555C332.91 584.053 333.951 585.437 335.652 585.995L335.005 586.947C333.761 586.509 332.828 585.621 332.339 584.497C331.837 585.773 330.873 586.77 329.546 587.265L328.898 586.3C330.676 585.665 331.704 584.154 331.717 582.453V581.336H332.91V582.555ZM337.925 580.739V583.596H339.575V584.611H337.925V587.607H336.719V580.739H337.925ZM334.256 587.874C336.592 587.874 338.026 588.648 338.026 589.981C338.026 591.327 336.592 592.102 334.256 592.089C331.895 592.102 330.435 591.327 330.435 589.981C330.435 588.648 331.895 587.874 334.256 587.874ZM334.256 588.826C332.605 588.826 331.628 589.258 331.641 589.981C331.628 590.73 332.605 591.137 334.256 591.149C335.894 591.137 336.846 590.73 336.846 589.981C336.846 589.258 335.894 588.826 334.256 588.826ZM344.298 582.758C344.298 584.192 345.326 585.602 347.04 586.186L346.418 587.125C345.142 586.681 344.196 585.773 343.701 584.649C343.206 585.9 342.209 586.903 340.857 587.379L340.235 586.427C341.987 585.83 343.066 584.307 343.066 582.771V582.453H340.604V581.476H346.735V582.453H344.298V582.758ZM349.706 588.115V592.114H348.5V589.093H342V588.115H349.706ZM349.706 580.739V587.544H348.5V584.624H346.393V583.634H348.5V580.739H349.706ZM356.638 581.425C359.024 581.425 360.84 582.682 360.84 584.599C360.84 586.516 359.024 587.785 356.638 587.772C354.251 587.785 352.448 586.516 352.448 584.599C352.448 582.682 354.251 581.425 356.638 581.425ZM356.638 582.402C354.898 582.39 353.591 583.278 353.604 584.599C353.591 585.932 354.898 586.782 356.638 586.782C358.377 586.782 359.672 585.932 359.672 584.599C359.672 583.278 358.377 582.39 356.638 582.402ZM361.868 589.639V590.642H351.458V589.639H361.868ZM373.104 589.74V590.756H362.693V589.74H367.276V587.747H363.963V584.129H370.641V582.529H363.938V581.539H371.834V585.094H365.156V586.757H372.101V587.747H368.47V589.74H373.104ZM60.3672 601.634C60.3545 603.652 61.5225 605.709 63.2236 606.534L62.4746 607.499C61.2368 606.858 60.2783 605.582 59.7832 604.059C59.269 605.684 58.2725 607.042 56.9775 607.715L56.2285 606.737C57.9805 605.899 59.1611 603.716 59.1611 601.634V599.691H60.3672V601.634ZM65.2803 598.739V603.271H67.1084V604.3H65.2803V610.114H64.0742V598.739H65.2803ZM78.0264 604.287V605.265H67.6543V604.287H70.1426V602.751C69.2666 602.396 68.7715 601.824 68.7715 601.075C68.7715 599.729 70.333 598.942 72.834 598.942C75.3223 598.942 76.8965 599.729 76.8965 601.075C76.8965 601.824 76.395 602.402 75.5127 602.751V604.287H78.0264ZM72.834 606.039C75.2842 606.039 76.7568 606.763 76.7568 608.058C76.7568 609.378 75.2842 610.089 72.834 610.089C70.3584 610.089 68.8857 609.378 68.8857 608.058C68.8857 606.763 70.3584 606.039 72.834 606.039ZM72.834 606.966C71.0947 606.966 70.1045 607.359 70.1045 608.058C70.1045 608.769 71.0947 609.175 72.834 609.162C74.5479 609.175 75.5508 608.769 75.5508 608.058C75.5508 607.359 74.5479 606.966 72.834 606.966ZM72.834 599.869C71.0693 599.869 70.0029 600.313 70.0156 601.075C70.0029 601.837 71.0693 602.269 72.834 602.269C74.5986 602.269 75.6523 601.837 75.6523 601.075C75.6523 600.313 74.5986 599.869 72.834 599.869ZM71.3613 604.287H74.3193V603.068C73.875 603.145 73.3735 603.183 72.834 603.183C72.3008 603.183 71.8057 603.145 71.3613 603.081V604.287ZM90.9248 598.739V603.271H92.6895V604.274H90.9248V610.102H89.7188V598.739H90.9248ZM87.9541 599.933C87.9414 603.221 86.4941 606.153 82.749 608.007L82.0762 607.067C84.9263 605.646 86.4751 603.589 86.7227 600.936H82.6475V599.933H87.9541ZM102.49 601.812V602.789H94.6826V598.942H95.876V601.812H102.49ZM103.684 603.995V604.985H93.2988V603.995H103.684ZM98.4785 605.912C100.929 605.912 102.401 606.661 102.401 607.981C102.401 609.314 100.929 610.063 98.4785 610.063C96.0156 610.063 94.5303 609.314 94.5303 607.981C94.5303 606.661 96.0156 605.912 98.4785 605.912ZM98.4785 606.852C96.7393 606.864 95.749 607.245 95.749 607.981C95.749 608.705 96.7393 609.137 98.4785 609.137C100.192 609.137 101.195 608.705 101.195 607.981C101.195 607.245 100.192 606.864 98.4785 606.852ZM113.472 598.739V601.596H115.122V602.611H113.472V605.366H112.266V598.739H113.472ZM107.391 605.836V606.94H112.266V605.836H113.472V609.975H106.197V605.836H107.391ZM107.391 609.01H112.266V607.88H107.391V609.01ZM111.326 599.856V600.821H104.547V599.856H107.34V598.638H108.546V599.856H111.326ZM107.937 601.291C109.574 601.291 110.691 602.065 110.691 603.284C110.691 604.49 109.574 605.29 107.937 605.277C106.273 605.29 105.169 604.49 105.169 603.284C105.169 602.065 106.273 601.291 107.937 601.291ZM107.937 602.192C106.972 602.18 106.324 602.624 106.337 603.284C106.324 603.957 106.972 604.389 107.937 604.389C108.901 604.389 109.549 603.957 109.562 603.284C109.549 602.624 108.901 602.18 107.937 602.192ZM125.215 598.739V610.114H124.009V598.739H125.215ZM117.661 599.844V606.179C119.318 606.166 121.063 606.033 122.892 605.658L123.057 606.674C121.038 607.08 119.21 607.22 117.42 607.22H116.468V599.844H117.661ZM135.866 598.739V603.145H137.694V604.135H135.866V610.14H134.66V598.739H135.866ZM132.807 599.831V600.809H128.693V606.306C130.604 606.299 132.039 606.217 133.657 605.925L133.81 606.94C132.032 607.258 130.521 607.321 128.401 607.309H127.487V599.831H132.807ZM139.535 609.124C139.04 609.124 138.621 608.718 138.634 608.223C138.621 607.728 139.04 607.321 139.535 607.321C140.018 607.321 140.437 607.728 140.437 608.223C140.437 608.718 140.018 609.124 139.535 609.124Z" fill="#6B7280"/>
</svg>
