<svg width="400" height="292" viewBox="0 0 400 292" fill="none" xmlns="http://www.w3.org/2000/svg">
<rect width="400" height="292" fill="white"/>
<mask id="path-1-inside-1_907_2832" fill="white">
<path d="M0 0H133.333V73H0V0Z"/>
</mask>
<path d="M133.333 0H134.333V-1H133.333V0ZM133.333 73V74H134.333V73H133.333ZM0 1H133.333V-1H0V1ZM132.333 0V73H134.333V0H132.333ZM133.333 72H0V74H133.333V72Z" fill="#E6E6E6" mask="url(#path-1-inside-1_907_2832)"/>
<path d="M66.6813 47.293C62.0671 47.293 58.859 44.8027 58.8883 41.3457C58.859 38.6211 60.8073 36.3945 63.3122 36.0137V35.8965C61.1296 35.3984 59.6794 33.4648 59.6794 31.1504C59.6794 27.8838 62.6237 25.4961 66.6813 25.4961C70.6803 25.4961 73.6393 27.8838 73.654 31.1504C73.6393 33.4648 72.1598 35.3984 70.0212 35.8965V36.0137C72.4967 36.3945 74.4596 38.6211 74.4743 41.3457C74.4596 44.8027 71.2223 47.293 66.6813 47.293ZM62.1696 41.1113C62.1256 43.1914 63.8835 44.627 66.6813 44.627C69.4352 44.627 71.193 43.1914 71.193 41.1113C71.193 38.9287 69.2887 37.332 66.6813 37.332C64.0446 37.332 62.1256 38.9287 62.1696 41.1113ZM62.8141 31.4434C62.8288 33.4209 64.4108 34.7979 66.6813 34.7832C68.8932 34.7979 70.5046 33.4355 70.4899 31.4434C70.5046 29.4658 68.9518 28.1182 66.6813 28.1328C64.3522 28.1182 62.8288 29.4658 62.8141 31.4434Z" fill="#334569"/>
<mask id="path-4-inside-2_907_2832" fill="white">
<path d="M133.334 0H266.667V73H133.334V0Z"/>
</mask>
<path d="M266.667 0H267.667V-1H266.667V0ZM266.667 73V74H267.667V73H266.667ZM133.334 1H266.667V-1H133.334V1ZM265.667 0V73H267.667V0H265.667ZM266.667 72H133.334V74H266.667V72Z" fill="#E6E6E6" mask="url(#path-4-inside-2_907_2832)"/>
<path d="M199.825 25.4961C203.721 25.5254 207.808 27.8691 207.823 35.6328C207.823 43.0742 204.615 47.293 199.532 47.293C195.621 47.293 192.896 44.876 192.383 41.4336H195.577C196.016 43.2207 197.393 44.4658 199.532 44.4805C202.799 44.4658 204.717 41.624 204.747 36.7754H204.483C203.34 38.5625 201.348 39.6465 199.063 39.6465C195.255 39.6465 192.208 36.7314 192.208 32.6738C192.208 28.6309 195.211 25.4668 199.825 25.4961ZM195.342 32.6152C195.357 35.0762 197.188 37.0244 199.766 37.0098C202.33 37.0244 204.307 34.9297 204.307 32.5859C204.307 30.2861 202.418 28.1914 199.825 28.1914C197.261 28.1914 195.328 30.1836 195.342 32.6152Z" fill="#334569"/>
<mask id="path-7-inside-3_907_2832" fill="white">
<path d="M266.666 0H399.999V73H266.666V0Z"/>
</mask>
<path d="M399.999 0H400.999V-1H399.999V0ZM399.999 73V74H400.999V73H399.999ZM266.666 1H399.999V-1H266.666V1ZM398.999 0V73H400.999V0H398.999ZM399.999 72H266.666V74H399.999V72Z" fill="#E6E6E6" mask="url(#path-7-inside-3_907_2832)"/>
<path d="M333.377 47.293C328.982 47.293 325.862 44.9346 325.73 41.4629H329.011C329.129 43.3232 330.974 44.5098 333.347 44.5098C335.911 44.5098 337.771 43.1182 337.771 41.0527C337.771 38.958 336.028 37.4639 332.996 37.4492H331.179V34.8125H332.996C335.413 34.8271 337.097 33.4795 337.097 31.4434C337.097 29.5098 335.647 28.1914 333.406 28.1914C331.282 28.1914 329.378 29.3779 329.304 31.2969H326.199C326.287 27.8398 329.48 25.4961 333.435 25.4961C337.61 25.4961 340.232 28.1328 340.203 31.2676C340.232 33.6846 338.738 35.4131 336.453 35.9844V36.1309C339.353 36.541 341.038 38.4893 341.023 41.1699C341.038 44.7002 337.771 47.293 333.377 47.293Z" fill="#334569"/>
<mask id="path-10-inside-4_907_2832" fill="white">
<path d="M0 73H133.333V146H0V73Z"/>
</mask>
<path d="M133.333 146V147H134.333V146H133.333ZM0 146H-1V147H0V146ZM132.333 73V146H134.333V73H132.333ZM133.333 145H0V147H133.333V145ZM1 146V73H-1V146H1Z" fill="#E6E6E6" mask="url(#path-10-inside-4_907_2832)"/>
<path d="M59.6208 120V117.656L66.9743 110.244C69.3034 107.827 70.4606 106.479 70.4606 104.619C70.4606 102.524 68.7614 101.191 66.5348 101.191C64.1764 101.191 62.6823 102.686 62.6676 104.941H59.6208C59.5915 101.06 62.5505 98.4961 66.5934 98.4961C70.6803 98.4961 73.5075 101.089 73.5368 104.531C73.5075 106.904 72.3942 108.794 68.4098 112.705L64.1032 117.07V117.246H73.8883V120H59.6208Z" fill="#334569"/>
<mask id="path-13-inside-5_907_2832" fill="white">
<path d="M133.334 73H266.667V146H133.334V73Z"/>
</mask>
<path d="M266.667 146V147H267.667V146H266.667ZM265.667 73V146H267.667V73H265.667ZM266.667 145H133.334V147H266.667V145Z" fill="#E6E6E6" mask="url(#path-13-inside-5_907_2832)"/>
<path d="M200.206 120.293C196.28 120.264 192.178 117.935 192.178 110.098C192.193 102.715 195.386 98.4961 200.469 98.4961C204.381 98.4961 207.09 100.928 207.589 104.297H204.395C203.97 102.568 202.608 101.323 200.469 101.309C197.188 101.323 195.284 104.165 195.284 108.955H195.518C196.675 107.153 198.668 106.099 200.967 106.084C204.747 106.099 207.794 108.999 207.794 113.057C207.794 117.173 204.761 120.322 200.206 120.293ZM195.665 113.145C195.679 115.503 197.569 117.583 200.176 117.598C202.74 117.583 204.659 115.591 204.659 113.115C204.659 110.684 202.813 108.706 200.264 108.721C197.672 108.706 195.694 110.786 195.665 113.145Z" fill="#334569"/>
<mask id="path-16-inside-6_907_2832" fill="white">
<path d="M266.666 73H399.999V146H266.666V73Z"/>
</mask>
<path d="M399.999 146V147H400.999V146H399.999ZM398.999 73V146H400.999V73H398.999ZM399.999 145H266.666V147H399.999V145Z" fill="#E6E6E6" mask="url(#path-16-inside-6_907_2832)"/>
<path d="M336.541 98.7891V120H333.289V102.012H333.172L328.103 105.322V102.246L333.377 98.7891H336.541Z" fill="#334569"/>
<mask id="path-19-inside-7_907_2832" fill="white">
<path d="M0 146H133.333V219H0V146Z"/>
</mask>
<path d="M133.333 219V220H134.333V219H133.333ZM0 219H-1V220H0V219ZM132.333 146V219H134.333V146H132.333ZM133.333 218H0V220H133.333V218ZM1 219V146H-1V219H1Z" fill="#E6E6E6" mask="url(#path-19-inside-7_907_2832)"/>
<path d="M58.5514 188.869V186.262L67.9264 171.789H71.9108V186.145H74.8112V188.869H71.9108V193H68.8639V188.869H58.5514ZM61.9499 186.145H68.8639V175.627H68.6296L61.9499 185.969V186.145Z" fill="#334569"/>
<mask id="path-22-inside-8_907_2832" fill="white">
<path d="M133.334 146H266.667V219H133.334V146Z"/>
</mask>
<path d="M266.667 219V220H267.667V219H266.667ZM265.667 146V219H267.667V146H265.667ZM266.667 218H133.334V220H266.667V218Z" fill="#E6E6E6" mask="url(#path-22-inside-8_907_2832)"/>
<path d="M194.215 193L203.677 174.719V174.543H192.75V171.789H207.017V174.66L197.584 193H194.215Z" fill="#334569"/>
<mask id="path-25-inside-9_907_2832" fill="white">
<path d="M266.666 146H399.999V219H266.666V146Z"/>
</mask>
<path d="M399.999 219V220H400.999V219H399.999ZM398.999 146V219H400.999V146H398.999ZM399.999 218H266.666V220H399.999V218Z" fill="#E6E6E6" mask="url(#path-25-inside-9_907_2832)"/>
<path d="M333.318 193.293C329.304 193.293 326.287 190.847 326.14 187.463H329.275C329.451 189.265 331.179 190.583 333.318 190.598C335.896 190.583 337.742 188.723 337.742 186.203C337.742 183.625 335.838 181.75 333.172 181.721C331.472 181.721 330.169 182.292 329.451 183.596H326.404L327.781 171.789H339.793V174.543H330.447L329.744 180.49H329.949C330.828 179.641 332.322 179.069 333.933 179.055C337.932 179.069 340.877 182.028 340.877 186.115C340.877 190.29 337.742 193.293 333.318 193.293Z" fill="#334569"/>
<mask id="path-28-inside-10_907_2832" fill="white">
<path d="M0 219H133.333V292H0V219Z"/>
</mask>
<path d="M0 219H133.333V292H0V219Z" fill="#F3F3F3"/>
<path d="M133.333 292V293H134.333V292H133.333ZM0 292H-1V293H0V292ZM132.333 219V292H134.333V219H132.333ZM133.333 291H0V293H133.333V291ZM1 292V219H-1V292H1Z" fill="#E6E6E6" mask="url(#path-28-inside-10_907_2832)"/>
<path d="M65.766 261.5L69.666 257.6L73.566 261.5L75.666 259.4L71.766 255.5L75.666 251.6L73.566 249.5L69.666 253.4L65.766 249.5L63.666 251.6L67.566 255.5L63.666 259.4L65.766 261.5ZM62.166 267.5C61.691 267.5 61.241 267.394 60.816 267.181C60.391 266.969 60.041 266.675 59.766 266.3L51.666 255.5L59.766 244.7C60.041 244.325 60.391 244.031 60.816 243.819C61.241 243.606 61.691 243.5 62.166 243.5H78.666C79.491 243.5 80.1973 243.794 80.7848 244.381C81.3723 244.969 81.666 245.675 81.666 246.5V264.5C81.666 265.325 81.3723 266.031 80.7848 266.619C80.1973 267.206 79.491 267.5 78.666 267.5H62.166ZM55.416 255.5L62.166 264.5H78.666V246.5H62.166L55.416 255.5Z" fill="#334569"/>
<mask id="path-31-inside-11_907_2832" fill="white">
<path d="M133.334 219H266.667V292H133.334V219Z"/>
</mask>
<path d="M266.667 292V293H267.667V292H266.667ZM265.667 219V292H267.667V219H265.667ZM266.667 291H133.334V293H266.667V291Z" fill="#E6E6E6" mask="url(#path-31-inside-11_907_2832)"/>
<path d="M200.001 266.293C195.093 266.293 192.208 262.338 192.208 255.395C192.208 248.495 195.123 244.496 200.001 244.496C204.864 244.496 207.779 248.495 207.794 255.395C207.779 262.338 204.908 266.293 200.001 266.293ZM195.43 255.395C195.416 260.683 197.13 263.51 200.001 263.51C202.857 263.51 204.571 260.683 204.571 255.395C204.571 250.121 202.842 247.235 200.001 247.221C197.144 247.235 195.43 250.121 195.43 255.395Z" fill="#334569"/>
<mask id="path-34-inside-12_907_2832" fill="white">
<path d="M266.666 219H399.999V292H266.666V219Z"/>
</mask>
<path d="M266.666 219H399.999V292H266.666V219Z" fill="#4094ED"/>
<path d="M399.999 292V293H400.999V292H399.999ZM398.999 219V292H400.999V219H398.999ZM399.999 291H266.666V293H399.999V291Z" fill="#E6E6E6" mask="url(#path-34-inside-12_907_2832)"/>
<path d="M312.214 245.512V259.691H309.829V252.58H306.391V250.646H309.829V245.512H312.214ZM295.907 255.502C299.001 254.481 300.655 251.946 300.655 249.357V248.842H296.616V246.908H307.1V248.842H303.083V249.379C303.083 251.71 304.651 254.127 307.659 255.115L306.456 257.027C304.286 256.286 302.75 254.804 301.901 252.967C301.052 255.008 299.43 256.641 297.132 257.436L295.907 255.502ZM299.473 264.525V258.445H301.858V262.592H312.708V264.525H299.473ZM320.893 251.42C320.893 254.428 322.129 257.457 324.846 258.918L323.514 260.68C321.71 259.724 320.485 258.016 319.787 255.975C319.099 258.177 317.875 260.067 316.059 261.131L314.663 259.326C317.413 257.736 318.627 254.492 318.637 251.42V250.818H315.329V248.885H318.637V246.178H320.893V248.885H324.137V250.818H320.893V251.42ZM322.934 254.922V252.945H325.469V245.855H327.725V263.967H325.469V254.922H322.934ZM329.401 264.912V245.49H331.678V264.912H329.401ZM340.938 248.562C340.917 250.99 342.496 253.311 345.514 254.277L344.311 256.146C342.131 255.448 340.594 253.987 339.746 252.15C338.897 254.138 337.318 255.695 335.051 256.447L333.827 254.557C336.964 253.536 338.532 251.033 338.532 248.369V246.5H340.938V248.562ZM336.362 260.014V258.102H349.296V264.912H346.911V260.014H336.362ZM346.911 257.242V245.49H349.296V250.367H352.003V252.365H349.296V257.242H346.911ZM369.706 245.49V264.912H367.428V245.49H369.706ZM352.647 259.391C355.451 257.683 356.686 254.181 356.686 250.797V249.508H353.313V247.574H362.122V249.508H358.985V250.797C358.985 254.073 360.156 257.36 362.938 258.961L361.52 260.723C359.726 259.659 358.534 257.812 357.857 255.599C357.17 257.994 355.934 260.035 354.108 261.174L352.647 259.391ZM360.704 254.191V252.258H363.497V245.855H365.753V263.967H363.497V254.191H360.704Z" fill="white"/>
</svg>
