<svg width="400" height="390" viewBox="0 0 400 390" fill="none" xmlns="http://www.w3.org/2000/svg">
<rect x="15" width="370" height="390" rx="15" fill="white"/>
<mask id="mask0_944_1013" style="mask-type:alpha" maskUnits="userSpaceOnUse" x="325" y="20" width="40" height="40">
<rect x="325" y="20" width="40" height="40" fill="#D9D9D9"/>
</mask>
<g mask="url(#mask0_944_1013)">
<path d="M344.999 41.4736L336.262 50.2111C336.062 50.412 335.818 50.515 335.533 50.5203C335.248 50.5256 334.999 50.4225 334.788 50.2111C334.576 49.9995 334.471 49.7536 334.471 49.4736C334.471 49.1939 334.576 48.9482 334.788 48.7365L343.525 39.9995L334.788 31.2624C334.587 31.0615 334.484 30.8185 334.479 30.5332C334.473 30.2479 334.576 29.9995 334.788 29.7878C334.999 29.5764 335.245 29.4707 335.525 29.4707C335.805 29.4707 336.051 29.5764 336.262 29.7878L344.999 38.5253L353.737 29.7878C353.937 29.587 354.18 29.4839 354.466 29.4786C354.751 29.4733 354.999 29.5764 355.211 29.7878C355.423 29.9995 355.528 30.2453 355.528 30.5253C355.528 30.805 355.423 31.0507 355.211 31.2624L346.474 39.9995L355.211 48.7365C355.412 48.9374 355.515 49.1804 355.52 49.4657C355.526 49.751 355.423 49.9995 355.211 50.2111C354.999 50.4225 354.754 50.5282 354.474 50.5282C354.194 50.5282 353.948 50.4225 353.737 50.2111L344.999 41.4736Z" fill="#6B7280"/>
</g>
<rect x="131" y="76" width="64" height="64" rx="32" fill="#EBF5FF"/>
<path d="M152.75 95.2617V101.262M173.25 95.2617V101.262M162.75 102.262C161.417 104.262 159.55 108.862 162.75 111.262M150.25 116.762C154.583 119.762 165.75 123.962 175.75 116.762" stroke="#0077FA" stroke-width="2" stroke-linecap="round" stroke-linejoin="round"/>
<rect x="205" y="76" width="64" height="64" rx="32" fill="#F3F4F6"/>
<path d="M233.167 124.402C232.849 124.402 232.53 124.29 232.273 124.063C231.71 123.568 231.656 122.711 232.151 122.148C235.885 117.898 237.499 112.273 236.584 106.708C236.462 105.969 236.963 105.271 237.702 105.149C238.441 105.027 239.139 105.529 239.261 106.268C240.308 112.635 238.461 119.078 234.191 123.938C233.923 124.243 233.547 124.398 233.171 124.398L233.167 124.402Z" fill="#4B5563"/>
<path d="M228.747 122.552C228.385 122.552 228.025 122.406 227.758 122.121C227.246 121.576 227.276 120.718 227.822 120.206C230.821 117.4 232.479 113.445 232.36 109.362C232.34 108.613 232.929 107.989 233.675 107.969C234.434 107.959 235.047 108.538 235.068 109.284C235.207 114.147 233.238 118.847 229.672 122.186C229.412 122.43 229.079 122.552 228.747 122.552Z" fill="#9CA3AF"/>
<path d="M242.66 111.062C241.915 111.062 241.308 110.458 241.305 109.709C241.301 108.191 241.145 106.659 240.84 105.158C240.834 105.124 240.827 105.09 240.823 105.056C240.64 104.28 240.179 103.616 239.512 103.172C238.817 102.711 237.983 102.545 237.167 102.711C235.94 102.959 234.981 103.911 234.723 105.138C234.571 105.87 233.852 106.341 233.12 106.188C232.388 106.036 231.917 105.317 232.07 104.585C232.548 102.298 234.337 100.518 236.631 100.054C238.16 99.7458 239.715 100.054 241.013 100.915C242.311 101.776 243.196 103.094 243.504 104.623C243.514 104.663 243.518 104.707 243.524 104.748C243.846 106.385 244.012 108.052 244.016 109.706C244.016 110.455 243.413 111.062 242.664 111.065H242.66V111.062Z" fill="#4B5563"/>
<path d="M238.352 125.001C238.088 125.001 237.824 124.923 237.59 124.764C236.973 124.34 236.814 123.496 237.237 122.879C239.094 120.165 240.379 117.027 240.952 113.807C241.08 113.068 241.785 112.577 242.524 112.709C243.259 112.841 243.751 113.543 243.622 114.281C242.985 117.877 241.551 121.381 239.477 124.411C239.216 124.794 238.789 125.001 238.359 125.001H238.352Z" fill="#D1D5DB"/>
<path d="M225.139 119.77C224.746 119.77 224.356 119.601 224.088 119.275C223.614 118.696 223.699 117.842 224.278 117.367C225.593 116.29 226.61 114.883 227.226 113.301C227.498 112.603 228.284 112.257 228.982 112.528C229.68 112.799 230.026 113.585 229.755 114.283C228.972 116.303 227.67 118.096 225.996 119.465C225.745 119.672 225.44 119.774 225.139 119.774V119.77Z" fill="#4B5563"/>
<path d="M246.747 115.822C246.672 115.822 246.601 115.815 246.523 115.805C245.785 115.683 245.283 114.985 245.405 114.246C245.951 110.942 245.886 107.587 245.219 104.276C245.215 104.255 245.212 104.238 245.208 104.218C244.798 102.256 243.653 100.565 241.979 99.453C240.291 98.3313 238.264 97.9347 236.278 98.3346C234.293 98.7345 232.578 99.8868 231.456 101.575C230.361 103.218 229.958 105.184 230.307 107.122C230.324 107.173 230.338 107.221 230.348 107.275C230.463 107.847 230.541 108.434 230.575 109.017C230.619 109.766 230.05 110.406 229.304 110.45C228.562 110.494 227.914 109.925 227.87 109.179C227.847 108.776 227.796 108.369 227.721 107.966C227.704 107.915 227.691 107.864 227.681 107.814C226.559 102.246 230.175 96.8028 235.743 95.6777C238.441 95.1321 241.189 95.6743 243.48 97.196C245.771 98.7176 247.333 101.042 247.879 103.74C247.882 103.76 247.886 103.784 247.889 103.804C248.611 107.42 248.675 111.081 248.082 114.69C247.974 115.354 247.398 115.825 246.747 115.825V115.822Z" fill="#D1D5DB"/>
<path d="M244.195 123.821C243.995 123.821 243.795 123.777 243.602 123.682C242.927 123.353 242.649 122.543 242.978 121.869C243.52 120.754 243.995 119.592 244.381 118.419C244.615 117.707 245.384 117.321 246.092 117.558C246.804 117.792 247.19 118.561 246.953 119.27C246.526 120.557 246.008 121.835 245.411 123.058C245.177 123.54 244.693 123.821 244.191 123.821H244.195Z" fill="#4B5563"/>
<path d="M222.394 116.239C222.008 116.239 221.628 116.076 221.361 115.761C220.876 115.189 220.947 114.335 221.52 113.85C222.981 112.61 223.672 110.691 223.336 108.814C223.326 108.777 223.316 108.736 223.306 108.695C223.15 107.926 223.055 107.143 223.025 106.364C222.994 105.615 223.577 104.984 224.323 104.954C225.072 104.93 225.702 105.506 225.732 106.252C225.756 106.845 225.827 107.445 225.939 108.031C225.953 108.072 225.963 108.116 225.97 108.156C226.553 111.04 225.516 114.016 223.269 115.917C223.014 116.134 222.703 116.239 222.394 116.239Z" fill="#9CA3AF"/>
<path d="M251.235 106.214C250.574 106.214 249.994 105.729 249.896 105.058C249.818 104.533 249.726 103.998 249.621 103.469C249.615 103.442 249.608 103.415 249.604 103.391C248.967 100.233 247.141 97.5146 244.457 95.732C241.776 93.9494 238.56 93.3191 235.401 93.9562C231.209 94.8035 227.851 97.7146 226.417 101.751C226.166 102.456 225.39 102.825 224.685 102.574C223.98 102.324 223.611 101.548 223.862 100.843C225.59 95.976 229.806 92.3159 234.866 91.2959C238.733 90.5164 242.671 91.2891 245.958 93.4716C249.218 95.6371 251.448 98.938 252.244 102.768C252.251 102.795 252.258 102.822 252.265 102.852C252.387 103.452 252.492 104.059 252.58 104.659C252.688 105.401 252.177 106.089 251.438 106.197C251.37 106.207 251.302 106.211 251.238 106.211L251.235 106.214Z" fill="#4B5563"/>
<path d="M250.475 119.722C250.36 119.722 250.242 119.708 250.126 119.674C249.405 119.481 248.974 118.739 249.167 118.014C249.865 115.394 250.228 112.696 250.248 109.992C250.252 109.246 250.858 108.646 251.604 108.646H251.614C252.363 108.653 252.966 109.263 252.96 110.012C252.939 112.947 252.546 115.875 251.787 118.715C251.624 119.322 251.079 119.722 250.479 119.722H250.475Z" fill="#9CA3AF"/>
<path d="M137.39 165.368V170.803H140.056V172.423H137.39V178.719H135.421V165.368H137.39ZM132.406 166.763C132.406 171.582 129.125 175.089 123.752 176.709L122.932 175.15C127.228 173.858 129.904 171.418 130.294 168.383H123.711V166.763H132.406ZM138.148 181.774V183.354H125.721V177.345H127.689V181.774H138.148ZM156.421 165.368V179.006H154.473V173.94H151.602V172.3H154.473V170.372H151.602V168.772H154.473V165.368H156.421ZM151.396 166.804V168.383H149.633V174.535C150.412 174.474 151.161 174.412 151.889 174.33L151.971 175.766C148.443 176.319 144.321 176.381 141.368 176.401L141.122 174.761L143.357 174.74V168.383H141.635V166.804H151.396ZM156.893 181.774V183.354H144.444V177.898H146.413V181.774H156.893ZM145.244 174.72C146.075 174.699 146.916 174.679 147.767 174.638V168.383H145.244V174.72ZM173.688 165.389V171.295H176.354V172.915H173.688V179.129H171.74V165.389H173.688ZM170.223 167.521V169.101H159.271V167.521H163.783V165.368H165.731V167.521H170.223ZM164.747 169.982C167.393 169.982 169.197 171.356 169.197 173.448C169.197 175.54 167.393 176.894 164.747 176.894C162.081 176.894 160.276 175.54 160.276 173.448C160.276 171.356 162.081 169.982 164.747 169.982ZM164.747 171.479C163.188 171.479 162.143 172.238 162.163 173.448C162.143 174.638 163.188 175.376 164.747 175.376C166.306 175.376 167.352 174.638 167.372 173.448C167.352 172.238 166.306 171.479 164.747 171.479ZM174.468 181.774V183.354H162.04V178.042H163.988V181.774H174.468ZM188.905 170.044C188.885 173.305 190.771 176.627 193.52 177.96L192.31 179.519C190.31 178.483 188.762 176.422 187.962 173.961C187.131 176.586 185.521 178.78 183.43 179.867L182.22 178.288C185.05 176.935 186.957 173.407 186.957 170.044V166.906H188.905V170.044ZM196.842 165.368V172.689H199.795V174.351H196.842V183.743H194.894V165.368H196.842ZM217.432 174.33V175.909H200.677V174.33H204.696V171.849C203.281 171.274 202.481 170.352 202.481 169.142C202.481 166.968 205.004 165.696 209.044 165.696C213.063 165.696 215.606 166.968 215.606 169.142C215.606 170.352 214.796 171.285 213.371 171.849V174.33H217.432ZM209.044 177.16C213.002 177.16 215.381 178.329 215.381 180.421C215.381 182.554 213.002 183.702 209.044 183.702C205.045 183.702 202.666 182.554 202.666 180.421C202.666 178.329 205.045 177.16 209.044 177.16ZM209.044 178.657C206.234 178.657 204.635 179.293 204.635 180.421C204.635 181.569 206.234 182.226 209.044 182.205C211.812 182.226 213.433 181.569 213.433 180.421C213.433 179.293 211.812 178.657 209.044 178.657ZM209.044 167.193C206.193 167.193 204.471 167.911 204.491 169.142C204.471 170.372 206.193 171.069 209.044 171.069C211.895 171.069 213.597 170.372 213.597 169.142C213.597 167.911 211.895 167.193 209.044 167.193ZM206.665 174.33H211.443V172.361C210.726 172.484 209.916 172.546 209.044 172.546C208.183 172.546 207.383 172.484 206.665 172.382V174.33ZM227.193 165.676C231.336 165.676 233.756 166.783 233.756 168.834C233.756 170.885 231.336 172.013 227.193 172.013C223.051 172.013 220.631 170.885 220.631 168.834C220.631 166.783 223.051 165.676 227.193 165.676ZM227.193 167.111C224.261 167.111 222.641 167.747 222.661 168.834C222.641 169.962 224.261 170.557 227.193 170.557C230.126 170.557 231.746 169.962 231.746 168.834C231.746 167.747 230.126 167.111 227.193 167.111ZM235.581 173.141V174.699H218.826V173.141H235.581ZM233.469 176.114V180.421H222.764V182.062H233.981V183.559H220.856V179.006H231.541V177.57H220.836V176.114H233.469ZM248.132 166.209C250.9 166.209 252.91 167.747 252.91 170.023C252.91 172.279 250.9 173.838 248.132 173.817C245.363 173.838 243.395 172.279 243.395 170.023C243.395 167.747 245.363 166.209 248.132 166.209ZM248.132 167.788C246.471 167.788 245.261 168.67 245.281 170.023C245.261 171.356 246.471 172.238 248.132 172.218C249.834 172.238 251.044 171.356 251.044 170.023C251.044 168.67 249.834 167.788 248.132 167.788ZM257.381 165.389V183.743H255.453V165.389H257.381ZM242.082 175.253C245.466 175.253 250.162 175.171 254.182 174.576L254.325 176.032C252.654 176.35 250.911 176.545 249.219 176.668V183.169H247.271V176.771C245.486 176.853 243.805 176.863 242.349 176.873L242.082 175.253ZM269.337 168.403V169.982H260.211V168.403H263.82V165.901H265.748V168.403H269.337ZM264.784 171.09C267.122 171.09 268.763 172.833 268.783 175.314C268.763 177.816 267.122 179.58 264.784 179.58C262.487 179.58 260.785 177.816 260.806 175.314C260.785 172.833 262.487 171.09 264.784 171.09ZM264.784 172.71C263.451 172.71 262.528 173.797 262.528 175.314C262.528 176.873 263.451 177.919 264.784 177.919C266.097 177.919 267.061 176.873 267.061 175.314C267.061 173.797 266.097 172.71 264.784 172.71ZM275.981 165.368V183.743H274.136V174.617H272.023V182.882H270.178V165.778H272.023V173.018H274.136V165.368H275.981ZM89.5962 197.896C89.5962 199.905 90.8882 201.936 93.2671 202.838L92.2417 204.335C90.5293 203.679 89.3296 202.428 88.6733 200.91C87.9966 202.623 86.7354 204.109 84.9614 204.868L83.895 203.351C86.3765 202.264 87.7095 199.946 87.7095 197.896V195.517H89.5962V197.896ZM99.645 194.389V205.688H97.7993V200.767H95.646V205.114H93.8413V194.717H95.646V199.167H97.7993V194.389H99.645ZM93.4927 206.037C97.3276 206.037 99.7271 207.288 99.7476 209.38C99.7271 211.472 97.3276 212.723 93.4927 212.702C89.6577 212.723 87.2583 211.472 87.2788 209.38C87.2583 207.288 89.6577 206.037 93.4927 206.037ZM93.4927 207.534C90.8267 207.534 89.186 208.211 89.2065 209.38C89.186 210.549 90.8267 211.226 93.4927 211.205C96.1587 211.226 97.7788 210.549 97.7993 209.38C97.7788 208.211 96.1587 207.534 93.4927 207.534ZM107.623 200.008C107.623 202.899 108.956 205.853 111.499 207.206L110.412 208.642C108.638 207.698 107.397 205.935 106.741 203.843C106.074 206.088 104.844 208.016 103.07 209.072L101.921 207.596C104.464 206.119 105.777 202.981 105.797 200.008V199.27H102.475V197.67H105.797V195.024H107.623V197.67H110.883V199.27H107.623V200.008ZM117.897 194.368V212.743H116.031V194.368H117.897ZM114.165 194.758V211.82H112.319V203.146H109.673V201.525H112.319V194.758H114.165ZM135.513 194.389V207.739H133.565V194.389H135.513ZM136.067 210.774V212.354H123.496V206.386H125.464V210.774H136.067ZM125.546 195.619C128.315 195.619 130.427 197.506 130.427 200.172C130.427 202.879 128.315 204.745 125.546 204.745C122.778 204.745 120.645 202.879 120.645 200.172C120.645 197.506 122.778 195.619 125.546 195.619ZM125.546 197.321C123.824 197.321 122.552 198.49 122.552 200.172C122.552 201.895 123.824 203.043 125.546 203.043C127.228 203.043 128.52 201.895 128.52 200.172C128.52 198.49 127.228 197.321 125.546 197.321ZM155.18 203.022V204.602H138.425V203.022H155.18ZM146.792 206.017C150.75 206.017 153.129 207.247 153.129 209.38C153.129 211.513 150.75 212.723 146.792 212.702C142.814 212.723 140.415 211.513 140.415 209.38C140.415 207.247 142.814 206.017 146.792 206.017ZM146.792 207.534C143.983 207.555 142.383 208.19 142.383 209.38C142.383 210.549 143.983 211.164 146.792 211.164C149.561 211.164 151.181 210.549 151.181 209.38C151.181 208.19 149.561 207.555 146.792 207.534ZM153.683 195.271V196.87H148.105C148.32 198.654 150.925 200.172 154.319 200.521L153.622 202.059C150.443 201.689 147.808 200.346 146.813 198.408C145.788 200.346 143.163 201.689 139.984 202.059L139.307 200.521C142.64 200.172 145.265 198.665 145.5 196.87H139.963V195.271H153.683ZM164.942 194.676C169.084 194.676 171.504 195.783 171.504 197.834C171.504 199.885 169.084 201.013 164.942 201.013C160.799 201.013 158.379 199.885 158.379 197.834C158.379 195.783 160.799 194.676 164.942 194.676ZM164.942 196.111C162.009 196.111 160.389 196.747 160.41 197.834C160.389 198.962 162.009 199.557 164.942 199.557C167.875 199.557 169.495 198.962 169.495 197.834C169.495 196.747 167.875 196.111 164.942 196.111ZM173.33 202.141V203.699H156.575V202.141H173.33ZM171.217 205.114V209.421H160.512V211.062H171.73V212.559H158.605V208.006H169.29V206.57H158.584V205.114H171.217ZM196.626 203.002V204.602H179.851V203.002H196.626ZM194.678 199.823V201.402H181.943V195.024H194.555V196.624H183.871V199.823H194.678ZM188.218 206.037C192.176 206.037 194.555 207.247 194.555 209.38C194.555 211.513 192.176 212.723 188.218 212.702C184.24 212.723 181.84 211.513 181.84 209.38C181.84 207.247 184.24 206.037 188.218 206.037ZM188.218 207.534C185.409 207.555 183.809 208.211 183.809 209.38C183.809 210.549 185.409 211.205 188.218 211.205C190.987 211.205 192.607 210.549 192.607 209.38C192.607 208.211 190.987 207.555 188.218 207.534ZM214.796 204.396V205.976H197.98V204.396H205.424V202.653H200.133V197.978H210.736V196.337H200.092V194.799H212.684V199.413H202.061V201.136H213.053V202.653H207.352V204.396H214.796ZM212.787 207.268V212.6H210.818V208.826H199.867V207.268H212.787ZM230.464 194.368V201.812H233.417V203.433H230.464V212.743H228.537V194.368H230.464ZM226.937 197.239V198.839H216.047V197.239H220.58V194.614H222.528V197.239H226.937ZM221.564 200.192C224.189 200.192 226.117 201.956 226.137 204.458C226.117 206.98 224.189 208.724 221.564 208.744C218.918 208.724 216.991 206.98 216.991 204.458C216.991 201.956 218.918 200.192 221.564 200.192ZM221.564 201.792C220.005 201.792 218.836 202.879 218.857 204.458C218.836 206.058 220.005 207.124 221.564 207.104C223.123 207.124 224.271 206.058 224.271 204.458C224.271 202.879 223.123 201.792 221.564 201.792ZM241.046 199.044C241.026 202.407 243.056 205.771 245.907 207.042L244.738 208.58C242.625 207.575 240.954 205.514 240.103 203.002C239.242 205.688 237.55 207.914 235.345 208.99L234.156 207.35C237.047 206.058 239.078 202.551 239.078 199.044V195.906H241.046V199.044ZM249.516 194.368V212.784H247.568V194.368H249.516ZM260.59 195.701C260.59 197.065 260.365 198.316 259.934 199.454H262.539V194.758H264.384V204.663H262.539V201.033H259.114C257.945 202.848 256.089 204.294 253.556 205.36L252.572 203.904C256.212 202.458 258.222 200.203 258.581 197.28H253.413V195.701H260.59ZM268.117 194.389V204.95H266.271V194.389H268.117ZM258.991 206.652C258.97 208.242 259.76 209.903 261.431 210.918C263.103 209.811 263.913 208.026 263.933 206.652V205.545H265.82V206.652C265.82 208.56 267.091 210.446 269.47 211.226L268.527 212.661C266.702 212.015 265.471 210.785 264.835 209.257C264.251 210.733 263.164 212.097 261.452 212.805C259.698 212.138 258.601 210.815 258.047 209.298C257.381 210.774 256.161 212.005 254.438 212.661L253.454 211.226C255.812 210.385 257.125 208.437 257.125 206.652V205.545H258.991V206.652ZM275.582 195.742C278.073 195.742 279.898 197.854 280.196 201.259H283.99V194.368H285.917V212.784H283.99V202.838H280.216C280.001 206.417 278.135 208.642 275.582 208.642C272.833 208.642 270.906 206.14 270.926 202.182C270.906 198.244 272.833 195.742 275.582 195.742ZM275.582 197.485C273.92 197.485 272.772 199.29 272.772 202.182C272.772 205.094 273.92 206.898 275.582 206.898C277.243 206.898 278.391 205.094 278.391 202.182C278.391 199.29 277.243 197.485 275.582 197.485ZM305.564 208.826V210.446H288.748V208.826H292.767V204.027C291.26 203.197 290.347 201.874 290.347 200.233C290.347 197.342 293.177 195.435 297.115 195.435C301.073 195.435 303.903 197.342 303.903 200.233C303.903 201.854 303.021 203.156 301.544 203.986V208.826H305.564ZM297.115 196.993C294.223 196.993 292.234 198.244 292.234 200.233C292.234 202.202 294.223 203.494 297.115 203.494C299.986 203.494 302.016 202.202 302.016 200.233C302.016 198.244 299.986 196.993 297.115 196.993ZM294.695 208.826H299.576V204.725C298.827 204.919 297.997 205.012 297.115 205.012C296.253 205.012 295.433 204.919 294.695 204.745V208.826ZM309.912 206.591C309.932 203.904 310.732 203.084 312.085 202.243C312.947 201.71 313.603 200.972 313.603 199.885C313.603 198.593 312.619 197.793 311.388 197.793C310.281 197.793 309.214 198.47 309.112 199.987H306.897C306.979 197.383 308.948 195.947 311.388 195.947C314.054 195.947 315.838 197.547 315.838 199.885C315.838 201.525 315.059 202.633 313.747 203.433C312.516 204.171 312.044 204.93 312.003 206.591V206.714H309.912V206.591ZM311.04 211.144C310.24 211.144 309.563 210.487 309.583 209.688C309.563 208.888 310.24 208.231 311.04 208.231C311.819 208.231 312.496 208.888 312.496 209.688C312.496 210.487 311.819 211.144 311.04 211.144Z" fill="#111827"/>
<path d="M134.977 243.225V244.264H125.01V243.225H129.371V241.857H130.656V243.225H134.977ZM124.436 250.799V249.746H135.646V250.799H132.816V254.176H131.504V250.799H128.551V254.176H127.252V250.799H124.436ZM125.939 246.943C125.933 245.624 127.464 244.893 130.014 244.893C132.557 244.893 134.088 245.624 134.088 246.943C134.088 248.256 132.557 248.994 130.014 248.994C127.464 248.994 125.933 248.256 125.939 246.943ZM127.279 246.943C127.279 247.627 128.257 248.003 130.014 247.996C131.764 248.003 132.741 247.627 132.748 246.943C132.741 246.253 131.764 245.884 130.014 245.877C128.257 245.884 127.279 246.253 127.279 246.943ZM147.049 241.912V254.162H145.805V247.832H144.219V253.533H143.029V242.158H144.219V246.766H145.805V241.912H147.049ZM136.945 251.223V243.389H141.539V244.441H138.244V250.115C139.748 250.108 140.883 250.04 142.195 249.787L142.291 250.854C140.821 251.161 139.55 251.209 137.766 251.223H136.945ZM158.752 242.432V243.498H156.975V246.068H158.697V247.094H154.855V248.475H159.805V249.514H148.635V248.475H153.57V247.094H149.715V246.068H151.451V243.498H149.66V242.432H158.752ZM150.043 253.902V250.498H151.355V252.85H158.547V253.902H150.043ZM152.736 246.068H155.676V243.498H152.736V246.068ZM171.275 241.912V254.162H170.031V241.912H171.275ZM160.871 247.203C160.871 244.551 161.91 242.89 163.51 242.896C165 242.89 166.005 244.305 166.155 246.602H167.543V242.145H168.787V253.561H167.543V247.654H166.162C166.046 250.047 165.027 251.53 163.51 251.523C161.91 251.53 160.871 249.862 160.871 247.203ZM162.074 247.203C162.074 249.151 162.628 250.3 163.51 250.293C164.412 250.3 164.973 249.151 164.973 247.203C164.973 245.248 164.412 244.106 163.51 244.113C162.628 244.106 162.074 245.248 162.074 247.203ZM179 242.377V243.826H184.674V242.377H185.973V247.326H182.473V248.529H187.422V249.596H176.252V248.529H181.188V247.326H177.715V242.377H179ZM177.66 253.902V250.471H178.973V252.85H186.164V253.902H177.66ZM179 246.273H184.674V244.838H179V246.273ZM198.51 241.926V250.826H197.211V241.926H198.51ZM188.598 245.781C188.604 244.011 190.013 242.753 191.865 242.746C193.711 242.753 195.119 244.011 195.119 245.781C195.119 247.579 193.711 248.83 191.865 248.83C190.013 248.83 188.604 247.579 188.598 245.781ZM189.869 245.781C189.862 246.937 190.724 247.695 191.865 247.695C192.986 247.695 193.848 246.937 193.848 245.781C193.848 244.653 192.986 243.881 191.865 243.881C190.724 243.881 189.862 244.653 189.869 245.781ZM190.498 253.902V249.924H191.811V252.85H198.879V253.902H190.498ZM204.443 242.787C206.378 242.78 207.772 243.977 207.779 245.699C207.772 247.422 206.378 248.618 204.443 248.625C202.516 248.618 201.101 247.422 201.107 245.699C201.101 243.977 202.516 242.78 204.443 242.787ZM200.52 250.471C202.748 250.471 205.838 250.45 208.518 250.061L208.613 251.004C205.845 251.537 202.871 251.551 200.684 251.551L200.52 250.471ZM202.393 245.699C202.379 246.786 203.254 247.49 204.443 247.49C205.633 247.49 206.508 246.786 206.508 245.699C206.508 244.626 205.633 243.908 204.443 243.908C203.254 243.908 202.379 244.626 202.393 245.699ZM209.283 254.189V241.912H210.582V254.189H209.283ZM219.715 244.264C219.715 245.604 220.569 246.957 222.162 247.559L221.479 248.557C220.337 248.119 219.537 247.285 219.1 246.28C218.648 247.415 217.814 248.399 216.625 248.912L215.914 247.9C217.568 247.183 218.457 245.624 218.457 244.264V242.678H219.715V244.264ZM218.17 251.92C218.156 250.525 219.749 249.698 222.312 249.691C224.869 249.698 226.476 250.525 226.482 251.92C226.476 253.314 224.869 254.142 222.312 254.135C219.749 254.142 218.156 253.314 218.17 251.92ZM219.455 251.92C219.441 252.699 220.528 253.15 222.312 253.137C224.09 253.15 225.177 252.699 225.184 251.92C225.177 251.134 224.09 250.683 222.312 250.689C220.528 250.683 219.441 251.134 219.455 251.92ZM222.545 249.076V242.145H223.748V245.111H225.184V241.926H226.414V249.459H225.184V246.178H223.748V249.076H222.545ZM231.732 245.672C231.732 247.6 232.628 249.562 234.316 250.471L233.592 251.428C232.402 250.799 231.582 249.63 231.138 248.242C230.7 249.726 229.88 251.004 228.697 251.715L227.932 250.73C229.627 249.746 230.502 247.647 230.516 245.672V245.18H228.301V244.113H230.516V242.35H231.732V244.113H233.906V245.18H231.732V245.672ZM233.1 247.764V246.684H234.863V242.172H236.094V253.547H234.863V247.764H233.1ZM237.338 254.162V241.912H238.582V254.162H237.338ZM250.381 241.912V249.199H249.082V246.096H246.799V245.029H249.082V241.912H250.381ZM240.168 248.092C242.068 247.429 243.237 245.774 243.23 244.086V243.812H240.578V242.76H247.182V243.812H244.557V244.072C244.55 245.624 245.657 247.135 247.51 247.764L246.84 248.789C245.466 248.317 244.454 247.333 243.921 246.123C243.388 247.49 242.314 248.591 240.852 249.131L240.168 248.092ZM242.137 251.852C242.13 250.396 243.702 249.548 246.279 249.541C248.843 249.548 250.415 250.396 250.422 251.852C250.415 253.308 248.843 254.155 246.279 254.162C243.702 254.155 242.13 253.308 242.137 251.852ZM243.422 251.852C243.415 252.679 244.481 253.15 246.279 253.137C248.063 253.15 249.13 252.679 249.137 251.852C249.13 251.018 248.063 250.546 246.279 250.553C244.481 250.546 243.415 251.018 243.422 251.852ZM263.479 251.564V252.645H252.268V251.564H257.203V249.049H253.553V242.746H254.852V244.852H260.867V242.746H262.152V249.049H258.488V251.564H263.479ZM254.852 247.996H260.867V245.904H254.852V247.996ZM273.91 241.912V246.793H275.811V247.873H273.91V254.148H272.611V241.912H273.91ZM264.381 250.881C267.45 249.35 269.118 247.135 269.385 244.277H264.996V243.197H270.711C270.697 246.738 269.139 249.903 265.105 251.893L264.381 250.881ZM118.256 267.668V268.734H107.072V267.668H118.256ZM108.398 271.92C108.398 270.498 109.991 269.691 112.65 269.691C115.289 269.691 116.868 270.498 116.875 271.92C116.868 273.342 115.289 274.142 112.65 274.135C109.991 274.142 108.398 273.342 108.398 271.92ZM108.467 266.602V262.35H116.875V263.416H109.752V265.549H116.957V266.602H108.467ZM109.711 271.92C109.704 272.706 110.777 273.13 112.65 273.137C114.496 273.13 115.576 272.706 115.576 271.92C115.576 271.141 114.496 270.703 112.65 270.689C110.777 270.703 109.704 271.141 109.711 271.92ZM130.369 268.598V269.65H119.158V268.598H124.121V267.436H120.594V264.318H127.662V263.225H120.566V262.199H128.961V265.275H121.879V266.424H129.207V267.436H125.406V268.598H130.369ZM120.416 271.551V270.512H129.029V274.066H127.717V271.551H120.416ZM138.572 267.094V268.16H135.988V270.43C137.123 270.382 138.265 270.307 139.338 270.184L139.434 271.141C136.733 271.544 133.835 271.585 131.504 271.592L131.34 270.512C132.372 270.512 133.514 270.505 134.689 270.478V268.16H132.229V263.047H138.518V264.1H133.514V267.094H138.572ZM140.104 274.189V261.912H141.402V274.189H140.104ZM146.693 262.828C148.361 262.835 149.571 264.243 149.77 266.506H152.299V261.912H153.584V274.189H152.299V267.559H149.783C149.64 269.951 148.402 271.435 146.693 271.428C144.868 271.435 143.576 269.767 143.59 267.121C143.576 264.503 144.868 262.835 146.693 262.828ZM144.82 267.121C144.827 269.069 145.586 270.266 146.693 270.266C147.801 270.266 148.56 269.069 148.566 267.121C148.56 265.2 147.801 263.997 146.693 263.99C145.586 263.997 144.827 265.2 144.82 267.121ZM163.141 270.006C163.141 271.059 163.66 272.173 164.774 272.836C165.896 272.118 166.449 270.949 166.449 270.006V269.418H167.721V270.006C167.714 271.277 168.555 272.508 170.154 273.027L169.512 273.984C168.302 273.567 167.475 272.747 167.051 271.749C166.661 272.733 165.93 273.629 164.809 274.094C163.633 273.649 162.888 272.781 162.512 271.783C162.067 272.747 161.261 273.561 160.105 273.984L159.449 273.027C161.021 272.467 161.876 271.188 161.883 270.006V269.418H163.141V270.006ZM159.135 265.494C159.142 263.778 160.522 262.603 162.402 262.596C164.275 262.603 165.656 263.778 165.656 265.494C165.656 267.189 164.275 268.365 162.402 268.365C160.522 268.365 159.142 267.189 159.135 265.494ZM160.406 265.494C160.399 266.561 161.24 267.285 162.402 267.285C163.551 267.285 164.385 266.561 164.385 265.494C164.385 264.421 163.551 263.696 162.402 263.703C161.24 263.696 160.399 264.421 160.406 265.494ZM167.748 268.898V261.926H169.047V268.898H167.748ZM180.9 265.494V266.533H172.465V262.35H173.75V265.494H180.9ZM170.975 269.117V268.078H182.186V269.117H170.975ZM172.369 273.875V270.279H173.668V272.809H180.982V273.875H172.369ZM187.6 265.521C187.593 267.572 188.939 269.691 190.826 270.498L190.115 271.51C188.673 270.874 187.524 269.521 186.957 267.887C186.39 269.637 185.241 271.127 183.812 271.824L183.061 270.799C184.906 269.931 186.273 267.634 186.287 265.521V264.223H183.484V263.143H190.389V264.223H187.6V265.521ZM191.934 274.162V261.912H193.232V274.162H191.934ZM208.559 262.445V263.047C208.559 263.826 208.559 265.07 208.203 266.711L206.932 266.561C207.226 265.221 207.273 264.223 207.294 263.484H204.334V262.445H208.559ZM198.619 268.707V267.654H203.787V265.289H205.072V267.654H209.762V268.707H198.619ZM199.562 263.484V262.445H203.336V262.896C203.322 263.628 203.322 264.947 202.734 266.725L201.49 266.547C201.921 265.187 202.023 264.188 202.051 263.484H199.562ZM199.836 270.963V269.91H208.381V274.094H207.055V270.963H199.836ZM223.762 261.926V265.562H225.512V266.629H223.762V270.17H222.463V261.926H223.762ZM214.041 268.803C214.991 268.803 216.092 268.803 217.24 268.775V267.948C215.846 267.791 214.957 267.135 214.971 266.15C214.957 265.029 216.126 264.332 217.883 264.346C219.64 264.332 220.788 265.029 220.795 266.15C220.788 267.128 219.92 267.784 218.539 267.948V268.728C219.633 268.673 220.74 268.584 221.766 268.434L221.875 269.363C219.243 269.821 216.338 269.842 214.178 269.842L214.041 268.803ZM214.355 263.936V262.965H217.24V261.816H218.539V262.965H221.424V263.936H214.355ZM215.572 271.756V270.744H223.762V274.162H222.463V271.756H215.572ZM216.201 266.15C216.201 266.725 216.837 267.101 217.883 267.094C218.915 267.101 219.558 266.725 219.551 266.15C219.558 265.562 218.915 265.221 217.883 265.234C216.837 265.221 216.201 265.562 216.201 266.15ZM236.381 261.926V270.826H235.082V261.926H236.381ZM226.469 265.781C226.476 264.011 227.884 262.753 229.736 262.746C231.582 262.753 232.99 264.011 232.99 265.781C232.99 267.579 231.582 268.83 229.736 268.83C227.884 268.83 226.476 267.579 226.469 265.781ZM227.74 265.781C227.733 266.937 228.595 267.695 229.736 267.695C230.857 267.695 231.719 266.937 231.719 265.781C231.719 264.653 230.857 263.881 229.736 263.881C228.595 263.881 227.733 264.653 227.74 265.781ZM228.369 273.902V269.924H229.682V272.85H236.75V273.902H228.369ZM244.379 263.936V264.988H238.295V263.936H240.701V262.268H241.986V263.936H244.379ZM238.691 268.543C238.685 266.896 239.806 265.727 241.344 265.727C242.896 265.727 244.003 266.896 244.01 268.543C244.003 270.218 242.896 271.394 241.344 271.387C239.806 271.394 238.685 270.218 238.691 268.543ZM239.84 268.543C239.833 269.582 240.462 270.279 241.344 270.279C242.226 270.279 242.861 269.582 242.861 268.543C242.861 267.524 242.226 266.813 241.344 266.807C240.462 266.813 239.833 267.524 239.84 268.543ZM244.939 273.588V262.186H246.17V267.012H247.578V261.912H248.809V274.162H247.578V268.078H246.17V273.588H244.939ZM265.01 268.816V269.869H260.033V274.148H258.762V269.869H253.84V268.816H265.01ZM254.469 266.861C256.752 266.547 258.652 265.187 258.693 263.676H254.879V262.637H263.957V263.676H260.17C260.19 265.187 262.077 266.547 264.395 266.861L263.916 267.887C261.906 267.572 260.17 266.581 259.425 265.187C258.673 266.581 256.943 267.572 254.961 267.887L254.469 266.861ZM269.672 265.262C269.672 267.217 270.492 269.302 272.133 270.307L271.408 271.305C270.26 270.614 269.487 269.391 269.063 267.976C268.619 269.527 267.771 270.854 266.582 271.578L265.775 270.607C267.505 269.568 268.421 267.401 268.414 265.316V263.033H269.672V265.262ZM270.807 267.299V266.219H272.707V262.145H273.938V273.561H272.707V267.299H270.807ZM275.236 274.162V261.912H276.48V274.162H275.236ZM289.25 271.551V272.631H278.039V271.551H280.719V268.352C279.714 267.798 279.099 266.923 279.105 265.822C279.099 263.895 280.992 262.63 283.617 262.623C286.249 262.63 288.143 263.895 288.143 265.822C288.143 266.902 287.555 267.771 286.57 268.324V271.551H289.25ZM280.363 265.822C280.363 267.135 281.696 267.989 283.617 267.996C285.524 267.989 286.878 267.135 286.885 265.822C286.878 264.503 285.524 263.662 283.617 263.662C281.696 263.662 280.363 264.503 280.363 265.822ZM282.004 271.551H285.258V268.83C284.759 268.946 284.205 269.008 283.617 269.008C283.043 269.008 282.496 268.946 282.004 268.83V271.551ZM291.533 273.096C291 273.089 290.556 272.658 290.562 272.125C290.556 271.592 291 271.154 291.533 271.154C292.06 271.154 292.497 271.592 292.504 272.125C292.497 272.658 292.06 273.089 291.533 273.096Z" fill="#9CA3AF"/>
<rect x="35" y="314" width="110" height="56" rx="8" fill="#E5E7EB"/>
<path d="M79.8746 334.244V340.344H82.4059V341.715H79.8746V350.029H78.2047V334.244H79.8746ZM75.6383 335.756V337.109H69.943V344.721C72.5885 344.712 74.5748 344.598 76.8161 344.193L77.027 345.6C74.5661 346.039 72.4743 346.127 69.5387 346.109H68.2731V335.756H75.6383ZM89.9736 334.578C93.4365 334.578 95.5986 335.703 95.5986 337.602C95.5986 339.465 93.4365 340.572 89.9736 340.572C86.5283 340.572 84.3486 339.465 84.3486 337.602C84.3486 335.703 86.5283 334.578 89.9736 334.578ZM89.9736 335.896C87.5479 335.896 86.0537 336.512 86.0713 337.602C86.0537 338.656 87.5479 339.254 89.9736 339.271C92.3818 339.254 93.876 338.656 93.876 337.602C93.876 336.512 92.3818 335.896 89.9736 335.896ZM95.4053 344.545V349.801H84.5244V344.545H95.4053ZM86.1768 345.881V348.447H93.7881V345.881H86.1768ZM97.1631 341.785V343.139H82.8018V341.785H97.1631ZM111.551 334.244V349.994H109.952V334.244H111.551ZM108.352 334.543V349.221H106.752V341.627H104.977C104.836 344.703 103.518 346.619 101.567 346.602C99.5101 346.619 98.1742 344.457 98.1742 341.047C98.1742 337.637 99.5101 335.492 101.567 335.51C103.483 335.492 104.784 337.312 104.977 340.273H106.752V334.543H108.352ZM101.567 337.074C100.424 337.074 99.7211 338.533 99.7211 341.047C99.7211 343.561 100.424 345.02 101.567 345.02C102.727 345.02 103.448 343.561 103.448 341.047C103.448 338.533 102.727 337.074 101.567 337.074Z" fill="#111827"/>
<rect x="161" y="314" width="204" height="56" rx="8" fill="#0077FA"/>
<path d="M260.596 334.262V338.938H262.846V340.309H260.596V344.861H258.926V334.262H260.596ZM248.098 343.104C249.32 343.104 250.735 343.104 252.211 343.051V341.996C250.418 341.812 249.276 340.968 249.293 339.693C249.276 338.252 250.77 337.355 253.037 337.373C255.287 337.355 256.782 338.252 256.782 339.693C256.782 340.959 255.657 341.803 253.881 341.996V342.998C255.287 342.928 256.711 342.813 258.03 342.629L258.17 343.824C254.778 344.422 251.051 344.439 248.274 344.439L248.098 343.104ZM260.596 345.6V349.994H258.926V346.9H250.067V345.6H260.596ZM257.59 335.598V336.846H248.502V335.598H252.211V334.121H253.881V335.598H257.59ZM253.037 338.516C251.684 338.498 250.875 338.938 250.875 339.693C250.875 340.432 251.684 340.906 253.037 340.906C254.373 340.906 255.182 340.432 255.182 339.693C255.182 338.938 254.373 338.498 253.037 338.516ZM276.461 334.262V345.705H274.791V334.262H276.461ZM276.935 348.307V349.66H266.16V344.545H267.847V348.307H276.935ZM267.918 335.316C270.291 335.316 272.101 336.934 272.101 339.219C272.101 341.539 270.291 343.139 267.918 343.139C265.545 343.139 263.716 341.539 263.716 339.219C263.716 336.934 265.545 335.316 267.918 335.316ZM267.918 336.775C266.441 336.775 265.351 337.777 265.351 339.219C265.351 340.695 266.441 341.68 267.918 341.68C269.359 341.68 270.466 340.695 270.466 339.219C270.466 337.777 269.359 336.775 267.918 336.775Z" fill="white"/>
</svg>
