<svg width="400" height="727" viewBox="0 0 400 727" fill="none" xmlns="http://www.w3.org/2000/svg">
<rect width="400" height="727" fill="#EBF5FF"/>
<rect width="400" height="58" fill="#EBF5FF"/>
<path d="M374.001 30.4008L369.101 35.3008C368.917 35.4841 368.684 35.5758 368.401 35.5758C368.117 35.5758 367.884 35.4841 367.701 35.3008C367.517 35.1174 367.426 34.8841 367.426 34.6008C367.426 34.3174 367.517 34.0841 367.701 33.9008L372.601 29.0008L367.701 24.1008C367.517 23.9174 367.426 23.6841 367.426 23.4008C367.426 23.1174 367.517 22.8841 367.701 22.7008C367.884 22.5174 368.117 22.4258 368.401 22.4258C368.684 22.4258 368.917 22.5174 369.101 22.7008L374.001 27.6008L378.901 22.7008C379.084 22.5174 379.317 22.4258 379.601 22.4258C379.884 22.4258 380.117 22.5174 380.301 22.7008C380.484 22.8841 380.576 23.1174 380.576 23.4008C380.576 23.6841 380.484 23.9174 380.301 24.1008L375.401 29.0008L380.301 33.9008C380.484 34.0841 380.576 34.3174 380.576 34.6008C380.576 34.8841 380.484 35.1174 380.301 35.3008C380.117 35.4841 379.884 35.5758 379.601 35.5758C379.317 35.5758 379.084 35.4841 378.901 35.3008L374.001 30.4008Z" fill="black"/>
<path d="M63.9372 128.331C63.9372 131.551 66.07 134.853 68.654 136.124L67.6696 137.416C65.6599 136.36 63.9782 134.207 63.1784 131.674C62.3581 134.371 60.6355 136.667 58.5847 137.765L57.5593 136.473C60.2253 135.16 62.3376 131.653 62.3581 128.331V125.009H63.9372V128.331ZM71.9353 123.43V130.833H74.9909V132.228H71.9353V141.661H70.3357V123.43H71.9353ZM92.1666 132.453V133.786H75.5553V132.453H79.6774V129.89C78.2213 129.326 77.401 128.393 77.401 127.162C77.401 125.009 79.862 123.778 83.861 123.778C87.819 123.778 90.3004 125.009 90.3004 127.162C90.3004 128.382 89.4904 129.315 88.0446 129.869V132.453H92.1666ZM83.861 135.181C87.778 135.181 90.1159 136.309 90.1364 138.4C90.1159 140.472 87.778 141.62 83.861 141.62C79.903 141.62 77.5651 140.472 77.5651 138.4C77.5651 136.309 79.903 135.181 83.861 135.181ZM83.861 136.411C80.9284 136.432 79.1852 137.149 79.2057 138.4C79.1852 139.631 80.9284 140.369 83.861 140.369C86.7526 140.369 88.5163 139.631 88.5163 138.4C88.5163 137.149 86.7526 136.432 83.861 136.411ZM83.861 125.05C80.8873 125.05 79.0416 125.85 79.0621 127.162C79.0416 128.495 80.8873 129.274 83.861 129.274C86.8141 129.274 88.6598 128.495 88.6598 127.162C88.6598 125.85 86.8141 125.05 83.861 125.05ZM81.277 132.453H86.445V130.32C85.6759 130.454 84.8146 130.525 83.861 130.525C82.9074 130.525 82.046 130.454 81.277 130.32V132.453ZM107.394 123.43V130.956H110.45V132.289H107.394V141.661H105.794V123.43H107.394ZM104.031 126.362V127.695H93.1822V126.362H97.8785V123.655H99.4781V126.362H104.031ZM98.6988 129.213C101.283 129.213 103.149 130.936 103.169 133.396C103.149 135.857 101.283 137.58 98.6988 137.58C96.0943 137.58 94.2076 135.857 94.2281 133.396C94.2076 130.936 96.0943 129.213 98.6988 129.213ZM98.6988 130.566C96.9966 130.566 95.7457 131.756 95.7662 133.396C95.7457 135.058 96.9966 136.227 98.6988 136.206C100.38 136.227 101.611 135.058 101.631 133.396C101.611 131.756 100.38 130.566 98.6988 130.566ZM126.046 123.43V132.884H124.467V123.43H126.046ZM126.067 133.807V138.175H115.833V140.144H126.723V141.456H114.254V136.924H124.467V135.099H114.213V133.807H126.067ZM117.474 125.357C117.454 127.941 119.422 130.218 122.129 131.1L121.33 132.351C119.197 131.623 117.495 130.095 116.674 128.126C115.854 130.249 114.142 131.92 111.978 132.699L111.137 131.428C113.885 130.464 115.833 128.044 115.833 125.357V123.963H117.474V125.357ZM148.626 123.43V141.702H147.006V123.43H148.626ZM136.26 124.988V129.808H141.695V124.988H143.274V137.293H134.66V124.988H136.26ZM136.26 135.939H141.695V131.1H136.26V135.939ZM160.839 124.455V131.879H152.287V124.455H160.839ZM153.866 125.768V130.607H159.26V125.768H153.866ZM166.356 123.43V132.843H164.777V123.43H166.356ZM166.356 133.745V138.093H156.143V140.144H167.012V141.456H154.543V136.903H164.777V135.037H154.523V133.745H166.356ZM184.167 123.45V136.944H182.547V129.931H178.24V133.827H169.976V124.66H171.575V127.9H176.661V124.66H178.24V128.577H182.547V123.45H184.167ZM184.577 139.918V141.271H172.375V135.611H173.995V139.918H184.577ZM171.575 132.494H176.661V129.172H171.575V132.494ZM202.532 126.137V127.47H187.603V126.137H194.288V123.737H195.867V126.137H202.532ZM203.476 138.195V139.528H186.782V138.195H194.288V135.632C191.048 135.458 189.079 134.196 189.1 132.146C189.079 129.972 191.376 128.7 195.088 128.721C198.759 128.7 201.076 129.972 201.076 132.146C201.076 134.196 199.087 135.458 195.867 135.632V138.195H203.476ZM195.088 129.992C192.36 129.992 190.699 130.792 190.72 132.146C190.699 133.54 192.36 134.319 195.088 134.34C197.774 134.319 199.436 133.54 199.436 132.146C199.436 130.792 197.774 129.992 195.088 129.992ZM221.185 131.899V133.171H204.491V131.899H221.185ZM219.093 134.627V138.503H208.142V140.246H219.688V141.415H206.521V137.396H217.493V135.837H206.501V134.627H219.093ZM219.031 123.983V127.757H208.265V129.356H219.359V130.525H206.665V126.649H217.411V125.152H206.604V123.983H219.031ZM243.723 132.104V133.458H227.092V132.104H243.723ZM241.775 129.049V130.361H229.204V124.168H241.652V125.521H230.783V129.049H241.775ZM235.397 135.058C239.314 135.058 241.652 136.247 241.673 138.339C241.652 140.451 239.314 141.62 235.397 141.62C231.46 141.62 229.101 140.451 229.101 138.339C229.101 136.247 231.46 135.058 235.397 135.058ZM235.397 136.309C232.465 136.329 230.722 137.067 230.742 138.339C230.722 139.631 232.465 140.349 235.397 140.349C238.289 140.349 240.053 139.631 240.053 138.339C240.053 137.067 238.289 136.329 235.397 136.309ZM261.494 133.479V134.812H244.801V133.479H252.347V131.551H246.974V127.101H257.72V125.214H246.913V123.901H259.341V128.311H248.574V130.259H259.73V131.551H253.927V133.479H261.494ZM259.443 136.206V141.497H257.823V137.519H246.667V136.206H259.443ZM271.656 126.588V127.9H262.509V126.588H266.303V123.983H267.903V126.588H271.656ZM267.083 129.131C269.38 129.131 271.02 130.854 271.041 133.273C271.02 135.714 269.38 137.457 267.083 137.457C264.806 137.457 263.166 135.714 263.166 133.273C263.166 130.854 264.806 129.131 267.083 129.131ZM267.083 130.484C265.647 130.505 264.601 131.674 264.601 133.273C264.601 134.894 265.647 136.062 267.083 136.042C268.539 136.062 269.605 134.894 269.605 133.273C269.605 131.674 268.539 130.505 267.083 130.484ZM278.075 123.43V141.661H276.537V132.453H274.117V140.759H272.599V123.881H274.117V131.12H276.537V123.43H278.075ZM294.338 126.014C294.318 128.454 297.579 130.525 300.757 130.997L300.163 132.269C297.312 131.787 294.543 130.269 293.436 128.064C292.329 130.269 289.55 131.787 286.75 132.269L286.115 130.997C289.273 130.525 292.534 128.454 292.534 126.014V125.891H286.689V124.578H300.163V125.891H294.338V126.014ZM301.742 133.827V135.16H294.195V141.661H292.616V135.16H285.13V133.827H301.742ZM308.274 128.618C308.274 131.51 309.689 134.647 312.109 136.083L311.186 137.334C309.433 136.268 308.171 134.319 307.536 132.104C306.859 134.524 305.505 136.606 303.68 137.724L302.655 136.514C305.177 135.037 306.715 131.797 306.715 128.68V125.152H308.274V128.618ZM318.487 123.43V141.661H316.928V123.43H318.487ZM314.713 123.819V140.738H313.196V131.346H310.099V129.972H313.196V123.819H314.713ZM337.283 137.97V139.323H320.589V137.97H324.732V133.048C323.173 132.238 322.23 130.925 322.23 129.274C322.23 126.444 324.998 124.599 328.895 124.578C332.791 124.599 335.56 126.444 335.56 129.274C335.56 130.895 334.647 132.197 333.14 133.007V137.97H337.283ZM328.895 125.911C325.901 125.891 323.788 127.244 323.788 129.274C323.788 131.305 325.901 132.679 328.895 132.679C331.868 132.679 334.001 131.305 334.001 129.274C334.001 127.244 331.868 125.891 328.895 125.911ZM326.311 137.97H331.52V133.622C330.73 133.837 329.848 133.95 328.895 133.95C327.962 133.95 327.09 133.848 326.311 133.643V137.97ZM340.246 140.123C339.529 140.123 338.913 139.528 338.934 138.79C338.913 138.072 339.529 137.478 340.246 137.478C340.964 137.478 341.559 138.072 341.559 138.79C341.559 139.528 340.964 140.123 340.246 140.123Z" fill="#222222"/>
<circle cx="115" cy="237" r="10" fill="#CEDFE0"/>
<circle cx="149" cy="237" r="10" fill="#CEDFE0"/>
<circle cx="183" cy="237" r="10" fill="#CEDFE0"/>
<circle cx="217" cy="237" r="10" fill="#CEDFE0"/>
<circle cx="251" cy="237" r="10" fill="#CEDFE0"/>
<circle cx="285" cy="237" r="10" fill="#CEDFE0"/>
</svg>
