<svg width="400" height="725" viewBox="0 0 400 725" fill="none" xmlns="http://www.w3.org/2000/svg">
<rect width="400" height="725" fill="white"/>
<mask id="mask0_909_3260" style="mask-type:alpha" maskUnits="userSpaceOnUse" x="345" y="20" width="30" height="30">
<rect x="345" y="20" width="30" height="30" fill="#D9D9D9"/>
</mask>
<g mask="url(#mask0_909_3260)">
<path d="M360.001 36.6582L353.684 42.9754C353.454 43.205 353.178 43.3198 352.855 43.3198C352.532 43.3198 352.256 43.205 352.026 42.9754C351.796 42.7458 351.682 42.4696 351.682 42.1466C351.682 41.8237 351.796 41.5475 352.026 41.3179L358.343 35.0007L352.026 28.6835C351.796 28.4539 351.682 28.1777 351.682 27.8548C351.682 27.5319 351.796 27.2556 352.026 27.026C352.256 26.7964 352.532 26.6816 352.855 26.6816C353.178 26.6816 353.454 26.7964 353.684 27.026L360.001 33.3432L366.318 27.026C366.547 26.7964 366.824 26.6816 367.147 26.6816C367.47 26.6816 367.746 26.7964 367.975 27.026C368.205 27.2556 368.32 27.5319 368.32 27.8548C368.32 28.1777 368.205 28.4539 367.975 28.6835L361.658 35.0007L367.975 41.3179C368.205 41.5475 368.32 41.8237 368.32 42.1466C368.32 42.4696 368.205 42.7458 367.975 42.9754C367.746 43.205 367.47 43.3198 367.147 43.3198C366.824 43.3198 366.547 43.205 366.318 42.9754L360.001 36.6582Z" fill="#111827"/>
</g>
<path d="M43.1875 84.0156V99.2734H40.9609V84.0156H43.1875ZM43.8203 102.742V104.547H29.4531V97.7266H31.7031V102.742H43.8203ZM31.7969 85.4219C34.9609 85.4219 37.375 87.5781 37.375 90.625C37.375 93.7188 34.9609 95.8516 31.7969 95.8516C28.6328 95.8516 26.1953 93.7188 26.1953 90.625C26.1953 87.5781 28.6328 85.4219 31.7969 85.4219ZM31.7969 87.3672C29.8281 87.3672 28.375 88.7031 28.375 90.625C28.375 92.5938 29.8281 93.9062 31.7969 93.9062C33.7188 93.9062 35.1953 92.5938 35.1953 90.625C35.1953 88.7031 33.7188 87.3672 31.7969 87.3672ZM65.6641 93.8828V95.6875H46.5156V93.8828H65.6641ZM56.0781 97.3047C60.6016 97.3047 63.3203 98.7109 63.3203 101.148C63.3203 103.586 60.6016 104.969 56.0781 104.945C51.5312 104.969 48.7891 103.586 48.7891 101.148C48.7891 98.7109 51.5312 97.3047 56.0781 97.3047ZM56.0781 99.0391C52.8672 99.0625 51.0391 99.7891 51.0391 101.148C51.0391 102.484 52.8672 103.188 56.0781 103.188C59.2422 103.188 61.0938 102.484 61.0938 101.148C61.0938 99.7891 59.2422 99.0625 56.0781 99.0391ZM63.9531 85.0234V86.8516H57.5781C57.8242 88.8906 60.8008 90.625 64.6797 91.0234L63.8828 92.7812C60.25 92.3594 57.2383 90.8242 56.1016 88.6094C54.9297 90.8242 51.9297 92.3594 48.2969 92.7812L47.5234 91.0234C51.332 90.625 54.332 88.9023 54.6016 86.8516H48.2734V85.0234H63.9531ZM84.7656 84.0156V99.5312H82.5391V91.6094H77.9453V96.0391H68.2656V85.3984H70.4922V88.9609H75.7422V85.3984H77.9453V89.8047H82.5391V84.0156H84.7656ZM85.2344 102.742V104.547H71.0547V98.0078H73.3047V102.742H85.2344ZM70.4922 94.2344H75.7422V90.6719H70.4922V94.2344ZM106.188 86.9453V88.75H88.9141V86.9453H96.4609V84.2969H98.6641V86.9453H106.188ZM107.219 100.82V102.625H88V100.82H96.4609V98.0312C92.7812 97.8086 90.5547 96.3555 90.5547 94.0234C90.5547 91.4922 93.2266 90.0156 97.5625 90.0156C101.852 90.0156 104.547 91.4922 104.547 94.0234C104.547 96.3555 102.309 97.8086 98.6641 98.0312V100.82H107.219ZM97.5625 91.7734C94.5625 91.7734 92.8047 92.5703 92.8281 94.0234C92.8047 95.4766 94.5625 96.2734 97.5625 96.2969C100.516 96.2734 102.273 95.4766 102.273 94.0234C102.273 92.5703 100.516 91.7734 97.5625 91.7734ZM127.938 93.625V95.3359H108.719V93.625H127.938ZM125.57 96.8125V101.43H113.242V103.164H126.227V104.734H111.016V99.9531H123.367V98.4062H110.992V96.8125H125.57ZM125.523 84.5312V89.0781H113.383V90.6719H125.875V92.2422H111.18V87.6016H123.297V86.1016H111.133V84.5312H125.523ZM152.758 83.9922V95.2656H150.531V83.9922H152.758ZM141.203 96.2734V98.6406H150.555V96.2734H152.758V104.734H139.023V96.2734H141.203ZM141.203 102.906H150.555V100.398H141.203V102.906ZM141.367 84.9531C144.578 84.9531 146.945 86.9453 146.945 89.8281C146.945 92.7109 144.578 94.7031 141.367 94.6797C138.156 94.7031 135.766 92.7109 135.766 89.8281C135.766 86.9453 138.156 84.9531 141.367 84.9531ZM141.367 86.8281C139.375 86.8047 137.945 88.0469 137.945 89.8281C137.945 91.6328 139.375 92.8516 141.367 92.8516C143.336 92.8516 144.766 91.6328 144.766 89.8281C144.766 88.0469 143.336 86.8047 141.367 86.8281ZM166.094 85.2578V91.375H159.156V94.2812C162.812 94.293 164.805 94.2109 167.172 93.7656L167.383 95.5703C164.828 96.0156 162.672 96.0859 158.477 96.0859H156.953V89.6875H163.867V87.0391H156.93V85.2578H166.094ZM173.594 84.0156V96.9297H171.367V93.2266H167.43V91.4453H171.367V88.8438H167.43V87.0625H171.367V84.0156H173.594ZM173.594 97.9844V105.016H171.367V99.7891H159.344V97.9844H173.594ZM187.211 87.4609V89.2656H176.781V87.4609H180.906V84.6016H183.109V87.4609H187.211ZM182.008 90.5312C184.68 90.5312 186.555 92.5234 186.578 95.3594C186.555 98.2188 184.68 100.234 182.008 100.234C179.383 100.234 177.438 98.2188 177.461 95.3594C177.438 92.5234 179.383 90.5312 182.008 90.5312ZM182.008 92.3828C180.484 92.3828 179.43 93.625 179.43 95.3594C179.43 97.1406 180.484 98.3359 182.008 98.3359C183.508 98.3359 184.609 97.1406 184.609 95.3594C184.609 93.625 183.508 92.3828 182.008 92.3828ZM194.805 83.9922V104.992H192.695V94.5625H190.281V104.008H188.172V84.4609H190.281V92.7344H192.695V83.9922H194.805ZM216.719 95.8281V97.6328H208.188V104.969H206.008V97.6328H197.57V95.8281H216.719ZM214.914 85.2344V87.0156H208.422C208.457 89.6172 211.691 91.9375 215.664 92.4766L214.844 94.2344C211.398 93.6953 208.422 91.9961 207.156 89.5938C205.855 91.9961 202.891 93.6953 199.492 94.2344L198.648 92.4766C202.574 91.9375 205.809 89.6172 205.891 87.0156H199.352V85.2344H214.914ZM224.711 89.7344C224.711 93.0859 226.117 96.6719 228.93 98.3828L227.688 100.094C225.719 98.9102 224.383 96.8125 223.68 94.375C222.895 97.0469 221.453 99.3203 219.414 100.562L218.031 98.8984C221.008 97.1172 222.555 93.4141 222.555 89.8281V85.9141H224.711V89.7344ZM236.383 83.9922V104.992H234.25V83.9922H236.383ZM232.023 84.3906V103.961H229.914V93.2266H226.656V91.375H229.914V84.3906H232.023ZM258.273 100.516V102.367H239.055V100.516H243.648V95.0312C241.926 94.082 240.883 92.5703 240.883 90.6953C240.883 87.3906 244.117 85.2109 248.617 85.2109C253.141 85.2109 256.375 87.3906 256.375 90.6953C256.375 92.5469 255.367 94.0352 253.68 94.9844V100.516H258.273ZM248.617 86.9922C245.312 86.9922 243.039 88.4219 243.039 90.6953C243.039 92.9453 245.312 94.4219 248.617 94.4219C251.898 94.4219 254.219 92.9453 254.219 90.6953C254.219 88.4219 251.898 86.9922 248.617 86.9922ZM245.852 100.516H251.43V95.8281C250.574 96.0508 249.625 96.1562 248.617 96.1562C247.633 96.1562 246.695 96.0508 245.852 95.8516V100.516ZM262.188 103.164C261.273 103.164 260.5 102.414 260.523 101.5C260.5 100.586 261.273 99.8359 262.188 99.8359C263.078 99.8359 263.852 100.586 263.852 101.5C263.852 102.414 263.078 103.164 262.188 103.164Z" fill="#111827"/>
<path d="M38.5352 161.814V173.24H37.1641V161.814H38.5352ZM39.0273 175.93V177.09H28.4453V172.08H29.8164V175.93H39.0273ZM30.0977 162.904C32.4355 162.904 34.1934 164.486 34.1934 166.736C34.1934 169.021 32.4355 170.586 30.0977 170.586C27.7598 170.586 26.002 169.021 26.002 166.736C26.002 164.486 27.7598 162.904 30.0977 162.904ZM30.0977 164.117C28.5156 164.117 27.3379 165.207 27.3555 166.736C27.3379 168.301 28.5156 169.373 30.0977 169.373C31.6445 169.373 32.8398 168.301 32.8398 166.736C32.8398 165.207 31.6445 164.117 30.0977 164.117ZM55.4277 169.232V170.375H41.1895V169.232H55.4277ZM48.3086 171.746C51.666 171.746 53.6699 172.783 53.6875 174.576C53.6699 176.387 51.666 177.389 48.3086 177.389C44.9336 177.389 42.9121 176.387 42.9121 174.576C42.9121 172.783 44.9336 171.746 48.3086 171.746ZM48.3086 172.836C45.7949 172.854 44.3008 173.469 44.3184 174.576C44.3008 175.666 45.7949 176.281 48.3086 176.281C50.7871 176.281 52.2988 175.666 52.2988 174.576C52.2988 173.469 50.7871 172.854 48.3086 172.836ZM54.1621 162.605V163.748H49.2051C49.2578 165.523 51.8594 166.877 54.6367 167.193L54.127 168.301C51.5693 167.976 49.1699 166.833 48.3086 165.084C47.4561 166.833 45.0654 167.976 42.4902 168.301L41.998 167.193C44.7227 166.877 47.3418 165.523 47.4121 163.748H42.4902V162.605H54.1621ZM69.7012 161.814V173.381H68.3125V167.369H64.6211V170.709H57.5371V162.852H58.9082V165.629H63.2676V162.852H64.6211V166.209H68.3125V161.814H69.7012ZM70.0527 175.93V177.09H59.5938V172.238H60.9824V175.93H70.0527ZM58.9082 169.566H63.2676V166.719H58.9082V169.566ZM85.8027 164.117V165.26H73.0059V164.117H78.7363V162.061H80.0898V164.117H85.8027ZM86.6113 174.453V175.596H72.3027V174.453H78.7363V172.256C75.959 172.106 74.2715 171.025 74.2891 169.268C74.2715 167.404 76.2402 166.314 79.4219 166.332C82.5684 166.314 84.5547 167.404 84.5547 169.268C84.5547 171.025 82.8496 172.106 80.0898 172.256V174.453H86.6113ZM79.4219 167.422C77.084 167.422 75.6602 168.107 75.6777 169.268C75.6602 170.463 77.084 171.131 79.4219 171.148C81.7246 171.131 83.1484 170.463 83.1484 169.268C83.1484 168.107 81.7246 167.422 79.4219 167.422Z" fill="#0077FA"/>
<mask id="path-5-inside-1_909_3260" fill="white">
<path d="M25 190H375V241H25V190Z"/>
</mask>
<path d="M375 240H25V242H375V240Z" fill="#0077FA" mask="url(#path-5-inside-1_909_3260)"/>
<path d="M40.791 206.45V219.78H39.1914V206.45H40.791ZM41.3652 222.918V224.271H29.0195V218.427H30.6191V222.918H41.3652ZM30.9473 207.722C33.6748 207.722 35.7256 209.567 35.7256 212.192C35.7256 214.858 33.6748 216.684 30.9473 216.684C28.2197 216.684 26.1689 214.858 26.1689 212.192C26.1689 209.567 28.2197 207.722 30.9473 207.722ZM30.9473 209.137C29.1016 209.137 27.7275 210.408 27.748 212.192C27.7275 214.018 29.1016 215.269 30.9473 215.269C32.752 215.269 34.1465 214.018 34.1465 212.192C34.1465 210.408 32.752 209.137 30.9473 209.137ZM60.499 215.104V216.438H43.8877V215.104H60.499ZM52.1934 218.037C56.1104 218.037 58.4482 219.247 58.4688 221.339C58.4482 223.451 56.1104 224.62 52.1934 224.62C48.2559 224.62 45.8975 223.451 45.8975 221.339C45.8975 219.247 48.2559 218.037 52.1934 218.037ZM52.1934 219.309C49.2607 219.329 47.5176 220.047 47.5381 221.339C47.5176 222.61 49.2607 223.328 52.1934 223.328C55.085 223.328 56.8486 222.61 56.8486 221.339C56.8486 220.047 55.085 219.329 52.1934 219.309ZM59.0225 207.373V208.706H53.2393C53.3008 210.777 56.3359 212.356 59.5762 212.726L58.9814 214.018C55.9976 213.638 53.1982 212.305 52.1934 210.265C51.1987 212.305 48.4097 213.638 45.4053 214.018L44.8311 212.726C48.0098 212.356 51.0654 210.777 51.1475 208.706H45.4053V207.373H59.0225ZM77.1514 206.45V219.944H75.5312V212.931H71.2246V216.827H62.96V207.66H64.5596V210.9H69.6455V207.66H71.2246V211.577H75.5312V206.45H77.1514ZM77.5615 222.918V224.271H65.3594V218.611H66.9795V222.918H77.5615ZM64.5596 215.494H69.6455V212.172H64.5596V215.494ZM95.9365 209.137V210.47H81.0068V209.137H87.6924V206.737H89.2715V209.137H95.9365ZM96.8799 221.195V222.528H80.1865V221.195H87.6924V218.632C84.4521 218.458 82.4834 217.196 82.5039 215.146C82.4834 212.972 84.7803 211.7 88.4922 211.721C92.1631 211.7 94.4805 212.972 94.4805 215.146C94.4805 217.196 92.4912 218.458 89.2715 218.632V221.195H96.8799ZM88.4922 212.992C85.7646 212.992 84.1035 213.792 84.124 215.146C84.1035 216.54 85.7646 217.319 88.4922 217.34C91.1787 217.319 92.8398 216.54 92.8398 215.146C92.8398 213.792 91.1787 212.992 88.4922 212.992ZM118.659 206.43V216.212H117.06V206.43H118.659ZM108.446 217.135V219.35H117.06V217.135H118.659V224.415H106.847V217.135H108.446ZM108.446 223.103H117.06V220.642H108.446V223.103ZM108.815 207.332C111.584 207.312 113.594 209.014 113.594 211.516C113.594 213.997 111.584 215.699 108.815 215.699C106.047 215.699 104.037 213.997 104.037 211.516C104.037 209.014 106.047 207.312 108.815 207.332ZM108.815 208.686C106.949 208.665 105.596 209.854 105.616 211.516C105.596 213.177 106.949 214.366 108.815 214.366C110.661 214.366 112.015 213.177 112.015 211.516C112.015 209.854 110.661 208.665 108.815 208.686ZM130.41 207.558V212.664H124.135V215.494C127.56 215.494 129.323 215.443 131.477 215.043L131.641 216.376C129.364 216.745 127.519 216.807 123.827 216.807H122.535V211.434H128.811V208.85H122.494V207.558H130.41ZM136.87 206.45V217.647H135.25V214.264H131.62V212.931H135.25V210.47H131.62V209.157H135.25V206.45H136.87ZM136.87 218.632V224.702H135.25V219.944H124.586V218.632H136.87Z" fill="#9CA3AF"/>
<path d="M339.468 221.146C337.109 221.146 335.762 219.169 335.762 215.697C335.762 212.255 337.139 210.248 339.468 210.248C341.797 210.248 343.174 212.255 343.174 215.697C343.174 219.169 341.812 221.146 339.468 221.146ZM339.468 219.975C340.991 219.975 341.885 218.437 341.885 215.697C341.885 212.958 340.991 211.391 339.468 211.391C337.944 211.391 337.036 212.958 337.036 215.697C337.036 218.437 337.93 219.975 339.468 219.975ZM348.403 221.146C346.045 221.146 344.697 219.169 344.697 215.697C344.697 212.255 346.074 210.248 348.403 210.248C350.732 210.248 352.109 212.255 352.109 215.697C352.109 219.169 350.747 221.146 348.403 221.146ZM348.403 219.975C349.927 219.975 350.82 218.437 350.82 215.697C350.82 212.958 349.927 211.391 348.403 211.391C346.88 211.391 345.972 212.958 345.972 215.697C345.972 218.437 346.865 219.975 348.403 219.975ZM354.775 219.594C354.263 219.594 353.823 219.169 353.838 218.642C353.823 218.129 354.263 217.704 354.775 217.704C355.288 217.704 355.713 218.129 355.713 218.642C355.713 219.169 355.288 219.594 354.775 219.594ZM354.775 213.705C354.263 213.705 353.823 213.28 353.838 212.753C353.823 212.24 354.263 211.815 354.775 211.815C355.288 211.815 355.713 212.24 355.713 212.753C355.713 213.28 355.288 213.705 354.775 213.705ZM361.133 221.146C359.214 221.146 357.764 219.96 357.69 218.334H358.965C359.067 219.286 359.99 219.989 361.133 219.989C362.51 219.989 363.506 218.979 363.506 217.646C363.506 216.269 362.466 215.258 361.045 215.243C360.151 215.229 359.463 215.507 359.067 216.195H357.793L358.54 210.395H364.282V211.566H359.639L359.243 214.672H359.346C359.814 214.306 360.532 214.057 361.279 214.057C363.301 214.057 364.795 215.551 364.795 217.616C364.795 219.667 363.242 221.146 361.133 221.146ZM370.156 210.248C371.987 210.263 374.009 211.361 374.009 215.272C374.009 219.037 372.471 221.146 369.98 221.146C368.12 221.146 366.802 220.004 366.538 218.319H367.842C368.076 219.271 368.794 219.975 369.98 219.975C371.709 219.975 372.764 218.48 372.778 215.902H372.632C372.017 216.781 371.05 217.309 369.922 217.309C368.018 217.309 366.45 215.858 366.45 213.808C366.45 211.83 367.9 210.233 370.156 210.248ZM370.156 211.405C368.765 211.405 367.725 212.489 367.739 213.793C367.739 215.111 368.721 216.151 370.112 216.151C371.489 216.151 372.573 215.009 372.573 213.764C372.573 212.548 371.562 211.405 370.156 211.405Z" fill="#9CA3AF"/>
<path d="M39.0449 275.537V276.662H26.3711V275.537H32.0664V273.709H33.4199V275.537H39.0449ZM25.6328 284.924V283.781H39.9414V284.924H36.1621V289.459H34.791V284.924H30.748V289.459H29.3594V284.924H25.6328ZM27.6543 280.143C27.6367 278.481 29.5527 277.559 32.752 277.559C35.9248 277.559 37.8408 278.481 37.8496 280.143C37.8408 281.795 35.9248 282.727 32.752 282.727C29.5527 282.727 27.6367 281.795 27.6543 280.143ZM29.0781 280.143C29.0605 281.101 30.4229 281.663 32.752 281.654C35.0547 281.663 36.4082 281.101 36.4258 280.143C36.4082 279.176 35.0547 278.631 32.752 278.613C30.4229 278.631 29.0605 279.176 29.0781 280.143ZM54.5488 273.797V289.424H53.2305V281.232H50.9277V288.615H49.6621V274.148H50.9277V280.09H53.2305V273.797H54.5488ZM41.7695 285.557V275.713H47.623V276.855H43.1406V284.379C45.2939 284.37 46.7793 284.291 48.5195 283.939L48.6426 285.1C46.7617 285.486 45.1709 285.548 42.7715 285.557H41.7695ZM69.6309 274.518V275.66H67.2227V279.246H69.5781V280.354H64.5508V282.27H70.9844V283.395H56.7461V282.27H63.1797V280.354H58.1348V279.246H60.4902V275.66H58.082V274.518H69.6309ZM58.5918 289.09V284.766H59.9805V287.93H69.4023V289.09H58.5918ZM61.8613 279.246H65.8516V275.66H61.8613V279.246ZM91.0586 282.094V283.219H76.8027V282.094H83.2363V280.547H78.7012V274.254H89.2832V275.379H80.0898V276.838H88.8613V277.893H80.0898V279.439H89.3711V280.547H84.6074V282.094H91.0586ZM78.543 286.893C78.5342 285.267 80.4766 284.379 83.9395 284.396C87.3672 284.379 89.3008 285.267 89.3184 286.893C89.3008 288.536 87.3672 289.389 83.9395 289.389C80.4766 289.389 78.5342 288.536 78.543 286.893ZM79.9316 286.893C79.9141 287.842 81.3555 288.334 83.9395 288.316C86.4971 288.334 87.9209 287.842 87.9297 286.893C87.9209 285.961 86.4971 285.442 83.9395 285.434C81.3555 285.442 79.9141 285.961 79.9316 286.893ZM105.279 273.814V285.275H103.908V273.814H105.279ZM92.5352 281.936C94.8994 281.013 96.5078 278.728 96.5078 276.258V274.693H97.9141V276.258C97.8965 278.64 99.5225 280.775 101.852 281.619L101.131 282.727C99.3203 282.032 97.9141 280.626 97.2197 278.824C96.543 280.74 95.1191 282.278 93.291 283.008L92.5352 281.936ZM95.1895 289.09V284.221H96.5605V287.93H105.771V289.09H95.1895ZM113.172 277.998C113.172 280.749 114.991 283.588 117.215 284.678L116.371 285.785C114.648 284.889 113.207 283.034 112.513 280.863C111.818 283.166 110.342 285.144 108.584 286.084L107.705 284.977C109.99 283.852 111.801 280.854 111.818 277.998V275.15H113.172V277.998ZM118.656 289.424V273.797H120.027V280.143H122.646V281.338H120.027V289.424H118.656Z" fill="#9CA3AF"/>
<mask id="path-10-inside-2_909_3260" fill="white">
<path d="M25 302H375V353H25V302Z"/>
</mask>
<path d="M375 352H25V354H375V352Z" fill="#9CA3AF" mask="url(#path-10-inside-2_909_3260)"/>
<path d="M26.6406 335V320.152H28.4863V327.494H28.6709L35.2744 320.152H37.6943L31.4805 326.858L37.6943 335H35.4385L30.332 328.13L28.4863 330.222V335H26.6406ZM51.8652 319.558V320.85H46.4307V322.818H51.1064V324.069H46.4307V326.243C48.8403 326.233 50.5938 326.161 52.6855 325.771L52.8496 327.022C50.5732 327.433 48.7275 327.535 46.0615 327.535H44.9131V319.558H51.8652ZM59.5352 318.45V328.294H57.9971V318.45H59.5352ZM55.9873 318.778V328.15H54.4287V323.864H51.9678V322.552H54.4287V318.778H55.9873ZM59.5352 329.135V333.318H49.0762V335.164H60.2734V336.456H47.4766V332.108H57.9561V330.427H47.4355V329.135H59.5352ZM69.3174 320.46V326.756H64.375V330.816C66.4771 330.806 68.4663 330.734 70.8965 330.304L71.0195 331.637C68.415 332.108 66.3438 332.149 64.0264 332.17H62.8164V325.423H67.7793V321.793H62.7754V320.46H69.3174ZM77.7871 318.43V336.661H76.249V318.43H77.7871ZM74.0547 318.881V335.697H72.5371V326.325H70.1992V325.013H72.5371V318.881H74.0547ZM94.9111 319.086V320.46C94.8906 321.957 94.8906 323.741 94.4395 326.12L92.8398 326.038C93.0347 325.043 93.1475 324.172 93.2295 323.372L82.1143 323.905L81.8887 322.552L93.291 322.183C93.3115 321.578 93.3115 321.003 93.3115 320.46V320.378H82.3398V319.086H94.9111ZM96.9619 327.248V328.581H80.3711V327.248H87.1387V324.767H88.7588V327.248H96.9619ZM94.8496 330.427V336.415H82.4014V330.427H94.8496ZM84.001 331.719V335.103H93.25V331.719H84.001Z" fill="#9CA3AF"/>
<path d="M33.5254 388.012C33.5166 390.104 36.3027 391.879 39.0273 392.283L38.5176 393.373C36.083 392.96 33.7012 391.659 32.752 389.778C31.8027 391.659 29.4209 392.96 27.0215 393.373L26.4766 392.283C29.1924 391.879 31.9697 390.104 31.9785 388.012V387.906H26.9688V386.781H38.5176V387.906H33.5254V388.012ZM25.6328 395.852V394.709H39.8711V395.852H33.4023V401.424H32.0488V395.852H25.6328ZM49.3457 387.168V394.41H42.0156V387.168H49.3457ZM43.3691 393.303H47.9922V388.311H43.3691V393.303ZM44.002 400.896V395.957H45.373V399.754H54.584V400.896H44.002ZM52.7207 397.047V385.814H54.0918V397.047H52.7207ZM71.002 393.232V394.393H56.7461V393.232H71.002ZM58.4688 398.576C58.46 396.783 60.4902 395.764 63.8652 395.764C67.2139 395.764 69.2266 396.783 69.2441 398.576C69.2266 400.387 67.2139 401.389 63.8652 401.389C60.4902 401.389 58.46 400.387 58.4688 398.576ZM58.5566 391.738V386.43H69.2266V387.59H59.9102V390.613H69.332V391.738H58.5566ZM59.875 398.576C59.8574 399.675 61.3604 400.299 63.8652 400.299C66.3438 400.299 67.8467 399.675 67.8555 398.576C67.8467 397.486 66.3438 396.854 63.8652 396.836C61.3604 396.854 59.8574 397.486 59.875 398.576ZM86.5938 394.41V395.553H72.2852V394.41H78.7539V392.758H74.1484V388.943H83.3594V387.326H74.0957V386.201H84.748V389.98H75.5195V391.65H85.082V392.758H80.1074V394.41H86.5938ZM73.8848 397.873V396.748H84.8359V401.283H83.4473V397.873H73.8848ZM100.814 385.814V397.381H99.4258V391.369H95.7344V394.709H88.6504V386.852H90.0215V389.629H94.3809V386.852H95.7344V390.209H99.4258V385.814H100.814ZM90.0215 393.566H94.3809V390.719H90.0215V393.566ZM90.707 401.09V396.238H92.0957V399.93H101.166V401.09H90.707ZM116.916 388.117V389.26H104.119V388.117H109.85V386.061H111.203V388.117H116.916ZM103.416 399.596V398.453H109.85V396.256C107.063 396.106 105.385 395.025 105.402 393.268C105.385 391.413 107.345 390.314 110.535 390.332C113.682 390.314 115.677 391.413 115.668 393.268C115.677 395.025 113.963 396.106 111.203 396.256V398.453H117.725V399.596H103.416ZM106.791 393.268C106.773 394.454 108.206 395.14 110.535 395.148C112.838 395.14 114.271 394.454 114.262 393.268C114.271 392.107 112.838 391.422 110.535 391.422C108.206 391.422 106.773 392.107 106.791 393.268Z" fill="#9CA3AF"/>
<mask id="path-14-inside-3_909_3260" fill="white">
<path d="M25 414H375V465H25V414Z"/>
</mask>
<path d="M375 464H25V466H375V464Z" fill="#9CA3AF" mask="url(#path-14-inside-3_909_3260)"/>
<path d="M31.5625 447.205C28.9888 447.174 26.1484 445.646 26.1484 440.15C26.1484 434.89 28.3018 431.947 31.7881 431.947C34.4028 431.947 36.228 433.557 36.6074 435.885H34.7822C34.4438 434.572 33.439 433.588 31.7881 433.588C29.3477 433.588 27.8813 435.669 27.8916 439.248H28.0762C28.9272 438.007 30.291 437.279 31.8906 437.279C34.5259 437.279 36.7305 439.33 36.7305 442.201C36.7305 445 34.6899 447.236 31.5625 447.205ZM28.1377 442.242C28.1479 443.985 29.5732 445.575 31.5625 445.585C33.48 445.575 34.936 444.067 34.9463 442.222C34.936 440.396 33.5415 438.91 31.6035 438.899C29.6553 438.91 28.1582 440.489 28.1377 442.242ZM44.4004 447.205C41.4473 447.205 39.3247 445.626 39.2324 443.268H41.0986C41.2012 444.683 42.606 445.564 44.3799 445.564C46.3384 445.564 47.7534 444.508 47.7637 442.96C47.7534 441.34 46.4614 440.202 44.1543 440.191H42.9443V438.571H44.1543C45.959 438.571 47.2202 437.556 47.21 436.028C47.2202 434.542 46.1333 433.557 44.4414 433.547C42.8521 433.557 41.4062 434.429 41.3242 435.885H39.54C39.6323 433.526 41.8267 431.947 44.4619 431.947C47.292 431.947 49.0146 433.803 48.9941 435.926C49.0146 437.618 48.0303 438.848 46.4717 439.289V439.392C48.4097 439.689 49.5786 441.073 49.5684 442.96C49.5786 445.4 47.3638 447.205 44.4004 447.205ZM57.0947 447.205C53.8032 447.205 51.896 444.437 51.9062 439.576C51.896 434.757 53.8237 431.947 57.0947 431.947C60.3555 431.947 62.2832 434.757 62.2832 439.576C62.2832 444.437 60.3862 447.205 57.0947 447.205ZM53.6904 439.576C53.7007 443.421 54.9414 445.564 57.0947 445.564C59.2378 445.564 60.4888 443.421 60.4785 439.576C60.4888 435.731 59.2275 433.557 57.0947 433.547C54.9619 433.557 53.7007 435.731 53.6904 439.576ZM64.8057 447L71.6143 433.896V433.793H63.7598V432.152H73.5215V433.875L66.7334 447H64.8057ZM81.1709 432.152V447H79.3047V434.08H79.2227L75.6133 436.479V434.613L79.3047 432.152H81.1709ZM89.9893 447.205C86.6978 447.205 84.7905 444.437 84.8008 439.576C84.7905 434.757 86.7183 431.947 89.9893 431.947C93.25 431.947 95.1777 434.757 95.1777 439.576C95.1777 444.437 93.2808 447.205 89.9893 447.205ZM86.585 439.576C86.5952 443.421 87.8359 445.564 89.9893 445.564C92.1323 445.564 93.3833 443.421 93.373 439.576C93.3833 435.731 92.1221 433.557 89.9893 433.547C87.8564 433.557 86.5952 435.731 86.585 439.576Z" fill="#9CA3AF"/>
<path d="M207.793 438.776V440.396H201.292V438.776H207.793ZM225.2 432.152V447H223.334V434.08H223.252L219.642 436.479V434.613L223.334 432.152H225.2ZM239.145 445.998H237.44L237.615 441.814L234.065 444.047L233.221 442.588L236.93 440.637L233.221 438.686L234.065 437.209L237.615 439.441L237.44 435.258H239.145L238.987 439.441L242.537 437.209L243.381 438.686L239.672 440.637L243.381 442.588L242.537 444.047L238.987 441.814L239.145 445.998ZM257.82 445.998H256.115L256.29 441.814L252.74 444.047L251.896 442.588L255.605 440.637L251.896 438.686L252.74 437.209L256.29 439.441L256.115 435.258H257.82L257.662 439.441L261.212 437.209L262.056 438.686L258.347 440.637L262.056 442.588L261.212 444.047L257.662 441.814L257.82 445.998ZM276.495 445.998H274.79L274.965 441.814L271.415 444.047L270.571 442.588L274.28 440.637L270.571 438.686L271.415 437.209L274.965 439.441L274.79 435.258H276.495L276.337 439.441L279.887 437.209L280.731 438.686L277.022 440.637L280.731 442.588L279.887 444.047L276.337 441.814L276.495 445.998ZM295.17 445.998H293.465L293.64 441.814L290.09 444.047L289.246 442.588L292.955 440.637L289.246 438.686L290.09 437.209L293.64 439.441L293.465 435.258H295.17L295.012 439.441L298.562 437.209L299.406 438.686L295.697 440.637L299.406 442.588L298.562 444.047L295.012 441.814L295.17 445.998ZM313.845 445.998H312.14L312.315 441.814L308.765 444.047L307.921 442.588L311.63 440.637L307.921 438.686L308.765 437.209L312.315 439.441L312.14 435.258H313.845L313.687 439.441L317.237 437.209L318.081 438.686L314.372 440.637L318.081 442.588L317.237 444.047L313.687 441.814L313.845 445.998ZM332.52 445.998H330.815L330.99 441.814L327.44 444.047L326.596 442.588L330.305 440.637L326.596 438.686L327.44 437.209L330.99 439.441L330.815 435.258H332.52L332.362 439.441L335.912 437.209L336.756 438.686L333.047 440.637L336.756 442.588L335.912 444.047L332.362 441.814L332.52 445.998Z" fill="#9CA3AF"/>
<path d="M39.0449 499.537V500.662H26.3711V499.537H32.0664V497.709H33.4199V499.537H39.0449ZM25.6328 508.924V507.781H39.9414V508.924H36.1621V513.459H34.791V508.924H30.748V513.459H29.3594V508.924H25.6328ZM27.6543 504.143C27.6367 502.481 29.5527 501.559 32.752 501.559C35.9248 501.559 37.8408 502.481 37.8496 504.143C37.8408 505.795 35.9248 506.727 32.752 506.727C29.5527 506.727 27.6367 505.795 27.6543 504.143ZM29.0781 504.143C29.0605 505.101 30.4229 505.663 32.752 505.654C35.0547 505.663 36.4082 505.101 36.4258 504.143C36.4082 503.176 35.0547 502.631 32.752 502.613C30.4229 502.631 29.0605 503.176 29.0781 504.143ZM54.5488 497.797V513.424H53.2305V505.232H50.9277V512.615H49.6621V498.148H50.9277V504.09H53.2305V497.797H54.5488ZM41.7695 509.557V499.713H47.623V500.855H43.1406V508.379C45.2939 508.37 46.7793 508.291 48.5195 507.939L48.6426 509.1C46.7617 509.486 45.1709 509.548 42.7715 509.557H41.7695ZM69.6309 498.518V499.66H67.2227V503.246H69.5781V504.354H64.5508V506.27H70.9844V507.395H56.7461V506.27H63.1797V504.354H58.1348V503.246H60.4902V499.66H58.082V498.518H69.6309ZM58.5918 513.09V508.766H59.9805V511.93H69.4023V513.09H58.5918ZM61.8613 503.246H65.8516V499.66H61.8613V503.246ZM89.7754 497.814V509.381H88.3867V503.369H84.6953V506.709H77.6113V498.852H78.9824V501.629H83.3418V498.852H84.6953V502.209H88.3867V497.814H89.7754ZM78.9824 505.566H83.3418V502.719H78.9824V505.566ZM79.668 513.09V508.238H81.0566V511.93H90.127V513.09H79.668ZM105.877 500.117V501.26H93.0801V500.117H98.8105V498.061H100.164V500.117H105.877ZM92.377 511.596V510.453H98.8105V508.256C96.0244 508.106 94.3457 507.025 94.3633 505.268C94.3457 503.413 96.3057 502.314 99.4961 502.332C102.643 502.314 104.638 503.413 104.629 505.268C104.638 507.025 102.924 508.106 100.164 508.256V510.453H106.686V511.596H92.377ZM95.752 505.268C95.7344 506.454 97.167 507.14 99.4961 507.148C101.799 507.14 103.231 506.454 103.223 505.268C103.231 504.107 101.799 503.422 99.4961 503.422C97.167 503.422 95.7344 504.107 95.752 505.268Z" fill="#9CA3AF"/>
<mask id="path-19-inside-4_909_3260" fill="white">
<path d="M25 526H375V577H25V526Z"/>
</mask>
<path d="M375 576H25V578H375V576Z" fill="#9CA3AF" mask="url(#path-19-inside-4_909_3260)"/>
<path d="M31.2549 559.205C27.9634 559.205 26.0562 556.437 26.0664 551.576C26.0562 546.757 27.9839 543.947 31.2549 543.947C34.5156 543.947 36.4434 546.757 36.4434 551.576C36.4434 556.437 34.5464 559.205 31.2549 559.205ZM27.8506 551.576C27.8608 555.421 29.1016 557.564 31.2549 557.564C33.3979 557.564 34.6489 555.421 34.6387 551.576C34.6489 547.731 33.3877 545.557 31.2549 545.547C29.1221 545.557 27.8608 547.731 27.8506 551.576ZM44.1543 544.152V559H42.2881V546.08H42.2061L38.5967 548.479V546.613L42.2881 544.152H44.1543ZM52.9727 559.205C49.6812 559.205 47.7739 556.437 47.7842 551.576C47.7739 546.757 49.7017 543.947 52.9727 543.947C56.2334 543.947 58.1611 546.757 58.1611 551.576C58.1611 556.437 56.2642 559.205 52.9727 559.205ZM49.5684 551.576C49.5786 555.421 50.8193 557.564 52.9727 557.564C55.1157 557.564 56.3667 555.421 56.3564 551.576C56.3667 547.731 55.1055 545.557 52.9727 545.547C50.8398 545.557 49.5786 547.731 49.5684 551.576ZM65.8721 544.152V559H64.0059V546.08H63.9238L60.3145 548.479V546.613L64.0059 544.152H65.8721ZM69.8301 559L69.8096 557.646L74.875 552.314C76.6284 550.448 77.4692 549.443 77.4795 548.069C77.4692 546.542 76.1978 545.557 74.5264 545.547C72.7524 545.557 71.645 546.675 71.6348 548.336H69.8916C69.8711 545.711 71.9014 543.947 74.5879 543.947C77.2847 543.947 79.1919 545.762 79.2021 548.069C79.1919 549.73 78.4229 551.022 75.7979 553.729L72.3936 557.236V557.359H79.4688V559H69.8301ZM87.2822 559.205C84.3291 559.205 82.2065 557.626 82.1143 555.268H83.9805C84.083 556.683 85.4878 557.564 87.2617 557.564C89.2202 557.564 90.6353 556.508 90.6455 554.96C90.6353 553.34 89.3433 552.202 87.0361 552.191H85.8262V550.571H87.0361C88.8408 550.571 90.1021 549.556 90.0918 548.028C90.1021 546.542 89.0151 545.557 87.3232 545.547C85.7339 545.557 84.2881 546.429 84.2061 547.885H82.4219C82.5142 545.526 84.7085 543.947 87.3438 543.947C90.1738 543.947 91.8965 545.803 91.876 547.926C91.8965 549.618 90.9121 550.848 89.3535 551.289V551.392C91.2915 551.689 92.4604 553.073 92.4502 554.96C92.4604 557.4 90.2456 559.205 87.2822 559.205ZM94.7471 555.965V554.447L101.433 544.152H103.709V554.345H105.78V555.965H103.709V559H101.945V555.965H94.7471ZM96.7363 554.345H101.945V546.49H101.761L96.7363 554.222V554.345ZM113.061 559.205C110.384 559.205 108.354 557.554 108.241 555.268H110.025C110.159 556.59 111.451 557.575 113.061 557.585C114.988 557.575 116.383 556.17 116.383 554.304C116.383 552.376 114.937 550.951 112.938 550.94C111.687 550.92 110.712 551.31 110.169 552.273H108.385L109.431 544.152H117.47V545.793H110.969L110.415 550.141H110.559C111.225 549.628 112.22 549.279 113.266 549.279C116.096 549.279 118.177 551.371 118.188 554.263C118.177 557.134 116.024 559.205 113.061 559.205ZM125.919 559.205C123.345 559.174 120.505 557.646 120.505 552.15C120.505 546.89 122.658 543.947 126.145 543.947C128.759 543.947 130.584 545.557 130.964 547.885H129.139C128.8 546.572 127.795 545.588 126.145 545.588C123.704 545.588 122.238 547.669 122.248 551.248H122.433C123.284 550.007 124.647 549.279 126.247 549.279C128.882 549.279 131.087 551.33 131.087 554.201C131.087 557 129.046 559.236 125.919 559.205ZM122.494 554.242C122.504 555.985 123.93 557.575 125.919 557.585C127.836 557.575 129.292 556.067 129.303 554.222C129.292 552.396 127.898 550.91 125.96 550.899C124.012 550.91 122.515 552.489 122.494 554.242ZM134.102 559L140.91 545.896V545.793H133.056V544.152H142.817V545.875L136.029 559H134.102ZM149.893 559.205C146.765 559.205 144.612 557.472 144.622 555.062C144.612 553.145 145.945 551.556 147.637 551.289V551.207C146.16 550.869 145.186 549.505 145.196 547.885C145.186 545.619 147.175 543.947 149.893 543.947C152.6 543.947 154.589 545.619 154.609 547.885C154.589 549.505 153.604 550.869 152.148 551.207V551.289C153.83 551.556 155.163 553.145 155.184 555.062C155.163 557.472 152.989 559.205 149.893 559.205ZM146.468 554.96C146.437 556.519 147.76 557.575 149.893 557.585C152.015 557.575 153.338 556.519 153.338 554.96C153.338 553.319 151.892 552.109 149.893 552.109C147.903 552.109 146.437 553.319 146.468 554.96ZM146.98 548.028C146.991 549.525 148.19 550.541 149.893 550.551C151.584 550.541 152.805 549.525 152.805 548.028C152.805 546.542 151.625 545.537 149.893 545.547C148.129 545.537 146.991 546.542 146.98 548.028Z" fill="#9CA3AF"/>
<path d="M38.5176 609.797V625.459H37.1289V609.797H38.5176ZM26.2129 616.459C26.2217 613.137 27.874 611.019 30.2031 611.01C32.5234 611.019 34.2021 613.137 34.1934 616.459C34.2021 619.79 32.5234 621.899 30.2031 621.891C27.874 621.899 26.2217 619.79 26.2129 616.459ZM27.5488 616.459C27.5488 618.999 28.6387 620.669 30.2031 620.66C31.7764 620.669 32.8574 618.999 32.8574 616.459C32.8574 613.919 31.7764 612.249 30.2031 612.24C28.6387 612.249 27.5488 613.919 27.5488 616.459ZM55.4805 617.865V619.008H41.1719V617.865H55.4805ZM42.9824 611.291V610.184H53.6348V613.875H44.4062V615.439H53.9688V616.512H43.0352V612.838H52.2461V611.291H42.9824ZM43.123 625.213V620.432H53.6348V625.213H43.123ZM44.4766 624.088H52.2812V621.557H44.4766V624.088ZM57.7129 619.148C57.7305 615.835 58.627 613.075 60.2441 610.729H61.5801C60.3936 612.46 59.2861 616.02 59.2773 619.148C59.2861 622.286 60.3936 625.837 61.5801 627.586H60.2441C58.627 625.23 57.7305 622.471 57.7129 619.148ZM75.7656 609.797V617.9H74.4121V609.797H75.7656ZM62.9863 616.652C65.3418 615.835 67.0117 613.743 67.0117 611.449V610.254H68.418V611.449C68.4004 613.655 70.0879 615.606 72.4082 616.371L71.7227 617.443C69.8857 616.819 68.4355 615.51 67.7324 613.822C67.0293 615.642 65.5615 617.074 63.707 617.742L62.9863 616.652ZM65.623 619.799V618.691H75.7832V622.436H67.0117V624.123H76.3457V625.248H65.6582V621.363H74.4121V619.799H65.623ZM91.3926 609.797V619.061H90.0039V616.6H86.3477V617.936H79.1758V610.992H86.3477V612.346H90.0039V609.797H91.3926ZM80.5469 616.811H84.9941V612.117H80.5469V616.811ZM80.9688 622.471C80.96 620.59 82.9551 619.509 86.207 619.518C89.4502 619.509 91.4453 620.59 91.4453 622.471C91.4453 624.334 89.4502 625.389 86.207 625.389C82.9551 625.389 80.96 624.334 80.9688 622.471ZM82.3398 622.471C82.3311 623.604 83.8076 624.299 86.207 624.299C88.5977 624.299 90.0742 623.604 90.0742 622.471C90.0742 621.293 88.5977 620.607 86.207 620.59C83.8076 620.607 82.3311 621.293 82.3398 622.471ZM86.3477 615.439H90.0039V613.488H86.3477V615.439ZM97.8965 619.148C97.8789 622.471 96.9824 625.23 95.3652 627.586H94.0293C95.2158 625.837 96.3232 622.286 96.332 619.148C96.3232 616.02 95.2158 612.46 94.0293 610.729H95.3652C96.9824 613.075 97.8789 615.835 97.8965 619.148Z" fill="#9CA3AF"/>
<mask id="path-23-inside-5_909_3260" fill="white">
<path d="M25 638H375V689H25V638Z"/>
</mask>
<path d="M375 688H25V690H375V688Z" fill="#9CA3AF" mask="url(#path-23-inside-5_909_3260)"/>
<path d="M35.3564 655.619C35.3564 660.223 31.9727 663.504 26.5996 664.93L25.9434 663.658C30.4448 662.469 33.2954 660.049 33.644 656.932H26.9072V655.619H35.3564ZM28.9375 672.415V665.627H40.791V672.415H28.9375ZM30.5166 671.103H39.2119V666.919H30.5166V671.103ZM39.1914 664.745V654.45H40.791V664.745H39.1914ZM46.1025 656.173V660.623H50.0605V656.173H51.5576V668.108H44.5645V656.173H46.1025ZM46.1025 666.775H50.0605V661.936H46.1025V666.775ZM53.875 671.738V654.819H55.4131V661.669H57.9561V654.43H59.5146V672.661H57.9561V663.002H55.4131V671.738H53.875ZM70.3428 654.778C74.311 654.789 76.772 656.05 76.7822 658.224C76.772 660.356 74.311 661.618 70.3428 661.607C66.3745 661.618 63.8828 660.356 63.8828 658.224C63.8828 656.05 66.3745 654.789 70.3428 654.778ZM62.0371 664.335V663.002H78.6484V664.335H71.1221V666.427H76.6182V672.415H64.0674V666.427H69.543V664.335H62.0371ZM65.5439 658.224C65.5337 659.557 67.3896 660.336 70.3428 660.336C73.2651 660.336 75.1313 659.557 75.1416 658.224C75.1313 656.86 73.2651 656.05 70.3428 656.05C67.3896 656.05 65.5337 656.86 65.5439 658.224ZM65.667 671.103H75.0391V667.719H65.667V671.103Z" fill="#9CA3AF"/>
</svg>
