<svg width="400" height="292" viewBox="0 0 400 292" fill="none" xmlns="http://www.w3.org/2000/svg">
<rect x="20" y="0.5" width="360" height="291" rx="2" fill="white"/>
<mask id="mask0_937_377" style="mask-type:alpha" maskUnits="userSpaceOnUse" x="188" y="20" width="24" height="25">
<rect x="188" y="20.5" width="24" height="24" fill="#D9D9D9"/>
</mask>
<g mask="url(#mask0_937_377)">
<path d="M200 37.6152C201.148 37.6152 202.12 37.2163 202.918 36.4183C203.716 35.6202 204.115 34.6475 204.115 33.5C204.115 32.3525 203.716 31.3798 202.918 30.5818C202.12 29.7838 201.148 29.3848 200 29.3848C198.852 29.3848 197.88 29.7838 197.082 30.5818C196.284 31.3798 195.885 32.3525 195.885 33.5C195.885 34.6475 196.284 35.6202 197.082 36.4183C197.88 37.2163 198.852 37.6152 200 37.6152ZM200 36.1155C199.262 36.1155 198.641 35.8642 198.139 35.3615C197.636 34.859 197.385 34.2385 197.385 33.5C197.385 32.7615 197.636 32.141 198.139 31.6385C198.641 31.1358 199.262 30.8845 200 30.8845C200.738 30.8845 201.359 31.1358 201.862 31.6385C202.364 32.141 202.616 32.7615 202.616 33.5C202.616 34.2385 202.364 34.859 201.862 35.3615C201.359 35.8642 200.738 36.1155 200 36.1155ZM192.308 41C191.803 41 191.375 40.825 191.025 40.475C190.675 40.125 190.5 39.6974 190.5 39.1923V27.8077C190.5 27.3026 190.675 26.875 191.025 26.525C191.375 26.175 191.803 26 192.308 26H195.361L196.669 24.5827C196.833 24.4019 197.032 24.2596 197.264 24.1557C197.497 24.0519 197.742 24 198 24H202C202.258 24 202.503 24.0519 202.735 24.1557C202.968 24.2596 203.167 24.4019 203.331 24.5827L204.638 26H207.692C208.197 26 208.625 26.175 208.975 26.525C209.325 26.875 209.5 27.3026 209.5 27.8077V39.1923C209.5 39.6974 209.325 40.125 208.975 40.475C208.625 40.825 208.197 41 207.692 41H192.308Z" fill="#02837B"/>
</g>
<path d="M92.5107 81.0938V83.0488H74.7646V81.0938H82.413V76.8613H76.7197V67.4941H90.4697V76.8613H84.7763V81.0938H92.5107ZM79.0614 74.9922H88.1064V69.4062H79.0614V74.9922ZM108.549 65.9902V73.3809H111.536V75.4004H108.549V85.4121H106.164V65.9902H108.549ZM94.0257 80.8574V67.5801H96.389V72.4355H100.965V67.5801H103.35V80.8574H94.0257ZM96.389 78.9023H100.965V74.3047H96.389V78.9023ZM117.412 66.6133C120.355 66.624 122.547 68.4395 122.568 70.9961C122.547 73.5635 120.355 75.3682 117.412 75.3789C114.447 75.3682 112.256 73.5635 112.256 70.9961C112.256 68.4395 114.447 66.624 117.412 66.6133ZM114.576 70.9961C114.576 72.5 115.779 73.4453 117.412 73.4453C119.045 73.4453 120.237 72.5 120.248 70.9961C120.237 69.5244 119.045 68.5791 117.412 68.5898C115.779 68.5791 114.576 69.5244 114.576 70.9961ZM115.199 78.5156V76.6465H128.09V81.7168H117.584V83.2852H128.67V85.1758H115.242V79.9551H125.705V78.5156H115.199ZM125.683 75.8086V65.9902H128.09V75.8086H125.683ZM151.53 66.0117V80.2559H149.145V73.7246H145.407V71.748H149.145V66.0117H151.53ZM135.524 76.3027C139.703 74.9814 142.464 72.5 142.925 69.4277H136.534V67.4727H145.536C145.536 72.5967 142.152 76.4209 136.534 78.2148L135.524 76.3027ZM138.876 85.0254V78.8164H141.303V83.0918H152.024V85.0254H138.876ZM169.158 65.9902V70.7168H171.865V72.6719H169.158V77.377H166.774V65.9902H169.158ZM153.776 75.7441C158.169 74.541 160.79 72.167 161.198 69.2559H154.656V67.3223H163.787C163.798 72.4248 160.468 76.0557 154.721 77.6777L153.776 75.7441ZM156.397 81.502C156.375 79.1064 158.975 77.6133 162.885 77.6133C166.827 77.6133 169.373 79.1064 169.373 81.502C169.373 83.9189 166.827 85.4014 162.885 85.3906C158.975 85.4014 156.375 83.9189 156.397 81.502ZM158.76 81.502C158.749 82.7695 160.318 83.5215 162.885 83.5215C165.442 83.5215 167.021 82.7695 167.031 81.502C167.021 80.2236 165.442 79.4824 162.885 79.4824C160.318 79.4824 158.749 80.2236 158.76 81.502ZM190.16 81.1152V83.0703H172.414V81.1152H180.062V77.334H174.369V67.2793H176.753V70.459H185.755V67.2793H188.14V77.334H182.425V81.1152H190.16ZM176.753 75.4004H185.755V72.3711H176.753V75.4004ZM207.251 65.9902V77.7422H204.866V73.7246H202.095V71.748H204.866V65.9902H207.251ZM191.03 69.7285V67.7949H195.542V65.8398H197.905V67.7949H202.417V69.7285H191.03ZM192.126 73.9609C192.115 71.9199 194.038 70.4805 196.724 70.4805C199.431 70.4805 201.332 71.9199 201.343 73.9609C201.332 76.0557 199.431 77.4414 196.724 77.4414C194.038 77.4414 192.115 76.0557 192.126 73.9609ZM194.339 85.1758V78.623H207.251V85.1758H194.339ZM194.403 73.9609C194.403 75.0352 195.327 75.6582 196.724 75.6582C198.109 75.6582 199.044 75.0352 199.044 73.9609C199.044 72.9189 198.109 72.2852 196.724 72.2852C195.327 72.2852 194.403 72.9189 194.403 73.9609ZM196.724 83.2422H204.909V80.5137H196.724V83.2422ZM227.264 75.0352V76.9688H209.561V75.0352H227.264ZM210.42 72.2852C214.019 71.9307 216.361 70.4912 216.726 68.8691H211.172V66.9141H225.674V68.8691H220.067C220.421 70.4697 222.742 71.9307 226.426 72.2852L225.588 74.1758C222.054 73.8105 219.444 72.4033 218.391 70.4375C217.338 72.4033 214.76 73.8105 211.237 74.1758L210.42 72.2852ZM211.623 81.8242C211.623 79.5684 214.169 78.2578 218.391 78.2578C222.581 78.2578 225.105 79.5684 225.116 81.8242C225.105 84.1123 222.581 85.3906 218.391 85.3906C214.169 85.3906 211.623 84.1123 211.623 81.8242ZM214.051 81.8242C214.04 82.9521 215.566 83.5107 218.391 83.5215C221.173 83.5107 222.709 82.9521 222.731 81.8242C222.709 80.6963 221.173 80.127 218.391 80.127C215.566 80.127 214.04 80.6963 214.051 81.8242ZM244.635 66.1406V85.2402H243.002V66.1406H244.635ZM228.5 74.3906C228.511 70.3301 230.122 67.7627 232.603 67.752C234.924 67.7627 236.492 69.9971 236.707 73.5957H239.178V66.5488H240.789V84.2734H239.178V74.9922H236.718C236.557 78.709 234.956 81.04 232.603 81.0293C230.122 81.04 228.511 78.4512 228.5 74.3906ZM230.09 74.3906C230.068 77.4844 231.057 79.4395 232.603 79.418C234.161 79.4395 235.149 77.4844 235.139 74.3906C235.149 71.2861 234.161 69.3418 232.603 69.3418C231.057 69.3418 230.068 71.2861 230.09 74.3906ZM253.562 71.2754C253.551 74.7344 255.775 78.2148 258.546 79.4824L257.536 80.8574C255.367 79.7402 253.573 77.4629 252.724 74.7451C251.875 77.6025 250.081 80.0518 247.911 81.2012L246.816 79.8477C249.619 78.4727 251.832 74.7988 251.843 71.2754V67.7949H253.562V71.2754ZM256.462 74.0469V72.6719H260.995V66.1406H262.671V85.2832H260.995V74.0469H256.462ZM276.895 71.2754C276.895 74.6377 279.118 78.1074 281.836 79.4395L280.805 80.793C278.699 79.6973 276.938 77.4307 276.089 74.7773C275.24 77.5918 273.436 80.0088 271.287 81.1582L270.213 79.8047C273.006 78.4297 275.219 74.7666 275.24 71.2754V67.7949H276.895V71.2754ZM283.598 85.2402V66.1406H285.274V73.8965H288.475V75.3574H285.274V85.2402H283.598ZM295.941 70.2441C295.952 72.8223 297.982 75.1426 300.839 76.0449L299.98 77.3984C297.756 76.6357 295.995 75.0674 295.125 73.0586C294.297 75.2285 292.504 76.9473 290.226 77.7852L289.345 76.4316C292.214 75.4326 294.233 72.9512 294.244 70.2441V69.127H289.775V67.752H300.345V69.127H295.941V70.2441ZM292.504 84.832V78.8379H294.179V83.4141H305.437V84.832H292.504ZM303.16 80.1699V66.1621H304.836V80.1699H303.16ZM316.341 66.4844C320.584 66.4844 323.076 67.6553 323.087 69.7715C323.076 71.9414 320.584 73.1123 316.341 73.123C312.076 73.1123 309.573 71.9414 309.573 69.7715C309.573 67.6553 312.076 66.4844 316.341 66.4844ZM307.64 75.7871V74.4121H325.042V75.7871H307.64ZM309.745 78.7305V77.4414H322.808V81.7168H311.464V83.6934H323.388V85.0254H309.788V80.4707H321.153V78.7305H309.745ZM311.335 69.7715C311.314 71.1035 313.172 71.834 316.341 71.834C319.51 71.834 321.357 71.1035 321.368 69.7715C321.357 68.5146 319.51 67.7627 316.341 67.752C313.172 67.7627 311.314 68.5146 311.335 69.7715ZM85.829 98.7949V100.062H81.5751C81.6181 101.642 83.6591 102.888 86.2802 103.307L85.6786 104.553C83.3905 104.166 81.5859 103.167 80.7695 101.771C79.9638 103.242 78.1484 104.316 75.8388 104.746L75.2372 103.521C77.8691 103.07 79.8886 101.717 79.9208 100.062H75.6884V98.7949H79.9208V97.0977H81.5751V98.7949H85.829ZM74.7216 106.057C76.2577 106.057 78.0517 106.046 79.9208 105.981V103.865H81.5751V105.917C83.3368 105.831 85.1093 105.702 86.7529 105.477L86.8603 106.658C82.832 107.346 78.2988 107.389 74.9364 107.367L74.7216 106.057ZM77.2138 110.117V108.85H89.6532V112.953H78.9325V114.736H90.3837V116.025H77.2568V111.729H87.9775V110.117H77.2138ZM87.956 108.012V97.1406H89.6532V101.76H92.5107V103.156H89.6532V108.012H87.956ZM98.5804 98.3008C100.192 98.29 101.556 98.9023 102.448 99.9121H107.453V97.1406H109.151V108.463H107.453V105.734H102.448C101.567 106.744 100.192 107.356 98.5804 107.346C95.723 107.356 93.6068 105.487 93.6175 102.834C93.6068 100.159 95.723 98.29 98.5804 98.3008ZM95.2289 102.834C95.2289 104.606 96.6254 105.917 98.5804 105.906C100.471 105.917 101.889 104.606 101.889 102.834C101.889 101.019 100.471 99.751 98.5804 99.7617C96.6254 99.751 95.2289 101.019 95.2289 102.834ZM96.4105 112.545C96.3998 110.246 98.849 108.914 102.813 108.914C106.766 108.914 109.215 110.246 109.215 112.545C109.215 114.865 106.766 116.197 102.813 116.197C98.849 116.197 96.3998 114.865 96.4105 112.545ZM98.0648 112.545C98.0541 113.984 99.8802 114.854 102.813 114.844C105.745 114.854 107.572 113.984 107.561 112.545C107.572 111.095 105.745 110.235 102.813 110.225C99.8802 110.235 98.0541 111.095 98.0648 112.545ZM103.253 101.287C103.425 101.76 103.522 102.275 103.522 102.834C103.522 103.371 103.425 103.876 103.264 104.338H107.453V101.287H103.253ZM126.672 97.1406V105.025H129.873V106.422H126.672V116.24H124.996V97.1406H126.672ZM111.783 101.609V100.213H116.703V97.377H118.379V100.213H123.148V101.609H111.783ZM112.879 107.582C112.868 105.004 114.845 103.199 117.562 103.199C120.259 103.199 122.224 105.004 122.246 107.582C122.224 110.171 120.259 111.965 117.562 111.965C114.845 111.965 112.868 110.171 112.879 107.582ZM114.49 107.582C114.479 109.322 115.779 110.547 117.562 110.525C119.324 110.547 120.613 109.322 120.635 107.582C120.613 105.853 119.324 104.606 117.562 104.617C115.779 104.606 114.479 105.853 114.49 107.582ZM145.782 99.0742V100.986C145.761 103.328 145.761 105.949 145.073 109.795L143.355 109.602C144.074 105.949 144.074 103.274 144.085 100.986V100.471H132.312V99.0742H145.782ZM130.464 113.533V112.137H137.296V105.305H138.95V112.137H147.866V113.533H130.464ZM171.543 106.594V107.947H154.119V106.594H162.004V104.359H156.332V98.043H169.373V99.3965H157.986V102.984H169.502V104.359H163.637V106.594H171.543ZM156.225 112.781C156.214 110.601 158.695 109.354 162.82 109.344C166.913 109.354 169.373 110.601 169.395 112.781C169.373 114.983 166.913 116.219 162.82 116.24C158.695 116.219 156.214 114.983 156.225 112.781ZM157.943 112.781C157.922 114.124 159.759 114.897 162.82 114.887C165.85 114.897 167.687 114.124 167.697 112.781C167.687 111.46 165.85 110.676 162.82 110.676C159.759 110.676 157.922 111.46 157.943 112.781ZM177.957 98.3008C179.568 98.29 180.932 98.9023 181.824 99.9121H186.83V97.1406H188.527V108.463H186.83V105.734H181.824C180.943 106.744 179.568 107.356 177.957 107.346C175.099 107.356 172.983 105.487 172.994 102.834C172.983 100.159 175.099 98.29 177.957 98.3008ZM174.605 102.834C174.605 104.606 176.002 105.917 177.957 105.906C179.847 105.917 181.265 104.606 181.265 102.834C181.265 101.019 179.847 99.751 177.957 99.7617C176.002 99.751 174.605 101.019 174.605 102.834ZM175.787 112.545C175.776 110.246 178.225 108.914 182.189 108.914C186.142 108.914 188.591 110.246 188.591 112.545C188.591 114.865 186.142 116.197 182.189 116.197C178.225 116.197 175.776 114.865 175.787 112.545ZM177.441 112.545C177.43 113.984 179.256 114.854 182.189 114.844C185.122 114.854 186.948 113.984 186.937 112.545C186.948 111.095 185.122 110.235 182.189 110.225C179.256 110.235 177.43 111.095 177.441 112.545ZM182.629 101.287C182.801 101.76 182.898 102.275 182.898 102.834C182.898 103.371 182.801 103.876 182.64 104.338H186.83V101.287H182.629ZM197.647 100.234C197.647 102.834 199.624 105.219 202.396 106.164L201.472 107.496C199.366 106.723 197.701 105.144 196.863 103.146C196.047 105.412 194.339 107.163 192.104 108.033L191.202 106.68C194.06 105.616 195.982 103.06 195.993 100.105V98.1289H197.647V100.234ZM193.737 112.717C193.748 110.536 196.144 109.258 200.075 109.258C203.996 109.258 206.37 110.536 206.37 112.717C206.37 114.94 203.996 116.197 200.075 116.197C196.144 116.197 193.748 114.94 193.737 112.717ZM195.435 112.717C195.413 114.07 197.196 114.854 200.075 114.865C202.965 114.854 204.727 114.07 204.737 112.717C204.727 111.417 202.965 110.611 200.075 110.611C197.196 110.611 195.413 111.417 195.435 112.717ZM204.522 108.764V97.1406H206.198V102.125H209.077V103.543H206.198V108.764H204.522ZM218.541 97.4844C222.785 97.4844 225.277 98.6553 225.288 100.771C225.277 102.941 222.785 104.112 218.541 104.123C214.277 104.112 211.774 102.941 211.774 100.771C211.774 98.6553 214.277 97.4844 218.541 97.4844ZM209.84 106.787V105.412H227.243V106.787H209.84ZM211.946 109.73V108.441H225.008V112.717H213.664V114.693H225.588V116.025H211.989V111.471H223.354V109.73H211.946ZM213.536 100.771C213.514 102.104 215.372 102.834 218.541 102.834C221.71 102.834 223.558 102.104 223.569 100.771C223.558 99.5146 221.71 98.7627 218.541 98.752C215.372 98.7627 213.514 99.5146 213.536 100.771ZM248.943 102.555V103.951H243.035V106.529H250.919V107.926H233.495V106.529H241.359V103.951H235.859V97.5703H237.535V102.555H248.943ZM235.536 111.256V109.881H248.749V116.24H247.052V111.256H235.536ZM266.893 97.1406V105.283H269.944V106.701H266.893V116.24H265.196V97.1406H266.893ZM251.833 111.148C253.39 111.148 255.206 111.138 257.096 111.084V108.979C254.873 108.721 253.423 107.41 253.444 105.52C253.423 103.36 255.249 101.964 257.956 101.975C260.62 101.964 262.478 103.36 262.489 105.52C262.478 107.421 261.007 108.721 258.794 108.979V111.02C260.566 110.934 262.371 110.783 264.036 110.547L264.143 111.836C259.975 112.545 255.464 112.588 252.112 112.588L251.833 111.148ZM252.177 100.857V99.4824H257.096V97.1836H258.794V99.4824H263.692V100.857H252.177ZM255.012 105.52C255.023 106.841 256.183 107.711 257.956 107.689C259.696 107.711 260.867 106.841 260.878 105.52C260.867 104.188 259.696 103.285 257.956 103.285C256.183 103.285 255.023 104.188 255.012 105.52ZM285.424 97.1406V105.025H288.625V106.422H285.424V116.24H283.748V97.1406H285.424ZM270.535 101.609V100.213H275.455V97.377H277.131V100.213H281.901V101.609H270.535ZM271.631 107.582C271.62 105.004 273.597 103.199 276.315 103.199C279.011 103.199 280.977 105.004 280.998 107.582C280.977 110.171 279.011 111.965 276.315 111.965C273.597 111.965 271.62 110.171 271.631 107.582ZM273.242 107.582C273.232 109.322 274.531 110.547 276.315 110.525C278.076 110.547 279.365 109.322 279.387 107.582C279.365 105.853 278.076 104.606 276.315 104.617C274.531 104.606 273.232 105.853 273.242 107.582ZM304.642 106.1V107.475H298.734V112.416H306.705V113.834H289.216V112.416H297.08V107.475H291.451V98.709H304.449V100.084H293.148V106.1H304.642ZM325.257 107.668V109.064H307.769V107.668H315.675V105.648H310.046V100.986H321.304V99.0098H309.982V97.6348H323.001V102.254H311.722V104.295H323.409V105.648H317.329V107.668H325.257ZM309.724 111.9V110.525H323.108V116.068H321.411V111.9H309.724ZM132.57 131.213V132.609H121.204V131.213H126.038V128.377H127.714V131.213H132.57ZM122.386 138.582C122.386 136.015 124.287 134.199 126.898 134.199C129.487 134.199 131.366 136.015 131.388 138.582C131.366 141.128 129.487 142.965 126.898 142.965C124.287 142.965 122.386 141.128 122.386 138.582ZM123.976 138.582C123.954 140.301 125.222 141.515 126.898 141.504C128.573 141.515 129.83 140.301 129.841 138.582C129.83 136.885 128.573 135.649 126.898 135.639C125.222 135.649 123.954 136.885 123.976 138.582ZM132.161 137.594V136.176H135.363V128.141H137.038V147.24H135.363V137.594H132.161ZM157.18 137.594V138.99H139.778V137.594H144.096V134.897C142.571 134.307 141.712 133.34 141.712 132.051C141.712 129.806 144.29 128.517 148.479 128.506C152.636 128.517 155.215 129.806 155.225 132.051C155.215 133.329 154.366 134.296 152.862 134.897V137.594H157.18ZM141.883 143.824C141.873 141.644 144.333 140.44 148.479 140.451C152.572 140.44 155.032 141.644 155.053 143.824C155.032 146.005 152.572 147.197 148.479 147.197C144.333 147.197 141.873 146.005 141.883 143.824ZM143.452 132.051C143.441 133.447 145.353 134.253 148.479 134.264C151.573 134.253 153.496 133.447 153.507 132.051C153.496 130.676 151.573 129.838 148.479 129.838C145.353 129.838 143.441 130.676 143.452 132.051ZM143.602 143.824C143.581 145.124 145.418 145.897 148.479 145.887C151.508 145.897 153.345 145.124 153.356 143.824C153.345 142.524 151.508 141.762 148.479 141.74C145.418 141.762 143.581 142.524 143.602 143.824ZM145.772 137.594H151.186V135.349C150.381 135.499 149.478 135.574 148.479 135.574C147.48 135.574 146.578 135.499 145.772 135.359V137.594ZM173.133 128.141V136.025H176.334V137.422H173.133V147.24H171.457V128.141H173.133ZM158.244 132.609V131.213H163.164V128.377H164.84V131.213H169.609V132.609H158.244ZM159.34 138.582C159.329 136.004 161.306 134.199 164.024 134.199C166.72 134.199 168.686 136.004 168.707 138.582C168.686 141.171 166.72 142.965 164.024 142.965C161.306 142.965 159.329 141.171 159.34 138.582ZM160.951 138.582C160.941 140.322 162.24 141.547 164.024 141.525C165.785 141.547 167.074 140.322 167.096 138.582C167.074 136.853 165.785 135.606 164.024 135.617C162.24 135.606 160.941 136.853 160.951 138.582ZM183.714 133.275C183.704 136.767 186.078 140.269 188.892 141.547L187.861 142.879C185.68 141.826 183.8 139.56 182.887 136.842C182.006 139.721 180.127 142.138 177.892 143.266L176.818 141.848C179.665 140.548 182.017 136.896 182.039 133.275V129.795H183.714V133.275ZM190.976 147.283V128.141H192.673V147.283H190.976ZM203.964 129.559C203.964 131.03 203.695 132.373 203.169 133.598H206.263V128.57H207.874V138.904H206.263V134.994H202.417C201.171 136.906 199.205 138.442 196.573 139.57L195.692 138.324C199.613 136.724 201.88 134.188 202.224 130.955H196.509V129.559H203.964ZM196.638 145.93C199.044 145.06 200.548 142.976 200.548 141.139V139.85H202.159V141.139C202.138 142.857 203.051 144.641 204.855 145.683C206.692 144.533 207.627 142.589 207.638 141.139V139.85H209.271V141.139C209.271 143.115 210.721 145.124 213.181 145.93L212.343 147.176C210.431 146.499 209.088 145.156 208.433 143.545C207.853 145.103 206.692 146.585 204.909 147.348C203.04 146.617 201.88 145.188 201.321 143.577C200.634 145.135 199.312 146.478 197.497 147.176L196.638 145.93ZM210.108 139.205V128.162H211.72V139.205H210.108ZM217.961 139.613V141.848H227.5V139.613H229.198V146.982H216.286V139.613H217.961ZM214.073 138.26V136.863H231.475V138.26H214.073ZM215.061 134.156C218.466 133.694 221.914 131.686 221.914 129.258V128.355H223.655V129.258C223.644 131.61 227.124 133.727 230.487 134.156L229.864 135.51C226.91 135.069 223.998 133.565 222.785 131.428C221.571 133.576 218.649 135.069 215.706 135.51L215.061 134.156ZM217.961 145.629H227.5V143.18H217.961V145.629ZM248.394 128.141V147.24H246.719V128.141H248.394ZM233.892 142.32V130.031H235.547V140.859C238.469 140.838 241.476 140.612 244.678 139.936L244.914 141.375C241.519 142.084 238.501 142.32 235.439 142.32H233.892ZM266.345 128.141V136.025H269.245V137.443H266.345V147.24H264.648V128.141H266.345ZM251.156 141.955C254.034 139.001 255.205 135.445 255.42 131.643H251.757V130.225H257.021C256.999 134.769 255.979 139.259 252.509 142.922L251.156 141.955ZM256.634 143.244C259.62 139.871 260.512 135.628 260.673 131.643H257.622V130.225H262.263C262.252 134.758 261.586 140.032 258.009 144.189L256.634 143.244ZM272.844 141.01C272.866 138.131 273.747 137.25 275.229 136.348C276.121 135.811 276.798 134.951 276.798 133.748C276.798 132.287 275.659 131.353 274.241 131.363C273.016 131.353 271.781 132.083 271.663 133.855H269.708C269.815 131.245 271.781 129.73 274.241 129.73C276.937 129.73 278.688 131.46 278.688 133.834C278.688 135.521 277.893 136.691 276.561 137.508C275.219 138.324 274.735 139.151 274.692 141.01V141.117H272.844V141.01ZM272.458 144.232C272.436 143.48 273.081 142.857 273.833 142.857C274.595 142.857 275.219 143.48 275.208 144.232C275.219 144.995 274.595 145.618 273.833 145.629C273.081 145.618 272.436 144.995 272.458 144.232Z" fill="#111827"/>
<mask id="path-5-inside-1_937_377" fill="white">
<path d="M20 179.5H380V235.5H20V179.5Z"/>
</mask>
<path d="M20 180.5H380V178.5H20V180.5Z" fill="#DDDDDD" mask="url(#path-5-inside-1_937_377)"/>
<path d="M194.828 203.109V204.125H186.562V203.109H190.078V201.047H191.297V203.109H194.828ZM187.422 208.469C187.422 206.602 188.805 205.281 190.703 205.281C192.586 205.281 193.953 206.602 193.969 208.469C193.953 210.32 192.586 211.656 190.703 211.656C188.805 211.656 187.422 210.32 187.422 208.469ZM188.578 208.469C188.562 209.719 189.484 210.602 190.703 210.594C191.922 210.602 192.836 209.719 192.844 208.469C192.836 207.234 191.922 206.336 190.703 206.328C189.484 206.336 188.562 207.234 188.578 208.469ZM194.531 207.75V206.719H196.859V200.875H198.078V214.766H196.859V207.75H194.531ZM212.727 207.75V208.766H200.071V207.75H203.211V205.789C202.102 205.359 201.477 204.656 201.477 203.719C201.477 202.086 203.352 201.148 206.399 201.141C209.422 201.148 211.297 202.086 211.305 203.719C211.297 204.648 210.68 205.352 209.586 205.789V207.75H212.727ZM201.602 212.281C201.594 210.695 203.383 209.82 206.399 209.828C209.375 209.82 211.164 210.695 211.18 212.281C211.164 213.867 209.375 214.734 206.399 214.734C203.383 214.734 201.594 213.867 201.602 212.281ZM202.743 203.719C202.735 204.734 204.125 205.32 206.399 205.328C208.649 205.32 210.047 204.734 210.055 203.719C210.047 202.719 208.649 202.109 206.399 202.109C204.125 202.109 202.735 202.719 202.743 203.719ZM202.852 212.281C202.836 213.227 204.172 213.789 206.399 213.781C208.602 213.789 209.938 213.227 209.946 212.281C209.938 211.336 208.602 210.781 206.399 210.766C204.172 210.781 202.836 211.336 202.852 212.281ZM204.43 207.75H208.368V206.117C207.782 206.227 207.125 206.281 206.399 206.281C205.672 206.281 205.016 206.227 204.43 206.125V207.75Z" fill="#02837B"/>
<mask id="path-8-inside-2_937_377" fill="white">
<path d="M20 235.5H380V291.5H20V235.5Z"/>
</mask>
<path d="M20 236.5H380V234.5H20V236.5Z" fill="#DDDDDD" mask="url(#path-8-inside-2_937_377)"/>
<path d="M198.062 256.875V270.766H196.844V263.484H193.531V262.469H196.844V256.875H198.062ZM186.578 267.141C190.336 265.32 192.078 262.641 192.328 259.391H187.188V258.391H193.562C193.555 262.328 191.891 265.82 187.25 268.125L186.578 267.141ZM212.774 265.125V266.125H206.977V270.766H205.774V266.125H200.055V265.125H212.774ZM201.68 263.438V257.453H202.899V259.375H209.899V257.453H211.133V263.438H201.68ZM202.899 262.438H209.899V260.375H202.899V262.438Z" fill="#02837B"/>
</svg>
