<svg width="400" height="274" viewBox="0 0 400 274" fill="none" xmlns="http://www.w3.org/2000/svg">
<path d="M162.417 7.69531V9.99219H171.558V7.69531H174.136V16.2969H168.276V18.2422H176.644V20.3516H157.331V18.2422H165.651V16.2969H159.839V7.69531H162.417ZM162.417 14.2109H171.558V12.0078H162.417V14.2109ZM174.464 25.5547V27.6641H159.722V21.7109H162.323V25.5547H174.464ZM195.242 6.92188V22.2266H192.617V6.92188H195.242ZM195.828 25.5547V27.6641H181.226V20.6797H183.851V25.5547H195.828ZM183.687 8.30469C186.898 8.30469 189.382 10.5312 189.382 13.6016C189.382 16.7422 186.898 18.9219 183.687 18.9219C180.453 18.9219 177.968 16.7422 177.968 13.6016C177.968 10.5312 180.453 8.30469 183.687 8.30469ZM183.687 10.5781C181.882 10.5781 180.5 11.7734 180.523 13.6016C180.5 15.4766 181.882 16.6484 183.687 16.6484C185.445 16.6484 186.828 15.4766 186.828 13.6016C186.828 11.7734 185.445 10.5781 183.687 10.5781ZM220.719 6.92188V22.2266H218.094V6.92188H220.719ZM221.305 25.5547V27.6641H206.704V20.6797H209.329V25.5547H221.305ZM209.165 8.30469C212.375 8.30469 214.86 10.5312 214.86 13.6016C214.86 16.7422 212.375 18.9219 209.165 18.9219C205.93 18.9219 203.446 16.7422 203.446 13.6016C203.446 10.5312 205.93 8.30469 209.165 8.30469ZM209.165 10.5781C207.36 10.5781 205.977 11.7734 206 13.6016C205.977 15.4766 207.36 16.6484 209.165 16.6484C210.922 16.6484 212.305 15.4766 212.305 13.6016C212.305 11.7734 210.922 10.5781 209.165 10.5781ZM242.645 16.7656V18.875H223.333V16.7656H242.645ZM232.966 20.2812C237.536 20.2812 240.278 21.7109 240.302 24.1719C240.278 26.6562 237.536 28.0625 232.966 28.0625C228.349 28.0625 225.583 26.6562 225.583 24.1719C225.583 21.7109 228.349 20.2812 232.966 20.2812ZM232.966 22.3203C229.872 22.3203 228.208 22.9531 228.231 24.1719C228.208 25.3906 229.872 26.0234 232.966 26.0234C235.989 26.0234 237.677 25.3906 237.7 24.1719C237.677 22.9531 235.989 22.3203 232.966 22.3203ZM240.911 7.90625V10.0391H234.794C235.181 11.7969 237.724 13.3789 241.731 13.7656L240.817 15.8281C236.974 15.418 234.114 13.9062 232.966 11.75C231.817 13.8945 229.005 15.418 225.161 15.8281L224.27 13.7656C228.196 13.3789 230.751 11.7969 231.161 10.0391H225.091V7.90625H240.911Z" fill="white"/>
<path d="M113.819 64.5566C113.819 67.5918 115.603 70.791 118.597 72.042L117.346 73.8467C115.152 72.9033 113.552 70.9551 112.711 68.5967C111.85 71.1396 110.23 73.2725 108.056 74.2979L106.744 72.5137C109.676 71.1602 111.501 67.7148 111.501 64.5566V62.998H107.42V61.1113H117.879V62.998H113.819V64.5566ZM122.247 59.2861V77.8252H119.951V59.2861H122.247ZM141.474 68.5557V70.3809H134.317V73.7852H132.061V70.3809H124.535V68.5557H141.474ZM139.3 60.127V66.833H126.688V60.127H139.3ZM128.903 61.9111V65.0488H137.044V61.9111H128.903ZM139.608 75.6104V77.4561H126.585V72.083H128.862V75.6104H139.608ZM150.713 60.332C154.63 60.332 157.624 62.4033 157.624 65.5615C157.624 68.7607 154.63 70.832 150.713 70.832C146.817 70.832 143.823 68.7607 143.843 65.5615C143.823 62.4033 146.817 60.332 150.713 60.332ZM150.713 62.1777C148.027 62.1572 146.037 63.5107 146.037 65.5615C146.037 67.6533 148.027 68.9658 150.713 68.9658C153.42 68.9658 155.389 67.6533 155.389 65.5615C155.389 63.5107 153.42 62.1572 150.713 62.1777ZM159.224 73.6211V75.4873H142.284V73.6211H159.224ZM176.953 73.7852V75.6719H160.014V73.7852H167.315V70.7705H162.024V64.7002H172.688V62.4033H161.983V60.5576H174.944V66.5049H164.3V68.9043H175.374V70.7705H169.571V73.7852H176.953ZM197.749 59.3066V72.6982H195.452V59.3066H197.749ZM198.262 75.6104V77.4561H185.485V71.3447H187.782V75.6104H198.262ZM187.639 60.5166C190.448 60.5166 192.622 62.4648 192.622 65.1514C192.622 67.8994 190.448 69.8066 187.639 69.8066C184.809 69.8066 182.635 67.8994 182.635 65.1514C182.635 62.4648 184.809 60.5166 187.639 60.5166ZM187.639 62.5059C186.06 62.5059 184.85 63.5518 184.87 65.1514C184.85 66.792 186.06 67.8174 187.639 67.8174C189.177 67.8174 190.387 66.792 190.387 65.1514C190.387 63.5518 189.177 62.5059 187.639 62.5059ZM216.935 67.9199V69.7656H200.036V67.9199H216.935ZM208.465 70.9961C212.464 70.9961 214.863 72.2471 214.884 74.4004C214.863 76.5742 212.464 77.8047 208.465 77.8047C204.425 77.8047 202.005 76.5742 202.005 74.4004C202.005 72.2471 204.425 70.9961 208.465 70.9961ZM208.465 72.7803C205.758 72.7803 204.302 73.334 204.322 74.4004C204.302 75.4668 205.758 76.0205 208.465 76.0205C211.11 76.0205 212.587 75.4668 212.607 74.4004C212.587 73.334 211.11 72.7803 208.465 72.7803ZM215.417 60.168V62.0342H210.064C210.403 63.5723 212.628 64.9565 216.135 65.2949L215.335 67.0996C211.972 66.7407 209.47 65.418 208.465 63.5312C207.46 65.4077 204.999 66.7407 201.636 67.0996L200.856 65.2949C204.291 64.9565 206.527 63.5723 206.886 62.0342H201.574V60.168H215.417ZM226.809 62.2393V64.0645H217.724V62.2393H221.17V59.8193H223.426V62.2393H226.809ZM222.298 65.0488C224.656 65.0488 226.338 66.833 226.338 69.3555C226.338 71.9189 224.656 73.7236 222.298 73.7236C219.96 73.7236 218.237 71.9189 218.258 69.3555C218.237 66.833 219.96 65.0488 222.298 65.0488ZM222.298 66.9355C221.088 66.9355 220.247 67.8994 220.267 69.3555C220.247 70.8525 221.088 71.7959 222.298 71.7754C223.487 71.7959 224.328 70.8525 224.328 69.3555C224.328 67.8994 223.487 66.9355 222.298 66.9355ZM233.7 59.2861V77.8252H231.526V68.7607H229.722V76.9844H227.589V59.6758H229.722V66.915H231.526V59.2861H233.7ZM252.393 69.6221V71.4678H245.031V77.8047H242.775V71.4678H235.495V69.6221H252.393ZM250.835 60.332V62.1367H245.277C245.41 64.167 247.851 66.1152 251.512 66.5869L250.691 68.3711C247.533 67.9302 245.072 66.4844 243.944 64.4746C242.816 66.4844 240.355 67.9302 237.238 68.3711L236.377 66.5869C240.017 66.1152 242.457 64.167 242.632 62.1367H237.054V60.332H250.835ZM259.008 64.1465C259.008 67.1406 260.053 70.2578 262.555 71.8369L261.304 73.5801C259.633 72.5752 258.546 70.8423 257.941 68.8018C257.264 71.0474 256.075 72.9443 254.332 74.0107L252.917 72.3086C255.603 70.668 256.813 67.4072 256.813 64.249V60.9268H259.008V64.1465ZM269.22 59.2861V77.8252H267.026V59.2861H269.22ZM265.365 59.6143V76.9229H263.212V67.5508H260.566V65.6641H263.212V59.6143H265.365ZM287.893 73.7031V75.5693H270.954V73.7031H274.871V69.0068C273.394 68.166 272.502 66.8433 272.512 65.1924C272.492 62.2393 275.404 60.291 279.382 60.291C283.381 60.291 286.294 62.2393 286.294 65.1924C286.294 66.8125 285.432 68.1147 283.997 68.9658V73.7031H287.893ZM279.382 62.0957C276.614 62.0957 274.727 63.2646 274.748 65.1924C274.727 67.0996 276.614 68.2891 279.382 68.2891C282.151 68.2891 284.058 67.0996 284.058 65.1924C284.058 63.2646 282.151 62.0957 279.382 62.0957ZM277.127 73.7031H281.679V69.8271C280.972 69.9912 280.203 70.0732 279.382 70.0732C278.583 70.0732 277.824 69.9912 277.127 69.8477V73.7031ZM290.939 76.1641C290.057 76.1641 289.339 75.4463 289.339 74.5645C289.339 73.7031 290.057 72.9854 290.939 72.9854C291.78 72.9854 292.518 73.7031 292.518 74.5645C292.518 75.4463 291.78 76.1641 290.939 76.1641Z" fill="white"/>
<rect x="100.5" y="103.5" width="199" height="36" rx="18" fill="#6B7280"/>
<rect x="100.5" y="103.5" width="199" height="36" rx="18" stroke="white"/>
<path d="M191.285 116.785C191.285 118.279 192.692 119.562 194.994 120.055L194.309 121.355C192.498 120.951 191.171 120.046 190.477 118.842C189.8 120.151 188.447 121.136 186.575 121.566L185.871 120.266C188.192 119.773 189.616 118.35 189.616 116.785H186.223V115.467H189.616V113.779H191.285V115.467H194.66V116.785H191.285ZM198.299 113.762V129.494H196.647V113.762H198.299ZM185.186 122.533C188.174 122.533 192.129 122.516 195.557 122.076L195.68 123.289C194.239 123.526 192.753 123.676 191.303 123.764V129.02H189.633V123.852C188.121 123.913 186.68 123.922 185.414 123.922L185.186 122.533ZM214.814 126.119V127.49H200.4V126.119H206.711V122.375H208.363V126.119H214.814ZM208.398 115.941C208.398 118.438 211.14 120.775 214.181 121.285L213.461 122.656C210.912 122.146 208.565 120.573 207.519 118.402C206.482 120.564 204.162 122.164 201.631 122.656L200.892 121.285C203.916 120.775 206.64 118.438 206.64 115.941V114.746H208.398V115.941Z" fill="white"/>
<rect x="168" y="210" width="64" height="64" rx="32" fill="#9CA3AF"/>
<path d="M196.167 258.402C195.849 258.402 195.53 258.29 195.273 258.063C194.71 257.568 194.656 256.711 195.151 256.148C198.885 251.898 200.499 246.273 199.584 240.708C199.462 239.969 199.963 239.271 200.702 239.149C201.441 239.027 202.139 239.529 202.261 240.268C203.308 246.635 201.461 253.078 197.191 257.938C196.923 258.243 196.547 258.398 196.171 258.398L196.167 258.402Z" fill="#F3F4F6"/>
<path d="M191.747 256.552C191.385 256.552 191.025 256.406 190.758 256.121C190.246 255.576 190.276 254.718 190.822 254.206C193.821 251.4 195.479 247.445 195.36 243.362C195.34 242.613 195.929 241.989 196.675 241.969C197.434 241.959 198.047 242.538 198.068 243.284C198.207 248.147 196.238 252.847 192.672 256.186C192.412 256.43 192.079 256.552 191.747 256.552Z" fill="#F3F4F6"/>
<path d="M205.66 245.062C204.915 245.062 204.308 244.458 204.305 243.709C204.301 242.191 204.145 240.659 203.84 239.158C203.834 239.124 203.827 239.09 203.823 239.056C203.64 238.28 203.179 237.616 202.512 237.172C201.817 236.711 200.983 236.545 200.167 236.711C198.94 236.959 197.981 237.911 197.723 239.138C197.571 239.87 196.852 240.341 196.12 240.188C195.388 240.036 194.917 239.317 195.07 238.585C195.548 236.298 197.337 234.518 199.631 234.054C201.16 233.746 202.715 234.054 204.013 234.915C205.311 235.776 206.196 237.094 206.504 238.623C206.514 238.663 206.518 238.707 206.524 238.748C206.846 240.385 207.012 242.052 207.016 243.706C207.016 244.455 206.413 245.062 205.664 245.065H205.66V245.062Z" fill="#F3F4F6"/>
<path d="M201.352 259.001C201.088 259.001 200.824 258.923 200.59 258.764C199.973 258.34 199.814 257.496 200.237 256.879C202.094 254.165 203.379 251.027 203.952 247.807C204.08 247.068 204.785 246.577 205.524 246.709C206.259 246.841 206.751 247.543 206.622 248.281C205.985 251.877 204.551 255.381 202.477 258.411C202.216 258.794 201.789 259.001 201.359 259.001H201.352Z" fill="#F3F4F6"/>
<path d="M188.139 253.77C187.746 253.77 187.356 253.601 187.088 253.275C186.614 252.696 186.699 251.842 187.278 251.367C188.593 250.29 189.61 248.883 190.226 247.301C190.498 246.603 191.284 246.257 191.982 246.528C192.68 246.799 193.026 247.585 192.755 248.283C191.972 250.303 190.67 252.096 188.996 253.465C188.745 253.672 188.44 253.774 188.139 253.774V253.77Z" fill="#F3F4F6"/>
<path d="M209.747 249.822C209.672 249.822 209.601 249.815 209.523 249.805C208.785 249.683 208.283 248.985 208.405 248.246C208.951 244.942 208.886 241.587 208.219 238.276C208.215 238.255 208.212 238.238 208.208 238.218C207.798 236.256 206.653 234.565 204.979 233.453C203.291 232.331 201.264 231.935 199.278 232.335C197.293 232.735 195.578 233.887 194.456 235.575C193.361 237.218 192.958 239.184 193.307 241.122C193.324 241.173 193.338 241.221 193.348 241.275C193.463 241.847 193.541 242.434 193.575 243.017C193.619 243.766 193.05 244.406 192.304 244.45C191.562 244.494 190.914 243.925 190.87 243.179C190.847 242.776 190.796 242.369 190.721 241.966C190.704 241.915 190.691 241.864 190.681 241.814C189.559 236.246 193.175 230.803 198.743 229.678C201.441 229.132 204.189 229.674 206.48 231.196C208.771 232.718 210.333 235.042 210.879 237.74C210.882 237.76 210.886 237.784 210.889 237.804C211.611 241.42 211.675 245.081 211.082 248.69C210.974 249.354 210.398 249.825 209.747 249.825V249.822Z" fill="#F3F4F6"/>
<path d="M207.195 257.821C206.995 257.821 206.795 257.777 206.602 257.682C205.927 257.353 205.649 256.543 205.978 255.869C206.52 254.754 206.995 253.592 207.381 252.419C207.615 251.707 208.384 251.321 209.092 251.558C209.804 251.792 210.19 252.561 209.953 253.27C209.526 254.557 209.008 255.835 208.411 257.058C208.177 257.54 207.693 257.821 207.191 257.821H207.195Z" fill="#F3F4F6"/>
<path d="M185.394 250.239C185.008 250.239 184.628 250.076 184.361 249.761C183.876 249.189 183.947 248.335 184.52 247.85C185.981 246.61 186.672 244.691 186.336 242.814C186.326 242.777 186.316 242.736 186.306 242.695C186.15 241.926 186.055 241.143 186.025 240.364C185.994 239.615 186.577 238.984 187.323 238.954C188.072 238.93 188.702 239.506 188.732 240.252C188.756 240.845 188.827 241.445 188.939 242.031C188.953 242.072 188.963 242.116 188.97 242.156C189.553 245.04 188.516 248.016 186.269 249.917C186.014 250.134 185.703 250.239 185.394 250.239Z" fill="#F3F4F6"/>
<path d="M214.235 240.214C213.574 240.214 212.994 239.729 212.896 239.058C212.818 238.533 212.726 237.998 212.621 237.469C212.615 237.442 212.608 237.415 212.604 237.391C211.967 234.233 210.141 231.515 207.457 229.732C204.776 227.949 201.56 227.319 198.401 227.956C194.209 228.803 190.851 231.715 189.417 235.751C189.166 236.456 188.39 236.825 187.685 236.574C186.98 236.324 186.611 235.548 186.862 234.843C188.59 229.976 192.806 226.316 197.866 225.296C201.733 224.516 205.671 225.289 208.958 227.472C212.218 229.637 214.448 232.938 215.244 236.768C215.251 236.795 215.258 236.822 215.265 236.852C215.387 237.452 215.492 238.059 215.58 238.659C215.688 239.401 215.177 240.089 214.438 240.197C214.37 240.207 214.302 240.211 214.238 240.211L214.235 240.214Z" fill="#F3F4F6"/>
<path d="M213.475 253.722C213.36 253.722 213.242 253.708 213.126 253.674C212.405 253.481 211.974 252.739 212.167 252.014C212.865 249.394 213.228 246.696 213.248 243.992C213.252 243.246 213.858 242.646 214.604 242.646H214.614C215.363 242.653 215.966 243.263 215.96 244.012C215.939 246.947 215.546 249.875 214.787 252.715C214.624 253.322 214.079 253.722 213.479 253.722H213.475Z" fill="#F3F4F6"/>
</svg>
