<svg width="400" height="292" viewBox="0 0 400 292" fill="none" xmlns="http://www.w3.org/2000/svg">
<rect x="20" y="0.5" width="360" height="291" rx="2" fill="white"/>
<mask id="mask0_937_378" style="mask-type:alpha" maskUnits="userSpaceOnUse" x="188" y="20" width="24" height="25">
<rect x="188" y="20.5" width="24" height="24" fill="#D9D9D9"/>
</mask>
<g mask="url(#mask0_937_378)">
<path d="M197.077 34.3463H206.423L203.319 30.2693L200.942 33.3077L199.373 31.3655L197.077 34.3463ZM196.058 38C195.553 38 195.125 37.825 194.775 37.475C194.425 37.125 194.25 36.6974 194.25 36.1923V24.8077C194.25 24.3026 194.425 23.875 194.775 23.525C195.125 23.175 195.553 23 196.058 23H207.442C207.947 23 208.375 23.175 208.725 23.525C209.075 23.875 209.25 24.3026 209.25 24.8077V36.1923C209.25 36.6974 209.075 37.125 208.725 37.475C208.375 37.825 207.947 38 207.442 38H196.058ZM196.058 36.5H207.442C207.519 36.5 207.59 36.4679 207.654 36.4038C207.718 36.3398 207.75 36.2692 207.75 36.1923V24.8077C207.75 24.7307 207.718 24.6602 207.654 24.5962C207.59 24.5321 207.519 24.5 207.442 24.5H196.058C195.981 24.5 195.91 24.5321 195.846 24.5962C195.782 24.6602 195.75 24.7307 195.75 24.8077V36.1923C195.75 36.2692 195.782 36.3398 195.846 36.4038C195.91 36.4679 195.981 36.5 196.058 36.5ZM192.558 41.5C192.053 41.5 191.625 41.325 191.275 40.975C190.925 40.625 190.75 40.1974 190.75 39.6923V26.8077H192.25V39.6923C192.25 39.7693 192.282 39.8398 192.346 39.9038C192.41 39.9679 192.481 40 192.558 40H205.442V41.5H192.558ZM196.058 24.5H207.442C207.519 24.5 207.59 24.5321 207.654 24.5962C207.718 24.6602 207.75 24.7307 207.75 24.8077V36.1923C207.75 36.2692 207.718 36.3398 207.654 36.4038C207.59 36.4679 207.519 36.5 207.442 36.5H196.058C195.981 36.5 195.91 36.4679 195.846 36.4038C195.782 36.3398 195.75 36.2692 195.75 36.1923V24.8077C195.75 24.7307 195.782 24.6602 195.846 24.5962C195.91 24.5321 195.981 24.5 196.058 24.5Z" fill="#02837B"/>
</g>
<path d="M111.084 81.0938V83.0488H93.3382V81.0938H100.987V76.8613H95.2933V67.4941H109.043V76.8613H103.35V81.0938H111.084ZM97.6351 69.4062V74.9922H106.68V69.4062H97.6351ZM127.123 65.9902V73.3809H130.109V75.4004H127.123V85.4121H124.738V65.9902H127.123ZM114.963 67.5801V72.4355H119.539V67.5801H121.924V80.8574H112.599V67.5801H114.963ZM114.963 78.9023H119.539V74.3047H114.963V78.9023ZM135.986 66.6133C138.929 66.6133 141.12 68.4395 141.142 70.9961C141.12 73.5742 138.929 75.3789 135.986 75.3789C133.021 75.3789 130.829 73.5742 130.829 70.9961C130.829 68.4395 133.021 66.6133 135.986 66.6133ZM135.986 68.5898C134.353 68.5898 133.15 69.5137 133.15 70.9961C133.15 72.5 134.353 73.4453 135.986 73.4453C137.618 73.4453 138.822 72.5 138.822 70.9961C138.822 69.5137 137.618 68.5898 135.986 68.5898ZM146.663 65.9902V75.8086H144.257V65.9902H146.663ZM146.663 76.6465V81.7168H136.157V83.2852H147.243V85.1758H133.816V79.9551H144.279V78.5156H133.773V76.6465H146.663ZM170.018 66.0117V80.1914H167.611V66.0117H170.018ZM170.555 83.0918V85.0254H157.17V78.8379H159.576V83.0918H170.555ZM161.08 68.9766C161.08 71.6836 162.67 74.2402 165.742 75.2715L164.518 77.1621C162.305 76.3887 160.726 74.8418 159.877 72.8652C158.996 74.9814 157.396 76.6787 155.108 77.5059L153.861 75.6152C157.02 74.498 158.609 71.7695 158.609 68.9766V67.0859H161.08V68.9766ZM190.138 76.0449V77.957H182.64V81.3086H180.277V77.957H172.392V76.0449H190.138ZM188.183 83.0918V85.0254H174.541V79.6758H176.904V83.0918H188.183ZM177.076 66.6133V68.8047H185.455V66.6133H187.818V74.5195H174.712V66.6133H177.076ZM177.076 72.6289H185.455V70.5879H177.076V72.6289ZM208.69 75.0352V76.9688H190.987V75.0352H208.69ZM199.817 78.2578C204.007 78.2578 206.521 79.5684 206.542 81.8242C206.521 84.1016 204.007 85.3906 199.817 85.3906C195.585 85.3906 193.05 84.1016 193.05 81.8242C193.05 79.5684 195.585 78.2578 199.817 78.2578ZM199.817 80.127C196.981 80.127 195.456 80.707 195.478 81.8242C195.456 82.9414 196.981 83.5215 199.817 83.5215C202.589 83.5215 204.136 82.9414 204.157 81.8242C204.136 80.707 202.589 80.127 199.817 80.127ZM207.101 66.9141V68.8691H201.493C201.848 70.4805 204.179 71.9307 207.853 72.2852L207.015 74.1758C203.491 73.7998 200.87 72.4141 199.817 70.4375C198.765 72.4033 196.187 73.7998 192.663 74.1758L191.847 72.2852C195.445 71.9307 197.787 70.4805 198.163 68.8691H192.599V66.9141H207.101ZM226.061 66.1406V85.2402H224.428V66.1406H226.061ZM222.215 66.5488V84.2734H220.604V74.9922H218.155C217.972 78.709 216.393 81.0293 214.03 81.0293C211.538 81.0293 209.926 78.4512 209.926 74.3906C209.926 70.3301 211.538 67.752 214.03 67.752C216.35 67.752 217.918 69.9971 218.133 73.5957H220.604V66.5488H222.215ZM214.03 69.3418C212.483 69.3418 211.495 71.2754 211.516 74.3906C211.495 77.4844 212.483 79.4395 214.03 79.418C215.577 79.4395 216.565 77.4844 216.565 74.3906C216.565 71.2754 215.577 69.3418 214.03 69.3418ZM234.988 71.2754C234.988 74.7344 237.201 78.2148 239.973 79.4824L238.963 80.8574C236.793 79.7402 234.999 77.4521 234.15 74.7344C233.302 77.5918 231.508 80.041 229.338 81.2012L228.242 79.8477C231.035 78.4727 233.269 74.7988 233.269 71.2754V67.7949H234.988V71.2754ZM244.098 66.1406V85.2832H242.422V74.0469H237.889V72.6719H242.422V66.1406H244.098ZM267.71 66.1406V85.2402H266.012V66.1406H267.71ZM262.059 68.2246C262.038 73.7246 259.481 78.5801 253.079 81.6523L252.155 80.2773C257.322 77.8281 259.954 74.165 260.341 69.5996H253.036V68.2246H262.059ZM286.283 66.1406V85.2402H284.586V66.1406H286.283ZM280.633 68.2246C280.612 73.7246 278.055 78.5801 271.653 81.6523L270.729 80.2773C275.896 77.8281 278.528 74.165 278.914 69.5996H271.61V68.2246H280.633ZM295.318 67.5371C298.326 67.5371 300.453 69.3633 300.453 72.0273C300.453 74.6914 298.326 76.5176 295.318 76.5176C292.31 76.5176 290.14 74.6914 290.162 72.0273C290.14 69.3633 292.31 67.5371 295.318 67.5371ZM295.318 69.0195C293.277 69.0195 291.795 70.2441 291.816 72.0273C291.795 73.8105 293.277 75.0352 295.318 75.0352C297.338 75.0352 298.798 73.8105 298.798 72.0273C298.798 70.2441 297.338 69.0195 295.318 69.0195ZM304.728 66.1406V85.2832H303.052V66.1406H304.728ZM289.173 79.6328C292.697 79.6328 297.552 79.6113 301.785 78.9883L301.914 80.2344C297.552 81.0508 292.847 81.0723 289.41 81.0723L289.173 79.6328ZM81.1454 102.275C81.1454 105.648 83.3798 109.107 86.0868 110.439L85.0556 111.793C82.9501 110.687 81.1884 108.431 80.3505 105.777C79.4911 108.603 77.6864 111.009 75.538 112.158L74.4638 110.805C77.2568 109.43 79.4697 105.756 79.4911 102.275V98.7949H81.1454V102.275ZM89.5243 97.1406V104.896H92.7255V106.357H89.5243V116.24H87.8486V97.1406H89.5243ZM100.192 101.244C100.192 103.822 102.233 106.143 105.09 107.045L104.231 108.398C102.007 107.646 100.235 106.078 99.3754 104.059C98.5375 106.239 96.7435 107.958 94.4769 108.785L93.5961 107.432C96.4535 106.422 98.4945 103.951 98.4945 101.244V100.127H94.0257V98.752H104.596V100.127H100.192V101.244ZM109.086 97.1621V111.17H107.411V97.1621H109.086ZM109.688 114.414V115.832H96.7543V109.838H98.43V114.414H109.688ZM122.482 99.2676V100.256C122.461 101.76 122.461 104.295 121.924 107.84L120.226 107.689C120.742 104.488 120.785 102.168 120.785 100.643H112.771V99.2676H122.482ZM117.476 104.725V110.525C119.593 110.45 121.762 110.311 123.75 110.074L123.836 111.342C119.818 111.965 115.328 112.051 111.912 112.029L111.697 110.633C112.954 110.622 114.35 110.611 115.822 110.568V104.725H117.476ZM126.629 97.1406V105.133H129.722V106.594H126.629V116.24H124.953V97.1406H126.629ZM152.969 106.594V107.947H135.546V106.594H143.43V104.359H137.758V98.043H150.799V99.3965H139.413V102.984H150.928V104.359H145.063V106.594H152.969ZM144.247 109.344C148.35 109.344 150.799 110.59 150.821 112.781C150.799 114.994 148.35 116.219 144.247 116.24C140.122 116.219 137.651 114.994 137.651 112.781C137.651 110.59 140.122 109.344 144.247 109.344ZM144.247 110.676C141.174 110.676 139.348 111.471 139.37 112.781C139.348 114.113 141.174 114.887 144.247 114.887C147.276 114.887 149.124 114.113 149.124 112.781C149.124 111.471 147.276 110.676 144.247 110.676ZM159.383 98.3008C160.994 98.29 162.369 98.8916 163.25 99.9121H168.256V97.1406H169.953V108.463H168.256V105.734H163.272C162.369 106.755 160.994 107.356 159.383 107.346C156.526 107.367 154.42 105.498 154.42 102.834C154.42 100.148 156.526 98.2793 159.383 98.3008ZM159.383 99.7617C157.428 99.7402 156.031 101.029 156.031 102.834C156.031 104.617 157.428 105.906 159.383 105.906C161.274 105.906 162.692 104.617 162.692 102.834C162.692 101.029 161.274 99.7402 159.383 99.7617ZM163.615 108.914C167.568 108.914 170.018 110.246 170.018 112.545C170.018 114.865 167.568 116.197 163.615 116.197C159.641 116.197 157.213 114.865 157.213 112.545C157.213 110.246 159.641 108.914 163.615 108.914ZM163.615 110.225C160.693 110.225 158.867 111.105 158.867 112.545C158.867 113.984 160.693 114.844 163.615 114.844C166.559 114.844 168.363 113.984 168.363 112.545C168.363 111.105 166.559 110.225 163.615 110.225ZM164.067 101.287C164.228 101.76 164.324 102.275 164.324 102.834C164.324 103.371 164.228 103.876 164.067 104.338H168.256V101.287H164.067ZM179.074 100.234C179.074 102.834 181.05 105.219 183.822 106.164L182.898 107.496C180.782 106.723 179.117 105.144 178.279 103.156C177.462 105.401 175.765 107.174 173.531 108.033L172.628 106.68C175.486 105.605 177.398 103.049 177.419 100.105V98.1289H179.074V100.234ZM187.625 97.1406V102.125H190.503V103.543H187.625V108.764H185.949V97.1406H187.625ZM181.502 109.258C185.433 109.258 187.796 110.525 187.796 112.717C187.796 114.951 185.433 116.197 181.502 116.197C177.57 116.197 175.164 114.951 175.164 112.717C175.164 110.525 177.57 109.258 181.502 109.258ZM181.502 110.611C178.623 110.611 176.839 111.406 176.861 112.717C176.839 114.07 178.623 114.844 181.502 114.865C184.402 114.844 186.164 114.07 186.164 112.717C186.164 111.406 184.402 110.611 181.502 110.611ZM207.638 97.1406V116.24H206.005V97.1406H207.638ZM203.792 97.5488V115.273H202.181V105.992H199.731C199.549 109.709 197.97 112.029 195.606 112.029C193.114 112.029 191.503 109.451 191.503 105.391C191.503 101.33 193.114 98.752 195.606 98.752C197.927 98.752 199.495 100.997 199.71 104.596H202.181V97.5488H203.792ZM195.606 100.342C194.06 100.342 193.071 102.275 193.093 105.391C193.071 108.484 194.06 110.439 195.606 110.418C197.153 110.439 198.142 108.484 198.142 105.391C198.142 102.275 197.153 100.342 195.606 100.342ZM219.498 98.3438C222.012 98.3438 223.881 100.213 223.881 102.855C223.881 105.52 222.012 107.324 219.498 107.324C216.941 107.324 215.115 105.52 215.137 102.855C215.115 100.213 216.941 98.3438 219.498 98.3438ZM219.498 99.8047C217.865 99.8047 216.641 101.094 216.662 102.855C216.641 104.617 217.865 105.906 219.498 105.906C221.131 105.906 222.312 104.617 222.334 102.855C222.312 101.094 221.131 99.8047 219.498 99.8047ZM231.142 97.1621V108.527H229.531V103.479H226.996V108.398H225.406V97.5273H226.996V102.082H229.531V97.1621H231.142ZM231.142 109.602V116.24H229.488V110.955H218.273V109.602H231.142ZM239.167 102.576C239.167 105.605 240.65 108.893 243.185 110.396L242.218 111.707C240.381 110.59 239.06 108.549 238.394 106.229C237.685 108.764 236.267 110.944 234.355 112.115L233.281 110.848C235.923 109.301 237.535 105.906 237.535 102.641V98.9453H239.167V102.576ZM249.867 97.1406V116.24H248.234V97.1406H249.867ZM245.913 97.5488V115.273H244.324V105.434H241.079V103.994H244.324V97.5488H245.913ZM261.587 99.9551C261.587 103.221 265.325 106.143 268.655 106.766L267.882 108.184C265.003 107.518 261.963 105.466 260.727 102.641C259.492 105.455 256.463 107.507 253.573 108.184L252.8 106.766C256.108 106.121 259.825 103.242 259.825 99.9551V98.4941H261.587V99.9551ZM269.557 112.244V113.641H252.069V112.244H269.557ZM285.424 97.1406V105.025H288.625V106.422H285.424V116.24H283.748V97.1406H285.424ZM281.901 100.213V101.609H270.535V100.213H275.455V97.377H277.131V100.213H281.901ZM276.315 103.199C279.022 103.199 280.977 105.004 280.998 107.582C280.977 110.16 279.022 111.965 276.315 111.965C273.586 111.965 271.61 110.16 271.631 107.582C271.61 105.004 273.586 103.199 276.315 103.199ZM276.315 104.617C274.531 104.617 273.221 105.863 273.242 107.582C273.221 109.322 274.531 110.547 276.315 110.525C278.076 110.547 279.365 109.322 279.387 107.582C279.365 105.863 278.076 104.617 276.315 104.617ZM304.642 106.1V107.475H298.734V112.416H306.705V113.834H289.216V112.416H297.08V107.475H291.451V98.709H304.449V100.084H293.148V106.1H304.642ZM325.257 107.668V109.064H307.769V107.668H315.675V105.648H310.046V100.986H321.304V99.0098H309.982V97.6348H323.001V102.254H311.722V104.295H323.409V105.648H317.329V107.668H325.257ZM323.108 110.525V116.068H321.411V111.9H309.724V110.525H323.108ZM132.57 131.213V132.609H121.204V131.213H126.038V128.377H127.714V131.213H132.57ZM126.898 134.199C129.476 134.199 131.366 136.025 131.388 138.582C131.366 141.117 129.476 142.965 126.898 142.965C124.298 142.965 122.386 141.117 122.386 138.582C122.386 136.025 124.298 134.199 126.898 134.199ZM126.898 135.639C125.222 135.66 123.954 136.885 123.976 138.582C123.954 140.301 125.222 141.525 126.898 141.504C128.573 141.525 129.841 140.301 129.841 138.582C129.841 136.885 128.573 135.66 126.898 135.639ZM137.038 128.141V147.24H135.363V137.594H132.161V136.176H135.363V128.141H137.038ZM157.18 137.594V138.99H139.778V137.594H144.096V134.908C142.571 134.317 141.712 133.34 141.712 132.051C141.712 129.795 144.29 128.506 148.479 128.506C152.626 128.506 155.225 129.795 155.225 132.051C155.225 133.329 154.377 134.307 152.862 134.887V137.594H157.18ZM148.479 140.451C152.583 140.451 155.032 141.633 155.053 143.824C155.032 145.994 152.583 147.197 148.479 147.197C144.333 147.197 141.883 145.994 141.883 143.824C141.883 141.633 144.333 140.451 148.479 140.451ZM148.479 141.74C145.407 141.762 143.581 142.514 143.602 143.824C143.581 145.113 145.407 145.887 148.479 145.887C151.508 145.887 153.356 145.113 153.356 143.824C153.356 142.514 151.508 141.762 148.479 141.74ZM148.479 129.838C145.364 129.838 143.43 130.676 143.452 132.051C143.43 133.447 145.364 134.264 148.479 134.264C151.573 134.264 153.507 133.447 153.507 132.051C153.507 130.676 151.573 129.838 148.479 129.838ZM145.772 137.594H151.186V135.359C150.381 135.499 149.478 135.574 148.479 135.574C147.48 135.574 146.578 135.499 145.772 135.359V137.594ZM173.133 128.141V136.025H176.334V137.422H173.133V147.24H171.457V128.141H173.133ZM169.609 131.213V132.609H158.244V131.213H163.164V128.377H164.84V131.213H169.609ZM164.024 134.199C166.731 134.199 168.686 136.004 168.707 138.582C168.686 141.16 166.731 142.965 164.024 142.965C161.295 142.965 159.318 141.16 159.34 138.582C159.318 136.004 161.295 134.199 164.024 134.199ZM164.024 135.617C162.24 135.617 160.93 136.863 160.951 138.582C160.93 140.322 162.24 141.547 164.024 141.525C165.785 141.547 167.074 140.322 167.096 138.582C167.074 136.863 165.785 135.617 164.024 135.617ZM183.714 133.275C183.693 136.756 186.078 140.279 188.892 141.547L187.861 142.879C185.691 141.815 183.811 139.57 182.898 136.842C182.006 139.731 180.127 142.138 177.892 143.266L176.818 141.848C179.654 140.537 182.017 136.906 182.039 133.275V129.795H183.714V133.275ZM192.673 128.141V147.283H190.976V128.141H192.673ZM203.964 129.559C203.964 131.03 203.695 132.373 203.169 133.598H206.263V128.57H207.874V138.904H206.263V134.994H202.417C201.182 136.906 199.205 138.442 196.573 139.57L195.692 138.324C199.603 136.724 201.88 134.199 202.224 130.955H196.509V129.559H203.964ZM211.72 128.162V139.205H210.108V128.162H211.72ZM202.159 141.139C202.138 142.857 203.051 144.63 204.866 145.672C206.692 144.533 207.616 142.6 207.638 141.139V139.85H209.271V141.139C209.271 143.115 210.731 145.113 213.181 145.93L212.343 147.176C210.431 146.499 209.088 145.156 208.433 143.523C207.842 145.092 206.692 146.585 204.909 147.348C203.04 146.606 201.88 145.188 201.321 143.566C200.634 145.135 199.312 146.488 197.497 147.176L196.638 145.93C199.044 145.049 200.548 142.986 200.548 141.139V139.85H202.159V141.139ZM217.961 139.613V141.848H227.5V139.613H229.198V146.982H216.286V139.613H217.961ZM217.961 145.629H227.5V143.18H217.961V145.629ZM231.475 136.863V138.26H214.073V136.863H231.475ZM223.655 129.258C223.655 131.621 227.135 133.727 230.487 134.156L229.864 135.51C226.899 135.069 223.998 133.555 222.795 131.406C221.571 133.565 218.649 135.069 215.706 135.51L215.061 134.156C218.456 133.705 221.914 131.686 221.914 129.258V128.355H223.655V129.258ZM248.394 128.141V147.24H246.719V128.141H248.394ZM235.547 130.031V140.859C238.458 140.849 241.476 140.612 244.678 139.936L244.914 141.375C241.519 142.084 238.49 142.32 235.439 142.32H233.892V130.031H235.547ZM266.345 128.141V136.025H269.245V137.443H266.345V147.24H264.648V128.141H266.345ZM257.021 130.225C256.999 134.779 255.968 139.248 252.509 142.922L251.156 141.955C254.045 139.001 255.205 135.445 255.431 131.643H251.757V130.225H257.021ZM262.263 130.225C262.242 134.758 261.576 140.021 258.009 144.189L256.634 143.244C259.62 139.871 260.523 135.628 260.673 131.643H257.622V130.225H262.263ZM272.844 141.01C272.866 138.131 273.747 137.25 275.229 136.348C276.11 135.811 276.798 134.951 276.798 133.748C276.798 132.287 275.659 131.363 274.241 131.363C273.016 131.363 271.792 132.094 271.663 133.855H269.708C269.815 131.256 271.792 129.73 274.241 129.73C276.927 129.73 278.688 131.471 278.688 133.834C278.688 135.51 277.893 136.691 276.561 137.508C275.229 138.324 274.735 139.141 274.692 141.01V141.117H272.844V141.01ZM273.833 145.629C273.081 145.629 272.436 145.006 272.458 144.232C272.436 143.48 273.081 142.857 273.833 142.857C274.585 142.857 275.208 143.48 275.208 144.232C275.208 145.006 274.585 145.629 273.833 145.629Z" fill="#111827"/>
<mask id="path-5-inside-1_937_378" fill="white">
<path d="M20 179.5H380V235.5H20V179.5Z"/>
</mask>
<path d="M20 180.5H380V178.5H20V180.5Z" fill="#DDDDDD" mask="url(#path-5-inside-1_937_378)"/>
<path d="M194.828 203.109V204.125H186.562V203.109H190.078V201.047H191.297V203.109H194.828ZM187.422 208.469C187.422 206.602 188.805 205.281 190.703 205.281C192.586 205.281 193.953 206.602 193.969 208.469C193.953 210.32 192.586 211.656 190.703 211.656C188.805 211.656 187.422 210.32 187.422 208.469ZM188.578 208.469C188.562 209.719 189.484 210.602 190.703 210.594C191.922 210.602 192.836 209.719 192.844 208.469C192.836 207.234 191.922 206.336 190.703 206.328C189.484 206.336 188.562 207.234 188.578 208.469ZM194.531 207.75V206.719H196.859V200.875H198.078V214.766H196.859V207.75H194.531ZM212.727 207.75V208.766H200.071V207.75H203.211V205.789C202.102 205.359 201.477 204.656 201.477 203.719C201.477 202.086 203.352 201.148 206.399 201.141C209.422 201.148 211.297 202.086 211.305 203.719C211.297 204.648 210.68 205.352 209.586 205.789V207.75H212.727ZM201.602 212.281C201.594 210.695 203.383 209.82 206.399 209.828C209.375 209.82 211.164 210.695 211.18 212.281C211.164 213.867 209.375 214.734 206.399 214.734C203.383 214.734 201.594 213.867 201.602 212.281ZM202.743 203.719C202.735 204.734 204.125 205.32 206.399 205.328C208.649 205.32 210.047 204.734 210.055 203.719C210.047 202.719 208.649 202.109 206.399 202.109C204.125 202.109 202.735 202.719 202.743 203.719ZM202.852 212.281C202.836 213.227 204.172 213.789 206.399 213.781C208.602 213.789 209.938 213.227 209.946 212.281C209.938 211.336 208.602 210.781 206.399 210.766C204.172 210.781 202.836 211.336 202.852 212.281ZM204.43 207.75H208.368V206.117C207.782 206.227 207.125 206.281 206.399 206.281C205.672 206.281 205.016 206.227 204.43 206.125V207.75Z" fill="#02837B"/>
<mask id="path-8-inside-2_937_378" fill="white">
<path d="M20 235.5H380V291.5H20V235.5Z"/>
</mask>
<path d="M20 236.5H380V234.5H20V236.5Z" fill="#DDDDDD" mask="url(#path-8-inside-2_937_378)"/>
<path d="M198.062 256.875V270.766H196.844V263.484H193.531V262.469H196.844V256.875H198.062ZM186.578 267.141C190.336 265.32 192.078 262.641 192.328 259.391H187.188V258.391H193.562C193.555 262.328 191.891 265.82 187.25 268.125L186.578 267.141ZM212.774 265.125V266.125H206.977V270.766H205.774V266.125H200.055V265.125H212.774ZM201.68 263.438V257.453H202.899V259.375H209.899V257.453H211.133V263.438H201.68ZM202.899 262.438H209.899V260.375H202.899V262.438Z" fill="#02837B"/>
</svg>
