<svg width="400" height="643" viewBox="0 0 400 643" fill="none" xmlns="http://www.w3.org/2000/svg">
<rect width="400" height="643" fill="white"/>
<mask id="mask0_907_2862" style="mask-type:alpha" maskUnits="userSpaceOnUse" x="345" y="20" width="30" height="30">
<rect x="345" y="20" width="30" height="30" fill="#D9D9D9"/>
</mask>
<g mask="url(#mask0_907_2862)">
<path d="M360.001 36.6582L353.684 42.9754C353.454 43.205 353.178 43.3198 352.855 43.3198C352.532 43.3198 352.256 43.205 352.026 42.9754C351.796 42.7458 351.682 42.4696 351.682 42.1466C351.682 41.8237 351.796 41.5475 352.026 41.3179L358.343 35.0007L352.026 28.6835C351.796 28.4539 351.682 28.1777 351.682 27.8548C351.682 27.5319 351.796 27.2556 352.026 27.026C352.256 26.7964 352.532 26.6816 352.855 26.6816C353.178 26.6816 353.454 26.7964 353.684 27.026L360.001 33.3432L366.318 27.026C366.547 26.7964 366.824 26.6816 367.147 26.6816C367.47 26.6816 367.746 26.7964 367.975 27.026C368.205 27.2556 368.32 27.5319 368.32 27.8548C368.32 28.1777 368.205 28.4539 367.975 28.6835L361.658 35.0007L367.975 41.3179C368.205 41.5475 368.32 41.8237 368.32 42.1466C368.32 42.4696 368.205 42.7458 367.975 42.9754C367.746 43.205 367.47 43.3198 367.147 43.3198C366.824 43.3198 366.547 43.205 366.318 42.9754L360.001 36.6582Z" fill="#111827"/>
</g>
<path d="M44.9219 95.8281V97.6328H36.3906V104.969H34.2109V97.6328H25.7734V95.8281H44.9219ZM43.1172 85.2344V87.0156H36.625C36.6602 89.6172 39.8945 91.9375 43.8672 92.4766L43.0469 94.2344C39.6016 93.6953 36.625 91.9961 35.3594 89.5938C34.0586 91.9961 31.0938 93.6953 27.6953 94.2344L26.8516 92.4766C30.7773 91.9375 34.0117 89.6172 34.0938 87.0156H27.5547V85.2344H43.1172ZM57.6016 85.7734V95.6406H47.6172V85.7734H57.6016ZM49.7969 87.5781V93.8594H55.3984V87.5781H49.7969ZM63.9297 84.0156V99.0625H61.7031V84.0156H63.9297ZM64.5625 102.531V104.359H50.1953V97.6094H52.4453V102.531H64.5625ZM86.4297 93.8594V95.6875H67.2578V93.8594H86.4297ZM84.2031 90.2266V92.0312H69.6484V84.7422H84.0625V86.5703H71.8516V90.2266H84.2031ZM76.8203 97.3281C81.3438 97.3281 84.0625 98.7109 84.0625 101.148C84.0625 103.586 81.3438 104.969 76.8203 104.945C72.2734 104.969 69.5312 103.586 69.5312 101.148C69.5312 98.7109 72.2734 97.3281 76.8203 97.3281ZM76.8203 99.0391C73.6094 99.0625 71.7812 99.8125 71.7812 101.148C71.7812 102.484 73.6094 103.234 76.8203 103.234C79.9844 103.234 81.8359 102.484 81.8359 101.148C81.8359 99.8125 79.9844 99.0625 76.8203 99.0391ZM107.195 95.4531V97.2578H87.9766V95.4531H96.4844V93.4609H90.4375V88.1172H102.555V86.2422H90.3906V84.4844H104.781V89.7578H92.6406V91.7266H105.203V93.4609H98.6875V95.4531H107.195ZM104.898 98.7344V104.828H102.648V100.516H90.1328V98.7344H104.898ZM126.25 84.0156V99.5312H124.023V91.6094H119.43V96.0391H109.75V85.3984H111.977V88.9609H117.227V85.3984H119.43V89.8047H124.023V84.0156H126.25ZM126.719 102.742V104.547H112.539V98.0078H114.789V102.742H126.719ZM111.977 94.2344H117.227V90.6719H111.977V94.2344ZM147.672 86.9453V88.75H130.398V86.9453H137.945V84.2969H140.148V86.9453H147.672ZM148.703 100.82V102.625H129.484V100.82H137.945V98.0312C134.266 97.8086 132.039 96.3555 132.039 94.0234C132.039 91.4922 134.711 90.0156 139.047 90.0156C143.336 90.0156 146.031 91.4922 146.031 94.0234C146.031 96.3555 143.793 97.8086 140.148 98.0312V100.82H148.703ZM139.047 91.7734C136.047 91.7734 134.289 92.5703 134.312 94.0234C134.289 95.4766 136.047 96.2734 139.047 96.2969C142 96.2734 143.758 95.4766 143.758 94.0234C143.758 92.5703 142 91.7734 139.047 91.7734ZM169.422 93.625V95.3359H150.203V93.625H169.422ZM167.055 96.8125V101.43H154.727V103.164H167.711V104.734H152.5V99.9531H164.852V98.4062H152.477V96.8125H167.055ZM167.008 84.5312V89.0781H154.867V90.6719H167.359V92.2422H152.664V87.6016H164.781V86.1016H152.617V84.5312H167.008ZM193.328 83.9922V88.375H196.375V90.2266H193.328V94.6094H191.102V83.9922H193.328ZM193.328 95.5703V100.891H181.984V102.953H194.055V104.734H179.805V99.2266H191.125V97.3047H179.758V95.5703H193.328ZM182.664 84.7188C185.852 84.7188 188.172 86.6406 188.172 89.4062C188.172 92.1719 185.852 94.0938 182.664 94.0938C179.477 94.0938 177.133 92.1719 177.156 89.4062C177.133 86.6406 179.477 84.7188 182.664 84.7188ZM182.664 86.5469C180.719 86.5469 179.312 87.6953 179.312 89.4062C179.312 91.1172 180.719 92.3125 182.664 92.3125C184.586 92.3125 186.016 91.1172 186.016 89.4062C186.016 87.6953 184.586 86.5469 182.664 86.5469ZM215.055 83.9922V105.039H212.852V96.25H208.75V94.3984H212.852V90.5078H208.867V88.6797H212.852V83.9922H215.055ZM207.602 85.8438V93.5078H200.57V98.3359C203.547 98.3242 206.031 98.1836 209.031 97.75L209.219 99.5781C205.938 100.094 203.266 100.188 199.938 100.188H198.344V91.75H205.422V87.6484H198.297V85.8438H207.602ZM237.461 95.8281V97.6328H228.93V104.969H226.75V97.6328H218.312V95.8281H237.461ZM235.656 85.2344V87.0156H229.164C229.199 89.6172 232.434 91.9375 236.406 92.4766L235.586 94.2344C232.141 93.6953 229.164 91.9961 227.898 89.5938C226.598 91.9961 223.633 93.6953 220.234 94.2344L219.391 92.4766C223.316 91.9375 226.551 89.6172 226.633 87.0156H220.094V85.2344H235.656ZM245.453 89.7344C245.453 93.0859 246.859 96.6719 249.672 98.3828L248.43 100.094C246.461 98.9102 245.125 96.8125 244.422 94.375C243.637 97.0469 242.195 99.3203 240.156 100.562L238.773 98.8984C241.75 97.1172 243.297 93.4141 243.297 89.8281V85.9141H245.453V89.7344ZM257.125 83.9922V104.992H254.992V83.9922H257.125ZM252.766 84.3906V103.961H250.656V93.2266H247.398V91.375H250.656V84.3906H252.766ZM279.016 100.516V102.367H259.797V100.516H264.391V95.0312C262.668 94.082 261.625 92.5703 261.625 90.6953C261.625 87.3906 264.859 85.2109 269.359 85.2109C273.883 85.2109 277.117 87.3906 277.117 90.6953C277.117 92.5469 276.109 94.0352 274.422 94.9844V100.516H279.016ZM269.359 86.9922C266.055 86.9922 263.781 88.4219 263.781 90.6953C263.781 92.9453 266.055 94.4219 269.359 94.4219C272.641 94.4219 274.961 92.9453 274.961 90.6953C274.961 88.4219 272.641 86.9922 269.359 86.9922ZM266.594 100.516H272.172V95.8281C271.316 96.0508 270.367 96.1562 269.359 96.1562C268.375 96.1562 267.438 96.0508 266.594 95.8516V100.516ZM282.93 103.164C282.016 103.164 281.242 102.414 281.266 101.5C281.242 100.586 282.016 99.8359 282.93 99.8359C283.82 99.8359 284.594 100.586 284.594 101.5C284.594 102.414 283.82 103.164 282.93 103.164Z" fill="#111827"/>
<path d="M33.5254 164.012C33.5078 166.104 36.3027 167.879 39.0273 168.283L38.5176 169.373C36.0742 168.96 33.7012 167.659 32.752 165.77C31.8027 167.659 29.4209 168.96 27.0215 169.373L26.4766 168.283C29.1836 167.879 31.9785 166.104 31.9785 164.012V163.906H26.9688V162.781H38.5176V163.906H33.5254V164.012ZM39.8711 170.709V171.852H33.4023V177.424H32.0488V171.852H25.6328V170.709H39.8711ZM49.3457 163.168V170.41H42.0156V163.168H49.3457ZM43.3691 164.311V169.303H47.9922V164.311H43.3691ZM54.0918 161.814V173.047H52.7207V161.814H54.0918ZM54.584 175.754V176.896H44.002V171.957H45.373V175.754H54.584ZM71.002 169.232V170.393H56.7461V169.232H71.002ZM69.332 166.613V167.738H58.5566V162.43H69.2266V163.59H59.9102V166.613H69.332ZM63.8652 171.764C67.2227 171.764 69.2266 172.783 69.2441 174.576C69.2266 176.387 67.2227 177.389 63.8652 177.389C60.4902 177.389 58.4688 176.387 58.4688 174.576C58.4688 172.783 60.4902 171.764 63.8652 171.764ZM63.8652 172.836C61.3516 172.854 59.8574 173.486 59.875 174.576C59.8574 175.684 61.3516 176.299 63.8652 176.299C66.3438 176.299 67.8555 175.684 67.8555 174.576C67.8555 173.486 66.3438 172.854 63.8652 172.836ZM86.5938 170.41V171.553H72.2852V170.41H78.7539V168.758H74.1484V164.943H83.3594V163.326H74.0957V162.201H84.748V165.98H75.5195V167.65H85.082V168.758H80.1074V170.41H86.5938ZM84.8359 172.748V177.283H83.4473V173.873H73.8848V172.748H84.8359ZM100.814 161.814V173.381H99.4258V167.369H95.7344V170.709H88.6504V162.852H90.0215V165.629H94.3809V162.852H95.7344V166.209H99.4258V161.814H100.814ZM101.166 175.93V177.09H90.707V172.238H92.0957V175.93H101.166ZM90.0215 169.566H94.3809V166.719H90.0215V169.566ZM116.916 164.117V165.26H104.119V164.117H109.85V162.061H111.203V164.117H116.916ZM117.725 174.453V175.596H103.416V174.453H109.85V172.256C107.072 172.106 105.385 171.025 105.402 169.268C105.385 167.404 107.354 166.314 110.535 166.332C113.682 166.314 115.668 167.404 115.668 169.268C115.668 171.025 113.963 172.106 111.203 172.256V174.453H117.725ZM110.535 167.422C108.197 167.422 106.773 168.107 106.791 169.268C106.773 170.463 108.197 171.131 110.535 171.148C112.838 171.131 114.262 170.463 114.262 169.268C114.262 168.107 112.838 167.422 110.535 167.422Z" fill="#0077FA"/>
<mask id="path-5-inside-1_907_2862" fill="white">
<path d="M25 190H375V241H25V190Z"/>
</mask>
<path d="M375 240H25V242H375V240Z" fill="#0077FA" mask="url(#path-5-inside-1_907_2862)"/>
<path d="M31.5625 223.205C28.9888 223.174 26.1484 221.646 26.1484 216.15C26.1484 210.89 28.3018 207.947 31.7881 207.947C34.4028 207.947 36.228 209.557 36.6074 211.885H34.7822C34.4438 210.572 33.439 209.588 31.7881 209.588C29.3477 209.588 27.8813 211.669 27.8916 215.248H28.0762C28.9272 214.007 30.291 213.279 31.8906 213.279C34.5259 213.279 36.7305 215.33 36.7305 218.201C36.7305 221 34.6899 223.236 31.5625 223.205ZM28.1377 218.242C28.1479 219.985 29.5732 221.575 31.5625 221.585C33.48 221.575 34.936 220.067 34.9463 218.222C34.936 216.396 33.5415 214.91 31.6035 214.899C29.6553 214.91 28.1582 216.489 28.1377 218.242ZM44.4004 223.205C41.4473 223.205 39.3247 221.626 39.2324 219.268H41.0986C41.2012 220.683 42.606 221.564 44.3799 221.564C46.3384 221.564 47.7534 220.508 47.7637 218.96C47.7534 217.34 46.4614 216.202 44.1543 216.191H42.9443V214.571H44.1543C45.959 214.571 47.2202 213.556 47.21 212.028C47.2202 210.542 46.1333 209.557 44.4414 209.547C42.8521 209.557 41.4062 210.429 41.3242 211.885H39.54C39.6323 209.526 41.8267 207.947 44.4619 207.947C47.292 207.947 49.0146 209.803 48.9941 211.926C49.0146 213.618 48.0303 214.848 46.4717 215.289V215.392C48.4097 215.689 49.5786 217.073 49.5684 218.96C49.5786 221.4 47.3638 223.205 44.4004 223.205ZM57.0947 223.205C53.8032 223.205 51.896 220.437 51.9062 215.576C51.896 210.757 53.8237 207.947 57.0947 207.947C60.3555 207.947 62.2832 210.757 62.2832 215.576C62.2832 220.437 60.3862 223.205 57.0947 223.205ZM53.6904 215.576C53.7007 219.421 54.9414 221.564 57.0947 221.564C59.2378 221.564 60.4888 219.421 60.4785 215.576C60.4888 211.731 59.2275 209.557 57.0947 209.547C54.9619 209.557 53.7007 211.731 53.6904 215.576ZM64.8057 223L71.6143 209.896V209.793H63.7598V208.152H73.5215V209.875L66.7334 223H64.8057ZM81.1709 208.152V223H79.3047V210.08H79.2227L75.6133 212.479V210.613L79.3047 208.152H81.1709ZM89.9893 223.205C86.6978 223.205 84.7905 220.437 84.8008 215.576C84.7905 210.757 86.7183 207.947 89.9893 207.947C93.25 207.947 95.1777 210.757 95.1777 215.576C95.1777 220.437 93.2808 223.205 89.9893 223.205ZM86.585 215.576C86.5952 219.421 87.8359 221.564 89.9893 221.564C92.1323 221.564 93.3833 219.421 93.373 215.576C93.3833 211.731 92.1221 209.557 89.9893 209.547C87.8564 209.557 86.5952 211.731 86.585 215.576Z" fill="#111827"/>
<path d="M207.793 214.776V216.396H201.292V214.776H207.793ZM225.2 208.152V223H223.334V210.08H223.252L219.642 212.479V210.613L223.334 208.152H225.2ZM239.145 221.998H237.44L237.615 217.814L234.065 220.047L233.221 218.588L236.93 216.637L233.221 214.686L234.065 213.209L237.615 215.441L237.44 211.258H239.145L238.987 215.441L242.537 213.209L243.381 214.686L239.672 216.637L243.381 218.588L242.537 220.047L238.987 217.814L239.145 221.998ZM257.82 221.998H256.115L256.29 217.814L252.74 220.047L251.896 218.588L255.605 216.637L251.896 214.686L252.74 213.209L256.29 215.441L256.115 211.258H257.82L257.662 215.441L261.212 213.209L262.056 214.686L258.347 216.637L262.056 218.588L261.212 220.047L257.662 217.814L257.82 221.998ZM276.495 221.998H274.79L274.965 217.814L271.415 220.047L270.571 218.588L274.28 216.637L270.571 214.686L271.415 213.209L274.965 215.441L274.79 211.258H276.495L276.337 215.441L279.887 213.209L280.731 214.686L277.022 216.637L280.731 218.588L279.887 220.047L276.337 217.814L276.495 221.998ZM295.17 221.998H293.465L293.64 217.814L290.09 220.047L289.246 218.588L292.955 216.637L289.246 214.686L290.09 213.209L293.64 215.441L293.465 211.258H295.17L295.012 215.441L298.562 213.209L299.406 214.686L295.697 216.637L299.406 218.588L298.562 220.047L295.012 217.814L295.17 221.998ZM313.845 221.998H312.14L312.315 217.814L308.765 220.047L307.921 218.588L311.63 216.637L307.921 214.686L308.765 213.209L312.315 215.441L312.14 211.258H313.845L313.687 215.441L317.237 213.209L318.081 214.686L314.372 216.637L318.081 218.588L317.237 220.047L313.687 217.814L313.845 221.998ZM332.52 221.998H330.815L330.99 217.814L327.44 220.047L326.596 218.588L330.305 216.637L326.596 214.686L327.44 213.209L330.99 215.441L330.815 211.258H332.52L332.362 215.441L335.912 213.209L336.756 214.686L333.047 216.637L336.756 218.588L335.912 220.047L332.362 217.814L332.52 221.998Z" fill="#111827"/>
<path d="M38.5176 273.797V289.459H37.1289V273.797H38.5176ZM30.2031 275.01C32.5234 275.027 34.1934 277.137 34.1934 280.459C34.1934 283.781 32.5234 285.891 30.2031 285.891C27.8652 285.891 26.2129 283.781 26.2129 280.459C26.2129 277.137 27.8652 275.027 30.2031 275.01ZM30.2031 276.24C28.6387 276.258 27.5488 277.91 27.5488 280.459C27.5488 283.008 28.6387 284.66 30.2031 284.66C31.7676 284.66 32.8574 283.008 32.8574 280.459C32.8574 277.91 31.7676 276.258 30.2031 276.24ZM55.4805 281.865V283.008H41.1719V281.865H55.4805ZM53.6348 274.184V277.875H44.4062V279.439H53.9688V280.512H43.0352V276.838H52.2461V275.291H42.9824V274.184H53.6348ZM53.6348 284.432V289.213H43.123V284.432H53.6348ZM44.4766 285.557V288.088H52.2812V285.557H44.4766ZM57.7129 283.148C57.7305 279.826 58.627 277.066 60.2441 274.729H61.5801C60.3848 276.469 59.2773 280.02 59.2773 283.148C59.2773 286.277 60.3848 289.846 61.5801 291.586H60.2441C58.627 289.23 57.7305 286.471 57.7129 283.148ZM75.7656 273.797V281.9H74.4121V273.797H75.7656ZM75.7832 282.691V286.436H67.0117V288.123H76.3457V289.248H65.6582V285.363H74.4121V283.799H65.623V282.691H75.7832ZM68.418 275.449C68.4004 277.664 70.0879 279.615 72.4082 280.371L71.7227 281.443C69.8945 280.819 68.4355 279.51 67.7324 277.822C67.0293 279.642 65.5615 281.074 63.707 281.742L62.9863 280.652C65.3418 279.826 67.0117 277.752 67.0117 275.449V274.254H68.418V275.449ZM91.3926 273.797V283.061H90.0039V280.6H86.3477V281.936H79.1758V274.992H86.3477V276.346H90.0039V273.797H91.3926ZM80.5469 276.117V280.811H84.9941V276.117H80.5469ZM86.207 283.518C89.459 283.518 91.4453 284.59 91.4453 286.471C91.4453 288.334 89.459 289.389 86.207 289.389C82.9551 289.389 80.9688 288.334 80.9688 286.471C80.9688 284.59 82.9551 283.518 86.207 283.518ZM86.207 284.59C83.8164 284.607 82.3223 285.293 82.3398 286.471C82.3223 287.596 83.8164 288.299 86.207 288.299C88.5977 288.299 90.0742 287.596 90.0742 286.471C90.0742 285.293 88.5977 284.607 86.207 284.59ZM86.3477 279.439H90.0039V277.488H86.3477V279.439ZM97.8965 283.148C97.8789 286.471 96.9824 289.23 95.3652 291.586H94.0293C95.2246 289.846 96.332 286.277 96.332 283.148C96.332 280.02 95.2246 276.469 94.0293 274.729H95.3652C96.9824 277.066 97.8789 279.826 97.8965 283.148Z" fill="#9CA3AF"/>
<mask id="path-10-inside-2_907_2862" fill="white">
<path d="M25 302H375V353H25V302Z"/>
</mask>
<path d="M375 352H25V354H375V352Z" fill="#D1D5DB" mask="url(#path-10-inside-2_907_2862)"/>
<path d="M35.3564 319.619C35.3564 324.233 31.9727 327.494 26.5996 328.93L25.9434 327.658C30.4551 326.469 33.2954 324.059 33.6543 320.932H26.9072V319.619H35.3564ZM40.791 318.45V328.745H39.1914V318.45H40.791ZM40.791 329.627V336.415H28.9375V329.627H40.791ZM30.5166 330.919V335.103H39.2119V330.919H30.5166ZM46.1025 320.173V324.623H50.0605V320.173H51.5576V332.108H44.5645V320.173H46.1025ZM46.1025 330.775H50.0605V325.936H46.1025V330.775ZM59.5146 318.43V336.661H57.9561V327.002H55.4131V335.738H53.875V318.819H55.4131V325.669H57.9561V318.43H59.5146ZM70.3428 318.778C74.3008 318.778 76.7822 320.05 76.7822 322.224C76.7822 324.356 74.3008 325.607 70.3428 325.607C66.3848 325.607 63.8828 324.356 63.8828 322.224C63.8828 320.05 66.3848 318.778 70.3428 318.778ZM70.3428 320.05C67.3896 320.05 65.5234 320.85 65.5439 322.224C65.5234 323.557 67.3896 324.336 70.3428 324.336C73.2549 324.336 75.1416 323.557 75.1416 322.224C75.1416 320.85 73.2549 320.05 70.3428 320.05ZM76.6182 330.427V336.415H64.0674V330.427H69.543V328.335H62.0371V327.002H78.6484V328.335H71.1221V330.427H76.6182ZM65.667 331.719V335.103H75.0391V331.719H65.667Z" fill="#111827"/>
</svg>
