<svg width="400" height="415" viewBox="0 0 400 415" fill="none" xmlns="http://www.w3.org/2000/svg">
<path d="M0 10C0 4.47715 4.47715 0 10 0H390C395.523 0 400 4.47715 400 10V86H0V10Z" fill="white"/>
<rect x="15" y="15" width="110" height="56" rx="8" fill="#E5E7EB"/>
<path d="M61.2106 35.2441V50.9941H59.611V42.9082H57.7301V50.2207H56.1481V35.543H57.7301V41.502H59.611V35.2441H61.2106ZM52.3864 39.4102C52.3864 42.2402 53.4586 44.8066 55.7438 45.9844L54.7594 47.2676C53.2125 46.4326 52.1754 44.9648 51.6129 43.1367C51.0768 45.2109 50.0309 46.8633 48.4313 47.8125L47.3942 46.5469C49.6969 45.2461 50.7692 42.5391 50.7692 39.4102V38.3906H47.8161V37.0371H55.1286V38.3906H52.3864V39.4102ZM77.2158 47.6367V49.0254H62.8018V47.6367H66.2471V43.5234C64.9551 42.8115 64.1729 41.6777 64.1729 40.2715C64.1729 37.793 66.5986 36.1582 69.9736 36.1582C73.3662 36.1582 75.792 37.793 75.792 40.2715C75.792 41.6602 75.0361 42.7764 73.7705 43.4883V47.6367H77.2158ZM69.9736 37.4941C67.4951 37.4941 65.79 38.5664 65.79 40.2715C65.79 41.959 67.4951 43.0664 69.9736 43.0664C72.4346 43.0664 74.1748 41.959 74.1748 40.2715C74.1748 38.5664 72.4346 37.4941 69.9736 37.4941ZM67.8994 47.6367H72.083V44.1211C71.4414 44.2881 70.7295 44.3672 69.9736 44.3672C69.2354 44.3672 68.5322 44.2881 67.8994 44.1387V47.6367ZM83.5179 38.6016C83.5179 40.4473 85.0472 42.1875 87.4379 42.8555L86.6468 44.1562C84.8275 43.6377 83.4476 42.5127 82.7269 41.0625C82.0414 42.6885 80.6703 43.9717 78.7894 44.5605L77.9984 43.2773C80.389 42.5039 81.8656 40.623 81.8656 38.6016V38.4082H78.4379V37.0723H81.8656V35.1738H83.5355V37.0723H86.9457V38.4082H83.5179V38.6016ZM91.1293 35.2441V44.7891H89.4593V41.0273H86.4535V39.6562H89.4593V35.2441H91.1293ZM85.8558 45.1406C89.1429 45.1406 91.182 46.1953 91.182 48.041C91.182 49.9043 89.1429 50.9766 85.8558 50.959C82.5511 50.9766 80.5121 49.9043 80.5296 48.041C80.5121 46.1953 82.5511 45.1406 85.8558 45.1406ZM85.8558 46.4414C83.5531 46.4414 82.182 47.0215 82.182 48.041C82.182 49.0605 83.5531 49.6758 85.8558 49.6758C88.1761 49.6758 89.5296 49.0605 89.5296 48.041C89.5296 47.0215 88.1761 46.4414 85.8558 46.4414Z" fill="#111827"/>
<rect x="135" y="15" width="250" height="56" rx="8" fill="#0077FA"/>
<path d="M216.326 35.8418V37.7051H223.621V35.8418H225.291V42.2051H220.791V43.752H227.154V45.123H212.793V43.752H219.139V42.2051H214.674V35.8418H216.326ZM216.326 40.8516H223.621V39.0059H216.326V40.8516ZM225.537 49.3066V50.6602H214.603V46.248H216.291V49.3066H225.537ZM241.05 35.2617V46.7051H239.38V35.2617H241.05ZM241.525 49.3066V50.6602H230.749V45.5449H232.437V49.3066H241.525ZM232.507 36.3164C234.88 36.3164 236.691 37.9336 236.691 40.2188C236.691 42.5391 234.88 44.1387 232.507 44.1387C230.134 44.1387 228.306 42.5391 228.306 40.2188C228.306 37.9336 230.134 36.3164 232.507 36.3164ZM232.507 37.7754C231.031 37.7754 229.941 38.7773 229.941 40.2188C229.941 41.6953 231.031 42.6797 232.507 42.6797C233.949 42.6797 235.056 41.6953 235.056 40.2188C235.056 38.7773 233.949 37.7754 232.507 37.7754ZM256.247 35.2617V46.7051H254.577V35.2617H256.247ZM256.721 49.3066V50.6602H245.946V45.5449H247.633V49.3066H256.721ZM247.704 36.3164C250.077 36.3164 251.887 37.9336 251.887 40.2188C251.887 42.5391 250.077 44.1387 247.704 44.1387C245.331 44.1387 243.503 42.5391 243.503 40.2188C243.503 37.9336 245.331 36.3164 247.704 36.3164ZM247.704 37.7754C246.227 37.7754 245.137 38.7773 245.137 40.2188C245.137 41.6953 246.227 42.6797 247.704 42.6797C249.145 42.6797 250.253 41.6953 250.253 40.2188C250.253 38.7773 249.145 37.7754 247.704 37.7754ZM272.744 42.6621V44.0156H258.383V42.6621H272.744ZM265.555 45.2285C268.947 45.2285 270.986 46.2832 270.986 48.1113C270.986 49.9395 268.947 50.9766 265.555 50.959C262.145 50.9766 260.088 49.9395 260.088 48.1113C260.088 46.2832 262.145 45.2285 265.555 45.2285ZM265.555 46.5293C263.146 46.5469 261.775 47.0918 261.775 48.1113C261.775 49.1133 263.146 49.6406 265.555 49.6406C267.928 49.6406 269.316 49.1133 269.316 48.1113C269.316 47.0918 267.928 46.5469 265.555 46.5293ZM271.461 36.0176V37.3887H266.68C266.864 38.918 269.097 40.2188 272.006 40.5176L271.408 41.8359C268.684 41.5195 266.425 40.3682 265.572 38.707C264.693 40.3682 262.443 41.5195 259.719 41.8359L259.139 40.5176C261.995 40.2188 264.245 38.9268 264.447 37.3887H259.701V36.0176H271.461ZM289.884 35.2441V41.625H292.415V43.0137H289.884V50.9941H288.231V35.2441H289.884ZM286.86 37.7051V39.0762H277.526V37.7051H281.411V35.4551H283.081V37.7051H286.86ZM282.255 40.2363C284.505 40.2363 286.157 41.748 286.175 43.8926C286.157 46.0547 284.505 47.5488 282.255 47.5664C279.987 47.5488 278.335 46.0547 278.335 43.8926C278.335 41.748 279.987 40.2363 282.255 40.2363ZM282.255 41.6074C280.919 41.6074 279.917 42.5391 279.934 43.8926C279.917 45.2637 280.919 46.1777 282.255 46.1602C283.591 46.1777 284.575 45.2637 284.575 43.8926C284.575 42.5391 283.591 41.6074 282.255 41.6074ZM305.906 35.2441V50.9941H304.219V35.2441H305.906ZM301.213 36.9316C301.213 41.5371 299.244 45.5449 293.848 48.1289L292.969 46.7754C297.161 44.7803 299.2 41.9414 299.525 38.2676H293.725V36.9316H301.213Z" fill="white"/>
<rect width="400" height="329" transform="translate(0 86)" fill="#D1D3D9"/>
<g filter="url(#filter1_d_909_3565)">
<rect x="6" y="143" width="126" height="46" rx="4.6" fill="white"/>
</g>
<path d="M67.8784 167H70.0024V149.385H67.854L63.1665 152.754V154.964L67.8296 151.717H67.8784V167Z" fill="black"/>
<g filter="url(#filter2_d_909_3565)">
<rect x="137" y="143" width="126" height="46" rx="4.6" fill="white"/>
</g>
<path d="M186.017 181.75H187.564L188.087 180.041H190.572L191.095 181.75H192.647L190.196 174.704H188.463L186.017 181.75ZM189.288 176.11H189.376L190.235 178.938H188.424L189.288 176.11ZM195.844 181.75H199.008C200.512 181.75 201.444 180.974 201.444 179.738V179.729C201.444 178.825 200.766 178.127 199.833 178.054V177.966C200.556 177.858 201.107 177.209 201.107 176.467V176.457C201.107 175.373 200.292 174.704 198.925 174.704H195.844V181.75ZM198.549 175.798C199.252 175.798 199.657 176.14 199.657 176.711V176.721C199.657 177.302 199.223 177.634 198.427 177.634H197.318V175.798H198.549ZM198.598 178.605C199.467 178.605 199.94 178.957 199.94 179.611V179.621C199.94 180.29 199.481 180.651 198.632 180.651H197.318V178.605H198.598ZM207.771 181.931C209.47 181.931 210.676 180.925 210.827 179.45L210.832 179.396H209.396L209.387 179.436C209.23 180.188 208.62 180.681 207.775 180.681C206.662 180.681 205.974 179.743 205.974 178.229V178.22C205.974 176.706 206.662 175.773 207.771 175.773C208.61 175.773 209.24 176.311 209.392 177.102V177.136H210.827V177.077C210.69 175.588 209.44 174.523 207.771 174.523C205.725 174.523 204.465 175.935 204.465 178.22V178.229C204.465 180.515 205.729 181.931 207.771 181.931Z" fill="black"/>
<path d="M192.848 167H204.469V165.047H195.863V164.998L200.05 160.701C203.285 157.393 204.176 155.94 204.176 154.012V153.987C204.176 151.229 201.845 149.092 198.659 149.092C195.375 149.092 192.738 151.351 192.738 154.402V154.476H194.862V154.415C194.862 152.522 196.498 151.009 198.695 151.009C200.612 151.009 201.967 152.303 201.979 154.097V154.122C201.979 155.586 201.43 156.539 199.049 159.017L192.848 165.486V167Z" fill="black"/>
<g filter="url(#filter3_d_909_3565)">
<rect x="268" y="143" width="126" height="46" rx="4.6" fill="white"/>
</g>
<path d="M318.516 181.75H321.289C323.398 181.75 324.595 180.461 324.595 178.186V178.176C324.595 175.969 323.384 174.704 321.289 174.704H318.516V181.75ZM319.99 180.534V175.92H321.055C322.334 175.92 323.091 176.75 323.091 178.2V178.21C323.091 179.714 322.358 180.534 321.055 180.534H319.99ZM327.996 181.75H332.664V180.534H329.471V178.752H332.483V177.619H329.471V175.92H332.664V174.704H327.996V181.75ZM336.217 181.75H337.691V178.977H340.558V177.81H337.691V175.92H340.831V174.704H336.217V181.75Z" fill="black"/>
<path d="M329.463 167.293C332.991 167.293 335.579 165.12 335.579 162.178V162.154C335.579 159.651 333.833 158.052 331.27 157.833V157.784C333.467 157.32 335.005 155.831 335.005 153.658V153.633C335.005 150.96 332.796 149.092 329.439 149.092C326.143 149.092 323.873 151.009 323.592 153.877L323.58 154H325.691L325.704 153.877C325.887 152.095 327.364 150.997 329.439 150.997C331.587 150.997 332.796 152.059 332.796 153.902V153.926C332.796 155.684 331.331 156.978 329.231 156.978H327.12V158.833H329.329C331.795 158.833 333.345 160.042 333.345 162.203V162.227C333.345 164.095 331.771 165.389 329.463 165.389C327.12 165.389 325.533 164.192 325.35 162.459L325.337 162.337H323.226L323.238 162.483C323.47 165.267 325.826 167.293 329.463 167.293Z" fill="black"/>
<g filter="url(#filter4_d_909_3565)">
<rect x="6" y="196" width="126" height="46" rx="4.6" fill="white"/>
</g>
<path d="M60.1094 234.931C62.0332 234.931 63.2344 233.759 63.2344 231.889V230.995H60.2754V232.069H61.7988L61.7939 232.201C61.7646 233.09 61.1006 233.681 60.1338 233.681C58.9717 233.681 58.2344 232.738 58.2344 231.21V231.2C58.2344 229.701 58.9375 228.773 60.0752 228.773C60.9004 228.773 61.501 229.188 61.7012 229.887L61.7109 229.936H63.1758L63.166 229.887C62.9561 228.48 61.7402 227.523 60.0752 227.523C58.0244 227.523 56.7305 228.954 56.7305 231.215V231.225C56.7305 233.52 58.0146 234.931 60.1094 234.931ZM66.6504 234.75H68.125V231.781H71.2988V234.75H72.7734V227.704H71.2988V230.565H68.125V227.704H66.6504V234.75ZM76.4824 234.75H77.957V227.704H76.4824V234.75Z" fill="black"/>
<path d="M69.7461 220H71.8701V216.338H74.3604V214.409H71.8701V202.385H68.623L60.896 214.348V216.338H69.7461V220ZM63.0688 214.409V214.36L69.6729 204.265H69.7461V214.409H63.0688Z" fill="black"/>
<g filter="url(#filter5_d_909_3565)">
<rect x="137" y="196" width="126" height="46" rx="4.6" fill="white"/>
</g>
<path d="M189.718 234.931C191.241 234.931 192.125 234.066 192.125 232.582V227.704H190.65V232.572C190.65 233.28 190.323 233.656 189.698 233.656C189.122 233.656 188.8 233.275 188.771 232.733V232.704H187.34V232.743C187.379 234.066 188.263 234.931 189.718 234.931ZM195.839 234.75H197.313V232.597L198.012 231.757L200.058 234.75H201.825L199.076 230.79L201.645 227.704H200.004L197.401 230.868H197.313V227.704H195.839V234.75ZM204.938 234.75H209.548V233.534H206.413V227.704H204.938V234.75Z" fill="black"/>
<path d="M198.671 220.293C202.333 220.293 204.933 217.827 204.945 214.299V214.275C204.945 210.894 202.504 208.44 199.123 208.44C197.414 208.44 195.949 209.075 195.119 210.259H195.07L195.668 204.338H203.944V202.385H193.861L192.958 212.432H194.899C195.131 212.029 195.412 211.687 195.729 211.394C196.51 210.686 197.536 210.332 198.732 210.332C201.063 210.332 202.736 211.992 202.748 214.312V214.336C202.748 216.704 201.088 218.364 198.695 218.364C196.583 218.364 195.021 217.034 194.801 215.288L194.789 215.19H192.628L192.641 215.325C192.897 218.193 195.302 220.293 198.671 220.293Z" fill="black"/>
<g filter="url(#filter6_d_909_3565)">
<rect x="268" y="196" width="126" height="46" rx="4.6" fill="white"/>
</g>
<path d="M316.04 234.75H317.354V229.955H317.451L319.258 234.75H320.181L321.987 229.955H322.085V234.75H323.398V227.704H321.709L319.766 232.86H319.678L317.729 227.704H316.04V234.75ZM327.112 234.75H328.523V230.243H328.602L331.863 234.75H333.084V227.704H331.673V232.191H331.595L328.343 227.704H327.112V234.75ZM339.879 234.931C341.959 234.931 343.268 233.505 343.268 231.229V231.22C343.268 228.944 341.954 227.523 339.879 227.523C337.804 227.523 336.485 228.939 336.485 231.22V231.229C336.485 233.505 337.784 234.931 339.879 234.931ZM339.879 233.681C338.717 233.681 337.989 232.719 337.989 231.229V231.22C337.989 229.726 338.731 228.773 339.879 228.773C341.021 228.773 341.764 229.726 341.764 231.22V231.229C341.764 232.719 341.026 233.681 339.879 233.681Z" fill="black"/>
<path d="M329.585 220.293C333.187 220.293 335.823 217.778 335.823 214.312V214.287C335.823 210.942 333.333 208.464 329.976 208.464C327.583 208.464 325.777 209.734 325.069 211.296H325.02C325.02 211.162 325.02 211.04 325.032 210.918C325.13 207.219 326.424 204.033 329.708 204.033C331.514 204.033 332.771 204.937 333.296 206.389L333.345 206.523H335.579L335.542 206.365C334.957 203.801 332.723 202.092 329.732 202.092C325.423 202.092 322.896 205.559 322.896 211.492V211.516C322.896 218.047 326.338 220.293 329.585 220.293ZM325.545 214.287V214.275C325.545 212.029 327.291 210.393 329.598 210.393C331.917 210.393 333.589 212.041 333.589 214.336V214.36C333.589 216.582 331.807 218.34 329.561 218.34C327.303 218.34 325.545 216.545 325.545 214.287Z" fill="black"/>
<g filter="url(#filter7_d_909_3565)">
<rect x="6" y="249" width="126" height="46" rx="4.6" fill="white"/>
</g>
<path d="M51.1992 287.75H52.6738V285.528H54.1045C55.5889 285.528 56.5801 284.571 56.5801 283.121V283.111C56.5801 281.661 55.5889 280.704 54.1045 280.704H51.1992V287.75ZM53.7432 281.871C54.5879 281.871 55.0859 282.315 55.0859 283.116V283.126C55.0859 283.927 54.5879 284.376 53.7432 284.376H52.6738V281.871H53.7432ZM63.0186 287.931C63.4727 287.931 63.8926 287.862 64.2686 287.73L64.8057 288.448H66.1777L65.2305 287.184C65.9824 286.549 66.4072 285.528 66.4072 284.229V284.22C66.4072 281.944 65.0938 280.523 63.0186 280.523C60.9434 280.523 59.625 281.939 59.625 284.22V284.229C59.625 286.505 60.9238 287.931 63.0186 287.931ZM63.0186 286.681C61.8564 286.681 61.1289 285.719 61.1289 284.229V284.22C61.1289 282.726 61.8711 281.773 63.0186 281.773C64.1611 281.773 64.9033 282.726 64.9033 284.22V284.229C64.9033 284.991 64.708 285.611 64.3662 286.041L63.9121 285.431H62.54L63.4434 286.632C63.3066 286.666 63.165 286.681 63.0186 286.681ZM69.8086 287.75H71.2832V285.172H72.4893L73.8027 287.75H75.4727L73.9883 284.952C74.7939 284.635 75.2627 283.858 75.2627 282.955V282.945C75.2627 281.559 74.3447 280.704 72.7432 280.704H69.8086V287.75ZM71.2832 284.098V281.856H72.5625C73.2998 281.856 73.7539 282.296 73.7539 282.975V282.984C73.7539 283.678 73.3193 284.098 72.582 284.098H71.2832ZM81.2715 287.931C83.0293 287.931 84.1133 287.047 84.1133 285.65V285.646C84.1133 284.547 83.4639 283.951 81.9746 283.644L81.2275 283.492C80.3975 283.321 80.0557 283.048 80.0557 282.589V282.584C80.0557 282.057 80.5391 281.725 81.2666 281.72C82.0088 281.72 82.4971 282.071 82.5801 282.574L82.5898 282.633H83.9766L83.9717 282.569C83.8789 281.393 82.9121 280.523 81.2666 280.523C79.7041 280.523 78.5811 281.388 78.5811 282.696V282.701C78.5811 283.771 79.2109 284.454 80.6758 284.752L81.418 284.903C82.292 285.084 82.6387 285.343 82.6387 285.807V285.812C82.6387 286.354 82.0967 286.729 81.3105 286.729C80.4854 286.729 79.9141 286.373 79.8604 285.846L79.8555 285.797H78.4346L78.4395 285.875C78.5225 287.125 79.5869 287.931 81.2715 287.931Z" fill="black"/>
<path d="M63.1055 273H65.4126L73.2495 257.424V255.385H61.5918V257.338H71.0767V257.387L63.1055 273Z" fill="black"/>
<g filter="url(#filter8_d_909_3565)">
<rect x="137" y="249" width="126" height="46" rx="4.6" fill="white"/>
</g>
<path d="M188.351 287.75H189.825V281.92H191.939V280.704H186.236V281.92H188.351V287.75ZM198.192 287.931C200.009 287.931 201.142 286.881 201.142 285.318V280.704H199.667V285.187C199.667 286.1 199.14 286.681 198.192 286.681C197.245 286.681 196.713 286.1 196.713 285.187V280.704H195.238V285.318C195.238 286.886 196.386 287.931 198.192 287.931ZM206.696 287.75H208.513L210.861 280.704H209.201L207.648 286.109H207.561L206.003 280.704H204.348L206.696 287.75Z" fill="black"/>
<path d="M198.5 273.293C202.235 273.293 204.896 271.193 204.896 268.239V268.215C204.896 266.042 203.371 264.235 201.112 263.71V263.662C203.041 263.063 204.262 261.599 204.262 259.743V259.719C204.262 257.058 201.833 255.092 198.5 255.092C195.167 255.092 192.738 257.058 192.738 259.719V259.743C192.738 261.599 193.959 263.063 195.888 263.662V263.71C193.629 264.235 192.104 266.042 192.104 268.215V268.239C192.104 271.193 194.765 273.293 198.5 273.293ZM198.5 262.844C196.376 262.844 194.923 261.635 194.923 259.926V259.902C194.923 258.193 196.376 256.984 198.5 256.984C200.624 256.984 202.077 258.193 202.077 259.902V259.926C202.077 261.635 200.624 262.844 198.5 262.844ZM198.5 271.376C196.071 271.376 194.337 270.009 194.337 268.105V268.081C194.337 266.152 196.059 264.772 198.5 264.772C200.941 264.772 202.663 266.152 202.663 268.081V268.105C202.663 270.009 200.929 271.376 198.5 271.376Z" fill="black"/>
<g filter="url(#filter9_d_909_3565)">
<rect x="268" y="249" width="126" height="46" rx="4.6" fill="white"/>
</g>
<path d="M313.18 287.75H314.571L315.89 283.004H315.968L317.301 287.75H318.683L320.553 280.704H319.029L317.94 285.738H317.862L316.554 280.704H315.309L314.024 285.738H313.946L312.848 280.704H311.314L313.18 287.75ZM323.412 287.75H325.004L326.542 285.279H326.591L328.134 287.75H329.813L327.538 284.229V284.21L329.848 280.704H328.197L326.713 283.243H326.654L325.16 280.704H323.422L325.648 284.186V284.2L323.412 287.75ZM335.08 287.75H336.555V285.118L339.011 280.704H337.414L335.866 283.668H335.778L334.226 280.704H332.629L335.08 285.118V287.75ZM342.017 287.75H347.456V286.534H343.823V286.446L347.358 281.661V280.704H342.1V281.92H345.562V282.008L342.017 286.788V287.75Z" fill="black"/>
<path d="M329.415 255.092C325.813 255.092 323.177 257.607 323.177 261.074V261.098C323.177 264.443 325.667 266.921 329.024 266.921C331.417 266.921 333.223 265.651 333.931 264.089H333.98C333.98 264.223 333.98 264.345 333.968 264.467C333.87 268.166 332.576 271.352 329.292 271.352C327.486 271.352 326.229 270.449 325.704 268.996L325.655 268.862H323.421L323.458 269.021C324.043 271.584 326.277 273.293 329.268 273.293C333.577 273.293 336.104 269.826 336.104 263.894V263.869C336.104 257.338 332.662 255.092 329.415 255.092ZM329.402 264.992C327.083 264.992 325.411 263.344 325.411 261.049V261.025C325.411 258.803 327.193 257.045 329.439 257.045C331.697 257.045 333.455 258.84 333.455 261.098V261.11C333.455 263.356 331.709 264.992 329.402 264.992Z" fill="black"/>
<g filter="url(#filter10_d_909_3565)">
<rect x="137" y="302" width="126" height="46" rx="4.6" fill="white"/>
</g>
<path d="M198.488 334.293C202.541 334.293 204.97 330.79 204.97 325.199V325.174C204.97 319.583 202.541 316.092 198.488 316.092C194.435 316.092 192.03 319.583 192.03 325.174V325.199C192.03 330.79 194.435 334.293 198.488 334.293ZM198.488 332.376C195.802 332.376 194.24 329.618 194.24 325.199V325.174C194.24 320.755 195.802 318.021 198.488 318.021C201.173 318.021 202.76 320.755 202.76 325.174V325.199C202.76 329.618 201.173 332.376 198.488 332.376Z" fill="black"/>
<path d="M329.714 322.025C329.422 321.732 329.422 321.257 329.714 320.964C330.007 320.672 330.482 320.672 330.775 320.964L333.25 323.439L335.725 320.964C336.018 320.672 336.493 320.672 336.786 320.964C337.078 321.257 337.078 321.732 336.786 322.025L334.311 324.5L336.786 326.975C337.078 327.268 337.078 327.743 336.786 328.036C336.493 328.328 336.018 328.328 335.725 328.036L333.25 325.561L330.775 328.036C330.482 328.328 330.007 328.328 329.714 328.036C329.422 327.743 329.422 327.268 329.714 326.975L332.189 324.5L329.714 322.025Z" fill="black"/>
<path fill-rule="evenodd" clip-rule="evenodd" d="M326.621 316.879L319 324.5L326.621 332.121C327.184 332.684 327.947 333 328.743 333H339C340.657 333 342 331.657 342 330V319C342 317.343 340.657 316 339 316H328.743C327.947 316 327.184 316.316 326.621 316.879ZM339 331.7H328.743C328.292 331.7 327.859 331.521 327.541 331.202L320.839 324.5L327.541 317.798C327.859 317.479 328.292 317.3 328.743 317.3H339C339.939 317.3 340.7 318.061 340.7 319V330C340.7 330.939 339.939 331.7 339 331.7Z" fill="black"/>
<path d="M154.937 99.375V102.547H156.782V98.2129H157.808V109.492H156.782V103.436H154.937V106.84H150.288V99.375H154.937ZM151.3 100.236V105.979H153.925V100.236H151.3ZM160.255 97.9531V110.107H159.216V97.9531H160.255ZM166.257 101.221C166.243 103.436 167.761 105.678 169.552 106.484L168.896 107.332C167.515 106.655 166.318 105.227 165.737 103.49C165.17 105.329 163.974 106.86 162.552 107.578L161.868 106.676C163.673 105.842 165.177 103.531 165.19 101.221V99.0059H166.257V101.221ZM171.958 97.9531V110.135H170.878V97.9531H171.958ZM178.384 101.686C178.384 103.75 179.888 105.842 181.679 106.621L181.077 107.469C179.655 106.819 178.425 105.418 177.864 103.736C177.29 105.521 176.066 107.072 174.679 107.77L174.036 106.922C175.772 106.088 177.29 103.791 177.304 101.686V100.1H174.433V99.2109H181.282V100.1H178.384V101.686ZM184.058 97.9531V110.107H182.978V97.9531H184.058ZM196.554 97.9531V110.107H195.515V97.9531H196.554ZM194.106 98.2129V109.492H193.081V103.586H191.522C191.406 105.951 190.401 107.428 188.897 107.428C187.312 107.428 186.286 105.787 186.286 103.203C186.286 100.619 187.312 98.9785 188.897 98.9785C190.374 98.9785 191.372 100.407 191.509 102.697H193.081V98.2129H194.106ZM188.897 99.9902C187.913 99.9902 187.284 101.221 187.298 103.203C187.284 105.172 187.913 106.416 188.897 106.402C189.882 106.416 190.511 105.172 190.511 103.203C190.511 101.221 189.882 99.9902 188.897 99.9902ZM202.515 101.221C202.515 103.422 203.923 105.637 205.687 106.443L205.044 107.318C203.663 106.607 202.521 105.151 201.981 103.422C201.441 105.24 200.3 106.799 198.919 107.537L198.222 106.676C199.999 105.801 201.421 103.463 201.421 101.221V99.0059H202.515V101.221ZM208.312 97.9531V110.135H207.245V102.984H204.36V102.109H207.245V97.9531H208.312ZM223.255 97.9531V102.902H225.224V103.805H223.255V110.107H222.188V97.9531H223.255ZM220.11 99.2656C220.11 102.711 218.497 105.842 214.532 107.797L213.931 106.949C217.075 105.384 218.784 103.046 219.03 100.168H214.491V99.2656H220.11ZM236.024 97.9531V110.107H234.944V104.871H232.456V103.969H234.944V102.287H232.456V101.385H234.944V97.9531H236.024ZM230.159 101.562C230.159 103.463 231.608 105.76 233.345 106.635L232.702 107.455C231.376 106.765 230.207 105.261 229.653 103.586C229.106 105.425 227.917 107.011 226.577 107.756L225.866 106.936C227.603 106.074 229.065 103.736 229.079 101.562V100.1H226.304V99.2109H232.935V100.1H230.159V101.562ZM243.585 98.1855C246.224 98.1855 247.878 99.0332 247.878 100.469C247.878 101.809 246.436 102.636 244.091 102.725V103.928H249.122V104.803H238.048V103.928H243.052V102.725C240.721 102.629 239.278 101.802 239.278 100.469C239.278 99.0332 240.946 98.1855 243.585 98.1855ZM243.585 99.0332C241.616 99.0332 240.372 99.5664 240.386 100.469C240.372 101.385 241.616 101.904 243.585 101.904C245.526 101.904 246.784 101.385 246.784 100.469C246.784 99.5664 245.526 99.0332 243.585 99.0332ZM247.769 105.951V109.943H239.401V105.951H247.769ZM240.468 106.812V109.068H246.716V106.812H240.468Z" fill="black"/>
<path d="M172.676 130.176C170.145 130.176 168.334 128.822 168.246 126.801H169.846C169.934 128.014 171.146 128.77 172.658 128.77C174.328 128.77 175.559 127.855 175.559 126.537C175.559 125.148 174.451 124.164 172.465 124.164H171.428V122.775H172.465C174.012 122.775 175.084 121.914 175.084 120.596C175.084 119.33 174.152 118.469 172.711 118.469C171.357 118.469 170.109 119.225 170.039 120.473H168.51C168.598 118.451 170.461 117.098 172.729 117.098C175.154 117.098 176.631 118.68 176.613 120.508C176.631 121.949 175.787 123.021 174.451 123.391V123.479C176.104 123.742 177.123 124.92 177.105 126.537C177.123 128.629 175.207 130.176 172.676 130.176ZM179.391 130L179.373 128.84L183.715 124.27C185.227 122.67 185.947 121.809 185.947 120.631C185.947 119.33 184.84 118.469 183.416 118.469C181.904 118.469 180.938 119.436 180.938 120.859H179.443C179.426 118.609 181.166 117.098 183.469 117.098C185.771 117.098 187.424 118.645 187.424 120.631C187.424 122.055 186.756 123.162 184.506 125.482L181.588 128.488V128.594H187.652V130H179.391ZM189.955 130L189.938 128.84L194.279 124.27C195.791 122.67 196.512 121.809 196.512 120.631C196.512 119.33 195.404 118.469 193.98 118.469C192.469 118.469 191.502 119.436 191.502 120.859H190.008C189.99 118.609 191.73 117.098 194.033 117.098C196.336 117.098 197.988 118.645 197.988 120.631C197.988 122.055 197.32 123.162 195.07 125.482L192.152 128.488V128.594H198.217V130H189.955ZM204.773 130.176C202.102 130.176 200.238 128.699 200.256 126.625C200.238 124.973 201.381 123.619 202.84 123.391V123.32C201.574 123.021 200.748 121.861 200.748 120.473C200.748 118.521 202.453 117.098 204.773 117.098C207.094 117.098 208.799 118.521 208.816 120.473C208.799 121.861 207.955 123.021 206.707 123.32V123.391C208.148 123.619 209.291 124.973 209.309 126.625C209.291 128.699 207.428 130.176 204.773 130.176ZM204.773 128.787C206.602 128.787 207.727 127.873 207.727 126.537C207.727 125.131 206.479 124.094 204.773 124.094C203.068 124.094 201.803 125.131 201.838 126.537C201.803 127.873 202.945 128.787 204.773 128.787ZM204.773 122.758C206.215 122.758 207.27 121.879 207.27 120.596C207.27 119.33 206.268 118.469 204.773 118.469C203.262 118.469 202.277 119.33 202.277 120.596C202.277 121.879 203.314 122.758 204.773 122.758ZM215.83 130.176C213.299 130.176 211.488 128.822 211.4 126.801H213C213.088 128.014 214.301 128.77 215.812 128.77C217.482 128.77 218.713 127.855 218.713 126.537C218.713 125.148 217.605 124.164 215.619 124.164H214.582V122.775H215.619C217.166 122.775 218.238 121.914 218.238 120.596C218.238 119.33 217.307 118.469 215.865 118.469C214.512 118.469 213.264 119.225 213.193 120.473H211.664C211.752 118.451 213.615 117.098 215.883 117.098C218.309 117.098 219.785 118.68 219.768 120.508C219.785 121.949 218.941 123.021 217.605 123.391V123.479C219.258 123.742 220.277 124.92 220.26 126.537C220.277 128.629 218.361 130.176 215.83 130.176ZM222.545 130L222.527 128.84L226.869 124.27C228.381 122.67 229.102 121.809 229.102 120.631C229.102 119.33 227.994 118.469 226.57 118.469C225.059 118.469 224.092 119.436 224.092 120.859H222.598C222.58 118.609 224.32 117.098 226.623 117.098C228.926 117.098 230.578 118.645 230.578 120.631C230.578 122.055 229.91 123.162 227.66 125.482L224.742 128.488V128.594H230.807V130H222.545Z" fill="black"/>
<defs>
<filter id="filter1_d_909_3565" x="6" y="143" width="126" height="47" filterUnits="userSpaceOnUse" color-interpolation-filters="sRGB">
<feFlood flood-opacity="0" result="BackgroundImageFix"/>
<feColorMatrix in="SourceAlpha" type="matrix" values="0 0 0 0 0 0 0 0 0 0 0 0 0 0 0 0 0 0 127 0" result="hardAlpha"/>
<feOffset dy="1"/>
<feColorMatrix type="matrix" values="0 0 0 0 0 0 0 0 0 0 0 0 0 0 0 0 0 0 0.3 0"/>
<feBlend mode="normal" in2="BackgroundImageFix" result="effect1_dropShadow_909_3565"/>
<feBlend mode="normal" in="SourceGraphic" in2="effect1_dropShadow_909_3565" result="shape"/>
</filter>
<filter id="filter2_d_909_3565" x="137" y="143" width="126" height="47" filterUnits="userSpaceOnUse" color-interpolation-filters="sRGB">
<feFlood flood-opacity="0" result="BackgroundImageFix"/>
<feColorMatrix in="SourceAlpha" type="matrix" values="0 0 0 0 0 0 0 0 0 0 0 0 0 0 0 0 0 0 127 0" result="hardAlpha"/>
<feOffset dy="1"/>
<feColorMatrix type="matrix" values="0 0 0 0 0 0 0 0 0 0 0 0 0 0 0 0 0 0 0.3 0"/>
<feBlend mode="normal" in2="BackgroundImageFix" result="effect1_dropShadow_909_3565"/>
<feBlend mode="normal" in="SourceGraphic" in2="effect1_dropShadow_909_3565" result="shape"/>
</filter>
<filter id="filter3_d_909_3565" x="268" y="143" width="126" height="47" filterUnits="userSpaceOnUse" color-interpolation-filters="sRGB">
<feFlood flood-opacity="0" result="BackgroundImageFix"/>
<feColorMatrix in="SourceAlpha" type="matrix" values="0 0 0 0 0 0 0 0 0 0 0 0 0 0 0 0 0 0 127 0" result="hardAlpha"/>
<feOffset dy="1"/>
<feColorMatrix type="matrix" values="0 0 0 0 0 0 0 0 0 0 0 0 0 0 0 0 0 0 0.3 0"/>
<feBlend mode="normal" in2="BackgroundImageFix" result="effect1_dropShadow_909_3565"/>
<feBlend mode="normal" in="SourceGraphic" in2="effect1_dropShadow_909_3565" result="shape"/>
</filter>
<filter id="filter4_d_909_3565" x="6" y="196" width="126" height="47" filterUnits="userSpaceOnUse" color-interpolation-filters="sRGB">
<feFlood flood-opacity="0" result="BackgroundImageFix"/>
<feColorMatrix in="SourceAlpha" type="matrix" values="0 0 0 0 0 0 0 0 0 0 0 0 0 0 0 0 0 0 127 0" result="hardAlpha"/>
<feOffset dy="1"/>
<feColorMatrix type="matrix" values="0 0 0 0 0 0 0 0 0 0 0 0 0 0 0 0 0 0 0.3 0"/>
<feBlend mode="normal" in2="BackgroundImageFix" result="effect1_dropShadow_909_3565"/>
<feBlend mode="normal" in="SourceGraphic" in2="effect1_dropShadow_909_3565" result="shape"/>
</filter>
<filter id="filter5_d_909_3565" x="137" y="196" width="126" height="47" filterUnits="userSpaceOnUse" color-interpolation-filters="sRGB">
<feFlood flood-opacity="0" result="BackgroundImageFix"/>
<feColorMatrix in="SourceAlpha" type="matrix" values="0 0 0 0 0 0 0 0 0 0 0 0 0 0 0 0 0 0 127 0" result="hardAlpha"/>
<feOffset dy="1"/>
<feColorMatrix type="matrix" values="0 0 0 0 0 0 0 0 0 0 0 0 0 0 0 0 0 0 0.3 0"/>
<feBlend mode="normal" in2="BackgroundImageFix" result="effect1_dropShadow_909_3565"/>
<feBlend mode="normal" in="SourceGraphic" in2="effect1_dropShadow_909_3565" result="shape"/>
</filter>
<filter id="filter6_d_909_3565" x="268" y="196" width="126" height="47" filterUnits="userSpaceOnUse" color-interpolation-filters="sRGB">
<feFlood flood-opacity="0" result="BackgroundImageFix"/>
<feColorMatrix in="SourceAlpha" type="matrix" values="0 0 0 0 0 0 0 0 0 0 0 0 0 0 0 0 0 0 127 0" result="hardAlpha"/>
<feOffset dy="1"/>
<feColorMatrix type="matrix" values="0 0 0 0 0 0 0 0 0 0 0 0 0 0 0 0 0 0 0.3 0"/>
<feBlend mode="normal" in2="BackgroundImageFix" result="effect1_dropShadow_909_3565"/>
<feBlend mode="normal" in="SourceGraphic" in2="effect1_dropShadow_909_3565" result="shape"/>
</filter>
<filter id="filter7_d_909_3565" x="6" y="249" width="126" height="47" filterUnits="userSpaceOnUse" color-interpolation-filters="sRGB">
<feFlood flood-opacity="0" result="BackgroundImageFix"/>
<feColorMatrix in="SourceAlpha" type="matrix" values="0 0 0 0 0 0 0 0 0 0 0 0 0 0 0 0 0 0 127 0" result="hardAlpha"/>
<feOffset dy="1"/>
<feColorMatrix type="matrix" values="0 0 0 0 0 0 0 0 0 0 0 0 0 0 0 0 0 0 0.3 0"/>
<feBlend mode="normal" in2="BackgroundImageFix" result="effect1_dropShadow_909_3565"/>
<feBlend mode="normal" in="SourceGraphic" in2="effect1_dropShadow_909_3565" result="shape"/>
</filter>
<filter id="filter8_d_909_3565" x="137" y="249" width="126" height="47" filterUnits="userSpaceOnUse" color-interpolation-filters="sRGB">
<feFlood flood-opacity="0" result="BackgroundImageFix"/>
<feColorMatrix in="SourceAlpha" type="matrix" values="0 0 0 0 0 0 0 0 0 0 0 0 0 0 0 0 0 0 127 0" result="hardAlpha"/>
<feOffset dy="1"/>
<feColorMatrix type="matrix" values="0 0 0 0 0 0 0 0 0 0 0 0 0 0 0 0 0 0 0.3 0"/>
<feBlend mode="normal" in2="BackgroundImageFix" result="effect1_dropShadow_909_3565"/>
<feBlend mode="normal" in="SourceGraphic" in2="effect1_dropShadow_909_3565" result="shape"/>
</filter>
<filter id="filter9_d_909_3565" x="268" y="249" width="126" height="47" filterUnits="userSpaceOnUse" color-interpolation-filters="sRGB">
<feFlood flood-opacity="0" result="BackgroundImageFix"/>
<feColorMatrix in="SourceAlpha" type="matrix" values="0 0 0 0 0 0 0 0 0 0 0 0 0 0 0 0 0 0 127 0" result="hardAlpha"/>
<feOffset dy="1"/>
<feColorMatrix type="matrix" values="0 0 0 0 0 0 0 0 0 0 0 0 0 0 0 0 0 0 0.3 0"/>
<feBlend mode="normal" in2="BackgroundImageFix" result="effect1_dropShadow_909_3565"/>
<feBlend mode="normal" in="SourceGraphic" in2="effect1_dropShadow_909_3565" result="shape"/>
</filter>
<filter id="filter10_d_909_3565" x="137" y="302" width="126" height="47" filterUnits="userSpaceOnUse" color-interpolation-filters="sRGB">
<feFlood flood-opacity="0" result="BackgroundImageFix"/>
<feColorMatrix in="SourceAlpha" type="matrix" values="0 0 0 0 0 0 0 0 0 0 0 0 0 0 0 0 0 0 127 0" result="hardAlpha"/>
<feOffset dy="1"/>
<feColorMatrix type="matrix" values="0 0 0 0 0 0 0 0 0 0 0 0 0 0 0 0 0 0 0.3 0"/>
<feBlend mode="normal" in2="BackgroundImageFix" result="effect1_dropShadow_909_3565"/>
<feBlend mode="normal" in="SourceGraphic" in2="effect1_dropShadow_909_3565" result="shape"/>
</filter>
</defs>
</svg>
