<svg width="400" height="74" viewBox="0 0 400 74" fill="none" xmlns="http://www.w3.org/2000/svg">
<path d="M0 20C0 8.95431 8.95431 0 20 0H380C391.046 0 400 8.9543 400 20V74H0V20Z" fill="white"/>
<mask id="path-2-inside-1_946_557" fill="white">
<path d="M24 20H200V50H24V20Z"/>
</mask>
<path d="M200 20H199.5V50H200H200.5V20H200Z" fill="#C6C6C8" mask="url(#path-2-inside-1_946_557)"/>
<g clip-path="url(#clip0_946_557)">
<path d="M90.9916 45.9407H88.2617V44.0816H90.9916C91.5927 44.0816 92.0823 43.592 92.0823 42.9909V40.7754H93.9414V42.9909C93.9414 44.6176 92.6183 45.9407 90.9916 45.9407Z" fill="#2DA9FE"/>
<path d="M77.6797 45.9407H74.9499C73.3231 45.9407 72 44.6176 72 42.9909V40.7754H73.8592V42.9909C73.8592 43.592 74.3487 44.0816 74.9499 44.0816H77.6797V45.9407Z" fill="#2DA9FE"/>
<path d="M93.9414 29.1654H92.0823V26.9499C92.0823 26.3487 91.5927 25.8592 90.9916 25.8592H88.2617V24H90.9916C92.6183 24 93.9414 25.3231 93.9414 26.9499V29.1654Z" fill="#2DA9FE"/>
<path d="M73.8592 29.1654H72V26.9499C72 25.3231 73.3231 24 74.9499 24H77.6797V25.8592H74.9499C74.3487 25.8592 73.8592 26.3487 73.8592 26.9499V29.1654Z" fill="#2DA9FE"/>
<path d="M81.0164 29.293H77.6297C77.3747 29.293 77.168 29.4997 77.168 29.7547V33.1414C77.168 33.3964 77.3747 33.6031 77.6297 33.6031H81.0164C81.2714 33.6031 81.4781 33.3964 81.4781 33.1414V29.7547C81.4781 29.4997 81.2714 29.293 81.0164 29.293Z" fill="#7892A0"/>
<path d="M88.3172 29.293H84.9304C84.6755 29.293 84.4688 29.4997 84.4688 29.7547V33.1414C84.4688 33.3964 84.6755 33.6031 84.9304 33.6031H88.3172C88.5722 33.6031 88.7789 33.3964 88.7789 33.1414V29.7547C88.7789 29.4997 88.5722 29.293 88.3172 29.293Z" fill="#7892A0"/>
<path d="M81.0164 36.4688H77.6297C77.3747 36.4688 77.168 36.6755 77.168 36.9304V40.3172C77.168 40.5722 77.3747 40.7789 77.6297 40.7789H81.0164C81.2714 40.7789 81.4781 40.5722 81.4781 40.3172V36.9304C81.4781 36.6755 81.2714 36.4688 81.0164 36.4688Z" fill="#7892A0"/>
<path d="M88.3172 36.4688H84.9304C84.6755 36.4688 84.4688 36.6755 84.4688 36.9304V40.3172C84.4688 40.5722 84.6755 40.7789 84.9304 40.7789H88.3172C88.5722 40.7789 88.7789 40.5722 88.7789 40.3172V36.9304C88.7789 36.6755 88.5722 36.4688 88.3172 36.4688Z" fill="#2DA9FE"/>
</g>
<path d="M118.096 33.5332V34.9551H116.332V41.2305H114.582V28.8164H116.332V33.5332H118.096ZM108.649 30.0059V36.7461C110.242 36.7256 111.951 36.5752 113.748 36.2129L113.926 37.6621C111.848 38.0859 109.825 38.1953 107.993 38.1953H106.913V30.0059H108.649ZM122.369 29.6504C124.338 29.6367 125.814 30.9219 125.814 32.6992C125.814 34.4902 124.338 35.7617 122.369 35.7617C120.4 35.7617 118.91 34.4902 118.91 32.6992C118.91 30.9219 120.4 29.6367 122.369 29.6504ZM122.369 31.1543C121.384 31.1543 120.633 31.7285 120.646 32.6992C120.633 33.6836 121.384 34.2441 122.369 34.2441C123.353 34.2441 124.105 33.6836 124.119 32.6992C124.105 31.7285 123.367 31.1543 122.369 31.1543ZM128.795 28.8164V41.2852H127.058V28.8164H128.795ZM118.39 37.3203C120.605 37.334 123.681 37.293 126.347 36.9238L126.484 38.1816C123.722 38.7148 120.769 38.7422 118.595 38.7422L118.39 37.3203ZM137.285 36.5684H139.049L139.801 37.5391C140.273 36.9854 140.539 36.1514 140.539 35.0508C140.539 32.9316 139.541 31.7832 138.01 31.7832C136.479 31.7832 135.467 32.9316 135.467 35.0508C135.467 37.1699 136.479 38.3184 138.01 38.3184C138.208 38.3184 138.4 38.2979 138.584 38.2637L137.285 36.5684ZM142.631 35.0508C142.631 36.8145 142.03 38.1748 141.059 39.0293L142.467 40.8203H140.539L139.746 39.8223C139.213 40.0342 138.625 40.1367 138.01 40.1367C135.371 40.1367 133.375 38.2637 133.375 35.0508C133.375 31.8242 135.371 29.9648 138.01 29.9648C140.621 29.9648 142.631 31.8242 142.631 35.0508ZM143.841 40V30.1016H147.724C149.98 30.1016 151.265 31.373 151.265 33.3281C151.265 34.6816 150.643 35.666 149.515 36.1445L151.621 40H149.351L147.464 36.4863H145.892V40H143.841ZM145.892 34.8184H147.341C148.558 34.8184 149.146 34.3125 149.146 33.3281C149.146 32.3301 148.558 31.7832 147.341 31.7832H145.892V34.8184Z" fill="#111827"/>
<g clip-path="url(#clip1_946_557)">
<path d="M266.731 45.6366H264.039V43.8032H266.731C267.324 43.8032 267.807 43.3205 267.807 42.7277V40.543H269.64V42.7277C269.64 44.3319 268.335 45.6366 266.731 45.6366Z" fill="#2DA9FE"/>
<path d="M253.605 45.6366H250.913C249.309 45.6366 248.004 44.3319 248.004 42.7277V40.543H249.837V42.7277C249.837 43.3205 250.32 43.8032 250.913 43.8032H253.605V45.6366Z" fill="#2DA9FE"/>
<path d="M269.64 29.0936H267.807V26.9089C267.807 26.3161 267.324 25.8333 266.731 25.8333H264.039V24H266.731C268.335 24 269.64 25.3047 269.64 26.9089V29.0936Z" fill="#2DA9FE"/>
<path d="M249.833 29.0936H248V26.9089C248 25.3047 249.305 24 250.909 24H253.601V25.8333H250.909C250.316 25.8333 249.833 26.3161 249.833 26.9089V29.0936Z" fill="#2DA9FE"/>
<path d="M269.346 34.0039H248V36.0909H269.346V34.0039Z" fill="#7892A0"/>
</g>
<path d="M286.7 36.5684H288.463L289.215 37.5391C289.687 36.9854 289.954 36.1514 289.954 35.0508C289.954 32.9316 288.956 31.7832 287.424 31.7832C285.893 31.7832 284.881 32.9316 284.881 35.0508C284.881 37.1699 285.893 38.3184 287.424 38.3184C287.622 38.3184 287.814 38.2979 287.998 38.2637L286.7 36.5684ZM292.045 35.0508C292.045 36.8145 291.444 38.1748 290.473 39.0293L291.881 40.8203H289.954L289.161 39.8223C288.627 40.0342 288.039 40.1367 287.424 40.1367C284.786 40.1367 282.789 38.2637 282.789 35.0508C282.789 31.8242 284.786 29.9648 287.424 29.9648C290.036 29.9648 292.045 31.8242 292.045 35.0508ZM293.256 40V30.1016H297.138C299.394 30.1016 300.679 31.373 300.679 33.3281C300.679 34.6816 300.057 35.666 298.929 36.1445L301.035 40H298.765L296.879 36.4863H295.306V40H293.256ZM295.306 34.8184H296.756C297.972 34.8184 298.56 34.3125 298.56 33.3281C298.56 32.3301 297.972 31.7832 296.756 31.7832H295.306V34.8184ZM311.467 29.6777V30.9492H309.047C309.184 31.5986 310.127 32.1387 311.754 32.2891L311.18 33.5469C309.717 33.3691 308.699 32.8564 308.172 32.1387C307.625 32.8975 306.586 33.4443 305.096 33.6426L304.522 32.3984C306.183 32.2207 307.126 31.626 307.27 30.9492H304.836V29.6777H307.297V28.7754H309.02V29.6777H311.467ZM309.02 33.1777V34.1348C309.997 34.0869 310.968 34.0117 311.877 33.9023L312 35.0781C309.43 35.4883 306.614 35.5156 304.453 35.5156L304.276 34.2168C305.185 34.2168 306.224 34.2168 307.297 34.1895V33.1777H309.02ZM314.256 36.1172V39.1934H307.584V39.8906H314.666V41.1758H305.834V38.0176H312.506V37.375H305.821V36.1172H314.256ZM314.256 28.8164V31.4688H315.842V32.8906H314.256V35.6523H312.506V28.8164H314.256ZM319.595 29.4863C320.586 29.4863 321.455 29.8486 322.056 30.457H324.873V28.8164H326.609V36.1035H324.873V34.6133H322.043C321.441 35.2148 320.58 35.5771 319.595 35.5703C317.709 35.584 316.273 34.2852 316.287 32.5352C316.273 30.7578 317.709 29.4863 319.595 29.4863ZM319.595 30.9766C318.625 30.9766 317.927 31.5508 317.941 32.5352C317.927 33.4922 318.625 34.1074 319.595 34.0938C320.539 34.1074 321.222 33.4922 321.222 32.5352C321.222 31.5508 320.539 30.9766 319.595 30.9766ZM322.357 36.3633C324.996 36.3633 326.636 37.2656 326.65 38.8105C326.636 40.3555 324.996 41.2578 322.357 41.2578C319.732 41.2578 318.078 40.3555 318.078 38.8105C318.078 37.2656 319.732 36.3633 322.357 36.3633ZM322.357 37.6895C320.703 37.6895 319.787 38.0586 319.787 38.8105C319.787 39.5352 320.703 39.9043 322.357 39.9043C324.039 39.9043 324.941 39.5352 324.941 38.8105C324.941 38.0586 324.039 37.6895 322.357 37.6895ZM322.808 31.8379C322.849 32.0566 322.877 32.2959 322.877 32.5352C322.877 32.7744 322.849 33 322.808 33.2188H324.873V31.8379H322.808Z" fill="#111827"/>
<defs>
<clipPath id="clip0_946_557">
<rect width="22" height="22" fill="white" transform="translate(72 24)"/>
</clipPath>
<clipPath id="clip1_946_557">
<rect width="22" height="22" fill="white" transform="translate(248 24)"/>
</clipPath>
</defs>
</svg>
